<?xml version="1.0" ?>
<svg xmlns="http://www.w3.org/2000/svg" version="1.1" width="674" height="446">
  <defs>
    <radialGradient id="shape_0_fill" cx="0.5367139595552439" cy="0.7430385025092839" r="0.27677566573598616">
      <stop offset="0.7875782" stop-color="rgb(180, 186, 1)" stop-opacity="0.899662435054779"/>
      <stop offset="1.0" stop-color="rgb(52, 39, 0)" stop-opacity="1.0"/>
    </radialGradient>
    <radialGradient id="shape_1_fill" cx="0.5377668612788622" cy="0.7453607122994325" r="0.2059015109913993">
      <stop offset="0.6160963" stop-color="rgb(92, 96, 59)" stop-opacity="0.874552845954895"/>
      <stop offset="1.0" stop-color="rgb(20, 3, 0)" stop-opacity="0.6218808889389038"/>
    </radialGradient>
    <radialGradient id="shape_2_fill" cx="0.09792284866468842" cy="0.7376681614349776" r="0.22062588021026522">
      <stop offset="0.00037531758" stop-color="rgb(30, 90, 183)" stop-opacity="0.9993760585784912"/>
      <stop offset="0.9941083" stop-color="rgb(10, 114, 255)" stop-opacity="0.9495741128921509"/>
    </radialGradient>
    <radialGradient id="shape_3_fill" cx="0.27567993073505886" cy="0.21603338814637052" r="0.12718197287720814">
      <stop offset="0.3859257" stop-color="rgb(155, 216, 14)" stop-opacity="0.8403444290161133"/>
      <stop offset="1.0" stop-color="rgb(41, 44, 0)" stop-opacity="0.9762527346611023"/>
    </radialGradient>
    <radialGradient id="shape_4_fill" cx="0.1543026706231454" cy="0.9977578475336323" r="0.10288926755639141">
      <stop offset="0.0" stop-color="rgb(81, 79, 86)" stop-opacity="1.0"/>
      <stop offset="1.0" stop-color="rgb(101, 91, 107)" stop-opacity="0.8518193960189819"/>
    </radialGradient>
    <radialGradient id="shape_5_fill" cx="0.14807964290992442" cy="0.23997249517740155" r="0.11810664960821587">
      <stop offset="0.0" stop-color="rgb(255, 255, 255)" stop-opacity="0.6465681195259094"/>
      <stop offset="0.5626646" stop-color="rgb(255, 255, 255)" stop-opacity="0.6401140093803406"/>
    </radialGradient>
    <radialGradient id="shape_6_fill" cx="0.18397626112759644" cy="0.9977578475336323" r="0.0754974885934892">
      <stop offset="0.0" stop-color="rgb(93, 90, 94)" stop-opacity="1.0"/>
      <stop offset="1.0" stop-color="rgb(148, 130, 136)" stop-opacity="0.8249075412750244"/>
    </radialGradient>
    <radialGradient id="shape_7_fill" cx="0.2893175074183976" cy="0.05829596412556054" r="0.08666390552011372">
      <stop offset="0.0" stop-color="rgb(55, 66, 29)" stop-opacity="1.0"/>
      <stop offset="1.0" stop-color="rgb(82, 94, 23)" stop-opacity="0.8182315826416016"/>
    </radialGradient>
    <radialGradient id="shape_8_fill" cx="0.3382789091115889" cy="0.9439461883408071" r="0.06756690277190167">
      <stop offset="0.0" stop-color="rgb(91, 124, 45)" stop-opacity="1.0"/>
      <stop offset="1.0" stop-color="rgb(136, 197, 80)" stop-opacity="0.7494006156921387"/>
    </radialGradient>
    <radialGradient id="shape_9_fill" cx="0.30712166172106825" cy="0.9977578475336323" r="0.0730758406641929">
      <stop offset="0.0" stop-color="rgb(38, 48, 20)" stop-opacity="1.0"/>
      <stop offset="1.0" stop-color="rgb(20, 26, 23)" stop-opacity="0.9686723947525024"/>
    </radialGradient>
    <radialGradient id="shape_10_fill" cx="0.3056379821958457" cy="0.9977578475336323" r="0.06792919147615971">
      <stop offset="0.0" stop-color="rgb(39, 49, 21)" stop-opacity="1.0"/>
      <stop offset="1.0" stop-color="rgb(42, 31, 0)" stop-opacity="0.7062920928001404"/>
    </radialGradient>
    <radialGradient id="shape_11_fill" cx="0.21810089020771514" cy="0.968609865470852" r="0.06792919147615971">
      <stop offset="0.0" stop-color="rgb(138, 135, 129)" stop-opacity="1.0"/>
      <stop offset="1.0" stop-color="rgb(217, 183, 170)" stop-opacity="0.5602461695671082"/>
    </radialGradient>
    <radialGradient id="shape_12_fill" cx="0.29080118694362017" cy="0.9977578475336323" r="0.07480746985189285">
      <stop offset="0.0" stop-color="rgb(22, 25, 13)" stop-opacity="1.0"/>
      <stop offset="1.0" stop-color="rgb(27, 26, 0)" stop-opacity="1.0"/>
    </radialGradient>
    <radialGradient id="shape_13_fill" cx="0.327893175074184" cy="0.8923766816143498" r="0.06900465877544279">
      <stop offset="0.0" stop-color="rgb(89, 117, 50)" stop-opacity="1.0"/>
      <stop offset="1.0" stop-color="rgb(128, 169, 40)" stop-opacity="0.8954323530197144"/>
    </radialGradient>
    <radialGradient id="shape_14_fill" cx="0.142433234421365" cy="0.9977578475336323" r="0.06617211022079875">
      <stop offset="0.0" stop-color="rgb(155, 150, 153)" stop-opacity="1.0"/>
      <stop offset="1.0" stop-color="rgb(255, 255, 255)" stop-opacity="0.2891283333301544"/>
    </radialGradient>
    <radialGradient id="shape_15_fill" cx="0.31008902077151335" cy="0.9977578475336323" r="0.06683642786405207">
      <stop offset="0.0" stop-color="rgb(43, 55, 23)" stop-opacity="1.0"/>
      <stop offset="1.0" stop-color="rgb(52, 64, 9)" stop-opacity="0.9487919807434082"/>
    </radialGradient>
    <radialGradient id="shape_16_fill" cx="0.27299703264094954" cy="0.9977578475336323" r="0.08110449363640579">
      <stop offset="0.0" stop-color="rgb(31, 35, 19)" stop-opacity="1.0"/>
      <stop offset="1.0" stop-color="rgb(31, 29, 0)" stop-opacity="1.0"/>
    </radialGradient>
    <radialGradient id="shape_17_fill" cx="0.2893175074183976" cy="0.9977578475336323" r="0.07513486030193747">
      <stop offset="0.0" stop-color="rgb(22, 23, 13)" stop-opacity="1.0"/>
      <stop offset="1.0" stop-color="rgb(3, 0, 0)" stop-opacity="0.6970507502555847"/>
    </radialGradient>
    <radialGradient id="shape_18_fill" cx="0.3293768545994065" cy="0.7556053811659192" r="0.06617211022079875">
      <stop offset="0.0" stop-color="rgb(83, 108, 65)" stop-opacity="1.0"/>
      <stop offset="1.0" stop-color="rgb(110, 143, 58)" stop-opacity="0.9421976804733276"/>
    </radialGradient>
    <radialGradient id="shape_19_fill" cx="0.3516320474777448" cy="0.9977578475336323" r="0.06617211022079875">
      <stop offset="0.0" stop-color="rgb(95, 135, 39)" stop-opacity="1.0"/>
      <stop offset="1.0" stop-color="rgb(155, 228, 7)" stop-opacity="0.8048889636993408"/>
    </radialGradient>
    <radialGradient id="shape_20_fill" cx="0.0830860534124629" cy="0.9977578475336323" r="0.06792919147615971">
      <stop offset="0.0" stop-color="rgb(49, 52, 66)" stop-opacity="1.0"/>
      <stop offset="1.0" stop-color="rgb(19, 11, 53)" stop-opacity="0.5964612364768982"/>
    </radialGradient>
    <radialGradient id="shape_21_fill" cx="0.29821958456973297" cy="0.9977578475336323" r="0.06792919147615971">
      <stop offset="0.0" stop-color="rgb(33, 40, 17)" stop-opacity="1.0"/>
      <stop offset="1.0" stop-color="rgb(29, 38, 0)" stop-opacity="0.6613306403160095"/>
    </radialGradient>
    <radialGradient id="shape_22_fill" cx="0.3564346947372844" cy="0.44366290857973656" r="0.06591664435955466">
      <stop offset="0.0" stop-color="rgb(224, 252, 0)" stop-opacity="0.6314526796340942"/>
      <stop offset="0.43002188" stop-color="rgb(163, 203, 33)" stop-opacity="0.9192676544189453"/>
    </radialGradient>
    <radialGradient id="shape_23_fill" cx="0.6454005934718101" cy="0.1412556053811659" r="0.06617211022079875">
      <stop offset="0.0" stop-color="rgb(46, 38, 13)" stop-opacity="1.0"/>
      <stop offset="1.0" stop-color="rgb(47, 24, 0)" stop-opacity="0.7843456268310547"/>
    </radialGradient>
    <radialGradient id="shape_24_fill" cx="0.24925732258873098" cy="0.48430544592339897" r="0.06617138010811735">
      <stop offset="0.0" stop-color="rgb(201, 209, 206)" stop-opacity="1.0"/>
      <stop offset="0.9766031" stop-color="rgb(255, 255, 255)" stop-opacity="0.5111580491065979"/>
    </radialGradient>
    <radialGradient id="shape_25_fill" cx="0.6320474777448071" cy="0.9977578475336323" r="0.06617211022079875">
      <stop offset="0.0" stop-color="rgb(35, 28, 8)" stop-opacity="1.0"/>
      <stop offset="1.0" stop-color="rgb(32, 8, 0)" stop-opacity="0.6384363174438477"/>
    </radialGradient>
    <radialGradient id="shape_26_fill" cx="0.15414523795379728" cy="0.3207086811151205" r="0.0660470289009615">
      <stop offset="0.119816266" stop-color="rgb(198, 211, 155)" stop-opacity="1.0"/>
      <stop offset="0.58348066" stop-color="rgb(115, 114, 253)" stop-opacity="0.0"/>
    </radialGradient>
    <radialGradient id="shape_27_fill" cx="0.15410647972401242" cy="0.3208032787648017" r="0.06604505929465818">
      <stop offset="0.0" stop-color="rgb(192, 205, 0)" stop-opacity="1.0"/>
      <stop offset="0.49377522" stop-color="rgb(81, 74, 48)" stop-opacity="0.5969194173812866"/>
    </radialGradient>
    <radialGradient id="shape_28_fill" cx="0.03966803508271803" cy="0.019938323529846466" r="0.06731323672331406">
      <stop offset="0.035161696" stop-color="rgb(0, 17, 124)" stop-opacity="0.9946070909500122"/>
      <stop offset="0.7908897" stop-color="rgb(0, 30, 145)" stop-opacity="0.7658231258392334"/>
    </radialGradient>
    <radialGradient id="shape_29_fill" cx="0.33976258863681147" cy="0.6659192825112108" r="0.06617211022079875">
      <stop offset="0.0" stop-color="rgb(90, 117, 55)" stop-opacity="1.0"/>
      <stop offset="1.0" stop-color="rgb(121, 156, 33)" stop-opacity="0.9219245314598083"/>
    </radialGradient>
    <radialGradient id="shape_30_fill" cx="0.04068219272602206" cy="0.018925119408577547" r="0.06724009528004452">
      <stop offset="0.27105805" stop-color="rgb(47, 77, 56)" stop-opacity="0.880298912525177"/>
      <stop offset="0.99997634" stop-color="rgb(35, 45, 49)" stop-opacity="0.7252159118652344"/>
    </radialGradient>
    <radialGradient id="shape_31_fill" cx="0.12314540059347182" cy="0.9977578475336323" r="0.06617211022079875">
      <stop offset="0.0" stop-color="rgb(95, 103, 98)" stop-opacity="1.0"/>
      <stop offset="1.0" stop-color="rgb(148, 137, 131)" stop-opacity="0.7605247497558594"/>
    </radialGradient>
    <radialGradient id="shape_32_fill" cx="0.4035608308605341" cy="0.984304932735426" r="0.06617211022079875">
      <stop offset="0.0" stop-color="rgb(126, 155, 63)" stop-opacity="1.0"/>
      <stop offset="1.0" stop-color="rgb(178, 151, 28)" stop-opacity="0.9333889484405518"/>
    </radialGradient>
    <radialGradient id="shape_33_fill" cx="0.3249258160237389" cy="0.6053811659192825" r="0.06617211022079875">
      <stop offset="0.0" stop-color="rgb(93, 124, 71)" stop-opacity="1.0"/>
      <stop offset="1.0" stop-color="rgb(124, 155, 43)" stop-opacity="0.9488747715950012"/>
    </radialGradient>
    <radialGradient id="shape_34_fill" cx="0.6468842729970327" cy="0.531390134529148" r="0.06617211022079875">
      <stop offset="0.0" stop-color="rgb(54, 47, 24)" stop-opacity="1.0"/>
      <stop offset="1.0" stop-color="rgb(64, 36, 8)" stop-opacity="0.7136723399162292"/>
    </radialGradient>
    <radialGradient id="shape_35_fill" cx="0.14343546972076687" cy="0.23575499667180494" r="0.06674377147097262">
      <stop offset="0.012295729" stop-color="rgb(142, 209, 35)" stop-opacity="0.25508973002433777"/>
      <stop offset="0.584449" stop-color="rgb(162, 138, 81)" stop-opacity="0.6090721487998962"/>
    </radialGradient>
    <radialGradient id="shape_36_fill" cx="0.2878338278931751" cy="0.9977578475336323" r="0.06617211022079875">
      <stop offset="0.0" stop-color="rgb(80, 96, 53)" stop-opacity="1.0"/>
      <stop offset="1.0" stop-color="rgb(67, 67, 27)" stop-opacity="0.9349666833877563"/>
    </radialGradient>
    <radialGradient id="shape_37_fill" cx="0.129080118694362" cy="0.9977578475336323" r="0.06617211022079875">
      <stop offset="0.0" stop-color="rgb(87, 97, 81)" stop-opacity="1.0"/>
      <stop offset="1.0" stop-color="rgb(99, 106, 80)" stop-opacity="0.7564398646354675"/>
    </radialGradient>
    <radialGradient id="shape_38_fill" cx="0.33892324204260943" cy="0.5607740119968294" r="0.0666785763703751">
      <stop offset="0.7500112" stop-color="rgb(86, 123, 12)" stop-opacity="0.8986191153526306"/>
      <stop offset="0.6023779" stop-color="rgb(178, 255, 63)" stop-opacity="0.8027225136756897"/>
    </radialGradient>
    <radialGradient id="shape_39_fill" cx="0.40059347181008903" cy="0.9641255605381166" r="0.06617211022079875">
      <stop offset="0.0" stop-color="rgb(138, 168, 60)" stop-opacity="1.0"/>
      <stop offset="1.0" stop-color="rgb(234, 255, 80)" stop-opacity="1.0"/>
    </radialGradient>
    <radialGradient id="shape_40_fill" cx="0.6162081755233447" cy="0.8821136064058996" r="0.0670458626676384">
      <stop offset="0.34850812" stop-color="rgb(131, 110, 92)" stop-opacity="0.5158677697181702"/>
      <stop offset="0.49766552" stop-color="rgb(0, 0, 65)" stop-opacity="1.0"/>
    </radialGradient>
    <radialGradient id="shape_41_fill" cx="0.6454005934718101" cy="0.08744394618834081" r="0.06617211022079875">
      <stop offset="0.0" stop-color="rgb(58, 48, 21)" stop-opacity="1.0"/>
      <stop offset="1.0" stop-color="rgb(90, 58, 8)" stop-opacity="0.9472967386245728"/>
    </radialGradient>
    <radialGradient id="shape_42_fill" cx="0.5845697329376854" cy="0.6188340807174888" r="0.06617211022079875">
      <stop offset="0.0" stop-color="rgb(62, 59, 56)" stop-opacity="1.0"/>
      <stop offset="1.0" stop-color="rgb(33, 28, 68)" stop-opacity="0.7108193635940552"/>
    </radialGradient>
    <radialGradient id="shape_43_fill" cx="0.35678657509099126" cy="0.5047619396261036" r="0.06724038392924414">
      <stop offset="0.24202263" stop-color="rgb(130, 179, 57)" stop-opacity="1.0"/>
      <stop offset="0.525924" stop-color="rgb(214, 255, 23)" stop-opacity="0.8580538630485535"/>
    </radialGradient>
    <radialGradient id="shape_44_fill" cx="0.5934718100890207" cy="0.9977578475336323" r="0.06617211022079875">
      <stop offset="0.0" stop-color="rgb(89, 61, 18)" stop-opacity="1.0"/>
      <stop offset="1.0" stop-color="rgb(173, 81, 0)" stop-opacity="0.7316848039627075"/>
    </radialGradient>
    <radialGradient id="shape_45_fill" cx="0.612759643916914" cy="0.04035874439461883" r="0.06617211022079875">
      <stop offset="0.0" stop-color="rgb(157, 136, 123)" stop-opacity="1.0"/>
      <stop offset="1.0" stop-color="rgb(255, 236, 214)" stop-opacity="1.0"/>
    </radialGradient>
    <radialGradient id="shape_46_fill" cx="0.28635014836795253" cy="0.9977578475336323" r="0.06617211022079875">
      <stop offset="0.0" stop-color="rgb(82, 99, 55)" stop-opacity="1.0"/>
      <stop offset="1.0" stop-color="rgb(97, 116, 18)" stop-opacity="0.5046007037162781"/>
    </radialGradient>
    <radialGradient id="shape_47_fill" cx="0.28635014836795253" cy="0.8183856502242153" r="0.06617211022079875">
      <stop offset="0.0" stop-color="rgb(166, 189, 197)" stop-opacity="1.0"/>
      <stop offset="1.0" stop-color="rgb(255, 255, 255)" stop-opacity="0.4879820942878723"/>
    </radialGradient>
    <radialGradient id="shape_48_fill" cx="0.40801186943620177" cy="0.9977578475336323" r="0.06617211022079875">
      <stop offset="0.0" stop-color="rgb(107, 135, 68)" stop-opacity="1.0"/>
      <stop offset="1.0" stop-color="rgb(136, 154, 51)" stop-opacity="1.0"/>
    </radialGradient>
    <radialGradient id="shape_49_fill" cx="0.19287833827893175" cy="0.3991031390134529" r="0.06617211022079875">
      <stop offset="0.0" stop-color="rgb(92, 100, 54)" stop-opacity="1.0"/>
      <stop offset="1.0" stop-color="rgb(97, 85, 25)" stop-opacity="0.637717068195343"/>
    </radialGradient>
    <radialGradient id="shape_50_fill" cx="0.6439169139465876" cy="0.7376681614349776" r="0.06617211022079875">
      <stop offset="0.0" stop-color="rgb(65, 56, 25)" stop-opacity="1.0"/>
      <stop offset="1.0" stop-color="rgb(153, 206, 53)" stop-opacity="0.4424428641796112"/>
    </radialGradient>
    <radialGradient id="shape_51_fill" cx="0.5845697329376854" cy="0.6322869955156951" r="0.06617211022079875">
      <stop offset="0.0" stop-color="rgb(75, 68, 60)" stop-opacity="1.0"/>
      <stop offset="1.0" stop-color="rgb(133, 103, 85)" stop-opacity="0.821054220199585"/>
    </radialGradient>
    <radialGradient id="shape_52_fill" cx="0.2997032640949555" cy="0.6031390134529148" r="0.06617211022079875">
      <stop offset="0.0" stop-color="rgb(107, 158, 118)" stop-opacity="1.0"/>
      <stop offset="1.0" stop-color="rgb(189, 255, 218)" stop-opacity="0.7684445977210999"/>
    </radialGradient>
    <radialGradient id="shape_53_fill" cx="0.6097922848664689" cy="0.45067264573991034" r="0.06617211022079875">
      <stop offset="0.0" stop-color="rgb(38, 39, 27)" stop-opacity="1.0"/>
      <stop offset="1.0" stop-color="rgb(26, 13, 22)" stop-opacity="0.4352656900882721"/>
    </radialGradient>
    <radialGradient id="shape_54_fill" cx="0.6335311572700296" cy="0.426009002822397" r="0.06617211022079875">
      <stop offset="0.0" stop-color="rgb(67, 49, 20)" stop-opacity="1.0"/>
      <stop offset="1.0" stop-color="rgb(113, 61, 0)" stop-opacity="0.8226291537284851"/>
    </radialGradient>
    <radialGradient id="shape_55_fill" cx="0.3707147705802578" cy="0.5988454091709291" r="0.06600102048245665">
      <stop offset="0.43101862" stop-color="rgb(237, 255, 69)" stop-opacity="1.0"/>
      <stop offset="0.16350946" stop-color="rgb(205, 255, 0)" stop-opacity="0.7655801177024841"/>
    </radialGradient>
    <radialGradient id="shape_56_fill" cx="0.5489614243323442" cy="0.600896860986547" r="0.06617211022079875">
      <stop offset="0.0" stop-color="rgb(50, 62, 80)" stop-opacity="1.0"/>
      <stop offset="1.0" stop-color="rgb(25, 57, 171)" stop-opacity="0.5771515369415283"/>
    </radialGradient>
    <radialGradient id="shape_57_fill" cx="0.4094955489614243" cy="0.9035874439461884" r="0.06617211022079875">
      <stop offset="0.0" stop-color="rgb(111, 144, 47)" stop-opacity="1.0"/>
      <stop offset="1.0" stop-color="rgb(171, 208, 14)" stop-opacity="0.7631710171699524"/>
    </radialGradient>
    <radialGradient id="shape_58_fill" cx="0.5281899109792285" cy="0.9977578475336323" r="0.06617211022079875">
      <stop offset="0.0" stop-color="rgb(50, 43, 14)" stop-opacity="1.0"/>
      <stop offset="1.0" stop-color="rgb(67, 43, 0)" stop-opacity="1.0"/>
    </radialGradient>
    <radialGradient id="shape_59_fill" cx="0.5845697329376854" cy="0.7690582959641256" r="0.06617211022079875">
      <stop offset="0.0" stop-color="rgb(61, 63, 58)" stop-opacity="1.0"/>
      <stop offset="1.0" stop-color="rgb(75, 71, 100)" stop-opacity="0.7176101207733154"/>
    </radialGradient>
    <radialGradient id="shape_60_fill" cx="0.5489614243323442" cy="0.9977578475336323" r="0.06617211022079875">
      <stop offset="0.0" stop-color="rgb(140, 131, 64)" stop-opacity="1.0"/>
      <stop offset="1.0" stop-color="rgb(248, 215, 87)" stop-opacity="0.9396349787712097"/>
    </radialGradient>
    <radialGradient id="shape_61_fill" cx="0.6468599132684997" cy="0.9686186923039868" r="0.0661784435238258">
      <stop offset="0.38444573" stop-color="rgb(255, 255, 19)" stop-opacity="1.0"/>
      <stop offset="1.0" stop-color="rgb(255, 222, 0)" stop-opacity="1.0"/>
    </radialGradient>
    <radialGradient id="shape_62_fill" cx="0.615727002967359" cy="0.3991031390134529" r="0.06617211022079875">
      <stop offset="0.0" stop-color="rgb(55, 47, 13)" stop-opacity="1.0"/>
      <stop offset="1.0" stop-color="rgb(74, 47, 0)" stop-opacity="0.9707861542701721"/>
    </radialGradient>
    <radialGradient id="shape_63_fill" cx="0.6261127596439169" cy="0.7286995515695067" r="0.06617211022079875">
      <stop offset="0.0" stop-color="rgb(79, 66, 32)" stop-opacity="1.0"/>
      <stop offset="1.0" stop-color="rgb(216, 225, 89)" stop-opacity="0.7156544923782349"/>
    </radialGradient>
    <radialGradient id="shape_64_fill" cx="0.40801186943620177" cy="0.12556053811659193" r="0.06617211022079875">
      <stop offset="0.0" stop-color="rgb(76, 66, 59)" stop-opacity="1.0"/>
      <stop offset="1.0" stop-color="rgb(101, 68, 62)" stop-opacity="1.0"/>
    </radialGradient>
    <radialGradient id="shape_65_fill" cx="0.6528189910979229" cy="0.6883408071748879" r="0.06617211022079875">
      <stop offset="0.0" stop-color="rgb(121, 97, 39)" stop-opacity="1.0"/>
      <stop offset="1.0" stop-color="rgb(255, 255, 86)" stop-opacity="1.0"/>
    </radialGradient>
    <radialGradient id="shape_66_fill" cx="0.6510808022156668" cy="0.46083616248160736" r="0.06822344952591802">
      <stop offset="0.3435501" stop-color="rgb(146, 180, 85)" stop-opacity="0.4072895050048828"/>
      <stop offset="0.9688448" stop-color="rgb(0, 0, 0)" stop-opacity="0.05990292876958847"/>
    </radialGradient>
    <radialGradient id="shape_67_fill" cx="0.5943687280490774" cy="0.995365912604225" r="0.06851383628052844">
      <stop offset="0.897461" stop-color="rgb(52, 28, 0)" stop-opacity="0.770003616809845"/>
      <stop offset="1.0" stop-color="rgb(0, 0, 0)" stop-opacity="0.1628071516752243"/>
    </radialGradient>
    <radialGradient id="shape_68_fill" cx="0.48869953098919694" cy="0.996300530540569" r="0.06755307590926082">
      <stop offset="0.43734068" stop-color="rgb(51, 32, 17)" stop-opacity="0.6928286552429199"/>
      <stop offset="1.0" stop-color="rgb(49, 67, 60)" stop-opacity="0.3101820945739746"/>
    </radialGradient>
  </defs>
  <g>
    <path d="M -0.2522538900375366 271.21759033203125 C 25.822158813476562 270.1820373535156 34.79521942138672 271.17901611328125 44.893333435058594 273.2132568359375 C 48.08595275878906 274.7349548339844 49.36378479003906 276.5611572265625 57.106510162353516 274.52105712890625 C 60.44918441772461 273.7904357910156 63.8807373046875 274.5641174316406 64.53934478759766 273.16070556640625 C 71.41058349609375 270.8614501953125 101.29436492919922 271.4235534667969 116.14952087402344 271.4833679199219 C 120.32014465332031 272.508544921875 127.55731964111328 277.361083984375 125.09855651855469 282.7564392089844 C 133.7113037109375 282.34375 140.04425048828125 281.4472961425781 147.56600952148438 285.57916259765625 C 185.26547241210938 282.0245056152344 185.7573699951172 282.536865234375 206.57711791992188 287.2931823730469 C 199.78729248046875 288.1323547363281 198.1770782470703 283.1025695800781 213.69679260253906 273.3946838378906 C 242.3992156982422 274.7386779785156 285.45648193359375 273.8521423339844 309.56072998046875 278.9838562011719 C 342.5521545410156 281.18310546875 418.5098571777344 281.09326171875 461.9559020996094 278.2672424316406 C 489.0411682128906 277.342529296875 538.2967529296875 278.9035339355469 540.2202758789062 284.7066955566406 C 549.135009765625 284.9926452636719 550.5494995117188 280.0562438964844 563.6500244140625 277.1166076660156 C 576.9154663085938 280.5959777832031 611.974365234375 284.49090576171875 612.8555908203125 285.2486877441406 C 632.8385620117188 277.31390380859375 642.8548583984375 277.93389892578125 664.6408081054688 277.86395263671875 C 670.0372314453125 278.4650573730469 675.7339477539062 282.7632751464844 677.1382446289062 287.00518798828125 C 676.228759765625 339.2450256347656 675.0689697265625 391.7467956542969 675.1156616210938 446.4623107910156 C 451.91400146484375 446.6664123535156 228.98939514160156 446.8078308105469 -0.4656901955604553 446.4198913574219 C -0.41400372982025146 389.1458435058594 0.2721669375896454 332.36083984375 -0.2522538900375366 271.21759033203125" stroke-width="0.0" fill="url(#shape_0_fill)"/>
    <path d="M -0.03853621333837509 271.4564514160156 C 35.933231353759766 275.3992919921875 36.5576057434082 274.5904235839844 44.44596481323242 275.475830078125 C 50.892425537109375 269.5179748535156 62.54851150512695 268.3879699707031 77.47422790527344 269.81658935546875 C 113.47109985351562 278.68035888671875 114.01933288574219 279.3109130859375 126.5885238647461 278.931640625 C 127.67911529541016 275.8006591796875 149.06777954101562 275.2118225097656 152.69676208496094 274.205810546875 C 185.08619689941406 273.26593017578125 185.69151306152344 274.78790283203125 201.55104064941406 277.07513427734375 C 203.7432098388672 291.6684875488281 205.63865661621094 291.5659484863281 221.12820434570312 292.90997314453125 C 221.4298553466797 291.685546875 273.55224609375 293.5482482910156 294.2008972167969 294.9391784667969 C 326.23944091796875 296.8213195800781 448.4276123046875 294.77691650390625 454.5709228515625 295.03033447265625 C 471.1022644042969 289.92681884765625 487.7017517089844 291.4091796875 505.48260498046875 288.2447204589844 C 509.6585388183594 287.515380859375 518.3257446289062 286.18328857421875 522.8320922851562 286.4288635253906 C 527.5204467773438 285.6741943359375 531.8731079101562 285.87548828125 535.1104125976562 287.0247497558594 C 543.578369140625 286.79541015625 550.6192626953125 287.9347839355469 557.6535034179688 293.0888366699219 C 572.3245239257812 287.5192565917969 579.33837890625 289.0360107421875 588.0521850585938 290.8268127441406 C 606.919189453125 288.7546081542969 619.8448486328125 287.8902587890625 633.494384765625 288.3489074707031 C 646.1392822265625 281.67047119140625 656.2743530273438 287.3616943359375 673.6740112304688 289.9547119140625 C 673.8418579101562 340.7691955566406 674.4221801757812 392.2668151855469 674.1478881835938 446.2807922363281 C 451.4774169921875 446.3905334472656 229.19664001464844 446.25439453125 -0.307656466960907 446.2476501464844 C -0.2135797142982483 389.4035949707031 -0.2940175533294678 333.0278625488281 -0.03853621333837509 271.4564514160156" stroke-width="0.0" fill="url(#shape_1_fill)"/>
    <path d="M -0.018676472827792168 -0.25989246368408203 C 219.69313049316406 0.10403859615325928 439.478759765625 -0.45242375135421753 671.3389282226562 -0.24714495241641998 C 664.189697265625 9.55305290222168 645.9859008789062 36.94839859008789 637.58056640625 47.73532485961914 C 633.39306640625 52.449378967285156 610.3478393554688 93.7687759399414 585.3373413085938 84.21965789794922 C 578.0671997070312 81.4923324584961 559.5689086914062 70.64652252197266 532.8031005859375 73.81859588623047 C 531.4882202148438 75.73759460449219 524.438232421875 77.63160705566406 522.4759521484375 72.16320037841797 C 522.5923461914062 68.8576431274414 499.571533203125 63.704708099365234 499.7391662597656 62.615657806396484 C 492.7905578613281 62.16212463378906 487.5772705078125 61.10312271118164 484.0911865234375 68.5556411743164 C 474.9336242675781 71.13776397705078 475.8484191894531 74.48371124267578 476.9500732421875 80.89348602294922 C 481.0875549316406 94.58892822265625 471.56622314453125 111.06829071044922 467.4049377441406 115.60531616210938 C 460.53411865234375 116.46797180175781 456.1606140136719 113.6903076171875 451.9117736816406 108.80231475830078 C 435.7051696777344 107.42379760742188 411.6580505371094 102.55937194824219 410.7375183105469 104.86519622802734 C 410.47430419921875 119.38924407958984 410.33953857421875 124.31290435791016 406.60491943359375 130.7926483154297 C 404.066162109375 138.3491973876953 395.5484619140625 137.8435516357422 390.59527587890625 137.56326293945312 C 381.5530090332031 143.8704071044922 375.4703674316406 158.2130889892578 370.5821228027344 157.7177276611328 C 369.6468200683594 162.1546630859375 368.3077697753906 166.095703125 364.5331726074219 170.4789276123047 C 362.15887451171875 172.94705200195312 358.87872314453125 172.20864868164062 352.4810791015625 177.5438995361328 C 345.8648376464844 185.22462463378906 336.4377136230469 177.06591796875 330.21636962890625 173.57545471191406 C 307.31817626953125 173.5518035888672 306.641845703125 180.00994873046875 304.8608093261719 183.071533203125 C 304.7154541015625 188.78155517578125 304.0382385253906 192.13136291503906 307.6142272949219 201.27369689941406 C 307.2601623535156 200.90472412109375 305.62591552734375 198.5858154296875 305.3018798828125 191.62905883789062 C 304.7925109863281 189.4446563720703 299.89239501953125 189.48452758789062 285.9870300292969 183.898681640625 C 289.7073059082031 194.5791473388672 289.3121337890625 195.9800262451172 289.6595764160156 196.27279663085938 C 288.0762939453125 190.47250366210938 287.1814880371094 184.69969177246094 284.39447021484375 183.265625 C 273.1600341796875 185.39064025878906 271.0068054199219 188.7354736328125 264.8692321777344 185.46815490722656 C 258.26751708984375 186.36346435546875 258.5324401855469 190.21763610839844 258.3337097167969 197.64276123046875 C 261.00433349609375 199.26513671875 260.46722412109375 200.31442260742188 257.7786865234375 199.1998291015625 C 256.9776306152344 199.3421173095703 251.7078094482422 197.54876708984375 252.60325622558594 194.79278564453125 C 253.70289611816406 189.63380432128906 254.81329345703125 186.82261657714844 251.11944580078125 174.1079864501953 C 254.5491180419922 168.70938110351562 216.2943115234375 141.88345336914062 214.26283264160156 139.75814819335938 C 184.90208435058594 126.67047119140625 195.5703125 102.18234252929688 191.8282012939453 88.1498794555664 C 193.1978759765625 83.56671142578125 157.92001342773438 73.14399719238281 141.31565856933594 64.03993225097656 C 115.41496276855469 39.00962448120117 68.66431427001953 54.55006790161133 36.37383270263672 62.11894226074219 C 17.458805084228516 69.96057891845703 10.706998825073242 69.42584991455078 -0.567997395992279 69.57614135742188 C 0.34180814027786255 43.958213806152344 -0.3314647376537323 22.56189727783203 -0.018676472827792168 -0.25989246368408203" stroke-width="0.0" fill="url(#shape_2_fill)"/>
    <path d="M 86.44498443603516 65.79759979248047 C 88.54681396484375 69.00483703613281 92.55811309814453 68.54179382324219 93.66545867919922 69.43122100830078 C 90.85435485839844 79.51004791259766 91.37881469726562 81.26475524902344 91.02134704589844 87.65389251708984 C 95.79046630859375 84.87090301513672 97.76675415039062 87.19796752929688 102.86801147460938 88.41618347167969 C 104.22128295898438 75.28030395507812 105.85932922363281 73.51434326171875 108.69810485839844 73.4332504272461 C 111.67570495605469 87.70866394042969 111.58464813232422 93.54975891113281 116.19754791259766 99.43570709228516 C 116.67100524902344 100.06586456298828 116.38888549804688 108.56600952148438 115.63034057617188 115.46658325195312 C 124.77603912353516 115.0742416381836 128.7626190185547 115.27232360839844 129.59072875976562 113.67314147949219 C 130.0804901123047 108.97355651855469 136.39974975585938 107.45853424072266 136.47348022460938 104.52836608886719 C 136.60536193847656 103.68887329101562 135.53399658203125 101.79711151123047 137.04200744628906 98.05791473388672 C 136.4563751220703 93.25641632080078 137.47450256347656 92.87630462646484 137.2664031982422 89.04484558105469 C 137.2861785888672 84.88822937011719 138.61740112304688 84.78173828125 139.1687469482422 85.97721862792969 C 139.79843139648438 82.26770782470703 146.6371307373047 80.69017028808594 147.92430114746094 83.58174896240234 C 148.01100158691406 91.17539978027344 150.59669494628906 95.32073974609375 151.96865844726562 99.00626373291016 C 153.42515563964844 103.04155731201172 149.9283447265625 106.89818572998047 148.8199462890625 106.68717193603516 C 152.79383850097656 109.9823989868164 150.71127319335938 114.19779968261719 148.61219787597656 113.49339294433594 C 154.71942138671875 112.75354766845703 158.0418243408203 122.55949401855469 157.69534301757812 123.12359619140625 C 161.64047241210938 124.81034851074219 164.92816162109375 123.39260864257812 169.660888671875 122.69564819335938 C 174.48458862304688 119.64498138427734 175.6952362060547 121.54865264892578 177.6982879638672 122.5172119140625 C 179.3267364501953 122.67906188964844 179.92462158203125 125.45718383789062 182.59017944335938 127.80095672607422 C 183.81207275390625 130.226318359375 182.3777313232422 133.14041137695312 183.35154724121094 135.55514526367188 C 186.07273864746094 135.61376953125 187.825439453125 142.87301635742188 188.62611389160156 145.43881225585938 C 194.40716552734375 144.80908203125 205.74887084960938 155.9981231689453 201.87130737304688 173.76368713378906 C 205.4719696044922 174.6706085205078 205.25689697265625 178.24179077148438 205.5434112548828 182.82081604003906 C 212.17486572265625 182.01560974121094 215.0266571044922 198.6460418701172 212.382568359375 205.10000610351562 C 207.5240020751953 207.12539672851562 203.42604064941406 207.92771911621094 203.12745666503906 210.27920532226562 C 200.79458618164062 210.53453063964844 199.9207305908203 211.6914520263672 200.2681884765625 213.62274169921875 C 196.14788818359375 215.1416015625 193.79779052734375 215.44998168945312 191.89508056640625 219.17408752441406 C 184.29034423828125 221.04795837402344 183.60821533203125 224.79273986816406 178.87086486816406 230.385986328125 C 176.24362182617188 233.60360717773438 179.72299194335938 239.68910217285156 180.8329315185547 243.71734619140625 C 182.41957092285156 252.02322387695312 186.1157684326172 260.3716125488281 178.70571899414062 264.9166564941406 C 173.95094299316406 268.0254211425781 147.6342010498047 267.65740966796875 137.27349853515625 269.7654724121094 C 129.60716247558594 268.76416015625 126.16096496582031 270.8171081542969 119.39811706542969 273.77593994140625 C 109.00608825683594 276.9721374511719 73.27021789550781 276.13250732421875 73.14807891845703 269.93682861328125 C 47.66289520263672 266.7408447265625 56.52633285522461 268.5560302734375 57.26512145996094 273.62933349609375 C 47.238197326660156 276.8755798339844 0.5680142641067505 273.7228088378906 0.5734995603561401 269.689208984375 C -4.189315319061279 221.39710998535156 -3.221876859664917 167.61959838867188 -1.652754783630371 117.43570709228516 C 11.839446067810059 119.07879638671875 21.130197525024414 114.81439971923828 26.916255950927734 122.57699584960938 C 29.929759979248047 127.5592041015625 36.467529296875 128.26856994628906 41.52983093261719 131.69642639160156 C 46.85496520996094 131.4154052734375 47.68948745727539 133.8283233642578 49.33251953125 141.6890869140625 C 50.50429916381836 146.60916137695312 61.764339447021484 148.07191467285156 62.71544647216797 146.59129333496094 C 62.1234245300293 136.73818969726562 63.023887634277344 133.850341796875 62.66462326049805 128.43780517578125 C 68.5210189819336 126.64833068847656 67.57839965820312 122.39007568359375 66.30764770507812 112.4677734375 C 68.04400634765625 111.1830062866211 68.34638977050781 105.88616180419922 75.57430267333984 103.95332336425781 C 74.63214874267578 100.77980041503906 78.24897003173828 89.8729248046875 77.19153594970703 85.37117004394531 C 77.22695922851562 84.09333801269531 78.62767791748047 74.16967010498047 85.24761962890625 74.9482650756836 C 82.73226165771484 70.24137878417969 84.81163024902344 67.67558288574219 86.44498443603516 65.79759979248047" stroke-width="0.0" fill="url(#shape_3_fill)"/>
    <path d="M 674.5250244140625 -0.24351559579372406 C 676.095703125 47.84428787231445 675.0159912109375 95.9089584350586 678.648681640625 141.14120483398438 C 673.1209716796875 132.13095092773438 666.5901489257812 125.93746185302734 661.6005249023438 120.36188507080078 C 660.9631958007812 119.94048309326172 655.1472778320312 109.36878204345703 649.5664672851562 110.91881561279297 C 648.5650024414062 112.51465606689453 644.6452026367188 148.6236114501953 641.8526000976562 154.48692321777344 C 630.7814331054688 154.42593383789062 627.1309204101562 142.2915496826172 627.5693969726562 138.20396423339844 C 622.9989624023438 137.3632354736328 618.7827758789062 145.2935333251953 615.421630859375 143.93618774414062 C 611.6812133789062 142.31776428222656 610.1521606445312 143.3543701171875 607.7247924804688 141.12124633789062 C 607.3429565429688 137.1831817626953 609.8909912109375 132.00868225097656 606.7130126953125 121.90080261230469 C 597.983154296875 133.38597106933594 597.45751953125 139.2241973876953 594.8316650390625 143.0607452392578 C 598.9163208007812 147.2984619140625 597.191162109375 150.93551635742188 597.2084350585938 153.06419372558594 C 588.2763061523438 156.63502502441406 587.08837890625 163.93307495117188 579.8811645507812 171.917236328125 C 571.4954833984375 170.3626251220703 569.7715454101562 160.02320861816406 569.0345458984375 157.39385986328125 C 566.210205078125 157.26968383789062 564.1361083984375 153.0744171142578 561.5557250976562 152.64077758789062 C 560.0484008789062 150.88580322265625 555.4872436523438 150.6591339111328 554.9658813476562 156.09561157226562 C 551.8976440429688 156.20301818847656 550.4121704101562 158.94313049316406 548.9827270507812 159.31044006347656 C 547.064453125 157.44381713867188 543.2626342773438 158.02828979492188 536.0538940429688 154.1177520751953 C 531.7666015625 154.83595275878906 529.9402465820312 158.3736572265625 523.9896850585938 157.56959533691406 C 518.146728515625 161.05966186523438 520.83642578125 161.55130004882812 522.7501831054688 169.9786376953125 C 517.54541015625 169.65597534179688 515.8133544921875 167.73757934570312 516.5315551757812 171.1351776123047 C 511.2693786621094 173.32232666015625 509.8186950683594 175.26531982421875 505.6281433105469 174.39913940429688 C 502.8276062011719 171.3739471435547 502.95269775390625 169.5424041748047 501.65472412109375 161.25559997558594 C 494.33416748046875 146.34780883789062 508.4393310546875 122.41289520263672 518.8418579101562 126.03723907470703 C 523.1351318359375 124.5933837890625 538.4746704101562 110.76056671142578 548.5615234375 112.81996154785156 C 557.8502807617188 110.57850646972656 556.5034790039062 109.5240707397461 556.3096313476562 106.14833068847656 C 560.3974609375 108.25467681884766 564.8010864257812 103.05521392822266 571.0697631835938 105.0715560913086 C 574.6284790039062 102.57598114013672 573.4210205078125 97.46598815917969 578.9044799804688 94.15697479248047 C 581.9528198242188 88.26154327392578 600.0234375 76.97625732421875 614.229736328125 78.57691955566406 C 617.486572265625 74.0592041015625 646.1193237304688 52.99156188964844 644.4021606445312 35.4269905090332 C 644.961181640625 32.43523025512695 647.9892578125 30.382980346679688 647.63427734375 29.52307891845703 C 646.8883666992188 28.2768497467041 664.518798828125 -3.4851834774017334 674.5250244140625 -0.24351559579372406" stroke-width="0.0" fill="url(#shape_4_fill)"/>
    <path d="M 151.61170959472656 68.52082061767578 C 152.32101440429688 68.99363708496094 186.3011016845703 83.9577865600586 192.90921020507812 92.71803283691406 C 179.0650634765625 117.07879638671875 217.60830688476562 150.17233276367188 220.87879943847656 154.8925323486328 C 238.81744384765625 170.0464324951172 241.80548095703125 184.21495056152344 240.9456024169922 193.84193420410156 C 238.1827850341797 193.1990203857422 236.19580078125 186.35467529296875 236.76817321777344 184.05401611328125 C 235.67575073242188 183.5955047607422 234.1585693359375 184.28517150878906 231.0944366455078 182.73635864257812 C 231.9191436767578 183.70603942871094 231.67706298828125 193.02549743652344 228.61090087890625 195.66944885253906 C 227.5522918701172 196.63125610351562 226.80538940429688 205.17599487304688 221.52252197265625 207.74224853515625 C 215.05599975585938 206.604248046875 214.30123901367188 197.9573211669922 214.66575622558594 194.8616485595703 C 212.9606170654297 185.435302734375 211.8980712890625 184.94137573242188 206.37738037109375 177.51795959472656 C 205.8391571044922 172.73654174804688 205.68983459472656 164.50448608398438 204.21463012695312 159.25514221191406 C 206.89356994628906 153.49441528320312 194.9942169189453 144.5697021484375 193.24440002441406 141.31785583496094 C 189.04940795898438 140.291259765625 188.74322509765625 137.85128784179688 186.22488403320312 135.82492065429688 C 178.07395935058594 133.35609436035156 179.54168701171875 126.82195281982422 182.9163055419922 117.3729476928711 C 179.3590850830078 116.4938735961914 177.43238830566406 117.60433197021484 173.42930603027344 117.718994140625 C 179.00929260253906 127.99765014648438 174.88372802734375 131.43092346191406 151.5789031982422 130.40945434570312 C 150.31146240234375 125.42095184326172 152.04446411132812 103.54353332519531 153.6608123779297 96.15947723388672 C 152.86988830566406 88.74836730957031 153.6219940185547 84.15806579589844 150.04954528808594 76.3260498046875 C 148.39505004882812 75.92864990234375 149.02505493164062 69.33203887939453 151.61170959472656 68.52082061767578" stroke-width="0.0" fill="url(#shape_5_fill)"/>
    <path d="M 613.2181396484375 83.38612365722656 C 618.5895385742188 84.1877670288086 619.6239013671875 85.86227416992188 630.781005859375 85.5013656616211 C 636.3585205078125 85.96733856201172 637.0501708984375 87.44793701171875 641.2518920898438 88.20270538330078 C 642.14892578125 87.55656433105469 668.704833984375 92.1050033569336 673.558837890625 98.18586730957031 C 673.7173461914062 112.7938003540039 673.3324584960938 129.73988342285156 674.3674926757812 148.19618225097656 C 666.613525390625 141.8223876953125 662.8732299804688 136.58035278320312 659.5744018554688 129.94970703125 C 659.0700073242188 122.22932434082031 659.7806396484375 116.3776626586914 652.4307250976562 111.41986846923828 C 647.7766723632812 116.65911865234375 645.06787109375 142.35580444335938 642.2341918945312 143.16920471191406 C 643.6687622070312 145.3570556640625 641.8400268554688 148.95034790039062 642.7408447265625 150.0890350341797 C 639.8780517578125 151.39466857910156 638.0064697265625 152.40806579589844 634.9269409179688 150.87657165527344 C 631.2787475585938 146.79290771484375 629.1932373046875 141.39378356933594 630.1061401367188 140.5265655517578 C 628.9119262695312 138.07162475585938 623.3884887695312 137.000244140625 620.8616333007812 138.57180786132812 C 618.2205810546875 140.55255126953125 619.2953491210938 142.35728454589844 618.7410278320312 145.13214111328125 C 614.3897094726562 144.5107421875 614.1126098632812 143.13465881347656 610.2799682617188 143.7686004638672 C 608.552001953125 140.4056854248047 609.6007690429688 139.24461364746094 609.3762817382812 137.4007568359375 C 606.5885009765625 132.282470703125 604.7528686523438 126.5634536743164 597.3604125976562 127.98580169677734 C 601.8760375976562 136.00880432128906 595.9138793945312 150.7986602783203 591.6151733398438 156.93234252929688 C 590.7068481445312 163.9173126220703 589.4263305664062 164.18141174316406 586.028564453125 168.8281707763672 C 584.9996948242188 166.67633056640625 581.0191040039062 165.19691467285156 579.7308349609375 163.51661682128906 C 576.1015625 162.12652587890625 575.4142456054688 157.87002563476562 574.6210327148438 155.8223876953125 C 565.2515258789062 155.63143920898438 556.3788452148438 155.34754943847656 556.2007446289062 151.3541259765625 C 555.8545532226562 152.92501831054688 553.080322265625 154.71194458007812 552.8851928710938 157.75228881835938 C 550.1514282226562 161.50387573242188 547.9707641601562 160.8472442626953 547.2820434570312 159.41094970703125 C 544.2454223632812 157.1520233154297 543.2071533203125 155.43943786621094 536.6146240234375 157.87777709960938 C 534.9469604492188 158.49195861816406 530.7294311523438 157.24472045898438 528.703369140625 158.23257446289062 C 526.0784912109375 159.3028564453125 526.3923950195312 162.61399841308594 525.3651123046875 165.75845336914062 C 524.583984375 169.4735870361328 523.6064453125 171.59237670898438 519.0519409179688 173.12124633789062 C 511.1427307128906 177.60838317871094 504.0190734863281 172.56932067871094 494.5753173828125 166.9039764404297 C 490.1897888183594 143.30801391601562 505.86273193359375 122.09834289550781 514.055419921875 119.59478759765625 C 527.7577514648438 123.61934661865234 542.3185424804688 109.99581146240234 551.318359375 111.22640991210938 C 555.3855590820312 109.87297821044922 560.0841064453125 109.77141571044922 563.752197265625 106.67730712890625 C 564.6340942382812 104.5490493774414 566.8494873046875 103.65768432617188 569.7648315429688 104.13516998291016 C 574.8649291992188 101.43544006347656 578.324951171875 97.07933044433594 584.2884521484375 95.4455337524414 C 596.4848022460938 89.44373321533203 603.6800537109375 81.3087387084961 613.2181396484375 83.38612365722656" stroke-width="0.0" fill="url(#shape_6_fill)"/>
    <path d="M 0.020511765033006668 116.0013198852539 C 28.288818359375 121.53680419921875 37.34407043457031 127.87662506103516 48.97233963012695 139.7318572998047 C 75.43069458007812 157.288330078125 51.391292572021484 220.9066619873047 52.377864837646484 243.7619171142578 C 52.96772003173828 260.2378845214844 48.68379211425781 264.6597900390625 48.4691162109375 266.14178466796875 C 36.558902740478516 269.5809020996094 8.794923782348633 265.7671813964844 3.9067273139953613 263.7279357910156 C 2.1633718013763428 214.47254943847656 -2.2818777561187744 164.5599365234375 0.020511765033006668 116.0013198852539" stroke-width="0.0" fill="url(#shape_7_fill)"/>
    <path d="M 391.8475036621094 185.0753936767578 C 412.9894714355469 172.94558715820312 425.49896240234375 191.618896484375 430.906005859375 204.56942749023438 C 472.12109375 193.26123046875 494.451904296875 207.6376953125 491.7077941894531 233.63262939453125 C 490.98907470703125 250.47926330566406 486.16729736328125 251.47750854492188 484.8432312011719 252.34423828125 C 486.9266357421875 256.9290771484375 482.0807189941406 267.6714172363281 477.5056457519531 270.69500732421875 C 469.0430603027344 272.9302978515625 453.2210388183594 266.7112731933594 451.6219482421875 269.708984375 C 447.0060119628906 266.27734375 448.20281982421875 261.19970703125 448.9881896972656 260.1616516113281 C 439.239990234375 264.7395324707031 436.51025390625 261.3836364746094 437.4203796386719 256.88739013671875 C 427.5510559082031 256.1969299316406 426.00506591796875 258.64044189453125 421.2331237792969 262.2475891113281 C 418.5368957519531 264.259033203125 417.5075988769531 267.6007385253906 414.8710021972656 271.9681396484375 C 414.0989685058594 273.10430908203125 396.1333312988281 268.2264099121094 392.5920104980469 264.15802001953125 C 391.8258361816406 265.09454345703125 389.0279541015625 263.3202209472656 386.04803466796875 263.5307312011719 C 382.1159973144531 261.9410095214844 380.82177734375 263.1756591796875 376.57861328125 261.02880859375 C 375.0142517089844 256.30865478515625 376.19622802734375 252.43983459472656 372.866455078125 249.11964416503906 C 359.56689453125 243.9449005126953 374.02398681640625 195.8513946533203 378.2750244140625 180.82025146484375 C 383.1928405761719 171.2875518798828 394.8320617675781 176.3108367919922 391.8475036621094 185.0753936767578" stroke-width="0.0" fill="url(#shape_8_fill)"/>
    <path d="M 565.6807250976562 157.44618225097656 C 568.0187377929688 159.1122283935547 569.2706298828125 166.15570068359375 568.7327270507812 167.57606506347656 C 573.8599853515625 169.45559692382812 573.4186401367188 170.79769897460938 577.738037109375 174.22857666015625 C 581.93212890625 172.9429168701172 583.9732055664062 174.56564331054688 583.70703125 179.47364807128906 C 575.3404541015625 180.47702026367188 572.05419921875 225.61634826660156 577.2786865234375 226.9659423828125 C 577.8547973632812 229.99867248535156 581.2846069335938 235.6558380126953 576.6981811523438 242.48228454589844 C 568.5885009765625 238.9462127685547 566.2561645507812 237.29922485351562 558.490234375 247.17660522460938 C 554.390380859375 251.31521606445312 492.7135314941406 252.99095153808594 489.42486572265625 252.40191650390625 C 487.0266418457031 247.6181640625 487.0318298339844 238.76010131835938 490.8544921875 229.6387939453125 C 486.4465026855469 226.23777770996094 483.1896057128906 222.2779541015625 481.3465576171875 215.93450927734375 C 476.54736328125 209.8094940185547 479.1821594238281 205.79847717285156 482.6943359375 205.95594787597656 C 479.9155578613281 205.31393432617188 481.15924072265625 198.59303283691406 486.87518310546875 198.53451538085938 C 491.85760498046875 196.1430206298828 491.858154296875 192.50286865234375 492.9505920410156 187.82618713378906 C 491.1085205078125 174.04310607910156 491.9236755371094 172.99432373046875 491.2774353027344 166.6047821044922 C 503.954345703125 166.1102294921875 505.3393249511719 169.96681213378906 517.2753295898438 168.30149841308594 C 523.5377807617188 169.9661102294922 524.4552612304688 167.3201141357422 526.0223999023438 165.79959106445312 C 524.4241333007812 160.5321807861328 529.5138549804688 156.03619384765625 533.3820190429688 158.60594177246094 C 537.64599609375 161.83135986328125 541.39794921875 162.4536895751953 542.2032470703125 163.9396209716797 C 545.2551879882812 164.0459442138672 545.9563598632812 165.7082061767578 549.451904296875 166.39283752441406 C 548.7789306640625 165.6270751953125 551.1768798828125 157.33433532714844 555.194091796875 157.6067657470703 C 557.5263061523438 160.2984619140625 563.4577026367188 157.65512084960938 565.6807250976562 157.44618225097656" stroke-width="0.0" fill="url(#shape_9_fill)"/>
    <path d="M 561.485595703125 156.5777130126953 C 567.1024169921875 153.46617126464844 571.1214599609375 159.3587646484375 570.2826538085938 168.50112915039062 C 572.572265625 170.3112335205078 576.8935546875 169.41136169433594 580.22900390625 174.67135620117188 C 579.8374633789062 178.00631713867188 578.7066040039062 187.35836791992188 576.9451904296875 191.53839111328125 C 571.2700805664062 196.7980194091797 571.9849243164062 229.97251892089844 578.0745849609375 230.9768524169922 C 576.070068359375 231.159423828125 575.6058349609375 236.83465576171875 572.0228271484375 238.05093383789062 C 559.900146484375 235.95762634277344 567.4652099609375 238.61373901367188 564.454833984375 249.2020721435547 C 553.7461547851562 252.72366333007812 501.28582763671875 249.04734802246094 500.1787414550781 251.508056640625 C 491.1170349121094 251.79832458496094 487.96734619140625 236.9190216064453 491.1953430175781 229.47036743164062 C 486.6265563964844 224.92526245117188 481.9859924316406 219.27049255371094 481.5409851074219 215.96087646484375 C 475.64471435546875 214.0665740966797 474.9527587890625 212.5928192138672 470.9116516113281 200.60415649414062 C 470.47845458984375 196.21627807617188 476.7389831542969 192.56939697265625 480.8739318847656 196.9392547607422 C 490.0032653808594 195.67657470703125 494.4078369140625 184.1893768310547 496.6357727050781 182.96881103515625 C 495.96124267578125 179.49081420898438 496.89208984375 177.00314331054688 500.3966064453125 176.68492126464844 C 507.9848327636719 178.53916931152344 516.6551513671875 181.47756958007812 519.8823852539062 173.95220947265625 C 523.066650390625 173.29022216796875 526.509033203125 159.20281982421875 532.4146728515625 157.4500732421875 C 537.511962890625 156.76412963867188 538.634521484375 160.52943420410156 542.1414184570312 165.70968627929688 C 545.6414184570312 165.6083984375 548.9564208984375 166.9066619873047 551.0969848632812 164.79055786132812 C 551.0404663085938 156.2475128173828 553.1900024414062 153.10922241210938 561.485595703125 156.5777130126953" stroke-width="0.0" fill="url(#shape_10_fill)"/>
    <path d="M 449.6474914550781 107.6024169921875 C 453.71063232421875 109.33076477050781 453.9869689941406 112.64503479003906 461.4654541015625 112.6617660522461 C 463.94512939453125 116.4913558959961 469.3031921386719 117.11943054199219 473.6218566894531 118.01111602783203 C 488.37420654296875 124.53477478027344 488.80206298828125 125.25033569335938 492.7364501953125 129.30172729492188 C 493.5072937011719 131.67291259765625 493.2072448730469 134.37222290039062 496.929931640625 136.1748046875 C 494.4044189453125 135.0303497314453 492.0412902832031 136.84169006347656 486.5323791503906 138.74069213867188 C 483.20172119140625 136.3476104736328 481.1814270019531 137.24586486816406 477.5279541015625 137.40719604492188 C 472.2483215332031 138.61338806152344 469.0509338378906 138.09194946289062 467.9476013183594 134.36962890625 C 465.2953186035156 133.50003051757812 460.08123779296875 133.50927734375 459.8595275878906 134.38815307617188 C 456.54986572265625 140.68850708007812 472.43499755859375 149.77699279785156 483.9273376464844 157.76817321777344 C 476.1814270019531 176.61473083496094 475.349609375 177.16754150390625 470.4474182128906 180.91151428222656 C 466.70245361328125 182.2721405029297 466.2978515625 186.75827026367188 464.26116943359375 188.6215057373047 C 461.2997131347656 186.08392333984375 455.9305419921875 179.6192626953125 454.3915710449219 176.83120727539062 C 448.26727294921875 179.34097290039062 447.51190185546875 182.555419921875 439.9045715332031 183.0843963623047 C 439.50213623046875 183.86639404296875 436.2809753417969 196.07778930664062 434.8745422363281 198.0049285888672 C 428.8313293457031 200.6223907470703 417.45770263671875 180.60231018066406 417.7217712402344 179.72677612304688 C 416.9572448730469 179.5552520751953 400.1817932128906 176.44076538085938 399.78271484375 171.72779846191406 C 393.28997802734375 169.8290252685547 390.5345458984375 176.22259521484375 380.2113342285156 173.63621520996094 C 379.8677062988281 164.96717834472656 384.858642578125 145.2102813720703 392.4036865234375 139.1572723388672 C 397.91827392578125 137.4690399169922 399.38397216796875 129.69236755371094 402.1766052246094 122.61773681640625 C 409.5833435058594 99.79285430908203 426.8510437011719 104.87457275390625 449.6474914550781 107.6024169921875" stroke-width="0.0" fill="url(#shape_11_fill)"/>
    <path d="M 602.88916015625 127.57240295410156 C 605.3314208984375 131.61476135253906 605.6148681640625 143.757568359375 608.3846435546875 144.07301330566406 C 611.9600830078125 144.58897399902344 612.0140380859375 147.93609619140625 615.42626953125 151.9368896484375 C 618.3527221679688 149.8080291748047 618.4390869140625 141.43260192871094 621.1534423828125 141.2344512939453 C 623.2670288085938 136.8977813720703 625.3456420898438 137.785400390625 628.212890625 140.18809509277344 C 627.71533203125 142.12547302246094 629.3231201171875 144.6309356689453 629.2915649414062 147.117919921875 C 632.1231689453125 149.75006103515625 631.8032836914062 151.09335327148438 637.0980834960938 152.89398193359375 C 642.337158203125 154.44813537597656 641.0721435546875 160.52053833007812 643.3980712890625 168.91366577148438 C 637.7278442382812 183.88430786132812 639.2366943359375 194.37034606933594 639.7234497070312 206.4137420654297 C 642.2069091796875 219.10194396972656 646.3947143554688 232.1673126220703 642.8240966796875 245.67404174804688 C 623.3876953125 248.5830535888672 610.5631713867188 248.82138061523438 576.841064453125 254.83494567871094 C 571.8231811523438 245.46238708496094 572.2845458984375 231.92156982421875 572.3814086914062 219.5901336669922 C 568.4483032226562 210.0396728515625 572.4313354492188 168.76210021972656 583.3665771484375 169.73358154296875 C 598.0008544921875 164.18087768554688 597.9925537109375 144.2617950439453 599.5890502929688 141.84959411621094 C 595.8243408203125 139.15182495117188 597.085205078125 136.66793823242188 602.88916015625 127.57240295410156" stroke-width="0.0" fill="url(#shape_12_fill)"/>
    <path d="M 408.7582702636719 176.6389617919922 C 420.72857666015625 173.26852416992188 432.8032531738281 212.48321533203125 428.19195556640625 220.58145141601562 C 419.528076171875 229.41030883789062 426.7783203125 237.97882080078125 428.6678466796875 246.762451171875 C 430.40814208984375 262.137939453125 420.50927734375 265.7242736816406 416.98046875 268.02032470703125 C 401.7576904296875 268.68035888671875 395.9989013671875 269.0431213378906 389.6241455078125 268.3799133300781 C 385.4256286621094 264.4978332519531 382.5526123046875 265.38812255859375 380.3428039550781 264.99395751953125 C 375.85614013671875 262.6385498046875 376.4505920410156 260.6471252441406 375.3500061035156 258.4162902832031 C 376.33099365234375 255.74205017089844 375.638427734375 253.75619506835938 374.4365234375 253.43983459472656 C 373.64300537109375 253.10057067871094 370.4710693359375 250.64703369140625 368.98968505859375 251.61270141601562 C 360.1398010253906 246.8030548095703 366.0263977050781 228.42039489746094 368.1484069824219 221.35704040527344 C 369.2936096191406 219.05809020996094 372.0169372558594 202.48587036132812 380.2804870605469 203.73776245117188 C 380.2273254394531 202.17098999023438 381.6791687011719 186.06283569335938 387.2812194824219 182.6713104248047 C 391.6210632324219 176.34152221679688 392.8179016113281 176.34243774414062 408.7582702636719 176.6389617919922" stroke-width="0.0" fill="url(#shape_13_fill)"/>
    <path d="M 509.71917724609375 66.73261260986328 C 512.4815063476562 66.24537658691406 521.2020874023438 70.358154296875 523.5775146484375 74.3738784790039 C 531.2733154296875 79.98140716552734 534.2564086914062 79.52565002441406 536.2400512695312 90.2882080078125 C 539.3388671875 90.88378143310547 544.5418701171875 90.32479095458984 545.0235595703125 91.16889190673828 C 545.5333862304688 92.75847625732422 555.9973754882812 97.11492156982422 560.7329711914062 94.8477554321289 C 563.6613159179688 97.48503875732422 567.3360595703125 97.53006744384766 568.7086791992188 99.21087646484375 C 564.8189086914062 105.0116195678711 555.233642578125 115.28150177001953 545.4122314453125 111.00192260742188 C 541.5604858398438 111.96432495117188 539.3450317382812 114.94361114501953 534.7639770507812 118.28573608398438 C 528.9296875 121.0540771484375 522.0831298828125 122.71288299560547 515.50537109375 119.54765319824219 C 510.4004211425781 119.35881042480469 501.42376708984375 125.42621612548828 499.0074462890625 125.0125961303711 C 497.0694885253906 128.37107849121094 493.66400146484375 128.3031463623047 489.47216796875 127.71907806396484 C 489.3852844238281 123.60541534423828 468.7886657714844 119.0359878540039 468.0644226074219 118.05096435546875 C 463.30169677734375 117.75010681152344 463.1019592285156 116.44951629638672 461.9753112792969 115.75077056884766 C 467.3016357421875 113.8714370727539 469.8839416503906 107.893310546875 476.5077819824219 102.41098022460938 C 477.25439453125 88.99463653564453 474.6886291503906 86.168212890625 475.29443359375 82.1607894897461 C 474.5895080566406 70.93414306640625 475.34326171875 70.3868408203125 478.7025146484375 66.58089447021484 C 479.07806396484375 64.28815460205078 482.76861572265625 64.41548919677734 484.8341369628906 63.75193786621094 C 493.2602233886719 63.39286422729492 500.9078674316406 62.540008544921875 509.71917724609375 66.73261260986328" stroke-width="0.0" fill="url(#shape_14_fill)"/>
    <path d="M 532.29833984375 159.7737579345703 C 543.794921875 162.8861083984375 544.052978515625 163.85733032226562 546.8809204101562 165.4368133544922 C 550.0213012695312 167.31935119628906 549.2036743164062 169.9340057373047 543.5884399414062 180.77932739257812 C 542.023193359375 189.74783325195312 537.0159301757812 231.24899291992188 536.3909912109375 233.44064331054688 C 540.5599365234375 236.93600463867188 540.8168334960938 250.10171508789062 515.037841796875 252.12513732910156 C 502.03924560546875 251.26268005371094 483.6214294433594 245.18850708007812 487.7154235839844 230.39883422851562 C 477.0 218.1795196533203 478.07427978515625 206.4674835205078 482.94000244140625 200.44715881347656 C 486.83251953125 197.46058654785156 488.54119873046875 197.57662963867188 489.3922119140625 197.63780212402344 C 485.0223388671875 191.19439697265625 487.7041015625 178.4706268310547 487.7876281738281 173.2366485595703 C 488.1828308105469 170.6344757080078 490.3572692871094 168.01437377929688 495.09356689453125 169.77365112304688 C 505.9455261230469 178.3754425048828 511.7279968261719 183.3710479736328 522.6614990234375 172.57737731933594 C 525.5475463867188 170.9576873779297 525.5370483398438 167.3027801513672 526.958740234375 165.09750366210938 C 527.5511474609375 161.50387573242188 530.5936889648438 160.06283569335938 532.29833984375 159.7737579345703" stroke-width="0.0" fill="url(#shape_15_fill)"/>
    <path d="M 651.9327392578125 110.54020690917969 C 653.8218383789062 110.32068634033203 663.0866088867188 121.93657684326172 661.0948486328125 128.01031494140625 C 665.1200561523438 133.95753479003906 665.4962768554688 140.75973510742188 673.4066772460938 148.4424285888672 C 676.6095581054688 178.8822021484375 673.4005126953125 211.8354034423828 674.2106323242188 255.3173828125 C 672.897705078125 253.12721252441406 647.9459228515625 260.397216796875 637.3873901367188 251.0322265625 C 636.1126098632812 244.76278686523438 640.0823974609375 122.7964096069336 651.9327392578125 110.54020690917969" stroke-width="0.0" fill="url(#shape_16_fill)"/>
    <path d="M 600.7931518554688 130.0892333984375 C 603.0656127929688 127.68171691894531 607.7169189453125 131.9193115234375 606.738525390625 133.95567321777344 C 608.1553344726562 135.07229614257812 608.0097045898438 139.60096740722656 609.6129760742188 142.2786407470703 C 624.8721313476562 143.30099487304688 625.7550659179688 226.6858673095703 623.5171508789062 251.5872344970703 C 596.4452514648438 256.4319763183594 578.2135009765625 248.66656494140625 579.9722900390625 235.7720947265625 C 564.724609375 227.3688507080078 596.5623779296875 153.36439514160156 600.7931518554688 130.0892333984375" stroke-width="0.0" fill="url(#shape_17_fill)"/>
    <path d="M 321.193603515625 186.23440551757812 C 322.0501403808594 186.3651885986328 323.6645202636719 189.12086486816406 323.48876953125 195.00584411621094 C 333.24072265625 192.4932098388672 336.28558349609375 190.7607421875 338.28424072265625 193.72348022460938 C 341.4356384277344 198.4221649169922 346.2987060546875 196.92869567871094 353.6087951660156 195.3446502685547 C 357.400146484375 194.77687072753906 358.31585693359375 197.45501708984375 358.1213073730469 201.16006469726562 C 359.6223449707031 203.89703369140625 361.66497802734375 204.0840301513672 362.19366455078125 207.71163940429688 C 367.2463073730469 207.01412963867188 368.47662353515625 208.22398376464844 368.1858825683594 211.83651733398438 C 370.4537048339844 219.37149047851562 370.5657958984375 222.35986328125 366.20318603515625 225.27162170410156 C 366.7805480957031 231.50025939941406 365.3013610839844 235.39723205566406 368.61566162109375 247.77102661132812 C 368.66705322265625 251.34996032714844 366.1026916503906 256.3612060546875 357.8212890625 254.85740661621094 C 353.06353759765625 255.27450561523438 330.66839599609375 255.04595947265625 321.985107421875 255.27093505859375 C 313.4278564453125 255.9967041015625 312.213134765625 253.49623107910156 308.43890380859375 241.3975372314453 C 304.3796081542969 229.54978942871094 320.8721008300781 194.00924682617188 321.193603515625 186.23440551757812" stroke-width="0.0" fill="url(#shape_18_fill)"/>
    <path d="M 479.18353271484375 216.4104766845703 C 492.097900390625 246.38380432128906 501.3593444824219 255.2275390625 484.4180908203125 273.9112548828125 C 470.7110595703125 278.898193359375 444.01129150390625 261.37969970703125 442.1416015625 261.6705017089844 C 438.6325988769531 260.6447448730469 437.1433410644531 258.2164306640625 432.5621032714844 258.03900146484375 C 429.676025390625 258.1430358886719 427.6516418457031 257.45916748046875 427.6817321777344 254.1581573486328 C 426.3727722167969 240.900146484375 421.4238586425781 232.98672485351562 422.6181335449219 228.76788330078125 C 425.22381591796875 227.52462768554688 421.2740478515625 227.6371307373047 420.0893249511719 225.6911163330078 C 427.71038818359375 219.48471069335938 429.6902160644531 218.79782104492188 429.4140930175781 215.57577514648438 C 438.0278625488281 195.94793701171875 468.9644470214844 200.37136840820312 479.18353271484375 216.4104766845703" stroke-width="0.0" fill="url(#shape_19_fill)"/>
    <path d="M 674.0045166015625 -2.78739333152771 C 675.0543823242188 32.861175537109375 674.5826416015625 64.76441955566406 674.3599243164062 97.34626007080078 C 669.9299926757812 96.08317565917969 651.2637329101562 87.06685638427734 643.2314453125 90.20237731933594 C 638.666748046875 89.56389617919922 638.2069702148438 85.84014892578125 637.7112426757812 84.58455657958984 C 626.1578369140625 84.5667724609375 618.6386108398438 92.50153350830078 608.2886352539062 86.50983428955078 C 609.5380859375 76.33114624023438 614.0180053710938 74.2989730834961 614.931396484375 71.91011810302734 C 623.0575561523438 69.50067901611328 649.445556640625 25.75222396850586 648.3248901367188 22.58991813659668 C 655.99462890625 13.843475341796875 656.6009521484375 4.315911769866943 667.9774169921875 4.059322357177734 C 669.7907104492188 2.6630916595458984 670.1964721679688 1.1618273258209229 674.0045166015625 -2.78739333152771" stroke-width="0.0" fill="url(#shape_20_fill)"/>
    <path d="M 562.08935546875 155.98561096191406 C 569.8195190429688 156.6297607421875 569.7294921875 163.19839477539062 574.4478149414062 165.22103881835938 C 585.6631469726562 168.28829956054688 575.9309692382812 231.30479431152344 577.3866577148438 240.7775115966797 C 575.2498168945312 244.53028869628906 570.888427734375 246.24314880371094 571.025390625 251.27186584472656 C 559.4440307617188 250.4344482421875 543.0507202148438 251.43975830078125 540.0357055664062 246.27374267578125 C 544.32275390625 244.70912170410156 540.1024780273438 164.1162109375 555.2594604492188 157.82981872558594 C 555.6367797851562 153.22412109375 558.6014404296875 153.1673583984375 562.08935546875 155.98561096191406" stroke-width="0.0" fill="url(#shape_21_fill)"/>
    <path d="M 215.78717041015625 211.82481384277344 C 230.02548217773438 212.9705047607422 230.3861846923828 245.83421325683594 219.78738403320312 255.87564086914062 C 211.52452087402344 263.0774841308594 209.412353515625 264.57708740234375 207.47421264648438 273.255126953125 C 205.5970001220703 275.4396667480469 206.77691650390625 276.7255859375 207.357666015625 279.7586975097656 C 207.06546020507812 283.21673583984375 204.13995361328125 285.2427978515625 200.12326049804688 284.85992431640625 C 200.06690979003906 283.49029541015625 192.12808227539062 271.3372802734375 187.76663208007812 265.2843017578125 C 186.28759765625 261.4548645019531 183.81248474121094 262.04888916015625 181.5296173095703 261.8451843261719 C 180.6956329345703 260.7415466308594 179.7308807373047 260.5479431152344 178.49571228027344 254.9147186279297 C 180.55029296875 248.77366638183594 169.35516357421875 243.76902770996094 170.74549865722656 237.59266662597656 C 175.86050415039062 214.1409912109375 177.82540893554688 212.9982452392578 185.67063903808594 220.67037963867188 C 193.96498107910156 218.71389770507812 194.32864379882812 215.5631561279297 197.65423583984375 214.4276580810547 C 190.35328674316406 204.3336181640625 190.07574462890625 201.907958984375 198.6002960205078 199.90017700195312 C 213.6764373779297 199.13336181640625 214.57203674316406 201.7142333984375 215.78717041015625 211.82481384277344" stroke-width="0.0" fill="url(#shape_22_fill)"/>
    <path d="M 111.52983856201172 426.4090576171875 C 112.72166442871094 429.275634765625 110.99398803710938 431.1841125488281 110.6700210571289 431.6635437011719 C 105.16380310058594 433.0748596191406 102.38983154296875 433.66204833984375 91.84949493408203 432.9749450683594 C 89.75660705566406 435.9681091308594 95.6904067993164 446.42376708984375 91.63533020019531 452.1365051269531 C 78.66380310058594 444.9972229003906 46.93815994262695 447.9271240234375 24.947650909423828 449.64910888671875 C 14.002913475036621 446.2800598144531 13.872727394104004 439.7821960449219 17.442941665649414 436.317626953125 C 34.212867736816406 428.0030822753906 50.87335968017578 426.9914245605469 70.42948913574219 427.017578125 C 75.53643035888672 425.909423828125 108.64505767822266 418.9126892089844 111.52983856201172 426.4090576171875" stroke-width="0.0" fill="url(#shape_23_fill)"/>
    <path d="M 194.7120361328125 122.5160903930664 C 198.802734375 125.4644775390625 209.23829650878906 145.06393432617188 214.45712280273438 144.7188262939453 C 215.5104522705078 148.2015838623047 218.4697265625 149.76068115234375 220.03421020507812 153.46913146972656 C 226.99342346191406 158.09361267089844 248.81076049804688 179.40762329101562 244.54147338867188 199.57545471191406 C 239.13003540039062 199.55621337890625 235.4760284423828 187.24273681640625 233.77967834472656 181.12249755859375 C 234.32130432128906 185.16502380371094 232.93359375 195.14332580566406 231.12013244628906 196.98731994628906 C 225.69775390625 199.69076538085938 225.06808471679688 201.8567352294922 220.45849609375 208.53244018554688 C 215.1735382080078 207.6533203125 213.68356323242188 199.7869110107422 214.30274963378906 195.98403930664062 C 212.67320251464844 189.6099853515625 212.59490966796875 183.01419067382812 206.93399047851562 178.28555297851562 C 204.0012664794922 174.0261688232422 205.10069274902344 173.03594970703125 205.56956481933594 167.16932678222656 C 203.10202026367188 149.6130828857422 200.1909637451172 148.55685424804688 192.75942993164062 144.1588897705078 C 189.0394744873047 142.43186950683594 191.1636199951172 128.38690185546875 194.7120361328125 122.5160903930664" stroke-width="0.0" fill="url(#shape_24_fill)"/>
    <path d="M 595.6866455078125 411.1081848144531 C 598.1007690429688 412.45050048828125 625.9871215820312 409.60400390625 627.5558471679688 416.5505676269531 C 628.5562133789062 421.0188293457031 626.9232177734375 425.03936767578125 628.9171752929688 426.7159729003906 C 630.4082641601562 429.0625915527344 634.3699340820312 428.8054504394531 636.8697509765625 437.7040710449219 C 617.1382446289062 446.7590026855469 577.5242919921875 439.90740966796875 574.92529296875 433.4288330078125 C 568.86279296875 425.1731872558594 574.0484619140625 418.7041931152344 575.9125366210938 413.980224609375 C 579.900634765625 409.114990234375 587.1784057617188 411.7206726074219 595.6866455078125 411.1081848144531" stroke-width="0.0" fill="url(#shape_25_fill)"/>
    <path d="M 142.91650390625 66.6996078491211 C 144.08255004882812 68.92398071289062 149.16944885253906 68.35868835449219 149.62925720214844 69.13897705078125 C 148.90679931640625 70.90180969238281 150.45870971679688 71.82674407958984 149.76927185058594 73.86426544189453 C 151.02874755859375 74.45448303222656 150.37533569335938 78.24337005615234 151.06411743164062 81.93890380859375 C 152.167236328125 89.5008773803711 152.71583557128906 97.69287109375 153.9370574951172 104.10159301757812 C 153.52195739746094 107.62052917480469 155.10061645507812 108.52308654785156 154.9849853515625 111.52348327636719 C 158.22007751464844 123.40312957763672 155.38563537597656 133.5107879638672 150.35374450683594 133.58668518066406 C 142.90223693847656 127.0094223022461 137.01856994628906 120.53498077392578 125.5615234375 117.34235382080078 C 122.50116729736328 114.30945587158203 124.59210205078125 109.69576263427734 126.89119720458984 107.12837982177734 C 128.83303833007812 106.854248046875 128.87779235839844 105.2829360961914 132.65545654296875 104.6911849975586 C 139.00970458984375 96.47564697265625 134.99945068359375 93.05864715576172 133.37460327148438 90.07829284667969 C 134.21351623535156 88.90608978271484 139.27406311035156 87.11531066894531 140.04470825195312 85.31017303466797 C 138.1435546875 84.74999237060547 138.8292999267578 77.64716339111328 139.5188446044922 77.47187042236328 C 143.54562377929688 76.59378051757812 142.65753173828125 70.30765533447266 142.91650390625 66.6996078491211" stroke-width="0.0" fill="url(#shape_26_fill)"/>
    <path d="M 143.07504272460938 67.7382583618164 C 149.21701049804688 67.86372375488281 149.9077911376953 68.95944213867188 148.40805053710938 76.0398178100586 C 151.26107788085938 77.43201446533203 151.51119995117188 80.07463836669922 153.611328125 83.78727722167969 C 150.353271484375 91.25506591796875 154.1692657470703 93.10498809814453 152.21022033691406 104.25576782226562 C 153.675048828125 105.45694732666016 153.27731323242188 109.28646850585938 155.25083923339844 113.17549133300781 C 152.62571716308594 116.99275207519531 158.0701904296875 121.86981964111328 154.94912719726562 125.96185302734375 C 152.65921020507812 132.04705810546875 151.35531616210938 133.17478942871094 147.455810546875 133.49192810058594 C 141.51824951171875 132.28640747070312 129.55421447753906 120.02832794189453 128.31732177734375 118.55535888671875 C 124.71607971191406 119.25834655761719 122.37080383300781 114.08889770507812 128.3739471435547 110.48188018798828 C 123.89278411865234 108.69745635986328 124.1434097290039 105.98200225830078 132.77084350585938 106.3910140991211 C 136.45974731445312 105.51531219482422 134.39881896972656 92.86592864990234 134.1120147705078 89.53469848632812 C 139.48768615722656 87.47591400146484 138.52740478515625 84.6672592163086 138.37986755371094 81.68923950195312 C 139.0781707763672 77.50082397460938 140.36383056640625 76.78319549560547 141.79649353027344 76.8735122680664 C 145.28775024414062 72.95207214355469 143.1180877685547 69.67095184326172 143.07504272460938 67.7382583618164" stroke-width="0.0" fill="url(#shape_27_fill)"/>
    <path d="M -0.3162679970264435 -0.2704075574874878 C 4.697121620178223 0.3802835941314697 9.643288612365723 -0.5243921279907227 18.831361770629883 -0.6960012316703796 C 22.54349708557129 0.12157361209392548 22.461191177368164 5.940567970275879 37.120906829833984 13.404133796691895 C 33.56790542602539 25.242145538330078 27.96868133544922 26.109466552734375 27.10750961303711 23.064001083374023 C 38.55141067504883 26.013139724731445 45.40420913696289 27.032779693603516 47.150142669677734 41.73270034790039 C 36.28644943237305 43.558876037597656 31.96070098876953 43.65067672729492 26.382570266723633 40.7713508605957 C 20.669803619384766 36.84742736816406 11.383567810058594 37.469078063964844 10.82774543762207 33.839454650878906 C 9.318781852722168 36.32728576660156 13.077498435974121 40.057823181152344 13.733721733093262 41.50501251220703 C 14.780722618103027 41.97943878173828 14.525472640991211 44.097869873046875 18.105121612548828 47.915496826171875 C 20.061595916748047 51.07337188720703 18.748668670654297 52.309818267822266 20.17717742919922 57.05326461791992 C 20.33998680114746 62.71885681152344 13.81678295135498 64.70503997802734 8.844855308532715 61.23704147338867 C 5.495932579040527 60.884830474853516 3.533714532852173 59.141632080078125 0.3250197470188141 59.4338493347168 C -0.31765928864479065 39.77877426147461 -0.3248715102672577 19.628530502319336 -0.3162679970264435 -0.2704075574874878" stroke-width="0.0" fill="url(#shape_28_fill)"/>
    <path d="M 299.3665771484375 197.30905151367188 C 297.57232666015625 199.2329864501953 299.82891845703125 202.2334747314453 301.6395568847656 208.46226501464844 C 299.5130920410156 211.74264526367188 321.4772644042969 230.05836486816406 315.76849365234375 255.5450439453125 C 312.2636413574219 253.780517578125 310.7963562011719 255.16244506835938 307.308349609375 256.49835205078125 C 301.107177734375 257.89794921875 296.0444030761719 257.76318359375 281.1459655761719 256.5272521972656 C 280.47344970703125 231.08445739746094 285.7964782714844 216.63038635253906 299.3665771484375 197.30905151367188" stroke-width="0.0" fill="url(#shape_29_fill)"/>
    <path d="M -0.20122520625591278 0.08109310269355774 C 4.450239181518555 0.4490668773651123 9.5708646774292 -0.41493022441864014 14.534605979919434 0.13587957620620728 C 15.70971965789795 0.4960198700428009 16.148548126220703 5.443823337554932 16.146928787231445 8.059850692749023 C 18.955480575561523 10.785840034484863 22.1176700592041 18.81658172607422 26.883264541625977 20.83135223388672 C 27.108428955078125 22.485902786254883 24.702980041503906 26.89124870300293 24.407867431640625 31.243736267089844 C 20.66552734375 32.57382583618164 15.514259338378906 32.20191192626953 7.615935802459717 34.22256088256836 C 9.13978385925293 35.85018539428711 8.82051944732666 38.66707229614258 11.002326965332031 40.45841979980469 C 9.8399658203125 45.463539123535156 7.429156303405762 51.75398254394531 11.453081130981445 53.8393440246582 C 17.72771644592285 51.50858688354492 19.532442092895508 52.0587158203125 18.30984878540039 58.110862731933594 C 11.70742416381836 59.86326599121094 8.663518905639648 62.376747131347656 0.22221414744853973 61.51075744628906 C -0.4151887893676758 39.95668029785156 -0.3543662428855896 19.753801345825195 -0.20122520625591278 0.08109310269355774" stroke-width="0.0" fill="url(#shape_30_fill)"/>
    <path d="M 546.8592529296875 71.37703704833984 C 545.48486328125 75.7353744506836 577.0176391601562 89.26094818115234 581.5345458984375 91.6838150024414 C 580.8203735351562 92.24850463867188 577.8443603515625 92.89495086669922 577.2946166992188 98.21192932128906 C 573.248046875 100.8072509765625 572.0968627929688 100.13773345947266 569.100830078125 99.69194030761719 C 566.933837890625 96.01668548583984 543.563232421875 95.56461334228516 538.5381469726562 88.4924545288086 C 538.5863647460938 85.47106170654297 537.5265502929688 83.31639099121094 535.6064453125 82.55125427246094 C 534.8358764648438 79.48792266845703 529.1573486328125 79.52729034423828 526.8162231445312 78.34654998779297 C 525.3366088867188 75.77965545654297 527.772216796875 70.89867401123047 532.9457397460938 68.99835968017578 C 536.10693359375 67.59661102294922 540.4542236328125 69.96443176269531 546.8592529296875 71.37703704833984" stroke-width="0.0" fill="url(#shape_31_fill)"/>
    <path d="M 448.1165771484375 264.0669860839844 C 450.6850280761719 265.2559509277344 451.3183898925781 266.706298828125 455.9811096191406 267.6742248535156 C 460.5115966796875 267.6551208496094 465.3227233886719 270.37548828125 469.9122314453125 273.2547302246094 C 470.4359130859375 275.6302490234375 471.8245544433594 276.89361572265625 471.6768798828125 280.7639465332031 C 449.96075439453125 289.6436462402344 427.60369873046875 286.5848693847656 415.7380065917969 284.9384460449219 C 413.3645324707031 273.9159851074219 415.2392578125 272.3515930175781 415.7053527832031 268.25384521484375 C 418.1906433105469 267.2078552246094 417.7780456542969 264.8067626953125 419.3450012207031 263.07257080078125 C 430.42327880859375 252.9651641845703 441.679443359375 256.7323913574219 448.1165771484375 264.0669860839844" stroke-width="0.0" fill="url(#shape_32_fill)"/>
    <path d="M 270.1601257324219 191.7789764404297 C 278.20892333984375 191.61044311523438 284.5705871582031 243.6431884765625 280.51751708984375 244.7203826904297 C 279.09991455078125 247.1105194091797 273.80224609375 246.9193878173828 269.9631652832031 248.3723602294922 C 266.4620666503906 245.8372039794922 266.8085021972656 241.96145629882812 261.32318115234375 240.8621063232422 C 255.03392028808594 211.65567016601562 262.59674072265625 206.26620483398438 270.1601257324219 191.7789764404297" stroke-width="0.0" fill="url(#shape_33_fill)"/>
    <path d="M 256.1336669921875 421.5102233886719 C 258.74072265625 424.8362121582031 266.3035888671875 429.5104675292969 266.8180847167969 439.8100891113281 C 261.9215087890625 443.0411682128906 261.3467102050781 446.8114318847656 252.7615509033203 447.446044921875 C 246.6268768310547 445.4095153808594 220.51963806152344 447.4671325683594 212.6007080078125 444.5703125 C 213.02476501464844 436.99578857421875 213.95974731445312 436.2222900390625 215.8896484375 434.42340087890625 C 216.11553955078125 433.37164306640625 224.9960174560547 433.3211364746094 226.60150146484375 430.1600036621094 C 230.38128662109375 421.8227844238281 241.4664764404297 422.75390625 256.1336669921875 421.5102233886719" stroke-width="0.0" fill="url(#shape_34_fill)"/>
    <path d="M 106.14629364013672 69.94548797607422 C 109.44947052001953 70.00605010986328 112.1966323852539 78.46568298339844 111.44925689697266 82.86688232421875 C 117.03572082519531 84.59986877441406 117.52301025390625 110.27799987792969 117.68685150146484 110.89923095703125 C 116.9052963256836 112.90491485595703 112.09606170654297 114.54086303710938 106.65145874023438 121.70211029052734 C 105.33250427246094 116.87736511230469 96.64513397216797 118.92030334472656 91.94575500488281 112.90208435058594 C 90.59551239013672 85.50694274902344 104.07184600830078 84.24992370605469 106.14629364013672 69.94548797607422" stroke-width="0.0" fill="url(#shape_35_fill)"/>
    <path d="M 451.6298522949219 178.53524780273438 C 453.517578125 176.2942352294922 456.5562744140625 177.41757202148438 456.3373718261719 180.00558471679688 C 456.95074462890625 180.30665588378906 456.87481689453125 184.66880798339844 457.7598876953125 186.20901489257812 C 455.2509765625 188.8707275390625 459.2409973144531 194.48403930664062 460.3161315917969 206.16702270507812 C 459.4239196777344 208.60562133789062 452.7820739746094 209.28506469726562 445.8179626464844 204.5870819091797 C 441.3631286621094 207.16896057128906 440.6446838378906 209.17904663085938 433.092529296875 210.96817016601562 C 433.9102783203125 209.92874145507812 437.6580810546875 189.5317840576172 439.2784118652344 181.93389892578125 C 440.5185241699219 180.9001922607422 444.2156066894531 181.39501953125 446.4809265136719 180.47378540039062 C 447.72711181640625 179.25022888183594 450.0633544921875 179.45899963378906 451.6298522949219 178.53524780273438" stroke-width="0.0" fill="url(#shape_36_fill)"/>
    <path d="M 558.6751098632812 85.8184814453125 C 564.4708862304688 80.38275146484375 578.6860961914062 81.89596557617188 580.2779541015625 85.67680358886719 C 581.54736328125 83.8228988647461 586.5477905273438 85.10675811767578 586.8976440429688 88.41963195800781 C 591.912353515625 95.91131591796875 585.0650024414062 103.40361022949219 574.3922729492188 100.10124206542969 C 573.7938232421875 99.35309600830078 550.8363647460938 95.33319091796875 541.4302368164062 85.68619537353516 C 538.6480102539062 85.27006530761719 537.7970581054688 81.33849334716797 535.8284912109375 80.34326171875 C 543.4102172851562 74.8741226196289 548.836669921875 78.34591674804688 558.6751098632812 85.8184814453125" stroke-width="0.0" fill="url(#shape_37_fill)"/>
    <path d="M 252.4582061767578 208.6115264892578 C 264.3157958984375 210.07125854492188 261.3163757324219 243.36508178710938 260.4803466796875 247.69691467285156 C 257.3510437011719 254.30563354492188 250.3287353515625 253.77005004882812 247.54637145996094 256.89971923828125 C 235.0028533935547 238.23629760742188 241.0752410888672 211.2882080078125 252.4582061767578 208.6115264892578" stroke-width="0.0" fill="url(#shape_38_fill)"/>
    <path d="M 443.3382263183594 263.3772277832031 C 445.9486999511719 263.4912414550781 449.10528564453125 266.6009826660156 447.6712341308594 270.0546875 C 444.16571044921875 270.34161376953125 442.599365234375 277.0211181640625 440.9524841308594 279.622802734375 C 440.4185485839844 285.4072570800781 421.8923034667969 284.24798583984375 416.31646728515625 276.8243408203125 C 414.6697692871094 276.98663330078125 413.2157287597656 273.59222412109375 415.5747985839844 271.6867370605469 C 414.9811706542969 269.91534423828125 419.02178955078125 262.06488037109375 425.8062744140625 258.4185791015625 C 428.002685546875 255.78318786621094 437.0029602050781 258.119140625 443.3382263183594 263.3772277832031" stroke-width="0.0" fill="url(#shape_39_fill)"/>
    <path d="M 407.74432373046875 409.7652893066406 C 408.68914794921875 409.8793029785156 416.77935791015625 419.02197265625 413.55633544921875 424.1542663574219 C 400.7569885253906 436.0083923339844 384.1270751953125 420.41082763671875 377.0976257324219 420.47882080078125 C 370.22674560546875 417.763916015625 371.8686828613281 416.777587890625 373.0770568847656 411.0847473144531 C 374.9725646972656 400.9814147949219 395.8865661621094 403.5195617675781 407.74432373046875 409.7652893066406" stroke-width="0.0" fill="url(#shape_40_fill)"/>
    <path d="M 66.45951080322266 427.5965270996094 C 67.48184967041016 429.1773376464844 65.14772033691406 435.42962646484375 59.30533218383789 436.1158447265625 C 58.38422775268555 437.1258850097656 40.60572814941406 436.9718933105469 31.40191078186035 442.60406494140625 C 28.133522033691406 442.3085021972656 25.26141357421875 445.00567626953125 17.141963958740234 443.47821044921875 C 16.47166633605957 440.6462097167969 17.698896408081055 439.2037353515625 17.037643432617188 437.966796875 C 33.60942077636719 427.6686706542969 55.73963928222656 427.5445861816406 66.45951080322266 427.5965270996094" stroke-width="0.0" fill="url(#shape_41_fill)"/>
    <path d="M 278.9765930175781 381.2526550292969 C 284.5162353515625 381.23480224609375 297.6208801269531 381.44659423828125 300.7451171875 384.9971923828125 C 297.3843078613281 394.9569091796875 299.3127746582031 400.7535095214844 294.3446350097656 404.53173828125 C 291.7259521484375 399.0240783691406 264.8271179199219 404.0767517089844 257.853759765625 404.78826904296875 C 251.08297729492188 403.48016357421875 249.57498168945312 392.1669921875 252.48269653320312 382.5731506347656 C 260.9722900390625 380.9223327636719 267.5576477050781 381.8470764160156 278.9765930175781 381.2526550292969" stroke-width="0.0" fill="url(#shape_42_fill)"/>
    <path d="M 222.02706909179688 218.31846618652344 C 225.25442504882812 216.78636169433594 233.36151123046875 216.56982421875 238.4388885498047 217.97792053222656 C 240.29417419433594 222.92617797851562 246.49659729003906 241.14279174804688 245.50445556640625 261.505859375 C 243.11167907714844 267.1539611816406 235.73448181152344 267.22381591796875 215.6103515625 266.8132019042969 C 211.17156982421875 263.7612609863281 210.6604766845703 261.26776123046875 217.50918579101562 248.03126525878906 C 219.4862518310547 246.47581481933594 217.90985107421875 226.41806030273438 222.02706909179688 218.31846618652344" stroke-width="0.0" fill="url(#shape_43_fill)"/>
    <path d="M 483.9568786621094 395.4866027832031 C 486.82269287109375 399.7982482910156 485.8456115722656 400.988525390625 483.54364013671875 401.2266540527344 C 474.21942138671875 406.8978576660156 451.162841796875 406.68621826171875 450.2434387207031 407.67315673828125 C 448.0402526855469 404.4176330566406 451.58734130859375 396.1735534667969 453.60455322265625 396.46844482421875 C 462.7345886230469 393.0966491699219 473.2941589355469 392.80743408203125 483.9568786621094 395.4866027832031" stroke-width="0.0" fill="url(#shape_44_fill)"/>
    <path d="M 45.85525894165039 406.9591369628906 C 45.28049850463867 408.1242370605469 35.808475494384766 411.53643798828125 34.679771423339844 413.941162109375 C 32.80870819091797 414.6835632324219 32.4830322265625 416.1449279785156 29.34442138671875 416.29571533203125 C 27.935665130615234 417.7506103515625 25.16007423400879 418.0378723144531 21.590951919555664 420.6364440917969 C 17.78299331665039 420.19464111328125 -0.08753819018602371 417.2218322753906 -0.729335367679596 420.57550048828125 C 1.729085087776184 419.64068603515625 -0.5909121036529541 410.6600646972656 0.7783293724060059 410.2489929199219 C 8.810047149658203 408.67498779296875 45.49362564086914 407.48974609375 45.85525894165039 406.9591369628906" stroke-width="0.0" fill="url(#shape_45_fill)"/>
    <path d="M 451.821044921875 175.2749481201172 C 455.5084533691406 174.82115173339844 464.163818359375 198.95034790039062 465.0328674316406 202.14723205566406 C 462.58453369140625 209.64060974121094 451.6943359375 209.60179138183594 449.47412109375 206.75697326660156 C 448.32696533203125 203.2499237060547 449.0469665527344 198.31295776367188 448.8471374511719 195.3010711669922 C 447.9455261230469 194.54798889160156 447.60614013671875 192.17384338378906 448.5054016113281 187.93991088867188 C 450.935791015625 186.7852325439453 451.0153503417969 183.3229217529297 451.821044921875 175.2749481201172" stroke-width="0.0" fill="url(#shape_46_fill)"/>
    <path d="M 373.1587219238281 186.45724487304688 C 378.4637756347656 192.8633575439453 379.6080017089844 203.40480041503906 371.7499694824219 206.3190155029297 C 365.8646545410156 206.82716369628906 364.772216796875 204.85462951660156 361.8829650878906 204.2324676513672 C 351.1059875488281 208.0239715576172 349.1742248535156 203.72006225585938 354.5818176269531 188.52789306640625 C 356.646484375 184.96092224121094 358.36669921875 184.42784118652344 368.1920471191406 185.7363739013672 C 368.85247802734375 183.64369201660156 372.8540954589844 183.41079711914062 373.1587219238281 186.45724487304688" stroke-width="0.0" fill="url(#shape_47_fill)"/>
    <path d="M 472.34320068359375 263.3613586425781 C 475.9222412109375 266.0361022949219 480.506103515625 266.997802734375 479.3636474609375 284.4490966796875 C 465.494384765625 287.9328308105469 454.31256103515625 286.0823974609375 443.8736877441406 284.904541015625 C 439.2982482910156 282.2272644042969 439.99755859375 276.95709228515625 441.21429443359375 276.4796447753906 C 446.18505859375 266.2055358886719 455.1770324707031 265.3214416503906 472.34320068359375 263.3613586425781" stroke-width="0.0" fill="url(#shape_48_fill)"/>
    <path d="M 176.9574737548828 118.29656219482422 C 178.7996826171875 116.06489562988281 181.94607543945312 116.60283660888672 182.95726013183594 117.41654205322266 C 184.68955993652344 120.22679901123047 183.85211181640625 122.35076904296875 184.86570739746094 124.30632019042969 C 180.3529052734375 129.16172790527344 185.9390411376953 136.64559936523438 183.10592651367188 140.50399780273438 C 181.22169494628906 146.65921020507812 172.6811065673828 145.4965057373047 171.56675720214844 146.35687255859375 C 170.99380493164062 126.39335632324219 169.7966766357422 124.31089782714844 176.9574737548828 118.29656219482422" stroke-width="0.0" fill="url(#shape_49_fill)"/>
    <path d="M 333.9802551269531 427.9388732910156 C 337.40032958984375 428.3681945800781 340.9730529785156 429.2330627441406 342.8988952636719 432.0320129394531 C 346.3604736328125 435.5997009277344 345.162353515625 437.22967529296875 342.478759765625 437.60821533203125 C 342.8750305175781 445.7185363769531 325.0126953125 447.6661071777344 323.0052490234375 441.600830078125 C 318.988037109375 436.7594909667969 316.6044921875 432.4353942871094 313.7785949707031 430.32769775390625 C 322.4087219238281 427.4620666503906 328.8240051269531 427.57061767578125 333.9802551269531 427.9388732910156" stroke-width="0.0" fill="url(#shape_50_fill)"/>
    <path d="M 299.2864685058594 390.22210693359375 C 298.99847412109375 393.6933898925781 295.3172607421875 398.7548522949219 289.1624755859375 399.16265869140625 C 281.4881896972656 397.4053039550781 280.3657531738281 398.3738708496094 271.3840026855469 402.65496826171875 C 271.05255126953125 401.61895751953125 269.5537109375 398.9895935058594 271.0105895996094 397.48162841796875 C 269.9133605957031 395.4988098144531 272.947998046875 388.0312194824219 279.7155456542969 388.59271240234375 C 283.1867370605469 386.71942138671875 287.98779296875 389.2864990234375 299.2864685058594 390.22210693359375" stroke-width="0.0" fill="url(#shape_51_fill)"/>
    <path d="M 269.7402648925781 184.96319580078125 C 275.569580078125 195.2637176513672 277.92950439453125 207.77322387695312 279.94207763671875 217.40133666992188 C 271.47503662109375 210.4300079345703 268.7896728515625 207.95314025878906 260.87744140625 215.45225524902344 C 257.8619079589844 205.92056274414062 264.1083068847656 197.83665466308594 265.9778137207031 195.1912384033203 C 269.556396484375 194.2147674560547 268.8966979980469 191.6802520751953 269.7402648925781 184.96319580078125" stroke-width="0.0" fill="url(#shape_52_fill)"/>
    <path d="M 218.232666015625 409.5660400390625 C 215.92726135253906 410.9971618652344 215.5582275390625 413.2264709472656 214.25550842285156 413.8132629394531 C 214.62081909179688 420.7670593261719 190.1631317138672 424.2276916503906 187.47341918945312 415.6138000488281 C 186.25660705566406 406.2500305175781 205.72702026367188 401.150390625 218.232666015625 409.5660400390625" stroke-width="0.0" fill="url(#shape_53_fill)"/>
    <path d="M 205.78016662597656 424.6054992675781 C 205.5088653564453 425.3323974609375 206.14601135253906 428.3391418457031 204.5802001953125 429.49798583984375 C 197.0734405517578 432.0108642578125 178.83230590820312 431.9021911621094 177.9238739013672 432.73297119140625 C 176.69674682617188 430.9549560546875 178.16372680664062 425.95611572265625 176.73399353027344 423.905029296875 C 185.85992431640625 418.8220520019531 195.3141326904297 422.1258850097656 205.78016662597656 424.6054992675781" stroke-width="0.0" fill="url(#shape_54_fill)"/>
    <path d="M 269.9535217285156 245.79425048828125 C 275.4229431152344 244.7604217529297 276.6668395996094 246.11614990234375 280.7887268066406 245.3839111328125 C 280.91534423828125 251.4655303955078 280.5235900878906 251.90921020507812 284.1628112792969 260.34844970703125 C 263.4600524902344 257.89984130859375 262.92047119140625 257.18634033203125 254.8711700439453 258.7382507324219 C 254.88485717773438 248.17355346679688 255.8585968017578 247.2287139892578 258.4226379394531 244.87799072265625 C 260.1534729003906 239.51113891601562 266.1087951660156 240.01048278808594 269.9535217285156 245.79425048828125" stroke-width="0.0" fill="url(#shape_55_fill)"/>
    <path d="M 275.5101013183594 358.39056396484375 C 277.3265686035156 364.33343505859375 282.2413024902344 363.2657775878906 284.4983215332031 368.0942077636719 C 285.36627197265625 369.2398986816406 285.82257080078125 371.84918212890625 285.8029479980469 380.0284118652344 C 277.56671142578125 380.0660705566406 265.0181579589844 383.3200378417969 249.07533264160156 382.73736572265625 C 245.0357666015625 379.3568115234375 246.41458129882812 363.2500305175781 247.75253295898438 360.91796875 C 254.8893585205078 359.4775085449219 261.2807312011719 358.41143798828125 275.5101013183594 358.39056396484375" stroke-width="0.0" fill="url(#shape_56_fill)"/>
    <path d="M 409.4903259277344 270.49859619140625 C 415.1805114746094 269.4612731933594 417.7763977050781 273.7745666503906 418.324462890625 281.3515319824219 C 413.031005859375 288.983154296875 402.272216796875 285.32781982421875 385.8799133300781 282.9987487792969 C 383.9203186035156 268.5314025878906 392.609619140625 264.4815673828125 409.4903259277344 270.49859619140625" stroke-width="0.0" fill="url(#shape_57_fill)"/>
    <path d="M 632.041748046875 351.7539978027344 C 632.9776000976562 354.42279052734375 659.5635986328125 353.2933349609375 668.6740112304688 353.633544921875 C 668.4573974609375 358.3308410644531 662.3773193359375 360.8745422363281 658.7658081054688 356.63323974609375 C 652.681640625 356.2644348144531 634.0787963867188 360.6253356933594 631.4566650390625 360.9912109375 C 627.7598876953125 357.1090087890625 629.2986450195312 353.56610107421875 632.041748046875 351.7539978027344" stroke-width="0.0" fill="url(#shape_58_fill)"/>
    <path d="M 341.2646179199219 385.1653137207031 C 342.77984619140625 390.3294982910156 358.1178283691406 391.84814453125 359.1823425292969 394.7797546386719 C 356.60162353515625 398.7004699707031 339.9209899902344 401.8162536621094 338.4535217285156 399.5185546875 C 335.1400146484375 399.6064758300781 333.0846252441406 398.77337646484375 331.87066650390625 396.5351257324219 C 331.9852294921875 394.93994140625 330.7584228515625 393.4737243652344 332.37255859375 390.6194152832031 C 333.2004089355469 385.1099853515625 337.1237487792969 384.3020935058594 341.2646179199219 385.1653137207031" stroke-width="0.0" fill="url(#shape_59_fill)"/>
    <path d="M 460.8541564941406 363.921630859375 C 462.6228942871094 365.1027526855469 471.69537353515625 369.70233154296875 473.09503173828125 373.91845703125 C 471.7877197265625 376.1456604003906 470.3310546875 376.8438415527344 463.0614318847656 375.92059326171875 C 458.4978942871094 376.9740905761719 457.5057373046875 376.9327392578125 452.69769287109375 370.9207763671875 C 453.0005798339844 369.13330078125 458.9544372558594 364.98052978515625 460.8541564941406 363.921630859375" stroke-width="0.0" fill="url(#shape_60_fill)"/>
    <path d="M 435.3183898925781 432.64013671875 C 440.232421875 434.26263427734375 442.4869689941406 436.3553771972656 442.0000305175781 439.0616760253906 C 440.47857666015625 442.25 430.0634460449219 440.9959716796875 425.82025146484375 442.5182189941406 C 422.51885986328125 438.2435607910156 424.10394287109375 434.46820068359375 418.0195617675781 426.9590759277344 C 427.9978942871094 430.0675964355469 432.0020751953125 434.34967041015625 435.3183898925781 432.64013671875" stroke-width="0.0" fill="url(#shape_61_fill)"/>
    <path d="M 185.4283905029297 411.4532165527344 C 186.2624969482422 413.93170166015625 185.0092315673828 414.7928771972656 186.9232177734375 417.8096923828125 C 184.85845947265625 420.1513977050781 183.40835571289062 419.53521728515625 182.4524383544922 419.6922302246094 C 180.87283325195312 421.7363586425781 174.4719696044922 420.3219299316406 171.20303344726562 420.2598571777344 C 169.52684020996094 417.89068603515625 169.75323486328125 415.6357116699219 173.24533081054688 413.6191101074219 C 176.42022705078125 412.38702392578125 180.84046936035156 410.81341552734375 185.4283905029297 411.4532165527344" stroke-width="0.0" fill="url(#shape_62_fill)"/>
    <path d="M 332.5320129394531 418.3835754394531 C 334.929931640625 426.1881103515625 329.90875244140625 428.033447265625 327.2852478027344 426.104248046875 C 324.60528564453125 427.783203125 323.0047912597656 426.7413024902344 320.4911804199219 427.65521240234375 C 318.7132568359375 426.0451965332031 319.64306640625 419.9920959472656 317.8227844238281 418.4185485839844 C 321.4463195800781 420.0188293457031 326.5835266113281 418.8097229003906 332.5320129394531 418.3835754394531" stroke-width="0.0" fill="url(#shape_63_fill)"/>
    <path d="M 55.358360290527344 273.1791076660156 C 56.539730072021484 269.6565856933594 66.283935546875 269.98846435546875 66.26863098144531 278.63616943359375 C 59.04146194458008 278.9877624511719 53.46597671508789 273.3257141113281 47.923370361328125 276.0309143066406 C 49.395057678222656 272.8648681640625 52.277103424072266 272.3388977050781 55.358360290527344 273.1791076660156" stroke-width="0.0" fill="url(#shape_64_fill)"/>
    <path d="M 304.34710693359375 438.6725158691406 C 304.4628601074219 437.0579528808594 305.8533630371094 436.0692138671875 313.14984130859375 437.01824951171875 C 314.79827880859375 438.9233093261719 313.2200012207031 441.66705322265625 311.4981689453125 443.10797119140625 C 307.8424072265625 445.4313049316406 306.7788391113281 444.23089599609375 305.05224609375 445.1412353515625 C 303.0628662109375 441.539794921875 302.3043212890625 439.4447937011719 304.34710693359375 438.6725158691406" stroke-width="0.0" fill="url(#shape_65_fill)"/>
    <path d="M -0.36218851804733276 -0.33624574542045593 C 224.01406860351562 -0.007938464172184467 443.724853515625 0.4688846468925476 673.1821899414062 0.8273254632949829 C 673.85986328125 151.56668090820312 674.4852294921875 295.4073486328125 673.4666748046875 445.4627685546875 C 450.4731140136719 446.2371826171875 230.76278686523438 446.1726379394531 0.5799394845962524 445.2928771972656 C 0.2683899998664856 296.9195251464844 -0.07913189381361008 148.78182983398438 -0.36218851804733276 -0.33624574542045593" stroke-width="0.0" fill="url(#shape_66_fill)"/>
    <path d="M -0.9042069315910339 -0.12312203645706177 C 222.54872131347656 -0.12678147852420807 443.5360412597656 0.36417627334594727 673.2064208984375 0.41753026843070984 C 673.987548828125 151.5701904296875 674.5404663085938 294.7005615234375 673.2286376953125 445.33245849609375 C 450.50006103515625 446.3188781738281 230.9816436767578 446.2264709472656 0.7291034460067749 445.19000244140625 C 0.21940766274929047 296.84576416015625 -0.20419655740261078 148.5698699951172 -0.9042069315910339 -0.12312203645706177" stroke-width="0.0" fill="url(#shape_67_fill)"/>
    <path d="M -0.6013547778129578 -0.1759258210659027 C 222.8225860595703 -0.201463520526886 443.0153503417969 0.36996012926101685 673.1846923828125 -0.09594148397445679 C 673.9656372070312 151.6914825439453 674.5464477539062 294.7720642089844 673.2408447265625 445.3292541503906 C 450.5437316894531 446.32037353515625 231.0624542236328 446.2222900390625 1.2917383909225464 445.1622619628906 C 0.4938502013683319 295.63079833984375 0.05765313655138016 148.57876586914062 -0.6013547778129578 -0.1759258210659027" stroke-width="0.0" fill="url(#shape_68_fill)"/>
  </g>
</svg>
