<?xml version="1.0" ?>
<svg xmlns="http://www.w3.org/2000/svg" version="1.1" width="674" height="446">
  <defs>
    <radialGradient id="shape_0_fill" cx="0.5311153423184811" cy="0.7389886283019198" r="0.2826425342956">
      <stop offset="0.7108992" stop-color="rgb(158, 166, 0)" stop-opacity="0.8360922336578369"/>
      <stop offset="1.0" stop-color="rgb(48, 40, 0)" stop-opacity="0.9799494743347168"/>
    </radialGradient>
    <radialGradient id="shape_1_fill" cx="0.532472740648762" cy="0.7434248304153237" r="0.20669827333897442">
      <stop offset="0.34518874" stop-color="rgb(64, 56, 76)" stop-opacity="0.7288160920143127"/>
      <stop offset="0.98326004" stop-color="rgb(35, 6, 0)" stop-opacity="0.6003888249397278"/>
    </radialGradient>
    <radialGradient id="shape_2_fill" cx="0.09792273546892387" cy="0.7376672719091578" r="0.22062588021026522">
      <stop offset="0.0064328653" stop-color="rgb(51, 113, 189)" stop-opacity="0.8488249182701111"/>
      <stop offset="0.99834657" stop-color="rgb(2, 86, 255)" stop-opacity="0.8924859762191772"/>
    </radialGradient>
    <radialGradient id="shape_3_fill" cx="0.2785739842083758" cy="0.2149193083758846" r="0.13238114489999653">
      <stop offset="0.40628824" stop-color="rgb(127, 171, 0)" stop-opacity="0.7679475545883179"/>
      <stop offset="1.0" stop-color="rgb(35, 30, 0)" stop-opacity="0.9255895614624023"/>
    </radialGradient>
    <radialGradient id="shape_4_fill" cx="0.1543026706231454" cy="0.9977578475336323" r="0.10288926755639141">
      <stop offset="0.0" stop-color="rgb(81, 79, 86)" stop-opacity="1.0"/>
      <stop offset="1.0" stop-color="rgb(48, 37, 63)" stop-opacity="0.8476973176002502"/>
    </radialGradient>
    <radialGradient id="shape_5_fill" cx="0.14807964290992442" cy="0.23997249517740155" r="0.11810664960821587">
      <stop offset="0.0" stop-color="rgb(255, 255, 255)" stop-opacity="0.6465655565261841"/>
      <stop offset="0.5626593" stop-color="rgb(255, 255, 255)" stop-opacity="0.5171598196029663"/>
    </radialGradient>
    <radialGradient id="shape_6_fill" cx="0.18397626112759644" cy="0.9977578475336323" r="0.0754974885934892">
      <stop offset="0.0" stop-color="rgb(93, 90, 94)" stop-opacity="1.0"/>
      <stop offset="1.0" stop-color="rgb(149, 127, 134)" stop-opacity="0.8535605669021606"/>
    </radialGradient>
    <radialGradient id="shape_7_fill" cx="0.2893175074183976" cy="0.05829596412556054" r="0.08666390552011372">
      <stop offset="0.0" stop-color="rgb(55, 66, 29)" stop-opacity="1.0"/>
      <stop offset="1.0" stop-color="rgb(122, 130, 57)" stop-opacity="0.5729710459709167"/>
    </radialGradient>
    <radialGradient id="shape_8_fill" cx="0.3382789091115889" cy="0.9439461883408071" r="0.06756690277190167">
      <stop offset="0.0" stop-color="rgb(91, 124, 45)" stop-opacity="1.0"/>
      <stop offset="1.0" stop-color="rgb(79, 132, 0)" stop-opacity="0.5451126098632812"/>
    </radialGradient>
    <radialGradient id="shape_9_fill" cx="0.30712166172106825" cy="0.9977578475336323" r="0.0730758406641929">
      <stop offset="0.0" stop-color="rgb(38, 48, 20)" stop-opacity="1.0"/>
      <stop offset="1.0" stop-color="rgb(34, 26, 52)" stop-opacity="1.0"/>
    </radialGradient>
    <radialGradient id="shape_10_fill" cx="0.3056379821958457" cy="0.9977578475336323" r="0.06792919147615971">
      <stop offset="0.0" stop-color="rgb(39, 49, 21)" stop-opacity="1.0"/>
      <stop offset="1.0" stop-color="rgb(32, 5, 0)" stop-opacity="0.646519124507904"/>
    </radialGradient>
    <radialGradient id="shape_11_fill" cx="0.21810089020771514" cy="0.968609865470852" r="0.06792919147615971">
      <stop offset="0.0" stop-color="rgb(138, 135, 129)" stop-opacity="1.0"/>
      <stop offset="1.0" stop-color="rgb(114, 63, 39)" stop-opacity="0.3985876441001892"/>
    </radialGradient>
    <radialGradient id="shape_12_fill" cx="0.29080118694362017" cy="0.9977578475336323" r="0.07480746985189285">
      <stop offset="0.0" stop-color="rgb(22, 25, 13)" stop-opacity="1.0"/>
      <stop offset="1.0" stop-color="rgb(38, 30, 15)" stop-opacity="1.0"/>
    </radialGradient>
    <radialGradient id="shape_13_fill" cx="0.327893175074184" cy="0.8923766816143498" r="0.06900465877544279">
      <stop offset="0.0" stop-color="rgb(89, 117, 50)" stop-opacity="1.0"/>
      <stop offset="1.0" stop-color="rgb(92, 119, 8)" stop-opacity="0.637708842754364"/>
    </radialGradient>
    <radialGradient id="shape_14_fill" cx="0.142433234421365" cy="0.9977578475336323" r="0.06617211022079875">
      <stop offset="0.0" stop-color="rgb(155, 150, 153)" stop-opacity="1.0"/>
      <stop offset="1.0" stop-color="rgb(255, 137, 136)" stop-opacity="0.2258308231830597"/>
    </radialGradient>
    <radialGradient id="shape_15_fill" cx="0.31008902077151335" cy="0.9977578475336323" r="0.06683642786405207">
      <stop offset="0.0" stop-color="rgb(43, 55, 23)" stop-opacity="1.0"/>
      <stop offset="1.0" stop-color="rgb(62, 66, 22)" stop-opacity="0.8621143102645874"/>
    </radialGradient>
    <radialGradient id="shape_16_fill" cx="0.27299703264094954" cy="0.9977578475336323" r="0.08110449363640579">
      <stop offset="0.0" stop-color="rgb(31, 35, 19)" stop-opacity="1.0"/>
      <stop offset="1.0" stop-color="rgb(30, 23, 0)" stop-opacity="0.9397733807563782"/>
    </radialGradient>
    <radialGradient id="shape_17_fill" cx="0.2893175074183976" cy="0.9977578475336323" r="0.07513486030193747">
      <stop offset="0.0" stop-color="rgb(22, 23, 13)" stop-opacity="1.0"/>
      <stop offset="1.0" stop-color="rgb(26, 19, 0)" stop-opacity="0.8515195250511169"/>
    </radialGradient>
    <radialGradient id="shape_18_fill" cx="0.3293768545994065" cy="0.7556053811659192" r="0.06617211022079875">
      <stop offset="0.0" stop-color="rgb(83, 108, 65)" stop-opacity="1.0"/>
      <stop offset="1.0" stop-color="rgb(105, 120, 57)" stop-opacity="0.9634628295898438"/>
    </radialGradient>
    <radialGradient id="shape_19_fill" cx="0.3516320474777448" cy="0.9977578475336323" r="0.06617211022079875">
      <stop offset="0.0" stop-color="rgb(95, 135, 39)" stop-opacity="1.0"/>
      <stop offset="1.0" stop-color="rgb(129, 184, 0)" stop-opacity="0.6342743039131165"/>
    </radialGradient>
    <radialGradient id="shape_20_fill" cx="0.0830860534124629" cy="0.9977578475336323" r="0.06792919147615971">
      <stop offset="0.0" stop-color="rgb(49, 52, 66)" stop-opacity="1.0"/>
      <stop offset="1.0" stop-color="rgb(45, 30, 66)" stop-opacity="0.4525083601474762"/>
    </radialGradient>
    <radialGradient id="shape_21_fill" cx="0.29821958456973297" cy="0.9977578475336323" r="0.06792919147615971">
      <stop offset="0.0" stop-color="rgb(33, 40, 17)" stop-opacity="1.0"/>
      <stop offset="1.0" stop-color="rgb(50, 63, 0)" stop-opacity="0.7125135660171509"/>
    </radialGradient>
    <radialGradient id="shape_22_fill" cx="0.3563326600751113" cy="0.44372438849889645" r="0.06594546966099951">
      <stop offset="0.52384716" stop-color="rgb(110, 134, 39)" stop-opacity="1.0"/>
      <stop offset="0.38891584" stop-color="rgb(146, 171, 41)" stop-opacity="0.9108455181121826"/>
    </radialGradient>
    <radialGradient id="shape_23_fill" cx="0.6454005934718101" cy="0.1412556053811659" r="0.06617211022079875">
      <stop offset="0.0" stop-color="rgb(46, 38, 13)" stop-opacity="1.0"/>
      <stop offset="1.0" stop-color="rgb(54, 27, 0)" stop-opacity="0.8851341605186462"/>
    </radialGradient>
    <radialGradient id="shape_24_fill" cx="0.2492550586734398" cy="0.4843076355254169" r="0.06616971047059012">
      <stop offset="0.0" stop-color="rgb(205, 213, 206)" stop-opacity="1.0"/>
      <stop offset="0.92454517" stop-color="rgb(255, 255, 255)" stop-opacity="0.326009601354599"/>
    </radialGradient>
    <radialGradient id="shape_25_fill" cx="0.6320474777448071" cy="0.9977578475336323" r="0.06617211022079875">
      <stop offset="0.0" stop-color="rgb(35, 28, 8)" stop-opacity="1.0"/>
      <stop offset="1.0" stop-color="rgb(39, 15, 0)" stop-opacity="0.847562313079834"/>
    </radialGradient>
    <radialGradient id="shape_26_fill" cx="0.15414520399506793" cy="0.3207086811151205" r="0.06604698362265567">
      <stop offset="0.11989566" stop-color="rgb(198, 211, 155)" stop-opacity="1.0"/>
      <stop offset="0.58338004" stop-color="rgb(167, 144, 112)" stop-opacity="0.37557122111320496"/>
    </radialGradient>
    <radialGradient id="shape_27_fill" cx="0.15410647972401242" cy="0.3208032787648017" r="0.06604505929465818">
      <stop offset="0.0" stop-color="rgb(192, 205, 0)" stop-opacity="1.0"/>
      <stop offset="0.49375948" stop-color="rgb(36, 28, 16)" stop-opacity="0.4345285892486572"/>
    </radialGradient>
    <radialGradient id="shape_28_fill" cx="0.03364504692462502" cy="0.014876797594831664" r="0.07312299235991979">
      <stop offset="0.09548188" stop-color="rgb(8, 19, 112)" stop-opacity="0.9360517859458923"/>
      <stop offset="0.8190673" stop-color="rgb(8, 17, 146)" stop-opacity="0.7126476168632507"/>
    </radialGradient>
    <radialGradient id="shape_29_fill" cx="0.33976258863681147" cy="0.6659192825112108" r="0.06617211022079875">
      <stop offset="0.0" stop-color="rgb(90, 117, 55)" stop-opacity="1.0"/>
      <stop offset="1.0" stop-color="rgb(107, 129, 29)" stop-opacity="0.8671470284461975"/>
    </radialGradient>
    <radialGradient id="shape_30_fill" cx="0.03874199468233465" cy="0.015956774955373173" r="0.06960434163713314">
      <stop offset="0.17587996" stop-color="rgb(50, 69, 76)" stop-opacity="1.0"/>
      <stop offset="0.9333961" stop-color="rgb(66, 64, 0)" stop-opacity="0.4894980192184448"/>
    </radialGradient>
    <radialGradient id="shape_31_fill" cx="0.12314540059347182" cy="0.9977578475336323" r="0.06617211022079875">
      <stop offset="0.0" stop-color="rgb(95, 103, 98)" stop-opacity="1.0"/>
      <stop offset="1.0" stop-color="rgb(136, 118, 109)" stop-opacity="0.7344687581062317"/>
    </radialGradient>
    <radialGradient id="shape_32_fill" cx="0.4035608308605341" cy="0.984304932735426" r="0.06617211022079875">
      <stop offset="0.0" stop-color="rgb(126, 155, 63)" stop-opacity="1.0"/>
      <stop offset="1.0" stop-color="rgb(83, 49, 4)" stop-opacity="0.4831501841545105"/>
    </radialGradient>
    <radialGradient id="shape_33_fill" cx="0.3249258160237389" cy="0.6053811659192825" r="0.06617211022079875">
      <stop offset="1.5749225e-05" stop-color="rgb(93, 124, 71)" stop-opacity="0.999808132648468"/>
      <stop offset="1.0" stop-color="rgb(123, 138, 58)" stop-opacity="1.0"/>
    </radialGradient>
    <radialGradient id="shape_34_fill" cx="0.6468842729970327" cy="0.531390134529148" r="0.06617211022079875">
      <stop offset="0.0" stop-color="rgb(54, 47, 24)" stop-opacity="1.0"/>
      <stop offset="1.0" stop-color="rgb(43, 4, 35)" stop-opacity="0.3672849237918854"/>
    </radialGradient>
    <radialGradient id="shape_35_fill" cx="0.15125259942753733" cy="0.23736024865120517" r="0.06620584255863722">
      <stop offset="0.12171671" stop-color="rgb(211, 255, 97)" stop-opacity="0.13010281324386597"/>
      <stop offset="0.520975" stop-color="rgb(104, 68, 66)" stop-opacity="0.8812897801399231"/>
    </radialGradient>
    <radialGradient id="shape_36_fill" cx="0.2878338278931751" cy="0.9977578475336323" r="0.06617211022079875">
      <stop offset="0.0" stop-color="rgb(80, 96, 53)" stop-opacity="1.0"/>
      <stop offset="1.0" stop-color="rgb(20, 14, 0)" stop-opacity="0.7764440774917603"/>
    </radialGradient>
    <radialGradient id="shape_37_fill" cx="0.129080118694362" cy="0.9977578475336323" r="0.06617211022079875">
      <stop offset="0.0" stop-color="rgb(87, 97, 81)" stop-opacity="1.0"/>
      <stop offset="1.0" stop-color="rgb(61, 61, 57)" stop-opacity="0.5961022973060608"/>
    </radialGradient>
    <radialGradient id="shape_38_fill" cx="0.33892324204260943" cy="0.5607740119968294" r="0.0666785763703751">
      <stop offset="0.7501433" stop-color="rgb(87, 108, 30)" stop-opacity="0.9283045530319214"/>
      <stop offset="0.6022492" stop-color="rgb(164, 244, 78)" stop-opacity="0.8736158609390259"/>
    </radialGradient>
    <radialGradient id="shape_39_fill" cx="0.40059347181008903" cy="0.9641255605381166" r="0.06617211022079875">
      <stop offset="0.0" stop-color="rgb(138, 168, 60)" stop-opacity="1.0"/>
      <stop offset="1.0" stop-color="rgb(222, 255, 84)" stop-opacity="0.8112179040908813"/>
    </radialGradient>
    <radialGradient id="shape_40_fill" cx="0.6101120855404998" cy="0.8743121912661155" r="0.07249824229616793">
      <stop offset="0.36670774" stop-color="rgb(162, 144, 172)" stop-opacity="0.26111364364624023"/>
      <stop offset="0.5310342" stop-color="rgb(2, 5, 57)" stop-opacity="0.7491926550865173"/>
    </radialGradient>
    <radialGradient id="shape_41_fill" cx="0.6454005934718101" cy="0.08744394618834081" r="0.06617211022079875">
      <stop offset="0.0" stop-color="rgb(58, 48, 21)" stop-opacity="1.0"/>
      <stop offset="1.0" stop-color="rgb(92, 59, 24)" stop-opacity="0.9985764622688293"/>
    </radialGradient>
    <radialGradient id="shape_42_fill" cx="0.5845697329376854" cy="0.6188340807174888" r="0.06617211022079875">
      <stop offset="0.0" stop-color="rgb(62, 59, 56)" stop-opacity="1.0"/>
      <stop offset="1.0" stop-color="rgb(44, 34, 80)" stop-opacity="0.6404067277908325"/>
    </radialGradient>
    <radialGradient id="shape_43_fill" cx="0.3543036712737041" cy="0.501751442126629" r="0.0702814164430522">
      <stop offset="0.24395554" stop-color="rgb(121, 149, 54)" stop-opacity="0.9269500970840454"/>
      <stop offset="0.6218364" stop-color="rgb(202, 251, 21)" stop-opacity="0.7243072390556335"/>
    </radialGradient>
    <radialGradient id="shape_44_fill" cx="0.5934718100890207" cy="0.9977578475336323" r="0.06617211022079875">
      <stop offset="0.0" stop-color="rgb(89, 61, 18)" stop-opacity="1.0"/>
      <stop offset="1.0" stop-color="rgb(165, 76, 7)" stop-opacity="0.6820725202560425"/>
    </radialGradient>
    <radialGradient id="shape_45_fill" cx="0.612759643916914" cy="0.04035874439461883" r="0.06617211022079875">
      <stop offset="0.0" stop-color="rgb(157, 136, 123)" stop-opacity="1.0"/>
      <stop offset="1.0" stop-color="rgb(255, 214, 203)" stop-opacity="1.0"/>
    </radialGradient>
    <radialGradient id="shape_46_fill" cx="0.28635014836795253" cy="0.9977578475336323" r="0.06617211022079875">
      <stop offset="0.0" stop-color="rgb(82, 99, 55)" stop-opacity="1.0"/>
      <stop offset="1.0" stop-color="rgb(91, 93, 31)" stop-opacity="0.563667356967926"/>
    </radialGradient>
    <radialGradient id="shape_47_fill" cx="0.28635014836795253" cy="0.8183856502242153" r="0.06617211022079875">
      <stop offset="0.0" stop-color="rgb(166, 189, 197)" stop-opacity="1.0"/>
      <stop offset="1.0" stop-color="rgb(243, 255, 255)" stop-opacity="0.4414535462856293"/>
    </radialGradient>
    <radialGradient id="shape_48_fill" cx="0.40801186943620177" cy="0.9977578475336323" r="0.06617211022079875">
      <stop offset="0.0" stop-color="rgb(107, 135, 68)" stop-opacity="1.0"/>
      <stop offset="1.0" stop-color="rgb(126, 133, 56)" stop-opacity="1.0"/>
    </radialGradient>
    <radialGradient id="shape_49_fill" cx="0.19287833827893175" cy="0.3991031390134529" r="0.06617211022079875">
      <stop offset="0.0" stop-color="rgb(92, 100, 54)" stop-opacity="1.0"/>
      <stop offset="1.0" stop-color="rgb(51, 19, 0)" stop-opacity="0.5039888024330139"/>
    </radialGradient>
    <radialGradient id="shape_50_fill" cx="0.6439169139465876" cy="0.7376681614349776" r="0.06617211022079875">
      <stop offset="0.0" stop-color="rgb(65, 56, 25)" stop-opacity="1.0"/>
      <stop offset="1.0" stop-color="rgb(148, 166, 83)" stop-opacity="0.34320884943008423"/>
    </radialGradient>
    <radialGradient id="shape_51_fill" cx="0.5845697329376854" cy="0.6322869955156951" r="0.06617211022079875">
      <stop offset="0.0" stop-color="rgb(75, 68, 60)" stop-opacity="1.0"/>
      <stop offset="1.0" stop-color="rgb(195, 140, 111)" stop-opacity="0.42683079838752747"/>
    </radialGradient>
    <radialGradient id="shape_52_fill" cx="0.2997032640949555" cy="0.6031390134529148" r="0.06617211022079875">
      <stop offset="0.0" stop-color="rgb(107, 158, 118)" stop-opacity="1.0"/>
      <stop offset="1.0" stop-color="rgb(172, 255, 209)" stop-opacity="0.574467658996582"/>
    </radialGradient>
    <radialGradient id="shape_53_fill" cx="0.6097922848664689" cy="0.45067264573991034" r="0.06617211022079875">
      <stop offset="0.0" stop-color="rgb(38, 39, 27)" stop-opacity="1.0"/>
      <stop offset="1.0" stop-color="rgb(16, 5, 65)" stop-opacity="0.32666096091270447"/>
    </radialGradient>
    <radialGradient id="shape_54_fill" cx="0.6335311572700296" cy="0.426009002822397" r="0.06617211022079875">
      <stop offset="0.0" stop-color="rgb(67, 49, 20)" stop-opacity="1.0"/>
      <stop offset="1.0" stop-color="rgb(181, 93, 38)" stop-opacity="0.4254797697067261"/>
    </radialGradient>
    <radialGradient id="shape_55_fill" cx="0.3707168533823257" cy="0.5988430827187851" r="0.066001377049115">
      <stop offset="0.43605936" stop-color="rgb(245, 255, 54)" stop-opacity="0.8324461579322815"/>
      <stop offset="0.16089156" stop-color="rgb(234, 255, 47)" stop-opacity="0.8312568068504333"/>
    </radialGradient>
    <radialGradient id="shape_56_fill" cx="0.5489614243323442" cy="0.600896860986547" r="0.06617211022079875">
      <stop offset="0.0" stop-color="rgb(50, 62, 80)" stop-opacity="1.0"/>
      <stop offset="1.0" stop-color="rgb(35, 91, 255)" stop-opacity="0.4438364505767822"/>
    </radialGradient>
    <radialGradient id="shape_57_fill" cx="0.4094955489614243" cy="0.9035874439461884" r="0.06617211022079875">
      <stop offset="0.0" stop-color="rgb(111, 144, 47)" stop-opacity="1.0"/>
      <stop offset="1.0" stop-color="rgb(213, 255, 64)" stop-opacity="0.7698920369148254"/>
    </radialGradient>
    <radialGradient id="shape_58_fill" cx="0.5281899109792285" cy="0.9977578475336323" r="0.06617211022079875">
      <stop offset="0.0" stop-color="rgb(50, 43, 14)" stop-opacity="1.0"/>
      <stop offset="1.0" stop-color="rgb(86, 58, 18)" stop-opacity="1.0"/>
    </radialGradient>
    <radialGradient id="shape_59_fill" cx="0.5845697329376854" cy="0.7690582959641256" r="0.06617211022079875">
      <stop offset="0.0" stop-color="rgb(61, 63, 58)" stop-opacity="1.0"/>
      <stop offset="1.0" stop-color="rgb(79, 69, 90)" stop-opacity="0.710131049156189"/>
    </radialGradient>
    <radialGradient id="shape_60_fill" cx="0.5489614243323442" cy="0.9977578475336323" r="0.06617211022079875">
      <stop offset="0.0" stop-color="rgb(140, 131, 64)" stop-opacity="1.0"/>
      <stop offset="1.0" stop-color="rgb(230, 195, 92)" stop-opacity="0.8737756013870239"/>
    </radialGradient>
    <radialGradient id="shape_61_fill" cx="0.6469716601272719" cy="0.96866973740103" r="0.06610439651443979">
      <stop offset="0.463088" stop-color="rgb(241, 186, 61)" stop-opacity="0.9237059950828552"/>
      <stop offset="0.21278743" stop-color="rgb(144, 67, 81)" stop-opacity="0.4309532940387726"/>
    </radialGradient>
    <radialGradient id="shape_62_fill" cx="0.615727002967359" cy="0.3991031390134529" r="0.06617211022079875">
      <stop offset="0.0" stop-color="rgb(55, 47, 13)" stop-opacity="1.0"/>
      <stop offset="1.0" stop-color="rgb(83, 52, 6)" stop-opacity="0.8551414608955383"/>
    </radialGradient>
    <radialGradient id="shape_63_fill" cx="0.6261127596439169" cy="0.7286995515695067" r="0.06617211022079875">
      <stop offset="0.0" stop-color="rgb(79, 66, 32)" stop-opacity="1.0"/>
      <stop offset="1.0" stop-color="rgb(199, 187, 92)" stop-opacity="0.5005830526351929"/>
    </radialGradient>
    <radialGradient id="shape_64_fill" cx="0.40801186943620177" cy="0.12556053811659193" r="0.06617211022079875">
      <stop offset="0.0" stop-color="rgb(76, 66, 59)" stop-opacity="1.0"/>
      <stop offset="1.0" stop-color="rgb(155, 120, 122)" stop-opacity="1.0"/>
    </radialGradient>
    <radialGradient id="shape_65_fill" cx="0.6528189910979229" cy="0.6883408071748879" r="0.06617211022079875">
      <stop offset="0.0" stop-color="rgb(121, 97, 39)" stop-opacity="1.0"/>
      <stop offset="1.0" stop-color="rgb(255, 217, 93)" stop-opacity="1.0"/>
    </radialGradient>
    <radialGradient id="shape_66_fill" cx="0.6520902820440003" cy="0.4574627726601913" r="0.07076256070009679">
      <stop offset="0.25531945" stop-color="rgb(184, 213, 115)" stop-opacity="0.29867908358573914"/>
      <stop offset="0.76107997" stop-color="rgb(0, 16, 0)" stop-opacity="0.05409161373972893"/>
    </radialGradient>
    <radialGradient id="shape_67_fill" cx="0.5979207658626206" cy="0.9948237808295964" r="0.0709877976324155">
      <stop offset="0.8362689" stop-color="rgb(49, 27, 0)" stop-opacity="0.6140771508216858"/>
      <stop offset="1.0" stop-color="rgb(0, 27, 0)" stop-opacity="0.15345121920108795"/>
    </radialGradient>
    <radialGradient id="shape_68_fill" cx="0.49268710082645584" cy="0.9979822817404709" r="0.06864666019066151">
      <stop offset="0.39561272" stop-color="rgb(40, 12, 0)" stop-opacity="0.42470765113830566"/>
      <stop offset="1.0" stop-color="rgb(27, 64, 52)" stop-opacity="0.1758866161108017"/>
    </radialGradient>
  </defs>
  <g>
    <path d="M 0.02060624584555626 271.4233093261719 C 16.015520095825195 254.97747802734375 47.30705261230469 257.3821716308594 47.17865753173828 270.88861083984375 C 48.317344665527344 272.78277587890625 49.320404052734375 276.1900329589844 57.1961555480957 274.67523193359375 C 57.224769592285156 273.8708801269531 61.909549713134766 273.3553161621094 62.338661193847656 268.9251403808594 C 68.3398208618164 267.75640869140625 100.6502685546875 268.97760009765625 116.764404296875 269.28594970703125 C 119.4249496459961 271.67388916015625 125.21259307861328 278.1664733886719 126.62779998779297 282.3811950683594 C 134.7349853515625 282.7964172363281 147.88063049316406 280.6075134277344 176.1153564453125 290.8559875488281 C 185.31997680664062 283.14215087890625 186.07383728027344 281.29071044921875 206.70729064941406 287.24017333984375 C 200.61683654785156 286.83917236328125 198.39852905273438 280.8960266113281 211.1687774658203 267.7325134277344 C 250.09841918945312 264.7393493652344 294.2328796386719 262.47222900390625 310.93951416015625 272.653564453125 C 348.5237731933594 274.13873291015625 423.615234375 274.63482666015625 481.13201904296875 262.958740234375 C 512.3735961914062 257.6979064941406 548.9625854492188 258.89520263671875 548.4794921875 273.810546875 C 547.0150146484375 273.7745056152344 547.0784912109375 262.42047119140625 578.3345336914062 262.5799865722656 C 597.7257080078125 266.8687744140625 612.2924194335938 279.0146179199219 612.36865234375 279.8030700683594 C 611.7890014648438 265.7380676269531 623.9075317382812 265.2459716796875 673.4222412109375 265.708740234375 C 676.7789306640625 272.28851318359375 679.37158203125 278.8263854980469 678.4677124023438 284.9035339355469 C 676.6203002929688 339.5308532714844 674.7125244140625 391.48626708984375 675.1177368164062 446.4668273925781 C 451.9151306152344 446.6697692871094 228.9889373779297 446.8115539550781 -0.4355681538581848 446.4240417480469 C -0.5172194838523865 389.140869140625 -0.8077458143234253 332.2590026855469 0.02060624584555626 271.4233093261719" stroke-width="0.0" fill="url(#shape_0_fill)"/>
    <path d="M -0.26930269598960876 270.94793701171875 C 35.93415069580078 275.3900451660156 36.5576057434082 274.58306884765625 43.992252349853516 273.1367492675781 C 44.42765426635742 265.8546142578125 58.21291732788086 265.60882568359375 81.31261444091797 266.28228759765625 C 113.74601745605469 278.67987060546875 114.089111328125 279.3109130859375 128.26071166992188 279.15118408203125 C 127.73763275146484 269.91778564453125 134.74208068847656 269.1549377441406 144.74607849121094 269.6016845703125 C 185.2478485107422 268.7971496582031 186.12582397460938 268.906982421875 205.95877075195312 271.6981201171875 C 203.67308044433594 292.16412353515625 204.37493896484375 292.3174133300781 208.68658447265625 298.88128662109375 C 213.69032287597656 298.2141418457031 268.13482666015625 298.6269226074219 293.0749816894531 301.1338806152344 C 305.02960205078125 306.948974609375 440.7202453613281 303.85186767578125 460.226318359375 304.6083679199219 C 473.7996826171875 293.018798828125 493.11431884765625 293.2486267089844 504.55029296875 286.9297180175781 C 516.4620361328125 289.40423583984375 521.3343505859375 286.87274169921875 523.272216796875 286.62078857421875 C 527.3749389648438 285.7632751464844 531.6781616210938 286.0263671875 533.9420166015625 287.2582092285156 C 538.7491455078125 287.60113525390625 540.2479248046875 288.9330749511719 538.6021728515625 311.2203369140625 C 579.6998901367188 292.25640869140625 581.6415405273438 292.79083251953125 601.5313720703125 299.3412780761719 C 620.5354614257812 289.3944396972656 629.7493286132812 288.2034912109375 633.7423706054688 288.4835205078125 C 636.8632202148438 274.6399230957031 654.2863159179688 275.2945251464844 673.62158203125 294.18829345703125 C 674.4669799804688 339.75982666015625 674.5181884765625 392.0562744140625 674.1581420898438 446.2807922363281 C 451.4774169921875 446.3905334472656 229.19664001464844 446.25439453125 -0.30765825510025024 446.2476501464844 C -0.21067629754543304 389.403564453125 -0.3105700612068176 333.0142822265625 -0.26930269598960876 270.94793701171875" stroke-width="0.0" fill="url(#shape_1_fill)"/>
    <path d="M -0.019932541996240616 -0.25989267230033875 C 219.69313049316406 0.1040392518043518 439.478759765625 -0.45242562890052795 674.6580810546875 -0.021490944549441338 C 665.7761840820312 10.587442398071289 645.0496215820312 34.88568878173828 637.23779296875 49.64439010620117 C 634.4599609375 53.02122116088867 612.0292358398438 91.69193267822266 583.9962158203125 83.84452819824219 C 576.893310546875 81.25534057617188 564.6832275390625 72.1310806274414 532.3258056640625 74.3045425415039 C 531.9244995117188 79.57752990722656 528.1316528320312 80.39791107177734 522.0563354492188 72.03223419189453 C 522.7047119140625 68.9256820678711 499.3370666503906 63.90806198120117 498.9144287109375 62.590003967285156 C 493.3434143066406 62.266082763671875 486.1405029296875 61.113929748535156 484.3544921875 68.81672668457031 C 475.26556396484375 72.86299133300781 476.3216552734375 76.1285629272461 476.7119445800781 80.92044830322266 C 483.21685791015625 100.53509521484375 480.5306701660156 120.17276000976562 481.0521545410156 123.13705444335938 C 460.3088684082031 116.80486297607422 459.3106689453125 114.86768341064453 450.90618896484375 108.54145050048828 C 435.3826599121094 107.43701934814453 411.77606201171875 101.63914489746094 409.32452392578125 105.51830291748047 C 412.93939208984375 122.04270935058594 419.6958312988281 129.24191284179688 413.1462097167969 139.3385009765625 C 411.1130065917969 152.71214294433594 394.4945373535156 152.17027282714844 394.5758056640625 135.4672088623047 C 382.92431640625 139.49118041992188 382.063232421875 158.2284393310547 370.7513427734375 157.77313232421875 C 366.1485900878906 156.3028564453125 363.2106018066406 158.93435668945312 353.81671142578125 158.31051635742188 C 348.1295471191406 163.6375274658203 345.5353088378906 165.32618713378906 347.6336975097656 171.43019104003906 C 343.5811767578125 177.14041137695312 341.89990234375 176.12396240234375 351.2900695800781 159.65469360351562 C 292.62823486328125 155.14990234375 292.04779052734375 161.59788513183594 290.6527099609375 170.95140075683594 C 306.272216796875 185.753173828125 304.15948486328125 189.17735290527344 307.5167236328125 201.38584899902344 C 307.570068359375 200.5947723388672 306.40179443359375 198.132080078125 304.8691711425781 190.24607849121094 C 304.0484619140625 185.67379760742188 302.7269287109375 184.4407958984375 291.2247314453125 171.06800842285156 C 289.8614807128906 194.54388427734375 288.9991149902344 195.95974731445312 289.38031005859375 196.30372619628906 C 289.36444091796875 189.92703247070312 291.61126708984375 181.68898010253906 290.65093994140625 165.57350158691406 C 270.1937255859375 168.275390625 265.5658264160156 175.21487426757812 262.03668212890625 173.14048767089844 C 256.3357238769531 184.25502014160156 255.94638061523438 189.3958282470703 254.7997589111328 197.11668395996094 C 260.6201171875 199.25222778320312 260.48583984375 199.89535522460938 258.0673828125 199.54505920410156 C 257.1021728515625 198.44789123535156 253.91873168945312 196.5035858154297 255.4271240234375 193.88235473632812 C 255.81175231933594 181.20709228515625 262.5179748535156 179.5585479736328 263.79327392578125 161.6850128173828 C 262.2197265625 157.54238891601562 215.6581268310547 143.74949645996094 212.26412963867188 142.66741943359375 C 187.22186279296875 134.7919921875 195.47108459472656 106.37142944335938 191.218994140625 86.24614715576172 C 190.8199005126953 84.65580749511719 162.90719604492188 74.52564239501953 128.78111267089844 57.867530822753906 C 99.78598022460938 38.7454948425293 76.30635833740234 58.94734191894531 47.667510986328125 57.109413146972656 C 29.947629928588867 70.47589874267578 1.6685675382614136 69.9542465209961 -0.8582819700241089 69.42748260498047 C 0.34183040261268616 43.958133697509766 -0.3314551115036011 22.56187629699707 -0.019932541996240616 -0.25989267230033875" stroke-width="0.0" fill="url(#shape_2_fill)"/>
    <path d="M 87.24970245361328 58.03764343261719 C 88.83905029296875 68.82177734375 91.74382019042969 68.97380828857422 93.79843139648438 71.97380065917969 C 89.9417953491211 80.03124237060547 93.07997131347656 81.79191589355469 88.96629333496094 94.29378509521484 C 95.80864715576172 85.84232330322266 98.13671875 86.51695251464844 102.8880615234375 87.75414276123047 C 105.11101531982422 75.12714385986328 105.60357666015625 73.24180603027344 108.1722640991211 73.64823913574219 C 112.72727966308594 86.55731201171875 109.73380279541016 92.28639221191406 117.56478881835938 98.66159057617188 C 115.85832214355469 100.03515625 116.9628677368164 109.5407485961914 115.42240142822266 115.0872573852539 C 120.56663513183594 115.31053161621094 128.050537109375 116.287841796875 129.78404235839844 112.09052276611328 C 131.1635284423828 111.13741302490234 136.9981231689453 109.78722381591797 136.8225860595703 105.06616973876953 C 136.70033264160156 103.71821594238281 135.6026611328125 101.9275131225586 138.12298583984375 100.09635162353516 C 136.56704711914062 93.28658294677734 137.61541748046875 92.94190979003906 137.792724609375 90.02996826171875 C 137.34715270996094 85.54447937011719 138.5311737060547 85.09778594970703 140.18527221679688 89.28587341308594 C 140.81893920898438 83.3342514038086 146.72714233398438 80.07818603515625 148.5865936279297 79.18318939208984 C 148.15975952148438 93.2963638305664 149.58941650390625 94.55302429199219 152.5334014892578 99.68975067138672 C 153.9962921142578 102.5313949584961 149.84243774414062 106.82959747314453 148.88885498046875 106.78272247314453 C 152.30503845214844 109.41788482666016 149.9810333251953 113.91780853271484 148.16697692871094 113.18168640136719 C 154.0889892578125 112.95793151855469 158.19625854492188 122.59978485107422 156.98867797851562 123.40116119384766 C 160.72247314453125 124.77922821044922 164.7493438720703 123.42017364501953 169.7265625 122.85143280029297 C 174.3995819091797 119.73584747314453 175.79029846191406 121.50775909423828 177.6033172607422 122.46531677246094 C 179.30783081054688 122.73660278320312 180.1164093017578 124.95037078857422 183.68556213378906 127.15657806396484 C 183.92430114746094 130.03079223632812 182.6896514892578 132.72117614746094 185.93356323242188 134.3670654296875 C 188.7386016845703 135.49037170410156 190.16017150878906 137.32765197753906 187.5265350341797 143.83419799804688 C 197.49667358398438 148.95794677734375 208.84005737304688 153.36387634277344 201.61097717285156 172.64480590820312 C 205.61947631835938 177.20407104492188 206.48028564453125 179.38076782226562 205.146240234375 181.53436279296875 C 213.55258178710938 181.05787658691406 215.13436889648438 192.9197998046875 212.72146606445312 200.86483764648438 C 204.3272247314453 205.78656005859375 202.85047912597656 206.0272674560547 203.50369262695312 210.08387756347656 C 200.39666748046875 210.39292907714844 200.39987182617188 211.84091186523438 198.77760314941406 212.94107055664062 C 196.50582885742188 215.52835083007812 192.776611328125 215.2481689453125 192.18374633789062 219.71470642089844 C 184.29873657226562 220.55941772460938 183.67030334472656 224.7836151123047 178.19650268554688 230.15232849121094 C 176.42776489257812 233.38565063476562 181.7716827392578 237.66160583496094 181.5037078857422 238.203857421875 C 181.63104248046875 251.94805908203125 185.683837890625 260.747802734375 179.87892150878906 264.1353454589844 C 168.7483673095703 270.3518981933594 148.32080078125 267.5279541015625 136.12130737304688 269.55316162109375 C 131.5511932373047 268.8837585449219 128.92686462402344 272.2729797363281 122.89192962646484 275.46551513671875 C 109.15978240966797 276.57244873046875 73.35086822509766 275.864501953125 72.9876708984375 270.13275146484375 C 47.76850128173828 266.80377197265625 56.6068000793457 268.5933837890625 58.376220703125 273.2986755371094 C 48.79902267456055 276.7232971191406 1.0644913911819458 272.6965026855469 0.7538129687309265 269.8334655761719 C -6.622299671173096 226.21624755859375 -4.737865924835205 168.21060180664062 1.9515693187713623 122.31819915771484 C 10.39306354522705 117.70455932617188 21.332246780395508 113.96826171875 26.206764221191406 121.85449981689453 C 27.72342300415039 130.01220703125 35.92129135131836 129.12222290039062 42.096458435058594 131.9315948486328 C 46.12043762207031 130.3553924560547 47.334136962890625 131.3943328857422 49.72186279296875 142.18106079101562 C 50.77841567993164 149.51837158203125 60.97734451293945 148.44766235351562 62.66951370239258 146.312255859375 C 62.13832473754883 137.0006866455078 63.19448471069336 134.14881896972656 62.06608963012695 128.27928161621094 C 68.177978515625 126.59152221679688 67.66617584228516 124.41018676757812 66.32937622070312 112.66063690185547 C 68.8897705078125 111.14761352539062 67.95707702636719 103.5349349975586 75.4071273803711 100.8326644897461 C 74.93283081054688 100.49407958984375 77.67029571533203 89.72024536132812 77.37842559814453 85.96859741210938 C 77.27640533447266 82.90662384033203 77.4747314453125 75.2709732055664 85.22964477539062 75.3288345336914 C 83.17304992675781 70.2704086303711 82.65282440185547 67.55326080322266 87.24970245361328 58.03764343261719" stroke-width="0.0" fill="url(#shape_3_fill)"/>
    <path d="M 673.937255859375 -0.5185816287994385 C 676.120361328125 47.823177337646484 675.0172119140625 95.90821075439453 682.07568359375 136.14694213867188 C 679.1673583984375 119.20439910888672 673.9293823242188 119.68736267089844 662.1105346679688 120.02735900878906 C 660.1172485351562 119.55401611328125 654.5695190429688 109.62199401855469 650.3490600585938 110.96720123291016 C 649.0171508789062 112.55703735351562 645.0467529296875 150.43829345703125 642.9000854492188 155.66285705566406 C 629.8864135742188 154.8993377685547 627.2015380859375 142.65895080566406 626.9696655273438 138.4863739013672 C 623.0078125 137.4496307373047 619.2207641601562 145.44241333007812 615.3976440429688 144.5430145263672 C 611.6814575195312 142.30897521972656 610.1654663085938 143.31224060058594 607.8058471679688 141.00506591796875 C 608.9315795898438 136.8607177734375 614.2178344726562 131.5426025390625 601.9241943359375 112.05158233642578 C 599.04345703125 135.45870971679688 597.755615234375 139.5318145751953 593.1278076171875 142.58192443847656 C 599.0940551757812 145.8280792236328 598.35986328125 151.41065979003906 597.4398193359375 152.68609619140625 C 587.4847412109375 157.59849548339844 588.513671875 164.73020935058594 578.209228515625 172.66604614257812 C 572.3130493164062 170.19488525390625 569.6109008789062 157.90823364257812 568.886962890625 157.4727325439453 C 565.3894653320312 157.96957397460938 563.1363525390625 154.76348876953125 561.9921875 148.1665802001953 C 560.0354614257812 151.10134887695312 556.7255249023438 151.1868133544922 555.5208129882812 155.40452575683594 C 552.372802734375 155.8409881591797 550.8316040039062 158.0260772705078 549.117919921875 158.23619079589844 C 547.714111328125 154.9873504638672 544.7680053710938 154.61390686035156 535.8173828125 152.60592651367188 C 531.9332885742188 154.9678497314453 529.8384399414062 159.26168823242188 523.1465454101562 156.9867401123047 C 519.2490844726562 160.5264892578125 520.3309936523438 162.1514892578125 522.8301391601562 168.94952392578125 C 517.6307373046875 168.4915771484375 517.340576171875 171.0894012451172 516.2435913085938 171.61444091796875 C 511.2713623046875 173.32232666015625 509.8157043457031 175.26531982421875 505.646728515625 174.399169921875 C 502.7337341308594 171.41722106933594 503.07806396484375 169.50335693359375 502.9736633300781 159.35244750976562 C 488.5937194824219 142.93775939941406 503.3829040527344 118.51451110839844 515.3912353515625 124.82174682617188 C 524.638671875 125.89669799804688 542.8572387695312 108.58755493164062 548.7940673828125 112.87088775634766 C 557.1279296875 110.74185180664062 557.0601196289062 109.41002655029297 558.586669921875 108.93142700195312 C 559.551025390625 107.31266021728516 564.78076171875 103.44876861572266 570.0494995117188 105.04767608642578 C 574.688232421875 102.4552230834961 573.6132202148438 97.77112579345703 579.0738525390625 93.85001373291016 C 588.7269897460938 87.92278289794922 590.932861328125 78.18989562988281 612.3854370117188 78.54559326171875 C 616.912353515625 73.61051177978516 644.2789306640625 51.295677185058594 645.9688110351562 35.32868957519531 C 644.8631591796875 32.388248443603516 647.960205078125 30.37250328063965 647.4299926757812 29.4486026763916 C 646.891357421875 28.285396575927734 664.1553955078125 -4.290543556213379 673.937255859375 -0.5185816287994385" stroke-width="0.0" fill="url(#shape_4_fill)"/>
    <path d="M 151.4716339111328 68.65848541259766 C 152.30421447753906 69.09109497070312 186.140869140625 84.96626281738281 192.78810119628906 91.4211654663086 C 179.2996826171875 117.96719360351562 217.85504150390625 149.9073944091797 221.2529754638672 154.55648803710938 C 240.7027587890625 168.88006591796875 242.39381408691406 182.66415405273438 240.5242919921875 193.8468475341797 C 237.9757843017578 193.20770263671875 236.0740203857422 186.84576416015625 236.77261352539062 184.06568908691406 C 235.68948364257812 183.51878356933594 234.15377807617188 184.3151092529297 231.0468292236328 182.66439819335938 C 231.91929626464844 184.65823364257812 232.2230987548828 192.8173370361328 228.65829467773438 195.66822814941406 C 227.64541625976562 196.6387481689453 227.703125 205.2094268798828 221.09068298339844 207.64456176757812 C 215.07815551757812 206.5746307373047 214.2701416015625 197.8854522705078 214.5559844970703 195.045654296875 C 212.953369140625 185.45155334472656 211.89175415039062 184.96139526367188 206.57656860351562 177.4217071533203 C 205.78500366210938 172.6512451171875 206.28317260742188 168.45236206054688 204.2210693359375 159.51719665527344 C 205.62384033203125 153.86480712890625 194.91090393066406 144.58956909179688 193.61099243164062 141.05189514160156 C 189.26287841796875 139.8311767578125 189.14329528808594 135.94972229003906 186.74440002441406 135.90785217285156 C 177.5411834716797 134.10313415527344 178.3895263671875 127.6886978149414 183.53761291503906 117.1990737915039 C 179.39083862304688 116.40119934082031 177.40130615234375 117.66731262207031 172.95492553710938 117.76347351074219 C 179.0076904296875 128.1278076171875 177.3886260986328 131.13206481933594 152.329345703125 130.30398559570312 C 148.85601806640625 129.47747802734375 152.4771728515625 102.71843719482422 154.2437744140625 92.89991760253906 C 152.84703063964844 91.58524322509766 152.8257598876953 87.69532775878906 150.3863525390625 76.22925567626953 C 147.93118286132812 75.8879165649414 147.92820739746094 69.17790985107422 151.4716339111328 68.65848541259766" stroke-width="0.0" fill="url(#shape_5_fill)"/>
    <path d="M 614.6343383789062 79.06255340576172 C 618.7888793945312 83.85308837890625 620.4122314453125 87.15693664550781 632.8325805664062 85.92774963378906 C 635.9782104492188 86.23788452148438 636.950927734375 88.74935913085938 641.1529541015625 89.24125671386719 C 642.1914672851562 86.6540756225586 665.156982421875 92.49689483642578 675.0308227539062 98.2252426147461 C 675.4066162109375 110.61923217773438 674.7958984375 125.90557098388672 674.719970703125 151.7550506591797 C 665.6868896484375 142.77735900878906 662.6748046875 136.75401306152344 660.3677368164062 132.143798828125 C 660.4244384765625 123.76642608642578 661.099853515625 118.1734619140625 653.7640380859375 112.29004669189453 C 642.2661743164062 113.80516052246094 643.70849609375 142.22686767578125 643.036865234375 142.84986877441406 C 644.416259765625 144.40164184570312 642.35107421875 148.15994262695312 644.5537109375 149.88201904296875 C 640.152587890625 151.02052307128906 637.935791015625 152.75091552734375 634.2381591796875 153.5183563232422 C 631.807373046875 146.14874267578125 629.167724609375 141.3978729248047 630.0186157226562 140.56082153320312 C 628.6234130859375 137.04014587402344 622.3667602539062 136.482421875 621.2318115234375 139.17051696777344 C 618.7360229492188 140.71102905273438 619.2825317382812 142.52188110351562 618.4049682617188 149.69622802734375 C 613.3948974609375 144.7727508544922 613.0498657226562 143.2353973388672 609.3716430664062 143.72476196289062 C 608.450439453125 140.4070281982422 609.507568359375 139.24058532714844 608.69677734375 137.39996337890625 C 606.2241821289062 132.87603759765625 604.4534301757812 127.41816711425781 600.920654296875 127.83386993408203 C 606.2877807617188 133.7939910888672 595.6748046875 148.45361328125 592.5594482421875 152.2863006591797 C 590.5487670898438 163.75375366210938 588.7918701171875 163.86642456054688 586.0099487304688 169.05055236816406 C 584.527587890625 167.56349182128906 584.18310546875 167.3725128173828 589.2968139648438 153.2985382080078 C 593.5075073242188 141.21246337890625 590.3956909179688 139.4911346435547 574.6753540039062 129.23011779785156 C 574.0908203125 157.83819580078125 557.61328125 157.5146484375 555.96533203125 151.0598907470703 C 555.784912109375 152.85816955566406 553.062255859375 154.69464111328125 553.0159301757812 157.8832550048828 C 551.4395751953125 161.27969360351562 548.1214599609375 161.17291259765625 547.3513793945312 159.331298828125 C 544.4566650390625 156.3426513671875 542.7291870117188 153.7548370361328 538.5989990234375 155.7631378173828 C 536.5648193359375 158.5941925048828 530.989013671875 157.887451171875 529.1185913085938 158.1690673828125 C 526.7205200195312 159.59173583984375 526.9126586914062 163.57167053222656 525.5974731445312 166.8351287841797 C 524.7208862304688 169.5863800048828 523.63916015625 171.6122589111328 519.0479736328125 173.051025390625 C 515.4404907226562 172.8734893798828 503.46014404296875 171.92225646972656 480.93817138671875 160.79278564453125 C 477.813232421875 136.3839111328125 500.40185546875 120.20454406738281 514.4375 118.32122039794922 C 528.052001953125 127.8043441772461 541.6827392578125 108.2168960571289 547.9080810546875 111.60061645507812 C 556.6112670898438 111.60633850097656 563.1185302734375 111.94405364990234 564.4906005859375 107.12860107421875 C 564.6265869140625 104.41968536376953 566.4686279296875 103.38272857666016 569.8806762695312 104.7917709350586 C 572.456787109375 101.05382537841797 579.0543212890625 99.89348602294922 587.1104125976562 98.43041229248047 C 601.0252685546875 93.64603424072266 602.9287719726562 79.89299774169922 614.6343383789062 79.06255340576172" stroke-width="0.0" fill="url(#shape_6_fill)"/>
    <path d="M 0.7011268734931946 91.3134536743164 C 43.243377685546875 106.80548858642578 43.821842193603516 117.61156463623047 50.508766174316406 138.7972412109375 C 82.22713470458984 152.8232879638672 55.4517707824707 213.4897003173828 36.24800491333008 247.1136474609375 C 50.596046447753906 259.28692626953125 49.4169807434082 263.8121337890625 48.31599044799805 265.6220703125 C 51.4673957824707 254.19635009765625 36.25440979003906 247.23512268066406 21.419227600097656 239.7281494140625 C 6.914412498474121 194.19044494628906 -12.21584701538086 178.58982849121094 0.7011268734931946 91.3134536743164" stroke-width="0.0" fill="url(#shape_7_fill)"/>
    <path d="M 384.56805419921875 197.1567840576172 C 424.88043212890625 188.6095733642578 426.907470703125 188.9812774658203 429.80010986328125 204.26869201660156 C 477.4057312011719 188.0392608642578 498.8858642578125 202.21551513671875 491.1549987792969 229.3862762451172 C 490.97509765625 250.5022430419922 486.3203125 251.52476501464844 484.9394226074219 252.50872802734375 C 486.4931945800781 259.1499328613281 482.4775390625 268.7727355957031 476.3860778808594 268.5893859863281 C 469.04437255859375 272.931640625 453.2210388183594 266.7112731933594 451.6443176269531 269.7353210449219 C 447.2093811035156 266.30706787109375 448.4521789550781 261.251708984375 449.2486572265625 260.2067565917969 C 439.304443359375 264.9303283691406 436.5353088378906 261.568359375 437.6090393066406 256.66864013671875 C 427.03955078125 256.9792175292969 425.7115478515625 259.9682312011719 420.87664794921875 262.0188903808594 C 418.49169921875 264.1777038574219 417.77874755859375 267.7734375 414.9734802246094 273.9470520019531 C 414.1080627441406 271.4250793457031 392.19744873046875 269.70037841796875 392.51361083984375 264.270263671875 C 391.8114013671875 265.1932678222656 388.80059814453125 263.49578857421875 385.2453918457031 264.382080078125 C 382.0887756347656 262.02789306640625 380.80059814453125 263.25543212890625 376.3902282714844 261.2534484863281 C 375.1593322753906 256.42547607421875 375.7403869628906 252.88870239257812 370.2757873535156 251.69654846191406 C 360.9255676269531 242.70726013183594 373.89654541015625 194.3187255859375 378.49896240234375 177.034912109375 C 385.0713195800781 171.78125 394.323486328125 176.91241455078125 384.56805419921875 197.1567840576172" stroke-width="0.0" fill="url(#shape_8_fill)"/>
    <path d="M 566.523681640625 157.1013641357422 C 567.8914184570312 159.0018310546875 568.12109375 166.62057495117188 569.3251953125 168.01759338378906 C 573.493408203125 169.49632263183594 573.6177978515625 171.06625366210938 577.5469360351562 174.39166259765625 C 581.9307250976562 172.94601440429688 583.9710693359375 174.56983947753906 583.7080688476562 179.472412109375 C 575.3968505859375 180.4751739501953 572.2987060546875 225.61126708984375 577.5694580078125 226.95603942871094 C 577.8932495117188 230.04702758789062 581.7479858398438 236.5603485107422 577.3389282226562 242.5457305908203 C 569.0594482421875 238.6580047607422 566.9368896484375 237.2242431640625 558.502197265625 247.2954864501953 C 553.0305786132812 249.2278594970703 499.87872314453125 255.29598999023438 485.1624755859375 250.93032836914062 C 486.8298645019531 250.4456787109375 488.6136779785156 241.35394287109375 497.8069152832031 231.44322204589844 C 486.0767822265625 227.097412109375 483.07330322265625 222.54345703125 482.824951171875 215.15817260742188 C 477.3595886230469 210.1765899658203 479.90887451171875 205.9671173095703 482.8898620605469 206.19912719726562 C 480.7598571777344 205.2225799560547 481.5332946777344 199.43524169921875 492.7181091308594 199.76011657714844 C 492.6501159667969 196.40753173828125 491.6086730957031 192.51889038085938 491.5914611816406 188.75599670410156 C 487.2864074707031 174.398681640625 487.831298828125 173.4063720703125 488.16046142578125 164.2131805419922 C 503.8570556640625 164.4854278564453 504.8822937011719 164.72512817382812 512.1528930664062 159.75320434570312 C 522.2008666992188 169.51181030273438 524.3236694335938 167.44126892089844 526.0111083984375 167.31222534179688 C 523.7814331054688 162.41302490234375 531.1610107421875 157.40631103515625 533.1246948242188 159.01255798339844 C 537.4467163085938 162.01722717285156 541.2462158203125 162.60499572753906 541.9647827148438 164.2110137939453 C 545.0708618164062 164.17437744140625 545.6046752929688 166.049560546875 550.0194702148438 166.96900939941406 C 549.02294921875 165.58596801757812 550.0172729492188 157.9202423095703 554.8944702148438 158.184326171875 C 557.8613891601562 161.0863494873047 563.0982055664062 157.99856567382812 566.523681640625 157.1013641357422" stroke-width="0.0" fill="url(#shape_9_fill)"/>
    <path d="M 561.4117431640625 156.81588745117188 C 565.1748046875 152.89700317382812 571.2890014648438 156.95913696289062 571.354248046875 174.0560302734375 C 572.5786743164062 169.06996154785156 576.4977416992188 169.03057861328125 579.5885620117188 174.074951171875 C 580.551513671875 178.1180419921875 578.916015625 187.3743438720703 580.3610229492188 190.94970703125 C 571.3897094726562 196.15853881835938 572.0726928710938 229.96792602539062 578.123779296875 230.9747772216797 C 576.083984375 231.16357421875 575.6327514648438 236.8740997314453 572.1342163085938 237.95924377441406 C 560.7427368164062 235.77423095703125 567.0641479492188 238.72276306152344 563.237548828125 247.60113525390625 C 549.6705932617188 253.1169891357422 501.29534912109375 249.20790100097656 500.2085266113281 251.92735290527344 C 491.263916015625 251.836669921875 488.0740051269531 237.30593872070312 498.96319580078125 231.75587463378906 C 486.6210021972656 224.9066925048828 481.9781799316406 219.29115295410156 481.94635009765625 214.7176971435547 C 475.762451171875 215.43157958984375 472.0591735839844 215.2975311279297 464.58270263671875 196.45370483398438 C 465.238037109375 175.2328643798828 481.05596923828125 174.1147918701172 482.56976318359375 195.27163696289062 C 489.7344665527344 198.00291442871094 494.8740539550781 184.94268798828125 496.6138000488281 182.96864318847656 C 495.29156494140625 178.86843872070312 497.5860900878906 177.68934631347656 500.1513671875 177.5276641845703 C 507.93701171875 179.19076538085938 516.5670776367188 181.775634765625 521.0709838867188 174.17405700683594 C 525.9053955078125 173.52967834472656 528.4872436523438 159.67947387695312 529.7138061523438 154.49191284179688 C 538.3253784179688 155.93565368652344 539.9849243164062 156.4842071533203 537.0704956054688 165.6797637939453 C 545.7471923828125 166.06358337402344 549.0638427734375 167.54339599609375 551.7091674804688 166.72210693359375 C 550.9420166015625 155.11410522460938 552.7100830078125 152.96812438964844 561.4117431640625 156.81588745117188" stroke-width="0.0" fill="url(#shape_10_fill)"/>
    <path d="M 443.5735168457031 108.77542114257812 C 452.1935119628906 114.09525299072266 453.9117126464844 115.6358871459961 463.1789855957031 106.4968032836914 C 467.16387939453125 113.60416412353516 469.5267028808594 112.83236694335938 488.79144287109375 107.47767639160156 C 489.47808837890625 124.43092346191406 488.7705383300781 125.26350402832031 492.33172607421875 130.46047973632812 C 493.3562927246094 132.22064208984375 493.34735107421875 135.598388671875 496.66229248046875 136.02821350097656 C 494.061767578125 136.0835723876953 492.9166259765625 138.95965576171875 490.39593505859375 142.1206512451172 C 483.99273681640625 139.19818115234375 482.6039733886719 141.72903442382812 481.1854553222656 142.66934204101562 C 468.8490295410156 136.50628662109375 467.0980224609375 134.80154418945312 465.51971435546875 134.58409118652344 C 464.2557373046875 133.45562744140625 461.0151672363281 134.28219604492188 460.2125244140625 133.583984375 C 461.8753662109375 131.9327850341797 481.0925598144531 141.12640380859375 500.87451171875 156.04249572753906 C 476.9183349609375 176.94285583496094 476.0480041503906 177.6645050048828 481.9768981933594 184.96258544921875 C 467.8609313964844 183.6035614013672 467.38006591796875 188.68601989746094 462.5362854003906 189.8854217529297 C 462.71392822265625 184.5595703125 461.3768005371094 172.8779754638672 460.7572326660156 157.74758911132812 C 449.52789306640625 182.32818603515625 447.0690612792969 183.45082092285156 439.76519775390625 183.08038330078125 C 439.0667419433594 183.8134765625 435.7713623046875 195.74017333984375 435.0077819824219 197.37025451660156 C 427.8305358886719 200.3465576171875 417.50018310546875 180.59130859375 417.6668395996094 179.8442840576172 C 416.9300842285156 180.12413024902344 399.0283508300781 181.33937072753906 398.3382263183594 174.9893035888672 C 394.1871337890625 172.82742309570312 389.7608642578125 177.05665588378906 379.45196533203125 174.65016174316406 C 382.6154479980469 157.65306091308594 379.5813903808594 152.0884552001953 392.2280578613281 138.80612182617188 C 398.634765625 138.94842529296875 399.9251708984375 130.38186645507812 403.1585693359375 119.77190399169922 C 406.32427978515625 98.99790954589844 423.7739562988281 101.6060791015625 443.5735168457031 108.77542114257812" stroke-width="0.0" fill="url(#shape_11_fill)"/>
    <path d="M 602.8921508789062 127.66075134277344 C 605.4528198242188 130.76734924316406 605.326416015625 143.3597412109375 606.8671264648438 145.5684814453125 C 610.7040405273438 146.26846313476562 610.67431640625 152.04241943359375 619.8126831054688 154.28990173339844 C 618.0594482421875 149.7698516845703 617.2913208007812 141.84805297851562 623.1098022460938 141.0500946044922 C 623.6217041015625 137.37612915039062 625.3919677734375 137.29881286621094 627.1923217773438 140.31805419921875 C 627.0530395507812 142.22903442382812 628.8538818359375 144.85427856445312 629.04296875 147.22328186035156 C 632.0739135742188 149.79139709472656 631.674072265625 151.2600860595703 635.729736328125 153.72250366210938 C 642.23876953125 154.05784606933594 641.959716796875 160.15835571289062 650.030517578125 174.79490661621094 C 639.6061401367188 186.32386779785156 640.4794921875 195.17428588867188 640.9918212890625 204.78671264648438 C 663.0513916015625 205.9690704345703 663.7673950195312 244.1017608642578 642.5853271484375 245.35440063476562 C 622.0074462890625 247.9086151123047 611.0111694335938 248.8018035888672 579.0237426757812 265.168701171875 C 575.2132568359375 253.27484130859375 581.2805786132812 229.68832397460938 572.0624389648438 214.67868041992188 C 568.0211181640625 208.63194274902344 571.3402099609375 168.86732482910156 583.90625 169.71539306640625 C 596.7885131835938 163.11181640625 599.9734497070312 143.1434326171875 600.3101196289062 142.30564880371094 C 595.9173583984375 140.02052307128906 596.1328735351562 137.4468994140625 602.8921508789062 127.66075134277344" stroke-width="0.0" fill="url(#shape_12_fill)"/>
    <path d="M 412.480224609375 176.58551025390625 C 418.5450744628906 174.62486267089844 435.06854248046875 213.7941436767578 428.58148193359375 219.878662109375 C 419.7397155761719 228.95201110839844 427.6407775878906 236.64822387695312 431.90167236328125 241.23779296875 C 429.6432800292969 260.4822082519531 417.2364807128906 272.2721862792969 411.5498046875 267.28582763671875 C 407.0220947265625 264.9028015136719 401.532958984375 271.9355773925781 391.79888916015625 268.35797119140625 C 385.6687316894531 264.9324645996094 382.63134765625 266.01739501953125 378.4369201660156 265.58612060546875 C 373.1373596191406 266.6863708496094 371.7997131347656 262.2593994140625 374.24462890625 258.2700500488281 C 376.05926513671875 256.35162353515625 374.6645202636719 254.6688690185547 375.03515625 253.84718322753906 C 370.8489990234375 255.9688262939453 368.8577880859375 252.03724670410156 367.8863830566406 252.04347229003906 C 360.49102783203125 248.02476501464844 366.5699157714844 229.44215393066406 367.1419677734375 222.42776489257812 C 369.7632141113281 218.6777801513672 371.4215087890625 202.42124938964844 384.5196228027344 202.00106811523438 C 378.6695556640625 193.3809051513672 379.6872253417969 191.69546508789062 389.9452209472656 191.64913940429688 C 390.6267395019531 177.380859375 392.6216735839844 176.76898193359375 412.480224609375 176.58551025390625" stroke-width="0.0" fill="url(#shape_13_fill)"/>
    <path d="M 507.0284118652344 66.66966247558594 C 506.8645324707031 67.91364288330078 509.7336120605469 75.55508422851562 514.125 90.84024047851562 C 532.0918579101562 79.62724304199219 535.887451171875 79.65605926513672 537.4198608398438 85.3922119140625 C 538.8746337890625 90.90391540527344 544.533935546875 90.28996276855469 545.0235595703125 91.17797088623047 C 545.5372314453125 92.74031829833984 556.1513671875 96.88343048095703 559.5731201171875 95.4858169555664 C 563.3001708984375 97.6023178100586 567.4010620117188 97.19893646240234 568.2420043945312 97.9832763671875 C 563.7015991210938 106.73756408691406 558.6795043945312 116.49774169921875 538.0986938476562 108.75173950195312 C 540.347412109375 112.16007995605469 540.1320190429688 115.391357421875 534.6390991210938 118.42650604248047 C 527.1971435546875 120.05905151367188 519.5513305664062 124.57283782958984 515.5867919921875 118.55449676513672 C 512.5398559570312 121.89961242675781 501.84808349609375 125.9587173461914 500.72882080078125 127.3817138671875 C 498.17633056640625 129.83114624023438 494.2585754394531 129.4221649169922 490.04156494140625 126.23837280273438 C 489.00897216796875 116.81305694580078 468.86358642578125 118.18170928955078 468.1624755859375 117.40202331542969 C 463.5230712890625 117.84580993652344 462.91656494140625 116.64502716064453 461.9856872558594 116.31365203857422 C 471.77911376953125 120.90010070800781 474.91162109375 116.43055725097656 477.9109802246094 113.8344955444336 C 468.1582336425781 102.19059753417969 470.18682861328125 89.73026275634766 474.2796630859375 81.76122283935547 C 474.58587646484375 70.9324722290039 475.3385009765625 70.38485717773438 476.9580993652344 65.93567657470703 C 478.253662109375 63.559242248535156 482.3456115722656 63.64623260498047 483.9728088378906 63.41707992553711 C 495.1133728027344 63.192325592041016 504.1022033691406 61.5256233215332 507.0284118652344 66.66966247558594" stroke-width="0.0" fill="url(#shape_14_fill)"/>
    <path d="M 536.1488647460938 162.09060668945312 C 544.0504760742188 162.26072692871094 544.35107421875 163.0628204345703 546.5001220703125 165.0318145751953 C 549.8947143554688 167.50929260253906 549.7051391601562 170.16136169433594 542.7637329101562 183.41201782226562 C 544.6259155273438 192.49359130859375 535.6237182617188 229.342041015625 537.1425170898438 232.39979553222656 C 541.4119873046875 239.2394256591797 540.8582763671875 252.89768981933594 519.0465087890625 252.2296142578125 C 502.49847412109375 253.46278381347656 481.5377197265625 242.00506591796875 487.7547607421875 230.6459197998047 C 476.6087951660156 219.7777557373047 478.9016418457031 207.408203125 483.2594909667969 201.90191650390625 C 486.46234130859375 197.52357482910156 487.98016357421875 197.49066162109375 488.7587890625 199.31324768066406 C 482.7515563964844 195.4815673828125 488.7520446777344 184.83419799804688 487.35577392578125 174.0950469970703 C 487.67120361328125 167.36087036132812 489.5443115234375 166.4013214111328 490.94195556640625 167.0725555419922 C 505.4562683105469 178.93197631835938 511.3480224609375 184.1572723388672 522.78173828125 172.8199005126953 C 525.5776977539062 170.978271484375 525.2825317382812 167.1665496826172 526.0675048828125 165.0083770751953 C 525.2984619140625 160.2575225830078 528.068359375 158.26785278320312 536.1488647460938 162.09060668945312" stroke-width="0.0" fill="url(#shape_15_fill)"/>
    <path d="M 651.5633544921875 109.35530090332031 C 653.7611694335938 110.63259887695312 664.1131591796875 121.40071105957031 659.8709106445312 132.68063354492188 C 664.0380859375 136.07606506347656 664.5180053710938 143.92845153808594 673.210205078125 147.68353271484375 C 677.23974609375 179.1302490234375 673.8869018554688 210.8015899658203 676.2138671875 267.1133728027344 C 675.1182250976562 265.4674987792969 635.861572265625 272.95538330078125 631.0740356445312 264.0228576660156 C 635.966796875 244.79713439941406 643.790283203125 124.15972137451172 651.5633544921875 109.35530090332031" stroke-width="0.0" fill="url(#shape_16_fill)"/>
    <path d="M 601.4999389648438 128.21163940429688 C 604.1166381835938 128.23712158203125 605.4432373046875 131.69590759277344 606.3395385742188 134.06112670898438 C 608.9407958984375 135.1664581298828 607.0230712890625 141.46363830566406 609.181640625 143.92393493652344 C 628.9226684570312 143.31109619140625 632.8052978515625 216.0502471923828 632.7255249023438 272.2729797363281 C 579.3584594726562 277.1611328125 574.5121459960938 268.67333984375 580.198974609375 242.3936767578125 C 558.6641235351562 225.9793701171875 598.8905639648438 156.63629150390625 601.4999389648438 128.21163940429688" stroke-width="0.0" fill="url(#shape_17_fill)"/>
    <path d="M 320.3284606933594 186.0988311767578 C 321.47576904296875 186.37835693359375 321.61810302734375 189.23855590820312 321.3566589355469 200.0082244873047 C 331.34893798828125 193.60218811035156 332.0712890625 193.4660186767578 336.51251220703125 196.2794952392578 C 345.4015808105469 198.1704559326172 346.2552795410156 197.07177734375 357.2920227050781 189.97021484375 C 358.6398010253906 192.31643676757812 359.58819580078125 194.40792846679688 356.22979736328125 201.8494415283203 C 359.44769287109375 204.0086212158203 361.5859680175781 204.1605682373047 364.8167724609375 210.37039184570312 C 367.3151550292969 207.1224822998047 368.57342529296875 207.83782958984375 368.24798583984375 211.56773376464844 C 370.0645446777344 220.1219482421875 370.2978210449219 223.10232543945312 366.0970153808594 225.58990478515625 C 365.7679748535156 231.5131072998047 363.146728515625 238.67396545410156 368.34967041015625 248.754638671875 C 370.3643493652344 253.31253051757812 368.68475341796875 255.82522583007812 357.9730529785156 254.56248474121094 C 355.01611328125 255.87994384765625 324.3384094238281 254.91087341308594 322.5269470214844 255.42494201660156 C 313.2425537109375 255.94325256347656 311.9144287109375 253.90536499023438 308.9242858886719 245.80030822753906 C 303.7210998535156 228.9830780029297 320.9720764160156 195.69464111328125 320.3284606933594 186.0988311767578" stroke-width="0.0" fill="url(#shape_18_fill)"/>
    <path d="M 483.4767150878906 234.35406494140625 C 506.431884765625 252.5071563720703 515.7247314453125 263.83203125 495.418212890625 280.74566650390625 C 469.95928955078125 280.5195617675781 443.9300537109375 261.88360595703125 442.0488586425781 262.3055725097656 C 438.7230224609375 260.57965087890625 437.0033874511719 258.56024169921875 432.55267333984375 258.325439453125 C 429.79534912109375 258.50836181640625 428.51318359375 256.7380065917969 430.06719970703125 253.7976531982422 C 433.42449951171875 237.1791229248047 423.4143981933594 233.83248901367188 422.9618225097656 229.72816467285156 C 423.0733947753906 227.1400604248047 421.0660400390625 226.68182373046875 420.2685852050781 225.07183837890625 C 427.3756103515625 219.71133422851562 429.4571838378906 218.8199920654297 428.5755310058594 213.79689025878906 C 445.8846435546875 197.1301727294922 482.15966796875 196.1815643310547 483.4767150878906 234.35406494140625" stroke-width="0.0" fill="url(#shape_19_fill)"/>
    <path d="M 673.9451904296875 -2.9501876831054688 C 675.0673828125 32.84956741333008 674.5833740234375 64.76375579833984 674.6815185546875 97.29972839355469 C 669.31298828125 95.99333953857422 651.2579956054688 87.44815826416016 645.7650756835938 90.1060562133789 C 638.5794677734375 89.4802474975586 638.095703125 86.0683364868164 637.3215942382812 84.01383209228516 C 626.0607299804688 84.15044403076172 620.9913940429688 93.53164672851562 608.0526733398438 86.52901458740234 C 609.7252807617188 74.74441528320312 612.1809692382812 73.6435775756836 614.5048217773438 71.5350341796875 C 622.433837890625 68.79496002197266 648.80419921875 25.10662269592285 647.5250854492188 20.594982147216797 C 655.4742431640625 9.16120719909668 656.5907592773438 2.1689207553863525 668.9917602539062 3.3401613235473633 C 669.8301391601562 2.6949849128723145 670.0857543945312 1.050582766532898 673.9451904296875 -2.9501876831054688" stroke-width="0.0" fill="url(#shape_20_fill)"/>
    <path d="M 561.576904296875 156.11720275878906 C 569.7955932617188 156.56704711914062 570.3412475585938 161.03224182128906 572.0850219726562 166.0496063232422 C 581.434326171875 168.34524536132812 571.1422119140625 230.45103454589844 577.9805297851562 240.56590270996094 C 579.9210205078125 244.8930206298828 579.4998779296875 247.105712890625 577.939453125 271.0657043457031 C 535.4205322265625 270.4548645019531 531.2276611328125 267.7328186035156 537.3829345703125 248.55796813964844 C 545.9267578125 244.8004150390625 549.4540405273438 168.3792266845703 555.4223022460938 156.7954559326172 C 555.561767578125 152.6369171142578 559.932373046875 151.63510131835938 561.576904296875 156.11720275878906" stroke-width="0.0" fill="url(#shape_21_fill)"/>
    <path d="M 214.966064453125 210.38417053222656 C 234.96165466308594 208.29896545410156 238.61378479003906 240.32347106933594 225.0740966796875 257.5083923339844 C 211.36338806152344 262.8458557128906 208.99961853027344 263.4574890136719 208.85792541503906 273.0508728027344 C 205.79641723632812 275.28363037109375 206.73597717285156 277.05560302734375 205.52919006347656 279.37725830078125 C 206.64010620117188 282.78729248046875 202.88841247558594 285.76300048828125 202.0136260986328 284.89923095703125 C 202.444091796875 282.97149658203125 190.34681701660156 272.3384094238281 188.13375854492188 263.2877197265625 C 186.65213012695312 261.477783203125 184.01620483398438 263.2174987792969 181.4111328125 263.69580078125 C 181.0172119140625 261.25048828125 179.96707153320312 259.6357421875 178.45172119140625 251.65093994140625 C 178.9054718017578 247.7676544189453 168.9268341064453 242.3250732421875 170.68356323242188 238.65516662597656 C 175.21685791015625 213.58407592773438 177.17367553710938 212.930908203125 185.52435302734375 220.4489288330078 C 193.65383911132812 219.79412841796875 194.02745056152344 215.0431365966797 198.63546752929688 213.44131469726562 C 184.3802032470703 205.6400604248047 184.43386840820312 200.2890167236328 201.07156372070312 197.5325164794922 C 212.711669921875 192.6403350830078 214.97264099121094 194.86029052734375 214.966064453125 210.38417053222656" stroke-width="0.0" fill="url(#shape_22_fill)"/>
    <path d="M 111.72173309326172 426.1654052734375 C 112.74951934814453 429.28619384765625 111.05764770507812 431.2121887207031 110.65821838378906 431.3833312988281 C 104.96644592285156 432.6801452636719 103.22550964355469 433.80804443359375 91.96794128417969 433.0765686035156 C 89.77552032470703 435.9718933105469 95.6605224609375 446.421630859375 91.57784271240234 452.1399841308594 C 78.66380310058594 444.9972229003906 46.938175201416016 447.9271240234375 25.31360626220703 449.60931396484375 C 14.052139282226562 446.1693115234375 13.90745735168457 439.74334716796875 18.00247573852539 436.3277587890625 C 35.46030807495117 427.5934143066406 49.46281814575195 426.6625061035156 73.44612121582031 427.04632568359375 C 73.57023620605469 423.8476257324219 110.00920867919922 420.55963134765625 111.72173309326172 426.1654052734375" stroke-width="0.0" fill="url(#shape_23_fill)"/>
    <path d="M 198.70831298828125 121.31019592285156 C 211.11582946777344 115.34317016601562 224.8314208984375 133.16818237304688 220.16810607910156 141.78143310546875 C 216.29685974121094 147.8812255859375 218.54579162597656 150.38687133789062 220.2528533935547 154.7033233642578 C 228.22267150878906 158.63771057128906 247.56541442871094 175.4524383544922 244.76707458496094 199.00111389160156 C 239.1365509033203 199.59716796875 235.6775360107422 187.0312042236328 232.31753540039062 179.82041931152344 C 234.77096557617188 187.15411376953125 233.4436798095703 195.96266174316406 230.50723266601562 197.12994384765625 C 228.19227600097656 197.07180786132812 225.82489013671875 202.57884216308594 220.18801879882812 208.7168426513672 C 214.82159423828125 207.82452392578125 213.46853637695312 202.15936279296875 211.81491088867188 198.3716583251953 C 211.32481384277344 190.8811798095703 211.56741333007812 183.20408630371094 206.78927612304688 177.63624572753906 C 203.84385681152344 174.0517578125 204.89854431152344 172.99867248535156 205.7173309326172 168.060791015625 C 202.5723876953125 147.53756713867188 199.5218505859375 146.94122314453125 192.11109924316406 143.82553100585938 C 189.44009399414062 142.4139862060547 191.3530731201172 127.76338195800781 198.70831298828125 121.31019592285156" stroke-width="0.0" fill="url(#shape_24_fill)"/>
    <path d="M 589.8556518554688 401.4594421386719 C 601.6928100585938 405.0477600097656 629.732421875 404.19854736328125 638.3944702148438 410.1595458984375 C 636.4273071289062 424.5979309082031 631.5914306640625 427.6549072265625 629.3348999023438 426.0309753417969 C 630.5753784179688 427.8242492675781 636.146240234375 428.02850341796875 639.9548950195312 436.4750671386719 C 618.9223022460938 448.09814453125 578.9120483398438 438.59881591796875 572.3461303710938 434.89520263671875 C 567.6624755859375 427.3078918457031 573.8837280273438 419.58441162109375 577.1898193359375 412.804931640625 C 578.0734252929688 411.1158447265625 585.6945190429688 413.49444580078125 589.8556518554688 401.4594421386719" stroke-width="0.0" fill="url(#shape_25_fill)"/>
    <path d="M 142.88494873046875 66.99967193603516 C 144.01028442382812 68.7102279663086 149.080078125 67.89332580566406 149.70184326171875 68.8441390991211 C 148.8577117919922 70.91570281982422 150.42755126953125 71.83164978027344 149.48696899414062 73.96052551269531 C 151.04461669921875 74.51107788085938 150.1540069580078 78.73011016845703 149.37393188476562 92.8042221069336 C 151.720703125 93.02532196044922 154.77102661132812 95.40713500976562 152.98764038085938 104.13386535644531 C 153.19676208496094 107.72099304199219 155.0631561279297 108.52481079101562 155.76573181152344 111.0556640625 C 157.2278594970703 123.43791198730469 154.71932983398438 133.4739532470703 149.8384246826172 133.56387329101562 C 140.2106170654297 128.8307342529297 137.81442260742188 117.99600982666016 125.97406768798828 116.51190948486328 C 121.83113098144531 113.76250457763672 123.35782623291016 109.58771514892578 126.17613220214844 107.20856475830078 C 128.5436248779297 106.76248931884766 129.0269012451172 105.27606964111328 132.52540588378906 105.00491333007812 C 138.66680908203125 96.26675415039062 135.2928466796875 92.95536804199219 132.71958923339844 89.05252838134766 C 134.0462646484375 88.16557312011719 139.4451446533203 87.9786605834961 140.57362365722656 85.40333557128906 C 138.18978881835938 84.70556640625 138.85003662109375 78.03219604492188 139.9372100830078 77.35470581054688 C 144.01171875 76.41690826416016 143.0325469970703 71.13175964355469 142.88494873046875 66.99967193603516" stroke-width="0.0" fill="url(#shape_26_fill)"/>
    <path d="M 139.6009979248047 67.7663803100586 C 149.183837890625 66.77774810791016 149.49493408203125 67.89099884033203 148.76951599121094 77.38679504394531 C 150.5146942138672 78.29319763183594 151.1580352783203 80.77679443359375 154.94468688964844 85.28461456298828 C 150.0149688720703 90.35259246826172 155.08892822265625 95.89307403564453 150.94769287109375 105.24189758300781 C 152.7375030517578 106.0846176147461 153.6648712158203 109.77156829833984 155.47727966308594 112.99308013916016 C 152.97547912597656 115.90034484863281 157.69869995117188 122.07093048095703 153.28231811523438 126.39486694335938 C 152.47872924804688 132.01144409179688 151.3071746826172 133.1644744873047 147.58209228515625 134.62940979003906 C 142.078125 130.79266357421875 128.21295166015625 122.28629302978516 129.60203552246094 117.59782409667969 C 124.23204803466797 118.42955017089844 122.80848693847656 112.93628692626953 128.3905792236328 110.64678955078125 C 122.78602600097656 107.53970336914062 124.5416488647461 104.05913543701172 132.9731903076172 107.93190002441406 C 136.8529510498047 105.92388916015625 133.3118133544922 92.71295166015625 132.70082092285156 89.21102142333984 C 139.36676025390625 87.70243835449219 138.9218292236328 85.19635009765625 138.9949188232422 81.1339340209961 C 139.06478881835938 77.48895263671875 140.3616180419922 76.81303405761719 142.48898315429688 78.32637786865234 C 145.35781860351562 71.71805572509766 142.59410095214844 70.5267562866211 139.6009979248047 67.7663803100586" stroke-width="0.0" fill="url(#shape_27_fill)"/>
    <path d="M -0.43860435485839844 -0.27845311164855957 C 4.733682155609131 0.3892919719219208 9.683362007141113 -0.5333414077758789 18.667585372924805 -0.9004571437835693 C 25.519100189208984 -1.8371655941009521 26.03989028930664 -1.0466619729995728 57.35914611816406 0.36395472288131714 C 52.89278030395508 25.674882888793945 28.85698127746582 22.831157684326172 28.175071716308594 28.31546401977539 C 62.536190032958984 7.495396137237549 71.5143051147461 7.255518913269043 75.2334976196289 56.51838684082031 C 33.57723617553711 58.34910583496094 22.68764305114746 61.276458740234375 19.919631958007812 53.88661193847656 C 16.811967849731445 39.32269287109375 11.279305458068848 38.324485778808594 9.967938423156738 33.625919342041016 C 10.103713035583496 35.784786224365234 14.522695541381836 39.266822814941406 14.60217571258545 41.02824401855469 C 16.177946090698242 42.162593841552734 16.08616828918457 44.56494140625 18.166208267211914 47.88093185424805 C 20.072437286376953 51.07323455810547 18.76910972595215 52.3048210144043 22.937328338623047 57.7586669921875 C 24.036136627197266 70.42613983154297 9.321752548217773 72.9735107421875 7.164575576782227 61.880645751953125 C 5.153619766235352 60.99362564086914 3.5700736045837402 59.12024688720703 0.31198567152023315 59.44883728027344 C -0.32177484035491943 39.8058967590332 -0.3251153230667114 19.637386322021484 -0.43860435485839844 -0.27845311164855957" stroke-width="0.0" fill="url(#shape_28_fill)"/>
    <path d="M 298.222900390625 197.3004608154297 C 297.7496337890625 199.50506591796875 300.72271728515625 202.15980529785156 301.62286376953125 209.007080078125 C 300.4255065917969 214.3384246826172 325.7659912109375 222.3031768798828 315.9591979980469 255.52630615234375 C 311.896484375 254.6707305908203 310.5034484863281 255.75743103027344 304.31243896484375 255.02212524414062 C 303.92657470703125 258.1222839355469 297.5727844238281 258.4136962890625 281.351318359375 256.4559631347656 C 276.5907897949219 223.5774383544922 285.19793701171875 221.83401489257812 298.222900390625 197.3004608154297" stroke-width="0.0" fill="url(#shape_29_fill)"/>
    <path d="M 0.003740007057785988 -0.14199882745742798 C 4.62321138381958 0.4584077298641205 9.83655071258545 -0.4083006978034973 14.757984161376953 0.08935801684856415 C 15.983831405639648 0.46867257356643677 16.796384811401367 2.0566368103027344 16.619731903076172 7.880682945251465 C 18.747556686401367 11.030136108398438 21.33184051513672 19.19904899597168 27.928565979003906 20.50579071044922 C 27.340396881103516 22.628419876098633 23.47132682800293 26.70125389099121 26.148889541625977 31.96150016784668 C 20.62810516357422 32.55976486206055 11.39024829864502 30.26616668701172 3.6224653720855713 33.45143127441406 C 8.809576988220215 36.252864837646484 8.636961936950684 39.17283248901367 10.862274169921875 40.46671676635742 C 10.513693809509277 42.76451110839844 7.388093948364258 49.36510467529297 11.750887870788574 53.797950744628906 C 17.784547805786133 51.027679443359375 19.458637237548828 51.4561653137207 18.479835510253906 58.384376525878906 C 11.322251319885254 60.727272033691406 9.42715072631836 62.40220642089844 0.1751844435930252 61.643760681152344 C -0.42882946133613586 39.98032760620117 -0.3547223210334778 19.75674819946289 0.003740007057785988 -0.14199882745742798" stroke-width="0.0" fill="url(#shape_30_fill)"/>
    <path d="M 549.0299072265625 70.7243423461914 C 546.7578125 78.54841613769531 576.7833251953125 89.29721069335938 581.3973388671875 91.85395812988281 C 581.0059204101562 93.018310546875 577.5418701171875 93.39679718017578 577.5033569335938 98.34044647216797 C 573.296630859375 100.68892669677734 572.0520629882812 99.81195831298828 569.5526733398438 100.0147476196289 C 567.042724609375 94.14366149902344 547.465576171875 98.55923461914062 538.890869140625 88.26170349121094 C 538.2386474609375 85.53081512451172 538.8187866210938 82.82300567626953 535.9078979492188 81.75931549072266 C 533.9393920898438 81.02608489990234 527.1165771484375 79.45326232910156 526.9931640625 78.02322387695312 C 524.9746704101562 75.8604736328125 527.7297973632812 70.86116790771484 531.8065185546875 68.93682098388672 C 539.270751953125 66.81806182861328 542.8228149414062 71.46964263916016 549.0299072265625 70.7243423461914" stroke-width="0.0" fill="url(#shape_31_fill)"/>
    <path d="M 446.8908386230469 264.4598083496094 C 450.5997314453125 265.33526611328125 451.2378234863281 266.7802734375 455.49688720703125 267.88458251953125 C 460.5113830566406 267.6551208496094 465.32232666015625 270.3759765625 469.9661560058594 272.9825439453125 C 470.4309997558594 275.6334533691406 471.828857421875 276.8868713378906 471.6768798828125 280.7859802246094 C 452.3901062011719 287.2250061035156 431.3430480957031 284.1634216308594 415.8257751464844 285.14019775390625 C 413.33831787109375 273.8730773925781 413.9515686035156 272.27105712890625 415.15594482421875 267.9342041015625 C 418.1729736328125 267.1884460449219 417.69244384765625 264.7650451660156 419.2964172363281 262.7984313964844 C 445.043701171875 250.3525848388672 447.27960205078125 251.50930786132812 446.8908386230469 264.4598083496094" stroke-width="0.0" fill="url(#shape_32_fill)"/>
    <path d="M 272.9328918457031 192.0404510498047 C 274.0447082519531 192.37136840820312 288.42559814453125 243.74696350097656 282.79656982421875 249.750244140625 C 279.7147216796875 249.95962524414062 274.1311950683594 247.97396850585938 269.0606689453125 250.37661743164062 C 266.02459716796875 246.8535919189453 266.3559875488281 243.0711669921875 260.72845458984375 240.7057647705078 C 254.82269287109375 208.41062927246094 262.1686706542969 205.17115783691406 272.9328918457031 192.0404510498047" stroke-width="0.0" fill="url(#shape_33_fill)"/>
    <path d="M 270.3136291503906 405.9914855957031 C 262.1471862792969 429.8014831542969 264.2079772949219 430.9081726074219 267.36993408203125 440.65185546875 C 262.4937438964844 440.8463439941406 260.685546875 446.4218444824219 258.6100158691406 447.8636779785156 C 245.2745819091797 445.88409423828125 212.7509765625 448.9179382324219 212.3505859375 445.1019592285156 C 213.0214080810547 436.99578857421875 213.95974731445312 436.2215881347656 216.09890747070312 434.79400634765625 C 216.54586791992188 433.6850280761719 225.12545776367188 434.12646484375 226.85804748535156 431.13525390625 C 226.238037109375 417.36883544921875 230.88787841796875 416.6571350097656 270.3136291503906 405.9914855957031" stroke-width="0.0" fill="url(#shape_34_fill)"/>
    <path d="M 105.56939697265625 69.5782699584961 C 110.36221313476562 69.67894744873047 110.51805877685547 78.34712982177734 112.84278869628906 85.2349853515625 C 117.9502944946289 86.40318298339844 115.91883087158203 110.00679016113281 118.95899963378906 110.68682098388672 C 116.66854095458984 112.47942352294922 109.41936492919922 114.19673919677734 107.01753234863281 124.99840545654297 C 104.56103515625 117.1199951171875 96.47642517089844 118.92127227783203 87.48416137695312 106.81179809570312 C 85.9796142578125 85.62964630126953 106.23625946044922 84.19943237304688 105.56939697265625 69.5782699584961" stroke-width="0.0" fill="url(#shape_35_fill)"/>
    <path d="M 451.1943664550781 178.46949768066406 C 454.2452697753906 176.05850219726562 456.3851623535156 177.77923583984375 455.081787109375 180.33837890625 C 455.824951171875 180.9005889892578 454.9877624511719 184.88890075683594 456.0718994140625 186.8607940673828 C 456.4366760253906 188.4304656982422 459.35552978515625 193.69625854492188 458.6598205566406 204.47837829589844 C 458.8214111328125 208.2882080078125 453.3163146972656 210.2823028564453 446.0188903808594 204.41421508789062 C 442.2567138671875 206.69918823242188 440.6961975097656 209.35780334472656 431.96240234375 210.85879516601562 C 436.0187072753906 209.91751098632812 436.9515075683594 187.33522033691406 437.6690673828125 173.6215057373047 C 440.2827453613281 178.73318481445312 440.6474304199219 181.37823486328125 446.8624572753906 181.58468627929688 C 447.9542236328125 179.7401885986328 450.1519470214844 179.72569274902344 451.1943664550781 178.46949768066406" stroke-width="0.0" fill="url(#shape_36_fill)"/>
    <path d="M 558.2637939453125 84.65900421142578 C 559.7528076171875 80.11133575439453 578.3483276367188 83.29248809814453 579.3104248046875 85.01915740966797 C 581.3523559570312 83.08171844482422 586.3047485351562 84.9234619140625 588.4071044921875 88.78874206542969 C 598.73291015625 111.46833801269531 588.4319458007812 117.98847961425781 574.3067626953125 100.9376220703125 C 573.788330078125 99.45365142822266 550.1669921875 96.82196807861328 548.8961791992188 86.68392944335938 C 539.2000732421875 86.9302978515625 537.7564697265625 85.40919494628906 536.8345947265625 79.87593841552734 C 543.2775268554688 74.69017028808594 546.84716796875 78.85645294189453 558.2637939453125 84.65900421142578" stroke-width="0.0" fill="url(#shape_37_fill)"/>
    <path d="M 251.67025756835938 206.76300048828125 C 265.9560241699219 215.31561279296875 261.3612976074219 234.14785766601562 260.06768798828125 248.7465057373047 C 259.9089660644531 254.66749572753906 251.50440979003906 255.26547241210938 248.8618621826172 256.92901611328125 C 234.1744842529297 236.1443634033203 240.5235595703125 216.03306579589844 251.67025756835938 206.76300048828125" stroke-width="0.0" fill="url(#shape_38_fill)"/>
    <path d="M 442.19342041015625 262.9411315917969 C 445.9888000488281 263.41741943359375 449.2160949707031 266.6803283691406 447.9355773925781 270.0834655761719 C 444.6692810058594 270.4041442871094 442.6745910644531 277.35284423828125 440.0706787109375 277.331298828125 C 438.1091003417969 286.8811950683594 430.6667175292969 286.2039794921875 417.5682067871094 275.2934265136719 C 414.3775939941406 276.6918640136719 413.2210693359375 274.23504638671875 416.4289245605469 271.58984375 C 414.81561279296875 269.9116516113281 419.2587890625 262.27288818359375 425.2158508300781 258.5186767578125 C 426.97186279296875 257.8952331542969 440.6941223144531 257.6716613769531 442.19342041015625 262.9411315917969" stroke-width="0.0" fill="url(#shape_39_fill)"/>
    <path d="M 407.6429138183594 409.94781494140625 C 408.6301574707031 409.92474365234375 416.76416015625 419.1695861816406 414.2861328125 424.4407043457031 C 398.6598815917969 435.37322998046875 386.3727722167969 420.51373291015625 376.5349426269531 420.8923645019531 C 371.0690002441406 417.9624938964844 371.22509765625 416.5549011230469 372.5669250488281 410.5207214355469 C 375.6167297363281 401.02587890625 391.78839111328125 404.03656005859375 407.6429138183594 409.94781494140625" stroke-width="0.0" fill="url(#shape_40_fill)"/>
    <path d="M 66.63546752929688 427.35687255859375 C 67.20377349853516 428.9205322265625 63.867828369140625 431.79998779296875 58.58517074584961 434.07568359375 C 57.341896057128906 435.80267333984375 42.52224349975586 435.4367370605469 30.985326766967773 443.333740234375 C 28.967615127563477 443.4526062011719 26.838037490844727 444.1646728515625 17.406919479370117 442.5777282714844 C 16.463308334350586 440.6540832519531 18.086198806762695 439.2092590332031 17.40152931213379 437.72039794921875 C 36.485870361328125 427.0246887207031 51.225669860839844 428.5575256347656 66.63546752929688 427.35687255859375" stroke-width="0.0" fill="url(#shape_41_fill)"/>
    <path d="M 276.4054260253906 381.1264953613281 C 284.9764709472656 381.399169921875 299.2597351074219 379.912353515625 313.131591796875 385.0829162597656 C 296.68865966796875 394.36761474609375 299.2831726074219 401.1325988769531 294.5813293457031 405.2494812011719 C 291.7812805175781 400.1415100097656 268.3031311035156 407.5455627441406 257.7235107421875 410.1804504394531 C 236.74977111816406 420.1598205566406 229.2275390625 416.2016296386719 228.22520446777344 383.88702392578125 C 259.7185974121094 378.1060791015625 266.146240234375 382.381103515625 276.4054260253906 381.1264953613281" stroke-width="0.0" fill="url(#shape_42_fill)"/>
    <path d="M 222.680908203125 209.05792236328125 C 224.22579956054688 206.4567108154297 238.65350341796875 206.1667022705078 238.73489379882812 209.85604858398438 C 242.8489227294922 221.91285705566406 243.765869140625 245.11978149414062 256.2674865722656 270.54522705078125 C 252.3512725830078 276.54144287109375 243.49429321289062 273.55950927734375 208.09019470214844 272.3951110839844 C 208.5457763671875 266.2441101074219 206.17428588867188 250.87588500976562 216.10977172851562 247.5358428955078 C 219.16282653808594 246.45138549804688 218.49481201171875 226.42796325683594 222.680908203125 209.05792236328125" stroke-width="0.0" fill="url(#shape_43_fill)"/>
    <path d="M 483.5788879394531 396.1402282714844 C 486.7022399902344 399.5603332519531 485.8211975097656 400.986328125 483.3400573730469 400.9692687988281 C 469.12457275390625 407.4980773925781 451.1646423339844 406.938232421875 450.2969665527344 407.48443603515625 C 448.3794860839844 404.44476318359375 451.8115234375 396.22308349609375 453.7202453613281 396.5306396484375 C 466.8169250488281 393.39276123046875 471.130859375 392.3980712890625 483.5788879394531 396.1402282714844" stroke-width="0.0" fill="url(#shape_44_fill)"/>
    <path d="M 45.89198303222656 408.1522216796875 C 45.25770568847656 407.8833312988281 35.91013717651367 412.810302734375 31.921463012695312 412.48956298828125 C 32.09821319580078 414.24139404296875 31.73459243774414 415.6606140136719 28.030292510986328 414.98199462890625 C 26.92305564880371 416.3081359863281 23.800905227661133 416.93804931640625 20.307771682739258 419.910400390625 C 18.899429321289062 420.157470703125 0.1998029202222824 417.49755859375 -0.6888834238052368 420.49932861328125 C 2.0270631313323975 419.4036865234375 -1.1608898639678955 411.18157958984375 1.019784688949585 410.1773681640625 C 5.770438194274902 409.7048645019531 45.472503662109375 406.25238037109375 45.89198303222656 408.1522216796875" stroke-width="0.0" fill="url(#shape_45_fill)"/>
    <path d="M 452.47308349609375 173.50399780273438 C 453.8508605957031 174.9401092529297 464.4680480957031 198.63185119628906 467.3840026855469 199.73013305664062 C 462.5901184082031 209.13426208496094 451.0351867675781 209.12835693359375 449.4439392089844 206.5038299560547 C 448.2977600097656 203.27337646484375 448.93536376953125 198.32554626464844 448.8511047363281 195.29678344726562 C 447.96734619140625 194.57481384277344 447.58258056640625 192.03372192382812 448.5248107910156 187.9841766357422 C 450.9616394042969 186.6393585205078 450.161376953125 182.49172973632812 452.47308349609375 173.50399780273438" stroke-width="0.0" fill="url(#shape_46_fill)"/>
    <path d="M 372.1279296875 183.76046752929688 C 379.9152526855469 198.41580200195312 380.22711181640625 202.58424377441406 371.8771667480469 205.9322967529297 C 365.8681640625 206.8409881591797 364.772216796875 204.75340270996094 361.59857177734375 206.08558654785156 C 339.5576477050781 212.45860290527344 335.0536193847656 200.58831787109375 353.3648376464844 189.4136199951172 C 356.70947265625 184.98605346679688 358.37908935546875 184.36062622070312 368.1949768066406 185.45745849609375 C 369.0335388183594 182.77777099609375 371.4079284667969 182.9283905029297 372.1279296875 183.76046752929688" stroke-width="0.0" fill="url(#shape_47_fill)"/>
    <path d="M 473.2256774902344 264.4320068359375 C 473.77392578125 268.8076477050781 481.15203857421875 271.5611267089844 484.6319274902344 283.424560546875 C 467.0360412597656 287.95306396484375 445.3742980957031 286.9691162109375 443.8039855957031 284.9139099121094 C 439.33544921875 282.0987854003906 439.9994812011719 276.96697998046875 440.9854736328125 276.2872314453125 C 449.27691650390625 266.53570556640625 456.02398681640625 261.642578125 473.2256774902344 264.4320068359375" stroke-width="0.0" fill="url(#shape_48_fill)"/>
    <path d="M 176.48463439941406 116.65831756591797 C 178.18731689453125 115.62569427490234 181.71881103515625 116.146240234375 182.71676635742188 117.21292114257812 C 184.6284942626953 120.08680725097656 183.93284606933594 121.74893951416016 184.7406005859375 123.3400650024414 C 179.4351806640625 128.28126525878906 185.55355834960938 137.0164337158203 183.0745086669922 139.07684326171875 C 181.51075744628906 146.2107696533203 172.81951904296875 146.33839416503906 172.42681884765625 146.8434600830078 C 172.896240234375 126.96495056152344 171.09603881835938 124.41336822509766 176.48463439941406 116.65831756591797" stroke-width="0.0" fill="url(#shape_49_fill)"/>
    <path d="M 333.87786865234375 426.6130676269531 C 335.3643493652344 430.2513732910156 342.42266845703125 429.0934143066406 343.7405090332031 431.5030822753906 C 346.3804626464844 435.5629577636719 345.15838623046875 437.2079772949219 342.2569274902344 437.4735107421875 C 342.4408264160156 447.34564208984375 325.547119140625 448.79803466796875 323.557373046875 445.7235107421875 C 321.5739440917969 436.15008544921875 321.5895080566406 432.708984375 305.0937805175781 430.83551025390625 C 317.5566711425781 424.76702880859375 327.1539611816406 431.07171630859375 333.87786865234375 426.6130676269531" stroke-width="0.0" fill="url(#shape_50_fill)"/>
    <path d="M 322.0111389160156 388.9422912597656 C 315.26409912109375 396.3895568847656 293.0773010253906 395.3300476074219 291.5264587402344 398.9842529296875 C 279.1007995605469 397.6777648925781 277.85321044921875 398.962646484375 271.24273681640625 402.2292785644531 C 271.2921447753906 401.59466552734375 270.1166687011719 398.8900146484375 271.8072204589844 397.51251220703125 C 270.4527893066406 395.5930480957031 273.6392822265625 388.7159423828125 280.07196044921875 388.46685791015625 C 284.2715148925781 386.84356689453125 288.4801330566406 390.3829345703125 322.0111389160156 388.9422912597656" stroke-width="0.0" fill="url(#shape_51_fill)"/>
    <path d="M 269.0266418457031 187.4502410888672 C 278.1112060546875 195.28494262695312 276.8671875 207.73126220703125 280.1844177246094 217.4789276123047 C 271.6006164550781 210.418212890625 269.53338623046875 208.5272979736328 260.1990051269531 217.3233642578125 C 258.17718505859375 208.83607482910156 262.7340087890625 195.21591186523438 267.904052734375 195.7880096435547 C 269.6835021972656 194.1551971435547 268.8371887207031 191.5582275390625 269.0266418457031 187.4502410888672" stroke-width="0.0" fill="url(#shape_52_fill)"/>
    <path d="M 218.5740509033203 409.3426513671875 C 215.88119506835938 410.8912353515625 215.80087280273438 413.35491943359375 214.31285095214844 415.41937255859375 C 214.61874389648438 423.9805908203125 195.51605224609375 425.2388000488281 187.74232482910156 415.6557312011719 C 186.3809356689453 403.5803527832031 209.4308319091797 398.5890197753906 218.5740509033203 409.3426513671875" stroke-width="0.0" fill="url(#shape_53_fill)"/>
    <path d="M 206.03475952148438 424.6406555175781 C 205.43765258789062 425.2147216796875 206.15261840820312 428.3016357421875 204.54595947265625 428.783447265625 C 194.68939208984375 429.4631652832031 178.83206176757812 430.0869140625 178.1266632080078 432.7110900878906 C 176.9790802001953 430.9400939941406 178.5826416015625 425.9411315917969 177.25006103515625 423.860107421875 C 187.23263549804688 418.6197509765625 192.3195343017578 423.3020935058594 206.03475952148438 424.6406555175781" stroke-width="0.0" fill="url(#shape_54_fill)"/>
    <path d="M 268.8645324707031 248.15365600585938 C 275.2256774902344 245.0949249267578 276.7536315917969 247.9058380126953 279.00689697265625 249.21078491210938 C 281.11236572265625 251.00503540039062 280.7964172363281 252.1400146484375 294.5909423828125 273.25433349609375 C 263.4727478027344 258.1849365234375 262.8851013183594 257.50970458984375 248.95333862304688 269.2600402832031 C 254.8150634765625 248.1738739013672 255.9327850341797 247.25955200195312 258.784423828125 245.24066162109375 C 261.1325378417969 240.16928100585938 263.2232666015625 239.31954956054688 268.8645324707031 248.15365600585938" stroke-width="0.0" fill="url(#shape_55_fill)"/>
    <path d="M 291.51776123046875 333.7884521484375 C 287.60546875 362.6451721191406 288.2740173339844 363.3748474121094 285.6047058105469 368.0427551269531 C 285.58160400390625 369.222900390625 286.1104431152344 371.760009765625 285.3892517089844 381.60443115234375 C 268.8086853027344 379.292724609375 255.55352783203125 380.6439208984375 232.47097778320312 382.6898498535156 C 228.24819946289062 382.6963195800781 227.5985565185547 369.9455871582031 236.33795166015625 345.1077575683594 C 237.5248565673828 335.21771240234375 239.3917999267578 332.2491760253906 291.51776123046875 333.7884521484375" stroke-width="0.0" fill="url(#shape_56_fill)"/>
    <path d="M 407.9142150878906 271.9114685058594 C 412.5174865722656 270.9566955566406 417.7474365234375 276.0174865722656 425.723876953125 281.9549560546875 C 416.39178466796875 283.3721008300781 412.4333801269531 275.6269226074219 373.2823486328125 274.376953125 C 375.062744140625 262.6019592285156 382.9015808105469 263.3296813964844 407.9142150878906 271.9114685058594" stroke-width="0.0" fill="url(#shape_57_fill)"/>
    <path d="M 632.1214599609375 352.5267333984375 C 632.981689453125 354.44793701171875 661.1590576171875 355.3248291015625 668.476806640625 355.7679748535156 C 668.4249267578125 357.9896545410156 662.9900512695312 360.1170349121094 660.1904907226562 356.5414123535156 C 644.234375 356.68109130859375 636.755126953125 358.7746887207031 631.7573852539062 359.415283203125 C 627.9380493164062 357.3185119628906 629.6026611328125 353.7124938964844 632.1214599609375 352.5267333984375" stroke-width="0.0" fill="url(#shape_58_fill)"/>
    <path d="M 341.3954162597656 384.59857177734375 C 342.8458251953125 390.0633239746094 358.1572265625 391.57867431640625 359.1591796875 394.554931640625 C 356.5959777832031 398.53045654296875 339.7772521972656 401.28948974609375 338.27093505859375 399.5745849609375 C 335.1358642578125 399.63983154296875 333.0508117675781 398.79254150390625 331.8216857910156 396.5372619628906 C 331.9943542480469 394.93994140625 330.7392578125 393.4737243652344 332.23101806640625 390.5690612792969 C 332.662353515625 384.8283996582031 335.2693786621094 383.75457763671875 341.3954162597656 384.59857177734375" stroke-width="0.0" fill="url(#shape_59_fill)"/>
    <path d="M 457.676513671875 364.92474365234375 C 461.6748046875 362.34765625 474.7407531738281 372.0361633300781 473.2488098144531 374.62554931640625 C 471.81524658203125 376.24310302734375 470.33636474609375 376.8209228515625 463.7354736328125 375.8650207519531 C 458.9572448730469 376.6751403808594 456.9183654785156 377.1028747558594 452.7850646972656 371.27044677734375 C 453.37542724609375 370.0946350097656 458.4954833984375 368.2622375488281 457.676513671875 364.92474365234375" stroke-width="0.0" fill="url(#shape_60_fill)"/>
    <path d="M 428.20062255859375 432.31463623046875 C 439.974365234375 434.2045593261719 442.373291015625 436.7506103515625 442.1177978515625 438.60882568359375 C 440.25701904296875 440.73797607421875 427.2972717285156 439.3477478027344 425.6849060058594 441.9694519042969 C 422.55218505859375 437.6336975097656 423.90594482421875 434.699951171875 410.141845703125 425.302978515625 C 427.6636047363281 428.0244140625 428.95147705078125 431.62554931640625 428.20062255859375 432.31463623046875" stroke-width="0.0" fill="url(#shape_61_fill)"/>
    <path d="M 185.38719177246094 411.45281982421875 C 186.23928833007812 413.8905029296875 185.04953002929688 414.82061767578125 186.8317108154297 417.70709228515625 C 184.87904357910156 420.2366638183594 183.37806701660156 419.4812927246094 182.5452117919922 419.8078918457031 C 180.8379669189453 421.6629333496094 174.4738006591797 420.1213684082031 171.8246612548828 419.9336242675781 C 169.6143798828125 417.5306701660156 169.7907257080078 415.6226806640625 175.1742401123047 412.15936279296875 C 176.65077209472656 413.6853332519531 180.04837036132812 410.4759216308594 185.38719177246094 411.45281982421875" stroke-width="0.0" fill="url(#shape_62_fill)"/>
    <path d="M 331.7513122558594 418.93060302734375 C 334.1993103027344 425.5793762207031 329.84197998046875 427.78033447265625 327.20196533203125 425.41302490234375 C 324.45831298828125 427.72119140625 322.94488525390625 426.6705017089844 321.91937255859375 427.27423095703125 C 319.022216796875 425.9393310546875 320.1093444824219 419.9400634765625 317.67474365234375 418.53216552734375 C 318.9566650390625 420.3828430175781 325.659423828125 418.4962463378906 331.7513122558594 418.93060302734375" stroke-width="0.0" fill="url(#shape_63_fill)"/>
    <path d="M 55.676849365234375 274.45623779296875 C 56.7242317199707 269.7536926269531 64.14893341064453 271.2281494140625 62.94350814819336 278.74920654296875 C 59.720069885253906 278.5364990234375 54.10346603393555 272.1392822265625 48.863277435302734 276.65533447265625 C 51.544185638427734 273.957763671875 53.0566520690918 273.4413146972656 55.676849365234375 274.45623779296875" stroke-width="0.0" fill="url(#shape_64_fill)"/>
    <path d="M 304.7126770019531 440.35308837890625 C 304.5657958984375 437.8075256347656 306.42022705078125 436.9067077636719 313.2344055175781 437.7414855957031 C 314.3490905761719 439.6404724121094 312.8221435546875 441.0434265136719 310.7459716796875 441.182861328125 C 307.8138732910156 445.1429138183594 306.4330749511719 444.18157958984375 305.1369934082031 443.75457763671875 C 302.59326171875 441.7137756347656 303.376708984375 440.3727722167969 304.7126770019531 440.35308837890625" stroke-width="0.0" fill="url(#shape_65_fill)"/>
    <path d="M -0.5988252758979797 -0.4230717420578003 C 224.6833953857422 -0.12174342572689056 444.1112060546875 0.3131435811519623 672.373779296875 0.1538095921278 C 673.3798217773438 155.78590393066406 674.793212890625 295.814697265625 673.772216796875 445.46966552734375 C 450.02630615234375 446.3151550292969 229.97686767578125 446.3208312988281 0.43373364210128784 445.53179931640625 C 0.1761883944272995 297.2806091308594 -0.22813212871551514 149.57052612304688 -0.5988252758979797 -0.4230717420578003" stroke-width="0.0" fill="url(#shape_66_fill)"/>
    <path d="M -1.147147297859192 -0.2380312830209732 C 222.8877410888672 -0.1397639811038971 442.8818054199219 0.40567323565483093 672.2959594726562 -0.25890421867370605 C 673.392822265625 156.9495391845703 674.8457641601562 295.4869384765625 673.4059448242188 445.3930358886719 C 450.3424377441406 446.3739929199219 230.0648193359375 446.3515930175781 0.473781019449234 445.4718933105469 C 0.0214738380163908 297.64068603515625 -0.3076625466346741 149.21949768066406 -1.147147297859192 -0.2380312830209732" stroke-width="0.0" fill="url(#shape_67_fill)"/>
    <path d="M -0.7367619276046753 -0.28584349155426025 C 223.55628967285156 -0.19513970613479614 441.56622314453125 0.5379647016525269 672.5453491210938 -0.3360827565193176 C 673.5243530273438 155.93446350097656 674.847412109375 295.25146484375 673.3920288085938 445.3922119140625 C 450.3445129394531 446.3758239746094 230.138671875 446.3471374511719 1.098878264427185 445.4403381347656 C 0.470475435256958 295.7628173828125 0.05535579100251198 148.58206176757812 -0.7367619276046753 -0.28584349155426025" stroke-width="0.0" fill="url(#shape_68_fill)"/>
  </g>
</svg>
