<?xml version="1.0" ?>
<svg xmlns="http://www.w3.org/2000/svg" version="1.1" width="674" height="446">
  <defs>
    <radialGradient id="shape_0_fill" cx="0.5342165440409403" cy="0.7404633936860636" r="0.27898979752990544">
      <stop offset="0.76428235" stop-color="rgb(165, 181, 0)" stop-opacity="0.8528962135314941"/>
      <stop offset="1.0" stop-color="rgb(51, 46, 0)" stop-opacity="1.0"/>
    </radialGradient>
    <radialGradient id="shape_1_fill" cx="0.5357693635391553" cy="0.7442099395888804" r="0.20630165801911396">
      <stop offset="0.52725726" stop-color="rgb(76, 77, 68)" stop-opacity="0.7966557145118713"/>
      <stop offset="1.0" stop-color="rgb(30, 11, 0)" stop-opacity="0.6256998181343079"/>
    </radialGradient>
    <radialGradient id="shape_2_fill" cx="0.09792274678850033" cy="0.7376672719091578" r="0.22062588021026522">
      <stop offset="0.0" stop-color="rgb(35, 95, 183)" stop-opacity="0.9599876403808594"/>
      <stop offset="0.9897833" stop-color="rgb(9, 105, 255)" stop-opacity="0.9262112379074097"/>
    </radialGradient>
    <radialGradient id="shape_3_fill" cx="0.27686502247252875" cy="0.21566579160134353" r="0.1291111796121569">
      <stop offset="0.39559463" stop-color="rgb(139, 196, 6)" stop-opacity="0.8002920746803284"/>
      <stop offset="1.0" stop-color="rgb(38, 41, 0)" stop-opacity="0.9471331834793091"/>
    </radialGradient>
    <radialGradient id="shape_4_fill" cx="0.1543026706231454" cy="0.9977578475336323" r="0.10288926755639141">
      <stop offset="0.0" stop-color="rgb(81, 79, 86)" stop-opacity="1.0"/>
      <stop offset="1.0" stop-color="rgb(71, 66, 81)" stop-opacity="0.900326132774353"/>
    </radialGradient>
    <radialGradient id="shape_5_fill" cx="0.14807964290992442" cy="0.23997249517740155" r="0.11810664960821587">
      <stop offset="0.0" stop-color="rgb(255, 255, 255)" stop-opacity="0.6465655565261841"/>
      <stop offset="0.5626593" stop-color="rgb(255, 255, 255)" stop-opacity="0.5770149827003479"/>
    </radialGradient>
    <radialGradient id="shape_6_fill" cx="0.18397626112759644" cy="0.9977578475336323" r="0.0754974885934892">
      <stop offset="0.0" stop-color="rgb(93, 90, 94)" stop-opacity="1.0"/>
      <stop offset="1.0" stop-color="rgb(145, 131, 133)" stop-opacity="0.928043007850647"/>
    </radialGradient>
    <radialGradient id="shape_7_fill" cx="0.2893175074183976" cy="0.05829596412556054" r="0.08666390552011372">
      <stop offset="0.0" stop-color="rgb(55, 66, 29)" stop-opacity="1.0"/>
      <stop offset="1.0" stop-color="rgb(113, 130, 46)" stop-opacity="0.5401041507720947"/>
    </radialGradient>
    <radialGradient id="shape_8_fill" cx="0.3382789091115889" cy="0.9439461883408071" r="0.06756690277190167">
      <stop offset="0.0" stop-color="rgb(91, 124, 45)" stop-opacity="1.0"/>
      <stop offset="1.0" stop-color="rgb(119, 177, 60)" stop-opacity="0.7029591202735901"/>
    </radialGradient>
    <radialGradient id="shape_9_fill" cx="0.30712166172106825" cy="0.9977578475336323" r="0.0730758406641929">
      <stop offset="0.0" stop-color="rgb(38, 48, 20)" stop-opacity="1.0"/>
      <stop offset="1.0" stop-color="rgb(32, 33, 47)" stop-opacity="1.0"/>
    </radialGradient>
    <radialGradient id="shape_10_fill" cx="0.3056379821958457" cy="0.9977578475336323" r="0.06792919147615971">
      <stop offset="0.0" stop-color="rgb(39, 49, 21)" stop-opacity="1.0"/>
      <stop offset="1.0" stop-color="rgb(40, 26, 0)" stop-opacity="0.6949437856674194"/>
    </radialGradient>
    <radialGradient id="shape_11_fill" cx="0.21810089020771514" cy="0.968609865470852" r="0.06792919147615971">
      <stop offset="0.0" stop-color="rgb(138, 135, 129)" stop-opacity="1.0"/>
      <stop offset="1.0" stop-color="rgb(160, 128, 98)" stop-opacity="0.4764389395713806"/>
    </radialGradient>
    <radialGradient id="shape_12_fill" cx="0.29080118694362017" cy="0.9977578475336323" r="0.07480746985189285">
      <stop offset="0.0" stop-color="rgb(22, 25, 13)" stop-opacity="1.0"/>
      <stop offset="1.0" stop-color="rgb(36, 39, 5)" stop-opacity="0.996303141117096"/>
    </radialGradient>
    <radialGradient id="shape_13_fill" cx="0.327893175074184" cy="0.8923766816143498" r="0.06900465877544279">
      <stop offset="0.0" stop-color="rgb(89, 117, 50)" stop-opacity="1.0"/>
      <stop offset="1.0" stop-color="rgb(107, 143, 17)" stop-opacity="0.6994604468345642"/>
    </radialGradient>
    <radialGradient id="shape_14_fill" cx="0.142433234421365" cy="0.9977578475336323" r="0.06617211022079875">
      <stop offset="0.0" stop-color="rgb(155, 150, 153)" stop-opacity="1.0"/>
      <stop offset="1.0" stop-color="rgb(255, 229, 217)" stop-opacity="0.19585157930850983"/>
    </radialGradient>
    <radialGradient id="shape_15_fill" cx="0.31008902077151335" cy="0.9977578475336323" r="0.06683642786405207">
      <stop offset="0.0" stop-color="rgb(43, 55, 23)" stop-opacity="1.0"/>
      <stop offset="1.0" stop-color="rgb(57, 67, 18)" stop-opacity="0.9401921629905701"/>
    </radialGradient>
    <radialGradient id="shape_16_fill" cx="0.27299703264094954" cy="0.9977578475336323" r="0.08110449363640579">
      <stop offset="0.0" stop-color="rgb(31, 35, 19)" stop-opacity="1.0"/>
      <stop offset="1.0" stop-color="rgb(31, 31, 0)" stop-opacity="0.9709576368331909"/>
    </radialGradient>
    <radialGradient id="shape_17_fill" cx="0.2893175074183976" cy="0.9977578475336323" r="0.07513486030193747">
      <stop offset="0.0" stop-color="rgb(22, 23, 13)" stop-opacity="1.0"/>
      <stop offset="1.0" stop-color="rgb(19, 16, 0)" stop-opacity="0.840702474117279"/>
    </radialGradient>
    <radialGradient id="shape_18_fill" cx="0.3293768545994065" cy="0.7556053811659192" r="0.06617211022079875">
      <stop offset="0.0" stop-color="rgb(83, 108, 65)" stop-opacity="1.0"/>
      <stop offset="1.0" stop-color="rgb(110, 136, 60)" stop-opacity="0.976720929145813"/>
    </radialGradient>
    <radialGradient id="shape_19_fill" cx="0.3516320474777448" cy="0.9977578475336323" r="0.06617211022079875">
      <stop offset="0.0" stop-color="rgb(95, 135, 39)" stop-opacity="1.0"/>
      <stop offset="1.0" stop-color="rgb(142, 205, 7)" stop-opacity="0.7600914239883423"/>
    </radialGradient>
    <radialGradient id="shape_20_fill" cx="0.0830860534124629" cy="0.9977578475336323" r="0.06792919147615971">
      <stop offset="0.0" stop-color="rgb(49, 52, 66)" stop-opacity="1.0"/>
      <stop offset="1.0" stop-color="rgb(20, 11, 51)" stop-opacity="0.38603347539901733"/>
    </radialGradient>
    <radialGradient id="shape_21_fill" cx="0.29821958456973297" cy="0.9977578475336323" r="0.06792919147615971">
      <stop offset="0.0" stop-color="rgb(33, 40, 17)" stop-opacity="1.0"/>
      <stop offset="1.0" stop-color="rgb(40, 55, 0)" stop-opacity="0.6785151362419128"/>
    </radialGradient>
    <radialGradient id="shape_22_fill" cx="0.35633279591002875" cy="0.44372531223724776" r="0.06594546966099951">
      <stop offset="0.5221718" stop-color="rgb(100, 154, 31)" stop-opacity="0.9240909814834595"/>
      <stop offset="0.3906977" stop-color="rgb(151, 187, 38)" stop-opacity="0.9123224020004272"/>
    </radialGradient>
    <radialGradient id="shape_23_fill" cx="0.6454005934718101" cy="0.1412556053811659" r="0.06617211022079875">
      <stop offset="0.0" stop-color="rgb(46, 38, 13)" stop-opacity="1.0"/>
      <stop offset="1.0" stop-color="rgb(51, 30, 0)" stop-opacity="0.8757665753364563"/>
    </radialGradient>
    <radialGradient id="shape_24_fill" cx="0.24925732258873098" cy="0.48430544592339897" r="0.06617138010811735">
      <stop offset="0.0" stop-color="rgb(201, 209, 206)" stop-opacity="1.0"/>
      <stop offset="0.9766002" stop-color="rgb(255, 255, 255)" stop-opacity="0.6032858490943909"/>
    </radialGradient>
    <radialGradient id="shape_25_fill" cx="0.6320474777448071" cy="0.9977578475336323" r="0.06617211022079875">
      <stop offset="0.0" stop-color="rgb(35, 28, 8)" stop-opacity="1.0"/>
      <stop offset="1.0" stop-color="rgb(38, 15, 0)" stop-opacity="0.5717400312423706"/>
    </radialGradient>
    <radialGradient id="shape_26_fill" cx="0.15414520399506793" cy="0.3207086811151205" r="0.06604698362265567">
      <stop offset="0.11989566" stop-color="rgb(198, 211, 155)" stop-opacity="1.0"/>
      <stop offset="0.58338004" stop-color="rgb(115, 114, 253)" stop-opacity="0.0"/>
    </radialGradient>
    <radialGradient id="shape_27_fill" cx="0.15410647972401242" cy="0.3208032787648017" r="0.06604505929465818">
      <stop offset="0.0" stop-color="rgb(192, 205, 0)" stop-opacity="1.0"/>
      <stop offset="0.49375948" stop-color="rgb(78, 73, 48)" stop-opacity="0.6137158870697021"/>
    </radialGradient>
    <radialGradient id="shape_28_fill" cx="0.037142249879921936" cy="0.01742124129838473" r="0.06855596774409715">
      <stop offset="0.14345457" stop-color="rgb(4, 27, 126)" stop-opacity="0.9857983589172363"/>
      <stop offset="0.74536574" stop-color="rgb(5, 27, 158)" stop-opacity="0.7595917582511902"/>
    </radialGradient>
    <radialGradient id="shape_29_fill" cx="0.33976258863681147" cy="0.6659192825112108" r="0.06617211022079875">
      <stop offset="0.0" stop-color="rgb(90, 117, 55)" stop-opacity="1.0"/>
      <stop offset="1.0" stop-color="rgb(112, 144, 29)" stop-opacity="0.8839114308357239"/>
    </radialGradient>
    <radialGradient id="shape_30_fill" cx="0.03971600461784385" cy="0.016852960458250858" r="0.06849531745344666">
      <stop offset="0.282931" stop-color="rgb(47, 73, 70)" stop-opacity="1.0"/>
      <stop offset="0.9081315" stop-color="rgb(55, 64, 18)" stop-opacity="0.5854239463806152"/>
    </radialGradient>
    <radialGradient id="shape_31_fill" cx="0.12314540059347182" cy="0.9977578475336323" r="0.06617211022079875">
      <stop offset="0.0" stop-color="rgb(95, 103, 98)" stop-opacity="1.0"/>
      <stop offset="1.0" stop-color="rgb(138, 128, 116)" stop-opacity="0.7421254515647888"/>
    </radialGradient>
    <radialGradient id="shape_32_fill" cx="0.4035608308605341" cy="0.984304932735426" r="0.06617211022079875">
      <stop offset="0.0" stop-color="rgb(126, 155, 63)" stop-opacity="1.0"/>
      <stop offset="1.0" stop-color="rgb(141, 130, 29)" stop-opacity="0.9743464589118958"/>
    </radialGradient>
    <radialGradient id="shape_33_fill" cx="0.3249258160237389" cy="0.6053811659192825" r="0.06617211022079875">
      <stop offset="0.0" stop-color="rgb(93, 124, 71)" stop-opacity="1.0"/>
      <stop offset="1.0" stop-color="rgb(125, 154, 55)" stop-opacity="0.9935837388038635"/>
    </radialGradient>
    <radialGradient id="shape_34_fill" cx="0.6468842729970327" cy="0.531390134529148" r="0.06617211022079875">
      <stop offset="0.0" stop-color="rgb(54, 47, 24)" stop-opacity="1.0"/>
      <stop offset="1.0" stop-color="rgb(53, 19, 20)" stop-opacity="0.433317631483078"/>
    </radialGradient>
    <radialGradient id="shape_35_fill" cx="0.14650420689795066" cy="0.23929224741298522" r="0.06900469839396038">
      <stop offset="0.05892409" stop-color="rgb(194, 255, 77)" stop-opacity="0.16757307946681976"/>
      <stop offset="0.5770523" stop-color="rgb(116, 95, 64)" stop-opacity="0.7637849450111389"/>
    </radialGradient>
    <radialGradient id="shape_36_fill" cx="0.2878338278931751" cy="0.9977578475336323" r="0.06617211022079875">
      <stop offset="0.0" stop-color="rgb(80, 96, 53)" stop-opacity="1.0"/>
      <stop offset="1.0" stop-color="rgb(39, 41, 0)" stop-opacity="0.7930193543434143"/>
    </radialGradient>
    <radialGradient id="shape_37_fill" cx="0.129080118694362" cy="0.9977578475336323" r="0.06617211022079875">
      <stop offset="0.0" stop-color="rgb(87, 97, 81)" stop-opacity="1.0"/>
      <stop offset="1.0" stop-color="rgb(67, 77, 54)" stop-opacity="0.5895224809646606"/>
    </radialGradient>
    <radialGradient id="shape_38_fill" cx="0.33892324204260943" cy="0.5607740119968294" r="0.0666785763703751">
      <stop offset="0.7501433" stop-color="rgb(83, 115, 20)" stop-opacity="0.9056131839752197"/>
      <stop offset="0.6022492" stop-color="rgb(172, 255, 79)" stop-opacity="0.8816668391227722"/>
    </radialGradient>
    <radialGradient id="shape_39_fill" cx="0.40059347181008903" cy="0.9641255605381166" r="0.06617211022079875">
      <stop offset="0.0" stop-color="rgb(138, 168, 60)" stop-opacity="1.0"/>
      <stop offset="1.0" stop-color="rgb(218, 255, 82)" stop-opacity="1.0"/>
    </radialGradient>
    <radialGradient id="shape_40_fill" cx="0.6135483014477466" cy="0.8786024427200112" r="0.06954470444857544">
      <stop offset="0.3463679" stop-color="rgb(158, 146, 139)" stop-opacity="0.4979311525821686"/>
      <stop offset="0.5076981" stop-color="rgb(0, 12, 70)" stop-opacity="1.0"/>
    </radialGradient>
    <radialGradient id="shape_41_fill" cx="0.6454005934718101" cy="0.08744394618834081" r="0.06617211022079875">
      <stop offset="0.0" stop-color="rgb(58, 48, 21)" stop-opacity="1.0"/>
      <stop offset="1.0" stop-color="rgb(90, 63, 17)" stop-opacity="0.9985598921775818"/>
    </radialGradient>
    <radialGradient id="shape_42_fill" cx="0.5845697329376854" cy="0.6188340807174888" r="0.06617211022079875">
      <stop offset="0.0" stop-color="rgb(62, 59, 56)" stop-opacity="1.0"/>
      <stop offset="1.0" stop-color="rgb(34, 29, 79)" stop-opacity="0.5922104716300964"/>
    </radialGradient>
    <radialGradient id="shape_43_fill" cx="0.3554531516236438" cy="0.50266967226037" r="0.06908352226461077">
      <stop offset="0.2558972" stop-color="rgb(122, 164, 48)" stop-opacity="0.9129354357719421"/>
      <stop offset="0.5701147" stop-color="rgb(205, 255, 27)" stop-opacity="0.8385201096534729"/>
    </radialGradient>
    <radialGradient id="shape_44_fill" cx="0.5934718100890207" cy="0.9977578475336323" r="0.06617211022079875">
      <stop offset="0.0" stop-color="rgb(89, 61, 18)" stop-opacity="1.0"/>
      <stop offset="1.0" stop-color="rgb(163, 83, 0)" stop-opacity="0.7568770051002502"/>
    </radialGradient>
    <radialGradient id="shape_45_fill" cx="0.612759643916914" cy="0.04035874439461883" r="0.06617211022079875">
      <stop offset="0.0" stop-color="rgb(157, 136, 123)" stop-opacity="1.0"/>
      <stop offset="1.0" stop-color="rgb(255, 226, 205)" stop-opacity="1.0"/>
    </radialGradient>
    <radialGradient id="shape_46_fill" cx="0.28635014836795253" cy="0.9977578475336323" r="0.06617211022079875">
      <stop offset="0.0" stop-color="rgb(82, 99, 55)" stop-opacity="1.0"/>
      <stop offset="1.0" stop-color="rgb(93, 109, 26)" stop-opacity="0.5627886056900024"/>
    </radialGradient>
    <radialGradient id="shape_47_fill" cx="0.28635014836795253" cy="0.8183856502242153" r="0.06617211022079875">
      <stop offset="0.0" stop-color="rgb(166, 189, 197)" stop-opacity="1.0"/>
      <stop offset="1.0" stop-color="rgb(255, 255, 255)" stop-opacity="0.4518286883831024"/>
    </radialGradient>
    <radialGradient id="shape_48_fill" cx="0.40801186943620177" cy="0.9977578475336323" r="0.06617211022079875">
      <stop offset="0.0" stop-color="rgb(107, 135, 68)" stop-opacity="1.0"/>
      <stop offset="1.0" stop-color="rgb(130, 147, 55)" stop-opacity="1.0"/>
    </radialGradient>
    <radialGradient id="shape_49_fill" cx="0.19287833827893175" cy="0.3991031390134529" r="0.06617211022079875">
      <stop offset="0.0" stop-color="rgb(92, 100, 54)" stop-opacity="1.0"/>
      <stop offset="1.0" stop-color="rgb(62, 40, 2)" stop-opacity="0.5237099528312683"/>
    </radialGradient>
    <radialGradient id="shape_50_fill" cx="0.6439169139465876" cy="0.7376681614349776" r="0.06617211022079875">
      <stop offset="0.0" stop-color="rgb(65, 56, 25)" stop-opacity="1.0"/>
      <stop offset="1.0" stop-color="rgb(152, 194, 101)" stop-opacity="0.44933050870895386"/>
    </radialGradient>
    <radialGradient id="shape_51_fill" cx="0.5845697329376854" cy="0.6322869955156951" r="0.06617211022079875">
      <stop offset="0.0" stop-color="rgb(75, 68, 60)" stop-opacity="1.0"/>
      <stop offset="1.0" stop-color="rgb(142, 112, 89)" stop-opacity="0.7004504799842834"/>
    </radialGradient>
    <radialGradient id="shape_52_fill" cx="0.2997032640949555" cy="0.6031390134529148" r="0.06617211022079875">
      <stop offset="0.0" stop-color="rgb(107, 158, 118)" stop-opacity="1.0"/>
      <stop offset="1.0" stop-color="rgb(186, 255, 245)" stop-opacity="0.5298143029212952"/>
    </radialGradient>
    <radialGradient id="shape_53_fill" cx="0.6097922848664689" cy="0.45067264573991034" r="0.06617211022079875">
      <stop offset="0.0" stop-color="rgb(38, 39, 27)" stop-opacity="1.0"/>
      <stop offset="1.0" stop-color="rgb(18, 13, 45)" stop-opacity="0.37511882185935974"/>
    </radialGradient>
    <radialGradient id="shape_54_fill" cx="0.6335311572700296" cy="0.426009002822397" r="0.06617211022079875">
      <stop offset="0.0" stop-color="rgb(67, 49, 20)" stop-opacity="1.0"/>
      <stop offset="1.0" stop-color="rgb(134, 77, 19)" stop-opacity="0.6797053217887878"/>
    </radialGradient>
    <radialGradient id="shape_55_fill" cx="0.3707168533823257" cy="0.5988430827187851" r="0.066001377049115">
      <stop offset="0.43605936" stop-color="rgb(239, 255, 47)" stop-opacity="0.8772556185722351"/>
      <stop offset="0.16089156" stop-color="rgb(202, 255, 0)" stop-opacity="0.7408756017684937"/>
    </radialGradient>
    <radialGradient id="shape_56_fill" cx="0.5489614243323442" cy="0.600896860986547" r="0.06617211022079875">
      <stop offset="0.0" stop-color="rgb(50, 62, 80)" stop-opacity="1.0"/>
      <stop offset="1.0" stop-color="rgb(28, 75, 225)" stop-opacity="0.45613014698028564"/>
    </radialGradient>
    <radialGradient id="shape_57_fill" cx="0.4094955489614243" cy="0.9035874439461884" r="0.06617211022079875">
      <stop offset="0.0" stop-color="rgb(111, 144, 47)" stop-opacity="1.0"/>
      <stop offset="1.0" stop-color="rgb(172, 231, 14)" stop-opacity="0.6606888771057129"/>
    </radialGradient>
    <radialGradient id="shape_58_fill" cx="0.5281899109792285" cy="0.9977578475336323" r="0.06617211022079875">
      <stop offset="0.0" stop-color="rgb(50, 43, 14)" stop-opacity="1.0"/>
      <stop offset="1.0" stop-color="rgb(74, 54, 5)" stop-opacity="1.0"/>
    </radialGradient>
    <radialGradient id="shape_59_fill" cx="0.5845697329376854" cy="0.7690582959641256" r="0.06617211022079875">
      <stop offset="0.0" stop-color="rgb(61, 63, 58)" stop-opacity="1.0"/>
      <stop offset="1.0" stop-color="rgb(78, 76, 96)" stop-opacity="0.7086493968963623"/>
    </radialGradient>
    <radialGradient id="shape_60_fill" cx="0.5489614243323442" cy="0.9977578475336323" r="0.06617211022079875">
      <stop offset="0.0" stop-color="rgb(140, 131, 64)" stop-opacity="1.0"/>
      <stop offset="1.0" stop-color="rgb(237, 209, 89)" stop-opacity="0.9216455817222595"/>
    </radialGradient>
    <radialGradient id="shape_61_fill" cx="0.646940101148113" cy="0.9686598157668862" r="0.0661232436092388">
      <stop offset="0.46213058" stop-color="rgb(255, 227, 60)" stop-opacity="1.0"/>
      <stop offset="0.3194939" stop-color="rgb(240, 179, 15)" stop-opacity="0.8689718246459961"/>
    </radialGradient>
    <radialGradient id="shape_62_fill" cx="0.615727002967359" cy="0.3991031390134529" r="0.06617211022079875">
      <stop offset="0.0" stop-color="rgb(55, 47, 13)" stop-opacity="1.0"/>
      <stop offset="1.0" stop-color="rgb(76, 53, 0)" stop-opacity="1.0"/>
    </radialGradient>
    <radialGradient id="shape_63_fill" cx="0.6261127596439169" cy="0.7286995515695067" r="0.06617211022079875">
      <stop offset="0.0" stop-color="rgb(79, 66, 32)" stop-opacity="1.0"/>
      <stop offset="1.0" stop-color="rgb(197, 207, 107)" stop-opacity="0.6274126768112183"/>
    </radialGradient>
    <radialGradient id="shape_64_fill" cx="0.40801186943620177" cy="0.12556053811659193" r="0.06617211022079875">
      <stop offset="0.0" stop-color="rgb(76, 66, 59)" stop-opacity="1.0"/>
      <stop offset="1.0" stop-color="rgb(106, 78, 72)" stop-opacity="1.0"/>
    </radialGradient>
    <radialGradient id="shape_65_fill" cx="0.6528189910979229" cy="0.6883408071748879" r="0.06617211022079875">
      <stop offset="0.0" stop-color="rgb(121, 97, 39)" stop-opacity="1.0"/>
      <stop offset="1.0" stop-color="rgb(255, 244, 95)" stop-opacity="1.0"/>
    </radialGradient>
    <radialGradient id="shape_66_fill" cx="0.6523233747623794" cy="0.46018468745620794" r="0.0698257808515509">
      <stop offset="0.24788858" stop-color="rgb(162, 196, 112)" stop-opacity="0.3129391074180603"/>
      <stop offset="0.9443853" stop-color="rgb(0, 0, 0)" stop-opacity="0.05617021396756172"/>
    </radialGradient>
    <radialGradient id="shape_67_fill" cx="0.5958888566104877" cy="0.9951100712934418" r="0.06955531655150281">
      <stop offset="0.85035723" stop-color="rgb(53, 30, 0)" stop-opacity="0.7227973341941833"/>
      <stop offset="1.0" stop-color="rgb(0, 0, 0)" stop-opacity="0.15644830465316772"/>
    </radialGradient>
    <radialGradient id="shape_68_fill" cx="0.4900506809132743" cy="0.9966423821556194" r="0.06797020230165929">
      <stop offset="0.36483586" stop-color="rgb(49, 22, 3)" stop-opacity="0.589490532875061"/>
      <stop offset="1.0" stop-color="rgb(38, 63, 56)" stop-opacity="0.23391631245613098"/>
    </radialGradient>
  </defs>
  <g>
    <path d="M -0.4100363850593567 271.0926208496094 C 25.885887145996094 266.1666259765625 37.0048713684082 267.86004638671875 45.4913215637207 272.56365966796875 C 48.11147689819336 274.2420654296875 49.36262130737305 276.2995300292969 57.07989501953125 274.50048828125 C 59.62678146362305 273.8183898925781 63.3253288269043 274.27862548828125 64.4150390625 271.6778259277344 C 69.76541900634766 269.5827941894531 100.15363311767578 270.7281188964844 116.80440521240234 270.87994384765625 C 120.90823364257812 270.82928466796875 124.8522720336914 277.78509521484375 125.17548370361328 282.31109619140625 C 132.72084045410156 282.6964111328125 140.76609802246094 281.5972900390625 158.16908264160156 287.839599609375 C 185.27000427246094 282.430419921875 185.81402587890625 282.3980407714844 206.6802215576172 287.2507629394531 C 200.09384155273438 287.6524963378906 198.21214294433594 281.7098083496094 210.90682983398438 269.7926330566406 C 246.4620361328125 270.06640625 289.89788818359375 268.67120361328125 313.30023193359375 274.6490478515625 C 348.0025939941406 276.5782470703125 424.8406677246094 277.0238037109375 469.17681884765625 271.9349365234375 C 497.7355041503906 269.121826171875 547.1329956054688 269.8919372558594 546.9830932617188 276.7274475097656 C 547.721435546875 276.83197021484375 549.4168090820312 271.9410095214844 570.7457885742188 269.2525329589844 C 586.537353515625 273.2847595214844 612.3685302734375 282.531982421875 612.4838256835938 282.4776306152344 C 624.141845703125 270.85968017578125 633.5780639648438 270.1806945800781 671.4354248046875 269.4716491699219 C 675.8109741210938 272.8299865722656 679.1975708007812 278.95428466796875 678.451171875 284.925048828125 C 676.607421875 339.5119934082031 674.724853515625 391.5029296875 675.1177368164062 446.4668273925781 C 451.9151306152344 446.6697692871094 228.9889373779297 446.8115539550781 -0.4723879098892212 446.4240417480469 C -0.45154836773872375 389.14483642578125 -0.10329777002334595 332.3588562011719 -0.4100363850593567 271.0926208496094" stroke-width="0.0" fill="url(#shape_0_fill)"/>
    <path d="M -0.010983218438923359 271.15093994140625 C 35.933433532714844 275.39617919921875 36.5576057434082 274.5882873535156 44.2693977355957 274.1941833496094 C 47.404518127441406 267.10400390625 59.58669662475586 266.5550231933594 77.78346252441406 268.261962890625 C 113.53874206542969 278.68035888671875 114.0361557006836 279.3109130859375 127.410888671875 279.0218505859375 C 127.89990234375 272.08782958984375 140.89849853515625 270.30780029296875 145.64859008789062 269.2956237792969 C 185.1838836669922 268.62420654296875 185.87896728515625 270.5863952636719 202.78260803222656 274.3916015625 C 203.1146240234375 291.9921569824219 204.3204803466797 292.2768249511719 212.8928680419922 297.3117370605469 C 215.31976318359375 296.4726867675781 267.01043701171875 298.8360595703125 288.1277160644531 300.4807434082031 C 318.0711364746094 302.7088317871094 448.6224670410156 300.7859191894531 462.8279113769531 302.13995361328125 C 479.4752502441406 293.7793884277344 489.48553466796875 291.44891357421875 504.5788269042969 287.11651611328125 C 511.0240783691406 287.99334716796875 520.7213745117188 286.48638916015625 522.8956909179688 286.4828796386719 C 527.4772338867188 285.7027893066406 531.813232421875 285.9244384765625 534.8893432617188 287.11376953125 C 541.8720703125 287.01873779296875 545.5582885742188 288.2899475097656 552.9314575195312 301.1839599609375 C 579.3333129882812 289.7380676269531 581.4939575195312 290.4438171386719 595.3529663085938 294.5863952636719 C 613.0833740234375 289.0938415527344 623.7206420898438 288.0530700683594 633.2459716796875 288.48291015625 C 643.9356079101562 278.5856628417969 655.8269653320312 283.31634521484375 673.8005981445312 291.2955627441406 C 674.0664672851562 340.43505859375 674.4678955078125 392.17596435546875 674.1555786132812 446.2807922363281 C 451.4774169921875 446.3905334472656 229.19664001464844 446.25439453125 -0.3076566159725189 446.2476501464844 C -0.2135799378156662 389.4035949707031 -0.2940194308757782 333.0278625488281 -0.010983218438923359 271.15093994140625" stroke-width="0.0" fill="url(#shape_1_fill)"/>
    <path d="M -0.01993253454566002 -0.25989267230033875 C 219.69313049316406 0.1040392518043518 439.478759765625 -0.45242562890052795 672.4039916992188 -0.17775879800319672 C 665.844970703125 10.895614624023438 644.7704467773438 35.434085845947266 637.9188232421875 48.41930389404297 C 634.2857666015625 53.1218376159668 610.9214477539062 93.25221252441406 584.6292114257812 84.01312255859375 C 577.7005615234375 81.64037322998047 560.9188232421875 70.73426055908203 532.1622314453125 73.9314193725586 C 532.3831176757812 77.5545654296875 524.8672485351562 78.69442749023438 522.3355712890625 72.09380340576172 C 522.6336669921875 68.8587646484375 499.44073486328125 63.82363510131836 499.4484558105469 62.65630340576172 C 492.902099609375 62.13520050048828 486.2278137207031 61.011199951171875 484.48236083984375 68.48162841796875 C 475.2182922363281 72.32453918457031 476.0354309082031 75.55342102050781 477.20843505859375 83.87970733642578 C 485.16455078125 99.00687408447266 477.5658264160156 116.93819427490234 473.9710998535156 120.55413818359375 C 460.5057373046875 117.60639190673828 459.1510925292969 113.65218353271484 450.1106262207031 108.32003021240234 C 435.1763916015625 107.9296646118164 411.7073974609375 102.29717254638672 410.15478515625 105.0545425415039 C 413.17938232421875 120.13372802734375 416.32757568359375 127.00910186767578 413.26202392578125 137.54164123535156 C 409.1968688964844 148.0189666748047 398.3123474121094 147.47238159179688 393.234130859375 136.24063110351562 C 381.56610107421875 142.9586944580078 376.0809326171875 158.18325805664062 369.0770568847656 157.44737243652344 C 366.81402587890625 156.8367462158203 364.5309143066406 160.56643676757812 359.4229431152344 164.90101623535156 C 355.80218505859375 168.1580047607422 352.49505615234375 168.00250244140625 350.77606201171875 173.58377075195312 C 345.33941650390625 180.78749084472656 337.31915283203125 174.7459259033203 339.5476379394531 167.27020263671875 C 301.5502014160156 165.6639862060547 300.2388000488281 172.22500610351562 298.2237548828125 178.72476196289062 C 303.9615173339844 188.0332794189453 304.0919189453125 191.56817626953125 307.469482421875 201.5117950439453 C 307.5025329589844 200.6496124267578 306.07861328125 198.17449951171875 303.9952697753906 190.57591247558594 C 305.0984802246094 185.98822021484375 303.86651611328125 185.42578125 288.64971923828125 176.29458618164062 C 289.66943359375 194.57374572753906 289.1869201660156 195.97238159179688 289.5062255859375 196.2879638671875 C 288.8305969238281 189.97218322753906 289.8033752441406 182.3118896484375 287.80352783203125 176.4005584716797 C 272.4199523925781 179.0247344970703 269.4094543457031 183.72250366210938 261.83099365234375 179.1569366455078 C 255.2256317138672 183.155029296875 255.68637084960938 187.8478240966797 254.92440795898438 197.47000122070312 C 260.72698974609375 199.35696411132812 260.5877990722656 199.94189453125 257.7657775878906 199.57276916503906 C 257.1759033203125 198.42367553710938 253.75750732421875 195.56649780273438 254.32188415527344 193.74578857421875 C 255.9827117919922 186.1248016357422 259.8589172363281 183.8096466064453 256.9055480957031 167.90289306640625 C 258.7424621582031 163.44082641601562 216.39242553710938 141.9238739013672 213.69491577148438 140.47959899902344 C 186.09133911132812 130.81362915039062 195.48556518554688 103.80868530273438 191.50315856933594 86.76385498046875 C 192.16616821289062 84.65263366699219 160.70204162597656 73.62354278564453 133.51199340820312 60.05680465698242 C 109.24723052978516 39.62873840332031 71.92910766601562 56.242454528808594 40.428016662597656 60.68428421020508 C 24.812768936157227 70.06767272949219 4.893341541290283 69.27153015136719 -1.0890743732452393 69.70890045166016 C 0.34183040261268616 43.958133697509766 -0.3314551115036011 22.56187629699707 -0.01993253454566002 -0.25989267230033875" stroke-width="0.0" fill="url(#shape_2_fill)"/>
    <path d="M 86.671142578125 60.096805572509766 C 89.20873260498047 68.75890350341797 91.84010314941406 69.0067138671875 93.40911102294922 70.9466323852539 C 91.08847045898438 80.05938720703125 91.58248138427734 81.56272888183594 90.26766967773438 92.15955352783203 C 96.47451782226562 86.27188873291016 98.44100952148438 86.56484985351562 102.9909896850586 87.869140625 C 104.65925598144531 75.21281433105469 105.86614227294922 73.3868179321289 108.30360412597656 73.229248046875 C 112.34528350830078 87.5489730834961 110.77914428710938 93.3901138305664 116.51970672607422 99.31916046142578 C 116.44966888427734 100.0537109375 116.32978057861328 109.14884948730469 115.53498840332031 115.36851501464844 C 123.76651763916016 115.33871459960938 128.5803985595703 115.73026275634766 129.44845581054688 112.37845611572266 C 130.61590576171875 109.93635559082031 136.68101501464844 108.67298126220703 136.54446411132812 104.70037078857422 C 136.63343811035156 103.6783218383789 135.5528564453125 101.81433868408203 137.28134155273438 98.39435577392578 C 136.48321533203125 93.26750946044922 137.51002502441406 92.89386749267578 137.5852508544922 89.30134582519531 C 137.316162109375 84.99346160888672 138.61856079101562 84.91023254394531 139.53775024414062 87.03624725341797 C 140.14859008789062 82.89646911621094 146.72259521484375 80.70995330810547 148.0608367919922 83.11841583251953 C 148.53472900390625 93.2427978515625 150.16163635253906 94.54763793945312 151.98800659179688 99.10474395751953 C 153.5070037841797 102.95256042480469 149.9178009033203 106.91034698486328 148.83226013183594 106.72196960449219 C 152.6035919189453 109.82501983642578 150.4730682373047 114.11424255371094 148.46591186523438 113.41423797607422 C 154.4089813232422 112.8379135131836 157.89808654785156 122.59339904785156 157.21231079101562 123.28206634521484 C 161.33377075195312 125.04637145996094 165.01344299316406 123.47422790527344 169.62997436523438 122.68582153320312 C 174.39064025878906 119.73004913330078 175.78411865234375 121.51444244384766 177.71554565429688 122.50139617919922 C 179.33103942871094 122.68614959716797 179.9863739013672 125.30554962158203 183.0520477294922 127.6518325805664 C 183.8379669189453 130.199951171875 182.42803955078125 133.11399841308594 183.99366760253906 135.270751953125 C 186.8299560546875 135.2436981201172 187.56651306152344 142.5750274658203 188.86282348632812 145.2108612060547 C 195.04258728027344 146.3197784423828 206.70359802246094 154.0557861328125 201.61061096191406 172.9794464111328 C 205.35494995117188 176.37026977539062 205.83848571777344 178.72366333007812 205.440185546875 181.65826416015625 C 213.61279296875 181.51683044433594 214.46400451660156 196.13275146484375 212.41159057617188 203.01516723632812 C 205.32073974609375 206.73764038085938 203.3031005859375 207.2576141357422 203.13638305664062 210.25416564941406 C 200.75698852539062 210.5226593017578 199.94679260253906 211.69932556152344 200.16259765625 213.51303100585938 C 196.3296661376953 215.25509643554688 193.43125915527344 215.33876037597656 191.9746856689453 219.68865966796875 C 184.28065490722656 220.90646362304688 183.59414672851562 224.74403381347656 178.5365447998047 230.13571166992188 C 176.41229248046875 233.53993225097656 180.5243377685547 239.13568115234375 181.09671020507812 240.83575439453125 C 182.20669555664062 251.9940948486328 186.08262634277344 261.1103515625 178.79251098632812 264.9176940917969 C 173.9138946533203 268.2439880371094 148.6761474609375 268.32568359375 136.34925842285156 269.592529296875 C 132.02281188964844 269.3305358886719 128.98646545410156 272.2502136230469 121.8624496459961 275.30389404296875 C 109.13292694091797 276.914306640625 73.28276824951172 276.0447692871094 73.03843688964844 270.0299072265625 C 47.69609069824219 266.7707214355469 56.55286407470703 268.5696105957031 57.58622360229492 273.57952880859375 C 48.18164825439453 276.38177490234375 1.0104155540466309 272.8458557128906 0.7831442952156067 269.9632568359375 C -5.6046857833862305 224.0448455810547 -4.881891250610352 167.0829315185547 2.2367632389068604 121.50818634033203 C 11.452203750610352 118.73344421386719 21.70672035217285 114.06816101074219 26.023468017578125 121.76785278320312 C 27.126325607299805 129.45494079589844 35.67015075683594 129.0507049560547 41.98468780517578 131.94223022460938 C 47.09475326538086 130.1920623779297 47.540374755859375 131.27615356445312 49.45718765258789 142.22732543945312 C 50.30774688720703 148.3613739013672 61.495582580566406 148.65579223632812 62.742637634277344 146.28524780273438 C 62.194190979003906 136.82994079589844 63.07215881347656 133.96376037597656 62.18720626831055 128.27056884765625 C 68.3686752319336 126.69316864013672 67.60531616210938 123.46798706054688 66.31236267089844 112.51810455322266 C 67.9661636352539 111.14387512207031 68.40032196044922 106.1396713256836 75.84565734863281 102.78665161132812 C 74.11396026611328 100.8504409790039 78.3318099975586 91.71399688720703 77.2177963256836 85.63701629638672 C 77.16950225830078 83.79524230957031 77.88375091552734 74.86743927001953 85.40204620361328 75.36888885498047 C 82.9732437133789 70.08345794677734 82.73128509521484 67.53904724121094 86.671142578125 60.096805572509766" stroke-width="0.0" fill="url(#shape_3_fill)"/>
    <path d="M 674.0281372070312 -0.7684046626091003 C 676.115478515625 47.827083587646484 675.0172119140625 95.90823364257812 680.0572509765625 139.38710021972656 C 677.0233154296875 126.85282135009766 668.9013671875 123.63984680175781 661.6080932617188 120.29472351074219 C 660.8684692382812 120.06074523925781 655.086181640625 109.38675689697266 649.782470703125 110.91825866699219 C 648.7700805664062 112.53074645996094 645.1403198242188 149.37033081054688 642.8861083984375 155.65992736816406 C 629.8556518554688 154.57936096191406 626.8024291992188 142.96212768554688 627.0656127929688 138.4270782470703 C 623.0279541015625 137.4202117919922 618.9498901367188 145.3415069580078 615.4288940429688 144.07362365722656 C 611.6814575195312 142.31573486328125 610.1565551757812 143.3416290283203 607.7720947265625 141.09202575683594 C 608.9124145507812 137.89755249023438 612.4617919921875 132.96885681152344 606.7179565429688 119.98455047607422 C 598.2800903320312 133.9097900390625 597.5177612304688 139.31727600097656 594.2612915039062 142.70016479492188 C 599.1678466796875 146.9173583984375 597.606201171875 151.79319763183594 597.505126953125 152.1978759765625 C 588.655029296875 157.5421142578125 587.3956909179688 164.236572265625 579.2511596679688 172.29074096679688 C 571.8615112304688 170.3060760498047 569.9155883789062 158.52493286132812 568.7137451171875 157.1060791015625 C 565.8021850585938 157.6482391357422 563.4658813476562 153.62847900390625 561.697998046875 151.67373657226562 C 560.1016235351562 150.6522216796875 556.2242431640625 150.9739227294922 555.806640625 156.128173828125 C 551.9166259765625 156.1553955078125 550.3610229492188 158.8546600341797 548.8348388671875 158.71263122558594 C 547.5516967773438 156.71578979492188 544.3228149414062 156.369384765625 536.1680297851562 153.7232666015625 C 531.7905883789062 154.89707946777344 529.9672241210938 158.72164916992188 523.1714477539062 156.90155029296875 C 519.1672973632812 160.54330444335938 520.3624877929688 162.12054443359375 522.9681396484375 169.368896484375 C 517.6105346679688 168.4349822998047 517.156005859375 170.90406799316406 516.2909545898438 171.66921997070312 C 511.2713623046875 173.32232666015625 509.8157043457031 175.26531982421875 505.6387939453125 174.399169921875 C 502.7736511230469 171.3988800048828 502.99871826171875 169.52085876464844 502.73016357421875 159.0475616455078 C 492.7238464355469 145.38125610351562 507.2201232910156 121.733154296875 518.2997436523438 126.52249908447266 C 523.72900390625 125.27515411376953 539.78076171875 110.27986907958984 548.8043212890625 112.99980163574219 C 557.2286376953125 110.71540069580078 556.9056396484375 109.38128662109375 558.0632934570312 107.36256408691406 C 559.8883666992188 108.42245483398438 564.9322509765625 102.77601623535156 570.4707641601562 104.95503234863281 C 574.5901489257812 102.42808532714844 573.4269409179688 97.46366119384766 578.9754638671875 94.1188735961914 C 584.6544799804688 88.47894287109375 596.3515014648438 77.50672149658203 613.4502563476562 78.28382873535156 C 616.9149780273438 73.58585357666016 645.0769653320312 51.29130554199219 645.2388916015625 35.5086669921875 C 644.9821166992188 32.45109939575195 648.0005493164062 30.393447875976562 647.6632080078125 29.54954719543457 C 646.9861450195312 28.300357818603516 664.4351196289062 -4.1564435958862305 674.0281372070312 -0.7684046626091003" stroke-width="0.0" fill="url(#shape_4_fill)"/>
    <path d="M 151.57693481445312 68.50932312011719 C 152.31077575683594 69.05400848388672 186.13658142089844 84.58432006835938 192.6907958984375 92.79559326171875 C 179.29795837402344 117.80292510986328 217.70347595214844 150.06329345703125 220.85948181152344 154.91830444335938 C 238.8604278564453 170.0583953857422 241.98101806640625 184.1741943359375 240.8144073486328 193.8638153076172 C 238.12059020996094 193.19906616210938 236.1763458251953 186.5065155029297 236.7698516845703 184.06141662597656 C 235.68211364746094 183.56329345703125 234.15689086914062 184.29917907714844 231.076171875 182.7061767578125 C 231.12905883789062 183.95985412597656 232.12945556640625 194.0117950439453 228.6300506591797 195.66818237304688 C 227.58291625976562 196.635498046875 227.11692810058594 205.34536743164062 221.40115356445312 207.70904541015625 C 215.07846069335938 206.59056091308594 214.31610107421875 197.87290954589844 214.65887451171875 194.87893676757812 C 212.96011352539062 185.43746948242188 211.89691162109375 184.9449920654297 206.51539611816406 177.40081787109375 C 205.86265563964844 173.08993530273438 205.93174743652344 166.27243041992188 204.06988525390625 159.08421325683594 C 206.2690887451172 153.3046875 194.84640502929688 144.6865692138672 193.37452697753906 141.20123291015625 C 189.0750274658203 140.2459716796875 188.84608459472656 137.36553955078125 186.62005615234375 135.92767333984375 C 178.37115478515625 133.21633911132812 179.02090454101562 126.86768341064453 183.2646484375 117.30793762207031 C 179.3900909423828 116.46833801269531 177.39755249023438 117.6545181274414 172.95620727539062 117.76502227783203 C 179.19818115234375 128.06716918945312 175.66708374023438 131.10589599609375 151.8040771484375 130.30043029785156 C 149.47808837890625 127.23873138427734 151.92823791503906 103.0489501953125 153.9689483642578 94.51160430908203 C 152.9069061279297 88.78630065917969 153.41455078125 86.8486557006836 149.912841796875 76.31047058105469 C 148.14988708496094 75.91743469238281 148.60972595214844 69.29512786865234 151.57693481445312 68.50932312011719" stroke-width="0.0" fill="url(#shape_5_fill)"/>
    <path d="M 611.485595703125 81.72840118408203 C 618.6734008789062 84.1253662109375 619.64697265625 86.04278564453125 631.0831909179688 85.72782897949219 C 636.1104736328125 86.00624084472656 637.1570434570312 87.88813018798828 641.2083740234375 89.1645278930664 C 642.1557006835938 87.37354278564453 667.0281372070312 92.4842300415039 674.7443237304688 98.30628204345703 C 675.3247680664062 110.71961212158203 674.7556762695312 125.95275115966797 675.3482666015625 150.81884765625 C 665.7838745117188 142.6023712158203 663.0797119140625 136.48846435546875 659.5328979492188 130.47267150878906 C 659.6267700195312 122.07640075683594 660.37646484375 116.4557876586914 652.66845703125 111.98181915283203 C 646.4959716796875 114.67170715332031 644.6738891601562 142.30746459960938 642.3394775390625 143.08865356445312 C 643.7463989257812 144.83364868164062 642.6254272460938 148.30047607421875 643.856201171875 150.45668029785156 C 639.9096069335938 150.747314453125 637.8843383789062 152.741943359375 635.012939453125 153.17140197753906 C 631.5831909179688 146.21774291992188 629.1922607421875 141.39401245117188 630.0955810546875 140.53292846679688 C 628.8711547851562 137.87655639648438 621.926025390625 137.18521118164062 620.8117065429688 138.73886108398438 C 618.2651977539062 140.57432556152344 619.356689453125 142.36502075195312 618.5928955078125 147.13162231445312 C 614.4971923828125 144.6134033203125 613.5277709960938 143.1900177001953 610.1719970703125 143.6448211669922 C 608.5319213867188 140.40615844726562 609.5867309570312 139.24322509765625 609.176513671875 137.40968322753906 C 606.5484619140625 132.28863525390625 604.9287109375 126.65125274658203 598.34765625 128.16912841796875 C 605.1666870117188 133.71856689453125 595.2559814453125 148.24276733398438 591.781494140625 155.78451538085938 C 590.495361328125 163.8255157470703 589.1431274414062 164.04737854003906 585.547607421875 169.1201934814453 C 584.8562622070312 167.5363006591797 583.878173828125 165.4429168701172 589.8753662109375 154.7305450439453 C 585.7050170898438 150.22544860839844 580.4154052734375 148.584228515625 575.5464477539062 146.35350036621094 C 565.4087524414062 156.17019653320312 556.660400390625 155.2917938232422 556.0531616210938 151.3699951171875 C 555.843994140625 152.91612243652344 553.0756225585938 154.70777893066406 552.8970947265625 157.7660675048828 C 551.1892700195312 161.63717651367188 548.0270385742188 160.5096435546875 547.374267578125 159.094970703125 C 544.4943237304688 156.5883026123047 542.8419799804688 154.3551483154297 537.466796875 157.34954833984375 C 534.9996948242188 158.49432373046875 531.2340698242188 157.5023956298828 528.725341796875 158.22396850585938 C 526.1986694335938 159.3356170654297 526.4356079101562 162.71775817871094 525.0753173828125 165.81910705566406 C 524.4839477539062 169.41773986816406 523.5279541015625 171.56565856933594 519.035888671875 173.08468627929688 C 511.8281555175781 177.3100128173828 503.5180358886719 173.31881713867188 487.8629150390625 162.7576446533203 C 483.7745361328125 137.9000244140625 501.2945251464844 118.49457550048828 512.9650268554688 118.18048095703125 C 529.52880859375 127.4808349609375 540.46533203125 108.2078857421875 549.8458862304688 111.70586395263672 C 555.5380859375 110.00269317626953 560.3917236328125 109.81214904785156 563.9063720703125 106.75112915039062 C 564.6258544921875 104.5067367553711 566.6090698242188 103.60565948486328 569.88671875 104.47570037841797 C 574.425048828125 101.30546569824219 578.5242919921875 97.71199798583984 586.76220703125 99.3182601928711 C 600.2800903320312 93.28838348388672 603.7360229492188 80.09759521484375 611.485595703125 81.72840118408203" stroke-width="0.0" fill="url(#shape_6_fill)"/>
    <path d="M 1.0557749271392822 105.9022445678711 C 33.36931228637695 115.97956848144531 41.63895034790039 124.79022979736328 51.296138763427734 139.41102600097656 C 80.66962432861328 154.5664825439453 51.63657760620117 214.6439666748047 44.37492370605469 240.17784118652344 C 50.492454528808594 260.2296447753906 48.451725006103516 264.6277160644531 48.39238357543945 265.4647216796875 C 46.83513259887695 262.4238586425781 19.783855438232422 257.9836120605469 10.790022850036621 254.3519287109375 C 4.650784969329834 209.48411560058594 -5.358608245849609 167.95816040039062 1.0557749271392822 105.9022445678711" stroke-width="0.0" fill="url(#shape_7_fill)"/>
    <path d="M 385.2149963378906 196.02622985839844 C 421.2262268066406 183.10537719726562 427.3626403808594 190.92933654785156 429.62841796875 204.2079620361328 C 474.54669189453125 190.16563415527344 496.29937744140625 204.881591796875 491.7095642089844 231.8773193359375 C 490.9967956542969 250.48971557617188 486.2298889160156 251.49606323242188 484.8619689941406 252.39630126953125 C 485.9537048339844 258.8656921386719 482.4541320800781 268.9034423828125 476.98736572265625 269.0983581542969 C 469.04290771484375 272.9302978515625 453.2210388183594 266.7112731933594 451.62725830078125 269.7127380371094 C 447.0453796386719 266.2817687988281 448.2510070800781 261.2100830078125 449.0423889160156 260.1714782714844 C 439.2543640136719 264.7770080566406 436.5153503417969 261.4161071777344 437.4412536621094 256.8052978515625 C 426.9974060058594 256.8121032714844 425.711669921875 259.19012451171875 421.16168212890625 262.1195373535156 C 418.541748046875 264.25152587890625 417.62176513671875 267.6792907714844 414.92657470703125 273.2602233886719 C 414.1123352050781 272.6416320800781 392.6353759765625 268.2007141113281 392.5843811035156 264.180419921875 C 391.8230895996094 265.10955810546875 388.97857666015625 263.3432312011719 385.9298095703125 263.67706298828125 C 382.11279296875 261.9541931152344 380.8193664550781 263.186767578125 376.5113525390625 261.0680236816406 C 374.9097595214844 256.3305358886719 376.1116943359375 252.48643493652344 372.33074951171875 249.52711486816406 C 359.34185791015625 243.68276977539062 374.1682434082031 195.7898406982422 378.6651916503906 178.2371368408203 C 384.0389709472656 170.82420349121094 393.7539367675781 176.73226928710938 385.2149963378906 196.02622985839844" stroke-width="0.0" fill="url(#shape_8_fill)"/>
    <path d="M 566.2335205078125 157.2947235107422 C 568.2860107421875 158.85560607910156 568.161865234375 166.62303161621094 569.4447631835938 168.0035400390625 C 573.5143432617188 169.46250915527344 573.6658325195312 170.96453857421875 577.5603637695312 174.3763427734375 C 581.931884765625 172.94393920898438 583.9734497070312 174.56646728515625 583.7063598632812 179.4730682373047 C 575.343017578125 180.4774169921875 572.0625610351562 225.61631774902344 577.2882080078125 226.96578979492188 C 577.8931274414062 229.94174194335938 581.2896118164062 235.6640167236328 577.1102294921875 241.608642578125 C 568.7420654296875 238.5674591064453 566.4879760742188 237.18739318847656 558.7025756835938 247.3511199951172 C 554.140869140625 250.3566436767578 495.4397888183594 254.2086181640625 487.6660461425781 251.63006591796875 C 486.0869140625 250.21572875976562 486.8728332519531 239.2657928466797 492.0691833496094 229.3874053955078 C 486.4142761230469 226.28439331054688 483.1785888671875 222.2996063232422 481.7672424316406 215.6369171142578 C 476.71575927734375 209.84205627441406 479.3174743652344 205.83981323242188 482.76287841796875 205.97781372070312 C 480.0986633300781 205.33828735351562 481.5103454589844 198.9866485595703 488.9354553222656 198.9188232421875 C 491.9571533203125 196.20567321777344 491.8173522949219 192.5032196044922 492.8384704589844 187.91641235351562 C 489.912841796875 174.14840698242188 490.32794189453125 173.15780639648438 487.6468505859375 164.52528381347656 C 504.2012634277344 163.35195922851562 505.6972961425781 165.8394012451172 516.9552001953125 165.0300750732422 C 523.0921020507812 169.37704467773438 524.7739868164062 167.26817321777344 525.9757690429688 167.6106414794922 C 523.61279296875 161.19638061523438 531.1073608398438 156.1083984375 533.3067626953125 158.65296936035156 C 537.6200561523438 161.8542938232422 541.3825073242188 162.46826171875 542.1712036132812 163.9727020263672 C 545.2247314453125 164.06996154785156 545.8654174804688 165.8114471435547 549.7561645507812 166.62347412109375 C 548.9754638671875 165.6244354248047 551.2426147460938 157.3225860595703 554.6000366210938 158.1710662841797 C 557.9794311523438 160.95452880859375 563.0441284179688 157.8529510498047 566.2335205078125 157.2947235107422" stroke-width="0.0" fill="url(#shape_9_fill)"/>
    <path d="M 561.5997924804688 156.66233825683594 C 566.1818237304688 152.93258666992188 571.1279296875 158.37501525878906 570.90087890625 170.43109130859375 C 572.2606201171875 169.1730499267578 576.1500244140625 169.2198944091797 579.4845581054688 174.7279052734375 C 580.5930786132812 178.1123046875 579.284423828125 187.45196533203125 577.5512084960938 191.54898071289062 C 571.27783203125 196.75469970703125 571.9902954101562 229.97225952148438 578.077392578125 230.97691345214844 C 576.070068359375 231.159423828125 575.6058349609375 236.8361358642578 572.0474853515625 238.02951049804688 C 560.1057739257812 235.90037536621094 567.3407592773438 238.6419677734375 563.87255859375 247.92506408691406 C 548.5300903320312 253.40414428710938 501.2867736816406 249.22007751464844 500.1826477050781 251.64990234375 C 491.064208984375 251.8217315673828 487.8670654296875 236.99322509765625 491.3896789550781 230.0089874267578 C 486.6233825683594 224.927978515625 481.983642578125 219.2733917236328 481.62060546875 215.51747131347656 C 475.57403564453125 214.41973876953125 474.27520751953125 214.30101013183594 464.48114013671875 197.6397247314453 C 464.0057678222656 187.35633850097656 474.4053649902344 183.37966918945312 483.39447021484375 195.510986328125 C 489.9219665527344 197.4279022216797 494.45941162109375 184.26095581054688 496.6294250488281 182.95521545410156 C 495.3050842285156 178.85919189453125 497.5856018066406 177.68028259277344 500.1719055175781 177.43429565429688 C 507.9331359863281 179.0782470703125 516.5538940429688 181.66934204101562 520.5271606445312 174.048583984375 C 523.5618286132812 173.3408660888672 526.7567138671875 159.22091674804688 531.4014892578125 155.40457153320312 C 537.9513549804688 156.1425323486328 538.5612182617188 159.98248291015625 540.2952270507812 166.04901123046875 C 545.7584228515625 165.9342498779297 549.0543212890625 167.3793487548828 551.33056640625 166.23941040039062 C 551.0885620117188 155.9867401123047 553.09912109375 153.05870056152344 561.5997924804688 156.66233825683594" stroke-width="0.0" fill="url(#shape_10_fill)"/>
    <path d="M 447.7053527832031 107.61489868164062 C 452.8044738769531 110.83154296875 453.9962463378906 112.27031707763672 462.1531066894531 112.0743408203125 C 464.881591796875 116.93424224853516 469.2969665527344 115.17253875732422 480.35784912109375 112.30752563476562 C 488.5863952636719 124.4953384399414 488.7603759765625 125.25625610351562 492.8196716308594 131.10958862304688 C 493.9710388183594 131.46319580078125 493.324951171875 134.6163330078125 496.9916687011719 136.36740112304688 C 494.4034118652344 135.5716094970703 492.66546630859375 138.05709838867188 488.9308166503906 141.23345947265625 C 483.023681640625 137.0923614501953 481.61248779296875 138.95770263671875 477.4944152832031 143.44888305664062 C 467.5062255859375 140.8965301513672 466.1571350097656 139.33212280273438 465.6358337402344 134.4083709716797 C 464.62457275390625 133.5283966064453 460.6892395019531 133.53543090820312 460.31494140625 134.2842559814453 C 461.0472106933594 134.08424377441406 478.1899719238281 144.39382934570312 492.2573547363281 153.30282592773438 C 476.4143981933594 176.764404296875 475.4422912597656 177.23187255859375 472.86590576171875 181.94239807128906 C 467.1661071777344 182.7119903564453 466.76922607421875 187.6024627685547 466.0182800292969 189.46559143066406 C 463.3178405761719 184.2974090576172 462.1966857910156 173.1529083251953 458.2672119140625 170.0272216796875 C 448.275634765625 179.32281494140625 447.485107421875 182.43190002441406 439.8987121582031 183.0845489501953 C 439.43878173828125 183.85874938964844 435.7911682128906 195.64183044433594 434.8372802734375 197.4069366455078 C 429.7819519042969 200.182373046875 417.5311279296875 180.57424926757812 417.7009582519531 179.74603271484375 C 416.9395751953125 179.68331909179688 398.1134338378906 179.86932373046875 397.7803955078125 173.1096649169922 C 393.77557373046875 171.01748657226562 389.7967224121094 176.37303161621094 379.6847229003906 174.71817016601562 C 381.6990051269531 160.688720703125 381.3009033203125 148.5185089111328 392.4953308105469 138.9996337890625 C 397.9287414550781 137.2640838623047 399.5051574707031 129.79022216796875 402.0668640136719 121.30122375488281 C 407.5308837890625 99.14886474609375 426.2066955566406 103.29905700683594 447.7053527832031 107.61489868164062" stroke-width="0.0" fill="url(#shape_11_fill)"/>
    <path d="M 602.9061279296875 127.61129760742188 C 605.8268432617188 130.64764404296875 605.5257568359375 143.6129150390625 607.5474243164062 144.79876708984375 C 611.20068359375 145.50303649902344 611.8430786132812 148.9365692138672 615.8238525390625 152.71791076660156 C 618.181640625 149.8759002685547 618.2179565429688 141.8074951171875 621.38623046875 141.0433807373047 C 623.1449584960938 137.45750427246094 625.4209594726562 137.41883850097656 627.5729370117188 140.31898498535156 C 627.5238037109375 142.14996337890625 628.9918212890625 144.75259399414062 628.8657836914062 147.2149658203125 C 632.1085815429688 149.7645721435547 631.7536010742188 151.16940307617188 636.596435546875 153.44317626953125 C 642.1892700195312 154.71316528320312 641.9223022460938 160.4496307373047 646.9601440429688 169.8443145751953 C 639.1837158203125 185.0338134765625 640.0497436523438 194.90098571777344 640.4155883789062 206.63084411621094 C 648.5983276367188 215.16661071777344 649.8688354492188 232.11705017089844 642.93310546875 245.7189483642578 C 623.084716796875 248.36671447753906 611.6422119140625 249.1295166015625 579.8914184570312 262.3293762207031 C 570.0310668945312 250.8900909423828 575.3594360351562 232.28570556640625 574.8525390625 217.9248504638672 C 568.1121215820312 209.48255920410156 572.0872802734375 168.92115783691406 583.3125610351562 169.8051300048828 C 597.2178344726562 163.33763122558594 599.531494140625 143.72853088378906 599.9346923828125 142.06764221191406 C 595.744140625 139.7009735107422 596.7556762695312 136.8451690673828 602.9061279296875 127.61129760742188" stroke-width="0.0" fill="url(#shape_12_fill)"/>
    <path d="M 410.9576721191406 176.5332794189453 C 420.3443298339844 173.87380981445312 432.9764709472656 213.17156982421875 428.9482421875 220.46099853515625 C 419.8216247558594 227.8148956298828 426.8891906738281 238.0244903564453 429.7448425292969 242.71531677246094 C 430.0238952636719 262.780517578125 420.85888671875 266.2012939453125 415.4464416503906 268.5859375 C 403.40240478515625 266.6375732421875 400.51318359375 271.5476989746094 390.75335693359375 267.4992980957031 C 385.4832458496094 264.8699035644531 382.49261474609375 266.05462646484375 380.0658874511719 265.380859375 C 375.51312255859375 263.3415832519531 375.2785949707031 260.6448974609375 375.1436462402344 258.46185302734375 C 376.37677001953125 255.4097900390625 374.74249267578125 254.51736450195312 374.7598876953125 253.47201538085938 C 372.31195068359375 254.7723846435547 370.16790771484375 251.0492706298828 368.60986328125 251.7910614013672 C 359.90283203125 248.64486694335938 366.749267578125 229.6849822998047 367.27923583984375 221.23182678222656 C 369.165771484375 218.8131103515625 372.22540283203125 202.78512573242188 381.8203430175781 203.1940460205078 C 379.1925354003906 195.96682739257812 379.3468322753906 189.7288818359375 389.8492126464844 186.4556884765625 C 391.61767578125 176.981201171875 392.87542724609375 177.18016052246094 410.9576721191406 176.5332794189453" stroke-width="0.0" fill="url(#shape_13_fill)"/>
    <path d="M 508.6051330566406 66.95064544677734 C 512.6573486328125 65.98782348632812 521.3267211914062 70.09431457519531 523.1867065429688 74.93196868896484 C 530.740966796875 79.39987182617188 533.8366088867188 80.0113525390625 536.7195434570312 90.21622467041016 C 539.2784423828125 90.89877319335938 544.5418701171875 90.29625701904297 545.0235595703125 91.17037963867188 C 545.535888671875 92.74726867675781 556.13134765625 96.91271209716797 559.4869384765625 95.41195678710938 C 563.5185546875 97.56554412841797 567.332763671875 97.54108428955078 568.7451782226562 99.1930160522461 C 564.5027465820312 105.26223754882812 556.4019775390625 115.5119857788086 542.2101440429688 110.8861312866211 C 541.3935546875 111.84005737304688 539.3289794921875 114.93006896972656 534.78125 118.41541290283203 C 528.0360717773438 120.93579864501953 520.0205078125 124.37120056152344 515.5661010742188 118.66356658935547 C 511.26593017578125 120.30558776855469 501.4728088378906 125.50410461425781 499.09747314453125 125.13423156738281 C 497.11102294921875 128.42958068847656 493.6695556640625 128.4285888671875 489.4466552734375 127.37328338623047 C 489.6323547363281 120.7071762084961 468.8182373046875 118.81187438964844 468.10955810546875 117.8081283569336 C 463.541015625 117.78437805175781 462.93572998046875 116.71358489990234 462.1577453613281 115.938720703125 C 469.6347961425781 117.89197540283203 472.42437744140625 111.26793670654297 477.96539306640625 106.65521240234375 C 474.93017578125 93.0802230834961 473.2568359375 87.04720306396484 475.0639953613281 82.04591369628906 C 474.5901184082031 70.93402862548828 475.34326171875 70.38641357421875 478.2978210449219 66.43648529052734 C 478.874755859375 64.10055541992188 482.6409912109375 64.12569427490234 484.46514892578125 63.198455810546875 C 495.8522033691406 64.16154479980469 502.00152587890625 61.180503845214844 508.6051330566406 66.95064544677734" stroke-width="0.0" fill="url(#shape_14_fill)"/>
    <path d="M 532.8309936523438 160.44744873046875 C 543.8822631835938 162.70309448242188 544.1697387695312 163.5832061767578 547.0086059570312 165.11544799804688 C 549.6746215820312 167.6383514404297 549.57958984375 170.2572784423828 544.1173706054688 179.6813201904297 C 541.9375 189.81695556640625 536.8963012695312 231.2409210205078 536.5113525390625 233.41627502441406 C 540.6461181640625 237.50640869140625 541.0433349609375 250.929443359375 515.7769165039062 252.3057098388672 C 502.5444641113281 251.34292602539062 483.4126892089844 244.00233459472656 487.8587341308594 230.32644653320312 C 476.7133483886719 218.45416259765625 478.42529296875 208.09779357910156 482.838134765625 201.44784545898438 C 486.9010009765625 196.9671630859375 487.8943786621094 197.79908752441406 489.05560302734375 198.45001220703125 C 482.9833068847656 195.70654296875 488.6026916503906 182.27938842773438 487.7620544433594 172.80374145507812 C 487.01556396484375 167.6659698486328 489.0179138183594 166.18780517578125 491.8022155761719 166.82119750976562 C 505.6180114746094 178.8228302001953 511.1433410644531 184.17745971679688 522.7340087890625 172.72943115234375 C 525.5528564453125 170.96029663085938 525.542236328125 167.31161499023438 526.9166870117188 165.12750244140625 C 525.8316040039062 159.05064392089844 528.7400512695312 158.08831787109375 532.8309936523438 160.44744873046875" stroke-width="0.0" fill="url(#shape_15_fill)"/>
    <path d="M 651.8147583007812 109.96302795410156 C 653.978515625 110.4654541015625 663.5741577148438 121.75770568847656 660.012451171875 131.6698760986328 C 664.2285766601562 135.81036376953125 664.6182250976562 142.7003936767578 673.2728271484375 148.29205322265625 C 677.1427001953125 178.69564819335938 673.5877685546875 211.33502197265625 675.1517944335938 263.4612121582031 C 674.0834350585938 261.7050476074219 639.5390014648438 269.1551513671875 634.1097412109375 259.9927978515625 C 637.8427734375 245.9736785888672 641.9944458007812 123.85162353515625 651.8147583007812 109.96302795410156" stroke-width="0.0" fill="url(#shape_16_fill)"/>
    <path d="M 601.1387329101562 129.7218017578125 C 603.2718505859375 128.26641845703125 606.794921875 131.99148559570312 606.2575073242188 134.05035400390625 C 608.4374389648438 135.0369110107422 607.1755981445312 140.84991455078125 609.4596557617188 143.54017639160156 C 627.7457275390625 142.88722229003906 630.56591796875 219.30101013183594 632.3395385742188 262.3599548339844 C 587.7435302734375 266.8883056640625 576.9320068359375 259.2467346191406 579.6815795898438 237.91319274902344 C 562.9454345703125 226.42572021484375 597.9727172851562 154.76824951171875 601.1387329101562 129.7218017578125" stroke-width="0.0" fill="url(#shape_17_fill)"/>
    <path d="M 320.549072265625 186.31468200683594 C 320.82818603515625 186.5239715576172 322.5533447265625 189.48020935058594 320.4222717285156 198.26512145996094 C 332.8465576171875 193.8389434814453 334.4483337402344 193.09521484375 337.3513488769531 196.3016815185547 C 342.40576171875 200.4010772705078 346.060791015625 197.77059936523438 353.62371826171875 193.23545837402344 C 358.44097900390625 193.73301696777344 359.01715087890625 194.60606384277344 356.9226379394531 201.6326446533203 C 359.3665771484375 204.11737060546875 361.48388671875 204.29331970214844 363.25457763671875 209.0446319580078 C 367.2738037109375 207.12522888183594 368.4971008300781 208.22418212890625 368.12384033203125 211.8361053466797 C 370.5459899902344 219.9613494873047 370.3728332519531 223.0546112060547 365.86090087890625 226.15086364746094 C 366.3570861816406 231.56715393066406 364.4925231933594 236.0165557861328 366.6219177246094 248.48516845703125 C 369.16766357421875 252.1137237548828 366.5312194824219 256.1690979003906 358.02557373046875 254.68313598632812 C 354.4799499511719 255.68338012695312 328.678466796875 254.91757202148438 322.67669677734375 255.3440399169922 C 313.3757629394531 255.96279907226562 312.1468505859375 253.59890747070312 307.8103332519531 242.90293884277344 C 304.3471374511719 229.9407196044922 321.0833435058594 194.68881225585938 320.549072265625 186.31468200683594" stroke-width="0.0" fill="url(#shape_18_fill)"/>
    <path d="M 478.34039306640625 218.8363494873047 C 498.07696533203125 249.55711364746094 509.4896545410156 262.24310302734375 491.2522277832031 278.7445373535156 C 470.7252197265625 279.2093505859375 443.9974365234375 261.4657897949219 442.1302795410156 261.7501220703125 C 438.6710205078125 260.60992431640625 437.1398010253906 258.2502136230469 432.5497131347656 258.1162414550781 C 429.3859558105469 258.6343994140625 428.0960388183594 256.8246765136719 428.75732421875 253.83978271484375 C 431.1981506347656 237.51748657226562 422.2691650390625 233.06912231445312 422.95330810546875 229.7010955810547 C 423.1354064941406 226.916015625 421.1216735839844 226.68722534179688 420.1938781738281 225.0934295654297 C 427.756103515625 219.5666046142578 429.69110107421875 218.8286590576172 428.7043762207031 215.1842041015625 C 438.2884216308594 197.5070343017578 475.3774719238281 198.07281494140625 478.34039306640625 218.8363494873047" stroke-width="0.0" fill="url(#shape_19_fill)"/>
    <path d="M 673.9052124023438 -2.997427225112915 C 675.0643920898438 32.851951599121094 674.5833740234375 64.7638168334961 674.392578125 97.1075439453125 C 669.5494384765625 96.13473510742188 652.8576049804688 87.79605102539062 644.428466796875 90.07313537597656 C 638.6092529296875 89.54727935791016 638.1390991210938 85.97869873046875 637.49609375 84.36746978759766 C 626.197509765625 84.39129638671875 619.703125 92.7682876586914 607.9853515625 86.78850555419922 C 610.2477416992188 74.7518539428711 613.2206420898438 73.72895812988281 614.6679077148438 71.75017547607422 C 622.5130004882812 68.66970825195312 648.6608276367188 25.150615692138672 647.2902221679688 21.556133270263672 C 655.265625 9.500101089477539 656.5198364257812 3.415287733078003 668.4829711914062 3.761580228805542 C 669.8114624023438 2.68040132522583 670.1302490234375 1.0935866832733154 673.9052124023438 -2.997427225112915" stroke-width="0.0" fill="url(#shape_20_fill)"/>
    <path d="M 562.0363159179688 155.95535278320312 C 569.8333740234375 156.52816772460938 569.8673095703125 162.04530334472656 573.9381713867188 165.28338623046875 C 584.750732421875 168.31300354003906 575.2842407226562 231.222900390625 577.2406005859375 240.73468017578125 C 576.6058349609375 244.84283447265625 575.5745239257812 246.94921875 576.4702758789062 260.4157409667969 C 553.6595458984375 256.0867614746094 542.6901245117188 253.30409240722656 540.0755615234375 246.3126678466797 C 544.4525756835938 244.71905517578125 541.9644775390625 166.06405639648438 555.0540771484375 157.59469604492188 C 555.4846801757812 153.30091857910156 558.8851928710938 152.37646484375 562.0363159179688 155.95535278320312" stroke-width="0.0" fill="url(#shape_21_fill)"/>
    <path d="M 215.14529418945312 209.88450622558594 C 233.5553741455078 209.12867736816406 234.85577392578125 240.36109924316406 220.28550720214844 255.82159423828125 C 211.7905731201172 263.2876892089844 209.91693115234375 264.46490478515625 209.01280212402344 273.1891784667969 C 205.92376708984375 275.3697814941406 206.804931640625 277.12689208984375 206.57933044433594 280.3044128417969 C 206.8611297607422 283.03509521484375 203.66612243652344 285.5732116699219 200.85401916503906 284.9588317871094 C 200.51608276367188 283.39508056640625 190.39125061035156 272.9814453125 188.08157348632812 264.9630126953125 C 186.5338897705078 261.70025634765625 183.64332580566406 262.5085144042969 181.50624084472656 262.3600769042969 C 180.7853546142578 260.6265869140625 180.03518676757812 260.5248107910156 178.72923278808594 253.4170379638672 C 179.0239715576172 248.48226928710938 168.90792846679688 242.6597900390625 170.82205200195312 238.37033081054688 C 175.83721923828125 213.1823272705078 177.38034057617188 213.3270263671875 185.66046142578125 220.60867309570312 C 193.88327026367188 219.25997924804688 194.241943359375 215.3784942626953 198.5139923095703 213.3950958251953 C 186.45228576660156 206.93861389160156 185.4015655517578 201.8870391845703 198.01492309570312 197.47998046875 C 213.6160888671875 196.10336303710938 214.4930877685547 200.5326690673828 215.14529418945312 209.88450622558594" stroke-width="0.0" fill="url(#shape_22_fill)"/>
    <path d="M 111.58029174804688 426.3501892089844 C 112.72760772705078 429.2786560058594 111.00518798828125 431.19110107421875 110.6644287109375 431.5644836425781 C 104.42813873291016 432.96173095703125 103.4766616821289 433.84368896484375 91.88958740234375 432.9687194824219 C 89.7632064819336 435.9656677246094 95.67984008789062 446.421630859375 91.62284088134766 452.1399841308594 C 78.66380310058594 444.9972229003906 46.938175201416016 447.9271240234375 25.044252395629883 449.638671875 C 14.016092300415039 446.2511901855469 13.882312774658203 439.7721862792969 17.935466766357422 436.3597412109375 C 34.44084167480469 427.6653137207031 50.36394119262695 426.917236328125 71.15596008300781 427.131591796875 C 74.04686737060547 424.3292541503906 110.42623138427734 420.1236877441406 111.58029174804688 426.3501892089844" stroke-width="0.0" fill="url(#shape_23_fill)"/>
    <path d="M 194.32371520996094 123.65705871582031 C 200.12245178222656 124.69086456298828 210.5348663330078 144.7609100341797 214.51185607910156 145.18649291992188 C 215.63270568847656 148.11740112304688 218.5512237548828 149.70523071289062 220.3076629638672 153.70440673828125 C 227.1628875732422 158.4512176513672 248.08062744140625 178.09091186523438 244.71070861816406 199.3710174560547 C 239.25587463378906 199.52215576171875 235.66993713378906 186.83705139160156 232.2423858642578 179.87200927734375 C 234.88685607910156 186.99925231933594 233.2886199951172 195.95242309570312 230.7173614501953 197.060791015625 C 226.74078369140625 198.03265380859375 226.0428924560547 203.30552673339844 220.35940551757812 208.55911254882812 C 215.21722412109375 207.6497344970703 213.62351989746094 199.09518432617188 213.81675720214844 196.01632690429688 C 212.68557739257812 189.61697387695312 212.56381225585938 183.16761779785156 206.6068115234375 178.154541015625 C 203.9518585205078 174.02928161621094 205.0299530029297 173.02479553222656 205.54576110839844 167.54432678222656 C 202.8806915283203 147.55079650878906 199.4639434814453 147.00889587402344 192.59820556640625 144.02108764648438 C 189.27381896972656 142.31533813476562 191.2430419921875 128.41885375976562 194.32371520996094 123.65705871582031" stroke-width="0.0" fill="url(#shape_24_fill)"/>
    <path d="M 595.7898559570312 409.7893371582031 C 598.466064453125 410.8662109375 626.9564819335938 408.3860778808594 629.2814331054688 414.7626647949219 C 628.8338623046875 421.15557861328125 627.03271484375 425.3077087402344 628.876708984375 426.65240478515625 C 630.5411376953125 427.855712890625 635.9634399414062 428.04449462890625 639.6177368164062 436.91510009765625 C 617.7313842773438 447.1601867675781 577.7429809570312 439.66986083984375 572.7192993164062 434.8446044921875 C 567.6817626953125 427.0560607910156 573.9453125 419.62139892578125 576.4959716796875 413.8228454589844 C 579.5411987304688 409.41351318359375 587.2239990234375 413.7364807128906 595.7898559570312 409.7893371582031" stroke-width="0.0" fill="url(#shape_25_fill)"/>
    <path d="M 142.91102600097656 66.72064208984375 C 144.07652282714844 68.93973541259766 149.16944885253906 68.29744720458984 149.63006591796875 69.13806915283203 C 148.90292358398438 70.89945983886719 150.46469116210938 71.82363891601562 149.75930786132812 73.87104034423828 C 151.0745391845703 74.4496078491211 150.1325225830078 78.43025207519531 150.49098205566406 80.50311279296875 C 152.19725036621094 89.4296646118164 152.88792419433594 97.63662719726562 153.93838500976562 104.10273742675781 C 153.51455688476562 107.62064361572266 155.11526489257812 108.51895141601562 155.1639404296875 111.44786834716797 C 158.14300537109375 123.42662048339844 155.3563690185547 133.51461791992188 150.40626525878906 133.58018493652344 C 143.05746459960938 126.82984924316406 137.2935791015625 120.10047912597656 125.9903564453125 117.0816879272461 C 122.53111267089844 114.22904205322266 124.56376647949219 109.6546630859375 126.7383041381836 106.88077545166016 C 128.8179931640625 106.84556579589844 128.87371826171875 105.27987670898438 132.64686584472656 104.69723510742188 C 138.55516052246094 96.70732116699219 134.92282104492188 92.91151428222656 133.16860961914062 89.7140121459961 C 134.17254638671875 88.77976989746094 139.31976318359375 87.32952880859375 140.1134033203125 85.3463134765625 C 138.09434509277344 84.74813842773438 138.68609619140625 77.6446762084961 139.4925994873047 77.4782485961914 C 143.57296752929688 76.5971908569336 142.6646270751953 70.33404541015625 142.91102600097656 66.72064208984375" stroke-width="0.0" fill="url(#shape_26_fill)"/>
    <path d="M 140.61517333984375 67.93811798095703 C 148.8823699951172 67.05500030517578 149.86260986328125 68.27725982666016 148.63967895507812 76.74320220947266 C 150.63735961914062 78.11868286132812 151.11871337890625 80.63130187988281 154.53375244140625 85.22554016113281 C 150.32240295410156 90.7044448852539 154.57301330566406 94.503173828125 151.69537353515625 104.99351501464844 C 152.98060607910156 105.80912017822266 153.4290008544922 109.30010986328125 155.5074005126953 113.09613037109375 C 152.7174072265625 116.6742172241211 158.0181121826172 122.04554748535156 154.53317260742188 126.12711334228516 C 152.58648681640625 132.0320587158203 151.3344268798828 133.1715087890625 147.46511840820312 133.96022033691406 C 141.83372497558594 131.4148406982422 127.58489990234375 121.30880737304688 129.80792236328125 118.11498260498047 C 124.48461151123047 118.77075958251953 122.62120819091797 113.90123748779297 128.14183044433594 110.40943908691406 C 123.16386413574219 108.33270263671875 124.21649932861328 105.01007080078125 133.3777313232422 107.16431427001953 C 136.32225036621094 105.70536804199219 133.87725830078125 92.53173828125 133.52452087402344 89.2589111328125 C 139.57870483398438 87.45011138916016 138.84854125976562 84.9471435546875 138.6759033203125 81.52555847167969 C 139.0777587890625 77.51448059082031 140.36593627929688 76.81525421142578 142.1143035888672 77.68108367919922 C 145.58966064453125 72.5948486328125 142.6071319580078 70.45669555664062 140.61517333984375 67.93811798095703" stroke-width="0.0" fill="url(#shape_27_fill)"/>
    <path d="M -0.32740649580955505 -0.2717280089855194 C 4.704902172088623 0.38226479291915894 9.655137062072754 -0.5268086791038513 19.59400177001953 -0.8911059498786926 C 24.87065315246582 -0.7496957778930664 25.029388427734375 0.13119715452194214 44.480587005615234 5.381506443023682 C 40.01423645019531 25.655534744262695 28.16777992248535 25.69719886779785 27.214576721191406 23.4213924407959 C 46.7938117980957 18.74959945678711 54.82052230834961 18.571044921875 56.44353103637695 49.184017181396484 C 37.771968841552734 51.2093620300293 29.379575729370117 51.674957275390625 18.880029678344727 48.05073547363281 C 14.10983943939209 39.588134765625 11.257882118225098 38.460323333740234 9.978610038757324 33.62535858154297 C 10.002239227294922 35.861270904541016 14.488642692565918 39.291603088378906 14.774087905883789 41.022586822509766 C 15.920012474060059 42.21843338012695 15.566414833068848 45.02138137817383 18.208528518676758 47.85425567626953 C 20.075929641723633 51.070396423339844 18.760847091674805 52.307552337646484 20.901227951049805 57.20001983642578 C 21.136348724365234 64.32539367675781 15.462872505187988 66.16682434082031 8.651864051818848 61.367435455322266 C 5.496443271636963 60.88471603393555 3.5345330238342285 59.140869140625 0.3237731158733368 59.43419647216797 C -0.31780481338500977 39.78009033203125 -0.3248620927333832 19.62843132019043 -0.32740649580955505 -0.2717280089855194" stroke-width="0.0" fill="url(#shape_28_fill)"/>
    <path d="M 299.2483825683594 197.21343994140625 C 297.85858154296875 199.5260467529297 299.7479553222656 202.4647979736328 301.5271911621094 207.96556091308594 C 299.2854919433594 212.7570037841797 324.18975830078125 226.4482879638672 316.1545104980469 255.29718017578125 C 311.7730407714844 254.3840789794922 310.50830078125 255.76744079589844 304.5110168457031 255.00436401367188 C 301.9587707519531 258.1842346191406 294.45489501953125 258.39263916015625 280.865234375 256.037109375 C 278.8517761230469 226.25912475585938 284.5961608886719 218.51199340820312 299.2483825683594 197.21343994140625" stroke-width="0.0" fill="url(#shape_29_fill)"/>
    <path d="M 0.0023267867509275675 -0.07473762333393097 C 4.508185386657715 0.443586140871048 9.659255981445312 -0.4142496883869171 14.613490104675293 0.12008993327617645 C 15.810163497924805 0.48833465576171875 16.407310485839844 4.544158935546875 16.366283416748047 8.04230785369873 C 18.872753143310547 10.876688003540039 21.874544143676758 18.934720993041992 27.168500900268555 20.67584228515625 C 27.138471603393555 22.501792907714844 24.220678329467773 26.736541748046875 24.60761070251465 32.057838439941406 C 20.151161193847656 32.20411682128906 13.503889083862305 30.160430908203125 6.446606636047363 33.83009338378906 C 9.050920486450195 35.923805236816406 8.778006553649902 38.750667572021484 10.894732475280762 40.455421447753906 C 10.090693473815918 44.355892181396484 7.666139125823975 50.03219223022461 11.608978271484375 53.82991027832031 C 17.711740493774414 51.37366485595703 19.512296676635742 51.893035888671875 18.29277801513672 58.444419860839844 C 11.326933860778809 60.65530014038086 9.410072326660156 62.62257385253906 0.19775301218032837 61.456302642822266 C -0.4210737347602844 39.967445373535156 -0.3545060455799103 19.75495147705078 0.0023267867509275675 -0.07473762333393097" stroke-width="0.0" fill="url(#shape_30_fill)"/>
    <path d="M 548.0142211914062 70.34072875976562 C 545.9855346679688 77.63404083251953 576.5928955078125 89.62188720703125 581.427734375 91.69122314453125 C 580.8618774414062 92.69683074951172 577.29443359375 93.3006820678711 577.01416015625 98.2154541015625 C 573.2695922851562 100.71483612060547 572.0712280273438 99.80615997314453 569.2677001953125 100.02808380126953 C 567.4514770507812 95.38206481933594 545.9148559570312 97.03234100341797 538.635986328125 88.36648559570312 C 538.5762939453125 85.43899536132812 537.8154907226562 83.11829376220703 535.7076416015625 82.33753967285156 C 534.6151733398438 79.75574493408203 528.0452880859375 79.63169860839844 527.1424560546875 78.36457061767578 C 525.25439453125 75.80406951904297 527.773681640625 70.84458923339844 531.8861083984375 68.83241271972656 C 538.81689453125 67.09839630126953 542.5595092773438 71.58329772949219 548.0142211914062 70.34072875976562" stroke-width="0.0" fill="url(#shape_31_fill)"/>
    <path d="M 447.1302795410156 264.42889404296875 C 450.6717834472656 265.2688903808594 451.296630859375 266.7261962890625 455.87225341796875 267.7225646972656 C 460.5113830566406 267.6551208496094 465.32232666015625 270.3759765625 469.932373046875 273.1549987792969 C 470.43255615234375 275.6325378417969 471.8279113769531 276.8902587890625 471.6768798828125 280.7663269042969 C 451.5333251953125 287.959228515625 430.11163330078125 284.1344909667969 415.89898681640625 285.1601257324219 C 413.4488525390625 273.9070129394531 415.1086120605469 272.3387451171875 415.6104431152344 268.2101135253906 C 418.1906433105469 267.2078552246094 417.7713317871094 264.80401611328125 419.357421875 263.1081848144531 C 437.3847351074219 253.33038330078125 446.2767028808594 253.71778869628906 447.1302795410156 264.42889404296875" stroke-width="0.0" fill="url(#shape_32_fill)"/>
    <path d="M 272.4643859863281 192.469970703125 C 275.9667663574219 192.1866455078125 286.4369812011719 243.6846923828125 281.3929138183594 245.28494262695312 C 279.461669921875 247.52908325195312 273.8827209472656 246.8228302001953 269.62060546875 248.67568969726562 C 266.3670959472656 246.0585174560547 266.71856689453125 242.1616973876953 261.1918640136719 240.65582275390625 C 254.28909301757812 209.74781799316406 262.3692932128906 206.71775817871094 272.4643859863281 192.469970703125" stroke-width="0.0" fill="url(#shape_33_fill)"/>
    <path d="M 265.3382568359375 414.1698303222656 C 263.0478820800781 424.4441223144531 265.1308288574219 430.5265808105469 267.8070983886719 440.83837890625 C 262.1777648925781 440.495361328125 261.0882568359375 446.62066650390625 257.2864685058594 447.8482971191406 C 245.82135009765625 445.8088684082031 217.07081604003906 448.3857116699219 212.5476837158203 444.8230285644531 C 213.0242156982422 436.99578857421875 213.95974731445312 436.2222900390625 215.9793243408203 434.546875 C 216.2630157470703 433.4734802246094 225.0389862060547 433.5816650390625 226.64927673339844 430.4833679199219 C 228.3826446533203 419.5782470703125 238.57962036132812 419.85968017578125 265.3382568359375 414.1698303222656" stroke-width="0.0" fill="url(#shape_34_fill)"/>
    <path d="M 105.91966247558594 69.82360076904297 C 109.90101623535156 69.70710754394531 111.25762176513672 79.218505859375 112.49584197998047 85.05136108398438 C 117.35590362548828 86.12757873535156 117.26673889160156 110.2722396850586 117.89315795898438 110.77667999267578 C 116.77813720703125 112.61056518554688 110.94823455810547 114.4189453125 106.89723205566406 124.4588623046875 C 104.6756591796875 117.19303894042969 96.50959777832031 118.82164764404297 89.60871887207031 111.51383209228516 C 88.09046936035156 85.66119384765625 105.70044708251953 84.57777404785156 105.91966247558594 69.82360076904297" stroke-width="0.0" fill="url(#shape_35_fill)"/>
    <path d="M 451.3110656738281 178.38754272460938 C 453.3370666503906 176.3973388671875 456.4303894042969 177.65737915039062 455.4754333496094 180.2696533203125 C 456.15338134765625 180.75637817382812 455.61090087890625 185.2431640625 456.4966125488281 185.93653869628906 C 455.9230041503906 188.5912628173828 458.9656982421875 194.20547485351562 459.53302001953125 204.34121704101562 C 459.32879638671875 208.46725463867188 451.6222229003906 209.3935089111328 446.0644226074219 204.4091796875 C 441.817138671875 207.385986328125 440.75860595703125 208.75537109375 433.24017333984375 210.95005798339844 C 434.8878479003906 209.9205322265625 437.03131103515625 189.2055206298828 438.2759704589844 178.70278930664062 C 440.53118896484375 179.29481506347656 443.9310607910156 181.44973754882812 446.5771179199219 180.81687927246094 C 447.77490234375 179.3759002685547 450.10430908203125 179.59161376953125 451.3110656738281 178.38754272460938" stroke-width="0.0" fill="url(#shape_36_fill)"/>
    <path d="M 557.2153930664062 84.29053497314453 C 561.732421875 80.91450500488281 578.5012817382812 82.70990753173828 580.0549926757812 85.86712646484375 C 581.37353515625 83.8158950805664 586.308837890625 85.63208770751953 587.380859375 88.7609634399414 C 596.1442260742188 101.40322875976562 588.2194213867188 109.134765625 574.3743896484375 100.40619659423828 C 573.786376953125 99.4760513305664 552.65087890625 96.1280288696289 543.9844360351562 85.50259399414062 C 538.4966430664062 85.5970458984375 537.8534545898438 82.15740966796875 535.9871826171875 80.18496704101562 C 542.9173583984375 74.87134552001953 547.4364013671875 78.60318756103516 557.2153930664062 84.29053497314453" stroke-width="0.0" fill="url(#shape_37_fill)"/>
    <path d="M 251.8326416015625 208.0393524169922 C 265.41741943359375 211.810791015625 261.5177001953125 238.9628143310547 260.1317138671875 247.66567993164062 C 259.49676513671875 254.595947265625 251.02972412109375 254.5789031982422 249.48086547851562 257.4310607910156 C 234.49627685546875 237.2908172607422 240.9644012451172 214.5686798095703 251.8326416015625 208.0393524169922" stroke-width="0.0" fill="url(#shape_38_fill)"/>
    <path d="M 443.0595703125 263.414794921875 C 446.0344543457031 263.4225769042969 449.1767272949219 266.58392333984375 447.8109130859375 270.066162109375 C 444.4970703125 270.38092041015625 442.6500549316406 277.20330810546875 440.8504943847656 278.6083068847656 C 439.4593505859375 286.2268981933594 425.7117919921875 285.0482177734375 418.0771179199219 276.07342529296875 C 414.52423095703125 276.79449462890625 413.34259033203125 274.36029052734375 416.10455322265625 271.6436767578125 C 415.18701171875 269.94549560546875 419.2486267089844 262.18060302734375 426.0048828125 258.211181640625 C 426.6724853515625 256.6050720214844 438.712158203125 257.96221923828125 443.0595703125 263.414794921875" stroke-width="0.0" fill="url(#shape_39_fill)"/>
    <path d="M 407.7157287597656 409.8161926269531 C 408.67431640625 409.8912353515625 416.78009033203125 419.05816650390625 413.74798583984375 424.2250061035156 C 399.3982849121094 436.0074462890625 386.1866149902344 420.296142578125 376.6024475097656 420.85552978515625 C 371.0882263183594 417.9562683105469 371.2377624511719 416.5549011230469 372.6020202636719 410.378662109375 C 375.0531005859375 401.0716857910156 394.2034606933594 403.9016418457031 407.7157287597656 409.8161926269531" stroke-width="0.0" fill="url(#shape_40_fill)"/>
    <path d="M 66.43870544433594 427.55340576171875 C 67.33572387695312 429.06732177734375 64.57408905029297 433.8799133300781 58.80955505371094 435.58477783203125 C 57.41346740722656 436.6719970703125 39.618743896484375 436.30816650390625 31.848791122436523 442.76153564453125 C 29.3114070892334 443.54364013671875 27.460952758789062 444.0273132324219 17.25433349609375 443.00604248046875 C 16.443105697631836 440.6490783691406 17.83339500427246 439.20709228515625 17.318262100219727 437.835693359375 C 35.05168533325195 427.2955627441406 54.28050994873047 427.9219665527344 66.43870544433594 427.55340576171875" stroke-width="0.0" fill="url(#shape_41_fill)"/>
    <path d="M 278.3999328613281 381.0278625488281 C 284.6676025390625 381.2241516113281 297.9078369140625 381.19940185546875 305.7477722167969 385.4917297363281 C 297.2138977050781 394.89141845703125 299.31982421875 400.98504638671875 294.4209899902344 405.1036682128906 C 291.7434387207031 399.8751220703125 266.03692626953125 405.7447204589844 258.97113037109375 407.1866760253906 C 248.85260009765625 403.6551208496094 245.37387084960938 394.3149108886719 247.43516540527344 383.00347900390625 C 260.9034423828125 380.92840576171875 267.3695983886719 381.9874267578125 278.3999328613281 381.0278625488281" stroke-width="0.0" fill="url(#shape_42_fill)"/>
    <path d="M 222.6143798828125 212.59393310546875 C 223.90660095214844 211.69833374023438 236.9148406982422 211.23573303222656 239.26206970214844 214.10269165039062 C 242.29379272460938 221.15374755859375 247.21487426757812 240.7183837890625 252.26719665527344 268.49615478515625 C 250.40216064453125 273.2650451660156 241.8427276611328 272.7850646972656 209.248046875 272.3919982910156 C 207.16851806640625 266.3547058105469 205.29595947265625 254.19810485839844 216.7075653076172 247.82281494140625 C 219.37130737304688 246.46871948242188 218.17843627929688 226.4244842529297 222.6143798828125 212.59393310546875" stroke-width="0.0" fill="url(#shape_43_fill)"/>
    <path d="M 483.66595458984375 395.9109191894531 C 486.79962158203125 399.8078918457031 485.8070068359375 400.9822082519531 483.4977111816406 401.09832763671875 C 472.6092529296875 407.1615905761719 451.1646423339844 406.7926330566406 450.2550354003906 407.6386413574219 C 448.1046447753906 404.416015625 451.61077880859375 396.17535400390625 453.624267578125 396.5097961425781 C 464.3180847167969 393.1556091308594 472.2057189941406 392.5476379394531 483.66595458984375 395.9109191894531" stroke-width="0.0" fill="url(#shape_44_fill)"/>
    <path d="M 45.820838928222656 408.0623474121094 C 45.34510040283203 408.6063537597656 35.762237548828125 411.6181945800781 33.650489807128906 413.0718078613281 C 32.68503189086914 414.5116882324219 32.172874450683594 415.9094543457031 28.273487091064453 415.01287841796875 C 27.438600540161133 417.06341552734375 24.896970748901367 417.80206298828125 21.520652770996094 420.51629638671875 C 18.415414810180664 420.19659423828125 0.08809326589107513 417.2857360839844 -0.7437236905097961 420.5157165527344 C 1.8154395818710327 419.5902099609375 -0.8141507506370544 411.1779479980469 0.8635268807411194 410.2784423828125 C 7.085468292236328 409.4099426269531 45.457794189453125 406.4536437988281 45.820838928222656 408.0623474121094" stroke-width="0.0" fill="url(#shape_45_fill)"/>
    <path d="M 452.1244812011719 175.0203399658203 C 453.99560546875 175.01983642578125 464.67498779296875 198.7810821533203 466.1563415527344 199.4700469970703 C 462.6162109375 209.49517822265625 451.58349609375 209.38320922851562 449.4681701660156 206.6147918701172 C 448.3214416503906 203.2543487548828 449.02838134765625 198.3160858154297 448.8504943847656 195.2994384765625 C 447.9555969238281 194.5580596923828 447.5960693359375 192.11944580078125 448.5140380859375 188.01324462890625 C 451.0122985839844 186.64974975585938 450.675537109375 182.95436096191406 452.1244812011719 175.0203399658203" stroke-width="0.0" fill="url(#shape_46_fill)"/>
    <path d="M 372.793701171875 184.8944549560547 C 378.9562072753906 196.5449981689453 380.3821716308594 202.78311157226562 371.4474182128906 205.9167938232422 C 365.8646545410156 206.8215789794922 364.772216796875 204.8576202392578 361.99871826171875 205.33688354492188 C 342.6026611328125 209.49525451660156 339.7139587402344 201.3639678955078 353.7632141113281 188.58921813964844 C 356.6661071777344 184.97264099121094 358.3713073730469 184.41197204589844 368.1257629394531 185.4449005126953 C 368.95379638671875 183.23150634765625 372.29412841796875 183.764404296875 372.793701171875 184.8944549560547" stroke-width="0.0" fill="url(#shape_47_fill)"/>
    <path d="M 471.6463928222656 263.7574768066406 C 474.8538818359375 267.6566162109375 480.6005859375 269.5612487792969 480.65887451171875 284.4788513183594 C 464.7939453125 287.3880920410156 450.8856506347656 286.7884521484375 444.07794189453125 284.9193115234375 C 439.3311767578125 282.21563720703125 440.0036926269531 276.95806884765625 441.1567687988281 276.439208984375 C 448.9074401855469 266.640869140625 454.9168395996094 262.63580322265625 471.6463928222656 263.7574768066406" stroke-width="0.0" fill="url(#shape_48_fill)"/>
    <path d="M 177.21469116210938 117.20989990234375 C 178.00343322753906 115.52616119384766 181.77896118164062 116.17949676513672 182.6824188232422 117.31515502929688 C 184.6783905029297 120.26004028320312 183.84967041015625 122.35281372070312 184.7544708251953 122.96371459960938 C 179.56735229492188 126.6478271484375 185.8541717529297 136.56399536132812 182.85536193847656 139.54876708984375 C 181.55972290039062 146.61663818359375 172.81796264648438 146.24044799804688 171.9972686767578 146.7747802734375 C 171.70614624023438 127.03417205810547 170.7896270751953 124.59182739257812 177.21469116210938 117.20989990234375" stroke-width="0.0" fill="url(#shape_49_fill)"/>
    <path d="M 333.73773193359375 427.976806640625 C 337.0843200683594 428.88897705078125 341.51092529296875 428.86865234375 343.1333312988281 431.8695983886719 C 346.364990234375 435.58831787109375 345.16009521484375 437.2244873046875 342.4329833984375 437.5907897949219 C 342.80645751953125 446.78753662109375 324.97698974609375 448.9525146484375 323.37298583984375 443.59381103515625 C 321.0975341796875 435.16656494140625 321.212646484375 433.602783203125 306.92877197265625 430.1357727050781 C 320.959228515625 426.32513427734375 328.52392578125 428.9839782714844 333.73773193359375 427.976806640625" stroke-width="0.0" fill="url(#shape_50_fill)"/>
    <path d="M 305.03704833984375 388.9187316894531 C 301.8878173828125 394.01507568359375 293.0480651855469 397.4620361328125 292.0881042480469 398.9615173339844 C 279.0963134765625 397.36456298828125 277.9186706542969 399.2791442871094 271.3221435546875 402.511962890625 C 271.12384033203125 401.61077880859375 269.7276306152344 398.9508361816406 271.2349853515625 397.48712158203125 C 270.0391540527344 395.522216796875 273.1106262207031 388.17919921875 279.7654724121094 387.9697265625 C 284.5144958496094 386.627685546875 288.66815185546875 390.9888916015625 305.03704833984375 388.9187316894531" stroke-width="0.0" fill="url(#shape_51_fill)"/>
    <path d="M 268.9867858886719 184.00286865234375 C 276.00823974609375 194.9236297607422 277.7176208496094 207.7194061279297 280.02264404296875 217.41104125976562 C 271.528564453125 210.34921264648438 269.330322265625 208.18345642089844 261.0977478027344 215.65293884277344 C 257.4029541015625 207.96548461914062 263.7749328613281 196.74444580078125 266.54571533203125 195.2628173828125 C 269.6833190917969 194.2672576904297 268.935302734375 191.71115112304688 268.9867858886719 184.00286865234375" stroke-width="0.0" fill="url(#shape_52_fill)"/>
    <path d="M 218.31253051757812 409.5028991699219 C 215.90797424316406 410.94122314453125 215.64781188964844 413.2801513671875 214.2324981689453 414.24945068359375 C 214.75802612304688 422.6756591796875 191.99998474121094 424.3851318359375 187.54251098632812 415.5683288574219 C 186.28298950195312 405.3117370605469 206.665771484375 400.38482666015625 218.31253051757812 409.5028991699219" stroke-width="0.0" fill="url(#shape_53_fill)"/>
    <path d="M 205.89389038085938 424.5768737792969 C 205.502197265625 425.26763916015625 206.143798828125 428.2832946777344 204.569091796875 429.2828674316406 C 194.0438690185547 429.85052490234375 178.81407165527344 430.28350830078125 177.9829559326172 432.6472473144531 C 176.7928466796875 430.9482421875 178.31056213378906 425.9494323730469 176.90049743652344 423.9000549316406 C 186.56048583984375 418.4598083496094 193.87045288085938 422.89886474609375 205.89389038085938 424.5768737792969" stroke-width="0.0" fill="url(#shape_54_fill)"/>
    <path d="M 268.77496337890625 246.98165893554688 C 275.4397277832031 244.97726440429688 276.6671142578125 247.06924438476562 280.3966064453125 246.79360961914062 C 280.7517395019531 250.98672485351562 280.1373291015625 252.42416381835938 286.13330078125 261.8537292480469 C 263.4590759277344 257.99053955078125 262.9305419921875 257.29473876953125 251.7115478515625 263.56475830078125 C 254.86251831054688 248.17645263671875 255.875732421875 247.2317352294922 258.6636962890625 245.1151580810547 C 260.4479064941406 239.3206329345703 266.1605529785156 239.62423706054688 268.77496337890625 246.98165893554688" stroke-width="0.0" fill="url(#shape_55_fill)"/>
    <path d="M 277.0417785644531 350.17919921875 C 279.0982971191406 363.4915771484375 284.1310729980469 363.0959167480469 284.6466064453125 368.0561218261719 C 285.4162292480469 369.2339172363281 285.9922790527344 371.823974609375 285.7035827636719 381.174560546875 C 275.51904296875 379.24273681640625 262.0086364746094 381.5633544921875 242.83006286621094 383.80126953125 C 238.4879913330078 382.0471496582031 237.95237731933594 362.1444396972656 238.13734436035156 352.0384216308594 C 247.48419189453125 350.2560729980469 255.44778442382812 349.29315185546875 277.0417785644531 350.17919921875" stroke-width="0.0" fill="url(#shape_56_fill)"/>
    <path d="M 408.6846008300781 271.03204345703125 C 415.7914123535156 268.9131774902344 418.2224426269531 273.06561279296875 421.08941650390625 279.97821044921875 C 413.4273376464844 285.45172119140625 405.30126953125 281.0467834472656 380.0349426269531 277.47900390625 C 379.1590270996094 264.7964172363281 387.76904296875 263.3095397949219 408.6846008300781 271.03204345703125" stroke-width="0.0" fill="url(#shape_57_fill)"/>
    <path d="M 632.0592651367188 351.7078552246094 C 632.9801025390625 355.1277160644531 660.098388671875 354.1065673828125 668.6043701171875 354.1658630371094 C 668.4907836914062 358.48175048828125 662.9971923828125 360.4998474121094 660.0762329101562 357.2780456542969 C 649.6107177734375 355.41864013671875 634.58837890625 359.94036865234375 631.5396118164062 360.53997802734375 C 627.8004150390625 357.1047058105469 629.3605346679688 353.59161376953125 632.0592651367188 351.7078552246094" stroke-width="0.0" fill="url(#shape_58_fill)"/>
    <path d="M 341.3139343261719 384.95794677734375 C 342.8053283691406 390.2271728515625 358.1351318359375 391.73016357421875 359.1849670410156 394.6971435546875 C 356.2868347167969 397.9747619628906 339.0538024902344 401.9193420410156 338.448974609375 399.52978515625 C 335.13665771484375 399.6165466308594 333.0745544433594 398.78009033203125 331.8538818359375 396.5368957519531 C 331.9881286621094 394.93994140625 330.751708984375 393.4737243652344 332.32415771484375 390.6014099121094 C 333.0384216308594 385.0107116699219 336.47332763671875 384.0741271972656 341.3139343261719 384.95794677734375" stroke-width="0.0" fill="url(#shape_59_fill)"/>
    <path d="M 459.18499755859375 363.79962158203125 C 462.7580871582031 364.6590576171875 472.4498596191406 370.22021484375 473.1317443847656 374.25042724609375 C 471.8007507324219 376.21661376953125 470.33416748046875 376.8759460449219 463.0296325683594 375.9031677246094 C 458.427734375 377.2513732910156 457.5868225097656 377.04327392578125 452.7189636230469 370.8936462402344 C 453.31597900390625 370.0709533691406 460.3638916015625 366.1562194824219 459.18499755859375 363.79962158203125" stroke-width="0.0" fill="url(#shape_60_fill)"/>
    <path d="M 433.3547668457031 433.0054931640625 C 440.0383605957031 434.33648681640625 442.4485778808594 436.531982421875 442.0378112792969 438.7245788574219 C 440.3492126464844 441.27801513671875 429.1346130371094 439.9786071777344 425.73095703125 442.3856506347656 C 422.4701843261719 438.9217529296875 423.89697265625 434.6324768066406 412.30181884765625 425.799560546875 C 427.9203186035156 428.9421691894531 431.0282897949219 433.9296875 433.3547668457031 433.0054931640625" stroke-width="0.0" fill="url(#shape_61_fill)"/>
    <path d="M 185.42027282714844 411.45001220703125 C 186.26585388183594 413.93170166015625 185.00656127929688 414.7928771972656 186.92257690429688 417.6784362792969 C 184.8675994873047 420.1891174316406 183.39599609375 419.5141296386719 182.49618530273438 419.7249450683594 C 180.81211853027344 421.63958740234375 174.43771362304688 420.2328186035156 171.3762969970703 420.15911865234375 C 169.55630493164062 417.7918395996094 169.76670837402344 415.6305847167969 173.940673828125 413.1932678222656 C 176.49180603027344 412.5078430175781 181.3687744140625 410.671875 185.42027282714844 411.45001220703125" stroke-width="0.0" fill="url(#shape_62_fill)"/>
    <path d="M 332.214111328125 418.7179870605469 C 334.7939758300781 426.0771179199219 329.872314453125 427.90216064453125 327.2664489746094 425.91162109375 C 324.5753173828125 427.7684631347656 322.9916687011719 426.7231140136719 320.9173889160156 427.55035400390625 C 318.8014831542969 426.02099609375 319.7748718261719 419.979736328125 317.521484375 418.47601318359375 C 319.0225524902344 420.01324462890625 326.0303955078125 418.7192687988281 332.214111328125 418.7179870605469" stroke-width="0.0" fill="url(#shape_63_fill)"/>
    <path d="M 55.43320846557617 273.47216796875 C 56.56782531738281 269.33868408203125 65.85767364501953 269.88238525390625 65.61151123046875 278.2555236816406 C 59.134193420410156 279.2671203613281 53.6070556640625 272.9453430175781 48.22355651855469 276.0726013183594 C 50.11087417602539 273.1121520996094 52.4018669128418 272.6313781738281 55.43320846557617 273.47216796875" stroke-width="0.0" fill="url(#shape_64_fill)"/>
    <path d="M 304.57159423828125 439.3525695800781 C 304.55419921875 437.44677734375 306.26593017578125 436.3084411621094 313.05108642578125 437.43121337890625 C 314.7375183105469 438.8499755859375 313.00604248046875 441.4162902832031 311.3503723144531 441.8998718261719 C 307.9207458496094 445.3375549316406 306.6321105957031 444.2286071777344 305.3296813964844 444.3537292480469 C 302.8778381347656 441.6649169921875 302.79156494140625 439.76904296875 304.57159423828125 439.3525695800781" stroke-width="0.0" fill="url(#shape_65_fill)"/>
    <path d="M -0.4449401795864105 -0.41806936264038086 C 224.71116638183594 -0.13747602701187134 444.1008605957031 0.36750009655952454 672.8829345703125 0.6050080060958862 C 673.56005859375 154.18289184570312 674.65478515625 296.14642333984375 673.6412963867188 445.4937744140625 C 450.4375305175781 446.3319091796875 230.580078125 446.2640380859375 0.5423651337623596 445.3543395996094 C 0.23911094665527344 297.0380859375 -0.1311979442834854 149.0664825439453 -0.4449401795864105 -0.41806936264038086" stroke-width="0.0" fill="url(#shape_66_fill)"/>
    <path d="M -1.013580560684204 -0.16538682579994202 C 222.50865173339844 -0.10673683136701584 443.1504211425781 0.3527127504348755 672.8888549804688 -0.15222561359405518 C 673.68212890625 154.41026306152344 674.7201538085938 295.4622497558594 673.3270874023438 445.3980407714844 C 450.6943359375 446.4109191894531 230.68392944335938 446.3134765625 0.6567510366439819 445.2613220214844 C 0.1565343588590622 297.1263122558594 -0.2428077757358551 148.84400939941406 -1.013580560684204 -0.16538682579994202" stroke-width="0.0" fill="url(#shape_67_fill)"/>
    <path d="M -0.6606836318969727 -0.2193671464920044 C 223.00296020507812 -0.14026908576488495 442.20745849609375 0.49892517924308777 672.8975219726562 -0.22433482110500336 C 673.6769409179688 154.38267517089844 674.719970703125 295.45166015625 673.3322143554688 445.3995666503906 C 450.7015075683594 446.4112548828125 230.70896911621094 446.313720703125 1.2277276515960693 445.2408447265625 C 0.5234944224357605 295.5213317871094 0.07611582428216934 148.44801330566406 -0.6606836318969727 -0.2193671464920044" stroke-width="0.0" fill="url(#shape_68_fill)"/>
  </g>
</svg>
