<?xml version="1.0" ?>
<svg xmlns="http://www.w3.org/2000/svg" version="1.1" width="674" height="446">
  <defs>
    <radialGradient id="shape_0_fill" cx="0.5339413424981454" cy="0.7402898677261421" r="0.2792518683640115">
      <stop offset="0.760749" stop-color="rgb(162, 178, 0)" stop-opacity="0.8524280786514282"/>
      <stop offset="1.0" stop-color="rgb(50, 46, 0)" stop-opacity="1.0"/>
    </radialGradient>
    <radialGradient id="shape_1_fill" cx="0.5355195178476215" cy="0.7441143497757847" r="0.20635241499994206">
      <stop offset="0.52122766" stop-color="rgb(75, 75, 69)" stop-opacity="0.7856348752975464"/>
      <stop offset="1.0" stop-color="rgb(31, 12, 0)" stop-opacity="0.623900294303894"/>
    </radialGradient>
    <radialGradient id="shape_2_fill" cx="0.09792273546892387" cy="0.7376672719091578" r="0.22062588021026522">
      <stop offset="0.0" stop-color="rgb(36, 96, 183)" stop-opacity="0.9560698866844177"/>
      <stop offset="0.9866495" stop-color="rgb(8, 103, 255)" stop-opacity="0.9236363172531128"/>
    </radialGradient>
    <radialGradient id="shape_3_fill" cx="0.27700318922274897" cy="0.21562410363167392" r="0.12934866432620085">
      <stop offset="0.39624503" stop-color="rgb(137, 193, 5)" stop-opacity="0.794056236743927"/>
      <stop offset="1.0" stop-color="rgb(37, 40, 0)" stop-opacity="0.9451594948768616"/>
    </radialGradient>
    <radialGradient id="shape_4_fill" cx="0.1543026706231454" cy="0.9977578475336323" r="0.10288926755639141">
      <stop offset="0.0" stop-color="rgb(81, 79, 86)" stop-opacity="1.0"/>
      <stop offset="1.0" stop-color="rgb(68, 65, 80)" stop-opacity="0.8955886960029602"/>
    </radialGradient>
    <radialGradient id="shape_5_fill" cx="0.14807964290992442" cy="0.23997249517740155" r="0.11810664960821587">
      <stop offset="0.0" stop-color="rgb(255, 255, 255)" stop-opacity="0.6465655565261841"/>
      <stop offset="0.5626593" stop-color="rgb(255, 255, 255)" stop-opacity="0.5690101385116577"/>
    </radialGradient>
    <radialGradient id="shape_6_fill" cx="0.18397626112759644" cy="0.9977578475336323" r="0.0754974885934892">
      <stop offset="0.0" stop-color="rgb(93, 90, 94)" stop-opacity="1.0"/>
      <stop offset="1.0" stop-color="rgb(145, 130, 132)" stop-opacity="0.9262704849243164"/>
    </radialGradient>
    <radialGradient id="shape_7_fill" cx="0.2893175074183976" cy="0.05829596412556054" r="0.08666390552011372">
      <stop offset="0.0" stop-color="rgb(55, 66, 29)" stop-opacity="1.0"/>
      <stop offset="1.0" stop-color="rgb(111, 129, 47)" stop-opacity="0.5494244694709778"/>
    </radialGradient>
    <radialGradient id="shape_8_fill" cx="0.3382789091115889" cy="0.9439461883408071" r="0.06756690277190167">
      <stop offset="0.0" stop-color="rgb(91, 124, 45)" stop-opacity="1.0"/>
      <stop offset="1.0" stop-color="rgb(116, 173, 56)" stop-opacity="0.6970682144165039"/>
    </radialGradient>
    <radialGradient id="shape_9_fill" cx="0.30712166172106825" cy="0.9977578475336323" r="0.0730758406641929">
      <stop offset="0.0" stop-color="rgb(38, 48, 20)" stop-opacity="1.0"/>
      <stop offset="1.0" stop-color="rgb(32, 32, 48)" stop-opacity="1.0"/>
    </radialGradient>
    <radialGradient id="shape_10_fill" cx="0.3056379821958457" cy="0.9977578475336323" r="0.06792919147615971">
      <stop offset="0.0" stop-color="rgb(39, 49, 21)" stop-opacity="1.0"/>
      <stop offset="1.0" stop-color="rgb(38, 23, 0)" stop-opacity="0.6895169615745544"/>
    </radialGradient>
    <radialGradient id="shape_11_fill" cx="0.21810089020771514" cy="0.968609865470852" r="0.06792919147615971">
      <stop offset="0.0" stop-color="rgb(138, 135, 129)" stop-opacity="1.0"/>
      <stop offset="1.0" stop-color="rgb(155, 123, 91)" stop-opacity="0.4685247540473938"/>
    </radialGradient>
    <radialGradient id="shape_12_fill" cx="0.29080118694362017" cy="0.9977578475336323" r="0.07480746985189285">
      <stop offset="0.0" stop-color="rgb(22, 25, 13)" stop-opacity="1.0"/>
      <stop offset="1.0" stop-color="rgb(37, 40, 7)" stop-opacity="0.9958457946777344"/>
    </radialGradient>
    <radialGradient id="shape_13_fill" cx="0.327893175074184" cy="0.8923766816143498" r="0.06900465877544279">
      <stop offset="0.0" stop-color="rgb(89, 117, 50)" stop-opacity="1.0"/>
      <stop offset="1.0" stop-color="rgb(104, 140, 13)" stop-opacity="0.6780047416687012"/>
    </radialGradient>
    <radialGradient id="shape_14_fill" cx="0.142433234421365" cy="0.9977578475336323" r="0.06617211022079875">
      <stop offset="0.0" stop-color="rgb(155, 150, 153)" stop-opacity="1.0"/>
      <stop offset="1.0" stop-color="rgb(255, 221, 206)" stop-opacity="0.20857971906661987"/>
    </radialGradient>
    <radialGradient id="shape_15_fill" cx="0.31008902077151335" cy="0.9977578475336323" r="0.06683642786405207">
      <stop offset="0.0" stop-color="rgb(43, 55, 23)" stop-opacity="1.0"/>
      <stop offset="1.0" stop-color="rgb(58, 68, 18)" stop-opacity="0.9311487674713135"/>
    </radialGradient>
    <radialGradient id="shape_16_fill" cx="0.27299703264094954" cy="0.9977578475336323" r="0.08110449363640579">
      <stop offset="0.0" stop-color="rgb(31, 35, 19)" stop-opacity="1.0"/>
      <stop offset="1.0" stop-color="rgb(31, 31, 0)" stop-opacity="0.9667640328407288"/>
    </radialGradient>
    <radialGradient id="shape_17_fill" cx="0.2893175074183976" cy="0.9977578475336323" r="0.07513486030193747">
      <stop offset="0.0" stop-color="rgb(22, 23, 13)" stop-opacity="1.0"/>
      <stop offset="1.0" stop-color="rgb(20, 18, 0)" stop-opacity="0.8542435169219971"/>
    </radialGradient>
    <radialGradient id="shape_18_fill" cx="0.3293768545994065" cy="0.7556053811659192" r="0.06617211022079875">
      <stop offset="0.0" stop-color="rgb(83, 108, 65)" stop-opacity="1.0"/>
      <stop offset="1.0" stop-color="rgb(110, 135, 60)" stop-opacity="0.979232668876648"/>
    </radialGradient>
    <radialGradient id="shape_19_fill" cx="0.3516320474777448" cy="0.9977578475336323" r="0.06617211022079875">
      <stop offset="0.0" stop-color="rgb(95, 135, 39)" stop-opacity="1.0"/>
      <stop offset="1.0" stop-color="rgb(140, 203, 5)" stop-opacity="0.7472816705703735"/>
    </radialGradient>
    <radialGradient id="shape_20_fill" cx="0.0830860534124629" cy="0.9977578475336323" r="0.06792919147615971">
      <stop offset="0.0" stop-color="rgb(49, 52, 66)" stop-opacity="1.0"/>
      <stop offset="1.0" stop-color="rgb(25, 13, 53)" stop-opacity="0.39242446422576904"/>
    </radialGradient>
    <radialGradient id="shape_21_fill" cx="0.29821958456973297" cy="0.9977578475336323" r="0.06792919147615971">
      <stop offset="0.0" stop-color="rgb(33, 40, 17)" stop-opacity="1.0"/>
      <stop offset="1.0" stop-color="rgb(41, 57, 0)" stop-opacity="0.6846752762794495"/>
    </radialGradient>
    <radialGradient id="shape_22_fill" cx="0.3563326600751113" cy="0.44372452534902257" r="0.06594546966099951">
      <stop offset="0.52345276" stop-color="rgb(106, 145, 15)" stop-opacity="0.9668166637420654"/>
      <stop offset="0.38933554" stop-color="rgb(150, 186, 38)" stop-opacity="0.9122083187103271"/>
    </radialGradient>
    <radialGradient id="shape_23_fill" cx="0.6454005934718101" cy="0.1412556053811659" r="0.06617211022079875">
      <stop offset="0.0" stop-color="rgb(46, 38, 13)" stop-opacity="1.0"/>
      <stop offset="1.0" stop-color="rgb(52, 31, 0)" stop-opacity="0.8798752427101135"/>
    </radialGradient>
    <radialGradient id="shape_24_fill" cx="0.24925732258873098" cy="0.48430544592339897" r="0.06617138010811735">
      <stop offset="0.0" stop-color="rgb(201, 209, 206)" stop-opacity="1.0"/>
      <stop offset="0.9766002" stop-color="rgb(255, 255, 255)" stop-opacity="0.5841505527496338"/>
    </radialGradient>
    <radialGradient id="shape_25_fill" cx="0.6320474777448071" cy="0.9977578475336323" r="0.06617211022079875">
      <stop offset="0.0" stop-color="rgb(35, 28, 8)" stop-opacity="1.0"/>
      <stop offset="1.0" stop-color="rgb(39, 15, 0)" stop-opacity="0.5682270526885986"/>
    </radialGradient>
    <radialGradient id="shape_26_fill" cx="0.15414520399506793" cy="0.3207086811151205" r="0.06604698362265567">
      <stop offset="0.11989566" stop-color="rgb(198, 211, 155)" stop-opacity="1.0"/>
      <stop offset="0.58338004" stop-color="rgb(115, 114, 253)" stop-opacity="0.0008424558909609914"/>
    </radialGradient>
    <radialGradient id="shape_27_fill" cx="0.15410647972401242" cy="0.3208032787648017" r="0.06604505929465818">
      <stop offset="0.0" stop-color="rgb(192, 205, 0)" stop-opacity="1.0"/>
      <stop offset="0.49375948" stop-color="rgb(77, 73, 48)" stop-opacity="0.6170558929443359"/>
    </radialGradient>
    <radialGradient id="shape_28_fill" cx="0.03683337542706498" cy="0.01725812236289807" r="0.06867364606093228">
      <stop offset="0.14385565" stop-color="rgb(4, 28, 125)" stop-opacity="0.9817937016487122"/>
      <stop offset="0.79030406" stop-color="rgb(5, 27, 161)" stop-opacity="0.7453828454017639"/>
    </radialGradient>
    <radialGradient id="shape_29_fill" cx="0.33976258863681147" cy="0.6659192825112108" r="0.06617211022079875">
      <stop offset="0.0" stop-color="rgb(90, 117, 55)" stop-opacity="1.0"/>
      <stop offset="1.0" stop-color="rgb(110, 142, 28)" stop-opacity="0.8813103437423706"/>
    </radialGradient>
    <radialGradient id="shape_30_fill" cx="0.03965160188759823" cy="0.016711587863118126" r="0.06859789545528966">
      <stop offset="0.26427165" stop-color="rgb(47, 74, 71)" stop-opacity="1.0"/>
      <stop offset="0.91902393" stop-color="rgb(57, 65, 13)" stop-opacity="0.5677458047866821"/>
    </radialGradient>
    <radialGradient id="shape_31_fill" cx="0.12314540059347182" cy="0.9977578475336323" r="0.06617211022079875">
      <stop offset="0.0" stop-color="rgb(95, 103, 98)" stop-opacity="1.0"/>
      <stop offset="1.0" stop-color="rgb(137, 127, 114)" stop-opacity="0.7389475107192993"/>
    </radialGradient>
    <radialGradient id="shape_32_fill" cx="0.4035608308605341" cy="0.984304932735426" r="0.06617211022079875">
      <stop offset="0.0" stop-color="rgb(126, 155, 63)" stop-opacity="1.0"/>
      <stop offset="1.0" stop-color="rgb(140, 129, 29)" stop-opacity="0.9735880494117737"/>
    </radialGradient>
    <radialGradient id="shape_33_fill" cx="0.3249258160237389" cy="0.6053811659192825" r="0.06617211022079875">
      <stop offset="0.0" stop-color="rgb(93, 124, 71)" stop-opacity="1.0"/>
      <stop offset="1.0" stop-color="rgb(128, 155, 57)" stop-opacity="1.0"/>
    </radialGradient>
    <radialGradient id="shape_34_fill" cx="0.6468842729970327" cy="0.531390134529148" r="0.06617211022079875">
      <stop offset="0.0" stop-color="rgb(54, 47, 24)" stop-opacity="1.0"/>
      <stop offset="1.0" stop-color="rgb(52, 17, 21)" stop-opacity="0.4216109812259674"/>
    </radialGradient>
    <radialGradient id="shape_35_fill" cx="0.14688917437363802" cy="0.23960917519881586" r="0.06924662604176327">
      <stop offset="0.059910215" stop-color="rgb(195, 255, 79)" stop-opacity="0.159230038523674"/>
      <stop offset="0.56969535" stop-color="rgb(112, 92, 62)" stop-opacity="0.7845864295959473"/>
    </radialGradient>
    <radialGradient id="shape_36_fill" cx="0.2878338278931751" cy="0.9977578475336323" r="0.06617211022079875">
      <stop offset="0.0" stop-color="rgb(80, 96, 53)" stop-opacity="1.0"/>
      <stop offset="1.0" stop-color="rgb(36, 37, 0)" stop-opacity="0.7864625453948975"/>
    </radialGradient>
    <radialGradient id="shape_37_fill" cx="0.129080118694362" cy="0.9977578475336323" r="0.06617211022079875">
      <stop offset="0.0" stop-color="rgb(87, 97, 81)" stop-opacity="1.0"/>
      <stop offset="1.0" stop-color="rgb(66, 77, 54)" stop-opacity="0.5898851156234741"/>
    </radialGradient>
    <radialGradient id="shape_38_fill" cx="0.33892324204260943" cy="0.5607740119968294" r="0.0666785763703751">
      <stop offset="0.7501433" stop-color="rgb(83, 114, 20)" stop-opacity="0.9074576497077942"/>
      <stop offset="0.6022492" stop-color="rgb(171, 255, 79)" stop-opacity="0.8858821392059326"/>
    </radialGradient>
    <radialGradient id="shape_39_fill" cx="0.40059347181008903" cy="0.9641255605381166" r="0.06617211022079875">
      <stop offset="0.0" stop-color="rgb(138, 168, 60)" stop-opacity="1.0"/>
      <stop offset="1.0" stop-color="rgb(217, 255, 82)" stop-opacity="1.0"/>
    </radialGradient>
    <radialGradient id="shape_40_fill" cx="0.6132519096578264" cy="0.8782142673372688" r="0.06981326705977896">
      <stop offset="0.35446215" stop-color="rgb(158, 144, 146)" stop-opacity="0.4520531892776489"/>
      <stop offset="0.5056951" stop-color="rgb(0, 13, 70)" stop-opacity="0.9983181953430176"/>
    </radialGradient>
    <radialGradient id="shape_41_fill" cx="0.6454005934718101" cy="0.08744394618834081" r="0.06617211022079875">
      <stop offset="0.0" stop-color="rgb(58, 48, 21)" stop-opacity="1.0"/>
      <stop offset="1.0" stop-color="rgb(90, 63, 18)" stop-opacity="1.0"/>
    </radialGradient>
    <radialGradient id="shape_42_fill" cx="0.5845697329376854" cy="0.6188340807174888" r="0.06617211022079875">
      <stop offset="0.0" stop-color="rgb(62, 59, 56)" stop-opacity="1.0"/>
      <stop offset="1.0" stop-color="rgb(34, 30, 79)" stop-opacity="0.5926608443260193"/>
    </radialGradient>
    <radialGradient id="shape_43_fill" cx="0.35536492684474685" cy="0.5025646055760405" r="0.06924551106348235">
      <stop offset="0.23994641" stop-color="rgb(118, 160, 48)" stop-opacity="0.9047611951828003"/>
      <stop offset="0.5755437" stop-color="rgb(204, 255, 28)" stop-opacity="0.8387706875801086"/>
    </radialGradient>
    <radialGradient id="shape_44_fill" cx="0.5934718100890207" cy="0.9977578475336323" r="0.06617211022079875">
      <stop offset="0.0" stop-color="rgb(89, 61, 18)" stop-opacity="1.0"/>
      <stop offset="1.0" stop-color="rgb(163, 83, 0)" stop-opacity="0.7493268847465515"/>
    </radialGradient>
    <radialGradient id="shape_45_fill" cx="0.612759643916914" cy="0.04035874439461883" r="0.06617211022079875">
      <stop offset="0.0" stop-color="rgb(157, 136, 123)" stop-opacity="1.0"/>
      <stop offset="1.0" stop-color="rgb(255, 225, 205)" stop-opacity="1.0"/>
    </radialGradient>
    <radialGradient id="shape_46_fill" cx="0.28635014836795253" cy="0.9977578475336323" r="0.06617211022079875">
      <stop offset="0.0" stop-color="rgb(82, 99, 55)" stop-opacity="1.0"/>
      <stop offset="1.0" stop-color="rgb(91, 107, 27)" stop-opacity="0.58877032995224"/>
    </radialGradient>
    <radialGradient id="shape_47_fill" cx="0.28635014836795253" cy="0.8183856502242153" r="0.06617211022079875">
      <stop offset="0.0" stop-color="rgb(166, 189, 197)" stop-opacity="1.0"/>
      <stop offset="1.0" stop-color="rgb(255, 255, 255)" stop-opacity="0.4567969739437103"/>
    </radialGradient>
    <radialGradient id="shape_48_fill" cx="0.40801186943620177" cy="0.9977578475336323" r="0.06617211022079875">
      <stop offset="0.0" stop-color="rgb(107, 135, 68)" stop-opacity="1.0"/>
      <stop offset="1.0" stop-color="rgb(129, 146, 55)" stop-opacity="1.0"/>
    </radialGradient>
    <radialGradient id="shape_49_fill" cx="0.19287833827893175" cy="0.3991031390134529" r="0.06617211022079875">
      <stop offset="0.0" stop-color="rgb(92, 100, 54)" stop-opacity="1.0"/>
      <stop offset="1.0" stop-color="rgb(61, 39, 1)" stop-opacity="0.521912693977356"/>
    </radialGradient>
    <radialGradient id="shape_50_fill" cx="0.6439169139465876" cy="0.7376681614349776" r="0.06617211022079875">
      <stop offset="0.0" stop-color="rgb(65, 56, 25)" stop-opacity="1.0"/>
      <stop offset="1.0" stop-color="rgb(152, 192, 102)" stop-opacity="0.44537997245788574"/>
    </radialGradient>
    <radialGradient id="shape_51_fill" cx="0.5845697329376854" cy="0.6322869955156951" r="0.06617211022079875">
      <stop offset="0.0" stop-color="rgb(75, 68, 60)" stop-opacity="1.0"/>
      <stop offset="1.0" stop-color="rgb(144, 113, 90)" stop-opacity="0.6794644594192505"/>
    </radialGradient>
    <radialGradient id="shape_52_fill" cx="0.2997032640949555" cy="0.6031390134529148" r="0.06617211022079875">
      <stop offset="0.0" stop-color="rgb(107, 158, 118)" stop-opacity="1.0"/>
      <stop offset="1.0" stop-color="rgb(183, 255, 241)" stop-opacity="0.5306894183158875"/>
    </radialGradient>
    <radialGradient id="shape_53_fill" cx="0.6097922848664689" cy="0.45067264573991034" r="0.06617211022079875">
      <stop offset="0.0" stop-color="rgb(38, 39, 27)" stop-opacity="1.0"/>
      <stop offset="1.0" stop-color="rgb(18, 13, 48)" stop-opacity="0.3695741295814514"/>
    </radialGradient>
    <radialGradient id="shape_54_fill" cx="0.6335311572700296" cy="0.426009002822397" r="0.06617211022079875">
      <stop offset="0.0" stop-color="rgb(67, 49, 20)" stop-opacity="1.0"/>
      <stop offset="1.0" stop-color="rgb(137, 78, 20)" stop-opacity="0.6579355001449585"/>
    </radialGradient>
    <radialGradient id="shape_55_fill" cx="0.3707168533823257" cy="0.5988430827187851" r="0.066001377049115">
      <stop offset="0.43605936" stop-color="rgb(238, 255, 45)" stop-opacity="0.8658413887023926"/>
      <stop offset="0.16089156" stop-color="rgb(204, 255, 0)" stop-opacity="0.7352977395057678"/>
    </radialGradient>
    <radialGradient id="shape_56_fill" cx="0.5489614243323442" cy="0.600896860986547" r="0.06617211022079875">
      <stop offset="0.0" stop-color="rgb(50, 62, 80)" stop-opacity="1.0"/>
      <stop offset="1.0" stop-color="rgb(28, 76, 228)" stop-opacity="0.4504733681678772"/>
    </radialGradient>
    <radialGradient id="shape_57_fill" cx="0.4094955489614243" cy="0.9035874439461884" r="0.06617211022079875">
      <stop offset="0.0" stop-color="rgb(111, 144, 47)" stop-opacity="1.0"/>
      <stop offset="1.0" stop-color="rgb(182, 242, 24)" stop-opacity="0.6822289228439331"/>
    </radialGradient>
    <radialGradient id="shape_58_fill" cx="0.5281899109792285" cy="0.9977578475336323" r="0.06617211022079875">
      <stop offset="0.0" stop-color="rgb(50, 43, 14)" stop-opacity="1.0"/>
      <stop offset="1.0" stop-color="rgb(76, 55, 6)" stop-opacity="1.0"/>
    </radialGradient>
    <radialGradient id="shape_59_fill" cx="0.5845697329376854" cy="0.7690582959641256" r="0.06617211022079875">
      <stop offset="0.0" stop-color="rgb(61, 63, 58)" stop-opacity="1.0"/>
      <stop offset="1.0" stop-color="rgb(78, 75, 95)" stop-opacity="0.7087663412094116"/>
    </radialGradient>
    <radialGradient id="shape_60_fill" cx="0.5489614243323442" cy="0.9977578475336323" r="0.06617211022079875">
      <stop offset="0.0" stop-color="rgb(140, 131, 64)" stop-opacity="1.0"/>
      <stop offset="1.0" stop-color="rgb(235, 207, 89)" stop-opacity="0.9162698984146118"/>
    </radialGradient>
    <radialGradient id="shape_61_fill" cx="0.6469644608766459" cy="0.9686676846491382" r="0.06610872059264593">
      <stop offset="0.4628632" stop-color="rgb(255, 223, 62)" stop-opacity="1.0"/>
      <stop offset="0.23786698" stop-color="rgb(233, 168, 19)" stop-opacity="0.8244054913520813"/>
    </radialGradient>
    <radialGradient id="shape_62_fill" cx="0.615727002967359" cy="0.3991031390134529" r="0.06617211022079875">
      <stop offset="0.0" stop-color="rgb(55, 47, 13)" stop-opacity="1.0"/>
      <stop offset="1.0" stop-color="rgb(76, 53, 0)" stop-opacity="1.0"/>
    </radialGradient>
    <radialGradient id="shape_63_fill" cx="0.6261127596439169" cy="0.7286995515695067" r="0.06617211022079875">
      <stop offset="0.0" stop-color="rgb(79, 66, 32)" stop-opacity="1.0"/>
      <stop offset="1.0" stop-color="rgb(196, 205, 107)" stop-opacity="0.6169992685317993"/>
    </radialGradient>
    <radialGradient id="shape_64_fill" cx="0.40801186943620177" cy="0.12556053811659193" r="0.06617211022079875">
      <stop offset="0.0" stop-color="rgb(76, 66, 59)" stop-opacity="1.0"/>
      <stop offset="1.0" stop-color="rgb(109, 81, 75)" stop-opacity="1.0"/>
    </radialGradient>
    <radialGradient id="shape_65_fill" cx="0.6528189910979229" cy="0.6883408071748879" r="0.06617211022079875">
      <stop offset="0.0" stop-color="rgb(121, 97, 39)" stop-opacity="1.0"/>
      <stop offset="1.0" stop-color="rgb(255, 243, 95)" stop-opacity="1.0"/>
    </radialGradient>
    <radialGradient id="shape_66_fill" cx="0.6524116674587351" cy="0.45995467660672995" r="0.06996003102831741">
      <stop offset="0.24634098" stop-color="rgb(164, 198, 113)" stop-opacity="0.3068431615829468"/>
      <stop offset="0.9467307" stop-color="rgb(0, 0, 0)" stop-opacity="0.054897699505090714"/>
    </radialGradient>
    <radialGradient id="shape_67_fill" cx="0.596043436746569" cy="0.9950939914036224" r="0.06965911140781482">
      <stop offset="0.84853244" stop-color="rgb(53, 30, 0)" stop-opacity="0.7175648212432861"/>
      <stop offset="1.0" stop-color="rgb(0, 0, 0)" stop-opacity="0.15496520698070526"/>
    </radialGradient>
    <radialGradient id="shape_68_fill" cx="0.4902347372264466" cy="0.9967220973540849" r="0.06802010465446495">
      <stop offset="0.36278036" stop-color="rgb(48, 21, 2)" stop-opacity="0.5768970847129822"/>
      <stop offset="1.0" stop-color="rgb(37, 62, 56)" stop-opacity="0.22684618830680847"/>
    </radialGradient>
  </defs>
  <g>
    <path d="M -0.5069460272789001 271.01641845703125 C 25.687379837036133 265.4732971191406 37.53404235839844 267.2422180175781 45.592830657958984 272.4550476074219 C 48.1179084777832 274.1617736816406 49.36174774169922 276.2806396484375 57.08184814453125 274.49542236328125 C 59.60727310180664 273.80517578125 63.314414978027344 274.2751770019531 64.30606079101562 271.4135437011719 C 69.52444458007812 269.3619079589844 100.01371002197266 270.5982971191406 116.78573608398438 270.7970886230469 C 120.67810821533203 270.9158020019531 124.5992202758789 278.0469055175781 125.5694580078125 282.39007568359375 C 132.5610809326172 282.7392578125 141.1205596923828 281.5813293457031 159.69381713867188 288.0767822265625 C 185.265625 282.473388671875 185.83010864257812 282.36944580078125 206.69140625 287.2899169921875 C 200.14520263671875 287.58367919921875 198.23760986328125 281.6416015625 210.9326171875 269.5814208984375 C 246.87506103515625 269.51287841796875 290.34796142578125 268.02154541015625 313.372802734375 274.2663269042969 C 348.4112854003906 276.0376892089844 425.3096618652344 276.5374450683594 469.9139099121094 271.1222229003906 C 498.82257080078125 268.0546569824219 547.3340454101562 268.7405090332031 547.5242919921875 276.0553894042969 C 547.5682983398438 276.1050720214844 549.204833984375 270.86041259765625 572.0209350585938 268.2989501953125 C 587.70068359375 272.4973449707031 612.1806640625 282.16339111328125 612.6742553710938 282.2442321777344 C 622.9219970703125 270.0642395019531 632.3067016601562 269.2477111816406 672.302490234375 268.48968505859375 C 676.2178344726562 272.5648193359375 679.2941284179688 278.8773193359375 678.4628295898438 284.910400390625 C 676.6107177734375 339.5162048339844 674.7216796875 391.4992980957031 675.1177368164062 446.4668273925781 C 451.9151306152344 446.6697692871094 228.9889373779297 446.8115539550781 -0.47245481610298157 446.4240417480469 C -0.45348644256591797 389.14483642578125 -0.16043245792388916 332.3588562011719 -0.5069460272789001 271.01641845703125" stroke-width="0.0" fill="url(#shape_0_fill)"/>
    <path d="M -0.0009243087260983884 271.06854248046875 C 35.93348693847656 275.3956604003906 36.5576057434082 274.5878601074219 44.2509651184082 274.1182861328125 C 47.23790740966797 267.0445556640625 59.52525329589844 266.5132141113281 77.97187805175781 268.168212890625 C 113.54924011230469 278.68035888671875 114.03887176513672 279.3109130859375 127.54175567626953 279.0169677734375 C 127.87301635742188 271.69854736328125 139.99375915527344 269.9474182128906 145.36874389648438 269.40655517578125 C 185.2001190185547 268.42486572265625 185.90269470214844 270.1845397949219 202.9012908935547 274.1387023925781 C 203.1259307861328 292.018310546875 204.2195281982422 292.3089904785156 212.1668243408203 297.67645263671875 C 214.7869415283203 296.8646545410156 266.6031799316406 299.1650085449219 287.99365234375 300.7203674316406 C 317.5313720703125 303.1354064941406 448.24761962890625 301.2448425292969 462.6306457519531 302.58709716796875 C 479.84124755859375 294.2123718261719 490.17950439453125 291.6218566894531 504.2388916015625 287.0384521484375 C 511.36236572265625 288.15545654296875 520.7144165039062 286.5158386230469 522.9146728515625 286.49346923828125 C 527.4703979492188 285.7070617675781 531.8046875 285.93170166015625 534.8553466796875 287.1248779296875 C 541.64013671875 287.0386047363281 544.908447265625 288.31988525390625 552.6701049804688 301.99658203125 C 579.3163452148438 289.8943176269531 581.5380249023438 290.4872741699219 596.3937377929688 294.99798583984375 C 613.9114990234375 289.1309509277344 624.2814331054688 288.0700988769531 633.375 288.49298095703125 C 643.3961791992188 278.1673278808594 655.7168579101562 282.69244384765625 673.8196411132812 291.4960632324219 C 674.099853515625 340.3921203613281 674.47265625 392.16748046875 674.1564331054688 446.2807922363281 C 451.4774169921875 446.3905334472656 229.19664001464844 446.25439453125 -0.3076566159725189 446.2476501464844 C -0.2135799378156662 389.4035949707031 -0.2940194308757782 333.0278625488281 -0.0009243087260983884 271.06854248046875" stroke-width="0.0" fill="url(#shape_1_fill)"/>
    <path d="M -0.019932541996240616 -0.25989267230033875 C 219.69313049316406 0.1040392518043518 439.478759765625 -0.45242562890052795 672.5186157226562 -0.17044617235660553 C 665.9663696289062 10.986884117126465 644.7907104492188 35.41936111450195 637.8059692382812 48.46373748779297 C 634.4118041992188 53.22462844848633 611.027099609375 93.20303344726562 584.5888061523438 83.95855712890625 C 577.7259521484375 81.63021850585938 561.0149536132812 71.06393432617188 532.6129760742188 73.8268814086914 C 531.9640502929688 77.54385375976562 525.0588989257812 79.02828216552734 522.324462890625 72.07252502441406 C 522.6397705078125 68.865234375 499.4166259765625 63.84591293334961 499.4076232910156 62.65998458862305 C 492.93719482421875 62.14461135864258 486.1239929199219 61.00923538208008 484.5630798339844 68.5102310180664 C 475.2188415527344 72.4681625366211 476.074462890625 75.66441345214844 477.2071228027344 83.7327651977539 C 485.3443298339844 99.27693176269531 478.0065612792969 117.35801696777344 474.5272521972656 120.74701690673828 C 460.5032043457031 117.50353240966797 459.1590576171875 113.6187744140625 450.0275573730469 108.3045883178711 C 435.1748046875 107.9197769165039 411.7140197753906 102.23880004882812 410.1304931640625 105.05027770996094 C 413.65545654296875 120.15745544433594 417.4214172363281 127.1758041381836 414.11297607421875 138.2074432373047 C 409.5467834472656 149.0289764404297 398.364501953125 148.48045349121094 393.6666259765625 136.04898071289062 C 381.5471496582031 142.71240234375 376.3421325683594 158.2194366455078 369.06756591796875 157.45599365234375 C 366.6876525878906 156.44976806640625 364.30987548828125 160.15830993652344 358.95782470703125 164.3456573486328 C 355.037353515625 167.6492156982422 351.7564392089844 167.63180541992188 350.548828125 173.24940490722656 C 345.2867126464844 180.3427276611328 337.48321533203125 174.71038818359375 340.65618896484375 166.5407257080078 C 300.87823486328125 164.71951293945312 299.457763671875 171.2985382080078 297.4580383300781 178.4730682373047 C 304.21209716796875 187.71624755859375 304.0350646972656 191.45050048828125 307.4725036621094 201.5121612548828 C 307.5050048828125 200.6455535888672 306.0920715332031 198.16470336914062 303.97088623046875 190.37173461914062 C 305.0336608886719 185.81105041503906 303.95184326171875 185.29302978515625 289.221923828125 175.5076141357422 C 289.6880798339844 194.5662384033203 289.1484375 195.97216796875 289.4628601074219 196.29075622558594 C 288.9980773925781 189.9512176513672 290.14849853515625 182.19357299804688 288.5865783691406 175.5876007080078 C 272.3054504394531 178.2144012451172 269.2198181152344 183.08602905273438 261.7139892578125 178.48330688476562 C 255.42665100097656 183.09304809570312 255.6348419189453 188.06668090820312 254.77752685546875 197.41891479492188 C 260.73065185546875 199.34405517578125 260.5694274902344 199.9314727783203 257.7861328125 199.5874786376953 C 257.18017578125 198.4251251220703 253.80780029296875 195.61451721191406 254.53982543945312 193.76646423339844 C 255.8213348388672 185.4708709716797 260.06793212890625 183.26686096191406 257.462158203125 167.28594970703125 C 259.1405334472656 162.8585968017578 216.3627166748047 141.9922637939453 213.61289978027344 140.5806121826172 C 186.16064453125 131.239990234375 195.371337890625 103.98705291748047 191.66787719726562 86.9498519897461 C 191.86473083496094 84.5704574584961 161.07098388671875 73.53582000732422 132.69351196289062 59.82636642456055 C 108.5718765258789 39.57197189331055 72.447265625 56.57212448120117 40.92624282836914 60.431922912597656 C 25.44770050048828 69.92900848388672 4.299518585205078 69.47624969482422 -1.1375126838684082 69.69268035888672 C 0.34183040261268616 43.958133697509766 -0.3314551115036011 22.56187629699707 -0.019932541996240616 -0.25989267230033875" stroke-width="0.0" fill="url(#shape_2_fill)"/>
    <path d="M 86.6875991821289 59.64759063720703 C 89.16077423095703 68.78752899169922 91.71244812011719 69.03561401367188 93.52157592773438 71.07276916503906 C 90.9914321899414 79.97428131103516 91.58576965332031 81.64517974853516 89.84125518798828 92.57815551757812 C 96.48371887207031 86.31511688232422 98.45655059814453 86.53070068359375 102.9296875 87.81356811523438 C 104.73851776123047 75.2331314086914 105.86741638183594 73.37564086914062 108.2728042602539 73.2544937133789 C 112.30281829833984 87.59054565429688 110.692626953125 93.31633758544922 116.58235168457031 99.29602813720703 C 116.4136734008789 100.05290222167969 116.31326293945312 109.19402313232422 115.49169158935547 115.3587646484375 C 123.5623550415039 115.35713195800781 128.5450439453125 115.77181243896484 129.4654998779297 112.29631042480469 C 130.66604614257812 110.03280639648438 136.71852111816406 108.81155395507812 136.55641174316406 104.72493743896484 C 136.637451171875 103.67807006835938 135.55592346191406 101.81856536865234 137.32765197753906 98.48184967041016 C 136.4871063232422 93.26927947998047 137.51632690429688 92.8969955444336 137.53656005859375 89.34750366210938 C 137.33767700195312 85.17813110351562 138.61341857910156 84.78311157226562 139.5889434814453 87.18768310546875 C 140.2018585205078 82.9711685180664 146.73292541503906 80.70355987548828 148.10061645507812 83.01225280761719 C 148.5749053955078 93.24259185791016 150.09327697753906 94.55166625976562 151.9999237060547 99.12290954589844 C 153.5290069580078 102.94234466552734 149.91831970214844 106.91294860839844 148.83682250976562 106.72703552246094 C 152.57940673828125 109.7982177734375 150.4376220703125 114.10014343261719 148.4479217529297 113.39530944824219 C 154.4115447998047 112.83560943603516 157.91751098632812 122.5916748046875 157.17282104492188 123.29535675048828 C 161.30996704101562 125.04171752929688 164.9844512939453 123.47024536132812 169.6353759765625 122.69480895996094 C 174.3910675048828 119.7304458618164 175.78433227539062 121.51411437988281 177.7102813720703 122.50050354003906 C 179.33261108398438 122.68702697753906 179.99998474121094 125.26175689697266 183.13316345214844 127.61827087402344 C 183.8505096435547 130.1898651123047 182.45704650878906 133.09242248535156 184.14300537109375 135.2185821533203 C 187.1085205078125 135.186767578125 187.6287841796875 142.3389892578125 188.78775024414062 145.1690673828125 C 195.1680450439453 146.4545135498047 206.64242553710938 153.69808959960938 201.6537628173828 172.88677978515625 C 205.33970642089844 176.581298828125 205.95594787597656 178.6992645263672 205.5531005859375 181.56689453125 C 213.78297424316406 181.4243621826172 214.46336364746094 195.81846618652344 212.51296997070312 202.5935516357422 C 205.0788116455078 206.65345764160156 203.26356506347656 207.0894012451172 203.14247131347656 210.25534057617188 C 200.74749755859375 210.5198211669922 199.9547119140625 211.7016143798828 200.1376495361328 213.49269104003906 C 196.30067443847656 215.2480926513672 193.39427185058594 215.32640075683594 191.99888610839844 219.69998168945312 C 184.2799530029297 220.88087463378906 183.59500122070312 224.74073791503906 178.49966430664062 230.1153564453125 C 176.41754150390625 233.53567504882812 180.63427734375 239.03150939941406 180.97598266601562 240.4617462158203 C 182.3853759765625 251.77622985839844 185.79989624023438 260.7930603027344 178.8077392578125 264.8887939453125 C 173.55702209472656 268.18914794921875 148.68569946289062 268.32354736328125 136.02398681640625 269.5929260253906 C 131.89450073242188 269.2387390136719 129.1618194580078 272.3265686035156 122.22470092773438 275.5065002441406 C 109.14653015136719 276.9029235839844 73.28909301757812 276.0314636230469 73.02880096435547 270.0405578613281 C 47.69928741455078 266.7731018066406 56.5550537109375 268.5708923339844 57.62129592895508 273.5741271972656 C 48.24294662475586 276.3768005371094 1.0431302785873413 272.8218078613281 0.8066756129264832 270.122802734375 C -5.73844575881958 224.25332641601562 -5.3770551681518555 166.64857482910156 2.2764089107513428 121.73103332519531 C 11.288969039916992 118.46099090576172 21.621965408325195 113.96454620361328 26.048940658569336 121.78184509277344 C 27.050952911376953 129.5837860107422 35.65032958984375 129.06004333496094 42.18106460571289 131.94664001464844 C 47.16814422607422 130.1181182861328 47.49049377441406 130.99652099609375 49.4937629699707 142.18923950195312 C 50.316654205322266 148.54937744140625 61.46257400512695 148.74024963378906 62.7578010559082 146.26882934570312 C 62.200069427490234 136.84010314941406 63.08156204223633 133.97686767578125 62.165733337402344 128.27655029296875 C 68.29212188720703 126.65252685546875 67.66614532470703 123.53717041015625 66.31393432617188 112.52193450927734 C 67.93154907226562 111.12907409667969 68.39378356933594 106.16798400878906 75.87379455566406 102.7718734741211 C 74.00790405273438 100.90340423583984 78.33010864257812 91.86930847167969 77.31640625 85.66796112060547 C 77.18425750732422 83.74307250976562 77.81622314453125 74.91232299804688 85.30269622802734 75.33065032958984 C 83.01355743408203 70.1110610961914 82.79669952392578 67.53788757324219 86.6875991821289 59.64759063720703" stroke-width="0.0" fill="url(#shape_3_fill)"/>
    <path d="M 674.0611572265625 -0.7250131964683533 C 676.1160888671875 47.82653045654297 675.0172119140625 95.90823364257812 680.1739501953125 139.19216918945312 C 677.4713745117188 126.03665161132812 669.2511596679688 123.2630844116211 661.6185302734375 120.24333190917969 C 660.8572998046875 120.07679748535156 655.0748901367188 109.39171600341797 649.8284301757812 110.92063903808594 C 648.822509765625 112.5345458984375 645.2182006835938 149.4506072998047 642.8611450195312 155.6830596923828 C 629.8453979492188 154.59121704101562 626.8091430664062 142.96270751953125 627.0592651367188 138.51988220214844 C 623.0314331054688 137.43775939941406 618.9623413085938 145.34625244140625 615.4288940429688 144.08859252929688 C 611.6814575195312 142.31541442871094 610.1574096679688 143.34011840820312 607.7740478515625 141.08489990234375 C 608.8872680664062 137.7770233154297 612.5311889648438 132.95326232910156 606.636474609375 119.81422424316406 C 598.3155517578125 133.97653198242188 597.5220947265625 139.3214569091797 594.19775390625 142.6953125 C 599.4425659179688 146.30447387695312 597.6625366210938 151.5152587890625 597.4577026367188 152.1037139892578 C 588.7018432617188 157.60231018066406 587.6016845703125 164.3636016845703 578.961181640625 172.3271942138672 C 571.9107055664062 170.2968292236328 569.9149169921875 158.40457153320312 568.6754150390625 157.09823608398438 C 565.7625732421875 157.69479370117188 563.4599609375 153.66033935546875 561.7237548828125 151.5331573486328 C 560.0973510742188 150.64996337890625 556.1842041015625 150.96177673339844 555.7887573242188 156.06349182128906 C 551.9097900390625 156.13644409179688 550.3572998046875 158.82534790039062 548.8246459960938 158.6481170654297 C 547.626708984375 156.6199188232422 544.4100341796875 156.20716857910156 536.1674194335938 153.6805419921875 C 531.7897338867188 154.89938354492188 529.9680786132812 158.76483154296875 523.1193237304688 156.86773681640625 C 519.2554931640625 160.51882934570312 520.3157958984375 162.14915466308594 522.9913330078125 169.26211547851562 C 517.6150512695312 168.46353149414062 517.1736450195312 170.9169464111328 516.2831420898438 171.66563415527344 C 511.2713623046875 173.32232666015625 509.8157043457031 175.26531982421875 505.6396484375 174.399169921875 C 502.7703552246094 171.4007568359375 503.008544921875 169.51901245117188 502.8132629394531 159.08509826660156 C 492.5457458496094 145.32394409179688 507.09661865234375 121.6658935546875 518.2276000976562 126.54927825927734 C 523.7360229492188 125.29167938232422 539.9576416015625 110.26033782958984 548.805908203125 112.99542236328125 C 557.237060546875 110.71678924560547 556.9052124023438 109.3818359375 558.17529296875 107.5106201171875 C 559.7463989257812 108.40704345703125 564.8939208984375 102.68030548095703 570.4441528320312 104.96063995361328 C 574.6010131835938 102.4434585571289 573.4398193359375 97.4809799194336 578.9913940429688 94.1051254272461 C 585.0462036132812 88.47549438476562 595.7440185546875 77.5700912475586 613.3615112304688 78.29586791992188 C 616.89306640625 73.57067108154297 645.0067138671875 51.197818756103516 645.3675537109375 35.511356353759766 C 644.9816284179688 32.44990158081055 648.0003051757812 30.393491744995117 647.6511840820312 29.543502807617188 C 646.9698486328125 28.296157836914062 664.3535766601562 -4.171904563903809 674.0611572265625 -0.7250131964683533" stroke-width="0.0" fill="url(#shape_4_fill)"/>
    <path d="M 151.57005310058594 68.51102447509766 C 152.3102569580078 69.05713653564453 186.2812957763672 84.51638793945312 192.68775939941406 92.7523422241211 C 179.33897399902344 117.92526245117188 217.69644165039062 150.06735229492188 220.86582946777344 154.9119110107422 C 238.85740661621094 170.0687255859375 241.99087524414062 184.1694793701172 240.81471252441406 193.8644561767578 C 238.1127471923828 193.19992065429688 236.1726837158203 186.5230712890625 236.7700653076172 184.0620574951172 C 235.68275451660156 183.55987548828125 234.15667724609375 184.30067443847656 231.07424926757812 182.70301818847656 C 231.1950225830078 183.94168090820312 232.10670471191406 194.03012084960938 228.63232421875 195.6683807373047 C 227.58811950683594 196.63580322265625 227.17642211914062 205.39422607421875 221.39141845703125 207.7025146484375 C 215.0821075439453 206.58877563476562 214.31649780273438 197.85708618164062 214.65744018554688 194.88133239746094 C 212.95989990234375 185.43789672851562 211.89669799804688 184.94581604003906 206.52708435058594 177.3932342529297 C 205.9158477783203 173.02560424804688 205.98789978027344 166.45973205566406 204.13829040527344 159.09921264648438 C 206.2482452392578 153.32373046875 194.85072326660156 144.68113708496094 193.3837890625 141.19520568847656 C 189.08192443847656 140.23556518554688 188.8631591796875 137.30014038085938 186.58087158203125 135.87554931640625 C 178.3228759765625 133.2665252685547 178.9921417236328 126.93287658691406 183.28640747070312 117.29490661621094 C 179.3900909423828 116.46356201171875 177.3973388671875 117.65576171875 172.9596710205078 117.76667785644531 C 179.24551391601562 128.10052490234375 175.7301788330078 131.0298309326172 151.91860961914062 130.3096923828125 C 149.5358123779297 127.28862762451172 151.6309051513672 102.72628021240234 153.98541259765625 94.43407440185547 C 152.89166259765625 88.87027740478516 153.39511108398438 87.0204849243164 149.9358673095703 76.305419921875 C 148.12657165527344 75.91445922851562 148.5433349609375 69.28536224365234 151.57005310058594 68.51102447509766" stroke-width="0.0" fill="url(#shape_5_fill)"/>
    <path d="M 611.3408203125 81.58667755126953 C 618.6898193359375 84.1197280883789 619.6503295898438 86.10480499267578 631.2310791015625 85.6770248413086 C 636.101318359375 86.00762176513672 637.131103515625 88.02153015136719 641.1973876953125 89.31241607666016 C 642.1571044921875 87.33708190917969 666.7715454101562 92.569580078125 674.8433227539062 98.27910614013672 C 675.387451171875 110.6426773071289 674.7866821289062 125.91658020019531 675.2949829101562 150.9363555908203 C 665.8482055664062 142.53692626953125 662.9508666992188 136.5586395263672 658.9312744140625 131.24951171875 C 659.581787109375 122.02486419677734 660.55859375 116.49290466308594 653.0174560546875 112.28129577636719 C 646.1656494140625 114.40958404541016 644.5761108398438 142.29730224609375 642.3704223632812 143.0682373046875 C 643.8133544921875 144.78709411621094 642.64111328125 148.28558349609375 643.9691772460938 150.44090270996094 C 639.9383544921875 150.83714294433594 637.9095458984375 152.7865447998047 634.93505859375 153.36300659179688 C 631.5718383789062 146.2233428955078 629.1912841796875 141.39418029785156 630.09228515625 140.53402709960938 C 628.86376953125 137.81568908691406 621.9874267578125 137.1463623046875 620.8316650390625 138.78610229492188 C 618.2767333984375 140.5795135498047 619.3688354492188 142.366943359375 618.5480346679688 147.48435974121094 C 614.4002685546875 144.63145446777344 613.4993286132812 143.19357299804688 610.0917358398438 143.66734313964844 C 608.5259399414062 140.4066925048828 609.58203125 139.24310302734375 609.177001953125 137.37533569335938 C 606.556396484375 132.25572204589844 604.9867553710938 126.66349029541016 598.5402221679688 128.2224578857422 C 605.3098754882812 133.5787353515625 595.0850830078125 148.0572967529297 591.796142578125 155.5834503173828 C 590.4651489257812 163.8101348876953 589.0948486328125 164.0244598388672 585.54052734375 169.1254425048828 C 584.8526000976562 167.52914428710938 583.8914184570312 165.5674591064453 589.9896850585938 154.23634338378906 C 587.0505981445312 148.83287048339844 581.6676635742188 147.3263397216797 575.5245971679688 144.95950317382812 C 566.444580078125 156.4458465576172 556.6867065429688 155.4468536376953 556.030517578125 151.38427734375 C 555.8414306640625 152.9134521484375 553.0747680664062 154.70713806152344 552.898681640625 157.76895141601562 C 551.279541015625 161.6944122314453 548.0338745117188 160.50906372070312 547.3751220703125 159.11717224121094 C 544.411865234375 156.66802978515625 542.883544921875 154.17459106445312 537.676025390625 157.3680419921875 C 535.0181274414062 158.49192810058594 531.2194213867188 157.63888549804688 529.0294799804688 158.29551696777344 C 526.2711791992188 159.39532470703125 526.4879760742188 162.82077026367188 525.43408203125 166.11549377441406 C 524.5009155273438 169.42372131347656 523.5374755859375 171.56689453125 519.0360717773438 173.08486938476562 C 511.67333984375 177.39051818847656 501.9615173339844 174.88552856445312 487.6755065917969 162.3589630126953 C 483.31317138671875 137.65087890625 501.1163635253906 118.38592529296875 513.033203125 118.21770477294922 C 529.4188232421875 127.54591369628906 540.5794677734375 108.13424682617188 549.6514892578125 111.69715118408203 C 555.5576171875 110.01758575439453 560.4625244140625 109.8182601928711 563.9375610351562 106.76866149902344 C 564.6271362304688 104.50270080566406 566.5851440429688 103.59929656982422 569.87353515625 104.50595092773438 C 574.3287963867188 101.32980346679688 578.5748901367188 97.87065124511719 586.9146118164062 99.3360824584961 C 600.342529296875 93.34964752197266 603.5593872070312 80.02875518798828 611.3408203125 81.58667755126953" stroke-width="0.0" fill="url(#shape_6_fill)"/>
    <path d="M 1.176435947418213 104.18470001220703 C 35.08135223388672 114.31771087646484 42.958072662353516 123.54058837890625 51.4339599609375 139.3672332763672 C 81.05609130859375 154.08372497558594 52.03227233886719 214.40951538085938 44.01951217651367 241.513916015625 C 50.486454010009766 260.2283020019531 48.44683074951172 264.6254577636719 48.41241455078125 265.3860778808594 C 48.345096588134766 261.5802307128906 21.187559127807617 256.9980163574219 11.690608024597168 253.12522888183594 C 4.839240074157715 208.3717498779297 -6.067821979522705 168.23324584960938 1.176435947418213 104.18470001220703" stroke-width="0.0" fill="url(#shape_7_fill)"/>
    <path d="M 384.82171630859375 197.29258728027344 C 422.2933044433594 184.44004821777344 427.28070068359375 191.50445556640625 429.9413757324219 204.1824951171875 C 474.6190490722656 190.01600646972656 496.3236999511719 204.76333618164062 491.7095642089844 231.8240509033203 C 490.9980773925781 250.49057006835938 486.2350158691406 251.4977264404297 484.8582763671875 252.4010467529297 C 485.9441833496094 258.9173583984375 482.4893493652344 268.9082946777344 477.0208740234375 269.0581359863281 C 469.04290771484375 272.9302978515625 453.2210388183594 266.7112731933594 451.6285095214844 269.7130432128906 C 447.05242919921875 266.2826232910156 448.2600402832031 261.21246337890625 449.0511474609375 260.1695861816406 C 439.2552185058594 264.7806396484375 436.5162048339844 261.4204406738281 437.4417419433594 256.79986572265625 C 427.0107727050781 256.7608642578125 425.69622802734375 259.20965576171875 421.1483459472656 262.0937194824219 C 418.5452575683594 264.251708984375 417.6412658691406 267.69195556640625 414.92535400390625 273.39996337890625 C 414.1131591796875 272.50860595703125 392.0673522949219 268.19305419921875 392.5828552246094 264.1849365234375 C 391.8226623535156 265.1131591796875 388.96826171875 263.3493347167969 385.8996276855469 263.7147521972656 C 382.1119384765625 261.9577941894531 380.8185119628906 263.1900634765625 376.50006103515625 261.0787658691406 C 374.89361572265625 256.33538818359375 376.0917053222656 252.49972534179688 372.1821594238281 249.6414031982422 C 359.3495178222656 243.6436004638672 374.14031982421875 195.7058868408203 378.7166442871094 178.04928588867188 C 384.14251708984375 170.83273315429688 393.7721252441406 176.66641235351562 384.82171630859375 197.29258728027344" stroke-width="0.0" fill="url(#shape_8_fill)"/>
    <path d="M 566.2698364257812 157.275146484375 C 568.2567138671875 158.86355590820312 568.1559448242188 166.6210479736328 569.4376220703125 168.0062713623047 C 573.5134887695312 169.4633331298828 573.6607055664062 170.97467041015625 577.5337524414062 174.39840698242188 C 581.931884765625 172.94444274902344 583.97265625 174.56732177734375 583.70556640625 179.4728546142578 C 575.345458984375 180.47731018066406 572.07080078125 225.6162872314453 577.29638671875 226.96560668945312 C 577.8968505859375 229.95057678222656 581.2999877929688 235.67825317382812 577.1423950195312 241.52149963378906 C 568.7604370117188 238.526123046875 566.5264892578125 237.17909240722656 558.7565307617188 247.30726623535156 C 553.9852294921875 250.1901397705078 495.889404296875 254.4252471923828 487.536865234375 251.53302001953125 C 486.11395263671875 250.21180725097656 486.9425048828125 239.32923889160156 492.413330078125 229.4527130126953 C 486.4085693359375 226.29278564453125 483.17626953125 222.30374145507812 481.8051452636719 215.61935424804688 C 476.73980712890625 209.86154174804688 479.3419189453125 205.84669494628906 482.7734069824219 205.98117065429688 C 480.12347412109375 205.341796875 481.5533752441406 199.03347778320312 489.1779479980469 198.9569091796875 C 491.9727478027344 196.21864318847656 491.81524658203125 192.5049285888672 492.8138427734375 187.92941284179688 C 489.7451477050781 174.1677703857422 490.14276123046875 173.18792724609375 487.6263122558594 164.51583862304688 C 504.1998291015625 163.4121856689453 505.7197570800781 165.50038146972656 516.690185546875 164.7177276611328 C 523.0799560546875 169.3873291015625 524.7646484375 167.18563842773438 525.8335571289062 167.54763793945312 C 523.4834594726562 161.41171264648438 531.4556274414062 156.26258850097656 533.2969970703125 158.67079162597656 C 537.6144409179688 161.8592987060547 541.3790893554688 162.47174072265625 542.1643676757812 163.9796600341797 C 545.2184448242188 164.07472229003906 545.8475952148438 165.83099365234375 549.7750854492188 166.6640625 C 548.9818115234375 165.6224365234375 551.1476440429688 157.32325744628906 554.603515625 158.22560119628906 C 557.9743041992188 160.9668731689453 563.0491333007812 157.8672332763672 566.2698364257812 157.275146484375" stroke-width="0.0" fill="url(#shape_9_fill)"/>
    <path d="M 561.5756225585938 156.68392944335938 C 566.12744140625 152.81663513183594 571.112548828125 158.3024444580078 570.8901977539062 170.45484924316406 C 572.2772216796875 169.16542053222656 576.1597900390625 169.21157836914062 579.4751586914062 174.73402404785156 C 580.6705322265625 178.1302947998047 579.3912963867188 187.4762420654297 578.0263671875 191.57269287109375 C 571.28564453125 196.704345703125 571.996337890625 229.9718780517578 578.0807495117188 230.97669982910156 C 576.070068359375 231.159423828125 575.6058349609375 236.83685302734375 572.0517578125 238.0260772705078 C 560.1387329101562 235.89161682128906 567.3211669921875 238.64637756347656 563.8289794921875 247.80325317382812 C 548.0809326171875 253.39910888671875 501.2872009277344 249.22988891601562 500.18414306640625 251.66941833496094 C 491.0652160644531 251.82322692871094 487.8649597167969 236.98968505859375 491.658447265625 229.9268341064453 C 486.6233215332031 224.92724609375 481.98321533203125 219.27403259277344 481.6394348144531 215.4356231689453 C 475.55975341796875 214.41929626464844 474.14849853515625 214.62779235839844 464.3726501464844 197.21372985839844 C 463.8353576660156 186.2669677734375 474.53643798828125 182.23583984375 483.1600646972656 195.4903564453125 C 489.9173583984375 197.61036682128906 494.46099853515625 184.27272033691406 496.6286315917969 182.9550018310547 C 495.3046569824219 178.8593292236328 497.5860290527344 177.6807861328125 500.1715087890625 177.43682861328125 C 507.935302734375 179.08082580566406 516.5581665039062 181.67535400390625 520.5880126953125 174.06007385253906 C 523.7156372070312 173.35678100585938 526.8836669921875 159.26144409179688 531.5283813476562 155.2864532470703 C 537.9220581054688 156.12139892578125 538.6400146484375 159.802978515625 539.9794311523438 166.07760620117188 C 545.759521484375 165.9436492919922 549.0560302734375 167.3958282470703 551.3408203125 166.29461669921875 C 551.0695190429688 155.94715881347656 553.0770263671875 153.05873107910156 561.5756225585938 156.68392944335938" stroke-width="0.0" fill="url(#shape_10_fill)"/>
    <path d="M 447.7732849121094 107.50122833251953 C 452.80987548828125 111.00724792480469 453.95294189453125 112.4914779663086 462.2629699707031 111.69956970214844 C 464.9805603027344 116.80574035644531 469.2634582519531 115.0579605102539 480.86322021484375 111.82005310058594 C 488.7275390625 124.4793472290039 488.73046875 125.25950622558594 492.2981872558594 130.90904235839844 C 493.7086181640625 131.87295532226562 493.51214599609375 134.76966857910156 497.04052734375 136.3185272216797 C 494.1358337402344 135.6083221435547 492.79217529296875 138.237548828125 489.104736328125 141.2381134033203 C 483.04864501953125 137.3165283203125 481.7296447753906 139.2208251953125 478.31439208984375 143.13099670410156 C 467.6792907714844 140.31507873535156 466.2497863769531 138.95115661621094 465.7581481933594 134.41033935546875 C 464.4512023925781 133.5386505126953 460.692138671875 133.5368194580078 460.3515319824219 134.27236938476562 C 461.0870666503906 133.99884033203125 478.4922180175781 144.07408142089844 492.8491516113281 152.813720703125 C 476.4725646972656 176.80380249023438 475.4591979980469 177.24354553222656 472.854736328125 182.05169677734375 C 467.28106689453125 182.82630920410156 466.9266357421875 187.81521606445312 466.2174072265625 189.58270263671875 C 463.1950988769531 184.38121032714844 462.1605529785156 172.9643096923828 458.4096374511719 168.7147216796875 C 448.2828674316406 179.35086059570312 447.47509765625 182.39222717285156 439.8955078125 183.08445739746094 C 439.42364501953125 183.85687255859375 435.7602233886719 195.623291015625 434.7893371582031 197.52488708496094 C 429.60595703125 200.25540161132812 417.5285949707031 180.57608032226562 417.69818115234375 179.75135803222656 C 416.93798828125 179.69949340820312 398.0530700683594 180.1942138671875 397.7909851074219 173.2164764404297 C 393.78564453125 171.04428100585938 389.79229736328125 176.3616485595703 379.5380554199219 174.73019409179688 C 382.0516357421875 160.1075897216797 380.81268310546875 149.16619873046875 392.61407470703125 139.03880310058594 C 397.96923828125 137.32183837890625 399.5384521484375 129.8306427001953 402.1480407714844 121.14034271240234 C 407.1799621582031 98.99201202392578 425.9241638183594 103.20582580566406 447.7732849121094 107.50122833251953" stroke-width="0.0" fill="url(#shape_11_fill)"/>
    <path d="M 602.9008178710938 127.52871704101562 C 605.7462768554688 130.23910522460938 605.642333984375 143.42962646484375 607.4000854492188 144.97706604003906 C 611.1712036132812 145.54202270507812 611.7802734375 149.0625762939453 615.85791015625 152.81178283691406 C 618.1551513671875 149.8782501220703 618.1675415039062 141.79542541503906 621.3935546875 141.06423950195312 C 623.13037109375 137.43743896484375 625.4357299804688 137.3860321044922 627.5223388671875 140.3193817138672 C 627.4902954101562 142.15423583984375 628.9732666015625 144.76052856445312 628.8684692382812 147.2225799560547 C 632.105712890625 149.76719665527344 631.7468872070312 151.17808532714844 636.5200805664062 153.5231170654297 C 642.1945190429688 154.6881866455078 641.9463500976562 160.41566467285156 647.1724243164062 169.97344970703125 C 639.2171020507812 185.0914764404297 640.068603515625 194.91580200195312 640.4558715820312 206.58265686035156 C 650.2122192382812 213.8963165283203 651.17578125 232.44236755371094 642.8861083984375 245.67677307128906 C 623.017822265625 248.33033752441406 611.7025146484375 249.12904357910156 579.0812377929688 262.8924865722656 C 569.9280395507812 251.84097290039062 576.1370239257812 232.13133239746094 574.8309936523438 217.4403076171875 C 568.0855102539062 209.36187744140625 571.9536743164062 168.89503479003906 583.2839965820312 169.79151916503906 C 597.2444458007812 163.45216369628906 599.5591430664062 143.68797302246094 599.9588623046875 142.04942321777344 C 595.6653442382812 139.7843017578125 596.7510986328125 136.9062042236328 602.9008178710938 127.52871704101562" stroke-width="0.0" fill="url(#shape_12_fill)"/>
    <path d="M 411.0548400878906 176.5392303466797 C 420.2301025390625 173.9383544921875 433.2113037109375 213.19554138183594 429.04730224609375 220.4065704345703 C 419.7591857910156 227.5948486328125 427.07977294921875 237.86856079101562 430.16668701171875 242.71142578125 C 429.9796142578125 262.5680847167969 420.7951965332031 266.4228820800781 415.093994140625 268.4886169433594 C 404.4906921386719 266.1048889160156 401.4515075683594 271.8592224121094 390.77740478515625 267.5664367675781 C 385.4859924316406 264.93072509765625 382.4873962402344 266.1059265136719 380.0137939453125 265.37005615234375 C 375.39630126953125 263.5018615722656 375.180908203125 260.76983642578125 375.1025085449219 258.430908203125 C 376.3897705078125 255.4065704345703 374.6711120605469 254.58697509765625 374.7710876464844 253.52670288085938 C 372.28253173828125 254.90333557128906 370.1216735839844 251.13436889648438 368.5246276855469 251.79974365234375 C 360.439208984375 248.127197265625 366.2420654296875 229.1708984375 367.1661376953125 221.3238983154297 C 369.22021484375 218.86380004882812 372.2061462402344 202.7698211669922 381.78973388671875 203.18106079101562 C 379.3543701171875 195.42868041992188 379.3258056640625 190.3614044189453 389.7367858886719 186.72866821289062 C 391.5796813964844 177.2754669189453 392.90606689453125 176.9502410888672 411.0548400878906 176.5392303466797" stroke-width="0.0" fill="url(#shape_13_fill)"/>
    <path d="M 508.53033447265625 66.96717071533203 C 512.6515502929688 65.9658203125 521.28173828125 70.12555694580078 523.1187133789062 75.06370544433594 C 530.7562255859375 79.39808654785156 533.9052734375 80.00648498535156 536.7847290039062 89.99588012695312 C 539.27783203125 90.89485931396484 544.5418701171875 90.29487609863281 545.0235595703125 91.17054748535156 C 545.5364990234375 92.7447509765625 556.1636962890625 96.8509521484375 559.1091918945312 95.44220733642578 C 563.4658203125 97.60120391845703 567.3300170898438 97.55094146728516 568.7412109375 99.14228057861328 C 564.4027099609375 105.34003448486328 556.7011108398438 115.61016082763672 542.1831665039062 110.81107330322266 C 541.3898315429688 111.8376235961914 539.341796875 114.93895721435547 534.7689819335938 118.41162872314453 C 527.976806640625 120.88581848144531 519.9838256835938 124.39639282226562 515.6176147460938 118.67721557617188 C 511.4109191894531 120.4831314086914 501.4919128417969 125.5381851196289 499.25384521484375 125.31661224365234 C 497.224365234375 128.49473571777344 493.705322265625 128.46624755859375 489.44659423828125 127.29739379882812 C 489.6737976074219 120.22848510742188 468.822509765625 118.77352142333984 468.11639404296875 117.76695251464844 C 463.5391845703125 117.79251098632812 462.9362487792969 116.70238494873047 462.1903076171875 115.96188354492188 C 469.8494873046875 118.52665710449219 472.6590270996094 111.64679718017578 477.84393310546875 106.99071502685547 C 474.8931884765625 93.22589111328125 473.3203430175781 86.71025848388672 475.03155517578125 82.0119400024414 C 474.5901184082031 70.93392181396484 475.34326171875 70.38630676269531 478.2323913574219 66.41213989257812 C 478.83349609375 64.06422424316406 482.6165771484375 64.07609558105469 484.4024353027344 63.12947463989258 C 495.9530944824219 64.21569061279297 502.0984802246094 61.157466888427734 508.53033447265625 66.96717071533203" stroke-width="0.0" fill="url(#shape_14_fill)"/>
    <path d="M 533.11572265625 160.48751831054688 C 543.8956298828125 162.67047119140625 544.1839599609375 163.5448760986328 546.9710083007812 165.12680053710938 C 549.6824340820312 167.62554931640625 549.577880859375 170.24725341796875 544.1603393554688 179.688720703125 C 541.8903198242188 189.7881317138672 536.9714965820312 231.3108673095703 536.6219482421875 233.27174377441406 C 540.6614990234375 237.61314392089844 541.08642578125 251.1190948486328 516.1024169921875 252.3698272705078 C 502.5335998535156 251.4446563720703 483.5787048339844 243.68722534179688 488.0132141113281 230.52662658691406 C 476.7457275390625 218.78387451171875 478.64727783203125 207.79579162597656 482.5107116699219 201.23660278320312 C 486.7009582519531 197.15338134765625 487.9143981933594 197.66180419921875 489.0455627441406 198.6007843017578 C 482.948486328125 195.6432342529297 488.6424865722656 182.58660888671875 487.72161865234375 172.85557556152344 C 487.1399841308594 167.5841827392578 489.0610046386719 166.2047882080078 491.6914367675781 166.84054565429688 C 505.597900390625 178.84423828125 511.1510009765625 184.18199157714844 522.73486328125 172.73146057128906 C 525.5535888671875 170.96051025390625 525.5431518554688 167.31272888183594 526.9048461914062 165.1535186767578 C 525.850341796875 159.1897735595703 528.8045654296875 158.1844482421875 533.11572265625 160.48751831054688" stroke-width="0.0" fill="url(#shape_15_fill)"/>
    <path d="M 651.8204345703125 109.93048858642578 C 653.9913330078125 110.4677734375 663.7279052734375 121.69609069824219 659.8696899414062 132.61428833007812 C 664.1350708007812 136.0283966064453 664.5797729492188 142.83287048339844 673.2849731445312 148.25462341308594 C 677.15771484375 178.7111053466797 673.6034545898438 211.29721069335938 675.41650390625 264.4891052246094 C 674.3603515625 262.7969665527344 638.5352172851562 270.25653076171875 632.4613037109375 261.1044006347656 C 637.5108642578125 245.45579528808594 642.2656860351562 123.93665313720703 651.8204345703125 109.93048858642578" stroke-width="0.0" fill="url(#shape_16_fill)"/>
    <path d="M 601.2023315429688 129.6876220703125 C 603.3070678710938 128.228759765625 606.6716918945312 131.98248291015625 606.2343139648438 134.07273864746094 C 608.5629272460938 135.02786254882812 607.086669921875 140.98753356933594 609.369140625 143.5590057373047 C 627.9558715820312 142.91944885253906 631.07275390625 218.52845764160156 633.3580932617188 263.6009826660156 C 586.4064331054688 268.12762451171875 576.6067504882812 260.51861572265625 579.63232421875 238.40516662597656 C 562.5282592773438 226.19329833984375 597.9441528320312 154.7800750732422 601.2023315429688 129.6876220703125" stroke-width="0.0" fill="url(#shape_17_fill)"/>
    <path d="M 320.5115661621094 186.30215454101562 C 320.8315124511719 186.52035522460938 322.5105895996094 189.47096252441406 320.62689208984375 198.75929260253906 C 332.8201904296875 193.95724487304688 334.14019775390625 193.2337646484375 337.3839111328125 196.25381469726562 C 342.9280090332031 200.35183715820312 346.22589111328125 197.80694580078125 353.9013671875 192.93309020996094 C 358.5615234375 193.52423095703125 359.0596923828125 194.25697326660156 356.83172607421875 201.6562042236328 C 359.3655700683594 204.12249755859375 361.5133056640625 204.27476501464844 363.5325012207031 209.38221740722656 C 367.2852783203125 207.1385498046875 368.504150390625 208.215576171875 368.1568298339844 211.82223510742188 C 370.504150390625 219.96717834472656 370.34503173828125 223.04168701171875 365.8682861328125 226.05142211914062 C 366.27056884765625 231.54856872558594 364.36492919921875 236.04620361328125 366.73419189453125 248.2382049560547 C 369.23272705078125 252.2321319580078 366.59185791015625 256.1903381347656 358.0487365722656 254.67898559570312 C 354.3973388671875 255.72486877441406 328.188720703125 254.9431610107422 322.79058837890625 255.34593200683594 C 313.36761474609375 255.95993041992188 312.135986328125 253.61578369140625 307.8795166015625 243.01026916503906 C 304.2832946777344 229.83084106445312 321.10369873046875 194.7573699951172 320.5115661621094 186.30215454101562" stroke-width="0.0" fill="url(#shape_18_fill)"/>
    <path d="M 478.4293212890625 219.6185302734375 C 498.9437255859375 249.87026977539062 510.2913818359375 262.8760070800781 491.8596496582031 279.0483703613281 C 470.6861572265625 279.25445556640625 443.99200439453125 261.4962158203125 442.12982177734375 261.75335693359375 C 438.700439453125 260.580078125 437.15362548828125 258.23785400390625 432.56707763671875 258.1075134277344 C 429.4015197753906 258.6264343261719 428.1114196777344 256.8134460449219 428.9602355957031 253.8477325439453 C 431.6820068359375 237.26010131835938 422.4156799316406 233.30850219726562 422.9520263671875 229.70230102539062 C 423.14019775390625 226.90968322753906 421.1188659667969 226.69309997558594 420.1965026855469 225.0899658203125 C 427.76409912109375 219.57891845703125 429.69232177734375 218.83432006835938 428.62994384765625 215.14401245117188 C 438.4297180175781 197.9646453857422 476.2810363769531 197.90872192382812 478.4293212890625 219.6185302734375" stroke-width="0.0" fill="url(#shape_19_fill)"/>
    <path d="M 673.9051513671875 -3.0029637813568115 C 675.0655517578125 32.85091018676758 674.5833740234375 64.76375579833984 674.3719482421875 97.3475570678711 C 669.8575439453125 95.81446075439453 653.0303344726562 87.77680206298828 644.5523071289062 90.06470489501953 C 638.6053466796875 89.54302215576172 638.1344604492188 85.98909759521484 637.4823608398438 84.34368896484375 C 626.2570190429688 84.50874328613281 619.7970581054688 92.82902526855469 608.05224609375 86.69034576416016 C 610.1720581054688 74.78276062011719 612.991455078125 73.66546630859375 614.6019287109375 71.68633270263672 C 622.59326171875 68.72777557373047 648.6730346679688 25.17610740661621 647.3135986328125 21.395952224731445 C 655.2300415039062 8.936118125915527 656.47509765625 3.27656888961792 668.51708984375 3.725879192352295 C 669.8131713867188 2.681678533554077 670.125732421875 1.0891107320785522 673.9051513671875 -3.0029637813568115" stroke-width="0.0" fill="url(#shape_20_fill)"/>
    <path d="M 561.9468383789062 155.92271423339844 C 569.8497314453125 156.5029296875 569.8851928710938 161.9034423828125 573.7252197265625 165.3334197998047 C 584.5096435546875 168.32284545898438 575.1294555664062 231.22035217285156 577.1047973632812 240.7034149169922 C 576.8065795898438 244.86944580078125 575.8660278320312 246.91653442382812 576.8765869140625 261.88018798828125 C 551.997802734375 257.5495910644531 542.4527587890625 254.2712860107422 540.092529296875 246.36209106445312 C 544.5100708007812 244.72116088867188 542.2512817382812 166.10342407226562 555.0360107421875 157.3732452392578 C 555.43359375 153.2135009765625 558.9232788085938 152.2315673828125 561.9468383789062 155.92271423339844" stroke-width="0.0" fill="url(#shape_21_fill)"/>
    <path d="M 215.12229919433594 209.90728759765625 C 233.67274475097656 209.12750244140625 235.39651489257812 240.25450134277344 220.5787353515625 255.93826293945312 C 211.75978088378906 263.267333984375 209.8548583984375 264.4195861816406 208.9930877685547 273.179443359375 C 205.9118194580078 275.36553955078125 206.80645751953125 277.1220397949219 206.4735107421875 280.2589416503906 C 206.8302764892578 283.0066223144531 203.58799743652344 285.59796142578125 200.9605255126953 284.9595947265625 C 200.62783813476562 283.37139892578125 190.37335205078125 272.965576171875 188.08299255371094 264.8724670410156 C 186.6220245361328 261.653076171875 183.69810485839844 262.6212463378906 181.50331115722656 262.3629150390625 C 180.799560546875 260.60821533203125 180.08480834960938 260.5217590332031 178.65684509277344 253.26943969726562 C 178.884765625 248.443115234375 168.8603057861328 242.46571350097656 170.7861328125 238.38662719726562 C 175.88778686523438 213.17713928222656 177.3073272705078 213.33038330078125 185.62298583984375 220.5853729248047 C 193.86692810058594 219.24777221679688 194.22886657714844 215.35028076171875 198.5709686279297 213.39694213867188 C 186.19479370117188 206.6890106201172 185.01625061035156 202.0356903076172 198.6095428466797 197.5135498046875 C 213.6195526123047 195.63633728027344 214.4721221923828 200.1581573486328 215.12229919433594 209.90728759765625" stroke-width="0.0" fill="url(#shape_22_fill)"/>
    <path d="M 111.58798217773438 426.3404235839844 C 112.72856903076172 429.2790832519531 111.00727081298828 431.1923828125 110.66387939453125 431.5515441894531 C 104.34990692138672 432.960693359375 103.6218032836914 433.8470153808594 91.89566802978516 432.9678649902344 C 89.7640609741211 435.9660949707031 95.67887878417969 446.421630859375 91.6204605102539 452.1399841308594 C 78.66380310058594 444.9972229003906 46.938175201416016 447.9271240234375 25.059669494628906 449.636962890625 C 14.018148422241211 446.2464904785156 13.883740425109863 439.7704772949219 17.959327697753906 436.36968994140625 C 34.50112533569336 427.6647644042969 50.3123664855957 426.88427734375 71.32567596435547 427.1787414550781 C 73.74226379394531 423.9876403808594 110.08365631103516 420.46630859375 111.58798217773438 426.3404235839844" stroke-width="0.0" fill="url(#shape_23_fill)"/>
    <path d="M 194.26754760742188 123.74578094482422 C 200.25262451171875 124.63259887695312 210.60252380371094 144.8232879638672 214.50689697265625 145.23158264160156 C 215.63507080078125 148.14768981933594 218.55337524414062 149.70986938476562 220.34625244140625 153.74237060546875 C 227.2132568359375 158.44967651367188 248.04080200195312 177.9900665283203 244.72665405273438 199.30921936035156 C 239.2566375732422 199.5203399658203 235.67625427246094 186.83201599121094 232.24658203125 179.9822998046875 C 234.90716552734375 187.02664184570312 233.32215881347656 195.9493865966797 230.5919952392578 197.0459747314453 C 227.1162109375 197.876953125 226.00938415527344 203.23329162597656 220.2909393310547 208.5443572998047 C 215.2333984375 207.64686584472656 213.633056640625 198.91456604003906 213.7227020263672 196.12159729003906 C 212.605224609375 189.723876953125 212.483154296875 183.2784423828125 206.58773803710938 178.09402465820312 C 203.9452667236328 174.0294952392578 205.02044677734375 173.0232391357422 205.6057586669922 167.6978759765625 C 202.86534118652344 147.5546875 199.4093475341797 147.00633239746094 192.55706787109375 143.990234375 C 189.2755126953125 142.3238525390625 191.26278686523438 128.4314422607422 194.26754760742188 123.74578094482422" stroke-width="0.0" fill="url(#shape_24_fill)"/>
    <path d="M 595.679443359375 409.4352722167969 C 598.5192260742188 410.6932678222656 627.0684814453125 408.25286865234375 629.4908447265625 414.5653076171875 C 629.0462646484375 421.1972961425781 627.1564331054688 425.36358642578125 628.8792114257812 426.64288330078125 C 630.5269165039062 427.8388977050781 635.9549560546875 428.0595703125 639.6466064453125 436.9021911621094 C 617.9158325195312 447.2060241699219 577.8917236328125 439.4764709472656 572.6443481445312 434.9022521972656 C 567.7420043945312 427.1275329589844 573.883544921875 419.5599060058594 576.6068725585938 413.7948913574219 C 579.5132446289062 409.38726806640625 587.245361328125 413.87603759765625 595.679443359375 409.4352722167969" stroke-width="0.0" fill="url(#shape_25_fill)"/>
    <path d="M 142.91189575195312 66.72408294677734 C 144.07566833496094 68.9412612915039 149.16944885253906 68.2856216430664 149.63027954101562 69.13656616210938 C 148.90228271484375 70.89913940429688 150.46554565429688 71.82321166992188 149.75845336914062 73.8724594116211 C 151.08030700683594 74.44950103759766 150.1265106201172 78.44059753417969 150.5339813232422 80.47634887695312 C 152.13722229003906 89.4786376953125 152.89306640625 97.63706970214844 153.93797302246094 104.10292053222656 C 153.51348876953125 107.62064361572266 155.11746215820312 108.518310546875 155.15370178222656 111.45356750488281 C 158.1331329345703 123.4303207397461 155.35317993164062 133.51512145996094 150.41050720214844 133.57992553710938 C 143.07247924804688 126.81232452392578 137.32122802734375 120.05850219726562 126.01325988769531 117.06963348388672 C 122.53426361083984 114.2207260131836 124.558837890625 109.6478271484375 126.72047424316406 106.855224609375 C 128.81588745117188 106.84439086914062 128.87294006347656 105.27930450439453 132.66099548339844 104.71625518798828 C 138.36314392089844 96.86833953857422 135.00025939941406 92.77528381347656 133.124267578125 89.56224822998047 C 134.14967346191406 88.69302368164062 139.32469177246094 87.3388442993164 140.1405487060547 85.3554916381836 C 138.12925720214844 84.74783325195312 138.72120666503906 77.64436340332031 139.49673461914062 77.47814178466797 C 143.57838439941406 76.59729766845703 142.6687469482422 70.33802032470703 142.91189575195312 66.72408294677734" stroke-width="0.0" fill="url(#shape_26_fill)"/>
    <path d="M 140.36761474609375 67.94400024414062 C 148.8979949951172 67.03009796142578 149.84312438964844 68.25326538085938 148.6708984375 76.82968139648438 C 150.5663604736328 78.20694732666016 151.09756469726562 80.66999053955078 154.54095458984375 85.11339569091797 C 150.3798828125 90.61029052734375 154.58255004882812 94.69818115234375 151.60916137695312 105.0382080078125 C 152.93731689453125 105.83995819091797 153.45799255371094 109.3084487915039 155.51844787597656 113.11724090576172 C 152.63589477539062 116.675537109375 158.14674377441406 122.07102966308594 154.4893035888672 126.14144134521484 C 152.5765838623047 132.03013610839844 151.3316650390625 133.17100524902344 147.46826171875 134.00506591796875 C 141.44644165039062 131.78160095214844 128.05300903320312 121.81490325927734 129.38343811035156 117.7799301147461 C 124.46453857421875 118.73560333251953 122.59871673583984 113.74677276611328 128.16517639160156 110.42193603515625 C 122.9963607788086 108.27617645263672 124.330078125 104.95243835449219 133.4424591064453 107.14149475097656 C 136.27699279785156 105.71637725830078 133.78659057617188 92.48453521728516 133.40231323242188 89.15961456298828 C 139.55532836914062 87.41096496582031 138.88536071777344 84.95914459228516 138.71290588378906 81.49066162109375 C 139.07699584960938 77.51326751708984 140.36572265625 76.81575775146484 142.13229370117188 77.74381256103516 C 145.6298065185547 72.48799133300781 142.6844024658203 70.3924331665039 140.36761474609375 67.94400024414062" stroke-width="0.0" fill="url(#shape_27_fill)"/>
    <path d="M -0.332783043384552 -0.2721627950668335 C 4.706593990325928 0.38269469141960144 9.657927513122559 -0.5271822810173035 19.423587799072266 -0.9014587998390198 C 25.11209487915039 -0.9556349515914917 25.250017166137695 -0.1492588371038437 45.41412353515625 4.312561988830566 C 40.8732795715332 25.691280364990234 28.183752059936523 25.579212188720703 27.259618759155273 23.609342575073242 C 47.844974517822266 17.852783203125 56.00455856323242 17.529157638549805 57.680091857910156 50.27399444580078 C 38.00550842285156 52.320308685302734 28.99995994567871 52.75685501098633 18.184755325317383 48.79808044433594 C 14.725542068481445 39.489646911621094 11.38073444366455 38.29669952392578 9.996259689331055 33.61278533935547 C 9.988560676574707 35.88465881347656 14.430142402648926 39.3261604309082 14.69477653503418 41.032108306884766 C 15.947808265686035 42.21484375 15.616189002990723 44.975704193115234 18.22239875793457 47.84658432006836 C 20.077991485595703 51.069915771484375 18.762496948242188 52.30717849731445 20.968843460083008 57.19511795043945 C 21.205263137817383 64.5191421508789 15.643841743469238 66.35125732421875 8.617856979370117 61.386566162109375 C 5.49576473236084 60.88511657714844 3.534512519836426 59.140869140625 0.32334843277931213 59.43464660644531 C -0.3179349899291992 39.780967712402344 -0.32486915588378906 19.628698348999023 -0.332783043384552 -0.2721627950668335" stroke-width="0.0" fill="url(#shape_28_fill)"/>
    <path d="M 299.2223815917969 197.1885986328125 C 297.9466247558594 199.5375518798828 299.8309020996094 202.47193908691406 301.5422668457031 207.90135192871094 C 299.04193115234375 212.9961700439453 324.500244140625 225.87945556640625 316.22344970703125 255.35511779785156 C 311.77734375 254.33523559570312 310.5303955078125 255.787841796875 304.48321533203125 254.99127197265625 C 302.1361999511719 258.17364501953125 294.2289733886719 258.4254150390625 280.89605712890625 256.001953125 C 278.6488037109375 225.94622802734375 284.7099304199219 218.98812866210938 299.2223815917969 197.1885986328125" stroke-width="0.0" fill="url(#shape_29_fill)"/>
    <path d="M 0.0033874509390443563 -0.08807767182588577 C 4.516757965087891 0.4433024227619171 9.672231674194336 -0.4141145348548889 14.625080108642578 0.11750712990760803 C 15.826955795288086 0.4870832860469818 16.456165313720703 4.353614330291748 16.398958206176758 8.035682678222656 C 18.862716674804688 10.887645721435547 21.844951629638672 18.94218635559082 27.21802520751953 20.65275001525879 C 27.14510154724121 22.505369186401367 24.165382385253906 26.72319793701172 24.617326736450195 32.0698356628418 C 20.117345809936523 32.258304595947266 13.283757209777832 30.102874755859375 6.2423787117004395 33.78403091430664 C 9.039083480834961 35.936859130859375 8.772225379943848 38.765201568603516 10.874955177307129 40.461029052734375 C 10.11086368560791 44.18199157714844 7.714827060699463 49.80418395996094 11.665390968322754 53.7783317565918 C 17.712919235229492 51.34104537963867 19.50796890258789 51.86201095581055 18.295255661010742 58.41530990600586 C 11.32976245880127 60.731605529785156 9.414667129516602 62.631168365478516 0.1935296654701233 61.4616584777832 C -0.422218382358551 39.969512939453125 -0.35453000664711 19.75516700744629 0.0033874509390443563 -0.08807767182588577" stroke-width="0.0" fill="url(#shape_30_fill)"/>
    <path d="M 548.2037963867188 70.39415740966797 C 546.0508422851562 77.64055633544922 576.60205078125 89.61469268798828 581.4176025390625 91.70722961425781 C 580.8787231445312 92.7383041381836 577.3140258789062 93.31023406982422 577.0506591796875 98.23820495605469 C 573.2721557617188 100.7164306640625 572.0703735351562 99.80474090576172 569.2271118164062 100.01116180419922 C 567.5438842773438 95.2935791015625 546.1124267578125 97.16575622558594 538.6592407226562 88.34517669677734 C 538.5541381835938 85.44194793701172 537.9067993164062 83.08322143554688 535.7212524414062 82.30651092529297 C 534.575927734375 79.80952453613281 527.8765258789062 79.64513397216797 527.1382446289062 78.3792495727539 C 525.2501220703125 75.81285095214844 527.7935180664062 70.8667984008789 531.9209594726562 68.90243530273438 C 538.8058471679688 67.13348388671875 542.6111450195312 71.62580108642578 548.2037963867188 70.39415740966797" stroke-width="0.0" fill="url(#shape_31_fill)"/>
    <path d="M 447.1244812011719 264.4245300292969 C 450.6683654785156 265.27203369140625 451.29364013671875 266.7287902832031 455.8541564941406 267.7306823730469 C 460.5113830566406 267.6551208496094 465.32232666015625 270.3759765625 469.9349365234375 273.1421813964844 C 470.43212890625 275.6329650878906 471.8283386230469 276.88983154296875 471.6768798828125 280.76458740234375 C 451.576416015625 287.79052734375 430.1405944824219 284.10626220703125 415.8709716796875 285.2052001953125 C 413.4532165527344 273.9057312011719 415.0831604003906 272.3370361328125 415.59912109375 268.2052001953125 C 418.1905212402344 267.2078552246094 417.7696228027344 264.80316162109375 419.36041259765625 263.1198425292969 C 438.6224060058594 253.33096313476562 446.39190673828125 253.60891723632812 447.1244812011719 264.4245300292969" stroke-width="0.0" fill="url(#shape_32_fill)"/>
    <path d="M 272.5454406738281 192.4527587890625 C 275.7745056152344 192.20635986328125 286.676025390625 243.68556213378906 281.5658874511719 245.6168670654297 C 279.53466796875 247.6715087890625 273.9097595214844 246.83815002441406 269.5930480957031 248.72061157226562 C 266.3516845703125 246.09298706054688 266.7020568847656 242.1976776123047 261.169677734375 240.642822265625 C 254.32928466796875 209.61807250976562 262.4068908691406 206.53794860839844 272.5454406738281 192.4527587890625" stroke-width="0.0" fill="url(#shape_33_fill)"/>
    <path d="M 266.07025146484375 413.4555969238281 C 263.3704833984375 425.0056457519531 265.1391296386719 430.56597900390625 267.61151123046875 441.0146179199219 C 262.17578125 440.11529541015625 261.0919189453125 446.6249084472656 257.7128601074219 447.85430908203125 C 245.7562255859375 445.8206481933594 216.66087341308594 448.45306396484375 212.5370635986328 444.8533630371094 C 213.0240020751953 436.99578857421875 213.95974731445312 436.2222900390625 215.9918670654297 434.565673828125 C 216.28489685058594 433.4888610839844 225.04541015625 433.6215515136719 226.663818359375 430.5316162109375 C 228.2798614501953 419.4237365722656 238.1352081298828 419.63037109375 266.07025146484375 413.4555969238281" stroke-width="0.0" fill="url(#shape_34_fill)"/>
    <path d="M 105.79450225830078 69.84225463867188 C 110.00760650634766 69.66079711914062 111.14518737792969 79.2520523071289 112.55023956298828 85.15766906738281 C 117.49500274658203 86.13900756835938 117.07943725585938 110.2712173461914 117.90036010742188 110.76038360595703 C 116.76606750488281 112.58738708496094 110.7745361328125 114.40254211425781 106.85924530029297 124.57633209228516 C 104.65763854980469 117.18920135498047 96.50585174560547 118.82611083984375 89.32258605957031 111.28136444091797 C 87.91094207763672 85.72462463378906 105.99201202392578 84.63280487060547 105.79450225830078 69.84225463867188" stroke-width="0.0" fill="url(#shape_35_fill)"/>
    <path d="M 451.2928771972656 178.4159698486328 C 453.3579406738281 176.39816284179688 456.4324951171875 177.64328002929688 455.4146728515625 180.27687072753906 C 456.0579833984375 180.80029296875 455.4844055175781 185.29409790039062 456.43359375 185.97816467285156 C 455.95989990234375 188.58175659179688 459.05316162109375 194.16494750976562 459.44122314453125 204.31744384765625 C 459.3218078613281 208.4825439453125 451.5124816894531 209.43154907226562 446.04901123046875 204.4093017578125 C 441.7891845703125 207.40037536621094 440.8231201171875 208.7375030517578 433.1610412597656 210.94412231445312 C 434.9996032714844 209.92123413085938 437.02325439453125 189.1765594482422 438.2342834472656 178.39576721191406 C 440.5753173828125 179.23843383789062 443.6749572753906 181.58522033691406 446.5945739746094 180.85897827148438 C 447.78900146484375 179.40980529785156 450.1080322265625 179.60450744628906 451.2928771972656 178.4159698486328" stroke-width="0.0" fill="url(#shape_36_fill)"/>
    <path d="M 557.286865234375 84.28634643554688 C 561.6078491210938 80.8625259399414 578.494873046875 82.73861694335938 580.0477294921875 85.8402099609375 C 581.3499755859375 83.77883911132812 586.2962036132812 85.64862823486328 587.43408203125 88.76285552978516 C 596.3397827148438 101.65803527832031 588.2493286132812 109.39845275878906 574.3709716796875 100.44596099853516 C 573.7848510742188 99.4974365234375 552.5874633789062 96.52143859863281 544.2743530273438 85.55876159667969 C 538.4832153320312 85.6606216430664 537.874755859375 82.2580337524414 536.01171875 80.1761245727539 C 542.9984741210938 74.78583526611328 547.3626098632812 78.61609649658203 557.286865234375 84.28634643554688" stroke-width="0.0" fill="url(#shape_37_fill)"/>
    <path d="M 251.7339324951172 207.95053100585938 C 265.5061340332031 211.92974853515625 261.50799560546875 238.46095275878906 260.0499267578125 247.62525939941406 C 259.5574951171875 254.59410095214844 251.03860473632812 254.59031677246094 249.50086975097656 257.36846923828125 C 234.5837860107422 237.34420776367188 241.10670471191406 214.7720947265625 251.7339324951172 207.95053100585938" stroke-width="0.0" fill="url(#shape_38_fill)"/>
    <path d="M 443.0285339355469 263.380859375 C 446.05755615234375 263.40460205078125 449.18792724609375 266.5736999511719 447.83087158203125 270.06939697265625 C 444.5703430175781 270.3901672363281 442.6605224609375 277.24273681640625 440.8117370605469 278.4246826171875 C 439.3444519042969 286.26129150390625 426.2732849121094 285.1318054199219 418.010009765625 276.0011291503906 C 414.518310546875 276.80084228515625 413.3443603515625 274.3818054199219 416.16302490234375 271.6421813964844 C 415.182861328125 269.9440612792969 419.24322509765625 262.1606140136719 426.01312255859375 258.2171325683594 C 426.4318542480469 256.6542053222656 438.8568420410156 258.0026550292969 443.0285339355469 263.380859375" stroke-width="0.0" fill="url(#shape_39_fill)"/>
    <path d="M 407.7106018066406 409.8251647949219 C 408.67132568359375 409.89337158203125 416.7783203125 419.06500244140625 413.7711181640625 424.2324523925781 C 399.1676025390625 435.9569396972656 386.39208984375 420.3243408203125 376.59857177734375 420.85809326171875 C 371.0873718261719 417.9566955566406 371.2369079589844 416.5549011230469 372.6125183105469 410.3782043457031 C 375.03948974609375 401.0309753417969 393.926025390625 403.9954833984375 407.7106018066406 409.8251647949219" stroke-width="0.0" fill="url(#shape_40_fill)"/>
    <path d="M 66.43695068359375 427.5420837402344 C 67.31465148925781 429.051025390625 64.49321746826172 433.6628723144531 58.799095153808594 435.4893798828125 C 57.40377426147461 436.60894775390625 39.52189636230469 436.1446838378906 31.914039611816406 442.78253173828125 C 29.36505699157715 443.57275390625 27.524105072021484 444.0459289550781 17.272241592407227 442.93975830078125 C 16.44418716430664 440.6495056152344 17.85157585144043 439.20751953125 17.331558227539062 437.84088134765625 C 35.19679260253906 427.2698669433594 54.104915618896484 427.94805908203125 66.43695068359375 427.5420837402344" stroke-width="0.0" fill="url(#shape_41_fill)"/>
    <path d="M 278.3796691894531 381.0314025878906 C 284.65606689453125 381.23138427734375 297.9077453613281 381.2065734863281 306.0730285644531 385.4701843261719 C 297.1654968261719 394.85302734375 299.31451416015625 400.9986267089844 294.43157958984375 405.1298828125 C 291.7455749511719 399.9118957519531 266.1885070800781 405.8934020996094 259.086181640625 407.3808898925781 C 248.61878967285156 403.52642822265625 244.81173706054688 394.94366455078125 246.70266723632812 383.18621826171875 C 260.9038391113281 380.8426208496094 267.3461608886719 381.95391845703125 278.3796691894531 381.0314025878906" stroke-width="0.0" fill="url(#shape_42_fill)"/>
    <path d="M 222.59295654296875 211.5946502685547 C 223.9239501953125 210.65615844726562 237.90536499023438 210.26075744628906 239.23216247558594 213.6122589111328 C 242.33993530273438 221.10421752929688 246.60484313964844 241.2686767578125 252.8528594970703 268.8935241699219 C 250.70469665527344 273.510986328125 242.0209197998047 272.8612976074219 209.13453674316406 272.41265869140625 C 207.38645935058594 266.2957763671875 205.2476806640625 253.49522399902344 216.64088439941406 247.79734802246094 C 219.35365295410156 246.46743774414062 218.16799926757812 226.42372131347656 222.59295654296875 211.5946502685547" stroke-width="0.0" fill="url(#shape_43_fill)"/>
    <path d="M 483.6297302246094 395.9569091796875 C 486.79705810546875 399.8088684082031 485.80230712890625 400.9809265136719 483.4904479980469 401.0768737792969 C 472.3190002441406 407.14630126953125 451.1646423339844 406.80291748046875 450.2571716308594 407.63214111328125 C 448.1186828613281 404.4168395996094 451.61865234375 396.1769714355469 453.6302490234375 396.5169982910156 C 464.5379638671875 393.1664733886719 472.0567321777344 392.5113830566406 483.6297302246094 395.9569091796875" stroke-width="0.0" fill="url(#shape_44_fill)"/>
    <path d="M 45.81255340576172 408.0658874511719 C 45.340904235839844 408.529052734375 35.771114349365234 411.6724853515625 33.55659103393555 413.01043701171875 C 32.66957092285156 414.4955139160156 32.14556884765625 415.8857421875 28.177566528320312 414.9078063964844 C 27.376066207885742 416.9919128417969 24.836536407470703 417.760009765625 21.482982635498047 420.4988708496094 C 18.53721046447754 420.20806884765625 0.030646994709968567 417.3257751464844 -0.7472105622291565 420.4888000488281 C 1.8713947534561157 419.59735107421875 -0.9110037088394165 411.1930847167969 0.8890971541404724 410.23968505859375 C 6.880151271820068 409.4844665527344 45.458160400390625 406.40521240234375 45.81255340576172 408.0658874511719" stroke-width="0.0" fill="url(#shape_45_fill)"/>
    <path d="M 452.175537109375 174.9325714111328 C 453.9039611816406 175.02578735351562 464.6590881347656 198.78536987304688 466.26434326171875 199.4617462158203 C 462.6279602050781 209.4618682861328 451.5546875 209.32969665527344 449.4668884277344 206.57699584960938 C 448.3201599121094 203.2554168701172 449.0245361328125 198.3167266845703 448.8509216308594 195.29922485351562 C 447.9568786621094 194.55934143066406 447.59478759765625 192.11288452148438 448.514892578125 188.01153564453125 C 451.01116943359375 186.64974975585938 450.6634521484375 182.94557189941406 452.175537109375 174.9325714111328" stroke-width="0.0" fill="url(#shape_46_fill)"/>
    <path d="M 372.7466125488281 184.74241638183594 C 378.91015625 196.84617614746094 380.4728698730469 202.86973571777344 371.4325256347656 205.8684844970703 C 365.8646545410156 206.822021484375 364.772216796875 204.85804748535156 361.95831298828125 205.63648986816406 C 341.5601806640625 210.5571746826172 338.8649597167969 201.95510864257812 353.7052917480469 188.69639587402344 C 356.6695251464844 184.97494506835938 358.3721618652344 184.4099578857422 368.1368408203125 185.4612274169922 C 368.9580383300781 183.23306274414062 372.2829895019531 183.77587890625 372.7466125488281 184.74241638183594" stroke-width="0.0" fill="url(#shape_47_fill)"/>
    <path d="M 471.8685302734375 263.86749267578125 C 474.7597351074219 267.6465148925781 480.591552734375 269.83624267578125 480.8275451660156 284.38653564453125 C 464.7437744140625 287.3692932128906 450.0408020019531 286.9993896484375 444.1758728027344 284.9267578125 C 439.34051513671875 282.20751953125 440.00482177734375 276.95806884765625 441.1476135253906 276.4307861328125 C 448.96405029296875 266.6292724609375 454.93115234375 262.5486145019531 471.8685302734375 263.86749267578125" stroke-width="0.0" fill="url(#shape_48_fill)"/>
    <path d="M 177.1784210205078 117.12165832519531 C 177.95127868652344 115.50093841552734 181.75601196289062 116.17568969726562 182.71263122558594 117.30628967285156 C 184.6779327392578 120.26063537597656 183.84951782226562 122.35202026367188 184.75967407226562 123.00804901123047 C 179.56019592285156 126.67444610595703 185.85389709472656 136.58448791503906 182.83157348632812 139.5405731201172 C 181.62890625 146.66159057617188 172.822509765625 146.24325561523438 171.99642944335938 146.8087158203125 C 171.74703979492188 127.03376007080078 170.80807495117188 124.58236694335938 177.1784210205078 117.12165832519531" stroke-width="0.0" fill="url(#shape_49_fill)"/>
    <path d="M 333.68121337890625 427.8963928222656 C 336.9911193847656 428.9861145019531 341.5828552246094 428.83697509765625 343.1760559082031 431.8421630859375 C 346.3658447265625 435.586181640625 345.15966796875 437.2236328125 342.4242248535156 437.58599853515625 C 342.7935791015625 446.8539123535156 324.96240234375 449.05072021484375 323.4975891113281 443.8562927246094 C 321.7157897949219 435.3883972167969 321.4598388671875 433.4576721191406 306.7795715332031 429.8846740722656 C 320.46417236328125 426.16375732421875 328.3564758300781 429.3302001953125 333.68121337890625 427.8963928222656" stroke-width="0.0" fill="url(#shape_50_fill)"/>
    <path d="M 306.256103515625 388.9248352050781 C 302.7937927246094 394.8992004394531 292.770263671875 397.0632019042969 292.0826416015625 399.147705078125 C 279.1033630371094 397.38299560546875 277.9080810546875 399.2804870605469 271.3184509277344 402.494873046875 C 271.1353759765625 401.6094970703125 269.7552185058594 398.9459533691406 271.2865295410156 397.4884033203125 C 270.06719970703125 395.5268249511719 273.1461181640625 388.22479248046875 279.79901123046875 388.080078125 C 284.5258483886719 386.64898681640625 288.67022705078125 391.02374267578125 306.256103515625 388.9248352050781" stroke-width="0.0" fill="url(#shape_51_fill)"/>
    <path d="M 269.00439453125 184.08909606933594 C 276.0782470703125 194.7672882080078 277.6251220703125 207.74252319335938 280.1338195800781 217.48013305664062 C 271.565185546875 210.32594299316406 269.3331298828125 208.24888610839844 261.0859069824219 215.7027587890625 C 257.3952941894531 208.00306701660156 263.73248291015625 196.71142578125 266.5797119140625 195.26333618164062 C 269.68792724609375 194.27122497558594 268.9241027832031 191.7147979736328 269.00439453125 184.08909606933594" stroke-width="0.0" fill="url(#shape_52_fill)"/>
    <path d="M 218.3256378173828 409.4928894042969 C 215.90618896484375 410.93634033203125 215.65806579589844 413.28570556640625 214.23191833496094 414.3208923339844 C 214.7828826904297 422.93194580078125 192.24014282226562 424.41497802734375 187.55502319335938 415.5650634765625 C 186.2878875732422 405.1393737792969 206.816162109375 400.26141357421875 218.3256378173828 409.4928894042969" stroke-width="0.0" fill="url(#shape_53_fill)"/>
    <path d="M 205.90867614746094 424.5546875 C 205.49725341796875 425.262939453125 206.14529418945312 428.2850036621094 204.56727600097656 429.22991943359375 C 194.025634765625 429.7928466796875 178.81399536132812 430.2005310058594 177.9938507080078 432.64666748046875 C 176.8073272705078 430.9473876953125 178.33279418945312 425.9485778808594 176.9311981201172 423.9013977050781 C 186.84765625 418.4440612792969 193.69459533691406 422.9565734863281 205.90867614746094 424.5546875" stroke-width="0.0" fill="url(#shape_54_fill)"/>
    <path d="M 268.6800231933594 247.12176513671875 C 275.4389343261719 245.0094451904297 276.6609802246094 247.24200439453125 280.1246643066406 246.84292602539062 C 280.7354431152344 250.99220275878906 280.1002502441406 252.42372131347656 286.371337890625 262.1435546875 C 263.4595031738281 258.0032653808594 262.9327087402344 257.3095397949219 251.31787109375 264.0632019042969 C 254.85694885253906 248.1754150390625 255.8780517578125 247.23275756835938 258.6518859863281 245.0364532470703 C 260.3935241699219 239.2643280029297 265.8582763671875 239.61964416503906 268.6800231933594 247.12176513671875" stroke-width="0.0" fill="url(#shape_55_fill)"/>
    <path d="M 277.62310791015625 349.04248046875 C 279.42486572265625 363.1627502441406 283.97735595703125 363.29583740234375 284.7607727050781 368.048828125 C 285.4270935058594 369.2333984375 286.0033874511719 371.81884765625 285.6873779296875 381.14813232421875 C 275.52520751953125 379.3501281738281 261.7355041503906 381.4813537597656 242.091064453125 383.8983459472656 C 237.68597412109375 382.0931091308594 237.02975463867188 363.3617858886719 237.0533447265625 350.9854431152344 C 246.4666290283203 349.0254211425781 254.71688842773438 348.0841979980469 277.62310791015625 349.04248046875" stroke-width="0.0" fill="url(#shape_56_fill)"/>
    <path d="M 408.5538330078125 271.19903564453125 C 415.79931640625 268.8893127441406 418.2198181152344 273.04901123046875 421.3594665527344 280.1911315917969 C 413.94842529296875 284.6621398925781 406.6336975097656 279.85931396484375 379.58978271484375 276.49749755859375 C 378.7847900390625 264.5910949707031 387.3255920410156 263.4598388671875 408.5538330078125 271.19903564453125" stroke-width="0.0" fill="url(#shape_57_fill)"/>
    <path d="M 632.0637817382812 351.65264892578125 C 632.98095703125 355.23065185546875 660.3983764648438 354.3058776855469 668.594970703125 354.3099060058594 C 668.4873657226562 358.4597473144531 662.999755859375 360.47882080078125 660.0865478515625 357.2022705078125 C 649.1716918945312 355.3893127441406 634.671630859375 359.8381652832031 631.550048828125 360.477294921875 C 627.8079223632812 357.11517333984375 629.3729858398438 353.5970153808594 632.0637817382812 351.65264892578125" stroke-width="0.0" fill="url(#shape_58_fill)"/>
    <path d="M 341.3199157714844 384.9337158203125 C 342.8080749511719 390.21636962890625 358.1368408203125 391.71875 359.1842956542969 394.6864013671875 C 356.5440979003906 398.23291015625 339.36749267578125 401.5826110839844 338.36920166015625 399.53961181640625 C 335.13623046875 399.6178283691406 333.0732727050781 398.78094482421875 331.8516540527344 396.537109375 C 331.9885559082031 394.93994140625 330.7508544921875 393.4737243652344 332.3177795410156 390.59893798828125 C 333.0148620605469 384.9974670410156 336.3946838378906 384.051025390625 341.3199157714844 384.9337158203125" stroke-width="0.0" fill="url(#shape_59_fill)"/>
    <path d="M 459.2710876464844 363.78875732421875 C 462.81072998046875 364.461669921875 472.4599914550781 370.34619140625 473.1387634277344 374.296875 C 471.80242919921875 376.2246398925781 470.3345947265625 376.8778381347656 463.0303039550781 375.8980407714844 C 458.32244873046875 377.27886962890625 457.504150390625 377.1186218261719 452.70697021484375 370.92303466796875 C 453.3514709472656 370.2087707519531 459.976806640625 366.6071472167969 459.2710876464844 363.78875732421875" stroke-width="0.0" fill="url(#shape_60_fill)"/>
    <path d="M 432.5068664550781 432.8077087402344 C 440.0216369628906 434.3392028808594 442.44390869140625 436.5538635253906 442.0471496582031 438.6846618652344 C 440.3331298828125 441.1309509277344 428.9656677246094 439.8037109375 425.7231140136719 442.3551940917969 C 422.4697570800781 438.9344177246094 423.886474609375 434.6451416015625 412.15130615234375 425.46917724609375 C 427.7593688964844 428.9078063964844 431.2106018066406 433.7346496582031 432.5068664550781 432.8077087402344" stroke-width="0.0" fill="url(#shape_61_fill)"/>
    <path d="M 185.41879272460938 411.4495849609375 C 186.2662811279297 413.93170166015625 185.00613403320312 414.7928771972656 186.9217987060547 417.6656799316406 C 184.8684539794922 420.1925354003906 183.39471435546875 419.5119934082031 182.49896240234375 419.7291259765625 C 180.8136749267578 421.6402893066406 174.44151306152344 420.2195129394531 171.40003967285156 420.1458740234375 C 169.5603790283203 417.77728271484375 169.76861572265625 415.6297302246094 174.06748962402344 413.08636474609375 C 176.5230255126953 412.51953125 181.40956115722656 410.6640625 185.41879272460938 411.4495849609375" stroke-width="0.0" fill="url(#shape_62_fill)"/>
    <path d="M 332.1671447753906 418.7665710449219 C 334.77313232421875 426.0597229003906 329.8666687011719 427.8815612792969 327.26373291015625 425.8834228515625 C 324.5705871582031 427.7662658691406 322.9895324707031 426.7201232910156 320.97564697265625 427.5345458984375 C 318.8145446777344 426.01690673828125 319.7961120605469 419.9774475097656 317.5316467285156 418.4788818359375 C 319.02093505859375 420.04144287109375 326.016357421875 418.7279357910156 332.1671447753906 418.7665710449219" stroke-width="0.0" fill="url(#shape_63_fill)"/>
    <path d="M 55.447898864746094 273.537353515625 C 56.57039260864258 269.3083190917969 65.79329681396484 269.88494873046875 65.47859191894531 278.24407958984375 C 59.13190841674805 279.2926025390625 53.70683288574219 272.8266296386719 48.278106689453125 276.06427001953125 C 50.217464447021484 273.1567077636719 52.421226501464844 272.6899719238281 55.447898864746094 273.537353515625" stroke-width="0.0" fill="url(#shape_64_fill)"/>
    <path d="M 304.591552734375 439.4521484375 C 304.55975341796875 437.517333984375 306.3262023925781 436.3700256347656 313.0523986816406 437.510986328125 C 314.7333679199219 438.8430480957031 312.99163818359375 441.39129638671875 311.2834777832031 441.6148376464844 C 307.9088134765625 445.33038330078125 306.6286926269531 444.2234802246094 305.3369140625 444.3007507324219 C 302.9012451171875 441.6666259765625 302.8152160644531 439.773193359375 304.591552734375 439.4521484375" stroke-width="0.0" fill="url(#shape_65_fill)"/>
    <path d="M -0.455424964427948 -0.42232781648635864 C 224.74932861328125 -0.14519165456295013 444.1299743652344 0.358108788728714 672.817626953125 0.5759583115577698 C 673.5186767578125 154.5338134765625 674.677734375 296.1876220703125 673.66455078125 445.4922180175781 C 450.40655517578125 446.3322448730469 230.54135131835938 446.26873779296875 0.5370119214057922 445.363525390625 C 0.23278789222240448 297.06243896484375 -0.13547682762145996 149.089599609375 -0.455424964427948 -0.42232781648635864" stroke-width="0.0" fill="url(#shape_66_fill)"/>
    <path d="M -1.024506688117981 -0.16985657811164856 C 222.52088928222656 -0.10412909090518951 443.0928649902344 0.35490357875823975 672.8255004882812 -0.18095995485782623 C 673.6378784179688 154.82437133789062 674.7481079101562 295.5465087890625 673.3464965820312 445.39739990234375 C 450.67144775390625 446.41009521484375 230.6427764892578 446.31695556640625 0.6382534503936768 445.2713928222656 C 0.14569154381752014 297.1718444824219 -0.24760368466377258 148.87547302246094 -1.024506688117981 -0.16985657811164856" stroke-width="0.0" fill="url(#shape_67_fill)"/>
    <path d="M -0.6684170961380005 -0.22616708278656006 C 223.04641723632812 -0.14438685774803162 442.11273193359375 0.4995676279067993 672.8434448242188 -0.2425362467765808 C 673.6371459960938 154.7542724609375 674.7457275390625 295.5196533203125 673.3491821289062 445.3985595703125 C 450.6758117675781 446.4105529785156 230.665283203125 446.3175048828125 1.209994912147522 445.25140380859375 C 0.5228018760681152 295.5277404785156 0.0765436664223671 148.44586181640625 -0.6684170961380005 -0.22616708278656006" stroke-width="0.0" fill="url(#shape_68_fill)"/>
  </g>
</svg>
