<?xml version="1.0" ?>
<svg xmlns="http://www.w3.org/2000/svg" version="1.1" width="674" height="446">
  <defs>
    <radialGradient id="shape_0_fill" cx="0.5314049423625278" cy="0.7395961060117713" r="0.28207085040627317">
      <stop offset="0.7123544" stop-color="rgb(158, 168, 0)" stop-opacity="0.8369020223617554"/>
      <stop offset="1.0" stop-color="rgb(48, 41, 0)" stop-opacity="0.9850680232048035"/>
    </radialGradient>
    <radialGradient id="shape_1_fill" cx="0.5330127297240125" cy="0.7434304412704946" r="0.20668376164195798">
      <stop offset="0.367213" stop-color="rgb(66, 59, 74)" stop-opacity="0.7441738843917847"/>
      <stop offset="0.99786645" stop-color="rgb(35, 7, 0)" stop-opacity="0.6053112745285034"/>
    </radialGradient>
    <radialGradient id="shape_2_fill" cx="0.09792273546892387" cy="0.7376672719091578" r="0.22062588021026522">
      <stop offset="0.003083851" stop-color="rgb(48, 109, 188)" stop-opacity="0.8697280287742615"/>
      <stop offset="0.9884466" stop-color="rgb(3, 88, 255)" stop-opacity="0.8982852697372437"/>
    </radialGradient>
    <radialGradient id="shape_3_fill" cx="0.2783281682860604" cy="0.21501234935538116" r="0.13186567402734956">
      <stop offset="0.40439403" stop-color="rgb(127, 173, 0)" stop-opacity="0.7690351605415344"/>
      <stop offset="1.0" stop-color="rgb(35, 31, 0)" stop-opacity="0.9282728433609009"/>
    </radialGradient>
    <radialGradient id="shape_4_fill" cx="0.1543026706231454" cy="0.9977578475336323" r="0.10288926755639141">
      <stop offset="0.0" stop-color="rgb(81, 79, 86)" stop-opacity="1.0"/>
      <stop offset="1.0" stop-color="rgb(50, 40, 65)" stop-opacity="0.8551769256591797"/>
    </radialGradient>
    <radialGradient id="shape_5_fill" cx="0.14807964290992442" cy="0.23997249517740155" r="0.11810664960821587">
      <stop offset="0.0" stop-color="rgb(255, 255, 255)" stop-opacity="0.6465655565261841"/>
      <stop offset="0.5626593" stop-color="rgb(255, 255, 255)" stop-opacity="0.5181209444999695"/>
    </radialGradient>
    <radialGradient id="shape_6_fill" cx="0.18397626112759644" cy="0.9977578475336323" r="0.0754974885934892">
      <stop offset="0.0" stop-color="rgb(93, 90, 94)" stop-opacity="1.0"/>
      <stop offset="1.0" stop-color="rgb(147, 126, 133)" stop-opacity="0.882111668586731"/>
    </radialGradient>
    <radialGradient id="shape_7_fill" cx="0.2893175074183976" cy="0.05829596412556054" r="0.08666390552011372">
      <stop offset="0.0" stop-color="rgb(55, 66, 29)" stop-opacity="1.0"/>
      <stop offset="1.0" stop-color="rgb(120, 129, 56)" stop-opacity="0.5756306648254395"/>
    </radialGradient>
    <radialGradient id="shape_8_fill" cx="0.3382789091115889" cy="0.9439461883408071" r="0.06756690277190167">
      <stop offset="0.0" stop-color="rgb(91, 124, 45)" stop-opacity="1.0"/>
      <stop offset="1.0" stop-color="rgb(86, 139, 5)" stop-opacity="0.5581163167953491"/>
    </radialGradient>
    <radialGradient id="shape_9_fill" cx="0.30712166172106825" cy="0.9977578475336323" r="0.0730758406641929">
      <stop offset="0.0" stop-color="rgb(38, 48, 20)" stop-opacity="1.0"/>
      <stop offset="1.0" stop-color="rgb(34, 28, 52)" stop-opacity="1.0"/>
    </radialGradient>
    <radialGradient id="shape_10_fill" cx="0.3056379821958457" cy="0.9977578475336323" r="0.06792919147615971">
      <stop offset="0.0" stop-color="rgb(39, 49, 21)" stop-opacity="1.0"/>
      <stop offset="1.0" stop-color="rgb(32, 6, 0)" stop-opacity="0.6482020020484924"/>
    </radialGradient>
    <radialGradient id="shape_11_fill" cx="0.21810089020771514" cy="0.968609865470852" r="0.06792919147615971">
      <stop offset="0.0" stop-color="rgb(138, 135, 129)" stop-opacity="1.0"/>
      <stop offset="1.0" stop-color="rgb(119, 73, 48)" stop-opacity="0.4148523807525635"/>
    </radialGradient>
    <radialGradient id="shape_12_fill" cx="0.29080118694362017" cy="0.9977578475336323" r="0.07480746985189285">
      <stop offset="0.0" stop-color="rgb(22, 25, 13)" stop-opacity="1.0"/>
      <stop offset="1.0" stop-color="rgb(37, 31, 15)" stop-opacity="1.0"/>
    </radialGradient>
    <radialGradient id="shape_13_fill" cx="0.327893175074184" cy="0.8923766816143498" r="0.06900465877544279">
      <stop offset="0.0" stop-color="rgb(89, 117, 50)" stop-opacity="1.0"/>
      <stop offset="1.0" stop-color="rgb(92, 120, 9)" stop-opacity="0.6460990309715271"/>
    </radialGradient>
    <radialGradient id="shape_14_fill" cx="0.142433234421365" cy="0.9977578475336323" r="0.06617211022079875">
      <stop offset="0.0" stop-color="rgb(155, 150, 153)" stop-opacity="1.0"/>
      <stop offset="1.0" stop-color="rgb(255, 148, 145)" stop-opacity="0.22771082818508148"/>
    </radialGradient>
    <radialGradient id="shape_15_fill" cx="0.31008902077151335" cy="0.9977578475336323" r="0.06683642786405207">
      <stop offset="0.0" stop-color="rgb(43, 55, 23)" stop-opacity="1.0"/>
      <stop offset="1.0" stop-color="rgb(61, 65, 22)" stop-opacity="0.8725160360336304"/>
    </radialGradient>
    <radialGradient id="shape_16_fill" cx="0.27299703264094954" cy="0.9977578475336323" r="0.08110449363640579">
      <stop offset="0.0" stop-color="rgb(31, 35, 19)" stop-opacity="1.0"/>
      <stop offset="1.0" stop-color="rgb(30, 24, 0)" stop-opacity="0.9435594081878662"/>
    </radialGradient>
    <radialGradient id="shape_17_fill" cx="0.2893175074183976" cy="0.9977578475336323" r="0.07513486030193747">
      <stop offset="0.0" stop-color="rgb(22, 23, 13)" stop-opacity="1.0"/>
      <stop offset="1.0" stop-color="rgb(25, 20, 0)" stop-opacity="0.8540149927139282"/>
    </radialGradient>
    <radialGradient id="shape_18_fill" cx="0.3293768545994065" cy="0.7556053811659192" r="0.06617211022079875">
      <stop offset="0.0" stop-color="rgb(83, 108, 65)" stop-opacity="1.0"/>
      <stop offset="1.0" stop-color="rgb(105, 122, 58)" stop-opacity="0.9670271873474121"/>
    </radialGradient>
    <radialGradient id="shape_19_fill" cx="0.3516320474777448" cy="0.9977578475336323" r="0.06617211022079875">
      <stop offset="0.0" stop-color="rgb(95, 135, 39)" stop-opacity="1.0"/>
      <stop offset="1.0" stop-color="rgb(128, 184, 0)" stop-opacity="0.6376811265945435"/>
    </radialGradient>
    <radialGradient id="shape_20_fill" cx="0.0830860534124629" cy="0.9977578475336323" r="0.06792919147615971">
      <stop offset="0.0" stop-color="rgb(49, 52, 66)" stop-opacity="1.0"/>
      <stop offset="1.0" stop-color="rgb(44, 29, 65)" stop-opacity="0.44739025831222534"/>
    </radialGradient>
    <radialGradient id="shape_21_fill" cx="0.29821958456973297" cy="0.9977578475336323" r="0.06792919147615971">
      <stop offset="0.0" stop-color="rgb(33, 40, 17)" stop-opacity="1.0"/>
      <stop offset="1.0" stop-color="rgb(48, 62, 0)" stop-opacity="0.7168879508972168"/>
    </radialGradient>
    <radialGradient id="shape_22_fill" cx="0.3563326600751113" cy="0.44372438849889645" r="0.06594546966099951">
      <stop offset="0.52384716" stop-color="rgb(107, 133, 37)" stop-opacity="0.9992510080337524"/>
      <stop offset="0.38891584" stop-color="rgb(146, 173, 40)" stop-opacity="0.9102394580841064"/>
    </radialGradient>
    <radialGradient id="shape_23_fill" cx="0.6454005934718101" cy="0.1412556053811659" r="0.06617211022079875">
      <stop offset="0.0" stop-color="rgb(46, 38, 13)" stop-opacity="1.0"/>
      <stop offset="1.0" stop-color="rgb(54, 28, 0)" stop-opacity="0.888208270072937"/>
    </radialGradient>
    <radialGradient id="shape_24_fill" cx="0.2492550586734398" cy="0.4843076355254169" r="0.06616971047059012">
      <stop offset="0.0" stop-color="rgb(205, 213, 206)" stop-opacity="1.0"/>
      <stop offset="0.92454517" stop-color="rgb(255, 255, 255)" stop-opacity="0.3400349020957947"/>
    </radialGradient>
    <radialGradient id="shape_25_fill" cx="0.6320474777448071" cy="0.9977578475336323" r="0.06617211022079875">
      <stop offset="0.0" stop-color="rgb(35, 28, 8)" stop-opacity="1.0"/>
      <stop offset="1.0" stop-color="rgb(39, 14, 0)" stop-opacity="0.7137643694877625"/>
    </radialGradient>
    <radialGradient id="shape_26_fill" cx="0.15414520399506793" cy="0.3207086811151205" r="0.06604698362265567">
      <stop offset="0.11989566" stop-color="rgb(198, 211, 155)" stop-opacity="1.0"/>
      <stop offset="0.58338004" stop-color="rgb(167, 143, 104)" stop-opacity="0.3525908589363098"/>
    </radialGradient>
    <radialGradient id="shape_27_fill" cx="0.15410647972401242" cy="0.3208032787648017" r="0.06604505929465818">
      <stop offset="0.0" stop-color="rgb(192, 205, 0)" stop-opacity="1.0"/>
      <stop offset="0.49375948" stop-color="rgb(47, 41, 27)" stop-opacity="0.46757885813713074"/>
    </radialGradient>
    <radialGradient id="shape_28_fill" cx="0.03403997845748766" cy="0.01554494267621917" r="0.0722436197433698">
      <stop offset="0.099423535" stop-color="rgb(7, 20, 112)" stop-opacity="0.9398913383483887"/>
      <stop offset="0.8167403" stop-color="rgb(9, 23, 153)" stop-opacity="0.7564656138420105"/>
    </radialGradient>
    <radialGradient id="shape_29_fill" cx="0.33976258863681147" cy="0.6659192825112108" r="0.06617211022079875">
      <stop offset="0.0" stop-color="rgb(90, 117, 55)" stop-opacity="1.0"/>
      <stop offset="1.0" stop-color="rgb(107, 130, 28)" stop-opacity="0.8684653043746948"/>
    </radialGradient>
    <radialGradient id="shape_30_fill" cx="0.03890773309090725" cy="0.016026423116435918" r="0.06943920599600682">
      <stop offset="0.17699432" stop-color="rgb(50, 70, 76)" stop-opacity="1.0"/>
      <stop offset="0.92946374" stop-color="rgb(64, 64, 0)" stop-opacity="0.4956871271133423"/>
    </radialGradient>
    <radialGradient id="shape_31_fill" cx="0.12314540059347182" cy="0.9977578475336323" r="0.06617211022079875">
      <stop offset="0.0" stop-color="rgb(95, 103, 98)" stop-opacity="1.0"/>
      <stop offset="1.0" stop-color="rgb(135, 119, 109)" stop-opacity="0.7322344779968262"/>
    </radialGradient>
    <radialGradient id="shape_32_fill" cx="0.4035608308605341" cy="0.984304932735426" r="0.06617211022079875">
      <stop offset="0.0" stop-color="rgb(126, 155, 63)" stop-opacity="1.0"/>
      <stop offset="1.0" stop-color="rgb(98, 75, 12)" stop-opacity="0.6097896099090576"/>
    </radialGradient>
    <radialGradient id="shape_33_fill" cx="0.3249258160237389" cy="0.6053811659192825" r="0.06617211022079875">
      <stop offset="1.5749207e-05" stop-color="rgb(93, 124, 71)" stop-opacity="0.999808132648468"/>
      <stop offset="1.0" stop-color="rgb(124, 140, 58)" stop-opacity="1.0"/>
    </radialGradient>
    <radialGradient id="shape_34_fill" cx="0.6468842729970327" cy="0.531390134529148" r="0.06617211022079875">
      <stop offset="0.0" stop-color="rgb(54, 47, 24)" stop-opacity="1.0"/>
      <stop offset="1.0" stop-color="rgb(45, 8, 33)" stop-opacity="0.3840351402759552"/>
    </radialGradient>
    <radialGradient id="shape_35_fill" cx="0.15043931049833664" cy="0.2383545503488036" r="0.06715535693069594">
      <stop offset="0.11458506" stop-color="rgb(208, 255, 95)" stop-opacity="0.1404569149017334"/>
      <stop offset="0.5341473" stop-color="rgb(106, 72, 66)" stop-opacity="0.8443664312362671"/>
    </radialGradient>
    <radialGradient id="shape_36_fill" cx="0.2878338278931751" cy="0.9977578475336323" r="0.06617211022079875">
      <stop offset="0.0" stop-color="rgb(80, 96, 53)" stop-opacity="1.0"/>
      <stop offset="1.0" stop-color="rgb(22, 17, 0)" stop-opacity="0.7784808278083801"/>
    </radialGradient>
    <radialGradient id="shape_37_fill" cx="0.129080118694362" cy="0.9977578475336323" r="0.06617211022079875">
      <stop offset="0.0" stop-color="rgb(87, 97, 81)" stop-opacity="1.0"/>
      <stop offset="1.0" stop-color="rgb(63, 64, 58)" stop-opacity="0.6034936308860779"/>
    </radialGradient>
    <radialGradient id="shape_38_fill" cx="0.33892324204260943" cy="0.5607740119968294" r="0.0666785763703751">
      <stop offset="0.7501433" stop-color="rgb(85, 107, 28)" stop-opacity="0.9246280193328857"/>
      <stop offset="0.6022492" stop-color="rgb(164, 246, 77)" stop-opacity="0.8714423179626465"/>
    </radialGradient>
    <radialGradient id="shape_39_fill" cx="0.40059347181008903" cy="0.9641255605381166" r="0.06617211022079875">
      <stop offset="0.0" stop-color="rgb(138, 168, 60)" stop-opacity="1.0"/>
      <stop offset="1.0" stop-color="rgb(221, 255, 86)" stop-opacity="0.8417057991027832"/>
    </radialGradient>
    <radialGradient id="shape_40_fill" cx="0.6105749656609328" cy="0.8748841563682385" r="0.0721054190344202">
      <stop offset="0.3688459" stop-color="rgb(159, 141, 175)" stop-opacity="0.27513888478279114"/>
      <stop offset="0.52622014" stop-color="rgb(2, 7, 60)" stop-opacity="0.803056001663208"/>
    </radialGradient>
    <radialGradient id="shape_41_fill" cx="0.6454005934718101" cy="0.08744394618834081" r="0.06617211022079875">
      <stop offset="0.0" stop-color="rgb(58, 48, 21)" stop-opacity="1.0"/>
      <stop offset="1.0" stop-color="rgb(92, 60, 24)" stop-opacity="0.999964714050293"/>
    </radialGradient>
    <radialGradient id="shape_42_fill" cx="0.5845697329376854" cy="0.6188340807174888" r="0.06617211022079875">
      <stop offset="0.0" stop-color="rgb(62, 59, 56)" stop-opacity="1.0"/>
      <stop offset="1.0" stop-color="rgb(44, 35, 78)" stop-opacity="0.6575391292572021"/>
    </radialGradient>
    <radialGradient id="shape_43_fill" cx="0.35440495884383116" cy="0.5017006707298381" r="0.07020420561204678">
      <stop offset="0.24432442" stop-color="rgb(120, 150, 53)" stop-opacity="0.9201586842536926"/>
      <stop offset="0.6161413" stop-color="rgb(201, 252, 21)" stop-opacity="0.7290053367614746"/>
    </radialGradient>
    <radialGradient id="shape_44_fill" cx="0.5934718100890207" cy="0.9977578475336323" r="0.06617211022079875">
      <stop offset="0.0" stop-color="rgb(89, 61, 18)" stop-opacity="1.0"/>
      <stop offset="1.0" stop-color="rgb(165, 77, 6)" stop-opacity="0.6926491856575012"/>
    </radialGradient>
    <radialGradient id="shape_45_fill" cx="0.612759643916914" cy="0.04035874439461883" r="0.06617211022079875">
      <stop offset="0.0" stop-color="rgb(157, 136, 123)" stop-opacity="1.0"/>
      <stop offset="1.0" stop-color="rgb(255, 215, 203)" stop-opacity="1.0"/>
    </radialGradient>
    <radialGradient id="shape_46_fill" cx="0.28635014836795253" cy="0.9977578475336323" r="0.06617211022079875">
      <stop offset="0.0" stop-color="rgb(82, 99, 55)" stop-opacity="1.0"/>
      <stop offset="1.0" stop-color="rgb(92, 96, 32)" stop-opacity="0.5685774087905884"/>
    </radialGradient>
    <radialGradient id="shape_47_fill" cx="0.28635014836795253" cy="0.8183856502242153" r="0.06617211022079875">
      <stop offset="0.0" stop-color="rgb(166, 189, 197)" stop-opacity="1.0"/>
      <stop offset="1.0" stop-color="rgb(241, 255, 255)" stop-opacity="0.44005119800567627"/>
    </radialGradient>
    <radialGradient id="shape_48_fill" cx="0.40801186943620177" cy="0.9977578475336323" r="0.06617211022079875">
      <stop offset="0.0" stop-color="rgb(107, 135, 68)" stop-opacity="1.0"/>
      <stop offset="1.0" stop-color="rgb(126, 135, 56)" stop-opacity="1.0"/>
    </radialGradient>
    <radialGradient id="shape_49_fill" cx="0.19287833827893175" cy="0.3991031390134529" r="0.06617211022079875">
      <stop offset="0.0" stop-color="rgb(92, 100, 54)" stop-opacity="1.0"/>
      <stop offset="1.0" stop-color="rgb(51, 20, 0)" stop-opacity="0.5044829845428467"/>
    </radialGradient>
    <radialGradient id="shape_50_fill" cx="0.6439169139465876" cy="0.7376681614349776" r="0.06617211022079875">
      <stop offset="0.0" stop-color="rgb(65, 56, 25)" stop-opacity="1.0"/>
      <stop offset="1.0" stop-color="rgb(146, 168, 87)" stop-opacity="0.3522185981273651"/>
    </radialGradient>
    <radialGradient id="shape_51_fill" cx="0.5845697329376854" cy="0.6322869955156951" r="0.06617211022079875">
      <stop offset="0.0" stop-color="rgb(75, 68, 60)" stop-opacity="1.0"/>
      <stop offset="1.0" stop-color="rgb(181, 133, 106)" stop-opacity="0.4701847732067108"/>
    </radialGradient>
    <radialGradient id="shape_52_fill" cx="0.2997032640949555" cy="0.6031390134529148" r="0.06617211022079875">
      <stop offset="0.0" stop-color="rgb(107, 158, 118)" stop-opacity="1.0"/>
      <stop offset="1.0" stop-color="rgb(171, 255, 213)" stop-opacity="0.5635390281677246"/>
    </radialGradient>
    <radialGradient id="shape_53_fill" cx="0.6097922848664689" cy="0.45067264573991034" r="0.06617211022079875">
      <stop offset="0.0" stop-color="rgb(38, 39, 27)" stop-opacity="1.0"/>
      <stop offset="1.0" stop-color="rgb(16, 7, 64)" stop-opacity="0.3295879364013672"/>
    </radialGradient>
    <radialGradient id="shape_54_fill" cx="0.6335311572700296" cy="0.426009002822397" r="0.06617211022079875">
      <stop offset="0.0" stop-color="rgb(67, 49, 20)" stop-opacity="1.0"/>
      <stop offset="1.0" stop-color="rgb(173, 90, 36)" stop-opacity="0.4539170265197754"/>
    </radialGradient>
    <radialGradient id="shape_55_fill" cx="0.3707168533823257" cy="0.5988430827187851" r="0.066001377049115">
      <stop offset="0.43605936" stop-color="rgb(243, 255, 50)" stop-opacity="0.8302241563796997"/>
      <stop offset="0.16089156" stop-color="rgb(232, 255, 19)" stop-opacity="0.7403790354728699"/>
    </radialGradient>
    <radialGradient id="shape_56_fill" cx="0.5489614243323442" cy="0.600896860986547" r="0.06617211022079875">
      <stop offset="0.0" stop-color="rgb(50, 62, 80)" stop-opacity="1.0"/>
      <stop offset="1.0" stop-color="rgb(33, 89, 255)" stop-opacity="0.4345129132270813"/>
    </radialGradient>
    <radialGradient id="shape_57_fill" cx="0.4094955489614243" cy="0.9035874439461884" r="0.06617211022079875">
      <stop offset="0.0" stop-color="rgb(111, 144, 47)" stop-opacity="1.0"/>
      <stop offset="1.0" stop-color="rgb(212, 255, 62)" stop-opacity="0.7703940272331238"/>
    </radialGradient>
    <radialGradient id="shape_58_fill" cx="0.5281899109792285" cy="0.9977578475336323" r="0.06617211022079875">
      <stop offset="0.0" stop-color="rgb(50, 43, 14)" stop-opacity="1.0"/>
      <stop offset="1.0" stop-color="rgb(85, 58, 17)" stop-opacity="1.0"/>
    </radialGradient>
    <radialGradient id="shape_59_fill" cx="0.5845697329376854" cy="0.7690582959641256" r="0.06617211022079875">
      <stop offset="0.0" stop-color="rgb(61, 63, 58)" stop-opacity="1.0"/>
      <stop offset="1.0" stop-color="rgb(79, 69, 90)" stop-opacity="0.7111518979072571"/>
    </radialGradient>
    <radialGradient id="shape_60_fill" cx="0.5489614243323442" cy="0.9977578475336323" r="0.06617211022079875">
      <stop offset="0.0" stop-color="rgb(140, 131, 64)" stop-opacity="1.0"/>
      <stop offset="1.0" stop-color="rgb(232, 199, 93)" stop-opacity="0.8868293166160583"/>
    </radialGradient>
    <radialGradient id="shape_61_fill" cx="0.6469716601272719" cy="0.96866973740103" r="0.06610439651443979">
      <stop offset="0.463088" stop-color="rgb(246, 191, 63)" stop-opacity="0.955982506275177"/>
      <stop offset="0.21278743" stop-color="rgb(157, 79, 71)" stop-opacity="0.45506319403648376"/>
    </radialGradient>
    <radialGradient id="shape_62_fill" cx="0.615727002967359" cy="0.3991031390134529" r="0.06617211022079875">
      <stop offset="0.0" stop-color="rgb(55, 47, 13)" stop-opacity="1.0"/>
      <stop offset="1.0" stop-color="rgb(81, 52, 5)" stop-opacity="0.8932779431343079"/>
    </radialGradient>
    <radialGradient id="shape_63_fill" cx="0.6261127596439169" cy="0.7286995515695067" r="0.06617211022079875">
      <stop offset="0.0" stop-color="rgb(79, 66, 32)" stop-opacity="1.0"/>
      <stop offset="1.0" stop-color="rgb(197, 189, 95)" stop-opacity="0.5094989538192749"/>
    </radialGradient>
    <radialGradient id="shape_64_fill" cx="0.40801186943620177" cy="0.12556053811659193" r="0.06617211022079875">
      <stop offset="0.0" stop-color="rgb(76, 66, 59)" stop-opacity="1.0"/>
      <stop offset="1.0" stop-color="rgb(145, 111, 112)" stop-opacity="1.0"/>
    </radialGradient>
    <radialGradient id="shape_65_fill" cx="0.6528189910979229" cy="0.6883408071748879" r="0.06617211022079875">
      <stop offset="0.0" stop-color="rgb(121, 97, 39)" stop-opacity="1.0"/>
      <stop offset="1.0" stop-color="rgb(255, 220, 94)" stop-opacity="1.0"/>
    </radialGradient>
    <radialGradient id="shape_66_fill" cx="0.6522818545559393" cy="0.458019171060468" r="0.07072317423381862">
      <stop offset="0.25649282" stop-color="rgb(182, 213, 116)" stop-opacity="0.2924234867095947"/>
      <stop offset="0.7636692" stop-color="rgb(0, 15, 0)" stop-opacity="0.051774609833955765"/>
    </radialGradient>
    <radialGradient id="shape_67_fill" cx="0.5976648528781064" cy="0.9948802999316844" r="0.07077045044488652">
      <stop offset="0.8362737" stop-color="rgb(50, 28, 0)" stop-opacity="0.6380318403244019"/>
      <stop offset="1.0" stop-color="rgb(0, 22, 0)" stop-opacity="0.15220139920711517"/>
    </radialGradient>
    <radialGradient id="shape_68_fill" cx="0.49225319882174984" cy="0.9977796067036855" r="0.06855450751873435">
      <stop offset="0.39280233" stop-color="rgb(43, 14, 0)" stop-opacity="0.4477449059486389"/>
      <stop offset="1.0" stop-color="rgb(29, 64, 52)" stop-opacity="0.18272599577903748"/>
    </radialGradient>
  </defs>
  <g>
    <path d="M 0.01832476630806923 271.3257751464844 C 17.406787872314453 256.9112854003906 46.06470489501953 259.0433349609375 46.65227508544922 271.15521240234375 C 48.26022720336914 273.0693359375 49.33147430419922 276.1748962402344 57.13551330566406 274.6023254394531 C 57.96742248535156 273.8139953613281 62.315589904785156 273.6422424316406 62.610145568847656 269.1551513671875 C 68.32416534423828 267.9158935546875 100.37345123291016 269.2760925292969 116.7083740234375 269.62103271484375 C 119.56281280517578 271.58203125 125.17152404785156 278.1473083496094 126.63687133789062 282.326171875 C 134.7994384765625 282.7925720214844 147.24270629882812 280.69866943359375 172.62806701660156 290.2873229980469 C 185.40621948242188 283.1781921386719 185.91397094726562 281.4057922363281 206.7393035888672 287.2414855957031 C 200.54031372070312 286.9710693359375 198.3595428466797 280.95782470703125 210.9221954345703 268.0625 C 249.85333251953125 265.5631408691406 293.7397155761719 263.27105712890625 312.02410888671875 272.5871887207031 C 349.3828430175781 273.9621887207031 425.75128173828125 274.779052734375 479.2761535644531 263.8403625488281 C 511.16741943359375 258.7485046386719 548.6548461914062 259.6971435546875 548.3008422851562 274.00054931640625 C 547.1494140625 273.98114013671875 547.1741333007812 262.8133850097656 578.5158081054688 262.8275451660156 C 596.9002685546875 267.2147521972656 612.1934814453125 279.330322265625 612.5421752929688 280.07147216796875 C 612.4786376953125 265.6035461425781 624.3644409179688 265.5093994140625 673.405517578125 265.7306213378906 C 676.7752685546875 272.2897644042969 679.37158203125 278.8263854980469 678.4677124023438 284.9035339355469 C 676.6203002929688 339.52984619140625 674.7125244140625 391.4872741699219 675.1177368164062 446.4668273925781 C 451.9151306152344 446.6697692871094 228.9889373779297 446.8115539550781 -0.4355616271495819 446.4240417480469 C -0.516171932220459 389.1408996582031 -0.6483666896820068 332.2928771972656 0.01832476630806923 271.3257751464844" stroke-width="0.0" fill="url(#shape_0_fill)"/>
    <path d="M -0.2937409281730652 271.11102294921875 C 35.934085845947266 275.390869140625 36.5576057434082 274.58306884765625 44.033626556396484 273.2959289550781 C 44.93981170654297 266.10723876953125 58.50630569458008 265.81231689453125 80.61164855957031 266.6971130371094 C 113.70446014404297 278.67987060546875 114.08024597167969 279.3109130859375 128.219970703125 279.1545104980469 C 127.7366943359375 270.1162414550781 135.9462127685547 269.38348388671875 144.9856414794922 269.5820007324219 C 185.25196838378906 268.7665710449219 186.08865356445312 268.859130859375 205.50177001953125 272.0697326660156 C 203.6321563720703 292.1399230957031 204.38629150390625 292.3266906738281 208.7227325439453 298.9440612792969 C 213.7717742919922 298.12982177734375 267.95501708984375 298.6614074707031 292.062744140625 301.18115234375 C 306.6358947753906 306.7784118652344 441.8597717285156 304.0145263671875 459.967529296875 304.5513610839844 C 474.9883117675781 293.0896301269531 492.5653076171875 292.7471923828125 504.5815734863281 286.937744140625 C 515.7278442382812 289.343994140625 521.2334594726562 286.8444519042969 523.2133178710938 286.6043395996094 C 527.3945922851562 285.7532043457031 531.7037353515625 286.0091857910156 534.2083129882812 287.2263488769531 C 538.8919677734375 287.5115661621094 540.4739990234375 288.8244323730469 542.2191772460938 310.0316467285156 C 579.619873046875 291.774658203125 581.6299438476562 292.2831115722656 601.3510131835938 298.5541687011719 C 619.764892578125 289.3712158203125 629.2474365234375 288.1943359375 634.146240234375 288.498779296875 C 636.7095947265625 274.26495361328125 653.6072387695312 276.43109130859375 673.6492309570312 293.71246337890625 C 674.4105224609375 339.87744140625 674.5120239257812 392.07489013671875 674.1581420898438 446.2807922363281 C 451.4774169921875 446.3905334472656 229.19664001464844 446.25439453125 -0.30765825510025024 446.2476501464844 C -0.21200114488601685 389.403564453125 -0.3077068626880646 333.0138244628906 -0.2937409281730652 271.11102294921875" stroke-width="0.0" fill="url(#shape_1_fill)"/>
    <path d="M -0.019932541996240616 -0.25989267230033875 C 219.69313049316406 0.1040392518043518 439.478759765625 -0.45242562890052795 674.152099609375 -0.06035979092121124 C 665.8687744140625 10.6899995803833 644.8814086914062 34.85404968261719 637.2738647460938 49.614990234375 C 634.2490844726562 53.017295837402344 611.9794311523438 91.91943359375 583.7882080078125 83.80896759033203 C 577.19287109375 81.23796081542969 564.2653198242188 72.06592559814453 532.5194091796875 74.38834381103516 C 531.845703125 79.18803405761719 527.7161254882812 80.2035140991211 522.1087036132812 72.00340270996094 C 522.6909790039062 68.93450164794922 499.3155517578125 63.92775344848633 499.00091552734375 62.59468078613281 C 493.21624755859375 62.26504898071289 486.245849609375 61.09878921508789 484.30517578125 68.85672760009766 C 475.26715087890625 72.88829040527344 476.279296875 76.09095001220703 476.68084716796875 81.24339294433594 C 483.5018615722656 100.5235824584961 480.1684265136719 120.00524139404297 479.9478759765625 122.79923248291016 C 460.3264465332031 116.8266830444336 459.24383544921875 114.81875610351562 450.9140319824219 108.56403350830078 C 435.3827819824219 107.46891784667969 411.77532958984375 101.56465148925781 409.3337097167969 105.55810546875 C 413.0706481933594 121.65160369873047 419.39111328125 128.73927307128906 413.5367126464844 139.37596130371094 C 410.6673583984375 152.70721435546875 394.6143798828125 152.26104736328125 394.6373596191406 135.4939727783203 C 382.72222900390625 140.13421630859375 381.29217529296875 158.32850646972656 370.09283447265625 157.70779418945312 C 366.183837890625 156.74642944335938 363.2096862792969 158.1085205078125 354.43780517578125 158.3206024169922 C 348.3377685546875 163.73548889160156 345.7030334472656 165.45558166503906 347.66412353515625 171.4483184814453 C 343.65423583984375 177.38894653320312 341.3934020996094 175.9209442138672 350.5376892089844 160.5885772705078 C 293.6737365722656 156.30641174316406 293.0279235839844 162.84164428710938 291.56292724609375 172.2198028564453 C 306.05859375 185.37574768066406 304.10076904296875 189.45262145996094 307.4879150390625 201.4231719970703 C 307.5276794433594 200.62979125976562 306.3500061035156 198.1489715576172 304.7573547363281 190.0877685546875 C 304.11566162109375 185.7346954345703 302.81610107421875 184.56382751464844 291.2442626953125 171.27215576171875 C 289.8477783203125 194.5627899169922 288.9987487792969 195.9634552001953 289.3541259765625 196.29930114746094 C 289.3465576171875 189.90565490722656 291.7555847167969 181.77493286132812 290.4746398925781 167.06137084960938 C 270.64642333984375 169.73562622070312 266.3619079589844 176.47158813476562 261.7558288574219 173.54173278808594 C 256.41595458984375 183.98773193359375 255.93014526367188 189.3919677734375 254.73548889160156 197.07777404785156 C 260.6703186035156 199.27310180664062 260.47344970703125 199.87747192382812 257.98883056640625 199.656494140625 C 257.0644836425781 198.6846466064453 253.96498107910156 196.51626586914062 255.3872833251953 193.81983947753906 C 255.7443084716797 181.718994140625 262.3047790527344 179.9366455078125 262.8796691894531 162.34750366210938 C 261.9186706542969 158.12522888183594 215.75225830078125 143.4664764404297 212.3802032470703 142.31777954101562 C 187.1735076904297 134.8919219970703 195.3692169189453 106.09040069580078 191.326171875 86.41160583496094 C 190.84219360351562 84.53549194335938 162.61618041992188 74.32977294921875 128.71546936035156 57.86174011230469 C 100.97206115722656 38.9644660949707 75.8869857788086 58.6954345703125 46.7576789855957 57.59236526489258 C 29.80812644958496 70.43793487548828 1.7298154830932617 69.89315032958984 -0.9073598980903625 69.45021057128906 C 0.34183040261268616 43.958133697509766 -0.3314551115036011 22.56187629699707 -0.019932541996240616 -0.25989267230033875" stroke-width="0.0" fill="url(#shape_2_fill)"/>
    <path d="M 87.23274993896484 58.07066345214844 C 88.93084716796875 68.81842803955078 91.6723861694336 69.0035171508789 93.79618072509766 71.93389892578125 C 90.03893280029297 80.0304946899414 92.94451141357422 81.71630096435547 89.07477569580078 94.11329650878906 C 95.78917694091797 85.82101440429688 98.15411376953125 86.47246551513672 102.84715270996094 87.94495391845703 C 105.09184265136719 75.15020751953125 105.62393188476562 73.26056671142578 108.19853973388672 73.5711898803711 C 112.77022552490234 87.05261993408203 109.76637268066406 92.1595458984375 117.55718994140625 98.69181823730469 C 115.95893859863281 100.03495788574219 116.87963104248047 109.44901275634766 115.43977355957031 115.08081817626953 C 121.1589126586914 115.35774993896484 128.197509765625 116.28824615478516 129.7930145263672 112.13236999511719 C 131.07904052734375 111.0673599243164 136.9064178466797 109.55594635009766 136.78414916992188 104.99744415283203 C 136.69033813476562 103.69913482666016 135.59449768066406 101.89810943603516 137.96929931640625 99.76387023925781 C 136.551025390625 93.28545379638672 137.5977020263672 92.93372344970703 137.7296600341797 89.8809585571289 C 137.3516082763672 85.48185729980469 138.5475616455078 85.01829528808594 140.1885223388672 88.96487426757812 C 140.75274658203125 83.36675262451172 146.76617431640625 80.2868881225586 148.4833221435547 80.39990234375 C 148.20272827148438 93.28462982177734 149.6993408203125 94.55227661132812 152.5141143798828 99.58011627197266 C 153.96145629882812 102.6389389038086 149.86795043945312 106.85375213623047 148.87789916992188 106.7743148803711 C 152.33404541015625 109.4764633178711 150.0441131591797 113.94403839111328 148.2126922607422 113.2133560180664 C 154.17950439453125 112.9215316772461 158.1422119140625 122.5956802368164 157.0437774658203 123.36761474609375 C 160.9771270751953 124.83168029785156 164.76376342773438 123.42584991455078 169.7080841064453 122.81871795654297 C 174.3976287841797 119.73478698730469 175.78878784179688 121.50924682617188 177.60743713378906 122.47691345214844 C 179.3158721923828 122.72457885742188 180.102783203125 124.97394561767578 183.67970275878906 127.23999786376953 C 183.93511962890625 130.04061889648438 182.68801879882812 132.7563934326172 185.73690795898438 134.6155242919922 C 189.5544891357422 135.23129272460938 189.3186492919922 136.74395751953125 187.7750701904297 144.15792846679688 C 197.51467895507812 148.50115966796875 208.914306640625 153.59689331054688 201.5814666748047 172.6258087158203 C 205.66175842285156 177.0638427734375 206.3352813720703 179.45448303222656 205.24551391601562 181.689453125 C 213.985107421875 180.99766540527344 215.169189453125 193.08168029785156 212.6092529296875 201.3002166748047 C 204.45660400390625 205.91006469726562 202.92132568359375 206.18946838378906 203.479248046875 210.1392059326172 C 200.4175567626953 210.40719604492188 200.38157653808594 211.8272705078125 198.87445068359375 212.97933959960938 C 196.42489624023438 215.45559692382812 192.90635681152344 215.25875854492188 192.18728637695312 219.62319946289062 C 184.2933349609375 220.61383056640625 183.6495819091797 224.76759338378906 178.2158966064453 230.1175079345703 C 176.41793823242188 233.43191528320312 181.55975341796875 237.96136474609375 181.19223022460938 238.50389099121094 C 181.87039184570312 251.82980346679688 185.59796142578125 260.79632568359375 179.82241821289062 264.2070007324219 C 169.30650329589844 269.87255859375 148.6586151123047 267.7601318359375 136.23094177246094 269.6268005371094 C 131.4370574951172 268.8238220214844 128.996826171875 272.2831115722656 122.82306671142578 275.5096435546875 C 109.16557312011719 276.64569091796875 73.34358978271484 275.8951721191406 72.98387908935547 270.1258239746094 C 47.7518310546875 266.79974365234375 56.59376907348633 268.58935546875 58.18193054199219 273.3897705078125 C 48.672149658203125 276.5854797363281 1.0620546340942383 272.6533203125 0.7674810886383057 269.91229248046875 C -6.436670780181885 225.83602905273438 -4.735335350036621 168.02647399902344 1.9877859354019165 122.25667572021484 C 10.498565673828125 117.78923034667969 21.27911376953125 113.9819564819336 26.300613403320312 121.87744903564453 C 27.62264633178711 129.996826171875 35.839942932128906 129.10723876953125 42.11244201660156 131.9434814453125 C 46.14429473876953 130.3429718017578 47.43910217285156 131.35658264160156 49.527496337890625 142.33448791503906 C 50.64604187011719 149.48580932617188 61.06525802612305 148.5327606201172 62.717796325683594 146.25672912597656 C 62.15552520751953 136.97430419921875 63.174007415771484 134.1171417236328 62.066829681396484 128.2874298095703 C 68.19783782958984 126.60044860839844 67.67356872558594 124.34371948242188 66.2550048828125 112.68724060058594 C 68.55455780029297 111.13475799560547 67.9734878540039 104.04398345947266 75.16399383544922 100.9942855834961 C 74.9127197265625 100.49823760986328 77.69918823242188 89.97811126708984 77.37374877929688 85.91986083984375 C 77.3079605102539 83.07783508300781 77.48439025878906 75.23345184326172 85.24893951416016 75.33991241455078 C 83.14494323730469 70.26081085205078 82.6765365600586 67.54801177978516 87.23274993896484 58.07066345214844" stroke-width="0.0" fill="url(#shape_3_fill)"/>
    <path d="M 673.9802856445312 -0.5509788393974304 C 676.1171875 47.82554626464844 675.0172119140625 95.90823364257812 682.0383911132812 136.68246459960938 C 678.9805297851562 119.6082534790039 673.0545043945312 120.0191421508789 662.14404296875 120.12774658203125 C 660.1939086914062 119.49958801269531 654.658935546875 109.57455444335938 650.1795043945312 110.94783782958984 C 648.9385986328125 112.54813385009766 644.9845581054688 150.1160888671875 642.928955078125 155.6945343017578 C 629.9557495117188 154.8185577392578 627.1161499023438 142.6726837158203 626.982421875 138.47950744628906 C 623.0463256835938 137.47451782226562 619.2477416992188 145.4336395263672 615.421630859375 144.41876220703125 C 611.6814575195312 142.3099365234375 610.1643676757812 143.3166046142578 607.804443359375 141.0150909423828 C 608.8720092773438 136.97007751464844 613.4666137695312 132.65269470214844 604.7221069335938 115.15695190429688 C 599.4678955078125 135.73214721679688 597.7996215820312 139.6201934814453 593.3565673828125 142.53538513183594 C 599.0311889648438 145.921142578125 598.3501586914062 151.4801025390625 597.3966064453125 152.69564819335938 C 587.7012329101562 157.44778442382812 588.540771484375 164.70938110351562 578.0619506835938 172.56068420410156 C 572.3309936523438 170.1729736328125 569.7100219726562 157.74461364746094 568.5610961914062 157.06724548339844 C 565.2367553710938 158.30702209472656 563.4923095703125 154.31849670410156 561.9321899414062 148.5496368408203 C 560.0730590820312 151.13206481933594 556.7484130859375 151.1926727294922 555.4281005859375 155.52781677246094 C 552.4007568359375 155.96551513671875 550.7385864257812 157.9784698486328 548.6676025390625 158.41847229003906 C 548.1189575195312 154.75027465820312 544.8474731445312 155.1750946044922 536.0060424804688 152.80332946777344 C 531.7534790039062 154.89865112304688 529.9622802734375 159.4734649658203 523.1414794921875 156.94580078125 C 519.2522583007812 160.52357482910156 520.3269653320312 162.15225219726562 522.859130859375 168.9379425048828 C 517.6307373046875 168.5101318359375 517.3003540039062 171.06649780273438 516.2476196289062 171.619140625 C 511.2713623046875 173.32232666015625 509.8157043457031 175.26531982421875 505.6457214355469 174.399169921875 C 502.73834228515625 171.4149627685547 503.0588684082031 169.50537109375 502.98406982421875 159.2963104248047 C 489.9875793457031 143.98098754882812 504.6854248046875 119.21163177490234 516.1366577148438 125.74057006835938 C 524.044189453125 125.4301528930664 542.2366943359375 109.14921569824219 548.79345703125 112.9005126953125 C 557.201171875 110.7325668334961 556.9957275390625 109.39868927001953 558.4605712890625 109.13191986083984 C 559.5484619140625 107.32254028320312 564.7520751953125 103.43083953857422 570.1268310546875 105.10679626464844 C 574.654296875 102.41899108886719 573.5623779296875 97.68622589111328 579.0027465820312 93.87887573242188 C 588.352294921875 88.09435272216797 591.4126586914062 77.92168426513672 612.5047607421875 78.51471710205078 C 616.9132080078125 73.61119079589844 644.3656005859375 51.23819351196289 645.9404296875 35.35603332519531 C 644.8893432617188 32.39822769165039 647.96826171875 30.37550926208496 647.4707641601562 29.463747024536133 C 646.8870239257812 28.282337188720703 664.150390625 -4.261790752410889 673.9802856445312 -0.5509788393974304" stroke-width="0.0" fill="url(#shape_4_fill)"/>
    <path d="M 151.4886016845703 68.62452697753906 C 152.30633544921875 69.0792465209961 186.2075653076172 84.83134460449219 192.56716918945312 91.81219482421875 C 179.7498779296875 118.26995086669922 217.78675842285156 149.97604370117188 221.21665954589844 154.57681274414062 C 240.08523559570312 167.9778289794922 242.01589965820312 184.3595428466797 240.74160766601562 193.8676300048828 C 237.9977569580078 193.2089385986328 236.09654235839844 186.78175354003906 236.7724609375 184.06607055664062 C 235.6884765625 183.52633666992188 234.15428161621094 184.31309509277344 231.05308532714844 182.66964721679688 C 231.92018127441406 184.3880157470703 232.1190643310547 193.157470703125 228.65675354003906 195.66871643066406 C 227.64125061035156 196.63858032226562 227.67864990234375 205.25198364257812 221.05381774902344 207.644775390625 C 215.08314514160156 206.57655334472656 214.28306579589844 197.86036682128906 214.57980346679688 195.00003051757812 C 212.95542907714844 185.4470672607422 211.89328002929688 184.9569549560547 206.590576171875 177.4044952392578 C 205.80873107910156 172.68609619140625 206.19631958007812 168.01699829101562 204.21507263183594 159.45335388183594 C 205.72067260742188 153.81809997558594 194.87657165527344 144.62411499023438 193.55592346191406 141.08563232421875 C 189.22149658203125 139.92947387695312 189.0780029296875 136.22593688964844 186.64846801757812 135.82716369628906 C 177.64442443847656 134.1060333251953 178.48919677734375 127.60623931884766 183.42555236816406 117.18135833740234 C 179.39089965820312 116.41070556640625 177.40054321289062 117.66777038574219 172.9368896484375 117.7266616821289 C 178.8916778564453 127.99990844726562 177.20950317382812 131.21702575683594 152.25604248046875 130.27398681640625 C 148.92340087890625 129.15090942382812 152.29800415039062 102.64900207519531 154.3668670654297 92.66987609863281 C 152.57688903808594 91.54085540771484 153.23367309570312 88.01370239257812 150.33531188964844 76.2361831665039 C 147.95477294921875 75.89096069335938 148.00784301757812 69.19432830810547 151.4886016845703 68.62452697753906" stroke-width="0.0" fill="url(#shape_5_fill)"/>
    <path d="M 614.9215087890625 79.002197265625 C 618.8883666992188 83.93914031982422 620.2265625 86.80390167236328 632.3380737304688 86.04719543457031 C 635.996826171875 86.30860137939453 636.9697265625 88.69707489013672 641.155517578125 89.25446319580078 C 642.1845703125 86.71222686767578 665.3515625 92.49332427978516 675.0125732421875 98.23918914794922 C 675.4066162109375 110.61923217773438 674.7958984375 125.90557098388672 674.7241821289062 151.75294494628906 C 665.7047729492188 142.7549591064453 662.6301879882812 136.7710418701172 660.3134155273438 131.96099853515625 C 660.235107421875 123.53910064697266 660.7976684570312 117.68003845214844 653.7244262695312 112.31439208984375 C 642.9273681640625 113.79054260253906 643.8490600585938 142.2358856201172 642.9256591796875 142.8734588623047 C 644.3124389648438 144.43101501464844 642.4249267578125 148.17103576660156 644.5554809570312 149.9801025390625 C 640.1290283203125 151.05833435058594 637.9345092773438 152.76979064941406 634.4615478515625 153.10574340820312 C 631.7366943359375 146.16799926757812 629.1732788085938 141.39683532714844 630.0364379882812 140.55328369140625 C 628.6563110351562 137.45285034179688 621.9200439453125 136.13719177246094 621.3029174804688 139.13563537597656 C 618.6600341796875 140.68429565429688 619.2960205078125 142.49188232421875 618.391357421875 149.38211059570312 C 613.4762573242188 144.7606658935547 613.0863647460938 143.2301025390625 609.372314453125 143.6832275390625 C 608.4609375 140.40753173828125 609.5194091796875 139.2410888671875 608.7865600585938 137.37518310546875 C 606.3677368164062 132.62937927246094 604.5653076171875 127.30760192871094 600.609619140625 127.75753784179688 C 606.08056640625 133.77667236328125 595.3470458984375 148.19554138183594 592.47119140625 152.9639892578125 C 590.458740234375 163.74525451660156 588.8280029296875 163.8922882080078 585.9317016601562 169.1077880859375 C 584.537841796875 167.55767822265625 584.0865478515625 167.0013427734375 589.2861328125 153.76087951660156 C 593.2089233398438 141.35397338867188 589.7282104492188 139.8172149658203 574.9132690429688 131.19976806640625 C 573.7122802734375 157.68576049804688 557.323486328125 157.18426513671875 555.9658813476562 151.1634979248047 C 555.7970581054688 152.86917114257812 553.0642700195312 154.69622802734375 552.9627075195312 157.8511199951172 C 551.998046875 161.70811462402344 548.1184692382812 160.76734924316406 547.3550415039062 159.31893920898438 C 544.4619750976562 156.32522583007812 542.683837890625 153.73736572265625 538.3135375976562 155.97288513183594 C 535.8655395507812 158.47840881347656 530.938720703125 157.89137268066406 529.1380004882812 158.20262145996094 C 526.5883178710938 159.5404052734375 526.822265625 163.406982421875 525.6897583007812 166.86441040039062 C 524.7023315429688 169.5747833251953 523.632568359375 171.60690307617188 519.0382690429688 173.07186889648438 C 513.1699829101562 175.58978271484375 501.62701416015625 174.8800506591797 481.973876953125 159.15768432617188 C 478.5368347167969 136.25527954101562 500.2840270996094 119.64827728271484 514.3078002929688 118.31293487548828 C 528.35693359375 127.68492126464844 541.5657348632812 107.99790954589844 548.2255249023438 111.73727416992188 C 556.4356689453125 111.05217742919922 563.1815795898438 111.65130615234375 564.2609252929688 107.05316925048828 C 564.62890625 104.43599700927734 566.4717407226562 103.42737579345703 569.861572265625 104.73583221435547 C 572.7647094726562 101.10070037841797 578.9915771484375 99.54638671875 587.083740234375 98.5924301147461 C 600.8406372070312 93.47576141357422 603.0239868164062 79.92520141601562 614.9215087890625 79.002197265625" stroke-width="0.0" fill="url(#shape_6_fill)"/>
    <path d="M 0.3568166196346283 93.05661010742188 C 42.00625991821289 107.58944702148438 43.999629974365234 118.56877899169922 50.64558029174805 138.86187744140625 C 81.78108978271484 153.1871337890625 54.21915817260742 213.11805725097656 36.9836540222168 249.33692932128906 C 51.280662536621094 259.6681213378906 48.71052169799805 264.6466064453125 49.00314712524414 264.80853271484375 C 50.94576644897461 254.64968872070312 34.58617401123047 248.2020721435547 20.143754959106445 241.50819396972656 C 6.484123229980469 196.7156524658203 -11.343151092529297 176.7094268798828 0.3568166196346283 93.05661010742188" stroke-width="0.0" fill="url(#shape_7_fill)"/>
    <path d="M 384.6108093261719 197.14602661132812 C 424.880615234375 188.58160400390625 427.0396423339844 189.12718200683594 429.7658996582031 204.36846923828125 C 477.06982421875 188.17274475097656 498.6474609375 202.47019958496094 491.2169494628906 229.55282592773438 C 490.9666748046875 250.49876403808594 486.29559326171875 251.5185546875 484.9267578125 252.47946166992188 C 486.3504333496094 259.1851501464844 482.5618896484375 268.83367919921875 476.62176513671875 268.6919860839844 C 469.04296875 272.9302978515625 453.2210388183594 266.7112731933594 451.6569519042969 269.717529296875 C 447.19683837890625 266.28875732421875 448.42059326171875 261.2391357421875 449.20166015625 260.1618347167969 C 439.2746887207031 264.8518371582031 436.52490234375 261.4970703125 437.5281677246094 256.7628479003906 C 427.0392150878906 257.0528869628906 425.71185302734375 259.97552490234375 420.95526123046875 262.0426940917969 C 418.5148010253906 264.19891357421875 417.77197265625 267.7698669433594 414.9779968261719 273.6795654296875 C 414.11236572265625 271.4992370605469 392.2281494140625 269.7682189941406 392.5196533203125 264.25555419921875 C 391.81341552734375 265.1750793457031 388.82952880859375 263.45782470703125 385.3705139160156 264.26165771484375 C 382.09393310546875 262.0140075683594 380.80462646484375 263.24261474609375 376.404296875 261.2242736816406 C 375.10894775390625 256.43450927734375 375.72314453125 252.83901977539062 370.5518798828125 251.2158203125 C 360.43572998046875 242.99940490722656 374.10198974609375 194.70025634765625 378.4737854003906 177.05943298339844 C 385.0196533203125 171.5970458984375 394.3023986816406 176.85830688476562 384.6108093261719 197.14602661132812" stroke-width="0.0" fill="url(#shape_8_fill)"/>
    <path d="M 566.5054321289062 157.1129913330078 C 567.9411010742188 158.9823455810547 568.1239013671875 166.62057495117188 569.3378295898438 168.01608276367188 C 573.4931030273438 169.49496459960938 573.6188354492188 171.05886840820312 577.5361328125 174.39649963378906 C 581.9307250976562 172.94601440429688 583.9710693359375 174.56983947753906 583.7080688476562 179.472412109375 C 575.3946533203125 180.47549438476562 572.2796630859375 225.61241149902344 577.52685546875 226.95896911621094 C 577.8778076171875 230.00152587890625 581.4818725585938 236.06846618652344 576.5509643554688 242.5611114501953 C 568.920166015625 238.5897216796875 566.9822387695312 237.1055145263672 558.9529418945312 247.4384307861328 C 553.0785522460938 249.27853393554688 499.2615051269531 255.20240783691406 485.553955078125 251.03076171875 C 486.69830322265625 250.42465209960938 488.4320983886719 241.38172912597656 497.8724670410156 231.5592498779297 C 486.1730041503906 226.86004638671875 483.1020202636719 222.4754638671875 482.646240234375 215.2296905517578 C 477.2578430175781 210.1156005859375 479.8080139160156 205.94448852539062 482.85321044921875 206.1851348876953 C 480.6985168457031 205.2145233154297 481.4593505859375 199.30807495117188 492.2730712890625 199.56619262695312 C 492.4499816894531 196.42579650878906 491.698486328125 192.50628662109375 491.9256591796875 188.5482635498047 C 487.519287109375 174.3748779296875 487.8636474609375 173.3930206298828 488.12896728515625 164.27992248535156 C 503.9158935546875 164.3981475830078 505.23358154296875 164.62098693847656 512.6495971679688 160.81423950195312 C 522.281005859375 169.4656524658203 524.337646484375 167.47714233398438 526.1890258789062 167.3691864013672 C 523.7724609375 162.15037536621094 531.130126953125 157.30389404296875 533.1990356445312 158.9249267578125 C 537.4895629882812 161.97552490234375 541.28369140625 162.56692504882812 542.0154418945312 164.14720153808594 C 545.1067504882812 164.15121459960938 545.6482543945312 166.01431274414062 549.9830932617188 166.93173217773438 C 549.005126953125 165.5904998779297 550.20458984375 157.9209747314453 554.9025268554688 158.14378356933594 C 557.8839721679688 161.07949829101562 563.0949096679688 157.9939422607422 566.5054321289062 157.1129913330078" stroke-width="0.0" fill="url(#shape_9_fill)"/>
    <path d="M 561.2177734375 156.7467498779297 C 565.4716186523438 152.97767639160156 571.3862915039062 157.0074920654297 571.0617065429688 173.70263671875 C 572.5269165039062 169.1408233642578 576.5593872070312 169.08642578125 579.6603393554688 174.01783752441406 C 580.551513671875 178.1180419921875 578.916015625 187.3743438720703 579.8932495117188 191.00184631347656 C 571.3739624023438 196.22476196289062 572.0615234375 229.96827697753906 578.1189575195312 230.974853515625 C 576.0814208984375 231.162841796875 575.627197265625 236.8663330078125 572.1155395507812 237.97393798828125 C 560.6014404296875 235.7979736328125 567.1170043945312 238.7062530517578 563.3447265625 247.56564331054688 C 548.92431640625 253.20016479492188 501.2933654785156 249.22171020507812 500.2044982910156 251.87725830078125 C 491.2274169921875 251.8336181640625 488.0589599609375 237.49581909179688 499.0211181640625 231.88174438476562 C 486.6341857910156 224.8809814453125 481.9794921875 219.28692626953125 481.8917541503906 214.7661590576172 C 475.8017272949219 215.3943328857422 472.3838806152344 215.1448516845703 464.60711669921875 196.76425170898438 C 464.79559326171875 176.73333740234375 480.2480163574219 175.11602783203125 482.5206604003906 195.40269470214844 C 489.71148681640625 197.868896484375 494.8100891113281 184.81529235839844 496.6139221191406 182.96144104003906 C 495.2952880859375 178.86642456054688 497.5860900878906 177.6873321533203 500.1571044921875 177.50457763671875 C 507.93701171875 179.16583251953125 516.5709228515625 181.7545928955078 521.0087890625 174.157470703125 C 525.2977905273438 173.49411010742188 528.4124755859375 159.65089416503906 529.8253784179688 154.49781799316406 C 538.2637329101562 155.78302001953125 539.8848876953125 156.85520935058594 537.0535278320312 165.80731201171875 C 545.7532348632812 166.03915405273438 549.0638427734375 167.52200317382812 551.6173095703125 166.6851348876953 C 550.9697875976562 155.3004150390625 552.7904052734375 152.99627685546875 561.2177734375 156.7467498779297" stroke-width="0.0" fill="url(#shape_10_fill)"/>
    <path d="M 443.552490234375 108.87772369384766 C 452.15887451171875 114.10968780517578 453.949951171875 115.49507904052734 463.0187683105469 107.67727661132812 C 466.92962646484375 114.14810943603516 469.34637451171875 113.17411804199219 488.5636901855469 107.63817596435547 C 489.4039611816406 124.43158721923828 488.737548828125 125.26358032226562 492.5361022949219 130.50381469726562 C 493.2459716796875 132.22598266601562 493.4692077636719 135.49400329589844 496.7247619628906 136.29393005371094 C 493.7202453613281 135.7801971435547 493.1073303222656 138.77134704589844 490.2159423828125 141.86325073242188 C 483.8304138183594 138.97027587890625 482.4993591308594 141.39486694335938 480.8843688964844 142.65139770507812 C 468.821533203125 136.57174682617188 467.021728515625 135.0961456298828 465.51983642578125 134.57667541503906 C 464.2341003417969 133.47071838378906 460.9958801269531 134.2168426513672 460.3141784667969 133.63967895507812 C 461.84210205078125 131.9204864501953 480.7420654296875 141.4644775390625 499.7512512207031 155.17552185058594 C 476.8648376464844 176.9376678466797 475.9202575683594 177.59764099121094 480.6275939941406 184.688720703125 C 467.8476257324219 183.5531768798828 467.3651123046875 188.62033081054688 463.4720153808594 190.03070068359375 C 463.1252136230469 184.58445739746094 460.7619934082031 172.79690551757812 460.86260986328125 159.3844451904297 C 449.156494140625 182.5083465576172 447.1730041503906 183.20176696777344 439.805419921875 183.08758544921875 C 439.14251708984375 183.8224639892578 435.7997131347656 195.7627410888672 435.0379333496094 197.37478637695312 C 428.1477355957031 200.3769989013672 417.5339050292969 180.58250427246094 417.6796875 179.8125457763672 C 416.9317321777344 180.03224182128906 398.9885559082031 180.88037109375 398.03289794921875 174.58123779296875 C 394.1021728515625 172.36795043945312 389.76910400390625 176.85191345214844 379.4480895996094 174.69497680664062 C 382.555419921875 157.72659301757812 379.7508239746094 152.09129333496094 392.30462646484375 138.8199920654297 C 398.51983642578125 138.6390380859375 399.892578125 130.30772399902344 402.98626708984375 119.92467498779297 C 406.57061767578125 98.97056579589844 424.2760009765625 101.40398406982422 443.552490234375 108.87772369384766" stroke-width="0.0" fill="url(#shape_11_fill)"/>
    <path d="M 602.86669921875 127.71336364746094 C 605.6998901367188 130.26856994628906 605.284912109375 143.36370849609375 606.8895263671875 145.46566772460938 C 610.805419921875 146.087890625 610.9127197265625 151.2109375 619.0231323242188 154.0074005126953 C 618.061279296875 149.84376525878906 617.547607421875 141.89224243164062 622.886962890625 141.08389282226562 C 624.0014038085938 137.3948211669922 625.3599853515625 137.32350158691406 627.1937866210938 140.32980346679688 C 627.1090087890625 142.2184295654297 628.8731079101562 144.837890625 629.0602416992188 147.23582458496094 C 632.0798950195312 149.78736877441406 631.6861572265625 151.2477264404297 635.8314208984375 153.75863647460938 C 642.238525390625 154.19667053222656 642.033935546875 160.1248321533203 649.696044921875 174.47059631347656 C 639.5570678710938 186.0266876220703 640.3619384765625 195.1227264404297 640.8636474609375 206.0746612548828 C 660.8938598632812 207.0883331298828 662.0347290039062 244.18948364257812 642.4751586914062 245.2901153564453 C 622.1804809570312 247.97169494628906 611.2192993164062 248.8771209716797 579.2625732421875 265.27947998046875 C 574.2833251953125 253.231201171875 580.7714233398438 229.67095947265625 572.517822265625 215.32061767578125 C 568.06494140625 208.82374572753906 571.51318359375 168.88058471679688 583.8353271484375 169.7210235595703 C 596.77587890625 163.24180603027344 599.8521118164062 143.0498809814453 600.1946411132812 142.16310119628906 C 595.7377319335938 140.0293426513672 596.2811889648438 137.35252380371094 602.86669921875 127.71336364746094" stroke-width="0.0" fill="url(#shape_12_fill)"/>
    <path d="M 412.1971740722656 176.5929718017578 C 418.8811950683594 174.51025390625 434.8413391113281 213.57676696777344 428.4894714355469 219.73068237304688 C 419.8043212890625 228.74815368652344 427.5217590332031 236.92288208007812 431.1541748046875 241.6739959716797 C 430.1676940917969 260.90167236328125 417.7535705566406 272.1878662109375 411.6894836425781 267.732177734375 C 407.04931640625 264.8184814453125 401.6395568847656 271.9250793457031 391.43817138671875 268.4525451660156 C 385.669921875 264.89337158203125 382.60833740234375 266.053955078125 378.72979736328125 265.6729431152344 C 373.7207946777344 266.05413818359375 372.9324951171875 262.10296630859375 374.53448486328125 258.417724609375 C 376.15130615234375 256.27447509765625 374.6799011230469 254.7405548095703 374.9607849121094 253.88760375976562 C 370.9985046386719 255.70785522460938 368.90643310546875 251.77468872070312 368.10443115234375 252.17124938964844 C 360.6066589355469 248.0280303955078 366.5918884277344 229.39410400390625 367.1189880371094 222.26419067382812 C 369.7098083496094 218.8235321044922 371.60455322265625 202.4913787841797 383.229248046875 202.6402130126953 C 378.660888671875 193.5982666015625 379.7485046386719 191.72732543945312 389.90594482421875 191.6608123779297 C 390.80035400390625 177.42767333984375 392.6949462890625 176.75738525390625 412.1971740722656 176.5929718017578" stroke-width="0.0" fill="url(#shape_13_fill)"/>
    <path d="M 507.5949401855469 66.8823013305664 C 508.9156799316406 67.69480895996094 512.0919799804688 74.68138122558594 514.46337890625 87.66117858886719 C 531.5536499023438 79.55315399169922 535.8319702148438 79.79361724853516 537.6000366210938 85.84545135498047 C 539.18212890625 90.8516616821289 544.5380859375 90.27819061279297 545.0235595703125 91.17668914794922 C 545.53662109375 92.74089813232422 556.1626586914062 96.85980224609375 559.404052734375 95.5386734008789 C 563.3751831054688 97.59716033935547 567.3869018554688 97.31745910644531 568.4335327148438 98.10818481445312 C 563.8467407226562 106.520263671875 558.7955932617188 116.2640380859375 537.9764404296875 109.03632354736328 C 540.5553588867188 112.07025909423828 539.9804077148438 115.30000305175781 534.647705078125 118.41805267333984 C 527.295654296875 120.18034362792969 519.5931396484375 124.56834411621094 515.6077880859375 118.5633773803711 C 512.5242919921875 121.84117126464844 501.80059814453125 125.91529083251953 500.58306884765625 127.18079376220703 C 498.1505126953125 129.70095825195312 494.2201232910156 129.3202362060547 489.9987487792969 126.44855499267578 C 489.17071533203125 116.99251556396484 468.861083984375 118.25135040283203 468.1603698730469 117.39688873291016 C 463.52484130859375 117.83768463134766 462.91729736328125 116.65142822265625 461.96112060546875 116.32113647460938 C 471.5633239746094 120.81183624267578 474.6520080566406 115.87882232666016 477.4538879394531 112.84307861328125 C 470.48626708984375 99.79953002929688 471.9757995605469 88.00192260742188 474.4280700683594 81.76361083984375 C 474.5868835449219 70.93272399902344 475.3395080566406 70.3851089477539 477.20159912109375 66.01947021484375 C 478.32574462890625 63.61792755126953 482.3704528808594 63.67593765258789 483.9860534667969 63.471797943115234 C 495.08453369140625 63.15816116333008 504.0273132324219 61.57537841796875 507.5949401855469 66.8823013305664" stroke-width="0.0" fill="url(#shape_14_fill)"/>
    <path d="M 535.196533203125 161.8230438232422 C 544.0242309570312 162.35000610351562 544.332763671875 163.14093017578125 546.5404663085938 165.06326293945312 C 549.8544921875 167.49871826171875 549.670654296875 170.16526794433594 542.89697265625 183.0655975341797 C 544.524169921875 191.77481079101562 535.7312622070312 230.16766357421875 537.1485595703125 232.3267822265625 C 541.3743896484375 238.99571228027344 540.8873901367188 252.7273406982422 518.6663208007812 252.28636169433594 C 502.3475036621094 253.04185485839844 481.97235107421875 242.5042266845703 487.9895324707031 230.41806030273438 C 476.4162902832031 219.9365234375 478.9661865234375 207.77865600585938 483.13836669921875 201.79519653320312 C 486.46051025390625 197.51918029785156 487.98370361328125 197.48245239257812 488.7785949707031 199.31471252441406 C 482.8189392089844 195.44996643066406 488.6796875 184.51358032226562 487.3628845214844 173.8735809326172 C 487.646728515625 167.32334899902344 489.56298828125 166.42250061035156 491.1038818359375 166.92820739746094 C 505.4797668457031 178.9275360107422 511.3097229003906 184.16995239257812 522.76025390625 172.7784423828125 C 525.5665893554688 170.96983337402344 525.3639526367188 167.2019500732422 526.1419067382812 165.0728759765625 C 525.4660034179688 160.16128540039062 528.1444091796875 158.12469482421875 535.196533203125 161.8230438232422" stroke-width="0.0" fill="url(#shape_15_fill)"/>
    <path d="M 651.6209716796875 109.44219207763672 C 653.8259887695312 110.58316802978516 664.09912109375 121.51324462890625 659.8338623046875 132.63009643554688 C 664.0239868164062 136.17027282714844 664.5134887695312 143.8053741455078 673.2166748046875 147.86927795410156 C 677.286865234375 178.97842407226562 673.8407592773438 210.8874053955078 676.2037963867188 267.0875244140625 C 675.0950927734375 265.4515380859375 635.7402954101562 272.9660949707031 630.9111938476562 264.056884765625 C 636.2869262695312 244.89561462402344 643.4585571289062 124.02841186523438 651.6209716796875 109.44219207763672" stroke-width="0.0" fill="url(#shape_16_fill)"/>
    <path d="M 601.43212890625 128.65087890625 C 604.003662109375 128.30271911621094 605.609130859375 131.68080139160156 606.3370971679688 134.0064239501953 C 608.8505859375 135.1802978515625 607.09619140625 141.58560180664062 609.1412963867188 143.79415893554688 C 628.7598876953125 143.28921508789062 632.2398071289062 216.44097900390625 632.932861328125 271.62957763671875 C 579.2394409179688 276.4861145019531 574.3218994140625 268.2946472167969 579.9334716796875 242.2958526611328 C 559.4448852539062 226.1312255859375 598.64501953125 156.25843811035156 601.43212890625 128.65087890625" stroke-width="0.0" fill="url(#shape_17_fill)"/>
    <path d="M 320.3369140625 186.14280700683594 C 321.4721984863281 186.41810607910156 321.6296691894531 189.24351501464844 321.36859130859375 199.96047973632812 C 331.5182800292969 193.61534118652344 332.3473815917969 193.3214874267578 336.87518310546875 196.19435119628906 C 345.2957763671875 198.72494506835938 346.5881652832031 197.35614013671875 356.5599060058594 190.9029998779297 C 358.71746826171875 192.3367462158203 359.6539306640625 194.39596557617188 356.2671203613281 201.84205627441406 C 359.4248352050781 204.04396057128906 361.60064697265625 204.16859436035156 364.8021240234375 210.35116577148438 C 367.31097412109375 207.17835998535156 368.5778503417969 207.89613342285156 368.2574462890625 211.6624755859375 C 370.1155700683594 220.1024932861328 370.2953186035156 223.07522583007812 366.0877685546875 225.56033325195312 C 365.8141784667969 231.37640380859375 363.5338439941406 237.39425659179688 367.979736328125 248.71395874023438 C 370.56268310546875 253.8759002685547 367.9607238769531 255.6602783203125 358.046630859375 254.62020874023438 C 354.58465576171875 255.81959533691406 324.27398681640625 254.94654846191406 322.58111572265625 255.39878845214844 C 313.2625427246094 256.0638732910156 311.9579772949219 253.86595153808594 308.7625427246094 245.17108154296875 C 303.8379821777344 229.14535522460938 320.9614562988281 195.52169799804688 320.3369140625 186.14280700683594" stroke-width="0.0" fill="url(#shape_18_fill)"/>
    <path d="M 482.60382080078125 232.00779724121094 C 505.76025390625 252.22366333007812 515.414794921875 263.99688720703125 495.2121276855469 280.5624694824219 C 470.1452331542969 280.203857421875 443.94891357421875 261.76507568359375 442.08721923828125 262.0358581542969 C 438.7657470703125 260.5242004394531 437.1018981933594 258.3671875 432.63995361328125 258.173095703125 C 429.72052001953125 258.5364074707031 428.4287109375 256.7394104003906 429.9136657714844 253.8224334716797 C 433.1271667480469 237.19415283203125 423.6291198730469 233.74032592773438 422.96484375 229.72303771972656 C 423.04315185546875 227.16754150390625 421.0812072753906 226.6530303955078 420.25555419921875 225.1012725830078 C 427.4022521972656 219.7262725830078 429.44970703125 218.79505920410156 428.6842956542969 213.94387817382812 C 444.5079040527344 197.21890258789062 481.24859619140625 196.25355529785156 482.60382080078125 232.00779724121094" stroke-width="0.0" fill="url(#shape_19_fill)"/>
    <path d="M 673.9310913085938 -2.9703450202941895 C 675.0673828125 32.84956741333008 674.5833740234375 64.76375579833984 674.6279907226562 97.26378631591797 C 669.3327026367188 96.047607421875 651.6683349609375 87.54244232177734 645.6981811523438 90.0902328491211 C 638.58349609375 89.48490142822266 638.1017456054688 86.05550384521484 637.348876953125 84.07305908203125 C 626.1054077148438 84.2529525756836 620.763427734375 93.44147491455078 608.0311279296875 86.51255798339844 C 609.8275756835938 74.74954986572266 612.1683349609375 73.62590026855469 614.448974609375 71.5931167602539 C 622.47119140625 68.79644775390625 648.7649536132812 25.110576629638672 647.5238647460938 20.631134033203125 C 655.4434814453125 9.114356994628906 656.5595703125 2.316814422607422 668.9408569335938 3.3844926357269287 C 669.828125 2.6930952072143555 670.0897827148438 1.05470609664917 673.9310913085938 -2.9703450202941895" stroke-width="0.0" fill="url(#shape_20_fill)"/>
    <path d="M 561.7373657226562 156.17510986328125 C 569.8684692382812 156.48013305664062 570.1514282226562 161.1199188232422 572.1546020507812 165.8961639404297 C 581.8174438476562 168.349365234375 571.947998046875 230.5608367919922 578.390380859375 240.5550079345703 C 579.2088012695312 244.88453674316406 578.3519897460938 246.99884033203125 577.7387084960938 270.7198181152344 C 536.7618408203125 269.65692138671875 533.3112182617188 266.7725524902344 538.4998779296875 248.30650329589844 C 545.6795654296875 244.78057861328125 548.012451171875 167.6366729736328 555.3276977539062 156.92189025878906 C 555.497314453125 152.72364807128906 559.7033081054688 151.761474609375 561.7373657226562 156.17510986328125" stroke-width="0.0" fill="url(#shape_21_fill)"/>
    <path d="M 215.00865173339844 210.2506561279297 C 234.9164581298828 208.5220947265625 238.09490966796875 241.5387725830078 224.96865844726562 257.4964904785156 C 211.4466094970703 262.9692077636719 209.1026611328125 263.6028747558594 208.8702392578125 273.06854248046875 C 205.81459045410156 275.2992858886719 206.7496795654297 277.0684509277344 205.626220703125 279.4922180175781 C 206.6436309814453 282.8128967285156 202.9747314453125 285.7465515136719 201.79620361328125 284.9183349609375 C 202.15223693847656 283.03729248046875 190.3419952392578 272.4490051269531 188.1389923095703 263.4284973144531 C 186.6625518798828 261.608154296875 183.88223266601562 263.1045227050781 181.4383544921875 263.1802673339844 C 180.98374938964844 260.88897705078125 179.9445037841797 260.0137634277344 178.68106079101562 251.74435424804688 C 178.8993682861328 247.89105224609375 169.04701232910156 242.2681427001953 170.6011962890625 238.52529907226562 C 175.18284606933594 213.60794067382812 177.32785034179688 212.90521240234375 185.5385284423828 220.62881469726562 C 193.68521118164062 219.69801330566406 194.04885864257812 215.03257751464844 198.50869750976562 213.40330505371094 C 184.49884033203125 205.81768798828125 184.56988525390625 200.72019958496094 201.2301788330078 197.4137420654297 C 212.89222717285156 192.8285675048828 215.12384033203125 194.86912536621094 215.00865173339844 210.2506561279297" stroke-width="0.0" fill="url(#shape_22_fill)"/>
    <path d="M 111.69186401367188 426.1988830566406 C 112.74368286132812 429.2851867675781 111.04395294189453 431.2081604003906 110.65796661376953 431.4041748046875 C 104.96638488769531 432.6653137207031 103.22502136230469 433.79998779296875 91.9492416381836 433.07958984375 C 89.77330780029297 435.97088623046875 95.66414642333984 446.421630859375 91.58623504638672 452.1399841308594 C 78.66380310058594 444.9972229003906 46.938175201416016 447.9271240234375 25.261381149291992 449.6153564453125 C 14.045183181762695 446.1853332519531 13.902721405029297 439.7491455078125 18.072429656982422 436.3509826660156 C 35.26620101928711 427.5592956542969 49.5996208190918 426.6851806640625 73.44161987304688 427.04595947265625 C 73.6111831665039 423.848876953125 110.00299835205078 420.55303955078125 111.69186401367188 426.1988830566406" stroke-width="0.0" fill="url(#shape_23_fill)"/>
    <path d="M 198.59616088867188 121.05598449707031 C 208.6929473876953 117.02206420898438 221.50379943847656 135.5248565673828 218.1816864013672 141.73158264160156 C 216.252685546875 147.8539581298828 218.4957275390625 150.38478088378906 220.2332305908203 154.7165069580078 C 228.16429138183594 158.36376953125 247.73451232910156 176.02572631835938 244.75892639160156 198.9901885986328 C 239.13348388671875 199.5886688232422 235.67613220214844 187.0267791748047 232.31028747558594 179.7930908203125 C 234.7785186767578 187.1912841796875 233.44058227539062 195.96109008789062 230.51829528808594 197.1222381591797 C 228.1741485595703 197.06008911132812 225.8292694091797 202.59933471679688 220.17474365234375 208.7135009765625 C 214.83810424804688 207.80552673339844 213.36769104003906 202.6510009765625 212.11122131347656 198.57418823242188 C 211.4888916015625 190.81019592285156 211.64340209960938 183.2714385986328 206.77493286132812 177.6548614501953 C 203.85760498046875 174.04806518554688 204.9123992919922 173.00241088867188 205.72525024414062 167.86172485351562 C 202.55587768554688 147.54452514648438 199.48892211914062 146.9425048828125 192.080322265625 143.79693603515625 C 189.4239959716797 142.42007446289062 191.55287170410156 128.4620361328125 198.59616088867188 121.05598449707031" stroke-width="0.0" fill="url(#shape_24_fill)"/>
    <path d="M 590.9514770507812 401.8348693847656 C 601.1721801757812 405.9435119628906 629.177001953125 405.1062316894531 636.1881103515625 410.99737548828125 C 634.8275146484375 423.51373291015625 630.3853149414062 426.851318359375 629.0624389648438 426.01885986328125 C 630.5646362304688 427.8258361816406 636.1007690429688 428.0368347167969 639.877685546875 436.5810241699219 C 618.8020629882812 447.93609619140625 578.7744750976562 438.6785583496094 572.412841796875 434.8983154296875 C 567.6846313476562 427.2672119140625 573.877197265625 419.573974609375 577.0318603515625 412.8897705078125 C 578.1224365234375 411.04901123046875 585.7565307617188 413.550048828125 590.9514770507812 401.8348693847656" stroke-width="0.0" fill="url(#shape_25_fill)"/>
    <path d="M 142.90980529785156 66.90768432617188 C 144.04629516601562 68.89472198486328 149.17391967773438 67.58716583251953 149.61781311035156 69.00230407714844 C 148.87232971191406 70.90955352783203 150.4436798095703 71.82854461669922 149.57974243164062 73.93560028076172 C 151.0925750732422 74.49012756347656 150.15545654296875 78.68353271484375 149.61605834960938 90.82884979248047 C 150.25 93.13813781738281 154.35205078125 95.55708312988281 153.29954528808594 104.17021942138672 C 153.29327392578125 107.68183135986328 155.10935974121094 108.5118637084961 155.7529754638672 110.95521545410156 C 157.2604522705078 123.24297332763672 154.57322692871094 133.47808837890625 150.0283203125 133.58006286621094 C 141.29443359375 128.00405883789062 137.6222381591797 118.58122253417969 125.98173522949219 116.67057800292969 C 121.94314575195312 113.77288818359375 123.3376693725586 109.29706573486328 126.16910552978516 107.27383422851562 C 128.56007385253906 106.77191925048828 129.03314208984375 105.27814483642578 132.5571746826172 104.9037857055664 C 138.5264129638672 96.43806457519531 135.1588897705078 92.88906860351562 132.8251953125 89.04712677001953 C 134.04722595214844 88.19708251953125 139.40921020507812 87.78961944580078 140.42611694335938 85.38801574707031 C 138.49627685546875 84.72200775146484 138.57984924316406 77.63053894042969 139.75778198242188 77.63717651367188 C 143.96951293945312 76.53579711914062 143.0221405029297 70.91358947753906 142.90980529785156 66.90768432617188" stroke-width="0.0" fill="url(#shape_26_fill)"/>
    <path d="M 139.6243133544922 67.76659393310547 C 149.12362670898438 66.8247299194336 149.53152465820312 67.95703125 148.76107788085938 77.29617309570312 C 150.509521484375 78.28992462158203 151.13983154296875 80.75802612304688 154.95152282714844 85.32411193847656 C 150.00572204589844 90.35262298583984 155.1328887939453 95.7054672241211 150.9856719970703 105.25849151611328 C 152.74041748046875 106.06859588623047 153.6004180908203 109.7459487915039 155.5255584716797 112.92716979980469 C 152.81475830078125 116.27501678466797 157.88681030273438 122.35641479492188 153.61810302734375 126.34634399414062 C 152.4761962890625 132.01107788085938 151.3049774169922 133.16510009765625 147.56114196777344 134.45947265625 C 141.9423065185547 131.007568359375 128.2595977783203 122.20301818847656 129.5390167236328 117.58295440673828 C 124.20443725585938 118.53964233398438 122.8817138671875 113.15933990478516 128.21153259277344 110.62419891357422 C 122.78346252441406 107.63064575195312 124.5006103515625 104.25130462646484 133.31723022460938 107.69561767578125 C 136.72142028808594 105.8671646118164 133.31649780273438 92.69173431396484 132.68397521972656 89.13472747802734 C 139.42758178710938 87.64289855957031 138.86648559570312 85.17682647705078 138.9797821044922 81.16075134277344 C 139.0658721923828 77.49110412597656 140.36212158203125 76.81204986572266 142.45896911621094 78.31449127197266 C 145.34693908691406 71.78045654296875 142.59408569335938 70.51628112792969 139.6243133544922 67.76659393310547" stroke-width="0.0" fill="url(#shape_27_fill)"/>
    <path d="M -0.41626906394958496 -0.2774975001811981 C 4.729130744934082 0.3881925642490387 9.68061351776123 -0.5322204828262329 18.712799072265625 -0.9034305810928345 C 25.52139663696289 -1.7908514738082886 26.002975463867188 -0.9864465594291687 55.506587982177734 0.4289242625236511 C 51.279319763183594 25.735010147094727 28.842838287353516 23.181089401245117 27.908273696899414 27.266279220581055 C 60.09393310546875 9.313034057617188 68.94606018066406 8.846051216125488 72.33467864990234 56.74915313720703 C 33.80422592163086 58.45865249633789 22.1625919342041 61.16910171508789 19.711606979370117 53.3602180480957 C 16.607467651367188 39.296173095703125 11.326767921447754 38.28141403198242 9.98316764831543 33.61884689331055 C 10.09577751159668 35.78831100463867 14.525784492492676 39.2619743347168 14.554287910461426 41.041542053222656 C 16.122304916381836 42.1783447265625 16.00374412536621 44.63197708129883 18.172853469848633 47.878570556640625 C 20.076547622680664 51.07180404663086 18.77113151550293 52.304195404052734 22.51154899597168 57.58744812011719 C 23.289628982543945 70.40345001220703 12.484461784362793 72.84734344482422 7.512908935546875 61.852821350097656 C 5.344485282897949 60.93954086303711 3.548438787460327 59.13181686401367 0.314907968044281 59.44565200805664 C -0.32076355814933777 39.799400329589844 -0.3250485956668854 19.635074615478516 -0.41626906394958496 -0.2774975001811981" stroke-width="0.0" fill="url(#shape_28_fill)"/>
    <path d="M 298.464111328125 197.2600555419922 C 297.8163146972656 199.46969604492188 300.6634826660156 202.16152954101562 301.5342102050781 208.76153564453125 C 300.43365478515625 214.4140625 325.99456787109375 222.5786895751953 316.0594482421875 255.53018188476562 C 311.8901062011719 254.67295837402344 310.54998779296875 255.7582244873047 304.48260498046875 255.01617431640625 C 303.8114318847656 258.070068359375 296.9551696777344 258.5285339355469 281.25238037109375 256.25555419921875 C 276.8875732421875 223.71234130859375 285.00970458984375 221.5302276611328 298.464111328125 197.2600555419922" stroke-width="0.0" fill="url(#shape_29_fill)"/>
    <path d="M 0.0040277824737131596 -0.13878661394119263 C 4.603489398956299 0.4542957842350006 9.805553436279297 -0.4096948206424713 14.737504005432129 0.09416019916534424 C 15.96493911743164 0.472225546836853 16.76101303100586 2.419487714767456 16.589414596557617 7.917105197906494 C 18.75387954711914 11.017651557922363 21.40567398071289 19.172321319580078 27.81548309326172 20.51011848449707 C 27.29938507080078 22.597707748413086 23.615341186523438 26.684988021850586 25.025848388671875 31.971832275390625 C 20.410810470581055 32.627403259277344 11.46605110168457 30.13439178466797 4.038437843322754 33.45505142211914 C 8.859709739685059 36.17081832885742 8.661184310913086 39.08076095581055 10.86538028717041 40.461734771728516 C 10.449552536010742 42.989559173583984 7.421448707580566 49.38728332519531 11.753569602966309 53.799373626708984 C 17.768455505371094 51.077545166015625 19.467456817626953 51.52965545654297 18.535842895507812 58.354652404785156 C 11.318577766418457 60.69984436035156 9.4266939163208 62.4730339050293 0.17697946727275848 61.587799072265625 C -0.4278276264667511 39.97876739501953 -0.3546898365020752 19.75648307800293 0.0040277824737131596 -0.13878661394119263" stroke-width="0.0" fill="url(#shape_30_fill)"/>
    <path d="M 548.98974609375 70.73246765136719 C 546.7460327148438 78.43185424804688 576.7109375 89.40520477294922 581.3997192382812 91.81463623046875 C 580.9899291992188 92.98217010498047 577.5117797851562 93.38993072509766 577.418701171875 98.33961486816406 C 573.2926025390625 100.69259643554688 572.0560913085938 99.81632995605469 569.2467651367188 100.0273666381836 C 567.6080322265625 93.85086059570312 547.8865356445312 98.97600555419922 538.9048461914062 88.25521087646484 C 538.1990966796875 85.51728057861328 538.9186401367188 82.76600646972656 535.8751831054688 81.8707275390625 C 534.05078125 80.73350524902344 527.0467529296875 79.51536560058594 526.9938354492188 78.11141967773438 C 524.990966796875 75.81372833251953 527.6622924804688 70.81517028808594 531.90869140625 68.9309310913086 C 539.1841430664062 66.81395721435547 542.8002319335938 71.44921875 548.98974609375 70.73246765136719" stroke-width="0.0" fill="url(#shape_31_fill)"/>
    <path d="M 446.95904541015625 264.43890380859375 C 450.61297607421875 265.32305908203125 451.2489013671875 266.77020263671875 455.5679931640625 267.8542785644531 C 460.5113830566406 267.6551208496094 465.32232666015625 270.3759765625 469.96112060546875 273.0078125 C 470.4309997558594 275.6334533691406 471.828857421875 276.8868713378906 471.6768798828125 280.7811279296875 C 452.2472839355469 287.26666259765625 431.0926818847656 284.1253356933594 415.7713928222656 285.1463317871094 C 413.3482971191406 273.880126953125 414.200927734375 272.2869873046875 415.2743835449219 268.0149230957031 C 418.1795959472656 267.1955871582031 417.7195129394531 264.7784729003906 419.31463623046875 262.86798095703125 C 445.16729736328125 251.05062866210938 447.17236328125 251.2717742919922 446.95904541015625 264.43890380859375" stroke-width="0.0" fill="url(#shape_32_fill)"/>
    <path d="M 272.8719787597656 192.08018493652344 C 274.30303955078125 192.34378051757812 288.2489929199219 243.7225341796875 282.6485900878906 249.1387481689453 C 279.74298095703125 249.6860809326172 274.0752868652344 247.7841796875 269.145751953125 250.01095581054688 C 266.0881652832031 246.70654296875 266.4197998046875 242.9097442626953 260.82171630859375 240.7038116455078 C 254.52732849121094 207.70558166503906 262.99884033203125 206.0869140625 272.8719787597656 192.08018493652344" stroke-width="0.0" fill="url(#shape_33_fill)"/>
    <path d="M 270.1686096191406 406.2725830078125 C 262.1294250488281 429.7967834472656 264.20806884765625 430.90606689453125 267.10205078125 440.6339416503906 C 262.4989929199219 440.85272216796875 260.68695068359375 446.42877197265625 258.6919860839844 447.8650817871094 C 245.33407592773438 445.8785705566406 213.3434295654297 448.8668518066406 212.38861083984375 445.07354736328125 C 213.02191162109375 436.99578857421875 213.95974731445312 436.2222900390625 216.08851623535156 434.75390625 C 216.49951171875 433.64788818359375 225.11180114746094 434.0354919433594 226.83119201660156 431.03997802734375 C 226.71417236328125 417.7181091308594 232.13214111328125 417.0211181640625 270.1686096191406 406.2725830078125" stroke-width="0.0" fill="url(#shape_34_fill)"/>
    <path d="M 105.59938049316406 69.5978012084961 C 110.14530944824219 69.77860260009766 110.72245025634766 78.55672454833984 112.7562255859375 85.04119873046875 C 117.90608978271484 86.44319915771484 115.93734741210938 110.17626953125 118.92671966552734 110.5767822265625 C 116.7018051147461 112.57185363769531 109.7738265991211 114.27644348144531 106.9813232421875 124.951904296875 C 104.58689880371094 117.11920166015625 96.4702377319336 118.90935516357422 87.30390167236328 107.56964874267578 C 85.88704681396484 85.65736389160156 106.0456771850586 84.28202056884766 105.59938049316406 69.5978012084961" stroke-width="0.0" fill="url(#shape_35_fill)"/>
    <path d="M 451.20843505859375 178.45982360839844 C 454.1583557128906 176.02476501464844 456.3363037109375 177.76963806152344 455.09979248046875 180.3310089111328 C 455.90789794921875 180.84471130371094 455.1289978027344 184.8729248046875 456.04046630859375 186.87924194335938 C 456.3241271972656 188.4761962890625 459.3080139160156 193.79966735839844 458.9052429199219 204.383544921875 C 458.8038635253906 208.2759552001953 453.1963806152344 210.29019165039062 445.96954345703125 204.3682861328125 C 442.23492431640625 206.7186279296875 440.7158508300781 209.36277770996094 432.2548522949219 210.87620544433594 C 435.8954162597656 209.92051696777344 436.85223388671875 187.9105987548828 437.6269226074219 173.83628845214844 C 440.17510986328125 179.09031677246094 440.8120422363281 181.33668518066406 446.8216552734375 181.43032836914062 C 447.9332275390625 179.71018981933594 450.1475524902344 179.71678161621094 451.20843505859375 178.45982360839844" stroke-width="0.0" fill="url(#shape_36_fill)"/>
    <path d="M 557.8734130859375 84.52299499511719 C 560.178466796875 80.2670669555664 578.3856201171875 83.15680694580078 579.3914184570312 85.13575744628906 C 581.4389038085938 83.20481872558594 586.3381958007812 84.8724365234375 588.227783203125 88.681884765625 C 598.351806640625 110.09915924072266 588.74755859375 116.47042846679688 574.3228759765625 100.85249328613281 C 573.7863159179688 99.4793701171875 551.0574951171875 96.88711547851562 548.3540649414062 86.83277893066406 C 539.1744384765625 86.67572784423828 537.6307373046875 85.07088470458984 536.8466186523438 79.84435272216797 C 543.1410522460938 74.80776977539062 547.0703125 78.64632415771484 557.8734130859375 84.52299499511719" stroke-width="0.0" fill="url(#shape_37_fill)"/>
    <path d="M 251.85557556152344 207.05078125 C 265.8954162597656 215.1036376953125 261.35882568359375 234.7378387451172 260.0466003417969 248.40536499023438 C 259.71820068359375 254.57745361328125 251.38246154785156 255.14979553222656 248.96473693847656 257.02398681640625 C 234.4196319580078 236.86383056640625 240.98223876953125 215.98019409179688 251.85557556152344 207.05078125" stroke-width="0.0" fill="url(#shape_38_fill)"/>
    <path d="M 442.2094421386719 263.00421142578125 C 445.9672546386719 263.42816162109375 449.2012023925781 266.6881408691406 447.92108154296875 270.086669921875 C 444.6692810058594 270.4041442871094 442.673583984375 277.3313903808594 440.0858154296875 277.2499694824219 C 438.2608642578125 286.9004821777344 430.30499267578125 286.24810791015625 417.9269104003906 275.3182373046875 C 414.4230041503906 276.7220458984375 413.2796325683594 274.3622131347656 416.43487548828125 271.6025390625 C 414.8902587890625 269.9176330566406 419.2836608886719 262.3022155761719 425.23956298828125 258.5083312988281 C 426.9721374511719 257.9290466308594 440.7333984375 257.6322937011719 442.2094421386719 263.00421142578125" stroke-width="0.0" fill="url(#shape_39_fill)"/>
    <path d="M 407.6560974121094 409.9239501953125 C 408.6382141113281 409.918701171875 416.76666259765625 419.15032958984375 414.21624755859375 424.4385070800781 C 399.0044250488281 435.3514099121094 386.2918395996094 420.6075134277344 376.5470275878906 420.8855895996094 C 371.072998046875 417.96148681640625 371.2273254394531 416.5549011230469 372.4609375 410.36358642578125 C 375.6216125488281 401.1604919433594 392.1557922363281 403.9780578613281 407.6560974121094 409.9239501953125" stroke-width="0.0" fill="url(#shape_40_fill)"/>
    <path d="M 66.57568359375 427.39300537109375 C 67.20530700683594 428.9316101074219 63.89870071411133 431.88519287109375 58.61278533935547 434.26220703125 C 57.3516960144043 435.9051208496094 41.5595703125 435.33489990234375 30.865924835205078 443.36724853515625 C 28.196395874023438 443.44659423828125 27.604488372802734 444.304443359375 17.413536071777344 442.49005126953125 C 16.458423614501953 440.6537170410156 18.055917739868164 439.2092590332031 17.41079330444336 437.7165222167969 C 36.30783462524414 427.06005859375 51.82954788208008 428.4703063964844 66.57568359375 427.39300537109375" stroke-width="0.0" fill="url(#shape_41_fill)"/>
    <path d="M 277.016845703125 381.0887451171875 C 284.6977844238281 381.1756896972656 298.37939453125 380.8041687011719 311.26544189453125 385.9156188964844 C 296.7525634765625 394.41326904296875 299.2942199707031 401.1257019042969 294.5523376464844 405.25091552734375 C 291.7723388671875 400.1083984375 268.1002502441406 407.4066162109375 258.33270263671875 410.109619140625 C 239.34963989257812 418.73675537109375 232.38893127441406 413.22503662109375 231.5096435546875 384.20465087890625 C 259.8067626953125 378.517578125 266.36663818359375 382.30712890625 277.016845703125 381.0887451171875" stroke-width="0.0" fill="url(#shape_42_fill)"/>
    <path d="M 222.7099151611328 208.9447479248047 C 224.2145538330078 206.3173370361328 238.54345703125 206.15841674804688 238.8774871826172 210.03244018554688 C 242.6641387939453 221.7310028076172 244.12472534179688 244.60250854492188 255.93069458007812 270.2745361328125 C 252.14590454101562 276.16015625 243.3621368408203 273.462890625 208.0768585205078 272.40203857421875 C 209.01744079589844 265.88616943359375 205.39768981933594 250.10922241210938 216.2127685546875 247.62908935546875 C 219.18418884277344 246.45359802246094 218.46551513671875 226.42796325683594 222.7099151611328 208.9447479248047" stroke-width="0.0" fill="url(#shape_43_fill)"/>
    <path d="M 483.2871398925781 396.43389892578125 C 486.6648254394531 399.7245788574219 485.9195251464844 401.0373229980469 483.4001770019531 400.7742004394531 C 469.7962951660156 407.47674560546875 451.1646423339844 406.9159240722656 450.2888488769531 407.5166320800781 C 448.32354736328125 404.4354553222656 451.75921630859375 396.2081604003906 453.6933898925781 396.53387451171875 C 466.6548767089844 393.40692138671875 471.9158935546875 392.2216491699219 483.2871398925781 396.43389892578125" stroke-width="0.0" fill="url(#shape_44_fill)"/>
    <path d="M 45.818443298339844 408.1346130371094 C 45.30883026123047 408.1231384277344 35.87661361694336 412.52618408203125 32.174072265625 412.5723876953125 C 32.223960876464844 414.28948974609375 31.83843231201172 415.7111511230469 27.97671890258789 414.93310546875 C 26.895727157592773 416.28582763671875 23.912160873413086 417.04144287109375 19.904268264770508 420.1629943847656 C 19.42235565185547 420.28375244140625 0.24482610821723938 417.36669921875 -0.6604090332984924 420.5218505859375 C 1.8897796869277954 419.40118408203125 -1.1384564638137817 411.1905822753906 1.037174940109253 410.17474365234375 C 5.872462272644043 409.70184326171875 45.46369934082031 406.2767639160156 45.818443298339844 408.1346130371094" stroke-width="0.0" fill="url(#shape_45_fill)"/>
    <path d="M 452.44622802734375 173.7595672607422 C 453.80322265625 174.95762634277344 464.6476745605469 198.48199462890625 467.25567626953125 199.8499755859375 C 462.61993408203125 209.20497131347656 451.17901611328125 209.13497924804688 449.449462890625 206.4778594970703 C 448.30279541015625 203.26918029785156 448.95697021484375 198.32391357421875 448.85211181640625 195.29684448242188 C 447.9663391113281 194.57229614257812 447.5845947265625 192.04681396484375 448.5238037109375 187.9904327392578 C 450.976318359375 186.64320373535156 450.3103332519531 182.63763427734375 452.44622802734375 173.7595672607422" stroke-width="0.0" fill="url(#shape_46_fill)"/>
    <path d="M 372.1585998535156 183.2599334716797 C 379.3077392578125 198.49034118652344 380.5213623046875 202.71864318847656 371.4449462890625 205.81654357910156 C 365.8671569824219 206.83409118652344 364.772216796875 204.77354431152344 361.63092041015625 206.11590576171875 C 339.60064697265625 212.31236267089844 335.21588134765625 200.96090698242188 353.39215087890625 189.3726348876953 C 356.70458984375 184.9875030517578 358.37908935546875 184.3677215576172 368.2121276855469 185.44952392578125 C 369.0538024902344 182.8002166748047 371.41021728515625 182.9324188232422 372.1585998535156 183.2599334716797" stroke-width="0.0" fill="url(#shape_47_fill)"/>
    <path d="M 473.0412292480469 264.48602294921875 C 473.8997497558594 268.57275390625 481.0159606933594 271.4956359863281 483.9443054199219 283.52423095703125 C 466.7341613769531 288.07696533203125 445.3826599121094 286.817138671875 443.77032470703125 284.9121398925781 C 439.343017578125 282.1181335449219 440.00213623046875 276.965087890625 441.0065002441406 276.3061828613281 C 449.05548095703125 266.5726318359375 456.36322021484375 261.6498107910156 473.0412292480469 264.48602294921875" stroke-width="0.0" fill="url(#shape_48_fill)"/>
    <path d="M 176.63626098632812 116.62946319580078 C 178.09979248046875 115.5811538696289 181.71177673339844 116.16160583496094 182.6770782470703 117.2833480834961 C 184.62777709960938 120.08354949951172 183.92803955078125 121.75785827636719 184.72140502929688 123.45061492919922 C 179.48464965820312 128.46359252929688 185.5633087158203 136.9824981689453 183.14036560058594 139.5176239013672 C 181.7323760986328 146.48101806640625 172.8344268798828 146.29591369628906 172.4859619140625 146.88955688476562 C 172.7900390625 126.9966812133789 171.13211059570312 124.47423553466797 176.63626098632812 116.62946319580078" stroke-width="0.0" fill="url(#shape_49_fill)"/>
    <path d="M 333.8163146972656 426.5040588378906 C 335.3640441894531 430.3033752441406 342.14019775390625 428.8929748535156 343.6650085449219 431.5470275878906 C 346.37744140625 435.5675964355469 345.158447265625 437.2112121582031 342.29052734375 437.4966735839844 C 342.5245056152344 447.3915100097656 325.5557861328125 448.7861022949219 323.58709716796875 445.533203125 C 321.5567626953125 436.1714172363281 321.584716796875 432.67822265625 305.39947509765625 430.51275634765625 C 318.0567626953125 425.1026916503906 327.27734375 430.80047607421875 333.8163146972656 426.5040588378906" stroke-width="0.0" fill="url(#shape_50_fill)"/>
    <path d="M 319.6023254394531 388.55999755859375 C 311.6099548339844 395.6612854003906 293.078125 395.6748046875 291.5212097167969 399.0486145019531 C 279.102294921875 397.634033203125 277.8619384765625 399.01824951171875 271.26055908203125 402.2802429199219 C 271.2621154785156 401.5965270996094 270.046875 398.89691162109375 271.75921630859375 397.5078430175781 C 270.39642333984375 395.58087158203125 273.55462646484375 388.6151123046875 280.0493469238281 388.458251953125 C 284.4156799316406 386.7904052734375 288.5276794433594 390.8644714355469 319.6023254394531 388.55999755859375" stroke-width="0.0" fill="url(#shape_51_fill)"/>
    <path d="M 269.0229187011719 186.44520568847656 C 277.61236572265625 194.81422424316406 276.95941162109375 207.78118896484375 280.3407287597656 217.4176025390625 C 271.6067810058594 210.4287567138672 269.5314636230469 208.52188110351562 260.1097717285156 217.23072814941406 C 257.77294921875 208.7427215576172 263.0345153808594 195.16558837890625 267.9630126953125 195.6837158203125 C 269.6168212890625 194.12879943847656 268.85906982421875 191.5768280029297 269.0229187011719 186.44520568847656" stroke-width="0.0" fill="url(#shape_52_fill)"/>
    <path d="M 218.52340698242188 409.36968994140625 C 215.8831787109375 410.89453125 215.7767333984375 413.3438415527344 214.3001708984375 415.169677734375 C 214.5470428466797 423.5603332519531 195.01925659179688 425.11651611328125 187.70884704589844 415.5950012207031 C 186.3605194091797 404.02734375 208.9192352294922 398.93115234375 218.52340698242188 409.36968994140625" stroke-width="0.0" fill="url(#shape_53_fill)"/>
    <path d="M 206.02108764648438 424.6178283691406 C 205.44715881347656 425.2212829589844 206.15220642089844 428.2990417480469 204.55010986328125 428.8759460449219 C 194.50247192382812 429.49114990234375 178.82737731933594 429.987060546875 178.10499572753906 432.6954345703125 C 176.94985961914062 430.94110107421875 178.5419158935547 425.942138671875 177.18836975097656 423.8641357421875 C 187.24365234375 418.68084716796875 192.33900451660156 423.2400817871094 206.02108764648438 424.6178283691406" stroke-width="0.0" fill="url(#shape_54_fill)"/>
    <path d="M 268.3354797363281 247.86746215820312 C 275.197021484375 245.26849365234375 276.7964782714844 248.01841735839844 279.18267822265625 249.3499755859375 C 281.14056396484375 251.00155639648438 280.7348937988281 252.146484375 294.285888671875 271.7841796875 C 263.4893493652344 258.14178466796875 262.879638671875 257.4821472167969 249.222900390625 268.0721130371094 C 254.8254852294922 248.17636108398438 255.9246063232422 247.25762939453125 258.7036437988281 245.24874877929688 C 261.0275573730469 240.1192626953125 263.5616760253906 239.23692321777344 268.3354797363281 247.86746215820312" stroke-width="0.0" fill="url(#shape_55_fill)"/>
    <path d="M 288.5120544433594 336.10394287109375 C 285.8968200683594 362.6046447753906 286.7694396972656 363.2512512207031 285.41510009765625 368.0255126953125 C 285.5843200683594 369.2232666015625 286.11016845703125 371.7626647949219 285.5180358886719 381.4615478515625 C 270.7922058105469 379.39251708984375 257.2186584472656 380.92718505859375 234.09701538085938 383.2261657714844 C 229.82785034179688 382.66400146484375 229.16983032226562 371.5487365722656 235.03756713867188 345.16265869140625 C 236.58106994628906 336.7841491699219 241.8994598388672 334.3949890136719 288.5120544433594 336.10394287109375" stroke-width="0.0" fill="url(#shape_56_fill)"/>
    <path d="M 408.07806396484375 271.9423828125 C 413.31982421875 270.54669189453125 417.8177795410156 275.5686340332031 425.48626708984375 282.14453125 C 416.4931335449219 283.1882019042969 412.381103515625 275.8557434082031 374.34027099609375 274.2306823730469 C 375.8917236328125 263.5132141113281 383.81866455078125 263.6964416503906 408.07806396484375 271.9423828125" stroke-width="0.0" fill="url(#shape_57_fill)"/>
    <path d="M 632.1167602539062 352.4866027832031 C 632.981689453125 354.7306823730469 661.5433349609375 355.1167297363281 668.4969482421875 355.4228515625 C 668.43701171875 358.0868225097656 662.9990234375 360.1827697753906 660.183349609375 356.6580505371094 C 644.621337890625 356.4911193847656 636.3062744140625 358.84393310546875 631.7141723632812 359.56756591796875 C 627.9169921875 357.244140625 629.5636596679688 353.6922912597656 632.1167602539062 352.4866027832031" stroke-width="0.0" fill="url(#shape_58_fill)"/>
    <path d="M 341.3814392089844 384.6556396484375 C 342.8387756347656 390.0927429199219 358.1531982421875 391.60772705078125 359.16497802734375 394.5758056640625 C 356.63946533203125 398.5455322265625 339.77825927734375 401.2705383300781 338.2719421386719 399.56964111328125 C 335.1358642578125 399.63580322265625 333.0548400878906 398.79052734375 331.82763671875 396.5372619628906 C 331.99334716796875 394.93994140625 330.74127197265625 393.4737243652344 332.24774169921875 390.5740966796875 C 332.72491455078125 384.85205078125 335.4371032714844 383.7988586425781 341.3814392089844 384.6556396484375" stroke-width="0.0" fill="url(#shape_59_fill)"/>
    <path d="M 458.490966796875 364.1270446777344 C 461.6305236816406 363.44012451171875 474.98394775390625 371.5422058105469 473.239990234375 374.5819091796875 C 471.8142395019531 376.2467041015625 470.33636474609375 376.8341369628906 463.72296142578125 375.8405456542969 C 458.9564208984375 376.6303405761719 456.86273193359375 377.15667724609375 452.6180725097656 370.6330871582031 C 453.4353332519531 370.1158142089844 459.4638366699219 369.0333557128906 458.490966796875 364.1270446777344" stroke-width="0.0" fill="url(#shape_60_fill)"/>
    <path d="M 428.19940185546875 432.30621337890625 C 439.9851379394531 434.2293395996094 442.389404296875 436.7110290527344 442.1148986816406 438.60662841796875 C 440.2660827636719 440.7408142089844 427.51055908203125 439.31939697265625 425.71502685546875 442.0080871582031 C 422.5373840332031 437.8926086425781 423.8946228027344 434.6949462890625 410.5096740722656 425.3698425292969 C 427.6103210449219 428.22509765625 428.9504699707031 431.62957763671875 428.19940185546875 432.30621337890625" stroke-width="0.0" fill="url(#shape_61_fill)"/>
    <path d="M 185.3942413330078 411.45233154296875 C 186.23727416992188 413.8905029296875 185.05104064941406 414.82061767578125 186.8351287841797 417.7336730957031 C 184.87733459472656 420.229248046875 183.3810272216797 419.4873352050781 182.53634643554688 419.7920227050781 C 180.8339385986328 421.6571350097656 174.47166442871094 420.1290283203125 171.75094604492188 419.9788818359375 C 169.60667419433594 417.57501220703125 169.78802490234375 415.6237487792969 175.29249572753906 412.14630126953125 C 176.72418212890625 413.63629150390625 180.25704956054688 410.4811706542969 185.3942413330078 411.45233154296875" stroke-width="0.0" fill="url(#shape_62_fill)"/>
    <path d="M 331.8554992675781 418.8952331542969 C 334.2471923828125 425.6294250488281 329.8571472167969 427.84027099609375 327.2150573730469 425.50238037109375 C 324.4816589355469 427.7302551269531 322.9541320800781 426.6805725097656 321.6993103027344 427.3299255371094 C 318.981201171875 425.9577941894531 320.056884765625 419.9471130371094 317.65045166015625 418.5217590332031 C 318.9677429199219 420.31268310546875 325.72967529296875 418.5379943847656 331.8554992675781 418.8952331542969" stroke-width="0.0" fill="url(#shape_63_fill)"/>
    <path d="M 55.617069244384766 274.35980224609375 C 56.68994903564453 269.46051025390625 64.40988159179688 270.7804870605469 63.17710494995117 278.8240051269531 C 59.75175476074219 278.6746826171875 54.343387603759766 272.329345703125 48.76598358154297 276.358154296875 C 51.36789321899414 273.8035583496094 52.85091781616211 273.35687255859375 55.617069244384766 274.35980224609375" stroke-width="0.0" fill="url(#shape_64_fill)"/>
    <path d="M 304.7054748535156 440.2210998535156 C 304.57720947265625 437.8388977050781 306.4794616699219 436.89886474609375 313.2184753417969 437.75006103515625 C 314.35516357421875 439.6692199707031 312.84130859375 441.05157470703125 310.81201171875 441.3118591308594 C 307.85955810546875 445.1669921875 306.4499206542969 444.19830322265625 305.2177429199219 443.8125915527344 C 302.5686950683594 441.7088317871094 303.3548583984375 440.3727722167969 304.7054748535156 440.2210998535156" stroke-width="0.0" fill="url(#shape_65_fill)"/>
    <path d="M -0.5776339173316956 -0.42760351300239563 C 224.74102783203125 -0.13979147374629974 444.1684875488281 0.3084562122821808 672.4140014648438 0.22994917631149292 C 673.3627319335938 155.8614959716797 674.7651977539062 296.019775390625 673.7559814453125 445.4716796875 C 450.0806884765625 446.3193054199219 230.08187866210938 446.31201171875 0.425363689661026 445.4933166503906 C 0.17833751440048218 297.2674560546875 -0.21671567857265472 149.51284790039062 -0.5776339173316956 -0.42760351300239563" stroke-width="0.0" fill="url(#shape_66_fill)"/>
    <path d="M -1.1353508234024048 -0.22809217870235443 C 222.82740783691406 -0.13514617085456848 442.9107666015625 0.39580658078193665 672.3383178710938 -0.2504088878631592 C 673.3883056640625 156.91177368164062 674.823974609375 295.6192321777344 673.3973999023438 445.39202880859375 C 450.3957824707031 446.3817443847656 230.16586303710938 446.3456726074219 0.43571916222572327 445.4297790527344 C 0.024324661120772362 297.63079833984375 -0.30132484436035156 149.18751525878906 -1.1353508234024048 -0.22809217870235443" stroke-width="0.0" fill="url(#shape_67_fill)"/>
    <path d="M -0.7389533519744873 -0.27716541290283203 C 223.47210693359375 -0.1891450434923172 441.6326599121094 0.5264512896537781 672.5396118164062 -0.32685086131095886 C 673.4929809570312 156.07147216796875 674.8234252929688 295.41510009765625 673.3862915039062 445.3912658691406 C 450.3918762207031 446.3829650878906 230.2139892578125 446.3441162109375 1.0900893211364746 445.40509033203125 C 0.4695560932159424 295.7658996582031 0.05333307385444641 148.59291076660156 -0.7389533519744873 -0.27716541290283203" stroke-width="0.0" fill="url(#shape_68_fill)"/>
  </g>
</svg>
