<?xml version="1.0" ?>
<svg xmlns="http://www.w3.org/2000/svg" version="1.1" width="674" height="446">
  <defs>
    <radialGradient id="shape_0_fill" cx="0.5371119105851261" cy="0.7437293219459431" r="0.27643494648466477">
      <stop offset="0.90236026" stop-color="rgb(177, 177, 0)" stop-opacity="0.9311842322349548"/>
      <stop offset="1.0" stop-color="rgb(44, 31, 0)" stop-opacity="1.0"/>
    </radialGradient>
    <radialGradient id="shape_1_fill" cx="0.5380970759632325" cy="0.7456666407563761" r="0.20582003268007001">
      <stop offset="0.617704" stop-color="rgb(99, 102, 60)" stop-opacity="0.8838875889778137"/>
      <stop offset="1.0" stop-color="rgb(17, 1, 0)" stop-opacity="0.6298271417617798"/>
    </radialGradient>
    <radialGradient id="shape_2_fill" cx="0.09792284866468842" cy="0.7376681614349776" r="0.22062588021026522">
      <stop offset="0.0" stop-color="rgb(30, 91, 183)" stop-opacity="0.9982528686523438"/>
      <stop offset="0.99539953" stop-color="rgb(9, 117, 255)" stop-opacity="0.9551600217819214"/>
    </radialGradient>
    <radialGradient id="shape_3_fill" cx="0.27544987166317" cy="0.21603786998800098" r="0.12686607745705444">
      <stop offset="0.38529962" stop-color="rgb(158, 220, 11)" stop-opacity="0.8612863421440125"/>
      <stop offset="1.0" stop-color="rgb(45, 47, 0)" stop-opacity="0.9874736070632935"/>
    </radialGradient>
    <radialGradient id="shape_4_fill" cx="0.1543026706231454" cy="0.9977578475336323" r="0.10288926755639141">
      <stop offset="0.0" stop-color="rgb(81, 79, 86)" stop-opacity="1.0"/>
      <stop offset="1.0" stop-color="rgb(105, 99, 109)" stop-opacity="0.8407870531082153"/>
    </radialGradient>
    <radialGradient id="shape_5_fill" cx="0.14807964290992442" cy="0.23997249517740155" r="0.11810664960821587">
      <stop offset="0.0" stop-color="rgb(255, 255, 255)" stop-opacity="0.6465811133384705"/>
      <stop offset="0.56268996" stop-color="rgb(255, 255, 255)" stop-opacity="0.6193038821220398"/>
    </radialGradient>
    <radialGradient id="shape_6_fill" cx="0.18397626112759644" cy="0.9977578475336323" r="0.0754974885934892">
      <stop offset="0.0" stop-color="rgb(93, 90, 94)" stop-opacity="1.0"/>
      <stop offset="1.0" stop-color="rgb(150, 124, 134)" stop-opacity="0.7406695485115051"/>
    </radialGradient>
    <radialGradient id="shape_7_fill" cx="0.2893175074183976" cy="0.05829596412556054" r="0.08666390552011372">
      <stop offset="0.0" stop-color="rgb(55, 66, 29)" stop-opacity="1.0"/>
      <stop offset="1.0" stop-color="rgb(78, 88, 21)" stop-opacity="0.8775912523269653"/>
    </radialGradient>
    <radialGradient id="shape_8_fill" cx="0.3382789091115889" cy="0.9439461883408071" r="0.06756690277190167">
      <stop offset="0.0" stop-color="rgb(91, 124, 45)" stop-opacity="1.0"/>
      <stop offset="1.0" stop-color="rgb(147, 194, 78)" stop-opacity="0.7429312467575073"/>
    </radialGradient>
    <radialGradient id="shape_9_fill" cx="0.30712166172106825" cy="0.9977578475336323" r="0.0730758406641929">
      <stop offset="0.0" stop-color="rgb(38, 48, 20)" stop-opacity="1.0"/>
      <stop offset="1.0" stop-color="rgb(19, 26, 16)" stop-opacity="0.9661770462989807"/>
    </radialGradient>
    <radialGradient id="shape_10_fill" cx="0.3056379821958457" cy="0.9977578475336323" r="0.06792919147615971">
      <stop offset="0.0" stop-color="rgb(39, 49, 21)" stop-opacity="1.0"/>
      <stop offset="1.0" stop-color="rgb(42, 36, 0)" stop-opacity="0.7186323404312134"/>
    </radialGradient>
    <radialGradient id="shape_11_fill" cx="0.21810089020771514" cy="0.968609865470852" r="0.06792919147615971">
      <stop offset="0.0" stop-color="rgb(138, 135, 129)" stop-opacity="1.0"/>
      <stop offset="1.0" stop-color="rgb(224, 190, 179)" stop-opacity="0.581404983997345"/>
    </radialGradient>
    <radialGradient id="shape_12_fill" cx="0.29080118694362017" cy="0.9977578475336323" r="0.07480746985189285">
      <stop offset="0.0" stop-color="rgb(22, 25, 13)" stop-opacity="1.0"/>
      <stop offset="1.0" stop-color="rgb(23, 17, 0)" stop-opacity="1.0"/>
    </radialGradient>
    <radialGradient id="shape_13_fill" cx="0.327893175074184" cy="0.8923766816143498" r="0.06900465877544279">
      <stop offset="0.0" stop-color="rgb(89, 117, 50)" stop-opacity="1.0"/>
      <stop offset="1.0" stop-color="rgb(131, 174, 38)" stop-opacity="0.8879585862159729"/>
    </radialGradient>
    <radialGradient id="shape_14_fill" cx="0.142433234421365" cy="0.9977578475336323" r="0.06617211022079875">
      <stop offset="0.0" stop-color="rgb(155, 150, 153)" stop-opacity="1.0"/>
      <stop offset="1.0" stop-color="rgb(255, 255, 255)" stop-opacity="0.41818490624427795"/>
    </radialGradient>
    <radialGradient id="shape_15_fill" cx="0.31008902077151335" cy="0.9977578475336323" r="0.06683642786405207">
      <stop offset="0.0" stop-color="rgb(43, 55, 23)" stop-opacity="1.0"/>
      <stop offset="1.0" stop-color="rgb(51, 61, 9)" stop-opacity="0.9603731632232666"/>
    </radialGradient>
    <radialGradient id="shape_16_fill" cx="0.27299703264094954" cy="0.9977578475336323" r="0.08110449363640579">
      <stop offset="0.0" stop-color="rgb(31, 35, 19)" stop-opacity="1.0"/>
      <stop offset="1.0" stop-color="rgb(30, 26, 0)" stop-opacity="1.0"/>
    </radialGradient>
    <radialGradient id="shape_17_fill" cx="0.2893175074183976" cy="0.9977578475336323" r="0.07513486030193747">
      <stop offset="0.0" stop-color="rgb(22, 23, 13)" stop-opacity="1.0"/>
      <stop offset="1.0" stop-color="rgb(0, 0, 0)" stop-opacity="0.5699395537376404"/>
    </radialGradient>
    <radialGradient id="shape_18_fill" cx="0.3293768545994065" cy="0.7556053811659192" r="0.06617211022079875">
      <stop offset="0.0" stop-color="rgb(83, 108, 65)" stop-opacity="1.0"/>
      <stop offset="1.0" stop-color="rgb(113, 146, 54)" stop-opacity="0.9162231683731079"/>
    </radialGradient>
    <radialGradient id="shape_19_fill" cx="0.3516320474777448" cy="0.9977578475336323" r="0.06617211022079875">
      <stop offset="0.0" stop-color="rgb(95, 135, 39)" stop-opacity="1.0"/>
      <stop offset="1.0" stop-color="rgb(154, 230, 14)" stop-opacity="0.8456205129623413"/>
    </radialGradient>
    <radialGradient id="shape_20_fill" cx="0.0830860534124629" cy="0.9977578475336323" r="0.06792919147615971">
      <stop offset="0.0" stop-color="rgb(49, 52, 66)" stop-opacity="1.0"/>
      <stop offset="1.0" stop-color="rgb(26, 25, 58)" stop-opacity="0.6554813981056213"/>
    </radialGradient>
    <radialGradient id="shape_21_fill" cx="0.29821958456973297" cy="0.9977578475336323" r="0.06792919147615971">
      <stop offset="0.0" stop-color="rgb(33, 40, 17)" stop-opacity="1.0"/>
      <stop offset="1.0" stop-color="rgb(25, 35, 0)" stop-opacity="0.6736505031585693"/>
    </radialGradient>
    <radialGradient id="shape_22_fill" cx="0.3564346947372844" cy="0.44366290857973656" r="0.06591666133891935">
      <stop offset="0.0" stop-color="rgb(224, 252, 0)" stop-opacity="0.631465494632721"/>
      <stop offset="0.43009582" stop-color="rgb(164, 206, 28)" stop-opacity="0.8975664973258972"/>
    </radialGradient>
    <radialGradient id="shape_23_fill" cx="0.6454005934718101" cy="0.1412556053811659" r="0.06617211022079875">
      <stop offset="0.0" stop-color="rgb(46, 38, 13)" stop-opacity="1.0"/>
      <stop offset="1.0" stop-color="rgb(48, 23, 0)" stop-opacity="0.7985771894454956"/>
    </radialGradient>
    <radialGradient id="shape_24_fill" cx="0.24925732258873098" cy="0.48430544592339897" r="0.06617138010811735">
      <stop offset="0.0" stop-color="rgb(201, 209, 206)" stop-opacity="1.0"/>
      <stop offset="0.97661805" stop-color="rgb(255, 255, 255)" stop-opacity="0.5343896746635437"/>
    </radialGradient>
    <radialGradient id="shape_25_fill" cx="0.6320474777448071" cy="0.9977578475336323" r="0.06617211022079875">
      <stop offset="0.0" stop-color="rgb(35, 28, 8)" stop-opacity="1.0"/>
      <stop offset="1.0" stop-color="rgb(32, 3, 0)" stop-opacity="0.6742362380027771"/>
    </radialGradient>
    <radialGradient id="shape_26_fill" cx="0.15414562281939678" cy="0.3207085442649944" r="0.06604732886973758">
      <stop offset="0.1194361" stop-color="rgb(198, 211, 155)" stop-opacity="1.0"/>
      <stop offset="0.5839483" stop-color="rgb(115, 115, 253)" stop-opacity="0.0"/>
    </radialGradient>
    <radialGradient id="shape_27_fill" cx="0.15410647972401242" cy="0.3208032787648017" r="0.06604505929465818">
      <stop offset="0.0" stop-color="rgb(192, 205, 0)" stop-opacity="1.0"/>
      <stop offset="0.49384904" stop-color="rgb(84, 78, 56)" stop-opacity="0.5817962288856506"/>
    </radialGradient>
    <radialGradient id="shape_28_fill" cx="0.04011082578483604" cy="0.020472870813891493" r="0.06704772473796539">
      <stop offset="0.04171562" stop-color="rgb(0, 11, 120)" stop-opacity="0.9574522972106934"/>
      <stop offset="0.78361684" stop-color="rgb(0, 24, 140)" stop-opacity="0.7585285902023315"/>
    </radialGradient>
    <radialGradient id="shape_29_fill" cx="0.33976258863681147" cy="0.6659192825112108" r="0.06617211022079875">
      <stop offset="0.0" stop-color="rgb(90, 117, 55)" stop-opacity="1.0"/>
      <stop offset="1.0" stop-color="rgb(124, 159, 33)" stop-opacity="0.9209786057472229"/>
    </radialGradient>
    <radialGradient id="shape_30_fill" cx="0.04081016619764379" cy="0.019248872594448484" r="0.06705115456963151">
      <stop offset="0.2921746" stop-color="rgb(45, 76, 56)" stop-opacity="0.8642133474349976"/>
      <stop offset="0.98613167" stop-color="rgb(32, 44, 49)" stop-opacity="0.7568532228469849"/>
    </radialGradient>
    <radialGradient id="shape_31_fill" cx="0.12314540059347182" cy="0.9977578475336323" r="0.06617211022079875">
      <stop offset="0.0" stop-color="rgb(95, 103, 98)" stop-opacity="1.0"/>
      <stop offset="1.0" stop-color="rgb(154, 141, 129)" stop-opacity="0.7371917366981506"/>
    </radialGradient>
    <radialGradient id="shape_32_fill" cx="0.4035608308605341" cy="0.984304932735426" r="0.06617211022079875">
      <stop offset="0.0" stop-color="rgb(126, 155, 63)" stop-opacity="1.0"/>
      <stop offset="1.0" stop-color="rgb(189, 158, 33)" stop-opacity="0.9522417187690735"/>
    </radialGradient>
    <radialGradient id="shape_33_fill" cx="0.3249258160237389" cy="0.6053811659192825" r="0.06617211022079875">
      <stop offset="0.0" stop-color="rgb(93, 124, 71)" stop-opacity="1.0"/>
      <stop offset="1.0" stop-color="rgb(127, 160, 39)" stop-opacity="0.9316491484642029"/>
    </radialGradient>
    <radialGradient id="shape_34_fill" cx="0.6468842729970327" cy="0.531390134529148" r="0.06617211022079875">
      <stop offset="0.0" stop-color="rgb(54, 47, 24)" stop-opacity="1.0"/>
      <stop offset="1.0" stop-color="rgb(68, 38, 4)" stop-opacity="0.7179709672927856"/>
    </radialGradient>
    <radialGradient id="shape_35_fill" cx="0.14301238923115264" cy="0.23513994088621953" r="0.06655661359385143">
      <stop offset="0.0" stop-color="rgb(133, 216, 31)" stop-opacity="0.26852482557296753"/>
      <stop offset="0.50231934" stop-color="rgb(156, 148, 82)" stop-opacity="0.5063801407814026"/>
    </radialGradient>
    <radialGradient id="shape_36_fill" cx="0.2878338278931751" cy="0.9977578475336323" r="0.06617211022079875">
      <stop offset="0.0" stop-color="rgb(80, 96, 53)" stop-opacity="1.0"/>
      <stop offset="1.0" stop-color="rgb(69, 70, 37)" stop-opacity="0.952049970626831"/>
    </radialGradient>
    <radialGradient id="shape_37_fill" cx="0.129080118694362" cy="0.9977578475336323" r="0.06617211022079875">
      <stop offset="0.0" stop-color="rgb(87, 97, 81)" stop-opacity="1.0"/>
      <stop offset="1.0" stop-color="rgb(107, 118, 90)" stop-opacity="0.8022186756134033"/>
    </radialGradient>
    <radialGradient id="shape_38_fill" cx="0.3389230609293861" cy="0.5607740119968294" r="0.0666786386280456">
      <stop offset="0.74939835" stop-color="rgb(86, 124, 12)" stop-opacity="0.8991333246231079"/>
      <stop offset="0.6029748" stop-color="rgb(179, 255, 56)" stop-opacity="0.8089981079101562"/>
    </radialGradient>
    <radialGradient id="shape_39_fill" cx="0.40059347181008903" cy="0.9641255605381166" r="0.06617211022079875">
      <stop offset="0.0" stop-color="rgb(138, 168, 60)" stop-opacity="1.0"/>
      <stop offset="1.0" stop-color="rgb(234, 255, 78)" stop-opacity="1.0"/>
    </radialGradient>
    <radialGradient id="shape_40_fill" cx="0.6167216767896885" cy="0.8827490699665429" r="0.06655876997316626">
      <stop offset="0.39824364" stop-color="rgb(106, 82, 85)" stop-opacity="0.5780256390571594"/>
      <stop offset="0.45159268" stop-color="rgb(0, 0, 58)" stop-opacity="1.0"/>
    </radialGradient>
    <radialGradient id="shape_41_fill" cx="0.6454005934718101" cy="0.08744394618834081" r="0.06617211022079875">
      <stop offset="0.0" stop-color="rgb(58, 48, 21)" stop-opacity="1.0"/>
      <stop offset="1.0" stop-color="rgb(90, 58, 1)" stop-opacity="0.9468574523925781"/>
    </radialGradient>
    <radialGradient id="shape_42_fill" cx="0.5845697329376854" cy="0.6188340807174888" r="0.06617211022079875">
      <stop offset="0.0" stop-color="rgb(62, 59, 56)" stop-opacity="1.0"/>
      <stop offset="1.0" stop-color="rgb(33, 29, 68)" stop-opacity="0.7517867088317871"/>
    </radialGradient>
    <radialGradient id="shape_43_fill" cx="0.35715158615338694" cy="0.5053672619464686" r="0.06680351619550666">
      <stop offset="0.21544822" stop-color="rgb(128, 173, 54)" stop-opacity="0.9845197200775146"/>
      <stop offset="0.48475412" stop-color="rgb(206, 255, 21)" stop-opacity="0.8676584959030151"/>
    </radialGradient>
    <radialGradient id="shape_44_fill" cx="0.5934718100890207" cy="0.9977578475336323" r="0.06617211022079875">
      <stop offset="0.0" stop-color="rgb(89, 61, 18)" stop-opacity="1.0"/>
      <stop offset="1.0" stop-color="rgb(182, 78, 0)" stop-opacity="0.7325791716575623"/>
    </radialGradient>
    <radialGradient id="shape_45_fill" cx="0.612759643916914" cy="0.04035874439461883" r="0.06617211022079875">
      <stop offset="0.0" stop-color="rgb(157, 136, 123)" stop-opacity="1.0"/>
      <stop offset="1.0" stop-color="rgb(255, 232, 210)" stop-opacity="1.0"/>
    </radialGradient>
    <radialGradient id="shape_46_fill" cx="0.28635014836795253" cy="0.9977578475336323" r="0.06617211022079875">
      <stop offset="0.0" stop-color="rgb(82, 99, 55)" stop-opacity="1.0"/>
      <stop offset="1.0" stop-color="rgb(110, 123, 27)" stop-opacity="0.5026689171791077"/>
    </radialGradient>
    <radialGradient id="shape_47_fill" cx="0.28635014836795253" cy="0.8183856502242153" r="0.06617211022079875">
      <stop offset="0.0" stop-color="rgb(166, 189, 197)" stop-opacity="1.0"/>
      <stop offset="1.0" stop-color="rgb(255, 255, 255)" stop-opacity="0.4531441032886505"/>
    </radialGradient>
    <radialGradient id="shape_48_fill" cx="0.40801186943620177" cy="0.9977578475336323" r="0.06617211022079875">
      <stop offset="0.0" stop-color="rgb(107, 135, 68)" stop-opacity="1.0"/>
      <stop offset="1.0" stop-color="rgb(139, 156, 53)" stop-opacity="1.0"/>
    </radialGradient>
    <radialGradient id="shape_49_fill" cx="0.19287833827893175" cy="0.3991031390134529" r="0.06617211022079875">
      <stop offset="0.0" stop-color="rgb(92, 100, 54)" stop-opacity="1.0"/>
      <stop offset="1.0" stop-color="rgb(116, 103, 40)" stop-opacity="0.642344057559967"/>
    </radialGradient>
    <radialGradient id="shape_50_fill" cx="0.6439169139465876" cy="0.7376681614349776" r="0.06617211022079875">
      <stop offset="0.0" stop-color="rgb(65, 56, 25)" stop-opacity="1.0"/>
      <stop offset="1.0" stop-color="rgb(152, 190, 38)" stop-opacity="0.434662789106369"/>
    </radialGradient>
    <radialGradient id="shape_51_fill" cx="0.5845697329376854" cy="0.6322869955156951" r="0.06617211022079875">
      <stop offset="0.0" stop-color="rgb(75, 68, 60)" stop-opacity="1.0"/>
      <stop offset="1.0" stop-color="rgb(132, 103, 85)" stop-opacity="0.8401364684104919"/>
    </radialGradient>
    <radialGradient id="shape_52_fill" cx="0.2997032640949555" cy="0.6031390134529148" r="0.06617211022079875">
      <stop offset="0.0" stop-color="rgb(107, 158, 118)" stop-opacity="1.0"/>
      <stop offset="1.0" stop-color="rgb(191, 255, 206)" stop-opacity="0.8111104369163513"/>
    </radialGradient>
    <radialGradient id="shape_53_fill" cx="0.6097922848664689" cy="0.45067264573991034" r="0.06617211022079875">
      <stop offset="0.0" stop-color="rgb(38, 39, 27)" stop-opacity="1.0"/>
      <stop offset="1.0" stop-color="rgb(5, 0, 11)" stop-opacity="0.6146767139434814"/>
    </radialGradient>
    <radialGradient id="shape_54_fill" cx="0.6335311572700296" cy="0.426009002822397" r="0.06617211022079875">
      <stop offset="0.0" stop-color="rgb(67, 49, 20)" stop-opacity="1.0"/>
      <stop offset="1.0" stop-color="rgb(112, 55, 0)" stop-opacity="0.8066771030426025"/>
    </radialGradient>
    <radialGradient id="shape_55_fill" cx="0.37070446976568294" cy="0.5988573151319017" r="0.0659991867110708">
      <stop offset="0.40766418" stop-color="rgb(239, 255, 36)" stop-opacity="0.8072518706321716"/>
      <stop offset="0.17564179" stop-color="rgb(208, 255, 6)" stop-opacity="0.7983120083808899"/>
    </radialGradient>
    <radialGradient id="shape_56_fill" cx="0.5489614243323442" cy="0.600896860986547" r="0.06617211022079875">
      <stop offset="0.0" stop-color="rgb(50, 62, 80)" stop-opacity="1.0"/>
      <stop offset="1.0" stop-color="rgb(27, 59, 161)" stop-opacity="0.6241703033447266"/>
    </radialGradient>
    <radialGradient id="shape_57_fill" cx="0.4094955489614243" cy="0.9035874439461884" r="0.06617211022079875">
      <stop offset="0.0" stop-color="rgb(111, 144, 47)" stop-opacity="1.0"/>
      <stop offset="1.0" stop-color="rgb(184, 213, 32)" stop-opacity="0.8756429553031921"/>
    </radialGradient>
    <radialGradient id="shape_58_fill" cx="0.5281899109792285" cy="0.9977578475336323" r="0.06617211022079875">
      <stop offset="0.0" stop-color="rgb(50, 43, 14)" stop-opacity="1.0"/>
      <stop offset="1.0" stop-color="rgb(66, 41, 0)" stop-opacity="0.9967882037162781"/>
    </radialGradient>
    <radialGradient id="shape_59_fill" cx="0.5845697329376854" cy="0.7690582959641256" r="0.06617211022079875">
      <stop offset="0.0" stop-color="rgb(61, 63, 58)" stop-opacity="1.0"/>
      <stop offset="1.0" stop-color="rgb(68, 69, 97)" stop-opacity="0.7278538942337036"/>
    </radialGradient>
    <radialGradient id="shape_60_fill" cx="0.5489614243323442" cy="0.9977578475336323" r="0.06617211022079875">
      <stop offset="0.0" stop-color="rgb(140, 131, 64)" stop-opacity="1.0"/>
      <stop offset="1.0" stop-color="rgb(248, 218, 83)" stop-opacity="0.9401556849479675"/>
    </radialGradient>
    <radialGradient id="shape_61_fill" cx="0.6468607735563102" cy="0.9686186923039868" r="0.06617815487462618">
      <stop offset="0.3756945" stop-color="rgb(255, 255, 0)" stop-opacity="1.0"/>
      <stop offset="1.0" stop-color="rgb(255, 221, 0)" stop-opacity="1.0"/>
    </radialGradient>
    <radialGradient id="shape_62_fill" cx="0.615727002967359" cy="0.3991031390134529" r="0.06617211022079875">
      <stop offset="0.0" stop-color="rgb(55, 47, 13)" stop-opacity="1.0"/>
      <stop offset="1.0" stop-color="rgb(75, 48, 0)" stop-opacity="0.9747670888900757"/>
    </radialGradient>
    <radialGradient id="shape_63_fill" cx="0.6261127596439169" cy="0.7286995515695067" r="0.06617211022079875">
      <stop offset="0.0" stop-color="rgb(79, 66, 32)" stop-opacity="1.0"/>
      <stop offset="1.0" stop-color="rgb(211, 227, 84)" stop-opacity="0.7063964009284973"/>
    </radialGradient>
    <radialGradient id="shape_64_fill" cx="0.40801186943620177" cy="0.12556053811659193" r="0.06617211022079875">
      <stop offset="0.0" stop-color="rgb(76, 66, 59)" stop-opacity="1.0"/>
      <stop offset="1.0" stop-color="rgb(98, 68, 62)" stop-opacity="1.0"/>
    </radialGradient>
    <radialGradient id="shape_65_fill" cx="0.6528189910979229" cy="0.6883408071748879" r="0.06617211022079875">
      <stop offset="0.0" stop-color="rgb(121, 97, 39)" stop-opacity="1.0"/>
      <stop offset="1.0" stop-color="rgb(255, 255, 85)" stop-opacity="1.0"/>
    </radialGradient>
    <radialGradient id="shape_66_fill" cx="0.6507948244360858" cy="0.46079469689339264" r="0.06787333502613827">
      <stop offset="0.36869413" stop-color="rgb(147, 183, 79)" stop-opacity="0.39893627166748047"/>
      <stop offset="0.9668756" stop-color="rgb(0, 0, 0)" stop-opacity="0.06230200082063675"/>
    </radialGradient>
    <radialGradient id="shape_67_fill" cx="0.5941034424552578" cy="0.9954338586918442" r="0.06829895110087862">
      <stop offset="0.92055523" stop-color="rgb(51, 27, 0)" stop-opacity="0.7795593738555908"/>
      <stop offset="1.0" stop-color="rgb(0, 0, 0)" stop-opacity="0.16546688973903656"/>
    </radialGradient>
    <radialGradient id="shape_68_fill" cx="0.48852136085578174" cy="0.9963480859593961" r="0.06748138903156586">
      <stop offset="0.43437675" stop-color="rgb(52, 33, 21)" stop-opacity="0.7165438532829285"/>
      <stop offset="1.0" stop-color="rgb(50, 69, 61)" stop-opacity="0.3276809751987457"/>
    </radialGradient>
  </defs>
  <g>
    <path d="M -0.2661680579185486 271.21710205078125 C 25.767316818237305 270.3701171875 34.723636627197266 271.31634521484375 44.8950080871582 273.2485046386719 C 48.08351135253906 274.8013916015625 49.36436462402344 276.6055603027344 57.10798263549805 274.5392761230469 C 60.487266540527344 273.79925537109375 63.88057327270508 274.5606689453125 64.78169250488281 273.3962707519531 C 71.70328521728516 271.0594787597656 101.52777099609375 271.5055847167969 115.47449493408203 271.7640686035156 C 118.90396118164062 274.11651611328125 126.88247680664062 278.4550476074219 125.8574447631836 282.75653076171875 C 133.8737030029297 282.1846618652344 140.32443237304688 281.31591796875 146.9759521484375 284.6061706542969 C 185.26324462890625 281.9136657714844 185.7556610107422 282.517578125 206.47344970703125 286.8377990722656 C 199.96200561523438 288.3145446777344 198.11337280273438 283.5403137207031 214.9563446044922 274.4696044921875 C 241.3684539794922 275.8311767578125 284.32159423828125 275.0240783691406 308.178466796875 280.3078918457031 C 341.0921630859375 282.2813720703125 417.38909912109375 282.0426940917969 460.3525695800781 279.5958251953125 C 487.30059814453125 278.9114685058594 536.4053955078125 280.54290771484375 540.2205200195312 286.07470703125 C 549.263427734375 286.1548156738281 550.7339477539062 281.40106201171875 563.5076904296875 278.4843444824219 C 575.3847045898438 281.9102478027344 612.0333862304688 284.8202819824219 612.8047485351562 285.5728759765625 C 634.3367919921875 278.511474609375 644.3449096679688 279.10882568359375 663.6259765625 279.0621643066406 C 668.7841796875 279.7430725097656 674.46533203125 284.0901184082031 676.2486572265625 288.2095031738281 C 676.1139526367188 339.197998046875 675.1390991210938 391.81494140625 675.1053466796875 446.4411315917969 C 451.9080810546875 446.6502380371094 228.99197387695312 446.7899169921875 -0.4567393362522125 446.3998718261719 C -0.4136357605457306 389.145751953125 0.27222225069999695 332.36083984375 -0.2661680579185486 271.21710205078125" stroke-width="0.0" fill="url(#shape_0_fill)"/>
    <path d="M -0.04567014053463936 271.50836181640625 C 35.933231353759766 275.3992919921875 36.5576057434082 274.5904235839844 44.476619720458984 275.9320373535156 C 52.873050689697266 271.3776550292969 64.45503234863281 270.14703369140625 77.53284454345703 271.4039306640625 C 113.46435546875 278.68035888671875 114.016845703125 279.3109130859375 127.08757781982422 278.8105773925781 C 127.19854736328125 276.6654357910156 150.68272399902344 276.4102478027344 154.02406311035156 275.3252868652344 C 185.0676727294922 274.5212097167969 185.65396118164062 276.0308837890625 200.96690368652344 278.0296630859375 C 203.53082275390625 291.5672912597656 205.61160278320312 291.4513244628906 221.9551239013672 291.8031311035156 C 222.70631408691406 290.6183166503906 274.8788757324219 292.3954772949219 295.4845275878906 293.7503662109375 C 327.361328125 295.62054443359375 447.447509765625 293.5560302734375 452.794677734375 293.68145751953125 C 471.1020812988281 290.1377258300781 487.786376953125 291.4317932128906 505.78363037109375 288.32867431640625 C 509.4921875 287.46893310546875 517.9501953125 286.1484680175781 522.8260498046875 286.4245300292969 C 527.5250244140625 285.6726989746094 531.878173828125 285.8719787597656 535.122314453125 287.0144958496094 C 543.7276611328125 286.7522888183594 550.9845581054688 287.88140869140625 558.0160522460938 292.0337829589844 C 571.1196899414062 287.3315734863281 579.3233642578125 288.6635437011719 587.6575317382812 290.35443115234375 C 606.2581787109375 288.6990661621094 619.44873046875 287.8643798828125 632.6309204101562 288.3145751953125 C 645.4749145507812 282.06396484375 656.3115234375 287.6685485839844 673.6436767578125 289.5437316894531 C 673.7984619140625 340.8731384277344 674.408447265625 392.3032531738281 674.1442260742188 446.2807922363281 C 451.4774169921875 446.3905334472656 229.19664001464844 446.25439453125 -0.3076552748680115 446.2476501464844 C -0.2135784775018692 389.4035949707031 -0.2940083146095276 333.0278625488281 -0.04567014053463936 271.50836181640625" stroke-width="0.0" fill="url(#shape_1_fill)"/>
    <path d="M -0.01262663397938013 -0.2598911225795746 C 219.69313049316406 0.10403546690940857 439.478759765625 -0.4524145722389221 670.9560546875 -0.2741612195968628 C 663.5457153320312 9.000383377075195 645.7586669921875 36.66621780395508 636.8322143554688 46.95851135253906 C 634.0895385742188 53.19649887084961 611.2025756835938 94.26956176757812 585.5448608398438 84.26264953613281 C 578.229736328125 81.37604522705078 559.4164428710938 70.81897735595703 533.080078125 73.81757354736328 C 531.6151123046875 75.28953552246094 524.8092041015625 77.12417602539062 522.6190185546875 72.00352478027344 C 522.6135864257812 68.79371643066406 499.6900939941406 63.60667037963867 499.8669738769531 62.46913528442383 C 492.7555236816406 62.109615325927734 487.3845520019531 61.052215576171875 483.4043884277344 68.53276824951172 C 474.7660827636719 70.76178741455078 475.64715576171875 74.24378967285156 476.2140197753906 80.063232421875 C 479.94586181640625 93.47883605957031 470.28619384765625 109.7937240600586 466.0654296875 114.29896545410156 C 460.4804382324219 115.50887298583984 454.8414611816406 113.2282943725586 452.2153015136719 108.8203125 C 435.826416015625 107.3021469116211 411.6054382324219 102.5933837890625 410.72882080078125 104.85150909423828 C 409.4592590332031 118.70640563964844 409.13018798828125 123.20301818847656 405.44677734375 129.51519775390625 C 403.1864929199219 137.1546630859375 394.84161376953125 137.80580139160156 390.1450500488281 138.01104736328125 C 380.96044921875 143.22596740722656 375.18353271484375 158.52818298339844 371.3103332519531 157.5802001953125 C 370.4973449707031 163.12820434570312 369.2380676269531 167.12828063964844 365.55010986328125 171.52357482910156 C 363.32757568359375 173.97512817382812 360.062255859375 173.18919372558594 352.7271423339844 178.41539001464844 C 346.0167236328125 186.13150024414062 336.40216064453125 177.7894744873047 328.68975830078125 174.69338989257812 C 308.37530517578125 174.85891723632812 307.73028564453125 181.30160522460938 305.9820861816406 184.15142822265625 C 305.32269287109375 189.48660278320312 303.8748474121094 192.89373779296875 307.6007080078125 201.28831481933594 C 307.24664306640625 200.92962646484375 306.03143310546875 198.6000213623047 305.853271484375 192.19525146484375 C 303.73516845703125 190.34902954101562 298.91162109375 190.7048797607422 286.2727355957031 185.3731231689453 C 290.3052978515625 194.22604370117188 289.63702392578125 195.99632263183594 289.33447265625 196.33314514160156 C 287.4835205078125 190.8424835205078 286.2037353515625 185.4790496826172 284.37359619140625 184.51156616210938 C 273.1668395996094 186.38352966308594 271.32147216796875 189.48387145996094 265.6956481933594 186.44061279296875 C 259.22308349609375 187.09271240234375 259.3511047363281 191.25131225585938 258.8835144042969 197.66773986816406 C 261.1081848144531 199.2492218017578 260.4540710449219 200.4011993408203 257.7680969238281 199.67477416992188 C 256.9405822753906 199.7492218017578 251.54920959472656 198.26707458496094 252.01409912109375 195.11904907226562 C 252.7367706298828 190.03457641601562 253.54855346679688 187.4852752685547 250.00808715820312 175.24404907226562 C 253.65158081054688 169.68324279785156 216.19906616210938 141.9726104736328 214.39990234375 139.58538818359375 C 184.66812133789062 125.6253433227539 195.54661560058594 101.89215087890625 191.95223999023438 88.54855346679688 C 193.2740020751953 83.4498062133789 157.6058807373047 72.91215515136719 142.1382293701172 64.73784637451172 C 116.57276153564453 38.91781997680664 68.16679382324219 54.28768539428711 36.055397033691406 62.20652770996094 C 16.945098876953125 69.94013214111328 11.316142082214355 69.19954681396484 -0.5038613080978394 69.67998504638672 C 0.3417045772075653 43.95867919921875 -0.33150991797447205 22.562036514282227 -0.01262663397938013 -0.2598911225795746" stroke-width="0.0" fill="url(#shape_2_fill)"/>
    <path d="M 86.37632751464844 66.49508666992188 C 88.47747802734375 69.08641815185547 92.55492401123047 68.51506805419922 93.73615264892578 69.29829406738281 C 90.7467269897461 79.10787963867188 91.40007781982422 81.64456176757812 91.14669036865234 86.7907943725586 C 95.9032211303711 84.33587646484375 97.49330139160156 87.2333984375 102.85868072509766 88.59709930419922 C 104.4797592163086 75.65818786621094 105.61335754394531 73.2887191772461 108.8451919555664 73.87171936035156 C 111.78028869628906 87.62606811523438 111.6106948852539 93.8137435913086 116.11632537841797 99.45712280273438 C 116.7026138305664 100.06832122802734 116.48391723632812 108.53229522705078 115.55547332763672 115.66010284423828 C 124.8263168334961 115.02143096923828 128.76754760742188 115.09888458251953 129.58660888671875 113.59205627441406 C 129.92649841308594 108.70075988769531 136.342041015625 107.1493911743164 136.46417236328125 104.49752044677734 C 136.60162353515625 103.6912841796875 135.5317840576172 101.79582214355469 137.02284240722656 98.03012084960938 C 136.45318603515625 93.25516510009766 137.47044372558594 92.87460327148438 137.2156524658203 89.00753784179688 C 137.28089904785156 84.87472534179688 138.61558532714844 84.76692199707031 139.11534118652344 85.8519515991211 C 139.7565460205078 82.18183898925781 146.62554931640625 80.68671417236328 147.9053497314453 83.6451416015625 C 147.74636840820312 90.1566162109375 150.7798309326172 95.53202056884766 152.01107788085938 98.99100494384766 C 153.4263916015625 103.05033111572266 149.92945861816406 106.89444732666016 148.8177947998047 106.67974853515625 C 152.81431579589844 109.9964599609375 150.73497009277344 114.20585632324219 148.634033203125 113.49495697021484 C 154.83909606933594 112.72084045410156 158.1404571533203 122.54263305664062 157.84649658203125 123.0944595336914 C 161.73361206054688 124.76910400390625 164.8778839111328 123.37091827392578 169.77174377441406 122.8124771118164 C 174.66055297851562 119.51509857177734 175.53790283203125 121.59700012207031 177.677978515625 122.52137756347656 C 179.3233642578125 122.68035125732422 179.91586303710938 125.47866821289062 182.58103942871094 127.80659484863281 C 183.81539916992188 130.22669982910156 182.37869262695312 133.14141845703125 183.2902069091797 135.5817413330078 C 185.97738647460938 135.65492248535156 187.90745544433594 142.80906677246094 188.71322631835938 145.4926300048828 C 194.01791381835938 144.9575653076172 205.1317138671875 156.4513397216797 201.87005615234375 173.668701171875 C 205.4765625 174.40882873535156 205.1086883544922 178.15121459960938 205.526123046875 183.09324645996094 C 212.11614990234375 181.92100524902344 215.25502014160156 198.91302490234375 212.3539581298828 205.11587524414062 C 207.4764404296875 207.09303283691406 203.4427032470703 208.03945922851562 203.12969970703125 210.2856903076172 C 200.7975616455078 210.53530883789062 199.9191131591797 211.6910858154297 200.27781677246094 213.63323974609375 C 195.712890625 215.45452880859375 193.49497985839844 215.1007080078125 192.24920654296875 219.3741455078125 C 184.28875732421875 221.0577850341797 183.60946655273438 224.79771423339844 178.92820739746094 230.4305419921875 C 176.20736694335938 233.61758422851562 179.6011962890625 239.761962890625 180.88096618652344 243.80255126953125 C 182.2723388671875 252.10462951660156 186.13209533691406 260.2824401855469 178.48545837402344 265.1075134277344 C 174.1428985595703 268.0531311035156 147.4198455810547 267.31036376953125 137.2472381591797 270.1515808105469 C 129.19186401367188 268.5465393066406 125.58589172363281 270.4513244628906 118.63567352294922 273.247314453125 C 108.99613952636719 276.94744873046875 73.13658142089844 276.1153259277344 73.22784423828125 269.8904113769531 C 47.652557373046875 266.72650146484375 56.51111602783203 268.5523376464844 57.111053466796875 273.6585998535156 C 46.98456573486328 277.0440673828125 0.5670129060745239 273.99749755859375 0.5675052404403687 269.63714599609375 C -3.8278119564056396 220.76589965820312 -2.9866063594818115 167.46902465820312 -1.679467797279358 116.69635772705078 C 11.063701629638672 118.36593627929688 19.874061584472656 115.75621795654297 26.558473587036133 123.38042449951172 C 30.24294662475586 127.3544921875 36.51799392700195 128.22296142578125 41.61363220214844 131.7367401123047 C 47.02433776855469 131.3469696044922 47.27991485595703 134.7581787109375 49.39836502075195 141.28585815429688 C 50.589115142822266 145.64410400390625 61.81972122192383 147.0308837890625 62.61918640136719 145.45516967773438 C 62.10627746582031 136.72024536132812 63.023223876953125 133.8387451171875 62.757102966308594 128.36268615722656 C 68.61077880859375 126.60601043701172 67.5548324584961 122.29147338867188 66.47906494140625 112.45233154296875 C 68.00257873535156 111.17598724365234 68.33781433105469 105.89222717285156 75.580322265625 104.18241882324219 C 74.79266357421875 101.11219024658203 78.13290405273438 89.58837890625 77.27831268310547 85.35611724853516 C 77.59977722167969 84.14054870605469 78.81366729736328 73.9144515991211 85.33263397216797 74.61479187011719 C 82.78076171875 70.2317886352539 84.89148712158203 67.67588806152344 86.37632751464844 66.49508666992188" stroke-width="0.0" fill="url(#shape_3_fill)"/>
    <path d="M 674.5142211914062 -0.1836334466934204 C 676.0758056640625 47.85950469970703 675.0091552734375 95.9118881225586 678.1217651367188 141.68701171875 C 672.2507934570312 133.086181640625 665.907470703125 126.76293182373047 661.6255493164062 120.33026123046875 C 660.9901733398438 119.90567779541016 655.1638793945312 109.3599853515625 649.5162353515625 110.91387939453125 C 648.5199584960938 112.51042938232422 644.3991088867188 148.22410583496094 641.4910888671875 154.146484375 C 630.9464721679688 154.3794403076172 627.1552124023438 142.18972778320312 627.621337890625 138.18544006347656 C 622.9949951171875 137.3555145263672 618.7575073242188 145.2834014892578 615.4219970703125 143.89239501953125 C 611.6795043945312 142.31610107421875 610.1527709960938 143.36097717285156 607.7259521484375 141.1241455078125 C 607.2476806640625 137.18997192382812 609.36181640625 132.12147521972656 606.9291381835938 122.91868591308594 C 598.0126953125 133.47840881347656 597.4734497070312 139.25537109375 594.967041015625 143.35487365722656 C 598.2708129882812 147.63589477539062 596.6251220703125 150.79190063476562 596.904052734375 153.10350036621094 C 588.3229370117188 156.57119750976562 587.0584716796875 163.90072631835938 580.0977783203125 171.72085571289062 C 571.4468383789062 170.34304809570312 569.697265625 160.44349670410156 569.0075073242188 157.39183044433594 C 566.2561645507812 157.22520446777344 564.1705932617188 153.11355590820312 561.5194702148438 152.91355895996094 C 560.02783203125 150.8553466796875 555.3170776367188 150.59703063964844 554.5692749023438 156.3554229736328 C 551.568115234375 155.79945373535156 550.7509155273438 159.13330078125 548.9710083007812 159.49476623535156 C 546.8856811523438 157.7298583984375 542.8120727539062 158.7178955078125 535.989013671875 154.25367736816406 C 531.751708984375 154.8023223876953 529.9263916015625 158.24972534179688 524.049560546875 157.6242218017578 C 518.098876953125 161.1087188720703 520.8504028320312 161.4971160888672 522.726806640625 169.9811248779297 C 517.5191040039062 169.86317443847656 515.8387451171875 166.57489013671875 516.5576171875 171.07154846191406 C 511.2598571777344 173.3225860595703 509.8330993652344 175.2651824951172 505.6246337890625 174.39865112304688 C 502.85504150390625 171.36172485351562 502.9501037597656 169.55023193359375 501.3941345214844 162.359130859375 C 494.9291687011719 146.86167907714844 508.96044921875 122.80181884765625 519.0442504882812 126.02469635009766 C 522.76318359375 124.13031005859375 538.016845703125 110.83052825927734 548.4883422851562 112.7607650756836 C 558.0477294921875 110.51941680908203 556.349609375 109.58596801757812 556.2584838867188 106.03172302246094 C 560.6736450195312 108.30828857421875 564.6632080078125 102.90370178222656 571.2409057617188 105.104736328125 C 574.6465454101562 102.62779235839844 573.427490234375 97.47535705566406 578.879638671875 94.1374282836914 C 581.3240356445312 88.04874420166016 600.337646484375 77.4938735961914 614.1873168945312 78.53304290771484 C 617.5960083007812 74.16922760009766 645.8547973632812 52.909149169921875 644.2743530273438 35.39552307128906 C 644.95703125 32.43120574951172 647.9871826171875 30.381053924560547 647.6207885742188 29.5135440826416 C 646.8516845703125 28.265966415405273 664.3145141601562 -3.5616519451141357 674.5142211914062 -0.1836334466934204" stroke-width="0.0" fill="url(#shape_4_fill)"/>
    <path d="M 151.61109924316406 68.54729461669922 C 152.3214111328125 68.99161529541016 186.47189331054688 83.80059051513672 192.78671264648438 92.44895935058594 C 179.37855529785156 116.65934753417969 217.18038940429688 150.59873962402344 221.2860870361328 154.48309326171875 C 238.0572509765625 170.520751953125 241.32464599609375 185.04441833496094 240.9904022216797 193.79153442382812 C 238.15145874023438 193.24293518066406 236.24378967285156 186.2830810546875 236.76791381835938 184.05245971679688 C 235.67445373535156 183.60147094726562 234.1590576171875 184.28257751464844 231.0982208251953 182.7419891357422 C 232.3353271484375 183.59512329101562 231.5937042236328 192.91505432128906 228.5972137451172 195.6811981201172 C 227.55987548828125 196.61911010742188 226.77073669433594 205.1532745361328 221.5765838623047 207.75160217285156 C 215.05003356933594 206.60665893554688 214.28846740722656 197.97622680664062 214.66184997558594 194.86129760742188 C 212.9606170654297 185.43504333496094 211.8980712890625 184.94125366210938 206.3596954345703 177.5548858642578 C 205.54783630371094 172.75244140625 205.72357177734375 164.86822509765625 205.50193786621094 159.0588836669922 C 206.37936401367188 153.9892578125 195.62095642089844 143.9410400390625 192.75148010253906 141.74014282226562 C 189.04513549804688 140.3075408935547 188.73928833007812 137.88345336914062 186.34275817871094 135.73423767089844 C 178.5362091064453 132.94256591796875 179.84507751464844 126.30778503417969 182.74139404296875 117.544189453125 C 179.20364379882812 116.36775970458984 177.592041015625 117.69988250732422 173.29188537597656 117.9002914428711 C 179.2437744140625 128.34963989257812 174.38351440429688 131.3091278076172 151.55686950683594 130.46292114257812 C 150.278564453125 125.11290740966797 151.11611938476562 103.13392639160156 153.58837890625 96.12117004394531 C 152.86849975585938 88.70011138916016 153.6677703857422 83.43061828613281 150.101806640625 76.32299041748047 C 148.41946411132812 75.92782592773438 149.03848266601562 69.3297348022461 151.61109924316406 68.54729461669922" stroke-width="0.0" fill="url(#shape_5_fill)"/>
    <path d="M 613.2342529296875 83.45040893554688 C 618.588134765625 84.18937683105469 619.6232299804688 85.8595962524414 630.7923583984375 85.46659088134766 C 636.73974609375 85.9828872680664 636.796142578125 87.75887298583984 641.2544555664062 87.8758544921875 C 642.149169921875 87.54460906982422 668.8252563476562 92.03648376464844 673.5599365234375 98.20426940917969 C 673.79736328125 112.79216766357422 673.7084350585938 129.5154571533203 673.8270263671875 147.20884704589844 C 666.853271484375 141.54464721679688 662.9515991210938 136.50079345703125 659.6265869140625 129.8895721435547 C 659.400390625 121.97110748291016 660.114013671875 116.0815658569336 652.640625 111.31024169921875 C 647.7693481445312 116.63214111328125 645.0630493164062 142.35479736328125 642.2062377929688 143.1753387451172 C 643.6757202148438 145.32908630371094 641.784423828125 148.91909790039062 642.31298828125 149.91285705566406 C 639.818359375 151.3103790283203 638.02783203125 152.29107666015625 634.8524780273438 150.72425842285156 C 631.2578125 146.82891845703125 629.1947631835938 141.39222717285156 630.1047973632812 140.52784729003906 C 628.9163208007812 138.055908203125 623.66357421875 137.00538635253906 620.8579711914062 138.57032775878906 C 618.2202758789062 140.55235290527344 619.2890014648438 142.35720825195312 618.75830078125 144.791748046875 C 614.4551391601562 144.4982147216797 614.1331176757812 143.12841796875 610.2559814453125 143.77835083007812 C 608.5527954101562 140.40577697753906 609.6002197265625 139.244873046875 609.4081420898438 137.37762451171875 C 606.6143798828125 132.23275756835938 604.772216796875 126.5498275756836 597.3410034179688 127.96795654296875 C 601.9569702148438 136.7518768310547 596.2900390625 151.21922302246094 591.630859375 157.04962158203125 C 590.7269897460938 163.92518615722656 589.4501953125 164.1928253173828 585.9664916992188 168.47274780273438 C 585.0294189453125 166.87991333007812 580.4590454101562 165.68646240234375 579.0394897460938 164.11029052734375 C 575.5927124023438 162.7131805419922 574.9439086914062 158.37416076660156 574.0112915039062 156.47244262695312 C 565.62060546875 155.5926055908203 556.4149780273438 155.07379150390625 556.2101440429688 151.33236694335938 C 555.8522338867188 152.92117309570312 553.0801391601562 154.71165466308594 552.8831176757812 157.74990844726562 C 550.0241088867188 161.4874267578125 547.96484375 160.88304138183594 547.2501220703125 159.55014038085938 C 543.9447631835938 157.19508361816406 543.2032470703125 155.53094482421875 536.5223999023438 157.78257751464844 C 534.9340209960938 158.48709106445312 530.6630859375 157.4331817626953 528.687255859375 158.23056030273438 C 526.07275390625 159.30364990234375 526.3661499023438 162.5869140625 525.3729248046875 165.71884155273438 C 524.5695190429688 169.4669647216797 523.6051635742188 171.5963592529297 519.0565795898438 173.1317138671875 C 510.9445495605469 177.6585235595703 503.38214111328125 173.1987762451172 496.2538146972656 167.80923461914062 C 491.70196533203125 144.6919403076172 507.2988586425781 123.57505798339844 515.4384765625 121.06991577148438 C 526.2010498046875 121.82971954345703 541.4581298828125 110.5423583984375 551.5256958007812 111.4121322631836 C 555.3753051757812 109.86453247070312 560.0619506835938 109.75891876220703 563.7470092773438 106.67417907714844 C 564.6346435546875 104.54852294921875 566.8627319335938 103.64196014404297 569.7391357421875 104.05046081542969 C 574.9522094726562 101.53108215332031 578.3323364257812 97.0895004272461 584.1524047851562 95.23635864257812 C 596.0535888671875 89.10845947265625 603.6251831054688 81.45941925048828 613.2342529296875 83.45040893554688" stroke-width="0.0" fill="url(#shape_6_fill)"/>
    <path d="M 0.8873276114463806 115.85435485839844 C 28.71808433532715 121.39727783203125 38.0183219909668 127.30326843261719 48.78657150268555 139.26182556152344 C 74.03915405273438 157.6449432373047 50.90824890136719 222.03326416015625 53.451332092285156 244.8299102783203 C 53.07572555541992 260.26153564453125 48.699424743652344 264.6673583984375 48.49703598022461 266.2406921386719 C 36.56502151489258 270.9259033203125 7.075996398925781 267.1297912597656 2.701596736907959 265.2499694824219 C 1.1408060789108276 215.80209350585938 -2.0762932300567627 165.0503692626953 0.8873276114463806 115.85435485839844" stroke-width="0.0" fill="url(#shape_7_fill)"/>
    <path d="M 393.0947265625 183.2270050048828 C 411.6504821777344 173.26473999023438 425.8006286621094 191.95933532714844 431.7560119628906 205.58456420898438 C 471.2181701660156 194.3645477294922 493.6927795410156 208.61672973632812 491.69207763671875 234.2496795654297 C 490.98577880859375 250.4774169921875 486.1576232910156 251.47508239746094 484.84710693359375 252.3378448486328 C 486.8547668457031 255.70445251464844 480.64007568359375 266.3438720703125 476.5131530761719 270.02716064453125 C 469.0430603027344 272.9302978515625 453.2210388183594 266.7112731933594 451.6219482421875 269.7084655761719 C 447.0035095214844 266.2768249511719 448.1999206542969 261.1990661621094 448.98297119140625 260.1581726074219 C 439.23773193359375 264.7349548339844 436.50921630859375 261.380615234375 437.41278076171875 256.8896484375 C 427.55316162109375 255.8952178955078 426.0037536621094 258.54534912109375 421.2317810058594 262.2471008300781 C 418.5386962890625 264.26043701171875 417.5026550292969 267.5967102050781 414.856201171875 271.7176818847656 C 414.1009521484375 272.77947998046875 397.47857666015625 267.9950866699219 392.593017578125 264.1545715332031 C 391.8258361816406 265.093505859375 389.0319519042969 263.3190002441406 386.0549621582031 263.52197265625 C 382.1159973144531 261.9403381347656 380.82177734375 263.1751403808594 376.6055603027344 261.01861572265625 C 375.0509338378906 256.3030700683594 376.212646484375 252.4353790283203 372.900146484375 249.09527587890625 C 359.4935302734375 243.94747924804688 373.8913269042969 195.74388122558594 378.0483093261719 180.94407653808594 C 383.4001770019531 171.3045654296875 394.873046875 176.21519470214844 393.0947265625 183.2270050048828" stroke-width="0.0" fill="url(#shape_8_fill)"/>
    <path d="M 565.6505126953125 157.4907684326172 C 568.2046508789062 159.07522583007812 569.4876708984375 165.38645935058594 569.0093994140625 167.16714477539062 C 573.8662719726562 169.4488067626953 573.421630859375 170.79354858398438 577.7512817382812 174.2136993408203 C 581.9342041015625 172.94129943847656 583.97119140625 174.56785583496094 583.7059936523438 179.47608947753906 C 575.3408203125 180.47457885742188 572.0553588867188 225.61634826660156 577.2786865234375 226.9659423828125 C 577.8545532226562 229.99819946289062 581.28369140625 235.6547393798828 576.5457153320312 242.68104553222656 C 568.5711669921875 239.00474548339844 566.2254028320312 237.333984375 558.5039672851562 247.199462890625 C 554.3807983398438 251.61404418945312 492.8457946777344 252.671142578125 489.6361083984375 252.7090606689453 C 487.31292724609375 247.29737854003906 487.26080322265625 239.06024169921875 490.8191223144531 229.851318359375 C 486.44830322265625 226.23568725585938 483.1903076171875 222.27667236328125 481.2845764160156 215.98500061035156 C 476.5283203125 209.81246948242188 479.169189453125 205.79347229003906 482.68408203125 205.9532928466797 C 479.88983154296875 205.31198120117188 481.106201171875 198.5241241455078 486.5231018066406 198.409423828125 C 491.8477783203125 196.15478515625 491.870361328125 192.50852966308594 492.9820251464844 187.8273468017578 C 491.343505859375 174.0515594482422 492.560302734375 173.02020263671875 492.3281555175781 167.87899780273438 C 503.9060363769531 167.24957275390625 505.29864501953125 170.64791870117188 517.5010375976562 168.77149963378906 C 523.6552124023438 170.16639709472656 524.4229736328125 167.47003173828125 525.9120483398438 165.3277587890625 C 524.4750366210938 160.548583984375 529.3155517578125 156.22877502441406 533.3914794921875 158.61631774902344 C 537.6491088867188 161.8286590576172 541.4000244140625 162.45213317871094 542.2083740234375 163.93496704101562 C 545.264892578125 164.0398406982422 545.9695434570312 165.6974639892578 549.418701171875 166.37985229492188 C 548.7578735351562 165.6274871826172 551.25 157.34765625 555.24658203125 157.59036254882812 C 557.599609375 159.13490295410156 563.66259765625 157.2985382080078 565.6505126953125 157.4907684326172" stroke-width="0.0" fill="url(#shape_9_fill)"/>
    <path d="M 561.2417602539062 156.30787658691406 C 567.0635375976562 153.5409393310547 571.2318725585938 159.42018127441406 570.25 167.70166015625 C 572.5914306640625 170.24655151367188 576.2614135742188 170.24156188964844 580.0367431640625 175.1080780029297 C 579.77587890625 178.00534057617188 578.6165771484375 187.33541870117188 577.0227661132812 191.5509033203125 C 571.2703857421875 196.7982177734375 571.9849243164062 229.97296142578125 578.0745849609375 230.9768524169922 C 576.0700073242188 231.15902709960938 575.6058349609375 236.83465576171875 572.0197143554688 238.05343627929688 C 559.8624877929688 235.97119140625 567.4912109375 238.60922241210938 564.3822631835938 249.3466033935547 C 554.9662475585938 252.39109802246094 501.2863464355469 248.9844207763672 500.177001953125 251.4893798828125 C 491.0628356933594 251.8043212890625 487.9307556152344 237.11488342285156 490.9879455566406 230.32046508789062 C 486.6263427734375 224.92564392089844 481.9859924316406 219.27032470703125 481.52606201171875 216.0343475341797 C 475.6453857421875 214.0718536376953 474.9822082519531 212.55453491210938 471.9067687988281 200.89596557617188 C 471.2783508300781 197.15042114257812 477.39691162109375 193.72567749023438 481.024658203125 196.80125427246094 C 490.00750732421875 195.42247009277344 494.4172668457031 184.20472717285156 496.6376037597656 182.97402954101562 C 495.9576416015625 179.4830322265625 496.87664794921875 176.99781799316406 500.428955078125 176.26693725585938 C 507.6615905761719 177.85150146484375 515.9560546875 180.32568359375 519.8475341796875 173.9442138671875 C 523.0413208007812 173.28738403320312 526.5094604492188 159.20811462402344 532.431884765625 157.7761993408203 C 537.3941650390625 156.9703369140625 538.7611083984375 160.52557373046875 542.4496459960938 165.6178741455078 C 545.5789794921875 165.52752685546875 548.9094848632812 166.78392028808594 551.0262451171875 164.4476318359375 C 551.0305786132812 156.4771728515625 553.2308349609375 153.21200561523438 561.2417602539062 156.30787658691406" stroke-width="0.0" fill="url(#shape_10_fill)"/>
    <path d="M 449.7312316894531 107.73287200927734 C 453.8186950683594 109.26206970214844 454.3777770996094 112.66112518310547 462.0346984863281 112.747314453125 C 463.8080749511719 116.61177062988281 469.1530456542969 117.28528594970703 473.0432434082031 118.72563171386719 C 488.3696594238281 124.5367202758789 488.8015441894531 125.2507095336914 492.44696044921875 129.43777465820312 C 493.42498779296875 131.70777893066406 493.2218322753906 134.2346649169922 496.93402099609375 136.16281127929688 C 494.49456787109375 135.0643310546875 491.8971252441406 136.5172119140625 486.0370788574219 138.9030303955078 C 482.7762756347656 135.99327087402344 481.57794189453125 137.3614501953125 478.9972229003906 136.91664123535156 C 473.8288879394531 137.4102783203125 470.57257080078125 136.51101684570312 468.1363830566406 134.36390686035156 C 465.3047790527344 133.49716186523438 460.0719299316406 133.50631713867188 459.1676330566406 134.39471435546875 C 455.8006286621094 141.49417114257812 471.8022766113281 150.2842254638672 482.3267822265625 157.91513061523438 C 476.1703796386719 176.60960388183594 475.34259033203125 177.16287231445312 470.10150146484375 180.8126983642578 C 466.6802673339844 182.2565460205078 466.2771911621094 186.7142791748047 464.0290222167969 188.52432250976562 C 460.3640441894531 186.8828125 455.22503662109375 180.49166870117188 454.24957275390625 176.97491455078125 C 448.26849365234375 179.36282348632812 447.5134582519531 182.5632781982422 439.9007873535156 183.08421325683594 C 439.4883117675781 183.8647918701172 436.0682678222656 195.89601135253906 434.70428466796875 198.16790771484375 C 428.6884765625 200.7137451171875 417.4671325683594 180.60194396972656 417.72833251953125 179.72178649902344 C 416.9587707519531 179.54832458496094 400.76025390625 176.15867614746094 400.53558349609375 170.98641967773438 C 393.0185241699219 169.22906494140625 390.053466796875 176.16143798828125 380.5196533203125 173.3992156982422 C 379.80316162109375 164.67529296875 384.7183837890625 144.9597930908203 392.4977111816406 139.3141326904297 C 397.91888427734375 137.46932983398438 399.3797607421875 129.69100952148438 402.3040771484375 122.96752166748047 C 410.1136474609375 99.79691314697266 426.8828430175781 105.26461029052734 449.7312316894531 107.73287200927734" stroke-width="0.0" fill="url(#shape_11_fill)"/>
    <path d="M 602.827880859375 127.77483367919922 C 605.7913208007812 131.2467498779297 606.1034545898438 143.4020538330078 608.5194091796875 143.88365173339844 C 612.0352783203125 144.4941864013672 612.1399536132812 147.79879760742188 615.4403686523438 151.80511474609375 C 618.421630859375 149.80018615722656 618.497314453125 141.39471435546875 620.9603881835938 141.20567321777344 C 623.4820556640625 137.26014709472656 625.7225341796875 137.76397705078125 628.2744750976562 140.1697998046875 C 627.733154296875 142.12242126464844 629.3988647460938 144.60609436035156 629.4406127929688 147.25216674804688 C 632.1322021484375 149.75607299804688 631.7954711914062 151.0814971923828 637.0585327148438 152.86361694335938 C 642.2930297851562 154.5409698486328 640.9663696289062 160.5561981201172 643.3364868164062 168.86427307128906 C 637.6817626953125 183.85702514648438 639.2174072265625 194.36016845703125 639.7125244140625 206.40858459472656 C 642.2069091796875 219.10186767578125 646.393798828125 232.16651916503906 642.824951171875 245.7130584716797 C 623.3501586914062 248.54925537109375 610.4974975585938 248.79052734375 576.5151977539062 253.80877685546875 C 572.3234252929688 244.9501953125 572.5980834960938 231.49786376953125 572.330810546875 219.4907684326172 C 568.7618408203125 210.43209838867188 572.619140625 168.55584716796875 583.3301391601562 169.55679321289062 C 597.9303588867188 164.14161682128906 597.2258911132812 143.99143981933594 599.5075073242188 141.9083709716797 C 595.9312133789062 139.07884216308594 597.100830078125 136.6127471923828 602.827880859375 127.77483367919922" stroke-width="0.0" fill="url(#shape_12_fill)"/>
    <path d="M 408.43792724609375 176.74388122558594 C 421.1706237792969 173.24435424804688 433.2388610839844 212.0090789794922 428.16619873046875 220.54714965820312 C 419.9873046875 230.69642639160156 426.083251953125 238.62469482421875 428.3247375488281 247.5679931640625 C 430.60076904296875 262.310302734375 420.6286926269531 265.7505187988281 416.663818359375 267.414794921875 C 402.30035400390625 269.1131286621094 395.9052429199219 269.0848083496094 389.7506103515625 268.6112976074219 C 385.3691101074219 264.5228576660156 382.60955810546875 265.1360168457031 380.4214782714844 264.7496643066406 C 376.3060302734375 262.6014709472656 376.6744689941406 260.4949645996094 375.41900634765625 258.4232177734375 C 376.3373718261719 255.8027801513672 375.662353515625 253.68630981445312 374.4264221191406 253.49139404296875 C 374.0542297363281 252.6261749267578 370.4773864746094 250.61607360839844 369.04132080078125 251.5409393310547 C 360.3362121582031 246.1255340576172 365.5381774902344 227.60791015625 367.8075866699219 221.03562927246094 C 368.9918518066406 218.79379272460938 371.852294921875 202.82098388671875 380.0811462402344 203.71585083007812 C 380.35162353515625 202.4714813232422 381.8669738769531 185.8855743408203 386.29034423828125 181.85838317871094 C 391.5956726074219 176.17791748046875 392.8003234863281 176.1663818359375 408.43792724609375 176.74388122558594" stroke-width="0.0" fill="url(#shape_13_fill)"/>
    <path d="M 509.8863220214844 66.60865020751953 C 512.4513549804688 66.10714721679688 520.8873291015625 70.6435775756836 523.6437377929688 74.33699798583984 C 530.9705200195312 80.06210327148438 534.2073364257812 80.14327239990234 536.252685546875 90.29822540283203 C 539.356689453125 90.88202667236328 544.5418701171875 90.33678436279297 545.023681640625 91.16631317138672 C 545.53466796875 92.75414276123047 556.0381469726562 97.08598327636719 560.882080078125 95.07555389404297 C 563.6470947265625 97.49382781982422 567.3314208984375 97.54085540771484 568.7077026367188 99.25404357910156 C 565.0546875 105.03642272949219 555.1159057617188 114.87683868408203 546.511962890625 111.04734802246094 C 541.6318969726562 112.03250885009766 539.3623046875 114.96222686767578 534.6517944335938 118.18870544433594 C 529.288818359375 121.36840057373047 523.6630859375 121.1473159790039 516.1237182617188 119.45393371582031 C 510.29986572265625 119.27959442138672 501.40545654296875 125.40450286865234 498.9615173339844 124.9791030883789 C 497.0775146484375 128.38140869140625 493.67266845703125 128.27435302734375 489.4620361328125 127.85604095458984 C 489.3385314941406 124.1424331665039 468.7825927734375 119.0754165649414 468.0578308105469 118.09319305419922 C 463.29937744140625 117.75312805175781 463.09747314453125 116.45372009277344 461.5196533203125 115.40523529052734 C 466.36968994140625 112.70832061767578 468.8858337402344 106.75650024414062 475.3875732421875 101.10820770263672 C 477.8959655761719 87.48578643798828 475.5962219238281 85.13516998291016 475.0504150390625 82.14620971679688 C 474.5885009765625 70.93414306640625 475.3428039550781 70.38671112060547 478.6666259765625 66.56160736083984 C 479.09417724609375 64.29370880126953 482.77056884765625 64.39700317382812 484.9228820800781 63.99508285522461 C 493.0755615234375 63.330650329589844 500.7978210449219 62.58442687988281 509.8863220214844 66.60865020751953" stroke-width="0.0" fill="url(#shape_14_fill)"/>
    <path d="M 532.2028198242188 159.8748779296875 C 543.7860717773438 162.90493774414062 544.0445556640625 163.87730407714844 546.828125 165.6501922607422 C 549.096923828125 168.04476928710938 549.4498901367188 170.5116729736328 543.5657958984375 181.5570068359375 C 541.2888793945312 189.16136169433594 536.6954345703125 230.92666625976562 536.0626831054688 233.3760223388672 C 540.5535278320312 236.89181518554688 540.79931640625 250.00146484375 514.5635375976562 252.2011260986328 C 502.32196044921875 251.24032592773438 483.83843994140625 245.07440185546875 487.8031921386719 230.57896423339844 C 477.062255859375 218.31947326660156 478.1480712890625 206.00355529785156 484.0220642089844 200.20236206054688 C 486.9072265625 197.4654541015625 488.5953063964844 197.61878967285156 489.505126953125 197.4870147705078 C 485.1402893066406 189.66139221191406 487.1866149902344 177.87196350097656 488.1490783691406 174.0 C 489.6766357421875 171.9983673095703 492.08563232421875 169.7218475341797 497.0017395019531 171.6200714111328 C 506.2434997558594 177.9527587890625 511.7470703125 182.28541564941406 522.659423828125 172.57125854492188 C 525.5465087890625 170.95716857910156 525.5360107421875 167.30096435546875 526.95751953125 165.09661865234375 C 527.5855102539062 161.63214111328125 530.8012084960938 160.3616180419922 532.2028198242188 159.8748779296875" stroke-width="0.0" fill="url(#shape_15_fill)"/>
    <path d="M 652.2108154296875 111.01322937011719 C 653.6447143554688 109.92801666259766 663.3477172851562 121.92594146728516 661.7031860351562 127.35286712646484 C 665.298583984375 133.6227264404297 665.8468017578125 140.0371551513672 673.375 147.88475036621094 C 676.4392700195312 179.0345458984375 673.4116821289062 211.9359893798828 674.1795654296875 253.97067260742188 C 672.8054809570312 251.73240661621094 647.4847412109375 259.0713806152344 637.9747314453125 250.1305389404297 C 635.83447265625 244.12220764160156 639.5120239257812 122.31713104248047 652.2108154296875 111.01322937011719" stroke-width="0.0" fill="url(#shape_16_fill)"/>
    <path d="M 600.6516723632812 130.0291290283203 C 603.1832275390625 127.61165618896484 607.9415283203125 131.77639770507812 606.8389282226562 133.95266723632812 C 608.234619140625 135.06997680664062 608.1614379882812 139.39987182617188 609.5266723632812 142.4004669189453 C 624.48046875 143.1390838623047 625.2459106445312 227.97283935546875 621.5147705078125 249.56101989746094 C 596.2730712890625 254.91506958007812 578.2173461914062 247.53536987304688 579.9838256835938 235.72142028808594 C 565.0829467773438 227.67559814453125 596.4935913085938 153.32618713378906 600.6516723632812 130.0291290283203" stroke-width="0.0" fill="url(#shape_17_fill)"/>
    <path d="M 321.2033386230469 186.19947814941406 C 322.4140319824219 186.26678466796875 323.8876953125 189.0075225830078 323.3006591796875 193.75387573242188 C 332.4623107910156 191.64244079589844 336.3058166503906 190.2655792236328 338.5346984863281 193.0808868408203 C 341.5328369140625 197.85977172851562 346.5295104980469 196.5642852783203 353.64398193359375 195.4435577392578 C 357.22674560546875 194.8844757080078 358.1419372558594 197.85897827148438 358.39031982421875 201.00222778320312 C 359.70599365234375 203.83486938476562 361.7696533203125 204.0043487548828 362.3611755371094 207.32632446289062 C 367.2461853027344 206.99139404296875 368.4743957519531 208.219482421875 368.12664794921875 211.84519958496094 C 370.048095703125 219.6492462158203 370.3915710449219 222.74192810058594 366.379150390625 225.45779418945312 C 366.815185546875 231.494873046875 365.3580322265625 235.3015899658203 368.6583251953125 246.62745666503906 C 368.3992614746094 250.59877014160156 365.80694580078125 256.2236328125 357.48907470703125 254.9525909423828 C 353.04345703125 255.2157440185547 330.892578125 255.0282440185547 322.0829772949219 255.34963989257812 C 313.4378662109375 255.98658752441406 312.2231750488281 253.47705078125 308.965087890625 241.18080139160156 C 304.5110778808594 229.41143798828125 320.4624328613281 193.52703857421875 321.2033386230469 186.19947814941406" stroke-width="0.0" fill="url(#shape_18_fill)"/>
    <path d="M 479.3851623535156 216.46548461914062 C 491.8255615234375 245.8553466796875 500.1564025878906 254.06472778320312 483.18743896484375 272.7550048828125 C 470.6543884277344 278.7323913574219 444.01312255859375 261.36279296875 442.14337158203125 261.6581726074219 C 438.63336181640625 260.6424560546875 437.1530456542969 258.19622802734375 432.5774841308594 258.00372314453125 C 429.6741943359375 258.1455383300781 427.64898681640625 257.47784423828125 427.35577392578125 254.2016143798828 C 425.27276611328125 241.8336944580078 421.4454345703125 233.50189208984375 422.5782165527344 228.63571166992188 C 425.1497802734375 226.86643981933594 421.1697692871094 228.11050415039062 420.46051025390625 225.57119750976562 C 427.7043762207031 219.47215270996094 429.68634033203125 218.79095458984375 429.5095520019531 215.6439208984375 C 437.8229064941406 197.00331115722656 467.93310546875 201.49411010742188 479.3851623535156 216.46548461914062" stroke-width="0.0" fill="url(#shape_19_fill)"/>
    <path d="M 674.0668334960938 -2.6743967533111572 C 675.0532836914062 32.86211395263672 674.5826416015625 64.7645034790039 674.3558349609375 97.36399841308594 C 669.7949829101562 96.15743255615234 651.0269165039062 86.71580505371094 643.0247802734375 90.3289566040039 C 638.6735229492188 89.57514190673828 638.220458984375 85.82148742675781 637.7630615234375 84.610107421875 C 626.3327026367188 84.74878692626953 618.362060546875 92.4516372680664 608.1116333007812 86.64990997314453 C 609.8401489257812 77.16021728515625 614.890625 75.21207427978516 614.7205200195312 71.69892883300781 C 623.4063110351562 69.83562469482422 649.6121826171875 25.93813133239746 648.4974975585938 22.67266845703125 C 656.071044921875 14.79302978515625 656.7493896484375 4.565512657165527 667.9049072265625 4.053335666656494 C 669.7865600585938 2.6592109203338623 670.2123413085938 1.1797534227371216 674.0668334960938 -2.6743967533111572" stroke-width="0.0" fill="url(#shape_20_fill)"/>
    <path d="M 562.1266479492188 155.86851501464844 C 569.7612915039062 156.69683837890625 569.6310424804688 163.98141479492188 574.2669677734375 165.2533721923828 C 585.57568359375 168.2920379638672 575.9542236328125 231.37326049804688 577.32470703125 240.755859375 C 575.0057983398438 244.36557006835938 570.2515869140625 245.97023010253906 570.0110473632812 250.6024932861328 C 559.2685546875 250.93377685546875 543.0292358398438 251.9208526611328 540.0419311523438 246.31494140625 C 544.3479614257812 244.7090606689453 540.06005859375 163.81515502929688 555.2022705078125 157.7938690185547 C 555.7920532226562 153.23536682128906 558.5628662109375 153.2071990966797 562.1266479492188 155.86851501464844" stroke-width="0.0" fill="url(#shape_21_fill)"/>
    <path d="M 215.6417999267578 212.8151397705078 C 228.75550842285156 214.6301727294922 229.18270874023438 247.3904266357422 219.56304931640625 255.76461791992188 C 211.35646057128906 262.96002197265625 209.07212829589844 264.4297180175781 206.85040283203125 273.1023254394531 C 205.50982666015625 275.5119323730469 206.74806213378906 276.5848388671875 207.29090881347656 279.8680114746094 C 207.07899475097656 283.2295837402344 204.17477416992188 285.2104187011719 200.1112823486328 284.83807373046875 C 200.31900024414062 283.44964599609375 193.0628204345703 270.23077392578125 187.876708984375 264.9677734375 C 186.31932067871094 261.3268127441406 183.9330291748047 262.09002685546875 181.5314483642578 261.91766357421875 C 180.68824768066406 260.7528381347656 179.68666076660156 260.5550231933594 178.34693908691406 255.21192932128906 C 180.66815185546875 248.81019592285156 169.41555786132812 243.79891967773438 170.6796112060547 237.4143829345703 C 175.6927490234375 214.71974182128906 178.6695556640625 213.61415100097656 185.82872009277344 220.83705139160156 C 194.00262451171875 218.61558532714844 194.3147735595703 215.6506805419922 196.96298217773438 214.70440673828125 C 191.17303466796875 203.95399475097656 190.89271545410156 201.8218536376953 198.78004455566406 200.63778686523438 C 213.12545776367188 199.91256713867188 214.03375244140625 202.19107055664062 215.6417999267578 212.8151397705078" stroke-width="0.0" fill="url(#shape_22_fill)"/>
    <path d="M 111.52324676513672 426.41607666015625 C 112.72088623046875 429.2751159667969 110.99285888671875 431.1830749511719 110.67194366455078 431.6842346191406 C 105.7723159790039 434.0789794921875 102.40953826904297 434.6069641113281 91.84474182128906 432.97894287109375 C 89.74857330322266 435.984130859375 95.70723724365234 446.435302734375 91.6178207397461 452.120849609375 C 78.66387176513672 444.9972229003906 46.93803024291992 447.9271240234375 24.93849754333496 449.64990234375 C 14.001338958740234 446.2829895019531 13.871889114379883 439.7832336425781 17.459558486938477 436.3691711425781 C 34.341651916503906 428.2347106933594 50.99491500854492 426.89483642578125 70.84260559082031 427.2105712890625 C 76.06819152832031 426.416748046875 108.39704895019531 418.6234436035156 111.52324676513672 426.41607666015625" stroke-width="0.0" fill="url(#shape_23_fill)"/>
    <path d="M 194.46922302246094 122.85694122314453 C 198.91966247558594 125.40460968017578 209.2388916015625 145.1351776123047 214.22100830078125 144.9366912841797 C 215.48643493652344 148.23472595214844 218.45726013183594 149.77023315429688 219.9341583251953 153.49783325195312 C 227.04298400878906 157.87594604492188 248.90005493164062 179.7767333984375 244.52127075195312 199.59617614746094 C 239.10374450683594 199.56517028808594 235.4501190185547 187.3048858642578 234.3144073486328 181.52728271484375 C 233.6066436767578 184.71405029296875 232.32423400878906 194.71604919433594 230.877685546875 197.1459503173828 C 225.75875854492188 199.5660858154297 225.10302734375 201.83407592773438 220.5077667236328 208.48341369628906 C 215.1597137451172 207.64971923828125 213.68597412109375 200.01617431640625 214.39154052734375 195.9739990234375 C 212.6779022216797 189.59584045410156 212.6089324951172 182.97364807128906 206.9728546142578 178.29733276367188 C 204.01014709472656 174.0265350341797 205.1150665283203 173.03750610351562 205.53652954101562 167.49505615234375 C 203.28890991210938 150.05955505371094 200.23704528808594 148.59124755859375 193.175048828125 143.7667694091797 C 188.74635314941406 142.73245239257812 191.53689575195312 128.70916748046875 194.46922302246094 122.85694122314453" stroke-width="0.0" fill="url(#shape_24_fill)"/>
    <path d="M 595.66064453125 411.1523132324219 C 598.0515747070312 412.6416320800781 625.9066162109375 409.7302551269531 627.292724609375 416.7059631347656 C 628.5765991210938 421.00482177734375 626.8950805664062 425.0083312988281 628.9474487304688 426.6628723144531 C 630.355224609375 429.0553283691406 634.0784912109375 428.95672607421875 636.548095703125 437.73883056640625 C 616.9811401367188 446.96099853515625 577.5087890625 440.115966796875 575.1565551757812 433.327880859375 C 569.0198974609375 424.9450988769531 573.7702026367188 418.4017028808594 575.4371948242188 413.8343200683594 C 579.9517822265625 409.0673522949219 587.2213745117188 411.4521789550781 595.66064453125 411.1523132324219" stroke-width="0.0" fill="url(#shape_25_fill)"/>
    <path d="M 142.9178924560547 66.69638061523438 C 144.0834197998047 68.92517852783203 149.1692352294922 68.3880615234375 149.6291046142578 69.14112091064453 C 148.9073944091797 70.90206146240234 150.45803833007812 71.82711029052734 149.7709503173828 73.86368560791016 C 151.0146942138672 74.45571899414062 150.41404724121094 78.19672393798828 151.13186645507812 82.22371673583984 C 152.1019287109375 89.60597229003906 152.61451721191406 97.817138671875 153.93382263183594 104.10264587402344 C 153.52371215820312 107.62033081054688 155.10073852539062 108.5231704711914 154.96133422851562 111.55073547363281 C 158.23321533203125 123.39562225341797 155.38943481445312 133.51016235351562 150.34759521484375 133.58604431152344 C 142.88748168945312 127.03241729736328 136.96595764160156 120.5958023071289 125.55145263671875 117.34519958496094 C 122.49861145019531 114.314453125 124.5965805053711 109.70240020751953 126.9004898071289 107.13813781738281 C 128.83428955078125 106.85476684570312 128.87838745117188 105.28324890136719 132.6593780517578 104.69349670410156 C 139.02511596679688 96.47840118408203 135.0534210205078 93.03028869628906 133.38177490234375 90.03469848632812 C 134.21121215820312 88.89960479736328 139.2696990966797 87.09127807617188 140.0423126220703 85.30911254882812 C 138.1480255126953 84.75038146972656 138.848388671875 77.64752960205078 139.51577758789062 77.4666976928711 C 143.54022216796875 76.59166717529297 142.6579132080078 70.29962158203125 142.9178924560547 66.69638061523438" stroke-width="0.0" fill="url(#shape_26_fill)"/>
    <path d="M 143.46002197265625 67.6793212890625 C 149.22412109375 68.0010757446289 149.9811248779297 69.76105499267578 148.39186096191406 76.00762939453125 C 151.366455078125 77.33087158203125 151.57281494140625 79.97174072265625 153.59548950195312 83.25485229492188 C 150.517333984375 90.35516357421875 153.57725524902344 92.9423599243164 152.4761199951172 104.16289520263672 C 153.82020568847656 105.41026306152344 153.36544799804688 109.22248077392578 155.2150115966797 113.00780487060547 C 152.7196044921875 117.67198944091797 157.97682189941406 122.47649383544922 155.1009979248047 126.01490783691406 C 152.66783142089844 132.04908752441406 151.35781860351562 133.175048828125 147.44729614257812 133.44134521484375 C 140.67364501953125 133.13751220703125 128.7935333251953 120.78981018066406 127.10895538330078 119.88175964355469 C 123.99048614501953 119.7258071899414 121.7389144897461 114.27867889404297 128.44210815429688 110.51988983154297 C 124.01188659667969 108.7259292602539 124.13709259033203 106.0381851196289 132.40347290039062 106.1407699584961 C 136.2965087890625 105.45099639892578 134.4715576171875 92.68712615966797 134.38540649414062 89.51163482666016 C 139.40072631835938 87.32737731933594 138.54286193847656 84.60238647460938 138.34190368652344 81.70133209228516 C 139.07803344726562 77.49883270263672 140.36331176757812 76.77946472167969 141.75425720214844 76.77336120605469 C 145.21527099609375 72.81526184082031 143.18389892578125 69.5988998413086 143.46002197265625 67.6793212890625" stroke-width="0.0" fill="url(#shape_27_fill)"/>
    <path d="M -0.3175382614135742 -0.2704077959060669 C 4.696946144104004 0.38023391366004944 9.64318561553955 -0.5242930054664612 18.435529708862305 -0.6311137080192566 C 22.304122924804688 0.1497780680656433 21.86290740966797 7.106389999389648 35.91520309448242 14.564438819885254 C 32.50703430175781 25.150197982788086 27.91556167602539 26.058759689331055 27.060548782348633 24.360809326171875 C 37.24999237060547 27.324560165405273 43.98308181762695 28.292272567749023 45.70685958862305 40.56867980957031 C 36.0960693359375 42.258907318115234 32.25815963745117 42.403785705566406 27.356632232666016 39.64094924926758 C 21.94445037841797 35.699188232421875 13.049848556518555 36.31342697143555 10.761672973632812 33.67031478881836 C 9.250391960144043 36.60711669921875 12.916802406311035 40.113224029541016 13.054705619812012 41.53226089477539 C 14.449395179748535 42.0114860534668 14.434117317199707 43.92965316772461 18.0935001373291 47.92332077026367 C 20.059844970703125 51.07365798950195 18.74689292907715 52.31005096435547 20.078155517578125 57.03144836425781 C 20.2810001373291 62.56503677368164 13.602897644042969 64.51056671142578 8.871759414672852 61.21268081665039 C 5.496071815490723 60.88441848754883 3.5335781574249268 59.141761779785156 0.3250189423561096 59.43397903442383 C -0.31767991185188293 39.778873443603516 -0.32487428188323975 19.628629684448242 -0.3175382614135742 -0.2704077959060669" stroke-width="0.0" fill="url(#shape_28_fill)"/>
    <path d="M 299.31292724609375 197.2900848388672 C 297.523193359375 199.26524353027344 299.6046142578125 202.32598876953125 301.5075378417969 208.64198303222656 C 299.90185546875 211.24322509765625 320.96075439453125 230.45982360839844 315.3426818847656 255.35128784179688 C 312.5857849121094 254.39256286621094 311.18408203125 255.82545471191406 307.81036376953125 256.7384948730469 C 300.7508239746094 257.8724365234375 296.5010986328125 257.65936279296875 281.1019287109375 256.3886413574219 C 280.4316711425781 231.55528259277344 285.9458312988281 216.6412353515625 299.31292724609375 197.2900848388672" stroke-width="0.0" fill="url(#shape_29_fill)"/>
    <path d="M -0.28518494963645935 0.09923968464136124 C 4.445191383361816 0.44977867603302 9.56005573272705 -0.4149918854236603 14.525819778442383 0.1377813071012497 C 15.701411247253418 0.4967612326145172 16.140031814575195 5.495471000671387 16.130836486816406 8.065267562866211 C 18.964338302612305 10.776113510131836 22.14986228942871 18.7926025390625 26.858041763305664 20.847829818725586 C 27.10797882080078 22.48338508605957 24.764339447021484 26.9134464263916 24.481807708740234 31.152271270751953 C 20.81768035888672 32.769474029541016 15.838179588317871 32.71063232421875 7.725454807281494 34.279972076416016 C 9.154812812805176 35.839630126953125 8.831024169921875 38.63772964477539 11.091926574707031 40.43699645996094 C 10.00415325164795 45.46188735961914 7.782035827636719 51.79750061035156 11.531553268432617 53.839881896972656 C 17.806068420410156 51.435794830322266 19.460708618164062 52.14533615112305 18.35908317565918 57.80198287963867 C 12.116865158081055 59.96485137939453 8.437593460083008 61.953880310058594 0.22327777743339539 61.44078826904297 C -0.41491779685020447 39.95628356933594 -0.35435280203819275 19.75369644165039 -0.28518494963645935 0.09923968464136124" stroke-width="0.0" fill="url(#shape_30_fill)"/>
    <path d="M 546.942626953125 71.03141021728516 C 546.4185791015625 74.30280303955078 577.9578247070312 88.39065551757812 581.6141357421875 90.6117935180664 C 581.0274047851562 92.39114379882812 578.3755493164062 92.42813873291016 577.2804565429688 98.24349975585938 C 573.24462890625 100.79962158203125 572.1080932617188 100.12393188476562 568.39306640625 99.4029312133789 C 566.8179931640625 96.10783386230469 543.3084106445312 95.2192611694336 538.5280151367188 88.50460815429688 C 538.5842895507812 85.4766616821289 537.5049438476562 83.33464813232422 535.5929565429688 82.57632446289062 C 534.8634033203125 79.42638397216797 529.5173950195312 79.42521667480469 526.7921752929688 78.30096435546875 C 525.3598022460938 75.77508544921875 527.7669067382812 70.8775863647461 532.7747192382812 69.3078384399414 C 536.1644897460938 67.95657348632812 540.755859375 69.65184020996094 546.942626953125 71.03141021728516" stroke-width="0.0" fill="url(#shape_31_fill)"/>
    <path d="M 448.1839294433594 264.0379638671875 C 450.68267822265625 265.25689697265625 451.3226623535156 266.7024841308594 455.997314453125 267.6640625 C 460.51312255859375 267.65460205078125 465.32513427734375 270.3727111816406 469.9095764160156 273.2692565917969 C 470.4364318847656 275.6302490234375 471.82403564453125 276.8941345214844 471.6768798828125 280.7580261230469 C 449.7616271972656 289.5943908691406 427.4007568359375 286.6468505859375 415.71502685546875 284.9725036621094 C 413.3603820800781 273.9166259765625 415.2574462890625 272.3531494140625 415.71697998046875 268.2611999511719 C 418.1906433105469 267.2078552246094 417.7780456542969 264.8067626953125 419.3389892578125 263.0653076171875 C 429.1562805175781 253.52520751953125 440.2212829589844 257.9482727050781 448.1839294433594 264.0379638671875" stroke-width="0.0" fill="url(#shape_32_fill)"/>
    <path d="M 269.8123474121094 191.56005859375 C 278.5474548339844 191.56076049804688 284.39373779296875 243.64556884765625 280.4842224121094 244.7117156982422 C 279.079833984375 247.070556640625 273.7873840332031 246.89984130859375 269.96099853515625 248.33551025390625 C 266.47003173828125 245.81961059570312 266.8154296875 241.94911193847656 261.5595397949219 240.8393096923828 C 255.12713623046875 211.56954956054688 261.989990234375 205.75506591796875 269.8123474121094 191.56005859375" stroke-width="0.0" fill="url(#shape_33_fill)"/>
    <path d="M 255.74864196777344 423.1037902832031 C 258.41015625 425.2992248535156 266.2030029296875 429.6274719238281 266.3349914550781 440.22821044921875 C 262.1608581542969 443.519775390625 261.6465759277344 446.6961975097656 252.8224639892578 446.3864440917969 C 247.10598754882812 444.6722412109375 221.23007202148438 446.806884765625 212.61021423339844 444.4893798828125 C 213.0250244140625 436.99578857421875 213.95974731445312 436.2222900390625 215.8790740966797 434.4094543457031 C 216.09844970703125 433.36053466796875 224.99107360839844 433.2920837402344 226.5839080810547 430.08551025390625 C 230.7546844482422 423.5704650878906 242.7848663330078 424.4124450683594 255.74864196777344 423.1037902832031" stroke-width="0.0" fill="url(#shape_34_fill)"/>
    <path d="M 106.04228973388672 69.95549774169922 C 109.46908569335938 70.0338134765625 112.30829620361328 78.3486557006836 111.19268035888672 82.57588195800781 C 117.03925323486328 84.36607360839844 117.5439224243164 110.2781982421875 117.6665267944336 110.91079711914062 C 116.92281341552734 112.93499755859375 112.1485595703125 114.54218292236328 107.4990234375 120.6107177734375 C 105.3980941772461 116.81121826171875 96.6721420288086 118.88126373291016 92.1214828491211 112.94747161865234 C 90.93799591064453 85.5233383178711 103.78408813476562 84.18714141845703 106.04228973388672 69.95549774169922" stroke-width="0.0" fill="url(#shape_35_fill)"/>
    <path d="M 451.6595764160156 178.47515869140625 C 453.5623474121094 176.25173950195312 456.5793151855469 177.3347625732422 456.5339660644531 179.9168243408203 C 457.13885498046875 180.17047119140625 457.1258850097656 184.52491760253906 458.11627197265625 186.13037109375 C 455.7947998046875 189.71832275390625 459.57818603515625 194.7236785888672 460.38739013671875 206.51243591308594 C 459.4465637207031 208.68109130859375 453.0072937011719 209.297607421875 446.9189453125 205.011962890625 C 440.5936584472656 206.95492553710938 440.13818359375 208.97640991210938 433.1180419921875 210.873291015625 C 433.7580261230469 210.02435302734375 437.5094909667969 189.3194580078125 439.4511413574219 183.07064819335938 C 440.7229919433594 181.28707885742188 444.53955078125 181.75384521484375 446.4758605957031 180.4463653564453 C 447.7285461425781 179.23336791992188 450.0535888671875 179.44395446777344 451.6595764160156 178.47515869140625" stroke-width="0.0" fill="url(#shape_36_fill)"/>
    <path d="M 557.87158203125 85.88935089111328 C 564.8471069335938 80.02703857421875 578.8067016601562 81.70332336425781 580.4306030273438 85.6221923828125 C 581.1694946289062 83.44159698486328 586.5484008789062 85.24970245361328 586.8795776367188 88.18333435058594 C 590.5877685546875 95.0310287475586 584.2315063476562 102.31364440917969 574.393310546875 100.06949615478516 C 573.7948608398438 99.33863067626953 550.4276123046875 95.3687744140625 541.0401000976562 85.74539184570312 C 538.6439819335938 85.25360107421875 537.7838134765625 81.3714370727539 535.7838745117188 80.20280456542969 C 543.79052734375 75.04426574707031 549.35009765625 78.21598815917969 557.87158203125 85.88935089111328" stroke-width="0.0" fill="url(#shape_37_fill)"/>
    <path d="M 252.34579467773438 208.60069274902344 C 263.8668212890625 210.0182647705078 260.9604187011719 243.9272918701172 260.32025146484375 247.64254760742188 C 256.75860595703125 254.21885681152344 250.1741943359375 253.580322265625 246.86782836914062 256.2254638671875 C 235.43185424804688 238.90597534179688 241.65914916992188 211.1444549560547 252.34579467773438 208.60069274902344" stroke-width="0.0" fill="url(#shape_38_fill)"/>
    <path d="M 443.1387939453125 263.38934326171875 C 445.9398498535156 263.4958801269531 449.0981750488281 266.60308837890625 447.66265869140625 270.0665588378906 C 444.1167297363281 270.3379821777344 442.5898742675781 276.99169921875 440.9817810058594 279.3075866699219 C 440.3692321777344 284.8826904296875 420.45220947265625 284.5071716308594 416.3818359375 277.4668884277344 C 414.67596435546875 276.978515625 413.2151794433594 273.58782958984375 415.4042053222656 271.6698303222656 C 414.8415832519531 269.88671875 418.78436279296875 261.8001708984375 425.391357421875 258.75811767578125 C 428.7695617675781 255.5694580078125 436.9920959472656 257.9604797363281 443.1387939453125 263.38934326171875" stroke-width="0.0" fill="url(#shape_39_fill)"/>
    <path d="M 407.7444763183594 409.7636413574219 C 408.68914794921875 409.8793029785156 416.77655029296875 419.0204162597656 413.5247497558594 424.12969970703125 C 400.1568603515625 435.5115661621094 383.3553161621094 420.7474060058594 377.2177734375 420.3757629394531 C 370.080078125 417.7026672363281 371.96734619140625 416.84613037109375 373.14617919921875 411.3252258300781 C 376.114501953125 401.5071716308594 397.1545715332031 402.4763488769531 407.7444763183594 409.7636413574219" stroke-width="0.0" fill="url(#shape_40_fill)"/>
    <path d="M 66.46443939208984 427.5982971191406 C 67.5035400390625 429.19091796875 65.22857666015625 435.6217041015625 59.538936614990234 436.17138671875 C 58.43546676635742 437.15948486328125 40.71470642089844 437.1019287109375 31.11087417602539 442.41473388671875 C 27.863996505737305 442.369873046875 24.77951431274414 445.630126953125 17.11902618408203 443.54302978515625 C 16.487178802490234 440.6446533203125 17.673166275024414 439.2032165527344 16.9361572265625 437.8044738769531 C 33.38063049316406 427.7738037109375 56.004058837890625 427.4209289550781 66.46443939208984 427.5982971191406" stroke-width="0.0" fill="url(#shape_41_fill)"/>
    <path d="M 278.4423828125 381.986328125 C 283.93719482421875 382.08099365234375 296.935546875 382.27874755859375 299.4717712402344 385.8695983886719 C 297.3718566894531 394.9726257324219 299.3212890625 400.72235107421875 294.3365478515625 404.3600158691406 C 291.7248840332031 398.767822265625 264.6710510253906 403.7303161621094 257.6705017089844 404.27264404296875 C 251.8033905029297 403.2593994140625 250.5471954345703 391.74310302734375 253.72084045410156 383.3281555175781 C 261.4137878417969 381.21868896484375 267.7827453613281 381.9747314453125 278.4423828125 381.986328125" stroke-width="0.0" fill="url(#shape_42_fill)"/>
    <path d="M 220.74923706054688 219.19139099121094 C 225.41098022460938 217.75033569335938 232.386962890625 217.6945343017578 237.74908447265625 219.13099670410156 C 239.9609832763672 223.19085693359375 245.71450805664062 241.36334228515625 244.1652069091797 259.8568420410156 C 241.39096069335938 265.4168701171875 234.11167907714844 265.4290466308594 217.12632751464844 265.0099792480469 C 212.661376953125 262.65948486328125 212.18789672851562 260.8669738769531 217.6055450439453 248.0426025390625 C 219.5102996826172 246.4766845703125 217.89231872558594 226.41702270507812 220.74923706054688 219.19139099121094" stroke-width="0.0" fill="url(#shape_43_fill)"/>
    <path d="M 483.9798278808594 395.44256591796875 C 486.82525634765625 399.797607421875 485.8501281738281 400.9890441894531 483.5487060546875 401.2406005859375 C 474.3872985839844 406.828857421875 451.1556701660156 406.6742858886719 450.24896240234375 407.6722717285156 C 448.0354919433594 404.4183654785156 451.5868225097656 396.1737060546875 453.6027526855469 396.4631042480469 C 462.54949951171875 393.0709533691406 473.4012451171875 392.82489013671875 483.9798278808594 395.44256591796875" stroke-width="0.0" fill="url(#shape_44_fill)"/>
    <path d="M 45.899925231933594 406.791259765625 C 45.32522201538086 408.34686279296875 35.86746597290039 411.70623779296875 34.86061477661133 414.1221008300781 C 32.83592224121094 414.7076110839844 32.509986877441406 416.16815185546875 29.488414764404297 416.4382019042969 C 28.00584602355957 417.8778076171875 25.186235427856445 418.07073974609375 21.632246017456055 420.7008056640625 C 17.546785354614258 420.18865966796875 0.45538467168807983 417.2304382324219 -0.8843283653259277 420.5924072265625 C 1.6558914184570312 419.61834716796875 -0.29754889011383057 410.6082763671875 0.5979800224304199 409.9815979003906 C 8.6520357131958 408.7156066894531 45.67287826538086 407.5593566894531 45.899925231933594 406.791259765625" stroke-width="0.0" fill="url(#shape_45_fill)"/>
    <path d="M 451.8315734863281 175.2876739501953 C 455.8223571777344 174.7783966064453 464.3059387207031 198.66433715820312 464.8837890625 202.52232360839844 C 462.5833740234375 209.64744567871094 451.6928405761719 209.61514282226562 449.4746398925781 206.76577758789062 C 448.3274841308594 203.24966430664062 449.0490417480469 198.3126983642578 448.84661865234375 195.3010711669922 C 447.9439697265625 194.54660034179688 447.6076965332031 192.18138122558594 448.5003967285156 187.73171997070312 C 451.1502685546875 187.06082153320312 450.5061340332031 183.64810180664062 451.8315734863281 175.2876739501953" stroke-width="0.0" fill="url(#shape_46_fill)"/>
    <path d="M 373.6323547363281 186.17572021484375 C 378.5541076660156 191.86795043945312 379.3351745605469 203.5945587158203 371.95001220703125 206.37725830078125 C 365.8646545410156 206.82765197753906 364.772216796875 204.85411071777344 361.78125 204.04055786132812 C 351.4112243652344 207.57286071777344 349.8018798828125 203.4897918701172 354.5533142089844 188.47862243652344 C 356.6449279785156 184.9613494873047 358.3661804199219 184.43258666992188 368.58453369140625 185.4009552001953 C 368.45965576171875 183.7674560546875 373.1902770996094 183.32281494140625 373.6323547363281 186.17572021484375" stroke-width="0.0" fill="url(#shape_47_fill)"/>
    <path d="M 472.88714599609375 264.59375 C 475.4515686035156 265.8923034667969 479.7261962890625 267.20684814453125 478.6360168457031 284.67926025390625 C 465.61749267578125 288.2052307128906 454.74176025390625 286.15789794921875 444.01397705078125 284.8763732910156 C 439.3027038574219 282.21807861328125 439.9970397949219 276.9565734863281 441.22314453125 276.486083984375 C 446.813232421875 266.887451171875 456.1780700683594 266.7171325683594 472.88714599609375 264.59375" stroke-width="0.0" fill="url(#shape_48_fill)"/>
    <path d="M 176.8266143798828 118.50271606445312 C 178.99180603027344 116.18421173095703 181.96444702148438 116.72346496582031 183.0988311767578 117.44805145263672 C 184.69189453125 120.21971893310547 183.8521728515625 122.34983825683594 184.9407958984375 124.92802429199219 C 180.75575256347656 130.21131896972656 186.2146759033203 136.6713104248047 184.7456512451172 141.9703369140625 C 181.21417236328125 147.29347229003906 172.2989044189453 145.06658935546875 171.85671997070312 146.7096710205078 C 170.774169921875 126.33769989013672 169.62564086914062 123.67586517333984 176.8266143798828 118.50271606445312" stroke-width="0.0" fill="url(#shape_49_fill)"/>
    <path d="M 333.99945068359375 427.7265930175781 C 337.4532165527344 428.3316955566406 340.9137878417969 429.28155517578125 342.8805236816406 432.04522705078125 C 346.3599548339844 435.6007385253906 345.162353515625 437.2301940917969 342.4820251464844 437.6092529296875 C 342.878173828125 445.5617370605469 324.9376525878906 447.6171569824219 323.0580749511719 441.4090576171875 C 318.3469543457031 437.43914794921875 316.2357177734375 432.9468994140625 314.38238525390625 430.7176208496094 C 322.27984619140625 426.5166015625 328.5662841796875 426.3781433105469 333.99945068359375 427.7265930175781" stroke-width="0.0" fill="url(#shape_50_fill)"/>
    <path d="M 298.5888977050781 390.37103271484375 C 298.8890380859375 393.9498596191406 295.56842041015625 398.92041015625 289.10693359375 399.1181945800781 C 282.3960876464844 397.2660827636719 280.7832336425781 398.4146423339844 271.3905029296875 402.67529296875 C 271.0448913574219 401.6199645996094 269.53533935546875 398.9939880371094 270.98931884765625 397.4811096191406 C 269.90008544921875 395.4962158203125 272.92791748046875 388.0115051269531 279.172607421875 388.7188720703125 C 283.3011779785156 386.830810546875 288.2970886230469 388.8243408203125 298.5888977050781 390.37103271484375" stroke-width="0.0" fill="url(#shape_51_fill)"/>
    <path d="M 269.55535888671875 185.738037109375 C 275.7868957519531 195.23851013183594 278.0386657714844 207.6061248779297 279.8301696777344 217.31893920898438 C 271.4470520019531 210.4987335205078 268.6833190917969 207.93783569335938 260.6746520996094 215.40179443359375 C 258.21966552734375 205.7691650390625 264.29144287109375 198.03936767578125 265.7989501953125 195.1399383544922 C 269.51837158203125 194.2037353515625 268.8887023925781 191.6727294921875 269.55535888671875 185.738037109375" stroke-width="0.0" fill="url(#shape_52_fill)"/>
    <path d="M 218.22164916992188 409.5771484375 C 215.93594360351562 411.01239013671875 215.537841796875 413.2121887207031 214.25091552734375 413.7910461425781 C 214.77186584472656 420.4760437011719 189.70468139648438 423.9806213378906 187.47386169433594 415.6514892578125 C 186.2637939453125 407.1040344238281 205.67564392089844 401.3421325683594 218.22164916992188 409.5771484375" stroke-width="0.0" fill="url(#shape_53_fill)"/>
    <path d="M 205.77671813964844 424.55206298828125 C 205.35484313964844 425.4222412109375 206.22198486328125 428.6370849609375 204.53903198242188 429.09765625 C 198.0627899169922 432.5267028808594 178.8359375 432.3397521972656 177.917724609375 432.7549743652344 C 176.6880645751953 430.9559326171875 178.14950561523438 425.9566345214844 176.71981811523438 423.90716552734375 C 186.61331176757812 419.0061340332031 196.18788146972656 421.55364990234375 205.77671813964844 424.55206298828125" stroke-width="0.0" fill="url(#shape_54_fill)"/>
    <path d="M 270.10858154296875 245.62741088867188 C 275.42242431640625 244.71754455566406 276.66827392578125 245.99966430664062 281.5929260253906 245.48257446289062 C 281.5428161621094 251.3072052001953 280.9904479980469 252.1409149169922 283.51629638671875 260.13775634765625 C 263.4610900878906 257.8888854980469 262.9212951660156 257.17449951171875 255.19468688964844 257.8822021484375 C 254.88406372070312 248.1728057861328 255.8569793701172 247.2288360595703 258.2701721191406 244.64511108398438 C 260.0824279785156 239.53602600097656 266.0160827636719 240.0908966064453 270.10858154296875 245.62741088867188" stroke-width="0.0" fill="url(#shape_55_fill)"/>
    <path d="M 274.18402099609375 359.6324462890625 C 277.0830078125 364.54693603515625 281.9954528808594 363.23968505859375 284.4909362792969 368.1011657714844 C 285.38671875 369.2445068359375 285.7060546875 371.8214416503906 285.5515441894531 379.7955627441406 C 277.5342102050781 379.9334716796875 265.3955993652344 383.10833740234375 250.26663208007812 382.0371398925781 C 246.38705444335938 378.4297180175781 247.8529815673828 364.3072204589844 249.20652770996094 362.27520751953125 C 256.05963134765625 360.82855224609375 262.41204833984375 359.8266296386719 274.18402099609375 359.6324462890625" stroke-width="0.0" fill="url(#shape_56_fill)"/>
    <path d="M 409.55450439453125 270.4768371582031 C 414.9922790527344 269.5416259765625 417.6328430175781 273.8999938964844 417.9395751953125 281.66644287109375 C 413.1675720214844 289.0691833496094 402.15631103515625 285.53082275390625 387.13189697265625 284.217041015625 C 385.1438903808594 269.6036376953125 393.7845764160156 264.9497375488281 409.55450439453125 270.4768371582031" stroke-width="0.0" fill="url(#shape_57_fill)"/>
    <path d="M 632.05029296875 351.7459411621094 C 632.9667358398438 354.1365661621094 659.680419921875 353.1247863769531 668.6830444335938 353.54315185546875 C 668.4603271484375 358.3494567871094 662.3795166015625 360.8893127441406 657.745361328125 356.6085205078125 C 652.8982543945312 356.3063659667969 634.0291137695312 360.7026062011719 631.4422607421875 361.0418701171875 C 627.7539672851562 357.1231384277344 629.2911376953125 353.56365966796875 632.05029296875 351.7459411621094" stroke-width="0.0" fill="url(#shape_58_fill)"/>
    <path d="M 341.2586975097656 385.1935119628906 C 342.77520751953125 390.3448791503906 358.1147155761719 391.8670654296875 359.1804504394531 394.7909240722656 C 356.5529479980469 398.8295593261719 340.16558837890625 401.7745361328125 338.4545593261719 399.5163879394531 C 335.1407165527344 399.60491943359375 333.086181640625 398.7723388671875 331.8732604980469 396.53460693359375 C 331.9852294921875 394.93994140625 330.75946044921875 393.4737243652344 332.38818359375 390.62274169921875 C 333.135498046875 385.0341796875 337.1534729003906 384.4290466308594 341.2586975097656 385.1935119628906" stroke-width="0.0" fill="url(#shape_59_fill)"/>
    <path d="M 460.2543029785156 363.9795227050781 C 462.7695617675781 365.0726623535156 471.7042236328125 369.4462890625 473.0893249511719 373.8708801269531 C 471.78472900390625 376.14874267578125 470.3323059082031 376.8283386230469 463.04541015625 375.9274597167969 C 459.2432556152344 376.7972106933594 457.41156005859375 376.7872009277344 452.67889404296875 370.8900451660156 C 452.9494323730469 369.0303039550781 458.77606201171875 364.8804931640625 460.2543029785156 363.9795227050781" stroke-width="0.0" fill="url(#shape_60_fill)"/>
    <path d="M 435.39874267578125 432.47039794921875 C 440.25518798828125 434.2525329589844 442.4901428222656 436.3388977050781 441.99755859375 439.0954895019531 C 440.4921875 442.34698486328125 430.1430358886719 441.0984191894531 425.8417053222656 442.52459716796875 C 422.5282897949219 438.1659851074219 424.1259765625 434.4585876464844 420.010986328125 428.50579833984375 C 428.39349365234375 429.7636413574219 431.9208068847656 434.7259826660156 435.39874267578125 432.47039794921875" stroke-width="0.0" fill="url(#shape_61_fill)"/>
    <path d="M 185.42916870117188 411.4542541503906 C 186.26197814941406 413.93170166015625 185.00949096679688 414.7928771972656 186.922119140625 417.8382263183594 C 184.85635375976562 420.14276123046875 183.4110107421875 419.5394592285156 182.35020446777344 419.6566467285156 C 181.21075439453125 422.0775451660156 174.8066864013672 419.99761962890625 171.17945861816406 420.2718200683594 C 169.5220184326172 417.9021911621094 169.75013732910156 415.6357116699219 173.00743103027344 413.73748779296875 C 176.22308349609375 412.0780944824219 180.5892333984375 410.8684387207031 185.42916870117188 411.4542541503906" stroke-width="0.0" fill="url(#shape_62_fill)"/>
    <path d="M 332.57049560546875 418.332763671875 C 334.9453430175781 426.20025634765625 329.9128723144531 428.04742431640625 327.2872009277344 426.1258239746094 C 324.6083984375 427.78485107421875 323.00634765625 426.7433776855469 320.4389953613281 427.6677551269531 C 318.7022705078125 426.0477294921875 319.6282958984375 419.9931640625 317.8143615722656 418.41717529296875 C 322.05859375 419.93914794921875 326.5274658203125 418.6978759765625 332.57049560546875 418.332763671875" stroke-width="0.0" fill="url(#shape_63_fill)"/>
    <path d="M 55.360904693603516 273.26806640625 C 56.53766632080078 269.8307800292969 66.28385925292969 270.29510498046875 66.33626556396484 278.8364562988281 C 59.31005096435547 278.88726806640625 53.449188232421875 273.3332824707031 47.87886428833008 275.95391845703125 C 49.32577896118164 272.8414306640625 52.267086029052734 272.3114013671875 55.360904693603516 273.26806640625" stroke-width="0.0" fill="url(#shape_64_fill)"/>
    <path d="M 304.3165283203125 438.6148986816406 C 304.4537048339844 437.0358581542969 305.8288269042969 436.05810546875 313.1553039550781 436.97418212890625 C 314.7979431152344 438.9283142089844 313.2413330078125 441.69378662109375 311.5333557128906 443.352294921875 C 307.84552001953125 445.4354553222656 306.7809143066406 444.23504638671875 304.9898986816406 445.24859619140625 C 303.0508117675781 441.5351867675781 302.28546142578125 439.4463195800781 304.3165283203125 438.6148986816406" stroke-width="0.0" fill="url(#shape_65_fill)"/>
    <path d="M -0.27395159006118774 -0.32343485951423645 C 223.94287109375 0.005250235088169575 443.699951171875 0.475420206785202 673.2698364257812 0.8547702431678772 C 673.9555053710938 151.07952880859375 674.5097045898438 295.2200622558594 673.4659423828125 445.4337158203125 C 450.4552001953125 446.16314697265625 230.82730102539062 446.108642578125 0.5855979323387146 445.2673645019531 C 0.27104002237319946 296.91448974609375 -0.07328163832426071 148.7836151123047 -0.27395159006118774 -0.32343485951423645" stroke-width="0.0" fill="url(#shape_66_fill)"/>
    <path d="M -0.8761612176895142 -0.09562573581933975 C 222.5626220703125 -0.11687479168176651 443.5497741699219 0.36959704756736755 673.281005859375 0.5040380954742432 C 674.0375366210938 151.07220458984375 674.5034790039062 294.5219421386719 673.2083129882812 445.2816162109375 C 450.3719177246094 446.2325744628906 231.09243774414062 446.1524353027344 0.7372199296951294 445.1544494628906 C 0.22766444087028503 296.808349609375 -0.19733580946922302 148.524169921875 -0.8761612176895142 -0.09562573581933975" stroke-width="0.0" fill="url(#shape_67_fill)"/>
    <path d="M -0.6262406706809998 -0.1830262392759323 C 222.91989135742188 -0.25640881061553955 443.1775207519531 0.30685970187187195 673.2544555664062 -0.09263992309570312 C 674.0109252929688 151.2141876220703 674.5074462890625 294.60205078125 673.2192993164062 445.2737121582031 C 450.4103088378906 446.236572265625 231.17372131347656 446.1502685546875 1.2948802709579468 445.12652587890625 C 0.4754677712917328 295.7108459472656 0.040356967598199844 148.70431518554688 -0.6262406706809998 -0.1830262392759323" stroke-width="0.0" fill="url(#shape_68_fill)"/>
  </g>
</svg>
