<?xml version="1.0" ?>
<svg xmlns="http://www.w3.org/2000/svg" version="1.1" width="674" height="446">
  <defs>
    <radialGradient id="shape_0_fill" cx="0.5385756676557863" cy="0.7443946188340808" r="0.27474543178116884">
      <stop offset="1.1361395e-07" stop-color="rgb(50, 51, 23)" stop-opacity="0.9999976754188538"/>
      <stop offset="1.0" stop-color="rgb(42, 42, 14)" stop-opacity="1.0"/>
    </radialGradient>
    <radialGradient id="shape_1_fill" cx="0.5385756676557863" cy="0.7488789237668162" r="0.2041171835155091">
      <stop offset="0.0" stop-color="rgb(48, 48, 21)" stop-opacity="1.0"/>
      <stop offset="0.999396" stop-color="rgb(36, 36, 9)" stop-opacity="1.0"/>
    </radialGradient>
    <radialGradient id="shape_2_fill" cx="0.09792284866468842" cy="0.7376681614349776" r="0.22062588021026522">
      <stop offset="0.0" stop-color="rgb(30, 90, 182)" stop-opacity="1.0"/>
      <stop offset="1.0" stop-color="rgb(17, 77, 193)" stop-opacity="1.0"/>
    </radialGradient>
    <radialGradient id="shape_3_fill" cx="0.2744807121661721" cy="0.21524665387756622" r="0.1251882332368845">
      <stop offset="0.0" stop-color="rgb(56, 68, 29)" stop-opacity="1.0"/>
      <stop offset="1.0" stop-color="rgb(53, 65, 27)" stop-opacity="1.0"/>
    </radialGradient>
    <radialGradient id="shape_4_fill" cx="0.1543026706231454" cy="0.9977578475336323" r="0.10288926755639141">
      <stop offset="0.0" stop-color="rgb(81, 79, 86)" stop-opacity="1.0"/>
      <stop offset="1.0" stop-color="rgb(81, 79, 86)" stop-opacity="1.0"/>
    </radialGradient>
    <radialGradient id="shape_5_fill" cx="0.14836795252225518" cy="0.2399103139013453" r="0.11835332581834199">
      <stop offset="0.0" stop-color="rgb(171, 168, 165)" stop-opacity="0.999633252620697"/>
      <stop offset="1.0" stop-color="rgb(172, 169, 166)" stop-opacity="0.995578944683075"/>
    </radialGradient>
    <radialGradient id="shape_6_fill" cx="0.18397626112759644" cy="0.9977578475336323" r="0.0754974885934892">
      <stop offset="0.0" stop-color="rgb(93, 90, 94)" stop-opacity="1.0"/>
      <stop offset="1.0" stop-color="rgb(93, 90, 95)" stop-opacity="1.0"/>
    </radialGradient>
    <radialGradient id="shape_7_fill" cx="0.2893175074183976" cy="0.05829596412556054" r="0.08666390552011372">
      <stop offset="0.0" stop-color="rgb(55, 66, 29)" stop-opacity="1.0"/>
      <stop offset="1.0" stop-color="rgb(54, 65, 29)" stop-opacity="1.0"/>
    </radialGradient>
    <radialGradient id="shape_8_fill" cx="0.3382789091115889" cy="0.9439461883408071" r="0.06756690277190167">
      <stop offset="0.0" stop-color="rgb(91, 124, 45)" stop-opacity="1.0"/>
      <stop offset="1.0" stop-color="rgb(91, 124, 45)" stop-opacity="1.0"/>
    </radialGradient>
    <radialGradient id="shape_9_fill" cx="0.30712166172106825" cy="0.9977578475336323" r="0.0730758406641929">
      <stop offset="0.0" stop-color="rgb(38, 48, 20)" stop-opacity="1.0"/>
      <stop offset="1.0" stop-color="rgb(38, 48, 20)" stop-opacity="1.0"/>
    </radialGradient>
    <radialGradient id="shape_10_fill" cx="0.3056379821958457" cy="0.9977578475336323" r="0.06792919147615971">
      <stop offset="0.0" stop-color="rgb(39, 49, 21)" stop-opacity="1.0"/>
      <stop offset="1.0" stop-color="rgb(39, 48, 21)" stop-opacity="1.0"/>
    </radialGradient>
    <radialGradient id="shape_11_fill" cx="0.21810089020771514" cy="0.968609865470852" r="0.06792919147615971">
      <stop offset="0.0" stop-color="rgb(138, 135, 129)" stop-opacity="1.0"/>
      <stop offset="1.0" stop-color="rgb(139, 136, 131)" stop-opacity="0.9945258498191833"/>
    </radialGradient>
    <radialGradient id="shape_12_fill" cx="0.29080118694362017" cy="0.9977578475336323" r="0.07480746985189285">
      <stop offset="0.0" stop-color="rgb(22, 25, 13)" stop-opacity="1.0"/>
      <stop offset="1.0" stop-color="rgb(22, 24, 12)" stop-opacity="1.0"/>
    </radialGradient>
    <radialGradient id="shape_13_fill" cx="0.327893175074184" cy="0.8923766816143498" r="0.06900465877544279">
      <stop offset="0.0" stop-color="rgb(89, 117, 50)" stop-opacity="1.0"/>
      <stop offset="1.0" stop-color="rgb(88, 117, 50)" stop-opacity="0.9998388290405273"/>
    </radialGradient>
    <radialGradient id="shape_14_fill" cx="0.142433234421365" cy="0.9977578475336323" r="0.06617211022079875">
      <stop offset="0.0" stop-color="rgb(155, 150, 153)" stop-opacity="1.0"/>
      <stop offset="1.0" stop-color="rgb(156, 151, 154)" stop-opacity="0.9951816201210022"/>
    </radialGradient>
    <radialGradient id="shape_15_fill" cx="0.31008902077151335" cy="0.9977578475336323" r="0.06683642786405207">
      <stop offset="0.0" stop-color="rgb(43, 55, 23)" stop-opacity="1.0"/>
      <stop offset="1.0" stop-color="rgb(42, 54, 23)" stop-opacity="0.9997808337211609"/>
    </radialGradient>
    <radialGradient id="shape_16_fill" cx="0.27299703264094954" cy="0.9977578475336323" r="0.08110449363640579">
      <stop offset="0.0" stop-color="rgb(31, 35, 19)" stop-opacity="1.0"/>
      <stop offset="1.0" stop-color="rgb(30, 34, 18)" stop-opacity="1.0"/>
    </radialGradient>
    <radialGradient id="shape_17_fill" cx="0.2893175074183976" cy="0.9977578475336323" r="0.07513486030193747">
      <stop offset="0.0" stop-color="rgb(22, 23, 13)" stop-opacity="1.0"/>
      <stop offset="1.0" stop-color="rgb(21, 22, 12)" stop-opacity="1.0"/>
    </radialGradient>
    <radialGradient id="shape_18_fill" cx="0.3293768545994065" cy="0.7556053811659192" r="0.06617211022079875">
      <stop offset="0.0" stop-color="rgb(83, 108, 65)" stop-opacity="1.0"/>
      <stop offset="1.0" stop-color="rgb(83, 108, 65)" stop-opacity="1.0"/>
    </radialGradient>
    <radialGradient id="shape_19_fill" cx="0.3516320474777448" cy="0.9977578475336323" r="0.06617211022079875">
      <stop offset="0.0" stop-color="rgb(95, 135, 39)" stop-opacity="1.0"/>
      <stop offset="1.0" stop-color="rgb(95, 135, 39)" stop-opacity="1.0"/>
    </radialGradient>
    <radialGradient id="shape_20_fill" cx="0.0830860534124629" cy="0.9977578475336323" r="0.06792919147615971">
      <stop offset="0.0" stop-color="rgb(49, 52, 66)" stop-opacity="1.0"/>
      <stop offset="1.0" stop-color="rgb(35, 38, 79)" stop-opacity="1.0"/>
    </radialGradient>
    <radialGradient id="shape_21_fill" cx="0.29821958456973297" cy="0.9977578475336323" r="0.06792919147615971">
      <stop offset="0.0" stop-color="rgb(33, 40, 17)" stop-opacity="1.0"/>
      <stop offset="1.0" stop-color="rgb(32, 39, 16)" stop-opacity="1.0"/>
    </radialGradient>
    <radialGradient id="shape_22_fill" cx="0.35608306341425955" cy="0.4439461883408072" r="0.06617211022079875">
      <stop offset="0.0" stop-color="rgb(106, 133, 45)" stop-opacity="0.9999330043792725"/>
      <stop offset="1.0" stop-color="rgb(106, 133, 45)" stop-opacity="0.9996013641357422"/>
    </radialGradient>
    <radialGradient id="shape_23_fill" cx="0.6454005934718101" cy="0.1412556053811659" r="0.06617211022079875">
      <stop offset="0.0" stop-color="rgb(46, 38, 13)" stop-opacity="1.0"/>
      <stop offset="1.0" stop-color="rgb(32, 24, 0)" stop-opacity="1.0"/>
    </radialGradient>
    <radialGradient id="shape_24_fill" cx="0.24925816023738873" cy="0.484304932735426" r="0.06617211022079875">
      <stop offset="0.0" stop-color="rgb(201, 208, 206)" stop-opacity="1.0"/>
      <stop offset="1.0" stop-color="rgb(201, 209, 207)" stop-opacity="1.0"/>
    </radialGradient>
    <radialGradient id="shape_25_fill" cx="0.6320474777448071" cy="0.9977578475336323" r="0.06617211022079875">
      <stop offset="0.0" stop-color="rgb(35, 28, 8)" stop-opacity="1.0"/>
      <stop offset="1.0" stop-color="rgb(34, 27, 7)" stop-opacity="1.0"/>
    </radialGradient>
    <radialGradient id="shape_26_fill" cx="0.1543026706231454" cy="0.32062780269058294" r="0.06617211022079875">
      <stop offset="0.0" stop-color="rgb(85, 94, 63)" stop-opacity="0.9999991655349731"/>
      <stop offset="1.0" stop-color="rgb(85, 94, 63)" stop-opacity="0.9999825954437256"/>
    </radialGradient>
    <radialGradient id="shape_27_fill" cx="0.1543026706231454" cy="0.32062780269058294" r="0.06617211022079875">
      <stop offset="0.0" stop-color="rgb(84, 94, 62)" stop-opacity="0.9999998807907104"/>
      <stop offset="1.0" stop-color="rgb(84, 94, 62)" stop-opacity="0.9999661445617676"/>
    </radialGradient>
    <radialGradient id="shape_28_fill" cx="0.04154299274750209" cy="0.022421518248827467" r="0.06617213285995166">
      <stop offset="0.00062286365" stop-color="rgb(20, 41, 50)" stop-opacity="1.0"/>
      <stop offset="1.0" stop-color="rgb(20, 41, 50)" stop-opacity="1.0"/>
    </radialGradient>
    <radialGradient id="shape_29_fill" cx="0.33976258863681147" cy="0.6659192825112108" r="0.06617211022079875">
      <stop offset="0.0" stop-color="rgb(90, 117, 55)" stop-opacity="1.0"/>
      <stop offset="1.0" stop-color="rgb(90, 117, 55)" stop-opacity="1.0"/>
    </radialGradient>
    <radialGradient id="shape_30_fill" cx="0.04154301821654911" cy="0.020179365782459754" r="0.06617211588058698">
      <stop offset="0.00030940908" stop-color="rgb(21, 41, 48)" stop-opacity="0.9955341815948486"/>
      <stop offset="1.0" stop-color="rgb(21, 41, 48)" stop-opacity="0.9873354434967041"/>
    </radialGradient>
    <radialGradient id="shape_31_fill" cx="0.12314540059347182" cy="0.9977578475336323" r="0.06617211022079875">
      <stop offset="0.0" stop-color="rgb(95, 103, 98)" stop-opacity="1.0"/>
      <stop offset="1.0" stop-color="rgb(95, 103, 98)" stop-opacity="0.9996609091758728"/>
    </radialGradient>
    <radialGradient id="shape_32_fill" cx="0.4035608308605341" cy="0.984304932735426" r="0.06617211022079875">
      <stop offset="0.0" stop-color="rgb(126, 155, 63)" stop-opacity="1.0"/>
      <stop offset="1.0" stop-color="rgb(126, 155, 62)" stop-opacity="1.0"/>
    </radialGradient>
    <radialGradient id="shape_33_fill" cx="0.3249258160237389" cy="0.6053811659192825" r="0.06617211022079875">
      <stop offset="0.0" stop-color="rgb(93, 124, 71)" stop-opacity="1.0"/>
      <stop offset="1.0" stop-color="rgb(93, 124, 71)" stop-opacity="1.0"/>
    </radialGradient>
    <radialGradient id="shape_34_fill" cx="0.6468842729970327" cy="0.531390134529148" r="0.06617211022079875">
      <stop offset="0.0" stop-color="rgb(54, 47, 24)" stop-opacity="1.0"/>
      <stop offset="1.0" stop-color="rgb(54, 47, 23)" stop-opacity="0.9999585151672363"/>
    </radialGradient>
    <radialGradient id="shape_35_fill" cx="0.142433234421365" cy="0.23318385650224216" r="0.06617211022079875">
      <stop offset="0.0" stop-color="rgb(74, 87, 45)" stop-opacity="0.9999079704284668"/>
      <stop offset="1.0" stop-color="rgb(74, 87, 45)" stop-opacity="0.9998102784156799"/>
    </radialGradient>
    <radialGradient id="shape_36_fill" cx="0.2878338278931751" cy="0.9977578475336323" r="0.06617211022079875">
      <stop offset="0.0" stop-color="rgb(80, 96, 53)" stop-opacity="1.0"/>
      <stop offset="1.0" stop-color="rgb(80, 96, 53)" stop-opacity="1.0"/>
    </radialGradient>
    <radialGradient id="shape_37_fill" cx="0.129080118694362" cy="0.9977578475336323" r="0.06617211022079875">
      <stop offset="0.0" stop-color="rgb(87, 97, 81)" stop-opacity="1.0"/>
      <stop offset="1.0" stop-color="rgb(87, 97, 81)" stop-opacity="0.9999821186065674"/>
    </radialGradient>
    <radialGradient id="shape_38_fill" cx="0.3382789091115889" cy="0.5605381165919282" r="0.06617211022079875">
      <stop offset="0.0" stop-color="rgb(79, 106, 48)" stop-opacity="1.0"/>
      <stop offset="1.0" stop-color="rgb(79, 106, 48)" stop-opacity="1.0"/>
    </radialGradient>
    <radialGradient id="shape_39_fill" cx="0.40059347181008903" cy="0.9641255605381166" r="0.06617211022079875">
      <stop offset="0.0" stop-color="rgb(138, 168, 60)" stop-opacity="1.0"/>
      <stop offset="1.0" stop-color="rgb(138, 168, 60)" stop-opacity="1.0"/>
    </radialGradient>
    <radialGradient id="shape_40_fill" cx="0.6172106824925816" cy="0.8834080717488789" r="0.06617211022079875">
      <stop offset="0.0" stop-color="rgb(45, 39, 28)" stop-opacity="1.0"/>
      <stop offset="1.0" stop-color="rgb(44, 39, 28)" stop-opacity="1.0"/>
    </radialGradient>
    <radialGradient id="shape_41_fill" cx="0.6454005934718101" cy="0.08744394618834081" r="0.06617211022079875">
      <stop offset="0.0" stop-color="rgb(58, 48, 21)" stop-opacity="1.0"/>
      <stop offset="1.0" stop-color="rgb(44, 34, 7)" stop-opacity="0.9495005011558533"/>
    </radialGradient>
    <radialGradient id="shape_42_fill" cx="0.5845697329376854" cy="0.6188340807174888" r="0.06617211022079875">
      <stop offset="0.0" stop-color="rgb(62, 59, 56)" stop-opacity="1.0"/>
      <stop offset="1.0" stop-color="rgb(62, 59, 56)" stop-opacity="0.9999676942825317"/>
    </radialGradient>
    <radialGradient id="shape_43_fill" cx="0.3575667429394821" cy="0.5067264573991032" r="0.06617211022079875">
      <stop offset="0.0" stop-color="rgb(104, 143, 36)" stop-opacity="1.0"/>
      <stop offset="1.0" stop-color="rgb(104, 143, 36)" stop-opacity="1.0"/>
    </radialGradient>
    <radialGradient id="shape_44_fill" cx="0.5934718100890207" cy="0.9977578475336323" r="0.06617211022079875">
      <stop offset="0.0" stop-color="rgb(89, 61, 18)" stop-opacity="1.0"/>
      <stop offset="1.0" stop-color="rgb(89, 61, 18)" stop-opacity="0.9999518394470215"/>
    </radialGradient>
    <radialGradient id="shape_45_fill" cx="0.612759643916914" cy="0.04035874439461883" r="0.06617211022079875">
      <stop offset="0.0" stop-color="rgb(157, 136, 123)" stop-opacity="1.0"/>
      <stop offset="1.0" stop-color="rgb(164, 142, 130)" stop-opacity="1.0"/>
    </radialGradient>
    <radialGradient id="shape_46_fill" cx="0.28635014836795253" cy="0.9977578475336323" r="0.06617211022079875">
      <stop offset="0.0" stop-color="rgb(82, 99, 55)" stop-opacity="1.0"/>
      <stop offset="1.0" stop-color="rgb(82, 99, 55)" stop-opacity="0.9999961256980896"/>
    </radialGradient>
    <radialGradient id="shape_47_fill" cx="0.28635014836795253" cy="0.8183856502242153" r="0.06617211022079875">
      <stop offset="0.0" stop-color="rgb(166, 189, 197)" stop-opacity="1.0"/>
      <stop offset="1.0" stop-color="rgb(167, 189, 197)" stop-opacity="0.9994518756866455"/>
    </radialGradient>
    <radialGradient id="shape_48_fill" cx="0.40801186943620177" cy="0.9977578475336323" r="0.06617211022079875">
      <stop offset="0.0" stop-color="rgb(107, 135, 68)" stop-opacity="1.0"/>
      <stop offset="1.0" stop-color="rgb(107, 135, 68)" stop-opacity="0.9999891519546509"/>
    </radialGradient>
    <radialGradient id="shape_49_fill" cx="0.19287833827893175" cy="0.3991031390134529" r="0.06617211022079875">
      <stop offset="0.0" stop-color="rgb(92, 100, 54)" stop-opacity="1.0"/>
      <stop offset="1.0" stop-color="rgb(92, 100, 54)" stop-opacity="0.9998494982719421"/>
    </radialGradient>
    <radialGradient id="shape_50_fill" cx="0.6439169139465876" cy="0.7376681614349776" r="0.06617211022079875">
      <stop offset="0.0" stop-color="rgb(65, 56, 25)" stop-opacity="1.0"/>
      <stop offset="1.0" stop-color="rgb(65, 56, 25)" stop-opacity="0.9999678730964661"/>
    </radialGradient>
    <radialGradient id="shape_51_fill" cx="0.5845697329376854" cy="0.6322869955156951" r="0.06617211022079875">
      <stop offset="0.0" stop-color="rgb(75, 68, 60)" stop-opacity="1.0"/>
      <stop offset="1.0" stop-color="rgb(75, 68, 60)" stop-opacity="0.9999822974205017"/>
    </radialGradient>
    <radialGradient id="shape_52_fill" cx="0.2997032640949555" cy="0.6031390134529148" r="0.06617211022079875">
      <stop offset="0.0" stop-color="rgb(107, 158, 118)" stop-opacity="1.0"/>
      <stop offset="1.0" stop-color="rgb(107, 158, 118)" stop-opacity="1.0"/>
    </radialGradient>
    <radialGradient id="shape_53_fill" cx="0.6097922848664689" cy="0.45067264573991034" r="0.06617211022079875">
      <stop offset="0.0" stop-color="rgb(38, 39, 27)" stop-opacity="1.0"/>
      <stop offset="1.0" stop-color="rgb(38, 39, 27)" stop-opacity="1.0"/>
    </radialGradient>
    <radialGradient id="shape_54_fill" cx="0.6335311572700296" cy="0.426009002822397" r="0.06617211022079875">
      <stop offset="0.0" stop-color="rgb(67, 49, 20)" stop-opacity="1.0"/>
      <stop offset="1.0" stop-color="rgb(67, 49, 20)" stop-opacity="0.9999770522117615"/>
    </radialGradient>
    <radialGradient id="shape_55_fill" cx="0.37091988130563797" cy="0.5986547085201793" r="0.06617211022079875">
      <stop offset="0.0" stop-color="rgb(132, 174, 55)" stop-opacity="0.9999118447303772"/>
      <stop offset="1.0" stop-color="rgb(132, 174, 55)" stop-opacity="0.9997745752334595"/>
    </radialGradient>
    <radialGradient id="shape_56_fill" cx="0.5489614243323442" cy="0.600896860986547" r="0.06617211022079875">
      <stop offset="0.0" stop-color="rgb(50, 62, 80)" stop-opacity="1.0"/>
      <stop offset="1.0" stop-color="rgb(50, 62, 80)" stop-opacity="1.0"/>
    </radialGradient>
    <radialGradient id="shape_57_fill" cx="0.4094955489614243" cy="0.9035874439461884" r="0.06617211022079875">
      <stop offset="0.0" stop-color="rgb(111, 144, 47)" stop-opacity="1.0"/>
      <stop offset="1.0" stop-color="rgb(111, 144, 46)" stop-opacity="0.9999389052391052"/>
    </radialGradient>
    <radialGradient id="shape_58_fill" cx="0.5281899109792285" cy="0.9977578475336323" r="0.06617211022079875">
      <stop offset="0.0" stop-color="rgb(50, 43, 14)" stop-opacity="1.0"/>
      <stop offset="1.0" stop-color="rgb(50, 43, 14)" stop-opacity="1.0"/>
    </radialGradient>
    <radialGradient id="shape_59_fill" cx="0.5845697329376854" cy="0.7690582959641256" r="0.06617211022079875">
      <stop offset="0.0" stop-color="rgb(61, 63, 58)" stop-opacity="1.0"/>
      <stop offset="1.0" stop-color="rgb(61, 63, 58)" stop-opacity="0.9999809265136719"/>
    </radialGradient>
    <radialGradient id="shape_60_fill" cx="0.5489614243323442" cy="0.9977578475336323" r="0.06617211022079875">
      <stop offset="0.0" stop-color="rgb(140, 131, 64)" stop-opacity="1.0"/>
      <stop offset="1.0" stop-color="rgb(140, 131, 64)" stop-opacity="1.0"/>
    </radialGradient>
    <radialGradient id="shape_61_fill" cx="0.6468842729970327" cy="0.968609865470852" r="0.06617211022079875">
      <stop offset="0.0" stop-color="rgb(95, 74, 23)" stop-opacity="0.9999881386756897"/>
      <stop offset="1.0" stop-color="rgb(95, 74, 23)" stop-opacity="0.9999845027923584"/>
    </radialGradient>
    <radialGradient id="shape_62_fill" cx="0.615727002967359" cy="0.3991031390134529" r="0.06617211022079875">
      <stop offset="0.0" stop-color="rgb(55, 47, 13)" stop-opacity="1.0"/>
      <stop offset="1.0" stop-color="rgb(55, 47, 13)" stop-opacity="0.9999971389770508"/>
    </radialGradient>
    <radialGradient id="shape_63_fill" cx="0.6261127596439169" cy="0.7286995515695067" r="0.06617211022079875">
      <stop offset="0.0" stop-color="rgb(79, 66, 32)" stop-opacity="1.0"/>
      <stop offset="1.0" stop-color="rgb(79, 66, 32)" stop-opacity="0.9999839663505554"/>
    </radialGradient>
    <radialGradient id="shape_64_fill" cx="0.40801186943620177" cy="0.12556053811659193" r="0.06617211022079875">
      <stop offset="0.0" stop-color="rgb(76, 66, 59)" stop-opacity="1.0"/>
      <stop offset="1.0" stop-color="rgb(76, 66, 59)" stop-opacity="1.0"/>
    </radialGradient>
    <radialGradient id="shape_65_fill" cx="0.6528189910979229" cy="0.6883408071748879" r="0.06617211022079875">
      <stop offset="0.0" stop-color="rgb(121, 97, 39)" stop-opacity="1.0"/>
      <stop offset="1.0" stop-color="rgb(121, 97, 39)" stop-opacity="1.0"/>
    </radialGradient>
    <radialGradient id="shape_66_fill" cx="0.6483679525222552" cy="0.4618834080717489" r="0.06617215549910457">
      <stop offset="0.0015834195" stop-color="rgb(65, 75, 50)" stop-opacity="0.9720308780670166"/>
      <stop offset="1.0" stop-color="rgb(62, 60, 51)" stop-opacity="0.9687113165855408"/>
    </radialGradient>
    <radialGradient id="shape_67_fill" cx="0.5935049085305777" cy="0.9976892171953826" r="0.06621668671288193">
      <stop offset="0.03670063" stop-color="rgb(60, 42, 12)" stop-opacity="1.0"/>
      <stop offset="1.0" stop-color="rgb(60, 42, 38)" stop-opacity="1.0"/>
    </radialGradient>
    <radialGradient id="shape_68_fill" cx="0.4867188767792563" cy="0.9976439198036365" r="0.06624828531055847">
      <stop offset="0.052262884" stop-color="rgb(94, 101, 32)" stop-opacity="0.9311557412147522"/>
      <stop offset="1.0" stop-color="rgb(94, 101, 67)" stop-opacity="0.9316875338554382"/>
    </radialGradient>
  </defs>
  <g>
    <path d="M -0.10269686579704285 274.06280517578125 C 23.109731674194336 273.690673828125 31.37322998046875 275.1336975097656 40.929290771484375 275.32135009765625 C 48.4880485534668 275.710205078125 48.916595458984375 277.09552001953125 56.97224044799805 274.2344665527344 C 60.4266242980957 274.1144104003906 63.53797912597656 274.8022766113281 66.15975189208984 276.2625427246094 C 76.2604751586914 278.2129211425781 104.66845703125 277.7574157714844 108.51428985595703 278.5027160644531 C 114.02455139160156 278.1791687011719 124.4034194946289 279.68048095703125 127.94767761230469 280.8780517578125 C 134.5428924560547 281.643310546875 140.787841796875 281.1519775390625 149.24754333496094 281.653076171875 C 185.3982696533203 281.9069519042969 185.6160125732422 282.43182373046875 199.41455078125 286.0159912109375 C 204.4481201171875 288.6731262207031 196.83937072753906 285.7884826660156 222.85055541992188 283.0740051269531 C 234.17291259765625 284.2113342285156 277.3756408691406 283.2035827636719 303.0601806640625 284.5848693847656 C 336.4559631347656 285.67315673828125 417.50830078125 285.41259765625 458.6495361328125 284.465576171875 C 482.17578125 283.55731201171875 531.6831665039062 284.620849609375 541.7540893554688 285.71575927734375 C 550.76953125 287.65789794921875 549.525634765625 283.4013366699219 558.9940795898438 285.27374267578125 C 568.2431640625 286.8409118652344 608.6561279296875 286.8882141113281 617.2218627929688 287.1773376464844 C 641.5278930664062 287.09051513671875 650.9954833984375 287.7825927734375 655.749755859375 287.8265686035156 C 661.1883544921875 288.1949157714844 671.147705078125 287.4958801269531 674.0364379882812 289.047607421875 C 674.1404418945312 340.81317138671875 673.8060302734375 392.6224670410156 673.966552734375 445.935791015625 C 451.4442138671875 446.05389404296875 229.14239501953125 446.02130126953125 0.199922576546669 445.91558837890625 C -0.1907137930393219 389.0949401855469 0.18676094710826874 332.35711669921875 -0.10269686579704285 274.06280517578125" stroke-width="0.0" fill="url(#shape_0_fill)"/>
    <path d="M 0.07034697383642197 275.1632385253906 C 36.068519592285156 275.2389221191406 36.42271423339844 274.759521484375 44.18052291870117 276.9407043457031 C 56.37762451171875 279.2891845703125 67.6238784790039 278.0003967285156 76.8651351928711 278.74945068359375 C 113.49664306640625 278.8085021972656 113.85711669921875 279.190185546875 126.09600067138672 280.68804931640625 C 130.28726196289062 281.5028991699219 154.3611602783203 281.1044616699219 156.72117614746094 281.40771484375 C 185.1727294921875 281.50860595703125 185.39990234375 282.0029296875 195.3712158203125 285.8835754394531 C 200.8037109375 288.22930908203125 201.84957885742188 287.0022277832031 216.6131591796875 284.1448974609375 C 228.79266357421875 283.0187072753906 281.501708984375 284.4495849609375 302.75244140625 285.1524658203125 C 328.5845642089844 287.02978515625 441.6307373046875 284.77117919921875 446.70904541015625 285.1181945800781 C 467.0695495605469 284.83843994140625 483.26318359375 285.0621643066406 501.974853515625 285.42669677734375 C 508.6500549316406 286.2855224609375 516.3051147460938 286.04833984375 522.9820556640625 286.19000244140625 C 527.5254516601562 285.8476257324219 531.66552734375 286.04583740234375 535.342529296875 286.79132080078125 C 543.867919921875 286.8009948730469 552.0144653320312 287.3554382324219 560.2666015625 286.7289733886719 C 569.788818359375 286.70782470703125 579.593017578125 286.9234313964844 588.7261352539062 287.6678161621094 C 603.91162109375 288.2372741699219 618.4240112304688 287.86505126953125 633.599365234375 288.1891174316406 C 647.0244750976562 287.81695556640625 660.396728515625 288.35321044921875 674.1593017578125 288.9927673339844 C 673.8197021484375 340.8873596191406 674.2332153320312 392.4161071777344 674.0325927734375 446.1421813964844 C 451.47882080078125 446.19683837890625 229.20994567871094 446.06817626953125 -0.1388271301984787 446.0611267089844 C -0.045493096113204956 389.4900207519531 -0.12500639259815216 333.115478515625 0.07034697383642197 275.1632385253906" stroke-width="0.0" fill="url(#shape_1_fill)"/>
    <path d="M 0.006482237949967384 -0.11970313638448715 C 219.763671875 -0.0567900724709034 439.3893127441406 -0.1619424670934677 666.0414428710938 0.20866842567920685 C 659.399169921875 4.699954986572266 643.6072387695312 34.30033874511719 636.4281616210938 46.125152587890625 C 633.1383666992188 50.642696380615234 608.0079345703125 90.0448989868164 582.2880859375 80.66622161865234 C 578.0511474609375 80.43331909179688 560.455322265625 67.32390594482422 529.7706909179688 68.89234161376953 C 527.2469482421875 70.27825927734375 524.9172973632812 71.7712631225586 522.3126831054688 70.2193832397461 C 523.866455078125 68.76322937011719 501.8677978515625 61.61096954345703 501.23876953125 61.92438507080078 C 492.2408142089844 61.49843215942383 484.3942565917969 60.784156799316406 477.1991271972656 66.049560546875 C 474.4582824707031 69.1302719116211 474.44171142578125 72.91465759277344 473.4676513671875 76.13579559326172 C 472.52850341796875 86.21832275390625 462.8968505859375 102.51214599609375 458.91241455078125 107.34003448486328 C 455.7144775390625 109.22571563720703 453.4276123046875 107.831298828125 450.5908203125 107.3773422241211 C 439.99969482421875 103.87229919433594 412.21539306640625 101.6688003540039 409.8079528808594 105.06897735595703 C 402.4140625 112.36341857910156 402.1628112792969 116.7287826538086 399.7809143066406 123.75016021728516 C 398.29962158203125 132.54331970214844 391.3794250488281 135.89541625976562 389.2411193847656 137.5565948486328 C 380.8348693847656 141.46180725097656 379.7798156738281 160.8974151611328 378.99273681640625 164.82199096679688 C 378.3240661621094 170.60475158691406 377.14678955078125 174.8699951171875 373.76312255859375 179.75723266601562 C 371.3209533691406 182.07374572753906 368.14447021484375 181.25668334960938 355.6934814453125 185.7730712890625 C 345.7151794433594 193.248779296875 334.3261413574219 184.4723358154297 320.5988464355469 183.20794677734375 C 316.5456237792969 183.39230346679688 315.9825439453125 189.71571350097656 314.4607849121094 192.46279907226562 C 313.3808288574219 196.94549560546875 311.4563293457031 199.15573120117188 308.0049743652344 201.86119079589844 C 307.04638671875 201.94903564453125 303.3617248535156 199.96144104003906 302.20245361328125 197.2748260498047 C 299.6111145019531 192.875732421875 296.1817932128906 194.6185760498047 294.6535339355469 193.94708251953125 C 293.96527099609375 195.77101135253906 292.1561279296875 199.05508422851562 287.7231140136719 198.92962646484375 C 279.1778564453125 198.54556274414062 277.54608154296875 193.62962341308594 277.03485107421875 193.19261169433594 C 275.2200012207031 190.49063110351562 272.31817626953125 191.3279266357422 269.4909973144531 190.96554565429688 C 264.39251708984375 191.53414916992188 262.3267517089844 197.42184448242188 260.52032470703125 198.390380859375 C 261.4798278808594 198.60704040527344 260.3533020019531 200.44976806640625 257.55633544921875 201.2761993408203 C 256.4582824707031 202.62391662597656 251.14419555664062 202.6278076171875 249.0117645263672 202.09768676757812 C 244.3182373046875 196.91189575195312 245.1175537109375 195.07823181152344 241.6225128173828 183.49850463867188 C 245.8406524658203 177.35623168945312 212.65538024902344 145.290283203125 210.97572326660156 143.11668395996094 C 185.01034545898438 120.73966979980469 196.61875915527344 98.27192687988281 193.07359313964844 88.56185150146484 C 194.26722717285156 84.12339782714844 156.7786407470703 72.41744232177734 147.38760375976562 65.9120864868164 C 123.82916259765625 43.333580017089844 61.549400329589844 54.009281158447266 36.393558502197266 61.147552490234375 C 16.329269409179688 69.50474548339844 13.21590805053711 65.39408111572266 -0.1749292016029358 66.2001724243164 C 0.2363986074924469 44.09136199951172 -0.20596936345100403 22.541399002075195 0.006482237949967384 -0.11970313638448715" stroke-width="0.0" fill="url(#shape_2_fill)"/>
    <path d="M 88.38611602783203 66.36282348632812 C 88.7385025024414 71.66675567626953 90.56551361083984 66.80770874023438 92.31423950195312 70.35917663574219 C 93.58515167236328 73.7187271118164 94.79963684082031 80.99491882324219 94.71898651123047 82.6014404296875 C 95.70004272460938 83.52711486816406 99.45362854003906 83.34564971923828 101.69194030761719 81.81485748291016 C 104.28809356689453 79.05690002441406 106.84532928466797 78.496826171875 110.14395141601562 79.14281463623047 C 114.17202758789062 85.61296081542969 115.63198852539062 91.69586944580078 116.07417297363281 99.60049438476562 C 116.51959228515625 100.04077911376953 117.3408203125 108.01445770263672 119.05282592773438 111.17927551269531 C 120.44524383544922 109.98689270019531 125.44548797607422 110.51555633544922 126.60452270507812 107.76083374023438 C 127.69131469726562 105.66621398925781 135.7122802734375 104.50161743164062 136.14691162109375 104.23114013671875 C 136.35855102539062 103.45790100097656 135.76075744628906 102.02009582519531 136.77490234375 97.82780456542969 C 136.64218139648438 93.10768127441406 137.2733612060547 93.01392364501953 137.1799774169922 88.41742706298828 C 137.57550048828125 84.93495178222656 138.3816375732422 84.7104263305664 140.82180786132812 83.30665588378906 C 137.42041015625 83.42886352539062 147.03953552246094 82.15718841552734 147.4716339111328 83.83509826660156 C 147.4714813232422 86.46717834472656 149.35609436035156 96.71583557128906 149.3821563720703 101.54725646972656 C 156.11422729492188 103.66835021972656 148.2595672607422 104.95027923583984 150.0582275390625 107.58052062988281 C 154.38723754882812 108.6607437133789 149.92555236816406 114.0020523071289 149.0441436767578 113.72224426269531 C 156.14918518066406 111.54500579833984 157.38858032226562 122.65564727783203 158.18045043945312 122.88523864746094 C 161.56158447265625 124.10113525390625 165.33010864257812 123.83570098876953 170.64013671875 123.66488647460938 C 176.0024871826172 119.8360366821289 174.33682250976562 121.1712417602539 177.82574462890625 121.19645690917969 C 179.8414764404297 122.03011322021484 179.29852294921875 125.35005950927734 181.60556030273438 128.7593231201172 C 184.84584045410156 130.04409790039062 181.37265014648438 134.1185302734375 184.1819305419922 134.767333984375 C 187.82252502441406 134.4179229736328 190.2996063232422 140.7301788330078 191.36383056640625 142.62490844726562 C 194.16990661621094 144.4455108642578 206.49818420410156 156.617919921875 204.58546447753906 171.28836059570312 C 205.28236389160156 174.05914306640625 205.68455505371094 176.99305725097656 208.41067504882812 179.6598358154297 C 210.4183349609375 180.78660583496094 214.2833251953125 200.30885314941406 212.64720153808594 204.87013244628906 C 212.27383422851562 209.4329833984375 204.46426391601562 209.39625549316406 202.43719482421875 209.8671417236328 C 200.6011199951172 211.03677368164062 200.4644775390625 211.26715087890625 199.4468536376953 213.0703887939453 C 197.614990234375 217.13070678710938 195.19967651367188 217.30728149414062 191.64332580566406 218.76870727539062 C 184.73248291015625 221.56581115722656 183.16250610351562 224.36155700683594 179.54751586914062 230.87619018554688 C 175.92750549316406 233.3905792236328 179.30072021484375 239.8572998046875 177.2510528564453 241.87989807128906 C 176.03335571289062 247.91624450683594 180.0529022216797 254.9617919921875 173.90432739257812 260.64886474609375 C 170.70423889160156 263.8842468261719 145.4081268310547 264.11627197265625 138.82290649414062 265.23956298828125 C 129.3102264404297 265.74053955078125 122.70449829101562 267.47613525390625 113.68087005615234 268.7958068847656 C 104.141845703125 270.96258544921875 77.1160659790039 269.8575744628906 73.28790283203125 270.0086364746094 C 47.2752571105957 267.013916015625 57.00719451904297 268.2495422363281 51.03646469116211 268.6853942871094 C 43.69163131713867 271.7854309082031 1.9820343255996704 269.72509765625 -0.005159598309546709 267.9510192871094 C -0.09220798313617706 217.16734313964844 0.02722589112818241 166.4482879638672 -0.008788921870291233 114.05116271972656 C 11.176953315734863 115.3655014038086 17.45209312438965 116.33500671386719 26.53795623779297 122.57378387451172 C 31.396839141845703 126.15615844726562 36.866851806640625 127.80500793457031 42.123321533203125 130.23565673828125 C 46.36553192138672 131.8164520263672 48.6281852722168 133.91123962402344 50.607078552246094 138.03907775878906 C 50.46342468261719 142.45718383789062 62.05462646484375 143.09971618652344 62.335811614990234 141.43992614746094 C 62.149803161621094 136.78857421875 62.8773307800293 133.6723175048828 62.88252639770508 126.27394104003906 C 63.71721267700195 121.31934356689453 63.04767608642578 118.39629364013672 64.63710021972656 111.27393341064453 C 68.47407531738281 111.97052764892578 66.55099487304688 105.35364532470703 72.09539794921875 102.6426010131836 C 71.35562133789062 100.15839385986328 72.54715728759766 88.05073547363281 75.0728988647461 84.28640747070312 C 78.79468536376953 85.06598663330078 78.27054595947266 73.46733856201172 83.98904418945312 72.0418930053711 C 84.25401306152344 71.43549346923828 86.15303039550781 66.33671569824219 88.38611602783203 66.36282348632812" stroke-width="0.0" fill="url(#shape_3_fill)"/>
    <path d="M 673.887451171875 2.0451769828796387 C 674.2434692382812 49.167049407958984 673.9216918945312 96.3194808959961 674.0546875 145.03598022460938 C 666.3187255859375 138.6820526123047 663.3671875 130.68890380859375 661.2113037109375 120.73584747314453 C 660.4479370117188 120.34514617919922 652.56689453125 105.70326232910156 650.9019165039062 112.54571533203125 C 649.0189819335938 111.66732025146484 644.2335205078125 147.22581481933594 639.3229370117188 151.36875915527344 C 632.50244140625 155.21600341796875 628.8281860351562 139.56838989257812 627.2251586914062 138.7920684814453 C 620.829345703125 136.13601684570312 616.8467407226562 147.55624389648438 613.9732666015625 144.5792694091797 C 610.7481079101562 142.14915466308594 611.24951171875 143.88134765625 608.64599609375 140.205322265625 C 607.891357421875 137.171142578125 608.0128173828125 133.80958557128906 602.0176391601562 128.99122619628906 C 598.3410034179688 133.92840576171875 597.398193359375 139.25927734375 595.4216918945312 144.79910278320312 C 595.1876831054688 148.94711303710938 593.4044799804688 150.91831970214844 593.1837158203125 153.72543334960938 C 592.0977172851562 160.2627716064453 590.77880859375 168.26583862304688 581.520751953125 169.6580810546875 C 571.1083374023438 170.4168701171875 569.994140625 160.2738494873047 568.5740966796875 157.87179565429688 C 566.7853393554688 156.7068328857422 563.9293212890625 153.75485229492188 560.2864990234375 153.24273681640625 C 561.114990234375 149.66201782226562 555.6807250976562 151.33287048339844 554.1969604492188 153.02122497558594 C 551.6048583984375 155.76963806152344 550.7235717773438 159.0958709716797 548.50048828125 161.7739715576172 C 545.3458862304688 159.8347930908203 540.5534057617188 162.6361541748047 534.9022216796875 155.586181640625 C 530.79931640625 153.55494689941406 530.7843017578125 158.38160705566406 524.6903076171875 158.2510223388672 C 518.428466796875 161.75933837890625 520.4307861328125 160.83522033691406 521.3440551757812 168.34703063964844 C 517.2763671875 170.80657958984375 516.3416748046875 163.9077911376953 516.8041381835938 172.03549194335938 C 508.7994384765625 174.16964721679688 513.4864501953125 174.2559051513672 506.3893737792969 173.56671142578125 C 502.99542236328125 170.87721252441406 503.09820556640625 169.9711151123047 502.690673828125 167.76593017578125 C 501.15966796875 152.79354858398438 515.1167602539062 128.72879028320312 524.1721801757812 130.9615936279297 C 524.0999755859375 124.69026184082031 538.3717041015625 113.53394317626953 548.0872802734375 112.41824340820312 C 558.2763671875 110.01902770996094 556.0120239257812 110.03899383544922 559.3654174804688 108.12847137451172 C 562.685546875 105.1778564453125 566.0151977539062 104.8189468383789 570.8526611328125 104.36585235595703 C 575.6898803710938 102.685546875 572.5221557617188 98.34992218017578 579.8319091796875 95.01078033447266 C 581.9623413085938 89.69618225097656 601.97265625 79.23151397705078 612.229736328125 77.39366912841797 C 614.9307250976562 71.7036361694336 641.0177001953125 48.58298110961914 643.831787109375 35.091922760009766 C 645.0757446289062 32.51693344116211 648.0523681640625 30.10399055480957 647.5993041992188 29.483314514160156 C 646.35205078125 28.6358642578125 663.8573608398438 -2.9573814868927 673.887451171875 2.0451769828796387" stroke-width="0.0" fill="url(#shape_4_fill)"/>
    <path d="M 151.89793395996094 68.64796447753906 C 152.18345642089844 68.356689453125 187.775146484375 82.49676513671875 195.09017944335938 88.66986083984375 C 181.19430541992188 115.95341491699219 216.9464874267578 152.72573852539062 221.0274200439453 154.38665771484375 C 239.4042510986328 169.57635498046875 243.8927001953125 184.08346557617188 241.8343048095703 193.76138305664062 C 237.7177734375 193.98672485351562 236.7769775390625 185.77944946289062 236.0336151123047 184.79299926757812 C 234.71534729003906 182.7136688232422 234.88235473632812 184.3171844482422 232.18682861328125 181.61924743652344 C 232.24026489257812 183.3966827392578 230.9677276611328 192.63160705566406 227.93894958496094 195.9489288330078 C 227.4459686279297 195.97947692871094 227.19091796875 205.97476196289062 221.05384826660156 207.2430419921875 C 214.5098114013672 207.13137817382812 214.7704315185547 198.4792938232422 214.22817993164062 195.16305541992188 C 212.61679077148438 184.8181610107422 212.2407989501953 185.54263305664062 206.8677520751953 176.8087615966797 C 203.63478088378906 171.8202667236328 204.93511962890625 165.54776000976562 205.26959228515625 159.8357696533203 C 206.01507568359375 153.95550537109375 195.907470703125 143.68849182128906 192.55116271972656 142.2879180908203 C 188.8340606689453 140.60025024414062 188.96014404296875 138.37648010253906 186.7825164794922 134.79147338867188 C 182.38333129882812 130.9501953125 183.5789031982422 123.163818359375 183.2169189453125 117.62173461914062 C 179.2917938232422 116.51243591308594 177.5205078125 117.48294067382812 174.13217163085938 118.28948211669922 C 173.00534057617188 123.37261962890625 168.88136291503906 126.70049285888672 158.30938720703125 123.29403686523438 C 155.73988342285156 121.30123138427734 152.12474060058594 102.11012268066406 153.28762817382812 96.45188903808594 C 153.0255889892578 88.72341918945312 153.5997772216797 82.83654022216797 150.02542114257812 76.20308685302734 C 149.12733459472656 76.02359771728516 148.1147003173828 68.34728240966797 151.89793395996094 68.64796447753906" stroke-width="0.0" fill="url(#shape_5_fill)"/>
    <path d="M 613.3953247070312 83.09803771972656 C 618.3790893554688 84.39736938476562 619.8252563476562 85.64575958251953 630.921875 85.84091186523438 C 636.7056274414062 86.09815979003906 638.473388671875 87.40013885498047 641.4410400390625 87.93755340576172 C 641.967041015625 87.33851623535156 668.9954833984375 92.02659606933594 673.879150390625 97.14153289794922 C 674.0761108398438 112.60603332519531 673.626953125 128.7580108642578 673.9205322265625 145.13478088378906 C 667.9465942382812 140.12681579589844 664.6055297851562 134.71478271484375 663.026611328125 126.86810302734375 C 660.576171875 121.26164245605469 660.8192138671875 115.48944854736328 653.164794921875 110.93856048583984 C 646.69140625 115.56942749023438 644.1964111328125 143.43040466308594 642.9389038085938 142.2044677734375 C 643.248291015625 145.79579162597656 641.8228759765625 148.59580993652344 640.5770874023438 148.91864013671875 C 639.5145874023438 151.0472869873047 638.2550659179688 151.75543212890625 633.8687744140625 149.97323608398438 C 631.3497314453125 146.64353942871094 628.89794921875 141.54266357421875 629.4248046875 140.78707885742188 C 629.1571044921875 137.84852600097656 623.6434936523438 137.31849670410156 620.4501342773438 139.30838012695312 C 618.58837890625 141.01385498046875 618.93896484375 141.82791137695312 618.4631958007812 143.9037322998047 C 614.694580078125 144.1848602294922 614.3560791015625 143.43832397460938 610.6261596679688 143.3548126220703 C 608.7545776367188 140.0426788330078 609.4122924804688 139.60589599609375 608.5693359375 138.01931762695312 C 606.5035400390625 132.1479949951172 604.405517578125 123.87857818603516 599.5740966796875 130.69395446777344 C 598.8704223632812 135.353759765625 593.4959106445312 148.94091796875 592.0512084960938 157.83883666992188 C 590.5699462890625 164.05697631835938 589.6996459960938 164.08717346191406 585.3650512695312 168.09429931640625 C 581.8600463867188 170.3863067626953 578.2979125976562 170.2020721435547 575.06298828125 168.9801025390625 C 571.953125 166.31015014648438 570.7952270507812 162.16683959960938 568.8712768554688 158.9241943359375 C 568.3119506835938 154.5670928955078 557.9254760742188 152.1890869140625 556.2269287109375 151.16452026367188 C 555.5462646484375 152.58526611328125 553.2919921875 154.92185974121094 552.665771484375 157.52655029296875 C 550.4169921875 161.86709594726562 548.4585571289062 162.04641723632812 546.00439453125 162.48297119140625 C 540.3359375 161.5119171142578 538.2720947265625 157.99179077148438 535.8045654296875 157.29672241210938 C 535.1312866210938 157.7919464111328 531.482666015625 156.4437255859375 529.1326904296875 157.65057373046875 C 525.9271240234375 159.1884765625 526.17138671875 161.6291046142578 524.6561889648438 164.67962646484375 C 523.5670166015625 168.48663330078125 521.1990966796875 170.62667846679688 518.7933959960938 172.79034423828125 C 510.5561218261719 176.23512268066406 504.14202880859375 172.02000427246094 502.08074951171875 170.5491943359375 C 498.342041015625 152.80514526367188 515.8038330078125 131.9876251220703 523.4825439453125 129.01956176757812 C 526.2222900390625 121.28843688964844 540.1226196289062 112.60912322998047 551.6389770507812 111.77778625488281 C 555.6406860351562 110.13483428955078 559.6792602539062 109.4192123413086 563.512451171875 106.4500961303711 C 564.8634643554688 104.73236083984375 566.9122924804688 103.84064483642578 569.457275390625 103.6395492553711 C 574.7725219726562 101.32273864746094 578.372314453125 97.12432861328125 582.9998168945312 93.70274353027344 C 592.0537719726562 85.36163330078125 600.3558959960938 79.0301513671875 613.3953247070312 83.09803771972656" stroke-width="0.0" fill="url(#shape_6_fill)"/>
    <path d="M 3.03324294090271 115.12215423583984 C 27.367691040039062 122.76945495605469 37.85332489013672 127.71893310546875 49.98427200317383 136.87376403808594 C 68.59141540527344 159.4194793701172 50.74434280395508 224.86224365234375 55.02129364013672 246.4126739501953 C 53.48151397705078 260.59271240234375 48.433998107910156 264.9676818847656 48.858673095703125 266.13885498046875 C 39.000038146972656 272.76043701171875 4.205704212188721 268.9188232421875 -0.004340772982686758 268.9908142089844 C -0.057074498385190964 218.18675231933594 -0.04123105853796005 167.32162475585938 3.03324294090271 115.12215423583984" stroke-width="0.0" fill="url(#shape_7_fill)"/>
    <path d="M 395.6424865722656 178.00294494628906 C 410.45166015625 173.36077880859375 427.7665710449219 191.06639099121094 433.80865478515625 210.45457458496094 C 464.74041748046875 201.53903198242188 487.556396484375 215.48666381835938 489.19134521484375 239.0565948486328 C 490.2731628417969 252.56793212890625 487.737060546875 249.60556030273438 485.72650146484375 253.2347412109375 C 485.31634521484375 254.51312255859375 479.0793762207031 265.03521728515625 474.8280029296875 268.50885009765625 C 468.8601379394531 273.1147766113281 453.0377502441406 266.52978515625 452.2723388671875 267.3058166503906 C 443.64947509765625 264.31719970703125 450.9601745605469 263.14044189453125 446.86065673828125 262.2021179199219 C 442.1103820800781 261.92431640625 433.69488525390625 259.0910339355469 439.21234130859375 259.6101379394531 C 428.43017578125 257.2469482421875 426.5603942871094 259.45440673828125 421.0980529785156 262.1149597167969 C 418.6708984375 264.39288330078125 417.37042236328125 267.464599609375 414.59332275390625 269.7530212402344 C 414.4004821777344 269.5736999511719 398.2010192871094 267.4786071777344 392.4122009277344 264.2828063964844 C 391.995849609375 264.94708251953125 388.9769592285156 263.5228576660156 385.9827575683594 263.5216369628906 C 381.4866638183594 262.05987548828125 381.5013427734375 263.06317138671875 377.2096252441406 260.43994140625 C 373.7881164550781 254.96817016601562 377.8391418457031 253.30203247070312 371.3396911621094 250.6334686279297 C 359.3038024902344 244.04443359375 375.3504333496094 197.41818237304688 378.6060485839844 182.71163940429688 C 383.453857421875 171.6619110107422 395.49029541015625 176.34982299804688 395.6424865722656 178.00294494628906" stroke-width="0.0" fill="url(#shape_8_fill)"/>
    <path d="M 565.7925415039062 157.24313354492188 C 568.4501953125 159.12322998046875 569.8731079101562 161.83920288085938 570.7106323242188 165.1887969970703 C 573.913818359375 169.7212677001953 573.3905639648438 170.53952026367188 577.9990844726562 174.2365264892578 C 579.7418823242188 175.5472412109375 581.4935302734375 177.43801879882812 579.801513671875 184.6217041015625 C 578.6376342773438 175.42784118652344 573.7040405273438 226.47918701171875 576.7797241210938 226.12599182128906 C 575.297607421875 228.23617553710938 577.9855346679688 232.6016387939453 573.8989868164062 238.16128540039062 C 568.3517456054688 238.83631896972656 566.3902587890625 237.00814819335938 558.4999389648438 244.8677520751953 C 549.1351318359375 250.817626953125 495.24908447265625 253.9158935546875 494.14581298828125 248.6669464111328 C 490.7355651855469 243.9468536376953 488.8424377441406 238.2714080810547 487.4301452636719 232.45494079589844 C 486.25506591796875 226.42575073242188 483.4014587402344 222.06297302246094 480.9590148925781 216.30612182617188 C 478.6094970703125 211.97775268554688 480.6477966308594 203.64425659179688 481.2082824707031 206.001708984375 C 479.8945617675781 205.89288330078125 481.4209899902344 198.55873107910156 485.81317138671875 198.19058227539062 C 491.6264953613281 195.95608520507812 492.09918212890625 192.7342987060547 494.1808166503906 188.42503356933594 C 496.78607177734375 176.0225372314453 499.87890625 175.90943908691406 499.9420471191406 176.02957153320312 C 502.6270446777344 174.74588012695312 508.5787658691406 177.83071899414062 520.9547729492188 173.6846923828125 C 524.1593017578125 171.33978271484375 524.6671752929688 168.65342712402344 526.7559814453125 165.66891479492188 C 528.3787841796875 161.14010620117188 529.5322875976562 158.9320068359375 533.2015991210938 158.83352661132812 C 537.8084106445312 161.6717529296875 541.2566528320312 162.5953369140625 542.3633422851562 163.77340698242188 C 545.1275634765625 164.18734741210938 546.1914672851562 165.48533630371094 549.2657470703125 166.17823791503906 C 548.8529052734375 165.80894470214844 551.6014404296875 157.3289337158203 555.3495483398438 156.44102478027344 C 559.0040283203125 155.5833282470703 562.453857421875 155.37962341308594 565.7925415039062 157.24313354492188" stroke-width="0.0" fill="url(#shape_9_fill)"/>
    <path d="M 561.2695922851562 155.4620819091797 C 567.7177734375 155.51010131835938 569.2591552734375 160.47406005859375 571.8855590820312 166.7705535888672 C 573.3092041015625 170.2188262939453 575.4664916992188 171.24087524414062 578.6311645507812 176.3910369873047 C 579.4449462890625 178.0260467529297 578.283935546875 187.26150512695312 577.2216796875 191.58172607421875 C 574.8168334960938 199.5379638671875 574.1444702148438 233.61170959472656 575.5418701171875 228.45703125 C 575.1522216796875 230.67617797851562 576.4329223632812 237.13101196289062 571.1190185546875 238.6527557373047 C 559.2180786132812 237.3107452392578 568.238037109375 237.48233032226562 557.9573974609375 244.48243713378906 C 554.3435668945312 252.137939453125 500.58026123046875 249.4249267578125 500.8525695800781 250.62586975097656 C 489.6175231933594 253.3221893310547 489.49798583984375 235.50875854492188 486.8561096191406 230.32125854492188 C 486.3799743652344 225.16937255859375 482.2242736816406 219.03204345703125 481.27520751953125 216.44496154785156 C 478.28997802734375 212.62451171875 478.952880859375 210.4502716064453 479.0816345214844 206.974365234375 C 478.466796875 204.02386474609375 482.9168395996094 198.26034545898438 485.62567138671875 198.2874755859375 C 491.47491455078125 197.23507690429688 495.77130126953125 185.71620178222656 496.0584716796875 182.3914031982422 C 496.30023193359375 179.5433807373047 497.3982238769531 177.22802734375 500.3042297363281 175.99497985839844 C 507.44927978515625 175.55599975585938 514.5675659179688 177.48046875 520.8767700195312 173.29689025878906 C 524.9366455078125 174.12002563476562 526.4849853515625 159.0741424560547 532.2399291992188 159.2911376953125 C 536.3027954101562 158.9558868408203 539.185546875 161.72653198242188 543.3868408203125 164.76531982421875 C 545.1292724609375 165.08786010742188 549.065673828125 166.41558837890625 550.5760498046875 162.74046325683594 C 551.74609375 158.8023223876953 553.3400268554688 153.51263427734375 561.2695922851562 155.4620819091797" stroke-width="0.0" fill="url(#shape_10_fill)"/>
    <path d="M 449.751708984375 108.12335205078125 C 453.908203125 109.29527282714844 456.7002258300781 112.02020263671875 460.2736511230469 113.911865234375 C 463.7799377441406 116.55745697021484 468.7394104003906 117.66189575195312 472.58502197265625 119.46764373779297 C 488.4535827636719 124.6814193725586 488.70989990234375 125.10909271240234 492.7301940917969 129.93785095214844 C 493.561767578125 132.00509643554688 493.0113220214844 134.26882934570312 496.76019287109375 136.1981658935547 C 493.45526123046875 135.6702423095703 492.1049499511719 137.0187225341797 487.5849609375 135.12457275390625 C 484.3370361328125 133.44093322753906 482.31536865234375 135.01104736328125 479.0545349121094 134.887939453125 C 474.82159423828125 135.72265625 471.5623779296875 134.49017333984375 468.0902404785156 134.1830291748047 C 465.0827941894531 133.6670379638672 460.2755126953125 133.68161010742188 457.1950378417969 134.21974182128906 C 454.3031921386719 142.51222229003906 469.2764587402344 153.00796508789062 479.9853515625 158.02203369140625 C 475.9679260253906 176.7257843017578 475.5228271484375 177.0338897705078 469.239990234375 181.78504943847656 C 465.64190673828125 181.10952758789062 467.1756286621094 186.58438110351562 463.3605041503906 188.0625457763672 C 459.86871337890625 188.0142822265625 455.7025451660156 180.60675048828125 453.943359375 176.9559783935547 C 448.030517578125 179.65223693847656 447.7597351074219 182.93162536621094 439.7687072753906 183.2130889892578 C 439.8722839355469 183.56068420410156 435.8497009277344 195.5714874267578 433.9454650878906 198.9871826171875 C 428.91180419921875 201.02688598632812 417.3302001953125 180.41139221191406 417.57281494140625 179.73936462402344 C 416.79168701171875 180.59666442871094 401.4721374511719 176.06239318847656 397.0094909667969 168.8365020751953 C 392.6524658203125 168.2274627685547 387.192626953125 176.6092529296875 381.25 173.03118896484375 C 380.3772277832031 163.6538543701172 382.3119201660156 142.08644104003906 390.00335693359375 138.5868377685547 C 397.7586364746094 137.27310180664062 399.48590087890625 129.7938690185547 402.05426025390625 122.9458236694336 C 410.04376220703125 98.98895263671875 428.1063537597656 102.92715454101562 449.751708984375 108.12335205078125" stroke-width="0.0" fill="url(#shape_11_fill)"/>
    <path d="M 601.9656372070312 130.08836364746094 C 607.108642578125 130.00653076171875 608.5347290039062 139.48171997070312 609.7376708984375 141.72335815429688 C 611.82568359375 144.68783569335938 612.4413452148438 147.4876708984375 615.0604248046875 150.30014038085938 C 620.0286865234375 151.03240966796875 617.7249145507812 142.9279327392578 622.02294921875 140.73350524902344 C 624.6934814453125 139.40216064453125 626.640869140625 139.65370178222656 628.5628051757812 141.15237426757812 C 627.1322021484375 141.05899047851562 629.770751953125 144.09983825683594 630.6281127929688 146.71112060546875 C 632.2073974609375 150.111328125 631.6648559570312 150.80120849609375 635.5657958984375 153.9535369873047 C 639.34912109375 156.84898376464844 637.274658203125 162.33572387695312 638.1168823242188 171.46908569335938 C 637.3491821289062 183.50982666015625 638.8731689453125 194.46212768554688 639.7318115234375 206.2589569091797 C 640.450927734375 218.84861755371094 643.0787963867188 229.77236938476562 638.9163818359375 243.6356964111328 C 622.2788696289062 247.1302947998047 608.5330810546875 243.98638916015625 583.158935546875 245.1814422607422 C 579.3134765625 238.4051513671875 578.8597412109375 225.8105010986328 576.900634765625 216.84666442871094 C 573.0220336914062 216.0719451904297 579.4971313476562 169.26727294921875 587.1089477539062 169.1405487060547 C 593.9745483398438 160.03839111328125 596.0609130859375 140.51361083984375 596.9225463867188 140.59243774414062 C 598.0175170898438 137.12489318847656 597.46923828125 135.1866455078125 601.9656372070312 130.08836364746094" stroke-width="0.0" fill="url(#shape_12_fill)"/>
    <path d="M 404.6705017089844 176.5277099609375 C 421.41290283203125 176.84164428710938 437.6173400878906 210.3640899658203 430.8274841308594 215.3446807861328 C 419.4633483886719 230.72695922851562 423.2741394042969 240.41090393066406 424.60498046875 246.80006408691406 C 427.95208740234375 260.7019958496094 418.2582702636719 263.4207458496094 414.10052490234375 269.9971008300781 C 406.7296142578125 270.04901123046875 397.1868896484375 267.067626953125 393.7924499511719 265.7801513671875 C 386.68438720703125 262.7192077636719 385.1070251464844 263.5627136230469 381.3017272949219 262.4426574707031 C 378.0536804199219 261.9797668457031 377.3196716308594 260.3169250488281 375.7756652832031 258.2052307128906 C 376.1343688964844 256.1053466796875 375.5454406738281 253.49855041503906 374.70159912109375 253.31797790527344 C 374.1805725097656 252.35879516601562 370.37750244140625 250.67440795898438 369.48919677734375 251.17530822753906 C 364.9925842285156 240.3716278076172 366.7411193847656 226.18463134765625 368.666748046875 222.16319274902344 C 369.2826843261719 219.45140075683594 371.3263244628906 203.30099487304688 374.08642578125 200.03863525390625 C 374.5653381347656 197.73876953125 376.4112854003906 179.71340942382812 381.0196228027344 175.93234252929688 C 389.5384216308594 171.1736297607422 395.388916015625 171.65872192382812 404.6705017089844 176.5277099609375" stroke-width="0.0" fill="url(#shape_13_fill)"/>
    <path d="M 510.3028869628906 65.37220001220703 C 513.0654907226562 65.9036636352539 522.2352905273438 69.39665222167969 524.0407104492188 74.04225158691406 C 530.3353881835938 80.44932556152344 535.4913330078125 80.2854232788086 538.5081176757812 88.02363586425781 C 540.0115356445312 90.9331283569336 544.7588500976562 90.49725341796875 545.2385864257812 91.50086975097656 C 545.2013549804688 92.41902923583984 556.4434204101562 96.702392578125 561.044677734375 96.37371063232422 C 564.6840209960938 97.42356872558594 567.5593872070312 97.71913146972656 570.0374145507812 101.03568267822266 C 566.6900024414062 104.95565032958984 553.3041381835938 111.75167846679688 547.8687133789062 111.73026275634766 C 541.9664306640625 112.36882019042969 539.1897583007812 114.78734588623047 534.0823974609375 117.35501098632812 C 527.7745971679688 121.3410873413086 525.893310546875 122.10491943359375 515.8626098632812 121.24188232421875 C 511.1314697265625 120.36138153076172 501.6441345214844 125.63935089111328 501.151123046875 127.76483917236328 C 497.3486633300781 129.56787109375 493.9945068359375 129.79110717773438 489.7908935546875 128.88812255859375 C 489.32550048828125 125.60929107666016 468.64501953125 118.6269302368164 468.1706848144531 118.60240173339844 C 463.1692199707031 117.5510482788086 463.2876281738281 116.69924926757812 460.1623229980469 114.87467956542969 C 460.4195556640625 106.4037094116211 462.7615051269531 100.60092163085938 468.4881896972656 94.37705993652344 C 472.93231201171875 89.06704711914062 472.17034912109375 84.04895782470703 473.037353515625 81.74073791503906 C 474.73895263671875 70.8167495727539 475.18707275390625 70.5033950805664 478.1197509765625 66.23995971679688 C 479.21478271484375 64.38787841796875 482.5079650878906 64.00321960449219 484.5755615234375 62.37605285644531 C 493.93914794921875 60.7567024230957 501.5464172363281 62.187286376953125 510.3028869628906 65.37220001220703" stroke-width="0.0" fill="url(#shape_14_fill)"/>
    <path d="M 532.9086303710938 158.8414764404297 C 543.8735961914062 163.086181640625 543.9332885742188 163.72828674316406 546.8381958007812 166.82728576660156 C 547.0140991210938 168.0542755126953 548.31884765625 170.26722717285156 544.591796875 182.2333984375 C 543.2323608398438 189.87664794921875 539.8595581054688 232.60618591308594 539.1578369140625 235.99560546875 C 537.32861328125 239.45223999023438 544.1060180664062 254.00390625 515.833984375 251.38467407226562 C 500.6797790527344 254.6865234375 485.68560791015625 247.77049255371094 487.5931701660156 230.01910400390625 C 479.1186828613281 216.18991088867188 477.47943115234375 203.6350555419922 484.09368896484375 198.5363311767578 C 487.4246826171875 196.86517333984375 488.5648498535156 198.18997192382812 490.909912109375 196.93540954589844 C 492.8995361328125 193.88247680664062 494.8149719238281 184.65293884277344 496.19940185546875 182.05406188964844 C 497.2550048828125 179.46363830566406 498.8606262207031 176.76312255859375 502.0379638671875 176.01470947265625 C 507.2977600097656 175.6567840576172 511.5617980957031 179.51158142089844 522.8594360351562 172.75816345214844 C 525.1385498046875 170.65870666503906 525.9616088867188 168.02548217773438 526.8455200195312 165.0835723876953 C 527.9524536132812 162.07723999023438 530.5556030273438 160.69642639160156 532.9086303710938 158.8414764404297" stroke-width="0.0" fill="url(#shape_15_fill)"/>
    <path d="M 650.5609741210938 112.61072540283203 C 657.269287109375 109.59225463867188 663.5530395507812 121.54914093017578 663.0079345703125 125.98760223388672 C 665.3744506835938 133.38412475585938 666.3839721679688 139.1288604736328 672.978759765625 146.41156005859375 C 674.9697875976562 180.50253295898438 673.6309204101562 212.65208435058594 674.035400390625 247.22044372558594 C 669.9542236328125 243.45950317382812 653.9381713867188 250.54762268066406 645.4541015625 241.7176513671875 C 638.2256469726562 238.62721252441406 638.3873901367188 116.29475402832031 650.5609741210938 112.61072540283203" stroke-width="0.0" fill="url(#shape_16_fill)"/>
    <path d="M 600.0048828125 129.9200439453125 C 603.0827026367188 127.0268325805664 607.9840087890625 131.8150634765625 607.3401489257812 134.4558868408203 C 608.60986328125 134.53565979003906 608.005615234375 138.3979034423828 614.4027099609375 150.9232940673828 C 618.6436767578125 134.8282470703125 617.4965209960938 230.5504913330078 616.1830444335938 241.19927978515625 C 600.4730834960938 248.7106170654297 573.4173583984375 244.3550262451172 584.7576904296875 239.32577514648438 C 562.816162109375 223.32579040527344 591.3551025390625 148.4483642578125 600.0048828125 129.9200439453125" stroke-width="0.0" fill="url(#shape_17_fill)"/>
    <path d="M 319.5027160644531 184.4937744140625 C 323.6777038574219 183.83175659179688 325.6405334472656 186.0171356201172 329.1392822265625 186.6658172607422 C 332.6578063964844 188.94911193847656 336.8751525878906 189.1473388671875 340.8656921386719 190.22451782226562 C 343.8238525390625 193.8296661376953 349.1614685058594 192.59381103515625 353.7907409667969 193.25094604492188 C 356.71514892578125 195.3550262451172 357.77471923828125 198.14498901367188 359.07672119140625 200.8089141845703 C 360.0531921386719 203.62818908691406 361.8142395019531 203.675048828125 363.7768249511719 205.6336669921875 C 367.5122985839844 207.25320434570312 368.20782470703125 207.9064178466797 368.7958068847656 211.4542694091797 C 369.2502746582031 216.47425842285156 367.8779602050781 221.24044799804688 366.790283203125 225.81488037109375 C 366.55950927734375 231.2189178466797 365.66009521484375 235.50668334960938 366.34735107421875 240.8467559814453 C 366.6633605957031 246.25314331054688 365.0876770019531 256.0220031738281 356.3215026855469 254.2035369873047 C 352.6833190917969 254.3648223876953 331.21136474609375 254.34579467773438 323.6101989746094 254.08912658691406 C 312.7877197265625 255.17161560058594 313.0863342285156 253.718017578125 312.5147705078125 235.77516174316406 C 304.9625549316406 227.05209350585938 314.90899658203125 187.7360382080078 319.5027160644531 184.4937744140625" stroke-width="0.0" fill="url(#shape_18_fill)"/>
    <path d="M 480.2648620605469 218.16091918945312 C 492.3743591308594 240.37954711914062 494.0936584472656 247.1208038330078 478.0283203125 266.8791198730469 C 470.1239013671875 278.47412109375 443.1934509277344 260.7375793457031 442.9634704589844 262.264892578125 C 439.02001953125 260.25408935546875 436.8021240234375 258.5220031738281 432.37689208984375 258.1630554199219 C 429.3954162597656 257.95831298828125 427.88250732421875 257.4415588378906 426.30889892578125 254.59835815429688 C 421.206298828125 246.29702758789062 420.5696105957031 237.4650115966797 422.2268371582031 228.27169799804688 C 423.81634521484375 223.8668212890625 421.1284484863281 229.124267578125 422.2532043457031 226.1952362060547 C 427.88934326171875 219.2892303466797 429.5719909667969 218.78102111816406 429.5572509765625 216.05029296875 C 439.2866516113281 202.27432250976562 463.4793701171875 207.02688598632812 480.2648620605469 218.16091918945312" stroke-width="0.0" fill="url(#shape_19_fill)"/>
    <path d="M 674.10400390625 1.7179220914840698 C 674.3146362304688 33.33348846435547 674.2659912109375 64.79265594482422 674.0247192382812 96.9654769897461 C 670.422607421875 96.05656433105469 653.1431274414062 88.94774627685547 645.06982421875 89.03206634521484 C 636.53662109375 88.06327056884766 640.3781127929688 87.31590270996094 636.2264404296875 86.51353454589844 C 632.1448364257812 86.71770477294922 623.60107421875 86.98522186279297 611.2782592773438 81.30667114257812 C 611.2694702148438 77.68199920654297 613.0243530273438 75.75735473632812 615.5750122070312 73.7217788696289 C 622.912841796875 70.00485229492188 650.9677124023438 26.099971771240234 650.50341796875 22.673908233642578 C 654.9224243164062 14.355764389038086 658.7185668945312 7.9556379318237305 667.3123779296875 3.2164440155029297 C 669.8823852539062 2.310698986053467 670.2086181640625 1.651843547821045 674.10400390625 1.7179220914840698" stroke-width="0.0" fill="url(#shape_20_fill)"/>
    <path d="M 563.6360473632812 155.3181915283203 C 569.6893310546875 156.80841064453125 569.29638671875 164.17578125 574.3713989257812 170.19808959960938 C 583.5126953125 163.6271514892578 570.9060668945312 227.5804443359375 573.0234375 238.10031127929688 C 568.3660278320312 237.78187561035156 563.8781127929688 240.00564575195312 561.9526977539062 242.64938354492188 C 556.8688354492188 248.1349334716797 542.1213989257812 251.6844940185547 541.300537109375 244.1936492919922 C 543.2054443359375 246.7693634033203 537.2001953125 161.49168395996094 553.18896484375 156.1252899169922 C 556.443603515625 152.23233032226562 558.6331176757812 152.82435607910156 563.6360473632812 155.3181915283203" stroke-width="0.0" fill="url(#shape_21_fill)"/>
    <path d="M 214.90777587890625 212.2337188720703 C 222.69064331054688 220.96485900878906 223.8359375 252.9525909423828 218.1033935546875 254.5638885498047 C 210.60411071777344 262.35650634765625 208.13613891601562 263.9400634765625 205.41226196289062 272.35223388671875 C 205.5232696533203 275.8715515136719 206.44346618652344 276.411376953125 206.7125701904297 280.30694580078125 C 207.37696838378906 283.516845703125 203.7140655517578 284.74774169921875 200.7061004638672 284.19171142578125 C 201.97483825683594 283.8013916015625 196.23793029785156 266.2615966796875 190.0996551513672 263.247802734375 C 186.60716247558594 260.8130187988281 184.79489135742188 261.3740539550781 182.49673461914062 260.1180114746094 C 181.27145385742188 259.65069580078125 179.41226196289062 259.9772644042969 177.32684326171875 255.50721740722656 C 177.0996856689453 251.88734436035156 170.9786376953125 242.33673095703125 172.026611328125 235.9362335205078 C 178.61154174804688 220.64007568359375 184.8780059814453 220.0885772705078 188.6284637451172 218.56349182128906 C 193.72427368164062 217.32537841796875 193.64300537109375 215.6256866455078 196.18533325195312 212.12535095214844 C 198.5902557373047 209.46157836914062 198.42393493652344 207.92041015625 204.24806213378906 207.09324645996094 C 207.57557678222656 206.6179962158203 211.53890991210938 208.0835418701172 214.90777587890625 212.2337188720703" stroke-width="0.0" fill="url(#shape_22_fill)"/>
    <path d="M 111.73994445800781 426.6709899902344 C 112.48729705810547 429.04083251953125 111.29993438720703 430.9330139160156 110.8781509399414 431.93682861328125 C 106.59663391113281 435.9466857910156 102.24134826660156 436.6173400878906 96.22002410888672 436.9540100097656 C 84.51127624511719 441.7861328125 102.14895629882812 444.49688720703125 84.61768341064453 445.8067932128906 C 79.47518920898438 445.7679443359375 45.237091064453125 446.4996643066406 28.018491744995117 446.719482421875 C 10.931928634643555 445.134033203125 16.93496322631836 442.1534423828125 16.97614288330078 436.04766845703125 C 34.51895523071289 428.2220458984375 51.09663772583008 425.9712219238281 70.23837280273438 425.27001953125 C 75.69709014892578 425.2065734863281 107.5230484008789 417.53521728515625 111.73994445800781 426.6709899902344" stroke-width="0.0" fill="url(#shape_23_fill)"/>
    <path d="M 195.20831298828125 124.82735443115234 C 199.2340850830078 125.05497741699219 209.10923767089844 144.92721557617188 213.1870574951172 145.4693145751953 C 215.6065216064453 148.1380157470703 218.31329345703125 149.91514587402344 219.84983825683594 153.5707244873047 C 226.41807556152344 158.2707061767578 246.91563415527344 180.77999877929688 242.6707000732422 197.59193420410156 C 240.41835021972656 201.7167510986328 237.39080810546875 185.45297241210938 233.9152069091797 182.33346557617188 C 231.66477966308594 183.7020721435547 230.47592163085938 193.06057739257812 229.29798889160156 195.36024475097656 C 227.2646484375 200.6348876953125 227.74424743652344 203.78582763671875 220.61643981933594 207.7871856689453 C 214.68850708007812 208.12001037597656 214.26446533203125 199.4875030517578 214.35696411132812 196.1312713623047 C 213.01876831054688 189.2017364501953 212.40179443359375 183.07359313964844 207.14471435546875 178.0902557373047 C 204.23069763183594 173.84791564941406 204.9915771484375 173.21372985839844 204.81675720214844 165.7274169921875 C 205.35433959960938 151.2648162841797 199.51910400390625 149.75169372558594 195.27200317382812 144.8483123779297 C 190.78045654296875 139.78843688964844 191.4828643798828 128.1155548095703 195.20831298828125 124.82735443115234" stroke-width="0.0" fill="url(#shape_24_fill)"/>
    <path d="M 594.6316528320312 413.50830078125 C 597.1239013671875 415.4180603027344 624.7702026367188 412.3481750488281 627.86767578125 418.90179443359375 C 628.3444213867188 420.77923583984375 625.8851928710938 424.9173278808594 627.5037231445312 427.8016052246094 C 629.0472412109375 430.2384338378906 632.2884521484375 430.37774658203125 633.9706420898438 436.0136413574219 C 615.5462646484375 446.7828674316406 578.9659423828125 439.8747253417969 577.9905395507812 431.065185546875 C 571.1123046875 423.04791259765625 574.187744140625 417.28240966796875 574.9932250976562 414.590576171875 C 580.475830078125 410.3036804199219 587.1975708007812 412.3327941894531 594.6316528320312 413.50830078125" stroke-width="0.0" fill="url(#shape_25_fill)"/>
    <path d="M 143.9633026123047 67.54618835449219 C 143.04556274414062 68.31861114501953 149.223876953125 68.8743667602539 149.32608032226562 68.99874114990234 C 149.06773376464844 70.84415435791016 150.24105834960938 71.81712341308594 150.01100158691406 73.7551040649414 C 151.2049102783203 74.25252532958984 150.3158416748047 77.73968505859375 153.9196014404297 82.0052261352539 C 155.16201782226562 89.5876693725586 155.17446899414062 97.05973052978516 154.27882385253906 104.43692016601562 C 153.62159729003906 107.71966552734375 154.99240112304688 108.3895263671875 155.7313995361328 111.28034210205078 C 159.3317413330078 121.06108856201172 155.1352996826172 132.66958618164062 149.20640563964844 132.75900268554688 C 139.8129119873047 130.4558868408203 133.2509765625 124.56375122070312 126.58929443359375 116.8602066040039 C 122.93331146240234 114.4326400756836 125.2088623046875 109.7629623413086 126.80443572998047 107.55734252929688 C 128.91981506347656 106.35901641845703 128.9311981201172 105.73358154296875 132.20144653320312 104.95362091064453 C 135.57049560546875 98.05233764648438 133.44300842285156 91.5366439819336 133.6892852783203 90.05431365966797 C 133.8439483642578 88.13770294189453 140.10462951660156 87.74778747558594 139.2216339111328 85.14911651611328 C 138.81271362304688 85.04585266113281 138.61473083496094 76.82804107666016 140.53305053710938 76.69914245605469 C 142.9539337158203 78.44754791259766 143.61276245117188 70.64415740966797 143.9633026123047 67.54618835449219" stroke-width="0.0" fill="url(#shape_26_fill)"/>
    <path d="M 144.7318115234375 67.87069702148438 C 149.54513549804688 67.98926544189453 150.0376434326172 70.55741119384766 150.29861450195312 74.162109375 C 151.7673797607422 76.91473388671875 151.7852020263672 79.36231994628906 154.23687744140625 81.76783752441406 C 155.28482055664062 89.43694305419922 155.0814208984375 96.88215637207031 153.73114013671875 104.17195129394531 C 154.32908630371094 104.95722198486328 153.83432006835938 108.14253997802734 155.52569580078125 109.48700714111328 C 157.67587280273438 117.35099792480469 157.69900512695312 121.18109130859375 155.4613800048828 126.51119232177734 C 152.34994506835938 132.26950073242188 151.699462890625 132.94558715820312 147.7471923828125 133.66751098632812 C 141.76681518554688 131.75828552246094 129.1459503173828 120.20160675048828 127.97374725341797 119.21137237548828 C 124.91341400146484 117.36377716064453 123.01315307617188 111.80094146728516 126.8382568359375 108.1498031616211 C 123.92090606689453 111.18360900878906 125.94310760498047 105.85089111328125 129.83914184570312 106.46163940429688 C 135.42660522460938 105.52481842041016 134.21804809570312 91.58964538574219 134.24945068359375 89.23141479492188 C 139.2829132080078 87.32598114013672 138.76382446289062 84.68257904052734 138.77593994140625 82.0484848022461 C 139.58558654785156 76.63610076904297 139.89764404296875 77.67311096191406 141.11500549316406 75.57757568359375 C 144.06082153320312 70.95722961425781 143.38754272460938 68.39972686767578 144.7318115234375 67.87069702148438" stroke-width="0.0" fill="url(#shape_27_fill)"/>
    <path d="M -0.17924126982688904 -0.10432498157024384 C 4.8269944190979 0.2644955813884735 9.726701736450195 -0.386819064617157 15.184701919555664 0.15651002526283264 C 15.78878402709961 1.304068684577942 17.071809768676758 14.290614128112793 29.199495315551758 20.859073638916016 C 28.790544509887695 24.294357299804688 27.193771362304688 25.003398895263672 26.578094482421875 28.34302520751953 C 31.882282257080078 32.644107818603516 38.694393157958984 33.364559173583984 40.254173278808594 38.742637634277344 C 36.44911193847656 38.810813903808594 33.9254264831543 38.243064880371094 31.265987396240234 35.69300079345703 C 25.341535568237305 32.3650016784668 17.520244598388672 33.72781753540039 10.682111740112305 33.683895111083984 C 8.836508750915527 36.97283935546875 12.77267837524414 40.00547409057617 12.9201021194458 41.82254409790039 C 13.861285209655762 41.81944274902344 13.875494956970215 47.635650634765625 17.434085845947266 48.60828399658203 C 19.921146392822266 51.71813201904297 18.963090896606445 51.667823791503906 20.135297775268555 56.829708099365234 C 17.105581283569336 59.4519157409668 10.359113693237305 61.384239196777344 8.88994026184082 61.13938903808594 C 5.752625465393066 60.62828063964844 3.3178768157958984 59.35667419433594 0.2096480429172516 59.240962982177734 C -0.18617255985736847 39.63535690307617 -0.19982463121414185 19.779605865478516 -0.17924126982688904 -0.10432498157024384" stroke-width="0.0" fill="url(#shape_28_fill)"/>
    <path d="M 295.8961486816406 194.06092834472656 C 299.7993469238281 197.2001953125 300.94171142578125 200.09011840820312 302.5329895019531 204.92681884765625 C 302.2912292480469 207.79150390625 318.2702331542969 232.9312744140625 310.5487976074219 249.70094299316406 C 310.072265625 251.2896270751953 308.9300537109375 253.74124145507812 306.2139587402344 253.98924255371094 C 298.1641540527344 255.75332641601562 295.4309997558594 255.7646484375 287.67669677734375 254.402099609375 C 284.2137451171875 233.29856872558594 285.5478210449219 212.00350952148438 295.8961486816406 194.06092834472656" stroke-width="0.0" fill="url(#shape_29_fill)"/>
    <path d="M -0.24628248810768127 0.1325969249010086 C 4.634261608123779 0.2608126699924469 9.67330265045166 -0.2552223205566406 14.740242004394531 0.11684489250183105 C 15.48992919921875 0.2247941941022873 15.83359146118164 5.499414443969727 16.57322120666504 7.601656436920166 C 18.513015747070312 11.22386646270752 22.717695236206055 18.22489356994629 27.99634552001953 20.00750732421875 C 29.191984176635742 23.174434661865234 26.288745880126953 27.927793502807617 24.93181037902832 31.4697208404541 C 21.027311325073242 32.940162658691406 16.051239013671875 32.84431838989258 8.738800048828125 34.251983642578125 C 9.787822723388672 35.6838493347168 8.378190994262695 37.813899993896484 11.770270347595215 40.124969482421875 C 13.036199569702148 42.82510757446289 13.045013427734375 48.18714141845703 16.4757137298584 49.74287414550781 C 18.784099578857422 51.43463134765625 19.877628326416016 53.44340896606445 18.847774505615234 57.130863189697266 C 12.369014739990234 60.37860107421875 7.361145973205566 60.59387969970703 0.16617508232593536 58.81895065307617 C -0.23207829892635345 39.735023498535156 -0.22738182544708252 19.876312255859375 -0.24628248810768127 0.1325969249010086" stroke-width="0.0" fill="url(#shape_30_fill)"/>
    <path d="M 545.9434814453125 70.29156494140625 C 551.3715209960938 68.90652465820312 584.0308837890625 82.01567077636719 587.8192138671875 85.12061309814453 C 582.9723510742188 94.0673599243164 580.1807861328125 94.3333740234375 577.0480346679688 98.29686737060547 C 573.0548706054688 100.62260437011719 572.3357543945312 100.11444854736328 568.1741333007812 99.07754516601562 C 565.5310668945312 97.9354019165039 543.0101928710938 95.4929428100586 538.7485961914062 88.27635192871094 C 538.3497314453125 85.69559478759766 537.2601928710938 83.60880279541016 535.7833862304688 82.3764877319336 C 534.0957641601562 80.29264068603516 530.718505859375 80.11614990234375 528.4347534179688 77.9687271118164 C 525.73876953125 75.63912200927734 528.1318969726562 70.7129135131836 529.9625244140625 69.17153930664062 C 534.8865966796875 67.34310150146484 539.7704467773438 69.0363540649414 545.9434814453125 70.29156494140625" stroke-width="0.0" fill="url(#shape_31_fill)"/>
    <path d="M 448.5350646972656 264.2366027832031 C 451.0611267089844 265.61163330078125 450.9198303222656 266.34814453125 455.8420104980469 267.2510681152344 C 460.8992004394531 268.0075988769531 465.72088623046875 269.94219970703125 470.36529541015625 272.693359375 C 470.8282470703125 277.132568359375 471.3851623535156 275.55169677734375 471.2899169921875 280.3391418457031 C 446.58282470703125 285.58673095703125 428.26324462890625 282.9681396484375 417.34796142578125 282.6812744140625 C 413.4317321777344 272.9962158203125 415.1933288574219 273.28179931640625 415.8855285644531 268.4330139160156 C 417.9392395019531 266.95941162109375 418.0912170410156 265.1180725097656 419.4198303222656 263.1445617675781 C 428.85906982421875 254.36514282226562 438.8724365234375 258.91650390625 448.5350646972656 264.2366027832031" stroke-width="0.0" fill="url(#shape_32_fill)"/>
    <path d="M 270.9787292480469 192.53060913085938 C 282.8656311035156 189.0808563232422 281.5627136230469 239.4057159423828 278.58685302734375 243.6328582763672 C 276.15325927734375 247.4664306640625 274.0870361328125 246.35604858398438 270.918701171875 247.3519744873047 C 265.6419982910156 246.54550170898438 267.57415771484375 242.27078247070312 264.7306823730469 240.78216552734375 C 257.83905029296875 205.34446716308594 257.45928955078125 198.888427734375 270.9787292480469 192.53060913085938" stroke-width="0.0" fill="url(#shape_33_fill)"/>
    <path d="M 252.4895782470703 426.3362121582031 C 254.44558715820312 429.1312561035156 261.6583557128906 433.6335144042969 261.0509033203125 438.6213684082031 C 259.51544189453125 440.6412048339844 259.51239013671875 444.2317810058594 252.6282958984375 445.9703369140625 C 247.1781768798828 445.50775146484375 219.64215087890625 448.1096496582031 212.7882843017578 444.37188720703125 C 213.20518493652344 436.7623596191406 213.7786865234375 436.4597473144531 215.83766174316406 434.3352966308594 C 217.28721618652344 432.13116455078125 226.28016662597656 434.62677001953125 225.34408569335938 430.93438720703125 C 233.48147583007812 426.3004150390625 242.5610809326172 423.40240478515625 252.4895782470703 426.3362121582031" stroke-width="0.0" fill="url(#shape_34_fill)"/>
    <path d="M 106.05315399169922 70.6500244140625 C 110.27754974365234 69.31997680664062 111.78089904785156 78.94288635253906 112.859130859375 81.30254364013672 C 116.25286102294922 84.55927276611328 117.69418334960938 110.42234802246094 116.74221801757812 110.75325012207031 C 115.09333038330078 111.848388671875 109.4329833984375 111.83143615722656 107.04374694824219 114.695556640625 C 104.879638671875 115.89305114746094 96.09904479980469 119.34799194335938 93.83930969238281 112.11890411376953 C 89.61315155029297 83.64930725097656 103.15049743652344 86.03875732421875 106.05315399169922 70.6500244140625" stroke-width="0.0" fill="url(#shape_35_fill)"/>
    <path d="M 451.1014709472656 177.1189727783203 C 452.97210693359375 176.2205810546875 456.95135498046875 177.62649536132812 456.7264404296875 179.33961486816406 C 457.4945983886719 179.88720703125 458.09228515625 183.74783325195312 459.5558166503906 185.29248046875 C 461.17388916015625 188.5594482421875 464.7255554199219 192.50872802734375 462.9864196777344 206.98643493652344 C 459.1737365722656 208.97055053710938 454.36614990234375 207.9787139892578 449.89544677734375 208.12506103515625 C 441.2073974609375 207.59173583984375 439.9707336425781 208.73719787597656 435.9123229980469 208.7936248779297 C 432.615966796875 207.56602478027344 436.1585998535156 187.95785522460938 439.0030822753906 185.13929748535156 C 441.3948669433594 182.35565185546875 445.1632995605469 182.63905334472656 447.45159912109375 181.22201538085938 C 450.0989990234375 177.40101623535156 448.9608154296875 180.34913635253906 451.1014709472656 177.1189727783203" stroke-width="0.0" fill="url(#shape_36_fill)"/>
    <path d="M 558.26708984375 79.83423614501953 C 562.8064575195312 81.28076171875 583.1087036132812 83.3864974975586 576.9124755859375 83.15556335449219 C 582.4947509765625 83.39398193359375 586.8908081054688 84.36955261230469 586.76611328125 87.15691375732422 C 585.7633666992188 89.57735443115234 578.4683837890625 96.00470733642578 574.0217895507812 99.87059020996094 C 573.9710693359375 99.92327880859375 548.171875 97.2270278930664 539.303955078125 87.48846435546875 C 537.7008666992188 85.77278900146484 537.701904296875 80.73262023925781 538.0839233398438 79.78376007080078 C 544.5493774414062 77.14604187011719 551.4547119140625 77.6477279663086 558.26708984375 79.83423614501953" stroke-width="0.0" fill="url(#shape_37_fill)"/>
    <path d="M 250.271240234375 204.463623046875 C 263.0838317871094 208.78684997558594 257.5680236816406 243.5102081298828 257.2070007324219 246.7117156982422 C 253.8698272705078 254.24072265625 250.1436004638672 253.08164978027344 247.9552459716797 252.92977905273438 C 237.32212829589844 239.86219787597656 242.19541931152344 207.8475799560547 250.271240234375 204.463623046875" stroke-width="0.0" fill="url(#shape_38_fill)"/>
    <path d="M 444.3091125488281 262.5226135253906 C 445.62481689453125 263.82806396484375 449.4350280761719 266.25628662109375 447.2199401855469 270.624755859375 C 444.0632629394531 269.8263244628906 442.5994567871094 276.7820739746094 441.4828186035156 280.627685546875 C 440.3712158203125 284.6156005859375 417.5129089355469 284.3418884277344 416.4281921386719 278.99188232421875 C 415.5943908691406 276.3727111816406 414.1009216308594 274.89422607421875 415.69183349609375 270.73956298828125 C 413.9852600097656 270.792724609375 419.11810302734375 261.9598693847656 422.9499816894531 260.0506896972656 C 431.0476989746094 256.3681640625 437.3835754394531 258.1489562988281 444.3091125488281 262.5226135253906" stroke-width="0.0" fill="url(#shape_39_fill)"/>
    <path d="M 407.9954833984375 410.0264587402344 C 408.3575439453125 409.69140625 417.4632873535156 419.6947021484375 412.7264099121094 423.3524475097656 C 397.16748046875 431.85150146484375 381.11285400390625 419.849853515625 377.80535888671875 419.80010986328125 C 369.9930419921875 417.2687683105469 371.9307861328125 417.3057861328125 373.2702331542969 412.1330871582031 C 381.01239013671875 406.767578125 399.3309020996094 405.982666015625 407.9954833984375 410.0264587402344" stroke-width="0.0" fill="url(#shape_40_fill)"/>
    <path d="M 66.14630126953125 427.3727722167969 C 68.13125610351562 428.9223327636719 65.19035339355469 435.7881774902344 60.2110710144043 436.46466064453125 C 58.431541442871094 437.0621032714844 42.45380783081055 437.84716796875 35.87199401855469 446.0091857910156 C 30.766382217407227 445.80877685546875 23.72061538696289 448.72064208984375 17.370437622070312 443.22137451171875 C 16.39896011352539 440.2929992675781 17.350425720214844 439.5682373046875 17.532272338867188 436.98150634765625 C 32.1835823059082 426.7695617675781 56.54830551147461 425.3899841308594 66.14630126953125 427.3727722167969" stroke-width="0.0" fill="url(#shape_41_fill)"/>
    <path d="M 277.4421081542969 387.81121826171875 C 279.7568664550781 387.4332275390625 292.0422668457031 387.7615051269531 295.9546203613281 391.04425048828125 C 297.46405029296875 393.5645446777344 298.9065246582031 398.2028503417969 290.5395202636719 401.34759521484375 C 295.4827880859375 399.1449279785156 267.6780090332031 405.9169921875 260.90155029296875 400.0497741699219 C 257.6226501464844 399.5923156738281 256.71148681640625 390.2401123046875 259.9353332519531 389.1257019042969 C 265.4915771484375 387.3775329589844 271.2174377441406 387.8594055175781 277.4421081542969 387.81121826171875" stroke-width="0.0" fill="url(#shape_42_fill)"/>
    <path d="M 220.91064453125 225.49484252929688 C 223.52830505371094 224.53370666503906 226.91452026367188 223.81163024902344 230.04296875 226.91482543945312 C 232.6612548828125 230.0376739501953 238.50010681152344 247.5854949951172 236.9320068359375 254.0056610107422 C 234.39498901367188 257.4103698730469 226.9954071044922 257.68133544921875 224.26785278320312 257.2251892089844 C 219.5745086669922 255.73486328125 218.2859344482422 255.49407958984375 218.3896026611328 246.8215789794922 C 219.89791870117188 247.66542053222656 215.59901428222656 223.59999084472656 220.91064453125 225.49484252929688" stroke-width="0.0" fill="url(#shape_43_fill)"/>
    <path d="M 483.7874755859375 395.8313903808594 C 485.85198974609375 399.2955017089844 484.8636169433594 402.48321533203125 484.8346862792969 400.0611267089844 C 477.9718322753906 411.3106994628906 453.283935546875 411.22998046875 451.3817443847656 406.7410583496094 C 447.3260803222656 405.1215515136719 452.2178955078125 396.1416320800781 453.33135986328125 396.6886291503906 C 461.823974609375 391.765380859375 475.52960205078125 390.938232421875 483.7874755859375 395.8313903808594" stroke-width="0.0" fill="url(#shape_44_fill)"/>
    <path d="M 44.62445068359375 407.5787048339844 C 47.14875411987305 411.5452575683594 34.92369079589844 413.2159118652344 36.2020378112793 414.355712890625 C 32.82524490356445 414.9765930175781 32.68062210083008 415.93109130859375 29.89862060546875 416.86029052734375 C 27.96929931640625 417.9486389160156 25.489295959472656 418.39410400390625 21.738496780395508 421.3190612792969 C 15.412132263183594 421.27655029296875 6.241208553314209 420.0346374511719 -0.4982159435749054 420.3138122558594 C 1.0031778812408447 420.1614990234375 -0.9540882706642151 410.1371154785156 0.8591303825378418 409.4499206542969 C 8.028188705444336 408.1629943847656 41.53487014770508 406.7869873046875 44.62445068359375 407.5787048339844" stroke-width="0.0" fill="url(#shape_45_fill)"/>
    <path d="M 452.5057678222656 175.6357879638672 C 456.74420166015625 174.1873016357422 465.34674072265625 197.0988311767578 463.4881286621094 201.34393310546875 C 463.7040710449219 210.80416870117188 452.67474365234375 208.51519775390625 449.3148498535156 206.9043731689453 C 448.4975280761719 203.08103942871094 448.8158264160156 198.52745056152344 448.6213684082031 195.04901123046875 C 448.10064697265625 194.79147338867188 447.8390808105469 192.09239196777344 448.27972412109375 187.968994140625 C 447.63800048828125 184.7557830810547 447.01885986328125 181.35244750976562 452.5057678222656 175.6357879638672" stroke-width="0.0" fill="url(#shape_46_fill)"/>
    <path d="M 377.0184631347656 183.46690368652344 C 375.72625732421875 187.49063110351562 374.62841796875 203.29290771484375 371.87060546875 205.88973999023438 C 365.1815185546875 206.53981018066406 365.4474182128906 205.26666259765625 361.5376892089844 203.5453338623047 C 357.87677001953125 199.98902893066406 355.2848815917969 196.6199188232422 354.9666442871094 188.6788330078125 C 357.02545166015625 184.56292724609375 357.96917724609375 184.7837677001953 364.22418212890625 183.6963653564453 C 368.5108337402344 183.32977294921875 373.0681457519531 181.78961181640625 377.0184631347656 183.46690368652344" stroke-width="0.0" fill="url(#shape_47_fill)"/>
    <path d="M 466.73870849609375 270.7853088378906 C 468.5657043457031 271.917236328125 472.1677551269531 273.37353515625 470.9123840332031 280.0654296875 C 462.2914123535156 284.36505126953125 455.2331237792969 281.79351806640625 445.0393371582031 283.3819580078125 C 437.915283203125 283.4982604980469 440.42608642578125 276.83282470703125 441.0081787109375 276.69671630859375 C 447.5361328125 266.218017578125 456.0009765625 266.6455078125 466.73870849609375 270.7853088378906" stroke-width="0.0" fill="url(#shape_48_fill)"/>
    <path d="M 174.26918029785156 116.72869873046875 C 179.132568359375 114.71468353271484 182.702392578125 116.0609130859375 183.7561492919922 117.71082305908203 C 184.51947021484375 120.38604736328125 184.0330352783203 122.1520004272461 184.97689819335938 126.41397094726562 C 184.34812927246094 134.06138610839844 187.66116333007812 137.97573852539062 184.22972106933594 141.81277465820312 C 181.5566864013672 146.48214721679688 173.3990020751953 144.77635192871094 173.0563507080078 145.08348083496094 C 171.52142333984375 125.39680480957031 168.4681396484375 121.015380859375 174.26918029785156 116.72869873046875" stroke-width="0.0" fill="url(#shape_49_fill)"/>
    <path d="M 333.747802734375 428.20135498046875 C 337.14422607421875 428.6477966308594 340.46197509765625 429.79345703125 342.6532287597656 432.2590026855469 C 345.38555908203125 434.56201171875 344.075439453125 438.2806701660156 343.5478820800781 436.5311584472656 C 341.5578918457031 442.99334716796875 322.6050109863281 445.205078125 320.5599060058594 441.229248046875 C 318.48773193359375 439.1879577636719 317.95343017578125 432.93670654296875 317.97784423828125 431.9165954589844 C 322.2499084472656 426.6166687011719 327.5249328613281 427.2520751953125 333.747802734375 428.20135498046875" stroke-width="0.0" fill="url(#shape_50_fill)"/>
    <path d="M 295.0676574707031 390.9919738769531 C 296.6181945800781 395.4980163574219 296.6407165527344 400.0622253417969 290.5849304199219 400.2046203613281 C 286.9067077636719 400.5905456542969 284.12432861328125 402.1610107421875 271.19451904296875 402.48260498046875 C 271.2419738769531 401.8590087890625 269.2449951171875 399.24169921875 270.8814697265625 396.3148193359375 C 269.41448974609375 396.6509094238281 274.07244873046875 389.1582946777344 277.2669677734375 388.6044616699219 C 283.9646301269531 387.15374755859375 289.19708251953125 387.50286865234375 295.0676574707031 390.9919738769531" stroke-width="0.0" fill="url(#shape_51_fill)"/>
    <path d="M 272.7779235839844 192.1901092529297 C 278.9450988769531 194.51759338378906 279.0687561035156 205.32275390625 278.9604187011719 210.87315368652344 C 270.35577392578125 213.06729125976562 265.04974365234375 210.18756103515625 261.20880126953125 210.19935607910156 C 258.5404052734375 204.44100952148438 261.98919677734375 195.43679809570312 266.45068359375 195.57125854492188 C 269.8602294921875 195.7285919189453 270.18255615234375 192.59872436523438 272.7779235839844 192.1901092529297" stroke-width="0.0" fill="url(#shape_52_fill)"/>
    <path d="M 216.29727172851562 411.0039367675781 C 215.74737548828125 406.7154541015625 216.29168701171875 412.48333740234375 214.66371154785156 414.2757568359375 C 213.5563201904297 417.9875183105469 189.05813598632812 421.3414306640625 187.82571411132812 415.3260498046875 C 185.93264770507812 408.14715576171875 206.0281219482422 401.8727722167969 216.29727172851562 411.0039367675781" stroke-width="0.0" fill="url(#shape_53_fill)"/>
    <path d="M 205.82098388671875 424.7546081542969 C 205.60438537597656 425.6796569824219 206.00343322753906 428.4181823730469 204.7591094970703 429.75738525390625 C 201.5552215576172 433.7565612792969 178.6605987548828 434.00201416015625 178.2273406982422 432.3154602050781 C 175.38046264648438 431.0486145019531 178.5313262939453 424.4691162109375 177.6297607421875 425.74560546875 C 185.8762969970703 418.9915466308594 197.23487854003906 421.0296630859375 205.82098388671875 424.7546081542969" stroke-width="0.0" fill="url(#shape_54_fill)"/>
    <path d="M 271.1575012207031 245.29176330566406 C 275.6627502441406 244.57601928710938 276.3882751464844 245.81454467773438 279.8621826171875 248.2731475830078 C 281.5708923339844 250.0666046142578 281.0672302246094 255.23191833496094 281.1200256347656 256.30084228515625 C 263.341796875 257.72479248046875 263.04901123046875 257.2631530761719 255.31024169921875 255.1282501220703 C 255.0942840576172 247.9912109375 255.63482666015625 247.4186248779297 258.4017639160156 245.22659301757812 C 262.7782897949219 243.50196838378906 266.47900390625 244.52940368652344 271.1575012207031 245.29176330566406" stroke-width="0.0" fill="url(#shape_55_fill)"/>
    <path d="M 272.8512268066406 366.6879577636719 C 276.49456787109375 367.31683349609375 280.4869384765625 365.2184753417969 284.64886474609375 368.595947265625 C 285.493408203125 368.8006896972656 284.9863586425781 371.2106628417969 280.7215576171875 375.0834655761719 C 275.07958984375 375.4446105957031 265.28948974609375 378.0814514160156 256.9903259277344 375.99517822265625 C 253.41322326660156 373.24530029296875 254.8931121826172 369.0365295410156 256.1291198730469 368.18505859375 C 261.42681884765625 366.8018493652344 267.46197509765625 366.5868835449219 272.8512268066406 366.6879577636719" stroke-width="0.0" fill="url(#shape_56_fill)"/>
    <path d="M 408.82080078125 270.0846862792969 C 412.2286376953125 270.771484375 417.50042724609375 275.7253723144531 415.1856689453125 279.3028869628906 C 409.5320129394531 286.85614013671875 399.1956481933594 282.0631103515625 394.0807800292969 282.9834289550781 C 391.2333679199219 274.6861572265625 399.201904296875 267.781982421875 408.82080078125 270.0846862792969" stroke-width="0.0" fill="url(#shape_57_fill)"/>
    <path d="M 632.3251953125 352.75811767578125 C 632.5332641601562 352.7485046386719 660.0596923828125 352.6241760253906 666.857666015625 354.8382263183594 C 670.3571166992188 360.29638671875 662.6077270507812 359.1313171386719 656.3894653320312 359.46063232421875 C 654.18994140625 358.8451843261719 634.147705078125 361.70782470703125 631.8232421875 360.7281188964844 C 627.3447265625 357.4626159667969 629.6812133789062 353.9546203613281 632.3251953125 352.75811767578125" stroke-width="0.0" fill="url(#shape_58_fill)"/>
    <path d="M 345.4932556152344 389.2333984375 C 339.9628601074219 389.5484313964844 359.15350341796875 388.6697692871094 358.1449279785156 394.12548828125 C 356.5344543457031 399.5971984863281 342.3780212402344 399.9648132324219 338.2259216308594 399.74053955078125 C 335.2772216796875 399.3480224609375 333.37579345703125 398.54107666015625 331.2576904296875 396.70733642578125 C 331.9786376953125 394.2072448730469 330.7023620605469 394.2661437988281 333.189208984375 391.2370300292969 C 337.0572509765625 389.24658203125 340.6137390136719 389.5118713378906 345.4932556152344 389.2333984375" stroke-width="0.0" fill="url(#shape_59_fill)"/>
    <path d="M 460.6141052246094 363.8997802734375 C 464.0211181640625 363.36676025390625 470.2349853515625 368.5725402832031 472.2450256347656 372.31134033203125 C 471.2411804199219 377.89984130859375 470.96917724609375 375.45904541015625 463.65032958984375 376.45672607421875 C 460.8832702636719 377.2635803222656 454.7745361328125 378.0318908691406 453.0858459472656 372.4263916015625 C 452.67425537109375 368.4993591308594 458.15460205078125 363.842041015625 460.6141052246094 363.8997802734375" stroke-width="0.0" fill="url(#shape_60_fill)"/>
    <path d="M 438.0843505859375 433.051513671875 C 440.0595397949219 434.4710998535156 442.73199462890625 436.0757751464844 441.7626953125 438.90576171875 C 440.6332702636719 442.5823974609375 430.3464660644531 441.0591125488281 427.0949401855469 441.37945556640625 C 421.3454895019531 439.1177673339844 425.34149169921875 435.5869140625 424.8699645996094 434.0506286621094 C 428.9573974609375 432.14178466796875 433.6299133300781 432.2959899902344 438.0843505859375 433.051513671875" stroke-width="0.0" fill="url(#shape_61_fill)"/>
    <path d="M 185.13807678222656 411.7935791015625 C 185.97552490234375 414.1304931640625 185.31781005859375 414.5757141113281 186.33457946777344 417.2138977050781 C 184.3368682861328 420.28662109375 183.9148712158203 419.3638610839844 182.7950439453125 420.3315124511719 C 180.40208435058594 421.13311767578125 174.89308166503906 421.4664306640625 171.59481811523438 419.8370666503906 C 169.04852294921875 418.1682434082031 170.20533752441406 416.0804748535156 171.95787048339844 414.111083984375 C 176.37213134765625 411.56195068359375 180.24899291992188 410.17388916015625 185.13807678222656 411.7935791015625" stroke-width="0.0" fill="url(#shape_62_fill)"/>
    <path d="M 331.9775390625 418.7816467285156 C 334.8214111328125 424.29241943359375 327.541015625 428.28314208984375 329.4586486816406 426.5504455566406 C 324.42779541015625 427.5831298828125 323.21661376953125 426.9617614746094 320.7008361816406 427.14453125 C 317.6246032714844 426.5121765136719 319.54254150390625 418.77545166015625 318.5675354003906 419.6495666503906 C 322.6727600097656 417.4864807128906 325.6023864746094 417.3619384765625 331.9775390625 418.7816467285156" stroke-width="0.0" fill="url(#shape_63_fill)"/>
    <path d="M 56.3798713684082 273.1190490722656 C 55.442203521728516 272.24163818359375 68.314697265625 271.9178466796875 63.8327522277832 278.55322265625 C 61.12208557128906 279.85418701171875 50.70273971557617 277.62738037109375 48.63033676147461 277.5995788574219 C 49.73459243774414 272.3479919433594 51.83262252807617 272.8329162597656 56.3798713684082 273.1190490722656" stroke-width="0.0" fill="url(#shape_64_fill)"/>
    <path d="M 304.3758239746094 438.3735656738281 C 304.31005859375 436.86383056640625 305.90216064453125 436.1488037109375 313.02484130859375 436.9446105957031 C 314.9239501953125 438.80474853515625 313.15997314453125 441.62451171875 311.350830078125 443.91448974609375 C 307.6290283203125 445.2065124511719 307.0274963378906 444.49871826171875 304.4401550292969 445.24072265625 C 303.05633544921875 441.0796813964844 302.37158203125 439.9031677246094 304.3758239746094 438.3735656738281" stroke-width="0.0" fill="url(#shape_65_fill)"/>
    <path d="M -0.14855916798114777 0.19797749817371368 C 222.50563049316406 -0.16949641704559326 444.7345886230469 -0.16887328028678894 673.8132934570312 0.19560033082962036 C 674.1777954101562 147.25462341308594 674.1832885742188 294.4551696777344 673.8219604492188 445.7983093261719 C 451.4632568359375 446.1701965332031 229.0701446533203 446.18035888671875 0.16835917532444 445.8179016113281 C -0.1855400651693344 298.9305114746094 -0.1789773404598236 151.68930053710938 -0.14855916798114777 0.19797749817371368" stroke-width="0.0" fill="url(#shape_66_fill)"/>
    <path d="M -0.18408755958080292 0.22309531271457672 C 222.56707763671875 -0.15488725900650024 444.6466064453125 -0.1536780446767807 673.8020629882812 0.22078529000282288 C 674.17724609375 147.32310485839844 674.1885375976562 294.4932861328125 673.818115234375 445.79522705078125 C 451.4658508300781 446.1716613769531 229.07359313964844 446.18231201171875 0.15569432079792023 445.8066711425781 C -0.1911938339471817 298.9755554199219 -0.17994430661201477 151.71188354492188 -0.18408755958080292 0.22309531271457672" stroke-width="0.0" fill="url(#shape_67_fill)"/>
    <path d="M -0.19434359669685364 0.21774932742118835 C 222.56610107421875 -0.1447848081588745 444.6468811035156 -0.1397000104188919 673.8026123046875 0.21099336445331573 C 674.177490234375 147.32144165039062 674.1883544921875 294.4935607910156 673.8180541992188 445.79443359375 C 451.46612548828125 446.17169189453125 229.07806396484375 446.18182373046875 0.15428107976913452 445.80401611328125 C -0.18880721926689148 298.9727478027344 -0.17962685227394104 151.7082061767578 -0.19434359669685364 0.21774932742118835" stroke-width="0.0" fill="url(#shape_68_fill)"/>
  </g>
</svg>
