<?xml version="1.0" ?>
<svg xmlns="http://www.w3.org/2000/svg" version="1.1" width="674" height="446">
  <defs>
    <radialGradient id="shape_0_fill" cx="0.5337246858047803" cy="0.7401820298267587" r="0.27945433030850103">
      <stop offset="0.7553721" stop-color="rgb(161, 178, 0)" stop-opacity="0.8500118255615234"/>
      <stop offset="1.0" stop-color="rgb(50, 46, 0)" stop-opacity="1.0"/>
    </radialGradient>
    <radialGradient id="shape_1_fill" cx="0.5353271303261776" cy="0.7440414770836253" r="0.2063913769821031">
      <stop offset="0.5171919" stop-color="rgb(73, 73, 69)" stop-opacity="0.7812519073486328"/>
      <stop offset="1.0" stop-color="rgb(32, 12, 0)" stop-opacity="0.6240138411521912"/>
    </radialGradient>
    <radialGradient id="shape_2_fill" cx="0.09792273546892387" cy="0.7376672719091578" r="0.22062588021026522">
      <stop offset="0.0" stop-color="rgb(36, 96, 183)" stop-opacity="0.9559349417686462"/>
      <stop offset="0.98616153" stop-color="rgb(8, 102, 255)" stop-opacity="0.9218343496322632"/>
    </radialGradient>
    <radialGradient id="shape_3_fill" cx="0.2771116081260432" cy="0.2155909859011526" r="0.12953404502981847">
      <stop offset="0.3959282" stop-color="rgb(136, 191, 4)" stop-opacity="0.7899671792984009"/>
      <stop offset="1.0" stop-color="rgb(37, 40, 0)" stop-opacity="0.9432504177093506"/>
    </radialGradient>
    <radialGradient id="shape_4_fill" cx="0.1543026706231454" cy="0.9977578475336323" r="0.10288926755639141">
      <stop offset="0.0" stop-color="rgb(81, 79, 86)" stop-opacity="1.0"/>
      <stop offset="1.0" stop-color="rgb(66, 63, 78)" stop-opacity="0.893685519695282"/>
    </radialGradient>
    <radialGradient id="shape_5_fill" cx="0.14807964290992442" cy="0.23997249517740155" r="0.11810664960821587">
      <stop offset="0.0" stop-color="rgb(255, 255, 255)" stop-opacity="0.6465655565261841"/>
      <stop offset="0.5626593" stop-color="rgb(255, 255, 255)" stop-opacity="0.5609802603721619"/>
    </radialGradient>
    <radialGradient id="shape_6_fill" cx="0.18397626112759644" cy="0.9977578475336323" r="0.0754974885934892">
      <stop offset="0.0" stop-color="rgb(93, 90, 94)" stop-opacity="1.0"/>
      <stop offset="1.0" stop-color="rgb(145, 130, 132)" stop-opacity="0.9234833717346191"/>
    </radialGradient>
    <radialGradient id="shape_7_fill" cx="0.2893175074183976" cy="0.05829596412556054" r="0.08666390552011372">
      <stop offset="0.0" stop-color="rgb(55, 66, 29)" stop-opacity="1.0"/>
      <stop offset="1.0" stop-color="rgb(112, 129, 47)" stop-opacity="0.5488210916519165"/>
    </radialGradient>
    <radialGradient id="shape_8_fill" cx="0.3382789091115889" cy="0.9439461883408071" r="0.06756690277190167">
      <stop offset="0.0" stop-color="rgb(91, 124, 45)" stop-opacity="1.0"/>
      <stop offset="1.0" stop-color="rgb(114, 170, 54)" stop-opacity="0.6849952340126038"/>
    </radialGradient>
    <radialGradient id="shape_9_fill" cx="0.30712166172106825" cy="0.9977578475336323" r="0.0730758406641929">
      <stop offset="0.0" stop-color="rgb(38, 48, 20)" stop-opacity="1.0"/>
      <stop offset="1.0" stop-color="rgb(31, 32, 48)" stop-opacity="1.0"/>
    </radialGradient>
    <radialGradient id="shape_10_fill" cx="0.3056379821958457" cy="0.9977578475336323" r="0.06792919147615971">
      <stop offset="0.0" stop-color="rgb(39, 49, 21)" stop-opacity="1.0"/>
      <stop offset="1.0" stop-color="rgb(37, 21, 0)" stop-opacity="0.6843631863594055"/>
    </radialGradient>
    <radialGradient id="shape_11_fill" cx="0.21810089020771514" cy="0.968609865470852" r="0.06792919147615971">
      <stop offset="0.0" stop-color="rgb(138, 135, 129)" stop-opacity="1.0"/>
      <stop offset="1.0" stop-color="rgb(152, 120, 87)" stop-opacity="0.46502336859703064"/>
    </radialGradient>
    <radialGradient id="shape_12_fill" cx="0.29080118694362017" cy="0.9977578475336323" r="0.07480746985189285">
      <stop offset="0.0" stop-color="rgb(22, 25, 13)" stop-opacity="1.0"/>
      <stop offset="1.0" stop-color="rgb(38, 40, 8)" stop-opacity="0.9960659146308899"/>
    </radialGradient>
    <radialGradient id="shape_13_fill" cx="0.327893175074184" cy="0.8923766816143498" r="0.06900465877544279">
      <stop offset="0.0" stop-color="rgb(89, 117, 50)" stop-opacity="1.0"/>
      <stop offset="1.0" stop-color="rgb(101, 138, 10)" stop-opacity="0.6650519371032715"/>
    </radialGradient>
    <radialGradient id="shape_14_fill" cx="0.142433234421365" cy="0.9977578475336323" r="0.06617211022079875">
      <stop offset="0.0" stop-color="rgb(155, 150, 153)" stop-opacity="1.0"/>
      <stop offset="1.0" stop-color="rgb(255, 214, 198)" stop-opacity="0.2264689803123474"/>
    </radialGradient>
    <radialGradient id="shape_15_fill" cx="0.31008902077151335" cy="0.9977578475336323" r="0.06683642786405207">
      <stop offset="0.0" stop-color="rgb(43, 55, 23)" stop-opacity="1.0"/>
      <stop offset="1.0" stop-color="rgb(58, 68, 19)" stop-opacity="0.9350559115409851"/>
    </radialGradient>
    <radialGradient id="shape_16_fill" cx="0.27299703264094954" cy="0.9977578475336323" r="0.08110449363640579">
      <stop offset="0.0" stop-color="rgb(31, 35, 19)" stop-opacity="1.0"/>
      <stop offset="1.0" stop-color="rgb(31, 31, 0)" stop-opacity="0.9644626975059509"/>
    </radialGradient>
    <radialGradient id="shape_17_fill" cx="0.2893175074183976" cy="0.9977578475336323" r="0.07513486030193747">
      <stop offset="0.0" stop-color="rgb(22, 23, 13)" stop-opacity="1.0"/>
      <stop offset="1.0" stop-color="rgb(20, 18, 0)" stop-opacity="0.8560648560523987"/>
    </radialGradient>
    <radialGradient id="shape_18_fill" cx="0.3293768545994065" cy="0.7556053811659192" r="0.06617211022079875">
      <stop offset="0.0" stop-color="rgb(83, 108, 65)" stop-opacity="1.0"/>
      <stop offset="1.0" stop-color="rgb(109, 134, 60)" stop-opacity="0.9805768132209778"/>
    </radialGradient>
    <radialGradient id="shape_19_fill" cx="0.3516320474777448" cy="0.9977578475336323" r="0.06617211022079875">
      <stop offset="0.0" stop-color="rgb(95, 135, 39)" stop-opacity="1.0"/>
      <stop offset="1.0" stop-color="rgb(139, 202, 5)" stop-opacity="0.7470166683197021"/>
    </radialGradient>
    <radialGradient id="shape_20_fill" cx="0.0830860534124629" cy="0.9977578475336323" r="0.06792919147615971">
      <stop offset="0.0" stop-color="rgb(49, 52, 66)" stop-opacity="1.0"/>
      <stop offset="1.0" stop-color="rgb(28, 16, 54)" stop-opacity="0.397355318069458"/>
    </radialGradient>
    <radialGradient id="shape_21_fill" cx="0.29821958456973297" cy="0.9977578475336323" r="0.06792919147615971">
      <stop offset="0.0" stop-color="rgb(33, 40, 17)" stop-opacity="1.0"/>
      <stop offset="1.0" stop-color="rgb(42, 58, 0)" stop-opacity="0.6986989378929138"/>
    </radialGradient>
    <radialGradient id="shape_22_fill" cx="0.3563326600751113" cy="0.44372438849889645" r="0.06594546966099951">
      <stop offset="0.5237209" stop-color="rgb(105, 141, 24)" stop-opacity="0.9697322249412537"/>
      <stop offset="0.38905042" stop-color="rgb(149, 184, 38)" stop-opacity="0.9120584726333618"/>
    </radialGradient>
    <radialGradient id="shape_23_fill" cx="0.6454005934718101" cy="0.1412556053811659" r="0.06617211022079875">
      <stop offset="0.0" stop-color="rgb(46, 38, 13)" stop-opacity="1.0"/>
      <stop offset="1.0" stop-color="rgb(52, 31, 0)" stop-opacity="0.882393479347229"/>
    </radialGradient>
    <radialGradient id="shape_24_fill" cx="0.24925732258873098" cy="0.48430544592339897" r="0.06617138010811735">
      <stop offset="0.0" stop-color="rgb(201, 209, 206)" stop-opacity="1.0"/>
      <stop offset="0.9766002" stop-color="rgb(255, 255, 255)" stop-opacity="0.5754615068435669"/>
    </radialGradient>
    <radialGradient id="shape_25_fill" cx="0.6320474777448071" cy="0.9977578475336323" r="0.06617211022079875">
      <stop offset="0.0" stop-color="rgb(35, 28, 8)" stop-opacity="1.0"/>
      <stop offset="1.0" stop-color="rgb(39, 16, 0)" stop-opacity="0.5651647448539734"/>
    </radialGradient>
    <radialGradient id="shape_26_fill" cx="0.15414520399506793" cy="0.3207086811151205" r="0.06604698362265567">
      <stop offset="0.11989566" stop-color="rgb(198, 211, 155)" stop-opacity="1.0"/>
      <stop offset="0.58338004" stop-color="rgb(115, 114, 252)" stop-opacity="0.0076024797745049"/>
    </radialGradient>
    <radialGradient id="shape_27_fill" cx="0.15410647972401242" cy="0.3208032787648017" r="0.06604505929465818">
      <stop offset="0.0" stop-color="rgb(192, 205, 0)" stop-opacity="1.0"/>
      <stop offset="0.49375948" stop-color="rgb(77, 73, 47)" stop-opacity="0.6161673069000244"/>
    </radialGradient>
    <radialGradient id="shape_28_fill" cx="0.036589181034076816" cy="0.017137435519641826" r="0.06877673910350403">
      <stop offset="0.14354764" stop-color="rgb(5, 28, 124)" stop-opacity="0.9786306619644165"/>
      <stop offset="0.7906563" stop-color="rgb(5, 27, 160)" stop-opacity="0.7477452754974365"/>
    </radialGradient>
    <radialGradient id="shape_29_fill" cx="0.33976258863681147" cy="0.6659192825112108" r="0.06617211022079875">
      <stop offset="0.0" stop-color="rgb(90, 117, 55)" stop-opacity="1.0"/>
      <stop offset="1.0" stop-color="rgb(110, 141, 28)" stop-opacity="0.878869891166687"/>
    </radialGradient>
    <radialGradient id="shape_30_fill" cx="0.03961111742240385" cy="0.016616375457010998" r="0.06866871638538576">
      <stop offset="0.24311258" stop-color="rgb(48, 74, 71)" stop-opacity="1.0"/>
      <stop offset="0.9229813" stop-color="rgb(58, 65, 9)" stop-opacity="0.5504565834999084"/>
    </radialGradient>
    <radialGradient id="shape_31_fill" cx="0.12314540059347182" cy="0.9977578475336323" r="0.06617211022079875">
      <stop offset="0.0" stop-color="rgb(95, 103, 98)" stop-opacity="1.0"/>
      <stop offset="1.0" stop-color="rgb(136, 127, 114)" stop-opacity="0.7391893267631531"/>
    </radialGradient>
    <radialGradient id="shape_32_fill" cx="0.4035608308605341" cy="0.984304932735426" r="0.06617211022079875">
      <stop offset="0.0" stop-color="rgb(126, 155, 63)" stop-opacity="1.0"/>
      <stop offset="1.0" stop-color="rgb(138, 128, 30)" stop-opacity="0.9837586879730225"/>
    </radialGradient>
    <radialGradient id="shape_33_fill" cx="0.3249258160237389" cy="0.6053811659192825" r="0.06617211022079875">
      <stop offset="0.0" stop-color="rgb(93, 124, 71)" stop-opacity="1.0"/>
      <stop offset="1.0" stop-color="rgb(126, 153, 58)" stop-opacity="1.0"/>
    </radialGradient>
    <radialGradient id="shape_34_fill" cx="0.6468842729970327" cy="0.531390134529148" r="0.06617211022079875">
      <stop offset="0.0" stop-color="rgb(54, 47, 24)" stop-opacity="1.0"/>
      <stop offset="1.0" stop-color="rgb(51, 17, 23)" stop-opacity="0.4119710922241211"/>
    </radialGradient>
    <radialGradient id="shape_35_fill" cx="0.14718297398054989" cy="0.23980783026314637" r="0.06940559817350937">
      <stop offset="0.06997658" stop-color="rgb(196, 255, 81)" stop-opacity="0.16132934391498566"/>
      <stop offset="0.5709168" stop-color="rgb(109, 89, 61)" stop-opacity="0.7971122860908508"/>
    </radialGradient>
    <radialGradient id="shape_36_fill" cx="0.2878338278931751" cy="0.9977578475336323" r="0.06617211022079875">
      <stop offset="0.0" stop-color="rgb(80, 96, 53)" stop-opacity="1.0"/>
      <stop offset="1.0" stop-color="rgb(34, 36, 0)" stop-opacity="0.7837273478507996"/>
    </radialGradient>
    <radialGradient id="shape_37_fill" cx="0.129080118694362" cy="0.9977578475336323" r="0.06617211022079875">
      <stop offset="0.0" stop-color="rgb(87, 97, 81)" stop-opacity="1.0"/>
      <stop offset="1.0" stop-color="rgb(66, 76, 55)" stop-opacity="0.593595027923584"/>
    </radialGradient>
    <radialGradient id="shape_38_fill" cx="0.33892324204260943" cy="0.5607740119968294" r="0.0666785763703751">
      <stop offset="0.7501433" stop-color="rgb(83, 113, 21)" stop-opacity="0.9098807573318481"/>
      <stop offset="0.6022492" stop-color="rgb(169, 255, 79)" stop-opacity="0.8872769474983215"/>
    </radialGradient>
    <radialGradient id="shape_39_fill" cx="0.40059347181008903" cy="0.9641255605381166" r="0.06617211022079875">
      <stop offset="0.0" stop-color="rgb(138, 168, 60)" stop-opacity="1.0"/>
      <stop offset="1.0" stop-color="rgb(215, 255, 81)" stop-opacity="1.0"/>
    </radialGradient>
    <radialGradient id="shape_40_fill" cx="0.6130218053076317" cy="0.8779178499640905" r="0.07001883622800562">
      <stop offset="0.3678074" stop-color="rgb(156, 142, 152)" stop-opacity="0.4098001718521118"/>
      <stop offset="0.5020784" stop-color="rgb(0, 14, 70)" stop-opacity="0.9883975982666016"/>
    </radialGradient>
    <radialGradient id="shape_41_fill" cx="0.6454005934718101" cy="0.08744394618834081" r="0.06617211022079875">
      <stop offset="0.0" stop-color="rgb(58, 48, 21)" stop-opacity="1.0"/>
      <stop offset="1.0" stop-color="rgb(90, 63, 19)" stop-opacity="1.0"/>
    </radialGradient>
    <radialGradient id="shape_42_fill" cx="0.5845697329376854" cy="0.6188340807174888" r="0.06617211022079875">
      <stop offset="0.0" stop-color="rgb(62, 59, 56)" stop-opacity="1.0"/>
      <stop offset="1.0" stop-color="rgb(35, 31, 80)" stop-opacity="0.5943684577941895"/>
    </radialGradient>
    <radialGradient id="shape_43_fill" cx="0.3552734873061364" cy="0.5024710343023052" r="0.06937208656741178">
      <stop offset="0.24291858" stop-color="rgb(118, 160, 48)" stop-opacity="0.9133889079093933"/>
      <stop offset="0.57777965" stop-color="rgb(204, 255, 30)" stop-opacity="0.8399739861488342"/>
    </radialGradient>
    <radialGradient id="shape_44_fill" cx="0.5934718100890207" cy="0.9977578475336323" r="0.06617211022079875">
      <stop offset="0.0" stop-color="rgb(89, 61, 18)" stop-opacity="1.0"/>
      <stop offset="1.0" stop-color="rgb(163, 82, 1)" stop-opacity="0.7434245347976685"/>
    </radialGradient>
    <radialGradient id="shape_45_fill" cx="0.612759643916914" cy="0.04035874439461883" r="0.06617211022079875">
      <stop offset="0.0" stop-color="rgb(157, 136, 123)" stop-opacity="1.0"/>
      <stop offset="1.0" stop-color="rgb(255, 224, 204)" stop-opacity="1.0"/>
    </radialGradient>
    <radialGradient id="shape_46_fill" cx="0.28635014836795253" cy="0.9977578475336323" r="0.06617211022079875">
      <stop offset="0.0" stop-color="rgb(82, 99, 55)" stop-opacity="1.0"/>
      <stop offset="1.0" stop-color="rgb(92, 107, 26)" stop-opacity="0.5832681059837341"/>
    </radialGradient>
    <radialGradient id="shape_47_fill" cx="0.28635014836795253" cy="0.8183856502242153" r="0.06617211022079875">
      <stop offset="0.0" stop-color="rgb(166, 189, 197)" stop-opacity="1.0"/>
      <stop offset="1.0" stop-color="rgb(255, 255, 255)" stop-opacity="0.4556666910648346"/>
    </radialGradient>
    <radialGradient id="shape_48_fill" cx="0.40801186943620177" cy="0.9977578475336323" r="0.06617211022079875">
      <stop offset="0.0" stop-color="rgb(107, 135, 68)" stop-opacity="1.0"/>
      <stop offset="1.0" stop-color="rgb(128, 145, 55)" stop-opacity="1.0"/>
    </radialGradient>
    <radialGradient id="shape_49_fill" cx="0.19287833827893175" cy="0.3991031390134529" r="0.06617211022079875">
      <stop offset="0.0" stop-color="rgb(92, 100, 54)" stop-opacity="1.0"/>
      <stop offset="1.0" stop-color="rgb(60, 38, 1)" stop-opacity="0.5218672752380371"/>
    </radialGradient>
    <radialGradient id="shape_50_fill" cx="0.6439169139465876" cy="0.7376681614349776" r="0.06617211022079875">
      <stop offset="0.0" stop-color="rgb(65, 56, 25)" stop-opacity="1.0"/>
      <stop offset="1.0" stop-color="rgb(150, 190, 103)" stop-opacity="0.4401357173919678"/>
    </radialGradient>
    <radialGradient id="shape_51_fill" cx="0.5845697329376854" cy="0.6322869955156951" r="0.06617211022079875">
      <stop offset="0.0" stop-color="rgb(75, 68, 60)" stop-opacity="1.0"/>
      <stop offset="1.0" stop-color="rgb(145, 114, 90)" stop-opacity="0.6606114506721497"/>
    </radialGradient>
    <radialGradient id="shape_52_fill" cx="0.2997032640949555" cy="0.6031390134529148" r="0.06617211022079875">
      <stop offset="0.0" stop-color="rgb(107, 158, 118)" stop-opacity="1.0"/>
      <stop offset="1.0" stop-color="rgb(181, 255, 238)" stop-opacity="0.5337191820144653"/>
    </radialGradient>
    <radialGradient id="shape_53_fill" cx="0.6097922848664689" cy="0.45067264573991034" r="0.06617211022079875">
      <stop offset="0.0" stop-color="rgb(38, 39, 27)" stop-opacity="1.0"/>
      <stop offset="1.0" stop-color="rgb(18, 13, 50)" stop-opacity="0.36694055795669556"/>
    </radialGradient>
    <radialGradient id="shape_54_fill" cx="0.6335311572700296" cy="0.426009002822397" r="0.06617211022079875">
      <stop offset="0.0" stop-color="rgb(67, 49, 20)" stop-opacity="1.0"/>
      <stop offset="1.0" stop-color="rgb(139, 79, 21)" stop-opacity="0.6411294937133789"/>
    </radialGradient>
    <radialGradient id="shape_55_fill" cx="0.3707168533823257" cy="0.5988430827187851" r="0.066001377049115">
      <stop offset="0.43605936" stop-color="rgb(237, 255, 43)" stop-opacity="0.8556785583496094"/>
      <stop offset="0.16089156" stop-color="rgb(203, 255, 0)" stop-opacity="0.7336442470550537"/>
    </radialGradient>
    <radialGradient id="shape_56_fill" cx="0.5489614243323442" cy="0.600896860986547" r="0.06617211022079875">
      <stop offset="0.0" stop-color="rgb(50, 62, 80)" stop-opacity="1.0"/>
      <stop offset="1.0" stop-color="rgb(28, 77, 231)" stop-opacity="0.4464671313762665"/>
    </radialGradient>
    <radialGradient id="shape_57_fill" cx="0.4094955489614243" cy="0.9035874439461884" r="0.06617211022079875">
      <stop offset="0.0" stop-color="rgb(111, 144, 47)" stop-opacity="1.0"/>
      <stop offset="1.0" stop-color="rgb(191, 251, 32)" stop-opacity="0.7156113982200623"/>
    </radialGradient>
    <radialGradient id="shape_58_fill" cx="0.5281899109792285" cy="0.9977578475336323" r="0.06617211022079875">
      <stop offset="0.0" stop-color="rgb(50, 43, 14)" stop-opacity="1.0"/>
      <stop offset="1.0" stop-color="rgb(77, 56, 7)" stop-opacity="1.0"/>
    </radialGradient>
    <radialGradient id="shape_59_fill" cx="0.5845697329376854" cy="0.7690582959641256" r="0.06617211022079875">
      <stop offset="0.0" stop-color="rgb(61, 63, 58)" stop-opacity="1.0"/>
      <stop offset="1.0" stop-color="rgb(78, 75, 94)" stop-opacity="0.7085339426994324"/>
    </radialGradient>
    <radialGradient id="shape_60_fill" cx="0.5489614243323442" cy="0.9977578475336323" r="0.06617211022079875">
      <stop offset="0.0" stop-color="rgb(140, 131, 64)" stop-opacity="1.0"/>
      <stop offset="1.0" stop-color="rgb(235, 207, 89)" stop-opacity="0.9139492511749268"/>
    </radialGradient>
    <radialGradient id="shape_61_fill" cx="0.6469694867685923" cy="0.9686691900005255" r="0.06610574354403805">
      <stop offset="0.4630161" stop-color="rgb(255, 221, 63)" stop-opacity="1.0"/>
      <stop offset="0.22081952" stop-color="rgb(227, 160, 22)" stop-opacity="0.787889301776886"/>
    </radialGradient>
    <radialGradient id="shape_62_fill" cx="0.615727002967359" cy="0.3991031390134529" r="0.06617211022079875">
      <stop offset="0.0" stop-color="rgb(55, 47, 13)" stop-opacity="1.0"/>
      <stop offset="1.0" stop-color="rgb(76, 53, 0)" stop-opacity="1.0"/>
    </radialGradient>
    <radialGradient id="shape_63_fill" cx="0.6261127596439169" cy="0.7286995515695067" r="0.06617211022079875">
      <stop offset="0.0" stop-color="rgb(79, 66, 32)" stop-opacity="1.0"/>
      <stop offset="1.0" stop-color="rgb(195, 203, 107)" stop-opacity="0.6087341904640198"/>
    </radialGradient>
    <radialGradient id="shape_64_fill" cx="0.40801186943620177" cy="0.12556053811659193" r="0.06617211022079875">
      <stop offset="0.0" stop-color="rgb(76, 66, 59)" stop-opacity="1.0"/>
      <stop offset="1.0" stop-color="rgb(108, 81, 75)" stop-opacity="1.0"/>
    </radialGradient>
    <radialGradient id="shape_65_fill" cx="0.6528189910979229" cy="0.6883408071748879" r="0.06617211022079875">
      <stop offset="0.0" stop-color="rgb(121, 97, 39)" stop-opacity="1.0"/>
      <stop offset="1.0" stop-color="rgb(255, 243, 96)" stop-opacity="1.0"/>
    </radialGradient>
    <radialGradient id="shape_66_fill" cx="0.6524808979883392" cy="0.4597745134156916" r="0.07006403529679386">
      <stop offset="0.24439298" stop-color="rgb(165, 199, 114)" stop-opacity="0.3028126657009125"/>
      <stop offset="0.9468121" stop-color="rgb(0, 0, 0)" stop-opacity="0.05378144234418869"/>
    </radialGradient>
    <radialGradient id="shape_67_fill" cx="0.596163967596671" cy="0.9950819485925239" r="0.06974053312126183">
      <stop offset="0.8466383" stop-color="rgb(53, 30, 0)" stop-opacity="0.7132239937782288"/>
      <stop offset="1.0" stop-color="rgb(0, 0, 0)" stop-opacity="0.15375716984272003"/>
    </radialGradient>
    <radialGradient id="shape_68_fill" cx="0.4903779525077661" cy="0.9967851168371636" r="0.06805941754349615">
      <stop offset="0.36243314" stop-color="rgb(48, 21, 1)" stop-opacity="0.5669110417366028"/>
      <stop offset="1.0" stop-color="rgb(37, 62, 56)" stop-opacity="0.22166989743709564"/>
    </radialGradient>
  </defs>
  <g>
    <path d="M -0.3637143075466156 271.1209411621094 C 25.581851959228516 264.9247131347656 37.99557876586914 266.7246398925781 45.68045425415039 272.3641357421875 C 48.123931884765625 274.0888366699219 49.361061096191406 276.2625427246094 57.085411071777344 274.4895935058594 C 59.5858154296875 273.7953796386719 63.30036926269531 274.2691345214844 64.21021270751953 271.1977233886719 C 69.33165740966797 269.1836242675781 99.91210174560547 270.4947204589844 116.77922058105469 270.7283630371094 C 120.5924072265625 270.9520568847656 124.62220764160156 278.0986022949219 125.98060607910156 282.385009765625 C 132.3892364501953 282.7691650390625 141.46527099609375 281.5640563964844 160.87448120117188 288.267822265625 C 185.26634216308594 282.53253173828125 185.83984375 282.3314514160156 206.70077514648438 287.2947082519531 C 200.1847381591797 287.5262756347656 198.25624084472656 281.587158203125 210.94308471679688 269.427734375 C 247.1785430908203 269.1009521484375 290.6562805175781 267.5396423339844 313.3611755371094 274.0420227050781 C 348.6219482421875 275.7408447265625 425.5540771484375 276.27392578125 470.5132751464844 270.5606994628906 C 499.6365966796875 267.2801513671875 547.2240600585938 267.9335632324219 547.062255859375 276.3887634277344 C 548.05712890625 275.49542236328125 549.0216064453125 269.998291015625 573.0343017578125 267.5826110839844 C 588.594482421875 271.9083251953125 612.06689453125 281.89849853515625 612.78271484375 282.0433044433594 C 621.9255981445312 269.4176330566406 631.2747802734375 268.4649353027344 672.916015625 267.6841125488281 C 676.4542846679688 272.43157958984375 679.3353271484375 278.8480224609375 678.4661865234375 284.9059753417969 C 676.6138305664062 339.5201721191406 674.7186889648438 391.49591064453125 675.1177368164062 446.4668273925781 C 451.9151306152344 446.6697692871094 228.9889373779297 446.8115539550781 -0.47246885299682617 446.4240417480469 C -0.45389196276664734 389.14483642578125 -0.17238058149814606 332.3588562011719 -0.3637143075466156 271.1209411621094" stroke-width="0.0" fill="url(#shape_0_fill)"/>
    <path d="M 0.015326673164963722 271.02880859375 C 35.933528900146484 275.39532470703125 36.5576057434082 274.5875244140625 44.235958099365234 274.06085205078125 C 47.1005859375 266.9951477050781 59.47378921508789 266.4783630371094 78.1257095336914 268.09063720703125 C 113.5576171875 278.68035888671875 114.04108428955078 279.3109130859375 127.60596466064453 279.018310546875 C 127.83537292480469 271.3943786621094 139.3433074951172 269.699462890625 145.20889282226562 269.56011962890625 C 185.2131805419922 268.3498840332031 185.9207763671875 269.8828430175781 203.0010986328125 273.93798828125 C 203.11123657226562 292.03839111328125 204.1508331298828 292.3302917480469 211.50352478027344 297.8837585449219 C 214.42483520507812 297.10687255859375 266.3629455566406 299.3701171875 287.99566650390625 300.86566162109375 C 317.1091003417969 303.54278564453125 447.88153076171875 301.7528381347656 462.3103942871094 303.0159912109375 C 480.0583190917969 294.4960021972656 490.7207946777344 291.76263427734375 504.0403747558594 287.01068115234375 C 511.62615966796875 288.2742614746094 520.7288818359375 286.54071044921875 522.9307861328125 286.5018615722656 C 527.4650268554688 285.7104187011719 531.7979736328125 285.9374084472656 534.8284912109375 287.13360595703125 C 541.455810546875 287.05340576171875 544.3877563476562 288.3426818847656 552.4794311523438 302.6120300292969 C 579.3262939453125 290.00946044921875 581.5511474609375 290.563232421875 596.9971313476562 295.26605224609375 C 614.44677734375 289.15557861328125 624.7160034179688 288.0828552246094 633.6799926757812 288.5026550292969 C 643.0767211914062 277.8802185058594 655.665771484375 282.2438049316406 673.8026733398438 291.6446838378906 C 674.1217041015625 340.3639831542969 674.4757690429688 392.16180419921875 674.1566772460938 446.2807922363281 C 451.4774169921875 446.3905334472656 229.19664001464844 446.25439453125 -0.3076566159725189 446.2476501464844 C -0.21357999742031097 389.4035949707031 -0.2940089702606201 333.0278625488281 0.015326673164963722 271.02880859375" stroke-width="0.0" fill="url(#shape_1_fill)"/>
    <path d="M -0.019932541996240616 -0.25989267230033875 C 219.69313049316406 0.1040392518043518 439.478759765625 -0.45242562890052795 672.6075439453125 -0.16477547585964203 C 666.0408935546875 11.038616180419922 644.811279296875 35.4085693359375 637.7989501953125 48.57560729980469 C 634.4443969726562 53.217655181884766 610.99609375 93.0930404663086 584.5059814453125 83.95622253417969 C 577.788818359375 81.5623550415039 561.1838989257812 71.18753051757812 532.6791381835938 73.80603790283203 C 531.9049682617188 77.66768646240234 525.1895141601562 79.13555908203125 522.3063354492188 72.05807495117188 C 522.64501953125 68.8691635131836 499.4014892578125 63.860084533691406 499.3793640136719 62.65553283691406 C 492.95263671875 62.1457633972168 485.9903564453125 60.997196197509766 484.5941162109375 68.57410430908203 C 475.2308654785156 72.60099792480469 476.0967712402344 75.76178741455078 477.08795166015625 83.62203216552734 C 485.3221130371094 99.45989227294922 478.2628173828125 117.65825653076172 474.94903564453125 120.92257690429688 C 460.48504638671875 117.47058868408203 459.157470703125 113.71343994140625 450.0087890625 108.29354858398438 C 435.1867980957031 107.90188598632812 411.71978759765625 102.19979858398438 410.0948181152344 105.10448455810547 C 413.9294738769531 120.15359497070312 418.0518493652344 127.23198699951172 414.6344299316406 138.7656707763672 C 409.8682556152344 149.91444396972656 398.0814208984375 149.37979125976562 393.78607177734375 136.12661743164062 C 381.5223693847656 142.45777893066406 376.6382751464844 158.25100708007812 369.04962158203125 157.44418334960938 C 366.5674133300781 156.05242919921875 364.1340637207031 159.80056762695312 358.5966796875 163.90284729003906 C 354.4276123046875 167.24093627929688 351.2033996582031 167.3599853515625 350.33197021484375 172.99269104003906 C 345.3091735839844 180.04054260253906 337.7056579589844 174.67422485351562 341.5588684082031 166.01112365722656 C 300.28277587890625 163.99609375 298.9361877441406 170.59947204589844 296.9022216796875 178.16749572753906 C 304.5293273925781 187.15167236328125 303.9878845214844 191.24703979492188 307.4775695800781 201.50604248046875 C 307.50262451171875 200.64657592773438 306.11962890625 198.1530303955078 304.00006103515625 190.21728515625 C 304.9539489746094 185.72866821289062 303.9447937011719 185.2143096923828 289.59820556640625 174.96731567382812 C 289.69281005859375 194.5624237060547 289.1361389160156 195.97174072265625 289.4355163574219 196.29222106933594 C 289.0926818847656 189.9427032470703 290.3750915527344 182.130126953125 289.0343017578125 174.9460906982422 C 272.23077392578125 177.56768798828125 269.0384521484375 182.5660858154297 261.6233825683594 177.98220825195312 C 255.60011291503906 183.07876586914062 255.59996032714844 188.24575805664062 254.67665100097656 197.3732452392578 C 260.7210388183594 199.3282012939453 260.567626953125 199.92950439453125 257.7989807128906 199.60031127929688 C 257.1775207519531 198.4396209716797 253.8134307861328 195.6798553466797 254.71095275878906 193.81019592285156 C 255.73947143554688 184.94020080566406 260.33612060546875 182.92095947265625 257.9234619140625 166.84156799316406 C 259.4275207519531 162.4363555908203 216.330078125 142.06358337402344 213.5340118408203 140.6722869873047 C 186.1780548095703 131.5867462158203 195.14874267578125 104.16991424560547 191.68209838867188 86.94583129882812 C 191.70631408691406 84.55182647705078 161.14830017089844 73.6493911743164 132.00079345703125 59.525230407714844 C 108.05012512207031 39.51302719116211 72.8461685180664 56.82810592651367 41.24119186401367 60.17146301269531 C 25.96579360961914 69.94023132324219 3.931852102279663 69.5707778930664 -1.1563844680786133 69.60289764404297 C 0.34183040261268616 43.958133697509766 -0.3314551115036011 22.56187629699707 -0.019932541996240616 -0.25989267230033875" stroke-width="0.0" fill="url(#shape_2_fill)"/>
    <path d="M 86.74687957763672 59.29405975341797 C 89.1493911743164 68.79987335205078 91.64525604248047 69.04911804199219 93.59197998046875 71.15234375 C 90.94143676757812 79.95864868164062 91.57362365722656 81.66109466552734 89.65450286865234 92.81686401367188 C 96.43505096435547 86.26911926269531 98.43244171142578 86.48518371582031 102.92781829833984 87.82842254638672 C 104.78366088867188 75.23958587646484 105.85978698730469 73.36921691894531 108.26081848144531 73.28026580810547 C 112.37214660644531 87.58806610107422 110.6136474609375 93.39183807373047 116.62185668945312 99.27981567382812 C 116.37932586669922 100.05231475830078 116.2800521850586 109.21477508544922 115.53645324707031 115.33035278320312 C 123.38512420654297 115.35575103759766 128.51551818847656 115.79981994628906 129.4827117919922 112.22611999511719 C 130.70672607421875 110.11278533935547 136.75001525878906 108.93040466308594 136.5665283203125 104.74507904052734 C 136.64080810546875 103.6778564453125 135.55844116210938 101.822265625 137.3656463623047 98.56221771240234 C 136.4907684326172 93.2707290649414 137.5216522216797 92.89954376220703 137.54336547851562 89.3753433227539 C 137.34437561035156 85.23418426513672 138.61053466796875 84.75565338134766 139.62594604492188 87.31369018554688 C 140.2461700439453 83.03221130371094 146.7412109375 80.69879913330078 148.12953186035156 82.92963409423828 C 148.60768127441406 93.24359130859375 150.0507354736328 94.55315399169922 152.0571746826172 99.13883972167969 C 153.56593322753906 102.93678283691406 149.9214324951172 106.91545867919922 148.84178161621094 106.73169708251953 C 152.5626983642578 109.77698516845703 150.41110229492188 114.08898162841797 148.4334259033203 113.38087463378906 C 154.4115447998047 112.83531188964844 157.93447875976562 122.59031677246094 157.15109252929688 123.30101776123047 C 161.29623413085938 125.03665161132812 164.95603942871094 123.466552734375 169.6396026611328 122.70193481445312 C 174.3914031982422 119.73075866699219 175.7845001220703 121.51386260986328 177.70616149902344 122.49968719482422 C 179.33514404296875 122.68695831298828 180.0130157470703 125.21797180175781 183.19808959960938 127.59129333496094 C 183.86178588867188 130.17962646484375 182.4834442138672 133.07093811035156 184.27838134765625 135.1859130859375 C 187.41033935546875 135.13758850097656 187.69078063964844 142.09506225585938 188.7329864501953 145.2332763671875 C 195.72328186035156 146.24273681640625 206.91720581054688 152.9482879638672 201.58436584472656 172.726806640625 C 205.3131866455078 176.78143310546875 206.0084228515625 178.68197631835938 205.50758361816406 181.53765869140625 C 214.11566162109375 181.3023681640625 214.5513916015625 195.42018127441406 212.5021209716797 202.22218322753906 C 204.9248046875 206.5637664794922 203.2261199951172 206.9550018310547 203.14901733398438 210.25804138183594 C 200.7383575439453 210.51718139648438 199.96278381347656 211.7038116455078 200.11376953125 213.47348022460938 C 196.2718963623047 215.23989868164062 193.36854553222656 215.3151092529297 192.02867126464844 219.7175750732422 C 184.28128051757812 220.864501953125 183.5967254638672 224.7403106689453 178.46383666992188 230.10116577148438 C 176.41879272460938 233.531005859375 180.70704650878906 238.96031188964844 180.91842651367188 240.17453002929688 C 182.3785400390625 251.77313232421875 185.78787231445312 260.80926513671875 178.94180297851562 264.87359619140625 C 173.38861083984375 268.1605529785156 148.70028686523438 268.30413818359375 135.7985382080078 269.6104431152344 C 131.7152557373047 269.13323974609375 129.18911743164062 272.3333740234375 122.36268615722656 275.5736999511719 C 109.15524291992188 276.8912658691406 73.29428100585938 276.0209655761719 73.0210952758789 270.0494689941406 C 47.701847076416016 266.7751159667969 56.556880950927734 268.5718994140625 57.65013122558594 273.5684814453125 C 48.31263732910156 276.36419677734375 1.0515395402908325 272.76593017578125 0.7792330980300903 270.1174011230469 C -5.844345569610596 224.45489501953125 -5.630892753601074 166.4178924560547 2.305638313293457 121.9249267578125 C 11.203740119934082 118.32290649414062 21.58259391784668 113.90705871582031 26.107484817504883 121.79547882080078 C 26.952381134033203 129.7164306640625 35.62224578857422 129.06533813476562 41.98368453979492 131.76344299316406 C 46.703182220458984 130.56399536132812 47.9287223815918 130.501220703125 49.492855072021484 142.19126892089844 C 50.32415008544922 148.687744140625 61.43555450439453 148.79029846191406 62.76308059692383 146.25425720214844 C 62.20375061035156 136.84878540039062 63.08869934082031 133.98779296875 62.15024185180664 128.27418518066406 C 68.30375671386719 126.68679809570312 67.66712188720703 123.65105438232422 66.35758209228516 112.52313995361328 C 67.89911651611328 111.11447143554688 68.3814926147461 106.18238830566406 75.92737579345703 102.76644134521484 C 73.9433364868164 100.91193389892578 78.22588348388672 91.76924133300781 77.2671890258789 85.69229888916016 C 77.19373321533203 83.70061492919922 77.77449035644531 74.94779205322266 85.27549743652344 75.31033325195312 C 83.04298400878906 70.13710021972656 82.8718032836914 67.53895568847656 86.74687957763672 59.29405975341797" stroke-width="0.0" fill="url(#shape_3_fill)"/>
    <path d="M 674.0752563476562 -0.7008077502250671 C 676.1160888671875 47.826416015625 675.0172119140625 95.90823364257812 680.2528076171875 139.0450439453125 C 677.8234252929688 125.32880401611328 669.548583984375 122.91649627685547 661.6303100585938 120.1812515258789 C 660.8474731445312 120.09064483642578 655.0652465820312 109.39598846435547 649.86865234375 110.9227066040039 C 648.8685302734375 112.537841796875 645.2810668945312 149.51434326171875 642.8449096679688 155.68167114257812 C 629.8348388671875 154.598876953125 626.813720703125 142.96607971191406 627.0606079101562 138.52931213378906 C 623.033447265625 137.44187927246094 618.9717407226562 145.34967041015625 615.4285278320312 144.10104370117188 C 611.6814575195312 142.31507873535156 610.1580810546875 143.3381805419922 607.7774047851562 141.0772705078125 C 608.9024658203125 137.74156188964844 612.6094970703125 132.9626007080078 606.6350708007812 119.66832733154297 C 598.3500366210938 134.03961181640625 597.5297241210938 139.33172607421875 594.1451416015625 142.7239990234375 C 599.5919799804688 145.87100219726562 597.6539916992188 151.29627990722656 597.3917236328125 152.0217742919922 C 588.7157592773438 157.62652587890625 587.7640380859375 164.45811462402344 578.6710815429688 172.37481689453125 C 571.9630126953125 170.28414916992188 569.9207763671875 158.26466369628906 568.646728515625 157.09495544433594 C 565.7327270507812 157.72906494140625 563.4650268554688 153.6798095703125 561.7459106445312 151.40997314453125 C 560.0950927734375 150.65338134765625 556.1626586914062 150.9544219970703 555.7799682617188 156.01296997070312 C 551.9022216796875 156.117431640625 550.3534545898438 158.79722595214844 548.8184814453125 158.59140014648438 C 547.6920166015625 156.53781127929688 544.478759765625 156.0792236328125 536.1670532226562 153.6443328857422 C 531.7890625 154.90151977539062 529.96875 158.80255126953125 523.1100463867188 156.8636932373047 C 519.2731323242188 160.51409912109375 520.3068237304688 162.15496826171875 522.9899291992188 169.2425079345703 C 517.615234375 168.4583740234375 517.2068481445312 170.93505859375 516.2787475585938 171.66046142578125 C 511.2713623046875 173.32232666015625 509.8157043457031 175.26531982421875 505.64031982421875 174.399169921875 C 502.76800537109375 171.402099609375 503.0162658691406 169.51766967773438 502.8553771972656 159.14854431152344 C 492.4017028808594 145.28244018554688 506.9969482421875 121.60820007324219 518.1651611328125 126.56137084960938 C 523.6983032226562 125.24826049804688 540.0418090820312 110.18872833251953 548.8067016601562 112.99154663085938 C 557.2430419921875 110.7177963256836 556.905517578125 109.38238525390625 558.25830078125 107.60625457763672 C 559.663330078125 108.39974212646484 564.891357421875 102.71023559570312 570.4231567382812 104.9727783203125 C 574.606689453125 102.44855499267578 573.4479370117188 97.49185180664062 578.9982299804688 94.09260559082031 C 585.397216796875 88.48831176757812 595.2449340820312 77.5606689453125 613.2984008789062 78.30917358398438 C 616.8995971679688 73.57866668701172 645.0202026367188 51.20439910888672 645.460205078125 35.511390686035156 C 644.9788208007812 32.44731140136719 647.9991455078125 30.392799377441406 647.6398315429688 29.53777313232422 C 646.9564819335938 28.292884826660156 664.3003540039062 -4.184451103210449 674.0752563476562 -0.7008077502250671" stroke-width="0.0" fill="url(#shape_4_fill)"/>
    <path d="M 151.56381225585938 68.51934814453125 C 152.30880737304688 69.06585693359375 186.35496520996094 84.52104187011719 192.6560821533203 92.84003448486328 C 179.32406616210938 118.04219818115234 217.6878662109375 150.0720977783203 220.87110900878906 154.90638732910156 C 238.86647033691406 170.0601806640625 241.9884796142578 184.16122436523438 240.81405639648438 193.86495971679688 C 238.10601806640625 193.20059204101562 236.1691131591797 186.53736877441406 236.77023315429688 184.06256103515625 C 235.68325805664062 183.55726623535156 234.15650939941406 184.3017578125 231.07275390625 182.70062255859375 C 231.24925231933594 183.92640686035156 232.0911407470703 194.04782104492188 228.63389587402344 195.6683807373047 C 227.59158325195312 196.63597106933594 227.2105255126953 205.3745574951172 221.3490447998047 207.6962432861328 C 215.0865478515625 206.5869140625 214.3182373046875 197.8382110595703 214.65670776367188 194.8826446533203 C 212.95973205566406 185.4382781982422 211.896484375 184.9467010498047 206.52734375 177.40045166015625 C 205.85519409179688 173.03741455078125 205.98678588867188 166.5845489501953 204.173828125 159.11170959472656 C 206.22439575195312 153.3490447998047 194.8505096435547 144.67959594726562 193.38836669921875 141.1926727294922 C 189.08529663085938 140.2323455810547 188.87110900878906 137.2735137939453 186.5474090576172 135.83087158203125 C 178.29367065429688 133.28482055664062 178.9740753173828 126.97498321533203 183.30560302734375 117.2815170288086 C 179.3900909423828 116.45915985107422 177.39703369140625 117.65545654296875 172.94871520996094 117.76852416992188 C 179.2783660888672 128.12564086914062 175.77548217773438 130.9734649658203 151.9322967529297 130.32574462890625 C 149.5880126953125 127.49437713623047 151.5365447998047 102.57846069335938 154.020263671875 94.57646179199219 C 152.87538146972656 88.96466064453125 153.3781280517578 87.14547729492188 149.96066284179688 76.30096435546875 C 148.11033630371094 75.91224670410156 148.49545288085938 69.27814483642578 151.56381225585938 68.51934814453125" stroke-width="0.0" fill="url(#shape_5_fill)"/>
    <path d="M 611.3383178710938 81.51726531982422 C 618.7033081054688 84.11601257324219 619.65234375 86.15837097167969 631.328125 85.66036987304688 C 636.0925903320312 86.0270767211914 637.110595703125 88.12200164794922 641.1901245117188 89.37443542480469 C 642.1596069335938 87.27337646484375 666.7549438476562 92.46781158447266 674.8568725585938 98.40248107910156 C 675.400634765625 110.62669372558594 674.7930297851562 125.90907287597656 675.3367309570312 150.8877410888672 C 665.9130859375 142.4682159423828 662.9324951171875 136.56597900390625 658.6832885742188 131.68222045898438 C 659.551513671875 122.04656219482422 660.6198120117188 116.51170349121094 653.0513305664062 112.36843872070312 C 645.8358154296875 114.05196380615234 644.4970703125 142.2889404296875 642.3963623046875 143.05149841308594 C 643.8660278320312 144.7499542236328 642.6530151367188 148.27297973632812 644.0625610351562 150.42431640625 C 639.9547119140625 150.87925720214844 637.9268798828125 152.81712341308594 634.9998168945312 153.42762756347656 C 631.5609741210938 146.2320556640625 629.1903076171875 141.39434814453125 630.089599609375 140.5348663330078 C 628.8570556640625 137.77525329589844 621.9988403320312 137.08660888671875 620.861083984375 138.83041381835938 C 618.2861328125 140.58372497558594 619.3795166015625 142.3686065673828 618.5057373046875 147.7862548828125 C 614.3112182617188 144.64617919921875 613.473876953125 143.19664001464844 610.0318603515625 143.68167114257812 C 608.521240234375 140.4070281982422 609.5780029296875 139.24293518066406 609.1668701171875 137.35385131835938 C 606.55029296875 132.24574279785156 605.0252075195312 126.67045593261719 598.7096557617188 128.25657653808594 C 605.4758911132812 133.50350952148438 595.08935546875 148.01754760742188 591.8499755859375 155.46066284179688 C 590.4385375976562 163.7970733642578 589.0551147460938 164.0059356689453 585.5769653320312 169.12359619140625 C 584.8427124023438 167.5299835205078 583.9093627929688 165.67527770996094 589.9747314453125 154.0035858154297 C 587.9451904296875 147.88426208496094 582.5631103515625 146.45639038085938 575.2421264648438 143.84170532226562 C 567.519775390625 156.64300537109375 556.6931762695312 155.57632446289062 556.0188598632812 151.39114379882812 C 555.8394165039062 152.91116333007812 553.0740966796875 154.70663452148438 552.9005737304688 157.77174377441406 C 551.3866577148438 161.73216247558594 548.0397338867188 160.49212646484375 547.37255859375 159.13963317871094 C 544.5230712890625 156.5076904296875 542.7706909179688 154.2609405517578 537.5952758789062 157.22544860839844 C 535.0387573242188 158.48130798339844 531.1978149414062 157.61415100097656 529.2825317382812 158.3391571044922 C 526.3218994140625 159.4473876953125 526.5208129882812 162.8943328857422 525.5287475585938 166.21066284179688 C 524.5 169.42176818847656 523.5369873046875 171.5669403076172 519.0360717773438 173.08486938476562 C 511.4529724121094 177.49314880371094 500.5727233886719 176.1931915283203 487.5288391113281 161.9176483154297 C 482.9469909667969 137.4228515625 500.9532165527344 118.27222442626953 513.0963745117188 118.23577880859375 C 529.32470703125 127.58153533935547 540.6466674804688 108.03459167480469 549.49169921875 111.69950103759766 C 555.5790405273438 110.03684997558594 560.5310668945312 109.83363342285156 563.9608154296875 106.7829360961914 C 564.6278076171875 104.49897003173828 566.56494140625 103.59341430664062 569.8631591796875 104.52804565429688 C 574.2484741210938 101.34545135498047 578.617919921875 97.9761962890625 587.0238647460938 99.22334289550781 C 600.407958984375 93.43018341064453 603.5413208007812 80.02033996582031 611.3383178710938 81.51726531982422" stroke-width="0.0" fill="url(#shape_6_fill)"/>
    <path d="M 1.2358027696609497 102.99364471435547 C 36.30649948120117 113.16226959228516 44.45460510253906 122.35932922363281 51.90877914428711 139.006103515625 C 81.1889877319336 154.01841735839844 52.23801040649414 214.2722930908203 43.711219787597656 242.238525390625 C 50.54063034057617 260.2201232910156 48.4482536315918 264.6228942871094 48.48330307006836 265.3362121582031 C 48.99113082885742 260.96240234375 22.253732681274414 256.2423095703125 12.380636215209961 252.19052124023438 C 4.905710697174072 207.66351318359375 -6.614771842956543 168.6215362548828 1.2358027696609497 102.99364471435547" stroke-width="0.0" fill="url(#shape_7_fill)"/>
    <path d="M 384.51055908203125 197.83660888671875 C 423.2151184082031 185.29855346679688 427.5843200683594 191.3656005859375 429.89404296875 204.18142700195312 C 474.7046203613281 189.86093139648438 496.3669128417969 204.6351776123047 491.7095642089844 231.75697326660156 C 490.99908447265625 250.49124145507812 486.23931884765625 251.4990692138672 484.8576354980469 252.4039306640625 C 485.9413146972656 258.95526123046875 482.51934814453125 268.9147033691406 477.051025390625 269.0244140625 C 469.04290771484375 272.9302978515625 453.2210388183594 266.7112731933594 451.62994384765625 269.7130432128906 C 447.0594482421875 266.2829895019531 448.2684020996094 261.2144775390625 449.058837890625 260.167236328125 C 439.25555419921875 264.7831726074219 436.5168151855469 261.423828125 437.4412841796875 256.79449462890625 C 427.0113220214844 256.7069396972656 425.6918640136719 259.1455993652344 421.1526794433594 262.0955505371094 C 418.548828125 264.2529296875 417.65594482421875 267.7015075683594 414.9242248535156 273.4925537109375 C 414.11004638671875 272.7061767578125 392.0971374511719 268.2991638183594 392.5662841796875 264.18536376953125 C 391.82232666015625 265.1163330078125 388.9596252441406 263.35455322265625 385.8722229003906 263.7480773925781 C 382.1110534667969 261.9609375 380.8178405761719 263.19305419921875 376.49102783203125 261.088134765625 C 374.8808288574219 256.3397521972656 376.07391357421875 252.5123291015625 372.0511169433594 249.7410430908203 C 359.341552734375 243.6088104248047 374.1320495605469 195.66180419921875 378.687744140625 177.8673553466797 C 384.27490234375 170.84918212890625 393.82037353515625 176.61952209472656 384.51055908203125 197.83660888671875" stroke-width="0.0" fill="url(#shape_8_fill)"/>
    <path d="M 566.2950439453125 157.2586212158203 C 568.2321166992188 158.87106323242188 568.1525268554688 166.62066650390625 569.4307250976562 168.00726318359375 C 573.5127563476562 169.46450805664062 573.6566772460938 170.98251342773438 577.5143432617188 174.41445922851562 C 581.9312133789062 172.9449462890625 583.9719848632812 174.56813049316406 583.7055053710938 179.47268676757812 C 575.3526000976562 180.47705078125 572.0989990234375 225.61593627929688 577.3233032226562 226.9652099609375 C 577.895263671875 229.96551513671875 581.3098754882812 235.69224548339844 577.1820068359375 241.4363555908203 C 568.7756958007812 238.49107360839844 566.557861328125 237.1719512939453 558.8098754882812 247.31268310546875 C 553.9068603515625 250.1240692138672 496.3284912109375 254.5347900390625 487.45684814453125 251.41921997070312 C 486.1346435546875 250.2188720703125 487.0180969238281 239.39903259277344 492.81658935546875 229.5671844482422 C 486.4035339355469 226.3004608154297 483.17425537109375 222.30755615234375 481.8409729003906 215.6004180908203 C 476.76123046875 209.874267578125 479.36163330078125 205.851318359375 482.7798156738281 205.9830780029297 C 480.1340026855469 205.34323120117188 481.571533203125 199.0554656982422 489.3111877441406 198.97869873046875 C 491.9864196777344 196.22999572753906 491.81390380859375 192.50656127929688 492.7928161621094 187.93838500976562 C 489.6017761230469 174.18344116210938 489.9640197753906 173.2154083251953 487.6105651855469 164.51173400878906 C 504.1957702636719 163.5031280517578 505.7310791015625 165.13613891601562 516.3519897460938 164.37374877929688 C 522.9793701171875 169.25344848632812 524.859375 167.31976318359375 525.8721313476562 167.53057861328125 C 523.4066772460938 161.518310546875 531.6427001953125 156.3770751953125 533.2872924804688 158.6869354248047 C 537.6097412109375 161.86351013183594 541.3764038085938 162.47459411621094 542.1589965820312 163.98536682128906 C 545.2136840820312 164.07838439941406 545.8352661132812 165.8438720703125 549.7894897460938 166.69061279296875 C 548.9509887695312 165.61602783203125 551.1082763671875 157.6986846923828 554.7442016601562 157.8595733642578 C 557.969970703125 160.9759521484375 563.0525512695312 157.8777313232422 566.2950439453125 157.2586212158203" stroke-width="0.0" fill="url(#shape_9_fill)"/>
    <path d="M 561.5560302734375 156.70008850097656 C 566.0166625976562 152.73379516601562 571.0814819335938 158.2675323486328 570.8132934570312 170.59765625 C 572.2860717773438 169.16363525390625 576.16748046875 169.2076873779297 579.4727783203125 174.73146057128906 C 580.6318969726562 178.12570190429688 579.3002319335938 187.45706176757812 578.2984619140625 191.56338500976562 C 571.2928466796875 196.65875244140625 572.0018310546875 229.97154235839844 578.0840454101562 230.97653198242188 C 576.070068359375 231.159423828125 575.6062622070312 236.83758544921875 572.0551147460938 238.02322387695312 C 560.1688232421875 235.88343811035156 567.3034057617188 238.65017700195312 563.82666015625 247.74578857421875 C 547.8162841796875 253.42364501953125 501.28753662109375 249.2370147705078 500.185791015625 251.6842498779297 C 491.0703430175781 251.82339477539062 487.86932373046875 236.9820556640625 491.93359375 229.89649963378906 C 486.6231384277344 224.92677307128906 481.9828796386719 219.2745361328125 481.65142822265625 215.39144897460938 C 475.54608154296875 214.509033203125 474.0440368652344 214.89425659179688 464.4531555175781 197.13662719726562 C 463.894775390625 185.48397827148438 475.0376892089844 181.36900329589844 483.1711730957031 195.59173583984375 C 489.8525085449219 197.51380920410156 494.503662109375 184.3188018798828 496.627685546875 182.954833984375 C 495.3043212890625 178.85963439941406 497.5860900878906 177.68112182617188 500.1711730957031 177.439208984375 C 507.93658447265625 179.0838623046875 516.5615234375 181.6802215576172 520.6422119140625 174.0702667236328 C 523.86669921875 173.37228393554688 527.0134887695312 159.30386352539062 531.6729736328125 155.24081420898438 C 537.9830932617188 156.06704711914062 538.644287109375 159.6016082763672 539.7302856445312 166.0945281982422 C 545.7601928710938 165.95065307617188 549.057373046875 167.40818786621094 551.36328125 166.34634399414062 C 551.0770874023438 155.93649291992188 553.0707397460938 153.06033325195312 561.5560302734375 156.70008850097656" stroke-width="0.0" fill="url(#shape_10_fill)"/>
    <path d="M 447.8134765625 107.63269805908203 C 452.814697265625 111.22245025634766 453.9120788574219 112.7236328125 462.3645935058594 111.33907318115234 C 465.03497314453125 116.65739440917969 469.2373046875 114.95064544677734 481.40277099609375 111.3746109008789 C 488.806640625 124.47069549560547 488.7192077636719 125.26071166992188 492.16326904296875 130.7745361328125 C 493.5990295410156 132.05572509765625 493.5844421386719 134.8712615966797 497.0310974121094 136.3170928955078 C 494.07525634765625 135.6128692626953 492.822021484375 138.2783660888672 489.1965026855469 141.2764129638672 C 483.0678405761719 137.4727325439453 481.82257080078125 139.42294311523438 478.6269836425781 143.07815551757812 C 467.80621337890625 139.87814331054688 466.3315734863281 138.6359405517578 465.7684631347656 134.4122314453125 C 464.40716552734375 133.54522705078125 460.69537353515625 133.54241943359375 460.3827819824219 134.2610626220703 C 461.1549377441406 133.85557556152344 478.7569885253906 143.78172302246094 493.3138427734375 152.42674255371094 C 476.52093505859375 176.83682250976562 475.47314453125 177.25318908691406 472.8661804199219 182.15525817871094 C 467.3751525878906 182.9173583984375 467.0525207519531 187.98036193847656 466.2647399902344 189.6761016845703 C 462.9839172363281 184.49537658691406 462.1133117675781 172.80992126464844 458.7925720214844 167.76783752441406 C 448.2984619140625 179.5174560546875 447.4723205566406 182.37924194335938 439.8936462402344 183.08480834960938 C 439.409423828125 183.8551025390625 435.7570495605469 195.63038635253906 434.77764892578125 197.5816650390625 C 429.4909362792969 200.2957000732422 417.5295715332031 180.5766143798828 417.6968994140625 179.75477600097656 C 416.9372253417969 179.73081970214844 398.2023010253906 180.19937133789062 397.6305236816406 173.29574584960938 C 393.79833984375 171.06781005859375 389.7903137207031 176.3450927734375 379.5404968261719 174.69259643554688 C 382.2594299316406 159.70973205566406 380.46490478515625 149.74839782714844 392.6524658203125 138.9678192138672 C 398.01483154296875 137.4156036376953 399.5665588378906 129.8681640625 402.17950439453125 120.97514343261719 C 407.1289367675781 99.03298950195312 425.7511291503906 103.02745819091797 447.8134765625 107.63269805908203" stroke-width="0.0" fill="url(#shape_11_fill)"/>
    <path d="M 602.8768920898438 127.5931396484375 C 605.751708984375 130.09678649902344 605.6187744140625 143.39218139648438 607.3137817382812 145.03875732421875 C 611.14892578125 145.5733642578125 611.7303466796875 149.1643829345703 615.8961181640625 152.88766479492188 C 618.1350708007812 149.88003540039062 618.125244140625 141.78524780273438 621.3865356445312 141.079833984375 C 623.0606689453125 137.42919921875 625.4253540039062 137.3820037841797 627.48388671875 140.3227081298828 C 627.4642333984375 142.15771484375 628.9649658203125 144.76556396484375 628.9024047851562 147.22488403320312 C 632.1036987304688 149.76904296875 631.7421875 151.1845245361328 636.4630126953125 153.58456420898438 C 642.2168579101562 154.6504364013672 641.9803466796875 160.3544464111328 647.3423461914062 170.0560760498047 C 639.2398071289062 185.13719177246094 640.0813598632812 194.92617797851562 640.4861450195312 206.5465850830078 C 651.41552734375 212.9735565185547 652.2525024414062 232.92669677734375 642.8353271484375 245.62750244140625 C 622.9620361328125 248.30120849609375 611.724853515625 249.12271118164062 578.9942016601562 263.288330078125 C 570.3355102539062 252.15695190429688 577.0562133789062 231.769287109375 574.7759399414062 217.16725158691406 C 568.0530395507812 209.21920776367188 571.797119140625 168.8662109375 583.1867065429688 169.7760009765625 C 597.2559204101562 163.53872680664062 599.5720825195312 143.64456176757812 599.9736328125 142.0245819091797 C 595.6072387695312 139.85003662109375 596.7579345703125 136.95999145507812 602.8768920898438 127.5931396484375" stroke-width="0.0" fill="url(#shape_12_fill)"/>
    <path d="M 411.13995361328125 176.56629943847656 C 420.17413330078125 173.98382568359375 433.383056640625 213.18423461914062 429.0635986328125 220.3544464111328 C 419.7002868652344 227.4761505126953 427.2643127441406 237.71588134765625 430.676025390625 242.81707763671875 C 429.6264343261719 262.0417785644531 420.4735107421875 266.51123046875 414.6885681152344 268.3586120605469 C 405.2468566894531 265.3955078125 402.33868408203125 272.0697326660156 390.7622375488281 267.6796875 C 385.4878845214844 264.9812927246094 382.4822082519531 266.15069580078125 379.9621887207031 265.3871154785156 C 375.2973937988281 263.641845703125 375.10296630859375 260.87530517578125 375.0811462402344 258.42010498046875 C 376.3879089355469 255.43080139160156 374.6385192871094 254.6059112548828 374.79949951171875 253.6533966064453 C 372.21405029296875 254.8467254638672 370.025634765625 251.18865966796875 368.48736572265625 251.8232879638672 C 360.5642395019531 248.0108642578125 366.11041259765625 229.04330444335938 367.11004638671875 221.40724182128906 C 369.273681640625 218.93673706054688 372.2131042480469 202.7658233642578 381.7579040527344 203.1869659423828 C 379.4324951171875 194.98934936523438 379.32440185546875 191.08924865722656 389.6174011230469 187.0382843017578 C 391.5438232421875 177.496826171875 392.92816162109375 176.75006103515625 411.13995361328125 176.56629943847656" stroke-width="0.0" fill="url(#shape_13_fill)"/>
    <path d="M 508.47760009765625 66.97909545898438 C 512.5956420898438 65.99394989013672 521.1806640625 70.22102355957031 522.990478515625 75.23615264892578 C 530.78125 79.39293670654297 533.9939575195312 80.0003662109375 536.8855590820312 89.6602783203125 C 539.282470703125 90.88720703125 544.5418701171875 90.29361724853516 545.0235595703125 91.17078399658203 C 545.53662109375 92.74342346191406 556.1804809570312 96.81808471679688 559.05029296875 95.36228942871094 C 563.4442138671875 97.61739349365234 567.3311157226562 97.55220031738281 568.7393188476562 99.0635757446289 C 564.3383178710938 105.34833526611328 556.8458251953125 115.60687255859375 542.1016845703125 110.83341217041016 C 541.39111328125 111.83845520019531 539.3536987304688 114.94709777832031 534.764892578125 118.41422271728516 C 527.9256591796875 120.84703063964844 519.9456787109375 124.42456817626953 515.628173828125 118.71162414550781 C 511.5090637207031 120.60301208496094 501.506591796875 125.56454467773438 499.38983154296875 125.48202514648438 C 497.3364562988281 128.5685272216797 493.75567626953125 128.50245666503906 489.42584228515625 127.27057647705078 C 489.7000732421875 119.8532485961914 468.82586669921875 118.74168395996094 468.1214294433594 117.73206329345703 C 463.5382385253906 117.79703521728516 462.9363708496094 116.6949234008789 462.2100524902344 115.983642578125 C 470.0376892089844 119.09859466552734 472.86004638671875 111.98119354248047 477.7502136230469 107.2776870727539 C 474.86102294921875 93.32554626464844 473.3438415527344 86.43744659423828 474.9962158203125 81.98296356201172 C 474.5901184082031 70.933837890625 475.34326171875 70.38622283935547 478.1783752441406 66.39146423339844 C 478.7972106933594 64.0316162109375 482.5948791503906 64.03284454345703 484.3460998535156 63.119510650634766 C 495.977294921875 64.23685455322266 502.1987609863281 61.13587188720703 508.47760009765625 66.97909545898438" stroke-width="0.0" fill="url(#shape_14_fill)"/>
    <path d="M 533.3943481445312 160.51063537597656 C 543.9075317382812 162.6415557861328 544.1965942382812 163.51129150390625 546.9192504882812 165.138671875 C 549.6873779296875 167.6187744140625 549.5765380859375 170.2403106689453 544.2232055664062 179.69398498535156 C 541.9157104492188 189.80996704101562 536.960693359375 231.3167266845703 536.6297607421875 233.1151580810547 C 540.6731567382812 237.70021057128906 541.1215209960938 251.27696228027344 516.3670654296875 252.34707641601562 C 502.6029357910156 251.441650390625 483.56610107421875 243.52169799804688 487.9990539550781 230.54739379882812 C 476.7182922363281 218.99002075195312 478.8394775390625 207.9041290283203 482.2890319824219 201.01315307617188 C 486.493896484375 197.36170959472656 487.96343994140625 197.5144500732422 489.0233154296875 198.7015380859375 C 482.96099853515625 195.58290100097656 488.6642761230469 182.77259826660156 487.64239501953125 172.8983612060547 C 487.2498779296875 167.54998779296875 489.0711669921875 166.1958465576172 491.5818176269531 166.88626098632812 C 505.5827941894531 178.85968017578125 511.1580505371094 184.18438720703125 522.7351684570312 172.7318878173828 C 525.5542602539062 170.96067810058594 525.5438232421875 167.3136749267578 526.8876342773438 165.17340087890625 C 525.850830078125 159.32440185546875 528.8543701171875 158.27955627441406 533.3943481445312 160.51063537597656" stroke-width="0.0" fill="url(#shape_15_fill)"/>
    <path d="M 651.8242797851562 109.89643096923828 C 653.9951782226562 110.47195434570312 663.8551025390625 121.67215728759766 659.7620849609375 133.20526123046875 C 664.1043701171875 136.10601806640625 664.5990600585938 142.83128356933594 673.2780151367188 148.13031005859375 C 677.0816040039062 178.81930541992188 673.6000366210938 211.31239318847656 675.646728515625 265.3004455566406 C 674.5985717773438 263.67236328125 637.7382202148438 271.1481628417969 631.498779296875 262.01495361328125 C 637.3809814453125 245.18247985839844 642.5436401367188 124.04894256591797 651.8242797851562 109.89643096923828" stroke-width="0.0" fill="url(#shape_16_fill)"/>
    <path d="M 601.2716064453125 129.66627502441406 C 603.3385620117188 128.19924926757812 606.5789184570312 131.97412109375 606.221923828125 134.093017578125 C 608.6710815429688 135.02041625976562 607.0209350585938 141.08673095703125 609.2667846679688 143.6026153564453 C 628.111572265625 142.910888671875 631.19677734375 218.13104248046875 633.6913452148438 264.5299377441406 C 585.4227294921875 269.0421142578125 576.3474731445312 261.4530334472656 579.6060791015625 238.7975311279297 C 562.302978515625 226.15386962890625 598.0071411132812 154.89434814453125 601.2716064453125 129.66627502441406" stroke-width="0.0" fill="url(#shape_17_fill)"/>
    <path d="M 320.460693359375 186.28952026367188 C 320.8190612792969 186.51776123046875 322.4536437988281 189.4638214111328 320.7071228027344 199.00135803222656 C 332.8017272949219 194.0311737060547 333.9411926269531 193.31832885742188 337.37884521484375 196.26589965820312 C 343.2431945800781 200.3284454345703 346.2982482910156 197.8290557861328 353.94940185546875 192.88998413085938 C 358.6679382324219 193.4056396484375 359.14422607421875 193.9792022705078 356.7294921875 201.67767333984375 C 359.3652648925781 204.12600708007812 361.5426025390625 204.2572021484375 363.85797119140625 209.58938598632812 C 367.2939758300781 207.14500427246094 368.5093994140625 208.2078094482422 368.2147521972656 211.817626953125 C 370.4618835449219 219.97996520996094 370.3318786621094 223.0292510986328 365.9079895019531 225.95448303222656 C 366.21466064453125 231.53414916992188 364.2657775878906 236.0779266357422 366.8115539550781 248.0830078125 C 369.2933654785156 252.31918334960938 366.64276123046875 256.1971130371094 358.0606384277344 254.6564178466797 C 354.26055908203125 255.72854614257812 327.76611328125 254.96185302734375 322.8497619628906 255.3477020263672 C 313.3608093261719 255.9654083251953 312.12677001953125 253.6307830810547 308.0019226074219 243.1558074951172 C 304.2633361816406 229.7608184814453 321.01092529296875 194.7127685546875 320.460693359375 186.28952026367188" stroke-width="0.0" fill="url(#shape_18_fill)"/>
    <path d="M 478.46978759765625 220.36026000976562 C 499.6473388671875 250.10446166992188 510.9090270996094 263.2550048828125 492.29248046875 279.2397766113281 C 470.6600341796875 279.2884521484375 443.9886474609375 261.5157775878906 442.1304626464844 261.74993896484375 C 438.72503662109375 260.5553283691406 437.1649169921875 258.22747802734375 432.5835876464844 258.0958557128906 C 429.4161376953125 258.6180725097656 428.1233825683594 256.80511474609375 429.0963134765625 253.85470581054688 C 432.060546875 237.02218627929688 422.6094970703125 233.3848419189453 422.9510192871094 229.70314025878906 C 423.1430358886719 226.9060516357422 421.1170349121094 226.69708251953125 420.198486328125 225.0883331298828 C 427.7701416015625 219.58840942382812 429.6933288574219 218.83897399902344 428.56939697265625 215.1056671142578 C 438.3957824707031 198.2164764404297 477.0258483886719 197.7425537109375 478.46978759765625 220.36026000976562" stroke-width="0.0" fill="url(#shape_19_fill)"/>
    <path d="M 673.9047241210938 -3.0057029724121094 C 675.0662231445312 32.85049057006836 674.5833740234375 64.76375579833984 674.3395385742188 97.55150604248047 C 669.8239135742188 95.85092163085938 653.0922241210938 87.85547637939453 644.6473388671875 90.0592041015625 C 638.6033325195312 89.53823852539062 638.131103515625 85.99534606933594 637.4722900390625 84.32592010498047 C 626.2694091796875 84.56932830810547 619.8731079101562 92.9065933227539 608.10693359375 86.64962768554688 C 610.0753173828125 74.77979278564453 612.7744750976562 73.64239501953125 614.5786743164062 71.68964385986328 C 622.60302734375 68.748291015625 648.6383056640625 25.132173538208008 647.3209838867188 21.140581130981445 C 655.2059326171875 8.53395938873291 656.4456787109375 3.165196657180786 668.5433959960938 3.690667152404785 C 669.8145141601562 2.6826233863830566 670.1223754882812 1.0858745574951172 673.9047241210938 -3.0057029724121094" stroke-width="0.0" fill="url(#shape_20_fill)"/>
    <path d="M 561.9168701171875 155.92086791992188 C 569.8637084960938 156.48516845703125 569.905029296875 161.7716827392578 573.5474243164062 165.3743438720703 C 584.2925415039062 168.3307647705078 574.97705078125 231.21495056152344 577.0022583007812 240.6885528564453 C 576.9190063476562 244.88070678710938 576.0291137695312 246.90252685546875 576.77392578125 263.09295654296875 C 550.6507568359375 258.74298095703125 542.16552734375 255.1635284423828 540.0859375 246.43040466308594 C 544.5654296875 244.7231903076172 542.510009765625 166.12599182128906 555.0309448242188 157.22052001953125 C 555.40576171875 153.15167236328125 558.9618530273438 152.12454223632812 561.9168701171875 155.92086791992188" stroke-width="0.0" fill="url(#shape_21_fill)"/>
    <path d="M 215.12234497070312 209.96217346191406 C 233.8055419921875 208.99229431152344 235.62738037109375 240.2997283935547 220.87646484375 256.091552734375 C 211.7411346435547 263.2574157714844 209.80145263671875 264.3767395019531 208.97750854492188 273.1723937988281 C 205.90383911132812 275.3620910644531 206.80577087402344 277.118896484375 206.39297485351562 280.21490478515625 C 206.80563354492188 282.9836730957031 203.5236358642578 285.61309814453125 201.05360412597656 284.9566345214844 C 200.7335205078125 283.3492126464844 190.3763885498047 272.93389892578125 188.05197143554688 264.8251037597656 C 186.7103271484375 261.60687255859375 183.74635314941406 262.6917724609375 181.50254821777344 262.5151062011719 C 180.8126220703125 260.59100341796875 180.11241149902344 260.5202331542969 178.6176300048828 253.0730743408203 C 178.8247833251953 248.38992309570312 168.8285675048828 242.2248992919922 170.75242614746094 238.39097595214844 C 175.92648315429688 213.17201232910156 177.24757385253906 213.3314971923828 185.60768127441406 220.56959533691406 C 193.85252380371094 219.2339630126953 194.21475219726562 215.31155395507812 198.51829528808594 213.4251251220703 C 185.95654296875 206.47885131835938 184.65174865722656 202.04771423339844 199.03085327148438 197.48216247558594 C 213.6281280517578 195.18057250976562 214.44515991210938 199.69094848632812 215.12234497070312 209.96217346191406" stroke-width="0.0" fill="url(#shape_22_fill)"/>
    <path d="M 111.59418487548828 426.331787109375 C 112.72932434082031 429.2794189453125 111.00894927978516 431.1933898925781 110.66345977783203 431.5411376953125 C 104.2906265258789 432.96051025390625 103.73519134521484 433.8479919433594 91.90061950683594 432.9671936035156 C 89.76473236083984 435.9664306640625 95.6781234741211 446.421630859375 91.6185302734375 452.1399841308594 C 78.66380310058594 444.9972229003906 46.938175201416016 447.9271240234375 25.072065353393555 449.6356201171875 C 14.019794464111328 446.2427978515625 13.884870529174805 439.7691345214844 17.95805549621582 436.3668518066406 C 34.54597091674805 427.6532287597656 50.2691764831543 426.8284912109375 71.50535583496094 427.20880126953125 C 73.68852233886719 423.9202880859375 110.01322937011719 420.53790283203125 111.59418487548828 426.331787109375" stroke-width="0.0" fill="url(#shape_23_fill)"/>
    <path d="M 194.20936584472656 123.84876251220703 C 200.3895721435547 124.56854248046875 210.6688690185547 144.84860229492188 214.4972686767578 145.25538635253906 C 215.6261749267578 148.1937713623047 218.55206298828125 149.71742248535156 220.39010620117188 153.7703857421875 C 227.2312469482422 158.4586181640625 247.99270629882812 177.9387664794922 244.73143005371094 199.26370239257812 C 239.24815368652344 199.52261352539062 235.67784118652344 186.84255981445312 232.26707458496094 179.96017456054688 C 234.8911895751953 186.98851013183594 233.3148956298828 195.94979858398438 230.6365966796875 197.06512451171875 C 227.22682189941406 197.8032989501953 225.8808135986328 203.083251953125 220.30931091308594 208.55084228515625 C 215.24935913085938 207.64418029785156 213.6496124267578 198.73202514648438 213.70411682128906 196.15513610839844 C 212.54110717773438 189.81224060058594 212.41038513183594 183.38938903808594 206.5298309326172 178.06222534179688 C 203.93894958496094 174.02978515625 205.01046752929688 173.02146911621094 205.5999755859375 167.6355743408203 C 202.82537841796875 147.5560760498047 199.396728515625 147.00274658203125 192.52403259277344 143.97531127929688 C 189.28192138671875 142.33047485351562 191.28021240234375 128.43772888183594 194.20936584472656 123.84876251220703" stroke-width="0.0" fill="url(#shape_24_fill)"/>
    <path d="M 595.5394287109375 409.073974609375 C 598.572265625 410.5331115722656 627.1624145507812 408.1395263671875 629.6737670898438 414.40411376953125 C 629.2632446289062 421.24273681640625 627.2656860351562 425.4123840332031 628.8790893554688 426.6343078613281 C 630.5253295898438 427.8351135253906 635.9580078125 428.06182861328125 639.6603393554688 436.9045715332031 C 618.0462036132812 447.3033447265625 577.9992065429688 439.3778076171875 572.6221923828125 434.91107177734375 C 567.7520751953125 427.1471862792969 573.871826171875 419.5485534667969 576.6690673828125 413.7585754394531 C 579.4918823242188 409.36419677734375 587.2495727539062 413.9625549316406 595.5394287109375 409.073974609375" stroke-width="0.0" fill="url(#shape_25_fill)"/>
    <path d="M 142.9125213623047 66.72694396972656 C 144.07498168945312 68.94134521484375 149.1695098876953 68.2704849243164 149.6304473876953 69.1341552734375 C 148.9017791748047 70.89888763427734 150.46621704101562 71.8228759765625 149.75775146484375 73.87369537353516 C 151.084228515625 74.44947052001953 150.12498474121094 78.44696044921875 150.60301208496094 80.4627685546875 C 152.23780822753906 89.39925384521484 152.96385192871094 97.58086395263672 153.9376678466797 104.10297393798828 C 153.51258850097656 107.62066650390625 155.119140625 108.51780700683594 155.15953063964844 111.45234680175781 C 158.12451171875 123.43202209472656 155.34901428222656 133.51548767089844 150.40623474121094 133.5811767578125 C 143.07481384277344 126.80674743652344 137.3386688232422 120.0320816040039 126.02018737792969 117.06583404541016 C 122.53495788574219 114.21694946289062 124.55348205566406 109.64201354980469 126.7069091796875 106.83672332763672 C 128.8142852783203 106.843505859375 128.87228393554688 105.27884674072266 132.66018676757812 104.71731567382812 C 138.33798217773438 96.8695297241211 134.917724609375 92.80036926269531 133.0970001220703 89.42684936523438 C 134.12586975097656 88.59600067138672 139.3247833251953 87.32559204101562 140.1511993408203 85.35735321044922 C 138.16976928710938 84.74746704101562 138.76211547851562 77.64401245117188 139.5016326904297 77.47805786132812 C 143.58303833007812 76.59739685058594 142.67221069335938 70.3415756225586 142.9125213623047 66.72694396972656" stroke-width="0.0" fill="url(#shape_26_fill)"/>
    <path d="M 140.04429626464844 67.92828369140625 C 148.9096221923828 67.01036834716797 149.82318115234375 68.23396301269531 148.72142028808594 76.89933013916016 C 150.51771545410156 78.26898193359375 151.0868377685547 80.6917495727539 154.6482696533203 85.20166015625 C 150.29022216796875 90.59855651855469 154.7897491455078 94.75301361083984 151.5647430419922 105.07080841064453 C 152.9140625 105.8610610961914 153.47244262695312 109.33667755126953 155.54783630371094 113.12789154052734 C 152.56796264648438 116.67964172363281 158.2443084716797 122.09453582763672 154.4425506591797 126.15646362304688 C 152.56910705566406 132.0286865234375 151.32969665527344 133.17050170898438 147.4793243408203 133.9995574951172 C 141.47557067871094 131.7417755126953 128.2555389404297 121.9510726928711 129.2493896484375 117.64404296875 C 124.47740173339844 118.7065200805664 122.58384704589844 113.62681579589844 128.19679260253906 110.4351806640625 C 122.95272064208984 108.25060272216797 124.34992218017578 104.85900115966797 133.50051879882812 107.15303802490234 C 136.30870056152344 105.72469329833984 133.63270568847656 92.6100845336914 133.14175415039062 89.0788803100586 C 139.53758239746094 87.33979034423828 138.8907012939453 84.97166442871094 138.74160766601562 81.45792388916016 C 139.07618713378906 77.51184844970703 140.36553955078125 76.81597900390625 142.16888427734375 77.83317565917969 C 145.56796264648438 72.34495544433594 142.5906219482422 70.51033020019531 140.04429626464844 67.92828369140625" stroke-width="0.0" fill="url(#shape_27_fill)"/>
    <path d="M -0.3373068869113922 -0.27251023054122925 C 4.7079339027404785 0.38303324580192566 9.660018920898438 -0.5274718403816223 19.29104995727539 -0.9082173109054565 C 25.262603759765625 -1.1216673851013184 25.416799545288086 -0.35897591710090637 46.195796966552734 3.490654468536377 C 41.64461898803711 25.72726821899414 28.198278427124023 25.4726505279541 27.30311393737793 23.609882354736328 C 48.69794845581055 17.044126510620117 56.96101379394531 16.654176712036133 58.6676139831543 51.02870559692383 C 38.14161682128906 53.187965393066406 28.640579223632812 53.61770248413086 18.16431427001953 49.249244689941406 C 15.349686622619629 39.39492416381836 11.444262504577637 38.2107048034668 10.00496768951416 33.606842041015625 C 9.988798141479492 35.88819885253906 14.40864372253418 39.338706970214844 14.633834838867188 41.040618896484375 C 15.951547622680664 42.21524429321289 15.623492240905762 44.972469329833984 18.225425720214844 47.845947265625 C 20.07952117919922 51.06962585449219 18.763887405395508 52.30684280395508 21.02065086364746 57.19361877441406 C 21.25499153137207 64.71898651123047 15.693325996398926 66.57933044433594 8.585561752319336 61.40615463256836 C 5.495065212249756 60.885494232177734 3.5344645977020264 59.14091110229492 0.3230217695236206 59.43510055541992 C -0.3180445432662964 39.78168487548828 -0.3248758018016815 19.628938674926758 -0.3373068869113922 -0.27251023054122925" stroke-width="0.0" fill="url(#shape_28_fill)"/>
    <path d="M 299.1978759765625 197.19189453125 C 297.9594421386719 199.52767944335938 299.8999328613281 202.4474639892578 301.52960205078125 207.80165100097656 C 299.0350036621094 213.01412963867188 324.75164794921875 225.36465454101562 316.2225341796875 255.380859375 C 311.79400634765625 254.27621459960938 310.5541687011719 255.79437255859375 304.4794921875 254.99806213378906 C 302.2901611328125 258.1647644042969 294.0722961425781 258.4439392089844 280.95184326171875 256.0090637207031 C 278.52972412109375 225.66490173339844 284.7328186035156 219.2308807373047 299.1978759765625 197.19189453125" stroke-width="0.0" fill="url(#shape_29_fill)"/>
    <path d="M 0.002662370912730694 -0.09707812964916229 C 4.523284435272217 0.4432048201560974 9.682085037231445 -0.41398414969444275 14.63413143157959 0.11555569618940353 C 15.839685440063477 0.4860844314098358 16.492431640625 4.204443454742432 16.426084518432617 8.028876304626465 C 18.855100631713867 10.896183013916016 21.818784713745117 18.955219268798828 27.252714157104492 20.639936447143555 C 27.15138053894043 22.508634567260742 24.128089904785156 26.714584350585938 24.65804100036621 32.08311462402344 C 20.092853546142578 32.29072189331055 13.08761978149414 30.03202247619629 6.0663886070251465 33.7420654296875 C 9.027911186218262 35.94915008544922 8.76600170135498 38.780479431152344 10.866007804870605 40.46424865722656 C 10.121420860290527 44.080657958984375 7.712370872497559 49.54779052734375 11.711812973022461 53.728607177734375 C 17.714025497436523 51.31460189819336 19.50491714477539 51.837127685546875 18.358898162841797 58.3782844543457 C 11.329841613769531 60.745121002197266 9.41641902923584 62.620792388916016 0.19105364382266998 61.479061126708984 C -0.4228566288948059 39.97062301635742 -0.3545456528663635 19.755300521850586 0.002662370912730694 -0.09707812964916229" stroke-width="0.0" fill="url(#shape_30_fill)"/>
    <path d="M 548.3936157226562 70.47594451904297 C 546.0845947265625 77.68931579589844 576.5986938476562 89.61456298828125 581.4107055664062 91.71565246582031 C 580.8914184570312 92.76773834228516 577.3336791992188 93.31952667236328 577.0808715820312 98.25850677490234 C 573.274169921875 100.71929168701172 572.0697021484375 99.81035614013672 569.3263549804688 100.01834106445312 C 567.7554931640625 95.12127685546875 546.182861328125 97.35795593261719 538.6946411132812 88.32344055175781 C 538.5078125 85.45276641845703 538.0430297851562 83.05017852783203 535.731201171875 82.28457641601562 C 534.5357666015625 79.87028503417969 527.7070922851562 79.66387939453125 527.1400756835938 78.38605499267578 C 525.2431640625 75.81737518310547 527.803466796875 70.8808822631836 531.9580078125 68.89910125732422 C 538.8274536132812 67.10235595703125 542.6328125 71.62725830078125 548.3936157226562 70.47594451904297" stroke-width="0.0" fill="url(#shape_31_fill)"/>
    <path d="M 447.11810302734375 264.427001953125 C 450.66534423828125 265.27471923828125 451.2912902832031 266.73114013671875 455.8394775390625 267.73712158203125 C 460.5113830566406 267.6551208496094 465.32232666015625 270.3759765625 469.93695068359375 273.1321105957031 C 470.4317932128906 275.63330078125 471.82867431640625 276.8894958496094 471.6768798828125 280.76324462890625 C 451.59320068359375 287.6812744140625 430.1288146972656 284.11181640625 415.8404846191406 285.1956481933594 C 413.45428466796875 273.90472412109375 415.05999755859375 272.33544921875 415.5876770019531 268.2001037597656 C 418.190185546875 267.2077331542969 417.76806640625 264.802490234375 419.3621826171875 263.12701416015625 C 439.4571533203125 253.34750366210938 446.4863586425781 253.50216674804688 447.11810302734375 264.427001953125" stroke-width="0.0" fill="url(#shape_32_fill)"/>
    <path d="M 272.56085205078125 192.4256134033203 C 275.6333923339844 192.22027587890625 286.875 243.6822967529297 281.6916198730469 245.87033081054688 C 279.5859069824219 247.7935333251953 273.93170166015625 246.86331176757812 269.5741882324219 248.7598114013672 C 266.33868408203125 246.12210083007812 266.6881103515625 242.2294464111328 261.14434814453125 240.63690185546875 C 254.3544158935547 209.5354766845703 262.4433288574219 206.4097442626953 272.56085205078125 192.4256134033203" stroke-width="0.0" fill="url(#shape_33_fill)"/>
    <path d="M 266.4217529296875 412.79583740234375 C 263.2236328125 425.5421142578125 265.1893005371094 430.52154541015625 268.0057373046875 440.5277404785156 C 262.3959655761719 440.5924377441406 260.8312683105469 446.51116943359375 258.0430908203125 447.858642578125 C 245.7079620361328 445.8288879394531 216.345947265625 448.5026550292969 212.5284423828125 444.8766784667969 C 213.02383422851562 436.99578857421875 213.95974731445312 436.2222900390625 216.00120544433594 434.5802307128906 C 216.3021240234375 433.5009460449219 225.0506134033203 433.6533508300781 226.67567443847656 430.571044921875 C 228.1921844482422 419.2898864746094 237.7360076904297 419.42620849609375 266.4217529296875 412.79583740234375" stroke-width="0.0" fill="url(#shape_34_fill)"/>
    <path d="M 105.6712646484375 69.85150909423828 C 110.0851058959961 69.62325286865234 111.05535125732422 79.2700424194336 112.59182739257812 85.25023651123047 C 117.56117248535156 86.13511657714844 116.95386505126953 110.27021026611328 117.93212890625 110.74715423583984 C 116.75909423828125 112.57891845703125 110.68699645996094 114.39451599121094 106.85008239746094 124.64698791503906 C 104.65070343017578 117.18059539794922 96.50507354736328 118.82809448242188 89.12995147705078 111.07621002197266 C 87.75251770019531 85.76274108886719 106.1297607421875 84.6727066040039 105.6712646484375 69.85150909423828" stroke-width="0.0" fill="url(#shape_35_fill)"/>
    <path d="M 451.2713928222656 178.42095947265625 C 453.3736267089844 176.39990234375 456.4342346191406 177.63311767578125 455.3664855957031 180.2789306640625 C 455.9975891113281 180.83193969726562 455.3821716308594 185.33763122558594 456.38238525390625 186.0148162841797 C 455.97637939453125 188.57948303222656 459.08349609375 194.14614868164062 459.3641357421875 204.37266540527344 C 459.319091796875 208.49826049804688 451.465576171875 209.4591522216797 446.076171875 204.40045166015625 C 441.7236022949219 207.4022979736328 440.8935546875 208.74159240722656 433.0892639160156 210.93984985351562 C 435.0508728027344 209.9213409423828 436.99530029296875 189.1187286376953 438.17718505859375 178.16860961914062 C 440.6046447753906 179.21221923828125 443.4231872558594 181.70497131347656 446.6070861816406 180.8902130126953 C 447.79986572265625 179.4355926513672 450.11090087890625 179.61444091796875 451.2713928222656 178.42095947265625" stroke-width="0.0" fill="url(#shape_36_fill)"/>
    <path d="M 557.3492431640625 84.32879638671875 C 561.5258178710938 80.81643676757812 578.4913330078125 82.75572204589844 580.04443359375 85.80567932128906 C 581.3336181640625 83.72217559814453 586.28955078125 85.63536071777344 587.4775390625 88.74658966064453 C 596.494140625 101.81175994873047 588.2656860351562 109.58771514892578 574.3682861328125 100.4765396118164 C 573.7839965820312 99.51212310791016 552.632568359375 96.77165222167969 544.6221923828125 85.5926284790039 C 538.4749755859375 85.71381378173828 537.89599609375 82.32100677490234 536.0396728515625 80.1831283569336 C 543.06591796875 74.72367095947266 547.2980346679688 78.64002227783203 557.3492431640625 84.32879638671875" stroke-width="0.0" fill="url(#shape_37_fill)"/>
    <path d="M 251.65708923339844 207.75686645507812 C 265.55572509765625 212.08863830566406 261.483642578125 238.0648193359375 259.96954345703125 247.59521484375 C 259.641845703125 254.59457397460938 251.04627990722656 254.5988311767578 249.49163818359375 257.3472900390625 C 234.66998291015625 237.4636993408203 241.265625 214.9551544189453 251.65708923339844 207.75686645507812" stroke-width="0.0" fill="url(#shape_38_fill)"/>
    <path d="M 442.9541931152344 263.3919372558594 C 446.0769958496094 263.3909606933594 449.1986389160156 266.56488037109375 447.84796142578125 270.0726318359375 C 444.6199645996094 270.3969421386719 442.6670837402344 277.2685241699219 440.7558898925781 278.3231201171875 C 439.29376220703125 286.40228271484375 426.7038269042969 285.2164001464844 418.0049743652344 275.93902587890625 C 414.5143127441406 276.80462646484375 413.345703125 274.3979797363281 416.197021484375 271.63958740234375 C 415.1734313964844 269.9427185058594 419.24072265625 262.1512451171875 426.0272216796875 258.2133483886719 C 426.2822570800781 256.6667175292969 438.986328125 258.0028381347656 442.9541931152344 263.3919372558594" stroke-width="0.0" fill="url(#shape_39_fill)"/>
    <path d="M 407.7065734863281 409.83221435546875 C 408.6689758300781 409.8952331542969 416.7766418457031 419.0706481933594 413.7901611328125 424.2393493652344 C 399.00128173828125 435.9369201660156 386.5587158203125 420.35333251953125 376.59521484375 420.860107421875 C 371.08636474609375 417.95703125 371.2362365722656 416.5549011230469 372.6239929199219 410.387451171875 C 375.0300598144531 400.9978942871094 393.7037353515625 404.07025146484375 407.7065734863281 409.83221435546875" stroke-width="0.0" fill="url(#shape_40_fill)"/>
    <path d="M 66.43622589111328 427.5320739746094 C 67.29757690429688 429.03741455078125 64.42578125 433.4795837402344 58.78663635253906 435.40533447265625 C 57.39887237548828 436.5556945800781 39.458003997802734 436.0108642578125 31.92596435546875 442.7790222167969 C 29.394054412841797 443.5893249511719 27.57247543334961 444.0552062988281 17.28699493408203 442.8847961425781 C 16.445281982421875 440.64984130859375 17.866395950317383 439.2078552246094 17.339792251586914 437.8033447265625 C 35.302154541015625 427.2643737792969 53.978065490722656 427.9718017578125 66.43622589111328 427.5320739746094" stroke-width="0.0" fill="url(#shape_41_fill)"/>
    <path d="M 278.3860778808594 381.0335693359375 C 284.6489562988281 381.2169494628906 297.9042053222656 381.212158203125 306.3025207519531 385.44659423828125 C 297.12628173828125 394.8205871582031 299.30938720703125 401.00738525390625 294.43963623046875 405.1520690917969 C 291.74725341796875 399.94366455078125 266.3079528808594 406.00927734375 259.14141845703125 407.54388427734375 C 248.3805389404297 403.5980529785156 244.33380126953125 395.7260437011719 246.02110290527344 383.25067138671875 C 260.88128662109375 380.7387390136719 267.3218688964844 381.94012451171875 278.3860778808594 381.0335693359375" stroke-width="0.0" fill="url(#shape_42_fill)"/>
    <path d="M 222.56192016601562 210.73828125 C 223.9548797607422 209.7368927001953 239.35520935058594 209.30557250976562 239.3883056640625 212.95263671875 C 242.2981719970703 221.14950561523438 246.12925720214844 241.74627685546875 253.24473571777344 269.0812072753906 C 250.87100219726562 273.70770263671875 242.1504669189453 272.9169616699219 209.03500366210938 272.4176940917969 C 207.55166625976562 266.25274658203125 205.23135375976562 253.02337646484375 216.59524536132812 247.7806396484375 C 219.33738708496094 246.4662628173828 218.1427459716797 226.42269897460938 222.56192016601562 210.73828125" stroke-width="0.0" fill="url(#shape_43_fill)"/>
    <path d="M 483.6000061035156 395.99420166015625 C 486.79498291015625 399.8097839355469 485.79833984375 400.97991943359375 483.4850769042969 401.0603942871094 C 472.1160583496094 407.1526184082031 451.1646423339844 406.8121032714844 450.25885009765625 407.62689208984375 C 448.12994384765625 404.4175109863281 451.625244140625 396.1783142089844 453.634765625 396.5213928222656 C 464.7214050292969 393.1780700683594 471.9378356933594 392.4836120605469 483.6000061035156 395.99420166015625" stroke-width="0.0" fill="url(#shape_44_fill)"/>
    <path d="M 45.80145263671875 408.0564880371094 C 45.34409713745117 408.5340270996094 35.77476501464844 411.69805908203125 33.48777770996094 412.9623107910156 C 32.65097427368164 414.4822692871094 32.12923049926758 415.87060546875 28.09958267211914 414.84130859375 C 27.307409286499023 416.91180419921875 24.779817581176758 417.71942138671875 21.426856994628906 420.46136474609375 C 18.628135681152344 420.1930847167969 0.0006506582722067833 417.294921875 -0.6624568700790405 420.54888916015625 C 1.7618635892868042 419.53302001953125 -0.8792910575866699 411.1850891113281 0.9105772972106934 410.21563720703125 C 6.785244464874268 409.5528869628906 45.45817565917969 406.3797302246094 45.80145263671875 408.0564880371094" stroke-width="0.0" fill="url(#shape_45_fill)"/>
    <path d="M 452.1830139160156 174.8378448486328 C 453.8754577636719 175.0221710205078 464.6403503417969 198.7947540283203 466.32989501953125 199.5194091796875 C 462.6358947753906 209.4380340576172 451.53118896484375 209.2934112548828 449.46588134765625 206.552490234375 C 448.31915283203125 203.25625610351562 449.0212097167969 198.31723022460938 448.85125732421875 195.29905700683594 C 447.9576110839844 194.5603485107422 447.5937805175781 192.10784912109375 448.51556396484375 188.01010131835938 C 451.0091552734375 186.64944458007812 450.64276123046875 182.92880249023438 452.1830139160156 174.8378448486328" stroke-width="0.0" fill="url(#shape_46_fill)"/>
    <path d="M 372.8282165527344 184.7415313720703 C 378.90594482421875 197.0641632080078 380.5599060058594 202.9012908935547 371.431884765625 205.83773803710938 C 365.8646545410156 206.82257080078125 364.772216796875 204.85813903808594 361.89385986328125 205.85848999023438 C 340.53558349609375 211.38223266601562 338.0027160644531 202.3958740234375 353.62322998046875 188.7550811767578 C 356.6720886230469 184.9757537841797 358.3726806640625 184.4061279296875 368.1458740234375 185.45803833007812 C 368.96209716796875 183.2425537109375 372.2815856933594 183.78103637695312 372.8282165527344 184.7415313720703" stroke-width="0.0" fill="url(#shape_47_fill)"/>
    <path d="M 472.0447692871094 263.9407043457031 C 474.69476318359375 267.63104248046875 480.5818786621094 270.0365295410156 480.9493713378906 284.3180236816406 C 464.7366027832031 287.3536682128906 449.30615234375 287.1546630859375 444.2427978515625 284.93536376953125 C 439.3466491699219 282.2012023925781 440.0054626464844 276.95806884765625 441.13885498046875 276.4227600097656 C 448.94610595703125 266.6041259765625 454.9892272949219 262.4874572753906 472.0447692871094 263.9407043457031" stroke-width="0.0" fill="url(#shape_48_fill)"/>
    <path d="M 177.1343231201172 117.0290756225586 C 177.9212188720703 115.4809341430664 181.73936462402344 116.1700668334961 182.7278594970703 117.30264282226562 C 184.67750549316406 120.26171112060547 183.84951782226562 122.35118103027344 184.76675415039062 123.06892395019531 C 179.54019165039062 126.84963989257812 185.78060913085938 136.617431640625 182.805908203125 139.54554748535156 C 181.68125915527344 146.69281005859375 172.82579040527344 146.24420166015625 171.99920654296875 146.8404998779297 C 171.78207397460938 127.03312683105469 170.82186889648438 124.57202911376953 177.1343231201172 117.0290756225586" stroke-width="0.0" fill="url(#shape_49_fill)"/>
    <path d="M 333.6008605957031 427.7469482421875 C 336.9050598144531 429.0651550292969 341.6398010253906 428.81451416015625 343.2104797363281 431.8201904296875 C 346.36651611328125 435.5848083496094 345.1593322753906 437.22296142578125 342.4171142578125 437.58148193359375 C 342.78204345703125 446.8930358886719 324.95013427734375 449.1161804199219 323.9566955566406 443.723876953125 C 321.5701904296875 435.9588928222656 321.5372009277344 432.84039306640625 306.9034423828125 429.6453857421875 C 320.19097900390625 426.2325439453125 328.232421875 429.52239990234375 333.6008605957031 427.7469482421875" stroke-width="0.0" fill="url(#shape_50_fill)"/>
    <path d="M 307.2359619140625 388.693603515625 C 303.5638732910156 395.6629638671875 292.5975341796875 396.72869873046875 292.01763916015625 399.1997375488281 C 279.1047058105469 397.4017639160156 277.90380859375 399.2695007324219 271.31610107421875 402.4814453125 C 271.1446838378906 401.6084899902344 269.7775573730469 398.9425964355469 271.3347473144531 397.4894104003906 C 270.09136962890625 395.53033447265625 273.1743469238281 388.2603454589844 279.83038330078125 388.172119140625 C 284.5344543457031 386.6589050292969 288.66778564453125 391.0454406738281 307.2359619140625 388.693603515625" stroke-width="0.0" fill="url(#shape_51_fill)"/>
    <path d="M 268.98797607421875 184.1781463623047 C 276.14227294921875 194.66738891601562 277.5097351074219 207.79257202148438 280.1978454589844 217.48532104492188 C 271.4931640625 210.4144287109375 269.4377136230469 208.2082977294922 261.13067626953125 215.80667114257812 C 257.37408447265625 207.98907470703125 263.6689147949219 196.6590118408203 266.60870361328125 195.26400756835938 C 269.69287109375 194.27464294433594 268.9163513183594 191.7178955078125 268.98797607421875 184.1781463623047" stroke-width="0.0" fill="url(#shape_52_fill)"/>
    <path d="M 218.33651733398438 409.4848327636719 C 215.90481567382812 410.9326477050781 215.66615295410156 413.2900695800781 214.26226806640625 414.345703125 C 214.51605224609375 422.6583557128906 192.61929321289062 424.7679138183594 187.56532287597656 415.56268310546875 C 186.29183959960938 405.0153503417969 206.93858337402344 400.1659240722656 218.33651733398438 409.4848327636719" stroke-width="0.0" fill="url(#shape_53_fill)"/>
    <path d="M 205.92071533203125 424.53662109375 C 205.49356079101562 425.25946044921875 206.1463623046875 428.2863464355469 204.56593322753906 429.1920166015625 C 194.02520751953125 429.75439453125 178.8141632080078 430.15008544921875 178.00143432617188 432.64739990234375 C 176.81863403320312 430.94671630859375 178.35055541992188 425.9479064941406 176.95748901367188 423.9029541015625 C 187.17318725585938 418.434326171875 193.5638885498047 422.98236083984375 205.92071533203125 424.53662109375" stroke-width="0.0" fill="url(#shape_54_fill)"/>
    <path d="M 268.6655578613281 247.22218322753906 C 275.4382629394531 245.02488708496094 276.65594482421875 247.36285400390625 280.2271423339844 246.90823364257812 C 280.7375793457031 250.99520874023438 280.0845947265625 252.42202758789062 286.6109313964844 262.4764099121094 C 263.4597473144531 258.0126953125 262.93438720703125 257.3200988769531 251.05889892578125 264.4393615722656 C 254.85316467285156 248.17481994628906 255.8804168701172 247.23410034179688 258.6509704589844 244.99746704101562 C 260.33404541015625 239.219970703125 265.5626220703125 239.6312713623047 268.6655578613281 247.22218322753906" stroke-width="0.0" fill="url(#shape_55_fill)"/>
    <path d="M 278.1156921386719 348.1468505859375 C 279.7264709472656 362.9775085449219 283.8986511230469 363.39385986328125 284.82861328125 368.0438232421875 C 285.43597412109375 369.23272705078125 286.011962890625 371.81488037109375 285.6717224121094 381.1411437988281 C 275.5207824707031 379.3753967285156 261.4717102050781 381.3816833496094 241.555908203125 383.9241943359375 C 237.088623046875 382.1296081542969 236.3349151611328 364.32891845703125 236.26544189453125 350.18365478515625 C 245.6327362060547 348.0439758300781 254.09613037109375 347.1182556152344 278.1156921386719 348.1468505859375" stroke-width="0.0" fill="url(#shape_56_fill)"/>
    <path d="M 408.43511962890625 271.3917236328125 C 415.7522888183594 268.9033203125 418.1990051269531 273.094482421875 421.7093811035156 280.33251953125 C 414.47698974609375 283.9951477050781 407.8158264160156 278.8415832519531 379.3053283691406 275.6718444824219 C 378.53338623046875 264.4600830078125 387.0118408203125 263.68011474609375 408.43511962890625 271.3917236328125" stroke-width="0.0" fill="url(#shape_57_fill)"/>
    <path d="M 632.067138671875 351.6131896972656 C 632.9816284179688 355.2608947753906 660.6715087890625 354.44500732421875 668.5872192382812 354.41888427734375 C 668.4846801757812 358.4409484863281 663.0016479492188 360.4614562988281 660.094970703125 357.1546936035156 C 648.7742309570312 355.4419860839844 634.7422485351562 359.763916015625 631.5589599609375 360.4231262207031 C 627.8146362304688 357.12261962890625 629.3840942382812 353.6018981933594 632.067138671875 351.6131896972656" stroke-width="0.0" fill="url(#shape_58_fill)"/>
    <path d="M 341.3246154785156 384.91473388671875 C 342.8100891113281 390.2083740234375 358.1380615234375 391.71075439453125 359.18341064453125 394.6783752441406 C 356.80267333984375 398.5079040527344 339.6496887207031 401.30419921875 338.3059997558594 399.54754638671875 C 335.1358947753906 399.618896484375 333.072265625 398.7816162109375 331.84991455078125 396.5372619628906 C 331.9888916015625 394.93994140625 330.75018310546875 393.4737243652344 332.3126220703125 390.596923828125 C 332.9958190917969 384.9869689941406 336.3315734863281 384.032958984375 341.3246154785156 384.91473388671875" stroke-width="0.0" fill="url(#shape_59_fill)"/>
    <path d="M 459.23712158203125 363.88079833984375 C 462.7781677246094 364.3847961425781 472.5877380371094 370.4177551269531 473.14434814453125 374.3238525390625 C 471.8034362792969 376.2292175292969 470.3349304199219 376.87774658203125 463.034912109375 375.882568359375 C 458.3882751464844 377.1742858886719 457.5442199707031 377.013671875 452.7341613769531 371.0025939941406 C 453.3353271484375 370.1433410644531 459.8109436035156 366.91351318359375 459.23712158203125 363.88079833984375" stroke-width="0.0" fill="url(#shape_60_fill)"/>
    <path d="M 431.6838073730469 432.6378173828125 C 440.01422119140625 434.3367919921875 442.44091796875 436.56744384765625 442.05584716796875 438.6589050292969 C 440.3222351074219 441.0235595703125 428.8352966308594 439.6715393066406 425.7164611816406 442.33087158203125 C 422.469482421875 438.9456787109375 423.87603759765625 434.65740966796875 411.92852783203125 425.4228515625 C 427.44561767578125 429.17572021484375 430.6850280761719 433.278564453125 431.6838073730469 432.6378173828125" stroke-width="0.0" fill="url(#shape_61_fill)"/>
    <path d="M 185.41758728027344 411.4495544433594 C 186.2666473388672 413.93170166015625 185.00579833984375 414.7928771972656 186.92100524902344 417.65625 C 184.86912536621094 420.1952209472656 183.39370727539062 419.51031494140625 182.5011444091797 419.73248291015625 C 180.8148956298828 421.6406555175781 174.4442901611328 420.2098693847656 171.41896057128906 420.1359558105469 C 169.56346130371094 417.7658386230469 169.7699737548828 415.6290588378906 174.16871643066406 412.8907165527344 C 176.57411193847656 412.5640869140625 181.46156311035156 410.7003479003906 185.41758728027344 411.4495544433594" stroke-width="0.0" fill="url(#shape_62_fill)"/>
    <path d="M 332.1274719238281 418.7981872558594 C 334.75750732421875 426.0472106933594 329.86260986328125 427.86639404296875 327.2612609863281 425.8612060546875 C 324.5664367675781 427.7642517089844 322.9877624511719 426.7177734375 321.01922607421875 427.52197265625 C 318.8252258300781 426.0135498046875 319.8137512207031 419.9754333496094 317.54010009765625 418.4815368652344 C 319.018310546875 420.0638732910156 326.0028381347656 418.7295227050781 332.1274719238281 418.7981872558594" stroke-width="0.0" fill="url(#shape_63_fill)"/>
    <path d="M 55.458133697509766 273.5890197753906 C 56.571388244628906 269.2928771972656 65.75146484375 269.8778076171875 65.36109924316406 278.2439880371094 C 59.1292610168457 279.3369445800781 53.79340362548828 272.7380676269531 48.31856155395508 276.0709228515625 C 50.30302047729492 273.1933898925781 52.437049865722656 272.73779296875 55.458133697509766 273.5890197753906" stroke-width="0.0" fill="url(#shape_64_fill)"/>
    <path d="M 304.61077880859375 439.527099609375 C 304.56243896484375 437.57037353515625 306.3606872558594 436.4270324707031 313.0480651855469 437.5962829589844 C 314.7301940917969 438.8412170410156 312.9847717285156 441.3764343261719 311.2508544921875 441.4505920410156 C 307.9004821777344 445.3251953125 306.6260070800781 444.2193298339844 305.34051513671875 444.2569885253906 C 302.9174499511719 441.6681213378906 302.8321533203125 439.7778015136719 304.61077880859375 439.527099609375" stroke-width="0.0" fill="url(#shape_65_fill)"/>
    <path d="M -0.4673902094364166 -0.42516806721687317 C 224.77391052246094 -0.15029524266719818 444.15020751953125 0.3511435091495514 672.771484375 0.5524520874023438 C 673.4969482421875 154.73667907714844 674.6957397460938 296.18255615234375 673.6802978515625 445.49066162109375 C 450.37982177734375 446.3321533203125 230.50904846191406 446.2724304199219 0.5218114256858826 445.3711853027344 C 0.22372718155384064 297.09613037109375 -0.13994017243385315 149.1134033203125 -0.4673902094364166 -0.42516806721687317" stroke-width="0.0" fill="url(#shape_66_fill)"/>
    <path d="M -1.0374046564102173 -0.17408165335655212 C 222.53729248046875 -0.10416493564844131 443.0604248046875 0.357381671667099 672.7741088867188 -0.19527985155582428 C 673.6068115234375 155.12388610839844 674.7696533203125 295.5966796875 673.3609619140625 445.3966979980469 C 450.6519775390625 446.40899658203125 230.61061096191406 446.3193359375 0.6233162879943848 445.27984619140625 C 0.13472795486450195 297.2173156738281 -0.25300440192222595 148.91046142578125 -1.0374046564102173 -0.17408165335655212" stroke-width="0.0" fill="url(#shape_67_fill)"/>
    <path d="M -0.6749484539031982 -0.23124240338802338 C 223.08053588867188 -0.14840590953826904 442.0456237792969 0.4990796148777008 672.8013305664062 -0.25568026304244995 C 673.610595703125 155.0059814453125 674.7633666992188 295.5546569824219 673.3603515625 445.3975524902344 C 450.65411376953125 446.40960693359375 230.63107299804688 446.3201904296875 1.192326545715332 445.2602844238281 C 0.5187307000160217 295.54833984375 0.07524993270635605 148.4548797607422 -0.6749484539031982 -0.23124240338802338" stroke-width="0.0" fill="url(#shape_68_fill)"/>
  </g>
</svg>
