<?xml version="1.0" ?>
<svg xmlns="http://www.w3.org/2000/svg" version="1.1" width="674" height="446">
  <defs>
    <radialGradient id="shape_0_fill" cx="0.5360821913540894" cy="0.7423020435555634" r="0.27728391471885433">
      <stop offset="0.7966321" stop-color="rgb(175, 186, 0)" stop-opacity="0.882524847984314"/>
      <stop offset="1.0" stop-color="rgb(55, 42, 0)" stop-opacity="1.0"/>
    </radialGradient>
    <radialGradient id="shape_1_fill" cx="0.5373362645904812" cy="0.7450140025049047" r="0.20599566722835913">
      <stop offset="0.6101693" stop-color="rgb(88, 91, 62)" stop-opacity="0.8568366765975952"/>
      <stop offset="1.0" stop-color="rgb(21, 5, 0)" stop-opacity="0.623665452003479"/>
    </radialGradient>
    <radialGradient id="shape_2_fill" cx="0.09792284866468842" cy="0.7376672719091578" r="0.22062588021026522">
      <stop offset="0.0025285191" stop-color="rgb(31, 90, 181)" stop-opacity="0.9912799000740051"/>
      <stop offset="1.0" stop-color="rgb(10, 112, 255)" stop-opacity="0.9443457722663879"/>
    </radialGradient>
    <radialGradient id="shape_3_fill" cx="0.27597910714078727" cy="0.21598990401879553" r="0.12761923679612158">
      <stop offset="0.38906944" stop-color="rgb(152, 211, 13)" stop-opacity="0.8326100707054138"/>
      <stop offset="1.0" stop-color="rgb(40, 43, 0)" stop-opacity="0.9669532775878906"/>
    </radialGradient>
    <radialGradient id="shape_4_fill" cx="0.1543026706231454" cy="0.9977578475336323" r="0.10288926755639141">
      <stop offset="0.0" stop-color="rgb(81, 79, 86)" stop-opacity="1.0"/>
      <stop offset="1.0" stop-color="rgb(96, 83, 100)" stop-opacity="0.8726441264152527"/>
    </radialGradient>
    <radialGradient id="shape_5_fill" cx="0.14807964290992442" cy="0.23997249517740155" r="0.11810664960821587">
      <stop offset="0.0" stop-color="rgb(255, 255, 255)" stop-opacity="0.6465655565261841"/>
      <stop offset="0.5626596" stop-color="rgb(255, 255, 255)" stop-opacity="0.6234118342399597"/>
    </radialGradient>
    <radialGradient id="shape_6_fill" cx="0.18397626112759644" cy="0.9977578475336323" r="0.0754974885934892">
      <stop offset="0.0" stop-color="rgb(93, 90, 94)" stop-opacity="1.0"/>
      <stop offset="1.0" stop-color="rgb(146, 130, 135)" stop-opacity="0.9118782877922058"/>
    </radialGradient>
    <radialGradient id="shape_7_fill" cx="0.2893175074183976" cy="0.05829596412556054" r="0.08666390552011372">
      <stop offset="0.0" stop-color="rgb(55, 66, 29)" stop-opacity="1.0"/>
      <stop offset="1.0" stop-color="rgb(87, 99, 28)" stop-opacity="0.7595352530479431"/>
    </radialGradient>
    <radialGradient id="shape_8_fill" cx="0.3382789091115889" cy="0.9439461883408071" r="0.06756690277190167">
      <stop offset="0.0" stop-color="rgb(91, 124, 45)" stop-opacity="1.0"/>
      <stop offset="1.0" stop-color="rgb(135, 193, 77)" stop-opacity="0.7380284667015076"/>
    </radialGradient>
    <radialGradient id="shape_9_fill" cx="0.30712166172106825" cy="0.9977578475336323" r="0.0730758406641929">
      <stop offset="0.0" stop-color="rgb(38, 48, 20)" stop-opacity="1.0"/>
      <stop offset="1.0" stop-color="rgb(23, 27, 32)" stop-opacity="0.9758487343788147"/>
    </radialGradient>
    <radialGradient id="shape_10_fill" cx="0.3056379821958457" cy="0.9977578475336323" r="0.06792919147615971">
      <stop offset="0.0" stop-color="rgb(39, 49, 21)" stop-opacity="1.0"/>
      <stop offset="1.0" stop-color="rgb(43, 33, 0)" stop-opacity="0.7135002017021179"/>
    </radialGradient>
    <radialGradient id="shape_11_fill" cx="0.21810089020771514" cy="0.968609865470852" r="0.06792919147615971">
      <stop offset="0.0" stop-color="rgb(138, 135, 129)" stop-opacity="1.0"/>
      <stop offset="1.0" stop-color="rgb(204, 170, 154)" stop-opacity="0.5425535440444946"/>
    </radialGradient>
    <radialGradient id="shape_12_fill" cx="0.29080118694362017" cy="0.9977578475336323" r="0.07480746985189285">
      <stop offset="0.0" stop-color="rgb(22, 25, 13)" stop-opacity="1.0"/>
      <stop offset="1.0" stop-color="rgb(30, 32, 0)" stop-opacity="1.0"/>
    </radialGradient>
    <radialGradient id="shape_13_fill" cx="0.327893175074184" cy="0.8923766816143498" r="0.06900465877544279">
      <stop offset="0.0" stop-color="rgb(89, 117, 50)" stop-opacity="1.0"/>
      <stop offset="1.0" stop-color="rgb(125, 165, 39)" stop-opacity="0.8734313249588013"/>
    </radialGradient>
    <radialGradient id="shape_14_fill" cx="0.142433234421365" cy="0.9977578475336323" r="0.06617211022079875">
      <stop offset="0.0" stop-color="rgb(155, 150, 153)" stop-opacity="1.0"/>
      <stop offset="1.0" stop-color="rgb(255, 253, 254)" stop-opacity="0.19577071070671082"/>
    </radialGradient>
    <radialGradient id="shape_15_fill" cx="0.31008902077151335" cy="0.9977578475336323" r="0.06683642786405207">
      <stop offset="0.0" stop-color="rgb(43, 55, 23)" stop-opacity="1.0"/>
      <stop offset="1.0" stop-color="rgb(54, 64, 12)" stop-opacity="0.9639961123466492"/>
    </radialGradient>
    <radialGradient id="shape_16_fill" cx="0.27299703264094954" cy="0.9977578475336323" r="0.08110449363640579">
      <stop offset="0.0" stop-color="rgb(31, 35, 19)" stop-opacity="1.0"/>
      <stop offset="1.0" stop-color="rgb(33, 32, 0)" stop-opacity="0.9981579780578613"/>
    </radialGradient>
    <radialGradient id="shape_17_fill" cx="0.2893175074183976" cy="0.9977578475336323" r="0.07513486030193747">
      <stop offset="0.0" stop-color="rgb(22, 23, 13)" stop-opacity="1.0"/>
      <stop offset="1.0" stop-color="rgb(9, 0, 0)" stop-opacity="0.743645966053009"/>
    </radialGradient>
    <radialGradient id="shape_18_fill" cx="0.3293768545994065" cy="0.7556053811659192" r="0.06617211022079875">
      <stop offset="0.0" stop-color="rgb(83, 108, 65)" stop-opacity="1.0"/>
      <stop offset="1.0" stop-color="rgb(112, 141, 58)" stop-opacity="0.9511290192604065"/>
    </radialGradient>
    <radialGradient id="shape_19_fill" cx="0.3516320474777448" cy="0.9977578475336323" r="0.06617211022079875">
      <stop offset="0.0" stop-color="rgb(95, 135, 39)" stop-opacity="1.0"/>
      <stop offset="1.0" stop-color="rgb(152, 225, 3)" stop-opacity="0.778026282787323"/>
    </radialGradient>
    <radialGradient id="shape_20_fill" cx="0.0830860534124629" cy="0.9977578475336323" r="0.06792919147615971">
      <stop offset="0.0" stop-color="rgb(49, 52, 66)" stop-opacity="1.0"/>
      <stop offset="1.0" stop-color="rgb(9, 8, 47)" stop-opacity="0.507510781288147"/>
    </radialGradient>
    <radialGradient id="shape_21_fill" cx="0.29821958456973297" cy="0.9977578475336323" r="0.06792919147615971">
      <stop offset="0.0" stop-color="rgb(33, 40, 17)" stop-opacity="1.0"/>
      <stop offset="1.0" stop-color="rgb(31, 41, 0)" stop-opacity="0.6551377773284912"/>
    </radialGradient>
    <radialGradient id="shape_22_fill" cx="0.3564346947372844" cy="0.44366290857973656" r="0.06591664435955466">
      <stop offset="0.0" stop-color="rgb(224, 252, 0)" stop-opacity="0.6314501762390137"/>
      <stop offset="0.43000734" stop-color="rgb(159, 199, 34)" stop-opacity="0.9120969772338867"/>
    </radialGradient>
    <radialGradient id="shape_23_fill" cx="0.6454005934718101" cy="0.1412556053811659" r="0.06617211022079875">
      <stop offset="0.0" stop-color="rgb(46, 38, 13)" stop-opacity="1.0"/>
      <stop offset="1.0" stop-color="rgb(49, 26, 0)" stop-opacity="0.8215832710266113"/>
    </radialGradient>
    <radialGradient id="shape_24_fill" cx="0.24925732258873098" cy="0.48430544592339897" r="0.06617138010811735">
      <stop offset="0.0" stop-color="rgb(201, 209, 206)" stop-opacity="1.0"/>
      <stop offset="0.9766002" stop-color="rgb(255, 255, 255)" stop-opacity="0.5075137615203857"/>
    </radialGradient>
    <radialGradient id="shape_25_fill" cx="0.6320474777448071" cy="0.9977578475336323" r="0.06617211022079875">
      <stop offset="0.0" stop-color="rgb(35, 28, 8)" stop-opacity="1.0"/>
      <stop offset="1.0" stop-color="rgb(35, 10, 0)" stop-opacity="0.6191184520721436"/>
    </radialGradient>
    <radialGradient id="shape_26_fill" cx="0.15414520399506793" cy="0.3207086811151205" r="0.06604698362265567">
      <stop offset="0.11988907" stop-color="rgb(198, 211, 155)" stop-opacity="1.0"/>
      <stop offset="0.5833885" stop-color="rgb(115, 114, 253)" stop-opacity="0.0"/>
    </radialGradient>
    <radialGradient id="shape_27_fill" cx="0.15410647972401242" cy="0.3208032787648017" r="0.06604505929465818">
      <stop offset="0.0" stop-color="rgb(192, 205, 0)" stop-opacity="1.0"/>
      <stop offset="0.49376073" stop-color="rgb(79, 72, 48)" stop-opacity="0.5957745313644409"/>
    </radialGradient>
    <radialGradient id="shape_28_fill" cx="0.039046007377103814" cy="0.019260814906235768" r="0.06763519377665987">
      <stop offset="0.105245575" stop-color="rgb(0, 23, 130)" stop-opacity="1.0"/>
      <stop offset="0.75578064" stop-color="rgb(0, 31, 153)" stop-opacity="0.7849498391151428"/>
    </radialGradient>
    <radialGradient id="shape_29_fill" cx="0.33976258863681147" cy="0.6659192825112108" r="0.06617211022079875">
      <stop offset="0.0" stop-color="rgb(90, 117, 55)" stop-opacity="1.0"/>
      <stop offset="1.0" stop-color="rgb(119, 153, 32)" stop-opacity="0.9128975868225098"/>
    </radialGradient>
    <radialGradient id="shape_30_fill" cx="0.040433654445568956" cy="0.018449834643992608" r="0.06755466064996464">
      <stop offset="0.29026675" stop-color="rgb(49, 76, 58)" stop-opacity="0.90113765001297"/>
      <stop offset="1.0" stop-color="rgb(39, 48, 44)" stop-opacity="0.7136655449867249"/>
    </radialGradient>
    <radialGradient id="shape_31_fill" cx="0.12314540059347182" cy="0.9977578475336323" r="0.06617211022079875">
      <stop offset="0.0" stop-color="rgb(95, 103, 98)" stop-opacity="1.0"/>
      <stop offset="1.0" stop-color="rgb(147, 138, 129)" stop-opacity="0.7733578681945801"/>
    </radialGradient>
    <radialGradient id="shape_32_fill" cx="0.4035608308605341" cy="0.984304932735426" r="0.06617211022079875">
      <stop offset="0.0" stop-color="rgb(126, 155, 63)" stop-opacity="1.0"/>
      <stop offset="1.0" stop-color="rgb(169, 143, 29)" stop-opacity="0.8849435448646545"/>
    </radialGradient>
    <radialGradient id="shape_33_fill" cx="0.3249258160237389" cy="0.6053811659192825" r="0.06617211022079875">
      <stop offset="0.0" stop-color="rgb(93, 124, 71)" stop-opacity="1.0"/>
      <stop offset="1.0" stop-color="rgb(123, 155, 43)" stop-opacity="0.9449453949928284"/>
    </radialGradient>
    <radialGradient id="shape_34_fill" cx="0.6468842729970327" cy="0.531390134529148" r="0.06617211022079875">
      <stop offset="0.0" stop-color="rgb(54, 47, 24)" stop-opacity="1.0"/>
      <stop offset="1.0" stop-color="rgb(63, 32, 10)" stop-opacity="0.618474006652832"/>
    </radialGradient>
    <radialGradient id="shape_35_fill" cx="0.14409691785138865" cy="0.23665829303553287" r="0.06723736160233042">
      <stop offset="0.024963701" stop-color="rgb(156, 236, 42)" stop-opacity="0.23259878158569336"/>
      <stop offset="0.578424" stop-color="rgb(150, 123, 78)" stop-opacity="0.6323192119598389"/>
    </radialGradient>
    <radialGradient id="shape_36_fill" cx="0.2878338278931751" cy="0.9977578475336323" r="0.06617211022079875">
      <stop offset="0.0" stop-color="rgb(80, 96, 53)" stop-opacity="1.0"/>
      <stop offset="1.0" stop-color="rgb(61, 60, 23)" stop-opacity="0.9050230383872986"/>
    </radialGradient>
    <radialGradient id="shape_37_fill" cx="0.129080118694362" cy="0.9977578475336323" r="0.06617211022079875">
      <stop offset="0.0" stop-color="rgb(87, 97, 81)" stop-opacity="1.0"/>
      <stop offset="1.0" stop-color="rgb(88, 98, 73)" stop-opacity="0.6874808073043823"/>
    </radialGradient>
    <radialGradient id="shape_38_fill" cx="0.33892324204260943" cy="0.5607740119968294" r="0.0666785763703751">
      <stop offset="0.75013214" stop-color="rgb(85, 120, 13)" stop-opacity="0.8939453363418579"/>
      <stop offset="0.6022602" stop-color="rgb(175, 255, 68)" stop-opacity="0.8219016790390015"/>
    </radialGradient>
    <radialGradient id="shape_39_fill" cx="0.40059347181008903" cy="0.9641255605381166" r="0.06617211022079875">
      <stop offset="0.0" stop-color="rgb(138, 168, 60)" stop-opacity="1.0"/>
      <stop offset="1.0" stop-color="rgb(231, 255, 82)" stop-opacity="1.0"/>
    </radialGradient>
    <radialGradient id="shape_40_fill" cx="0.6155469311450992" cy="0.8812541191887963" r="0.0676780779920629">
      <stop offset="0.33336344" stop-color="rgb(153, 137, 119)" stop-opacity="0.5536141395568848"/>
      <stop offset="0.5024802" stop-color="rgb(0, 0, 66)" stop-opacity="1.0"/>
    </radialGradient>
    <radialGradient id="shape_41_fill" cx="0.6454005934718101" cy="0.08744394618834081" r="0.06617211022079875">
      <stop offset="0.0" stop-color="rgb(58, 48, 21)" stop-opacity="1.0"/>
      <stop offset="1.0" stop-color="rgb(90, 60, 11)" stop-opacity="0.9609677791595459"/>
    </radialGradient>
    <radialGradient id="shape_42_fill" cx="0.5845697329376854" cy="0.6188340807174888" r="0.06617211022079875">
      <stop offset="0.0" stop-color="rgb(62, 59, 56)" stop-opacity="1.0"/>
      <stop offset="1.0" stop-color="rgb(31, 27, 72)" stop-opacity="0.6600664258003235"/>
    </radialGradient>
    <radialGradient id="shape_43_fill" cx="0.3562955997817948" cy="0.5040363602574096" r="0.06779521862901637">
      <stop offset="0.2766176" stop-color="rgb(133, 180, 56)" stop-opacity="1.0"/>
      <stop offset="0.5347929" stop-color="rgb(217, 255, 24)" stop-opacity="0.8621171712875366"/>
    </radialGradient>
    <radialGradient id="shape_44_fill" cx="0.5934718100890207" cy="0.9977578475336323" r="0.06617211022079875">
      <stop offset="0.0" stop-color="rgb(89, 61, 18)" stop-opacity="1.0"/>
      <stop offset="1.0" stop-color="rgb(170, 81, 0)" stop-opacity="0.7502909302711487"/>
    </radialGradient>
    <radialGradient id="shape_45_fill" cx="0.612759643916914" cy="0.04035874439461883" r="0.06617211022079875">
      <stop offset="0.0" stop-color="rgb(157, 136, 123)" stop-opacity="1.0"/>
      <stop offset="1.0" stop-color="rgb(255, 232, 210)" stop-opacity="1.0"/>
    </radialGradient>
    <radialGradient id="shape_46_fill" cx="0.28635014836795253" cy="0.9977578475336323" r="0.06617211022079875">
      <stop offset="0.0" stop-color="rgb(82, 99, 55)" stop-opacity="1.0"/>
      <stop offset="1.0" stop-color="rgb(93, 115, 22)" stop-opacity="0.5068596005439758"/>
    </radialGradient>
    <radialGradient id="shape_47_fill" cx="0.28635014836795253" cy="0.8183856502242153" r="0.06617211022079875">
      <stop offset="0.0" stop-color="rgb(166, 189, 197)" stop-opacity="1.0"/>
      <stop offset="1.0" stop-color="rgb(255, 255, 255)" stop-opacity="0.47281670570373535"/>
    </radialGradient>
    <radialGradient id="shape_48_fill" cx="0.40801186943620177" cy="0.9977578475336323" r="0.06617211022079875">
      <stop offset="0.0" stop-color="rgb(107, 135, 68)" stop-opacity="1.0"/>
      <stop offset="1.0" stop-color="rgb(134, 153, 53)" stop-opacity="1.0"/>
    </radialGradient>
    <radialGradient id="shape_49_fill" cx="0.19287833827893175" cy="0.3991031390134529" r="0.06617211022079875">
      <stop offset="0.0" stop-color="rgb(92, 100, 54)" stop-opacity="1.0"/>
      <stop offset="1.0" stop-color="rgb(81, 64, 13)" stop-opacity="0.5819320678710938"/>
    </radialGradient>
    <radialGradient id="shape_50_fill" cx="0.6439169139465876" cy="0.7376681614349776" r="0.06617211022079875">
      <stop offset="0.0" stop-color="rgb(65, 56, 25)" stop-opacity="1.0"/>
      <stop offset="1.0" stop-color="rgb(155, 192, 70)" stop-opacity="0.4195302724838257"/>
    </radialGradient>
    <radialGradient id="shape_51_fill" cx="0.5845697329376854" cy="0.6322869955156951" r="0.06617211022079875">
      <stop offset="0.0" stop-color="rgb(75, 68, 60)" stop-opacity="1.0"/>
      <stop offset="1.0" stop-color="rgb(135, 106, 86)" stop-opacity="0.8012425899505615"/>
    </radialGradient>
    <radialGradient id="shape_52_fill" cx="0.2997032640949555" cy="0.6031390134529148" r="0.06617211022079875">
      <stop offset="0.0" stop-color="rgb(107, 158, 118)" stop-opacity="1.0"/>
      <stop offset="1.0" stop-color="rgb(191, 255, 229)" stop-opacity="0.6639604568481445"/>
    </radialGradient>
    <radialGradient id="shape_53_fill" cx="0.6097922848664689" cy="0.45067264573991034" r="0.06617211022079875">
      <stop offset="0.0" stop-color="rgb(38, 39, 27)" stop-opacity="1.0"/>
      <stop offset="1.0" stop-color="rgb(15, 10, 28)" stop-opacity="0.4473741352558136"/>
    </radialGradient>
    <radialGradient id="shape_54_fill" cx="0.6335311572700296" cy="0.426009002822397" r="0.06617211022079875">
      <stop offset="0.0" stop-color="rgb(67, 49, 20)" stop-opacity="1.0"/>
      <stop offset="1.0" stop-color="rgb(118, 64, 6)" stop-opacity="0.8036853671073914"/>
    </radialGradient>
    <radialGradient id="shape_55_fill" cx="0.3707167401865611" cy="0.5988430827187851" r="0.06600137138932678">
      <stop offset="0.43562478" stop-color="rgb(238, 255, 60)" stop-opacity="0.9617714285850525"/>
      <stop offset="0.16111726" stop-color="rgb(203, 255, 0)" stop-opacity="0.7576857805252075"/>
    </radialGradient>
    <radialGradient id="shape_56_fill" cx="0.5489614243323442" cy="0.600896860986547" r="0.06617211022079875">
      <stop offset="0.0" stop-color="rgb(50, 62, 80)" stop-opacity="1.0"/>
      <stop offset="1.0" stop-color="rgb(22, 60, 185)" stop-opacity="0.5295923352241516"/>
    </radialGradient>
    <radialGradient id="shape_57_fill" cx="0.4094955489614243" cy="0.9035874439461884" r="0.06617211022079875">
      <stop offset="0.0" stop-color="rgb(111, 144, 47)" stop-opacity="1.0"/>
      <stop offset="1.0" stop-color="rgb(162, 207, 0)" stop-opacity="0.6743836998939514"/>
    </radialGradient>
    <radialGradient id="shape_58_fill" cx="0.5281899109792285" cy="0.9977578475336323" r="0.06617211022079875">
      <stop offset="0.0" stop-color="rgb(50, 43, 14)" stop-opacity="1.0"/>
      <stop offset="1.0" stop-color="rgb(70, 47, 0)" stop-opacity="1.0"/>
    </radialGradient>
    <radialGradient id="shape_59_fill" cx="0.5845697329376854" cy="0.7690582959641256" r="0.06617211022079875">
      <stop offset="0.0" stop-color="rgb(61, 63, 58)" stop-opacity="1.0"/>
      <stop offset="1.0" stop-color="rgb(74, 73, 99)" stop-opacity="0.7147356271743774"/>
    </radialGradient>
    <radialGradient id="shape_60_fill" cx="0.5489614243323442" cy="0.9977578475336323" r="0.06617211022079875">
      <stop offset="0.0" stop-color="rgb(140, 131, 64)" stop-opacity="1.0"/>
      <stop offset="1.0" stop-color="rgb(244, 214, 87)" stop-opacity="0.931550920009613"/>
    </radialGradient>
    <radialGradient id="shape_61_fill" cx="0.646856472117257" cy="0.9686178712032301" r="0.06617972829575355">
      <stop offset="0.41729107" stop-color="rgb(255, 255, 42)" stop-opacity="1.0"/>
      <stop offset="0.99902326" stop-color="rgb(255, 223, 0)" stop-opacity="1.0"/>
    </radialGradient>
    <radialGradient id="shape_62_fill" cx="0.615727002967359" cy="0.3991031390134529" r="0.06617211022079875">
      <stop offset="0.0" stop-color="rgb(55, 47, 13)" stop-opacity="1.0"/>
      <stop offset="1.0" stop-color="rgb(75, 49, 0)" stop-opacity="0.9931066036224365"/>
    </radialGradient>
    <radialGradient id="shape_63_fill" cx="0.6261127596439169" cy="0.7286995515695067" r="0.06617211022079875">
      <stop offset="0.0" stop-color="rgb(79, 66, 32)" stop-opacity="1.0"/>
      <stop offset="1.0" stop-color="rgb(210, 214, 91)" stop-opacity="0.6708334684371948"/>
    </radialGradient>
    <radialGradient id="shape_64_fill" cx="0.40801186943620177" cy="0.12556053811659193" r="0.06617211022079875">
      <stop offset="0.0" stop-color="rgb(76, 66, 59)" stop-opacity="1.0"/>
      <stop offset="1.0" stop-color="rgb(101, 71, 64)" stop-opacity="1.0"/>
    </radialGradient>
    <radialGradient id="shape_65_fill" cx="0.6528189910979229" cy="0.6883408071748879" r="0.06617211022079875">
      <stop offset="0.0" stop-color="rgb(121, 97, 39)" stop-opacity="1.0"/>
      <stop offset="1.0" stop-color="rgb(255, 255, 86)" stop-opacity="1.0"/>
    </radialGradient>
    <radialGradient id="shape_66_fill" cx="0.6514570196587537" cy="0.4608734883535069" r="0.06868448455538877">
      <stop offset="0.3159944" stop-color="rgb(148, 182, 90)" stop-opacity="0.39934706687927246"/>
      <stop offset="0.9728315" stop-color="rgb(0, 0, 0)" stop-opacity="0.05964646488428116"/>
    </radialGradient>
    <radialGradient id="shape_67_fill" cx="0.5947483413651011" cy="0.9952881817325883" r="0.06878749836092533">
      <stop offset="0.8786505" stop-color="rgb(52, 28, 0)" stop-opacity="0.7594956159591675"/>
      <stop offset="1.0" stop-color="rgb(0, 0, 0)" stop-opacity="0.16177377104759216"/>
    </radialGradient>
    <radialGradient id="shape_68_fill" cx="0.4889622809978904" cy="0.9963144892534332" r="0.06765051482339288">
      <stop offset="0.41875845" stop-color="rgb(51, 30, 15)" stop-opacity="0.6637299060821533"/>
      <stop offset="1.0" stop-color="rgb(46, 66, 59)" stop-opacity="0.28934401273727417"/>
    </radialGradient>
  </defs>
  <g>
    <path d="M -0.2122831791639328 271.1862487792969 C 25.97895050048828 269.6348876953125 35.02153396606445 270.7571105957031 44.961463928222656 273.120849609375 C 48.08921432495117 274.6435852050781 49.36373519897461 276.4959716796875 57.110538482666016 274.4958801269531 C 60.2632942199707 273.8227844238281 63.777950286865234 274.5008850097656 64.35660552978516 272.8809509277344 C 71.08154296875 270.6219482421875 101.04124450683594 271.30987548828125 116.47135925292969 271.3068542480469 C 120.78055572509766 271.6717529296875 126.46229553222656 277.3296813964844 124.09535217285156 282.384033203125 C 133.53904724121094 282.42205810546875 140.01649475097656 281.5133056640625 149.95057678222656 286.3392333984375 C 185.26992797851562 282.1568298339844 185.7620086669922 282.5266418457031 206.61175537109375 287.3477783203125 C 199.81121826171875 288.03790283203125 198.16807556152344 282.62677001953125 212.5929718017578 272.0980529785156 C 243.61671447753906 273.3824462890625 286.85186767578125 272.3881530761719 311.32757568359375 277.32269287109375 C 344.5522155761719 279.7146301269531 420.54168701171875 279.82037353515625 464.016845703125 276.483642578125 C 491.213623046875 275.24786376953125 540.5391845703125 276.79925537109375 541.1209716796875 282.4123229980469 C 548.8917236328125 283.0042724609375 550.2295532226562 278.1341552734375 563.9678955078125 275.29925537109375 C 579.03662109375 278.8758850097656 612.0108642578125 284.10333251953125 612.8080444335938 284.6527404785156 C 630.8042602539062 275.79315185546875 640.8816528320312 276.3189392089844 665.9397583007812 276.0795593261719 C 671.496826171875 276.8899230957031 676.9671020507812 281.3674011230469 677.7554321289062 285.99774169921875 C 676.5745239257812 339.48883056640625 674.7548828125 391.52374267578125 675.1177368164062 446.4665222167969 C 451.9151306152344 446.6695556640625 228.9889373779297 446.8113098144531 -0.46745461225509644 446.42376708984375 C -0.4140762686729431 389.1458435058594 0.2721560299396515 332.36083984375 -0.2122831791639328 271.1862487792969" stroke-width="0.0" fill="url(#shape_0_fill)"/>
    <path d="M -0.02522781863808632 271.37579345703125 C 35.933231353759766 275.3992919921875 36.5576057434082 274.5904235839844 44.37106704711914 274.7525634765625 C 48.619110107421875 267.70355224609375 60.307891845703125 266.970458984375 77.00069427490234 268.8222351074219 C 113.48283386230469 278.68035888671875 114.02308654785156 279.3109130859375 126.5147476196289 279.1318054199219 C 127.7925796508789 274.4302673339844 146.65029907226562 273.57720947265625 150.48265075683594 272.6289367675781 C 185.1145477294922 271.5997619628906 185.74403381347656 273.2585754394531 202.10159301757812 276.0809326171875 C 203.40953063964844 291.79168701171875 205.377197265625 291.7745056152344 219.14524841308594 294.28118896484375 C 219.73138427734375 293.12603759765625 271.7274169921875 295.1194152832031 292.4381408691406 296.56085205078125 C 324.40228271484375 298.4738464355469 449.5907287597656 296.492431640625 457.3038024902344 296.9904479980469 C 472.4925537109375 290.0050964355469 487.4527587890625 291.2510070800781 504.84722900390625 287.990966796875 C 509.8159484863281 287.56280517578125 518.8720092773438 286.2373046875 522.8440551757812 286.43878173828125 C 527.5130004882812 285.6787414550781 531.8622436523438 285.8839111328125 535.0755004882812 287.0433044433594 C 543.3181762695312 286.8516540527344 549.9346313476562 288.0106506347656 558.3993530273438 295.0428466796875 C 574.6238403320312 287.8786315917969 579.526123046875 289.63189697265625 589.3893432617188 291.6808776855469 C 607.9554443359375 288.826904296875 620.4120483398438 287.925537109375 634.0986328125 288.3899841308594 C 646.4451293945312 281.0519104003906 656.3424682617188 286.57550048828125 673.781982421875 290.1673278808594 C 673.9141235351562 340.6348571777344 674.44287109375 392.2203369140625 674.1528930664062 446.2807922363281 C 451.4774169921875 446.3905334472656 229.19664001464844 446.25439453125 -0.3076566159725189 446.2476501464844 C -0.2135799378156662 389.4035949707031 -0.2940193712711334 333.0278625488281 -0.02522781863808632 271.37579345703125" stroke-width="0.0" fill="url(#shape_1_fill)"/>
    <path d="M -0.019828619435429573 -0.25989267230033875 C 219.69313049316406 0.10403921455144882 439.478759765625 -0.4524255692958832 671.6472778320312 -0.22630950808525085 C 664.709716796875 9.985068321228027 645.6160278320312 36.50336456298828 637.5928344726562 47.69459533691406 C 633.9591064453125 52.89992904663086 610.5760498046875 93.66942596435547 585.1661376953125 84.17292022705078 C 577.8399658203125 81.65156555175781 559.8470458984375 70.50358581542969 532.5603637695312 73.89216613769531 C 531.5443115234375 76.16527557373047 524.3477172851562 77.96736145019531 522.3870849609375 72.20221710205078 C 522.5986938476562 68.84834289550781 499.5392150878906 63.732669830322266 499.63739013671875 62.66436767578125 C 492.73785400390625 62.12867736816406 487.28125 61.04679870605469 484.2806396484375 68.3508071899414 C 475.1275329589844 71.62373352050781 476.0592346191406 74.77108764648438 477.4050598144531 82.37911987304688 C 482.5362854003906 96.00907135009766 473.2660217285156 112.7513198852539 469.1997985839844 117.38191223144531 C 459.7080383300781 117.86430358886719 458.5679626464844 114.16334533691406 451.6682434082031 108.67705535888672 C 435.5179748535156 107.60733032226562 411.6725158691406 102.51513671875 410.49957275390625 104.83949279785156 C 411.07470703125 119.84310150146484 411.5507507324219 125.43192291259766 408.18450927734375 132.6427764892578 C 405.5594177246094 140.51710510253906 396.84710693359375 139.1929473876953 391.2374572753906 136.96856689453125 C 381.7337951660156 144.0070343017578 375.44635009765625 158.1096954345703 370.0238952636719 157.51565551757812 C 368.83990478515625 161.04159545898438 367.2185363769531 164.73329162597656 363.18634033203125 169.08177185058594 C 360.6473693847656 171.67625427246094 357.3164367675781 171.00636291503906 352.11572265625 176.4622802734375 C 345.61737060546875 184.0699920654297 336.4540710449219 176.30435180664062 332.3143005371094 172.04087829589844 C 305.9530029296875 171.7578125 305.21844482421875 178.2572784423828 303.30126953125 181.79074096679688 C 304.07391357421875 188.3614501953125 304.00738525390625 191.82968139648438 307.5648193359375 201.34564208984375 C 307.3257141113281 200.82748413085938 305.7977294921875 198.39276123046875 305.0227355957031 191.17538452148438 C 304.99822998046875 188.57435607910156 301.3230895996094 187.84579467773438 286.357666015625 181.99606323242188 C 289.70654296875 194.566162109375 289.2574462890625 195.9748077392578 289.64105224609375 196.27325439453125 C 288.3296813964844 190.2646026611328 287.91802978515625 183.96986389160156 284.48468017578125 181.6409149169922 C 272.9137878417969 183.93466186523438 270.75042724609375 187.77236938476562 263.9329833984375 184.00347900390625 C 256.8645935058594 185.3612518310547 257.2436218261719 188.91920471191406 257.44842529296875 197.5709991455078 C 260.8775329589844 199.38729858398438 260.5240173339844 200.10092163085938 257.7651062011719 198.99526977539062 C 257.0198974609375 199.0380096435547 252.21534729003906 196.55926513671875 253.20326232910156 194.3902130126953 C 255.00221252441406 189.33535766601562 256.5280456542969 186.30377197265625 252.57391357421875 172.6141815185547 C 255.6532440185547 167.45045471191406 216.41554260253906 141.76296997070312 214.07089233398438 139.9986114501953 C 185.15255737304688 127.875732421875 195.59483337402344 102.64185333251953 191.7853240966797 87.91108703613281 C 192.92315673828125 83.84465789794922 158.6786651611328 73.21688842773438 139.6438446044922 63.08354949951172 C 113.92828369140625 39.2552490234375 69.28446960449219 54.818275451660156 36.94609451293945 61.75589370727539 C 18.68819808959961 69.98517608642578 9.512717247009277 69.45942687988281 -0.6405595541000366 69.59259033203125 C 0.3418285548686981 43.958133697509766 -0.3314558267593384 22.56187629699707 -0.019828619435429573 -0.25989267230033875" stroke-width="0.0" fill="url(#shape_2_fill)"/>
    <path d="M 86.54344940185547 64.59027099609375 C 88.7099380493164 68.89008331298828 92.52991485595703 68.62654876708984 93.55693817138672 69.72340393066406 C 90.86540222167969 79.97103881835938 91.26858520507812 80.57112121582031 91.291015625 88.93112182617188 C 96.05172729492188 85.26408386230469 97.89210510253906 87.0700454711914 102.98294067382812 87.85769653320312 C 104.227783203125 75.15752410888672 105.86209869384766 73.49967956542969 108.51883697509766 73.25938415527344 C 112.01438903808594 87.6610336303711 111.3582992553711 93.64160919189453 116.26910400390625 99.41364288330078 C 116.61973571777344 100.06340789794922 116.28406524658203 108.61238098144531 115.6453628540039 115.4039077758789 C 124.6740951538086 115.16085052490234 128.74942016601562 115.42015838623047 129.55357360839844 113.58609771728516 C 130.24530029296875 109.26594543457031 136.46881103515625 107.79590606689453 136.48709106445312 104.56587982177734 C 136.61090087890625 103.68579864501953 135.5375213623047 101.79962921142578 137.0763702392578 98.10730743408203 C 136.4615020751953 93.2585220336914 137.4810333251953 92.87928009033203 137.33944702148438 89.10050201416016 C 137.29376220703125 84.90966796875 138.6194305419922 84.80622863769531 139.2484130859375 86.18338012695312 C 139.8662872314453 82.40899658203125 146.65560913085938 80.70307922363281 147.9581756591797 83.49445343017578 C 148.42735290527344 92.53195190429688 150.2522735595703 94.76792907714844 151.9429931640625 99.02800750732422 C 153.4364776611328 103.0303955078125 149.92857360839844 106.90433502197266 148.82254028320312 106.69660949707031 C 152.75576782226562 109.95726776123047 150.66790771484375 114.18329620361328 148.57876586914062 113.48438262939453 C 154.5830078125 112.79112243652344 157.9407196044922 122.57764434814453 157.5288848876953 123.164794921875 C 161.5568084716797 124.87527465820312 164.98391723632812 123.41964721679688 169.60696411132812 122.64048767089844 C 174.3964385986328 119.72068786621094 175.77523803710938 121.5187759399414 177.7114715576172 122.51295471191406 C 179.3288116455078 122.6791763305664 179.93455505371094 125.4378662109375 182.6073760986328 127.79119110107422 C 183.8081817626953 130.22607421875 182.38119506835938 133.13795471191406 183.47447204589844 135.50216674804688 C 186.19192504882812 135.54075622558594 187.73228454589844 142.9053955078125 188.5604248046875 145.48065185546875 C 194.63966369628906 145.201171875 206.3447723388672 155.5445556640625 201.6112518310547 173.97125244140625 C 205.47637939453125 175.10757446289062 205.53863525390625 178.3300018310547 205.60379028320312 182.7449951171875 C 212.44935607910156 181.9209747314453 214.73880004882812 198.33721923828125 212.21287536621094 204.82583618164062 C 207.23577880859375 207.07363891601562 203.41127014160156 207.8380889892578 203.12606811523438 210.2721405029297 C 200.7897186279297 210.53306579589844 199.92372131347656 211.6922607421875 200.25192260742188 213.59507751464844 C 196.42185974121094 215.25946044921875 193.6686553955078 215.417236328125 191.86813354492188 219.4322052001953 C 184.29739379882812 221.0515899658203 183.6089324951172 224.79098510742188 178.80667114257812 230.33091735839844 C 176.2951202392578 233.58428955078125 179.87326049804688 239.60198974609375 180.78720092773438 243.46026611328125 C 182.43954467773438 252.0597381591797 186.2235565185547 260.6746826171875 178.86248779296875 264.7029113769531 C 173.85723876953125 268.1114807128906 148.15553283691406 268.2174377441406 137.21533203125 269.6543273925781 C 130.19198608398438 268.9405822753906 126.73567962646484 271.1281433105469 119.83624267578125 274.0656433105469 C 109.03211212158203 276.9669189453125 73.28352355957031 276.1209411621094 73.10749816894531 269.97564697265625 C 47.675865173339844 266.7568664550781 56.53988265991211 268.5613098144531 57.38186264038086 273.6289367675781 C 47.553924560546875 276.6541442871094 0.566366970539093 273.3880310058594 0.6342145204544067 269.87701416015625 C -4.560057163238525 222.14122009277344 -3.42803955078125 167.77099609375 -1.3142820596694946 118.40424346923828 C 12.238611221313477 119.20054626464844 22.13709259033203 113.9909896850586 26.528615951538086 122.04170989990234 C 29.187475204467773 127.96019744873047 36.41184997558594 128.30426025390625 41.37788772583008 131.81671142578125 C 46.8624267578125 131.17074584960938 47.73926544189453 133.25424194335938 49.22513961791992 142.1187286376953 C 50.39870834350586 147.3555450439453 61.68478012084961 148.63096618652344 62.82054138183594 147.0099639892578 C 62.1378288269043 136.75770568847656 63.023651123046875 133.86903381347656 62.52431106567383 128.32626342773438 C 68.53885650634766 126.72978210449219 67.44318389892578 122.66638946533203 66.34461975097656 112.4856185913086 C 68.07774353027344 111.1834487915039 68.3413314819336 105.85551452636719 75.58944702148438 103.44548034667969 C 74.5782470703125 100.57263946533203 78.3824462890625 90.32730865478516 77.20946502685547 85.41614532470703 C 76.94865417480469 84.03004455566406 78.44310760498047 74.54602813720703 85.4788589477539 75.52141571044922 C 82.71855926513672 70.22927856445312 84.57481384277344 67.6601333618164 86.54344940185547 64.59027099609375" stroke-width="0.0" fill="url(#shape_3_fill)"/>
    <path d="M 674.3365478515625 -0.4093509018421173 C 676.0996704101562 47.84137725830078 675.0172119140625 95.90840911865234 679.0604248046875 140.68023681640625 C 674.2045288085938 130.8549346923828 667.186767578125 125.30384063720703 661.5933837890625 120.36881256103516 C 660.93505859375 119.9727554321289 655.1386108398438 109.36750030517578 649.62109375 110.91626739501953 C 648.6104736328125 112.51849365234375 644.7835083007812 148.8307647705078 642.1172485351562 154.77218627929688 C 630.5648193359375 154.4700469970703 627.0731811523438 142.43287658691406 627.4117431640625 138.2239227294922 C 623.001708984375 137.36878967285156 618.8049926757812 145.30316162109375 615.4196166992188 143.9796600341797 C 611.6814575195312 142.3181915283203 610.1524047851562 143.35171508789062 607.7333374023438 141.1145477294922 C 607.895263671875 137.45660400390625 610.7796020507812 132.1177520751953 606.8297119140625 121.08006286621094 C 598.0199584960938 133.43295288085938 597.4667358398438 139.2368927001953 594.6300659179688 142.99163818359375 C 598.8632202148438 148.11752319335938 597.484130859375 151.46676635742188 597.43798828125 152.87930297851562 C 588.3597412109375 156.89718627929688 587.0481567382812 163.94061279296875 579.7017211914062 172.03282165527344 C 571.5822143554688 170.35353088378906 569.8500366210938 159.4692840576172 568.993896484375 157.38946533203125 C 566.1433715820312 157.33509826660156 564.0752563476562 153.0766143798828 561.5948486328125 152.34173583984375 C 560.0752563476562 150.82089233398438 555.8461303710938 150.7951202392578 555.4486083984375 156.19065856933594 C 551.952392578125 156.2595977783203 550.3606567382812 158.9297332763672 548.9476318359375 159.138916015625 C 547.2174682617188 157.20062255859375 543.66455078125 157.41940307617188 536.1065063476562 153.98944091796875 C 531.7806396484375 154.8674774169922 529.953369140625 158.49522399902344 523.8829345703125 157.4718780517578 C 518.2388916015625 160.97776794433594 520.8047485351562 161.64097595214844 522.7802124023438 169.88467407226562 C 517.5932006835938 168.54409790039062 516.153564453125 170.30545043945312 516.4376220703125 171.49264526367188 C 511.27130126953125 173.32232666015625 509.81585693359375 175.26531982421875 505.63140869140625 174.399169921875 C 502.8077392578125 171.38241577148438 502.95428466796875 169.53648376464844 501.7599792480469 160.31573486328125 C 493.7522888183594 145.9296417236328 507.9858093261719 122.13796997070312 518.690185546875 126.1954574584961 C 523.49853515625 125.0135726928711 538.9209594726562 110.59722137451172 548.7122802734375 112.94976806640625 C 557.2623901367188 110.68031311035156 556.96826171875 109.415283203125 556.4432373046875 106.32831573486328 C 560.1698608398438 108.48001098632812 564.79736328125 103.09153747558594 570.8932495117188 105.04021453857422 C 574.6107788085938 102.52230072021484 573.4153442382812 97.4564437866211 578.931884765625 94.17188262939453 C 582.7335205078125 88.46221160888672 599.4637451171875 76.6023178100586 614.1172485351562 78.50762176513672 C 617.369384765625 73.95796966552734 645.939208984375 52.69959259033203 644.540771484375 35.4368782043457 C 644.967041015625 32.44093704223633 647.9921875 30.385934829711914 647.6527099609375 29.53600311279297 C 646.93359375 28.288761138916016 664.6283569335938 -3.6000335216522217 674.3365478515625 -0.4093509018421173" stroke-width="0.0" fill="url(#shape_4_fill)"/>
    <path d="M 151.60963439941406 68.4989013671875 C 152.3186798095703 69.008056640625 186.3433074951172 84.03384399414062 192.73377990722656 92.69725036621094 C 179.1232452392578 117.1584701538086 217.70779418945312 150.0754852294922 220.8174285888672 154.95726013183594 C 238.85101318359375 170.09939575195312 241.9233856201172 184.12646484375 240.8468780517578 193.857177734375 C 238.169189453125 193.1934051513672 236.1840362548828 186.40634155273438 236.76853942871094 184.0559539794922 C 235.6774139404297 183.58729553222656 234.158203125 184.2886199951172 231.08944702148438 182.7286834716797 C 231.44361877441406 183.873046875 232.00160217285156 193.36831665039062 228.61654663085938 195.6673126220703 C 227.55685424804688 196.63400268554688 226.86630249023438 205.1619110107422 221.43992614746094 207.7265625 C 215.06861877441406 206.5989227294922 214.31727600097656 197.9092559814453 214.66676330566406 194.86404418945312 C 212.9606170654297 185.4356689453125 211.8980712890625 184.94142150878906 206.4222412109375 177.45684814453125 C 205.88241577148438 172.94888305664062 205.90444946289062 164.89215087890625 203.61065673828125 159.05418395996094 C 207.01669311523438 153.36770629882812 194.85321044921875 144.70985412597656 193.38255310058594 141.19154357910156 C 189.0594940185547 140.26023864746094 188.76675415039062 137.72618103027344 186.15603637695312 136.20498657226562 C 178.44981384277344 133.1466522216797 179.24371337890625 126.64448547363281 183.01296997070312 117.328369140625 C 179.3886260986328 116.50234985351562 177.4007568359375 117.6087417602539 173.1790771484375 117.7073745727539 C 178.83631896972656 127.80918884277344 175.15907287597656 131.47825622558594 151.64828491210938 130.2301483154297 C 149.88250732421875 125.54846954345703 151.6775360107422 103.25534057617188 153.66175842285156 95.73114776611328 C 152.86424255371094 88.87882995605469 153.5179443359375 85.46214294433594 149.96087646484375 76.3301010131836 C 148.3516387939453 75.92942810058594 148.9894561767578 69.33366394042969 151.60963439941406 68.4989013671875" stroke-width="0.0" fill="url(#shape_5_fill)"/>
    <path d="M 613.1619873046875 83.17333221435547 C 618.5950927734375 84.1817855834961 619.6261596679688 85.873779296875 630.7431030273438 85.74650573730469 C 636.1617431640625 86.00662231445312 637.2323608398438 87.33917236328125 641.2471313476562 88.43592834472656 C 642.1474609375 87.59734344482422 668.3974609375 92.30908966064453 673.5156860351562 98.0522232055664 C 673.6058959960938 112.78227996826172 673.4258422851562 129.3008575439453 674.3109741210938 149.3623046875 C 666.9984130859375 141.46258544921875 663.1444091796875 136.28125 659.6297607421875 129.88571166992188 C 659.0052490234375 122.28207397460938 659.711669921875 116.43943786621094 652.3910522460938 111.44342803955078 C 647.7789306640625 116.66232299804688 645.06787109375 142.3556671142578 642.271240234375 143.16375732421875 C 643.6381225585938 145.25611877441406 642.0493774414062 148.79197692871094 643.711669921875 150.10684204101562 C 639.9497680664062 151.43283081054688 637.9713745117188 152.6521453857422 635.2117919921875 151.19961547851562 C 631.3241577148438 146.70599365234375 629.1932373046875 141.39401245117188 630.1055908203125 140.52691650390625 C 628.9036865234375 138.0934600830078 622.8861083984375 136.97630310058594 620.8743896484375 138.58291625976562 C 618.2236328125 140.55392456054688 619.3056030273438 142.3578643798828 618.718994140625 145.5833282470703 C 614.5714721679688 144.52603149414062 613.8578491210938 143.1575927734375 610.2855834960938 143.6825408935547 C 608.5499267578125 140.40560913085938 609.6005859375 139.24424743652344 609.2898559570312 137.46583557128906 C 606.5014038085938 132.44232177734375 604.683837890625 126.59950256347656 597.4525756835938 128.03634643554688 C 603.000732421875 135.40673828125 595.5317993164062 149.76763916015625 591.6116333007812 156.7898406982422 C 590.670166015625 163.9019012451172 589.3781127929688 164.1580047607422 585.951904296875 168.4419403076172 C 584.46826171875 166.93603515625 581.4481811523438 165.01303100585938 581.449951171875 162.1750030517578 C 577.2363891601562 160.5342254638672 575.7279663085938 157.1887664794922 574.8156127929688 154.0527801513672 C 565.2697143554688 155.59213256835938 556.3677978515625 155.31822204589844 556.193603515625 151.35137939453125 C 555.8545532226562 152.9260711669922 553.080322265625 154.71144104003906 552.8871459960938 157.7551727294922 C 550.3743286132812 161.53738403320312 547.9801635742188 160.7945556640625 547.3226318359375 159.23651123046875 C 544.4038696289062 157.10647583007812 543.0345458984375 155.3183135986328 536.7474365234375 157.8367462158203 C 534.9456176757812 158.5012969970703 530.9063110351562 157.11236572265625 528.6008911132812 158.22698974609375 C 526.0580444335938 159.27392578125 526.3952026367188 162.59886169433594 525.2530517578125 165.72654724121094 C 524.5668334960938 169.4613494873047 523.5810546875 171.5768280029297 519.0413208007812 173.10122680664062 C 511.4876708984375 177.48094177246094 504.86309814453125 171.6195068359375 492.625732421875 166.33737182617188 C 488.49053955078125 141.73138427734375 504.2992858886719 120.61717987060547 513.05908203125 118.56977844238281 C 529.3864135742188 125.81968688964844 540.7501831054688 108.98922729492188 551.0272216796875 111.32459259033203 C 555.4154663085938 109.90226745605469 560.1286010742188 109.7885513305664 563.7678833007812 106.68460083007812 C 564.6311645507812 104.54117584228516 566.8011474609375 103.65158081054688 569.8023681640625 104.21525573730469 C 574.7788696289062 101.35124969482422 578.3370971679688 97.100341796875 584.6989135742188 96.071533203125 C 597.8432006835938 90.5399169921875 604.0318603515625 80.91065216064453 613.1619873046875 83.17333221435547" stroke-width="0.0" fill="url(#shape_6_fill)"/>
    <path d="M -0.17757274210453033 114.83103942871094 C 28.787368774414062 120.80168151855469 37.368194580078125 127.66706085205078 49.15346908569336 139.9508514404297 C 76.46453857421875 157.79302978515625 51.20645523071289 219.20773315429688 50.482608795166016 241.92990112304688 C 52.66627502441406 260.1976318359375 48.65156173706055 264.6482849121094 48.434261322021484 265.990478515625 C 37.89131546020508 267.845947265625 11.139151573181152 264.01068115234375 5.545197486877441 261.7897033691406 C 3.51416015625 212.63905334472656 -2.3332114219665527 164.38351440429688 -0.17757274210453033 114.83103942871094" stroke-width="0.0" fill="url(#shape_7_fill)"/>
    <path d="M 389.1770935058594 187.487060546875 C 414.6134338378906 174.28009033203125 425.3836364746094 191.16323852539062 430.1844482421875 203.7076873779297 C 473.2802734375 191.81932067871094 495.38177490234375 206.36077880859375 491.7189025878906 232.81362915039062 C 490.99224853515625 250.48239135742188 486.18463134765625 251.482177734375 484.8372802734375 252.3574676513672 C 485.8208312988281 258.0511169433594 483.14599609375 268.5108947753906 477.1188659667969 269.2606506347656 C 469.0430603027344 272.9302978515625 453.2210388183594 266.7112731933594 451.62237548828125 269.7098388671875 C 447.01129150390625 266.2781982421875 448.2096252441406 261.2012939453125 448.9983215332031 260.168212890625 C 439.24444580078125 264.7491149902344 436.5110778808594 261.3905029296875 437.4281005859375 256.8901062011719 C 426.80615234375 256.4473876953125 425.9501647949219 258.36077880859375 421.2338562011719 262.2454528808594 C 418.5330505371094 264.255859375 417.5215148925781 267.6109924316406 414.8885498046875 272.2193603515625 C 414.0993347167969 273.256103515625 394.8941955566406 268.40087890625 392.59063720703125 264.1621398925781 C 391.8257141113281 265.0963439941406 389.0217590332031 263.3224182128906 386.03680419921875 263.5451354980469 C 382.1159973144531 261.9424743652344 380.82177734375 263.1765441894531 376.5573425292969 261.03570556640625 C 374.97369384765625 256.314697265625 376.1751708984375 252.44622802734375 372.8092956542969 249.15887451171875 C 359.4920349121094 243.8988800048828 373.8486633300781 195.66429138183594 378.29119873046875 180.2161865234375 C 383.1143798828125 170.93470764160156 394.41680908203125 176.68624877929688 389.1770935058594 187.487060546875" stroke-width="0.0" fill="url(#shape_8_fill)"/>
    <path d="M 565.7853393554688 157.41734313964844 C 567.841796875 159.13356018066406 569.0524291992188 166.79827880859375 568.927001953125 167.32215881347656 C 573.5850219726562 169.4473876953125 573.6436157226562 170.89779663085938 577.7063598632812 174.25611877441406 C 581.931884765625 172.94320678710938 583.9734497070312 174.5652313232422 583.70703125 179.4731903076172 C 575.3404541015625 180.47747802734375 572.05419921875 225.61634826660156 577.2786865234375 226.9659423828125 C 577.8547973632812 229.99871826171875 581.2846069335938 235.656005859375 576.7890014648438 242.29855346679688 C 568.6139526367188 238.8625946044922 566.2898559570312 237.26138305664062 558.4881591796875 247.0373077392578 C 554.2401733398438 250.84156799316406 492.9230041503906 253.64373779296875 489.0257873535156 252.1605224609375 C 486.269775390625 248.42706298828125 486.54095458984375 238.63072204589844 491.0694885253906 229.43019104003906 C 486.4414367675781 226.24462890625 483.1881408691406 222.28121948242188 481.4293212890625 215.86776733398438 C 476.57305908203125 209.80455017089844 479.19891357421875 205.80372619628906 482.7042236328125 205.9588165283203 C 479.9423828125 205.3173065185547 481.21966552734375 198.68312072753906 487.3569030761719 198.6756134033203 C 491.87841796875 196.14654541015625 491.8423767089844 192.49879455566406 492.922119140625 187.84201049804688 C 490.93133544921875 174.0455780029297 491.3976135253906 173.00802612304688 489.95257568359375 165.08827209472656 C 504.06475830078125 164.6897430419922 505.4220275878906 168.95138549804688 517.1721801757812 167.598388671875 C 523.3849487304688 169.689697265625 524.57666015625 167.3309783935547 525.9784545898438 166.39915466308594 C 524.3280639648438 160.54908752441406 529.8382568359375 155.82749938964844 533.3684692382812 158.5963134765625 C 537.6416015625 161.83511352539062 541.395751953125 162.4557342529297 542.1983642578125 163.94451904296875 C 545.2490234375 164.05027770996094 545.9442749023438 165.72039794921875 549.5067749023438 166.41622924804688 C 548.8158569335938 165.627197265625 551.1707763671875 157.3277587890625 555.204833984375 157.6599884033203 C 557.2879638671875 161.3250732421875 563.1659545898438 158.04861450195312 565.7853393554688 157.41734313964844" stroke-width="0.0" fill="url(#shape_9_fill)"/>
    <path d="M 561.5465087890625 156.57223510742188 C 567.0208129882812 153.21311950683594 570.9736328125 159.2343292236328 570.6407470703125 169.21060180664062 C 572.613525390625 170.171875 576.70703125 169.01698303222656 579.3156127929688 175.22140502929688 C 579.8489379882812 178.00645446777344 578.7235717773438 187.36264038085938 576.9306640625 191.5360870361328 C 571.2700805664062 196.7980194091797 571.9849243164062 229.9724884033203 578.0745849609375 230.9768524169922 C 576.070068359375 231.159423828125 575.6058349609375 236.83465576171875 572.0272216796875 238.04701232910156 C 559.9298095703125 235.9500732421875 567.4489135742188 238.618408203125 564.2943725585938 248.8784637451172 C 552.2828979492188 252.9683380126953 501.2852783203125 249.1132049560547 500.18145751953125 251.53366088867188 C 491.15447998046875 251.7908172607422 487.97137451171875 236.7596435546875 491.1033935546875 229.28758239746094 C 486.6258239746094 224.92648315429688 481.9859924316406 219.27085876464844 481.5525817871094 215.89744567871094 C 475.65478515625 214.07093811035156 474.953369140625 212.5962371826172 469.33013916015625 199.66567993164062 C 468.99859619140625 194.58689880371094 475.8700256347656 190.79446411132812 480.908447265625 196.57325744628906 C 489.98828125 196.00177001953125 494.39556884765625 184.169921875 496.6333923339844 182.96218872070312 C 495.9632263183594 179.5067901611328 496.9175720214844 177.0154571533203 499.8732604980469 177.6456756591797 C 507.86187744140625 179.18759155273438 516.79443359375 181.73765563964844 520.1472778320312 173.9850616455078 C 523.1119384765625 173.2952880859375 526.5033569335938 159.1825408935547 532.04931640625 157.0377655029297 C 537.6895141601562 156.57557678222656 538.5077514648438 160.49716186523438 541.7706909179688 165.81297302246094 C 545.6975708007812 165.73623657226562 548.9994506835938 167.07289123535156 551.20703125 165.26341247558594 C 551.1105346679688 156.116455078125 553.1819458007812 153.03399658203125 561.5465087890625 156.57223510742188" stroke-width="0.0" fill="url(#shape_10_fill)"/>
    <path d="M 449.27532958984375 107.71975708007812 C 453.13568115234375 109.48921966552734 453.8551025390625 112.06328582763672 460.576904296875 112.84388732910156 C 463.84295654296875 116.66614532470703 469.57080078125 116.55757904052734 474.7100524902344 116.8915023803711 C 488.38525390625 124.53084564208984 488.8025817871094 125.24978637695312 493.27081298828125 129.51646423339844 C 493.6843566894531 131.62522888183594 493.1771240234375 134.62478637695312 496.88580322265625 136.22332763671875 C 494.4385986328125 135.0478973388672 492.138427734375 137.0565643310547 486.7123107910156 139.2372589111328 C 483.2507019042969 136.352294921875 481.1621398925781 137.5501251220703 477.1326904296875 138.73199462890625 C 470.1182556152344 140.26251220703125 467.246826171875 139.52334594726562 467.1460876464844 134.37872314453125 C 465.2760314941406 133.49322509765625 460.5940246582031 133.52528381347656 459.741943359375 134.37901306152344 C 457.650390625 139.11520385742188 473.59112548828125 148.79586791992188 486.32830810546875 157.08775329589844 C 476.2021789550781 176.6257781982422 475.3625183105469 177.1764373779297 471.0850830078125 181.10389709472656 C 466.74420166015625 182.3038787841797 466.3341369628906 186.83282470703125 464.52032470703125 188.77052307128906 C 461.7648010253906 185.7897186279297 456.9815368652344 178.3560333251953 455.5311584472656 176.01113891601562 C 448.2685852050781 179.37399291992188 447.5098571777344 182.54615783691406 439.90380859375 183.0844268798828 C 439.4992980957031 183.86607360839844 436.1581726074219 195.95742797851562 434.96429443359375 197.70416259765625 C 429.19921875 200.4390106201172 417.4649963378906 180.59683227539062 417.7146301269531 179.73098754882812 C 416.9556579589844 179.56008911132812 399.2459716796875 176.83612060546875 399.41094970703125 171.9131622314453 C 393.53289794921875 170.22854614257812 390.2713928222656 176.36058044433594 380.13970947265625 174.14077758789062 C 380.25299072265625 164.3150177001953 384.0410461425781 145.19956970214844 392.4143371582031 139.3205108642578 C 397.9106750488281 137.4365997314453 399.39312744140625 129.69581604003906 402.010009765625 122.03712463378906 C 408.55810546875 99.4305648803711 426.46942138671875 104.45128631591797 449.27532958984375 107.71975708007812" stroke-width="0.0" fill="url(#shape_11_fill)"/>
    <path d="M 602.8595581054688 127.49055480957031 C 605.3222045898438 131.7720489501953 605.751708984375 143.79022216796875 608.2562255859375 144.5006103515625 C 611.8619995117188 144.70994567871094 611.8223266601562 148.1476593017578 615.4099731445312 152.11065673828125 C 618.2130737304688 149.82357788085938 618.47998046875 141.8429412841797 620.9641723632812 140.79217529296875 C 623.4108276367188 137.3478546142578 625.6862182617188 137.3364715576172 628.1443481445312 140.21153259277344 C 627.69287109375 142.1294403076172 629.2421264648438 144.66064453125 629.1871948242188 147.0399627685547 C 632.1250610351562 149.74815368652344 631.7973022460938 151.10862731933594 637.0396728515625 153.08438110351562 C 642.4918823242188 154.35134887695312 641.2871704101562 160.36016845703125 644.5040893554688 169.14239501953125 C 638.152099609375 184.18185424804688 639.433837890625 194.49282836914062 639.8463745117188 206.48167419433594 C 642.2144165039062 219.09812927246094 646.3973388671875 232.16668701171875 642.8573608398438 245.67115783691406 C 623.3634643554688 248.55694580078125 610.7667846679688 248.91714477539062 577.7614135742188 256.55950927734375 C 571.5232543945312 245.94076538085938 572.43359375 232.1404266357422 572.7727661132812 219.46347045898438 C 568.3899536132812 209.91156005859375 572.3318481445312 168.7803192138672 583.0963745117188 169.8235626220703 C 597.4507446289062 163.43165588378906 598.845458984375 144.07069396972656 599.68212890625 141.75558471679688 C 595.6767578125 139.26942443847656 597.0984497070312 136.7677001953125 602.8595581054688 127.49055480957031" stroke-width="0.0" fill="url(#shape_12_fill)"/>
    <path d="M 409.35369873046875 176.41688537597656 C 420.58953857421875 173.41116333007812 432.5482177734375 212.75518798828125 427.9190368652344 220.21788024902344 C 419.9865417480469 228.7559814453125 426.35443115234375 238.4237823486328 428.7753601074219 245.88087463378906 C 430.609130859375 262.4285583496094 420.7016906738281 265.80450439453125 417.0003356933594 268.06201171875 C 401.572998046875 268.3211975097656 396.4454345703125 269.7719421386719 389.751708984375 268.2474365234375 C 385.48541259765625 264.5356750488281 382.5137634277344 265.635986328125 380.3087158203125 265.25494384765625 C 375.26715087890625 262.685546875 376.2343444824219 260.8026123046875 375.2633972167969 258.3851013183594 C 376.32373046875 255.58554077148438 375.5671691894531 253.8569793701172 374.5119934082031 253.33778381347656 C 372.8785095214844 253.96800231933594 370.4544372558594 250.68283081054688 368.9411926269531 251.69253540039062 C 359.9743957519531 247.31503295898438 366.00653076171875 228.37823486328125 367.86016845703125 221.1226348876953 C 368.9640197753906 218.8589630126953 372.5065002441406 202.86114501953125 380.6609191894531 203.2492218017578 C 379.5997314453125 200.9178009033203 380.7892761230469 185.9918975830078 388.28558349609375 183.53060913085938 C 391.6578674316406 176.52114868164062 392.8388671875 176.5233612060547 409.35369873046875 176.41688537597656" stroke-width="0.0" fill="url(#shape_13_fill)"/>
    <path d="M 509.5455322265625 66.707763671875 C 512.5421752929688 66.27867889404297 521.3754272460938 70.17020416259766 523.229248046875 74.7498779296875 C 530.7588500976562 79.47382354736328 533.7140502929688 79.95914459228516 536.7235107421875 89.97139739990234 C 539.3228759765625 90.879638671875 544.5418701171875 90.31271362304688 545.0235595703125 91.1695556640625 C 545.5333862304688 92.7577133178711 556.0078125 97.09929656982422 561.412109375 94.58594512939453 C 563.6904907226562 97.46923065185547 567.34619140625 97.50833892822266 568.72412109375 99.13862609863281 C 564.6583251953125 105.01872253417969 555.3214721679688 115.5921401977539 544.7140502929688 110.86861419677734 C 541.4927368164062 111.90890502929688 539.325927734375 114.92707824707031 534.7960815429688 118.32024383544922 C 528.218017578125 120.53829956054688 520.5875244140625 123.89800262451172 515.785888671875 118.76541137695312 C 510.5936279296875 119.52582550048828 501.4417419433594 125.44769287109375 499.0382080078125 125.03742980957031 C 497.0835266113281 128.38714599609375 493.67437744140625 128.33102416992188 489.4781494140625 127.61058044433594 C 489.44586181640625 122.92811584472656 468.79608154296875 118.98483276367188 468.07220458984375 117.99750518798828 C 463.30389404296875 117.74690246582031 463.10614013671875 116.44499206542969 462.4022521972656 116.24225616455078 C 468.17510986328125 115.06322479248047 470.84234619140625 109.0446548461914 477.5574645996094 103.8170394897461 C 476.4956359863281 90.30339813232422 473.9835510253906 86.99799346923828 475.42071533203125 82.15924835205078 C 474.5901184082031 70.93414306640625 475.34326171875 70.3868408203125 478.6485595703125 66.56267547607422 C 479.038818359375 64.25527954101562 482.7495422363281 64.37954711914062 484.7793273925781 63.682743072509766 C 494.19940185546875 63.55311965942383 501.6615905761719 61.76000213623047 509.5455322265625 66.707763671875" stroke-width="0.0" fill="url(#shape_14_fill)"/>
    <path d="M 532.3519287109375 159.7667694091797 C 543.8099365234375 162.85516357421875 544.070556640625 163.81729125976562 547.1175537109375 165.176513671875 C 549.6746215820312 167.6488800048828 549.5610961914062 170.28053283691406 543.7666625976562 180.4907989501953 C 541.9700317382812 189.74520874023438 536.7509155273438 231.05746459960938 536.3358764648438 233.51246643066406 C 540.5730590820312 237.0235137939453 540.8515625 250.24307250976562 515.2385864257812 252.17266845703125 C 501.81048583984375 251.32803344726562 483.4116516113281 245.2618865966797 487.9670104980469 230.60922241210938 C 477.20904541015625 218.15426635742188 478.7728271484375 207.3726043701172 482.8956298828125 200.38973999023438 C 486.80810546875 197.4436798095703 488.53656005859375 197.569091796875 489.1955261230469 197.73577880859375 C 484.7781066894531 192.61582946777344 488.2742919921875 179.2971649169922 487.77972412109375 172.8292236328125 C 486.7700500488281 169.2838897705078 488.32757568359375 165.97862243652344 492.7174072265625 167.83384704589844 C 505.5801086425781 178.8702392578125 511.3231201171875 184.23793029785156 522.6974487304688 172.6524200439453 C 525.5490112304688 170.95834350585938 525.5385131835938 167.30523681640625 526.9601440429688 165.09716796875 C 527.4059448242188 161.103759765625 530.0236206054688 159.31475830078125 532.3519287109375 159.7667694091797" stroke-width="0.0" fill="url(#shape_15_fill)"/>
    <path d="M 652.1414184570312 110.35865020751953 C 653.910400390625 110.4527359008789 662.958251953125 122.07123565673828 660.682373046875 129.23406982421875 C 664.911865234375 134.37457275390625 665.1909790039062 141.4358367919922 673.4141845703125 148.35238647460938 C 676.5031127929688 179.1505889892578 673.4111328125 211.79959106445312 674.2586669921875 257.1044616699219 C 673.0517578125 255.0132293701172 647.264892578125 262.2918395996094 637.5310668945312 252.55128479003906 C 636.2533569335938 245.34803771972656 640.885986328125 123.61113739013672 652.1414184570312 110.35865020751953" stroke-width="0.0" fill="url(#shape_16_fill)"/>
    <path d="M 600.9330444335938 130.03012084960938 C 603.0420532226562 127.99486541748047 607.4081420898438 132.01194763183594 606.5023193359375 133.9674072265625 C 608.097900390625 135.07147216796875 607.7933959960938 139.9171600341797 609.4725952148438 142.6063690185547 C 625.4920043945312 143.25042724609375 626.5208129882812 225.02700805664062 625.3291625976562 254.10903930664062 C 595.523193359375 258.85736083984375 578.1248779296875 250.9606475830078 579.9458618164062 235.9746856689453 C 564.86181640625 227.6066131591797 597.4005126953125 154.15806579589844 600.9330444335938 130.03012084960938" stroke-width="0.0" fill="url(#shape_17_fill)"/>
    <path d="M 321.0088806152344 186.3008575439453 C 321.3980712890625 186.45556640625 323.2208251953125 189.33154296875 323.0175476074219 196.34071350097656 C 333.2767028808594 193.06484985351562 336.04266357421875 191.5672149658203 338.3824157714844 194.2131805419922 C 341.36572265625 198.85049438476562 346.3409729003906 197.2055206298828 353.6533203125 195.4064178466797 C 357.5919494628906 194.71240234375 358.4468688964844 197.00445556640625 357.7491149902344 201.3396759033203 C 359.5273742675781 203.97030639648438 361.57696533203125 204.1638946533203 362.3386535644531 207.92335510253906 C 367.2485046386719 207.0419158935547 368.4798278808594 208.22894287109375 368.1730651855469 211.8401641845703 C 369.9931640625 220.34129333496094 370.7334289550781 222.61102294921875 366.0475769042969 225.37684631347656 C 366.7288818359375 231.5191650390625 365.18194580078125 235.59002685546875 368.0665283203125 248.6101531982422 C 368.8229064941406 251.71258544921875 366.25714111328125 256.3340759277344 357.9664001464844 254.7879180908203 C 353.4493713378906 255.424072265625 330.4955749511719 255.04611206054688 322.04595947265625 255.29156494140625 C 313.41815185546875 255.99154663085938 312.200927734375 253.51425170898438 308.117431640625 242.08897399902344 C 304.5672302246094 229.9985809326172 320.7718505859375 194.00743103027344 321.0088806152344 186.3008575439453" stroke-width="0.0" fill="url(#shape_18_fill)"/>
    <path d="M 479.10882568359375 216.05499267578125 C 492.80462646484375 247.0843048095703 503.0686340332031 256.72906494140625 486.109619140625 275.5147705078125 C 470.7537536621094 279.1094055175781 444.0086669921875 261.40179443359375 442.13861083984375 261.6925048828125 C 438.6325988769531 260.6457214355469 437.13629150390625 258.2310791015625 432.5478820800781 258.06561279296875 C 429.6723937988281 258.14581298828125 427.6509094238281 257.4861755371094 428.14239501953125 254.10951232910156 C 427.8310852050781 239.7350616455078 421.5847473144531 232.4393310546875 422.7120361328125 229.1238250732422 C 424.4670715332031 227.40843200683594 421.29461669921875 227.1001434326172 420.0166320800781 225.7179412841797 C 427.7177429199219 219.50094604492188 429.6905212402344 218.80459594726562 429.24957275390625 215.47943115234375 C 438.8330993652344 195.0876007080078 470.70269775390625 198.99110412597656 479.10882568359375 216.05499267578125" stroke-width="0.0" fill="url(#shape_19_fill)"/>
    <path d="M 673.9454345703125 -2.8863515853881836 C 675.0543823242188 32.860992431640625 674.5826416015625 64.76441955566406 674.3572387695312 97.3233413696289 C 669.9009399414062 96.0642318725586 651.7235717773438 87.31156921386719 643.5335693359375 90.0869369506836 C 638.654052734375 89.55397033691406 638.188720703125 85.87113952636719 637.6487426757812 84.54402923583984 C 626.0891723632812 84.53533935546875 619.0761108398438 92.77641296386719 608.5131225585938 86.50675201416016 C 609.43359375 75.21585083007812 613.0645141601562 73.5726318359375 615.1082763671875 71.97303009033203 C 622.70703125 69.12873077392578 649.3314208984375 25.59065818786621 648.4470825195312 22.524564743041992 C 655.9047241210938 12.609112739562988 656.403076171875 3.9315273761749268 668.096923828125 4.049033164978027 C 669.7965698242188 2.6681931018829346 670.176513671875 1.140413522720337 673.9454345703125 -2.8863515853881836" stroke-width="0.0" fill="url(#shape_20_fill)"/>
    <path d="M 562.2465209960938 156.02003479003906 C 569.869140625 156.55819702148438 569.8521728515625 162.32699584960938 574.5170288085938 165.18870544433594 C 585.5707397460938 168.28675842285156 575.8272094726562 231.2650909423828 577.4457397460938 240.8057098388672 C 575.4794311523438 244.616455078125 571.871337890625 246.55043029785156 572.0248413085938 252.89736938476562 C 559.3150634765625 250.61387634277344 543.055419921875 251.29901123046875 540.035400390625 246.25828552246094 C 544.3167724609375 244.71011352539062 540.3024291992188 164.5084228515625 555.3141479492188 157.84112548828125 C 555.3421630859375 153.21865844726562 558.6292114257812 153.14805603027344 562.2465209960938 156.02003479003906" stroke-width="0.0" fill="url(#shape_21_fill)"/>
    <path d="M 215.3753204345703 209.6168670654297 C 231.8340301513672 210.6408233642578 231.871826171875 243.6763916015625 219.8761444091797 255.80447387695312 C 211.74220275878906 263.241455078125 209.76931762695312 264.63140869140625 208.31072998046875 273.5475769042969 C 205.71795654296875 275.375732421875 206.8020782470703 276.8733825683594 207.31341552734375 279.7664489746094 C 207.02696228027344 283.1824035644531 204.05364990234375 285.31689453125 200.246337890625 284.8880310058594 C 200.14955139160156 283.475830078125 191.0809783935547 272.4244689941406 187.92596435546875 265.102294921875 C 186.54783630371094 261.40411376953125 183.82394409179688 262.19287109375 181.5251922607422 261.7334899902344 C 180.7093963623047 260.7191162109375 179.8371124267578 260.5395812988281 178.67198181152344 254.5358428955078 C 180.36386108398438 248.68441772460938 169.27288818359375 243.38223266601562 170.79127502441406 237.8345184326172 C 175.83604431152344 213.49708557128906 177.66384887695312 213.18609619140625 185.84034729003906 220.5935516357422 C 193.9493865966797 218.90272521972656 194.30641174316406 215.47727966308594 197.806640625 214.0658416748047 C 189.28021240234375 205.86756896972656 189.145751953125 202.12286376953125 198.02125549316406 198.35702514648438 C 213.87509155273438 198.43141174316406 214.82850646972656 200.72915649414062 215.3753204345703 209.6168670654297" stroke-width="0.0" fill="url(#shape_22_fill)"/>
    <path d="M 111.53931427001953 426.39764404296875 C 112.72276306152344 429.2763671875 110.99575805664062 431.1855773925781 110.66854858398438 431.6425476074219 C 104.93522644042969 432.9246520996094 102.59034729003906 433.6459655761719 91.85708618164062 432.97344970703125 C 89.75894165039062 435.9652099609375 95.68576049804688 446.421630859375 91.63582611083984 452.1396789550781 C 78.66380310058594 444.9972229003906 46.938175201416016 447.9271240234375 24.963777542114258 449.6474304199219 C 14.005229949951172 446.2752380371094 13.874430656433105 439.7804870605469 17.66086769104004 436.4066467285156 C 34.146514892578125 427.7676086425781 50.71158218383789 427.0003662109375 70.39402770996094 427.0522766113281 C 75.11968231201172 425.48779296875 109.04521179199219 419.15618896484375 111.53931427001953 426.39764404296875" stroke-width="0.0" fill="url(#shape_23_fill)"/>
    <path d="M 194.71841430664062 122.544189453125 C 199.1094970703125 125.23945617675781 209.62132263183594 144.9401397705078 214.3583221435547 145.0514678955078 C 215.5319366455078 148.17495727539062 218.4886932373047 149.74490356445312 220.13238525390625 153.48350524902344 C 227.02064514160156 158.2526092529297 248.63546752929688 178.94735717773438 244.5709991455078 199.5498046875 C 239.16566467285156 199.5455322265625 235.5144500732422 187.15061950683594 232.64735412597656 180.7718963623047 C 234.31153869628906 185.8755645751953 233.77679443359375 195.88169860839844 231.40284729003906 196.63624572753906 C 225.4867706298828 199.47720336914062 225.01882934570312 201.86460876464844 220.46763610839844 208.5773468017578 C 215.19168090820312 207.65341186523438 213.6709747314453 199.50015258789062 214.1582794189453 196.00331115722656 C 212.67062377929688 189.62039184570312 212.5841522216797 183.04966735839844 206.8861083984375 178.2721710205078 C 203.99208068847656 174.0263671875 205.08685302734375 173.03399658203125 205.54736328125 167.86093139648438 C 202.56776428222656 148.84593200683594 200.40147399902344 148.26329040527344 192.74720764160156 144.24240112304688 C 189.1951904296875 142.283935546875 191.03269958496094 128.2601318359375 194.71841430664062 122.544189453125" stroke-width="0.0" fill="url(#shape_24_fill)"/>
    <path d="M 595.7608642578125 410.9842529296875 C 598.20458984375 412.0708923339844 626.2119140625 409.3108825683594 627.935546875 416.1395568847656 C 628.2672119140625 421.0307922363281 626.8956909179688 425.0847473144531 628.9337158203125 426.67730712890625 C 630.6946411132812 428.869873046875 635.107177734375 428.31622314453125 637.5540161132812 437.7461242675781 C 617.2599487304688 446.7635803222656 577.4721069335938 439.88580322265625 574.491943359375 433.712890625 C 568.4559326171875 425.5389404296875 574.3056640625 419.1566162109375 576.3085327148438 414.0672912597656 C 579.8037109375 409.23516845703125 587.1326293945312 412.2332763671875 595.7608642578125 410.9842529296875" stroke-width="0.0" fill="url(#shape_25_fill)"/>
    <path d="M 142.91531372070312 66.70291900634766 C 144.08152770996094 68.92575073242188 149.16944885253906 68.34068298339844 149.62930297851562 69.13887023925781 C 148.9059600830078 70.90144348144531 150.45980834960938 71.8261947631836 149.76687622070312 73.86490631103516 C 151.0465545654297 74.45259094238281 150.30613708496094 78.31034851074219 150.9010772705078 81.60698699951172 C 152.0924530029297 89.51278686523438 152.5658721923828 97.84644317626953 153.93919372558594 104.10136413574219 C 153.52078247070312 107.62052917480469 155.10223388671875 108.52269744873047 154.9700469970703 111.52012634277344 C 158.20535278320312 123.41129302978516 155.3815460205078 133.51145935058594 150.36196899414062 133.58596801757812 C 142.9311065673828 126.97636413574219 137.06607055664062 120.46758270263672 125.5929946899414 117.3254623413086 C 122.50336456298828 114.30118560791016 124.58396911621094 109.68606567382812 126.86821746826172 107.10038757324219 C 128.8304443359375 106.85303497314453 128.87680053710938 105.28240966796875 132.64889526367188 104.6858139038086 C 138.985595703125 96.47100067138672 134.9274139404297 93.09393310546875 133.3590087890625 90.12968444824219 C 134.216552734375 88.91536712646484 139.28103637695312 87.15431213378906 140.04791259765625 85.312255859375 C 138.12904357910156 84.74942779541016 138.78549194335938 77.6463623046875 139.51551818847656 77.47763061523438 C 143.5502166748047 76.59614562988281 142.6558837890625 70.31452178955078 142.91531372070312 66.70291900634766" stroke-width="0.0" fill="url(#shape_26_fill)"/>
    <path d="M 142.94680786132812 67.88314819335938 C 149.2325897216797 67.60846710205078 149.78842163085938 67.8264389038086 148.53958129882812 76.16609954833984 C 151.11183166503906 77.57923889160156 151.38587951660156 80.2333755493164 153.6247100830078 84.26319122314453 C 150.73043823242188 91.04884338378906 153.95753479003906 93.77825164794922 151.92098999023438 104.4206314086914 C 153.4759979248047 105.53849029541016 153.2816619873047 109.2939682006836 155.3688507080078 112.87203979492188 C 152.9254608154297 117.29312896728516 157.9332733154297 122.19428253173828 154.6752471923828 125.86398315429688 C 152.64486694335938 132.04400634765625 151.3513946533203 133.1742706298828 147.45362854003906 133.6185302734375 C 141.06427001953125 132.5467071533203 128.70899963378906 120.63887786865234 129.2026824951172 118.27009582519531 C 124.66993713378906 118.95128631591797 122.3028335571289 114.23699951171875 128.2327423095703 110.4156494140625 C 123.55715942382812 108.63317108154297 124.2984390258789 105.91577911376953 133.11367797851562 106.71590423583984 C 136.3955078125 105.59095001220703 134.16651916503906 92.92426300048828 133.791748046875 89.55794525146484 C 139.5376739501953 87.5739974975586 138.62440490722656 84.71504974365234 138.4356689453125 81.67195892333984 C 139.07827758789062 77.50383758544922 140.36456298828125 76.78894805908203 141.84938049316406 77.01168060302734 C 145.35728454589844 73.09942626953125 143.01229858398438 69.76539611816406 142.94680786132812 67.88314819335938" stroke-width="0.0" fill="url(#shape_27_fill)"/>
    <path d="M -0.315635621547699 -0.2704237997531891 C 4.6977715492248535 0.38045063614845276 9.643961906433105 -0.5246981978416443 19.296770095825195 -0.7483054399490356 C 23.042131423950195 0.02369263954460621 23.15931510925293 4.276371955871582 38.74042510986328 11.842202186584473 C 34.975894927978516 25.350479125976562 28.015832901000977 26.11129379272461 27.114168167114258 22.906612396240234 C 40.3788948059082 24.415287017822266 47.50410079956055 25.217451095581055 49.14030075073242 43.08700942993164 C 36.55357360839844 45.180389404296875 31.500123977661133 45.29035186767578 24.94719696044922 42.36470413208008 C 19.25118637084961 38.034297943115234 11.449405670166016 37.642662048339844 10.538183212280273 34.037071228027344 C 9.401508331298828 35.8725471496582 13.472506523132324 39.87394332885742 14.285566329956055 41.47012710571289 C 15.28093147277832 41.944271087646484 14.6793212890625 44.206947326660156 18.121843338012695 47.905113220214844 C 20.06428337097168 51.072898864746094 18.75137710571289 52.30940628051758 20.328948974609375 57.08893966674805 C 20.485200881958008 62.98662185668945 14.078764915466309 64.9494400024414 8.80674934387207 61.26614761352539 C 5.496110439300537 60.88492202758789 3.5339136123657227 59.141448974609375 0.3249913454055786 59.433719635009766 C -0.3176347315311432 39.7786750793457 -0.3248669505119324 19.628406524658203 -0.315635621547699 -0.2704237997531891" stroke-width="0.0" fill="url(#shape_28_fill)"/>
    <path d="M 299.4286804199219 197.3584442138672 C 297.5809326171875 199.21539306640625 299.978515625 202.16387939453125 301.4858703613281 207.99411010742188 C 299.26849365234375 212.10508728027344 322.0555419921875 229.44078063964844 315.56280517578125 255.69544982910156 C 311.7972717285156 253.91021728515625 310.5404968261719 254.98043823242188 306.3558654785156 255.78863525390625 C 301.6788635253906 258.0564880371094 295.7287902832031 257.9075622558594 281.038818359375 256.4132995605469 C 280.421630859375 230.44036865234375 285.6589660644531 216.72715759277344 299.4286804199219 197.3584442138672" stroke-width="0.0" fill="url(#shape_29_fill)"/>
    <path d="M -0.038802146911621094 0.051254305988550186 C 4.459131240844727 0.44800636172294617 9.587974548339844 -0.41481924057006836 14.550004005432129 0.13279171288013458 C 15.726295471191406 0.49467065930366516 16.177265167236328 5.32423210144043 16.18207550048828 8.052372932434082 C 18.93891143798828 10.804215431213379 22.060630798339844 18.85799789428711 26.925453186035156 20.804222106933594 C 27.112529754638672 22.487991333007812 24.604019165039062 26.854507446289062 24.48944854736328 31.509355545043945 C 20.46559715270996 32.29802703857422 14.929140090942383 31.330781936645508 7.414421558380127 34.10066604614258 C 9.121017456054688 35.86321258544922 8.80830192565918 38.6945915222168 10.871906280517578 40.47488784790039 C 9.877581596374512 45.09135437011719 7.5446062088012695 51.43605422973633 11.486884117126465 53.91371154785156 C 17.711956024169922 51.51189041137695 19.539098739624023 52.027809143066406 18.323307037353516 58.0399169921875 C 10.888151168823242 59.8415412902832 9.80101203918457 63.09996032714844 0.21931001543998718 61.168697357177734 C -0.4162004292011261 39.95843505859375 -0.3543963134288788 19.754072189331055 -0.038802146911621094 0.051254305988550186" stroke-width="0.0" fill="url(#shape_30_fill)"/>
    <path d="M 546.7769165039062 70.63645935058594 C 545.823974609375 76.46029663085938 577.1170654296875 89.14424896240234 581.5546264648438 91.53742218017578 C 580.74951171875 92.4079360961914 577.0968627929688 93.18905639648438 576.94384765625 98.21502685546875 C 573.2538452148438 100.7824478149414 572.0864868164062 100.04705047607422 569.2481079101562 99.9393081665039 C 567.1241455078125 95.84945678710938 544.1605834960938 95.96468353271484 538.5565795898438 88.46903991699219 C 538.5899047851562 85.4620590209961 537.5669555664062 83.28260040283203 535.6278076171875 82.5091552734375 C 534.79541015625 79.55862426757812 528.8018188476562 79.60566711425781 526.9723510742188 78.34749603271484 C 525.3292846679688 75.78450775146484 527.7818603515625 70.90077209472656 532.8644409179688 69.19633483886719 C 536.4828491210938 67.5921630859375 540.5839233398438 70.04212951660156 546.7769165039062 70.63645935058594" stroke-width="0.0" fill="url(#shape_31_fill)"/>
    <path d="M 447.9837646484375 264.13427734375 C 450.68597412109375 265.2559509277344 451.3131103515625 266.7109680175781 455.9634704589844 267.6832580566406 C 460.5113830566406 267.6551208496094 465.32232666015625 270.3759765625 469.9166259765625 273.233642578125 C 470.4351806640625 275.6302490234375 471.8252868652344 276.89288330078125 471.6768798828125 280.76275634765625 C 450.2748107910156 289.2270812988281 428.3906555175781 285.8646240234375 415.8035583496094 284.6781921386719 C 413.3820495605469 273.9145202636719 415.2168884277344 272.3492431640625 415.68695068359375 268.2445983886719 C 418.1906433105469 267.2078552246094 417.7781066894531 264.8067626953125 419.3498229980469 263.080078125 C 431.5851135253906 253.15623474121094 443.514892578125 255.80787658691406 447.9837646484375 264.13427734375" stroke-width="0.0" fill="url(#shape_32_fill)"/>
    <path d="M 271.0048522949219 192.1316375732422 C 277.82928466796875 191.6739501953125 285.10296630859375 243.63104248046875 280.61260986328125 244.6504669189453 C 279.15667724609375 247.17794799804688 273.8208923339844 246.9189910888672 269.93511962890625 248.43324279785156 C 266.4459533691406 245.87474060058594 266.7944641113281 241.98898315429688 261.21563720703125 240.81663513183594 C 254.62294006347656 211.26197814941406 262.512451171875 206.7201690673828 271.0048522949219 192.1316375732422" stroke-width="0.0" fill="url(#shape_33_fill)"/>
    <path d="M 257.83770751953125 419.74652099609375 C 259.3508605957031 424.1324157714844 266.11468505859375 429.5511169433594 267.2663269042969 439.9837341308594 C 262.17437744140625 442.49908447265625 261.0887756347656 446.5769958496094 253.6521759033203 447.7539978027344 C 246.36134338378906 445.6608581542969 219.75698852539062 447.8155212402344 212.59371948242188 444.63079833984375 C 213.02471923828125 436.99578857421875 213.95974731445312 436.2222900390625 215.9071807861328 434.4457092285156 C 216.14341735839844 433.3901672363281 225.0045623779297 433.3703918457031 226.62770080566406 430.2578430175781 C 228.61410522460938 419.8963623046875 239.7815704345703 421.4327087402344 257.83770751953125 419.74652099609375" stroke-width="0.0" fill="url(#shape_34_fill)"/>
    <path d="M 106.2005615234375 69.90574645996094 C 109.41464233398438 69.95700073242188 111.98583221435547 78.6961898803711 111.74761962890625 83.30368041992188 C 117.01913452148438 84.9665298461914 117.43377685546875 110.27778625488281 117.7100830078125 110.8768310546875 C 116.87744140625 112.83982849121094 111.9852523803711 114.5266342163086 107.0121841430664 122.27737426757812 C 104.88604736328125 117.15248107910156 96.56132507324219 118.81802368164062 91.55072021484375 112.7620849609375 C 89.98543548583984 85.4762191772461 104.39216613769531 84.34620666503906 106.2005615234375 69.90574645996094" stroke-width="0.0" fill="url(#shape_35_fill)"/>
    <path d="M 451.572021484375 178.56475830078125 C 453.4353942871094 176.346435546875 456.5141906738281 177.53883361816406 456.0630187988281 180.11837768554688 C 456.7065124511719 180.46615600585938 456.5334777832031 184.84393310546875 457.481689453125 186.32534790039062 C 455.06658935546875 188.0473175048828 459.1216735839844 193.83888244628906 460.16986083984375 205.41818237304688 C 459.40325927734375 208.5060272216797 452.4004821777344 209.25547790527344 445.6138610839844 204.58108520507812 C 441.79656982421875 207.28672790527344 440.6804504394531 209.06109619140625 433.1753234863281 210.9805908203125 C 434.0575256347656 209.91189575195312 437.48602294921875 189.42137145996094 439.1170349121094 180.7746124267578 C 440.3773498535156 180.30152893066406 444.08819580078125 181.07862854003906 446.4943542480469 180.5269317626953 C 447.72930908203125 179.2584228515625 450.0750732421875 179.4933624267578 451.572021484375 178.56475830078125" stroke-width="0.0" fill="url(#shape_36_fill)"/>
    <path d="M 558.4301147460938 85.29811096191406 C 563.660400390625 80.69783782958984 578.6262817382812 82.1511459350586 580.2049560546875 85.73783874511719 C 581.5612182617188 83.90786743164062 586.47607421875 85.26209259033203 586.966064453125 88.7293930053711 C 594.0494995117188 96.69835662841797 586.0684814453125 104.60051727294922 574.3902587890625 100.15042114257812 C 573.7923583984375 99.37397003173828 551.5890502929688 95.19927978515625 542.1801147460938 85.57757568359375 C 538.6320190429688 85.31077575683594 537.8072509765625 81.40142059326172 536.1395263671875 80.61663818359375 C 543.232421875 74.818359375 547.8582763671875 78.81684875488281 558.4301147460938 85.29811096191406" stroke-width="0.0" fill="url(#shape_37_fill)"/>
    <path d="M 252.62689208984375 208.62782287597656 C 264.7203063964844 210.31016540527344 261.5423278808594 242.48622131347656 260.5656433105469 247.84951782226562 C 258.383544921875 254.45387268066406 250.59567260742188 254.0802459716797 248.16929626464844 257.09661865234375 C 234.33062744140625 237.4969482421875 240.37747192382812 212.39239501953125 252.62689208984375 208.62782287597656" stroke-width="0.0" fill="url(#shape_38_fill)"/>
    <path d="M 443.33233642578125 263.5107421875 C 445.9548034667969 263.48974609375 449.1163330078125 266.6027526855469 447.68756103515625 270.05206298828125 C 444.175537109375 270.34222412109375 442.6014404296875 277.02728271484375 441.1268005371094 279.6562805175781 C 440.05096435546875 285.4283447265625 423.4765625 284.3066711425781 418.1512145996094 275.5981140136719 C 414.6601257324219 277.01019287109375 413.2196044921875 273.6197204589844 415.79913330078125 271.7061767578125 C 415.11053466796875 269.93927001953125 419.201171875 262.2345886230469 425.9727478027344 258.19189453125 C 427.6791687011719 255.91856384277344 437.4075622558594 258.03216552734375 443.33233642578125 263.5107421875" stroke-width="0.0" fill="url(#shape_39_fill)"/>
    <path d="M 407.7420654296875 409.7700500488281 C 408.688232421875 409.8802795410156 416.7825012207031 419.0255126953125 413.5978698730469 424.17401123046875 C 400.9154357910156 436.13934326171875 384.722900390625 420.2782897949219 376.86444091796875 420.6655578613281 C 370.5927429199219 417.87158203125 371.6101379394531 416.6557922363281 372.6800537109375 410.6510925292969 C 375.0384521484375 401.16522216796875 395.61065673828125 403.48724365234375 407.7420654296875 409.7700500488281" stroke-width="0.0" fill="url(#shape_40_fill)"/>
    <path d="M 66.45218658447266 427.5920715332031 C 67.44864654541016 429.15478515625 65.02301025390625 435.1278076171875 58.941795349121094 436.0249328613281 C 58.29637145996094 437.0673828125 40.370765686035156 436.7346496582031 31.582149505615234 442.6747131347656 C 28.70825958251953 442.5208740234375 26.06125259399414 444.3582763671875 17.170019149780273 443.37139892578125 C 16.45602798461914 440.6475524902344 17.731849670410156 439.2044677734375 17.15397834777832 437.93701171875 C 34.04201126098633 427.5842590332031 55.3880500793457 427.6559143066406 66.45218658447266 427.5920715332031" stroke-width="0.0" fill="url(#shape_41_fill)"/>
    <path d="M 278.9288635253906 381.0002136230469 C 284.7547912597656 380.9795227050781 297.9400329589844 381.089111328125 302.1851806640625 384.727294921875 C 297.3739013671875 394.95684814453125 299.3222351074219 400.8210144042969 294.35784912109375 404.7536315917969 C 291.7295227050781 399.3697814941406 265.05804443359375 404.537109375 258.1515808105469 405.5345458984375 C 250.2492218017578 404.0342102050781 248.4279327392578 393.1443176269531 251.1985626220703 382.4711608886719 C 260.91864013671875 381.2436218261719 267.5759582519531 382.3318176269531 278.9288635253906 381.0002136230469" stroke-width="0.0" fill="url(#shape_42_fill)"/>
    <path d="M 223.14060974121094 216.74533081054688 C 223.43746948242188 215.2700958251953 233.81915283203125 215.17539978027344 239.90721130371094 216.77114868164062 C 241.36392211914062 222.0053253173828 247.4901885986328 240.5524139404297 247.17868041992188 263.7409973144531 C 245.3963623046875 269.4487609863281 237.86744689941406 269.690673828125 213.0920867919922 269.4844055175781 C 209.0670928955078 265.382080078125 208.6055145263672 260.81842041015625 217.3264923095703 248.00196838378906 C 219.4552001953125 246.4744415283203 217.9735107421875 226.42025756835938 223.14060974121094 216.74533081054688" stroke-width="0.0" fill="url(#shape_43_fill)"/>
    <path d="M 483.9156494140625 395.55987548828125 C 486.81842041015625 399.7997131347656 485.83807373046875 400.98779296875 483.5357971191406 401.2052307128906 C 473.9473571777344 406.984375 451.1644287109375 406.71087646484375 450.2441711425781 407.66796875 C 448.0472106933594 404.4161682128906 451.5871276855469 396.1728210449219 453.6050109863281 396.4736328125 C 462.9637756347656 393.0858154296875 473.0281066894531 392.76416015625 483.9156494140625 395.55987548828125" stroke-width="0.0" fill="url(#shape_44_fill)"/>
    <path d="M 45.80860900878906 407.2894287109375 C 45.27743911743164 408.20135498046875 35.7659797668457 411.4770202636719 34.403724670410156 413.694580078125 C 32.769142150878906 414.6478271484375 32.449459075927734 416.1168518066406 29.13332748413086 416.10723876953125 C 27.82417869567871 417.5625915527344 25.12421989440918 417.9937438964844 21.56954002380371 420.5624084472656 C 17.794633865356445 420.1787109375 0.28999897837638855 417.2091979980469 -0.8112513422966003 420.5328674316406 C 1.7183098793029785 419.6725158691406 -0.5851303339004517 411.0958557128906 0.7761144042015076 410.3212890625 C 9.041871070861816 408.687255859375 45.45989227294922 407.3045349121094 45.80860900878906 407.2894287109375" stroke-width="0.0" fill="url(#shape_45_fill)"/>
    <path d="M 451.8828125 175.2307586669922 C 455.2274475097656 174.85586547851562 464.3053894042969 198.9425811767578 465.2470703125 201.46856689453125 C 462.5867614746094 209.6288604736328 451.69451904296875 209.5806121826172 449.473388671875 206.7420196533203 C 448.32623291015625 203.2502899169922 449.0445861816406 198.31332397460938 448.8478698730469 195.30075073242188 C 447.9477233886719 194.55018615722656 447.60394287109375 192.16207885742188 448.508544921875 188.01754760742188 C 451.0039978027344 186.65933227539062 450.7845153808594 183.02587890625 451.8828125 175.2307586669922" stroke-width="0.0" fill="url(#shape_46_fill)"/>
    <path d="M 373.04779052734375 185.9214324951172 C 378.4844055175781 194.28204345703125 380.0932922363281 203.11102294921875 371.467041015625 206.21559143066406 C 365.8646545410156 206.8260498046875 364.772216796875 204.85504150390625 362.02044677734375 204.4541473388672 C 349.80389404296875 208.23556518554688 346.6807861328125 202.84469604492188 354.45831298828125 188.51968383789062 C 356.6490478515625 184.95550537109375 358.3677062988281 184.40692138671875 368.09930419921875 185.41844177246094 C 368.9490051269531 183.6256561279297 372.79254150390625 183.4189910888672 373.04779052734375 185.9214324951172" stroke-width="0.0" fill="url(#shape_47_fill)"/>
    <path d="M 470.9662170410156 263.6288757324219 C 475.8004455566406 267.01153564453125 480.7989501953125 267.4016418457031 479.80474853515625 284.46734619140625 C 465.3951110839844 287.5934753417969 453.8094177246094 285.9466552734375 443.7774963378906 284.9216003417969 C 439.29608154296875 282.23382568359375 439.9982604980469 276.95782470703125 441.20391845703125 276.4750671386719 C 447.36883544921875 266.5679626464844 455.3020324707031 264.1459045410156 470.9662170410156 263.6288757324219" stroke-width="0.0" fill="url(#shape_48_fill)"/>
    <path d="M 177.07681274414062 117.87724304199219 C 178.489013671875 115.86158752441406 181.9132843017578 116.40802001953125 182.80545043945312 117.33995819091797 C 184.68617248535156 120.23776245117188 183.85238647460938 122.3507308959961 184.79095458984375 123.55006408691406 C 179.8638458251953 127.69349670410156 185.78826904296875 136.57574462890625 182.5829315185547 140.1131591796875 C 181.708740234375 146.79031372070312 172.79673767089844 145.77178955078125 171.66574096679688 146.5268096923828 C 171.3800811767578 126.45962524414062 170.03948974609375 124.96257781982422 177.07681274414062 117.87724304199219" stroke-width="0.0" fill="url(#shape_49_fill)"/>
    <path d="M 333.9510803222656 428.0795593261719 C 337.3362731933594 428.4524230957031 341.0748596191406 429.1544494628906 342.9323425292969 432.0078125 C 346.3612060546875 435.597900390625 345.162353515625 437.22894287109375 342.4723815917969 437.6060485839844 C 342.86395263671875 445.9139709472656 325.0235290527344 447.87152099609375 323.0498962402344 441.8550720214844 C 319.2938537597656 436.51153564453125 317.1246032714844 432.0974426269531 312.3455810546875 429.29766845703125 C 322.12799072265625 427.43939208984375 328.88287353515625 428.270263671875 333.9510803222656 428.0795593261719" stroke-width="0.0" fill="url(#shape_50_fill)"/>
    <path d="M 300.671630859375 389.4413757324219 C 299.3667907714844 393.6066589355469 295.12103271484375 398.73162841796875 289.7610778808594 399.0935363769531 C 280.4233093261719 397.70843505859375 279.87359619140625 398.4505310058594 271.3749084472656 402.6251220703125 C 271.0653381347656 401.61749267578125 269.58447265625 398.9817810058594 271.0459899902344 397.48236083984375 C 269.9341125488281 395.5024719238281 272.97515869140625 388.05029296875 279.9902648925781 388.4178466796875 C 283.0866394042969 386.6473083496094 287.6122131347656 390.2934875488281 300.671630859375 389.4413757324219" stroke-width="0.0" fill="url(#shape_51_fill)"/>
    <path d="M 268.75665283203125 184.1572265625 C 275.9246826171875 194.9365997314453 278.0543212890625 207.60699462890625 279.9976806640625 217.3033447265625 C 271.4425964355469 210.4384307861328 269.0008850097656 207.9640350341797 260.918701171875 215.4971466064453 C 257.6600036621094 206.7921905517578 264.1127014160156 197.61398315429688 266.2281494140625 195.2380828857422 C 269.5932312011719 194.23170471191406 268.90374755859375 191.68826293945312 268.75665283203125 184.1572265625" stroke-width="0.0" fill="url(#shape_52_fill)"/>
    <path d="M 218.24803161621094 409.5535888671875 C 215.92079162597656 410.98065185546875 215.58071899414062 413.24072265625 214.24838256835938 413.878662109375 C 214.61837768554688 421.1434326171875 190.5541534423828 424.29022216796875 187.4833984375 415.5938415527344 C 186.258544921875 405.8976135253906 205.8790283203125 400.9863586425781 218.24803161621094 409.5535888671875" stroke-width="0.0" fill="url(#shape_53_fill)"/>
    <path d="M 205.79991149902344 424.6355285644531 C 205.5355224609375 425.3040771484375 206.1322784423828 428.2755432128906 204.58419799804688 429.531982421875 C 195.90176391601562 431.29302978515625 178.82778930664062 431.4247741699219 177.93450927734375 432.7139892578125 C 176.71339416503906 430.9534912109375 178.1903839111328 425.9546813964844 176.76229858398438 423.9027099609375 C 185.7437286376953 418.63470458984375 194.75291442871094 422.4389953613281 205.79991149902344 424.6355285644531" stroke-width="0.0" fill="url(#shape_54_fill)"/>
    <path d="M 269.725830078125 246.0164794921875 C 275.4249267578125 244.8146514892578 276.66650390625 246.31129455566406 280.7734375 245.13905334472656 C 281.0627746582031 250.9996795654297 280.402587890625 252.380126953125 284.6591491699219 260.56951904296875 C 263.45904541015625 257.915283203125 262.92022705078125 257.2043762207031 254.08029174804688 259.8417663574219 C 254.8814697265625 248.17491149902344 255.86151123046875 247.22885131835938 258.58990478515625 245.1460418701172 C 260.24908447265625 239.47171020507812 266.2704772949219 239.89564514160156 269.725830078125 246.0164794921875" stroke-width="0.0" fill="url(#shape_55_fill)"/>
    <path d="M 275.2842102050781 356.80810546875 C 277.802978515625 363.9318542480469 282.6829833984375 363.4332275390625 284.5180358886719 368.08599853515625 C 285.3622741699219 369.23699951171875 285.9026794433594 371.8525085449219 285.8686218261719 380.7502746582031 C 276.6362609863281 379.46337890625 263.6545715332031 382.5061340332031 247.47183227539062 382.6498107910156 C 243.21051025390625 380.7972106933594 244.4534454345703 361.9532470703125 245.66905212402344 358.9884338378906 C 253.27069091796875 357.541259765625 259.8302307128906 356.4409484863281 275.2842102050781 356.80810546875" stroke-width="0.0" fill="url(#shape_56_fill)"/>
    <path d="M 409.31787109375 270.6378479003906 C 415.3197021484375 269.3604736328125 417.9470520019531 273.64764404296875 419.28875732421875 280.7903747558594 C 412.8442687988281 288.5611572265625 402.4639587402344 284.8456115722656 384.3910217285156 281.5716857910156 C 382.4627380371094 267.0528564453125 391.1441650390625 263.7650451660156 409.31787109375 270.6378479003906" stroke-width="0.0" fill="url(#shape_57_fill)"/>
    <path d="M 632.04296875 351.823974609375 C 632.9799194335938 354.7272033691406 659.5078125 353.4986267089844 668.65966796875 353.7480163574219 C 668.4520874023438 358.3000183105469 662.3731079101562 360.8508605957031 660.2067260742188 356.5843505859375 C 652.1388549804688 356.0811767578125 634.161376953125 360.4935607910156 631.4766845703125 360.90655517578125 C 627.7684936523438 357.09539794921875 629.3103637695312 353.5704040527344 632.04296875 351.823974609375" stroke-width="0.0" fill="url(#shape_58_fill)"/>
    <path d="M 341.27484130859375 385.12188720703125 C 342.78570556640625 390.3055725097656 358.1222229003906 391.8184814453125 359.1843566894531 394.7606201171875 C 356.5524597167969 398.4801025390625 339.5991516113281 401.8958435058594 338.4520568847656 399.521484375 C 335.1392822265625 399.6086730957031 333.0824279785156 398.77484130859375 331.86700439453125 396.5358581542969 C 331.9855041503906 394.93994140625 330.7569580078125 393.4737243652344 332.3598327636719 390.6150207519531 C 333.1738586425781 385.09930419921875 336.9721984863281 384.2359924316406 341.27484130859375 385.12188720703125" stroke-width="0.0" fill="url(#shape_59_fill)"/>
    <path d="M 460.5199279785156 363.7555847167969 C 462.6410217285156 365.021728515625 471.99420166015625 369.7884826660156 473.100830078125 373.97930908203125 C 471.7906494140625 376.1589050292969 470.33154296875 376.8522033691406 463.0733337402344 375.9199523925781 C 458.4887390136719 376.9710693359375 457.58795166015625 376.9198913574219 452.72021484375 370.95819091796875 C 453.06756591796875 369.30767822265625 459.22149658203125 365.1370849609375 460.5199279785156 363.7555847167969" stroke-width="0.0" fill="url(#shape_60_fill)"/>
    <path d="M 435.174560546875 432.704345703125 C 440.1961364746094 434.2776794433594 442.4815368652344 436.3847961425781 442.0043640136719 438.9911193847656 C 440.45111083984375 442.0519714355469 429.8854064941406 440.7717590332031 425.7958984375 442.4949645996094 C 422.50396728515625 438.4023132324219 424.0503234863281 434.50054931640625 415.5643615722656 426.3242492675781 C 427.94952392578125 429.9584045410156 431.8353576660156 434.2571716308594 435.174560546875 432.704345703125" stroke-width="0.0" fill="url(#shape_61_fill)"/>
    <path d="M 185.42726135253906 411.45208740234375 C 186.2632293701172 413.93170166015625 185.0088653564453 414.7928771972656 186.92376708984375 417.7747497558594 C 184.86094665527344 420.1617126464844 183.4051055908203 419.5296936035156 182.4767608642578 419.7031555175781 C 180.80825805664062 421.6636047363281 174.41259765625 420.3562316894531 171.23513793945312 420.2415771484375 C 169.53317260742188 417.8752136230469 169.75714111328125 415.6355285644531 173.53472900390625 413.4342041015625 C 176.44314575195312 412.4544677734375 181.0316925048828 410.7269592285156 185.42726135253906 411.45208740234375" stroke-width="0.0" fill="url(#shape_62_fill)"/>
    <path d="M 332.4718017578125 418.4588317871094 C 334.9066162109375 426.1694641113281 329.9022216796875 428.0118103027344 327.2816162109375 426.0704345703125 C 324.60009765625 427.7802734375 323.0025939941406 426.7379455566406 320.5760192871094 427.63470458984375 C 318.7311096191406 426.0408020019531 319.6674499511719 419.9898986816406 317.83599853515625 418.4207458496094 C 320.1917419433594 420.1317138671875 326.32489013671875 418.6970520019531 332.4718017578125 418.4588317871094" stroke-width="0.0" fill="url(#shape_63_fill)"/>
    <path d="M 55.36808395385742 273.2025451660156 C 56.54454803466797 269.59326171875 66.26115417480469 269.8653564453125 66.15153503417969 278.47650146484375 C 58.68088912963867 279.19024658203125 53.58270263671875 273.0733337402344 47.98733139038086 276.1092529296875 C 49.509033203125 272.9029541015625 52.2962532043457 272.3826599121094 55.36808395385742 273.2025451660156" stroke-width="0.0" fill="url(#shape_64_fill)"/>
    <path d="M 304.4029846191406 438.783935546875 C 304.4808654785156 437.1060485839844 305.90740966796875 436.0933532714844 313.1304931640625 437.0830078125 C 314.7920837402344 438.9134826660156 313.1786193847656 441.616943359375 311.43902587890625 442.7280578613281 C 307.83734130859375 445.425048828125 306.77545166015625 444.223876953125 305.131591796875 444.97674560546875 C 302.82086181640625 441.6353759765625 302.6017761230469 439.6869812011719 304.4029846191406 438.783935546875" stroke-width="0.0" fill="url(#shape_65_fill)"/>
    <path d="M -0.3844095766544342 -0.3535268306732178 C 224.1333465576172 -0.02953895926475525 443.7805480957031 0.4544059634208679 673.1014404296875 0.7825008630752563 C 673.7994384765625 152.14166259765625 674.5302734375 295.5796203613281 673.5053100585938 445.4850158691406 C 450.4986267089844 446.2929382324219 230.7079315185547 446.2204895019531 0.5958068370819092 445.3133239746094 C 0.2708406448364258 296.90936279296875 -0.08162855356931686 148.7893524169922 -0.3844095766544342 -0.3535268306732178" stroke-width="0.0" fill="url(#shape_66_fill)"/>
    <path d="M -0.9339479804039001 -0.13388095796108246 C 222.53126525878906 -0.12858201563358307 443.5218200683594 0.3489701747894287 673.1091918945312 0.27720877528190613 C 673.90673828125 152.25958251953125 674.576904296875 294.9267578125 673.2487182617188 445.3697814941406 C 450.62957763671875 446.3749694824219 230.8966522216797 446.27264404296875 0.7259106636047363 445.21331787109375 C 0.20942534506320953 296.8911437988281 -0.2131224423646927 148.6338653564453 -0.9339479804039001 -0.13388095796108246" stroke-width="0.0" fill="url(#shape_67_fill)"/>
    <path d="M -0.5999132394790649 -0.1614242047071457 C 222.6622314453125 -0.1166415736079216 442.7323303222656 0.4447224736213684 673.0950927734375 -0.12177673727273941 C 673.8899536132812 152.34756469726562 674.5834350585938 294.9826965332031 673.2608642578125 445.37115478515625 C 450.66949462890625 446.37725830078125 230.96337890625 446.27032470703125 1.2818983793258667 445.187744140625 C 0.5103141665458679 295.5614013671875 0.07024097442626953 148.487548828125 -0.5999132394790649 -0.1614242047071457" stroke-width="0.0" fill="url(#shape_68_fill)"/>
  </g>
</svg>
