<?xml version="1.0" ?>
<svg xmlns="http://www.w3.org/2000/svg" version="1.1" width="674" height="446">
  <defs>
    <radialGradient id="shape_0_fill" cx="0.5355369499953635" cy="0.741679922882217" r="0.27775236407090365">
      <stop offset="0.78772587" stop-color="rgb(172, 186, 0)" stop-opacity="0.8688487410545349"/>
      <stop offset="1.0" stop-color="rgb(54, 44, 0)" stop-opacity="1.0"/>
    </radialGradient>
    <radialGradient id="shape_1_fill" cx="0.536930616248609" cy="0.7447405759529148" r="0.206078798197851">
      <stop offset="0.5846927" stop-color="rgb(85, 87, 64)" stop-opacity="0.8410996198654175"/>
      <stop offset="1.0" stop-color="rgb(24, 7, 0)" stop-opacity="0.625402569770813"/>
    </radialGradient>
    <radialGradient id="shape_2_fill" cx="0.09792284866468842" cy="0.7376672719091578" r="0.22062588021026522">
      <stop offset="0.0021939985" stop-color="rgb(32, 91, 181)" stop-opacity="0.9809901714324951"/>
      <stop offset="1.0" stop-color="rgb(10, 110, 255)" stop-opacity="0.9393313527107239"/>
    </radialGradient>
    <radialGradient id="shape_3_fill" cx="0.27622958672860254" cy="0.21590216598168616" r="0.12803091847224476">
      <stop offset="0.39045772" stop-color="rgb(149, 207, 11)" stop-opacity="0.8244412541389465"/>
      <stop offset="1.0" stop-color="rgb(40, 43, 0)" stop-opacity="0.9601969122886658"/>
    </radialGradient>
    <radialGradient id="shape_4_fill" cx="0.1543026706231454" cy="0.9977578475336323" r="0.10288926755639141">
      <stop offset="0.0" stop-color="rgb(81, 79, 86)" stop-opacity="1.0"/>
      <stop offset="1.0" stop-color="rgb(91, 78, 94)" stop-opacity="0.8799006938934326"/>
    </radialGradient>
    <radialGradient id="shape_5_fill" cx="0.14807964290992442" cy="0.23997249517740155" r="0.11810664960821587">
      <stop offset="0.0" stop-color="rgb(255, 255, 255)" stop-opacity="0.6465655565261841"/>
      <stop offset="0.5626593" stop-color="rgb(255, 255, 255)" stop-opacity="0.6164950132369995"/>
    </radialGradient>
    <radialGradient id="shape_6_fill" cx="0.18397626112759644" cy="0.9977578475336323" r="0.0754974885934892">
      <stop offset="0.0" stop-color="rgb(93, 90, 94)" stop-opacity="1.0"/>
      <stop offset="1.0" stop-color="rgb(145, 130, 134)" stop-opacity="0.9202052354812622"/>
    </radialGradient>
    <radialGradient id="shape_7_fill" cx="0.2893175074183976" cy="0.05829596412556054" r="0.08666390552011372">
      <stop offset="0.0" stop-color="rgb(55, 66, 29)" stop-opacity="1.0"/>
      <stop offset="1.0" stop-color="rgb(96, 110, 34)" stop-opacity="0.6515328884124756"/>
    </radialGradient>
    <radialGradient id="shape_8_fill" cx="0.3382789091115889" cy="0.9439461883408071" r="0.06756690277190167">
      <stop offset="0.0" stop-color="rgb(91, 124, 45)" stop-opacity="1.0"/>
      <stop offset="1.0" stop-color="rgb(130, 186, 75)" stop-opacity="0.7317340970039368"/>
    </radialGradient>
    <radialGradient id="shape_9_fill" cx="0.30712166172106825" cy="0.9977578475336323" r="0.0730758406641929">
      <stop offset="0.0" stop-color="rgb(38, 48, 20)" stop-opacity="1.0"/>
      <stop offset="1.0" stop-color="rgb(27, 29, 38)" stop-opacity="0.9926461577415466"/>
    </radialGradient>
    <radialGradient id="shape_10_fill" cx="0.3056379821958457" cy="0.9977578475336323" r="0.06792919147615971">
      <stop offset="0.0" stop-color="rgb(39, 49, 21)" stop-opacity="1.0"/>
      <stop offset="1.0" stop-color="rgb(44, 35, 0)" stop-opacity="0.7227712273597717"/>
    </radialGradient>
    <radialGradient id="shape_11_fill" cx="0.21810089020771514" cy="0.968609865470852" r="0.06792919147615971">
      <stop offset="0.0" stop-color="rgb(138, 135, 129)" stop-opacity="1.0"/>
      <stop offset="1.0" stop-color="rgb(190, 158, 138)" stop-opacity="0.5262475609779358"/>
    </radialGradient>
    <radialGradient id="shape_12_fill" cx="0.29080118694362017" cy="0.9977578475336323" r="0.07480746985189285">
      <stop offset="0.0" stop-color="rgb(22, 25, 13)" stop-opacity="1.0"/>
      <stop offset="1.0" stop-color="rgb(32, 35, 0)" stop-opacity="1.0"/>
    </radialGradient>
    <radialGradient id="shape_13_fill" cx="0.327893175074184" cy="0.8923766816143498" r="0.06900465877544279">
      <stop offset="0.0" stop-color="rgb(89, 117, 50)" stop-opacity="1.0"/>
      <stop offset="1.0" stop-color="rgb(122, 161, 35)" stop-opacity="0.8305653929710388"/>
    </radialGradient>
    <radialGradient id="shape_14_fill" cx="0.142433234421365" cy="0.9977578475336323" r="0.06617211022079875">
      <stop offset="0.0" stop-color="rgb(155, 150, 153)" stop-opacity="1.0"/>
      <stop offset="1.0" stop-color="rgb(255, 250, 250)" stop-opacity="0.14516271650791168"/>
    </radialGradient>
    <radialGradient id="shape_15_fill" cx="0.31008902077151335" cy="0.9977578475336323" r="0.06683642786405207">
      <stop offset="0.0" stop-color="rgb(43, 55, 23)" stop-opacity="1.0"/>
      <stop offset="1.0" stop-color="rgb(55, 66, 14)" stop-opacity="0.9432365298271179"/>
    </radialGradient>
    <radialGradient id="shape_16_fill" cx="0.27299703264094954" cy="0.9977578475336323" r="0.08110449363640579">
      <stop offset="0.0" stop-color="rgb(31, 35, 19)" stop-opacity="1.0"/>
      <stop offset="1.0" stop-color="rgb(32, 31, 0)" stop-opacity="0.9874668121337891"/>
    </radialGradient>
    <radialGradient id="shape_17_fill" cx="0.2893175074183976" cy="0.9977578475336323" r="0.07513486030193747">
      <stop offset="0.0" stop-color="rgb(22, 23, 13)" stop-opacity="1.0"/>
      <stop offset="1.0" stop-color="rgb(13, 7, 0)" stop-opacity="0.7921952605247498"/>
    </radialGradient>
    <radialGradient id="shape_18_fill" cx="0.3293768545994065" cy="0.7556053811659192" r="0.06617211022079875">
      <stop offset="0.0" stop-color="rgb(83, 108, 65)" stop-opacity="1.0"/>
      <stop offset="1.0" stop-color="rgb(112, 140, 58)" stop-opacity="0.9633594155311584"/>
    </radialGradient>
    <radialGradient id="shape_19_fill" cx="0.3516320474777448" cy="0.9977578475336323" r="0.06617211022079875">
      <stop offset="0.0" stop-color="rgb(95, 135, 39)" stop-opacity="1.0"/>
      <stop offset="1.0" stop-color="rgb(149, 220, 3)" stop-opacity="0.767964780330658"/>
    </radialGradient>
    <radialGradient id="shape_20_fill" cx="0.0830860534124629" cy="0.9977578475336323" r="0.06792919147615971">
      <stop offset="0.0" stop-color="rgb(49, 52, 66)" stop-opacity="1.0"/>
      <stop offset="1.0" stop-color="rgb(8, 6, 45)" stop-opacity="0.4620106518268585"/>
    </radialGradient>
    <radialGradient id="shape_21_fill" cx="0.29821958456973297" cy="0.9977578475336323" r="0.06792919147615971">
      <stop offset="0.0" stop-color="rgb(33, 40, 17)" stop-opacity="1.0"/>
      <stop offset="1.0" stop-color="rgb(33, 44, 0)" stop-opacity="0.6461707949638367"/>
    </radialGradient>
    <radialGradient id="shape_22_fill" cx="0.35643383444947374" cy="0.4436637638930248" r="0.06591698394684833">
      <stop offset="2.5393249e-05" stop-color="rgb(224, 252, 0)" stop-opacity="0.631446361541748"/>
      <stop offset="0.43178412" stop-color="rgb(157, 195, 36)" stop-opacity="0.9121067523956299"/>
    </radialGradient>
    <radialGradient id="shape_23_fill" cx="0.6454005934718101" cy="0.1412556053811659" r="0.06617211022079875">
      <stop offset="0.0" stop-color="rgb(46, 38, 13)" stop-opacity="1.0"/>
      <stop offset="1.0" stop-color="rgb(50, 28, 0)" stop-opacity="0.8425847291946411"/>
    </radialGradient>
    <radialGradient id="shape_24_fill" cx="0.24925732258873098" cy="0.48430544592339897" r="0.06617138010811735">
      <stop offset="0.0" stop-color="rgb(201, 209, 206)" stop-opacity="1.0"/>
      <stop offset="0.9766002" stop-color="rgb(255, 255, 255)" stop-opacity="0.6031640768051147"/>
    </radialGradient>
    <radialGradient id="shape_25_fill" cx="0.6320474777448071" cy="0.9977578475336323" r="0.06617211022079875">
      <stop offset="0.0" stop-color="rgb(35, 28, 8)" stop-opacity="1.0"/>
      <stop offset="1.0" stop-color="rgb(37, 11, 0)" stop-opacity="0.6022409200668335"/>
    </radialGradient>
    <radialGradient id="shape_26_fill" cx="0.15414520399506793" cy="0.3207086811151205" r="0.06604698362265567">
      <stop offset="0.11989507" stop-color="rgb(198, 211, 155)" stop-opacity="1.0"/>
      <stop offset="0.58338064" stop-color="rgb(115, 114, 253)" stop-opacity="0.0"/>
    </radialGradient>
    <radialGradient id="shape_27_fill" cx="0.15410647972401242" cy="0.3208032787648017" r="0.06604505929465818">
      <stop offset="0.0" stop-color="rgb(192, 205, 0)" stop-opacity="1.0"/>
      <stop offset="0.49375948" stop-color="rgb(78, 72, 48)" stop-opacity="0.597281277179718"/>
    </radialGradient>
    <radialGradient id="shape_28_fill" cx="0.038444326610169" cy="0.01862468420122771" r="0.06786364546869204">
      <stop offset="0.13408677" stop-color="rgb(0, 26, 130)" stop-opacity="1.0"/>
      <stop offset="0.71062315" stop-color="rgb(3, 28, 155)" stop-opacity="0.7803540229797363"/>
    </radialGradient>
    <radialGradient id="shape_29_fill" cx="0.33976258863681147" cy="0.6659192825112108" r="0.06617211022079875">
      <stop offset="0.0" stop-color="rgb(90, 117, 55)" stop-opacity="1.0"/>
      <stop offset="1.0" stop-color="rgb(117, 150, 32)" stop-opacity="0.9099335074424744"/>
    </radialGradient>
    <radialGradient id="shape_30_fill" cx="0.04023545998140329" cy="0.01799567184106117" r="0.06781742763802276">
      <stop offset="0.28538036" stop-color="rgb(49, 77, 61)" stop-opacity="0.9259739518165588"/>
      <stop offset="0.97944516" stop-color="rgb(42, 52, 38)" stop-opacity="0.6755895018577576"/>
    </radialGradient>
    <radialGradient id="shape_31_fill" cx="0.12314540059347182" cy="0.9977578475336323" r="0.06617211022079875">
      <stop offset="0.0" stop-color="rgb(95, 103, 98)" stop-opacity="1.0"/>
      <stop offset="1.0" stop-color="rgb(146, 136, 127)" stop-opacity="0.7708971500396729"/>
    </radialGradient>
    <radialGradient id="shape_32_fill" cx="0.4035608308605341" cy="0.984304932735426" r="0.06617211022079875">
      <stop offset="0.0" stop-color="rgb(126, 155, 63)" stop-opacity="1.0"/>
      <stop offset="1.0" stop-color="rgb(158, 142, 27)" stop-opacity="0.9268205761909485"/>
    </radialGradient>
    <radialGradient id="shape_33_fill" cx="0.3249258160237389" cy="0.6053811659192825" r="0.06617211022079875">
      <stop offset="0.0" stop-color="rgb(93, 124, 71)" stop-opacity="1.0"/>
      <stop offset="1.0" stop-color="rgb(123, 155, 45)" stop-opacity="0.9505329728126526"/>
    </radialGradient>
    <radialGradient id="shape_34_fill" cx="0.6468842729970327" cy="0.531390134529148" r="0.06617211022079875">
      <stop offset="0.0" stop-color="rgb(54, 47, 24)" stop-opacity="1.0"/>
      <stop offset="1.0" stop-color="rgb(60, 28, 13)" stop-opacity="0.543458104133606"/>
    </radialGradient>
    <radialGradient id="shape_35_fill" cx="0.14472318473838558" cy="0.23747978723637192" r="0.06771135754684313">
      <stop offset="0.029946547" stop-color="rgb(174, 251, 54)" stop-opacity="0.2006637305021286"/>
      <stop offset="0.56436455" stop-color="rgb(140, 115, 76)" stop-opacity="0.6516101956367493"/>
    </radialGradient>
    <radialGradient id="shape_36_fill" cx="0.2878338278931751" cy="0.9977578475336323" r="0.06617211022079875">
      <stop offset="0.0" stop-color="rgb(80, 96, 53)" stop-opacity="1.0"/>
      <stop offset="1.0" stop-color="rgb(54, 53, 16)" stop-opacity="0.8715452551841736"/>
    </radialGradient>
    <radialGradient id="shape_37_fill" cx="0.129080118694362" cy="0.9977578475336323" r="0.06617211022079875">
      <stop offset="0.0" stop-color="rgb(87, 97, 81)" stop-opacity="1.0"/>
      <stop offset="1.0" stop-color="rgb(79, 90, 64)" stop-opacity="0.6512970328330994"/>
    </radialGradient>
    <radialGradient id="shape_38_fill" cx="0.33892324204260943" cy="0.5607740119968294" r="0.0666785763703751">
      <stop offset="0.7501424" stop-color="rgb(85, 119, 14)" stop-opacity="0.8941736817359924"/>
      <stop offset="0.6022501" stop-color="rgb(176, 255, 75)" stop-opacity="0.8378834128379822"/>
    </radialGradient>
    <radialGradient id="shape_39_fill" cx="0.40059347181008903" cy="0.9641255605381166" r="0.06617211022079875">
      <stop offset="0.0" stop-color="rgb(138, 168, 60)" stop-opacity="1.0"/>
      <stop offset="1.0" stop-color="rgb(228, 255, 82)" stop-opacity="1.0"/>
    </radialGradient>
    <radialGradient id="shape_40_fill" cx="0.6149628409999768" cy="0.8804788632243203" r="0.06823179771355423">
      <stop offset="0.33460483" stop-color="rgb(160, 150, 124)" stop-opacity="0.5864357352256775"/>
      <stop offset="0.49910688" stop-color="rgb(0, 5, 69)" stop-opacity="1.0"/>
    </radialGradient>
    <radialGradient id="shape_41_fill" cx="0.6454005934718101" cy="0.08744394618834081" r="0.06617211022079875">
      <stop offset="0.0" stop-color="rgb(58, 48, 21)" stop-opacity="1.0"/>
      <stop offset="1.0" stop-color="rgb(90, 61, 13)" stop-opacity="0.9729976058006287"/>
    </radialGradient>
    <radialGradient id="shape_42_fill" cx="0.5845697329376854" cy="0.6188340807174888" r="0.06617211022079875">
      <stop offset="0.0" stop-color="rgb(62, 59, 56)" stop-opacity="1.0"/>
      <stop offset="1.0" stop-color="rgb(31, 27, 75)" stop-opacity="0.6278008222579956"/>
    </radialGradient>
    <radialGradient id="shape_43_fill" cx="0.3559238648909843" cy="0.5034896440035559" r="0.06823432197910388">
      <stop offset="0.27634406" stop-color="rgb(132, 176, 56)" stop-opacity="0.9868111610412598"/>
      <stop offset="0.5376725" stop-color="rgb(210, 255, 27)" stop-opacity="0.8862451314926147"/>
    </radialGradient>
    <radialGradient id="shape_44_fill" cx="0.5934718100890207" cy="0.9977578475336323" r="0.06617211022079875">
      <stop offset="0.0" stop-color="rgb(89, 61, 18)" stop-opacity="1.0"/>
      <stop offset="1.0" stop-color="rgb(167, 82, 0)" stop-opacity="0.7600789666175842"/>
    </radialGradient>
    <radialGradient id="shape_45_fill" cx="0.612759643916914" cy="0.04035874439461883" r="0.06617211022079875">
      <stop offset="0.0" stop-color="rgb(157, 136, 123)" stop-opacity="1.0"/>
      <stop offset="1.0" stop-color="rgb(255, 230, 210)" stop-opacity="1.0"/>
    </radialGradient>
    <radialGradient id="shape_46_fill" cx="0.28635014836795253" cy="0.9977578475336323" r="0.06617211022079875">
      <stop offset="0.0" stop-color="rgb(82, 99, 55)" stop-opacity="1.0"/>
      <stop offset="1.0" stop-color="rgb(96, 114, 21)" stop-opacity="0.5256059169769287"/>
    </radialGradient>
    <radialGradient id="shape_47_fill" cx="0.28635014836795253" cy="0.8183856502242153" r="0.06617211022079875">
      <stop offset="0.0" stop-color="rgb(166, 189, 197)" stop-opacity="1.0"/>
      <stop offset="1.0" stop-color="rgb(255, 255, 255)" stop-opacity="0.458156943321228"/>
    </radialGradient>
    <radialGradient id="shape_48_fill" cx="0.40801186943620177" cy="0.9977578475336323" r="0.06617211022079875">
      <stop offset="0.0" stop-color="rgb(107, 135, 68)" stop-opacity="1.0"/>
      <stop offset="1.0" stop-color="rgb(133, 151, 54)" stop-opacity="1.0"/>
    </radialGradient>
    <radialGradient id="shape_49_fill" cx="0.19287833827893175" cy="0.3991031390134529" r="0.06617211022079875">
      <stop offset="0.0" stop-color="rgb(92, 100, 54)" stop-opacity="1.0"/>
      <stop offset="1.0" stop-color="rgb(73, 52, 8)" stop-opacity="0.5495992302894592"/>
    </radialGradient>
    <radialGradient id="shape_50_fill" cx="0.6439169139465876" cy="0.7376681614349776" r="0.06617211022079875">
      <stop offset="0.0" stop-color="rgb(65, 56, 25)" stop-opacity="1.0"/>
      <stop offset="1.0" stop-color="rgb(154, 194, 79)" stop-opacity="0.42221617698669434"/>
    </radialGradient>
    <radialGradient id="shape_51_fill" cx="0.5845697329376854" cy="0.6322869955156951" r="0.06617211022079875">
      <stop offset="0.0" stop-color="rgb(75, 68, 60)" stop-opacity="1.0"/>
      <stop offset="1.0" stop-color="rgb(137, 108, 87)" stop-opacity="0.7752723097801208"/>
    </radialGradient>
    <radialGradient id="shape_52_fill" cx="0.2997032640949555" cy="0.6031390134529148" r="0.06617211022079875">
      <stop offset="0.0" stop-color="rgb(107, 158, 118)" stop-opacity="1.0"/>
      <stop offset="1.0" stop-color="rgb(192, 255, 243)" stop-opacity="0.5810486078262329"/>
    </radialGradient>
    <radialGradient id="shape_53_fill" cx="0.6097922848664689" cy="0.45067264573991034" r="0.06617211022079875">
      <stop offset="0.0" stop-color="rgb(38, 39, 27)" stop-opacity="1.0"/>
      <stop offset="1.0" stop-color="rgb(18, 11, 33)" stop-opacity="0.410562664270401"/>
    </radialGradient>
    <radialGradient id="shape_54_fill" cx="0.6335311572700296" cy="0.426009002822397" r="0.06617211022079875">
      <stop offset="0.0" stop-color="rgb(67, 49, 20)" stop-opacity="1.0"/>
      <stop offset="1.0" stop-color="rgb(122, 68, 10)" stop-opacity="0.7742403149604797"/>
    </radialGradient>
    <radialGradient id="shape_55_fill" cx="0.3707168533823257" cy="0.5988430827187851" r="0.066001377049115">
      <stop offset="0.4360183" stop-color="rgb(238, 255, 61)" stop-opacity="0.964141845703125"/>
      <stop offset="0.1609129" stop-color="rgb(199, 255, 0)" stop-opacity="0.7505339980125427"/>
    </radialGradient>
    <radialGradient id="shape_56_fill" cx="0.5489614243323442" cy="0.600896860986547" r="0.06617211022079875">
      <stop offset="0.0" stop-color="rgb(50, 62, 80)" stop-opacity="1.0"/>
      <stop offset="1.0" stop-color="rgb(23, 66, 200)" stop-opacity="0.49793553352355957"/>
    </radialGradient>
    <radialGradient id="shape_57_fill" cx="0.4094955489614243" cy="0.9035874439461884" r="0.06617211022079875">
      <stop offset="0.0" stop-color="rgb(111, 144, 47)" stop-opacity="1.0"/>
      <stop offset="1.0" stop-color="rgb(160, 208, 0)" stop-opacity="0.6535302996635437"/>
    </radialGradient>
    <radialGradient id="shape_58_fill" cx="0.5281899109792285" cy="0.9977578475336323" r="0.06617211022079875">
      <stop offset="0.0" stop-color="rgb(50, 43, 14)" stop-opacity="1.0"/>
      <stop offset="1.0" stop-color="rgb(72, 50, 0)" stop-opacity="1.0"/>
    </radialGradient>
    <radialGradient id="shape_59_fill" cx="0.5845697329376854" cy="0.7690582959641256" r="0.06617211022079875">
      <stop offset="0.0" stop-color="rgb(61, 63, 58)" stop-opacity="1.0"/>
      <stop offset="1.0" stop-color="rgb(76, 74, 98)" stop-opacity="0.7122213840484619"/>
    </radialGradient>
    <radialGradient id="shape_60_fill" cx="0.5489614243323442" cy="0.9977578475336323" r="0.06617211022079875">
      <stop offset="0.0" stop-color="rgb(140, 131, 64)" stop-opacity="1.0"/>
      <stop offset="1.0" stop-color="rgb(241, 211, 87)" stop-opacity="0.9262030124664307"/>
    </radialGradient>
    <radialGradient id="shape_61_fill" cx="0.6468568343437037" cy="0.9686190344293021" r="0.06617887932751935">
      <stop offset="0.42054322" stop-color="rgb(255, 245, 50)" stop-opacity="1.0"/>
      <stop offset="0.97530085" stop-color="rgb(255, 222, 0)" stop-opacity="1.0"/>
    </radialGradient>
    <radialGradient id="shape_62_fill" cx="0.615727002967359" cy="0.3991031390134529" r="0.06617211022079875">
      <stop offset="0.0" stop-color="rgb(55, 47, 13)" stop-opacity="1.0"/>
      <stop offset="1.0" stop-color="rgb(75, 50, 0)" stop-opacity="1.0"/>
    </radialGradient>
    <radialGradient id="shape_63_fill" cx="0.6261127596439169" cy="0.7286995515695067" r="0.06617211022079875">
      <stop offset="0.0" stop-color="rgb(79, 66, 32)" stop-opacity="1.0"/>
      <stop offset="1.0" stop-color="rgb(206, 211, 98)" stop-opacity="0.6578212976455688"/>
    </radialGradient>
    <radialGradient id="shape_64_fill" cx="0.40801186943620177" cy="0.12556053811659193" r="0.06617211022079875">
      <stop offset="0.0" stop-color="rgb(76, 66, 59)" stop-opacity="1.0"/>
      <stop offset="1.0" stop-color="rgb(102, 73, 67)" stop-opacity="1.0"/>
    </radialGradient>
    <radialGradient id="shape_65_fill" cx="0.6528189910979229" cy="0.6883408071748879" r="0.06617211022079875">
      <stop offset="0.0" stop-color="rgb(121, 97, 39)" stop-opacity="1.0"/>
      <stop offset="1.0" stop-color="rgb(255, 255, 90)" stop-opacity="1.0"/>
    </radialGradient>
    <radialGradient id="shape_66_fill" cx="0.6517771825592312" cy="0.46085751110128226" r="0.06907284224422466">
      <stop offset="0.292574" stop-color="rgb(151, 185, 96)" stop-opacity="0.37806588411331177"/>
      <stop offset="0.9658249" stop-color="rgb(0, 0, 0)" stop-opacity="0.05904816836118698"/>
    </radialGradient>
    <radialGradient id="shape_67_fill" cx="0.5950938601168397" cy="0.9952205093452214" r="0.06902380017922964">
      <stop offset="0.87044996" stop-color="rgb(53, 29, 0)" stop-opacity="0.7497039437294006"/>
      <stop offset="1.0" stop-color="rgb(0, 0, 0)" stop-opacity="0.16050304472446442"/>
    </radialGradient>
    <radialGradient id="shape_68_fill" cx="0.489240380352258" cy="0.9963653975003504" r="0.06773949235412416">
      <stop offset="0.39625785" stop-color="rgb(50, 28, 12)" stop-opacity="0.6393967866897583"/>
      <stop offset="1.0" stop-color="rgb(44, 65, 58)" stop-opacity="0.27205562591552734"/>
    </radialGradient>
  </defs>
  <g>
    <path d="M -0.12621824443340302 271.21087646484375 C 26.147018432617188 268.9072570800781 35.37145233154297 270.16278076171875 45.07202911376953 272.9978942871094 C 48.092933654785156 274.5475769042969 49.36378860473633 276.42840576171875 57.105499267578125 274.485107421875 C 59.7797737121582 273.9493713378906 63.368019104003906 274.2469787597656 64.72570037841797 272.6526794433594 C 70.76961517333984 270.3744812011719 100.792236328125 271.1810607910156 116.62028503417969 271.19805908203125 C 121.08399200439453 271.24737548828125 126.22571563720703 277.193359375 124.36326599121094 282.4644775390625 C 133.3026580810547 282.55194091796875 140.1603546142578 281.5680847167969 152.28500366210938 286.95819091796875 C 185.27578735351562 282.2646789550781 185.76747131347656 282.4850769042969 206.63832092285156 287.25054931640625 C 199.87181091308594 287.9539489746094 198.12062072753906 282.12579345703125 211.2919921875 270.8851623535156 C 244.52777099609375 272.2672424316406 287.7492980957031 271.31243896484375 312.2559509277344 276.3233642578125 C 345.8863830566406 278.6607360839844 422.14764404296875 278.88250732421875 465.73388671875 275.0937805175781 C 493.10064697265625 273.4560241699219 542.60693359375 274.89398193359375 543.3108520507812 280.4056701660156 C 548.6576538085938 281.373291015625 549.904296875 276.44073486328125 565.0416259765625 273.65008544921875 C 581.05615234375 277.3041076660156 612.078369140625 283.71417236328125 612.7337646484375 284.0555114746094 C 628.9172973632812 274.39111328125 638.950439453125 274.69183349609375 667.2365112304688 274.32855224609375 C 672.7532958984375 275.5429382324219 677.800537109375 280.39697265625 678.0857543945312 285.46826171875 C 676.6039428710938 339.50921630859375 674.72802734375 391.50537109375 675.1177368164062 446.4668273925781 C 451.9151306152344 446.6697692871094 228.9889373779297 446.8115539550781 -0.46760526299476624 446.4240417480469 C -0.41408243775367737 389.1458435058594 0.27215513586997986 332.36083984375 -0.12621824443340302 271.21087646484375" stroke-width="0.0" fill="url(#shape_0_fill)"/>
    <path d="M -0.012705539353191853 271.2965087890625 C 35.933231353759766 275.3990783691406 36.5576057434082 274.5902099609375 44.340980529785156 274.56109619140625 C 48.07115936279297 267.3542785644531 59.856956481933594 266.7274475097656 77.075439453125 268.61846923828125 C 113.49637603759766 278.68035888671875 114.02619171142578 279.3109130859375 126.67134857177734 279.449951171875 C 127.79624938964844 273.4847412109375 144.66607666015625 272.29559326171875 148.38902282714844 271.2646179199219 C 185.1363525390625 270.429931640625 185.78851318359375 272.22418212890625 202.35765075683594 275.42877197265625 C 202.9561767578125 291.8733215332031 205.02407836914062 291.9698181152344 217.06182861328125 295.3890075683594 C 218.34075927734375 294.2908630371094 270.21978759765625 296.3821716308594 290.9371337890625 297.9178466796875 C 322.2859802246094 299.8354797363281 450.01300048828125 297.8951110839844 460.0619812011719 298.8204650878906 C 475.26959228515625 290.9814147949219 487.2283020019531 290.995361328125 504.01397705078125 287.4856262207031 C 509.9091491699219 287.584716796875 519.3884887695312 286.2924499511719 522.8562622070312 286.4493713378906 C 527.5043334960938 285.68414306640625 531.8504028320312 285.8934326171875 535.0333862304688 287.0626525878906 C 542.9826049804688 286.9045715332031 548.9053344726562 288.0957336425781 557.695068359375 297.0514831542969 C 576.9312133789062 288.2921142578125 579.910400390625 290.20562744140625 591.3550415039062 292.8177185058594 C 609.3532104492188 288.9073486328125 621.20654296875 287.9630126953125 634.30615234375 288.4258117675781 C 646.1661987304688 280.4090576171875 656.2745361328125 285.77056884765625 673.8128051757812 290.40679931640625 C 673.9610595703125 340.5688781738281 674.4531860351562 392.2015380859375 674.1548461914062 446.2807922363281 C 451.4774169921875 446.3905334472656 229.19664001464844 446.25439453125 -0.3076566159725189 446.2476501464844 C -0.2135799378156662 389.4035949707031 -0.2940194308757782 333.0278625488281 -0.012705539353191853 271.2965087890625" stroke-width="0.0" fill="url(#shape_1_fill)"/>
    <path d="M -0.01992305926978588 -0.25989267230033875 C 219.69313049316406 0.1040392518043518 439.478759765625 -0.45242562890052795 671.8696899414062 -0.2117922604084015 C 665.1804809570312 10.37377643585205 645.4257202148438 36.27086639404297 637.7098388671875 47.84385681152344 C 634.1307373046875 53.00880432128906 610.7035522460938 93.44983673095703 584.917236328125 84.09880828857422 C 577.6805419921875 81.73585510253906 560.2574462890625 70.38468170166016 532.336181640625 74.01327514648438 C 531.7578125 76.4825668334961 524.4849853515625 78.09014892578125 522.38037109375 72.15589904785156 C 522.6138916015625 68.82583618164062 499.5166320800781 63.75468826293945 499.5670166015625 62.67045974731445 C 492.75067138671875 62.098289489746094 486.9477233886719 61.0087776184082 484.4317932128906 68.36446380615234 C 475.179443359375 71.90437316894531 476.12744140625 75.0031509399414 477.24383544921875 83.54881286621094 C 483.5251770019531 97.14136505126953 474.7315673828125 114.22581481933594 470.77294921875 118.78241729736328 C 460.2298583984375 118.10482025146484 459.30224609375 114.07807922363281 451.16107177734375 108.61750793457031 C 435.36810302734375 107.75237274169922 411.6814880371094 102.45348358154297 410.3348693847656 104.8854751586914 C 411.1844787597656 120.01396179199219 412.2156982421875 126.0050048828125 409.5400695800781 134.20327758789062 C 406.8564758300781 142.67776489257812 397.6597595214844 141.61619567871094 391.6573486328125 136.85116577148438 C 381.7986755371094 143.98590087890625 375.5434265136719 158.08909606933594 369.6471862792969 157.32559204101562 C 368.26019287109375 160.05006408691406 366.3562927246094 163.53086853027344 362.030517578125 167.82620239257812 C 359.2960510253906 170.60362243652344 355.99822998046875 170.0713348388672 351.75146484375 175.54261779785156 C 345.45904541015625 183.06903076171875 336.56182861328125 175.707763671875 334.1770324707031 170.63333129882812 C 304.7062683105469 170.02072143554688 303.8832092285156 176.5911865234375 301.867919921875 180.77365112304688 C 303.75701904296875 188.2899169921875 304.14678955078125 191.5475616455078 307.52294921875 201.41232299804688 C 307.3912048339844 200.75888061523438 306.1246643066406 198.19888305664062 304.3881530761719 191.00619506835938 C 305.2920227050781 187.6240997314453 302.5314025878906 186.7552490234375 286.74578857421875 180.35671997070312 C 289.74603271484375 194.54446411132812 289.30108642578125 195.97093200683594 289.57611083984375 196.28114318847656 C 288.39996337890625 190.15188598632812 288.47412109375 183.33029174804688 285.1294860839844 180.14715576171875 C 272.78265380859375 182.61598205566406 270.39794921875 186.71417236328125 262.9320373535156 182.60923767089844 C 255.44224548339844 184.4099578857422 255.91708374023438 187.79495239257812 256.5318298339844 197.49737548828125 C 260.81298828125 199.4326629638672 260.5566101074219 199.99746704101562 257.739013671875 199.11317443847656 C 257.06805419921875 198.77784729003906 252.73348999023438 195.90847778320312 253.74632263183594 194.3005828857422 C 256.2126159667969 189.24659729003906 258.11822509765625 186.419189453125 253.8857879638672 171.25946044921875 C 256.62005615234375 166.27969360351562 216.4447479248047 141.75820922851562 213.96371459960938 140.13522338867188 C 185.43080139160156 128.8001708984375 195.5623321533203 102.97908782958984 191.739013671875 87.76238250732422 C 192.6317901611328 84.12452697753906 159.42579650878906 73.22547912597656 137.4850616455078 62.03850173950195 C 112.56376647949219 39.39352035522461 69.91607666015625 55.07328796386719 37.87965774536133 61.47709274291992 C 20.17230796813965 70.08592987060547 8.327818870544434 69.44776916503906 -0.707448422908783 69.59345245361328 C 0.3418303430080414 43.958133697509766 -0.3314551115036011 22.56187629699707 -0.01992305926978588 -0.25989267230033875" stroke-width="0.0" fill="url(#shape_2_fill)"/>
    <path d="M 86.67720031738281 63.39020538330078 C 88.9271469116211 68.78202819824219 92.4362564086914 68.73844146728516 93.45613098144531 70.09463500976562 C 90.8555679321289 80.38616180419922 91.307373046875 80.73348236083984 91.1771240234375 90.05872344970703 C 96.3888931274414 85.42448425292969 97.92558288574219 86.86730194091797 103.0359115600586 87.66650390625 C 104.32862091064453 75.1546401977539 105.862548828125 73.45771026611328 108.46011352539062 73.19841003417969 C 112.16781616210938 87.66567993164062 111.10954284667969 93.64459991455078 116.35009002685547 99.38997650146484 C 116.58600616455078 100.06106567382812 116.2541275024414 108.69564819335938 115.50806427001953 115.37975311279297 C 124.54545593261719 115.25028991699219 128.7229766845703 115.53032684326172 129.5025177001953 113.28874969482422 C 130.36289978027344 109.47288513183594 136.52577209472656 108.0517349243164 136.5006561279297 104.5994873046875 C 136.6166534423828 103.6833267211914 135.54129028320312 101.80266571044922 137.1197509765625 98.16436767578125 C 136.467041015625 93.26079559326172 137.48793029785156 92.88264465332031 137.41244506835938 89.15869903564453 C 137.30162048339844 84.93323516845703 138.62083435058594 84.8336410522461 139.32662963867188 86.40217590332031 C 139.93760681152344 82.54903411865234 146.67413330078125 80.71385955810547 147.97975158691406 83.4194564819336 C 148.8109130859375 93.52276611328125 149.8768310546875 94.15946197509766 151.98936462402344 99.04646301269531 C 153.46742248535156 103.01608276367188 149.92947387695312 106.90872192382812 148.82452392578125 106.705078125 C 152.71441650390625 109.92794799804688 150.6197509765625 114.16764831542969 148.54718017578125 113.47149658203125 C 154.48614501953125 112.81685638427734 157.88343811035156 122.58924865722656 157.40003967285156 123.20777893066406 C 161.4416961669922 124.94225311279297 164.98777770996094 123.43836212158203 169.6085662841797 122.64722442626953 C 174.38941955566406 119.7277603149414 175.78237915039062 121.51593017578125 177.7224578857422 122.50822448730469 C 179.32882690429688 122.68070983886719 179.94285583496094 125.42491912841797 182.70208740234375 127.76944732666016 C 183.81727600097656 130.21707153320312 182.39407348632812 133.1336212158203 183.5966796875 135.4527587890625 C 186.204345703125 135.48904418945312 187.6597137451172 142.96157836914062 188.6954803466797 145.37844848632812 C 194.85047912597656 145.59947204589844 206.77008056640625 155.0625457763672 201.4307403564453 173.48324584960938 C 205.49351501464844 175.3264923095703 205.7109832763672 178.34249877929688 205.552734375 182.3582305908203 C 212.72079467773438 181.90447998046875 214.70262145996094 197.81593322753906 212.0797882080078 204.32928466796875 C 206.6682586669922 206.96261596679688 203.3955841064453 207.75042724609375 203.1260223388672 210.265869140625 C 200.78375244140625 210.5311737060547 199.92745971679688 211.6934051513672 200.23411560058594 213.57711791992188 C 196.44300842285156 215.28158569335938 193.60580444335938 215.39675903320312 191.8951873779297 219.62693786621094 C 184.29843139648438 221.0325164794922 183.6072540283203 224.7835693359375 178.73692321777344 230.2734832763672 C 176.3443603515625 233.5654296875 180.02914428710938 239.51071166992188 180.7388153076172 243.0028839111328 C 182.37796020507812 252.0669403076172 186.2289581298828 260.7833557128906 178.83078002929688 264.7319641113281 C 173.81585693359375 268.1014404296875 148.2301788330078 268.18890380859375 136.9684600830078 269.6889953613281 C 130.7423095703125 269.0959167480469 127.2684326171875 271.3951416015625 120.16995239257812 274.2735290527344 C 109.06222534179688 276.95513916015625 73.27790832519531 276.10223388671875 73.08718872070312 269.9908752441406 C 47.682403564453125 266.7618103027344 56.5443000793457 268.5638427734375 57.44050216674805 273.60638427734375 C 47.84492874145508 276.4550476074219 0.5664299130439758 273.0881652832031 0.6885661482810974 269.99444580078125 C -4.869678020477295 222.80409240722656 -3.5907280445098877 167.89840698242188 -0.7058649063110352 119.19755554199219 C 12.025152206420898 118.99549865722656 22.17508888244629 113.87625885009766 26.320390701293945 121.89903259277344 C 28.307880401611328 128.51805114746094 36.16404724121094 128.51170349121094 41.43986892700195 131.84640502929688 C 46.9014778137207 130.91123962402344 47.757808685302734 132.81459045410156 49.23003387451172 142.2758026123047 C 50.337162017822266 147.53164672851562 61.64122009277344 148.4063720703125 62.815059661865234 146.73927307128906 C 62.150699615478516 136.7803192138672 63.030540466308594 133.89443969726562 62.404808044433594 128.31781005859375 C 68.45457458496094 126.740234375 67.52887725830078 122.8351058959961 66.29308319091797 112.51028442382812 C 68.12882995605469 111.2001953125 68.39884948730469 105.97481536865234 75.64627838134766 102.86859130859375 C 74.42296600341797 100.445556640625 78.38411712646484 90.83633422851562 77.23664855957031 85.48613739013672 C 77.0886001586914 83.98006439208984 78.29651641845703 74.65665435791016 85.54924774169922 75.58869171142578 C 82.79796600341797 70.1981430053711 84.34508514404297 67.6386947631836 86.67720031738281 63.39020538330078" stroke-width="0.0" fill="url(#shape_3_fill)"/>
    <path d="M 674.1243286132812 -0.5887035131454468 C 676.0997924804688 47.84113311767578 675.0172119140625 95.90838623046875 679.3759765625 140.31396484375 C 675.0035400390625 129.85183715820312 667.600830078125 124.90512084960938 661.5950927734375 120.3612060546875 C 660.9181518554688 119.99092864990234 655.1357421875 109.36383819580078 649.6466064453125 110.9114990234375 C 648.62060546875 112.51964569091797 644.9448852539062 149.1692657470703 642.71826171875 155.08473205566406 C 630.364501953125 154.50497436523438 626.9957275390625 142.57948303222656 627.2518920898438 138.21775817871094 C 623.0006713867188 137.36422729492188 618.8138427734375 145.30772399902344 615.41845703125 144.00245666503906 C 611.6814575195312 142.3174285888672 610.15380859375 143.34811401367188 607.7482299804688 141.10707092285156 C 608.6403198242188 138.10128784179688 611.5422973632812 132.4392852783203 606.8461303710938 120.62405395507812 C 598.0616455078125 133.50050354003906 597.47705078125 139.25204467773438 594.5309448242188 142.8645782470703 C 599.0166015625 147.8589630126953 597.6189575195312 151.5883331298828 597.5133666992188 152.6103973388672 C 588.4324340820312 157.1114959716797 586.9962768554688 163.92562866210938 579.5090942382812 172.14549255371094 C 571.6913452148438 170.33409118652344 569.9385375976562 158.86544799804688 568.94189453125 157.3887481689453 C 566.0587158203125 157.41453552246094 563.9198608398438 153.19114685058594 561.6185913085938 152.15692138671875 C 560.0938110351562 150.67312622070312 556.150390625 150.95574951171875 555.5261840820312 156.22613525390625 C 551.9437255859375 156.23275756835938 550.3657836914062 158.9342803955078 548.9049072265625 159.02450561523438 C 547.2801513671875 157.10317993164062 543.830322265625 157.17393493652344 536.1276245117188 153.92572021484375 C 531.7892456054688 154.88671875 529.9612426757812 158.57394409179688 523.7517700195312 157.35389709472656 C 518.3677978515625 160.88296508789062 520.75390625 161.74424743652344 522.7908935546875 169.8538818359375 C 517.596435546875 168.29434204101562 516.3555297851562 170.8385467529297 516.40966796875 171.5291748046875 C 511.2713623046875 173.32232666015625 509.8157043457031 175.26531982421875 505.6340637207031 174.399169921875 C 502.7956237792969 171.38796997070312 502.9625549316406 169.53155517578125 501.95977783203125 159.76443481445312 C 493.4425354003906 145.72772216796875 507.7489318847656 122.0111312866211 518.6090698242188 126.34606170654297 C 523.8287353515625 125.38565826416016 539.3151245117188 110.59253692626953 548.78125 113.00292205810547 C 557.0990600585938 110.70628356933594 557.051513671875 109.38516998291016 557.0676879882812 106.48193359375 C 559.8731689453125 108.72823333740234 564.7313232421875 102.91160583496094 570.777587890625 105.01313018798828 C 574.603515625 102.49459838867188 573.41552734375 97.45384216308594 578.9326171875 94.1614990234375 C 583.3472900390625 88.63011169433594 598.921142578125 76.77172088623047 613.9183959960938 78.3902587890625 C 617.2151489257812 73.8320541381836 645.5198364257812 52.19268035888672 644.6906127929688 35.43702697753906 C 644.9725952148438 32.44547653198242 647.9949951171875 30.388620376586914 647.6661376953125 29.545942306518555 C 646.968017578125 28.297353744506836 664.6668090820312 -3.7659003734588623 674.1243286132812 -0.5887035131454468" stroke-width="0.0" fill="url(#shape_4_fill)"/>
    <path d="M 151.6025848388672 68.51795196533203 C 152.31326293945312 69.0401611328125 186.10107421875 84.37984466552734 192.6960906982422 92.94596099853516 C 179.15956115722656 117.25358581542969 217.72366333007812 150.0576171875 220.8313751220703 154.94595336914062 C 238.87152099609375 170.0435791015625 241.9686279296875 184.1678924560547 240.81954956054688 193.86013793945312 C 238.15159606933594 193.19505310058594 236.18153381347656 186.44366455078125 236.76889038085938 184.05770874023438 C 235.67881774902344 183.58009338378906 234.15785217285156 184.29177856445312 231.0849609375 182.72203063964844 C 231.0625457763672 183.99868774414062 232.25582885742188 193.6437225341797 228.6202392578125 195.66726684570312 C 227.56324768066406 196.63453674316406 226.91989135742188 205.1385498046875 221.40431213378906 207.71446228027344 C 215.08082580566406 206.59353637695312 214.32806396484375 197.86026000976562 214.6658935546875 194.86705017089844 C 212.9606170654297 185.43601989746094 211.8978729248047 184.9420928955078 206.45851135253906 177.4259490966797 C 205.87608337402344 173.12062072753906 205.9148712158203 165.061767578125 203.77389526367188 158.54539489746094 C 206.76229858398438 153.2743377685547 194.85345458984375 144.70181274414062 193.3875274658203 141.1875 C 189.06600952148438 140.2470703125 188.793212890625 137.58314514160156 186.69976806640625 136.03167724609375 C 178.5590362548828 133.0007781982422 179.13758850097656 126.58849334716797 183.10585021972656 117.32373809814453 C 179.39047241210938 116.49142456054688 177.39813232421875 117.62982940673828 173.07525634765625 117.76860046386719 C 178.9166259765625 127.86219024658203 175.30340576171875 131.3956298828125 151.70689392089844 130.2638397216797 C 149.73683166503906 125.9501953125 151.60093688964844 103.07540893554688 153.72715759277344 95.53377532958984 C 152.86961364746094 88.92635345458984 153.4486846923828 86.2431640625 149.89816284179688 76.32943725585938 C 148.29251098632812 75.92852020263672 148.91580200195312 69.33163452148438 151.6025848388672 68.51795196533203" stroke-width="0.0" fill="url(#shape_5_fill)"/>
    <path d="M 613.02001953125 82.820068359375 C 618.6078491210938 84.16907501220703 619.6304931640625 85.8957290649414 630.7616577148438 85.83512878417969 C 636.1398315429688 86.02403259277344 637.2341918945312 87.42451477050781 641.24169921875 88.5538330078125 C 642.1495971679688 87.53919982910156 668.3049926757812 92.23717498779297 673.4668579101562 97.95740509033203 C 673.5442504882812 112.95279693603516 673.32666015625 128.54237365722656 674.53759765625 150.01319885253906 C 666.9110107421875 141.55368041992188 663.3517456054688 136.11016845703125 660.0578002929688 129.61375427246094 C 659.4041137695312 122.21075439453125 659.8003540039062 116.40788269042969 651.7756958007812 111.3064956665039 C 647.5892333984375 116.20027160644531 645.019287109375 142.34825134277344 642.2947998046875 143.15072631835938 C 643.5220336914062 144.9930877685547 642.4979248046875 148.38778686523438 643.472412109375 150.48284912109375 C 639.9559936523438 151.24000549316406 637.9412231445312 152.85182189941406 635.2234497070312 151.88661193847656 C 631.3780517578125 146.5941925048828 629.1932373046875 141.39401245117188 630.1041870117188 140.5277862548828 C 628.8932495117188 138.11129760742188 622.3502807617188 136.93519592285156 620.8983764648438 138.6126708984375 C 618.229736328125 140.55682373046875 619.3157348632812 142.3589630126953 618.6854858398438 146.08657836914062 C 614.7368774414062 144.54644775390625 613.6358642578125 143.17701721191406 610.3006591796875 143.60897827148438 C 608.5479125976562 140.40530395507812 609.5991821289062 139.243896484375 609.2354125976562 137.48387145996094 C 606.5084838867188 132.4069366455078 604.7423706054688 126.6001205444336 597.5963745117188 128.08860778808594 C 603.9872436523438 134.51133728027344 595.0496215820312 148.66162109375 591.5856323242188 156.52720642089844 C 590.625732421875 163.88450622558594 589.3244018554688 164.13243103027344 586.0551147460938 168.29098510742188 C 584.211181640625 167.09503173828125 582.1090698242188 165.1654052734375 583.966064453125 160.23561096191406 C 578.8527221679688 158.01727294921875 575.6267700195312 156.21978759765625 574.8046264648438 152.21119689941406 C 565.1278686523438 155.5599822998047 556.3424072265625 155.37725830078125 556.1823120117188 151.3516082763672 C 555.8527221679688 152.9246368408203 553.0794677734375 154.71066284179688 552.8895263671875 157.75784301757812 C 550.5938720703125 161.56275939941406 547.9905395507812 160.73117065429688 547.3549194335938 159.100830078125 C 544.3981323242188 157.00779724121094 543.0304565429688 154.92364501953125 537.0567626953125 157.78347778320312 C 534.9505004882812 158.5057830810547 531.132568359375 157.1921844482422 528.4825439453125 158.2655487060547 C 526.0208740234375 159.2349090576172 526.38232421875 162.56222534179688 525.2113647460938 165.74229431152344 C 524.5271606445312 169.4411163330078 523.5540771484375 171.56704711914062 519.0352783203125 173.0873260498047 C 511.7734069824219 177.3401336669922 505.4064025878906 170.93472290039062 490.8979797363281 165.04100036621094 C 487.0026550292969 140.6546173095703 503.32440185546875 119.92611694335938 512.94970703125 118.65383911132812 C 529.8731689453125 127.05663299560547 539.5665893554688 108.61233520507812 550.80517578125 111.6808090209961 C 555.4647216796875 109.95166778564453 560.1948852539062 109.8132553100586 563.795654296875 106.69822692871094 C 564.6305541992188 104.5346908569336 566.7638549804688 103.64236450195312 569.8441162109375 104.28821563720703 C 574.6861572265625 101.2746810913086 578.3679809570312 97.16221618652344 585.3140258789062 96.92520904541016 C 599.8224487304688 92.21037292480469 604.5496215820312 80.3292465209961 613.02001953125 82.820068359375" stroke-width="0.0" fill="url(#shape_6_fill)"/>
    <path d="M -0.05481117218732834 112.84342956542969 C 28.997434616088867 120.54568481445312 38.46411895751953 127.12187194824219 49.71363830566406 139.7576141357422 C 77.51702880859375 158.05343627929688 51.08848571777344 217.71481323242188 48.411197662353516 240.56703186035156 C 52.09946823120117 260.16973876953125 48.602638244628906 264.6379699707031 48.40702438354492 265.85003662109375 C 40.048526763916016 266.3364562988281 13.44719409942627 262.38201904296875 7.047021865844727 259.838134765625 C 4.401532173156738 211.26181030273438 -2.7749476432800293 164.83822631835938 -0.05481117218732834 112.84342956542969" stroke-width="0.0" fill="url(#shape_7_fill)"/>
    <path d="M 386.3033447265625 189.84999084472656 C 416.16680908203125 177.23435974121094 426.1610107421875 191.33892822265625 430.1551208496094 203.92642211914062 C 473.99310302734375 190.88894653320312 495.93084716796875 205.5416259765625 491.7116394042969 232.27236938476562 C 490.99127197265625 250.48472595214844 486.1988525390625 251.48658752441406 484.8443908691406 252.36920166015625 C 485.23992919921875 258.1918029785156 483.2601623535156 269.0789794921875 477.3727722167969 268.4765319824219 C 469.0430603027344 272.9302978515625 453.2210388183594 266.7112731933594 451.6227722167969 269.71124267578125 C 447.0182189941406 266.27960205078125 448.218505859375 261.2033996582031 449.0100402832031 260.1744384765625 C 439.249267578125 264.760009765625 436.51177978515625 261.3986511230469 437.43084716796875 256.8976135253906 C 426.271728515625 256.510009765625 425.9480285644531 258.09375 421.2137756347656 262.2121276855469 C 418.5284118652344 264.25030517578125 417.54095458984375 267.6243896484375 414.904296875 272.47747802734375 C 414.10308837890625 273.1685485839844 394.43975830078125 268.36376953125 392.589599609375 264.1654052734375 C 391.82501220703125 265.0986328125 389.0139465332031 263.32537841796875 386.0212097167969 263.56451416015625 C 382.1154479980469 261.944091796875 380.82159423828125 263.1779479980469 376.5429992675781 261.04132080078125 C 374.945556640625 256.3195495605469 376.15643310546875 252.45364379882812 372.7377624511719 249.21255493164062 C 359.5838623046875 243.87852478027344 374.16363525390625 195.9588623046875 378.1524658203125 179.21990966796875 C 383.4670104980469 170.6753387451172 393.8399963378906 176.82745361328125 386.3033447265625 189.84999084472656" stroke-width="0.0" fill="url(#shape_8_fill)"/>
    <path d="M 565.9285278320312 157.37506103515625 C 567.7409057617188 159.13673400878906 568.9049072265625 167.19883728027344 568.8473510742188 167.29434204101562 C 573.527587890625 169.45184326171875 573.6820678710938 170.92486572265625 577.6700439453125 174.28636169433594 C 581.931884765625 172.94320678710938 583.9734497070312 174.5652313232422 583.70703125 179.4731903076172 C 575.3404541015625 180.47747802734375 572.05419921875 225.61634826660156 577.2786865234375 226.9659423828125 C 577.8547973632812 229.99871826171875 581.2846069335938 235.656005859375 576.8515625 242.14585876464844 C 568.6394653320312 238.7884979248047 566.3279418945312 237.23377990722656 558.5171508789062 247.06268310546875 C 554.1939697265625 250.68630981445312 493.4419860839844 254.0020294189453 488.70672607421875 251.7648162841797 C 485.8520202636719 249.4310760498047 486.8620910644531 238.99855041503906 491.450927734375 229.4178009033203 C 486.4358825683594 226.25262451171875 483.18634033203125 222.28488159179688 481.5233154296875 215.79727172851562 C 476.6064758300781 209.8033905029297 479.2226867675781 205.8106689453125 482.7169494628906 205.9624481201172 C 479.97698974609375 205.32130432128906 481.28515625 198.75564575195312 487.74945068359375 198.75001525878906 C 491.8983154296875 196.1578369140625 491.8309326171875 192.4972686767578 492.9244384765625 187.85061645507812 C 490.6623229980469 174.0652618408203 491.087158203125 173.0381622314453 488.8310546875 164.25189208984375 C 504.14605712890625 163.83642578125 505.514404296875 168.0179443359375 517.3369750976562 166.86529541015625 C 523.3317260742188 169.64561462402344 524.5941772460938 167.27603149414062 526.05908203125 167.1347198486328 C 524.257568359375 160.64036560058594 530.1347045898438 155.7427520751953 533.3516235351562 158.59957885742188 C 537.6373901367188 161.8389129638672 541.393310546875 162.4578094482422 542.19384765625 163.94923400878906 C 545.2447509765625 164.05381774902344 545.930419921875 165.7362060546875 549.5703125 166.4497528076172 C 548.8583374023438 165.62728881835938 551.2071533203125 157.32627868652344 554.6686401367188 157.95513916015625 C 557.9144897460938 160.93077087402344 563.1002197265625 157.8897247314453 565.9285278320312 157.37506103515625" stroke-width="0.0" fill="url(#shape_9_fill)"/>
    <path d="M 561.3156127929688 156.25778198242188 C 566.6744995117188 153.23162841796875 571.173583984375 158.75042724609375 570.7169189453125 169.60537719726562 C 572.3890991210938 169.3979034423828 576.333251953125 169.06069946289062 579.356201171875 174.83123779296875 C 579.8497314453125 178.00645446777344 578.724853515625 187.36294555664062 576.9295654296875 191.5359344482422 C 571.2700805664062 196.7980194091797 571.9849243164062 229.9724884033203 578.0745849609375 230.9768524169922 C 576.070068359375 231.159423828125 575.6058349609375 236.83465576171875 572.0317993164062 238.04286193847656 C 559.957275390625 235.94403076171875 567.4348754882812 238.6229705810547 564.0626220703125 248.58619689941406 C 551.1475219726562 253.18609619140625 501.28509521484375 249.16050720214844 500.17987060546875 251.564208984375 C 491.1038513183594 251.80465698242188 487.93084716796875 236.91464233398438 490.9685974121094 229.901611328125 C 486.62457275390625 224.92811584472656 481.9855651855469 219.2713165283203 481.5626220703125 215.83692932128906 C 475.64996337890625 214.15438842773438 474.85986328125 212.80450439453125 467.56536865234375 198.90985107421875 C 467.30645751953125 192.6593475341797 475.1463623046875 188.7901153564453 481.4469299316406 196.23683166503906 C 489.98175048828125 196.47494506835938 494.3849792480469 184.15579223632812 496.63128662109375 182.95655822753906 C 495.51806640625 179.07020568847656 497.3722229003906 177.4666290283203 499.98150634765625 177.6103515625 C 507.814453125 179.21804809570312 516.5750732421875 181.6038055419922 520.3090209960938 174.00762939453125 C 523.1505126953125 173.29928588867188 526.4771728515625 159.1520538330078 531.4986572265625 156.5679168701172 C 537.8717041015625 156.39395141601562 538.4039916992188 160.4008331298828 541.4469604492188 165.88552856445312 C 545.728271484375 165.8256378173828 549.0244140625 167.19639587402344 551.2658081054688 165.62843322753906 C 551.1373291015625 156.09097290039062 553.1717529296875 153.03436279296875 561.3156127929688 156.25778198242188" stroke-width="0.0" fill="url(#shape_10_fill)"/>
    <path d="M 448.8353271484375 107.69898986816406 C 452.8880615234375 109.72476959228516 454.0694885253906 111.81298065185547 461.22039794921875 112.70758819580078 C 463.805419921875 116.95037841796875 469.6048583984375 116.07534790039062 476.1068420410156 115.58396911621094 C 488.40447998046875 124.52548217773438 488.8029479980469 125.2493667602539 493.578125 129.60537719726562 C 493.8869934082031 131.62673950195312 493.11517333984375 134.9369354248047 496.8351745605469 136.30313110351562 C 494.53472900390625 135.11082458496094 492.261474609375 137.29989624023438 486.8433532714844 140.02711486816406 C 483.16326904296875 136.27699279785156 481.2879333496094 137.927734375 476.7805480957031 140.3527069091797 C 468.4671630859375 140.91323852539062 467.23040771484375 139.47494506835938 466.38018798828125 134.3877716064453 C 465.25335693359375 133.49630737304688 460.67401123046875 133.5322265625 459.87811279296875 134.3584442138672 C 458.8697509765625 137.33837890625 474.9383239746094 147.5736846923828 488.5018310546875 156.46974182128906 C 476.2291259765625 176.6420135498047 475.3790588378906 177.18824768066406 471.9439697265625 181.37445068359375 C 466.806396484375 182.3578338623047 466.3906555175781 186.94606018066406 464.6956481933594 188.9922332763672 C 462.4742736816406 185.3505096435547 458.39837646484375 176.99765014648438 455.9338073730469 175.9433135986328 C 448.26806640625 179.35174560546875 447.50531005859375 182.52587890625 439.9009094238281 183.08421325683594 C 439.48779296875 183.8647003173828 435.89031982421875 195.71018981933594 434.9678649902344 197.42662048339844 C 429.541748046875 200.26930236816406 417.4802551269531 180.5897216796875 417.70904541015625 179.73451232910156 C 416.9510803222656 179.5963134765625 398.2900390625 177.6371612548828 398.2425537109375 172.55218505859375 C 393.5617370605469 170.33709716796875 390.2713317871094 176.52487182617188 380.0296936035156 174.52565002441406 C 380.3270263671875 163.39224243164062 383.39129638671875 146.03614807128906 392.48712158203125 139.0432586669922 C 397.88092041015625 137.3395233154297 399.3934326171875 129.68472290039062 401.8966064453125 121.6554946899414 C 408.3077697753906 99.3237533569336 426.4276428222656 103.89053344726562 448.8353271484375 107.69898986816406" stroke-width="0.0" fill="url(#shape_11_fill)"/>
    <path d="M 602.9393310546875 127.51610565185547 C 605.3511962890625 131.8370361328125 605.688232421875 143.92019653320312 608.143798828125 144.27841186523438 C 611.4677734375 145.1887969970703 612.0220947265625 148.373046875 615.4041137695312 152.2753448486328 C 618.2081909179688 149.84243774414062 618.4580688476562 141.88450622558594 621.2842407226562 140.92311096191406 C 623.4829711914062 137.4931182861328 625.62548828125 137.3834991455078 628.0296630859375 140.25160217285156 C 627.6676635742188 142.13336181640625 629.1865234375 144.6849822998047 629.15234375 147.1387481689453 C 632.1241455078125 149.7504425048828 631.787353515625 151.12387084960938 636.8859252929688 153.30198669433594 C 642.4827880859375 154.38601684570312 641.34326171875 160.37144470214844 645.1160888671875 169.45242309570312 C 638.4314575195312 184.3760528564453 639.5841064453125 194.58401489257812 639.9578247070312 206.53463745117188 C 642.8865356445312 218.76881408691406 646.6444702148438 232.0966339111328 642.8876342773438 245.6801300048828 C 623.3080444335938 248.5099334716797 611.0099487304688 249.00198364257812 578.63916015625 258.1968994140625 C 571.134033203125 246.78662109375 572.8038940429688 232.36058044433594 573.365234375 219.1899871826172 C 568.169677734375 209.71951293945312 572.3448486328125 168.96702575683594 583.203369140625 169.7880401611328 C 597.44970703125 163.2917938232422 599.1068725585938 144.01254272460938 599.6856079101562 142.10609436035156 C 595.91064453125 139.3690643310547 596.7606811523438 136.6075897216797 602.9393310546875 127.51610565185547" stroke-width="0.0" fill="url(#shape_12_fill)"/>
    <path d="M 409.968505859375 176.60931396484375 C 420.7903747558594 173.671142578125 432.5520324707031 212.74301147460938 428.1263732910156 220.341552734375 C 419.99676513671875 228.5432891845703 426.3756408691406 238.4200897216797 428.7214050292969 244.47132873535156 C 430.7747497558594 262.9473876953125 421.02850341796875 265.93438720703125 416.8441162109375 268.1483459472656 C 401.5482177734375 268.0342712402344 397.59844970703125 270.3657531738281 390.08837890625 267.81536865234375 C 385.4920959472656 264.617431640625 382.50360107421875 265.8043518066406 380.16168212890625 265.57763671875 C 375.78692626953125 262.9038391113281 375.6438903808594 260.34173583984375 375.1913757324219 258.3490295410156 C 376.3634948730469 255.0714874267578 375.2928161621094 254.2418975830078 374.5989074707031 253.3788299560547 C 372.7656555175781 254.28384399414062 370.4192199707031 250.7982635498047 368.82025146484375 251.70277404785156 C 359.9140625 247.69151306152344 366.2669677734375 228.79428100585938 367.83648681640625 221.1370391845703 C 369.01031494140625 218.90292358398438 372.5433349609375 202.89971923828125 381.12554931640625 203.2383575439453 C 379.4078369140625 199.93174743652344 380.4537658691406 187.25662231445312 389.9974670410156 184.7904052734375 C 391.69915771484375 176.70745849609375 392.8629150390625 176.73707580566406 409.968505859375 176.60931396484375" stroke-width="0.0" fill="url(#shape_13_fill)"/>
    <path d="M 509.0932312011719 66.89742279052734 C 512.6651611328125 66.07264709472656 521.4583129882812 70.03367614746094 523.2938842773438 74.72236633300781 C 530.7115478515625 79.40858459472656 533.6981811523438 80.01763916015625 536.7257080078125 90.22648620605469 C 539.3094482421875 90.88084411621094 544.5418701171875 90.30623626708984 545.0235595703125 91.169921875 C 545.5333862304688 92.75718688964844 556.0145263671875 97.09959411621094 561.666748046875 94.85387420654297 C 563.6994018554688 97.46450805664062 567.3504028320312 97.4994888305664 568.7381591796875 99.1552734375 C 564.6731567382812 105.13357543945312 555.6031494140625 115.66893005371094 543.6301879882812 110.88439178466797 C 541.4338989257812 111.86618041992188 539.3052368164062 114.91254425048828 534.7884521484375 118.34600067138672 C 527.6402587890625 120.311767578125 519.5904541015625 124.69219970703125 515.8284301757812 118.80615997314453 C 510.7491760253906 119.6996078491211 501.4418029785156 125.45022583007812 499.0483703613281 125.04320526123047 C 497.0926818847656 128.40345764160156 493.6788635253906 128.3629150390625 489.4761657714844 127.56053161621094 C 489.4961853027344 122.34688568115234 468.80218505859375 118.94026947021484 468.0780944824219 117.95380401611328 C 463.43682861328125 117.73509979248047 463.0218811035156 116.61259460449219 462.29803466796875 116.20217895507812 C 468.7492370605469 115.95082092285156 471.4588623046875 109.84502410888672 478.1029968261719 105.02629089355469 C 475.7431335449219 91.44181060791016 473.4584655761719 87.51425170898438 475.3531494140625 82.14503479003906 C 474.5901184082031 70.93414306640625 475.34326171875 70.3868408203125 478.5601501464844 66.53018188476562 C 478.9972839355469 64.21424102783203 482.7216796875 64.30887603759766 484.6951904296875 63.469600677490234 C 494.723876953125 63.716346740722656 501.6314392089844 61.660160064697266 509.0932312011719 66.89742279052734" stroke-width="0.0" fill="url(#shape_14_fill)"/>
    <path d="M 532.3038330078125 159.91419982910156 C 543.8253784179688 162.82395935058594 544.0919189453125 163.76856994628906 547.1016235351562 165.19534301757812 C 549.654052734375 167.6588897705078 549.5883178710938 170.2980499267578 543.8256225585938 180.23646545410156 C 541.9398803710938 189.74603271484375 536.80517578125 231.1175994873047 536.387451171875 233.4740447998047 C 540.5886840820312 237.12521362304688 540.8920288085938 250.38821411132812 515.4940795898438 252.2172088623047 C 501.860107421875 251.3203887939453 483.2626037597656 245.12193298339844 487.9678039550781 230.39443969726562 C 477.00616455078125 218.2395477294922 478.6674499511719 207.84881591796875 482.8533630371094 200.70114135742188 C 486.8093566894531 197.44314575195312 488.54156494140625 197.5689697265625 488.9469299316406 197.7851104736328 C 484.014892578125 193.61932373046875 488.17059326171875 179.93496704101562 487.9244689941406 172.7405242919922 C 486.6246337890625 168.6103057861328 488.654541015625 166.0643310546875 492.3827819824219 167.26263427734375 C 505.6612548828125 178.77516174316406 511.147216796875 184.15919494628906 522.7268676757812 172.7137451171875 C 525.5504150390625 170.95889282226562 525.5399169921875 167.30763244628906 526.9589233398438 165.09205627441406 C 526.9307250976562 160.1921844482422 528.8214721679688 158.10606384277344 532.3038330078125 159.91419982910156" stroke-width="0.0" fill="url(#shape_15_fill)"/>
    <path d="M 651.974853515625 110.19844818115234 C 653.9647827148438 110.44710540771484 663.0455322265625 121.93497467041016 660.2572631835938 129.95265197753906 C 664.7901000976562 134.63162231445312 665.0885009765625 141.67835998535156 673.3796997070312 148.3299560546875 C 676.6942138671875 179.0330352783203 673.4635009765625 211.6627655029297 674.3524169921875 258.7777404785156 C 673.202880859375 256.8031921386719 645.0198974609375 264.1778869628906 637.3012084960938 254.59217834472656 C 636.7047729492188 245.53138732910156 641.146728515625 123.59651947021484 651.974853515625 110.19844818115234" stroke-width="0.0" fill="url(#shape_16_fill)"/>
    <path d="M 600.8515625 129.8637237548828 C 603.09423828125 128.28262329101562 607.1856689453125 132.06430053710938 606.364013671875 133.9894561767578 C 608.130615234375 135.06570434570312 607.6273193359375 140.16766357421875 609.4415283203125 142.97804260253906 C 626.2203979492188 143.12954711914062 627.728515625 223.3070831298828 627.5514526367188 256.389404296875 C 593.8069458007812 261.03668212890625 577.9583740234375 253.18873596191406 579.9022216796875 236.28396606445312 C 564.3641967773438 227.25914001464844 597.5543823242188 154.30453491210938 600.8515625 129.8637237548828" stroke-width="0.0" fill="url(#shape_17_fill)"/>
    <path d="M 320.7187194824219 186.3332977294922 C 320.8316650390625 186.5137481689453 322.7420959472656 189.48785400390625 321.4085388183594 197.0809326171875 C 333.4178771972656 193.5139617919922 336.0035095214844 191.94960021972656 337.952880859375 194.95591735839844 C 341.3634033203125 199.51426696777344 346.51715087890625 197.78651428222656 353.78619384765625 195.92575073242188 C 357.8185119628906 194.60816955566406 358.551025390625 196.43270874023438 357.38372802734375 201.4730987548828 C 359.4551086425781 204.03018188476562 361.51708984375 204.22879028320312 362.6171875 208.0519561767578 C 367.251220703125 207.06942749023438 368.48248291015625 208.23439025878906 368.20770263671875 211.84141540527344 C 370.0932312011719 220.53465270996094 371.0747985839844 222.81764221191406 365.8953552246094 225.56765747070312 C 366.6689147949219 231.54586791992188 365.04534912109375 235.7701873779297 367.22247314453125 248.95570373535156 C 368.8817443847656 251.76893615722656 366.306396484375 256.2406921386719 357.99090576171875 254.76524353027344 C 354.0271911621094 255.47512817382812 330.256591796875 254.95091247558594 322.1743469238281 255.34805297851562 C 313.4082336425781 255.9925994873047 312.1880798339844 253.53433227539062 307.8058166503906 242.30490112304688 C 304.535400390625 230.12928771972656 320.92901611328125 194.3302459716797 320.7187194824219 186.3332977294922" stroke-width="0.0" fill="url(#shape_18_fill)"/>
    <path d="M 478.9725341796875 216.49815368652344 C 494.1834411621094 247.80963134765625 505.1044616699219 258.30224609375 487.7564697265625 276.71038818359375 C 470.7663879394531 279.1683044433594 444.0067443847656 261.4142150878906 442.13519287109375 261.71612548828125 C 438.63299560546875 260.6471252441406 437.12725830078125 258.2508850097656 432.5291442871094 258.10369873046875 C 429.6672668457031 258.1488037109375 427.6485595703125 257.5220031738281 428.59234619140625 254.07803344726562 C 428.9501953125 238.89854431152344 421.7748718261719 232.24496459960938 422.9353332519531 229.5534210205078 C 422.84130859375 227.65200805664062 421.31103515625 226.4431915283203 420.0525817871094 225.5590362548828 C 427.7239074707031 219.51528930664062 429.686279296875 218.8085479736328 429.07257080078125 215.393310546875 C 438.5345458984375 195.711181640625 471.6185607910156 198.82781982421875 478.9725341796875 216.49815368652344" stroke-width="0.0" fill="url(#shape_19_fill)"/>
    <path d="M 673.91650390625 -2.9323267936706543 C 675.0543823242188 32.860992431640625 674.5826416015625 64.76441955566406 674.3574829101562 97.25408935546875 C 669.7672119140625 96.0705337524414 652.2171630859375 87.33544158935547 643.7982788085938 90.0525131225586 C 638.6406860351562 89.55073547363281 638.1727905273438 85.90234375 637.5960693359375 84.49852752685547 C 625.8773803710938 84.35655212402344 619.4692993164062 93.02693939208984 608.5491333007812 86.55813598632812 C 609.5407104492188 74.7316665649414 612.9126586914062 73.8951187133789 615.0933227539062 71.9957275390625 C 622.5114135742188 68.89112854003906 649.0711059570312 25.335330963134766 648.4561767578125 22.39168357849121 C 655.8862915039062 11.896319389343262 656.2726440429688 3.615208625793457 668.1824951171875 3.9998629093170166 C 669.8008422851562 2.671942949295044 670.162353515625 1.1257387399673462 673.91650390625 -2.9323267936706543" stroke-width="0.0" fill="url(#shape_20_fill)"/>
    <path d="M 562.3094482421875 155.9835205078125 C 569.830810546875 156.56573486328125 569.8466796875 162.29971313476562 574.48828125 165.18072509765625 C 585.44580078125 168.28756713867188 575.7239990234375 231.24180603027344 577.5518188476562 240.8396453857422 C 575.8095703125 244.69602966308594 573.2628173828125 246.89442443847656 573.2550659179688 254.4665069580078 C 558.81201171875 251.40049743652344 543.0550537109375 251.37933349609375 540.0416870117188 246.24322509765625 C 544.3242797851562 244.7117156982422 540.6329345703125 164.98089599609375 555.0203247070312 157.87783813476562 C 555.5933227539062 153.41998291015625 558.6568603515625 152.86463928222656 562.3094482421875 155.9835205078125" stroke-width="0.0" fill="url(#shape_21_fill)"/>
    <path d="M 215.04734802246094 209.4903106689453 C 232.4727783203125 209.6704559326172 232.34768676757812 242.7173309326172 219.84912109375 255.7194366455078 C 211.837890625 263.3094177246094 209.9974822998047 264.6180419921875 208.88967895507812 273.5119934082031 C 205.86375427246094 275.38189697265625 206.79739379882812 277.0216064453125 207.1520538330078 280.0133056640625 C 206.98768615722656 283.1482238769531 203.96755981445312 285.3885192871094 200.40426635742188 284.9077453613281 C 200.18679809570312 283.4668884277344 190.73004150390625 272.75274658203125 187.90867614746094 265.18096923828125 C 186.5163116455078 261.52752685546875 183.72451782226562 262.12957763671875 181.5213165283203 261.8970642089844 C 180.72695922851562 260.6969909667969 179.9158935546875 260.534423828125 178.7562255859375 254.12481689453125 C 180.0534210205078 248.57781982421875 169.18319702148438 243.02699279785156 170.83128356933594 238.05026245117188 C 175.70846557617188 213.2799072265625 177.71383666992188 213.34410095214844 185.76429748535156 220.6647491455078 C 193.94154357910156 219.10665893554688 194.29141235351562 215.46839904785156 198.10687255859375 213.57705688476562 C 188.26206970214844 207.13583374023438 187.98072814941406 201.8928985595703 196.7254638671875 197.43983459472656 C 213.74253845214844 197.915283203125 214.8367919921875 200.55169677734375 215.04734802246094 209.4903106689453" stroke-width="0.0" fill="url(#shape_22_fill)"/>
    <path d="M 111.54913330078125 426.3857116699219 C 112.7238998413086 429.2770690917969 110.99786376953125 431.1869812011719 110.66741943359375 431.6225280761719 C 104.80219268798828 432.97564697265625 102.83301544189453 433.77874755859375 91.86508178710938 432.9725646972656 C 89.760009765625 435.9652099609375 95.68397521972656 446.421630859375 91.6327133178711 452.1399841308594 C 78.66380310058594 444.9972229003906 46.938175201416016 447.9271240234375 24.982627868652344 449.64532470703125 C 14.007820129394531 446.2696228027344 13.87637710571289 439.77838134765625 17.779430389404297 436.3948059082031 C 34.172760009765625 427.6707458496094 50.596622467041016 427.0103454589844 70.57987213134766 427.0831604003906 C 74.80564880371094 425.1498718261719 109.47566223144531 419.35369873046875 111.54913330078125 426.3857116699219" stroke-width="0.0" fill="url(#shape_23_fill)"/>
    <path d="M 194.36952209472656 123.1843490600586 C 199.6549530029297 124.87383270263672 210.12583923339844 144.60305786132812 214.41629028320312 144.99514770507812 C 215.57553100585938 148.1111602783203 218.513916015625 149.72222900390625 220.1754608154297 153.53379821777344 C 227.03823852539062 158.3923797607422 248.48794555664062 178.59825134277344 244.60577392578125 199.5318603515625 C 239.1940155029297 199.53977966308594 235.55172729492188 187.06863403320312 232.7033233642578 180.5572967529297 C 234.17691040039062 185.78919982910156 233.73434448242188 196.3097381591797 231.43841552734375 196.49148559570312 C 225.58729553222656 199.4016876220703 225.0492401123047 202.0252685546875 220.3969268798828 208.5804901123047 C 215.19061279296875 207.65443420410156 213.64093017578125 199.44789123535156 214.01820373535156 196.04257202148438 C 212.67434692382812 189.61557006835938 212.58709716796875 183.0541229248047 206.81825256347656 178.27394104003906 C 203.9844207763672 174.02645874023438 205.07266235351562 173.03118896484375 205.62948608398438 167.5908203125 C 202.23275756835938 147.9668731689453 200.65933227539062 147.8695831298828 192.70223999023438 144.2108917236328 C 189.17593383789062 142.28262329101562 191.0418701171875 128.3069610595703 194.36952209472656 123.1843490600586" stroke-width="0.0" fill="url(#shape_24_fill)"/>
    <path d="M 595.8449096679688 410.8548583984375 C 598.285888671875 411.737060546875 626.4330444335938 409.03924560546875 628.283935546875 415.7282409667969 C 628.1048583984375 421.0284118652344 626.8386840820312 425.1300354003906 628.9209594726562 426.6529846191406 C 630.9690551757812 428.6761169433594 635.8109130859375 427.8438415527344 638.1506958007812 437.6741638183594 C 617.3455200195312 446.7456359863281 577.4690551757812 439.8291015625 574.0814208984375 433.9289245605469 C 567.961669921875 425.856689453125 574.38671875 419.52801513671875 576.3382568359375 414.0099182128906 C 579.716796875 409.35302734375 587.1236572265625 412.7220458984375 595.8449096679688 410.8548583984375" stroke-width="0.0" fill="url(#shape_25_fill)"/>
    <path d="M 142.90945434570312 66.70450592041016 C 144.08082580566406 68.92807006835938 149.16944885253906 68.33491516113281 149.62930297851562 69.14056396484375 C 148.90521240234375 70.90103149414062 150.4608612060547 71.82561492919922 149.76475524902344 73.86625671386719 C 151.0509796142578 74.45156860351562 150.24172973632812 78.3511734008789 150.64500427246094 81.25724792480469 C 152.2535400390625 89.37193298339844 152.69281005859375 97.7578353881836 153.9392547607422 104.10188293457031 C 153.51954650878906 107.62052917480469 155.10464477539062 108.52202606201172 155.2200164794922 111.4242935180664 C 158.193603515625 123.40782928466797 155.37295532226562 133.51197814941406 150.3677520751953 133.5850830078125 C 142.96240234375 126.9383544921875 137.13107299804688 120.36141967773438 125.6886978149414 117.26761627197266 C 122.50875091552734 114.286376953125 124.57884979248047 109.67903900146484 126.83626556396484 107.05025482177734 C 128.82728576660156 106.8512954711914 128.87599182128906 105.2818832397461 132.64076232910156 104.67918395996094 C 138.96148681640625 96.45516204833984 134.87940979003906 93.11441040039062 133.3328094482422 90.07811737060547 C 134.2143096923828 88.91205596923828 139.2888946533203 87.19837951660156 140.0520782470703 85.31536102294922 C 138.1095733642578 84.74886322021484 138.73439025878906 77.64553833007812 139.50332641601562 77.47855377197266 C 143.549560546875 76.59671020507812 142.6475067138672 70.31621551513672 142.90945434570312 66.70450592041016" stroke-width="0.0" fill="url(#shape_26_fill)"/>
    <path d="M 141.57510375976562 67.95524597167969 C 149.04600524902344 67.14485931396484 149.79730224609375 68.30924987792969 148.6315460205078 76.36434173583984 C 150.9713897705078 77.7222671508789 151.27772521972656 80.37494659423828 154.12997436523438 84.7640609741211 C 150.5751495361328 91.0232925415039 154.2361602783203 93.8761215209961 151.83729553222656 104.60372924804688 C 153.29345703125 105.62899017333984 153.28094482421875 109.34456634521484 155.46478271484375 112.94872283935547 C 152.96853637695312 116.9331283569336 157.66641235351562 122.08794403076172 154.6981658935547 126.17415618896484 C 152.62945556640625 132.041015625 151.34703063964844 133.17356872558594 147.46189880371094 133.70071411132812 C 141.45314025878906 132.04112243652344 128.38714599609375 120.7699203491211 129.45199584960938 118.3279037475586 C 124.79396057128906 118.75533294677734 122.23309326171875 114.1882095336914 128.26016235351562 110.4248046875 C 123.4686279296875 108.56482696533203 124.2511215209961 105.72013854980469 133.45155334472656 107.02326965332031 C 136.4556427001953 105.6474609375 134.03749084472656 92.9605941772461 133.66732788085938 89.47136688232422 C 139.55819702148438 87.55257415771484 138.71697998046875 84.77088165283203 138.4963836669922 81.64456939697266 C 139.0783233642578 77.50703430175781 140.36526489257812 76.79568481445312 141.89816284179688 77.15164184570312 C 145.57925415039062 73.13032531738281 142.75404357910156 70.1224594116211 141.57510375976562 67.95524597167969" stroke-width="0.0" fill="url(#shape_27_fill)"/>
    <path d="M -0.31605714559555054 -0.2705100476741791 C 4.698892116546631 0.3807351291179657 9.645405769348145 -0.5251519680023193 19.6662654876709 -0.7944483757019043 C 23.492712020874023 -0.08784836530685425 23.762916564941406 2.7208056449890137 40.278507232666016 10.246671676635742 C 36.38545608520508 25.461984634399414 28.064111709594727 26.082916259765625 27.115768432617188 23.23908233642578 C 42.162200927734375 22.861528396606445 49.58891296386719 23.37677764892578 51.07761764526367 44.32133865356445 C 36.80490493774414 46.685176849365234 30.978092193603516 46.937660217285156 23.52652931213379 43.864261627197266 C 17.58820915222168 38.64628982543945 11.381229400634766 38.04054641723633 10.505302429199219 34.1751823425293 C 9.494206428527832 35.17399215698242 13.900928497314453 39.65678787231445 14.879914283752441 41.42861557006836 C 15.795794486999512 41.922454833984375 14.851197242736816 44.2585563659668 18.141080856323242 47.8935546875 C 20.067136764526367 51.07236099243164 18.753942489624023 52.30899429321289 20.478683471679688 57.122074127197266 C 20.630239486694336 63.31780242919922 14.307571411132812 65.28987121582031 8.773200035095215 61.292118072509766 C 5.496479034423828 60.88471603393555 3.5341098308563232 59.141273498535156 0.32485273480415344 59.433650970458984 C -0.31762757897377014 39.77870559692383 -0.3248625695705414 19.628297805786133 -0.31605714559555054 -0.2705100476741791" stroke-width="0.0" fill="url(#shape_28_fill)"/>
    <path d="M 299.4505920410156 197.3931884765625 C 297.5545654296875 199.23574829101562 299.989501953125 202.1524658203125 301.4538269042969 207.9370574951172 C 299.3984069824219 212.19546508789062 322.7941589355469 228.4703369140625 315.4351501464844 255.3137664794922 C 311.7987365722656 254.3086395263672 310.4969482421875 255.78477478027344 305.01617431640625 254.7850341796875 C 301.072998046875 258.18505859375 295.3537902832031 258.2073974609375 281.05950927734375 256.21343994140625 C 280.29144287109375 229.6182861328125 285.4562072753906 216.87013244628906 299.4505920410156 197.3931884765625" stroke-width="0.0" fill="url(#shape_29_fill)"/>
    <path d="M 0.003288601990789175 0.01718226820230484 C 4.469945907592773 0.44689127802848816 9.606179237365723 -0.4146921634674072 14.567327499389648 0.1294761598110199 C 15.747568130493164 0.493070125579834 16.228654861450195 5.148675441741943 16.229482650756836 8.050469398498535 C 18.920623779296875 10.824505805969238 22.00603675842285 18.890607833862305 26.97698211669922 20.771650314331055 C 27.11784553527832 22.490598678588867 24.497650146484375 26.818029403686523 24.50404167175293 31.859512329101562 C 20.320693969726562 32.129425048828125 14.39094066619873 30.641141891479492 7.176243305206299 33.98166275024414 C 9.10132122039795 35.877685546875 8.797805786132812 38.713043212890625 10.842653274536133 40.46854782104492 C 10.066757202148438 44.68975830078125 7.8766303062438965 50.61152648925781 11.55426025390625 53.897159576416016 C 17.709089279174805 51.48649597167969 19.53081512451172 52.00160217285156 18.31296157836914 58.167808532714844 C 11.223318099975586 60.29938507080078 9.491025924682617 62.63697814941406 0.21319913864135742 61.511817932128906 C -0.4174293875694275 39.96062088012695 -0.35443153977394104 19.75434684753418 0.003288601990789175 0.01718226820230484" stroke-width="0.0" fill="url(#shape_30_fill)"/>
    <path d="M 547.0689697265625 70.43740844726562 C 545.8575439453125 76.88750457763672 576.8994140625 89.3471908569336 581.5194091796875 91.4703369140625 C 580.7819213867188 92.48994445800781 577.2326049804688 93.26969146728516 576.84765625 98.18092346191406 C 573.258056640625 100.73873138427734 572.0785522460938 99.90695190429688 569.3203735351562 99.99736785888672 C 567.3010864257812 95.74664306640625 544.82763671875 96.26402282714844 538.5755004882812 88.4427490234375 C 538.5921630859375 85.4536361694336 537.6140747070312 83.24369049072266 535.6495361328125 82.46482849121094 C 534.7489624023438 79.62574005126953 528.4922485351562 79.6519546508789 527.039306640625 78.36957550048828 C 525.3085327148438 75.78844451904297 527.7735595703125 70.87498474121094 532.6808471679688 69.2486343383789 C 537.2371215820312 67.26719665527344 540.58837890625 70.88903045654297 547.0689697265625 70.43740844726562" stroke-width="0.0" fill="url(#shape_31_fill)"/>
    <path d="M 447.8049011230469 264.2205505371094 C 450.6846008300781 265.2574462890625 451.3086853027344 266.71490478515625 455.9446716308594 267.6916198730469 C 460.5113830566406 267.6551208496094 465.32232666015625 270.3759765625 469.92083740234375 273.2126770019531 C 470.4344787597656 275.630615234375 471.82598876953125 276.8921813964844 471.6768798828125 280.7648010253906 C 450.60638427734375 288.9544982910156 429.06573486328125 285.302734375 415.867919921875 284.60223388671875 C 413.40435791015625 273.91278076171875 415.1944885253906 272.346435546875 415.6669921875 268.23394775390625 C 418.1906433105469 267.2078552246094 417.7774963378906 264.806640625 419.3514404296875 263.0853271484375 C 432.68292236328125 253.9376220703125 444.90106201171875 255.43368530273438 447.8049011230469 264.2205505371094" stroke-width="0.0" fill="url(#shape_32_fill)"/>
    <path d="M 271.6593017578125 192.45013427734375 C 277.16778564453125 191.7532501220703 285.3404846191406 243.66452026367188 280.7173767089844 244.62742614746094 C 279.22076416015625 247.24427795410156 273.8353576660156 246.90133666992188 269.8540954589844 248.4971923828125 C 266.4268493652344 245.92054748535156 266.777587890625 242.02774047851562 261.1552734375 240.77005004882812 C 254.25936889648438 210.8019256591797 262.3792419433594 207.1044921875 271.6593017578125 192.45013427734375" stroke-width="0.0" fill="url(#shape_33_fill)"/>
    <path d="M 260.1641540527344 418.3141174316406 C 259.971435546875 423.7516784667969 265.5799255371094 429.92852783203125 267.5477600097656 440.14312744140625 C 262.1887512207031 441.91961669921875 261.0716552734375 446.5775451660156 254.64907836914062 447.79931640625 C 246.1830596923828 445.7259826660156 218.99981689453125 448.00823974609375 212.58517456054688 444.6835021972656 C 213.02471923828125 436.99578857421875 213.95974731445312 436.2222900390625 215.92556762695312 434.47003173828125 C 216.1722412109375 433.4100036621094 225.01284790039062 433.4209289550781 226.6005859375 430.2984313964844 C 228.6536102294922 420.01806640625 239.81077575683594 420.6466064453125 260.1641540527344 418.3141174316406" stroke-width="0.0" fill="url(#shape_34_fill)"/>
    <path d="M 106.15188598632812 69.8449935913086 C 109.46294403076172 69.89765167236328 111.7595443725586 78.91648864746094 112.07036590576172 83.86199188232422 C 117.13163757324219 85.22691345214844 117.38948059082031 110.27687072753906 117.76251220703125 110.85128784179688 C 116.84562683105469 112.75564575195312 111.81124877929688 114.50291442871094 107.09298706054688 123.10230255126953 C 104.78170013427734 117.19998168945312 96.5355224609375 118.8046646118164 91.14373779296875 112.51422882080078 C 89.34458923339844 85.44666290283203 104.57322692871094 84.43218231201172 106.15188598632812 69.8449935913086" stroke-width="0.0" fill="url(#shape_35_fill)"/>
    <path d="M 451.5141296386719 178.5887908935547 C 453.3470153808594 176.3882293701172 456.4654235839844 177.64952087402344 455.835693359375 180.20883178710938 C 456.5274658203125 180.57791137695312 456.23114013671875 184.98577880859375 456.9311828613281 185.8341522216797 C 455.6505432128906 188.57936096191406 458.597900390625 194.3301544189453 459.999267578125 204.99757385253906 C 459.38323974609375 208.4735107421875 452.177978515625 209.2738494873047 445.6009826660156 204.5771026611328 C 441.9003601074219 207.32420349121094 440.61029052734375 208.90728759765625 433.2468566894531 210.97410583496094 C 434.2138977050781 209.91273498535156 437.3998718261719 189.3831787109375 438.9873962402344 180.2275390625 C 440.37640380859375 179.84402465820312 444.1902770996094 181.01187133789062 446.5108947753906 180.5914306640625 C 447.7354431152344 179.2750701904297 450.0845642089844 179.52389526367188 451.5141296386719 178.5887908935547" stroke-width="0.0" fill="url(#shape_36_fill)"/>
    <path d="M 558.105712890625 84.70977783203125 C 562.940673828125 80.84854888916016 578.5841064453125 82.35128784179688 580.1599731445312 85.79048156738281 C 581.4991455078125 83.89292907714844 586.4129028320312 85.40879821777344 587.0639038085938 88.84870910644531 C 595.629638671875 97.99942779541016 587.1614379882812 106.46395111083984 574.387451171875 100.21330261230469 C 573.7909545898438 99.39698028564453 552.1505126953125 95.21125030517578 542.8286743164062 85.4850082397461 C 538.5939331054688 85.3667984008789 537.8018188476562 81.63438415527344 535.9562377929688 80.35809326171875 C 543.1165161132812 74.77763366699219 547.4701538085938 78.6658706665039 558.105712890625 84.70977783203125" stroke-width="0.0" fill="url(#shape_37_fill)"/>
    <path d="M 252.34397888183594 208.26446533203125 C 264.98876953125 210.94308471679688 261.6064147949219 241.50596618652344 260.5110778808594 247.91989135742188 C 259.2571105957031 254.5771026611328 250.87557983398438 254.38705444335938 248.78012084960938 258.0624694824219 C 234.2913818359375 237.55990600585938 240.56883239746094 213.16082763671875 252.34397888183594 208.26446533203125" stroke-width="0.0" fill="url(#shape_38_fill)"/>
    <path d="M 443.35430908203125 263.5904846191406 C 445.96661376953125 263.4825439453125 449.12939453125 266.6022644042969 447.7083435058594 270.0527038574219 C 444.180419921875 270.3428955078125 442.60260009765625 277.03070068359375 441.0650329589844 279.4110107421875 C 439.908447265625 285.73516845703125 423.7893371582031 284.5721130371094 418.6004638671875 276.0561828613281 C 414.8711853027344 276.6288757324219 413.01904296875 274.1264343261719 415.91241455078125 271.7008361816406 C 415.1535339355469 269.94482421875 419.23309326171875 262.2351379394531 425.9464416503906 258.21502685546875 C 427.4207458496094 256.14300537109375 437.7646179199219 258.004150390625 443.35430908203125 263.5904846191406" stroke-width="0.0" fill="url(#shape_39_fill)"/>
    <path d="M 407.7371826171875 409.7789306640625 C 408.68585205078125 409.8822021484375 416.7834777832031 419.0316467285156 413.63775634765625 424.1894226074219 C 400.6983642578125 436.14276123046875 385.1733703613281 420.25042724609375 376.6477966308594 420.8240661621094 C 371.02801513671875 417.9454040527344 371.28826904296875 416.5666809082031 372.5937194824219 410.516845703125 C 375.1184387207031 401.2275695800781 395.3583068847656 403.5105285644531 407.7371826171875 409.7789306640625" stroke-width="0.0" fill="url(#shape_40_fill)"/>
    <path d="M 66.44802856445312 427.5858154296875 C 67.41825866699219 429.1321105957031 64.90209197998047 434.8055725097656 58.523834228515625 435.9120788574219 C 58.20022201538086 437.000244140625 40.20982360839844 436.4931640625 31.76770782470703 442.7556457519531 C 29.11700439453125 442.8900146484375 26.703781127929688 444.13885498046875 17.191320419311523 443.276123046875 C 16.448545455932617 440.64825439453125 17.759281158447266 439.2051696777344 17.229990005493164 437.88995361328125 C 34.38285827636719 427.48468017578125 55.060367584228516 427.7247009277344 66.44802856445312 427.5858154296875" stroke-width="0.0" fill="url(#shape_41_fill)"/>
    <path d="M 278.3471984863281 380.9775390625 C 284.6438293457031 381.2926330566406 297.9051513671875 381.2666931152344 303.521728515625 385.0598449707031 C 297.3558349609375 394.96392822265625 299.3267517089844 400.87969970703125 294.3744201660156 404.9033508300781 C 291.7341003417969 399.60308837890625 265.29034423828125 404.90411376953125 258.4408874511719 406.1296691894531 C 249.73497009277344 404.1815490722656 247.52890014648438 393.63116455078125 250.22549438476562 382.45050048828125 C 260.8889465332031 381.1861572265625 267.47802734375 382.2550048828125 278.3471984863281 380.9775390625" stroke-width="0.0" fill="url(#shape_42_fill)"/>
    <path d="M 222.75563049316406 215.7987060546875 C 223.83941650390625 214.42501831054688 234.6049346923828 213.86282348632812 240.31472778320312 215.83909606933594 C 241.96746826171875 221.47625732421875 247.74917602539062 240.314697265625 248.47752380371094 265.49322509765625 C 247.2074737548828 271.3377685546875 239.6683807373047 271.8318176269531 210.73704528808594 271.75726318359375 C 207.40606689453125 266.3653564453125 206.9182891845703 258.98248291015625 217.1371307373047 247.96142578125 C 219.43600463867188 246.4733123779297 218.0599365234375 226.42262268066406 222.75563049316406 215.7987060546875" stroke-width="0.0" fill="url(#shape_43_fill)"/>
    <path d="M 483.8603515625 395.6612854003906 C 486.8135986328125 399.80126953125 485.8296813964844 400.9870910644531 483.5274658203125 401.1827087402344 C 473.67181396484375 407.07501220703125 451.1646423339844 406.73583984375 450.2464599609375 407.6602783203125 C 448.0566101074219 404.4151611328125 451.5887451171875 396.17218017578125 453.6062927246094 396.4793395996094 C 463.22198486328125 393.08575439453125 472.5645446777344 392.77227783203125 483.8603515625 395.6612854003906" stroke-width="0.0" fill="url(#shape_44_fill)"/>
    <path d="M 45.799922943115234 407.72509765625 C 45.31684875488281 408.538818359375 35.75626754760742 411.51080322265625 34.177852630615234 413.4929504394531 C 32.72245407104492 414.60858154296875 32.40973663330078 416.0799865722656 28.927528381347656 415.88720703125 C 27.748563766479492 417.44842529296875 25.099149703979492 417.96527099609375 21.572311401367188 420.55609130859375 C 18.005781173706055 420.1469421386719 0.29734447598457336 417.3409729003906 -0.7455108165740967 420.5133056640625 C 1.8349491357803345 419.68963623046875 -0.7578292489051819 411.15460205078125 0.6490313410758972 410.4446105957031 C 8.724982261657715 408.70843505859375 45.45613098144531 407.0011901855469 45.799922943115234 407.72509765625" stroke-width="0.0" fill="url(#shape_45_fill)"/>
    <path d="M 451.9370422363281 175.1856689453125 C 454.9146423339844 174.89723205566406 464.47119140625 198.88427734375 465.49285888671875 200.87139892578125 C 462.59124755859375 209.61769104003906 451.6933288574219 209.559814453125 449.4726867675781 206.72616577148438 C 448.3255310058594 203.2509002685547 449.0415954589844 198.3136749267578 448.84857177734375 195.30039978027344 C 447.9498291015625 194.5522918701172 447.6018371582031 192.15049743652344 448.51019287109375 188.02137756347656 C 451.0170593261719 186.65029907226562 450.7448425292969 182.9939422607422 451.9370422363281 175.1856689453125" stroke-width="0.0" fill="url(#shape_46_fill)"/>
    <path d="M 373.12127685546875 185.37844848632812 C 378.4454345703125 195.79530334472656 380.5762634277344 202.9277801513672 371.2191467285156 206.09140014648438 C 365.8646545410156 206.82444763183594 364.772216796875 204.8553924560547 362.0243225097656 204.64268493652344 C 347.5596618652344 208.687255859375 344.2208557128906 202.29786682128906 354.20501708984375 188.4506378173828 C 356.6524658203125 184.95884704589844 358.368408203125 184.4085693359375 368.09796142578125 185.44253540039062 C 368.96014404296875 183.62911987304688 372.79217529296875 183.41708374023438 373.12127685546875 185.37844848632812" stroke-width="0.0" fill="url(#shape_47_fill)"/>
    <path d="M 470.70513916015625 263.7703857421875 C 475.42108154296875 267.6089172363281 480.6957702636719 268.1300354003906 479.940673828125 284.67095947265625 C 465.35552978515625 287.5478820800781 453.12603759765625 286.1152648925781 443.7598571777344 284.9321594238281 C 439.29986572265625 282.2352600097656 439.9992980957031 276.95806884765625 441.1906433105469 276.4662780761719 C 447.7261657714844 266.7168884277344 455.5259094238281 263.810302734375 470.70513916015625 263.7703857421875" stroke-width="0.0" fill="url(#shape_48_fill)"/>
    <path d="M 177.15521240234375 117.55909729003906 C 178.24359130859375 115.6994857788086 181.8781280517578 116.27203369140625 182.69659423828125 117.31344604492188 C 184.68309020996094 120.24793243408203 183.85215759277344 122.35074615478516 184.75596618652344 122.9931869506836 C 179.6688995361328 126.8549575805664 185.91136169433594 136.53656005859375 183.0724334716797 140.14617919921875 C 181.6714324951172 146.680908203125 172.807373046875 146.03948974609375 171.83428955078125 146.64454650878906 C 171.4175567626953 126.84150695800781 170.45001220703125 124.76280975341797 177.15521240234375 117.55909729003906" stroke-width="0.0" fill="url(#shape_49_fill)"/>
    <path d="M 333.9012451171875 428.11871337890625 C 337.3033447265625 428.54351806640625 341.18902587890625 429.0668640136719 342.9737548828125 431.9781188964844 C 346.3619079589844 435.5957946777344 345.1620178222656 437.2282409667969 342.4644775390625 437.6037292480469 C 342.8515625 446.1435241699219 325.0179748535156 448.1435852050781 323.1185607910156 442.23077392578125 C 319.2929992675781 436.5159912109375 317.43780517578125 432.5471496582031 310.6924133300781 428.92303466796875 C 321.9305725097656 427.26165771484375 328.8173828125 428.501708984375 333.9012451171875 428.11871337890625" stroke-width="0.0" fill="url(#shape_50_fill)"/>
    <path d="M 301.9463195800781 389.15472412109375 C 299.8829040527344 393.4183044433594 294.57916259765625 398.5030517578125 290.292236328125 399.0635681152344 C 279.5730895996094 397.86541748046875 279.29339599609375 398.5064697265625 271.3659362792969 402.5966796875 C 271.07904052734375 401.6160888671875 269.6184997558594 398.9736633300781 271.0863037109375 397.4830627441406 C 269.9558410644531 395.5066833496094 273.0024719238281 388.06951904296875 280.2021179199219 388.3967590332031 C 283.44842529296875 386.1264343261719 287.7928161621094 391.02972412109375 301.9463195800781 389.15472412109375" stroke-width="0.0" fill="url(#shape_51_fill)"/>
    <path d="M 268.9206237792969 183.8032989501953 C 275.85888671875 195.10379028320312 277.9842224121094 207.6494140625 279.9293518066406 217.37020874023438 C 271.43121337890625 210.42767333984375 269.15203857421875 207.97557067871094 261.0057678222656 215.58358764648438 C 257.52630615234375 207.1999053955078 263.8743896484375 197.11439514160156 266.4372863769531 195.2708740234375 C 269.6575927734375 194.24913024902344 268.9638671875 191.69647216796875 268.9206237792969 183.8032989501953" stroke-width="0.0" fill="url(#shape_52_fill)"/>
    <path d="M 218.26443481445312 409.54095458984375 C 215.9169464111328 410.96820068359375 215.60000610351562 413.2524719238281 214.2420654296875 413.9634094238281 C 214.6510772705078 421.4917907714844 190.9387664794922 424.2762451171875 187.49655151367188 415.5753173828125 C 186.2633056640625 405.7472229003906 206.0657196044922 400.8414611816406 218.26443481445312 409.54095458984375" stroke-width="0.0" fill="url(#shape_53_fill)"/>
    <path d="M 205.82603454589844 424.6334533691406 C 205.52793884277344 425.2918395996094 206.135009765625 428.27386474609375 204.5791778564453 429.4739990234375 C 195.05926513671875 430.6950988769531 178.82357788085938 431.0386962890625 177.94483947753906 432.6935729980469 C 176.7323760986328 430.95208740234375 178.22006225585938 425.9532775878906 176.79417419433594 423.9013671875 C 186.06295776367188 418.559326171875 194.59384155273438 422.4905090332031 205.82603454589844 424.6334533691406" stroke-width="0.0" fill="url(#shape_54_fill)"/>
    <path d="M 269.4735412597656 246.25399780273438 C 275.4285888671875 244.86866760253906 276.668212890625 246.51254272460938 280.5907897949219 245.3931884765625 C 280.99658203125 250.9647674560547 280.3284912109375 252.4178009033203 285.2816162109375 260.8179626464844 C 263.4583435058594 257.9322509765625 262.9212951660156 257.2244873046875 253.45046997070312 260.8505859375 C 254.87916564941406 248.1763153076172 255.86495971679688 247.2289276123047 258.6233825683594 245.19729614257812 C 260.33197021484375 239.4506378173828 266.3744812011719 239.81198120117188 269.4735412597656 246.25399780273438" stroke-width="0.0" fill="url(#shape_55_fill)"/>
    <path d="M 275.4806213378906 355.1123962402344 C 278.029541015625 363.81768798828125 282.9575500488281 363.3746337890625 284.54376220703125 368.0787048339844 C 285.3738708496094 369.23583984375 285.9364318847656 371.8454895019531 285.7618408203125 380.9591979980469 C 276.1476135253906 379.2575988769531 263.27972412109375 382.2258605957031 246.158203125 382.7547302246094 C 241.56982421875 382.16021728515625 242.5834503173828 360.8956298828125 243.57716369628906 357.0957336425781 C 251.71556091308594 355.6379699707031 258.5722351074219 354.564697265625 275.4806213378906 355.1123962402344" stroke-width="0.0" fill="url(#shape_56_fill)"/>
    <path d="M 409.1357727050781 270.7621154785156 C 415.4075012207031 269.24212646484375 417.9897766113281 273.5375671386719 419.69451904296875 280.2732849121094 C 412.7480163574219 287.8835144042969 402.8523254394531 284.12200927734375 383.2389831542969 280.533935546875 C 381.3851623535156 265.994873046875 390.0695495605469 263.4674987792969 409.1357727050781 270.7621154785156" stroke-width="0.0" fill="url(#shape_57_fill)"/>
    <path d="M 632.0467529296875 351.8103942871094 C 632.9799194335938 354.8847351074219 659.5972900390625 353.6582946777344 668.6456298828125 353.8553161621094 C 668.4464721679688 358.2707214355469 662.3699951171875 360.8286437988281 660.6419067382812 356.8215026855469 C 651.4160766601562 355.8592834472656 634.2734375 360.34326171875 631.4918212890625 360.8068542480469 C 627.7755126953125 357.0941467285156 629.3215942382812 353.5749816894531 632.0467529296875 351.8103942871094" stroke-width="0.0" fill="url(#shape_58_fill)"/>
    <path d="M 341.28564453125 385.0776672363281 C 342.79132080078125 390.2821044921875 358.12628173828125 391.7909240722656 359.1852111816406 394.743896484375 C 356.5417175292969 398.40032958984375 339.41680908203125 401.98260498046875 338.4508972167969 399.5240173339844 C 335.1385803222656 399.61077880859375 333.080322265625 398.7762451171875 331.8634948730469 396.53656005859375 C 331.9862060546875 394.93994140625 330.75555419921875 393.4737243652344 332.34979248046875 390.61102294921875 C 333.1357421875 385.0738525390625 336.82208251953125 384.1885070800781 341.28564453125 385.0776672363281" stroke-width="0.0" fill="url(#shape_59_fill)"/>
    <path d="M 460.19683837890625 363.5836181640625 C 462.6360168457031 364.9602355957031 472.1444396972656 369.9335632324219 473.10760498046875 374.0476989746094 C 471.79345703125 376.1756591796875 470.3322448730469 376.8594665527344 463.0880126953125 375.9206848144531 C 458.3732604980469 377.0535888671875 457.4996337890625 377.08929443359375 452.7183837890625 370.9947509765625 C 453.1375732421875 369.50732421875 459.54241943359375 365.3592529296875 460.19683837890625 363.5836181640625" stroke-width="0.0" fill="url(#shape_60_fill)"/>
    <path d="M 435.11529541015625 432.80743408203125 C 440.1573791503906 434.2923889160156 442.4744567871094 436.4183044433594 442.011962890625 438.9166259765625 C 440.4223937988281 441.84893798828125 429.6923828125 440.5560607910156 425.77581787109375 442.468994140625 C 422.48992919921875 438.59124755859375 423.9940490722656 434.5427551269531 414.004638671875 425.7041931152344 C 428.0289001464844 429.6244812011719 431.7663879394531 434.2526550292969 435.11529541015625 432.80743408203125" stroke-width="0.0" fill="url(#shape_61_fill)"/>
    <path d="M 185.42576599121094 411.4513854980469 C 186.26393127441406 413.93170166015625 185.00848388671875 414.7928771972656 186.9241180419922 417.7452697753906 C 184.86305236816406 420.1702880859375 183.40231323242188 419.5248718261719 182.48297119140625 419.70843505859375 C 180.80508422851562 421.6509094238281 174.4148406982422 420.3260803222656 171.27146911621094 420.2210693359375 C 169.53921508789062 417.85430908203125 169.7598114013672 415.6344299316406 173.64871215820312 413.3529052734375 C 176.43617248535156 412.4704895019531 181.18792724609375 410.7013854980469 185.42576599121094 411.4513854980469" stroke-width="0.0" fill="url(#shape_62_fill)"/>
    <path d="M 332.4118957519531 418.5374755859375 C 334.8815612792969 426.1484375 329.8953857421875 427.9866027832031 327.2779235839844 426.0321044921875 C 324.59429931640625 427.7774658203125 323.0001525878906 426.73443603515625 320.66357421875 427.6148681640625 C 318.74822998046875 426.0364074707031 319.6919860839844 419.98779296875 317.848876953125 418.42352294921875 C 318.78668212890625 420.3705749511719 325.8834533691406 418.67681884765625 332.4118957519531 418.5374755859375" stroke-width="0.0" fill="url(#shape_63_fill)"/>
    <path d="M 55.38352584838867 273.2569885253906 C 56.549964904785156 269.5553283691406 66.21307373046875 269.8128356933594 66.02168273925781 278.3674621582031 C 58.5754280090332 279.36322021484375 54.0061149597168 272.7168273925781 48.062740325927734 276.31719970703125 C 49.63505172729492 272.9447326660156 52.318843841552734 272.43017578125 55.38352584838867 273.2569885253906" stroke-width="0.0" fill="url(#shape_64_fill)"/>
    <path d="M 304.4519348144531 438.8896789550781 C 304.5008544921875 437.16729736328125 305.9748229980469 436.12762451171875 313.0943908691406 437.16534423828125 C 314.7780456542969 438.8988952636719 313.1275634765625 441.5551452636719 311.375732421875 442.3126220703125 C 307.8302917480469 445.4179992675781 306.77142333984375 444.21588134765625 305.2087707519531 444.78192138671875 C 302.7918701171875 441.6556701660156 302.6890869140625 439.74310302734375 304.4519348144531 438.8896789550781" stroke-width="0.0" fill="url(#shape_65_fill)"/>
    <path d="M -0.39784854650497437 -0.37713396549224854 C 224.32763671875 -0.06496963649988174 443.8737487792969 0.4302215576171875 673.037109375 0.7355784177780151 C 673.7361450195312 152.70263671875 674.5670166015625 295.76300048828125 673.5426025390625 445.49188232421875 C 450.51556396484375 446.31494140625 230.6959991455078 446.23846435546875 0.592162013053894 445.3229064941406 C 0.2638488709926605 296.9381103515625 -0.09011408686637878 148.83746337890625 -0.39784854650497437 -0.37713396549224854" stroke-width="0.0" fill="url(#shape_66_fill)"/>
    <path d="M -0.965408205986023 -0.13924944400787354 C 222.49122619628906 -0.11816219985485077 443.4498291015625 0.3491217792034149 673.0335083007812 0.1472175121307373 C 673.8386840820312 152.89578247070312 674.6182250976562 295.1255187988281 673.2719116210938 445.38751220703125 C 450.7038879394531 446.3979797363281 230.84439086914062 446.2913513183594 0.7172417044639587 445.2259521484375 C 0.19469396770000458 296.9576110839844 -0.22381186485290527 148.7105255126953 -0.965408205986023 -0.13924944400787354" stroke-width="0.0" fill="url(#shape_67_fill)"/>
    <path d="M -0.6271867156028748 -0.1684095710515976 C 222.677001953125 -0.09427330642938614 442.5445556640625 0.4785630404949188 673.0398559570312 -0.15194162726402283 C 673.8335571289062 152.880859375 674.6184692382812 295.13604736328125 673.27783203125 445.3907470703125 C 450.7383728027344 446.3997497558594 230.89871215820312 446.2897033691406 1.2708261013031006 445.201904296875 C 0.5135330557823181 295.55206298828125 0.06982451677322388 148.4888458251953 -0.6271867156028748 -0.1684095710515976" stroke-width="0.0" fill="url(#shape_68_fill)"/>
  </g>
</svg>
