<?xml version="1.0" ?>
<svg xmlns="http://www.w3.org/2000/svg" version="1.1" width="674" height="446">
  <defs>
    <radialGradient id="shape_0_fill" cx="0.5315204020423776" cy="0.739759641912486" r="0.28187746676210124">
      <stop offset="0.71167046" stop-color="rgb(158, 169, 0)" stop-opacity="0.8373680114746094"/>
      <stop offset="1.0" stop-color="rgb(48, 42, 0)" stop-opacity="0.9874593615531921"/>
    </radialGradient>
    <radialGradient id="shape_1_fill" cx="0.5331909451357335" cy="0.7434359152755395" r="0.20667529459876902">
      <stop offset="0.3795063" stop-color="rgb(67, 61, 74)" stop-opacity="0.7503849267959595"/>
      <stop offset="0.9992959" stop-color="rgb(35, 8, 0)" stop-opacity="0.6065453290939331"/>
    </radialGradient>
    <radialGradient id="shape_2_fill" cx="0.09792273546892387" cy="0.7376672719091578" r="0.22062588021026522">
      <stop offset="0.0020321347" stop-color="rgb(47, 108, 188)" stop-opacity="0.8783654570579529"/>
      <stop offset="0.9827131" stop-color="rgb(3, 89, 255)" stop-opacity="0.9001667499542236"/>
    </radialGradient>
    <radialGradient id="shape_3_fill" cx="0.2782485916635757" cy="0.21504861463880326" r="0.1316921675594341">
      <stop offset="0.40376282" stop-color="rgb(127, 173, 0)" stop-opacity="0.7688635587692261"/>
      <stop offset="1.0" stop-color="rgb(35, 31, 0)" stop-opacity="0.9292227029800415"/>
    </radialGradient>
    <radialGradient id="shape_4_fill" cx="0.1543026706231454" cy="0.9977578475336323" r="0.10288926755639141">
      <stop offset="0.0" stop-color="rgb(81, 79, 86)" stop-opacity="1.0"/>
      <stop offset="1.0" stop-color="rgb(51, 42, 66)" stop-opacity="0.8571441173553467"/>
    </radialGradient>
    <radialGradient id="shape_5_fill" cx="0.14807964290992442" cy="0.23997249517740155" r="0.11810664960821587">
      <stop offset="0.0" stop-color="rgb(255, 255, 255)" stop-opacity="0.6465655565261841"/>
      <stop offset="0.5626593" stop-color="rgb(255, 255, 255)" stop-opacity="0.5124059915542603"/>
    </radialGradient>
    <radialGradient id="shape_6_fill" cx="0.18397626112759644" cy="0.9977578475336323" r="0.0754974885934892">
      <stop offset="0.0" stop-color="rgb(93, 90, 94)" stop-opacity="1.0"/>
      <stop offset="1.0" stop-color="rgb(146, 126, 132)" stop-opacity="0.8889999985694885"/>
    </radialGradient>
    <radialGradient id="shape_7_fill" cx="0.2893175074183976" cy="0.05829596412556054" r="0.08666390552011372">
      <stop offset="0.0" stop-color="rgb(55, 66, 29)" stop-opacity="1.0"/>
      <stop offset="1.0" stop-color="rgb(119, 129, 55)" stop-opacity="0.5755783915519714"/>
    </radialGradient>
    <radialGradient id="shape_8_fill" cx="0.3382789091115889" cy="0.9439461883408071" r="0.06756690277190167">
      <stop offset="0.0" stop-color="rgb(91, 124, 45)" stop-opacity="1.0"/>
      <stop offset="1.0" stop-color="rgb(89, 143, 9)" stop-opacity="0.567824125289917"/>
    </radialGradient>
    <radialGradient id="shape_9_fill" cx="0.30712166172106825" cy="0.9977578475336323" r="0.0730758406641929">
      <stop offset="0.0" stop-color="rgb(38, 48, 20)" stop-opacity="1.0"/>
      <stop offset="1.0" stop-color="rgb(34, 27, 51)" stop-opacity="1.0"/>
    </radialGradient>
    <radialGradient id="shape_10_fill" cx="0.3056379821958457" cy="0.9977578475336323" r="0.06792919147615971">
      <stop offset="0.0" stop-color="rgb(39, 49, 21)" stop-opacity="1.0"/>
      <stop offset="1.0" stop-color="rgb(32, 7, 0)" stop-opacity="0.6502447724342346"/>
    </radialGradient>
    <radialGradient id="shape_11_fill" cx="0.21810089020771514" cy="0.968609865470852" r="0.06792919147615971">
      <stop offset="0.0" stop-color="rgb(138, 135, 129)" stop-opacity="1.0"/>
      <stop offset="1.0" stop-color="rgb(122, 77, 52)" stop-opacity="0.4217550754547119"/>
    </radialGradient>
    <radialGradient id="shape_12_fill" cx="0.29080118694362017" cy="0.9977578475336323" r="0.07480746985189285">
      <stop offset="0.0" stop-color="rgb(22, 25, 13)" stop-opacity="1.0"/>
      <stop offset="1.0" stop-color="rgb(37, 31, 14)" stop-opacity="1.0"/>
    </radialGradient>
    <radialGradient id="shape_13_fill" cx="0.327893175074184" cy="0.8923766816143498" r="0.06900465877544279">
      <stop offset="0.0" stop-color="rgb(89, 117, 50)" stop-opacity="1.0"/>
      <stop offset="1.0" stop-color="rgb(92, 121, 9)" stop-opacity="0.6480259895324707"/>
    </radialGradient>
    <radialGradient id="shape_14_fill" cx="0.142433234421365" cy="0.9977578475336323" r="0.06617211022079875">
      <stop offset="0.0" stop-color="rgb(155, 150, 153)" stop-opacity="1.0"/>
      <stop offset="1.0" stop-color="rgb(255, 152, 147)" stop-opacity="0.2260109931230545"/>
    </radialGradient>
    <radialGradient id="shape_15_fill" cx="0.31008902077151335" cy="0.9977578475336323" r="0.06683642786405207">
      <stop offset="0.0" stop-color="rgb(43, 55, 23)" stop-opacity="1.0"/>
      <stop offset="1.0" stop-color="rgb(61, 66, 21)" stop-opacity="0.8743748068809509"/>
    </radialGradient>
    <radialGradient id="shape_16_fill" cx="0.27299703264094954" cy="0.9977578475336323" r="0.08110449363640579">
      <stop offset="0.0" stop-color="rgb(31, 35, 19)" stop-opacity="1.0"/>
      <stop offset="1.0" stop-color="rgb(30, 24, 0)" stop-opacity="0.944786787033081"/>
    </radialGradient>
    <radialGradient id="shape_17_fill" cx="0.2893175074183976" cy="0.9977578475336323" r="0.07513486030193747">
      <stop offset="0.0" stop-color="rgb(22, 23, 13)" stop-opacity="1.0"/>
      <stop offset="1.0" stop-color="rgb(25, 20, 0)" stop-opacity="0.8533428907394409"/>
    </radialGradient>
    <radialGradient id="shape_18_fill" cx="0.3293768545994065" cy="0.7556053811659192" r="0.06617211022079875">
      <stop offset="0.0" stop-color="rgb(83, 108, 65)" stop-opacity="1.0"/>
      <stop offset="1.0" stop-color="rgb(105, 123, 58)" stop-opacity="0.9688806533813477"/>
    </radialGradient>
    <radialGradient id="shape_19_fill" cx="0.3516320474777448" cy="0.9977578475336323" r="0.06617211022079875">
      <stop offset="0.0" stop-color="rgb(95, 135, 39)" stop-opacity="1.0"/>
      <stop offset="1.0" stop-color="rgb(127, 184, 0)" stop-opacity="0.6365675926208496"/>
    </radialGradient>
    <radialGradient id="shape_20_fill" cx="0.0830860534124629" cy="0.9977578475336323" r="0.06792919147615971">
      <stop offset="0.0" stop-color="rgb(49, 52, 66)" stop-opacity="1.0"/>
      <stop offset="1.0" stop-color="rgb(43, 28, 64)" stop-opacity="0.44354718923568726"/>
    </radialGradient>
    <radialGradient id="shape_21_fill" cx="0.29821958456973297" cy="0.9977578475336323" r="0.06792919147615971">
      <stop offset="0.0" stop-color="rgb(33, 40, 17)" stop-opacity="1.0"/>
      <stop offset="1.0" stop-color="rgb(48, 62, 0)" stop-opacity="0.7211998701095581"/>
    </radialGradient>
    <radialGradient id="shape_22_fill" cx="0.3563326600751113" cy="0.44372438849889645" r="0.06594546966099951">
      <stop offset="0.52384716" stop-color="rgb(107, 134, 37)" stop-opacity="0.9797990322113037"/>
      <stop offset="0.38891584" stop-color="rgb(145, 173, 40)" stop-opacity="0.9101987481117249"/>
    </radialGradient>
    <radialGradient id="shape_23_fill" cx="0.6454005934718101" cy="0.1412556053811659" r="0.06617211022079875">
      <stop offset="0.0" stop-color="rgb(46, 38, 13)" stop-opacity="1.0"/>
      <stop offset="1.0" stop-color="rgb(54, 28, 0)" stop-opacity="0.8888839483261108"/>
    </radialGradient>
    <radialGradient id="shape_24_fill" cx="0.2492550586734398" cy="0.4843076355254169" r="0.06616971047059012">
      <stop offset="0.0" stop-color="rgb(205, 213, 206)" stop-opacity="1.0"/>
      <stop offset="0.92454517" stop-color="rgb(255, 255, 255)" stop-opacity="0.34527918696403503"/>
    </radialGradient>
    <radialGradient id="shape_25_fill" cx="0.6320474777448071" cy="0.9977578475336323" r="0.06617211022079875">
      <stop offset="0.0" stop-color="rgb(35, 28, 8)" stop-opacity="1.0"/>
      <stop offset="1.0" stop-color="rgb(38, 14, 0)" stop-opacity="0.6770984530448914"/>
    </radialGradient>
    <radialGradient id="shape_26_fill" cx="0.15414520399506793" cy="0.3207086811151205" r="0.06604698362265567">
      <stop offset="0.11989566" stop-color="rgb(198, 211, 155)" stop-opacity="1.0"/>
      <stop offset="0.58338004" stop-color="rgb(165, 141, 104)" stop-opacity="0.32964587211608887"/>
    </radialGradient>
    <radialGradient id="shape_27_fill" cx="0.15410647972401242" cy="0.3208032787648017" r="0.06604505929465818">
      <stop offset="0.0" stop-color="rgb(192, 205, 0)" stop-opacity="1.0"/>
      <stop offset="0.49375948" stop-color="rgb(50, 45, 29)" stop-opacity="0.48392054438591003"/>
    </radialGradient>
    <radialGradient id="shape_28_fill" cx="0.034180295927234504" cy="0.015744821907693496" r="0.07193620834576978">
      <stop offset="0.1018829" stop-color="rgb(8, 20, 112)" stop-opacity="0.943084180355072"/>
      <stop offset="0.7959828" stop-color="rgb(9, 24, 154)" stop-opacity="0.7683557271957397"/>
    </radialGradient>
    <radialGradient id="shape_29_fill" cx="0.33976258863681147" cy="0.6659192825112108" r="0.06617211022079875">
      <stop offset="0.0" stop-color="rgb(90, 117, 55)" stop-opacity="1.0"/>
      <stop offset="1.0" stop-color="rgb(106, 130, 28)" stop-opacity="0.8679187297821045"/>
    </radialGradient>
    <radialGradient id="shape_30_fill" cx="0.0389623755163538" cy="0.01605142071642683" r="0.06938457772003083">
      <stop offset="0.17662054" stop-color="rgb(50, 71, 76)" stop-opacity="1.0"/>
      <stop offset="0.9309023" stop-color="rgb(64, 64, 0)" stop-opacity="0.49663013219833374"/>
    </radialGradient>
    <radialGradient id="shape_31_fill" cx="0.12314540059347182" cy="0.9977578475336323" r="0.06617211022079875">
      <stop offset="0.0" stop-color="rgb(95, 103, 98)" stop-opacity="1.0"/>
      <stop offset="1.0" stop-color="rgb(136, 119, 109)" stop-opacity="0.7303217649459839"/>
    </radialGradient>
    <radialGradient id="shape_32_fill" cx="0.4035608308605341" cy="0.984304932735426" r="0.06617211022079875">
      <stop offset="0.0" stop-color="rgb(126, 155, 63)" stop-opacity="1.0"/>
      <stop offset="1.0" stop-color="rgb(106, 85, 16)" stop-opacity="0.6657519340515137"/>
    </radialGradient>
    <radialGradient id="shape_33_fill" cx="0.3249258160237389" cy="0.6053811659192825" r="0.06617211022079875">
      <stop offset="1.5749154e-05" stop-color="rgb(93, 124, 71)" stop-opacity="0.999808132648468"/>
      <stop offset="1.0" stop-color="rgb(124, 141, 58)" stop-opacity="1.0"/>
    </radialGradient>
    <radialGradient id="shape_34_fill" cx="0.6468842729970327" cy="0.531390134529148" r="0.06617211022079875">
      <stop offset="0.0" stop-color="rgb(54, 47, 24)" stop-opacity="1.0"/>
      <stop offset="1.0" stop-color="rgb(45, 10, 33)" stop-opacity="0.3919985294342041"/>
    </radialGradient>
    <radialGradient id="shape_35_fill" cx="0.1501953396669835" cy="0.2387355239936589" r="0.06747393509046967">
      <stop offset="0.11322443" stop-color="rgb(207, 255, 94)" stop-opacity="0.1401067078113556"/>
      <stop offset="0.53621924" stop-color="rgb(105, 72, 66)" stop-opacity="0.8333485722541809"/>
    </radialGradient>
    <radialGradient id="shape_36_fill" cx="0.2878338278931751" cy="0.9977578475336323" r="0.06617211022079875">
      <stop offset="0.0" stop-color="rgb(80, 96, 53)" stop-opacity="1.0"/>
      <stop offset="1.0" stop-color="rgb(24, 19, 0)" stop-opacity="0.7806345224380493"/>
    </radialGradient>
    <radialGradient id="shape_37_fill" cx="0.129080118694362" cy="0.9977578475336323" r="0.06617211022079875">
      <stop offset="0.0" stop-color="rgb(87, 97, 81)" stop-opacity="1.0"/>
      <stop offset="1.0" stop-color="rgb(64, 66, 58)" stop-opacity="0.6057344079017639"/>
    </radialGradient>
    <radialGradient id="shape_38_fill" cx="0.33892324204260943" cy="0.5607740119968294" r="0.0666785763703751">
      <stop offset="0.7501433" stop-color="rgb(85, 107, 28)" stop-opacity="0.9253484010696411"/>
      <stop offset="0.6022492" stop-color="rgb(164, 247, 77)" stop-opacity="0.8694640398025513"/>
    </radialGradient>
    <radialGradient id="shape_39_fill" cx="0.40059347181008903" cy="0.9641255605381166" r="0.06617211022079875">
      <stop offset="0.0" stop-color="rgb(138, 168, 60)" stop-opacity="1.0"/>
      <stop offset="1.0" stop-color="rgb(220, 255, 86)" stop-opacity="0.857866644859314"/>
    </radialGradient>
    <radialGradient id="shape_40_fill" cx="0.6107362017079702" cy="0.8750840259774384" r="0.07196778996408162">
      <stop offset="0.36770895" stop-color="rgb(158, 140, 177)" stop-opacity="0.285175621509552"/>
      <stop offset="0.5251921" stop-color="rgb(1, 7, 62)" stop-opacity="0.8232353925704956"/>
    </radialGradient>
    <radialGradient id="shape_41_fill" cx="0.6454005934718101" cy="0.08744394618834081" r="0.06617211022079875">
      <stop offset="0.0" stop-color="rgb(58, 48, 21)" stop-opacity="1.0"/>
      <stop offset="1.0" stop-color="rgb(92, 60, 24)" stop-opacity="0.9999408721923828"/>
    </radialGradient>
    <radialGradient id="shape_42_fill" cx="0.5845697329376854" cy="0.6188340807174888" r="0.06617211022079875">
      <stop offset="0.0" stop-color="rgb(62, 59, 56)" stop-opacity="1.0"/>
      <stop offset="1.0" stop-color="rgb(45, 36, 78)" stop-opacity="0.6617424488067627"/>
    </radialGradient>
    <radialGradient id="shape_43_fill" cx="0.35444509806194363" cy="0.5016863698916585" r="0.0701742370333799">
      <stop offset="0.24464779" stop-color="rgb(119, 150, 52)" stop-opacity="0.9157687425613403"/>
      <stop offset="0.6152789" stop-color="rgb(202, 253, 21)" stop-opacity="0.7301892638206482"/>
    </radialGradient>
    <radialGradient id="shape_44_fill" cx="0.5934718100890207" cy="0.9977578475336323" r="0.06617211022079875">
      <stop offset="0.0" stop-color="rgb(89, 61, 18)" stop-opacity="1.0"/>
      <stop offset="1.0" stop-color="rgb(164, 77, 5)" stop-opacity="0.6946501731872559"/>
    </radialGradient>
    <radialGradient id="shape_45_fill" cx="0.612759643916914" cy="0.04035874439461883" r="0.06617211022079875">
      <stop offset="0.0" stop-color="rgb(157, 136, 123)" stop-opacity="1.0"/>
      <stop offset="1.0" stop-color="rgb(255, 215, 202)" stop-opacity="1.0"/>
    </radialGradient>
    <radialGradient id="shape_46_fill" cx="0.28635014836795253" cy="0.9977578475336323" r="0.06617211022079875">
      <stop offset="0.0" stop-color="rgb(82, 99, 55)" stop-opacity="1.0"/>
      <stop offset="1.0" stop-color="rgb(91, 96, 33)" stop-opacity="0.5747488141059875"/>
    </radialGradient>
    <radialGradient id="shape_47_fill" cx="0.28635014836795253" cy="0.8183856502242153" r="0.06617211022079875">
      <stop offset="0.0" stop-color="rgb(166, 189, 197)" stop-opacity="1.0"/>
      <stop offset="1.0" stop-color="rgb(241, 255, 255)" stop-opacity="0.43985700607299805"/>
    </radialGradient>
    <radialGradient id="shape_48_fill" cx="0.40801186943620177" cy="0.9977578475336323" r="0.06617211022079875">
      <stop offset="0.0" stop-color="rgb(107, 135, 68)" stop-opacity="1.0"/>
      <stop offset="1.0" stop-color="rgb(126, 135, 56)" stop-opacity="1.0"/>
    </radialGradient>
    <radialGradient id="shape_49_fill" cx="0.19287833827893175" cy="0.3991031390134529" r="0.06617211022079875">
      <stop offset="0.0" stop-color="rgb(92, 100, 54)" stop-opacity="1.0"/>
      <stop offset="1.0" stop-color="rgb(51, 22, 0)" stop-opacity="0.5109838247299194"/>
    </radialGradient>
    <radialGradient id="shape_50_fill" cx="0.6439169139465876" cy="0.7376681614349776" r="0.06617211022079875">
      <stop offset="0.0" stop-color="rgb(65, 56, 25)" stop-opacity="1.0"/>
      <stop offset="1.0" stop-color="rgb(146, 169, 88)" stop-opacity="0.35807350277900696"/>
    </radialGradient>
    <radialGradient id="shape_51_fill" cx="0.5845697329376854" cy="0.6322869955156951" r="0.06617211022079875">
      <stop offset="0.0" stop-color="rgb(75, 68, 60)" stop-opacity="1.0"/>
      <stop offset="1.0" stop-color="rgb(177, 130, 104)" stop-opacity="0.48765790462493896"/>
    </radialGradient>
    <radialGradient id="shape_52_fill" cx="0.2997032640949555" cy="0.6031390134529148" r="0.06617211022079875">
      <stop offset="0.0" stop-color="rgb(107, 158, 118)" stop-opacity="1.0"/>
      <stop offset="1.0" stop-color="rgb(172, 255, 215)" stop-opacity="0.5584903359413147"/>
    </radialGradient>
    <radialGradient id="shape_53_fill" cx="0.6097922848664689" cy="0.45067264573991034" r="0.06617211022079875">
      <stop offset="0.0" stop-color="rgb(38, 39, 27)" stop-opacity="1.0"/>
      <stop offset="1.0" stop-color="rgb(16, 7, 63)" stop-opacity="0.33123892545700073"/>
    </radialGradient>
    <radialGradient id="shape_54_fill" cx="0.6335311572700296" cy="0.426009002822397" r="0.06617211022079875">
      <stop offset="0.0" stop-color="rgb(67, 49, 20)" stop-opacity="1.0"/>
      <stop offset="1.0" stop-color="rgb(170, 89, 35)" stop-opacity="0.4619118571281433"/>
    </radialGradient>
    <radialGradient id="shape_55_fill" cx="0.3707168533823257" cy="0.5988430827187851" r="0.066001377049115">
      <stop offset="0.43605936" stop-color="rgb(242, 255, 50)" stop-opacity="0.829185426235199"/>
      <stop offset="0.16089156" stop-color="rgb(231, 255, 12)" stop-opacity="0.7249208688735962"/>
    </radialGradient>
    <radialGradient id="shape_56_fill" cx="0.5489614243323442" cy="0.600896860986547" r="0.06617211022079875">
      <stop offset="0.0" stop-color="rgb(50, 62, 80)" stop-opacity="1.0"/>
      <stop offset="1.0" stop-color="rgb(32, 88, 255)" stop-opacity="0.434366375207901"/>
    </radialGradient>
    <radialGradient id="shape_57_fill" cx="0.4094955489614243" cy="0.9035874439461884" r="0.06617211022079875">
      <stop offset="0.0" stop-color="rgb(111, 144, 47)" stop-opacity="1.0"/>
      <stop offset="1.0" stop-color="rgb(211, 255, 60)" stop-opacity="0.7555843591690063"/>
    </radialGradient>
    <radialGradient id="shape_58_fill" cx="0.5281899109792285" cy="0.9977578475336323" r="0.06617211022079875">
      <stop offset="0.0" stop-color="rgb(50, 43, 14)" stop-opacity="1.0"/>
      <stop offset="1.0" stop-color="rgb(83, 57, 16)" stop-opacity="1.0"/>
    </radialGradient>
    <radialGradient id="shape_59_fill" cx="0.5845697329376854" cy="0.7690582959641256" r="0.06617211022079875">
      <stop offset="0.0" stop-color="rgb(61, 63, 58)" stop-opacity="1.0"/>
      <stop offset="1.0" stop-color="rgb(79, 70, 91)" stop-opacity="0.7108051180839539"/>
    </radialGradient>
    <radialGradient id="shape_60_fill" cx="0.5489614243323442" cy="0.9977578475336323" r="0.06617211022079875">
      <stop offset="0.0" stop-color="rgb(140, 131, 64)" stop-opacity="1.0"/>
      <stop offset="1.0" stop-color="rgb(231, 198, 92)" stop-opacity="0.8849294781684875"/>
    </radialGradient>
    <radialGradient id="shape_61_fill" cx="0.6469716601272719" cy="0.96866973740103" r="0.06610439651443979">
      <stop offset="0.463088" stop-color="rgb(249, 193, 64)" stop-opacity="0.9700453281402588"/>
      <stop offset="0.21278743" stop-color="rgb(162, 84, 68)" stop-opacity="0.46780410408973694"/>
    </radialGradient>
    <radialGradient id="shape_62_fill" cx="0.615727002967359" cy="0.3991031390134529" r="0.06617211022079875">
      <stop offset="0.0" stop-color="rgb(55, 47, 13)" stop-opacity="1.0"/>
      <stop offset="1.0" stop-color="rgb(80, 52, 5)" stop-opacity="0.9063006639480591"/>
    </radialGradient>
    <radialGradient id="shape_63_fill" cx="0.6261127596439169" cy="0.7286995515695067" r="0.06617211022079875">
      <stop offset="0.0" stop-color="rgb(79, 66, 32)" stop-opacity="1.0"/>
      <stop offset="1.0" stop-color="rgb(196, 189, 96)" stop-opacity="0.5122541785240173"/>
    </radialGradient>
    <radialGradient id="shape_64_fill" cx="0.40801186943620177" cy="0.12556053811659193" r="0.06617211022079875">
      <stop offset="0.0" stop-color="rgb(76, 66, 59)" stop-opacity="1.0"/>
      <stop offset="1.0" stop-color="rgb(143, 108, 109)" stop-opacity="1.0"/>
    </radialGradient>
    <radialGradient id="shape_65_fill" cx="0.6528189910979229" cy="0.6883408071748879" r="0.06617211022079875">
      <stop offset="0.0" stop-color="rgb(121, 97, 39)" stop-opacity="1.0"/>
      <stop offset="1.0" stop-color="rgb(255, 221, 94)" stop-opacity="1.0"/>
    </radialGradient>
    <radialGradient id="shape_66_fill" cx="0.6523463761417377" cy="0.45817470122880466" r="0.0707093303918131">
      <stop offset="0.25962105" stop-color="rgb(181, 213, 115)" stop-opacity="0.2900189161300659"/>
      <stop offset="0.7659649" stop-color="rgb(0, 14, 0)" stop-opacity="0.05113464966416359"/>
    </radialGradient>
    <radialGradient id="shape_67_fill" cx="0.5975722134643917" cy="0.9949026065022422" r="0.07069771084658116">
      <stop offset="0.83562905" stop-color="rgb(51, 29, 0)" stop-opacity="0.6486880779266357"/>
      <stop offset="1.0" stop-color="rgb(0, 21, 0)" stop-opacity="0.15193642675876617"/>
    </radialGradient>
    <radialGradient id="shape_68_fill" cx="0.4921018787236879" cy="0.997704339134319" r="0.06852305607555174">
      <stop offset="0.39582172" stop-color="rgb(43, 15, 0)" stop-opacity="0.45698609948158264"/>
      <stop offset="1.0" stop-color="rgb(29, 64, 52)" stop-opacity="0.18510852754116058"/>
    </radialGradient>
  </defs>
  <g>
    <path d="M 0.03165494650602341 271.2882385253906 C 18.222124099731445 257.5356140136719 45.4055061340332 259.6579284667969 46.57277297973633 271.2510070800781 C 48.245670318603516 273.15948486328125 49.33369064331055 276.1855773925781 57.125247955322266 274.6054992675781 C 58.14638900756836 273.7154846191406 62.52338409423828 273.7993469238281 62.66184616088867 269.24786376953125 C 68.327392578125 267.9692687988281 100.28326416015625 269.3690185546875 116.70455169677734 269.7291564941406 C 119.62725830078125 271.5357971191406 125.12230682373047 278.16387939453125 126.75797271728516 282.3927307128906 C 134.91270446777344 282.7683410644531 147.19436645507812 280.68780517578125 171.54342651367188 290.11090087890625 C 185.3899383544922 283.1387023925781 185.90646362304688 281.5069274902344 206.73922729492188 287.28521728515625 C 200.51812744140625 287.0041198730469 198.34991455078125 280.9830017089844 210.87652587890625 268.1252136230469 C 249.79949951171875 265.7160339355469 293.6202392578125 263.4269104003906 312.27911376953125 272.5672607421875 C 349.6086730957031 273.9388427734375 426.35076904296875 274.8379821777344 478.61083984375 264.1590576171875 C 510.5121154785156 259.165283203125 548.507080078125 260.0650329589844 548.1780395507812 274.1217346191406 C 547.2218017578125 274.06414794921875 547.2216186523438 262.984130859375 578.59033203125 262.9173278808594 C 596.5780029296875 267.35650634765625 612.2542724609375 279.5386962890625 612.5118408203125 280.06683349609375 C 612.656005859375 265.54022216796875 624.5112915039062 265.6231994628906 673.3924560546875 265.7381591796875 C 676.7722778320312 272.2906799316406 679.37158203125 278.8263854980469 678.4677124023438 284.9035339355469 C 676.6203002929688 339.5295104980469 674.7125244140625 391.48760986328125 675.1177368164062 446.4668273925781 C 451.9151306152344 446.6697692871094 228.9889373779297 446.8115539550781 -0.43555259704589844 446.4240417480469 C -0.5151508450508118 389.1412353515625 -0.5524640083312988 332.3100280761719 0.03165494650602341 271.2882385253906" stroke-width="0.0" fill="url(#shape_0_fill)"/>
    <path d="M -0.28014129400253296 271.05804443359375 C 35.934043884277344 275.3912048339844 36.5576057434082 274.5834045410156 44.04814147949219 273.3506164550781 C 45.11221694946289 266.18817138671875 58.59695816040039 265.877197265625 80.386474609375 266.8316345214844 C 113.69063568115234 278.67999267578125 114.0768051147461 279.3109130859375 128.1733856201172 279.1554870605469 C 127.7042236328125 270.2003173828125 136.38739013671875 269.5013732910156 145.08641052246094 269.6009826660156 C 185.2540740966797 268.74969482421875 186.0746307373047 268.84173583984375 205.2953338623047 272.19805908203125 C 203.6134490966797 292.12554931640625 204.30845642089844 292.3376159667969 208.778076171875 298.9433288574219 C 213.7855987548828 298.0934143066406 267.8703308105469 298.6869812011719 291.6873779296875 301.2041931152344 C 307.16046142578125 306.71728515625 442.2401123046875 304.0645446777344 460.0071105957031 304.5264892578125 C 475.3911437988281 293.0754699707031 492.25140380859375 292.5494079589844 504.6263122558594 286.94940185546875 C 515.4529418945312 289.30462646484375 521.1959228515625 286.8301696777344 523.193115234375 286.5984191894531 C 527.400634765625 285.7498474121094 531.7117919921875 286.00347900390625 534.2840576171875 287.21630859375 C 538.9324340820312 287.4831237792969 540.5388793945312 288.7821960449219 543.2086181640625 309.5897216796875 C 579.5960083007812 291.619873046875 581.6279296875 292.09759521484375 601.12255859375 298.2148742675781 C 619.3701782226562 289.3591613769531 629.0220336914062 288.1902160644531 634.0367431640625 288.5033874511719 C 637.468017578125 274.4649658203125 653.9358520507812 276.7283020019531 673.658935546875 293.5141296386719 C 674.3854370117188 339.927734375 674.5093383789062 392.0830383300781 674.1581420898438 446.2807922363281 C 451.4774169921875 446.3905334472656 229.19664001464844 446.25439453125 -0.30765825510025024 446.2476501464844 C -0.2123221606016159 389.403564453125 -0.3070130944252014 333.0137634277344 -0.28014129400253296 271.05804443359375" stroke-width="0.0" fill="url(#shape_1_fill)"/>
    <path d="M -0.019932541996240616 -0.25989267230033875 C 219.69313049316406 0.1040392518043518 439.478759765625 -0.45242562890052795 673.9862060546875 -0.07254388928413391 C 665.8956909179688 10.720850944519043 644.8875122070312 34.91029739379883 637.25439453125 49.558963775634766 C 634.2877807617188 53.15541458129883 612.1820678710938 92.01165008544922 583.7340698242188 83.75726318359375 C 577.2294311523438 81.28713989257812 564.0638427734375 72.03778076171875 532.56591796875 74.40034484863281 C 531.852783203125 79.1225814819336 527.4791259765625 80.15441131591797 522.1173095703125 72.00187683105469 C 522.6889038085938 68.92965698242188 499.30718994140625 63.93644332885742 499.0235900878906 62.595603942871094 C 493.191650390625 62.25875473022461 486.30963134765625 61.09629821777344 484.29779052734375 68.8729019165039 C 475.2635192871094 72.87561798095703 476.2685546875 76.06298065185547 476.7581481933594 81.3271713256836 C 483.6454162597656 100.50285339355469 480.0649108886719 119.91816711425781 479.60028076171875 122.67059326171875 C 460.3304443359375 116.8606948852539 459.2358703613281 114.69285583496094 450.87164306640625 108.52395629882812 C 435.4079284667969 107.46134185791016 411.77423095703125 101.58216857910156 409.29071044921875 105.56653594970703 C 413.0946350097656 121.52307891845703 419.24847412109375 128.6385498046875 413.6808776855469 139.4133758544922 C 410.5785827636719 152.68885803222656 394.6337890625 152.2685546875 394.5913391113281 135.53289794921875 C 382.48138427734375 140.13902282714844 380.9875793457031 158.3765869140625 369.87249755859375 157.71998596191406 C 366.1878662109375 156.8228759765625 363.2204284667969 157.979248046875 354.64398193359375 158.530517578125 C 348.4018859863281 163.7700653076172 345.8236389160156 165.49722290039062 347.7574462890625 171.42152404785156 C 343.85662841796875 177.50234985351562 341.08642578125 175.83697509765625 350.1044616699219 160.99508666992188 C 294.0283203125 156.80592346191406 293.3339538574219 163.31517028808594 291.82647705078125 172.60247802734375 C 305.9930114746094 185.29039001464844 304.08526611328125 189.51914978027344 307.4796447753906 201.43385314941406 C 307.51092529296875 200.64356994628906 306.3379211425781 198.15322875976562 304.7101745605469 190.05670166015625 C 304.1308898925781 185.75314331054688 302.8533020019531 184.60635375976562 291.2862854003906 171.40428161621094 C 289.84002685546875 194.56564331054688 288.9937438964844 195.9643096923828 289.3521728515625 196.2986297607422 C 289.3636474609375 189.90647888183594 291.74444580078125 181.8034210205078 290.47991943359375 167.635009765625 C 270.8468322753906 170.26939392089844 266.58642578125 176.81300354003906 261.58966064453125 173.76939392089844 C 256.48828125 183.9169921875 255.9840850830078 189.4193115234375 254.7689666748047 197.0680694580078 C 260.6340026855469 199.2564239501953 260.5220947265625 199.91615295410156 257.9713439941406 199.62608337402344 C 257.0778503417969 198.6224822998047 253.8820037841797 196.55581665039062 255.3998260498047 193.88284301757812 C 255.6776885986328 181.8677215576172 262.22021484375 180.06512451171875 262.5389099121094 162.61770629882812 C 261.766845703125 158.44610595703125 215.77850341796875 143.3876495361328 212.4222869873047 142.21617126464844 C 187.13417053222656 134.82052612304688 195.32916259765625 105.96057891845703 191.41622924804688 86.48933410644531 C 190.85707092285156 84.47473907470703 162.47840881347656 74.28086853027344 128.80880737304688 57.91387939453125 C 101.3812026977539 39.05113220214844 75.67594909667969 58.557518005371094 46.211875915527344 57.64213562011719 C 29.709625244140625 70.48799896240234 1.8644245862960815 69.95433807373047 -0.8737446665763855 69.39207458496094 C 0.34183040261268616 43.958133697509766 -0.3314551115036011 22.56187629699707 -0.019932541996240616 -0.25989267230033875" stroke-width="0.0" fill="url(#shape_2_fill)"/>
    <path d="M 87.22492218017578 58.08942794799805 C 88.96297454833984 68.81539916992188 91.6591796875 69.01127624511719 93.78401947021484 71.90583038330078 C 90.12325286865234 80.01558685302734 92.84661865234375 81.71139526367188 89.12528991699219 94.05072021484375 C 95.80079650878906 85.82234954833984 98.16352844238281 86.45069885253906 102.84391021728516 87.96604919433594 C 105.0801773071289 75.16263580322266 105.64457702636719 73.26905059814453 108.21483612060547 73.54194641113281 C 112.77912902832031 87.21868896484375 109.78177642822266 92.12940216064453 117.5508804321289 98.70527648925781 C 115.98259735107422 100.03516387939453 116.79158782958984 109.39824676513672 115.4917221069336 115.0758056640625 C 121.38360595703125 115.3637924194336 128.23760986328125 116.29498291015625 129.78224182128906 111.99513244628906 C 131.05250549316406 111.00346374511719 136.90675354003906 109.54769134521484 136.76539611816406 104.97838592529297 C 136.6867218017578 103.69388580322266 135.5914764404297 101.8880844116211 137.91860961914062 99.6390609741211 C 136.546142578125 93.28477478027344 137.5919952392578 92.93112182617188 137.71047973632812 89.83011627197266 C 137.35263061523438 85.45903015136719 138.55288696289062 84.98936462402344 140.18482971191406 88.84615325927734 C 140.7271728515625 83.36992645263672 146.7725372314453 80.34142303466797 148.45223999023438 80.7579574584961 C 148.26173400878906 93.28118896484375 149.75685119628906 94.55107879638672 152.4693603515625 99.55233001708984 C 153.94427490234375 102.67581939697266 149.876708984375 106.86274719238281 148.87548828125 106.77273559570312 C 152.34878540039062 109.50025177001953 150.0708465576172 113.95451354980469 148.22735595703125 113.22872161865234 C 154.19345092773438 112.91657257080078 158.1153564453125 122.59622955322266 157.05233764648438 123.35511779785156 C 161.05841064453125 124.84829711914062 164.7660369873047 123.42701721191406 169.70285034179688 122.80908966064453 C 174.39712524414062 119.73454284667969 175.7884063720703 121.50971984863281 177.60714721679688 122.48033905029297 C 179.3188018798828 122.72052001953125 180.0998992919922 124.9744644165039 183.6818389892578 127.26215362548828 C 183.93521118164062 130.04783630371094 182.68212890625 132.7785186767578 185.6448974609375 134.64747619628906 C 189.23731994628906 135.262939453125 189.12103271484375 137.29901123046875 188.01112365722656 144.3109893798828 C 197.38912963867188 148.36801147460938 208.81480407714844 153.6468048095703 201.55641174316406 172.64207458496094 C 205.67129516601562 177.01632690429688 206.27244567871094 179.4708251953125 205.2559356689453 181.6215057373047 C 214.06143188476562 181.04722595214844 215.24542236328125 192.93545532226562 212.37008666992188 201.27420043945312 C 204.5404052734375 205.94065856933594 202.93592834472656 206.2224578857422 203.46829223632812 210.18258666992188 C 200.4121551513672 210.41078186035156 200.38771057128906 211.8219451904297 198.90716552734375 212.98654174804688 C 196.3656768798828 215.4170379638672 192.93115234375 215.25389099121094 192.1888427734375 219.64491271972656 C 184.29119873046875 220.631103515625 183.6439971923828 224.76324462890625 178.2281494140625 230.1117706298828 C 176.41159057617188 233.4481658935547 181.4941864013672 238.04559326171875 181.18264770507812 238.60659790039062 C 181.93650817871094 251.788818359375 185.55801391601562 260.79180908203125 179.7887725830078 264.2432556152344 C 169.46437072753906 269.6619567871094 148.6388702392578 267.9983215332031 136.24072265625 269.6393737792969 C 131.39610290527344 268.8363342285156 128.9693145751953 272.27386474609375 122.76849365234375 275.5150451660156 C 109.16673278808594 276.66802978515625 73.3409423828125 275.90484619140625 72.98287963867188 270.12335205078125 C 47.746498107910156 266.79840087890625 56.589691162109375 268.5880126953125 58.12696075439453 273.4239501953125 C 48.67417907714844 276.55474853515625 1.0616170167922974 272.6434326171875 0.7668775916099548 269.9241638183594 C -6.389589309692383 225.74310302734375 -4.753316879272461 167.95301818847656 1.9735552072525024 122.25283813476562 C 10.547762870788574 117.8404769897461 21.265426635742188 113.99606323242188 26.245201110839844 121.91709899902344 C 27.6530704498291 129.9151153564453 35.83811950683594 129.12890625 42.11237335205078 131.94610595703125 C 46.154151916503906 130.33740234375 47.48215866088867 131.34130859375 49.638362884521484 142.27468872070312 C 50.48863220214844 149.63125610351562 61.08647537231445 148.40965270996094 62.73344421386719 146.2447052001953 C 62.15982437133789 136.9651641845703 63.16679763793945 134.10780334472656 62.06299591064453 128.2611083984375 C 68.23339080810547 126.63739013671875 67.62483978271484 124.34477233886719 66.25033569335938 112.6652603149414 C 68.46344757080078 111.13783264160156 68.04827117919922 104.4076919555664 75.17310333251953 101.28888702392578 C 75.11100769042969 100.5280532836914 77.73777770996094 90.10912322998047 77.3338851928711 85.90766143798828 C 77.30362701416016 83.13298034667969 77.51110076904297 75.24202728271484 85.2535171508789 75.32940673828125 C 83.13797760009766 70.25727844238281 82.68733978271484 67.54627227783203 87.22492218017578 58.08942794799805" stroke-width="0.0" fill="url(#shape_3_fill)"/>
    <path d="M 673.9713134765625 -0.5638234615325928 C 676.1160888671875 47.826377868652344 675.0172119140625 95.90823364257812 682.0206909179688 136.86306762695312 C 678.9143676757812 119.7281494140625 672.7552490234375 120.13168334960938 662.152099609375 120.1628189086914 C 660.2166137695312 119.48381042480469 654.6870727539062 109.55940246582031 650.142822265625 110.94287872314453 C 648.9295654296875 112.5466537475586 644.9469604492188 149.99049377441406 642.9129638671875 155.6760711669922 C 629.9479370117188 154.7931365966797 627.0956420898438 142.69732666015625 627.0112915039062 138.49343872070312 C 623.0316162109375 137.4613800048828 619.1915283203125 145.4199981689453 615.421630859375 144.37979125976562 C 611.6814575195312 142.3102264404297 610.1642456054688 143.31747436523438 607.8051147460938 141.0165252685547 C 608.8677368164062 137.00648498535156 613.3685913085938 132.7173614501953 605.3775024414062 115.88351440429688 C 599.3508911132812 135.58319091796875 597.7734985351562 139.61209106445312 593.4164428710938 142.54420471191406 C 598.9915771484375 145.96963500976562 598.32666015625 151.51512145996094 597.3169555664062 152.63812255859375 C 587.7998657226562 157.42868041992188 588.6647338867188 164.81369018554688 578.0902709960938 172.51055908203125 C 572.34619140625 170.16162109375 569.7406616210938 157.6994171142578 568.5320434570312 157.08102416992188 C 565.270263671875 158.27073669433594 563.456787109375 154.28456115722656 561.9253540039062 148.6586151123047 C 560.0853271484375 151.14242553710938 556.7634887695312 151.19830322265625 555.4004516601562 155.56912231445312 C 552.4236450195312 156.0939178466797 550.6021118164062 157.9051971435547 548.6201782226562 158.46670532226562 C 548.2139892578125 154.93495178222656 544.93896484375 155.07589721679688 536.030517578125 152.9235382080078 C 531.7597045898438 154.9027099609375 529.9642944335938 159.4108428955078 523.1381225585938 156.93701171875 C 519.2538452148438 160.52273559570312 520.3256225585938 162.152587890625 522.8704833984375 168.93409729003906 C 517.6307373046875 168.5175323486328 517.2835083007812 171.0567626953125 516.2496337890625 171.62132263183594 C 511.2713623046875 173.32232666015625 509.8157043457031 175.26531982421875 505.6453857421875 174.399169921875 C 502.7406005859375 171.41412353515625 503.0572204589844 169.50613403320312 502.985595703125 159.29141235351562 C 490.2381286621094 144.17274475097656 504.9665832519531 119.58401489257812 516.4308471679688 125.94132995605469 C 523.9224853515625 125.34954833984375 542.0072021484375 109.25114440917969 548.7937622070312 112.9088363647461 C 557.2020874023438 110.73065948486328 556.9969482421875 109.39863586425781 558.4139404296875 109.0783462524414 C 559.5323486328125 107.33262634277344 564.7288208007812 103.35940551757812 570.168212890625 105.11782836914062 C 574.6511840820312 102.42720794677734 573.5510864257812 97.66748046875 578.9803466796875 93.88322448730469 C 588.3458862304688 88.18245697021484 591.5613403320312 77.76017761230469 612.5582885742188 78.52800750732422 C 616.9076538085938 73.60559844970703 644.4093017578125 51.213409423828125 645.9308471679688 35.369468688964844 C 644.8983764648438 32.402225494384766 647.9713134765625 30.377029418945312 647.4859008789062 29.47023582458496 C 646.8919677734375 28.2830810546875 664.1676635742188 -4.249134540557861 673.9713134765625 -0.5638234615325928" stroke-width="0.0" fill="url(#shape_4_fill)"/>
    <path d="M 151.49359130859375 68.61662292480469 C 152.30564880371094 69.08321380615234 186.1433563232422 84.90812683105469 192.5286102294922 91.55309295654297 C 179.80393981933594 118.39822387695312 217.75546264648438 150.00453186035156 221.18429565429688 154.60511779785156 C 240.10165405273438 167.7671661376953 241.919189453125 184.4976348876953 240.7891387939453 193.86851501464844 C 238.00503540039062 193.20864868164062 236.102783203125 186.76235961914062 236.7722930908203 184.06607055664062 C 235.68814086914062 183.52874755859375 234.15444946289062 184.3124237060547 231.0550079345703 182.67160034179688 C 231.90597534179688 184.303466796875 232.0994873046875 193.2748260498047 228.6557159423828 195.66871643066406 C 227.63909912109375 196.63841247558594 227.66795349121094 205.31414794921875 221.06838989257812 207.64939880371094 C 215.08367919921875 206.57809448242188 214.28665161132812 197.8561248779297 214.5841827392578 194.99017333984375 C 212.9559326171875 185.44589233398438 211.89378356933594 184.95533752441406 206.6000518798828 177.38983154296875 C 205.86196899414062 172.6822052001953 206.16807556152344 167.9014129638672 204.20614624023438 159.42164611816406 C 205.76904296875 153.78094482421875 194.86839294433594 144.6339874267578 193.5304412841797 141.1026611328125 C 189.19544982910156 139.99124145507812 189.037109375 136.41363525390625 186.62075805664062 135.73910522460938 C 177.70993041992188 134.05235290527344 178.54574584960938 127.54667663574219 183.4134521484375 117.17744445800781 C 179.390869140625 116.41316986083984 177.40025329589844 117.6694564819336 172.99203491210938 117.77234649658203 C 178.86500549316406 127.9610824584961 177.1436004638672 131.23184204101562 152.25611877441406 130.304443359375 C 148.98989868164062 128.95985412597656 152.2141876220703 102.59684753417969 154.35301208496094 92.79613494873047 C 152.5923309326172 91.34971618652344 153.23448181152344 87.99569702148438 150.31976318359375 76.23898315429688 C 147.9626922607422 75.8920669555664 148.03436279296875 69.19967651367188 151.49359130859375 68.61662292480469" stroke-width="0.0" fill="url(#shape_5_fill)"/>
    <path d="M 614.762451171875 79.07350158691406 C 619.3673706054688 83.86483001708984 619.7296752929688 86.96383666992188 632.099365234375 85.58332824707031 C 636.004638671875 86.28562927246094 636.9772338867188 88.67303466796875 641.1561889648438 89.26025390625 C 642.182373046875 86.73494720458984 665.40966796875 92.49790954589844 675.0048828125 98.26426696777344 C 675.4066162109375 110.61923217773438 674.7958984375 125.90557098388672 674.7131958007812 151.77236938476562 C 665.7349243164062 142.71713256835938 662.5681762695312 136.80279541015625 660.339111328125 131.9595947265625 C 660.26220703125 123.36561584472656 660.7490234375 117.54016876220703 653.6412963867188 112.33212280273438 C 643.1190795898438 113.78579711914062 643.8856201171875 142.2384490966797 642.8822021484375 142.88229370117188 C 644.2799682617188 144.44444274902344 642.4507446289062 148.17669677734375 644.5537109375 150.0207061767578 C 640.1212768554688 151.07135009765625 637.9334716796875 152.78451538085938 634.2601318359375 153.19972229003906 C 631.6893310546875 146.20089721679688 629.1746215820312 141.39663696289062 630.0418090820312 140.551025390625 C 628.6826171875 137.44786071777344 621.9358520507812 136.20663452148438 621.3164672851562 139.35040283203125 C 618.5504760742188 140.66378784179688 619.4031372070312 142.45187377929688 618.35986328125 149.28619384765625 C 613.5264892578125 144.75416564941406 613.1156616210938 143.22718811035156 609.4038696289062 143.68075561523438 C 608.4653930664062 140.4076385498047 609.5241088867188 139.2412567138672 608.8228759765625 137.3656768798828 C 606.3770751953125 132.58851623535156 604.6339111328125 127.23228454589844 600.5042114257812 127.83172607421875 C 606.0076293945312 133.7751922607422 595.2747192382812 148.1400146484375 592.381591796875 153.18931579589844 C 590.4351196289062 163.7447509765625 588.8442993164062 163.90176391601562 585.8955688476562 169.12237548828125 C 584.5418701171875 167.5564422607422 584.0480346679688 166.86190795898438 589.3536376953125 153.92860412597656 C 593.1537475585938 141.3914337158203 589.5506591796875 139.91685485839844 574.8616943359375 131.8688507080078 C 573.5776977539062 157.67828369140625 557.2349243164062 157.02809143066406 555.9672241210938 151.19749450683594 C 555.8010864257812 152.87274169921875 553.06494140625 154.6967315673828 552.9613647460938 157.8485870361328 C 551.9254760742188 161.6909637451172 548.11083984375 160.8108367919922 547.3555297851562 159.32473754882812 C 544.4146118164062 156.3791046142578 542.71533203125 153.68948364257812 538.2582397460938 156.08580017089844 C 535.6947631835938 158.450927734375 530.9459228515625 157.86741638183594 529.1454467773438 158.2152557373047 C 526.5480346679688 159.52561950683594 526.7963256835938 163.35748291015625 525.6751098632812 166.80758666992188 C 524.6757202148438 169.5545654296875 523.6254272460938 171.6037139892578 519.0355834960938 173.0767822265625 C 512.3709716796875 176.33059692382812 500.89581298828125 175.840576171875 482.4298095703125 158.82127380371094 C 478.8254089355469 136.28915405273438 500.2904968261719 119.54798126220703 514.275146484375 118.3830337524414 C 528.4426879882812 127.5783920288086 541.5578002929688 107.9619369506836 548.2896118164062 111.75634002685547 C 556.3568725585938 110.94941711425781 562.9187622070312 111.4393310546875 564.2501220703125 107.03467559814453 C 564.629150390625 104.44155883789062 566.4761352539062 103.44216918945312 569.8540649414062 104.71359252929688 C 572.8619384765625 101.10550689697266 578.9683837890625 99.4317855834961 587.0800170898438 98.65644836425781 C 600.796142578125 93.45115661621094 603.0914916992188 79.9451904296875 614.762451171875 79.07350158691406" stroke-width="0.0" fill="url(#shape_6_fill)"/>
    <path d="M 0.5445138216018677 93.56280517578125 C 41.796485900878906 107.7315902709961 44.09251022338867 118.7232666015625 50.618770599365234 138.8365936279297 C 81.67310333251953 153.2664794921875 53.923622131347656 213.1143798828125 37.18461227416992 250.4210968017578 C 51.34009552001953 259.6907043457031 48.718807220458984 264.6343994140625 48.983604431152344 264.8219299316406 C 50.83248519897461 254.7757110595703 34.146339416503906 248.48504638671875 19.783924102783203 242.00698852539062 C 6.529205322265625 197.1854705810547 -10.968062400817871 175.85842895507812 0.5445138216018677 93.56280517578125" stroke-width="0.0" fill="url(#shape_7_fill)"/>
    <path d="M 384.6039733886719 197.156982421875 C 424.8866271972656 188.5647735595703 427.08056640625 189.1602325439453 429.7459411621094 204.3562469482422 C 476.9366760253906 188.23130798339844 498.53131103515625 202.57394409179688 491.26055908203125 229.655517578125 C 490.9684143066406 250.4978485107422 486.2887878417969 251.51644897460938 484.9193420410156 252.46963500976562 C 486.2958984375 259.179443359375 482.5752868652344 268.85113525390625 476.6969299316406 268.7291259765625 C 469.04290771484375 272.9302978515625 453.2210388183594 266.7112731933594 451.656982421875 269.715087890625 C 447.1875 266.28619384765625 448.4084167480469 261.2365417480469 449.1877746582031 260.15386962890625 C 439.2685241699219 264.8350524902344 436.5226745605469 261.4815979003906 437.50958251953125 256.78033447265625 C 427.0390319824219 257.0594482421875 425.71173095703125 259.9662780761719 420.98529052734375 262.0455017089844 C 418.52264404296875 264.206787109375 417.767333984375 267.7674560546875 414.9731750488281 273.6633605957031 C 414.1120910644531 271.59906005859375 392.24188232421875 269.7335510253906 392.52166748046875 264.25048828125 C 391.8140869140625 265.1695251464844 388.8392639160156 263.44647216796875 385.4111633300781 264.22210693359375 C 382.0956115722656 262.0096435546875 380.8058776855469 263.23858642578125 376.4085388183594 261.21478271484375 C 375.0780029296875 256.4313049316406 375.7389831542969 252.8149871826172 370.675537109375 251.077392578125 C 360.3166198730469 243.04685974121094 374.1237487792969 194.7935333251953 378.4667663574219 177.07801818847656 C 385.0346374511719 171.52877807617188 394.2951354980469 176.81716918945312 384.6039733886719 197.156982421875" stroke-width="0.0" fill="url(#shape_8_fill)"/>
    <path d="M 566.492431640625 157.13710021972656 C 567.9586181640625 158.97589111328125 568.125244140625 166.62057495117188 569.3426513671875 168.0155792236328 C 573.4935302734375 169.4940948486328 573.6195068359375 171.0559844970703 577.5217895507812 174.40740966796875 C 581.9307250976562 172.94601440429688 583.9710693359375 174.56983947753906 583.7080688476562 179.472412109375 C 575.3946533203125 180.47549438476562 572.2796630859375 225.61241149902344 577.52685546875 226.95896911621094 C 577.877685546875 230.00059509277344 581.4718627929688 236.0489044189453 576.7594604492188 242.33148193359375 C 568.9251098632812 238.58065795898438 566.9387817382812 237.1238250732422 558.8740844726562 247.2852020263672 C 553.10107421875 249.31341552734375 499.082275390625 255.17684936523438 485.6731872558594 251.05096435546875 C 486.6435241699219 250.41265869140625 488.3533935546875 241.34437561035156 497.8920593261719 231.60862731933594 C 486.2041015625 226.78135681152344 483.1107482910156 222.4539031982422 482.5830383300781 215.2581329345703 C 477.2223205566406 210.09681701660156 479.7741394042969 205.9369354248047 482.8426513671875 206.17628479003906 C 480.667724609375 205.21603393554688 481.4442443847656 199.2725830078125 492.06732177734375 199.509521484375 C 492.3955993652344 196.42303466796875 491.72821044921875 192.50640869140625 492.02734375 188.47622680664062 C 487.6313781738281 174.36557006835938 487.93304443359375 173.38787841796875 488.07550048828125 164.2925567626953 C 503.937255859375 164.40036010742188 505.33343505859375 164.631591796875 512.9262084960938 161.14805603027344 C 522.3053588867188 169.4261932373047 524.3514404296875 167.4949493408203 526.3462524414062 167.33169555664062 C 523.5565795898438 162.03744506835938 531.1961059570312 157.36903381347656 533.222900390625 158.89889526367188 C 537.5028076171875 161.9627685546875 541.2950439453125 162.55532836914062 542.0320434570312 164.126953125 C 545.1184692382812 164.1434783935547 545.6644897460938 166.00038146972656 549.9756469726562 166.91549682617188 C 549.0010986328125 165.59169006347656 550.2481689453125 157.915283203125 554.89794921875 158.11410522460938 C 557.8916015625 161.07583618164062 563.0935668945312 157.99095153808594 566.492431640625 157.13710021972656" stroke-width="0.0" fill="url(#shape_9_fill)"/>
    <path d="M 561.175537109375 156.6100311279297 C 565.4136352539062 152.8690643310547 571.3763427734375 157.09996032714844 571.236572265625 173.30841064453125 C 572.4959106445312 169.1547393798828 576.5172119140625 169.10858154296875 579.6417846679688 174.1111297607422 C 580.551513671875 178.1180419921875 578.916015625 187.3743438720703 579.8130493164062 191.0144805908203 C 571.3709716796875 196.24441528320312 572.058837890625 229.96844482421875 578.116943359375 230.974853515625 C 576.080078125 231.16250610351562 575.6251831054688 236.8636016845703 572.1098022460938 237.97848510742188 C 560.5595092773438 235.80526733398438 567.1331176757812 238.70115661621094 563.3898315429688 247.5541534423828 C 548.6682739257812 253.17564392089844 501.2926940917969 249.22525024414062 500.2031555175781 251.86190795898438 C 491.21295166015625 251.83279418945312 488.0513916015625 237.54689025878906 499.01715087890625 231.9813690185547 C 486.63763427734375 224.8736572265625 481.9794921875 219.2860107421875 481.8736572265625 214.77442932128906 C 475.8116455078125 215.3804473876953 472.4828186035156 215.09695434570312 464.5893859863281 196.89346313476562 C 464.7057800292969 177.29454040527344 480.0605773925781 175.43524169921875 482.5792541503906 195.29690551757812 C 489.7533264160156 197.93801879882812 494.7533264160156 184.7384490966797 496.614013671875 182.95858764648438 C 495.2962951660156 178.86575317382812 497.5860900878906 177.68666076660156 500.1587829589844 177.4973602294922 C 507.93707275390625 179.1576690673828 516.5715942382812 181.74778747558594 520.985595703125 174.15191650390625 C 525.0993041992188 173.48162841796875 528.3568725585938 159.6350555419922 529.87451171875 154.47952270507812 C 538.2684936523438 155.73988342285156 539.841064453125 156.97549438476562 537.19677734375 165.85446166992188 C 545.7548217773438 166.03125 549.0638427734375 167.5148162841797 551.5772094726562 166.66024780273438 C 550.955322265625 155.32492065429688 552.80126953125 152.99510192871094 561.175537109375 156.6100311279297" stroke-width="0.0" fill="url(#shape_10_fill)"/>
    <path d="M 443.59228515625 108.84053039550781 C 452.2052001953125 114.06797790527344 453.91497802734375 115.51204681396484 463.0322570800781 107.9183349609375 C 466.83880615234375 114.32685852050781 469.2511901855469 113.3012466430664 488.3780517578125 107.6933364868164 C 489.3807067871094 124.43186950683594 488.7281188964844 125.26358795166016 492.6059265136719 130.5185546875 C 493.3910827636719 132.23165893554688 493.3332824707031 135.89520263671875 496.76190185546875 136.09228515625 C 493.8244323730469 135.774658203125 493.0024108886719 138.644775390625 490.1670227050781 141.82310485839844 C 483.7550354003906 138.86814880371094 482.470947265625 141.2709503173828 480.92236328125 142.72312927246094 C 468.797607421875 136.65032958984375 466.98077392578125 135.2676239013672 465.51959228515625 134.56224060058594 C 464.20941162109375 133.49319458007812 460.95526123046875 134.10211181640625 460.40399169921875 133.73304748535156 C 461.8416748046875 131.92056274414062 480.6571044921875 141.5480499267578 499.3195495605469 154.69857788085938 C 476.8545227050781 176.94845581054688 475.8700256347656 177.560302734375 480.1097412109375 184.60963439941406 C 467.8466491699219 183.5438232421875 467.3708801269531 188.6427764892578 463.967529296875 190.09523010253906 C 463.1709899902344 184.62469482421875 460.7024230957031 172.73573303222656 460.9217834472656 160.12289428710938 C 448.74383544921875 183.0626983642578 447.5462951660156 182.64222717285156 439.8180236816406 183.08929443359375 C 439.1672668457031 183.82546997070312 435.7583312988281 195.72439575195312 434.9659729003906 197.4209442138672 C 428.17584228515625 200.41937255859375 417.5375061035156 180.5819854736328 417.68280029296875 179.8064727783203 C 416.93206787109375 180.0134735107422 398.9653015136719 180.80245971679688 397.936279296875 174.48240661621094 C 394.0745849609375 172.23558044433594 389.7666320800781 176.77584838867188 379.45556640625 174.6959991455078 C 382.5385437011719 157.74412536621094 379.78277587890625 152.06861877441406 392.3931884765625 138.86602783203125 C 398.4775695800781 138.5238037109375 399.8771667480469 130.27883911132812 403.0171203613281 119.98700714111328 C 406.47271728515625 98.77374267578125 424.3114013671875 101.4303970336914 443.59228515625 108.84053039550781" stroke-width="0.0" fill="url(#shape_11_fill)"/>
    <path d="M 602.833984375 127.7514877319336 C 605.8053588867188 130.0750732421875 605.290283203125 143.36422729492188 606.8904418945312 145.43441772460938 C 610.8362426757812 146.0339813232422 610.9906616210938 150.9530487060547 618.8496704101562 153.9053192138672 C 618.1500854492188 149.8757781982422 617.701416015625 141.91212463378906 622.8740234375 141.03565979003906 C 624.1918334960938 137.39077758789062 625.3887939453125 137.30433654785156 627.1993408203125 140.32916259765625 C 627.1297607421875 142.21432495117188 628.8746948242188 144.833740234375 629.0543212890625 147.23251342773438 C 632.0818481445312 149.7860565185547 631.690185546875 151.24380493164062 635.8582763671875 153.7857208251953 C 642.2455444335938 154.2321014404297 642.0518188476562 160.1145477294922 649.5138549804688 174.20254516601562 C 639.5340576171875 185.9370574951172 640.3314819335938 195.10296630859375 640.8247680664062 206.20867919921875 C 659.7801513671875 208.0714111328125 661.0230102539062 243.28245544433594 642.4549560546875 245.2899932861328 C 622.2412719726562 247.9945526123047 611.290771484375 248.9026336669922 579.2703247070312 265.3174743652344 C 573.9617919921875 253.2693328857422 580.6799926757812 229.82037353515625 572.5076293945312 215.9927215576172 C 568.0848999023438 208.92239379882812 571.6065063476562 168.89466857910156 583.7706298828125 169.73208618164062 C 596.828369140625 163.29689025878906 599.8963012695312 143.14158630371094 600.2745361328125 141.95870971679688 C 595.5480346679688 140.1564178466797 596.5277709960938 137.44895935058594 602.833984375 127.7514877319336" stroke-width="0.0" fill="url(#shape_12_fill)"/>
    <path d="M 412.10125732421875 176.60227966308594 C 419.0083923339844 174.47299194335938 434.76373291015625 213.51947021484375 428.7063293457031 219.90054321289062 C 419.66094970703125 228.54046630859375 427.545166015625 236.9465789794922 431.318115234375 241.45191955566406 C 430.3497619628906 261.00146484375 417.86077880859375 272.21051025390625 411.8537292480469 267.8282165527344 C 406.99261474609375 264.8929443359375 401.61865234375 271.8474426269531 391.338623046875 268.43646240234375 C 385.66845703125 264.8494873046875 382.6087646484375 266.0304260253906 378.8153076171875 265.750732421875 C 373.8614196777344 265.8778076171875 373.17169189453125 262.0301208496094 374.5785827636719 258.3997497558594 C 376.1856994628906 256.2272644042969 374.68939208984375 254.77317810058594 374.91912841796875 253.8377227783203 C 371.029541015625 255.7339324951172 369.0235900878906 251.72792053222656 368.1236877441406 252.1579132080078 C 360.65948486328125 248.0332794189453 366.6546936035156 229.4114990234375 367.0867919921875 222.17352294921875 C 369.6800537109375 218.9178924560547 371.72198486328125 202.55763244628906 382.9423828125 202.90904235839844 C 378.656494140625 193.66482543945312 379.7671203613281 191.7365264892578 389.886474609375 191.5923614501953 C 390.86273193359375 177.4466094970703 392.72119140625 176.754150390625 412.10125732421875 176.60227966308594" stroke-width="0.0" fill="url(#shape_13_fill)"/>
    <path d="M 507.5773620605469 66.98230743408203 C 509.1588439941406 67.81655883789062 513.4644775390625 74.22034454345703 515.5282592773438 86.4716796875 C 531.4274291992188 79.53549194335938 535.7385864257812 79.82977294921875 537.6212768554688 85.97158813476562 C 539.2847900390625 90.833740234375 544.5394287109375 90.2747802734375 545.0235595703125 91.17617797851562 C 545.53662109375 92.74072265625 556.171630859375 96.84085083007812 559.3145751953125 95.53197479248047 C 563.3811645507812 97.60409545898438 567.3822021484375 97.34588623046875 568.4889526367188 98.22032165527344 C 563.5790405273438 106.36741638183594 559.2000732421875 116.63849639892578 537.6304321289062 109.38893127441406 C 540.9500732421875 111.9466781616211 539.6683349609375 115.14077758789062 534.6590576171875 118.4249496459961 C 527.3364868164062 120.2237777709961 519.6174926757812 124.55689239501953 515.634521484375 118.56537628173828 C 512.501708984375 121.79901885986328 501.7801513671875 125.89534759521484 500.51947021484375 127.0921630859375 C 498.1330261230469 129.64218139648438 494.2101745605469 129.27105712890625 490.0406494140625 126.5075912475586 C 489.17205810546875 117.1807632446289 468.85943603515625 118.27404022216797 468.15936279296875 117.40061950683594 C 463.5255126953125 117.8347396850586 462.9176330566406 116.65370178222656 461.9510803222656 116.32288360595703 C 471.45965576171875 120.75846099853516 474.55157470703125 115.6577377319336 477.4070129394531 112.4044189453125 C 471.1681823730469 99.02140045166016 472.3818054199219 87.48566436767578 474.464599609375 81.76441192626953 C 474.58721923828125 70.93280792236328 475.33984375 70.38519287109375 477.28717041015625 66.05130004882812 C 478.3560485839844 63.63961410522461 482.3794250488281 63.68135452270508 483.9815368652344 63.376976013183594 C 495.07427978515625 63.111881256103516 504.0079650878906 61.576446533203125 507.5773620605469 66.98230743408203" stroke-width="0.0" fill="url(#shape_14_fill)"/>
    <path d="M 534.981689453125 161.7861785888672 C 544.0167236328125 162.37518310546875 544.3270263671875 163.16441345214844 546.5587768554688 165.06350708007812 C 549.8399658203125 167.5001983642578 549.6591186523438 170.1678924560547 543.1502075195312 182.59359741210938 C 544.2529296875 191.37689208984375 535.9965209960938 230.52540588378906 537.0883178710938 232.52865600585938 C 541.298828125 238.91815185546875 540.94384765625 252.77352905273438 518.713134765625 252.26316833496094 C 502.35467529296875 252.75599670410156 482.1025085449219 242.62551879882812 488.03515625 230.45370483398438 C 476.38946533203125 219.91004943847656 478.98944091796875 207.9154815673828 483.098876953125 201.76058959960938 C 486.4593505859375 197.51695251464844 487.9847106933594 197.47921752929688 488.7925109863281 199.29872131347656 C 482.8637390136719 195.43731689453125 488.6722106933594 184.39541625976562 487.4618225097656 173.78785705566406 C 487.58984375 167.2227783203125 489.5294494628906 166.47286987304688 491.1356201171875 166.89610290527344 C 505.4775390625 178.93516540527344 511.3134765625 184.16348266601562 522.7556762695312 172.76864624023438 C 525.5626831054688 170.9668731689453 525.4097290039062 167.2257080078125 526.1756591796875 165.09716796875 C 525.506591796875 160.1222686767578 528.1807250976562 158.09780883789062 534.981689453125 161.7861785888672" stroke-width="0.0" fill="url(#shape_15_fill)"/>
    <path d="M 651.5887451171875 109.45208740234375 C 653.848876953125 110.56523132324219 664.09326171875 121.55628204345703 659.83740234375 132.6254425048828 C 664.0131225585938 136.2174530029297 664.5018310546875 143.77975463867188 673.2174682617188 147.8593292236328 C 677.2615356445312 178.97198486328125 673.8168334960938 210.93670654296875 676.200439453125 267.0793151855469 C 675.087890625 265.4467468261719 635.701904296875 272.96978759765625 630.8555908203125 264.0677795410156 C 636.4379272460938 244.96762084960938 643.3484497070312 123.95660400390625 651.5887451171875 109.45208740234375" stroke-width="0.0" fill="url(#shape_16_fill)"/>
    <path d="M 601.472412109375 128.86813354492188 C 603.9468383789062 128.3375244140625 605.67138671875 131.688232421875 606.3136596679688 134.00430297851562 C 608.8292846679688 135.17645263671875 607.0942993164062 141.6125946044922 609.1351928710938 143.740478515625 C 628.7371215820312 143.2765350341797 632.08740234375 216.49903869628906 633.0035400390625 271.4150085449219 C 579.197509765625 276.26031494140625 574.2428588867188 268.1651306152344 579.8043823242188 242.25782775878906 C 559.5607299804688 226.01708984375 598.5496215820312 156.0825958251953 601.472412109375 128.86813354492188" stroke-width="0.0" fill="url(#shape_17_fill)"/>
    <path d="M 320.3365783691406 186.15574645996094 C 321.47430419921875 186.4308319091797 321.6166687011719 189.24392700195312 321.357177734375 199.96041870117188 C 331.5773010253906 193.6334228515625 332.4357604980469 193.29017639160156 336.9747009277344 196.2080078125 C 345.1922607421875 198.9151611328125 346.66650390625 197.4466552734375 356.10870361328125 191.2142791748047 C 358.718994140625 192.35484313964844 359.6582336425781 194.3944091796875 356.27301025390625 201.84103393554688 C 359.4205322265625 204.0521240234375 361.6084289550781 204.16702270507812 364.79937744140625 210.3537139892578 C 367.3101806640625 207.19895935058594 368.5791015625 207.91665649414062 368.21124267578125 211.69833374023438 C 370.1304626464844 220.0966796875 370.29510498046875 223.06959533691406 366.06646728515625 225.57296752929688 C 365.83477783203125 231.3636932373047 363.6283874511719 237.14846801757812 367.7864990234375 248.5282440185547 C 370.5210876464844 253.97824096679688 367.7377624511719 255.68666076660156 358.0511779785156 254.63226318359375 C 354.3797912597656 255.81541442871094 324.1281433105469 254.96908569335938 322.7248229980469 255.3757781982422 C 313.2698059082031 256.0819396972656 311.9725036621094 253.84957885742188 308.7044372558594 244.98541259765625 C 303.8807067871094 229.20712280273438 320.9518737792969 195.4638214111328 320.3365783691406 186.15574645996094" stroke-width="0.0" fill="url(#shape_18_fill)"/>
    <path d="M 482.4635314941406 230.96270751953125 C 505.54766845703125 252.05178833007812 515.2601928710938 264.046142578125 495.1241455078125 280.488525390625 C 470.20111083984375 280.09991455078125 443.9536437988281 261.7344970703125 442.09722900390625 261.9686279296875 C 438.77459716796875 260.51177978515625 437.13055419921875 258.3155212402344 432.6722106933594 258.1001281738281 C 429.6998596191406 258.5377197265625 428.40130615234375 256.737548828125 429.8470153808594 253.83059692382812 C 432.9898986816406 237.20838928222656 423.6058349609375 233.72332763671875 422.96551513671875 229.7211151123047 C 423.0294189453125 227.179443359375 421.0881042480469 226.6409912109375 420.2481994628906 225.10858154296875 C 427.468505859375 219.76658630371094 429.4344787597656 218.760009765625 428.69732666015625 214.02613830566406 C 443.8616638183594 197.55673217773438 480.9872741699219 196.23687744140625 482.4635314941406 230.96270751953125" stroke-width="0.0" fill="url(#shape_19_fill)"/>
    <path d="M 673.927001953125 -2.9766857624053955 C 675.0673828125 32.84956741333008 674.5833740234375 64.76375579833984 674.607421875 97.2685775756836 C 669.3524169921875 96.05604553222656 651.8113403320312 87.58404541015625 645.6630859375 90.0915756225586 C 638.5848388671875 89.48627471923828 638.103759765625 86.05062866210938 637.3566284179688 84.09159851074219 C 626.109375 84.24781799316406 620.676025390625 93.40284729003906 608.0518188476562 86.5137939453125 C 609.8880004882812 74.75276184082031 612.1851806640625 73.62114715576172 614.4379272460938 71.58135986328125 C 622.5236206054688 68.84431457519531 648.7402954101562 25.10356903076172 647.5216064453125 20.635013580322266 C 655.431884765625 9.078750610351562 656.5482177734375 2.3627607822418213 668.9197998046875 3.398120164871216 C 669.8274536132812 2.692437171936035 670.0911254882812 1.0562477111816406 673.927001953125 -2.9766857624053955" stroke-width="0.0" fill="url(#shape_20_fill)"/>
    <path d="M 561.6521606445312 156.14138793945312 C 569.9039306640625 156.44046020507812 570.08740234375 161.1114959716797 572.1978149414062 165.85470581054688 C 581.9771728515625 168.3503875732422 572.1846923828125 230.6017608642578 578.2290649414062 240.55491638183594 C 578.970458984375 244.88101196289062 578.137939453125 246.97463989257812 577.820068359375 270.5052490234375 C 537.5825805664062 269.1036376953125 534.301025390625 266.0386657714844 538.9514770507812 248.13748168945312 C 545.595458984375 244.77462768554688 547.5335693359375 167.4134979248047 555.285400390625 156.9442596435547 C 555.54736328125 152.8177032470703 559.7213745117188 151.69297790527344 561.6521606445312 156.14138793945312" stroke-width="0.0" fill="url(#shape_21_fill)"/>
    <path d="M 214.94659423828125 210.17636108398438 C 234.87118530273438 208.59364318847656 237.9598388671875 241.8973388671875 224.93551635742188 257.533203125 C 211.47984313964844 263.01800537109375 209.1395263671875 263.6538391113281 208.8727569580078 273.07525634765625 C 205.82080078125 275.3043212890625 206.75437927246094 277.0727844238281 205.66400146484375 279.5460510253906 C 206.646484375 282.8250427246094 203.01788330078125 285.7436828613281 201.7594757080078 284.92132568359375 C 202.07073974609375 283.05633544921875 190.36373901367188 272.4671325683594 188.18109130859375 263.4672546386719 C 186.64013671875 261.6324157714844 183.8517303466797 263.060546875 181.4443359375 262.97601318359375 C 180.9376220703125 260.4076232910156 180.39515686035156 260.5048522949219 178.73431396484375 251.54995727539062 C 179.06155395507812 248.04092407226562 169.0648193359375 242.3457489013672 170.54429626464844 238.4627227783203 C 175.22781372070312 213.64007568359375 177.33120727539062 212.8612518310547 185.66697692871094 220.52200317382812 C 193.70079040527344 219.71267700195312 194.06387329101562 215.05787658691406 198.459716796875 213.3766326904297 C 184.53927612304688 205.8556365966797 184.60707092285156 200.5386962890625 201.2218017578125 197.25930786132812 C 213.04019165039062 192.72047424316406 215.05279541015625 195.03530883789062 214.94659423828125 210.17636108398438" stroke-width="0.0" fill="url(#shape_22_fill)"/>
    <path d="M 111.68269348144531 426.2096252441406 C 112.74193572998047 429.2845153808594 111.03972625732422 431.2068176269531 110.65788269042969 431.4109802246094 C 104.96630096435547 432.6606140136719 103.22493743896484 433.79730224609375 91.94332122802734 433.0805969238281 C 89.77263641357422 435.9705505371094 95.66532135009766 446.421630859375 91.58900451660156 452.1399841308594 C 78.66380310058594 444.9972229003906 46.938175201416016 447.9271240234375 25.244768142700195 449.61712646484375 C 14.042962074279785 446.19036865234375 13.90116024017334 439.7508239746094 18.051027297973633 436.3576965332031 C 35.198551177978516 427.5368957519531 49.640533447265625 426.675537109375 73.44232177734375 427.0451354980469 C 73.6266860961914 423.8530578613281 110.00102233886719 420.5527648925781 111.68269348144531 426.2096252441406" stroke-width="0.0" fill="url(#shape_23_fill)"/>
    <path d="M 198.41212463378906 121.55387878417969 C 207.62132263183594 117.99810028076172 220.13519287109375 136.67257690429688 217.59368896484375 142.0128936767578 C 216.22547912597656 147.86778259277344 218.34979248046875 150.3834991455078 220.39283752441406 154.57826232910156 C 227.9588165283203 158.4077911376953 247.82308959960938 176.4753875732422 244.78146362304688 198.9886474609375 C 239.1312255859375 199.58599853515625 235.6742706298828 187.0279541015625 232.31077575683594 179.75723266601562 C 234.7765350341797 187.20196533203125 233.43310546875 195.96041870117188 230.52589416503906 197.1229705810547 C 228.197509765625 197.0876007080078 225.89173889160156 202.66302490234375 220.1809539794922 208.71536254882812 C 214.84231567382812 207.79998779296875 213.34007263183594 202.7404022216797 212.26980590820312 198.50289916992188 C 211.56324768066406 190.7613067626953 211.70310974121094 183.23434448242188 206.7616424560547 177.68666076660156 C 203.86151123046875 174.04751586914062 204.91644287109375 173.00352478027344 205.71189880371094 167.77439880371094 C 202.5365447998047 147.5476531982422 199.4712371826172 146.94393920898438 192.0884552001953 143.79563903808594 C 189.43228149414062 142.4205322265625 191.60281372070312 128.6211395263672 198.41212463378906 121.55387878417969" stroke-width="0.0" fill="url(#shape_24_fill)"/>
    <path d="M 591.380126953125 402.22711181640625 C 600.9365234375 406.3459167480469 629.02734375 405.3473815917969 635.3196411132812 411.19586181640625 C 634.2847290039062 423.19207763671875 629.9974975585938 426.5879211425781 628.9710693359375 426.00775146484375 C 630.5606079101562 427.8265075683594 636.0859985351562 428.0395202636719 639.8538208007812 436.618408203125 C 618.760009765625 447.8930358886719 578.7269287109375 438.7162780761719 572.4349365234375 434.8984375 C 567.6920166015625 427.25494384765625 573.875732421875 419.5707702636719 576.9474487304688 412.91656494140625 C 578.2400512695312 410.90789794921875 585.9218139648438 413.6818542480469 591.380126953125 402.22711181640625" stroke-width="0.0" fill="url(#shape_25_fill)"/>
    <path d="M 142.9174041748047 66.87971496582031 C 144.0503387451172 68.89986419677734 149.173583984375 67.67100524902344 149.62039184570312 69.01740264892578 C 148.87680053710938 70.90752410888672 150.44850158691406 71.8273696899414 149.60743713378906 73.9265365600586 C 151.10565185546875 74.48382568359375 150.16738891601562 78.67170715332031 149.58839416503906 89.6451187133789 C 149.9443817138672 93.18095397949219 154.21685791015625 95.58206939697266 153.39710998535156 104.1958999633789 C 153.32452392578125 107.6707763671875 155.1182098388672 108.51042175292969 155.75205993652344 110.9303970336914 C 157.297607421875 123.21297454833984 154.57537841796875 133.4818115234375 150.08718872070312 133.5878448486328 C 141.710693359375 127.69331359863281 137.68914794921875 118.67924499511719 126.01066589355469 116.71199035644531 C 121.996337890625 113.76890563964844 123.36199951171875 109.21858215332031 126.17471313476562 107.29259490966797 C 128.56504821777344 106.7746353149414 129.03492736816406 105.27861785888672 132.5660858154297 104.86628723144531 C 138.48348999023438 96.49182891845703 135.10995483398438 92.87409210205078 132.85621643066406 89.04952239990234 C 134.0477294921875 88.20757293701172 139.39788818359375 87.72697448730469 140.38352966308594 85.38314819335938 C 138.47360229492188 84.72616577148438 138.63998413085938 77.63240051269531 139.71461486816406 77.60155487060547 C 143.8901824951172 76.55711364746094 143.0735626220703 70.74029541015625 142.9174041748047 66.87971496582031" stroke-width="0.0" fill="url(#shape_26_fill)"/>
    <path d="M 139.4812469482422 67.77832794189453 C 149.10479736328125 66.83885192871094 149.5463104248047 67.97824096679688 148.7613525390625 77.26656341552734 C 150.51199340820312 78.28482818603516 151.13937377929688 80.74485778808594 154.93800354003906 85.30726623535156 C 150.0109100341797 90.36002349853516 155.0640411376953 95.66053771972656 151.0127410888672 105.26405334472656 C 152.73977661132812 106.06242370605469 153.5654754638672 109.76657104492188 155.5234832763672 112.88985443115234 C 152.81924438476562 116.28597259521484 157.80311584472656 122.35905456542969 153.82029724121094 126.45440673828125 C 152.48043823242188 132.0117645263672 151.3059539794922 133.1655731201172 147.55494689941406 134.41290283203125 C 141.91041564941406 131.06272888183594 128.27171325683594 122.17973327636719 129.51345825195312 117.58282470703125 C 124.20604705810547 118.57616424560547 122.9118423461914 113.25200653076172 128.1538543701172 110.62972259521484 C 122.82634735107422 107.69442749023438 124.44988250732422 104.2561264038086 133.4197235107422 107.64005279541016 C 136.71705627441406 105.85507202148438 133.31358337402344 92.72731018066406 132.7189178466797 89.17407989501953 C 139.368408203125 87.54254150390625 138.9396209716797 85.11369323730469 138.97337341308594 81.1737060546875 C 139.06637573242188 77.49185943603516 140.36228942871094 76.81168365478516 142.4573211669922 78.31625366210938 C 145.2670135498047 71.91007232666016 142.66156005859375 70.4117660522461 139.4812469482422 67.77832794189453" stroke-width="0.0" fill="url(#shape_27_fill)"/>
    <path d="M -0.40851420164108276 -0.2771226465702057 C 4.727458477020264 0.3877851366996765 9.679309844970703 -0.5318264961242676 18.72764778137207 -0.90434730052948 C 25.521739959716797 -1.7759950160980225 25.99130630493164 -0.9709811806678772 54.85816192626953 0.42973393201828003 C 50.65021514892578 25.720130920410156 28.84225082397461 23.311487197875977 27.82654571533203 26.99822998046875 C 59.29735565185547 9.991971969604492 68.09451293945312 9.465351104736328 71.25249481201172 56.633758544921875 C 34.07624816894531 58.47991180419922 22.02227210998535 60.94375228881836 19.49403190612793 53.20628356933594 C 16.190284729003906 39.33299255371094 11.32515811920166 38.28646469116211 9.983658790588379 33.61908721923828 C 10.088665962219238 35.794410705566406 14.523287773132324 39.26348876953125 14.562356948852539 41.04201889038086 C 16.115814208984375 42.17993927001953 15.98904037475586 44.642860412597656 18.17827033996582 47.8758544921875 C 20.0778865814209 51.07134246826172 18.7717227935791 52.304046630859375 22.354610443115234 57.48377990722656 C 23.011449813842773 69.88480377197266 13.494624137878418 72.28172302246094 7.646416187286377 61.81802749633789 C 5.392712116241455 60.92461395263672 3.542844772338867 59.135066986083984 0.3158090114593506 59.4445686340332 C -0.32044804096221924 39.797367095947266 -0.3250274658203125 19.634342193603516 -0.40851420164108276 -0.2771226465702057" stroke-width="0.0" fill="url(#shape_28_fill)"/>
    <path d="M 298.5640869140625 197.25640869140625 C 297.83917236328125 199.46412658691406 300.6576843261719 202.16033935546875 301.5214538574219 208.6145782470703 C 300.42572021484375 214.4951934814453 326.13568115234375 222.6337432861328 315.9967041015625 255.51536560058594 C 311.8837890625 254.6986083984375 310.55859375 255.70901489257812 304.53033447265625 255.04571533203125 C 303.77117919921875 258.04803466796875 296.8127746582031 258.56884765625 281.22930908203125 256.200927734375 C 276.9812927246094 223.69338989257812 284.92413330078125 221.45127868652344 298.5640869140625 197.25640869140625" stroke-width="0.0" fill="url(#shape_29_fill)"/>
    <path d="M 0.003170654410496354 -0.13740035891532898 C 4.597139358520508 0.4530445635318756 9.795559883117676 -0.41012081503868103 14.73072624206543 0.09576231986284256 C 15.958412170410156 0.47331979870796204 16.750539779663086 2.53421950340271 16.582292556762695 7.925593376159668 C 18.7596378326416 11.009310722351074 21.44070816040039 19.15015983581543 27.779794692993164 20.514925003051758 C 27.286924362182617 22.58869171142578 23.662750244140625 26.68299674987793 24.98250961303711 31.968875885009766 C 20.346525192260742 32.64668655395508 11.535337448120117 30.128664016723633 4.184171199798584 33.470176696777344 C 8.87663745880127 36.1452751159668 8.66964340209961 39.051231384277344 10.866662979125977 40.45966720581055 C 10.443904876708984 43.05551528930664 7.445877552032471 49.434730529785156 11.755683898925781 53.79561996459961 C 17.76300811767578 51.09598922729492 19.470422744750977 51.555755615234375 18.530540466308594 58.34719467163086 C 11.317233085632324 60.69329071044922 9.426800727844238 62.498504638671875 0.17715956270694733 61.565467834472656 C -0.4276128113269806 39.978492736816406 -0.3546796441078186 19.756399154663086 0.003170654410496354 -0.13740035891532898" stroke-width="0.0" fill="url(#shape_30_fill)"/>
    <path d="M 548.9542236328125 70.72491455078125 C 546.731201171875 78.39688110351562 576.693359375 89.4311294555664 581.4013671875 91.80049133300781 C 580.9854736328125 92.97200775146484 577.5040893554688 93.38867950439453 577.3936767578125 98.34075164794922 C 573.291259765625 100.6953353881836 572.0574340820312 99.81415557861328 569.252685546875 100.02803039550781 C 567.5911254882812 93.97071075439453 547.660888671875 98.86161041259766 538.9078979492188 88.25666046142578 C 538.1978759765625 85.52111053466797 538.8890991210938 82.78900146484375 535.8672485351562 81.87408447265625 C 534.0836181640625 80.6572265625 527.0634765625 79.53131103515625 526.9786987304688 78.1387710571289 C 524.9999389648438 75.80073547363281 527.6441040039062 70.79846954345703 531.9312133789062 68.91861724853516 C 539.1581420898438 66.81021881103516 542.7923583984375 71.44156646728516 548.9542236328125 70.72491455078125" stroke-width="0.0" fill="url(#shape_31_fill)"/>
    <path d="M 447.02685546875 264.4290771484375 C 450.6173400878906 265.31903076171875 451.25238037109375 266.7668762207031 455.59014892578125 267.8448181152344 C 460.5113830566406 267.6551208496094 465.32232666015625 270.3759765625 469.9594421386719 273.01654052734375 C 470.4309997558594 275.6334533691406 471.828857421875 276.8868713378906 471.6768798828125 280.77960205078125 C 452.201171875 287.28546142578125 431.0108642578125 284.12060546875 415.7597351074219 285.1492004394531 C 413.35589599609375 273.8824768066406 414.286865234375 272.2921142578125 415.30816650390625 268.03619384765625 C 418.1812744140625 267.1973876953125 417.72662353515625 264.781982421875 419.32708740234375 262.92138671875 C 445.5337829589844 251.0032501220703 446.81640625 251.55517578125 447.02685546875 264.4290771484375" stroke-width="0.0" fill="url(#shape_32_fill)"/>
    <path d="M 272.85552978515625 192.088134765625 C 274.3697204589844 192.3358612060547 288.14801025390625 243.72251892089844 282.5949401855469 248.88038635253906 C 279.75555419921875 249.5399169921875 274.0672912597656 247.69744873046875 269.1711730957031 249.87564086914062 C 266.1063537597656 246.6622314453125 266.4402160644531 242.8548126220703 260.8384704589844 240.70260620117188 C 254.54922485351562 207.90499877929688 262.9867248535156 206.03781127929688 272.85552978515625 192.088134765625" stroke-width="0.0" fill="url(#shape_33_fill)"/>
    <path d="M 270.1905822753906 406.5400390625 C 262.1282043457031 429.7962646484375 264.20379638671875 430.9046936035156 266.9953918457031 440.62353515625 C 262.4980163574219 440.8499450683594 260.6863098144531 446.42724609375 258.7020263671875 447.8650817871094 C 245.35426330566406 445.8765563964844 213.5374298095703 448.8487854003906 212.40086364746094 445.0633850097656 C 213.02207946777344 436.99578857421875 213.95974731445312 436.2222900390625 216.08360290527344 434.740478515625 C 216.48451232910156 433.635986328125 225.10743713378906 434.0061950683594 226.8211212158203 431.00921630859375 C 226.8562774658203 417.83331298828125 232.56240844726562 417.16790771484375 270.1905822753906 406.5400390625" stroke-width="0.0" fill="url(#shape_34_fill)"/>
    <path d="M 105.55455780029297 69.73970031738281 C 110.36505889892578 69.66572570800781 110.62361145019531 78.65499114990234 112.77242279052734 84.97836303710938 C 117.8973388671875 86.42448425292969 115.92825317382812 110.23908233642578 118.95358276367188 110.52676391601562 C 116.71017456054688 112.58927154541016 109.91014862060547 114.29762268066406 106.97103118896484 124.95397186279297 C 104.59526062011719 117.11785888671875 96.47021484375 118.903564453125 87.29039764404297 107.79157257080078 C 85.87696838378906 85.67069244384766 106.04198455810547 84.33263397216797 105.55455780029297 69.73970031738281" stroke-width="0.0" fill="url(#shape_35_fill)"/>
    <path d="M 451.21295166015625 178.46278381347656 C 454.1258239746094 176.01657104492188 456.3180236816406 177.7701873779297 455.1072998046875 180.330810546875 C 455.9216613769531 180.829833984375 455.1726989746094 184.87625122070312 456.0425720214844 186.8740234375 C 456.29931640625 188.48960876464844 459.37298583984375 193.8160400390625 459.0047302246094 204.22787475585938 C 458.7976989746094 208.23098754882812 453.08349609375 210.25259399414062 446.01068115234375 204.36871337890625 C 442.18499755859375 206.77426147460938 440.7669677734375 209.33290100097656 432.34283447265625 210.8817901611328 C 435.8424987792969 209.9212646484375 436.94757080078125 188.08570861816406 437.80975341796875 174.0538330078125 C 440.44000244140625 179.22705078125 440.5703125 181.61370849609375 446.8072204589844 181.36985778808594 C 447.9264831542969 179.69927978515625 450.14581298828125 179.7127685546875 451.21295166015625 178.46278381347656" stroke-width="0.0" fill="url(#shape_36_fill)"/>
    <path d="M 557.7769775390625 84.48098754882812 C 560.2894897460938 80.31620788574219 578.3978271484375 83.11334228515625 579.42431640625 85.18147277832031 C 581.471435546875 83.24525451660156 586.35595703125 84.84624481201172 588.156494140625 88.62165832519531 C 598.275390625 109.6365737915039 588.7612915039062 115.7656021118164 574.3276977539062 100.82225799560547 C 573.78564453125 99.49037170410156 551.2288208007812 97.00645446777344 548.2179565429688 86.83393096923828 C 539.1560668945312 86.58164978027344 537.6015625 84.95980834960938 536.8063354492188 79.84382629394531 C 543.0921020507812 74.84941864013672 547.1387329101562 78.59010314941406 557.7769775390625 84.48098754882812" stroke-width="0.0" fill="url(#shape_37_fill)"/>
    <path d="M 251.85426330566406 207.09326171875 C 265.8958740234375 214.97784423828125 261.36444091796875 234.86219787597656 260.04254150390625 248.2958221435547 C 259.6568908691406 254.55291748046875 251.34815979003906 255.11880493164062 249.0026092529297 257.0598449707031 C 234.458251953125 237.03607177734375 241.09164428710938 216.01255798339844 251.85426330566406 207.09326171875" stroke-width="0.0" fill="url(#shape_38_fill)"/>
    <path d="M 442.21319580078125 263.03448486328125 C 445.99444580078125 263.4167785644531 449.2109375 266.66632080078125 447.9216613769531 270.0838928222656 C 444.6692810058594 270.4041442871094 442.6732482910156 277.3251647949219 440.0960388183594 277.20623779296875 C 438.3074035644531 286.8736877441406 430.190673828125 286.2293701171875 417.9869689941406 275.3411865234375 C 414.4333801269531 276.7303771972656 413.2906188964844 274.3818359375 416.43511962890625 271.6067199707031 C 414.9155578613281 269.919189453125 419.2816162109375 262.2931213378906 425.2450866699219 258.52252197265625 C 426.9728698730469 257.91827392578125 440.6329345703125 257.59564208984375 442.21319580078125 263.03448486328125" stroke-width="0.0" fill="url(#shape_39_fill)"/>
    <path d="M 407.66046142578125 409.9162292480469 C 408.6408996582031 409.91668701171875 416.7676696777344 419.1439514160156 414.1943359375 424.43597412109375 C 399.11761474609375 435.3350830078125 386.26495361328125 420.6376647949219 376.5510559082031 420.8835754394531 C 371.0740051269531 417.9611511230469 371.2279968261719 416.5549011230469 372.4181213378906 410.2764587402344 C 375.61834716796875 401.1948547363281 392.26611328125 403.9566955566406 407.66046142578125 409.9162292480469" stroke-width="0.0" fill="url(#shape_40_fill)"/>
    <path d="M 66.55648803710938 427.4050598144531 C 67.20667266845703 428.93609619140625 63.916175842285156 431.9407653808594 58.624305725097656 434.33502197265625 C 57.35512161254883 435.94403076171875 41.31162643432617 435.3307800292969 30.984331130981445 443.344970703125 C 28.15625 443.3258972167969 27.763561248779297 444.456298828125 17.410715103149414 442.4536437988281 C 16.457677841186523 440.6537170410156 18.04379653930664 439.2092590332031 17.413949966430664 437.705078125 C 36.249229431152344 427.067626953125 52.01479721069336 428.4543762207031 66.55648803710938 427.4050598144531" stroke-width="0.0" fill="url(#shape_41_fill)"/>
    <path d="M 277.2035827636719 381.0763854980469 C 284.6567077636719 381.1476745605469 298.2160949707031 380.96685791015625 310.7173156738281 385.98883056640625 C 296.7877197265625 394.4517822265625 299.3035583496094 401.13262939453125 294.54376220703125 405.2504577636719 C 291.7696838378906 400.099365234375 268.0094909667969 407.3444519042969 258.4673767089844 410.00921630859375 C 240.2694091796875 417.9031677246094 233.51025390625 412.0173034667969 232.66049194335938 384.25372314453125 C 259.9849853515625 378.779296875 266.45654296875 382.29180908203125 277.2035827636719 381.0763854980469" stroke-width="0.0" fill="url(#shape_42_fill)"/>
    <path d="M 222.71395874023438 208.8972625732422 C 224.2058868408203 206.2984161376953 238.53623962402344 206.195556640625 238.97654724121094 210.12493896484375 C 242.57688903808594 221.69305419921875 244.12710571289062 244.5804443359375 255.7944793701172 270.23699951171875 C 252.09613037109375 276.0163269042969 243.32321166992188 273.4093322753906 208.1190643310547 272.3759460449219 C 208.92288208007812 265.893310546875 205.3503875732422 250.1588897705078 216.2291717529297 247.63726806640625 C 219.19271850585938 246.45437622070312 218.45468139648438 226.42796325683594 222.71395874023438 208.8972625732422" stroke-width="0.0" fill="url(#shape_43_fill)"/>
    <path d="M 483.1714782714844 396.5520324707031 C 486.766357421875 399.8285217285156 485.7514343261719 400.9634094238281 483.40789794921875 400.80267333984375 C 470.0225830078125 407.4794921875 451.1646423339844 406.9103088378906 450.2863464355469 407.5272216796875 C 448.3056945800781 404.4327392578125 451.74334716796875 396.2037353515625 453.68353271484375 396.5305480957031 C 466.4798889160156 393.3849182128906 471.9702453613281 392.2386474609375 483.1714782714844 396.5520324707031" stroke-width="0.0" fill="url(#shape_44_fill)"/>
    <path d="M 45.785091400146484 408.1371765136719 C 45.3215217590332 408.1944274902344 35.86390686035156 412.4264221191406 32.295257568359375 412.6105651855469 C 32.26462936401367 414.3040771484375 31.867429733276367 415.72509765625 27.959348678588867 414.9140930175781 C 26.876113891601562 416.2621765136719 23.945106506347656 417.06988525390625 20.02047348022461 420.17767333984375 C 19.339374542236328 420.2791442871094 0.2577614188194275 417.3495788574219 -0.6414244174957275 420.52923583984375 C 1.8596770763397217 419.3998107910156 -1.1338058710098267 411.1947326660156 1.0459703207015991 410.1715393066406 C 5.894839286804199 409.6919250488281 45.46076583862305 406.2777404785156 45.785091400146484 408.1371765136719" stroke-width="0.0" fill="url(#shape_45_fill)"/>
    <path d="M 452.4241943359375 173.83212280273438 C 453.7953796386719 174.96226501464844 464.66943359375 198.48077392578125 467.20562744140625 199.91807556152344 C 462.6289978027344 209.22120666503906 451.21368408203125 209.130859375 449.4511413574219 206.46974182128906 C 448.3044738769531 203.26800537109375 448.9637756347656 198.3234100341797 448.8523254394531 195.2969970703125 C 447.96600341796875 194.5714569091797 447.58526611328125 192.05117797851562 448.5234680175781 187.99237060546875 C 450.9773254394531 186.6434783935547 450.33465576171875 182.66134643554688 452.4241943359375 173.83212280273438" stroke-width="0.0" fill="url(#shape_46_fill)"/>
    <path d="M 372.09588623046875 183.24208068847656 C 379.30572509765625 198.3314971923828 380.46051025390625 202.6998291015625 371.4234619140625 205.81381225585938 C 365.8668212890625 206.8316650390625 364.772216796875 204.78102111816406 361.6449890136719 206.13687133789062 C 339.5848693847656 212.26220703125 335.2434997558594 201.08346557617188 353.3896789550781 189.3348846435547 C 356.7025451660156 184.98724365234375 358.3788757324219 184.3695068359375 368.218505859375 185.452392578125 C 369.06005859375 182.80953979492188 371.4149169921875 182.9374542236328 372.09588623046875 183.24208068847656" stroke-width="0.0" fill="url(#shape_47_fill)"/>
    <path d="M 473.0495300292969 264.4973449707031 C 474.01416015625 268.2785949707031 480.9781799316406 271.3764343261719 483.6968078613281 283.5648193359375 C 466.7445373535156 288.1360778808594 445.37921142578125 286.7462463378906 443.7641296386719 284.91119384765625 C 439.3445739746094 282.1251525878906 440.00299072265625 276.9647521972656 441.014892578125 276.3134765625 C 448.9920654296875 266.53948974609375 456.3369140625 261.63409423828125 473.0495300292969 264.4973449707031" stroke-width="0.0" fill="url(#shape_48_fill)"/>
    <path d="M 176.7080078125 116.61134338378906 C 178.06100463867188 115.55536651611328 181.7111358642578 116.15780639648438 182.6749267578125 117.29037475585938 C 184.62771606445312 120.08368682861328 183.92562866210938 121.76453399658203 184.71311950683594 123.48294067382812 C 179.499267578125 128.54359436035156 185.52137756347656 136.97378540039062 182.7715606689453 139.43060302734375 C 182.13278198242188 146.84544372558594 172.84521484375 146.05062866210938 172.49838256835938 146.8634796142578 C 172.74844360351562 127.00587463378906 171.13694763183594 124.4908676147461 176.7080078125 116.61134338378906" stroke-width="0.0" fill="url(#shape_49_fill)"/>
    <path d="M 333.7060546875 426.6111755371094 C 335.40020751953125 430.230712890625 342.1174011230469 428.9137268066406 343.6363525390625 431.5644226074219 C 346.3764343261719 435.56915283203125 345.158447265625 437.21221923828125 342.3016662597656 437.50390625 C 342.55389404296875 447.4103698730469 325.5594787597656 448.7830810546875 323.5973205566406 445.455810546875 C 321.5510559082031 436.1778564453125 321.5833740234375 432.668701171875 305.5009765625 430.4395446777344 C 318.2384948730469 425.1900939941406 327.34979248046875 430.7018127441406 333.7060546875 426.6111755371094" stroke-width="0.0" fill="url(#shape_50_fill)"/>
    <path d="M 318.5939025878906 388.6111755371094 C 310.3510437011719 395.4847717285156 293.0809631347656 395.79046630859375 291.51806640625 399.0632629394531 C 279.1026306152344 397.6175231933594 277.8649597167969 399.03692626953125 271.2649230957031 402.29583740234375 C 271.2525329589844 401.5971984863281 270.0247802734375 398.8999328613281 271.7403259277344 397.50616455078125 C 270.3756103515625 395.57666015625 273.524658203125 388.58160400390625 280.0382995605469 388.4530944824219 C 284.4563903808594 386.7726135253906 288.54559326171875 390.99041748046875 318.5939025878906 388.6111755371094" stroke-width="0.0" fill="url(#shape_51_fill)"/>
    <path d="M 269.005126953125 186.11036682128906 C 277.37811279296875 194.73976135253906 276.9180908203125 207.879638671875 280.2565612792969 217.50497436523438 C 271.54058837890625 210.5090789794922 269.5967102050781 208.46408081054688 260.12823486328125 217.18991088867188 C 257.97137451171875 208.945556640625 263.0098876953125 194.89974975585938 267.8789978027344 195.70535278320312 C 269.589111328125 194.11985778808594 268.8729248046875 191.5830841064453 269.005126953125 186.11036682128906" stroke-width="0.0" fill="url(#shape_52_fill)"/>
    <path d="M 218.50621032714844 409.3794250488281 C 215.88401794433594 410.8958740234375 215.7688446044922 413.34014892578125 214.2966766357422 415.092529296875 C 214.5247802734375 423.4466247558594 194.8688507080078 425.0924072265625 187.69830322265625 415.5804443359375 C 186.3540802001953 404.1793518066406 208.7395477294922 399.0509338378906 218.50621032714844 409.3794250488281" stroke-width="0.0" fill="url(#shape_53_fill)"/>
    <path d="M 206.0174560546875 424.5748596191406 C 205.45018005371094 425.2236328125 206.15203857421875 428.2983703613281 204.55160522460938 428.90863037109375 C 194.47348022460938 429.5135192871094 178.82630920410156 430.0083923339844 178.09762573242188 432.69140625 C 176.9408416748047 430.9414367675781 178.5291748046875 425.9424743652344 177.1681671142578 423.86553955078125 C 187.2499237060547 418.69830322265625 192.34149169921875 423.221435546875 206.0174560546875 424.5748596191406" stroke-width="0.0" fill="url(#shape_54_fill)"/>
    <path d="M 268.2010498046875 247.8442840576172 C 275.1864929199219 245.33143615722656 276.8054504394531 248.0831298828125 279.3294677734375 249.54017639160156 C 281.1234436035156 251.00418090820312 280.63726806640625 252.17605590820312 293.9169006347656 271.3758239746094 C 263.4942626953125 258.1278076171875 262.8784484863281 257.47314453125 249.29296875 267.7093811035156 C 254.82762145996094 248.1763916015625 255.9210968017578 247.2555694580078 258.6465759277344 245.14627075195312 C 260.9670104980469 240.1001434326172 263.6067199707031 239.2347412109375 268.2010498046875 247.8442840576172" stroke-width="0.0" fill="url(#shape_55_fill)"/>
    <path d="M 287.5364685058594 336.97412109375 C 285.61505126953125 362.60711669921875 286.3724365234375 363.23779296875 285.3128662109375 368.0216979980469 C 285.57830810546875 369.2236022949219 286.1065673828125 371.7647399902344 285.49969482421875 381.5390930175781 C 271.29034423828125 379.2982482910156 257.6652526855469 380.91290283203125 234.63589477539062 383.31695556640625 C 230.36468505859375 382.6409912109375 229.71646118164062 371.7986755371094 234.7632293701172 345.24749755859375 C 236.55307006835938 337.3981018066406 242.824462890625 335.1993713378906 287.5364685058594 336.97412109375" stroke-width="0.0" fill="url(#shape_56_fill)"/>
    <path d="M 408.11883544921875 271.9548645019531 C 413.6867370605469 270.3567810058594 417.9049377441406 275.2660217285156 425.3565979003906 282.12188720703125 C 416.48291015625 283.1848449707031 412.38372802734375 275.96441650390625 374.7325439453125 274.2618713378906 C 376.1036071777344 263.5480041503906 384.0737609863281 263.8416748046875 408.11883544921875 271.9548645019531" stroke-width="0.0" fill="url(#shape_57_fill)"/>
    <path d="M 632.11474609375 352.5198059082031 C 632.9818115234375 354.7552795410156 661.7400512695312 355.0133972167969 668.503662109375 355.3030700683594 C 668.4410400390625 358.118408203125 663.0021362304688 360.2047424316406 660.1800537109375 356.6886291503906 C 644.8165283203125 356.44049072265625 636.179443359375 358.91278076171875 631.6986694335938 359.6189880371094 C 627.9102783203125 357.23687744140625 629.5524291992188 353.6869201660156 632.11474609375 352.5198059082031" stroke-width="0.0" fill="url(#shape_58_fill)"/>
    <path d="M 341.3770751953125 384.6751708984375 C 342.83642578125 390.10247802734375 358.15185546875 391.6168212890625 359.1669921875 394.5837097167969 C 356.6591796875 398.5531311035156 339.7785949707031 401.2646789550781 338.27227783203125 399.56829833984375 C 335.1358642578125 399.63446044921875 333.0561828613281 398.78985595703125 331.8293151855469 396.5372619628906 C 331.9930114746094 394.93994140625 330.741943359375 393.4737243652344 332.2533264160156 390.5757751464844 C 332.7470703125 384.8610534667969 335.5011901855469 383.8150329589844 341.3770751953125 384.6751708984375" stroke-width="0.0" fill="url(#shape_59_fill)"/>
    <path d="M 459.1847839355469 364.1806640625 C 461.7050476074219 363.49090576171875 474.7716369628906 371.5329284667969 473.23541259765625 374.569580078125 C 471.81365966796875 376.24761962890625 470.33636474609375 376.8390808105469 463.7408447265625 375.9180603027344 C 458.94061279296875 376.6660461425781 456.8631896972656 377.1691589355469 452.6226501464844 370.57525634765625 C 453.4224548339844 369.9928283691406 459.74853515625 369.28936767578125 459.1847839355469 364.1806640625" stroke-width="0.0" fill="url(#shape_60_fill)"/>
    <path d="M 428.20208740234375 432.29681396484375 C 439.9889221191406 434.23675537109375 442.3944396972656 436.69818115234375 442.1136474609375 438.6041259765625 C 440.2684326171875 440.7347717285156 427.594482421875 439.3006896972656 425.7105407714844 442.0328674316406 C 422.5310974121094 437.994873046875 423.89111328125 434.6930847167969 410.6372985839844 425.3599853515625 C 427.5921936035156 428.2921142578125 428.95013427734375 431.63092041015625 428.20208740234375 432.29681396484375" stroke-width="0.0" fill="url(#shape_61_fill)"/>
    <path d="M 185.39659118652344 411.4519958496094 C 186.23660278320312 413.8905029296875 185.05154418945312 414.82049560546875 186.8361358642578 417.74346923828125 C 184.8766632080078 420.2264709472656 183.3820343017578 419.4893493652344 182.53318786621094 419.786376953125 C 180.8325958251953 421.6546325683594 174.470947265625 420.13018798828125 171.72698974609375 419.9906005859375 C 169.60398864746094 417.58941650390625 169.78701782226562 415.6240539550781 175.32275390625 412.15478515625 C 176.73519897460938 413.5668640136719 180.34036254882812 410.4852294921875 185.39659118652344 411.4519958496094" stroke-width="0.0" fill="url(#shape_62_fill)"/>
    <path d="M 331.8922424316406 418.8812561035156 C 334.2640075683594 425.6450500488281 329.8621826171875 427.8587951660156 327.2196044921875 425.5313415527344 C 324.4896545410156 427.7332763671875 322.9571533203125 426.6839294433594 321.632080078125 427.3492126464844 C 318.9685363769531 425.96319580078125 320.0401916503906 419.9493408203125 317.64251708984375 418.5185241699219 C 318.97174072265625 420.29132080078125 325.75299072265625 418.5531005859375 331.8922424316406 418.8812561035156" stroke-width="0.0" fill="url(#shape_63_fill)"/>
    <path d="M 55.616249084472656 274.32000732421875 C 56.6688232421875 269.3647766113281 64.52357482910156 270.6760559082031 63.37900161743164 278.75189208984375 C 59.742855072021484 278.7405700683594 54.32403564453125 272.40826416015625 48.72728729248047 276.27410888671875 C 51.30963134765625 273.7489929199219 52.78911209106445 273.3201599121094 55.616249084472656 274.32000732421875" stroke-width="0.0" fill="url(#shape_64_fill)"/>
    <path d="M 304.7053527832031 440.1800537109375 C 304.5825500488281 437.8536071777344 306.5057678222656 436.8961486816406 313.2434387207031 437.7233581542969 C 314.3634948730469 439.6858825683594 312.856201171875 441.06048583984375 310.8389587402344 441.3608093261719 C 307.87298583984375 445.1745910644531 306.4541320800781 444.20416259765625 305.232177734375 443.8453063964844 C 302.5596008300781 441.70697021484375 303.34661865234375 440.3721008300781 304.7053527832031 440.1800537109375" stroke-width="0.0" fill="url(#shape_65_fill)"/>
    <path d="M -0.5714093446731567 -0.42919227480888367 C 224.76153564453125 -0.14560207724571228 444.18511962890625 0.30732688307762146 672.431884765625 0.254423052072525 C 673.3623046875 155.8479766845703 674.7573852539062 296.06732177734375 673.7506103515625 445.47235107421875 C 450.0975646972656 446.3206481933594 230.11477661132812 446.309326171875 0.4273466467857361 445.4818115234375 C 0.17932526767253876 297.2628173828125 -0.21368704736232758 149.49754333496094 -0.5714093446731567 -0.42919227480888367" stroke-width="0.0" fill="url(#shape_66_fill)"/>
    <path d="M -1.1316009759902954 -0.22469395399093628 C 222.80699157714844 -0.13350772857666016 442.919677734375 0.39240211248397827 672.356689453125 -0.2478424608707428 C 673.3916015625 156.8654327392578 674.8179321289062 295.6470031738281 673.39404296875 445.39178466796875 C 450.41314697265625 446.38409423828125 230.19924926757812 446.343994140625 0.42470353841781616 445.4164733886719 C 0.02543678879737854 297.6266784667969 -0.2993183732032776 149.17747497558594 -1.1316009759902954 -0.22469395399093628" stroke-width="0.0" fill="url(#shape_67_fill)"/>
    <path d="M -0.736099123954773 -0.2742234170436859 C 223.44407653808594 -0.1869136393070221 441.65460205078125 0.5229212045669556 672.5435180664062 -0.32368895411491394 C 673.4889526367188 156.07601928710938 674.8170776367188 295.45172119140625 673.38427734375 445.3912658691406 C 450.40814208984375 446.3856506347656 230.24041748046875 446.3431091308594 1.0898042917251587 445.3933410644531 C 0.4712012708187103 295.7589416503906 0.054151326417922974 148.5877685546875 -0.736099123954773 -0.2742234170436859" stroke-width="0.0" fill="url(#shape_68_fill)"/>
  </g>
</svg>
