<?xml version="1.0" ?>
<svg xmlns="http://www.w3.org/2000/svg" version="1.1" width="674" height="446">
  <defs>
    <radialGradient id="shape_0_fill" cx="0.5383551623064262" cy="0.7439915267875911" r="0.27489960441249767">
      <stop offset="0.40938702" stop-color="rgb(164, 160, 0)" stop-opacity="1.0"/>
      <stop offset="1.0" stop-color="rgb(139, 31, 0)" stop-opacity="1.0"/>
    </radialGradient>
    <radialGradient id="shape_1_fill" cx="0.5383563848206834" cy="0.7479765340351737" r="0.204622670521722">
      <stop offset="0.3982072" stop-color="rgb(156, 112, 0)" stop-opacity="0.7252208590507507"/>
      <stop offset="0.9508377" stop-color="rgb(0, 0, 0)" stop-opacity="1.0"/>
    </radialGradient>
    <radialGradient id="shape_2_fill" cx="0.09792284866468842" cy="0.7376681614349776" r="0.22062588021026522">
      <stop offset="1.4215043e-06" stop-color="rgb(30, 90, 182)" stop-opacity="1.0"/>
      <stop offset="1.0" stop-color="rgb(0, 136, 255)" stop-opacity="1.0"/>
    </radialGradient>
    <radialGradient id="shape_3_fill" cx="0.2745501011698465" cy="0.21604279659254133" r="0.12523784694049053">
      <stop offset="0.44816446" stop-color="rgb(177, 192, 0)" stop-opacity="0.7677189111709595"/>
      <stop offset="0.89433855" stop-color="rgb(45, 0, 0)" stop-opacity="1.0"/>
    </radialGradient>
    <radialGradient id="shape_4_fill" cx="0.1543026706231454" cy="0.9977578475336323" r="0.10288926755639141">
      <stop offset="0.0" stop-color="rgb(81, 79, 86)" stop-opacity="1.0"/>
      <stop offset="1.0" stop-color="rgb(191, 166, 197)" stop-opacity="0.5715073943138123"/>
    </radialGradient>
    <radialGradient id="shape_5_fill" cx="0.14811741633655764" cy="0.2399633946440145" r="0.11813825386568064">
      <stop offset="0.0" stop-color="rgb(255, 255, 255)" stop-opacity="0.6722694039344788"/>
      <stop offset="0.6128877" stop-color="rgb(255, 255, 255)" stop-opacity="0.6120033264160156"/>
    </radialGradient>
    <radialGradient id="shape_6_fill" cx="0.18397626112759644" cy="0.9977578475336323" r="0.0754974885934892">
      <stop offset="0.0" stop-color="rgb(93, 90, 94)" stop-opacity="1.0"/>
      <stop offset="1.0" stop-color="rgb(216, 206, 220)" stop-opacity="0.8672900795936584"/>
    </radialGradient>
    <radialGradient id="shape_7_fill" cx="0.2893175074183976" cy="0.05829596412556054" r="0.08666390552011372">
      <stop offset="0.0" stop-color="rgb(55, 66, 29)" stop-opacity="1.0"/>
      <stop offset="1.0" stop-color="rgb(3, 0, 0)" stop-opacity="1.0"/>
    </radialGradient>
    <radialGradient id="shape_8_fill" cx="0.3382789091115889" cy="0.9439461883408071" r="0.06756690277190167">
      <stop offset="0.0" stop-color="rgb(91, 124, 45)" stop-opacity="1.0"/>
      <stop offset="1.0" stop-color="rgb(202, 239, 0)" stop-opacity="0.8839807510375977"/>
    </radialGradient>
    <radialGradient id="shape_9_fill" cx="0.30712166172106825" cy="0.9977578475336323" r="0.0730758406641929">
      <stop offset="0.0" stop-color="rgb(38, 48, 20)" stop-opacity="1.0"/>
      <stop offset="1.0" stop-color="rgb(0, 0, 0)" stop-opacity="1.0"/>
    </radialGradient>
    <radialGradient id="shape_10_fill" cx="0.3056379821958457" cy="0.9977578475336323" r="0.06792919147615971">
      <stop offset="0.0" stop-color="rgb(39, 49, 21)" stop-opacity="1.0"/>
      <stop offset="1.0" stop-color="rgb(0, 0, 0)" stop-opacity="1.0"/>
    </radialGradient>
    <radialGradient id="shape_11_fill" cx="0.21810089020771514" cy="0.968609865470852" r="0.06792919147615971">
      <stop offset="0.0" stop-color="rgb(138, 135, 129)" stop-opacity="1.0"/>
      <stop offset="1.0" stop-color="rgb(255, 255, 255)" stop-opacity="0.525326132774353"/>
    </radialGradient>
    <radialGradient id="shape_12_fill" cx="0.29080118694362017" cy="0.9977578475336323" r="0.07480746985189285">
      <stop offset="0.0" stop-color="rgb(22, 25, 13)" stop-opacity="1.0"/>
      <stop offset="1.0" stop-color="rgb(0, 0, 0)" stop-opacity="1.0"/>
    </radialGradient>
    <radialGradient id="shape_13_fill" cx="0.327893175074184" cy="0.8923766816143498" r="0.06900465877544279">
      <stop offset="0.0" stop-color="rgb(89, 117, 50)" stop-opacity="1.0"/>
      <stop offset="1.0" stop-color="rgb(211, 241, 0)" stop-opacity="0.8779469132423401"/>
    </radialGradient>
    <radialGradient id="shape_14_fill" cx="0.142433234421365" cy="0.9977578475336323" r="0.06617211022079875">
      <stop offset="0.0" stop-color="rgb(155, 150, 153)" stop-opacity="1.0"/>
      <stop offset="1.0" stop-color="rgb(255, 255, 255)" stop-opacity="0.5565247535705566"/>
    </radialGradient>
    <radialGradient id="shape_15_fill" cx="0.31008902077151335" cy="0.9977578475336323" r="0.06683642786405207">
      <stop offset="0.0" stop-color="rgb(43, 55, 23)" stop-opacity="1.0"/>
      <stop offset="1.0" stop-color="rgb(0, 0, 0)" stop-opacity="0.6651548147201538"/>
    </radialGradient>
    <radialGradient id="shape_16_fill" cx="0.27299703264094954" cy="0.9977578475336323" r="0.08110449363640579">
      <stop offset="0.0" stop-color="rgb(31, 35, 19)" stop-opacity="1.0"/>
      <stop offset="1.0" stop-color="rgb(0, 0, 0)" stop-opacity="1.0"/>
    </radialGradient>
    <radialGradient id="shape_17_fill" cx="0.2893175074183976" cy="0.9977578475336323" r="0.07513486030193747">
      <stop offset="0.0" stop-color="rgb(22, 23, 13)" stop-opacity="1.0"/>
      <stop offset="1.0" stop-color="rgb(0, 0, 0)" stop-opacity="0.611748993396759"/>
    </radialGradient>
    <radialGradient id="shape_18_fill" cx="0.3293768545994065" cy="0.7556053811659192" r="0.06617211022079875">
      <stop offset="0.0" stop-color="rgb(83, 108, 65)" stop-opacity="1.0"/>
      <stop offset="1.0" stop-color="rgb(203, 231, 0)" stop-opacity="0.6423687934875488"/>
    </radialGradient>
    <radialGradient id="shape_19_fill" cx="0.3516320474777448" cy="0.9977578475336323" r="0.06617211022079875">
      <stop offset="0.0" stop-color="rgb(95, 135, 39)" stop-opacity="1.0"/>
      <stop offset="1.0" stop-color="rgb(218, 255, 0)" stop-opacity="1.0"/>
    </radialGradient>
    <radialGradient id="shape_20_fill" cx="0.0830860534124629" cy="0.9977578475336323" r="0.06792919147615971">
      <stop offset="0.0" stop-color="rgb(49, 52, 66)" stop-opacity="1.0"/>
      <stop offset="1.0" stop-color="rgb(0, 0, 16)" stop-opacity="1.0"/>
    </radialGradient>
    <radialGradient id="shape_21_fill" cx="0.29821958456973297" cy="0.9977578475336323" r="0.06792919147615971">
      <stop offset="0.0" stop-color="rgb(33, 40, 17)" stop-opacity="1.0"/>
      <stop offset="1.0" stop-color="rgb(0, 0, 0)" stop-opacity="1.0"/>
    </radialGradient>
    <radialGradient id="shape_22_fill" cx="0.35632462317582764" cy="0.44375682197878713" r="0.06599378727310136">
      <stop offset="0.0" stop-color="rgb(208, 235, 0)" stop-opacity="0.6569214463233948"/>
      <stop offset="0.57640564" stop-color="rgb(230, 255, 0)" stop-opacity="0.863927960395813"/>
    </radialGradient>
    <radialGradient id="shape_23_fill" cx="0.6454005934718101" cy="0.1412556053811659" r="0.06617211022079875">
      <stop offset="0.0" stop-color="rgb(46, 38, 13)" stop-opacity="1.0"/>
      <stop offset="1.0" stop-color="rgb(0, 0, 0)" stop-opacity="1.0"/>
    </radialGradient>
    <radialGradient id="shape_24_fill" cx="0.24925816023738873" cy="0.484304932735426" r="0.06617211022079875">
      <stop offset="0.0" stop-color="rgb(201, 208, 206)" stop-opacity="1.0"/>
      <stop offset="1.0" stop-color="rgb(255, 255, 255)" stop-opacity="1.0"/>
    </radialGradient>
    <radialGradient id="shape_25_fill" cx="0.6320474777448071" cy="0.9977578475336323" r="0.06617211022079875">
      <stop offset="0.0" stop-color="rgb(35, 28, 8)" stop-opacity="1.0"/>
      <stop offset="1.0" stop-color="rgb(0, 0, 0)" stop-opacity="0.7950270771980286"/>
    </radialGradient>
    <radialGradient id="shape_26_fill" cx="0.15424045823094398" cy="0.3206909932363194" r="0.06613549705075228">
      <stop offset="0.0" stop-color="rgb(166, 174, 124)" stop-opacity="1.0"/>
      <stop offset="0.69998443" stop-color="rgb(200, 209, 167)" stop-opacity="0.5552816390991211"/>
    </radialGradient>
    <radialGradient id="shape_27_fill" cx="0.1541700391458121" cy="0.3207449121860111" r="0.06608317230858506">
      <stop offset="0.0" stop-color="rgb(174, 185, 0)" stop-opacity="1.0"/>
      <stop offset="0.6369647" stop-color="rgb(205, 214, 0)" stop-opacity="0.9187392592430115"/>
    </radialGradient>
    <radialGradient id="shape_28_fill" cx="0.041524428642114475" cy="0.02240646259667093" r="0.06617381381705537">
      <stop offset="0.0592051" stop-color="rgb(0, 0, 35)" stop-opacity="1.0"/>
      <stop offset="0.91262716" stop-color="rgb(0, 0, 38)" stop-opacity="0.9461328983306885"/>
    </radialGradient>
    <radialGradient id="shape_29_fill" cx="0.33976258863681147" cy="0.6659192825112108" r="0.06617211022079875">
      <stop offset="0.0" stop-color="rgb(90, 117, 55)" stop-opacity="1.0"/>
      <stop offset="1.0" stop-color="rgb(211, 241, 0)" stop-opacity="0.8315221071243286"/>
    </radialGradient>
    <radialGradient id="shape_30_fill" cx="0.04151236763340076" cy="0.02036948268189024" r="0.06615817582218159">
      <stop offset="0.105977155" stop-color="rgb(0, 0, 2)" stop-opacity="0.9185031652450562"/>
      <stop offset="0.96738255" stop-color="rgb(0, 10, 25)" stop-opacity="0.9409605860710144"/>
    </radialGradient>
    <radialGradient id="shape_31_fill" cx="0.12314540059347182" cy="0.9977578475336323" r="0.06617211022079875">
      <stop offset="0.0" stop-color="rgb(95, 103, 98)" stop-opacity="1.0"/>
      <stop offset="1.0" stop-color="rgb(216, 224, 220)" stop-opacity="0.5244317054748535"/>
    </radialGradient>
    <radialGradient id="shape_32_fill" cx="0.4035608308605341" cy="0.984304932735426" r="0.06617211022079875">
      <stop offset="0.0" stop-color="rgb(126, 155, 63)" stop-opacity="1.0"/>
      <stop offset="1.0" stop-color="rgb(242, 255, 0)" stop-opacity="0.8940104842185974"/>
    </radialGradient>
    <radialGradient id="shape_33_fill" cx="0.3249258160237389" cy="0.6053811659192825" r="0.06617211022079875">
      <stop offset="0.0" stop-color="rgb(93, 124, 71)" stop-opacity="1.0"/>
      <stop offset="1.0" stop-color="rgb(214, 246, 0)" stop-opacity="0.7100719809532166"/>
    </radialGradient>
    <radialGradient id="shape_34_fill" cx="0.6468842729970327" cy="0.531390134529148" r="0.06617211022079875">
      <stop offset="0.0" stop-color="rgb(54, 47, 24)" stop-opacity="1.0"/>
      <stop offset="1.0" stop-color="rgb(24, 0, 0)" stop-opacity="0.8198345303535461"/>
    </radialGradient>
    <radialGradient id="shape_35_fill" cx="0.14229488655792147" cy="0.23331908153311554" r="0.06613722894595002">
      <stop offset="0.0" stop-color="rgb(183, 186, 0)" stop-opacity="0.732500433921814"/>
      <stop offset="0.65439594" stop-color="rgb(191, 203, 0)" stop-opacity="0.5422346591949463"/>
    </radialGradient>
    <radialGradient id="shape_36_fill" cx="0.2878338278931751" cy="0.9977578475336323" r="0.06617211022079875">
      <stop offset="0.0" stop-color="rgb(80, 96, 53)" stop-opacity="1.0"/>
      <stop offset="1.0" stop-color="rgb(195, 209, 0)" stop-opacity="1.0"/>
    </radialGradient>
    <radialGradient id="shape_37_fill" cx="0.129080118694362" cy="0.9977578475336323" r="0.06617211022079875">
      <stop offset="0.0" stop-color="rgb(87, 97, 81)" stop-opacity="1.0"/>
      <stop offset="1.0" stop-color="rgb(207, 215, 190)" stop-opacity="0.5584228038787842"/>
    </radialGradient>
    <radialGradient id="shape_38_fill" cx="0.3384500384684486" cy="0.5606886517306614" r="0.0662926297513243">
      <stop offset="0.25848266" stop-color="rgb(181, 204, 0)" stop-opacity="1.0"/>
      <stop offset="0.8792576" stop-color="rgb(197, 228, 0)" stop-opacity="0.9953863620758057"/>
    </radialGradient>
    <radialGradient id="shape_39_fill" cx="0.40059347181008903" cy="0.9641255605381166" r="0.06617211022079875">
      <stop offset="0.0" stop-color="rgb(138, 168, 60)" stop-opacity="1.0"/>
      <stop offset="1.0" stop-color="rgb(255, 255, 0)" stop-opacity="1.0"/>
    </radialGradient>
    <radialGradient id="shape_40_fill" cx="0.6172238132012704" cy="0.8833994501909332" r="0.066163648837398">
      <stop offset="0.0" stop-color="rgb(0, 0, 0)" stop-opacity="1.0"/>
      <stop offset="0.84867257" stop-color="rgb(0, 0, 0)" stop-opacity="1.0"/>
    </radialGradient>
    <radialGradient id="shape_41_fill" cx="0.6454005934718101" cy="0.08744394618834081" r="0.06617211022079875">
      <stop offset="0.0" stop-color="rgb(58, 48, 21)" stop-opacity="1.0"/>
      <stop offset="1.0" stop-color="rgb(15, 0, 0)" stop-opacity="0.7485111951828003"/>
    </radialGradient>
    <radialGradient id="shape_42_fill" cx="0.5845697329376854" cy="0.6188340807174888" r="0.06617211022079875">
      <stop offset="0.0" stop-color="rgb(62, 59, 56)" stop-opacity="1.0"/>
      <stop offset="1.0" stop-color="rgb(0, 0, 0)" stop-opacity="1.0"/>
    </radialGradient>
    <radialGradient id="shape_43_fill" cx="0.357713195619668" cy="0.5065877597962795" r="0.0661079848201763">
      <stop offset="0.0" stop-color="rgb(225, 255, 0)" stop-opacity="1.0"/>
      <stop offset="0.65691787" stop-color="rgb(227, 255, 0)" stop-opacity="1.0"/>
    </radialGradient>
    <radialGradient id="shape_44_fill" cx="0.5934718100890207" cy="0.9977578475336323" r="0.06617211022079875">
      <stop offset="0.0" stop-color="rgb(89, 61, 18)" stop-opacity="1.0"/>
      <stop offset="1.0" stop-color="rgb(208, 0, 0)" stop-opacity="1.0"/>
    </radialGradient>
    <radialGradient id="shape_45_fill" cx="0.612759643916914" cy="0.04035874439461883" r="0.06617211022079875">
      <stop offset="0.0" stop-color="rgb(157, 136, 123)" stop-opacity="1.0"/>
      <stop offset="1.0" stop-color="rgb(255, 255, 235)" stop-opacity="1.0"/>
    </radialGradient>
    <radialGradient id="shape_46_fill" cx="0.28635014836795253" cy="0.9977578475336323" r="0.06617211022079875">
      <stop offset="0.0" stop-color="rgb(82, 99, 55)" stop-opacity="1.0"/>
      <stop offset="1.0" stop-color="rgb(199, 217, 0)" stop-opacity="0.5902566313743591"/>
    </radialGradient>
    <radialGradient id="shape_47_fill" cx="0.28635014836795253" cy="0.8183856502242153" r="0.06617211022079875">
      <stop offset="0.0" stop-color="rgb(166, 189, 197)" stop-opacity="1.0"/>
      <stop offset="1.0" stop-color="rgb(255, 255, 255)" stop-opacity="0.6344046592712402"/>
    </radialGradient>
    <radialGradient id="shape_48_fill" cx="0.40801186943620177" cy="0.9977578475336323" r="0.06617211022079875">
      <stop offset="0.0" stop-color="rgb(107, 135, 68)" stop-opacity="1.0"/>
      <stop offset="1.0" stop-color="rgb(227, 255, 0)" stop-opacity="0.5947345495223999"/>
    </radialGradient>
    <radialGradient id="shape_49_fill" cx="0.19287833827893175" cy="0.3991031390134529" r="0.06617211022079875">
      <stop offset="0.0" stop-color="rgb(92, 100, 54)" stop-opacity="1.0"/>
      <stop offset="1.0" stop-color="rgb(212, 220, 0)" stop-opacity="0.5429063439369202"/>
    </radialGradient>
    <radialGradient id="shape_50_fill" cx="0.6439169139465876" cy="0.7376681614349776" r="0.06617211022079875">
      <stop offset="0.0" stop-color="rgb(65, 56, 25)" stop-opacity="1.0"/>
      <stop offset="1.0" stop-color="rgb(92, 69, 133)" stop-opacity="1.0"/>
    </radialGradient>
    <radialGradient id="shape_51_fill" cx="0.5845697329376854" cy="0.6322869955156951" r="0.06617211022079875">
      <stop offset="0.0" stop-color="rgb(75, 68, 60)" stop-opacity="1.0"/>
      <stop offset="1.0" stop-color="rgb(184, 0, 0)" stop-opacity="1.0"/>
    </radialGradient>
    <radialGradient id="shape_52_fill" cx="0.2997032640949555" cy="0.6031390134529148" r="0.06617211022079875">
      <stop offset="0.0" stop-color="rgb(107, 158, 118)" stop-opacity="1.0"/>
      <stop offset="1.0" stop-color="rgb(228, 255, 240)" stop-opacity="1.0"/>
    </radialGradient>
    <radialGradient id="shape_53_fill" cx="0.6097922848664689" cy="0.45067264573991034" r="0.06617211022079875">
      <stop offset="0.0" stop-color="rgb(38, 39, 27)" stop-opacity="1.0"/>
      <stop offset="1.0" stop-color="rgb(0, 0, 0)" stop-opacity="0.7806049585342407"/>
    </radialGradient>
    <radialGradient id="shape_54_fill" cx="0.6335311572700296" cy="0.426009002822397" r="0.06617211022079875">
      <stop offset="0.0" stop-color="rgb(67, 49, 20)" stop-opacity="1.0"/>
      <stop offset="1.0" stop-color="rgb(151, 0, 0)" stop-opacity="1.0"/>
    </radialGradient>
    <radialGradient id="shape_55_fill" cx="0.3707945056768129" cy="0.598748040306194" r="0.06610949598363317">
      <stop offset="0.0" stop-color="rgb(252, 255, 0)" stop-opacity="0.8107060194015503"/>
      <stop offset="0.64863336" stop-color="rgb(255, 255, 0)" stop-opacity="0.8384844660758972"/>
    </radialGradient>
    <radialGradient id="shape_56_fill" cx="0.5489614243323442" cy="0.600896860986547" r="0.06617211022079875">
      <stop offset="0.0" stop-color="rgb(50, 62, 80)" stop-opacity="1.0"/>
      <stop offset="1.0" stop-color="rgb(0, 0, 171)" stop-opacity="1.0"/>
    </radialGradient>
    <radialGradient id="shape_57_fill" cx="0.4094955489614243" cy="0.9035874439461884" r="0.06617211022079875">
      <stop offset="0.0" stop-color="rgb(111, 144, 47)" stop-opacity="1.0"/>
      <stop offset="1.0" stop-color="rgb(232, 255, 0)" stop-opacity="0.8715077638626099"/>
    </radialGradient>
    <radialGradient id="shape_58_fill" cx="0.5281899109792285" cy="0.9977578475336323" r="0.06617211022079875">
      <stop offset="0.0" stop-color="rgb(50, 43, 14)" stop-opacity="1.0"/>
      <stop offset="1.0" stop-color="rgb(0, 0, 0)" stop-opacity="0.7591008543968201"/>
    </radialGradient>
    <radialGradient id="shape_59_fill" cx="0.5845697329376854" cy="0.7690582959641256" r="0.06617211022079875">
      <stop offset="0.0" stop-color="rgb(61, 63, 58)" stop-opacity="1.0"/>
      <stop offset="1.0" stop-color="rgb(85, 0, 64)" stop-opacity="1.0"/>
    </radialGradient>
    <radialGradient id="shape_60_fill" cx="0.5489614243323442" cy="0.9977578475336323" r="0.06617211022079875">
      <stop offset="0.0" stop-color="rgb(140, 131, 64)" stop-opacity="1.0"/>
      <stop offset="1.0" stop-color="rgb(255, 251, 0)" stop-opacity="1.0"/>
    </radialGradient>
    <radialGradient id="shape_61_fill" cx="0.6468863557991005" cy="0.9686045283159332" r="0.06617155556155241">
      <stop offset="0.0" stop-color="rgb(209, 46, 0)" stop-opacity="1.0"/>
      <stop offset="0.97221076" stop-color="rgb(210, 46, 0)" stop-opacity="1.0"/>
    </radialGradient>
    <radialGradient id="shape_62_fill" cx="0.615727002967359" cy="0.3991031390134529" r="0.06617211022079875">
      <stop offset="0.0" stop-color="rgb(55, 47, 13)" stop-opacity="1.0"/>
      <stop offset="1.0" stop-color="rgb(0, 0, 0)" stop-opacity="0.757841944694519"/>
    </radialGradient>
    <radialGradient id="shape_63_fill" cx="0.6261127596439169" cy="0.7286995515695067" r="0.06617211022079875">
      <stop offset="0.0" stop-color="rgb(79, 66, 32)" stop-opacity="1.0"/>
      <stop offset="1.0" stop-color="rgb(177, 149, 131)" stop-opacity="1.0"/>
    </radialGradient>
    <radialGradient id="shape_64_fill" cx="0.40801186943620177" cy="0.12556053811659193" r="0.06617211022079875">
      <stop offset="0.0" stop-color="rgb(76, 66, 59)" stop-opacity="1.0"/>
      <stop offset="1.0" stop-color="rgb(175, 0, 0)" stop-opacity="1.0"/>
    </radialGradient>
    <radialGradient id="shape_65_fill" cx="0.6528189910979229" cy="0.6883408071748879" r="0.06617211022079875">
      <stop offset="0.0" stop-color="rgb(121, 97, 39)" stop-opacity="1.0"/>
      <stop offset="1.0" stop-color="rgb(238, 210, 133)" stop-opacity="1.0"/>
    </radialGradient>
    <radialGradient id="shape_66_fill" cx="0.6490177867674333" cy="0.4617869287328335" r="0.06686424006340412">
      <stop offset="0.48671716" stop-color="rgb(186, 203, 0)" stop-opacity="0.46353697776794434"/>
      <stop offset="1.0" stop-color="rgb(98, 97, 56)" stop-opacity="0.43558353185653687"/>
    </radialGradient>
    <radialGradient id="shape_67_fill" cx="0.5937832795547803" cy="0.9965229119955157" r="0.06698595380924575">
      <stop offset="0.5702084" stop-color="rgb(23, 0, 0)" stop-opacity="1.0"/>
      <stop offset="1.0" stop-color="rgb(33, 46, 29)" stop-opacity="0.49799197912216187"/>
    </radialGradient>
    <radialGradient id="shape_68_fill" cx="0.4875094812772394" cy="0.9967712265493623" r="0.06698312957492002">
      <stop offset="0.3906261" stop-color="rgb(76, 47, 12)" stop-opacity="0.7402173280715942"/>
      <stop offset="1.0" stop-color="rgb(63, 84, 84)" stop-opacity="0.7012271285057068"/>
    </radialGradient>
  </defs>
  <g>
    <path d="M -0.2562107443809509 271.80718994140625 C 24.516700744628906 271.4439392089844 32.89375686645508 272.9101257324219 41.80610656738281 274.9297180175781 C 48.03853988647461 276.01202392578125 49.363338470458984 276.69708251953125 57.15083694458008 274.54595947265625 C 60.427146911621094 273.93902587890625 63.726009368896484 274.62994384765625 66.00184631347656 276.40106201171875 C 76.90226745605469 275.9768371582031 105.6059341430664 275.5213623046875 109.84712219238281 276.2574462890625 C 115.12420654296875 276.3883361816406 125.6095199584961 277.8250427246094 127.93097686767578 280.7218017578125 C 134.42013549804688 281.7672119140625 140.91017150878906 281.02728271484375 149.1798095703125 281.7330017089844 C 185.26385498046875 281.7624816894531 185.750732421875 282.56561279296875 202.15623474121094 283.8763427734375 C 201.6714630126953 290.92041015625 199.61758422851562 284.0859375 220.17311096191406 280.39715576171875 C 235.28285217285156 282.0958251953125 278.055419921875 281.4164733886719 302.1069641113281 286.5444641113281 C 336.39129638671875 287.8294677734375 417.99237060546875 287.5084228515625 458.0709533691406 285.7077941894531 C 481.45294189453125 285.3068542480469 530.8303833007812 286.5243225097656 540.4663696289062 287.1085205078125 C 549.3917236328125 287.1091613769531 550.9034423828125 283.90045166015625 560.318359375 283.8367614746094 C 568.549560546875 286.9652404785156 608.8197021484375 286.736083984375 617.0377807617188 287.3292236328125 C 641.111572265625 285.0972900390625 650.9971313476562 285.70172119140625 657.0589599609375 285.656982421875 C 661.8785400390625 286.68463134765625 670.6582641601562 288.73736572265625 673.5784912109375 290.3228759765625 C 674.1404418945312 340.81317138671875 673.8060302734375 392.6224670410156 673.9509887695312 445.251220703125 C 451.4404296875 445.3837585449219 229.16673278808594 445.378662109375 0.32002028822898865 445.3023681640625 C -0.31120309233665466 389.0978698730469 0.2991468906402588 332.3517150878906 -0.2562107443809509 271.80718994140625" stroke-width="0.0" fill="url(#shape_0_fill)"/>
    <path d="M -0.07723687589168549 274.61651611328125 C 35.934814453125 275.4013671875 36.55541229248047 274.5959167480469 44.41831588745117 276.91033935546875 C 56.703880310058594 277.9084167480469 67.90808868408203 276.59234619140625 76.75628662109375 277.831298828125 C 113.377197265625 278.68695068359375 113.97883605957031 279.3114929199219 125.98165893554688 280.3261413574219 C 130.2421417236328 280.71490478515625 154.46070861816406 280.7230224609375 157.32151794433594 281.0632629394531 C 185.02357482910156 280.5805358886719 185.5496063232422 281.9752197265625 196.40200805664062 284.1911315917969 C 201.13265991210938 288.6704406738281 202.47225952148438 287.82177734375 217.5701141357422 285.8587341308594 C 228.45155334472656 284.7326354980469 280.8997802734375 286.2760009765625 301.86834716796875 287.18408203125 C 328.6343994140625 288.9695739746094 441.93829345703125 286.7442626953125 447.170166015625 287.09771728515625 C 467.3186950683594 286.5264587402344 483.53448486328125 286.8174133300781 502.0814514160156 285.3288269042969 C 508.5069274902344 286.6748962402344 516.3099365234375 285.7412109375 522.811767578125 286.38336181640625 C 527.5335083007812 285.6748046875 531.8862915039062 285.8694152832031 535.1528930664062 286.98333740234375 C 544.0838012695312 286.5674743652344 551.7926635742188 287.6405029296875 560.2903442382812 287.2157287597656 C 569.546875 286.593017578125 579.722412109375 286.8184814453125 588.36181640625 287.939208984375 C 604.0098876953125 288.3669738769531 618.3071899414062 287.73846435546875 633.5359497070312 288.3072814941406 C 646.9248657226562 286.43756103515625 660.2652587890625 287.5350036621094 674.3233642578125 288.5664367675781 C 673.8129272460938 340.8739013671875 674.4070434570312 392.3052673339844 674.142822265625 446.2790222167969 C 451.4774169921875 446.3880310058594 229.19667053222656 446.2519836425781 -0.3053656220436096 446.2452392578125 C -0.211289182305336 389.404296875 -0.2907920181751251 333.03070068359375 -0.07723687589168549 274.61651611328125" stroke-width="0.0" fill="url(#shape_1_fill)"/>
    <path d="M -0.05689805746078491 -0.2581779658794403 C 219.69415283203125 0.09789758175611496 439.4743347167969 -0.43451035022735596 668.2263793945312 -0.4661969542503357 C 660.4536743164062 6.005995273590088 644.1298828125 34.85831069946289 637.0355224609375 46.82412338256836 C 635.0311889648438 52.56964874267578 609.8563842773438 92.00485229492188 582.9815673828125 82.66649627685547 C 576.8467407226562 82.00312805175781 559.3736572265625 68.91130828857422 529.5582885742188 70.0930404663086 C 528.5260009765625 71.03179931640625 525.7022094726562 73.54278564453125 523.2587890625 71.07148742675781 C 522.916015625 67.9386978149414 502.7560729980469 60.719627380371094 501.52178955078125 61.62006378173828 C 491.9289855957031 61.81243133544922 484.7165832519531 60.47080993652344 478.2450866699219 66.85862731933594 C 474.1939392089844 68.865478515625 474.7166442871094 73.19312286376953 473.2286071777344 75.94131469726562 C 473.731201171875 87.23464965820312 463.85687255859375 103.38166809082031 459.6894226074219 108.04679870605469 C 455.9204406738281 109.92019653320312 453.1026611328125 108.35475158691406 449.9560852050781 107.94180297851562 C 439.380615234375 104.16197204589844 411.5290832519531 101.49454498291016 409.876708984375 104.67962646484375 C 402.7608947753906 112.6875228881836 402.7024841308594 117.18250274658203 399.3193664550781 123.40423583984375 C 397.55316162109375 131.84063720703125 390.5760498046875 135.01979064941406 387.39154052734375 135.91986083984375 C 378.78912353515625 139.75164794921875 377.7832946777344 159.24105834960938 376.78533935546875 163.03219604492188 C 376.27777099609375 168.9080047607422 375.09197998046875 173.03329467773438 371.63836669921875 177.6423797607422 C 369.52630615234375 179.9833984375 366.2437438964844 179.08848571777344 353.55908203125 183.47509765625 C 347.3580017089844 191.00851440429688 336.3141784667969 182.22132873535156 322.1546936035156 180.9331512451172 C 314.5104064941406 181.42991638183594 313.91033935546875 187.81076049804688 312.2249450683594 190.3857421875 C 311.3368835449219 194.9822235107422 309.3916931152344 197.19873046875 307.8101501464844 201.49217224121094 C 307.1746520996094 201.23695373535156 303.5206604003906 199.7994384765625 302.4873352050781 196.90155029296875 C 299.5270080566406 193.02711486816406 296.0223388671875 194.39529418945312 292.70941162109375 191.89260864257812 C 291.9989318847656 193.83120727539062 290.22607421875 197.0520782470703 289.330078125 196.6842498779297 C 281.19281005859375 196.4112091064453 279.56842041015625 191.57916259765625 279.1008605957031 191.09779357910156 C 275.26397705078125 190.1937255859375 272.557861328125 191.5252685546875 269.05780029296875 190.60377502441406 C 262.4251708984375 189.53147888183594 261.34173583984375 195.7996368408203 260.5613708496094 197.74908447265625 C 260.9542236328125 199.24240112304688 260.9389343261719 200.9478302001953 257.3751525878906 200.99278259277344 C 256.31488037109375 201.28524780273438 250.95887756347656 200.98605346679688 250.753173828125 199.97776794433594 C 246.48960876464844 194.8900604248047 247.3045196533203 193.1076202392578 243.90016174316406 181.35887145996094 C 248.0164337158203 175.2395477294922 214.8022918701172 143.16439819335938 213.1291046142578 140.96267700195312 C 186.39639282226562 119.45555114746094 197.33958435058594 97.69772338867188 193.055419921875 88.70004272460938 C 194.1024932861328 83.80126190185547 156.61001586914062 72.6025619506836 145.664306640625 65.19285583496094 C 123.1178970336914 41.092041015625 62.764522552490234 51.81432342529297 37.79604721069336 61.350154876708984 C 17.045223236083984 71.11103820800781 13.608748435974121 67.22579193115234 -0.30058667063713074 68.00035095214844 C 0.34843891859054565 44.01774597167969 -0.3291010558605194 22.581480026245117 -0.05689805746078491 -0.2581779658794403" stroke-width="0.0" fill="url(#shape_2_fill)"/>
    <path d="M 86.27628326416016 68.48004913330078 C 88.2939224243164 69.63094329833984 92.40709686279297 68.5762939453125 93.69031524658203 68.92467498779297 C 91.7450942993164 74.78943634033203 93.24173736572266 81.36808776855469 93.34150695800781 83.6482925415039 C 96.67451477050781 82.5491714477539 98.56912231445312 84.3650131225586 103.15788269042969 83.57304382324219 C 104.61934661865234 79.0193099975586 107.02315521240234 77.8437271118164 109.07440185546875 79.25592803955078 C 112.70526885986328 86.65666961669922 114.11261749267578 92.68140411376953 115.71810150146484 99.57220458984375 C 116.7854232788086 100.06743621826172 117.23479461669922 108.33934020996094 117.0784683227539 113.33422088623047 C 122.05615234375 111.8118896484375 126.992919921875 112.4710922241211 127.88484191894531 109.41769409179688 C 128.01124572753906 106.29774475097656 135.98631286621094 105.08629608154297 136.36546325683594 104.47581481933594 C 136.59190368652344 103.69183349609375 135.53114318847656 101.79653930664062 136.98826599121094 97.97924041748047 C 136.4498748779297 93.24995422363281 137.46034240722656 92.87470245361328 137.08265686035156 88.89624786376953 C 137.2819061279297 84.95347595214844 138.634033203125 84.60277557373047 139.00845336914062 85.5740966796875 C 139.3076629638672 81.99332427978516 146.61631774902344 81.00106048583984 147.8653106689453 83.76463317871094 C 146.3816680908203 86.85311126708984 150.85227966308594 95.62074279785156 151.91322326660156 99.17408752441406 C 153.66659545898438 102.98806762695312 149.78604125976562 106.94453430175781 148.94248962402344 106.53282165527344 C 152.87704467773438 109.96247863769531 150.75222778320312 114.26802062988281 148.719970703125 113.44195556640625 C 155.18905639648438 112.609375 158.42127990722656 122.495361328125 158.28936767578125 123.00725555419922 C 162.06996154785156 124.63513946533203 164.79417419433594 123.31184387207031 170.1118927001953 123.14549255371094 C 175.25979614257812 119.314208984375 175.01451110839844 121.62921905517578 177.6274871826172 122.47294616699219 C 179.38905334472656 122.57125854492188 179.77310180664062 125.60261535644531 182.55648803710938 127.85501098632812 C 183.86959838867188 130.23023986816406 182.37806701660156 133.16571044921875 183.20919799804688 135.74407958984375 C 186.16845703125 136.0480499267578 188.51336669921875 142.36795043945312 189.24891662597656 144.70008850097656 C 192.07594299316406 146.476806640625 204.36793518066406 158.57838439941406 203.9314727783203 171.90196228027344 C 205.750732421875 173.60650634765625 205.15516662597656 177.5714569091797 206.8086700439453 181.35293579101562 C 208.70285034179688 182.1067657470703 212.900634765625 201.32000732421875 210.83740234375 203.2929229736328 C 210.73724365234375 207.87733459472656 203.28097534179688 207.9880828857422 203.1683807373047 210.2805938720703 C 200.80409240722656 210.5476837158203 199.92642211914062 211.68247985839844 200.27932739257812 213.63636779785156 C 196.7881622314453 216.1309814453125 194.33502197265625 216.16482543945312 191.7460479736328 219.32321166992188 C 184.29470825195312 221.12709045410156 183.59898376464844 224.79750061035156 179.06356811523438 230.53024291992188 C 176.16148376464844 233.62417602539062 179.0696563720703 240.0904998779297 178.6086883544922 242.32286071777344 C 177.3910675048828 248.643310546875 181.86428833007812 256.4626770019531 175.98345947265625 262.82086181640625 C 172.343505859375 266.0701599121094 147.00575256347656 266.3190612792969 140.52662658691406 267.5222473144531 C 129.16046142578125 265.62786865234375 122.89307403564453 267.6761779785156 113.64611053466797 268.8111267089844 C 105.5620346069336 273.21075439453125 76.14850616455078 272.09674072265625 73.58314514160156 269.7158203125 C 47.582496643066406 266.7113037109375 56.67283248901367 268.5403137207031 53.8385009765625 271.377197265625 C 43.18319320678711 274.0491638183594 0.664629340171814 271.94024658203125 -0.0829351618885994 269.9244689941406 C -0.3793029487133026 217.16610717773438 0.2006632685661316 166.4486083984375 -1.6277862787246704 116.10027313232422 C 9.50932502746582 117.47154235839844 16.199798583984375 118.2613754272461 25.288713455200195 124.34493255615234 C 31.1068115234375 126.4453125 37.1019172668457 127.56829071044922 41.765541076660156 130.56979370117188 C 45.71048355102539 132.2624053955078 47.00301742553711 135.58132934570312 50.121700286865234 137.89254760742188 C 50.90148162841797 142.1861114501953 61.92482376098633 143.63877868652344 62.463470458984375 141.66802978515625 C 62.02250289916992 136.6610565185547 63.00790786743164 133.8007049560547 62.75998306274414 126.15731811523438 C 65.64263153076172 122.43545532226562 64.85491180419922 119.26551818847656 64.15079498291016 112.3585205078125 C 67.35111236572266 110.87688446044922 67.64285278320312 104.42377471923828 73.65960693359375 104.36824035644531 C 73.26007843017578 101.42683410644531 74.64277648925781 89.70057678222656 74.52835845947266 85.19239807128906 C 78.00139617919922 84.166015625 79.21459197998047 73.12422943115234 85.57890319824219 73.48247528076172 C 83.00980377197266 70.17604064941406 84.91344451904297 67.55296325683594 86.27628326416016 68.48004913330078" stroke-width="0.0" fill="url(#shape_3_fill)"/>
    <path d="M 672.7247924804688 0.4482928514480591 C 674.2806396484375 49.16842269897461 674.0369262695312 96.31988525390625 675.0681762695312 144.24942016601562 C 667.309814453125 137.71104431152344 663.5345458984375 130.15159606933594 661.4749145507812 120.48031616210938 C 660.9403076171875 119.89826202392578 654.8468017578125 108.43470764160156 649.8859252929688 111.22943115234375 C 648.3919067382812 112.48338317871094 643.42578125 146.42324829101562 640.4500732421875 152.6330108642578 C 633.0404052734375 153.94725036621094 627.57275390625 140.86129760742188 627.89111328125 138.10791015625 C 622.1834106445312 137.01095581054688 617.9613037109375 146.12933349609375 614.6161499023438 144.44451904296875 C 611.2894287109375 141.90809631347656 610.5965576171875 144.10472106933594 608.1575927734375 140.67352294921875 C 607.5982666015625 137.41281127929688 608.2992553710938 133.5293426513672 602.0546264648438 129.07528686523438 C 598.1141357421875 133.70053100585938 597.6248168945312 139.4854278564453 595.190185546875 144.56719970703125 C 595.284423828125 149.04737854003906 593.2715454101562 150.78851318359375 593.34326171875 153.85426330566406 C 592.2369384765625 160.19395446777344 590.4213256835938 167.34970092773438 581.8258056640625 169.9901580810547 C 571.4479370117188 170.07791137695312 569.6571044921875 160.60269165039062 568.9752197265625 157.47511291503906 C 566.3908081054688 157.1005096435547 564.3226318359375 153.3428955078125 561.3826293945312 153.90234375 C 560.0042724609375 150.79864501953125 554.7285766601562 150.23902893066406 554.3175659179688 152.97750854492188 C 551.474365234375 155.63844299316406 550.8568725585938 159.2279510498047 548.3614501953125 161.60935974121094 C 546.0271606445312 159.02679443359375 541.4030151367188 161.70492553710938 535.8549194335938 154.54344177246094 C 531.6693115234375 154.62132263183594 529.8811645507812 157.7205352783203 524.2219848632812 157.78286743164062 C 517.9920043945312 161.2630615234375 520.8640747070312 161.32626342773438 522.5443115234375 169.7956085205078 C 517.4720458984375 170.05149841308594 515.8991088867188 164.5679473876953 516.6162719726562 171.90206909179688 C 509.6891174316406 173.41978454589844 512.4542236328125 175.04666137695312 505.6968688964844 174.3162384033203 C 503.11279296875 171.20965576171875 502.9360046386719 169.65231323242188 504.3088684082031 167.6219024658203 C 500.8381042480469 152.58737182617188 514.806884765625 128.48605346679688 524.134521484375 131.01959228515625 C 524.6452026367188 125.37969970703125 539.0697631835938 114.3537368774414 548.330322265625 112.66741180419922 C 558.4005737304688 110.33965301513672 556.0197143554688 109.76268005371094 556.7415771484375 106.1097412109375 C 562.4532470703125 106.22269439697266 566.75830078125 104.73593139648438 571.8519287109375 105.33928680419922 C 574.7420043945312 102.83014678955078 573.4443359375 97.53426361083984 578.9668579101562 94.15799713134766 C 581.6522827148438 89.23057556152344 601.9105834960938 79.33538055419922 612.9821166992188 78.35824584960938 C 615.63037109375 72.39884948730469 641.6088256835938 49.1681022644043 643.9967041015625 35.25648880004883 C 644.9496459960938 32.42341995239258 647.9835815429688 30.37335777282715 647.593505859375 29.493772506713867 C 646.7489624023438 28.240665435791016 663.4097290039062 -3.734785556793213 672.7247924804688 0.4482928514480591" stroke-width="0.0" fill="url(#shape_4_fill)"/>
    <path d="M 151.64825439453125 68.610107421875 C 152.30291748046875 68.89752960205078 187.75132751464844 82.582275390625 193.31968688964844 90.17313385009766 C 179.59674072265625 116.75621795654297 215.7447052001953 153.31248474121094 220.74838256835938 154.7810821533203 C 239.18115234375 169.576171875 242.97129821777344 184.59129333496094 241.25010681152344 194.08978271484375 C 237.7177734375 193.98672485351562 236.7769775390625 185.77944946289062 236.69204711914062 184.13320922851562 C 235.60357666015625 183.3751220703125 234.21900939941406 184.34786987304688 231.2594757080078 182.5845489501953 C 231.9245147705078 183.27577209472656 230.59056091308594 192.47195434570312 227.69329833984375 195.85513305664062 C 227.335205078125 195.86184692382812 226.7474822998047 205.4981689453125 221.32489013671875 207.75244140625 C 215.02476501464844 206.61903381347656 214.26039123535156 198.04489135742188 214.64190673828125 194.86753845214844 C 212.9550018310547 185.4110107421875 211.9041290283203 184.9630889892578 206.38262939453125 177.5762939453125 C 203.85093688964844 171.8152313232422 205.13389587402344 165.54319763183594 205.3406524658203 159.83445739746094 C 206.02120971679688 153.94625854492188 195.99407958984375 143.5587615966797 192.6997833251953 141.6514892578125 C 188.92083740234375 140.47340393066406 188.90472412109375 137.97869873046875 187.8551025390625 133.82632446289062 C 182.62318420410156 130.74462890625 183.8331756591797 123.19178771972656 183.67181396484375 117.99815368652344 C 178.89146423339844 116.09522247314453 177.93096923828125 117.89569854736328 173.72215270996094 117.8907241821289 C 174.4530029296875 125.19640350341797 170.2020263671875 128.66810607910156 156.45213317871094 125.38016510009766 C 154.48072814941406 122.16380310058594 151.77647399902344 102.26822662353516 153.42379760742188 96.59469604492188 C 152.88912963867188 88.58847045898438 153.7364501953125 82.95512390136719 150.1465301513672 76.32418060302734 C 148.493896484375 75.92821502685547 149.08035278320312 69.3134536743164 151.64825439453125 68.610107421875" stroke-width="0.0" fill="url(#shape_5_fill)"/>
    <path d="M 613.1832885742188 83.29727172851562 C 618.5824584960938 84.19397735595703 619.6257934570312 85.85160064697266 630.7656860351562 85.97177124023438 C 636.8663940429688 85.93743896484375 638.2584228515625 87.56851196289062 641.260009765625 87.78511047363281 C 642.1480712890625 87.50772857666016 669.1671142578125 91.84780883789062 673.5481567382812 97.87501525878906 C 673.7617797851562 112.56226348876953 673.40966796875 128.71405029296875 673.672607421875 143.67474365234375 C 669.41064453125 138.72142028808594 665.5714111328125 133.74990844726562 662.86962890625 126.77642822265625 C 660.5167846679688 121.31103515625 660.7039184570312 115.58751678466797 653.4666748046875 111.91840362548828 C 647.7487182617188 116.61717224121094 645.046875 142.373779296875 642.05419921875 143.2608642578125 C 643.40380859375 145.82086181640625 641.7342529296875 148.734619140625 640.3949584960938 148.75218200683594 C 639.6792602539062 150.8848419189453 638.0929565429688 151.9190216064453 633.6907348632812 149.80479431152344 C 631.2864379882812 146.69219970703125 628.8809204101562 141.53756713867188 629.6588134765625 140.98904418945312 C 628.923583984375 138.08094787597656 623.8278198242188 137.08331298828125 620.8388671875 138.5889434814453 C 618.2267456054688 140.55943298339844 619.24951171875 142.349365234375 618.7665405273438 144.10592651367188 C 614.5200805664062 144.47628784179688 614.1553955078125 143.12255859375 610.2623291015625 143.7364501953125 C 608.5615844726562 140.4004364013672 609.5962524414062 139.25088500976562 609.3182983398438 137.4505157470703 C 606.7435913085938 132.06365966796875 604.6264038085938 126.26846313476562 597.4859008789062 128.22393798828125 C 599.1010131835938 135.483642578125 593.4020385742188 148.8591766357422 592.20166015625 157.74317932128906 C 590.7671508789062 163.9419403076172 589.49267578125 164.2100372314453 585.4025268554688 167.93601989746094 C 581.9196166992188 169.9422607421875 578.5315551757812 169.4176025390625 574.7847900390625 168.49954223632812 C 571.8536376953125 166.48297119140625 570.9927978515625 162.02391052246094 569.8927612304688 158.04458618164062 C 568.8990478515625 153.84112548828125 558.0264282226562 152.04074096679688 556.305908203125 151.20535278320312 C 555.8097534179688 152.862548828125 553.073486328125 154.7040557861328 552.8731689453125 157.73968505859375 C 550.1109008789062 161.01356506347656 547.6065673828125 160.71632385253906 547.1724853515625 160.7191162109375 C 541.593994140625 159.93165588378906 539.2311401367188 156.89053344726562 536.1311645507812 156.98858642578125 C 534.81884765625 158.10546875 531.31298828125 156.1726531982422 528.7025146484375 157.8761444091797 C 525.7276611328125 158.94032287597656 526.3453979492188 161.79029846191406 524.4706420898438 164.50439453125 C 523.7488403320312 168.67611694335938 521.181640625 170.84654235839844 518.7243041992188 172.84286499023438 C 510.8998107910156 177.54263305664062 503.5068359375 173.16770935058594 503.03228759765625 172.05337524414062 C 498.4321594238281 151.26353454589844 513.9910888671875 130.2039337158203 521.9419555664062 127.3416976928711 C 527.3977661132812 122.61582946777344 541.2681884765625 113.91936492919922 551.9328002929688 112.07167053222656 C 555.3601684570312 109.85311126708984 559.9680786132812 109.70423889160156 563.7190551757812 106.65607452392578 C 564.6404418945312 104.54762268066406 566.8643188476562 103.60659790039062 569.67138671875 103.85871887207031 C 574.9166870117188 101.4748764038086 578.2451171875 96.99764251708984 583.1260375976562 93.8280029296875 C 591.9217529296875 85.15583038330078 600.2908935546875 78.80178833007812 613.1832885742188 83.29727172851562" stroke-width="0.0" fill="url(#shape_6_fill)"/>
    <path d="M 4.339838981628418 116.58200073242188 C 26.30392837524414 124.15691375732422 36.70092010498047 129.13648986816406 48.021484375 138.81309509277344 C 69.05897521972656 160.38287353515625 52.010257720947266 225.23304748535156 56.466773986816406 246.91226196289062 C 53.19869613647461 260.3075866699219 48.72095489501953 264.6861572265625 48.574134826660156 266.4249572753906 C 39.37323760986328 274.7010498046875 3.387106418609619 270.9169616699219 0.5601727962493896 269.30926513671875 C 0.6662226319313049 218.78082275390625 0.8430318236351013 167.89328002929688 4.339838981628418 116.58200073242188" stroke-width="0.0" fill="url(#shape_7_fill)"/>
    <path d="M 394.6285705566406 179.5596923828125 C 409.9891662597656 174.08419799804688 426.32623291015625 192.16616821289062 432.1021728515625 211.4972381591797 C 465.7500915527344 200.0701446533203 488.4610290527344 214.19430541992188 491.4114685058594 237.13677978515625 C 491.0028076171875 250.62530517578125 486.2142333984375 251.3462677001953 484.8584899902344 252.34947204589844 C 485.31634521484375 254.51312255859375 479.0793762207031 265.03521728515625 474.833740234375 268.47833251953125 C 469.0404357910156 272.93359375 453.2186279296875 266.709228515625 451.77001953125 269.15997314453125 C 446.38775634765625 266.2646484375 448.5786437988281 261.76861572265625 448.8827209472656 260.2477722167969 C 439.51336669921875 264.47027587890625 436.2288818359375 261.24993896484375 437.6897277832031 257.1340637207031 C 428.35791015625 257.13128662109375 426.6582946777344 259.5719299316406 421.2301025390625 262.24688720703125 C 418.5409240722656 264.26263427734375 417.4984130859375 267.5927734375 414.46929931640625 269.6376037597656 C 414.50189208984375 268.7629699707031 397.6913757324219 268.1726989746094 392.56121826171875 264.1300048828125 C 391.8506774902344 265.1209716796875 389.1485595703125 263.30328369140625 386.0592956542969 263.5141296386719 C 382.10552978515625 261.9396057128906 380.834228515625 263.1716613769531 376.7156066894531 260.9447021484375 C 375.090087890625 256.2545471191406 376.2948913574219 252.44354248046875 372.9373474121094 249.0902862548828 C 360.11181640625 244.4385528564453 376.5219421386719 198.19784545898438 378.3926696777344 182.48214721679688 C 383.7401123046875 171.9544677734375 395.7670593261719 176.0762176513672 394.6285705566406 179.5596923828125" stroke-width="0.0" fill="url(#shape_8_fill)"/>
    <path d="M 565.6304931640625 157.404541015625 C 568.6033325195312 158.9589385986328 570.0476684570312 161.8092041015625 570.5382080078125 165.35003662109375 C 574.0732421875 169.56173706054688 573.2304077148438 170.6979217529297 578.174072265625 174.39834594726562 C 581.0762939453125 174.26678466796875 582.4902954101562 176.54876708984375 582.483642578125 181.7100830078125 C 576.19287109375 178.2436065673828 572.9580078125 225.6431427001953 577.2506713867188 226.95346069335938 C 577.1611938476562 229.13693237304688 579.9612426757812 234.0950164794922 575.9287719726562 240.02113342285156 C 568.6396484375 238.66087341308594 566.1138305664062 237.34689331054688 558.3627319335938 245.06004333496094 C 550.4950561523438 252.11277770996094 494.9791259765625 254.42080688476562 493.0571594238281 250.11322021484375 C 490.1836242675781 244.41769409179688 488.9239807128906 238.23382568359375 488.630126953125 231.59085083007812 C 486.4515686035156 226.23133850097656 483.2066955566406 222.2576446533203 481.1520080566406 216.11053466796875 C 476.5965576171875 209.91998291015625 479.1854248046875 205.6731719970703 482.58837890625 205.985107421875 C 479.90435791015625 205.32217407226562 480.8390197753906 197.97174072265625 484.7336120605469 197.02362060546875 C 491.8424987792969 196.17555236816406 491.88226318359375 192.5174560546875 494.3732604980469 188.61001586914062 C 495.1932067871094 174.6874542236328 498.48358154296875 174.7358856201172 498.99884033203125 174.17689514160156 C 502.6387023925781 172.77438354492188 507.4349670410156 175.79119873046875 520.6770629882812 172.75201416015625 C 524.3638916015625 171.5418243408203 524.4507446289062 168.44049072265625 526.9650268554688 165.87307739257812 C 527.2230224609375 160.46163940429688 529.0526733398438 157.57887268066406 533.353515625 158.68089294433594 C 537.65673828125 161.82151794433594 541.4022827148438 162.44985961914062 542.2264404296875 163.9186553955078 C 545.3011474609375 164.01734924316406 546.0270385742188 165.65089416503906 549.3809814453125 166.34364318847656 C 548.7548217773438 165.6346435546875 551.4285888671875 157.1565704345703 555.3565063476562 156.51589965820312 C 558.93994140625 155.5091094970703 562.510498046875 155.30149841308594 565.6304931640625 157.404541015625" stroke-width="0.0" fill="url(#shape_9_fill)"/>
    <path d="M 561.33203125 155.70115661621094 C 568.29931640625 155.35032653808594 570.2289428710938 159.8164825439453 571.725341796875 166.63308715820312 C 573.2855224609375 170.2357940673828 575.5115966796875 171.20838928222656 578.6514282226562 176.40345764160156 C 579.4940795898438 178.02920532226562 578.3299560546875 187.2668914794922 577.2523193359375 191.5854949951172 C 572.0929565429688 197.2224578857422 572.0099487304688 230.814453125 577.7965698242188 230.58560180664062 C 575.8168334960938 230.8168182373047 575.8410034179688 236.83065795898438 571.98779296875 238.08433532714844 C 559.3988647460938 236.1996307373047 567.8494262695312 238.55056762695312 559.3020629882812 245.76377868652344 C 555.0128173828125 251.43600463867188 501.276123046875 248.9454803466797 500.1890563964844 251.4596405029297 C 491.09979248046875 251.83596801757812 488.0559387207031 236.6987762451172 488.1357421875 230.05361938476562 C 486.6153564453125 224.935791015625 481.9892578125 219.26705932617188 481.5096435546875 216.20826721191406 C 477.3125915527344 213.049560546875 477.80181884765625 210.7792510986328 477.39422607421875 206.17361450195312 C 477.0849914550781 203.1314239501953 482.433349609375 198.51637268066406 484.14727783203125 197.3003692626953 C 490.85772705078125 196.54739379882812 494.8731994628906 184.8359375 496.400634765625 182.7889404296875 C 495.963134765625 179.50531005859375 496.9021911621094 177.00938415527344 500.43377685546875 176.11282348632812 C 507.44720458984375 175.4885711669922 514.5570068359375 177.40536499023438 520.2576293945312 173.98211669921875 C 524.3565063476562 173.42974853515625 527.0904541015625 159.4318084716797 532.5317993164062 158.9492645263672 C 536.7557373046875 158.21408081054688 538.9286499023438 161.7279510498047 542.8472900390625 165.339599609375 C 545.1848754882812 164.88363647460938 548.662841796875 166.10299682617188 550.9696655273438 163.1461639404297 C 551.4075317382812 158.46083068847656 553.678466796875 153.8521270751953 561.33203125 155.70115661621094" stroke-width="0.0" fill="url(#shape_10_fill)"/>
    <path d="M 449.5533142089844 108.46050262451172 C 454.0535888671875 109.15162658691406 456.44512939453125 112.24962615966797 460.46258544921875 113.72975158691406 C 463.529296875 116.80497741699219 468.98394775390625 117.41915130615234 472.3418273925781 119.64412689208984 C 488.36590576171875 124.54105377197266 488.7998046875 125.249267578125 491.90228271484375 129.8263397216797 C 493.3736572265625 131.75599670410156 493.2257385253906 134.13134765625 496.5168151855469 136.43336486816406 C 493.80755615234375 134.55157470703125 492.4215087890625 135.91024780273438 487.9456787109375 134.2199249267578 C 484.2059326171875 133.2115936279297 482.4717712402344 135.1924285888672 479.10400390625 134.61366271972656 C 474.6368103027344 135.84823608398438 471.4179992675781 134.2240447998047 468.2672119140625 134.35557556152344 C 465.31365966796875 133.4961700439453 460.04998779296875 133.5036163330078 456.94879150390625 134.39532470703125 C 452.6328125 144.15469360351562 467.65118408203125 154.6811981201172 479.96295166015625 158.02720642089844 C 476.1548767089844 176.6056365966797 475.33587646484375 177.15484619140625 469.63897705078125 180.70547485351562 C 466.6419372558594 182.22238159179688 466.2743835449219 186.66424560546875 463.703125 188.4004364013672 C 460.3150634765625 187.35458374023438 455.7702941894531 180.4749755859375 454.2471923828125 177.33787536621094 C 448.2649230957031 179.4630584716797 447.52667236328125 182.7017364501953 439.8294982910156 183.17637634277344 C 439.561767578125 183.78329467773438 435.8684997558594 195.71043395996094 434.4742736816406 198.35418701171875 C 428.6091003417969 200.9103240966797 417.49627685546875 180.594482421875 417.64495849609375 179.66824340820312 C 417.0628662109375 179.62451171875 402.0082702636719 175.44442749023438 398.4403076171875 167.04193115234375 C 392.7071533203125 168.1640167236328 385.9186706542969 176.0019073486328 381.3101501464844 173.00904846191406 C 382.14312744140625 164.90553283691406 384.1738586425781 143.67294311523438 391.9132080078125 140.46017456054688 C 397.89166259765625 137.4165496826172 399.3617248535156 129.6723175048828 402.1958312988281 123.10820007324219 C 411.5078125 100.78946685791016 429.0223083496094 104.7613296508789 449.5533142089844 108.46050262451172" stroke-width="0.0" fill="url(#shape_11_fill)"/>
    <path d="M 601.6761474609375 129.2071990966797 C 606.2753295898438 130.38758850097656 607.5554809570312 140.1665496826172 609.44384765625 142.02252197265625 C 612.0736694335938 144.43759155273438 612.1824340820312 147.74948120117188 614.5724487304688 151.48431396484375 C 618.7852172851562 149.8394775390625 618.8990478515625 141.8878631591797 621.8357543945312 141.03016662597656 C 624.4246826171875 139.08688354492188 626.9022216796875 139.1739044189453 628.3427734375 140.16014099121094 C 627.7041015625 142.10540771484375 629.465087890625 144.58860778808594 629.7387084960938 147.7550811767578 C 632.3050537109375 149.8600616455078 631.5697021484375 151.04183959960938 635.6876831054688 154.21871948242188 C 640.4100952148438 156.19473266601562 638.8597412109375 161.98423767089844 640.3228149414062 172.3662567138672 C 637.2613525390625 183.6645965576172 639.052001953125 194.3011932373047 639.6217651367188 206.38319396972656 C 641.8903198242188 218.87867736816406 645.1099243164062 230.9809112548828 641.1249389648438 245.8990020751953 C 623.5067138671875 249.3257598876953 608.7131958007812 246.1492462158203 581.0415649414062 247.39981079101562 C 577.2743530273438 240.0946044921875 577.02294921875 227.1741943359375 574.9551391601562 218.17300415039062 C 571.5835571289062 215.25148010253906 577.7395629882812 168.05003356933594 586.5498657226562 168.99888610839844 C 595.22412109375 161.08226013183594 597.2723999023438 141.41065979003906 598.1226196289062 141.4893035888672 C 597.3451538085938 137.08377075195312 597.36572265625 135.29849243164062 601.6761474609375 129.2071990966797" stroke-width="0.0" fill="url(#shape_12_fill)"/>
    <path d="M 403.4560546875 178.44064331054688 C 420.1710510253906 177.725830078125 436.0378112792969 211.61659240722656 429.5923767089844 216.63632202148438 C 419.6356201171875 230.86175537109375 423.3394775390625 240.39759826660156 425.40899658203125 247.12319946289062 C 428.7384338378906 261.0386047363281 418.79052734375 263.7168884277344 415.0847473144531 268.25164794921875 C 406.1645202636719 269.22039794921875 396.0546875 268.8004455566406 392.6633605957031 267.6073303222656 C 386.4147644042969 262.8276672363281 384.30731201171875 264.0201416015625 381.5526123046875 262.2413635253906 C 377.691162109375 262.24359130859375 377.1210021972656 260.0173034667969 375.5893249511719 258.3918762207031 C 376.3254699707031 255.9515380859375 375.7205505371094 253.29855346679688 374.5157775878906 253.5017547607422 C 374.3615417480469 252.17636108398438 370.5278015136719 250.52194213867188 369.3324890136719 251.32974243164062 C 365.27191162109375 240.36920166015625 367.33154296875 226.58203125 369.6788330078125 222.73960876464844 C 370.6434326171875 220.2006378173828 372.9638366699219 204.38934326171875 375.873046875 201.29942321777344 C 376.24420166015625 198.8844451904297 378.1084289550781 181.0375213623047 382.8810729980469 177.96743774414062 C 390.75750732421875 173.20001220703125 394.3108825683594 173.65625 403.4560546875 178.44064331054688" stroke-width="0.0" fill="url(#shape_13_fill)"/>
    <path d="M 509.4031677246094 66.76710510253906 C 512.1043701171875 67.11457061767578 521.0765380859375 70.69902038574219 522.6026000976562 75.51607513427734 C 529.1336059570312 81.70355987548828 534.082275390625 81.65716552734375 536.9583129882812 89.47044372558594 C 539.6123046875 90.71822357177734 544.5526733398438 90.42164611816406 545.0225830078125 91.15634155273438 C 545.5330200195312 92.74211120605469 556.1017456054688 97.04463958740234 560.92138671875 96.40737915039062 C 564.0991821289062 97.93401336669922 567.5300903320312 97.47850799560547 568.482666015625 99.83699035644531 C 565.86669921875 104.11461639404297 552.8767700195312 110.80609893798828 546.8729858398438 110.12757110595703 C 541.7586669921875 112.15914916992188 539.3965454101562 114.99398040771484 533.8641967773438 117.13591003417969 C 527.0775146484375 120.07806396484375 525.6190185546875 120.70030975341797 515.42041015625 119.65921783447266 C 510.3015441894531 119.15078735351562 500.6264953613281 124.40664672851562 499.7432861328125 126.14461517333984 C 496.66326904296875 128.2814483642578 493.5144348144531 128.67433166503906 489.1343994140625 128.49728393554688 C 489.7122802734375 125.18699645996094 468.7716979980469 119.1286392211914 468.04864501953125 118.15912628173828 C 463.29412841796875 117.75282287597656 463.09326171875 116.4668960571289 460.310791015625 114.74031066894531 C 460.5562438964844 106.63714599609375 463.2560119628906 100.9569091796875 469.6353454589844 95.3408203125 C 473.7597351074219 89.50434875488281 472.4425354003906 84.24593353271484 473.0152893066406 82.00778198242188 C 474.5867614746094 70.93165588378906 475.3388366699219 70.38725280761719 478.26837158203125 66.3967514038086 C 479.06610107421875 64.23876953125 482.6770324707031 64.1784896850586 484.405517578125 62.24219512939453 C 493.50909423828125 62.146156311035156 500.96160888671875 63.523155212402344 509.4031677246094 66.76710510253906" stroke-width="0.0" fill="url(#shape_14_fill)"/>
    <path d="M 532.8345947265625 158.74842834472656 C 543.78076171875 162.91156005859375 544.0272827148438 163.9059295654297 546.701416015625 166.76528930664062 C 547.0139770507812 168.05433654785156 548.31884765625 170.26722717285156 544.5391845703125 182.22796630859375 C 543.166748046875 189.86988830566406 539.8236694335938 232.6025848388672 539.1129150390625 235.84652709960938 C 539.7196044921875 237.38414001464844 541.6787719726562 251.3275909423828 514.7382202148438 253.53314208984375 C 501.39495849609375 252.8581085205078 485.9532775878906 246.63192749023438 488.1654968261719 229.473876953125 C 478.12200927734375 216.8482666015625 477.00567626953125 203.9380340576172 484.2157287597656 198.9596710205078 C 487.2290954589844 197.12127685546875 488.8794860839844 198.01426696777344 490.7536315917969 196.9991455078125 C 491.12872314453125 192.54385375976562 492.8789978027344 183.08203125 494.34844970703125 180.44606018066406 C 496.4189147949219 178.8141632080078 498.5438537597656 176.36947631835938 502.1628723144531 176.0913543701172 C 507.29681396484375 175.65391540527344 511.5533752441406 179.49472045898438 522.6589965820312 172.56439208984375 C 525.5379638671875 170.95167541503906 525.5429077148438 167.3108367919922 526.9539794921875 165.09609985351562 C 527.5980834960938 161.69273376464844 530.9044799804688 160.5250244140625 532.8345947265625 158.74842834472656" stroke-width="0.0" fill="url(#shape_15_fill)"/>
    <path d="M 650.295166015625 112.32157897949219 C 657.2890014648438 109.8787841796875 663.8296508789062 121.27316284179688 662.7637329101562 126.23829650878906 C 665.569580078125 133.19569396972656 666.15771484375 139.3760223388672 673.7261352539062 147.9659881591797 C 675.7200927734375 179.74649047851562 673.9483032226562 212.3438262939453 674.3531494140625 247.96295166015625 C 669.564208984375 245.3078155517578 652.3057861328125 252.62767028808594 643.1480102539062 243.93658447265625 C 635.9461059570312 240.08584594726562 636.2146606445312 117.71920013427734 650.295166015625 112.32157897949219" stroke-width="0.0" fill="url(#shape_16_fill)"/>
    <path d="M 599.6436767578125 129.50648498535156 C 603.5114135742188 127.48397064208984 608.4205322265625 131.37254333496094 607.0164794921875 133.9404754638672 C 608.4486083984375 135.05323791503906 608.5136108398438 138.93284606933594 611.8092651367188 148.1150360107422 C 621.2296752929688 137.63955688476562 620.0716552734375 231.9613494873047 616.5891723632812 242.89637756347656 C 597.9074096679688 251.23280334472656 576.1070556640625 246.5052947998047 582.0540771484375 236.95799255371094 C 562.4405517578125 225.09523010253906 593.4069213867188 150.37632751464844 599.6436767578125 129.50648498535156" stroke-width="0.0" fill="url(#shape_17_fill)"/>
    <path d="M 321.39599609375 186.3258056640625 C 322.4639587402344 185.6712646484375 324.3355712890625 187.692626953125 327.74365234375 187.90603637695312 C 332.3215026855469 189.25912475585938 337.13031005859375 188.88584899902344 340.43048095703125 190.55682373046875 C 342.17333984375 195.90692138671875 347.83367919921875 194.4777069091797 353.56561279296875 193.7020721435547 C 356.9419860839844 195.13623046875 357.9229736328125 198.45986938476562 358.95977783203125 200.65118408203125 C 359.90924072265625 203.67958068847656 362.1032409667969 203.66200256347656 363.3774108886719 206.0211944580078 C 367.260498046875 206.9451141357422 368.4784851074219 208.1983642578125 368.41082763671875 211.80198669433594 C 369.47052001953125 216.8022003173828 368.60626220703125 221.73184204101562 366.5174560546875 225.55035400390625 C 366.8387451171875 231.48703002929688 365.3646545410156 235.2388458251953 366.5085754394531 241.11585998535156 C 367.2884216308594 246.90042114257812 364.45428466796875 255.3922882080078 355.7225646972656 254.46505737304688 C 353.08349609375 254.78321838378906 330.83526611328125 254.76878356933594 324.3656921386719 254.29502868652344 C 313.5392150878906 255.47119140625 312.3332214355469 253.2438201904297 313.763427734375 237.3001708984375 C 307.075439453125 228.87310791015625 317.1286315917969 189.75616455078125 321.39599609375 186.3258056640625" stroke-width="0.0" fill="url(#shape_18_fill)"/>
    <path d="M 481.3846740722656 216.60829162597656 C 491.2762451171875 241.31329345703125 494.5384826660156 247.9422149658203 478.4680480957031 267.3992919921875 C 470.11456298828125 277.91473388671875 443.9978942871094 261.317138671875 442.1556396484375 261.6669006347656 C 438.6427307128906 260.6290283203125 437.17633056640625 258.1453857421875 432.5935363769531 257.9293518066406 C 429.64947509765625 258.1914978027344 427.64361572265625 257.7113342285156 426.5252990722656 254.36019897460938 C 420.3884582519531 246.5093536376953 419.48773193359375 237.3644561767578 422.44024658203125 228.47738647460938 C 423.86895751953125 224.00302124023438 420.95025634765625 228.9235076904297 421.8717956542969 225.85574340820312 C 427.6891174316406 219.41351318359375 429.6632385253906 218.77186584472656 429.6022033691406 215.78195190429688 C 439.30157470703125 201.39524841308594 464.38397216796875 205.71347045898438 481.3846740722656 216.60829162597656" stroke-width="0.0" fill="url(#shape_19_fill)"/>
    <path d="M 673.7345581054688 -0.6033512353897095 C 674.5263671875 33.30845642089844 674.4356079101562 64.8432388305664 674.1810302734375 97.30091094970703 C 669.6724853515625 96.3011703491211 653.5901489257812 87.07691192626953 642.88671875 91.16719818115234 C 638.5814819335938 89.58438873291016 638.3836059570312 85.82112884521484 637.9864501953125 84.746337890625 C 631.1256103515625 86.39080047607422 622.6676635742188 88.484375 611.5931396484375 82.2110824584961 C 611.246826171875 78.46131896972656 613.4447021484375 75.59559631347656 615.2086181640625 73.14188385009766 C 623.2127075195312 70.30208587646484 650.656494140625 26.083681106567383 650.1317749023438 22.495603561401367 C 655.8052368164062 14.990668296813965 657.6397094726562 6.364939212799072 667.5266723632812 3.2668380737304688 C 669.7486572265625 2.601149082183838 670.3218994140625 1.3532514572143555 673.7345581054688 -0.6033512353897095" stroke-width="0.0" fill="url(#shape_20_fill)"/>
    <path d="M 563.3646240234375 155.6986083984375 C 569.7317504882812 156.75999450683594 569.538330078125 164.38638305664062 572.4375610351562 167.76458740234375 C 585.1536254882812 166.057373046875 573.29931640625 229.92652893066406 574.268310546875 239.10662841796875 C 569.5811767578125 239.21099853515625 565.2553100585938 241.5618133544922 563.8626708984375 244.69976806640625 C 557.69287109375 248.99002075195312 542.925537109375 250.91090393066406 540.147705078125 246.1479034423828 C 544.5081787109375 244.80372619628906 539.26416015625 160.45884704589844 554.2554321289062 157.09251403808594 C 556.367919921875 153.23309326171875 558.3189086914062 153.56826782226562 563.3646240234375 155.6986083984375" stroke-width="0.0" fill="url(#shape_21_fill)"/>
    <path d="M 215.358642578125 211.76589965820312 C 223.37940979003906 220.65089416503906 224.07044982910156 252.4630889892578 217.9429168701172 254.40109252929688 C 210.7422332763672 262.4949645996094 207.99530029296875 263.7998046875 205.21908569335938 272.1923828125 C 205.36752319335938 276.02960205078125 206.6079559326172 276.2345886230469 206.82106018066406 280.0714111328125 C 207.03919982910156 283.18072509765625 204.06068420410156 285.08660888671875 200.82676696777344 284.6947021484375 C 201.69944763183594 283.29937744140625 196.72720336914062 265.7765808105469 190.34158325195312 263.3617248535156 C 186.77853393554688 260.64599609375 184.6131591796875 261.5751037597656 182.18853759765625 259.9407958984375 C 180.9678497314453 260.6030578613281 178.6314239501953 260.79205322265625 177.23284912109375 256.2667541503906 C 178.34645080566406 251.01953125 170.10389709472656 242.32052612304688 170.72459411621094 236.2997283935547 C 177.71214294433594 219.41004943847656 183.7109375 218.7876434326172 188.60549926757812 219.8245391845703 C 193.8889617919922 217.5032958984375 193.47071838378906 215.45318603515625 196.2111053466797 212.03306579589844 C 197.05316162109375 208.05551147460938 196.94366455078125 206.28392028808594 203.22557067871094 205.2249298095703 C 208.73739624023438 204.9920196533203 212.91123962402344 206.55213928222656 215.358642578125 211.76589965820312" stroke-width="0.0" fill="url(#shape_22_fill)"/>
    <path d="M 111.5211410522461 426.4265441894531 C 112.7164306640625 429.27081298828125 110.99800109863281 431.1778564453125 110.67713928222656 431.706298828125 C 106.60050201416016 435.9566345214844 102.2435302734375 436.62872314453125 93.53056335449219 434.3964538574219 C 87.2642822265625 439.4433288574219 99.32681274414062 446.9516296386719 87.27815246582031 448.40557861328125 C 78.85169219970703 445.13653564453125 46.64330291748047 447.7347106933594 25.369428634643555 449.2640380859375 C 13.594670295715332 446.4268493652344 14.274187088012695 440.01318359375 17.13004493713379 435.8185119628906 C 34.52234649658203 428.2442626953125 51.101505279541016 425.9967346191406 70.23641204833984 425.237548828125 C 75.69432067871094 425.1766357421875 107.52320861816406 417.5079040527344 111.5211410522461 426.4265441894531" stroke-width="0.0" fill="url(#shape_23_fill)"/>
    <path d="M 196.2519989013672 123.17643737792969 C 201.05274963378906 123.3304443359375 210.81298828125 143.3556365966797 213.11134338378906 145.57205200195312 C 215.44488525390625 148.3055419921875 218.46484375 149.76319885253906 219.72055053710938 153.70370483398438 C 227.6791229248047 157.08641052246094 248.13442993164062 179.69444274902344 244.3226318359375 199.60183715820312 C 239.04747009277344 199.7080078125 235.46812438964844 187.41360473632812 234.22677612304688 182.69680786132812 C 231.61636352539062 183.73936462402344 230.40838623046875 193.04232788085938 228.91310119628906 195.16114807128906 C 226.7968292236328 200.37554931640625 227.3965606689453 203.670166015625 221.0649871826172 208.2976837158203 C 215.20559692382812 207.6072540283203 213.75465393066406 199.75473022460938 214.64585876464844 195.84530639648438 C 212.7307586669922 189.4897918701172 212.68870544433594 182.7880401611328 207.30963134765625 178.29306030273438 C 204.0548858642578 174.02072143554688 205.1623077392578 173.04005432128906 204.6942138671875 165.9139862060547 C 205.9494171142578 151.00576782226562 199.94944763183594 149.41717529296875 194.34603881835938 144.71792602539062 C 189.41734313964844 139.96875 190.09571838378906 127.45719909667969 196.2519989013672 123.17643737792969" stroke-width="0.0" fill="url(#shape_24_fill)"/>
    <path d="M 594.6113891601562 413.6560363769531 C 597.1151123046875 415.54425048828125 624.7528686523438 412.4761047363281 627.7635498046875 418.951416015625 C 628.4090576171875 420.8060607910156 625.829345703125 424.9227600097656 627.4595947265625 427.8237609863281 C 629.0263061523438 430.260498046875 632.262939453125 430.3994140625 633.8876342773438 435.8193664550781 C 615.5481567382812 446.57421875 579.01611328125 439.6910705566406 578.1432495117188 430.902099609375 C 571.1778564453125 423.0288391113281 574.2340087890625 417.28173828125 575.0443115234375 414.6494140625 C 580.4818115234375 410.36114501953125 587.192626953125 412.3973693847656 594.6113891601562 413.6560363769531" stroke-width="0.0" fill="url(#shape_25_fill)"/>
    <path d="M 142.93820190429688 66.69950866699219 C 144.06788635253906 68.91903686523438 149.1746368408203 68.53878784179688 149.63050842285156 69.1236343383789 C 148.90814208984375 70.91243743896484 150.45755004882812 71.8101806640625 149.7952880859375 73.8526840209961 C 151.0233917236328 74.44575500488281 150.50347900390625 78.08010864257812 152.8302459716797 82.1602783203125 C 153.49526977539062 89.58415985107422 153.2246551513672 97.06497955322266 154.15965270996094 104.05095672607422 C 153.57437133789062 107.61849212646484 155.14793395996094 108.50908660888672 155.2305450439453 111.61949157714844 C 157.88803100585938 122.16065979003906 155.40521240234375 133.8037872314453 150.28211975097656 133.22239685058594 C 139.8787384033203 130.363037109375 133.30250549316406 124.48839569091797 125.75011444091797 117.22721099853516 C 122.40609741210938 114.4792709350586 124.83585357666016 109.8866195678711 126.92821502685547 107.16507720947266 C 128.83973693847656 106.84819793701172 128.87646484375 105.28855895996094 132.6099853515625 104.61603546142578 C 137.6005401611328 97.24683380126953 133.96517944335938 92.21914672851562 133.35459899902344 90.33494567871094 C 134.20956420898438 88.8934326171875 139.28428649902344 87.10089874267578 140.03741455078125 85.30770111083984 C 138.17405700683594 84.75733184814453 138.84371948242188 77.60042572021484 139.4736785888672 77.4268569946289 C 143.46766662597656 76.66854095458984 142.731689453125 70.15943908691406 142.93820190429688 66.69950866699219" stroke-width="0.0" fill="url(#shape_26_fill)"/>
    <path d="M 144.50442504882812 67.65361022949219 C 149.30613708496094 68.22855377197266 150.26031494140625 70.5406265258789 149.78945922851562 74.66510772705078 C 151.9866180419922 76.712890625 151.5716094970703 79.57086181640625 154.33355712890625 81.66078186035156 C 153.32733154296875 88.85126495361328 153.6900634765625 96.48323059082031 153.30821228027344 103.74078369140625 C 154.65956115722656 104.749755859375 153.54745483398438 108.49268341064453 155.52474975585938 110.51917266845703 C 155.69496154785156 117.85285186767578 156.25839233398438 121.76671600341797 155.10084533691406 126.13973999023438 C 152.6797637939453 132.05581665039062 151.3670654296875 133.1722869873047 147.4420928955078 133.3431854248047 C 140.7579803466797 132.89979553222656 128.11805725097656 121.31465911865234 126.65530395507812 120.50630950927734 C 123.88644409179688 118.21003723144531 122.48625183105469 112.38284301757812 128.44918823242188 110.38231658935547 C 124.11483764648438 108.92857360839844 124.28279876708984 106.06649780273438 131.04747009277344 105.77369689941406 C 135.2261962890625 105.24748229980469 134.41819763183594 91.45845794677734 134.8362274169922 89.48069763183594 C 139.36770629882812 87.06659698486328 138.34893798828125 84.68316650390625 138.2863311767578 81.6998519897461 C 139.08763122558594 77.44770812988281 140.3527374267578 76.81808471679688 141.58692932128906 76.46621704101562 C 144.33026123046875 71.19100189208984 143.2307586669922 68.31051635742188 144.50442504882812 67.65361022949219" stroke-width="0.0" fill="url(#shape_27_fill)"/>
    <path d="M -0.3039079010486603 -0.2681090831756592 C 4.698676586151123 0.37863755226135254 9.643098831176758 -0.5221591591835022 16.429067611694336 -0.17144447565078735 C 17.66842269897461 -0.007042327895760536 18.430252075195312 13.080426216125488 29.72393035888672 20.432241439819336 C 28.947683334350586 24.449565887451172 27.053831100463867 24.86768913269043 26.657724380493164 28.50803565979004 C 31.31028175354004 33.442840576171875 38.00932693481445 34.21430587768555 40.319862365722656 38.54330062866211 C 36.647369384765625 38.943599700927734 33.757930755615234 38.36098098754883 31.63489532470703 35.39537048339844 C 25.840547561645508 30.99285125732422 17.71171760559082 32.62923812866211 10.44780445098877 33.449344635009766 C 9.069725036621094 37.178409576416016 12.539895057678223 40.238094329833984 12.492094993591309 41.571250915527344 C 13.617511749267578 42.071651458740234 14.124625205993652 48.037052154541016 18.0391902923584 47.97376251220703 C 20.062877655029297 51.09067153930664 18.740629196166992 52.29313278198242 19.749799728393555 56.94847869873047 C 16.819997787475586 58.774757385253906 9.799362182617188 60.34014892578125 8.909745216369629 61.148006439208984 C 5.502199172973633 60.878238677978516 3.5307345390319824 59.14468765258789 0.32479429244995117 59.431312561035156 C -0.3153946101665497 39.773826599121094 -0.3231358826160431 19.62933921813965 -0.3039079010486603 -0.2681090831756592" stroke-width="0.0" fill="url(#shape_28_fill)"/>
    <path d="M 297.9510803222656 196.1765899658203 C 297.8592529296875 198.26246643066406 299.8367919921875 201.73704528808594 300.4447326660156 206.85464477539062 C 300.34100341796875 209.58831787109375 316.8553466796875 234.39166259765625 310.68310546875 249.7910919189453 C 310.0563659667969 251.0458221435547 309.06256103515625 253.93763732910156 306.12213134765625 254.37432861328125 C 298.4500732421875 256.1378173828125 295.1676330566406 256.13873291015625 286.0124816894531 255.2142333984375 C 285.3629455566406 234.6922149658203 287.5345458984375 213.83668518066406 297.9510803222656 196.1765899658203" stroke-width="0.0" fill="url(#shape_29_fill)"/>
    <path d="M -0.4784031808376312 0.157353475689888 C 4.431301593780518 0.44925957918167114 9.521723747253418 -0.41315340995788574 14.51113224029541 0.14262975752353668 C 15.680192947387695 0.4946441650390625 16.10959243774414 5.592535018920898 16.11048698425293 8.067383766174316 C 18.981212615966797 10.755717277526855 22.24904441833496 18.693084716796875 27.711008071899414 20.236562728881836 C 28.931577682495117 23.064603805541992 25.960803985595703 27.751941680908203 24.778518676757812 31.33538246154785 C 21.159664154052734 33.073020935058594 15.90425968170166 32.69049072265625 8.017073631286621 34.262168884277344 C 9.567856788635254 35.45736312866211 8.60319995880127 38.06581497192383 11.539291381835938 40.35270309448242 C 13.153929710388184 42.74811935424805 12.83590316772461 48.39445495605469 16.051143646240234 50.13992691040039 C 18.573223114013672 51.44650650024414 19.77090072631836 53.55806350708008 18.410755157470703 56.756832122802734 C 12.231926918029785 59.98339080810547 7.255795955657959 60.34446716308594 0.2587715685367584 60.23765182495117 C -0.3909279704093933 39.9117546081543 -0.35205408930778503 19.74936866760254 -0.4784031808376312 0.157353475689888" stroke-width="0.0" fill="url(#shape_30_fill)"/>
    <path d="M 544.53564453125 72.18404388427734 C 549.7911987304688 70.81661987304688 582.4016723632812 83.90044403076172 586.0523681640625 86.80303955078125 C 582.59375 93.81623077392578 580.0698852539062 94.23413848876953 577.3101806640625 98.28587341308594 C 573.2367553710938 100.72024536132812 572.1432495117188 99.99073791503906 569.550537109375 97.39466094970703 C 566.6834106445312 96.27723693847656 544.5238037109375 93.6487808227539 538.5196533203125 88.50560760498047 C 538.5787353515625 85.49124145507812 537.4703979492188 83.3568115234375 535.5445556640625 82.61841583251953 C 535.24169921875 79.0234146118164 531.4057006835938 79.24264526367188 527.4829711914062 78.10245513916016 C 524.9832763671875 75.97392272949219 527.8988037109375 70.7808609008789 530.5390625 70.20054626464844 C 534.8511352539062 68.08740234375 539.313232421875 70.08692932128906 544.53564453125 72.18404388427734" stroke-width="0.0" fill="url(#shape_31_fill)"/>
    <path d="M 448.5926208496094 263.9216613769531 C 450.64447021484375 265.2824401855469 451.3446044921875 266.67657470703125 456.0105285644531 267.6385498046875 C 461.0630187988281 267.4131774902344 465.8199462890625 269.76971435546875 469.9224853515625 273.3137512207031 C 470.4440612792969 275.6796569824219 471.81451416015625 276.84661865234375 471.6685485839844 280.63653564453125 C 447.45330810546875 287.453369140625 428.4439392089844 284.6520080566406 416.19927978515625 283.87969970703125 C 413.3825378417969 273.900390625 415.3291320800781 272.3746032714844 415.7383117675781 268.27093505859375 C 418.1870422363281 267.20428466796875 417.78326416015625 264.81121826171875 419.3302001953125 263.0569152832031 C 428.88201904296875 254.31216430664062 438.978759765625 258.69854736328125 448.5926208496094 263.9216613769531" stroke-width="0.0" fill="url(#shape_32_fill)"/>
    <path d="M 269.5600891113281 190.5896453857422 C 281.4801940917969 191.07545471191406 283.4649658203125 241.15992736816406 278.531005859375 243.8849639892578 C 276.5897521972656 247.20370483398438 273.8103332519531 246.63087463378906 269.9669189453125 248.26515197753906 C 266.4663391113281 245.8157501220703 266.831298828125 241.95004272460938 265.12274169921875 240.38848876953125 C 259.5664978027344 206.52182006835938 259.40667724609375 200.7041015625 269.5600891113281 190.5896453857422" stroke-width="0.0" fill="url(#shape_33_fill)"/>
    <path d="M 252.76353454589844 425.97894287109375 C 254.6513671875 428.9442443847656 261.8818054199219 433.46527099609375 261.29986572265625 438.542236328125 C 259.4810485839844 440.5701904296875 259.3799743652344 443.95880126953125 252.0733184814453 444.5388488769531 C 246.7232666015625 444.1036071777344 220.27955627441406 446.6979675292969 212.600830078125 444.5370178222656 C 213.0276336669922 436.99267578125 213.9570770263672 436.2255554199219 215.94017028808594 434.4766845703125 C 216.16610717773438 433.3669128417969 225.0281982421875 433.38287353515625 226.5857696533203 430.29949951171875 C 233.279296875 426.1356506347656 242.6457061767578 423.5648193359375 252.76353454589844 425.97894287109375" stroke-width="0.0" fill="url(#shape_34_fill)"/>
    <path d="M 105.43304443359375 69.91769409179688 C 109.49363708496094 70.0707778930664 112.498046875 78.21943664550781 110.68955993652344 83.24068450927734 C 115.73743438720703 85.45289611816406 116.9280014038086 110.3189468383789 116.88814544677734 110.90126037597656 C 115.43711853027344 112.12059020996094 109.6254653930664 112.03314971923828 107.90755462646484 115.83582305908203 C 105.4946060180664 116.52361297607422 96.73112487792969 118.71408081054688 92.66046905517578 112.97256469726562 C 91.9011459350586 85.474853515625 103.5400619506836 84.27335357666016 105.43304443359375 69.91769409179688" stroke-width="0.0" fill="url(#shape_35_fill)"/>
    <path d="M 451.77978515625 178.01210021972656 C 453.3110656738281 175.88150024414062 456.6109313964844 177.4008026123047 457.0338134765625 179.65908813476562 C 457.7714538574219 179.66632080078125 457.935546875 183.9363555908203 459.69287109375 185.15988159179688 C 459.85076904296875 189.38429260253906 463.4083251953125 193.10118103027344 461.47454833984375 205.7633514404297 C 458.7762451171875 208.1109161376953 454.2835388183594 207.52847290039062 449.8310241699219 206.81398010253906 C 441.0411376953125 207.3917999267578 440.1529541015625 208.9347686767578 435.8275451660156 208.86923217773438 C 434.0314025878906 208.42453002929688 437.54925537109375 188.93186950683594 439.9414978027344 185.81089782714844 C 441.364990234375 182.08787536621094 445.526123046875 182.6699676513672 447.1463317871094 180.927490234375 C 449.3004150390625 177.24771118164062 449.31646728515625 180.4854736328125 451.77978515625 178.01210021972656" stroke-width="0.0" fill="url(#shape_36_fill)"/>
    <path d="M 557.071044921875 81.64871215820312 C 563.177734375 80.89984893798828 583.0653686523438 83.02639770507812 576.8214111328125 83.53038787841797 C 582.6589965820312 83.2181396484375 586.708251953125 84.55797576904297 586.944091796875 87.34414672851562 C 586.0887451171875 89.95106506347656 578.8766479492188 96.42810821533203 574.3681640625 99.97501373291016 C 573.8200073242188 99.35948944091797 548.9994506835938 96.51991271972656 540.8670043945312 85.71363067626953 C 538.5881958007812 85.43291473388672 538.387939453125 80.49513244628906 538.5897216796875 80.28427124023438 C 544.1519165039062 78.1443099975586 550.726318359375 79.06505584716797 557.071044921875 81.64871215820312" stroke-width="0.0" fill="url(#shape_37_fill)"/>
    <path d="M 249.98072814941406 206.66908264160156 C 260.96038818359375 210.67672729492188 255.89590454101562 244.8745574951172 257.46136474609375 246.96180725097656 C 253.840087890625 254.00839233398438 249.91282653808594 253.31552124023438 248.1229705810547 254.12966918945312 C 238.67604064941406 241.3255615234375 244.25680541992188 209.76368713378906 249.98072814941406 206.66908264160156" stroke-width="0.0" fill="url(#shape_38_fill)"/>
    <path d="M 445.2188415527344 261.3899841308594 C 445.96728515625 263.4900207519531 449.0956115722656 266.5922546386719 447.63946533203125 270.1048583984375 C 443.9761657714844 270.31988525390625 442.5596008300781 276.8995361328125 440.8258972167969 279.990234375 C 440.55499267578125 285.9080505371094 416.92681884765625 285.6878356933594 415.27972412109375 280.27508544921875 C 415.35870361328125 276.6700439453125 413.5497741699219 274.9136962890625 415.56854248046875 271.7044677734375 C 414.5185546875 269.8300476074219 418.12548828125 260.9750671386719 422.1900939941406 258.5138244628906 C 430.64788818359375 254.9716796875 437.7137451171875 257.0168762207031 445.2188415527344 261.3899841308594" stroke-width="0.0" fill="url(#shape_39_fill)"/>
    <path d="M 407.7433166503906 409.7738952636719 C 408.68304443359375 409.8779602050781 416.77593994140625 419.0279541015625 413.4255065917969 424.02490234375 C 397.09979248046875 431.93743896484375 380.8922119140625 420.2833251953125 377.52294921875 420.09295654296875 C 369.8067932128906 417.5345764160156 372.1357116699219 417.0349426269531 373.3776550292969 412.19427490234375 C 380.4059753417969 405.5872802734375 399.10662841796875 404.93701171875 407.7433166503906 409.7738952636719" stroke-width="0.0" fill="url(#shape_40_fill)"/>
    <path d="M 66.11698150634766 427.6629333496094 C 68.07234954833984 428.8871765136719 65.11964416503906 435.71942138671875 60.03891372680664 436.28985595703125 C 58.605430603027344 437.2364501953125 42.267642974853516 437.6731872558594 34.7199592590332 444.8309631347656 C 30.086483001708984 444.2936096191406 24.649362564086914 447.4097900390625 17.040355682373047 443.6483459472656 C 16.56815528869629 440.6329345703125 17.564889907836914 439.208251953125 16.605918884277344 436.1297607421875 C 32.30510330200195 427.1365661621094 56.605934143066406 425.7499694824219 66.11698150634766 427.6629333496094" stroke-width="0.0" fill="url(#shape_41_fill)"/>
    <path d="M 277.4098815917969 387.2192687988281 C 279.7867431640625 386.9808044433594 292.05340576171875 387.52362060546875 295.5269775390625 391.28271484375 C 297.3959655761719 393.7325744628906 299.09490966796875 398.3900146484375 293.3209228515625 403.56317138671875 C 292.7020568847656 397.3331298828125 264.9655456542969 403.173095703125 260.5151062011719 400.4750061035156 C 257.23553466796875 399.8663024902344 256.3255920410156 390.2120666503906 259.5501708984375 388.7070617675781 C 265.38116455078125 386.9529113769531 271.1716613769531 387.38555908203125 277.4098815917969 387.2192687988281" stroke-width="0.0" fill="url(#shape_42_fill)"/>
    <path d="M 220.99095153808594 224.96861267089844 C 222.84933471679688 223.8395538330078 226.76966857910156 224.06300354003906 231.58714294433594 225.64154052734375 C 234.33309936523438 228.7862548828125 240.30751037597656 246.31480407714844 238.2168426513672 253.24940490722656 C 234.96035766601562 258.40679931640625 227.619140625 258.5714416503906 223.3587188720703 258.6375732421875 C 218.6343994140625 256.8651123046875 217.87631225585938 256.2579040527344 217.72323608398438 248.0240936279297 C 219.69522094726562 246.49423217773438 217.4012451171875 226.02035522460938 220.99095153808594 224.96861267089844" stroke-width="0.0" fill="url(#shape_43_fill)"/>
    <path d="M 483.9042053222656 395.34649658203125 C 486.844482421875 399.86602783203125 485.7769470214844 400.9867248535156 483.61578369140625 401.25347900390625 C 477.39031982421875 409.9374694824219 452.9722900390625 409.8614196777344 450.6705627441406 407.4250183105469 C 448.01470947265625 404.4306640625 451.59228515625 396.17169189453125 453.58233642578125 396.4328308105469 C 461.3218994140625 390.94183349609375 475.5491638183594 390.4385986328125 483.9042053222656 395.34649658203125" stroke-width="0.0" fill="url(#shape_44_fill)"/>
    <path d="M 46.093109130859375 406.3652648925781 C 45.6807975769043 410.2554626464844 36.122459411621094 412.6981201171875 35.34806823730469 414.7123718261719 C 32.89201736450195 414.7727966308594 32.58462142944336 416.2195739746094 29.861509323120117 416.8165588378906 C 28.20631217956543 418.247802734375 25.308271408081055 418.2088317871094 21.894393920898438 421.472412109375 C 15.049604415893555 420.0411682128906 4.7530107498168945 417.4089050292969 -0.8141818642616272 420.85247802734375 C 0.6093443036079407 419.5955505371094 -0.8417183756828308 410.1883544921875 0.24267835915088654 409.4021301269531 C 8.325326919555664 408.9958190917969 42.01813888549805 407.8268127441406 46.093109130859375 406.3652648925781" stroke-width="0.0" fill="url(#shape_45_fill)"/>
    <path d="M 452.1122131347656 175.25405883789062 C 457.039306640625 174.59132385253906 465.5916442871094 196.86572265625 464.571044921875 201.56524658203125 C 462.5857238769531 209.67318725585938 451.7022399902344 209.61538696289062 449.4737243652344 206.7758331298828 C 448.330810546875 203.246826171875 449.0495300292969 198.31532287597656 448.84161376953125 195.298095703125 C 447.93890380859375 194.54444885253906 447.6166076660156 192.20957946777344 448.4927673339844 187.74205017089844 C 448.24322509765625 185.11038208007812 448.2752380371094 182.38673400878906 452.1122131347656 175.25405883789062" stroke-width="0.0" fill="url(#shape_46_fill)"/>
    <path d="M 376.0398254394531 184.41659545898438 C 375.79766845703125 187.71200561523438 376.0646057128906 204.20889282226562 372.6519775390625 206.65066528320312 C 365.85498046875 206.8229217529297 364.7832336425781 204.8563232421875 361.8717346191406 203.20660400390625 C 356.27642822265625 201.4731903076172 353.9158630371094 197.92311096191406 354.5704345703125 188.32699584960938 C 356.64227294921875 184.9376220703125 358.3581848144531 184.40797424316406 364.96148681640625 185.1080322265625 C 368.80572509765625 184.37020874023438 373.11004638671875 182.8385009765625 376.0398254394531 184.41659545898438" stroke-width="0.0" fill="url(#shape_47_fill)"/>
    <path d="M 467.62152099609375 270.1357727050781 C 469.7178955078125 271.11846923828125 473.59857177734375 272.3717041015625 472.5367431640625 281.780517578125 C 463.21881103515625 285.8162536621094 455.7838439941406 283.2323303222656 444.3946533203125 284.7000427246094 C 439.2822570800781 282.2261657714844 440.0059509277344 276.95465087890625 441.2380065917969 276.50286865234375 C 448.2372741699219 267.266357421875 456.1892395019531 267.6325988769531 467.62152099609375 270.1357727050781" stroke-width="0.0" fill="url(#shape_48_fill)"/>
    <path d="M 176.17138671875 118.66472625732422 C 179.39990234375 116.28485107421875 181.86415100097656 117.58493041992188 183.51901245117188 117.48652648925781 C 184.69642639160156 120.20616912841797 183.85702514648438 122.33984375 185.147705078125 126.4804458618164 C 182.38943481445312 134.34764099121094 186.02706909179688 138.50596618652344 184.49368286132812 142.66983032226562 C 181.8687286376953 147.4515380859375 173.50674438476562 145.65138244628906 171.7039794921875 145.99024963378906 C 170.84336853027344 126.01334381103516 169.13265991210938 121.91067504882812 176.17138671875 118.66472625732422" stroke-width="0.0" fill="url(#shape_49_fill)"/>
    <path d="M 333.6372985839844 428.2532653808594 C 337.1055908203125 428.463134765625 340.63848876953125 429.6046142578125 342.79803466796875 432.1204833984375 C 346.3618469238281 435.5948181152344 345.128173828125 437.2445983886719 342.4609375 437.589599609375 C 342.1761169433594 444.0641784667969 323.0539245605469 446.1858215332031 321.20355224609375 441.2035827636719 C 318.2165222167969 439.1429138183594 317.3914794921875 433.0830078125 317.0126953125 431.07000732421875 C 321.8079833984375 425.89947509765625 327.4927978515625 426.5287170410156 333.6372985839844 428.2532653808594" stroke-width="0.0" fill="url(#shape_50_fill)"/>
    <path d="M 296.076904296875 390.1862487792969 C 297.2390441894531 395.13665771484375 296.49090576171875 399.39794921875 289.9532775878906 398.9126892089844 C 286.49066162109375 399.50390625 283.7913818359375 401.0778503417969 271.3994140625 402.7166748046875 C 271.02825927734375 401.6248474121094 269.47735595703125 399.0071716308594 270.9302978515625 397.4563293457031 C 269.8447265625 395.5128173828125 272.8984680175781 387.99273681640625 277.486572265625 388.7503356933594 C 284.1089172363281 386.8498229980469 289.46002197265625 386.9684143066406 296.076904296875 390.1862487792969" stroke-width="0.0" fill="url(#shape_51_fill)"/>
    <path d="M 271.815185546875 191.4061279296875 C 277.5625 195.3214111328125 278.4665222167969 206.19737243652344 279.920166015625 212.17578125 C 270.6533508300781 212.64988708496094 265.0185241699219 210.7535858154297 261.4487609863281 211.82061767578125 C 260.19012451171875 205.69203186035156 263.6153564453125 196.42079162597656 266.3841552734375 193.93492126464844 C 269.2333984375 194.94664001464844 270.0935363769531 192.44789123535156 271.815185546875 191.4061279296875" stroke-width="0.0" fill="url(#shape_52_fill)"/>
    <path d="M 217.27932739257812 410.557373046875 C 215.19015502929688 408.7177429199219 216.31619262695312 412.8495788574219 214.34970092773438 414.525390625 C 213.5052947998047 417.69384765625 189.0690155029297 421.0327453613281 187.48826599121094 415.65863037109375 C 186.27049255371094 408.35491943359375 205.69119262695312 401.535888671875 217.27932739257812 410.557373046875" stroke-width="0.0" fill="url(#shape_53_fill)"/>
    <path d="M 205.74107360839844 424.61798095703125 C 205.35397338867188 425.4272766113281 206.2161865234375 428.63018798828125 204.54510498046875 429.69708251953125 C 201.6157989501953 433.91180419921875 178.8414306640625 433.799072265625 177.89590454101562 432.8275146484375 C 176.6124267578125 430.94085693359375 178.15997314453125 425.8917541503906 176.67691040039062 423.97607421875 C 185.98614501953125 419.7487487792969 196.97024536132812 421.8639221191406 205.74107360839844 424.61798095703125" stroke-width="0.0" fill="url(#shape_54_fill)"/>
    <path d="M 270.8919677734375 245.0637969970703 C 275.42523193359375 244.78115844726562 276.6321105957031 245.6348419189453 279.3543395996094 248.83245849609375 C 280.33612060546875 250.7683563232422 279.9769287109375 255.72584533691406 281.2452392578125 256.4703674316406 C 263.46307373046875 257.84796142578125 262.9276428222656 257.1402587890625 255.56224060058594 255.30059814453125 C 254.87745666503906 248.16928100585938 255.8496551513672 247.2328643798828 258.6331481933594 245.473876953125 C 262.2190856933594 242.08839416503906 266.58941650390625 243.24705505371094 270.8919677734375 245.0637969970703" stroke-width="0.0" fill="url(#shape_55_fill)"/>
    <path d="M 272.7969665527344 365.8373718261719 C 276.5654296875 366.6078186035156 280.8399353027344 364.42572021484375 284.38275146484375 368.1474304199219 C 285.4051818847656 369.2482604980469 285.4410095214844 371.6650695800781 281.20611572265625 375.5993957519531 C 275.1836242675781 375.620849609375 265.30401611328125 378.1717834472656 256.4313659667969 376.25567626953125 C 252.77468872070312 373.52197265625 254.2904052734375 368.8651428222656 255.6156463623047 368.126708984375 C 261.1729736328125 366.4921569824219 267.5014953613281 366.0585021972656 272.7969665527344 365.8373718261719" stroke-width="0.0" fill="url(#shape_56_fill)"/>
    <path d="M 409.6500549316406 271.8986511230469 C 412.3973693847656 269.90447998046875 416.48065185546875 275.57110595703125 414.187744140625 278.98406982421875 C 409.9356384277344 286.7041015625 399.421875 283.2229919433594 393.3453674316406 284.8924560546875 C 391.74176025390625 275.9276428222656 400.22479248046875 269.4998474121094 409.6500549316406 271.8986511230469" stroke-width="0.0" fill="url(#shape_57_fill)"/>
    <path d="M 632.3872680664062 353.0218811035156 C 632.5237426757812 353.11236572265625 660.036865234375 353.04486083984375 668.6259155273438 353.3018493652344 C 668.5394897460938 358.453369140625 662.349853515625 360.8438720703125 656.3688354492188 359.02972412109375 C 654.1547241210938 358.5159606933594 634.1132202148438 361.37811279296875 631.427734375 361.120361328125 C 627.739990234375 357.1544189453125 629.286376953125 353.5653076171875 632.3872680664062 353.0218811035156" stroke-width="0.0" fill="url(#shape_58_fill)"/>
    <path d="M 342.80517578125 386.3590393066406 C 341.1959228515625 389.83990478515625 358.1406555175781 390.616455078125 359.14715576171875 394.85589599609375 C 356.64459228515625 400.04168701171875 342.4002990722656 400.62237548828125 338.45654296875 399.5083312988281 C 335.14617919921875 399.5941162109375 333.09588623046875 398.7643737792969 331.8741760253906 396.5342712402344 C 331.9898986816406 394.9211120605469 330.75299072265625 393.49267578125 332.4730224609375 390.6593017578125 C 336.6142578125 388.3280334472656 340.3592224121094 388.96185302734375 342.80517578125 386.3590393066406" stroke-width="0.0" fill="url(#shape_59_fill)"/>
    <path d="M 460.8410949707031 363.7459716796875 C 465.0660095214844 362.26507568359375 471.5694580078125 367.28021240234375 472.57855224609375 372.6849670410156 C 471.557373046875 377.8390197753906 470.6484375 375.5050048828125 463.0968933105469 375.9071350097656 C 460.41387939453125 378.5968017578125 453.75347900390625 379.43878173828125 451.56610107421875 372.9937438964844 C 451.3924560546875 367.5267028808594 457.19622802734375 363.173583984375 460.8410949707031 363.7459716796875" stroke-width="0.0" fill="url(#shape_60_fill)"/>
    <path d="M 437.7088623046875 433.0270080566406 C 440.29327392578125 434.2374572753906 442.4975891113281 436.3103942871094 441.98291015625 439.1337585449219 C 440.5116882324219 442.4595642089844 430.2251281738281 441.1799011230469 425.9071044921875 442.4980773925781 C 422.5209045410156 438.08697509765625 424.1741638183594 434.47698974609375 424.3089904785156 433.2334899902344 C 428.7742004394531 431.626708984375 433.6222839355469 432.0858154296875 437.7088623046875 433.0270080566406" stroke-width="0.0" fill="url(#shape_61_fill)"/>
    <path d="M 185.42840576171875 411.4610290527344 C 186.2567138671875 413.9342956542969 185.01461791992188 414.7898864746094 186.89767456054688 418.00146484375 C 184.83541870117188 420.09466552734375 183.43502807617188 419.5609130859375 182.3015899658203 419.65576171875 C 180.3807373046875 420.9256591796875 174.90899658203125 421.2004089355469 171.13743591308594 420.2898864746094 C 169.50555419921875 417.9277648925781 169.74887084960938 415.64129638671875 172.2191162109375 414.44873046875 C 176.46554565429688 411.8325500488281 180.295166015625 410.4420166015625 185.42840576171875 411.4610290527344" stroke-width="0.0" fill="url(#shape_62_fill)"/>
    <path d="M 332.4595947265625 418.3176574707031 C 335.1066589355469 426.2508239746094 329.7398986816406 428.078125 327.4427490234375 426.1601867675781 C 324.6141662597656 427.7867736816406 323.01336669921875 426.75244140625 320.2894287109375 427.6934814453125 C 318.6498718261719 426.0589599609375 319.60113525390625 419.9698181152344 317.8011169433594 418.4381103515625 C 322.5893249511719 418.0181579589844 325.8528747558594 417.0757751464844 332.4595947265625 418.3176574707031" stroke-width="0.0" fill="url(#shape_63_fill)"/>
    <path d="M 55.40475082397461 273.9542236328125 C 56.42091751098633 270.8890075683594 66.09510803222656 272.3287658691406 66.04769134521484 280.18798828125 C 61.35081481933594 279.1708984375 51.39562225341797 276.1756286621094 48.103736877441406 277.0330810546875 C 49.607139587402344 272.8592834472656 52.28019714355469 272.31243896484375 55.40475082397461 273.9542236328125" stroke-width="0.0" fill="url(#shape_64_fill)"/>
    <path d="M 304.2544860839844 438.4944152832031 C 304.4313049316406 436.9852294921875 305.7817077636719 436.0279235839844 313.1612854003906 436.813232421875 C 314.79083251953125 438.93902587890625 313.2947998046875 441.7581787109375 311.62738037109375 444.0074768066406 C 307.848876953125 445.4425048828125 306.7900085449219 444.2492370605469 304.7833557128906 445.5641784667969 C 303.0723876953125 441.4721374511719 302.2601013183594 439.5013427734375 304.2544860839844 438.4944152832031" stroke-width="0.0" fill="url(#shape_65_fill)"/>
    <path d="M 1.6205804347991943 0.5156071782112122 C 223.12432861328125 0.3875524699687958 443.5416564941406 0.5005350708961487 673.4058837890625 0.9285497665405273 C 673.9656982421875 148.5393829345703 674.0549926757812 293.56939697265625 673.2576904296875 445.3265686035156 C 450.1950988769531 446.03277587890625 230.6729278564453 446.0302734375 0.7940741777420044 445.25927734375 C 0.11024069041013718 297.27783203125 -0.09116508066654205 150.85455322265625 1.6205804347991943 0.5156071782112122" stroke-width="0.0" fill="url(#shape_66_fill)"/>
    <path d="M 1.667807698249817 0.7424102425575256 C 223.15386962890625 0.34511125087738037 443.46630859375 0.47949928045272827 673.3624877929688 0.8714850544929504 C 673.957763671875 148.5809326171875 674.009521484375 293.2918701171875 673.0997314453125 445.1284484863281 C 449.8665771484375 445.871337890625 230.84719848632812 445.8899230957031 0.9149656295776367 445.08343505859375 C 0.1349290907382965 297.0718688964844 -0.1356218308210373 150.1185760498047 1.667807698249817 0.7424102425575256" stroke-width="0.0" fill="url(#shape_67_fill)"/>
    <path d="M 0.2140883207321167 0.639601469039917 C 223.28224182128906 0.41609638929367065 443.610595703125 0.6094405055046082 673.361328125 0.6234914660453796 C 673.9521484375 148.62908935546875 674.0128173828125 293.2988586425781 673.097900390625 445.10504150390625 C 449.859130859375 445.888671875 230.87387084960938 445.8999328613281 1.025634527206421 445.0666198730469 C 0.1668868064880371 296.845703125 -0.08354879170656204 149.88258361816406 0.2140883207321167 0.639601469039917" stroke-width="0.0" fill="url(#shape_68_fill)"/>
  </g>
</svg>
