<?xml version="1.0" ?>
<svg xmlns="http://www.w3.org/2000/svg" version="1.1" width="674" height="446">
  <defs>
    <radialGradient id="shape_0_fill" cx="0.5360579221821681" cy="0.7422737840045194" r="0.2773045616263098">
      <stop offset="0.79603153" stop-color="rgb(175, 186, 0)" stop-opacity="0.8810766935348511"/>
      <stop offset="1.0" stop-color="rgb(55, 42, 0)" stop-opacity="1.0"/>
    </radialGradient>
    <radialGradient id="shape_1_fill" cx="0.537318651329516" cy="0.7450007280426709" r="0.2059994479668954">
      <stop offset="0.60933644" stop-color="rgb(88, 91, 62)" stop-opacity="0.8564487099647522"/>
      <stop offset="1.0" stop-color="rgb(21, 5, 0)" stop-opacity="0.6236740350723267"/>
    </radialGradient>
    <radialGradient id="shape_2_fill" cx="0.09792284866468842" cy="0.7376672719091578" r="0.22062588021026522">
      <stop offset="0.0025616237" stop-color="rgb(31, 90, 181)" stop-opacity="0.9906947612762451"/>
      <stop offset="1.0" stop-color="rgb(10, 112, 255)" stop-opacity="0.9441424608230591"/>
    </radialGradient>
    <radialGradient id="shape_3_fill" cx="0.27599024560401986" cy="0.21598641434057947" r="0.12763758582955653">
      <stop offset="0.38906989" stop-color="rgb(152, 211, 13)" stop-opacity="0.832276463508606"/>
      <stop offset="1.0" stop-color="rgb(40, 43, 0)" stop-opacity="0.9664826393127441"/>
    </radialGradient>
    <radialGradient id="shape_4_fill" cx="0.1543026706231454" cy="0.9977578475336323" r="0.10288926755639141">
      <stop offset="0.0" stop-color="rgb(81, 79, 86)" stop-opacity="1.0"/>
      <stop offset="1.0" stop-color="rgb(95, 82, 100)" stop-opacity="0.8732353448867798"/>
    </radialGradient>
    <radialGradient id="shape_5_fill" cx="0.14807964290992442" cy="0.23997249517740155" r="0.11810664960821587">
      <stop offset="0.0" stop-color="rgb(255, 255, 255)" stop-opacity="0.6465655565261841"/>
      <stop offset="0.56265956" stop-color="rgb(255, 255, 255)" stop-opacity="0.62303626537323"/>
    </radialGradient>
    <radialGradient id="shape_6_fill" cx="0.18397626112759644" cy="0.9977578475336323" r="0.0754974885934892">
      <stop offset="0.0" stop-color="rgb(93, 90, 94)" stop-opacity="1.0"/>
      <stop offset="1.0" stop-color="rgb(146, 130, 135)" stop-opacity="0.9132043123245239"/>
    </radialGradient>
    <radialGradient id="shape_7_fill" cx="0.2893175074183976" cy="0.05829596412556054" r="0.08666390552011372">
      <stop offset="0.0" stop-color="rgb(55, 66, 29)" stop-opacity="1.0"/>
      <stop offset="1.0" stop-color="rgb(88, 100, 28)" stop-opacity="0.7559062838554382"/>
    </radialGradient>
    <radialGradient id="shape_8_fill" cx="0.3382789091115889" cy="0.9439461883408071" r="0.06756690277190167">
      <stop offset="0.0" stop-color="rgb(91, 124, 45)" stop-opacity="1.0"/>
      <stop offset="1.0" stop-color="rgb(135, 192, 77)" stop-opacity="0.738210141658783"/>
    </radialGradient>
    <radialGradient id="shape_9_fill" cx="0.30712166172106825" cy="0.9977578475336323" r="0.0730758406641929">
      <stop offset="0.0" stop-color="rgb(38, 48, 20)" stop-opacity="1.0"/>
      <stop offset="1.0" stop-color="rgb(23, 27, 32)" stop-opacity="0.9761506915092468"/>
    </radialGradient>
    <radialGradient id="shape_10_fill" cx="0.3056379821958457" cy="0.9977578475336323" r="0.06792919147615971">
      <stop offset="0.0" stop-color="rgb(39, 49, 21)" stop-opacity="1.0"/>
      <stop offset="1.0" stop-color="rgb(43, 33, 0)" stop-opacity="0.7139949202537537"/>
    </radialGradient>
    <radialGradient id="shape_11_fill" cx="0.21810089020771514" cy="0.968609865470852" r="0.06792919147615971">
      <stop offset="0.0" stop-color="rgb(138, 135, 129)" stop-opacity="1.0"/>
      <stop offset="1.0" stop-color="rgb(203, 170, 153)" stop-opacity="0.5425218939781189"/>
    </radialGradient>
    <radialGradient id="shape_12_fill" cx="0.29080118694362017" cy="0.9977578475336323" r="0.07480746985189285">
      <stop offset="0.0" stop-color="rgb(22, 25, 13)" stop-opacity="1.0"/>
      <stop offset="1.0" stop-color="rgb(30, 33, 0)" stop-opacity="1.0"/>
    </radialGradient>
    <radialGradient id="shape_13_fill" cx="0.327893175074184" cy="0.8923766816143498" r="0.06900465877544279">
      <stop offset="0.0" stop-color="rgb(89, 117, 50)" stop-opacity="1.0"/>
      <stop offset="1.0" stop-color="rgb(125, 165, 39)" stop-opacity="0.8718910813331604"/>
    </radialGradient>
    <radialGradient id="shape_14_fill" cx="0.142433234421365" cy="0.9977578475336323" r="0.06617211022079875">
      <stop offset="0.0" stop-color="rgb(155, 150, 153)" stop-opacity="1.0"/>
      <stop offset="1.0" stop-color="rgb(255, 253, 254)" stop-opacity="0.19505049288272858"/>
    </radialGradient>
    <radialGradient id="shape_15_fill" cx="0.31008902077151335" cy="0.9977578475336323" r="0.06683642786405207">
      <stop offset="0.0" stop-color="rgb(43, 55, 23)" stop-opacity="1.0"/>
      <stop offset="1.0" stop-color="rgb(54, 65, 12)" stop-opacity="0.9642558097839355"/>
    </radialGradient>
    <radialGradient id="shape_16_fill" cx="0.27299703264094954" cy="0.9977578475336323" r="0.08110449363640579">
      <stop offset="0.0" stop-color="rgb(31, 35, 19)" stop-opacity="1.0"/>
      <stop offset="1.0" stop-color="rgb(33, 32, 0)" stop-opacity="0.9977754354476929"/>
    </radialGradient>
    <radialGradient id="shape_17_fill" cx="0.2893175074183976" cy="0.9977578475336323" r="0.07513486030193747">
      <stop offset="0.0" stop-color="rgb(22, 23, 13)" stop-opacity="1.0"/>
      <stop offset="1.0" stop-color="rgb(9, 0, 0)" stop-opacity="0.747160017490387"/>
    </radialGradient>
    <radialGradient id="shape_18_fill" cx="0.3293768545994065" cy="0.7556053811659192" r="0.06617211022079875">
      <stop offset="0.0" stop-color="rgb(83, 108, 65)" stop-opacity="1.0"/>
      <stop offset="1.0" stop-color="rgb(112, 141, 58)" stop-opacity="0.9521114826202393"/>
    </radialGradient>
    <radialGradient id="shape_19_fill" cx="0.3516320474777448" cy="0.9977578475336323" r="0.06617211022079875">
      <stop offset="0.0" stop-color="rgb(95, 135, 39)" stop-opacity="1.0"/>
      <stop offset="1.0" stop-color="rgb(151, 224, 3)" stop-opacity="0.776897132396698"/>
    </radialGradient>
    <radialGradient id="shape_20_fill" cx="0.0830860534124629" cy="0.9977578475336323" r="0.06792919147615971">
      <stop offset="0.0" stop-color="rgb(49, 52, 66)" stop-opacity="1.0"/>
      <stop offset="1.0" stop-color="rgb(9, 8, 47)" stop-opacity="0.5047547221183777"/>
    </radialGradient>
    <radialGradient id="shape_21_fill" cx="0.29821958456973297" cy="0.9977578475336323" r="0.06792919147615971">
      <stop offset="0.0" stop-color="rgb(33, 40, 17)" stop-opacity="1.0"/>
      <stop offset="1.0" stop-color="rgb(31, 41, 0)" stop-opacity="0.655157744884491"/>
    </radialGradient>
    <radialGradient id="shape_22_fill" cx="0.3564346947372844" cy="0.44366290857973656" r="0.06591664435955466">
      <stop offset="0.0" stop-color="rgb(224, 252, 0)" stop-opacity="0.6314501762390137"/>
      <stop offset="0.43000722" stop-color="rgb(159, 198, 34)" stop-opacity="0.9115513563156128"/>
    </radialGradient>
    <radialGradient id="shape_23_fill" cx="0.6454005934718101" cy="0.1412556053811659" r="0.06617211022079875">
      <stop offset="0.0" stop-color="rgb(46, 38, 13)" stop-opacity="1.0"/>
      <stop offset="1.0" stop-color="rgb(49, 26, 0)" stop-opacity="0.8223670125007629"/>
    </radialGradient>
    <radialGradient id="shape_24_fill" cx="0.24925732258873098" cy="0.48430544592339897" r="0.06617138010811735">
      <stop offset="0.0" stop-color="rgb(201, 209, 206)" stop-opacity="1.0"/>
      <stop offset="0.9766002" stop-color="rgb(255, 255, 255)" stop-opacity="0.507649302482605"/>
    </radialGradient>
    <radialGradient id="shape_25_fill" cx="0.6320474777448071" cy="0.9977578475336323" r="0.06617211022079875">
      <stop offset="0.0" stop-color="rgb(35, 28, 8)" stop-opacity="1.0"/>
      <stop offset="1.0" stop-color="rgb(35, 10, 0)" stop-opacity="0.6177871823310852"/>
    </radialGradient>
    <radialGradient id="shape_26_fill" cx="0.15414520399506793" cy="0.3207086811151205" r="0.06604698362265567">
      <stop offset="0.11988972" stop-color="rgb(198, 211, 155)" stop-opacity="1.0"/>
      <stop offset="0.5833877" stop-color="rgb(115, 114, 253)" stop-opacity="0.0"/>
    </radialGradient>
    <radialGradient id="shape_27_fill" cx="0.15410647972401242" cy="0.3208032787648017" r="0.06604505929465818">
      <stop offset="0.0" stop-color="rgb(192, 205, 0)" stop-opacity="1.0"/>
      <stop offset="0.49376062" stop-color="rgb(79, 72, 48)" stop-opacity="0.5953648686408997"/>
    </radialGradient>
    <radialGradient id="shape_28_fill" cx="0.03901968936184393" cy="0.019232921001622494" r="0.06764640581713939">
      <stop offset="0.109824225" stop-color="rgb(0, 23, 130)" stop-opacity="1.0"/>
      <stop offset="0.7517537" stop-color="rgb(0, 31, 153)" stop-opacity="0.7841899394989014"/>
    </radialGradient>
    <radialGradient id="shape_29_fill" cx="0.33976258863681147" cy="0.6659192825112108" r="0.06617211022079875">
      <stop offset="0.0" stop-color="rgb(90, 117, 55)" stop-opacity="1.0"/>
      <stop offset="1.0" stop-color="rgb(119, 153, 32)" stop-opacity="0.9132177233695984"/>
    </radialGradient>
    <radialGradient id="shape_30_fill" cx="0.040424225238381226" cy="0.018429835281029944" r="0.06756699898830154">
      <stop offset="0.29008803" stop-color="rgb(49, 76, 58)" stop-opacity="0.9019127488136292"/>
      <stop offset="1.0" stop-color="rgb(40, 48, 43)" stop-opacity="0.7129283547401428"/>
    </radialGradient>
    <radialGradient id="shape_31_fill" cx="0.12314540059347182" cy="0.9977578475336323" r="0.06617211022079875">
      <stop offset="0.0" stop-color="rgb(95, 103, 98)" stop-opacity="1.0"/>
      <stop offset="1.0" stop-color="rgb(147, 138, 129)" stop-opacity="0.7736284732818604"/>
    </radialGradient>
    <radialGradient id="shape_32_fill" cx="0.4035608308605341" cy="0.984304932735426" r="0.06617211022079875">
      <stop offset="0.0" stop-color="rgb(126, 155, 63)" stop-opacity="1.0"/>
      <stop offset="1.0" stop-color="rgb(168, 143, 29)" stop-opacity="0.8840705752372742"/>
    </radialGradient>
    <radialGradient id="shape_33_fill" cx="0.3249258160237389" cy="0.6053811659192825" r="0.06617211022079875">
      <stop offset="0.0" stop-color="rgb(93, 124, 71)" stop-opacity="1.0"/>
      <stop offset="1.0" stop-color="rgb(123, 155, 43)" stop-opacity="0.9451873898506165"/>
    </radialGradient>
    <radialGradient id="shape_34_fill" cx="0.6468842729970327" cy="0.531390134529148" r="0.06617211022079875">
      <stop offset="0.0" stop-color="rgb(54, 47, 24)" stop-opacity="1.0"/>
      <stop offset="1.0" stop-color="rgb(63, 32, 10)" stop-opacity="0.6143290996551514"/>
    </radialGradient>
    <radialGradient id="shape_35_fill" cx="0.1441235980930951" cy="0.2366946780628153" r="0.06725788399444489">
      <stop offset="0.026021326" stop-color="rgb(157, 237, 43)" stop-opacity="0.23168949782848358"/>
      <stop offset="0.57664335" stop-color="rgb(150, 123, 78)" stop-opacity="0.6337423324584961"/>
    </radialGradient>
    <radialGradient id="shape_36_fill" cx="0.2878338278931751" cy="0.9977578475336323" r="0.06617211022079875">
      <stop offset="0.0" stop-color="rgb(80, 96, 53)" stop-opacity="1.0"/>
      <stop offset="1.0" stop-color="rgb(61, 59, 23)" stop-opacity="0.9037094116210938"/>
    </radialGradient>
    <radialGradient id="shape_37_fill" cx="0.129080118694362" cy="0.9977578475336323" r="0.06617211022079875">
      <stop offset="0.0" stop-color="rgb(87, 97, 81)" stop-opacity="1.0"/>
      <stop offset="1.0" stop-color="rgb(88, 98, 73)" stop-opacity="0.6856891512870789"/>
    </radialGradient>
    <radialGradient id="shape_38_fill" cx="0.33892324204260943" cy="0.5607740119968294" r="0.0666785763703751">
      <stop offset="0.7501333" stop-color="rgb(85, 120, 13)" stop-opacity="0.893659234046936"/>
      <stop offset="0.6022591" stop-color="rgb(175, 255, 68)" stop-opacity="0.8227556943893433"/>
    </radialGradient>
    <radialGradient id="shape_39_fill" cx="0.40059347181008903" cy="0.9641255605381166" r="0.06617211022079875">
      <stop offset="0.0" stop-color="rgb(138, 168, 60)" stop-opacity="1.0"/>
      <stop offset="1.0" stop-color="rgb(231, 255, 82)" stop-opacity="1.0"/>
    </radialGradient>
    <radialGradient id="shape_40_fill" cx="0.6155207150060275" cy="0.8812181960306895" r="0.0677033489465006">
      <stop offset="0.3328559" stop-color="rgb(154, 138, 120)" stop-opacity="0.5563898682594299"/>
      <stop offset="0.50055027" stop-color="rgb(0, 0, 66)" stop-opacity="1.0"/>
    </radialGradient>
    <radialGradient id="shape_41_fill" cx="0.6454005934718101" cy="0.08744394618834081" r="0.06617211022079875">
      <stop offset="0.0" stop-color="rgb(58, 48, 21)" stop-opacity="1.0"/>
      <stop offset="1.0" stop-color="rgb(90, 60, 11)" stop-opacity="0.9612221121788025"/>
    </radialGradient>
    <radialGradient id="shape_42_fill" cx="0.5845697329376854" cy="0.6188340807174888" r="0.06617211022079875">
      <stop offset="0.0" stop-color="rgb(62, 59, 56)" stop-opacity="1.0"/>
      <stop offset="1.0" stop-color="rgb(31, 27, 72)" stop-opacity="0.6583386659622192"/>
    </radialGradient>
    <radialGradient id="shape_43_fill" cx="0.3562771262330188" cy="0.5040097086953476" r="0.0678161598454597">
      <stop offset="0.27664202" stop-color="rgb(133, 179, 56)" stop-opacity="1.0"/>
      <stop offset="0.53536433" stop-color="rgb(217, 255, 24)" stop-opacity="0.8631303310394287"/>
    </radialGradient>
    <radialGradient id="shape_44_fill" cx="0.5934718100890207" cy="0.9977578475336323" r="0.06617211022079875">
      <stop offset="0.0" stop-color="rgb(89, 61, 18)" stop-opacity="1.0"/>
      <stop offset="1.0" stop-color="rgb(170, 81, 0)" stop-opacity="0.7509004473686218"/>
    </radialGradient>
    <radialGradient id="shape_45_fill" cx="0.612759643916914" cy="0.04035874439461883" r="0.06617211022079875">
      <stop offset="0.0" stop-color="rgb(157, 136, 123)" stop-opacity="1.0"/>
      <stop offset="1.0" stop-color="rgb(255, 232, 210)" stop-opacity="1.0"/>
    </radialGradient>
    <radialGradient id="shape_46_fill" cx="0.28635014836795253" cy="0.9977578475336323" r="0.06617211022079875">
      <stop offset="0.0" stop-color="rgb(82, 99, 55)" stop-opacity="1.0"/>
      <stop offset="1.0" stop-color="rgb(93, 115, 22)" stop-opacity="0.5061952471733093"/>
    </radialGradient>
    <radialGradient id="shape_47_fill" cx="0.28635014836795253" cy="0.8183856502242153" r="0.06617211022079875">
      <stop offset="0.0" stop-color="rgb(166, 189, 197)" stop-opacity="1.0"/>
      <stop offset="1.0" stop-color="rgb(255, 255, 255)" stop-opacity="0.4745614230632782"/>
    </radialGradient>
    <radialGradient id="shape_48_fill" cx="0.40801186943620177" cy="0.9977578475336323" r="0.06617211022079875">
      <stop offset="0.0" stop-color="rgb(107, 135, 68)" stop-opacity="1.0"/>
      <stop offset="1.0" stop-color="rgb(134, 153, 53)" stop-opacity="1.0"/>
    </radialGradient>
    <radialGradient id="shape_49_fill" cx="0.19287833827893175" cy="0.3991031390134529" r="0.06617211022079875">
      <stop offset="0.0" stop-color="rgb(92, 100, 54)" stop-opacity="1.0"/>
      <stop offset="1.0" stop-color="rgb(81, 63, 12)" stop-opacity="0.5812432169914246"/>
    </radialGradient>
    <radialGradient id="shape_50_fill" cx="0.6439169139465876" cy="0.7376681614349776" r="0.06617211022079875">
      <stop offset="0.0" stop-color="rgb(65, 56, 25)" stop-opacity="1.0"/>
      <stop offset="1.0" stop-color="rgb(155, 192, 70)" stop-opacity="0.4195743203163147"/>
    </radialGradient>
    <radialGradient id="shape_51_fill" cx="0.5845697329376854" cy="0.6322869955156951" r="0.06617211022079875">
      <stop offset="0.0" stop-color="rgb(75, 68, 60)" stop-opacity="1.0"/>
      <stop offset="1.0" stop-color="rgb(135, 106, 86)" stop-opacity="0.7999371290206909"/>
    </radialGradient>
    <radialGradient id="shape_52_fill" cx="0.2997032640949555" cy="0.6031390134529148" r="0.06617211022079875">
      <stop offset="0.0" stop-color="rgb(107, 158, 118)" stop-opacity="1.0"/>
      <stop offset="1.0" stop-color="rgb(191, 255, 230)" stop-opacity="0.6598101854324341"/>
    </radialGradient>
    <radialGradient id="shape_53_fill" cx="0.6097922848664689" cy="0.45067264573991034" r="0.06617211022079875">
      <stop offset="0.0" stop-color="rgb(38, 39, 27)" stop-opacity="1.0"/>
      <stop offset="1.0" stop-color="rgb(16, 10, 28)" stop-opacity="0.4434046447277069"/>
    </radialGradient>
    <radialGradient id="shape_54_fill" cx="0.6335311572700296" cy="0.426009002822397" r="0.06617211022079875">
      <stop offset="0.0" stop-color="rgb(67, 49, 20)" stop-opacity="1.0"/>
      <stop offset="1.0" stop-color="rgb(118, 65, 7)" stop-opacity="0.8032898306846619"/>
    </radialGradient>
    <radialGradient id="shape_55_fill" cx="0.37071676282571403" cy="0.5988430827187851" r="0.066001377049115">
      <stop offset="0.43566707" stop-color="rgb(238, 255, 59)" stop-opacity="0.9592224359512329"/>
      <stop offset="0.1610953" stop-color="rgb(203, 255, 0)" stop-opacity="0.7565794587135315"/>
    </radialGradient>
    <radialGradient id="shape_56_fill" cx="0.5489614243323442" cy="0.600896860986547" r="0.06617211022079875">
      <stop offset="0.0" stop-color="rgb(50, 62, 80)" stop-opacity="1.0"/>
      <stop offset="1.0" stop-color="rgb(22, 60, 186)" stop-opacity="0.5290057063102722"/>
    </radialGradient>
    <radialGradient id="shape_57_fill" cx="0.4094955489614243" cy="0.9035874439461884" r="0.06617211022079875">
      <stop offset="0.0" stop-color="rgb(111, 144, 47)" stop-opacity="1.0"/>
      <stop offset="1.0" stop-color="rgb(162, 207, 0)" stop-opacity="0.6735794544219971"/>
    </radialGradient>
    <radialGradient id="shape_58_fill" cx="0.5281899109792285" cy="0.9977578475336323" r="0.06617211022079875">
      <stop offset="0.0" stop-color="rgb(50, 43, 14)" stop-opacity="1.0"/>
      <stop offset="1.0" stop-color="rgb(70, 47, 0)" stop-opacity="1.0"/>
    </radialGradient>
    <radialGradient id="shape_59_fill" cx="0.5845697329376854" cy="0.7690582959641256" r="0.06617211022079875">
      <stop offset="0.0" stop-color="rgb(61, 63, 58)" stop-opacity="1.0"/>
      <stop offset="1.0" stop-color="rgb(74, 73, 99)" stop-opacity="0.7146027684211731"/>
    </radialGradient>
    <radialGradient id="shape_60_fill" cx="0.5489614243323442" cy="0.9977578475336323" r="0.06617211022079875">
      <stop offset="0.0" stop-color="rgb(140, 131, 64)" stop-opacity="1.0"/>
      <stop offset="1.0" stop-color="rgb(244, 214, 87)" stop-opacity="0.9314109086990356"/>
    </radialGradient>
    <radialGradient id="shape_61_fill" cx="0.646857015456927" cy="0.9686179396282931" r="0.06617948492485974">
      <stop offset="0.41236803" stop-color="rgb(255, 255, 43)" stop-opacity="1.0"/>
      <stop offset="0.99852747" stop-color="rgb(255, 223, 0)" stop-opacity="0.9999918937683105"/>
    </radialGradient>
    <radialGradient id="shape_62_fill" cx="0.615727002967359" cy="0.3991031390134529" r="0.06617211022079875">
      <stop offset="0.0" stop-color="rgb(55, 47, 13)" stop-opacity="1.0"/>
      <stop offset="1.0" stop-color="rgb(75, 49, 0)" stop-opacity="0.9942405223846436"/>
    </radialGradient>
    <radialGradient id="shape_63_fill" cx="0.6261127596439169" cy="0.7286995515695067" r="0.06617211022079875">
      <stop offset="0.0" stop-color="rgb(79, 66, 32)" stop-opacity="1.0"/>
      <stop offset="1.0" stop-color="rgb(209, 215, 91)" stop-opacity="0.670265257358551"/>
    </radialGradient>
    <radialGradient id="shape_64_fill" cx="0.40801186943620177" cy="0.12556053811659193" r="0.06617211022079875">
      <stop offset="0.0" stop-color="rgb(76, 66, 59)" stop-opacity="1.0"/>
      <stop offset="1.0" stop-color="rgb(101, 71, 64)" stop-opacity="1.0"/>
    </radialGradient>
    <radialGradient id="shape_65_fill" cx="0.6528189910979229" cy="0.6883408071748879" r="0.06617211022079875">
      <stop offset="0.0" stop-color="rgb(121, 97, 39)" stop-opacity="1.0"/>
      <stop offset="1.0" stop-color="rgb(255, 255, 86)" stop-opacity="1.0"/>
    </radialGradient>
    <radialGradient id="shape_66_fill" cx="0.6514720520562871" cy="0.4608751989800834" r="0.0687026468158122">
      <stop offset="0.3150646" stop-color="rgb(148, 182, 90)" stop-opacity="0.3986422121524811"/>
      <stop offset="0.972791" stop-color="rgb(0, 0, 0)" stop-opacity="0.05964438617229462"/>
    </radialGradient>
    <radialGradient id="shape_67_fill" cx="0.5947640529372218" cy="0.9952848973295614" r="0.06879842741199346">
      <stop offset="0.87824696" stop-color="rgb(52, 28, 0)" stop-opacity="0.7588609457015991"/>
      <stop offset="1.0" stop-color="rgb(0, 0, 0)" stop-opacity="0.1617388129234314"/>
    </radialGradient>
    <radialGradient id="shape_68_fill" cx="0.4889735552960404" cy="0.9963153787792531" r="0.06765455025239939">
      <stop offset="0.41836157" stop-color="rgb(51, 30, 15)" stop-opacity="0.6626736521720886"/>
      <stop offset="1.0" stop-color="rgb(46, 66, 59)" stop-opacity="0.2885531187057495"/>
    </radialGradient>
  </defs>
  <g>
    <path d="M -0.20916494727134705 271.18719482421875 C 25.986732482910156 269.6067810058594 35.03401184082031 270.7347106933594 44.965476989746094 273.11614990234375 C 48.089359283447266 274.63970947265625 49.363739013671875 276.4932556152344 57.1107177734375 274.49481201171875 C 60.21589660644531 273.8403015136719 63.733455657958984 274.47119140625 64.40216064453125 272.875244140625 C 71.06863403320312 270.6116638183594 101.0307846069336 271.30462646484375 116.47901916503906 271.3018493652344 C 120.79866027832031 271.65032958984375 126.47016906738281 277.3208923339844 124.13327026367188 282.37945556640625 C 133.5303497314453 282.4277038574219 140.0203857421875 281.5160217285156 150.06283569335938 286.3674621582031 C 185.27015686035156 282.161865234375 185.76222229003906 282.52545166015625 206.61288452148438 287.3451232910156 C 199.8135223388672 288.03436279296875 198.16607666015625 282.6039733886719 212.53982543945312 272.04339599609375 C 243.66102600097656 273.3299255371094 286.90008544921875 272.3346862792969 311.3866271972656 277.2646789550781 C 344.6275939941406 279.66021728515625 420.6263122558594 279.77398681640625 464.096923828125 276.4173889160156 C 491.29949951171875 275.16583251953125 540.6288452148438 276.7146301269531 541.1992797851562 282.32000732421875 C 548.8814697265625 282.9272155761719 550.2157592773438 278.0579528808594 564.000732421875 275.2241516113281 C 579.1244506835938 278.806396484375 612.0133056640625 284.0871276855469 612.8053588867188 284.62774658203125 C 630.72119140625 275.731201171875 640.7985229492188 276.250244140625 665.990966796875 276.00860595703125 C 671.5512084960938 276.83050537109375 677.0074462890625 281.3203430175781 677.7734985351562 285.96868896484375 C 676.5776977539062 339.49102783203125 674.7520141601562 391.5217590332031 675.1177368164062 446.466552734375 C 451.9151306152344 446.6695861816406 228.9889373779297 446.81134033203125 -0.46747079491615295 446.4237976074219 C -0.41407692432403564 389.1458435058594 0.2721559405326843 332.36083984375 -0.20916494727134705 271.18719482421875" stroke-width="0.0" fill="url(#shape_0_fill)"/>
    <path d="M -0.02477451041340828 271.3730773925781 C 35.933231353759766 275.3992919921875 36.5576057434082 274.5904235839844 44.369083404541016 274.73681640625 C 48.5712776184082 267.6699523925781 60.26359176635742 266.947021484375 76.9952621459961 268.80657958984375 C 113.4833755493164 278.68035888671875 114.02322387695312 279.3109130859375 126.51850128173828 279.13763427734375 C 127.79234313964844 274.3809814453125 146.55984497070312 273.5169982910156 150.3945770263672 272.5631103515625 C 185.1159210205078 271.53167724609375 185.7465057373047 273.1954345703125 202.11959838867188 276.0426025390625 C 203.3918914794922 291.7956848144531 205.3632354736328 291.78350830078125 219.05599975585938 294.3287658691406 C 219.66421508789062 293.1789855957031 271.6559753417969 295.17962646484375 292.3707275390625 296.6238708496094 C 324.32525634765625 298.5404052734375 449.62884521484375 296.5611877441406 457.425048828125 297.07049560546875 C 472.60870361328125 290.03802490234375 487.450927734375 291.24615478515625 504.82525634765625 287.97833251953125 C 509.81817626953125 287.5637512207031 518.8937377929688 286.23956298828125 522.8446044921875 286.4392395019531 C 527.5126953125 285.678955078125 531.8617553710938 285.8843078613281 535.0738525390625 287.04412841796875 C 543.3053588867188 286.85400390625 549.8982543945312 288.01409912109375 558.4402465820312 295.13360595703125 C 574.7345581054688 287.8973388671875 579.5418090820312 289.6585693359375 589.4780883789062 291.7303771972656 C 608.0086669921875 288.8302001953125 620.4400634765625 287.9270935058594 634.1206665039062 288.3916931152344 C 646.4403686523438 281.02587890625 656.3385009765625 286.544921875 673.7763061523438 290.1770935058594 C 673.915771484375 340.6322021484375 674.4432983398438 392.2194519042969 674.1530151367188 446.2807922363281 C 451.4774169921875 446.3905334472656 229.19664001464844 446.25439453125 -0.3076566159725189 446.2476501464844 C -0.2135799378156662 389.4035949707031 -0.2940194010734558 333.0278625488281 -0.02477451041340828 271.3730773925781" stroke-width="0.0" fill="url(#shape_1_fill)"/>
    <path d="M -0.019838882610201836 -0.25989267230033875 C 219.69313049316406 0.10403922200202942 439.478759765625 -0.45242559909820557 671.6560668945312 -0.22572703659534454 C 664.730712890625 10.002456665039062 645.6064453125 36.49182891845703 637.593017578125 47.69434356689453 C 633.9633178710938 52.90046310424805 610.5744018554688 93.65804290771484 585.158935546875 84.16629028320312 C 577.8410034179688 81.64517974853516 559.8784790039062 70.48307800292969 532.5599365234375 73.89633178710938 C 531.5518188476562 76.18006896972656 524.3507080078125 77.97504425048828 522.385986328125 72.2007064819336 C 522.5994873046875 68.84680938720703 499.5385437011719 63.73338317871094 499.6340026855469 62.66448211669922 C 492.7352294921875 62.126197814941406 487.26214599609375 61.04326629638672 484.2867736816406 68.34708404541016 C 475.1294860839844 71.64061737060547 476.068115234375 74.77843475341797 477.401611328125 82.43952178955078 C 482.58441162109375 96.06382751464844 473.3333740234375 112.81965637207031 469.2718811035156 117.44818115234375 C 459.7109375 117.90741729736328 458.67877197265625 114.15811157226562 451.65679931640625 108.66998291015625 C 435.5106506347656 107.61444091796875 411.6728820800781 102.51426696777344 410.48992919921875 104.84475708007812 C 411.08050537109375 119.8546142578125 411.58465576171875 125.46574401855469 408.246826171875 132.7165985107422 C 405.6230773925781 140.61314392089844 396.897705078125 139.28793334960938 391.2689208984375 136.9617156982422 C 381.7385559082031 144.0102081298828 375.4476318359375 158.10769653320312 370.0035095214844 157.5044708251953 C 368.81085205078125 160.99563598632812 367.1756896972656 164.6765594482422 363.1332702636719 169.02529907226562 C 360.58563232421875 171.6260528564453 357.2545471191406 170.96083068847656 352.1000671386719 176.41973876953125 C 345.6084899902344 184.0238800048828 336.4549560546875 176.27687072753906 332.3926086425781 171.98020935058594 C 305.8977355957031 171.68162536621094 305.1606750488281 178.18453979492188 303.2374572753906 181.7427215576172 C 304.0609130859375 188.34579467773438 304.0237121582031 191.79673767089844 307.5639343261719 201.3477325439453 C 307.3283996582031 200.8243865966797 305.7976989746094 198.3863983154297 304.9952087402344 191.16741943359375 C 305.0027160644531 188.53997802734375 301.3832702636719 187.78662109375 286.3665466308594 181.92356872558594 C 289.7168884277344 194.56060791015625 289.2624206542969 195.97438049316406 289.6339111328125 196.27415466308594 C 288.3288269042969 190.25982666015625 287.9427185058594 183.93963623046875 284.5087585449219 181.57455444335938 C 272.9247131347656 183.88656616210938 270.72125244140625 187.716796875 263.8780517578125 183.94761657714844 C 256.8023986816406 185.3188018798828 257.18792724609375 188.86692810058594 257.4073181152344 197.5681915283203 C 260.8837585449219 199.399169921875 260.51568603515625 200.08200073242188 257.7632141113281 199.00177001953125 C 257.0216979980469 199.02732849121094 252.23822021484375 196.52366638183594 253.2268524169922 194.38075256347656 C 255.05258178710938 189.32508850097656 256.5973815917969 186.29464721679688 252.63265991210938 172.55345153808594 C 255.6964874267578 167.39959716796875 216.42027282714844 141.7581024169922 214.0630645751953 140.00894165039062 C 185.16957092285156 127.92057037353516 195.60870361328125 102.65751647949219 191.77520751953125 87.89421844482422 C 192.92041015625 83.8702392578125 158.7023162841797 73.22908020019531 139.5497283935547 63.061058044433594 C 113.86929321289062 39.266029357910156 69.31131744384766 54.830284118652344 36.97631072998047 61.738521575927734 C 18.747787475585938 69.98947143554688 9.46209716796875 69.46258544921875 -0.6431372761726379 69.59750366210938 C 0.34182873368263245 43.958133697509766 -0.3314557373523712 22.56187629699707 -0.019838882610201836 -0.25989267230033875" stroke-width="0.0" fill="url(#shape_2_fill)"/>
    <path d="M 86.54917907714844 64.54119110107422 C 88.7182388305664 68.88533020019531 92.52750396728516 68.63087463378906 93.5538330078125 69.73833465576172 C 90.85733795166016 79.99095153808594 91.26411437988281 80.55924987792969 91.2884521484375 88.98365020751953 C 96.06621551513672 85.27379608154297 97.89529418945312 87.05962371826172 102.97884368896484 87.83602905273438 C 104.23069763183594 75.15589904785156 105.86155700683594 73.49789428710938 108.51722717285156 73.25578308105469 C 112.03239440917969 87.65372467041016 111.35310363769531 93.63456726074219 116.27254486083984 99.41258239746094 C 116.61793518066406 100.06331634521484 116.2823486328125 108.61612701416016 115.64415740966797 115.40445709228516 C 124.6688461303711 115.16270446777344 128.74859619140625 115.4253158569336 129.5514678955078 113.57685089111328 C 130.2511444091797 109.27629852294922 136.4714813232422 107.80839538574219 136.4876708984375 104.56739044189453 C 136.61114501953125 103.68568420410156 135.5376739501953 101.79975128173828 137.07806396484375 98.10958862304688 C 136.46173095703125 93.25861358642578 137.4813232421875 92.8794174194336 137.34231567382812 89.10284423828125 C 137.2940673828125 84.91061401367188 138.61949157714844 84.80733489990234 139.25204467773438 86.19261932373047 C 139.86935424804688 82.4151611328125 146.6564178466797 80.7035903930664 147.9592742919922 83.49042510986328 C 148.44696044921875 92.57798767089844 150.23976135253906 94.74209594726562 151.943115234375 99.02886199951172 C 153.4373321533203 103.02996063232422 149.92864990234375 106.90463256835938 148.82266235351562 106.697021484375 C 152.75405883789062 109.95610809326172 150.6659393310547 114.18263244628906 148.57740783691406 113.4839096069336 C 154.57872009277344 112.79229736328125 157.9377899169922 122.57819366455078 157.52296447753906 123.16663360595703 C 161.5537109375 124.8782958984375 164.98562622070312 123.42071533203125 169.606689453125 122.64039611816406 C 174.39564514160156 119.72140502929688 175.77598571777344 121.51849365234375 177.7118682861328 122.51277923583984 C 179.32887268066406 122.67920684814453 179.9349822998047 125.43708801269531 182.61041259765625 127.79047393798828 C 183.80856323242188 130.2257843017578 182.38180541992188 133.13780212402344 183.4799041748047 135.50010681152344 C 186.193603515625 135.5384979248047 187.73008728027344 142.90615844726562 188.5701141357422 145.4564666748047 C 194.64541625976562 145.21444702148438 206.37448120117188 155.5347137451172 201.61123657226562 173.9727020263672 C 205.47738647460938 175.11997985839844 205.5496826171875 178.3306884765625 205.6055145263672 182.71676635742188 C 212.46185302734375 181.93821716308594 214.7643280029297 198.29690551757812 212.22280883789062 204.8045196533203 C 207.21707153320312 207.0699462890625 203.41065979003906 207.8345947265625 203.12603759765625 210.27186584472656 C 200.78948974609375 210.53298950195312 199.92385864257812 211.6923065185547 200.25120544433594 213.59422302246094 C 196.4251708984375 215.26161193847656 193.66612243652344 215.41616821289062 191.8700714111328 219.44639587402344 C 184.29763793945312 221.05149841308594 183.60897827148438 224.7908935546875 178.80397033691406 230.32858276367188 C 176.2972869873047 233.58346557617188 179.87966918945312 239.5982666015625 180.78294372558594 243.44667053222656 C 182.43772888183594 252.06039428710938 186.2247314453125 260.6801452636719 178.86045837402344 264.7051086425781 C 173.86546325683594 268.1161193847656 148.15988159179688 268.21478271484375 137.2039031982422 269.64794921875 C 130.215087890625 268.9468994140625 126.75662231445312 271.13885498046875 119.84877014160156 274.07366943359375 C 109.03337860107422 276.9664306640625 73.28329467773438 276.12017822265625 73.10650634765625 269.9765319824219 C 47.67625045776367 266.7572326660156 56.54016876220703 268.56146240234375 57.38485336303711 273.62860107421875 C 47.56659698486328 276.64495849609375 0.5662418603897095 273.3748474121094 0.6390244960784912 269.8865051269531 C -4.573150634765625 222.1683349609375 -3.4352595806121826 167.77650451660156 -1.295047402381897 118.44586181640625 C 12.235479354858398 119.196533203125 22.153059005737305 113.97248840332031 26.506567001342773 122.03813934326172 C 29.152090072631836 127.98047637939453 36.40633773803711 128.30859375 41.3789176940918 131.81866455078125 C 46.863643646240234 131.15667724609375 47.73811721801758 133.23373413085938 49.2224006652832 142.12939453125 C 50.3956184387207 147.3672637939453 61.6828498840332 148.62782287597656 62.822879791259766 147.0058135986328 C 62.13837814331055 136.75857543945312 63.02378463745117 133.86996459960938 62.519447326660156 128.3388671875 C 68.51448059082031 126.7046890258789 67.46959686279297 122.65108489990234 66.35546875 112.48600006103516 C 68.0782241821289 111.1832046508789 68.34088134765625 105.85420227050781 75.59027862548828 103.41484069824219 C 74.58426666259766 100.58305358886719 78.3909912109375 90.3605728149414 77.2159194946289 85.41873931884766 C 76.93787384033203 84.02715301513672 78.44314575195312 74.56629943847656 85.49580383300781 75.51837158203125 C 82.71997833251953 70.2279052734375 84.56563568115234 67.65943908691406 86.54917907714844 64.54119110107422" stroke-width="0.0" fill="url(#shape_3_fill)"/>
    <path d="M 674.3263549804688 -0.418271005153656 C 676.0997314453125 47.84135055541992 675.0172119140625 95.90840148925781 679.0753173828125 140.66326904296875 C 674.2424926757812 130.8087921142578 667.20751953125 125.28285217285156 661.5933837890625 120.36864471435547 C 660.9342041015625 119.9736099243164 655.1386108398438 109.36722564697266 649.6229248046875 110.9160385131836 C 648.6119995117188 112.51862335205078 644.794921875 148.85011291503906 642.1434326171875 154.7851104736328 C 630.5630493164062 154.470947265625 627.072509765625 142.4339599609375 627.4065551757812 138.22366333007812 C 623.001708984375 137.3686981201172 618.8055419921875 145.3034210205078 615.4195556640625 143.9809112548828 C 611.6814575195312 142.31817626953125 610.1524658203125 143.35159301757812 607.7339477539062 141.11422729492188 C 607.92919921875 137.4803466796875 610.8184814453125 132.1299285888672 606.8403930664062 121.05764770507812 C 598.0225830078125 133.4373779296875 597.4674072265625 139.23800659179688 594.6237182617188 142.98875427246094 C 598.86083984375 148.13807678222656 597.4917602539062 151.48194885253906 597.4459228515625 152.87344360351562 C 588.3636474609375 156.90933227539062 587.039794921875 163.9345245361328 579.689208984375 172.03536987304688 C 571.5867309570312 170.35264587402344 569.8544311523438 159.4408416748047 568.9925537109375 157.38914489746094 C 566.1402587890625 157.33819580078125 564.0713500976562 153.07882690429688 561.5960693359375 152.3321075439453 C 560.0765991210938 150.80479431152344 555.8737182617188 150.81114196777344 555.4464111328125 156.19386291503906 C 551.952392578125 156.25894165039062 550.3607788085938 158.93043518066406 548.9456176757812 159.13323974609375 C 547.2210083007812 157.1951141357422 543.6737670898438 157.40567016601562 536.1076049804688 153.9861602783203 C 531.7810668945312 154.86842346191406 529.9537963867188 158.4990997314453 523.8778686523438 157.4672393798828 C 518.2435302734375 160.9739990234375 520.8030395507812 161.6450958251953 522.781005859375 169.88148498535156 C 517.59375 168.5167999267578 516.1677856445312 170.35418701171875 516.4352416992188 171.501708984375 C 511.2713317871094 173.32232666015625 509.8158264160156 175.26531982421875 505.63153076171875 174.399169921875 C 502.80712890625 171.3826904296875 502.9545593261719 169.5362548828125 501.76593017578125 160.28759765625 C 493.7351989746094 145.91819763183594 507.97283935546875 122.13078308105469 518.6851806640625 126.20140838623047 C 523.5020141601562 125.01564025878906 538.9232788085938 110.58233642578125 548.7194213867188 112.95587158203125 C 557.2308959960938 110.68351745605469 556.9925537109375 109.41159057617188 556.4588012695312 106.33308410644531 C 560.1588745117188 108.4913101196289 564.7952880859375 103.08710479736328 570.8875732421875 105.03897094726562 C 574.6103515625 102.5207748413086 573.4152221679688 97.4561996459961 578.9320068359375 94.17166900634766 C 582.7601318359375 88.46800231933594 599.4392700195312 76.60005187988281 614.1104125976562 78.50357818603516 C 617.3638916015625 73.95343780517578 645.9258422851562 52.68257522583008 644.5466918945312 35.43696594238281 C 644.96728515625 32.441162109375 647.9923095703125 30.386058807373047 647.6533813476562 29.536497116088867 C 646.935302734375 28.289194107055664 664.630859375 -3.6078362464904785 674.3263549804688 -0.418271005153656" stroke-width="0.0" fill="url(#shape_4_fill)"/>
    <path d="M 151.60946655273438 68.49940490722656 C 152.31846618652344 69.00934600830078 186.33856201171875 84.04427337646484 192.72445678710938 92.70047760009766 C 179.12242126464844 117.16345977783203 217.7087860107422 150.07435607910156 220.81748962402344 154.95729064941406 C 238.8507537841797 170.0992889404297 241.91995239257812 184.12615966796875 240.8428497314453 193.85736083984375 C 238.16844177246094 193.1934356689453 236.18386840820312 186.40809631347656 236.7685546875 184.0560302734375 C 235.67747497558594 183.5869598388672 234.15818786621094 184.28875732421875 231.08924865722656 182.72837829589844 C 231.40867614746094 183.8714141845703 231.98104858398438 193.3672637939453 228.61671447753906 195.66729736328125 C 227.55714416503906 196.63404846191406 226.86920166015625 205.1630859375 221.4396209716797 207.7259979248047 C 215.0692901611328 206.59864807128906 214.3179931640625 197.9065704345703 214.66676330566406 194.86415100097656 C 212.9606170654297 185.43568420410156 211.8980712890625 184.94142150878906 206.42445373535156 177.4545135498047 C 205.87033081054688 172.96409606933594 205.90501403808594 164.90296936035156 203.630126953125 158.97756958007812 C 207.0172576904297 153.3667449951172 194.8517608642578 144.71127319335938 193.3837890625 141.19039916992188 C 189.05972290039062 140.25958251953125 188.76751708984375 137.72181701660156 186.1715087890625 136.2048797607422 C 178.46290588378906 133.13156127929688 179.23171997070312 126.63348388671875 183.01702880859375 117.32781982421875 C 179.3888702392578 116.50194549560547 177.4004669189453 117.60966491699219 173.1715850830078 117.70993041992188 C 178.8378448486328 127.8098373413086 175.1656494140625 131.47573852539062 151.654541015625 130.23033142089844 C 149.89193725585938 125.56883239746094 151.69236755371094 103.25627136230469 153.66371154785156 95.72101593017578 C 152.8638458251953 88.88514709472656 153.5132598876953 85.51287841796875 149.95748901367188 76.33019256591797 C 148.34957885742188 75.92943572998047 148.9875030517578 69.33374786376953 151.60946655273438 68.49940490722656" stroke-width="0.0" fill="url(#shape_5_fill)"/>
    <path d="M 613.1582641601562 83.16034698486328 C 618.595458984375 84.18138885498047 619.6262817382812 85.87451171875 630.7420654296875 85.75624084472656 C 636.1597290039062 86.0086669921875 637.2335815429688 87.34141540527344 641.2468872070312 88.44207000732422 C 642.1473999023438 87.59968566894531 668.3772583007812 92.32170867919922 673.5211791992188 98.06742858886719 C 673.597412109375 112.77722930908203 673.4382934570312 129.26132202148438 674.3065185546875 149.41615295410156 C 667.0135498046875 141.44996643066406 663.1640625 136.26260375976562 659.6393432617188 129.87698364257812 C 659.0070190429688 122.28211975097656 659.7116088867188 116.43978881835938 652.3933715820312 111.44385528564453 C 647.77978515625 116.66380310058594 645.0679321289062 142.35565185546875 642.2731323242188 143.16342163085938 C 643.6189575195312 145.22987365722656 642.0931396484375 148.75001525878906 643.6702270507812 150.1510467529297 C 639.9514770507812 151.43045043945312 637.9699096679688 152.66302490234375 635.217529296875 151.2235565185547 C 631.326171875 146.70179748535156 629.1932373046875 141.39401245117188 630.1055297851562 140.52694702148438 C 628.9032592773438 138.09423828125 622.8635864257812 136.9747772216797 620.8751831054688 138.583740234375 C 618.2238159179688 140.55401611328125 619.3060302734375 142.35789489746094 618.7177734375 145.6051788330078 C 614.5947875976562 144.52658081054688 613.8361206054688 143.1592559814453 610.2855834960938 143.67547607421875 C 608.5498657226562 140.4055938720703 609.6005249023438 139.24423217773438 609.2867431640625 137.46763610839844 C 606.5000610351562 132.4440460205078 604.6843872070312 126.60003662109375 597.4584350585938 128.03868103027344 C 603.0638427734375 135.38990783691406 595.522705078125 149.72096252441406 591.6060791015625 156.77854919433594 C 590.6681518554688 163.9010772705078 589.3756713867188 164.15679931640625 585.961181640625 168.41940307617188 C 584.462646484375 166.9395751953125 581.457275390625 165.0160369873047 581.5449829101562 162.10107421875 C 577.297607421875 160.43629455566406 575.7156982421875 157.1665802001953 574.7904052734375 153.98443603515625 C 565.2600708007812 155.59246826171875 556.3666381835938 155.3246612548828 556.1931762695312 151.3515625 C 555.8544921875 152.92604064941406 553.080322265625 154.71141052246094 552.88720703125 157.75521850585938 C 550.3814697265625 161.53778076171875 547.9805908203125 160.79164123535156 547.3238525390625 159.2306671142578 C 544.4151611328125 157.08786010742188 543.0247192382812 155.3158721923828 536.7510986328125 157.8299102783203 C 534.9454345703125 158.50152587890625 530.913818359375 157.10919189453125 528.5941772460938 158.22689819335938 C 526.0564575195312 159.2720947265625 526.3948364257812 162.59727478027344 525.2490844726562 165.7254180908203 C 524.5654296875 169.4605255126953 523.5797119140625 171.57618713378906 519.0409545898438 173.10057067871094 C 511.50274658203125 177.47483825683594 504.8945007324219 171.58145141601562 492.555908203125 166.3182830810547 C 488.43280029296875 141.6858367919922 504.2556457519531 120.5816879272461 513.0470581054688 118.56916809082031 C 529.4489135742188 125.91551971435547 540.6705932617188 108.99568176269531 551.018798828125 111.34120178222656 C 555.4172973632812 109.9041748046875 560.1310424804688 109.78948211669922 563.7688598632812 106.68505859375 C 564.631103515625 104.54084014892578 566.7992553710938 103.65116882324219 569.8040161132812 104.21835327148438 C 574.7749633789062 101.34764862060547 578.3380737304688 97.10213470458984 584.721923828125 96.10552978515625 C 597.91943359375 90.60295104980469 604.05517578125 80.88899230957031 613.1582641601562 83.16034698486328" stroke-width="0.0" fill="url(#shape_6_fill)"/>
    <path d="M -0.17879384756088257 114.77755737304688 C 28.80108070373535 120.78233337402344 37.383995056152344 127.65463256835938 49.16892623901367 139.9439697265625 C 76.49832153320312 157.81919860839844 51.19271469116211 219.14186096191406 50.39653396606445 241.86990356445312 C 52.64825439453125 260.19586181640625 48.64979934692383 264.64776611328125 48.43293380737305 265.9841613769531 C 37.9727897644043 267.7774963378906 11.237350463867188 263.9397888183594 5.614442825317383 261.708984375 C 3.565579414367676 212.56475830078125 -2.3424644470214844 164.38751220703125 -0.17879384756088257 114.77755737304688" stroke-width="0.0" fill="url(#shape_7_fill)"/>
    <path d="M 389.0556335449219 187.58509826660156 C 414.68133544921875 174.39047241210938 425.4018249511719 191.1425018310547 430.174560546875 203.69830322265625 C 473.32049560546875 191.76797485351562 495.41326904296875 206.31552124023438 491.7189025878906 232.78411865234375 C 490.9922790527344 250.48251342773438 486.185302734375 251.4823760986328 484.83721923828125 252.3580322265625 C 485.7804260253906 258.08050537109375 483.17877197265625 268.5441589355469 477.1231994628906 269.2052917480469 C 469.0430603027344 272.9302978515625 453.2210388183594 266.7112731933594 451.62237548828125 269.70989990234375 C 447.01153564453125 266.27825927734375 448.2099609375 261.2013854980469 448.998779296875 260.1684875488281 C 439.2446594238281 264.74957275390625 436.5111083984375 261.3908386230469 437.4282531738281 256.8903503417969 C 426.7724609375 256.44903564453125 425.9510803222656 258.34625244140625 421.2335510253906 262.2449035644531 C 418.5328369140625 264.2556457519531 417.5222473144531 267.61151123046875 414.8893127441406 272.2301025390625 C 414.0994567871094 273.2545471191406 394.86883544921875 268.4012145996094 392.5906066894531 264.1622619628906 C 391.82568359375 265.096435546875 389.0214538574219 263.322509765625 386.0362548828125 263.54583740234375 C 382.1159973144531 261.9425354003906 380.82177734375 263.1766052246094 376.5565490722656 261.03594970703125 C 374.97198486328125 256.3149719238281 376.1741638183594 252.44654846191406 372.8066101074219 249.16078186035156 C 359.494140625 243.89767456054688 373.8512878417969 195.66604614257812 378.27215576171875 180.1678009033203 C 383.1303405761719 170.93441772460938 394.39776611328125 176.68362426757812 389.0556335449219 187.58509826660156" stroke-width="0.0" fill="url(#shape_8_fill)"/>
    <path d="M 565.790771484375 157.4161834716797 C 567.8362426757812 159.13400268554688 569.0449829101562 166.8190155029297 568.9287109375 167.31497192382812 C 573.5792236328125 169.44737243652344 573.648193359375 170.90005493164062 577.7048950195312 174.25735473632812 C 581.931884765625 172.94320678710938 583.9734497070312 174.5652313232422 583.70703125 179.4731903076172 C 575.3404541015625 180.47747802734375 572.05419921875 225.61634826660156 577.2786865234375 226.9659423828125 C 577.8547973632812 229.99871826171875 581.2846069335938 235.656005859375 576.7921752929688 242.291259765625 C 568.6151123046875 238.8590850830078 566.2914428710938 237.25999450683594 558.489501953125 247.0408477783203 C 554.2426147460938 250.84640502929688 492.9502868652344 253.66151428222656 489.0091857910156 252.14154052734375 C 486.2418518066406 248.46730041503906 486.5360107421875 238.638427734375 491.087890625 229.42835998535156 C 486.44122314453125 226.2449188232422 483.1880798339844 222.28135681152344 481.43328857421875 215.8646697998047 C 476.5743713378906 209.8043670654297 479.1997985839844 205.80398559570312 482.7047424316406 205.95895385742188 C 479.94378662109375 205.3174591064453 481.22235107421875 198.6863250732422 487.3739013671875 198.679443359375 C 491.8792724609375 196.14683532714844 491.8417663574219 192.4986572265625 492.9215087890625 187.84268188476562 C 490.9267578125 174.04574584960938 491.3852233886719 173.00872802734375 489.9176025390625 165.04908752441406 C 504.0694274902344 164.64395141601562 505.4263610839844 168.90504455566406 517.1691284179688 167.56471252441406 C 523.37744140625 169.68017578125 524.5827026367188 167.33331298828125 525.9818725585938 166.431640625 C 524.3250732421875 160.55137634277344 529.8513793945312 155.82138061523438 533.3677978515625 158.59622192382812 C 537.6414184570312 161.83526611328125 541.3956909179688 162.455810546875 542.1981811523438 163.9447021484375 C 545.2488403320312 164.0504150390625 545.9437866210938 165.720947265625 549.5092163085938 166.4173583984375 C 548.8175048828125 165.62721252441406 551.1728515625 157.3280792236328 555.2072143554688 157.6627655029297 C 557.2670288085938 161.35198974609375 563.1575317382812 158.05984497070312 565.790771484375 157.4161834716797" stroke-width="0.0" fill="url(#shape_9_fill)"/>
    <path d="M 561.54541015625 156.56320190429688 C 567.0184936523438 153.197265625 570.9691162109375 159.2249298095703 570.6543579101562 169.22357177734375 C 572.6328125 170.143310546875 576.7183227539062 168.97865295410156 579.2874145507812 175.2242431640625 C 579.8490600585938 178.00645446777344 578.7236938476562 187.3626708984375 576.9305419921875 191.53607177734375 C 571.2700805664062 196.7980194091797 571.9849243164062 229.9724884033203 578.0745849609375 230.9768524169922 C 576.070068359375 231.159423828125 575.6058349609375 236.83465576171875 572.0274047851562 238.04684448242188 C 559.9309692382812 235.94981384277344 567.4483032226562 238.6186065673828 564.285400390625 248.86593627929688 C 552.2254028320312 252.98939514160156 501.2852783203125 249.1162567138672 500.1814270019531 251.53500366210938 C 491.1524353027344 251.79119873046875 487.9693298339844 236.76536560058594 491.0892028808594 229.31553649902344 C 486.62579345703125 224.92654418945312 481.9859924316406 219.2708740234375 481.5531921386719 215.89437866210938 C 475.6551208496094 214.0699005126953 474.9519348144531 212.59918212890625 469.25262451171875 199.62139892578125 C 468.92431640625 194.5028076171875 475.8310241699219 190.70571899414062 480.9140319824219 196.5508575439453 C 489.9901123046875 196.02294921875 494.39520263671875 184.16969299316406 496.63330078125 182.96197509765625 C 495.9632263183594 179.50741577148438 496.91839599609375 177.0159454345703 499.8278503417969 177.70034790039062 C 507.85662841796875 179.1905975341797 516.770263671875 181.72283935546875 520.1610717773438 173.98672485351562 C 523.1143188476562 173.29554748535156 526.503173828125 159.1816864013672 532.0308227539062 157.02371215820312 C 537.69775390625 156.56919860839844 538.5042114257812 160.49237060546875 541.7578125 165.81626892089844 C 545.6993408203125 165.7411651611328 549.0007934570312 167.07925415039062 551.2113647460938 165.2821502685547 C 551.1139526367188 156.1155242919922 553.1823120117188 153.0331573486328 561.54541015625 156.56320190429688" stroke-width="0.0" fill="url(#shape_10_fill)"/>
    <path d="M 449.26177978515625 107.70316314697266 C 453.11065673828125 109.49561309814453 453.8789367675781 112.03669738769531 460.5760498046875 112.85633850097656 C 463.8382568359375 116.67655181884766 469.5762023925781 116.53546905517578 474.76416015625 116.83570098876953 C 488.3858642578125 124.53064727783203 488.8026123046875 125.24976348876953 493.2904052734375 129.52423095703125 C 493.6942138671875 131.6241912841797 493.1747741699219 134.63771057128906 496.8836364746094 136.22604370117188 C 494.4415283203125 135.04957580566406 492.1424560546875 137.06512451171875 486.7173156738281 139.2630615234375 C 483.249267578125 136.3502960205078 481.1645812988281 137.5622100830078 477.1319885253906 138.80435180664062 C 470.0464782714844 140.31016540527344 467.2719421386719 139.4970245361328 467.09454345703125 134.3790740966797 C 465.275146484375 133.4932403564453 460.6024169921875 133.52566528320312 459.7420959472656 134.3783721923828 C 457.7005615234375 139.04164123535156 473.6437683105469 148.7496795654297 486.42376708984375 157.0590362548828 C 476.20318603515625 176.6263427734375 475.3631286621094 177.17686462402344 471.1152648925781 181.11325073242188 C 466.7463073730469 182.30557250976562 466.33599853515625 186.8365936279297 464.52801513671875 188.7787628173828 C 461.783203125 185.78076171875 457.02691650390625 178.30621337890625 455.56396484375 176.00082397460938 C 448.268798828125 179.37921142578125 447.50982666015625 182.5459747314453 439.9036865234375 183.0844268798828 C 439.4988708496094 183.86602783203125 436.1462097167969 195.94638061523438 434.9651184082031 197.69125366210938 C 429.215576171875 200.4310760498047 417.46563720703125 180.5965118408203 417.7143859863281 179.7311248779297 C 416.95556640625 179.56048583984375 399.1926574707031 176.86175537109375 399.37677001953125 171.93368530273438 C 393.5353088378906 170.23464965820312 390.2695617675781 176.367431640625 380.1348571777344 174.16104125976562 C 380.2650451660156 164.28382873535156 384.0149230957031 145.22593688964844 392.4254150390625 139.31597900390625 C 397.90966796875 137.4336395263672 399.3930358886719 129.69534301757812 401.9972839355469 122.00867462158203 C 408.55621337890625 99.43803405761719 426.47845458984375 104.40526580810547 449.26177978515625 107.70316314697266" stroke-width="0.0" fill="url(#shape_11_fill)"/>
    <path d="M 602.847900390625 127.47935485839844 C 605.3175659179688 131.77951049804688 605.754638671875 143.792724609375 608.2512817382812 144.51785278320312 C 611.858154296875 144.714599609375 611.814208984375 148.15667724609375 615.4075317382812 152.117919921875 C 618.2119140625 149.8243408203125 618.4794311523438 141.8469696044922 620.9767456054688 140.79571533203125 C 623.4258422851562 137.3602294921875 625.6900024414062 137.3325653076172 628.1400146484375 140.21315002441406 C 627.6919555664062 142.1295928955078 629.2393798828125 144.66171264648438 629.1820068359375 147.04348754882812 C 632.1250610351562 149.74822998046875 631.7969360351562 151.10926818847656 637.0335083007812 153.09518432617188 C 642.49365234375 154.3522186279297 641.2924194335938 160.3585205078125 644.5455322265625 169.16065979003906 C 638.1707763671875 184.19483947753906 639.443359375 194.4987335205078 639.852783203125 206.48524475097656 C 642.2185668945312 219.09603881835938 646.3988037109375 232.16627502441406 642.8582763671875 245.6710662841797 C 623.3616333007812 248.55520629882812 610.7772216796875 248.9214324951172 577.8073120117188 256.6356201171875 C 571.5039672851562 245.97097778320312 572.4361572265625 232.1577606201172 572.7899169921875 219.46092224121094 C 568.3674926757812 209.89886474609375 572.3427734375 168.80242919921875 583.1116943359375 169.81741333007812 C 597.42578125 163.39820861816406 598.8937377929688 144.06654357910156 599.6898803710938 141.75254821777344 C 595.6708984375 139.2742462158203 597.098876953125 136.77163696289062 602.847900390625 127.47935485839844" stroke-width="0.0" fill="url(#shape_12_fill)"/>
    <path d="M 409.3633728027344 176.4044189453125 C 420.59014892578125 173.44400024414062 432.5515441894531 212.7531280517578 427.9230041503906 220.2206573486328 C 419.9898376464844 228.74447631835938 426.3527526855469 238.42642211914062 428.7933349609375 245.82968139648438 C 430.62335205078125 262.44720458984375 420.7143859863281 265.80926513671875 416.9959411621094 268.0622863769531 C 401.5674743652344 268.3067321777344 396.4862060546875 269.79913330078125 389.7679138183594 268.2274169921875 C 385.4864807128906 264.5392150878906 382.5122985839844 265.6446838378906 380.2931213378906 265.2963562011719 C 375.3270568847656 262.7037353515625 376.17388916015625 260.7490234375 375.2599792480469 258.3832702636719 C 376.3238525390625 255.57479858398438 375.56182861328125 253.86390686035156 374.5136413574219 253.3413543701172 C 372.8638610839844 253.98765563964844 370.4519958496094 250.68511962890625 368.9391784667969 251.69544982910156 C 359.9705810546875 247.33139038085938 366.01531982421875 228.39254760742188 367.8646545410156 221.12889099121094 C 368.96429443359375 218.86367797851562 372.5162658691406 202.8682403564453 380.68603515625 203.24542236328125 C 379.5909118652344 200.8763427734375 380.76910400390625 186.0207061767578 388.3356018066406 183.5714569091797 C 391.659423828125 176.52882385253906 392.8398132324219 176.53175354003906 409.3633728027344 176.4044189453125" stroke-width="0.0" fill="url(#shape_13_fill)"/>
    <path d="M 509.5069274902344 66.73194885253906 C 512.5474243164062 66.27560424804688 521.3811645507812 70.16262817382812 523.2296142578125 74.7516098022461 C 530.7526245117188 79.46692657470703 533.7094116210938 79.96576690673828 536.72802734375 89.97810363769531 C 539.322265625 90.87957763671875 544.5418701171875 90.3123550415039 545.0235595703125 91.16957092285156 C 545.5333862304688 92.7576904296875 556.0081787109375 97.09928131103516 561.4354248046875 94.5950698852539 C 563.691650390625 97.46861267089844 567.3466186523438 97.50748443603516 568.7245483398438 99.13640594482422 C 564.6441650390625 105.00846099853516 555.3145751953125 115.59495544433594 544.6550903320312 110.87228393554688 C 541.48974609375 111.90663146972656 539.3248901367188 114.92627716064453 534.7960815429688 118.321044921875 C 528.1886596679688 120.52153778076172 520.534912109375 123.93535614013672 515.822265625 118.7541732788086 C 510.6022033691406 119.53500366210938 501.442138671875 125.4482421875 499.0389709472656 125.03803253173828 C 497.08404541015625 128.387939453125 493.6746826171875 128.33245849609375 489.478271484375 127.60784149169922 C 489.44818115234375 122.90208435058594 468.7963562011719 118.98284912109375 468.0724792480469 117.99544525146484 C 463.303955078125 117.74678802490234 463.1062927246094 116.44483184814453 462.4153747558594 116.26012420654297 C 468.20294189453125 115.10379028320312 470.8728942871094 109.08300018310547 477.5907897949219 103.86846923828125 C 476.469970703125 90.34320831298828 473.9653625488281 87.02066802978516 475.4208984375 82.15885925292969 C 474.5901184082031 70.93414306640625 475.34326171875 70.3868408203125 478.6448059082031 66.56129455566406 C 479.0369873046875 64.25357055664062 482.7484436035156 64.376953125 484.7767333984375 63.68047332763672 C 494.2176208496094 63.57914733886719 501.6388854980469 61.77408981323242 509.5069274902344 66.73194885253906" stroke-width="0.0" fill="url(#shape_14_fill)"/>
    <path d="M 532.3489379882812 159.77516174316406 C 543.810546875 162.85403442382812 544.0713500976562 163.81546020507812 547.117431640625 165.17665100097656 C 549.6718139648438 167.65122985839844 549.5642700195312 170.2832794189453 543.7672729492188 180.47515869140625 C 541.9710693359375 189.74661254882812 536.762451171875 231.06764221191406 536.3311157226562 233.49932861328125 C 540.5736694335938 237.0275421142578 540.8532104492188 250.2499542236328 515.2478637695312 252.17904663085938 C 501.8060607910156 251.3302459716797 483.40283203125 245.2599639892578 487.96197509765625 230.60533142089844 C 477.202392578125 218.15908813476562 478.7697448730469 207.3863983154297 482.88494873046875 200.40130615234375 C 486.8078918457031 197.4434051513672 488.5367736816406 197.56907653808594 489.18707275390625 197.7381134033203 C 484.7568359375 192.65728759765625 488.2818298339844 179.32406616210938 487.7911071777344 172.82386779785156 C 486.7183837890625 169.2276611328125 488.3628234863281 166.00689697265625 492.7231140136719 167.77210998535156 C 505.57379150390625 178.87533569335938 511.3224182128906 184.21701049804688 522.7005004882812 172.65870666503906 C 525.549072265625 170.95835876464844 525.53857421875 167.30532836914062 526.9601440429688 165.09710693359375 C 527.3965454101562 161.08091735839844 529.9926147460938 159.277587890625 532.3489379882812 159.77516174316406" stroke-width="0.0" fill="url(#shape_15_fill)"/>
    <path d="M 652.1460571289062 110.3529052734375 C 653.9119262695312 110.45352935791016 662.960205078125 122.072021484375 660.6668090820312 129.2795867919922 C 664.9046630859375 134.38983154296875 665.1820068359375 141.4566192626953 673.4091796875 148.36582946777344 C 676.509033203125 179.1492156982422 673.4132080078125 211.794189453125 674.2614135742188 257.177490234375 C 673.0584106445312 255.09263610839844 647.1871948242188 262.3744201660156 637.505126953125 252.63218688964844 C 636.2636108398438 245.3720703125 640.916748046875 123.63318634033203 652.1460571289062 110.3529052734375" stroke-width="0.0" fill="url(#shape_16_fill)"/>
    <path d="M 600.9423828125 130.034912109375 C 603.0303344726562 128.00128173828125 607.38623046875 132.0259552001953 606.4930419921875 133.96824645996094 C 608.0980834960938 135.07127380371094 607.7855834960938 139.9287109375 609.47119140625 142.62294006347656 C 625.523193359375 143.2457733154297 626.5682373046875 224.9520721435547 625.42822265625 254.2109375 C 595.459228515625 258.95745849609375 578.119140625 251.06082153320312 579.9443969726562 235.98623657226562 C 564.865478515625 227.6153106689453 597.432373046875 154.1885986328125 600.9423828125 130.034912109375" stroke-width="0.0" fill="url(#shape_17_fill)"/>
    <path d="M 320.99334716796875 186.3026123046875 C 321.3685302734375 186.45896911621094 323.19879150390625 189.34071350097656 322.97747802734375 196.39027404785156 C 333.2825012207031 193.08714294433594 336.0412292480469 191.58724975585938 338.3705749511719 194.24012756347656 C 341.3621826171875 198.87477111816406 346.34698486328125 197.22596740722656 353.65850830078125 195.42642211914062 C 357.59979248046875 194.710693359375 358.4463195800781 196.98411560058594 357.7306213378906 201.3467559814453 C 359.5237731933594 203.97325134277344 361.5746765136719 204.16661071777344 362.35205078125 207.927001953125 C 367.24859619140625 207.0431365966797 368.47991943359375 208.22923278808594 368.174072265625 211.84039306640625 C 369.98858642578125 220.35983276367188 370.74090576171875 222.6002960205078 366.03857421875 225.3656768798828 C 366.7265930175781 231.520263671875 365.1758728027344 235.59912109375 368.0313720703125 248.63211059570312 C 368.8262023925781 251.7158203125 366.25970458984375 256.32928466796875 357.9676513671875 254.7845458984375 C 353.4700927734375 255.42684936523438 330.4879455566406 255.0430908203125 322.0491943359375 255.29397583007812 C 313.417724609375 255.9917449951172 312.20037841796875 253.51510620117188 308.1056823730469 242.1078643798828 C 304.5681457519531 230.00701904296875 320.759521484375 194.00311279296875 320.99334716796875 186.3026123046875" stroke-width="0.0" fill="url(#shape_18_fill)"/>
    <path d="M 479.1019287109375 216.0635528564453 C 492.8554382324219 247.1007843017578 503.1431579589844 256.7974853515625 486.18389892578125 275.5813293457031 C 470.7552490234375 279.11590576171875 444.0085754394531 261.4024658203125 442.1384582519531 261.6935119628906 C 438.6325988769531 260.6457824707031 437.13592529296875 258.23187255859375 432.5470886230469 258.06719970703125 C 429.6721496582031 258.14599609375 427.65081787109375 257.4880065917969 428.162841796875 254.10781860351562 C 427.8868713378906 239.6925811767578 421.5927734375 232.42588806152344 422.71917724609375 229.14430236816406 C 424.4048156738281 227.4043731689453 421.2955627441406 227.06922912597656 420.0159912109375 225.7183074951172 C 427.7179870605469 219.50157165527344 429.69036865234375 218.8047637939453 429.2418518066406 215.47525024414062 C 438.818603515625 195.09152221679688 470.7463073730469 198.97027587890625 479.1019287109375 216.0635528564453" stroke-width="0.0" fill="url(#shape_19_fill)"/>
    <path d="M 673.9439697265625 -2.8886988162994385 C 675.0543823242188 32.860992431640625 674.5826416015625 64.76441955566406 674.357666015625 97.3183822631836 C 669.9014892578125 96.05972290039062 651.7445678710938 87.31768798828125 643.544921875 90.0843276977539 C 638.6534423828125 89.55377197265625 638.18798828125 85.87251281738281 637.6463012695312 84.54212188720703 C 626.0841064453125 84.53162384033203 619.0941772460938 92.7887954711914 608.5226440429688 86.50896453857422 C 609.448974609375 75.2006607055664 613.0672607421875 73.59004974365234 615.1178588867188 71.98089599609375 C 622.6923828125 69.1146240234375 649.3118896484375 25.57032012939453 648.4509887695312 22.521102905273438 C 655.9041137695312 12.577800750732422 656.3966674804688 3.9168150424957275 668.101318359375 4.047584533691406 C 669.7968139648438 2.668381452560425 670.17578125 1.1396732330322266 673.9439697265625 -2.8886988162994385" stroke-width="0.0" fill="url(#shape_20_fill)"/>
    <path d="M 562.2576904296875 156.01731872558594 C 569.867431640625 156.55856323242188 569.8524780273438 162.32188415527344 574.5166625976562 165.18801879882812 C 585.5652465820312 168.28675842285156 575.8226928710938 231.2640838623047 577.4502563476562 240.807373046875 C 575.4931030273438 244.620361328125 571.927734375 246.56661987304688 572.0657958984375 252.96792602539062 C 559.2951049804688 250.6497802734375 543.0548706054688 251.3068389892578 540.0354614257812 246.25823974609375 C 544.3167724609375 244.7101593017578 540.3115234375 164.52398681640625 555.3162231445312 157.84051513671875 C 555.329345703125 153.2180633544922 558.630859375 153.1462860107422 562.2576904296875 156.01731872558594" stroke-width="0.0" fill="url(#shape_21_fill)"/>
    <path d="M 215.3094940185547 209.54017639160156 C 231.8809814453125 210.56622314453125 231.8982391357422 243.6179656982422 219.8769073486328 255.8013458251953 C 211.74774169921875 263.24517822265625 209.7821807861328 264.63262939453125 208.32791137695312 273.5204162597656 C 205.7369384765625 275.3721008300781 206.795654296875 276.8938903808594 207.31004333496094 279.77093505859375 C 207.0253448486328 283.1810607910156 204.05030822753906 285.320068359375 200.2525177001953 284.88897705078125 C 200.1495819091797 283.47576904296875 191.05726623535156 272.4476013183594 187.9163055419922 265.11065673828125 C 186.56179809570312 261.40008544921875 183.8264617919922 262.19757080078125 181.52503967285156 261.7399597167969 C 180.71006774902344 260.7181701660156 179.84120178222656 260.5392761230469 178.67662048339844 254.51939392089844 C 180.3550262451172 248.6790771484375 169.269775390625 243.35887145996094 170.7924346923828 237.843994140625 C 175.8190460205078 213.4769287109375 177.6779022216797 213.20562744140625 185.8379669189453 220.6045684814453 C 193.94882202148438 218.9101104736328 194.305419921875 215.47500610351562 197.8212890625 214.03282165527344 C 189.23460388183594 205.9254150390625 189.09805297851562 202.11688232421875 197.9341583251953 198.29502868652344 C 213.8607635498047 198.41812133789062 214.8319854736328 200.73338317871094 215.3094940185547 209.54017639160156" stroke-width="0.0" fill="url(#shape_22_fill)"/>
    <path d="M 111.53973388671875 426.39715576171875 C 112.72280883789062 429.2763977050781 110.99584197998047 431.1856384277344 110.66850280761719 431.64178466796875 C 104.932373046875 432.9343566894531 102.60330963134766 433.6597900390625 91.857421875 432.9734191894531 C 89.75899505615234 435.9652099609375 95.68566131591797 446.421630859375 91.63571166992188 452.13970947265625 C 78.66380310058594 444.9972229003906 46.938175201416016 447.9271240234375 24.964557647705078 449.6473388671875 C 14.005337715148926 446.2749938964844 13.874510765075684 439.7803955078125 17.669057846069336 436.40960693359375 C 34.14669418334961 427.7621765136719 50.70616149902344 427.00177001953125 70.3991470336914 427.054443359375 C 75.10376739501953 425.4712829589844 109.06270599365234 419.16644287109375 111.53973388671875 426.39715576171875" stroke-width="0.0" fill="url(#shape_23_fill)"/>
    <path d="M 194.67172241210938 122.59391021728516 C 199.09825134277344 125.2555923461914 209.59938049316406 144.97108459472656 214.34722900390625 145.07009887695312 C 215.53346252441406 148.17282104492188 218.4895782470703 149.7440948486328 220.1322784423828 153.4873504638672 C 227.02467346191406 158.2630157470703 248.63302612304688 178.9214630126953 244.5727081298828 199.54891967773438 C 239.167236328125 199.545166015625 235.5169219970703 187.1453094482422 232.65655517578125 180.7354736328125 C 234.27774047851562 185.8767547607422 233.77053833007812 195.8875732421875 231.3794403076172 196.57797241210938 C 225.4941864013672 199.48365783691406 225.0219268798828 201.87281799316406 220.4669952392578 208.5790557861328 C 215.19203186035156 207.6535186767578 213.67007446289062 199.49264526367188 214.15252685546875 196.00399780273438 C 212.67068481445312 189.62037658691406 212.58413696289062 183.0499725341797 206.88441467285156 178.27188110351562 C 203.9917755126953 174.0263671875 205.08636474609375 173.03390502929688 205.5586395263672 167.8863525390625 C 202.5602569580078 148.794677734375 200.42855834960938 148.24176025390625 192.75054931640625 144.2400665283203 C 189.19540405273438 142.28294372558594 191.0318145751953 128.26055908203125 194.67172241210938 122.59391021728516" stroke-width="0.0" fill="url(#shape_24_fill)"/>
    <path d="M 595.7640380859375 410.9814147949219 C 598.2081909179688 412.0573425292969 626.2210083007812 409.29998779296875 627.9503173828125 416.12298583984375 C 628.2554931640625 421.03070068359375 626.8938598632812 425.0867919921875 628.9327392578125 426.6771240234375 C 630.705810546875 428.8621826171875 635.135986328125 428.29693603515625 637.5792236328125 437.7453918457031 C 617.2637329101562 446.7635803222656 577.4710083007812 439.8846130371094 574.4749755859375 433.7227783203125 C 568.4368286132812 425.5525207519531 574.3115234375 419.1732482910156 576.3154907226562 414.0677795410156 C 579.7998657226562 409.2415771484375 587.1315307617188 412.2554626464844 595.7640380859375 410.9814147949219" stroke-width="0.0" fill="url(#shape_25_fill)"/>
    <path d="M 142.915283203125 66.70301055908203 C 144.0814971923828 68.92585754394531 149.16944885253906 68.34037780761719 149.62930297851562 69.1389389038086 C 148.90591430664062 70.90142822265625 150.45985412597656 71.826171875 149.7667694091797 73.86494445800781 C 151.04710388183594 74.45252227783203 150.30320739746094 78.31278228759766 150.90623474121094 81.585693359375 C 152.10751342773438 89.49942016601562 152.57806396484375 97.8359603881836 153.9394989013672 104.10128784179688 C 153.52073669433594 107.62052917480469 155.10231018066406 108.52267456054688 154.98086547851562 111.51567840576172 C 158.20480346679688 123.4112319946289 155.38121032714844 133.51148986816406 150.3623046875 133.58592224121094 C 142.93246459960938 126.9747543334961 137.06871032714844 120.46331024169922 125.59626007080078 117.32357025146484 C 122.5035400390625 114.3006362915039 124.58367919921875 109.68571472167969 126.8670425415039 107.0987777709961 C 128.830322265625 106.85297393798828 128.8767547607422 105.28238677978516 132.6486053466797 104.6855697631836 C 138.98464965820312 96.47061920166016 134.9249725341797 93.09508514404297 133.35801696777344 90.12872314453125 C 134.21652221679688 88.9154052734375 139.2813262939453 87.15599060058594 140.04806518554688 85.31233978271484 C 138.1282501220703 84.74939727783203 138.7832489013672 77.64632415771484 139.51512145996094 77.4777603149414 C 143.55035400390625 76.59620666503906 142.6558074951172 70.31471252441406 142.915283203125 66.70301055908203" stroke-width="0.0" fill="url(#shape_26_fill)"/>
    <path d="M 142.9176025390625 67.89261627197266 C 149.25474548339844 67.55239868164062 149.7554473876953 67.88188171386719 148.5857391357422 76.17655944824219 C 151.1053924560547 77.58573150634766 151.38076782226562 80.2397232055664 153.64102172851562 84.28688049316406 C 150.7327880859375 91.04302978515625 153.9638671875 93.78677368164062 151.91505432128906 104.42811584472656 C 153.4677276611328 105.54229736328125 153.2826385498047 109.29442596435547 155.3837127685547 112.87202453613281 C 152.92550659179688 117.29570770263672 157.94003295898438 122.19651794433594 154.66456604003906 125.86186218261719 C 152.64418029785156 132.0438690185547 151.3511962890625 133.1742401123047 147.4539031982422 133.6224822998047 C 141.0706787109375 132.5336151123047 128.68568420410156 120.65249633789062 129.2217254638672 118.28238677978516 C 124.67727661132812 118.9340591430664 122.29305267333984 114.23870086669922 128.23184204101562 110.41474151611328 C 123.55203247070312 108.63040161132812 124.29766082763672 105.90908813476562 133.1306915283203 106.73143005371094 C 136.3955841064453 105.593994140625 134.15504455566406 92.9311752319336 133.7735595703125 89.54805755615234 C 139.54771423339844 87.58541870117188 138.62071228027344 84.72474670410156 138.43824768066406 81.67095184326172 C 139.0782928466797 77.50397491455078 140.36459350585938 76.78921508789062 141.85150146484375 77.01758575439453 C 145.3586883544922 73.1046142578125 143.00762939453125 69.76927185058594 142.9176025390625 67.89261627197266" stroke-width="0.0" fill="url(#shape_27_fill)"/>
    <path d="M -0.31563469767570496 -0.27042555809020996 C 4.697809219360352 0.3804602324962616 9.64400577545166 -0.5247148275375366 19.315902709960938 -0.7505030035972595 C 23.063810348510742 0.018873421475291252 23.187204360961914 4.207221508026123 38.806941986083984 11.77285385131836 C 35.033748626708984 25.354984283447266 28.0175724029541 26.110973358154297 27.113487243652344 22.948753356933594 C 40.454612731933594 24.352405548095703 47.594635009765625 25.140304565429688 49.2220573425293 43.1387939453125 C 36.56268310546875 45.24705505371094 31.479591369628906 45.36156463623047 24.885421752929688 42.431007385253906 C 19.179101943969727 38.06686019897461 11.451268196105957 37.65793991088867 10.533987045288086 34.04419708251953 C 9.405089378356934 35.847965240478516 13.490693092346191 39.86493682861328 14.313176155090332 41.46855545043945 C 15.301477432250977 41.94312286376953 14.686590194702148 44.20100402832031 18.122615814208984 47.90463638305664 C 20.064401626586914 51.0728759765625 18.751489639282227 52.309391021728516 20.33525276184082 57.090492248535156 C 20.491281509399414 62.99951934814453 14.087921142578125 64.96250915527344 8.80528450012207 61.26725769042969 C 5.496126174926758 60.88491439819336 3.5339221954345703 59.141441345214844 0.3249877393245697 59.4337158203125 C -0.3176342248916626 39.7786750793457 -0.32486677169799805 19.628402709960938 -0.31563469767570496 -0.27042555809020996" stroke-width="0.0" fill="url(#shape_28_fill)"/>
    <path d="M 299.43243408203125 197.3612060546875 C 297.58001708984375 199.21591186523438 299.9803466796875 202.16281127929688 301.493408203125 207.97882080078125 C 299.2608642578125 212.12149047851562 322.0776062011719 229.415283203125 315.54779052734375 255.68870544433594 C 311.7887878417969 253.92640686035156 310.5325012207031 254.98280334472656 306.30596923828125 255.72665405273438 C 301.6877746582031 258.0585021972656 295.7057800292969 257.9153747558594 281.035888671875 256.4091491699219 C 280.42059326171875 230.4263916015625 285.6667175292969 216.74270629882812 299.43243408203125 197.3612060546875" stroke-width="0.0" fill="url(#shape_29_fill)"/>
    <path d="M -0.030780233442783356 0.049907904118299484 C 4.459552764892578 0.4479614496231079 9.588737487792969 -0.4148138761520386 14.5507230758667 0.13265325129032135 C 15.72713565826416 0.4946059584617615 16.179067611694336 5.317652702331543 16.183847427368164 8.05224323272705 C 18.9381046295166 10.8051176071167 22.05807876586914 18.85976219177246 26.927474975585938 20.802928924560547 C 27.112751007080078 22.48809051513672 24.599660873413086 26.852933883666992 24.49898338317871 31.523279190063477 C 20.459196090698242 32.28992462158203 14.906951904296875 31.300310134887695 7.405503273010254 34.095741271972656 C 9.120264053344727 35.863746643066406 8.807865142822266 38.69544982910156 10.867895126342773 40.47506332397461 C 9.884398460388184 45.07351303100586 7.55617094039917 51.41242599487305 11.488760948181152 53.91518783569336 C 17.711759567260742 51.51121520996094 19.53880500793457 52.02682876586914 18.32038116455078 58.059234619140625 C 10.847301483154297 59.83955001831055 9.844764709472656 63.13263702392578 0.2191457450389862 61.172386169433594 C -0.4162499010562897 39.95852279663086 -0.3543977439403534 19.754085540771484 -0.030780233442783356 0.049907904118299484" stroke-width="0.0" fill="url(#shape_30_fill)"/>
    <path d="M 546.78662109375 70.62138366699219 C 545.8274536132812 76.4791488647461 577.10986328125 89.15087127685547 581.5535278320312 91.53327178955078 C 580.7498779296875 92.40729522705078 577.1124267578125 93.19831848144531 576.9299926757812 98.21477508544922 C 573.2540283203125 100.7806625366211 572.0861206054688 100.040771484375 569.2412109375 99.9366226196289 C 567.1295776367188 95.84525299072266 544.182861328125 95.98394012451172 538.557373046875 88.46802520751953 C 538.5900268554688 85.46167755126953 537.56884765625 83.28101348876953 535.6287231445312 82.50728607177734 C 534.7935791015625 79.5614242553711 528.7886962890625 79.6079330444336 526.9783935546875 78.34725952148438 C 525.3287963867188 75.78462219238281 527.7816772460938 70.89971160888672 532.848388671875 69.20271301269531 C 536.5098266601562 67.59212493896484 540.5780639648438 70.07743835449219 546.78662109375 70.62138366699219" stroke-width="0.0" fill="url(#shape_31_fill)"/>
    <path d="M 447.9768371582031 264.1378173828125 C 450.6859436035156 265.2559814453125 451.3128967285156 266.7111511230469 455.96270751953125 267.6836242675781 C 460.5113830566406 267.6551208496094 465.32232666015625 270.3759765625 469.91680908203125 273.2327575683594 C 470.4351501464844 275.6302490234375 471.8253173828125 276.8928527832031 471.6768798828125 280.7627258300781 C 450.2896423339844 289.2089538574219 428.4271240234375 285.8319091796875 415.8064880371094 284.6686096191406 C 413.3829650878906 273.9144592285156 415.2159423828125 272.34912109375 415.68609619140625 268.244140625 C 418.1906433105469 267.2078552246094 417.7781066894531 264.8067626953125 419.34991455078125 263.0802917480469 C 431.6198425292969 253.18283081054688 443.5772705078125 255.79075622558594 447.9768371582031 264.1378173828125" stroke-width="0.0" fill="url(#shape_32_fill)"/>
    <path d="M 271.04266357421875 192.14724731445312 C 277.80780029296875 191.67706298828125 285.1260681152344 243.63153076171875 280.6190490722656 244.64649963378906 C 279.1589660644531 247.1805419921875 273.8215026855469 246.9185028076172 269.9324951171875 248.43585205078125 C 266.4452209472656 245.87649536132812 266.7938232421875 241.99034118652344 261.2115478515625 240.81430053710938 C 254.6015167236328 211.24082946777344 262.5010986328125 206.7393035888672 271.04266357421875 192.14724731445312" stroke-width="0.0" fill="url(#shape_33_fill)"/>
    <path d="M 257.9388732910156 419.6768798828125 C 259.3775939941406 424.1073913574219 266.09735107421875 429.5616149902344 267.27984619140625 439.9882507324219 C 262.1763916015625 442.4730224609375 261.0865478515625 446.5755920410156 253.6929931640625 447.75750732421875 C 246.3530731201172 445.6648864746094 219.72463989257812 447.82489013671875 212.59339904785156 444.6330871582031 C 213.02471923828125 436.99578857421875 213.95974731445312 436.2222900390625 215.907958984375 434.44671630859375 C 216.1446075439453 433.3909912109375 225.00491333007812 433.37249755859375 226.62869262695312 430.26141357421875 C 228.5281219482422 419.830810546875 239.7184600830078 421.3990173339844 257.9388732910156 419.6768798828125" stroke-width="0.0" fill="url(#shape_34_fill)"/>
    <path d="M 106.19964599609375 69.90315246582031 C 109.41522216796875 69.95460510253906 111.9765853881836 78.70569610595703 111.76277160644531 83.32308197021484 C 117.01919555664062 84.98204040527344 117.42973327636719 110.27777099609375 117.71136474609375 110.87574768066406 C 116.87606811523438 112.83627319335938 111.97857666015625 114.52574157714844 107.02101135253906 122.30292510986328 C 104.87651824951172 117.15797424316406 96.55923461914062 118.8161392211914 91.53240966796875 112.75360107421875 C 89.95698547363281 85.47463989257812 104.40110778808594 84.3501968383789 106.19964599609375 69.90315246582031" stroke-width="0.0" fill="url(#shape_35_fill)"/>
    <path d="M 451.5693359375 178.5651092529297 C 453.4316711425781 176.3483123779297 456.5122375488281 177.54371643066406 456.052734375 180.12254333496094 C 456.69818115234375 180.4716033935547 456.5212097167969 184.85009765625 457.4731750488281 186.33241271972656 C 455.0650329589844 188.0336456298828 459.11749267578125 193.81675720214844 460.1631164550781 205.39306640625 C 459.4023742675781 208.50364685058594 452.3879699707031 209.25559997558594 445.6097412109375 204.5818634033203 C 441.79681396484375 207.2860107421875 440.6714782714844 209.0507354736328 433.17938232421875 210.9804229736328 C 434.0658264160156 209.91184997558594 437.4804382324219 189.41851806640625 439.11578369140625 180.75537109375 C 440.3758544921875 180.27481079101562 444.0925598144531 181.07586669921875 446.4950256347656 180.52943420410156 C 447.7294921875 179.25892639160156 450.0755310058594 179.49478149414062 451.5693359375 178.5651092529297" stroke-width="0.0" fill="url(#shape_36_fill)"/>
    <path d="M 558.4301147460938 85.27117156982422 C 563.6261596679688 80.70557403564453 578.6243896484375 82.16043090820312 580.2029418945312 85.74009704589844 C 581.5584716796875 83.90855407714844 586.4727783203125 85.27029418945312 586.9691162109375 88.74027252197266 C 594.12890625 96.7308349609375 586.1036987304688 104.66270446777344 574.39013671875 100.15277862548828 C 573.7922973632812 99.37489318847656 551.6156005859375 95.19747161865234 542.2106323242188 85.57374572753906 C 538.630859375 85.31281280517578 537.8074340820312 81.40667724609375 536.1527099609375 80.62008666992188 C 543.2412109375 74.80256652832031 547.8233642578125 78.82276153564453 558.4301147460938 85.27117156982422" stroke-width="0.0" fill="url(#shape_37_fill)"/>
    <path d="M 252.63275146484375 208.6013946533203 C 264.73443603515625 210.32571411132812 261.5477600097656 242.44512939453125 260.56591796875 247.85496520996094 C 258.4239807128906 254.45973205566406 250.6065673828125 254.09280395507812 248.18649291992188 257.1217346191406 C 234.31887817382812 237.4955596923828 240.37921142578125 212.45652770996094 252.63275146484375 208.6013946533203" stroke-width="0.0" fill="url(#shape_38_fill)"/>
    <path d="M 443.33270263671875 263.5164794921875 C 445.95526123046875 263.48956298828125 449.1169128417969 266.6027526855469 447.6884765625 270.05206298828125 C 444.1756286621094 270.34222412109375 442.6014709472656 277.0273742675781 441.129150390625 279.65008544921875 C 440.03985595703125 285.4335021972656 423.5184631347656 284.31463623046875 418.1976013183594 275.5677490234375 C 414.6598205566406 277.0110168457031 413.2197265625 273.6210021972656 415.8069152832031 271.7067565917969 C 415.1136169433594 269.93975830078125 419.20428466796875 262.23638916015625 425.96685791015625 258.1863708496094 C 427.6677551269531 255.9266357421875 437.4245910644531 258.0293884277344 443.33270263671875 263.5164794921875" stroke-width="0.0" fill="url(#shape_39_fill)"/>
    <path d="M 407.7419128417969 409.7703552246094 C 408.68817138671875 409.8803405761719 416.7825622558594 419.0257263183594 413.5995178222656 424.17462158203125 C 400.9101867675781 436.1371154785156 384.7405090332031 420.2789001464844 376.8524475097656 420.6746826171875 C 370.61492919921875 417.8764343261719 371.5940246582031 416.650146484375 372.6708984375 410.6406555175781 C 375.0487976074219 401.17486572265625 395.607666015625 403.4808349609375 407.7419128417969 409.7703552246094" stroke-width="0.0" fill="url(#shape_40_fill)"/>
    <path d="M 66.45191955566406 427.59185791015625 C 67.44727325439453 429.1538391113281 65.0177993774414 435.1145935058594 58.925209045410156 436.02056884765625 C 58.29246139526367 437.064697265625 40.36275100708008 436.72454833984375 31.589853286743164 442.6779479980469 C 28.733190536499023 442.5374450683594 26.09429168701172 444.3434143066406 17.17103385925293 443.36712646484375 C 16.455581665039062 440.6475830078125 17.733102798461914 439.2044982910156 17.157798767089844 437.93292236328125 C 34.05783462524414 427.5799865722656 55.37357711791992 427.6603088378906 66.45191955566406 427.59185791015625" stroke-width="0.0" fill="url(#shape_41_fill)"/>
    <path d="M 278.9067077636719 381.00250244140625 C 284.7492980957031 380.99578857421875 297.9394836425781 381.09832763671875 302.2357177734375 384.7364501953125 C 297.3723449707031 394.9566650390625 299.3222961425781 400.82366943359375 294.3585205078125 404.7615051269531 C 291.7297058105469 399.3819274902344 265.0673828125 404.5539245605469 258.1662902832031 405.5633544921875 C 250.228271484375 404.0445251464844 248.39739990234375 393.173095703125 251.16305541992188 382.4730224609375 C 260.9187927246094 381.2541809082031 267.575927734375 382.3443298339844 278.9067077636719 381.00250244140625" stroke-width="0.0" fill="url(#shape_42_fill)"/>
    <path d="M 223.19361877441406 216.68487548828125 C 223.3820037841797 215.20794677734375 233.83578491210938 215.11888122558594 239.96348571777344 216.72479248046875 C 241.40487670898438 221.9684600830078 247.50631713867188 240.53871154785156 247.23655700683594 263.82781982421875 C 245.48391723632812 269.5399475097656 237.95249938964844 269.79327392578125 212.9864959716797 269.5967712402344 C 208.98875427246094 265.4381103515625 208.52915954589844 260.7632751464844 217.31861877441406 248.00050354003906 C 219.4542694091797 246.47439575195312 217.97740173339844 226.4203643798828 223.19361877441406 216.68487548828125" stroke-width="0.0" fill="url(#shape_43_fill)"/>
    <path d="M 483.91363525390625 395.56365966796875 C 486.8182373046875 399.7997741699219 485.8377380371094 400.9877624511719 483.53546142578125 401.20428466796875 C 473.9356689453125 406.9883728027344 451.1644592285156 406.7120056152344 450.2442626953125 407.6676940917969 C 448.04754638671875 404.4161071777344 451.587158203125 396.17279052734375 453.60504150390625 396.4738464355469 C 462.973388671875 393.0861511230469 473.0110168457031 392.7646484375 483.91363525390625 395.56365966796875" stroke-width="0.0" fill="url(#shape_44_fill)"/>
    <path d="M 45.80644989013672 407.30596923828125 C 45.27811813354492 408.2101745605469 35.764678955078125 411.47607421875 34.393009185791016 413.6848449707031 C 32.76735305786133 414.646240234375 32.447998046875 416.1156311035156 29.1243896484375 416.0995178222656 C 27.8201961517334 417.5563049316406 25.122909545898438 417.9921875 21.568965911865234 420.5616149902344 C 17.791534423828125 420.1900329589844 0.2950257658958435 417.2171936035156 -0.8075215220451355 420.5322265625 C 1.7236634492874146 419.6734924316406 -0.5927256345748901 411.10162353515625 0.7790423631668091 410.3344421386719 C 9.043447494506836 408.6861267089844 45.4595832824707 407.2953186035156 45.80644989013672 407.30596923828125" stroke-width="0.0" fill="url(#shape_45_fill)"/>
    <path d="M 451.8858947753906 175.2285919189453 C 455.2168884277344 174.8571319580078 464.31549072265625 198.93707275390625 465.2569885253906 201.43899536132812 C 462.5869140625 209.62844848632812 451.69451904296875 209.57980346679688 449.4733581542969 206.7414093017578 C 448.3262023925781 203.25030517578125 449.04449462890625 198.31333923339844 448.847900390625 195.3007354736328 C 447.94781494140625 194.55027770996094 447.6038513183594 192.1615753173828 448.5086364746094 188.01815795898438 C 451.00531005859375 186.65829467773438 450.7808532714844 183.0225830078125 451.8858947753906 175.2285919189453" stroke-width="0.0" fill="url(#shape_46_fill)"/>
    <path d="M 373.0408020019531 185.9075469970703 C 378.48297119140625 194.3444061279297 380.1124267578125 203.09608459472656 371.4542541503906 206.2106170654297 C 365.8646545410156 206.82598876953125 364.772216796875 204.8550567626953 362.0224914550781 204.4626007080078 C 349.7054748535156 208.25233459472656 346.56146240234375 202.8168182373047 354.44866943359375 188.51815795898438 C 356.649169921875 184.95538330078125 358.36773681640625 184.40625 368.09869384765625 185.4049530029297 C 368.9499816894531 183.6256561279297 372.79217529296875 183.41897583007812 373.0408020019531 185.9075469970703" stroke-width="0.0" fill="url(#shape_47_fill)"/>
    <path d="M 470.9404602050781 263.63153076171875 C 475.7873840332031 267.04022216796875 480.7980041503906 267.4267272949219 479.81292724609375 284.47796630859375 C 465.3970947265625 287.5887756347656 453.7853698730469 285.9487609863281 443.7750244140625 284.9221496582031 C 439.2960205078125 282.2340087890625 439.9982604980469 276.9578552246094 441.2033996582031 276.4747619628906 C 447.3857727050781 266.5686950683594 455.30035400390625 264.1133728027344 470.9404602050781 263.63153076171875" stroke-width="0.0" fill="url(#shape_48_fill)"/>
    <path d="M 177.0804443359375 117.86063385009766 C 178.475830078125 115.85321807861328 181.91175842285156 116.4006118774414 182.80006408691406 117.33750915527344 C 184.68603515625 120.23822021484375 183.85238647460938 122.35071563720703 184.78883361816406 123.52322387695312 C 179.85098266601562 127.64397430419922 185.79466247558594 136.57308959960938 182.60409545898438 140.1169891357422 C 181.73277282714844 146.80010986328125 172.7982940673828 145.77926635742188 171.67347717285156 146.5348358154297 C 171.3953857421875 126.46179962158203 170.0484161376953 124.98258209228516 177.0804443359375 117.86063385009766" stroke-width="0.0" fill="url(#shape_49_fill)"/>
    <path d="M 333.9490966796875 428.0816345214844 C 337.3349609375 428.4560546875 341.0796813964844 429.15057373046875 342.9339599609375 432.0066223144531 C 346.3612365722656 435.5978088378906 345.162353515625 437.2289123535156 342.4720764160156 437.6059265136719 C 342.86346435546875 445.9227600097656 325.0234375 447.8817138671875 323.0524597167969 441.86834716796875 C 319.3036804199219 436.5044250488281 317.1305847167969 432.1142272949219 312.276123046875 429.2668151855469 C 322.11737060546875 427.4153747558594 328.8797302246094 428.270751953125 333.9490966796875 428.0816345214844" stroke-width="0.0" fill="url(#shape_50_fill)"/>
    <path d="M 300.7384338378906 389.4231262207031 C 299.3984680175781 393.6078796386719 295.10467529296875 398.7218322753906 289.77728271484375 399.08636474609375 C 280.38555908203125 397.7245178222656 279.8555603027344 398.4561767578125 271.37457275390625 402.6238708496094 C 271.06591796875 401.617431640625 269.58587646484375 398.9814147949219 271.0476379394531 397.4823913574219 C 269.9350280761719 395.5026550292969 272.976318359375 388.05108642578125 279.9996337890625 388.4161682128906 C 283.094482421875 386.63189697265625 287.6084289550781 390.335205078125 300.7384338378906 389.4231262207031" stroke-width="0.0" fill="url(#shape_51_fill)"/>
    <path d="M 268.731689453125 184.13494873046875 C 275.94171142578125 194.92507934570312 278.0589294433594 207.59878540039062 279.9830627441406 217.31256103515625 C 271.4358825683594 210.44383239746094 269.0141906738281 207.95883178710938 260.9300842285156 215.50799560546875 C 257.6531066894531 206.80966186523438 264.10467529296875 197.5978240966797 266.240234375 195.2402801513672 C 269.5957336425781 194.23251342773438 268.9056701660156 191.68862915039062 268.731689453125 184.13494873046875" stroke-width="0.0" fill="url(#shape_52_fill)"/>
    <path d="M 218.2487335205078 409.55303955078125 C 215.92059326171875 410.9800720214844 215.5815887451172 413.24127197265625 214.24807739257812 413.8821105957031 C 214.61956787109375 421.15869140625 190.57122802734375 424.2899169921875 187.48397827148438 415.59295654296875 C 186.25872802734375 405.88958740234375 205.8869171142578 400.9798583984375 218.2487335205078 409.55303955078125" stroke-width="0.0" fill="url(#shape_53_fill)"/>
    <path d="M 205.8009796142578 424.6358337402344 C 205.535400390625 425.3034362792969 206.13230895996094 428.27508544921875 204.58401489257812 429.530029296875 C 195.85992431640625 431.2647705078125 178.82760620117188 431.4063720703125 177.9349822998047 432.7132263183594 C 176.71417236328125 430.95343017578125 178.19161987304688 425.9546203613281 176.76361083984375 423.9026184082031 C 185.7489471435547 418.62554931640625 194.74093627929688 422.4424133300781 205.8009796142578 424.6358337402344" stroke-width="0.0" fill="url(#shape_54_fill)"/>
    <path d="M 269.71502685546875 246.02586364746094 C 275.425048828125 244.81692504882812 276.66656494140625 246.3208770751953 280.7767639160156 245.1494903564453 C 281.0643005371094 250.99546813964844 280.3975830078125 252.38441467285156 284.6894836425781 260.5772705078125 C 263.4590148925781 257.91595458984375 262.9202575683594 257.2051696777344 254.04916381835938 259.8857421875 C 254.88136291503906 248.1749725341797 255.8616485595703 247.22886657714844 258.59332275390625 245.15162658691406 C 260.2526550292969 239.47024536132812 266.27587890625 239.89138793945312 269.71502685546875 246.02586364746094" stroke-width="0.0" fill="url(#shape_55_fill)"/>
    <path d="M 275.289306640625 356.73388671875 C 277.8136291503906 363.9252624511719 282.6955871582031 363.43194580078125 284.5190734863281 368.0856628417969 C 285.3625793457031 369.2369384765625 285.9046630859375 371.852294921875 285.8619079589844 380.7634582519531 C 276.59857177734375 379.4364013671875 263.6161804199219 382.4803466796875 247.40892028808594 382.65283203125 C 243.13348388671875 380.8566589355469 244.36790466308594 361.89959716796875 245.57623291015625 358.9068908691406 C 253.20590209960938 357.4622497558594 259.77618408203125 356.36016845703125 275.289306640625 356.73388671875" stroke-width="0.0" fill="url(#shape_56_fill)"/>
    <path d="M 409.3096618652344 270.64385986328125 C 415.324462890625 269.3555603027344 417.9506530761719 273.642578125 419.3113708496094 280.7674560546875 C 412.8367614746094 288.5397033691406 402.473388671875 284.8230285644531 384.34234619140625 281.51849365234375 C 382.41253662109375 266.9951171875 391.09002685546875 263.73565673828125 409.3096618652344 270.64385986328125" stroke-width="0.0" fill="url(#shape_57_fill)"/>
    <path d="M 632.0430908203125 351.82611083984375 C 632.9799194335938 354.737548828125 659.508544921875 353.5065002441406 668.6590576171875 353.7527770996094 C 668.4518432617188 358.2987365722656 662.3729248046875 360.8498840332031 660.2412109375 356.5917663574219 C 652.1112670898438 356.07275390625 634.1681518554688 360.49017333984375 631.4774780273438 360.9024963378906 C 627.768798828125 357.0950622558594 629.3108520507812 353.5705871582031 632.0430908203125 351.82611083984375" stroke-width="0.0" fill="url(#shape_58_fill)"/>
    <path d="M 341.2752990722656 385.1199645996094 C 342.78594970703125 390.3045349121094 358.1224060058594 391.81719970703125 359.1844177246094 394.7597961425781 C 356.5500183105469 398.4732666015625 339.5877685546875 401.9009704589844 338.4519958496094 399.5216064453125 C 335.1392517089844 399.6087646484375 333.08233642578125 398.77490234375 331.8668518066406 396.535888671875 C 331.98553466796875 394.93994140625 330.75689697265625 393.4737243652344 332.359375 390.6148376464844 C 333.17218017578125 385.09820556640625 336.96514892578125 384.2337341308594 341.2752990722656 385.1199645996094" stroke-width="0.0" fill="url(#shape_59_fill)"/>
    <path d="M 460.4951171875 363.7386779785156 C 462.6438293457031 365.0160827636719 472.0032043457031 369.7934265136719 473.1011047363281 373.9821472167969 C 471.790771484375 376.15960693359375 470.3315734863281 376.8525085449219 463.07415771484375 375.92010498046875 C 458.4972839355469 376.9693298339844 457.588623046875 376.918701171875 452.720458984375 370.95941162109375 C 453.0703430175781 369.31536865234375 459.23260498046875 365.14398193359375 460.4951171875 363.7386779785156" stroke-width="0.0" fill="url(#shape_60_fill)"/>
    <path d="M 435.1837158203125 432.6986999511719 C 440.194580078125 434.2782897949219 442.48126220703125 436.3861389160156 442.004638671875 438.9878845214844 C 440.4498596191406 442.0430908203125 429.877197265625 440.761962890625 425.7950744628906 442.4938659667969 C 422.50335693359375 438.409912109375 424.0478515625 434.5022888183594 415.48095703125 426.30120849609375 C 427.95196533203125 429.9463195800781 431.8365173339844 434.25628662109375 435.1837158203125 432.6986999511719" stroke-width="0.0" fill="url(#shape_61_fill)"/>
    <path d="M 185.4272003173828 411.4520568847656 C 186.2632598876953 413.93170166015625 185.00885009765625 414.7928771972656 186.9237823486328 417.7734069824219 C 184.8610382080078 420.162109375 183.4049835205078 419.52947998046875 182.47714233398438 419.70343017578125 C 180.80775451660156 421.6627197265625 174.4123077392578 420.35540771484375 171.2365264892578 420.2407531738281 C 169.53341674804688 417.87445068359375 169.75726318359375 415.635498046875 173.54373168945312 413.43011474609375 C 176.43963623046875 412.4524230957031 181.0384521484375 410.729248046875 185.4272003173828 411.4520568847656" stroke-width="0.0" fill="url(#shape_62_fill)"/>
    <path d="M 332.469482421875 418.46209716796875 C 334.9056396484375 426.1686706542969 329.9019470214844 428.0108642578125 327.2814636230469 426.0689392089844 C 324.599853515625 427.7801513671875 323.00250244140625 426.73779296875 320.5797119140625 427.63385009765625 C 318.7318420410156 426.0406188964844 319.6684875488281 419.98980712890625 317.8365478515625 418.42083740234375 C 320.1371765136719 420.14105224609375 326.3148193359375 418.7001647949219 332.469482421875 418.46209716796875" stroke-width="0.0" fill="url(#shape_63_fill)"/>
    <path d="M 55.36867141723633 273.20465087890625 C 56.54475784301758 269.5916748046875 66.25975799560547 269.8621520996094 66.1461410522461 278.4713134765625 C 58.67514419555664 279.189208984375 53.593833923339844 273.05523681640625 47.990177154541016 276.11309814453125 C 49.51410675048828 272.9046630859375 52.297142028808594 272.3846435546875 55.36867141723633 273.20465087890625" stroke-width="0.0" fill="url(#shape_64_fill)"/>
    <path d="M 304.40509033203125 438.7881164550781 C 304.4816589355469 437.1083984375 305.90997314453125 436.0946350097656 313.1293029785156 437.0860290527344 C 314.7916259765625 438.9129333496094 313.1764831542969 441.6143493652344 311.43597412109375 442.7089538574219 C 307.83709716796875 445.4247741699219 306.7752990722656 444.2235412597656 305.134765625 444.96917724609375 C 302.8157653808594 441.6375732421875 302.6092834472656 439.6927490234375 304.40509033203125 438.7881164550781" stroke-width="0.0" fill="url(#shape_65_fill)"/>
    <path d="M -0.3845520317554474 -0.3544752299785614 C 224.140625 -0.030858607962727547 443.783935546875 0.45352721214294434 673.0982055664062 0.7805132865905762 C 673.7969970703125 152.16690063476562 674.5325927734375 295.5870056152344 673.5072631835938 445.485595703125 C 450.500244140625 446.29443359375 230.70709228515625 446.2216796875 0.5965926647186279 445.3138732910156 C 0.27096888422966003 296.90887451171875 -0.08170630037784576 148.78973388671875 -0.3845520317554474 -0.3544752299785614" stroke-width="0.0" fill="url(#shape_66_fill)"/>
    <path d="M -0.9351363778114319 -0.13415133953094482 C 222.5299835205078 -0.12840251624584198 443.52020263671875 0.3484887480735779 673.1056518554688 0.27123939990997314 C 673.9037475585938 152.2873077392578 674.5787353515625 294.9357604980469 673.2496948242188 445.3708801269531 C 450.6344909667969 446.3764343261719 230.89453125 446.27374267578125 0.7258382439613342 445.21392822265625 C 0.20899878442287445 296.89306640625 -0.21350008249282837 148.63658142089844 -0.9351363778114319 -0.13415133953094482" stroke-width="0.0" fill="url(#shape_67_fill)"/>
    <path d="M -0.6007897853851318 -0.16110415756702423 C 222.65809631347656 -0.11408903449773788 442.7215576171875 0.446908563375473 673.0921630859375 -0.12319295853376389 C 673.8873901367188 152.37258911132812 674.5852661132812 294.9906921386719 673.2618408203125 445.37237548828125 C 450.6744079589844 446.3786926269531 230.96092224121094 446.27142333984375 1.2814226150512695 445.18841552734375 C 0.5107576847076416 295.55963134765625 0.0704570785164833 148.48594665527344 -0.6007897853851318 -0.16110415756702423" stroke-width="0.0" fill="url(#shape_68_fill)"/>
  </g>
</svg>
