<?xml version="1.0" ?>
<svg xmlns="http://www.w3.org/2000/svg" version="1.1" width="674" height="446">
  <defs>
    <radialGradient id="shape_0_fill" cx="0.5328731367071587" cy="0.7400475745778448" r="0.2802759504459732">
      <stop offset="0.7238577" stop-color="rgb(158, 174, 0)" stop-opacity="0.8433387875556946"/>
      <stop offset="1.0" stop-color="rgb(49, 45, 0)" stop-opacity="1.0"/>
    </radialGradient>
    <radialGradient id="shape_1_fill" cx="0.5345712090104553" cy="0.7437691453326444" r="0.2065313548645563">
      <stop offset="0.4966485" stop-color="rgb(69, 67, 70)" stop-opacity="0.7670137286186218"/>
      <stop offset="1.0" stop-color="rgb(33, 13, 0)" stop-opacity="0.6183454990386963"/>
    </radialGradient>
    <radialGradient id="shape_2_fill" cx="0.09792273546892387" cy="0.7376672719091578" r="0.22062588021026522">
      <stop offset="0.0014264066" stop-color="rgb(35, 95, 182)" stop-opacity="0.9607905745506287"/>
      <stop offset="0.98845667" stop-color="rgb(6, 97, 255)" stop-opacity="0.9143168330192566"/>
    </radialGradient>
    <radialGradient id="shape_3_fill" cx="0.2775701415291172" cy="0.21543290689921699" r="0.13026064864252018">
      <stop offset="0.39710018" stop-color="rgb(129, 183, 0)" stop-opacity="0.7720949649810791"/>
      <stop offset="1.0" stop-color="rgb(36, 37, 0)" stop-opacity="0.9377145767211914"/>
    </radialGradient>
    <radialGradient id="shape_4_fill" cx="0.1543026706231454" cy="0.9977578475336323" r="0.10288926755639141">
      <stop offset="0.0" stop-color="rgb(81, 79, 86)" stop-opacity="1.0"/>
      <stop offset="1.0" stop-color="rgb(59, 55, 73)" stop-opacity="0.8819411396980286"/>
    </radialGradient>
    <radialGradient id="shape_5_fill" cx="0.14807964290992442" cy="0.23997249517740155" r="0.11810664960821587">
      <stop offset="0.0" stop-color="rgb(255, 255, 255)" stop-opacity="0.6465655565261841"/>
      <stop offset="0.5626593" stop-color="rgb(255, 255, 255)" stop-opacity="0.5457637906074524"/>
    </radialGradient>
    <radialGradient id="shape_6_fill" cx="0.18397626112759644" cy="0.9977578475336323" r="0.0754974885934892">
      <stop offset="0.0" stop-color="rgb(93, 90, 94)" stop-opacity="1.0"/>
      <stop offset="1.0" stop-color="rgb(144, 128, 131)" stop-opacity="0.9097987413406372"/>
    </radialGradient>
    <radialGradient id="shape_7_fill" cx="0.2893175074183976" cy="0.05829596412556054" r="0.08666390552011372">
      <stop offset="0.0" stop-color="rgb(55, 66, 29)" stop-opacity="1.0"/>
      <stop offset="1.0" stop-color="rgb(113, 128, 50)" stop-opacity="0.5644201040267944"/>
    </radialGradient>
    <radialGradient id="shape_8_fill" cx="0.3382789091115889" cy="0.9439461883408071" r="0.06756690277190167">
      <stop offset="0.0" stop-color="rgb(91, 124, 45)" stop-opacity="1.0"/>
      <stop offset="1.0" stop-color="rgb(109, 163, 42)" stop-opacity="0.6509555578231812"/>
    </radialGradient>
    <radialGradient id="shape_9_fill" cx="0.30712166172106825" cy="0.9977578475336323" r="0.0730758406641929">
      <stop offset="0.0" stop-color="rgb(38, 48, 20)" stop-opacity="1.0"/>
      <stop offset="1.0" stop-color="rgb(33, 31, 49)" stop-opacity="1.0"/>
    </radialGradient>
    <radialGradient id="shape_10_fill" cx="0.3056379821958457" cy="0.9977578475336323" r="0.06792919147615971">
      <stop offset="0.0" stop-color="rgb(39, 49, 21)" stop-opacity="1.0"/>
      <stop offset="1.0" stop-color="rgb(34, 16, 0)" stop-opacity="0.6693649291992188"/>
    </radialGradient>
    <radialGradient id="shape_11_fill" cx="0.21810089020771514" cy="0.968609865470852" r="0.06792919147615971">
      <stop offset="0.0" stop-color="rgb(138, 135, 129)" stop-opacity="1.0"/>
      <stop offset="1.0" stop-color="rgb(141, 107, 75)" stop-opacity="0.4614046812057495"/>
    </radialGradient>
    <radialGradient id="shape_12_fill" cx="0.29080118694362017" cy="0.9977578475336323" r="0.07480746985189285">
      <stop offset="0.0" stop-color="rgb(22, 25, 13)" stop-opacity="1.0"/>
      <stop offset="1.0" stop-color="rgb(37, 37, 12)" stop-opacity="1.0"/>
    </radialGradient>
    <radialGradient id="shape_13_fill" cx="0.327893175074184" cy="0.8923766816143498" r="0.06900465877544279">
      <stop offset="0.0" stop-color="rgb(89, 117, 50)" stop-opacity="1.0"/>
      <stop offset="1.0" stop-color="rgb(94, 129, 7)" stop-opacity="0.6440960168838501"/>
    </radialGradient>
    <radialGradient id="shape_14_fill" cx="0.142433234421365" cy="0.9977578475336323" r="0.06617211022079875">
      <stop offset="0.0" stop-color="rgb(155, 150, 153)" stop-opacity="1.0"/>
      <stop offset="1.0" stop-color="rgb(255, 190, 173)" stop-opacity="0.22979854047298431"/>
    </radialGradient>
    <radialGradient id="shape_15_fill" cx="0.31008902077151335" cy="0.9977578475336323" r="0.06683642786405207">
      <stop offset="0.0" stop-color="rgb(43, 55, 23)" stop-opacity="1.0"/>
      <stop offset="1.0" stop-color="rgb(58, 67, 20)" stop-opacity="0.9147733449935913"/>
    </radialGradient>
    <radialGradient id="shape_16_fill" cx="0.27299703264094954" cy="0.9977578475336323" r="0.08110449363640579">
      <stop offset="0.0" stop-color="rgb(31, 35, 19)" stop-opacity="1.0"/>
      <stop offset="1.0" stop-color="rgb(30, 29, 0)" stop-opacity="0.9551985859870911"/>
    </radialGradient>
    <radialGradient id="shape_17_fill" cx="0.2893175074183976" cy="0.9977578475336323" r="0.07513486030193747">
      <stop offset="0.0" stop-color="rgb(22, 23, 13)" stop-opacity="1.0"/>
      <stop offset="1.0" stop-color="rgb(23, 21, 0)" stop-opacity="0.8608338832855225"/>
    </radialGradient>
    <radialGradient id="shape_18_fill" cx="0.3293768545994065" cy="0.7556053811659192" r="0.06617211022079875">
      <stop offset="0.0" stop-color="rgb(83, 108, 65)" stop-opacity="1.0"/>
      <stop offset="1.0" stop-color="rgb(107, 130, 60)" stop-opacity="0.9825219511985779"/>
    </radialGradient>
    <radialGradient id="shape_19_fill" cx="0.3516320474777448" cy="0.9977578475336323" r="0.06617211022079875">
      <stop offset="0.0" stop-color="rgb(95, 135, 39)" stop-opacity="1.0"/>
      <stop offset="1.0" stop-color="rgb(134, 194, 3)" stop-opacity="0.7066013216972351"/>
    </radialGradient>
    <radialGradient id="shape_20_fill" cx="0.0830860534124629" cy="0.9977578475336323" r="0.06792919147615971">
      <stop offset="0.0" stop-color="rgb(49, 52, 66)" stop-opacity="1.0"/>
      <stop offset="1.0" stop-color="rgb(36, 24, 60)" stop-opacity="0.4243800640106201"/>
    </radialGradient>
    <radialGradient id="shape_21_fill" cx="0.29821958456973297" cy="0.9977578475336323" r="0.06792919147615971">
      <stop offset="0.0" stop-color="rgb(33, 40, 17)" stop-opacity="1.0"/>
      <stop offset="1.0" stop-color="rgb(44, 60, 0)" stop-opacity="0.7283257842063904"/>
    </radialGradient>
    <radialGradient id="shape_22_fill" cx="0.3563326600751113" cy="0.44372438849889645" r="0.06594546966099951">
      <stop offset="0.52384615" stop-color="rgb(106, 139, 33)" stop-opacity="0.9764646887779236"/>
      <stop offset="0.388917" stop-color="rgb(147, 180, 40)" stop-opacity="0.9162566065788269"/>
    </radialGradient>
    <radialGradient id="shape_23_fill" cx="0.6454005934718101" cy="0.1412556053811659" r="0.06617211022079875">
      <stop offset="0.0" stop-color="rgb(46, 38, 13)" stop-opacity="1.0"/>
      <stop offset="1.0" stop-color="rgb(52, 31, 0)" stop-opacity="0.8823099732398987"/>
    </radialGradient>
    <radialGradient id="shape_24_fill" cx="0.2492550586734398" cy="0.4843076355254169" r="0.06616971047059012">
      <stop offset="0.0" stop-color="rgb(205, 212, 206)" stop-opacity="1.0"/>
      <stop offset="0.9249602" stop-color="rgb(255, 255, 255)" stop-opacity="0.5762835144996643"/>
    </radialGradient>
    <radialGradient id="shape_25_fill" cx="0.6320474777448071" cy="0.9977578475336323" r="0.06617211022079875">
      <stop offset="0.0" stop-color="rgb(35, 28, 8)" stop-opacity="1.0"/>
      <stop offset="1.0" stop-color="rgb(38, 15, 0)" stop-opacity="0.5691045522689819"/>
    </radialGradient>
    <radialGradient id="shape_26_fill" cx="0.15414520399506793" cy="0.3207086811151205" r="0.06604698362265567">
      <stop offset="0.11989566" stop-color="rgb(198, 211, 155)" stop-opacity="1.0"/>
      <stop offset="0.58338004" stop-color="rgb(120, 117, 189)" stop-opacity="0.08056313544511795"/>
    </radialGradient>
    <radialGradient id="shape_27_fill" cx="0.15410647972401242" cy="0.3208032787648017" r="0.06604505929465818">
      <stop offset="0.0" stop-color="rgb(192, 205, 0)" stop-opacity="1.0"/>
      <stop offset="0.49375948" stop-color="rgb(74, 69, 40)" stop-opacity="0.593270480632782"/>
    </radialGradient>
    <radialGradient id="shape_28_fill" cx="0.03564653198513857" cy="0.01681071760408547" r="0.06949239668577291">
      <stop offset="0.12025821" stop-color="rgb(7, 26, 118)" stop-opacity="0.9635831117630005"/>
      <stop offset="0.8854223" stop-color="rgb(6, 26, 163)" stop-opacity="0.7281405329704285"/>
    </radialGradient>
    <radialGradient id="shape_29_fill" cx="0.33976258863681147" cy="0.6659192825112108" r="0.06617211022079875">
      <stop offset="0.0" stop-color="rgb(90, 117, 55)" stop-opacity="1.0"/>
      <stop offset="1.0" stop-color="rgb(107, 136, 27)" stop-opacity="0.8704695701599121"/>
    </radialGradient>
    <radialGradient id="shape_30_fill" cx="0.03941206833021577" cy="0.01633816128889007" r="0.06892380304081858">
      <stop offset="0.17910594" stop-color="rgb(49, 75, 75)" stop-opacity="1.0"/>
      <stop offset="0.9331607" stop-color="rgb(61, 65, 0)" stop-opacity="0.5125167369842529"/>
    </radialGradient>
    <radialGradient id="shape_31_fill" cx="0.12314540059347182" cy="0.9977578475336323" r="0.06617211022079875">
      <stop offset="0.0" stop-color="rgb(95, 103, 98)" stop-opacity="1.0"/>
      <stop offset="1.0" stop-color="rgb(132, 122, 110)" stop-opacity="0.7375890016555786"/>
    </radialGradient>
    <radialGradient id="shape_32_fill" cx="0.4035608308605341" cy="0.984304932735426" r="0.06617211022079875">
      <stop offset="0.0" stop-color="rgb(126, 155, 63)" stop-opacity="1.0"/>
      <stop offset="1.0" stop-color="rgb(129, 119, 28)" stop-opacity="0.9727641940116882"/>
    </radialGradient>
    <radialGradient id="shape_33_fill" cx="0.3249258160237389" cy="0.6053811659192825" r="0.06617211022079875">
      <stop offset="1.473166e-05" stop-color="rgb(93, 124, 71)" stop-opacity="0.999820351600647"/>
      <stop offset="1.0" stop-color="rgb(125, 148, 57)" stop-opacity="1.0"/>
    </radialGradient>
    <radialGradient id="shape_34_fill" cx="0.6468842729970327" cy="0.531390134529148" r="0.06617211022079875">
      <stop offset="0.0" stop-color="rgb(54, 47, 24)" stop-opacity="1.0"/>
      <stop offset="1.0" stop-color="rgb(49, 14, 27)" stop-opacity="0.4028625786304474"/>
    </radialGradient>
    <radialGradient id="shape_35_fill" cx="0.148253749315392" cy="0.24028967955721867" r="0.06930082417383392">
      <stop offset="0.10667986" stop-color="rgb(205, 255, 90)" stop-opacity="0.1645333468914032"/>
      <stop offset="0.57619154" stop-color="rgb(102, 77, 62)" stop-opacity="0.8227543830871582"/>
    </radialGradient>
    <radialGradient id="shape_36_fill" cx="0.2878338278931751" cy="0.9977578475336323" r="0.06617211022079875">
      <stop offset="0.0" stop-color="rgb(80, 96, 53)" stop-opacity="1.0"/>
      <stop offset="1.0" stop-color="rgb(32, 33, 0)" stop-opacity="0.7810696959495544"/>
    </radialGradient>
    <radialGradient id="shape_37_fill" cx="0.129080118694362" cy="0.9977578475336323" r="0.06617211022079875">
      <stop offset="0.0" stop-color="rgb(87, 97, 81)" stop-opacity="1.0"/>
      <stop offset="1.0" stop-color="rgb(67, 74, 56)" stop-opacity="0.601860761642456"/>
    </radialGradient>
    <radialGradient id="shape_38_fill" cx="0.33892324204260943" cy="0.5607740119968294" r="0.0666785763703751">
      <stop offset="0.7501433" stop-color="rgb(83, 110, 23)" stop-opacity="0.9159948825836182"/>
      <stop offset="0.6022492" stop-color="rgb(166, 255, 79)" stop-opacity="0.8750994801521301"/>
    </radialGradient>
    <radialGradient id="shape_39_fill" cx="0.40059347181008903" cy="0.9641255605381166" r="0.06617211022079875">
      <stop offset="0.0" stop-color="rgb(138, 168, 60)" stop-opacity="1.0"/>
      <stop offset="1.0" stop-color="rgb(213, 252, 82)" stop-opacity="0.9824463725090027"/>
    </radialGradient>
    <radialGradient id="shape_40_fill" cx="0.61215594826537" cy="0.8768306441371216" r="0.07076681686084418">
      <stop offset="0.3780154" stop-color="rgb(150, 133, 174)" stop-opacity="0.3044082820415497"/>
      <stop offset="0.5073271" stop-color="rgb(1, 13, 67)" stop-opacity="0.9399693012237549"/>
    </radialGradient>
    <radialGradient id="shape_41_fill" cx="0.6454005934718101" cy="0.08744394618834081" r="0.06617211022079875">
      <stop offset="0.0" stop-color="rgb(58, 48, 21)" stop-opacity="1.0"/>
      <stop offset="1.0" stop-color="rgb(90, 63, 21)" stop-opacity="1.0"/>
    </radialGradient>
    <radialGradient id="shape_42_fill" cx="0.5845697329376854" cy="0.6188340807174888" r="0.06617211022079875">
      <stop offset="0.0" stop-color="rgb(62, 59, 56)" stop-opacity="1.0"/>
      <stop offset="1.0" stop-color="rgb(40, 34, 78)" stop-opacity="0.6233127117156982"/>
    </radialGradient>
    <radialGradient id="shape_43_fill" cx="0.3548430717309788" cy="0.5019615412827565" r="0.06980924295034889">
      <stop offset="0.24665901" stop-color="rgb(118, 155, 49)" stop-opacity="0.9098709225654602"/>
      <stop offset="0.59544754" stop-color="rgb(201, 255, 24)" stop-opacity="0.777727484703064"/>
    </radialGradient>
    <radialGradient id="shape_44_fill" cx="0.5934718100890207" cy="0.9977578475336323" r="0.06617211022079875">
      <stop offset="0.0" stop-color="rgb(89, 61, 18)" stop-opacity="1.0"/>
      <stop offset="1.0" stop-color="rgb(162, 80, 3)" stop-opacity="0.7229169607162476"/>
    </radialGradient>
    <radialGradient id="shape_45_fill" cx="0.612759643916914" cy="0.04035874439461883" r="0.06617211022079875">
      <stop offset="0.0" stop-color="rgb(157, 136, 123)" stop-opacity="1.0"/>
      <stop offset="1.0" stop-color="rgb(255, 221, 203)" stop-opacity="1.0"/>
    </radialGradient>
    <radialGradient id="shape_46_fill" cx="0.28635014836795253" cy="0.9977578475336323" r="0.06617211022079875">
      <stop offset="0.0" stop-color="rgb(82, 99, 55)" stop-opacity="1.0"/>
      <stop offset="1.0" stop-color="rgb(89, 101, 26)" stop-opacity="0.5771511197090149"/>
    </radialGradient>
    <radialGradient id="shape_47_fill" cx="0.28635014836795253" cy="0.8183856502242153" r="0.06617211022079875">
      <stop offset="0.0" stop-color="rgb(166, 189, 197)" stop-opacity="1.0"/>
      <stop offset="1.0" stop-color="rgb(246, 255, 255)" stop-opacity="0.44236475229263306"/>
    </radialGradient>
    <radialGradient id="shape_48_fill" cx="0.40801186943620177" cy="0.9977578475336323" r="0.06617211022079875">
      <stop offset="0.0" stop-color="rgb(107, 135, 68)" stop-opacity="1.0"/>
      <stop offset="1.0" stop-color="rgb(126, 141, 55)" stop-opacity="1.0"/>
    </radialGradient>
    <radialGradient id="shape_49_fill" cx="0.19287833827893175" cy="0.3991031390134529" r="0.06617211022079875">
      <stop offset="0.0" stop-color="rgb(92, 100, 54)" stop-opacity="1.0"/>
      <stop offset="1.0" stop-color="rgb(58, 34, 0)" stop-opacity="0.5177741050720215"/>
    </radialGradient>
    <radialGradient id="shape_50_fill" cx="0.6439169139465876" cy="0.7376681614349776" r="0.06617211022079875">
      <stop offset="0.0" stop-color="rgb(65, 56, 25)" stop-opacity="1.0"/>
      <stop offset="1.0" stop-color="rgb(147, 182, 97)" stop-opacity="0.40927281975746155"/>
    </radialGradient>
    <radialGradient id="shape_51_fill" cx="0.5845697329376854" cy="0.6322869955156951" r="0.06617211022079875">
      <stop offset="0.0" stop-color="rgb(75, 68, 60)" stop-opacity="1.0"/>
      <stop offset="1.0" stop-color="rgb(153, 118, 94)" stop-opacity="0.5946506261825562"/>
    </radialGradient>
    <radialGradient id="shape_52_fill" cx="0.2997032640949555" cy="0.6031390134529148" r="0.06617211022079875">
      <stop offset="0.0" stop-color="rgb(107, 158, 118)" stop-opacity="1.0"/>
      <stop offset="1.0" stop-color="rgb(175, 255, 228)" stop-opacity="0.5411257147789001"/>
    </radialGradient>
    <radialGradient id="shape_53_fill" cx="0.6097922848664689" cy="0.45067264573991034" r="0.06617211022079875">
      <stop offset="0.0" stop-color="rgb(38, 39, 27)" stop-opacity="1.0"/>
      <stop offset="1.0" stop-color="rgb(20, 14, 57)" stop-opacity="0.3513120710849762"/>
    </radialGradient>
    <radialGradient id="shape_54_fill" cx="0.6335311572700296" cy="0.426009002822397" r="0.06617211022079875">
      <stop offset="0.0" stop-color="rgb(67, 49, 20)" stop-opacity="1.0"/>
      <stop offset="1.0" stop-color="rgb(149, 83, 27)" stop-opacity="0.5733217597007751"/>
    </radialGradient>
    <radialGradient id="shape_55_fill" cx="0.3707168533823257" cy="0.5988430827187851" r="0.066001377049115">
      <stop offset="0.43605936" stop-color="rgb(237, 255, 46)" stop-opacity="0.846663236618042"/>
      <stop offset="0.16089156" stop-color="rgb(211, 255, 0)" stop-opacity="0.7130612730979919"/>
    </radialGradient>
    <radialGradient id="shape_56_fill" cx="0.5489614243323442" cy="0.600896860986547" r="0.06617211022079875">
      <stop offset="0.0" stop-color="rgb(50, 62, 80)" stop-opacity="1.0"/>
      <stop offset="1.0" stop-color="rgb(25, 79, 252)" stop-opacity="0.40804851055145264"/>
    </radialGradient>
    <radialGradient id="shape_57_fill" cx="0.4094955489614243" cy="0.9035874439461884" r="0.06617211022079875">
      <stop offset="0.0" stop-color="rgb(111, 144, 47)" stop-opacity="1.0"/>
      <stop offset="1.0" stop-color="rgb(207, 255, 54)" stop-opacity="0.7947707176208496"/>
    </radialGradient>
    <radialGradient id="shape_58_fill" cx="0.5281899109792285" cy="0.9977578475336323" r="0.06617211022079875">
      <stop offset="0.0" stop-color="rgb(50, 43, 14)" stop-opacity="1.0"/>
      <stop offset="1.0" stop-color="rgb(79, 57, 11)" stop-opacity="1.0"/>
    </radialGradient>
    <radialGradient id="shape_59_fill" cx="0.5845697329376854" cy="0.7690582959641256" r="0.06617211022079875">
      <stop offset="0.0" stop-color="rgb(61, 63, 58)" stop-opacity="1.0"/>
      <stop offset="1.0" stop-color="rgb(78, 74, 93)" stop-opacity="0.7089513540267944"/>
    </radialGradient>
    <radialGradient id="shape_60_fill" cx="0.5489614243323442" cy="0.9977578475336323" r="0.06617211022079875">
      <stop offset="0.0" stop-color="rgb(140, 131, 64)" stop-opacity="1.0"/>
      <stop offset="1.0" stop-color="rgb(232, 203, 90)" stop-opacity="0.9030747413635254"/>
    </radialGradient>
    <radialGradient id="shape_61_fill" cx="0.6469716601272719" cy="0.96866973740103" r="0.06610439651443979">
      <stop offset="0.46308744" stop-color="rgb(255, 210, 65)" stop-opacity="1.0"/>
      <stop offset="0.21286307" stop-color="rgb(203, 130, 37)" stop-opacity="0.6516466736793518"/>
    </radialGradient>
    <radialGradient id="shape_62_fill" cx="0.615727002967359" cy="0.3991031390134529" r="0.06617211022079875">
      <stop offset="0.0" stop-color="rgb(55, 47, 13)" stop-opacity="1.0"/>
      <stop offset="1.0" stop-color="rgb(76, 52, 2)" stop-opacity="0.9863412976264954"/>
    </radialGradient>
    <radialGradient id="shape_63_fill" cx="0.6261127596439169" cy="0.7286995515695067" r="0.06617211022079875">
      <stop offset="0.0" stop-color="rgb(79, 66, 32)" stop-opacity="1.0"/>
      <stop offset="1.0" stop-color="rgb(193, 199, 102)" stop-opacity="0.564025342464447"/>
    </radialGradient>
    <radialGradient id="shape_64_fill" cx="0.40801186943620177" cy="0.12556053811659193" r="0.06617211022079875">
      <stop offset="0.0" stop-color="rgb(76, 66, 59)" stop-opacity="1.0"/>
      <stop offset="1.0" stop-color="rgb(116, 87, 84)" stop-opacity="1.0"/>
    </radialGradient>
    <radialGradient id="shape_65_fill" cx="0.6528189910979229" cy="0.6883408071748879" r="0.06617211022079875">
      <stop offset="0.0" stop-color="rgb(121, 97, 39)" stop-opacity="1.0"/>
      <stop offset="1.0" stop-color="rgb(255, 232, 96)" stop-opacity="1.0"/>
    </radialGradient>
    <radialGradient id="shape_66_fill" cx="0.6527042105926604" cy="0.45913251526152604" r="0.07045658688870665">
      <stop offset="0.23755375" stop-color="rgb(168, 202, 117)" stop-opacity="0.2854723334312439"/>
      <stop offset="0.92128056" stop-color="rgb(0, 3, 0)" stop-opacity="0.05013379827141762"/>
    </radialGradient>
    <radialGradient id="shape_67_fill" cx="0.596650437714438" cy="0.9950319298714265" r="0.07006618601632048">
      <stop offset="0.8412355" stop-color="rgb(53, 30, 0)" stop-opacity="0.6926476955413818"/>
      <stop offset="1.0" stop-color="rgb(0, 5, 0)" stop-opacity="0.15062256157398224"/>
    </radialGradient>
    <radialGradient id="shape_68_fill" cx="0.4909292611594724" cy="0.9970699019496216" r="0.06822215909420205">
      <stop offset="0.3731533" stop-color="rgb(47, 18, 0)" stop-opacity="0.5289678573608398"/>
      <stop offset="1.0" stop-color="rgb(34, 63, 54)" stop-opacity="0.20510222017765045"/>
    </radialGradient>
  </defs>
  <g>
    <path d="M -0.2004987597465515 271.32086181640625 C 24.15399742126465 262.5080871582031 40.23374938964844 264.4510803222656 46.01930236816406 271.9841003417969 C 48.15560531616211 273.7723388671875 49.35549545288086 276.211669921875 57.099666595458984 274.4682922363281 C 59.361976623535156 273.8087158203125 63.13213348388672 274.16046142578125 63.7112922668457 270.3764343261719 C 68.74244689941406 268.59857177734375 99.75580596923828 270.1044921875 116.70648956298828 270.4487609863281 C 120.04228973388672 271.2523498535156 124.66252899169922 278.33245849609375 126.86216735839844 282.3448181152344 C 133.1787872314453 282.690673828125 144.35166931152344 281.13873291015625 165.13905334472656 289.1082763671875 C 185.29864501953125 282.8070373535156 185.86207580566406 282.126953125 206.7296905517578 287.3000793457031 C 200.31671142578125 287.3341979980469 198.3087615966797 281.38232421875 210.90484619140625 268.8966369628906 C 248.23770141601562 267.7001647949219 291.75872802734375 265.85906982421875 313.30035400390625 273.23345947265625 C 349.2835998535156 274.7684631347656 426.26788330078125 275.4750671386719 473.7116394042969 268.1379089355469 C 503.654541015625 264.0005187988281 547.3170776367188 264.61572265625 547.129638671875 275.71173095703125 C 548.0725708007812 274.8327941894531 547.805908203125 266.42950439453125 576.974365234375 264.9202880859375 C 592.1608276367188 269.6831359863281 612.2390747070312 281.1029357910156 612.5859375 280.9989318847656 C 617.7881469726562 266.9278869628906 627.2518920898438 266.1112976074219 673.4559936523438 265.8745422363281 C 676.724365234375 272.3059997558594 679.3670043945312 278.8281555175781 678.4677124023438 284.9035339355469 C 676.618896484375 339.52642822265625 674.7138671875 391.490478515625 675.1177368164062 446.4668273925781 C 451.9151306152344 446.6697692871094 228.9889373779297 446.8115539550781 -0.45091238617897034 446.4240417480469 C -0.4900912940502167 389.14251708984375 -0.3395657539367676 332.34271240234375 -0.2004987597465515 271.32086181640625" stroke-width="0.0" fill="url(#shape_0_fill)"/>
    <path d="M -0.2291831076145172 271.2078552246094 C 35.93370056152344 275.3939514160156 36.5576057434082 274.5861511230469 44.17269515991211 273.8236083984375 C 46.48497009277344 266.7664794921875 59.22795867919922 266.3172302246094 78.81676483154297 267.7349853515625 C 113.59477233886719 278.68035888671875 114.05036926269531 279.3109130859375 127.8348617553711 279.1743469238281 C 127.80670166015625 270.7986755371094 138.1190185546875 269.3772888183594 145.05068969726562 269.71197509765625 C 185.24659729003906 268.4216003417969 185.97019958496094 269.15301513671875 203.67979431152344 273.27874755859375 C 203.0543670654297 292.09710693359375 204.02383422851562 292.3669128417969 209.39205932617188 298.6497497558594 C 213.52224731445312 297.89593505859375 266.4128112792969 299.4949035644531 288.67864990234375 301.3026428222656 C 313.242919921875 305.28033447265625 445.80810546875 303.40789794921875 460.8304138183594 304.21331787109375 C 478.858642578125 294.0721740722656 491.17498779296875 291.919677734375 504.1821594238281 287.09747314453125 C 512.8356323242188 288.7194519042969 520.9143676757812 286.654296875 523.012451171875 286.5381774902344 C 527.4448852539062 285.7241516113281 531.7705078125 285.959716796875 534.7155151367188 287.1684875488281 C 540.6451416015625 287.10687255859375 541.7760009765625 288.4418640136719 550.401123046875 305.0791931152344 C 579.4051513671875 290.51220703125 581.5824584960938 290.9995422363281 598.6590576171875 296.2294006347656 C 616.2387084960938 289.2392578125 626.47802734375 288.1305236816406 634.1268920898438 288.53326416015625 C 641.8064575195312 276.9161071777344 654.70751953125 280.90203857421875 673.7700805664062 292.438720703125 C 674.2225952148438 340.2149658203125 674.4896240234375 392.1329650878906 674.1581420898438 446.2807922363281 C 451.4774169921875 446.3905334472656 229.19664001464844 446.25439453125 -0.3076581656932831 446.2476501464844 C -0.21370790898799896 389.403564453125 -0.3028809130191803 333.0151672363281 -0.2291831076145172 271.2078552246094" stroke-width="0.0" fill="url(#shape_1_fill)"/>
    <path d="M -0.019932541996240616 -0.25989267230033875 C 219.69313049316406 0.1040392518043518 439.478759765625 -0.45242562890052795 672.9769897460938 -0.14125093817710876 C 666.064208984375 10.991044044494629 644.7294921875 35.13052749633789 637.6055297851562 48.94232177734375 C 634.6422119140625 53.22964096069336 611.0596313476562 92.31387329101562 584.0579223632812 83.78875732421875 C 577.7352294921875 81.5499496459961 561.7360229492188 71.51408386230469 532.56591796875 73.74516296386719 C 532.0578002929688 78.39775085449219 525.92822265625 79.31853485107422 522.2066650390625 72.01703643798828 C 522.6678466796875 68.87081146240234 499.34423828125 63.91029357910156 499.2361145019531 62.64934539794922 C 493.10546875 62.180782318115234 485.88189697265625 60.9991569519043 484.4074401855469 68.81761169433594 C 475.2415466308594 72.84332275390625 476.1415710449219 75.91521453857422 476.86541748046875 82.56670379638672 C 484.84228515625 99.96479797363281 479.0420227050781 118.70936584472656 476.6336364746094 121.62531280517578 C 460.42974853515625 117.23881530761719 459.1748962402344 113.90872192382812 450.0088806152344 108.304931640625 C 435.17950439453125 107.8608169555664 411.72857666015625 102.2044677734375 410.0077819824219 105.14004516601562 C 414.1299133300781 119.99793243408203 418.3314514160156 126.95854949951172 414.2227478027344 139.45309448242188 C 410.22955322265625 152.25186157226562 395.06494140625 151.9661102294922 394.58453369140625 136.36395263671875 C 381.32568359375 141.18919372558594 377.65545654296875 158.32130432128906 369.09613037109375 157.54469299316406 C 366.3414306640625 156.5531005859375 363.48553466796875 158.6486053466797 357.07470703125 162.02374267578125 C 352.1696472167969 165.86415100097656 349.09918212890625 166.50257873535156 349.581298828125 172.13534545898438 C 345.3003234863281 178.9506378173828 338.6705627441406 174.8671417236328 345.1575012207031 163.9804229736328 C 297.9598083496094 161.19361877441406 296.8137512207031 167.88157653808594 294.7769775390625 177.00192260742188 C 305.8687438964844 184.80418395996094 303.7353210449219 189.84475708007812 307.480712890625 201.4777069091797 C 307.4729919433594 200.67135620117188 306.24969482421875 198.12673950195312 304.41082763671875 189.8158416748047 C 304.60418701171875 185.7037353515625 303.4648132324219 184.94692993164062 291.0079650878906 173.10086059570312 C 289.7066345214844 194.5574493408203 289.08062744140625 195.96974182128906 289.32818603515625 196.29412841796875 C 289.398193359375 189.93603515625 291.20245361328125 182.0054473876953 290.46728515625 172.42745971679688 C 271.7955627441406 174.9304962158203 268.32208251953125 180.50772094726562 260.92108154296875 176.11135864257812 C 256.2827453613281 183.19297790527344 255.7909698486328 188.9443359375 254.6096649169922 197.2129364013672 C 260.6651611328125 199.2772674560547 260.5741882324219 199.94293212890625 257.84674072265625 199.70431518554688 C 257.1457824707031 198.511474609375 253.7207489013672 196.11842346191406 255.1439208984375 193.99307250976562 C 255.43031311035156 182.8978271484375 261.40869140625 182.1274871826172 259.72137451171875 165.3307647705078 C 260.3350830078125 161.0418243408203 216.1624298095703 142.43077087402344 213.1774139404297 141.1031036376953 C 186.611083984375 132.86917114257812 195.24534606933594 104.84103393554688 191.3699493408203 86.41791534423828 C 191.59356689453125 85.01557159423828 161.81349182128906 73.77212524414062 129.96934509277344 58.56047058105469 C 105.8349609375 39.100120544433594 74.21803283691406 57.720916748046875 43.19895553588867 59.24729537963867 C 27.407621383666992 69.71221923828125 2.62015700340271 70.17528533935547 -0.9604488015174866 69.39634704589844 C 0.34183040261268616 43.958133697509766 -0.3314551115036011 22.56187629699707 -0.019932541996240616 -0.25989267230033875" stroke-width="0.0" fill="url(#shape_2_fill)"/>
    <path d="M 87.13202667236328 58.231746673583984 C 89.17632293701172 68.8149642944336 91.47032165527344 69.08309173583984 93.70960998535156 71.524169921875 C 90.8355712890625 79.9693832397461 91.7665023803711 81.67105865478516 89.34097290039062 93.64041137695312 C 96.21050262451172 86.0730972290039 98.31262969970703 86.41011047363281 102.86441040039062 87.94302368164062 C 104.93130493164062 75.2522201538086 105.82032012939453 73.33935546875 108.3940658569336 73.35026550292969 C 112.11820220947266 87.49636840820312 110.6805191040039 92.06571960449219 117.04711151123047 99.14434051513672 C 116.31814575195312 100.05309295654297 116.39303588867188 109.38306427001953 115.5754623413086 115.32726287841797 C 122.67341613769531 115.38070678710938 128.40811157226562 115.92963409423828 129.5504150390625 111.86328125 C 130.85939025878906 110.39114379882812 136.89797973632812 109.4573974609375 136.61431884765625 104.8389663696289 C 136.65492248535156 103.67872619628906 135.56861877441406 101.83767700195312 137.52642822265625 98.8666000366211 C 136.507568359375 93.27684020996094 137.54466247558594 92.91024017333984 137.5547332763672 89.48851776123047 C 137.34051513671875 85.22933197021484 138.5890655517578 84.86641693115234 139.947998046875 87.72296905517578 C 140.4365692138672 83.25975799560547 146.7703399658203 80.67451477050781 148.2423095703125 82.64752960205078 C 148.463623046875 93.25346374511719 149.9464569091797 94.5531234741211 152.36865234375 99.21373748779297 C 153.71563720703125 102.87220764160156 149.91790771484375 106.90887451171875 148.8618927001953 106.7474594116211 C 152.51400756835938 109.69818115234375 150.322021484375 114.05140686035156 148.37940979003906 113.33659362792969 C 154.4007568359375 112.84627532958984 158.02943420410156 122.58484649658203 157.14259338378906 123.32132720947266 C 161.2349395751953 124.99203491210938 164.8926544189453 123.4547348022461 169.65884399414062 122.73396301269531 C 174.3931427001953 119.73204803466797 175.78565979003906 121.51271057128906 177.69602966308594 122.49236297607422 C 179.34169006347656 122.68942260742188 180.05923461914062 125.06571197509766 183.481689453125 127.47470092773438 C 183.9080047607422 130.13925170898438 182.57481384277344 132.9869384765625 184.7335662841797 134.91123962402344 C 187.50778198242188 135.55938720703125 188.44528198242188 140.7183380126953 188.34117126464844 144.55618286132812 C 196.28152465820312 148.20046997070312 208.77908325195312 152.89654541015625 201.60687255859375 172.5908966064453 C 205.3245391845703 177.1643524169922 206.56776428222656 178.65487670898438 205.15802001953125 181.47100830078125 C 214.677001953125 181.34898376464844 215.5288848876953 193.583740234375 212.28211975097656 201.55252075195312 C 204.70631408691406 206.2364959716797 203.09120178222656 206.56878662109375 203.20301818847656 210.27784729003906 C 200.66738891601562 210.49954223632812 200.03961181640625 211.72103881835938 199.91998291015625 213.33877563476562 C 196.1063995361328 215.19883728027344 193.18087768554688 215.24575805664062 192.13722229003906 219.6316375732422 C 184.28773498535156 220.79583740234375 183.60617065429688 224.7430419921875 178.31414794921875 230.0724639892578 C 176.40133666992188 233.51376342773438 180.9741973876953 238.67176818847656 181.04470825195312 239.59390258789062 C 182.08639526367188 251.93504333496094 185.87481689453125 260.9546813964844 178.97711181640625 264.65789794921875 C 173.19747924804688 268.4781494140625 148.8716583251953 268.28668212890625 136.02371215820312 269.6094665527344 C 131.29278564453125 268.8797302246094 129.07005310058594 272.2884521484375 122.51107788085938 275.5750732421875 C 109.16775512695312 276.8180847167969 73.3136978149414 275.9778137207031 72.99274444580078 270.0871887207031 C 47.71280288696289 266.7841796875 56.564971923828125 268.5770263671875 57.77583312988281 273.5813903808594 C 48.611385345458984 276.447509765625 1.0558058023452759 272.6743469238281 0.8103907108306885 270.20611572265625 C -6.016371726989746 224.87335205078125 -5.380630970001221 166.87753295898438 2.1735196113586426 122.27738952636719 C 10.983120918273926 118.0810775756836 21.475841522216797 113.85446166992188 26.14882469177246 121.82088470458984 C 27.17963218688965 129.85609436035156 35.633541107177734 129.15492248535156 42.11772537231445 131.88929748535156 C 46.30950927734375 130.2309112548828 47.96291732788086 131.13946533203125 49.4482421875 142.26968383789062 C 50.359310150146484 149.02883911132812 61.3227653503418 148.70506286621094 62.77109909057617 146.1675262451172 C 62.196258544921875 136.8860626220703 63.11174392700195 134.0331268310547 62.089111328125 128.28204345703125 C 68.25096893310547 126.66334533691406 67.67083740234375 123.95460510253906 66.35545349121094 112.53385162353516 C 67.86634063720703 111.0860595703125 68.368408203125 106.20561218261719 76.02753448486328 102.61248016357422 C 73.86814880371094 101.04486083984375 78.00756072998047 91.29765319824219 77.34048461914062 85.77206420898438 C 77.2582778930664 83.52474212646484 77.62787628173828 75.08299255371094 85.26123809814453 75.36891174316406 C 83.10464477539062 70.19876098632812 82.7988510131836 67.53548431396484 87.13202667236328 58.231746673583984" stroke-width="0.0" fill="url(#shape_3_fill)"/>
    <path d="M 674.0882568359375 -0.6308204531669617 C 676.1160888671875 47.826377868652344 675.0172119140625 95.90823364257812 680.5115966796875 138.43475341796875 C 679.1539916992188 122.09376525878906 670.8955688476562 121.22589111328125 661.679931640625 119.81053924560547 C 660.7982788085938 120.1620864868164 655.014404296875 109.41983032226562 649.9708862304688 110.92701721191406 C 648.9417114257812 112.54358673095703 645.235107421875 149.64520263671875 642.9617919921875 155.55331420898438 C 629.9541625976562 154.604736328125 626.8928833007812 142.85726928710938 627.0543212890625 138.4958953857422 C 623.0398559570312 137.45420837402344 619.00048828125 145.36264038085938 615.4228515625 144.16018676757812 C 611.6814575195312 142.31332397460938 610.1608276367188 143.3292236328125 607.7925415039062 141.0438995361328 C 608.9144287109375 137.5041961669922 612.8932495117188 132.94451904296875 606.4151000976562 119.04004669189453 C 598.5484619140625 134.39100646972656 597.5796508789062 139.40077209472656 594.0528564453125 142.32870483398438 C 599.1102294921875 145.8087158203125 598.2156982421875 151.4249725341797 597.330322265625 152.28749084472656 C 588.4788208007812 157.53170776367188 588.1790771484375 164.614990234375 578.2904663085938 172.34335327148438 C 572.2234497070312 170.17990112304688 569.9291381835938 157.73948669433594 568.4915771484375 157.1070098876953 C 565.5365600585938 157.91937255859375 563.2116088867188 153.977294921875 561.8126831054688 149.5193328857422 C 560.1317749023438 151.2041778564453 556.6302490234375 151.1217498779297 555.0947875976562 155.71739196777344 C 551.8728637695312 156.04144287109375 550.339599609375 158.68649291992188 548.8201293945312 158.29766845703125 C 548.0220336914062 156.09226989746094 544.724853515625 155.6704864501953 536.1574096679688 153.47720336914062 C 531.7857666015625 154.9114227294922 529.9713134765625 158.9823760986328 523.1150512695312 156.87957763671875 C 519.2716064453125 160.51522827148438 520.3111572265625 162.15574645996094 522.958740234375 169.09017944335938 C 517.6227416992188 168.4944305419922 517.2318115234375 170.9822998046875 516.2662963867188 171.64317321777344 C 511.2713623046875 173.32232666015625 509.8157043457031 175.26531982421875 505.64263916015625 174.399169921875 C 502.75970458984375 171.4067840576172 503.0447082519531 169.5131378173828 502.98345947265625 159.3846893310547 C 491.79205322265625 145.1165771484375 506.5541687011719 121.27481842041016 517.8557739257812 126.50032043457031 C 523.6517944335938 125.19357299804688 540.5807495117188 109.97014617919922 548.807861328125 112.97200775146484 C 557.2605590820312 110.72122955322266 556.9122924804688 109.38518524169922 558.5977172851562 107.94755554199219 C 559.2972412109375 108.29917907714844 564.8924560546875 102.85326385498047 570.3062133789062 105.00249481201172 C 574.62060546875 102.44127655029297 573.4769287109375 97.53565979003906 579.0103149414062 94.04458618164062 C 586.53125 88.40557098388672 593.446533203125 77.70111083984375 613.0095825195312 78.35882568359375 C 616.8984985351562 73.59262084960938 644.6940307617188 51.04766082763672 645.7537231445312 35.46502685546875 C 644.9581298828125 32.43291473388672 647.9915771484375 30.388206481933594 647.5877075195312 29.512142181396484 C 646.9078369140625 28.281845092773438 664.1449584960938 -4.230254173278809 674.0882568359375 -0.6308204531669617" stroke-width="0.0" fill="url(#shape_4_fill)"/>
    <path d="M 151.5333709716797 68.59502410888672 C 152.29776000976562 69.13069152832031 186.32359313964844 84.9335708618164 192.894775390625 91.98828887939453 C 178.9686737060547 118.72337341308594 217.62660217285156 150.10572814941406 220.8907470703125 154.88226318359375 C 238.88525390625 170.02088928222656 241.97666931152344 184.16920471191406 240.81642150878906 193.866455078125 C 238.07899475097656 193.2030487060547 236.15292358398438 186.59481811523438 236.7709197998047 184.064208984375 C 235.68531799316406 183.54727172851562 234.15582275390625 184.30587768554688 231.06732177734375 182.69081115722656 C 231.92056274414062 183.80442810058594 231.9451446533203 193.81008911132812 228.63975524902344 195.6683807373047 C 227.60464477539062 196.63665771484375 227.34347534179688 205.37173461914062 221.2630157470703 207.6825714111328 C 215.0980224609375 206.5818634033203 214.3203582763672 197.7891082763672 214.65328979492188 194.8886260986328 C 212.95936584472656 185.43927001953125 211.8959197998047 184.94906616210938 206.5223388671875 177.426025390625 C 205.78872680664062 172.96261596679688 206.10182189941406 166.86883544921875 204.17779541015625 159.19415283203125 C 206.11770629882812 153.44915771484375 194.86048889160156 144.66322326660156 193.43272399902344 141.1637420654297 C 189.1315155029297 140.13938903808594 188.93125915527344 137.03024291992188 186.31385803222656 135.78640747070312 C 178.14634704589844 133.50306701660156 178.8997344970703 127.17648315429688 183.39036560058594 117.21080017089844 C 179.39002990722656 116.43304443359375 177.39669799804688 117.65190887451172 172.94607543945312 117.77063751220703 C 179.40744018554688 128.25709533691406 175.96852111816406 130.7543487548828 151.8679656982422 130.3756866455078 C 149.59207153320312 128.43060302734375 151.87930297851562 102.49486541748047 154.16473388671875 93.81552124023438 C 152.80113220214844 89.3965072631836 153.32444763183594 87.328125 150.14654541015625 76.27360534667969 C 148.0601043701172 75.90467071533203 148.33604431152344 69.25192260742188 151.5333709716797 68.59502410888672" stroke-width="0.0" fill="url(#shape_5_fill)"/>
    <path d="M 611.77734375 81.04779815673828 C 618.8070678710938 84.06890869140625 619.6790161132812 86.39436340332031 631.7301025390625 85.63910675048828 C 636.0569458007812 86.14225006103516 637.0459594726562 88.41354370117188 641.1699829101562 89.34583282470703 C 642.1671752929688 87.01831817626953 666.3493041992188 92.35758209228516 674.9047241210938 98.47928619384766 C 675.4066162109375 110.61927795410156 674.7958984375 125.90557098388672 675.0851440429688 151.22972106933594 C 665.6509399414062 142.73968505859375 662.9036254882812 136.62445068359375 659.369140625 131.580078125 C 659.782958984375 122.3315658569336 660.667236328125 116.1947021484375 653.2504272460938 112.8194351196289 C 644.4656372070312 113.03034973144531 644.2018432617188 142.26063537597656 642.4880981445312 142.98643493652344 C 644.0072631835938 144.62979125976562 642.6212158203125 148.2296142578125 644.364013671875 150.29998779296875 C 639.961669921875 150.779052734375 637.9127807617188 152.77926635742188 634.956298828125 153.5726318359375 C 631.5889282226562 146.20278930664062 629.1858520507812 141.39491271972656 630.0765991210938 140.53819274902344 C 628.8258056640625 137.5842742919922 621.9987182617188 136.78179931640625 620.943115234375 138.7581329345703 C 618.4293823242188 140.60877990722656 619.3025512695312 142.42095947265625 618.3440551757812 148.76258850097656 C 614.0036010742188 144.69090270996094 613.3848876953125 143.20387268066406 609.826171875 143.6947479248047 C 608.5025634765625 140.4076385498047 609.5602416992188 139.24224853515625 609.1026000976562 137.30499267578125 C 606.6266479492188 132.18533325195312 604.8447875976562 126.9219970703125 599.351806640625 128.12315368652344 C 606.0509643554688 133.32925415039062 595.0939331054688 147.90382385253906 592.0245361328125 154.84848022460938 C 590.360107421875 163.75503540039062 588.9286499023438 163.9485626220703 585.6716918945312 169.1325225830078 C 584.7701416015625 167.54978942871094 584.0036010742188 166.1804962158203 589.43603515625 154.41835021972656 C 590.2205200195312 144.79110717773438 585.509033203125 143.69093322753906 575.1209716796875 140.49903869628906 C 571.9412231445312 157.2320098876953 556.7645263671875 155.65380859375 555.9931640625 151.35928344726562 C 555.82861328125 152.89956665039062 553.0713500976562 154.7035675048828 552.9432373046875 157.80792236328125 C 551.0243530273438 161.31869506835938 548.0418090820312 160.9359588623047 547.36474609375 159.24029541015625 C 544.4827880859375 156.4716339111328 542.7112426757812 154.029296875 537.7589721679688 156.9193878173828 C 535.2081298828125 158.47763061523438 531.1732177734375 157.62062072753906 529.39599609375 158.31898498535156 C 526.3806762695312 159.4884796142578 526.6032104492188 163.0453643798828 525.6834106445312 166.5149383544922 C 524.591064453125 169.49337768554688 523.5913696289062 171.58409118652344 519.0335693359375 173.0865478515625 C 509.3069763183594 178.2956085205078 496.0823974609375 179.96652221679688 486.06640625 159.1307373046875 C 481.3370056152344 136.68199157714844 500.4076843261719 118.18511199951172 513.5792846679688 118.32785034179688 C 529.0428466796875 127.6029281616211 541.0119018554688 107.91881561279297 549.010498046875 111.75377655029297 C 555.7166137695312 110.18025207519531 560.9340209960938 109.99369812011719 564.0653686523438 106.85186767578125 C 564.6306762695312 104.48133850097656 566.5015258789062 103.55587005615234 569.782958984375 104.583251953125 C 573.6270141601562 101.07904052734375 578.7554321289062 98.47960662841797 587.0845336914062 99.05721282958984 C 600.5284423828125 93.38792419433594 603.5068359375 80.01773834228516 611.77734375 81.04779815673828" stroke-width="0.0" fill="url(#shape_6_fill)"/>
    <path d="M 0.7455487251281738 98.65772247314453 C 39.739925384521484 109.66659545898438 46.01460266113281 119.89215087890625 50.51784133911133 139.07745361328125 C 81.23160552978516 153.9054718017578 52.5526008605957 213.49655151367188 41.55451965332031 246.03030395507812 C 50.90970230102539 260.1673278808594 48.478485107421875 264.60565185546875 48.75240707397461 265.11865234375 C 49.17387390136719 258.5059509277344 26.460918426513672 253.3996124267578 14.912914276123047 248.6027069091797 C 5.084311008453369 204.8898162841797 -8.288697242736816 170.69630432128906 0.7455487251281738 98.65772247314453" stroke-width="0.0" fill="url(#shape_7_fill)"/>
    <path d="M 384.55364990234375 197.31954956054688 C 424.55596923828125 186.35693359375 426.8351745605469 190.6523895263672 429.9247131347656 204.13491821289062 C 475.3815612792969 189.09417724609375 496.9505920410156 203.8655242919922 491.6960144042969 231.1733856201172 C 491.0022888183594 250.4938507080078 486.2565002441406 251.5043487548828 484.8585205078125 252.41473388671875 C 485.94732666015625 259.1007385253906 482.62982177734375 268.9396667480469 477.1421813964844 268.9432067871094 C 469.04290771484375 272.9302978515625 453.2210388183594 266.7112731933594 451.6368103027344 269.7130432128906 C 447.0916442871094 266.28436279296875 448.306396484375 261.22271728515625 449.0943908691406 260.15606689453125 C 439.2552185058594 264.78924560546875 436.5178527832031 261.43408203125 437.4396667480469 256.7665710449219 C 427.0071105957031 256.5558166503906 425.68841552734375 258.9837951660156 421.1250305175781 262.064697265625 C 418.5461120605469 264.24432373046875 417.7023620605469 267.7298278808594 414.9410095214844 273.61907958984375 C 414.10858154296875 272.5439147949219 392.40692138671875 268.9250183105469 392.53955078125 264.20526123046875 C 391.819580078125 265.1316223144531 388.9200134277344 263.3804016113281 385.73443603515625 263.9039611816406 C 382.1068420410156 261.9757995605469 380.8141174316406 263.2071533203125 376.4482116699219 261.13250732421875 C 374.82806396484375 256.3583679199219 376.0067138671875 252.5775146484375 371.4803466796875 250.2273406982422 C 359.5491638183594 243.44390869140625 374.25531005859375 195.53456115722656 378.51605224609375 177.2284393310547 C 384.87060546875 171.00143432617188 394.111328125 176.54434204101562 384.55364990234375 197.31954956054688" stroke-width="0.0" fill="url(#shape_8_fill)"/>
    <path d="M 566.375 157.22923278808594 C 568.1315307617188 158.90745544433594 568.140869140625 166.62057495117188 569.397216796875 168.01034545898438 C 573.50537109375 169.47547912597656 573.6401977539062 171.01319885253906 577.4527587890625 174.4646453857422 C 581.9307250976562 172.94601440429688 583.9710693359375 174.56983947753906 583.7056274414062 179.472412109375 C 575.3663940429688 180.47653198242188 572.1549072265625 225.615234375 577.3766479492188 226.96453857421875 C 577.869873046875 229.9734649658203 581.2904052734375 235.68856811523438 577.1398315429688 241.30389404296875 C 568.8223266601562 238.37664794921875 566.69677734375 237.140869140625 559.06201171875 247.41465759277344 C 553.6242065429688 249.82533264160156 497.3500671386719 254.79757690429688 486.84576416015625 251.25186157226562 C 486.17742919921875 250.26168823242188 487.33319091796875 239.82904052734375 496.11474609375 231.36282348632812 C 486.3829040527344 226.3323211669922 483.1654357910156 222.32432556152344 482.0526123046875 215.51296997070312 C 476.9015808105469 209.92953491210938 479.4781188964844 205.8719024658203 482.80615234375 205.9907989501953 C 480.1536865234375 205.34579467773438 481.6065979003906 199.1143035888672 489.7890319824219 199.076416015625 C 492.0534973144531 196.28330993652344 491.8089904785156 192.51370239257812 492.68206787109375 187.98484802246094 C 489.0249328613281 174.24014282226562 489.264892578125 173.30149841308594 487.8163757324219 164.32582092285156 C 504.16357421875 164.28204345703125 505.7202453613281 164.63613891601562 515.3606567382812 163.49769592285156 C 522.7613525390625 169.18734741210938 524.9469604492188 167.23416137695312 526.1610107421875 167.6722869873047 C 523.1995849609375 161.72019958496094 532.032958984375 156.65708923339844 533.232177734375 158.75486755371094 C 537.5866088867188 161.8841552734375 541.3619384765625 162.4883575439453 542.135009765625 164.01022338867188 C 545.1917724609375 164.09417724609375 545.78271484375 165.89654541015625 549.8668212890625 166.7891387939453 C 548.9517211914062 165.6036376953125 550.6049194335938 157.85394287109375 554.8093872070312 157.8083038330078 C 557.9490356445312 161.01181030273438 563.070068359375 157.9237823486328 566.375 157.22923278808594" stroke-width="0.0" fill="url(#shape_9_fill)"/>
    <path d="M 561.3095703125 156.687744140625 C 565.7958374023438 153.03111267089844 571.31884765625 157.7044677734375 570.6240844726562 171.54440307617188 C 572.3240966796875 169.1566925048828 576.3084716796875 169.1757354736328 579.5798950195312 174.426513671875 C 580.552734375 178.1181182861328 578.9287719726562 187.3770751953125 578.306640625 191.2176513671875 C 571.3240356445312 196.48716735839844 572.0247802734375 229.9701690673828 578.0967407226562 230.97616577148438 C 576.0724487304688 231.1602020263672 575.6109008789062 236.84388732910156 572.0704956054688 238.01039123535156 C 560.28662109375 235.85581970214844 567.2428588867188 238.6656951904297 563.7445678710938 247.5801239013672 C 547.326904296875 253.3477783203125 501.2889099121094 249.2538604736328 500.1917419433594 251.74771118164062 C 491.0944519042969 251.8263702392578 487.90673828125 237.0521240234375 494.0184020996094 230.6587371826172 C 486.623779296875 224.92149353027344 481.9817810058594 219.276611328125 481.7230529785156 215.0256805419922 C 475.840087890625 215.2654571533203 473.3175048828125 214.79165649414062 464.62567138671875 196.61343383789062 C 464.0469055175781 182.19525146484375 477.8601379394531 178.20123291015625 482.9607238769531 195.4481964111328 C 489.73577880859375 197.569580078125 494.5962219238281 184.44522094726562 496.6235046386719 182.95399475097656 C 495.3029479980469 178.8610076904297 497.5860900878906 177.6824951171875 500.1686706542969 177.4507293701172 C 507.9399719238281 179.0984649658203 516.5722045898438 181.69970703125 520.8046875 174.10537719726562 C 524.1995849609375 173.40884399414062 527.2721557617188 159.3693389892578 531.048583984375 155.0369873046875 C 538.399169921875 155.8232879638672 538.6586303710938 158.4463348388672 538.7001342773438 166.1016387939453 C 545.760986328125 165.97044372558594 549.060302734375 167.43997192382812 551.400390625 166.44290161132812 C 551.0125122070312 155.8027801513672 552.989990234375 153.0657501220703 561.3095703125 156.687744140625" stroke-width="0.0" fill="url(#shape_10_fill)"/>
    <path d="M 445.6886901855469 108.68675994873047 C 452.7836608886719 113.12744140625 453.6348571777344 114.07547760009766 462.6377868652344 110.13660430908203 C 465.4919128417969 115.93598175048828 469.1134948730469 114.47261810302734 484.0203552246094 109.5904312133789 C 489.1204528808594 124.44281005859375 488.68084716796875 125.26395416259766 491.799072265625 130.7683563232422 C 493.5526428222656 132.13665771484375 493.5497131347656 135.1833038330078 496.9006042480469 136.36463928222656 C 494.0061340332031 135.59103393554688 492.855224609375 138.31163024902344 489.593017578125 141.3916473388672 C 483.2657470703125 138.01318359375 482.0677795410156 140.07073974609375 479.6167907714844 142.79945373535156 C 468.3244323730469 138.06080627441406 466.6632385253906 137.28964233398438 465.6972351074219 134.42489624023438 C 464.3396911621094 133.57147216796875 460.7136535644531 133.58035278320312 460.4877624511719 134.20494079589844 C 461.33880615234375 133.37496948242188 479.6468200683594 142.75331115722656 495.324462890625 151.73663330078125 C 476.6653747558594 176.9348907470703 475.54730224609375 177.3023223876953 475.219970703125 183.3899383544922 C 467.78240966796875 183.36778259277344 467.35150146484375 188.5586700439453 465.9970397949219 189.97222900390625 C 462.5028991699219 184.80885314941406 461.50189208984375 172.5426025390625 460.5585632324219 164.88169860839844 C 448.39483642578125 180.63331604003906 447.4999084472656 182.44960021972656 439.8820495605469 183.0885772705078 C 439.3415832519531 183.84681701660156 435.7491455078125 195.6618194580078 434.84613037109375 197.53196716308594 C 429.1992492675781 200.33013916015625 417.55474853515625 180.57215881347656 417.6959228515625 179.76657104492188 C 416.9344787597656 179.81143188476562 398.4087219238281 180.4777374267578 397.5853271484375 173.58419799804688 C 393.86712646484375 171.25753784179688 389.793212890625 176.45018005371094 379.5171813964844 174.7660675048828 C 382.6253967285156 158.17002868652344 379.65673828125 151.98214721679688 392.2310485839844 139.06219482421875 C 398.2167663574219 137.82908630371094 399.7140808105469 130.05274963378906 402.5259704589844 120.59419250488281 C 406.9699401855469 99.10166931152344 424.96954345703125 102.51266479492188 445.6886901855469 108.68675994873047" stroke-width="0.0" fill="url(#shape_11_fill)"/>
    <path d="M 602.8276977539062 127.79632568359375 C 605.9052124023438 129.754150390625 605.410888671875 143.3758087158203 606.9991455078125 145.19329833984375 C 611.0541381835938 145.70574951171875 611.5092163085938 149.6255340576172 616.0086669921875 153.19952392578125 C 618.086669921875 149.89285278320312 618.0313720703125 141.79168701171875 621.488037109375 141.1822967529297 C 622.896728515625 137.3759765625 625.45166015625 137.30545043945312 627.3661499023438 140.32223510742188 C 627.3480834960938 142.17489624023438 628.9188842773438 144.78855895996094 628.9781494140625 147.09458923339844 C 632.0965576171875 149.7748260498047 631.7243041992188 151.206787109375 636.2325439453125 153.75961303710938 C 642.2474365234375 154.5345916748047 642.0478515625 160.2239990234375 647.9683227539062 171.26388549804688 C 639.336669921875 185.3524169921875 640.1419067382812 194.97463989257812 640.58837890625 206.49742126464844 C 653.9138793945312 211.3812713623047 655.02587890625 236.04466247558594 642.59423828125 245.43331909179688 C 622.7240600585938 248.1876678466797 611.7420043945312 249.0802001953125 579.2687377929688 264.8964538574219 C 571.3440551757812 253.13021850585938 578.9008178710938 230.82667541503906 574.4996337890625 216.04420471191406 C 568.0313110351562 209.07562255859375 571.663330078125 168.880126953125 583.2269287109375 169.76219177246094 C 597.1954956054688 163.5914764404297 599.631591796875 143.46107482910156 599.9832153320312 142.29319763183594 C 595.881103515625 139.74822998046875 596.4173583984375 136.9329833984375 602.8276977539062 127.79632568359375" stroke-width="0.0" fill="url(#shape_12_fill)"/>
    <path d="M 411.67950439453125 176.57838439941406 C 419.66754150390625 174.15707397460938 433.7758483886719 213.34609985351562 428.727294921875 219.8399200439453 C 419.90972900390625 228.18478393554688 427.44622802734375 237.4818878173828 431.6156311035156 243.2028350830078 C 428.7852478027344 260.60870361328125 419.8631896972656 269.2785949707031 414.30426025390625 268.2650146484375 C 406.3417663574219 265.0211486816406 402.23040771484375 271.93878173828125 390.77825927734375 267.963623046875 C 385.5597839355469 264.9148864746094 382.532470703125 266.16357421875 379.632080078125 265.6384582519531 C 374.8476867675781 264.3187255859375 374.74810791015625 261.3316650390625 375.0274353027344 258.44451904296875 C 376.33538818359375 255.69422912597656 374.5091552734375 254.59950256347656 374.8934631347656 253.81301879882812 C 371.7866516113281 255.20790100097656 369.7276611328125 251.3636016845703 368.3587951660156 251.94796752929688 C 360.64996337890625 247.9964141845703 366.2627868652344 229.11102294921875 367.58184814453125 221.9975128173828 C 369.40875244140625 218.9927978515625 372.0755920410156 202.71885681152344 381.7534484863281 203.1936798095703 C 378.742431640625 193.9468536376953 379.7257995605469 191.6303253173828 389.766845703125 188.6903839111328 C 391.3725280761719 177.60379028320312 392.9076843261719 176.7542266845703 411.67950439453125 176.57838439941406" stroke-width="0.0" fill="url(#shape_13_fill)"/>
    <path d="M 508.1416015625 67.0492935180664 C 512.235595703125 65.99955749511719 519.6407470703125 71.05636596679688 520.4655151367188 77.79253387451172 C 530.912841796875 79.38320922851562 534.6571655273438 79.95716094970703 537.2981567382812 87.8045883178711 C 539.3883666992188 90.83416748046875 544.5425415039062 90.28123474121094 545.0235595703125 91.17203521728516 C 545.53662109375 92.74303436279297 556.1751708984375 96.83384704589844 559.3007202148438 95.6664047241211 C 563.484130859375 97.58564758300781 567.358642578125 97.47998046875 568.7163696289062 98.54771423339844 C 564.116455078125 105.49034881591797 557.5792236328125 115.69939422607422 540.967041015625 110.7160873413086 C 541.3720703125 111.83424377441406 539.3856811523438 114.97137451171875 534.7100830078125 118.41242218017578 C 527.7240600585938 120.7047348022461 519.799072265625 124.5428695678711 515.6131591796875 118.6485366821289 C 511.798583984375 120.9540786743164 501.57421875 125.66751098632812 499.8329772949219 126.10513305664062 C 497.73760986328125 128.92005920410156 494.0070495605469 128.67076110839844 489.5748291015625 127.14635467529297 C 489.4960632324219 118.73267364501953 468.83978271484375 118.57563018798828 468.1392822265625 117.58549499511719 C 463.5332336425781 117.8109130859375 462.9286193847656 116.67564392089844 462.1272888183594 116.1408920288086 C 470.1307373046875 119.34132385253906 473.7925720214844 113.48871612548828 477.5102233886719 108.61665344238281 C 474.48858642578125 93.9614028930664 473.2113952636719 85.55183410644531 474.72589111328125 81.86654663085938 C 474.5899658203125 70.9334945678711 475.34259033203125 70.38587951660156 477.8991394042969 66.28013610839844 C 478.6163330078125 63.86943817138672 482.4950256347656 63.84550857543945 484.1327819824219 63.10511016845703 C 495.7321472167969 63.97998046875 502.81292724609375 61.133399963378906 508.1416015625 67.0492935180664" stroke-width="0.0" fill="url(#shape_14_fill)"/>
    <path d="M 533.9866943359375 160.98069763183594 C 543.9530639648438 162.54129028320312 544.2528686523438 163.37261962890625 546.69140625 165.15135192871094 C 549.7341918945312 167.52471923828125 549.5872192382812 170.20947265625 543.9635620117188 180.05819702148438 C 542.402099609375 190.02291870117188 536.9110107421875 231.355224609375 536.56982421875 233.06817626953125 C 540.8523559570312 238.05516052246094 541.124755859375 251.62782287597656 516.5806274414062 252.36380004882812 C 502.934814453125 251.44113159179688 483.2235107421875 242.9294891357422 487.98199462890625 230.3856201171875 C 476.3457946777344 219.15586853027344 478.87957763671875 208.94073486328125 482.66986083984375 201.3537139892578 C 486.4266662597656 197.48316955566406 487.9876708984375 197.4532012939453 488.9313049316406 198.96392822265625 C 482.92645263671875 195.55935668945312 488.7137451171875 183.51223754882812 487.455322265625 173.11737060546875 C 487.5909729003906 167.4306182861328 488.9755554199219 166.1326446533203 491.11370849609375 167.09780883789062 C 505.5378112792969 178.9029541015625 511.20062255859375 184.1861572265625 522.734375 172.72921752929688 C 525.5537719726562 170.96014404296875 525.537353515625 167.30735778808594 526.71630859375 165.11495971679688 C 525.5162353515625 159.41696166992188 528.7313232421875 158.46046447753906 533.9866943359375 160.98069763183594" stroke-width="0.0" fill="url(#shape_15_fill)"/>
    <path d="M 651.537353515625 109.68852996826172 C 653.9381103515625 110.51314544677734 664.1954956054688 121.72450256347656 659.6832885742188 133.07516479492188 C 664.0628662109375 136.21241760253906 664.5867309570312 143.14300537109375 673.36669921875 148.06040954589844 C 676.5687866210938 179.38792419433594 673.5336303710938 211.50282287597656 676.1693115234375 266.9860534667969 C 675.0496215820312 265.3796691894531 635.7396850585938 272.9315185546875 630.3307495117188 263.9820861816406 C 637.3359375 245.2350616455078 643.0673217773438 124.03214263916016 651.537353515625 109.68852996826172" stroke-width="0.0" fill="url(#shape_16_fill)"/>
    <path d="M 601.3119506835938 129.34129333496094 C 603.573974609375 128.21337890625 606.2669677734375 131.82000732421875 606.2310180664062 134.0277099609375 C 608.7274169921875 135.1001434326172 607.0579223632812 141.5531005859375 609.1798095703125 143.6602325439453 C 628.5784301757812 143.08901977539062 630.8905639648438 217.1722869873047 633.4473876953125 268.1790771484375 C 581.4207763671875 272.57916259765625 574.9718017578125 265.07220458984375 579.4185180664062 240.64895629882812 C 561.346435546875 226.0568389892578 598.155029296875 155.2574462890625 601.3119506835938 129.34129333496094" stroke-width="0.0" fill="url(#shape_17_fill)"/>
    <path d="M 320.3636474609375 186.25369262695312 C 320.9216613769531 186.49862670898438 322.04150390625 189.38682556152344 321.1036682128906 199.81748962402344 C 332.523193359375 194.00131225585938 333.40313720703125 193.28811645507812 337.38275146484375 196.07321166992188 C 344.0715637207031 200.02651977539062 346.4289245605469 197.83128356933594 353.4903564453125 192.86647033691406 C 359.1528015136719 192.89080810546875 359.21185302734375 194.02072143554688 356.49359130859375 201.90097045898438 C 359.36126708984375 204.13934326171875 361.6182861328125 204.20791625976562 364.7311706542969 209.99632263183594 C 367.3217468261719 207.13682556152344 368.52191162109375 208.16835021972656 368.2391662597656 211.80316162109375 C 370.28106689453125 220.0400390625 370.2967224121094 223.0032501220703 365.9584045410156 225.57144165039062 C 365.99493408203125 231.4461212158203 363.8597412109375 236.27127075195312 366.6136779785156 247.8209228515625 C 369.58612060546875 252.64334106445312 366.8746643066406 256.13055419921875 358.0462341308594 254.6277618408203 C 354.0562438964844 255.77401733398438 326.1296081542969 255.0186004638672 323.1220397949219 255.33840942382812 C 313.3308410644531 256.0020446777344 312.0823059082031 253.699462890625 308.4366455078125 243.51866149902344 C 304.18023681640625 229.56410217285156 320.94537353515625 194.91844177246094 320.3636474609375 186.25369262695312" stroke-width="0.0" fill="url(#shape_18_fill)"/>
    <path d="M 478.96087646484375 223.7312774658203 C 502.0907897949219 250.97259521484375 512.8339233398438 264.2406921386719 493.709228515625 279.83270263671875 C 470.5359802246094 279.4656066894531 443.9757385253906 261.59063720703125 442.1275939941406 261.76824951171875 C 438.777099609375 260.5023498535156 437.1859130859375 258.20831298828125 432.6701354980469 258.0152282714844 C 429.4983215332031 258.5686950683594 428.1722717285156 256.7568664550781 429.4364318847656 253.87948608398438 C 432.46759033203125 236.98721313476562 422.84759521484375 234.06646728515625 422.9458312988281 229.70681762695312 C 423.1521301269531 226.89456176757812 421.11016845703125 226.71170043945312 420.2053527832031 225.0841522216797 C 427.79339599609375 219.62290954589844 429.6990051269531 218.86138916015625 428.3417663574219 214.9495849609375 C 441.4648132324219 197.335693359375 478.18408203125 197.4681396484375 478.96087646484375 223.7312774658203" stroke-width="0.0" fill="url(#shape_19_fill)"/>
    <path d="M 673.9059448242188 -3.008204936981201 C 675.0673828125 32.84956741333008 674.5833740234375 64.76375579833984 674.4324340820312 97.25019073486328 C 669.4779663085938 96.11587524414062 652.9876098632812 87.76239776611328 645.0382690429688 90.04853820800781 C 638.5967407226562 89.51776123046875 638.1202392578125 86.0158462524414 637.4310913085938 84.25162506103516 C 626.2242431640625 84.52750396728516 620.1146240234375 93.12295532226562 608.157470703125 86.59571838378906 C 609.8912963867188 74.75761413574219 612.2603759765625 73.60856628417969 614.417236328125 71.60897064208984 C 622.5969848632812 68.78893280029297 648.6995239257812 25.13872718811035 647.4920654296875 20.834447860717773 C 655.28955078125 8.661148071289062 656.4695434570312 2.8440189361572266 668.6896362304688 3.565277099609375 C 669.8200073242188 2.686311721801758 670.1095581054688 1.0735433101654053 673.9059448242188 -3.008204936981201" stroke-width="0.0" fill="url(#shape_20_fill)"/>
    <path d="M 561.8162231445312 155.9507598876953 C 569.8672485351562 156.45713806152344 569.963623046875 161.49440002441406 573.0563354492188 165.53086853027344 C 583.5514526367188 168.34388732910156 574.1749267578125 231.03147888183594 576.6638793945312 240.6372833251953 C 577.4530639648438 244.89114379882812 576.9602661132812 246.8911895751953 578.195068359375 267.6225280761719 C 545.7298583984375 263.1898193359375 540.741943359375 258.61566162109375 540.0786743164062 246.732421875 C 544.8682250976562 244.73509216308594 543.832763671875 166.22581481933594 555.0723266601562 156.8984832763672 C 555.47607421875 153.02682495117188 559.2594604492188 151.79635620117188 561.8162231445312 155.9507598876953" stroke-width="0.0" fill="url(#shape_21_fill)"/>
    <path d="M 214.8813018798828 209.86497497558594 C 233.98828125 208.92782592773438 236.7303009033203 241.54241943359375 222.81588745117188 257.287353515625 C 211.70420837402344 263.27203369140625 209.5474853515625 264.1273193359375 208.93148803710938 273.1443786621094 C 205.8744659423828 275.3450927734375 206.7931671142578 277.1058654785156 206.04893493652344 279.9952087402344 C 206.70346069335938 282.899169921875 203.2654571533203 285.66241455078125 201.3536834716797 284.9466552734375 C 201.2177734375 283.246826171875 190.45472717285156 272.7208557128906 188.1929931640625 264.38372802734375 C 186.63099670410156 261.6670227050781 183.74156188964844 262.8067626953125 181.4876251220703 262.5826721191406 C 180.87008666992188 260.51129150390625 180.26742553710938 260.5134582519531 178.29380798339844 252.04823303222656 C 178.90521240234375 248.21543884277344 168.79281616210938 241.6208953857422 170.53102111816406 238.31158447265625 C 175.9619598388672 213.09329223632812 176.93106079101562 213.2917938232422 185.5745391845703 220.5030975341797 C 193.8079376220703 219.49951171875 194.17286682128906 215.24319458007812 198.51596069335938 213.2236328125 C 184.98715209960938 206.65550231933594 185.09930419921875 201.7813262939453 201.03448486328125 196.70689392089844 C 213.45770263671875 193.49339294433594 214.87017822265625 196.231689453125 214.8813018798828 209.86497497558594" stroke-width="0.0" fill="url(#shape_22_fill)"/>
    <path d="M 111.62076568603516 426.29351806640625 C 112.73258209228516 429.2807922363281 111.01647186279297 431.197509765625 110.66012573242188 431.484619140625 C 104.74542236328125 432.9175720214844 103.44303131103516 433.6685485839844 91.90619659423828 433.0582275390625 C 89.76759338378906 435.9678039550781 95.67463684082031 446.421630859375 91.61002349853516 452.1399841308594 C 78.66380310058594 444.9972229003906 46.938175201416016 447.9271240234375 25.12529754638672 449.630126953125 C 14.026886940002441 446.2266845703125 13.889731407165527 439.7636413574219 17.913148880004883 436.37646484375 C 34.775901794433594 427.6522521972656 50.09263610839844 426.6256103515625 72.4471664428711 427.11541748046875 C 73.70149993896484 423.89910888671875 109.98648834228516 420.5673828125 111.62076568603516 426.29351806640625" stroke-width="0.0" fill="url(#shape_23_fill)"/>
    <path d="M 194.03269958496094 123.77874755859375 C 200.62147521972656 124.57498931884766 210.70849609375 145.19650268554688 214.63812255859375 145.20896911621094 C 215.62876892089844 148.31805419921875 218.56085205078125 149.72994995117188 220.5566864013672 153.95010375976562 C 227.2860870361328 158.4051971435547 247.83433532714844 177.96588134765625 244.76451110839844 199.06521606445312 C 239.21128845214844 199.53041076660156 235.68365478515625 186.8875274658203 232.27073669433594 179.93980407714844 C 234.8617706298828 187.07032775878906 233.36329650878906 195.95191955566406 230.5800018310547 197.09417724609375 C 227.92303466796875 197.3197479248047 225.93856811523438 202.86456298828125 220.24655151367188 208.60504150390625 C 215.2064208984375 207.66143798828125 213.57286071777344 199.4534454345703 212.70791625976562 197.37136840820312 C 211.9848175048828 190.47975158691406 211.97323608398438 183.67083740234375 206.76622009277344 177.70123291015625 C 203.90847778320312 174.0325469970703 204.96791076660156 173.0138702392578 205.61929321289062 167.3438720703125 C 202.6066131591797 147.5597381591797 199.38502502441406 146.983154296875 192.41702270507812 143.92410278320312 C 189.36074829101562 142.3606414794922 191.39303588867188 128.4546356201172 194.03269958496094 123.77874755859375" stroke-width="0.0" fill="url(#shape_24_fill)"/>
    <path d="M 594.7869873046875 407.29754638671875 C 598.9802856445312 409.7115173339844 627.6865234375 407.518798828125 630.8986206054688 413.5314025878906 C 630.8421020507812 421.65533447265625 627.9618530273438 425.70477294921875 628.8502197265625 426.5556945800781 C 630.5332641601562 427.83154296875 635.988525390625 428.0574645996094 639.7080078125 436.86761474609375 C 618.4183349609375 447.5598449707031 578.3472290039062 439.03118896484375 572.5728759765625 434.9027404785156 C 567.7417602539062 427.18096923828125 573.8700561523438 419.55072021484375 576.7559814453125 413.5361022949219 C 579.4521484375 409.3965759277344 587.28515625 414.4518737792969 594.7869873046875 407.29754638671875" stroke-width="0.0" fill="url(#shape_25_fill)"/>
    <path d="M 142.91627502441406 66.7459487915039 C 144.07147216796875 68.92744445800781 149.1705780029297 68.12567901611328 149.63096618652344 69.10718536376953 C 148.899169921875 70.89834594726562 150.46775817871094 71.82186126708984 149.7485809326172 73.88042449951172 C 151.10205078125 74.4511947631836 150.12130737304688 78.48423767089844 149.85411071777344 80.99131774902344 C 152.0867156982422 89.57514190673828 152.962158203125 97.63044738769531 153.89022827148438 104.1103744506836 C 153.50108337402344 107.62238311767578 155.1251983642578 108.51575469970703 155.480224609375 111.3472900390625 C 158.0643310546875 123.45146942138672 155.33570861816406 133.5225830078125 150.42230224609375 133.59103393554688 C 142.85130310058594 126.97002410888672 137.37109375 119.84445190429688 126.09233093261719 117.01410675048828 C 122.5252456665039 114.15784454345703 124.47330474853516 109.584716796875 126.6450424194336 106.76673889160156 C 128.8088836669922 106.8404769897461 128.87014770507812 105.2774887084961 132.65103149414062 104.72150421142578 C 138.3356475830078 96.83055114746094 134.8384246826172 92.83979034423828 133.0507049560547 89.35382843017578 C 134.08108520507812 88.40237426757812 139.32415771484375 87.29354095458984 140.17025756835938 85.35555267333984 C 138.25497436523438 84.74546813964844 138.8024139404297 77.64220428466797 139.51156616210938 77.47959899902344 C 143.63259887695312 76.60057067871094 142.70608520507812 70.39130401611328 142.91627502441406 66.7459487915039" stroke-width="0.0" fill="url(#shape_26_fill)"/>
    <path d="M 139.6595458984375 67.75959777832031 C 148.96176147460938 66.94609069824219 149.7152862548828 68.15190124511719 148.74929809570312 77.12687683105469 C 150.47015380859375 78.33486938476562 151.09645080566406 80.7116470336914 154.8053436279297 85.1980972290039 C 150.0619659423828 90.51176452636719 155.0105743408203 95.1207275390625 150.96556091308594 105.15385437011719 C 152.8720245361328 105.93247985839844 153.59152221679688 109.37287902832031 155.7974090576172 112.96353149414062 C 152.4777374267578 116.18284606933594 158.00160217285156 121.93267059326172 154.41224670410156 126.3609619140625 C 152.53895568847656 132.0223846435547 151.32069396972656 133.16842651367188 147.51016235351562 134.01376342773438 C 141.84678649902344 131.30604553222656 128.3609161376953 121.97623443603516 129.31985473632812 117.56551361083984 C 124.60926818847656 118.60752868652344 122.57984924316406 113.2030029296875 128.26097106933594 110.50017547607422 C 122.88287353515625 108.16751098632812 124.33528900146484 104.41476440429688 133.49928283691406 107.26486206054688 C 136.46734619140625 105.75354766845703 133.40499877929688 92.7538833618164 132.80784606933594 89.11121368408203 C 139.4681396484375 87.44168853759766 138.88037109375 85.00300598144531 138.8426055908203 81.3299331665039 C 139.0724639892578 77.50342559814453 140.36416625976562 76.81353759765625 142.2879180908203 78.0908203125 C 145.4303436279297 72.02609252929688 142.56858825683594 70.5545883178711 139.6595458984375 67.75959777832031" stroke-width="0.0" fill="url(#shape_27_fill)"/>
    <path d="M -0.36046287417411804 -0.2740970849990845 C 4.714200496673584 0.3845823109149933 9.66809368133545 -0.5288029313087463 18.882734298706055 -0.9115911722183228 C 25.50816535949707 -1.6170709133148193 25.86713409423828 -0.8506519198417664 49.1751708984375 0.7096590995788574 C 44.69981002807617 25.790069580078125 28.22213363647461 24.789770126342773 27.645177841186523 24.337385177612305 C 52.266014099121094 14.585375785827637 60.7178840637207 14.895760536193848 62.580204010009766 54.92454147338867 C 38.337364196777344 56.891578674316406 26.434072494506836 57.09757614135742 18.841732025146484 50.82634735107422 C 15.600285530090332 39.37273025512695 11.359541893005371 38.289833068847656 9.991109848022461 33.61865234375 C 10.047953605651855 35.827232360839844 14.502391815185547 39.281639099121094 14.590876579284668 41.043704986572266 C 15.994370460510254 42.20792770385742 15.685738563537598 44.93714141845703 18.204294204711914 47.862586975097656 C 20.08255958557129 51.06951141357422 18.769140243530273 52.30547332763672 21.434480667114258 57.20258712768555 C 21.616714477539062 65.82268524169922 15.85031509399414 67.83136749267578 8.418726921081543 61.50291061401367 C 5.489205360412598 60.888519287109375 3.534069299697876 59.14118576049805 0.32112011313438416 59.43754196166992 C -0.3187254071235657 39.78612518310547 -0.32491937279701233 19.630496978759766 -0.36046287417411804 -0.2740970849990845" stroke-width="0.0" fill="url(#shape_28_fill)"/>
    <path d="M 299.0225524902344 197.18301391601562 C 297.9451599121094 199.48947143554688 300.25146484375 202.30140686035156 301.4552001953125 208.034423828125 C 299.9053039550781 214.02944946289062 325.940185546875 223.9633331298828 316.0039978027344 255.51817321777344 C 311.85418701171875 254.34521484375 310.63067626953125 255.9311065673828 304.303955078125 254.98667907714844 C 303.7225036621094 258.18792724609375 293.66253662109375 258.4634704589844 281.15966796875 256.0302429199219 C 278.07147216796875 224.5302276611328 284.6965026855469 219.99453735351562 299.0225524902344 197.18301391601562" stroke-width="0.0" fill="url(#shape_29_fill)"/>
    <path d="M 0.0032961133401840925 -0.11833228170871735 C 4.547511100769043 0.4449026584625244 9.718405723571777 -0.4130229651927948 14.671160697937012 0.10883191227912903 C 15.889838218688965 0.48166483640670776 16.6127872467041 3.569068670272827 16.497276306152344 7.9941253662109375 C 18.825986862182617 10.929133415222168 21.711746215820312 19.00428009033203 27.406307220458984 20.595487594604492 C 27.1805477142334 22.525043487548828 23.96263885498047 26.678316116333008 24.70921516418457 32.06722640991211 C 20.08311653137207 32.4583625793457 12.394830703735352 29.98255729675293 5.371431350708008 33.637996673583984 C 8.979859352111816 36.005516052246094 8.73884105682373 38.84818649291992 10.867903709411621 40.46953582763672 C 10.240504264831543 43.72132873535156 7.618551254272461 49.51899719238281 11.72675609588623 53.76869583129883 C 17.726566314697266 51.24300003051758 19.493080139160156 51.75126266479492 18.48764419555664 58.33547592163086 C 11.327066421508789 60.762210845947266 9.421812057495117 62.596771240234375 0.1856982707977295 61.4915771484375 C -0.42460134625434875 39.973533630371094 -0.3545946776866913 19.755708694458008 0.0032961133401840925 -0.11833228170871735" stroke-width="0.0" fill="url(#shape_30_fill)"/>
    <path d="M 549.0048217773438 70.60758209228516 C 546.2091064453125 77.87690734863281 576.621337890625 89.57310485839844 581.3934326171875 91.7260971069336 C 580.9287109375 92.85174560546875 577.3994750976562 93.3488540649414 577.192626953125 98.30481719970703 C 573.2802734375 100.71590423583984 572.0657958984375 99.82280731201172 569.6842651367188 100.09616088867188 C 567.6832275390625 94.99424743652344 546.1849365234375 97.703857421875 538.9229736328125 88.2655258178711 C 538.2047729492188 85.53977966308594 538.7055053710938 82.97459411621094 535.7801513671875 82.06663513183594 C 534.3208618164062 80.22750091552734 527.2081298828125 79.69549560546875 527.1965942382812 78.29723358154297 C 525.1774291992188 75.8034439086914 527.7516479492188 70.84529876708984 531.9558715820312 68.868408203125 C 538.9363403320312 66.9773178100586 542.6886596679688 71.59355163574219 549.0048217773438 70.60758209228516" stroke-width="0.0" fill="url(#shape_31_fill)"/>
    <path d="M 447.0316467285156 264.4217834472656 C 450.6510009765625 265.28802490234375 451.2794189453125 266.7421569824219 455.76556396484375 267.7695007324219 C 460.5113830566406 267.6551208496094 465.32232666015625 270.3759765625 469.9451904296875 273.09185791015625 C 470.4309997558594 275.6334533691406 471.828857421875 276.88812255859375 471.6768798828125 280.7622985839844 C 451.7175598144531 287.3401794433594 430.2748107910156 284.05633544921875 415.75018310546875 285.16851806640625 C 413.4420471191406 273.9000244140625 414.91229248046875 272.32684326171875 415.51324462890625 268.1481628417969 C 418.1885986328125 267.205322265625 417.759521484375 264.7984313964844 419.3595886230469 263.10150146484375 C 441.5504150390625 252.7106170654297 446.636474609375 252.5951690673828 447.0316467285156 264.4217834472656" stroke-width="0.0" fill="url(#shape_32_fill)"/>
    <path d="M 272.7182312011719 192.2986297607422 C 275.08380126953125 192.2683563232422 287.40155029296875 243.69033813476562 282.0653991699219 246.86573791503906 C 279.7206726074219 248.31069946289062 273.9868469238281 246.98492431640625 269.4569091796875 248.94216918945312 C 266.27642822265625 246.26608276367188 266.61944580078125 242.41600036621094 260.9939880371094 240.7313232421875 C 254.44497680664062 209.07554626464844 262.6166076660156 206.158447265625 272.7182312011719 192.2986297607422" stroke-width="0.0" fill="url(#shape_33_fill)"/>
    <path d="M 268.511474609375 410.7645263671875 C 263.36224365234375 428.0238037109375 264.7117919921875 430.64154052734375 267.9969177246094 440.3218688964844 C 262.5074768066406 440.8560485839844 260.68719482421875 446.43865966796875 258.4042663574219 447.862548828125 C 245.5466766357422 445.85369873046875 215.2056884765625 448.6651611328125 212.4914093017578 444.9593811035156 C 213.0231475830078 436.99578857421875 213.95974731445312 436.2222900390625 216.0342559814453 434.6363220214844 C 216.36697387695312 433.54754638671875 225.071044921875 433.7768249511719 226.7239532470703 430.722900390625 C 227.76910400390625 418.7033996582031 235.94056701660156 418.596923828125 268.511474609375 410.7645263671875" stroke-width="0.0" fill="url(#shape_34_fill)"/>
    <path d="M 105.57477569580078 69.69047546386719 C 110.03533172607422 69.69437408447266 111.0060043334961 79.0112075805664 112.7374267578125 85.5286865234375 C 117.7468032836914 86.09278106689453 116.65052795410156 110.26372528076172 118.1878890991211 110.68353271484375 C 116.73918151855469 112.57134246826172 110.59416198730469 114.38290405273438 106.92707061767578 124.838134765625 C 104.6466293334961 117.1370849609375 96.48933410644531 118.8512954711914 88.15089416503906 109.9282455444336 C 86.69063568115234 85.78233337402344 105.9656982421875 84.59423065185547 105.57477569580078 69.69047546386719" stroke-width="0.0" fill="url(#shape_35_fill)"/>
    <path d="M 451.22723388671875 178.45428466796875 C 453.82403564453125 176.02639770507812 456.1841125488281 177.89073181152344 455.359619140625 180.41888427734375 C 455.9914245605469 180.9586944580078 455.004150390625 185.5255126953125 456.2698669433594 186.11837768554688 C 456.04205322265625 188.57138061523438 459.2003173828125 194.06283569335938 459.0487976074219 204.52806091308594 C 459.3146667480469 208.5528564453125 451.5951843261719 209.52490234375 446.0122375488281 204.3455352783203 C 441.409423828125 207.425537109375 441.25482177734375 208.77294921875 432.8051452636719 210.920166015625 C 435.3495178222656 209.92202758789062 436.8561706542969 188.853759765625 437.84881591796875 177.28311157226562 C 440.5560302734375 179.2616729736328 442.6272277832031 182.07318115234375 446.6720275878906 181.07814025878906 C 447.8486328125 179.54464721679688 450.1235046386719 179.65345764160156 451.22723388671875 178.45428466796875" stroke-width="0.0" fill="url(#shape_36_fill)"/>
    <path d="M 557.5407104492188 84.4295425415039 C 561.186279296875 80.70158386230469 578.4750366210938 82.84651184082031 579.9774780273438 85.61483001708984 C 581.2470092773438 83.32833862304688 586.285400390625 85.44861602783203 587.6819458007812 88.58556365966797 C 597.2225341796875 103.26022338867188 588.5399169921875 110.49029541015625 574.3572998046875 100.5853500366211 C 573.7824096679688 99.53824615478516 552.7760620117188 97.32282257080078 546.3250732421875 85.84215545654297 C 538.4052124023438 86.0142822265625 538.00146484375 82.98774719238281 536.1572875976562 80.20604705810547 C 543.3046875 74.53953552246094 546.9972534179688 78.85810852050781 557.5407104492188 84.4295425415039" stroke-width="0.0" fill="url(#shape_37_fill)"/>
    <path d="M 251.78880310058594 207.26280212402344 C 265.6624755859375 213.33099365234375 261.3995361328125 236.85768127441406 260.1385803222656 247.639404296875 C 259.2763671875 254.4272003173828 251.10716247558594 254.8804168701172 249.28036499023438 257.2296447753906 C 234.5591583251953 237.55702209472656 241.3326873779297 215.67733764648438 251.78880310058594 207.26280212402344" stroke-width="0.0" fill="url(#shape_38_fill)"/>
    <path d="M 442.5520324707031 263.2105407714844 C 446.1605224609375 263.3236999511719 449.248046875 266.53009033203125 447.90191650390625 270.0710144042969 C 444.6689147949219 270.4041442871094 442.6730041503906 277.2929992675781 440.3483581542969 277.4237976074219 C 439.0489196777344 286.8633117675781 428.3662414550781 285.4087219238281 418.2593994140625 275.611083984375 C 414.4936218261719 276.7900390625 413.34136962890625 274.4405822753906 416.35394287109375 271.6370544433594 C 415.1424865722656 269.944091796875 419.3689880371094 262.35321044921875 425.3429870605469 258.5779724121094 C 426.9333190917969 257.6580810546875 439.6015625 257.46533203125 442.5520324707031 263.2105407714844" stroke-width="0.0" fill="url(#shape_39_fill)"/>
    <path d="M 407.6920471191406 409.8586730957031 C 408.6599426269531 409.9021301269531 416.7710876464844 419.093994140625 413.9754333496094 424.36358642578125 C 399.6030578613281 435.1630554199219 386.03948974609375 420.9495544433594 376.58148193359375 420.86767578125 C 371.0822448730469 417.9584045410156 371.2334899902344 416.5549011230469 372.70233154296875 410.45697021484375 C 374.9993591308594 400.8289794921875 392.7825927734375 404.3487243652344 407.6920471191406 409.8586730957031" stroke-width="0.0" fill="url(#shape_40_fill)"/>
    <path d="M 66.44767761230469 427.49334716796875 C 67.24346160888672 428.98895263671875 64.18211364746094 432.7850341796875 58.73098373413086 435.0331115722656 C 57.383522033691406 436.3367919921875 39.72530746459961 435.627197265625 31.84851837158203 442.9848327636719 C 29.386144638061523 443.6378479003906 27.722463607788086 444.11962890625 17.336345672607422 442.7018737792969 C 16.45090675354004 440.6512145996094 17.927387237548828 439.209228515625 17.363636016845703 437.7984313964844 C 35.72269821166992 427.19683837890625 53.383934020996094 428.0849609375 66.44767761230469 427.49334716796875" stroke-width="0.0" fill="url(#shape_41_fill)"/>
    <path d="M 278.29278564453125 381.0682678222656 C 284.6025695800781 381.2259216308594 297.88812255859375 381.267822265625 307.13067626953125 385.33197021484375 C 297.01617431640625 394.7127380371094 299.3190612792969 401.0744934082031 294.4751281738281 405.2297668457031 C 291.7547607421875 400.0557861328125 266.76361083984375 406.4267578125 259.0585632324219 408.197021484375 C 246.76417541503906 406.6481018066406 241.7036895751953 400.3432922363281 242.360107421875 383.7116394042969 C 260.7358093261719 380.0689392089844 267.1130676269531 381.7820129394531 278.29278564453125 381.0682678222656" stroke-width="0.0" fill="url(#shape_42_fill)"/>
    <path d="M 222.6936492919922 207.82705688476562 C 224.0999298095703 206.52346801757812 239.30909729003906 206.42535400390625 239.38702392578125 210.96051025390625 C 242.01271057128906 221.4833984375 244.86624145507812 243.2643280029297 254.7600860595703 269.3726501464844 C 251.4186248779297 274.47802734375 242.65835571289062 273.0141296386719 208.64991760253906 272.33282470703125 C 208.19735717773438 266.0926818847656 205.28875732421875 251.60731506347656 216.44808959960938 247.72718811035156 C 219.28433227539062 246.46249389648438 218.3052978515625 226.42636108398438 222.6936492919922 207.82705688476562" stroke-width="0.0" fill="url(#shape_43_fill)"/>
    <path d="M 483.45281982421875 396.16717529296875 C 486.7848205566406 399.8153076171875 485.7812805175781 400.9757080078125 483.46246337890625 400.99139404296875 C 471.41387939453125 407.2698669433594 451.1646423339844 406.8536376953125 450.26678466796875 407.6017150878906 C 448.1777038574219 404.4205017089844 451.65386962890625 396.1838073730469 453.64361572265625 396.52056884765625 C 465.1419982910156 393.1370849609375 471.502197265625 392.4165344238281 483.45281982421875 396.16717529296875" stroke-width="0.0" fill="url(#shape_44_fill)"/>
    <path d="M 45.73789596557617 408.0779113769531 C 45.37140655517578 408.7033996582031 35.78422546386719 411.78662109375 33.19448471069336 412.8018798828125 C 32.55113983154297 414.4283447265625 32.06089782714844 415.8284912109375 27.938098907470703 414.81329345703125 C 27.0739688873291 416.5882568359375 24.430177688598633 417.4710693359375 21.087322235107422 420.3517761230469 C 18.750898361206055 420.2402648925781 0.3937445878982544 417.36065673828125 -0.7403011322021484 420.50408935546875 C 1.97178053855896 419.4989318847656 -1.0115113258361816 411.2057189941406 0.9125092625617981 410.2063293457031 C 6.380555152893066 409.5777587890625 45.45631790161133 406.3587951660156 45.73789596557617 408.0779113769531" stroke-width="0.0" fill="url(#shape_45_fill)"/>
    <path d="M 452.2145690917969 174.38546752929688 C 453.8511962890625 174.98959350585938 464.67626953125 198.65757751464844 466.6849670410156 200.01739501953125 C 462.6675720214844 209.3599090576172 451.4471435546875 209.17959594726562 449.4617614746094 206.47398376464844 C 448.3150329589844 203.2596893310547 449.00604248046875 198.3192901611328 448.8523254394531 195.29837036132812 C 447.9607849121094 194.56446838378906 447.59075927734375 192.08811950683594 448.518310546875 188.00448608398438 C 450.9957275390625 186.64695739746094 450.52642822265625 182.83087158203125 452.2145690917969 174.38546752929688" stroke-width="0.0" fill="url(#shape_46_fill)"/>
    <path d="M 372.5926818847656 184.62010192871094 C 379.41851806640625 197.15232849121094 380.1423034667969 202.4131317138672 371.54022216796875 205.8673553466797 C 365.86480712890625 206.8210906982422 364.772216796875 204.8402862548828 361.64483642578125 206.1090545654297 C 339.6304016113281 211.85049438476562 335.87158203125 202.9651641845703 353.3631286621094 188.79299926757812 C 356.6833190917969 184.97909545898438 358.3750915527344 184.38905334472656 368.18304443359375 185.4783935546875 C 368.9825134277344 183.2965850830078 372.2882080078125 183.7936553955078 372.5926818847656 184.62010192871094" stroke-width="0.0" fill="url(#shape_47_fill)"/>
    <path d="M 472.5400085449219 264.07177734375 C 474.60430908203125 267.2588195800781 480.6297302246094 270.48809814453125 481.6259765625 284.1617431640625 C 465.31732177734375 287.304931640625 446.55029296875 287.3302307128906 444.4228210449219 284.9574890136719 C 439.3489074707031 282.17767333984375 440.0052795410156 276.960205078125 441.09527587890625 276.3846435546875 C 448.7996826171875 266.6328430175781 455.8466796875 262.2232360839844 472.5400085449219 264.07177734375" stroke-width="0.0" fill="url(#shape_48_fill)"/>
    <path d="M 176.93614196777344 116.76355743408203 C 177.94540405273438 115.46830749511719 181.72525024414062 116.14419555664062 182.72315979003906 117.27639770507812 C 184.67544555664062 120.27069091796875 183.85049438476562 122.3448257446289 184.80516052246094 123.02161407470703 C 179.5635986328125 127.77864837646484 185.54299926757812 136.77005004882812 182.71653747558594 139.6471405029297 C 181.8922576904297 146.8251495361328 172.83966064453125 146.2252197265625 171.97647094726562 146.87989807128906 C 171.95587158203125 127.0306625366211 170.89332580566406 124.53245544433594 176.93614196777344 116.76355743408203" stroke-width="0.0" fill="url(#shape_49_fill)"/>
    <path d="M 333.3450927734375 427.002197265625 C 336.37139892578125 429.44671630859375 341.84271240234375 428.8128967285156 343.35052490234375 431.73382568359375 C 346.3692626953125 435.579833984375 345.158447265625 437.21929931640625 342.38336181640625 437.55853271484375 C 342.7500305175781 447.35211181640625 325.3732604980469 448.9145202636719 323.8077697753906 444.6056213378906 C 321.50958251953125 436.222412109375 321.57452392578125 432.6014404296875 306.44305419921875 429.8898620605469 C 319.62701416015625 426.1169738769531 327.8003234863281 429.668701171875 333.3450927734375 427.002197265625" stroke-width="0.0" fill="url(#shape_50_fill)"/>
    <path d="M 310.6509704589844 388.6606140136719 C 305.75164794921875 395.4215393066406 293.073974609375 396.5253601074219 291.5419921875 399.103759765625 C 279.10491943359375 397.4692077636719 277.8911437988281 399.2018127441406 271.3039245605469 402.4246826171875 C 271.1807556152344 401.6043701171875 269.87213134765625 398.93353271484375 271.5428466796875 397.4967041015625 C 270.1997375488281 395.5451354980469 273.29241943359375 388.36749267578125 279.92315673828125 388.3752746582031 C 284.5650939941406 386.6911315917969 288.6451721191406 391.263427734375 310.6509704589844 388.6606140136719" stroke-width="0.0" fill="url(#shape_51_fill)"/>
    <path d="M 268.970458984375 184.79617309570312 C 276.34442138671875 194.6680908203125 277.30767822265625 207.82186889648438 280.324951171875 217.6886749267578 C 271.5383605957031 210.43072509765625 269.48992919921875 208.3447723388672 260.87890625 216.1602325439453 C 257.638427734375 208.2325897216797 263.3614807128906 195.87432861328125 266.77734375 195.2746124267578 C 269.7294921875 194.29983520507812 268.90533447265625 191.73558044433594 268.970458984375 184.79617309570312" stroke-width="0.0" fill="url(#shape_52_fill)"/>
    <path d="M 218.38400268554688 409.4524841308594 C 215.89718627929688 410.9169616699219 215.70223999023438 413.30859375 214.28501892089844 414.5617980957031 C 214.36630249023438 422.72894287109375 193.47206115722656 425.0696105957031 187.60845947265625 415.55975341796875 C 186.3099365234375 404.68768310546875 207.46023559570312 399.8077392578125 218.38400268554688 409.4524841308594" stroke-width="0.0" fill="url(#shape_53_fill)"/>
    <path d="M 205.96463012695312 424.5040588378906 C 205.47825622558594 425.2459716796875 206.1495361328125 428.29119873046875 204.56150817871094 429.08416748046875 C 194.1725616455078 429.6651306152344 178.81771850585938 430.0978088378906 178.03330993652344 432.6598815917969 C 176.8626708984375 430.9441833496094 178.41958618164062 425.9452209472656 177.06776428222656 423.9070739746094 C 187.78334045410156 418.1815185546875 192.44644165039062 423.57489013671875 205.96463012695312 424.5040588378906" stroke-width="0.0" fill="url(#shape_54_fill)"/>
    <path d="M 268.7583923339844 247.6850128173828 C 275.4314880371094 245.0855255126953 276.62261962890625 247.97329711914062 280.2070617675781 247.59390258789062 C 280.758056640625 251.0095672607422 280.04119873046875 252.40367126464844 287.9590759277344 265.2812194824219 C 263.457763671875 258.05780029296875 262.9417724609375 257.362060546875 250.2991943359375 265.8495788574219 C 254.84071350097656 248.1736602783203 255.89224243164062 247.24085998535156 258.73150634765625 245.12142944335938 C 260.3192138671875 239.23971557617188 264.55914306640625 239.781982421875 268.7583923339844 247.6850128173828" stroke-width="0.0" fill="url(#shape_55_fill)"/>
    <path d="M 280.61529541015625 344.50341796875 C 281.2785339355469 362.7459411621094 284.35931396484375 363.3323059082031 284.93365478515625 368.0308837890625 C 285.47796630859375 369.22998046875 286.0475769042969 371.7987060546875 285.6024169921875 381.2113342285156 C 274.6210632324219 379.3248596191406 260.630859375 381.2508239746094 239.37391662597656 383.8382263183594 C 234.85072326660156 382.29718017578125 233.78025817871094 368.07415771484375 233.99380493164062 347.59967041015625 C 242.14794921875 344.07952880859375 251.15272521972656 342.9912109375 280.61529541015625 344.50341796875" stroke-width="0.0" fill="url(#shape_56_fill)"/>
    <path d="M 408.0873718261719 272.1971435546875 C 415.064453125 269.4291687011719 418.0260925292969 273.93902587890625 423.15264892578125 281.7838134765625 C 415.90948486328125 283.2088928222656 411.1440734863281 276.4673156738281 377.8644104003906 273.80908203125 C 377.9577941894531 264.5549011230469 385.8957214355469 263.6852111816406 408.0873718261719 272.1971435546875" stroke-width="0.0" fill="url(#shape_57_fill)"/>
    <path d="M 632.0828247070312 351.7436218261719 C 632.9822998046875 355.2958068847656 661.3280029296875 354.75018310546875 668.5618286132812 354.7965087890625 C 668.473388671875 358.35150146484375 663.0071411132812 360.3836975097656 660.1254272460938 357.0274658203125 C 647.0994873046875 355.77484130859375 635.0970458984375 359.4408874511719 631.602783203125 360.1557922363281 C 627.84619140625 357.15594482421875 629.4380493164062 353.6271057128906 632.0828247070312 351.7436218261719" stroke-width="0.0" fill="url(#shape_58_fill)"/>
    <path d="M 341.343505859375 384.83416748046875 C 342.81854248046875 390.1762390136719 358.1421813964844 391.681640625 359.1792297363281 394.6513366699219 C 356.8659973144531 398.6288146972656 339.78070068359375 401.2078552246094 338.2751770019531 399.5565185546875 C 335.1358642578125 399.6240234375 333.0671691894531 398.78436279296875 331.8430480957031 396.5372619628906 C 331.9902648925781 394.93994140625 330.7474365234375 393.4737243652344 332.2930603027344 390.5895080566406 C 332.9151306152344 384.9437561035156 336.06317138671875 383.9580078125 341.343505859375 384.83416748046875" stroke-width="0.0" fill="url(#shape_59_fill)"/>
    <path d="M 459.22967529296875 363.9867858886719 C 462.448974609375 363.9094543457031 473.01171875 370.860595703125 473.1675109863281 374.4217529296875 C 471.80755615234375 376.245361328125 470.3363037109375 376.8730163574219 463.10662841796875 375.8273620605469 C 458.3786926269531 377.3564758300781 457.55499267578125 376.9585266113281 452.6966247558594 370.90948486328125 C 453.38818359375 370.2124938964844 459.9543762207031 368.1234436035156 459.22967529296875 363.9867858886719" stroke-width="0.0" fill="url(#shape_60_fill)"/>
    <path d="M 429.5858459472656 432.54949951171875 C 440.015625 434.2975158691406 442.4320068359375 436.5997314453125 442.097412109375 438.59466552734375 C 440.2909240722656 440.73193359375 428.34600830078125 439.29296875 425.6954650878906 442.2320251464844 C 422.4750061035156 438.8970031738281 423.8406982421875 434.70391845703125 411.0566711425781 424.75537109375 C 427.0758361816406 429.2549743652344 429.6304931640625 432.31817626953125 429.5858459472656 432.54949951171875" stroke-width="0.0" fill="url(#shape_61_fill)"/>
    <path d="M 185.41192626953125 411.4490051269531 C 186.26870727539062 413.93170166015625 185.00442504882812 414.7928771972656 186.91757202148438 417.6214599609375 C 184.8716278076172 420.20489501953125 183.39027404785156 419.50439453125 182.51034545898438 419.746826171875 C 180.8204345703125 421.6418762207031 174.45579528808594 420.1705627441406 171.51039123535156 420.08880615234375 C 169.57586669921875 417.7168884277344 169.7757568359375 415.6278076171875 175.0762939453125 412.2557067871094 C 176.99758911132812 413.02679443359375 181.4130401611328 410.5050048828125 185.41192626953125 411.4490051269531" stroke-width="0.0" fill="url(#shape_62_fill)"/>
    <path d="M 332.2266540527344 418.7220764160156 C 334.4364929199219 425.7832946777344 329.897705078125 427.988037109375 327.247802734375 425.7594299316406 C 324.54437255859375 427.7552795410156 322.9791564941406 426.7076110839844 321.19561767578125 427.469970703125 C 318.87091064453125 425.99884033203125 319.8968505859375 419.96612548828125 317.58209228515625 418.49169921875 C 319.0046691894531 420.1535949707031 325.93572998046875 418.70849609375 332.2266540527344 418.7220764160156" stroke-width="0.0" fill="url(#shape_63_fill)"/>
    <path d="M 55.5057487487793 273.84686279296875 C 56.57551574707031 269.1910095214844 65.4013442993164 270.0678405761719 64.96512603759766 278.3807067871094 C 59.1329231262207 279.5021057128906 54.0877799987793 272.412353515625 48.49999237060547 276.2791442871094 C 50.691532135009766 273.3607482910156 52.50373077392578 272.9569091796875 55.5057487487793 273.84686279296875" stroke-width="0.0" fill="url(#shape_64_fill)"/>
    <path d="M 304.7256774902344 439.9454650878906 C 304.5963134765625 437.8348388671875 306.5697937011719 436.729736328125 313.60150146484375 437.3154602050781 C 314.3304443359375 439.6906433105469 313.19073486328125 441.4059143066406 311.2384948730469 441.797607421875 C 307.97247314453125 445.2367858886719 306.48651123046875 444.2496337890625 305.34130859375 444.0641174316406 C 302.5216064453125 441.6986999511719 303.2494812011719 440.328369140625 304.7256774902344 439.9454650878906" stroke-width="0.0" fill="url(#shape_65_fill)"/>
    <path d="M -0.511646568775177 -0.43358349800109863 C 224.84388732910156 -0.16569165885448456 444.2170715332031 0.3241725265979767 672.63427734375 0.45264244079589844 C 673.4412841796875 155.18971252441406 674.7222290039062 296.15130615234375 673.708251953125 445.48211669921875 C 450.2663269042969 446.3284912109375 230.384033203125 446.28466796875 0.48510491847991943 445.4021911621094 C 0.2018093466758728 297.1766052246094 -0.17367339134216309 149.29043579101562 -0.511646568775177 -0.43358349800109863" stroke-width="0.0" fill="url(#shape_66_fill)"/>
    <path d="M -1.0826970338821411 -0.1951824128627777 C 222.6397705078125 -0.1179133802652359 442.9975891113281 0.36681047081947327 672.601806640625 -0.2229091227054596 C 673.5210571289062 155.8722686767578 674.805419921875 295.6179504394531 673.37939453125 445.3926696777344 C 450.5664978027344 446.4019470214844 230.4783477783203 446.3279724121094 0.5553730130195618 445.3185729980469 C 0.09090681374073029 297.39306640625 -0.27300527691841125 149.03541564941406 -1.0826970338821411 -0.1951824128627777" stroke-width="0.0" fill="url(#shape_67_fill)"/>
    <path d="M -0.6995423436164856 -0.2495059072971344 C 223.22164916992188 -0.16771511733531952 441.8663330078125 0.49957284331321716 672.6760864257812 -0.29084235429763794 C 673.552978515625 155.53787231445312 674.7967529296875 295.5182189941406 673.3731689453125 445.3932189941406 C 450.5635681152344 446.4028625488281 230.49684143066406 446.3291931152344 1.1157186031341553 445.2999267578125 C 0.4986748695373535 295.64288330078125 0.06871472299098969 148.49838256835938 -0.6995423436164856 -0.2495059072971344" stroke-width="0.0" fill="url(#shape_68_fill)"/>
  </g>
</svg>
