<?xml version="1.0" ?>
<svg xmlns="http://www.w3.org/2000/svg" version="1.1" width="674" height="446">
  <defs>
    <radialGradient id="shape_0_fill" cx="0.5345890939412555" cy="0.7407637112878364" r="0.27862501285903885">
      <stop offset="0.7701467" stop-color="rgb(167, 183, 0)" stop-opacity="0.8563653230667114"/>
      <stop offset="1.0" stop-color="rgb(52, 46, 0)" stop-opacity="1.0"/>
    </radialGradient>
    <radialGradient id="shape_1_fill" cx="0.5361166481448211" cy="0.7443510320689112" r="0.2062335141688497">
      <stop offset="0.5425573" stop-color="rgb(78, 80, 67)" stop-opacity="0.8103466629981995"/>
      <stop offset="1.0" stop-color="rgb(29, 10, 0)" stop-opacity="0.6268620491027832"/>
    </radialGradient>
    <radialGradient id="shape_2_fill" cx="0.09792284866468842" cy="0.7376672719091578" r="0.22062588021026522">
      <stop offset="0.0011349601" stop-color="rgb(33, 93, 181)" stop-opacity="0.9730727076530457"/>
      <stop offset="0.9973369" stop-color="rgb(9, 107, 255)" stop-opacity="0.9299957752227783"/>
    </radialGradient>
    <radialGradient id="shape_3_fill" cx="0.27667942669695844" cy="0.21572788734607098" r="0.12878738312763702">
      <stop offset="0.39422405" stop-color="rgb(142, 199, 8)" stop-opacity="0.8079200387001038"/>
      <stop offset="1.0" stop-color="rgb(39, 41, 0)" stop-opacity="0.9509388208389282"/>
    </radialGradient>
    <radialGradient id="shape_4_fill" cx="0.1543026706231454" cy="0.9977578475336323" r="0.10288926755639141">
      <stop offset="0.0" stop-color="rgb(81, 79, 86)" stop-opacity="1.0"/>
      <stop offset="1.0" stop-color="rgb(77, 69, 84)" stop-opacity="0.898356556892395"/>
    </radialGradient>
    <radialGradient id="shape_5_fill" cx="0.14807964290992442" cy="0.23997249517740155" r="0.11810664960821587">
      <stop offset="0.0" stop-color="rgb(255, 255, 255)" stop-opacity="0.6465655565261841"/>
      <stop offset="0.5626593" stop-color="rgb(255, 255, 255)" stop-opacity="0.5925809144973755"/>
    </radialGradient>
    <radialGradient id="shape_6_fill" cx="0.18397626112759644" cy="0.9977578475336323" r="0.0754974885934892">
      <stop offset="0.0" stop-color="rgb(93, 90, 94)" stop-opacity="1.0"/>
      <stop offset="1.0" stop-color="rgb(145, 131, 133)" stop-opacity="0.9274870753288269"/>
    </radialGradient>
    <radialGradient id="shape_7_fill" cx="0.2893175074183976" cy="0.05829596412556054" r="0.08666390552011372">
      <stop offset="0.0" stop-color="rgb(55, 66, 29)" stop-opacity="1.0"/>
      <stop offset="1.0" stop-color="rgb(110, 127, 43)" stop-opacity="0.5466450452804565"/>
    </radialGradient>
    <radialGradient id="shape_8_fill" cx="0.3382789091115889" cy="0.9439461883408071" r="0.06756690277190167">
      <stop offset="0.0" stop-color="rgb(91, 124, 45)" stop-opacity="1.0"/>
      <stop offset="1.0" stop-color="rgb(123, 181, 63)" stop-opacity="0.717414379119873"/>
    </radialGradient>
    <radialGradient id="shape_9_fill" cx="0.30712166172106825" cy="0.9977578475336323" r="0.0730758406641929">
      <stop offset="0.0" stop-color="rgb(38, 48, 20)" stop-opacity="1.0"/>
      <stop offset="1.0" stop-color="rgb(31, 32, 46)" stop-opacity="1.0"/>
    </radialGradient>
    <radialGradient id="shape_10_fill" cx="0.3056379821958457" cy="0.9977578475336323" r="0.06792919147615971">
      <stop offset="0.0" stop-color="rgb(39, 49, 21)" stop-opacity="1.0"/>
      <stop offset="1.0" stop-color="rgb(41, 29, 0)" stop-opacity="0.708109438419342"/>
    </radialGradient>
    <radialGradient id="shape_11_fill" cx="0.21810089020771514" cy="0.968609865470852" r="0.06792919147615971">
      <stop offset="0.0" stop-color="rgb(138, 135, 129)" stop-opacity="1.0"/>
      <stop offset="1.0" stop-color="rgb(167, 136, 109)" stop-opacity="0.4914696514606476"/>
    </radialGradient>
    <radialGradient id="shape_12_fill" cx="0.29080118694362017" cy="0.9977578475336323" r="0.07480746985189285">
      <stop offset="0.0" stop-color="rgb(22, 25, 13)" stop-opacity="1.0"/>
      <stop offset="1.0" stop-color="rgb(35, 38, 3)" stop-opacity="0.9974759221076965"/>
    </radialGradient>
    <radialGradient id="shape_13_fill" cx="0.327893175074184" cy="0.8923766816143498" r="0.06900465877544279">
      <stop offset="0.0" stop-color="rgb(89, 117, 50)" stop-opacity="1.0"/>
      <stop offset="1.0" stop-color="rgb(112, 148, 22)" stop-opacity="0.7315106391906738"/>
    </radialGradient>
    <radialGradient id="shape_14_fill" cx="0.142433234421365" cy="0.9977578475336323" r="0.06617211022079875">
      <stop offset="0.0" stop-color="rgb(155, 150, 153)" stop-opacity="1.0"/>
      <stop offset="1.0" stop-color="rgb(255, 238, 230)" stop-opacity="0.15474596619606018"/>
    </radialGradient>
    <radialGradient id="shape_15_fill" cx="0.31008902077151335" cy="0.9977578475336323" r="0.06683642786405207">
      <stop offset="0.0" stop-color="rgb(43, 55, 23)" stop-opacity="1.0"/>
      <stop offset="1.0" stop-color="rgb(57, 67, 17)" stop-opacity="0.946577787399292"/>
    </radialGradient>
    <radialGradient id="shape_16_fill" cx="0.27299703264094954" cy="0.9977578475336323" r="0.08110449363640579">
      <stop offset="0.0" stop-color="rgb(31, 35, 19)" stop-opacity="1.0"/>
      <stop offset="1.0" stop-color="rgb(32, 31, 0)" stop-opacity="0.9774042367935181"/>
    </radialGradient>
    <radialGradient id="shape_17_fill" cx="0.2893175074183976" cy="0.9977578475336323" r="0.07513486030193747">
      <stop offset="0.0" stop-color="rgb(22, 23, 13)" stop-opacity="1.0"/>
      <stop offset="1.0" stop-color="rgb(18, 14, 0)" stop-opacity="0.8351252675056458"/>
    </radialGradient>
    <radialGradient id="shape_18_fill" cx="0.3293768545994065" cy="0.7556053811659192" r="0.06617211022079875">
      <stop offset="0.0" stop-color="rgb(83, 108, 65)" stop-opacity="1.0"/>
      <stop offset="1.0" stop-color="rgb(111, 137, 60)" stop-opacity="0.9725483059883118"/>
    </radialGradient>
    <radialGradient id="shape_19_fill" cx="0.3516320474777448" cy="0.9977578475336323" r="0.06617211022079875">
      <stop offset="0.0" stop-color="rgb(95, 135, 39)" stop-opacity="1.0"/>
      <stop offset="1.0" stop-color="rgb(144, 210, 7)" stop-opacity="0.7700442671775818"/>
    </radialGradient>
    <radialGradient id="shape_20_fill" cx="0.0830860534124629" cy="0.9977578475336323" r="0.06792919147615971">
      <stop offset="0.0" stop-color="rgb(49, 52, 66)" stop-opacity="1.0"/>
      <stop offset="1.0" stop-color="rgb(13, 8, 49)" stop-opacity="0.39615577459335327"/>
    </radialGradient>
    <radialGradient id="shape_21_fill" cx="0.29821958456973297" cy="0.9977578475336323" r="0.06792919147615971">
      <stop offset="0.0" stop-color="rgb(33, 40, 17)" stop-opacity="1.0"/>
      <stop offset="1.0" stop-color="rgb(38, 52, 0)" stop-opacity="0.663635790348053"/>
    </radialGradient>
    <radialGradient id="shape_22_fill" cx="0.35633401842428597" cy="0.443731778405707" r="0.06594557719697584">
      <stop offset="0.51195455" stop-color="rgb(144, 178, 0)" stop-opacity="0.8824207186698914"/>
      <stop offset="0.40156066" stop-color="rgb(153, 190, 37)" stop-opacity="0.9121100902557373"/>
    </radialGradient>
    <radialGradient id="shape_23_fill" cx="0.6454005934718101" cy="0.1412556053811659" r="0.06617211022079875">
      <stop offset="0.0" stop-color="rgb(46, 38, 13)" stop-opacity="1.0"/>
      <stop offset="1.0" stop-color="rgb(51, 30, 0)" stop-opacity="0.8687140345573425"/>
    </radialGradient>
    <radialGradient id="shape_24_fill" cx="0.24925732258873098" cy="0.48430544592339897" r="0.06617138010811735">
      <stop offset="0.0" stop-color="rgb(201, 209, 206)" stop-opacity="1.0"/>
      <stop offset="0.9766002" stop-color="rgb(255, 255, 255)" stop-opacity="0.616873562335968"/>
    </radialGradient>
    <radialGradient id="shape_25_fill" cx="0.6320474777448071" cy="0.9977578475336323" r="0.06617211022079875">
      <stop offset="0.0" stop-color="rgb(35, 28, 8)" stop-opacity="1.0"/>
      <stop offset="1.0" stop-color="rgb(38, 14, 0)" stop-opacity="0.5803269743919373"/>
    </radialGradient>
    <radialGradient id="shape_26_fill" cx="0.15414520399506793" cy="0.3207086811151205" r="0.06604698362265567">
      <stop offset="0.11989566" stop-color="rgb(198, 211, 155)" stop-opacity="1.0"/>
      <stop offset="0.58338004" stop-color="rgb(115, 114, 253)" stop-opacity="0.0"/>
    </radialGradient>
    <radialGradient id="shape_27_fill" cx="0.15410647972401242" cy="0.3208032787648017" r="0.06604505929465818">
      <stop offset="0.0" stop-color="rgb(192, 205, 0)" stop-opacity="1.0"/>
      <stop offset="0.49375948" stop-color="rgb(78, 73, 48)" stop-opacity="0.6076897382736206"/>
    </radialGradient>
    <radialGradient id="shape_28_fill" cx="0.03749961456842168" cy="0.017666663824175505" r="0.06832080354322666">
      <stop offset="0.15864615" stop-color="rgb(2, 27, 127)" stop-opacity="0.990445613861084"/>
      <stop offset="0.5929214" stop-color="rgb(4, 27, 152)" stop-opacity="0.7943636178970337"/>
    </radialGradient>
    <radialGradient id="shape_29_fill" cx="0.33976258863681147" cy="0.6659192825112108" r="0.06617211022079875">
      <stop offset="0.0" stop-color="rgb(90, 117, 55)" stop-opacity="1.0"/>
      <stop offset="1.0" stop-color="rgb(114, 147, 30)" stop-opacity="0.8890942931175232"/>
    </radialGradient>
    <radialGradient id="shape_30_fill" cx="0.039848856826918064" cy="0.017152399225619876" r="0.06831529090949265">
      <stop offset="0.29031885" stop-color="rgb(47, 73, 68)" stop-opacity="0.999755322933197"/>
      <stop offset="0.9261459" stop-color="rgb(52, 62, 26)" stop-opacity="0.6089187860488892"/>
    </radialGradient>
    <radialGradient id="shape_31_fill" cx="0.12314540059347182" cy="0.9977578475336323" r="0.06617211022079875">
      <stop offset="0.0" stop-color="rgb(95, 103, 98)" stop-opacity="1.0"/>
      <stop offset="1.0" stop-color="rgb(141, 132, 121)" stop-opacity="0.7562475204467773"/>
    </radialGradient>
    <radialGradient id="shape_32_fill" cx="0.4035608308605341" cy="0.984304932735426" r="0.06617211022079875">
      <stop offset="0.0" stop-color="rgb(126, 155, 63)" stop-opacity="1.0"/>
      <stop offset="1.0" stop-color="rgb(145, 133, 30)" stop-opacity="0.9680720567703247"/>
    </radialGradient>
    <radialGradient id="shape_33_fill" cx="0.3249258160237389" cy="0.6053811659192825" r="0.06617211022079875">
      <stop offset="0.0" stop-color="rgb(93, 124, 71)" stop-opacity="1.0"/>
      <stop offset="1.0" stop-color="rgb(123, 154, 49)" stop-opacity="0.9651111960411072"/>
    </radialGradient>
    <radialGradient id="shape_34_fill" cx="0.6468842729970327" cy="0.531390134529148" r="0.06617211022079875">
      <stop offset="0.0" stop-color="rgb(54, 47, 24)" stop-opacity="1.0"/>
      <stop offset="1.0" stop-color="rgb(55, 21, 18)" stop-opacity="0.4557654559612274"/>
    </radialGradient>
    <radialGradient id="shape_35_fill" cx="0.14596359524599523" cy="0.2388255200578493" r="0.06862162694732937">
      <stop offset="0.04715413" stop-color="rgb(191, 255, 71)" stop-opacity="0.1701849400997162"/>
      <stop offset="0.57656837" stop-color="rgb(120, 100, 66)" stop-opacity="0.7425823211669922"/>
    </radialGradient>
    <radialGradient id="shape_36_fill" cx="0.2878338278931751" cy="0.9977578475336323" r="0.06617211022079875">
      <stop offset="0.0" stop-color="rgb(80, 96, 53)" stop-opacity="1.0"/>
      <stop offset="1.0" stop-color="rgb(43, 45, 3)" stop-opacity="0.8070565462112427"/>
    </radialGradient>
    <radialGradient id="shape_37_fill" cx="0.129080118694362" cy="0.9977578475336323" r="0.06617211022079875">
      <stop offset="0.0" stop-color="rgb(87, 97, 81)" stop-opacity="1.0"/>
      <stop offset="1.0" stop-color="rgb(68, 79, 55)" stop-opacity="0.5996224284172058"/>
    </radialGradient>
    <radialGradient id="shape_38_fill" cx="0.33892324204260943" cy="0.5607740119968294" r="0.0666785763703751">
      <stop offset="0.7501433" stop-color="rgb(84, 116, 18)" stop-opacity="0.9010240435600281"/>
      <stop offset="0.6022492" stop-color="rgb(172, 255, 78)" stop-opacity="0.8731032013893127"/>
    </radialGradient>
    <radialGradient id="shape_39_fill" cx="0.40059347181008903" cy="0.9641255605381166" r="0.06617211022079875">
      <stop offset="0.0" stop-color="rgb(138, 168, 60)" stop-opacity="1.0"/>
      <stop offset="1.0" stop-color="rgb(221, 255, 82)" stop-opacity="1.0"/>
    </radialGradient>
    <radialGradient id="shape_40_fill" cx="0.6139558967567693" cy="0.879139168914658" r="0.06917120370383786">
      <stop offset="0.33864495" stop-color="rgb(159, 148, 133)" stop-opacity="0.5504377484321594"/>
      <stop offset="0.5070269" stop-color="rgb(0, 11, 71)" stop-opacity="1.0"/>
    </radialGradient>
    <radialGradient id="shape_41_fill" cx="0.6454005934718101" cy="0.08744394618834081" r="0.06617211022079875">
      <stop offset="0.0" stop-color="rgb(58, 48, 21)" stop-opacity="1.0"/>
      <stop offset="1.0" stop-color="rgb(90, 63, 16)" stop-opacity="0.9931958317756653"/>
    </radialGradient>
    <radialGradient id="shape_42_fill" cx="0.5845697329376854" cy="0.6188340807174888" r="0.06617211022079875">
      <stop offset="0.0" stop-color="rgb(62, 59, 56)" stop-opacity="1.0"/>
      <stop offset="1.0" stop-color="rgb(33, 28, 79)" stop-opacity="0.5974964499473572"/>
    </radialGradient>
    <radialGradient id="shape_43_fill" cx="0.35553682593280556" cy="0.5028101489148332" r="0.06886237735918084">
      <stop offset="0.27308872" stop-color="rgb(125, 169, 51)" stop-opacity="0.9316868185997009"/>
      <stop offset="0.5566405" stop-color="rgb(207, 255, 27)" stop-opacity="0.8535107970237732"/>
    </radialGradient>
    <radialGradient id="shape_44_fill" cx="0.5934718100890207" cy="0.9977578475336323" r="0.06617211022079875">
      <stop offset="0.0" stop-color="rgb(89, 61, 18)" stop-opacity="1.0"/>
      <stop offset="1.0" stop-color="rgb(164, 83, 0)" stop-opacity="0.7632592916488647"/>
    </radialGradient>
    <radialGradient id="shape_45_fill" cx="0.612759643916914" cy="0.04035874439461883" r="0.06617211022079875">
      <stop offset="0.0" stop-color="rgb(157, 136, 123)" stop-opacity="1.0"/>
      <stop offset="1.0" stop-color="rgb(255, 228, 207)" stop-opacity="1.0"/>
    </radialGradient>
    <radialGradient id="shape_46_fill" cx="0.28635014836795253" cy="0.9977578475336323" r="0.06617211022079875">
      <stop offset="0.0" stop-color="rgb(82, 99, 55)" stop-opacity="1.0"/>
      <stop offset="1.0" stop-color="rgb(95, 112, 26)" stop-opacity="0.5655311346054077"/>
    </radialGradient>
    <radialGradient id="shape_47_fill" cx="0.28635014836795253" cy="0.8183856502242153" r="0.06617211022079875">
      <stop offset="0.0" stop-color="rgb(166, 189, 197)" stop-opacity="1.0"/>
      <stop offset="1.0" stop-color="rgb(255, 255, 255)" stop-opacity="0.46084585785865784"/>
    </radialGradient>
    <radialGradient id="shape_48_fill" cx="0.40801186943620177" cy="0.9977578475336323" r="0.06617211022079875">
      <stop offset="0.0" stop-color="rgb(107, 135, 68)" stop-opacity="1.0"/>
      <stop offset="1.0" stop-color="rgb(131, 148, 54)" stop-opacity="1.0"/>
    </radialGradient>
    <radialGradient id="shape_49_fill" cx="0.19287833827893175" cy="0.3991031390134529" r="0.06617211022079875">
      <stop offset="0.0" stop-color="rgb(92, 100, 54)" stop-opacity="1.0"/>
      <stop offset="1.0" stop-color="rgb(65, 43, 3)" stop-opacity="0.525989294052124"/>
    </radialGradient>
    <radialGradient id="shape_50_fill" cx="0.6439169139465876" cy="0.7376681614349776" r="0.06617211022079875">
      <stop offset="0.0" stop-color="rgb(65, 56, 25)" stop-opacity="1.0"/>
      <stop offset="1.0" stop-color="rgb(153, 196, 97)" stop-opacity="0.44810640811920166"/>
    </radialGradient>
    <radialGradient id="shape_51_fill" cx="0.5845697329376854" cy="0.6322869955156951" r="0.06617211022079875">
      <stop offset="0.0" stop-color="rgb(75, 68, 60)" stop-opacity="1.0"/>
      <stop offset="1.0" stop-color="rgb(140, 110, 88)" stop-opacity="0.7225707769393921"/>
    </radialGradient>
    <radialGradient id="shape_52_fill" cx="0.2997032640949555" cy="0.6031390134529148" r="0.06617211022079875">
      <stop offset="0.0" stop-color="rgb(107, 158, 118)" stop-opacity="1.0"/>
      <stop offset="1.0" stop-color="rgb(188, 255, 250)" stop-opacity="0.5343632102012634"/>
    </radialGradient>
    <radialGradient id="shape_53_fill" cx="0.6097922848664689" cy="0.45067264573991034" r="0.06617211022079875">
      <stop offset="0.0" stop-color="rgb(38, 39, 27)" stop-opacity="1.0"/>
      <stop offset="1.0" stop-color="rgb(18, 13, 42)" stop-opacity="0.3821263909339905"/>
    </radialGradient>
    <radialGradient id="shape_54_fill" cx="0.6335311572700296" cy="0.426009002822397" r="0.06617211022079875">
      <stop offset="0.0" stop-color="rgb(67, 49, 20)" stop-opacity="1.0"/>
      <stop offset="1.0" stop-color="rgb(131, 75, 16)" stop-opacity="0.7124759554862976"/>
    </radialGradient>
    <radialGradient id="shape_55_fill" cx="0.3707168533823257" cy="0.5988430827187851" r="0.066001377049115">
      <stop offset="0.43605903" stop-color="rgb(239, 255, 52)" stop-opacity="0.9030808210372925"/>
      <stop offset="0.16089174" stop-color="rgb(199, 255, 0)" stop-opacity="0.7417821884155273"/>
    </radialGradient>
    <radialGradient id="shape_56_fill" cx="0.5489614243323442" cy="0.600896860986547" r="0.06617211022079875">
      <stop offset="0.0" stop-color="rgb(50, 62, 80)" stop-opacity="1.0"/>
      <stop offset="1.0" stop-color="rgb(27, 73, 220)" stop-opacity="0.46818307042121887"/>
    </radialGradient>
    <radialGradient id="shape_57_fill" cx="0.4094955489614243" cy="0.9035874439461884" r="0.06617211022079875">
      <stop offset="0.0" stop-color="rgb(111, 144, 47)" stop-opacity="1.0"/>
      <stop offset="1.0" stop-color="rgb(165, 221, 7)" stop-opacity="0.6495773196220398"/>
    </radialGradient>
    <radialGradient id="shape_58_fill" cx="0.5281899109792285" cy="0.9977578475336323" r="0.06617211022079875">
      <stop offset="0.0" stop-color="rgb(50, 43, 14)" stop-opacity="1.0"/>
      <stop offset="1.0" stop-color="rgb(72, 52, 3)" stop-opacity="1.0"/>
    </radialGradient>
    <radialGradient id="shape_59_fill" cx="0.5845697329376854" cy="0.7690582959641256" r="0.06617211022079875">
      <stop offset="0.0" stop-color="rgb(61, 63, 58)" stop-opacity="1.0"/>
      <stop offset="1.0" stop-color="rgb(78, 75, 96)" stop-opacity="0.7090254426002502"/>
    </radialGradient>
    <radialGradient id="shape_60_fill" cx="0.5489614243323442" cy="0.9977578475336323" r="0.06617211022079875">
      <stop offset="0.0" stop-color="rgb(140, 131, 64)" stop-opacity="1.0"/>
      <stop offset="1.0" stop-color="rgb(238, 209, 89)" stop-opacity="0.9235648512840271"/>
    </radialGradient>
    <radialGradient id="shape_61_fill" cx="0.6468667955709848" cy="0.9686312825155899" r="0.06616933692456707">
      <stop offset="0.4297302" stop-color="rgb(255, 230, 59)" stop-opacity="1.0"/>
      <stop offset="0.7063797" stop-color="rgb(247, 196, 8)" stop-opacity="0.925471842288971"/>
    </radialGradient>
    <radialGradient id="shape_62_fill" cx="0.615727002967359" cy="0.3991031390134529" r="0.06617211022079875">
      <stop offset="0.0" stop-color="rgb(55, 47, 13)" stop-opacity="1.0"/>
      <stop offset="1.0" stop-color="rgb(76, 52, 0)" stop-opacity="1.0"/>
    </radialGradient>
    <radialGradient id="shape_63_fill" cx="0.6261127596439169" cy="0.7286995515695067" r="0.06617211022079875">
      <stop offset="0.0" stop-color="rgb(79, 66, 32)" stop-opacity="1.0"/>
      <stop offset="1.0" stop-color="rgb(200, 210, 107)" stop-opacity="0.6431635022163391"/>
    </radialGradient>
    <radialGradient id="shape_64_fill" cx="0.40801186943620177" cy="0.12556053811659193" r="0.06617211022079875">
      <stop offset="0.0" stop-color="rgb(76, 66, 59)" stop-opacity="1.0"/>
      <stop offset="1.0" stop-color="rgb(104, 76, 70)" stop-opacity="1.0"/>
    </radialGradient>
    <radialGradient id="shape_65_fill" cx="0.6528189910979229" cy="0.6883408071748879" r="0.06617211022079875">
      <stop offset="0.0" stop-color="rgb(121, 97, 39)" stop-opacity="1.0"/>
      <stop offset="1.0" stop-color="rgb(255, 250, 93)" stop-opacity="1.0"/>
    </radialGradient>
    <radialGradient id="shape_66_fill" cx="0.6521963691145447" cy="0.46046420383881026" r="0.06963544217344561">
      <stop offset="0.2483081" stop-color="rgb(160, 193, 109)" stop-opacity="0.32538753747940063"/>
      <stop offset="0.9415327" stop-color="rgb(0, 0, 0)" stop-opacity="0.05756963789463043"/>
    </radialGradient>
    <radialGradient id="shape_67_fill" cx="0.5956689851574091" cy="0.9951388098199271" r="0.06940836015016459">
      <stop offset="0.8530679" stop-color="rgb(53, 30, 0)" stop-opacity="0.7307769656181335"/>
      <stop offset="1.0" stop-color="rgb(0, 0, 0)" stop-opacity="0.15824078023433685"/>
    </radialGradient>
    <radialGradient id="shape_68_fill" cx="0.4898042310946773" cy="0.996539060310398" r="0.06790162264770146">
      <stop offset="0.36980268" stop-color="rgb(49, 24, 5)" stop-opacity="0.6051529049873352"/>
      <stop offset="1.0" stop-color="rgb(40, 63, 57)" stop-opacity="0.24433846771717072"/>
    </radialGradient>
  </defs>
  <g>
    <path d="M -0.01679840311408043 271.2216796875 C 26.150251388549805 267.08514404296875 36.39326095581055 268.6396789550781 45.35929489135742 272.7021179199219 C 48.1043701171875 274.3292541503906 49.36355209350586 276.31134033203125 57.081783294677734 274.4971008300781 C 59.644527435302734 273.8407287597656 63.33029556274414 274.2746887207031 64.52948760986328 271.98492431640625 C 70.05412292480469 269.83123779296875 100.31896209716797 270.8830871582031 116.81123352050781 270.9841003417969 C 121.19743347167969 270.7637939453125 125.26850891113281 277.411865234375 124.80654907226562 282.3204040527344 C 132.77915954589844 282.66650390625 140.27330017089844 281.63555908203125 156.05628967285156 287.6796569824219 C 185.2793426513672 282.4078674316406 185.7909393310547 282.41864013671875 206.65988159179688 287.24847412109375 C 200.02249145507812 287.7518310546875 198.1764678955078 281.80792236328125 210.86720275878906 270.0409851074219 C 245.87344360351562 270.7278137207031 289.20135498046875 269.5221862792969 313.0415954589844 275.169921875 C 347.4002685546875 277.2413330078125 424.13031005859375 277.6135559082031 468.1916198730469 272.9176025390625 C 496.2774658203125 270.47808837890625 546.41650390625 271.4581298828125 546.2577514648438 277.6189270019531 C 547.9503784179688 278.16619873046875 549.5770263671875 273.3193664550781 568.8920288085938 270.5699768066406 C 584.94287109375 274.4040832519531 612.2695922851562 282.87774658203125 612.5591430664062 282.9398193359375 C 625.5675048828125 271.8763427734375 635.20751953125 271.4750061035156 670.1766357421875 270.866455078125 C 675.0573120117188 273.3969421386719 678.9540405273438 279.17254638671875 678.41015625 284.9792785644531 C 676.6068115234375 339.5111999511719 674.7254638671875 391.5036315917969 675.1177368164062 446.4668273925781 C 451.9151306152344 446.6697692871094 228.9889373779297 446.8115539550781 -0.4721234440803528 446.4240417480469 C -0.44512540102005005 389.14483642578125 0.07012034207582474 332.3588562011719 -0.01679840311408043 271.2216796875" stroke-width="0.0" fill="url(#shape_0_fill)"/>
    <path d="M -0.01693696342408657 271.2320861816406 C 35.9333610534668 275.3973388671875 36.5576057434082 274.5888671875 44.292930603027344 274.3056335449219 C 47.615623474121094 267.1787414550781 59.66407012939453 266.6070556640625 77.54267883300781 268.37957763671875 C 113.52497863769531 278.68035888671875 114.0328369140625 279.3109130859375 127.1874771118164 279.2865905761719 C 127.8892822265625 272.50860595703125 141.9808807373047 270.7790832519531 146.0945281982422 269.759033203125 C 185.165283203125 269.2330627441406 185.8478546142578 271.1413879394531 202.64173889160156 274.7254333496094 C 203.07098388671875 291.96044921875 204.5081787109375 292.2130126953125 213.908203125 296.8683166503906 C 216.15020751953125 295.922119140625 267.7959289550781 298.24615478515625 288.6476745605469 299.93426513671875 C 319.0039367675781 301.9576416015625 449.2073669433594 300.00274658203125 462.7063903808594 301.3226318359375 C 478.65924072265625 292.95513916015625 488.0583801269531 291.067626953125 504.53399658203125 287.20745849609375 C 510.5607604980469 287.80096435546875 520.3480224609375 286.421875 522.8787841796875 286.47076416015625 C 527.4862060546875 285.6969909667969 531.8248291015625 285.9145812988281 534.9351196289062 287.0984191894531 C 542.1975708007812 286.9896545410156 546.4654541015625 288.2447814941406 553.5134887695312 300.1050720214844 C 579.6116943359375 289.312744140625 581.1828002929688 290.64483642578125 593.83154296875 294.0324401855469 C 611.904296875 289.0399475097656 622.9656982421875 288.0283508300781 633.7055053710938 288.4723205566406 C 644.86376953125 279.1767272949219 655.9937744140625 284.154052734375 673.8006591796875 291.0255126953125 C 674.0299072265625 340.48187255859375 674.4629516601562 392.18450927734375 674.155517578125 446.2807922363281 C 451.4774169921875 446.3905334472656 229.19664001464844 446.25439453125 -0.3076566159725189 446.2476501464844 C -0.2135799378156662 389.4035949707031 -0.2940194308757782 333.0278625488281 -0.01693696342408657 271.2320861816406" stroke-width="0.0" fill="url(#shape_1_fill)"/>
    <path d="M -0.019932452589273453 -0.25989267230033875 C 219.69313049316406 0.1040392518043518 439.478759765625 -0.45242562890052795 672.2545166015625 -0.1872498244047165 C 665.7260131835938 10.807806968688965 644.99853515625 35.7264289855957 637.898193359375 48.23788833618164 C 634.1439208984375 53.07023620605469 610.9511108398438 93.42976379394531 584.771484375 84.02848052978516 C 577.633544921875 81.7116928100586 560.7243041992188 70.53529357910156 532.1602783203125 74.0096435546875 C 532.2609252929688 77.29100799560547 524.7028198242188 78.48217010498047 522.34326171875 72.12029266357422 C 522.6271362304688 68.84717559814453 499.465576171875 63.80024719238281 499.4828186035156 62.66836166381836 C 492.84112548828125 62.12795639038086 486.3211364746094 61.01142120361328 484.3951416015625 68.46795654296875 C 475.2169189453125 72.19438171386719 476.02764892578125 75.40875244140625 477.1781921386719 84.0050277709961 C 484.7581787109375 98.55630493164062 476.8304748535156 116.27404022216797 473.1357727050781 120.25469970703125 C 460.49139404296875 117.7913589477539 459.1519775390625 113.65093231201172 450.351806640625 108.33031463623047 C 435.2164001464844 107.8900146484375 411.69940185546875 102.34381103515625 410.2392883300781 104.98751831054688 C 412.46478271484375 120.09256744384766 414.691162109375 126.67597198486328 412.0617980957031 136.75869750976562 C 408.95965576171875 146.6798553466797 398.29998779296875 146.00823974609375 392.61956787109375 136.5155792236328 C 381.652587890625 143.32830810546875 375.8034973144531 158.1344757080078 369.1707763671875 157.4358367919922 C 367.2054748535156 157.8686981201172 365.0222473144531 161.4296875 360.1390380859375 165.72720336914062 C 356.8836975097656 168.87841796875 353.5776062011719 168.58302307128906 351.1037902832031 174.0968475341797 C 345.38128662109375 181.37696838378906 337.0685119628906 174.90261840820312 337.9593200683594 168.255126953125 C 302.4559631347656 166.94412231445312 301.32745361328125 173.50123596191406 299.2974548339844 179.2170867919922 C 303.6988525390625 188.32394409179688 304.16876220703125 191.56275939941406 307.4832763671875 201.48281860351562 C 307.4732971191406 200.68028259277344 306.079833984375 198.18585205078125 304.1074523925781 190.8494873046875 C 305.16973876953125 186.30035400390625 303.6474914550781 185.66615295410156 287.926025390625 177.41458129882812 C 289.6617126464844 194.58172607421875 289.25518798828125 195.9716033935547 289.543701171875 196.28428649902344 C 288.6292419433594 190.0117645263672 289.40460205078125 182.5118865966797 286.9642639160156 177.50038146972656 C 272.5238952636719 180.0936737060547 269.7131652832031 184.61083984375 262.1062316894531 180.10488891601562 C 254.92251586914062 183.33584594726562 255.57339477539062 187.52813720703125 255.1903076171875 197.51527404785156 C 260.7312927246094 199.3702850341797 260.6023864746094 199.9598388671875 257.74505615234375 199.4556884765625 C 257.17034912109375 198.39398193359375 253.50149536132812 195.3726806640625 254.20713806152344 193.99169921875 C 256.3341979980469 187.2295379638672 259.5975036621094 184.83335876464844 256.0683898925781 168.84805297851562 C 258.14337158203125 164.2894287109375 216.4241943359375 141.8470458984375 213.7847442626953 140.35633850097656 C 185.8195343017578 130.25140380859375 195.40924072265625 103.62691497802734 191.6179962158203 87.1933364868164 C 192.19805908203125 84.41796112060547 160.39669799804688 73.46218872070312 134.4718475341797 60.54130935668945 C 110.18513488769531 39.61193084716797 71.25943756103516 55.80955123901367 39.66796875 60.957855224609375 C 23.56290626525879 70.0464859008789 5.747318267822266 69.23521423339844 -0.9593284130096436 69.81873321533203 C 0.34183040261268616 43.958133697509766 -0.3314551115036011 22.56187629699707 -0.019932452589273453 -0.25989267230033875" stroke-width="0.0" fill="url(#shape_2_fill)"/>
    <path d="M 86.71107482910156 60.99739074707031 C 89.18888092041016 68.74573516845703 91.98896789550781 68.96334838867188 93.34489440917969 70.78158569335938 C 90.99248504638672 80.71805572509766 91.85244750976562 80.91111755371094 90.35124969482422 91.50538635253906 C 96.58301544189453 85.96530151367188 98.2122573852539 86.70700073242188 103.16473388671875 87.78805541992188 C 104.54622650146484 75.1837158203125 105.85843658447266 73.40583801269531 108.34088134765625 73.21227264404297 C 112.2624740600586 87.60521697998047 110.87882995605469 93.427978515625 116.44856262207031 99.34378814697266 C 116.48365020751953 100.05522918701172 116.29390716552734 109.02339935302734 115.51923370361328 115.37276458740234 C 124.04584503173828 115.32340240478516 128.62619018554688 115.7070541381836 129.44374084472656 112.5643310546875 C 130.5430450439453 109.79681396484375 136.63087463378906 108.47404479980469 136.5301513671875 104.6676254272461 C 136.62835693359375 103.67913818359375 135.549072265625 101.80976104736328 137.225830078125 98.30055236816406 C 136.4784393310547 93.26536560058594 137.50259399414062 92.8901138305664 137.5376434326172 89.2610092163086 C 137.31304931640625 84.9771957397461 138.6204071044922 84.88823699951172 139.47723388671875 86.84038543701172 C 140.0824737548828 82.79546356201172 146.70863342285156 80.71333312988281 148.01234436035156 83.22468566894531 C 148.6089324951172 93.25601196289062 150.2592315673828 94.5282211303711 152.01588439941406 99.08260345458984 C 153.49734497070312 102.97014617919922 149.92059326171875 106.90835571289062 148.8289031982422 106.7154312133789 C 152.638427734375 109.85879516601562 150.5205078125 114.1320571899414 148.48951721191406 113.43602752685547 C 154.3998260498047 112.8405990600586 157.8675079345703 122.5965576171875 157.2489776611328 123.26708221435547 C 161.3482208251953 125.03602600097656 165.02734375 123.47172546386719 169.62338256835938 122.67449951171875 C 174.3900604248047 119.72967529296875 175.78382873535156 121.51487731933594 177.7179718017578 122.50367736816406 C 179.32960510253906 122.68476104736328 179.9698486328125 125.35677337646484 182.9444580078125 127.69566345214844 C 183.8310089111328 130.2038116455078 182.41384887695312 133.12399291992188 183.8444061279297 135.34405517578125 C 186.5462188720703 135.33349609375 187.57080078125 142.76773071289062 188.9034881591797 145.19471740722656 C 194.81509399414062 146.25439453125 206.6836395263672 154.55906677246094 201.54159545898438 173.03150939941406 C 205.40589904785156 176.04347229003906 205.80934143066406 178.629638671875 205.60617065429688 181.91650390625 C 213.27944946289062 181.53981018066406 214.37188720703125 197.01138305664062 212.54470825195312 203.54188537597656 C 205.7780303955078 206.8219757080078 203.33949279785156 207.4423065185547 203.1311492919922 210.2563934326172 C 200.76724243164062 210.52586364746094 199.93881225585938 211.69692993164062 200.18968200683594 213.53651428222656 C 196.3795623779297 215.26992797851562 193.4815216064453 215.36000061035156 191.93203735351562 219.65347290039062 C 184.28558349609375 220.94544982910156 183.596435546875 224.75384521484375 178.59422302246094 230.1696319580078 C 176.4073028564453 233.5423126220703 180.3474884033203 239.29808044433594 181.05853271484375 241.30372619628906 C 182.13682556152344 252.1121826171875 186.22119140625 261.0919189453125 178.668212890625 264.8074951171875 C 173.97518920898438 268.1515197753906 148.50941467285156 268.2293395996094 136.70721435546875 269.63092041015625 C 131.9263916015625 269.38336181640625 128.4973907470703 272.0188293457031 121.15815734863281 274.8820495605469 C 109.11380004882812 276.9288024902344 73.2761459350586 276.0631408691406 73.05182647705078 270.01641845703125 C 47.691959381103516 266.767822265625 56.55018615722656 268.56787109375 57.541507720947266 273.5798645019531 C 48.174652099609375 276.3349914550781 0.7345286011695862 272.8037414550781 0.6501665711402893 270.05133056640625 C -5.5263352394104 224.15867614746094 -3.5865478515625 168.15499877929688 2.334371566772461 121.25996398925781 C 11.736045837402344 119.08367156982422 21.9127197265625 114.07755279541016 26.41729164123535 121.57333374023438 C 26.911733627319336 129.46444702148438 35.703861236572266 128.89476013183594 41.705989837646484 131.88565063476562 C 47.04880905151367 130.33009338378906 47.67329788208008 131.56130981445312 49.40631866455078 142.24649047851562 C 50.30339050292969 148.0863800048828 61.54276657104492 148.5223846435547 62.785282135009766 146.39390563964844 C 62.1837272644043 136.81683349609375 63.05764389038086 133.94696044921875 62.22395706176758 128.32249450683594 C 68.4215316772461 126.77587127685547 67.59310150146484 123.31678771972656 66.31311798095703 112.5142593383789 C 67.99671936035156 111.1560287475586 68.39295196533203 106.0886001586914 75.7137222290039 102.87428283691406 C 74.22521209716797 100.8943862915039 78.39816284179688 91.62381744384766 77.169921875 85.59617614746094 C 77.1341323852539 83.86226654052734 78.03616333007812 74.84237670898438 85.23886108398438 75.43120574951172 C 82.96766662597656 70.12223815917969 83.25963592529297 67.56415557861328 86.71107482910156 60.99739074707031" stroke-width="0.0" fill="url(#shape_3_fill)"/>
    <path d="M 673.9569091796875 -0.7857950925827026 C 676.1104736328125 47.83154296875 675.0172119140625 95.90825653076172 679.8834228515625 139.65028381347656 C 676.4360961914062 127.8226318359375 668.48046875 124.06424713134766 661.6007690429688 120.33100128173828 C 660.8837280273438 120.03832244873047 655.1033325195312 109.37837982177734 649.716552734375 110.9136962890625 C 648.6879272460938 112.52481079101562 644.9887084960938 149.23590087890625 642.92578125 155.5688018798828 C 629.9050903320312 154.55894470214844 626.8069458007812 142.9331512451172 627.049560546875 138.31314086914062 C 623.0225219726562 137.397705078125 618.9287719726562 145.3346710205078 615.4284057617188 144.05455017089844 C 611.6814575195312 142.3160858154297 610.1563110351562 143.3430633544922 607.7697143554688 141.0984344482422 C 608.9266357421875 138.03321838378906 612.3480224609375 132.9658660888672 606.7860107421875 120.14321899414062 C 598.2095336914062 133.77622985839844 597.5057373046875 139.29910278320312 594.3519897460938 142.7094268798828 C 599.0418701171875 147.33721923828125 597.6066284179688 151.88003540039062 597.5387573242188 152.29156494140625 C 588.59423828125 157.45008850097656 587.257568359375 164.17640686035156 579.4754638671875 172.28318786621094 C 571.8052368164062 170.32107543945312 569.929443359375 158.61737060546875 568.775634765625 157.13282775878906 C 565.8432006835938 157.59559631347656 563.4119262695312 153.63661193847656 561.6614379882812 151.86795043945312 C 560.1062622070312 150.6585235595703 556.2611083984375 150.98731994628906 555.7850341796875 156.19558715820312 C 551.923583984375 156.17703247070312 550.3644409179688 158.8865203857422 548.851806640625 158.7947998046875 C 547.4608154296875 156.83624267578125 544.2052612304688 156.58180236816406 536.1671752929688 153.78030395507812 C 531.7922973632812 154.8974151611328 529.9668579101562 158.6767578125 523.3843383789062 157.0533905029297 C 518.8309936523438 160.64927673339844 520.5375366210938 161.99998474121094 522.9475708007812 169.43382263183594 C 517.6102294921875 168.4482879638672 516.9861450195312 170.91482543945312 516.3130493164062 171.63116455078125 C 511.2713623046875 173.32232666015625 509.8157043457031 175.26531982421875 505.63763427734375 174.399169921875 C 502.7789306640625 171.39608764648438 502.9862976074219 169.5236358642578 502.5599670410156 159.10447692871094 C 492.95819091796875 145.47085571289062 507.3852233886719 121.82074737548828 518.4037475585938 126.49284362792969 C 523.8473510742188 125.41858673095703 539.7256469726562 110.4568099975586 548.8018798828125 113.00433349609375 C 557.2221069335938 110.71334838867188 556.9049072265625 109.38130187988281 557.9031372070312 107.12860107421875 C 560.0935668945312 108.42344665527344 565.010986328125 103.03936767578125 570.5505981445312 104.96929931640625 C 574.5874633789062 102.4344253540039 573.4176025390625 97.4525375366211 578.9456176757812 94.12957763671875 C 584.1685180664062 88.5052261352539 597.1785278320312 77.35631561279297 613.5623168945312 78.2679443359375 C 616.9708251953125 73.62947082519531 645.2064819335938 51.49828338623047 645.0684814453125 35.49564743041992 C 644.9793701171875 32.45043182373047 647.9993896484375 30.39251136779785 647.6727294921875 29.553508758544922 C 646.9948120117188 28.30257797241211 664.5016479492188 -4.120922088623047 673.9569091796875 -0.7857950925827026" stroke-width="0.0" fill="url(#shape_4_fill)"/>
    <path d="M 151.5857696533203 68.51204681396484 C 152.31100463867188 69.05278015136719 186.0946044921875 84.56916809082031 192.78192138671875 92.8920669555664 C 179.1013641357422 117.68834686279297 217.70364379882812 150.0630340576172 220.8494415283203 154.92750549316406 C 238.86851501464844 170.04086303710938 241.98309326171875 184.1812286376953 240.81736755371094 193.86294555664062 C 238.12997436523438 193.19790649414062 236.17918395996094 186.4870147705078 236.76956176757812 184.0604248046875 C 235.68124389648438 183.5680389404297 234.1571807861328 184.29714965820312 231.0787811279297 182.7108612060547 C 231.1020050048828 183.98431396484375 232.18218994140625 193.9303436279297 228.62704467773438 195.6678924560547 C 227.57664489746094 196.6352081298828 227.05238342285156 205.2786102294922 221.391845703125 207.7108612060547 C 215.07984924316406 206.59130859375 214.32113647460938 197.8663787841797 214.66143798828125 194.87466430664062 C 212.9604034423828 185.4368896484375 211.89720153808594 184.94410705566406 206.49989318847656 177.40858459472656 C 205.90838623046875 173.05809020996094 206.04286193847656 165.82461547851562 203.989990234375 159.04727172851562 C 206.2945556640625 153.2847442626953 194.83895874023438 144.69515991210938 193.36419677734375 141.20761108398438 C 189.07513427734375 140.2392120361328 188.837890625 137.39364624023438 186.79750061035156 135.91236877441406 C 178.44276428222656 133.1334686279297 179.06390380859375 126.7730712890625 183.23028564453125 117.32023620605469 C 179.3900909423828 116.47466278076172 177.397705078125 117.65093994140625 172.98580932617188 117.76258087158203 C 179.12705993652344 128.01266479492188 175.57110595703125 131.20602416992188 151.7867431640625 130.29920959472656 C 149.6307830810547 126.92381286621094 151.78697204589844 102.92716979980469 153.88832092285156 94.74817657470703 C 152.9154815673828 88.73993682861328 153.43785095214844 86.59843444824219 149.89083862304688 76.31668853759766 C 148.18319702148438 75.92150115966797 148.70260620117188 69.3086929321289 151.5857696533203 68.51204681396484" stroke-width="0.0" fill="url(#shape_5_fill)"/>
    <path d="M 612.0280151367188 82.06568145751953 C 618.6510620117188 84.13655090332031 619.642822265625 85.97840118408203 630.9178466796875 85.88542938232422 C 636.1209106445312 86.02848052978516 637.188232421875 87.71503448486328 641.2229614257812 88.9048843383789 C 642.1559448242188 87.36283111572266 667.7946166992188 92.10613250732422 674.1475219726562 98.09937286376953 C 674.82568359375 111.33979034423828 674.509033203125 126.24420166015625 675.1517333984375 150.9174041748047 C 665.733154296875 142.6495819091797 662.9873657226562 136.54978942871094 659.8009033203125 130.12167358398438 C 659.7313232421875 122.00485229492188 660.370849609375 116.26734924316406 652.14501953125 111.50396728515625 C 646.853271484375 114.9726791381836 644.7928466796875 142.3201446533203 642.3084716796875 143.1114501953125 C 643.6710205078125 144.8875274658203 642.611572265625 148.31768798828125 643.7224731445312 150.4767303466797 C 639.91357421875 150.79898071289062 637.9024047851562 152.78909301757812 634.7448120117188 153.1136016845703 C 631.51025390625 146.32254028320312 629.19287109375 141.39401245117188 630.0990600585938 140.53085327148438 C 628.8693237304688 138.09857177734375 621.4197387695312 136.9219512939453 620.9364013671875 138.73411560058594 C 618.251220703125 140.56748962402344 619.3414916992188 142.3625946044922 618.6408081054688 146.68247985839844 C 614.5966186523438 144.59141540527344 613.5564575195312 143.18667602539062 610.2455444335938 143.6217498779297 C 608.5388793945312 140.4056396484375 609.5919189453125 139.24322509765625 609.1807861328125 137.44691467285156 C 606.5289916992188 132.34539794921875 604.8492431640625 126.63716125488281 598.0906982421875 128.10995483398438 C 604.989013671875 133.83926391601562 595.3571166992188 148.39907836914062 591.6806640625 156.020263671875 C 590.531982421875 163.84454345703125 589.20068359375 164.07444763183594 585.5068969726562 169.0267791748047 C 584.781005859375 167.62794494628906 583.9423828125 165.36781311035156 588.9830322265625 155.836669921875 C 583.610107421875 152.37705993652344 578.4931030273438 150.77032470703125 575.3733520507812 148.45887756347656 C 564.6614990234375 155.53787231445312 556.3507080078125 155.52244567871094 556.1361083984375 151.36216735839844 C 555.8473510742188 152.9191436767578 553.0767822265625 154.70864868164062 552.8946533203125 157.76339721679688 C 551.0313720703125 161.6119842529297 548.015625 160.57643127441406 547.3687133789062 159.09207153320312 C 544.3933715820312 156.7320556640625 542.9675903320312 154.33981323242188 537.4402465820312 157.49131774902344 C 534.9806518554688 158.4982147216797 531.2308959960938 157.2897186279297 528.5899047851562 158.2197723388672 C 526.118896484375 159.28634643554688 526.3980712890625 162.63729858398438 524.9635620117188 165.73448181152344 C 524.45947265625 169.41043090820312 523.5194702148438 171.56480407714844 519.0355224609375 173.084716796875 C 511.8263244628906 177.31019592285156 504.246826171875 172.47463989257812 488.3812255859375 163.28164672851562 C 484.50286865234375 138.4495849609375 501.68023681640625 118.80821228027344 513.0051879882812 118.32758331298828 C 529.707275390625 127.38695526123047 540.2461547851562 108.28927612304688 550.110595703125 111.74246978759766 C 555.5228881835938 109.9952163696289 560.3282470703125 109.82530975341797 563.8634033203125 106.73047637939453 C 564.6243286132812 104.51329040527344 566.6473999023438 103.61553955078125 569.895751953125 104.42969512939453 C 574.5254516601562 101.26872253417969 578.4656982421875 97.48997497558594 586.5620727539062 98.94538116455078 C 600.33544921875 93.46033477783203 604.4281616210938 80.35692596435547 612.0280151367188 82.06568145751953" stroke-width="0.0" fill="url(#shape_6_fill)"/>
    <path d="M 0.6362485885620117 108.37342834472656 C 31.09065055847168 118.2911605834961 40.42611312866211 126.06657409667969 51.134944915771484 139.30812072753906 C 79.88713836669922 155.9043731689453 51.76108169555664 215.77740478515625 45.20814895629883 238.9052276611328 C 50.757286071777344 260.20458984375 48.477500915527344 264.6286926269531 48.37870407104492 265.5762939453125 C 44.74492645263672 263.5975341796875 17.870664596557617 259.3212890625 9.626289367675781 255.98672485351562 C 4.48288106918335 210.54710388183594 -4.564733028411865 167.3454132080078 0.6362485885620117 108.37342834472656" stroke-width="0.0" fill="url(#shape_7_fill)"/>
    <path d="M 385.041259765625 194.33602905273438 C 420.031494140625 181.84739685058594 427.8835754394531 191.08395385742188 429.5205993652344 204.48814392089844 C 474.4718322753906 190.3094482421875 496.2615661621094 204.99871826171875 491.7095642089844 231.93484497070312 C 490.99505615234375 250.48855590820312 486.22265625 251.49375915527344 484.86468505859375 252.38934326171875 C 485.9286804199219 258.75927734375 482.42376708984375 268.92315673828125 476.9614562988281 269.11236572265625 C 469.04290771484375 272.9302978515625 453.2210388183594 266.7112731933594 451.6259765625 269.7121887207031 C 447.0369873046875 266.28094482421875 448.2405090332031 261.20751953125 449.0316467285156 260.17266845703125 C 439.2530517578125 264.7712707519531 436.5141906738281 261.409423828125 437.439208984375 256.83123779296875 C 426.874267578125 256.9323425292969 425.8266906738281 258.5397644042969 421.1378479003906 262.0898742675781 C 418.5293273925781 264.2435607910156 417.5921936035156 267.6591796875 414.9222412109375 273.0146789550781 C 414.11041259765625 272.8150939941406 393.2619323730469 268.2479553222656 392.58612060546875 264.175048828125 C 391.82366943359375 265.1053161621094 388.9918518066406 263.33599853515625 385.9666442871094 263.6324462890625 C 382.11395263671875 261.9500427246094 380.82025146484375 263.18304443359375 376.5257263183594 261.05615234375 C 374.92779541015625 256.3254699707031 376.1314697265625 252.47276306152344 372.4867858886719 249.4010009765625 C 359.3011169433594 243.73590087890625 374.20672607421875 195.92288208007812 378.53314208984375 178.5990447998047 C 383.8978271484375 170.84156799316406 393.68707275390625 176.81993103027344 385.041259765625 194.33602905273438" stroke-width="0.0" fill="url(#shape_8_fill)"/>
    <path d="M 566.1868896484375 157.31381225585938 C 568.3128051757812 158.84976196289062 568.1832885742188 166.63917541503906 569.441162109375 167.98646545410156 C 573.514892578125 169.4618377685547 573.6727905273438 170.95082092285156 577.5952758789062 174.34756469726562 C 581.931884765625 172.9434356689453 583.9734497070312 174.56565856933594 583.70703125 179.4731903076172 C 575.3406982421875 180.47747802734375 572.054931640625 225.61634826660156 577.2802734375 226.9659423828125 C 577.8816528320312 229.95420837402344 581.28515625 235.6551971435547 577.0394897460938 241.77491760253906 C 568.709716796875 238.64002990722656 566.4337158203125 237.20269775390625 558.627197265625 247.25791931152344 C 554.1282348632812 250.30638122558594 494.54278564453125 254.20652770996094 487.9440002441406 251.75425720214844 C 485.96563720703125 250.33944702148438 486.9335021972656 239.30755615234375 491.7264709472656 229.32308959960938 C 486.4210205078125 226.27439880371094 483.1809997558594 222.294921875 481.7017822265625 215.67361450195312 C 476.68072509765625 209.82237243652344 479.2845764160156 205.82998657226562 482.7477111816406 205.97268676757812 C 480.05914306640625 205.33238220214844 481.43756103515625 198.90968322753906 488.553466796875 198.8629150390625 C 491.9382629394531 196.19000244140625 491.8209533691406 192.50123596191406 492.86383056640625 187.9001007080078 C 490.1059265136719 174.12498474121094 490.4935607910156 173.1300811767578 487.5592346191406 164.4559783935547 C 504.195556640625 163.40025329589844 505.65570068359375 166.4787139892578 517.2293090820312 165.61105346679688 C 523.1083984375 169.3887176513672 524.7843017578125 167.42538452148438 526.0365600585938 167.73483276367188 C 523.7715454101562 160.956787109375 530.6785888671875 155.94992065429688 533.3198852539062 158.6335906982422 C 537.6265258789062 161.84849548339844 541.3866577148438 162.4642791748047 542.1793212890625 163.96446228027344 C 545.23193359375 164.06423950195312 545.8883056640625 165.78541564941406 549.7076416015625 166.5647430419922 C 548.9484252929688 165.6262969970703 551.3004150390625 157.32876586914062 554.606689453125 158.10543823242188 C 557.985107421875 160.9373016357422 563.0374755859375 157.83255004882812 566.1868896484375 157.31381225585938" stroke-width="0.0" fill="url(#shape_9_fill)"/>
    <path d="M 561.6094970703125 156.59056091308594 C 566.253662109375 153.0813446044922 571.1512451171875 158.46292114257812 570.8004760742188 170.52137756347656 C 572.2424926757812 169.19290161132812 576.1585083007812 169.22926330566406 579.5078125 174.68605041503906 C 580.2119140625 178.04759216308594 578.9226684570312 187.38717651367188 577.0386352539062 191.537353515625 C 571.271240234375 196.79513549804688 571.9855346679688 229.9724884033203 578.0748291015625 230.9769744873047 C 576.070068359375 231.159423828125 575.6058349609375 236.8353729248047 572.0425415039062 238.03390502929688 C 560.0532836914062 235.91619873046875 567.3749389648438 238.635498046875 563.8689575195312 248.10983276367188 C 549.3583984375 253.3352508544922 501.2862854003906 249.19602966308594 500.1814880371094 251.6192626953125 C 491.0697326660156 251.81674194335938 487.87890625 236.9871826171875 491.1920166015625 229.98004150390625 C 486.62359619140625 224.9282684326172 481.9842224121094 219.27279663085938 481.59014892578125 215.6654052734375 C 475.5912780761719 214.55093383789062 474.4482116699219 213.85646057128906 464.9419250488281 198.02749633789062 C 464.5164489746094 188.87420654296875 474.39459228515625 184.9683380126953 483.28460693359375 195.89544677734375 C 489.9727478027344 197.403564453125 494.4398193359375 184.23829650878906 496.6300048828125 182.95526123046875 C 495.3072814941406 178.86070251464844 497.58343505859375 177.67800903320312 500.171142578125 177.43246459960938 C 507.92669677734375 179.07984924316406 516.5482788085938 181.66000366210938 520.4526977539062 174.03482055664062 C 523.3576049804688 173.3199462890625 526.5704345703125 159.15834045410156 531.08154296875 155.72213745117188 C 538.2772216796875 156.00669860839844 538.1981811523438 160.08937072753906 540.701416015625 166.00360107421875 C 545.755126953125 165.91770935058594 549.0501708984375 167.34893798828125 551.3150634765625 166.13287353515625 C 551.1103515625 156.03323364257812 553.1266479492188 153.05545043945312 561.6094970703125 156.59056091308594" stroke-width="0.0" fill="url(#shape_10_fill)"/>
    <path d="M 448.03826904296875 107.63299560546875 C 452.8102111816406 110.56922912597656 454.04071044921875 112.05895233154297 462.2582092285156 112.37557220458984 C 464.50689697265625 116.99176788330078 469.4263610839844 115.42896270751953 479.0848693847656 113.181640625 C 488.5075378417969 124.5062026977539 488.7771301269531 125.25397491455078 493.4600524902344 130.78236389160156 C 494.05535888671875 131.58424377441406 493.1721496582031 134.90830993652344 496.7470397949219 136.5204315185547 C 494.7118835449219 135.21820068359375 492.71832275390625 137.9368133544922 488.4250183105469 141.03582763671875 C 482.9971618652344 136.7889404296875 481.50811767578125 138.6576690673828 476.1290588378906 143.99754333496094 C 467.2644348144531 141.5366668701172 466.10296630859375 139.73483276367188 465.2778015136719 134.40599060058594 C 465.17059326171875 133.50848388671875 460.68756103515625 133.54635620117188 460.24859619140625 134.3004913330078 C 460.9090270996094 134.313232421875 477.6817932128906 144.90830993652344 491.3651428222656 154.0206756591797 C 476.3414306640625 176.7156982421875 475.42059326171875 177.21707153320312 472.85614013671875 181.81207275390625 C 467.0320129394531 182.57656860351562 466.609375 187.35836791992188 465.73297119140625 189.32186889648438 C 463.9458923339844 184.05006408691406 462.4198303222656 173.27622985839844 458.504638671875 171.74542236328125 C 448.27362060546875 179.3754119873047 447.49591064453125 182.47830200195312 439.9015197753906 183.0846710205078 C 439.4557189941406 183.86080932617188 435.8235168457031 195.66188049316406 434.9186096191406 197.279296875 C 429.9114074707031 200.11846923828125 417.52813720703125 180.5742645263672 417.7053527832031 179.7388916015625 C 416.9418029785156 179.66326904296875 398.2026672363281 179.42117309570312 397.7948303222656 172.92738342285156 C 393.7621154785156 170.96502685546875 389.80706787109375 176.36672973632812 379.7732849121094 174.6620635986328 C 381.211669921875 161.60609436035156 382.0958251953125 147.70314025878906 392.471435546875 139.1203155517578 C 397.8876647949219 137.23524475097656 399.45947265625 129.73912048339844 402.0342102050781 121.48188018798828 C 407.6329345703125 99.07232666015625 426.2380676269531 103.63391876220703 448.03826904296875 107.63299560546875" stroke-width="0.0" fill="url(#shape_11_fill)"/>
    <path d="M 602.8759765625 127.5626220703125 C 606.1595458984375 131.31231689453125 605.2725219726562 144.09071350097656 607.8395385742188 144.3257598876953 C 611.2466430664062 145.44699096679688 611.9310302734375 148.7650146484375 615.7473754882812 152.58834838867188 C 618.20751953125 149.87054443359375 618.2893676757812 141.8280792236328 621.352294921875 141.00611877441406 C 623.1533203125 137.4735870361328 625.4638061523438 137.4240264892578 627.7191772460938 140.30027770996094 C 627.575439453125 142.14381408691406 629.0462036132812 144.73582458496094 629.0048217773438 147.2217559814453 C 632.11279296875 149.7607421875 631.7634887695312 151.1563720703125 636.7033081054688 153.3324432373047 C 642.1928100585938 154.72579956054688 641.87744140625 160.48318481445312 646.5931396484375 169.7992401123047 C 639.0811157226562 184.9210968017578 639.9851684570312 194.8556365966797 640.330810546875 206.66140747070312 C 646.3984375 216.67283630371094 648.3015747070312 231.95286560058594 642.9290161132812 245.71778869628906 C 623.16162109375 248.41078186035156 611.482421875 249.10888671875 580.4375 261.3279724121094 C 570.4700317382812 249.2950439453125 574.46875 232.2697296142578 574.74072265625 218.3533477783203 C 568.1228637695312 209.55145263671875 572.16455078125 168.9427032470703 583.2376708984375 169.82614135742188 C 597.298095703125 163.27938842773438 599.4683837890625 143.8740692138672 599.8806762695312 142.1085968017578 C 595.8378295898438 139.59567260742188 596.7424926757812 136.7552490234375 602.8759765625 127.5626220703125" stroke-width="0.0" fill="url(#shape_12_fill)"/>
    <path d="M 410.73138427734375 176.5285186767578 C 420.47564697265625 173.81275939941406 432.7222900390625 213.10073852539062 428.7454528808594 220.48744201660156 C 419.8987731933594 228.0512237548828 426.6851501464844 238.1920166015625 429.28363037109375 242.6610107421875 C 430.0119323730469 262.8492736816406 420.80279541015625 265.9129333496094 415.83233642578125 268.4341125488281 C 402.2258605957031 267.1258239746094 399.4716491699219 271.2494201660156 390.61273193359375 267.5316467285156 C 385.48614501953125 264.78271484375 382.50164794921875 265.9894104003906 380.1107482910156 265.4281005859375 C 375.63494873046875 263.18408203125 375.39520263671875 260.513427734375 375.19122314453125 258.4795837402344 C 376.36383056640625 255.35585021972656 374.87261962890625 254.42352294921875 374.73687744140625 253.45079040527344 C 372.38360595703125 254.56643676757812 370.22247314453125 250.94761657714844 368.69891357421875 251.7908172607422 C 359.8993835449219 248.42828369140625 366.7491149902344 229.56240844726562 367.4685974121094 221.07286071777344 C 369.0386962890625 218.6650848388672 372.229736328125 202.80458068847656 381.70245361328125 203.21226501464844 C 379.0106201171875 196.86329650878906 379.50177001953125 189.28277587890625 390.056884765625 186.1603240966797 C 391.6571960449219 176.9317626953125 392.8788146972656 177.0665283203125 410.73138427734375 176.5285186767578" stroke-width="0.0" fill="url(#shape_13_fill)"/>
    <path d="M 508.70501708984375 66.92890930175781 C 512.6497192382812 66.0008544921875 521.3700561523438 70.0788345336914 523.2091064453125 74.88842010498047 C 530.727294921875 79.40117645263672 533.7802124023438 80.01570129394531 536.6951904296875 90.3030014038086 C 539.285888671875 90.89497375488281 544.5418701171875 90.29843139648438 545.0235595703125 91.17036437988281 C 545.5347290039062 92.75154113769531 556.078125 97.00472259521484 560.1015014648438 95.31944274902344 C 563.589599609375 97.52046966552734 567.3375244140625 97.52645111083984 568.7421875 99.22937774658203 C 564.6873779296875 105.30194091796875 556.210205078125 115.51629638671875 542.439453125 110.87315368652344 C 541.404052734375 111.84671020507812 539.3158569335938 114.92086029052734 534.7987670898438 118.41948699951172 C 528.0867919921875 120.97972106933594 520.02392578125 124.36725616455078 515.4354248046875 118.88645935058594 C 511.0672607421875 120.06344604492188 501.4485778808594 125.46475219726562 499.05718994140625 125.05770874023438 C 497.09588623046875 128.41717529296875 493.6718444824219 128.40557861328125 489.4523620605469 127.46637725830078 C 489.5827941894531 121.2894515991211 468.8127136230469 118.857666015625 468.0995178222656 117.85842895507812 C 463.5455017089844 117.76680755615234 462.93792724609375 116.73085021972656 462.1135559082031 115.91819763183594 C 469.3931884765625 117.23670959472656 472.1491394042969 110.84226989746094 478.0997009277344 106.24532318115234 C 474.95733642578125 92.90076446533203 473.1394958496094 87.46592712402344 475.1272277832031 82.08496856689453 C 474.5901184082031 70.93414306640625 475.34326171875 70.38655853271484 478.3853759765625 66.46800994873047 C 478.9190368652344 64.1404037475586 482.6684265136719 64.18453216552734 484.5384826660156 63.28181457519531 C 495.6115417480469 63.97536849975586 501.8554992675781 61.2334098815918 508.70501708984375 66.92890930175781" stroke-width="0.0" fill="url(#shape_14_fill)"/>
    <path d="M 532.566162109375 160.2643585205078 C 543.8637084960938 162.7445831298828 544.1470336914062 163.64100646972656 547.0538330078125 165.1230010986328 C 549.6655883789062 167.65003967285156 549.5829467773438 170.27151489257812 544.05615234375 179.8434600830078 C 541.86328125 189.7543487548828 536.9347534179688 231.25096130371094 536.5447387695312 233.5026397705078 C 540.6267700195312 237.37684631347656 540.9920043945312 250.746337890625 515.6346435546875 252.24838256835938 C 502.4487609863281 251.22048950195312 483.17205810546875 244.52503967285156 487.9363098144531 230.6090087890625 C 476.9700927734375 218.2334442138672 478.69952392578125 208.0644073486328 482.8447570800781 201.08767700195312 C 486.858642578125 197.1807098388672 488.18609619140625 197.69497680664062 488.8472595214844 198.18251037597656 C 483.3471984863281 195.76702880859375 488.63818359375 181.79026794433594 487.6760559082031 172.73594665527344 C 487.1248474121094 168.0210723876953 488.6637878417969 165.85440063476562 491.630126953125 167.1244659423828 C 505.6390686035156 178.80007934570312 511.13092041015625 184.17236328125 522.7328491210938 172.72608947753906 C 525.5528564453125 170.96023559570312 525.542236328125 167.3115234375 526.9323120117188 165.10301208496094 C 525.8363647460938 158.93560791015625 528.65771484375 157.9737548828125 532.566162109375 160.2643585205078" stroke-width="0.0" fill="url(#shape_15_fill)"/>
    <path d="M 651.8536987304688 110.01360321044922 C 653.98681640625 110.45443725585938 663.412353515625 121.77558898925781 660.0244750976562 130.9365997314453 C 664.38037109375 135.4989013671875 664.6430053710938 142.67750549316406 673.37060546875 148.81153869628906 C 677.082763671875 178.69493103027344 673.5531616210938 211.42495727539062 674.82470703125 262.06817626953125 C 673.720703125 260.2386474609375 640.7982177734375 267.71588134765625 636.393310546875 258.5408020019531 C 637.7787475585938 245.9443359375 641.578125 123.74088287353516 651.8536987304688 110.01360321044922" stroke-width="0.0" fill="url(#shape_16_fill)"/>
    <path d="M 601.0629272460938 129.754638671875 C 603.2235107421875 128.3142852783203 606.9324951171875 132.01145935058594 606.2861328125 134.0263214111328 C 608.3032836914062 135.04727172851562 607.2968139648438 140.65769958496094 609.5410766601562 143.4322052001953 C 627.405029296875 142.90940856933594 629.868408203125 220.32301330566406 631.0152587890625 260.5494689941406 C 589.69189453125 265.08868408203125 577.3448486328125 257.3892822265625 579.762451171875 237.2840118408203 C 563.364990234375 226.630615234375 597.8807983398438 154.6344757080078 601.0629272460938 129.754638671875" stroke-width="0.0" fill="url(#shape_17_fill)"/>
    <path d="M 320.59234619140625 186.3267364501953 C 320.7826843261719 186.52687072753906 322.5594177246094 189.49732971191406 320.3849792480469 197.70745849609375 C 332.9461669921875 193.6895294189453 334.9934387207031 192.84983825683594 337.4364013671875 196.14283752441406 C 341.75299072265625 200.4055633544922 346.0037841796875 197.80111694335938 353.3902893066406 194.04873657226562 C 358.32098388671875 194.0477294921875 358.97613525390625 195.0148162841797 357.0155029296875 201.59207153320312 C 359.3752136230469 204.1044464111328 361.453857421875 204.307373046875 363.0265808105469 208.62315368652344 C 367.2633972167969 207.10472106933594 368.4907531738281 208.22923278808594 368.17303466796875 211.83258056640625 C 370.521484375 220.0396270751953 370.4994812011719 222.9801025390625 365.8757019042969 226.1708526611328 C 366.47723388671875 231.5811767578125 364.6772155761719 235.97755432128906 366.5466003417969 248.85987854003906 C 369.0920715332031 252.02969360351562 366.4702453613281 256.1776428222656 358.02374267578125 254.71961975097656 C 354.5116882324219 255.61651611328125 329.2712097167969 254.90457153320312 322.4890441894531 255.3436279296875 C 313.3861999511719 255.97467041015625 312.160400390625 253.5783233642578 307.76995849609375 242.7408447265625 C 304.4156799316406 230.0360870361328 321.04266357421875 194.58782958984375 320.59234619140625 186.3267364501953" stroke-width="0.0" fill="url(#shape_18_fill)"/>
    <path d="M 478.2705078125 218.02536010742188 C 496.9815979003906 249.0806884765625 508.3656005859375 261.1234130859375 490.31622314453125 278.2193603515625 C 470.76531982421875 279.1669921875 444.00360107421875 261.4311828613281 442.13177490234375 261.73992919921875 C 438.6423645019531 260.6391296386719 437.1259460449219 258.2615661621094 432.53143310546875 258.12225341796875 C 429.3743896484375 258.6332702636719 428.0694580078125 256.8523864746094 428.5133361816406 253.84117126464844 C 430.5975341796875 237.88333129882812 422.1457214355469 232.6856689453125 422.9550476074219 229.6978302001953 C 423.1209716796875 226.9373321533203 421.12884521484375 226.67367553710938 420.1883544921875 225.10702514648438 C 427.7451477050781 219.5498504638672 429.6893005371094 218.821533203125 428.8011474609375 215.23321533203125 C 438.1859436035156 196.87818908691406 474.249755859375 198.2239227294922 478.2705078125 218.02536010742188" stroke-width="0.0" fill="url(#shape_19_fill)"/>
    <path d="M 673.907470703125 -2.985696315765381 C 675.0626220703125 32.853572845458984 674.5833740234375 64.76392364501953 674.356689453125 97.17578125 C 669.337646484375 96.29090881347656 652.8513793945312 87.36868286132812 644.267333984375 90.05239868164062 C 638.6173095703125 89.5486068725586 638.1474609375 85.95862579345703 637.5194702148438 84.40446472167969 C 625.8206787109375 84.10099792480469 619.8807373046875 93.05248260498047 608.20458984375 86.7734375 C 609.9705810546875 74.39240264892578 613.0999145507812 74.11851501464844 614.7778930664062 71.82915496826172 C 622.4327392578125 68.64085388183594 648.796142578125 25.183868408203125 647.6982421875 21.762664794921875 C 655.3157958984375 10.1027193069458 656.5533447265625 3.574695587158203 668.40478515625 3.79176664352417 C 669.8087768554688 2.6781952381134033 670.138427734375 1.1017425060272217 673.907470703125 -2.985696315765381" stroke-width="0.0" fill="url(#shape_20_fill)"/>
    <path d="M 562.1387329101562 155.93006896972656 C 569.8299560546875 156.53945922851562 569.8723754882812 162.06362915039062 574.1856689453125 165.22705078125 C 585.0185546875 168.3019256591797 575.4468383789062 231.2270965576172 577.3983154296875 240.78807067871094 C 576.2974243164062 244.79055786132812 574.9266967773438 246.99740600585938 575.3958129882812 258.5267639160156 C 555.7864990234375 254.25486755371094 542.909912109375 252.28489685058594 540.0628662109375 246.261962890625 C 544.3936767578125 244.71669006347656 541.6041870117188 165.93301391601562 555.0519409179688 157.77162170410156 C 555.5350341796875 153.3804168701172 558.8054809570312 152.53684997558594 562.1387329101562 155.93006896972656" stroke-width="0.0" fill="url(#shape_21_fill)"/>
    <path d="M 215.12973022460938 209.71701049804688 C 233.1989288330078 209.3372344970703 234.1888427734375 240.74642944335938 219.98342895507812 255.7045135498047 C 211.83294677734375 263.31689453125 209.98687744140625 264.5126953125 209.03530883789062 273.2064208984375 C 205.94569396972656 275.37432861328125 206.7938995361328 277.1362609863281 206.7321319580078 280.3210144042969 C 206.9012451171875 283.07275390625 203.7684326171875 285.5307922363281 200.72760009765625 284.9487609863281 C 200.3958740234375 283.4210205078125 190.44500732421875 272.9657287597656 187.92601013183594 265.1584167480469 C 186.6333770751953 261.5744934082031 183.7322540283203 262.52752685546875 181.5100860595703 262.26953125 C 180.767822265625 260.6481628417969 180.0030517578125 260.5274963378906 178.7806854248047 253.5751495361328 C 179.21246337890625 248.5340118408203 168.97079467773438 242.95298767089844 170.8329315185547 238.32688903808594 C 175.77352905273438 213.193359375 177.47853088378906 213.32656860351562 185.6821746826172 220.57168579101562 C 193.90386962890625 219.2058868408203 194.25711059570312 215.40187072753906 198.36415100097656 213.2943572998047 C 186.9297332763672 207.54461669921875 186.2111358642578 202.04759216308594 197.75164794921875 197.39125061035156 C 213.65565490722656 196.5956268310547 214.5843505859375 200.47447204589844 215.12973022460938 209.71701049804688" stroke-width="0.0" fill="url(#shape_22_fill)"/>
    <path d="M 111.57023620605469 426.36114501953125 C 112.72642517089844 429.2782897949219 111.00272369384766 431.1896667480469 110.66529846191406 431.5824279785156 C 104.5394287109375 432.9691467285156 103.28267669677734 433.8353271484375 91.88169860839844 432.9698791503906 C 89.76215362548828 435.965576171875 95.68114471435547 446.421630859375 91.62601470947266 452.1399841308594 C 78.66380310058594 444.9972229003906 46.938175201416016 447.9271240234375 25.023906707763672 449.6409912109375 C 14.013379096984863 446.2572937011719 13.880392074584961 439.77435302734375 17.900405883789062 436.38323974609375 C 34.36471939086914 427.67315673828125 50.43385696411133 426.96728515625 71.033447265625 427.1276550292969 C 74.40599060058594 424.7213134765625 110.41927337646484 419.70361328125 111.57023620605469 426.36114501953125" stroke-width="0.0" fill="url(#shape_23_fill)"/>
    <path d="M 194.36131286621094 123.57585144042969 C 199.96694946289062 124.76948547363281 210.52899169921875 144.6293182373047 214.50796508789062 145.16551208496094 C 215.62741088867188 148.0869598388672 218.5459442138672 149.70266723632812 220.26376342773438 153.65249633789062 C 227.13731384277344 158.451416015625 248.2159881591797 178.18959045410156 244.6820831298828 199.447021484375 C 239.23513793945312 199.53025817871094 235.62640380859375 186.9221954345703 232.3011016845703 180.32278442382812 C 234.90423583984375 186.70046997070312 233.22055053710938 195.969970703125 230.86512756347656 197.08229064941406 C 226.13023376464844 198.5807342529297 225.6314239501953 202.91329956054688 220.40322875976562 208.55990600585938 C 215.2040557861328 207.65016174316406 213.6187286376953 199.26168823242188 213.85919189453125 196.0179443359375 C 212.703369140625 189.5853729248047 212.59593200683594 183.08897399902344 206.6542510986328 178.20327758789062 C 203.9598388671875 174.02859497070312 205.03707885742188 173.0257110595703 205.5616912841797 166.7631072998047 C 202.54193115234375 147.5251922607422 199.90090942382812 146.99794006347656 192.62474060058594 144.1542510986328 C 189.2860870361328 142.30267333984375 191.22283935546875 128.39527893066406 194.36131286621094 123.57585144042969" stroke-width="0.0" fill="url(#shape_24_fill)"/>
    <path d="M 595.8783569335938 410.1812438964844 C 598.409423828125 411.11090087890625 626.8126220703125 408.5694274902344 629.016357421875 415.02252197265625 C 628.5744018554688 421.1077880859375 626.8872680664062 425.23797607421875 628.8795166015625 426.6595153808594 C 630.6685791015625 427.9874572753906 636.0838012695312 427.91473388671875 639.4713134765625 437.0262145996094 C 617.5225219726562 446.979248046875 577.5846557617188 439.7878112792969 573.2457885742188 434.3367614746094 C 567.1737670898438 426.54315185546875 574.4541015625 420.12994384765625 576.3631591796875 413.8470764160156 C 579.5810546875 409.4281005859375 587.1842041015625 413.4931640625 595.8783569335938 410.1812438964844" stroke-width="0.0" fill="url(#shape_25_fill)"/>
    <path d="M 142.909912109375 66.71564483642578 C 144.0777587890625 68.93661499023438 149.16944885253906 68.31010437011719 149.6299591064453 69.13927459716797 C 148.90379333496094 70.89989471435547 150.46353149414062 71.82421875 149.76068115234375 73.8692398071289 C 151.0666046142578 74.44989776611328 150.1476287841797 78.41375732421875 150.5174102783203 80.58675384521484 C 152.30023193359375 89.34103393554688 152.8715362548828 97.63827514648438 153.9383087158203 104.10267639160156 C 153.51600646972656 107.62064361572266 155.11207580566406 108.51983642578125 155.19068908691406 111.4371566772461 C 158.15870666503906 123.42231750488281 155.3632354736328 133.51406860351562 150.39456176757812 133.58218383789062 C 143.02935791015625 126.86052703857422 137.25245666503906 120.16405487060547 125.92308807373047 117.11902618408203 C 122.52397155761719 114.24806213378906 124.57176208496094 109.6662368774414 126.76699829101562 106.92332458496094 C 128.8209686279297 106.84728240966797 128.8745880126953 105.28060150146484 132.61996459960938 104.66301727294922 C 138.89697265625 96.41433715820312 134.70887756347656 93.1875991821289 133.22366333007812 89.88116455078125 C 134.1920623779297 88.8470687866211 139.3079071044922 87.28858184814453 140.0758514404297 85.3296127319336 C 138.09075927734375 84.7482681274414 138.6865692138672 77.64482116699219 139.4927520751953 77.47831726074219 C 143.56509399414062 76.5970458984375 142.6584014892578 70.32816314697266 142.909912109375 66.71564483642578" stroke-width="0.0" fill="url(#shape_26_fill)"/>
    <path d="M 140.7602081298828 67.9056396484375 C 148.86790466308594 67.08145141601562 149.88973999023438 68.30451202392578 148.62245178222656 76.63237762451172 C 150.74281311035156 77.99162292480469 151.1599578857422 80.5606689453125 154.44320678710938 85.14299774169922 C 150.4603271484375 90.77511596679688 154.5396728515625 94.3464126586914 151.7933807373047 104.91093444824219 C 153.04908752441406 105.76614379882812 153.37294006347656 109.32708740234375 155.51304626464844 113.06765747070312 C 152.8143310546875 116.6880874633789 157.8295135498047 122.0215835571289 154.57945251464844 126.14076232910156 C 152.5994873046875 132.03466796875 151.33819580078125 133.17208862304688 147.4652862548828 133.8812255859375 C 141.7242431640625 131.5803680419922 127.74297332763672 121.18848419189453 129.70619201660156 118.18475341796875 C 124.6600570678711 118.744873046875 122.48792266845703 113.9802017211914 128.18589782714844 110.414794921875 C 123.33771514892578 108.41275024414062 124.1382827758789 105.17057800292969 133.3657989501953 107.1779556274414 C 136.36184692382812 105.69023895263672 133.95294189453125 92.63389587402344 133.56484985351562 89.36446380615234 C 139.576171875 87.46691131591797 138.8131103515625 84.89998626708984 138.62155151367188 81.56649780273438 C 139.07830810546875 77.51383972167969 140.36593627929688 76.81170654296875 142.07472229003906 77.58272552490234 C 145.4444122314453 72.77505493164062 142.51809692382812 70.48778533935547 140.7602081298828 67.9056396484375" stroke-width="0.0" fill="url(#shape_27_fill)"/>
    <path d="M -0.32186082005500793 -0.27117371559143066 C 4.70265007019043 0.3816908895969391 9.651304244995117 -0.526284396648407 19.8057804107666 -0.8742222189903259 C 24.465274810791016 -0.4926525950431824 24.720619201660156 0.5643686652183533 43.29039764404297 6.829104423522949 C 39.05510711669922 25.625896453857422 28.153583526611328 25.8345890045166 27.18243980407715 23.221593856811523 C 45.38181686401367 20.061304092407227 53.230857849121094 20.025358200073242 54.78493118286133 47.71982192993164 C 37.48920822143555 49.81230545043945 29.88417625427246 50.250030517578125 20.306730270385742 46.83186340332031 C 14.47806453704834 39.49031066894531 11.170358657836914 38.563865661621094 9.965134620666504 33.64186096191406 C 10.015706062316895 35.82607650756836 14.524992942810059 39.27244567871094 14.82773494720459 41.03204345703125 C 15.824678421020508 42.22609329223633 15.481951713562012 45.065757751464844 18.185863494873047 47.86762619018555 C 20.073211669921875 51.071048736572266 18.75881576538086 52.30801773071289 20.78978157043457 57.195274353027344 C 21.001129150390625 64.09191131591797 15.058587074279785 66.00531005859375 8.689252853393555 61.34811782836914 C 5.496823787689209 60.884490966796875 3.534466505050659 59.14093780517578 0.32428306341171265 59.433837890625 C -0.31768086552619934 39.779205322265625 -0.32485777139663696 19.628232955932617 -0.32186082005500793 -0.27117371559143066" stroke-width="0.0" fill="url(#shape_28_fill)"/>
    <path d="M 299.4803466796875 197.46432495117188 C 297.5040283203125 199.28053283691406 300.0387268066406 202.1175079345703 301.50616455078125 207.89511108398438 C 299.21136474609375 212.74046325683594 323.5906982421875 227.33872985839844 315.8757629394531 255.3232421875 C 311.7617492675781 254.33578491210938 310.4769287109375 255.6187286376953 304.5295104980469 255.0540771484375 C 301.36407470703125 258.2064514160156 294.6435546875 258.4068908691406 280.9410095214844 256.0257568359375 C 279.2428894042969 226.6934051513672 284.3626403808594 217.5901641845703 299.4803466796875 197.46432495117188" stroke-width="0.0" fill="url(#shape_29_fill)"/>
    <path d="M 0.0017611184157431126 -0.05108504742383957 C 4.495936870574951 0.4444188177585602 9.642463684082031 -0.4144017994403839 14.598886489868164 0.12318263947963715 C 15.789393424987793 0.4898897707462311 16.34857177734375 4.763156890869141 16.329837799072266 8.047160148620605 C 18.886659622192383 10.861557960510254 21.91329574584961 18.924909591674805 27.103303909301758 20.70587158203125 C 27.132488250732422 22.49823760986328 24.307537078857422 26.76036262512207 24.60032081604004 32.05842590332031 C 20.178510665893555 32.118961334228516 13.704479217529297 30.148950576782227 6.683211326599121 33.861236572265625 C 9.064680099487305 35.909576416015625 8.782424926757812 38.740116119384766 10.901463508605957 40.45146942138672 C 10.057098388671875 44.588783264160156 7.590597152709961 50.06568145751953 11.563807487487793 53.84255599975586 C 17.70944595336914 51.4127082824707 19.51727294921875 51.932247161865234 18.275272369384766 58.43212127685547 C 11.322521209716797 60.54091262817383 9.404402732849121 62.598388671875 0.20198309421539307 61.50267028808594 C -0.4199158549308777 39.96532440185547 -0.3544817268848419 19.754743576049805 0.0017611184157431126 -0.05108504742383957" stroke-width="0.0" fill="url(#shape_30_fill)"/>
    <path d="M 547.827392578125 70.23355102539062 C 545.9285888671875 77.53141784667969 576.62646484375 89.59156036376953 581.448974609375 91.64212799072266 C 580.8386840820312 92.6369857788086 577.275634765625 93.29145050048828 576.95947265625 98.18640899658203 C 573.26611328125 100.70852661132812 572.0723876953125 99.79674530029297 569.27734375 100.03645324707031 C 567.3756713867188 95.55134582519531 545.6978759765625 96.76075744628906 538.6138305664062 88.39096069335938 C 538.5875244140625 85.44123840332031 537.7341918945312 83.16035461425781 535.6898193359375 82.3762435913086 C 534.6602172851562 79.70851135253906 528.1898193359375 79.63561248779297 527.079833984375 78.36843872070312 C 525.247314453125 75.79078674316406 527.7341918945312 70.8112564086914 532.1044311523438 68.98500061035156 C 539.0979614257812 66.77093505859375 542.2428588867188 71.72425842285156 547.827392578125 70.23355102539062" stroke-width="0.0" fill="url(#shape_31_fill)"/>
    <path d="M 447.2590637207031 264.4079895019531 C 450.6764221191406 265.26483154296875 451.3006286621094 266.72271728515625 455.89666748046875 267.7118835449219 C 460.5113830566406 267.6551208496094 465.32232666015625 270.3759765625 469.92889404296875 273.1723937988281 C 470.4331359863281 275.6319580078125 471.82733154296875 276.8908386230469 471.6768798828125 280.7685546875 C 451.38043212890625 288.291259765625 429.9211730957031 284.4250183105469 415.92083740234375 285.0387878417969 C 413.4388122558594 273.90875244140625 415.1376037597656 272.341064453125 415.62615966796875 268.2166748046875 C 418.1906433105469 267.2078552246094 417.7736511230469 264.80517578125 419.35400390625 263.0951232910156 C 435.9300537109375 253.69200134277344 446.5279235839844 253.51211547851562 447.2590637207031 264.4079895019531" stroke-width="0.0" fill="url(#shape_32_fill)"/>
    <path d="M 272.2650451660156 192.4517822265625 C 276.30694580078125 192.13662719726562 286.1391906738281 243.67222595214844 281.1846008300781 245.0328369140625 C 279.39599609375 247.4246826171875 273.8658142089844 246.84088134765625 269.6746826171875 248.6186981201172 C 266.38580322265625 246.0161590576172 266.73895263671875 242.11550903320312 261.2130432128906 240.6785430908203 C 254.25267028808594 209.9715118408203 262.3220520019531 206.911865234375 272.2650451660156 192.4517822265625" stroke-width="0.0" fill="url(#shape_33_fill)"/>
    <path d="M 264.1239929199219 415.5467224121094 C 262.275634765625 423.82855224609375 264.9178771972656 430.544189453125 267.9590148925781 440.4923095703125 C 262.18096923828125 440.9156188964844 261.0826721191406 446.6109924316406 256.5670166015625 447.8369445800781 C 245.91448974609375 445.790771484375 217.63018798828125 448.2885437011719 212.56088256835938 444.7818908691406 C 213.02450561523438 436.99578857421875 213.95974731445312 436.2222900390625 215.96221923828125 434.521728515625 C 216.23341369628906 433.4527587890625 225.0304412841797 433.5284423828125 226.63043212890625 430.4193115234375 C 228.50804138183594 419.7656555175781 239.1006317138672 420.1421203613281 264.1239929199219 415.5467224121094" stroke-width="0.0" fill="url(#shape_34_fill)"/>
    <path d="M 106.01687622070312 69.79517364501953 C 109.77336120605469 69.76631927490234 111.41620635986328 79.13861846923828 112.45479583740234 85.06778717041016 C 117.07482147216797 85.95000457763672 117.35964965820312 110.27426147460938 117.88528442382812 110.79701232910156 C 116.79258728027344 112.63019561767578 111.23796081542969 114.44354248046875 106.98365020751953 124.24775695800781 C 104.70941925048828 117.19164276123047 96.51751708984375 118.8134765625 90.06385803222656 111.85822296142578 C 88.39872741699219 85.57565307617188 105.22065734863281 84.51708221435547 106.01687622070312 69.79517364501953" stroke-width="0.0" fill="url(#shape_35_fill)"/>
    <path d="M 451.3764953613281 178.4683837890625 C 453.3171081542969 176.39991760253906 456.4296569824219 177.67544555664062 455.55621337890625 180.25881958007812 C 456.27777099609375 180.6995086669922 455.7659912109375 185.1790008544922 456.5789489746094 185.88352966308594 C 455.85516357421875 188.61065673828125 458.81060791015625 194.27227783203125 459.6572570800781 204.5087432861328 C 459.34326171875 208.46182250976562 451.8232116699219 209.34988403320312 446.0323486328125 204.48829650878906 C 441.9500732421875 207.3987274169922 440.7021179199219 208.79161071777344 433.2809143066406 210.9579620361328 C 434.6216125488281 209.91787719726562 437.0626525878906 189.19400024414062 438.393798828125 179.12405395507812 C 440.4723205566406 179.4019317626953 444.1444396972656 181.25711059570312 446.5527648925781 180.74815368652344 C 447.7578125 179.33460998535156 450.0994567871094 179.5741729736328 451.3764953613281 178.4683837890625" stroke-width="0.0" fill="url(#shape_36_fill)"/>
    <path d="M 557.4266967773438 84.42636108398438 C 561.9703979492188 80.96641540527344 578.5135498046875 82.65473937988281 580.0684204101562 85.88190460205078 C 581.4085693359375 83.8330307006836 586.3316040039062 85.57521057128906 587.313720703125 88.73461151123047 C 595.9015502929688 100.81362915039062 588.1575927734375 108.66998291015625 574.3790283203125 100.3519287109375 C 573.7879638671875 99.4506607055664 552.7131958007812 95.69969177246094 543.761474609375 85.4291763305664 C 538.5230102539062 85.51502227783203 537.8289184570312 82.00263214111328 535.942626953125 80.24151611328125 C 542.8533935546875 74.97872161865234 547.5411376953125 78.56339263916016 557.4266967773438 84.42636108398438" stroke-width="0.0" fill="url(#shape_37_fill)"/>
    <path d="M 251.98377990722656 208.16671752929688 C 265.2933044433594 211.54205322265625 261.5147705078125 239.5709686279297 260.2122497558594 247.72662353515625 C 259.4638366699219 254.5985107421875 251.0059356689453 254.54742431640625 249.41458129882812 257.4975891113281 C 234.35299682617188 237.20669555664062 240.7093048095703 214.13710021972656 251.98377990722656 208.16671752929688" stroke-width="0.0" fill="url(#shape_38_fill)"/>
    <path d="M 443.1783142089844 263.42828369140625 C 446.01055908203125 263.4421081542969 449.1615905761719 266.59173583984375 447.7754821777344 270.05859375 C 444.3692932128906 270.3648376464844 442.6312561035156 277.1337585449219 440.75042724609375 278.692138671875 C 439.77728271484375 286.3958740234375 425.01239013671875 284.7421569824219 418.16473388671875 276.16448974609375 C 414.5347595214844 276.7852783203125 413.3379211425781 274.3304138183594 416.0110168457031 271.64471435546875 C 415.18402099609375 269.9460144042969 419.2389831542969 262.1826477050781 425.9778747558594 258.2742919921875 C 426.8989562988281 256.578857421875 438.44195556640625 257.9851379394531 443.1783142089844 263.42828369140625" stroke-width="0.0" fill="url(#shape_39_fill)"/>
    <path d="M 407.7226867675781 409.80401611328125 C 408.6783752441406 409.8883361816406 416.7821960449219 419.04913330078125 413.7167053222656 424.2151184082031 C 399.7618408203125 436.0674743652344 385.8752136230469 420.3042297363281 376.607666015625 420.8523254394531 C 371.0889892578125 417.9556884765625 371.2391662597656 416.5549011230469 372.59454345703125 410.4053649902344 C 375.0748291015625 401.1255187988281 394.5679016113281 403.77783203125 407.7226867675781 409.80401611328125" stroke-width="0.0" fill="url(#shape_40_fill)"/>
    <path d="M 66.4418716430664 427.56646728515625 C 67.36213684082031 429.087646484375 64.67645263671875 434.1585998535156 58.78756332397461 435.69976806640625 C 57.46010208129883 436.75091552734375 39.743141174316406 436.47137451171875 31.80597686767578 442.7483215332031 C 29.292287826538086 443.451904296875 27.350475311279297 444.0039367675781 17.232463836669922 443.0869445800781 C 16.442829132080078 440.6489562988281 17.810161590576172 439.2065124511719 17.302350997924805 437.84979248046875 C 34.86296081542969 427.333740234375 54.506614685058594 427.8707275390625 66.4418716430664 427.56646728515625" stroke-width="0.0" fill="url(#shape_41_fill)"/>
    <path d="M 278.3123474121094 380.9947204589844 C 284.6563720703125 381.2614440917969 297.92193603515625 381.2175598144531 305.2298278808594 385.40155029296875 C 297.26556396484375 394.9272155761719 299.32281494140625 400.9591979980469 294.4065246582031 405.06561279296875 C 291.74053955078125 399.8215637207031 265.83514404296875 405.5389709472656 258.7654113769531 406.9237976074219 C 249.08407592773438 404.0374755859375 246.01319885253906 393.9571838378906 248.24124145507812 382.7083435058594 C 260.8851623535156 381.0163269042969 267.3858947753906 382.04193115234375 278.3123474121094 380.9947204589844" stroke-width="0.0" fill="url(#shape_42_fill)"/>
    <path d="M 222.65179443359375 213.8778839111328 C 223.90806579589844 212.79689025878906 236.44894409179688 212.1776885986328 239.4115753173828 214.5591583251953 C 242.1670684814453 221.29879760742188 247.81671142578125 240.25559997558594 251.31600952148438 267.7059326171875 C 249.74058532714844 272.9200744628906 241.51844787597656 272.6950378417969 209.3219451904297 272.3642272949219 C 206.7821044921875 266.4339904785156 205.33670043945312 255.2919158935547 216.8112335205078 247.862548828125 C 219.39324951171875 246.4703369140625 218.17018127441406 226.42494201660156 222.65179443359375 213.8778839111328" stroke-width="0.0" fill="url(#shape_43_fill)"/>
    <path d="M 483.72589111328125 395.83905029296875 C 486.8036193847656 399.8058166503906 485.8133850097656 400.98394775390625 483.5073547363281 401.12652587890625 C 472.9814758300781 407.16485595703125 451.1646423339844 406.77740478515625 450.25213623046875 407.6461181640625 C 448.0871276855469 404.4154357910156 451.60186767578125 396.17388916015625 453.6175231933594 396.4996032714844 C 463.9932556152344 393.1169738769531 472.2836608886719 392.6025390625 483.72589111328125 395.83905029296875" stroke-width="0.0" fill="url(#shape_44_fill)"/>
    <path d="M 45.84038543701172 408.04022216796875 C 45.34918975830078 408.6966247558594 35.7478141784668 411.5281066894531 33.78691482543945 413.1612243652344 C 32.6435432434082 414.5294189453125 32.28303909301758 415.96630859375 28.455564498901367 415.17950439453125 C 27.506057739257812 417.1335144042969 24.976985931396484 417.85797119140625 21.5312557220459 420.5365905761719 C 18.280744552612305 420.1796569824219 0.16747808456420898 417.29168701171875 -0.7036957740783691 420.5563659667969 C 1.7697033882141113 419.5857849121094 -0.7141320705413818 411.1552734375 0.6837977766990662 410.31787109375 C 7.560242176055908 409.3307800292969 45.45707321166992 406.4559631347656 45.84038543701172 408.04022216796875" stroke-width="0.0" fill="url(#shape_45_fill)"/>
    <path d="M 452.0262145996094 175.09478759765625 C 454.24444580078125 174.9893341064453 464.70416259765625 198.74581909179688 465.9742736816406 199.8074951171875 C 462.6036071777344 209.54434204101562 451.6295166015625 209.4571075439453 449.46990966796875 206.6623992919922 C 448.3229675292969 203.25294494628906 449.0331115722656 198.31521606445312 448.84991455078125 195.2997283935547 C 447.953857421875 194.5563201904297 447.5978088378906 192.12855529785156 448.51287841796875 188.01577758789062 C 451.0146484375 186.64981079101562 450.6947937011719 182.9658660888672 452.0262145996094 175.09478759765625" stroke-width="0.0" fill="url(#shape_46_fill)"/>
    <path d="M 372.87689208984375 185.18368530273438 C 379.0117492675781 196.1339569091797 380.2557678222656 202.56744384765625 371.4275207519531 206.00216674804688 C 365.8646545410156 206.82177734375 364.772216796875 204.85675048828125 362.0378723144531 205.05836486816406 C 344.00665283203125 208.74185180664062 340.79754638671875 200.75576782226562 353.8278503417969 188.44093322753906 C 356.66119384765625 184.96939086914062 358.3702087402344 184.4152374267578 368.11248779296875 185.46998596191406 C 368.9517517089844 183.3054962158203 372.3968200683594 183.6897735595703 372.87689208984375 185.18368530273438" stroke-width="0.0" fill="url(#shape_47_fill)"/>
    <path d="M 471.4528503417969 263.6040344238281 C 474.96160888671875 267.7153625488281 480.598876953125 269.23712158203125 480.4217834472656 284.6036071777344 C 464.9445495605469 287.4206237792969 451.78857421875 286.5214538574219 443.94415283203125 284.9190368652344 C 439.3188781738281 282.22479248046875 440.00201416015625 276.95806884765625 441.1663513183594 276.44769287109375 C 448.5517578125 266.6699523925781 455.1325988769531 263.0114440917969 471.4528503417969 263.6040344238281" stroke-width="0.0" fill="url(#shape_48_fill)"/>
    <path d="M 177.23574829101562 117.3038330078125 C 178.06605529785156 115.55892181396484 181.8148193359375 116.18114471435547 182.6741943359375 117.29659271240234 C 184.67945861816406 120.25769805908203 183.85018920898438 122.35291290283203 184.75135803222656 122.93222045898438 C 179.58140563964844 126.68914031982422 185.81382751464844 136.54608154296875 182.8693389892578 139.55532836914062 C 181.4707489013672 146.55511474609375 172.81182861328125 146.23313903808594 171.9893798828125 146.73391723632812 C 171.63209533691406 127.02983093261719 170.7487335205078 124.59911346435547 177.23574829101562 117.3038330078125" stroke-width="0.0" fill="url(#shape_49_fill)"/>
    <path d="M 333.7903137207031 428.0125732421875 C 337.1844787597656 428.7684631347656 341.4183654785156 428.9159851074219 343.0802001953125 431.90472412109375 C 346.36383056640625 435.5907897949219 345.1606750488281 437.22564697265625 342.444091796875 437.596435546875 C 342.8218078613281 446.6640625 324.9935607910156 448.786865234375 323.3033752441406 443.22344970703125 C 320.2949523925781 435.68621826171875 319.8468017578125 433.0779113769531 307.907958984375 429.51214599609375 C 321.42767333984375 426.7493896484375 328.6673889160156 428.7680358886719 333.7903137207031 428.0125732421875" stroke-width="0.0" fill="url(#shape_50_fill)"/>
    <path d="M 303.7784118652344 388.9527587890625 C 301.16802978515625 393.7633972167969 293.5843811035156 397.9765319824219 291.8152770996094 398.64385986328125 C 279.0388488769531 397.4342041015625 277.9789733886719 399.14813232421875 271.33154296875 402.5362854003906 C 271.10906982421875 401.6125183105469 269.6920471191406 398.9577941894531 271.181640625 397.4855041503906 C 270.0086975097656 395.51678466796875 273.0707702636719 388.13226318359375 279.7701110839844 387.8823547363281 C 284.46160888671875 386.5566101074219 288.625732421875 390.964599609375 303.7784118652344 388.9527587890625" stroke-width="0.0" fill="url(#shape_51_fill)"/>
    <path d="M 268.9833679199219 183.91494750976562 C 275.9182434082031 195.13702392578125 277.8359375 207.67083740234375 279.9716491699219 217.33950805664062 C 271.5434875488281 210.31773376464844 269.2478942871094 208.15504455566406 261.0736083984375 215.6024627685547 C 257.44140625 207.84275817871094 263.8577880859375 196.87350463867188 266.5277099609375 195.2676544189453 C 269.6833801269531 194.26364135742188 268.9566650390625 191.7071075439453 268.9833679199219 183.91494750976562" stroke-width="0.0" fill="url(#shape_52_fill)"/>
    <path d="M 218.29653930664062 409.51544189453125 C 215.91058349609375 410.948486328125 215.63381958007812 413.272216796875 214.23440551757812 414.15667724609375 C 214.72544860839844 422.3008117675781 191.67587280273438 424.33306884765625 187.5274200439453 415.5697326660156 C 186.27684020996094 405.5216369628906 206.4751739501953 400.5420837402344 218.29653930664062 409.51544189453125" stroke-width="0.0" fill="url(#shape_53_fill)"/>
    <path d="M 205.873291015625 424.6172180175781 C 205.5093231201172 425.2740478515625 206.14154052734375 428.2804260253906 204.57156372070312 429.34649658203125 C 194.13873291015625 429.9708557128906 178.81533813476562 430.4060363769531 177.96849060058594 432.65399169921875 C 176.77377319335938 430.94940185546875 178.28228759765625 425.9505920410156 176.8646240234375 423.8992004394531 C 186.3329315185547 418.505126953125 194.11109924316406 422.8155822753906 205.873291015625 424.6172180175781" stroke-width="0.0" fill="url(#shape_54_fill)"/>
    <path d="M 268.9449768066406 246.7802734375 C 275.4383850097656 244.9347381591797 276.67095947265625 246.78155517578125 280.39752197265625 245.9638671875 C 280.7876281738281 250.97970581054688 280.1873779296875 252.42391967773438 285.8634948730469 261.48602294921875 C 263.45849609375 257.97216796875 262.92706298828125 257.272705078125 252.25538635253906 262.7848205566406 C 254.86936950683594 248.17726135253906 255.87246704101562 247.23045349121094 258.66143798828125 245.1997833251953 C 260.46649169921875 239.40589904785156 266.37548828125 239.6858367919922 268.9449768066406 246.7802734375" stroke-width="0.0" fill="url(#shape_55_fill)"/>
    <path d="M 276.4033203125 351.7708435058594 C 278.6885681152344 363.5971374511719 283.7011413574219 363.18707275390625 284.6106872558594 368.06317138671875 C 285.40301513671875 369.2344970703125 285.9776611328125 371.83050537109375 285.7453918457031 381.1868896484375 C 275.5882873535156 379.2421875 262.3819274902344 381.7154235839844 243.7744903564453 383.6047058105469 C 239.53089904785156 382.0093078613281 239.20973205566406 360.86376953125 239.70098876953125 353.54583740234375 C 248.79074096679688 351.9155578613281 256.361083984375 350.9654541015625 276.4033203125 351.7708435058594" stroke-width="0.0" fill="url(#shape_56_fill)"/>
    <path d="M 408.81915283203125 270.929931640625 C 415.7102355957031 268.989501953125 418.19903564453125 273.1629333496094 421.0049133300781 279.6651916503906 C 413.0296630859375 286.2237548828125 404.14837646484375 282.2030029296875 380.8892517089844 278.58905029296875 C 379.6440124511719 264.84521484375 388.4192199707031 263.5339660644531 408.81915283203125 270.929931640625" stroke-width="0.0" fill="url(#shape_57_fill)"/>
    <path d="M 632.0548095703125 351.6798095703125 C 632.9799194335938 354.8917541503906 659.8927612304688 353.8533935546875 668.61767578125 354.0127868652344 C 668.4948120117188 358.5054016113281 662.9880981445312 360.5279846191406 660.0675659179688 357.3860168457031 C 650.0551147460938 355.3954162597656 634.4993896484375 360.03564453125 631.5252075195312 360.615478515625 C 627.7921142578125 357.0955810546875 629.3468627929688 353.5855407714844 632.0548095703125 351.6798095703125" stroke-width="0.0" fill="url(#shape_58_fill)"/>
    <path d="M 341.3058166503906 384.9927978515625 C 342.80126953125 390.2425842285156 358.1328125 391.7468566894531 359.1856689453125 394.71258544921875 C 356.440185546875 398.14605712890625 339.1644287109375 401.87060546875 338.4495544433594 399.5280456542969 C 335.1372375488281 399.61480712890625 333.0762939453125 398.7789306640625 331.8567810058594 396.5368957519531 C 331.987548828125 394.93994140625 330.75286865234375 393.4737243652344 332.3321228027344 390.60430908203125 C 333.0692443847656 385.0292053222656 336.57843017578125 384.10699462890625 341.3058166503906 384.9927978515625" stroke-width="0.0" fill="url(#shape_59_fill)"/>
    <path d="M 459.4834899902344 363.4386291503906 C 462.65411376953125 364.84765625 472.4367370605469 370.1292419433594 473.1233825683594 374.1888427734375 C 471.798828125 376.2058410644531 470.3335876464844 376.87200927734375 463.0562438964844 375.9045104980469 C 458.4969177246094 377.25341796875 457.66107177734375 377.01495361328125 452.7508544921875 370.947021484375 C 453.275390625 369.93267822265625 460.1569519042969 365.9048767089844 459.4834899902344 363.4386291503906" stroke-width="0.0" fill="url(#shape_60_fill)"/>
    <path d="M 434.37530517578125 432.9878845214844 C 440.0726013183594 434.3240051269531 442.4565124511719 436.496337890625 442.0276794433594 438.779296875 C 440.3709411621094 441.4767150878906 429.33489990234375 440.2051086425781 425.7418518066406 442.4188537597656 C 422.47198486328125 438.884765625 423.9128723144531 434.6147155761719 412.5033264160156 425.8879089355469 C 428.1905822753906 428.9554138183594 430.9880065917969 434.2601013183594 434.37530517578125 432.9878845214844" stroke-width="0.0" fill="url(#shape_61_fill)"/>
    <path d="M 185.42201232910156 411.4505920410156 C 186.26527404785156 413.93170166015625 185.00714111328125 414.7928771972656 186.92344665527344 417.6968688964844 C 184.86643981933594 420.1839294433594 183.39773559570312 419.51702880859375 182.49237060546875 419.7197265625 C 180.80984497070312 421.6415710449219 174.4307403564453 420.2593688964844 171.34222412109375 420.1791076660156 C 169.55087280273438 417.8124084472656 169.7645263671875 415.6317443847656 173.8465576171875 413.2682800292969 C 176.4622039794922 412.4906005859375 181.32412719726562 410.6766662597656 185.42201232910156 411.4505920410156" stroke-width="0.0" fill="url(#shape_62_fill)"/>
    <path d="M 332.27703857421875 418.6542053222656 C 334.82354736328125 426.1006774902344 329.8802490234375 427.9291687011719 327.2703552246094 425.9491882324219 C 324.5816955566406 427.7713623046875 322.99456787109375 426.7266845703125 320.8414611816406 427.5714111328125 C 318.7846374511719 426.026123046875 319.7464294433594 419.9826354980469 317.51348876953125 418.4720153808594 C 319.0133056640625 419.9836120605469 326.0504455566406 418.7323303222656 332.27703857421875 418.6542053222656" stroke-width="0.0" fill="url(#shape_63_fill)"/>
    <path d="M 55.415523529052734 273.38824462890625 C 56.561622619628906 269.42724609375 66.01579284667969 269.8038024902344 65.70760345458984 278.3061828613281 C 59.11976623535156 279.29095458984375 53.48752975463867 273.0975036621094 48.139564514160156 276.0909729003906 C 49.955509185791016 273.0527648925781 52.375938415527344 272.5547790527344 55.415523529052734 273.38824462890625" stroke-width="0.0" fill="url(#shape_64_fill)"/>
    <path d="M 304.5452575683594 439.2254638671875 C 304.5442199707031 437.3646545410156 306.1839904785156 436.2501220703125 313.0470886230469 437.36004638671875 C 314.7434387207031 438.8620300292969 313.0292053222656 441.4482727050781 311.4339904785156 442.2734069824219 C 307.93316650390625 445.347900390625 306.6372985839844 444.2362060546875 305.31048583984375 444.46319580078125 C 302.8482971191406 441.66217041015625 302.7607421875 439.7637634277344 304.5452575683594 439.2254638671875" stroke-width="0.0" fill="url(#shape_65_fill)"/>
    <path d="M -0.45345813035964966 -0.41037610173225403 C 224.63800048828125 -0.1231292262673378 444.0501708984375 0.38256704807281494 672.9614868164062 0.643743634223938 C 673.6234130859375 153.6398162841797 674.617919921875 296.05218505859375 673.6041870117188 445.49505615234375 C 450.4712829589844 446.3305358886719 230.61972045898438 446.25848388671875 0.5314865708351135 445.3442077636719 C 0.23143494129180908 297.0661926269531 -0.13056765496730804 149.06285095214844 -0.45345813035964966 -0.41037610173225403" stroke-width="0.0" fill="url(#shape_66_fill)"/>
    <path d="M -1.0170670747756958 -0.15839485824108124 C 222.49798583984375 -0.10933218151330948 443.25347900390625 0.35662153363227844 672.9575805664062 -0.08051592856645584 C 673.7403564453125 153.85565185546875 674.6815795898438 295.3411560058594 673.302001953125 445.3978576660156 C 450.71820068359375 446.41058349609375 230.73812866210938 446.3082580566406 0.6768994331359863 445.2489318847656 C 0.16022509336471558 297.1107177734375 -0.24326691031455994 148.84725952148438 -1.0170670747756958 -0.15839485824108124" stroke-width="0.0" fill="url(#shape_67_fill)"/>
    <path d="M -0.6668789982795715 -0.20817650854587555 C 222.93370056152344 -0.1317278891801834 442.3401794433594 0.4989822208881378 672.9614868164062 -0.19715948402881622 C 673.734130859375 153.84317016601562 674.6822509765625 295.3382568359375 673.3076782226562 445.3998718261719 C 450.7295227050781 446.4110412597656 230.76776123046875 446.30804443359375 1.2408796548843384 445.22772216796875 C 0.5119690895080566 295.569091796875 0.06672936677932739 148.51016235351562 -0.6668789982795715 -0.20817650854587555" stroke-width="0.0" fill="url(#shape_68_fill)"/>
  </g>
</svg>
