<?xml version="1.0" ?>
<svg xmlns="http://www.w3.org/2000/svg" version="1.1" width="674" height="446">
  <defs>
    <radialGradient id="shape_0_fill" cx="0.530965335291288" cy="0.7385318910059907" r="0.28299733510003244">
      <stop offset="0.70979977" stop-color="rgb(158, 165, 0)" stop-opacity="0.8348199725151062"/>
      <stop offset="1.0" stop-color="rgb(48, 40, 0)" stop-opacity="0.977726936340332"/>
    </radialGradient>
    <radialGradient id="shape_1_fill" cx="0.532140126214183" cy="0.7434396102289448" r="0.20669141367564214">
      <stop offset="0.3296382" stop-color="rgb(64, 55, 77)" stop-opacity="0.721774697303772"/>
      <stop offset="0.962411" stop-color="rgb(35, 5, 0)" stop-opacity="0.5980280041694641"/>
    </radialGradient>
    <radialGradient id="shape_2_fill" cx="0.09792273546892387" cy="0.7376672719091578" r="0.22062588021026522">
      <stop offset="0.010060553" stop-color="rgb(53, 116, 190)" stop-opacity="0.8338981866836548"/>
      <stop offset="1.0" stop-color="rgb(1, 84, 255)" stop-opacity="0.8887891173362732"/>
    </radialGradient>
    <radialGradient id="shape_3_fill" cx="0.27871056621789225" cy="0.21486246425474706" r="0.13271600061071379">
      <stop offset="0.40834254" stop-color="rgb(127, 169, 0)" stop-opacity="0.767213761806488"/>
      <stop offset="1.0" stop-color="rgb(35, 29, 0)" stop-opacity="0.9242606163024902"/>
    </radialGradient>
    <radialGradient id="shape_4_fill" cx="0.1543026706231454" cy="0.9977578475336323" r="0.10288926755639141">
      <stop offset="0.0" stop-color="rgb(81, 79, 86)" stop-opacity="1.0"/>
      <stop offset="1.0" stop-color="rgb(47, 34, 61)" stop-opacity="0.8447954058647156"/>
    </radialGradient>
    <radialGradient id="shape_5_fill" cx="0.14807964290992442" cy="0.23997249517740155" r="0.11810664960821587">
      <stop offset="0.0" stop-color="rgb(255, 255, 255)" stop-opacity="0.6465655565261841"/>
      <stop offset="0.5626593" stop-color="rgb(255, 255, 255)" stop-opacity="0.5128157734870911"/>
    </radialGradient>
    <radialGradient id="shape_6_fill" cx="0.18397626112759644" cy="0.9977578475336323" r="0.0754974885934892">
      <stop offset="0.0" stop-color="rgb(93, 90, 94)" stop-opacity="1.0"/>
      <stop offset="1.0" stop-color="rgb(151, 128, 135)" stop-opacity="0.8394612073898315"/>
    </radialGradient>
    <radialGradient id="shape_7_fill" cx="0.2893175074183976" cy="0.05829596412556054" r="0.08666390552011372">
      <stop offset="0.0" stop-color="rgb(55, 66, 29)" stop-opacity="1.0"/>
      <stop offset="1.0" stop-color="rgb(123, 130, 58)" stop-opacity="0.5715100765228271"/>
    </radialGradient>
    <radialGradient id="shape_8_fill" cx="0.3382789091115889" cy="0.9439461883408071" r="0.06756690277190167">
      <stop offset="0.0" stop-color="rgb(91, 124, 45)" stop-opacity="1.0"/>
      <stop offset="1.0" stop-color="rgb(79, 130, 0)" stop-opacity="0.544403076171875"/>
    </radialGradient>
    <radialGradient id="shape_9_fill" cx="0.30712166172106825" cy="0.9977578475336323" r="0.0730758406641929">
      <stop offset="0.0" stop-color="rgb(38, 48, 20)" stop-opacity="1.0"/>
      <stop offset="1.0" stop-color="rgb(35, 26, 53)" stop-opacity="1.0"/>
    </radialGradient>
    <radialGradient id="shape_10_fill" cx="0.3056379821958457" cy="0.9977578475336323" r="0.06792919147615971">
      <stop offset="0.0" stop-color="rgb(39, 49, 21)" stop-opacity="1.0"/>
      <stop offset="1.0" stop-color="rgb(32, 4, 0)" stop-opacity="0.6419658064842224"/>
    </radialGradient>
    <radialGradient id="shape_11_fill" cx="0.21810089020771514" cy="0.968609865470852" r="0.06792919147615971">
      <stop offset="0.0" stop-color="rgb(138, 135, 129)" stop-opacity="1.0"/>
      <stop offset="1.0" stop-color="rgb(112, 58, 34)" stop-opacity="0.38894614577293396"/>
    </radialGradient>
    <radialGradient id="shape_12_fill" cx="0.29080118694362017" cy="0.9977578475336323" r="0.07480746985189285">
      <stop offset="0.0" stop-color="rgb(22, 25, 13)" stop-opacity="1.0"/>
      <stop offset="1.0" stop-color="rgb(39, 30, 16)" stop-opacity="1.0"/>
    </radialGradient>
    <radialGradient id="shape_13_fill" cx="0.327893175074184" cy="0.8923766816143498" r="0.06900465877544279">
      <stop offset="0.0" stop-color="rgb(89, 117, 50)" stop-opacity="1.0"/>
      <stop offset="1.0" stop-color="rgb(92, 118, 7)" stop-opacity="0.6325801610946655"/>
    </radialGradient>
    <radialGradient id="shape_14_fill" cx="0.142433234421365" cy="0.9977578475336323" r="0.06617211022079875">
      <stop offset="0.0" stop-color="rgb(155, 150, 153)" stop-opacity="1.0"/>
      <stop offset="1.0" stop-color="rgb(255, 130, 129)" stop-opacity="0.22192686796188354"/>
    </radialGradient>
    <radialGradient id="shape_15_fill" cx="0.31008902077151335" cy="0.9977578475336323" r="0.06683642786405207">
      <stop offset="0.0" stop-color="rgb(43, 55, 23)" stop-opacity="1.0"/>
      <stop offset="1.0" stop-color="rgb(62, 65, 22)" stop-opacity="0.859856903553009"/>
    </radialGradient>
    <radialGradient id="shape_16_fill" cx="0.27299703264094954" cy="0.9977578475336323" r="0.08110449363640579">
      <stop offset="0.0" stop-color="rgb(31, 35, 19)" stop-opacity="1.0"/>
      <stop offset="1.0" stop-color="rgb(30, 22, 0)" stop-opacity="0.9380472898483276"/>
    </radialGradient>
    <radialGradient id="shape_17_fill" cx="0.2893175074183976" cy="0.9977578475336323" r="0.07513486030193747">
      <stop offset="0.0" stop-color="rgb(22, 23, 13)" stop-opacity="1.0"/>
      <stop offset="1.0" stop-color="rgb(26, 18, 0)" stop-opacity="0.8504571318626404"/>
    </radialGradient>
    <radialGradient id="shape_18_fill" cx="0.3293768545994065" cy="0.7556053811659192" r="0.06617211022079875">
      <stop offset="0.0" stop-color="rgb(83, 108, 65)" stop-opacity="1.0"/>
      <stop offset="1.0" stop-color="rgb(105, 119, 57)" stop-opacity="0.960705578327179"/>
    </radialGradient>
    <radialGradient id="shape_19_fill" cx="0.3516320474777448" cy="0.9977578475336323" r="0.06617211022079875">
      <stop offset="0.0" stop-color="rgb(95, 135, 39)" stop-opacity="1.0"/>
      <stop offset="1.0" stop-color="rgb(129, 183, 0)" stop-opacity="0.6341173648834229"/>
    </radialGradient>
    <radialGradient id="shape_20_fill" cx="0.0830860534124629" cy="0.9977578475336323" r="0.06792919147615971">
      <stop offset="0.0" stop-color="rgb(49, 52, 66)" stop-opacity="1.0"/>
      <stop offset="1.0" stop-color="rgb(47, 30, 67)" stop-opacity="0.4531514048576355"/>
    </radialGradient>
    <radialGradient id="shape_21_fill" cx="0.29821958456973297" cy="0.9977578475336323" r="0.06792919147615971">
      <stop offset="0.0" stop-color="rgb(33, 40, 17)" stop-opacity="1.0"/>
      <stop offset="1.0" stop-color="rgb(51, 64, 0)" stop-opacity="0.7099323272705078"/>
    </radialGradient>
    <radialGradient id="shape_22_fill" cx="0.3563326600751113" cy="0.44372438849889645" r="0.06594546966099951">
      <stop offset="0.52384716" stop-color="rgb(110, 133, 43)" stop-opacity="1.0"/>
      <stop offset="0.38891584" stop-color="rgb(146, 171, 41)" stop-opacity="0.9131006002426147"/>
    </radialGradient>
    <radialGradient id="shape_23_fill" cx="0.6454005934718101" cy="0.1412556053811659" r="0.06617211022079875">
      <stop offset="0.0" stop-color="rgb(46, 38, 13)" stop-opacity="1.0"/>
      <stop offset="1.0" stop-color="rgb(55, 27, 1)" stop-opacity="0.8848122954368591"/>
    </radialGradient>
    <radialGradient id="shape_24_fill" cx="0.2492550586734398" cy="0.4843076355254169" r="0.06616971047059012">
      <stop offset="0.0" stop-color="rgb(205, 213, 206)" stop-opacity="1.0"/>
      <stop offset="0.92454517" stop-color="rgb(255, 255, 255)" stop-opacity="0.32756543159484863"/>
    </radialGradient>
    <radialGradient id="shape_25_fill" cx="0.6320474777448071" cy="0.9977578475336323" r="0.06617211022079875">
      <stop offset="0.0" stop-color="rgb(35, 28, 8)" stop-opacity="1.0"/>
      <stop offset="1.0" stop-color="rgb(40, 15, 0)" stop-opacity="0.9359259009361267"/>
    </radialGradient>
    <radialGradient id="shape_26_fill" cx="0.15414520399506793" cy="0.3207086811151205" r="0.06604698362265567">
      <stop offset="0.11989566" stop-color="rgb(198, 211, 155)" stop-opacity="1.0"/>
      <stop offset="0.58338004" stop-color="rgb(164, 143, 110)" stop-opacity="0.38810819387435913"/>
    </radialGradient>
    <radialGradient id="shape_27_fill" cx="0.15410647972401242" cy="0.3208032787648017" r="0.06604505929465818">
      <stop offset="0.0" stop-color="rgb(192, 205, 0)" stop-opacity="1.0"/>
      <stop offset="0.49375948" stop-color="rgb(30, 21, 13)" stop-opacity="0.4136044681072235"/>
    </radialGradient>
    <radialGradient id="shape_28_fill" cx="0.033413598374726156" cy="0.014418702489057463" r="0.07366745266787023">
      <stop offset="0.09317042" stop-color="rgb(9, 19, 111)" stop-opacity="0.9374828934669495"/>
      <stop offset="0.8316621" stop-color="rgb(8, 14, 143)" stop-opacity="0.6904904246330261"/>
    </radialGradient>
    <radialGradient id="shape_29_fill" cx="0.33976258863681147" cy="0.6659192825112108" r="0.06617211022079875">
      <stop offset="0.0" stop-color="rgb(90, 117, 55)" stop-opacity="1.0"/>
      <stop offset="1.0" stop-color="rgb(107, 128, 29)" stop-opacity="0.8677670955657959"/>
    </radialGradient>
    <radialGradient id="shape_30_fill" cx="0.03864839593451525" cy="0.015931565665343417" r="0.06969873558519855">
      <stop offset="0.1752531" stop-color="rgb(51, 69, 76)" stop-opacity="1.0"/>
      <stop offset="0.93296134" stop-color="rgb(67, 64, 0)" stop-opacity="0.4897027909755707"/>
    </radialGradient>
    <radialGradient id="shape_31_fill" cx="0.12314540059347182" cy="0.9977578475336323" r="0.06617211022079875">
      <stop offset="0.0" stop-color="rgb(95, 103, 98)" stop-opacity="1.0"/>
      <stop offset="1.0" stop-color="rgb(137, 117, 108)" stop-opacity="0.726332426071167"/>
    </radialGradient>
    <radialGradient id="shape_32_fill" cx="0.4035608308605341" cy="0.984304932735426" r="0.06617211022079875">
      <stop offset="0.0" stop-color="rgb(126, 155, 63)" stop-opacity="1.0"/>
      <stop offset="1.0" stop-color="rgb(74, 33, 1)" stop-opacity="0.43054962158203125"/>
    </radialGradient>
    <radialGradient id="shape_33_fill" cx="0.3249258160237389" cy="0.6053811659192825" r="0.06617211022079875">
      <stop offset="1.5749225e-05" stop-color="rgb(93, 124, 71)" stop-opacity="0.999808132648468"/>
      <stop offset="1.0" stop-color="rgb(124, 138, 58)" stop-opacity="1.0"/>
    </radialGradient>
    <radialGradient id="shape_34_fill" cx="0.6468842729970327" cy="0.531390134529148" r="0.06617211022079875">
      <stop offset="0.0" stop-color="rgb(54, 47, 24)" stop-opacity="1.0"/>
      <stop offset="1.0" stop-color="rgb(41, 2, 37)" stop-opacity="0.3557575047016144"/>
    </radialGradient>
    <radialGradient id="shape_35_fill" cx="0.15178737017804153" cy="0.23676043454841647" r="0.06558836532275825">
      <stop offset="0.12305287" stop-color="rgb(213, 255, 99)" stop-opacity="0.12096279859542847"/>
      <stop offset="0.5080077" stop-color="rgb(106, 71, 67)" stop-opacity="0.884039044380188"/>
    </radialGradient>
    <radialGradient id="shape_36_fill" cx="0.2878338278931751" cy="0.9977578475336323" r="0.06617211022079875">
      <stop offset="0.0" stop-color="rgb(80, 96, 53)" stop-opacity="1.0"/>
      <stop offset="1.0" stop-color="rgb(19, 12, 0)" stop-opacity="0.7788668870925903"/>
    </radialGradient>
    <radialGradient id="shape_37_fill" cx="0.129080118694362" cy="0.9977578475336323" r="0.06617211022079875">
      <stop offset="0.0" stop-color="rgb(87, 97, 81)" stop-opacity="1.0"/>
      <stop offset="1.0" stop-color="rgb(61, 60, 57)" stop-opacity="0.5948535203933716"/>
    </radialGradient>
    <radialGradient id="shape_38_fill" cx="0.33892324204260943" cy="0.5607740119968294" r="0.0666785763703751">
      <stop offset="0.7501433" stop-color="rgb(88, 107, 30)" stop-opacity="0.9308351278305054"/>
      <stop offset="0.6022492" stop-color="rgb(165, 244, 80)" stop-opacity="0.8741973042488098"/>
    </radialGradient>
    <radialGradient id="shape_39_fill" cx="0.40059347181008903" cy="0.9641255605381166" r="0.06617211022079875">
      <stop offset="0.0" stop-color="rgb(138, 168, 60)" stop-opacity="1.0"/>
      <stop offset="1.0" stop-color="rgb(222, 255, 83)" stop-opacity="0.8052492737770081"/>
    </radialGradient>
    <radialGradient id="shape_40_fill" cx="0.609837110389234" cy="0.8739771821573711" r="0.07272892394476192">
      <stop offset="0.36680174" stop-color="rgb(162, 144, 174)" stop-opacity="0.24964001774787903"/>
      <stop offset="0.53351194" stop-color="rgb(1, 3, 55)" stop-opacity="0.716374397277832"/>
    </radialGradient>
    <radialGradient id="shape_41_fill" cx="0.6454005934718101" cy="0.08744394618834081" r="0.06617211022079875">
      <stop offset="0.0" stop-color="rgb(58, 48, 21)" stop-opacity="1.0"/>
      <stop offset="1.0" stop-color="rgb(93, 59, 25)" stop-opacity="1.0"/>
    </radialGradient>
    <radialGradient id="shape_42_fill" cx="0.5845697329376854" cy="0.6188340807174888" r="0.06617211022079875">
      <stop offset="0.0" stop-color="rgb(62, 59, 56)" stop-opacity="1.0"/>
      <stop offset="1.0" stop-color="rgb(43, 33, 82)" stop-opacity="0.6257842779159546"/>
    </radialGradient>
    <radialGradient id="shape_43_fill" cx="0.35421872917197933" cy="0.5017701221688446" r="0.07032243292834002">
      <stop offset="0.24440673" stop-color="rgb(121, 149, 54)" stop-opacity="0.9183930158615112"/>
      <stop offset="0.622372" stop-color="rgb(202, 251, 22)" stop-opacity="0.7242187261581421"/>
    </radialGradient>
    <radialGradient id="shape_44_fill" cx="0.5934718100890207" cy="0.9977578475336323" r="0.06617211022079875">
      <stop offset="0.0" stop-color="rgb(89, 61, 18)" stop-opacity="1.0"/>
      <stop offset="1.0" stop-color="rgb(166, 76, 7)" stop-opacity="0.6771137118339539"/>
    </radialGradient>
    <radialGradient id="shape_45_fill" cx="0.612759643916914" cy="0.04035874439461883" r="0.06617211022079875">
      <stop offset="0.0" stop-color="rgb(157, 136, 123)" stop-opacity="1.0"/>
      <stop offset="1.0" stop-color="rgb(255, 215, 205)" stop-opacity="1.0"/>
    </radialGradient>
    <radialGradient id="shape_46_fill" cx="0.28635014836795253" cy="0.9977578475336323" r="0.06617211022079875">
      <stop offset="0.0" stop-color="rgb(82, 99, 55)" stop-opacity="1.0"/>
      <stop offset="1.0" stop-color="rgb(91, 92, 31)" stop-opacity="0.5632761120796204"/>
    </radialGradient>
    <radialGradient id="shape_47_fill" cx="0.28635014836795253" cy="0.8183856502242153" r="0.06617211022079875">
      <stop offset="0.0" stop-color="rgb(166, 189, 197)" stop-opacity="1.0"/>
      <stop offset="1.0" stop-color="rgb(244, 255, 255)" stop-opacity="0.4428626596927643"/>
    </radialGradient>
    <radialGradient id="shape_48_fill" cx="0.40801186943620177" cy="0.9977578475336323" r="0.06617211022079875">
      <stop offset="0.0" stop-color="rgb(107, 135, 68)" stop-opacity="1.0"/>
      <stop offset="1.0" stop-color="rgb(126, 133, 56)" stop-opacity="1.0"/>
    </radialGradient>
    <radialGradient id="shape_49_fill" cx="0.19287833827893175" cy="0.3991031390134529" r="0.06617211022079875">
      <stop offset="0.0" stop-color="rgb(92, 100, 54)" stop-opacity="1.0"/>
      <stop offset="1.0" stop-color="rgb(51, 18, 0)" stop-opacity="0.505948543548584"/>
    </radialGradient>
    <radialGradient id="shape_50_fill" cx="0.6439169139465876" cy="0.7376681614349776" r="0.06617211022079875">
      <stop offset="0.0" stop-color="rgb(65, 56, 25)" stop-opacity="1.0"/>
      <stop offset="1.0" stop-color="rgb(149, 165, 80)" stop-opacity="0.3377024233341217"/>
    </radialGradient>
    <radialGradient id="shape_51_fill" cx="0.5845697329376854" cy="0.6322869955156951" r="0.06617211022079875">
      <stop offset="0.0" stop-color="rgb(75, 68, 60)" stop-opacity="1.0"/>
      <stop offset="1.0" stop-color="rgb(202, 145, 115)" stop-opacity="0.39985451102256775"/>
    </radialGradient>
    <radialGradient id="shape_52_fill" cx="0.2997032640949555" cy="0.6031390134529148" r="0.06617211022079875">
      <stop offset="0.0" stop-color="rgb(107, 158, 118)" stop-opacity="1.0"/>
      <stop offset="1.0" stop-color="rgb(171, 255, 207)" stop-opacity="0.579450249671936"/>
    </radialGradient>
    <radialGradient id="shape_53_fill" cx="0.6097922848664689" cy="0.45067264573991034" r="0.06617211022079875">
      <stop offset="0.0" stop-color="rgb(38, 39, 27)" stop-opacity="1.0"/>
      <stop offset="1.0" stop-color="rgb(16, 4, 66)" stop-opacity="0.32453683018684387"/>
    </radialGradient>
    <radialGradient id="shape_54_fill" cx="0.6335311572700296" cy="0.426009002822397" r="0.06617211022079875">
      <stop offset="0.0" stop-color="rgb(67, 49, 20)" stop-opacity="1.0"/>
      <stop offset="1.0" stop-color="rgb(185, 94, 40)" stop-opacity="0.4116862416267395"/>
    </radialGradient>
    <radialGradient id="shape_55_fill" cx="0.3707168533823257" cy="0.5988430827187851" r="0.066001377049115">
      <stop offset="0.43605936" stop-color="rgb(247, 255, 55)" stop-opacity="0.8281964063644409"/>
      <stop offset="0.16089156" stop-color="rgb(235, 255, 63)" stop-opacity="0.9080551862716675"/>
    </radialGradient>
    <radialGradient id="shape_56_fill" cx="0.5489614243323442" cy="0.600896860986547" r="0.06617211022079875">
      <stop offset="0.0" stop-color="rgb(50, 62, 80)" stop-opacity="1.0"/>
      <stop offset="1.0" stop-color="rgb(37, 92, 255)" stop-opacity="0.4468005299568176"/>
    </radialGradient>
    <radialGradient id="shape_57_fill" cx="0.4094955489614243" cy="0.9035874439461884" r="0.06617211022079875">
      <stop offset="0.0" stop-color="rgb(111, 144, 47)" stop-opacity="1.0"/>
      <stop offset="1.0" stop-color="rgb(214, 255, 65)" stop-opacity="0.7673221826553345"/>
    </radialGradient>
    <radialGradient id="shape_58_fill" cx="0.5281899109792285" cy="0.9977578475336323" r="0.06617211022079875">
      <stop offset="0.0" stop-color="rgb(50, 43, 14)" stop-opacity="1.0"/>
      <stop offset="1.0" stop-color="rgb(87, 59, 19)" stop-opacity="1.0"/>
    </radialGradient>
    <radialGradient id="shape_59_fill" cx="0.5845697329376854" cy="0.7690582959641256" r="0.06617211022079875">
      <stop offset="0.0" stop-color="rgb(61, 63, 58)" stop-opacity="1.0"/>
      <stop offset="1.0" stop-color="rgb(79, 68, 90)" stop-opacity="0.707531750202179"/>
    </radialGradient>
    <radialGradient id="shape_60_fill" cx="0.5489614243323442" cy="0.9977578475336323" r="0.06617211022079875">
      <stop offset="0.0" stop-color="rgb(140, 131, 64)" stop-opacity="1.0"/>
      <stop offset="1.0" stop-color="rgb(231, 196, 93)" stop-opacity="0.8775416612625122"/>
    </radialGradient>
    <radialGradient id="shape_61_fill" cx="0.6469716601272719" cy="0.96866973740103" r="0.06610439651443979">
      <stop offset="0.463088" stop-color="rgb(239, 183, 60)" stop-opacity="0.9085670709609985"/>
      <stop offset="0.21278743" stop-color="rgb(137, 61, 86)" stop-opacity="0.42632895708084106"/>
    </radialGradient>
    <radialGradient id="shape_62_fill" cx="0.615727002967359" cy="0.3991031390134529" r="0.06617211022079875">
      <stop offset="0.0" stop-color="rgb(55, 47, 13)" stop-opacity="1.0"/>
      <stop offset="1.0" stop-color="rgb(84, 53, 7)" stop-opacity="0.830463171005249"/>
    </radialGradient>
    <radialGradient id="shape_63_fill" cx="0.6261127596439169" cy="0.7286995515695067" r="0.06617211022079875">
      <stop offset="0.0" stop-color="rgb(79, 66, 32)" stop-opacity="1.0"/>
      <stop offset="1.0" stop-color="rgb(201, 186, 91)" stop-opacity="0.4971809685230255"/>
    </radialGradient>
    <radialGradient id="shape_64_fill" cx="0.40801186943620177" cy="0.12556053811659193" r="0.06617211022079875">
      <stop offset="0.0" stop-color="rgb(76, 66, 59)" stop-opacity="1.0"/>
      <stop offset="1.0" stop-color="rgb(166, 130, 132)" stop-opacity="1.0"/>
    </radialGradient>
    <radialGradient id="shape_65_fill" cx="0.6528189910979229" cy="0.6883408071748879" r="0.06617211022079875">
      <stop offset="0.0" stop-color="rgb(121, 97, 39)" stop-opacity="1.0"/>
      <stop offset="1.0" stop-color="rgb(255, 216, 92)" stop-opacity="1.0"/>
    </radialGradient>
    <radialGradient id="shape_66_fill" cx="0.6519730112319176" cy="0.45709437212067333" r="0.07078878815874502">
      <stop offset="0.25544325" stop-color="rgb(184, 211, 115)" stop-opacity="0.3040122091770172"/>
      <stop offset="0.7605108" stop-color="rgb(0, 16, 0)" stop-opacity="0.05568937584757805"/>
    </radialGradient>
    <radialGradient id="shape_67_fill" cx="0.5980787418716386" cy="0.9947947001777957" r="0.07112445887896711">
      <stop offset="0.83483344" stop-color="rgb(48, 26, 0)" stop-opacity="0.6016159653663635"/>
      <stop offset="1.0" stop-color="rgb(0, 29, 0)" stop-opacity="0.154380202293396"/>
    </radialGradient>
    <radialGradient id="shape_68_fill" cx="0.49295093751448904" cy="0.9981109208590246" r="0.06870320713484676">
      <stop offset="0.3964793" stop-color="rgb(39, 10, 0)" stop-opacity="0.40952757000923157"/>
      <stop offset="1.0" stop-color="rgb(26, 64, 52)" stop-opacity="0.17181113362312317"/>
    </radialGradient>
  </defs>
  <g>
    <path d="M 0.022765321657061577 271.488037109375 C 15.94442367553711 253.80992126464844 47.13153076171875 256.33367919921875 47.00527572631836 270.75677490234375 C 48.39219284057617 272.49407958984375 49.30111312866211 276.2172546386719 56.44626998901367 274.86297607421875 C 57.858985900878906 273.8830871582031 61.72706604003906 273.0495910644531 62.097476959228516 268.8078918457031 C 68.3559799194336 267.655517578125 100.82479095458984 268.77264404296875 116.81726837158203 269.0597839355469 C 119.30684661865234 271.7470397949219 125.14518737792969 278.2547302246094 126.62330627441406 282.3533935546875 C 134.32675170898438 282.82373046875 148.3272247314453 280.5774841308594 178.7951202392578 291.00830078125 C 185.36126708984375 283.1997985839844 186.09423828125 281.1091003417969 206.66502380371094 287.2995910644531 C 200.64915466308594 286.7868347167969 198.41583251953125 280.8746337890625 211.36236572265625 267.70068359375 C 250.44384765625 264.56597900390625 294.945068359375 262.1642761230469 310.5232849121094 272.69287109375 C 347.97943115234375 274.2314147949219 422.7355651855469 274.551025390625 482.2627258300781 262.7167663574219 C 512.8626708984375 257.31317138671875 549.0562133789062 258.5990905761719 548.539306640625 273.757080078125 C 546.9790649414062 273.6722717285156 547.0798950195312 262.2458190917969 578.2233276367188 262.4622802734375 C 598.1171264648438 266.7173767089844 612.3765258789062 278.8726501464844 612.2569580078125 279.623046875 C 611.4446411132812 265.8318786621094 623.6370849609375 265.0950927734375 673.4303588867188 265.6944274902344 C 676.7802124023438 272.2878723144531 679.37158203125 278.8263854980469 678.4677124023438 284.9035339355469 C 676.6203002929688 339.531494140625 674.7125244140625 391.4856262207031 675.1177368164062 446.4668273925781 C 451.9151306152344 446.6697692871094 228.9889373779297 446.8115539550781 -0.4355694353580475 446.4240417480469 C -0.5175488591194153 389.140869140625 -0.8830177783966064 332.2403564453125 0.022765321657061577 271.488037109375" stroke-width="0.0" fill="url(#shape_0_fill)"/>
    <path d="M -0.2722442150115967 270.94696044921875 C 35.93415069580078 275.3900451660156 36.5576057434082 274.58306884765625 43.96736145019531 273.03924560546875 C 44.1082649230957 265.6866149902344 58.013145446777344 265.46905517578125 81.78379821777344 266.0032653808594 C 113.77135467529297 278.67987060546875 114.09325408935547 279.3109130859375 128.34393310546875 279.15130615234375 C 127.73628997802734 269.82000732421875 134.05152893066406 269.12066650390625 144.56712341308594 269.5973815917969 C 185.24807739257812 268.8200378417969 186.14122009277344 268.9349365234375 206.179443359375 271.53155517578125 C 203.476806640625 292.1780700683594 204.29368591308594 292.31329345703125 208.679443359375 298.84283447265625 C 213.63902282714844 298.26531982421875 268.236083984375 298.6128234863281 293.67254638671875 301.1082763671875 C 304.0166015625 307.0530700683594 440.02093505859375 303.7603454589844 460.31915283203125 304.6318359375 C 472.89715576171875 292.8375244140625 493.7272644042969 293.7318420410156 504.6958312988281 287.0863037109375 C 516.9454345703125 289.532958984375 521.4102172851562 286.9130554199219 523.30908203125 286.63128662109375 C 527.3611450195312 285.769775390625 531.6605224609375 286.03790283203125 533.7471923828125 287.2795104980469 C 538.6483154296875 287.65496826171875 540.0977783203125 288.9761657714844 536.6276245117188 311.8133850097656 C 579.756103515625 292.5561828613281 581.6555786132812 293.03271484375 601.679443359375 299.6429138183594 C 620.8142700195312 289.40313720703125 629.987548828125 288.2082214355469 633.5857543945312 288.4766540527344 C 637.017578125 274.65423583984375 654.3574829101562 274.9888000488281 673.6363525390625 294.4903869628906 C 674.5038452148438 339.6778259277344 674.5220336914062 392.04412841796875 674.1581420898438 446.2807922363281 C 451.4774169921875 446.3905334472656 229.19664001464844 446.25439453125 -0.30765825510025024 446.2476501464844 C -0.21053799986839294 389.403564453125 -0.31086868047714233 333.0142822265625 -0.2722442150115967 270.94696044921875" stroke-width="0.0" fill="url(#shape_1_fill)"/>
    <path d="M -0.019932541996240616 -0.25989267230033875 C 219.69313049316406 0.1040392518043518 439.478759765625 -0.45242562890052795 674.8880615234375 -0.0030139132868498564 C 665.870849609375 10.695164680480957 645.0673217773438 34.75383377075195 637.2219848632812 49.64570617675781 C 634.5724487304688 53.028255462646484 612.1431274414062 91.4742202758789 584.1785278320312 83.89470672607422 C 576.8154907226562 81.19744873046875 564.8693237304688 72.22113037109375 532.2483520507812 74.25959014892578 C 532.0153198242188 79.89600372314453 528.3704833984375 80.56158447265625 522.0498657226562 72.03491973876953 C 522.709716796875 68.9305419921875 499.34637451171875 63.89980697631836 498.86712646484375 62.57129669189453 C 493.4563903808594 62.2691535949707 486.13946533203125 61.12885284423828 484.34490966796875 68.80077362060547 C 475.2464599609375 72.81635284423828 476.3274841308594 76.13101959228516 476.59075927734375 81.08961486816406 C 483.8010559082031 100.53843688964844 481.5458984375 120.20259094238281 482.0547790527344 123.27904510498047 C 460.26361083984375 116.94747924804688 459.3749084472656 114.89766693115234 450.93902587890625 108.54237365722656 C 435.3855285644531 107.40838623046875 411.77740478515625 101.65596771240234 409.3240661621094 105.52192687988281 C 412.7825927734375 122.44222259521484 419.8928527832031 129.5623016357422 413.0616760253906 139.3544921875 C 411.50335693359375 152.75372314453125 394.29449462890625 152.16424560546875 394.6396179199219 135.4442138671875 C 383.0567932128906 139.02381896972656 382.3902282714844 158.07452392578125 371.0587463378906 157.7567138671875 C 366.10546875 156.1854248046875 363.2109069824219 159.3876495361328 353.6337585449219 158.33473205566406 C 348.2099304199219 163.6547393798828 345.5860290527344 165.33001708984375 347.5765075683594 171.38046264648438 C 343.656494140625 177.05691528320312 342.09429931640625 176.2021026611328 351.36883544921875 159.20726013183594 C 292.2485046386719 154.593994140625 291.6017761230469 160.9644317626953 290.37176513671875 170.6446990966797 C 306.3891296386719 186.014404296875 304.1772155761719 189.00172424316406 307.5276184082031 201.3696746826172 C 307.5985412597656 200.57095336914062 306.4154357910156 198.12094116210938 304.9271545410156 190.3824462890625 C 303.9848327636719 185.6365509033203 302.6562194824219 184.37730407714844 291.2425231933594 170.94102478027344 C 289.8226623535156 194.5321807861328 289.0589599609375 195.95956420898438 289.3470764160156 196.30438232421875 C 289.4256591796875 189.93948364257812 291.72052001953125 181.6824493408203 290.3926086425781 164.66915893554688 C 269.7882995605469 167.34901428222656 265.03106689453125 174.5680389404297 262.4014587402344 172.90786743164062 C 256.20928955078125 184.42752075195312 255.8725128173828 189.3238983154297 254.78871154785156 197.12374877929688 C 260.61712646484375 199.2648468017578 260.46630859375 199.8806610107422 258.1239929199219 199.52027893066406 C 257.0933837890625 198.49722290039062 254.0540008544922 196.4169464111328 255.37013244628906 193.7847137451172 C 255.9228515625 180.88296508789062 262.72674560546875 179.3912811279297 264.41119384765625 161.28541564941406 C 262.4210510253906 157.1113739013672 215.60394287109375 143.92257690429688 212.21678161621094 142.8817596435547 C 187.26254272460938 134.5006866455078 195.5076904296875 106.4927749633789 191.17417907714844 86.21366119384766 C 190.81053161621094 84.68883514404297 163.1486053466797 74.58390045166016 128.91253662109375 57.91885757446289 C 99.0984878540039 38.70372772216797 76.51431274414062 59.071632385253906 48.07425308227539 56.8414306640625 C 30.04574203491211 70.55828094482422 1.7140101194381714 69.92388916015625 -0.8802642226219177 69.44722747802734 C 0.34183040261268616 43.958133697509766 -0.3314551115036011 22.56187629699707 -0.019932541996240616 -0.25989267230033875" stroke-width="0.0" fill="url(#shape_2_fill)"/>
    <path d="M 87.26338958740234 58.01542663574219 C 88.78015899658203 68.82379913330078 91.79903411865234 68.95166015625 93.77470397949219 71.94436645507812 C 90.08782196044922 79.94378662109375 92.90618896484375 81.95134735107422 89.04264831542969 94.31767272949219 C 95.77776336669922 85.81655883789062 98.1061782836914 86.52375030517578 102.86055755615234 87.76636505126953 C 105.11595153808594 75.11923217773438 105.60968780517578 73.23182678222656 108.15220642089844 73.69242095947266 C 112.71499633789062 86.23635864257812 109.734619140625 92.42921447753906 117.57920837402344 98.65190887451172 C 115.81192016601562 100.03710174560547 117.01261138916016 109.62127685546875 115.4099349975586 115.07062530517578 C 120.30132293701172 115.2905502319336 127.95379638671875 116.3412857055664 129.77442932128906 112.14896392822266 C 131.2222137451172 111.19889068603516 137.060791015625 109.93864440917969 136.84715270996094 105.10674285888672 C 136.70619201660156 103.73430633544922 135.6074676513672 101.94678497314453 138.2066192626953 100.29710388183594 C 136.5775604248047 93.28718566894531 137.6272735595703 92.94763946533203 137.83665466308594 90.13470458984375 C 137.34469604492188 85.58451843261719 138.52052307128906 85.14734649658203 140.16763305664062 89.48348236083984 C 140.85256958007812 83.2999267578125 146.68496704101562 79.91834259033203 148.64288330078125 78.35237884521484 C 148.15428161621094 93.30577850341797 149.58116149902344 94.54998779296875 152.53501892089844 99.75939178466797 C 154.01638793945312 102.47135925292969 149.8302764892578 106.82028198242188 148.89614868164062 106.79485321044922 C 152.27931213378906 109.38311004638672 149.93850708007812 113.90196228027344 148.14134216308594 113.15292358398438 C 154.04071044921875 112.97545623779297 158.24928283691406 122.60115051269531 157.0503692626953 123.41123962402344 C 160.5765380859375 124.75579071044922 164.70394897460938 123.41454315185547 169.7390899658203 122.8739242553711 C 174.40086364746094 119.73670959472656 175.79115295410156 121.50687408447266 177.5896759033203 122.45983123779297 C 179.30612182617188 122.7421875 180.1232147216797 124.95245361328125 183.6733856201172 127.10810089111328 C 183.91415405273438 130.02894592285156 182.6853790283203 132.71400451660156 185.946533203125 134.36065673828125 C 188.7001953125 135.47329711914062 190.0876007080078 137.15579223632812 187.51744079589844 143.9573211669922 C 197.8197784423828 148.797607421875 208.55752563476562 153.51205444335938 201.6700439453125 172.70700073242188 C 205.58670043945312 177.29721069335938 206.56932067871094 179.33209228515625 205.0992889404297 181.57704162597656 C 213.6081085205078 180.92919921875 215.09410095214844 192.57611083984375 212.62551879882812 199.8690185546875 C 204.9607696533203 205.59324645996094 203.00962829589844 206.2224884033203 203.3677978515625 210.07904052734375 C 200.38314819335938 210.3854217529297 200.41212463378906 211.84783935546875 198.72340393066406 212.90892028808594 C 196.54307556152344 215.56326293945312 192.72657775878906 215.2421875 192.20709228515625 219.7476806640625 C 184.30349731445312 220.5141143798828 183.6881866455078 224.79864501953125 178.1615753173828 230.1770477294922 C 176.4130096435547 233.3723602294922 181.90280151367188 237.4477996826172 181.6363983154297 237.94273376464844 C 181.4291534423828 252.0300750732422 185.73867797851562 260.7172546386719 180.03550720214844 264.1068420410156 C 168.25328063964844 270.3984680175781 147.82957458496094 267.5782775878906 135.87623596191406 269.4511413574219 C 131.6414337158203 268.96142578125 128.85687255859375 272.2619323730469 122.93936157226562 275.4313659667969 C 109.15397644042969 276.52410888671875 73.35499572753906 275.84521484375 72.99052429199219 270.1365966796875 C 47.78004837036133 266.8060607910156 56.61702346801758 268.59539794921875 58.538299560546875 273.1969909667969 C 48.82594299316406 276.8089599609375 1.064173698425293 272.7464599609375 0.7642463445663452 269.8846435546875 C -6.720334053039551 226.40521240234375 -4.750080585479736 168.31146240234375 1.9559553861618042 122.33889770507812 C 10.34390926361084 117.69827270507812 21.392356872558594 113.98306274414062 26.316347122192383 121.77527618408203 C 27.673477172851562 130.13510131835938 35.93912124633789 129.06930541992188 42.052162170410156 131.92877197265625 C 46.10343551635742 130.36102294921875 47.24710464477539 131.42495727539062 49.7346076965332 142.17733764648438 C 50.81826400756836 149.61439514160156 60.91875076293945 148.34979248046875 62.65438461303711 146.37648010253906 C 62.12529754638672 137.01632690429688 63.20697784423828 134.17115783691406 62.05503463745117 128.2384033203125 C 68.19337463378906 126.62166595458984 67.62013244628906 124.47357940673828 66.32733154296875 112.63111114501953 C 69.02825927734375 111.13834381103516 67.93356323242188 103.32244873046875 75.39494323730469 101.00111389160156 C 74.90812683105469 100.49054718017578 77.69805908203125 89.60543060302734 77.3692398071289 86.00423431396484 C 77.2979965209961 82.80388641357422 77.46607971191406 75.28489685058594 85.25675201416016 75.35008239746094 C 83.17190551757812 70.29324340820312 82.6172866821289 67.55670928955078 87.26338958740234 58.01542663574219" stroke-width="0.0" fill="url(#shape_3_fill)"/>
    <path d="M 673.92919921875 -0.49605998396873474 C 676.1284790039062 47.817264556884766 675.0172119140625 95.9081039428711 682.094482421875 135.80282592773438 C 679.2692260742188 118.93379211425781 674.4584350585938 119.45146179199219 662.0830688476562 119.98162078857422 C 660.059814453125 119.59420013427734 654.5116577148438 109.65104675292969 650.4174194335938 110.97425842285156 C 649.0300903320312 112.55966186523438 645.070556640625 150.6578369140625 642.9783325195312 155.64739990234375 C 629.8043823242188 154.9474334716797 627.2111206054688 142.69256591796875 626.9788818359375 138.49000549316406 C 622.993408203125 137.45034790039062 619.1768798828125 145.44541931152344 615.3749389648438 144.62741088867188 C 611.6814575195312 142.30845642089844 610.166015625 143.30950927734375 607.8046875 141.000732421875 C 608.9810791015625 136.65052795410156 615.1395874023438 129.87879943847656 601.6044921875 109.86927795410156 C 598.3142700195312 135.01046752929688 597.6055908203125 139.40771484375 592.9898071289062 142.59632873535156 C 599.16162109375 145.7234344482422 598.3846435546875 151.34176635742188 597.4971313476562 152.7069549560547 C 587.3523559570312 157.70919799804688 588.49755859375 164.7029266357422 578.2495727539062 172.710693359375 C 572.3631591796875 170.1956787109375 569.52490234375 158.08438110351562 568.9707641601562 157.49142456054688 C 565.6107177734375 157.6610565185547 563.0640258789062 154.87091064453125 562.0771484375 147.8369903564453 C 560.0010986328125 151.0745849609375 556.6959838867188 151.18099975585938 555.5817260742188 155.31793212890625 C 552.3656616210938 155.80101013183594 550.8621826171875 158.0399627685547 549.197021484375 158.12413024902344 C 547.784423828125 154.77316284179688 544.8534545898438 154.54360961914062 535.6655883789062 152.4312286376953 C 531.9412841796875 154.96543884277344 529.8152465820312 159.3395538330078 523.1568603515625 157.011962890625 C 519.247802734375 160.528564453125 520.3326416015625 162.1511688232422 522.8118286132812 168.9559783935547 C 517.6307373046875 168.4821319580078 517.3602905273438 171.1005859375 516.2410278320312 171.6123809814453 C 511.2713623046875 173.32232666015625 509.8157043457031 175.26531982421875 505.6473693847656 174.399169921875 C 502.7303466796875 171.4185028076172 503.08258056640625 169.5020751953125 502.98187255859375 159.43946838378906 C 487.9989318847656 142.64134216308594 502.8294372558594 118.11082458496094 514.9275512695312 124.54280090332031 C 525.091552734375 126.10591888427734 543.2032470703125 108.0208511352539 548.797119140625 112.84896087646484 C 557.128662109375 110.74610900878906 557.0585327148438 109.41059875488281 558.7012329101562 109.01908111572266 C 559.5499877929688 107.31320190429688 564.8095703125 103.44892120361328 569.983642578125 104.99555206298828 C 574.7037963867188 102.45993041992188 573.6447143554688 97.82540130615234 579.14453125 93.84092712402344 C 589.0970458984375 87.8277816772461 590.5831909179688 78.16150665283203 612.339599609375 78.59217834472656 C 616.9265747070312 73.62281036376953 644.2500610351562 51.354522705078125 645.9755859375 35.3125114440918 C 644.8441772460938 32.38134002685547 647.955078125 30.370437622070312 647.41015625 29.44251823425293 C 646.904296875 28.289472579956055 664.1495361328125 -4.327056407928467 673.92919921875 -0.49605998396873474" stroke-width="0.0" fill="url(#shape_4_fill)"/>
    <path d="M 151.4660186767578 68.64847564697266 C 152.30711364746094 69.0734634399414 185.9688262939453 85.11660766601562 192.9081268310547 91.24317169189453 C 179.02243041992188 117.7864761352539 217.89259338378906 149.8690643310547 221.28277587890625 154.53515625 C 241.00148010253906 169.5252227783203 242.46527099609375 181.54457092285156 240.40896606445312 193.83155822753906 C 237.9576873779297 193.20713806152344 236.0587158203125 186.89410400390625 236.7727508544922 184.06536865234375 C 235.69012451171875 183.5140838623047 234.15345764160156 184.3163299560547 231.04229736328125 182.66134643554688 C 231.93539428710938 184.8867950439453 232.34608459472656 192.5424346923828 228.6595916748047 195.66790771484375 C 227.6487579345703 196.63880920410156 227.71255493164062 205.1013641357422 221.06040954589844 207.63967895507812 C 215.0721893310547 206.57278442382812 214.25448608398438 197.9143524169922 214.5289764404297 195.09320068359375 C 212.95123291015625 185.45620727539062 211.89041137695312 184.9652557373047 206.5702667236328 177.4148712158203 C 205.684814453125 172.6582489013672 206.4286346435547 168.6221466064453 204.2435302734375 159.5516357421875 C 205.56263732910156 153.89527893066406 194.931396484375 144.56942749023438 193.6371612548828 141.03997802734375 C 189.27377319335938 139.80699157714844 189.1654052734375 135.86996459960938 186.7744140625 135.91529846191406 C 177.50038146972656 134.08294677734375 178.34378051757812 127.70980072021484 183.5893096923828 117.20111083984375 C 179.39051818847656 116.39478302001953 177.40135192871094 117.66388702392578 172.9552764892578 117.7634048461914 C 179.0689239501953 128.22059631347656 177.49526977539062 131.07794189453125 152.4123077392578 130.3212890625 C 148.77435302734375 129.51817321777344 152.34124755859375 102.56722259521484 154.461181640625 93.28813171386719 C 152.92298889160156 91.23056030273438 152.58006286621094 86.8462142944336 150.39208984375 76.2297592163086 C 147.9158935546875 75.88641357421875 147.87826538085938 69.1675796508789 151.4660186767578 68.64847564697266" stroke-width="0.0" fill="url(#shape_5_fill)"/>
    <path d="M 614.8480834960938 78.9534683227539 C 618.8116455078125 83.87940216064453 620.396728515625 87.41487884521484 632.9984741210938 85.93667602539062 C 635.96337890625 86.2383041381836 636.938720703125 88.77935791015625 641.1514282226562 89.25467681884766 C 642.1956176757812 86.64262390136719 665.0471801757812 92.5154037475586 675.0460205078125 98.16261291503906 C 675.4066162109375 110.61923217773438 674.7958984375 125.90557098388672 674.74853515625 151.7150421142578 C 665.6592407226562 142.798828125 662.670166015625 136.7755889892578 660.3969116210938 132.1466827392578 C 660.4509887695312 123.9607925415039 661.0822143554688 118.41404724121094 653.9173583984375 112.21516418457031 C 641.9822998046875 113.83443450927734 643.637451171875 142.2236328125 643.1097412109375 142.8378143310547 C 644.4641723632812 144.3911590576172 642.281982421875 148.1549835205078 644.5311279296875 149.83151245117188 C 640.1613159179688 150.98851013183594 637.9595336914062 152.7985382080078 634.5823974609375 153.76304626464844 C 631.8378295898438 146.16134643554688 629.1636962890625 141.3986358642578 630.0061645507812 140.56578063964844 C 628.5657958984375 137.0480194091797 622.3565063476562 136.39801025390625 621.32958984375 139.33055114746094 C 618.7532958984375 140.72218322753906 619.3056640625 142.5323486328125 618.4315795898438 149.80137634277344 C 613.3703002929688 144.7779998779297 613.03759765625 143.23931884765625 609.349853515625 143.7808380126953 C 608.442626953125 140.4068603515625 609.5011596679688 139.24026489257812 608.7008666992188 137.3724365234375 C 606.1814575195312 132.94442749023438 604.4484252929688 127.44292449951172 600.9686889648438 127.92163848876953 C 606.343017578125 133.8286895751953 595.7586059570312 148.49472045898438 592.6127319335938 151.81576538085938 C 590.638671875 163.76560974121094 588.785888671875 163.8551025390625 586.011962890625 169.03091430664062 C 584.5394287109375 167.596923828125 584.168212890625 167.47384643554688 589.1129760742188 152.8686065673828 C 593.7313232421875 141.06655883789062 590.8507080078125 139.27915954589844 574.6687622070312 128.04713439941406 C 574.2313842773438 157.82603454589844 557.8141479492188 157.70973205566406 555.970458984375 150.97869873046875 C 555.7759399414062 152.8498077392578 553.0609741210938 154.693359375 553.0216064453125 157.8948974609375 C 551.5486450195312 161.33706665039062 548.1373901367188 161.16612243652344 547.3519287109375 159.33843994140625 C 544.3609619140625 156.43930053710938 542.8508911132812 153.6411590576172 538.9212036132812 155.7718963623047 C 537.1431274414062 158.70187377929688 531.1461791992188 158.0428924560547 529.0136108398438 158.16354370117188 C 526.7911987304688 159.61228942871094 526.9633178710938 163.6573486328125 525.5143432617188 166.77549743652344 C 524.7316284179688 169.5928955078125 523.642822265625 171.6147918701172 519.0526733398438 173.03680419921875 C 516.3311767578125 171.41404724121094 503.68011474609375 171.3086700439453 480.4574890136719 163.10421752929688 C 477.3963317871094 136.3135528564453 500.42864990234375 120.53462982177734 514.515380859375 118.22218322753906 C 527.904541015625 127.7222671508789 541.8043823242188 108.31818389892578 547.6455078125 111.49324798583984 C 556.7998657226562 111.7020034790039 563.1690063476562 112.41178131103516 564.50537109375 107.17192077636719 C 564.62646484375 104.41029357910156 566.4845581054688 103.35275268554688 569.9049072265625 104.8025894165039 C 572.2861328125 101.0474624633789 579.0944213867188 100.13311767578125 587.09375 98.3105697631836 C 601.1010131835938 93.66976928710938 602.8094482421875 79.8503189086914 614.8480834960938 78.9534683227539" stroke-width="0.0" fill="url(#shape_6_fill)"/>
    <path d="M 0.75172358751297 90.00984191894531 C 44.18857955932617 106.12218475341797 43.21201705932617 117.02738189697266 50.505699157714844 138.73789978027344 C 82.51458740234375 152.60577392578125 56.17036819458008 213.59620666503906 35.59920120239258 245.50550842285156 C 50.46269607543945 259.23822021484375 49.414791107177734 263.7825622558594 48.33095932006836 265.65289306640625 C 51.791587829589844 254.04209899902344 37.155921936035156 246.7291717529297 22.24355697631836 238.63511657714844 C 6.957685470581055 193.00546264648438 -13.023285865783691 180.3698272705078 0.75172358751297 90.00984191894531" stroke-width="0.0" fill="url(#shape_7_fill)"/>
    <path d="M 384.55267333984375 197.17189025878906 C 424.887939453125 188.61215209960938 426.8257751464844 188.83436584472656 429.8204040527344 204.2740936279297 C 477.6348571777344 187.94784545898438 499.0306396484375 202.04037475585938 491.1661376953125 229.31948852539062 C 490.9902648925781 250.50511169433594 486.3402099609375 251.52902221679688 484.9355773925781 252.53236389160156 C 486.5975341796875 259.1905517578125 482.4560546875 268.735107421875 476.2579040527344 268.5351257324219 C 469.0456848144531 272.93292236328125 453.2210388183594 266.7112731933594 451.6289978027344 269.7535095214844 C 447.210693359375 266.3245544433594 448.47039794921875 261.2613525390625 449.2814636230469 260.2481384277344 C 439.32855224609375 264.99896240234375 436.5440368652344 261.6344909667969 437.6787109375 256.58270263671875 C 427.04205322265625 256.9324645996094 425.7125244140625 260.00689697265625 420.8367614746094 262.0054626464844 C 418.4794921875 264.1668395996094 417.781494140625 267.7751770019531 414.9736022949219 273.97869873046875 C 414.1083679199219 271.19622802734375 392.1708984375 269.7540588378906 392.5091857910156 264.28143310546875 C 391.81048583984375 265.2059631347656 388.7828369140625 263.5216064453125 385.166015625 264.45806884765625 C 382.0849304199219 262.03729248046875 380.79803466796875 263.26397705078125 376.3812561035156 261.271484375 C 375.182861328125 256.418701171875 375.7564392089844 252.92247009277344 370.142822265625 251.9951171875 C 361.04388427734375 242.4779052734375 373.88671875 194.30657958984375 378.4902648925781 177.03213500976562 C 385.0600891113281 171.93728637695312 394.3193664550781 176.973388671875 384.55267333984375 197.17189025878906" stroke-width="0.0" fill="url(#shape_8_fill)"/>
    <path d="M 566.537353515625 157.10658264160156 C 567.86474609375 159.01161193847656 568.1200561523438 166.62057495117188 569.318359375 168.0185546875 C 573.4954833984375 169.49502563476562 573.6229858398438 171.0632781982422 577.616943359375 174.33929443359375 C 581.9307250976562 172.94601440429688 583.9710693359375 174.56983947753906 583.7080688476562 179.472412109375 C 575.397216796875 180.4751739501953 572.3030395507812 225.6110076904297 577.5791015625 226.95535278320312 C 577.8963012695312 230.0564422607422 581.8342895507812 236.72142028808594 577.1668090820312 243.022705078125 C 569.0264282226562 238.72824096679688 567.0288696289062 237.177001953125 558.6070556640625 247.53939819335938 C 552.9127807617188 249.04310607910156 499.80767822265625 255.3345489501953 484.95635986328125 250.97869873046875 C 486.9278869628906 250.4585418701172 488.6809997558594 241.18919372558594 497.7951354980469 231.4029083251953 C 486.0111999511719 227.24925231933594 483.0505676269531 222.59193420410156 482.92437744140625 215.12295532226562 C 477.41412353515625 210.21824645996094 479.9678039550781 205.98175048828125 482.9115295410156 206.20602416992188 C 480.78717041015625 205.2280731201172 481.5735778808594 199.53062438964844 493.0300598144531 199.9315948486328 C 492.78369140625 196.37408447265625 491.5562438964844 192.53677368164062 491.3563232421875 188.91590881347656 C 487.1184387207031 174.41744995117188 487.8038635253906 173.4133758544922 488.198974609375 164.19265747070312 C 503.8360290527344 164.6745147705078 504.6470947265625 164.93533325195312 511.9253234863281 159.16062927246094 C 521.9708862304688 169.29461669921875 524.4537963867188 167.49607849121094 525.9901123046875 167.33697509765625 C 523.7081298828125 162.52920532226562 531.1970825195312 157.47767639160156 533.0940551757812 159.05177307128906 C 537.4241333007812 162.0392608642578 541.2269287109375 162.62490844726562 541.9398193359375 164.2453155517578 C 545.0485229492188 164.18777465820312 545.5888671875 166.05772399902344 550.0350952148438 166.9700927734375 C 549.0252075195312 165.58506774902344 549.9844970703125 157.93470764160156 554.9132690429688 158.20001220703125 C 557.8472900390625 161.08815002441406 563.0994873046875 157.99896240234375 566.537353515625 157.10658264160156" stroke-width="0.0" fill="url(#shape_9_fill)"/>
    <path d="M 561.465087890625 156.80467224121094 C 564.9426879882812 152.8059844970703 571.224365234375 156.9499969482422 571.5333862304688 173.99142456054688 C 572.617919921875 169.00050354003906 576.4511108398438 168.9747314453125 579.52490234375 174.1038818359375 C 580.551513671875 178.1180419921875 578.916015625 187.3743438720703 580.5743408203125 190.92713928222656 C 571.3972778320312 196.1313018798828 572.0774536132812 229.96775817871094 578.1241455078125 230.97450256347656 C 576.082763671875 231.16339111328125 575.6347045898438 236.8777313232422 572.1472778320312 237.9490203857422 C 560.8468627929688 235.7574920654297 567.0259399414062 238.7343292236328 563.1764526367188 247.62594604492188 C 550.1577758789062 252.94227600097656 501.296630859375 249.19309997558594 500.2114562988281 251.96070861816406 C 491.2907409667969 251.8380584716797 488.0838623046875 237.15286254882812 498.8936462402344 231.83409118652344 C 486.6080322265625 224.9288330078125 481.9744567871094 219.2962646484375 481.9777526855469 214.6864776611328 C 475.727294921875 215.46075439453125 471.8341979980469 215.40354919433594 464.649658203125 195.9833221435547 C 465.4745178222656 174.18472290039062 481.4676208496094 173.52064514160156 482.4953918457031 195.4180145263672 C 489.65570068359375 197.93345642089844 494.9664611816406 185.07754516601562 496.6131591796875 182.9720001220703 C 495.28900146484375 178.86972045898438 497.5860900878906 177.6906280517578 500.14752197265625 177.54385375976562 C 507.9372253417969 179.20753479003906 516.5645141601562 181.78997802734375 521.10498046875 174.18309020996094 C 526.3168334960938 173.5503692626953 528.5117797851562 159.69482421875 529.5839233398438 154.4766082763672 C 538.4694213867188 155.25311279296875 539.8502807617188 157.21905517578125 537.6671142578125 165.72964477539062 C 545.7433471679688 166.07815551757812 549.0638427734375 167.55630493164062 551.7704467773438 166.7423858642578 C 550.9241943359375 154.97825622558594 552.6585693359375 152.9393310546875 561.465087890625 156.80467224121094" stroke-width="0.0" fill="url(#shape_10_fill)"/>
    <path d="M 443.546875 108.76329803466797 C 452.2009582519531 114.15339660644531 453.92047119140625 115.71903228759766 463.27447509765625 105.886474609375 C 467.4461975097656 113.38018035888672 469.644287109375 112.52826690673828 488.7283020019531 107.53033447265625 C 489.5184020996094 124.43060302734375 488.7891540527344 125.26350402832031 492.4222106933594 130.42140197753906 C 493.3333435058594 132.25181579589844 493.2594909667969 135.76004028320312 496.5240783691406 136.0283966064453 C 493.9876708984375 136.05462646484375 493.0191650390625 139.09596252441406 490.5125732421875 142.39109802246094 C 484.03338623046875 139.2848358154297 482.7106018066406 141.95587158203125 481.47808837890625 142.6495361328125 C 468.86749267578125 136.4742431640625 467.13092041015625 134.6829071044922 465.5124206542969 134.58676147460938 C 464.25701904296875 133.45298767089844 461.01470947265625 134.28611755371094 460.1736755371094 133.5791473388672 C 461.8496398925781 132.03057861328125 481.2491760253906 140.99070739746094 501.3382873535156 155.94065856933594 C 476.99432373046875 176.97825622558594 476.12396240234375 177.6571502685547 482.2472839355469 185.4416961669922 C 468.1301574707031 183.7532196044922 467.1961975097656 188.75083923339844 462.5936279296875 189.83035278320312 C 462.556640625 184.5427703857422 461.54595947265625 172.9053497314453 460.64202880859375 156.84458923339844 C 449.6470642089844 182.3646240234375 447.1126403808594 183.46083068847656 439.7430725097656 183.0774383544922 C 439.02032470703125 183.80801391601562 435.77203369140625 195.73768615722656 435.0116882324219 197.38572692871094 C 427.76727294921875 200.28573608398438 417.4935302734375 180.59242248535156 417.65960693359375 179.87449645996094 C 416.9296875 180.2540283203125 399.2445373535156 181.59820556640625 398.3247375488281 175.07460021972656 C 394.2790222167969 173.09352111816406 389.78436279296875 177.24069213867188 379.43719482421875 174.5632781982422 C 382.689208984375 157.5994873046875 379.4449768066406 152.032470703125 392.33197021484375 138.80813598632812 C 398.6741943359375 139.03823852539062 399.92742919921875 130.40135192871094 403.1251220703125 119.56642150878906 C 406.4878234863281 99.21177673339844 423.58544921875 101.42046356201172 443.546875 108.76329803466797" stroke-width="0.0" fill="url(#shape_11_fill)"/>
    <path d="M 602.7911376953125 127.44684600830078 C 605.2919311523438 131.08413696289062 605.3507690429688 143.35784912109375 606.8234252929688 145.6335906982422 C 610.6432495117188 146.381591796875 610.537353515625 152.5572052001953 619.9260864257812 154.45179748535156 C 617.9699096679688 149.73654174804688 617.141845703125 141.89451599121094 623.1463012695312 141.035400390625 C 623.1852416992188 137.34620666503906 625.4187622070312 137.25634765625 627.1959838867188 140.31007385253906 C 627.0122680664062 142.23745727539062 628.8432006835938 144.8666229248047 629.0704956054688 147.24847412109375 C 632.070068359375 149.79446411132812 631.6654052734375 151.268798828125 635.7034912109375 153.4724884033203 C 641.9760131835938 154.3112335205078 642.4072875976562 160.06607055664062 650.2273559570312 174.4260711669922 C 639.6301879882812 186.53884887695312 640.5680541992188 195.20274353027344 641.0845336914062 204.1391143798828 C 663.9194946289062 205.8596954345703 664.6146240234375 244.11769104003906 642.6499633789062 245.37144470214844 C 621.8911743164062 247.86489868164062 610.8746337890625 248.7513885498047 578.9962768554688 265.07904052734375 C 575.4849853515625 253.25143432617188 581.1947631835938 229.7041473388672 571.9468383789062 213.81219482421875 C 568.0331420898438 208.6009521484375 571.3248901367188 168.8687744140625 583.903076171875 169.71556091308594 C 596.7516479492188 163.09657287597656 599.9996337890625 143.09957885742188 600.382568359375 142.2420654296875 C 595.831298828125 140.13018798828125 596.14990234375 137.58914184570312 602.7911376953125 127.44684600830078" stroke-width="0.0" fill="url(#shape_12_fill)"/>
    <path d="M 412.5484619140625 176.58502197265625 C 418.4317321777344 174.69615173339844 435.3363952636719 213.8591766357422 428.38134765625 219.72239685058594 C 419.9329528808594 229.20840454101562 427.62646484375 236.58030700683594 431.9540100097656 241.6525421142578 C 429.86138916015625 260.50341796875 416.96661376953125 272.46514892578125 411.462890625 267.0240783691406 C 406.9595031738281 264.9849548339844 401.4498291015625 271.9330139160156 391.8006286621094 268.5384216308594 C 385.65728759765625 264.9100341796875 382.65283203125 265.9307556152344 378.22674560546875 265.6177978515625 C 372.7618713378906 267.1568298339844 371.1220703125 262.3487548828125 374.04168701171875 258.0923156738281 C 376.0129699707031 256.38214111328125 374.6387634277344 254.64259338378906 375.1142272949219 253.9048614501953 C 370.9158020019531 255.94088745117188 368.75714111328125 252.2234344482422 367.74359130859375 251.95199584960938 C 360.447509765625 248.03338623046875 366.66143798828125 229.53366088867188 367.06475830078125 222.3791961669922 C 369.6882019042969 218.41197204589844 371.2356262207031 202.38003540039062 385.5836181640625 201.3278350830078 C 378.649169921875 193.24755859375 379.63470458984375 191.70884704589844 389.9718017578125 191.65090942382812 C 390.51837158203125 177.34829711914062 392.5743408203125 176.7672882080078 412.5484619140625 176.58502197265625" stroke-width="0.0" fill="url(#shape_13_fill)"/>
    <path d="M 507.40142822265625 66.36578369140625 C 505.861328125 68.29522705078125 509.2228088378906 75.88417053222656 515.8687744140625 92.97180938720703 C 532.6259155273438 79.72612762451172 535.8182983398438 79.57715606689453 537.2711791992188 85.15826416015625 C 538.655029296875 90.94482421875 544.5300903320312 90.30175018310547 545.0235595703125 91.17860412597656 C 545.537841796875 92.73944854736328 556.1477661132812 96.89146423339844 559.5055541992188 95.53097534179688 C 563.2448120117188 97.61775970458984 567.405029296875 97.14906311035156 568.1273803710938 97.96109008789062 C 563.5687866210938 106.96453857421875 558.7609252929688 116.74617004394531 538.1216430664062 108.5570297241211 C 540.3158569335938 112.18721771240234 540.1405639648438 115.40538024902344 534.63427734375 118.44268798828125 C 527.142578125 119.96662139892578 519.5515747070312 124.54425811767578 515.658935546875 118.52922821044922 C 512.525390625 121.89964294433594 501.8637390136719 125.97188568115234 500.78106689453125 127.45232391357422 C 498.1781921386719 129.87977600097656 494.2816162109375 129.45826721191406 489.95806884765625 126.19102478027344 C 488.9493103027344 116.70020294189453 468.8648681640625 118.15350341796875 468.16375732421875 117.40715789794922 C 463.5224304199219 117.85025787353516 462.91619873046875 116.6412582397461 461.9790344238281 116.31988525390625 C 471.8482666015625 120.9697036743164 475.0428771972656 116.7383041381836 478.16302490234375 114.20282745361328 C 466.5016784667969 104.08679962158203 468.75677490234375 91.20369720458984 474.17425537109375 81.77143096923828 C 474.5852355957031 70.93231201171875 475.3378601074219 70.38469696044922 476.84222412109375 65.90563201904297 C 478.233154296875 63.541866302490234 482.3387451171875 63.6500244140625 483.97088623046875 63.36684036254883 C 495.1269226074219 63.24589157104492 504.14892578125 61.51659393310547 507.40142822265625 66.36578369140625" stroke-width="0.0" fill="url(#shape_14_fill)"/>
    <path d="M 536.8701782226562 162.17237854003906 C 544.0690307617188 162.18695068359375 544.3630981445312 163.0107879638672 546.4837646484375 165.0163116455078 C 549.9187622070312 167.5404815673828 549.7307739257812 170.16172790527344 542.7838134765625 183.27490234375 C 544.5003662109375 192.96231079101562 535.748046875 229.05831909179688 537.0886840820312 231.9775848388672 C 541.4822998046875 239.38633728027344 540.7772216796875 252.8587188720703 519.223388671875 252.20289611816406 C 502.14935302734375 253.88450622558594 482.02130126953125 241.654541015625 487.82537841796875 230.65371704101562 C 476.7563781738281 219.4894561767578 478.73004150390625 207.2793426513672 483.37890625 202.0153045654297 C 486.4615173339844 197.5256805419922 487.97760009765625 197.4965362548828 488.7478942871094 199.30580139160156 C 482.69012451171875 195.49481201171875 488.73663330078125 184.9920196533203 487.3476257324219 174.18402099609375 C 487.64495849609375 167.35240173339844 489.5069274902344 166.40174865722656 490.8318176269531 167.17138671875 C 505.4414367675781 178.93035888671875 511.38482666015625 184.13699340820312 522.7947387695312 172.84185791015625 C 525.5833740234375 170.98297119140625 525.2348022460938 167.1490936279297 525.8743896484375 164.9248504638672 C 525.054443359375 160.24893188476562 527.9662475585938 158.31509399414062 536.8701782226562 162.17237854003906" stroke-width="0.0" fill="url(#shape_15_fill)"/>
    <path d="M 651.6976318359375 109.32688903808594 C 653.722900390625 110.66206359863281 664.11572265625 121.32254028320312 659.8849487304688 132.6953582763672 C 664.0264892578125 136.06068420410156 664.4847412109375 144.04278564453125 673.2026977539062 147.31849670410156 C 677.1018676757812 179.3311767578125 673.89013671875 210.80589294433594 676.2202758789062 267.1312255859375 C 675.13232421875 265.4791259765625 635.8942260742188 272.9523010253906 631.232177734375 264.02740478515625 C 635.671142578125 244.69192504882812 643.8139038085938 124.242919921875 651.6976318359375 109.32688903808594" stroke-width="0.0" fill="url(#shape_16_fill)"/>
    <path d="M 601.540283203125 128.1453094482422 C 604.1748046875 128.22140502929688 605.3881225585938 131.70082092285156 606.3124389648438 134.11289978027344 C 609.017822265625 135.15472412109375 607.0006103515625 141.33958435058594 609.2061157226562 144.0205078125 C 628.99560546875 143.3475341796875 633.148681640625 215.8865966796875 632.5902099609375 272.4898681640625 C 579.4263305664062 277.39166259765625 574.597900390625 268.79486083984375 580.2435913085938 242.4209442138672 C 557.941650390625 225.69729614257812 599.0685424804688 156.87188720703125 601.540283203125 128.1453094482422" stroke-width="0.0" fill="url(#shape_17_fill)"/>
    <path d="M 320.3267822265625 186.0690155029297 C 321.4829406738281 186.3511199951172 321.6158752441406 189.2351837158203 321.3594970703125 200.0382843017578 C 331.2226867675781 193.598876953125 331.8726501464844 193.58897399902344 336.2417297363281 196.17410278320312 C 345.55853271484375 197.88560485839844 346.1319274902344 197.04806518554688 357.8523864746094 189.1945037841797 C 358.59063720703125 192.30812072753906 359.5441589355469 194.4158935546875 356.2297058105469 201.85092163085938 C 359.46868896484375 203.9783172607422 361.5922546386719 204.1426544189453 364.8208923339844 210.3755645751953 C 367.3163146972656 207.0928497314453 368.5674133300781 207.8071746826172 368.2441101074219 211.50982666015625 C 370.0437316894531 220.12989807128906 370.2992248535156 223.11024475097656 366.1111755371094 225.60427856445312 C 365.7735900878906 231.6304473876953 362.97735595703125 239.43795776367188 368.46734619140625 248.9948272705078 C 370.56915283203125 253.3065948486328 368.84332275390625 255.68701171875 357.8701477050781 254.58424377441406 C 355.0981750488281 255.8804168701172 324.3390197753906 254.908447265625 322.5313415527344 255.43243408203125 C 313.2270812988281 255.88226318359375 311.8850402832031 253.9426727294922 308.9855651855469 246.325927734375 C 303.61358642578125 228.87774658203125 320.9830627441406 195.8165283203125 320.3267822265625 186.0690155029297" stroke-width="0.0" fill="url(#shape_18_fill)"/>
    <path d="M 483.8985595703125 235.90496826171875 C 506.8270568847656 252.6260986328125 515.8997192382812 263.6928405761719 495.510498046875 280.7987060546875 C 469.8352966308594 280.7049255371094 443.91607666015625 261.97125244140625 442.02459716796875 262.4950256347656 C 438.67510986328125 260.62567138671875 436.98321533203125 258.63604736328125 432.5419006347656 258.3021240234375 C 429.85552978515625 258.4712829589844 428.56756591796875 256.7288513183594 430.11126708984375 253.76898193359375 C 433.6474304199219 237.10960388183594 423.6284484863281 233.83035278320312 422.95989990234375 229.7305450439453 C 423.0856018066406 227.12913513183594 421.0594177246094 226.6950225830078 420.2743835449219 225.0585479736328 C 427.3803405761719 219.71615600585938 429.45721435546875 218.82598876953125 428.5135192871094 213.7414093017578 C 446.62640380859375 197.1822052001953 482.58935546875 196.2510986328125 483.8985595703125 235.90496826171875" stroke-width="0.0" fill="url(#shape_19_fill)"/>
    <path d="M 673.9541625976562 -2.9366888999938965 C 675.0673828125 32.84956741333008 674.5833740234375 64.76375579833984 674.714111328125 97.2905044555664 C 669.2454833984375 96.0025405883789 651.0706787109375 87.39620208740234 645.8094482421875 90.11752319335938 C 638.576904296875 89.47634887695312 638.0918579101562 86.07594299316406 637.2987670898438 83.97318267822266 C 626.6777954101562 84.62027740478516 620.432373046875 92.92790985107422 607.9892578125 86.77020263671875 C 609.657470703125 74.74037170410156 612.1797485351562 73.65518188476562 614.4974365234375 71.53070831298828 C 622.3551025390625 68.71377563476562 648.833740234375 25.099767684936523 647.5318603515625 20.584978103637695 C 655.4990844726562 9.134645462036133 656.6036987304688 2.044895887374878 669.0145874023438 3.3016886711120605 C 669.8314208984375 2.6961398124694824 670.0831909179688 1.048155665397644 673.9541625976562 -2.9366888999938965" stroke-width="0.0" fill="url(#shape_20_fill)"/>
    <path d="M 561.6177978515625 156.2316131591797 C 569.7840576171875 156.53787231445312 570.3624267578125 160.99375915527344 572.1080932617188 166.1628875732422 C 581.3251342773438 168.33984375 570.60498046875 230.41795349121094 577.5725708007812 240.59632873535156 C 580.3527221679688 244.895751953125 580.4072265625 247.16885375976562 578.1881103515625 271.164794921875 C 535.0853881835938 270.6624450683594 530.6173095703125 267.934326171875 537.1200561523438 248.64027404785156 C 546.0874633789062 244.8155517578125 550.4061279296875 168.9166259765625 555.4727172851562 156.74635314941406 C 555.6378784179688 152.6145782470703 560.109130859375 151.5336151123047 561.6177978515625 156.2316131591797" stroke-width="0.0" fill="url(#shape_21_fill)"/>
    <path d="M 215.0113525390625 210.4248809814453 C 235.1108856201172 208.15110778808594 239.18527221679688 239.52066040039062 225.2891387939453 257.52398681640625 C 211.3150177001953 262.7689514160156 208.9410400390625 263.36309814453125 208.8513641357422 273.0419616699219 C 205.785400390625 275.2738952636719 206.7275848388672 277.0477294921875 205.47064208984375 279.3209533691406 C 206.67825317382812 282.8641052246094 203.0152130126953 285.60760498046875 201.9839630126953 284.94085693359375 C 202.61819458007812 282.93157958984375 190.31692504882812 272.29443359375 188.06338500976562 263.2947998046875 C 186.62132263183594 261.3936767578125 184.0612335205078 263.2252197265625 181.39752197265625 263.7087097167969 C 181.0198211669922 261.2601318359375 180.0512237548828 259.6212158203125 178.37908935546875 251.51072692871094 C 178.96377563476562 247.7471466064453 168.85614013671875 242.40916442871094 170.73529052734375 238.67001342773438 C 175.2386474609375 213.5745391845703 177.05191040039062 212.93618774414062 185.44378662109375 220.40769958496094 C 193.63096618652344 219.86245727539062 194.01280212402344 215.0410919189453 198.55166625976562 213.4348602294922 C 184.29559326171875 205.5397186279297 184.34446716308594 200.2529296875 200.9880828857422 197.63394165039062 C 212.62648010253906 192.50018310546875 214.84898376464844 194.93606567382812 215.0113525390625 210.4248809814453" stroke-width="0.0" fill="url(#shape_22_fill)"/>
    <path d="M 111.74214935302734 426.1431579589844 C 112.75370788574219 429.2874755859375 111.06746673583984 431.2147521972656 110.65850067138672 431.3692321777344 C 104.96644592285156 432.6898193359375 103.225830078125 433.81317138671875 91.98048400878906 433.07464599609375 C 89.777099609375 435.9725341796875 95.65827941894531 446.421630859375 91.57251739501953 452.1399841308594 C 78.66380310058594 444.9972229003906 46.938175201416016 447.9271240234375 25.347126007080078 449.60546875 C 14.056653022766113 446.1590576171875 13.91057014465332 439.739501953125 17.957717895507812 436.3349914550781 C 35.575462341308594 427.60675048828125 49.36863327026367 426.6718444824219 73.4414291381836 427.0420837402344 C 73.54145050048828 423.8446350097656 110.01333618164062 420.56292724609375 111.74214935302734 426.1431579589844" stroke-width="0.0" fill="url(#shape_23_fill)"/>
    <path d="M 198.2852783203125 121.70973205566406 C 212.51194763183594 114.65662384033203 226.71365356445312 131.8997802734375 221.62351989746094 142.4263916015625 C 216.38095092773438 147.93568420410156 218.5817108154297 150.38905334472656 220.37911987304688 154.61016845703125 C 228.2551727294922 158.75503540039062 247.5692901611328 175.2200164794922 244.79571533203125 198.99771118164062 C 239.14244079589844 199.60118103027344 235.68399047851562 187.02137756347656 232.32659912109375 179.8022918701172 C 234.76651000976562 187.14688110351562 233.45094299316406 195.9644012451172 230.50909423828125 197.12879943847656 C 228.22772216796875 197.03634643554688 225.8279571533203 202.56724548339844 220.17893981933594 208.71095275878906 C 214.7745819091797 207.8472137451172 213.4998016357422 202.16030883789062 211.73219299316406 198.1741943359375 C 211.27667236328125 190.87440490722656 211.5906982421875 183.0395965576172 206.87213134765625 177.63404846191406 C 203.8339080810547 174.05450439453125 204.88778686523438 172.99581909179688 205.8005828857422 168.11781311035156 C 202.6027374267578 147.53366088867188 199.53231811523438 146.94244384765625 192.1269989013672 143.84323120117188 C 189.4635772705078 142.41131591796875 191.23284912109375 127.2585678100586 198.2852783203125 121.70973205566406" stroke-width="0.0" fill="url(#shape_24_fill)"/>
    <path d="M 589.3370971679688 401.5917663574219 C 602.1094360351562 404.23699951171875 630.3741455078125 402.9472961425781 639.5260009765625 409.0361633300781 C 637.40478515625 425.1858825683594 632.2330932617188 427.6445617675781 629.3740234375 425.5584716796875 C 630.5816650390625 427.8234558105469 636.177001953125 428.0227355957031 640.0087890625 436.396240234375 C 618.9923706054688 448.1761169433594 579.0072631835938 438.52679443359375 572.3025512695312 434.8908996582031 C 567.6483764648438 427.3359680175781 573.8888549804688 419.5914611816406 577.2800903320312 412.7488098144531 C 577.927001953125 411.3478088378906 585.426513671875 413.29150390625 589.3370971679688 401.5917663574219" stroke-width="0.0" fill="url(#shape_25_fill)"/>
    <path d="M 142.8663330078125 67.06639099121094 C 143.99432373046875 68.65110778808594 149.0513916015625 67.94084930419922 149.724609375 68.77924346923828 C 148.84747314453125 70.919189453125 150.41561889648438 71.83297729492188 149.41807556152344 73.970703125 C 151.0088348388672 74.52633666992188 150.1476593017578 78.75794982910156 149.5225830078125 92.88999938964844 C 152.96298217773438 92.93450927734375 155.04360961914062 95.30499267578125 152.68592834472656 104.12954711914062 C 153.13796997070312 107.74712371826172 155.0297088623047 108.53673553466797 155.77256774902344 111.08989715576172 C 157.2382049560547 123.59808349609375 154.86337280273438 133.47146606445312 149.71826171875 133.53668212890625 C 139.94236755371094 129.07736206054688 138.09750366210938 117.5541000366211 126.03280639648438 116.37296295166016 C 121.78569030761719 113.70896911621094 123.39009094238281 109.76707458496094 126.1794204711914 107.15399169921875 C 128.5319366455078 106.7554702758789 129.02243041992188 105.27434539794922 132.51197814941406 105.06361389160156 C 138.77459716796875 96.15885925292969 135.38194274902344 93.0110855102539 132.64195251464844 89.04459381103516 C 134.04470825195312 88.13526153564453 139.47064208984375 88.09881591796875 140.68597412109375 85.41421508789062 C 138.25656127929688 84.69293975830078 138.7787322998047 78.04344940185547 140.03822326660156 77.4017562866211 C 144.0747833251953 76.38160705566406 143.06866455078125 71.25747680664062 142.8663330078125 67.06639099121094" stroke-width="0.0" fill="url(#shape_26_fill)"/>
    <path d="M 139.55287170410156 67.7800064086914 C 149.2205047607422 66.74675750732422 149.46734619140625 67.84856414794922 148.7777862548828 77.44664001464844 C 150.5265655517578 78.28722381591797 151.16905212402344 80.79627990722656 154.98715209960938 85.28105926513672 C 149.99252319335938 90.36685943603516 155.05123901367188 95.99188232421875 150.90504455566406 105.23161315917969 C 152.74073791503906 106.09174346923828 153.7142791748047 109.79236602783203 155.42523193359375 113.03355407714844 C 152.94065856933594 115.88687896728516 157.8197784423828 122.05780029296875 153.05728149414062 126.21971130371094 C 152.48809814453125 132.01263427734375 151.31124877929688 133.16468811035156 147.59295654296875 134.78225708007812 C 142.1890411376953 130.6145782470703 128.16592407226562 122.37125396728516 129.63571166992188 117.6130599975586 C 124.27238464355469 118.35587310791016 122.78138732910156 112.81192016601562 128.45587158203125 110.69622039794922 C 122.69859313964844 107.43415069580078 124.65463256835938 104.02803802490234 132.928466796875 108.0048599243164 C 136.91909790039062 105.97627258300781 133.2844696044922 92.76222229003906 132.68238830566406 89.22569274902344 C 139.36935424804688 87.78079223632812 138.92193603515625 85.24969482421875 139.01686096191406 81.11883544921875 C 139.06382751464844 77.48741149902344 140.36129760742188 76.81348419189453 142.52426147460938 78.34654235839844 C 145.2931365966797 71.76888275146484 142.6100311279297 70.47370147705078 139.55287170410156 67.7800064086914" stroke-width="0.0" fill="url(#shape_27_fill)"/>
    <path d="M -0.45246651768684387 -0.2790040671825409 C 4.7364349365234375 0.3899555504322052 9.684688568115234 -0.5340448021888733 18.64092254638672 -0.8985691070556641 C 25.516923904418945 -1.864574670791626 26.061599731445312 -1.0688450336456299 58.49625015258789 0.31790125370025635 C 53.829681396484375 25.535879135131836 29.026304244995117 22.806169509887695 28.151201248168945 28.400920867919922 C 64.0079116821289 6.640805244445801 73.09273529052734 6.089462757110596 76.82125854492188 56.414817810058594 C 33.47867202758789 58.779659271240234 22.7048282623291 61.61104965209961 20.15245246887207 54.10757064819336 C 16.446577072143555 39.394203186035156 11.241979598999023 38.364418029785156 9.965293884277344 33.627769470214844 C 10.101273536682129 35.78879928588867 14.51753044128418 39.27091979980469 14.635079383850098 41.017581939697266 C 16.216114044189453 42.15180969238281 16.12127113342285 44.551395416259766 18.170654296875 47.87782669067383 C 20.07080078125 51.07381820678711 18.76805305480957 52.30524444580078 23.201509475708008 57.92436981201172 C 24.57170295715332 70.8119125366211 9.275053977966309 72.54412078857422 6.818278789520264 61.894920349121094 C 5.020476341247559 61.027557373046875 3.584423065185547 59.1130485534668 0.31024718284606934 59.45086669921875 C -0.32240062952041626 39.80989074707031 -0.32515737414360046 19.638830184936523 -0.45246651768684387 -0.2790040671825409" stroke-width="0.0" fill="url(#shape_28_fill)"/>
    <path d="M 298.1582336425781 197.28372192382812 C 297.7561950683594 199.49606323242188 300.8070983886719 202.145751953125 301.5819396972656 209.09848022460938 C 300.40631103515625 214.42042541503906 325.8472900390625 221.97079467773438 315.9721374511719 255.51402282714844 C 311.9062805175781 254.7161865234375 310.4935302734375 255.72108459472656 304.30401611328125 255.04022216796875 C 304.0005798339844 258.14093017578125 298.2237243652344 258.2859191894531 281.39202880859375 256.5893249511719 C 276.4494323730469 223.46807861328125 285.26202392578125 221.968017578125 298.1582336425781 197.28372192382812" stroke-width="0.0" fill="url(#shape_29_fill)"/>
    <path d="M 0.0036938777193427086 -0.14426222443580627 C 4.636544704437256 0.4611571133136749 9.857144355773926 -0.407341331243515 14.769689559936523 0.08641563355922699 C 15.99090576171875 0.4664326012134552 16.804731369018555 1.8846765756607056 16.6297664642334 7.8555731773376465 C 18.74441909790039 11.03687858581543 21.288925170898438 19.202791213989258 27.9947452545166 20.49721908569336 C 27.3624267578125 22.64744758605957 23.389162063598633 26.71949005126953 25.899023056030273 31.984987258911133 C 20.749879837036133 32.49939727783203 11.336788177490234 30.33315658569336 3.3609721660614014 33.45918273925781 C 8.77770709991455 36.306461334228516 8.618260383605957 39.24305725097656 10.855231285095215 40.47360610961914 C 10.566996574401855 42.698463439941406 7.339934349060059 49.34359359741211 11.759631156921387 53.79680633544922 C 17.787490844726562 51.01090621948242 19.449031829833984 51.43248748779297 18.514238357543945 58.418052673339844 C 11.319726943969727 60.673240661621094 9.424559593200684 62.34541702270508 0.17451278865337372 61.66321563720703 C -0.4289075434207916 39.980384826660156 -0.3547298312187195 19.75678825378418 0.0036938777193427086 -0.14426222443580627" stroke-width="0.0" fill="url(#shape_30_fill)"/>
    <path d="M 549.0756225585938 70.7173080444336 C 546.7615356445312 78.64151000976562 576.824462890625 89.2298355102539 581.3946533203125 91.88133239746094 C 581.0161743164062 93.04153442382812 577.5618896484375 93.4009017944336 577.5612182617188 98.3393783569336 C 573.2991943359375 100.683349609375 572.0504150390625 99.79759979248047 569.3947143554688 100.0394058227539 C 567.0216064453125 93.94916534423828 547.54931640625 98.74781036376953 538.8836669921875 88.2673568725586 C 538.2551879882812 85.53268432617188 538.8109130859375 82.82971954345703 535.9258422851562 81.7403793334961 C 533.8639526367188 81.27042388916016 527.1748657226562 79.42638397216797 526.9869384765625 77.98158264160156 C 524.9686279296875 75.8853759765625 527.7584838867188 70.86287689208984 531.7591552734375 68.9492416381836 C 539.322265625 66.81278991699219 542.8353881835938 71.48885345458984 549.0756225585938 70.7173080444336" stroke-width="0.0" fill="url(#shape_31_fill)"/>
    <path d="M 446.8701171875 264.4776611328125 C 450.59075927734375 265.3435974121094 451.23077392578125 266.78668212890625 455.44964599609375 267.9044494628906 C 460.5113830566406 267.6551208496094 465.32232666015625 270.3759765625 469.9693603515625 272.9671630859375 C 470.4309997558594 275.6334533691406 471.828857421875 276.8868713378906 471.6768798828125 280.7894592285156 C 452.491455078125 287.2052917480469 431.5139465332031 284.1853332519531 415.8542175292969 285.12939453125 C 413.34136962890625 273.86859130859375 413.8133544921875 272.2614440917969 415.080078125 267.8788757324219 C 418.16778564453125 267.1827697753906 417.6718444824219 264.75457763671875 419.2977600097656 262.8088073730469 C 445.087646484375 250.24026489257812 447.2946472167969 251.3628387451172 446.8701171875 264.4776611328125" stroke-width="0.0" fill="url(#shape_32_fill)"/>
    <path d="M 272.9390563964844 192.06655883789062 C 273.9276123046875 192.3865203857422 288.5792236328125 243.7554931640625 282.91241455078125 249.90225219726562 C 279.7107238769531 250.00341796875 274.1648254394531 248.0218963623047 269.01959228515625 250.5048370361328 C 265.9900817871094 246.93023681640625 266.32220458984375 243.1603240966797 260.7605895996094 240.716552734375 C 254.8975830078125 208.32986450195312 262.1803894042969 205.18267822265625 272.9390563964844 192.06655883789062" stroke-width="0.0" fill="url(#shape_33_fill)"/>
    <path d="M 270.3698425292969 406.0494079589844 C 262.15802001953125 429.8046875 264.20428466796875 430.9094543457031 267.4728698730469 440.6562805175781 C 262.4876403808594 440.8364562988281 260.6843566894531 446.4146423339844 258.62548828125 447.86334228515625 C 245.93614196777344 446.60821533203125 213.51597595214844 448.1796569824219 211.90866088867188 445.2303161621094 C 213.02108764648438 436.9957275390625 213.95974731445312 436.220947265625 216.10264587402344 434.8182067871094 C 216.57571411132812 433.708740234375 225.13442993164062 434.1859436035156 226.8717498779297 431.20367431640625 C 225.90768432617188 417.1874084472656 230.23683166503906 416.5367736816406 270.3698425292969 406.0494079589844" stroke-width="0.0" fill="url(#shape_34_fill)"/>
    <path d="M 105.67854309082031 69.39500427246094 C 110.23555755615234 69.72042846679688 110.49557495117188 78.22322082519531 112.85575866699219 85.3310775756836 C 118.12059020996094 86.37310791015625 115.65644073486328 109.99808502197266 118.99771118164062 110.65789794921875 C 116.6499252319336 112.43736267089844 109.3145523071289 114.15174865722656 107.03457641601562 124.9989013671875 C 104.5467300415039 117.12086486816406 96.46795654296875 118.93643951416016 87.571044921875 106.40787506103516 C 86.13851165771484 85.64839172363281 106.4580307006836 84.14730834960938 105.67854309082031 69.39500427246094" stroke-width="0.0" fill="url(#shape_35_fill)"/>
    <path d="M 451.1871337890625 178.4901885986328 C 454.302001953125 176.0814208984375 456.4115905761719 177.78173828125 455.05316162109375 180.33567810058594 C 455.7920227050781 180.94049072265625 454.902099609375 184.90451049804688 456.03582763671875 186.85423278808594 C 456.47662353515625 188.4225616455078 459.4231262207031 193.63458251953125 458.5574035644531 204.4685821533203 C 458.8360900878906 208.2853240966797 453.27764892578125 210.28057861328125 445.8981628417969 204.39846801757812 C 442.2596435546875 206.7209930419922 440.701171875 209.3792724609375 431.9212341308594 210.8557586669922 C 436.13189697265625 209.9175567626953 437.0047302246094 187.05332946777344 437.679931640625 173.39974975585938 C 440.1567687988281 178.62759399414062 440.7276916503906 181.29734802246094 446.8896179199219 181.6912841796875 C 447.9690856933594 179.75888061523438 450.1540222167969 179.7298583984375 451.1871337890625 178.4901885986328" stroke-width="0.0" fill="url(#shape_36_fill)"/>
    <path d="M 558.2962646484375 84.79167175292969 C 559.5023193359375 79.9986343383789 578.3308715820312 83.3460922241211 579.2529907226562 84.96393585205078 C 581.3037719726562 83.06314849853516 586.2940063476562 84.9762954711914 588.5095825195312 88.8143081665039 C 598.9909057617188 112.11249542236328 588.3115234375 118.6078872680664 574.295654296875 100.97972869873047 C 573.7896118164062 99.43180084228516 549.5438842773438 96.68255615234375 548.9837646484375 86.5299072265625 C 539.2205810546875 87.07054901123047 537.85302734375 85.48065185546875 536.4749145507812 79.56172180175781 C 542.9982299804688 75.02377319335938 547.131103515625 78.56015014648438 558.2962646484375 84.79167175292969" stroke-width="0.0" fill="url(#shape_37_fill)"/>
    <path d="M 251.24278259277344 206.08914184570312 C 265.987060546875 215.86082458496094 261.3634948730469 233.69601440429688 260.0533447265625 248.9358367919922 C 260.0235595703125 254.73280334472656 251.58514404296875 255.34498596191406 248.8261260986328 256.8482360839844 C 234.1702117919922 236.0711212158203 240.7660369873047 216.95111083984375 251.24278259277344 206.08914184570312" stroke-width="0.0" fill="url(#shape_38_fill)"/>
    <path d="M 442.2375183105469 262.9661560058594 C 445.99566650390625 263.4168395996094 449.2243347167969 266.6788330078125 447.9449157714844 270.0819091796875 C 444.6692810058594 270.4041442871094 442.67523193359375 277.3683776855469 440.0733642578125 277.3877868652344 C 438.0011901855469 286.8554382324219 430.9328308105469 286.1577453613281 417.5216979980469 275.3254089355469 C 414.3857727050781 276.59869384765625 413.1078186035156 274.17279052734375 416.4165954589844 271.57965087890625 C 414.80718994140625 269.9149169921875 419.29156494140625 262.2898864746094 425.1996154785156 258.5203857421875 C 426.9714050292969 257.8804626464844 440.73779296875 257.7122802734375 442.2375183105469 262.9661560058594" stroke-width="0.0" fill="url(#shape_39_fill)"/>
    <path d="M 407.6339416503906 409.96319580078125 C 408.6250305175781 409.9285888671875 416.7635192871094 419.18194580078125 414.3346252441406 424.4421081542969 C 398.44598388671875 435.3833923339844 386.4212951660156 420.465576171875 376.5270690917969 420.8968505859375 C 371.0664367675781 417.963134765625 371.2231750488281 416.5549011230469 372.6194763183594 410.5697021484375 C 375.6093444824219 400.920166015625 391.5386657714844 404.0614318847656 407.6339416503906 409.96319580078125" stroke-width="0.0" fill="url(#shape_40_fill)"/>
    <path d="M 66.6658706665039 427.32965087890625 C 67.20079040527344 428.914306640625 63.85936737060547 431.792724609375 58.57189178466797 433.97332763671875 C 57.33367156982422 435.7294616699219 42.85370635986328 435.42974853515625 30.8209228515625 443.30255126953125 C 28.99103355407715 443.4276123046875 26.81484603881836 444.1772766113281 17.425426483154297 442.501220703125 C 16.467023849487305 440.6541748046875 18.104202270507812 439.2092590332031 17.39065170288086 437.7420654296875 C 36.59837341308594 427.0046691894531 50.8189582824707 428.59625244140625 66.6658706665039 427.32965087890625" stroke-width="0.0" fill="url(#shape_41_fill)"/>
    <path d="M 276.1485900878906 381.1105041503906 C 285.140625 381.861328125 299.8139343261719 379.5612487792969 314.3482971191406 384.68310546875 C 296.70050048828125 394.420166015625 299.3039855957031 401.18536376953125 294.60400390625 405.25213623046875 C 291.7876892089844 400.1678466796875 268.4324951171875 407.6354675292969 257.3005065917969 410.1640319824219 C 235.37242126464844 420.7207336425781 227.62310791015625 417.7117919921875 226.4459228515625 383.9508361816406 C 259.95355224609375 377.8040771484375 266.09228515625 382.2267761230469 276.1485900878906 381.1105041503906" stroke-width="0.0" fill="url(#shape_42_fill)"/>
    <path d="M 222.6769561767578 209.07919311523438 C 224.22653198242188 206.3546142578125 238.29342651367188 206.30078125 238.93710327148438 209.7723388671875 C 242.66014099121094 222.21127319335938 243.58363342285156 245.28932189941406 256.5184631347656 270.7702331542969 C 252.52532958984375 276.7227478027344 243.59393310546875 273.5531311035156 208.12440490722656 272.3732604980469 C 208.67359924316406 266.22869873046875 206.1902313232422 250.81370544433594 216.0512237548828 247.5048828125 C 219.1461181640625 246.44955444335938 218.5066375732422 226.42787170410156 222.6769561767578 209.07919311523438" stroke-width="0.0" fill="url(#shape_43_fill)"/>
    <path d="M 483.5180969238281 396.22802734375 C 486.720458984375 399.56573486328125 485.77447509765625 400.9642333984375 483.3204650878906 400.94464111328125 C 468.7634582519531 407.5461120605469 451.1646423339844 406.95281982421875 450.302978515625 407.4612121582031 C 448.4168395996094 404.4501037597656 451.8433837890625 396.2320251464844 453.7351989746094 396.5262145996094 C 466.909912109375 393.37860107421875 470.8200988769531 392.4930114746094 483.5180969238281 396.22802734375" stroke-width="0.0" fill="url(#shape_44_fill)"/>
    <path d="M 45.936668395996094 408.14990234375 C 45.21797561645508 407.7408752441406 35.927494049072266 412.986328125 31.653587341308594 412.4775085449219 C 31.98948097229004 414.2125244140625 31.660015106201172 415.6292724609375 28.067794799804688 415.01202392578125 C 26.935823440551758 416.3202819824219 23.731786727905273 416.8749694824219 20.48420524597168 419.6004333496094 C 18.678133010864258 420.1374816894531 0.15198421478271484 417.63543701171875 -0.5414486527442932 420.60174560546875 C 1.8448323011398315 419.2882995605469 -1.074949026107788 411.1443176269531 0.9979727268218994 410.1878967285156 C 5.661012649536133 409.6884765625 45.480037689208984 406.2591857910156 45.936668395996094 408.14990234375" stroke-width="0.0" fill="url(#shape_45_fill)"/>
    <path d="M 452.4537353515625 173.36769104003906 C 453.85455322265625 174.93441772460938 464.4307556152344 198.61753845214844 467.4778137207031 199.64073181152344 C 462.5715637207031 209.09344482421875 450.9347229003906 209.13577270507812 449.4400939941406 206.53488159179688 C 448.2943115234375 203.27626037597656 448.9206848144531 198.3268280029297 448.8504638671875 195.29678344726562 C 447.9679870605469 194.576416015625 447.581298828125 192.025390625 448.52545166015625 187.97976684570312 C 450.9518127441406 186.636474609375 450.0583801269531 182.38661193847656 452.4537353515625 173.36769104003906" stroke-width="0.0" fill="url(#shape_46_fill)"/>
    <path d="M 372.02423095703125 183.68319702148438 C 380.0594177246094 198.5674591064453 380.1702575683594 202.66453552246094 371.7618103027344 205.79237365722656 C 365.86846923828125 206.84075927734375 364.772216796875 204.7426300048828 361.5614013671875 206.09060668945312 C 339.3304443359375 212.5142059326172 334.7339782714844 200.22280883789062 353.3013000488281 189.44183349609375 C 356.7120361328125 184.9843292236328 358.37908935546875 184.35598754882812 368.1825866699219 185.45806884765625 C 369.0207214355469 182.76385498046875 371.4079284667969 182.92689514160156 372.02423095703125 183.68319702148438" stroke-width="0.0" fill="url(#shape_47_fill)"/>
    <path d="M 473.23052978515625 264.4231262207031 C 473.6723937988281 269.03497314453125 481.223388671875 271.69110107421875 485.0572814941406 283.3282470703125 C 467.48052978515625 287.9285583496094 445.3678894042969 287.0068359375 443.8241271972656 284.9134521484375 C 439.3303527832031 282.0877685546875 439.99822998046875 276.96826171875 440.9740295410156 276.2762756347656 C 449.5006408691406 266.4914855957031 455.6712951660156 261.5621337890625 473.23052978515625 264.4231262207031" stroke-width="0.0" fill="url(#shape_48_fill)"/>
    <path d="M 176.4945068359375 116.6539535522461 C 178.2146453857422 115.6224365234375 181.72088623046875 116.11893463134766 182.77340698242188 117.14452362060547 C 184.62905883789062 120.0884780883789 183.93508911132812 121.74497985839844 184.753662109375 123.28330993652344 C 179.4078826904297 128.23907470703125 185.57492065429688 137.0515899658203 183.0161590576172 139.13563537597656 C 181.5772705078125 146.21090698242188 172.8186798095703 146.2925262451172 172.41172790527344 146.8773193359375 C 172.96987915039062 126.9453125 171.07920837402344 124.37920379638672 176.4945068359375 116.6539535522461" stroke-width="0.0" fill="url(#shape_49_fill)"/>
    <path d="M 333.2515869140625 427.1815185546875 C 335.99041748046875 429.6297607421875 343.0384826660156 429.7127990722656 343.7912292480469 431.4729309082031 C 346.38299560546875 435.5601806640625 345.15838623046875 437.2054138183594 342.2337951660156 437.45770263671875 C 342.38946533203125 447.32586669921875 325.5435791015625 448.808349609375 323.5361328125 445.8142395019531 C 321.5854187011719 436.1336975097656 321.5935363769531 432.72235107421875 304.9156188964844 431.05743408203125 C 317.0673522949219 424.5548400878906 326.8940124511719 430.9949035644531 333.2515869140625 427.1815185546875" stroke-width="0.0" fill="url(#shape_50_fill)"/>
    <path d="M 322.780029296875 388.7834777832031 C 317.22454833984375 397.0723876953125 293.0870666503906 395.2451477050781 291.5283203125 399.03424072265625 C 279.098876953125 397.70001220703125 277.8485412597656 398.9338684082031 271.2279357910156 402.1938781738281 C 271.3113098144531 401.5940246582031 270.15826416015625 398.88800048828125 271.8423156738281 397.5154113769531 C 270.4875183105469 395.60009765625 273.6888732910156 388.7747497558594 280.0783386230469 388.49127197265625 C 284.14947509765625 386.8993835449219 288.4540710449219 390.01788330078125 322.780029296875 388.7834777832031" stroke-width="0.0" fill="url(#shape_51_fill)"/>
    <path d="M 269.02008056640625 188.1608123779297 C 278.3844909667969 195.53964233398438 276.783447265625 207.64590454101562 280.2633056640625 217.43629455566406 C 271.5680236816406 210.45712280273438 269.5589294433594 208.51992797851562 260.07501220703125 217.3008270263672 C 258.334716796875 208.94488525390625 262.4764709472656 195.18307495117188 268.03997802734375 195.91946411132812 C 269.7253723144531 194.17599487304688 268.8259582519531 191.55789184570312 269.02008056640625 188.1608123779297" stroke-width="0.0" fill="url(#shape_52_fill)"/>
    <path d="M 218.6075897216797 409.3266296386719 C 215.8801727294922 410.8898620605469 215.816650390625 413.3619689941406 214.3224639892578 415.5752258300781 C 214.66355895996094 424.2378845214844 195.82928466796875 425.3148498535156 187.7624969482422 415.6929016113281 C 186.39288330078125 403.3426818847656 209.75038146972656 398.39312744140625 218.6075897216797 409.3266296386719" stroke-width="0.0" fill="url(#shape_53_fill)"/>
    <path d="M 206.04434204101562 424.6321105957031 C 205.43124389648438 425.2102355957031 206.15261840820312 428.30340576171875 204.5428009033203 428.70965576171875 C 194.7732696533203 429.4292907714844 178.83425903320312 430.1218566894531 178.1373748779297 432.7179260253906 C 176.99887084960938 430.9398193359375 178.61158752441406 425.94049072265625 177.28981018066406 423.8570251464844 C 187.22300720214844 418.57843017578125 192.30413818359375 423.3514709472656 206.04434204101562 424.6321105957031" stroke-width="0.0" fill="url(#shape_54_fill)"/>
    <path d="M 268.9673767089844 248.30397033691406 C 275.04815673828125 245.32594299316406 276.9259338378906 247.46043395996094 279.0010070800781 249.4687957763672 C 281.066650390625 251.0150909423828 280.666259765625 252.19508361816406 294.78472900390625 273.89300537109375 C 263.5174255371094 258.1650085449219 262.8389892578125 257.5649719238281 248.63528442382812 269.7539367675781 C 254.80699157714844 248.1717071533203 255.93826293945312 247.2609405517578 258.8293151855469 245.20745849609375 C 261.1779479980469 240.19491577148438 262.9251403808594 239.39013671875 268.9673767089844 248.30397033691406" stroke-width="0.0" fill="url(#shape_55_fill)"/>
    <path d="M 293.2512512207031 332.3939514160156 C 288.9742736816406 362.6747741699219 289.4064025878906 363.553466796875 285.68157958984375 368.05889892578125 C 285.5692443847656 369.222900390625 286.103515625 371.7599182128906 285.4999694824219 381.73980712890625 C 266.9425048828125 379.05450439453125 254.62474060058594 380.7281494140625 231.6805419921875 382.82781982421875 C 227.5938720703125 382.2111511230469 226.4202880859375 368.48638916015625 236.8515167236328 344.9305419921875 C 237.47767639160156 334.2453918457031 237.70884704589844 330.9864501953125 293.2512512207031 332.3939514160156" stroke-width="0.0" fill="url(#shape_56_fill)"/>
    <path d="M 407.9324035644531 271.8180236816406 C 412.4149169921875 271.0220642089844 417.7976379394531 275.9836730957031 425.7686462402344 281.9737243652344 C 416.3327331542969 283.488525390625 412.4878845214844 275.3031921386719 372.5729675292969 274.44073486328125 C 374.5013732910156 262.0657653808594 382.3037414550781 263.242431640625 407.9324035644531 271.8180236816406" stroke-width="0.0" fill="url(#shape_57_fill)"/>
    <path d="M 632.1268920898438 352.7315368652344 C 632.9813842773438 354.2671203613281 660.9671630859375 355.38482666015625 668.4651489257812 355.9247741699219 C 668.4183959960938 357.92669677734375 662.9899291992188 360.0735778808594 660.2018432617188 356.4848327636719 C 644.0577392578125 356.75958251953125 637.0332641601562 358.7008361816406 631.764892578125 359.33392333984375 C 627.9511108398438 357.46142578125 629.6326293945312 353.7302551269531 632.1268920898438 352.7315368652344" stroke-width="0.0" fill="url(#shape_58_fill)"/>
    <path d="M 341.4040832519531 384.5627136230469 C 342.8503112792969 390.04522705078125 358.1597900390625 391.5621032714844 359.1552734375 394.5488586425781 C 356.5838317871094 398.53131103515625 339.776611328125 401.30462646484375 338.2700500488281 399.5777893066406 C 335.1358642578125 399.64239501953125 333.0482482910156 398.7938232421875 331.8178405761719 396.5372619628906 C 331.9949951171875 394.93994140625 330.73797607421875 393.4737243652344 332.22076416015625 390.56585693359375 C 332.6297912597656 384.8173828125 335.2003173828125 383.72998046875 341.4040832519531 384.5627136230469" stroke-width="0.0" fill="url(#shape_59_fill)"/>
    <path d="M 457.5029296875 365.3595886230469 C 461.4253234863281 361.2384338378906 474.2617492675781 372.46832275390625 473.2542419433594 374.6546936035156 C 471.8158874511719 376.24017333984375 470.33636474609375 376.8134460449219 463.707275390625 375.86480712890625 C 458.947265625 376.7091979980469 456.9541015625 377.0868835449219 452.7632141113281 371.004150390625 C 453.4181823730469 370.181640625 458.43927001953125 368.40997314453125 457.5029296875 365.3595886230469" stroke-width="0.0" fill="url(#shape_60_fill)"/>
    <path d="M 428.2029724121094 432.3228759765625 C 439.96954345703125 434.1861877441406 442.363037109375 436.77386474609375 442.12030029296875 438.6125183105469 C 440.25115966796875 440.7478332519531 427.14794921875 439.3685302734375 425.6604919433594 441.94287109375 C 422.56317138671875 437.41204833984375 423.9224548339844 434.69354248046875 410.0310974121094 425.34869384765625 C 427.69219970703125 427.9186096191406 428.9521179199219 431.6234130859375 428.2029724121094 432.3228759765625" stroke-width="0.0" fill="url(#shape_61_fill)"/>
    <path d="M 185.3826446533203 411.4521484375 C 186.24057006835938 413.8905029296875 185.04844665527344 414.82061767578125 186.8294677734375 417.6928405761719 C 184.8800048828125 420.2408447265625 183.37646484375 419.4780578613281 182.5506591796875 419.8181457519531 C 180.84056091308594 421.6667785644531 174.47634887695312 420.1130676269531 171.872802734375 419.9006042480469 C 169.6194610595703 417.4983825683594 169.79225158691406 415.62152099609375 174.46182250976562 412.87646484375 C 177.37109375 412.9714050292969 180.7358856201172 411.1943054199219 185.3826446533203 411.4521484375" stroke-width="0.0" fill="url(#shape_62_fill)"/>
    <path d="M 331.68035888671875 418.9554748535156 C 334.1677551269531 425.543701171875 329.830810546875 427.7396240234375 327.19244384765625 425.3555603027344 C 324.44232177734375 427.71490478515625 322.93841552734375 426.663818359375 322.0920104980469 427.2332458496094 C 319.0563049316406 425.9240417480469 320.147216796875 419.9355773925781 317.687744140625 418.5398254394531 C 318.95001220703125 420.42486572265625 325.6139831542969 418.4677429199219 331.68035888671875 418.9554748535156" stroke-width="0.0" fill="url(#shape_63_fill)"/>
    <path d="M 55.66854476928711 274.5074462890625 C 56.79471206665039 270.0611267089844 64.03253173828125 271.4811096191406 62.84917068481445 278.7955017089844 C 60.033016204833984 278.2116394042969 53.858436584472656 272.5330505371094 48.714786529541016 276.2919921875 C 51.598636627197266 274.04937744140625 53.20341491699219 273.4932556152344 55.66854476928711 274.5074462890625" stroke-width="0.0" fill="url(#shape_64_fill)"/>
    <path d="M 304.6957702636719 440.33599853515625 C 304.5601806640625 437.808349609375 306.40216064453125 436.9299621582031 313.23492431640625 437.73541259765625 C 314.34088134765625 439.6150817871094 312.8026123046875 441.02398681640625 310.7063903808594 441.094482421875 C 307.7801818847656 445.1257629394531 306.4201965332031 444.1696472167969 305.0758972167969 443.7044372558594 C 302.6025085449219 441.7168884277344 303.3853454589844 440.3661804199219 304.6957702636719 440.33599853515625" stroke-width="0.0" fill="url(#shape_65_fill)"/>
    <path d="M -0.6141567826271057 -0.42060866951942444 C 224.65188598632812 -0.110005222260952 444.0692443847656 0.31746381521224976 672.3528442382812 0.10443497449159622 C 673.4010620117188 155.6529083251953 674.8125 295.6465759277344 673.7813110351562 445.4684753417969 C 449.991455078125 446.31195068359375 229.90916442871094 446.32659912109375 0.487884521484375 445.5583801269531 C 0.18207843601703644 297.26953125 -0.23547452688217163 149.60813903808594 -0.6141567826271057 -0.42060866951942444" stroke-width="0.0" fill="url(#shape_66_fill)"/>
    <path d="M -1.1561024188995361 -0.24403662979602814 C 222.92527770996094 -0.14192311465740204 442.8619384765625 0.4124903380870819 672.2764892578125 -0.26436707377433777 C 673.4061279296875 156.89569091796875 674.8615112304688 295.36614990234375 673.4100341796875 445.39385986328125 C 450.3084716796875 446.3688659667969 230.00100708007812 446.3554382324219 0.5318634510040283 445.50006103515625 C 0.026652444154024124 297.6217346191406 -0.31193676590919495 149.24197387695312 -1.1561024188995361 -0.24403662979602814" stroke-width="0.0" fill="url(#shape_67_fill)"/>
    <path d="M -0.7348045706748962 -0.2913324236869812 C 223.61097717285156 -0.19846779108047485 441.52362060546875 0.5462613701820374 672.56201171875 -0.34169653058052063 C 673.557861328125 155.75563049316406 674.8651123046875 295.11181640625 673.3955688476562 445.3932189941406 C 450.3153076171875 446.371337890625 230.0936279296875 446.34869384765625 1.105195164680481 445.4627685546875 C 0.4712349772453308 295.76019287109375 0.05682847276329994 148.5740966796875 -0.7348045706748962 -0.2913324236869812" stroke-width="0.0" fill="url(#shape_68_fill)"/>
  </g>
</svg>
