<?xml version="1.0" ?>
<svg xmlns="http://www.w3.org/2000/svg" version="1.1" width="674" height="446">
  <defs>
    <radialGradient id="shape_0_fill" cx="0.5310777160463418" cy="0.7388836642551849" r="0.2827277707063126">
      <stop offset="0.71085477" stop-color="rgb(158, 166, 0)" stop-opacity="0.8357560038566589"/>
      <stop offset="1.0" stop-color="rgb(48, 40, 0)" stop-opacity="0.9793964624404907"/>
    </radialGradient>
    <radialGradient id="shape_1_fill" cx="0.5323926433257604" cy="0.743426335766711" r="0.20669797902998654">
      <stop offset="0.3414925" stop-color="rgb(64, 56, 76)" stop-opacity="0.7269639372825623"/>
      <stop offset="0.9792309" stop-color="rgb(35, 6, 0)" stop-opacity="0.5995901226997375"/>
    </radialGradient>
    <radialGradient id="shape_2_fill" cx="0.09792273546892387" cy="0.7376672719091578" r="0.22062588021026522">
      <stop offset="0.00736714" stop-color="rgb(52, 114, 190)" stop-opacity="0.8446693420410156"/>
      <stop offset="1.0" stop-color="rgb(2, 85, 255)" stop-opacity="0.891485333442688"/>
    </radialGradient>
    <radialGradient id="shape_3_fill" cx="0.27860821460757834" cy="0.21490613655124544" r="0.13246017818281133">
      <stop offset="0.40675738" stop-color="rgb(127, 170, 0)" stop-opacity="0.7677823305130005"/>
      <stop offset="1.0" stop-color="rgb(35, 29, 0)" stop-opacity="0.9253845810890198"/>
    </radialGradient>
    <radialGradient id="shape_4_fill" cx="0.1543026706231454" cy="0.9977578475336323" r="0.10288926755639141">
      <stop offset="0.0" stop-color="rgb(81, 79, 86)" stop-opacity="1.0"/>
      <stop offset="1.0" stop-color="rgb(48, 36, 62)" stop-opacity="0.8470305800437927"/>
    </radialGradient>
    <radialGradient id="shape_5_fill" cx="0.14807964290992442" cy="0.23997249517740155" r="0.11810664960821587">
      <stop offset="0.0" stop-color="rgb(255, 255, 255)" stop-opacity="0.6465655565261841"/>
      <stop offset="0.5626593" stop-color="rgb(255, 255, 255)" stop-opacity="0.5156781077384949"/>
    </radialGradient>
    <radialGradient id="shape_6_fill" cx="0.18397626112759644" cy="0.9977578475336323" r="0.0754974885934892">
      <stop offset="0.0" stop-color="rgb(93, 90, 94)" stop-opacity="1.0"/>
      <stop offset="1.0" stop-color="rgb(150, 127, 134)" stop-opacity="0.8491778373718262"/>
    </radialGradient>
    <radialGradient id="shape_7_fill" cx="0.2893175074183976" cy="0.05829596412556054" r="0.08666390552011372">
      <stop offset="0.0" stop-color="rgb(55, 66, 29)" stop-opacity="1.0"/>
      <stop offset="1.0" stop-color="rgb(122, 130, 58)" stop-opacity="0.5740516781806946"/>
    </radialGradient>
    <radialGradient id="shape_8_fill" cx="0.3382789091115889" cy="0.9439461883408071" r="0.06756690277190167">
      <stop offset="0.0" stop-color="rgb(91, 124, 45)" stop-opacity="1.0"/>
      <stop offset="1.0" stop-color="rgb(79, 131, 0)" stop-opacity="0.5436416268348694"/>
    </radialGradient>
    <radialGradient id="shape_9_fill" cx="0.30712166172106825" cy="0.9977578475336323" r="0.0730758406641929">
      <stop offset="0.0" stop-color="rgb(38, 48, 20)" stop-opacity="1.0"/>
      <stop offset="1.0" stop-color="rgb(34, 27, 53)" stop-opacity="1.0"/>
    </radialGradient>
    <radialGradient id="shape_10_fill" cx="0.3056379821958457" cy="0.9977578475336323" r="0.06792919147615971">
      <stop offset="0.0" stop-color="rgb(39, 49, 21)" stop-opacity="1.0"/>
      <stop offset="1.0" stop-color="rgb(32, 5, 0)" stop-opacity="0.6438680291175842"/>
    </radialGradient>
    <radialGradient id="shape_11_fill" cx="0.21810089020771514" cy="0.968609865470852" r="0.06792919147615971">
      <stop offset="0.0" stop-color="rgb(138, 135, 129)" stop-opacity="1.0"/>
      <stop offset="1.0" stop-color="rgb(113, 62, 38)" stop-opacity="0.396011084318161"/>
    </radialGradient>
    <radialGradient id="shape_12_fill" cx="0.29080118694362017" cy="0.9977578475336323" r="0.07480746985189285">
      <stop offset="0.0" stop-color="rgb(22, 25, 13)" stop-opacity="1.0"/>
      <stop offset="1.0" stop-color="rgb(38, 30, 16)" stop-opacity="1.0"/>
    </radialGradient>
    <radialGradient id="shape_13_fill" cx="0.327893175074184" cy="0.8923766816143498" r="0.06900465877544279">
      <stop offset="0.0" stop-color="rgb(89, 117, 50)" stop-opacity="1.0"/>
      <stop offset="1.0" stop-color="rgb(92, 119, 8)" stop-opacity="0.6376869678497314"/>
    </radialGradient>
    <radialGradient id="shape_14_fill" cx="0.142433234421365" cy="0.9977578475336323" r="0.06617211022079875">
      <stop offset="0.0" stop-color="rgb(155, 150, 153)" stop-opacity="1.0"/>
      <stop offset="1.0" stop-color="rgb(255, 135, 134)" stop-opacity="0.22593286633491516"/>
    </radialGradient>
    <radialGradient id="shape_15_fill" cx="0.31008902077151335" cy="0.9977578475336323" r="0.06683642786405207">
      <stop offset="0.0" stop-color="rgb(43, 55, 23)" stop-opacity="1.0"/>
      <stop offset="1.0" stop-color="rgb(62, 65, 22)" stop-opacity="0.8634355664253235"/>
    </radialGradient>
    <radialGradient id="shape_16_fill" cx="0.27299703264094954" cy="0.9977578475336323" r="0.08110449363640579">
      <stop offset="0.0" stop-color="rgb(31, 35, 19)" stop-opacity="1.0"/>
      <stop offset="1.0" stop-color="rgb(30, 23, 0)" stop-opacity="0.939356803894043"/>
    </radialGradient>
    <radialGradient id="shape_17_fill" cx="0.2893175074183976" cy="0.9977578475336323" r="0.07513486030193747">
      <stop offset="0.0" stop-color="rgb(22, 23, 13)" stop-opacity="1.0"/>
      <stop offset="1.0" stop-color="rgb(26, 19, 0)" stop-opacity="0.8516699075698853"/>
    </radialGradient>
    <radialGradient id="shape_18_fill" cx="0.3293768545994065" cy="0.7556053811659192" r="0.06617211022079875">
      <stop offset="0.0" stop-color="rgb(83, 108, 65)" stop-opacity="1.0"/>
      <stop offset="1.0" stop-color="rgb(105, 120, 57)" stop-opacity="0.9625081419944763"/>
    </radialGradient>
    <radialGradient id="shape_19_fill" cx="0.3516320474777448" cy="0.9977578475336323" r="0.06617211022079875">
      <stop offset="0.0" stop-color="rgb(95, 135, 39)" stop-opacity="1.0"/>
      <stop offset="1.0" stop-color="rgb(129, 184, 0)" stop-opacity="0.6351264119148254"/>
    </radialGradient>
    <radialGradient id="shape_20_fill" cx="0.0830860534124629" cy="0.9977578475336323" r="0.06792919147615971">
      <stop offset="0.0" stop-color="rgb(49, 52, 66)" stop-opacity="1.0"/>
      <stop offset="1.0" stop-color="rgb(46, 30, 67)" stop-opacity="0.45159754157066345"/>
    </radialGradient>
    <radialGradient id="shape_21_fill" cx="0.29821958456973297" cy="0.9977578475336323" r="0.06792919147615971">
      <stop offset="0.0" stop-color="rgb(33, 40, 17)" stop-opacity="1.0"/>
      <stop offset="1.0" stop-color="rgb(50, 63, 0)" stop-opacity="0.7109541296958923"/>
    </radialGradient>
    <radialGradient id="shape_22_fill" cx="0.3563326600751113" cy="0.44372438849889645" r="0.06594546966099951">
      <stop offset="0.52384716" stop-color="rgb(109, 133, 39)" stop-opacity="1.0"/>
      <stop offset="0.38891584" stop-color="rgb(146, 171, 41)" stop-opacity="0.9120995402336121"/>
    </radialGradient>
    <radialGradient id="shape_23_fill" cx="0.6454005934718101" cy="0.1412556053811659" r="0.06617211022079875">
      <stop offset="0.0" stop-color="rgb(46, 38, 13)" stop-opacity="1.0"/>
      <stop offset="1.0" stop-color="rgb(54, 27, 0)" stop-opacity="0.8851439356803894"/>
    </radialGradient>
    <radialGradient id="shape_24_fill" cx="0.2492550586734398" cy="0.4843076355254169" r="0.06616971047059012">
      <stop offset="0.0" stop-color="rgb(205, 213, 206)" stop-opacity="1.0"/>
      <stop offset="0.92454517" stop-color="rgb(255, 255, 255)" stop-opacity="0.324034184217453"/>
    </radialGradient>
    <radialGradient id="shape_25_fill" cx="0.6320474777448071" cy="0.9977578475336323" r="0.06617211022079875">
      <stop offset="0.0" stop-color="rgb(35, 28, 8)" stop-opacity="1.0"/>
      <stop offset="1.0" stop-color="rgb(39, 15, 0)" stop-opacity="0.8689520359039307"/>
    </radialGradient>
    <radialGradient id="shape_26_fill" cx="0.15414520399506793" cy="0.3207086811151205" r="0.06604698362265567">
      <stop offset="0.11989566" stop-color="rgb(198, 211, 155)" stop-opacity="1.0"/>
      <stop offset="0.58338004" stop-color="rgb(166, 144, 112)" stop-opacity="0.37948572635650635"/>
    </radialGradient>
    <radialGradient id="shape_27_fill" cx="0.15410647972401242" cy="0.3208032787648017" r="0.06604505929465818">
      <stop offset="0.0" stop-color="rgb(192, 205, 0)" stop-opacity="1.0"/>
      <stop offset="0.49375948" stop-color="rgb(35, 26, 15)" stop-opacity="0.4287514090538025"/>
    </radialGradient>
    <radialGradient id="shape_28_fill" cx="0.03358798493971103" cy="0.014771700974537118" r="0.07325106204794139">
      <stop offset="0.09406147" stop-color="rgb(9, 19, 111)" stop-opacity="0.9364463090896606"/>
      <stop offset="0.8172928" stop-color="rgb(8, 17, 146)" stop-opacity="0.7147321701049805"/>
    </radialGradient>
    <radialGradient id="shape_29_fill" cx="0.33976258863681147" cy="0.6659192825112108" r="0.06617211022079875">
      <stop offset="0.0" stop-color="rgb(90, 117, 55)" stop-opacity="1.0"/>
      <stop offset="1.0" stop-color="rgb(107, 129, 28)" stop-opacity="0.8661857843399048"/>
    </radialGradient>
    <radialGradient id="shape_30_fill" cx="0.03871840751489475" cy="0.01594920115620566" r="0.06962811274769044">
      <stop offset="0.17629755" stop-color="rgb(50, 69, 76)" stop-opacity="1.0"/>
      <stop offset="0.93341756" stop-color="rgb(66, 64, 0)" stop-opacity="0.48871567845344543"/>
    </radialGradient>
    <radialGradient id="shape_31_fill" cx="0.12314540059347182" cy="0.9977578475336323" r="0.06617211022079875">
      <stop offset="0.0" stop-color="rgb(95, 103, 98)" stop-opacity="1.0"/>
      <stop offset="1.0" stop-color="rgb(136, 118, 109)" stop-opacity="0.7339430451393127"/>
    </radialGradient>
    <radialGradient id="shape_32_fill" cx="0.4035608308605341" cy="0.984304932735426" r="0.06617211022079875">
      <stop offset="0.0" stop-color="rgb(126, 155, 63)" stop-opacity="1.0"/>
      <stop offset="1.0" stop-color="rgb(81, 45, 3)" stop-opacity="0.46976396441459656"/>
    </radialGradient>
    <radialGradient id="shape_33_fill" cx="0.3249258160237389" cy="0.6053811659192825" r="0.06617211022079875">
      <stop offset="1.5749225e-05" stop-color="rgb(93, 124, 71)" stop-opacity="0.999808132648468"/>
      <stop offset="1.0" stop-color="rgb(124, 138, 58)" stop-opacity="1.0"/>
    </radialGradient>
    <radialGradient id="shape_34_fill" cx="0.6468842729970327" cy="0.531390134529148" r="0.06617211022079875">
      <stop offset="0.0" stop-color="rgb(54, 47, 24)" stop-opacity="1.0"/>
      <stop offset="1.0" stop-color="rgb(42, 4, 35)" stop-opacity="0.36553579568862915"/>
    </radialGradient>
    <radialGradient id="shape_35_fill" cx="0.1513813143314169" cy="0.2372208839040166" r="0.06606221411277703">
      <stop offset="0.12499312" stop-color="rgb(212, 255, 98)" stop-opacity="0.12733900547027588"/>
      <stop offset="0.5206515" stop-color="rgb(104, 69, 67)" stop-opacity="0.8840430974960327"/>
    </radialGradient>
    <radialGradient id="shape_36_fill" cx="0.2878338278931751" cy="0.9977578475336323" r="0.06617211022079875">
      <stop offset="0.0" stop-color="rgb(80, 96, 53)" stop-opacity="1.0"/>
      <stop offset="1.0" stop-color="rgb(20, 13, 0)" stop-opacity="0.7769970893859863"/>
    </radialGradient>
    <radialGradient id="shape_37_fill" cx="0.129080118694362" cy="0.9977578475336323" r="0.06617211022079875">
      <stop offset="0.0" stop-color="rgb(87, 97, 81)" stop-opacity="1.0"/>
      <stop offset="1.0" stop-color="rgb(61, 61, 57)" stop-opacity="0.5942992568016052"/>
    </radialGradient>
    <radialGradient id="shape_38_fill" cx="0.33892324204260943" cy="0.5607740119968294" r="0.0666785763703751">
      <stop offset="0.7501433" stop-color="rgb(87, 107, 30)" stop-opacity="0.9297073483467102"/>
      <stop offset="0.6022492" stop-color="rgb(164, 244, 78)" stop-opacity="0.8751207590103149"/>
    </radialGradient>
    <radialGradient id="shape_39_fill" cx="0.40059347181008903" cy="0.9641255605381166" r="0.06617211022079875">
      <stop offset="0.0" stop-color="rgb(138, 168, 60)" stop-opacity="1.0"/>
      <stop offset="1.0" stop-color="rgb(222, 255, 84)" stop-opacity="0.8095138669013977"/>
    </radialGradient>
    <radialGradient id="shape_40_fill" cx="0.610044575586517" cy="0.8742290548144969" r="0.07255541747684649">
      <stop offset="0.3666982" stop-color="rgb(162, 144, 172)" stop-opacity="0.2564339339733124"/>
      <stop offset="0.5317163" stop-color="rgb(1, 4, 56)" stop-opacity="0.7412360906600952"/>
    </radialGradient>
    <radialGradient id="shape_41_fill" cx="0.6454005934718101" cy="0.08744394618834081" r="0.06617211022079875">
      <stop offset="0.0" stop-color="rgb(58, 48, 21)" stop-opacity="1.0"/>
      <stop offset="1.0" stop-color="rgb(92, 59, 25)" stop-opacity="0.9983996748924255"/>
    </radialGradient>
    <radialGradient id="shape_42_fill" cx="0.5845697329376854" cy="0.6188340807174888" r="0.06617211022079875">
      <stop offset="0.0" stop-color="rgb(62, 59, 56)" stop-opacity="1.0"/>
      <stop offset="1.0" stop-color="rgb(43, 34, 81)" stop-opacity="0.6367541551589966"/>
    </radialGradient>
    <radialGradient id="shape_43_fill" cx="0.3542846091069524" cy="0.5017558555431965" r="0.07029158142270957">
      <stop offset="0.24390326" stop-color="rgb(121, 150, 55)" stop-opacity="0.9281091690063477"/>
      <stop offset="0.62184787" stop-color="rgb(202, 252, 21)" stop-opacity="0.7235355973243713"/>
    </radialGradient>
    <radialGradient id="shape_44_fill" cx="0.5934718100890207" cy="0.9977578475336323" r="0.06617211022079875">
      <stop offset="0.0" stop-color="rgb(89, 61, 18)" stop-opacity="1.0"/>
      <stop offset="1.0" stop-color="rgb(165, 76, 7)" stop-opacity="0.6805513501167297"/>
    </radialGradient>
    <radialGradient id="shape_45_fill" cx="0.612759643916914" cy="0.04035874439461883" r="0.06617211022079875">
      <stop offset="0.0" stop-color="rgb(157, 136, 123)" stop-opacity="1.0"/>
      <stop offset="1.0" stop-color="rgb(255, 214, 203)" stop-opacity="1.0"/>
    </radialGradient>
    <radialGradient id="shape_46_fill" cx="0.28635014836795253" cy="0.9977578475336323" r="0.06617211022079875">
      <stop offset="0.0" stop-color="rgb(82, 99, 55)" stop-opacity="1.0"/>
      <stop offset="1.0" stop-color="rgb(91, 93, 31)" stop-opacity="0.5625209212303162"/>
    </radialGradient>
    <radialGradient id="shape_47_fill" cx="0.28635014836795253" cy="0.8183856502242153" r="0.06617211022079875">
      <stop offset="0.0" stop-color="rgb(166, 189, 197)" stop-opacity="1.0"/>
      <stop offset="1.0" stop-color="rgb(243, 255, 255)" stop-opacity="0.442144513130188"/>
    </radialGradient>
    <radialGradient id="shape_48_fill" cx="0.40801186943620177" cy="0.9977578475336323" r="0.06617211022079875">
      <stop offset="0.0" stop-color="rgb(107, 135, 68)" stop-opacity="1.0"/>
      <stop offset="1.0" stop-color="rgb(126, 133, 56)" stop-opacity="1.0"/>
    </radialGradient>
    <radialGradient id="shape_49_fill" cx="0.19287833827893175" cy="0.3991031390134529" r="0.06617211022079875">
      <stop offset="0.0" stop-color="rgb(92, 100, 54)" stop-opacity="1.0"/>
      <stop offset="1.0" stop-color="rgb(51, 19, 0)" stop-opacity="0.5042313933372498"/>
    </radialGradient>
    <radialGradient id="shape_50_fill" cx="0.6439169139465876" cy="0.7376681614349776" r="0.06617211022079875">
      <stop offset="0.0" stop-color="rgb(65, 56, 25)" stop-opacity="1.0"/>
      <stop offset="1.0" stop-color="rgb(149, 166, 82)" stop-opacity="0.34210205078125"/>
    </radialGradient>
    <radialGradient id="shape_51_fill" cx="0.5845697329376854" cy="0.6322869955156951" r="0.06617211022079875">
      <stop offset="0.0" stop-color="rgb(75, 68, 60)" stop-opacity="1.0"/>
      <stop offset="1.0" stop-color="rgb(197, 142, 112)" stop-opacity="0.4209856390953064"/>
    </radialGradient>
    <radialGradient id="shape_52_fill" cx="0.2997032640949555" cy="0.6031390134529148" r="0.06617211022079875">
      <stop offset="0.0" stop-color="rgb(107, 158, 118)" stop-opacity="1.0"/>
      <stop offset="1.0" stop-color="rgb(172, 255, 210)" stop-opacity="0.5753046274185181"/>
    </radialGradient>
    <radialGradient id="shape_53_fill" cx="0.6097922848664689" cy="0.45067264573991034" r="0.06617211022079875">
      <stop offset="0.0" stop-color="rgb(38, 39, 27)" stop-opacity="1.0"/>
      <stop offset="1.0" stop-color="rgb(16, 5, 66)" stop-opacity="0.32576555013656616"/>
    </radialGradient>
    <radialGradient id="shape_54_fill" cx="0.6335311572700296" cy="0.426009002822397" r="0.06617211022079875">
      <stop offset="0.0" stop-color="rgb(67, 49, 20)" stop-opacity="1.0"/>
      <stop offset="1.0" stop-color="rgb(182, 93, 39)" stop-opacity="0.4217078983783722"/>
    </radialGradient>
    <radialGradient id="shape_55_fill" cx="0.3707168533823257" cy="0.5988430827187851" r="0.066001377049115">
      <stop offset="0.43605936" stop-color="rgb(246, 255, 55)" stop-opacity="0.829701840877533"/>
      <stop offset="0.16089156" stop-color="rgb(235, 255, 52)" stop-opacity="0.8549869060516357"/>
    </radialGradient>
    <radialGradient id="shape_56_fill" cx="0.5489614243323442" cy="0.600896860986547" r="0.06617211022079875">
      <stop offset="0.0" stop-color="rgb(50, 62, 80)" stop-opacity="1.0"/>
      <stop offset="1.0" stop-color="rgb(36, 91, 255)" stop-opacity="0.44432005286216736"/>
    </radialGradient>
    <radialGradient id="shape_57_fill" cx="0.4094955489614243" cy="0.9035874439461884" r="0.06617211022079875">
      <stop offset="0.0" stop-color="rgb(111, 144, 47)" stop-opacity="1.0"/>
      <stop offset="1.0" stop-color="rgb(214, 255, 64)" stop-opacity="0.7694442868232727"/>
    </radialGradient>
    <radialGradient id="shape_58_fill" cx="0.5281899109792285" cy="0.9977578475336323" r="0.06617211022079875">
      <stop offset="0.0" stop-color="rgb(50, 43, 14)" stop-opacity="1.0"/>
      <stop offset="1.0" stop-color="rgb(87, 59, 18)" stop-opacity="1.0"/>
    </radialGradient>
    <radialGradient id="shape_59_fill" cx="0.5845697329376854" cy="0.7690582959641256" r="0.06617211022079875">
      <stop offset="0.0" stop-color="rgb(61, 63, 58)" stop-opacity="1.0"/>
      <stop offset="1.0" stop-color="rgb(79, 69, 90)" stop-opacity="0.7096935510635376"/>
    </radialGradient>
    <radialGradient id="shape_60_fill" cx="0.5489614243323442" cy="0.9977578475336323" r="0.06617211022079875">
      <stop offset="0.0" stop-color="rgb(140, 131, 64)" stop-opacity="1.0"/>
      <stop offset="1.0" stop-color="rgb(230, 196, 92)" stop-opacity="0.8761340379714966"/>
    </radialGradient>
    <radialGradient id="shape_61_fill" cx="0.6469716601272719" cy="0.96866973740103" r="0.06610439651443979">
      <stop offset="0.463088" stop-color="rgb(240, 186, 61)" stop-opacity="0.9201433658599854"/>
      <stop offset="0.21278743" stop-color="rgb(142, 65, 82)" stop-opacity="0.4291784465312958"/>
    </radialGradient>
    <radialGradient id="shape_62_fill" cx="0.615727002967359" cy="0.3991031390134529" r="0.06617211022079875">
      <stop offset="0.0" stop-color="rgb(55, 47, 13)" stop-opacity="1.0"/>
      <stop offset="1.0" stop-color="rgb(83, 52, 6)" stop-opacity="0.8490811586380005"/>
    </radialGradient>
    <radialGradient id="shape_63_fill" cx="0.6261127596439169" cy="0.7286995515695067" r="0.06617211022079875">
      <stop offset="0.0" stop-color="rgb(79, 66, 32)" stop-opacity="1.0"/>
      <stop offset="1.0" stop-color="rgb(200, 187, 92)" stop-opacity="0.5007263422012329"/>
    </radialGradient>
    <radialGradient id="shape_64_fill" cx="0.40801186943620177" cy="0.12556053811659193" r="0.06617211022079875">
      <stop offset="0.0" stop-color="rgb(76, 66, 59)" stop-opacity="1.0"/>
      <stop offset="1.0" stop-color="rgb(156, 120, 122)" stop-opacity="1.0"/>
    </radialGradient>
    <radialGradient id="shape_65_fill" cx="0.6528189910979229" cy="0.6883408071748879" r="0.06617211022079875">
      <stop offset="0.0" stop-color="rgb(121, 97, 39)" stop-opacity="1.0"/>
      <stop offset="1.0" stop-color="rgb(255, 218, 92)" stop-opacity="1.0"/>
    </radialGradient>
    <radialGradient id="shape_66_fill" cx="0.6520621189377782" cy="0.4573747438165639" r="0.07076867893117118">
      <stop offset="0.25517607" stop-color="rgb(184, 212, 115)" stop-opacity="0.2997944951057434"/>
      <stop offset="0.761048" stop-color="rgb(0, 16, 0)" stop-opacity="0.05448753759264946"/>
    </radialGradient>
    <radialGradient id="shape_67_fill" cx="0.5979585732479831" cy="0.994816596197975" r="0.07102036971366724">
      <stop offset="0.8359359" stop-color="rgb(49, 27, 0)" stop-opacity="0.6110768914222717"/>
      <stop offset="1.0" stop-color="rgb(0, 27, 0)" stop-opacity="0.1536840945482254"/>
    </radialGradient>
    <radialGradient id="shape_68_fill" cx="0.492750671567832" cy="0.9980130730188481" r="0.06866027764113791">
      <stop offset="0.39581975" stop-color="rgb(40, 11, 0)" stop-opacity="0.4210590422153473"/>
      <stop offset="1.0" stop-color="rgb(27, 64, 52)" stop-opacity="0.17489655315876007"/>
    </radialGradient>
  </defs>
  <g>
    <path d="M 0.023742908611893654 271.4423828125 C 16.005290985107422 254.66065979003906 47.17321014404297 257.16021728515625 47.095176696777344 270.8733215332031 C 48.34303283691406 272.6885681152344 49.312705993652344 276.2038269042969 57.20668029785156 274.6795959472656 C 57.12861633300781 273.8615417480469 61.8766975402832 273.3361511230469 62.28847885131836 268.8978271484375 C 68.34369659423828 267.73223876953125 100.69239807128906 268.9296875 116.77418518066406 269.23382568359375 C 119.38827514648438 271.6963806152344 125.18103790283203 278.1995849609375 126.56629943847656 282.3829650878906 C 134.65626525878906 282.79901123046875 147.9727020263672 280.6000061035156 176.69264221191406 290.8906555175781 C 185.32716369628906 283.15386962890625 186.07952880859375 281.25213623046875 206.69288635253906 287.2795104980469 C 200.62655639648438 286.8218688964844 198.40341186523438 280.8885498046875 211.21298217773438 267.7129211425781 C 250.16302490234375 264.67572021484375 294.3630676269531 262.3889465332031 310.7971496582031 272.6678161621094 C 348.39349365234375 274.164306640625 423.37371826171875 274.61572265625 481.4181213378906 262.895751953125 C 512.5086059570312 257.59765625 548.9947509765625 258.81549072265625 548.4971313476562 273.78179931640625 C 547.00439453125 273.7612609863281 547.0738525390625 262.3730163574219 578.307373046875 262.5518493652344 C 597.825439453125 266.82952880859375 612.3128662109375 278.97869873046875 612.3397827148438 279.759033203125 C 611.7197875976562 265.7669677734375 623.8422241210938 265.203369140625 673.4243774414062 265.70538330078125 C 676.7792358398438 272.2883605957031 679.37158203125 278.8263854980469 678.4677124023438 284.9035339355469 C 676.6203002929688 339.531005859375 674.7125244140625 391.4861145019531 675.1177368164062 446.4668273925781 C 451.9151306152344 446.6697692871094 228.9889373779297 446.8115539550781 -0.43556854128837585 446.4240417480469 C -0.5173112750053406 389.140869140625 -0.8273890018463135 332.2543029785156 0.023742908611893654 271.4423828125" stroke-width="0.0" fill="url(#shape_0_fill)"/>
    <path d="M -0.2664898633956909 270.9298095703125 C 35.93415069580078 275.3900451660156 36.5576057434082 274.58306884765625 43.98634719848633 273.1136474609375 C 44.35233688354492 265.8157043457031 58.16659927368164 265.5772399902344 81.42479705810547 266.21832275390625 C 113.75216674804688 278.67987060546875 114.09021759033203 279.3109130859375 128.27688598632812 279.1645812988281 C 127.7577133178711 269.9264221191406 134.58749389648438 269.13250732421875 144.71817016601562 269.6114196777344 C 185.24777221679688 268.8033142089844 186.13003540039062 268.9138488769531 206.01611328125 271.6540832519531 C 203.63577270507812 292.16790771484375 204.36184692382812 292.3160400390625 208.69186401367188 298.8722229003906 C 213.67848205566406 298.2271728515625 268.16107177734375 298.62249755859375 293.21832275390625 301.12872314453125 C 304.7777099609375 306.9752502441406 440.5484924316406 303.8288269042969 460.2369079589844 304.61053466796875 C 473.57501220703125 292.9786376953125 493.2709655761719 293.3653869628906 504.5887145996094 286.95465087890625 C 516.57470703125 289.4196472167969 521.3449096679688 286.8785705566406 523.2810668945312 286.62322998046875 C 527.3718872070312 285.7648010253906 531.6741943359375 286.02911376953125 533.8972778320312 287.26324462890625 C 538.7259521484375 287.61444091796875 540.2132568359375 288.9454040527344 538.0844116210938 311.3753356933594 C 579.712890625 292.3270263671875 581.6444702148438 292.85107421875 601.5777587890625 299.42236328125 C 620.6121826171875 289.39678955078125 629.8085327148438 288.2046203613281 633.6674194335938 288.48138427734375 C 636.9401245117188 274.6767272949219 654.3643188476562 275.18212890625 673.6284790039062 294.2516174316406 C 674.4758911132812 339.7404479980469 674.5191040039062 392.0532531738281 674.1581420898438 446.2807922363281 C 451.4774169921875 446.3905334472656 229.19664001464844 446.25439453125 -0.30765825510025024 446.2476501464844 C -0.2106243520975113 389.403564453125 -0.3106822371482849 333.0142822265625 -0.2664898633956909 270.9298095703125" stroke-width="0.0" fill="url(#shape_1_fill)"/>
    <path d="M -0.019932541996240616 -0.25989267230033875 C 219.69313049316406 0.1040392518043518 439.478759765625 -0.45242562890052795 674.7109985351562 -0.017289720475673676 C 665.8389282226562 10.651460647583008 645.07421875 34.876285552978516 637.2388305664062 49.63967514038086 C 634.4750366210938 53.0157470703125 612.0525512695312 91.66173553466797 584.0446166992188 83.84872436523438 C 576.8641967773438 81.2486343383789 564.737060546875 72.1559829711914 532.3071899414062 74.3033218383789 C 531.945556640625 79.65047454833984 528.192138671875 80.43366241455078 522.0545654296875 72.03533172607422 C 522.7042236328125 68.93451690673828 499.3328552246094 63.911415100097656 498.89898681640625 62.585811614990234 C 493.3514404296875 62.259056091308594 486.124755859375 61.1058464050293 484.3586120605469 68.81172180175781 C 475.2620544433594 72.85636901855469 476.3232727050781 76.13066864013672 476.74517822265625 80.89627075195312 C 483.3427734375 100.52980041503906 480.7466735839844 120.18331146240234 481.2701110839844 123.1799087524414 C 460.30035400390625 116.82515716552734 459.3226623535156 114.8940658569336 450.9045104980469 108.535400390625 C 435.3821716308594 107.42884063720703 411.7770690917969 101.6363296508789 409.3294677734375 105.53018188476562 C 412.92071533203125 122.12503051757812 419.763671875 129.32139587402344 413.1022644042969 139.3252410888672 C 411.19561767578125 152.7181854248047 394.4707336425781 152.1639862060547 394.61102294921875 135.49481201171875 C 383.0078125 139.3462371826172 382.03472900390625 158.13430786132812 370.8268737792969 157.84373474121094 C 366.1406555175781 156.26206970214844 363.2130126953125 159.08775329589844 353.7365417480469 158.31739807128906 C 348.1331787109375 163.6356964111328 345.53790283203125 165.32115173339844 347.6085510253906 171.411376953125 C 343.6222229003906 177.1082000732422 341.9376525878906 176.15972900390625 351.333984375 159.5215606689453 C 292.4976501464844 154.99606323242188 291.9380187988281 161.4260711669922 290.55633544921875 170.84597778320312 C 306.2955017089844 185.82546997070312 304.1653137207031 189.13824462890625 307.51995849609375 201.38157653808594 C 307.5767822265625 200.58917236328125 306.4018249511719 198.130615234375 304.8818359375 190.27670288085938 C 304.0361022949219 185.6642303466797 302.7178955078125 184.42271423339844 291.2301330566406 171.040283203125 C 289.85302734375 194.54046630859375 289.0150146484375 195.95962524414062 289.37359619140625 196.30401611328125 C 289.3829345703125 189.93157958984375 291.6293029785156 181.68589782714844 290.59832763671875 165.36134338378906 C 270.1058044433594 168.0540008544922 265.44110107421875 175.0471954345703 262.1213073730469 173.08143615722656 C 256.3348693847656 184.30245971679688 255.9387664794922 189.39019775390625 254.81016540527344 197.12782287597656 C 260.64007568359375 199.27101135253906 260.4600830078125 199.87237548828125 258.0784606933594 199.55404663085938 C 257.10968017578125 198.4009246826172 253.90391540527344 196.50775146484375 255.42800903320312 193.8976287841797 C 255.82069396972656 181.12123107910156 262.5611572265625 179.5057373046875 263.951171875 161.61329650878906 C 262.2564697265625 157.46875 215.64283752441406 143.79638671875 212.24874877929688 142.72288513183594 C 187.2256317138672 134.7434539794922 195.4783172607422 106.40560150146484 191.2033233642578 86.2419662475586 C 190.81719970703125 84.66729736328125 162.97308349609375 74.5328598022461 128.8304443359375 57.87010192871094 C 99.61650848388672 38.7474479675293 76.34800720214844 58.968875885009766 47.78293228149414 57.03276443481445 C 29.984102249145508 70.5142593383789 1.6949400901794434 69.964599609375 -0.847568929195404 69.4104232788086 C 0.34183040261268616 43.958133697509766 -0.3314551115036011 22.56187629699707 -0.019932541996240616 -0.25989267230033875" stroke-width="0.0" fill="url(#shape_2_fill)"/>
    <path d="M 87.2508316040039 58.03167724609375 C 88.82722473144531 68.82090759277344 91.76522064208984 68.96702575683594 93.78633117675781 71.9471664428711 C 90.0649185180664 79.9844741821289 92.99602508544922 81.86229705810547 88.98020935058594 94.31714630126953 C 95.80895233154297 85.84272766113281 98.1317367553711 86.5240707397461 102.85368347167969 87.7557144165039 C 105.11495208740234 75.12728881835938 105.60639190673828 73.24008178710938 108.17019653320312 73.6603012084961 C 112.733642578125 86.47251892089844 109.73473358154297 92.31221008300781 117.56802368164062 98.65888977050781 C 115.84687042236328 100.0355224609375 116.97317504882812 109.55672454833984 115.41625213623047 115.06421661376953 C 120.4983901977539 115.31280517578125 128.02801513671875 116.3023681640625 129.78237915039062 112.1045913696289 C 131.1764373779297 111.14706420898438 137.01376342773438 109.82511901855469 136.8282012939453 105.07650756835938 C 136.7017822265625 103.72168731689453 135.6038055419922 101.93202209472656 138.1444854736328 100.14411926269531 C 136.56956481933594 93.28669738769531 137.6182403564453 92.94322967529297 137.80316162109375 90.05398559570312 C 137.34652709960938 85.55381774902344 138.5286865234375 85.10945129394531 140.1822967529297 89.33283996582031 C 140.82763671875 83.32707214355469 146.7183380126953 80.04151916503906 148.60145568847656 78.98267364501953 C 148.16986083984375 93.29842376708984 149.58761596679688 94.55245971679688 152.53733825683594 99.70515441894531 C 154.00022888183594 102.51506805419922 149.83851623535156 106.82599639892578 148.8898162841797 106.78425598144531 C 152.2982635498047 109.4088134765625 149.96990966796875 113.91358184814453 148.1592559814453 113.17655181884766 C 154.0722198486328 112.96451568603516 158.2049560546875 122.60072326660156 156.9935760498047 123.40418243408203 C 160.68563842773438 124.77215576171875 164.7432403564453 123.41920471191406 169.72950744628906 122.85675048828125 C 174.39988708496094 119.73603820800781 175.79052734375 121.50753021240234 177.6017608642578 122.46367645263672 C 179.30712890625 122.73815155029297 180.11837768554688 124.94861602783203 183.683837890625 127.1441650390625 C 183.9217071533203 130.0302734375 182.68858337402344 132.7193145751953 185.93849182128906 134.36366271972656 C 188.72372436523438 135.48739624023438 190.14764404296875 137.28660583496094 187.4554443359375 143.82611083984375 C 197.50094604492188 149.01173400878906 208.82806396484375 153.32363891601562 201.6353759765625 172.5407257080078 C 205.62330627441406 177.21665954589844 206.5018768310547 179.3625946044922 205.09169006347656 181.56497192382812 C 213.5306854248047 181.05258178710938 215.12620544433594 192.86611938476562 212.76541137695312 200.79408264160156 C 204.1387176513672 205.5936737060547 202.9717254638672 206.19053649902344 203.4861602783203 210.0803680419922 C 200.39328002929688 210.3910369873047 200.40292358398438 211.84262084960938 198.76431274414062 212.93417358398438 C 196.52069091796875 215.53933715820312 192.76942443847656 215.248779296875 192.18923950195312 219.72860717773438 C 184.2997283935547 220.5485076904297 183.6744384765625 224.7869873046875 178.19418334960938 230.15904235839844 C 176.42660522460938 233.38131713867188 181.802734375 237.61386108398438 181.5328369140625 238.1194610595703 C 181.58480834960938 251.96783447265625 185.69677734375 260.7369689941406 179.92681884765625 264.1398620605469 C 168.61679077148438 270.3531799316406 148.20309448242188 267.53485107421875 136.04302978515625 269.51904296875 C 131.54405212402344 268.8869323730469 128.91139221191406 272.26898193359375 122.89934539794922 275.4549865722656 C 109.15852355957031 276.5612487792969 73.35188293457031 275.85992431640625 72.98832702636719 270.1336669921875 C 47.77121353149414 266.80438232421875 56.60914993286133 268.59393310546875 58.412654876708984 273.27459716796875 C 48.7993278503418 276.7398681640625 1.064741611480713 272.7038879394531 0.7503727078437805 269.8308410644531 C -6.648301601409912 226.26834106445312 -4.739683628082275 168.2364501953125 1.9652241468429565 122.33663177490234 C 10.380885124206543 117.70147705078125 21.344890594482422 113.97108459472656 26.227670669555664 121.82886505126953 C 27.733295440673828 130.0226287841797 35.932552337646484 129.1153564453125 42.08601379394531 131.9313507080078 C 46.11616516113281 130.35704040527344 47.31341552734375 131.40171813964844 49.726688385009766 142.1786651611328 C 50.78776168823242 149.53858947753906 60.9633903503418 148.4224090576172 62.6645622253418 146.32321166992188 C 62.13532638549805 137.00442504882812 63.197608947753906 134.1536102294922 62.06891632080078 128.275634765625 C 68.19378662109375 126.603515625 67.6456527709961 124.43717956542969 66.30855560302734 112.64250946044922 C 68.92276000976562 111.14379119873047 67.94960021972656 103.47881317138672 75.41107177734375 100.86402893066406 C 74.93528747558594 100.49417877197266 77.67205047607422 89.6891098022461 77.38121032714844 85.9773941040039 C 77.31929016113281 82.88197326660156 77.4388427734375 75.24369049072266 85.24165344238281 75.35662078857422 C 83.17752838134766 70.27326965332031 82.65099334716797 67.55406951904297 87.2508316040039 58.03167724609375" stroke-width="0.0" fill="url(#shape_3_fill)"/>
    <path d="M 673.9368286132812 -0.520209014415741 C 676.1226196289062 47.8215217590332 675.0172119140625 95.90817260742188 682.0805053710938 136.06504821777344 C 679.193359375 119.14173126220703 674.0581665039062 119.63408660888672 662.1044311523438 120.01655578613281 C 660.104248046875 119.56319427490234 654.5556640625 109.62914276123047 650.3671264648438 110.96943664550781 C 649.0200805664062 112.55768585205078 645.0448608398438 150.48341369628906 642.9089965820312 155.6688995361328 C 629.8673706054688 154.9142303466797 627.2103881835938 142.66310119628906 626.964111328125 138.47930908203125 C 623.0069580078125 137.45005798339844 619.2190551757812 145.44430541992188 615.3927612304688 144.5634002685547 C 611.6814575195312 142.3088836669922 610.1655883789062 143.31161499023438 607.8056030273438 141.00396728515625 C 608.947265625 136.8175506591797 614.4332885742188 131.17001342773438 601.6849975585938 111.51766967773438 C 598.8787231445312 135.35350036621094 597.7259521484375 139.5055694580078 593.1025390625 142.57669067382812 C 599.1138916015625 145.79493713378906 598.3663940429688 151.3911590576172 597.4641723632812 152.73001098632812 C 587.4370727539062 157.6137237548828 588.49951171875 164.71580505371094 578.2134399414062 172.6766815185547 C 572.3145141601562 170.1978302001953 569.5808715820312 157.98831176757812 568.954345703125 157.57752990722656 C 565.476806640625 157.83494567871094 563.0310668945312 154.85037231445312 562.010986328125 148.09388732910156 C 560.0283203125 151.09556579589844 556.7205200195312 151.18592834472656 555.5340576171875 155.38394165039062 C 552.3709716796875 155.83099365234375 550.8396606445312 158.02987670898438 549.143798828125 158.2103271484375 C 547.7215576171875 154.94154357910156 544.7655639648438 154.60183715820312 535.7832641601562 152.56646728515625 C 531.9429321289062 154.97056579589844 529.8287963867188 159.26438903808594 523.1484985351562 156.9927978515625 C 519.248779296875 160.52694702148438 520.3316040039062 162.1514129638672 522.8262939453125 168.9510498046875 C 517.6307373046875 168.48919677734375 517.3455810546875 171.09225463867188 516.2429809570312 171.61390686035156 C 511.2713623046875 173.32232666015625 509.8157043457031 175.26531982421875 505.6468811035156 174.399169921875 C 502.73321533203125 171.4175262451172 503.0818786621094 169.5030517578125 502.983642578125 159.37307739257812 C 488.3827209472656 142.81332397460938 503.1883850097656 118.39138793945312 515.2593383789062 124.73385620117188 C 524.78125 126.00621795654297 542.9793701171875 108.50084686279297 548.7948608398438 112.86601257324219 C 557.1270141601562 110.74293518066406 557.060546875 109.41029357910156 558.6130981445312 108.94515228271484 C 559.5502319335938 107.31135559082031 564.783935546875 103.43978118896484 570.0310668945312 105.03424072265625 C 574.69140625 102.45479583740234 573.620361328125 97.7833480834961 579.0883178710938 93.84708404541016 C 588.8184204101562 87.91815185546875 590.8853149414062 78.22632598876953 612.3809814453125 78.56462097167969 C 616.9144897460938 73.61262512207031 644.26025390625 51.297645568847656 645.9733276367188 35.32487487792969 C 644.8588256835938 32.38665008544922 647.958984375 30.372032165527344 647.42529296875 29.44721794128418 C 646.8952026367188 28.286623001098633 664.1611938476562 -4.300271987915039 673.9368286132812 -0.520209014415741" stroke-width="0.0" fill="url(#shape_4_fill)"/>
    <path d="M 151.46986389160156 68.65860748291016 C 152.30435180664062 69.09012603759766 186.1117401123047 85.00653839111328 192.82415771484375 91.29484558105469 C 179.23179626464844 117.92496490478516 217.8639678955078 149.8982391357422 221.2565460205078 154.5553741455078 C 240.7714080810547 169.10838317871094 242.44107055664062 182.3456573486328 240.4843292236328 193.84280395507812 C 237.97108459472656 193.20758056640625 236.06991577148438 186.85801696777344 236.77261352539062 184.06561279296875 C 235.68963623046875 183.51763916015625 234.15370178222656 184.31541442871094 231.04579162597656 182.66363525390625 C 231.90707397460938 184.7117462158203 232.26307678222656 192.783203125 228.6586151123047 195.66815185546875 C 227.64608764648438 196.6387481689453 227.70433044433594 205.18405151367188 221.08395385742188 207.64385986328125 C 215.07713317871094 206.57427978515625 214.26747131347656 197.8905029296875 214.54978942871094 195.056640625 C 212.95291137695312 185.45262145996094 211.89144897460938 184.96237182617188 206.57073974609375 177.42788696289062 C 205.78785705566406 172.6290283203125 206.35150146484375 168.47145080566406 204.2274932861328 159.52455139160156 C 205.60971069335938 153.87158203125 194.9158477783203 144.58470153808594 193.6175079345703 141.0487060546875 C 189.2662353515625 139.82339477539062 189.1502227783203 135.9217529296875 186.76406860351562 135.91006469726562 C 177.5313262939453 134.09812927246094 178.37887573242188 127.6946029663086 183.55035400390625 117.19924926757812 C 179.39076232910156 116.39949798583984 177.4013214111328 117.66653442382812 172.95314025878906 117.7668685913086 C 179.0236053466797 128.14784240722656 177.41387939453125 131.1190643310547 152.30902099609375 130.33009338378906 C 148.7731475830078 129.53697204589844 152.53533935546875 102.78922271728516 154.2268829345703 93.08667755126953 C 152.95458984375 91.40137481689453 152.6824951171875 87.48007202148438 150.3902587890625 76.22911834716797 C 147.9275360107422 75.88753509521484 147.9160919189453 69.1754150390625 151.46986389160156 68.65860748291016" stroke-width="0.0" fill="url(#shape_5_fill)"/>
    <path d="M 614.6753540039062 79.03755950927734 C 618.7958984375 83.8575439453125 620.408203125 87.2260971069336 632.8969116210938 85.97248840332031 C 635.974853515625 86.2336654663086 636.9478759765625 88.75709533691406 641.1526489257812 89.23966217041016 C 642.1925048828125 86.6468734741211 665.1392822265625 92.49144744873047 675.0347900390625 98.2032241821289 C 675.4066162109375 110.61923217773438 674.7958984375 125.90557098388672 674.70361328125 151.77426147460938 C 665.6762084960938 142.7896728515625 662.709716796875 136.73472595214844 660.3504638671875 132.07489013671875 C 660.44482421875 123.81521606445312 661.092529296875 118.25071716308594 653.7224731445312 112.27664184570312 C 642.159912109375 113.80343627929688 643.6856079101562 142.2254638671875 643.0515747070312 142.8468017578125 C 644.4290771484375 144.3985595703125 642.3372802734375 148.15869140625 644.5504760742188 149.8691864013672 C 640.1603393554688 151.03082275390625 637.9404907226562 152.7563934326172 634.137939453125 153.53257751464844 C 631.8133544921875 146.1530303955078 629.1668090820312 141.3980255126953 630.015869140625 140.5619659423828 C 628.6105346679688 137.03634643554688 622.3704833984375 136.4683837890625 621.2530517578125 139.20660400390625 C 618.7406616210938 140.71377563476562 619.2879028320312 142.5244903564453 618.4055786132812 149.735595703125 C 613.3861694335938 144.77423095703125 613.0468139648438 143.23622131347656 609.3685302734375 143.7370147705078 C 608.44873046875 140.406982421875 609.5060424804688 139.24050903320312 608.6929931640625 137.3979034423828 C 606.2109985351562 132.89698791503906 604.4501342773438 127.42570495605469 600.9317016601562 127.85850524902344 C 606.312255859375 133.81375122070312 595.7453002929688 148.51123046875 592.5746459960938 152.19677734375 C 590.567138671875 163.7560577392578 588.7896118164062 163.86366271972656 586.0140991210938 169.0452117919922 C 584.52587890625 167.56895446777344 584.1859130859375 167.4114227294922 589.2748413085938 153.2066650390625 C 593.5556640625 141.1866455078125 590.5134887695312 139.4355010986328 574.678955078125 128.93710327148438 C 574.0508422851562 157.78964233398438 557.656494140625 157.61158752441406 555.9661254882812 151.0425567626953 C 555.7827758789062 152.85626220703125 553.0619506835938 154.6943359375 553.0178833007812 157.88644409179688 C 551.4609375 161.29002380371094 548.1251220703125 161.17623901367188 547.3566284179688 159.3174285888672 C 544.4193115234375 156.3911895751953 542.7671508789062 153.7273712158203 538.6790771484375 155.760009765625 C 536.709228515625 158.6186981201172 531.0181884765625 157.89625549316406 529.0946655273438 158.1654510498047 C 526.736083984375 159.59596252441406 526.9238891601562 163.59104919433594 525.589599609375 166.8306121826172 C 524.7254638671875 169.58932495117188 523.640380859375 171.61302185058594 519.0491943359375 173.04769897460938 C 515.6888427734375 172.5084686279297 503.5639953613281 171.70201110839844 480.812255859375 161.28521728515625 C 477.71051025390625 136.37985229492188 500.4147033691406 120.29915618896484 514.4308471679688 118.37604522705078 C 528.0388793945312 127.74617767333984 541.766357421875 108.33120727539062 547.8652954101562 111.60606384277344 C 556.6502685546875 111.63912200927734 563.0924682617188 112.03978729248047 564.5081176757812 107.1395492553711 C 564.6268310546875 104.41761016845703 566.4725341796875 103.37594604492188 569.8848266601562 104.79547882080078 C 572.4091796875 101.04530334472656 579.0631713867188 99.947509765625 587.1040649414062 98.39698028564453 C 601.0400390625 93.64496612548828 602.8945922851562 79.88136291503906 614.6753540039062 79.03755950927734" stroke-width="0.0" fill="url(#shape_6_fill)"/>
    <path d="M 0.8089816570281982 91.00373840332031 C 43.50668716430664 106.62552642822266 43.716949462890625 117.42733001708984 50.441009521484375 138.8054962158203 C 82.29280853271484 152.7864532470703 55.63725662231445 213.52195739746094 36.07808303833008 246.76242065429688 C 50.55662536621094 259.2763977050781 49.42441177368164 263.79656982421875 48.31248474121094 265.63720703125 C 51.55502700805664 254.13958740234375 36.50827407836914 247.09336853027344 21.63022232055664 239.4541473388672 C 6.95316743850708 193.84996032714844 -12.388667106628418 178.9822998046875 0.8089816570281982 91.00373840332031" stroke-width="0.0" fill="url(#shape_7_fill)"/>
    <path d="M 384.5696716308594 197.15684509277344 C 424.8820495605469 188.6065216064453 426.88824462890625 188.9441680908203 429.8067321777344 204.26731872558594 C 477.458984375 188.01513671875 498.9206237792969 202.17311096191406 491.1558837890625 229.36856079101562 C 490.97821044921875 250.50291442871094 486.3249206542969 251.52581787109375 484.93896484375 252.5143585205078 C 486.51605224609375 259.1551208496094 482.4698486328125 268.763671875 476.354248046875 268.5757751464844 C 469.044677734375 272.93194580078125 453.2210388183594 266.7112731933594 451.64056396484375 269.73974609375 C 447.2095947265625 266.31134033203125 448.4565124511719 261.2540283203125 449.2565612792969 260.2166748046875 C 439.31024169921875 264.9464416503906 436.53729248046875 261.5835876464844 437.62493896484375 256.65045166015625 C 427.04010009765625 256.969482421875 425.7117004394531 259.97491455078125 420.86309814453125 262.0115966796875 C 418.4877624511719 264.17431640625 417.7792053222656 267.7735900878906 414.9732666015625 273.96392822265625 C 414.1080627441406 271.3768615722656 392.19219970703125 269.6963806152344 392.5126037597656 264.2727355957031 C 391.81109619140625 265.1961975097656 388.79632568359375 263.50189208984375 385.22650146484375 264.4005126953125 C 382.0878601074219 262.030029296875 380.79998779296875 263.2574157714844 376.38824462890625 261.2577209472656 C 375.1658630371094 256.42352294921875 375.7449645996094 252.89556884765625 370.2225341796875 251.7699737548828 C 360.9316711425781 242.66583251953125 373.900634765625 194.32342529296875 378.4895324707031 177.03372192382812 C 385.07073974609375 171.81846618652344 394.32366943359375 176.9270782470703 384.5696716308594 197.15684509277344" stroke-width="0.0" fill="url(#shape_8_fill)"/>
    <path d="M 566.5263671875 157.10240173339844 C 567.8845825195312 159.00442504882812 568.1207885742188 166.62057495117188 569.3233642578125 168.017822265625 C 573.4937133789062 169.4961700439453 573.6185913085938 171.06610107421875 577.55859375 174.38316345214844 C 581.9307250976562 172.94601440429688 583.9710693359375 174.56983947753906 583.7080688476562 179.472412109375 C 575.3971557617188 180.4751739501953 572.3006591796875 225.61114501953125 577.5738525390625 226.9557342529297 C 577.894287109375 230.0500946044922 581.774169921875 236.60928344726562 577.3154907226562 242.66981506347656 C 569.0438842773438 238.69024658203125 566.9641723632812 237.20346069335938 558.5109252929688 247.35806274414062 C 553.0437622070312 249.2246856689453 499.8997497558594 255.28948974609375 485.10205078125 250.93167114257812 C 486.8514709472656 250.448486328125 488.63397216796875 241.32862854003906 497.8184509277344 231.48524475097656 C 486.0614013671875 227.1340789794922 483.0682373046875 222.55462646484375 482.8494567871094 215.1489715576172 C 477.3731689453125 210.18650817871094 479.9233093261719 205.97064208984375 482.89520263671875 206.20083618164062 C 480.76690673828125 205.22390747070312 481.54339599609375 199.4559326171875 492.7855224609375 199.79531860351562 C 492.6810607910156 196.4012908935547 491.59649658203125 192.52218627929688 491.5350341796875 188.79318237304688 C 487.2491760253906 174.4027862548828 487.8291015625 173.4082489013672 488.1735534667969 164.2098846435547 C 503.85162353515625 164.524169921875 504.8268127441406 164.7704315185547 511.98077392578125 159.628173828125 C 522.101318359375 169.3817138671875 524.4102172851562 167.52162170410156 525.9931030273438 167.29855346679688 C 523.7665405273438 162.4460906982422 531.1704711914062 157.4274139404297 533.1158447265625 159.0238494873047 C 537.4410400390625 162.0227813720703 541.2413330078125 162.61004638671875 541.958251953125 164.21986389160156 C 545.0653686523438 164.17767333984375 545.6002197265625 166.05226135253906 550.0249633789062 166.97019958496094 C 549.0247802734375 165.58551025390625 549.99560546875 157.920166015625 554.8936767578125 158.186279296875 C 557.8580322265625 161.0868682861328 563.0985107421875 157.99876403808594 566.5263671875 157.10240173339844" stroke-width="0.0" fill="url(#shape_9_fill)"/>
    <path d="M 561.4290771484375 156.81585693359375 C 565.1206665039062 152.876708984375 571.274658203125 156.9573516845703 571.4213256835938 174.0447540283203 C 572.5870971679688 169.054443359375 576.4855346679688 169.01837158203125 579.5731811523438 174.08514404296875 C 580.551513671875 178.1180419921875 578.916015625 187.3743438720703 580.417236328125 190.94430541992188 C 571.3915405273438 196.15402221679688 572.0736083984375 229.96792602539062 578.12353515625 230.9748077392578 C 576.083984375 231.16357421875 575.6333618164062 236.87506103515625 572.1372680664062 237.95687866210938 C 560.7664794921875 235.77037048339844 567.055419921875 238.72543334960938 563.2222900390625 247.60694885253906 C 549.7857666015625 253.08999633789062 501.295654296875 249.205322265625 500.2091369628906 251.93528747558594 C 491.2686767578125 251.83712768554688 488.07513427734375 237.26913452148438 498.9414978027344 231.75303649902344 C 486.6182861328125 224.911376953125 481.97747802734375 219.29222106933594 481.9541931152344 214.71063232421875 C 475.7546691894531 215.43807983398438 472.0064697265625 215.3223876953125 464.58154296875 196.37852478027344 C 465.28472900390625 174.994384765625 481.1451416015625 173.98788452148438 482.52703857421875 195.25856018066406 C 489.7431640625 198.0570068359375 494.8749694824219 184.95372009277344 496.6136474609375 182.969482421875 C 495.29095458984375 178.86874389648438 497.5860900878906 177.6896514892578 500.15045166015625 177.5313720703125 C 507.93707275390625 179.1946563720703 516.5664672851562 181.77899169921875 521.0794067382812 174.17625427246094 C 525.9970092773438 173.53451538085938 528.5075073242188 159.68519592285156 529.7120971679688 154.47682189941406 C 538.3607788085938 155.78988647460938 539.9635009765625 156.63291931152344 537.27099609375 165.69041442871094 C 545.7462768554688 166.0672149658203 549.0638427734375 167.5468292236328 551.721923828125 166.72584533691406 C 550.9332885742188 155.07093811035156 552.6937255859375 152.9586181640625 561.4290771484375 156.81585693359375" stroke-width="0.0" fill="url(#shape_10_fill)"/>
    <path d="M 443.57989501953125 108.76420593261719 C 452.195556640625 114.10730743408203 453.91265869140625 115.65562438964844 463.1978759765625 106.34898376464844 C 467.3025817871094 113.61460876464844 469.50579833984375 112.68011474609375 488.781494140625 107.50182342529297 C 489.48760986328125 124.43084716796875 488.7749938964844 125.26350402832031 492.34967041015625 130.4517822265625 C 493.35205078125 132.2277069091797 493.3265380859375 135.63661193847656 496.6308288574219 136.0247344970703 C 494.0360412597656 136.0763702392578 492.9532165527344 139.01089477539062 490.41839599609375 142.16925048828125 C 484.0088195800781 139.2239990234375 482.63104248046875 141.7881622314453 481.1723327636719 142.61912536621094 C 468.852783203125 136.5015869140625 467.1094970703125 134.7584686279297 465.5202941894531 134.58401489257812 C 464.25640869140625 133.454833984375 461.0152587890625 134.28359985351562 460.20196533203125 133.5826873779297 C 461.86480712890625 131.9667510986328 481.1282043457031 141.0966033935547 500.986328125 156.026611328125 C 476.94140625 176.95799255371094 476.0595703125 177.656494140625 482.0478210449219 185.05276489257812 C 467.9810485839844 183.66343688964844 467.2896423339844 188.68536376953125 462.5514831542969 189.87026977539062 C 462.7134094238281 184.5511016845703 461.4198303222656 172.8859405517578 460.7242736816406 157.5662078857422 C 449.56268310546875 182.3367919921875 447.0780334472656 183.45382690429688 439.7591857910156 183.0794219970703 C 439.0555114746094 183.81216430664062 435.764404296875 195.73397827148438 434.9949035644531 197.3878631591797 C 427.76300048828125 200.35154724121094 417.49444580078125 180.5929718017578 417.6647033691406 179.85101318359375 C 416.9297790527344 180.14602661132812 399.0335693359375 181.4490966796875 398.39434814453125 175.0132598876953 C 394.20465087890625 172.89190673828125 389.76348876953125 177.09898376464844 379.46484375 174.63015747070312 C 382.62152099609375 157.6358184814453 379.5316162109375 152.06149291992188 392.20135498046875 138.80560302734375 C 398.645751953125 138.98110961914062 399.9255065917969 130.38720703125 403.15283203125 119.73909759521484 C 406.3677673339844 99.05876159667969 423.7434387207031 101.57821655273438 443.57989501953125 108.76420593261719" stroke-width="0.0" fill="url(#shape_11_fill)"/>
    <path d="M 602.8795776367188 127.67642211914062 C 605.4024658203125 130.87266540527344 605.3310546875 143.359375 606.8557739257812 145.58531188964844 C 610.6880493164062 146.2974853515625 610.639404296875 152.1705322265625 619.821533203125 154.3306427001953 C 618.03271484375 149.76158142089844 617.2493286132812 141.85353088378906 623.1043701171875 141.03927612304688 C 623.5022583007812 137.3721923828125 625.3894653320312 137.2968292236328 627.1932983398438 140.31690979003906 C 627.0438842773438 142.2309112548828 628.8517456054688 144.85704040527344 629.052978515625 147.2286376953125 C 632.072998046875 149.79208374023438 631.6721801757812 151.2620849609375 635.7113037109375 153.72308349609375 C 642.2384033203125 154.033203125 641.9434204101562 160.16793823242188 650.0625 174.79795837402344 C 639.6104736328125 186.37405395507812 640.50146484375 195.1802520751953 641.0115356445312 204.6255340576172 C 663.2557983398438 205.962890625 663.95849609375 244.0781707763672 642.5880737304688 245.35227966308594 C 621.9783935546875 247.89727783203125 610.978515625 248.78965759277344 579.0178833007812 265.1484375 C 575.2794189453125 253.2703094482422 581.2442626953125 229.6979522705078 571.9669189453125 214.5196075439453 C 568.0214233398438 208.62039184570312 571.3321533203125 168.86767578125 583.8994750976562 169.7179718017578 C 596.7530517578125 163.07754516601562 599.9779052734375 143.114990234375 600.3272094726562 142.29547119140625 C 595.9022216796875 140.0536651611328 596.1438598632812 137.4853515625 602.8795776367188 127.67642211914062" stroke-width="0.0" fill="url(#shape_12_fill)"/>
    <path d="M 412.511962890625 176.58531188964844 C 418.5110778808594 174.64019775390625 435.1076354980469 213.82009887695312 428.4336853027344 219.75869750976562 C 419.8599548339844 229.04408264160156 427.6082458496094 236.6653594970703 431.79278564453125 241.472412109375 C 429.6758117675781 260.4681396484375 417.1694030761719 272.30303955078125 411.5837707519531 267.1759338378906 C 406.9859313964844 264.9749755859375 401.4771728515625 271.8936767578125 391.8229675292969 268.40057373046875 C 385.66754150390625 264.9256591796875 382.63739013671875 265.9944152832031 378.3961181640625 265.5893249511719 C 373.0645446777344 266.786865234375 371.6577453613281 262.2682189941406 374.1954345703125 258.2236328125 C 376.0460510253906 256.3606262207031 374.6601867675781 254.65914916992188 375.0592346191406 253.8826141357422 C 370.91998291015625 255.9071807861328 368.8265380859375 252.11119079589844 367.8269348144531 251.9976348876953 C 360.4725646972656 248.0248565673828 366.567626953125 229.45059204101562 367.12359619140625 222.4187774658203 C 369.74810791015625 218.61224365234375 371.37255859375 202.41493225097656 384.78643798828125 201.9207305908203 C 378.66876220703125 193.3462677001953 379.67645263671875 191.69570922851562 389.9582824707031 191.6522979736328 C 390.6002502441406 177.37294006347656 392.6101379394531 176.76914978027344 412.511962890625 176.58531188964844" stroke-width="0.0" fill="url(#shape_13_fill)"/>
    <path d="M 507.0284423828125 66.59526824951172 C 506.509033203125 68.00508117675781 509.67120361328125 75.5948715209961 514.5191650390625 91.32111358642578 C 532.2097778320312 79.64979553222656 535.8834838867188 79.6371078491211 537.3812866210938 85.34059143066406 C 538.8212890625 90.91327667236328 544.5330200195312 90.29241943359375 545.0235595703125 91.17808532714844 C 545.5375366210938 92.74002838134766 556.1514282226562 96.88431549072266 559.5338745117188 95.51744079589844 C 563.284423828125 97.6072769165039 567.402099609375 97.18536376953125 568.2141723632812 97.9786148071289 C 563.666748046875 106.76921844482422 558.6943969726562 116.54177856445312 538.1043090820312 108.70459747314453 C 540.3392333984375 112.16642761230469 540.1348876953125 115.39508056640625 534.6384887695312 118.43085479736328 C 527.1829833984375 120.03680419921875 519.5496215820312 124.56742858886719 515.6007080078125 118.5478515625 C 512.5397338867188 121.9034423828125 501.8531188964844 125.96308135986328 500.7443542480469 127.40284729003906 C 498.1777648925781 129.844970703125 494.26434326171875 129.4324188232422 490.0396728515625 126.21875 C 488.9812316894531 116.80575561523438 468.8638916015625 118.1727523803711 468.16278076171875 117.40347290039062 C 463.5229187011719 117.84690856933594 462.91656494140625 116.64411163330078 461.9867858886719 116.31362915039062 C 471.7999267578125 120.91161346435547 474.94464111328125 116.50337219238281 477.9825439453125 113.93416595458984 C 467.7694396972656 102.58628845214844 469.8389587402344 90.01982879638672 474.2511901855469 81.76091766357422 C 474.5857238769531 70.93243408203125 475.3383483886719 70.38481903076172 476.93212890625 65.92867279052734 C 478.2484130859375 63.554683685302734 482.3437194824219 63.64616775512695 483.9701232910156 63.39012145996094 C 495.117431640625 63.19969940185547 504.1162414550781 61.51979446411133 507.0284423828125 66.59526824951172" stroke-width="0.0" fill="url(#shape_14_fill)"/>
    <path d="M 536.32763671875 162.07272338867188 C 544.05517578125 162.24267578125 544.3545532226562 163.0489044189453 546.4966430664062 165.02200317382812 C 549.8980712890625 167.52342224121094 549.7103271484375 170.1621551513672 542.7573852539062 183.3917999267578 C 544.5990600585938 192.6031494140625 535.65087890625 229.25843811035156 537.1659545898438 232.29869079589844 C 541.4036254882812 239.27456665039062 540.8646240234375 252.95361328125 519.146240234375 252.21080017089844 C 502.2786560058594 253.65496826171875 481.7491455078125 241.9129180908203 487.5958557128906 230.40408325195312 C 476.6690368652344 219.7150115966797 478.8932800292969 207.33148193359375 483.2796630859375 201.92015075683594 C 486.46197509765625 197.52381896972656 487.97955322265625 197.49180603027344 488.7565002441406 199.31126403808594 C 482.73876953125 195.484619140625 488.74139404296875 184.870849609375 487.3442077636719 174.11715698242188 C 487.66705322265625 167.35952758789062 489.5367736816406 166.4013214111328 490.91619873046875 167.09556579589844 C 505.4527893066406 178.93148803710938 511.3561096191406 184.15232849121094 522.784912109375 172.82521057128906 C 525.5790405273438 170.9794158935547 525.2728881835938 167.1627197265625 526.0342407226562 164.99234008789062 C 525.252197265625 160.25949096679688 528.048583984375 158.28128051757812 536.32763671875 162.07272338867188" stroke-width="0.0" fill="url(#shape_15_fill)"/>
    <path d="M 651.5820922851562 109.34441375732422 C 653.7620239257812 110.63581848144531 664.1279296875 121.35977172851562 659.86767578125 132.6711883544922 C 664.0368041992188 136.06942749023438 664.5130004882812 143.95550537109375 673.2073364257812 147.64085388183594 C 677.2146606445312 179.17124938964844 673.8897094726562 210.79827880859375 676.2153930664062 267.11749267578125 C 675.12158203125 265.47021484375 635.8731689453125 272.954345703125 631.1129760742188 264.0220031738281 C 635.9030151367188 244.77682495117188 643.7933959960938 124.1677474975586 651.5820922851562 109.34441375732422" stroke-width="0.0" fill="url(#shape_16_fill)"/>
    <path d="M 601.5201416015625 128.19435119628906 C 604.1178588867188 128.23507690429688 605.4169921875 131.70506286621094 606.3298950195312 134.07357788085938 C 608.9536743164062 135.16427612304688 607.012939453125 141.44122314453125 609.1929321289062 143.9369659423828 C 628.9518432617188 143.31546020507812 632.8878173828125 215.9822540283203 632.6909790039062 272.3498229980469 C 579.3743286132812 277.242431640625 574.5330200195312 268.7179870605469 580.2150268554688 242.40382385253906 C 558.5224609375 225.94308471679688 598.9301147460938 156.69439697265625 601.5201416015625 128.19435119628906" stroke-width="0.0" fill="url(#shape_17_fill)"/>
    <path d="M 320.32684326171875 186.0916748046875 C 321.4745788574219 186.3719024658203 321.6182861328125 189.2381134033203 321.35833740234375 200.01226806640625 C 331.3208923339844 193.59767150878906 332.01617431640625 193.49050903320312 336.4458923339844 196.28358459472656 C 345.4267883300781 198.1341094970703 346.1982727050781 197.0650177001953 357.3808288574219 189.7903594970703 C 358.626220703125 192.314697265625 359.57708740234375 194.41012573242188 356.2294616699219 201.8524932861328 C 359.45220947265625 204.00198364257812 361.5860290527344 204.15740966796875 364.81903076171875 210.37730407714844 C 367.31549072265625 207.11570739746094 368.57196044921875 207.83078002929688 368.2615051269531 211.55419921875 C 370.0565490722656 220.12481689453125 370.2978210449219 223.10536193847656 366.11456298828125 225.59524536132812 C 365.76885986328125 231.54379272460938 363.0963134765625 238.8751220703125 368.36395263671875 248.81939697265625 C 370.41070556640625 253.31085205078125 368.72894287109375 255.7912139892578 357.95025634765625 254.56350708007812 C 355.04754638671875 255.8937225341797 324.3389892578125 254.9194793701172 322.52764892578125 255.4283447265625 C 313.239013671875 255.92604064941406 311.9075012207031 253.91336059570312 308.9400634765625 245.92393493652344 C 303.70098876953125 228.96237182617188 320.97149658203125 195.71914672851562 320.32684326171875 186.0916748046875" stroke-width="0.0" fill="url(#shape_18_fill)"/>
    <path d="M 483.7095031738281 234.72750854492188 C 506.50872802734375 252.56396484375 515.7804565429688 263.79327392578125 495.439208984375 280.75836181640625 C 469.9296569824219 280.5661926269531 443.9268493652344 261.9037780761719 442.04290771484375 262.35040283203125 C 438.71392822265625 260.58935546875 436.9949951171875 258.58282470703125 432.5489501953125 258.3166198730469 C 429.8092041015625 258.4992370605469 428.5263366699219 256.73626708984375 430.07818603515625 253.79164123535156 C 433.4697265625 237.1670684814453 423.4359436035156 233.83680725097656 422.96136474609375 229.72877502441406 C 423.07666015625 227.13711547851562 421.0643310546875 226.68524169921875 420.2701110839844 225.06825256347656 C 427.3764953613281 219.71231079101562 429.45721435546875 218.8214874267578 428.5590515136719 213.77980041503906 C 446.08538818359375 197.16770935058594 482.3092346191406 196.15501403808594 483.7095031738281 234.72750854492188" stroke-width="0.0" fill="url(#shape_19_fill)"/>
    <path d="M 673.9473266601562 -2.9470438957214355 C 675.0673828125 32.84956741333008 674.5833740234375 64.76375579833984 674.6881713867188 97.30559539794922 C 669.3030395507812 95.98635864257812 651.2166748046875 87.41533660888672 645.77490234375 90.10735321044922 C 638.578857421875 89.47937774658203 638.0947875976562 86.0701675415039 637.3175048828125 84.00516510009766 C 626.3527221679688 84.41055297851562 620.7095947265625 93.26856994628906 607.9595336914062 86.73750305175781 C 609.7141723632812 74.74371337890625 612.182373046875 73.64614868164062 614.511474609375 71.53247833251953 C 622.42724609375 68.79130554199219 648.8101196289062 25.10596466064453 647.5264892578125 20.589271545410156 C 655.4788208007812 9.154197692871094 656.5941772460938 2.142059087753296 668.9977416992188 3.331756830215454 C 669.8304443359375 2.6952621936798096 670.0851440429688 1.0500009059906006 673.9473266601562 -2.9470438957214355" stroke-width="0.0" fill="url(#shape_20_fill)"/>
    <path d="M 561.571533203125 156.14988708496094 C 569.7935791015625 156.5685577392578 570.3575439453125 161.00856018066406 572.0930786132812 166.0763397216797 C 581.3956298828125 168.34423828125 571.0047607421875 230.44131469726562 577.8761596679688 240.5728302001953 C 580.026123046875 244.89366149902344 579.703369140625 247.1217803955078 577.9883422851562 271.0953369140625 C 535.3192749023438 270.5177001953125 531.0555419921875 267.7989807128906 537.3035278320312 248.5811004638672 C 545.96337890625 244.8037567138672 549.6687622070312 168.49874877929688 555.431640625 156.77247619628906 C 555.574462890625 152.62852478027344 559.97265625 151.60903930664062 561.571533203125 156.14988708496094" stroke-width="0.0" fill="url(#shape_21_fill)"/>
    <path d="M 215.02511596679688 210.4276885986328 C 235.0126953125 208.218017578125 238.6812744140625 240.14476013183594 225.10498046875 257.5179443359375 C 211.35198974609375 262.8284912109375 208.98500061035156 263.4357604980469 208.8557891845703 273.0484619140625 C 205.79373168945312 275.2812805175781 206.7339324951172 277.0536804199219 205.5157012939453 279.3642272949219 C 206.6396942138672 282.78338623046875 202.874755859375 285.7645568847656 202.05258178710938 284.89556884765625 C 202.49082946777344 282.96099853515625 190.34657287597656 272.3207092285156 188.12359619140625 263.27996826171875 C 186.64382934570312 261.4554138183594 184.03086853027344 263.2225646972656 181.40733337402344 263.6691589355469 C 181.01768493652344 261.2554016113281 180.02540588378906 259.6286926269531 178.42556762695312 251.62242126464844 C 178.9164581298828 247.76475524902344 168.90455627441406 242.3513641357422 170.68324279785156 238.66566467285156 C 175.2228546142578 213.58187866210938 177.14590454101562 212.93226623535156 185.50912475585938 220.44322204589844 C 193.6484832763672 219.8137969970703 194.023193359375 215.03981018066406 198.60565185546875 213.4707489013672 C 184.3583984375 205.6177215576172 184.41136169433594 200.27822875976562 201.05047607421875 197.5598907470703 C 212.69058227539062 192.60733032226562 214.94346618652344 194.87847900390625 215.02511596679688 210.4276885986328" stroke-width="0.0" fill="url(#shape_22_fill)"/>
    <path d="M 111.72652435302734 426.16021728515625 C 112.75048065185547 429.2864990234375 111.0599136352539 431.2127990722656 110.65825653076172 431.3799743652344 C 104.96644592285156 432.68243408203125 103.2255859375 433.80926513671875 91.97087860107422 433.07611083984375 C 89.77587890625 435.9720458984375 95.65998840332031 446.421630859375 91.57658386230469 452.1399841308594 C 78.66380310058594 444.9972229003906 46.938175201416016 447.9271240234375 25.321487426757812 449.6083984375 C 14.053196907043457 446.1668701171875 13.90817928314209 439.742431640625 17.98957061767578 436.3298645019531 C 35.488189697265625 427.59429931640625 49.43976974487305 426.65887451171875 73.4446792602539 427.0471496582031 C 73.56354522705078 423.8470153808594 110.01016235351562 420.5604248046875 111.72652435302734 426.16021728515625" stroke-width="0.0" fill="url(#shape_23_fill)"/>
    <path d="M 198.54241943359375 121.37579345703125 C 211.44358825683594 115.1821517944336 225.2769775390625 132.86888122558594 220.49847412109375 141.89373779296875 C 216.3165283203125 147.89219665527344 218.5550994873047 150.38711547851562 220.28102111816406 154.686767578125 C 228.220703125 158.6887969970703 247.5546112060547 175.38609313964844 244.77220153808594 199.00050354003906 C 239.1370086669922 199.59825134277344 235.6779022216797 187.0314178466797 232.32363891601562 179.81585693359375 C 234.7711181640625 187.15403747558594 233.44705200195312 195.9630889892578 230.5071258544922 197.1295928955078 C 228.2037811279297 197.06613159179688 225.81881713867188 202.56948852539062 220.17857360839844 208.71359252929688 C 214.8125457763672 207.82937622070312 213.477783203125 202.14056396484375 211.79747009277344 198.3223114013672 C 211.3109130859375 190.88296508789062 211.5667266845703 183.18008422851562 206.7799530029297 177.64419555664062 C 203.84153747558594 174.0525360107422 204.896240234375 172.99806213378906 205.75233459472656 168.0786895751953 C 202.5831298828125 147.53623962402344 199.5272979736328 146.94126892089844 192.11419677734375 143.83140563964844 C 189.44305419921875 142.41278076171875 191.31275939941406 127.61125946044922 198.54241943359375 121.37579345703125" stroke-width="0.0" fill="url(#shape_24_fill)"/>
    <path d="M 589.7203369140625 401.46875 C 601.788818359375 404.87255859375 629.8735961914062 403.93914794921875 638.6516723632812 409.91119384765625 C 636.64892578125 424.7402648925781 631.7456665039062 427.6809387207031 629.3538208007812 425.9359130859375 C 630.5770874023438 427.8239440917969 636.153564453125 428.0271301269531 639.9674072265625 436.4552917480469 C 618.9346313476562 448.11700439453125 578.9321899414062 438.5862731933594 572.3357543945312 434.89453125 C 567.6591186523438 427.3144836425781 573.8849487304688 419.5860900878906 577.2109375 412.7911376953125 C 578.07373046875 411.1173400878906 585.6976318359375 413.4945983886719 589.7203369140625 401.46875" stroke-width="0.0" fill="url(#shape_25_fill)"/>
    <path d="M 142.8806610107422 67.01506042480469 C 144.0049591064453 68.68476104736328 149.0668182373047 67.94225311279297 149.71359252929688 68.82122802734375 C 148.8553466796875 70.91656494140625 150.4248504638672 71.83201599121094 149.4714813232422 73.96338653564453 C 151.03744506835938 74.51453399658203 150.1572723388672 78.73789978027344 149.46493530273438 92.77521514892578 C 151.9430694580078 93.00543212890625 154.814697265625 95.38714599609375 152.92669677734375 104.13236999511719 C 153.18324279785156 107.72697448730469 155.05508422851562 108.52749633789062 155.76382446289062 111.07611846923828 C 157.2327117919922 123.47686767578125 154.75587463378906 133.47377014160156 149.81382751464844 133.55909729003906 C 140.16583251953125 128.87530517578125 137.91082763671875 117.87342071533203 125.98123931884766 116.48375701904297 C 121.81855010986328 113.75533294677734 123.36571502685547 109.63204956054688 126.17754364013672 107.19678497314453 C 128.54100036621094 106.76093292236328 129.02590942382812 105.27568817138672 132.52249145507812 105.01949310302734 C 138.69207763671875 96.24251556396484 135.3135223388672 92.96763610839844 132.70191955566406 89.0458984375 C 134.04579162597656 88.15834045410156 139.45082092285156 88.00580596923828 140.5987548828125 85.40558624267578 C 138.1978302001953 84.70269012451172 138.83204650878906 78.03858184814453 139.95553588867188 77.35633850097656 C 144.0570526123047 76.414794921875 143.01144409179688 71.2118911743164 142.8806610107422 67.01506042480469" stroke-width="0.0" fill="url(#shape_26_fill)"/>
    <path d="M 139.53407287597656 67.77689361572266 C 149.19236755371094 66.77079010009766 149.4881134033203 67.88106536865234 148.77352905273438 77.40068817138672 C 150.51852416992188 78.29049682617188 151.16224670410156 80.77873229980469 154.98770141601562 85.32232666015625 C 149.97557067871094 90.3498306274414 155.11614990234375 95.89276123046875 150.94371032714844 105.23979187011719 C 152.73883056640625 106.08602142333984 153.6768798828125 109.7752914428711 155.45913696289062 113.00350189208984 C 152.97161865234375 115.88627624511719 157.715087890625 122.05902862548828 153.21673583984375 126.35939025878906 C 152.48016357421875 132.01162719726562 151.3078155517578 133.1644744873047 147.58541870117188 134.6602325439453 C 142.10885620117188 130.7474822998047 128.2038116455078 122.30240631103516 129.61143493652344 117.60086822509766 C 124.24007415771484 118.41184997558594 122.79999542236328 112.90380859375 128.4093780517578 110.6561508178711 C 122.7906494140625 107.52835083007812 124.5470199584961 104.02281188964844 132.9397735595703 107.96250915527344 C 136.874267578125 105.93582916259766 133.30833435058594 92.72369384765625 132.6734161376953 89.18771362304688 C 139.39808654785156 87.75714111328125 138.8874053955078 85.23016357421875 138.99819946289062 81.12923431396484 C 139.06455993652344 77.48860931396484 140.36154174804688 76.81314849853516 142.509765625 78.34375 C 145.2639923095703 71.83875274658203 142.67979431152344 70.40369415283203 139.53407287597656 67.77689361572266" stroke-width="0.0" fill="url(#shape_27_fill)"/>
    <path d="M -0.4417853057384491 -0.2785840630531311 C 4.734335422515869 0.38944900035858154 9.68368148803711 -0.5335073471069336 18.660776138305664 -0.8999830484390259 C 25.51857566833496 -1.8441495895385742 26.045345306396484 -1.0499924421310425 57.63200378417969 0.35875773429870605 C 53.132144927978516 25.62579345703125 28.933731079101562 22.85265350341797 28.136751174926758 28.37248992919922 C 62.89124298095703 7.3059587478637695 71.89099884033203 6.989706516265869 75.65119934082031 56.48569869995117 C 33.54444885253906 58.42758560180664 22.704015731811523 61.3579216003418 20.01241111755371 53.93547439575195 C 16.78969955444336 39.334590911865234 11.27077579498291 38.334102630615234 9.96718978881836 33.62640380859375 C 10.103608131408691 35.78509521484375 14.522857666015625 39.2669563293457 14.610694885253906 41.02571487426758 C 16.186809539794922 42.160064697265625 16.094633102416992 44.56098937988281 18.16588020324707 47.88091278076172 C 20.071821212768555 51.073455810546875 18.768718719482422 52.30497360229492 22.99205207824707 57.80482864379883 C 24.15761947631836 70.46212005615234 8.93010139465332 72.9936294555664 7.112026691436768 61.88404083251953 C 5.124925136566162 61.00127410888672 3.573190450668335 59.118629455566406 0.3115626573562622 59.44929504394531 C -0.3219204246997833 39.80683135986328 -0.32512497901916504 19.637718200683594 -0.4417853057384491 -0.2785840630531311" stroke-width="0.0" fill="url(#shape_28_fill)"/>
    <path d="M 298.208740234375 197.3006591796875 C 297.74871826171875 199.5050506591797 300.7398376464844 202.15750122070312 301.6167297363281 209.04000854492188 C 300.4174499511719 214.36843872070312 325.7797546386719 222.2292022705078 315.9499206542969 255.49786376953125 C 311.89849853515625 254.69064331054688 310.4991149902344 255.74948120117188 304.3062438964844 255.02479553222656 C 303.94439697265625 258.1068115234375 297.7030029296875 258.3647766113281 281.3588562011719 256.4900207519531 C 276.5508117675781 223.5503387451172 285.2127685546875 221.8692626953125 298.208740234375 197.3006591796875" stroke-width="0.0" fill="url(#shape_29_fill)"/>
    <path d="M 0.003487589303404093 -0.1425241231918335 C 4.626328468322754 0.4590522348880768 9.841375350952148 -0.4080776870250702 14.760941505432129 0.08864040672779083 C 15.986007690429688 0.46812498569488525 16.7994441986084 2.0087642669677734 16.62286949157715 7.874571323394775 C 18.746803283691406 11.031660079956055 21.322120666503906 19.199338912963867 27.944507598876953 20.50409698486328 C 27.3460750579834 22.632917404174805 23.454988479614258 26.70512580871582 26.2553768157959 31.96660804748535 C 20.659189224243164 32.55017852783203 11.381239891052246 30.293180465698242 3.5603294372558594 33.453773498535156 C 8.801850318908691 36.26576232910156 8.632685661315918 39.18883514404297 10.861138343811035 40.46696472167969 C 10.513444900512695 42.73336410522461 7.371580600738525 49.34273910522461 11.755664825439453 53.79399108886719 C 17.785388946533203 51.02265548706055 19.456327438354492 51.449440002441406 18.465280532836914 58.38833999633789 C 11.32182788848877 60.71854019165039 9.426685333251953 62.39113235473633 0.17486311495304108 61.6522216796875 C -0.4289344847202301 39.98049545288086 -0.35472553968429565 19.756772994995117 0.003487589303404093 -0.1425241231918335" stroke-width="0.0" fill="url(#shape_30_fill)"/>
    <path d="M 549.0368041992188 70.72491455078125 C 546.7574462890625 78.5708236694336 576.7940063476562 89.28005981445312 581.396728515625 91.86045837402344 C 581.0083618164062 93.02389526367188 577.5467529296875 93.39788055419922 577.5173950195312 98.3394775390625 C 573.2972412109375 100.68623352050781 572.0514526367188 99.8037338256836 569.5054321289062 100.02994537353516 C 567.0302734375 94.10386657714844 547.4257202148438 98.6190414428711 538.8885498046875 88.26441955566406 C 538.2460327148438 85.5335693359375 538.7988891601562 82.83570098876953 535.9135131835938 81.740966796875 C 533.9219970703125 81.07781219482422 527.1206665039062 79.44635772705078 526.989990234375 78.01390075683594 C 524.9729614257812 75.86700439453125 527.7373657226562 70.86202239990234 531.7904663085938 68.94287109375 C 539.283447265625 66.81957244873047 542.8260498046875 71.47343444824219 549.0368041992188 70.72491455078125" stroke-width="0.0" fill="url(#shape_31_fill)"/>
    <path d="M 446.888427734375 264.4626770019531 C 450.59759521484375 265.3372497558594 451.23614501953125 266.78179931640625 455.4857482910156 267.8893127441406 C 460.5113830566406 267.6551208496094 465.32232666015625 270.3759765625 469.9669189453125 272.9788818359375 C 470.4309997558594 275.6334533691406 471.828857421875 276.8868713378906 471.6768798828125 280.78680419921875 C 452.4140319824219 287.2200012207031 431.38299560546875 284.16778564453125 415.8326416015625 285.1358337402344 C 413.3386535644531 273.87200927734375 413.9176940917969 272.2687683105469 415.137939453125 267.9214172363281 C 418.1717529296875 267.1871643066406 417.687744140625 264.7626647949219 419.29638671875 262.7989196777344 C 445.0519714355469 250.3201904296875 447.2835998535156 251.4769744873047 446.888427734375 264.4626770019531" stroke-width="0.0" fill="url(#shape_32_fill)"/>
    <path d="M 272.9569091796875 192.04278564453125 C 274.02337646484375 192.3740997314453 288.4649353027344 243.74789428710938 282.8222351074219 249.80189514160156 C 279.7128601074219 249.97711181640625 274.1402282714844 247.99002075195312 269.0466003417969 250.41506958007812 C 266.01519775390625 246.87457275390625 266.3469543457031 243.09414672851562 260.732421875 240.7060546875 C 254.83413696289062 208.3976287841797 262.1485595703125 205.16346740722656 272.9569091796875 192.04278564453125" stroke-width="0.0" fill="url(#shape_33_fill)"/>
    <path d="M 270.3269348144531 405.9917907714844 C 262.1499328613281 429.80224609375 264.2073669433594 430.9084777832031 267.4000244140625 440.6532287597656 C 262.49237060546875 440.8442077636719 260.6853942871094 446.4203796386719 258.62115478515625 447.8636779785156 C 245.4183807373047 446.04498291015625 212.87835693359375 448.75604248046875 212.25172424316406 445.1304016113281 C 213.02133178710938 436.99578857421875 213.95974731445312 436.221435546875 216.10008239746094 434.7999572753906 C 216.55296325683594 433.690673828125 225.12759399414062 434.1405029296875 226.86163330078125 431.15155029296875 C 226.16268920898438 417.32440185546875 230.7298583984375 416.6235046386719 270.3269348144531 405.9917907714844" stroke-width="0.0" fill="url(#shape_34_fill)"/>
    <path d="M 105.57411193847656 69.57872772216797 C 110.4117202758789 69.6497802734375 110.4656982421875 78.31974029541016 112.84649658203125 85.26152038574219 C 117.97535705566406 86.39645385742188 115.84609985351562 110.00374603271484 118.96918487548828 110.6808853149414 C 116.6640396118164 112.46986389160156 109.37106323242188 114.18487548828125 107.01225280761719 124.99868774414062 C 104.55628204345703 117.12083435058594 96.475830078125 118.92407989501953 87.48790740966797 106.7015380859375 C 86.0345230102539 85.64511108398438 106.2557373046875 84.16807556152344 105.57411193847656 69.57872772216797" stroke-width="0.0" fill="url(#shape_35_fill)"/>
    <path d="M 451.1930236816406 178.47520446777344 C 454.2574157714844 176.06423950195312 456.39129638671875 177.78082275390625 455.075439453125 180.3383026123047 C 455.8153076171875 180.9099884033203 454.9661560058594 184.8925018310547 456.0672607421875 186.85848999023438 C 456.4503479003906 188.42637634277344 459.3746337890625 193.67909240722656 458.63116455078125 204.47653198242188 C 458.8243103027344 208.28805541992188 453.30859375 210.28257751464844 446.0113220214844 204.41339111328125 C 442.2574768066406 206.7039337158203 440.69720458984375 209.36326599121094 431.9412841796875 210.85757446289062 C 436.0315856933594 209.9173126220703 436.9550476074219 187.24951171875 437.671630859375 173.5485382080078 C 440.1287841796875 178.7521209716797 440.7806091308594 181.2598419189453 446.86907958984375 181.61700439453125 C 447.9576721191406 179.74462890625 450.1525573730469 179.7267608642578 451.1930236816406 178.47520446777344" stroke-width="0.0" fill="url(#shape_36_fill)"/>
    <path d="M 558.3350830078125 84.682861328125 C 559.69287109375 80.0802230834961 578.3438720703125 83.3057861328125 579.2971801757812 85.00621032714844 C 581.3397827148438 83.07760620117188 586.2994995117188 84.94068908691406 588.4312133789062 88.80511474609375 C 598.7945556640625 111.62659454345703 588.3970947265625 118.1473388671875 574.3043212890625 100.94813537597656 C 573.7886352539062 99.4487075805664 550.0299072265625 96.78739929199219 548.9600830078125 86.64414978027344 C 539.2049560546875 86.9639892578125 537.7792358398438 85.42092895507812 536.8329467773438 79.88099670410156 C 543.302734375 74.67037200927734 546.81396484375 78.88594818115234 558.3350830078125 84.682861328125" stroke-width="0.0" fill="url(#shape_37_fill)"/>
    <path d="M 251.68507385253906 206.60269165039062 C 265.9683532714844 215.3938751220703 261.3629150390625 234.03607177734375 260.0672912597656 248.79452514648438 C 259.93707275390625 254.68276977539062 251.52308654785156 255.28338623046875 248.845947265625 256.90582275390625 C 234.16761779785156 236.1356658935547 240.58303833007812 216.2805633544922 251.68507385253906 206.60269165039062" stroke-width="0.0" fill="url(#shape_38_fill)"/>
    <path d="M 442.2098083496094 262.94842529296875 C 445.989501953125 263.41748046875 449.2175598144531 266.6806945800781 447.9375305175781 270.0831604003906 C 444.6692810058594 270.4041442871094 442.67474365234375 277.35638427734375 440.0698547363281 277.3379821777344 C 438.08355712890625 286.8726501464844 430.76068115234375 286.1843566894531 417.5256652832031 275.2845153808594 C 414.3669128417969 276.68621826171875 413.20611572265625 274.2010803222656 416.4251708984375 271.5873718261719 C 414.8106384277344 269.9118347167969 419.2618408203125 262.2725524902344 425.2118835449219 258.5186767578125 C 426.9717712402344 257.88800048828125 440.68450927734375 257.6803283691406 442.2098083496094 262.94842529296875" stroke-width="0.0" fill="url(#shape_39_fill)"/>
    <path d="M 407.6407775878906 409.95147705078125 C 408.6289367675781 409.9256591796875 416.7640075683594 419.1726379394531 414.2978515625 424.44085693359375 C 398.6061706542969 435.3753356933594 386.3845520019531 420.50115966796875 376.5331115722656 420.8934326171875 C 371.0683898925781 417.962646484375 371.2246398925781 416.5549011230469 372.5799255371094 410.5345764160156 C 375.6150817871094 401.0017395019531 391.7297668457031 404.0431213378906 407.6407775878906 409.95147705078125" stroke-width="0.0" fill="url(#shape_40_fill)"/>
    <path d="M 66.64312744140625 427.35052490234375 C 67.20330810546875 428.9191589355469 63.86598205566406 431.7984924316406 58.58192443847656 434.0507507324219 C 57.34008026123047 435.7859191894531 42.62786102294922 435.4423828125 30.99724769592285 443.3685607910156 C 28.978439331054688 443.4421081542969 26.827350616455078 444.1705627441406 17.410987854003906 442.55975341796875 C 16.4642391204834 440.6541748046875 18.090471267700195 439.2092590332031 17.399639129638672 437.72906494140625 C 36.52174377441406 427.02349853515625 51.13027572631836 428.551513671875 66.64312744140625 427.35052490234375" stroke-width="0.0" fill="url(#shape_41_fill)"/>
    <path d="M 276.32000732421875 381.0997619628906 C 285.01922607421875 381.4920654296875 299.4143981933594 379.7897033691406 313.4424743652344 384.9210510253906 C 296.6898498535156 394.3766174316406 299.2875671386719 401.14385986328125 294.5865478515625 405.24993896484375 C 291.7828063964844 400.14776611328125 268.33441162109375 407.5672302246094 257.62347412109375 410.1775817871094 C 236.3912811279297 420.28399658203125 228.80880737304688 416.582763671875 227.7812042236328 383.82025146484375 C 259.7284240722656 377.9577331542969 266.11529541015625 382.29974365234375 276.32000732421875 381.0997619628906" stroke-width="0.0" fill="url(#shape_42_fill)"/>
    <path d="M 222.67935180664062 209.05859375 C 224.22592163085938 206.43031311035156 238.57601928710938 206.19393920898438 238.823486328125 209.82118225097656 C 242.87705993652344 221.9377899169922 243.73361206054688 245.15599060058594 256.3283386230469 270.5983581542969 C 252.39231872558594 276.5910949707031 243.51803588867188 273.5630798339844 208.10195922851562 272.3879699707031 C 208.57566833496094 266.2441101074219 206.1860809326172 250.86805725097656 216.0965576171875 247.5286102294922 C 219.1591033935547 246.4510040283203 218.4980926513672 226.42796325683594 222.67935180664062 209.05859375" stroke-width="0.0" fill="url(#shape_43_fill)"/>
    <path d="M 483.5676574707031 396.15802001953125 C 486.7116394042969 399.56219482421875 485.8011779785156 400.97698974609375 483.3345642089844 400.9693603515625 C 469.03253173828125 407.50738525390625 451.1646423339844 406.94189453125 450.29833984375 407.47918701171875 C 448.38787841796875 404.44598388671875 451.8188781738281 396.2252197265625 453.7237548828125 396.5295104980469 C 466.83575439453125 393.3865661621094 471.0226135253906 392.4253845214844 483.5676574707031 396.15802001953125" stroke-width="0.0" fill="url(#shape_44_fill)"/>
    <path d="M 45.9039421081543 408.1529235839844 C 45.249141693115234 407.8511962890625 35.91423416137695 412.850830078125 31.860607147216797 412.48333740234375 C 32.071407318115234 414.2336120605469 31.71550178527832 415.6522216796875 28.038000106811523 414.9882507324219 C 26.925439834594727 416.3094787597656 23.78390884399414 416.9223327636719 20.3986759185791 419.8276672363281 C 18.79827117919922 420.1321716308594 0.18979758024215698 417.49713134765625 -0.6874011158943176 420.4923095703125 C 2.05488657951355 419.4042663574219 -1.1707936525344849 411.1810607910156 1.0129106044769287 410.1836853027344 C 5.7532429695129395 409.7015075683594 45.47417068481445 406.2469787597656 45.9039421081543 408.1529235839844" stroke-width="0.0" fill="url(#shape_45_fill)"/>
    <path d="M 452.47503662109375 173.46971130371094 C 453.8512268066406 174.93881225585938 464.44317626953125 198.65016174316406 467.4036865234375 199.7104949951172 C 462.5853576660156 209.12384033203125 451.0102844238281 209.12962341308594 449.4430236816406 206.5112762451172 C 448.2969970703125 203.27406311035156 448.9319152832031 198.3258514404297 448.8509521484375 195.29678344726562 C 447.9674987792969 194.5751953125 447.582275390625 192.03173828125 448.52496337890625 187.98318481445312 C 450.9595031738281 186.6387481689453 450.137939453125 182.46804809570312 452.47503662109375 173.46971130371094" stroke-width="0.0" fill="url(#shape_46_fill)"/>
    <path d="M 372.05059814453125 183.85142517089844 C 379.9920959472656 198.4085693359375 380.1800842285156 202.58181762695312 371.8872985839844 205.91458129882812 C 365.8683166503906 206.8407440185547 364.772216796875 204.75045776367188 361.5935974121094 206.08685302734375 C 339.5229187011719 212.47531127929688 334.99407958984375 200.4886016845703 353.3498840332031 189.4078826904297 C 356.7100830078125 184.98561096191406 358.37908935546875 184.359375 368.19207763671875 185.45790100097656 C 369.0304870605469 182.7744903564453 371.4079284667969 182.92800903320312 372.05059814453125 183.85142517089844" stroke-width="0.0" fill="url(#shape_47_fill)"/>
    <path d="M 473.23004150390625 264.4230041503906 C 473.7534484863281 268.85089111328125 481.1726379394531 271.57427978515625 484.7370910644531 283.404541015625 C 467.1377258300781 287.9443664550781 445.3727722167969 286.9774475097656 443.80926513671875 284.9133605957031 C 439.3342590332031 282.09600830078125 439.9991760253906 276.96728515625 440.9827880859375 276.2847595214844 C 449.35125732421875 266.54132080078125 455.9518737792969 261.62603759765625 473.23004150390625 264.4230041503906" stroke-width="0.0" fill="url(#shape_48_fill)"/>
    <path d="M 176.4830322265625 116.66917419433594 C 178.19802856445312 115.62891387939453 181.7201385498047 116.14118194580078 182.72647094726562 117.19845581054688 C 184.62857055664062 120.08736419677734 183.93338012695312 121.7480239868164 184.74288940429688 123.32475280761719 C 179.42454528808594 128.26316833496094 185.5506591796875 137.0267333984375 183.06765747070312 139.1267547607422 C 181.528564453125 146.21194458007812 172.81951904296875 146.3274383544922 172.421875 146.84893798828125 C 172.9137420654297 126.96023559570312 171.09156799316406 124.40479278564453 176.4830322265625 116.66917419433594" stroke-width="0.0" fill="url(#shape_49_fill)"/>
    <path d="M 333.5918884277344 426.8880615234375 C 335.6505432128906 429.96661376953125 342.7010192871094 429.3782653808594 343.7513732910156 431.4966735839844 C 346.38104248046875 435.5623474121094 345.15838623046875 437.2073669433594 342.2517395019531 437.4698486328125 C 342.42889404296875 447.3412780761719 325.5462341308594 448.8007507324219 323.55328369140625 445.7476501464844 C 321.57666015625 436.14642333984375 321.5904235839844 432.7128601074219 305.04913330078125 430.8900451660156 C 317.4569396972656 424.6585388183594 327.1133117675781 431.0549011230469 333.5918884277344 426.8880615234375" stroke-width="0.0" fill="url(#shape_50_fill)"/>
    <path d="M 322.29766845703125 388.916259765625 C 315.77642822265625 396.533935546875 293.0781555175781 395.2810363769531 291.5263366699219 398.9830322265625 C 279.1004638671875 397.6838073730469 277.85198974609375 398.95489501953125 271.2392883300781 402.220947265625 C 271.2967224121094 401.5945129394531 270.1273498535156 398.88946533203125 271.8155822753906 397.5132141113281 C 270.4609680175781 395.5947265625 273.6506652832031 388.7287902832031 280.0730285644531 388.4684753417969 C 284.24554443359375 386.8530578613281 288.4737548828125 390.2854309082031 322.29766845703125 388.916259765625" stroke-width="0.0" fill="url(#shape_51_fill)"/>
    <path d="M 269.02197265625 187.60902404785156 C 278.1701354980469 195.3458709716797 276.8334655761719 207.73338317871094 280.2148742675781 217.4154510498047 C 271.564453125 210.46080017089844 269.56951904296875 208.50167846679688 260.1770935058594 217.3295440673828 C 258.2288818359375 208.86956787109375 262.7020568847656 195.2100372314453 267.9214782714844 195.8151397705078 C 269.6925354003906 194.15945434570312 268.8345947265625 191.5575408935547 269.02197265625 187.60902404785156" stroke-width="0.0" fill="url(#shape_52_fill)"/>
    <path d="M 218.58184814453125 409.3388366699219 C 215.88096618652344 410.8908386230469 215.80465698242188 413.3565979003906 214.3150634765625 415.4576416015625 C 214.62974548339844 424.0440368652344 195.5937957763672 425.25726318359375 187.74732971191406 415.6645812988281 C 186.38385009765625 403.5228271484375 209.5058135986328 398.54193115234375 218.58184814453125 409.3388366699219" stroke-width="0.0" fill="url(#shape_53_fill)"/>
    <path d="M 206.03704833984375 424.6366882324219 C 205.43612670898438 425.2136535644531 206.15261840820312 428.3020324707031 204.54527282714844 428.76702880859375 C 194.70948791503906 429.45269775390625 178.8326873779297 430.0976867675781 178.12950134277344 432.7130432128906 C 176.98373413085938 430.93994140625 178.58934020996094 425.94097900390625 177.2595977783203 423.8594970703125 C 187.23068237304688 418.6102294921875 192.31600952148438 423.3128662109375 206.03704833984375 424.6366882324219" stroke-width="0.0" fill="url(#shape_54_fill)"/>
    <path d="M 268.9617919921875 248.24307250976562 C 275.22894287109375 245.06930541992188 276.7441711425781 247.90310668945312 279.0139465332031 249.2601776123047 C 281.1073303222656 251.00587463378906 280.7754821777344 252.1498260498047 294.6352233886719 273.4361877441406 C 263.470458984375 258.1901550292969 262.88616943359375 257.5130615234375 248.9034881591797 269.4170837402344 C 254.81317138671875 248.17335510253906 255.9340362548828 247.25985717773438 258.7933349609375 245.23016357421875 C 261.1409912109375 240.17620849609375 263.1498107910156 239.33741760253906 268.9617919921875 248.24307250976562" stroke-width="0.0" fill="url(#shape_55_fill)"/>
    <path d="M 291.9552307128906 333.4370422363281 C 287.9100646972656 362.6496887207031 288.5359191894531 363.410400390625 285.6234130859375 368.04632568359375 C 285.5796813964844 369.222900390625 286.10919189453125 371.7598571777344 285.4066162109375 381.6165466308594 C 268.40618896484375 379.2846374511719 255.25563049316406 380.60247802734375 232.22183227539062 382.60772705078125 C 227.98585510253906 382.6950988769531 227.35630798339844 369.604736328125 236.5045623779297 345.08050537109375 C 237.58615112304688 334.98565673828125 238.96768188476562 331.933837890625 291.9552307128906 333.4370422363281" stroke-width="0.0" fill="url(#shape_56_fill)"/>
    <path d="M 407.91632080078125 271.8878173828125 C 412.48876953125 270.9756774902344 417.7705383300781 275.99609375 425.7460632324219 281.94512939453125 C 416.3780212402344 283.397705078125 412.44677734375 275.5520324707031 373.1260986328125 274.4361267089844 C 374.9428405761719 262.4892272949219 382.7773132324219 263.3094177246094 407.91632080078125 271.8878173828125" stroke-width="0.0" fill="url(#shape_57_fill)"/>
    <path d="M 632.1223754882812 352.5570068359375 C 632.981689453125 354.38775634765625 661.1384887695312 355.3375549316406 668.4739379882812 355.80865478515625 C 668.4232788085938 357.9747009277344 662.9894409179688 360.1068115234375 660.1923217773438 356.5224914550781 C 644.1900024414062 356.6934509277344 636.8037109375 358.72967529296875 631.7600708007812 359.395263671875 C 627.9411010742188 357.3479309082031 629.609375 353.71624755859375 632.1223754882812 352.5570068359375" stroke-width="0.0" fill="url(#shape_58_fill)"/>
    <path d="M 341.3975524902344 384.5900573730469 C 342.8468933105469 390.05889892578125 358.1578369140625 391.57452392578125 359.15826416015625 394.5531921386719 C 356.5923767089844 398.5301208496094 339.777099609375 401.2929382324219 338.2707824707031 399.5753479003906 C 335.1358642578125 399.64044189453125 333.0502014160156 398.7928466796875 331.8207702636719 396.5372619628906 C 331.9945068359375 394.93994140625 330.73895263671875 393.4737243652344 332.22857666015625 390.56829833984375 C 332.65423583984375 384.8255615234375 335.2508544921875 383.7486267089844 341.3975524902344 384.5900573730469" stroke-width="0.0" fill="url(#shape_59_fill)"/>
    <path d="M 457.7684631347656 365.0039367675781 C 461.6308288574219 362.0426330566406 474.5453186035156 372.1805419921875 473.24957275390625 374.6350402832031 C 471.8153991699219 376.2425537109375 470.33636474609375 376.8193054199219 463.7326354980469 375.8725891113281 C 458.9549560546875 376.6865234375 456.92620849609375 377.10235595703125 452.7825622558594 371.21533203125 C 453.3775939941406 370.0892639160156 458.5049743652344 368.30303955078125 457.7684631347656 365.0039367675781" stroke-width="0.0" fill="url(#shape_60_fill)"/>
    <path d="M 428.1993713378906 432.3039855957031 C 439.9732971191406 434.20001220703125 442.370849609375 436.7561340332031 442.11871337890625 438.60955810546875 C 440.255615234375 440.73907470703125 427.2630310058594 439.3524169921875 425.680908203125 441.9630432128906 C 422.5550842285156 437.5810241699219 423.909423828125 434.69891357421875 410.1218566894531 425.2464904785156 C 427.6714172363281 427.9952392578125 428.9516296386719 431.62493896484375 428.1993713378906 432.3039855957031" stroke-width="0.0" fill="url(#shape_61_fill)"/>
    <path d="M 185.38612365722656 411.45281982421875 C 186.23959350585938 413.8905029296875 185.04930114746094 414.82061767578125 186.8311767578125 417.7034606933594 C 184.8792724609375 420.23773193359375 183.377685546875 419.4804992675781 182.5465087890625 419.8103332519531 C 180.8385772705078 421.66375732421875 174.4741668701172 420.119873046875 171.83583068847656 419.9262390136719 C 169.6155548095703 417.5234069824219 169.7910919189453 415.6224060058594 175.15896606445312 412.1591796875 C 176.6470947265625 413.69580078125 180.02781677246094 410.47955322265625 185.38612365722656 411.45281982421875" stroke-width="0.0" fill="url(#shape_62_fill)"/>
    <path d="M 331.73565673828125 418.9353332519531 C 334.192138671875 425.5711975097656 329.8394470214844 427.7708740234375 327.19970703125 425.3994140625 C 324.45458984375 427.71978759765625 322.943359375 426.6689758300781 321.95758056640625 427.26519775390625 C 319.02984619140625 425.9359436035156 320.11822509765625 419.9389953613281 317.6781005859375 418.53387451171875 C 318.9549865722656 420.3924865722656 325.6484069824219 418.48828125 331.73565673828125 418.9353332519531" stroke-width="0.0" fill="url(#shape_63_fill)"/>
    <path d="M 55.654327392578125 274.45947265625 C 56.75811004638672 269.8454895019531 64.12567901611328 271.2427062988281 62.92560958862305 278.7356262207031 C 59.75092315673828 278.47906494140625 54.06847381591797 272.1568908691406 48.84811782836914 276.6049499511719 C 51.56219482421875 273.9777526855469 53.08713912963867 273.45263671875 55.654327392578125 274.45947265625" stroke-width="0.0" fill="url(#shape_64_fill)"/>
    <path d="M 304.70953369140625 440.3526611328125 C 304.56475830078125 437.8070983886719 306.41571044921875 436.9114990234375 313.2350769042969 437.74053955078125 C 314.3476867675781 439.6357421875 312.8185729980469 441.0404357910156 310.7298583984375 441.1551818847656 C 307.8057556152344 445.138916015625 306.4301452636719 444.1788330078125 305.12164306640625 443.74462890625 C 302.5957336425781 441.7144470214844 303.37890625 440.3714599609375 304.70953369140625 440.3526611328125" stroke-width="0.0" fill="url(#shape_65_fill)"/>
    <path d="M -0.6025450229644775 -0.42249035835266113 C 224.67581176757812 -0.11908606439828873 444.1018371582031 0.31392979621887207 672.36865234375 0.14196713268756866 C 673.3843994140625 155.75897216796875 674.7977905273438 295.7765197753906 673.7744750976562 445.4693603515625 C 450.0179138183594 446.31439208984375 229.9606170654297 446.32220458984375 0.4444461464881897 445.5380554199219 C 0.1771816909313202 297.27923583984375 -0.23012425005435944 149.58065795898438 -0.6025450229644775 -0.42249035835266113" stroke-width="0.0" fill="url(#shape_66_fill)"/>
    <path d="M -1.1491038799285889 -0.23949317634105682 C 222.89669799804688 -0.1403881460428238 442.8770751953125 0.40715670585632324 672.290771484375 -0.26028671860694885 C 673.395263671875 156.9413604736328 674.8494262695312 295.4599304199219 673.4068603515625 445.3931884765625 C 450.3343505859375 446.3727722167969 230.04962158203125 446.3525085449219 0.4878440201282501 445.4784851074219 C 0.022767413407564163 297.6360778808594 -0.3086060583591461 149.22434997558594 -1.1491038799285889 -0.23949317634105682" stroke-width="0.0" fill="url(#shape_67_fill)"/>
    <path d="M -0.7359839081764221 -0.28716909885406494 C 223.5692596435547 -0.19607087969779968 441.5559997558594 0.5397040843963623 672.54833984375 -0.33751097321510315 C 673.5311279296875 155.8988037109375 674.8512573242188 295.2212219238281 673.3926391601562 445.3923645019531 C 450.3374938964844 446.374755859375 230.12771606445312 446.34759521484375 1.1006534099578857 445.4456787109375 C 0.4709628224372864 295.760986328125 0.055896855890750885 148.57908630371094 -0.7359839081764221 -0.28716909885406494" stroke-width="0.0" fill="url(#shape_68_fill)"/>
  </g>
</svg>
