<?xml version="1.0" ?>
<svg xmlns="http://www.w3.org/2000/svg" version="1.1" width="674" height="446">
  <defs>
    <radialGradient id="shape_0_fill" cx="0.5383038167076224" cy="0.743563049042706" r="0.2751065489092637">
      <stop offset="0.47234064" stop-color="rgb(192, 250, 0)" stop-opacity="1.0"/>
      <stop offset="1.0" stop-color="rgb(115, 0, 0)" stop-opacity="1.0"/>
    </radialGradient>
    <radialGradient id="shape_1_fill" cx="0.5389567298775965" cy="0.7470428056246496" r="0.2052407646745178">
      <stop offset="0.5630267" stop-color="rgb(123, 116, 5)" stop-opacity="1.0"/>
      <stop offset="1.0" stop-color="rgb(6, 0, 0)" stop-opacity="0.9514066576957703"/>
    </radialGradient>
    <radialGradient id="shape_2_fill" cx="0.09792284866468842" cy="0.7376681614349776" r="0.22062588021026522">
      <stop offset="3.807348e-05" stop-color="rgb(30, 90, 182)" stop-opacity="0.999935507774353"/>
      <stop offset="1.0" stop-color="rgb(0, 112, 255)" stop-opacity="1.0"/>
    </radialGradient>
    <radialGradient id="shape_3_fill" cx="0.2747861369781041" cy="0.21595849691485075" r="0.12579454371058976">
      <stop offset="0.48935294" stop-color="rgb(190, 240, 0)" stop-opacity="1.0"/>
      <stop offset="1.0" stop-color="rgb(10, 11, 0)" stop-opacity="1.0"/>
    </radialGradient>
    <radialGradient id="shape_4_fill" cx="0.1543026706231454" cy="0.9977578475336323" r="0.10288926755639141">
      <stop offset="0.0" stop-color="rgb(81, 79, 86)" stop-opacity="1.0"/>
      <stop offset="1.0" stop-color="rgb(184, 68, 136)" stop-opacity="0.7882629632949829"/>
    </radialGradient>
    <radialGradient id="shape_5_fill" cx="0.14808285766963789" cy="0.23997181092677095" r="0.11810932102825945">
      <stop offset="0.0" stop-color="rgb(255, 255, 255)" stop-opacity="0.6489874124526978"/>
      <stop offset="0.5673928" stop-color="rgb(255, 255, 255)" stop-opacity="0.711544394493103"/>
    </radialGradient>
    <radialGradient id="shape_6_fill" cx="0.18397626112759644" cy="0.9977578475336323" r="0.0754974885934892">
      <stop offset="0.0" stop-color="rgb(93, 90, 94)" stop-opacity="1.0"/>
      <stop offset="1.0" stop-color="rgb(220, 140, 193)" stop-opacity="0.5513699054718018"/>
    </radialGradient>
    <radialGradient id="shape_7_fill" cx="0.2893175074183976" cy="0.05829596412556054" r="0.08666390552011372">
      <stop offset="0.0" stop-color="rgb(55, 66, 29)" stop-opacity="1.0"/>
      <stop offset="1.0" stop-color="rgb(60, 46, 0)" stop-opacity="1.0"/>
    </radialGradient>
    <radialGradient id="shape_8_fill" cx="0.3382789091115889" cy="0.9439461883408071" r="0.06756690277190167">
      <stop offset="0.0" stop-color="rgb(91, 124, 45)" stop-opacity="1.0"/>
      <stop offset="1.0" stop-color="rgb(231, 252, 11)" stop-opacity="0.9380832314491272"/>
    </radialGradient>
    <radialGradient id="shape_9_fill" cx="0.30712166172106825" cy="0.9977578475336323" r="0.0730758406641929">
      <stop offset="0.0" stop-color="rgb(38, 48, 20)" stop-opacity="1.0"/>
      <stop offset="1.0" stop-color="rgb(7, 12, 0)" stop-opacity="1.0"/>
    </radialGradient>
    <radialGradient id="shape_10_fill" cx="0.3056379821958457" cy="0.9977578475336323" r="0.06792919147615971">
      <stop offset="0.0" stop-color="rgb(39, 49, 21)" stop-opacity="1.0"/>
      <stop offset="1.0" stop-color="rgb(15, 16, 0)" stop-opacity="0.8348069190979004"/>
    </radialGradient>
    <radialGradient id="shape_11_fill" cx="0.21810089020771514" cy="0.968609865470852" r="0.06792919147615971">
      <stop offset="0.0" stop-color="rgb(138, 135, 129)" stop-opacity="1.0"/>
      <stop offset="1.0" stop-color="rgb(255, 254, 255)" stop-opacity="0.438073068857193"/>
    </radialGradient>
    <radialGradient id="shape_12_fill" cx="0.29080118694362017" cy="0.9977578475336323" r="0.07480746985189285">
      <stop offset="0.0" stop-color="rgb(22, 25, 13)" stop-opacity="1.0"/>
      <stop offset="1.0" stop-color="rgb(0, 0, 0)" stop-opacity="1.0"/>
    </radialGradient>
    <radialGradient id="shape_13_fill" cx="0.327893175074184" cy="0.8923766816143498" r="0.06900465877544279">
      <stop offset="0.0" stop-color="rgb(89, 117, 50)" stop-opacity="1.0"/>
      <stop offset="1.0" stop-color="rgb(192, 228, 11)" stop-opacity="1.0"/>
    </radialGradient>
    <radialGradient id="shape_14_fill" cx="0.142433234421365" cy="0.9977578475336323" r="0.06617211022079875">
      <stop offset="0.0" stop-color="rgb(155, 150, 153)" stop-opacity="1.0"/>
      <stop offset="1.0" stop-color="rgb(255, 255, 255)" stop-opacity="0.483621209859848"/>
    </radialGradient>
    <radialGradient id="shape_15_fill" cx="0.31008902077151335" cy="0.9977578475336323" r="0.06683642786405207">
      <stop offset="0.0" stop-color="rgb(43, 55, 23)" stop-opacity="1.0"/>
      <stop offset="1.0" stop-color="rgb(16, 18, 0)" stop-opacity="0.6860865950584412"/>
    </radialGradient>
    <radialGradient id="shape_16_fill" cx="0.27299703264094954" cy="0.9977578475336323" r="0.08110449363640579">
      <stop offset="0.0" stop-color="rgb(31, 35, 19)" stop-opacity="1.0"/>
      <stop offset="1.0" stop-color="rgb(0, 0, 0)" stop-opacity="1.0"/>
    </radialGradient>
    <radialGradient id="shape_17_fill" cx="0.2893175074183976" cy="0.9977578475336323" r="0.07513486030193747">
      <stop offset="0.0" stop-color="rgb(22, 23, 13)" stop-opacity="1.0"/>
      <stop offset="1.0" stop-color="rgb(0, 0, 0)" stop-opacity="0.2819061577320099"/>
    </radialGradient>
    <radialGradient id="shape_18_fill" cx="0.3293768545994065" cy="0.7556053811659192" r="0.06617211022079875">
      <stop offset="0.0" stop-color="rgb(83, 108, 65)" stop-opacity="1.0"/>
      <stop offset="1.0" stop-color="rgb(170, 214, 17)" stop-opacity="0.9284183979034424"/>
    </radialGradient>
    <radialGradient id="shape_19_fill" cx="0.3516320474777448" cy="0.9977578475336323" r="0.06617211022079875">
      <stop offset="0.0" stop-color="rgb(95, 135, 39)" stop-opacity="1.0"/>
      <stop offset="1.0" stop-color="rgb(212, 252, 0)" stop-opacity="1.0"/>
    </radialGradient>
    <radialGradient id="shape_20_fill" cx="0.0830860534124629" cy="0.9977578475336323" r="0.06792919147615971">
      <stop offset="0.0" stop-color="rgb(49, 52, 66)" stop-opacity="1.0"/>
      <stop offset="1.0" stop-color="rgb(44, 13, 56)" stop-opacity="0.899834156036377"/>
    </radialGradient>
    <radialGradient id="shape_21_fill" cx="0.29821958456973297" cy="0.9977578475336323" r="0.06792919147615971">
      <stop offset="0.0" stop-color="rgb(33, 40, 17)" stop-opacity="1.0"/>
      <stop offset="1.0" stop-color="rgb(0, 0, 0)" stop-opacity="0.8629423379898071"/>
    </radialGradient>
    <radialGradient id="shape_22_fill" cx="0.3564252768496731" cy="0.4436706406118624" r="0.06592317009538147">
      <stop offset="0.0" stop-color="rgb(223, 250, 0)" stop-opacity="0.6338438391685486"/>
      <stop offset="0.44378507" stop-color="rgb(236, 254, 1)" stop-opacity="0.9645448327064514"/>
    </radialGradient>
    <radialGradient id="shape_23_fill" cx="0.6454005934718101" cy="0.1412556053811659" r="0.06617211022079875">
      <stop offset="0.0" stop-color="rgb(46, 38, 13)" stop-opacity="1.0"/>
      <stop offset="1.0" stop-color="rgb(18, 0, 0)" stop-opacity="1.0"/>
    </radialGradient>
    <radialGradient id="shape_24_fill" cx="0.2492573452278839" cy="0.48430544592339897" r="0.06617145934515255">
      <stop offset="0.0" stop-color="rgb(201, 209, 206)" stop-opacity="1.0"/>
      <stop offset="0.9798754" stop-color="rgb(255, 255, 255)" stop-opacity="0.8831781148910522"/>
    </radialGradient>
    <radialGradient id="shape_25_fill" cx="0.6320474777448071" cy="0.9977578475336323" r="0.06617211022079875">
      <stop offset="0.0" stop-color="rgb(35, 28, 8)" stop-opacity="1.0"/>
      <stop offset="1.0" stop-color="rgb(0, 0, 0)" stop-opacity="0.7550697922706604"/>
    </radialGradient>
    <radialGradient id="shape_26_fill" cx="0.15420174527946495" cy="0.32068702458266185" r="0.06609740101619008">
      <stop offset="0.049668588" stop-color="rgb(196, 206, 149)" stop-opacity="1.0"/>
      <stop offset="0.64194775" stop-color="rgb(206, 204, 255)" stop-opacity="0.20773957669734955"/>
    </radialGradient>
    <radialGradient id="shape_27_fill" cx="0.15411193575986415" cy="0.32079842058532443" r="0.06604827971415987">
      <stop offset="0.0" stop-color="rgb(191, 203, 0)" stop-opacity="1.0"/>
      <stop offset="0.5076053" stop-color="rgb(192, 181, 16)" stop-opacity="0.5924326777458191"/>
    </radialGradient>
    <radialGradient id="shape_28_fill" cx="0.041393987502825365" cy="0.022160942778993616" r="0.0661929325816893">
      <stop offset="0.04422391" stop-color="rgb(0, 0, 122)" stop-opacity="1.0"/>
      <stop offset="0.70767236" stop-color="rgb(0, 2, 134)" stop-opacity="0.8792227506637573"/>
    </radialGradient>
    <radialGradient id="shape_29_fill" cx="0.33976258863681147" cy="0.6659192825112108" r="0.06617211022079875">
      <stop offset="0.0" stop-color="rgb(90, 117, 55)" stop-opacity="1.0"/>
      <stop offset="1.0" stop-color="rgb(188, 225, 5)" stop-opacity="1.0"/>
    </radialGradient>
    <radialGradient id="shape_30_fill" cx="0.041294131859119995" cy="0.020424267636286304" r="0.06635167832190629">
      <stop offset="0.26016837" stop-color="rgb(0, 26, 38)" stop-opacity="0.8162707090377808"/>
      <stop offset="0.9844575" stop-color="rgb(0, 18, 45)" stop-opacity="0.8012068867683411"/>
    </radialGradient>
    <radialGradient id="shape_31_fill" cx="0.12314540059347182" cy="0.9977578475336323" r="0.06617211022079875">
      <stop offset="0.0" stop-color="rgb(95, 103, 98)" stop-opacity="1.0"/>
      <stop offset="1.0" stop-color="rgb(239, 224, 223)" stop-opacity="0.3933975398540497"/>
    </radialGradient>
    <radialGradient id="shape_32_fill" cx="0.4035608308605341" cy="0.984304932735426" r="0.06617211022079875">
      <stop offset="0.0" stop-color="rgb(126, 155, 63)" stop-opacity="1.0"/>
      <stop offset="1.0" stop-color="rgb(237, 245, 6)" stop-opacity="0.996375322341919"/>
    </radialGradient>
    <radialGradient id="shape_33_fill" cx="0.3249258160237389" cy="0.6053811659192825" r="0.06617211022079875">
      <stop offset="0.0" stop-color="rgb(93, 124, 71)" stop-opacity="1.0"/>
      <stop offset="1.0" stop-color="rgb(207, 225, 9)" stop-opacity="0.9876878261566162"/>
    </radialGradient>
    <radialGradient id="shape_34_fill" cx="0.6468842729970327" cy="0.531390134529148" r="0.06617211022079875">
      <stop offset="0.0" stop-color="rgb(54, 47, 24)" stop-opacity="1.0"/>
      <stop offset="1.0" stop-color="rgb(68, 5, 0)" stop-opacity="1.0"/>
    </radialGradient>
    <radialGradient id="shape_35_fill" cx="0.14202016043733773" cy="0.2337060765835202" r="0.06606503834710277">
      <stop offset="0.0" stop-color="rgb(152, 209, 0)" stop-opacity="0.3828856647014618"/>
      <stop offset="0.34386665" stop-color="rgb(232, 254, 0)" stop-opacity="0.3262608051300049"/>
    </radialGradient>
    <radialGradient id="shape_36_fill" cx="0.2878338278931751" cy="0.9977578475336323" r="0.06617211022079875">
      <stop offset="0.0" stop-color="rgb(80, 96, 53)" stop-opacity="1.0"/>
      <stop offset="1.0" stop-color="rgb(130, 125, 30)" stop-opacity="1.0"/>
    </radialGradient>
    <radialGradient id="shape_37_fill" cx="0.129080118694362" cy="0.9977578475336323" r="0.06617211022079875">
      <stop offset="0.0" stop-color="rgb(87, 97, 81)" stop-opacity="1.0"/>
      <stop offset="1.0" stop-color="rgb(189, 180, 102)" stop-opacity="0.7548335790634155"/>
    </radialGradient>
    <radialGradient id="shape_38_fill" cx="0.33890436098908105" cy="0.5606641213455542" r="0.06670335492323697">
      <stop offset="0.64296913" stop-color="rgb(89, 115, 0)" stop-opacity="1.0"/>
      <stop offset="0.7422331" stop-color="rgb(157, 248, 0)" stop-opacity="1.0"/>
    </radialGradient>
    <radialGradient id="shape_39_fill" cx="0.40059347181008903" cy="0.9641255605381166" r="0.06617211022079875">
      <stop offset="0.0" stop-color="rgb(138, 168, 60)" stop-opacity="1.0"/>
      <stop offset="1.0" stop-color="rgb(255, 255, 36)" stop-opacity="1.0"/>
    </radialGradient>
    <radialGradient id="shape_40_fill" cx="0.6172246282107752" cy="0.8833991080656179" r="0.06616306587921052">
      <stop offset="0.0006752986" stop-color="rgb(0, 3, 0)" stop-opacity="1.0"/>
      <stop offset="0.8373696" stop-color="rgb(0, 0, 0)" stop-opacity="1.0"/>
    </radialGradient>
    <radialGradient id="shape_41_fill" cx="0.6454005934718101" cy="0.08744394618834081" r="0.06617211022079875">
      <stop offset="0.0" stop-color="rgb(58, 48, 21)" stop-opacity="1.0"/>
      <stop offset="1.0" stop-color="rgb(81, 5, 0)" stop-opacity="0.9817095398902893"/>
    </radialGradient>
    <radialGradient id="shape_42_fill" cx="0.5845697329376854" cy="0.6188340807174888" r="0.06617211022079875">
      <stop offset="0.0" stop-color="rgb(62, 59, 56)" stop-opacity="1.0"/>
      <stop offset="1.0" stop-color="rgb(15, 3, 15)" stop-opacity="0.9594771862030029"/>
    </radialGradient>
    <radialGradient id="shape_43_fill" cx="0.35778163377892014" cy="0.5065173846189217" r="0.0660782369732503">
      <stop offset="0.07068151" stop-color="rgb(228, 253, 0)" stop-opacity="1.0"/>
      <stop offset="0.53305185" stop-color="rgb(233, 255, 0)" stop-opacity="1.0"/>
    </radialGradient>
    <radialGradient id="shape_44_fill" cx="0.5934718100890207" cy="0.9977578475336323" r="0.06617211022079875">
      <stop offset="0.0" stop-color="rgb(89, 61, 18)" stop-opacity="1.0"/>
      <stop offset="1.0" stop-color="rgb(210, 37, 0)" stop-opacity="0.8352189064025879"/>
    </radialGradient>
    <radialGradient id="shape_45_fill" cx="0.612759643916914" cy="0.04035874439461883" r="0.06617211022079875">
      <stop offset="0.0" stop-color="rgb(157, 136, 123)" stop-opacity="1.0"/>
      <stop offset="1.0" stop-color="rgb(255, 255, 238)" stop-opacity="1.0"/>
    </radialGradient>
    <radialGradient id="shape_46_fill" cx="0.28635014836795253" cy="0.9977578475336323" r="0.06617211022079875">
      <stop offset="0.0" stop-color="rgb(82, 99, 55)" stop-opacity="1.0"/>
      <stop offset="1.0" stop-color="rgb(174, 184, 23)" stop-opacity="0.1760890930891037"/>
    </radialGradient>
    <radialGradient id="shape_47_fill" cx="0.28635014836795253" cy="0.8183856502242153" r="0.06617211022079875">
      <stop offset="0.0" stop-color="rgb(166, 189, 197)" stop-opacity="1.0"/>
      <stop offset="1.0" stop-color="rgb(255, 255, 255)" stop-opacity="0.7953699827194214"/>
    </radialGradient>
    <radialGradient id="shape_48_fill" cx="0.40801186943620177" cy="0.9977578475336323" r="0.06617211022079875">
      <stop offset="0.0" stop-color="rgb(107, 135, 68)" stop-opacity="1.0"/>
      <stop offset="1.0" stop-color="rgb(219, 231, 31)" stop-opacity="0.9629842042922974"/>
    </radialGradient>
    <radialGradient id="shape_49_fill" cx="0.19287833827893175" cy="0.3991031390134529" r="0.06617211022079875">
      <stop offset="0.0" stop-color="rgb(92, 100, 54)" stop-opacity="1.0"/>
      <stop offset="1.0" stop-color="rgb(230, 218, 1)" stop-opacity="0.3665800392627716"/>
    </radialGradient>
    <radialGradient id="shape_50_fill" cx="0.6439169139465876" cy="0.7376681614349776" r="0.06617211022079875">
      <stop offset="0.0" stop-color="rgb(65, 56, 25)" stop-opacity="1.0"/>
      <stop offset="1.0" stop-color="rgb(71, 162, 84)" stop-opacity="0.7412242293357849"/>
    </radialGradient>
    <radialGradient id="shape_51_fill" cx="0.5845697329376854" cy="0.6322869955156951" r="0.06617211022079875">
      <stop offset="0.0" stop-color="rgb(75, 68, 60)" stop-opacity="1.0"/>
      <stop offset="1.0" stop-color="rgb(141, 59, 47)" stop-opacity="0.8205651640892029"/>
    </radialGradient>
    <radialGradient id="shape_52_fill" cx="0.2997032640949555" cy="0.6031390134529148" r="0.06617211022079875">
      <stop offset="0.0" stop-color="rgb(107, 158, 118)" stop-opacity="1.0"/>
      <stop offset="1.0" stop-color="rgb(244, 255, 247)" stop-opacity="0.9546846151351929"/>
    </radialGradient>
    <radialGradient id="shape_53_fill" cx="0.6097922848664689" cy="0.45067264573991034" r="0.06617211022079875">
      <stop offset="0.0" stop-color="rgb(38, 39, 27)" stop-opacity="1.0"/>
      <stop offset="1.0" stop-color="rgb(2, 0, 0)" stop-opacity="0.7401366829872131"/>
    </radialGradient>
    <radialGradient id="shape_54_fill" cx="0.6335311572700296" cy="0.426009002822397" r="0.06617211022079875">
      <stop offset="0.0" stop-color="rgb(67, 49, 20)" stop-opacity="1.0"/>
      <stop offset="1.0" stop-color="rgb(107, 2, 0)" stop-opacity="0.808251678943634"/>
    </radialGradient>
    <radialGradient id="shape_55_fill" cx="0.3705964130888353" cy="0.5989067864524944" r="0.06599313639745515">
      <stop offset="0.0" stop-color="rgb(255, 255, 5)" stop-opacity="0.9712798595428467"/>
      <stop offset="0.3970267" stop-color="rgb(255, 255, 9)" stop-opacity="0.9607545137405396"/>
    </radialGradient>
    <radialGradient id="shape_56_fill" cx="0.5489614243323442" cy="0.600896860986547" r="0.06617211022079875">
      <stop offset="0.0" stop-color="rgb(50, 62, 80)" stop-opacity="1.0"/>
      <stop offset="1.0" stop-color="rgb(23, 31, 115)" stop-opacity="0.802311360836029"/>
    </radialGradient>
    <radialGradient id="shape_57_fill" cx="0.4094955489614243" cy="0.9035874439461884" r="0.06617211022079875">
      <stop offset="0.0" stop-color="rgb(111, 144, 47)" stop-opacity="1.0"/>
      <stop offset="1.0" stop-color="rgb(238, 254, 0)" stop-opacity="0.9997045397758484"/>
    </radialGradient>
    <radialGradient id="shape_58_fill" cx="0.5281899109792285" cy="0.9977578475336323" r="0.06617211022079875">
      <stop offset="0.0" stop-color="rgb(50, 43, 14)" stop-opacity="1.0"/>
      <stop offset="1.0" stop-color="rgb(29, 0, 0)" stop-opacity="0.8384618759155273"/>
    </radialGradient>
    <radialGradient id="shape_59_fill" cx="0.5845697329376854" cy="0.7690582959641256" r="0.06617211022079875">
      <stop offset="0.0" stop-color="rgb(61, 63, 58)" stop-opacity="1.0"/>
      <stop offset="1.0" stop-color="rgb(63, 54, 85)" stop-opacity="0.8213592171669006"/>
    </radialGradient>
    <radialGradient id="shape_60_fill" cx="0.5489614243323442" cy="0.9977578475336323" r="0.06617211022079875">
      <stop offset="0.0" stop-color="rgb(140, 131, 64)" stop-opacity="1.0"/>
      <stop offset="1.0" stop-color="rgb(255, 244, 31)" stop-opacity="0.9995932579040527"/>
    </radialGradient>
    <radialGradient id="shape_61_fill" cx="0.6468892988889791" cy="0.9686009702126541" r="0.06617121597425873">
      <stop offset="0.03169235" stop-color="rgb(255, 115, 0)" stop-opacity="1.0"/>
      <stop offset="0.9542917" stop-color="rgb(255, 113, 0)" stop-opacity="1.0"/>
    </radialGradient>
    <radialGradient id="shape_62_fill" cx="0.615727002967359" cy="0.3991031390134529" r="0.06617211022079875">
      <stop offset="0.0" stop-color="rgb(55, 47, 13)" stop-opacity="1.0"/>
      <stop offset="1.0" stop-color="rgb(60, 1, 0)" stop-opacity="0.9282464981079102"/>
    </radialGradient>
    <radialGradient id="shape_63_fill" cx="0.6261127596439169" cy="0.7286995515695067" r="0.06617211022079875">
      <stop offset="0.0" stop-color="rgb(79, 66, 32)" stop-opacity="1.0"/>
      <stop offset="1.0" stop-color="rgb(177, 217, 113)" stop-opacity="0.8511066436767578"/>
    </radialGradient>
    <radialGradient id="shape_64_fill" cx="0.40801186943620177" cy="0.12556053811659193" r="0.06617211022079875">
      <stop offset="0.0" stop-color="rgb(76, 66, 59)" stop-opacity="1.0"/>
      <stop offset="1.0" stop-color="rgb(123, 38, 28)" stop-opacity="1.0"/>
    </radialGradient>
    <radialGradient id="shape_65_fill" cx="0.6528189910979229" cy="0.6883408071748879" r="0.06617211022079875">
      <stop offset="0.0" stop-color="rgb(121, 97, 39)" stop-opacity="1.0"/>
      <stop offset="1.0" stop-color="rgb(255, 255, 120)" stop-opacity="1.0"/>
    </radialGradient>
    <radialGradient id="shape_66_fill" cx="0.6496433065623841" cy="0.46122553530295335" r="0.06714417884894577">
      <stop offset="0.67037827" stop-color="rgb(211, 246, 0)" stop-opacity="0.18858502805233002"/>
      <stop offset="1.0" stop-color="rgb(46, 34, 6)" stop-opacity="0.08297992497682571"/>
    </radialGradient>
    <radialGradient id="shape_67_fill" cx="0.5932375401346903" cy="0.9958013697055423" r="0.06749469519368972">
      <stop offset="0.8656929" stop-color="rgb(52, 13, 0)" stop-opacity="0.9433625936508179"/>
      <stop offset="1.0" stop-color="rgb(17, 23, 5)" stop-opacity="0.16053947806358337"/>
    </radialGradient>
    <radialGradient id="shape_68_fill" cx="0.4879490883484792" cy="0.9965761466945768" r="0.06724720963384702">
      <stop offset="0.46600306" stop-color="rgb(48, 37, 26)" stop-opacity="0.7645090818405151"/>
      <stop offset="1.0" stop-color="rgb(59, 77, 79)" stop-opacity="0.41223394870758057"/>
    </radialGradient>
  </defs>
  <g>
    <path d="M -0.28899645805358887 270.9765625 C 25.611234664916992 270.494140625 34.43902587890625 271.5514831542969 43.87616729736328 273.9290771484375 C 48.04594039916992 275.5902099609375 49.367130279541016 276.71917724609375 57.15924835205078 274.5434265136719 C 60.47953414916992 273.9330139160156 63.76392364501953 274.5945129394531 66.0497055053711 275.77655029296875 C 75.1026382446289 273.80780029296875 104.6871337890625 273.3641052246094 111.73929595947266 274.1013488769531 C 114.57500457763672 277.6114807128906 126.52658081054688 277.2474060058594 127.85485076904297 280.5693054199219 C 134.4185791015625 281.76922607421875 140.91119384765625 281.0262756347656 149.19837951660156 281.7349853515625 C 185.2623291015625 281.7548522949219 185.75326538085938 282.532958984375 203.56227111816406 283.7352294921875 C 200.77072143554688 290.9947509765625 199.9469757080078 283.65521240234375 218.57455444335938 278.51861572265625 C 237.37371826171875 279.9261474609375 280.1308898925781 279.2535095214844 303.9740905761719 284.6863708496094 C 336.6514587402344 286.5294494628906 416.72064208984375 286.0316162109375 456.6678771972656 283.8153381347656 C 482.4613952636719 283.5766906738281 531.5933837890625 285.30950927734375 540.4738159179688 287.0491027832031 C 549.357177734375 287.0518493652344 550.9317626953125 283.7703857421875 560.8831787109375 282.8392028808594 C 570.5404663085938 286.2635498046875 609.3854370117188 286.66278076171875 615.6399536132812 287.1128234863281 C 639.0645751953125 282.928955078125 649.0762329101562 283.53619384765625 659.1696166992188 283.4930419921875 C 663.8718872070312 284.5550231933594 669.5650634765625 289.1311340332031 671.999755859375 292.19964599609375 C 673.984375 340.8045654296875 673.5751342773438 392.63201904296875 673.7842407226562 445.4206237792969 C 451.45745849609375 445.47845458984375 229.1723175048828 445.4985656738281 0.18775247037410736 445.5022277832031 C -0.35329821705818176 389.1174011230469 0.2888932228088379 332.3553161621094 -0.28899645805358887 270.9765625" stroke-width="0.0" fill="url(#shape_0_fill)"/>
    <path d="M 0.002611256670206785 272.6059265136719 C 35.933258056640625 275.4010314941406 36.55719757080078 274.5924987792969 44.44785690307617 276.642333984375 C 56.746337890625 276.32110595703125 68.35466766357422 275.1828918457031 76.98965454101562 275.728515625 C 113.39904022216797 278.6836242675781 113.99103546142578 279.3121337890625 126.03077697753906 280.711669921875 C 130.67498779296875 280.2119445800781 154.9676055908203 280.2740783691406 158.18389892578125 279.37908935546875 C 185.0271759033203 278.4987487792969 185.5619659423828 280.225341796875 198.49928283691406 282.0752258300781 C 202.28753662109375 290.6354675292969 204.24037170410156 289.94232177734375 219.5649871826172 288.0088195800781 C 226.79119873046875 286.87353515625 279.0291442871094 288.4291687011719 299.8805847167969 289.3462219238281 C 328.7137756347656 291.1024169921875 443.22930908203125 288.89483642578125 448.63555908203125 289.199951171875 C 468.9208679199219 288.4659729003906 485.3459167480469 288.9584045410156 503.3096008300781 286.3597412109375 C 508.3873596191406 286.88568115234375 516.2329711914062 285.8363037109375 522.8067626953125 286.3905334472656 C 527.5307006835938 285.6699523925781 531.8892211914062 285.865234375 535.1531982421875 286.9911804199219 C 544.02783203125 286.62408447265625 551.6953735351562 287.7063903808594 560.3032836914062 288.9757385253906 C 569.4906005859375 286.8344421386719 579.48388671875 287.5193176269531 587.27197265625 288.7821960449219 C 604.2178344726562 288.4437255859375 618.3895263671875 287.7628479003906 632.2059936523438 288.2786865234375 C 646.3020629882812 284.37603759765625 659.0636596679688 287.4037780761719 674.26904296875 288.8367614746094 C 673.8129272460938 340.8739013671875 674.4092407226562 392.30413818359375 674.1441040039062 446.28076171875 C 451.4774169921875 446.390380859375 229.19664001464844 446.2542724609375 -0.3074403703212738 446.2475280761719 C -0.2133559137582779 389.4035949707031 -0.2928585410118103 333.0300598144531 0.002611256670206785 272.6059265136719" stroke-width="0.0" fill="url(#shape_1_fill)"/>
    <path d="M -0.20527473092079163 -0.2597278356552124 C 219.6931610107422 0.10345960408449173 439.4784851074219 -0.4507337808609009 669.5353393554688 -0.38291358947753906 C 661.688720703125 7.304593563079834 644.9424438476562 35.71837615966797 637.74560546875 47.6287956237793 C 636.506591796875 54.31968688964844 611.6500854492188 93.95878601074219 584.94873046875 84.10628509521484 C 577.9000244140625 81.53011322021484 558.4500122070312 70.5165786743164 531.0797729492188 71.66507720947266 C 530.5016479492188 73.1316146850586 525.9976196289062 75.65025329589844 523.222900390625 71.17798614501953 C 522.8641967773438 68.03297424316406 502.095947265625 61.3223762512207 501.0203552246094 61.833919525146484 C 491.9979248046875 61.83797836303711 484.9780578613281 60.51772689819336 479.8502502441406 68.35055541992188 C 474.37738037109375 69.24381256103516 474.69061279296875 73.39344024658203 473.8986511230469 76.72687530517578 C 475.8847961425781 89.35608673095703 466.0042419433594 105.50798034667969 461.828369140625 110.1834945678711 C 457.16131591796875 111.9891357421875 452.627197265625 110.35662841796875 450.34405517578125 109.54521942138672 C 437.8447265625 105.61763763427734 411.16925048828125 102.78423309326172 410.3897705078125 105.06267547607422 C 404.8529052734375 114.73152923583984 404.7716369628906 119.18413543701172 401.4059143066406 125.46063995361328 C 399.5619812011719 133.83607482910156 392.519287109375 136.97927856445312 388.60260009765625 137.615478515625 C 378.016357421875 140.25927734375 375.9500427246094 157.77322387695312 374.71124267578125 161.00106811523438 C 374.16790771484375 166.8502655029297 372.982421875 170.9521942138672 369.5141296386719 175.517578125 C 367.4322814941406 177.8633270263672 364.1296081542969 176.9627685546875 353.3681335449219 181.83673095703125 C 347.0353698730469 189.4805908203125 336.44061279296875 180.79351806640625 324.22186279296875 178.78147888183594 C 312.37640380859375 179.2737579345703 311.7762145996094 185.66552734375 310.0777282714844 188.2498321533203 C 309.1866149902344 192.89085388183594 307.23492431640625 195.1477813720703 307.8082275390625 201.4320831298828 C 307.154541015625 201.14218139648438 304.0189514160156 199.53924560546875 303.27911376953125 195.69290161132812 C 300.3623352050781 192.70877075195312 296.36224365234375 193.9329833984375 290.8573303222656 189.75064086914062 C 292.0386657714844 193.80873107910156 290.2282409667969 196.5202178955078 288.9749450683594 196.58924865722656 C 283.3423156738281 194.28395080566406 281.71136474609375 189.4558563232422 281.16644287109375 188.93995666503906 C 274.6214904785156 189.51605224609375 272.4553527832031 191.2754669189453 268.4756774902344 189.67909240722656 C 261.951416015625 189.25672912597656 261.200927734375 194.83987426757812 260.3218688964844 197.71914672851562 C 261.05712890625 199.2417755126953 260.77117919921875 200.81446838378906 257.5526428222656 201.03634643554688 C 257.08428955078125 201.03961181640625 251.20863342285156 200.49703979492188 250.6973114013672 198.209228515625 C 248.63706970214844 192.80906677246094 249.44869995117188 191.00750732421875 246.0355682373047 179.237548828125 C 250.1266632080078 173.13809204101562 216.15966796875 141.91697692871094 214.22152709960938 139.7100372314453 C 184.4710693359375 121.11678314208984 195.3268280029297 99.5703353881836 192.6049346923828 89.153076171875 C 193.91119384765625 83.81682586669922 157.2050018310547 72.22758483886719 144.08828735351562 65.94537353515625 C 121.0143814086914 40.14870834350586 64.85722351074219 52.3144645690918 37.342140197753906 62.3897705078125 C 15.768689155578613 69.8985366821289 12.32444953918457 68.45099639892578 -0.32084405422210693 69.22139739990234 C 0.3384951949119568 43.98908996582031 -0.33321359753608704 22.57121467590332 -0.20527473092079163 -0.2597278356552124" stroke-width="0.0" fill="url(#shape_2_fill)"/>
    <path d="M 86.19306182861328 68.35447692871094 C 88.3588638305664 69.50640106201172 92.497802734375 68.62932586669922 93.69776153564453 69.02086639404297 C 90.2451400756836 76.74339294433594 91.55469512939453 81.82038879394531 91.65458679199219 84.36542510986328 C 96.59883117675781 82.81434631347656 97.8993148803711 85.09341430664062 103.42131042480469 85.72319793701172 C 103.11669921875 77.18951416015625 105.41063690185547 75.88593292236328 109.6358871459961 77.27735900878906 C 111.53410339355469 87.77654266357422 112.22158813476562 94.42610168457031 115.68852233886719 99.55496215820312 C 116.70646667480469 100.08321380615234 116.76336669921875 108.49565887451172 115.28034210205078 115.33787536621094 C 124.00662231445312 113.89027404785156 128.70152282714844 114.14592742919922 129.32984924316406 111.19495391845703 C 129.1576385498047 107.50114440917969 136.3435821533203 106.49739837646484 136.42173767089844 104.43861389160156 C 136.5951690673828 103.69470977783203 135.5283966064453 101.79385375976562 136.99261474609375 97.98353576660156 C 136.44776916503906 93.25276947021484 137.46310424804688 92.87215423583984 137.09486389160156 88.91484832763672 C 137.26866149902344 84.85425567626953 138.6123504638672 84.72355651855469 139.01651000976562 85.61446380615234 C 139.6461181640625 82.02223205566406 146.60523986816406 80.7175521850586 147.87158203125 83.76288604736328 C 146.76437377929688 87.40825653076172 150.9755401611328 95.57141876220703 152.12953186035156 98.98046875 C 153.46995544433594 103.06864166259766 149.9237060546875 106.8970947265625 148.82708740234375 106.65811157226562 C 152.8568572998047 110.01612854003906 150.7770538330078 114.22476959228516 148.68243408203125 113.48636627197266 C 155.12730407714844 112.6395263671875 158.39186096191406 122.5003433227539 158.20639038085938 123.02645874023438 C 162.0194091796875 124.67473602294922 164.81546020507812 123.32356262207031 170.02542114257812 123.06238555908203 C 175.0951385498047 119.33029174804688 175.15615844726562 121.63871765136719 177.51539611816406 122.54371643066406 C 179.31094360351562 122.68082427978516 179.86830139160156 125.59434509277344 182.56512451171875 127.83706665039062 C 183.84683227539062 130.228271484375 182.39117431640625 133.14971923828125 183.2201385498047 135.75076293945312 C 185.9959259033203 135.7584686279297 187.59886169433594 143.0958251953125 188.7410888671875 145.08499145507812 C 192.2495880126953 146.2651824951172 203.9887237548828 158.4325408935547 203.33509826660156 172.4359893798828 C 205.64059448242188 173.75636291503906 204.9556427001953 177.7811279296875 205.12660217285156 183.1372528076172 C 209.9580078125 182.08212280273438 214.7941131591797 200.54222106933594 210.84701538085938 202.58534240722656 C 208.87945556640625 207.2559814453125 203.420166015625 208.12330627441406 203.14060974121094 210.299072265625 C 200.80393981933594 210.53797912597656 199.9165496826172 211.68971252441406 200.29795837402344 213.6509552001953 C 196.12442016601562 215.4906005859375 193.52488708496094 215.20156860351562 191.73797607421875 219.6058807373047 C 184.2877960205078 221.11683654785156 183.60304260253906 224.8004150390625 179.0422821044922 230.51815795898438 C 176.1642608642578 233.62689208984375 179.08251953125 240.0865936279297 179.58578491210938 242.85206604003906 C 179.095703125 250.12083435058594 183.7305145263672 258.1365051269531 176.45692443847656 264.09454345703125 C 174.008544921875 267.8879699707031 148.82566833496094 268.1750793457031 140.34646606445312 269.59356689453125 C 129.18582153320312 266.3692626953125 123.16400909423828 268.1341857910156 115.05677795410156 270.30096435546875 C 107.66920471191406 275.3811950683594 74.06098175048828 274.26788330078125 73.5567855834961 269.7368469238281 C 47.61262130737305 266.69769287109375 56.526580810546875 268.54296875 55.86083221435547 273.0365295410156 C 44.73167037963867 276.08636474609375 0.42286112904548645 273.83990478515625 0.427127867937088 270.8274230957031 C -1.5137025117874146 217.83509826660156 -0.8781424164772034 166.58126831054688 -2.4704225063323975 116.92868041992188 C 8.094727516174316 119.03463745117188 15.723576545715332 119.68900299072266 23.9952335357666 125.93267059326172 C 30.816177368164062 126.7781753540039 36.8694953918457 127.80805206298828 41.168846130371094 131.0470733642578 C 46.61675262451172 131.72706604003906 46.37013244628906 137.08282470703125 49.82762145996094 139.375732421875 C 50.8044319152832 143.10238647460938 61.88441467285156 144.38587951660156 62.53217697143555 142.36968994140625 C 62.03754806518555 136.6696319580078 63.01686477661133 133.81051635742188 62.8231315612793 126.5232925415039 C 67.75799560546875 124.50035858154297 66.7940902709961 121.20660400390625 64.9969482421875 112.37203979492188 C 67.35971069335938 110.9136962890625 67.86560821533203 104.95337677001953 75.52568054199219 104.66716766357422 C 75.32421875 103.27508544921875 76.6897201538086 91.3301773071289 75.31563568115234 85.24298095703125 C 78.06690216064453 84.17366790771484 79.31256866455078 73.46730041503906 85.36831665039062 73.70932006835938 C 82.89762878417969 70.1362533569336 84.84391784667969 67.64103698730469 86.19306182861328 68.35447692871094" stroke-width="0.0" fill="url(#shape_3_fill)"/>
    <path d="M 672.658447265625 0.4384852349758148 C 674.7219848632812 48.91542434692383 674.4417724609375 96.17391967773438 675.3008422851562 144.26048278808594 C 668.7403564453125 136.5157928466797 664.6410522460938 128.8256072998047 661.6838989257812 120.2815933227539 C 661.042724609375 119.81105041503906 655.2122802734375 109.1995620727539 649.4328002929688 110.89459991455078 C 648.3841552734375 112.49496459960938 643.4153442382812 146.41419982910156 640.4428100585938 152.70828247070312 C 632.8881225585938 153.94493103027344 627.5116577148438 140.98851013183594 627.90576171875 138.1328582763672 C 622.8297119140625 137.27268981933594 618.5130615234375 145.40940856933594 615.3193969726562 143.83676147460938 C 611.4998779296875 142.11328125 610.3047485351562 143.81031799316406 607.9808349609375 140.8527069091797 C 607.5689086914062 137.3938751220703 608.361083984375 133.3981170654297 603.808349609375 127.40956115722656 C 598.1087646484375 133.69444274902344 597.6229248046875 139.48175048828125 595.1729736328125 144.5382843017578 C 595.0912475585938 148.87037658691406 593.3805541992188 150.81396484375 593.8931274414062 154.00729370117188 C 590.6189575195312 158.73318481445312 588.865478515625 165.7204132080078 581.6456909179688 170.04417419433594 C 571.459228515625 170.0807342529297 569.6543579101562 160.5572052001953 568.964599609375 157.4674072265625 C 566.3748168945312 157.11585998535156 564.3099365234375 153.32518005371094 561.4094848632812 153.82492065429688 C 559.9898071289062 150.7730255126953 554.8425903320312 150.27525329589844 554.2085571289062 153.4007568359375 C 551.4725341796875 155.6374053955078 550.8515014648438 159.22067260742188 548.6751098632812 161.09617614746094 C 546.3076171875 158.6790771484375 541.7067260742188 160.66883850097656 535.8779907226562 154.51454162597656 C 531.6853637695312 154.64405822753906 529.8684692382812 157.7269287109375 524.1689453125 157.72845458984375 C 518.0096435546875 161.21881103515625 520.8677368164062 161.37367248535156 522.5786743164062 169.8428192138672 C 517.4841918945312 169.99411010742188 515.872314453125 164.90655517578125 516.5977783203125 171.43051147460938 C 510.1973876953125 173.3648681640625 511.49029541015625 175.187744140625 505.6587829589844 174.34947204589844 C 503.1083984375 171.218994140625 502.93060302734375 169.64471435546875 503.5471496582031 166.8921661376953 C 498.8925476074219 150.80325317382812 512.8993530273438 126.65702056884766 522.4010620117188 129.2692108154297 C 523.658447265625 124.30480194091797 537.7999877929688 112.88604736328125 548.373291015625 112.71092987060547 C 558.3233032226562 110.40169525146484 556.1332397460938 109.70936584472656 556.1984252929688 105.80525207519531 C 562.1749877929688 106.96864318847656 566.5987548828125 104.38744354248047 571.8470458984375 105.3423080444336 C 574.7238159179688 102.81998443603516 573.4561157226562 97.51792907714844 578.9221801757812 94.12936401367188 C 580.1124877929688 87.60334014892578 601.0950927734375 78.96131134033203 613.0570678710938 78.67630767822266 C 615.65771484375 72.41865539550781 641.9385986328125 49.37177276611328 644.0084838867188 35.26384353637695 C 644.9500122070312 32.42426681518555 647.9833374023438 30.377283096313477 647.5946044921875 29.495113372802734 C 646.761962890625 28.238201141357422 663.4934692382812 -3.7612810134887695 672.658447265625 0.4384852349758148" stroke-width="0.0" fill="url(#shape_4_fill)"/>
    <path d="M 151.62088012695312 68.58444213867188 C 152.32693481445312 68.93402099609375 187.60470581054688 82.73422241210938 193.12782287597656 90.5470199584961 C 179.2471466064453 117.23435974121094 215.41873168945312 153.4218292236328 220.6314239501953 154.8931427001953 C 239.08265686035156 169.66004943847656 242.8806610107422 184.66329956054688 241.18875122070312 194.10935974121094 C 237.71275329589844 193.98773193359375 236.77354431152344 185.7809295654297 236.76026916503906 184.05650329589844 C 235.66481018066406 183.59466552734375 234.1656036376953 184.28240966796875 231.12142944335938 182.7408447265625 C 231.89166259765625 183.26388549804688 230.54974365234375 192.45516967773438 227.928466796875 195.9998016357422 C 227.87841796875 196.26153564453125 227.44754028320312 205.93856811523438 221.34817504882812 207.75906372070312 C 215.0315704345703 206.61256408691406 214.2545166015625 198.0379638671875 214.6509552001953 194.86093139648438 C 212.96023559570312 185.4321746826172 211.8987579345703 184.942626953125 206.3650665283203 177.5980987548828 C 204.4290008544922 172.03158569335938 205.8499755859375 165.5070037841797 205.77149963378906 159.74989318847656 C 206.14707946777344 153.85968017578125 196.08279418945312 143.48977661132812 192.62574768066406 141.75404357910156 C 189.033935546875 140.35421752929688 188.79234313964844 137.86453247070312 187.84921264648438 134.30299377441406 C 182.25350952148438 130.75637817382812 183.46485900878906 123.33572387695312 183.6101837158203 118.01667022705078 C 178.8865203857422 116.09038543701172 177.9369354248047 117.90327453613281 173.7250518798828 117.92501068115234 C 176.24551391601562 126.69544219970703 171.8800048828125 129.9081268310547 154.9537811279297 127.4529800415039 C 153.18565368652344 122.74535369873047 150.43002319335938 102.24987030029297 153.39710998535156 96.49542236328125 C 152.87808227539062 88.60381317138672 153.7294158935547 82.98655700683594 150.14434814453125 76.32581329345703 C 148.4792022705078 75.92694091796875 149.08741760253906 69.32775115966797 151.62088012695312 68.58444213867188" stroke-width="0.0" fill="url(#shape_5_fill)"/>
    <path d="M 613.2039184570312 83.4215316772461 C 618.5850830078125 84.19159698486328 619.6232299804688 85.85433959960938 630.775634765625 85.73993682861328 C 636.8518676757812 85.93342590332031 638.0446166992188 87.59571075439453 641.2575073242188 87.79104614257812 C 642.150390625 87.51007080078125 669.1609497070312 91.84756469726562 673.6555786132812 98.5102310180664 C 673.603759765625 112.51533508300781 673.1664428710938 128.75836181640625 673.528564453125 142.74612426757812 C 670.6005249023438 137.59547424316406 666.0322265625 133.27223205566406 661.5833129882812 127.77638244628906 C 660.4328002929688 121.39976501464844 660.5227661132812 115.73536682128906 653.361083984375 111.541015625 C 647.76611328125 116.63182830810547 645.0594482421875 142.3558807373047 642.0405883789062 143.2787628173828 C 643.4051513671875 145.84861755371094 641.8312377929688 148.98480224609375 640.6996459960938 148.94070434570312 C 639.6925659179688 150.9306640625 638.0888061523438 151.96336364746094 634.3031005859375 149.76739501953125 C 631.4887084960938 146.6625518798828 629.4921875 141.0948944091797 629.8085327148438 140.82504272460938 C 628.92138671875 138.0750274658203 623.8655395507812 137.06817626953125 620.8424072265625 138.5676727294922 C 618.2222900390625 140.5525665283203 619.2612915039062 142.35675048828125 618.759765625 144.1627960205078 C 614.51708984375 144.4803466796875 614.1527709960938 143.11880493164062 610.2445068359375 143.74484252929688 C 608.5573120117188 140.40513610839844 609.5990600585938 139.2462158203125 609.4418334960938 137.36817932128906 C 606.6153564453125 132.244873046875 604.7239379882812 126.51934051513672 597.2886962890625 127.94515228271484 C 599.9024658203125 136.2375946044922 594.38232421875 149.71954345703125 592.1515502929688 157.7098846435547 C 590.7659301757812 163.93922424316406 589.48779296875 164.2105712890625 585.6818237304688 167.77804565429688 C 582.4099731445312 168.86276245117188 579.3283081054688 168.12217712402344 576.2232055664062 166.82716369628906 C 573.0468139648438 165.41236877441406 572.2557373046875 160.99163818359375 571.1124267578125 157.80140686035156 C 568.2200927734375 154.57835388183594 556.738525390625 153.66526794433594 556.30615234375 151.21119689941406 C 555.8168334960938 152.8717803955078 553.0711059570312 154.70184326171875 552.8748168945312 157.7423095703125 C 549.98779296875 161.40626525878906 547.8815307617188 160.8670654296875 547.29541015625 159.87550354003906 C 542.2977905273438 159.0857391357422 539.3460693359375 157.53977966308594 536.1119995117188 157.02102661132812 C 534.8115844726562 158.134521484375 531.4168090820312 156.63473510742188 528.4917602539062 158.02951049804688 C 525.927490234375 159.10142517089844 526.149169921875 162.02308654785156 524.6520385742188 164.6422882080078 C 523.9043579101562 168.86343383789062 522.1475830078125 171.11061096191406 518.870849609375 173.00537109375 C 510.88238525390625 177.65487670898438 503.160888671875 173.40521240234375 501.320068359375 172.12258911132812 C 496.57025146484375 149.36676025390625 512.0062255859375 128.25001525878906 519.88720703125 125.30191040039062 C 526.0302734375 121.21637725830078 540.6565551757812 113.58574676513672 551.9677124023438 112.10208892822266 C 555.36572265625 109.8560791015625 559.9869384765625 109.71681213378906 563.724853515625 106.66093444824219 C 564.6375732421875 104.54642486572266 566.8705444335938 103.60807037353516 569.6865844726562 103.88091278076172 C 575.0020751953125 101.58181762695312 578.2855224609375 97.04399871826172 583.3591918945312 94.13107299804688 C 593.384033203125 86.7446060180664 601.7356567382812 80.42224884033203 613.2039184570312 83.4215316772461" stroke-width="0.0" fill="url(#shape_6_fill)"/>
    <path d="M 4.2955780029296875 118.16499328613281 C 25.589672088623047 125.04510498046875 36.347469329833984 129.56884765625 47.8964729309082 139.07058715820312 C 70.62443542480469 160.3706512451172 52.794158935546875 225.19052124023438 56.99699020385742 247.18943786621094 C 53.19825744628906 260.30487060546875 48.72475051879883 264.6826477050781 48.570106506347656 266.4275207519531 C 39.60670852661133 275.1283874511719 3.3039095401763916 271.2486877441406 0.7436091899871826 269.0406799316406 C 0.7522791624069214 218.65731811523438 0.7311906814575195 167.81639099121094 4.2955780029296875 118.16499328613281" stroke-width="0.0" fill="url(#shape_7_fill)"/>
    <path d="M 393.8377990722656 180.94932556152344 C 410.653076171875 173.88446044921875 426.55255126953125 191.7706298828125 432.2181396484375 209.59722900390625 C 467.8270263671875 197.93045043945312 490.5059814453125 212.07464599609375 491.608642578125 236.48086547851562 C 490.9847717285156 250.49032592773438 486.1582946777344 251.46206665039062 484.84637451171875 252.33676147460938 C 485.31634521484375 254.51312255859375 479.0793762207031 265.03521728515625 474.8370361328125 268.4605712890625 C 469.0429382324219 272.9308166503906 453.2209167480469 266.7112731933594 451.6357421875 269.65716552734375 C 446.9449462890625 266.2757568359375 448.2343444824219 261.25213623046875 448.9718017578125 260.1657409667969 C 439.26287841796875 264.70880126953125 436.48260498046875 261.3674621582031 437.4364929199219 256.91546630859375 C 428.3569030761719 257.12896728515625 426.6598815917969 259.5738525390625 421.2318115234375 262.24859619140625 C 418.5393371582031 264.26104736328125 417.50018310546875 267.5946960449219 414.8106994628906 269.89111328125 C 414.1481628417969 269.41680908203125 397.9189147949219 267.8152770996094 392.5899658203125 264.15185546875 C 391.8283386230469 265.0946960449219 389.04754638671875 263.3174743652344 386.0596008300781 263.5157165527344 C 382.11517333984375 261.93975830078125 380.8232116699219 263.17364501953125 376.697265625 260.9642639160156 C 375.11871337890625 256.2880554199219 376.2481384277344 252.4305419921875 372.94525146484375 249.0822296142578 C 360.2427978515625 244.13478088378906 376.4122009277344 198.02276611328125 378.9009094238281 182.8441162109375 C 383.8321228027344 171.86941528320312 395.4220275878906 176.10494995117188 393.8377990722656 180.94932556152344" stroke-width="0.0" fill="url(#shape_8_fill)"/>
    <path d="M 565.6243286132812 157.41729736328125 C 568.5924072265625 158.96371459960938 570.0345458984375 162.13247680664062 570.5157470703125 165.37217712402344 C 573.9140014648438 169.44932556152344 573.3954467773438 170.78062438964844 577.923583984375 174.5572967529297 C 582.3099975585938 172.63575744628906 583.6055908203125 174.96002197265625 583.5214233398438 179.92352294921875 C 575.425048828125 180.02793884277344 572.2567749023438 225.6205596923828 577.2761840820312 226.96484375 C 577.7842407226562 229.9037322998047 581.1190185546875 235.4496307373047 576.7186279296875 242.16769409179688 C 568.6270141601562 238.7555694580078 566.0868530273438 237.37301635742188 558.5875854492188 246.07943725585938 C 552.5288696289062 253.1756134033203 494.3689880371094 252.42291259765625 490.9433288574219 251.9884490966797 C 488.3326721191406 246.24415588378906 488.2573547363281 238.8819580078125 489.99847412109375 230.2449951171875 C 486.4544677734375 226.2272186279297 483.1953125 222.26914978027344 481.1412048339844 216.11741638183594 C 476.50537109375 209.8230438232422 479.1476745605469 205.76869201660156 482.644775390625 205.94940185546875 C 479.906494140625 205.31497192382812 480.83428955078125 197.9579315185547 484.4796142578125 197.51596069335938 C 491.8467102050781 196.18763732910156 491.8804016113281 192.5167694091797 493.8150634765625 188.30581665039062 C 493.7414855957031 174.26390075683594 496.3517150878906 173.64337158203125 496.8893737792969 172.04440307617188 C 503.5622863769531 170.6527099609375 505.53656005859375 173.6550750732422 519.7230834960938 171.05337524414062 C 524.1502075195312 171.23141479492188 524.5872802734375 168.4004669189453 526.6612548828125 165.7697296142578 C 525.8136596679688 161.29830932617188 530.1254272460938 156.42913818359375 533.3750610351562 158.66195678710938 C 537.6544799804688 161.82403564453125 541.4031982421875 162.44903564453125 542.2215576171875 163.92340087890625 C 545.2968139648438 164.01930236816406 546.0187377929688 165.65769958496094 549.3814086914062 166.34701538085938 C 548.7539672851562 165.63255310058594 551.4398803710938 157.18223571777344 555.7294311523438 156.95591735839844 C 558.8912353515625 155.80999755859375 562.421630859375 155.62496948242188 565.6243286132812 157.41729736328125" stroke-width="0.0" fill="url(#shape_9_fill)"/>
    <path d="M 561.5481567382812 156.06700134277344 C 567.8171997070312 154.35983276367188 571.0901489257812 159.7654266357422 571.9526977539062 166.6238555908203 C 572.955078125 170.5055389404297 575.2830200195312 171.40475463867188 578.6334838867188 176.4605255126953 C 579.509033203125 178.0265350341797 578.3341064453125 187.26708984375 577.2534790039062 191.58627319335938 C 571.3495483398438 196.8367919921875 571.9862670898438 230.05381774902344 578.0469360351562 230.9723663330078 C 576.0216064453125 231.0928497314453 575.6538696289062 236.83526611328125 572.0112915039062 238.0611114501953 C 559.5242309570312 236.125244140625 567.7527465820312 238.57907104492188 561.06103515625 247.27455139160156 C 555.1629638671875 251.5315704345703 501.2854309082031 248.94149780273438 500.1806335449219 251.4793701171875 C 491.1153564453125 251.7972869873047 487.9720458984375 236.87391662597656 489.7859802246094 230.26002502441406 C 486.62127685546875 224.93072509765625 481.9862976074219 219.27000427246094 481.5081481933594 216.14071655273438 C 475.27996826171875 214.69549560546875 475.7376708984375 212.7357635498047 475.3116455078125 204.2410888671875 C 475.0141906738281 201.16009521484375 481.1890869140625 198.12982177734375 482.2196044921875 197.38580322265625 C 490.77801513671875 196.16294860839844 494.56103515625 184.48333740234375 496.6445007324219 183.01956176757812 C 495.93707275390625 179.47593688964844 496.8507080078125 176.99996948242188 500.42913818359375 176.0979766845703 C 507.45135498046875 175.47296142578125 514.5723876953125 177.44834899902344 520.1253051757812 173.97412109375 C 523.97265625 173.3843536376953 526.9450073242188 159.3778533935547 532.1605224609375 158.6844482421875 C 536.9144287109375 157.86526489257812 538.7079467773438 161.60791015625 542.7922973632812 165.4006805419922 C 545.2415161132812 164.9969482421875 548.6862182617188 166.19754028320312 550.9756469726562 163.31044006347656 C 551.3694458007812 158.31439208984375 553.6497802734375 153.82626342773438 561.5481567382812 156.06700134277344" stroke-width="0.0" fill="url(#shape_10_fill)"/>
    <path d="M 449.6872253417969 108.04106903076172 C 454.06207275390625 109.12630462646484 456.34857177734375 112.2680892944336 460.53485107421875 113.69804382324219 C 463.5269775390625 116.80743408203125 468.98760986328125 117.41569519042969 472.3440246582031 119.63957977294922 C 488.3648376464844 124.5392837524414 488.8009338378906 125.25100708007812 491.775146484375 129.8289031982422 C 493.37957763671875 131.74749755859375 493.2254943847656 134.1498565673828 496.5127258300781 136.43641662597656 C 494.26654052734375 134.627197265625 492.4979553222656 136.21070861816406 487.92572021484375 135.10984802246094 C 484.2220764160156 133.52093505859375 482.47894287109375 135.1664581298828 479.18695068359375 134.61595153808594 C 474.6290588378906 135.87838745117188 471.4118957519531 134.2636260986328 468.2695617675781 134.35757446289062 C 465.31512451171875 133.49415588378906 460.0491638183594 133.50160217285156 457.10400390625 134.39768981933594 C 452.9918518066406 144.01109313964844 468.01031494140625 154.13983154296875 480.0273132324219 157.993896484375 C 476.1572570800781 176.6041717529297 475.3335876464844 177.15643310546875 469.64703369140625 180.6875 C 466.6598205566406 182.24197387695312 466.25811767578125 186.66738891601562 463.7010803222656 188.40879821777344 C 459.09722900390625 188.58103942871094 454.8514709472656 181.42967224121094 453.5506896972656 176.70912170410156 C 448.2668762207031 179.4061279296875 447.5206604003906 182.65896606445312 439.8986511230469 183.10003662109375 C 439.48858642578125 183.8563690185547 435.9779052734375 195.81947326660156 434.5140380859375 198.4096221923828 C 428.56561279296875 200.83489990234375 417.4937744140625 180.59776306152344 417.7319641113281 179.7060546875 C 416.9727783203125 179.5336151123047 401.9513244628906 175.5220947265625 399.37176513671875 167.0084228515625 C 392.7366943359375 168.1992645263672 386.0810546875 175.97779846191406 381.2645568847656 173.0442352294922 C 381.720458984375 164.66212463378906 384.0751953125 143.83018493652344 392.4879455566406 141.2054443359375 C 397.8978271484375 137.42955017089844 399.3624267578125 129.67440795898438 402.2185974121094 123.13975524902344 C 411.5601501464844 100.89360809326172 428.7865295410156 105.03203582763672 449.6872253417969 108.04106903076172" stroke-width="0.0" fill="url(#shape_11_fill)"/>
    <path d="M 602.509521484375 127.31448364257812 C 605.8881225585938 129.658203125 605.7862548828125 142.04025268554688 608.9584350585938 142.90635681152344 C 612.0501708984375 144.47959899902344 612.194580078125 147.74375915527344 614.7024536132812 151.5178680419922 C 618.7171020507812 149.80918884277344 618.8626708984375 141.7694854736328 620.6814575195312 140.45388793945312 C 624.248291015625 138.41763305664062 626.812744140625 137.81716918945312 628.3582763671875 140.13906860351562 C 627.7239990234375 142.1218719482422 629.4789428710938 144.58375549316406 629.7279052734375 147.6722412109375 C 632.3120727539062 149.8534393310547 631.5728759765625 151.04168701171875 635.9710693359375 153.8837890625 C 640.6934204101562 156.04098510742188 639.3602905273438 161.83773803710938 641.322021484375 171.4392547607422 C 637.3250122070312 183.6807403564453 639.0777587890625 194.2991180419922 639.6380615234375 206.37953186035156 C 642.17333984375 219.07864379882812 646.2236328125 232.00978088378906 642.8425903320312 246.65838623046875 C 622.5980224609375 248.57199096679688 608.1073608398438 246.5860595703125 578.9165649414062 249.43121337890625 C 575.1860961914062 242.172607421875 575.166259765625 229.035888671875 573.7554321289062 219.00758361816406 C 570.9429321289062 213.91371154785156 575.8899536132812 168.11550903320312 585.7179565429688 168.5752410888672 C 596.534912109375 162.51979064941406 597.5186767578125 142.20106506347656 598.7740478515625 141.6967315673828 C 595.6504516601562 138.51585388183594 597.1856079101562 136.7462158203125 602.509521484375 127.31448364257812" stroke-width="0.0" fill="url(#shape_12_fill)"/>
    <path d="M 405.27740478515625 178.2399139404297 C 421.7358093261719 175.78330993652344 435.9750671386719 210.53526306152344 429.40740966796875 217.5753936767578 C 419.96136474609375 231.29483032226562 423.7486877441406 240.2257537841797 426.3445739746094 247.78524780273438 C 429.73797607421875 261.6701965332031 419.6179504394531 264.3888244628906 414.92425537109375 266.8828125 C 404.88311767578125 270.4245910644531 395.3996887207031 270.0972595214844 390.7004699707031 269.4089050292969 C 385.0754699707031 264.24114990234375 382.8872375488281 264.9704284667969 381.27191162109375 262.70343017578125 C 377.635986328125 262.27056884765625 377.1029052734375 260.03839111328125 375.575439453125 258.3955078125 C 376.32281494140625 255.94204711914062 375.7200927734375 253.307373046875 374.5087890625 253.52072143554688 C 374.3394470214844 252.20840454101562 370.5256652832031 250.52728271484375 369.3023986816406 251.34503173828125 C 363.4287109375 241.77841186523438 365.7420654296875 225.61199951171875 367.8841857910156 221.022216796875 C 369.2435607910156 218.91094970703125 372.08245849609375 203.6399383544922 376.48052978515625 202.0111846923828 C 377.0772705078125 199.491455078125 378.7623291015625 181.64987182617188 383.9453125 179.62106323242188 C 391.93109130859375 175.1328582763672 392.4360046386719 175.70152282714844 405.27740478515625 178.2399139404297" stroke-width="0.0" fill="url(#shape_13_fill)"/>
    <path d="M 510.2759704589844 65.7730712890625 C 511.9075927734375 66.93366241455078 520.2025146484375 71.50543975830078 522.6927490234375 75.38095092773438 C 529.6197509765625 81.16582489013672 534.218017578125 81.4305419921875 536.3429565429688 90.08744812011719 C 539.5759887695312 90.70947265625 544.541015625 90.4178466796875 545.023681640625 91.15412139892578 C 545.5371704101562 92.7461929321289 556.0965576171875 97.05033874511719 560.9270629882812 95.86483001708984 C 563.7571411132812 97.62950134277344 567.4481201171875 97.43011474609375 568.6138305664062 99.68659210205078 C 567.1878051757812 105.76893615722656 554.512451171875 112.51728820800781 547.4837646484375 109.54012298583984 C 541.757080078125 112.15696716308594 539.400146484375 114.99752807617188 533.8651123046875 117.13812255859375 C 527.0634155273438 119.6672592163086 525.1392211914062 120.6544418334961 515.4739379882812 119.48619079589844 C 510.5391540527344 119.48612976074219 500.5346984863281 124.46998596191406 499.3346862792969 125.65465545654297 C 496.7139892578125 128.2457275390625 493.40264892578125 128.47186279296875 488.9792785644531 127.81055450439453 C 489.7233581542969 125.17573547363281 468.77288818359375 119.13764953613281 468.0480041503906 118.15061950683594 C 463.2959899902344 117.75645446777344 463.0898132324219 116.46253204345703 460.3563537597656 114.76753997802734 C 462.528564453125 108.56196594238281 465.2613525390625 102.93058776855469 471.613525390625 97.2745361328125 C 474.66973876953125 89.54959869384766 473.3297424316406 84.2596435546875 473.23931884765625 82.0406723022461 C 474.58502197265625 70.93314361572266 475.3408203125 70.38590240478516 478.3216552734375 66.41984558105469 C 479.07421875 64.24847412109375 482.70733642578125 64.22396087646484 484.6276550292969 62.76626968383789 C 493.19854736328125 63.39276123046875 501.2220153808594 63.47884750366211 510.2759704589844 65.7730712890625" stroke-width="0.0" fill="url(#shape_14_fill)"/>
    <path d="M 532.585693359375 159.10403442382812 C 543.7766723632812 162.91709899902344 544.0286254882812 163.90870666503906 546.817626953125 166.36375427246094 C 547.0487060546875 168.05726623535156 548.356201171875 170.27024841308594 544.4601440429688 182.20980834960938 C 543.0850219726562 189.8590087890625 539.7403564453125 232.59132385253906 538.927490234375 235.44119262695312 C 540.4708862304688 236.92417907714844 540.886962890625 250.18746948242188 514.3719482421875 253.03610229492188 C 503.10888671875 251.00381469726562 484.18157958984375 245.2819366455078 486.996826171875 230.8304443359375 C 476.6531677246094 218.45883178710938 477.4285583496094 204.6818084716797 485.0329895019531 199.40048217773438 C 487.1476135253906 197.20126342773438 488.9620361328125 197.9338836669922 490.7052307128906 197.06712341308594 C 488.9792785644531 190.49974060058594 490.7190856933594 180.98696899414062 492.18621826171875 178.29563903808594 C 494.42327880859375 176.8004608154297 496.9881286621094 174.72828674316406 501.6808776855469 175.46987915039062 C 507.2995910644531 175.66038513183594 511.571533203125 179.53057861328125 522.656494140625 172.5620574951172 C 525.54345703125 170.95562744140625 525.5360717773438 167.30043029785156 526.9555053710938 165.09573364257812 C 527.5827026367188 161.67813110351562 530.9028930664062 160.51995849609375 532.585693359375 159.10403442382812" stroke-width="0.0" fill="url(#shape_15_fill)"/>
    <path d="M 651.0905151367188 112.16309356689453 C 657.0418090820312 109.85301208496094 663.828125 121.2471694946289 662.3595581054688 126.6225814819336 C 665.47314453125 133.3385772705078 666.0321044921875 139.603759765625 673.4815673828125 148.80062866210938 C 675.923095703125 179.5297393798828 673.9981079101562 212.24209594726562 673.9492797851562 249.98394775390625 C 671.3681030273438 247.4514617919922 650.3525390625 254.7820281982422 641.5149536132812 246.05990600585938 C 636.0481567382812 241.96705627441406 637.5662231445312 119.75082397460938 651.0905151367188 112.16309356689453" stroke-width="0.0" fill="url(#shape_16_fill)"/>
    <path d="M 600.0300903320312 129.6892852783203 C 603.4646606445312 127.50716400146484 608.3477783203125 131.43052673339844 606.974609375 133.9391326904297 C 608.3950805664062 135.06356811523438 608.4486083984375 139.0493621826172 610.3154296875 146.1868133544922 C 622.7172241210938 139.54379272460938 621.7275390625 232.1622314453125 616.7586059570312 244.49322509765625 C 596.2427978515625 252.75790405273438 577.7440795898438 246.53094482421875 580.4354858398438 235.92140197753906 C 564.3175048828125 226.9406280517578 595.2789916992188 152.21844482421875 600.0300903320312 129.6892852783203" stroke-width="0.0" fill="url(#shape_17_fill)"/>
    <path d="M 321.2457275390625 186.16390991210938 C 322.7768859863281 185.8854217529297 324.3994140625 188.0831298828125 327.1296081542969 189.5634765625 C 332.1183166503906 189.5667724609375 336.9971923828125 189.03012084960938 339.7696838378906 190.962158203125 C 342.05279541015625 196.31004333496094 347.55181884765625 195.2022705078125 353.67926025390625 194.99124145507812 C 356.9180908203125 195.14779663085938 357.8617858886719 198.55406188964844 358.8688049316406 200.69676208496094 C 359.895263671875 203.6791229248047 362.0818176269531 203.72348022460938 363.28656005859375 206.13528442382812 C 367.25579833984375 206.94525146484375 368.4804382324219 208.2038116455078 368.3869934082031 211.80999755859375 C 370.7159118652344 217.80043029785156 370.4193420410156 223.1816864013672 366.56390380859375 225.73098754882812 C 366.8548278808594 231.49673461914062 365.3993835449219 235.23545837402344 366.987060546875 242.02032470703125 C 367.367919921875 247.2104034423828 364.5346374511719 255.45062255859375 355.872802734375 254.76063537597656 C 353.2835388183594 255.15853881835938 330.8741455078125 254.92572021484375 324.1006774902344 254.5076141357422 C 313.5344543457031 255.53530883789062 312.3042297363281 253.26412963867188 311.7725830078125 239.03187561035156 C 306.9261474609375 230.36502075195312 319.0199890136719 191.68759155273438 321.2457275390625 186.16390991210938" stroke-width="0.0" fill="url(#shape_18_fill)"/>
    <path d="M 479.5711669921875 217.5526123046875 C 491.0943603515625 243.3699188232422 496.6601867675781 250.05638122558594 479.4412841796875 268.6918029785156 C 470.1864929199219 278.0604553222656 444.0094299316406 261.33843994140625 442.1441650390625 261.6593322753906 C 438.6379699707031 260.63372802734375 437.1810302734375 258.1406555175781 432.5962219238281 257.92626953125 C 429.65264892578125 258.1946716308594 427.6404113769531 257.7164001464844 426.5616455078125 254.348876953125 C 421.39813232421875 245.48321533203125 419.9328918457031 236.42430114746094 422.476318359375 228.50421142578125 C 424.0629577636719 224.3979034423828 420.9541015625 228.85977172851562 421.664794921875 225.7357635498047 C 427.68328857421875 219.4302978515625 429.66448974609375 218.7665557861328 429.6087341308594 215.75880432128906 C 438.2846374511719 200.34524536132812 464.73687744140625 204.99911499023438 479.5711669921875 217.5526123046875" stroke-width="0.0" fill="url(#shape_19_fill)"/>
    <path d="M 673.879638671875 -1.9672174453735352 C 674.8561401367188 33.04507827758789 674.548095703125 64.78512573242188 674.2761840820312 97.00668334960938 C 668.648681640625 96.80320739746094 651.8814697265625 86.13640594482422 642.7783813476562 91.00053405761719 C 638.6802368164062 89.60636901855469 638.2736206054688 85.7760238647461 637.9622802734375 84.67466735839844 C 629.5562133789062 85.9498519897461 620.8245239257812 90.42061614990234 609.9383544921875 84.25978088378906 C 611.2734375 78.90280151367188 614.348388671875 75.9214096069336 615.0910034179688 72.28365325927734 C 624.8893432617188 71.75640106201172 651.3324584960938 27.332481384277344 649.0675048828125 22.016338348388672 C 656.7484130859375 15.608931541442871 656.462158203125 4.512729167938232 667.801025390625 4.226792335510254 C 669.7699584960938 2.639477491378784 670.266845703125 1.251505970954895 673.879638671875 -1.9672174453735352" stroke-width="0.0" fill="url(#shape_20_fill)"/>
    <path d="M 562.0779418945312 156.0228271484375 C 569.6846923828125 156.8038787841797 569.5719604492188 164.5215301513672 572.454345703125 166.35350036621094 C 584.9959106445312 167.3935089111328 574.6927490234375 231.0915985107422 575.756591796875 239.38392639160156 C 571.5228881835938 240.99826049804688 567.22900390625 243.57498168945312 565.9003295898438 246.84303283691406 C 558.129638671875 249.70993041992188 542.9619750976562 251.3748016357422 540.1245727539062 246.2724609375 C 544.5529174804688 244.7204132080078 540.2796020507812 162.359619140625 554.7723999023438 157.5692901611328 C 556.24951171875 153.3584442138672 558.4268188476562 153.48526000976562 562.0779418945312 156.0228271484375" stroke-width="0.0" fill="url(#shape_21_fill)"/>
    <path d="M 217.06829833984375 212.2918701171875 C 225.48533630371094 218.67076110839844 226.0718994140625 250.701904296875 218.2156982421875 254.62359619140625 C 210.81674194335938 262.553955078125 208.0922088623047 263.8599853515625 205.44952392578125 272.29254150390625 C 205.3758544921875 276.01226806640625 206.6164093017578 276.2120056152344 206.89114379882812 280.12005615234375 C 207.066162109375 283.2276306152344 204.1873016357422 285.1285705566406 200.7131805419922 284.71942138671875 C 201.53289794921875 283.3063659667969 196.27127075195312 266.3985900878906 188.59597778320312 263.8041076660156 C 186.7275848388672 260.74420166015625 184.53094482421875 261.7479553222656 181.33168029785156 260.8891296386719 C 180.88851928710938 260.6116943359375 178.84693908691406 260.7872619628906 177.55136108398438 255.9598388671875 C 180.41627502441406 249.010498046875 169.6966552734375 242.12994384765625 170.44654846191406 236.8098907470703 C 175.99703979492188 217.4408721923828 181.71994018554688 216.75791931152344 187.2080535888672 221.20361328125 C 194.10032653808594 217.9372100830078 193.57452392578125 215.64852905273438 195.4652099609375 212.5514373779297 C 194.98631286621094 206.20599365234375 194.9320068359375 204.28640747070312 201.34107971191406 203.11325073242188 C 210.7567596435547 202.88516235351562 214.55455017089844 204.4896697998047 217.06829833984375 212.2918701171875" stroke-width="0.0" fill="url(#shape_22_fill)"/>
    <path d="M 111.518310546875 426.42291259765625 C 112.71954345703125 429.2739562988281 110.99344635009766 431.181396484375 110.67451477050781 431.7030334472656 C 106.58531951904297 435.8797302246094 102.2489242553711 436.5338439941406 92.0736312866211 433.1741638183594 C 88.86815643310547 437.9555358886719 97.51033782958984 447.65032958984375 89.33795928955078 450.2581787109375 C 78.6800537109375 445.01025390625 46.91163635253906 447.9090270996094 24.9693660736084 449.6147766113281 C 13.961922645568848 446.29925537109375 13.908807754516602 439.8058166503906 17.716306686401367 436.7778625488281 C 34.8644905090332 428.9715270996094 51.25062942504883 426.48736572265625 70.30315399169922 425.52923583984375 C 75.7173843383789 425.2977600097656 107.55095672607422 417.5892333984375 111.518310546875 426.42291259765625" stroke-width="0.0" fill="url(#shape_23_fill)"/>
    <path d="M 195.45089721679688 123.77073669433594 C 200.65179443359375 123.8322982788086 210.75914001464844 143.5125274658203 213.2282257080078 145.4989013671875 C 215.4389190673828 148.3142852783203 218.45701599121094 149.76925659179688 219.68751525878906 153.70892333984375 C 227.292724609375 157.63197326660156 249.23605346679688 180.442138671875 244.44970703125 199.67864990234375 C 239.02505493164062 199.61077880859375 235.38729858398438 187.4817352294922 234.58241271972656 183.23223876953125 C 232.73028564453125 184.55690002441406 231.31236267089844 193.68344116210938 230.14854431152344 196.1425018310547 C 226.8436737060547 200.28346252441406 226.22654724121094 202.60711669921875 220.9883575439453 208.31752014160156 C 215.1970672607422 207.60816955566406 213.73513793945312 199.8894500732422 214.62997436523438 195.8506622314453 C 212.72413635253906 189.49932861328125 212.68727111816406 182.7947540283203 207.27023315429688 178.30149841308594 C 204.05084228515625 174.0250244140625 205.16751098632812 173.0389862060547 205.21255493164062 166.3675079345703 C 204.79013061523438 151.5224151611328 200.1466064453125 148.8602752685547 193.4541778564453 144.09124755859375 C 188.8222198486328 140.792724609375 190.09571838378906 127.65049743652344 195.45089721679688 123.77073669433594" stroke-width="0.0" fill="url(#shape_24_fill)"/>
    <path d="M 594.61669921875 413.6269226074219 C 597.1174926757812 415.5037536621094 624.7521362304688 412.4341125488281 627.7197875976562 418.9449462890625 C 628.4148559570312 420.8099670410156 625.8219604492188 424.9240417480469 627.4609375 427.8207702636719 C 629.0307006835938 430.2557678222656 632.2652587890625 430.39617919921875 633.8992309570312 435.8868103027344 C 615.5454711914062 446.6498107910156 578.9868774414062 439.76361083984375 578.0833129882812 430.9704284667969 C 571.1629638671875 423.0387878417969 574.2367553710938 417.285888671875 575.0601806640625 414.661376953125 C 580.482177734375 410.3622131347656 587.1942749023438 412.3912658691406 594.61669921875 413.6269226074219" stroke-width="0.0" fill="url(#shape_25_fill)"/>
    <path d="M 142.92279052734375 66.6907958984375 C 144.0836944580078 68.92874145507812 149.1695098876953 68.47474670410156 149.6298828125 69.13667297363281 C 148.9099884033203 70.90292358398438 150.45782470703125 71.8258056640625 149.7851104736328 73.8568115234375 C 151.0099334716797 74.45294189453125 150.49330139160156 78.10145568847656 151.52731323242188 82.75369262695312 C 152.3383026123047 89.9908676147461 152.0928497314453 97.96503448486328 154.05323791503906 104.06553649902344 C 153.55238342285156 107.61634826660156 155.12692260742188 108.51913452148438 154.77037048339844 111.74728393554688 C 158.11660766601562 123.00595092773438 155.12481689453125 133.5484619140625 150.13294982910156 133.50205993652344 C 141.16748046875 128.90518188476562 134.6365966796875 123.03117370605469 125.56375122070312 117.36384582519531 C 122.50967407226562 114.3456039428711 124.66939544677734 109.75228118896484 126.92829132080078 107.1607437133789 C 128.836181640625 106.85469818115234 128.87857055664062 105.28353881835938 132.63101196289062 104.63343048095703 C 139.16952514648438 96.47077178955078 135.07786560058594 92.93537139892578 133.35560607910156 90.30984497070312 C 134.21397399902344 88.90396118164062 139.27203369140625 87.08978271484375 140.0470428466797 85.31128692626953 C 138.14828491210938 84.75149536132812 138.86148071289062 77.64344787597656 139.478515625 77.44856262207031 C 143.49168395996094 76.59040069580078 142.6530303955078 70.22594451904297 142.92279052734375 66.6907958984375" stroke-width="0.0" fill="url(#shape_26_fill)"/>
    <path d="M 144.5030059814453 67.70684051513672 C 149.27609252929688 68.24146270751953 150.19786071777344 70.787353515625 148.70745849609375 75.64502716064453 C 151.931640625 76.76403045654297 151.52232360839844 79.62406158447266 154.07669067382812 81.89313507080078 C 151.6119384765625 87.95462799072266 152.55209350585938 95.33605194091797 153.07154846191406 104.24553680419922 C 154.41258239746094 105.08177947998047 153.56842041015625 108.79239654541016 154.98387145996094 111.95170593261719 C 154.18728637695312 117.7147216796875 155.93142700195312 122.23523712158203 155.08924865722656 126.11577606201172 C 152.68312072753906 132.0530548095703 151.3629608154297 133.17527770996094 147.43621826171875 133.3649139404297 C 139.60997009277344 134.14027404785156 127.24678039550781 122.2522201538086 125.24238586425781 121.71732330322266 C 122.23621368408203 119.23255157470703 120.86209106445312 113.86568450927734 128.5181121826172 110.52102661132812 C 124.11563110351562 108.78395080566406 124.24178314208984 106.17578125 131.45848083496094 105.73473358154297 C 135.51927185058594 105.28790283203125 134.7207794189453 91.75051879882812 135.13121032714844 89.61632537841797 C 139.29605102539062 87.09005737304688 138.38128662109375 84.57643127441406 138.2880859375 81.68805694580078 C 139.078857421875 77.49034881591797 140.3610076904297 76.77641296386719 141.63070678710938 76.5306396484375 C 144.99188232421875 71.60025024414062 143.53977966308594 68.74108123779297 144.5030059814453 67.70684051513672" stroke-width="0.0" fill="url(#shape_27_fill)"/>
    <path d="M -0.31808996200561523 -0.2701922357082367 C 4.697104454040527 0.3800496757030487 9.643465042114258 -0.524020791053772 16.77056121826172 -0.42570725083351135 C 19.413480758666992 0.20036128163337708 19.20821189880371 11.145590782165527 31.700597763061523 18.53171730041504 C 29.39348030090332 25.015886306762695 27.196435928344727 25.160947799682617 27.005104064941406 27.51673698425293 C 33.09543228149414 31.615854263305664 39.7213249206543 32.457427978515625 41.472137451171875 38.29695129394531 C 36.550323486328125 39.09183120727539 33.59530258178711 38.679691314697266 31.4826602935791 35.45578384399414 C 26.35543441772461 31.141155242919922 17.62290382385254 33.18374252319336 10.484710693359375 33.445220947265625 C 9.091458320617676 37.13468933105469 12.568614959716797 40.23243713378906 12.861266136169434 41.5671501159668 C 13.644556045532227 42.07250213623047 14.149006843566895 47.05244064331055 18.062063217163086 47.95133972167969 C 20.056333541870117 51.07581329345703 18.74246597290039 52.30887222290039 19.76308250427246 56.982078552246094 C 18.41366958618164 60.4827766418457 10.832358360290527 61.5561408996582 8.909756660461426 61.1544303894043 C 5.498236179351807 60.88198471069336 3.533268928527832 59.14212417602539 0.3252932131290436 59.433868408203125 C -0.3174188435077667 39.778018951416016 -0.3247121274471283 19.62868309020996 -0.31808996200561523 -0.2701922357082367" stroke-width="0.0" fill="url(#shape_28_fill)"/>
    <path d="M 298.41790771484375 196.98422241210938 C 297.0987243652344 199.1107177734375 299.2178955078125 202.3223419189453 300.8843994140625 206.86683654785156 C 301.34259033203125 208.9355010986328 318.6617736816406 232.8861083984375 312.6642761230469 251.30857849121094 C 310.0602111816406 251.31500244140625 309.60723876953125 254.44277954101562 307.03631591796875 256.20404052734375 C 299.61175537109375 258.1670227050781 294.78948974609375 258.20111083984375 283.919189453125 257.30560302734375 C 283.3189697265625 233.08999633789062 286.0691833496094 213.1071319580078 298.41790771484375 196.98422241210938" stroke-width="0.0" fill="url(#shape_29_fill)"/>
    <path d="M -0.4518149793148041 0.1480264961719513 C 4.434512138366699 0.4519684910774231 9.532230377197266 -0.41481196880340576 14.508928298950195 0.14261873066425323 C 15.684770584106445 0.49782997369766235 16.118513107299805 5.595902919769287 16.103654861450195 8.073782920837402 C 18.98442268371582 10.75333309173584 22.229534149169922 18.717519760131836 26.495956420898438 21.19696617126465 C 27.438589096069336 22.15404510498047 24.564802169799805 26.641963958740234 23.99964141845703 31.26154899597168 C 21.119407653808594 33.0305061340332 15.919669151306152 32.7199821472168 7.587109565734863 34.55982971191406 C 9.436381340026855 35.57679748535156 8.686896324157715 38.26096725463867 11.472587585449219 40.37421798706055 C 12.092297554016113 43.82480239868164 11.420455932617188 49.6496696472168 14.30893325805664 51.79203414916992 C 17.37962532043457 52.49848937988281 18.61239242553711 54.23571014404297 17.70977783203125 56.95207214355469 C 12.018782615661621 59.35258483886719 7.093217372894287 60.183563232421875 0.23195187747478485 61.22962951660156 C -0.409639447927475 39.94680404663086 -0.35404762625694275 19.75245475769043 -0.4518149793148041 0.1480264961719513" stroke-width="0.0" fill="url(#shape_30_fill)"/>
    <path d="M 544.3849487304688 72.31867980957031 C 548.86572265625 71.7637939453125 581.4511108398438 84.9046859741211 584.976806640625 87.49250030517578 C 581.293701171875 92.59986114501953 578.8168334960938 93.03885650634766 577.2891235351562 98.26071166992188 C 573.2406005859375 100.7237777709961 572.1380615234375 99.98751831054688 569.3214111328125 97.6308364868164 C 567.0628051757812 95.8228988647461 545.1744995117188 92.91681671142578 538.5181274414062 88.50630187988281 C 538.5808715820312 85.48751068115234 537.47265625 83.35809326171875 535.5684814453125 82.6147689819336 C 534.93212890625 79.32057189941406 531.020263671875 78.96194458007812 527.263427734375 77.95508575439453 C 525.33935546875 75.88372039794922 527.8780517578125 70.8733901977539 531.4724731445312 69.53777313232422 C 535.93603515625 66.7852554321289 540.4996948242188 68.65596008300781 544.3849487304688 72.31867980957031" stroke-width="0.0" fill="url(#shape_31_fill)"/>
    <path d="M 448.4100341796875 263.9630126953125 C 450.66302490234375 265.2671813964844 451.337158203125 266.68951416015625 456.0235290527344 267.6412658691406 C 460.8731994628906 267.3841552734375 465.8165283203125 269.8020935058594 469.903564453125 273.30352783203125 C 470.4381408691406 275.63446044921875 471.8221130371094 276.8905029296875 471.67578125 280.7151184082031 C 448.7247619628906 289.15289306640625 427.091552734375 286.5390930175781 416.0433349609375 284.6649475097656 C 413.3804626464844 273.9160461425781 415.3175354003906 272.3584289550781 415.734619140625 268.2682800292969 C 418.19024658203125 267.2073974609375 417.7786865234375 264.80712890625 419.32958984375 263.0556945800781 C 428.87890625 254.3162078857422 438.9632568359375 258.71258544921875 448.4100341796875 263.9630126953125" stroke-width="0.0" fill="url(#shape_32_fill)"/>
    <path d="M 270.20465087890625 190.68907165527344 C 281.2714538574219 191.22842407226562 283.92901611328125 242.55081176757812 278.8134765625 243.9708251953125 C 277.87353515625 247.18930053710938 273.7922058105469 246.6570281982422 269.9520263671875 248.28045654296875 C 266.4784851074219 245.803466796875 266.8210754394531 241.93992614746094 264.45916748046875 240.42494201660156 C 257.8138122558594 208.52650451660156 260.0259094238281 202.6710205078125 270.20465087890625 190.68907165527344" stroke-width="0.0" fill="url(#shape_33_fill)"/>
    <path d="M 253.71725463867188 424.87506103515625 C 255.80908203125 427.88525390625 263.2566223144531 432.3057861328125 262.8858642578125 438.7744445800781 C 260.44586181640625 441.43267822265625 260.0819091796875 444.50042724609375 252.4325408935547 444.59796142578125 C 246.85980224609375 444.1417541503906 220.44656372070312 446.6993103027344 212.60015869140625 444.53582763671875 C 213.02537536621094 436.9955139160156 213.95936584472656 436.2225646972656 215.93356323242188 434.46917724609375 C 216.1376190185547 433.38714599609375 225.0009002685547 433.345458984375 226.60577392578125 430.2533874511719 C 232.39093017578125 425.1860656738281 242.75845336914062 423.6156005859375 253.71725463867188 424.87506103515625" stroke-width="0.0" fill="url(#shape_34_fill)"/>
    <path d="M 105.58677673339844 69.93537139892578 C 109.40215301513672 70.08192443847656 112.4567642211914 78.2690658569336 110.07353210449219 83.09246063232422 C 115.61971282958984 85.61532592773438 116.87197875976562 110.28775024414062 117.04025268554688 110.93550109863281 C 116.95643615722656 113.07271575927734 111.38912963867188 113.75856018066406 109.71099853515625 117.8870620727539 C 105.49777221679688 116.58121490478516 96.73294830322266 118.73573303222656 92.5169677734375 112.96150970458984 C 91.83321380615234 85.59077453613281 103.52398681640625 84.12899017333984 105.58677673339844 69.93537139892578" stroke-width="0.0" fill="url(#shape_35_fill)"/>
    <path d="M 451.7647399902344 178.2156982421875 C 453.5743103027344 176.10369873046875 456.62823486328125 177.20327758789062 456.9908752441406 179.68504333496094 C 457.72381591796875 179.71328735351562 457.848388671875 184.01577758789062 459.4984130859375 185.3037872314453 C 458.0793151855469 190.3056182861328 461.884521484375 193.9324493408203 460.4422302246094 205.88372802734375 C 459.0483093261719 208.94886779785156 453.9542236328125 208.57171630859375 449.4688720703125 206.47291564941406 C 441.2491149902344 207.4768829345703 440.3318786621094 209.12841796875 434.41949462890625 210.31674194335938 C 432.5863037109375 208.86727905273438 437.01251220703125 188.79641723632812 439.8060302734375 185.5316162109375 C 441.4228515625 182.1421661376953 445.614501953125 182.52169799804688 446.925048828125 180.75253295898438 C 448.3622741699219 177.75274658203125 449.64453125 180.137939453125 451.7647399902344 178.2156982421875" stroke-width="0.0" fill="url(#shape_36_fill)"/>
    <path d="M 557.1143798828125 83.28958129882812 C 563.5232543945312 80.59649658203125 582.3782958984375 82.70143127441406 577.1876831054688 83.8967514038086 C 582.5916137695312 83.22816467285156 586.6981811523438 84.59284973144531 586.94189453125 87.39373016357422 C 587.5315551757812 91.34685516357422 580.2767944335938 97.85542297363281 574.3911743164062 100.00189208984375 C 573.7967529296875 99.33804321289062 549.1771850585938 96.49240112304688 541.349365234375 85.6752700805664 C 538.9146728515625 85.19384765625 538.0108642578125 81.04072570800781 537.4118041992188 78.7616195678711 C 543.9568481445312 77.3864974975586 550.6968994140625 79.06214904785156 557.1143798828125 83.28958129882812" stroke-width="0.0" fill="url(#shape_37_fill)"/>
    <path d="M 249.88656616210938 208.36476135253906 C 260.4586181640625 212.03094482421875 257.420654296875 246.14450073242188 257.9159851074219 247.1536407470703 C 254.69444274902344 254.0353546142578 249.93899536132812 253.33119201660156 246.19137573242188 255.7416534423828 C 236.76077270507812 242.47105407714844 243.84088134765625 211.0647735595703 249.88656616210938 208.36476135253906" stroke-width="0.0" fill="url(#shape_38_fill)"/>
    <path d="M 445.1448059082031 261.36041259765625 C 445.97125244140625 263.48577880859375 449.092041015625 266.5960998535156 447.6457824707031 270.098876953125 C 443.97576904296875 270.3262939453125 442.56195068359375 276.9058837890625 440.98663330078125 280.00225830078125 C 440.5020446777344 286.3696594238281 416.3457946777344 286.7054138183594 415.5425109863281 280.99169921875 C 414.8294372558594 276.8725891113281 413.2156066894531 274.1219482421875 415.4249572753906 271.685546875 C 414.53369140625 269.81610107421875 418.1282043457031 260.9848327636719 423.7958984375 259.5657043457031 C 430.6704406738281 255.2377471923828 437.52154541015625 257.27435302734375 445.1448059082031 261.36041259765625" stroke-width="0.0" fill="url(#shape_39_fill)"/>
    <path d="M 407.7402648925781 409.7705383300781 C 408.6872253417969 409.88018798828125 416.7669372558594 419.0191955566406 413.43505859375 424.0341796875 C 397.0803527832031 432.17596435546875 380.7660217285156 420.6119689941406 377.4510803222656 420.1626281738281 C 369.8572998046875 417.57696533203125 372.1077880859375 416.98748779296875 373.33990478515625 412.0544738769531 C 379.5611572265625 404.5741271972656 398.67218017578125 404.1466369628906 407.7402648925781 409.7705383300781" stroke-width="0.0" fill="url(#shape_40_fill)"/>
    <path d="M 66.39265441894531 427.666748046875 C 67.61636352539062 429.1390686035156 65.30052185058594 435.8928527832031 60.008148193359375 436.2813415527344 C 58.593475341796875 437.23382568359375 42.06768035888672 437.6246643066406 33.76979064941406 444.4687194824219 C 29.771284103393555 444.314453125 24.307388305664062 447.85382080078125 17.043638229370117 443.66510009765625 C 16.55825424194336 440.63726806640625 17.58547592163086 439.203369140625 16.632259368896484 437.1365051269531 C 33.429317474365234 428.6824035644531 57.18534851074219 427.04541015625 66.39265441894531 427.666748046875" stroke-width="0.0" fill="url(#shape_41_fill)"/>
    <path d="M 278.1975402832031 385.2337646484375 C 281.1155700683594 385.0141296386719 293.2909240722656 385.6754455566406 295.61785888671875 390.0411376953125 C 297.4661865234375 394.93206787109375 299.8724670410156 399.87017822265625 294.19512939453125 403.6848449707031 C 291.82391357421875 397.95770263671875 264.1417541503906 402.44378662109375 258.62713623046875 402.5377502441406 C 255.29849243164062 401.4898986816406 254.4175567626953 390.5634765625 257.7839050292969 387.1954040527344 C 264.6694641113281 385.3116455078125 270.5958251953125 385.5989074707031 278.1975402832031 385.2337646484375" stroke-width="0.0" fill="url(#shape_42_fill)"/>
    <path d="M 219.65509033203125 222.94805908203125 C 222.60743713378906 221.79736328125 228.3873748779297 222.03146362304688 233.6811065673828 223.55210876464844 C 236.4481964111328 226.7301483154297 242.37203979492188 244.29893493652344 239.7813262939453 255.1351318359375 C 236.90036010742188 260.45074462890625 229.393798828125 260.63714599609375 221.3822021484375 260.72479248046875 C 216.65451049804688 258.8973083496094 216.1969757080078 258.1141662597656 217.71353149414062 248.0480194091797 C 219.54624938964844 246.479248046875 217.82119750976562 226.37965393066406 219.65509033203125 222.94805908203125" stroke-width="0.0" fill="url(#shape_43_fill)"/>
    <path d="M 484.0011901855469 395.3336486816406 C 486.8326416015625 399.8042297363281 485.8554382324219 400.9898681640625 483.56817626953125 401.27825927734375 C 475.49859619140625 407.8740234375 451.31976318359375 407.8029479980469 450.6870422363281 407.40106201171875 C 448.02923583984375 404.4215087890625 451.587890625 396.1744079589844 453.5958251953125 396.44830322265625 C 461.9764404296875 392.6086120605469 474.33197021484375 392.2966613769531 484.0011901855469 395.3336486816406" stroke-width="0.0" fill="url(#shape_44_fill)"/>
    <path d="M 46.0846061706543 406.3979797363281 C 45.5816650390625 409.8438415527344 36.101993560791016 412.5341796875 35.27369689941406 414.63543701171875 C 32.89150619506836 414.762939453125 32.5693473815918 416.2178039550781 29.81861686706543 416.77398681640625 C 28.183433532714844 418.2056579589844 25.287227630615234 418.1869812011719 21.855093002319336 421.3248291015625 C 15.588642120361328 419.9821472167969 2.7640178203582764 416.7530517578125 -1.0265986919403076 420.7585754394531 C 0.6342217922210693 419.5899353027344 -0.6542015671730042 410.2322082519531 1.2321816682815552 409.823974609375 C 8.39244556427002 409.1171569824219 43.42826843261719 407.7770080566406 46.0846061706543 406.3979797363281" stroke-width="0.0" fill="url(#shape_45_fill)"/>
    <path d="M 452.0478820800781 175.2735137939453 C 456.7828063964844 174.63577270507812 465.19586181640625 197.3415985107422 464.592041015625 201.92892456054688 C 462.5693054199219 209.6541290283203 451.6876220703125 209.634765625 449.4757385253906 206.77383422851562 C 448.3287048339844 203.2489013671875 449.052490234375 198.31271362304688 448.8450927734375 195.3009796142578 C 447.93939208984375 194.5430908203125 447.6122741699219 192.2019500732422 448.49700927734375 187.7373504638672 C 449.58233642578125 186.0772705078125 449.4207763671875 183.19276428222656 452.0478820800781 175.2735137939453" stroke-width="0.0" fill="url(#shape_46_fill)"/>
    <path d="M 375.5705871582031 184.8055877685547 C 377.7607421875 189.42044067382812 378.1545715332031 205.99978637695312 373.0126647949219 206.6561737060547 C 365.8641357421875 206.82620239257812 364.7741394042969 204.8515625 361.8184509277344 203.2522735595703 C 354.3424377441406 203.50827026367188 352.0437316894531 199.77867126464844 354.5500793457031 188.33572387695312 C 356.6380920410156 184.9439697265625 358.36328125 184.4063720703125 365.4930114746094 185.3305206298828 C 369.0572509765625 184.67929077148438 373.5117492675781 182.8716583251953 375.5705871582031 184.8055877685547" stroke-width="0.0" fill="url(#shape_47_fill)"/>
    <path d="M 469.50244140625 268.60992431640625 C 471.81231689453125 269.1485595703125 475.7297668457031 270.3472900390625 474.6769714355469 283.6813659667969 C 464.7064514160156 287.22314453125 456.5644226074219 284.55340576171875 444.35565185546875 284.7481689453125 C 439.31427001953125 282.1973876953125 439.99774169921875 276.9551696777344 441.2408752441406 276.5003662109375 C 448.3638916015625 267.5732421875 456.16046142578125 268.04278564453125 469.50244140625 268.60992431640625" stroke-width="0.0" fill="url(#shape_48_fill)"/>
    <path d="M 176.8594207763672 119.10672760009766 C 179.11865234375 116.18064880371094 181.78773498535156 117.13501739501953 183.46388244628906 117.49539947509766 C 184.69760131835938 120.20584869384766 183.85409545898438 122.34368896484375 185.1323699951172 126.36070251464844 C 181.51744079589844 132.66629028320312 186.41856384277344 137.33572387695312 185.62225341796875 143.66293334960938 C 182.72776794433594 148.98228454589844 173.99732971191406 147.06076049804688 170.69085693359375 147.43565368652344 C 170.61245727539062 126.21458435058594 169.37619018554688 122.33882141113281 176.8594207763672 119.10672760009766" stroke-width="0.0" fill="url(#shape_49_fill)"/>
    <path d="M 334.0090026855469 427.6172790527344 C 337.6701965332031 428.31573486328125 340.7286376953125 429.4295654296875 342.8413391113281 432.0753479003906 C 346.3597717285156 435.6015930175781 345.1598205566406 437.23236083984375 342.4698181152344 437.6103515625 C 343.0502014160156 445.0738220214844 324.20654296875 447.4754638671875 321.5690612792969 441.123291015625 C 316.9654541015625 439.8876647949219 316.0416564941406 433.9726867675781 315.4895324707031 429.6871032714844 C 320.9390563964844 424.5938720703125 327.9867248535156 425.0850524902344 334.0090026855469 427.6172790527344" stroke-width="0.0" fill="url(#shape_50_fill)"/>
    <path d="M 296.7545471191406 389.439697265625 C 298.2547912597656 395.0953369140625 296.56512451171875 399.5918884277344 289.2556457519531 398.8573303222656 C 284.9497985839844 397.7525634765625 282.1385192871094 399.14837646484375 271.4017333984375 402.7140197753906 C 271.0284423828125 401.6218566894531 269.487060546875 399.0029296875 270.9374694824219 397.4777526855469 C 269.869140625 395.4930114746094 272.8868713378906 387.9807434082031 278.1243896484375 389.3874816894531 C 284.04620361328125 387.2062072753906 289.7572326660156 387.2434997558594 296.7545471191406 389.439697265625" stroke-width="0.0" fill="url(#shape_51_fill)"/>
    <path d="M 270.03973388671875 189.3287353515625 C 277.94049072265625 194.71075439453125 278.73431396484375 205.91253662109375 280.2735595703125 214.16175842285156 C 271.4640808105469 211.35951232910156 266.53887939453125 209.20286560058594 261.0337829589844 213.63140869140625 C 260.3085021972656 206.09217834472656 264.4051818847656 197.40664672851562 265.8240051269531 194.4607696533203 C 269.28033447265625 194.58285522460938 269.6077880859375 192.05409240722656 270.03973388671875 189.3287353515625" stroke-width="0.0" fill="url(#shape_52_fill)"/>
    <path d="M 218.04046630859375 409.8310241699219 C 215.79664611816406 410.6999206542969 215.5914306640625 413.0265197753906 214.34552001953125 414.5280456542969 C 213.5039520263672 417.712646484375 189.06622314453125 421.0633850097656 187.48406982421875 415.6628112792969 C 186.27468872070312 408.3563537597656 205.6869354248047 401.5316162109375 218.04046630859375 409.8310241699219" stroke-width="0.0" fill="url(#shape_53_fill)"/>
    <path d="M 205.74600219726562 424.60699462890625 C 205.3511962890625 425.4237365722656 206.21932983398438 428.6334228515625 204.5413360595703 429.5815734863281 C 200.75225830078125 433.6813049316406 178.84271240234375 433.5675048828125 177.89801025390625 432.82122802734375 C 176.66180419921875 430.95611572265625 178.12225341796875 425.9518127441406 176.68612670898438 423.9165344238281 C 186.75299072265625 420.6906433105469 196.71250915527344 422.5440368652344 205.74600219726562 424.60699462890625" stroke-width="0.0" fill="url(#shape_54_fill)"/>
    <path d="M 270.8074951171875 245.078857421875 C 275.4200439453125 244.69883728027344 276.6588134765625 245.70460510253906 281.0696105957031 246.8509063720703 C 280.7276306152344 250.63031005859375 279.4482727050781 254.86293029785156 281.46435546875 257.5000915527344 C 263.4643859863281 257.8543395996094 262.9256286621094 257.1429443359375 255.53445434570312 255.6217498779297 C 254.8751678466797 248.17137145996094 255.85214233398438 247.22982788085938 258.5644226074219 245.20907592773438 C 260.39715576171875 240.05325317382812 266.37420654296875 241.359619140625 270.8074951171875 245.078857421875" stroke-width="0.0" fill="url(#shape_55_fill)"/>
    <path d="M 271.5889892578125 363.7976379394531 C 277.076171875 365.0942077636719 281.80548095703125 363.2746887207031 284.42230224609375 368.1311950683594 C 285.4057312011719 369.2542419433594 285.454833984375 371.68817138671875 283.2148742675781 377.5948181152344 C 276.1033020019531 377.4285583496094 265.22576904296875 379.9347839355469 254.45660400390625 378.25421142578125 C 250.81346130371094 375.0099182128906 252.35447692871094 367.6547546386719 253.65670776367188 366.461181640625 C 259.8152160644531 364.9426574707031 266.17901611328125 364.1279602050781 271.5889892578125 363.7976379394531" stroke-width="0.0" fill="url(#shape_56_fill)"/>
    <path d="M 409.3222961425781 271.4673767089844 C 412.9964904785156 270.1838684082031 416.9022521972656 275.08819580078125 416.1708679199219 281.0230407714844 C 411.907470703125 288.26190185546875 401.0899658203125 285.1243591308594 391.26318359375 286.79986572265625 C 389.67755126953125 274.0682067871094 398.3135681152344 268.3966064453125 409.3222961425781 271.4673767089844" stroke-width="0.0" fill="url(#shape_57_fill)"/>
    <path d="M 632.3562622070312 352.7803039550781 C 632.525634765625 353.0174255371094 660.034912109375 353.0519714355469 668.6906127929688 353.2525939941406 C 668.4720458984375 358.3840637207031 662.38330078125 360.905517578125 656.3875122070312 358.80535888671875 C 654.1513671875 358.4579772949219 634.109130859375 361.3200378417969 631.4228515625 361.12506103515625 C 627.7449340820312 357.1505126953125 629.281494140625 353.5604553222656 632.3562622070312 352.7803039550781" stroke-width="0.0" fill="url(#shape_58_fill)"/>
    <path d="M 341.4264221191406 385.3857421875 C 342.5783386230469 390.35943603515625 358.10693359375 391.7875671386719 359.16497802734375 394.8436584472656 C 356.0011901855469 399.4333190917969 341.2353210449219 402.1278076171875 338.4576721191406 399.5106506347656 C 335.1430358886719 399.5997619628906 333.0903015136719 398.7688293457031 331.8797912597656 396.5330810546875 C 331.985595703125 394.9378967285156 330.76123046875 393.47576904296875 332.4443664550781 390.6369323730469 C 334.7930603027344 386.3500671386719 338.6581726074219 387.0220947265625 341.4264221191406 385.3857421875" stroke-width="0.0" fill="url(#shape_59_fill)"/>
    <path d="M 460.48040771484375 364.7503967285156 C 464.4854431152344 363.6308898925781 472.63623046875 367.6605529785156 472.76019287109375 373.029541015625 C 471.65289306640625 377.3979187011719 470.5257263183594 375.8207092285156 463.0915832519531 375.9858703613281 C 460.0353698730469 377.22216796875 454.6324768066406 378.2283020019531 452.18365478515625 371.1975402832031 C 451.4660339355469 368.3507385253906 458.05035400390625 364.4568176269531 460.48040771484375 364.7503967285156" stroke-width="0.0" fill="url(#shape_60_fill)"/>
    <path d="M 436.62841796875 433.33404541015625 C 440.2890319824219 434.23773193359375 442.4940185546875 436.31695556640625 441.9873352050781 439.1318359375 C 440.5080871582031 442.44873046875 430.21673583984375 441.18023681640625 425.884521484375 442.5189514160156 C 422.54278564453125 438.0677795410156 424.15216064453125 434.4565124511719 424.0271911621094 432.759521484375 C 428.6838073730469 431.15350341796875 433.8261413574219 431.3406982421875 436.62841796875 433.33404541015625" stroke-width="0.0" fill="url(#shape_61_fill)"/>
    <path d="M 185.43124389648438 411.455810546875 C 186.2606658935547 413.9318542480469 185.0105743408203 414.7926025390625 186.9136505126953 417.9503479003906 C 184.84750366210938 420.1094970703125 183.42181396484375 419.5556640625 182.29953002929688 419.6443176269531 C 180.4505157470703 421.1092224121094 174.9618377685547 421.1485290527344 171.13270568847656 420.2950744628906 C 169.5113983154297 417.92425537109375 169.7432403564453 415.6358337402344 171.98306274414062 414.0997314453125 C 176.3378143310547 411.64599609375 180.27999877929688 410.3368225097656 185.43124389648438 411.455810546875" stroke-width="0.0" fill="url(#shape_62_fill)"/>
    <path d="M 332.63433837890625 418.2228698730469 C 334.99102783203125 426.23095703125 329.9054260253906 428.08001708984375 327.30572509765625 426.1756591796875 C 324.6152038574219 427.7885437011719 323.01019287109375 426.74884033203125 320.30029296875 427.6958312988281 C 318.6711730957031 426.0543212890625 319.59210205078125 419.99346923828125 317.79443359375 418.4162292480469 C 323.36669921875 419.85186767578125 326.43548583984375 418.51849365234375 332.63433837890625 418.2228698730469" stroke-width="0.0" fill="url(#shape_63_fill)"/>
    <path d="M 55.38298416137695 273.8089599609375 C 56.45334243774414 270.6834411621094 65.97206115722656 272.2064514160156 66.27680206298828 280.004638671875 C 61.43399429321289 278.1433410644531 53.252166748046875 274.1586608886719 47.99452590942383 276.54510498046875 C 49.433082580566406 272.8236083984375 52.267826080322266 272.26055908203125 55.38298416137695 273.8089599609375" stroke-width="0.0" fill="url(#shape_64_fill)"/>
    <path d="M 304.26385498046875 438.519775390625 C 304.4371643066406 436.9997863769531 305.7908935546875 436.0376892089844 313.1578063964844 436.8587341308594 C 314.78887939453125 438.9361267089844 313.28033447265625 441.7447509765625 311.61083984375 443.8877258300781 C 307.8506774902344 445.4436950683594 306.7861022949219 444.244384765625 304.8390197753906 445.51068115234375 C 303.05511474609375 441.5037536621094 302.2555847167969 439.4714050292969 304.26385498046875 438.519775390625" stroke-width="0.0" fill="url(#shape_65_fill)"/>
    <path d="M 1.2066491842269897 -0.07411517947912216 C 223.5267791748047 0.1478169560432434 443.60504150390625 0.5115945339202881 673.4718017578125 0.9364722371101379 C 674.1559448242188 149.57618713378906 674.4749145507812 294.5379943847656 673.4241333007812 445.3314514160156 C 450.321533203125 446.0074768066406 230.98988342285156 445.9765319824219 0.7491441369056702 445.2052307128906 C 0.26459720730781555 296.9342956542969 -0.028812937438488007 149.59425354003906 1.2066491842269897 -0.07411517947912216" stroke-width="0.0" fill="url(#shape_66_fill)"/>
    <path d="M 0.32205846905708313 0.3641212284564972 C 222.69024658203125 0.11356375366449356 443.47967529296875 0.4425199031829834 673.4590454101562 0.7480292320251465 C 674.222900390625 149.76388549804688 674.5029296875 294.31256103515625 673.2706909179688 445.13385009765625 C 449.9247741699219 445.9248046875 231.26121520996094 445.900634765625 0.9062237739562988 445.033203125 C 0.2897120416164398 296.5890808105469 -0.11151787638664246 148.72434997558594 0.32205846905708313 0.3641212284564972" stroke-width="0.0" fill="url(#shape_67_fill)"/>
    <path d="M -0.5377569198608398 0.08881081640720367 C 223.09469604492188 -0.08536206185817719 443.51361083984375 0.3623088598251343 673.4457397460938 0.1814524531364441 C 674.2052001953125 149.8292694091797 674.49853515625 294.333984375 673.2733154296875 445.1126708984375 C 449.9311218261719 445.94073486328125 231.31341552734375 445.90911865234375 1.1976908445358276 445.01116943359375 C 0.3744989335536957 296.1578063964844 -0.01125218253582716 149.1396026611328 -0.5377569198608398 0.08881081640720367" stroke-width="0.0" fill="url(#shape_68_fill)"/>
  </g>
</svg>
