<?xml version="1.0" ?>
<svg xmlns="http://www.w3.org/2000/svg" version="1.1" width="674" height="446">
  <defs>
    <radialGradient id="shape_0_fill" cx="0.5346295274683559" cy="0.7407977869692405" r="0.27858580184619575">
      <stop offset="0.7700181" stop-color="rgb(168, 183, 0)" stop-opacity="0.8564971685409546"/>
      <stop offset="1.0" stop-color="rgb(52, 46, 0)" stop-opacity="1.0"/>
    </radialGradient>
    <radialGradient id="shape_1_fill" cx="0.5361537763555962" cy="0.7443665645582259" r="0.20622645075314122">
      <stop offset="0.5444998" stop-color="rgb(79, 80, 67)" stop-opacity="0.8118011951446533"/>
      <stop offset="1.0" stop-color="rgb(29, 10, 0)" stop-opacity="0.6268830299377441"/>
    </radialGradient>
    <radialGradient id="shape_2_fill" cx="0.09792284866468842" cy="0.7376672719091578" r="0.22062588021026522">
      <stop offset="0.0013981462" stop-color="rgb(33, 92, 181)" stop-opacity="0.9745798110961914"/>
      <stop offset="0.99776864" stop-color="rgb(9, 107, 255)" stop-opacity="0.9304369688034058"/>
    </radialGradient>
    <radialGradient id="shape_3_fill" cx="0.2766603871693597" cy="0.21573445615212478" r="0.1287531187697051">
      <stop offset="0.3940082" stop-color="rgb(143, 200, 8)" stop-opacity="0.8087032437324524"/>
      <stop offset="1.0" stop-color="rgb(39, 41, 0)" stop-opacity="0.9513358473777771"/>
    </radialGradient>
    <radialGradient id="shape_4_fill" cx="0.1543026706231454" cy="0.9977578475336323" r="0.10288926755639141">
      <stop offset="0.0" stop-color="rgb(81, 79, 86)" stop-opacity="1.0"/>
      <stop offset="1.0" stop-color="rgb(78, 70, 84)" stop-opacity="0.8974791765213013"/>
    </radialGradient>
    <radialGradient id="shape_5_fill" cx="0.14807964290992442" cy="0.23997249517740155" r="0.11810664960821587">
      <stop offset="0.0" stop-color="rgb(255, 255, 255)" stop-opacity="0.6465655565261841"/>
      <stop offset="0.5626593" stop-color="rgb(255, 255, 255)" stop-opacity="0.592861533164978"/>
    </radialGradient>
    <radialGradient id="shape_6_fill" cx="0.18397626112759644" cy="0.9977578475336323" r="0.0754974885934892">
      <stop offset="0.0" stop-color="rgb(93, 90, 94)" stop-opacity="1.0"/>
      <stop offset="1.0" stop-color="rgb(145, 131, 133)" stop-opacity="0.9273370504379272"/>
    </radialGradient>
    <radialGradient id="shape_7_fill" cx="0.2893175074183976" cy="0.05829596412556054" r="0.08666390552011372">
      <stop offset="0.0" stop-color="rgb(55, 66, 29)" stop-opacity="1.0"/>
      <stop offset="1.0" stop-color="rgb(109, 127, 43)" stop-opacity="0.5481205582618713"/>
    </radialGradient>
    <radialGradient id="shape_8_fill" cx="0.3382789091115889" cy="0.9439461883408071" r="0.06756690277190167">
      <stop offset="0.0" stop-color="rgb(91, 124, 45)" stop-opacity="1.0"/>
      <stop offset="1.0" stop-color="rgb(123, 181, 64)" stop-opacity="0.7182491421699524"/>
    </radialGradient>
    <radialGradient id="shape_9_fill" cx="0.30712166172106825" cy="0.9977578475336323" r="0.0730758406641929">
      <stop offset="0.0" stop-color="rgb(38, 48, 20)" stop-opacity="1.0"/>
      <stop offset="1.0" stop-color="rgb(31, 32, 46)" stop-opacity="1.0"/>
    </radialGradient>
    <radialGradient id="shape_10_fill" cx="0.3056379821958457" cy="0.9977578475336323" r="0.06792919147615971">
      <stop offset="0.0" stop-color="rgb(39, 49, 21)" stop-opacity="1.0"/>
      <stop offset="1.0" stop-color="rgb(41, 29, 0)" stop-opacity="0.7106409072875977"/>
    </radialGradient>
    <radialGradient id="shape_11_fill" cx="0.21810089020771514" cy="0.968609865470852" r="0.06792919147615971">
      <stop offset="0.0" stop-color="rgb(138, 135, 129)" stop-opacity="1.0"/>
      <stop offset="1.0" stop-color="rgb(168, 137, 110)" stop-opacity="0.4934523403644562"/>
    </radialGradient>
    <radialGradient id="shape_12_fill" cx="0.29080118694362017" cy="0.9977578475336323" r="0.07480746985189285">
      <stop offset="0.0" stop-color="rgb(22, 25, 13)" stop-opacity="1.0"/>
      <stop offset="1.0" stop-color="rgb(35, 38, 3)" stop-opacity="0.997516393661499"/>
    </radialGradient>
    <radialGradient id="shape_13_fill" cx="0.327893175074184" cy="0.8923766816143498" r="0.06900465877544279">
      <stop offset="0.0" stop-color="rgb(89, 117, 50)" stop-opacity="1.0"/>
      <stop offset="1.0" stop-color="rgb(112, 149, 23)" stop-opacity="0.7355477809906006"/>
    </radialGradient>
    <radialGradient id="shape_14_fill" cx="0.142433234421365" cy="0.9977578475336323" r="0.06617211022079875">
      <stop offset="0.0" stop-color="rgb(155, 150, 153)" stop-opacity="1.0"/>
      <stop offset="1.0" stop-color="rgb(255, 239, 231)" stop-opacity="0.15158794820308685"/>
    </radialGradient>
    <radialGradient id="shape_15_fill" cx="0.31008902077151335" cy="0.9977578475336323" r="0.06683642786405207">
      <stop offset="0.0" stop-color="rgb(43, 55, 23)" stop-opacity="1.0"/>
      <stop offset="1.0" stop-color="rgb(57, 67, 17)" stop-opacity="0.9450796842575073"/>
    </radialGradient>
    <radialGradient id="shape_16_fill" cx="0.27299703264094954" cy="0.9977578475336323" r="0.08110449363640579">
      <stop offset="0.0" stop-color="rgb(31, 35, 19)" stop-opacity="1.0"/>
      <stop offset="1.0" stop-color="rgb(32, 31, 0)" stop-opacity="0.9779747128486633"/>
    </radialGradient>
    <radialGradient id="shape_17_fill" cx="0.2893175074183976" cy="0.9977578475336323" r="0.07513486030193747">
      <stop offset="0.0" stop-color="rgb(22, 23, 13)" stop-opacity="1.0"/>
      <stop offset="1.0" stop-color="rgb(17, 13, 0)" stop-opacity="0.829444408416748"/>
    </radialGradient>
    <radialGradient id="shape_18_fill" cx="0.3293768545994065" cy="0.7556053811659192" r="0.06617211022079875">
      <stop offset="0.0" stop-color="rgb(83, 108, 65)" stop-opacity="1.0"/>
      <stop offset="1.0" stop-color="rgb(111, 137, 60)" stop-opacity="0.9720286130905151"/>
    </radialGradient>
    <radialGradient id="shape_19_fill" cx="0.3516320474777448" cy="0.9977578475336323" r="0.06617211022079875">
      <stop offset="0.0" stop-color="rgb(95, 135, 39)" stop-opacity="1.0"/>
      <stop offset="1.0" stop-color="rgb(145, 210, 7)" stop-opacity="0.7703850865364075"/>
    </radialGradient>
    <radialGradient id="shape_20_fill" cx="0.0830860534124629" cy="0.9977578475336323" r="0.06792919147615971">
      <stop offset="0.0" stop-color="rgb(49, 52, 66)" stop-opacity="1.0"/>
      <stop offset="1.0" stop-color="rgb(13, 8, 49)" stop-opacity="0.3988072872161865"/>
    </radialGradient>
    <radialGradient id="shape_21_fill" cx="0.29821958456973297" cy="0.9977578475336323" r="0.06792919147615971">
      <stop offset="0.0" stop-color="rgb(33, 40, 17)" stop-opacity="1.0"/>
      <stop offset="1.0" stop-color="rgb(37, 51, 0)" stop-opacity="0.6609889268875122"/>
    </radialGradient>
    <radialGradient id="shape_22_fill" cx="0.35633435801157964" cy="0.443733523244815" r="0.06594560549591698">
      <stop offset="0.50923234" stop-color="rgb(160, 194, 0)" stop-opacity="0.8212732672691345"/>
      <stop offset="0.40445483" stop-color="rgb(153, 190, 37)" stop-opacity="0.9120311141014099"/>
    </radialGradient>
    <radialGradient id="shape_23_fill" cx="0.6454005934718101" cy="0.1412556053811659" r="0.06617211022079875">
      <stop offset="0.0" stop-color="rgb(46, 38, 13)" stop-opacity="1.0"/>
      <stop offset="1.0" stop-color="rgb(51, 30, 0)" stop-opacity="0.8681159019470215"/>
    </radialGradient>
    <radialGradient id="shape_24_fill" cx="0.24925732258873098" cy="0.48430544592339897" r="0.06617138010811735">
      <stop offset="0.0" stop-color="rgb(201, 209, 206)" stop-opacity="1.0"/>
      <stop offset="0.9766002" stop-color="rgb(255, 255, 255)" stop-opacity="0.6190624237060547"/>
    </radialGradient>
    <radialGradient id="shape_25_fill" cx="0.6320474777448071" cy="0.9977578475336323" r="0.06617211022079875">
      <stop offset="0.0" stop-color="rgb(35, 28, 8)" stop-opacity="1.0"/>
      <stop offset="1.0" stop-color="rgb(38, 14, 0)" stop-opacity="0.5811266899108887"/>
    </radialGradient>
    <radialGradient id="shape_26_fill" cx="0.15414520399506793" cy="0.3207086811151205" r="0.06604698362265567">
      <stop offset="0.11989566" stop-color="rgb(198, 211, 155)" stop-opacity="1.0"/>
      <stop offset="0.58338004" stop-color="rgb(115, 114, 253)" stop-opacity="0.0"/>
    </radialGradient>
    <radialGradient id="shape_27_fill" cx="0.15410647972401242" cy="0.3208032787648017" r="0.06604505929465818">
      <stop offset="0.0" stop-color="rgb(192, 205, 0)" stop-opacity="1.0"/>
      <stop offset="0.49375948" stop-color="rgb(78, 73, 48)" stop-opacity="0.6065911054611206"/>
    </radialGradient>
    <radialGradient id="shape_28_fill" cx="0.03753564195038657" cy="0.0176923638502044" r="0.06830041698602965">
      <stop offset="0.16320005" stop-color="rgb(2, 27, 127)" stop-opacity="0.9928052425384521"/>
      <stop offset="0.57285947" stop-color="rgb(4, 27, 152)" stop-opacity="0.7969117760658264"/>
    </radialGradient>
    <radialGradient id="shape_29_fill" cx="0.33976258863681147" cy="0.6659192825112108" r="0.06617211022079875">
      <stop offset="0.0" stop-color="rgb(90, 117, 55)" stop-opacity="1.0"/>
      <stop offset="1.0" stop-color="rgb(114, 147, 31)" stop-opacity="0.8906209468841553"/>
    </radialGradient>
    <radialGradient id="shape_30_fill" cx="0.039866022964613376" cy="0.017189430014434952" r="0.06829321773540373">
      <stop offset="0.29057238" stop-color="rgb(47, 74, 68)" stop-opacity="0.995322048664093"/>
      <stop offset="0.9279168" stop-color="rgb(52, 62, 27)" stop-opacity="0.611387312412262"/>
    </radialGradient>
    <radialGradient id="shape_31_fill" cx="0.12314540059347182" cy="0.9977578475336323" r="0.06617211022079875">
      <stop offset="0.0" stop-color="rgb(95, 103, 98)" stop-opacity="1.0"/>
      <stop offset="1.0" stop-color="rgb(142, 132, 121)" stop-opacity="0.7585925459861755"/>
    </radialGradient>
    <radialGradient id="shape_32_fill" cx="0.4035608308605341" cy="0.984304932735426" r="0.06617211022079875">
      <stop offset="0.0" stop-color="rgb(126, 155, 63)" stop-opacity="1.0"/>
      <stop offset="1.0" stop-color="rgb(146, 134, 30)" stop-opacity="0.9686056971549988"/>
    </radialGradient>
    <radialGradient id="shape_33_fill" cx="0.3249258160237389" cy="0.6053811659192825" r="0.06617211022079875">
      <stop offset="0.0" stop-color="rgb(93, 124, 71)" stop-opacity="1.0"/>
      <stop offset="1.0" stop-color="rgb(123, 154, 49)" stop-opacity="0.963467538356781"/>
    </radialGradient>
    <radialGradient id="shape_34_fill" cx="0.6468842729970327" cy="0.531390134529148" r="0.06617211022079875">
      <stop offset="0.0" stop-color="rgb(54, 47, 24)" stop-opacity="1.0"/>
      <stop offset="1.0" stop-color="rgb(55, 21, 18)" stop-opacity="0.45906367897987366"/>
    </radialGradient>
    <radialGradient id="shape_35_fill" cx="0.14590636346743438" cy="0.23877531316782863" r="0.06858096702869992">
      <stop offset="0.04163111" stop-color="rgb(191, 255, 70)" stop-opacity="0.17408215999603271"/>
      <stop offset="0.5762189" stop-color="rgb(120, 101, 66)" stop-opacity="0.7417296767234802"/>
    </radialGradient>
    <radialGradient id="shape_36_fill" cx="0.2878338278931751" cy="0.9977578475336323" r="0.06617211022079875">
      <stop offset="0.0" stop-color="rgb(80, 96, 53)" stop-opacity="1.0"/>
      <stop offset="1.0" stop-color="rgb(44, 45, 4)" stop-opacity="0.8094587922096252"/>
    </radialGradient>
    <radialGradient id="shape_37_fill" cx="0.129080118694362" cy="0.9977578475336323" r="0.06617211022079875">
      <stop offset="0.0" stop-color="rgb(87, 97, 81)" stop-opacity="1.0"/>
      <stop offset="1.0" stop-color="rgb(68, 79, 56)" stop-opacity="0.6005587577819824"/>
    </radialGradient>
    <radialGradient id="shape_38_fill" cx="0.33892324204260943" cy="0.5607740119968294" r="0.0666785763703751">
      <stop offset="0.7501433" stop-color="rgb(84, 116, 17)" stop-opacity="0.9006068110466003"/>
      <stop offset="0.6022492" stop-color="rgb(173, 255, 77)" stop-opacity="0.8720299005508423"/>
    </radialGradient>
    <radialGradient id="shape_39_fill" cx="0.40059347181008903" cy="0.9641255605381166" r="0.06617211022079875">
      <stop offset="0.0" stop-color="rgb(138, 168, 60)" stop-opacity="1.0"/>
      <stop offset="1.0" stop-color="rgb(221, 255, 82)" stop-opacity="1.0"/>
    </radialGradient>
    <radialGradient id="shape_40_fill" cx="0.6139993639303598" cy="0.8791970565180073" r="0.06913097958890196">
      <stop offset="0.33816144" stop-color="rgb(159, 148, 132)" stop-opacity="0.5550050139427185"/>
      <stop offset="0.5072261" stop-color="rgb(0, 11, 71)" stop-opacity="1.0"/>
    </radialGradient>
    <radialGradient id="shape_41_fill" cx="0.6454005934718101" cy="0.08744394618834081" r="0.06617211022079875">
      <stop offset="0.0" stop-color="rgb(58, 48, 21)" stop-opacity="1.0"/>
      <stop offset="1.0" stop-color="rgb(90, 62, 16)" stop-opacity="0.9924278855323792"/>
    </radialGradient>
    <radialGradient id="shape_42_fill" cx="0.5845697329376854" cy="0.6188340807174888" r="0.06617211022079875">
      <stop offset="0.0" stop-color="rgb(62, 59, 56)" stop-opacity="1.0"/>
      <stop offset="1.0" stop-color="rgb(33, 28, 78)" stop-opacity="0.5984891057014465"/>
    </radialGradient>
    <radialGradient id="shape_43_fill" cx="0.35554843981824924" cy="0.5028308817089406" r="0.06883703282749618">
      <stop offset="0.2736547" stop-color="rgb(125, 169, 51)" stop-opacity="0.9318177103996277"/>
      <stop offset="0.55530804" stop-color="rgb(207, 255, 27)" stop-opacity="0.8556228876113892"/>
    </radialGradient>
    <radialGradient id="shape_44_fill" cx="0.5934718100890207" cy="0.9977578475336323" r="0.06617211022079875">
      <stop offset="0.0" stop-color="rgb(89, 61, 18)" stop-opacity="1.0"/>
      <stop offset="1.0" stop-color="rgb(164, 83, 0)" stop-opacity="0.7635596394538879"/>
    </radialGradient>
    <radialGradient id="shape_45_fill" cx="0.612759643916914" cy="0.04035874439461883" r="0.06617211022079875">
      <stop offset="0.0" stop-color="rgb(157, 136, 123)" stop-opacity="1.0"/>
      <stop offset="1.0" stop-color="rgb(255, 228, 207)" stop-opacity="1.0"/>
    </radialGradient>
    <radialGradient id="shape_46_fill" cx="0.28635014836795253" cy="0.9977578475336323" r="0.06617211022079875">
      <stop offset="0.0" stop-color="rgb(82, 99, 55)" stop-opacity="1.0"/>
      <stop offset="1.0" stop-color="rgb(95, 112, 26)" stop-opacity="0.5652877688407898"/>
    </radialGradient>
    <radialGradient id="shape_47_fill" cx="0.28635014836795253" cy="0.8183856502242153" r="0.06617211022079875">
      <stop offset="0.0" stop-color="rgb(166, 189, 197)" stop-opacity="1.0"/>
      <stop offset="1.0" stop-color="rgb(255, 255, 255)" stop-opacity="0.4620189070701599"/>
    </radialGradient>
    <radialGradient id="shape_48_fill" cx="0.40801186943620177" cy="0.9977578475336323" r="0.06617211022079875">
      <stop offset="0.0" stop-color="rgb(107, 135, 68)" stop-opacity="1.0"/>
      <stop offset="1.0" stop-color="rgb(131, 148, 54)" stop-opacity="1.0"/>
    </radialGradient>
    <radialGradient id="shape_49_fill" cx="0.19287833827893175" cy="0.3991031390134529" r="0.06617211022079875">
      <stop offset="0.0" stop-color="rgb(92, 100, 54)" stop-opacity="1.0"/>
      <stop offset="1.0" stop-color="rgb(65, 43, 3)" stop-opacity="0.5272929072380066"/>
    </radialGradient>
    <radialGradient id="shape_50_fill" cx="0.6439169139465876" cy="0.7376681614349776" r="0.06617211022079875">
      <stop offset="0.0" stop-color="rgb(65, 56, 25)" stop-opacity="1.0"/>
      <stop offset="1.0" stop-color="rgb(153, 197, 97)" stop-opacity="0.4470585584640503"/>
    </radialGradient>
    <radialGradient id="shape_51_fill" cx="0.5845697329376854" cy="0.6322869955156951" r="0.06617211022079875">
      <stop offset="0.0" stop-color="rgb(75, 68, 60)" stop-opacity="1.0"/>
      <stop offset="1.0" stop-color="rgb(140, 110, 88)" stop-opacity="0.7248573899269104"/>
    </radialGradient>
    <radialGradient id="shape_52_fill" cx="0.2997032640949555" cy="0.6031390134529148" r="0.06617211022079875">
      <stop offset="0.0" stop-color="rgb(107, 158, 118)" stop-opacity="1.0"/>
      <stop offset="1.0" stop-color="rgb(189, 255, 250)" stop-opacity="0.5350185036659241"/>
    </radialGradient>
    <radialGradient id="shape_53_fill" cx="0.6097922848664689" cy="0.45067264573991034" r="0.06617211022079875">
      <stop offset="0.0" stop-color="rgb(38, 39, 27)" stop-opacity="1.0"/>
      <stop offset="1.0" stop-color="rgb(18, 13, 42)" stop-opacity="0.3830599784851074"/>
    </radialGradient>
    <radialGradient id="shape_54_fill" cx="0.6335311572700296" cy="0.426009002822397" r="0.06617211022079875">
      <stop offset="0.0" stop-color="rgb(67, 49, 20)" stop-opacity="1.0"/>
      <stop offset="1.0" stop-color="rgb(131, 74, 16)" stop-opacity="0.7152847647666931"/>
    </radialGradient>
    <radialGradient id="shape_55_fill" cx="0.3707168533823257" cy="0.5988430827187851" r="0.066001377049115">
      <stop offset="0.4360589" stop-color="rgb(239, 255, 52)" stop-opacity="0.9041499495506287"/>
      <stop offset="0.1608918" stop-color="rgb(199, 255, 0)" stop-opacity="0.7422935962677002"/>
    </radialGradient>
    <radialGradient id="shape_56_fill" cx="0.5489614243323442" cy="0.600896860986547" r="0.06617211022079875">
      <stop offset="0.0" stop-color="rgb(50, 62, 80)" stop-opacity="1.0"/>
      <stop offset="1.0" stop-color="rgb(26, 73, 219)" stop-opacity="0.4668255150318146"/>
    </radialGradient>
    <radialGradient id="shape_57_fill" cx="0.4094955489614243" cy="0.9035874439461884" r="0.06617211022079875">
      <stop offset="0.0" stop-color="rgb(111, 144, 47)" stop-opacity="1.0"/>
      <stop offset="1.0" stop-color="rgb(165, 220, 7)" stop-opacity="0.6525840759277344"/>
    </radialGradient>
    <radialGradient id="shape_58_fill" cx="0.5281899109792285" cy="0.9977578475336323" r="0.06617211022079875">
      <stop offset="0.0" stop-color="rgb(50, 43, 14)" stop-opacity="1.0"/>
      <stop offset="1.0" stop-color="rgb(72, 51, 3)" stop-opacity="1.0"/>
    </radialGradient>
    <radialGradient id="shape_59_fill" cx="0.5845697329376854" cy="0.7690582959641256" r="0.06617211022079875">
      <stop offset="0.0" stop-color="rgb(61, 63, 58)" stop-opacity="1.0"/>
      <stop offset="1.0" stop-color="rgb(78, 75, 96)" stop-opacity="0.7091410756111145"/>
    </radialGradient>
    <radialGradient id="shape_60_fill" cx="0.5489614243323442" cy="0.9977578475336323" r="0.06617211022079875">
      <stop offset="0.0" stop-color="rgb(140, 131, 64)" stop-opacity="1.0"/>
      <stop offset="1.0" stop-color="rgb(238, 210, 89)" stop-opacity="0.9244025349617004"/>
    </radialGradient>
    <radialGradient id="shape_61_fill" cx="0.6468647580472228" cy="0.9686297087391396" r="0.06617092166527089">
      <stop offset="0.4309738" stop-color="rgb(255, 231, 59)" stop-opacity="1.0"/>
      <stop offset="0.7393708" stop-color="rgb(248, 198, 7)" stop-opacity="0.9312321543693542"/>
    </radialGradient>
    <radialGradient id="shape_62_fill" cx="0.615727002967359" cy="0.3991031390134529" r="0.06617211022079875">
      <stop offset="0.0" stop-color="rgb(55, 47, 13)" stop-opacity="1.0"/>
      <stop offset="1.0" stop-color="rgb(76, 52, 0)" stop-opacity="1.0"/>
    </radialGradient>
    <radialGradient id="shape_63_fill" cx="0.6261127596439169" cy="0.7286995515695067" r="0.06617211022079875">
      <stop offset="0.0" stop-color="rgb(79, 66, 32)" stop-opacity="1.0"/>
      <stop offset="1.0" stop-color="rgb(200, 210, 107)" stop-opacity="0.6441568732261658"/>
    </radialGradient>
    <radialGradient id="shape_64_fill" cx="0.40801186943620177" cy="0.12556053811659193" r="0.06617211022079875">
      <stop offset="0.0" stop-color="rgb(76, 66, 59)" stop-opacity="1.0"/>
      <stop offset="1.0" stop-color="rgb(104, 76, 69)" stop-opacity="1.0"/>
    </radialGradient>
    <radialGradient id="shape_65_fill" cx="0.6528189910979229" cy="0.6883408071748879" r="0.06617211022079875">
      <stop offset="0.0" stop-color="rgb(121, 97, 39)" stop-opacity="1.0"/>
      <stop offset="1.0" stop-color="rgb(255, 251, 93)" stop-opacity="1.0"/>
    </radialGradient>
    <radialGradient id="shape_66_fill" cx="0.6521821517265162" cy="0.4604900343001156" r="0.06961443303954354">
      <stop offset="0.24854577" stop-color="rgb(159, 193, 108)" stop-opacity="0.3272118866443634"/>
      <stop offset="0.94181085" stop-color="rgb(0, 0, 0)" stop-opacity="0.057682979851961136"/>
    </radialGradient>
    <radialGradient id="shape_67_fill" cx="0.595644670707182" cy="0.9951417520976388" r="0.06939241086693829">
      <stop offset="0.85362244" stop-color="rgb(53, 30, 0)" stop-opacity="0.7315667271614075"/>
      <stop offset="1.0" stop-color="rgb(0, 0, 0)" stop-opacity="0.15839463472366333"/>
    </radialGradient>
    <radialGradient id="shape_68_fill" cx="0.4897787846868045" cy="0.9965285912757497" r="0.06789436679919325">
      <stop offset="0.3705618" stop-color="rgb(49, 24, 6)" stop-opacity="0.6067878603935242"/>
      <stop offset="1.0" stop-color="rgb(40, 63, 57)" stop-opacity="0.245487242937088"/>
    </radialGradient>
  </defs>
  <g>
    <path d="M -0.014388306066393852 271.2305908203125 C 26.16926383972168 267.1774597167969 36.3354606628418 268.7171936035156 45.345252990722656 272.7164001464844 C 48.103702545166016 274.3383483886719 49.363609313964844 276.3133544921875 57.08217239379883 274.49664306640625 C 59.64662551879883 273.8436584472656 63.33073425292969 274.2739562988281 64.5412826538086 272.01556396484375 C 70.08370971679688 269.8544616699219 100.33515930175781 270.89764404296875 116.80815887451172 270.9942932128906 C 121.21440887451172 270.7674255371094 125.31535339355469 277.38165283203125 124.7937240600586 282.3312072753906 C 132.79806518554688 282.6618347167969 140.2476806640625 281.6354064941406 155.86929321289062 287.6735534667969 C 185.28033447265625 282.40667724609375 185.78863525390625 282.4197082519531 206.65794372558594 287.2517395019531 C 200.0150909423828 287.7624206542969 198.17279052734375 281.81854248046875 210.86306762695312 270.0710144042969 C 245.8069610595703 270.80535888671875 289.12420654296875 269.6176452636719 313.0127868652344 275.2265625 C 347.34149169921875 277.3255615234375 424.04534912109375 277.6963195800781 468.09521484375 273.0176086425781 C 496.1363525390625 270.60772705078125 546.2410278320312 271.6123962402344 546.1865234375 277.724609375 C 547.9810791015625 278.311279296875 549.5899658203125 273.4562683105469 568.6666870117188 270.7064208984375 C 584.7714233398438 274.52752685546875 612.2599487304688 282.9141845703125 612.566650390625 282.9883117675781 C 625.708251953125 271.9808654785156 635.3720703125 271.6131591796875 670.0325317382812 271.0122375488281 C 674.9663696289062 273.4710998535156 678.919677734375 279.2052307128906 678.4033813476562 284.9886779785156 C 676.6068115234375 339.5111999511719 674.7254638671875 391.5036315917969 675.1177368164062 446.4668273925781 C 451.9151306152344 446.6697692871094 228.9889373779297 446.8115539550781 -0.47209101915359497 446.4240417480469 C -0.44468966126441956 389.14483642578125 0.07644467055797577 332.3588562011719 -0.014388306066393852 271.2305908203125" stroke-width="0.0" fill="url(#shape_0_fill)"/>
    <path d="M -0.016025764867663383 271.23272705078125 C 35.933353424072266 275.3974609375 36.5576057434082 274.58892822265625 44.29531478881836 274.3177795410156 C 47.63688659667969 267.18621826171875 59.671878814697266 266.61224365234375 77.51866912841797 268.3912048339844 C 113.52360534667969 278.68035888671875 114.03252410888672 279.3109130859375 127.16170501708984 279.297119140625 C 127.88516998291016 272.5439147949219 142.07945251464844 270.8268737792969 146.13633728027344 269.82708740234375 C 185.1634063720703 269.3023986816406 185.84457397460938 271.2003479003906 202.6275634765625 274.76123046875 C 203.06553649902344 291.957275390625 204.52963256835938 292.2051696777344 214.0252227783203 296.8132019042969 C 216.2366943359375 295.8613586425781 267.893798828125 298.17437744140625 288.73138427734375 299.8623352050781 C 319.1339111328125 301.8834228515625 449.2618103027344 299.93450927734375 462.66937255859375 301.2466735839844 C 478.58416748046875 292.884521484375 487.9541320800781 291.0425109863281 504.5054931640625 287.2132873535156 C 510.5149230957031 287.7827453613281 520.2922973632812 286.4139404296875 522.87744140625 286.46966552734375 C 527.487060546875 285.6963806152344 531.8260498046875 285.9135437011719 534.9398803710938 287.0967712402344 C 542.2330932617188 286.9863586425781 546.566162109375 288.2394714355469 553.629150390625 300.0101318359375 C 579.6902465820312 289.22509765625 581.1010131835938 290.7138977050781 593.707763671875 293.98468017578125 C 611.7963256835938 289.03472900390625 622.8914184570312 288.0257263183594 633.7627563476562 288.47113037109375 C 644.9613647460938 279.23797607421875 656.0120849609375 284.2380676269531 673.7990112304688 290.9982604980469 C 674.0264892578125 340.48626708984375 674.4624633789062 392.185302734375 674.155517578125 446.2807922363281 C 451.4774169921875 446.3905334472656 229.19664001464844 446.25439453125 -0.3076566159725189 446.2476501464844 C -0.2135799378156662 389.4035949707031 -0.2940194308757782 333.0278625488281 -0.016025764867663383 271.23272705078125" stroke-width="0.0" fill="url(#shape_1_fill)"/>
    <path d="M -0.019932430237531662 -0.25989267230033875 C 219.69313049316406 0.1040392518043518 439.478759765625 -0.45242562890052795 672.2390747070312 -0.1882227212190628 C 665.7147827148438 10.799738883972168 645.0307006835938 35.765621185302734 637.912841796875 48.23429489135742 C 634.1234741210938 53.04927062988281 610.9266967773438 93.42473602294922 584.7647705078125 84.0421142578125 C 577.6372680664062 81.70844268798828 560.72509765625 70.51689910888672 532.1851196289062 74.02476501464844 C 532.2374877929688 77.25076293945312 524.6935424804688 78.46104431152344 522.3440551757812 72.12137603759766 C 522.6268920898438 68.84447479248047 499.4692077636719 63.797080993652344 499.4869079589844 62.670310974121094 C 492.83428955078125 62.12894821166992 486.33074951171875 61.012542724609375 484.38067626953125 68.463134765625 C 475.216552734375 72.18268585205078 476.0282897949219 75.3940658569336 477.1835021972656 84.00790405273438 C 484.7197265625 98.5056381225586 476.7525939941406 116.20001983642578 473.04376220703125 120.21758270263672 C 460.488525390625 117.81401062011719 459.1529846191406 113.64811706542969 450.3680419921875 108.3473892211914 C 435.2202453613281 107.88632202148438 411.69842529296875 102.35076141357422 410.2457580566406 104.9817123413086 C 412.3869323730469 120.09244537353516 414.5257263183594 126.64149475097656 411.9298400878906 136.65191650390625 C 408.893798828125 146.5098419189453 398.29058837890625 145.8260955810547 392.55224609375 136.5296630859375 C 381.6627197265625 143.36373901367188 375.785400390625 158.1304931640625 369.1851501464844 157.4307098388672 C 367.25238037109375 157.9822998046875 365.0782165527344 161.52471923828125 360.2108154296875 165.8094940185547 C 356.9931640625 168.9532928466797 353.685546875 168.6439971923828 351.114990234375 174.14366149902344 C 345.4081726074219 181.45506286621094 337.0647277832031 174.90687561035156 337.7940673828125 168.35888671875 C 302.5535583496094 167.0808868408203 301.4437561035156 173.63792419433594 299.4115905761719 179.28099060058594 C 303.683349609375 188.3361053466797 304.18231201171875 191.54161071777344 307.4862976074219 201.4775390625 C 307.4681396484375 200.6854705810547 306.0793151855469 198.1873321533203 304.1174011230469 190.87644958496094 C 305.1815185546875 186.3321075439453 303.6098937988281 185.70249938964844 287.86968994140625 177.5330047607422 C 289.6535949707031 194.58389282226562 289.2603759765625 195.97154235839844 289.5500793457031 196.28372192382812 C 288.61383056640625 190.0162811279297 289.3650817871094 182.53663635253906 286.8815002441406 177.6153106689453 C 272.5427551269531 180.2101593017578 269.7392578125 184.69837951660156 262.1217041015625 180.21011352539062 C 254.8844757080078 183.35931396484375 255.53836059570312 187.4910888671875 255.2195587158203 197.51881408691406 C 260.7323913574219 199.3719024658203 260.60308837890625 199.96249389648438 257.7440490722656 199.43600463867188 C 257.1719970703125 198.37855529785156 253.44284057617188 195.3140106201172 254.2280731201172 194.06948852539062 C 256.38507080078125 187.3771209716797 259.57000732421875 184.96176147460938 255.97592163085938 168.95265197753906 C 258.07879638671875 164.3787841796875 216.42538452148438 141.8426513671875 213.7944793701172 140.34234619140625 C 185.7763214111328 130.2052001953125 195.42489624023438 103.61878967285156 191.6345672607422 87.23456573486328 C 192.20452880859375 84.40540313720703 160.32037353515625 73.47991180419922 134.59242248535156 60.645896911621094 C 110.28385925292969 39.62211608886719 71.18305206298828 55.75959396362305 39.59959411621094 60.98103713989258 C 23.459394454956055 70.08123779296875 5.853545188903809 69.2175521850586 -0.9468932747840881 69.80914306640625 C 0.34183040261268616 43.958133697509766 -0.3314551115036011 22.56187629699707 -0.019932430237531662 -0.25989267230033875" stroke-width="0.0" fill="url(#shape_2_fill)"/>
    <path d="M 86.71416473388672 61.10233688354492 C 89.18144989013672 68.746337890625 92.00243377685547 68.95849609375 93.34111022949219 70.75992584228516 C 91.03298950195312 80.71876525878906 91.86964416503906 80.97813415527344 90.3621826171875 91.44733428955078 C 96.63165283203125 85.90345001220703 98.15262603759766 86.76295471191406 103.17098236083984 87.7783432006836 C 104.53475189208984 75.18111419677734 105.85787200927734 73.40767669677734 108.34083557128906 73.21034240722656 C 112.25882720947266 87.6052017211914 110.89876556396484 93.41411590576172 116.4444580078125 99.34536743164062 C 116.48677062988281 100.05542755126953 116.28328704833984 109.00186920166016 115.50592041015625 115.37101745605469 C 124.07365417480469 115.32437896728516 128.6309051513672 115.7020034790039 129.44371032714844 112.58564758300781 C 130.5350341796875 109.78165435791016 136.6257781982422 108.45325469970703 136.52877807617188 104.66432189941406 C 136.6278076171875 103.67926025390625 135.54867553710938 101.80933380126953 137.22044372558594 98.29287719726562 C 136.4779510498047 93.26515197753906 137.50186157226562 92.8897476196289 137.53192138671875 89.25643920898438 C 137.31256103515625 84.97532653808594 138.6205291748047 84.88581848144531 139.4709930419922 86.8201675415039 C 140.07586669921875 82.78499603271484 146.70716857910156 80.7136001586914 148.00831604003906 83.2342300415039 C 148.62066650390625 93.26001739501953 150.2666473388672 94.52357482910156 152.01644897460938 99.08040618896484 C 153.49566650390625 102.97203826904297 149.92086791992188 106.90821838378906 148.82852172851562 106.71492004394531 C 152.64205932617188 109.86231231689453 150.52540588378906 114.1339111328125 148.4921112060547 113.43821716308594 C 154.40072631835938 112.84040069580078 157.8658905029297 122.59664154052734 157.2546844482422 123.26497650146484 C 161.34706115722656 125.03328704833984 165.0245819091797 123.47042846679688 169.6227264404297 122.67330932617188 C 174.38999938964844 119.7296371459961 175.78379821777344 121.51492309570312 177.71849060058594 122.50386047363281 C 179.3295135498047 122.6845932006836 179.9683074951172 125.36132049560547 182.93267822265625 127.70001220703125 C 183.8305206298828 130.2041778564453 182.412841796875 133.124755859375 183.82867431640625 135.35134887695312 C 186.51756286621094 135.3433380126953 187.57652282714844 142.78042602539062 188.90921020507812 145.20761108398438 C 194.7806396484375 146.25222778320312 206.65118408203125 154.6140594482422 201.53060913085938 173.0752716064453 C 205.4119110107422 176.0092010498047 205.80870056152344 178.61231994628906 205.59085083007812 181.9254913330078 C 213.216796875 181.56141662597656 214.3809356689453 197.0941162109375 212.53872680664062 203.58387756347656 C 205.81741333007812 206.8280792236328 203.34288024902344 207.46060180664062 203.1307373046875 210.2567596435547 C 200.7681884765625 210.5261688232422 199.9381103515625 211.69671630859375 200.19216918945312 213.53875732421875 C 196.38397216796875 215.27113342285156 193.4869842529297 215.36195373535156 191.92884826660156 219.6524658203125 C 184.28639221191406 220.9501190185547 183.5970001220703 224.75538635253906 178.60130310058594 230.17388916015625 C 176.4072265625 233.54212951660156 180.32492065429688 239.3185577392578 181.09873962402344 241.3027801513672 C 182.15103149414062 252.10804748535156 186.21949768066406 261.0729675292969 178.67811584472656 264.8069763183594 C 173.9567108154297 268.143798828125 148.49229431152344 268.22314453125 136.73927307128906 269.63885498046875 C 131.90036010742188 269.3840026855469 128.4446563720703 271.9931945800781 121.09901428222656 274.84600830078125 C 109.11177062988281 276.9302062988281 73.2757568359375 276.0650329589844 73.0533676147461 270.01507568359375 C 47.6915397644043 266.76751708984375 56.54991912841797 268.56768798828125 57.53697967529297 273.5799255371094 C 48.18428421020508 276.3247985839844 0.659837543964386 272.79803466796875 0.7001224160194397 270.0619201660156 C -5.499471187591553 224.1397247314453 -3.3698174953460693 168.3311309814453 2.3644449710845947 121.23081970214844 C 11.774062156677246 119.12181091308594 21.941987991333008 114.0653305053711 26.427644729614258 121.5614242553711 C 26.956993103027344 129.4337158203125 35.714149475097656 128.8874969482422 41.68690490722656 131.88101196289062 C 47.04897689819336 130.3484649658203 47.69094467163086 131.58062744140625 49.4013557434082 142.2482147216797 C 50.30343246459961 148.06414794921875 61.548126220703125 148.51962280273438 62.789268493652344 146.42233276367188 C 62.182167053222656 136.8154754638672 63.055965423583984 133.9450225830078 62.22916793823242 128.3380584716797 C 68.40644073486328 126.76322174072266 67.61166381835938 123.28002166748047 66.31621551513672 112.51301574707031 C 67.99706268310547 111.15580749511719 68.38839721679688 106.07588195800781 75.69792938232422 102.87781524658203 C 74.23274230957031 100.88694763183594 78.39952850341797 91.60135650634766 77.16606903076172 85.59162902832031 C 77.12069702148438 83.86854553222656 78.06259155273438 74.8499755859375 85.23590850830078 75.42809295654297 C 82.97187805175781 70.12767028808594 83.34192657470703 67.56764221191406 86.71416473388672 61.10233688354492" stroke-width="0.0" fill="url(#shape_3_fill)"/>
    <path d="M 673.951171875 -0.7786341309547424 C 676.1093139648438 47.832603454589844 675.0172119140625 95.90827178955078 679.8648681640625 139.6769561767578 C 676.3770751953125 127.91487121582031 668.43994140625 124.10454559326172 661.600341796875 120.33332061767578 C 660.8853149414062 120.03592681884766 655.1052856445312 109.37738037109375 649.71044921875 110.91322326660156 C 648.6802368164062 112.52425384521484 644.9781494140625 149.22830200195312 642.9330444335938 155.54678344726562 C 629.9225463867188 154.55538940429688 626.8121948242188 142.92059326171875 627.049560546875 138.30397033691406 C 623.0216064453125 137.39541625976562 618.9246826171875 145.3336181640625 615.4281005859375 144.0523681640625 C 611.6814575195312 142.31614685058594 610.1561889648438 143.34332275390625 607.7691040039062 141.09915161132812 C 608.9181518554688 138.0299835205078 612.329833984375 132.95811462402344 606.79443359375 120.15869903564453 C 598.201904296875 133.76177978515625 597.50439453125 139.29685974121094 594.362060546875 142.7100372314453 C 599.0506591796875 147.34152221679688 597.6126098632812 151.86550903320312 597.53662109375 152.2911376953125 C 588.58837890625 157.43804931640625 587.254638671875 164.17938232421875 579.505859375 172.28250122070312 C 571.801513671875 170.32142639160156 569.9323120117188 158.61767578125 568.7791748046875 157.14859008789062 C 565.846923828125 157.591796875 563.40380859375 153.64007568359375 561.6575317382812 151.8885955810547 C 560.1060180664062 150.65892028808594 556.257080078125 150.98709106445312 555.7677001953125 156.19654846191406 C 551.92431640625 156.17930603027344 550.3646850585938 158.88954162597656 548.853759765625 158.8037567138672 C 547.4517822265625 156.84860229492188 544.1920166015625 156.6048126220703 536.1668090820312 153.78648376464844 C 531.7926635742188 154.89791870117188 529.9669799804688 158.6735076904297 523.4057006835938 157.0695343017578 C 518.7999267578125 160.6612548828125 520.5531005859375 161.98667907714844 522.944091796875 169.44273376464844 C 517.6099853515625 168.44851684570312 516.9598388671875 170.9286346435547 516.316650390625 171.61651611328125 C 511.2713623046875 173.32232666015625 509.8157043457031 175.26531982421875 505.63751220703125 174.399169921875 C 502.779541015625 171.39578247070312 502.9850769042969 169.52394104003906 502.5384521484375 159.11862182617188 C 492.9824523925781 145.48101806640625 507.4024353027344 121.82965087890625 518.4125366210938 126.48648071289062 C 523.841064453125 125.4098892211914 539.698486328125 110.45659637451172 548.8010864257812 113.00442504882812 C 557.22265625 110.71308135986328 556.9041137695312 109.38140869140625 557.884765625 107.10258483886719 C 560.1132202148438 108.42110443115234 565.0181274414062 103.06491088867188 570.561767578125 104.9715805053711 C 574.5883178710938 102.43765258789062 573.41748046875 97.45260620117188 578.943603515625 94.13075256347656 C 584.1312255859375 88.51634979248047 597.2684326171875 77.33148956298828 613.5747680664062 78.2673110961914 C 616.977294921875 73.63480377197266 645.2095947265625 51.5165901184082 645.0506591796875 35.49275588989258 C 644.97900390625 32.45029067993164 647.999267578125 30.392377853393555 647.6732177734375 29.55363655090332 C 646.9950561523438 28.30272102355957 664.5140991210938 -4.104018211364746 673.951171875 -0.7786341309547424" stroke-width="0.0" fill="url(#shape_4_fill)"/>
    <path d="M 151.58665466308594 68.51248931884766 C 152.31106567382812 69.05238342285156 186.0961456298828 84.5603256225586 192.7857666015625 92.91847229003906 C 179.09231567382812 117.67144012451172 217.70423889160156 150.0627899169922 220.84857177734375 154.92835998535156 C 238.86778259277344 170.0393524169922 241.98178100585938 184.18431091308594 240.81788635253906 193.86285400390625 C 238.1309051513672 193.19778442382812 236.17938232421875 186.48512268066406 236.76953125 184.060302734375 C 235.68115234375 183.5685577392578 234.15721130371094 184.29693603515625 231.0790557861328 182.7113494873047 C 231.09413146972656 183.9872283935547 232.18702697753906 193.91864013671875 228.62673950195312 195.66786193847656 C 227.57603454589844 196.6351776123047 227.04664611816406 205.27264404296875 221.3911895751953 207.7106170654297 C 215.08009338378906 206.59133911132812 214.32168579101562 197.86529541015625 214.66168212890625 194.87423706054688 C 212.96043395996094 185.43682861328125 211.89723205566406 184.9440155029297 206.49815368652344 177.40948486328125 C 205.96405029296875 173.01681518554688 206.11439514160156 165.72525024414062 203.99346923828125 159.03819274902344 C 206.30133056640625 153.27706909179688 194.8406524658203 144.694091796875 193.36495971679688 141.2069854736328 C 189.0753631591797 140.23812866210938 188.83721923828125 137.39599609375 186.80709838867188 135.91299438476562 C 178.4494171142578 133.1267852783203 179.06809997558594 126.76419830322266 183.22523498535156 117.32103729248047 C 179.3900909423828 116.47530364990234 177.397705078125 117.65032958984375 172.98806762695312 117.76367950439453 C 179.11891174316406 128.00650024414062 175.56039428710938 131.21572875976562 151.78225708007812 130.29888916015625 C 149.6383514404297 126.88953399658203 151.78555297851562 102.93222045898438 153.878173828125 94.78413391113281 C 152.91502380371094 88.7416763305664 153.44056701660156 86.561279296875 149.89100646972656 76.3170394897461 C 148.18637084960938 75.92190551757812 148.7117156982422 69.31007385253906 151.58665466308594 68.51248931884766" stroke-width="0.0" fill="url(#shape_5_fill)"/>
    <path d="M 612.0951538085938 82.10213470458984 C 618.648681640625 84.13801574707031 619.642333984375 85.97290802001953 630.9068603515625 85.88909149169922 C 636.1220092773438 86.02887725830078 637.191162109375 87.69776916503906 641.2241821289062 88.88119506835938 C 642.1558227539062 87.36701202392578 667.8726196289062 92.08270263671875 674.0000610351562 98.048828125 C 674.6927490234375 111.50579071044922 674.4432983398438 126.32221221923828 675.1337890625 150.8973388671875 C 665.7529907226562 142.62294006347656 662.9574584960938 136.56674194335938 659.8082275390625 130.11048889160156 C 659.770263671875 121.987060546875 660.38037109375 116.26355743408203 652.0874633789062 111.47203063964844 C 646.885986328125 115.00579833984375 644.8041381835938 142.3214111328125 642.3064575195312 143.1134796142578 C 643.6641845703125 144.89244079589844 642.6102905273438 148.3193359375 643.709716796875 150.4785919189453 C 639.9156494140625 150.8123016357422 637.9055786132812 152.79689025878906 634.8056030273438 153.05088806152344 C 631.5031127929688 146.33522033691406 629.19287109375 141.39401245117188 630.0994262695312 140.5306396484375 C 628.8654174804688 138.16163635253906 621.2835083007812 136.84066772460938 620.978759765625 138.7471466064453 C 618.25 140.5668182373047 619.3402709960938 142.3623809814453 618.6453857421875 146.6395263671875 C 614.605224609375 144.58929443359375 613.5589599609375 143.18641662597656 610.248779296875 143.62057495117188 C 608.5394897460938 140.40560913085938 609.5924072265625 139.24325561523438 609.181884765625 137.45053100585938 C 606.527099609375 132.35069274902344 604.8419799804688 126.63573455810547 598.0635375976562 128.10731506347656 C 604.9917602539062 133.84661865234375 595.380859375 148.42135620117188 591.6775512695312 156.04991149902344 C 590.535888671875 163.84646606445312 589.2062377929688 164.07701110839844 585.5084228515625 169.0009002685547 C 584.7574462890625 167.65318298339844 583.9644165039062 165.37608337402344 588.8383178710938 155.9664306640625 C 583.3890991210938 152.6120147705078 578.267578125 151.05609130859375 575.3675537109375 148.63180541992188 C 564.5803833007812 155.40911865234375 556.2669067382812 155.6255645751953 556.15625 151.3614501953125 C 555.8475952148438 152.91941833496094 553.076904296875 154.708740234375 552.8944091796875 157.76319885253906 C 551.01416015625 161.61228942871094 548.014404296875 160.58615112304688 547.368408203125 159.09100341796875 C 544.4053344726562 156.72227478027344 542.9613647460938 154.37164306640625 537.4052734375 157.4897003173828 C 534.9786987304688 158.4986114501953 531.2297973632812 157.26992797851562 528.5859985351562 158.22476196289062 C 526.11083984375 159.28176879882812 526.3948364257812 162.6295623779297 524.9873657226562 165.74856567382812 C 524.4617309570312 169.4114990234375 523.5211181640625 171.56504821777344 519.0355224609375 173.08474731445312 C 511.8295593261719 177.30807495117188 504.3721923828125 172.32501220703125 488.459228515625 163.2499542236328 C 484.5883483886719 138.52304077148438 501.7297668457031 118.84075927734375 512.999755859375 118.33934783935547 C 529.7198486328125 127.3662109375 540.2285766601562 108.31044006347656 550.1441650390625 111.75223541259766 C 555.5213623046875 109.9944839477539 560.3221435546875 109.82623291015625 563.8594970703125 106.72863006591797 C 564.6244506835938 104.51417541503906 566.6522827148438 103.61670684814453 569.8953247070312 104.42424011230469 C 574.5333862304688 101.26432037353516 578.4600219726562 97.4688491821289 586.5391845703125 98.89639282226562 C 600.3486938476562 93.48796081542969 604.5130615234375 80.38737487792969 612.0951538085938 82.10213470458984" stroke-width="0.0" fill="url(#shape_6_fill)"/>
    <path d="M 0.583868682384491 108.59889221191406 C 30.823368072509766 118.54315185546875 40.230812072753906 126.24751281738281 51.02573776245117 139.4016571044922 C 79.78492736816406 156.07717895507812 51.768287658691406 215.90838623046875 45.32220458984375 238.91908264160156 C 50.80182647705078 260.20135498046875 48.4818115234375 264.6288146972656 48.37840270996094 265.5881652832031 C 44.52634048461914 263.7206726074219 17.670124053955078 259.4608154296875 9.507413864135742 256.16021728515625 C 4.4729084968566895 210.62060546875 -4.493929862976074 167.254638671875 0.583868682384491 108.59889221191406" stroke-width="0.0" fill="url(#shape_7_fill)"/>
    <path d="M 385.0837707519531 194.16294860839844 C 419.8794860839844 181.70599365234375 427.89837646484375 191.14039611816406 429.54412841796875 204.50746154785156 C 474.4634704589844 190.3189697265625 496.25665283203125 205.00819396972656 491.7095642089844 231.9400177001953 C 490.994873046875 250.4884033203125 486.2218017578125 251.49349975585938 484.8644714355469 252.38865661621094 C 485.92071533203125 258.7449951171875 482.4275207519531 268.9307556152344 476.9642028808594 269.10699462890625 C 469.04290771484375 272.9302978515625 453.2210388183594 266.7112731933594 451.62579345703125 269.7121887207031 C 447.03607177734375 266.2808837890625 448.2394104003906 261.207275390625 449.0305480957031 260.1727294921875 C 439.25286865234375 264.77069091796875 436.5140686035156 261.4087829589844 437.4387512207031 256.8374938964844 C 426.8406982421875 256.9534606933594 425.85760498046875 258.3600769042969 421.1376037597656 262.0885009765625 C 418.5280456542969 264.24273681640625 417.58917236328125 267.6571044921875 414.9215087890625 272.9879455566406 C 414.11016845703125 272.8324890136719 393.3385009765625 268.2506408691406 392.5863037109375 264.17449951171875 C 391.82373046875 265.10491943359375 388.9931335449219 263.3353271484375 385.9700927734375 263.6282043457031 C 382.11407470703125 261.9496765136719 380.8203125 263.1827392578125 376.5269470214844 261.05517578125 C 374.9292907714844 256.3250427246094 376.13323974609375 252.47152709960938 372.5016784667969 249.38951110839844 C 359.3131103515625 243.74343872070312 374.2301330566406 195.95364379882812 378.5175476074219 178.62974548339844 C 383.88824462890625 170.84024047851562 393.68145751953125 176.8258819580078 385.0837707519531 194.16294860839844" stroke-width="0.0" fill="url(#shape_8_fill)"/>
    <path d="M 566.18115234375 157.31698608398438 C 568.31298828125 158.85035705566406 568.1881713867188 166.6434783935547 569.4381103515625 167.9820556640625 C 573.5150146484375 169.4617462158203 573.6735229492188 170.9494171142578 577.5986938476562 174.34474182128906 C 581.931884765625 172.9434051513672 583.9734497070312 174.5655975341797 583.70703125 179.4731903076172 C 575.340576171875 180.47747802734375 572.0548095703125 225.61634826660156 577.280029296875 226.9659423828125 C 577.8799438476562 229.9567413330078 581.284912109375 235.65472412109375 577.029052734375 241.79562377929688 C 568.705810546875 238.648193359375 566.4278564453125 237.20420837402344 558.61865234375 247.2357635498047 C 554.1117553710938 250.30120849609375 494.44451904296875 254.271484375 487.9867858886719 251.75604248046875 C 485.93145751953125 250.37576293945312 486.9656066894531 239.3350372314453 491.7027282714844 229.32044982910156 C 486.4217529296875 226.27330017089844 483.1812438964844 222.29443359375 481.6929931640625 215.67938232421875 C 476.6767272949219 209.82127380371094 479.2812194824219 205.82896423339844 482.7460632324219 205.97213745117188 C 480.0546569824219 205.3317413330078 481.4293518066406 198.9013214111328 488.51153564453125 198.85708618164062 C 491.9363098144531 196.1884002685547 491.8213195800781 192.5010223388672 492.86700439453125 187.89796447753906 C 490.1292724609375 174.12205505371094 490.5071716308594 173.12779235839844 487.5510559082031 164.4417266845703 C 504.19482421875 163.4062957763672 505.6503601074219 166.55531311035156 517.2421264648438 165.68333435058594 C 523.1102905273438 169.39105224609375 524.7852783203125 167.4430694580078 526.0405883789062 167.73326110839844 C 523.7978515625 160.9435577392578 530.6554565429688 155.9384765625 533.321533203125 158.63174438476562 C 537.6271362304688 161.8479461669922 541.3870239257812 162.46388244628906 542.18017578125 163.96363830566406 C 545.232666015625 164.06365966796875 545.890625 165.7827606201172 549.7008666992188 166.55856323242188 C 548.9443969726562 165.6264190673828 551.2992553710938 157.32894897460938 554.6069946289062 158.0988311767578 C 557.985595703125 160.9355010986328 563.036865234375 157.83050537109375 566.18115234375 157.31698608398438" stroke-width="0.0" fill="url(#shape_9_fill)"/>
    <path d="M 561.6082153320312 156.57923889160156 C 566.2705078125 153.0950164794922 571.1563110351562 158.4683074951172 570.7869262695312 170.51681518554688 C 572.2409057617188 169.19525146484375 576.159423828125 169.23001098632812 579.5096435546875 174.68276977539062 C 580.17919921875 178.04293823242188 578.8983154296875 187.38343811035156 577.010986328125 191.53775024414062 C 571.2708740234375 196.7969512939453 571.9852905273438 229.9724884033203 578.07470703125 230.9769744873047 C 576.070068359375 231.159423828125 575.6058349609375 236.83531188964844 572.0420532226562 238.0343475341797 C 560.046630859375 235.9183807373047 567.3795776367188 238.63473510742188 563.8585815429688 248.1304931640625 C 549.4619140625 253.38003540039062 501.2862243652344 249.1965789794922 500.1813659667969 251.61671447753906 C 491.0707092285156 251.81617736816406 487.8807373046875 236.98583984375 491.1793518066406 229.97618103027344 C 486.6236572265625 224.92825317382812 481.9842834472656 219.27273559570312 481.5869140625 215.68161010742188 C 475.59356689453125 214.5600128173828 474.4685363769531 213.80422973632812 464.99359130859375 197.9990234375 C 464.5788269042969 189.0357666015625 474.4086608886719 185.1358184814453 483.27880859375 195.90325927734375 C 489.9819030761719 197.4232940673828 494.43426513671875 184.23263549804688 496.6300048828125 182.95521545410156 C 495.30780029296875 178.86119079589844 497.5828857421875 177.67745971679688 500.1708068847656 177.43247985839844 C 507.9254455566406 179.0807342529297 516.5477905273438 181.65875244140625 520.4449462890625 174.0334014892578 C 523.3355712890625 173.3177032470703 526.5494384765625 159.15101623535156 531.0380249023438 155.74227905273438 C 538.2562255859375 156.02182006835938 538.21044921875 160.10516357421875 540.7451782226562 165.9978790283203 C 545.754638671875 165.9154052734375 549.049560546875 167.3446807861328 551.3131103515625 166.11756896972656 C 551.1121826171875 156.03688049316406 553.1292114257812 153.0545654296875 561.6082153320312 156.57923889160156" stroke-width="0.0" fill="url(#shape_10_fill)"/>
    <path d="M 448.0893249511719 107.6334228515625 C 452.811767578125 110.53429412841797 454.04443359375 112.03807067871094 462.3129577636719 112.3782730102539 C 464.4188537597656 116.98571014404297 469.4562683105469 115.47943878173828 478.94903564453125 113.2603530883789 C 488.50048828125 124.50728607177734 488.7789306640625 125.25370025634766 493.4861755371094 130.72308349609375 C 494.090576171875 131.61474609375 493.1291198730469 134.9961700439453 496.7705383300781 136.46934509277344 C 494.7047119140625 135.21530151367188 492.6909484863281 137.9054718017578 488.3641357421875 140.97113037109375 C 483.0234375 136.7788848876953 481.4752197265625 138.60659790039062 476.0215148925781 143.987060546875 C 467.2391357421875 141.57774353027344 466.1112060546875 139.7621612548828 465.3213195800781 134.4056396484375 C 465.1750183105469 133.5079345703125 460.68731689453125 133.54568481445312 460.23876953125 134.30255126953125 C 460.87310791015625 134.36941528320312 477.60400390625 144.98623657226562 491.264404296875 154.11109924316406 C 476.33428955078125 176.71096801757812 475.4184265136719 177.21560668945312 472.8514404296875 181.79818725585938 C 467.0188903808594 182.56341552734375 466.5950012207031 187.3345489501953 465.7057800292969 189.30641174316406 C 464.0408020019531 184.02183532714844 462.42547607421875 173.3010711669922 458.5223693847656 171.90757751464844 C 448.2732238769531 179.37538146972656 447.49658203125 182.48167419433594 439.901611328125 183.0846710205078 C 439.4575500488281 183.86102294921875 435.8244323730469 195.6617889404297 434.9253845214844 197.27403259277344 C 429.9081115722656 200.11856079101562 417.5265197753906 180.57472229003906 417.70562744140625 179.73838806152344 C 416.94207763671875 179.6611785888672 398.21490478515625 179.3647003173828 397.8021545410156 172.90322875976562 C 393.7599182128906 170.9575958251953 389.80914306640625 176.36521911621094 379.7611999511719 174.65267944335938 C 381.1260986328125 161.69068908691406 382.1756286621094 147.621337890625 392.4499206542969 139.09783935546875 C 397.8841857910156 137.23269653320312 399.45538330078125 129.73463439941406 402.0348815917969 121.49925231933594 C 407.6305236816406 99.05502319335938 426.2259521484375 103.67989349365234 448.0893249511719 107.6334228515625" stroke-width="0.0" fill="url(#shape_11_fill)"/>
    <path d="M 602.8990478515625 127.54589080810547 C 606.1153564453125 131.34854125976562 605.3099365234375 144.08888244628906 607.8549194335938 144.31668090820312 C 611.2517700195312 145.44093322753906 611.9402465820312 148.74703979492188 615.7456665039062 152.5747833251953 C 618.2130126953125 149.87051391601562 618.2998046875 141.8317413330078 621.3485717773438 141.0017852783203 C 623.150146484375 137.47520446777344 625.4682006835938 137.42474365234375 627.7353515625 140.29823303222656 C 627.5809326171875 142.14317321777344 629.0537109375 144.73350524902344 629.0203247070312 147.2268829345703 C 632.11328125 149.76028442382812 631.7645874023438 151.1549072265625 636.7120361328125 153.3214874267578 C 642.1861572265625 154.7314910888672 641.863037109375 160.5006103515625 646.5297241210938 169.83897399902344 C 639.0581665039062 184.90042114257812 639.9701538085938 194.84544372558594 640.3150024414062 206.65884399414062 C 646.1928100585938 216.80580139160156 648.1803588867188 231.95391845703125 642.9262084960938 245.71502685546875 C 623.1688842773438 248.41510009765625 611.4628295898438 249.10568237304688 580.3953247070312 261.20758056640625 C 570.4869384765625 249.1672821044922 574.3632202148438 232.29978942871094 574.6808471679688 218.41445922851562 C 568.1243286132812 209.56057739257812 572.1749877929688 168.94577026367188 583.2384033203125 169.83029174804688 C 597.3223876953125 163.28453063964844 599.4569091796875 143.90090942382812 599.8756713867188 142.1144256591797 C 595.8464965820312 139.58522033691406 596.7396240234375 136.74525451660156 602.8990478515625 127.54589080810547" stroke-width="0.0" fill="url(#shape_12_fill)"/>
    <path d="M 410.7025146484375 176.52476501464844 C 420.4952087402344 173.80657958984375 432.70623779296875 213.08595275878906 428.72210693359375 220.4868927001953 C 419.905517578125 228.0791473388672 426.6682434082031 238.20584106445312 429.24102783203125 242.69056701660156 C 430.04071044921875 262.8639221191406 420.81109619140625 265.89990234375 415.8769836425781 268.4128723144531 C 402.13629150390625 267.17706298828125 399.37237548828125 271.2309265136719 390.5986633300781 267.5341796875 C 385.48736572265625 264.7725524902344 382.5028991699219 265.9823913574219 380.11468505859375 265.43414306640625 C 375.6465148925781 263.1691589355469 375.40643310546875 260.5009460449219 375.1929016113281 258.4766845703125 C 376.3654479980469 255.33656311035156 374.88397216796875 254.42327880859375 374.7342834472656 253.4479217529297 C 372.4034729003906 254.5442657470703 370.2303161621094 250.942138671875 368.7027587890625 251.7863006591797 C 359.8955078125 248.4016571044922 366.7273254394531 229.5257568359375 367.4605712890625 221.03289794921875 C 369.01947021484375 218.64112854003906 372.2287292480469 202.80636596679688 381.6767883300781 203.2127685546875 C 378.99481201171875 196.97482299804688 379.5234680175781 189.2155303955078 390.12432861328125 186.12030029296875 C 391.6619873046875 176.92520141601562 392.87890625 177.05303955078125 410.7025146484375 176.52476501464844" stroke-width="0.0" fill="url(#shape_13_fill)"/>
    <path d="M 508.71881103515625 66.92569732666016 C 512.646484375 66.0075454711914 521.3743286132812 70.07933807373047 523.2211303710938 74.8725357055664 C 530.7274780273438 79.40089416503906 533.7772216796875 80.01593780517578 536.6949462890625 90.30463409423828 C 539.286865234375 90.89425659179688 544.5418701171875 90.2986831665039 545.0235595703125 91.17035675048828 C 545.5346069335938 92.75190734863281 556.0739135742188 97.01130676269531 560.13818359375 95.32908630371094 C 563.5933227539062 97.5185546875 567.3378295898438 97.52572631835938 568.7423095703125 99.22852325439453 C 564.6949462890625 105.29894256591797 556.1847534179688 115.5218505859375 542.463134765625 110.87923431396484 C 541.405029296875 111.84729766845703 539.3148193359375 114.92010498046875 534.7998046875 118.41896057128906 C 528.0885620117188 120.98030853271484 520.02099609375 124.36936950683594 515.4212646484375 118.91915893554688 C 511.04705810546875 120.03897857666016 501.44647216796875 125.46159362792969 499.0555725097656 125.05411529541016 C 497.0959167480469 128.4168243408203 493.6723937988281 128.4039764404297 489.45355224609375 127.47378540039062 C 489.5782775878906 121.34416961669922 468.8121643066406 118.86198425292969 468.0984191894531 117.86336517333984 C 463.5459899902344 117.76451873779297 462.9383850097656 116.73274993896484 462.1091003417969 115.91705322265625 C 469.3684997558594 117.1771240234375 472.12042236328125 110.79935455322266 478.11224365234375 106.20182800292969 C 474.9609069824219 92.88094329833984 473.1280517578125 87.50542449951172 475.13629150390625 82.088623046875 C 474.5901184082031 70.93414306640625 475.34326171875 70.3865737915039 478.3941955566406 66.4711685180664 C 478.9231262207031 64.14410400390625 482.6710205078125 64.19023132324219 484.5459289550781 63.28501510620117 C 495.5860595703125 63.94718933105469 501.8470153808594 61.237247467041016 508.71881103515625 66.92569732666016" stroke-width="0.0" fill="url(#shape_14_fill)"/>
    <path d="M 532.542724609375 160.251220703125 C 543.8616333007812 162.7490692138672 544.1442260742188 163.6477813720703 547.0596923828125 165.12734985351562 C 549.6650390625 167.64950561523438 549.5833129882812 170.2729034423828 544.04541015625 179.86993408203125 C 541.848388671875 189.741943359375 536.936767578125 231.25045776367188 536.5480346679688 233.50320434570312 C 540.6249389648438 237.3643035888672 540.9869995117188 250.7294921875 515.6341552734375 252.26025390625 C 502.4087219238281 251.23043823242188 483.17279052734375 244.5613555908203 487.93084716796875 230.61094665527344 C 476.9879150390625 218.21469116210938 478.71917724609375 208.0713348388672 482.8547668457031 201.0568389892578 C 486.8501281738281 197.2390899658203 488.2639465332031 197.66705322265625 488.7784423828125 198.12059020996094 C 483.3448791503906 195.8282928466797 488.642822265625 181.76397705078125 487.6855163574219 172.73147583007812 C 487.19964599609375 168.1093292236328 488.5756530761719 165.7591094970703 491.55230712890625 167.21788024902344 C 505.6408996582031 178.79798889160156 511.12957763671875 184.1717529296875 522.7327270507812 172.72569274902344 C 525.5528564453125 170.960205078125 525.542236328125 167.3114776611328 526.9340209960938 165.1015167236328 C 525.8422241210938 158.93260192871094 528.6483764648438 157.9613494873047 532.542724609375 160.251220703125" stroke-width="0.0" fill="url(#shape_15_fill)"/>
    <path d="M 651.8659057617188 110.02190399169922 C 653.9871215820312 110.45335388183594 663.3905639648438 121.77841186523438 660.029296875 130.84532165527344 C 664.4022216796875 135.45425415039062 664.6544799804688 142.66128540039062 673.3765258789062 148.86611938476562 C 677.0643310546875 178.70924377441406 673.548095703125 211.4386444091797 674.7942504882812 261.9235534667969 C 673.6865844726562 260.0877685546875 640.9501342773438 267.56793212890625 636.60498046875 258.3836669921875 C 637.7311401367188 245.9119110107422 641.5471801757812 123.73704528808594 651.8659057617188 110.02190399169922" stroke-width="0.0" fill="url(#shape_16_fill)"/>
    <path d="M 601.0514526367188 129.75656127929688 C 603.2186889648438 128.31890869140625 606.9450073242188 132.01380920410156 606.2887573242188 134.02435302734375 C 608.295166015625 135.04812622070312 607.314697265625 140.63113403320312 609.5603637695312 143.4182586669922 C 627.3658447265625 142.909912109375 629.7606201171875 220.44400024414062 630.8492431640625 260.3533630371094 C 589.8819580078125 264.8989562988281 577.3798217773438 257.19818115234375 579.76953125 237.22789001464844 C 563.4061279296875 226.65225219726562 597.8598022460938 154.61180114746094 601.0514526367188 129.75656127929688" stroke-width="0.0" fill="url(#shape_17_fill)"/>
    <path d="M 320.5956115722656 186.3276824951172 C 320.770263671875 186.5270233154297 322.5496826171875 189.4991455078125 320.37823486328125 197.65908813476562 C 332.9559631347656 193.67205810546875 335.05126953125 192.8220977783203 337.460693359375 196.10125732421875 C 341.6962585449219 200.38601684570312 346.0256042480469 197.81268310546875 353.3887939453125 194.179931640625 C 358.3068542480469 194.09854125976562 358.9820556640625 195.0863494873047 357.0276794433594 201.5883026123047 C 359.3770751953125 204.10238647460938 361.4532775878906 204.3068084716797 363.011474609375 208.5848388671875 C 367.2626953125 207.10304260253906 368.49041748046875 208.22959899902344 368.1829528808594 211.83111572265625 C 370.5003967285156 220.06553649902344 370.52947998046875 222.9541473388672 365.8890075683594 226.1547393798828 C 366.49005126953125 231.58079528808594 364.69830322265625 235.97158813476562 366.56396484375 248.8898162841797 C 369.0838928222656 252.02130126953125 366.4639892578125 256.1792907714844 358.0244445800781 254.7249298095703 C 354.515625 255.61141967773438 329.33062744140625 254.90406799316406 322.4725646972656 255.34275817871094 C 313.3872985839844 255.9752960205078 312.1617431640625 253.5761260986328 307.76507568359375 242.7224578857422 C 304.4208068847656 230.04275512695312 321.0392761230469 194.57894897460938 320.5956115722656 186.3276824951172" stroke-width="0.0" fill="url(#shape_18_fill)"/>
    <path d="M 478.2433166503906 217.9590301513672 C 496.85504150390625 249.0262451171875 508.2291259765625 261.00604248046875 490.2126770019531 278.16217041015625 C 470.766357421875 279.16583251953125 444.0038757324219 261.4297180175781 442.1318054199219 261.7396240234375 C 438.6405334472656 260.6409606933594 437.125 258.26226806640625 432.5299377441406 258.12261962890625 C 429.374755859375 258.63104248046875 428.0654602050781 256.85772705078125 428.4920959472656 253.84275817871094 C 430.5337829589844 237.91160583496094 422.1534729003906 232.615966796875 422.9552307128906 229.69715881347656 C 423.1180419921875 226.94186401367188 421.13018798828125 226.67127990722656 420.1874084472656 225.11000061035156 C 427.7440490722656 219.54811096191406 429.6890563964844 218.82083129882812 428.81170654296875 215.2389678955078 C 438.21630859375 196.8089141845703 474.1412048339844 198.2290802001953 478.2433166503906 217.9590301513672" stroke-width="0.0" fill="url(#shape_19_fill)"/>
    <path d="M 673.9074096679688 -2.9841182231903076 C 675.062255859375 32.853885650634766 674.5833740234375 64.7639389038086 674.3594970703125 97.14918518066406 C 669.3563232421875 96.27710723876953 652.8328247070312 87.35916137695312 644.2473754882812 90.05133819580078 C 638.6182861328125 89.54865264892578 638.1484375 85.95623779296875 637.5220336914062 84.4083251953125 C 625.7213134765625 84.02207946777344 619.959228515625 93.14054870605469 608.2925415039062 86.72599029541016 C 609.8762817382812 74.2933349609375 613.012451171875 74.21884155273438 614.806640625 71.84259796142578 C 622.4448852539062 68.66065979003906 648.8167114257812 25.19304084777832 647.7584228515625 21.782546997070312 C 655.3241577148438 10.155539512634277 656.5521240234375 3.5866379737854004 668.3926391601562 3.7932636737823486 C 669.8084106445312 2.6779086589813232 670.1395263671875 1.1028302907943726 673.9074096679688 -2.9841182231903076" stroke-width="0.0" fill="url(#shape_20_fill)"/>
    <path d="M 562.1416625976562 155.92724609375 C 569.8287963867188 156.5408477783203 569.871337890625 162.0740509033203 574.2078857421875 165.22227478027344 C 585.043212890625 168.30087280273438 575.461669921875 231.22735595703125 577.4171752929688 240.79489135742188 C 576.2625732421875 244.783447265625 574.85400390625 247.00247192382812 575.2654418945312 258.3323669433594 C 555.9944458007812 254.07766723632812 542.927978515625 252.19879150390625 540.0626220703125 246.25697326660156 C 544.3888549804688 244.7164764404297 541.5684204101562 165.91287231445312 555.0543212890625 157.79598999023438 C 555.5473022460938 153.38961791992188 558.798583984375 152.5538330078125 562.1416625976562 155.92724609375" stroke-width="0.0" fill="url(#shape_21_fill)"/>
    <path d="M 215.13148498535156 209.72299194335938 C 233.17672729492188 209.33355712890625 234.09335327148438 240.8256072998047 219.96412658691406 255.6973419189453 C 211.83680725097656 263.3194885253906 209.99337768554688 264.51727294921875 209.0371856689453 273.20904541015625 C 205.948486328125 275.3746337890625 206.7917938232422 277.1374816894531 206.74984741210938 280.3177490234375 C 206.90542602539062 283.0767822265625 203.77926635742188 285.52587890625 200.71383666992188 284.9474182128906 C 200.38433837890625 283.42352294921875 190.45352172851562 272.9610290527344 187.9320526123047 265.1598815917969 C 186.61636352539062 261.5834045410156 183.72113037109375 262.50054931640625 181.5106201171875 262.2601013183594 C 180.76602172851562 260.6503601074219 179.99974060058594 260.52777099609375 178.78282165527344 253.58926391601562 C 179.246337890625 248.534912109375 168.9817657470703 242.94866943359375 170.83895874023438 238.31654357910156 C 175.76739501953125 213.19488525390625 177.4888916015625 213.3268280029297 185.68392944335938 220.5766143798828 C 193.90737915039062 219.2186279296875 194.2603302001953 215.41220092773438 198.3629608154297 213.29684448242188 C 186.98397827148438 207.60556030273438 186.30462646484375 202.0791778564453 197.75132751464844 197.3887939453125 C 213.66152954101562 196.6474609375 214.59840393066406 200.4506072998047 215.13148498535156 209.72299194335938" stroke-width="0.0" fill="url(#shape_22_fill)"/>
    <path d="M 111.56920623779297 426.36224365234375 C 112.72630310058594 429.2782897949219 111.00247955322266 431.1895446777344 110.66539001464844 431.5842590332031 C 104.55044555664062 432.9677429199219 103.26161193847656 433.83203125 91.88088989257812 432.9700012207031 C 89.76204681396484 435.965576171875 95.68128204345703 446.421630859375 91.62633514404297 452.1399841308594 C 78.66380310058594 444.9972229003906 46.938175201416016 447.9271240234375 25.02182960510254 449.6412353515625 C 14.013102531433105 446.2579040527344 13.880196571350098 439.7745361328125 17.89963722229004 436.3883056640625 C 34.35634994506836 427.6714782714844 50.440162658691406 426.9690246582031 71.02120208740234 427.126708984375 C 74.41988372802734 424.73486328125 110.37613677978516 419.6853942871094 111.56920623779297 426.36224365234375" stroke-width="0.0" fill="url(#shape_23_fill)"/>
    <path d="M 194.37680053710938 123.54891967773438 C 199.96005249023438 124.76453399658203 210.53306579589844 144.60189819335938 214.51629638671875 145.14688110351562 C 215.62559509277344 148.08602905273438 218.5449676513672 149.702880859375 220.2579803466797 153.64854431152344 C 227.1268310546875 158.45703125 248.22354125976562 178.2052764892578 244.67796325683594 199.45281982421875 C 239.2330780029297 199.5309295654297 235.62142944335938 186.93177795410156 232.320556640625 180.37667846679688 C 234.90277099609375 186.65171813964844 233.21145629882812 195.97511291503906 230.8727264404297 197.08055114746094 C 226.0474395751953 198.61192321777344 225.5652313232422 202.8381805419922 220.40167236328125 208.55667114257812 C 215.20401000976562 207.6497802734375 213.6200714111328 199.26583862304688 213.86306762695312 196.02227783203125 C 212.70201110839844 189.58645629882812 212.59609985351562 183.08554077148438 206.6599578857422 178.20835876464844 C 203.9610137939453 174.02853393554688 205.0387420654297 173.02597045898438 205.6474609375 166.70394897460938 C 202.43211364746094 147.5182342529297 200.01522827148438 146.99539184570312 192.59742736816406 144.1905517578125 C 189.28305053710938 142.3014678955078 191.2169952392578 128.39283752441406 194.37680053710938 123.54891967773438" stroke-width="0.0" fill="url(#shape_24_fill)"/>
    <path d="M 595.884521484375 410.221435546875 C 598.40380859375 411.1387023925781 626.7969360351562 408.58984375 628.9888916015625 415.0513916015625 C 628.5487670898438 421.1033020019531 626.87451171875 425.23126220703125 628.8800659179688 426.6609802246094 C 630.7029418945312 428.0224609375 636.1175537109375 427.8798522949219 639.4348754882812 437.0570373535156 C 617.5084838867188 446.9409484863281 577.5753784179688 439.7773742675781 573.3836669921875 434.2002258300781 C 567.03759765625 426.4084167480469 574.5901489257812 420.2659912109375 576.3557739257812 413.8514099121094 C 579.585693359375 409.4281311035156 587.179931640625 413.464111328125 595.884521484375 410.221435546875" stroke-width="0.0" fill="url(#shape_25_fill)"/>
    <path d="M 142.90969848632812 66.71508026123047 C 144.07791137695312 68.936279296875 149.16944885253906 68.31158447265625 149.6299285888672 69.1394271850586 C 148.9038848876953 70.89994049072266 150.46340942382812 71.82427978515625 149.76083374023438 73.86907196044922 C 151.06591796875 74.44994354248047 150.15032958984375 78.41181182861328 150.5298614501953 80.60509490966797 C 152.307861328125 89.33455657958984 152.8739471435547 97.63505554199219 153.93858337402344 104.10257720947266 C 153.5161590576172 107.62064361572266 155.1117401123047 108.51992797851562 155.19068908691406 111.43707275390625 C 158.160400390625 123.4219970703125 155.3640899658203 133.51400756835938 150.3932647705078 133.58242797851562 C 143.02621459960938 126.86396026611328 137.24789428710938 120.1711654663086 125.91202545166016 117.12554931640625 C 122.52301788330078 114.25055694580078 124.57251739501953 109.66741943359375 126.77009582519531 106.92818450927734 C 128.82127380371094 106.84745788574219 128.8746795654297 105.2806625366211 132.6212615966797 104.66401672363281 C 138.9007568359375 96.4170150756836 134.71705627441406 93.18434143066406 133.22921752929688 89.89808654785156 C 134.1937713623047 88.8525619506836 139.30682373046875 87.28433990478516 140.07363891601562 85.32842254638672 C 138.0904998779297 84.7482681274414 138.68634033203125 77.64482116699219 139.49258422851562 77.47831726074219 C 143.56398010253906 76.59703063964844 142.65740966796875 70.3273696899414 142.90969848632812 66.71508026123047" stroke-width="0.0" fill="url(#shape_26_fill)"/>
    <path d="M 140.75970458984375 67.90351867675781 C 148.8671417236328 67.08386993408203 149.892822265625 68.30699920654297 148.6229248046875 76.62213897705078 C 150.75392150878906 77.97850036621094 151.16494750976562 80.55242156982422 154.42221069335938 85.10961151123047 C 150.48483276367188 90.77684783935547 154.5160675048828 94.3384780883789 151.79531860351562 104.89985656738281 C 153.0575408935547 105.76111602783203 153.36668395996094 109.33079528808594 155.51022338867188 113.06295776367188 C 152.82421875 116.69026184082031 157.81019592285156 122.02019500732422 154.58489990234375 126.1452407836914 C 152.60086059570312 132.03494262695312 151.338623046875 133.17214965820312 147.46531677246094 133.87338256835938 C 141.7130126953125 131.59805297851562 127.76240539550781 121.1744155883789 129.6953125 118.19171142578125 C 124.70767211914062 118.7279052734375 122.44318389892578 113.96637725830078 128.20028686523438 110.4215316772461 C 123.3424072265625 108.4192123413086 124.14208221435547 105.19756317138672 133.36669921875 107.17679595947266 C 136.3603515625 105.6886978149414 133.95790100097656 92.64374542236328 133.57630920410156 89.38685607910156 C 139.55972290039062 87.45854949951172 138.8257598876953 84.88047790527344 138.6154022216797 81.5705337524414 C 139.0783233642578 77.51354217529297 140.36590576171875 76.81096649169922 142.06898498535156 77.56929779052734 C 145.4293212890625 72.79582977294922 142.51197814941406 70.48674011230469 140.75970458984375 67.90351867675781" stroke-width="0.0" fill="url(#shape_27_fill)"/>
    <path d="M -0.32139283418655396 -0.2711237370967865 C 4.702431678771973 0.38163527846336365 9.650936126708984 -0.5262299180030823 19.823780059814453 -0.87190181016922 C 24.417055130004883 -0.4674322009086609 24.686189651489258 0.6239824295043945 43.15878677368164 6.992537498474121 C 38.95182418823242 25.62217903137207 28.151737213134766 25.848398208618164 27.180082321166992 23.186628341674805 C 45.23539352416992 20.187965393066406 53.06526184082031 20.173946380615234 54.6047477722168 47.584693908691406 C 37.46503448486328 49.67731857299805 29.94020652770996 50.10459899902344 20.46442222595215 46.6942024230957 C 14.603912353515625 39.460472106933594 11.173060417175293 38.55539321899414 9.966307640075684 33.64329147338867 C 10.014925956726074 35.82316970825195 14.518885612487793 39.27659606933594 14.833683013916016 41.03560256958008 C 15.809871673583984 42.22615432739258 15.47474193572998 45.0628776550293 18.183645248413086 47.86890411376953 C 20.07292938232422 51.07111740112305 18.758607864379883 52.30806350708008 20.776472091674805 57.19291305541992 C 20.983871459960938 64.06254577636719 15.017888069152832 65.98258972167969 8.693401336669922 61.34583282470703 C 5.496833801269531 60.884483337402344 3.534453868865967 59.140953063964844 0.3243311941623688 59.433807373046875 C -0.31767207384109497 39.77914047241211 -0.32485759258270264 19.62822151184082 -0.32139283418655396 -0.2711237370967865" stroke-width="0.0" fill="url(#shape_28_fill)"/>
    <path d="M 299.4661865234375 197.45448303222656 C 297.50628662109375 199.2783660888672 300.0357971191406 202.11947631835938 301.49420166015625 207.88180541992188 C 299.1970520019531 212.7338104248047 323.5324401855469 227.41519165039062 315.8475646972656 255.32403564453125 C 311.76129150390625 254.32467651367188 310.4741516113281 255.61270141601562 304.5213928222656 255.06329345703125 C 301.2982482910156 258.20220947265625 294.6452941894531 258.40606689453125 280.9494934082031 256.0247802734375 C 279.2878723144531 226.75233459472656 284.3437194824219 217.48733520507812 299.4661865234375 197.45448303222656" stroke-width="0.0" fill="url(#shape_29_fill)"/>
    <path d="M 0.002914269920438528 -0.04814061522483826 C 4.494613170623779 0.44454050064086914 9.64074993133545 -0.4144152104854584 14.597424507141113 0.12348280102014542 C 15.787388801574707 0.49004364013671875 16.343048095703125 4.783052921295166 16.32632827758789 8.047394752502441 C 18.888206481933594 10.85987663269043 21.917482376098633 18.923704147338867 27.096893310546875 20.708959579467773 C 27.132049560546875 22.49795150756836 24.316816329956055 26.763063430786133 24.60472869873047 32.057735443115234 C 20.18126106262207 32.11031723022461 13.723732948303223 30.146894454956055 6.707570552825928 33.86302947998047 C 9.06627368927002 35.90800094604492 8.782877922058105 38.73915481567383 10.900153160095215 40.451576232910156 C 10.04904842376709 44.59741973876953 7.587583065032959 50.071136474609375 11.55828857421875 53.84097671508789 C 17.70924186706543 51.41618728637695 19.517852783203125 51.935829162597656 18.28714942932129 58.43044662475586 C 11.32213020324707 60.529335021972656 9.403986930847168 62.592926025390625 0.20252765715122223 61.499725341796875 C -0.41978397965431213 39.96507263183594 -0.35447943210601807 19.754724502563477 0.002914269920438528 -0.04814061522483826" stroke-width="0.0" fill="url(#shape_30_fill)"/>
    <path d="M 547.8028564453125 70.2362289428711 C 545.92333984375 77.51393127441406 576.63427734375 89.58431243896484 581.4515380859375 91.6359634399414 C 580.8362426757812 92.63054656982422 577.27392578125 93.2906265258789 576.9534912109375 98.18339538574219 C 573.2657470703125 100.70746612548828 572.072509765625 99.79492950439453 569.2769165039062 100.03095245361328 C 567.3719482421875 95.56797790527344 545.674072265625 96.73445129394531 538.6118774414062 88.3933334350586 C 538.5881958007812 85.44165802001953 537.7271728515625 83.16452026367188 535.68798828125 82.38023376464844 C 534.6641845703125 79.70553588867188 528.1983642578125 79.63787078857422 527.072998046875 78.37067413330078 C 525.2483520507812 75.79008483886719 527.7335815429688 70.81237030029297 532.1854858398438 69.0667495727539 C 539.1768798828125 66.691162109375 542.16064453125 71.79444122314453 547.8028564453125 70.2362289428711" stroke-width="0.0" fill="url(#shape_31_fill)"/>
    <path d="M 447.2886047363281 264.4002685546875 C 450.6769104003906 265.264404296875 451.3009948730469 266.72235107421875 455.89910888671875 267.7108459472656 C 460.5113830566406 267.6551208496094 465.32232666015625 270.3759765625 469.92852783203125 273.1742248535156 C 470.4331970214844 275.63189697265625 471.8272705078125 276.8908996582031 471.6768798828125 280.7686767578125 C 451.3567810058594 288.3280944824219 429.8943786621094 284.4617004394531 415.92230224609375 285.0138854980469 C 413.43756103515625 273.908935546875 415.140380859375 272.34130859375 415.6278991699219 268.21734619140625 C 418.1906433105469 267.2078552246094 417.7738952636719 264.8052978515625 419.353759765625 263.0942077636719 C 435.85284423828125 253.80154418945312 446.63104248046875 253.42221069335938 447.2886047363281 264.4002685546875" stroke-width="0.0" fill="url(#shape_32_fill)"/>
    <path d="M 272.2366638183594 192.44920349121094 C 276.3419494628906 192.12828063964844 286.1017761230469 243.67147827148438 281.1619873046875 245.01364135742188 C 279.39019775390625 247.41700744628906 273.8647766113281 246.84388732910156 269.6808166503906 248.613037109375 C 266.3876953125 246.01185607910156 266.74090576171875 242.11119079589844 261.2128601074219 240.68309020996094 C 254.248046875 209.99745178222656 262.3138732910156 206.92710876464844 272.2366638183594 192.44920349121094" stroke-width="0.0" fill="url(#shape_33_fill)"/>
    <path d="M 263.97381591796875 415.7001037597656 C 262.1982116699219 423.7660217285156 264.8313903808594 430.5834655761719 267.97021484375 440.4491271972656 C 262.1812744140625 440.9577941894531 261.0820007324219 446.609619140625 256.4803161621094 447.8354797363281 C 245.92453002929688 445.7886962890625 217.68836975097656 448.2780456542969 212.56219482421875 444.7776184082031 C 213.0245361328125 436.99578857421875 213.95974731445312 436.2222900390625 215.96047973632812 434.5191650390625 C 216.2303924560547 433.45062255859375 225.0295867919922 433.5230712890625 226.62864685058594 430.4131774902344 C 228.52061462402344 419.7842712402344 239.1488494873047 420.1683349609375 263.97381591796875 415.7001037597656" stroke-width="0.0" fill="url(#shape_34_fill)"/>
    <path d="M 106.02751159667969 69.79387664794922 C 109.76495361328125 69.77227020263672 111.435302734375 79.12489318847656 112.46870422363281 85.1021499633789 C 117.06044006347656 85.8989028930664 117.34307098388672 110.27452850341797 117.88162231445312 110.79915618896484 C 116.79399108886719 112.63162231445312 111.2686538696289 114.44601440429688 106.99285125732422 124.22221374511719 C 104.71258544921875 117.19205474853516 96.51825714111328 118.8128662109375 90.11531829833984 111.89908599853516 C 88.45729064941406 85.5751724243164 105.17758178710938 84.50498962402344 106.02751159667969 69.79387664794922" stroke-width="0.0" fill="url(#shape_35_fill)"/>
    <path d="M 451.38446044921875 178.48336791992188 C 453.314697265625 176.40167236328125 456.4296875 177.6790008544922 455.5653076171875 180.25823974609375 C 456.29034423828125 180.69383239746094 455.7826843261719 185.1720428466797 456.59014892578125 185.8777313232422 C 455.8486633300781 188.6123504638672 458.7964172363281 194.27853393554688 459.671630859375 204.53013610839844 C 459.344970703125 208.46231079101562 451.8437805175781 209.3463897705078 446.0177307128906 204.49795532226562 C 441.9693603515625 207.40199279785156 440.6992492675781 208.7964324951172 433.2803649902344 210.95872497558594 C 434.5890197753906 209.91751098632812 437.06317138671875 189.18893432617188 438.41571044921875 179.1709442138672 C 440.4667663574219 179.414794921875 444.16021728515625 181.23550415039062 446.55029296875 180.7403564453125 C 447.75628662109375 179.3308563232422 450.0989074707031 179.57225036621094 451.38446044921875 178.48336791992188" stroke-width="0.0" fill="url(#shape_36_fill)"/>
    <path d="M 557.4696044921875 84.45181274414062 C 562.0023803710938 80.97357940673828 578.5151977539062 82.64810180664062 580.0703125 85.8822250366211 C 581.4122314453125 83.83444213867188 586.334228515625 85.56868743896484 587.30615234375 88.73123168945312 C 595.87451171875 100.71807861328125 588.14599609375 108.60360717773438 574.3795166015625 100.34567260742188 C 573.7882080078125 99.4478988647461 552.7279052734375 95.65083312988281 543.7467041015625 85.42194366455078 C 538.5258178710938 85.50711822509766 537.8258666992188 81.99310302734375 535.9323120117188 80.24962615966797 C 542.8502197265625 74.9881362915039 547.5531616210938 78.55554962158203 557.4696044921875 84.45181274414062" stroke-width="0.0" fill="url(#shape_37_fill)"/>
    <path d="M 251.99708557128906 208.19027709960938 C 265.2833251953125 211.51930236816406 261.5192565917969 239.64309692382812 260.2254638671875 247.7357940673828 C 259.4599304199219 254.5983123779297 251.0013427734375 254.54177856445312 249.40582275390625 257.49761962890625 C 234.3423309326172 237.20655822753906 240.6892547607422 214.08584594726562 251.99708557128906 208.19027709960938" stroke-width="0.0" fill="url(#shape_38_fill)"/>
    <path d="M 443.1889953613281 263.42987060546875 C 446.0085144042969 263.44403076171875 449.1600646972656 266.59210205078125 447.77154541015625 270.05792236328125 C 444.3565368652344 270.3633117675781 442.62933349609375 277.1267395019531 440.763916015625 278.7176818847656 C 439.7811584472656 286.3744812011719 424.89398193359375 284.758056640625 418.17584228515625 276.173828125 C 414.53631591796875 276.7842712402344 413.3368835449219 274.32696533203125 416.00030517578125 271.644775390625 C 415.18304443359375 269.9459533691406 419.2371826171875 262.1821594238281 425.96478271484375 258.2718811035156 C 426.9184265136719 256.5632629394531 438.403564453125 257.9911804199219 443.1889953613281 263.42987060546875" stroke-width="0.0" fill="url(#shape_39_fill)"/>
    <path d="M 407.7234191894531 409.802734375 C 408.6788024902344 409.8880310058594 416.7823791503906 419.0482177734375 413.7133483886719 424.214111328125 C 399.8095703125 436.0743408203125 385.8467712402344 420.296875 376.60821533203125 420.8519592285156 C 371.0889587402344 417.95562744140625 371.2393798828125 416.5549011230469 372.59417724609375 410.410400390625 C 375.07745361328125 401.13128662109375 394.6065368652344 403.7646484375 407.7234191894531 409.802734375" stroke-width="0.0" fill="url(#shape_40_fill)"/>
    <path d="M 66.44232940673828 427.56768798828125 C 67.36489868164062 429.0897521972656 64.68714141845703 434.1882629394531 58.77851104736328 435.7110595703125 C 57.47165298461914 436.75970458984375 39.75847625732422 436.4831237792969 31.803190231323242 442.7478942871094 C 29.292407989501953 443.4324951171875 27.33350372314453 444.0033264160156 17.230356216430664 443.0950622558594 C 16.442913055419922 440.6489562988281 17.807796478271484 439.2064514160156 17.300745010375977 437.8543395996094 C 34.84602737426758 427.3403625488281 54.5307502746582 427.8645935058594 66.44232940673828 427.56768798828125" stroke-width="0.0" fill="url(#shape_41_fill)"/>
    <path d="M 278.3049011230469 380.9963684082031 C 284.6558837890625 381.26763916015625 297.9260559082031 381.2173767089844 305.17413330078125 385.3782653808594 C 297.27020263671875 394.929931640625 299.3229675292969 400.9561462402344 294.4050598144531 405.0606994628906 C 291.740234375 399.81463623046875 265.8139343261719 405.5162658691406 258.74456787109375 406.8948974609375 C 249.10812377929688 404.0845031738281 246.09266662597656 393.9670715332031 248.34463500976562 382.6820983886719 C 260.8837585449219 381.0263366699219 267.38946533203125 382.05328369140625 278.3049011230469 380.9963684082031" stroke-width="0.0" fill="url(#shape_42_fill)"/>
    <path d="M 222.65692138671875 213.92327880859375 C 223.90744018554688 212.83990478515625 236.39532470703125 212.22674560546875 239.44569396972656 214.59222412109375 C 242.16455078125 221.3037872314453 247.8614501953125 240.22207641601562 251.20558166503906 267.6141052246094 C 249.64938354492188 272.876953125 241.47064208984375 272.6845397949219 209.32704162597656 272.35980224609375 C 206.7421112060547 266.4425048828125 205.34579467773438 255.41802978515625 216.8231201171875 247.86691284179688 C 219.39549255371094 246.47048950195312 218.1671905517578 226.4249267578125 222.65692138671875 213.92327880859375" stroke-width="0.0" fill="url(#shape_43_fill)"/>
    <path d="M 483.7323913574219 395.83154296875 C 486.8040466308594 399.8055725097656 485.8140563964844 400.984130859375 483.5083923339844 401.1295166015625 C 473.0201110839844 407.16497802734375 451.1646423339844 406.77581787109375 450.2518310546875 407.6468505859375 C 448.08544921875 404.4153747558594 451.60107421875 396.17376708984375 453.6169128417969 396.4986267089844 C 463.9569396972656 393.11273193359375 472.2840576171875 392.6102294921875 483.7323913574219 395.83154296875" stroke-width="0.0" fill="url(#shape_44_fill)"/>
    <path d="M 45.840911865234375 408.0367126464844 C 45.34894561767578 408.7001953125 35.74690246582031 411.5212097167969 33.8026237487793 413.1730651855469 C 32.62712860107422 414.53057861328125 32.30921936035156 415.9770202636719 28.48305320739746 415.193115234375 C 27.515485763549805 417.1434631347656 24.985414505004883 417.8641662597656 21.532663345336914 420.53668212890625 C 18.255416870117188 420.1919250488281 0.1743759959936142 417.293701171875 -0.696997880935669 420.5595397949219 C 1.7681690454483032 419.58636474609375 -0.7073481678962708 411.1536560058594 0.6654913425445557 410.3203430175781 C 7.60965633392334 409.3206481933594 45.45701217651367 406.4721374511719 45.840911865234375 408.0367126464844" stroke-width="0.0" fill="url(#shape_45_fill)"/>
    <path d="M 452.01416015625 175.10147094726562 C 454.2679748535156 174.98655700683594 464.6891784667969 198.7631378173828 465.95330810546875 199.8590850830078 C 462.6026306152344 209.5494384765625 451.63433837890625 209.4644012451172 449.4700927734375 206.66688537597656 C 448.3230895996094 203.25282287597656 449.0335693359375 198.31512451171875 448.849853515625 195.2997589111328 C 447.95367431640625 194.55613708496094 447.5979919433594 192.12953186035156 448.51275634765625 188.01605224609375 C 451.0150146484375 186.64984130859375 450.6976623535156 182.96759033203125 452.01416015625 175.10147094726562" stroke-width="0.0" fill="url(#shape_46_fill)"/>
    <path d="M 372.8890075683594 185.19996643066406 C 379.01556396484375 196.0933380126953 380.2439270019531 202.5431671142578 371.42413330078125 206.0120849609375 C 365.8646545410156 206.82186889648438 364.772216796875 204.85665893554688 362.03912353515625 205.03269958496094 C 344.1506042480469 208.69549560546875 340.9073181152344 200.70895385742188 353.83538818359375 188.42880249023438 C 356.66070556640625 184.96885681152344 358.3701477050781 184.4149932861328 368.11138916015625 185.46434020996094 C 368.9523010253906 183.3280487060547 372.42474365234375 183.67025756835938 372.8890075683594 185.19996643066406" stroke-width="0.0" fill="url(#shape_47_fill)"/>
    <path d="M 471.44384765625 263.5882263183594 C 474.9767150878906 267.71112060546875 480.59918212890625 269.1986999511719 480.39605712890625 284.614990234375 C 464.9637451171875 287.42218017578125 451.8643493652344 286.4946594238281 443.93072509765625 284.9196472167969 C 439.31756591796875 282.2256164550781 440.0018310546875 276.95806884765625 441.1672668457031 276.448486328125 C 448.5072021484375 266.67279052734375 455.15673828125 263.0596923828125 471.44384765625 263.5882263183594" stroke-width="0.0" fill="url(#shape_48_fill)"/>
    <path d="M 177.23495483398438 117.31381225585938 C 178.07228088378906 115.56377410888672 181.81851196289062 116.18307495117188 182.6748504638672 117.29452514648438 C 184.67958068847656 120.25736999511719 183.85025024414062 122.35285949707031 184.7515106201172 122.93060302734375 C 179.58560180664062 126.70378112792969 185.80538940429688 136.5457305908203 182.87173461914062 139.5638885498047 C 181.4635772705078 146.5500030517578 172.81130981445312 146.2322998046875 171.9862518310547 146.7300262451172 C 171.62158203125 127.02876281738281 170.74246215820312 124.59931182861328 177.23495483398438 117.31381225585938" stroke-width="0.0" fill="url(#shape_49_fill)"/>
    <path d="M 333.7953186035156 428.0195007324219 C 337.1929016113281 428.7569885253906 341.4086608886719 428.9214172363281 343.07464599609375 431.9084167480469 C 346.36370849609375 435.5910339355469 345.1607360839844 437.22576904296875 342.4451904296875 437.596923828125 C 342.8232727050781 446.6476745605469 324.994873046875 448.76617431640625 323.2944030761719 443.19012451171875 C 320.2176208496094 435.74273681640625 319.6936950683594 433.0475158691406 308.0082702636719 429.44659423828125 C 321.4582824707031 426.7828063964844 328.67657470703125 428.7618713378906 333.7953186035156 428.0195007324219" stroke-width="0.0" fill="url(#shape_50_fill)"/>
    <path d="M 303.6669616699219 388.947509765625 C 301.10711669921875 393.76177978515625 293.65411376953125 398.0313720703125 291.77984619140625 398.62530517578125 C 279.0235290527344 397.46099853515625 277.99432373046875 399.10986328125 271.3331298828125 402.5390625 C 271.10760498046875 401.6127014160156 269.68853759765625 398.9585266113281 271.1766662597656 397.4853820800781 C 270.005859375 395.5162353515625 273.0669860839844 388.1277160644531 279.7783508300781 387.880859375 C 284.44842529296875 386.5418395996094 288.6136779785156 390.9691467285156 303.6669616699219 388.947509765625" stroke-width="0.0" fill="url(#shape_51_fill)"/>
    <path d="M 268.97930908203125 183.90255737304688 C 275.94085693359375 195.12266540527344 277.864013671875 207.6472930908203 279.95306396484375 217.35372924804688 C 271.5527648925781 210.3055877685547 269.230224609375 208.15811157226562 261.0675964355469 215.60084533691406 C 257.4424133300781 207.8192138671875 263.8484191894531 196.86203002929688 266.52569580078125 195.26832580566406 C 269.6833801269531 194.26333618164062 268.95849609375 191.7067108154297 268.97930908203125 183.90255737304688" stroke-width="0.0" fill="url(#shape_52_fill)"/>
    <path d="M 218.29498291015625 409.51666259765625 C 215.91085815429688 410.94927978515625 215.63232421875 413.2713623046875 214.23464965820312 414.1470947265625 C 214.7220001220703 422.2587585449219 191.64190673828125 424.3265686035156 187.5259246826172 415.56939697265625 C 186.2761993408203 405.53857421875 206.45579528808594 400.55743408203125 218.29498291015625 409.51666259765625" stroke-width="0.0" fill="url(#shape_53_fill)"/>
    <path d="M 205.87115478515625 424.62042236328125 C 205.51010131835938 425.2747802734375 206.14129638671875 428.2801208496094 204.57183837890625 429.35345458984375 C 194.15109252929688 429.97857666015625 178.81561279296875 430.42864990234375 177.967041015625 432.65521240234375 C 176.77171325683594 430.94952392578125 178.27931213378906 425.9507141113281 176.8611602783203 423.8992004394531 C 186.33453369140625 418.4925231933594 194.1427764892578 422.787353515625 205.87115478515625 424.62042236328125" stroke-width="0.0" fill="url(#shape_54_fill)"/>
    <path d="M 268.96234130859375 246.7570037841797 C 275.43792724609375 244.93125915527344 276.6708984375 246.7590789794922 280.4612121582031 245.8576202392578 C 280.7955627441406 250.97886657714844 280.193603515625 252.423828125 285.8395080566406 261.44482421875 C 263.45843505859375 257.97021484375 262.92669677734375 257.27032470703125 252.3101806640625 262.69384765625 C 254.869873046875 248.17723083496094 255.87203979492188 247.2303009033203 258.6591491699219 245.20394897460938 C 260.4640197753906 239.41331481933594 266.38482666015625 239.69415283203125 268.96234130859375 246.7570037841797" stroke-width="0.0" fill="url(#shape_55_fill)"/>
    <path d="M 276.3462219238281 351.9407958984375 C 278.6536560058594 363.6069641113281 283.6624755859375 363.19586181640625 284.6071472167969 368.06390380859375 C 285.40167236328125 369.23455810546875 285.9760437011719 371.8311767578125 285.746826171875 381.1678161621094 C 275.5909729003906 379.2205810546875 262.40887451171875 381.7230224609375 243.87754821777344 383.58038330078125 C 239.64022827148438 382.00787353515625 239.34519958496094 360.760498046875 239.87103271484375 353.7167053222656 C 248.93209838867188 352.09783935546875 256.4618225097656 351.1484069824219 276.3462219238281 351.9407958984375" stroke-width="0.0" fill="url(#shape_56_fill)"/>
    <path d="M 408.831298828125 270.9239501953125 C 415.6967468261719 268.99981689453125 418.19305419921875 273.1783447265625 421.0008850097656 279.640625 C 413.001953125 286.2926330566406 404.0720520019531 282.2954406738281 380.9968566894531 278.6794738769531 C 379.6746520996094 264.797607421875 388.4944152832031 263.6193542480469 408.831298828125 270.9239501953125" stroke-width="0.0" fill="url(#shape_57_fill)"/>
    <path d="M 632.054443359375 351.6746826171875 C 632.9799194335938 354.87451171875 659.8832397460938 353.8369445800781 668.6190185546875 354.0041198730469 C 668.4950561523438 358.5071716308594 662.9859008789062 360.5313415527344 660.0681762695312 357.39532470703125 C 650.0983276367188 355.3868408203125 634.48779296875 360.0401611328125 631.5234985351562 360.62347412109375 C 627.791259765625 357.0954284667969 629.3455200195312 353.5849914550781 632.054443359375 351.6746826171875" stroke-width="0.0" fill="url(#shape_58_fill)"/>
    <path d="M 341.3049621582031 384.99652099609375 C 342.80084228515625 390.2441711425781 358.132568359375 391.7485656738281 359.18572998046875 394.7140808105469 C 356.4517517089844 398.1621398925781 339.1771545410156 401.8722229003906 338.4496154785156 399.5278625488281 C 335.1372985839844 399.6146240234375 333.07647705078125 398.77880859375 331.8570861816406 396.5368957519531 C 331.98748779296875 394.93994140625 330.75299072265625 393.4737243652344 332.3329162597656 390.6046142578125 C 333.0722961425781 385.0311584472656 336.5893859863281 384.110595703125 341.3049621582031 384.99652099609375" stroke-width="0.0" fill="url(#shape_59_fill)"/>
    <path d="M 459.5368347167969 363.4088439941406 C 462.6436767578125 364.86151123046875 472.42449951171875 370.1261901855469 473.1225280761719 374.182373046875 C 471.798583984375 376.2046813964844 470.3335266113281 376.87152099609375 463.06243896484375 375.9056091308594 C 458.49639892578125 377.25531005859375 457.66802978515625 377.0151672363281 452.75054931640625 370.9529724121094 C 453.26934814453125 369.9128723144531 460.129150390625 365.8748779296875 459.5368347167969 363.4088439941406" stroke-width="0.0" fill="url(#shape_60_fill)"/>
    <path d="M 434.4947509765625 433.0428161621094 C 440.07666015625 434.3223571777344 442.4573974609375 436.4924621582031 442.02685546875 438.78521728515625 C 440.3732604980469 441.495849609375 429.3536071777344 440.2256774902344 425.7432861328125 442.4217224121094 C 422.4724426269531 438.8761901855469 423.9154357910156 434.61212158203125 412.5496520996094 425.8216247558594 C 428.1842041015625 428.9831848144531 431.0485534667969 434.2599792480469 434.4947509765625 433.0428161621094" stroke-width="0.0" fill="url(#shape_61_fill)"/>
    <path d="M 185.4221954345703 411.4506530761719 C 186.2652130126953 413.93170166015625 185.0072021484375 414.7928771972656 186.9235382080078 417.6988830566406 C 184.86630249023438 420.1833801269531 183.39791870117188 419.517333984375 182.491943359375 419.71917724609375 C 180.80960083007812 421.6418762207031 174.42994689941406 420.2624816894531 171.33872985839844 420.1811828613281 C 169.55032348632812 417.8145446777344 169.76431274414062 415.6318664550781 173.83294677734375 413.26336669921875 C 176.45675659179688 412.4853210449219 181.32000732421875 410.6780090332031 185.4221954345703 411.4506530761719" stroke-width="0.0" fill="url(#shape_62_fill)"/>
    <path d="M 332.2832946777344 418.6482238769531 C 334.8264465332031 426.10302734375 329.88104248046875 427.9319152832031 327.2707214355469 425.9530944824219 C 324.5823669433594 427.77166748046875 322.994873046875 426.72705078125 320.8341369628906 427.573486328125 C 318.7829284667969 426.026611328125 319.7434997558594 419.9829406738281 317.5138244628906 418.4714660644531 C 319.0101318359375 419.9813537597656 326.05328369140625 418.7386779785156 332.2832946777344 418.6482238769531" stroke-width="0.0" fill="url(#shape_63_fill)"/>
    <path d="M 55.41400146484375 273.3804016113281 C 56.56111526489258 269.4312744140625 66.01985168457031 269.8114013671875 65.72853088378906 278.3094787597656 C 59.119503021240234 279.2763366699219 53.48591613769531 273.1056823730469 48.13105773925781 276.09173583984375 C 49.939613342285156 273.04693603515625 52.373329162597656 272.54736328125 55.41400146484375 273.3804016113281" stroke-width="0.0" fill="url(#shape_64_fill)"/>
    <path d="M 304.5413513183594 439.2107238769531 C 304.5426940917969 437.3557434082031 306.17486572265625 436.24407958984375 313.0467224121094 437.3520812988281 C 314.7439880371094 438.8631286621094 313.03155517578125 441.4512939453125 311.4401550292969 442.3035888671875 C 307.9338684082031 445.3489990234375 306.63800048828125 444.23699951171875 305.30694580078125 444.47705078125 C 302.8452453613281 441.6618957519531 302.75750732421875 439.7631530761719 304.5413513183594 439.2107238769531" stroke-width="0.0" fill="url(#shape_65_fill)"/>
    <path d="M -0.4527207911014557 -0.4093872904777527 C 224.6284637451172 -0.12129019945859909 444.0439758300781 0.3843430280685425 672.9683837890625 0.6478339433670044 C 673.6299438476562 153.58328247070312 674.614013671875 296.0406494140625 673.6002197265625 445.49505615234375 C 450.4739685058594 446.33026123046875 230.62298583984375 446.2579040527344 0.5320979952812195 445.3432922363281 C 0.23155540227890015 297.0656433105469 -0.12945574522018433 149.05674743652344 -0.4527207911014557 -0.4093872904777527" stroke-width="0.0" fill="url(#shape_66_fill)"/>
    <path d="M -1.0159459114074707 -0.15750649571418762 C 222.4965362548828 -0.10943925380706787 443.26397705078125 0.35703399777412415 672.9634399414062 -0.07136058062314987 C 673.7460327148438 153.80007934570312 674.6776123046875 295.32861328125 673.2996215820312 445.3977355957031 C 450.72003173828125 446.41046142578125 230.74351501464844 446.30767822265625 0.6789619326591492 445.24774169921875 C 0.1613379567861557 297.1058654785156 -0.24278299510478973 148.84393310546875 -1.0159459114074707 -0.15750649571418762" stroke-width="0.0" fill="url(#shape_67_fill)"/>
    <path d="M -0.6663097739219666 -0.20675814151763916 C 222.92466735839844 -0.13038203120231628 442.3526916503906 0.49892207980155945 672.9671020507812 -0.19446565210819244 C 673.73974609375 153.78909301757812 674.6784057617188 295.32666015625 673.3053588867188 445.39984130859375 C 450.73193359375 446.4109191894531 230.7738037109375 446.30743408203125 1.2427102327346802 445.2264404296875 C 0.5119245648384094 295.5688171386719 0.0665542483329773 148.51129150390625 -0.6663097739219666 -0.20675814151763916" stroke-width="0.0" fill="url(#shape_68_fill)"/>
  </g>
</svg>
