<?xml version="1.0" ?>
<svg xmlns="http://www.w3.org/2000/svg" version="1.1" width="674" height="446">
  <defs>
    <radialGradient id="shape_0_fill" cx="0.5313754661854367" cy="0.7395470452415569" r="0.2821234411584871">
      <stop offset="0.712387" stop-color="rgb(158, 168, 0)" stop-opacity="0.8368819355964661"/>
      <stop offset="1.0" stop-color="rgb(48, 41, 0)" stop-opacity="0.9844401478767395"/>
    </radialGradient>
    <radialGradient id="shape_1_fill" cx="0.5329633763706648" cy="0.7434296201697379" r="0.20668600291809625">
      <stop offset="0.36512947" stop-color="rgb(66, 59, 75)" stop-opacity="0.7424904108047485"/>
      <stop offset="0.9972922" stop-color="rgb(34, 7, 0)" stop-opacity="0.6048756837844849"/>
    </radialGradient>
    <radialGradient id="shape_2_fill" cx="0.09792273546892387" cy="0.7376672719091578" r="0.22062588021026522">
      <stop offset="0.0033675318" stop-color="rgb(48, 110, 188)" stop-opacity="0.8678240776062012"/>
      <stop offset="0.9893343" stop-color="rgb(3, 88, 255)" stop-opacity="0.897732138633728"/>
    </radialGradient>
    <radialGradient id="shape_3_fill" cx="0.27835015090353765" cy="0.2150035054159806" r="0.13191268422837074">
      <stop offset="0.40475434" stop-color="rgb(127, 173, 0)" stop-opacity="0.7685953378677368"/>
      <stop offset="1.0" stop-color="rgb(35, 31, 0)" stop-opacity="0.9280362129211426"/>
    </radialGradient>
    <radialGradient id="shape_4_fill" cx="0.1543026706231454" cy="0.9977578475336323" r="0.10288926755639141">
      <stop offset="0.0" stop-color="rgb(81, 79, 86)" stop-opacity="1.0"/>
      <stop offset="1.0" stop-color="rgb(50, 40, 65)" stop-opacity="0.8542441725730896"/>
    </radialGradient>
    <radialGradient id="shape_5_fill" cx="0.14807964290992442" cy="0.23997249517740155" r="0.11810664960821587">
      <stop offset="0.0" stop-color="rgb(255, 255, 255)" stop-opacity="0.6465655565261841"/>
      <stop offset="0.5626593" stop-color="rgb(255, 255, 255)" stop-opacity="0.5180149078369141"/>
    </radialGradient>
    <radialGradient id="shape_6_fill" cx="0.18397626112759644" cy="0.9977578475336323" r="0.0754974885934892">
      <stop offset="0.0" stop-color="rgb(93, 90, 94)" stop-opacity="1.0"/>
      <stop offset="1.0" stop-color="rgb(147, 126, 133)" stop-opacity="0.879523754119873"/>
    </radialGradient>
    <radialGradient id="shape_7_fill" cx="0.2893175074183976" cy="0.05829596412556054" r="0.08666390552011372">
      <stop offset="0.0" stop-color="rgb(55, 66, 29)" stop-opacity="1.0"/>
      <stop offset="1.0" stop-color="rgb(120, 129, 56)" stop-opacity="0.5760889649391174"/>
    </radialGradient>
    <radialGradient id="shape_8_fill" cx="0.3382789091115889" cy="0.9439461883408071" r="0.06756690277190167">
      <stop offset="0.0" stop-color="rgb(91, 124, 45)" stop-opacity="1.0"/>
      <stop offset="1.0" stop-color="rgb(85, 138, 4)" stop-opacity="0.555566132068634"/>
    </radialGradient>
    <radialGradient id="shape_9_fill" cx="0.30712166172106825" cy="0.9977578475336323" r="0.0730758406641929">
      <stop offset="0.0" stop-color="rgb(38, 48, 20)" stop-opacity="1.0"/>
      <stop offset="1.0" stop-color="rgb(34, 27, 52)" stop-opacity="1.0"/>
    </radialGradient>
    <radialGradient id="shape_10_fill" cx="0.3056379821958457" cy="0.9977578475336323" r="0.06792919147615971">
      <stop offset="0.0" stop-color="rgb(39, 49, 21)" stop-opacity="1.0"/>
      <stop offset="1.0" stop-color="rgb(32, 6, 0)" stop-opacity="0.6496402025222778"/>
    </radialGradient>
    <radialGradient id="shape_11_fill" cx="0.21810089020771514" cy="0.968609865470852" r="0.06792919147615971">
      <stop offset="0.0" stop-color="rgb(138, 135, 129)" stop-opacity="1.0"/>
      <stop offset="1.0" stop-color="rgb(119, 72, 47)" stop-opacity="0.41359907388687134"/>
    </radialGradient>
    <radialGradient id="shape_12_fill" cx="0.29080118694362017" cy="0.9977578475336323" r="0.07480746985189285">
      <stop offset="0.0" stop-color="rgb(22, 25, 13)" stop-opacity="1.0"/>
      <stop offset="1.0" stop-color="rgb(38, 31, 15)" stop-opacity="1.0"/>
    </radialGradient>
    <radialGradient id="shape_13_fill" cx="0.327893175074184" cy="0.8923766816143498" r="0.06900465877544279">
      <stop offset="0.0" stop-color="rgb(89, 117, 50)" stop-opacity="1.0"/>
      <stop offset="1.0" stop-color="rgb(92, 120, 9)" stop-opacity="0.6460772752761841"/>
    </radialGradient>
    <radialGradient id="shape_14_fill" cx="0.142433234421365" cy="0.9977578475336323" r="0.06617211022079875">
      <stop offset="0.0" stop-color="rgb(155, 150, 153)" stop-opacity="1.0"/>
      <stop offset="1.0" stop-color="rgb(255, 147, 144)" stop-opacity="0.22857515513896942"/>
    </radialGradient>
    <radialGradient id="shape_15_fill" cx="0.31008902077151335" cy="0.9977578475336323" r="0.06683642786405207">
      <stop offset="0.0" stop-color="rgb(43, 55, 23)" stop-opacity="1.0"/>
      <stop offset="1.0" stop-color="rgb(61, 66, 22)" stop-opacity="0.8691915273666382"/>
    </radialGradient>
    <radialGradient id="shape_16_fill" cx="0.27299703264094954" cy="0.9977578475336323" r="0.08110449363640579">
      <stop offset="0.0" stop-color="rgb(31, 35, 19)" stop-opacity="1.0"/>
      <stop offset="1.0" stop-color="rgb(30, 24, 0)" stop-opacity="0.9431276917457581"/>
    </radialGradient>
    <radialGradient id="shape_17_fill" cx="0.2893175074183976" cy="0.9977578475336323" r="0.07513486030193747">
      <stop offset="0.0" stop-color="rgb(22, 23, 13)" stop-opacity="1.0"/>
      <stop offset="1.0" stop-color="rgb(25, 20, 0)" stop-opacity="0.8522971868515015"/>
    </radialGradient>
    <radialGradient id="shape_18_fill" cx="0.3293768545994065" cy="0.7556053811659192" r="0.06617211022079875">
      <stop offset="0.0" stop-color="rgb(83, 108, 65)" stop-opacity="1.0"/>
      <stop offset="1.0" stop-color="rgb(105, 122, 58)" stop-opacity="0.9665883779525757"/>
    </radialGradient>
    <radialGradient id="shape_19_fill" cx="0.3516320474777448" cy="0.9977578475336323" r="0.06617211022079875">
      <stop offset="0.0" stop-color="rgb(95, 135, 39)" stop-opacity="1.0"/>
      <stop offset="1.0" stop-color="rgb(128, 184, 0)" stop-opacity="0.6380422711372375"/>
    </radialGradient>
    <radialGradient id="shape_20_fill" cx="0.0830860534124629" cy="0.9977578475336323" r="0.06792919147615971">
      <stop offset="0.0" stop-color="rgb(49, 52, 66)" stop-opacity="1.0"/>
      <stop offset="1.0" stop-color="rgb(44, 29, 65)" stop-opacity="0.4487239718437195"/>
    </radialGradient>
    <radialGradient id="shape_21_fill" cx="0.29821958456973297" cy="0.9977578475336323" r="0.06792919147615971">
      <stop offset="0.0" stop-color="rgb(33, 40, 17)" stop-opacity="1.0"/>
      <stop offset="1.0" stop-color="rgb(48, 62, 0)" stop-opacity="0.7167385220527649"/>
    </radialGradient>
    <radialGradient id="shape_22_fill" cx="0.3563326600751113" cy="0.44372438849889645" r="0.06594546966099951">
      <stop offset="0.52384716" stop-color="rgb(108, 134, 39)" stop-opacity="1.0"/>
      <stop offset="0.38891584" stop-color="rgb(146, 172, 41)" stop-opacity="0.9103934168815613"/>
    </radialGradient>
    <radialGradient id="shape_23_fill" cx="0.6454005934718101" cy="0.1412556053811659" r="0.06617211022079875">
      <stop offset="0.0" stop-color="rgb(46, 38, 13)" stop-opacity="1.0"/>
      <stop offset="1.0" stop-color="rgb(54, 28, 0)" stop-opacity="0.8875240683555603"/>
    </radialGradient>
    <radialGradient id="shape_24_fill" cx="0.2492550586734398" cy="0.4843076355254169" r="0.06616971047059012">
      <stop offset="0.0" stop-color="rgb(205, 213, 206)" stop-opacity="1.0"/>
      <stop offset="0.92454517" stop-color="rgb(255, 255, 255)" stop-opacity="0.33465975522994995"/>
    </radialGradient>
    <radialGradient id="shape_25_fill" cx="0.6320474777448071" cy="0.9977578475336323" r="0.06617211022079875">
      <stop offset="0.0" stop-color="rgb(35, 28, 8)" stop-opacity="1.0"/>
      <stop offset="1.0" stop-color="rgb(39, 14, 0)" stop-opacity="0.7246036529541016"/>
    </radialGradient>
    <radialGradient id="shape_26_fill" cx="0.15414520399506793" cy="0.3207086811151205" r="0.06604698362265567">
      <stop offset="0.11989566" stop-color="rgb(198, 211, 155)" stop-opacity="1.0"/>
      <stop offset="0.58338004" stop-color="rgb(166, 144, 105)" stop-opacity="0.3553037643432617"/>
    </radialGradient>
    <radialGradient id="shape_27_fill" cx="0.15410647972401242" cy="0.3208032787648017" r="0.06604505929465818">
      <stop offset="0.0" stop-color="rgb(192, 205, 0)" stop-opacity="1.0"/>
      <stop offset="0.49375948" stop-color="rgb(46, 39, 26)" stop-opacity="0.4651337265968323"/>
    </radialGradient>
    <radialGradient id="shape_28_fill" cx="0.034002595556242174" cy="0.015484120279149624" r="0.07232685824883797">
      <stop offset="0.09780773" stop-color="rgb(7, 20, 112)" stop-opacity="0.9382736682891846"/>
      <stop offset="0.8154831" stop-color="rgb(9, 22, 152)" stop-opacity="0.7486019134521484"/>
    </radialGradient>
    <radialGradient id="shape_29_fill" cx="0.33976258863681147" cy="0.6659192825112108" r="0.06617211022079875">
      <stop offset="0.0" stop-color="rgb(90, 117, 55)" stop-opacity="1.0"/>
      <stop offset="1.0" stop-color="rgb(107, 130, 29)" stop-opacity="0.8683241605758667"/>
    </radialGradient>
    <radialGradient id="shape_30_fill" cx="0.038892092266139364" cy="0.016020485103932197" r="0.06945422707396375">
      <stop offset="0.17823748" stop-color="rgb(50, 70, 76)" stop-opacity="1.0"/>
      <stop offset="0.9295449" stop-color="rgb(65, 64, 0)" stop-opacity="0.494463175535202"/>
    </radialGradient>
    <radialGradient id="shape_31_fill" cx="0.12314540059347182" cy="0.9977578475336323" r="0.06617211022079875">
      <stop offset="0.0" stop-color="rgb(95, 103, 98)" stop-opacity="1.0"/>
      <stop offset="1.0" stop-color="rgb(135, 118, 109)" stop-opacity="0.7325796484947205"/>
    </radialGradient>
    <radialGradient id="shape_32_fill" cx="0.4035608308605341" cy="0.984304932735426" r="0.06617211022079875">
      <stop offset="0.0" stop-color="rgb(126, 155, 63)" stop-opacity="1.0"/>
      <stop offset="1.0" stop-color="rgb(97, 73, 11)" stop-opacity="0.5933285355567932"/>
    </radialGradient>
    <radialGradient id="shape_33_fill" cx="0.3249258160237389" cy="0.6053811659192825" r="0.06617211022079875">
      <stop offset="1.5749212e-05" stop-color="rgb(93, 124, 71)" stop-opacity="0.999808132648468"/>
      <stop offset="1.0" stop-color="rgb(124, 140, 58)" stop-opacity="1.0"/>
    </radialGradient>
    <radialGradient id="shape_34_fill" cx="0.6468842729970327" cy="0.531390134529148" r="0.06617211022079875">
      <stop offset="0.0" stop-color="rgb(54, 47, 24)" stop-opacity="1.0"/>
      <stop offset="1.0" stop-color="rgb(44, 8, 33)" stop-opacity="0.3821570873260498"/>
    </radialGradient>
    <radialGradient id="shape_35_fill" cx="0.1505086429041288" cy="0.23825920002342874" r="0.06706789622320973">
      <stop offset="0.11719784" stop-color="rgb(208, 255, 95)" stop-opacity="0.1368483304977417"/>
      <stop offset="0.5307658" stop-color="rgb(105, 72, 66)" stop-opacity="0.849926769733429"/>
    </radialGradient>
    <radialGradient id="shape_36_fill" cx="0.2878338278931751" cy="0.9977578475336323" r="0.06617211022079875">
      <stop offset="0.0" stop-color="rgb(80, 96, 53)" stop-opacity="1.0"/>
      <stop offset="1.0" stop-color="rgb(22, 17, 0)" stop-opacity="0.7772660851478577"/>
    </radialGradient>
    <radialGradient id="shape_37_fill" cx="0.129080118694362" cy="0.9977578475336323" r="0.06617211022079875">
      <stop offset="0.0" stop-color="rgb(87, 97, 81)" stop-opacity="1.0"/>
      <stop offset="1.0" stop-color="rgb(63, 64, 57)" stop-opacity="0.6035594940185547"/>
    </radialGradient>
    <radialGradient id="shape_38_fill" cx="0.33892324204260943" cy="0.5607740119968294" r="0.0666785763703751">
      <stop offset="0.7501433" stop-color="rgb(86, 107, 28)" stop-opacity="0.9252018928527832"/>
      <stop offset="0.6022492" stop-color="rgb(164, 246, 77)" stop-opacity="0.8712533116340637"/>
    </radialGradient>
    <radialGradient id="shape_39_fill" cx="0.40059347181008903" cy="0.9641255605381166" r="0.06617211022079875">
      <stop offset="0.0" stop-color="rgb(138, 168, 60)" stop-opacity="1.0"/>
      <stop offset="1.0" stop-color="rgb(221, 255, 86)" stop-opacity="0.8385798335075378"/>
    </radialGradient>
    <radialGradient id="shape_40_fill" cx="0.6105319512704006" cy="0.8748306479689252" r="0.07214191900870214">
      <stop offset="0.3674091" stop-color="rgb(159, 142, 175)" stop-opacity="0.2734598219394684"/>
      <stop offset="0.5261238" stop-color="rgb(2, 7, 60)" stop-opacity="0.7981856465339661"/>
    </radialGradient>
    <radialGradient id="shape_41_fill" cx="0.6454005934718101" cy="0.08744394618834081" r="0.06617211022079875">
      <stop offset="0.0" stop-color="rgb(58, 48, 21)" stop-opacity="1.0"/>
      <stop offset="1.0" stop-color="rgb(92, 60, 24)" stop-opacity="0.999547004699707"/>
    </radialGradient>
    <radialGradient id="shape_42_fill" cx="0.5845697329376854" cy="0.6188340807174888" r="0.06617211022079875">
      <stop offset="0.0" stop-color="rgb(62, 59, 56)" stop-opacity="1.0"/>
      <stop offset="1.0" stop-color="rgb(45, 35, 78)" stop-opacity="0.6561403870582581"/>
    </radialGradient>
    <radialGradient id="shape_43_fill" cx="0.3543948391424796" cy="0.5017052209965317" r="0.07021193688276614">
      <stop offset="0.24439567" stop-color="rgb(120, 150, 53)" stop-opacity="0.920907199382782"/>
      <stop offset="0.61604315" stop-color="rgb(201, 252, 21)" stop-opacity="0.7290536761283875"/>
    </radialGradient>
    <radialGradient id="shape_44_fill" cx="0.5934718100890207" cy="0.9977578475336323" r="0.06617211022079875">
      <stop offset="0.0" stop-color="rgb(89, 61, 18)" stop-opacity="1.0"/>
      <stop offset="1.0" stop-color="rgb(165, 77, 6)" stop-opacity="0.6917294859886169"/>
    </radialGradient>
    <radialGradient id="shape_45_fill" cx="0.612759643916914" cy="0.04035874439461883" r="0.06617211022079875">
      <stop offset="0.0" stop-color="rgb(157, 136, 123)" stop-opacity="1.0"/>
      <stop offset="1.0" stop-color="rgb(255, 215, 203)" stop-opacity="1.0"/>
    </radialGradient>
    <radialGradient id="shape_46_fill" cx="0.28635014836795253" cy="0.9977578475336323" r="0.06617211022079875">
      <stop offset="0.0" stop-color="rgb(82, 99, 55)" stop-opacity="1.0"/>
      <stop offset="1.0" stop-color="rgb(92, 96, 32)" stop-opacity="0.5682803392410278"/>
    </radialGradient>
    <radialGradient id="shape_47_fill" cx="0.28635014836795253" cy="0.8183856502242153" r="0.06617211022079875">
      <stop offset="0.0" stop-color="rgb(166, 189, 197)" stop-opacity="1.0"/>
      <stop offset="1.0" stop-color="rgb(241, 255, 255)" stop-opacity="0.43949586153030396"/>
    </radialGradient>
    <radialGradient id="shape_48_fill" cx="0.40801186943620177" cy="0.9977578475336323" r="0.06617211022079875">
      <stop offset="0.0" stop-color="rgb(107, 135, 68)" stop-opacity="1.0"/>
      <stop offset="1.0" stop-color="rgb(126, 134, 56)" stop-opacity="1.0"/>
    </radialGradient>
    <radialGradient id="shape_49_fill" cx="0.19287833827893175" cy="0.3991031390134529" r="0.06617211022079875">
      <stop offset="0.0" stop-color="rgb(92, 100, 54)" stop-opacity="1.0"/>
      <stop offset="1.0" stop-color="rgb(51, 20, 0)" stop-opacity="0.5038500428199768"/>
    </radialGradient>
    <radialGradient id="shape_50_fill" cx="0.6439169139465876" cy="0.7376681614349776" r="0.06617211022079875">
      <stop offset="0.0" stop-color="rgb(65, 56, 25)" stop-opacity="1.0"/>
      <stop offset="1.0" stop-color="rgb(147, 168, 86)" stop-opacity="0.3509019911289215"/>
    </radialGradient>
    <radialGradient id="shape_51_fill" cx="0.5845697329376854" cy="0.6322869955156951" r="0.06617211022079875">
      <stop offset="0.0" stop-color="rgb(75, 68, 60)" stop-opacity="1.0"/>
      <stop offset="1.0" stop-color="rgb(183, 134, 107)" stop-opacity="0.46580740809440613"/>
    </radialGradient>
    <radialGradient id="shape_52_fill" cx="0.2997032640949555" cy="0.6031390134529148" r="0.06617211022079875">
      <stop offset="0.0" stop-color="rgb(107, 158, 118)" stop-opacity="1.0"/>
      <stop offset="1.0" stop-color="rgb(171, 255, 212)" stop-opacity="0.5647518634796143"/>
    </radialGradient>
    <radialGradient id="shape_53_fill" cx="0.6097922848664689" cy="0.45067264573991034" r="0.06617211022079875">
      <stop offset="0.0" stop-color="rgb(38, 39, 27)" stop-opacity="1.0"/>
      <stop offset="1.0" stop-color="rgb(16, 6, 64)" stop-opacity="0.3286297917366028"/>
    </radialGradient>
    <radialGradient id="shape_54_fill" cx="0.6335311572700296" cy="0.426009002822397" r="0.06617211022079875">
      <stop offset="0.0" stop-color="rgb(67, 49, 20)" stop-opacity="1.0"/>
      <stop offset="1.0" stop-color="rgb(173, 90, 36)" stop-opacity="0.4511042833328247"/>
    </radialGradient>
    <radialGradient id="shape_55_fill" cx="0.3707168533823257" cy="0.5988430827187851" r="0.066001377049115">
      <stop offset="0.43605936" stop-color="rgb(243, 255, 51)" stop-opacity="0.8273845314979553"/>
      <stop offset="0.16089156" stop-color="rgb(232, 255, 21)" stop-opacity="0.7450618147850037"/>
    </radialGradient>
    <radialGradient id="shape_56_fill" cx="0.5489614243323442" cy="0.600896860986547" r="0.06617211022079875">
      <stop offset="0.0" stop-color="rgb(50, 62, 80)" stop-opacity="1.0"/>
      <stop offset="1.0" stop-color="rgb(33, 89, 255)" stop-opacity="0.43776512145996094"/>
    </radialGradient>
    <radialGradient id="shape_57_fill" cx="0.4094955489614243" cy="0.9035874439461884" r="0.06617211022079875">
      <stop offset="0.0" stop-color="rgb(111, 144, 47)" stop-opacity="1.0"/>
      <stop offset="1.0" stop-color="rgb(213, 255, 63)" stop-opacity="0.7744909524917603"/>
    </radialGradient>
    <radialGradient id="shape_58_fill" cx="0.5281899109792285" cy="0.9977578475336323" r="0.06617211022079875">
      <stop offset="0.0" stop-color="rgb(50, 43, 14)" stop-opacity="1.0"/>
      <stop offset="1.0" stop-color="rgb(85, 58, 17)" stop-opacity="1.0"/>
    </radialGradient>
    <radialGradient id="shape_59_fill" cx="0.5845697329376854" cy="0.7690582959641256" r="0.06617211022079875">
      <stop offset="0.0" stop-color="rgb(61, 63, 58)" stop-opacity="1.0"/>
      <stop offset="1.0" stop-color="rgb(79, 69, 90)" stop-opacity="0.7111462950706482"/>
    </radialGradient>
    <radialGradient id="shape_60_fill" cx="0.5489614243323442" cy="0.9977578475336323" r="0.06617211022079875">
      <stop offset="0.0" stop-color="rgb(140, 131, 64)" stop-opacity="1.0"/>
      <stop offset="1.0" stop-color="rgb(231, 198, 92)" stop-opacity="0.8839125633239746"/>
    </radialGradient>
    <radialGradient id="shape_61_fill" cx="0.6469716601272719" cy="0.96866973740103" r="0.06610439651443979">
      <stop offset="0.463088" stop-color="rgb(246, 190, 63)" stop-opacity="0.9526426792144775"/>
      <stop offset="0.21278743" stop-color="rgb(156, 77, 72)" stop-opacity="0.4519505798816681"/>
    </radialGradient>
    <radialGradient id="shape_62_fill" cx="0.615727002967359" cy="0.3991031390134529" r="0.06617211022079875">
      <stop offset="0.0" stop-color="rgb(55, 47, 13)" stop-opacity="1.0"/>
      <stop offset="1.0" stop-color="rgb(81, 52, 6)" stop-opacity="0.8901071548461914"/>
    </radialGradient>
    <radialGradient id="shape_63_fill" cx="0.6261127596439169" cy="0.7286995515695067" r="0.06617211022079875">
      <stop offset="0.0" stop-color="rgb(79, 66, 32)" stop-opacity="1.0"/>
      <stop offset="1.0" stop-color="rgb(198, 189, 95)" stop-opacity="0.5103241205215454"/>
    </radialGradient>
    <radialGradient id="shape_64_fill" cx="0.40801186943620177" cy="0.12556053811659193" r="0.06617211022079875">
      <stop offset="0.0" stop-color="rgb(76, 66, 59)" stop-opacity="1.0"/>
      <stop offset="1.0" stop-color="rgb(147, 112, 114)" stop-opacity="1.0"/>
    </radialGradient>
    <radialGradient id="shape_65_fill" cx="0.6528189910979229" cy="0.6883408071748879" r="0.06617211022079875">
      <stop offset="0.0" stop-color="rgb(121, 97, 39)" stop-opacity="1.0"/>
      <stop offset="1.0" stop-color="rgb(255, 220, 93)" stop-opacity="1.0"/>
    </radialGradient>
    <radialGradient id="shape_66_fill" cx="0.6522641960166682" cy="0.45797192355442473" r="0.07072687573531969">
      <stop offset="0.25676376" stop-color="rgb(182, 213, 116)" stop-opacity="0.29313474893569946"/>
      <stop offset="0.7637182" stop-color="rgb(0, 15, 0)" stop-opacity="0.052003249526023865"/>
    </radialGradient>
    <radialGradient id="shape_67_fill" cx="0.5976891673283337" cy="0.9948744153762612" r="0.07079031630156656">
      <stop offset="0.8364604" stop-color="rgb(50, 28, 0)" stop-opacity="0.6352754235267639"/>
      <stop offset="1.0" stop-color="rgb(0, 23, 0)" stop-opacity="0.15231800079345703"/>
    </radialGradient>
    <radialGradient id="shape_68_fill" cx="0.49229417568852" cy="0.9977992446967839" r="0.06856295758255865">
      <stop offset="0.39216098" stop-color="rgb(43, 14, 0)" stop-opacity="0.4453143775463104"/>
      <stop offset="1.0" stop-color="rgb(29, 64, 52)" stop-opacity="0.18209993839263916"/>
    </radialGradient>
  </defs>
  <g>
    <path d="M 0.02128574252128601 271.3213806152344 C 17.19976043701172 256.7451477050781 46.252532958984375 258.87677001953125 46.67117691040039 271.1292724609375 C 48.264408111572266 273.04522705078125 49.330753326416016 276.1738586425781 57.138118743896484 274.6036376953125 C 57.90730667114258 273.85302734375 62.241668701171875 273.5834655761719 62.61409378051758 269.1312561035156 C 68.32429504394531 267.9013977050781 100.39832305908203 269.2501525878906 116.70716094970703 269.5918884277344 C 119.525390625 271.6058044433594 125.15142059326172 278.173095703125 126.59120178222656 282.3523254394531 C 134.78233337402344 282.7999267578125 147.2918243408203 280.69488525390625 172.94241333007812 290.3349914550781 C 185.41119384765625 283.18988037109375 185.91612243652344 281.376708984375 206.7387237548828 287.23272705078125 C 200.54627990722656 286.9630432128906 198.36256408691406 280.9522705078125 210.9390106201172 268.0305480957031 C 249.86474609375 265.48565673828125 293.7703552246094 263.20062255859375 311.9380187988281 272.59197998046875 C 349.3145751953125 273.9753112792969 425.564208984375 274.76605224609375 479.44512939453125 263.7876281738281 C 511.30963134765625 258.66845703125 548.6951904296875 259.6224365234375 548.3248901367188 273.9708251953125 C 547.1312255859375 273.9649963378906 547.1671142578125 262.77130126953125 578.495849609375 262.80218505859375 C 596.9824829101562 267.17913818359375 612.1932983398438 279.2908630371094 612.532470703125 280.05596923828125 C 612.44677734375 265.629150390625 624.3250732421875 265.47210693359375 673.4082641601562 265.7286071777344 C 676.7758178710938 272.2895812988281 679.37158203125 278.8263854980469 678.4677124023438 284.9035339355469 C 676.6203002929688 339.5299377441406 674.7125244140625 391.4871826171875 675.1177368164062 446.4668273925781 C 451.9151306152344 446.6697692871094 228.9889373779297 446.8115539550781 -0.4355628192424774 446.4240417480469 C -0.5163183212280273 389.140869140625 -0.6639408469200134 332.2900390625 0.02128574252128601 271.3213806152344" stroke-width="0.0" fill="url(#shape_0_fill)"/>
    <path d="M -0.29332125186920166 271.1043701171875 C 35.93409729003906 275.3907775878906 36.5576057434082 274.58306884765625 44.02976989746094 273.28118896484375 C 44.893226623535156 266.0848693847656 58.48102951049805 265.7943115234375 80.67355346679688 266.6600341796875 C 113.70828247070312 278.67987060546875 114.08116912841797 279.3109130859375 128.24105834960938 279.15142822265625 C 127.7354736328125 270.0833435058594 135.83843994140625 269.36328125 144.96197509765625 269.5802307128906 C 185.25137329101562 268.77178955078125 186.09246826171875 268.8653869628906 205.54855346679688 272.0344543457031 C 203.63441467285156 292.1426696777344 204.3938751220703 292.3250427246094 208.721435546875 298.94049072265625 C 213.76544189453125 298.1387939453125 267.97320556640625 298.65740966796875 292.16143798828125 301.1760559082031 C 306.4939880371094 306.7943115234375 441.7557678222656 303.9997863769531 459.97222900390625 304.5570068359375 C 474.8888854980469 293.1012878417969 492.66259765625 292.80712890625 504.5760192871094 286.9352111816406 C 515.798583984375 289.3513488769531 521.2369995117188 286.8473205566406 523.2188110351562 286.60589599609375 C 527.3929443359375 285.7541198730469 531.7015380859375 286.0107421875 534.1867065429688 287.2291259765625 C 538.8803100585938 287.5194396972656 540.4551391601562 288.83563232421875 541.9364624023438 310.14422607421875 C 579.62646484375 291.81768798828125 581.6304931640625 292.33447265625 601.3851318359375 298.643798828125 C 619.8584594726562 289.3739929199219 629.2998657226562 288.1953125 634.1876220703125 288.4981994628906 C 636.5575561523438 274.22698974609375 653.53271484375 276.374755859375 673.649658203125 293.7695007324219 C 674.4172973632812 339.863525390625 674.5127563476562 392.07269287109375 674.1581420898438 446.2807922363281 C 451.4774169921875 446.3905334472656 229.19664001464844 446.25439453125 -0.30765825510025024 446.2476501464844 C -0.21182821691036224 389.403564453125 -0.30808064341545105 333.013916015625 -0.29332125186920166 271.1043701171875" stroke-width="0.0" fill="url(#shape_1_fill)"/>
    <path d="M -0.019932541996240616 -0.25989267230033875 C 219.69313049316406 0.1040392518043518 439.478759765625 -0.45242562890052795 674.19921875 -0.05685407668352127 C 665.86328125 10.683551788330078 644.880615234375 34.84074401855469 637.2467651367188 49.597347259521484 C 634.3004760742188 53.05054473876953 612.0118408203125 91.92039489746094 583.8171997070312 83.80662536621094 C 577.1660766601562 81.24112701416016 564.3008422851562 72.07743835449219 532.50244140625 74.40835571289062 C 531.8487548828125 79.21458435058594 527.7677001953125 80.21673583984375 522.1041870117188 72.0068359375 C 522.6912841796875 68.93626403808594 499.3179016113281 63.92536544799805 498.9952087402344 62.59302520751953 C 493.2213439941406 62.26538848876953 486.22747802734375 61.09817886352539 484.3089904785156 68.84957885742188 C 475.2685546875 72.88963317871094 476.28411865234375 76.09754943847656 476.68743896484375 81.198974609375 C 483.4617004394531 100.525634765625 480.1961975097656 120.02787780761719 480.05242919921875 122.8242416381836 C 460.3288879394531 116.8045883178711 459.24908447265625 114.81326293945312 450.9515380859375 108.55814361572266 C 435.37213134765625 107.47787475585938 411.774658203125 101.58068084716797 409.3327941894531 105.556884765625 C 413.05572509765625 121.69107818603516 419.4205322265625 128.77658081054688 413.50439453125 139.3795166015625 C 410.70703125 152.7212371826172 394.59112548828125 152.26556396484375 394.60223388671875 135.46746826171875 C 382.7691955566406 140.14002990722656 381.41619873046875 158.33718872070312 370.15374755859375 157.68031311035156 C 366.18359375 156.72909545898438 363.2073669433594 158.16177368164062 354.3971862792969 158.33836364746094 C 348.3248291015625 163.728271484375 345.68377685546875 165.44476318359375 347.65313720703125 171.4488525390625 C 343.60577392578125 177.37374877929688 341.4803466796875 175.923583984375 350.64288330078125 160.4862518310547 C 293.5798645019531 156.18519592285156 292.9286193847656 162.7166748046875 291.4815368652344 172.10501098632812 C 306.0777587890625 185.40696716308594 304.1067199707031 189.42994689941406 307.4905090332031 201.41964721679688 C 307.5314636230469 200.62669372558594 306.36041259765625 198.1461944580078 304.76690673828125 190.099365234375 C 304.11102294921875 185.72938537597656 302.8094482421875 184.55152893066406 291.223388671875 171.2424774169922 C 289.85162353515625 194.56199645996094 288.99871826171875 195.96316528320312 289.35577392578125 196.29957580566406 C 289.3392333984375 189.90557861328125 291.74676513671875 181.7660369873047 290.45281982421875 166.9092559814453 C 270.63409423828125 169.61354064941406 266.2950744628906 176.34034729003906 261.7411193847656 173.5243377685547 C 256.4072570800781 184.01393127441406 255.93438720703125 189.39768981933594 254.7222442626953 197.0845184326172 C 260.68231201171875 199.28448486328125 260.457763671875 199.86534118652344 257.9954833984375 199.64834594726562 C 257.0654296875 198.6772003173828 253.97105407714844 196.51129150390625 255.3966827392578 193.8175506591797 C 255.74598693847656 181.66424560546875 262.3212585449219 179.8951873779297 262.95086669921875 162.27740478515625 C 261.95562744140625 158.0482635498047 215.7447509765625 143.4890899658203 212.3686981201172 142.34823608398438 C 187.1833953857422 134.90054321289062 195.38201904296875 106.12039947509766 191.30955505371094 86.39274597167969 C 190.83888244628906 84.55355072021484 162.65261840820312 74.34276580810547 128.69195556640625 57.82331085205078 C 100.85877227783203 38.872283935546875 75.93001556396484 58.707942962646484 46.87919998168945 57.560787200927734 C 29.834794998168945 70.42857360839844 1.7034766674041748 69.86939239501953 -0.9115236401557922 69.45018005371094 C 0.34183040261268616 43.958133697509766 -0.3314551115036011 22.56187629699707 -0.019932541996240616 -0.25989267230033875" stroke-width="0.0" fill="url(#shape_2_fill)"/>
    <path d="M 87.23420715332031 58.06570053100586 C 88.92166900634766 68.8193588256836 91.67588806152344 69.00138092041016 93.80147552490234 71.94141387939453 C 90.01566314697266 80.0349349975586 92.96192169189453 81.71746063232422 89.06541442871094 94.13399505615234 C 95.78987884521484 85.82284545898438 98.15218353271484 86.47830200195312 102.83866119384766 87.93350982666016 C 105.09309387207031 75.14594268798828 105.61833953857422 73.25833892822266 108.19564056396484 73.57913970947266 C 112.7690200805664 87.00726318359375 109.75896453857422 92.18141174316406 117.55628967285156 98.68901824951172 C 115.94904327392578 100.03486633300781 116.89000701904297 109.45745849609375 115.43937683105469 115.06982421875 C 121.09867858886719 115.35237884521484 128.18470764160156 116.2845458984375 129.79214477539062 112.11555480957031 C 131.08897399902344 111.08423614501953 136.91168212890625 109.57057189941406 136.78822326660156 105.0033950805664 C 136.69129943847656 103.70072937011719 135.59532165527344 101.90098571777344 137.98342895507812 99.79924774169922 C 136.55239868164062 93.28561401367188 137.59925842285156 92.93443298339844 137.73492431640625 89.89481353759766 C 137.35125732421875 85.48805236816406 138.5460968017578 85.02610778808594 140.18899536132812 88.99608612060547 C 140.75938415527344 83.36522674560547 146.76393127441406 80.27040100097656 148.49258422851562 80.29346466064453 C 148.19602966308594 93.28556823730469 149.68421936035156 94.55261993408203 152.51808166503906 99.58930206298828 C 153.96484375 102.62875366210938 149.86549377441406 106.85140228271484 148.87892150878906 106.77479553222656 C 152.33102416992188 109.47064208984375 150.03790283203125 113.94158172607422 148.2091522216797 113.2095947265625 C 154.17666625976562 112.92285919189453 158.15048217773438 122.59540557861328 157.0417022705078 123.37149810791016 C 160.95294189453125 124.82780456542969 164.7630615234375 123.42564392089844 169.70957946777344 122.8214340209961 C 174.39776611328125 119.73486328125 175.78892517089844 121.50910949707031 177.6092071533203 122.47567749023438 C 179.3152618408203 122.72554016113281 180.1040496826172 124.9710693359375 183.6809844970703 127.23249816894531 C 183.93479919433594 130.0386505126953 182.68934631347656 132.75025939941406 185.77435302734375 134.5669403076172 C 189.41151428222656 135.28555297851562 189.50660705566406 136.86538696289062 187.67625427246094 144.11941528320312 C 197.52749633789062 148.5521240234375 208.94314575195312 153.58706665039062 201.612060546875 172.65626525878906 C 205.6588897705078 177.0770263671875 206.3525848388672 179.44985961914062 205.25819396972656 181.6872100830078 C 213.97540283203125 180.97735595703125 215.148193359375 193.09251403808594 212.65426635742188 201.27523803710938 C 204.4346923828125 205.90013122558594 202.916259765625 206.1773681640625 203.482177734375 210.13192749023438 C 200.4167022705078 210.4059295654297 200.3822021484375 211.82867431640625 198.865478515625 212.97706604003906 C 196.44290161132812 215.46739196777344 192.89752197265625 215.2604217529297 192.18467712402344 219.6184539794922 C 184.2937469482422 220.60888671875 183.65106201171875 224.76866149902344 178.21302795410156 230.11976623535156 C 176.41940307617188 233.4276885986328 181.57626342773438 237.9399871826172 181.21372985839844 238.46304321289062 C 181.853515625 251.8406219482422 185.609130859375 260.7949523925781 179.83460998535156 264.2091369628906 C 169.2797393798828 269.94769287109375 148.66355895996094 267.732177734375 136.2340850830078 269.6461181640625 C 131.43202209472656 268.8203125 128.9906768798828 272.28125 122.82759094238281 275.5031433105469 C 109.16519165039062 276.63934326171875 73.34429931640625 275.8924255371094 72.98417663574219 270.12646484375 C 47.7533073425293 266.80010986328125 56.59489440917969 268.5897216796875 58.19753646850586 273.3819885253906 C 48.678627014160156 276.5967712402344 1.0620388984680176 272.6584167480469 0.7658876776695251 269.9222106933594 C -6.451215744018555 225.8660888671875 -4.723816394805908 168.054443359375 1.9985030889511108 122.25619506835938 C 10.485522270202637 117.77739715576172 21.282438278198242 113.97993469238281 26.313579559326172 121.87371826171875 C 27.604637145996094 130.0251922607422 35.83852005004883 129.09861755371094 42.11439514160156 131.94287109375 C 46.142269134521484 130.34425354003906 47.430416107177734 131.3596954345703 49.53500747680664 142.32762145996094 C 50.67134475708008 149.47119140625 61.05813980102539 148.54368591308594 62.71282196044922 146.26258850097656 C 62.15414047241211 136.97677612304688 63.1759147644043 134.11981201171875 62.06465530395508 128.26309204101562 C 68.22547149658203 126.6053237915039 67.6437759399414 124.38288116455078 66.27384948730469 112.69444274902344 C 68.59807586669922 111.13982391357422 67.97716522216797 103.98273468017578 75.20538330078125 100.93836212158203 C 74.88723754882812 100.49384307861328 77.69099426269531 89.94463348388672 77.38310241699219 85.9234848022461 C 77.3311996459961 83.0628890991211 77.45649719238281 75.2136001586914 85.2563705444336 75.36304473876953 C 83.1485824584961 70.26104736328125 82.67567443847656 67.5484619140625 87.23420715332031 58.06570053100586" stroke-width="0.0" fill="url(#shape_3_fill)"/>
    <path d="M 673.9801025390625 -0.5496405363082886 C 676.1175537109375 47.82529830932617 675.0172119140625 95.90823364257812 682.0423583984375 136.63409423828125 C 678.998291015625 119.57400512695312 673.1348876953125 119.98892211914062 662.1414794921875 120.11766815185547 C 660.1875 119.50410461425781 654.6510620117188 109.5787582397461 650.1943359375 110.9495849609375 C 648.9459838867188 112.54894256591797 644.9972534179688 150.14881896972656 642.9166259765625 155.6890106201172 C 629.9532470703125 154.82467651367188 627.1221313476562 142.6694793701172 626.97314453125 138.47996520996094 C 623.0451049804688 137.47364807128906 619.2535400390625 145.43569946289062 615.4208374023438 144.4292755126953 C 611.6814575195312 142.30984497070312 610.1643676757812 143.31637573242188 607.80419921875 141.01492309570312 C 608.8719482421875 136.9590301513672 613.4965209960938 132.6224822998047 604.4810791015625 114.92863464355469 C 599.482177734375 135.7520751953125 597.8045043945312 139.6195068359375 593.3364868164062 142.53854370117188 C 599.0380859375 145.91357421875 598.3536987304688 151.47337341308594 597.3970336914062 152.67459106445312 C 587.6862182617188 157.45974731445312 588.5487670898438 164.72305297851562 578.0778198242188 172.57489013671875 C 572.3248901367188 170.17630004882812 569.7064819335938 157.73934936523438 568.579345703125 157.0643310546875 C 565.2282104492188 158.3163604736328 563.5065307617188 154.32608032226562 561.9351806640625 148.51837158203125 C 560.0699462890625 151.12942504882812 556.7466430664062 151.19210815429688 555.43603515625 155.51759338378906 C 552.3961791992188 155.94398498535156 550.758544921875 157.98927307128906 548.6731567382812 158.40711975097656 C 548.1114501953125 154.71832275390625 544.8521118164062 155.17453002929688 535.9942626953125 152.780029296875 C 531.75146484375 154.89727783203125 529.961669921875 159.4910430908203 523.1423950195312 156.9482879638672 C 519.2518920898438 160.5238037109375 520.3273315429688 162.15216064453125 522.8560180664062 168.9390869140625 C 517.6307373046875 168.50820922851562 517.3046264648438 171.06893920898438 516.2472534179688 171.6186065673828 C 511.2713623046875 173.32232666015625 509.8157043457031 175.26531982421875 505.64581298828125 174.399169921875 C 502.73779296875 171.41519165039062 503.0596923828125 169.50518798828125 502.9844055175781 159.2997283935547 C 489.9058837890625 143.91921997070312 504.5968933105469 119.09403228759766 516.0504150390625 125.67335510253906 C 524.0821533203125 125.45716094970703 542.2958984375 109.11412048339844 548.7935180664062 112.89820861816406 C 557.2013549804688 110.73311614990234 556.9949951171875 109.39868927001953 558.4757690429688 109.14701080322266 C 559.5494995117188 107.31800079345703 564.7460327148438 103.40435028076172 570.1139526367188 105.0970458984375 C 574.6563720703125 102.41963958740234 573.566162109375 97.69241333007812 579.0076293945312 93.87650299072266 C 588.36376953125 88.08011627197266 591.3834838867188 77.98612213134766 612.48583984375 78.50780487060547 C 616.9110717773438 73.6094970703125 644.34814453125 51.2390022277832 645.9428100585938 35.3524055480957 C 644.886962890625 32.39727783203125 647.967529296875 30.375186920166016 647.4667358398438 29.46207046508789 C 646.885986328125 28.282215118408203 664.1449584960938 -4.268420696258545 673.9801025390625 -0.5496405363082886" stroke-width="0.0" fill="url(#shape_4_fill)"/>
    <path d="M 151.487060546875 68.62788391113281 C 152.30624389648438 69.07977294921875 186.20823669433594 84.83025360107422 192.61968994140625 91.87560272216797 C 179.71566772460938 118.2440414428711 217.7930908203125 149.96978759765625 221.2225799560547 154.57183837890625 C 240.1244659423828 168.01651000976562 242.0186309814453 184.26528930664062 240.71853637695312 193.86703491210938 C 237.9962921142578 193.2089080810547 236.094970703125 186.7863006591797 236.7725067138672 184.06607055664062 C 235.68856811523438 183.52565002441406 234.15423583984375 184.3132781982422 231.05250549316406 182.66915893554688 C 231.90643310546875 184.42184448242188 232.1420135498047 193.13917541503906 228.656982421875 195.66868591308594 C 227.64173889160156 196.6386260986328 227.68222045898438 205.25123596191406 221.06285095214844 207.64468383789062 C 215.08299255371094 206.5762176513672 214.28219604492188 197.8614501953125 214.5786895751953 195.00259399414062 C 212.95529174804688 185.4473876953125 211.8931427001953 184.95733642578125 206.58926391601562 177.40647888183594 C 205.7977294921875 172.6906280517578 206.18699645996094 168.0666046142578 204.21412658691406 159.46144104003906 C 205.70848083496094 153.82652282714844 194.8787841796875 144.62147521972656 193.56158447265625 141.08177185058594 C 189.22698974609375 139.9164276123047 189.08665466308594 136.18783569335938 186.64601135253906 135.8504638671875 C 177.62860107421875 134.11590576171875 178.4750213623047 127.62017822265625 183.43240356445312 117.18217468261719 C 179.3909454345703 116.40991973876953 177.40066528320312 117.66792297363281 172.9365692138672 117.72513580322266 C 178.9012908935547 128.01162719726562 177.22659301757812 131.2125244140625 152.26193237304688 130.27906799316406 C 148.91610717773438 129.1903839111328 152.3124542236328 102.65261840820312 154.369384765625 92.65234375 C 152.5713653564453 91.60903930664062 153.2327117919922 88.02571868896484 150.3414764404297 76.23526763916016 C 147.9527130126953 75.89068603515625 148.00088500976562 69.19288635253906 151.487060546875 68.62788391113281" stroke-width="0.0" fill="url(#shape_5_fill)"/>
    <path d="M 614.9536743164062 78.99063110351562 C 618.7891235351562 83.95629119873047 620.3290405273438 86.78303527832031 632.42578125 86.15087127685547 C 635.9951782226562 86.30640411376953 636.9678955078125 88.70270538330078 641.1553344726562 89.25305938720703 C 642.1851196289062 86.70771026611328 665.3345336914062 92.49569702148438 675.016357421875 98.21312713623047 C 675.4066162109375 110.61923217773438 674.7958984375 125.90557098388672 674.714111328125 151.76356506347656 C 665.6835327148438 142.7759246826172 662.622802734375 136.78233337402344 660.3470458984375 131.9741973876953 C 660.2769775390625 123.56101989746094 660.8347778320312 117.69569396972656 653.7789306640625 112.31132507324219 C 642.8789672851562 113.79479217529297 643.8389282226562 142.23524475097656 642.9378051757812 142.87110900878906 C 644.3226928710938 144.42762756347656 642.418701171875 148.16976928710938 644.5553588867188 149.96975708007812 C 640.1301879882812 151.05116271972656 637.934326171875 152.76583862304688 634.5174560546875 153.11082458496094 C 631.7546997070312 146.15330505371094 629.1729125976562 141.39688110351562 630.0349731445312 140.553955078125 C 628.6489868164062 137.45657348632812 621.9158935546875 136.1207733154297 621.3089599609375 139.122802734375 C 618.6755981445312 140.68795776367188 619.2852172851562 142.49749755859375 618.3999633789062 149.39996337890625 C 613.4669799804688 144.76199340820312 613.0803833007812 143.230712890625 609.3687744140625 143.68389892578125 C 608.4598388671875 140.40748596191406 609.5181274414062 139.2410430908203 608.7752075195312 137.37890625 C 606.3569946289062 132.64952087402344 604.5527954101562 127.32061004638672 600.6405639648438 127.7520980834961 C 606.1024780273438 133.7805938720703 595.38232421875 148.2240447998047 592.4921875 152.9065704345703 C 590.4652709960938 163.74545288085938 588.823486328125 163.88958740234375 585.9425659179688 169.10316467285156 C 584.5382080078125 167.55831909179688 584.1004638671875 167.04649353027344 589.292236328125 153.72959899902344 C 593.2310180664062 141.343017578125 589.7805786132812 139.78970336914062 574.8926391601562 131.01388549804688 C 573.7745971679688 157.7129364013672 557.3492431640625 157.2028045654297 555.9655151367188 151.15406799316406 C 555.7959594726562 152.8681640625 553.0640869140625 154.6960906982422 552.9630737304688 157.8517608642578 C 552.0166015625 161.71237182617188 548.1204833984375 160.75535583496094 547.3555908203125 159.31689453125 C 544.4384765625 156.35633850097656 542.7030639648438 153.71983337402344 538.3571166992188 155.96702575683594 C 535.9229736328125 158.48873901367188 530.9409790039062 157.89781188964844 529.141845703125 158.2000274658203 C 526.6006469726562 159.54559326171875 526.8303833007812 163.4221954345703 525.6939086914062 166.87588500976562 C 524.7076416015625 169.57867431640625 523.6340942382812 171.607666015625 519.0390014648438 173.0703887939453 C 513.3814086914062 175.37490844726562 501.80810546875 174.6222686767578 481.8519287109375 159.27760314941406 C 478.4624938964844 136.2643280029297 500.29034423828125 119.68555450439453 514.3097534179688 118.29847717285156 C 528.327880859375 127.69097900390625 541.5847778320312 108.03001403808594 548.2086791992188 111.73609161376953 C 556.4588012695312 111.08143615722656 563.2584838867188 111.71527099609375 564.263671875 107.0586166381836 C 564.6290893554688 104.43453216552734 566.4715576171875 103.42318725585938 569.86376953125 104.74134826660156 C 572.7390747070312 101.10017395019531 578.9979248046875 99.57809448242188 587.0864868164062 98.57733154296875 C 600.8567504882812 93.48917388916016 603.0105590820312 79.92090606689453 614.9536743164062 78.99063110351562" stroke-width="0.0" fill="url(#shape_6_fill)"/>
    <path d="M 0.3607487976551056 92.90862274169922 C 42.079105377197266 107.53528594970703 43.953819274902344 118.52181243896484 50.63487243652344 138.86642456054688 C 81.80162048339844 153.1770477294922 54.34237289428711 213.16416931152344 36.95458984375 249.04656982421875 C 51.270416259765625 259.6578674316406 48.707462310791016 264.6495361328125 49.00756072998047 264.8050231933594 C 50.97507095336914 254.6208038330078 34.70166778564453 248.12857055664062 20.24530601501465 241.36354064941406 C 6.4981279373168945 196.5395050048828 -11.426310539245605 176.89198303222656 0.3607487976551056 92.90862274169922" stroke-width="0.0" fill="url(#shape_7_fill)"/>
    <path d="M 384.6017150878906 197.14828491210938 C 424.8798522949219 188.5846405029297 427.0279235839844 189.1162109375 429.769775390625 204.3596649169922 C 477.10198974609375 188.15892028808594 498.67291259765625 202.44529724121094 491.2063903808594 229.53048706054688 C 490.96649169921875 250.49903869628906 486.29754638671875 251.51914978027344 484.9286193847656 252.48214721679688 C 486.36383056640625 259.1827392578125 482.5552978515625 268.8284912109375 476.5998840332031 268.68170166015625 C 469.0430603027344 272.9303894042969 453.2210388183594 266.7112731933594 451.65643310546875 269.7185974121094 C 447.19866943359375 266.2898864746094 448.42364501953125 261.24005126953125 449.20550537109375 260.1643981933594 C 439.2766418457031 264.8570251464844 436.525634765625 261.50177001953125 437.5338439941406 256.75677490234375 C 427.0391540527344 257.048095703125 425.71185302734375 259.97552490234375 420.9483337402344 262.0432434082031 C 418.5127868652344 264.19696044921875 417.7730407714844 267.7704162597656 414.9791564941406 273.684814453125 C 414.1124267578125 271.47479248046875 392.2247009277344 269.7746276855469 392.51910400390625 264.2569274902344 C 391.813232421875 265.1766357421875 388.8268737792969 263.4610900878906 385.35919189453125 264.2725524902344 C 382.0934753417969 262.01519775390625 380.80426025390625 263.24371337890625 376.4031066894531 261.2268371582031 C 375.1149597167969 256.434326171875 375.7224426269531 252.84429931640625 370.51458740234375 251.25941467285156 C 360.47369384765625 242.9859161376953 374.09466552734375 194.6727294921875 378.4744873046875 177.05743408203125 C 385.02117919921875 171.61505126953125 394.3043212890625 176.86587524414062 384.6017150878906 197.14828491210938" stroke-width="0.0" fill="url(#shape_8_fill)"/>
    <path d="M 566.5088500976562 157.1074676513672 C 567.9365234375 158.98403930664062 568.12353515625 166.62057495117188 569.3365478515625 168.01622009277344 C 573.4931030273438 169.4951934814453 573.61865234375 171.05972290039062 577.5375366210938 174.39556884765625 C 581.9307250976562 172.94601440429688 583.9710693359375 174.56983947753906 583.7080688476562 179.472412109375 C 575.3946533203125 180.47549438476562 572.2796630859375 225.61241149902344 577.52685546875 226.95896911621094 C 577.8782348632812 230.00279235839844 581.4906616210938 236.08522033691406 576.521728515625 242.60801696777344 C 568.9192504882812 238.59030151367188 566.994873046875 237.10118103027344 558.9762573242188 247.46881103515625 C 553.0545654296875 249.24252319335938 499.28436279296875 255.1982421875 485.51983642578125 251.02523803710938 C 486.71295166015625 250.4276580810547 488.45355224609375 241.39364624023438 497.8923645019531 231.54696655273438 C 486.16461181640625 226.88099670410156 483.0996398925781 222.48133850097656 482.6634521484375 215.22218322753906 C 477.2675476074219 210.1207275390625 479.8172607421875 205.94650268554688 482.85626220703125 206.18679809570312 C 480.70458984375 205.2147216796875 481.46435546875 199.31771850585938 492.31732177734375 199.58164978027344 C 492.4668273925781 196.42578125 491.6897277832031 192.50672912597656 491.8990783691406 188.56509399414062 C 487.4932556152344 174.376953125 487.84564208984375 173.39414978027344 488.1317443847656 164.2760009765625 C 503.9106750488281 164.40316772460938 505.2056579589844 164.6270751953125 512.583251953125 160.72164916992188 C 522.275146484375 169.4750518798828 524.333984375 167.4722442626953 526.1620483398438 167.36976623535156 C 523.7918701171875 162.17379760742188 531.1239013671875 157.3014678955078 533.1923828125 158.9322967529297 C 537.4859008789062 161.9791259765625 541.2803955078125 162.5701904296875 542.0109252929688 164.1527862548828 C 545.1036376953125 164.1533203125 545.64404296875 166.01791381835938 549.9857788085938 166.9359588623047 C 549.0066528320312 165.5901336669922 550.1934204101562 157.92259216308594 554.9041748046875 158.15090942382812 C 557.8819580078125 161.0802001953125 563.0952758789062 157.9945526123047 566.5088500976562 157.1074676513672" stroke-width="0.0" fill="url(#shape_9_fill)"/>
    <path d="M 561.2433471679688 156.78271484375 C 565.457275390625 152.98898315429688 571.3766479492188 157.00067138671875 571.0257568359375 173.7976531982422 C 572.5335083007812 169.13623046875 576.5650024414062 169.08094787597656 579.6624755859375 174.00120544433594 C 580.551513671875 178.1180419921875 578.916015625 187.3743438720703 579.9213256835938 190.99777221679688 C 571.375 196.21864318847656 572.0624389648438 229.96823120117188 578.1195068359375 230.974853515625 C 576.081787109375 231.16293334960938 575.6277465820312 236.8670654296875 572.1171875 237.97265625 C 560.61328125 235.79592895507812 567.1124267578125 238.70767211914062 563.3335571289062 247.56553649902344 C 548.9827880859375 253.17129516601562 501.29351806640625 249.21922302246094 500.2048645019531 251.88150024414062 C 491.2314147949219 251.83389282226562 488.0611572265625 237.48260498046875 499.0216064453125 231.86097717285156 C 486.6331787109375 224.88311767578125 481.9794616699219 219.28721618652344 481.896484375 214.76025390625 C 475.79852294921875 215.3975830078125 472.35589599609375 215.1583251953125 464.61553955078125 196.76087951660156 C 464.835693359375 176.59381103515625 480.3095703125 175.0304412841797 482.5141296386719 195.4320526123047 C 489.6973876953125 197.84063720703125 494.8272705078125 184.83758544921875 496.6139221191406 182.96218872070312 C 495.2950134277344 178.86660766601562 497.5860900878906 177.68751525878906 500.1566467285156 177.50656127929688 C 507.93701171875 179.16802978515625 516.5707397460938 181.7564239501953 521.0149536132812 174.15899658203125 C 525.357421875 173.49777221679688 528.4180908203125 159.6534423828125 529.8300170898438 154.50428771972656 C 538.267333984375 155.7943878173828 539.8953247070312 156.8175811767578 537.0380859375 165.79441833496094 C 545.752685546875 166.04132080078125 549.0638427734375 167.52389526367188 551.6284790039062 166.6914825439453 C 550.9738159179688 155.29429626464844 552.7875366210938 152.9967041015625 561.2433471679688 156.78271484375" stroke-width="0.0" fill="url(#shape_10_fill)"/>
    <path d="M 443.5509033203125 108.86951446533203 C 452.1612854003906 114.10318756103516 453.94647216796875 115.50762939453125 463.037109375 107.58067321777344 C 466.9821472167969 114.1318130493164 469.3359375 113.11107635498047 488.607177734375 107.62541198730469 C 489.4106750488281 124.4315185546875 488.74029541015625 125.26358032226562 492.4770202636719 130.5016326904297 C 493.26434326171875 132.2198028564453 493.46734619140625 135.46719360351562 496.7105407714844 136.32089233398438 C 493.7043762207031 135.77882385253906 493.12225341796875 138.788818359375 490.233642578125 141.8956298828125 C 483.83612060546875 138.9849395751953 482.5201416015625 141.43612670898438 480.8802185058594 142.634033203125 C 468.81915283203125 136.58128356933594 467.03216552734375 135.0546417236328 465.5218505859375 134.57798767089844 C 464.2386169433594 133.46746826171875 461.00128173828125 134.2332763671875 460.2979431152344 133.62625122070312 C 461.84375 131.9212646484375 480.7704162597656 141.4367218017578 499.86529541015625 155.28932189941406 C 476.86773681640625 176.9353485107422 475.9334411621094 177.6070098876953 480.76776123046875 184.70797729492188 C 467.847900390625 183.5560760498047 467.3634948730469 188.61373901367188 463.31622314453125 190.01148986816406 C 463.08251953125 184.57891845703125 460.81488037109375 172.81080627441406 460.8688659667969 159.177978515625 C 449.2188415527344 182.443359375 447.1307067871094 183.27239990234375 439.8020324707031 183.08709716796875 C 439.1355895996094 183.82164001464844 435.79681396484375 195.7606658935547 435.0382080078125 197.36825561523438 C 428.12738037109375 200.37062072753906 417.5317077636719 180.5830535888672 417.6787109375 179.8144073486328 C 416.931640625 180.03765869140625 398.99334716796875 180.90614318847656 398.0577087402344 174.61695861816406 C 394.1107482910156 172.4071807861328 389.77020263671875 176.8665008544922 379.4605712890625 174.6637725830078 C 382.559814453125 157.7212371826172 379.74127197265625 152.098876953125 392.3078308105469 138.82322692871094 C 398.5328369140625 138.67332458496094 399.8970031738281 130.3164825439453 402.9922790527344 119.90508270263672 C 406.5608825683594 98.9881820678711 424.2389221191406 101.41072845458984 443.5509033203125 108.86951446533203" stroke-width="0.0" fill="url(#shape_11_fill)"/>
    <path d="M 602.8895874023438 127.69976806640625 C 605.680419921875 130.30271911621094 605.287353515625 143.36337280273438 606.889892578125 145.474365234375 C 610.7966918945312 146.1031951904297 610.8909912109375 151.28395080566406 619.0916137695312 154.03469848632812 C 618.0481567382812 149.8345184326172 617.5062866210938 141.87908935546875 622.881591796875 141.0875244140625 C 623.954833984375 137.39463806152344 625.3661499023438 137.32272338867188 627.2036743164062 140.32701110839844 C 627.10400390625 142.21939086914062 628.873046875 144.83876037597656 629.0640869140625 147.23248291015625 C 632.079345703125 149.78773498535156 631.68505859375 151.248779296875 635.82275390625 153.7529296875 C 642.2349853515625 154.1896514892578 642.0272216796875 160.13198852539062 649.7400512695312 174.53208923339844 C 639.5631713867188 186.05184936523438 640.37060546875 195.1282196044922 640.8751831054688 206.0279541015625 C 661.2075805664062 206.7282257080078 662.2999877929688 244.39369201660156 642.488525390625 245.29559326171875 C 622.165283203125 247.96636962890625 611.2000732421875 248.87034606933594 579.2623291015625 265.2695007324219 C 574.4303588867188 253.22598266601562 580.9036254882812 229.63319396972656 572.6199951171875 215.14599609375 C 568.0584106445312 208.7952880859375 571.4857788085938 168.87669372558594 583.8477172851562 169.72372436523438 C 596.774658203125 163.2294158935547 599.8179321289062 143.02386474609375 600.1827392578125 142.22669982910156 C 595.8002319335938 139.98468017578125 596.2069702148438 137.32215881347656 602.8895874023438 127.69976806640625" stroke-width="0.0" fill="url(#shape_12_fill)"/>
    <path d="M 412.20770263671875 176.59561157226562 C 418.8462829589844 174.5233917236328 434.8659973144531 213.59194946289062 428.45465087890625 219.70431518554688 C 419.8301086425781 228.7903594970703 427.53143310546875 236.90252685546875 431.2077941894531 241.71896362304688 C 430.11151123046875 260.8629150390625 417.7127990722656 272.1883850097656 411.6455383300781 267.7096252441406 C 407.0632019042969 264.7937927246094 401.6495666503906 271.9509582519531 391.46441650390625 268.4630126953125 C 385.6692199707031 264.910400390625 382.6070251464844 266.0653381347656 378.70562744140625 265.6568603515625 C 373.6750793457031 266.1016845703125 372.8461608886719 262.1204528808594 374.5110168457031 258.4012451171875 C 376.1500244140625 256.2812805175781 374.6695861816406 254.74375915527344 374.9703063964844 253.8887176513672 C 370.975830078125 255.7240447998047 368.88507080078125 251.7852783203125 368.0993957519531 252.1746368408203 C 360.5907897949219 248.0265350341797 366.5777282714844 229.3914794921875 367.1480407714844 222.30349731445312 C 369.7214660644531 218.8114471435547 371.58319091796875 202.47720336914062 383.3153381347656 202.5616455078125 C 378.6620788574219 193.57977294921875 379.7433776855469 191.72421264648438 389.90533447265625 191.66970825195312 C 390.7827453613281 177.42233276367188 392.68756103515625 176.758056640625 412.20770263671875 176.59561157226562" stroke-width="0.0" fill="url(#shape_13_fill)"/>
    <path d="M 507.6095275878906 66.84945678710938 C 508.83734130859375 67.67221069335938 511.74676513671875 74.79589080810547 514.2392578125 87.97501373291016 C 531.5927734375 79.55742645263672 535.8533325195312 79.7816390991211 537.591064453125 85.79853057861328 C 539.1556396484375 90.85620880126953 544.5377197265625 90.27908325195312 545.0235595703125 91.17682647705078 C 545.53662109375 92.74093627929688 556.1604614257812 96.86475372314453 559.4347534179688 95.54017639160156 C 563.3721923828125 97.5955810546875 567.3883666992188 97.30796813964844 568.4159545898438 98.07816314697266 C 563.8573608398438 106.51599884033203 558.74169921875 116.22837829589844 538.014404296875 108.98765563964844 C 540.5042114257812 112.08772277832031 540.0201416015625 115.32115936279297 534.6455688476562 118.41686248779297 C 527.2848510742188 120.16868591308594 519.5869140625 124.57125091552734 515.5999755859375 118.56346130371094 C 512.5281982421875 121.85029602050781 501.8058776855469 125.92033386230469 500.599365234375 127.20339965820312 C 498.1542053222656 129.7158966064453 494.2226257324219 129.33285522460938 489.9852294921875 126.43418884277344 C 489.1719055175781 116.94247436523438 468.8614501953125 118.24610900878906 468.16064453125 117.3966293334961 C 463.524658203125 117.83846282958984 462.9172058105469 116.65081787109375 461.96453857421875 116.32007598876953 C 471.5890808105469 120.82242584228516 474.67767333984375 115.93409729003906 477.47235107421875 112.95329284667969 C 470.28106689453125 100.02434539794922 471.8418884277344 88.15928649902344 474.4178466796875 81.76395416259766 C 474.5867919921875 70.93270111083984 475.33941650390625 70.38508605957031 477.1766662597656 66.0103988647461 C 478.3175964355469 63.61194610595703 482.36798095703125 63.6736946105957 483.9851989746094 63.47456741333008 C 495.08807373046875 63.16456604003906 504.0345153808594 61.57122802734375 507.6095275878906 66.84945678710938" stroke-width="0.0" fill="url(#shape_14_fill)"/>
    <path d="M 535.2660522460938 161.8394012451172 C 544.0264282226562 162.3427734375 544.3340454101562 163.13461303710938 546.5377807617188 165.0616912841797 C 549.8590698242188 167.49583435058594 549.673828125 170.16427612304688 542.7750244140625 183.2246856689453 C 544.5833129882812 191.88650512695312 535.6714477539062 230.06661987304688 537.1449584960938 232.30880737304688 C 541.3965454101562 239.01785278320312 540.869384765625 252.70664978027344 518.6553955078125 252.24864196777344 C 502.34765625 253.09304809570312 481.9285888671875 242.46507263183594 487.9684143066406 230.38494873046875 C 476.4245300292969 219.91189575195312 478.94940185546875 207.76992797851562 483.1572570800781 201.8111114501953 C 486.4609680175781 197.51986694335938 487.9834289550781 197.4833221435547 488.7761535644531 199.31687927246094 C 482.81634521484375 195.45513916015625 488.6962585449219 184.550537109375 487.35101318359375 173.89503479003906 C 487.6523132324219 167.33523559570312 489.56451416015625 166.41624450683594 491.0914001464844 166.93966674804688 C 505.4787902832031 178.92698669433594 511.31072998046875 184.1703643798828 522.76171875 172.7814483642578 C 525.5676879882812 170.97061157226562 525.3535766601562 167.1969451904297 526.1363525390625 165.06723022460938 C 525.4537963867188 160.1718292236328 528.1370849609375 158.13674926757812 535.2660522460938 161.8394012451172" stroke-width="0.0" fill="url(#shape_15_fill)"/>
    <path d="M 651.60693359375 109.43342590332031 C 653.8197021484375 110.58821105957031 664.10302734375 121.5011215209961 659.8344116210938 132.6241455078125 C 664.0269775390625 136.15750122070312 664.5164794921875 143.8135986328125 673.2161865234375 147.87477111816406 C 677.2884521484375 178.98562622070312 673.8460693359375 210.8769073486328 676.2047119140625 267.0898132324219 C 675.0971069335938 265.4529113769531 635.7510986328125 272.965087890625 630.9307250976562 264.0539855957031 C 636.2627563476562 244.89414978027344 643.4899291992188 124.03590393066406 651.60693359375 109.43342590332031" stroke-width="0.0" fill="url(#shape_16_fill)"/>
    <path d="M 601.4337768554688 128.60110473632812 C 604.021728515625 128.29368591308594 605.59619140625 131.67730712890625 606.3469848632812 134.00840759277344 C 608.8634643554688 135.17929077148438 607.0962524414062 141.57115173339844 609.136962890625 143.81805419921875 C 628.7645263671875 143.295166015625 632.27978515625 216.42945861816406 632.9107666015625 271.671630859375 C 579.2523803710938 276.52960205078125 574.34423828125 268.3185119628906 579.9691162109375 242.30291748046875 C 559.4024047851562 226.1483917236328 598.6778564453125 156.3086700439453 601.4337768554688 128.60110473632812" stroke-width="0.0" fill="url(#shape_17_fill)"/>
    <path d="M 320.3316650390625 186.1383056640625 C 321.4725341796875 186.41470336914062 321.6275329589844 189.24301147460938 321.3669128417969 199.9694061279297 C 331.5013732910156 193.61041259765625 332.3197021484375 193.3309326171875 336.8472900390625 196.19110107421875 C 345.3179016113281 198.66908264160156 346.5631103515625 197.33018493652344 356.6679382324219 190.8240203857422 C 358.7149963378906 192.3328399658203 359.65087890625 194.39662170410156 356.2645263671875 201.84056091308594 C 359.4269104003906 204.0408477783203 361.6004638671875 204.16725158691406 364.8027648925781 210.34889221191406 C 367.31134033203125 207.172607421875 368.57757568359375 207.89027404785156 368.26025390625 211.6527557373047 C 370.1108703613281 220.10430908203125 370.29541015625 223.07740783691406 366.08258056640625 225.5589599609375 C 365.80902099609375 231.3817596435547 363.5076904296875 237.47096252441406 368.161865234375 248.5564422607422 C 370.4356994628906 253.69186401367188 368.0998840332031 255.76600646972656 358.04345703125 254.6182098388672 C 354.6269226074219 255.81683349609375 324.29217529296875 254.93687438964844 322.5636291503906 255.3955535888672 C 313.2605895996094 256.0570373535156 311.95404052734375 253.87017822265625 308.77899169921875 245.23101806640625 C 303.82916259765625 229.13206481933594 320.9504089355469 195.52838134765625 320.3316650390625 186.1383056640625" stroke-width="0.0" fill="url(#shape_18_fill)"/>
    <path d="M 482.6737976074219 232.25625610351562 C 505.8482666015625 252.22592163085938 515.4300537109375 263.9908752441406 495.2388000488281 280.58990478515625 C 470.1289978027344 280.2326965332031 443.9473876953125 261.7746887207031 442.08404541015625 262.0574035644531 C 438.7626647949219 260.52850341796875 437.0924072265625 258.3839416503906 432.6300048828125 258.1961669921875 C 429.7263488769531 258.5357971191406 428.436279296875 256.7398986816406 429.9321594238281 253.82151794433594 C 433.15118408203125 237.19923400878906 423.5707702636719 233.7555694580078 422.9645690917969 229.7236328125 C 423.0466613769531 227.1643829345703 421.0794982910156 226.65615844726562 420.25714111328125 225.09848022460938 C 427.3935546875 219.72085571289062 429.4518737792969 218.8003387451172 428.6771240234375 213.92759704589844 C 444.6993408203125 197.14036560058594 481.32257080078125 196.26174926757812 482.6737976074219 232.25625610351562" stroke-width="0.0" fill="url(#shape_19_fill)"/>
    <path d="M 673.932373046875 -2.9685745239257812 C 675.0673828125 32.84956741333008 674.5833740234375 64.76375579833984 674.6353759765625 97.25281524658203 C 669.3377685546875 96.03185272216797 651.6382446289062 87.5189208984375 645.7066650390625 90.09064483642578 C 638.5831298828125 89.48455047607422 638.1011962890625 86.0567626953125 637.3466796875 84.06793975830078 C 626.10400390625 84.25209045410156 620.788330078125 93.44987487792969 608.0303955078125 86.50740814208984 C 609.8128662109375 74.74879455566406 612.166259765625 73.62741088867188 614.451416015625 71.58969116210938 C 622.462158203125 68.78885650634766 648.7753295898438 25.115821838378906 647.523193359375 20.626514434814453 C 655.445556640625 9.114347457885742 656.5619506835938 2.3037757873535156 668.9461669921875 3.3809163570404053 C 669.8283081054688 2.693272113800049 670.0894165039062 1.0543019771575928 673.932373046875 -2.9685745239257812" stroke-width="0.0" fill="url(#shape_20_fill)"/>
    <path d="M 561.7704467773438 156.17044067382812 C 569.8544311523438 156.4943084716797 570.1734619140625 161.12538146972656 572.1571655273438 165.90708923339844 C 581.7813110351562 168.34901428222656 571.89013671875 230.5502166748047 578.3999633789062 240.5546417236328 C 579.2767333984375 244.88571166992188 578.4405517578125 247.00726318359375 577.7432250976562 270.7672119140625 C 536.5818481445312 269.773681640625 533.0657958984375 266.9205322265625 538.3694458007812 248.33993530273438 C 545.7022705078125 244.7822265625 548.1411743164062 167.6981658935547 555.3366088867188 156.9095001220703 C 555.494873046875 152.70909118652344 559.7161865234375 151.76055908203125 561.7704467773438 156.17044067382812" stroke-width="0.0" fill="url(#shape_21_fill)"/>
    <path d="M 214.991455078125 210.20855712890625 C 234.915283203125 208.50872802734375 238.15769958496094 241.4108428955078 224.97572326660156 257.48809814453125 C 211.43804931640625 262.95654296875 209.0929718017578 263.5889892578125 208.8696746826172 273.0668029785156 C 205.81289672851562 275.29791259765625 206.74839782714844 277.0672607421875 205.6166229248047 279.4781188964844 C 206.6430206298828 282.80987548828125 202.9640655517578 285.7476501464844 201.80723571777344 284.91741943359375 C 202.1759033203125 283.0317687988281 190.33888244628906 272.4420166015625 188.1342315673828 263.4169616699219 C 186.66696166992188 261.6009216308594 183.8902587890625 263.1155700683594 181.43621826171875 263.2744445800781 C 180.99293518066406 260.98895263671875 179.86532592773438 259.911865234375 178.64971923828125 251.76182556152344 C 178.8858184814453 247.8638916015625 169.04122924804688 242.25802612304688 170.61749267578125 238.53927612304688 C 175.1807403564453 213.60340881347656 177.3190155029297 212.91094970703125 185.53662109375 220.62188720703125 C 193.68142700195312 219.69810485839844 194.04510498046875 215.027099609375 198.53028869628906 213.38943481445312 C 184.4900665283203 205.79991149902344 184.55947875976562 200.7032470703125 201.23013305664062 197.44119262695312 C 212.86712646484375 192.82762145996094 215.12046813964844 194.8511962890625 214.991455078125 210.20855712890625" stroke-width="0.0" fill="url(#shape_22_fill)"/>
    <path d="M 111.6944351196289 426.1959533691406 C 112.74418640136719 429.2852783203125 111.04512786865234 431.2085266113281 110.65798950195312 431.40234375 C 104.9664077758789 432.6665954589844 103.22505187988281 433.80072021484375 91.95087432861328 433.0793151855469 C 89.77349090576172 435.9709777832031 95.663818359375 446.421630859375 91.58547973632812 452.1399841308594 C 78.66380310058594 444.9972229003906 46.938175201416016 447.9271240234375 25.26600456237793 449.61480712890625 C 14.04580020904541 446.1839599609375 13.90315055847168 439.7486877441406 18.06730842590332 436.337646484375 C 35.281124114990234 427.55902099609375 49.58705139160156 426.68255615234375 73.4423828125 427.044189453125 C 73.6074447631836 423.8485412597656 110.00354766845703 420.5534973144531 111.6944351196289 426.1959533691406" stroke-width="0.0" fill="url(#shape_23_fill)"/>
    <path d="M 198.60537719726562 120.85602569580078 C 208.95458984375 116.7817611694336 221.85069274902344 135.24827575683594 218.3502197265625 141.682373046875 C 216.25836181640625 147.8538055419922 218.5128936767578 150.38523864746094 220.2134552001953 154.73207092285156 C 228.17340087890625 158.3959197998047 247.70095825195312 175.94390869140625 244.75453186035156 198.99203491210938 C 239.13424682617188 199.5894317626953 235.6767578125 187.02613830566406 232.31536865234375 179.79664611816406 C 234.7782745361328 187.17857360839844 233.43780517578125 195.9609832763672 230.51695251464844 197.12417602539062 C 228.197021484375 197.0975341796875 225.8196563720703 202.59364318847656 220.17108154296875 208.71327209472656 C 214.8375701904297 207.80691528320312 213.3762969970703 202.61404418945312 212.0653076171875 198.5866241455078 C 211.46746826171875 190.8229522705078 211.6280059814453 183.2792205810547 206.77342224121094 177.64968872070312 C 203.85647583007812 174.04824829101562 204.9112091064453 173.00209045410156 205.71812438964844 167.88705444335938 C 202.55824279785156 147.5438232421875 199.49278259277344 146.94219970703125 192.0836181640625 143.79808044433594 C 189.4244842529297 142.41969299316406 191.53634643554688 128.4045867919922 198.60537719726562 120.85602569580078" stroke-width="0.0" fill="url(#shape_24_fill)"/>
    <path d="M 590.8394165039062 401.7532958984375 C 601.226806640625 405.84918212890625 629.2149658203125 405.0473937988281 636.4364624023438 410.9521789550781 C 634.9838256835938 423.6094970703125 630.4962158203125 426.93353271484375 629.090087890625 426.03448486328125 C 630.5657348632812 427.8256530761719 636.1047973632812 428.0361022949219 639.88427734375 436.5721740722656 C 618.8121948242188 447.9571533203125 578.7859497070312 438.6766052246094 572.4067993164062 434.8983459472656 C 567.6826171875 427.2707214355469 573.8777465820312 419.57489013671875 577.0543212890625 412.88519287109375 C 578.1078491210938 411.06683349609375 585.7359008789062 413.5336608886719 590.8394165039062 401.7532958984375" stroke-width="0.0" fill="url(#shape_25_fill)"/>
    <path d="M 142.90769958496094 66.91545104980469 C 144.04519653320312 68.8930892944336 149.17401123046875 67.56333923339844 149.6170654296875 68.99810791015625 C 148.8710479736328 70.91012573242188 150.44229125976562 71.82886505126953 149.57183837890625 73.9381103515625 C 151.08786010742188 74.49189758300781 150.15037536621094 78.6863784790039 149.59437561035156 91.17894744873047 C 150.36148071289062 93.12954711914062 154.39979553222656 95.54431915283203 153.27536010742188 104.16268157958984 C 153.28466796875 107.68504333496094 155.1063232421875 108.51252746582031 155.7460174560547 110.96361541748047 C 157.25326538085938 123.25557708740234 154.5787353515625 133.47732543945312 150.01234436035156 133.5778045654297 C 141.17906188964844 128.08859252929688 137.6159210205078 118.54112243652344 125.97545623779297 116.65806579589844 C 121.92982482910156 113.77486419677734 123.33567810058594 109.32279205322266 126.16926574707031 107.26873016357422 C 128.55865478515625 106.77113342285156 129.0326385498047 105.27800750732422 132.5543975830078 104.91387176513672 C 138.53822326660156 96.42289733886719 135.1714324951172 92.89396667480469 132.81631469726562 89.04751586914062 C 134.04713439941406 88.19435119628906 139.4123992919922 87.80709075927734 140.43833923339844 85.38948822021484 C 138.5029296875 84.72080993652344 138.56292724609375 77.6299819946289 139.7671356201172 77.64277648925781 C 143.9992218017578 76.53482818603516 143.009521484375 70.96745300292969 142.90769958496094 66.91545104980469" stroke-width="0.0" fill="url(#shape_26_fill)"/>
    <path d="M 139.62196350097656 67.766357421875 C 149.12875366210938 66.82087707519531 149.52796936035156 67.95133209228516 148.76107788085938 77.30453491210938 C 150.5091552734375 78.29104614257812 151.14088439941406 80.76017761230469 154.90562438964844 85.25672912597656 C 150.06234741210938 90.35740661621094 155.08334350585938 95.76103973388672 150.9743194580078 105.25557708740234 C 152.74110412597656 106.0698471069336 153.60986328125 109.74107360839844 155.52529907226562 112.93526458740234 C 152.8130340576172 116.27259063720703 157.90943908691406 122.3556900024414 153.5605010986328 126.31761169433594 C 152.47544860839844 132.01097106933594 151.3048553466797 133.16500854492188 147.56288146972656 134.4725799560547 C 141.95225524902344 130.99110412597656 128.2560272216797 122.20945739746094 129.545166015625 117.58358764648438 C 124.20561218261719 118.52970886230469 122.87413787841797 113.13640594482422 128.228759765625 110.62359619140625 C 122.77916717529297 107.61885833740234 124.50752258300781 104.24021911621094 133.28765869140625 107.71833038330078 C 136.7356414794922 105.8707504272461 133.3232879638672 92.68199157714844 132.7150421142578 89.17170715332031 C 139.3872833251953 87.61117553710938 138.9087677001953 85.151611328125 138.98036193847656 81.15876007080078 C 139.06576538085938 77.49089813232422 140.36207580566406 76.81217193603516 142.45779418945312 78.31239318847656 C 145.36468505859375 71.75526428222656 142.59263610839844 70.52901458740234 139.62196350097656 67.766357421875" stroke-width="0.0" fill="url(#shape_27_fill)"/>
    <path d="M -0.41853293776512146 -0.27760058641433716 C 4.729590892791748 0.38830485939979553 9.680971145629883 -0.5323292016983032 18.708911895751953 -0.9031869769096375 C 25.521289825439453 -1.7947793006896973 26.006145477294922 -0.9932832717895508 55.68125915527344 0.4247557520866394 C 51.44055938720703 25.735492706298828 28.84221076965332 23.144113540649414 27.93218421936035 27.357200622558594 C 60.30598068237305 9.080973625183105 69.17605590820312 8.77662467956543 72.64940643310547 56.710086822509766 C 33.68779754638672 58.38994598388672 22.17030906677246 61.23405075073242 19.795785903930664 53.39563751220703 C 16.654129028320312 39.2960205078125 11.320392608642578 38.28752517700195 9.981435775756836 33.61964416503906 C 10.098321914672852 35.78610610961914 14.52730941772461 39.26137924194336 14.558518409729004 41.040428161621094 C 16.12670135498047 42.17707824707031 16.01091957092285 44.62545394897461 18.171730041503906 47.879066467285156 C 20.076154708862305 51.071937561035156 18.770957946777344 52.30424118041992 22.555391311645508 57.607723236083984 C 23.362104415893555 70.48725128173828 12.180584907531738 72.94646453857422 7.478740692138672 61.85953140258789 C 5.328736305236816 60.944252014160156 3.5502686500549316 59.130794525146484 0.31464332342147827 59.44593811035156 C -0.3208584487438202 39.80000686645508 -0.32505500316619873 19.635295867919922 -0.41853293776512146 -0.27760058641433716" stroke-width="0.0" fill="url(#shape_28_fill)"/>
    <path d="M 298.4376220703125 197.2619171142578 C 297.81005859375 199.47166442871094 300.66644287109375 202.16156005859375 301.5504455566406 208.78228759765625 C 300.44085693359375 214.34716796875 325.9046630859375 222.60324096679688 316.1034851074219 255.5372314453125 C 311.89166259765625 254.66917419433594 310.5463562011719 255.7718505859375 304.4698791503906 255.02822875976562 C 303.8232421875 258.07830810546875 297.0177001953125 258.5152893066406 281.26153564453125 256.26275634765625 C 276.8596496582031 223.70724487304688 285.02587890625 221.55587768554688 298.4376220703125 197.2619171142578" stroke-width="0.0" fill="url(#shape_29_fill)"/>
    <path d="M 0.0031922857742756605 -0.13908863067626953 C 4.605228900909424 0.45465534925460815 9.808302879333496 -0.40957385301589966 14.739376068115234 0.09372688829898834 C 15.966752052307129 0.4719160497188568 16.764156341552734 2.386869192123413 16.591764450073242 7.914449214935303 C 18.752872467041016 11.019311904907227 21.397554397583008 19.176532745361328 27.825471878051758 20.50889778137207 C 27.30271339416504 22.600210189819336 23.601335525512695 26.68539810180664 25.0579776763916 31.973159790039062 C 20.428632736206055 32.62356185913086 11.450222969055176 30.14093780517578 4.001437664031982 33.451820373535156 C 8.855490684509277 36.177452087402344 8.659201622009277 39.08796310424805 10.866822242736816 40.4619255065918 C 10.461026191711426 42.96967315673828 7.427934169769287 49.37366485595703 11.754889488220215 53.7994384765625 C 17.769989013671875 51.07255172729492 19.466466903686523 51.52241897583008 18.50490951538086 58.343597412109375 C 11.318988800048828 60.703346252441406 9.426800727844238 62.46654510498047 0.17689214646816254 61.5919303894043 C -0.4279027283191681 39.97887420654297 -0.35469281673431396 19.756505966186523 0.0031922857742756605 -0.13908863067626953" stroke-width="0.0" fill="url(#shape_30_fill)"/>
    <path d="M 548.9973754882812 70.7284927368164 C 546.748046875 78.44601440429688 576.7144775390625 89.39875793457031 581.3992309570312 91.81878662109375 C 580.9912109375 92.98513793945312 577.5140380859375 93.39037322998047 577.42578125 98.3394775390625 C 573.29296875 100.69200134277344 572.0557250976562 99.8172607421875 569.2447509765625 100.02962493896484 C 567.6127319335938 93.81898498535156 547.9375610351562 99.00749206542969 538.9037475585938 88.25515747070312 C 538.199462890625 85.51622772216797 538.9266967773438 82.75999450683594 535.8770751953125 81.87117004394531 C 534.0410766601562 80.75694274902344 527.045166015625 79.51080322265625 526.9998168945312 78.10345458984375 C 524.9898071289062 75.8176498413086 527.6685791015625 70.82025146484375 531.9013671875 68.93379211425781 C 539.190673828125 66.81621551513672 542.8018798828125 71.45305633544922 548.9973754882812 70.7284927368164" stroke-width="0.0" fill="url(#shape_31_fill)"/>
    <path d="M 446.9388122558594 264.4415588378906 C 450.6117858886719 265.32415771484375 451.2478942871094 266.7711181640625 455.5617370605469 267.85693359375 C 460.5113830566406 267.6551208496094 465.32232666015625 270.3759765625 469.9615783691406 273.00543212890625 C 470.4309997558594 275.6334533691406 471.828857421875 276.8868713378906 471.6768798828125 280.7816467285156 C 452.2607421875 287.2646789550781 431.1157531738281 284.12841796875 415.7762756347656 285.145263671875 C 413.3466491699219 273.8794860839844 414.17755126953125 272.2855224609375 415.2643737792969 268.0084228515625 C 418.1790771484375 267.1950378417969 417.7174072265625 264.7774353027344 419.31158447265625 262.8553466796875 C 445.1217956542969 250.89404296875 447.1981201171875 251.38729858398438 446.9388122558594 264.4415588378906" stroke-width="0.0" fill="url(#shape_32_fill)"/>
    <path d="M 272.86859130859375 192.07879638671875 C 274.277099609375 192.3466796875 288.2674560546875 243.7242889404297 282.6619873046875 249.20486450195312 C 279.7398376464844 249.7204132080078 274.0787658691406 247.8057403564453 269.13836669921875 250.0486297607422 C 266.08270263671875 246.71951293945312 266.4140930175781 242.92428588867188 260.805908203125 240.70436096191406 C 254.59786987304688 207.8522186279297 262.9040832519531 205.9197540283203 272.86859130859375 192.07879638671875" stroke-width="0.0" fill="url(#shape_33_fill)"/>
    <path d="M 270.17462158203125 406.22393798828125 C 262.1305236816406 429.7970886230469 264.20855712890625 430.9063415527344 267.1316223144531 440.63629150390625 C 262.49908447265625 440.8531799316406 260.6870422363281 446.42889404296875 258.68707275390625 447.86505126953125 C 245.32858276367188 445.8791198730469 213.29022216796875 448.8717041015625 212.38523864746094 445.0762939453125 C 213.02186584472656 436.99578857421875 213.95974731445312 436.2222900390625 216.08969116210938 434.757568359375 C 216.50363159179688 433.65118408203125 225.1129913330078 434.0435485839844 226.83387756347656 431.04827880859375 C 226.67431640625 417.6859436035156 232.01553344726562 416.9829406738281 270.17462158203125 406.22393798828125" stroke-width="0.0" fill="url(#shape_34_fill)"/>
    <path d="M 105.60987091064453 69.5855484008789 C 110.13516235351562 69.78486633300781 110.72224426269531 78.53361511230469 112.76445770263672 85.06358337402344 C 117.85124206542969 86.44245910644531 116.00849151611328 110.13080596923828 118.9102554321289 110.61940002441406 C 116.7000961303711 112.57027435302734 109.74523162841797 114.27156066894531 106.98435974121094 124.95387268066406 C 104.5848159790039 117.11921691894531 96.47083282470703 118.91039276123047 87.31912231445312 107.50617980957031 C 85.88429260253906 85.65007781982422 106.07047271728516 84.27753448486328 105.60987091064453 69.5855484008789" stroke-width="0.0" fill="url(#shape_35_fill)"/>
    <path d="M 451.2086181640625 178.4638671875 C 454.1665954589844 176.02749633789062 456.3409423828125 177.77008056640625 455.0982666015625 180.33140563964844 C 455.9010314941406 180.8492431640625 455.116455078125 184.8734130859375 456.04180908203125 186.87879943847656 C 456.33135986328125 188.4725341796875 459.2926940917969 193.79434204101562 458.8763427734375 204.41448974609375 C 458.80560302734375 208.28411865234375 453.21923828125 210.29615783691406 445.98858642578125 204.3683319091797 C 442.24090576171875 206.71060180664062 440.70941162109375 209.36199951171875 432.2292785644531 210.87451171875 C 435.914306640625 209.9203338623047 436.820556640625 187.85848999023438 437.5314636230469 173.86680603027344 C 440.2718505859375 178.95880126953125 440.7456359863281 181.37998962402344 446.8252868652344 181.44615173339844 C 447.9351501464844 179.7132110595703 450.14801025390625 179.71783447265625 451.2086181640625 178.4638671875" stroke-width="0.0" fill="url(#shape_36_fill)"/>
    <path d="M 557.9025268554688 84.54034423828125 C 560.1452026367188 80.25729370117188 578.3821411132812 83.17052459716797 579.3839721679688 85.1244888305664 C 581.4287109375 83.19259643554688 586.3325805664062 84.88194274902344 588.2449951171875 88.70220184326172 C 598.3831176757812 110.23979187011719 588.7267456054688 116.6442642211914 574.3214111328125 100.86053466796875 C 573.7864990234375 99.47634887695312 551.0035400390625 96.86097717285156 548.3948974609375 86.8285903930664 C 539.177001953125 86.70183563232422 537.639404296875 85.1214599609375 536.8462524414062 79.84855651855469 C 543.154296875 74.796875 547.0514526367188 78.66252899169922 557.9025268554688 84.54034423828125" stroke-width="0.0" fill="url(#shape_37_fill)"/>
    <path d="M 251.84283447265625 207.0297393798828 C 265.8967590332031 215.11827087402344 261.3570861816406 234.69808959960938 260.0475158691406 248.43569946289062 C 259.73516845703125 254.5846405029297 251.39273071289062 255.15927124023438 248.9511260986328 257.0215148925781 C 234.39891052246094 236.79708862304688 240.92523193359375 215.92807006835938 251.84283447265625 207.0297393798828" stroke-width="0.0" fill="url(#shape_38_fill)"/>
    <path d="M 442.2107849121094 262.98638916015625 C 445.96490478515625 263.42901611328125 449.2007141113281 266.6905517578125 447.92181396484375 270.0868835449219 C 444.6692810058594 270.4041442871094 442.6736755371094 277.3331604003906 440.0810852050781 277.2532043457031 C 438.2454528808594 286.904052734375 430.305908203125 286.25634765625 417.89105224609375 275.3232421875 C 414.419921875 276.71966552734375 413.2760314941406 274.35504150390625 416.43511962890625 271.6015319824219 C 414.8835754394531 269.9172058105469 419.28375244140625 262.3034973144531 425.23822021484375 258.51458740234375 C 426.9720153808594 257.9302978515625 440.7494812011719 257.6398010253906 442.2107849121094 262.98638916015625" stroke-width="0.0" fill="url(#shape_39_fill)"/>
    <path d="M 407.6549072265625 409.9260559082031 C 408.6374816894531 409.91925048828125 416.7663879394531 419.1520690917969 414.2222595214844 424.4390563964844 C 398.9737243652344 435.3551025390625 386.2992248535156 420.59906005859375 376.5459289550781 420.8861389160156 C 371.0726623535156 417.9615783691406 371.2271423339844 416.5549011230469 372.4715576171875 410.38433837890625 C 375.6220703125 401.1501770019531 392.1250305175781 403.9835510253906 407.6549072265625 409.9260559082031" stroke-width="0.0" fill="url(#shape_40_fill)"/>
    <path d="M 66.5811538696289 427.3897705078125 C 67.2050552368164 428.930419921875 63.894256591796875 431.8710021972656 58.609703063964844 434.2428894042969 C 57.350738525390625 435.8948059082031 41.61841583251953 435.335205078125 30.834129333496094 443.3645324707031 C 28.400911331176758 443.6498107910156 27.399892807006836 444.1011657714844 17.408281326293945 442.5569763183594 C 16.458642959594727 440.6537170410156 18.059070587158203 439.2092590332031 17.409852981567383 437.7198181152344 C 36.32133483886719 427.05731201171875 51.77751922607422 428.48272705078125 66.5811538696289 427.3897705078125" stroke-width="0.0" fill="url(#shape_41_fill)"/>
    <path d="M 276.9705810546875 381.0904846191406 C 284.7192687988281 381.173095703125 298.4412536621094 380.7337646484375 311.4214782714844 385.8630676269531 C 296.7433776855469 394.4039611816406 299.2916564941406 401.1236877441406 294.5547180175781 405.2508544921875 C 291.7730712890625 400.1108703613281 268.1201171875 407.420166015625 258.2872619628906 410.1258850097656 C 239.10360717773438 418.913818359375 232.08409118652344 413.5264892578125 231.18858337402344 384.1413879394531 C 259.75701904296875 378.4325256347656 266.341796875 382.3023681640625 276.9705810546875 381.0904846191406" stroke-width="0.0" fill="url(#shape_42_fill)"/>
    <path d="M 222.70811462402344 208.9567108154297 C 224.21649169921875 206.32638549804688 238.55140686035156 206.1505584716797 238.85548400878906 210.00860595703125 C 242.7140350341797 221.72544860839844 244.12989807128906 244.60487365722656 255.96749877929688 270.2870788574219 C 252.1603546142578 276.1978759765625 243.37193298339844 273.47735595703125 208.0661163330078 272.4093933105469 C 208.8469696044922 266.0001220703125 205.62411499023438 250.35098266601562 216.19984436035156 247.61077880859375 C 219.18218994140625 246.4534149169922 218.468017578125 226.42796325683594 222.70811462402344 208.9567108154297" stroke-width="0.0" fill="url(#shape_43_fill)"/>
    <path d="M 483.388671875 396.3210754394531 C 486.5914306640625 399.6476745605469 486.0438537597656 401.0922546386719 483.3980712890625 400.76629638671875 C 469.7347717285156 407.4769287109375 451.1646423339844 406.91766357421875 450.28948974609375 407.5137023925781 C 448.32843017578125 404.436279296875 451.7637634277344 396.2094421386719 453.6963195800781 396.5349426269531 C 466.7049255371094 393.4137878417969 471.90753173828125 392.2161865234375 483.388671875 396.3210754394531" stroke-width="0.0" fill="url(#shape_44_fill)"/>
    <path d="M 45.82660675048828 408.12957763671875 C 45.304481506347656 408.098388671875 35.87977981567383 412.5523376464844 32.14561462402344 412.56396484375 C 32.212947845458984 414.28546142578125 31.830154418945312 415.70721435546875 27.981901168823242 414.9383239746094 C 26.9000186920166 416.29058837890625 23.902929306030273 417.033203125 19.87040138244629 420.1585388183594 C 19.448026657104492 420.280029296875 0.24221472442150116 417.3668212890625 -0.6659908294677734 420.5201110839844 C 1.8975484371185303 419.40142822265625 -1.1411683559417725 411.1897277832031 1.0383596420288086 410.1778869628906 C 5.863968849182129 409.69927978515625 45.4644889831543 406.26934814453125 45.82660675048828 408.12957763671875" stroke-width="0.0" fill="url(#shape_45_fill)"/>
    <path d="M 452.4425354003906 173.7368927001953 C 453.8066711425781 174.95611572265625 464.64068603515625 198.48350524902344 467.2688903808594 199.82827758789062 C 462.6174011230469 209.19879150390625 451.1685791015625 209.1334228515625 449.4490051269531 206.47837829589844 C 448.3023376464844 203.26951599121094 448.9550476074219 198.3240509033203 448.8520202636719 195.29684448242188 C 447.9664306640625 194.57252502441406 447.58441162109375 192.04562377929688 448.5238952636719 187.98988342285156 C 450.9755859375 186.6430206298828 450.2999572753906 182.62741088867188 452.4425354003906 173.7368927001953" stroke-width="0.0" fill="url(#shape_46_fill)"/>
    <path d="M 372.1626892089844 183.30458068847656 C 379.31146240234375 198.53460693359375 380.54095458984375 202.72348022460938 371.4537353515625 205.8167266845703 C 365.86724853515625 206.83477783203125 364.772216796875 204.771484375 361.62518310546875 206.10935974121094 C 339.6003112792969 212.32936096191406 335.2061767578125 200.93643188476562 353.3917236328125 189.38040161132812 C 356.7051086425781 184.98745727539062 358.37908935546875 184.36712646484375 368.21038818359375 185.44818115234375 C 369.0519714355469 182.7980194091797 371.4096374511719 182.93173217773438 372.1626892089844 183.30458068847656" stroke-width="0.0" fill="url(#shape_47_fill)"/>
    <path d="M 473.0655517578125 264.4705505371094 C 473.8782653808594 268.6234436035156 481.02593994140625 271.52099609375 484.0089416503906 283.5287170410156 C 466.7461853027344 288.0665588378906 445.3824768066406 286.8407287597656 443.7729797363281 284.9125061035156 C 439.3424072265625 282.1163024902344 440.0018615722656 276.9651794433594 441.00433349609375 276.3042297363281 C 449.0446472167969 266.5520324707031 456.3334655761719 261.6446838378906 473.0655517578125 264.4705505371094" stroke-width="0.0" fill="url(#shape_48_fill)"/>
    <path d="M 176.62130737304688 116.6302490234375 C 178.1068115234375 115.58551788330078 181.7115936279297 116.16155242919922 182.679931640625 117.27963256835938 C 184.62786865234375 120.0835952758789 183.92864990234375 121.75651550292969 184.72361755371094 123.44075012207031 C 179.47360229492188 128.4559783935547 185.55360412597656 136.98573303222656 183.1754913330078 139.46923828125 C 181.65957641601562 146.41287231445312 172.83184814453125 146.33255004882812 172.48052978515625 146.8885498046875 C 172.8000030517578 126.99398040771484 171.12982177734375 124.46949768066406 176.62130737304688 116.6302490234375" stroke-width="0.0" fill="url(#shape_49_fill)"/>
    <path d="M 333.8450927734375 426.47564697265625 C 335.3480529785156 430.32403564453125 342.14404296875 428.89031982421875 343.67242431640625 431.5427551269531 C 346.3777160644531 435.567138671875 345.158447265625 437.2109375 342.28741455078125 437.4946594238281 C 342.5166015625 447.3865661621094 325.5548095703125 448.7869567871094 323.5839538574219 445.5539855957031 C 321.5583190917969 436.1695861816406 321.5850830078125 432.6809387207031 305.3714294433594 430.5361328125 C 318.0102844238281 425.07928466796875 327.25982666015625 430.8255920410156 333.8450927734375 426.47564697265625" stroke-width="0.0" fill="url(#shape_50_fill)"/>
    <path d="M 319.8489990234375 388.57000732421875 C 311.9530334472656 395.71649169921875 293.0777893066406 395.6461486816406 291.5221252441406 399.04754638671875 C 279.1022033691406 397.63824462890625 277.8611145019531 399.0130615234375 271.25927734375 402.27593994140625 C 271.2647705078125 401.5963439941406 270.0530090332031 398.8960876464844 271.7638244628906 397.50830078125 C 270.4019470214844 395.5820617675781 273.5628662109375 388.6247863769531 280.0520935058594 388.4590148925781 C 284.4037780761719 386.7952575683594 288.52294921875 390.8293151855469 319.8489990234375 388.57000732421875" stroke-width="0.0" fill="url(#shape_51_fill)"/>
    <path d="M 269.0236511230469 186.5321807861328 C 277.6581115722656 194.845703125 276.9453430175781 207.7798309326172 280.370361328125 217.3542938232422 C 271.5863342285156 210.45108032226562 269.5537109375 208.50315856933594 260.1221923828125 217.25257873535156 C 257.7628173828125 208.72354125976562 262.97515869140625 195.1935577392578 267.9621887207031 195.68678283691406 C 269.62396240234375 194.1313934326172 268.8557434082031 191.57455444335938 269.0236511230469 186.5321807861328" stroke-width="0.0" fill="url(#shape_52_fill)"/>
    <path d="M 218.528076171875 409.3670654296875 C 215.88299560546875 410.8941650390625 215.7788848876953 413.3448486328125 214.30120849609375 415.1914367675781 C 214.55331420898438 423.5942687988281 195.06112670898438 425.1250915527344 187.71185302734375 415.59979248046875 C 186.3623504638672 403.9828186035156 208.96749877929688 398.8982238769531 218.528076171875 409.3670654296875" stroke-width="0.0" fill="url(#shape_53_fill)"/>
    <path d="M 206.0221405029297 424.62725830078125 C 205.4463348388672 425.22064208984375 206.15225219726562 428.2992248535156 204.54974365234375 428.867431640625 C 194.5165252685547 429.4891357421875 178.8277130126953 429.9887390136719 178.10696411132812 432.6966247558594 C 176.95237731933594 430.9410095214844 178.54544067382812 425.9420471191406 177.19390869140625 423.86376953125 C 187.2425994873047 418.67510986328125 192.33775329589844 423.2448425292969 206.0221405029297 424.62725830078125" stroke-width="0.0" fill="url(#shape_54_fill)"/>
    <path d="M 268.3857421875 247.87173461914062 C 275.2000732421875 245.249755859375 276.7939147949219 247.99847412109375 279.130859375 249.32339477539062 C 281.14031982421875 251.00169372558594 280.75787353515625 252.13970947265625 294.35833740234375 271.89788818359375 C 263.48797607421875 258.1455383300781 262.8800964355469 257.484619140625 249.204345703125 268.178955078125 C 254.8247833251953 248.17625427246094 255.9254150390625 247.2579345703125 258.7192077636719 245.2695770263672 C 261.04840087890625 240.1251983642578 263.5489807128906 239.24012756347656 268.3857421875 247.87173461914062" stroke-width="0.0" fill="url(#shape_55_fill)"/>
    <path d="M 288.7884216308594 335.8655090332031 C 286.00396728515625 362.60675048828125 286.88189697265625 363.256103515625 285.4403991699219 368.026611328125 C 285.5850524902344 369.2231750488281 286.11065673828125 371.7622375488281 285.517822265625 381.4445495605469 C 270.67083740234375 379.4253234863281 257.10687255859375 380.9380187988281 233.93927001953125 383.2017822265625 C 229.6682891845703 382.6695251464844 229.00880432128906 371.4418029785156 235.11038208007812 345.14276123046875 C 236.61895751953125 336.6213073730469 241.65245056152344 334.1748962402344 288.7884216308594 335.8655090332031" stroke-width="0.0" fill="url(#shape_56_fill)"/>
    <path d="M 408.06219482421875 271.93865966796875 C 413.2206115722656 270.5975341796875 417.7989807128906 275.64190673828125 425.5160217285156 282.1369323730469 C 416.4867858886719 283.2014465332031 412.3826904296875 275.8394470214844 374.24725341796875 274.22943115234375 C 375.8249206542969 263.4554138183594 383.7405090332031 263.6592102050781 408.06219482421875 271.93865966796875" stroke-width="0.0" fill="url(#shape_57_fill)"/>
    <path d="M 632.1173095703125 352.4761962890625 C 632.981689453125 354.7153625488281 661.4935913085938 355.1437072753906 668.4951171875 355.45623779296875 C 668.4359130859375 358.0782165527344 662.9979248046875 360.1769104003906 660.1837158203125 356.65057373046875 C 644.571533203125 356.4983215332031 636.34765625 358.8342590332031 631.7185668945312 359.55328369140625 C 627.9188232421875 357.2464294433594 629.5667724609375 353.6938171386719 632.1173095703125 352.4761962890625" stroke-width="0.0" fill="url(#shape_58_fill)"/>
    <path d="M 341.38262939453125 384.6504211425781 C 342.83941650390625 390.090087890625 358.153564453125 391.60516357421875 359.1644287109375 394.5736389160156 C 356.6345520019531 398.5437927246094 339.7781677246094 401.2721862792969 338.2718505859375 399.57000732421875 C 335.1358642578125 399.63616943359375 333.0544738769531 398.79071044921875 331.8271789550781 396.5372619628906 C 331.9934387207031 394.93994140625 330.7410888671875 393.4737243652344 332.24627685546875 390.5736389160156 C 332.7189636230469 384.84967041015625 335.4201965332031 383.7945556640625 341.38262939453125 384.6504211425781" stroke-width="0.0" fill="url(#shape_59_fill)"/>
    <path d="M 458.2061462402344 364.14385986328125 C 461.62109375 363.4032897949219 475.0149230957031 371.55792236328125 473.24090576171875 374.5845031738281 C 471.8143310546875 376.2462463378906 470.33636474609375 376.83258056640625 463.72137451171875 375.82916259765625 C 458.95782470703125 376.6291198730469 456.8656005859375 377.15350341796875 452.6249694824219 370.7099304199219 C 453.4571533203125 370.2925109863281 459.19122314453125 368.7544250488281 458.2061462402344 364.14385986328125" stroke-width="0.0" fill="url(#shape_60_fill)"/>
    <path d="M 428.20550537109375 432.2903747558594 C 439.9841003417969 434.2272644042969 442.3879699707031 436.714599609375 442.1150817871094 438.6064758300781 C 440.2652587890625 440.7402648925781 427.48992919921875 439.3225402832031 425.7151184082031 442.0028076171875 C 422.5389709472656 437.8663024902344 423.8955383300781 434.695556640625 410.472900390625 425.3639831542969 C 427.6153564453125 428.2062683105469 428.9505615234375 431.62921142578125 428.20550537109375 432.2903747558594" stroke-width="0.0" fill="url(#shape_61_fill)"/>
    <path d="M 185.3936004638672 411.4524230957031 C 186.23745727539062 413.8905029296875 185.0509033203125 414.82061767578125 186.83485412597656 417.7311096191406 C 184.8775177001953 420.22998046875 183.38075256347656 419.4867858886719 182.53717041015625 419.7934875488281 C 180.8343048095703 421.6577453613281 174.4718475341797 420.1285705566406 171.75767517089844 419.9753723144531 C 169.60740661621094 417.5710754394531 169.78829956054688 415.6236572265625 175.26702880859375 412.1404724121094 C 176.71495056152344 413.6435852050781 180.23260498046875 410.4724426269531 185.3936004638672 411.4524230957031" stroke-width="0.0" fill="url(#shape_62_fill)"/>
    <path d="M 331.845703125 418.8993225097656 C 334.2427062988281 425.6251220703125 329.85577392578125 427.8351135253906 327.2138671875 425.4944152832031 C 324.47955322265625 427.72943115234375 322.95330810546875 426.6796569824219 321.7176513671875 427.32476806640625 C 318.9845886230469 425.9563293457031 320.06146240234375 419.94647216796875 317.6527404785156 418.5226745605469 C 318.96673583984375 420.319580078125 325.7235412597656 418.5354309082031 331.845703125 418.8993225097656" stroke-width="0.0" fill="url(#shape_63_fill)"/>
    <path d="M 55.6221809387207 274.37127685546875 C 56.69186019897461 269.4831848144531 64.37975311279297 270.8196105957031 63.134666442871094 278.8294982910156 C 59.757354736328125 278.6473083496094 54.34098434448242 272.3107604980469 48.77165603637695 276.3745422363281 C 51.38501739501953 273.8185729980469 52.868736267089844 273.3663330078125 55.6221809387207 274.37127685546875" stroke-width="0.0" fill="url(#shape_64_fill)"/>
    <path d="M 304.70623779296875 440.23492431640625 C 304.5759582519531 437.8367004394531 306.475341796875 436.8993225097656 313.2177734375 437.74822998046875 C 314.3539123535156 439.6651916503906 312.8382873535156 441.0498352050781 310.80731201171875 441.3016052246094 C 307.8560791015625 445.16497802734375 306.4486999511719 444.19677734375 305.2124938964844 443.8060302734375 C 302.5715637207031 441.70947265625 303.3574523925781 440.373046875 304.70623779296875 440.23492431640625" stroke-width="0.0" fill="url(#shape_65_fill)"/>
    <path d="M -0.5790324807167053 -0.4271707832813263 C 224.73550415039062 -0.1381857693195343 444.1637268066406 0.30878740549087524 672.4093627929688 0.22316484153270721 C 673.3631591796875 155.8628387451172 674.7673950195312 296.00567626953125 673.7574462890625 445.47149658203125 C 450.075927734375 446.3189392089844 230.07269287109375 446.312744140625 0.4255564510822296 445.49658203125 C 0.178400456905365 297.2677001953125 -0.21749304234981537 149.51683044433594 -0.5790324807167053 -0.4271707832813263" stroke-width="0.0" fill="url(#shape_66_fill)"/>
    <path d="M -1.136372685432434 -0.22902603447437286 C 222.83302307128906 -0.1356237530708313 442.9082946777344 0.3966892957687378 672.3336181640625 -0.25114864110946655 C 673.3877563476562 156.92198181152344 674.8258056640625 295.6105651855469 673.3983154296875 445.3921203613281 C 450.3909606933594 446.381103515625 230.1566925048828 446.34613037109375 0.43881943821907043 445.4334716796875 C 0.02403196319937706 297.6318664550781 -0.3018747866153717 149.1902618408203 -1.136372685432434 -0.22902603447437286" stroke-width="0.0" fill="url(#shape_67_fill)"/>
    <path d="M -0.739250659942627 -0.27796801924705505 C 223.47979736328125 -0.1897609531879425 441.626708984375 0.5274049043655396 672.5390625 -0.3277153968811035 C 673.4946899414062 156.0665740966797 674.8253173828125 295.40338134765625 673.3868408203125 445.39129638671875 C 450.3875427246094 446.38226318359375 230.2069091796875 446.3443908691406 1.0904940366744995 445.4082946777344 C 0.469282329082489 295.76708984375 0.05326671898365021 148.59335327148438 -0.739250659942627 -0.27796801924705505" stroke-width="0.0" fill="url(#shape_68_fill)"/>
  </g>
</svg>
