<?xml version="1.0" ?>
<svg xmlns="http://www.w3.org/2000/svg" version="1.1" width="674" height="446">
  <defs>
    <radialGradient id="shape_0_fill" cx="0.5378383557237574" cy="0.7443117560827144" r="0.27570716563601166">
      <stop offset="0.6348242" stop-color="rgb(231, 221, 0)" stop-opacity="0.9851735234260559"/>
      <stop offset="1.0" stop-color="rgb(37, 44, 0)" stop-opacity="1.0"/>
    </radialGradient>
    <radialGradient id="shape_1_fill" cx="0.5387556036431287" cy="0.7463422014039728" r="0.20568729932654858">
      <stop offset="0.75667375" stop-color="rgb(100, 94, 49)" stop-opacity="0.8900695443153381"/>
      <stop offset="1.0" stop-color="rgb(22, 4, 0)" stop-opacity="0.7266966104507446"/>
    </radialGradient>
    <radialGradient id="shape_2_fill" cx="0.09792284866468842" cy="0.7376681614349776" r="0.22062588021026522">
      <stop offset="9.1523594e-05" stop-color="rgb(30, 90, 182)" stop-opacity="1.0"/>
      <stop offset="1.0" stop-color="rgb(10, 119, 255)" stop-opacity="0.9567747116088867"/>
    </radialGradient>
    <radialGradient id="shape_3_fill" cx="0.27509928174117904" cy="0.2158979749465737" r="0.12633604960908523">
      <stop offset="0.3655319" stop-color="rgb(152, 215, 22)" stop-opacity="0.8860412240028381"/>
      <stop offset="1.0" stop-color="rgb(50, 52, 0)" stop-opacity="1.0"/>
    </radialGradient>
    <radialGradient id="shape_4_fill" cx="0.1543026706231454" cy="0.9977578475336323" r="0.10288926755639141">
      <stop offset="0.0" stop-color="rgb(81, 79, 86)" stop-opacity="1.0"/>
      <stop offset="1.0" stop-color="rgb(107, 114, 100)" stop-opacity="0.876067042350769"/>
    </radialGradient>
    <radialGradient id="shape_5_fill" cx="0.14807994853848874" cy="0.23997249517740155" r="0.11810688731932145">
      <stop offset="0.0" stop-color="rgb(255, 255, 255)" stop-opacity="0.6468336582183838"/>
      <stop offset="0.5631834" stop-color="rgb(255, 255, 255)" stop-opacity="0.7221234440803528"/>
    </radialGradient>
    <radialGradient id="shape_6_fill" cx="0.18397626112759644" cy="0.9977578475336323" r="0.0754974885934892">
      <stop offset="0.0" stop-color="rgb(93, 90, 94)" stop-opacity="1.0"/>
      <stop offset="1.0" stop-color="rgb(151, 145, 142)" stop-opacity="0.522351086139679"/>
    </radialGradient>
    <radialGradient id="shape_7_fill" cx="0.2893175074183976" cy="0.05829596412556054" r="0.08666390552011372">
      <stop offset="0.0" stop-color="rgb(55, 66, 29)" stop-opacity="1.0"/>
      <stop offset="1.0" stop-color="rgb(71, 78, 0)" stop-opacity="0.9543792605400085"/>
    </radialGradient>
    <radialGradient id="shape_8_fill" cx="0.3382789091115889" cy="0.9439461883408071" r="0.06756690277190167">
      <stop offset="0.0" stop-color="rgb(91, 124, 45)" stop-opacity="1.0"/>
      <stop offset="1.0" stop-color="rgb(153, 194, 63)" stop-opacity="0.8358108401298523"/>
    </radialGradient>
    <radialGradient id="shape_9_fill" cx="0.30712166172106825" cy="0.9977578475336323" r="0.0730758406641929">
      <stop offset="0.0" stop-color="rgb(38, 48, 20)" stop-opacity="1.0"/>
      <stop offset="1.0" stop-color="rgb(27, 41, 0)" stop-opacity="1.0"/>
    </radialGradient>
    <radialGradient id="shape_10_fill" cx="0.3056379821958457" cy="0.9977578475336323" r="0.06792919147615971">
      <stop offset="0.0" stop-color="rgb(39, 49, 21)" stop-opacity="1.0"/>
      <stop offset="1.0" stop-color="rgb(51, 51, 0)" stop-opacity="0.754421591758728"/>
    </radialGradient>
    <radialGradient id="shape_11_fill" cx="0.21810089020771514" cy="0.968609865470852" r="0.06792919147615971">
      <stop offset="0.0" stop-color="rgb(138, 135, 129)" stop-opacity="1.0"/>
      <stop offset="1.0" stop-color="rgb(244, 195, 199)" stop-opacity="0.6213706135749817"/>
    </radialGradient>
    <radialGradient id="shape_12_fill" cx="0.29080118694362017" cy="0.9977578475336323" r="0.07480746985189285">
      <stop offset="0.0" stop-color="rgb(22, 25, 13)" stop-opacity="1.0"/>
      <stop offset="1.0" stop-color="rgb(1, 0, 0)" stop-opacity="1.0"/>
    </radialGradient>
    <radialGradient id="shape_13_fill" cx="0.327893175074184" cy="0.8923766816143498" r="0.06900465877544279">
      <stop offset="0.0" stop-color="rgb(89, 117, 50)" stop-opacity="1.0"/>
      <stop offset="1.0" stop-color="rgb(118, 159, 53)" stop-opacity="0.9984077215194702"/>
    </radialGradient>
    <radialGradient id="shape_14_fill" cx="0.142433234421365" cy="0.9977578475336323" r="0.06617211022079875">
      <stop offset="0.0" stop-color="rgb(155, 150, 153)" stop-opacity="1.0"/>
      <stop offset="1.0" stop-color="rgb(255, 255, 255)" stop-opacity="0.47910982370376587"/>
    </radialGradient>
    <radialGradient id="shape_15_fill" cx="0.31008902077151335" cy="0.9977578475336323" r="0.06683642786405207">
      <stop offset="0.0" stop-color="rgb(43, 55, 23)" stop-opacity="1.0"/>
      <stop offset="1.0" stop-color="rgb(44, 57, 0)" stop-opacity="1.0"/>
    </radialGradient>
    <radialGradient id="shape_16_fill" cx="0.27299703264094954" cy="0.9977578475336323" r="0.08110449363640579">
      <stop offset="0.0" stop-color="rgb(31, 35, 19)" stop-opacity="1.0"/>
      <stop offset="1.0" stop-color="rgb(30, 19, 0)" stop-opacity="1.0"/>
    </radialGradient>
    <radialGradient id="shape_17_fill" cx="0.2893175074183976" cy="0.9977578475336323" r="0.07513486030193747">
      <stop offset="0.0" stop-color="rgb(22, 23, 13)" stop-opacity="1.0"/>
      <stop offset="1.0" stop-color="rgb(0, 0, 0)" stop-opacity="0.46299535036087036"/>
    </radialGradient>
    <radialGradient id="shape_18_fill" cx="0.3293768545994065" cy="0.7556053811659192" r="0.06617211022079875">
      <stop offset="0.0" stop-color="rgb(83, 108, 65)" stop-opacity="1.0"/>
      <stop offset="1.0" stop-color="rgb(105, 139, 77)" stop-opacity="0.9827430844306946"/>
    </radialGradient>
    <radialGradient id="shape_19_fill" cx="0.3516320474777448" cy="0.9977578475336323" r="0.06617211022079875">
      <stop offset="0.0" stop-color="rgb(95, 135, 39)" stop-opacity="1.0"/>
      <stop offset="1.0" stop-color="rgb(137, 207, 37)" stop-opacity="0.9924012422561646"/>
    </radialGradient>
    <radialGradient id="shape_20_fill" cx="0.0830860534124629" cy="0.9977578475336323" r="0.06792919147615971">
      <stop offset="0.0" stop-color="rgb(49, 52, 66)" stop-opacity="1.0"/>
      <stop offset="1.0" stop-color="rgb(45, 38, 76)" stop-opacity="0.7827083468437195"/>
    </radialGradient>
    <radialGradient id="shape_21_fill" cx="0.29821958456973297" cy="0.9977578475336323" r="0.06792919147615971">
      <stop offset="0.0" stop-color="rgb(33, 40, 17)" stop-opacity="1.0"/>
      <stop offset="1.0" stop-color="rgb(12, 9, 0)" stop-opacity="0.6321262121200562"/>
    </radialGradient>
    <radialGradient id="shape_22_fill" cx="0.3564337891711679" cy="0.44366359283036716" r="0.06591730089498911">
      <stop offset="0.0" stop-color="rgb(224, 251, 0)" stop-opacity="0.6317145824432373"/>
      <stop offset="0.43153095" stop-color="rgb(158, 201, 14)" stop-opacity="0.8951711058616638"/>
    </radialGradient>
    <radialGradient id="shape_23_fill" cx="0.6454005934718101" cy="0.1412556053811659" r="0.06617211022079875">
      <stop offset="0.0" stop-color="rgb(46, 38, 13)" stop-opacity="1.0"/>
      <stop offset="1.0" stop-color="rgb(35, 10, 0)" stop-opacity="0.8086116909980774"/>
    </radialGradient>
    <radialGradient id="shape_24_fill" cx="0.24925732258873098" cy="0.48430544592339897" r="0.06617138010811735">
      <stop offset="0.0" stop-color="rgb(201, 209, 206)" stop-opacity="1.0"/>
      <stop offset="0.9769327" stop-color="rgb(255, 255, 255)" stop-opacity="0.670653223991394"/>
    </radialGradient>
    <radialGradient id="shape_25_fill" cx="0.6320474777448071" cy="0.9977578475336323" r="0.06617211022079875">
      <stop offset="0.0" stop-color="rgb(35, 28, 8)" stop-opacity="1.0"/>
      <stop offset="1.0" stop-color="rgb(23, 0, 0)" stop-opacity="0.6134846806526184"/>
    </radialGradient>
    <radialGradient id="shape_26_fill" cx="0.15415335409011616" cy="0.32070423348602156" r="0.06605369047170577">
      <stop offset="0.11172351" stop-color="rgb(198, 211, 154)" stop-opacity="1.0"/>
      <stop offset="0.5930111" stop-color="rgb(128, 127, 254)" stop-opacity="0.05785590410232544"/>
    </radialGradient>
    <radialGradient id="shape_27_fill" cx="0.1541070004245294" cy="0.32080290242695486" r="0.06604536492322248">
      <stop offset="0.0" stop-color="rgb(192, 204, 0)" stop-opacity="1.0"/>
      <stop offset="0.49528635" stop-color="rgb(107, 100, 50)" stop-opacity="0.6172346472740173"/>
    </radialGradient>
    <radialGradient id="shape_28_fill" cx="0.040842585464613376" cy="0.02141724146000473" r="0.06656560699734561">
      <stop offset="0.09823048" stop-color="rgb(0, 0, 115)" stop-opacity="0.9256297945976257"/>
      <stop offset="0.73539746" stop-color="rgb(0, 20, 129)" stop-opacity="0.7786814570426941"/>
    </radialGradient>
    <radialGradient id="shape_29_fill" cx="0.33976258863681147" cy="0.6659192825112108" r="0.06617211022079875">
      <stop offset="0.0" stop-color="rgb(90, 117, 55)" stop-opacity="1.0"/>
      <stop offset="1.0" stop-color="rgb(124, 160, 47)" stop-opacity="0.9656360149383545"/>
    </radialGradient>
    <radialGradient id="shape_30_fill" cx="0.041095883626966166" cy="0.01992494215345169" r="0.06661857129558257">
      <stop offset="0.33909115" stop-color="rgb(46, 67, 55)" stop-opacity="0.8369616866111755"/>
      <stop offset="0.8914284" stop-color="rgb(28, 44, 60)" stop-opacity="0.7548646926879883"/>
    </radialGradient>
    <radialGradient id="shape_31_fill" cx="0.12314540059347182" cy="0.9977578475336323" r="0.06617211022079875">
      <stop offset="0.0" stop-color="rgb(95, 103, 98)" stop-opacity="1.0"/>
      <stop offset="1.0" stop-color="rgb(163, 139, 139)" stop-opacity="0.7201798558235168"/>
    </radialGradient>
    <radialGradient id="shape_32_fill" cx="0.4035608308605341" cy="0.984304932735426" r="0.06617211022079875">
      <stop offset="0.0" stop-color="rgb(126, 155, 63)" stop-opacity="1.0"/>
      <stop offset="1.0" stop-color="rgb(177, 162, 23)" stop-opacity="1.0"/>
    </radialGradient>
    <radialGradient id="shape_33_fill" cx="0.3249258160237389" cy="0.6053811659192825" r="0.06617211022079875">
      <stop offset="0.0" stop-color="rgb(93, 124, 71)" stop-opacity="1.0"/>
      <stop offset="1.0" stop-color="rgb(126, 155, 54)" stop-opacity="0.9998477101325989"/>
    </radialGradient>
    <radialGradient id="shape_34_fill" cx="0.6468842729970327" cy="0.531390134529148" r="0.06617211022079875">
      <stop offset="0.0" stop-color="rgb(54, 47, 24)" stop-opacity="1.0"/>
      <stop offset="1.0" stop-color="rgb(74, 47, 0)" stop-opacity="0.8433851599693298"/>
    </radialGradient>
    <radialGradient id="shape_35_fill" cx="0.14239174817365427" cy="0.23435426720589267" r="0.06635515909166648">
      <stop offset="0.0" stop-color="rgb(120, 212, 2)" stop-opacity="0.22771120071411133"/>
      <stop offset="0.42929778" stop-color="rgb(184, 191, 15)" stop-opacity="0.3936561048030853"/>
    </radialGradient>
    <radialGradient id="shape_36_fill" cx="0.2878338278931751" cy="0.9977578475336323" r="0.06617211022079875">
      <stop offset="0.0" stop-color="rgb(80, 96, 53)" stop-opacity="1.0"/>
      <stop offset="1.0" stop-color="rgb(62, 64, 86)" stop-opacity="0.9988975524902344"/>
    </radialGradient>
    <radialGradient id="shape_37_fill" cx="0.129080118694362" cy="0.9977578475336323" r="0.06617211022079875">
      <stop offset="0.0" stop-color="rgb(87, 97, 81)" stop-opacity="1.0"/>
      <stop offset="1.0" stop-color="rgb(108, 111, 91)" stop-opacity="0.9336646795272827"/>
    </radialGradient>
    <radialGradient id="shape_38_fill" cx="0.3389192801908499" cy="0.5607720276700007" r="0.06667996867827916">
      <stop offset="0.7375484" stop-color="rgb(93, 129, 8)" stop-opacity="0.9013127088546753"/>
      <stop offset="0.614517" stop-color="rgb(161, 255, 26)" stop-opacity="0.9151740074157715"/>
    </radialGradient>
    <radialGradient id="shape_39_fill" cx="0.40059347181008903" cy="0.9641255605381166" r="0.06617211022079875">
      <stop offset="0.0" stop-color="rgb(138, 168, 60)" stop-opacity="1.0"/>
      <stop offset="1.0" stop-color="rgb(238, 255, 75)" stop-opacity="1.0"/>
    </radialGradient>
    <radialGradient id="shape_40_fill" cx="0.6172479918165801" cy="0.8833596268042321" r="0.06614713923513713">
      <stop offset="0.035228614" stop-color="rgb(10, 0, 24)" stop-opacity="0.9876669049263"/>
      <stop offset="0.67177755" stop-color="rgb(0, 0, 11)" stop-opacity="1.0"/>
    </radialGradient>
    <radialGradient id="shape_41_fill" cx="0.6454005934718101" cy="0.08744394618834081" r="0.06617211022079875">
      <stop offset="0.0" stop-color="rgb(58, 48, 21)" stop-opacity="1.0"/>
      <stop offset="1.0" stop-color="rgb(89, 53, 0)" stop-opacity="0.9829640984535217"/>
    </radialGradient>
    <radialGradient id="shape_42_fill" cx="0.5845697329376854" cy="0.6188340807174888" r="0.06617211022079875">
      <stop offset="0.0" stop-color="rgb(62, 59, 56)" stop-opacity="1.0"/>
      <stop offset="1.0" stop-color="rgb(29, 20, 54)" stop-opacity="0.8518298268318176"/>
    </radialGradient>
    <radialGradient id="shape_43_fill" cx="0.3575868238681148" cy="0.506508113022877" r="0.06625080957610813">
      <stop offset="0.18644312" stop-color="rgb(142, 193, 44)" stop-opacity="1.0"/>
      <stop offset="0.592276" stop-color="rgb(178, 255, 34)" stop-opacity="0.9080892205238342"/>
    </radialGradient>
    <radialGradient id="shape_44_fill" cx="0.5934718100890207" cy="0.9977578475336323" r="0.06617211022079875">
      <stop offset="0.0" stop-color="rgb(89, 61, 18)" stop-opacity="1.0"/>
      <stop offset="1.0" stop-color="rgb(165, 82, 0)" stop-opacity="0.6645295023918152"/>
    </radialGradient>
    <radialGradient id="shape_45_fill" cx="0.612759643916914" cy="0.04035874439461883" r="0.06617211022079875">
      <stop offset="0.0" stop-color="rgb(157, 136, 123)" stop-opacity="1.0"/>
      <stop offset="1.0" stop-color="rgb(255, 224, 198)" stop-opacity="1.0"/>
    </radialGradient>
    <radialGradient id="shape_46_fill" cx="0.28635014836795253" cy="0.9977578475336323" r="0.06617211022079875">
      <stop offset="0.0" stop-color="rgb(82, 99, 55)" stop-opacity="1.0"/>
      <stop offset="1.0" stop-color="rgb(114, 127, 25)" stop-opacity="0.365691602230072"/>
    </radialGradient>
    <radialGradient id="shape_47_fill" cx="0.28635014836795253" cy="0.8183856502242153" r="0.06617211022079875">
      <stop offset="0.0" stop-color="rgb(166, 189, 197)" stop-opacity="1.0"/>
      <stop offset="1.0" stop-color="rgb(255, 255, 255)" stop-opacity="0.633640706539154"/>
    </radialGradient>
    <radialGradient id="shape_48_fill" cx="0.40801186943620177" cy="0.9977578475336323" r="0.06617211022079875">
      <stop offset="0.0" stop-color="rgb(107, 135, 68)" stop-opacity="1.0"/>
      <stop offset="1.0" stop-color="rgb(132, 150, 48)" stop-opacity="1.0"/>
    </radialGradient>
    <radialGradient id="shape_49_fill" cx="0.19287833827893175" cy="0.3991031390134529" r="0.06617211022079875">
      <stop offset="0.0" stop-color="rgb(92, 100, 54)" stop-opacity="1.0"/>
      <stop offset="1.0" stop-color="rgb(142, 128, 74)" stop-opacity="0.6931650042533875"/>
    </radialGradient>
    <radialGradient id="shape_50_fill" cx="0.6439169139465876" cy="0.7376681614349776" r="0.06617211022079875">
      <stop offset="0.0" stop-color="rgb(65, 56, 25)" stop-opacity="1.0"/>
      <stop offset="1.0" stop-color="rgb(151, 202, 13)" stop-opacity="0.5627242922782898"/>
    </radialGradient>
    <radialGradient id="shape_51_fill" cx="0.5845697329376854" cy="0.6322869955156951" r="0.06617211022079875">
      <stop offset="0.0" stop-color="rgb(75, 68, 60)" stop-opacity="1.0"/>
      <stop offset="1.0" stop-color="rgb(131, 105, 84)" stop-opacity="0.8835588097572327"/>
    </radialGradient>
    <radialGradient id="shape_52_fill" cx="0.2997032640949555" cy="0.6031390134529148" r="0.06617211022079875">
      <stop offset="0.0" stop-color="rgb(107, 158, 118)" stop-opacity="1.0"/>
      <stop offset="1.0" stop-color="rgb(185, 255, 219)" stop-opacity="0.8323573470115662"/>
    </radialGradient>
    <radialGradient id="shape_53_fill" cx="0.6097922848664689" cy="0.45067264573991034" r="0.06617211022079875">
      <stop offset="0.0" stop-color="rgb(38, 39, 27)" stop-opacity="1.0"/>
      <stop offset="1.0" stop-color="rgb(31, 14, 0)" stop-opacity="0.41870835423469543"/>
    </radialGradient>
    <radialGradient id="shape_54_fill" cx="0.6335311572700296" cy="0.426009002822397" r="0.06617211022079875">
      <stop offset="0.0" stop-color="rgb(67, 49, 20)" stop-opacity="1.0"/>
      <stop offset="1.0" stop-color="rgb(111, 57, 0)" stop-opacity="0.8711273670196533"/>
    </radialGradient>
    <radialGradient id="shape_55_fill" cx="0.37056521633612294" cy="0.5990153770275715" r="0.06597508167300804">
      <stop offset="0.07817104" stop-color="rgb(255, 255, 17)" stop-opacity="0.8917657732963562"/>
      <stop offset="0.28700083" stop-color="rgb(215, 255, 15)" stop-opacity="0.8742852807044983"/>
    </radialGradient>
    <radialGradient id="shape_56_fill" cx="0.5489614243323442" cy="0.600896860986547" r="0.06617211022079875">
      <stop offset="0.0" stop-color="rgb(50, 62, 80)" stop-opacity="1.0"/>
      <stop offset="1.0" stop-color="rgb(24, 47, 139)" stop-opacity="0.7290248870849609"/>
    </radialGradient>
    <radialGradient id="shape_57_fill" cx="0.4094955489614243" cy="0.9035874439461884" r="0.06617211022079875">
      <stop offset="0.0" stop-color="rgb(111, 144, 47)" stop-opacity="1.0"/>
      <stop offset="1.0" stop-color="rgb(174, 204, 40)" stop-opacity="0.9639067649841309"/>
    </radialGradient>
    <radialGradient id="shape_58_fill" cx="0.5281899109792285" cy="0.9977578475336323" r="0.06617211022079875">
      <stop offset="0.0" stop-color="rgb(50, 43, 14)" stop-opacity="1.0"/>
      <stop offset="1.0" stop-color="rgb(58, 37, 0)" stop-opacity="0.9599618911743164"/>
    </radialGradient>
    <radialGradient id="shape_59_fill" cx="0.5845697329376854" cy="0.7690582959641256" r="0.06617211022079875">
      <stop offset="0.0" stop-color="rgb(61, 63, 58)" stop-opacity="1.0"/>
      <stop offset="1.0" stop-color="rgb(72, 65, 98)" stop-opacity="0.7407172322273254"/>
    </radialGradient>
    <radialGradient id="shape_60_fill" cx="0.5489614243323442" cy="0.9977578475336323" r="0.06617211022079875">
      <stop offset="0.0" stop-color="rgb(140, 131, 64)" stop-opacity="1.0"/>
      <stop offset="1.0" stop-color="rgb(255, 202, 90)" stop-opacity="0.92268967628479"/>
    </radialGradient>
    <radialGradient id="shape_61_fill" cx="0.6468708253402031" cy="0.9686149973505815" r="0.06617577210378223">
      <stop offset="0.28183085" stop-color="rgb(255, 220, 0)" stop-opacity="1.0"/>
      <stop offset="1.0" stop-color="rgb(255, 202, 0)" stop-opacity="1.0"/>
    </radialGradient>
    <radialGradient id="shape_62_fill" cx="0.615727002967359" cy="0.3991031390134529" r="0.06617211022079875">
      <stop offset="0.0" stop-color="rgb(55, 47, 13)" stop-opacity="1.0"/>
      <stop offset="1.0" stop-color="rgb(68, 46, 0)" stop-opacity="0.9772475361824036"/>
    </radialGradient>
    <radialGradient id="shape_63_fill" cx="0.6261127596439169" cy="0.7286995515695067" r="0.06617211022079875">
      <stop offset="0.0" stop-color="rgb(79, 66, 32)" stop-opacity="1.0"/>
      <stop offset="1.0" stop-color="rgb(253, 239, 45)" stop-opacity="0.8918930292129517"/>
    </radialGradient>
    <radialGradient id="shape_64_fill" cx="0.40801186943620177" cy="0.12556053811659193" r="0.06617211022079875">
      <stop offset="0.0" stop-color="rgb(76, 66, 59)" stop-opacity="1.0"/>
      <stop offset="1.0" stop-color="rgb(113, 81, 75)" stop-opacity="1.0"/>
    </radialGradient>
    <radialGradient id="shape_65_fill" cx="0.6528189910979229" cy="0.6883408071748879" r="0.06617211022079875">
      <stop offset="0.0" stop-color="rgb(121, 97, 39)" stop-opacity="1.0"/>
      <stop offset="1.0" stop-color="rgb(255, 255, 48)" stop-opacity="1.0"/>
    </radialGradient>
    <radialGradient id="shape_66_fill" cx="0.6502158960178274" cy="0.4605624622293652" r="0.06724522870796724">
      <stop offset="0.41632852" stop-color="rgb(146, 187, 26)" stop-opacity="0.38742145895957947"/>
      <stop offset="0.99905616" stop-color="rgb(0, 0, 0)" stop-opacity="0.07190380990505219"/>
    </radialGradient>
    <radialGradient id="shape_67_fill" cx="0.5935309435564262" cy="0.9955469653210832" r="0.06786183999624733">
      <stop offset="0.92192215" stop-color="rgb(49, 26, 0)" stop-opacity="0.8322330713272095"/>
      <stop offset="1.0" stop-color="rgb(0, 6, 0)" stop-opacity="0.1725461333990097"/>
    </radialGradient>
    <radialGradient id="shape_68_fill" cx="0.4883037985963001" cy="0.9964385438927621" r="0.06735788679264419">
      <stop offset="0.4389621" stop-color="rgb(54, 35, 23)" stop-opacity="0.7449695467948914"/>
      <stop offset="1.0" stop-color="rgb(54, 72, 67)" stop-opacity="0.3672318756580353"/>
    </radialGradient>
  </defs>
  <g>
    <path d="M -0.256574809551239 271.2556457519531 C 25.747583389282227 270.4118957519531 34.68559646606445 271.357421875 44.865150451660156 273.3415832519531 C 48.07241439819336 275.0200500488281 49.36660385131836 276.66375732421875 57.1402473449707 274.5445556640625 C 60.51438903808594 273.8668212890625 63.850868225097656 274.5350341796875 65.50028228759766 274.3743591308594 C 73.0926742553711 272.0740051269531 102.81696319580078 271.9766540527344 113.84104919433594 272.46807861328125 C 116.60684967041016 276.2592468261719 126.94768524169922 277.74560546875 126.53125 281.2991638183594 C 134.1761016845703 281.8889465332031 140.824951171875 281.1021728515625 148.50230407714844 282.5648193359375 C 185.26202392578125 281.7956848144531 185.75401306152344 282.5221862792969 204.91705322265625 284.59259033203125 C 200.6900177001953 290.0378112792969 198.70082092285156 282.9187927246094 217.4430389404297 276.5804443359375 C 239.4090118408203 277.8515625 282.2076721191406 277.1619873046875 306.06494140625 282.60015869140625 C 338.625244140625 284.5554504394531 416.3382263183594 284.17291259765625 457.80548095703125 281.9425354003906 C 484.4826354980469 281.52593994140625 533.64013671875 283.1804504394531 540.5556030273438 286.50469970703125 C 549.33984375 286.8213195800781 550.8952026367188 283.07330322265625 562.2460327148438 280.8830871582031 C 572.7411499023438 284.35791015625 611.32177734375 285.9870910644531 613.46826171875 286.2234191894531 C 636.89892578125 280.8343811035156 646.9255981445312 281.45428466796875 661.3115234375 281.4039001464844 C 666.1254272460938 282.3386535644531 671.5632934570312 286.9496154785156 673.9029541015625 291.16693115234375 C 675.6651611328125 339.5812683105469 674.859130859375 391.98626708984375 674.9071655273438 446.0318298339844 C 451.7821350097656 446.337646484375 229.0464630126953 446.444091796875 -0.28326523303985596 446.0135192871094 C -0.4065093994140625 389.1420593261719 0.2732948660850525 332.3605041503906 -0.256574809551239 271.2556457519531" stroke-width="0.0" fill="url(#shape_0_fill)"/>
    <path d="M -0.03644866496324539 271.6536865234375 C 35.933231353759766 275.3994445800781 36.557518005371094 274.5908508300781 44.476905822753906 276.3273010253906 C 55.241512298583984 274.2455749511719 66.62248229980469 273.1102294921875 77.31510162353516 273.97021484375 C 113.44158935546875 278.68133544921875 114.00848388671875 279.3112487792969 125.8912582397461 279.2286071777344 C 128.77915954589844 278.301513671875 152.9886016845703 278.4185485839844 156.19029235839844 277.37225341796875 C 185.0429229736328 276.5411071777344 185.5977325439453 278.21917724609375 200.2097930908203 280.03289794921875 C 202.64376831054688 291.65484619140625 205.14303588867188 291.1260070800781 221.42138671875 289.93377685546875 C 224.90939331054688 288.7716979980469 277.0957336425781 290.3815002441406 297.7769470214844 291.4876403808594 C 327.59686279296875 293.24444580078125 445.1069641113281 291.0617370605469 450.3497009277344 291.1763000488281 C 470.5039367675781 289.8848876953125 487.0341491699219 290.688232421875 505.1575012207031 287.8203430175781 C 508.8180236816406 287.2530822753906 516.9108276367188 286.0221862792969 522.813720703125 286.4093017578125 C 527.5299072265625 285.6696472167969 531.8853759765625 285.8663330078125 535.1402587890625 286.9989929199219 C 543.9096069335938 286.6800537109375 551.4227905273438 287.7933349609375 558.9727172851562 290.35662841796875 C 569.6583862304688 287.0872802734375 579.35791015625 288.1580505371094 587.2590942382812 289.55169677734375 C 605.0381469726562 288.5774841308594 618.78466796875 287.8165588378906 631.3702392578125 288.27178955078125 C 645.5098266601562 282.8508605957031 657.5521240234375 287.0050354003906 674.2242431640625 288.433837890625 C 673.8129272460938 340.8739013671875 674.4092407226562 392.30413818359375 674.1441040039062 446.2807922363281 C 451.4774169921875 446.3905334472656 229.19664001464844 446.25439453125 -0.3076326847076416 446.2476501464844 C -0.21355456113815308 389.4035949707031 -0.293830931186676 333.02813720703125 -0.03644866496324539 271.6536865234375" stroke-width="0.0" fill="url(#shape_1_fill)"/>
    <path d="M -0.07477164268493652 -0.2598724067211151 C 219.69313049316406 0.10397496074438095 439.478759765625 -0.4522378444671631 670.2529907226562 -0.32709234952926636 C 662.469970703125 8.053030967712402 645.2468872070312 36.05304718017578 637.518798828125 47.49809265136719 C 636.6544189453125 54.95673370361328 612.4031372070312 94.8251724243164 585.8114013671875 84.24786376953125 C 578.456298828125 81.242919921875 558.8267211914062 71.14380645751953 532.8912963867188 73.3890609741211 C 531.7039184570312 74.57363891601562 525.4244384765625 76.40904235839844 522.955078125 71.55502319335938 C 522.7359008789062 68.40904235839844 500.502197265625 62.883445739746094 499.9439392089844 62.312374114990234 C 492.3653259277344 61.936214447021484 486.1087951660156 60.758121490478516 481.5506896972656 68.57813262939453 C 474.52777099609375 69.80393981933594 475.0257263183594 73.8746566772461 475.23382568359375 78.37442016601562 C 477.994140625 91.47058868408203 468.13812255859375 107.631591796875 463.9191589355469 112.26044464111328 C 458.949462890625 113.96366882324219 453.426025390625 112.2196273803711 452.10284423828125 109.17943572998047 C 436.5103454589844 106.63652038574219 411.2406921386719 102.76087188720703 410.6138000488281 104.8070068359375 C 406.9543151855469 116.70719146728516 406.79547119140625 121.15624237060547 403.5 127.53755950927734 C 401.5292663574219 135.60134887695312 394.0082702636719 138.0612335205078 390.1871643066406 138.96243286132812 C 379.6530456542969 142.1357879638672 375.13873291015625 158.41226196289062 372.9374084472656 159.1111297607422 C 372.2901611328125 164.9588165283203 371.0667724609375 169.0318603515625 367.59063720703125 173.58688354492188 C 365.4727783203125 175.94973754882812 362.17889404296875 175.0799102783203 353.0766906738281 180.1121063232422 C 346.43243408203125 187.8506317138672 336.42364501953125 179.27352905273438 326.22509765625 176.78639221191406 C 310.3913269042969 177.1869659423828 309.7873229980469 183.59646606445312 308.0858459472656 186.25851440429688 C 307.151611328125 191.0729522705078 305.18011474609375 193.7058868408203 307.6910095214844 201.3170928955078 C 307.1984558105469 201.01048278808594 305.38751220703125 198.92770385742188 304.8376770019531 193.89761352539062 C 301.9254150390625 191.79644775390625 297.38623046875 192.6467742919922 288.9756164550781 187.69882202148438 C 291.1633605957031 193.61447143554688 289.8621520996094 196.41241455078125 289.206298828125 196.20526123046875 C 285.4184875488281 192.39291381835938 283.7492370605469 187.54002380371094 282.91326904296875 186.84349060058594 C 273.2289733886719 188.15289306640625 271.7495422363281 190.53831481933594 266.8943786621094 188.24134826660156 C 260.6376647949219 188.16607666015625 260.38873291015625 193.0893096923828 259.8041076660156 197.6859588623047 C 261.0125427246094 199.2258758544922 260.69091796875 200.70565795898438 257.74053955078125 200.4638671875 C 256.91357421875 200.4315948486328 251.33343505859375 199.56565856933594 251.1786651611328 196.4639434814453 C 250.64451599121094 191.09475708007812 251.4333038330078 189.15415954589844 247.98486328125 177.28472900390625 C 251.9577178955078 171.37615966796875 216.1211395263672 142.02655029296875 214.5426788330078 139.40194702148438 C 184.13314819335938 123.28523254394531 195.71871948242188 101.51338195800781 192.13304138183594 88.8954086303711 C 193.7099609375 83.60707092285156 157.34019470214844 72.54212951660156 143.11390686035156 65.53585052490234 C 118.89429473876953 39.29121017456055 66.66142272949219 53.29798126220703 36.264652252197266 62.549591064453125 C 16.068449020385742 69.677490234375 11.78525447845459 68.7076416015625 -0.2803827226161957 70.00127410888672 C 0.3397025167942047 43.968421936035156 -0.3323880434036255 22.56491470336914 -0.07477164268493652 -0.2598724067211151" stroke-width="0.0" fill="url(#shape_2_fill)"/>
    <path d="M 86.25568389892578 67.60334014892578 C 88.39578247070312 69.30547332763672 92.51754760742188 68.56031036376953 93.7859878540039 69.16657257080078 C 90.94737243652344 78.32858276367188 91.57015228271484 82.69956970214844 91.36680603027344 85.35494232177734 C 96.04944610595703 83.62418365478516 97.5418472290039 86.35044860839844 103.33064270019531 87.73689270019531 C 103.56929779052734 76.46173095703125 105.7068862915039 74.38264465332031 108.87947845458984 75.59178161621094 C 111.80057525634766 87.60069274902344 112.01290893554688 94.17494201660156 115.91271209716797 99.51045227050781 C 116.75361633300781 100.07564544677734 116.75809478759766 108.5395736694336 115.5588150024414 116.01892852783203 C 124.5776596069336 114.77449035644531 128.8089141845703 114.64453125 129.44302368164062 112.4534912109375 C 129.58651733398438 108.09375762939453 136.25515747070312 106.55711364746094 136.4497833251953 104.44607543945312 C 136.59707641601562 103.69393920898438 135.52906799316406 101.79409790039062 137.00079345703125 97.99478912353516 C 136.4491729736328 93.25361633300781 137.46536254882812 92.87266540527344 137.1356658935547 88.94927215576172 C 137.27235412597656 84.85669708251953 138.612548828125 84.74645233154297 139.04498291015625 85.69062805175781 C 139.6975555419922 82.06344604492188 146.61019897460938 80.68558502197266 147.8835906982422 83.71605682373047 C 147.4681854248047 88.57892608642578 150.9452362060547 95.61360931396484 152.0968780517578 98.97132110595703 C 153.44125366210938 103.06776428222656 149.9336700439453 106.89391326904297 148.81752014160156 106.6725845336914 C 152.84083557128906 110.01263427734375 150.7641143798828 114.21595001220703 148.66397094726562 113.4924545288086 C 155.0224609375 112.66959381103516 158.2974853515625 122.51595306396484 158.0680694580078 123.05376434326172 C 161.90286254882812 124.71390533447266 164.8386993408203 123.34321594238281 169.9280548095703 122.96875 C 174.9248046875 119.38287353515625 175.30523681640625 121.63394165039062 177.6077117919922 122.53307342529297 C 179.31455993652344 122.68421936035156 179.8964080810547 125.53176879882812 182.57069396972656 127.81906127929688 C 183.82786560058594 130.22918701171875 182.38462829589844 133.14532470703125 183.235107421875 135.6314697265625 C 185.9091033935547 135.6007843017578 187.75047302246094 143.06582641601562 188.3412628173828 145.559326171875 C 193.11370849609375 145.4519805908203 204.12783813476562 157.44993591308594 202.21141052246094 173.4095458984375 C 205.50927734375 174.09710693359375 204.97589111328125 178.00120544433594 205.50198364257812 183.0098114013672 C 211.5736541748047 182.12570190429688 215.85987854003906 199.2465057373047 212.24737548828125 204.41368103027344 C 208.000732421875 207.15611267089844 203.45895385742188 208.1504669189453 203.13514709472656 210.29713439941406 C 200.8017578125 210.53659057617188 199.91722106933594 211.69065856933594 200.29295349121094 213.6468505859375 C 196.18087768554688 215.67869567871094 194.0244140625 215.61544799804688 192.32540893554688 219.5105743408203 C 184.29067993164062 221.0976104736328 183.60992431640625 224.80609130859375 179.03466796875 230.5029296875 C 176.17349243164062 233.6301727294922 179.32650756835938 239.93702697753906 180.5034942626953 243.41671752929688 C 181.12652587890625 251.7449493408203 185.66549682617188 259.9616394042969 177.79608154296875 264.8245544433594 C 174.17047119140625 267.9490661621094 148.1865692138672 267.5918273925781 138.35679626464844 270.310546875 C 128.73300170898438 267.5159912109375 124.33929443359375 269.39788818359375 116.90206909179688 271.95135498046875 C 108.91329193115234 276.6860046386719 73.3080825805664 275.6914978027344 73.41819763183594 269.8048400878906 C 47.63199234008789 266.7055969238281 56.486751556396484 268.5470275878906 56.68830108642578 273.6485900878906 C 46.246456146240234 277.1222839355469 0.5298358798027039 274.5198974609375 0.5310388803482056 271.0736389160156 C -2.7078561782836914 219.1022186279297 -2.048858880996704 166.97317504882812 -1.935957670211792 116.48480224609375 C 9.166569709777832 118.7872543334961 17.421598434448242 118.08491516113281 24.73427391052246 125.0616226196289 C 30.49148178100586 127.09668731689453 36.6047477722168 128.10079956054688 41.08869171142578 131.5585174560547 C 46.67481994628906 131.74649047851562 46.84117126464844 136.58677673339844 49.52553176879883 140.59373474121094 C 50.67981719970703 144.2963409423828 61.8259162902832 145.43707275390625 62.5797004699707 143.3009796142578 C 62.06768035888672 136.68858337402344 63.02064514160156 133.8218231201172 62.86721420288086 127.70738983154297 C 68.49397277832031 125.76058197021484 67.4017105102539 121.9738998413086 66.15723419189453 112.40476989746094 C 67.7011489868164 111.06441497802734 68.13494873046875 105.50899505615234 75.7226333618164 104.4107666015625 C 75.66548156738281 102.73360443115234 77.8537368774414 90.66739654541016 76.51420593261719 85.32122802734375 C 78.07200622558594 84.18685150146484 79.18425750732422 73.63977813720703 84.81315612792969 73.95850372314453 C 82.83848571777344 70.18852233886719 84.85964965820312 67.66487121582031 86.25568389892578 67.60334014892578" stroke-width="0.0" fill="url(#shape_3_fill)"/>
    <path d="M 673.8970947265625 0.13628511130809784 C 675.6881713867188 48.168025970458984 674.8782348632812 95.97321319580078 676.8021850585938 142.94390869140625 C 670.5870971679688 134.72447204589844 665.345947265625 127.50315856933594 661.6758422851562 120.27849578857422 C 661.0355224609375 119.83428955078125 655.217529296875 109.30709075927734 649.42578125 110.89066314697266 C 648.4170532226562 112.49984741210938 643.6390380859375 146.91075134277344 640.6154174804688 153.2332000732422 C 631.6749267578125 154.16351318359375 627.2630004882812 141.7396240234375 627.741943359375 138.1748809814453 C 622.9732666015625 137.3413543701172 618.68603515625 145.2786865234375 615.4122314453125 143.81784057617188 C 611.6470336914062 142.27784729003906 610.1766357421875 143.45375061035156 607.7769775390625 141.07620239257812 C 607.4201049804688 137.31295776367188 608.7788696289062 132.70211791992188 605.9161376953125 125.2138442993164 C 598.07666015625 133.63987731933594 597.5552368164062 139.38438415527344 595.1189575195312 144.19497680664062 C 596.1041870117188 148.6887969970703 594.8779907226562 150.9542999267578 595.745361328125 153.657470703125 C 588.8114013671875 156.97853088378906 587.0762329101562 163.94732666015625 580.6749267578125 170.869873046875 C 571.4674682617188 170.19192504882812 569.6885375976562 160.41168212890625 569.0396728515625 157.37149047851562 C 566.3350830078125 157.147216796875 564.2374877929688 153.24642944335938 561.4493408203125 153.46493530273438 C 560.0000610351562 150.76315307617188 555.111083984375 150.44876098632812 554.1107788085938 154.4586639404297 C 551.4992065429688 155.67323303222656 550.83056640625 159.19699096679688 548.8613891601562 160.25448608398438 C 546.4867553710938 158.3787078857422 542.0064086914062 159.9965057373047 535.8923950195312 154.44729614257812 C 531.7136840820312 154.71214294433594 529.8924560546875 157.94642639160156 524.123779296875 157.68862915039062 C 518.0411987304688 161.1757354736328 520.8635864257812 161.4220733642578 522.6511840820312 169.935791015625 C 517.4956665039062 169.96951293945312 515.859619140625 165.49612426757812 516.5807495117188 171.0687713623047 C 511.0752258300781 173.32769775390625 510.1132507324219 175.26210021972656 505.6133728027344 174.3889617919922 C 503.0133972167969 171.28050231933594 502.91064453125 169.6046600341797 501.66021728515625 164.75694274902344 C 496.6897277832031 148.60780334472656 510.69915771484375 124.46212768554688 520.24609375 127.1242904663086 C 521.9407348632812 122.84700775146484 536.6582641601562 111.17060852050781 548.40283203125 112.71766662597656 C 558.234375 110.44642639160156 556.2056884765625 109.66290283203125 556.2021484375 105.84829711914062 C 561.8949584960938 107.73124694824219 565.5563354492188 103.0641098022461 571.6058959960938 105.2177734375 C 574.6907958984375 102.7429428100586 573.4439697265625 97.49834442138672 578.8836669921875 94.12677764892578 C 580.8047485351562 88.13054656982422 601.2092895507812 78.73576354980469 613.5660400390625 78.54890441894531 C 616.8922119140625 73.51929473876953 643.8911743164062 51.173439025878906 644.0752563476562 35.30516052246094 C 644.9520263671875 32.42619323730469 647.984375 30.37856674194336 647.6010131835938 29.50002670288086 C 646.793212890625 28.24844741821289 663.8945922851562 -3.6370739936828613 673.8970947265625 0.13628511130809784" stroke-width="0.0" fill="url(#shape_4_fill)"/>
    <path d="M 151.61126708984375 68.59239196777344 C 152.3213653564453 68.98853302001953 186.6092987060547 83.65635681152344 192.5110321044922 92.00186920166016 C 179.95323181152344 116.01531982421875 216.83712768554688 151.90211486816406 220.76248168945312 155.046142578125 C 238.657958984375 170.0424346923828 242.45236206054688 184.91494750976562 240.47958374023438 193.61968994140625 C 237.6951446533203 193.83746337890625 236.70591735839844 185.80311584472656 236.76675415039062 184.05079650878906 C 235.6716766357422 183.60928344726562 234.1602783203125 184.2788543701172 231.10545349121094 182.7498321533203 C 232.0921173095703 183.36001586914062 230.93722534179688 192.63034057617188 228.3650360107422 195.91036987304688 C 227.78173828125 196.3892059326172 226.8621368408203 204.87782287597656 221.25241088867188 207.7500457763672 C 215.03848266601562 206.61007690429688 214.26351928710938 198.0133056640625 214.65354919433594 194.8611297607422 C 212.9606170654297 185.43443298339844 211.89816284179688 184.94105529785156 206.35252380371094 177.59474182128906 C 204.8575439453125 172.52816772460938 206.196533203125 165.33401489257812 205.78897094726562 159.6347198486328 C 206.15953063964844 153.87217712402344 196.0946807861328 143.45872497558594 192.67404174804688 141.75335693359375 C 189.04330444335938 140.33009338378906 188.7631378173828 137.87005615234375 187.8407745361328 134.11343383789062 C 181.1146240234375 130.7195281982422 182.10775756835938 124.13362884521484 183.17837524414062 118.04280853271484 C 178.87783813476562 116.08289337158203 177.9338836669922 117.89920806884766 173.42869567871094 117.97872924804688 C 178.0927276611328 128.1262969970703 173.439453125 131.40098571777344 152.862548828125 129.60208129882812 C 152.01080322265625 123.81257629394531 150.5499725341797 102.67369842529297 153.50184631347656 96.56781005859375 C 152.8697052001953 88.64402770996094 153.7052764892578 83.08723449707031 150.13034057617188 76.32544708251953 C 148.4571075439453 75.927001953125 149.06507873535156 69.32784271240234 151.61126708984375 68.59239196777344" stroke-width="0.0" fill="url(#shape_5_fill)"/>
    <path d="M 613.2393798828125 83.5254135131836 C 618.58642578125 84.1904296875 619.6232299804688 85.85629272460938 630.7733154296875 85.61823272705078 C 636.78955078125 85.96072387695312 637.3536987304688 87.6845474243164 641.2561645507812 87.8311996459961 C 642.1499633789062 87.52519989013672 669.0131225585938 91.9302978515625 673.7079467773438 98.35799407958984 C 673.8901977539062 112.8079605102539 673.7421264648438 129.11257934570312 673.8614501953125 144.28370666503906 C 668.9697265625 139.30406188964844 664.4343872070312 134.93789672851562 660.4727172851562 128.94802856445312 C 660.0862426757812 121.47924041748047 660.70947265625 115.52050018310547 653.04345703125 111.32794189453125 C 647.7666625976562 116.62378692626953 645.06103515625 142.35443115234375 642.0562133789062 143.2801513671875 C 643.9810791015625 144.99246215820312 641.3173217773438 148.4899139404297 641.7078857421875 149.44190979003906 C 639.743896484375 151.13058471679688 638.0599365234375 152.1339111328125 634.9154663085938 150.18988037109375 C 631.259521484375 146.85484313964844 629.2259521484375 141.3610382080078 630.0740356445312 140.558837890625 C 628.9203491210938 138.05474853515625 623.85791015625 137.02879333496094 620.8505859375 138.56663513183594 C 618.22119140625 140.55221557617188 619.2742309570312 142.35720825195312 618.7574462890625 144.352783203125 C 614.5064086914062 144.48489379882812 614.1488037109375 143.12110900878906 610.2379760742188 143.7609100341797 C 608.5546264648438 140.40570068359375 609.5993041992188 139.24539184570312 609.435302734375 137.36566162109375 C 606.6113891601562 132.24539184570312 604.7484741210938 126.54580688476562 597.3004760742188 127.94781494140625 C 601.4260864257812 137.12252807617188 596.1567993164062 151.43795776367188 591.9900512695312 157.5966033935547 C 590.7544555664062 163.9350128173828 589.4790649414062 164.2066192626953 586.783203125 168.0302276611328 C 583.5828247070312 167.87692260742188 579.4923095703125 166.92520141601562 577.9794921875 165.0465087890625 C 574.5880737304688 163.8082733154297 573.9334106445312 159.428955078125 572.91552734375 157.37442016601562 C 566.783203125 155.39361572265625 556.4158935546875 154.39414978027344 556.2376708984375 151.2556915283203 C 555.832275390625 152.89297485351562 553.0750732421875 154.7059783935547 552.8766479492188 157.7441864013672 C 549.929931640625 161.47679138183594 547.9514770507812 160.92471313476562 547.232666015625 159.753173828125 C 543.0814819335938 158.46707153320312 540.6490478515625 156.8458251953125 536.06787109375 157.25547790527344 C 534.8548583984375 158.32205200195312 531.2896728515625 157.7286376953125 528.5567626953125 158.0906524658203 C 526.1067504882812 159.2998809814453 526.174560546875 162.4187774658203 525.3915405273438 165.39593505859375 C 524.4183349609375 169.35678100585938 523.4133911132812 171.53501892089844 519.0352783203125 173.1187286376953 C 510.8902587890625 177.66017150878906 503.1736145019531 173.38278198242188 499.16650390625 170.1101531982422 C 494.42926025390625 147.24191284179688 509.8747863769531 126.12964630126953 517.7991943359375 123.23915100097656 C 524.7440795898438 119.99821472167969 540.2092895507812 112.56563568115234 551.859619140625 111.90912628173828 C 555.3671875 109.8565902709961 560.0199584960938 109.73170471191406 563.7381591796875 106.66838836669922 C 564.636474609375 104.54645538330078 566.8683471679688 103.61579895019531 569.7057495117188 103.9278335571289 C 575.0608520507812 101.65251922607422 578.3372802734375 97.10086059570312 583.8644409179688 94.8154296875 C 595.0576171875 88.28123474121094 603.0307006835938 81.4334716796875 613.2393798828125 83.5254135131836" stroke-width="0.0" fill="url(#shape_6_fill)"/>
    <path d="M 2.5631051063537598 116.96717834472656 C 27.289833068847656 123.2759017944336 37.98466873168945 127.86894226074219 48.35017395019531 138.8153076171875 C 71.69988250732422 159.0760955810547 50.980228424072266 223.47821044921875 55.094085693359375 245.6053466796875 C 53.148040771484375 260.28619384765625 48.71615219116211 264.67681884765625 48.541099548339844 266.3644714355469 C 37.88850021362305 273.21282958984375 4.746387958526611 269.3688659667969 1.2048431634902954 267.39495849609375 C 0.37273427844047546 217.44703674316406 -0.7969317436218262 166.3157196044922 2.5631051063537598 116.96717834472656" stroke-width="0.0" fill="url(#shape_7_fill)"/>
    <path d="M 393.4536437988281 181.75238037109375 C 409.99871826171875 174.41978454589844 425.439208984375 192.8439178466797 432.14117431640625 207.78314208984375 C 469.6488952636719 196.03598022460938 492.247802734375 210.2219696044922 491.6595153808594 235.32041931152344 C 490.9840393066406 250.47801208496094 486.1539306640625 251.47286987304688 484.8453063964844 252.3356475830078 C 485.3196105957031 254.51467895507812 479.0813903808594 265.03662109375 474.8418273925781 268.458740234375 C 469.0430603027344 272.9302978515625 453.2210388183594 266.7112731933594 451.6232604980469 269.70306396484375 C 446.99664306640625 266.27679443359375 448.202392578125 261.2042236328125 448.9801025390625 260.15814208984375 C 439.2397155761719 264.73095703125 436.506103515625 261.37835693359375 437.41265869140625 256.8943176269531 C 427.8340148925781 256.2985534667969 426.30633544921875 258.9129638671875 421.2318420410156 262.24810791015625 C 418.5391845703125 264.2608642578125 417.4992980957031 267.5934143066406 414.8323974609375 270.44189453125 C 414.1111755371094 270.91156005859375 397.88983154296875 267.82135009765625 392.5928955078125 264.1533508300781 C 391.8262023925781 265.0926818847656 389.0367736816406 263.3184509277344 386.05938720703125 263.5163879394531 C 382.1159973144531 261.9399108886719 380.8218994140625 263.1745300292969 376.66522216796875 260.9884338378906 C 375.1017761230469 256.2944641113281 376.2337951660156 252.43104553222656 372.93463134765625 249.08151245117188 C 360.0280456542969 244.06578063964844 375.43524169921875 197.1944580078125 378.67626953125 182.2356719970703 C 383.78875732421875 171.5836181640625 395.0191650390625 176.2395477294922 393.4536437988281 181.75238037109375" stroke-width="0.0" fill="url(#shape_8_fill)"/>
    <path d="M 565.6146240234375 157.51739501953125 C 568.4850463867188 159.0084228515625 569.8843994140625 163.5464324951172 569.9043579101562 166.06900024414062 C 573.8818359375 169.43930053710938 573.4181518554688 170.79286193847656 577.7156982421875 174.22325134277344 C 581.9739379882812 172.91156005859375 583.9328002929688 174.610595703125 583.6865844726562 179.5231475830078 C 575.349609375 180.4276123046875 572.0765380859375 225.61676025390625 577.2786865234375 226.9658660888672 C 577.8473510742188 229.98873901367188 581.266357421875 235.63340759277344 575.8060913085938 243.24917602539062 C 568.50048828125 239.0587615966797 566.1748657226562 237.29661560058594 558.7843017578125 247.1942138671875 C 553.9739990234375 252.80902099609375 493.621826171875 251.74322509765625 489.91912841796875 252.70640563964844 C 487.49371337890625 247.06484985351562 487.3299255371094 239.06187438964844 490.6554870605469 229.87322998046875 C 486.45001220703125 226.23329162597656 483.1911315917969 222.27532958984375 481.1835632324219 216.07496643066406 C 476.50244140625 209.81455993652344 479.1492919921875 205.78135681152344 482.65972900390625 205.94789123535156 C 479.8719787597656 205.3123016357422 480.9673156738281 198.28477478027344 485.8822021484375 198.3851318359375 C 491.8485412597656 196.19383239746094 491.8836364746094 192.52066040039062 493.1487121582031 187.9450225830078 C 492.2212829589844 174.1441650390625 494.3851318359375 173.2611083984375 494.75909423828125 170.10708618164062 C 504.039306640625 169.07833862304688 505.12200927734375 171.99989318847656 518.486083984375 169.73951721191406 C 523.9332275390625 170.75125122070312 524.5006103515625 167.97750854492188 525.6640625 165.07955932617188 C 524.8818359375 160.7085723876953 529.3997192382812 156.3870391845703 533.3956909179688 158.629150390625 C 537.6524047851562 161.82583618164062 541.40185546875 162.45068359375 542.2144775390625 163.9299774169922 C 545.28125 164.0291748046875 545.9976196289062 165.67442321777344 549.3843994140625 166.35733032226562 C 548.746826171875 165.62998962402344 551.3219604492188 157.09364318847656 555.06396484375 157.83470153808594 C 558.2238159179688 157.28781127929688 562.7041625976562 156.90005493164062 565.6146240234375 157.51739501953125" stroke-width="0.0" fill="url(#shape_9_fill)"/>
    <path d="M 561.1311645507812 156.29603576660156 C 566.74169921875 153.37147521972656 570.899658203125 159.9595489501953 570.785400390625 167.61984252929688 C 572.3013916015625 170.8643035888672 575.09033203125 171.54661560058594 579.41845703125 175.85311889648438 C 579.58349609375 178.00460815429688 578.3418579101562 187.26661682128906 577.2559204101562 191.58798217773438 C 571.2787475585938 196.80226135253906 571.9849243164062 229.98146057128906 578.0717163085938 230.9763946533203 C 576.0648193359375 231.15208435058594 575.6109008789062 236.8346710205078 572.015625 238.0570068359375 C 559.6641845703125 236.0582275390625 567.6452026367188 238.591552734375 562.72021484375 248.5327606201172 C 555.8828125 252.0912628173828 501.28656005859375 248.94981384277344 500.17913818359375 251.4815673828125 C 491.10125732421875 251.79627990722656 487.952392578125 236.966064453125 490.912353515625 230.05027770996094 C 486.6256408691406 224.9264373779297 481.9859924316406 219.27032470703125 481.47686767578125 216.23507690429688 C 475.612548828125 214.40444946289062 475.14532470703125 212.49644470214844 473.46392822265625 202.31692504882812 C 473.0153503417969 199.1122589111328 479.1480407714844 196.08303833007812 480.5909729003906 196.5382537841797 C 490.07080078125 194.9673309326172 494.44964599609375 184.260498046875 496.64300537109375 182.9905548095703 C 495.9526062011719 179.48028564453125 496.8685302734375 176.9974365234375 500.4249267578125 176.11412048339844 C 507.59765625 176.35147094726562 515.1318969726562 178.7505340576172 519.8799438476562 173.94398498535156 C 523.2272338867188 173.30718994140625 526.6155395507812 159.25210571289062 532.1304931640625 158.29086303710938 C 537.077392578125 157.51388549804688 538.7980346679688 161.0590057373047 542.710693359375 165.49307250976562 C 545.3953857421875 165.27024841308594 548.7811279296875 166.46249389648438 550.9706420898438 163.75436401367188 C 551.1880493164062 157.45193481445312 553.4531860351562 153.57225036621094 561.1311645507812 156.29603576660156" stroke-width="0.0" fill="url(#shape_10_fill)"/>
    <path d="M 449.8877868652344 107.59911346435547 C 454.0013427734375 109.13784790039062 455.2673034667969 112.56573486328125 461.4407043457031 113.20603942871094 C 463.5657958984375 116.78059387207031 469.0094299316406 117.39885711669922 472.4552917480469 119.49103546142578 C 488.3655090332031 124.53873443603516 488.8009338378906 125.25109100341797 491.7428283691406 129.82852172851562 C 493.3893737792969 131.73658752441406 493.2276916503906 134.1446533203125 496.51666259765625 136.4353485107422 C 494.9813537597656 134.60923767089844 492.3243408203125 136.86827087402344 487.5245361328125 136.18885803222656 C 484.6202697753906 134.10012817382812 482.56268310546875 135.30308532714844 479.5336608886719 134.9945068359375 C 474.7554931640625 136.2913360595703 471.42987060546875 134.76678466796875 468.25555419921875 134.35848999023438 C 465.31396484375 133.49427795410156 460.056396484375 133.50250244140625 457.679931640625 134.4008026123047 C 454.20159912109375 142.40086364746094 469.9217834472656 152.05955505371094 480.66033935546875 157.6875457763672 C 476.15911865234375 176.60476684570312 475.3347473144531 177.15757751464844 469.7131042480469 180.70359802246094 C 466.6624755859375 182.2445526123047 466.2579650878906 186.67141723632812 463.73968505859375 188.42474365234375 C 458.8192138671875 188.7119903564453 454.6111755371094 181.6144256591797 454.16204833984375 176.85841369628906 C 448.2690734863281 179.38641357421875 447.5155334472656 182.5838165283203 439.8994445800781 183.0863037109375 C 439.48077392578125 183.863037109375 435.95379638671875 195.79737854003906 434.5204162597656 198.38003540039062 C 428.54095458984375 200.8216552734375 417.4847106933594 180.59996032714844 417.73724365234375 179.71206665039062 C 416.9634094238281 179.5298614501953 401.70758056640625 175.65225219726562 400.4522705078125 168.4972381591797 C 392.810302734375 168.42950439453125 387.8316345214844 176.02816772460938 381.13714599609375 173.12783813476562 C 380.9423522949219 164.31272888183594 383.8367004394531 143.41090393066406 392.4286193847656 140.5631866455078 C 397.9192810058594 137.46826171875 399.3711853027344 129.6863250732422 402.3494873046875 123.255126953125 C 411.1539611816406 99.71742248535156 426.9850158691406 105.47418212890625 449.8877868652344 107.59911346435547" stroke-width="0.0" fill="url(#shape_11_fill)"/>
    <path d="M 602.719482421875 127.52995300292969 C 605.926025390625 130.57113647460938 605.7721557617188 143.08314514160156 608.677734375 143.59869384765625 C 612.1105346679688 144.4135284423828 612.2595825195312 147.67578125 615.2555541992188 151.60040283203125 C 618.5687255859375 149.7989044189453 618.6997680664062 141.58334350585938 620.9414672851562 140.97445678710938 C 624.0208740234375 137.99972534179688 626.44677734375 137.66783142089844 628.3649291992188 140.14366149902344 C 627.7521362304688 142.11900329589844 629.4893798828125 144.5764923095703 629.7783813476562 147.34649658203125 C 632.2147216796875 149.7902069091797 631.706298828125 151.06210327148438 636.589111328125 153.330078125 C 641.7352294921875 155.10501098632812 640.1434326171875 161.01158142089844 642.3564453125 169.80714416503906 C 637.4696655273438 183.73695373535156 639.1295166015625 194.31619262695312 639.6632690429688 206.38656616210938 C 642.2034301757812 219.0996551513672 646.3759765625 232.15049743652344 643.2572021484375 246.57362365722656 C 622.8004760742188 248.1486053466797 610.129150390625 248.4551544189453 577.4058227539062 251.47640991210938 C 573.6780395507812 243.6776580810547 573.8272705078125 230.37350463867188 572.84619140625 219.21510314941406 C 569.8257446289062 212.09388732910156 574.02197265625 168.11436462402344 584.6279296875 169.03306579589844 C 597.9575805664062 164.0361328125 596.760498046875 143.33058166503906 598.9910888671875 141.87998962402344 C 596.0076293945312 138.9144287109375 597.0484619140625 136.5262908935547 602.719482421875 127.52995300292969" stroke-width="0.0" fill="url(#shape_12_fill)"/>
    <path d="M 406.7898254394531 176.8792266845703 C 421.3552551269531 174.45262145996094 434.37506103515625 211.395263671875 429.12060546875 219.41339111328125 C 420.1177062988281 231.71929931640625 424.26654052734375 239.9373016357422 427.5292053222656 248.7252197265625 C 430.8818359375 262.5883483886719 420.7638244628906 265.646240234375 416.48284912109375 268.1809387207031 C 404.30181884765625 270.10205078125 396.52984619140625 268.8923645019531 389.9066162109375 268.8636779785156 C 385.2709045410156 264.5356140136719 382.8231201171875 264.8544006347656 380.74200439453125 263.8234558105469 C 376.9880676269531 262.4753723144531 376.96484375 260.2406921386719 375.520263671875 258.40625 C 376.3108215332031 255.92417907714844 375.71502685546875 253.32977294921875 374.4864807128906 253.5901336669922 C 374.24761962890625 252.3482666015625 370.5087890625 250.5594940185547 369.19647216796875 251.41261291503906 C 361.78900146484375 243.89793395996094 365.4221496582031 226.32704162597656 367.33123779296875 220.48155212402344 C 368.524169921875 218.29530334472656 371.46026611328125 203.04649353027344 378.2516174316406 203.5253448486328 C 377.99505615234375 200.20066833496094 379.3757019042969 183.37088012695312 384.34112548828125 180.22328186035156 C 391.63018798828125 175.7940216064453 392.7126770019531 175.7499542236328 406.7898254394531 176.8792266845703" stroke-width="0.0" fill="url(#shape_13_fill)"/>
    <path d="M 510.4730529785156 65.9202880859375 C 512.0524291992188 66.60359191894531 520.1831665039062 71.45527648925781 523.776123046875 74.26001739501953 C 530.7925415039062 79.9291000366211 534.0846557617188 80.92365264892578 536.2218017578125 90.30215454101562 C 539.46337890625 90.79240417480469 544.5411376953125 90.37574005126953 545.023681640625 91.15980529785156 C 545.5365600585938 92.74822235107422 556.0879516601562 97.0513687133789 561.0443115234375 95.42343139648438 C 563.649169921875 97.5121841430664 567.3374633789062 97.53890991210938 568.6990356445312 99.40937042236328 C 565.7627563476562 105.36511993408203 554.9336547851562 114.21539306640625 547.427001953125 110.75096893310547 C 541.7261352539062 112.12525939941406 539.38818359375 114.98793029785156 534.086669921875 117.5008544921875 C 528.0261840820312 120.42085266113281 524.411376953125 120.54180908203125 516.1111450195312 119.48751831054688 C 510.1843566894531 119.17445373535156 501.265625 125.25745391845703 498.6120910644531 124.9355239868164 C 497.52447509765625 128.8378448486328 494.1253356933594 127.79949951171875 489.3899230957031 128.05645751953125 C 489.3375549316406 124.81014251708984 468.7752990722656 119.12135314941406 468.049560546875 118.14214324951172 C 463.29632568359375 117.7567138671875 463.0908508300781 116.4600601196289 460.6951904296875 114.94428253173828 C 464.5226135253906 110.6030044555664 467.2334899902344 104.94942474365234 473.6514892578125 99.29326629638672 C 476.6167907714844 88.19756317138672 474.6763916015625 84.8731918334961 474.1751403808594 82.10987854003906 C 474.5867919921875 70.933837890625 475.3419494628906 70.38631439208984 478.50115966796875 66.48701477050781 C 479.09014892578125 64.27368927001953 482.7493591308594 64.30460357666016 484.87835693359375 63.78614044189453 C 492.6737060546875 63.813514709472656 501.0592956542969 62.7864990234375 510.4730529785156 65.9202880859375" stroke-width="0.0" fill="url(#shape_14_fill)"/>
    <path d="M 532.290283203125 159.61761474609375 C 543.7780151367188 162.91896057128906 544.0346069335938 163.89895629882812 546.9689331054688 165.77273559570312 C 547.5137939453125 168.05259704589844 548.2542114257812 170.0997314453125 542.8558349609375 181.2041473388672 C 541.4168090820312 189.08010864257812 538.0030517578125 231.71128845214844 537.1659545898438 234.43955993652344 C 540.5442504882812 236.87083435058594 540.7984008789062 249.91709899902344 513.7947387695312 252.1073760986328 C 502.8812255859375 250.9875030517578 483.8376770019531 245.15249633789062 487.47222900390625 229.9804229736328 C 477.2252197265625 218.77078247070312 478.75494384765625 205.6539306640625 486.0615234375 199.6320037841797 C 487.1370849609375 197.20211791992188 488.9837951660156 197.9304962158203 489.8690185546875 197.06692504882812 C 486.8207702636719 188.78053283691406 488.5744934082031 178.9972686767578 490.05267333984375 176.1485595703125 C 492.2678527832031 174.6276092529297 494.8760070800781 172.58348083496094 499.87420654296875 174.01947021484375 C 506.9477233886719 176.8126220703125 512.097900390625 180.79820251464844 522.6572265625 172.56549072265625 C 525.5447998046875 170.95631408691406 525.53515625 167.2992706298828 526.9552612304688 165.0949249267578 C 527.5838012695312 161.67237854003906 530.8886108398438 160.49876403808594 532.290283203125 159.61761474609375" stroke-width="0.0" fill="url(#shape_15_fill)"/>
    <path d="M 651.7608642578125 111.49014282226562 C 655.2103271484375 109.83873748779297 663.6893920898438 121.54064178466797 662.1690673828125 126.91734313964844 C 665.4703369140625 133.3289337158203 666.0991821289062 139.50003051757812 673.3829956054688 147.56915283203125 C 676.0469360351562 179.49034118652344 674.0189819335938 212.26754760742188 673.9203491210938 251.91505432128906 C 673.0883178710938 249.45648193359375 648.271728515625 256.83502197265625 639.5641479492188 248.18896484375 C 635.5509033203125 242.85533142089844 638.3355712890625 121.1413803100586 651.7608642578125 111.49014282226562" stroke-width="0.0" fill="url(#shape_16_fill)"/>
    <path d="M 600.3366088867188 129.8490447998047 C 603.37646484375 127.54438018798828 608.2225952148438 131.54136657714844 606.9212646484375 133.94505310058594 C 608.3426513671875 135.0666961669922 608.3510131835938 139.1851043701172 609.50927734375 144.32266235351562 C 623.8270874023438 141.30479431152344 623.3549194335938 230.38612365722656 618.5162353515625 246.5596160888672 C 595.88623046875 253.61460876464844 578.1580810546875 246.7981719970703 580.031982421875 235.72027587890625 C 564.9696655273438 227.56263732910156 596.0219116210938 152.914306640625 600.3366088867188 129.8490447998047" stroke-width="0.0" fill="url(#shape_17_fill)"/>
    <path d="M 321.308349609375 186.3466796875 C 322.796875 185.90328979492188 324.0254211425781 188.7934112548828 325.3007507324219 191.54417419433594 C 331.98321533203125 190.36416625976562 336.70501708984375 189.47225952148438 339.1943359375 191.79359436035156 C 341.82733154296875 196.9009552001953 347.17620849609375 195.98068237304688 353.698486328125 195.73910522460938 C 357.00775146484375 195.06011962890625 357.9424133300781 198.35736083984375 358.7276611328125 200.7938232421875 C 359.8334655761719 203.73374938964844 361.976806640625 203.83018493652344 362.9501037597656 206.54531860351562 C 367.25189208984375 206.95767211914062 368.4779357910156 208.20835876464844 368.2821960449219 211.8225860595703 C 370.79248046875 218.70655822753906 370.8016662597656 223.48196411132812 366.5432434082031 225.73629760742188 C 366.8520812988281 231.49679565429688 365.40716552734375 235.23838806152344 367.9508972167969 244.08335876464844 C 367.7464904785156 248.57562255859375 365.0114440917969 255.7509307861328 356.5349426269531 255.0688934326172 C 353.22381591796875 255.37954711914062 331.0334167480469 255.01492309570312 322.9559326171875 254.99952697753906 C 313.4827880859375 255.78652954101562 312.25714111328125 253.37686157226562 310.14508056640625 240.66958618164062 C 305.63104248046875 230.12313842773438 320.16156005859375 193.04600524902344 321.308349609375 186.3466796875" stroke-width="0.0" fill="url(#shape_18_fill)"/>
    <path d="M 479.16412353515625 216.9538116455078 C 490.9451599121094 244.9389190673828 498.33477783203125 251.96234130859375 481.10748291015625 270.5616760253906 C 470.39947509765625 278.3692321777344 444.01220703125 261.3503112792969 442.1435241699219 261.6570129394531 C 438.6355895996094 260.63751220703125 437.1709899902344 258.1601257324219 432.587158203125 257.9600830078125 C 429.6561584472656 258.1819763183594 427.64019775390625 257.6734313964844 426.83966064453125 254.2912139892578 C 423.3188171386719 243.64418029785156 421.4637145996094 234.75479125976562 422.51654052734375 228.54019165039062 C 424.4067687988281 225.07980346679688 420.98779296875 228.72479248046875 421.3265380859375 225.5988311767578 C 427.6933898925781 219.44979858398438 429.6753234863281 218.77728271484375 429.60382080078125 215.73599243164062 C 438.68865966796875 198.92575073242188 466.5883483886719 203.18017578125 479.16412353515625 216.9538116455078" stroke-width="0.0" fill="url(#shape_19_fill)"/>
    <path d="M 674.1376342773438 -2.4350497722625732 C 675.0325317382812 32.880897521972656 674.5791015625 64.76651000976562 674.3479614257812 97.23502349853516 C 669.3097534179688 96.392578125 651.0546264648438 86.15396881103516 642.7863159179688 90.64979553222656 C 638.6809692382812 89.5961685180664 638.243408203125 85.79537200927734 637.86181640625 84.64407348632812 C 627.5887451171875 85.27620697021484 619.0420532226562 91.533447265625 608.4221801757812 85.78075408935547 C 610.0260009765625 77.54299926757812 614.6845703125 75.8530044555664 614.3719482421875 71.37123107910156 C 624.1970825195312 70.72869110107422 649.8185424804688 26.18426513671875 648.4573364257812 21.92378044128418 C 656.1978149414062 15.691442489624023 656.888427734375 4.826246738433838 667.7800903320312 4.022023677825928 C 669.77880859375 2.6511852741241455 670.2406616210938 1.2138844728469849 674.1376342773438 -2.4350497722625732" stroke-width="0.0" fill="url(#shape_20_fill)"/>
    <path d="M 562.0025634765625 155.98477172851562 C 569.6710815429688 156.80194091796875 569.5179443359375 164.8934326171875 573.3984375 165.444091796875 C 584.8593139648438 168.2183837890625 575.6685180664062 231.5771942138672 577.615234375 241.1862030029297 C 573.5525512695312 243.0155029296875 569.2766723632812 245.59393310546875 567.8598022460938 248.75534057617188 C 558.8025512695312 250.94915771484375 543.0016479492188 252.2050018310547 540.091552734375 246.34425354003906 C 544.4793090820312 244.71234130859375 540.4187622070312 163.25711059570312 555.0791015625 157.77980041503906 C 556.0643920898438 153.32061767578125 558.4969482421875 153.37503051757812 562.0025634765625 155.98477172851562" stroke-width="0.0" fill="url(#shape_21_fill)"/>
    <path d="M 215.9150848388672 212.6704864501953 C 227.16818237304688 216.84039306640625 227.6365966796875 249.09799194335938 218.9388885498047 255.25523376464844 C 211.06809997558594 262.7496032714844 208.479248046875 264.09637451171875 205.97828674316406 272.6517028808594 C 205.45980834960938 275.7342224121094 206.63455200195312 276.3878479003906 207.05972290039062 280.0939025878906 C 207.09841918945312 283.27288818359375 204.28660583496094 285.1916809082031 200.3424530029297 284.7793884277344 C 200.95361328125 283.3652038574219 194.81089782714844 268.1819152832031 188.1510009765625 264.3699035644531 C 186.42127990722656 261.1548156738281 184.1244354248047 261.823974609375 181.5177459716797 261.81622314453125 C 180.70249938964844 260.6922607421875 179.3787841796875 260.65277099609375 178.1284942626953 255.4959259033203 C 181.1443328857422 248.58616638183594 169.33619689941406 243.07196044921875 170.87542724609375 237.37380981445312 C 176.0145721435547 216.0731964111328 180.26849365234375 215.08734130859375 186.31796264648438 220.67251586914062 C 194.46371459960938 218.59243774414062 193.8457489013672 216.05735778808594 196.2199249267578 213.875732421875 C 193.11192321777344 204.73243713378906 192.9567413330078 202.8402557373047 200.2891082763672 201.62161254882812 C 212.37315368652344 201.0712127685547 213.1546630859375 202.98068237304688 215.9150848388672 212.6704864501953" stroke-width="0.0" fill="url(#shape_22_fill)"/>
    <path d="M 111.51814270019531 426.4212341308594 C 112.72007751464844 429.2746276855469 110.99249267578125 431.1821594238281 110.67418670654297 431.7023010253906 C 106.54991912841797 435.64013671875 102.2848892211914 436.22344970703125 91.8642349243164 433.0025939941406 C 89.60576629638672 436.2989501953125 96.01551055908203 446.659423828125 91.23994445800781 451.8183898925781 C 78.66547393798828 444.99859619140625 46.93536376953125 447.9252014160156 24.93437957763672 449.64697265625 C 13.996175765991211 446.2867431640625 13.87502670288086 439.786376953125 17.630403518676758 436.5718688964844 C 34.52361297607422 428.3074645996094 50.978885650634766 426.1119079589844 70.42219543457031 425.9593200683594 C 75.81394958496094 425.59930419921875 107.68098449707031 417.6811828613281 111.51814270019531 426.4212341308594" stroke-width="0.0" fill="url(#shape_23_fill)"/>
    <path d="M 194.61058044433594 123.0760269165039 C 199.40159606933594 124.9779052734375 209.86581420898438 144.34600830078125 214.0525665283203 144.80224609375 C 215.45909118652344 148.27024841308594 218.4537353515625 149.7703857421875 219.73538208007812 153.63853454589844 C 227.2053985595703 157.4447479248047 248.85824584960938 180.2622528076172 244.47607421875 199.6401824951172 C 239.0634307861328 199.58290100097656 235.41156005859375 187.3998565673828 234.59156799316406 182.32070922851562 C 233.2512664794922 184.61549377441406 231.59527587890625 193.97622680664062 230.39244079589844 197.5976104736328 C 226.02053833007812 199.4891815185547 225.74388122558594 202.2526397705078 220.75653076171875 208.39109802246094 C 215.15780639648438 207.6312255859375 213.698486328125 200.2079315185547 214.5326690673828 195.9272918701172 C 212.70053100585938 189.54568481445312 212.65179443359375 182.8711700439453 207.1321563720703 178.30406188964844 C 204.0341339111328 174.02700805664062 205.14964294433594 173.03945922851562 205.4832000732422 167.57070922851562 C 203.63796997070312 150.8751678466797 199.9951934814453 148.81675720214844 193.239990234375 143.68128967285156 C 188.717529296875 142.06204223632812 190.9677734375 128.2575225830078 194.61058044433594 123.0760269165039" stroke-width="0.0" fill="url(#shape_24_fill)"/>
    <path d="M 595.3121337890625 412.0391845703125 C 597.6420288085938 413.8127746582031 625.3541870117188 410.7474365234375 626.9806518554688 417.6863708496094 C 628.5263061523438 420.895751953125 626.4428100585938 424.9682922363281 628.4010620117188 427.0740051269531 C 629.8306884765625 429.4579772949219 633.1170654296875 429.6169738769531 635.3047485351562 437.51177978515625 C 616.0473022460938 447.87139892578125 577.7367553710938 441.0032653808594 576.2998046875 432.6749572753906 C 569.8108520507812 424.0029296875 573.4159545898438 417.6604919433594 574.7296142578125 414.0360412597656 C 580.2240600585938 409.4512634277344 587.3389282226562 411.3713684082031 595.3121337890625 412.0391845703125" stroke-width="0.0" fill="url(#shape_25_fill)"/>
    <path d="M 142.91969299316406 66.693359375 C 144.08419799804688 68.92768859863281 149.1692352294922 68.43081665039062 149.6293182373047 69.1402359008789 C 148.90879821777344 70.90223693847656 150.45753479003906 71.82728576660156 149.77674865722656 73.86095428466797 C 151.00331115722656 74.45569610595703 150.46441650390625 78.1340103149414 151.3723602294922 82.61534118652344 C 152.21678161621094 89.791748046875 152.20863342285156 98.1380844116211 153.9692840576172 104.09127044677734 C 153.53384399414062 107.6187744140625 155.1095428466797 108.52195739746094 154.67726135253906 111.73774719238281 C 158.2406463623047 123.32391357421875 155.34100341796875 133.50779724121094 150.2829132080078 133.57725524902344 C 142.78533935546875 127.22317504882812 136.379150390625 121.21595001220703 125.54293060302734 117.35480499267578 C 122.50089263916016 114.32585144042969 124.61814880371094 109.72032165527344 126.91463470458984 107.1507568359375 C 128.83567810058594 106.85523223876953 128.8789520263672 105.2834701538086 132.66342163085938 104.686767578125 C 139.04664611816406 96.5435562133789 135.17312622070312 92.94905090332031 133.3712615966797 90.12285614013672 C 134.2102508544922 88.89573669433594 139.26646423339844 87.07040405273438 140.04080200195312 85.3089599609375 C 138.14767456054688 84.75093078613281 138.86138916015625 77.64738464355469 139.49867248535156 77.45734405517578 C 143.51918029785156 76.58765411376953 142.65411376953125 70.26832580566406 142.91969299316406 66.693359375" stroke-width="0.0" fill="url(#shape_26_fill)"/>
    <path d="M 144.42103576660156 67.69294738769531 C 149.24888610839844 68.17436218261719 150.10543823242188 70.55763244628906 148.1895294189453 76.25980377197266 C 151.835693359375 76.86222839355469 151.4337921142578 79.72532653808594 153.8440399169922 82.39938354492188 C 150.92691040039062 88.98133850097656 152.72787475585938 94.03893280029297 152.9127655029297 104.07896423339844 C 154.08551025390625 105.3283920288086 153.56747436523438 109.08287811279297 154.94639587402344 113.23046112060547 C 153.95318603515625 118.24564361572266 157.22145080566406 122.50147247314453 155.17010498046875 126.07184600830078 C 152.6798095703125 132.052001953125 151.3616485595703 133.17547607421875 147.43344116210938 133.3973846435547 C 138.5911407470703 135.22869873046875 126.62274932861328 122.9552001953125 125.18486785888672 122.00357055664062 C 122.76241302490234 120.45343780517578 122.09754943847656 115.50202178955078 128.54000854492188 110.54668426513672 C 124.08087921142578 108.75830078125 124.20442962646484 106.13582611083984 131.86233520507812 105.85694885253906 C 135.85549926757812 105.35592651367188 134.78819274902344 92.10906982421875 134.84901428222656 89.53001403808594 C 139.36749267578125 87.08184051513672 138.3367156982422 84.62374877929688 138.30657958984375 81.68659210205078 C 139.0779266357422 77.49537658691406 140.36233520507812 76.77464294433594 141.67901611328125 76.61566162109375 C 145.358642578125 72.32151794433594 142.99000549316406 69.24454498291016 144.42103576660156 67.69294738769531" stroke-width="0.0" fill="url(#shape_27_fill)"/>
    <path d="M -0.31845375895500183 -0.2703857421875 C 4.69693660736084 0.38019704818725586 9.64330768585205 -0.5242279767990112 17.5285587310791 -0.4861139953136444 C 21.25299835205078 0.1594790518283844 20.38956642150879 9.15969181060791 33.69908142089844 16.587207794189453 C 30.69601058959961 25.08635139465332 27.737741470336914 25.83160400390625 27.046188354492188 26.38642692565918 C 35.00654220581055 29.658544540405273 41.64404296875 30.533733367919922 43.41178894042969 38.73796081542969 C 36.18108367919922 40.22359085083008 32.95616912841797 40.17454147338867 29.487998962402344 37.3276252746582 C 24.423986434936523 33.19101333618164 15.89971923828125 34.003746032714844 10.619165420532227 33.46970748901367 C 9.155607223510742 36.961448669433594 12.70850658416748 40.183067321777344 12.959568977355957 41.55900955200195 C 13.924308776855469 42.055850982666016 14.250205993652344 45.22100067138672 18.07383155822754 47.939571380615234 C 20.05731201171875 51.0742073059082 18.744197845458984 52.3101806640625 19.841440200805664 57.03276443481445 C 20.409137725830078 62.53047561645508 12.688883781433105 63.562591552734375 8.900758743286133 61.17770767211914 C 5.496560096740723 60.8835334777832 3.5333974361419678 59.141937255859375 0.32519400119781494 59.43410110473633 C -0.31762367486953735 39.7785530090332 -0.3248574137687683 19.628616333007812 -0.31845375895500183 -0.2703857421875" stroke-width="0.0" fill="url(#shape_28_fill)"/>
    <path d="M 298.5953369140625 196.93157958984375 C 297.4282531738281 199.31385803222656 299.2421875 202.46780395507812 301.2359313964844 208.27255249023438 C 300.37298583984375 210.53981018066406 319.682861328125 231.8734130859375 314.225830078125 253.34596252441406 C 311.9777526855469 253.26272583007812 311.2625732421875 255.93386840820312 308.2792053222656 257.3784484863281 C 300.72222900390625 258.85302734375 295.6319580078125 258.64239501953125 281.916015625 257.3702697753906 C 281.2334289550781 231.50662231445312 284.83111572265625 214.66368103027344 298.5953369140625 196.93157958984375" stroke-width="0.0" fill="url(#shape_29_fill)"/>
    <path d="M -0.3891270160675049 0.1269599348306656 C 4.438767433166504 0.45110517740249634 9.544121742248535 -0.41498929262161255 14.514861106872559 0.1406537890434265 C 15.690971374511719 0.49763453006744385 16.128023147583008 5.559745788574219 16.11294174194336 8.069589614868164 C 18.978046417236328 10.760727882385254 22.199928283691406 18.748844146728516 26.798219680786133 20.897830963134766 C 27.142126083374023 22.448881149291992 24.817163467407227 26.91636848449707 24.155237197875977 31.21258544921875 C 21.101886749267578 33.046142578125 16.12851333618164 33.120792388916016 7.817076206207275 34.338504791259766 C 9.201337814331055 35.80026626586914 8.833622932434082 38.555076599121094 11.291379928588867 40.40609359741211 C 11.052828788757324 44.923221588134766 9.636334419250488 50.96662902832031 12.768489837646484 53.35408401489258 C 18.04319190979004 51.6467399597168 19.165822982788086 53.2529182434082 18.529922485351562 57.73719787597656 C 12.48257064819336 60.00851821899414 7.98849630355835 61.422691345214844 0.22542895376682281 62.0463981628418 C -0.4136117100715637 39.95398712158203 -0.35429978370666504 19.753379821777344 -0.3891270160675049 0.1269599348306656" stroke-width="0.0" fill="url(#shape_30_fill)"/>
    <path d="M 546.0336303710938 71.50772857666016 C 547.95458984375 72.62094116210938 580.0269165039062 86.33414459228516 583.55908203125 88.6137924194336 C 580.42138671875 91.7859878540039 577.7630615234375 92.09413146972656 577.2537841796875 98.23407745361328 C 573.241455078125 100.74148559570312 572.1287841796875 100.01905059814453 568.0807495117188 99.05115509033203 C 566.1611328125 96.83336639404297 543.7217407226562 94.4372329711914 538.5177001953125 88.51188659667969 C 538.5810546875 85.48500061035156 537.4762573242188 83.3583755493164 535.5744018554688 82.60917663574219 C 534.906494140625 79.320556640625 530.3694458007812 79.1638412475586 527.0020751953125 78.1056900024414 C 525.4271240234375 75.77511596679688 527.7803955078125 70.82552337646484 532.0496215820312 69.4786605834961 C 536.4627075195312 68.09722900390625 541.5170288085938 68.79421997070312 546.0336303710938 71.50772857666016" stroke-width="0.0" fill="url(#shape_31_fill)"/>
    <path d="M 448.30242919921875 263.9926452636719 C 450.6748046875 265.2607421875 451.3303527832031 266.6956481933594 456.02288818359375 267.645751953125 C 460.54443359375 267.64471435546875 465.37420654296875 270.317138671875 469.9053039550781 273.2917175292969 C 470.4372863769531 275.63043212890625 471.82318115234375 276.8941345214844 471.6767272949219 280.7408752441406 C 448.95648193359375 289.64715576171875 426.6002502441406 287.1220703125 415.7499084472656 285.126220703125 C 413.3664245605469 273.9175720214844 415.29437255859375 272.355712890625 415.72979736328125 268.2661437988281 C 418.1906433105469 267.2078552246094 417.7780456542969 264.8067626953125 419.3323669433594 263.0572814941406 C 428.61346435546875 253.632080078125 438.750244140625 258.8111877441406 448.30242919921875 263.9926452636719" stroke-width="0.0" fill="url(#shape_32_fill)"/>
    <path d="M 270.3675842285156 191.1334228515625 C 280.26617431640625 191.36990356445312 284.6454162597656 243.58169555664062 279.7977600097656 244.38760375976562 C 279.4620361328125 247.18997192382812 273.7989501953125 246.69015502929688 269.9537048339844 248.29345703125 C 266.4783630371094 245.8031768798828 266.8219299316406 241.93487548828125 262.8714294433594 240.6383056640625 C 256.1318054199219 210.4759979248047 261.14404296875 204.51646423339844 270.3675842285156 191.1334228515625" stroke-width="0.0" fill="url(#shape_33_fill)"/>
    <path d="M 254.436279296875 425.32403564453125 C 256.8438415527344 426.9632568359375 264.6373291015625 431.101806640625 264.38775634765625 439.33917236328125 C 261.2589111328125 442.12158203125 260.459228515625 444.564208984375 252.4659423828125 444.1639404296875 C 247.11459350585938 444.18194580078125 221.05242919921875 446.5804138183594 212.60850524902344 444.4891052246094 C 213.02517700195312 436.99578857421875 213.959716796875 436.2222900390625 215.8946533203125 434.42510986328125 C 216.10403442382812 433.3654479980469 224.9916229248047 433.29669189453125 226.5827178955078 430.0938720703125 C 230.99154663085938 424.9468688964844 243.4259490966797 425.0923156738281 254.436279296875 425.32403564453125" stroke-width="0.0" fill="url(#shape_34_fill)"/>
    <path d="M 105.73613739013672 69.9374771118164 C 109.46125030517578 70.06653594970703 112.43492889404297 78.24763488769531 111.43898010253906 81.62135314941406 C 116.5204849243164 84.12527465820312 117.13125610351562 110.28153228759766 117.50205993652344 110.92583465576172 C 117.01863098144531 113.01537322998047 112.13675689697266 114.45328521728516 109.32420349121094 119.37153625488281 C 105.46479797363281 116.69756317138672 96.70846557617188 118.80989074707031 92.324462890625 112.9495849609375 C 91.34381866455078 85.54353332519531 103.28327178955078 84.10646057128906 105.73613739013672 69.9374771118164" stroke-width="0.0" fill="url(#shape_35_fill)"/>
    <path d="M 451.6644287109375 178.20843505859375 C 453.61016845703125 176.17916870117188 456.6151123046875 177.21237182617188 456.8433837890625 179.7604217529297 C 457.4410705566406 179.918701171875 457.5506591796875 184.23348999023438 458.99822998046875 185.6881561279297 C 457.77911376953125 189.62669372558594 461.1221008300781 193.71249389648438 460.19378662109375 206.5955810546875 C 459.761474609375 209.097412109375 453.13818359375 209.12252807617188 448.099609375 206.80764770507812 C 441.20428466796875 207.4613494873047 440.3315734863281 209.172119140625 433.31689453125 210.8654022216797 C 433.0661315917969 210.26150512695312 437.8981018066406 189.6287078857422 439.6923522949219 184.56752014160156 C 441.1055603027344 181.78489685058594 445.15185546875 182.22103881835938 446.5489807128906 180.48167419433594 C 447.7828674316406 178.95571899414062 449.9853820800781 179.5396270751953 451.6644287109375 178.20843505859375" stroke-width="0.0" fill="url(#shape_36_fill)"/>
    <path d="M 557.20947265625 84.87332916259766 C 564.2183227539062 80.27969360351562 580.4467163085938 82.00687408447266 578.8576049804688 84.74205780029297 C 582.1392822265625 83.21311950683594 586.6497192382812 84.77666473388672 586.9071655273438 87.63356018066406 C 588.1740112304688 92.54869079589844 581.7828979492188 99.62551879882812 574.3929443359375 100.02873229980469 C 573.7947387695312 99.33856201171875 549.1636962890625 96.2302017211914 540.4505004882812 85.86573028564453 C 538.7071533203125 85.22071075439453 537.7626342773438 81.88725280761719 535.9425048828125 79.45088195800781 C 545.2360229492188 75.7130355834961 550.955322265625 77.79936981201172 557.20947265625 84.87332916259766" stroke-width="0.0" fill="url(#shape_37_fill)"/>
    <path d="M 251.48948669433594 208.47848510742188 C 262.21087646484375 210.5689697265625 259.3285827636719 244.9724884033203 259.2567443847656 247.5261688232422 C 256.0009460449219 254.1179962158203 250.0382843017578 253.4075927734375 246.2578582763672 255.78024291992188 C 236.04385375976562 240.73826599121094 242.904541015625 211.67410278320312 251.48948669433594 208.47848510742188" stroke-width="0.0" fill="url(#shape_38_fill)"/>
    <path d="M 443.25689697265625 263.2305603027344 C 445.92877197265625 263.49969482421875 449.08441162109375 266.6077880859375 447.6395568847656 270.0836181640625 C 443.9840087890625 270.3256530761719 442.5648193359375 276.9127502441406 441.0146179199219 279.4110107421875 C 440.33135986328125 285.3026428222656 418.1031494140625 285.7420959472656 417.1400146484375 279.0396423339844 C 414.704345703125 276.966796875 413.2443542480469 273.749755859375 415.3101501464844 271.6625061035156 C 414.626220703125 269.8368835449219 418.3539123535156 261.29205322265625 425.39501953125 260.5018005371094 C 429.5166931152344 256.3257751464844 436.2555847167969 258.5426025390625 443.25689697265625 263.2305603027344" stroke-width="0.0" fill="url(#shape_39_fill)"/>
    <path d="M 407.7418212890625 409.7669982910156 C 408.6882629394531 409.8799133300781 416.7700500488281 419.0184631347656 413.4635925292969 424.07049560546875 C 398.1571044921875 434.091552734375 381.2576904296875 421.9799499511719 377.3656921386719 420.2427978515625 C 369.93035888671875 417.6241455078125 372.06353759765625 416.9343566894531 373.2777099609375 411.8055419921875 C 378.2708435058594 403.11859130859375 398.4500732421875 402.75006103515625 407.7418212890625 409.7669982910156" stroke-width="0.0" fill="url(#shape_40_fill)"/>
    <path d="M 66.4604721069336 427.5997009277344 C 67.53761291503906 429.1999816894531 65.32408142089844 435.8571472167969 59.85691452026367 436.2464904785156 C 58.529781341552734 437.20904541015625 41.33574676513672 437.4071350097656 31.937402725219727 443.178466796875 C 28.62188720703125 443.2812805175781 24.210460662841797 447.03826904296875 17.074586868286133 443.63507080078125 C 16.523588180541992 440.64093017578125 17.625335693359375 439.202880859375 16.76245880126953 437.6015625 C 33.652069091796875 428.4756164550781 56.76041030883789 427.04718017578125 66.4604721069336 427.5997009277344" stroke-width="0.0" fill="url(#shape_41_fill)"/>
    <path d="M 278.5733947753906 383.5270080566406 C 282.7034606933594 383.35382080078125 295.1263122558594 383.87261962890625 297.43365478515625 388.05255126953125 C 297.06451416015625 395.3458557128906 299.7167663574219 401.0335693359375 294.28924560546875 403.9211120605469 C 291.7331848144531 398.2715759277344 264.3450927734375 402.9830322265625 257.57305908203125 403.4837646484375 C 253.51055908203125 402.8297119140625 252.57769775390625 391.1822204589844 256.0437927246094 385.8621520996094 C 263.5021057128906 383.5642395019531 269.4066162109375 383.89678955078125 278.5733947753906 383.5270080566406" stroke-width="0.0" fill="url(#shape_42_fill)"/>
    <path d="M 218.7718963623047 220.98117065429688 C 224.16238403320312 219.74581909179688 230.4349365234375 219.85414123535156 235.84075927734375 221.3297119140625 C 238.51951599121094 224.65316772460938 244.11572265625 242.44003295898438 241.74029541015625 257.1802062988281 C 238.71470642089844 262.4632263183594 231.30923461914062 262.5599060058594 219.63690185546875 262.425537109375 C 214.9664306640625 260.496826171875 214.57276916503906 259.58709716796875 217.7100372314453 248.05133056640625 C 219.5416259765625 246.47789001464844 217.88778686523438 226.4130096435547 218.7718963623047 220.98117065429688" stroke-width="0.0" fill="url(#shape_43_fill)"/>
    <path d="M 483.99615478515625 395.4139709472656 C 486.8282165527344 399.7978210449219 485.8547668457031 400.9895324707031 483.5547790527344 401.25347900390625 C 474.5068664550781 406.7703857421875 451.01959228515625 406.7797546386719 450.38397216796875 407.5823059082031 C 448.0402526855469 404.4205322265625 451.5943908691406 396.1761779785156 453.61053466796875 396.47186279296875 C 462.6961975097656 393.419677734375 473.8188781738281 393.1017761230469 483.99615478515625 395.4139709472656" stroke-width="0.0" fill="url(#shape_44_fill)"/>
    <path d="M 45.999168395996094 406.5782165527344 C 45.453311920166016 409.09033203125 36.000423431396484 412.1563720703125 35.11592102050781 414.42816162109375 C 32.87141418457031 414.74114990234375 32.546180725097656 416.1988830566406 29.694387435913086 416.6482238769531 C 28.11064910888672 418.0727233886719 25.238386154174805 418.13330078125 21.749370574951172 420.9894104003906 C 16.825307846069336 420.1918640136719 1.233480453491211 417.1030578613281 -1.183050274848938 420.6414794921875 C 0.9319779872894287 419.5965576171875 -0.27137377858161926 410.50372314453125 1.3789459466934204 409.8442077636719 C 8.249156951904297 408.6878662109375 45.05241012573242 407.69488525390625 45.999168395996094 406.5782165527344" stroke-width="0.0" fill="url(#shape_45_fill)"/>
    <path d="M 451.9607849121094 175.2733917236328 C 456.5010986328125 174.67857360839844 464.94281005859375 197.74610900878906 464.6913146972656 202.3578338623047 C 462.57989501953125 209.6619110107422 451.69293212890625 209.6396484375 449.4754943847656 206.78062438964844 C 448.3283386230469 203.24923706054688 449.0522155761719 198.3125762939453 448.8459777832031 195.3010711669922 C 447.94140625 194.54446411132812 447.6102600097656 192.1931610107422 448.4986877441406 187.7355194091797 C 450.5672912597656 186.71507263183594 449.8213806152344 183.3094024658203 451.9607849121094 175.2733917236328" stroke-width="0.0" fill="url(#shape_46_fill)"/>
    <path d="M 375.2708435058594 185.06307983398438 C 379.0816955566406 190.476806640625 379.2815856933594 204.78273010253906 372.6387939453125 206.5264892578125 C 365.8646545410156 206.82737731933594 364.7727355957031 204.85296630859375 361.7267150878906 203.54470825195312 C 353.1717834472656 205.60655212402344 351.2929992675781 201.453125 354.5221862792969 188.36825561523438 C 356.640869140625 184.95223999023438 358.3647766113281 184.4191131591797 366.6600036621094 185.33743286132812 C 368.8083801269531 184.18695068359375 373.6286926269531 182.90228271484375 375.2708435058594 185.06307983398438" stroke-width="0.0" fill="url(#shape_47_fill)"/>
    <path d="M 471.40716552734375 266.7453918457031 C 473.8495788574219 267.3428649902344 477.83587646484375 268.4479064941406 476.74761962890625 283.7821350097656 C 465.0043029785156 287.4750671386719 456.05657958984375 285.1993713378906 444.2340393066406 284.80413818359375 C 439.3075256347656 282.2030029296875 439.9957275390625 276.9557189941406 441.2345275878906 276.4945983886719 C 447.0876770019531 266.4059753417969 455.5670166015625 266.7510070800781 471.40716552734375 266.7453918457031" stroke-width="0.0" fill="url(#shape_48_fill)"/>
    <path d="M 176.65264892578125 118.65713500976562 C 179.18125915527344 116.29579162597656 181.957275390625 116.8890380859375 183.36680603027344 117.4561767578125 C 184.69615173339844 120.20926666259766 183.85342407226562 122.34568786621094 185.0819854736328 125.8143081665039 C 181.2516326904297 131.10397338867188 187.0768585205078 136.41490173339844 187.11106872558594 144.7393035888672 C 183.82421875 150.0259246826172 174.6176300048828 147.5831756591797 170.07102966308594 148.4609375 C 170.63401794433594 126.25672912597656 169.44863891601562 122.63261413574219 176.65264892578125 118.65713500976562" stroke-width="0.0" fill="url(#shape_49_fill)"/>
    <path d="M 334.157958984375 427.4098205566406 C 337.74163818359375 428.26904296875 340.81097412109375 429.3425598144531 342.8526306152344 432.0647888183594 C 346.359130859375 435.6021423339844 345.16217041015625 437.2310485839844 342.485595703125 437.611083984375 C 342.8821716308594 445.04827880859375 324.4932556152344 447.7635498046875 322.8392639160156 440.63232421875 C 317.0436096191406 439.2737121582031 315.79034423828125 433.9751892089844 315.10467529296875 430.2999572753906 C 321.5386657714844 425.24322509765625 328.38311767578125 425.2150573730469 334.157958984375 427.4098205566406" stroke-width="0.0" fill="url(#shape_50_fill)"/>
    <path d="M 297.0614318847656 390.9123840332031 C 298.1368408203125 394.1282043457031 295.6671142578125 399.0191650390625 288.6533508300781 398.9693298339844 C 283.8860778808594 397.27716064453125 281.5177001953125 398.6436767578125 271.3988342285156 402.70068359375 C 271.0341796875 401.62115478515625 269.5042724609375 398.9992370605469 270.9550476074219 397.4800109863281 C 269.8809509277344 395.49273681640625 272.89837646484375 387.9853210449219 277.81036376953125 388.5798645019531 C 283.1587219238281 386.7225646972656 288.43316650390625 388.62261962890625 297.0614318847656 390.9123840332031" stroke-width="0.0" fill="url(#shape_51_fill)"/>
    <path d="M 269.3088073730469 187.4369659423828 C 276.9082946777344 194.6978302001953 278.8723449707031 206.50355529785156 280.3517761230469 216.1767120361328 C 271.35986328125 210.6644287109375 268.5049133300781 207.87342834472656 260.6748352050781 215.57565307617188 C 258.9623107910156 206.03062438964844 264.2107849121094 197.60662841796875 265.5528869628906 194.95570373535156 C 269.4168701171875 194.23306274414062 268.9924621582031 191.7013702392578 269.3088073730469 187.4369659423828" stroke-width="0.0" fill="url(#shape_52_fill)"/>
    <path d="M 218.1847381591797 409.6099548339844 C 215.98968505859375 411.0489196777344 215.46737670898438 413.1413879394531 214.28607177734375 414.1345520019531 C 213.9390106201172 419.10333251953125 188.83343505859375 422.5009460449219 187.48179626464844 415.67095947265625 C 186.27337646484375 408.1543884277344 205.681396484375 401.50787353515625 218.1847381591797 409.6099548339844" stroke-width="0.0" fill="url(#shape_53_fill)"/>
    <path d="M 205.7637481689453 424.5308532714844 C 205.3535919189453 425.42340087890625 206.22080993652344 428.63543701171875 204.54129028320312 429.4347839355469 C 199.6908416748047 433.32733154296875 178.84097290039062 433.24896240234375 177.90594482421875 432.80572509765625 C 176.6739044189453 430.956787109375 178.12928771972656 425.9569091796875 176.69891357421875 423.9106750488281 C 187.36376953125 420.109375 197.3073272705078 421.6638488769531 205.7637481689453 424.5308532714844" stroke-width="0.0" fill="url(#shape_54_fill)"/>
    <path d="M 270.4588623046875 245.29721069335938 C 275.42132568359375 244.65550231933594 276.66766357421875 245.78652954101562 282.3589782714844 245.09046936035156 C 281.95220947265625 251.33241271972656 280.8345031738281 253.24903869628906 282.3983154296875 259.1458740234375 C 263.46331787109375 257.8697509765625 262.9236145019531 257.1559753417969 255.45211791992188 256.5491943359375 C 254.8793487548828 248.1717529296875 255.85374450683594 247.2283172607422 258.1361389160156 244.43499755859375 C 259.9260559082031 239.53341674804688 265.86273193359375 240.3245086669922 270.4588623046875 245.29721069335938" stroke-width="0.0" fill="url(#shape_55_fill)"/>
    <path d="M 271.9424133300781 361.86468505859375 C 276.94744873046875 364.7601013183594 281.75927734375 363.3648681640625 284.47564697265625 368.1153564453125 C 285.4144592285156 369.2537841796875 285.5007629394531 371.7223815917969 284.7677307128906 379.0265808105469 C 277.14166259765625 379.03143310546875 265.4581298828125 381.63372802734375 252.5114288330078 380.12213134765625 C 248.81483459472656 376.6053466796875 250.33837890625 366.08892822265625 251.6331024169922 364.53271484375 C 258.06011962890625 363.0601806640625 264.4319152832031 362.1754150390625 271.9424133300781 361.86468505859375" stroke-width="0.0" fill="url(#shape_56_fill)"/>
    <path d="M 409.42437744140625 271.1156921386719 C 413.91729736328125 269.9445495605469 417.2153015136719 274.56414794921875 417.6755676269531 282.17474365234375 C 413.19976806640625 289.26373291015625 402.1054382324219 285.7712097167969 389.34381103515625 286.27471923828125 C 387.6356506347656 272.11236572265625 396.29901123046875 266.8504333496094 409.42437744140625 271.1156921386719" stroke-width="0.0" fill="url(#shape_57_fill)"/>
    <path d="M 632.2543334960938 351.92864990234375 C 632.7603759765625 353.59149169921875 659.9537353515625 353.08880615234375 668.6934204101562 353.3514099121094 C 668.4644165039062 358.3714904785156 662.3818969726562 360.9059143066406 656.8843383789062 356.88641357421875 C 653.4208984375 356.8664855957031 633.9954223632812 360.83013916015625 631.426513671875 361.1053771972656 C 627.7469482421875 357.1454162597656 629.2828369140625 353.5606994628906 632.2543334960938 351.92864990234375" stroke-width="0.0" fill="url(#shape_58_fill)"/>
    <path d="M 341.2674255371094 385.2481384277344 C 342.74932861328125 390.3681335449219 358.1095886230469 391.8864440917969 359.1756591796875 394.8134765625 C 356.4463806152344 399.1960754394531 340.64251708984375 401.9684143066406 338.4562683105469 399.5134582519531 C 335.1416320800781 399.60235595703125 333.088134765625 398.7706298828125 331.8768615722656 396.53375244140625 C 331.9852294921875 394.9396057128906 330.7608947753906 393.4740295410156 332.43353271484375 390.62945556640625 C 333.42889404296875 385.1376037597656 337.3852233886719 385.5931396484375 341.2674255371094 385.2481384277344" stroke-width="0.0" fill="url(#shape_59_fill)"/>
    <path d="M 459.281494140625 363.8144836425781 C 462.7799072265625 365.1701965332031 471.1341247558594 369.44989013671875 473.0201416015625 373.67889404296875 C 471.7608947753906 376.4024963378906 470.3672790527344 376.6075439453125 463.03265380859375 375.95245361328125 C 460.51739501953125 376.26116943359375 456.25311279296875 376.9757080078125 452.772216796875 370.7244567871094 C 452.7535705566406 369.0234680175781 458.6991271972656 364.9113464355469 459.281494140625 363.8144836425781" stroke-width="0.0" fill="url(#shape_60_fill)"/>
    <path d="M 436.5863952636719 432.82586669921875 C 440.27886962890625 434.2416076660156 442.4927062988281 436.32415771484375 441.99237060546875 439.1243896484375 C 440.50421142578125 442.4322509765625 430.20660400390625 441.1783752441406 425.87213134765625 442.524169921875 C 422.5404357910156 438.0870056152344 424.1437072753906 434.45501708984375 422.43548583984375 431.2042541503906 C 427.997314453125 431.22216796875 433.3932800292969 432.4854736328125 436.5863952636719 432.82586669921875" stroke-width="0.0" fill="url(#shape_61_fill)"/>
    <path d="M 185.4306182861328 411.45562744140625 C 186.2614288330078 413.93170166015625 185.00991821289062 414.7928771972656 186.91891479492188 417.8961181640625 C 184.8521728515625 420.1257629394531 183.41624450683594 419.5478210449219 182.3027801513672 419.6415100097656 C 180.78265380859375 420.89068603515625 175.12521362304688 419.8047790527344 171.14634704589844 420.286865234375 C 169.51480102539062 417.9183044433594 169.74514770507812 415.6357116699219 172.72763061523438 414.4450378417969 C 176.5594482421875 412.3955993652344 180.69691467285156 411.3279724121094 185.4306182861328 411.45562744140625" stroke-width="0.0" fill="url(#shape_62_fill)"/>
    <path d="M 332.6246032714844 418.2525939941406 C 334.97039794921875 426.22003173828125 329.9179382324219 428.0693664550781 327.2914123535156 426.15924072265625 C 324.6129455566406 427.78741455078125 323.00885009765625 426.7467956542969 320.3457946777344 427.6876220703125 C 318.68157958984375 426.0520324707031 319.60150146484375 419.99481201171875 317.7998962402344 418.4151916503906 C 323.0693359375 419.9609680175781 326.5315856933594 418.7269287109375 332.6246032714844 418.2525939941406" stroke-width="0.0" fill="url(#shape_63_fill)"/>
    <path d="M 55.36698913574219 273.56549072265625 C 56.50008773803711 270.3589172363281 66.15061950683594 271.3859558105469 66.36320495605469 279.44775390625 C 60.58843994140625 278.35552978515625 53.84988021850586 273.693115234375 47.84956359863281 276.0973205566406 C 49.25754165649414 272.8070068359375 52.256385803222656 272.2635192871094 55.36698913574219 273.56549072265625" stroke-width="0.0" fill="url(#shape_64_fill)"/>
    <path d="M 304.2831115722656 438.5541687011719 C 304.4435729980469 437.01287841796875 305.80364990234375 436.0462341308594 313.15765380859375 436.9104309082031 C 314.79266357421875 438.9324645996094 313.2640075683594 441.72479248046875 311.5799560546875 443.6825256347656 C 307.8492431640625 445.4410095214844 306.7840881347656 444.24102783203125 304.88726806640625 445.41986083984375 C 303.04522705078125 441.5220947265625 302.2640686035156 439.4564514160156 304.2831115722656 438.5541687011719" stroke-width="0.0" fill="url(#shape_65_fill)"/>
    <path d="M 0.4882839322090149 -0.28718623518943787 C 223.8730010986328 0.025781653821468353 443.6925354003906 0.47919702529907227 673.43408203125 0.8942455053329468 C 674.132080078125 150.16921997070312 674.5519409179688 294.86285400390625 673.4647216796875 445.3805236816406 C 450.44256591796875 446.04473876953125 230.93197631835938 446.0050048828125 0.6670892238616943 445.22613525390625 C 0.289316326379776 296.86297607421875 -0.03666755557060242 148.9467010498047 0.4882839322090149 -0.28718623518943787" stroke-width="0.0" fill="url(#shape_66_fill)"/>
    <path d="M -0.6927689909934998 0.13269728422164917 C 222.5769805908203 -0.015786463394761086 443.55438232421875 0.39020317792892456 673.4375 0.6285280585289001 C 674.2197265625 150.289306640625 674.57666015625 294.454345703125 673.2660522460938 445.18896484375 C 450.1340026855469 446.04583740234375 231.24571228027344 445.99462890625 0.8055614233016968 445.0821838378906 C 0.26314806938171387 296.6517639160156 -0.17173932492733002 148.4269256591797 -0.6927689909934998 0.13269728422164917" stroke-width="0.0" fill="url(#shape_67_fill)"/>
    <path d="M -0.6535406112670898 -0.16092549264431 C 223.0304718017578 -0.29176002740859985 443.3880310058594 0.24808892607688904 673.4140625 -0.04565797373652458 C 674.1947021484375 150.400634765625 674.5743408203125 294.5057373046875 673.27294921875 445.1736755371094 C 450.16070556640625 446.0577392578125 231.3179473876953 445.9990234375 1.250354290008545 445.0562438964844 C 0.4204780161380768 295.9693298339844 0.0038818579632788897 148.98155212402344 -0.6535406112670898 -0.16092549264431" stroke-width="0.0" fill="url(#shape_68_fill)"/>
  </g>
</svg>
