<?xml version="1.0" ?>
<svg xmlns="http://www.w3.org/2000/svg" version="1.1" width="674" height="446">
  <defs>
    <radialGradient id="shape_0_fill" cx="0.5381804786025594" cy="0.7436922355617643" r="0.27507412964229416">
      <stop offset="0.5583058" stop-color="rgb(197, 196, 0)" stop-opacity="1.0"/>
      <stop offset="1.0" stop-color="rgb(162, 0, 0)" stop-opacity="1.0"/>
    </radialGradient>
    <radialGradient id="shape_1_fill" cx="0.5385609522063938" cy="0.7476332454937991" r="0.20483545591993926">
      <stop offset="0.5048859" stop-color="rgb(179, 108, 0)" stop-opacity="0.7973960638046265"/>
      <stop offset="1.0" stop-color="rgb(0, 0, 0)" stop-opacity="1.0"/>
    </radialGradient>
    <radialGradient id="shape_2_fill" cx="0.09792284866468842" cy="0.7376681614349776" r="0.22062588021026522">
      <stop offset="1.6256132e-05" stop-color="rgb(30, 90, 182)" stop-opacity="0.9999661445617676"/>
      <stop offset="1.0" stop-color="rgb(0, 160, 255)" stop-opacity="1.0"/>
    </radialGradient>
    <radialGradient id="shape_3_fill" cx="0.27446341585334755" cy="0.21633541637471973" r="0.1254324304597668">
      <stop offset="0.5972976" stop-color="rgb(215, 231, 0)" stop-opacity="0.9047650694847107"/>
      <stop offset="0.95894015" stop-color="rgb(7, 0, 0)" stop-opacity="1.0"/>
    </radialGradient>
    <radialGradient id="shape_4_fill" cx="0.1543026706231454" cy="0.9977578475336323" r="0.10288926755639141">
      <stop offset="0.0" stop-color="rgb(81, 79, 86)" stop-opacity="1.0"/>
      <stop offset="1.0" stop-color="rgb(227, 136, 200)" stop-opacity="0.5417646169662476"/>
    </radialGradient>
    <radialGradient id="shape_5_fill" cx="0.148094754544493" cy="0.23996897128665393" r="0.1181192369772348">
      <stop offset="0.0" stop-color="rgb(255, 255, 255)" stop-opacity="0.657229483127594"/>
      <stop offset="0.58349943" stop-color="rgb(255, 255, 255)" stop-opacity="0.6226826906204224"/>
    </radialGradient>
    <radialGradient id="shape_6_fill" cx="0.18397626112759644" cy="0.9977578475336323" r="0.0754974885934892">
      <stop offset="0.0" stop-color="rgb(93, 90, 94)" stop-opacity="1.0"/>
      <stop offset="1.0" stop-color="rgb(250, 205, 246)" stop-opacity="0.7960758209228516"/>
    </radialGradient>
    <radialGradient id="shape_7_fill" cx="0.2893175074183976" cy="0.05829596412556054" r="0.08666390552011372">
      <stop offset="0.0" stop-color="rgb(55, 66, 29)" stop-opacity="1.0"/>
      <stop offset="1.0" stop-color="rgb(1, 0, 0)" stop-opacity="1.0"/>
    </radialGradient>
    <radialGradient id="shape_8_fill" cx="0.3382789091115889" cy="0.9439461883408071" r="0.06756690277190167">
      <stop offset="0.0" stop-color="rgb(91, 124, 45)" stop-opacity="1.0"/>
      <stop offset="1.0" stop-color="rgb(232, 255, 0)" stop-opacity="1.0"/>
    </radialGradient>
    <radialGradient id="shape_9_fill" cx="0.30712166172106825" cy="0.9977578475336323" r="0.0730758406641929">
      <stop offset="0.0" stop-color="rgb(38, 48, 20)" stop-opacity="1.0"/>
      <stop offset="1.0" stop-color="rgb(0, 0, 0)" stop-opacity="1.0"/>
    </radialGradient>
    <radialGradient id="shape_10_fill" cx="0.3056379821958457" cy="0.9977578475336323" r="0.06792919147615971">
      <stop offset="0.0" stop-color="rgb(39, 49, 21)" stop-opacity="1.0"/>
      <stop offset="1.0" stop-color="rgb(0, 0, 0)" stop-opacity="1.0"/>
    </radialGradient>
    <radialGradient id="shape_11_fill" cx="0.21810089020771514" cy="0.968609865470852" r="0.06792919147615971">
      <stop offset="0.0" stop-color="rgb(138, 135, 129)" stop-opacity="1.0"/>
      <stop offset="1.0" stop-color="rgb(255, 255, 255)" stop-opacity="0.46546992659568787"/>
    </radialGradient>
    <radialGradient id="shape_12_fill" cx="0.29080118694362017" cy="0.9977578475336323" r="0.07480746985189285">
      <stop offset="0.0" stop-color="rgb(22, 25, 13)" stop-opacity="1.0"/>
      <stop offset="1.0" stop-color="rgb(0, 0, 0)" stop-opacity="1.0"/>
    </radialGradient>
    <radialGradient id="shape_13_fill" cx="0.327893175074184" cy="0.8923766816143498" r="0.06900465877544279">
      <stop offset="0.0" stop-color="rgb(89, 117, 50)" stop-opacity="1.0"/>
      <stop offset="1.0" stop-color="rgb(242, 255, 0)" stop-opacity="1.0"/>
    </radialGradient>
    <radialGradient id="shape_14_fill" cx="0.142433234421365" cy="0.9977578475336323" r="0.06617211022079875">
      <stop offset="0.0" stop-color="rgb(155, 150, 153)" stop-opacity="1.0"/>
      <stop offset="1.0" stop-color="rgb(255, 255, 255)" stop-opacity="0.5169199109077454"/>
    </radialGradient>
    <radialGradient id="shape_15_fill" cx="0.31008902077151335" cy="0.9977578475336323" r="0.06683642786405207">
      <stop offset="0.0" stop-color="rgb(43, 55, 23)" stop-opacity="1.0"/>
      <stop offset="1.0" stop-color="rgb(0, 0, 0)" stop-opacity="0.5227690935134888"/>
    </radialGradient>
    <radialGradient id="shape_16_fill" cx="0.27299703264094954" cy="0.9977578475336323" r="0.08110449363640579">
      <stop offset="0.0" stop-color="rgb(31, 35, 19)" stop-opacity="1.0"/>
      <stop offset="1.0" stop-color="rgb(0, 0, 0)" stop-opacity="1.0"/>
    </radialGradient>
    <radialGradient id="shape_17_fill" cx="0.2893175074183976" cy="0.9977578475336323" r="0.07513486030193747">
      <stop offset="0.0" stop-color="rgb(22, 23, 13)" stop-opacity="1.0"/>
      <stop offset="1.0" stop-color="rgb(0, 0, 0)" stop-opacity="0.45859864354133606"/>
    </radialGradient>
    <radialGradient id="shape_18_fill" cx="0.3293768545994065" cy="0.7556053811659192" r="0.06617211022079875">
      <stop offset="0.0" stop-color="rgb(83, 108, 65)" stop-opacity="1.0"/>
      <stop offset="1.0" stop-color="rgb(227, 255, 0)" stop-opacity="0.7699366211891174"/>
    </radialGradient>
    <radialGradient id="shape_19_fill" cx="0.3516320474777448" cy="0.9977578475336323" r="0.06617211022079875">
      <stop offset="0.0" stop-color="rgb(95, 135, 39)" stop-opacity="1.0"/>
      <stop offset="1.0" stop-color="rgb(251, 255, 0)" stop-opacity="1.0"/>
    </radialGradient>
    <radialGradient id="shape_20_fill" cx="0.0830860534124629" cy="0.9977578475336323" r="0.06792919147615971">
      <stop offset="0.0" stop-color="rgb(49, 52, 66)" stop-opacity="1.0"/>
      <stop offset="1.0" stop-color="rgb(0, 0, 40)" stop-opacity="1.0"/>
    </radialGradient>
    <radialGradient id="shape_21_fill" cx="0.29821958456973297" cy="0.9977578475336323" r="0.06792919147615971">
      <stop offset="0.0" stop-color="rgb(33, 40, 17)" stop-opacity="1.0"/>
      <stop offset="1.0" stop-color="rgb(0, 0, 0)" stop-opacity="1.0"/>
    </radialGradient>
    <radialGradient id="shape_22_fill" cx="0.35639061630656527" cy="0.44369996075138385" r="0.06594728645302068">
      <stop offset="0.0" stop-color="rgb(218, 245, 0)" stop-opacity="0.6420066952705383"/>
      <stop offset="0.49071735" stop-color="rgb(255, 255, 0)" stop-opacity="1.0"/>
    </radialGradient>
    <radialGradient id="shape_23_fill" cx="0.6454005934718101" cy="0.1412556053811659" r="0.06617211022079875">
      <stop offset="0.0" stop-color="rgb(46, 38, 13)" stop-opacity="1.0"/>
      <stop offset="1.0" stop-color="rgb(0, 0, 0)" stop-opacity="1.0"/>
    </radialGradient>
    <radialGradient id="shape_24_fill" cx="0.24925784328924797" cy="0.4843051380106152" r="0.06617184987054027">
      <stop offset="0.0" stop-color="rgb(201, 208, 206)" stop-opacity="1.0"/>
      <stop offset="0.992082" stop-color="rgb(255, 255, 255)" stop-opacity="0.997178852558136"/>
    </radialGradient>
    <radialGradient id="shape_25_fill" cx="0.6320474777448071" cy="0.9977578475336323" r="0.06617211022079875">
      <stop offset="0.0" stop-color="rgb(35, 28, 8)" stop-opacity="1.0"/>
      <stop offset="1.0" stop-color="rgb(0, 0, 0)" stop-opacity="0.7896425127983093"/>
    </radialGradient>
    <radialGradient id="shape_26_fill" cx="0.15422710113072607" cy="0.320703036047418" r="0.06612568297796505">
      <stop offset="0.0020136205" stop-color="rgb(186, 194, 140)" stop-opacity="1.0"/>
      <stop offset="0.66148734" stop-color="rgb(237, 245, 199)" stop-opacity="0.4036013185977936"/>
    </radialGradient>
    <radialGradient id="shape_27_fill" cx="0.1541324355128257" cy="0.3207796379055143" r="0.06606047655779106">
      <stop offset="0.0" stop-color="rgb(185, 197, 0)" stop-opacity="1.0"/>
      <stop offset="0.5549302" stop-color="rgb(235, 237, 0)" stop-opacity="0.7862123250961304"/>
    </radialGradient>
    <radialGradient id="shape_28_fill" cx="0.04146883537224563" cy="0.02236318374428514" r="0.06619078752195093">
      <stop offset="0.12889808" stop-color="rgb(0, 0, 70)" stop-opacity="1.0"/>
      <stop offset="0.92592186" stop-color="rgb(0, 0, 74)" stop-opacity="1.0"/>
    </radialGradient>
    <radialGradient id="shape_29_fill" cx="0.33976258863681147" cy="0.6659192825112108" r="0.06617211022079875">
      <stop offset="0.0" stop-color="rgb(90, 117, 55)" stop-opacity="1.0"/>
      <stop offset="1.0" stop-color="rgb(240, 255, 0)" stop-opacity="0.980262041091919"/>
    </radialGradient>
    <radialGradient id="shape_30_fill" cx="0.04136392836754683" cy="0.020527429110266168" r="0.0662776935701908">
      <stop offset="0.22642857" stop-color="rgb(0, 0, 0)" stop-opacity="1.0"/>
      <stop offset="1.0" stop-color="rgb(0, 0, 5)" stop-opacity="1.0"/>
    </radialGradient>
    <radialGradient id="shape_31_fill" cx="0.12314540059347182" cy="0.9977578475336323" r="0.06617211022079875">
      <stop offset="0.0" stop-color="rgb(95, 103, 98)" stop-opacity="1.0"/>
      <stop offset="1.0" stop-color="rgb(251, 255, 252)" stop-opacity="0.4129415452480316"/>
    </radialGradient>
    <radialGradient id="shape_32_fill" cx="0.4035608308605341" cy="0.984304932735426" r="0.06617211022079875">
      <stop offset="0.0" stop-color="rgb(126, 155, 63)" stop-opacity="1.0"/>
      <stop offset="1.0" stop-color="rgb(255, 255, 0)" stop-opacity="1.0"/>
    </radialGradient>
    <radialGradient id="shape_33_fill" cx="0.3249258160237389" cy="0.6053811659192825" r="0.06617211022079875">
      <stop offset="0.0" stop-color="rgb(93, 124, 71)" stop-opacity="1.0"/>
      <stop offset="1.0" stop-color="rgb(247, 255, 0)" stop-opacity="0.8497474789619446"/>
    </radialGradient>
    <radialGradient id="shape_34_fill" cx="0.6468842729970327" cy="0.531390134529148" r="0.06617211022079875">
      <stop offset="0.0" stop-color="rgb(54, 47, 24)" stop-opacity="1.0"/>
      <stop offset="1.0" stop-color="rgb(9, 0, 0)" stop-opacity="0.8109250068664551"/>
    </radialGradient>
    <radialGradient id="shape_35_fill" cx="0.14213013012260642" cy="0.23341710043594976" r="0.06608646064554548">
      <stop offset="0.0" stop-color="rgb(190, 186, 0)" stop-opacity="0.5847022533416748"/>
      <stop offset="0.50363654" stop-color="rgb(222, 237, 0)" stop-opacity="0.3901020884513855"/>
    </radialGradient>
    <radialGradient id="shape_36_fill" cx="0.2878338278931751" cy="0.9977578475336323" r="0.06617211022079875">
      <stop offset="0.0" stop-color="rgb(80, 96, 53)" stop-opacity="1.0"/>
      <stop offset="1.0" stop-color="rgb(196, 193, 0)" stop-opacity="1.0"/>
    </radialGradient>
    <radialGradient id="shape_37_fill" cx="0.129080118694362" cy="0.9977578475336323" r="0.06617211022079875">
      <stop offset="0.0" stop-color="rgb(87, 97, 81)" stop-opacity="1.0"/>
      <stop offset="1.0" stop-color="rgb(234, 236, 170)" stop-opacity="0.5103173851966858"/>
    </radialGradient>
    <radialGradient id="shape_38_fill" cx="0.3385730822645238" cy="0.5608845868987353" r="0.06638240531219573">
      <stop offset="0.39327544" stop-color="rgb(157, 182, 0)" stop-opacity="1.0"/>
      <stop offset="0.7738179" stop-color="rgb(209, 255, 0)" stop-opacity="1.0"/>
    </radialGradient>
    <radialGradient id="shape_39_fill" cx="0.40059347181008903" cy="0.9641255605381166" r="0.06617211022079875">
      <stop offset="0.0" stop-color="rgb(138, 168, 60)" stop-opacity="1.0"/>
      <stop offset="1.0" stop-color="rgb(255, 255, 0)" stop-opacity="1.0"/>
    </radialGradient>
    <radialGradient id="shape_40_fill" cx="0.6172244018192461" cy="0.8833991080656179" r="0.0661632639717985">
      <stop offset="0.0" stop-color="rgb(0, 0, 0)" stop-opacity="1.0"/>
      <stop offset="0.8413925" stop-color="rgb(0, 0, 0)" stop-opacity="1.0"/>
    </radialGradient>
    <radialGradient id="shape_41_fill" cx="0.6454005934718101" cy="0.08744394618834081" r="0.06617211022079875">
      <stop offset="0.0" stop-color="rgb(58, 48, 21)" stop-opacity="1.0"/>
      <stop offset="1.0" stop-color="rgb(32, 0, 0)" stop-opacity="0.8011311888694763"/>
    </radialGradient>
    <radialGradient id="shape_42_fill" cx="0.5845697329376854" cy="0.6188340807174888" r="0.06617211022079875">
      <stop offset="0.0" stop-color="rgb(62, 59, 56)" stop-opacity="1.0"/>
      <stop offset="1.0" stop-color="rgb(0, 0, 0)" stop-opacity="1.0"/>
    </radialGradient>
    <radialGradient id="shape_43_fill" cx="0.35781597737388726" cy="0.5064779375700673" r="0.06605414891455223">
      <stop offset="0.0" stop-color="rgb(255, 255, 0)" stop-opacity="1.0"/>
      <stop offset="0.5271276" stop-color="rgb(255, 255, 0)" stop-opacity="1.0"/>
    </radialGradient>
    <radialGradient id="shape_44_fill" cx="0.5934718100890207" cy="0.9977578475336323" r="0.06617211022079875">
      <stop offset="0.0" stop-color="rgb(89, 61, 18)" stop-opacity="1.0"/>
      <stop offset="1.0" stop-color="rgb(243, 0, 0)" stop-opacity="1.0"/>
    </radialGradient>
    <radialGradient id="shape_45_fill" cx="0.612759643916914" cy="0.04035874439461883" r="0.06617211022079875">
      <stop offset="0.0" stop-color="rgb(157, 136, 123)" stop-opacity="1.0"/>
      <stop offset="1.0" stop-color="rgb(255, 255, 255)" stop-opacity="1.0"/>
    </radialGradient>
    <radialGradient id="shape_46_fill" cx="0.28635014836795253" cy="0.9977578475336323" r="0.06617211022079875">
      <stop offset="0.0" stop-color="rgb(82, 99, 55)" stop-opacity="1.0"/>
      <stop offset="1.0" stop-color="rgb(222, 236, 0)" stop-opacity="0.4372476041316986"/>
    </radialGradient>
    <radialGradient id="shape_47_fill" cx="0.28635014836795253" cy="0.8183856502242153" r="0.06617211022079875">
      <stop offset="0.0" stop-color="rgb(166, 189, 197)" stop-opacity="1.0"/>
      <stop offset="1.0" stop-color="rgb(255, 255, 255)" stop-opacity="0.662915050983429"/>
    </radialGradient>
    <radialGradient id="shape_48_fill" cx="0.40801186943620177" cy="0.9977578475336323" r="0.06617211022079875">
      <stop offset="0.0" stop-color="rgb(107, 135, 68)" stop-opacity="1.0"/>
      <stop offset="1.0" stop-color="rgb(255, 255, 0)" stop-opacity="0.6915100812911987"/>
    </radialGradient>
    <radialGradient id="shape_49_fill" cx="0.19287833827893175" cy="0.3991031390134529" r="0.06617211022079875">
      <stop offset="0.0" stop-color="rgb(92, 100, 54)" stop-opacity="1.0"/>
      <stop offset="1.0" stop-color="rgb(246, 253, 0)" stop-opacity="0.4505976140499115"/>
    </radialGradient>
    <radialGradient id="shape_50_fill" cx="0.6439169139465876" cy="0.7376681614349776" r="0.06617211022079875">
      <stop offset="0.0" stop-color="rgb(65, 56, 25)" stop-opacity="1.0"/>
      <stop offset="1.0" stop-color="rgb(56, 108, 139)" stop-opacity="0.9840918183326721"/>
    </radialGradient>
    <radialGradient id="shape_51_fill" cx="0.5845697329376854" cy="0.6322869955156951" r="0.06617211022079875">
      <stop offset="0.0" stop-color="rgb(75, 68, 60)" stop-opacity="1.0"/>
      <stop offset="1.0" stop-color="rgb(199, 0, 0)" stop-opacity="0.9985461235046387"/>
    </radialGradient>
    <radialGradient id="shape_52_fill" cx="0.2997032640949555" cy="0.6031390134529148" r="0.06617211022079875">
      <stop offset="0.0" stop-color="rgb(107, 158, 118)" stop-opacity="1.0"/>
      <stop offset="1.0" stop-color="rgb(255, 255, 255)" stop-opacity="1.0"/>
    </radialGradient>
    <radialGradient id="shape_53_fill" cx="0.6097922848664689" cy="0.45067264573991034" r="0.06617211022079875">
      <stop offset="0.0" stop-color="rgb(38, 39, 27)" stop-opacity="1.0"/>
      <stop offset="1.0" stop-color="rgb(0, 0, 0)" stop-opacity="0.7738016843795776"/>
    </radialGradient>
    <radialGradient id="shape_54_fill" cx="0.6335311572700296" cy="0.426009002822397" r="0.06617211022079875">
      <stop offset="0.0" stop-color="rgb(67, 49, 20)" stop-opacity="1.0"/>
      <stop offset="1.0" stop-color="rgb(130, 0, 0)" stop-opacity="0.9066689014434814"/>
    </radialGradient>
    <radialGradient id="shape_55_fill" cx="0.370685747186225" cy="0.5988404825663888" r="0.06604504231529348">
      <stop offset="0.0" stop-color="rgb(255, 255, 0)" stop-opacity="0.9463794231414795"/>
      <stop offset="0.50664425" stop-color="rgb(255, 255, 0)" stop-opacity="0.9856818318367004"/>
    </radialGradient>
    <radialGradient id="shape_56_fill" cx="0.5489614243323442" cy="0.600896860986547" r="0.06617211022079875">
      <stop offset="0.0" stop-color="rgb(50, 62, 80)" stop-opacity="1.0"/>
      <stop offset="1.0" stop-color="rgb(0, 0, 155)" stop-opacity="1.0"/>
    </radialGradient>
    <radialGradient id="shape_57_fill" cx="0.4094955489614243" cy="0.9035874439461884" r="0.06617211022079875">
      <stop offset="0.0" stop-color="rgb(111, 144, 47)" stop-opacity="1.0"/>
      <stop offset="1.0" stop-color="rgb(255, 255, 0)" stop-opacity="1.0"/>
    </radialGradient>
    <radialGradient id="shape_58_fill" cx="0.5281899109792285" cy="0.9977578475336323" r="0.06617211022079875">
      <stop offset="0.0" stop-color="rgb(50, 43, 14)" stop-opacity="1.0"/>
      <stop offset="1.0" stop-color="rgb(0, 0, 0)" stop-opacity="0.7504518628120422"/>
    </radialGradient>
    <radialGradient id="shape_59_fill" cx="0.5845697329376854" cy="0.7690582959641256" r="0.06617211022079875">
      <stop offset="0.0" stop-color="rgb(61, 63, 58)" stop-opacity="1.0"/>
      <stop offset="1.0" stop-color="rgb(50, 0, 63)" stop-opacity="1.0"/>
    </radialGradient>
    <radialGradient id="shape_60_fill" cx="0.5489614243323442" cy="0.9977578475336323" r="0.06617211022079875">
      <stop offset="0.0" stop-color="rgb(140, 131, 64)" stop-opacity="1.0"/>
      <stop offset="1.0" stop-color="rgb(255, 255, 0)" stop-opacity="1.0"/>
    </radialGradient>
    <radialGradient id="shape_61_fill" cx="0.6468873519218287" cy="0.9686000122617713" r="0.06617119333510582">
      <stop offset="0.0" stop-color="rgb(246, 52, 0)" stop-opacity="1.0"/>
      <stop offset="0.95287436" stop-color="rgb(247, 50, 0)" stop-opacity="1.0"/>
    </radialGradient>
    <radialGradient id="shape_62_fill" cx="0.615727002967359" cy="0.3991031390134529" r="0.06617211022079875">
      <stop offset="0.0" stop-color="rgb(55, 47, 13)" stop-opacity="1.0"/>
      <stop offset="1.0" stop-color="rgb(1, 0, 0)" stop-opacity="0.7419222593307495"/>
    </radialGradient>
    <radialGradient id="shape_63_fill" cx="0.6261127596439169" cy="0.7286995515695067" r="0.06617211022079875">
      <stop offset="0.0" stop-color="rgb(79, 66, 32)" stop-opacity="1.0"/>
      <stop offset="1.0" stop-color="rgb(164, 187, 153)" stop-opacity="1.0"/>
    </radialGradient>
    <radialGradient id="shape_64_fill" cx="0.40801186943620177" cy="0.12556053811659193" r="0.06617211022079875">
      <stop offset="0.0" stop-color="rgb(76, 66, 59)" stop-opacity="1.0"/>
      <stop offset="1.0" stop-color="rgb(185, 0, 0)" stop-opacity="1.0"/>
    </radialGradient>
    <radialGradient id="shape_65_fill" cx="0.6528189910979229" cy="0.6883408071748879" r="0.06617211022079875">
      <stop offset="0.0" stop-color="rgb(121, 97, 39)" stop-opacity="1.0"/>
      <stop offset="1.0" stop-color="rgb(255, 248, 158)" stop-opacity="1.0"/>
    </radialGradient>
    <radialGradient id="shape_66_fill" cx="0.6492451291409728" cy="0.46178798932131093" r="0.06707601801931681">
      <stop offset="0.6286555" stop-color="rgb(217, 236, 0)" stop-opacity="0.3182981014251709"/>
      <stop offset="1.0" stop-color="rgb(89, 76, 53)" stop-opacity="0.287818968296051"/>
    </radialGradient>
    <radialGradient id="shape_67_fill" cx="0.5935734598855944" cy="0.9962254682463916" r="0.06718581225115043">
      <stop offset="0.70586956" stop-color="rgb(35, 0, 0)" stop-opacity="1.0"/>
      <stop offset="1.0" stop-color="rgb(31, 38, 23)" stop-opacity="0.35405388474464417"/>
    </radialGradient>
    <radialGradient id="shape_68_fill" cx="0.48765921663459755" cy="0.9966764578370235" r="0.06710956358414376">
      <stop offset="0.42668542" stop-color="rgb(68, 42, 16)" stop-opacity="0.7283055782318115"/>
      <stop offset="1.0" stop-color="rgb(63, 81, 83)" stop-opacity="0.5853258371353149"/>
    </radialGradient>
  </defs>
  <g>
    <path d="M -0.28654009103775024 271.1503601074219 C 25.120319366455078 270.86328125 33.61214065551758 272.2234191894531 42.54195022583008 274.6619873046875 C 48.03728485107422 275.9140625 49.366214752197266 276.71087646484375 57.1530647277832 274.5472717285156 C 60.43349838256836 273.93719482421875 63.73215866088867 274.62469482421875 66.0260009765625 276.32794189453125 C 76.41254425048828 275.2079772949219 105.76786804199219 274.75311279296875 110.46780395507812 275.49176025390625 C 114.92167663574219 276.77386474609375 125.80809783935547 277.7478332519531 127.93722534179688 280.7075500488281 C 134.41893005371094 281.7682189941406 140.91114807128906 281.0262756347656 149.19346618652344 281.7304382324219 C 185.26283264160156 281.75848388671875 185.7521514892578 282.55413818359375 202.70443725585938 283.82122802734375 C 201.11917114257812 291.1365661621094 200.151611328125 284.07916259765625 219.53111267089844 279.7303771972656 C 236.00282287597656 281.3294982910156 278.7571716308594 280.6563415527344 302.6344909667969 286.0433349609375 C 336.16558837890625 287.79327392578125 417.7433166503906 287.3062744140625 457.5250549316406 285.0660705566406 C 481.5660705566406 284.80670166015625 530.8485717773438 286.3451232910156 540.4527587890625 287.1328125 C 549.3701782226562 287.0922546386719 550.9248657226562 283.9016418457031 560.4147338867188 283.6626281738281 C 569.1766357421875 286.881103515625 608.8756103515625 286.7292785644531 616.8145751953125 287.3102111816406 C 640.4332275390625 284.3314514160156 650.4087524414062 284.93402099609375 657.787109375 284.8890075683594 C 662.5293579101562 285.94366455078125 670.1206665039062 289.3379211425781 673.0816650390625 290.96478271484375 C 674.1404418945312 340.81317138671875 673.8060302734375 392.6224670410156 673.9512329101562 445.23736572265625 C 451.4422607421875 445.3818359375 229.16937255859375 445.3856201171875 0.32100167870521545 445.3108215332031 C -0.3121712803840637 389.0978698730469 0.29935505986213684 332.35186767578125 -0.28654009103775024 271.1503601074219" stroke-width="0.0" fill="url(#shape_0_fill)"/>
    <path d="M -0.06990623474121094 273.9202575683594 C 35.93375015258789 275.4022521972656 36.55650329589844 274.5943298339844 44.42570495605469 276.8526611328125 C 56.881717681884766 277.21832275390625 68.1353759765625 275.9625549316406 76.78962707519531 277.0873107910156 C 113.3794174194336 278.68560791015625 113.98149108886719 279.3122863769531 125.98407745361328 280.0732116699219 C 130.48167419433594 280.03082275390625 154.84339904785156 280.1462707519531 157.86151123046875 280.5002746582031 C 185.02297973632812 279.8468017578125 185.5518798828125 281.5414733886719 197.1238555908203 283.4510498046875 C 201.63714599609375 289.2906494140625 203.0388641357422 288.5572814941406 218.23318481445312 286.6175842285156 C 227.9906005859375 285.48779296875 280.3174133300781 287.0335693359375 301.2138671875 287.94580078125 C 328.6434020996094 289.7148132324219 442.2471923828125 287.5002746582031 447.6394958496094 287.8559265136719 C 467.7947998046875 287.2713928222656 484.0675354003906 287.57415771484375 502.2038879394531 285.4810485839844 C 508.479248046875 286.7118225097656 516.2833862304688 285.7550048828125 522.8095092773438 286.38507080078125 C 527.5326538085938 285.6731262207031 531.8880004882812 285.867919921875 535.1519165039062 286.9867248535156 C 544.0780029296875 286.58001708984375 551.7815551757812 287.6546630859375 560.430908203125 287.8187561035156 C 569.5198364257812 286.6401062011719 579.6654052734375 286.9573974609375 588.00048828125 288.1313781738281 C 604.014404296875 288.37677001953125 618.3097534179688 287.7391357421875 633.1358032226562 288.2971496582031 C 646.6661987304688 285.7134704589844 659.8458862304688 287.78668212890625 674.3236694335938 288.55377197265625 C 673.8129272460938 340.8739013671875 674.408447265625 392.3045349121094 674.1436767578125 446.2801513671875 C 451.4774169921875 446.3895568847656 229.19664001464844 446.25347900390625 -0.30670541524887085 446.2467346191406 C -0.212623730301857 389.40380859375 -0.2921264171600342 333.0302734375 -0.06990623474121094 273.9202575683594" stroke-width="0.0" fill="url(#shape_1_fill)"/>
    <path d="M -0.15403664112091064 -0.2591787576675415 C 219.69349670410156 0.10148954391479492 439.4770812988281 -0.4449864625930786 668.8473510742188 -0.43088293075561523 C 660.9984741210938 6.590818405151367 644.4712524414062 35.220436096191406 637.3051147460938 47.13209533691406 C 635.6102294921875 53.22587966918945 610.5244140625 92.72823333740234 583.6158447265625 83.35369110107422 C 577.1773681640625 81.73845672607422 559.3750610351562 69.26544189453125 530.1149291992188 70.4017105102539 C 529.1954956054688 71.75484466552734 526.2334594726562 74.2694091796875 523.2626342773438 71.09093475341797 C 522.9015502929688 67.94522857666016 502.663330078125 60.80145263671875 501.45184326171875 61.64668273925781 C 491.9321594238281 61.81639862060547 484.7424011230469 60.472755432128906 478.9539489746094 67.5867919921875 C 474.2040710449219 68.91390228271484 474.7261962890625 73.21409606933594 473.32489013671875 76.07535552978516 C 474.4852294921875 87.97151947021484 464.6072082519531 104.12046813964844 460.4335632324219 108.79051208496094 C 456.14599609375 110.62566375732422 452.7803649902344 109.0355224609375 449.5600891113281 108.59966278076172 C 438.7444763183594 104.89659881591797 410.9440612792969 102.1296157836914 410.5621643066406 105.054931640625 C 403.4818420410156 113.38507843017578 403.4161376953125 117.86341857910156 400.0373840332031 124.10025024414062 C 398.2012023925781 132.47750854492188 391.1748046875 135.6248016357422 387.3773193359375 136.2834930419922 C 378.16656494140625 139.3579864501953 377.0753173828125 158.60264587402344 376.0361328125 162.3108367919922 C 375.5254821777344 168.1836395263672 374.3396301269531 172.29550170898438 370.8827819824219 176.88706970214844 C 368.79058837890625 179.2283172607422 365.4986267089844 178.3296356201172 353.53204345703125 182.99224853515625 C 347.28582763671875 190.43922424316406 336.3380126953125 181.82290649414062 322.868408203125 180.16636657714844 C 313.75311279296875 180.66856384277344 313.1510925292969 187.0535430908203 311.46087646484375 189.6275634765625 C 310.57427978515625 194.23709106445312 308.6284484863281 196.45826721191406 307.82781982421875 201.49362182617188 C 307.15447998046875 201.20327758789062 303.5867919921875 199.76846313476562 302.6408996582031 196.63145446777344 C 299.682373046875 192.97647094726562 296.0697937011719 194.32200622558594 292.03741455078125 191.13320922851562 C 292.1028747558594 193.7888946533203 290.16387939453125 196.71559143066406 289.096435546875 196.5839080810547 C 281.9500427246094 195.65078735351562 280.3251037597656 190.82269287109375 279.8410339355469 190.3327178955078 C 275.2763366699219 190.07305908203125 272.5565490722656 191.48460388183594 269.05328369140625 190.34259033203125 C 262.4386901855469 189.6163330078125 261.3183288574219 195.62017822265625 260.50042724609375 197.73834228515625 C 260.9969177246094 199.2461700439453 260.8813781738281 200.90696716308594 257.3601989746094 200.98489379882812 C 256.67901611328125 201.37286376953125 251.11038208007812 200.7648162841797 250.63143920898438 199.41329956054688 C 247.25302124023438 194.1401824951172 248.06813049316406 192.35743713378906 244.66209411621094 180.602783203125 C 248.7687225341797 174.49081420898438 215.5411376953125 142.42880249023438 213.72727966308594 140.31361389160156 C 185.80674743652344 119.81060791015625 196.6356964111328 98.26368713378906 193.08291625976562 88.8492660522461 C 193.9937744140625 83.67163848876953 156.83395385742188 72.43025970458984 144.93753051757812 65.85896301269531 C 122.38497161865234 40.506919860839844 63.48643112182617 51.43897247314453 38.013816833496094 61.6084098815918 C 16.496973037719727 70.67074584960938 13.153328895568848 67.74127197265625 -0.32942378520965576 68.49238586425781 C 0.3420179784297943 43.99880599975586 -0.331756591796875 22.574695587158203 -0.15403664112091064 -0.2591787576675415" stroke-width="0.0" fill="url(#shape_2_fill)"/>
    <path d="M 86.21119689941406 68.52410888671875 C 88.33323669433594 69.5655746459961 92.4687271118164 68.61937713623047 93.6927261352539 68.92764282226562 C 91.01602172851562 75.41503143310547 92.54486083984375 81.25989532470703 92.74778747558594 83.78080749511719 C 96.68081665039062 82.5802993774414 98.49112701416016 84.4958724975586 103.7518081665039 84.32997131347656 C 104.35579681396484 78.49180603027344 106.66443634033203 77.19872283935547 109.443115234375 78.58475494384766 C 111.9863052368164 87.3076171875 113.38921356201172 93.35173797607422 115.69629669189453 99.56414794921875 C 116.76316833496094 100.07799530029297 117.10066986083984 108.4433364868164 116.32706451416016 114.09439849853516 C 122.71354675292969 112.5318374633789 127.5775146484375 112.99501037597656 128.5577392578125 110.06348419189453 C 128.4180145263672 106.79950714111328 136.35433959960938 105.58946228027344 136.36724853515625 104.4781265258789 C 136.59381103515625 103.69375610351562 135.52928161621094 101.79473876953125 136.99008178710938 97.98066711425781 C 136.44833374023438 93.25171661376953 137.46188354492188 92.87299346923828 137.08450317382812 88.90322875976562 C 137.2725830078125 84.88777160644531 138.61962890625 84.6793441772461 139.01063537597656 85.59266662597656 C 139.5242919921875 82.00799560546875 146.60865783691406 80.81806182861328 147.8685302734375 83.76406860351562 C 146.3429412841797 86.91716003417969 150.9632110595703 95.53034973144531 152.05841064453125 99.0478744506836 C 153.5405731201172 103.04110717773438 149.87527465820312 106.91386413574219 148.86813354492188 106.61334991455078 C 152.86590576171875 109.99787139892578 150.7700653076172 114.2406234741211 148.69815063476562 113.46977233886719 C 155.17019653320312 112.62322235107422 158.42356872558594 122.4952163696289 158.27159118652344 123.01224517822266 C 162.0628204345703 124.64765167236328 164.7974090576172 123.31227111816406 170.08102416992188 123.11559295654297 C 175.19668579101562 119.31417083740234 175.06820678710938 121.63438415527344 177.54025268554688 122.5210952758789 C 179.33673095703125 122.64312744140625 179.83123779296875 125.60777282714844 182.56378173828125 127.84587097167969 C 183.85836791992188 130.22853088378906 182.3878936767578 133.1558074951172 183.198974609375 135.75393676757812 C 185.55615234375 136.4974365234375 187.81207275390625 143.0139923095703 188.58486938476562 145.32798767089844 C 191.5293731689453 146.9987335205078 203.6990203857422 159.1622772216797 203.73358154296875 172.11087036132812 C 205.72276306152344 173.64712524414062 205.08941650390625 177.6502685546875 206.05496215820312 182.09036254882812 C 208.7398223876953 182.6543731689453 213.46604919433594 201.37013244628906 210.18104553222656 202.58470153808594 C 210.033447265625 207.4668426513672 203.25393676757812 207.96401977539062 203.15704345703125 210.29190063476562 C 200.80453491210938 210.54153442382812 199.91941833496094 211.68702697753906 200.29261779785156 213.6468505859375 C 196.31500244140625 215.60414123535156 193.88841247558594 215.65155029296875 191.80355834960938 219.5945281982422 C 184.2906494140625 221.12203979492188 183.6017303466797 224.79977416992188 179.05072021484375 230.52297973632812 C 176.16368103027344 233.62579345703125 179.0723114013672 240.09129333496094 179.27590942382812 242.31565856933594 C 178.03756713867188 249.13536071777344 182.5706787109375 257.1332092285156 176.6145782470703 263.5621337890625 C 173.08203125 266.8359680175781 147.7469024658203 267.0867614746094 141.06373596191406 268.2918395996094 C 129.17828369140625 265.74725341796875 122.93006134033203 267.7424011230469 113.93875122070312 269.15155029296875 C 106.29920959472656 273.9802551269531 75.43761444091797 272.8660583496094 73.58197021484375 269.7169494628906 C 47.59299850463867 266.7049865722656 56.63069534301758 268.5412292480469 54.590728759765625 272.0296936035156 C 43.53019332885742 274.7992858886719 0.1756819188594818 272.64947509765625 0.1955033242702484 270.4425964355469 C -0.7752667665481567 217.3492889404297 -0.10949697345495224 166.47125244140625 -2.2952821254730225 116.80008697509766 C 8.873106956481934 118.19921875 16.360015869140625 118.75776672363281 25.060510635375977 124.8761215209961 C 31.049121856689453 126.50853729248047 37.05873107910156 127.61101531982422 41.616851806640625 130.6923370361328 C 46.119876861572266 132.04798889160156 46.450809478759766 136.19613647460938 50.061927795410156 138.2587432861328 C 50.884281158447266 142.38450622558594 61.91580581665039 143.80059814453125 62.47574996948242 141.82315063476562 C 62.02424621582031 136.66188049316406 63.01055145263672 133.8033447265625 62.772308349609375 126.19963073730469 C 66.4013671875 123.14193725585938 65.53255462646484 119.93071746826172 64.31377410888672 112.37043762207031 C 67.31777954101562 110.87152862548828 67.7068099975586 104.55996704101562 74.33103942871094 104.67045593261719 C 73.9973373413086 102.07971954345703 75.40327453613281 90.37108612060547 74.69902038574219 85.20848083496094 C 77.96622467041016 84.16064453125 79.26566314697266 73.28810119628906 85.75634002685547 73.42940521240234 C 82.95352172851562 70.1280288696289 84.8662338256836 67.60664367675781 86.21119689941406 68.52410888671875" stroke-width="0.0" fill="url(#shape_3_fill)"/>
    <path d="M 672.2548217773438 0.19485419988632202 C 674.2780151367188 49.168487548828125 674.0376586914062 96.31988525390625 675.0283203125 144.36122131347656 C 667.8560791015625 137.2671356201172 663.96484375 129.60671997070312 661.6006469726562 120.3614730834961 C 661.0172729492188 119.82933807373047 655.0848388671875 108.92318725585938 649.5948486328125 111.01249694824219 C 648.386474609375 112.49080657958984 643.4183959960938 146.41590881347656 640.4639892578125 152.65345764160156 C 633.0521240234375 153.93032836914062 627.554443359375 140.88168334960938 627.8990478515625 138.1049346923828 C 622.4942016601562 137.12806701660156 618.2153930664062 145.77391052246094 614.911376953125 144.25814819335938 C 611.3653564453125 141.97303771972656 610.4837646484375 144.01913452148438 608.099365234375 140.73158264160156 C 607.5929565429688 137.4111328125 608.3106079101562 133.51100158691406 602.574462890625 128.57296752929688 C 598.112060546875 133.6983642578125 597.6255493164062 139.48574829101562 595.1823120117188 144.556640625 C 595.2289428710938 149.00372314453125 593.268310546875 150.78041076660156 593.2229614257812 153.71127319335938 C 591.694580078125 159.70742797851562 589.87890625 166.74835205078125 581.7903442382812 169.99005126953125 C 571.4518432617188 170.07505798339844 569.6553955078125 160.5950927734375 568.9795532226562 157.4686737060547 C 566.38720703125 157.10348510742188 564.326904296875 153.33029174804688 561.397216796875 153.88563537597656 C 559.9921875 150.81134033203125 554.7189331054688 150.22683715820312 554.3184204101562 153.02349853515625 C 551.4725952148438 155.63656616210938 550.856201171875 159.22674560546875 548.3939819335938 161.5064239501953 C 546.557861328125 158.43858337402344 541.943359375 161.03466796875 535.8680419921875 154.52932739257812 C 531.6785278320312 154.63308715820312 529.8717651367188 157.7147674560547 524.201904296875 157.76219177246094 C 517.9957885742188 161.24598693847656 520.8672485351562 161.34434509277344 522.5612182617188 169.82070922851562 C 517.4768676757812 170.02606201171875 515.88671875 164.68087768554688 516.6096801757812 171.75198364257812 C 509.822021484375 173.3993377685547 512.1951293945312 175.09396362304688 505.68231201171875 174.33004760742188 C 503.1119689941406 171.2143096923828 502.9345703125 169.64825439453125 504.3107604980469 167.50216674804688 C 500.22003173828125 152.074462890625 514.2135620117188 127.9437484741211 523.6655883789062 130.5373992919922 C 524.7261962890625 125.42277526855469 538.977294921875 114.13238525390625 548.34716796875 112.68431091308594 C 558.3704833984375 110.36909484863281 556.0789184570312 109.73954772949219 556.386962890625 105.90723419189453 C 562.5955200195312 106.86651611328125 566.989990234375 105.05123901367188 571.8618774414062 105.3494873046875 C 574.7322387695312 102.8282241821289 573.4535522460938 97.52605438232422 578.9570922851562 94.1490249633789 C 581.273681640625 88.81629943847656 602.0728149414062 79.83796691894531 613.4352416992188 78.98847961425781 C 615.9130859375 72.67704772949219 641.857421875 49.40833282470703 643.9991455078125 35.258426666259766 C 644.9488525390625 32.42287063598633 647.9830932617188 30.375585556030273 647.594482421875 29.494474411010742 C 646.7537841796875 28.236618041992188 663.3360595703125 -4.022706031799316 672.2548217773438 0.19485419988632202" stroke-width="0.0" fill="url(#shape_4_fill)"/>
    <path d="M 151.63153076171875 68.59387969970703 C 152.3192138671875 68.91557312011719 187.72747802734375 82.60269927978516 193.0185089111328 90.38850402832031 C 179.2870635986328 116.88609313964844 215.52293395996094 153.38426208496094 220.68548583984375 154.83975219726562 C 239.13343811035156 169.61276245117188 242.91860961914062 184.63088989257812 241.22218322753906 194.1072998046875 C 237.7177734375 193.98672485351562 236.7769775390625 185.77944946289062 236.7360382080078 184.08351135253906 C 235.6429443359375 183.51768493652344 234.18460083007812 184.30520629882812 231.1708221435547 182.68626403808594 C 231.90455627441406 183.26837158203125 230.5663604736328 192.46206665039062 227.67909240722656 195.85043334960938 C 227.34222412109375 195.86541748046875 226.7546844482422 205.4984588623047 221.3271942138672 207.7565460205078 C 215.02891540527344 206.6149139404297 214.2562713623047 198.04141235351562 214.64772033691406 194.86312866210938 C 212.95840454101562 185.4246368408203 211.90066528320312 184.94979858398438 206.3752899169922 177.58676147460938 C 203.9653778076172 171.84796142578125 205.2989044189453 165.53976440429688 205.4156036376953 159.8299102783203 C 206.02157592773438 153.94583129882812 195.99774169921875 143.5532989501953 192.63189697265625 141.72235107421875 C 188.99285888671875 140.40087890625 188.8330078125 137.90647888183594 187.71910095214844 134.0148468017578 C 182.235107421875 130.9851531982422 183.59278869628906 123.33944702148438 183.65025329589844 118.0067367553711 C 178.8882293701172 116.09199523925781 177.93438720703125 117.89932250976562 173.73681640625 117.89590454101562 C 175.12673950195312 125.85628509521484 170.83900451660156 129.31394958496094 155.8397979736328 126.10999298095703 C 154.0552520751953 122.43250274658203 151.5047149658203 102.30475616455078 153.4214630126953 96.59095001220703 C 152.88717651367188 88.58906555175781 153.73699951171875 82.96060943603516 150.1472930908203 76.32516479492188 C 148.48692321777344 75.92744445800781 149.08935546875 69.32327270507812 151.63153076171875 68.59387969970703" stroke-width="0.0" fill="url(#shape_5_fill)"/>
    <path d="M 613.1818237304688 83.30523681640625 C 618.5840454101562 84.19246673583984 619.6241455078125 85.85335540771484 630.767822265625 85.9315414428711 C 636.8677368164062 85.93336486816406 638.2466430664062 87.57067108154297 641.258544921875 87.78434753417969 C 642.1495361328125 87.50919342041016 669.14404296875 91.85224151611328 673.4846801757812 98.52436828613281 C 673.6966552734375 112.56410217285156 673.3502197265625 128.72715759277344 673.6461181640625 143.17320251464844 C 670.0459594726562 138.10955810546875 666.1329345703125 133.1993865966797 662.4025268554688 127.06250762939453 C 660.486572265625 121.33721160888672 660.6536865234375 115.6256103515625 653.5419921875 111.83244323730469 C 647.7601928710938 116.62849426269531 645.0550537109375 142.3622283935547 642.04541015625 143.2724151611328 C 643.4050903320312 145.8240203857422 641.7449340820312 148.7649383544922 640.3987426757812 148.7672119140625 C 639.6807861328125 150.88551330566406 638.0916137695312 151.92233276367188 633.6951293945312 149.80877685546875 C 631.4157104492188 146.6200408935547 629.0277709960938 141.46060180664062 629.6608276367188 140.9866943359375 C 628.921875 138.0812530517578 623.8468017578125 137.0802001953125 620.8403930664062 138.57640075683594 C 618.2246704101562 140.55519104003906 619.2537841796875 142.35435485839844 618.7650146484375 144.1191864013672 C 614.5186157226562 144.47862243652344 614.15380859375 143.1199951171875 610.2583618164062 143.73977661132812 C 608.5596923828125 140.4033660888672 609.5979614257812 139.24795532226562 609.4014892578125 137.3958740234375 C 606.6620483398438 132.17825317382812 604.6900634765625 126.42943572998047 597.3583374023438 128.03997802734375 C 599.1594848632812 135.52279663085938 593.47021484375 148.9154052734375 592.2014770507812 157.74105834960938 C 590.7686767578125 163.94102478027344 589.490966796875 164.2110595703125 585.5596313476562 167.97760009765625 C 581.9421997070312 169.80679321289062 578.575927734375 169.2431182861328 575.101806640625 168.0482635498047 C 571.9359741210938 166.40098571777344 571.0975952148438 161.9736785888672 570.047607421875 157.99879455566406 C 568.8961181640625 153.87147521972656 557.7982177734375 152.44964599609375 556.30615234375 151.20541381835938 C 555.812744140625 152.8662872314453 553.0716552734375 154.7023162841797 552.8748168945312 157.7415313720703 C 550.2432861328125 161.14297485351562 547.6212768554688 160.6044464111328 547.5555419921875 160.1338348388672 C 541.9943237304688 159.36672973632812 539.3931884765625 156.7969207763672 536.1297607421875 156.9878692626953 C 534.8147583007812 158.11114501953125 531.3216552734375 156.24139404296875 528.5839233398438 157.97763061523438 C 525.7120361328125 158.9011993408203 526.3468627929688 161.78565979003906 524.4735107421875 164.5071563720703 C 523.7666015625 168.70265197753906 521.3897705078125 170.9038848876953 518.7749633789062 172.9138641357422 C 510.8539123535156 177.63284301757812 503.15118408203125 173.4585418701172 502.50054931640625 172.62155151367188 C 497.8401794433594 150.6547088623047 513.3281860351562 129.55703735351562 521.2361450195312 126.64671325683594 C 527.1714477539062 122.38667297363281 541.2732543945312 113.93970489501953 551.9424438476562 112.07906341552734 C 555.3605346679688 109.85277557373047 559.97216796875 109.70783233642578 563.7210083007812 106.65797424316406 C 564.638671875 104.54650115966797 566.8663330078125 103.60572052001953 569.6760864257812 103.8652114868164 C 574.9295043945312 101.49286651611328 578.2460327148438 96.99898529052734 583.1337280273438 93.8377914428711 C 592.1498413085938 85.4550552368164 600.5391845703125 79.12350463867188 613.1818237304688 83.30523681640625" stroke-width="0.0" fill="url(#shape_6_fill)"/>
    <path d="M 4.918612957000732 117.33016967773438 C 25.66651725769043 124.85794067382812 36.09454345703125 129.79515075683594 47.46819305419922 139.42044067382812 C 69.67048645019531 160.79656982421875 52.66310119628906 225.4738006591797 57.14458465576172 247.36026000976562 C 53.201087951660156 260.3069152832031 48.723873138427734 264.6842041015625 48.573280334472656 266.43023681640625 C 39.83324432373047 275.32684326171875 3.2098755836486816 271.4407653808594 0.7076131701469421 269.2743835449219 C 0.825507402420044 218.90969848632812 1.093970537185669 168.1919403076172 4.918612957000732 117.33016967773438" stroke-width="0.0" fill="url(#shape_7_fill)"/>
    <path d="M 394.2190246582031 180.1600341796875 C 410.3853454589844 173.95932006835938 426.466796875 191.92514038085938 432.3805236816406 210.8671875 C 466.46673583984375 199.31919860839844 489.1667175292969 213.45314025878906 491.5252685546875 236.9842071533203 C 490.988525390625 250.5375518798828 486.1759948730469 251.42083740234375 484.8504638671875 252.3411407470703 C 485.31634521484375 254.51312255859375 479.0793762207031 265.03521728515625 474.8359375 268.466796875 C 469.04205322265625 272.93182373046875 453.2201232910156 266.7105712890625 451.68328857421875 269.4809875488281 C 446.74755859375 266.27178955078125 448.3563537597656 261.43505859375 448.9402160644531 260.1947937011719 C 439.35162353515625 264.6242980957031 436.39276123046875 261.3258361816406 437.5262451171875 256.9929504394531 C 428.35736083984375 257.1300048828125 426.65911865234375 259.5729064941406 421.231201171875 262.24798583984375 C 418.5399169921875 264.2616271972656 417.4996032714844 267.5940856933594 414.69158935546875 269.7211608886719 C 414.2742614746094 268.94659423828125 397.84808349609375 267.9444274902344 392.5796813964844 264.14422607421875 C 391.83624267578125 265.1038513183594 389.0837707519531 263.31256103515625 386.0599365234375 263.5145263671875 C 382.1118469238281 261.9393615722656 380.8273620605469 263.1722106933594 376.709228515625 260.9517822265625 C 375.11151123046875 256.2756652832031 376.2662353515625 252.4348602294922 372.9459228515625 249.0850830078125 C 360.2454528808594 244.24974060058594 376.37945556640625 198.0504913330078 378.49951171875 182.55645751953125 C 383.796142578125 171.89369201660156 395.5743103027344 176.07150268554688 394.2190246582031 180.1600341796875" stroke-width="0.0" fill="url(#shape_8_fill)"/>
    <path d="M 565.629150390625 157.4058380126953 C 568.6045532226562 158.95761108398438 570.0491333007812 161.80946350097656 570.5368041992188 165.35133361816406 C 574.002197265625 169.51072692871094 573.3043823242188 170.7353515625 578.086669921875 174.49583435058594 C 581.7269897460938 173.5538330078125 582.9696044921875 175.9406280517578 582.9926147460938 180.99537658691406 C 575.7532958984375 178.95738220214844 572.7130126953125 225.63153076171875 577.2671508789062 226.96080017089844 C 577.5424194335938 229.569580078125 580.5718994140625 234.77081298828125 576.667724609375 240.78268432617188 C 568.65576171875 238.65261840820312 566.0951538085938 237.3659210205078 558.3843994140625 245.22369384765625 C 551.1928100585938 252.0796661376953 494.45623779296875 253.70037841796875 492.31317138671875 250.76589965820312 C 489.5931701660156 244.99667358398438 489.26422119140625 238.0805206298828 489.00982666015625 231.27780151367188 C 486.4515380859375 226.23165893554688 483.2023010253906 222.2618865966797 481.14495849609375 216.1155242919922 C 476.5370788574219 209.85765075683594 479.16070556640625 205.73471069335938 482.6243896484375 205.9619903564453 C 479.90435791015625 205.31747436523438 480.83294677734375 197.9579620361328 484.224853515625 196.88429260253906 C 491.8442687988281 196.1785125732422 491.8805236816406 192.5157470703125 494.2828063964844 188.54843139648438 C 494.5196533203125 174.0642852783203 497.73455810546875 174.039794921875 498.2738037109375 173.42086791992188 C 502.9176330566406 172.0128173828125 506.8018493652344 175.02769470214844 520.4852905273438 172.04173278808594 C 524.3567504882812 171.52159118652344 524.4470825195312 168.43417358398438 526.9298706054688 165.8656463623047 C 526.6253051757812 160.9350128173828 529.6669311523438 156.9223175048828 533.355224609375 158.67849731445312 C 537.6554565429688 161.82281494140625 541.4033813476562 162.44876098632812 542.2249755859375 163.92019653320312 C 545.3017578125 164.01646423339844 546.0250854492188 165.65280151367188 549.3817749023438 166.34507751464844 C 548.7540283203125 165.63323974609375 551.4271850585938 157.15518188476562 555.3565063476562 156.51651000976562 C 558.9393920898438 155.50848388671875 562.5110473632812 155.3009033203125 565.629150390625 157.4058380126953" stroke-width="0.0" fill="url(#shape_9_fill)"/>
    <path d="M 561.4976806640625 155.53936767578125 C 568.208984375 155.0322265625 570.48291015625 159.76431274414062 571.8021240234375 166.67323303222656 C 573.2807006835938 170.23806762695312 575.5126953125 171.20765686035156 578.6531372070312 176.40370178222656 C 579.4967041015625 178.0293731689453 578.3322143554688 187.2671356201172 577.2537231445312 191.5856475830078 C 571.6199340820312 196.97239685058594 571.9913330078125 230.3302459716797 577.9541625976562 230.91636657714844 C 575.8856811523438 230.9072723388672 575.7866821289062 236.8359375 572.0023193359375 238.06988525390625 C 559.44580078125 236.16827392578125 567.8121948242188 238.56661987304688 559.951171875 246.3441619873047 C 555.0211181640625 251.4319305419922 501.28204345703125 248.94166564941406 500.18377685546875 251.4722137451172 C 491.119140625 251.8102569580078 488.0194091796875 236.76702880859375 488.5583190917969 230.47129821777344 C 486.61737060546875 224.93382263183594 481.9873352050781 219.26895141601562 481.5072937011719 216.20448303222656 C 476.588134765625 213.70716857910156 477.0680847167969 211.44052124023438 476.6532897949219 205.5502166748047 C 476.37200927734375 202.47650146484375 482.2983093261719 198.94406127929688 483.4609680175781 197.04444885253906 C 490.97296142578125 196.6080322265625 494.69482421875 184.65194702148438 496.56793212890625 182.9540252685547 C 495.9456481933594 179.486328125 496.86871337890625 177.0037078857422 500.4314880371094 176.110595703125 C 507.4471130371094 175.48483276367188 514.556396484375 177.40110778808594 520.2296142578125 173.98475646972656 C 524.2857666015625 173.4175567626953 527.0700073242188 159.4248809814453 532.470703125 158.91488647460938 C 537.1810302734375 157.65396118164062 538.443359375 161.89222717285156 542.835693359375 165.3533172607422 C 545.1934814453125 164.89682006835938 548.6629638671875 166.11399841308594 550.9735717773438 163.1708984375 C 551.4034423828125 158.45167541503906 553.6797485351562 153.85342407226562 561.4976806640625 155.53936767578125" stroke-width="0.0" fill="url(#shape_10_fill)"/>
    <path d="M 449.5470275878906 108.48757934570312 C 454.0523681640625 109.15261840820312 456.414306640625 112.259033203125 460.4684143066406 113.72630310058594 C 463.52752685546875 116.8067855834961 468.9860534667969 117.41709899902344 472.3404235839844 119.64481353759766 C 488.36517333984375 124.53992462158203 488.800537109375 125.25039672851562 491.8407897949219 129.82681274414062 C 493.3758544921875 131.75189208984375 493.2257080078125 134.1414337158203 496.5131530761719 136.4354705810547 C 493.9426574707031 134.35116577148438 492.4928894042969 135.750244140625 487.98248291015625 134.21971130371094 C 484.1966247558594 133.22500610351562 482.4708251953125 135.19454956054688 479.0968933105469 134.59759521484375 C 474.6277770996094 135.84214782714844 471.4156494140625 134.215576171875 468.26885986328125 134.3568878173828 C 465.3149108886719 133.49484252929688 460.0486755371094 133.50221252441406 456.9408264160156 134.396728515625 C 452.434814453125 144.36451721191406 467.457763671875 154.85850524902344 479.96514892578125 158.03123474121094 C 476.1564025878906 176.60467529296875 475.3343811035156 177.15582275390625 469.6419372558594 180.69322204589844 C 466.653564453125 182.23501586914062 466.2640686035156 186.6665496826172 463.70489501953125 188.40353393554688 C 459.9373474121094 187.67959594726562 455.4447326660156 180.78355407714844 454.20166015625 177.4498748779297 C 448.2669372558594 179.4637451171875 447.52484130859375 182.69776916503906 439.87591552734375 183.1289825439453 C 439.51470947265625 183.8305206298828 435.9404296875 195.78196716308594 434.5003967285156 198.3920440673828 C 428.5859069824219 200.86105346679688 417.4957275390625 180.59632873535156 417.70135498046875 179.69256591796875 C 417.0046691894531 179.56614685058594 401.962890625 175.4977264404297 398.70843505859375 166.80799865722656 C 392.722900390625 168.1746368408203 385.7348937988281 175.9813232421875 381.2929382324219 173.02525329589844 C 382.32037353515625 165.0702667236328 384.4000244140625 143.89968872070312 392.18536376953125 140.72994995117188 C 397.8940734863281 137.4211883544922 399.3614501953125 129.6725616455078 402.1999206542969 123.11608123779297 C 411.6598205566406 101.00125885009766 429.1192321777344 104.9961166381836 449.5470275878906 108.48757934570312" stroke-width="0.0" fill="url(#shape_11_fill)"/>
    <path d="M 602.25244140625 128.53985595703125 C 605.98291015625 130.08651733398438 606.8734130859375 140.7863006591797 609.3436279296875 142.17848205566406 C 612.063720703125 144.44996643066406 612.1781005859375 147.7544403076172 614.5889282226562 151.5007781982422 C 618.76513671875 149.82391357421875 618.9067993164062 141.86233520507812 621.7047729492188 140.99420166015625 C 624.4086303710938 138.97805786132812 626.8983764648438 138.8322296142578 628.33935546875 140.14871215820312 C 627.7094116210938 142.1170196533203 629.4729614257812 144.58604431152344 629.71630859375 147.76438903808594 C 632.3067016601562 149.85752868652344 631.5696411132812 151.04331970214844 635.739990234375 154.1365509033203 C 640.3868408203125 156.23898315429688 639.0108642578125 162.03260803222656 640.72412109375 172.3652801513672 C 637.2882690429688 183.66970825195312 639.0636596679688 194.29823303222656 639.6299438476562 206.38014221191406 C 642.0584716796875 218.9936981201172 645.6784057617188 231.49940490722656 641.8552856445312 246.39715576171875 C 623.4439697265625 249.37814331054688 608.4014282226562 246.59695434570312 580.274658203125 248.13868713378906 C 576.51904296875 240.8372802734375 576.3250122070312 227.85049438476562 574.3847045898438 218.64195251464844 C 571.3597412109375 214.89199829101562 577.212890625 168.18714904785156 586.6965942382812 168.8186492919922 C 595.95751953125 161.79771423339844 597.9422607421875 142.07241821289062 598.691162109375 142.1210479736328 C 596.6781616210938 137.465087890625 597.4111938476562 135.79151916503906 602.25244140625 128.53985595703125" stroke-width="0.0" fill="url(#shape_12_fill)"/>
    <path d="M 403.988037109375 178.649169921875 C 420.7754211425781 177.0511932373047 436.365234375 211.10751342773438 429.8299865722656 216.76162719726562 C 419.6669616699219 231.0085906982422 423.58251953125 240.28443908691406 425.75579833984375 247.36058044433594 C 429.12774658203125 261.240478515625 419.0780334472656 263.89544677734375 415.18408203125 267.7007141113281 C 405.6822509765625 269.8345947265625 395.5150146484375 269.5324401855469 391.965087890625 268.3473205566406 C 385.7640686035156 263.32574462890625 383.6307067871094 264.449951171875 381.53729248046875 262.3009033203125 C 377.6849670410156 262.24676513671875 377.11712646484375 260.0177307128906 375.5868835449219 258.3936462402344 C 376.3258972167969 255.9481201171875 375.7214660644531 253.29989624023438 374.5140380859375 253.50527954101562 C 374.3592834472656 252.17965698242188 370.5284423828125 250.52159118652344 369.32666015625 251.33238220214844 C 364.5494384765625 240.6892852783203 366.6326904296875 226.212158203125 369.0336608886719 222.1608428955078 C 370.38922119140625 220.0091094970703 373.0496520996094 204.52183532714844 376.3374328613281 201.6985626220703 C 376.6570129394531 199.1698760986328 378.4425048828125 181.31565856933594 383.3101806640625 178.59130859375 C 391.1969909667969 173.927001953125 393.6298828125 174.40272521972656 403.988037109375 178.649169921875" stroke-width="0.0" fill="url(#shape_13_fill)"/>
    <path d="M 509.4263610839844 66.76564025878906 C 512.0134887695312 67.18821716308594 520.9110717773438 70.85860443115234 522.4570922851562 75.65013885498047 C 529.0325317382812 81.80011749267578 533.9224243164062 81.8041763305664 536.7518920898438 89.64530181884766 C 539.5973510742188 90.71090698242188 544.5449829101562 90.42455291748047 545.0233154296875 91.15396118164062 C 545.5357055664062 92.74470520019531 556.0988159179688 97.04679107666016 560.963623046875 96.00516510009766 C 564.0449829101562 97.94609069824219 567.6842651367188 97.2215805053711 568.3414306640625 99.87995910644531 C 566.2491455078125 104.62956237792969 553.3829956054688 111.31874084472656 546.9913940429688 109.92288970947266 C 541.7569580078125 112.15730285644531 539.398193359375 114.99561309814453 533.8616333007812 117.13324737548828 C 527.054931640625 119.95716857910156 525.5628051757812 120.59325408935547 515.377685546875 119.55621337890625 C 510.25653076171875 119.09431457519531 500.5183410644531 124.299560546875 499.57177734375 125.93648529052734 C 496.5896301269531 128.07177734375 493.3682556152344 128.45726013183594 488.9610290527344 128.44602966308594 C 489.7154235839844 125.18286895751953 468.7724304199219 119.13452911376953 468.0481262207031 118.15384674072266 C 463.2955322265625 117.7548828125 463.0909729003906 116.46446990966797 460.31658935546875 114.74175262451172 C 461.17401123046875 107.22724151611328 463.8985900878906 101.57976531982422 470.2703552246094 95.95005798339844 C 473.8320007324219 89.56478118896484 472.3655700683594 84.2803955078125 473.02001953125 82.01094818115234 C 474.5855407714844 70.93257904052734 475.3400573730469 70.38631439208984 478.2733154296875 66.39979553222656 C 479.0668029785156 64.23950958251953 482.68365478515625 64.1873550415039 484.4509582519531 62.34285354614258 C 493.41436767578125 62.54930877685547 500.92071533203125 63.68037796020508 509.4263610839844 66.76564025878906" stroke-width="0.0" fill="url(#shape_14_fill)"/>
    <path d="M 532.7760009765625 158.8271026611328 C 543.7791137695312 162.91221618652344 544.0278930664062 163.9078826904297 546.6994018554688 166.78182983398438 C 547.0139770507812 168.05433654785156 548.31884765625 170.26722717285156 544.5362548828125 182.2276611328125 C 543.1633911132812 189.86953735351562 539.82177734375 232.60238647460938 539.0804443359375 235.7158660888672 C 540.182373046875 237.10670471191406 541.1984252929688 250.72869873046875 514.9352416992188 253.6844024658203 C 502.02410888671875 252.11712646484375 485.30914306640625 246.09909057617188 487.96978759765625 229.97047424316406 C 477.7829895019531 217.31552124023438 477.2988586425781 203.987060546875 484.41937255859375 198.9801025390625 C 487.1766357421875 197.17355346679688 488.93194580078125 197.96192932128906 490.7942810058594 197.0496368408203 C 490.37432861328125 191.8452911376953 492.1193542480469 182.35403442382812 493.58563232421875 179.69154357910156 C 495.7588195800781 178.1461639404297 498.1302185058594 175.9201202392578 502.145263671875 176.05361938476562 C 507.29681396484375 175.65383911132812 511.5528869628906 179.49378967285156 522.6574096679688 172.56285095214844 C 525.54150390625 170.95420837402344 525.5386962890625 167.30430603027344 526.9551391601562 165.09609985351562 C 527.5883178710938 161.68359375 530.9038696289062 160.522216796875 532.7760009765625 158.8271026611328" stroke-width="0.0" fill="url(#shape_15_fill)"/>
    <path d="M 650.4149169921875 112.29898834228516 C 657.1981811523438 109.87847137451172 663.8247680664062 121.27444458007812 662.6873779296875 126.32190704345703 C 665.5479125976562 133.22933959960938 666.121826171875 139.44419860839844 673.6300659179688 148.63922119140625 C 675.7571411132812 179.73187255859375 673.9653930664062 212.3167724609375 674.5345458984375 248.6354522705078 C 670.1316528320312 246.0633087158203 651.6187133789062 253.38841247558594 642.47705078125 244.7032470703125 C 635.6602783203125 240.75216674804688 636.4185791015625 118.44547271728516 650.4149169921875 112.29898834228516" stroke-width="0.0" fill="url(#shape_16_fill)"/>
    <path d="M 599.7652587890625 129.56166076660156 C 603.5018920898438 127.49109649658203 608.4036865234375 131.3843536376953 607.0022583007812 133.93788146972656 C 608.4315185546875 135.0587158203125 608.5000610351562 138.9652557373047 611.2272338867188 147.41983032226562 C 621.8012084960938 138.33567810058594 620.6737060546875 232.27259826660156 616.5092163085938 243.540771484375 C 597.29052734375 251.80625915527344 576.7349853515625 246.69273376464844 581.4306030273438 236.51589965820312 C 563.1754150390625 225.8258056640625 594.1686401367188 151.12936401367188 599.7652587890625 129.56166076660156" stroke-width="0.0" fill="url(#shape_17_fill)"/>
    <path d="M 321.2561950683594 186.17877197265625 C 322.6319580078125 185.83738708496094 324.486083984375 187.59544372558594 327.1778259277344 188.60214233398438 C 332.2726135253906 189.30734252929688 337.107421875 188.90634155273438 340.17919921875 190.64320373535156 C 341.9183044433594 196.20974731445312 347.5974426269531 194.9474334716797 353.5782775878906 194.00758361816406 C 356.93280029296875 195.14193725585938 357.90252685546875 198.4943084716797 358.9247131347656 200.6632843017578 C 359.9101257324219 203.66990661621094 362.1034240722656 203.68670654296875 363.3580017089844 206.04312133789062 C 367.2581481933594 206.9433135986328 368.48028564453125 208.20114135742188 368.40008544921875 211.80599975585938 C 369.7747497558594 217.19947814941406 369.3301696777344 222.3018798828125 366.5290222167969 225.59771728515625 C 366.8443603515625 231.49107360839844 365.3730773925781 235.23695373535156 366.5757751464844 241.21072387695312 C 367.2984924316406 246.93080139160156 364.4560546875 255.39273071289062 355.7312927246094 254.50521850585938 C 353.1271057128906 254.8416290283203 330.8499450683594 254.79310607910156 324.34765625 254.31593322753906 C 313.5440368652344 255.4794921875 312.3241882324219 253.24261474609375 313.1128845214844 238.01739501953125 C 307.5189514160156 229.53807067871094 317.8129577636719 190.44261169433594 321.2561950683594 186.17877197265625" stroke-width="0.0" fill="url(#shape_18_fill)"/>
    <path d="M 480.8589172363281 216.4686737060547 C 491.05780029296875 242.0111083984375 495.26983642578125 248.67401123046875 478.635986328125 267.6816101074219 C 470.127685546875 277.947998046875 444.0051574707031 261.32696533203125 442.148193359375 261.66156005859375 C 438.6396789550781 260.632080078125 437.17938232421875 258.142333984375 432.59527587890625 257.9273986816406 C 429.6514587402344 258.1934814453125 427.6414489746094 257.7149353027344 426.52496337890625 254.35890197753906 C 420.3212585449219 246.41424560546875 419.12115478515625 237.17495727539062 422.45318603515625 228.48683166503906 C 423.926025390625 224.12265014648438 420.9491271972656 228.9043426513672 421.8072814941406 225.8149871826172 C 427.6856384277344 219.42259216308594 429.6620178222656 218.7666473388672 429.6056823730469 215.77003479003906 C 438.8346252441406 200.7312774658203 464.7710266113281 205.12161254882812 480.8589172363281 216.4686737060547" stroke-width="0.0" fill="url(#shape_19_fill)"/>
    <path d="M 673.6802978515625 -1.1966410875320435 C 674.6875 33.197059631347656 674.5001220703125 64.80923461914062 674.1740112304688 97.59331512451172 C 669.156494140625 96.26822662353516 653.1320190429688 86.38146209716797 642.8218383789062 91.17657470703125 C 638.6482543945312 89.60240173339844 638.3200073242188 85.78370666503906 638.00830078125 84.70387268066406 C 630.5844116210938 85.8131103515625 622.0823974609375 89.16151428222656 611.2326049804688 82.92491912841797 C 611.4775390625 78.99732208251953 613.9468994140625 75.73987579345703 615.634521484375 73.30004119873047 C 623.922119140625 70.99546813964844 651.1941528320312 26.68431854248047 649.9132080078125 22.41010284423828 C 655.98974609375 14.99487018585205 656.9996948242188 5.643887519836426 667.5733642578125 3.5841755867004395 C 669.7531127929688 2.6129448413848877 670.3095092773438 1.3242532014846802 673.6802978515625 -1.1966410875320435" stroke-width="0.0" fill="url(#shape_20_fill)"/>
    <path d="M 563.0665893554688 155.7536163330078 C 569.7037353515625 156.78675842285156 569.5680541992188 164.4196014404297 572.2645874023438 167.24610900878906 C 585.17138671875 166.5621337890625 573.8106689453125 230.39779663085938 574.7069702148438 238.86264038085938 C 570.1990966796875 239.7244415283203 565.8741455078125 242.2139892578125 564.615478515625 245.46482849121094 C 557.798583984375 249.1183319091797 542.9385986328125 250.97314453125 540.1318969726562 246.20852661132812 C 544.5303344726562 244.7484588623047 539.5548095703125 161.12039184570312 554.3314819335938 157.1519012451172 C 556.2974243164062 153.309326171875 558.3881225585938 153.50633239746094 563.0665893554688 155.7536163330078" stroke-width="0.0" fill="url(#shape_21_fill)"/>
    <path d="M 216.01470947265625 211.7246856689453 C 224.10829162597656 220.01023864746094 224.7481231689453 251.91824340820312 217.9676055908203 254.41860961914062 C 210.7503204345703 262.5014953613281 208.0043487548828 263.8049011230469 205.24517822265625 272.2005310058594 C 205.36781311035156 276.0277404785156 206.6102752685547 276.22998046875 206.83221435546875 280.0765686035156 C 207.04071044921875 283.18438720703125 204.078857421875 285.093017578125 200.81053161621094 284.7008972167969 C 201.67474365234375 283.2970275878906 196.66868591308594 265.85516357421875 189.88731384277344 263.40985107421875 C 186.7698974609375 260.6595458984375 184.59817504882812 261.5979309082031 181.7233123779297 260.15875244140625 C 181.07150268554688 260.7198181152344 178.7421112060547 260.6866149902344 177.18251037597656 256.32275390625 C 179.07041931152344 250.3367462158203 170.2484588623047 241.82717895507812 170.13424682617188 236.2421112060547 C 177.05374145507812 218.70863342285156 183.00521850585938 218.07693481445312 188.08522033691406 220.37828063964844 C 193.90008544921875 217.53900146484375 193.47076416015625 215.45944213867188 195.8942413330078 211.83447265625 C 196.31259155273438 207.34033203125 196.21597290039062 205.54647827148438 202.54324340820312 204.4696502685547 C 209.43333435058594 204.2470245361328 213.61424255371094 205.820556640625 216.01470947265625 211.7246856689453" stroke-width="0.0" fill="url(#shape_22_fill)"/>
    <path d="M 111.51930236816406 426.4244079589844 C 112.71837615966797 429.27276611328125 110.99524688720703 431.17999267578125 110.67548370361328 431.704345703125 C 106.60057067871094 435.956787109375 102.24356079101562 436.6289367675781 92.84832000732422 433.8087463378906 C 87.95709228515625 439.0812683105469 98.62266540527344 447.4513854980469 87.99646759033203 449.0672302246094 C 78.7392578125 445.0550842285156 46.81779479980469 447.8471374511719 25.11234474182129 449.4903564453125 C 13.831954002380371 446.34405517578125 14.038341522216797 439.8791809082031 17.188661575317383 435.9549560546875 C 34.541748046875 428.3359375 51.12017059326172 426.0901794433594 70.24308776855469 425.2734069824219 C 75.69427490234375 425.17620849609375 107.52320861816406 417.50750732421875 111.51930236816406 426.4244079589844" stroke-width="0.0" fill="url(#shape_23_fill)"/>
    <path d="M 196.5259246826172 122.88684844970703 C 201.46693420410156 122.9522933959961 211.24740600585938 142.951416015625 213.12820434570312 145.5632781982422 C 215.4422607421875 148.3095703125 218.4646453857422 149.76321411132812 219.7176055908203 153.70233154296875 C 227.56192016601562 157.1449737548828 248.19212341308594 179.9010009765625 244.36546325683594 199.6593475341797 C 239.0263214111328 199.648681640625 235.41268920898438 187.47012329101562 234.6517333984375 182.90061950683594 C 231.8940887451172 183.94810485839844 230.6880645751953 193.20089721679688 229.32655334472656 195.39532470703125 C 226.6438751220703 200.25921630859375 227.1035919189453 203.45193481445312 221.0628662109375 208.30250549316406 C 215.20843505859375 207.6037139892578 213.7493896484375 199.7689208984375 214.6468048095703 195.84326171875 C 212.7283172607422 189.4923553466797 212.69073486328125 182.78636169433594 207.293212890625 178.2978057861328 C 204.05226135253906 174.0229034423828 205.16339111328125 173.03900146484375 205.01768493652344 165.96408081054688 C 205.88714599609375 151.21690368652344 199.78424072265625 149.56544494628906 194.1836700439453 144.5326385498047 C 189.15576171875 140.0015106201172 189.87193298339844 127.38005828857422 196.5259246826172 122.88684844970703" stroke-width="0.0" fill="url(#shape_24_fill)"/>
    <path d="M 594.61083984375 413.65960693359375 C 597.114990234375 415.5473327636719 624.7523803710938 412.479248046875 627.7582397460938 418.95086669921875 C 628.4148559570312 420.80810546875 625.8267211914062 424.9233093261719 627.4585571289062 427.8243103027344 C 629.0257568359375 430.2610168457031 632.2623291015625 430.39990234375 633.8856201171875 435.8145446777344 C 615.5481567382812 446.5690612792969 579.017333984375 439.6864929199219 578.14697265625 430.8980712890625 C 571.1793823242188 423.0284118652344 574.235107421875 417.28173828125 575.0455322265625 414.6507873535156 C 580.4818115234375 410.3625183105469 587.192626953125 412.3988952636719 594.61083984375 413.65960693359375" stroke-width="0.0" fill="url(#shape_25_fill)"/>
    <path d="M 142.92784118652344 66.69293212890625 C 144.0784454345703 68.92496490478516 149.17129516601562 68.50828552246094 149.6302947998047 69.12982177734375 C 148.9097900390625 70.9061508178711 150.45782470703125 71.8202133178711 149.79042053222656 73.85433959960938 C 151.01634216308594 74.44991302490234 150.50277709960938 78.08763885498047 152.25259399414062 82.43421173095703 C 153.01097106933594 89.72647094726562 152.66348266601562 97.43572235107422 154.1171417236328 104.05296325683594 C 153.56805419921875 107.61583709716797 155.14077758789062 108.51482391357422 155.00022888183594 111.6731948852539 C 157.80731201171875 122.62353515625 155.28143310546875 133.8207244873047 150.3226776123047 133.22711181640625 C 140.14657592773438 130.0227813720703 133.576416015625 124.16357421875 125.64686584472656 117.31637573242188 C 122.48544311523438 114.39280700683594 124.74104309082031 109.80068969726562 126.92974090576172 107.16260528564453 C 128.83740234375 106.85236358642578 128.87771606445312 105.28522491455078 132.61895751953125 104.62046813964844 C 138.25550842285156 96.84027862548828 134.39674377441406 92.5619125366211 133.3546600341797 90.32718658447266 C 134.21278381347656 88.90106201171875 139.27700805664062 87.09630584716797 140.04483032226562 85.31037902832031 C 138.15660095214844 84.7535400390625 138.853515625 77.628173828125 139.47193908691406 77.43936157226562 C 143.47750854492188 76.61711883544922 142.67884826660156 70.19449615478516 142.92784118652344 66.69293212890625" stroke-width="0.0" fill="url(#shape_26_fill)"/>
    <path d="M 144.50543212890625 67.67062377929688 C 149.29742431640625 68.2358169555664 150.24708557128906 70.63606262207031 149.48226928710938 74.99069213867188 C 151.97288513183594 76.72484588623047 151.55804443359375 79.58521270751953 154.24501037597656 81.72183990478516 C 152.60635375976562 88.35311889648438 153.119873046875 96.05745697021484 153.20249938964844 103.94673919677734 C 154.636962890625 104.79505920410156 153.50457763671875 108.53746795654297 155.33180236816406 111.0628433227539 C 154.98849487304688 117.72727966308594 156.02032470703125 122.0829086303711 155.08926391601562 126.13428497314453 C 152.6823272705078 132.05410766601562 151.36447143554688 133.17416381835938 147.43841552734375 133.35011291503906 C 140.09584045410156 133.59188842773438 127.4683609008789 121.99274444580078 125.92997741699219 121.21642303466797 C 123.18010711669922 118.83306121826172 121.84139251708984 112.89618682861328 128.4846954345703 110.46968078613281 C 124.11468505859375 108.83686828613281 124.25708770751953 106.13935089111328 131.18829345703125 105.71652221679688 C 135.30508422851562 105.25589752197266 134.5048828125 91.53840637207031 135.00286865234375 89.57220458984375 C 139.28985595703125 87.07621002197266 138.40774536132812 84.58714294433594 138.28184509277344 81.69432830810547 C 139.08200073242188 77.47496795654297 140.35789489746094 76.79068756103516 141.60400390625 76.49150848388672 C 144.4971466064453 71.28184509277344 143.3537139892578 68.42646789550781 144.50543212890625 67.67062377929688" stroke-width="0.0" fill="url(#shape_27_fill)"/>
    <path d="M -0.3138182461261749 -0.26945391297340393 C 4.697674751281738 0.3795451819896698 9.643390655517578 -0.5233520865440369 16.429046630859375 -0.326544851064682 C 18.143644332885742 0.13891015946865082 18.663728713989258 12.476947784423828 30.34772300720215 19.87088394165039 C 29.0051326751709 24.511791229248047 27.063575744628906 24.8906307220459 26.657560348510742 28.378875732421875 C 31.79994773864746 32.93650817871094 38.44370651245117 33.75730895996094 40.4306640625 38.495880126953125 C 36.65443801879883 38.91455841064453 33.750831604003906 38.34844970703125 31.784120559692383 35.29956817626953 C 26.20065689086914 30.489850997924805 17.90903663635254 32.52048873901367 10.449301719665527 33.44651794433594 C 9.072664260864258 37.18021011352539 12.539908409118652 40.239315032958984 12.45100212097168 41.569557189941406 C 13.616995811462402 42.07362365722656 14.126461029052734 48.06418991088867 18.052913665771484 47.96072006225586 C 20.05843734741211 51.08110809326172 18.741601943969727 52.30331039428711 19.74762725830078 56.95501708984375 C 17.259281158447266 59.28430938720703 9.972207069396973 60.527015686035156 8.910137176513672 61.14857864379883 C 5.500095844268799 60.880306243896484 3.532439708709717 59.14298629760742 0.3250907361507416 59.432952880859375 C -0.31672003865242004 39.77663803100586 -0.32415565848350525 19.628976821899414 -0.3138182461261749 -0.26945391297340393" stroke-width="0.0" fill="url(#shape_28_fill)"/>
    <path d="M 298.37689208984375 196.7815399169922 C 297.2011413574219 198.6822052001953 299.4743957519531 202.0642547607422 300.3760070800781 207.01864624023438 C 300.4871826171875 209.57205200195312 317.4587097167969 234.07290649414062 311.3710632324219 250.10496520996094 C 309.8600769042969 250.99920654296875 309.07391357421875 253.99893188476562 306.3138122558594 254.999755859375 C 298.66644287109375 256.8009033203125 295.01025390625 256.8413391113281 285.2618408203125 255.9505615234375 C 284.6865234375 234.3652801513672 287.3168029785156 213.94696044921875 298.37689208984375 196.7815399169922" stroke-width="0.0" fill="url(#shape_29_fill)"/>
    <path d="M -0.48160699009895325 0.1565043032169342 C 4.430792808532715 0.45092466473579407 9.522920608520508 -0.41435644030570984 14.508978843688965 0.142812579870224 C 15.68225383758545 0.4967750310897827 16.11348533630371 5.598647594451904 16.105533599853516 8.071556091308594 C 18.985097885131836 10.751911163330078 22.24408721923828 18.69849395751953 27.293853759765625 20.503591537475586 C 28.461366653442383 22.772722244262695 25.43467140197754 27.37867546081543 24.65468978881836 31.323144912719727 C 21.153690338134766 33.06597137451172 15.901768684387207 32.68634796142578 7.911675453186035 34.36317443847656 C 9.565730094909668 35.45589828491211 8.604329109191895 38.07477951049805 11.532593727111816 40.356163024902344 C 13.030782699584961 42.92087936401367 12.582295417785645 48.628414154052734 15.551072120666504 50.58626937866211 C 18.202381134033203 51.70241165161133 19.383556365966797 53.705223083496094 18.054065704345703 56.57555389404297 C 12.123445510864258 59.682533264160156 7.153707504272461 60.3055305480957 0.24266870319843292 60.77433776855469 C -0.4020051062107086 39.93271255493164 -0.3533018231391907 19.750986099243164 -0.48160699009895325 0.1565043032169342" stroke-width="0.0" fill="url(#shape_30_fill)"/>
    <path d="M 544.1353759765625 72.58927917480469 C 549.2324829101562 71.40647888183594 581.8489379882812 84.48531341552734 585.5944213867188 87.30548858642578 C 582.3740844726562 93.6391372680664 579.9052734375 94.08639526367188 577.312255859375 98.2830581665039 C 573.239013671875 100.72288513183594 572.1405639648438 99.98890686035156 569.5230102539062 97.42024993896484 C 566.9450073242188 95.95904541015625 544.9195556640625 93.20599365234375 538.5184326171875 88.50634002685547 C 538.5803833007812 85.4891357421875 537.4722290039062 83.35607147216797 535.5594482421875 82.61665344238281 C 535.0383911132812 79.2256851196289 531.1997680664062 79.04161834716797 527.4163208007812 77.95220947265625 C 524.875244140625 75.98035430908203 527.891845703125 70.87519073486328 530.5629272460938 69.80345916748047 C 535.0803833007812 67.5434799194336 539.5213623046875 69.68451690673828 544.1353759765625 72.58927917480469" stroke-width="0.0" fill="url(#shape_31_fill)"/>
    <path d="M 448.5127258300781 263.93896484375 C 450.65167236328125 265.27490234375 451.3423156738281 266.6830139160156 456.0169372558594 267.6402893066406 C 461.162353515625 267.09588623046875 466.082275390625 269.4532165527344 469.9083251953125 273.315673828125 C 470.4403076171875 275.6504211425781 471.8192443847656 276.8751220703125 471.6728820800781 280.664794921875 C 448.11785888671875 288.2147216796875 428.1684265136719 285.41339111328125 416.173828125 284.0536193847656 C 413.38458251953125 273.9103698730469 415.325439453125 272.3643493652344 415.7366943359375 268.26947021484375 C 418.1891174316406 267.2062683105469 417.78045654296875 264.80865478515625 419.3296813964844 263.0561828613281 C 428.8847961425781 254.3060760498047 439.0194396972656 258.6259460449219 448.5127258300781 263.93896484375" stroke-width="0.0" fill="url(#shape_32_fill)"/>
    <path d="M 269.6013488769531 190.54603576660156 C 281.2626953125 191.16786193847656 283.5355529785156 241.59837341308594 278.5622863769531 243.90980529785156 C 276.9189758300781 247.19052124023438 273.79644775390625 246.64634704589844 269.9572448730469 248.2748260498047 C 266.4742431640625 245.80792236328125 266.8240966796875 241.94528198242188 265.0592346191406 240.38824462890625 C 259.15557861328125 207.18255615234375 259.9081115722656 201.36195373535156 269.6013488769531 190.54603576660156" stroke-width="0.0" fill="url(#shape_33_fill)"/>
    <path d="M 253.04855346679688 425.6286926269531 C 254.9925079345703 428.6364440917969 262.2940673828125 433.1361389160156 261.7880554199219 438.46112060546875 C 259.667236328125 440.69635009765625 259.4432678222656 443.8959655761719 252.01048278808594 444.4278259277344 C 246.7041473388672 444.0438232421875 220.30812072753906 446.6390380859375 212.59982299804688 444.5343322753906 C 213.0261993408203 436.9945373535156 213.9585418701172 436.2236328125 215.94064331054688 434.4772644042969 C 216.1514892578125 433.3829345703125 225.0113525390625 433.3641662597656 226.60179138183594 430.29132080078125 C 233.1190643310547 426.004638671875 242.71331787109375 423.6837463378906 253.04855346679688 425.6286926269531" stroke-width="0.0" fill="url(#shape_34_fill)"/>
    <path d="M 105.48564910888672 69.92282104492188 C 109.44849395751953 70.0790023803711 112.48382568359375 78.24182891845703 110.14384460449219 83.56739044189453 C 115.62118530273438 85.82156372070312 116.9007568359375 110.29885864257812 116.9701156616211 110.9224853515625 C 115.86715698242188 112.36378479003906 110.19747924804688 112.59369659423828 108.57683563232422 116.55136108398438 C 105.50054931640625 116.53369140625 96.73651123046875 118.7110824584961 92.60912322998047 112.98039245605469 C 91.99954223632812 85.5683364868164 103.60869598388672 84.18531036376953 105.48564910888672 69.92282104492188" stroke-width="0.0" fill="url(#shape_35_fill)"/>
    <path d="M 452.062255859375 178.50352478027344 C 453.34307861328125 175.90603637695312 456.6105041503906 177.377685546875 457.0266418457031 179.66549682617188 C 457.7816162109375 179.66424560546875 457.9244384765625 183.9512481689453 459.6665344238281 185.18331909179688 C 459.1562805175781 189.90284729003906 462.72967529296875 193.47927856445312 460.76666259765625 205.2548828125 C 458.5829772949219 207.8894805908203 454.25067138671875 207.50453186035156 449.5631103515625 206.15475463867188 C 441.0203552246094 207.37232971191406 440.15936279296875 208.9612579345703 435.55377197265625 209.24757385253906 C 433.623779296875 208.27099609375 437.1143493652344 188.62033081054688 439.8605651855469 185.7224578857422 C 441.438720703125 182.16140747070312 445.6086730957031 182.5913543701172 447.0810546875 180.87144470214844 C 449.0047607421875 177.33349609375 449.4127197265625 180.41795349121094 452.062255859375 178.50352478027344" stroke-width="0.0" fill="url(#shape_36_fill)"/>
    <path d="M 556.6463623046875 82.31320190429688 C 563.2801513671875 80.8006591796875 582.911376953125 82.92933654785156 576.8897094726562 83.6380615234375 C 582.6436157226562 83.22187805175781 586.7048950195312 84.56770324707031 586.9434814453125 87.35570526123047 C 586.5043334960938 90.36955261230469 579.3123168945312 96.87590789794922 574.3831176757812 99.9898910522461 C 573.8050537109375 99.34381103515625 549.306884765625 96.40635681152344 541.3702392578125 85.41141510009766 C 538.7135009765625 85.41705322265625 538.2714233398438 80.6064453125 538.4728393554688 79.99118041992188 C 543.8152465820312 78.44573211669922 550.3267822265625 79.62921142578125 556.6463623046875 82.31320190429688" stroke-width="0.0" fill="url(#shape_37_fill)"/>
    <path d="M 249.65782165527344 207.34483337402344 C 260.37017822265625 211.3026885986328 256.1516418457031 245.40126037597656 257.5240478515625 246.99383544921875 C 253.99586486816406 254.0107421875 249.91485595703125 253.3188934326172 247.3876190185547 254.84332275390625 C 238.05738830566406 241.97940063476562 244.6444854736328 210.40353393554688 249.65782165527344 207.34483337402344" stroke-width="0.0" fill="url(#shape_38_fill)"/>
    <path d="M 445.5182189941406 261.0364074707031 C 445.9711608886719 263.48699951171875 449.0934143066406 266.59454345703125 447.64361572265625 270.1011962890625 C 443.9756774902344 270.3240051269531 442.5610656738281 276.9034729003906 440.8214111328125 279.9975891113281 C 440.72369384765625 286.4693603515625 416.59808349609375 286.2635803222656 415.1939392089844 280.8115234375 C 415.1748962402344 276.6286315917969 413.0736389160156 274.5966491699219 415.5598449707031 271.7141418457031 C 414.5259094238281 269.8202819824219 418.11676025390625 260.9670715332031 422.6124267578125 258.52886962890625 C 430.5251159667969 254.7072296142578 437.82135009765625 256.784912109375 445.5182189941406 261.0364074707031" stroke-width="0.0" fill="url(#shape_39_fill)"/>
    <path d="M 407.7413330078125 409.7717590332031 C 408.6857604980469 409.87939453125 416.7701110839844 419.02227783203125 413.4314880371094 424.0306396484375 C 397.0810852050781 431.9788818359375 380.8172607421875 420.4368591308594 377.4977111816406 420.1176452636719 C 369.822265625 417.5499572753906 372.1277160644531 417.0178527832031 373.3593444824219 412.12066650390625 C 379.9329528808594 405.0022277832031 398.8564147949219 404.46484375 407.7413330078125 409.7717590332031" stroke-width="0.0" fill="url(#shape_40_fill)"/>
    <path d="M 66.13259887695312 427.9265441894531 C 67.87803649902344 428.8800964355469 65.04801940917969 435.6505432128906 60.03537368774414 436.2879943847656 C 58.60572052001953 437.23748779296875 42.2506217956543 437.668212890625 34.57029724121094 444.7673645019531 C 29.89690399169922 444.21173095703125 24.585712432861328 447.4744567871094 17.039676666259766 443.6553649902344 C 16.565454483032227 440.6355895996094 17.573331832885742 439.2051696777344 16.60222053527832 436.2567443847656 C 32.60636520385742 427.6988220214844 56.774681091308594 426.2869873046875 66.13259887695312 427.9265441894531" stroke-width="0.0" fill="url(#shape_41_fill)"/>
    <path d="M 277.4835510253906 386.5144958496094 C 280.0375061035156 386.3307800292969 292.23004150390625 386.9721984863281 295.46917724609375 391.17974853515625 C 297.87298583984375 394.115966796875 299.7254638671875 398.925537109375 293.86065673828125 403.61163330078125 C 292.1612243652344 397.6505126953125 264.45098876953125 402.64532470703125 259.84906005859375 401.2029113769531 C 256.5672912597656 400.3750305175781 255.66392517089844 390.1680908203125 258.9064025878906 388.04473876953125 C 265.128662109375 386.31597900390625 271.0277099609375 386.7413330078125 277.4835510253906 386.5144958496094" stroke-width="0.0" fill="url(#shape_42_fill)"/>
    <path d="M 220.45416259765625 224.25791931152344 C 222.4237060546875 223.13931274414062 227.22079467773438 223.3863983154297 232.33631896972656 224.9032745361328 C 235.08859252929688 228.0591278076172 241.05160522460938 245.6078643798828 238.9368896484375 253.8537139892578 C 235.61984252929688 259.1292724609375 228.2240447998047 259.2907409667969 222.69680786132812 259.37628173828125 C 217.98883056640625 257.5692138671875 217.4605712890625 256.8356018066406 217.71861267089844 248.0391845703125 C 219.59889221191406 246.48455810546875 217.67202758789062 226.2523651123047 220.45416259765625 224.25791931152344" stroke-width="0.0" fill="url(#shape_43_fill)"/>
    <path d="M 483.9757995605469 395.29144287109375 C 486.8380432128906 399.8263854980469 485.83056640625 400.989013671875 483.5894775390625 401.28302001953125 C 476.7925109863281 409.23211669921875 452.50897216796875 409.1610412597656 450.66461181640625 407.4279479980469 C 448.0195007324219 404.4244689941406 451.58563232421875 396.1724853515625 453.58245849609375 396.42919921875 C 461.09735107421875 391.2965087890625 475.2525939941406 390.9691467285156 483.9757995605469 395.29144287109375" stroke-width="0.0" fill="url(#shape_44_fill)"/>
    <path d="M 46.11124801635742 406.3536376953125 C 45.647499084472656 410.1792297363281 36.131038665771484 412.6754150390625 35.32773208618164 414.70166015625 C 32.89533233642578 414.7703552246094 32.578514099121094 416.2215881347656 29.8546199798584 416.80999755859375 C 28.204675674438477 418.24420166015625 25.30396842956543 418.2044677734375 21.890472412109375 421.4460144042969 C 14.694039344787598 419.7875061035156 4.097004413604736 416.759033203125 -0.8527656197547913 420.8335876464844 C 0.5999694466590881 419.5909423828125 -0.8432044386863708 410.19110107421875 0.3557600677013397 409.5007629394531 C 8.375146865844727 409.0870666503906 42.35358428955078 407.822021484375 46.11124801635742 406.3536376953125" stroke-width="0.0" fill="url(#shape_45_fill)"/>
    <path d="M 452.09307861328125 175.26182556152344 C 456.9601745605469 174.60704040527344 465.4534912109375 197.02296447753906 464.57366943359375 201.65660095214844 C 462.5721435546875 209.6584014892578 451.6907958984375 209.62693786621094 449.47503662109375 206.7734375 C 448.3294677734375 203.24815368652344 449.0513916015625 198.31361389160156 448.8436584472656 195.30001831054688 C 447.9385070800781 194.54310607910156 447.6142578125 192.2071990966797 448.4949951171875 187.7393798828125 C 448.5361022949219 185.29698181152344 448.83685302734375 182.8562469482422 452.09307861328125 175.26182556152344" stroke-width="0.0" fill="url(#shape_46_fill)"/>
    <path d="M 376.0470275878906 184.7179412841797 C 376.4643249511719 188.20358276367188 376.8011474609375 204.8391876220703 372.7373352050781 206.65892028808594 C 365.86090087890625 206.82498168945312 364.7774353027344 204.85304260253906 361.8633117675781 203.20993041992188 C 355.6102294921875 202.16946411132812 353.2928161621094 198.54583740234375 354.56634521484375 188.32664489746094 C 356.6391906738281 184.94073486328125 358.3613586425781 184.40513610839844 365.05303955078125 185.32032775878906 C 368.8695068359375 184.635498046875 373.1234130859375 183.14007568359375 376.0470275878906 184.7179412841797" stroke-width="0.0" fill="url(#shape_47_fill)"/>
    <path d="M 468.2477722167969 269.59661865234375 C 470.4384765625 270.4375 474.3428955078125 271.68414306640625 473.2936706542969 282.5270080566406 C 463.7657165527344 286.5404052734375 456.0608215332031 283.9681396484375 444.3733215332031 284.7271728515625 C 439.30322265625 282.2073059082031 440.0006408691406 276.95501708984375 441.2399597167969 276.50140380859375 C 448.45440673828125 267.6239318847656 456.2633361816406 268.01513671875 468.2477722167969 269.59661865234375" stroke-width="0.0" fill="url(#shape_48_fill)"/>
    <path d="M 176.81533813476562 119.27216339111328 C 179.30294799804688 116.31527709960938 181.72174072265625 117.68431091308594 183.5003204345703 117.49308013916016 C 184.69752502441406 120.205322265625 183.8553466796875 122.34187316894531 185.1431427001953 126.45833587646484 C 181.7622833251953 133.83096313476562 185.60885620117188 138.31137084960938 184.49609375 142.83657836914062 C 181.98599243164062 147.96852111816406 173.58119201660156 146.22984313964844 171.08694458007812 146.59378051757812 C 170.68882751464844 126.14030456542969 169.2838134765625 122.1563949584961 176.81533813476562 119.27216339111328" stroke-width="0.0" fill="url(#shape_49_fill)"/>
    <path d="M 333.7195129394531 428.0832824707031 C 337.28778076171875 428.4189147949219 340.6682434082031 429.5468444824219 342.82611083984375 432.092529296875 C 346.3607177734375 435.598876953125 345.14874267578125 437.2366027832031 342.4494934082031 437.603271484375 C 342.7497863769531 444.73077392578125 323.49847412109375 446.7833251953125 321.540771484375 441.1052551269531 C 317.8042907714844 439.30108642578125 316.88470458984375 433.349365234375 316.3742370605469 430.4812316894531 C 321.4351501464844 425.33892822265625 327.5696105957031 425.9431457519531 333.7195129394531 428.0832824707031" stroke-width="0.0" fill="url(#shape_50_fill)"/>
    <path d="M 296.6259460449219 389.6073913574219 C 297.64178466796875 394.77789306640625 296.2049865722656 398.939453125 289.42962646484375 398.2930908203125 C 285.9819641113281 398.8312072753906 283.3251037597656 400.44000244140625 271.40118408203125 402.7178649902344 C 271.0270080566406 401.6230163574219 269.4790954589844 399.0050964355469 270.928466796875 397.469970703125 C 269.8570251464844 395.49945068359375 272.8863525390625 387.9813232421875 277.99554443359375 389.3652648925781 C 284.3985595703125 387.2094421386719 289.77679443359375 386.6744079589844 296.6259460449219 389.6073913574219" stroke-width="0.0" fill="url(#shape_51_fill)"/>
    <path d="M 271.29913330078125 190.69772338867188 C 277.36077880859375 195.39503479003906 278.4612121582031 206.28892517089844 280.0208435058594 212.89849853515625 C 271.0826416015625 211.99330139160156 265.41796875 210.2843475341797 261.52520751953125 212.5181884765625 C 260.38934326171875 205.85118103027344 263.89898681640625 196.77210998535156 266.1591491699219 194.14541625976562 C 269.0845642089844 194.72850036621094 270.2254638671875 192.4969940185547 271.29913330078125 190.69772338867188" stroke-width="0.0" fill="url(#shape_52_fill)"/>
    <path d="M 217.61878967285156 410.3765563964844 C 215.17251586914062 409.48333740234375 216.12794494628906 412.89776611328125 214.34716796875 414.52734375 C 213.50384521484375 417.6850891113281 189.06932067871094 421.0235595703125 187.48556518554688 415.6612854003906 C 186.273193359375 408.3567810058594 205.68850708007812 401.533203125 217.61878967285156 410.3765563964844" stroke-width="0.0" fill="url(#shape_53_fill)"/>
    <path d="M 205.74075317382812 424.6274719238281 C 205.35174560546875 425.4250183105469 206.21800231933594 428.6319580078125 204.54287719726562 429.66461181640625 C 201.3711395263672 433.85186767578125 178.8426513671875 433.7342224121094 177.89488220214844 432.8281555175781 C 176.64227294921875 430.950927734375 178.1330108642578 425.9306640625 176.67953491210938 423.93719482421875 C 186.20542907714844 420.3995666503906 196.62396240234375 422.51422119140625 205.74075317382812 424.6274719238281" stroke-width="0.0" fill="url(#shape_54_fill)"/>
    <path d="M 270.8865051269531 245.05850219726562 C 275.4222106933594 244.77552795410156 276.6390380859375 245.62489318847656 279.9769287109375 248.17227172851562 C 280.29461669921875 250.95925903320312 279.384765625 255.83255004882812 281.26800537109375 256.66064453125 C 263.4640197753906 257.849609375 262.9266052246094 257.1398620605469 255.5600128173828 255.34426879882812 C 254.8756866455078 248.17066955566406 255.851318359375 247.2312774658203 258.6274108886719 245.4354248046875 C 261.65301513671875 241.3625946044922 266.6453552246094 242.5359344482422 270.8865051269531 245.05850219726562" stroke-width="0.0" fill="url(#shape_55_fill)"/>
    <path d="M 272.518798828125 365.110107421875 C 276.84600830078125 365.9232177734375 281.3719787597656 363.73028564453125 284.3818359375 368.1430358886719 C 285.4048767089844 369.251953125 285.4459228515625 371.6720886230469 281.8813171386719 376.3184509277344 C 275.4828796386719 376.28643798828125 265.3733825683594 378.8051452636719 255.7660675048828 376.94073486328125 C 252.1202392578125 373.96002197265625 253.65675354003906 368.5684509277344 254.96778869628906 367.6757507324219 C 260.8573913574219 366.10491943359375 267.2080383300781 365.44610595703125 272.518798828125 365.110107421875" stroke-width="0.0" fill="url(#shape_56_fill)"/>
    <path d="M 409.42425537109375 271.6687316894531 C 412.6466979980469 270.12451171875 416.712646484375 275.3318176269531 414.8184509277344 279.669677734375 C 410.5796203613281 287.0400390625 399.8814392089844 283.88763427734375 392.6014099121094 285.6356506347656 C 391.0399169921875 275.389404296875 399.6435852050781 269.5047912597656 409.42425537109375 271.6687316894531" stroke-width="0.0" fill="url(#shape_57_fill)"/>
    <path d="M 632.3890991210938 353.0126953125 C 632.523193359375 353.1514587402344 660.03662109375 353.0247497558594 668.6677856445312 353.26971435546875 C 668.4959106445312 358.4086608886719 662.3714599609375 360.88372802734375 656.3681640625 359.0135498046875 C 654.1535034179688 358.5039367675781 634.1119995117188 361.3660583496094 631.424560546875 361.12347412109375 C 627.7432250976562 357.1518859863281 629.283203125 353.56219482421875 632.3890991210938 353.0126953125" stroke-width="0.0" fill="url(#shape_58_fill)"/>
    <path d="M 342.05340576171875 385.7821044921875 C 341.94769287109375 390.22625732421875 358.1202392578125 391.25531005859375 359.1575927734375 394.85699462890625 C 356.367919921875 400.0347595214844 342.1019592285156 401.23870849609375 338.45819091796875 399.50750732421875 C 335.1449890136719 399.5966491699219 333.0931396484375 398.7664489746094 331.8794250488281 396.5330810546875 C 331.9871520996094 394.9319152832031 330.7587585449219 393.4818420410156 332.45794677734375 390.6477966308594 C 336.0428161621094 387.638427734375 339.8469543457031 388.29791259765625 342.05340576171875 385.7821044921875" stroke-width="0.0" fill="url(#shape_59_fill)"/>
    <path d="M 461.1695556640625 364.3169860839844 C 465.41876220703125 362.4095153808594 472.2353820800781 366.8007507324219 472.6353759765625 372.7832336425781 C 471.5877990722656 377.7205810546875 470.6094970703125 375.5871887207031 463.1021423339844 375.9334411621094 C 460.319580078125 378.4363708496094 453.566650390625 379.4119873046875 451.136962890625 372.48968505859375 C 450.8267822265625 367.279052734375 457.02099609375 363.5198059082031 461.1695556640625 364.3169860839844" stroke-width="0.0" fill="url(#shape_60_fill)"/>
    <path d="M 437.41998291015625 432.8621520996094 C 440.2941589355469 434.2360534667969 442.4957275390625 436.31268310546875 441.9851989746094 439.1346435546875 C 440.51031494140625 442.45697021484375 430.2229919433594 441.181396484375 425.8926696777344 442.51153564453125 C 422.5350646972656 438.0744323730469 424.1600341796875 434.4637756347656 424.1671447753906 432.96258544921875 C 428.7158203125 431.35028076171875 433.6759338378906 431.7709045410156 437.41998291015625 432.8621520996094" stroke-width="0.0" fill="url(#shape_61_fill)"/>
    <path d="M 185.43043518066406 411.4579772949219 C 186.2591552734375 413.9327087402344 185.01206970214844 414.7916259765625 186.9062042236328 417.98687744140625 C 184.8418731689453 420.0985412597656 183.42813110351562 419.5602722167969 182.2989959716797 419.649169921875 C 180.37857055664062 420.9048767089844 174.91053771972656 421.1726989746094 171.13380432128906 420.2935791015625 C 169.50924682617188 417.9258117675781 169.7451934814453 415.6378173828125 172.24264526367188 414.4786682128906 C 176.47451782226562 411.858642578125 180.300048828125 410.4684753417969 185.43043518066406 411.4579772949219" stroke-width="0.0" fill="url(#shape_62_fill)"/>
    <path d="M 332.5765075683594 418.2448425292969 C 335.0333251953125 426.2394104003906 329.8470764160156 428.0814514160156 327.3544921875 426.17431640625 C 324.61541748046875 427.78826904296875 323.0115966796875 426.7505798339844 320.2890625 427.6971740722656 C 318.66253662109375 426.0562438964844 319.5943603515625 419.9852294921875 317.79583740234375 418.42303466796875 C 322.79388427734375 418.6052551269531 325.9219970703125 417.3963928222656 332.5765075683594 418.2448425292969" stroke-width="0.0" fill="url(#shape_63_fill)"/>
    <path d="M 55.393836975097656 273.9385070800781 C 56.4346923828125 270.8142395019531 65.97920227050781 272.40936279296875 66.17766571044922 280.2059326171875 C 61.43923568725586 278.8872985839844 51.99617004394531 275.466796875 48.081058502197266 276.93609619140625 C 49.57307434082031 272.85455322265625 52.27964401245117 272.29827880859375 55.393836975097656 273.9385070800781" stroke-width="0.0" fill="url(#shape_64_fill)"/>
    <path d="M 304.25482177734375 438.4987487792969 C 304.43304443359375 436.98883056640625 305.7828063964844 436.02923583984375 313.16259765625 436.82220458984375 C 314.7904968261719 438.9393310546875 313.29400634765625 441.7569274902344 311.62640380859375 443.9864501953125 C 307.8504638671875 445.4440612792969 306.7879333496094 444.24688720703125 304.8008117675781 445.5548095703125 C 303.0652770996094 441.4863586425781 302.2560729980469 439.48748779296875 304.25482177734375 438.4987487792969" stroke-width="0.0" fill="url(#shape_65_fill)"/>
    <path d="M 1.6310062408447266 0.3175283968448639 C 223.03456115722656 0.36728665232658386 443.4469299316406 0.5684366822242737 673.38720703125 0.9739904999732971 C 673.968994140625 149.0022735595703 674.154541015625 293.9081726074219 673.2818603515625 445.30438232421875 C 450.1806945800781 445.9947509765625 230.91278076171875 445.97955322265625 0.8207710981369019 445.20794677734375 C 0.21468453109264374 297.0443420410156 -0.040185123682022095 150.33041381835938 1.6310062408447266 0.3175283968448639" stroke-width="0.0" fill="url(#shape_66_fill)"/>
    <path d="M 1.4314881563186646 0.6144869923591614 C 222.86703491210938 0.30510056018829346 443.3620300292969 0.5280159711837769 673.3590087890625 0.8765141367912292 C 674.0027465820312 149.11048889160156 674.1591186523438 293.6961364746094 673.1416625976562 445.08673095703125 C 449.75799560546875 445.8431091308594 231.1193084716797 445.8493957519531 0.9572030305862427 445.02264404296875 C 0.23645806312561035 296.7857360839844 -0.09697334468364716 149.55859375 1.4314881563186646 0.6144869923591614" stroke-width="0.0" fill="url(#shape_67_fill)"/>
    <path d="M -0.20385532081127167 0.4774932861328125 C 223.1052703857422 0.32620495557785034 443.5015869140625 0.6210185885429382 673.3543090820312 0.5043452978134155 C 673.9903564453125 149.15919494628906 674.1561279296875 293.7016296386719 673.1390380859375 445.06158447265625 C 449.74884033203125 445.8617248535156 231.15399169921875 445.860107421875 1.1280121803283691 445.00421142578125 C 0.29133301973342896 296.43408203125 -0.03451407700777054 149.41517639160156 -0.20385532081127167 0.4774932861328125" stroke-width="0.0" fill="url(#shape_68_fill)"/>
  </g>
</svg>
