<?xml version="1.0" ?>
<svg xmlns="http://www.w3.org/2000/svg" version="1.1" width="674" height="446">
  <defs>
    <radialGradient id="shape_0_fill" cx="0.5382283830501206" cy="0.7438380493711463" r="0.27528546613472504">
      <stop offset="0.45656377" stop-color="rgb(216, 246, 0)" stop-opacity="1.0"/>
      <stop offset="1.0" stop-color="rgb(90, 18, 0)" stop-opacity="1.0"/>
    </radialGradient>
    <radialGradient id="shape_1_fill" cx="0.539061458598966" cy="0.7467724582004974" r="0.2054622661466061">
      <stop offset="0.70493627" stop-color="rgb(94, 106, 34)" stop-opacity="1.0"/>
      <stop offset="1.0" stop-color="rgb(27, 1, 0)" stop-opacity="0.8422142267227173"/>
    </radialGradient>
    <radialGradient id="shape_2_fill" cx="0.09792284866468842" cy="0.7376681614349776" r="0.22062588021026522">
      <stop offset="4.129301e-05" stop-color="rgb(30, 90, 182)" stop-opacity="0.9999309778213501"/>
      <stop offset="1.0" stop-color="rgb(0, 117, 255)" stop-opacity="0.9976954460144043"/>
    </radialGradient>
    <radialGradient id="shape_3_fill" cx="0.2749812185587444" cy="0.21575616400338074" r="0.12599265893772024">
      <stop offset="0.37279108" stop-color="rgb(159, 213, 1)" stop-opacity="0.9997632503509521"/>
      <stop offset="1.0" stop-color="rgb(40, 42, 0)" stop-opacity="1.0"/>
    </radialGradient>
    <radialGradient id="shape_4_fill" cx="0.1543026706231454" cy="0.9977578475336323" r="0.10288926755639141">
      <stop offset="0.0" stop-color="rgb(81, 79, 86)" stop-opacity="1.0"/>
      <stop offset="1.0" stop-color="rgb(145, 62, 98)" stop-opacity="0.9319129586219788"/>
    </radialGradient>
    <radialGradient id="shape_5_fill" cx="0.14808102389825203" cy="0.2399722214771493" r="0.11810780420501438">
      <stop offset="0.0" stop-color="rgb(255, 255, 255)" stop-opacity="0.6476568579673767"/>
      <stop offset="0.5647925" stop-color="rgb(255, 255, 255)" stop-opacity="0.7229582667350769"/>
    </radialGradient>
    <radialGradient id="shape_6_fill" cx="0.18397626112759644" cy="0.9977578475336323" r="0.0754974885934892">
      <stop offset="0.0" stop-color="rgb(93, 90, 94)" stop-opacity="1.0"/>
      <stop offset="1.0" stop-color="rgb(183, 121, 158)" stop-opacity="0.42064300179481506"/>
    </radialGradient>
    <radialGradient id="shape_7_fill" cx="0.2893175074183976" cy="0.05829596412556054" r="0.08666390552011372">
      <stop offset="0.0" stop-color="rgb(55, 66, 29)" stop-opacity="1.0"/>
      <stop offset="1.0" stop-color="rgb(66, 76, 0)" stop-opacity="1.0"/>
    </radialGradient>
    <radialGradient id="shape_8_fill" cx="0.3382789091115889" cy="0.9439461883408071" r="0.06756690277190167">
      <stop offset="0.0" stop-color="rgb(91, 124, 45)" stop-opacity="1.0"/>
      <stop offset="1.0" stop-color="rgb(198, 230, 34)" stop-opacity="0.8541743755340576"/>
    </radialGradient>
    <radialGradient id="shape_9_fill" cx="0.30712166172106825" cy="0.9977578475336323" r="0.0730758406641929">
      <stop offset="0.0" stop-color="rgb(38, 48, 20)" stop-opacity="1.0"/>
      <stop offset="1.0" stop-color="rgb(35, 44, 0)" stop-opacity="1.0"/>
    </radialGradient>
    <radialGradient id="shape_10_fill" cx="0.3056379821958457" cy="0.9977578475336323" r="0.06792919147615971">
      <stop offset="0.0" stop-color="rgb(39, 49, 21)" stop-opacity="1.0"/>
      <stop offset="1.0" stop-color="rgb(42, 44, 0)" stop-opacity="0.7806237936019897"/>
    </radialGradient>
    <radialGradient id="shape_11_fill" cx="0.21810089020771514" cy="0.968609865470852" r="0.06792919147615971">
      <stop offset="0.0" stop-color="rgb(138, 135, 129)" stop-opacity="1.0"/>
      <stop offset="1.0" stop-color="rgb(254, 235, 238)" stop-opacity="0.4706610143184662"/>
    </radialGradient>
    <radialGradient id="shape_12_fill" cx="0.29080118694362017" cy="0.9977578475336323" r="0.07480746985189285">
      <stop offset="0.0" stop-color="rgb(22, 25, 13)" stop-opacity="1.0"/>
      <stop offset="1.0" stop-color="rgb(0, 0, 0)" stop-opacity="1.0"/>
    </radialGradient>
    <radialGradient id="shape_13_fill" cx="0.327893175074184" cy="0.8923766816143498" r="0.06900465877544279">
      <stop offset="0.0" stop-color="rgb(89, 117, 50)" stop-opacity="1.0"/>
      <stop offset="1.0" stop-color="rgb(153, 191, 41)" stop-opacity="1.0"/>
    </radialGradient>
    <radialGradient id="shape_14_fill" cx="0.142433234421365" cy="0.9977578475336323" r="0.06617211022079875">
      <stop offset="0.0" stop-color="rgb(155, 150, 153)" stop-opacity="1.0"/>
      <stop offset="1.0" stop-color="rgb(255, 255, 255)" stop-opacity="0.4724385142326355"/>
    </radialGradient>
    <radialGradient id="shape_15_fill" cx="0.31008902077151335" cy="0.9977578475336323" r="0.06683642786405207">
      <stop offset="0.0" stop-color="rgb(43, 55, 23)" stop-opacity="1.0"/>
      <stop offset="1.0" stop-color="rgb(46, 51, 0)" stop-opacity="0.8414376974105835"/>
    </radialGradient>
    <radialGradient id="shape_16_fill" cx="0.27299703264094954" cy="0.9977578475336323" r="0.08110449363640579">
      <stop offset="0.0" stop-color="rgb(31, 35, 19)" stop-opacity="1.0"/>
      <stop offset="1.0" stop-color="rgb(7, 0, 0)" stop-opacity="1.0"/>
    </radialGradient>
    <radialGradient id="shape_17_fill" cx="0.2893175074183976" cy="0.9977578475336323" r="0.07513486030193747">
      <stop offset="0.0" stop-color="rgb(22, 23, 13)" stop-opacity="1.0"/>
      <stop offset="1.0" stop-color="rgb(0, 0, 0)" stop-opacity="0.3527336120605469"/>
    </radialGradient>
    <radialGradient id="shape_18_fill" cx="0.3293768545994065" cy="0.7556053811659192" r="0.06617211022079875">
      <stop offset="0.0" stop-color="rgb(83, 108, 65)" stop-opacity="1.0"/>
      <stop offset="1.0" stop-color="rgb(132, 175, 52)" stop-opacity="1.0"/>
    </radialGradient>
    <radialGradient id="shape_19_fill" cx="0.3516320474777448" cy="0.9977578475336323" r="0.06617211022079875">
      <stop offset="0.0" stop-color="rgb(95, 135, 39)" stop-opacity="1.0"/>
      <stop offset="1.0" stop-color="rgb(174, 227, 10)" stop-opacity="1.0"/>
    </radialGradient>
    <radialGradient id="shape_20_fill" cx="0.0830860534124629" cy="0.9977578475336323" r="0.06792919147615971">
      <stop offset="0.0" stop-color="rgb(49, 52, 66)" stop-opacity="1.0"/>
      <stop offset="1.0" stop-color="rgb(32, 39, 65)" stop-opacity="0.850375771522522"/>
    </radialGradient>
    <radialGradient id="shape_21_fill" cx="0.29821958456973297" cy="0.9977578475336323" r="0.06792919147615971">
      <stop offset="0.0" stop-color="rgb(33, 40, 17)" stop-opacity="1.0"/>
      <stop offset="1.0" stop-color="rgb(2, 0, 0)" stop-opacity="0.709084153175354"/>
    </radialGradient>
    <radialGradient id="shape_22_fill" cx="0.35643059705060737" cy="0.44366622719529497" r="0.06591949689282155">
      <stop offset="0.0" stop-color="rgb(224, 251, 0)" stop-opacity="0.6325280070304871"/>
      <stop offset="0.43621355" stop-color="rgb(200, 233, 15)" stop-opacity="0.8730909824371338"/>
    </radialGradient>
    <radialGradient id="shape_23_fill" cx="0.6454005934718101" cy="0.1412556053811659" r="0.06617211022079875">
      <stop offset="0.0" stop-color="rgb(46, 38, 13)" stop-opacity="1.0"/>
      <stop offset="1.0" stop-color="rgb(39, 0, 0)" stop-opacity="0.9892702698707581"/>
    </radialGradient>
    <radialGradient id="shape_24_fill" cx="0.24925732258873098" cy="0.48430544592339897" r="0.06617140274727026">
      <stop offset="0.0" stop-color="rgb(201, 209, 206)" stop-opacity="1.0"/>
      <stop offset="0.9780273" stop-color="rgb(255, 255, 255)" stop-opacity="0.7979506254196167"/>
    </radialGradient>
    <radialGradient id="shape_25_fill" cx="0.6320474777448071" cy="0.9977578475336323" r="0.06617211022079875">
      <stop offset="0.0" stop-color="rgb(35, 28, 8)" stop-opacity="1.0"/>
      <stop offset="1.0" stop-color="rgb(8, 0, 0)" stop-opacity="0.6240525245666504"/>
    </radialGradient>
    <radialGradient id="shape_26_fill" cx="0.1541795023117292" cy="0.3206896931601212" r="0.06607558819235963">
      <stop offset="0.08571288" stop-color="rgb(197, 209, 152)" stop-opacity="1.0"/>
      <stop offset="0.62237555" stop-color="rgb(168, 166, 255)" stop-opacity="0.22831511497497559"/>
    </radialGradient>
    <radialGradient id="shape_27_fill" cx="0.15410882287633879" cy="0.3208012260129099" r="0.06604645160256224">
      <stop offset="0.0" stop-color="rgb(192, 204, 0)" stop-opacity="1.0"/>
      <stop offset="0.49998868" stop-color="rgb(154, 143, 39)" stop-opacity="0.666364848613739"/>
    </radialGradient>
    <radialGradient id="shape_28_fill" cx="0.041224261773446194" cy="0.021941362475065906" r="0.06629048469158591">
      <stop offset="0.15921743" stop-color="rgb(0, 8, 99)" stop-opacity="1.0"/>
      <stop offset="0.73752344" stop-color="rgb(0, 26, 117)" stop-opacity="0.853256106376648"/>
    </radialGradient>
    <radialGradient id="shape_29_fill" cx="0.33976258863681147" cy="0.6659192825112108" r="0.06617211022079875">
      <stop offset="0.0" stop-color="rgb(90, 117, 55)" stop-opacity="1.0"/>
      <stop offset="1.0" stop-color="rgb(150, 187, 33)" stop-opacity="1.0"/>
    </radialGradient>
    <radialGradient id="shape_30_fill" cx="0.04114844891013307" cy="0.020385902558741547" r="0.06649305417205177">
      <stop offset="0.36736572" stop-color="rgb(18, 59, 41)" stop-opacity="0.8461088538169861"/>
      <stop offset="1.0" stop-color="rgb(10, 45, 53)" stop-opacity="0.791438639163971"/>
    </radialGradient>
    <radialGradient id="shape_31_fill" cx="0.12314540059347182" cy="0.9977578475336323" r="0.06617211022079875">
      <stop offset="0.0" stop-color="rgb(95, 103, 98)" stop-opacity="1.0"/>
      <stop offset="1.0" stop-color="rgb(205, 186, 185)" stop-opacity="0.5254013538360596"/>
    </radialGradient>
    <radialGradient id="shape_32_fill" cx="0.4035608308605341" cy="0.984304932735426" r="0.06617211022079875">
      <stop offset="0.0" stop-color="rgb(126, 155, 63)" stop-opacity="1.0"/>
      <stop offset="1.0" stop-color="rgb(204, 213, 19)" stop-opacity="1.0"/>
    </radialGradient>
    <radialGradient id="shape_33_fill" cx="0.3249258160237389" cy="0.6053811659192825" r="0.06617211022079875">
      <stop offset="0.0" stop-color="rgb(93, 124, 71)" stop-opacity="1.0"/>
      <stop offset="1.0" stop-color="rgb(168, 187, 37)" stop-opacity="1.0"/>
    </radialGradient>
    <radialGradient id="shape_34_fill" cx="0.6468842729970327" cy="0.531390134529148" r="0.06617211022079875">
      <stop offset="0.0" stop-color="rgb(54, 47, 24)" stop-opacity="1.0"/>
      <stop offset="1.0" stop-color="rgb(65, 32, 0)" stop-opacity="0.9249688386917114"/>
    </radialGradient>
    <radialGradient id="shape_35_fill" cx="0.14216580942759527" cy="0.23395630703913256" r="0.06618701810299112">
      <stop offset="0.019167842" stop-color="rgb(135, 221, 0)" stop-opacity="0.32965150475502014"/>
      <stop offset="0.40349472" stop-color="rgb(209, 234, 0)" stop-opacity="0.25631991028785706"/>
    </radialGradient>
    <radialGradient id="shape_36_fill" cx="0.2878338278931751" cy="0.9977578475336323" r="0.06617211022079875">
      <stop offset="0.0" stop-color="rgb(80, 96, 53)" stop-opacity="1.0"/>
      <stop offset="1.0" stop-color="rgb(93, 90, 63)" stop-opacity="1.0"/>
    </radialGradient>
    <radialGradient id="shape_37_fill" cx="0.129080118694362" cy="0.9977578475336323" r="0.06617211022079875">
      <stop offset="0.0" stop-color="rgb(87, 97, 81)" stop-opacity="1.0"/>
      <stop offset="1.0" stop-color="rgb(149, 140, 68)" stop-opacity="0.9041770696640015"/>
    </radialGradient>
    <radialGradient id="shape_38_fill" cx="0.33890694185251297" cy="0.5607656641391361" r="0.06668427011733238">
      <stop offset="0.69897217" stop-color="rgb(72, 99, 11)" stop-opacity="0.9786117076873779"/>
      <stop offset="0.65209204" stop-color="rgb(150, 255, 4)" stop-opacity="0.989573061466217"/>
    </radialGradient>
    <radialGradient id="shape_39_fill" cx="0.40059347181008903" cy="0.9641255605381166" r="0.06617211022079875">
      <stop offset="0.0" stop-color="rgb(138, 168, 60)" stop-opacity="1.0"/>
      <stop offset="1.0" stop-color="rgb(250, 255, 68)" stop-opacity="0.9944627285003662"/>
    </radialGradient>
    <radialGradient id="shape_40_fill" cx="0.6172360383438428" cy="0.8833859020284474" r="0.06615610433969017">
      <stop offset="0.0" stop-color="rgb(0, 3, 0)" stop-opacity="1.0"/>
      <stop offset="0.7622097" stop-color="rgb(0, 0, 0)" stop-opacity="1.0"/>
    </radialGradient>
    <radialGradient id="shape_41_fill" cx="0.6454005934718101" cy="0.08744394618834081" r="0.06617211022079875">
      <stop offset="0.0" stop-color="rgb(58, 48, 21)" stop-opacity="1.0"/>
      <stop offset="1.0" stop-color="rgb(69, 33, 0)" stop-opacity="0.9643392562866211"/>
    </radialGradient>
    <radialGradient id="shape_42_fill" cx="0.5845697329376854" cy="0.6188340807174888" r="0.06617211022079875">
      <stop offset="0.0" stop-color="rgb(62, 59, 56)" stop-opacity="1.0"/>
      <stop offset="1.0" stop-color="rgb(36, 23, 47)" stop-opacity="0.8661651611328125"/>
    </radialGradient>
    <radialGradient id="shape_43_fill" cx="0.3575786964122195" cy="0.506794198211533" r="0.06625057186500255">
      <stop offset="0.21338737" stop-color="rgb(189, 225, 15)" stop-opacity="0.9971076846122742"/>
      <stop offset="0.6809606" stop-color="rgb(197, 247, 11)" stop-opacity="0.995587944984436"/>
    </radialGradient>
    <radialGradient id="shape_44_fill" cx="0.5934718100890207" cy="0.9977578475336323" r="0.06617211022079875">
      <stop offset="0.0" stop-color="rgb(89, 61, 18)" stop-opacity="1.0"/>
      <stop offset="1.0" stop-color="rgb(178, 69, 0)" stop-opacity="0.7113243937492371"/>
    </radialGradient>
    <radialGradient id="shape_45_fill" cx="0.612759643916914" cy="0.04035874439461883" r="0.06617211022079875">
      <stop offset="0.0" stop-color="rgb(157, 136, 123)" stop-opacity="1.0"/>
      <stop offset="1.0" stop-color="rgb(255, 236, 204)" stop-opacity="1.0"/>
    </radialGradient>
    <radialGradient id="shape_46_fill" cx="0.28635014836795253" cy="0.9977578475336323" r="0.06617211022079875">
      <stop offset="0.0" stop-color="rgb(82, 99, 55)" stop-opacity="1.0"/>
      <stop offset="1.0" stop-color="rgb(143, 154, 33)" stop-opacity="0.17715813219547272"/>
    </radialGradient>
    <radialGradient id="shape_47_fill" cx="0.28635014836795253" cy="0.8183856502242153" r="0.06617211022079875">
      <stop offset="0.0" stop-color="rgb(166, 189, 197)" stop-opacity="1.0"/>
      <stop offset="1.0" stop-color="rgb(255, 255, 255)" stop-opacity="0.7082112431526184"/>
    </radialGradient>
    <radialGradient id="shape_48_fill" cx="0.40801186943620177" cy="0.9977578475336323" r="0.06617211022079875">
      <stop offset="0.0" stop-color="rgb(107, 135, 68)" stop-opacity="1.0"/>
      <stop offset="1.0" stop-color="rgb(179, 193, 58)" stop-opacity="1.0"/>
    </radialGradient>
    <radialGradient id="shape_49_fill" cx="0.19287833827893175" cy="0.3991031390134529" r="0.06617211022079875">
      <stop offset="0.0" stop-color="rgb(92, 100, 54)" stop-opacity="1.0"/>
      <stop offset="1.0" stop-color="rgb(192, 178, 27)" stop-opacity="0.5011594891548157"/>
    </radialGradient>
    <radialGradient id="shape_50_fill" cx="0.6439169139465876" cy="0.7376681614349776" r="0.06617211022079875">
      <stop offset="0.0" stop-color="rgb(65, 56, 25)" stop-opacity="1.0"/>
      <stop offset="1.0" stop-color="rgb(105, 174, 53)" stop-opacity="0.6193960309028625"/>
    </radialGradient>
    <radialGradient id="shape_51_fill" cx="0.5845697329376854" cy="0.6322869955156951" r="0.06617211022079875">
      <stop offset="0.0" stop-color="rgb(75, 68, 60)" stop-opacity="1.0"/>
      <stop offset="1.0" stop-color="rgb(115, 93, 79)" stop-opacity="0.8321351408958435"/>
    </radialGradient>
    <radialGradient id="shape_52_fill" cx="0.2997032640949555" cy="0.6031390134529148" r="0.06617211022079875">
      <stop offset="0.0" stop-color="rgb(107, 158, 118)" stop-opacity="1.0"/>
      <stop offset="1.0" stop-color="rgb(212, 255, 219)" stop-opacity="0.8323739171028137"/>
    </radialGradient>
    <radialGradient id="shape_53_fill" cx="0.6097922848664689" cy="0.45067264573991034" r="0.06617211022079875">
      <stop offset="0.0" stop-color="rgb(38, 39, 27)" stop-opacity="1.0"/>
      <stop offset="1.0" stop-color="rgb(22, 0, 0)" stop-opacity="0.6065945029258728"/>
    </radialGradient>
    <radialGradient id="shape_54_fill" cx="0.6335311572700296" cy="0.426009002822397" r="0.06617211022079875">
      <stop offset="0.0" stop-color="rgb(67, 49, 20)" stop-opacity="1.0"/>
      <stop offset="1.0" stop-color="rgb(99, 27, 0)" stop-opacity="0.8016090989112854"/>
    </radialGradient>
    <radialGradient id="shape_55_fill" cx="0.37053949825841526" cy="0.5990019657152116" r="0.06597131791383647">
      <stop offset="0.0" stop-color="rgb(255, 255, 16)" stop-opacity="0.9179869890213013"/>
      <stop offset="0.29905674" stop-color="rgb(245, 255, 27)" stop-opacity="0.877569317817688"/>
    </radialGradient>
    <radialGradient id="shape_56_fill" cx="0.5489614243323442" cy="0.600896860986547" r="0.06617211022079875">
      <stop offset="0.0" stop-color="rgb(50, 62, 80)" stop-opacity="1.0"/>
      <stop offset="1.0" stop-color="rgb(36, 57, 137)" stop-opacity="0.7477656602859497"/>
    </radialGradient>
    <radialGradient id="shape_57_fill" cx="0.4094955489614243" cy="0.9035874439461884" r="0.06617211022079875">
      <stop offset="0.0" stop-color="rgb(111, 144, 47)" stop-opacity="1.0"/>
      <stop offset="1.0" stop-color="rgb(202, 231, 22)" stop-opacity="0.9578207731246948"/>
    </radialGradient>
    <radialGradient id="shape_58_fill" cx="0.5281899109792285" cy="0.9977578475336323" r="0.06617211022079875">
      <stop offset="0.0" stop-color="rgb(50, 43, 14)" stop-opacity="1.0"/>
      <stop offset="1.0" stop-color="rgb(58, 7, 0)" stop-opacity="0.9589787721633911"/>
    </radialGradient>
    <radialGradient id="shape_59_fill" cx="0.5845697329376854" cy="0.7690582959641256" r="0.06617211022079875">
      <stop offset="0.0" stop-color="rgb(61, 63, 58)" stop-opacity="1.0"/>
      <stop offset="1.0" stop-color="rgb(73, 71, 81)" stop-opacity="0.7555699348449707"/>
    </radialGradient>
    <radialGradient id="shape_60_fill" cx="0.5489614243323442" cy="0.9977578475336323" r="0.06617211022079875">
      <stop offset="0.0" stop-color="rgb(140, 131, 64)" stop-opacity="1.0"/>
      <stop offset="1.0" stop-color="rgb(253, 213, 65)" stop-opacity="0.9456454515457153"/>
    </radialGradient>
    <radialGradient id="shape_61_fill" cx="0.6468865369123238" cy="0.9686067179179513" r="0.06617217813825749">
      <stop offset="0.11515015" stop-color="rgb(255, 155, 0)" stop-opacity="1.0"/>
      <stop offset="0.98101693" stop-color="rgb(255, 152, 0)" stop-opacity="1.0"/>
    </radialGradient>
    <radialGradient id="shape_62_fill" cx="0.615727002967359" cy="0.3991031390134529" r="0.06617211022079875">
      <stop offset="0.0" stop-color="rgb(55, 47, 13)" stop-opacity="1.0"/>
      <stop offset="1.0" stop-color="rgb(72, 23, 0)" stop-opacity="0.9849109649658203"/>
    </radialGradient>
    <radialGradient id="shape_63_fill" cx="0.6261127596439169" cy="0.7286995515695067" r="0.06617211022079875">
      <stop offset="0.0" stop-color="rgb(79, 66, 32)" stop-opacity="1.0"/>
      <stop offset="1.0" stop-color="rgb(212, 224, 83)" stop-opacity="0.8169745206832886"/>
    </radialGradient>
    <radialGradient id="shape_64_fill" cx="0.40801186943620177" cy="0.12556053811659193" r="0.06617211022079875">
      <stop offset="0.0" stop-color="rgb(76, 66, 59)" stop-opacity="1.0"/>
      <stop offset="1.0" stop-color="rgb(96, 72, 62)" stop-opacity="1.0"/>
    </radialGradient>
    <radialGradient id="shape_65_fill" cx="0.6528189910979229" cy="0.6883408071748879" r="0.06617211022079875">
      <stop offset="0.0" stop-color="rgb(121, 97, 39)" stop-opacity="1.0"/>
      <stop offset="1.0" stop-color="rgb(255, 255, 85)" stop-opacity="1.0"/>
    </radialGradient>
    <radialGradient id="shape_66_fill" cx="0.6498524923352884" cy="0.4609047928198571" r="0.06707430310348375">
      <stop offset="0.5622308" stop-color="rgb(182, 221, 0)" stop-opacity="0.26523441076278687"/>
      <stop offset="1.0" stop-color="rgb(26, 17, 0)" stop-opacity="0.061638686805963516"/>
    </radialGradient>
    <radialGradient id="shape_67_fill" cx="0.5932318803464623" cy="0.9956940107816004" r="0.06761643157868427">
      <stop offset="0.8790209" stop-color="rgb(49, 32, 0)" stop-opacity="0.8556364178657532"/>
      <stop offset="1.0" stop-color="rgb(10, 16, 0)" stop-opacity="0.15056532621383667"/>
    </radialGradient>
    <radialGradient id="shape_68_fill" cx="0.48811132051824463" cy="0.9965032740024173" r="0.0672913390026602">
      <stop offset="0.464748" stop-color="rgb(46, 35, 32)" stop-opacity="0.7758585214614868"/>
      <stop offset="1.0" stop-color="rgb(57, 75, 75)" stop-opacity="0.3848406970500946"/>
    </radialGradient>
  </defs>
  <g>
    <path d="M -0.27309516072273254 271.1178894042969 C 25.695096969604492 270.44183349609375 34.5914192199707 271.43157958984375 44.43317794799805 273.6121520996094 C 48.05640411376953 275.3492126464844 49.36717224121094 276.710205078125 57.164466857910156 274.53863525390625 C 60.51803207397461 273.9278869628906 63.793487548828125 274.5611572265625 65.9480972290039 275.2425231933594 C 74.31897735595703 273.0619812011719 103.95349884033203 272.6614074707031 112.51483154296875 273.33966064453125 C 115.2437744140625 277.2952575683594 126.75113677978516 277.20751953125 127.3496322631836 280.6162109375 C 134.39141845703125 281.78424072265625 140.89959716796875 281.0380554199219 149.0793914794922 281.8651428222656 C 185.26220703125 281.7592468261719 185.7535858154297 282.5247497558594 204.0428466796875 283.8591613769531 C 200.70684814453125 290.7383728027344 199.5496063232422 283.2210998535156 218.04891967773438 277.7732238769531 C 238.15797424316406 279.1314392089844 280.9228210449219 278.4569091796875 304.7700500488281 283.8929138183594 C 337.3558349609375 285.78564453125 416.3960876464844 285.3193054199219 456.803466796875 283.1499328613281 C 483.12420654296875 282.893798828125 532.336669921875 284.5531311035156 540.53271484375 286.8181457519531 C 549.3517456054688 286.9774169921875 550.924560546875 283.58160400390625 561.3467407226562 282.1547546386719 C 571.3380126953125 285.6276550292969 610.0227661132812 286.5446472167969 614.8487548828125 286.78753662109375 C 638.2694702148438 282.14599609375 648.2897338867188 282.7638244628906 659.9589233398438 282.7221984863281 C 664.6722412109375 283.7562255859375 670.1315307617188 288.4090270996094 672.5298461914062 292.42254638671875 C 674.546875 340.4808654785156 674.0391235351562 392.4618225097656 674.2982177734375 445.3014221191406 C 451.5005187988281 445.67791748046875 229.16946411132812 445.72027587890625 0.14860793948173523 445.3924255371094 C -0.38908153772354126 389.1319274902344 0.27622732520103455 332.3591003417969 -0.27309516072273254 271.1178894042969" stroke-width="0.0" fill="url(#shape_0_fill)"/>
    <path d="M 0.006345252972096205 272.0521545410156 C 35.933231353759766 275.4001159667969 36.557369232177734 274.5916442871094 44.4622917175293 276.5200500488281 C 56.341407775878906 275.6183166503906 67.85002899169922 274.4803771972656 77.1405258178711 275.02655029296875 C 113.4163818359375 278.6825866699219 113.99848175048828 279.3116760253906 126.0139389038086 280.2384948730469 C 130.0399627685547 279.5700988769531 154.3114013671875 279.7048034667969 157.5088348388672 278.6318054199219 C 185.03271484375 277.7502136230469 185.57382202148438 279.4483947753906 199.30047607421875 281.2851867675781 C 202.46029663085938 291.3849792480469 204.79879760742188 290.6980285644531 220.28683471679688 288.75494384765625 C 226.0768585205078 287.6202697753906 278.2967834472656 289.1858825683594 299.1092529296875 290.13983154296875 C 328.3268127441406 291.89422607421875 443.85968017578125 289.6802673339844 449.21075439453125 289.89434814453125 C 469.5690612792969 289.0675048828125 486.044189453125 289.6796875 504.0418395996094 286.98980712890625 C 508.4431457519531 287.0338439941406 516.3668823242188 285.90869140625 522.80810546875 286.39715576171875 C 527.5307006835938 285.6688232421875 531.8885498046875 285.864501953125 535.1503295898438 286.99298095703125 C 543.9840087890625 286.6455993652344 551.5996704101562 287.7417907714844 559.765869140625 289.5269470214844 C 569.483154296875 286.9454040527344 579.40771484375 287.8163146972656 587.1546020507812 289.1037902832031 C 604.4923095703125 288.49847412109375 618.515625 287.7853698730469 631.7567138671875 288.27374267578125 C 646.078369140625 283.69293212890625 658.5204467773438 287.04010009765625 674.2420043945312 288.77386474609375 C 673.8129272460938 340.8739013671875 674.4092407226562 392.30413818359375 674.1441040039062 446.2807922363281 C 451.4774169921875 446.3905334472656 229.19664001464844 446.25439453125 -0.30755913257598877 446.2476501464844 C -0.21347676217556 389.4035949707031 -0.29325351119041443 333.02935791015625 0.006345252972096205 272.0521545410156" stroke-width="0.0" fill="url(#shape_1_fill)"/>
    <path d="M -0.21321992576122284 -0.25981658697128296 C 219.69313049316406 0.10377790033817291 439.4787292480469 -0.4516626298427582 669.8631591796875 -0.35767683386802673 C 662.057373046875 7.662940502166748 645.1140747070312 35.90495300292969 637.751953125 47.67032241821289 C 636.788818359375 54.770267486572266 612.1337280273438 94.49498748779297 585.5361938476562 84.21493530273438 C 578.3804321289062 81.32865142822266 558.1845703125 71.1126708984375 531.8154296875 72.3753662109375 C 531.2473754882812 73.9039306640625 525.2785034179688 76.41307067871094 523.1597290039062 71.28479766845703 C 522.8241577148438 68.14668273925781 501.5336608886719 61.86514663696289 500.5326843261719 62.045570373535156 C 492.11566162109375 61.86872100830078 485.35675048828125 60.59484100341797 480.43768310546875 68.4030990600586 C 474.5173645019531 69.45011138916016 474.68499755859375 73.56468200683594 474.4670104980469 77.31755065917969 C 476.6825866699219 90.1520004272461 466.8033447265625 106.30374908447266 462.61846923828125 110.9762191772461 C 457.83050537109375 112.76339721679688 452.7085876464844 111.11370086669922 451.0633239746094 109.47315216064453 C 437.2496643066406 106.16227722167969 411.2161865234375 103.05818939208984 410.4157409667969 105.2876205444336 C 405.6385803222656 115.49713134765625 405.5650939941406 119.96710205078125 402.20758056640625 126.25926208496094 C 400.34405517578125 134.59518432617188 393.2510986328125 137.67538452148438 389.3603820800781 138.36880493164062 C 378.597900390625 141.01690673828125 375.5042724609375 157.8760223388672 374.01605224609375 160.2814178466797 C 373.4360046386719 166.11697387695312 372.2408142089844 170.21441650390625 368.77313232421875 174.7743682861328 C 366.6815490722656 177.1200714111328 363.3779296875 176.2236328125 353.26080322265625 181.17282104492188 C 346.83050537109375 188.86758422851562 336.45831298828125 180.20065307617188 324.9668273925781 178.01438903808594 C 311.6171875 178.49166870117188 311.0172119140625 184.88970947265625 309.31622314453125 187.4904022216797 C 308.4123229980469 192.1610107421875 306.4555358886719 194.4805908203125 307.77294921875 201.37991333007812 C 307.1664733886719 201.09510803222656 304.4698791503906 199.3196258544922 303.8214416503906 195.03140258789062 C 300.9180603027344 192.4262237548828 296.6868591308594 193.52212524414062 290.2743225097656 188.97325134277344 C 291.79217529296875 193.72427368164062 290.1327819824219 196.46920776367188 289.0211486816406 196.46607971191406 C 284.1206970214844 193.54539489746094 282.48291015625 188.7116241455078 281.87445068359375 188.1603240966797 C 273.9250793457031 189.0118865966797 272.2796630859375 191.07444763183594 267.91851806640625 189.1542205810547 C 261.4765930175781 188.85496520996094 260.9219055175781 194.17393493652344 260.1648864746094 197.7062225341797 C 261.0485534667969 199.23583984375 260.73724365234375 200.7729949951172 257.6689147949219 200.90505981445312 C 256.9704284667969 200.80044555664062 251.2501220703125 200.22169494628906 250.84022521972656 197.5082244873047 C 249.40280151367188 192.10533142089844 250.20921325683594 190.2769775390625 246.78688049316406 178.4872283935547 C 250.8688201904297 172.40774536132812 216.30613708496094 141.82347106933594 214.32769775390625 139.60568237304688 C 184.07420349121094 121.90775299072266 195.15025329589844 100.29228210449219 192.29603576660156 89.09651184082031 C 193.908447265625 83.82675170898438 157.27328491210938 72.3252944946289 143.63589477539062 65.71585845947266 C 120.22765350341797 39.68134307861328 65.59163665771484 52.74324035644531 37.079566955566406 62.8608283996582 C 16.1153564453125 70.21229553222656 12.515581130981445 68.76900482177734 -0.2269381433725357 69.79472351074219 C 0.33792582154273987 43.98762512207031 -0.333449125289917 22.570690155029297 -0.21321992576122284 -0.25981658697128296" stroke-width="0.0" fill="url(#shape_2_fill)"/>
    <path d="M 86.2104263305664 68.09854125976562 C 88.37065887451172 69.44220733642578 92.5039291381836 68.6086654663086 93.74947357177734 69.0873794555664 C 90.61474609375 77.5106201171875 91.5822525024414 82.41651153564453 91.4627456665039 84.80819702148438 C 96.42742919921875 83.07501983642578 97.38005828857422 85.61430358886719 103.23040008544922 86.51111602783203 C 102.82990264892578 76.62786865234375 105.09846496582031 75.18408966064453 109.44387817382812 76.5442123413086 C 111.66889953613281 87.72500610351562 112.04969024658203 94.47891235351562 115.75316619873047 99.54158020019531 C 116.71986389160156 100.0814208984375 116.75724792480469 108.54134368896484 115.47126007080078 115.87120819091797 C 124.5399398803711 114.53629302978516 129.0263671875 114.52059936523438 129.2732391357422 111.67061614990234 C 129.375 107.76205444335938 136.2730712890625 106.41787719726562 136.43765258789062 104.43441772460938 C 136.5957794189453 103.69462585449219 135.52847290039062 101.79383087158203 136.99476623535156 97.98655700683594 C 136.44805908203125 93.25308227539062 137.46380615234375 92.87220764160156 137.1059112548828 88.92444610595703 C 137.26914978027344 84.85154724121094 138.61167907714844 84.73348236083984 139.02444458007812 85.63592529296875 C 139.6707000732422 82.033203125 146.6061553955078 80.69905853271484 147.87547302246094 83.74957275390625 C 147.4087371826172 87.61021423339844 151.0719451904297 95.57806396484375 152.1298370361328 98.97137451171875 C 153.45584106445312 103.07078552246094 149.93077087402344 106.89472961425781 148.8208465576172 106.66608428955078 C 152.85154724121094 110.01673889160156 150.77403259277344 114.22091674804688 148.6759033203125 113.48950958251953 C 155.0948028564453 112.64923858642578 158.36306762695312 122.50508880615234 158.1614532470703 123.03546905517578 C 161.98202514648438 124.688232421875 164.82301330566406 123.33003997802734 169.99240112304688 123.03073120117188 C 175.03700256347656 119.34529876708984 175.20693969726562 121.63873291015625 177.54486083984375 122.54173278808594 C 179.3103790283203 122.68458557128906 179.88047790527344 125.57199096679688 182.5671844482422 127.83040618896484 C 183.83995056152344 130.22889709472656 182.38949584960938 133.14794921875 183.24310302734375 135.7290496826172 C 186.32492065429688 135.28277587890625 187.59744262695312 142.97544860839844 188.94276428222656 144.84971618652344 C 192.8743133544922 145.65028381347656 204.49203491210938 157.8039093017578 203.0356903076172 172.68836975097656 C 205.58351135253906 173.8699493408203 204.93719482421875 177.86685180664062 205.1945343017578 183.06100463867188 C 210.7436981201172 182.0589599609375 215.49217224121094 199.92234802246094 211.56948852539062 203.24725341796875 C 208.46669006347656 207.20997619628906 203.44613647460938 208.1476593017578 203.1380615234375 210.2999267578125 C 200.80331420898438 210.5373077392578 199.9165802001953 211.6902313232422 200.2975311279297 213.65066528320312 C 196.4012908935547 215.83180236816406 193.91978454589844 215.55369567871094 191.96575927734375 219.6490478515625 C 184.2877960205078 221.11215209960938 183.60484313964844 224.8018341064453 179.04429626464844 230.51673889160156 C 176.16798400878906 233.6270751953125 179.11973571777344 240.06600952148438 179.98960876464844 242.8402557373047 C 179.84999084472656 250.77114868164062 184.47593688964844 258.8486328125 176.7325897216797 264.0432434082031 C 173.94876098632812 267.9136047363281 148.79165649414062 268.13470458984375 139.57562255859375 270.0498046875 C 128.87289428710938 266.7235107421875 123.64710998535156 268.6489562988281 115.76428985595703 270.9873046875 C 108.34986114501953 276.07293701171875 73.3768310546875 274.9800109863281 73.5207290649414 269.7595520019531 C 47.620689392089844 266.69854736328125 56.49581527709961 268.5444641113281 56.29072570800781 273.38433837890625 C 45.3807487487793 276.6574401855469 0.48480847477912903 274.3317565917969 0.448289692401886 271.26678466796875 C -2.0378215312957764 218.37252807617188 -1.3874485492706299 166.73251342773438 -1.8794829845428467 116.36801147460938 C 8.597278594970703 118.69229888916016 16.30134391784668 119.17012023925781 24.196298599243164 125.62625885009766 C 30.70091438293457 126.88324737548828 36.75432205200195 127.92779541015625 40.9615592956543 131.33355712890625 C 46.621673583984375 131.762451171875 46.50406265258789 137.19699096679688 49.663143157958984 139.99752807617188 C 50.74696731567383 143.62646484375 61.85960006713867 144.85067749023438 62.566165924072266 142.80059814453125 C 62.04892349243164 136.6761016845703 63.01938247680664 133.81500244140625 62.85100173950195 126.95384979248047 C 68.33775329589844 125.2057113647461 67.32269287109375 121.81193542480469 65.4745101928711 112.37715148925781 C 67.46853637695312 110.96593475341797 67.96952056884766 105.19503021240234 75.8940200805664 104.67011260986328 C 75.67231750488281 103.47064208984375 77.09471893310547 91.52550506591797 75.68075561523438 85.27564239501953 C 78.14608001708984 84.18402862548828 79.2874526977539 73.49983215332031 84.7760238647461 73.9117660522461 C 82.8653335571289 70.16094970703125 84.83565521240234 67.65142822265625 86.2104263305664 68.09854125976562" stroke-width="0.0" fill="url(#shape_3_fill)"/>
    <path d="M 672.8704833984375 0.3532070219516754 C 674.942626953125 48.75973892211914 674.57421875 96.11787414550781 675.6392822265625 144.0041961669922 C 669.2435913085938 136.04873657226562 664.49365234375 128.69654846191406 661.6914672851562 120.27214050292969 C 661.0423583984375 119.81655883789062 655.2249755859375 109.25432586669922 649.4127197265625 110.8840560913086 C 648.3898315429688 112.4963607788086 643.460205078125 146.51809692382812 640.4622802734375 152.8330841064453 C 632.5020141601562 154.0026397705078 627.4274291992188 141.2229766845703 627.85888671875 138.16217041015625 C 622.9171142578125 137.3160858154297 618.6026611328125 145.32313537597656 615.37744140625 143.80307006835938 C 611.5608520507812 142.17623901367188 610.245361328125 143.68199157714844 607.90380859375 140.93417358398438 C 607.50927734375 137.37916564941406 608.4324951171875 133.2191162109375 604.5846557617188 126.6431884765625 C 598.1026000976562 133.68582153320312 597.6095581054688 139.46292114257812 595.1627807617188 144.48025512695312 C 595.2532348632812 148.832763671875 593.8540649414062 150.93795776367188 594.613037109375 153.946533203125 C 589.862548828125 157.9892578125 588.103271484375 164.96189880371094 581.2454223632812 170.23077392578125 C 571.4641723632812 170.10946655273438 569.6641235351562 160.50466918945312 568.9735107421875 157.45140075683594 C 566.3601684570312 157.1300811767578 564.275390625 153.33375549316406 561.4164428710938 153.7598419189453 C 559.9933471679688 150.73544311523438 554.99072265625 150.34823608398438 554.0787353515625 153.5841827392578 C 551.4815063476562 155.6490478515625 550.8486328125 159.21707153320312 548.749267578125 160.84718322753906 C 546.318603515625 158.6457061767578 541.7293701171875 160.50747680664062 535.8763427734375 154.50579833984375 C 531.6920776367188 154.6599884033203 529.8731689453125 157.77503967285156 524.1519165039062 157.7123260498047 C 518.0197143554688 161.2037811279297 520.8668212890625 161.3903350830078 522.5984497070312 169.86668395996094 C 517.4880981445312 169.9824676513672 515.8667602539062 165.0786590576172 516.59033203125 171.2220458984375 C 510.5545349121094 173.34478759765625 510.908935546875 175.24156188964844 505.6400451660156 174.36289978027344 C 503.0991516113281 171.2259979248047 502.92022705078125 169.64060974121094 502.79718017578125 166.19546508789062 C 498.0953674316406 150.0180206298828 512.1080932617188 125.8686294555664 521.6122436523438 128.4799041748047 C 522.8796997070312 123.52220153808594 537.0281372070312 112.09601593017578 548.3817138671875 112.71700286865234 C 558.2946166992188 110.41735076904297 556.1575927734375 109.69340515136719 556.177734375 105.80196380615234 C 561.6412963867188 106.6803207397461 565.9964599609375 103.63581085205078 571.791259765625 105.30731201171875 C 574.7149658203125 102.80123901367188 573.4525146484375 97.51093292236328 578.8919067382812 94.11880493164062 C 580.0086059570312 87.4582748413086 600.8352661132812 78.60112762451172 612.90869140625 78.3708267211914 C 615.6895141601562 72.39241027832031 642.468994140625 49.78471374511719 644.0195922851562 35.27090072631836 C 644.9508666992188 32.4251708984375 647.9837036132812 30.3778133392334 647.5953369140625 29.495912551879883 C 646.7694702148438 28.2406005859375 663.6095581054688 -3.731018543243408 672.8704833984375 0.3532070219516754" stroke-width="0.0" fill="url(#shape_4_fill)"/>
    <path d="M 151.61688232421875 68.58675384521484 C 152.32595825195312 68.95183563232422 187.3531951904297 82.98722076416016 192.8949737548828 90.807373046875 C 179.44134521484375 116.80513763427734 215.8973388671875 152.9254608154297 220.64918518066406 154.9530029296875 C 238.9879608154297 169.7567138671875 242.81227111816406 184.7107696533203 240.9896697998047 194.0454559326172 C 237.6905975341797 193.9866485595703 236.7562255859375 185.7880859375 236.7642059326172 184.052490234375 C 235.66864013671875 183.6056671142578 234.16246032714844 184.27935791015625 231.11264038085938 182.74826049804688 C 231.92401123046875 183.27813720703125 230.6084442138672 192.4807586669922 227.93658447265625 196.027587890625 C 227.89193725585938 196.1690673828125 227.2657928466797 205.5443878173828 221.31161499023438 207.75665283203125 C 215.03306579589844 206.61184692382812 214.25579833984375 198.03326416015625 214.65171813964844 194.86083984375 C 212.96051025390625 185.4334716796875 211.89842224121094 184.9415740966797 206.35816955566406 177.60069274902344 C 204.4343719482422 172.2534942626953 205.92611694335938 165.4658203125 205.7567596435547 159.71023559570312 C 206.18382263183594 153.8344268798828 196.11436462402344 143.4624786376953 192.64024353027344 141.75631713867188 C 189.04043579101562 140.34298706054688 188.78094482421875 137.86158752441406 187.8610382080078 134.14698791503906 C 182.1436309814453 130.56979370117188 183.1468048095703 123.42334747314453 183.56056213378906 118.05535888671875 C 178.8844451904297 116.09034729003906 177.9367218017578 117.90387725830078 173.6229705810547 117.9453125 C 176.83404541015625 127.12785339355469 172.32357788085938 130.3964080810547 154.2277069091797 128.24313354492188 C 152.66549682617188 123.1133041381836 150.20289611816406 102.57273864746094 153.42213439941406 96.54761505126953 C 152.87445068359375 88.61470031738281 153.72276306152344 83.01007843017578 150.13912963867188 76.325927734375 C 148.47076416015625 75.92683410644531 149.07757568359375 69.32781982421875 151.61688232421875 68.58675384521484" stroke-width="0.0" fill="url(#shape_5_fill)"/>
    <path d="M 613.2269897460938 83.50914764404297 C 618.5855712890625 84.19123077392578 619.6232299804688 85.85474395751953 630.7730102539062 85.68359375 C 636.8292236328125 85.94355010986328 637.8042602539062 87.6264877319336 641.2570190429688 87.80194854736328 C 642.150390625 87.51289367675781 669.1299438476562 91.86359405517578 673.9310913085938 98.4823989868164 C 673.86181640625 112.65157318115234 673.4274291992188 128.8255615234375 673.7201538085938 143.078369140625 C 670.1575317382812 138.0713348388672 665.5365600585938 133.78948974609375 661.0835571289062 128.2917938232422 C 660.3714599609375 121.40611267089844 660.5839233398438 115.66565704345703 653.1817626953125 111.39463806152344 C 647.7666625976562 116.6284408569336 645.0601806640625 142.35487365722656 642.043701171875 143.27951049804688 C 643.4341430664062 145.55694580078125 641.4240112304688 148.700439453125 640.9052734375 149.05096435546875 C 639.704833984375 150.98130798339844 638.082763671875 152.00904846191406 634.7942504882812 149.7432098388672 C 631.3424682617188 146.79592895507812 629.3278198242188 141.25926208496094 629.9727172851562 140.66061401367188 C 628.9212036132812 138.06829833984375 623.8572387695312 137.0548095703125 620.8442993164062 138.56446838378906 C 618.2214965820312 140.55213928222656 619.2656860351562 142.35702514648438 618.7577514648438 144.2180938720703 C 614.5144653320312 144.48167419433594 614.1517333984375 143.11924743652344 610.242431640625 143.74880981445312 C 608.5563354492188 140.4054412841797 609.5993041992188 139.24581909179688 609.4442749023438 137.36474609375 C 606.6096801757812 132.2517547607422 604.7330322265625 126.53447723388672 597.279296875 127.9366226196289 C 600.3211669921875 136.61878967285156 594.9873657226562 150.3028564453125 592.0751953125 157.6611785888672 C 590.7612915039062 163.9374237060547 589.48486328125 164.2093048095703 586.3072509765625 168.06951904296875 C 582.7941284179688 168.23387145996094 579.6736450195312 167.50308227539062 576.93603515625 166.095947265625 C 573.7297973632812 164.74435424804688 572.9730224609375 160.3263397216797 571.8505859375 157.28868103027344 C 567.7142333984375 154.9654083251953 556.1320190429688 154.30966186523438 556.2978515625 151.2240447998047 C 555.8213500976562 152.87791442871094 553.0720825195312 154.702880859375 552.8748779296875 157.74264526367188 C 549.9479370117188 161.45094299316406 547.9240112304688 160.9095916748047 547.2535400390625 159.83697509765625 C 542.476318359375 159.0334930419922 539.640380859375 157.54336547851562 536.0744018554688 157.09268188476562 C 534.8134155273438 158.17359924316406 531.5615234375 157.14996337890625 528.4510498046875 157.97409057617188 C 526.05859375 159.2292022705078 526.0581665039062 162.1833038330078 525.0269165039062 164.92112731933594 C 524.1383666992188 169.09915161132812 522.808349609375 171.32859802246094 518.9568481445312 173.06689453125 C 510.8873596191406 177.6581573486328 503.1688232421875 173.3912811279297 500.53973388671875 171.39064025878906 C 495.7854919433594 148.580322265625 511.21600341796875 127.46012878417969 519.0945434570312 124.50928497314453 C 525.3253784179688 120.50572967529297 540.2154541015625 113.24371337890625 551.966064453125 112.09264373779297 C 555.3684692382812 109.85780334472656 560.0006713867188 109.72386169433594 563.7289428710938 106.66341400146484 C 564.6368408203125 104.54622650146484 566.869873046875 103.61022186279297 569.6944580078125 103.89530944824219 C 575.046630859375 101.63556671142578 578.3135375976562 97.07547760009766 583.56787109375 94.40840148925781 C 594.0833129882812 87.4334945678711 602.36962890625 81.0591812133789 613.2269897460938 83.50914764404297" stroke-width="0.0" fill="url(#shape_6_fill)"/>
    <path d="M 3.5396647453308105 117.7376708984375 C 26.17767333984375 124.48831176757812 37.07602310180664 128.84780883789062 48.632080078125 138.3443603515625 C 71.31131744384766 159.63645935058594 52.1523323059082 224.5333709716797 56.261512756347656 246.53817749023438 C 53.18281555175781 260.298828125 48.722251892089844 264.68072509765625 48.560848236083984 266.4084167480469 C 38.92093276977539 274.3881530761719 3.794297695159912 270.5224609375 0.8003676533699036 268.4467468261719 C 0.4528687596321106 218.13172912597656 0.03013256937265396 167.14329528808594 3.5396647453308105 117.7376708984375" stroke-width="0.0" fill="url(#shape_7_fill)"/>
    <path d="M 393.40093994140625 181.48631286621094 C 410.600830078125 173.947998046875 426.4646301269531 191.86199951171875 432.459228515625 208.8426055908203 C 468.587890625 197.1501007080078 491.2475280761719 211.30418395996094 491.6332092285156 236.01895141601562 C 490.98431396484375 250.48272705078125 486.1556091308594 251.46875 484.8457336425781 252.33607482910156 C 485.31634521484375 254.51312255859375 479.0793762207031 265.03521728515625 474.8370666503906 268.45623779296875 C 469.0430603027344 272.93048095703125 453.2210388183594 266.7112731933594 451.6280517578125 269.68548583984375 C 446.9768371582031 266.2763977050781 448.2146301269531 261.2225646972656 448.9768981933594 260.1610412597656 C 439.24859619140625 264.72247314453125 436.4971008300781 261.3741760253906 437.4219970703125 256.9029235839844 C 428.3540954589844 257.12200927734375 426.6588134765625 259.5706481933594 421.2318420410156 262.2486267089844 C 418.5391845703125 264.2608642578125 417.4997253417969 267.5940246582031 414.8257141113281 269.9938049316406 C 414.1265869140625 269.8778076171875 397.892822265625 267.8043518066406 392.5917053222656 264.1529235839844 C 391.8270263671875 265.09332275390625 389.04132080078125 263.31817626953125 386.05938720703125 263.5160217285156 C 382.1156921386719 261.9399108886719 380.8224792480469 263.1741027832031 376.68634033203125 260.972900390625 C 375.1137390136719 256.2911071777344 376.2418212890625 252.43043518066406 372.94207763671875 249.0819091796875 C 360.21514892578125 244.11123657226562 376.3341369628906 197.94033813476562 379.00030517578125 182.83116149902344 C 383.78070068359375 171.87124633789062 395.39154052734375 176.14735412597656 393.40093994140625 181.48631286621094" stroke-width="0.0" fill="url(#shape_8_fill)"/>
    <path d="M 565.6113891601562 157.45738220214844 C 568.5501098632812 158.98609924316406 569.9869995117188 162.70021057128906 570.395751953125 165.5015411376953 C 573.8976440429688 169.44070434570312 573.4091186523438 170.78872680664062 577.788330078125 174.38172912597656 C 582.1051635742188 172.81707763671875 583.8079833984375 174.74769592285156 583.6234130859375 179.67630004882812 C 575.3784790039062 180.27476501464844 572.1455688476562 225.6182098388672 577.2776489257812 226.96548461914062 C 577.8233032226562 229.95669555664062 581.2101440429688 235.56333923339844 576.1520385742188 242.8295135498047 C 568.545654296875 238.9266815185547 566.1265869140625 237.31309509277344 558.7517700195312 246.59970092773438 C 553.1567993164062 253.26234436035156 494.1376647949219 252.07215881347656 490.3416442871094 252.5732421875 C 487.81298828125 246.74644470214844 487.69879150390625 239.03404235839844 490.2413635253906 229.912353515625 C 486.4542236328125 226.22731018066406 483.19354248046875 222.27166748046875 481.15838623046875 216.10055541992188 C 476.5020751953125 209.81710815429688 479.14697265625 205.77503967285156 482.6505126953125 205.94776916503906 C 479.9146728515625 205.31475830078125 480.8497009277344 197.9821014404297 485.1581115722656 198.20474243164062 C 491.8506774902344 196.20516967773438 491.8827209472656 192.52149963378906 493.5079650878906 188.14450073242188 C 493.1065368652344 174.2333526611328 495.5794982910156 173.48684692382812 496.0960693359375 171.29620361328125 C 504.12933349609375 169.9554443359375 505.0137939453125 172.9503173828125 519.1986694335938 170.53955078125 C 524.0126342773438 171.01402282714844 524.6414794921875 168.31112670898438 526.2212524414062 165.48348999023438 C 525.4290771484375 161.0445098876953 529.80810546875 156.46922302246094 533.3859252929688 158.6488494873047 C 537.6535034179688 161.82476806640625 541.4027099609375 162.4497528076172 542.2186279296875 163.92617797851562 C 545.2910766601562 164.02291870117188 546.0117797851562 165.6631317138672 549.38037109375 166.34959411621094 C 548.7522583007812 165.63185119628906 551.3809814453125 157.0943603515625 555.4367065429688 157.29588317871094 C 558.8931884765625 156.44110107421875 562.1561889648438 156.26011657714844 565.6113891601562 157.45738220214844" stroke-width="0.0" fill="url(#shape_9_fill)"/>
    <path d="M 561.630615234375 156.20008850097656 C 567.6941528320312 153.7170867919922 571.3280029296875 159.5814208984375 571.624267578125 166.8121795654297 C 572.5142822265625 170.8184356689453 575.0531005859375 171.60414123535156 578.9204711914062 176.30538940429688 C 579.5537109375 178.01319885253906 578.3370971679688 187.26638793945312 577.2522583007812 191.58795166015625 C 571.3058471679688 196.81564331054688 571.9854125976562 230.00912475585938 578.0621948242188 230.974853515625 C 576.04833984375 231.1294403076172 575.6273803710938 236.8349609375 572.0133056640625 238.05917358398438 C 559.5709228515625 236.1020965576172 567.717041015625 238.58360290527344 561.662353515625 247.7487335205078 C 555.3489990234375 251.67141723632812 501.2860412597656 248.94357299804688 500.1799621582031 251.48077392578125 C 491.11041259765625 251.7959747314453 487.96185302734375 236.91552734375 490.43853759765625 230.22422790527344 C 486.6235656738281 224.9285430908203 481.9860534667969 219.2702178955078 481.48291015625 216.2412109375 C 475.4972229003906 214.51882934570312 475.41387939453125 212.54879760742188 474.56488037109375 203.47933959960938 C 474.2363586425781 200.37364196777344 480.4143981933594 197.36883544921875 481.4575500488281 196.86045837402344 C 490.4928283691406 195.6229705810547 494.5105285644531 184.3909912109375 496.6479187011719 183.0123748779297 C 495.9415283203125 179.47547912597656 496.8528747558594 176.9976348876953 500.4254455566406 176.07188415527344 C 507.48028564453125 175.5980987548828 514.689208984375 177.76971435546875 520.0261840820312 173.96163940429688 C 523.6759033203125 173.35394287109375 526.8171997070312 159.32931518554688 532.0813598632812 158.5541534423828 C 536.9229736328125 157.79637145996094 538.7482299804688 161.46810913085938 542.7623291015625 165.43589782714844 C 545.2904663085938 165.09152221679688 548.7146606445312 166.28280639648438 550.972412109375 163.4470977783203 C 551.3148193359375 158.06689453125 553.5938110351562 153.7625274658203 561.630615234375 156.20008850097656" stroke-width="0.0" fill="url(#shape_10_fill)"/>
    <path d="M 449.82000732421875 107.67601776123047 C 454.06121826171875 109.1094741821289 456.1183776855469 112.31613159179688 460.71441650390625 113.6049575805664 C 463.52825927734375 116.806396484375 468.98895263671875 117.41462707519531 472.3551330566406 119.62483215332031 C 488.3648376464844 124.53915405273438 488.8009338378906 125.2510986328125 491.73004150390625 129.84317016601562 C 493.3821716308594 131.7446746826172 493.22607421875 134.1490478515625 496.5148620605469 136.43556213378906 C 494.5550842285156 134.4274444580078 492.4239196777344 136.32110595703125 488.19384765625 135.20179748535156 C 484.4469909667969 133.50177001953125 482.4764099121094 134.97694396972656 479.2734069824219 134.6214599609375 C 474.7112121582031 135.95379638671875 471.4483947753906 134.28758239746094 468.2688903808594 134.35769653320312 C 465.3150939941406 133.49403381347656 460.05078125 133.50164794921875 457.1994323730469 134.39837646484375 C 453.3031311035156 143.65554809570312 468.5567321777344 153.48098754882812 480.1333312988281 157.92355346679688 C 476.1575012207031 176.60414123535156 475.3336181640625 177.15667724609375 469.6545104980469 180.68838500976562 C 466.6605529785156 182.24293518066406 466.25689697265625 186.6671905517578 463.7010192871094 188.41372680664062 C 458.7035217285156 189.04946899414062 454.6083984375 181.73779296875 453.8418884277344 176.75465393066406 C 448.26812744140625 179.3985595703125 447.51824951171875 182.62460327148438 439.8993835449219 183.0925750732422 C 439.4835510253906 183.86045837402344 435.96697998046875 195.80978393554688 434.5072326660156 198.40997314453125 C 428.5456237792969 200.8340606689453 417.4908142089844 180.5986785888672 417.7364501953125 179.7083740234375 C 416.9676513671875 179.52783203125 401.9551086425781 175.5252685546875 399.8871765136719 167.2990264892578 C 392.7506103515625 168.23861694335938 386.6524353027344 175.98960876464844 381.2584228515625 173.0666046142578 C 381.6941833496094 164.6692657470703 384.07928466796875 143.67477416992188 392.7251281738281 141.2953643798828 C 397.9081115722656 137.4480438232422 399.3675537109375 129.68162536621094 402.2832336425781 123.23450469970703 C 411.9504699707031 100.848388671875 428.2576599121094 105.26728057861328 449.82000732421875 107.67601776123047" stroke-width="0.0" fill="url(#shape_11_fill)"/>
    <path d="M 602.3125 126.8882064819336 C 606.2263793945312 129.71327209472656 605.7932739257812 142.5131378173828 608.797119140625 143.28892517089844 C 612.0789184570312 144.45619201660156 612.2354736328125 147.7060089111328 614.8541870117188 151.53253173828125 C 618.6605834960938 149.80035400390625 618.805908203125 141.69163513183594 620.4216918945312 140.32687377929688 C 624.1126098632812 138.04238891601562 626.7080078125 137.3438262939453 628.378173828125 140.1363525390625 C 627.7400512695312 142.1205596923828 629.4891357421875 144.57899475097656 629.7854614257812 147.5205841064453 C 632.2694091796875 149.82699584960938 631.6287841796875 151.05149841308594 636.1629638671875 153.74493408203125 C 641.0734252929688 155.73838806152344 639.66259765625 161.5528564453125 641.8455810546875 170.8299102783203 C 637.4120483398438 183.71458435058594 639.1088256835938 194.3093719482422 639.6532592773438 206.38372802734375 C 642.1919555664062 219.0918426513672 646.31787109375 232.09713745117188 643.0899047851562 246.7326202392578 C 622.32275390625 248.15216064453125 608.7296142578125 247.08651733398438 578.2532348632812 250.1565704345703 C 574.5032348632812 242.84970092773438 574.5611572265625 229.65142822265625 573.4216918945312 219.08132934570312 C 570.59423828125 213.25897216796875 575.1499633789062 167.997802734375 585.3325805664062 168.75625610351562 C 597.0416259765625 163.14503479003906 596.99365234375 142.43235778808594 598.6840209960938 141.8466033935547 C 595.853271484375 138.73727416992188 597.0217895507812 136.5692901611328 602.3125 126.8882064819336" stroke-width="0.0" fill="url(#shape_12_fill)"/>
    <path d="M 406.0359191894531 177.79136657714844 C 422.2164001464844 175.05409240722656 435.6642150878906 210.3217315673828 429.7839660644531 218.17608642578125 C 420.09197998046875 231.5487060546875 424.0144348144531 240.08213806152344 427.0191345214844 248.3550567626953 C 430.4126281738281 262.24505615234375 420.263427734375 265.0382995605469 415.5917053222656 267.4593200683594 C 404.8832702636719 270.4390563964844 395.8709411621094 269.6651306152344 390.0956726074219 269.46771240234375 C 385.1912841796875 264.4169006347656 382.9308166503906 264.8591003417969 381.0422058105469 263.10321044921875 C 377.4551696777344 262.3382568359375 377.06939697265625 260.0958251953125 375.5594482421875 258.397216796875 C 376.3189697265625 255.9366912841797 375.7182312011719 253.3144989013672 374.5024719238281 253.53990173339844 C 374.3146667480469 252.24679565429688 370.52117919921875 250.53623962402344 369.2736511230469 251.36334228515625 C 362.8837585449219 242.52308654785156 365.61456298828125 225.73216247558594 367.50213623046875 220.61512756347656 C 368.61529541015625 218.28240966796875 371.4324035644531 202.98843383789062 376.9635925292969 202.4138641357422 C 377.3631896972656 199.73326110839844 378.8411560058594 182.1212158203125 383.9856262207031 179.7357177734375 C 391.8398742675781 175.54322814941406 392.4966735839844 175.73619079589844 406.0359191894531 177.79136657714844" stroke-width="0.0" fill="url(#shape_13_fill)"/>
    <path d="M 510.7008361816406 65.39591979980469 C 512.146240234375 66.55014038085938 519.7538452148438 71.90684509277344 523.1243896484375 74.86986541748047 C 530.1796264648438 80.57127380371094 534.4036865234375 81.12411499023438 536.2103271484375 90.0739517211914 C 539.5424194335938 90.72972869873047 544.540771484375 90.40387725830078 545.023681640625 91.15560913085938 C 545.5372314453125 92.74657440185547 556.0956420898438 97.05216217041016 560.8355712890625 95.84416198730469 C 563.6878051757812 97.55789184570312 567.3776245117188 97.50016021728516 568.6751098632812 99.58262634277344 C 566.7931518554688 105.70901489257812 554.7288208007812 113.10752868652344 547.46044921875 109.64751434326172 C 541.7525634765625 112.15193176269531 539.3973999023438 114.99480438232422 533.8770141601562 117.15943908691406 C 526.9378662109375 119.40533447265625 524.6578369140625 120.80530548095703 515.6360473632812 119.4820556640625 C 510.4718322753906 119.4596176147461 500.89593505859375 124.88591003417969 498.9588317871094 125.28713989257812 C 496.7048645019531 128.33856201171875 493.565673828125 128.39988708496094 489.1960144042969 127.91426086425781 C 489.5195007324219 125.02753448486328 468.773681640625 119.13209533691406 468.0481872558594 118.14947509765625 C 463.2959899902344 117.75684356689453 463.0897521972656 116.46179962158203 460.44189453125 114.8165054321289 C 463.3088073730469 109.34180450439453 466.0401611328125 103.71307373046875 472.393310546875 98.05403137207031 C 475.3941650390625 89.1060562133789 473.70556640625 84.67158508300781 473.5835876464844 82.0678939819336 C 474.58551025390625 70.93343353271484 475.3412780761719 70.38600158691406 478.3880920410156 66.44416809082031 C 479.08074951171875 64.25804901123047 482.7253112792969 64.2551498413086 484.7516174316406 63.14170455932617 C 493.03253173828125 63.934600830078125 501.48638916015625 63.03728485107422 510.7008361816406 65.39591979980469" stroke-width="0.0" fill="url(#shape_14_fill)"/>
    <path d="M 532.4608764648438 159.3063201904297 C 543.7765502929688 162.91905212402344 544.0303344726562 163.9063720703125 547.0614624023438 165.73583984375 C 547.2208862304688 168.06483459472656 548.4573364257812 170.25709533691406 543.9739990234375 181.9835205078125 C 542.60888671875 189.71673583984375 539.2544555664062 232.44021606445312 538.4280395507812 235.24285888671875 C 540.51708984375 236.88929748535156 540.8319702148438 250.01748657226562 513.9302368164062 252.56712341308594 C 503.300537109375 250.71006774902344 483.664794921875 245.3957977294922 487.1415100097656 230.4924774169922 C 476.7529296875 218.862548828125 478.0315246582031 205.15635681152344 485.6924743652344 199.77764892578125 C 487.1423645019531 197.2042236328125 488.96954345703125 197.9303436279297 490.49151611328125 197.06312561035156 C 488.177978515625 189.7714080810547 489.9220886230469 180.224365234375 491.393798828125 177.49891662597656 C 493.6338806152344 176.00802612304688 496.226806640625 173.95657348632812 501.1008605957031 174.827880859375 C 507.30645751953125 175.82647705078125 511.71368408203125 179.8203582763672 522.656494140625 172.5625 C 525.5439453125 170.9558868408203 525.5353393554688 167.29940795898438 526.9548950195312 165.09483337402344 C 527.5799560546875 161.6732940673828 530.896484375 160.51242065429688 532.4608764648438 159.3063201904297" stroke-width="0.0" fill="url(#shape_15_fill)"/>
    <path d="M 651.2732543945312 111.90613555908203 C 656.501220703125 109.83220672607422 663.8060913085938 121.28254699707031 662.2142333984375 126.783203125 C 665.4652099609375 133.34596252441406 666.0466918945312 139.57952880859375 673.5154418945312 148.30929565429688 C 676.0142211914062 179.43588256835938 674.0686645507812 212.25665283203125 673.8529052734375 250.73431396484375 C 672.0267944335938 248.21444702148438 649.5870971679688 255.55288696289062 640.893310546875 246.82530212402344 C 635.7295532226562 242.20680236816406 637.7406005859375 120.19645690917969 651.2732543945312 111.90613555908203" stroke-width="0.0" fill="url(#shape_16_fill)"/>
    <path d="M 600.1221313476562 129.73715209960938 C 603.4417114257812 127.51718139648438 608.3145141601562 131.45962524414062 606.9599609375 133.9405517578125 C 608.3795166015625 135.0647735595703 608.4179077148438 139.09625244140625 609.9328002929688 145.5043487548828 C 623.1647338867188 140.19171142578125 622.3114013671875 231.61294555664062 617.3204956054688 245.25547790527344 C 595.9837646484375 253.1259307861328 577.9986572265625 246.56996154785156 580.1854248046875 235.79034423828125 C 564.5865478515625 227.2009735107422 595.524658203125 152.4537353515625 600.1221313476562 129.73715209960938" stroke-width="0.0" fill="url(#shape_17_fill)"/>
    <path d="M 321.27984619140625 186.21485900878906 C 322.7987060546875 185.8953857421875 324.278076171875 188.3704833984375 326.5739440917969 190.29965209960938 C 332.0278015136719 189.81764221191406 336.902099609375 189.15899658203125 339.5674133300781 191.2157745361328 C 342.0008850097656 196.50140380859375 347.453369140625 195.49122619628906 353.7046813964844 195.53895568847656 C 356.9339904785156 195.1326904296875 357.8761291503906 198.5232391357422 358.8351745605469 200.7211456298828 C 359.87933349609375 203.69346618652344 362.0562438964844 203.75250244140625 363.20709228515625 206.24337768554688 C 367.25457763671875 206.94847106933594 368.4799499511719 208.20506286621094 368.3748474121094 211.81129455566406 C 370.9599609375 218.0906219482422 370.74249267578125 223.45367431640625 366.5685119628906 225.7645721435547 C 366.8570556640625 231.49757385253906 365.4083251953125 235.23391723632812 367.343017578125 242.7598114013672 C 367.47625732421875 247.6370391845703 364.6731262207031 255.54530334472656 356.0924377441406 254.99142456054688 C 353.36077880859375 255.38858032226562 330.90655517578125 255.0160675048828 323.7376403808594 254.70590209960938 C 313.5186462402344 255.61190795898438 312.2875061035156 253.2976531982422 311.04681396484375 239.5659942626953 C 306.1982727050781 230.04820251464844 319.3591613769531 192.15077209472656 321.27984619140625 186.21485900878906" stroke-width="0.0" fill="url(#shape_18_fill)"/>
    <path d="M 479.0428466796875 217.78599548339844 C 491.206298828125 244.11436462402344 497.37774658203125 250.8202362060547 480.0674743652344 269.3980712890625 C 470.25396728515625 278.1741027832031 444.010498046875 261.3450012207031 442.1435546875 261.65911865234375 C 438.6376953125 260.6340026855469 437.1813049316406 258.140380859375 432.59637451171875 257.9258117675781 C 429.6522521972656 258.1949768066406 427.6393127441406 257.72357177734375 426.64385986328125 254.33103942871094 C 422.16754150390625 244.75265502929688 420.6761474609375 235.76116943359375 422.4901123046875 228.51536560058594 C 424.16448974609375 224.5974884033203 420.9615173339844 228.8244171142578 421.5643005371094 225.68826293945312 C 427.6865234375 219.43724060058594 429.6682434082031 218.7699737548828 429.61236572265625 215.75546264648438 C 438.4120788574219 199.95376586914062 465.350341796875 204.4080810546875 479.0428466796875 217.78599548339844" stroke-width="0.0" fill="url(#shape_19_fill)"/>
    <path d="M 674.0585327148438 -2.217135190963745 C 674.9647216796875 32.94343948364258 674.5672607421875 64.7734603881836 674.3182983398438 97.08259582519531 C 669.0237426757812 96.52099609375 651.502197265625 86.0564956665039 642.7604370117188 90.86071014404297 C 638.681396484375 89.60431671142578 638.25830078125 85.78433990478516 637.9200439453125 84.6672134399414 C 628.879150390625 86.14167022705078 620.08642578125 91.07418823242188 609.2225341796875 84.96741485595703 C 610.7659301757812 78.35767364501953 614.48291015625 75.98744201660156 614.4988403320312 71.60714721679688 C 624.8804321289062 71.52061462402344 650.7826538085938 27.033737182617188 648.9774780273438 22.110754013061523 C 656.4379272460938 16.07295799255371 656.7861328125 4.790777683258057 667.8011474609375 4.131895542144775 C 669.7743530273438 2.645692825317383 670.2542724609375 1.2326186895370483 674.0585327148438 -2.217135190963745" stroke-width="0.0" fill="url(#shape_20_fill)"/>
    <path d="M 561.80908203125 156.0813751220703 C 569.6736450195312 156.81063842773438 569.5475463867188 164.70114135742188 572.8060913085938 165.8808135986328 C 584.810791015625 167.8358917236328 575.1808471679688 231.4026336669922 576.4879760742188 240.09890747070312 C 572.2815551757812 241.75205993652344 568.004638671875 244.34011840820312 566.6576538085938 247.59640502929688 C 558.4083251953125 250.22662353515625 542.9805908203125 251.73570251464844 540.1201782226562 246.30587768554688 C 544.5484619140625 244.71636962890625 540.5288696289062 162.81890869140625 554.9443359375 157.69851684570312 C 556.18798828125 153.35397338867188 558.4466552734375 153.45790100097656 561.80908203125 156.0813751220703" stroke-width="0.0" fill="url(#shape_21_fill)"/>
    <path d="M 217.1582794189453 211.9278106689453 C 226.2233123779297 217.92138671875 226.7789764404297 250.00965881347656 218.48617553710938 254.85684204101562 C 210.8985137939453 262.61865234375 208.20559692382812 263.93115234375 205.68991088867188 272.41754150390625 C 205.38600158691406 275.99420166015625 206.62347412109375 276.19012451171875 206.95175170898438 280.1573791503906 C 207.09249877929688 283.2708435058594 204.28903198242188 285.1639404296875 200.60072326660156 284.7384948730469 C 201.36199951171875 283.3218994140625 195.8164825439453 266.9864807128906 188.28756713867188 264.00799560546875 C 186.5839080810547 260.9462585449219 184.34278869628906 261.74884033203125 181.4498291015625 261.2696228027344 C 180.76876831054688 260.5264892578125 178.97274780273438 260.8583984375 177.91207885742188 255.64785766601562 C 181.09194946289062 248.37413024902344 169.14419555664062 242.49069213867188 171.09657287597656 237.5013427734375 C 176.12644958496094 216.95654296875 181.19654846191406 216.12782287597656 187.171630859375 220.87750244140625 C 194.321044921875 218.3013916015625 193.7260284423828 215.88124084472656 195.88951110839844 213.1768798828125 C 194.2958221435547 205.5513153076172 194.18624877929688 203.64773559570312 200.76173400878906 202.4716339111328 C 211.41748046875 202.18746948242188 214.22462463378906 203.8651885986328 217.1582794189453 211.9278106689453" stroke-width="0.0" fill="url(#shape_22_fill)"/>
    <path d="M 111.51844024658203 426.42230224609375 C 112.7198257446289 429.2742004394531 110.9930648803711 431.1817321777344 110.67420959472656 431.7017517089844 C 106.4984130859375 435.5589294433594 102.27696990966797 436.16571044921875 91.94442749023438 433.0680236816406 C 89.18963623046875 437.22998046875 96.90787506103516 447.3035888671875 90.1317138671875 450.9278869628906 C 78.67094421386719 445.0030517578125 46.92639923095703 447.9189758300781 24.94719123840332 449.6347961425781 C 13.983027458190918 446.2917175292969 13.887932777404785 439.79388427734375 17.818357467651367 436.890625 C 34.8631477355957 428.9703674316406 51.256690979003906 426.7394714355469 70.48371124267578 426.0906066894531 C 75.8225326538086 425.72808837890625 107.65776062011719 417.9540100097656 111.51844024658203 426.42230224609375" stroke-width="0.0" fill="url(#shape_23_fill)"/>
    <path d="M 194.8779754638672 123.59828186035156 C 199.98316955566406 124.46333312988281 210.21865844726562 144.06033325195312 213.4384765625 145.34376525878906 C 215.4436492919922 148.3017120361328 218.4556121826172 149.76962280273438 219.68936157226562 153.69671630859375 C 227.1827850341797 157.71499633789062 249.25782775878906 180.49398803710938 244.47283935546875 199.66807556152344 C 239.0373992919922 199.5988006591797 235.39222717285156 187.45701599121094 234.55784606933594 182.943603515625 C 233.022705078125 184.63717651367188 231.24485778808594 193.66015625 230.16024780273438 196.7378387451172 C 226.49563598632812 199.95205688476562 225.79507446289062 202.21290588378906 220.9088134765625 208.33872985839844 C 215.18092346191406 207.6158447265625 213.7203369140625 200.0349884033203 214.60150146484375 195.87460327148438 C 212.7169647216797 189.5130615234375 212.6769561767578 182.8165283203125 207.23204040527344 178.30369567871094 C 204.0471649169922 174.0260009765625 205.165283203125 173.0393524169922 205.27183532714844 166.96926879882812 C 204.16371154785156 151.34237670898438 199.94558715820312 148.9169921875 193.4103546142578 143.74302673339844 C 188.73818969726562 141.3155059814453 190.41802978515625 127.86198425292969 194.8779754638672 123.59828186035156" stroke-width="0.0" fill="url(#shape_24_fill)"/>
    <path d="M 594.7635498046875 413.2118835449219 C 597.1992797851562 415.0451354980469 624.812255859375 411.9642333984375 627.365966796875 418.7301330566406 C 628.322998046875 420.8084716796875 625.8736572265625 424.9300537109375 627.6216430664062 427.6873474121094 C 629.1766357421875 430.1000671386719 632.3912353515625 430.2635498046875 634.1968383789062 436.43511962890625 C 615.54296875 447.2131652832031 578.609619140625 440.31732177734375 577.5559692382812 431.5157165527344 C 570.8456420898438 423.24432373046875 574.1168212890625 417.369873046875 575.1443481445312 414.6935119628906 C 580.464111328125 410.2641906738281 587.2339477539062 412.1961669921875 594.7635498046875 413.2118835449219" stroke-width="0.0" fill="url(#shape_25_fill)"/>
    <path d="M 142.92166137695312 66.69110870361328 C 144.08432006835938 68.9287109375 149.16928100585938 68.45835876464844 149.6297607421875 69.13851928710938 C 148.90972900390625 70.90240478515625 150.45782470703125 71.8266830444336 149.78274536132812 73.85792541503906 C 151.00942993164062 74.45366668701172 150.48153686523438 78.11540985107422 151.84213256835938 82.51716613769531 C 152.48538208007812 89.82349395751953 152.2197265625 97.90540313720703 154.03050231933594 104.07210540771484 C 153.54644775390625 107.6169662475586 155.12147521972656 108.52019500732422 154.750244140625 111.7540512084961 C 158.19432067871094 123.14176940917969 155.19744873046875 133.51441955566406 150.17124938964844 133.5472869873047 C 141.8651885986328 128.18202209472656 135.36094665527344 122.28399658203125 125.54600524902344 117.36605834960938 C 122.50711822509766 114.33737182617188 124.6480941772461 109.74032592773438 126.92462158203125 107.15801239013672 C 128.8359375 106.85505676269531 128.8787384033203 105.2833480834961 132.64674377441406 104.6549072265625 C 139.17758178710938 96.5090103149414 135.33477783203125 92.87884521484375 133.353759765625 90.29981994628906 C 134.21311950683594 88.9020767211914 139.26980590820312 87.08271789550781 140.04495239257812 85.31062316894531 C 138.14688110351562 84.75118255615234 138.8616943359375 77.64588928222656 139.48304748535156 77.45137023925781 C 143.4988250732422 76.5869369506836 142.65040588378906 70.23776245117188 142.92166137695312 66.69110870361328" stroke-width="0.0" fill="url(#shape_26_fill)"/>
    <path d="M 144.50038146972656 67.7041015625 C 149.26596069335938 68.22578430175781 150.1637420654297 70.73554992675781 148.36294555664062 75.81498718261719 C 151.90548706054688 76.7894287109375 151.4984130859375 79.65057373046875 154.01841735839844 82.0265884399414 C 151.4358673095703 88.32249450683594 152.72203063964844 94.82308197021484 153.07369995117188 104.1264877319336 C 154.26441955566406 105.22331237792969 153.62843322753906 108.94001770019531 154.979736328125 112.48080444335938 C 154.43807983398438 117.5546646118164 156.58755493164062 122.02571105957031 155.12709045410156 126.10238647460938 C 152.68263244628906 132.0527801513672 151.3625946044922 133.17547607421875 147.43551635742188 133.3773193359375 C 139.314697265625 134.48280334472656 127.1783218383789 122.35237884521484 125.16345977783203 121.7820053100586 C 122.18313598632812 119.5711441040039 121.14703369140625 114.56226348876953 128.52911376953125 110.5348892211914 C 124.10686492919922 108.7730484008789 124.2312240600586 106.17032623291016 131.59669494628906 105.76675415039062 C 135.62930297851562 105.30965423583984 134.81080627441406 91.85498046875 135.06520080566406 89.59846496582031 C 139.31997680664062 87.08101654052734 138.352294921875 84.59355926513672 138.2936248779297 81.68559265136719 C 139.07827758789062 77.4930191040039 140.3616485595703 76.7745361328125 141.6464385986328 76.55609893798828 C 145.2272186279297 71.81819915771484 143.3317413330078 68.87267303466797 144.50038146972656 67.7041015625" stroke-width="0.0" fill="url(#shape_27_fill)"/>
    <path d="M -0.317739874124527 -0.27031201124191284 C 4.69700288772583 0.3801362216472626 9.643414497375488 -0.524139404296875 17.043502807617188 -0.45208433270454407 C 20.12651824951172 0.19391293823719025 19.622886657714844 10.391761779785156 32.46587371826172 17.77814292907715 C 29.815744400024414 25.326433181762695 27.41083335876465 25.498476028442383 27.289152145385742 26.96867561340332 C 33.84998321533203 30.85179328918457 40.484561920166016 31.69477653503418 42.23624801635742 38.25191879272461 C 36.39861297607422 39.43120193481445 33.376182556152344 39.16780471801758 30.7877197265625 36.038387298583984 C 25.714353561401367 31.83658790588379 17.047561645507812 32.98529052734375 10.528192520141602 33.443145751953125 C 9.112138748168945 37.08012771606445 12.61108684539795 40.21821975708008 13.074030876159668 41.56479263305664 C 13.711699485778809 42.06853485107422 14.177685737609863 46.37321853637695 18.065959930419922 47.94715118408203 C 20.056415557861328 51.07489776611328 18.743013381958008 52.30973434448242 19.78459930419922 56.998985290527344 C 19.104537963867188 61.212738037109375 11.463976860046387 62.30723190307617 8.907442092895508 61.16237258911133 C 5.497304439544678 60.88276290893555 3.533324956893921 59.14203643798828 0.3253084421157837 59.434024810791016 C -0.31751859188079834 39.77818298339844 -0.3247997462749481 19.62857437133789 -0.317739874124527 -0.27031201124191284" stroke-width="0.0" fill="url(#shape_28_fill)"/>
    <path d="M 298.36151123046875 196.87588500976562 C 297.276611328125 199.25811767578125 299.1225280761719 202.45582580566406 300.7607116699219 207.4067840576172 C 301.37188720703125 209.29872131347656 319.28936767578125 232.2088165283203 313.3216552734375 252.06149291992188 C 310.7822265625 252.0199737548828 310.3070983886719 255.03793334960938 307.69451904296875 256.9558410644531 C 300.27508544921875 258.86419677734375 294.9285888671875 258.8388977050781 283.1814270019531 257.8268127441406 C 282.5367126464844 232.37794494628906 285.4101257324219 213.3965301513672 298.36151123046875 196.87588500976562" stroke-width="0.0" fill="url(#shape_29_fill)"/>
    <path d="M -0.4301322102546692 0.140253484249115 C 4.436020374298096 0.45170512795448303 9.53681468963623 -0.41492775082588196 14.510934829711914 0.14185059070587158 C 15.687236785888672 0.4978460371494293 16.123844146728516 5.579947471618652 16.10933494567871 8.070401191711426 C 18.98362159729004 10.754288673400879 22.222179412841797 18.725574493408203 26.68036460876465 21.01382827758789 C 27.256114959716797 22.336410522460938 24.736431121826172 26.818614959716797 24.121519088745117 31.250492095947266 C 21.122373580932617 33.0400276184082 16.00335693359375 32.86728286743164 7.744089603424072 34.41239929199219 C 9.295045852661133 35.71193313598633 8.78196907043457 38.431400299072266 11.416963577270508 40.38669204711914 C 11.492431640625 44.270626068115234 10.772590637207031 50.15665817260742 13.760862350463867 52.29421615600586 C 17.675148010253906 52.218807220458984 19.00910186767578 53.88977813720703 18.350412368774414 57.626922607421875 C 12.535720825195312 59.96402359008789 7.62001895904541 60.85027313232422 0.22865423560142517 61.72471237182617 C -0.4116225242614746 39.95041275024414 -0.3541903495788574 19.752904891967773 -0.4301322102546692 0.140253484249115" stroke-width="0.0" fill="url(#shape_30_fill)"/>
    <path d="M 544.925537109375 72.15460205078125 C 548.8419799804688 71.77465057373047 581.2247314453125 85.1279067993164 584.6055908203125 87.54405212402344 C 580.7575073242188 92.08711242675781 578.2178955078125 92.48932647705078 577.2685546875 98.24463653564453 C 573.240966796875 100.72496795654297 572.1360473632812 99.9901351928711 568.748779296875 98.26493835449219 C 566.5726928710938 96.40007781982422 544.695556640625 93.47654724121094 538.5179443359375 88.50761413574219 C 538.5808715820312 85.48688507080078 537.47265625 83.35952758789062 535.5704956054688 82.61383056640625 C 534.92138671875 79.3119125366211 530.8197631835938 79.01933288574219 527.1682739257812 78.0151596069336 C 525.4124145507812 75.81033325195312 527.8121337890625 70.81881713867188 531.613525390625 69.35298919677734 C 536.3186645507812 67.17522430419922 540.968994140625 68.51721954345703 544.925537109375 72.15460205078125" stroke-width="0.0" fill="url(#shape_31_fill)"/>
    <path d="M 448.3665466308594 263.974609375 C 450.66796875 265.2643737792969 451.3345642089844 266.6919860839844 456.0248107910156 267.64227294921875 C 460.65087890625 267.612060546875 465.53924560546875 270.1322937011719 469.9037780761719 273.30078125 C 470.4377136230469 275.63189697265625 471.82269287109375 276.8928527832031 471.6763000488281 280.7247009277344 C 448.6162414550781 289.3758544921875 426.6314697265625 286.9136657714844 415.8970947265625 284.944580078125 C 413.3752136230469 273.9172058105469 415.3127136230469 272.3572998046875 415.7335510253906 268.2677917480469 C 418.19049072265625 267.2076416015625 417.7781982421875 264.8068542480469 419.32965087890625 263.0555114746094 C 428.75885009765625 254.19898986816406 438.6877136230469 259.0470886230469 448.3665466308594 263.974609375" stroke-width="0.0" fill="url(#shape_32_fill)"/>
    <path d="M 270.58685302734375 190.8331756591797 C 281.2491760253906 191.2568359375 284.3740234375 243.27760314941406 279.1492004394531 244.0242462158203 C 278.4696350097656 247.1937713623047 273.7942199707031 246.6603546142578 269.951904296875 248.2825927734375 C 266.4792175292969 245.8024444580078 266.8212890625 241.93798828125 263.84112548828125 240.49273681640625 C 257.0606689453125 209.30528259277344 260.07647705078125 203.4036865234375 270.58685302734375 190.8331756591797" stroke-width="0.0" fill="url(#shape_33_fill)"/>
    <path d="M 253.72804260253906 425.26470947265625 C 255.90420532226562 427.84088134765625 263.5047912597656 432.1231689453125 263.1701354980469 438.7640380859375 C 260.534912109375 441.4097900390625 260.01806640625 444.2021484375 252.30311584472656 444.3722229003906 C 247.03871154785156 444.2524108886719 220.66806030273438 446.75286865234375 212.60231018066406 444.5290832519531 C 213.02523803710938 436.9957580566406 213.95950317382812 436.2223205566406 215.91908264160156 434.4527587890625 C 216.12474060058594 433.3796081542969 224.99693298339844 433.32696533203125 226.59783935546875 430.1924133300781 C 231.79739379882812 424.9424133300781 243.01971435546875 424.215576171875 253.72804260253906 425.26470947265625" stroke-width="0.0" fill="url(#shape_34_fill)"/>
    <path d="M 105.63208770751953 69.93653106689453 C 109.41378784179688 70.07823944091797 112.44940948486328 78.26365661621094 110.63656616210938 82.40357208251953 C 115.86449432373047 84.97879028320312 116.86620330810547 110.28533935546875 117.1678466796875 110.9355239868164 C 117.30431365966797 113.27623748779297 111.80120086669922 114.15101623535156 109.85789489746094 118.55790710449219 C 105.48628997802734 116.63164520263672 96.72337341308594 118.76777648925781 92.43327331542969 112.9549560546875 C 91.61582946777344 85.57014465332031 103.36493682861328 84.11045837402344 105.63208770751953 69.93653106689453" stroke-width="0.0" fill="url(#shape_35_fill)"/>
    <path d="M 451.7027893066406 178.1603240966797 C 453.60546875 176.13992309570312 456.6265563964844 177.18734741210938 456.9499816894531 179.70428466796875 C 457.6392822265625 179.7745819091797 457.7608337402344 184.08155822753906 459.3489990234375 185.41204833984375 C 458.2771911621094 189.8262481689453 461.9652404785156 193.5679931640625 460.611328125 206.4391326904297 C 459.471435546875 209.54269409179688 453.43524169921875 209.17657470703125 448.9563293457031 207.0745849609375 C 441.5432434082031 207.64869689941406 440.52362060546875 209.292724609375 433.8153381347656 210.85943603515625 C 432.36431884765625 209.3529052734375 437.17608642578125 188.95230102539062 439.7593078613281 185.22320556640625 C 441.32861328125 182.03770446777344 445.4878845214844 182.43576049804688 446.7942199707031 180.6602783203125 C 448.0026550292969 178.21755981445312 449.7947692871094 179.87171936035156 451.7027893066406 178.1603240966797" stroke-width="0.0" fill="url(#shape_36_fill)"/>
    <path d="M 557.76708984375 83.54409790039062 C 563.7002563476562 80.47259521484375 581.8392944335938 82.52346801757812 577.5707397460938 84.09805297851562 C 582.5228271484375 83.21135711669922 586.6904296875 84.61685180664062 586.938720703125 87.43608856201172 C 588.0794067382812 91.9609146118164 580.9356689453125 98.54857635498047 574.39208984375 100.01280212402344 C 573.7950439453125 99.343994140625 548.5681762695312 96.85370635986328 540.8133544921875 85.79985046386719 C 538.8746337890625 85.18114471435547 537.8978271484375 81.55445861816406 536.6747436523438 78.3852310180664 C 544.6227416992188 76.62203979492188 551.3641357421875 78.32007598876953 557.76708984375 83.54409790039062" stroke-width="0.0" fill="url(#shape_37_fill)"/>
    <path d="M 250.25706481933594 208.61460876464844 C 260.8951416015625 211.72982788085938 258.0506896972656 246.13082885742188 258.3304443359375 247.31785583496094 C 255.26251220703125 254.0674591064453 249.9755401611328 253.35569763183594 245.6912841796875 255.87509155273438 C 236.10157775878906 241.9528350830078 243.22364807128906 211.19822692871094 250.25706481933594 208.61460876464844" stroke-width="0.0" fill="url(#shape_38_fill)"/>
    <path d="M 444.41668701171875 262.0852966308594 C 445.95819091796875 263.4891357421875 449.08929443359375 266.5992431640625 447.64361572265625 270.0952453613281 C 443.974853515625 270.32611083984375 442.56219482421875 276.90606689453125 441.0298156738281 279.89569091796875 C 440.4090576171875 286.1007385253906 416.8540954589844 286.5657653808594 416.0080871582031 280.3373718261719 C 414.7598571777344 276.9337463378906 413.2589416503906 273.9833679199219 415.3758850097656 271.6756591796875 C 414.55401611328125 269.8199157714844 418.18316650390625 261.06353759765625 424.5621337890625 260.3188171386719 C 430.158935546875 255.97804260253906 436.84637451171875 258.0074768066406 444.41668701171875 262.0852966308594" stroke-width="0.0" fill="url(#shape_39_fill)"/>
    <path d="M 407.7402648925781 409.77001953125 C 408.6874694824219 409.8802490234375 416.7667541503906 419.0188293457031 413.4389953613281 424.0400695800781 C 397.23809814453125 432.79486083984375 380.7093811035156 421.1110534667969 377.42279052734375 420.1895446777344 C 369.8806457519531 417.5929260253906 372.0939636230469 416.96954345703125 373.32965087890625 412.0132141113281 C 379.27630615234375 404.2325744628906 398.5550537109375 403.8411865234375 407.7402648925781 409.77001953125" stroke-width="0.0" fill="url(#shape_40_fill)"/>
    <path d="M 66.43448638916016 427.6233215332031 C 67.57161712646484 429.17926025390625 65.33094024658203 435.90777587890625 59.96756362915039 436.2721252441406 C 58.57483673095703 437.22723388671875 41.827266693115234 437.56195068359375 33.09489440917969 444.0445861816406 C 29.421361923217773 443.91131591796875 24.205223083496094 447.50732421875 17.05206871032715 443.6568603515625 C 16.548315048217773 440.63836669921875 17.597305297851562 439.2030334472656 16.667837142944336 437.3780822753906 C 33.46908950805664 428.4823913574219 56.93512725830078 426.7313232421875 66.43448638916016 427.6233215332031" stroke-width="0.0" fill="url(#shape_41_fill)"/>
    <path d="M 278.6321105957031 384.60394287109375 C 281.78704833984375 384.3026123046875 294.01531982421875 384.92767333984375 296.2231750488281 389.2790222167969 C 297.1378479003906 395.1905517578125 299.6829528808594 400.3354797363281 294.24835205078125 403.74969482421875 C 291.7686462402344 398.07415771484375 264.11016845703125 402.513671875 258.1145935058594 403.23272705078125 C 254.64305114746094 402.03125 253.76332092285156 390.873046875 257.2544860839844 387.0393981933594 C 264.49359130859375 384.8240661621094 270.30059814453125 385.0356140136719 278.6321105957031 384.60394287109375" stroke-width="0.0" fill="url(#shape_42_fill)"/>
    <path d="M 219.43438720703125 222.25103759765625 C 223.1564483642578 221.05955505371094 229.11178588867188 221.24386596679688 234.44070434570312 222.7716522216797 C 237.21327209472656 225.96902465820312 243.03353881835938 243.5850830078125 240.4530029296875 255.90472412109375 C 237.6492462158203 261.22625732421875 230.1251983642578 261.4142761230469 220.7610321044922 261.4574890136719 C 215.95875549316406 259.5196838378906 215.50294494628906 258.7568664550781 217.7123260498047 248.0499725341797 C 219.53997802734375 246.47840881347656 217.8513946533203 226.40023803710938 219.43438720703125 222.25103759765625" stroke-width="0.0" fill="url(#shape_43_fill)"/>
    <path d="M 483.9986877441406 395.3826904296875 C 486.83038330078125 399.8002624511719 485.8560485839844 400.9896545410156 483.5608825683594 401.2652893066406 C 474.9207458496094 407.28338623046875 450.7755432128906 407.2205810546875 450.7134094238281 407.3781433105469 C 448.03778076171875 404.4214782714844 451.5940246582031 396.1761779785156 453.60760498046875 396.46636962890625 C 462.4930114746094 393.22113037109375 474.0789794921875 392.88690185546875 483.9986877441406 395.3826904296875" stroke-width="0.0" fill="url(#shape_44_fill)"/>
    <path d="M 46.05100631713867 406.4659423828125 C 45.53030014038086 409.5475158691406 36.06636047363281 412.3968811035156 35.221683502197266 414.5657958984375 C 32.88492965698242 414.7554626464844 32.561187744140625 416.21142578125 29.77726936340332 416.7319030761719 C 28.159048080444336 418.1612548828125 25.270139694213867 418.16851806640625 21.82251739501953 421.1988220214844 C 16.077964782714844 420.0431823730469 2.129882335662842 416.7221984863281 -1.1275646686553955 420.70635986328125 C 0.7429945468902588 419.5913391113281 -0.4719906747341156 410.2552490234375 1.6053677797317505 409.9702453613281 C 8.20436954498291 408.8353271484375 44.122344970703125 407.80560302734375 46.05100631713867 406.4659423828125" stroke-width="0.0" fill="url(#shape_45_fill)"/>
    <path d="M 452.019287109375 175.272216796875 C 456.6976013183594 174.6487579345703 465.1169738769531 197.4682159423828 464.6248779296875 202.090087890625 C 462.5731506347656 209.6573486328125 451.6893615722656 209.63796997070312 449.4757385253906 206.77696228027344 C 448.3284912109375 203.2490234375 449.0526428222656 198.31259155273438 448.8455505371094 195.3010711669922 C 447.94012451171875 194.5435028076172 447.6115417480469 192.19883728027344 448.49774169921875 187.73681640625 C 450.07415771484375 186.40625 449.5972900390625 183.25025939941406 452.019287109375 175.272216796875" stroke-width="0.0" fill="url(#shape_46_fill)"/>
    <path d="M 375.053466796875 185.1646728515625 C 378.39398193359375 189.9857940673828 378.74237060546875 205.7742462158203 372.9847106933594 206.62161254882812 C 365.86456298828125 206.82669067382812 364.7734069824219 204.85195922851562 361.7841796875 203.32615661621094 C 353.9729309082031 204.237548828125 351.73370361328125 200.25965881347656 354.5386047363281 188.3451385498047 C 356.6388244628906 184.94680786132812 358.3639221191406 184.41053771972656 365.93524169921875 185.3653106689453 C 369.09088134765625 184.56362915039062 373.7987976074219 182.67771911621094 375.053466796875 185.1646728515625" stroke-width="0.0" fill="url(#shape_47_fill)"/>
    <path d="M 470.2271728515625 267.9136047363281 C 472.5895690917969 268.4346923828125 476.5108337402344 269.59796142578125 475.42926025390625 283.6192932128906 C 464.7908020019531 287.0072021484375 456.6613464355469 284.469482421875 444.32110595703125 284.7617492675781 C 439.3130187988281 282.1980895996094 439.996826171875 276.9552917480469 441.23968505859375 276.4988098144531 C 447.7482604980469 266.90130615234375 455.6842346191406 267.3804931640625 470.2271728515625 267.9136047363281" stroke-width="0.0" fill="url(#shape_48_fill)"/>
    <path d="M 176.7320556640625 118.90959167480469 C 179.19537353515625 116.27342987060547 181.89405822753906 117.00856018066406 183.4427032470703 117.48198699951172 C 184.69735717773438 120.20649719238281 183.8538818359375 122.34420776367188 185.12484741210938 126.25706481933594 C 181.52908325195312 131.9871826171875 187.05166625976562 136.67523193359375 186.32713317871094 144.097900390625 C 183.19691467285156 149.484375 174.24717712402344 147.3753662109375 170.62075805664062 147.85301208496094 C 170.60879516601562 126.23068237304688 169.3998565673828 122.39817810058594 176.7320556640625 118.90959167480469" stroke-width="0.0" fill="url(#shape_49_fill)"/>
    <path d="M 334.10302734375 427.47802734375 C 337.7084655761719 428.296142578125 340.7472229003906 429.40643310546875 342.8427429199219 432.0727233886719 C 346.3592834472656 435.6021728515625 345.1612854003906 437.23162841796875 342.480224609375 437.6108093261719 C 342.9466552734375 445.00909423828125 324.37347412109375 447.60589599609375 322.0845642089844 440.6566162109375 C 316.9137878417969 439.7658996582031 315.95611572265625 434.0210876464844 315.383056640625 429.78607177734375 C 321.0667724609375 424.6986389160156 328.16455078125 425.0020751953125 334.10302734375 427.47802734375" stroke-width="0.0" fill="url(#shape_50_fill)"/>
    <path d="M 297.041259765625 390.0436706542969 C 298.5620422363281 394.9800720214844 296.5165100097656 399.7246398925781 289.16314697265625 399.268798828125 C 284.4809875488281 397.4670715332031 281.911865234375 398.9259033203125 271.4009094238281 402.70941162109375 C 271.03021240234375 401.62158203125 269.4924621582031 399.001708984375 270.9421691894531 397.47900390625 C 269.8731384277344 395.4922790527344 272.88916015625 387.9800720214844 277.68389892578125 388.84661865234375 C 283.5140686035156 386.6551208496094 289.22381591796875 387.62261962890625 297.041259765625 390.0436706542969" stroke-width="0.0" fill="url(#shape_51_fill)"/>
    <path d="M 269.7816162109375 188.55909729003906 C 277.7701110839844 194.25257873535156 278.8826599121094 205.99993896484375 280.6444091796875 214.84034729003906 C 271.7069396972656 211.01605224609375 267.24462890625 208.7132568359375 261.1981201171875 214.36111450195312 C 259.98614501953125 205.89395141601562 264.1415100097656 197.2136993408203 265.60137939453125 194.68167114257812 C 269.40435791015625 194.412353515625 269.2319641113281 191.85719299316406 269.7816162109375 188.55909729003906" stroke-width="0.0" fill="url(#shape_52_fill)"/>
    <path d="M 218.11636352539062 409.6949462890625 C 215.9727020263672 410.962158203125 215.46551513671875 413.0626220703125 214.33926391601562 414.4974365234375 C 213.54986572265625 418.0907287597656 189.00157165527344 421.4990234375 187.48367309570312 415.6649475097656 C 186.27467346191406 408.322998046875 205.6852264404297 401.52801513671875 218.11636352539062 409.6949462890625" stroke-width="0.0" fill="url(#shape_53_fill)"/>
    <path d="M 205.7523651123047 424.5735168457031 C 205.35202026367188 425.4234924316406 206.21994018554688 428.6341552734375 204.5413360595703 429.5353698730469 C 200.3856964111328 433.5706787109375 178.84225463867188 433.4714050292969 177.9005126953125 432.8165283203125 C 176.6667938232422 430.9567565917969 178.12319946289062 425.955078125 176.6902618408203 423.91302490234375 C 187.02944946289062 420.4990539550781 197.0421142578125 422.1632385253906 205.7523651123047 424.5735168457031" stroke-width="0.0" fill="url(#shape_54_fill)"/>
    <path d="M 270.70477294921875 245.1316680908203 C 275.4210205078125 244.66351318359375 276.66436767578125 245.77099609375 281.2087707519531 246.17550659179688 C 280.8426208496094 250.55128479003906 279.673095703125 254.13868713378906 281.7109680175781 258.1558837890625 C 263.46417236328125 257.85955810546875 262.9248962402344 257.1470642089844 255.5172119140625 255.9223175048828 C 254.87648010253906 248.17149353027344 255.85264587402344 247.22914123535156 258.4351806640625 244.92572021484375 C 259.750732421875 239.416259765625 265.7809753417969 240.7443389892578 270.70477294921875 245.1316680908203" stroke-width="0.0" fill="url(#shape_55_fill)"/>
    <path d="M 271.3371276855469 363.06201171875 C 276.97393798828125 364.92852783203125 281.7348937988281 363.35882568359375 284.4500427246094 368.1239929199219 C 285.40972900390625 369.2547302246094 285.4639892578125 371.69757080078125 283.93621826171875 378.23828125 C 276.57958984375 378.1387939453125 265.4024963378906 380.6258850097656 253.75189208984375 378.95953369140625 C 250.0945281982422 375.5754699707031 251.62123107910156 367.054931640625 252.9027557373047 365.7320861816406 C 259.1518249511719 364.23260498046875 265.52252197265625 363.38720703125 271.3371276855469 363.06201171875" stroke-width="0.0" fill="url(#shape_56_fill)"/>
    <path d="M 409.33673095703125 271.3231506347656 C 413.2723693847656 270.12835693359375 416.992919921875 274.9317626953125 416.8954772949219 281.7188415527344 C 412.60382080078125 288.862548828125 401.6620788574219 285.5404357910156 390.5223388671875 286.7937316894531 C 388.9031066894531 273.2986755371094 397.5480651855469 267.636962890625 409.33673095703125 271.3231506347656" stroke-width="0.0" fill="url(#shape_57_fill)"/>
    <path d="M 632.336669921875 352.29962158203125 C 632.5233154296875 353.03594970703125 660.0256958007812 353.0509948730469 668.69384765625 353.2548522949219 C 668.468017578125 358.3793640136719 662.3844604492188 360.9083251953125 656.4664916992188 358.2173156738281 C 654.0563354492188 358.07354736328125 634.0104370117188 360.934814453125 631.4232788085938 361.1236267089844 C 627.7454223632812 357.1497802734375 629.28125 353.5601806640625 632.336669921875 352.29962158203125" stroke-width="0.0" fill="url(#shape_58_fill)"/>
    <path d="M 341.3267822265625 385.3082580566406 C 342.6827087402344 390.3699951171875 358.107421875 391.85614013671875 359.1704406738281 394.8334655761719 C 356.322021484375 399.5631408691406 340.9969482421875 402.361083984375 338.4570007324219 399.5122375488281 C 335.1422119140625 399.6009826660156 333.0892333984375 398.76971435546875 331.8785705566406 396.5333251953125 C 331.98529052734375 394.9389343261719 330.76129150390625 393.4747314453125 332.4391784667969 390.6331481933594 C 334.1734313964844 385.7685852050781 338.0601806640625 386.3905944824219 341.3267822265625 385.3082580566406" stroke-width="0.0" fill="url(#shape_59_fill)"/>
    <path d="M 459.78094482421875 364.4176330566406 C 463.7322692871094 364.3734436035156 472.0261535644531 368.4207458496094 472.8499755859375 373.2404479980469 C 471.6986389160156 377.0943908691406 470.46563720703125 376.0496520996094 463.0566711425781 375.9685974121094 C 460.32867431640625 376.5272521972656 455.39288330078125 377.49920654296875 452.9242248535156 370.4857177734375 C 452.205078125 369.11334228515625 458.7690124511719 365.0400695800781 459.78094482421875 364.4176330566406" stroke-width="0.0" fill="url(#shape_60_fill)"/>
    <path d="M 436.5552673339844 433.1125793457031 C 440.2855529785156 434.2389831542969 442.4934997558594 436.3195495605469 441.9892578125 439.12994384765625 C 440.5068664550781 442.4448547363281 430.2142333984375 441.1813049316406 425.8816223144531 442.5209045410156 C 422.54339599609375 438.06951904296875 424.14984130859375 434.4553527832031 423.5645751953125 432.34930419921875 C 428.5447082519531 431.0223693847656 433.8214416503906 431.4627990722656 436.5552673339844 433.1125793457031" stroke-width="0.0" fill="url(#shape_61_fill)"/>
    <path d="M 185.43118286132812 411.4554443359375 C 186.26100158691406 413.93170166015625 185.01026916503906 414.7928466796875 186.9160614013672 417.9300231933594 C 184.84947204589844 420.11566162109375 183.41952514648438 419.552734375 182.30064392089844 419.6430358886719 C 180.5491180419922 420.9327697753906 175.0872344970703 420.6921691894531 171.13583374023438 420.2933349609375 C 169.5124053955078 417.9224548339844 169.74342346191406 415.63555908203125 172.0457305908203 413.99114990234375 C 176.30934143066406 411.8155822753906 180.3963165283203 410.6903381347656 185.43118286132812 411.4554443359375" stroke-width="0.0" fill="url(#shape_62_fill)"/>
    <path d="M 332.6372985839844 418.2323303222656 C 334.981689453125 426.227294921875 329.9141540527344 428.0769958496094 327.29742431640625 426.17120361328125 C 324.6145324707031 427.7882995605469 323.00970458984375 426.74810791015625 320.3128662109375 427.6935119628906 C 318.6744689941406 426.0535888671875 319.5940246582031 419.9945983886719 317.7957458496094 418.4156494140625 C 323.4730529785156 420.2270812988281 326.6980285644531 418.944091796875 332.6372985839844 418.2323303222656" stroke-width="0.0" fill="url(#shape_63_fill)"/>
    <path d="M 55.3736457824707 273.70318603515625 C 56.467979431152344 270.57177734375 66.02666473388672 271.93463134765625 66.31483459472656 279.8183288574219 C 61.01274490356445 278.2209167480469 53.61490249633789 273.7856750488281 47.92294692993164 276.30072021484375 C 49.337650299072266 272.81024169921875 52.261024475097656 272.25347900390625 55.3736457824707 273.70318603515625" stroke-width="0.0" fill="url(#shape_64_fill)"/>
    <path d="M 304.2716064453125 438.5347900390625 C 304.4398498535156 437.006103515625 305.79638671875 436.04241943359375 313.1553649902344 436.8812255859375 C 314.7888488769531 438.9342041015625 313.27203369140625 441.7364807128906 311.5987243652344 443.8114318847656 C 307.8502197265625 445.4427795410156 306.7853698730469 444.2431640625 304.85968017578125 445.480224609375 C 303.0511474609375 441.5111999511719 302.2581787109375 439.4651184082031 304.2716064453125 438.5347900390625" stroke-width="0.0" fill="url(#shape_65_fill)"/>
    <path d="M 0.9077743291854858 -0.20272165536880493 C 223.7444610595703 0.07252537459135056 443.66497802734375 0.4903363883495331 673.4744262695312 0.9171170592308044 C 674.1748046875 149.79013061523438 674.5342407226562 294.6827392578125 673.4511108398438 445.3449401855469 C 450.3717956542969 446.0177917480469 230.9871063232422 445.9825744628906 0.7155914306640625 445.21044921875 C 0.27141082286834717 296.9057922363281 -0.03530682623386383 149.29843139648438 0.9077743291854858 -0.20272165536880493" stroke-width="0.0" fill="url(#shape_66_fill)"/>
    <path d="M -0.2680402100086212 0.27247411012649536 C 222.6432647705078 0.05459034442901611 443.52435302734375 0.4147803783416748 673.4671020507812 0.6959369778633118 C 674.2510375976562 149.9771728515625 674.56494140625 294.4133605957031 673.2841796875 445.16949462890625 C 450.04443359375 445.9738464355469 231.24012756347656 445.9378662109375 0.8668623566627502 445.0583801269531 C 0.28319060802459717 296.58502197265625 -0.1429905742406845 148.51400756835938 -0.2680402100086212 0.27247411012649536" stroke-width="0.0" fill="url(#shape_67_fill)"/>
    <path d="M -0.622999370098114 -0.06521987169981003 C 223.09017944335938 -0.2260477989912033 443.494384765625 0.2833590507507324 673.4505004882812 0.06919631361961365 C 674.2324829101562 150.05734252929688 674.5630493164062 294.4468078613281 673.2896118164062 445.15130615234375 C 450.0605773925781 445.9883728027344 231.3002471923828 445.9449768066406 1.2109599113464355 445.0350646972656 C 0.38701459765434265 296.11883544921875 -0.012220066040754318 149.11883544921875 -0.622999370098114 -0.06521987169981003" stroke-width="0.0" fill="url(#shape_68_fill)"/>
  </g>
</svg>
