<?xml version="1.0" ?>
<svg xmlns="http://www.w3.org/2000/svg" version="1.1" width="674" height="446">
  <defs>
    <radialGradient id="shape_0_fill" cx="0.5352003057915662" cy="0.7413239072791129" r="0.2780524686819014">
      <stop offset="0.78053164" stop-color="rgb(171, 186, 0)" stop-opacity="0.8628045320510864"/>
      <stop offset="1.0" stop-color="rgb(52, 44, 0)" stop-opacity="1.0"/>
    </radialGradient>
    <radialGradient id="shape_1_fill" cx="0.5366576786211054" cy="0.7445933252172086" r="0.206132136042111">
      <stop offset="0.5711738" stop-color="rgb(82, 84, 65)" stop-opacity="0.8301888704299927"/>
      <stop offset="1.0" stop-color="rgb(26, 8, 0)" stop-opacity="0.6260232329368591"/>
    </radialGradient>
    <radialGradient id="shape_2_fill" cx="0.09792284866468842" cy="0.7376672719091578" r="0.22062588021026522">
      <stop offset="0.001979473" stop-color="rgb(32, 92, 181)" stop-opacity="0.9779694080352783"/>
      <stop offset="1.0" stop-color="rgb(10, 109, 255)" stop-opacity="0.9361757636070251"/>
    </radialGradient>
    <radialGradient id="shape_3_fill" cx="0.2763886946952661" cy="0.21583711085298135" r="0.12829019337096625">
      <stop offset="0.39126617" stop-color="rgb(146, 204, 10)" stop-opacity="0.8192243576049805"/>
      <stop offset="1.0" stop-color="rgb(39, 42, 0)" stop-opacity="0.9564098715782166"/>
    </radialGradient>
    <radialGradient id="shape_4_fill" cx="0.1543026706231454" cy="0.9977578475336323" r="0.10288926755639141">
      <stop offset="0.0" stop-color="rgb(81, 79, 86)" stop-opacity="1.0"/>
      <stop offset="1.0" stop-color="rgb(87, 75, 90)" stop-opacity="0.88397216796875"/>
    </radialGradient>
    <radialGradient id="shape_5_fill" cx="0.14807964290992442" cy="0.23997249517740155" r="0.11810664960821587">
      <stop offset="0.0" stop-color="rgb(255, 255, 255)" stop-opacity="0.6465655565261841"/>
      <stop offset="0.5626593" stop-color="rgb(255, 255, 255)" stop-opacity="0.6045352220535278"/>
    </radialGradient>
    <radialGradient id="shape_6_fill" cx="0.18397626112759644" cy="0.9977578475336323" r="0.0754974885934892">
      <stop offset="0.0" stop-color="rgb(93, 90, 94)" stop-opacity="1.0"/>
      <stop offset="1.0" stop-color="rgb(145, 131, 134)" stop-opacity="0.9233239889144897"/>
    </radialGradient>
    <radialGradient id="shape_7_fill" cx="0.2893175074183976" cy="0.05829596412556054" r="0.08666390552011372">
      <stop offset="0.0" stop-color="rgb(55, 66, 29)" stop-opacity="1.0"/>
      <stop offset="1.0" stop-color="rgb(103, 118, 38)" stop-opacity="0.5855416059494019"/>
    </radialGradient>
    <radialGradient id="shape_8_fill" cx="0.3382789091115889" cy="0.9439461883408071" r="0.06756690277190167">
      <stop offset="0.0" stop-color="rgb(91, 124, 45)" stop-opacity="1.0"/>
      <stop offset="1.0" stop-color="rgb(127, 184, 72)" stop-opacity="0.7322441935539246"/>
    </radialGradient>
    <radialGradient id="shape_9_fill" cx="0.30712166172106825" cy="0.9977578475336323" r="0.0730758406641929">
      <stop offset="0.0" stop-color="rgb(38, 48, 20)" stop-opacity="1.0"/>
      <stop offset="1.0" stop-color="rgb(29, 31, 43)" stop-opacity="1.0"/>
    </radialGradient>
    <radialGradient id="shape_10_fill" cx="0.3056379821958457" cy="0.9977578475336323" r="0.06792919147615971">
      <stop offset="0.0" stop-color="rgb(39, 49, 21)" stop-opacity="1.0"/>
      <stop offset="1.0" stop-color="rgb(43, 33, 0)" stop-opacity="0.7238610982894897"/>
    </radialGradient>
    <radialGradient id="shape_11_fill" cx="0.21810089020771514" cy="0.968609865470852" r="0.06792919147615971">
      <stop offset="0.0" stop-color="rgb(138, 135, 129)" stop-opacity="1.0"/>
      <stop offset="1.0" stop-color="rgb(182, 150, 128)" stop-opacity="0.5163102746009827"/>
    </radialGradient>
    <radialGradient id="shape_12_fill" cx="0.29080118694362017" cy="0.9977578475336323" r="0.07480746985189285">
      <stop offset="0.0" stop-color="rgb(22, 25, 13)" stop-opacity="1.0"/>
      <stop offset="1.0" stop-color="rgb(34, 36, 0)" stop-opacity="0.9999730587005615"/>
    </radialGradient>
    <radialGradient id="shape_13_fill" cx="0.327893175074184" cy="0.8923766816143498" r="0.06900465877544279">
      <stop offset="0.0" stop-color="rgb(89, 117, 50)" stop-opacity="1.0"/>
      <stop offset="1.0" stop-color="rgb(118, 157, 30)" stop-opacity="0.7975521087646484"/>
    </radialGradient>
    <radialGradient id="shape_14_fill" cx="0.142433234421365" cy="0.9977578475336323" r="0.06617211022079875">
      <stop offset="0.0" stop-color="rgb(155, 150, 153)" stop-opacity="1.0"/>
      <stop offset="1.0" stop-color="rgb(255, 247, 245)" stop-opacity="0.13502559065818787"/>
    </radialGradient>
    <radialGradient id="shape_15_fill" cx="0.31008902077151335" cy="0.9977578475336323" r="0.06683642786405207">
      <stop offset="0.0" stop-color="rgb(43, 55, 23)" stop-opacity="1.0"/>
      <stop offset="1.0" stop-color="rgb(56, 66, 15)" stop-opacity="0.9459567070007324"/>
    </radialGradient>
    <radialGradient id="shape_16_fill" cx="0.27299703264094954" cy="0.9977578475336323" r="0.08110449363640579">
      <stop offset="0.0" stop-color="rgb(31, 35, 19)" stop-opacity="1.0"/>
      <stop offset="1.0" stop-color="rgb(32, 31, 0)" stop-opacity="0.9831356406211853"/>
    </radialGradient>
    <radialGradient id="shape_17_fill" cx="0.2893175074183976" cy="0.9977578475336323" r="0.07513486030193747">
      <stop offset="0.0" stop-color="rgb(22, 23, 13)" stop-opacity="1.0"/>
      <stop offset="1.0" stop-color="rgb(15, 10, 0)" stop-opacity="0.8086540102958679"/>
    </radialGradient>
    <radialGradient id="shape_18_fill" cx="0.3293768545994065" cy="0.7556053811659192" r="0.06617211022079875">
      <stop offset="0.0" stop-color="rgb(83, 108, 65)" stop-opacity="1.0"/>
      <stop offset="1.0" stop-color="rgb(112, 139, 59)" stop-opacity="0.967500627040863"/>
    </radialGradient>
    <radialGradient id="shape_19_fill" cx="0.3516320474777448" cy="0.9977578475336323" r="0.06617211022079875">
      <stop offset="0.0" stop-color="rgb(95, 135, 39)" stop-opacity="1.0"/>
      <stop offset="1.0" stop-color="rgb(148, 216, 4)" stop-opacity="0.7695283889770508"/>
    </radialGradient>
    <radialGradient id="shape_20_fill" cx="0.0830860534124629" cy="0.9977578475336323" r="0.06792919147615971">
      <stop offset="0.0" stop-color="rgb(49, 52, 66)" stop-opacity="1.0"/>
      <stop offset="1.0" stop-color="rgb(8, 6, 46)" stop-opacity="0.43889328837394714"/>
    </radialGradient>
    <radialGradient id="shape_21_fill" cx="0.29821958456973297" cy="0.9977578475336323" r="0.06792919147615971">
      <stop offset="0.0" stop-color="rgb(33, 40, 17)" stop-opacity="1.0"/>
      <stop offset="1.0" stop-color="rgb(35, 47, 0)" stop-opacity="0.6530573964118958"/>
    </radialGradient>
    <radialGradient id="shape_22_fill" cx="0.35640429035492394" cy="0.44370119240251893" r="0.065921817405995">
      <stop offset="0.13529338" stop-color="rgb(226, 254, 1)" stop-opacity="0.6053121089935303"/>
      <stop offset="0.4746556" stop-color="rgb(155, 193, 36)" stop-opacity="0.9134683012962341"/>
    </radialGradient>
    <radialGradient id="shape_23_fill" cx="0.6454005934718101" cy="0.1412556053811659" r="0.06617211022079875">
      <stop offset="0.0" stop-color="rgb(46, 38, 13)" stop-opacity="1.0"/>
      <stop offset="1.0" stop-color="rgb(50, 28, 0)" stop-opacity="0.8525314331054688"/>
    </radialGradient>
    <radialGradient id="shape_24_fill" cx="0.24925732258873098" cy="0.48430544592339897" r="0.06617138010811735">
      <stop offset="0.0" stop-color="rgb(201, 209, 206)" stop-opacity="1.0"/>
      <stop offset="0.9766002" stop-color="rgb(255, 255, 255)" stop-opacity="0.636577308177948"/>
    </radialGradient>
    <radialGradient id="shape_25_fill" cx="0.6320474777448071" cy="0.9977578475336323" r="0.06617211022079875">
      <stop offset="0.0" stop-color="rgb(35, 28, 8)" stop-opacity="1.0"/>
      <stop offset="1.0" stop-color="rgb(37, 12, 0)" stop-opacity="0.5934597849845886"/>
    </radialGradient>
    <radialGradient id="shape_26_fill" cx="0.15414520399506793" cy="0.3207086811151205" r="0.06604698362265567">
      <stop offset="0.119895555" stop-color="rgb(198, 211, 155)" stop-opacity="1.0"/>
      <stop offset="0.58338004" stop-color="rgb(115, 114, 253)" stop-opacity="0.0"/>
    </radialGradient>
    <radialGradient id="shape_27_fill" cx="0.15410647972401242" cy="0.3208032787648017" r="0.06604505929465818">
      <stop offset="0.0" stop-color="rgb(192, 205, 0)" stop-opacity="1.0"/>
      <stop offset="0.49375948" stop-color="rgb(78, 72, 47)" stop-opacity="0.6009165644645691"/>
    </radialGradient>
    <radialGradient id="shape_28_fill" cx="0.03807125600933675" cy="0.018235242954818657" r="0.06799872197453982">
      <stop offset="0.1501239" stop-color="rgb(0, 27, 130)" stop-opacity="0.9964596629142761"/>
      <stop offset="0.630857" stop-color="rgb(3, 27, 154)" stop-opacity="0.7897897958755493"/>
    </radialGradient>
    <radialGradient id="shape_29_fill" cx="0.33976258863681147" cy="0.6659192825112108" r="0.06617211022079875">
      <stop offset="0.0" stop-color="rgb(90, 117, 55)" stop-opacity="1.0"/>
      <stop offset="1.0" stop-color="rgb(116, 149, 31)" stop-opacity="0.903298556804657"/>
    </radialGradient>
    <radialGradient id="shape_30_fill" cx="0.04010130036124843" cy="0.01770079082437695" r="0.06799076431229135">
      <stop offset="0.29009578" stop-color="rgb(49, 76, 63)" stop-opacity="0.9455135464668274"/>
      <stop offset="0.95683134" stop-color="rgb(45, 55, 33)" stop-opacity="0.6566959619522095"/>
    </radialGradient>
    <radialGradient id="shape_31_fill" cx="0.12314540059347182" cy="0.9977578475336323" r="0.06617211022079875">
      <stop offset="0.0" stop-color="rgb(95, 103, 98)" stop-opacity="1.0"/>
      <stop offset="1.0" stop-color="rgb(145, 135, 125)" stop-opacity="0.769191324710846"/>
    </radialGradient>
    <radialGradient id="shape_32_fill" cx="0.4035608308605341" cy="0.984304932735426" r="0.06617211022079875">
      <stop offset="0.0" stop-color="rgb(126, 155, 63)" stop-opacity="1.0"/>
      <stop offset="1.0" stop-color="rgb(154, 139, 28)" stop-opacity="0.9679253101348877"/>
    </radialGradient>
    <radialGradient id="shape_33_fill" cx="0.3249258160237389" cy="0.6053811659192825" r="0.06617211022079875">
      <stop offset="0.0" stop-color="rgb(93, 124, 71)" stop-opacity="1.0"/>
      <stop offset="1.0" stop-color="rgb(123, 154, 46)" stop-opacity="0.9536218643188477"/>
    </radialGradient>
    <radialGradient id="shape_34_fill" cx="0.6468842729970327" cy="0.531390134529148" r="0.06617211022079875">
      <stop offset="0.0" stop-color="rgb(54, 47, 24)" stop-opacity="1.0"/>
      <stop offset="1.0" stop-color="rgb(58, 26, 15)" stop-opacity="0.5035512447357178"/>
    </radialGradient>
    <radialGradient id="shape_35_fill" cx="0.1451409903053714" cy="0.23799678990659157" r="0.06802913767647673">
      <stop offset="0.038999762" stop-color="rgb(182, 255, 60)" stop-opacity="0.1827898621559143"/>
      <stop offset="0.5703906" stop-color="rgb(133, 108, 72)" stop-opacity="0.6828144788742065"/>
    </radialGradient>
    <radialGradient id="shape_36_fill" cx="0.2878338278931751" cy="0.9977578475336323" r="0.06617211022079875">
      <stop offset="0.0" stop-color="rgb(80, 96, 53)" stop-opacity="1.0"/>
      <stop offset="1.0" stop-color="rgb(50, 50, 11)" stop-opacity="0.8478439450263977"/>
    </radialGradient>
    <radialGradient id="shape_37_fill" cx="0.129080118694362" cy="0.9977578475336323" r="0.06617211022079875">
      <stop offset="0.0" stop-color="rgb(87, 97, 81)" stop-opacity="1.0"/>
      <stop offset="1.0" stop-color="rgb(75, 85, 61)" stop-opacity="0.6290661692619324"/>
    </radialGradient>
    <radialGradient id="shape_38_fill" cx="0.33892324204260943" cy="0.5607740119968294" r="0.0666785763703751">
      <stop offset="0.7501433" stop-color="rgb(84, 117, 15)" stop-opacity="0.8960906863212585"/>
      <stop offset="0.6022492" stop-color="rgb(175, 255, 76)" stop-opacity="0.8513805270195007"/>
    </radialGradient>
    <radialGradient id="shape_39_fill" cx="0.40059347181008903" cy="0.9641255605381166" r="0.06617211022079875">
      <stop offset="0.0" stop-color="rgb(138, 168, 60)" stop-opacity="1.0"/>
      <stop offset="1.0" stop-color="rgb(225, 255, 82)" stop-opacity="1.0"/>
    </radialGradient>
    <radialGradient id="shape_40_fill" cx="0.6146070440728162" cy="0.8800045406871847" r="0.06856558938408464">
      <stop offset="0.33023283" stop-color="rgb(161, 151, 126)" stop-opacity="0.5885758996009827"/>
      <stop offset="0.50421363" stop-color="rgb(0, 7, 70)" stop-opacity="1.0"/>
    </radialGradient>
    <radialGradient id="shape_41_fill" cx="0.6454005934718101" cy="0.08744394618834081" r="0.06617211022079875">
      <stop offset="0.0" stop-color="rgb(58, 48, 21)" stop-opacity="1.0"/>
      <stop offset="1.0" stop-color="rgb(91, 62, 14)" stop-opacity="0.9827112555503845"/>
    </radialGradient>
    <radialGradient id="shape_42_fill" cx="0.5845697329376854" cy="0.6188340807174888" r="0.06617211022079875">
      <stop offset="0.0" stop-color="rgb(62, 59, 56)" stop-opacity="1.0"/>
      <stop offset="1.0" stop-color="rgb(32, 27, 76)" stop-opacity="0.613503634929657"/>
    </radialGradient>
    <radialGradient id="shape_43_fill" cx="0.35574897743474126" cy="0.5032029772018638" r="0.06847368008305128">
      <stop offset="0.27687114" stop-color="rgb(129, 173, 53)" stop-opacity="0.9562054872512817"/>
      <stop offset="0.5388263" stop-color="rgb(206, 255, 30)" stop-opacity="0.8834770917892456"/>
    </radialGradient>
    <radialGradient id="shape_44_fill" cx="0.5934718100890207" cy="0.9977578475336323" r="0.06617211022079875">
      <stop offset="0.0" stop-color="rgb(89, 61, 18)" stop-opacity="1.0"/>
      <stop offset="1.0" stop-color="rgb(166, 82, 0)" stop-opacity="0.7641580104827881"/>
    </radialGradient>
    <radialGradient id="shape_45_fill" cx="0.612759643916914" cy="0.04035874439461883" r="0.06617211022079875">
      <stop offset="0.0" stop-color="rgb(157, 136, 123)" stop-opacity="1.0"/>
      <stop offset="1.0" stop-color="rgb(255, 229, 208)" stop-opacity="1.0"/>
    </radialGradient>
    <radialGradient id="shape_46_fill" cx="0.28635014836795253" cy="0.9977578475336323" r="0.06617211022079875">
      <stop offset="0.0" stop-color="rgb(82, 99, 55)" stop-opacity="1.0"/>
      <stop offset="1.0" stop-color="rgb(95, 113, 23)" stop-opacity="0.5446469783782959"/>
    </radialGradient>
    <radialGradient id="shape_47_fill" cx="0.28635014836795253" cy="0.8183856502242153" r="0.06617211022079875">
      <stop offset="0.0" stop-color="rgb(166, 189, 197)" stop-opacity="1.0"/>
      <stop offset="1.0" stop-color="rgb(255, 255, 255)" stop-opacity="0.4723987877368927"/>
    </radialGradient>
    <radialGradient id="shape_48_fill" cx="0.40801186943620177" cy="0.9977578475336323" r="0.06617211022079875">
      <stop offset="0.0" stop-color="rgb(107, 135, 68)" stop-opacity="1.0"/>
      <stop offset="1.0" stop-color="rgb(132, 150, 54)" stop-opacity="1.0"/>
    </radialGradient>
    <radialGradient id="shape_49_fill" cx="0.19287833827893175" cy="0.3991031390134529" r="0.06617211022079875">
      <stop offset="0.0" stop-color="rgb(92, 100, 54)" stop-opacity="1.0"/>
      <stop offset="1.0" stop-color="rgb(70, 48, 7)" stop-opacity="0.535347044467926"/>
    </radialGradient>
    <radialGradient id="shape_50_fill" cx="0.6439169139465876" cy="0.7376681614349776" r="0.06617211022079875">
      <stop offset="0.0" stop-color="rgb(65, 56, 25)" stop-opacity="1.0"/>
      <stop offset="1.0" stop-color="rgb(153, 195, 85)" stop-opacity="0.4272732436656952"/>
    </radialGradient>
    <radialGradient id="shape_51_fill" cx="0.5845697329376854" cy="0.6322869955156951" r="0.06617211022079875">
      <stop offset="0.0" stop-color="rgb(75, 68, 60)" stop-opacity="1.0"/>
      <stop offset="1.0" stop-color="rgb(139, 109, 88)" stop-opacity="0.7594622373580933"/>
    </radialGradient>
    <radialGradient id="shape_52_fill" cx="0.2997032640949555" cy="0.6031390134529148" r="0.06617211022079875">
      <stop offset="0.0" stop-color="rgb(107, 158, 118)" stop-opacity="1.0"/>
      <stop offset="1.0" stop-color="rgb(191, 255, 248)" stop-opacity="0.5451619625091553"/>
    </radialGradient>
    <radialGradient id="shape_53_fill" cx="0.6097922848664689" cy="0.45067264573991034" r="0.06617211022079875">
      <stop offset="0.0" stop-color="rgb(38, 39, 27)" stop-opacity="1.0"/>
      <stop offset="1.0" stop-color="rgb(18, 13, 37)" stop-opacity="0.3960393965244293"/>
    </radialGradient>
    <radialGradient id="shape_54_fill" cx="0.6335311572700296" cy="0.426009002822397" r="0.06617211022079875">
      <stop offset="0.0" stop-color="rgb(67, 49, 20)" stop-opacity="1.0"/>
      <stop offset="1.0" stop-color="rgb(125, 70, 12)" stop-opacity="0.7534809708595276"/>
    </radialGradient>
    <radialGradient id="shape_55_fill" cx="0.3707168533823257" cy="0.5988430827187851" r="0.066001377049115">
      <stop offset="0.43605065" stop-color="rgb(239, 255, 56)" stop-opacity="0.9391486048698425"/>
      <stop offset="0.1608961" stop-color="rgb(199, 255, 0)" stop-opacity="0.746222198009491"/>
    </radialGradient>
    <radialGradient id="shape_56_fill" cx="0.5489614243323442" cy="0.600896860986547" r="0.06617211022079875">
      <stop offset="0.0" stop-color="rgb(50, 62, 80)" stop-opacity="1.0"/>
      <stop offset="1.0" stop-color="rgb(23, 67, 206)" stop-opacity="0.48355966806411743"/>
    </radialGradient>
    <radialGradient id="shape_57_fill" cx="0.4094955489614243" cy="0.9035874439461884" r="0.06617211022079875">
      <stop offset="0.0" stop-color="rgb(111, 144, 47)" stop-opacity="1.0"/>
      <stop offset="1.0" stop-color="rgb(160, 211, 2)" stop-opacity="0.6523476243019104"/>
    </radialGradient>
    <radialGradient id="shape_58_fill" cx="0.5281899109792285" cy="0.9977578475336323" r="0.06617211022079875">
      <stop offset="0.0" stop-color="rgb(50, 43, 14)" stop-opacity="1.0"/>
      <stop offset="1.0" stop-color="rgb(72, 50, 0)" stop-opacity="1.0"/>
    </radialGradient>
    <radialGradient id="shape_59_fill" cx="0.5845697329376854" cy="0.7690582959641256" r="0.06617211022079875">
      <stop offset="0.0" stop-color="rgb(61, 63, 58)" stop-opacity="1.0"/>
      <stop offset="1.0" stop-color="rgb(76, 74, 97)" stop-opacity="0.7110713124275208"/>
    </radialGradient>
    <radialGradient id="shape_60_fill" cx="0.5489614243323442" cy="0.9977578475336323" r="0.06617211022079875">
      <stop offset="0.0" stop-color="rgb(140, 131, 64)" stop-opacity="1.0"/>
      <stop offset="1.0" stop-color="rgb(240, 211, 88)" stop-opacity="0.9262815117835999"/>
    </radialGradient>
    <radialGradient id="shape_61_fill" cx="0.6468563815606454" cy="0.9686206082057526" r="0.06617825675081429">
      <stop offset="0.4345315" stop-color="rgb(255, 239, 53)" stop-opacity="1.0"/>
      <stop offset="0.93612564" stop-color="rgb(254, 217, 1)" stop-opacity="0.9914542436599731"/>
    </radialGradient>
    <radialGradient id="shape_62_fill" cx="0.615727002967359" cy="0.3991031390134529" r="0.06617211022079875">
      <stop offset="0.0" stop-color="rgb(55, 47, 13)" stop-opacity="1.0"/>
      <stop offset="1.0" stop-color="rgb(75, 51, 0)" stop-opacity="1.0"/>
    </radialGradient>
    <radialGradient id="shape_63_fill" cx="0.6261127596439169" cy="0.7286995515695067" r="0.06617211022079875">
      <stop offset="0.0" stop-color="rgb(79, 66, 32)" stop-opacity="1.0"/>
      <stop offset="1.0" stop-color="rgb(205, 212, 101)" stop-opacity="0.6563660502433777"/>
    </radialGradient>
    <radialGradient id="shape_64_fill" cx="0.40801186943620177" cy="0.12556053811659193" r="0.06617211022079875">
      <stop offset="0.0" stop-color="rgb(76, 66, 59)" stop-opacity="1.0"/>
      <stop offset="1.0" stop-color="rgb(103, 75, 68)" stop-opacity="1.0"/>
    </radialGradient>
    <radialGradient id="shape_65_fill" cx="0.6528189910979229" cy="0.6883408071748879" r="0.06617211022079875">
      <stop offset="0.0" stop-color="rgb(121, 97, 39)" stop-opacity="1.0"/>
      <stop offset="1.0" stop-color="rgb(255, 255, 89)" stop-opacity="1.0"/>
    </radialGradient>
    <radialGradient id="shape_66_fill" cx="0.6519513229234283" cy="0.46076400825261" r="0.06929299102692646">
      <stop offset="0.27358016" stop-color="rgb(154, 188, 101)" stop-opacity="0.3611460328102112"/>
      <stop offset="0.9601804" stop-color="rgb(0, 0, 0)" stop-opacity="0.05856558308005333"/>
    </radialGradient>
    <radialGradient id="shape_67_fill" cx="0.5953006914178413" cy="0.9951857494131866" r="0.06916433838071738">
      <stop offset="0.86426264" stop-color="rgb(53, 29, 0)" stop-opacity="0.7426354885101318"/>
      <stop offset="1.0" stop-color="rgb(0, 0, 0)" stop-opacity="0.15965279936790466"/>
    </radialGradient>
    <radialGradient id="shape_68_fill" cx="0.48943489595407547" cy="0.9964112422926009" r="0.06779529220626333">
      <stop offset="0.38417697" stop-color="rgb(50, 27, 9)" stop-opacity="0.6272822022438049"/>
      <stop offset="1.0" stop-color="rgb(42, 64, 58)" stop-opacity="0.2618597447872162"/>
    </radialGradient>
  </defs>
  <g>
    <path d="M -0.13195295631885529 271.2206726074219 C 26.21417999267578 268.34259033203125 35.66566467285156 269.6953125 45.16408920288086 272.9028015136719 C 48.09614944458008 274.47381591796875 49.36388397216797 276.3800048828125 57.09373474121094 274.49462890625 C 59.697486877441406 273.9037170410156 63.33934783935547 274.25482177734375 64.68904876708984 272.435546875 C 70.52490997314453 270.1885681152344 100.61204528808594 271.0861511230469 116.72248840332031 271.1228332519531 C 121.28495788574219 270.9568176269531 125.91395568847656 277.0846252441406 124.36404418945312 282.4053955078125 C 133.1490020751953 282.5921630859375 140.23013305664062 281.5899658203125 153.66111755371094 287.26397705078125 C 185.28060913085938 282.334228515625 185.77113342285156 282.4508056640625 206.64544677734375 287.2461242675781 C 199.91940307617188 287.89495849609375 198.12881469726562 281.9768981933594 210.9306640625 270.442626953125 C 245.0471649169922 271.6430969238281 288.2619323730469 270.66400146484375 312.61785888671875 275.859130859375 C 346.52069091796875 278.095458984375 422.9651184082031 278.3681945800781 466.68792724609375 274.2926025390625 C 494.247802734375 272.37896728515625 543.9522705078125 273.6759033203125 544.57763671875 279.3173828125 C 548.4363403320312 280.2568664550781 549.7778930664062 275.3897705078125 566.0983276367188 272.6029968261719 C 582.3897705078125 276.28985595703125 612.1370239257812 283.4293212890625 612.6709594726562 283.658203125 C 627.7008056640625 273.48187255859375 637.6492919921875 273.5636901855469 668.2246704101562 273.1170349121094 C 673.6095581054688 274.6905517578125 678.2908325195312 279.8544006347656 678.2448120117188 285.22265625 C 676.6063232421875 339.5108642578125 674.7258911132812 391.50390625 675.1177368164062 446.4668273925781 C 451.9151306152344 446.6697692871094 228.9889373779297 446.8115539550781 -0.47064366936683655 446.4240417480469 C -0.43423333764076233 389.14508056640625 0.15227343142032623 332.3594055175781 -0.13195295631885529 271.2206726074219" stroke-width="0.0" fill="url(#shape_0_fill)"/>
    <path d="M -0.002286747097969055 271.22137451171875 C 35.933250427246094 275.39862060546875 36.5576057434082 274.5897521972656 44.32566452026367 274.4798278808594 C 47.9119987487793 267.2854309082031 59.77755355834961 266.6801452636719 77.21621704101562 268.53875732421875 C 113.50597381591797 278.68035888671875 114.02847290039062 279.3109130859375 126.8255386352539 279.4560241699219 C 127.82182312011719 273.0370178222656 143.53163146972656 271.6109313964844 147.21240234375 270.5664978027344 C 185.1434326171875 270.0033874511719 185.80665588378906 271.8809509277344 202.42855834960938 275.1959533691406 C 202.80393981933594 291.9135437011719 204.8033905029297 292.0751037597656 215.79551696777344 295.99395751953125 C 217.53192138671875 294.9378662109375 269.3466491699219 297.08447265625 290.08123779296875 298.68023681640625 C 321.0410461425781 300.6051330566406 449.89324951171875 298.6329650878906 461.4287109375 299.75018310546875 C 476.8733215332031 291.75286865234375 487.102783203125 290.8551025390625 503.69683837890625 287.2227783203125 C 510.0643005371094 287.6238708496094 519.6787109375 286.328125 522.8628540039062 286.45599365234375 C 527.4985961914062 285.6882019042969 531.8421630859375 285.9003601074219 535.0013427734375 287.0750427246094 C 542.7202758789062 286.9365539550781 548.05859375 288.1534729003906 555.9827270507812 298.2290954589844 C 578.2257690429688 288.53790283203125 580.2153930664062 290.5055847167969 592.3182983398438 293.33148193359375 C 610.3612060546875 288.9608459472656 621.8582153320312 287.9878234863281 634.1578979492188 288.44561767578125 C 645.827880859375 279.9927062988281 656.2223510742188 285.232666015625 673.79736328125 290.6108703613281 C 673.985595703125 340.5380859375 674.4573364257812 392.194580078125 674.155517578125 446.2807922363281 C 451.4774169921875 446.3905334472656 229.19664001464844 446.25439453125 -0.3076566159725189 446.2476501464844 C -0.2135799378156662 389.4035949707031 -0.2940194308757782 333.0278625488281 -0.002286747097969055 271.22137451171875" stroke-width="0.0" fill="url(#shape_1_fill)"/>
    <path d="M -0.019930556416511536 -0.25989267230033875 C 219.69313049316406 0.1040392518043518 439.478759765625 -0.45242562890052795 672.0130004882812 -0.20258022844791412 C 665.4398193359375 10.585445404052734 645.3089599609375 36.122406005859375 637.7393188476562 47.89990234375 C 634.080322265625 53.0013542175293 610.804443359375 93.46473693847656 584.8577880859375 84.0887451171875 C 577.6852416992188 81.68841552734375 560.5352783203125 70.33490753173828 532.1815185546875 74.04529571533203 C 531.919677734375 76.72205352783203 524.5731811523438 78.1889419555664 522.3616943359375 72.1388931274414 C 522.6199340820312 68.82670593261719 499.49896240234375 63.770694732666016 499.5315856933594 62.674198150634766 C 492.7406005859375 62.09968185424805 486.58428955078125 60.98894500732422 484.3084411621094 68.37400817871094 C 475.2055969238281 72.02322387695312 476.0846862792969 75.16837310791016 477.32891845703125 83.83960723876953 C 484.13134765625 97.71334838867188 475.595703125 115.06034851074219 471.6957702636719 119.47289276123047 C 460.4090576171875 118.04974365234375 459.1731262207031 113.84304809570312 451.003173828125 108.4439468383789 C 435.3099365234375 107.80111694335938 411.6884765625 102.39921569824219 410.3255310058594 104.91513061523438 C 411.6259765625 120.02758026123047 412.8243103027344 126.18441772460938 410.3524169921875 135.147705078125 C 407.68682861328125 144.14157104492188 397.94720458984375 143.27609252929688 391.818115234375 136.8216094970703 C 381.79022216796875 143.8427276611328 375.60394287109375 158.09219360351562 369.4355163574219 157.30697631835938 C 367.8736267089844 159.3171844482422 365.8670959472656 162.799072265625 361.3561706542969 167.09317016601562 C 358.48565673828125 170.00375366210938 355.1632080078125 169.52650451660156 351.54144287109375 175.0039825439453 C 345.43585205078125 182.4491424560547 336.7205810546875 175.35455322265625 335.5047607421875 169.7943878173828 C 303.9134521484375 168.94007873535156 303.0078125 175.51541137695312 300.9482421875 180.21824645996094 C 303.55865478515625 188.45458984375 304.0905456542969 191.65875244140625 307.50994873046875 201.4357452392578 C 307.42230224609375 200.73004150390625 306.0355224609375 198.21432495117188 304.13629150390625 190.83651733398438 C 305.4903564453125 187.0025634765625 303.19342041015625 186.2003936767578 287.10626220703125 179.32493591308594 C 289.6951599121094 194.56735229492188 289.2976379394531 195.970947265625 289.57440185546875 196.2812042236328 C 288.464599609375 190.0922088623047 288.8066711425781 182.9878387451172 285.709228515625 179.2235107421875 C 272.7137145996094 181.77130126953125 270.14874267578125 185.9936065673828 262.37738037109375 181.71385192871094 C 254.7101287841797 183.862060546875 255.2902374267578 187.28692626953125 255.90615844726562 197.49758911132812 C 260.7818603515625 199.41236877441406 260.57427978515625 199.97987365722656 257.7326965332031 199.22784423828125 C 257.09930419921875 198.65676879882812 253.10340881347656 195.7233123779297 253.96331787109375 194.16294860839844 C 256.7565002441406 189.04368591308594 258.9793701171875 186.50148010253906 254.68435668945312 170.4166717529297 C 257.183837890625 165.5687713623047 216.446044921875 141.77703857421875 213.90684509277344 140.20663452148438 C 185.62074279785156 129.3116455078125 195.61834716796875 103.19622039794922 191.61370849609375 87.39801788330078 C 192.58291625976562 84.28999328613281 159.7606658935547 73.3419189453125 136.3701629638672 61.38715744018555 C 111.72164154052734 39.471527099609375 70.32492065429688 55.24999237060547 38.63132858276367 61.28658676147461 C 21.606021881103516 70.39601135253906 7.510879993438721 69.28627014160156 -0.7749713659286499 69.60472106933594 C 0.34183040261268616 43.958133697509766 -0.3314551115036011 22.56187629699707 -0.019930556416511536 -0.25989267230033875" stroke-width="0.0" fill="url(#shape_2_fill)"/>
    <path d="M 86.68228149414062 62.57957458496094 C 89.01918029785156 68.76725006103516 92.2748031616211 68.83318328857422 93.38577270507812 70.34817504882812 C 90.85424041748047 80.53297424316406 91.31915283203125 80.92778778076172 91.08966827392578 90.69172668457031 C 96.61607360839844 85.55006408691406 97.93761444091797 86.86019134521484 103.0042724609375 87.69830322265625 C 104.40459442138672 75.16368103027344 105.86299896240234 73.43513488769531 108.4478759765625 73.18272399902344 C 112.14813232421875 87.67031860351562 111.02344512939453 93.49333190917969 116.40426635742188 99.37191009521484 C 116.55774688720703 100.0593490600586 116.24124145507812 108.77007293701172 115.4991226196289 115.39778137207031 C 124.41300964355469 115.27620697021484 128.69454956054688 115.61193084716797 129.46824645996094 112.99231719970703 C 130.42276000976562 109.57486724853516 136.5589599609375 108.18196105957031 136.51034545898438 104.62112426757812 C 136.62059020996094 103.6817855834961 135.54380798339844 101.80474090576172 137.1520233154297 98.2040023803711 C 136.47085571289062 93.26239776611328 137.49267578125 92.88507843017578 137.4560546875 89.19526672363281 C 137.30606079101562 84.94903564453125 138.62132263183594 84.85255432128906 139.38150024414062 86.54983520507812 C 139.9871368408203 82.64035034179688 146.68666076660156 80.71914672851562 147.98178100585938 83.36551666259766 C 148.64523315429688 93.60753631591797 149.9818878173828 94.17261505126953 152.0050811767578 99.05826568603516 C 153.47824096679688 102.99954223632812 149.92608642578125 106.90803527832031 148.824951171875 106.70868682861328 C 152.688232421875 109.9062728881836 150.58712768554688 114.1565170288086 148.52731323242188 113.46094512939453 C 154.4413604736328 112.82872009277344 157.8647003173828 122.59391021728516 157.3381805419922 123.23062896728516 C 161.38763427734375 124.98268127441406 164.9954071044922 123.45088195800781 169.6133575439453 122.65614318847656 C 174.38926696777344 119.72875213623047 175.78318786621094 121.51548767089844 177.72386169433594 122.50597381591797 C 179.3284149169922 122.68231201171875 179.94967651367188 125.41126251220703 182.77587890625 127.75013732910156 C 183.82261657714844 130.21202087402344 182.40074157714844 133.13157653808594 183.67068481445312 135.42105102539062 C 186.2727813720703 135.44589233398438 187.63088989257812 142.92318725585938 188.79812622070312 145.25979614257812 C 194.80149841308594 145.93743896484375 206.88192749023438 154.97958374023438 201.4956512451172 173.33230590820312 C 205.47132873535156 175.55958557128906 205.75323486328125 178.4280548095703 205.48226928710938 182.2129364013672 C 213.0133514404297 181.70822143554688 214.58612060546875 197.6470947265625 212.2978057861328 204.09129333496094 C 206.3335418701172 206.90521240234375 203.3807373046875 207.66920471191406 203.1268768310547 210.26231384277344 C 200.7790069580078 210.5296630859375 199.93051147460938 211.69436645507812 200.22073364257812 213.5651092529297 C 196.42559814453125 215.28111267089844 193.54556274414062 215.38226318359375 191.8926544189453 219.60360717773438 C 184.29586791992188 221.00668334960938 183.60464477539062 224.775390625 178.68829345703125 230.23626708984375 C 176.3717498779297 233.55496215820312 180.1318817138672 239.4492950439453 180.69985961914062 242.57655334472656 C 182.31056213378906 252.07113647460938 186.21434020996094 260.8459167480469 178.7450408935547 264.7461242675781 C 173.84617614746094 268.1214294433594 148.29962158203125 268.1779479980469 136.90696716308594 269.68218994140625 C 131.20260620117188 269.2351379394531 127.68489837646484 271.61029052734375 120.47360229492188 274.46246337890625 C 109.08203125 276.9471435546875 73.27560424804688 276.0892333984375 73.07500457763672 269.9991149902344 C 47.6858024597168 266.763671875 56.54639434814453 268.5652160644531 57.47551727294922 273.5914306640625 C 48.007015228271484 276.365966796875 0.5666598081588745 272.93853759765625 0.7238607406616211 270.05322265625 C -5.083474636077881 223.27932739257812 -3.7042477130889893 167.9901580810547 0.060749441385269165 119.93222045898438 C 11.951652526855469 119.11978912353516 22.10820960998535 114.00106048583984 26.44086265563965 121.73216247558594 C 27.744285583496094 128.89871215820312 35.95815658569336 128.68658447265625 41.514774322509766 131.8653564453125 C 46.97270965576172 130.72512817382812 47.793487548828125 132.32066345214844 49.28422164916992 142.30609130859375 C 50.311100006103516 147.73870849609375 61.606056213378906 148.42623901367188 62.7952766418457 146.6156463623047 C 62.160011291503906 136.7946319580078 63.03630447387695 133.9138641357422 62.32263946533203 128.35848999023438 C 68.38748931884766 126.7330322265625 67.63541412353516 122.9512939453125 66.32624053955078 112.50970458984375 C 68.07606506347656 111.1814193725586 68.38695526123047 106.00302124023438 75.69170379638672 102.90181732177734 C 74.26982116699219 100.45616149902344 78.38416290283203 91.16990661621094 77.21109008789062 85.52950286865234 C 77.08809661865234 83.94120025634766 78.25199890136719 74.75509643554688 85.46585845947266 75.42424774169922 C 82.87323760986328 70.16901397705078 84.0213851928711 67.61300659179688 86.68228149414062 62.57957458496094" stroke-width="0.0" fill="url(#shape_3_fill)"/>
    <path d="M 674.0099487304688 -0.666520893573761 C 676.0997924804688 47.841121673583984 675.0172119140625 95.90838623046875 679.5661010742188 140.07728576660156 C 675.5145263671875 129.16656494140625 667.8955688476562 124.6249008178711 661.5965576171875 120.3541030883789 C 660.90673828125 120.00543975830078 655.1279907226562 109.36624145507812 649.6649169921875 110.91081237792969 C 648.6336669921875 112.5207290649414 644.9508666992188 149.1941375732422 642.8087158203125 155.1888885498047 C 630.264404296875 154.5125732421875 626.9456787109375 142.65953063964844 627.162109375 138.21299743652344 C 623.005859375 137.3673858642578 618.8489379882812 145.31591796875 615.4215698242188 144.0195770263672 C 611.6814575195312 142.3169708251953 610.1547241210938 143.34640502929688 607.7578125 141.10543823242188 C 608.81103515625 138.09405517578125 611.957763671875 132.73023986816406 606.8834228515625 120.41027069091797 C 598.1070556640625 133.58306884765625 597.4868774414062 139.2679443359375 594.4734497070312 142.7910614013672 C 599.0314331054688 147.6838836669922 597.6310424804688 151.7148895263672 597.5693969726562 152.53060913085938 C 588.5137329101562 157.2900390625 587.0403442382812 163.99252319335938 579.532470703125 172.19813537597656 C 571.749267578125 170.3193359375 569.9431762695312 158.70693969726562 568.8624267578125 157.32794189453125 C 565.9841918945312 157.4745635986328 563.7160034179688 153.35684204101562 561.629638671875 152.06564331054688 C 560.100341796875 150.6627197265625 556.2071533203125 150.97726440429688 555.6051635742188 156.22146606445312 C 551.9364013671875 156.21292114257812 550.3670654296875 158.924560546875 548.8825073242188 158.94862365722656 C 547.3269653320312 157.03134155273438 543.9490356445312 156.99574279785156 536.143798828125 153.8817596435547 C 531.7937622070312 154.89773559570312 529.9657592773438 158.62069702148438 523.6471557617188 157.26358032226562 C 518.4841918945312 160.8112030029297 520.7034912109375 161.8223419189453 522.7954711914062 169.8500213623047 C 517.592041015625 168.27301025390625 516.6040649414062 171.147705078125 516.384521484375 171.39044189453125 C 511.2713623046875 173.32232666015625 509.8157043457031 175.26531982421875 505.63543701171875 174.399169921875 C 502.7891845703125 171.3910369873047 502.96990966796875 169.5286102294922 502.1771545410156 159.468994140625 C 493.2821960449219 145.6299285888672 507.6243896484375 121.94567108154297 518.5330810546875 126.39679718017578 C 523.8008422851562 125.35260009765625 539.4088745117188 110.50943756103516 548.7881469726562 113.0035400390625 C 557.1968994140625 110.70872497558594 556.935302734375 109.38367462158203 557.4917602539062 106.72819519042969 C 560.1817016601562 108.4361343383789 564.9939575195312 103.17793273925781 570.7034912109375 104.99851989746094 C 574.5985717773438 102.47599792480469 573.4160766601562 97.45281982421875 578.9241943359375 94.1454849243164 C 583.617431640625 88.59954833984375 598.3726806640625 76.91183471679688 613.7733154296875 78.310302734375 C 617.103515625 73.74024963378906 645.28759765625 51.851295471191406 644.8153686523438 35.44855880737305 C 644.975341796875 32.447696685791016 647.996826171875 30.390151977539062 647.6716918945312 29.550472259521484 C 646.9835205078125 28.30101776123047 664.6541137695312 -3.8657679557800293 674.0099487304688 -0.666520893573761" stroke-width="0.0" fill="url(#shape_4_fill)"/>
    <path d="M 151.596923828125 68.51959228515625 C 152.3118133544922 69.04832458496094 186.06080627441406 84.4963150024414 192.8015594482422 92.93415069580078 C 179.0850067138672 117.39683532714844 217.71791076660156 150.0575408935547 220.83860778808594 154.93881225585938 C 238.8741455078125 170.02001953125 241.96836853027344 184.1925811767578 240.81979370117188 193.8613739013672 C 238.14306640625 193.19613647460938 236.1809844970703 186.4606475830078 236.7691192626953 184.05865478515625 C 235.6797332763672 183.57579040527344 234.15762329101562 184.29367065429688 231.08265686035156 182.71820068359375 C 231.02561950683594 184.01434326171875 232.2583770751953 193.75355529785156 228.62257385253906 195.66744995117188 C 227.56784057617188 196.634765625 226.96644592285156 205.19041442871094 221.40347290039062 207.71163940429688 C 215.0819549560547 206.59219360351562 214.32723999023438 197.8563690185547 214.66455078125 194.8693389892578 C 212.9606170654297 185.43624877929688 211.89764404296875 184.94277954101562 206.47027587890625 177.42123413085938 C 205.7992706298828 173.20123291015625 205.8246612548828 165.2772216796875 204.04420471191406 158.87245178222656 C 206.45326232910156 153.196044921875 194.8626251220703 144.68223571777344 193.37889099121094 141.1953125 C 189.07521057128906 140.23033142089844 188.81951904296875 137.4645538330078 186.83746337890625 135.96072387695312 C 178.53135681152344 133.04029846191406 179.11865234375 126.6477279663086 183.15573120117188 117.32389831542969 C 179.39035034179688 116.48482513427734 177.3978271484375 117.63912963867188 173.00054931640625 117.76883697509766 C 178.98634338378906 127.91535186767578 175.39645385742188 131.33619689941406 151.7325897216797 130.2936248779297 C 149.76295471191406 126.3428955078125 151.7141876220703 103.00887298583984 153.77647399902344 95.30998992919922 C 152.890625 88.84359741210938 153.4488067626953 86.34746551513672 149.87890625 76.32520294189453 C 148.23731994628906 75.92647552490234 148.83056640625 69.3257827758789 151.596923828125 68.51959228515625" stroke-width="0.0" fill="url(#shape_5_fill)"/>
    <path d="M 612.8161010742188 82.58494567871094 C 618.6203002929688 84.15826416015625 619.634521484375 85.91622161865234 630.8104858398438 85.81487274169922 C 636.13427734375 86.01776123046875 637.2232666015625 87.50163269042969 641.2366943359375 88.6513671875 C 642.1508178710938 87.50572204589844 668.1177368164062 92.2505874633789 673.4402465820312 98.1158447265625 C 673.5548095703125 113.09075927734375 673.271728515625 128.08343505859375 674.6636352539062 150.28553771972656 C 666.59619140625 141.8384552001953 663.3433837890625 136.15687561035156 660.1180419921875 129.65267944335938 C 659.707763671875 122.04560852050781 660.0830078125 116.30125427246094 651.3314208984375 111.21602630615234 C 647.264404296875 115.52278900146484 644.9375 142.33731079101562 642.29296875 143.13746643066406 C 643.576904296875 144.94964599609375 642.5745239257812 148.34495544433594 643.5611572265625 150.49581909179688 C 639.9412231445312 151.0325469970703 637.9314575195312 152.87820434570312 635.3773193359375 152.1978302001953 C 631.4357299804688 146.48794555664062 629.1932373046875 141.39401245117188 630.1031494140625 140.52847290039062 C 628.8862915039062 138.11634826660156 622.0811157226562 136.90142822265625 620.9210815429688 138.64788818359375 C 618.2355346679688 140.5594940185547 619.3237915039062 142.35992431640625 618.6714477539062 146.29847717285156 C 614.7033081054688 144.56167602539062 613.6000366210938 143.1812744140625 610.2908325195312 143.6061553955078 C 608.5455932617188 140.40530395507812 609.597412109375 139.24366760253906 609.21044921875 137.48081970214844 C 606.5189208984375 132.37669372558594 604.7830200195312 126.60409545898438 597.7203369140625 128.1214599609375 C 604.93505859375 134.13729858398438 595.2254638671875 148.48501586914062 591.6080322265625 156.36605834960938 C 590.590087890625 163.87120056152344 589.2836303710938 164.11373901367188 585.8597412109375 168.5569305419922 C 584.2694091796875 167.70362854003906 584.009033203125 165.66387939453125 586.0159912109375 158.62501525878906 C 580.356689453125 156.07875061035156 576.110107421875 154.6986541748047 575.1524047851562 150.75103759765625 C 564.8123779296875 155.3936309814453 556.3114624023438 155.37240600585938 556.1724243164062 151.3555450439453 C 555.8508911132812 152.9230194091797 553.0785522460938 154.70997619628906 552.891357421875 157.76060485839844 C 550.7701416015625 161.60177612304688 547.9985961914062 160.7012481689453 547.3611450195312 159.08616638183594 C 544.3748779296875 156.8630828857422 543.0546875 154.61814880371094 537.3406982421875 157.7613525390625 C 534.9574584960938 158.5071258544922 531.1995849609375 157.20924377441406 528.4725341796875 158.27069091796875 C 526.0261840820312 159.23077392578125 526.380615234375 162.56307983398438 525.1458740234375 165.74542236328125 C 524.4979858398438 169.42831420898438 523.5424194335938 171.56732177734375 519.0355224609375 173.08523559570312 C 511.84088134765625 177.29913330078125 505.5022888183594 170.81500244140625 489.8070373535156 163.68020629882812 C 485.9800109863281 139.80715942382812 502.6424255371094 119.45865631103516 512.9390869140625 118.46961975097656 C 529.733642578125 127.06488800048828 539.7945556640625 108.30168914794922 550.556884765625 111.78548431396484 C 555.4907836914062 109.97396850585938 560.2389526367188 109.82263946533203 563.8182983398438 106.70903015136719 C 564.6301879882812 104.52919006347656 566.7335205078125 103.63359069824219 569.8687133789062 104.3360366821289 C 574.628173828125 101.24492645263672 578.3968505859375 97.24223327636719 585.8837280273438 97.7689208984375 C 600.51904296875 93.17955780029297 604.9712524414062 80.38812255859375 612.8161010742188 82.58494567871094" stroke-width="0.0" fill="url(#shape_6_fill)"/>
    <path d="M 0.06107378005981445 111.51585388183594 C 28.881412506103516 120.57173919677734 39.04740524291992 126.99883270263672 49.975399017333984 139.92730712890625 C 78.38873291015625 157.74635314941406 51.41033935546875 217.078125 47.1953125 239.54998779296875 C 51.62672424316406 260.1679382324219 48.56014633178711 264.6329040527344 48.39198303222656 265.7543029785156 C 41.58870315551758 265.400390625 14.935368537902832 261.353515625 7.954582214355469 258.5340576171875 C 4.521108150482178 210.98419189453125 -3.381533622741699 165.68392944335938 0.06107378005981445 111.51585388183594" stroke-width="0.0" fill="url(#shape_7_fill)"/>
    <path d="M 385.231201171875 191.3949737548828 C 417.3501281738281 179.0382537841797 427.00714111328125 191.60211181640625 430.1552734375 204.29666137695312 C 474.2730712890625 190.53244018554688 496.1373291015625 205.21751403808594 491.7095642089844 232.06190490722656 C 490.9919128417969 250.48611450195312 486.207763671875 251.4893341064453 484.8530578613281 252.37709045410156 C 485.2750244140625 258.09246826171875 483.0636291503906 269.5348205566406 477.5499267578125 268.4699401855469 C 469.0429992675781 272.9302978515625 453.2210388183594 266.7112731933594 451.62359619140625 269.7118225097656 C 447.0240173339844 266.2800598144531 448.22552490234375 261.20477294921875 449.01727294921875 260.17486572265625 C 439.2511901855469 264.7645568847656 436.5124206542969 261.40234375 437.43267822265625 256.90673828125 C 426.2007141113281 256.5824890136719 426.062255859375 258.10791015625 421.1838684082031 262.16265869140625 C 418.5269775390625 264.2466125488281 417.5572509765625 267.63555908203125 414.9128723144531 272.651123046875 C 414.106201171875 273.0384826660156 394.2177734375 268.2985534667969 392.58868408203125 264.16790771484375 C 391.8245544433594 265.1004638671875 389.0077209472656 263.328125 386.0071716308594 263.5822448730469 C 382.114990234375 261.94561767578125 380.8211364746094 263.1792907714844 376.53802490234375 261.0450744628906 C 374.9405822753906 256.3210754394531 376.15045166015625 252.45852661132812 372.6688232421875 249.26168823242188 C 359.47857666015625 243.8351287841797 374.27691650390625 196.07037353515625 378.216552734375 178.84307861328125 C 383.672119140625 170.62991333007812 393.61578369140625 176.89395141601562 385.231201171875 191.3949737548828" stroke-width="0.0" fill="url(#shape_8_fill)"/>
    <path d="M 566.0415649414062 157.33767700195312 C 568.01806640625 158.9951629638672 568.5430908203125 166.99266052246094 569.1053466796875 167.63177490234375 C 573.51953125 169.4568634033203 573.6813354492188 170.93312072753906 577.6444702148438 174.3074188232422 C 581.931884765625 172.94320678710938 583.9734497070312 174.5652313232422 583.70703125 179.4731903076172 C 575.3404541015625 180.47747802734375 572.05419921875 225.61634826660156 577.2786865234375 226.9659423828125 C 577.8547973632812 229.99871826171875 581.2846069335938 235.656005859375 576.8952026367188 242.04974365234375 C 568.6585693359375 238.74610900878906 566.358642578125 237.22328186035156 558.53857421875 247.06849670410156 C 554.10986328125 250.4803466796875 493.77386474609375 254.2618408203125 488.5499572753906 251.55982971191406 C 485.6484069824219 250.12965393066406 487.0910949707031 239.19204711914062 491.4118957519531 229.30377197265625 C 486.4310302734375 226.259521484375 483.1845397949219 222.2881622314453 481.58380126953125 215.75360107421875 C 476.6296691894531 209.8078155517578 479.24139404296875 205.8164825439453 482.72625732421875 205.96548461914062 C 480.00177001953125 205.3245086669922 481.33209228515625 198.8043212890625 488.0108337402344 198.7893829345703 C 491.9115905761719 196.16831970214844 491.8268127441406 192.4983367919922 492.90740966796875 187.86630249023438 C 490.4560241699219 174.08375549316406 490.8486633300781 173.07142639160156 488.0614929199219 164.17750549316406 C 504.1759948730469 163.53919982910156 505.57135009765625 167.4452667236328 517.3618774414062 166.40267944335938 C 523.2372436523438 169.52963256835938 524.6937866210938 167.44302368164062 526.0015258789062 167.31114196777344 C 524.1581420898438 160.7691192626953 530.3688354492188 155.7911376953125 533.3419189453125 158.60848999023438 C 537.6344604492188 161.8415985107422 541.3914794921875 162.45953369140625 542.189697265625 163.9536895751953 C 545.2410888671875 164.05685424804688 545.918212890625 165.75054931640625 549.614013671875 166.4833984375 C 548.8907470703125 165.6274871826172 551.2603149414062 157.3277130126953 554.6181030273438 158.01490783691406 C 557.977294921875 160.9169158935547 563.04150390625 157.81919860839844 566.0415649414062 157.33767700195312" stroke-width="0.0" fill="url(#shape_9_fill)"/>
    <path d="M 561.4166870117188 156.38075256347656 C 566.4785766601562 153.27017211914062 571.220947265625 158.5806884765625 570.5926513671875 170.1192169189453 C 572.248046875 169.24838256835938 576.17626953125 169.20916748046875 579.48828125 174.71405029296875 C 579.8497314453125 178.00645446777344 578.724853515625 187.36294555664062 576.9282836914062 191.53607177734375 C 571.2700805664062 196.79811096191406 571.9849243164062 229.9724884033203 578.0745849609375 230.9768524169922 C 576.070068359375 231.159423828125 575.6058349609375 236.83474731445312 572.0354614257812 238.0399627685547 C 559.9772338867188 235.9398651123047 567.4253540039062 238.62615966796875 563.8921508789062 248.39398193359375 C 550.5756225585938 253.33531188964844 501.285400390625 249.17825317382812 500.1800537109375 251.58213806152344 C 491.0865173339844 251.80978393554688 487.91046142578125 236.96194458007812 491.0329895019531 230.0674285888672 C 486.623779296875 224.9288330078125 481.985107421875 219.27188110351562 481.5664978027344 215.80540466308594 C 475.636962890625 214.30978393554688 474.75592041015625 213.0613555908203 466.4589538574219 198.2798614501953 C 466.1888427734375 191.29237365722656 474.89654541015625 187.3727264404297 482.2976379394531 195.72906494140625 C 489.9829406738281 196.85162353515625 494.37969970703125 184.15199279785156 496.6302795410156 182.95401000976562 C 495.3506164550781 178.90333557128906 497.53973388671875 177.63427734375 500.1384582519531 177.45822143554688 C 507.8630676269531 179.15457153320312 516.5531005859375 181.6224365234375 520.3585815429688 174.01686096191406 C 523.1841430664062 173.3023223876953 526.4530639648438 159.128662109375 531.0623168945312 156.21495056152344 C 537.9925537109375 156.27273559570312 538.3507690429688 160.31280517578125 541.2431030273438 165.92337036132812 C 545.7411499023438 165.86761474609375 549.035888671875 167.2615509033203 551.2840576171875 165.83094787597656 C 551.1298828125 156.07077026367188 553.15673828125 153.04150390625 561.4166870117188 156.38075256347656" stroke-width="0.0" fill="url(#shape_10_fill)"/>
    <path d="M 448.5596008300781 107.73365783691406 C 452.84954833984375 109.98641967773438 454.0751647949219 111.8337173461914 461.80853271484375 112.50300598144531 C 463.876708984375 117.06520080566406 469.5562438964844 115.81695556640625 477.1310729980469 114.69505310058594 C 488.4285583496094 124.52010345458984 488.7975158691406 125.25044250488281 493.78802490234375 129.6290283203125 C 494.01409912109375 131.64878845214844 493.07659912109375 135.08494567871094 496.81884765625 136.3518829345703 C 494.6099853515625 135.1659698486328 492.3818054199219 137.5044708251953 487.3553771972656 140.35598754882812 C 483.0953063964844 136.42269897460938 481.3422546386719 138.1513214111328 476.18231201171875 141.8077850341797 C 467.07049560546875 141.30328369140625 466.9232482910156 139.7122802734375 466.0131530761719 134.39486694335938 C 465.231689453125 133.5001983642578 460.682373046875 133.53689575195312 460.01824951171875 134.3400115966797 C 459.6995849609375 136.12509155273438 475.9188232421875 146.6441650390625 489.7210693359375 155.80532836914062 C 476.25079345703125 176.6560516357422 475.3931579589844 177.19830322265625 472.67840576171875 181.60604858398438 C 466.8661193847656 182.4139862060547 466.44598388671875 187.0567169189453 465.0060729980469 189.1175537109375 C 463.1942138671875 184.79417419433594 460.05072021484375 175.4287567138672 457.0469970703125 174.7049102783203 C 448.2692565917969 179.36557006835938 447.5020446777344 182.51036071777344 439.9028015136719 183.0845184326172 C 439.4764099121094 183.86331176757812 435.8659362792969 195.6907196044922 434.9180908203125 197.29685974121094 C 429.719482421875 200.186279296875 417.4955749511719 180.58428955078125 417.70745849609375 179.7354278564453 C 416.94744873046875 179.6280975341797 398.4194641113281 178.21900939941406 397.9981384277344 172.5771942138672 C 393.6825256347656 170.7089080810547 389.9900817871094 176.4354248046875 379.9975891113281 174.61727905273438 C 380.5577087402344 162.77976989746094 382.93878173828125 146.57427978515625 392.57806396484375 139.12322998046875 C 397.8735046386719 137.28001403808594 399.41192626953125 129.69647216796875 401.9289855957031 121.58224487304688 C 408.0994873046875 99.21875 426.3511047363281 103.78590393066406 448.5596008300781 107.73365783691406" stroke-width="0.0" fill="url(#shape_11_fill)"/>
    <path d="M 602.9219360351562 127.58638000488281 C 605.4398193359375 131.81655883789062 605.5477294921875 144.0387420654297 608.0465698242188 144.2210693359375 C 611.3407592773438 145.33868408203125 612.046875 148.50509643554688 615.5746459960938 152.3839874267578 C 618.2257080078125 149.85711669921875 618.412841796875 141.8721160888672 621.3078002929688 140.9501495361328 C 623.2478637695312 137.50120544433594 625.5422973632812 137.4281768798828 627.935791015625 140.2724151611328 C 627.6433715820312 142.13613891601562 629.1495361328125 144.7010040283203 629.07763671875 147.3259735107422 C 632.1201171875 149.754150390625 631.7794189453125 151.13462829589844 636.8368530273438 153.22268676757812 C 642.2372436523438 154.66685485839844 641.6573486328125 160.54376220703125 645.5330810546875 169.6037139892578 C 638.6072387695312 184.51585388183594 639.6874389648438 194.6508026123047 640.0489501953125 206.56626892089844 C 644.01513671875 218.16026306152344 647.0966186523438 231.9864959716797 642.9031372070312 245.68902587890625 C 623.2614135742188 248.47525024414062 611.1757202148438 249.04669189453125 579.31689453125 259.2741394042969 C 570.807861328125 247.58888244628906 573.1527099609375 232.5224609375 573.7493896484375 219.03518676757812 C 568.1417846679688 209.65126037597656 572.2797241210938 168.9693603515625 583.2061767578125 169.83352661132812 C 597.4116821289062 163.22679138183594 599.3113403320312 144.04757690429688 599.731689453125 142.16415405273438 C 595.9388427734375 139.4474639892578 596.7133178710938 136.6250762939453 602.9219360351562 127.58638000488281" stroke-width="0.0" fill="url(#shape_12_fill)"/>
    <path d="M 410.25408935546875 176.6039581298828 C 420.6641540527344 173.73385620117188 432.5305480957031 212.90069580078125 428.34637451171875 220.42474365234375 C 419.9747619628906 228.389892578125 426.4148254394531 238.3880615234375 428.6864013671875 243.26034545898438 C 430.3361511230469 262.92462158203125 420.9243469238281 265.9373474121094 416.6486511230469 268.2926025390625 C 401.6198425292969 267.827880859375 398.32562255859375 270.7430419921875 390.4038391113281 267.5409851074219 C 385.498291015625 264.65582275390625 382.5099792480469 265.8765869140625 380.15374755859375 265.5113830566406 C 375.77484130859375 262.9869384765625 375.5455627441406 260.3624267578125 375.19134521484375 258.400146484375 C 376.38409423828125 255.041259765625 375.0590515136719 254.42298889160156 374.6644592285156 253.31295776367188 C 372.6694641113281 254.49620056152344 370.38250732421875 250.85421752929688 368.764404296875 251.72422790527344 C 359.9036560058594 247.94268798828125 366.4294738769531 229.02735900878906 367.5881042480469 220.92144775390625 C 368.9753723144531 218.74429321289062 372.4121398925781 202.86363220214844 381.3148193359375 203.2212677001953 C 379.14678955078125 198.89935302734375 380.1152648925781 188.2984619140625 390.7590637207031 185.62112426757812 C 391.70587158203125 176.8085479736328 392.8741149902344 176.8650360107422 410.25408935546875 176.6039581298828" stroke-width="0.0" fill="url(#shape_13_fill)"/>
    <path d="M 509.0252685546875 66.86676025390625 C 512.6201171875 66.0841064453125 521.420166015625 70.08147430419922 523.3297729492188 74.71524810791016 C 530.7228393554688 79.40079498291016 533.733154296875 80.01880645751953 536.7022094726562 90.33984375 C 539.3010864257812 90.88467407226562 544.5418701171875 90.30290985107422 545.0235595703125 91.1702880859375 C 545.5333862304688 92.75690460205078 556.01806640625 97.10002136230469 561.316162109375 95.33763885498047 C 563.669921875 97.48028564453125 567.3455810546875 97.50981140136719 568.740966796875 99.1860122680664 C 564.656982421875 105.12083435058594 555.7114868164062 115.55400848388672 542.9899291992188 110.90660858154297 C 541.4121704101562 111.85173034667969 539.3006591796875 114.9100570678711 534.7929077148438 118.38101959228516 C 527.8077392578125 120.66230010986328 519.6911010742188 124.67130279541016 515.546875 118.98917388916016 C 510.8282165527344 119.78007507324219 501.4360046386719 125.44413757324219 499.04718017578125 125.0367660522461 C 497.09552001953125 128.41017150878906 493.6782531738281 128.37953186035156 489.4705505371094 127.53298950195312 C 489.524658203125 122.00688934326172 468.8055725097656 118.9145278930664 468.0832824707031 117.92606353759766 C 463.53277587890625 117.7336196899414 462.9576721191406 116.7324447631836 462.0957946777344 115.96070098876953 C 469.0066223144531 116.41084289550781 471.7259521484375 110.21768951416016 478.20574951171875 105.57962036132812 C 475.26129150390625 92.23965454101562 473.17645263671875 87.73997497558594 475.27484130859375 82.12938690185547 C 474.5901184082031 70.93414306640625 475.34326171875 70.38677978515625 478.50341796875 66.50984954833984 C 478.9717712402344 64.18866729736328 482.7030029296875 64.26228332519531 484.63690185546875 63.337337493896484 C 495.0068054199219 63.780418395996094 501.76898193359375 61.52798080444336 509.0252685546875 66.86676025390625" stroke-width="0.0" fill="url(#shape_14_fill)"/>
    <path d="M 532.2842407226562 160.00534057617188 C 543.8366088867188 162.8014678955078 544.1080932617188 163.731689453125 547.139892578125 165.1739501953125 C 549.6595458984375 167.64279174804688 549.5878295898438 170.29019165039062 543.9238891601562 180.0932159423828 C 541.9019775390625 189.74356079101562 536.8395385742188 231.1548309326172 536.4349975585938 233.4729461669922 C 540.6007080078125 237.2029571533203 540.922607421875 250.48439025878906 515.4891357421875 252.1971893310547 C 501.9729919433594 251.30482482910156 483.2023620605469 244.97976684570312 487.9125671386719 230.65216064453125 C 476.9786682128906 218.21365356445312 478.6631164550781 208.0072479248047 482.8288879394531 200.8172149658203 C 486.81304931640625 197.44532775878906 488.5435791015625 197.56793212890625 488.7386779785156 197.84971618652344 C 483.5943603515625 194.6910858154297 488.304443359375 180.64767456054688 487.9162902832031 172.71031188964844 C 486.85113525390625 168.38818359375 488.6090393066406 165.9124755859375 492.0367736816406 167.2200164794922 C 505.6634826660156 178.77285766601562 511.12237548828125 184.1643829345703 522.7302856445312 172.72027587890625 C 525.5513305664062 170.9595489501953 525.5408325195312 167.30923461914062 526.953369140625 165.08758544921875 C 526.3265380859375 159.31765747070312 528.1348266601562 157.40850830078125 532.2842407226562 160.00534057617188" stroke-width="0.0" fill="url(#shape_15_fill)"/>
    <path d="M 651.8857421875 110.10785675048828 C 654.0094604492188 110.43730163574219 663.25390625 121.78431701660156 660.162353515625 130.19894409179688 C 664.7013549804688 134.819580078125 665.0067138671875 141.8772430419922 673.3778686523438 148.46841430664062 C 676.7459716796875 179.0127410888672 673.483154296875 211.6151123046875 674.4632568359375 259.8739318847656 C 673.3301391601562 257.95977783203125 643.4549560546875 265.3960266113281 637.0556030273438 255.98843383789062 C 637.0910034179688 245.5978546142578 641.2438354492188 123.56340026855469 651.8857421875 110.10785675048828" stroke-width="0.0" fill="url(#shape_16_fill)"/>
    <path d="M 600.9169921875 129.8041534423828 C 603.1553955078125 128.35594177246094 607.100341796875 132.04441833496094 606.32177734375 134.0023956298828 C 608.1841430664062 135.05987548828125 607.5269165039062 140.3150634765625 609.5905151367188 143.1546173095703 C 626.7095947265625 143.02401733398438 628.5709228515625 222.14495849609375 628.9508056640625 257.8274230957031 C 592.4117431640625 262.4335021972656 577.78173828125 254.6559600830078 579.859130859375 236.57705688476562 C 564.0485229492188 227.0516815185547 597.722412109375 154.4608612060547 600.9169921875 129.8041534423828" stroke-width="0.0" fill="url(#shape_17_fill)"/>
    <path d="M 320.6490173339844 186.33969116210938 C 320.5866394042969 186.52674865722656 322.41241455078125 189.51718139648438 320.3620910644531 197.2488250732422 C 333.1069030761719 193.46188354492188 335.6704406738281 192.39266967773438 337.8785705566406 195.3318328857422 C 341.3465270996094 199.89572143554688 346.4272155761719 197.89500427246094 353.7208557128906 195.6309814453125 C 358.0093688964844 194.45457458496094 358.7605285644531 195.9640655517578 357.22467041015625 201.52105712890625 C 359.41754150390625 204.06253051757812 361.4750061035156 204.2733917236328 362.7966003417969 208.1595916748047 C 367.25421142578125 207.08224487304688 368.4852600097656 208.2344512939453 368.26055908203125 211.83743286132812 C 370.113525390625 220.52810668945312 371.1701965332031 222.75978088378906 365.8789367675781 225.75115966796875 C 366.6304016113281 231.56027221679688 364.9698181152344 235.8492889404297 366.96527099609375 249.0301971435547 C 368.94097900390625 251.87289428710938 366.3611145019531 256.2156982421875 358.02044677734375 254.77084350585938 C 354.3525085449219 255.51686096191406 330.0053405761719 254.9140167236328 322.30389404296875 255.3391876220703 C 313.401611328125 255.97824096679688 312.17913818359375 253.54664611816406 307.6797180175781 242.398193359375 C 304.461669921875 230.09483337402344 321.0794982910156 194.53436279296875 320.6490173339844 186.33969116210938" stroke-width="0.0" fill="url(#shape_18_fill)"/>
    <path d="M 478.6728820800781 216.93649291992188 C 495.2198486328125 248.311279296875 506.3819580078125 259.33453369140625 488.736572265625 277.3016357421875 C 470.7695007324219 279.16436767578125 444.006103515625 261.4181213378906 442.1336669921875 261.7265319824219 C 438.6330261230469 260.6477355957031 437.1230773925781 258.2598876953125 432.5227355957031 258.1179504394531 C 429.5224914550781 258.38165283203125 427.8410949707031 257.21014404296875 428.4928894042969 253.96180725097656 C 429.5595703125 238.42201232910156 422.0732116699219 232.01515197753906 422.95538330078125 229.6565704345703 C 422.9617004394531 227.21377563476562 421.2012634277344 226.55926513671875 420.13916015625 225.28067016601562 C 427.73004150390625 219.52609252929688 429.68597412109375 218.81234741210938 428.97247314453125 215.33934020996094 C 438.6948547363281 196.10232543945312 472.52337646484375 198.55577087402344 478.6728820800781 216.93649291992188" stroke-width="0.0" fill="url(#shape_19_fill)"/>
    <path d="M 673.9057006835938 -2.95524263381958 C 675.0557250976562 32.85982894897461 674.5828247070312 64.76434326171875 674.3557739257812 97.21275329589844 C 669.6431884765625 96.1291275024414 652.4838256835938 87.36856079101562 643.9622802734375 90.05232238769531 C 638.6324462890625 89.5497817993164 638.1636352539062 85.92198944091797 637.56591796875 84.46644592285156 C 625.697998046875 84.1541748046875 619.7041015625 93.14325714111328 608.4810180664062 86.58203887939453 C 609.576416015625 74.52676391601562 612.9368286132812 74.17102813720703 614.9548950195312 71.87088775634766 C 622.5126342773438 68.8234634399414 649.0247192382812 25.306575775146484 648.3511352539062 22.2144832611084 C 655.8482055664062 11.361015319824219 656.1985473632812 3.4462690353393555 668.2380981445312 3.9648616313934326 C 669.8035888671875 2.6739909648895264 670.1544799804688 1.1178010702133179 673.9057006835938 -2.95524263381958" stroke-width="0.0" fill="url(#shape_20_fill)"/>
    <path d="M 562.2040405273438 155.95179748535156 C 569.8352661132812 156.5475311279297 569.86767578125 162.14219665527344 574.4279174804688 165.18386840820312 C 585.328369140625 168.2906036376953 575.642578125 231.2340087890625 577.56494140625 240.84716796875 C 575.9094848632812 244.71351623535156 573.835205078125 246.98019409179688 573.8510131835938 255.76853942871094 C 558.14697265625 252.1424560546875 543.0414428710938 251.52578735351562 540.0490112304688 246.23680114746094 C 544.340576171875 244.7135467529297 541.024658203125 165.4435577392578 555.0205078125 157.9386749267578 C 555.648681640625 153.46339416503906 558.6939697265625 152.7533721923828 562.2040405273438 155.95179748535156" stroke-width="0.0" fill="url(#shape_21_fill)"/>
    <path d="M 215.01336669921875 209.57151794433594 C 232.64111328125 209.6081085205078 232.97706604003906 242.12460327148438 219.83993530273438 255.6797332763672 C 211.8624267578125 263.3316955566406 210.05088806152344 264.5823059082031 209.03228759765625 273.34259033203125 C 205.95018005371094 275.3772888183594 206.7674102783203 277.114990234375 207.02325439453125 280.1432189941406 C 206.9596405029297 283.1239929199219 203.90501403808594 285.4390869140625 200.51405334472656 284.92236328125 C 200.24703979492188 283.45367431640625 190.6107940673828 272.8499450683594 187.84706115722656 265.228271484375 C 186.65626525878906 261.4887390136719 183.75221252441406 262.29193115234375 181.51785278320312 261.8871154785156 C 180.74102783203125 260.68035888671875 179.9679718017578 260.5313720703125 178.81529235839844 253.83746337890625 C 179.78240966796875 248.54505920410156 169.11227416992188 242.9789581298828 170.816162109375 238.146240234375 C 175.70655822753906 213.2301483154297 177.6348876953125 213.33596801757812 185.70278930664062 220.6233367919922 C 193.9369659423828 219.21621704101562 194.28504943847656 215.4725799560547 198.19384765625 213.30441284179688 C 187.6344451904297 207.91429138183594 187.29354858398438 202.11460876464844 197.07591247558594 197.36007690429688 C 213.7265625 197.44290161132812 214.7823944091797 200.3296661376953 215.01336669921875 209.57151794433594" stroke-width="0.0" fill="url(#shape_22_fill)"/>
    <path d="M 111.55596923828125 426.3774719238281 C 112.72470092773438 429.27752685546875 110.99942779541016 431.1878967285156 110.6666259765625 431.60833740234375 C 104.69080352783203 432.93463134765625 102.97400665283203 433.7784423828125 91.87052917480469 432.9716491699219 C 89.76069641113281 435.96551513671875 95.68294525146484 446.421630859375 91.63050842285156 452.1399841308594 C 78.66380310058594 444.9972229003906 46.938175201416016 447.9271240234375 24.99582290649414 449.6439514160156 C 14.00961685180664 446.26568603515625 13.877708435058594 439.7770080566406 17.849559783935547 436.4034729003906 C 34.2304573059082 427.6540832519531 50.533355712890625 427.00274658203125 70.76593780517578 427.11383056640625 C 74.65361022949219 424.98797607421875 109.78895568847656 419.4740295410156 111.55596923828125 426.3774719238281" stroke-width="0.0" fill="url(#shape_23_fill)"/>
    <path d="M 194.2212677001953 123.49922943115234 C 199.89443969726562 124.75370025634766 210.6394805908203 144.2819366455078 214.43548583984375 145.12322998046875 C 215.58901977539062 148.1082763671875 218.522705078125 149.7173309326172 220.19200134277344 153.5832061767578 C 227.09503173828125 158.41624450683594 248.41326904296875 178.41265869140625 244.63427734375 199.51832580566406 C 239.2057647705078 199.5384979248047 235.5673065185547 187.037109375 232.69342041015625 180.6531982421875 C 234.44520568847656 185.7855224609375 233.4729461669922 196.4408721923828 231.27169799804688 196.6427001953125 C 225.7564239501953 199.2948455810547 225.22509765625 202.30694580078125 220.36940002441406 208.56869506835938 C 215.19100952148438 207.65396118164062 213.6302032470703 199.42266845703125 213.9474334716797 196.05946350097656 C 212.68313598632812 189.60459899902344 212.5926971435547 183.05970764160156 206.73477172851562 178.27662658691406 C 203.97601318359375 174.0269775390625 205.05862426757812 173.02882385253906 205.5894775390625 166.83367919921875 C 201.9118194580078 147.6981201171875 200.51593017578125 147.67227172851562 192.61766052246094 144.2379608154297 C 189.19923400878906 142.2882080078125 191.0918426513672 128.3412628173828 194.2212677001953 123.49922943115234" stroke-width="0.0" fill="url(#shape_24_fill)"/>
    <path d="M 595.8959350585938 410.7012634277344 C 598.3296508789062 411.5271911621094 626.5690307617188 408.87567138671875 628.5264282226562 415.47296142578125 C 628.2280883789062 421.0506896972656 626.7904052734375 425.1585693359375 628.9014282226562 426.6612548828125 C 631.111083984375 428.59979248046875 636.2431030273438 427.5777893066406 638.5320434570312 437.61505126953125 C 617.3973388671875 446.7586669921875 577.491943359375 439.789306640625 573.8233642578125 434.0431823730469 C 567.6369018554688 426.0595397949219 574.4522094726562 419.7838134765625 576.332763671875 413.9486389160156 C 579.6638793945312 409.39642333984375 587.1354370117188 413.0142822265625 595.8959350585938 410.7012634277344" stroke-width="0.0" fill="url(#shape_25_fill)"/>
    <path d="M 142.90762329101562 66.70735168457031 C 144.07997131347656 68.93113708496094 149.16944885253906 68.33090209960938 149.6295166015625 69.14116668701172 C 148.90475463867188 70.90062713623047 150.46176147460938 71.82513427734375 149.76327514648438 73.86712646484375 C 151.05560302734375 74.45088195800781 150.20179748535156 78.37632751464844 150.59866333007812 80.97457885742188 C 152.35423278808594 89.29518127441406 152.81044006347656 97.67375183105469 153.93936157226562 104.10212707519531 C 153.51834106445312 107.6205825805664 155.1071319580078 108.52127838134766 155.2088165283203 111.42897033691406 C 158.18247985839844 123.41361236572266 155.37095642089844 133.51275634765625 150.37490844726562 133.584716796875 C 142.9836883544922 126.91204071044922 137.17752075195312 120.2844009399414 125.76355743408203 117.22036743164062 C 122.5134048461914 114.27515411376953 124.57721710205078 109.67571258544922 126.81029510498047 107.00125885009766 C 128.8249969482422 106.84982299804688 128.8755340576172 105.28143310546875 132.6344451904297 104.6742172241211 C 138.94163513183594 96.44287872314453 134.8258056640625 93.13793182373047 133.30044555664062 90.0416030883789 C 134.20985412597656 88.90061950683594 139.29466247558594 87.22874450683594 140.05679321289062 85.31852722167969 C 138.09913635253906 84.74854278564453 138.70816040039062 77.6451416015625 139.49649047851562 77.47843933105469 C 143.55047607421875 76.5968246459961 142.64561462402344 70.31764221191406 142.90762329101562 66.70735168457031" stroke-width="0.0" fill="url(#shape_26_fill)"/>
    <path d="M 140.7384490966797 67.97250366210938 C 148.89427185058594 67.11888122558594 149.90200805664062 68.32925415039062 148.5670928955078 76.4647216796875 C 150.8971710205078 77.80718231201172 151.23211669921875 80.44310760498047 154.4243621826172 85.07830810546875 C 150.3560333251953 91.05267333984375 154.5428466796875 93.9050521850586 151.8319549560547 104.72526550292969 C 153.1989288330078 105.6806869506836 153.30886840820312 109.34282684326172 155.49072265625 112.98838806152344 C 152.93472290039062 116.7647705078125 157.58511352539062 122.03650665283203 154.6968994140625 126.25738525390625 C 152.61985778808594 132.03895568847656 151.3442840576172 133.17311096191406 147.4639129638672 133.76348876953125 C 141.53697204589844 131.876708984375 128.08670043945312 120.95804595947266 129.53700256347656 118.28362274169922 C 124.85336303710938 118.70259857177734 122.2342300415039 114.07662963867188 128.26573181152344 110.437744140625 C 123.4177474975586 108.51282501220703 124.20726776123047 105.54927062988281 133.48316955566406 107.13290405273438 C 136.4442596435547 105.66705322265625 134.00990295410156 92.86668395996094 133.61427307128906 89.43372344970703 C 139.57167053222656 87.53557586669922 138.7496337890625 84.81867980957031 138.5373992919922 81.6202392578125 C 139.0783233642578 77.50930786132812 140.36549377441406 76.80085754394531 141.9500732421875 77.2942886352539 C 145.5193328857422 73.093505859375 142.5995635986328 70.3281478881836 140.7384490966797 67.97250366210938" stroke-width="0.0" fill="url(#shape_27_fill)"/>
    <path d="M -0.31770849227905273 -0.2706420123577118 C 4.699924468994141 0.3809972107410431 9.64689826965332 -0.5255133509635925 19.85902214050293 -0.8243482708930969 C 23.762042999267578 -0.17084646224975586 24.16034507751465 1.6271612644195557 41.31185531616211 9.07684326171875 C 37.326324462890625 25.53252410888672 28.098840713500977 26.03295135498047 27.131650924682617 23.62531280517578 C 43.291839599609375 21.95223045349121 50.863929748535156 22.21346664428711 52.338287353515625 45.439849853515625 C 37.05433654785156 47.76665115356445 30.63254165649414 48.08523941040039 22.52536392211914 44.85354995727539 C 16.51203155517578 38.96887969970703 11.29586410522461 38.27716827392578 10.098501205444336 33.75107955932617 C 9.907716751098633 35.652984619140625 14.019609451293945 39.6148567199707 15.11872386932373 41.214786529541016 C 15.661474227905273 42.09579849243164 15.254617691040039 44.61105728149414 18.155248641967773 47.88533401489258 C 20.069129943847656 51.07195281982422 18.755638122558594 52.30868148803711 20.586593627929688 57.148651123046875 C 20.748634338378906 63.60301208496094 14.55109977722168 65.57044219970703 8.74793529510498 61.311622619628906 C 5.496660232543945 60.88460159301758 3.5342350006103516 59.14115905761719 0.3247009813785553 59.43367004394531 C -0.31764763593673706 39.77888107299805 -0.3248617351055145 19.6282958984375 -0.31770849227905273 -0.2706420123577118" stroke-width="0.0" fill="url(#shape_28_fill)"/>
    <path d="M 299.475341796875 197.42112731933594 C 297.536865234375 199.25099182128906 300.00390625 202.14242553710938 301.5564270019531 208.06100463867188 C 299.1443786621094 212.56675720214844 322.9765625 228.1957550048828 315.532470703125 255.2397918701172 C 311.7922058105469 254.2825927734375 310.4754638671875 255.79779052734375 304.55792236328125 255.0120086669922 C 300.8299255371094 258.2343444824219 295.0976257324219 258.3531494140625 281.1005859375 256.0931091308594 C 280.1070861816406 228.84249877929688 285.2816467285156 217.09939575195312 299.475341796875 197.42112731933594" stroke-width="0.0" fill="url(#shape_29_fill)"/>
    <path d="M 0.0006808775942772627 -0.006774867884814739 C 4.478058338165283 0.4461015462875366 9.61830997467041 -0.4145977199077606 14.578408241271973 0.12732946872711182 C 15.761920928955078 0.49199387431144714 16.269620895385742 5.021925926208496 16.266416549682617 8.048992156982422 C 18.909225463867188 10.837003707885742 21.97402000427246 18.904319763183594 27.0159912109375 20.74809455871582 C 27.12288475036621 22.49312973022461 24.431753158569336 26.796846389770508 24.60980987548828 32.03062057495117 C 20.255752563476562 32.084041595458984 14.110532760620117 30.357778549194336 7.008334159851074 33.92115783691406 C 9.087759971618652 35.888458251953125 8.790449142456055 38.725955963134766 10.856390953063965 40.46345520019531 C 10.022602081298828 44.61648941040039 7.770284652709961 50.222633361816406 11.553975105285645 53.84636688232422 C 17.708110809326172 51.461116790771484 19.524932861328125 51.978965759277344 18.278100967407227 58.51133346557617 C 11.301868438720703 60.398216247558594 9.4165620803833 62.55197525024414 0.20968426764011383 61.44168472290039 C -0.4183832108974457 39.96238708496094 -0.3544532358646393 19.75450897216797 0.0006808775942772627 -0.006774867884814739" stroke-width="0.0" fill="url(#shape_30_fill)"/>
    <path d="M 547.3702392578125 70.31229400634766 C 545.882080078125 77.13739013671875 576.7547607421875 89.48371124267578 581.4967041015625 91.49669647216797 C 580.8030395507812 92.54561614990234 577.2500610351562 93.27893829345703 576.8760375976562 98.16474151611328 C 573.2608032226562 100.71430969238281 572.0752563476562 99.83016967773438 569.2844848632812 100.01515197753906 C 567.3464965820312 95.695068359375 545.2128295898438 96.441650390625 538.5881958007812 88.42487335205078 C 538.59228515625 85.44880676269531 537.64892578125 83.21666717529297 535.6632690429688 82.43467712402344 C 534.7147216796875 79.66802978515625 528.3190307617188 79.66576385498047 527.052490234375 78.38387298583984 C 525.2872314453125 75.78839874267578 527.7600708007812 70.85525512695312 532.656005859375 69.2892074584961 C 538.1842651367188 66.79196166992188 541.099365234375 71.1080322265625 547.3702392578125 70.31229400634766" stroke-width="0.0" fill="url(#shape_31_fill)"/>
    <path d="M 447.6500549316406 264.2835998535156 C 450.68255615234375 265.25933837890625 451.3059387207031 266.7174072265625 455.9299011230469 267.6977844238281 C 460.5113830566406 267.6551208496094 465.32232666015625 270.3759765625 469.923583984375 273.1989440917969 C 470.43402099609375 275.6310729980469 471.8264465332031 276.8917236328125 471.6768798828125 280.7679748535156 C 450.91064453125 288.7892150878906 429.4485168457031 284.9767150878906 415.90142822265625 284.677001953125 C 413.4179992675781 273.9114074707031 415.17730712890625 272.3446044921875 415.6531982421875 268.2274475097656 C 418.1906433105469 267.2078552246094 417.7764587402344 264.8061828613281 419.3520812988281 263.0878601074219 C 433.5650634765625 254.1107940673828 445.5490417480469 254.94261169433594 447.6500549316406 264.2835998535156" stroke-width="0.0" fill="url(#shape_32_fill)"/>
    <path d="M 271.9888610839844 192.58787536621094 C 276.8080749511719 191.79457092285156 285.54278564453125 243.67514038085938 280.8225402832031 244.66964721679688 C 279.2735900878906 247.29547119140625 273.84454345703125 246.8815155029297 269.78643798828125 248.53994750976562 C 266.4130859375 245.95338439941406 266.7651062011719 242.0576934814453 261.1675720214844 240.7445068359375 C 254.19549560546875 210.47679138183594 262.3241271972656 207.13412475585938 271.9888610839844 192.58787536621094" stroke-width="0.0" fill="url(#shape_33_fill)"/>
    <path d="M 261.5887756347656 417.599365234375 C 260.6015625 423.6116027832031 265.2699279785156 430.1632080078125 267.7427673339844 440.22991943359375 C 262.186279296875 441.55010986328125 261.0739440917969 446.5891418457031 255.3081817626953 447.81414794921875 C 246.076171875 445.7543640136719 218.49990844726562 448.1195373535156 212.57786560058594 444.7186279296875 C 213.02471923828125 436.99578857421875 213.95974731445312 436.2222900390625 215.93772888183594 434.48681640625 C 216.1925506591797 433.4240417480469 225.0187225341797 433.4565124511719 226.60691833496094 430.338623046875 C 228.66107177734375 420.0014343261719 239.68653869628906 420.4825134277344 261.5887756347656 417.599365234375" stroke-width="0.0" fill="url(#shape_34_fill)"/>
    <path d="M 106.11925506591797 69.81156921386719 C 109.57565307617188 69.85311889648438 111.63741302490234 79.0044174194336 112.21886444091797 84.56535339355469 C 117.26615905761719 85.3376693725586 117.36062622070312 110.2759017944336 117.80486297607422 110.83206176757812 C 116.82475280761719 112.7011489868164 111.65662384033203 114.48401641845703 107.09062194824219 123.66384887695312 C 104.7555923461914 117.1993637084961 96.5283432006836 118.80670928955078 90.83145141601562 112.32675170898438 C 89.04774475097656 85.48880004882812 104.70720672607422 84.43966674804688 106.11925506591797 69.81156921386719" stroke-width="0.0" fill="url(#shape_35_fill)"/>
    <path d="M 451.4775085449219 178.59666442871094 C 453.31707763671875 176.40463256835938 456.4447326660156 177.68609619140625 455.7198181152344 180.23916625976562 C 456.4393005371094 180.62408447265625 456.0380554199219 185.06729125976562 456.76806640625 185.81613159179688 C 455.7503662109375 188.6230010986328 458.6342468261719 194.34494018554688 459.8837585449219 204.7990264892578 C 459.3695373535156 208.4673614501953 452.0791015625 209.29696655273438 445.71124267578125 204.50730895996094 C 441.9510803222656 207.3573455810547 440.6220703125 208.850341796875 433.2624206542969 210.9684295654297 C 434.3052978515625 209.91400146484375 437.30377197265625 189.32131958007812 438.8495178222656 179.84994506835938 C 440.4002685546875 179.6510772705078 444.236328125 181.01617431640625 446.5227355957031 180.64004516601562 C 447.7408447265625 179.29039001464844 450.090087890625 179.5424346923828 451.4775085449219 178.59666442871094" stroke-width="0.0" fill="url(#shape_36_fill)"/>
    <path d="M 557.761962890625 84.700439453125 C 562.572265625 80.95777893066406 578.5564575195312 82.48148345947266 580.1257934570312 85.83100128173828 C 581.4658203125 83.86680603027344 586.3810424804688 85.47001647949219 587.1864624023438 88.69429016113281 C 595.5203857421875 99.03782653808594 587.7916870117188 107.45077514648438 574.3848266601562 100.2601547241211 C 573.7900390625 99.41363525390625 552.490966796875 95.26810455322266 543.2465209960938 85.42412567138672 C 538.5634765625 85.41322326660156 537.7990112304688 81.83027648925781 535.719482421875 80.14310455322266 C 542.8505249023438 75.00511932373047 547.6574096679688 78.47294616699219 557.761962890625 84.700439453125" stroke-width="0.0" fill="url(#shape_37_fill)"/>
    <path d="M 252.14013671875 208.33413696289062 C 265.12261962890625 211.28880310058594 261.60662841796875 240.8549041748047 260.4396057128906 247.87098693847656 C 259.3380126953125 254.58721923828125 250.91397094726562 254.4371795654297 249.07080078125 257.7250671386719 C 234.31161499023438 237.45236206054688 240.62490844726562 213.4426727294922 252.14013671875 208.33413696289062" stroke-width="0.0" fill="url(#shape_38_fill)"/>
    <path d="M 443.3310241699219 263.5662536621094 C 445.9793395996094 263.4725646972656 449.1395568847656 266.59912109375 447.72625732421875 270.0533447265625 C 444.2181701660156 270.3471374511719 442.6083679199219 277.0511474609375 440.95654296875 279.1339111328125 C 439.8455810546875 286.0242614746094 423.83880615234375 284.7938232421875 418.4614562988281 276.1872253417969 C 414.6104431152344 276.748291015625 413.268798828125 274.25653076171875 415.8662414550781 271.6529235839844 C 415.1636047363281 269.945068359375 419.2308044433594 262.2117004394531 425.89971923828125 258.2554626464844 C 427.235595703125 256.3372802734375 437.9904479980469 258.01214599609375 443.3310241699219 263.5662536621094" stroke-width="0.0" fill="url(#shape_39_fill)"/>
    <path d="M 407.7328186035156 409.7865905761719 C 408.6837158203125 409.884033203125 416.7835693359375 419.036865234375 413.6658935546875 424.2002258300781 C 400.44622802734375 436.1753845214844 385.46075439453125 420.2330627441406 376.62066650390625 420.8434753417969 C 371.0777893066406 417.9533386230469 371.2501525878906 416.5572204589844 372.58953857421875 410.4764404296875 C 375.10943603515625 401.20159912109375 395.1082763671875 403.5931396484375 407.7328186035156 409.7865905761719" stroke-width="0.0" fill="url(#shape_40_fill)"/>
    <path d="M 66.44585418701172 427.58050537109375 C 67.39861297607422 429.1165771484375 64.82264709472656 434.5806579589844 58.220211029052734 435.8291015625 C 58.133506774902344 436.95281982421875 40.1271858215332 436.33349609375 31.819976806640625 442.77276611328125 C 29.198047637939453 443.05462646484375 26.985570907592773 444.0179138183594 17.204397201538086 443.2091979980469 C 16.4456729888916 440.6487121582031 17.776676177978516 439.20562744140625 17.267717361450195 437.86956787109375 C 34.549556732177734 427.4172058105469 54.86042404174805 427.78204345703125 66.44585418701172 427.58050537109375" stroke-width="0.0" fill="url(#shape_41_fill)"/>
    <path d="M 278.2583923339844 380.9671630859375 C 284.671142578125 381.2816162109375 297.9540100097656 381.2012023925781 304.2913513183594 385.1414489746094 C 297.3377990722656 394.9639892578125 299.3283996582031 400.91387939453125 294.3858642578125 404.9743347167969 C 291.73638916015625 399.7005615234375 265.4833068847656 405.1465148925781 258.554931640625 406.42071533203125 C 249.51844787597656 404.1651306152344 247.09706115722656 393.84552001953125 249.7018280029297 382.44866943359375 C 260.86962890625 381.0841369628906 267.4276123046875 382.15087890625 278.2583923339844 380.9671630859375" stroke-width="0.0" fill="url(#shape_42_fill)"/>
    <path d="M 222.6983184814453 215.04437255859375 C 223.8939666748047 213.80384826660156 234.97946166992188 213.2666015625 239.8777618408203 215.48361206054688 C 242.0311737060547 221.4268341064453 247.8533477783203 240.21826171875 249.40432739257812 266.4205017089844 C 248.2500762939453 272.1358947753906 240.57151794433594 272.40802001953125 209.78909301757812 272.19158935546875 C 206.6933135986328 266.5154113769531 205.9547882080078 257.4639587402344 217.00830078125 247.92738342285156 C 219.42333984375 246.47239685058594 218.10704040527344 226.42381286621094 222.6983184814453 215.04437255859375" stroke-width="0.0" fill="url(#shape_43_fill)"/>
    <path d="M 483.8165588378906 395.7257995605469 C 486.8099365234375 399.8027038574219 485.8236083984375 400.9861755371094 483.52142333984375 401.1665954589844 C 473.4881591796875 407.13751220703125 451.1646423339844 406.752197265625 450.248291015625 407.6556396484375 C 448.0652160644531 404.4149169921875 451.59161376953125 396.17230224609375 453.6088562011719 396.48504638671875 C 463.4579162597656 393.08599853515625 472.3746337890625 392.7323913574219 483.8165588378906 395.7257995605469" stroke-width="0.0" fill="url(#shape_44_fill)"/>
    <path d="M 45.81800842285156 407.9246826171875 C 45.33605194091797 408.6682434082031 35.748653411865234 411.4991760253906 34.036197662353516 413.3664855957031 C 32.68528366088867 414.58001708984375 32.378173828125 416.0459289550781 28.786876678466797 415.6531677246094 C 27.68636703491211 417.35791015625 25.077064514160156 417.9424743652344 21.575786590576172 420.532470703125 C 18.081899642944336 420.1566162109375 0.279980331659317 417.281005859375 -0.7542595267295837 420.5306396484375 C 1.7997804880142212 419.65960693359375 -0.7373414635658264 411.15545654296875 0.6816916465759277 410.41900634765625 C 8.253121376037598 408.86297607421875 45.45551681518555 406.7899475097656 45.81800842285156 407.9246826171875" stroke-width="0.0" fill="url(#shape_45_fill)"/>
    <path d="M 451.95037841796875 175.16082763671875 C 454.6684265136719 174.9320831298828 464.5459289550781 198.86880493164062 465.6638488769531 200.52383422851562 C 462.594482421875 209.60328674316406 451.6827392578125 209.53895568847656 449.4718933105469 206.7123260498047 C 448.3247375488281 203.25143432617188 449.0389709472656 198.31411743164062 448.8490295410156 195.3001708984375 C 447.9512023925781 194.5536651611328 447.6004638671875 192.1429443359375 448.5111083984375 188.01976013183594 C 451.01800537109375 186.64991760253906 450.7318420410156 182.98695373535156 451.95037841796875 175.16082763671875" stroke-width="0.0" fill="url(#shape_46_fill)"/>
    <path d="M 372.97882080078125 185.3353271484375 C 378.86383056640625 195.8236846923828 380.30609130859375 202.50172424316406 371.3636779785156 206.1090545654297 C 365.8646545410156 206.82337951660156 364.772216796875 204.85572814941406 362.03662109375 204.7333526611328 C 346.2942810058594 208.4649658203125 342.8409729003906 201.25985717773438 354.0331115722656 188.3911590576172 C 356.6549377441406 184.96217346191406 358.36920166015625 184.41110229492188 368.1019287109375 185.4495849609375 C 368.9622802734375 183.63143920898438 372.79241943359375 183.4159393310547 372.97882080078125 185.3353271484375" stroke-width="0.0" fill="url(#shape_47_fill)"/>
    <path d="M 470.9468078613281 263.7129821777344 C 475.2093505859375 267.7516174316406 480.6331481933594 268.5927734375 480.0699157714844 284.71673583984375 C 465.24078369140625 287.4981689453125 452.66900634765625 286.2392578125 443.791748046875 284.9316101074219 C 439.3042297363281 282.233642578125 440.00006103515625 276.95806884765625 441.18170166015625 276.45977783203125 C 447.960205078125 266.7518615722656 455.5301208496094 263.65655517578125 470.9468078613281 263.7129821777344" stroke-width="0.0" fill="url(#shape_48_fill)"/>
    <path d="M 177.18028259277344 117.42628479003906 C 178.16357421875 115.6425552368164 181.86175537109375 116.22815704345703 182.68434143066406 117.2907485961914 C 184.681640625 120.2520523071289 183.8514862060547 122.35155487060547 184.7469482421875 122.85945892333984 C 179.5900421142578 126.6744384765625 185.79736328125 136.53526306152344 183.07528686523438 139.91920471191406 C 181.4499969482422 146.52679443359375 172.80572509765625 146.1818389892578 171.90945434570312 146.6728973388672 C 171.46498107910156 126.98394775390625 170.62118530273438 124.62265014648438 177.18028259277344 117.42628479003906" stroke-width="0.0" fill="url(#shape_49_fill)"/>
    <path d="M 333.8642272949219 428.09649658203125 C 337.2635498046875 428.6151123046875 341.2637023925781 429.01763916015625 343.0054016113281 431.9557800292969 C 346.36236572265625 435.5943298339844 345.16156005859375 437.2274169921875 342.458251953125 437.601806640625 C 342.8418273925781 446.32440185546875 325.01092529296875 448.36492919921875 323.17364501953125 442.5646057128906 C 319.3850402832031 436.4295959472656 317.9219055175781 432.8889465332031 309.6146545410156 429.20147705078125 C 321.8133544921875 427.05133056640625 328.77783203125 428.5352478027344 333.8642272949219 428.09649658203125" stroke-width="0.0" fill="url(#shape_50_fill)"/>
    <path d="M 302.43072509765625 388.90142822265625 C 300.1412048339844 393.3557434082031 294.2752380371094 398.4272766113281 290.8196105957031 399.0603942871094 C 278.95111083984375 397.87249755859375 278.7945251464844 398.48046875 271.3595275878906 402.57867431640625 C 271.0887451171875 401.61505126953125 269.6418762207031 398.9681701660156 271.1141052246094 397.48370361328125 C 269.97125244140625 395.5096130371094 273.0216979980469 388.0817565917969 280.3459167480469 388.4371337890625 C 283.7206726074219 385.9498596191406 287.9299011230469 391.4557189941406 302.43072509765625 388.90142822265625" stroke-width="0.0" fill="url(#shape_51_fill)"/>
    <path d="M 268.9517822265625 183.760009765625 C 275.9189758300781 195.0993194580078 277.8999938964844 207.6708221435547 279.910400390625 217.28189086914062 C 271.4482421875 210.4090576171875 269.219970703125 208.01890563964844 261.0185241699219 215.58677673339844 C 257.55426025390625 207.5416717529297 263.8526916503906 196.88705444335938 266.48638916015625 195.27383422851562 C 269.6767883300781 194.25645446777344 268.9746398925781 191.70077514648438 268.9517822265625 183.760009765625" stroke-width="0.0" fill="url(#shape_52_fill)"/>
    <path d="M 218.2749786376953 409.53271484375 C 215.91465759277344 410.9609680175781 215.61187744140625 413.259521484375 214.23886108398438 414.0239562988281 C 214.67550659179688 421.72216796875 191.18772888183594 424.2659606933594 187.50636291503906 415.5673522949219 C 186.2674102783203 405.6947021484375 206.19766235351562 400.74945068359375 218.2749786376953 409.53271484375" stroke-width="0.0" fill="url(#shape_53_fill)"/>
    <path d="M 205.8430633544922 424.62921142578125 C 205.5213623046875 425.28521728515625 206.13743591308594 428.2760009765625 204.5761260986328 429.43328857421875 C 194.6280975341797 430.3504333496094 178.8207550048828 430.8219299316406 177.95135498046875 432.67919921875 C 176.74560546875 430.951171875 178.2405548095703 425.9523620605469 176.81695556640625 423.9004821777344 C 186.22084045410156 418.51324462890625 194.48660278320312 422.5378112792969 205.8430633544922 424.62921142578125" stroke-width="0.0" fill="url(#shape_54_fill)"/>
    <path d="M 269.2849426269531 246.4226837158203 C 275.43133544921875 244.89474487304688 276.66912841796875 246.6094970703125 280.6324768066406 245.52493286132812 C 280.9183349609375 250.96742248535156 280.28466796875 252.42088317871094 285.5478210449219 261.00311279296875 C 263.45819091796875 257.9450378417969 262.9227294921875 257.23974609375 253.07986450195312 261.5062255859375 C 254.87667846679688 248.1768341064453 255.8671875 247.22897338867188 258.6329345703125 245.2059783935547 C 260.385986328125 239.4453887939453 266.4047546386719 239.77171325683594 269.2849426269531 246.4226837158203" stroke-width="0.0" fill="url(#shape_55_fill)"/>
    <path d="M 275.70159912109375 354.0115966796875 C 278.2148132324219 363.7466735839844 283.17352294921875 363.3166198730469 284.56341552734375 368.07379150390625 C 285.383544921875 369.2353820800781 285.951904296875 371.8404541015625 285.7472839355469 380.972412109375 C 275.9566955566406 379.1973571777344 263.1429748535156 382.1086120605469 245.29595947265625 383.148193359375 C 240.93115234375 382.2376403808594 241.29344177246094 360.3592834472656 242.23095703125 355.8724670410156 C 250.73194885253906 354.41595458984375 257.8211975097656 353.3899230957031 275.70159912109375 354.0115966796875" stroke-width="0.0" fill="url(#shape_56_fill)"/>
    <path d="M 409.01824951171875 270.82916259765625 C 415.4775390625 269.1603088378906 418.0347900390625 273.443115234375 420.1288146972656 279.94891357421875 C 412.77886962890625 287.3266906738281 403.2097473144531 283.5243225097656 382.4482727050781 279.9800109863281 C 380.7516784667969 265.496337890625 389.5115966796875 263.5152282714844 409.01824951171875 270.82916259765625" stroke-width="0.0" fill="url(#shape_57_fill)"/>
    <path d="M 632.0494995117188 351.73675537109375 C 632.9799194335938 354.8861999511719 659.7159423828125 353.73089599609375 668.6367797851562 353.9163513183594 C 668.4852294921875 358.4609375 662.813720703125 360.6321105957031 660.2357177734375 357.3326721191406 C 650.8356323242188 355.6009826660156 634.3668212890625 360.2152404785156 631.5017700195312 360.73760986328125 C 627.7806396484375 357.095947265625 629.3295288085938 353.5782775878906 632.0494995117188 351.73675537109375" stroke-width="0.0" fill="url(#shape_58_fill)"/>
    <path d="M 341.29296875 385.0483703613281 C 342.79498291015625 390.26763916015625 358.1285705566406 391.7746887207031 359.1856689453125 394.7331848144531 C 356.5184631347656 398.31298828125 339.3262023925781 401.94073486328125 338.450439453125 399.525390625 C 335.13812255859375 399.6121520996094 333.0789489746094 398.77716064453125 331.8612060546875 396.5368957519531 C 331.9866638183594 394.93994140625 330.754638671875 393.4737243652344 332.3436279296875 390.6087341308594 C 333.1125793457031 385.0584411621094 336.7381591796875 384.16046142578125 341.29296875 385.0483703613281" stroke-width="0.0" fill="url(#shape_59_fill)"/>
    <path d="M 459.9244384765625 363.4438171386719 C 462.6024169921875 364.9600830078125 472.27911376953125 370.0107116699219 473.1129455566406 374.09368896484375 C 471.7952880859375 376.186767578125 470.33270263671875 376.8641662597656 463.0946044921875 375.9165344238281 C 458.5118408203125 377.1065368652344 457.6541442871094 377.00457763671875 452.727294921875 370.9999694824219 C 453.1874084472656 369.65576171875 459.7616271972656 365.5323486328125 459.9244384765625 363.4438171386719" stroke-width="0.0" fill="url(#shape_60_fill)"/>
    <path d="M 435.05340576171875 432.84722900390625 C 440.1308898925781 434.3019714355469 442.4691467285156 436.4423828125 442.01776123046875 438.8712158203125 C 440.4052734375 441.7301330566406 429.5773010253906 440.44317626953125 425.7626647949219 442.4537048339844 C 422.4812316894531 438.7213134765625 423.9583740234375 434.57232666015625 413.20941162109375 425.83514404296875 C 428.0875244140625 429.3893737792969 431.6095886230469 434.2553405761719 435.05340576171875 432.84722900390625" stroke-width="0.0" fill="url(#shape_61_fill)"/>
    <path d="M 185.42462158203125 411.4510192871094 C 186.26438903808594 413.93170166015625 185.00802612304688 414.7928771972656 186.9242706298828 417.7279357910156 C 184.86424255371094 420.1753234863281 183.4007110595703 419.5221252441406 182.48617553710938 419.71185302734375 C 180.80636596679688 421.645751953125 174.42013549804688 420.3010559082031 171.29617309570312 420.20654296875 C 169.54318237304688 417.8399963378906 169.7614288330078 415.6335144042969 173.7358856201172 413.3255920410156 C 176.42127990722656 412.45855712890625 181.25436401367188 410.71063232421875 185.42462158203125 411.4510192871094" stroke-width="0.0" fill="url(#shape_62_fill)"/>
    <path d="M 332.36468505859375 418.5872497558594 C 334.86224365234375 426.1328430175781 329.8903503417969 427.9678955078125 327.2751770019531 426.0040588378906 C 324.5901794433594 427.775634765625 322.9983215332031 426.73199462890625 320.7234191894531 427.6007995605469 C 318.759765625 426.033203125 319.70806884765625 419.9864196777344 317.6493225097656 418.4496765136719 C 318.7278137207031 420.1042175292969 326.041259765625 419.03021240234375 332.36468505859375 418.5872497558594" stroke-width="0.0" fill="url(#shape_63_fill)"/>
    <path d="M 55.393943786621094 273.293701171875 C 56.554603576660156 269.48968505859375 66.09693145751953 269.876953125 65.9906997680664 278.3120422363281 C 58.888633728027344 279.13873291015625 53.80483627319336 272.86090087890625 48.06116485595703 276.1844177246094 C 49.73443603515625 272.9763488769531 52.33721923828125 272.4650573730469 55.393943786621094 273.293701171875" stroke-width="0.0" fill="url(#shape_64_fill)"/>
    <path d="M 304.485107421875 438.9882507324219 C 304.51678466796875 437.22564697265625 306.03826904296875 436.16180419921875 313.0655212402344 437.2367858886719 C 314.7655029296875 438.8897399902344 313.0965270996094 441.5213928222656 311.47607421875 442.53521728515625 C 307.9173278808594 445.3715515136719 306.6708984375 444.2391357421875 305.2515869140625 444.66009521484375 C 302.8089904785156 441.6576843261719 302.7153625488281 439.7513732910156 304.485107421875 438.9882507324219" stroke-width="0.0" fill="url(#shape_65_fill)"/>
    <path d="M -0.41508275270462036 -0.3914248049259186 C 224.4574432373047 -0.08896701037883759 443.9421081542969 0.41225045919418335 673.0109252929688 0.7039480209350586 C 673.6998291015625 153.01678466796875 674.5863037109375 295.86578369140625 673.5643920898438 445.4924011230469 C 450.4983825683594 446.3222351074219 230.6698455810547 446.2469787597656 0.5745048522949219 445.330322265625 C 0.2523461580276489 296.9841003417969 -0.09944318234920502 148.89031982421875 -0.41508275270462036 -0.3914248049259186" stroke-width="0.0" fill="url(#shape_66_fill)"/>
    <path d="M -0.9860253930091858 -0.14477019011974335 C 222.4811553955078 -0.11274897307157516 443.38775634765625 0.3537070155143738 673.0023803710938 0.06799142062664032 C 673.8047485351562 153.2394256591797 674.6425170898438 295.205322265625 673.2828369140625 445.3934631347656 C 450.7236633300781 446.4051818847656 230.81039428710938 446.298583984375 0.706441342830658 445.2332763671875 C 0.18263137340545654 297.01165771484375 -0.231276735663414 148.76353454589844 -0.9860253930091858 -0.14477019011974335" stroke-width="0.0" fill="url(#shape_67_fill)"/>
    <path d="M -0.6411839127540588 -0.18343015015125275 C 222.76966857910156 -0.10771150141954422 442.474365234375 0.4875282943248749 673.0083618164062 -0.16811592876911163 C 673.7991333007812 153.22219848632812 674.6419677734375 295.2093200683594 673.2880859375 445.3968505859375 C 450.7496032714844 446.40667724609375 230.8539276123047 446.29779052734375 1.2624818086624146 445.2103576660156 C 0.5130459070205688 295.5575866699219 0.06862742453813553 148.4968719482422 -0.6411839127540588 -0.18343015015125275" stroke-width="0.0" fill="url(#shape_68_fill)"/>
  </g>
</svg>
