<?xml version="1.0" ?>
<svg xmlns="http://www.w3.org/2000/svg" version="1.1" width="674" height="446">
  <defs>
    <radialGradient id="shape_0_fill" cx="0.5381250126779257" cy="0.7439983692938972" r="0.27540135595848014">
      <stop offset="0.5018833" stop-color="rgb(227, 239, 0)" stop-opacity="1.0"/>
      <stop offset="1.0" stop-color="rgb(72, 36, 0)" stop-opacity="1.0"/>
    </radialGradient>
    <radialGradient id="shape_1_fill" cx="0.5390089810425167" cy="0.7466451875832049" r="0.20555275484079424">
      <stop offset="0.7568449" stop-color="rgb(93, 103, 45)" stop-opacity="0.9786898493766785"/>
      <stop offset="1.0" stop-color="rgb(28, 3, 0)" stop-opacity="0.7997748851776123"/>
    </radialGradient>
    <radialGradient id="shape_2_fill" cx="0.09792284866468842" cy="0.7376681614349776" r="0.22062588021026522">
      <stop offset="4.2781397e-05" stop-color="rgb(30, 90, 182)" stop-opacity="0.9999357461929321"/>
      <stop offset="1.0" stop-color="rgb(3, 119, 255)" stop-opacity="0.9827502965927124"/>
    </radialGradient>
    <radialGradient id="shape_3_fill" cx="0.27504060105683187" cy="0.21575207560586288" r="0.12609631229932655">
      <stop offset="0.34820217" stop-color="rgb(151, 207, 7)" stop-opacity="0.9812079071998596"/>
      <stop offset="1.0" stop-color="rgb(50, 52, 0)" stop-opacity="1.0"/>
    </radialGradient>
    <radialGradient id="shape_4_fill" cx="0.1543026706231454" cy="0.9977578475336323" r="0.10288926755639141">
      <stop offset="0.0" stop-color="rgb(81, 79, 86)" stop-opacity="1.0"/>
      <stop offset="1.0" stop-color="rgb(127, 77, 87)" stop-opacity="0.9560856223106384"/>
    </radialGradient>
    <radialGradient id="shape_5_fill" cx="0.1480805484760409" cy="0.23997234122100966" r="0.11810740801983842">
      <stop offset="0.0" stop-color="rgb(255, 255, 255)" stop-opacity="0.6472970843315125"/>
      <stop offset="0.5640893" stop-color="rgb(255, 255, 255)" stop-opacity="0.7183416485786438"/>
    </radialGradient>
    <radialGradient id="shape_6_fill" cx="0.18397626112759644" cy="0.9977578475336323" r="0.0754974885934892">
      <stop offset="0.0" stop-color="rgb(93, 90, 94)" stop-opacity="1.0"/>
      <stop offset="1.0" stop-color="rgb(169, 126, 147)" stop-opacity="0.4137257933616638"/>
    </radialGradient>
    <radialGradient id="shape_7_fill" cx="0.2893175074183976" cy="0.05829596412556054" r="0.08666390552011372">
      <stop offset="0.0" stop-color="rgb(55, 66, 29)" stop-opacity="1.0"/>
      <stop offset="1.0" stop-color="rgb(61, 81, 0)" stop-opacity="0.9938902854919434"/>
    </radialGradient>
    <radialGradient id="shape_8_fill" cx="0.3382789091115889" cy="0.9439461883408071" r="0.06756690277190167">
      <stop offset="0.0" stop-color="rgb(91, 124, 45)" stop-opacity="1.0"/>
      <stop offset="1.0" stop-color="rgb(182, 217, 44)" stop-opacity="0.8440390229225159"/>
    </radialGradient>
    <radialGradient id="shape_9_fill" cx="0.30712166172106825" cy="0.9977578475336323" r="0.0730758406641929">
      <stop offset="0.0" stop-color="rgb(38, 48, 20)" stop-opacity="1.0"/>
      <stop offset="1.0" stop-color="rgb(38, 51, 0)" stop-opacity="1.0"/>
    </radialGradient>
    <radialGradient id="shape_10_fill" cx="0.3056379821958457" cy="0.9977578475336323" r="0.06792919147615971">
      <stop offset="0.0" stop-color="rgb(39, 49, 21)" stop-opacity="1.0"/>
      <stop offset="1.0" stop-color="rgb(49, 51, 0)" stop-opacity="0.8019647598266602"/>
    </radialGradient>
    <radialGradient id="shape_11_fill" cx="0.21810089020771514" cy="0.968609865470852" r="0.06792919147615971">
      <stop offset="0.0" stop-color="rgb(138, 135, 129)" stop-opacity="1.0"/>
      <stop offset="1.0" stop-color="rgb(251, 220, 224)" stop-opacity="0.5196212530136108"/>
    </radialGradient>
    <radialGradient id="shape_12_fill" cx="0.29080118694362017" cy="0.9977578475336323" r="0.07480746985189285">
      <stop offset="0.0" stop-color="rgb(22, 25, 13)" stop-opacity="1.0"/>
      <stop offset="1.0" stop-color="rgb(0, 0, 0)" stop-opacity="1.0"/>
    </radialGradient>
    <radialGradient id="shape_13_fill" cx="0.327893175074184" cy="0.8923766816143498" r="0.06900465877544279">
      <stop offset="0.0" stop-color="rgb(89, 117, 50)" stop-opacity="1.0"/>
      <stop offset="1.0" stop-color="rgb(137, 175, 51)" stop-opacity="1.0"/>
    </radialGradient>
    <radialGradient id="shape_14_fill" cx="0.142433234421365" cy="0.9977578475336323" r="0.06617211022079875">
      <stop offset="0.0" stop-color="rgb(155, 150, 153)" stop-opacity="1.0"/>
      <stop offset="1.0" stop-color="rgb(255, 255, 255)" stop-opacity="0.4701087772846222"/>
    </radialGradient>
    <radialGradient id="shape_15_fill" cx="0.31008902077151335" cy="0.9977578475336323" r="0.06683642786405207">
      <stop offset="0.0" stop-color="rgb(43, 55, 23)" stop-opacity="1.0"/>
      <stop offset="1.0" stop-color="rgb(51, 60, 0)" stop-opacity="0.9134088158607483"/>
    </radialGradient>
    <radialGradient id="shape_16_fill" cx="0.27299703264094954" cy="0.9977578475336323" r="0.08110449363640579">
      <stop offset="0.0" stop-color="rgb(31, 35, 19)" stop-opacity="1.0"/>
      <stop offset="1.0" stop-color="rgb(17, 3, 0)" stop-opacity="1.0"/>
    </radialGradient>
    <radialGradient id="shape_17_fill" cx="0.2893175074183976" cy="0.9977578475336323" r="0.07513486030193747">
      <stop offset="0.0" stop-color="rgb(22, 23, 13)" stop-opacity="1.0"/>
      <stop offset="1.0" stop-color="rgb(0, 0, 0)" stop-opacity="0.39969566464424133"/>
    </radialGradient>
    <radialGradient id="shape_18_fill" cx="0.3293768545994065" cy="0.7556053811659192" r="0.06617211022079875">
      <stop offset="0.0" stop-color="rgb(83, 108, 65)" stop-opacity="1.0"/>
      <stop offset="1.0" stop-color="rgb(117, 158, 67)" stop-opacity="1.0"/>
    </radialGradient>
    <radialGradient id="shape_19_fill" cx="0.3516320474777448" cy="0.9977578475336323" r="0.06617211022079875">
      <stop offset="0.0" stop-color="rgb(95, 135, 39)" stop-opacity="1.0"/>
      <stop offset="1.0" stop-color="rgb(158, 214, 20)" stop-opacity="1.0"/>
    </radialGradient>
    <radialGradient id="shape_20_fill" cx="0.0830860534124629" cy="0.9977578475336323" r="0.06792919147615971">
      <stop offset="0.0" stop-color="rgb(49, 52, 66)" stop-opacity="1.0"/>
      <stop offset="1.0" stop-color="rgb(28, 46, 75)" stop-opacity="0.8344702124595642"/>
    </radialGradient>
    <radialGradient id="shape_21_fill" cx="0.29821958456973297" cy="0.9977578475336323" r="0.06792919147615971">
      <stop offset="0.0" stop-color="rgb(33, 40, 17)" stop-opacity="1.0"/>
      <stop offset="1.0" stop-color="rgb(6, 3, 0)" stop-opacity="0.6440948843955994"/>
    </radialGradient>
    <radialGradient id="shape_22_fill" cx="0.3564320006780879" cy="0.44366506396922295" r="0.06591852906903456">
      <stop offset="0.0" stop-color="rgb(224, 251, 0)" stop-opacity="0.6321724057197571"/>
      <stop offset="0.43416673" stop-color="rgb(183, 219, 16)" stop-opacity="0.8700940012931824"/>
    </radialGradient>
    <radialGradient id="shape_23_fill" cx="0.6454005934718101" cy="0.1412556053811659" r="0.06617211022079875">
      <stop offset="0.0" stop-color="rgb(46, 38, 13)" stop-opacity="1.0"/>
      <stop offset="1.0" stop-color="rgb(39, 0, 0)" stop-opacity="0.9436787962913513"/>
    </radialGradient>
    <radialGradient id="shape_24_fill" cx="0.24925732258873098" cy="0.48430544592339897" r="0.06617138010811735">
      <stop offset="0.0" stop-color="rgb(201, 209, 206)" stop-opacity="1.0"/>
      <stop offset="0.9775417" stop-color="rgb(255, 255, 255)" stop-opacity="0.7586430311203003"/>
    </radialGradient>
    <radialGradient id="shape_25_fill" cx="0.6320474777448071" cy="0.9977578475336323" r="0.06617211022079875">
      <stop offset="0.0" stop-color="rgb(35, 28, 8)" stop-opacity="1.0"/>
      <stop offset="1.0" stop-color="rgb(14, 0, 0)" stop-opacity="0.5747702717781067"/>
    </radialGradient>
    <radialGradient id="shape_26_fill" cx="0.15416804690035585" cy="0.3206960224784543" r="0.066065938253431">
      <stop offset="0.09717688" stop-color="rgb(197, 210, 153)" stop-opacity="1.0"/>
      <stop offset="0.60964584" stop-color="rgb(152, 150, 255)" stop-opacity="0.2020198404788971"/>
    </radialGradient>
    <radialGradient id="shape_27_fill" cx="0.15410800786683396" cy="0.32080197868860355" r="0.06604597052056287">
      <stop offset="0.0" stop-color="rgb(192, 204, 0)" stop-opacity="1.0"/>
      <stop offset="0.497932" stop-color="rgb(136, 125, 45)" stop-opacity="0.6924487948417664"/>
    </radialGradient>
    <radialGradient id="shape_28_fill" cx="0.04112221579169661" cy="0.021790363328873845" r="0.06635782485192183">
      <stop offset="0.15213068" stop-color="rgb(0, 13, 97)" stop-opacity="0.9879410862922668"/>
      <stop offset="0.7155353" stop-color="rgb(0, 33, 114)" stop-opacity="0.8282840251922607"/>
    </radialGradient>
    <radialGradient id="shape_29_fill" cx="0.33976258863681147" cy="0.6659192825112108" r="0.06617211022079875">
      <stop offset="0.0" stop-color="rgb(90, 117, 55)" stop-opacity="1.0"/>
      <stop offset="1.0" stop-color="rgb(134, 171, 45)" stop-opacity="1.0"/>
    </radialGradient>
    <radialGradient id="shape_30_fill" cx="0.04108687607400142" cy="0.02029501910701461" r="0.06656133385723352">
      <stop offset="0.4036985" stop-color="rgb(31, 68, 43)" stop-opacity="0.8665993213653564"/>
      <stop offset="0.9972096" stop-color="rgb(19, 51, 54)" stop-opacity="0.7941768765449524"/>
    </radialGradient>
    <radialGradient id="shape_31_fill" cx="0.12314540059347182" cy="0.9977578475336323" r="0.06617211022079875">
      <stop offset="0.0" stop-color="rgb(95, 103, 98)" stop-opacity="1.0"/>
      <stop offset="1.0" stop-color="rgb(188, 168, 167)" stop-opacity="0.5995804667472839"/>
    </radialGradient>
    <radialGradient id="shape_32_fill" cx="0.4035608308605341" cy="0.984304932735426" r="0.06617211022079875">
      <stop offset="0.0" stop-color="rgb(126, 155, 63)" stop-opacity="1.0"/>
      <stop offset="1.0" stop-color="rgb(189, 195, 19)" stop-opacity="1.0"/>
    </radialGradient>
    <radialGradient id="shape_33_fill" cx="0.3249258160237389" cy="0.6053811659192825" r="0.06617211022079875">
      <stop offset="0.0" stop-color="rgb(93, 124, 71)" stop-opacity="1.0"/>
      <stop offset="1.0" stop-color="rgb(151, 171, 48)" stop-opacity="1.0"/>
    </radialGradient>
    <radialGradient id="shape_34_fill" cx="0.6468842729970327" cy="0.531390134529148" r="0.06617211022079875">
      <stop offset="0.0" stop-color="rgb(54, 47, 24)" stop-opacity="1.0"/>
      <stop offset="1.0" stop-color="rgb(61, 43, 0)" stop-opacity="0.8922353386878967"/>
    </radialGradient>
    <radialGradient id="shape_35_fill" cx="0.1422147892349198" cy="0.23406765172299782" r="0.0662242991280485">
      <stop offset="0.028917663" stop-color="rgb(127, 215, 0)" stop-opacity="0.2828640937805176"/>
      <stop offset="0.40448555" stop-color="rgb(199, 220, 0)" stop-opacity="0.2709316313266754"/>
    </radialGradient>
    <radialGradient id="shape_36_fill" cx="0.2878338278931751" cy="0.9977578475336323" r="0.06617211022079875">
      <stop offset="0.0" stop-color="rgb(80, 96, 53)" stop-opacity="1.0"/>
      <stop offset="1.0" stop-color="rgb(79, 77, 73)" stop-opacity="1.0"/>
    </radialGradient>
    <radialGradient id="shape_37_fill" cx="0.129080118694362" cy="0.9977578475336323" r="0.06617211022079875">
      <stop offset="0.0" stop-color="rgb(87, 97, 81)" stop-opacity="1.0"/>
      <stop offset="1.0" stop-color="rgb(131, 124, 65)" stop-opacity="0.9516075253486633"/>
    </radialGradient>
    <radialGradient id="shape_38_fill" cx="0.338912329970906" cy="0.5607684011416585" r="0.06668238540785248">
      <stop offset="0.7158262" stop-color="rgb(78, 108, 19)" stop-opacity="0.9348728060722351"/>
      <stop offset="0.6356754" stop-color="rgb(152, 255, 11)" stop-opacity="0.9706650972366333"/>
    </radialGradient>
    <radialGradient id="shape_39_fill" cx="0.40059347181008903" cy="0.9641255605381166" r="0.06617211022079875">
      <stop offset="0.0" stop-color="rgb(138, 168, 60)" stop-opacity="1.0"/>
      <stop offset="1.0" stop-color="rgb(244, 255, 75)" stop-opacity="0.9841762185096741"/>
    </radialGradient>
    <radialGradient id="shape_40_fill" cx="0.6172492596091432" cy="0.8833710537897632" r="0.06614848060494714">
      <stop offset="0.0" stop-color="rgb(0, 0, 0)" stop-opacity="1.0"/>
      <stop offset="0.7063753" stop-color="rgb(0, 0, 0)" stop-opacity="1.0"/>
    </radialGradient>
    <radialGradient id="shape_41_fill" cx="0.6454005934718101" cy="0.08744394618834081" r="0.06617211022079875">
      <stop offset="0.0" stop-color="rgb(58, 48, 21)" stop-opacity="1.0"/>
      <stop offset="1.0" stop-color="rgb(72, 46, 0)" stop-opacity="0.9957693219184875"/>
    </radialGradient>
    <radialGradient id="shape_42_fill" cx="0.5845697329376854" cy="0.6188340807174888" r="0.06617211022079875">
      <stop offset="0.0" stop-color="rgb(62, 59, 56)" stop-opacity="1.0"/>
      <stop offset="1.0" stop-color="rgb(35, 26, 56)" stop-opacity="0.8515942692756653"/>
    </radialGradient>
    <radialGradient id="shape_43_fill" cx="0.35748184611606315" cy="0.5068619732364945" r="0.06634189254806021">
      <stop offset="0.28115058" stop-color="rgb(170, 208, 30)" stop-opacity="1.0"/>
      <stop offset="0.72854453" stop-color="rgb(182, 242, 22)" stop-opacity="0.9812561869621277"/>
    </radialGradient>
    <radialGradient id="shape_44_fill" cx="0.5934718100890207" cy="0.9977578475336323" r="0.06617211022079875">
      <stop offset="0.0" stop-color="rgb(89, 61, 18)" stop-opacity="1.0"/>
      <stop offset="1.0" stop-color="rgb(168, 78, 0)" stop-opacity="0.6762086749076843"/>
    </radialGradient>
    <radialGradient id="shape_45_fill" cx="0.612759643916914" cy="0.04035874439461883" r="0.06617211022079875">
      <stop offset="0.0" stop-color="rgb(157, 136, 123)" stop-opacity="1.0"/>
      <stop offset="1.0" stop-color="rgb(255, 224, 192)" stop-opacity="1.0"/>
    </radialGradient>
    <radialGradient id="shape_46_fill" cx="0.28635014836795253" cy="0.9977578475336323" r="0.06617211022079875">
      <stop offset="0.0" stop-color="rgb(82, 99, 55)" stop-opacity="1.0"/>
      <stop offset="1.0" stop-color="rgb(131, 142, 32)" stop-opacity="0.2238996922969818"/>
    </radialGradient>
    <radialGradient id="shape_47_fill" cx="0.28635014836795253" cy="0.8183856502242153" r="0.06617211022079875">
      <stop offset="0.0" stop-color="rgb(166, 189, 197)" stop-opacity="1.0"/>
      <stop offset="1.0" stop-color="rgb(255, 255, 255)" stop-opacity="0.6515438556671143"/>
    </radialGradient>
    <radialGradient id="shape_48_fill" cx="0.40801186943620177" cy="0.9977578475336323" r="0.06617211022079875">
      <stop offset="0.0" stop-color="rgb(107, 135, 68)" stop-opacity="1.0"/>
      <stop offset="1.0" stop-color="rgb(161, 175, 58)" stop-opacity="1.0"/>
    </radialGradient>
    <radialGradient id="shape_49_fill" cx="0.19287833827893175" cy="0.3991031390134529" r="0.06617211022079875">
      <stop offset="0.0" stop-color="rgb(92, 100, 54)" stop-opacity="1.0"/>
      <stop offset="1.0" stop-color="rgb(173, 159, 45)" stop-opacity="0.5781647562980652"/>
    </radialGradient>
    <radialGradient id="shape_50_fill" cx="0.6439169139465876" cy="0.7376681614349776" r="0.06617211022079875">
      <stop offset="0.0" stop-color="rgb(65, 56, 25)" stop-opacity="1.0"/>
      <stop offset="1.0" stop-color="rgb(121, 182, 39)" stop-opacity="0.5856344699859619"/>
    </radialGradient>
    <radialGradient id="shape_51_fill" cx="0.5845697329376854" cy="0.6322869955156951" r="0.06617211022079875">
      <stop offset="0.0" stop-color="rgb(75, 68, 60)" stop-opacity="1.0"/>
      <stop offset="1.0" stop-color="rgb(112, 102, 87)" stop-opacity="0.8457894921302795"/>
    </radialGradient>
    <radialGradient id="shape_52_fill" cx="0.2997032640949555" cy="0.6031390134529148" r="0.06617211022079875">
      <stop offset="0.0" stop-color="rgb(107, 158, 118)" stop-opacity="1.0"/>
      <stop offset="1.0" stop-color="rgb(197, 255, 211)" stop-opacity="0.7952040433883667"/>
    </radialGradient>
    <radialGradient id="shape_53_fill" cx="0.6097922848664689" cy="0.45067264573991034" r="0.06617211022079875">
      <stop offset="0.0" stop-color="rgb(38, 39, 27)" stop-opacity="1.0"/>
      <stop offset="1.0" stop-color="rgb(29, 4, 0)" stop-opacity="0.5403308272361755"/>
    </radialGradient>
    <radialGradient id="shape_54_fill" cx="0.6335311572700296" cy="0.426009002822397" r="0.06617211022079875">
      <stop offset="0.0" stop-color="rgb(67, 49, 20)" stop-opacity="1.0"/>
      <stop offset="1.0" stop-color="rgb(94, 40, 0)" stop-opacity="0.8103500008583069"/>
    </radialGradient>
    <radialGradient id="shape_55_fill" cx="0.3705354911283499" cy="0.5990298831409403" r="0.06596979543080315">
      <stop offset="0.00565771" stop-color="rgb(255, 255, 17)" stop-opacity="0.9067184329032898"/>
      <stop offset="0.27635473" stop-color="rgb(234, 255, 25)" stop-opacity="0.872351884841919"/>
    </radialGradient>
    <radialGradient id="shape_56_fill" cx="0.5489614243323442" cy="0.600896860986547" r="0.06617211022079875">
      <stop offset="0.0" stop-color="rgb(50, 62, 80)" stop-opacity="1.0"/>
      <stop offset="1.0" stop-color="rgb(32, 58, 140)" stop-opacity="0.7386115789413452"/>
    </radialGradient>
    <radialGradient id="shape_57_fill" cx="0.4094955489614243" cy="0.9035874439461884" r="0.06617211022079875">
      <stop offset="0.0" stop-color="rgb(111, 144, 47)" stop-opacity="1.0"/>
      <stop offset="1.0" stop-color="rgb(185, 216, 31)" stop-opacity="0.9657812714576721"/>
    </radialGradient>
    <radialGradient id="shape_58_fill" cx="0.5281899109792285" cy="0.9977578475336323" r="0.06617211022079875">
      <stop offset="0.0" stop-color="rgb(50, 43, 14)" stop-opacity="1.0"/>
      <stop offset="1.0" stop-color="rgb(61, 18, 0)" stop-opacity="0.9731025099754333"/>
    </radialGradient>
    <radialGradient id="shape_59_fill" cx="0.5845697329376854" cy="0.7690582959641256" r="0.06617211022079875">
      <stop offset="0.0" stop-color="rgb(61, 63, 58)" stop-opacity="1.0"/>
      <stop offset="1.0" stop-color="rgb(75, 70, 84)" stop-opacity="0.7446785569190979"/>
    </radialGradient>
    <radialGradient id="shape_60_fill" cx="0.5489614243323442" cy="0.9977578475336323" r="0.06617211022079875">
      <stop offset="0.0" stop-color="rgb(140, 131, 64)" stop-opacity="1.0"/>
      <stop offset="1.0" stop-color="rgb(251, 201, 77)" stop-opacity="0.9187480807304382"/>
    </radialGradient>
    <radialGradient id="shape_61_fill" cx="0.6468833674309161" cy="0.9686094549204737" r="0.06617292523030358">
      <stop offset="0.16095728" stop-color="rgb(255, 174, 0)" stop-opacity="1.0"/>
      <stop offset="0.99541104" stop-color="rgb(255, 170, 0)" stop-opacity="1.0"/>
    </radialGradient>
    <radialGradient id="shape_62_fill" cx="0.615727002967359" cy="0.3991031390134529" r="0.06617211022079875">
      <stop offset="0.0" stop-color="rgb(55, 47, 13)" stop-opacity="1.0"/>
      <stop offset="1.0" stop-color="rgb(66, 36, 0)" stop-opacity="0.9745187759399414"/>
    </radialGradient>
    <radialGradient id="shape_63_fill" cx="0.6261127596439169" cy="0.7286995515695067" r="0.06617211022079875">
      <stop offset="0.0" stop-color="rgb(79, 66, 32)" stop-opacity="1.0"/>
      <stop offset="1.0" stop-color="rgb(230, 232, 68)" stop-opacity="0.8462070822715759"/>
    </radialGradient>
    <radialGradient id="shape_64_fill" cx="0.40801186943620177" cy="0.12556053811659193" r="0.06617211022079875">
      <stop offset="0.0" stop-color="rgb(76, 66, 59)" stop-opacity="1.0"/>
      <stop offset="1.0" stop-color="rgb(95, 82, 73)" stop-opacity="1.0"/>
    </radialGradient>
    <radialGradient id="shape_65_fill" cx="0.6528189910979229" cy="0.6883408071748879" r="0.06617211022079875">
      <stop offset="0.0" stop-color="rgb(121, 97, 39)" stop-opacity="1.0"/>
      <stop offset="1.0" stop-color="rgb(255, 255, 69)" stop-opacity="1.0"/>
    </radialGradient>
    <radialGradient id="shape_66_fill" cx="0.6499594396936433" cy="0.46074895473873667" r="0.06708994109835752">
      <stop offset="0.50792474" stop-color="rgb(168, 207, 0)" stop-opacity="0.31512966752052307"/>
      <stop offset="1.0" stop-color="rgb(17, 8, 0)" stop-opacity="0.06768064200878143"/>
    </radialGradient>
    <radialGradient id="shape_67_fill" cx="0.593295043583086" cy="0.9956513135422506" r="0.06767988346450761">
      <stop offset="0.88736326" stop-color="rgb(53, 35, 0)" stop-opacity="0.8316895365715027"/>
      <stop offset="1.0" stop-color="rgb(6, 13, 0)" stop-opacity="0.16154931485652924"/>
    </radialGradient>
    <radialGradient id="shape_68_fill" cx="0.4881782418542517" cy="0.9964793252303461" r="0.06731031627258845">
      <stop offset="0.456477" stop-color="rgb(48, 35, 31)" stop-opacity="0.7698369026184082"/>
      <stop offset="1.0" stop-color="rgb(56, 74, 72)" stop-opacity="0.3815913796424866"/>
    </radialGradient>
  </defs>
  <g>
    <path d="M -0.26463454961776733 271.18328857421875 C 25.718215942382812 270.4289855957031 34.632598876953125 271.3992004394531 44.624290466308594 273.5008850097656 C 48.061832427978516 275.23272705078125 49.36713409423828 276.6955871582031 57.16413116455078 274.5345458984375 C 60.52559280395508 273.9216613769531 63.80908966064453 274.5434875488281 65.8379135131836 274.9695739746094 C 73.93549346923828 272.7320861816406 103.59427642822266 272.3997802734375 112.91093444824219 273.02410888671875 C 115.62053680419922 277.0766296386719 126.80471801757812 277.33380126953125 127.12120819091797 280.74627685546875 C 134.34523010253906 281.80523681640625 140.88453674316406 281.0520324707031 148.95632934570312 281.994873046875 C 185.26214599609375 281.7650146484375 185.7537078857422 282.5226135253906 204.29127502441406 284.01580810546875 C 200.6929473876953 290.5784606933594 199.3235626220703 283.0587158203125 217.85577392578125 277.408447265625 C 238.54214477539062 278.7398376464844 281.3116455078125 278.0635681152344 305.1622619628906 283.5034484863281 C 337.7248229980469 285.4254150390625 416.31256103515625 284.9847717285156 457.023193359375 282.8117370605469 C 483.5080871582031 282.5088195800781 532.7277221679688 284.1520080566406 540.5658569335938 286.6792907714844 C 549.348388671875 286.92626953125 550.9178466796875 283.44964599609375 561.6002197265625 281.79046630859375 C 571.74462890625 285.26641845703125 610.3981323242188 286.43743896484375 614.4421997070312 286.5896301269531 C 637.8681640625 281.75628662109375 647.8919067382812 282.3754577636719 660.3568115234375 282.331298828125 C 665.086669921875 283.3471374511719 670.5130615234375 288.0075988769531 672.9147338867188 292.1485290527344 C 674.9256591796875 340.199951171875 674.3599243164062 392.29376220703125 674.5508422851562 445.4079895019531 C 451.5504150390625 445.815673828125 229.1421356201172 445.8793029785156 0.029807936400175095 445.4761962890625 C -0.39343342185020447 389.1347961425781 0.2752649486064911 332.3596496582031 -0.26463454961776733 271.18328857421875" stroke-width="0.0" fill="url(#shape_0_fill)"/>
    <path d="M -0.012590683996677399 271.8802185058594 C 35.933231353759766 275.39984130859375 36.55742645263672 274.5913391113281 44.46864700317383 276.4692687988281 C 56.08729553222656 275.2424621582031 67.52240753173828 274.0947265625 77.20484924316406 274.7044677734375 C 113.42467498779297 278.68212890625 114.00189208984375 279.3115539550781 125.97550964355469 279.8930969238281 C 129.65835571289062 279.18109130859375 153.93080139160156 279.33160400390625 157.13575744628906 278.2552185058594 C 185.03585815429688 277.3789978027344 185.5807647705078 279.06866455078125 199.66517639160156 280.899658203125 C 202.55606079101562 291.6069641113281 205.01058959960938 291.0251159667969 220.6222381591797 289.1063537597656 C 225.73057556152344 287.9747009277344 277.943115234375 289.5462951660156 298.719482421875 290.5318298339844 C 328.0755310058594 292.2793884277344 444.2038269042969 290.07244873046875 449.4903259277344 290.2275390625 C 469.864990234375 289.3558349609375 486.3567810058594 290.00897216796875 504.3878479003906 287.2644958496094 C 508.5186767578125 287.10247802734375 516.488525390625 285.94366455078125 522.8093872070312 286.40069580078125 C 527.530517578125 285.6687927246094 531.8878173828125 285.86474609375 535.1478271484375 286.9943542480469 C 543.962158203125 286.6554870605469 551.5480346679688 287.7580261230469 559.4901123046875 289.78350830078125 C 569.5022583007812 286.9918212890625 579.3865356445312 287.9328308105469 587.16162109375 289.23895263671875 C 604.64501953125 288.52349853515625 618.5899047851562 287.7955017089844 631.5706176757812 288.2718811035156 C 645.884765625 283.4076232910156 658.2031860351562 287.0172424316406 674.2282104492188 288.7221984863281 C 673.8129272460938 340.8739013671875 674.4092407226562 392.30413818359375 674.1441040039062 446.2807922363281 C 451.4774169921875 446.3905334472656 229.19664001464844 446.25439453125 -0.3075912892818451 446.2476501464844 C -0.21351075172424316 389.4035949707031 -0.2935056984424591 333.02880859375 -0.012590683996677399 271.8802185058594" stroke-width="0.0" fill="url(#shape_1_fill)"/>
    <path d="M -0.18482078611850739 -0.2598406672477722 C 219.69313049316406 0.10386400669813156 439.478759765625 -0.4519139528274536 670.0003051757812 -0.3469230532646179 C 662.2055053710938 7.804233074188232 645.1696166992188 35.96623611450195 637.7276611328125 47.65970993041992 C 636.8475341796875 54.9002685546875 612.281005859375 94.65727996826172 585.6361694335938 84.31890869140625 C 578.6760864257812 81.057861328125 558.3445434570312 71.24840545654297 532.1849365234375 72.7318344116211 C 531.44970703125 74.14469909667969 525.3936157226562 76.34764862060547 523.0963134765625 71.361083984375 C 522.79931640625 68.21973419189453 501.2229309082031 62.17279815673828 500.2342224121094 62.19037628173828 C 492.1894226074219 61.88654327392578 485.5771179199219 60.64189529418945 480.78509521484375 68.49220275878906 C 474.50518798828125 69.5231704711914 474.78350830078125 73.64054870605469 474.7100524902344 77.63035583496094 C 477.0777587890625 90.55008697509766 467.20355224609375 106.7022705078125 463.0083923339844 111.3663558959961 C 458.1783142089844 113.13642120361328 452.8719177246094 111.46803283691406 451.423583984375 109.32831573486328 C 436.99884033203125 106.34578704833984 411.2272033691406 103.02814483642578 410.4494934082031 105.1579818725586 C 406.02642822265625 115.86620330810547 405.95977783203125 120.35478210449219 402.6157531738281 126.66393280029297 C 400.7254943847656 134.9435272216797 393.5559387207031 137.90834045410156 389.7040100097656 138.6947479248047 C 378.947998046875 141.39883422851562 375.3851013183594 158.09317016601562 373.682861328125 159.9364013671875 C 373.08380126953125 165.763916015625 371.8861389160156 169.86093139648438 368.4247131347656 174.42408752441406 C 366.32269287109375 176.76913452148438 363.019287109375 175.8764190673828 353.2243957519531 180.8588409423828 C 346.6999206542969 188.5548858642578 336.4332580566406 179.92764282226562 325.3299865722656 177.6456756591797 C 311.2486877441406 178.10577392578125 310.6482238769531 184.50729370117188 308.9477233886719 187.1209716796875 C 308.0342102050781 191.81565856933594 306.0770568847656 194.1914825439453 307.75152587890625 201.3563995361328 C 307.17431640625 201.07032775878906 304.7210998535156 199.2048797607422 304.11297607421875 194.69717407226562 C 301.211181640625 192.25714111328125 296.87774658203125 193.28318786621094 289.9093933105469 188.5959930419922 C 291.62353515625 193.68099975585938 290.0625 196.4493408203125 289.06292724609375 196.39244079589844 C 284.50390625 193.1931915283203 282.8595275878906 188.35562133789062 282.2005920410156 187.77456665039062 C 273.54730224609375 188.7245635986328 272.1485290527344 190.9512939453125 267.61090087890625 188.88095092773438 C 261.19451904296875 188.62709045410156 260.8077697753906 193.85366821289062 260.0675964355469 197.69967651367188 C 261.03955078125 199.2327423095703 260.7224426269531 200.7522735595703 257.69989013671875 200.78953552246094 C 256.94232177734375 200.69009399414062 251.27281188964844 200.0411834716797 250.9297332763672 197.17918395996094 C 249.77552795410156 191.78013610839844 250.57713317871094 189.93055725097656 247.1492919921875 178.12440490722656 C 251.20864868164062 172.08612060546875 216.2122344970703 141.92276000976562 214.43341064453125 139.50254821777344 C 184.0508575439453 122.30778503417969 195.25064086914062 100.63127899169922 192.24853515625 89.07247924804688 C 193.83554077148438 83.71198272705078 157.39263916015625 72.29835510253906 143.40786743164062 65.72776794433594 C 119.83173370361328 39.50721740722656 65.92756652832031 52.915443420410156 36.795955657958984 62.82658767700195 C 16.19102668762207 70.18556213378906 12.430685997009277 68.92384338378906 -0.18875639140605927 70.00886535644531 C 0.33887118101119995 43.9860954284668 -0.33319416642189026 22.570209503173828 -0.18482078611850739 -0.2598406672477722" stroke-width="0.0" fill="url(#shape_2_fill)"/>
    <path d="M 86.22229766845703 67.96717834472656 C 88.37734985351562 69.4028549194336 92.50740051269531 68.59439086914062 93.77281951904297 69.11521911621094 C 90.80528259277344 77.83234405517578 91.63709259033203 82.6366195678711 91.39940643310547 84.96263885498047 C 96.27271270751953 83.2672119140625 97.4780044555664 85.81398010253906 103.41519165039062 86.90111541748047 C 103.05126953125 76.59319305419922 105.2897720336914 74.9785385131836 109.23029327392578 76.299072265625 C 111.80879974365234 87.60486602783203 112.115966796875 94.33430480957031 115.80293273925781 99.53264617919922 C 116.73635864257812 100.07975006103516 116.78015899658203 108.54810333251953 115.56987762451172 115.9869384765625 C 124.6817398071289 114.73238372802734 128.9185791015625 114.45773315429688 129.33718872070312 111.89832305908203 C 129.44760131835938 107.86571502685547 136.25881958007812 106.4342269897461 136.44232177734375 104.43608093261719 C 136.59608459472656 103.69448852539062 135.52859497070312 101.79386901855469 136.99610900878906 97.98836517333984 C 136.44830322265625 93.25323486328125 137.46421813964844 92.87229919433594 137.1132049560547 88.93065643310547 C 137.26983642578125 84.85214233398438 138.6117401123047 84.73754119873047 139.0295867919922 85.6498794555664 C 139.67950439453125 82.0400161743164 146.60708618164062 80.69305419921875 147.878173828125 83.73841094970703 C 147.66168212890625 87.7907943725586 151.11679077148438 95.57086944580078 152.1239013671875 98.96984100341797 C 153.45083618164062 103.07058715820312 149.93243408203125 106.89429473876953 148.8194580078125 106.66851043701172 C 152.8488006591797 110.01591491699219 150.7716827392578 114.21935272216797 148.67266845703125 113.4904556274414 C 155.07640075683594 112.65446472167969 158.346435546875 122.50784301757812 158.13731384277344 123.04025268554688 C 161.96055603027344 124.69477844238281 164.82635498046875 123.33330535888672 169.97486877441406 123.01390075683594 C 175.00636291503906 119.3544692993164 175.23374938964844 121.63803100585938 177.56466674804688 122.53922271728516 C 179.31143188476562 122.68485260009766 179.88589477539062 125.5591049194336 182.5684051513672 127.82677459716797 C 183.83627319335938 130.22918701171875 182.38818359375 133.14715576171875 183.23841857910156 135.68739318847656 C 186.1737060546875 135.41973876953125 187.68997192382812 142.95018005371094 188.7660675048828 145.01669311523438 C 193.04075622558594 145.49417114257812 204.5286102294922 157.62161254882812 202.8384246826172 172.88372802734375 C 205.55886840820312 173.9369354248047 204.949951171875 177.90809631347656 205.35882568359375 183.01171875 C 211.10105895996094 182.10092163085938 215.72872924804688 199.62005615234375 211.84190368652344 203.60043334960938 C 208.3242645263672 207.19454956054688 203.45281982421875 208.1533966064453 203.13717651367188 210.2996063232422 C 200.80291748046875 210.5370635986328 199.91671752929688 211.69039916992188 200.29673767089844 213.6500701904297 C 196.54180908203125 216.00587463378906 194.14599609375 215.77040100097656 192.23316955566406 219.8274688720703 C 184.28944396972656 221.11175537109375 183.60684204101562 224.80418395996094 179.0462188720703 230.51512145996094 C 176.1689453125 233.6286163330078 179.18067932128906 240.02828979492188 180.07427978515625 243.0548858642578 C 180.24708557128906 251.03768920898438 184.82717895507812 259.1593322753906 176.97079467773438 264.14691162109375 C 173.9443817138672 267.88916015625 148.6349334716797 267.98486328125 139.1819610595703 270.16156005859375 C 128.7772216796875 266.9582824707031 123.8697738647461 268.8940124511719 116.12080383300781 271.3040466308594 C 108.5940933227539 276.3203125 73.37579345703125 275.2486572265625 73.49250030517578 269.7722473144531 C 47.624107360839844 266.7000732421875 56.48952102661133 268.5451965332031 56.436256408691406 273.4973449707031 C 45.67817687988281 276.8611755371094 0.5026516914367676 274.4653015136719 0.41840246319770813 271.3586120605469 C -2.3071794509887695 218.66229248046875 -1.6413195133209229 166.82186889648438 -1.702712893486023 116.21367645263672 C 8.847590446472168 118.57833099365234 16.640117645263672 118.84825897216797 24.36864471435547 125.43396759033203 C 30.64274787902832 126.93944549560547 36.705684661865234 127.98181915283203 40.93669891357422 131.4607391357422 C 46.67087936401367 131.72940063476562 46.5660514831543 137.08140563964844 49.60912322998047 140.21739196777344 C 50.72395706176758 143.84588623046875 61.84860610961914 145.04141235351562 62.57620620727539 142.9675750732422 C 62.05466079711914 136.67955017089844 63.02004623413086 133.81707763671875 62.86140441894531 127.21142578125 C 68.31777954101562 125.3355484008789 67.44139099121094 121.77478790283203 65.64728546142578 112.38422393798828 C 67.53502655029297 110.99526977539062 68.02143096923828 105.29991912841797 75.9024887084961 104.60687255859375 C 75.7806625366211 103.36726379394531 77.35832214355469 91.37315368652344 75.90580749511719 85.29193115234375 C 78.16786193847656 84.18701171875 79.24980926513672 73.48432159423828 84.60711669921875 73.98945617675781 C 82.85369110107422 70.17081451416016 84.83690643310547 67.65623474121094 86.22229766845703 67.96717834472656" stroke-width="0.0" fill="url(#shape_3_fill)"/>
    <path d="M 673.0969848632812 0.28429239988327026 C 675.13623046875 48.61034393310547 674.6666870117188 96.07513427734375 675.9671020507812 143.71475219726562 C 669.6159057617188 135.68386840820312 664.5782470703125 128.42889404296875 661.688720703125 120.27264404296875 C 661.0405883789062 119.82188415527344 655.2241821289062 109.2742919921875 649.4113159179688 110.8849868774414 C 648.3953857421875 112.49720001220703 643.501220703125 146.6112060546875 640.494140625 152.92234802246094 C 632.2555541992188 154.043701171875 627.3728637695312 141.377685546875 627.8214111328125 138.1711883544922 C 622.9412231445312 137.3276824951172 618.6329956054688 145.30172729492188 615.392822265625 143.8019561767578 C 611.5903930664062 142.20919799804688 610.2205200195312 143.609375 607.8618774414062 140.98011779785156 C 607.4735717773438 137.36647033691406 608.5007934570312 133.0823211669922 604.9954223632812 126.23455810546875 C 598.0969848632812 133.67726135253906 597.5969848632812 139.44505310058594 595.1543579101562 144.4237060546875 C 595.4072875976562 148.77903747558594 594.1561889648438 150.9619903564453 594.9406127929688 153.65609741210938 C 589.467041015625 157.5946502685547 587.7125854492188 164.57278442382812 581.002197265625 170.3964385986328 C 571.4659423828125 170.1309051513672 569.6713256835938 160.47569274902344 568.9910278320312 157.43222045898438 C 566.3532104492188 157.13555908203125 564.2608032226562 153.32122802734375 561.4232177734375 153.69699096679688 C 559.9947509765625 150.73594665527344 555.03515625 150.3789825439453 554.0647583007812 153.7992706298828 C 551.48828125 155.65802001953125 550.845458984375 159.21356201171875 548.7835693359375 160.68722534179688 C 546.3509521484375 158.59323120117188 541.7774047851562 160.3966522216797 535.8757934570312 154.49618530273438 C 531.6974487304688 154.6729278564453 529.8778076171875 157.8169708251953 524.1439208984375 157.70530700683594 C 518.0254516601562 161.196044921875 520.8660888671875 161.39903259277344 522.6129760742188 169.88528442382812 C 517.4900512695312 169.97874450683594 515.864501953125 165.18624877929688 516.5872192382812 171.1517333984375 C 510.74139404296875 173.33714294433594 510.6202087402344 175.25570678710938 505.6283874511719 174.3714599609375 C 503.08758544921875 171.23486328125 502.9112548828125 169.63514709472656 502.4017333984375 165.7991180419922 C 497.6802978515625 149.60562133789062 511.6942443847656 125.4561538696289 521.199462890625 128.07305908203125 C 522.4827880859375 123.13455963134766 536.6782836914062 111.70442199707031 548.3853149414062 112.7168960571289 C 558.2788696289062 110.42532348632812 556.1703491210938 109.68508911132812 556.1790161132812 105.80857849121094 C 561.5540771484375 106.85470581054688 565.7532348632812 103.31344604492188 571.7449951171875 105.28111267089844 C 574.708740234375 102.78655242919922 573.4500732421875 97.50714111328125 578.885009765625 94.11933898925781 C 580.2610473632812 87.68650817871094 600.985107421875 78.68860626220703 613.0718994140625 78.46822357177734 C 615.9572143554688 72.62803649902344 642.848876953125 50.149444580078125 644.0297241210938 35.27729034423828 C 644.9511108398438 32.42533874511719 647.9837646484375 30.377986907958984 647.5964965820312 29.49678611755371 C 646.7752075195312 28.24245262145996 663.6830444335938 -3.7172694206237793 673.0969848632812 0.28429239988327026" stroke-width="0.0" fill="url(#shape_4_fill)"/>
    <path d="M 151.61495971679688 68.58938598632812 C 152.32467651367188 68.96336364746094 187.15911865234375 83.173583984375 192.7860565185547 91.09720611572266 C 179.65353393554688 116.52305603027344 216.20761108398438 152.62356567382812 220.6416473388672 155.02830505371094 C 238.89686584472656 169.8411865234375 242.70535278320312 184.75857543945312 240.7596893310547 193.97352600097656 C 237.66845703125 193.98089599609375 236.72901916503906 185.79632568359375 236.76528930664062 184.0515594482422 C 235.6697998046875 183.60801696777344 234.16156005859375 184.27880859375 231.10992431640625 182.7496795654297 C 231.9696807861328 183.29757690429688 230.6883087158203 192.5160369873047 228.0174560546875 196.0875701904297 C 227.94808959960938 196.1354522705078 227.16390991210938 205.3197479248047 221.2871856689453 207.7548370361328 C 215.03414916992188 206.6114501953125 214.2571563720703 198.02932739257812 214.65208435058594 194.8609161376953 C 212.9605712890625 185.43385314941406 211.8983154296875 184.94131469726562 206.35604858398438 177.5996856689453 C 204.46417236328125 172.3305206298828 205.92222595214844 165.41717529296875 205.67681884765625 159.68540954589844 C 206.18186950683594 153.83953857421875 196.11196899414062 143.46180725097656 192.6490936279297 141.756103515625 C 189.04196166992188 140.3387451171875 188.7755584716797 137.86300659179688 187.77525329589844 134.1477508544922 C 181.87356567382812 130.64169311523438 182.862060546875 123.59091186523438 183.48916625976562 118.06694030761719 C 178.8827667236328 116.08926391601562 177.9360809326172 117.90312194824219 173.54705810546875 117.95588684082031 C 177.15225219726562 127.32144927978516 172.5721435546875 130.5927734375 153.8502960205078 128.6276092529297 C 152.578125 123.25089263916016 150.31507873535156 102.64749145507812 153.44541931152344 96.58692169189453 C 152.87338256835938 88.6210708618164 153.71881103515625 83.02626037597656 150.13670349121094 76.32586669921875 C 148.46681213378906 75.92684173583984 149.0734100341797 69.3277816772461 151.61495971679688 68.58938598632812" stroke-width="0.0" fill="url(#shape_5_fill)"/>
    <path d="M 613.2340698242188 83.53128814697266 C 618.5858154296875 84.1910171508789 619.6232299804688 85.85507202148438 630.7722778320312 85.66279602050781 C 636.8173217773438 85.94882202148438 637.6724243164062 87.64338684082031 641.2567749023438 87.8093490600586 C 642.150390625 87.51566314697266 669.0964965820312 91.8804702758789 673.8109741210938 98.51624298095703 C 673.9605102539062 112.71918487548828 673.682373046875 128.8929901123047 673.91650390625 143.3957061767578 C 669.8333740234375 138.40773010253906 665.2553100585938 134.0830078125 660.9417724609375 128.4393768310547 C 660.2909545898438 121.40325164794922 660.6640014648438 115.58911895751953 653.1337890625 111.34136962890625 C 647.7666625976562 116.62642669677734 645.0604248046875 142.35462951660156 642.0470581054688 143.27960205078125 C 643.5023193359375 145.3528594970703 641.2003173828125 148.5262451171875 641.0684204101562 149.1311492919922 C 639.7142944335938 151.01866149902344 638.0769653320312 152.0419464111328 634.927734375 149.8178253173828 C 631.3062133789062 146.8242645263672 629.2833862304688 141.30372619628906 630.01708984375 140.6161346435547 C 628.9209594726562 138.06466674804688 623.8526000976562 137.0474090576172 620.8458251953125 138.56411743164062 C 618.2212524414062 140.55209350585938 619.2681274414062 142.35708618164062 618.7572021484375 144.25318908691406 C 614.5125732421875 144.48251342773438 614.1510009765625 143.11968994140625 610.2412109375 143.75184631347656 C 608.5558471679688 140.40554809570312 609.5993041992188 139.24569702148438 609.44287109375 137.3644561767578 C 606.6090698242188 132.25181579589844 604.7371826171875 126.53916931152344 597.2815551757812 127.93798828125 C 600.6219482421875 136.78768920898438 595.334716796875 150.63912963867188 592.0359497070312 157.63485717773438 C 590.7589111328125 163.93661499023438 589.4833984375 164.2086944580078 586.6303100585938 168.01568603515625 C 583.0720825195312 168.04600524902344 579.5457153320312 167.31832885742188 577.2745971679688 165.73963928222656 C 574.00732421875 164.45187377929688 573.2808227539062 160.0422821044922 572.1882934570312 157.2506561279297 C 567.4415893554688 155.1279296875 556.2642211914062 154.26499938964844 556.2719116210938 151.23074340820312 C 555.82421875 152.88186645507812 553.0728149414062 154.70367431640625 552.8753662109375 157.74307250976562 C 549.9404907226562 161.46322631835938 547.9357299804688 160.91900634765625 547.2428588867188 159.81961059570312 C 542.6945190429688 158.8269805908203 539.8843383789062 157.3982696533203 536.0532836914062 157.13998413085938 C 534.8161010742188 158.1997833251953 531.6390991210938 157.4448699951172 528.4722290039062 157.98699951171875 C 526.0973510742188 159.26620483398438 526.05322265625 162.25003051757812 525.25390625 165.0940704345703 C 524.2617797851562 169.2171630859375 523.0967407226562 171.4271240234375 518.994384765625 173.09153747558594 C 510.8886413574219 177.65904235839844 503.1709289550781 173.38754272460938 500.136962890625 171.0131378173828 C 495.3860778808594 148.1850128173828 510.81878662109375 127.06437683105469 518.7002563476562 124.11592102050781 C 525.0560913085938 120.25227355957031 540.188232421875 113.1336669921875 551.9506225585938 112.06278991699219 C 555.3685913085938 109.85774993896484 560.0062866210938 109.72608947753906 563.7314453125 106.66477966308594 C 564.6365966796875 104.5461196899414 566.868896484375 103.61138916015625 569.6976928710938 103.90332794189453 C 575.0569458007812 101.64762878417969 578.3233032226562 97.08622741699219 583.6640625 94.5382080078125 C 594.3941040039062 87.71739196777344 602.6063232421875 81.2520980834961 613.2340698242188 83.53128814697266" stroke-width="0.0" fill="url(#shape_6_fill)"/>
    <path d="M 3.2042787075042725 117.44322204589844 C 26.553983688354492 124.11239624023438 37.46865463256836 128.4507598876953 48.77560043334961 138.25172424316406 C 71.53714752197266 159.32627868652344 51.77463912963867 224.18653869628906 55.87986373901367 246.20533752441406 C 53.17156219482422 260.2947082519531 48.720401763916016 264.67950439453125 48.55474853515625 266.3952941894531 C 38.57577896118164 274.0122985839844 4.092926025390625 270.1509704589844 0.9015838503837585 268.10748291015625 C 0.3783296048641205 217.90017700195312 -0.2679918110370636 166.84976196289062 3.2042787075042725 117.44322204589844" stroke-width="0.0" fill="url(#shape_7_fill)"/>
    <path d="M 393.271484375 181.67726135253906 C 410.4542541503906 174.06491088867188 426.21923828125 192.09703063964844 432.4977111816406 208.49974060058594 C 468.9339599609375 196.79034423828125 491.5799865722656 210.9522705078125 491.6427307128906 235.7927703857422 C 490.98419189453125 250.4806671142578 486.1548767089844 251.47055053710938 484.8455505371094 252.33587646484375 C 485.31634521484375 254.51312255859375 479.0793762207031 265.03521728515625 474.8370666503906 268.455078125 C 469.0430603027344 272.93035888671875 453.2210388183594 266.7112731933594 451.6259460449219 269.6931457519531 C 446.9855041503906 266.27655029296875 448.2093200683594 261.2145690917969 448.9783020019531 260.1597595214844 C 439.2447204589844 264.7261962890625 436.50103759765625 261.3760070800781 437.41802978515625 256.8994445800781 C 428.27667236328125 256.969482421875 426.6159362792969 259.46826171875 421.2318420410156 262.24859619140625 C 418.5391845703125 264.2608642578125 417.4994812011719 267.59368896484375 414.8285827636719 270.064453125 C 414.1202697753906 270.14727783203125 397.8527526855469 267.81134033203125 392.5921936035156 264.1531982421875 C 391.82666015625 265.0929870605469 389.03948974609375 263.3183288574219 386.05938720703125 263.5161437988281 C 382.1158142089844 261.9399108886719 380.8222351074219 263.1742248535156 376.6802978515625 260.977294921875 C 375.11004638671875 256.29229736328125 376.2388916015625 252.4306182861328 372.94000244140625 249.08184814453125 C 360.18707275390625 244.1011505126953 376.16436767578125 197.80557250976562 378.9433898925781 182.6995086669922 C 383.81097412109375 171.76971435546875 395.2413024902344 176.19212341308594 393.271484375 181.67726135253906" stroke-width="0.0" fill="url(#shape_8_fill)"/>
    <path d="M 565.6092529296875 157.4798126220703 C 568.532470703125 158.99362182617188 569.9625244140625 162.94149780273438 570.2842407226562 165.62574768066406 C 573.8919067382812 169.43919372558594 573.4126586914062 170.791015625 577.7510986328125 174.32359313964844 C 582.0486450195312 172.86146545410156 583.8626098632812 174.68865966796875 583.6510009765625 179.609375 C 575.3658447265625 180.341552734375 572.1154174804688 225.61756896972656 577.278076171875 226.9656524658203 C 577.8338623046875 229.97080993652344 581.2346801757812 235.59400939941406 575.9068603515625 243.0758819580078 C 568.5033569335938 239.00523376464844 566.155029296875 237.2749786376953 558.8314208984375 246.8271026611328 C 553.4217529296875 253.1389617919922 493.9729309082031 251.90676879882812 490.16888427734375 252.665771484375 C 487.6654052734375 246.88314819335938 487.5050354003906 239.02761840820312 490.3568420410156 229.87594604492188 C 486.4528503417969 226.22926330566406 483.1926574707031 222.27301025390625 481.16632080078125 216.09226989746094 C 476.50152587890625 209.81561279296875 479.147216796875 205.77719116210938 482.6532287597656 205.94752502441406 C 479.9200744628906 205.3147430419922 480.8587646484375 197.99600219726562 485.4420471191406 198.5457000732422 C 491.8512268066406 196.20648193359375 491.8835144042969 192.52243041992188 493.37127685546875 188.07191467285156 C 492.80584716796875 174.20693969726562 495.2073059082031 173.41421508789062 495.69891357421875 170.93588256835938 C 504.343017578125 169.65005493164062 504.8204040527344 172.65234375 518.9464111328125 170.2537841796875 C 523.968505859375 170.9197540283203 524.6306762695312 168.23638916015625 526.0111083984375 165.3142547607422 C 525.24462890625 160.9254608154297 529.6560668945312 156.45298767089844 533.3895263671875 158.6425018310547 C 537.6530151367188 161.82513427734375 541.4024658203125 162.45010375976562 542.21728515625 163.92742919921875 C 545.2882690429688 164.0247039794922 546.0079345703125 165.66616821289062 549.380615234375 166.35145568847656 C 548.7515869140625 165.6314239501953 551.3359985351562 157.01971435546875 555.1775512695312 157.49148559570312 C 558.8134155273438 156.77627563476562 562.1256713867188 156.5919189453125 565.6092529296875 157.4798126220703" stroke-width="0.0" fill="url(#shape_9_fill)"/>
    <path d="M 561.4107055664062 156.2332305908203 C 567.417236328125 153.45486450195312 571.2091064453125 159.7213592529297 571.4564208984375 167.02932739257812 C 572.36181640625 170.903564453125 575.0126342773438 171.6367950439453 579.0617065429688 176.19703674316406 C 579.5662841796875 178.00938415527344 578.3379516601562 187.2661895751953 577.2546997070312 191.58807373046875 C 571.2940063476562 196.80978393554688 571.9851684570312 229.99703979492188 578.0663452148438 230.97552490234375 C 576.0555419921875 231.1393280029297 575.6201782226562 236.8348388671875 572.0140380859375 238.0584716796875 C 559.5960083007812 236.0900421142578 567.6978759765625 238.58580017089844 561.966796875 247.9835205078125 C 555.50390625 251.7767333984375 501.2862548828125 248.94500732421875 500.1797180175781 251.48117065429688 C 491.10821533203125 251.79579162597656 487.9587707519531 236.93077087402344 490.64947509765625 230.1328887939453 C 486.62445068359375 224.9276580810547 481.9859924316406 219.27027893066406 481.47650146484375 216.2563018798828 C 475.5495910644531 214.48684692382812 475.3074035644531 212.51589965820312 474.19915771484375 203.12713623046875 C 473.8612976074219 199.98992919921875 480.0301208496094 196.98468017578125 481.09600830078125 196.54457092285156 C 490.3385314941406 195.34349060058594 494.4886169433594 184.3450164794922 496.6468200683594 183.0056610107422 C 495.9450378417969 179.4766845703125 496.85723876953125 176.9972686767578 500.42462158203125 176.0755157470703 C 507.50238037109375 175.76522827148438 514.779052734375 178.00880432128906 519.9736328125 173.9550018310547 C 523.5213623046875 173.337890625 526.750244140625 159.3037872314453 532.0747680664062 158.48095703125 C 536.9570922851562 157.72735595703125 538.7662353515625 161.3577117919922 542.7501220703125 165.45223999023438 C 545.3189086914062 165.14292907714844 548.7321166992188 166.3318328857422 550.9695434570312 163.525390625 C 551.27783203125 157.89938354492188 553.5552978515625 153.71539306640625 561.4107055664062 156.2332305908203" stroke-width="0.0" fill="url(#shape_10_fill)"/>
    <path d="M 449.8743896484375 107.52580261230469 C 454.054931640625 109.1070785522461 455.9310607910156 112.35979461669922 460.8799133300781 113.5154037475586 C 463.5321350097656 116.80354309082031 468.9913024902344 117.412841796875 472.3687744140625 119.60652923583984 C 488.36492919921875 124.53907775878906 488.8009338378906 125.2511215209961 491.7137145996094 129.8486785888672 C 493.3838806152344 131.7427520751953 493.22662353515625 134.1470184326172 496.5164794921875 136.43511962890625 C 494.6797790527344 134.4024658203125 492.37078857421875 136.42987060546875 488.1591796875 135.37918090820312 C 484.6053771972656 133.56967163085938 482.49737548828125 134.98538208007812 479.3330993652344 134.68093872070312 C 474.7673645019531 136.0134735107422 471.4700012207031 134.32666015625 468.2674560546875 134.35777282714844 C 465.3149719238281 133.49400329589844 460.052001953125 133.50177001953125 457.2401123046875 134.39894104003906 C 453.42779541015625 143.3567657470703 468.91253662109375 153.09718322753906 480.22064208984375 157.8721923828125 C 476.15771484375 176.6042022705078 475.333740234375 177.15682983398438 469.6628723144531 180.6903533935547 C 466.660888671875 182.24330139160156 466.2567138671875 186.66749572753906 463.704833984375 188.41604614257812 C 458.62213134765625 189.1161651611328 454.552978515625 181.798583984375 453.9873352050781 176.81430053710938 C 448.2685241699219 179.39442443847656 447.5172119140625 182.60911560058594 439.8991394042969 183.0899200439453 C 439.4821472167969 183.86155700683594 435.9608154296875 195.80416870117188 434.5074462890625 198.40701293945312 C 428.5438232421875 200.8318328857422 417.4896545410156 180.5989532470703 417.7373962402344 179.709228515625 C 416.9661560058594 179.52670288085938 401.92962646484375 175.53854370117188 400.0570983886719 167.59671020507812 C 392.7619934082031 168.2728729248047 386.9753723144531 175.99835205078125 381.24163818359375 173.0810546875 C 381.576171875 164.59934997558594 383.998779296875 143.46121215820312 392.6427307128906 141.07362365722656 C 397.9143981933594 137.4587860107422 399.3695068359375 129.6845703125 402.3124694824219 123.271728515625 C 411.9585266113281 100.59443664550781 427.9376220703125 105.23625946044922 449.8743896484375 107.52580261230469" stroke-width="0.0" fill="url(#shape_11_fill)"/>
    <path d="M 602.4037475585938 127.02521514892578 C 606.1646728515625 129.95790100097656 605.7312622070312 142.74925231933594 608.739013671875 143.43629455566406 C 612.0935668945312 144.44100952148438 612.2518310546875 147.6890411376953 614.9686279296875 151.54698181152344 C 618.633056640625 149.79872131347656 618.7767944335938 141.6596221923828 620.584716796875 140.51593017578125 C 624.0841674804688 137.98745727539062 626.6394653320312 137.3412322998047 628.3804931640625 140.13734436035156 C 627.7474975585938 142.1195831298828 629.4954223632812 144.57582092285156 629.8096313476562 147.44789123535156 C 632.244384765625 149.8116455078125 631.6616821289062 151.05691528320312 636.27783203125 153.65768432617188 C 641.2875366210938 155.5509796142578 639.8253784179688 161.38148498535156 642.0418090820312 170.49099731445312 C 637.4371948242188 183.724365234375 639.117919921875 194.31236267089844 639.6576538085938 206.38494873046875 C 642.1969604492188 219.09530639648438 646.34326171875 232.12057495117188 643.1649169921875 246.72598266601562 C 622.3140258789062 248.00076293945312 609.1094360351562 247.44593811035156 577.9625244140625 250.52676391601562 C 574.2109375 243.14300537109375 574.3052368164062 229.90975952148438 573.249267578125 219.1141357421875 C 570.4061889648438 212.9281463623047 574.7877197265625 167.93174743652344 585.1658325195312 168.9431915283203 C 597.32080078125 163.45098876953125 596.7579956054688 142.63204956054688 598.736572265625 141.86328125 C 595.91748046875 138.8026123046875 597.0062866210938 136.5349578857422 602.4037475585938 127.02521514892578" stroke-width="0.0" fill="url(#shape_12_fill)"/>
    <path d="M 406.3314514160156 177.4506378173828 C 422.0793762207031 174.77780151367188 435.322021484375 210.56344604492188 429.7453918457031 218.5255889892578 C 420.104248046875 231.625 424.1229553222656 240.01976013183594 427.2654113769531 248.54653930664062 C 430.6473083496094 262.4262390136719 420.50030517578125 265.3038024902344 415.9425048828125 267.7986145019531 C 404.8229675292969 270.4593505859375 396.1203308105469 269.42156982421875 389.8479919433594 269.36529541015625 C 385.218505859375 264.4698181152344 382.90869140625 264.8428955078125 380.9447937011719 263.3121337890625 C 377.329833984375 262.37799072265625 377.0431213378906 260.1355895996094 375.5489501953125 258.39910888671875 C 376.316650390625 255.93341064453125 375.7171325683594 253.31875610351562 374.4982604980469 253.5526885986328 C 374.29791259765625 252.27255249023438 370.51806640625 250.54222106933594 369.25482177734375 251.37548828125 C 362.5796813964844 242.91336059570312 365.55908203125 225.86732482910156 367.3764953613281 220.48521423339844 C 368.4120788574219 218.0816650390625 371.2303161621094 202.76779174804688 377.27099609375 202.626220703125 C 377.3942565917969 199.75511169433594 378.7811584472656 182.41964721679688 383.9975280761719 179.80245971679688 C 391.7506408691406 175.62936401367188 392.5865478515625 175.7107391357422 406.3314514160156 177.4506378173828" stroke-width="0.0" fill="url(#shape_13_fill)"/>
    <path d="M 510.89764404296875 65.26722717285156 C 512.0489501953125 66.6368637084961 519.9000854492188 71.75279235839844 523.2153930664062 74.79104614257812 C 530.4273681640625 80.30485534667969 534.3638916015625 81.01789093017578 536.1676635742188 90.16092681884766 C 539.5227661132812 90.74327850341797 544.540771484375 90.3962173461914 545.023681640625 91.15666198730469 C 545.5371704101562 92.7469482421875 556.0941162109375 97.05367279052734 560.8063354492188 95.86146545410156 C 563.6698608398438 97.53827667236328 567.3590698242188 97.51835632324219 568.687744140625 99.53201293945312 C 566.4991455078125 105.63241577148438 554.8435668945312 113.4725570678711 547.389892578125 109.9017333984375 C 541.7456665039062 112.14471435546875 539.3937377929688 114.991455078125 533.90478515625 117.20952606201172 C 527.1341552734375 119.54792022705078 524.4430541992188 120.8201675415039 515.814697265625 119.4627914428711 C 510.3323669433594 119.31948852539062 501.05572509765625 125.046142578125 498.802490234375 125.13025665283203 C 496.8734130859375 128.46006774902344 493.70269775390625 128.3040771484375 489.2798156738281 127.9911880493164 C 489.43743896484375 124.95919799804688 468.7740783691406 119.12922668457031 468.04840087890625 118.14839935302734 C 463.2959899902344 117.75692749023438 463.0898742675781 116.4614028930664 460.49627685546875 114.84536743164062 C 463.6668701171875 109.7069320678711 466.4036865234375 104.0860595703125 472.7835998535156 98.44231414794922 C 475.77069091796875 88.85099792480469 474.0075378417969 84.72429656982422 473.76031494140625 82.08210754394531 C 474.58587646484375 70.9335708618164 475.3415222167969 70.38609313964844 478.42315673828125 66.45716094970703 C 479.0843505859375 64.26377868652344 482.734375 64.2726821899414 484.80133056640625 63.388980865478516 C 492.91802978515625 64.1318588256836 501.5503845214844 62.754268646240234 510.89764404296875 65.26722717285156" stroke-width="0.0" fill="url(#shape_14_fill)"/>
    <path d="M 532.406005859375 159.40103149414062 C 543.7767944335938 162.91937255859375 544.0314331054688 163.904541015625 547.072021484375 165.67674255371094 C 547.3284912109375 168.06234741210938 548.4134521484375 170.21026611328125 543.6219482421875 181.74583435058594 C 542.2612915039062 189.54718017578125 538.9028930664062 232.2576141357422 538.0751342773438 235.04615783691406 C 540.5292358398438 236.8804168701172 540.8170166015625 249.96817016601562 513.8175048828125 252.37667846679688 C 503.3204345703125 250.61221313476562 483.4342956542969 245.5564727783203 487.4344177246094 230.3639373779297 C 476.8140869140625 219.02890014648438 478.283203125 205.39491271972656 485.92437744140625 199.8471221923828 C 487.14056396484375 197.20419311523438 488.97332763671875 197.9298553466797 490.3337097167969 197.06182861328125 C 487.7779846191406 189.43350219726562 489.5245666503906 179.85328674316406 491.00030517578125 177.1029815673828 C 493.2375793457031 175.60842895507812 495.8375244140625 173.56121826171875 500.7686462402344 174.53659057617188 C 507.2776184082031 176.0483856201172 511.8381652832031 180.07928466796875 522.6566162109375 172.56317138671875 C 525.544189453125 170.9560089111328 525.53515625 167.2991943359375 526.954833984375 165.0946807861328 C 527.5795288085938 161.67132568359375 530.8927612304688 160.50747680664062 532.406005859375 159.40103149414062" stroke-width="0.0" fill="url(#shape_15_fill)"/>
    <path d="M 651.3612670898438 111.7548599243164 C 656.1455078125 109.82611083984375 663.7880859375 121.33255767822266 662.1905517578125 126.8301773071289 C 665.4705810546875 133.33441162109375 666.0694580078125 139.5410919189453 673.45703125 148.03990173339844 C 676.0075073242188 179.47828674316406 674.0895385742188 212.27920532226562 673.9088745117188 251.102783203125 C 672.35546875 248.59303283691406 649.2084350585938 255.9370574951172 640.5477905273438 247.21499633789062 C 635.591552734375 242.32115173339844 637.8391723632812 120.42772674560547 651.3612670898438 111.7548599243164" stroke-width="0.0" fill="url(#shape_16_fill)"/>
    <path d="M 600.1702270507812 129.762451171875 C 603.427734375 127.5232162475586 608.2955322265625 131.4774169921875 606.9519653320312 133.94151306152344 C 608.3707885742188 135.06532287597656 608.4010009765625 139.12039184570312 609.780517578125 145.16282653808594 C 623.37353515625 140.5128936767578 622.6082153320312 231.27589416503906 617.6828002929688 245.65090942382812 C 595.929931640625 253.28346252441406 578.0680541992188 246.62652587890625 580.117919921875 235.75735473632812 C 564.6817016601562 227.2920379638672 595.629638671875 152.55166625976562 600.1702270507812 129.762451171875" stroke-width="0.0" fill="url(#shape_17_fill)"/>
    <path d="M 321.28607177734375 186.24832153320312 C 322.8070983886719 185.89625549316406 324.2076110839844 188.50994873046875 326.2402038574219 190.6621551513672 C 331.9971618652344 189.9561309814453 336.8497314453125 189.2346649169922 339.4665832519531 191.3601837158203 C 341.96087646484375 196.6109161376953 347.38623046875 195.6427001953125 353.7093200683594 195.7191162109375 C 356.9516906738281 195.11639404296875 357.89569091796875 198.48233032226562 358.8134765625 200.73658752441406 C 359.86895751953125 203.70278930664062 362.0385437011719 203.77093505859375 363.14996337890625 206.31541442871094 C 367.25396728515625 206.95053100585938 368.4796447753906 208.20570373535156 368.3625793457031 211.8124237060547 C 371.005859375 218.23585510253906 370.8356628417969 223.5351104736328 366.56646728515625 225.77090454101562 C 366.8571472167969 231.49754333496094 365.4110107421875 235.23358154296875 367.53033447265625 243.13934326171875 C 367.5458984375 247.89295959472656 364.76220703125 255.60357666015625 356.2218017578125 255.0767059326172 C 353.35919189453125 255.44900512695312 330.94525146484375 255.03579711914062 323.5090026855469 254.80120849609375 C 313.5082702636719 255.66146850585938 312.2779541015625 253.3201141357422 310.7161560058594 239.87416076660156 C 305.874267578125 229.87449645996094 319.5027770996094 192.3551788330078 321.28607177734375 186.24832153320312" stroke-width="0.0" fill="url(#shape_18_fill)"/>
    <path d="M 478.9348449707031 217.62254333496094 C 491.00921630859375 244.43638610839844 497.6720886230469 251.18008422851562 480.37921142578125 269.7488708496094 C 470.29510498046875 278.2347412109375 444.010986328125 261.3474426269531 442.1434631347656 261.65869140625 C 438.63739013671875 260.6344909667969 437.1800842285156 258.1427307128906 432.5952453613281 257.9295959472656 C 429.65252685546875 258.1933898925781 427.6390686035156 257.7197570800781 426.69842529296875 254.3197784423828 C 422.5389404296875 244.3975830078125 421.0039978027344 235.43055725097656 422.49737548828125 228.5216522216797 C 424.2245788574219 224.71563720703125 420.96697998046875 228.80197143554688 421.5054931640625 225.66326904296875 C 427.68878173828125 219.44117736816406 429.6704406738281 218.77215576171875 429.61236572265625 215.75167846679688 C 438.5165710449219 199.6598663330078 465.7240295410156 204.03782653808594 478.9348449707031 217.62254333496094" stroke-width="0.0" fill="url(#shape_19_fill)"/>
    <path d="M 674.099609375 -2.3001368045806885 C 674.994384765625 32.91597366333008 674.5724487304688 64.77037811279297 674.3340454101562 97.1194076538086 C 669.1931762695312 96.39261627197266 651.3619384765625 86.04920959472656 642.7621459960938 90.79450988769531 C 638.681396484375 89.602294921875 638.2528076171875 85.78804779052734 637.9008178710938 84.66128540039062 C 628.4979858398438 85.93059539794922 619.7427978515625 91.2542953491211 608.926513671875 85.25286102294922 C 610.5042724609375 78.06755828857422 614.5128173828125 75.97238159179688 614.2366943359375 71.33446502685547 C 624.670654296875 71.23896026611328 650.4285888671875 26.737173080444336 648.7704467773438 21.969200134277344 C 656.3447265625 16.050045013427734 656.853759765625 4.836602210998535 667.7889404296875 4.084924697875977 C 669.7757568359375 2.647613525390625 670.2499389648438 1.2263844013214111 674.099609375 -2.3001368045806885" stroke-width="0.0" fill="url(#shape_20_fill)"/>
    <path d="M 561.8006591796875 156.07382202148438 C 569.6707153320312 156.81040954589844 569.5357055664062 164.77931213378906 573.0011596679688 165.69296264648438 C 584.7579956054688 168.00772094726562 575.380126953125 231.50563049316406 576.8386840820312 240.43821716308594 C 572.6607055664062 242.12696838378906 568.3945922851562 244.72372436523438 567.0263061523438 247.94479370117188 C 558.5390014648438 250.4626007080078 542.9887084960938 251.89378356933594 540.1144409179688 246.3191375732422 C 544.5352783203125 244.7150421142578 540.5579223632812 162.98594665527344 555.0017700195312 157.73611450195312 C 556.152587890625 153.3463897705078 558.4598999023438 153.43695068359375 561.8006591796875 156.07382202148438" stroke-width="0.0" fill="url(#shape_21_fill)"/>
    <path d="M 216.85800170898438 212.00332641601562 C 226.53431701660156 217.59080505371094 227.06993103027344 249.7132568359375 218.62777709960938 254.98114013671875 C 210.94668579101562 262.6563415527344 208.2782440185547 263.9757995605469 205.83602905273438 272.4997253417969 C 205.39271545410156 275.9825744628906 206.62835693359375 276.1754455566406 206.9808349609375 280.1511535644531 C 207.0980987548828 283.2779235839844 204.3040771484375 285.17376708984375 200.52183532714844 284.7496337890625 C 201.24620056152344 283.3334045410156 195.53050231933594 267.3347473144531 188.28843688964844 264.08441162109375 C 186.49961853027344 261.0564270019531 184.2361297607422 261.7069396972656 181.48081970214844 261.4746398925781 C 180.73841857910156 260.5604248046875 179.0958709716797 260.81280517578125 178.01690673828125 255.56520080566406 C 181.2953338623047 248.2198486328125 168.9525604248047 242.6311798095703 171.23101806640625 237.66824340820312 C 176.14874267578125 216.70069885253906 180.92538452148438 215.81399536132812 186.9810028076172 220.8232421875 C 194.394775390625 218.43234252929688 193.7843780517578 215.96783447265625 196.03721618652344 213.4309844970703 C 193.94674682617188 205.24655151367188 193.8109893798828 203.35919189453125 200.57244873046875 202.17970275878906 C 211.73712158203125 201.82872009277344 213.92474365234375 203.56307983398438 216.85800170898438 212.00332641601562" stroke-width="0.0" fill="url(#shape_22_fill)"/>
    <path d="M 111.5184555053711 426.42218017578125 C 112.71991729736328 429.2743225097656 110.99288177490234 431.1818542480469 110.67408752441406 431.7012023925781 C 106.46524047851562 435.44525146484375 102.28858184814453 436.0350646972656 91.90948486328125 433.03924560546875 C 89.34516143798828 436.87640380859375 96.57954406738281 447.07037353515625 90.54444122314453 451.2639465332031 C 78.66852569580078 445.0010986328125 46.93034362792969 447.92169189453125 24.941625595092773 449.64013671875 C 13.988788604736328 446.2895202636719 13.88232135772705 439.7906188964844 17.792940139770508 436.81402587890625 C 34.768131256103516 428.8049621582031 51.2008056640625 426.68890380859375 70.54078674316406 426.2691955566406 C 75.86251068115234 425.8775634765625 107.69066619873047 418.07586669921875 111.5184555053711 426.42218017578125" stroke-width="0.0" fill="url(#shape_23_fill)"/>
    <path d="M 194.623779296875 123.50907897949219 C 199.67247009277344 124.76124572753906 210.0152587890625 144.254638671875 213.5891571044922 145.2094268798828 C 215.4460906982422 148.29527282714844 218.45559692382812 149.76931762695312 219.70028686523438 153.68185424804688 C 227.1138916015625 157.66943359375 249.11888122558594 180.50076293945312 244.47349548339844 199.66067504882812 C 239.04464721679688 199.59371948242188 235.39646911621094 187.4419403076172 234.567626953125 182.81100463867188 C 233.08328247070312 184.63282775878906 231.37020874023438 193.77232360839844 230.1642303466797 197.0640869140625 C 226.36843872070312 199.8540802001953 225.8414306640625 202.28976440429688 220.8656768798828 208.352294921875 C 215.17303466796875 207.62014770507812 213.71310424804688 200.10157775878906 214.5836181640625 195.88980102539062 C 212.71243286132812 189.52191162109375 212.6702423095703 182.83091735839844 207.20672607421875 178.30421447753906 C 204.0441436767578 174.02639770507812 205.16212463378906 173.0395050048828 205.39210510253906 167.23944091796875 C 203.8607940673828 151.2887420654297 199.89901733398438 148.8915252685547 193.32176208496094 143.71078491210938 C 188.70599365234375 141.56246948242188 190.5814208984375 127.98128509521484 194.623779296875 123.50907897949219" stroke-width="0.0" fill="url(#shape_24_fill)"/>
    <path d="M 594.9224243164062 412.8763732910156 C 597.3093872070312 414.7012939453125 624.9368286132812 411.6184387207031 627.1807861328125 418.45751953125 C 628.3477783203125 420.8258972167969 626.0153198242188 424.94134521484375 627.834228515625 427.5218200683594 C 629.3511962890625 429.92169189453125 632.5689697265625 430.0954895019531 634.4918823242188 436.7940368652344 C 615.6171875 447.55755615234375 578.3262939453125 440.6586608886719 577.1956176757812 431.8742370605469 C 570.555908203125 423.44256591796875 573.9141235351562 417.442138671875 575.0354614257812 414.533447265625 C 580.4132690429688 410.0497131347656 587.2774658203125 411.9503173828125 594.9224243164062 412.8763732910156" stroke-width="0.0" fill="url(#shape_25_fill)"/>
    <path d="M 142.92105102539062 66.69158172607422 C 144.0843963623047 68.92842102050781 149.1692352294922 68.4500503540039 149.62965393066406 69.13912200927734 C 148.90951538085938 70.90229034423828 150.457763671875 71.8269271850586 149.78121948242188 73.85868835449219 C 151.0081787109375 74.45417022705078 150.476806640625 78.12086486816406 151.8235626220703 82.47843933105469 C 152.4530029296875 89.79805755615234 152.2168731689453 97.96916198730469 154.01467895507812 104.07699584960938 C 153.5430908203125 107.6174087524414 155.1183624267578 108.52069091796875 154.76380920410156 111.74422454833984 C 158.2200164794922 123.2043685913086 155.24755859375 133.50904846191406 150.20614624023438 133.56002807617188 C 142.20626831054688 127.83042907714844 135.7169647216797 121.9155044555664 125.54345703125 117.36324310302734 C 122.50532531738281 114.33378601074219 124.63846588134766 109.73416137695312 126.92176818847656 107.15592956542969 C 128.83583068847656 106.85514068603516 128.87879943847656 105.28334045410156 132.6549530029297 104.66756439208984 C 139.08871459960938 96.58345794677734 135.3816680908203 92.81871032714844 133.35479736328125 90.27388000488281 C 134.2123260498047 88.90029907226562 139.26864624023438 87.07846069335938 140.04354858398438 85.31011199951172 C 138.1466522216797 84.75109100341797 138.86131286621094 77.64653778076172 139.48643493652344 77.45285034179688 C 143.50372314453125 76.58650207519531 142.65069580078125 70.24525451660156 142.92105102539062 66.69158172607422" stroke-width="0.0" fill="url(#shape_26_fill)"/>
    <path d="M 144.5033721923828 67.69725799560547 C 149.26165771484375 68.21235656738281 150.14706420898438 70.68233489990234 148.2627716064453 75.86443328857422 C 151.88998413085938 76.8048095703125 151.48390197753906 79.6670150756836 153.98712158203125 82.1133041381836 C 151.3649444580078 88.55586242675781 152.82064819335938 94.57127380371094 153.04962158203125 104.09915161132812 C 154.2084197998047 105.26483154296875 153.6273193359375 108.98909759521484 154.99444580078125 112.7081069946289 C 154.44845581054688 117.63273620605469 156.8754119873047 122.05984497070312 155.14968872070312 126.09677124023438 C 152.68215942382812 132.05262756347656 151.36241149902344 133.175537109375 147.43475341796875 133.3839569091797 C 139.03477478027344 134.78042602539062 126.95640563964844 122.59278869628906 125.1133804321289 121.9086685180664 C 122.32665252685547 119.88220977783203 121.47865295410156 114.9454574584961 128.53562927246094 110.54121398925781 C 124.09971618652344 108.76886749267578 124.22412109375 106.16285705566406 131.66177368164062 105.78662109375 C 135.67886352539062 105.3210678100586 134.8430633544922 91.901123046875 134.98988342285156 89.58104705810547 C 139.3317108154297 87.07194519042969 138.34149169921875 84.6017074584961 138.29669189453125 81.68498992919922 C 139.07810974121094 77.49382019042969 140.36187744140625 76.77421569824219 141.65481567382812 76.57066345214844 C 145.3307647705078 71.93588256835938 143.1580810546875 68.9394760131836 144.5033721923828 67.69725799560547" stroke-width="0.0" fill="url(#shape_27_fill)"/>
    <path d="M -0.3177582025527954 -0.2703443765640259 C 4.696974277496338 0.38016119599342346 9.643383979797363 -0.5241748094558716 17.18794822692871 -0.46299299597740173 C 20.470083236694336 0.18588395416736603 19.845611572265625 10.0211181640625 32.84230041503906 17.405956268310547 C 30.0643310546875 25.21196746826172 27.546693801879883 25.635028839111328 27.174890518188477 26.8194580078125 C 34.208683013916016 30.486434936523438 40.84636306762695 31.336132049560547 42.61571502685547 38.315208435058594 C 36.32451629638672 39.595645904541016 33.246490478515625 39.41982650756836 30.40019989013672 36.40985870361328 C 25.332883834838867 32.22602081298828 16.728178024291992 33.20695877075195 10.554771423339844 33.44381332397461 C 9.124309539794922 37.0490837097168 12.639884948730469 40.20745086669922 12.978256225585938 41.56350326538086 C 13.775116920471191 42.065155029296875 14.194430351257324 46.0621452331543 18.06808090209961 47.94501876831055 C 20.05661392211914 51.07462692260742 18.743337631225586 52.30995178222656 19.799224853515625 57.00873947143555 C 19.48453140258789 61.604209899902344 11.820331573486328 62.69554901123047 8.905832290649414 61.16682815551758 C 5.497004985809326 60.88303756713867 3.5333447456359863 59.142005920410156 0.3252876400947571 59.43406677246094 C -0.3175530731678009 39.77827453613281 -0.32482394576072693 19.62856101989746 -0.3177582025527954 -0.2703443765640259" stroke-width="0.0" fill="url(#shape_28_fill)"/>
    <path d="M 298.38470458984375 196.86285400390625 C 297.33453369140625 199.29043579101562 299.1346435546875 202.4769287109375 300.8010559082031 207.68948364257812 C 301.1495056152344 209.6339111328125 319.4832763671875 232.00404357910156 313.6237487792969 252.45281982421875 C 311.1723327636719 252.40870666503906 310.669677734375 255.36605834960938 308.002685546875 257.2728576660156 C 300.5311584472656 259.0882873535156 295.0403137207031 259.0083923339844 282.82672119140625 257.88763427734375 C 282.1517333984375 232.03036499023438 285.09814453125 213.6822967529297 298.38470458984375 196.86285400390625" stroke-width="0.0" fill="url(#shape_29_fill)"/>
    <path d="M -0.41959163546562195 0.13656485080718994 C 4.436717987060547 0.45154011249542236 9.538836479187012 -0.4149624705314636 14.512042045593262 0.14148744940757751 C 15.688416481018066 0.49780404567718506 16.12583351135254 5.572668075561523 16.111501693725586 8.069221496582031 C 18.98273468017578 10.755302429199219 22.217615127563477 18.73023796081543 26.73141860961914 20.963634490966797 C 27.20673942565918 22.385711669921875 24.778841018676758 26.864492416381836 24.199947357177734 31.248886108398438 C 21.129230499267578 33.053497314453125 16.057950973510742 32.96858215332031 7.78347635269165 34.37844467163086 C 9.25572681427002 35.749332427978516 8.806421279907227 38.48075866699219 11.380377769470215 40.392250061035156 C 11.359503746032715 44.49757766723633 10.419079780578613 50.39433670043945 13.488883972167969 52.58451461791992 C 17.848514556884766 52.05244445800781 19.21241569519043 53.68412399291992 18.60279655456543 57.83144760131836 C 12.683855056762695 60.154048919677734 7.8489861488342285 61.16307067871094 0.2273762822151184 61.959320068359375 C -0.412375807762146 39.951778411865234 -0.35423481464385986 19.753082275390625 -0.41959163546562195 0.13656485080718994" stroke-width="0.0" fill="url(#shape_30_fill)"/>
    <path d="M 545.2882690429688 72.02595520019531 C 548.7611083984375 71.84017181396484 580.977783203125 85.37433624267578 584.3887329101562 87.73430633544922 C 580.5986938476562 91.94427490234375 578.0075073242188 92.30657958984375 577.2608642578125 98.23885345458984 C 573.240966796875 100.72749328613281 572.13427734375 99.99507141113281 568.378662109375 98.65241241455078 C 566.28466796875 96.71475219726562 544.3651123046875 93.82474517822266 538.5177001953125 88.50899505615234 C 538.5808715820312 85.48651123046875 537.4729614257812 83.35993194580078 535.5712280273438 82.61324310302734 C 534.9176635742188 79.3089370727539 530.694091796875 79.06024932861328 527.1234130859375 78.0369873046875 C 525.4268188476562 75.79269409179688 527.7967529296875 70.81248474121094 531.677001953125 69.2872085571289 C 536.4191284179688 67.44834899902344 541.1927490234375 68.54427337646484 545.2882690429688 72.02595520019531" stroke-width="0.0" fill="url(#shape_31_fill)"/>
    <path d="M 448.3460388183594 263.9810791015625 C 450.6701354980469 265.26318359375 451.3333435058594 266.6930847167969 456.0248718261719 267.64300537109375 C 460.60394287109375 267.626220703125 465.4665832519531 270.21343994140625 469.90411376953125 273.2985534667969 C 470.4375915527344 275.6312255859375 471.8228759765625 276.8934631347656 471.6764221191406 280.7283935546875 C 448.60638427734375 289.472412109375 426.4933776855469 287.052001953125 415.8355712890625 285.04364013671875 C 413.37249755859375 273.91748046875 415.3085021972656 272.3568115234375 415.7327575683594 268.2674255371094 C 418.19061279296875 267.207763671875 417.7780456542969 264.8067626953125 419.3303527832031 263.0562744140625 C 428.6583557128906 254.069580078125 438.50689697265625 259.1698913574219 448.3460388183594 263.9810791015625" stroke-width="0.0" fill="url(#shape_32_fill)"/>
    <path d="M 270.629638671875 190.91171264648438 C 281.07049560546875 191.2806854248047 284.5755615234375 243.67041015625 279.3404235839844 244.05816650390625 C 278.7466735839844 247.19692993164062 273.79608154296875 246.66250610351562 269.95208740234375 248.2849578857422 C 266.4792175292969 245.80233764648438 266.821533203125 241.93698120117188 263.5298156738281 240.5352783203125 C 256.740966796875 209.68202209472656 260.3618469238281 203.7440185546875 270.629638671875 190.91171264648438" stroke-width="0.0" fill="url(#shape_33_fill)"/>
    <path d="M 253.81776428222656 425.41680908203125 C 256.0658874511719 427.7071838378906 263.74835205078125 431.921875 263.4449462890625 438.80633544921875 C 260.6443786621094 441.480224609375 260.0350036621094 444.11981201171875 252.2473602294922 444.2213134765625 C 247.08453369140625 444.2545471191406 220.78480529785156 446.7248840332031 212.6039276123047 444.51971435546875 C 213.02517700195312 436.99578857421875 213.95956420898438 436.2222900390625 215.91152954101562 434.4441833496094 C 216.11822509765625 433.3752746582031 224.9951934814453 433.31744384765625 226.5931854248047 430.16082763671875 C 231.53048706054688 424.925048828125 243.1650848388672 424.504150390625 253.81776428222656 425.41680908203125" stroke-width="0.0" fill="url(#shape_34_fill)"/>
    <path d="M 105.65451049804688 69.93590545654297 C 109.42850494384766 70.0752944946289 112.44780731201172 78.2562484741211 110.96276092529297 82.05171203613281 C 116.07562255859375 84.63826751708984 116.92668151855469 110.28408813476562 117.30471801757812 110.93175506591797 C 117.17914581298828 113.15904235839844 111.94515991210938 114.28189849853516 109.75991821289062 118.83909606933594 C 105.47981262207031 116.65442657470703 96.7185287475586 118.78239440917969 92.39544677734375 112.95262908935547 C 91.51699829101562 85.55982971191406 103.30164337158203 84.10481262207031 105.65451049804688 69.93590545654297" stroke-width="0.0" fill="url(#shape_35_fill)"/>
    <path d="M 451.6824951171875 178.14886474609375 C 453.6112976074219 176.15200805664062 456.6242370605469 177.18856811523438 456.9239807128906 179.71707153320312 C 457.5853271484375 179.8128662109375 457.7062072753906 184.12115478515625 459.2644348144531 185.47927856445312 C 458.2525634765625 189.67849731445312 461.7614440917969 193.52378845214844 460.4073486328125 206.56272888183594 C 459.71343994140625 209.56919860839844 453.31451416015625 209.2191162109375 448.6267395019531 207.20263671875 C 441.5626525878906 207.6668701171875 440.5463562011719 209.3182373046875 433.5992431640625 211.00408935546875 C 432.5741271972656 209.6800079345703 437.4574279785156 189.2133331298828 439.7405700683594 185.0435028076172 C 441.26708984375 181.96820068359375 445.3972473144531 182.3780517578125 446.70758056640625 180.5981903076172 C 447.89483642578125 178.48533630371094 449.8678894042969 179.7434844970703 451.6824951171875 178.14886474609375" stroke-width="0.0" fill="url(#shape_36_fill)"/>
    <path d="M 557.82666015625 83.88645935058594 C 563.8128662109375 80.42320251464844 581.4848022460938 82.41102600097656 577.8680419921875 84.22978210449219 C 582.451416015625 83.19477844238281 586.6830444335938 84.64002990722656 586.93310546875 87.47071838378906 C 588.0829467773438 92.09538269042969 581.1482543945312 98.81837463378906 574.392333984375 100.01866149902344 C 573.7946166992188 99.34587860107422 548.5008544921875 96.86393737792969 540.5420532226562 85.85049438476562 C 538.8368530273438 85.1863784790039 537.8388061523438 81.84050750732422 536.3302612304688 78.56806945800781 C 544.9588012695312 76.24745178222656 551.53759765625 77.97956848144531 557.82666015625 83.88645935058594" stroke-width="0.0" fill="url(#shape_37_fill)"/>
    <path d="M 250.63101196289062 208.58982849121094 C 261.271728515625 211.39041137695312 258.43011474609375 245.8264617919922 258.6141357421875 247.39083862304688 C 255.50645446777344 254.0822296142578 249.99317932128906 253.36834716796875 245.794921875 255.82260131835938 C 236.0271759033203 241.63099670410156 243.12454223632812 211.42388916015625 250.63101196289062 208.58982849121094" stroke-width="0.0" fill="url(#shape_38_fill)"/>
    <path d="M 444.0236511230469 262.4789733886719 C 445.9469909667969 263.49273681640625 449.0868835449219 266.602294921875 447.6412048339844 270.09161376953125 C 443.9750061035156 270.32574462890625 442.5625305175781 276.9066467285156 441.0323181152344 279.77197265625 C 440.37921142578125 285.87774658203125 417.21575927734375 286.35137939453125 416.366455078125 279.9441223144531 C 414.7384338378906 276.94921875 413.2618408203125 273.914306640625 415.35467529296875 271.6714782714844 C 414.5712890625 269.82379150390625 418.2272033691406 261.1257019042969 424.91796875 260.62451171875 C 429.85699462890625 256.3183288574219 436.502685546875 258.3594055175781 444.0236511230469 262.4789733886719" stroke-width="0.0" fill="url(#shape_39_fill)"/>
    <path d="M 407.7405090332031 409.7694396972656 C 408.6876525878906 409.8802185058594 416.7671813964844 419.0187072753906 413.4435729980469 424.0464782714844 C 397.4326171875 433.1703796386719 380.75152587890625 421.4295349121094 377.4075012207031 420.2039489746094 C 369.8935852050781 417.60137939453125 372.0861511230469 416.9599914550781 373.3197021484375 411.9717102050781 C 379.03363037109375 403.9453430175781 398.4974365234375 403.5563049316406 407.7405090332031 409.7694396972656" stroke-width="0.0" fill="url(#shape_40_fill)"/>
    <path d="M 66.44588470458984 427.61175537109375 C 67.55860137939453 429.18951416015625 65.33531188964844 435.90283203125 59.943424224853516 436.26654052734375 C 58.56417465209961 437.2232360839844 41.69977951049805 437.5258483886719 32.76621627807617 443.8192443847656 C 29.224281311035156 443.7372131347656 24.18295669555664 447.3785400390625 17.0578670501709 443.65234375 C 16.54144287109375 440.63909912109375 17.604936599731445 439.2029113769531 16.690746307373047 437.3945617675781 C 33.4642219543457 428.38519287109375 56.823482513427734 426.66888427734375 66.44588470458984 427.61175537109375" stroke-width="0.0" fill="url(#shape_41_fill)"/>
    <path d="M 278.6850891113281 384.267333984375 C 282.0909729003906 383.9829406738281 294.3599853515625 384.58624267578125 296.59588623046875 388.9044494628906 C 297.10955810546875 395.253662109375 299.72607421875 400.58905029296875 294.26263427734375 403.7860107421875 C 291.7533264160156 398.1275939941406 264.1409606933594 402.60693359375 257.90496826171875 403.4593200683594 C 254.32638549804688 402.2757568359375 253.43612670898438 390.94012451171875 256.9259338378906 386.77154541015625 C 264.2770690917969 384.5054931640625 270.0796813964844 384.7155456542969 278.6850891113281 384.267333984375" stroke-width="0.0" fill="url(#shape_42_fill)"/>
    <path d="M 219.260498046875 221.88279724121094 C 223.4555206298828 220.67779541015625 229.4856414794922 220.84268188476562 234.8348846435547 222.3684844970703 C 237.60186767578125 225.58047485351562 243.35238647460938 243.23260498046875 240.81787109375 256.2976379394531 C 237.997314453125 261.599365234375 230.48036193847656 261.78179931640625 220.4593505859375 261.8009948730469 C 215.64801025390625 259.7992248535156 215.20668029785156 259.0361328125 217.71302795410156 248.0506591796875 C 219.5402069091797 246.4781951904297 217.8647003173828 226.4058074951172 219.260498046875 221.88279724121094" stroke-width="0.0" fill="url(#shape_43_fill)"/>
    <path d="M 483.99761962890625 395.3980712890625 C 486.82952880859375 399.7991943359375 485.8556823730469 400.9895324707031 483.5583801269531 401.2603454589844 C 474.7309875488281 407.0635070800781 450.7708435058594 407.03472900390625 450.6318664550781 407.4274597167969 C 448.0401306152344 404.42132568359375 451.5955505371094 396.1766052246094 453.610595703125 396.47125244140625 C 462.6415710449219 393.381591796875 474.0082702636719 393.037353515625 483.99761962890625 395.3980712890625" stroke-width="0.0" fill="url(#shape_44_fill)"/>
    <path d="M 46.03386306762695 406.5035705566406 C 45.50485610961914 409.3985595703125 36.046592712402344 412.3235168457031 35.19155502319336 414.5261535644531 C 32.88107681274414 414.7513122558594 32.55668640136719 416.207763671875 29.753446578979492 416.707763671875 C 28.14532470703125 418.13623046875 25.260828018188477 418.1583251953125 21.803987503051758 421.1313781738281 C 16.29668426513672 420.10595703125 1.8477399349212646 416.7689514160156 -1.155521035194397 420.684326171875 C 0.8047676682472229 419.5928955078125 -0.37133073806762695 410.3245849609375 1.6358140707015991 409.9444274902344 C 8.044832229614258 408.6380310058594 44.442867279052734 407.8635559082031 46.03386306762695 406.5035705566406" stroke-width="0.0" fill="url(#shape_45_fill)"/>
    <path d="M 452.0038146972656 175.2711181640625 C 456.6539001464844 174.65538024902344 465.0831298828125 197.5283966064453 464.6438903808594 202.1655731201172 C 462.5753479003906 209.65904235839844 451.69024658203125 209.63905334472656 449.4757385253906 206.778564453125 C 448.3284912109375 203.24908447265625 449.0526428222656 198.3125762939453 448.8456726074219 195.3010711669922 C 447.94049072265625 194.5437469482422 447.6111755371094 192.19725036621094 448.4980773925781 187.7365264892578 C 450.25592041015625 186.52467346191406 449.5997009277344 183.23098754882812 452.0038146972656 175.2711181640625" stroke-width="0.0" fill="url(#shape_46_fill)"/>
    <path d="M 374.9122314453125 185.22628784179688 C 378.628173828125 190.18588256835938 378.9384765625 205.48892211914062 372.8973388671875 206.594970703125 C 365.8646545410156 206.82693481445312 364.7731628417969 204.85226440429688 361.767333984375 203.37911987304688 C 353.8546142578125 204.6229248046875 351.736328125 200.53565979003906 354.5351257324219 188.3498992919922 C 356.63934326171875 184.94839477539062 358.3641662597656 184.4130096435547 366.1630859375 185.36045837402344 C 369.0810546875 184.45822143554688 373.9031677246094 182.62515258789062 374.9122314453125 185.22628784179688" stroke-width="0.0" fill="url(#shape_47_fill)"/>
    <path d="M 470.5890197753906 267.5293273925781 C 472.97747802734375 268.0881042480469 476.9047546386719 269.22869873046875 475.8153076171875 283.50994873046875 C 464.7893981933594 286.9562683105469 456.5840148925781 284.52569580078125 444.2965087890625 284.77154541015625 C 439.3111572265625 282.1993408203125 439.996337890625 276.9554138183594 441.2383117675781 276.49749755859375 C 447.4117736816406 266.55908203125 455.4620666503906 267.0179748535156 470.5890197753906 267.5293273925781" stroke-width="0.0" fill="url(#shape_48_fill)"/>
    <path d="M 176.6901397705078 118.81739044189453 C 179.20335388183594 116.29122924804688 181.92230224609375 116.96540832519531 183.427734375 117.47241973876953 C 184.69715881347656 120.20701599121094 183.85382080078125 122.34446716308594 185.11903381347656 126.18204498291016 C 181.3194580078125 131.66488647460938 187.2787322998047 136.3689727783203 186.70846557617188 144.42755126953125 C 183.50205993652344 149.81625366210938 174.43231201171875 147.63092041015625 170.32443237304688 148.1475067138672 C 170.61094665527344 126.23723602294922 169.41073608398438 122.43599700927734 176.6901397705078 118.81739044189453" stroke-width="0.0" fill="url(#shape_49_fill)"/>
    <path d="M 334.1292419433594 427.441650390625 C 337.715576171875 428.28887939453125 340.76104736328125 429.3925476074219 342.8445129394531 432.07098388671875 C 346.3591613769531 435.6022644042969 345.1616516113281 437.23138427734375 342.4828186035156 437.6109313964844 C 342.91864013671875 445.0060119628906 324.42510986328125 447.65460205078125 322.33514404296875 440.5188293457031 C 316.9400634765625 439.6383361816406 315.9269104003906 434.01092529296875 315.34588623046875 429.9266052246094 C 321.1959533691406 424.83612060546875 328.2373046875 425.03350830078125 334.1292419433594 427.441650390625" stroke-width="0.0" fill="url(#shape_50_fill)"/>
    <path d="M 296.9935607910156 390.4101867675781 C 298.45574951171875 394.7192687988281 296.2560729980469 399.5172119140625 288.9962463378906 399.20733642578125 C 284.2987365722656 397.3739318847656 281.8006591796875 398.83343505859375 271.4004211425781 402.70697021484375 C 271.03125 401.6214599609375 269.4954833984375 399.0010681152344 270.9452819824219 397.4793701171875 C 269.8752136230469 395.49224853515625 272.89129638671875 387.98114013671875 277.6327209472656 388.6935119628906 C 283.3417053222656 386.5705871582031 288.9331970214844 387.95489501953125 296.9935607910156 390.4101867675781" stroke-width="0.0" fill="url(#shape_51_fill)"/>
    <path d="M 269.7493896484375 188.19366455078125 C 277.5718688964844 194.19387817382812 278.8972473144531 206.1193084716797 280.6634826660156 215.19786071777344 C 271.6665344238281 210.8919677734375 267.6216735839844 208.4164581298828 261.0463562011719 214.7425994873047 C 259.658203125 205.80787658691406 263.9874267578125 197.13919067382812 265.55450439453125 194.79283142089844 C 269.4033508300781 194.3317413330078 269.13409423828125 191.78921508789062 269.7493896484375 188.19366455078125" stroke-width="0.0" fill="url(#shape_52_fill)"/>
    <path d="M 218.14093017578125 409.65802001953125 C 216.00320434570312 411.0194091796875 215.44583129882812 413.08233642578125 214.32887268066406 414.4303283691406 C 213.6349639892578 418.393798828125 188.9390106201172 421.81787109375 187.48316955566406 415.66705322265625 C 186.2743682861328 408.2803955078125 205.68377685546875 401.5232849121094 218.14093017578125 409.65802001953125" stroke-width="0.0" fill="url(#shape_53_fill)"/>
    <path d="M 205.75547790527344 424.560302734375 C 205.35244750976562 425.42340087890625 206.22019958496094 428.634521484375 204.5413360595703 429.50885009765625 C 200.1925048828125 433.508544921875 178.84194946289062 433.4168395996094 177.90196228027344 432.8138427734375 C 176.66891479492188 430.9568786621094 178.12452697753906 425.9559326171875 176.692626953125 423.9122009277344 C 187.15098571777344 420.4695739746094 197.154296875 422.04705810546875 205.75547790527344 424.560302734375" stroke-width="0.0" fill="url(#shape_54_fill)"/>
    <path d="M 270.6366271972656 245.17425537109375 C 275.42120361328125 244.65646362304688 276.6658020019531 245.79312133789062 281.4774169921875 245.91075134277344 C 281.03033447265625 250.5957489013672 279.9224853515625 253.78955078125 281.8675231933594 258.47637939453125 C 263.46392822265625 257.8625793457031 262.9245300292969 257.1495666503906 255.50209045410156 256.1012268066406 C 254.87733459472656 248.1715545654297 255.8529510498047 247.2288360595703 258.3060302734375 244.7418212890625 C 259.8456726074219 239.49684143066406 265.8468933105469 240.5773162841797 270.6366271972656 245.17425537109375" stroke-width="0.0" fill="url(#shape_55_fill)"/>
    <path d="M 271.4046936035156 362.7145690917969 C 276.9533386230469 364.8697814941406 281.7298889160156 363.37164306640625 284.46002197265625 368.1211242675781 C 285.4123840332031 369.25482177734375 285.4697570800781 371.701904296875 284.2644348144531 378.53765869140625 C 276.79742431640625 378.46771240234375 265.478271484375 380.963623046875 253.40277099609375 379.3111572265625 C 249.72860717773438 375.85064697265625 251.2463836669922 366.746826171875 252.52572631835938 365.3729248046875 C 258.82501220703125 363.88525390625 265.2027587890625 363.033935546875 271.4046936035156 362.7145690917969" stroke-width="0.0" fill="url(#shape_56_fill)"/>
    <path d="M 409.35546875 271.2565612792969 C 413.4371032714844 270.08673095703125 417.04833984375 274.83978271484375 417.1906433105469 281.9619445800781 C 412.8628234863281 289.072509765625 401.8587951660156 285.6756286621094 390.161376953125 286.6987609863281 C 388.52484130859375 272.9339599609375 397.17486572265625 267.31976318359375 409.35546875 271.2565612792969" stroke-width="0.0" fill="url(#shape_57_fill)"/>
    <path d="M 632.4447021484375 352.2016296386719 C 632.50341796875 353.3098449707031 660.0012817382812 353.14459228515625 668.6942749023438 353.2603759765625 C 668.4667358398438 358.3772888183594 662.3839721679688 360.908447265625 656.5472412109375 357.84991455078125 C 653.9148559570312 357.7499694824219 634.05224609375 360.9771423339844 631.4237060546875 361.11962890625 C 627.7457275390625 357.14892578125 629.281494140625 353.5602111816406 632.4447021484375 352.2016296386719" stroke-width="0.0" fill="url(#shape_58_fill)"/>
    <path d="M 341.3002624511719 385.28472900390625 C 342.7113952636719 390.3708801269531 358.1080322265625 391.8717346191406 359.1725158691406 394.8277282714844 C 356.4172058105469 399.5345153808594 340.9023742675781 402.32415771484375 338.4567565917969 399.5127258300781 C 335.1419677734375 399.6014404296875 333.0888671875 398.77001953125 331.8780822753906 396.533447265625 C 331.9852294921875 394.939208984375 330.7611999511719 393.47442626953125 332.4372863769531 390.6318359375 C 333.931884765625 385.553466796875 337.83154296875 386.1381530761719 341.3002624511719 385.28472900390625" stroke-width="0.0" fill="url(#shape_59_fill)"/>
    <path d="M 459.5257263183594 364.3059387207031 C 463.3691711425781 364.7061462402344 471.6867370605469 368.7938232421875 472.9053649902344 373.3804626464844 C 471.7228088378906 376.87738037109375 470.4310607910156 376.2201232910156 463.04498291015625 375.96026611328125 C 460.5654602050781 376.28546142578125 455.72650146484375 377.2080078125 453.000732421875 370.47064208984375 C 452.48834228515625 369.2298583984375 458.8797607421875 365.12725830078125 459.5257263183594 364.3059387207031" stroke-width="0.0" fill="url(#shape_60_fill)"/>
    <path d="M 436.6217346191406 432.9039306640625 C 440.2838134765625 434.2395935058594 442.4932556152344 436.3208923339844 441.9902648925781 439.128662109375 C 440.5061950683594 442.44244384765625 430.212890625 441.1820068359375 425.8794250488281 442.5219421386719 C 422.54296875 438.0727844238281 424.1483154296875 434.455078125 423.23858642578125 432.0477294921875 C 428.4109191894531 430.95062255859375 433.7586975097656 431.6790771484375 436.6217346191406 432.9039306640625" stroke-width="0.0" fill="url(#shape_61_fill)"/>
    <path d="M 185.43106079101562 411.45556640625 C 186.26112365722656 413.93170166015625 185.01014709472656 414.7928771972656 186.91700744628906 417.9200744628906 C 184.85031127929688 420.11865234375 183.41851806640625 419.55126953125 182.30125427246094 419.64251708984375 C 180.59091186523438 420.747802734375 175.15213012695312 420.3963317871094 171.13851928710938 420.29168701171875 C 169.51304626464844 417.9213562011719 169.74383544921875 415.63555908203125 172.27769470214844 414.18634033203125 C 176.42861938476562 412.0791320800781 180.5309600830078 410.9819030761719 185.43106079101562 411.45556640625" stroke-width="0.0" fill="url(#shape_62_fill)"/>
    <path d="M 332.63568115234375 418.23712158203125 C 334.978271484375 426.2254638671875 329.916259765625 428.0751953125 327.2950439453125 426.16839599609375 C 324.6141662597656 427.7880859375 323.00946044921875 426.74774169921875 320.32012939453125 427.69219970703125 C 318.67608642578125 426.05322265625 319.595458984375 419.99481201171875 317.7966613769531 418.4154052734375 C 323.4104919433594 420.21124267578125 326.6943054199219 418.9496765136719 332.63568115234375 418.23712158203125" stroke-width="0.0" fill="url(#shape_63_fill)"/>
    <path d="M 55.370418548583984 273.65667724609375 C 56.47695541381836 270.5101013183594 66.06230163574219 271.7768249511719 66.3321304321289 279.71453857421875 C 60.76856231689453 278.4156494140625 53.68393325805664 273.843017578125 47.89237976074219 276.2373352050781 C 49.301727294921875 272.8067932128906 52.25862503051758 272.2541809082031 55.370418548583984 273.65667724609375" stroke-width="0.0" fill="url(#shape_64_fill)"/>
    <path d="M 304.2752380371094 438.5412902832031 C 304.4410400390625 437.0085754394531 305.798828125 436.0440673828125 313.1553649902344 436.8910827636719 C 314.78961181640625 438.93353271484375 313.26910400390625 441.7328796386719 311.5929870605469 443.77288818359375 C 307.8499755859375 445.4422912597656 306.7850036621094 444.2425537109375 304.8681640625 445.4640197753906 C 303.0492248535156 441.5146179199219 302.259765625 439.46240234375 304.2752380371094 438.5412902832031" stroke-width="0.0" fill="url(#shape_65_fill)"/>
    <path d="M 0.7775375843048096 -0.2393222600221634 C 223.80677795410156 0.05120650678873062 443.68157958984375 0.4844428598880768 673.4675903320312 0.9095550179481506 C 674.1698608398438 149.89259338378906 674.5467529296875 294.73858642578125 673.4578857421875 445.3528137207031 C 450.38800048828125 446.0229187011719 230.974609375 445.98681640625 0.7014608979225159 445.2142639160156 C 0.27556392550468445 296.8935852050781 -0.03697232902050018 149.18157958984375 0.7775375843048096 -0.2393222600221634" stroke-width="0.0" fill="url(#shape_66_fill)"/>
    <path d="M -0.4512408375740051 0.23185382783412933 C 222.62408447265625 0.0314473956823349 443.5394287109375 0.40496450662612915 673.4635620117188 0.6744846105575562 C 674.250244140625 150.06491088867188 674.576904296875 294.4357604980469 673.2830200195312 445.1781311035156 C 450.08001708984375 445.99359130859375 231.23663330078125 445.9532165527344 0.8488146662712097 445.06671142578125 C 0.2769443392753601 296.6016845703125 -0.15492777526378632 148.47125244140625 -0.4512408375740051 0.23185382783412933" stroke-width="0.0" fill="url(#shape_67_fill)"/>
    <path d="M -0.6415385007858276 -0.10799189656972885 C 223.07774353027344 -0.26109933853149414 443.47174072265625 0.26237159967422485 673.4450073242188 0.02708139270544052 C 674.230224609375 150.15382385253906 674.5752563476562 294.4744567871094 673.2891235351562 445.1610107421875 C 450.10040283203125 446.007568359375 231.30091857910156 445.9595947265625 1.2196147441864014 445.0426330566406 C 0.3955978453159332 296.0836486816406 -0.00890300702303648 149.0866241455078 -0.6415385007858276 -0.10799189656972885" stroke-width="0.0" fill="url(#shape_68_fill)"/>
  </g>
</svg>
