<?xml version="1.0" ?>
<svg xmlns="http://www.w3.org/2000/svg" version="1.1" width="674" height="446">
  <defs>
    <radialGradient id="shape_0_fill" cx="0.5326194876379359" cy="0.7400709075243483" r="0.2805307088336888">
      <stop offset="0.7205378" stop-color="rgb(158, 172, 0)" stop-opacity="0.8426437973976135"/>
      <stop offset="1.0" stop-color="rgb(49, 45, 0)" stop-opacity="1.0"/>
    </radialGradient>
    <radialGradient id="shape_1_fill" cx="0.5343467644484885" cy="0.7436962042154218" r="0.20656581165528792">
      <stop offset="0.4895898" stop-color="rgb(69, 66, 70)" stop-opacity="0.7658661007881165"/>
      <stop offset="1.0" stop-color="rgb(34, 12, 0)" stop-opacity="0.6167095899581909"/>
    </radialGradient>
    <radialGradient id="shape_2_fill" cx="0.09792273546892387" cy="0.7376672719091578" r="0.22062588021026522">
      <stop offset="0.0016650365" stop-color="rgb(35, 95, 181)" stop-opacity="0.9621257781982422"/>
      <stop offset="0.9889844" stop-color="rgb(6, 96, 255)" stop-opacity="0.9121375679969788"/>
    </radialGradient>
    <radialGradient id="shape_3_fill" cx="0.2776806658736322" cy="0.2153663293128591" r="0.1304840631230295">
      <stop offset="0.39854133" stop-color="rgb(129, 181, 0)" stop-opacity="0.7702940702438354"/>
      <stop offset="1.0" stop-color="rgb(36, 36, 0)" stop-opacity="0.936556875705719"/>
    </radialGradient>
    <radialGradient id="shape_4_fill" cx="0.1543026706231454" cy="0.9977578475336323" r="0.10288926755639141">
      <stop offset="0.0" stop-color="rgb(81, 79, 86)" stop-opacity="1.0"/>
      <stop offset="1.0" stop-color="rgb(58, 53, 72)" stop-opacity="0.8773319125175476"/>
    </radialGradient>
    <radialGradient id="shape_5_fill" cx="0.14807964290992442" cy="0.23997249517740155" r="0.11810664960821587">
      <stop offset="0.0" stop-color="rgb(255, 255, 255)" stop-opacity="0.6465655565261841"/>
      <stop offset="0.5626593" stop-color="rgb(255, 255, 255)" stop-opacity="0.5345945954322815"/>
    </radialGradient>
    <radialGradient id="shape_6_fill" cx="0.18397626112759644" cy="0.9977578475336323" r="0.0754974885934892">
      <stop offset="0.0" stop-color="rgb(93, 90, 94)" stop-opacity="1.0"/>
      <stop offset="1.0" stop-color="rgb(144, 127, 131)" stop-opacity="0.9063119292259216"/>
    </radialGradient>
    <radialGradient id="shape_7_fill" cx="0.2893175074183976" cy="0.05829596412556054" r="0.08666390552011372">
      <stop offset="0.0" stop-color="rgb(55, 66, 29)" stop-opacity="1.0"/>
      <stop offset="1.0" stop-color="rgb(114, 128, 51)" stop-opacity="0.5659800171852112"/>
    </radialGradient>
    <radialGradient id="shape_8_fill" cx="0.3382789091115889" cy="0.9439461883408071" r="0.06756690277190167">
      <stop offset="0.0" stop-color="rgb(91, 124, 45)" stop-opacity="1.0"/>
      <stop offset="1.0" stop-color="rgb(106, 160, 38)" stop-opacity="0.6396335363388062"/>
    </radialGradient>
    <radialGradient id="shape_9_fill" cx="0.30712166172106825" cy="0.9977578475336323" r="0.0730758406641929">
      <stop offset="0.0" stop-color="rgb(38, 48, 20)" stop-opacity="1.0"/>
      <stop offset="1.0" stop-color="rgb(33, 31, 50)" stop-opacity="1.0"/>
    </radialGradient>
    <radialGradient id="shape_10_fill" cx="0.3056379821958457" cy="0.9977578475336323" r="0.06792919147615971">
      <stop offset="0.0" stop-color="rgb(39, 49, 21)" stop-opacity="1.0"/>
      <stop offset="1.0" stop-color="rgb(34, 14, 0)" stop-opacity="0.6608753800392151"/>
    </radialGradient>
    <radialGradient id="shape_11_fill" cx="0.21810089020771514" cy="0.968609865470852" r="0.06792919147615971">
      <stop offset="0.0" stop-color="rgb(138, 135, 129)" stop-opacity="1.0"/>
      <stop offset="1.0" stop-color="rgb(137, 102, 71)" stop-opacity="0.45836031436920166"/>
    </radialGradient>
    <radialGradient id="shape_12_fill" cx="0.29080118694362017" cy="0.9977578475336323" r="0.07480746985189285">
      <stop offset="0.0" stop-color="rgb(22, 25, 13)" stop-opacity="1.0"/>
      <stop offset="1.0" stop-color="rgb(37, 35, 12)" stop-opacity="1.0"/>
    </radialGradient>
    <radialGradient id="shape_13_fill" cx="0.327893175074184" cy="0.8923766816143498" r="0.06900465877544279">
      <stop offset="0.0" stop-color="rgb(89, 117, 50)" stop-opacity="1.0"/>
      <stop offset="1.0" stop-color="rgb(93, 127, 7)" stop-opacity="0.6458168029785156"/>
    </radialGradient>
    <radialGradient id="shape_14_fill" cx="0.142433234421365" cy="0.9977578475336323" r="0.06617211022079875">
      <stop offset="0.0" stop-color="rgb(155, 150, 153)" stop-opacity="1.0"/>
      <stop offset="1.0" stop-color="rgb(255, 183, 168)" stop-opacity="0.2299489974975586"/>
    </radialGradient>
    <radialGradient id="shape_15_fill" cx="0.31008902077151335" cy="0.9977578475336323" r="0.06683642786405207">
      <stop offset="0.0" stop-color="rgb(43, 55, 23)" stop-opacity="1.0"/>
      <stop offset="1.0" stop-color="rgb(59, 67, 20)" stop-opacity="0.8995784521102905"/>
    </radialGradient>
    <radialGradient id="shape_16_fill" cx="0.27299703264094954" cy="0.9977578475336323" r="0.08110449363640579">
      <stop offset="0.0" stop-color="rgb(31, 35, 19)" stop-opacity="1.0"/>
      <stop offset="1.0" stop-color="rgb(30, 28, 0)" stop-opacity="0.953784704208374"/>
    </radialGradient>
    <radialGradient id="shape_17_fill" cx="0.2893175074183976" cy="0.9977578475336323" r="0.07513486030193747">
      <stop offset="0.0" stop-color="rgb(22, 23, 13)" stop-opacity="1.0"/>
      <stop offset="1.0" stop-color="rgb(23, 21, 0)" stop-opacity="0.8642333149909973"/>
    </radialGradient>
    <radialGradient id="shape_18_fill" cx="0.3293768545994065" cy="0.7556053811659192" r="0.06617211022079875">
      <stop offset="0.0" stop-color="rgb(83, 108, 65)" stop-opacity="1.0"/>
      <stop offset="1.0" stop-color="rgb(107, 129, 60)" stop-opacity="0.981407880783081"/>
    </radialGradient>
    <radialGradient id="shape_19_fill" cx="0.3516320474777448" cy="0.9977578475336323" r="0.06617211022079875">
      <stop offset="0.0" stop-color="rgb(95, 135, 39)" stop-opacity="1.0"/>
      <stop offset="1.0" stop-color="rgb(132, 192, 0)" stop-opacity="0.6733485460281372"/>
    </radialGradient>
    <radialGradient id="shape_20_fill" cx="0.0830860534124629" cy="0.9977578475336323" r="0.06792919147615971">
      <stop offset="0.0" stop-color="rgb(49, 52, 66)" stop-opacity="1.0"/>
      <stop offset="1.0" stop-color="rgb(38, 25, 61)" stop-opacity="0.43308600783348083"/>
    </radialGradient>
    <radialGradient id="shape_21_fill" cx="0.29821958456973297" cy="0.9977578475336323" r="0.06792919147615971">
      <stop offset="0.0" stop-color="rgb(33, 40, 17)" stop-opacity="1.0"/>
      <stop offset="1.0" stop-color="rgb(45, 60, 0)" stop-opacity="0.7301236987113953"/>
    </radialGradient>
    <radialGradient id="shape_22_fill" cx="0.3563326600751113" cy="0.44372438849889645" r="0.06594546966099951">
      <stop offset="0.52384716" stop-color="rgb(105, 136, 35)" stop-opacity="0.9775896668434143"/>
      <stop offset="0.38891605" stop-color="rgb(146, 178, 40)" stop-opacity="0.9138906002044678"/>
    </radialGradient>
    <radialGradient id="shape_23_fill" cx="0.6454005934718101" cy="0.1412556053811659" r="0.06617211022079875">
      <stop offset="0.0" stop-color="rgb(46, 38, 13)" stop-opacity="1.0"/>
      <stop offset="1.0" stop-color="rgb(52, 30, 0)" stop-opacity="0.8814826011657715"/>
    </radialGradient>
    <radialGradient id="shape_24_fill" cx="0.2492550586734398" cy="0.4843076355254169" r="0.06616971047059012">
      <stop offset="0.0" stop-color="rgb(205, 213, 206)" stop-opacity="1.0"/>
      <stop offset="0.924641" stop-color="rgb(255, 255, 255)" stop-opacity="0.5587109923362732"/>
    </radialGradient>
    <radialGradient id="shape_25_fill" cx="0.6320474777448071" cy="0.9977578475336323" r="0.06617211022079875">
      <stop offset="0.0" stop-color="rgb(35, 28, 8)" stop-opacity="1.0"/>
      <stop offset="1.0" stop-color="rgb(38, 15, 0)" stop-opacity="0.5720320343971252"/>
    </radialGradient>
    <radialGradient id="shape_26_fill" cx="0.15414520399506793" cy="0.3207086811151205" r="0.06604698362265567">
      <stop offset="0.11989566" stop-color="rgb(198, 211, 155)" stop-opacity="1.0"/>
      <stop offset="0.58338004" stop-color="rgb(127, 120, 135)" stop-opacity="0.13143035769462585"/>
    </radialGradient>
    <radialGradient id="shape_27_fill" cx="0.15410647972401242" cy="0.3208032787648017" r="0.06604505929465818">
      <stop offset="0.0" stop-color="rgb(192, 205, 0)" stop-opacity="1.0"/>
      <stop offset="0.49375948" stop-color="rgb(73, 67, 40)" stop-opacity="0.5777255296707153"/>
    </radialGradient>
    <radialGradient id="shape_28_fill" cx="0.03535922981511238" cy="0.01670018332956083" r="0.06978162884358483">
      <stop offset="0.11304149" stop-color="rgb(7, 24, 117)" stop-opacity="0.958080530166626"/>
      <stop offset="0.8239699" stop-color="rgb(7, 26, 158)" stop-opacity="0.7484700083732605"/>
    </radialGradient>
    <radialGradient id="shape_29_fill" cx="0.33976258863681147" cy="0.6659192825112108" r="0.06617211022079875">
      <stop offset="0.0" stop-color="rgb(90, 117, 55)" stop-opacity="1.0"/>
      <stop offset="1.0" stop-color="rgb(106, 135, 27)" stop-opacity="0.8688023686408997"/>
    </radialGradient>
    <radialGradient id="shape_30_fill" cx="0.03934366129979889" cy="0.016286032082254043" r="0.06899595968093646">
      <stop offset="0.17645064" stop-color="rgb(49, 74, 75)" stop-opacity="1.0"/>
      <stop offset="0.9349971" stop-color="rgb(61, 65, 0)" stop-opacity="0.5087894201278687"/>
    </radialGradient>
    <radialGradient id="shape_31_fill" cx="0.12314540059347182" cy="0.9977578475336323" r="0.06617211022079875">
      <stop offset="0.0" stop-color="rgb(95, 103, 98)" stop-opacity="1.0"/>
      <stop offset="1.0" stop-color="rgb(133, 122, 110)" stop-opacity="0.7396408915519714"/>
    </radialGradient>
    <radialGradient id="shape_32_fill" cx="0.4035608308605341" cy="0.984304932735426" r="0.06617211022079875">
      <stop offset="0.0" stop-color="rgb(126, 155, 63)" stop-opacity="1.0"/>
      <stop offset="1.0" stop-color="rgb(127, 117, 27)" stop-opacity="0.9455865025520325"/>
    </radialGradient>
    <radialGradient id="shape_33_fill" cx="0.3249258160237389" cy="0.6053811659192825" r="0.06617211022079875">
      <stop offset="1.5516447e-05" stop-color="rgb(93, 124, 71)" stop-opacity="0.9998107552528381"/>
      <stop offset="1.0" stop-color="rgb(124, 147, 58)" stop-opacity="1.0"/>
    </radialGradient>
    <radialGradient id="shape_34_fill" cx="0.6468842729970327" cy="0.531390134529148" r="0.06617211022079875">
      <stop offset="0.0" stop-color="rgb(54, 47, 24)" stop-opacity="1.0"/>
      <stop offset="1.0" stop-color="rgb(49, 14, 27)" stop-opacity="0.4056715965270996"/>
    </radialGradient>
    <radialGradient id="shape_35_fill" cx="0.14856654317159682" cy="0.24025214841012998" r="0.06910026957797721">
      <stop offset="0.08646938" stop-color="rgb(204, 255, 92)" stop-opacity="0.14953890442848206"/>
      <stop offset="0.5822954" stop-color="rgb(103, 76, 62)" stop-opacity="0.825635552406311"/>
    </radialGradient>
    <radialGradient id="shape_36_fill" cx="0.2878338278931751" cy="0.9977578475336323" r="0.06617211022079875">
      <stop offset="0.0" stop-color="rgb(80, 96, 53)" stop-opacity="1.0"/>
      <stop offset="1.0" stop-color="rgb(32, 32, 0)" stop-opacity="0.7771943807601929"/>
    </radialGradient>
    <radialGradient id="shape_37_fill" cx="0.129080118694362" cy="0.9977578475336323" r="0.06617211022079875">
      <stop offset="0.0" stop-color="rgb(87, 97, 81)" stop-opacity="1.0"/>
      <stop offset="1.0" stop-color="rgb(67, 73, 57)" stop-opacity="0.6062851548194885"/>
    </radialGradient>
    <radialGradient id="shape_38_fill" cx="0.33892324204260943" cy="0.5607740119968294" r="0.0666785763703751">
      <stop offset="0.7501433" stop-color="rgb(83, 110, 24)" stop-opacity="0.9178591370582581"/>
      <stop offset="0.6022492" stop-color="rgb(165, 254, 77)" stop-opacity="0.8717733025550842"/>
    </radialGradient>
    <radialGradient id="shape_39_fill" cx="0.40059347181008903" cy="0.9641255605381166" r="0.06617211022079875">
      <stop offset="0.0" stop-color="rgb(138, 168, 60)" stop-opacity="1.0"/>
      <stop offset="1.0" stop-color="rgb(212, 251, 83)" stop-opacity="0.975510835647583"/>
    </radialGradient>
    <radialGradient id="shape_40_fill" cx="0.611910539847807" cy="0.8765256052059978" r="0.070976512014689">
      <stop offset="0.38049108" stop-color="rgb(154, 136, 173)" stop-opacity="0.3052680790424347"/>
      <stop offset="0.5066774" stop-color="rgb(2, 12, 67)" stop-opacity="0.9227483868598938"/>
    </radialGradient>
    <radialGradient id="shape_41_fill" cx="0.6454005934718101" cy="0.08744394618834081" r="0.06617211022079875">
      <stop offset="0.0" stop-color="rgb(58, 48, 21)" stop-opacity="1.0"/>
      <stop offset="1.0" stop-color="rgb(90, 62, 22)" stop-opacity="0.999904215335846"/>
    </radialGradient>
    <radialGradient id="shape_42_fill" cx="0.5845697329376854" cy="0.6188340807174888" r="0.06617211022079875">
      <stop offset="0.0" stop-color="rgb(62, 59, 56)" stop-opacity="1.0"/>
      <stop offset="1.0" stop-color="rgb(41, 35, 78)" stop-opacity="0.63206547498703"/>
    </radialGradient>
    <radialGradient id="shape_43_fill" cx="0.354748643824184" cy="0.5018584247127242" r="0.06989395866054456">
      <stop offset="0.24462199" stop-color="rgb(117, 153, 48)" stop-opacity="0.9019644856452942"/>
      <stop offset="0.59685695" stop-color="rgb(201, 255, 22)" stop-opacity="0.7580654621124268"/>
    </radialGradient>
    <radialGradient id="shape_44_fill" cx="0.5934718100890207" cy="0.9977578475336323" r="0.06617211022079875">
      <stop offset="0.0" stop-color="rgb(89, 61, 18)" stop-opacity="1.0"/>
      <stop offset="1.0" stop-color="rgb(162, 80, 3)" stop-opacity="0.7173820734024048"/>
    </radialGradient>
    <radialGradient id="shape_45_fill" cx="0.612759643916914" cy="0.04035874439461883" r="0.06617211022079875">
      <stop offset="0.0" stop-color="rgb(157, 136, 123)" stop-opacity="1.0"/>
      <stop offset="1.0" stop-color="rgb(255, 218, 201)" stop-opacity="1.0"/>
    </radialGradient>
    <radialGradient id="shape_46_fill" cx="0.28635014836795253" cy="0.9977578475336323" r="0.06617211022079875">
      <stop offset="0.0" stop-color="rgb(82, 99, 55)" stop-opacity="1.0"/>
      <stop offset="1.0" stop-color="rgb(90, 102, 28)" stop-opacity="0.5849201679229736"/>
    </radialGradient>
    <radialGradient id="shape_47_fill" cx="0.28635014836795253" cy="0.8183856502242153" r="0.06617211022079875">
      <stop offset="0.0" stop-color="rgb(166, 189, 197)" stop-opacity="1.0"/>
      <stop offset="1.0" stop-color="rgb(244, 255, 255)" stop-opacity="0.44640371203422546"/>
    </radialGradient>
    <radialGradient id="shape_48_fill" cx="0.40801186943620177" cy="0.9977578475336323" r="0.06617211022079875">
      <stop offset="0.0" stop-color="rgb(107, 135, 68)" stop-opacity="1.0"/>
      <stop offset="1.0" stop-color="rgb(126, 140, 55)" stop-opacity="1.0"/>
    </radialGradient>
    <radialGradient id="shape_49_fill" cx="0.19287833827893175" cy="0.3991031390134529" r="0.06617211022079875">
      <stop offset="0.0" stop-color="rgb(92, 100, 54)" stop-opacity="1.0"/>
      <stop offset="1.0" stop-color="rgb(57, 33, 0)" stop-opacity="0.5162949562072754"/>
    </radialGradient>
    <radialGradient id="shape_50_fill" cx="0.6439169139465876" cy="0.7376681614349776" r="0.06617211022079875">
      <stop offset="0.0" stop-color="rgb(65, 56, 25)" stop-opacity="1.0"/>
      <stop offset="1.0" stop-color="rgb(147, 182, 95)" stop-opacity="0.39946529269218445"/>
    </radialGradient>
    <radialGradient id="shape_51_fill" cx="0.5845697329376854" cy="0.6322869955156951" r="0.06617211022079875">
      <stop offset="0.0" stop-color="rgb(75, 68, 60)" stop-opacity="1.0"/>
      <stop offset="1.0" stop-color="rgb(156, 119, 95)" stop-opacity="0.5795385837554932"/>
    </radialGradient>
    <radialGradient id="shape_52_fill" cx="0.2997032640949555" cy="0.6031390134529148" r="0.06617211022079875">
      <stop offset="0.0" stop-color="rgb(107, 158, 118)" stop-opacity="1.0"/>
      <stop offset="1.0" stop-color="rgb(174, 255, 225)" stop-opacity="0.5457077026367188"/>
    </radialGradient>
    <radialGradient id="shape_53_fill" cx="0.6097922848664689" cy="0.45067264573991034" r="0.06617211022079875">
      <stop offset="0.0" stop-color="rgb(38, 39, 27)" stop-opacity="1.0"/>
      <stop offset="1.0" stop-color="rgb(19, 13, 58)" stop-opacity="0.3477495014667511"/>
    </radialGradient>
    <radialGradient id="shape_54_fill" cx="0.6335311572700296" cy="0.426009002822397" r="0.06617211022079875">
      <stop offset="0.0" stop-color="rgb(67, 49, 20)" stop-opacity="1.0"/>
      <stop offset="1.0" stop-color="rgb(152, 84, 28)" stop-opacity="0.5530936121940613"/>
    </radialGradient>
    <radialGradient id="shape_55_fill" cx="0.3707168533823257" cy="0.5988430827187851" r="0.066001377049115">
      <stop offset="0.43605936" stop-color="rgb(237, 255, 49)" stop-opacity="0.85210782289505"/>
      <stop offset="0.16089156" stop-color="rgb(215, 255, 0)" stop-opacity="0.7113264799118042"/>
    </radialGradient>
    <radialGradient id="shape_56_fill" cx="0.5489614243323442" cy="0.600896860986547" r="0.06617211022079875">
      <stop offset="0.0" stop-color="rgb(50, 62, 80)" stop-opacity="1.0"/>
      <stop offset="1.0" stop-color="rgb(26, 81, 255)" stop-opacity="0.40913277864456177"/>
    </radialGradient>
    <radialGradient id="shape_57_fill" cx="0.4094955489614243" cy="0.9035874439461884" r="0.06617211022079875">
      <stop offset="0.0" stop-color="rgb(111, 144, 47)" stop-opacity="1.0"/>
      <stop offset="1.0" stop-color="rgb(207, 255, 53)" stop-opacity="0.78248530626297"/>
    </radialGradient>
    <radialGradient id="shape_58_fill" cx="0.5281899109792285" cy="0.9977578475336323" r="0.06617211022079875">
      <stop offset="0.0" stop-color="rgb(50, 43, 14)" stop-opacity="1.0"/>
      <stop offset="1.0" stop-color="rgb(80, 57, 12)" stop-opacity="1.0"/>
    </radialGradient>
    <radialGradient id="shape_59_fill" cx="0.5845697329376854" cy="0.7690582959641256" r="0.06617211022079875">
      <stop offset="0.0" stop-color="rgb(61, 63, 58)" stop-opacity="1.0"/>
      <stop offset="1.0" stop-color="rgb(78, 73, 93)" stop-opacity="0.7091642618179321"/>
    </radialGradient>
    <radialGradient id="shape_60_fill" cx="0.5489614243323442" cy="0.9977578475336323" r="0.06617211022079875">
      <stop offset="0.0" stop-color="rgb(140, 131, 64)" stop-opacity="1.0"/>
      <stop offset="1.0" stop-color="rgb(232, 203, 91)" stop-opacity="0.9018721580505371"/>
    </radialGradient>
    <radialGradient id="shape_61_fill" cx="0.6469716601272719" cy="0.96866973740103" r="0.06610439651443979">
      <stop offset="0.46308798" stop-color="rgb(255, 207, 67)" stop-opacity="1.0"/>
      <stop offset="0.21280508" stop-color="rgb(196, 121, 42)" stop-opacity="0.6109564900398254"/>
    </radialGradient>
    <radialGradient id="shape_62_fill" cx="0.615727002967359" cy="0.3991031390134529" r="0.06617211022079875">
      <stop offset="0.0" stop-color="rgb(55, 47, 13)" stop-opacity="1.0"/>
      <stop offset="1.0" stop-color="rgb(77, 52, 3)" stop-opacity="0.9768968224525452"/>
    </radialGradient>
    <radialGradient id="shape_63_fill" cx="0.6261127596439169" cy="0.7286995515695067" r="0.06617211022079875">
      <stop offset="0.0" stop-color="rgb(79, 66, 32)" stop-opacity="1.0"/>
      <stop offset="1.0" stop-color="rgb(194, 198, 101)" stop-opacity="0.5591903328895569"/>
    </radialGradient>
    <radialGradient id="shape_64_fill" cx="0.40801186943620177" cy="0.12556053811659193" r="0.06617211022079875">
      <stop offset="0.0" stop-color="rgb(76, 66, 59)" stop-opacity="1.0"/>
      <stop offset="1.0" stop-color="rgb(122, 92, 90)" stop-opacity="1.0"/>
    </radialGradient>
    <radialGradient id="shape_65_fill" cx="0.6528189910979229" cy="0.6883408071748879" r="0.06617211022079875">
      <stop offset="0.0" stop-color="rgb(121, 97, 39)" stop-opacity="1.0"/>
      <stop offset="1.0" stop-color="rgb(255, 229, 94)" stop-opacity="1.0"/>
    </radialGradient>
    <radialGradient id="shape_66_fill" cx="0.6527200127213928" cy="0.4589726743142166" r="0.07054622095487238">
      <stop offset="0.23932694" stop-color="rgb(170, 203, 120)" stop-opacity="0.27532780170440674"/>
      <stop offset="0.89303887" stop-color="rgb(0, 5, 0)" stop-opacity="0.04925062134861946"/>
    </radialGradient>
    <radialGradient id="shape_67_fill" cx="0.596803297274898" cy="0.9950160552567965" r="0.07016839047214044">
      <stop offset="0.84031636" stop-color="rgb(52, 29, 0)" stop-opacity="0.687458872795105"/>
      <stop offset="1.0" stop-color="rgb(0, 7, 0)" stop-opacity="0.1502419114112854"/>
    </radialGradient>
    <radialGradient id="shape_68_fill" cx="0.4910981492401938" cy="0.9971650812123388" r="0.06827235575599558">
      <stop offset="0.3812734" stop-color="rgb(46, 18, 0)" stop-opacity="0.5182377696037292"/>
      <stop offset="1.0" stop-color="rgb(33, 63, 54)" stop-opacity="0.20126405358314514"/>
    </radialGradient>
  </defs>
  <g>
    <path d="M -0.13196317851543427 271.30889892578125 C 23.460012435913086 261.7392578125 41.0321044921875 263.711669921875 46.111785888671875 271.8686828613281 C 48.167083740234375 273.6850891113281 49.352508544921875 276.2164306640625 57.096466064453125 274.50555419921875 C 59.01857376098633 273.9232177734375 62.90116500854492 273.9445495605469 63.764381408691406 270.1642761230469 C 68.60891723632812 268.448974609375 99.77574157714844 269.98577880859375 116.69625091552734 270.356201171875 C 119.97439575195312 271.3005676269531 124.79957580566406 278.2661437988281 126.79171752929688 282.40777587890625 C 133.7813262939453 282.6181945800781 145.21499633789062 280.96002197265625 166.25465393066406 289.20660400390625 C 185.31114196777344 282.8727722167969 185.8688201904297 282.0401306152344 206.73106384277344 287.3090515136719 C 200.34568786621094 287.2919006347656 198.31565856933594 281.3240661621094 210.8888397216797 268.73089599609375 C 248.6540069580078 267.2316589355469 292.23236083984375 265.2456970214844 313.2496337890625 273.068603515625 C 349.4432067871094 274.7491455078125 426.4486083984375 275.50787353515625 474.6046447753906 267.35675048828125 C 505.0052185058594 263.00042724609375 547.4325561523438 263.62554931640625 547.26416015625 275.4001159667969 C 547.9562377929688 274.6947021484375 547.5223388671875 265.4692077636719 578.2430419921875 264.22198486328125 C 593.2423706054688 269.0423889160156 612.3270874023438 280.8744812011719 612.5023193359375 280.71746826171875 C 616.7350463867188 266.4876708984375 626.4810791015625 265.89324951171875 673.3699340820312 265.81781005859375 C 676.7343139648438 272.3026428222656 679.3678588867188 278.8277282714844 678.4677124023438 284.9035339355469 C 676.6197509765625 339.5271911621094 674.7130126953125 391.48992919921875 675.1177368164062 446.4668273925781 C 451.9151306152344 446.6697692871094 228.9889373779297 446.8115539550781 -0.4391384720802307 446.4240417480469 C -0.5079917907714844 389.1415710449219 -0.35166096687316895 332.34051513671875 -0.13196317851543427 271.30889892578125" stroke-width="0.0" fill="url(#shape_0_fill)"/>
    <path d="M -0.255776047706604 271.15081787109375 C 35.933753967285156 275.3935241699219 36.5576057434082 274.5857238769531 44.15293884277344 273.750244140625 C 46.27996063232422 266.68853759765625 59.141082763671875 266.2623596191406 79.03960418701172 267.616943359375 C 113.60730743408203 278.68035888671875 114.05365753173828 279.3109130859375 127.91793823242188 279.1399230957031 C 127.8200912475586 270.70416259765625 137.91473388671875 269.39715576171875 145.1036376953125 269.7008361816406 C 185.25515747070312 268.514404296875 185.98275756835938 268.98565673828125 203.9033966064453 273.0975646972656 C 203.12640380859375 292.1019287109375 204.00770568847656 292.37158203125 208.97061157226562 298.7951354980469 C 213.5601806640625 297.9571533203125 266.67578125 299.3330383300781 289.09173583984375 301.32708740234375 C 312.1063232421875 305.69091796875 445.1478576660156 303.8160705566406 460.6462707519531 304.65240478515625 C 478.52813720703125 294.0142517089844 491.4729919433594 292.0230407714844 504.5007629394531 287.089599609375 C 513.28369140625 288.83209228515625 520.9655151367188 286.6861267089844 523.0419921875 286.5491943359375 C 527.4388427734375 285.72808837890625 531.761962890625 285.9661560058594 534.673828125 287.1792907714844 C 540.2994384765625 287.12567138671875 540.7832641601562 288.4778137207031 549.3922119140625 305.8663330078125 C 579.4342041015625 290.6871337890625 581.5918579101562 291.1674499511719 598.9271240234375 296.4949645996094 C 616.6847534179688 289.26007080078125 626.9723510742188 288.1434326171875 634.402587890625 288.53631591796875 C 641.48193359375 276.551025390625 654.74951171875 280.2584228515625 673.7697143554688 292.5612487792969 C 674.241943359375 340.1849365234375 674.4920654296875 392.1274719238281 674.1581420898438 446.2807922363281 C 451.4774169921875 446.3905334472656 229.19664001464844 446.25439453125 -0.30765825510025024 446.2476501464844 C -0.21371296048164368 389.403564453125 -0.303739994764328 333.0140075683594 -0.255776047706604 271.15081787109375" stroke-width="0.0" fill="url(#shape_1_fill)"/>
    <path d="M -0.019932541996240616 -0.25989267230033875 C 219.69313049316406 0.1040392518043518 439.478759765625 -0.45242562890052795 673.1043701171875 -0.13301411271095276 C 666.0355224609375 10.943747520446777 644.7512817382812 35.083900451660156 637.5436401367188 49.070030212402344 C 634.6162719726562 53.26449966430664 611.3424072265625 92.1651840209961 583.9124145507812 83.78833770751953 C 577.93310546875 81.34293365478516 562.1079711914062 71.95013427734375 532.490478515625 74.12114715576172 C 532.1206665039062 78.63316345214844 526.1941528320312 79.3595199584961 522.17626953125 72.01235961914062 C 522.6749267578125 68.8688735961914 499.3327941894531 63.918914794921875 499.1889343261719 62.63960266113281 C 493.13836669921875 62.194801330566406 485.83489990234375 61.00093460083008 484.4465026855469 68.83154296875 C 475.24041748046875 72.85488891601562 476.16363525390625 75.93038177490234 476.8138427734375 82.31059265136719 C 484.65826416015625 100.09584045410156 479.2408447265625 118.96862030029297 477.1109313964844 121.84288024902344 C 460.41455078125 117.1564712524414 459.183349609375 113.96847534179688 450.0328369140625 108.3597412109375 C 435.1906433105469 107.83106231689453 411.732666015625 102.18561553955078 409.9892578125 105.12785339355469 C 414.0830383300781 120.03115844726562 418.3816223144531 127.02615356445312 414.0579528808594 139.48663330078125 C 410.2650146484375 152.5968017578125 394.5594787597656 152.32911682128906 394.6549377441406 136.1492156982422 C 381.39581298828125 140.99234008789062 378.136474609375 158.36907958984375 369.1778259277344 157.50743103027344 C 366.29132080078125 156.5966796875 363.4348449707031 158.55113220214844 356.7726745605469 161.6329345703125 C 351.4800109863281 165.5022735595703 348.3816223144531 166.264404296875 349.30987548828125 171.91188049316406 C 344.8661193847656 178.69061279296875 339.1118469238281 174.96449279785156 345.9381408691406 163.4261474609375 C 297.2601013183594 160.4154815673828 296.1968688964844 167.08941650390625 294.2471008300781 176.295654296875 C 306.0971984863281 184.58090209960938 303.64813232421875 189.5153045654297 307.4871826171875 201.46044921875 C 307.4604797363281 200.68222045898438 306.21527099609375 198.1475067138672 304.5485534667969 189.79306030273438 C 304.4800720214844 185.74610900878906 303.289306640625 184.89788818359375 291.4096984863281 172.70823669433594 C 289.6968078613281 194.5525360107422 289.0457763671875 195.96859741210938 289.3180236816406 196.29469299316406 C 289.5029296875 189.94557189941406 291.3913269042969 181.99163818359375 290.79095458984375 171.66969299316406 C 271.6225891113281 174.1255645751953 268.1086120605469 179.90377807617188 260.9402160644531 175.60064697265625 C 256.3373107910156 183.27809143066406 255.80406188964844 189.05331420898438 254.5618133544922 197.17916870117188 C 260.67242431640625 199.28128051757812 260.5499572753906 199.9273681640625 257.8690490722656 199.72128295898438 C 257.1171875 198.65176391601562 253.8478240966797 196.26611328125 255.15823364257812 193.87252807617188 C 255.45635986328125 182.42251586914062 261.6720886230469 181.87063598632812 260.23046875 164.89248657226562 C 260.58428955078125 160.63002014160156 216.10382080078125 142.56527709960938 213.0528564453125 141.25782775878906 C 186.74383544921875 133.2393035888672 195.30679321289062 105.00965118408203 191.30760192871094 86.33612060546875 C 191.5823974609375 85.09618377685547 161.9758758544922 73.80311584472656 129.42745971679688 58.31670379638672 C 105.15140533447266 39.058860778808594 74.62902069091797 58.01121139526367 43.65948486328125 58.93057632446289 C 27.91254234313965 69.78267669677734 2.323715925216675 70.16385650634766 -0.9292454123497009 69.39436340332031 C 0.34183040261268616 43.958133697509766 -0.3314551115036011 22.56187629699707 -0.019932541996240616 -0.25989267230033875" stroke-width="0.0" fill="url(#shape_2_fill)"/>
    <path d="M 87.19523620605469 58.11156463623047 C 89.14907836914062 68.82173919677734 91.45439910888672 69.08079528808594 93.72179412841797 71.60946655273438 C 90.76197814941406 79.97388458251953 91.8529281616211 81.67276763916016 89.27491760253906 93.7650375366211 C 96.13298034667969 86.01396942138672 98.27783203125 86.39575958251953 102.85525512695312 87.98377227783203 C 104.94132232666016 75.226318359375 105.7841796875 73.32633209228516 108.43618774414062 73.36502838134766 C 112.15624237060547 87.57880401611328 110.47449493408203 91.86907958984375 117.15567779541016 99.09254455566406 C 116.31409454345703 100.05339050292969 116.53815460205078 109.49291229248047 115.57205200195312 115.30293273925781 C 122.46378326416016 115.39551544189453 128.38661193847656 115.96356201171875 129.58297729492188 111.83086395263672 C 130.8963165283203 110.44364166259766 136.94451904296875 109.59701538085938 136.6311492919922 104.86819458007812 C 136.65956115722656 103.6795883178711 135.5719757080078 101.84335327148438 137.58078002929688 98.98066711425781 C 136.5131378173828 93.2785415649414 137.5519256591797 92.91345977783203 137.5574951171875 89.53305053710938 C 137.349609375 85.3092269897461 138.5832061767578 84.83319091796875 140.00613403320312 87.90103149414062 C 140.49444580078125 83.30859375 146.77651977539062 80.6468276977539 148.27342224121094 82.508544921875 C 148.40260314941406 93.2574462890625 149.91554260253906 94.5528335571289 152.43138122558594 99.24925231933594 C 153.75445556640625 102.84584045410156 149.9125213623047 106.9024887084961 148.86448669433594 106.7513656616211 C 152.4931182861328 109.67219543457031 150.28958129882812 114.03907775878906 148.360595703125 113.32294464111328 C 154.38954162597656 112.85165405273438 158.051513671875 122.58411407470703 157.1339111328125 123.3232192993164 C 161.24832153320312 124.97712707519531 164.87664794921875 123.45238494873047 169.66552734375 122.74518585205078 C 174.39378356933594 119.73247528076172 175.7860870361328 121.51228332519531 177.6842803955078 122.49042510986328 C 179.34010314941406 122.69275665283203 180.0699920654297 125.03150939941406 183.55767822265625 127.43333435058594 C 183.91812133789062 130.1239013671875 182.60000610351562 132.95301818847656 184.8944549560547 134.87051391601562 C 187.69715881347656 135.51829528808594 188.441650390625 140.3145751953125 188.29974365234375 144.40951538085938 C 196.6300811767578 148.0056915283203 208.70919799804688 153.2805938720703 201.692626953125 172.71075439453125 C 205.29644775390625 177.39462280273438 206.75572204589844 178.72671508789062 205.07264709472656 181.54507446289062 C 214.73477172851562 181.32064819335938 215.67001342773438 193.3668212890625 212.3934783935547 201.4241943359375 C 204.64993286132812 206.1682891845703 203.06007385253906 206.49069213867188 203.2400665283203 210.29196166992188 C 200.61549377441406 210.4884033203125 200.10708618164062 211.73402404785156 199.76011657714844 213.25025939941406 C 196.09017944335938 215.2062225341797 193.13739013671875 215.2349395751953 192.1651153564453 219.6500244140625 C 184.2847137451172 220.76351928710938 183.6094970703125 224.7419891357422 178.2869415283203 230.07412719726562 C 176.39642333984375 233.50802612304688 181.05674743652344 238.576171875 181.061767578125 239.445556640625 C 182.01402282714844 252.0010986328125 185.96710205078125 261.13580322265625 179.14144897460938 264.5154113769531 C 172.68035888671875 268.6301574707031 148.86000061035156 268.2683410644531 136.1973419189453 269.58880615234375 C 131.32151794433594 268.89154052734375 129.044677734375 272.28594970703125 122.53533172607422 275.56201171875 C 109.1688232421875 276.7955017089844 73.3187484741211 275.9659118652344 72.987060546875 270.0965270996094 C 47.71669006347656 266.78717041015625 56.56789016723633 268.5787353515625 57.819583892822266 273.5816955566406 C 48.67900085449219 276.4773254394531 1.0564494132995605 272.66668701171875 0.8049745559692383 270.1994323730469 C -6.0667009353637695 225.00289916992188 -5.221410274505615 167.11944580078125 2.139599323272705 122.30302429199219 C 10.920108795166016 118.04352569580078 21.43485450744629 113.87248229980469 26.23898696899414 121.86190795898438 C 27.124629974365234 129.96949768066406 35.638938903808594 129.11253356933594 42.18025588989258 131.89573669433594 C 46.28286361694336 130.2491912841797 47.88459777832031 131.1771240234375 49.45661544799805 142.2725372314453 C 50.37200927734375 149.07884216308594 61.28695297241211 148.60462951660156 62.781089782714844 146.1635284423828 C 62.18855285644531 136.8980712890625 63.119956970214844 134.0426483154297 62.09040451049805 128.29501342773438 C 68.21361541748047 126.63903045654297 67.6993179321289 124.00682830810547 66.33334350585938 112.5334701538086 C 67.87599182128906 111.08763885498047 68.38947296142578 106.23151397705078 75.90923309326172 102.2792739868164 C 73.9551010131836 101.30465698242188 77.95967864990234 91.10651397705078 77.33477020263672 85.7977294921875 C 77.29179382324219 83.4668197631836 77.6014404296875 75.12316131591797 85.24290466308594 75.38809204101562 C 83.12185668945312 70.20307922363281 82.75821685791016 67.53475952148438 87.19523620605469 58.11156463623047" stroke-width="0.0" fill="url(#shape_3_fill)"/>
    <path d="M 674.07861328125 -0.6168050765991211 C 676.1160888671875 47.826377868652344 675.0172119140625 95.90823364257812 680.5711059570312 138.26754760742188 C 679.4334716796875 121.24781036376953 671.2546997070312 120.74944305419922 661.683349609375 119.71273040771484 C 660.7786254882812 120.19146728515625 654.9938354492188 109.4297103881836 649.9811401367188 110.92671203613281 C 648.92822265625 112.54290008544922 645.1100463867188 149.6090545654297 642.9454956054688 155.58926391601562 C 630.081787109375 154.61097717285156 626.95703125 142.74365234375 627.0404663085938 138.4970703125 C 623.038818359375 137.45765686035156 619.0043334960938 145.3665008544922 615.4202880859375 144.18228149414062 C 611.6814575195312 142.31268310546875 610.1616821289062 143.32664489746094 607.7974243164062 141.0368194580078 C 608.9287109375 137.45562744140625 612.9757690429688 132.92381286621094 606.093505859375 118.6789321899414 C 598.5972900390625 134.4739227294922 597.5965576171875 139.42269897460938 593.9707641601562 142.30792236328125 C 599.0125732421875 145.91282653808594 598.3034057617188 151.51248168945312 597.3294067382812 152.39097595214844 C 588.3674926757812 157.49249267578125 588.2077026367188 164.5892791748047 578.2471313476562 172.34654235839844 C 572.2830810546875 170.15579223632812 569.91845703125 157.64903259277344 568.46044921875 157.11346435546875 C 565.4772338867188 157.98562622070312 563.197509765625 154.05947875976562 561.8350219726562 149.3099365234375 C 560.14404296875 151.19802856445312 556.8087768554688 151.2130126953125 555.2029418945312 155.80990600585938 C 551.868408203125 156.026123046875 550.337890625 158.66461181640625 548.832763671875 158.19586181640625 C 548.1317138671875 155.9308624267578 544.8150024414062 155.53555297851562 536.1441650390625 153.4280242919922 C 531.7833251953125 154.91201782226562 529.9708251953125 159.0411376953125 523.1184692382812 156.8870391845703 C 519.2681884765625 160.51651000976562 520.3140258789062 162.1551055908203 522.9373779296875 169.09481811523438 C 517.6220703125 168.48313903808594 517.2620239257812 170.9998016357422 516.2628784179688 171.6385955810547 C 511.2713623046875 173.32232666015625 509.8157043457031 175.26531982421875 505.64306640625 174.399169921875 C 502.7568359375 171.40806579589844 503.0490417480469 169.51193237304688 502.9893493652344 159.3768768310547 C 491.5824890136719 145.03952026367188 506.38140869140625 121.11589050292969 517.7255249023438 126.45244598388672 C 523.6907958984375 125.23888397216797 540.82861328125 109.93060302734375 548.8081665039062 112.96472930908203 C 557.264404296875 110.72208404541016 556.9161987304688 109.38639068603516 558.7208251953125 108.09320068359375 C 559.1578979492188 108.25334167480469 564.8942260742188 102.89515686035156 570.277587890625 105.01016998291016 C 574.6266479492188 102.444091796875 573.4872436523438 97.55342864990234 579.0092163085938 94.02674865722656 C 586.9714965820312 88.43878936767578 593.0360107421875 77.63213348388672 612.9451293945312 78.3944091796875 C 616.90625 73.60050201416016 644.65673828125 51.08489227294922 645.7986450195312 35.44889450073242 C 644.9495849609375 32.42820358276367 647.989013671875 30.3865909576416 647.5712890625 29.504831314086914 C 646.8997192382812 28.280519485473633 664.1312866210938 -4.2359843254089355 674.07861328125 -0.6168050765991211" stroke-width="0.0" fill="url(#shape_4_fill)"/>
    <path d="M 151.525390625 68.60800170898438 C 152.2972412109375 69.13336181640625 186.22378540039062 85.01882934570312 192.85162353515625 91.76956939697266 C 178.88302612304688 118.90699768066406 217.6092529296875 150.1158905029297 220.90078735351562 154.87078857421875 C 238.91773986816406 169.92591857910156 241.94888305664062 184.21548461914062 240.8193359375 193.866943359375 C 238.07025146484375 193.20379638671875 236.14720153808594 186.61349487304688 236.77113342285156 184.06463623046875 C 235.68582153320312 183.5443572998047 234.15560913085938 184.30703735351562 231.06539916992188 182.68824768066406 C 231.93612670898438 183.84959411621094 231.95687866210938 193.7493896484375 228.64210510253906 195.6684112548828 C 227.60960388183594 196.63687133789062 227.3870391845703 205.34584045410156 221.21572875976562 207.67813110351562 C 215.0970916748047 206.58126831054688 214.31674194335938 197.79342651367188 214.6487579345703 194.89456176757812 C 212.959228515625 185.43939208984375 211.8959197998047 184.948974609375 206.5739288330078 177.36131286621094 C 205.85411071777344 172.902099609375 206.1002197265625 166.97279357910156 204.16482543945312 159.22830200195312 C 206.0728759765625 153.49127197265625 194.8622283935547 144.6586151123047 193.44619750976562 141.15460205078125 C 189.13706970214844 140.12803649902344 188.92733764648438 137.04736328125 186.248291015625 135.68641662597656 C 178.09988403320312 133.59872436523438 178.87875366210938 127.23614501953125 183.4043731689453 117.19617462158203 C 179.39004516601562 116.42811584472656 177.39688110351562 117.65209197998047 172.94175720214844 117.76153564453125 C 179.4505157470703 128.31651306152344 176.0392608642578 130.6945037841797 151.91062927246094 130.3872528076172 C 149.4423065185547 128.4921417236328 151.90695190429688 102.47833251953125 154.2624969482422 93.4092788696289 C 152.7775115966797 89.55562591552734 153.3162384033203 87.3260726928711 150.19189453125 76.26579284667969 C 148.04396057128906 75.90243530273438 148.2859344482422 69.24351501464844 151.525390625 68.60800170898438" stroke-width="0.0" fill="url(#shape_5_fill)"/>
    <path d="M 612.097412109375 80.8177719116211 C 618.87353515625 84.03253173828125 619.69873046875 86.46865844726562 631.8920288085938 85.66023254394531 C 636.048583984375 86.16094207763672 637.03125 88.47515106201172 641.1660766601562 89.31975555419922 C 642.1698608398438 86.94168853759766 666.1873779296875 92.3563232421875 674.9252319335938 98.4236068725586 C 675.4066162109375 110.61923217773438 674.7958984375 125.90557098388672 674.8421020507812 151.5655059814453 C 665.6383666992188 142.7911376953125 663.0298461914062 136.51791381835938 659.519287109375 131.68951416015625 C 659.7860717773438 122.556396484375 660.589111328125 116.15885925292969 653.3158569335938 112.81404113769531 C 644.1541137695312 112.9004135131836 644.1412963867188 142.2554931640625 642.5381469726562 142.96466064453125 C 644.0476684570312 144.592529296875 642.6091918945312 148.2128143310547 644.4959716796875 150.23663330078125 C 639.9891967773438 150.82635498046875 637.9285888671875 152.8031005859375 634.4304809570312 153.66944885253906 C 631.5750732421875 146.23165893554688 629.1842041015625 141.3951873779297 630.0723266601562 140.53948974609375 C 628.8134155273438 137.53436279296875 621.9968872070312 136.6917724609375 620.9906616210938 138.7984161376953 C 618.4571533203125 140.61672973632812 619.30322265625 142.4296417236328 618.3270874023438 148.89088439941406 C 613.923828125 144.70172119140625 613.3472290039062 143.20692443847656 609.7962036132812 143.68128967285156 C 608.4974365234375 140.4076385498047 609.5550537109375 139.24203491210938 609.083984375 137.29266357421875 C 606.5769653320312 132.24508666992188 604.8635864257812 126.94074249267578 599.6385498046875 128.0515594482422 C 605.6775512695312 133.66726684570312 595.1923217773438 148.08624267578125 592.1132202148438 154.60699462890625 C 590.3546142578125 163.74798583984375 588.906005859375 163.9381103515625 585.7760009765625 169.14181518554688 C 584.7423706054688 167.5552978515625 584.0285034179688 166.3308868408203 589.3909912109375 154.45152282714844 C 590.8472900390625 144.0535888671875 586.3668212890625 142.86282348632812 574.7318115234375 138.95822143554688 C 572.4844970703125 157.3026885986328 556.8013305664062 155.85134887695312 555.9882202148438 151.3442840576172 C 555.8250122070312 152.8955841064453 553.0704956054688 154.70249938964844 552.9456176757812 157.8130340576172 C 551.13232421875 161.36697387695312 548.051513671875 160.92904663085938 547.3652954101562 159.26161193847656 C 544.4285278320312 156.51373291015625 542.733642578125 153.9376220703125 537.838134765625 156.82293701171875 C 535.2816772460938 158.48280334472656 531.1649780273438 157.66238403320312 529.3343505859375 158.29791259765625 C 526.38427734375 159.48294067382812 526.6241455078125 163.0718994140625 525.7111206054688 166.59112548828125 C 524.6200561523438 169.51600646972656 523.6055297851562 171.58901977539062 519.0318603515625 173.08743286132812 C 508.806396484375 178.49929809570312 496.34033203125 179.97271728515625 485.52679443359375 158.18299865722656 C 480.8558044433594 136.47605895996094 500.2941589355469 118.3128890991211 513.75732421875 118.33796691894531 C 528.9960327148438 127.61024475097656 541.13720703125 107.98233795166016 548.8519287109375 111.79039001464844 C 555.779541015625 110.2497787475586 561.1295776367188 110.10064697265625 564.0999755859375 106.87788391113281 C 564.6309204101562 104.47532653808594 566.4960327148438 103.5383529663086 569.7847900390625 104.59526062011719 C 573.4711303710938 101.03604125976562 578.7872924804688 98.62852478027344 587.0479125976562 99.02445220947266 C 600.5471801757812 93.33944702148438 603.4882202148438 80.02629852294922 612.097412109375 80.8177719116211" stroke-width="0.0" fill="url(#shape_6_fill)"/>
    <path d="M 0.5203534364700317 97.54486846923828 C 40.60053253173828 108.83776092529297 45.9957160949707 119.28762817382812 50.198184967041016 138.7136688232422 C 81.3987045288086 153.6502685546875 52.8256721496582 213.48782348632812 40.998409271240234 247.11874389648438 C 51.11915969848633 260.1187744140625 48.49722671508789 264.5955810546875 48.80631637573242 265.04986572265625 C 49.44792175292969 257.81341552734375 27.731048583984375 252.5790252685547 15.726030349731445 247.48678588867188 C 5.358348369598389 203.5072784423828 -8.648921012878418 171.08975219726562 0.5203534364700317 97.54486846923828" stroke-width="0.0" fill="url(#shape_7_fill)"/>
    <path d="M 384.4652404785156 197.27163696289062 C 424.9285583496094 186.635009765625 426.63140869140625 190.3633270263672 429.96148681640625 204.2032470703125 C 475.7446594238281 188.8356475830078 497.32232666015625 203.53506469726562 491.65789794921875 230.8351287841797 C 491.00006103515625 250.49441528320312 486.2605285644531 251.50584411621094 484.86187744140625 252.41888427734375 C 485.9653625488281 259.140380859375 482.65399169921875 268.9416198730469 477.1448059082031 268.92950439453125 C 469.04290771484375 272.9302978515625 453.2210388183594 266.7112731933594 451.63946533203125 269.7130432128906 C 447.10382080078125 266.2847595214844 448.3199462890625 261.2251281738281 449.10614013671875 260.1512451171875 C 439.2546081542969 264.7904052734375 436.5178527832031 261.4368591308594 437.4440612792969 256.7708740234375 C 427.0127258300781 256.6385192871094 425.6929931640625 259.170654296875 421.1706848144531 262.1311950683594 C 418.5574645996094 264.25152587890625 417.7179260253906 267.7403259277344 414.9457702636719 273.6448059082031 C 414.1070861816406 272.5111083984375 392.3684387207031 269.2244873046875 392.53619384765625 264.2134704589844 C 391.8187255859375 265.13702392578125 388.9071960449219 263.3895263671875 385.6855163574219 263.9559326171875 C 382.1051330566406 261.9809265136719 380.8128356933594 263.21185302734375 376.4380798339844 261.146240234375 C 374.8267822265625 256.36053466796875 376.0017395019531 252.59585571289062 371.3000793457031 250.39715576171875 C 359.6353454589844 243.4082794189453 374.29595947265625 195.49168395996094 378.4619445800781 177.16607666015625 C 384.95135498046875 171.08189392089844 394.1537170410156 176.56503295898438 384.4652404785156 197.27163696289062" stroke-width="0.0" fill="url(#shape_8_fill)"/>
    <path d="M 566.3955688476562 157.21908569335938 C 568.1025390625 158.91859436035156 568.1383056640625 166.62057495117188 569.3861083984375 168.01141357421875 C 573.501953125 169.48077392578125 573.6350708007812 171.02301025390625 577.433837890625 174.47933959960938 C 581.9307250976562 172.94601440429688 583.9710693359375 174.56983947753906 583.7066040039062 179.472412109375 C 575.37646484375 180.4762420654297 572.195068359375 225.6146697998047 577.4154663085938 226.96385192871094 C 577.869384765625 229.97335815429688 581.2897338867188 235.68814086914062 577.0230712890625 241.38267517089844 C 568.8248291015625 238.36004638671875 566.7442626953125 237.12449645996094 559.1452026367188 247.4258270263672 C 553.5333862304688 249.75392150878906 497.6801452636719 254.87075805664062 486.64984130859375 251.20306396484375 C 486.2072448730469 250.27813720703125 487.45013427734375 240.02464294433594 497.3744201660156 231.7342071533203 C 486.3738708496094 226.3456573486328 483.16064453125 222.33314514160156 482.128662109375 215.47630310058594 C 476.9501647949219 209.9543914794922 479.5216064453125 205.88107299804688 482.81842041015625 205.9947509765625 C 480.1679382324219 205.34771728515625 481.6291809082031 199.1443328857422 490.0361328125 199.12203979492188 C 492.0830383300781 196.30479431152344 491.8095397949219 192.51712036132812 492.63201904296875 188.00148010253906 C 488.8197326660156 174.25906372070312 489.04052734375 173.32122802734375 487.85638427734375 164.24769592285156 C 504.13519287109375 164.35244750976562 505.7001037597656 164.6572723388672 515.00048828125 163.10276794433594 C 522.728271484375 169.23165893554688 524.9387817382812 167.16734313964844 525.89453125 167.81475830078125 C 523.2982177734375 161.44752502441406 531.3690185546875 157.10586547851562 533.330322265625 158.7494354248047 C 537.5767822265625 161.8932342529297 541.3551025390625 162.49505615234375 542.1240234375 164.02174377441406 C 545.1832275390625 164.1002197265625 545.765380859375 165.91253662109375 549.8853149414062 166.81002807617188 C 548.9603881835938 165.6016387939453 550.5389404296875 157.8612823486328 554.8237915039062 157.85104370117188 C 557.9420166015625 161.0219268798828 563.0751953125 157.9370574951172 566.3955688476562 157.21908569335938" stroke-width="0.0" fill="url(#shape_9_fill)"/>
    <path d="M 561.371337890625 156.7509765625 C 565.6400756835938 152.96385192871094 571.275146484375 157.67750549316406 570.6732177734375 172.0543670654297 C 572.3397827148438 169.1727752685547 576.3548583984375 169.17520141601562 579.6153564453125 174.33961486816406 C 580.5515747070312 178.1180419921875 578.9188232421875 187.3749237060547 578.6262817382812 191.16505432128906 C 571.3342895507812 196.43687438964844 572.0316162109375 229.96974182128906 578.1001586914062 230.9759521484375 C 576.0733032226562 231.1605224609375 575.6126098632812 236.8465118408203 572.0756225585938 238.0059814453125 C 560.3223266601562 235.84877014160156 567.2274780273438 238.6706085205078 563.6900634765625 247.56106567382812 C 547.4248046875 253.3474578857422 501.2894287109375 249.25584411621094 500.19378662109375 251.7670135498047 C 491.1165466308594 251.82862854003906 487.95367431640625 237.2588348388672 495.5357666015625 231.7327880859375 C 486.6285705566406 224.9082794189453 481.9813537597656 219.2776641845703 481.7556457519531 214.86769104003906 C 475.8622131347656 215.2919158935547 473.146484375 214.7900390625 464.6260681152344 196.9878692626953 C 464.16204833984375 181.22000122070312 478.1988525390625 177.72206115722656 482.8602294921875 195.46072387695312 C 489.6948547363281 197.52261352539062 494.63604736328125 184.4971466064453 496.6216125488281 182.95330810546875 C 495.30230712890625 178.86158752441406 497.5860900878906 177.68292236328125 500.167724609375 177.4557342529297 C 507.940185546875 179.1050567626953 516.5738525390625 181.7061309814453 520.8502197265625 174.11598205566406 C 524.3145751953125 173.42074584960938 527.3909912109375 159.39793395996094 530.6776123046875 154.953369140625 C 538.5760498046875 155.75253295898438 538.7471313476562 157.9521026611328 538.5000610351562 166.0740966796875 C 545.760986328125 165.97738647460938 549.0611572265625 167.4494171142578 551.3914794921875 166.4483184814453 C 550.9500732421875 155.68101501464844 552.9347534179688 153.04763793945312 561.371337890625 156.7509765625" stroke-width="0.0" fill="url(#shape_10_fill)"/>
    <path d="M 444.4566650390625 109.55677795410156 C 452.7674255371094 113.85328674316406 453.5080261230469 114.6033706665039 462.5240173339844 109.75245666503906 C 465.9106750488281 115.73009490966797 469.0196228027344 114.20708465576172 484.95050048828125 109.14799499511719 C 489.176513671875 124.43891143798828 488.6766662597656 125.2643814086914 492.0111389160156 130.71112060546875 C 493.5356750488281 132.14801025390625 493.52056884765625 135.29026794433594 496.8526306152344 136.37948608398438 C 493.9810791015625 135.57907104492188 492.8597412109375 138.31256103515625 489.707763671875 141.43646240234375 C 483.3333435058594 138.1501007080078 482.1371765136719 140.2550811767578 479.8912048339844 142.7227783203125 C 468.4370422363281 137.77552795410156 466.7364807128906 136.79721069335938 465.6648254394531 134.4319610595703 C 464.3205871582031 133.57766723632812 460.7216491699219 133.5966796875 460.5169372558594 134.1819305419922 C 461.3959655761719 133.1993408203125 479.8359680175781 142.52561950683594 495.9138488769531 151.8319091796875 C 476.7024841308594 176.95985412597656 475.58135986328125 177.32174682617188 476.1533508300781 183.8131561279297 C 467.82354736328125 183.4683074951172 467.3667907714844 188.62107849121094 465.8191223144531 190.020751953125 C 462.5546875 184.78863525390625 461.1353454589844 172.5560302734375 460.7991943359375 164.23452758789062 C 448.4228820800781 180.8904571533203 447.506591796875 182.4505615234375 439.8741149902344 183.08872985839844 C 439.3162841796875 183.84371948242188 435.7251281738281 195.6513671875 434.83282470703125 197.53614807128906 C 429.04443359375 200.35946655273438 417.5591125488281 180.57215881347656 417.6959228515625 179.76966857910156 C 416.9336242675781 179.82908630371094 398.39825439453125 180.63711547851562 397.6630859375 173.84130859375 C 393.91632080078125 171.43634033203125 389.7994689941406 176.51341247558594 379.49554443359375 174.68154907226562 C 382.86798095703125 157.56703186035156 379.2611389160156 152.34921264648438 392.2048645019531 139.0729217529297 C 398.2652282714844 137.94000244140625 399.75604248046875 130.10328674316406 402.66473388671875 120.45015716552734 C 406.783935546875 98.88418579101562 424.76873779296875 102.19600677490234 444.4566650390625 109.55677795410156" stroke-width="0.0" fill="url(#shape_11_fill)"/>
    <path d="M 602.85302734375 127.72694396972656 C 605.8214111328125 129.857421875 605.3384399414062 143.3769989013672 606.9386596679688 145.23373413085938 C 611.0219116210938 145.75035095214844 611.4354858398438 149.7827606201172 616.094970703125 153.29661560058594 C 618.0988159179688 149.9010009765625 618.02734375 141.80657958984375 621.562255859375 141.2295379638672 C 622.8447265625 137.3568115234375 625.4705810546875 137.27398681640625 627.3469848632812 140.31817626953125 C 627.3082275390625 142.18142700195312 628.9190673828125 144.79270935058594 628.98974609375 147.1897735595703 C 632.0940551757812 149.77687072753906 631.7191772460938 151.21282958984375 636.177001953125 153.77867126464844 C 642.2554321289062 154.47227478027344 642.0458374023438 160.19749450683594 648.1571044921875 171.76202392578125 C 639.369140625 185.4325408935547 640.16552734375 194.99264526367188 640.616943359375 206.50787353515625 C 654.2615356445312 211.18470764160156 655.4761962890625 236.95071411132812 642.5447387695312 245.40020751953125 C 622.6517944335938 248.15707397460938 611.7125854492188 249.060546875 579.6188354492188 265.2781677246094 C 572.0099487304688 253.21829223632812 579.8363037109375 230.64715576171875 574.7726440429688 216.3527069091797 C 568.0348510742188 209.0609130859375 571.6597290039062 168.8877410888672 583.2998046875 169.72833251953125 C 597.135986328125 163.5432586669922 599.704345703125 143.4208526611328 600.0835571289062 142.2575225830078 C 595.8701171875 139.78846740722656 596.4456176757812 137.01519775390625 602.85302734375 127.72694396972656" stroke-width="0.0" fill="url(#shape_12_fill)"/>
    <path d="M 411.82073974609375 176.6024932861328 C 419.5359802246094 174.205810546875 433.86651611328125 213.38912963867188 428.74603271484375 219.8859100341797 C 419.82232666015625 228.15284729003906 427.49371337890625 237.38160705566406 431.656494140625 242.96600341796875 C 429.2801818847656 260.83697509765625 419.75518798828125 269.5041809082031 413.7044372558594 268.2767028808594 C 406.3406677246094 264.6962585449219 402.2755126953125 271.98638916015625 390.7750244140625 268.0161437988281 C 385.5808410644531 264.8965148925781 382.54962158203125 266.1670227050781 379.5223388671875 265.6866455078125 C 374.6620178222656 264.535400390625 374.4287414550781 261.4715576171875 374.92388916015625 258.3999938964844 C 376.3385925292969 255.73342895507812 374.51531982421875 254.65203857421875 374.89697265625 253.82571411132812 C 371.65057373046875 255.3011016845703 369.62738037109375 251.4180908203125 368.32080078125 251.983642578125 C 360.7342224121094 248.0174102783203 366.5066223144531 229.2390899658203 367.2842102050781 221.72311401367188 C 369.3565673828125 218.82904052734375 371.9527282714844 202.68995666503906 381.8841552734375 203.18556213378906 C 378.6591491699219 194.00563049316406 379.8242492675781 191.6142578125 390.05126953125 189.52157592773438 C 391.3013610839844 177.5938720703125 392.88983154296875 176.7759552001953 411.82073974609375 176.6024932861328" stroke-width="0.0" fill="url(#shape_13_fill)"/>
    <path d="M 507.990478515625 67.04310607910156 C 511.9681396484375 66.0325927734375 518.8296508789062 71.4057388305664 519.493408203125 78.94373321533203 C 530.9857788085938 79.37771606445312 534.9384155273438 79.92523193359375 537.390625 87.134765625 C 539.4970092773438 90.79745483398438 544.5438842773438 90.27172088623047 545.0235595703125 91.17229461669922 C 545.53662109375 92.74241638183594 556.1806030273438 96.82135009765625 559.3543701171875 95.54804992675781 C 563.4653930664062 97.5984115600586 567.3590087890625 97.47801208496094 568.6890258789062 98.49628448486328 C 563.9652709960938 105.60057830810547 557.934814453125 115.90894317626953 540.4448852539062 110.51824188232422 C 541.353515625 111.83103942871094 539.3931274414062 114.97858428955078 534.706787109375 118.4225845336914 C 527.6595458984375 120.64716339111328 519.7615356445312 124.56684112548828 515.6321411132812 118.6398696899414 C 511.9143981933594 121.08809661865234 501.6035461425781 125.70375061035156 499.9483642578125 126.28112030029297 C 497.8310241699219 129.0468292236328 494.0709228515625 128.76058959960938 489.6384582519531 127.07971954345703 C 489.4264221191406 118.44526672363281 468.8436279296875 118.52262115478516 468.14361572265625 117.54487609863281 C 463.5308532714844 117.81559753417969 462.9230041503906 116.67317199707031 462.10137939453125 116.17692565917969 C 470.383544921875 119.6426010131836 473.8785705566406 113.8302230834961 477.3911437988281 109.08336639404297 C 474.182861328125 94.44696807861328 473.13763427734375 85.43939971923828 474.6340026855469 81.83402252197266 C 474.58953857421875 70.93338775634766 475.3421630859375 70.38577270507812 477.80718994140625 66.2456283569336 C 478.5680847167969 63.82603073120117 482.47149658203125 63.80615997314453 484.1025085449219 63.20626449584961 C 495.7308654785156 64.0405044555664 503.21563720703125 61.072330474853516 507.990478515625 67.04310607910156" stroke-width="0.0" fill="url(#shape_14_fill)"/>
    <path d="M 534.1542358398438 161.1991729736328 C 543.9664916992188 162.51075744628906 544.2708129882812 163.3294219970703 546.6436767578125 165.12550354003906 C 549.74609375 167.5224151611328 549.5933227539062 170.2017364501953 543.9143676757812 180.23947143554688 C 542.423095703125 190.0033416748047 536.92529296875 231.3904266357422 536.580810546875 233.09188842773438 C 540.8953857421875 238.18719482421875 541.1373901367188 251.8671112060547 516.7655029296875 252.4077911376953 C 502.9451599121094 251.47406005859375 483.0457763671875 242.81919860839844 487.97198486328125 230.43301391601562 C 476.3482971191406 219.2936553955078 479.03680419921875 208.99461364746094 482.80322265625 201.47018432617188 C 486.4347839355469 197.49169921875 487.9877624511719 197.45730590820312 488.9031677246094 199.02813720703125 C 482.87677001953125 195.53982543945312 488.72222900390625 183.6919403076172 487.4421691894531 173.20266723632812 C 487.6546325683594 167.39625549316406 488.9224548339844 166.11436462402344 490.9587097167969 167.1714324951172 C 505.52734375 178.9104766845703 511.2200012207031 184.18238830566406 522.7337036132812 172.72657775878906 C 525.553466796875 170.96005249023438 525.5313720703125 167.3018798828125 526.6624755859375 165.09950256347656 C 525.4239501953125 159.4445037841797 528.6981201171875 158.5059814453125 534.1542358398438 161.1991729736328" stroke-width="0.0" fill="url(#shape_15_fill)"/>
    <path d="M 651.5816040039062 109.6642074584961 C 653.9193115234375 110.52113342285156 664.1778564453125 121.73332977294922 659.7234497070312 132.89935302734375 C 664.0320434570312 136.27490234375 664.5361328125 143.32691955566406 673.3448486328125 147.9999542236328 C 676.6478881835938 179.3499298095703 673.5670776367188 211.44178771972656 676.1790161132812 267.0182189941406 C 675.05126953125 265.40924072265625 635.6010131835938 272.97137451171875 630.3937377929688 264.06549072265625 C 637.2656860351562 245.29959106445312 643.0533447265625 124.01493072509766 651.5816040039062 109.6642074584961" stroke-width="0.0" fill="url(#shape_16_fill)"/>
    <path d="M 601.2750854492188 129.14828491210938 C 603.5842895507812 128.444091796875 606.2374267578125 131.7498779296875 606.1605224609375 134.0433349609375 C 608.7833862304688 135.10784912109375 607.0770874023438 141.58245849609375 609.21875 143.75015258789062 C 628.685546875 143.12091064453125 631.0758666992188 216.8500213623047 633.33251953125 269.0316467285156 C 580.0465087890625 273.6177978515625 574.3343505859375 266.2041015625 579.2623291015625 241.36737060546875 C 561.1246337890625 226.12026977539062 598.3382568359375 155.49757385253906 601.2750854492188 129.14828491210938" stroke-width="0.0" fill="url(#shape_17_fill)"/>
    <path d="M 320.37884521484375 186.24072265625 C 321.0865173339844 186.48834228515625 321.9973449707031 189.34765625 321.10198974609375 199.8191680908203 C 332.308837890625 193.93202209472656 333.20281982421875 193.2678985595703 337.3597106933594 196.1083984375 C 344.3106689453125 199.99481201171875 346.37933349609375 197.83534240722656 353.5950622558594 192.3480682373047 C 358.7670593261719 192.6345977783203 359.5558776855469 194.34608459472656 356.5106506347656 201.96099853515625 C 359.3597412109375 204.13900756835938 361.6032409667969 204.2161102294922 364.5823059082031 209.99119567871094 C 367.3076171875 207.21519470214844 368.5610656738281 208.07554626464844 368.2233581542969 211.79539489746094 C 370.2408752441406 220.05502319335938 370.2955017089844 223.02418518066406 366.01080322265625 225.60792541503906 C 365.9114685058594 231.38157653808594 363.75506591796875 236.31842041015625 366.6806640625 247.8679962158203 C 369.71844482421875 252.8780975341797 367.00439453125 256.10272216796875 358.06768798828125 254.6157684326172 C 354.04730224609375 255.7963104248047 325.66094970703125 255.01451110839844 323.1782531738281 255.34434509277344 C 313.32073974609375 256.02783203125 312.06610107421875 253.7244110107422 308.46710205078125 243.8402557373047 C 304.1504211425781 229.51190185546875 320.930419921875 194.9706268310547 320.37884521484375 186.24072265625" stroke-width="0.0" fill="url(#shape_18_fill)"/>
    <path d="M 479.57861328125 224.2158203125 C 502.7264404296875 251.16085815429688 513.2939453125 264.2578430175781 493.99298095703125 279.93359375 C 470.4862976074219 279.5413513183594 443.9714660644531 261.6168518066406 442.1239013671875 261.790771484375 C 438.7804870605469 260.4989318847656 437.18585205078125 258.2098083496094 432.68695068359375 257.9939270019531 C 429.5278625488281 258.5583801269531 428.1993103027344 256.74761962890625 429.5650329589844 253.894287109375 C 432.28887939453125 237.2722930908203 423.1203308105469 233.7711944580078 422.9441223144531 229.7078857421875 C 423.1546936035156 226.891357421875 421.1082763671875 226.71597290039062 420.20745849609375 225.0826416015625 C 427.7979431152344 219.6298370361328 429.7002868652344 218.868408203125 428.2587890625 214.87551879882812 C 442.3996887207031 197.2654571533203 478.73126220703125 197.0657501220703 479.57861328125 224.2158203125" stroke-width="0.0" fill="url(#shape_19_fill)"/>
    <path d="M 673.9071655273438 -3.006345510482788 C 675.0673828125 32.84956741333008 674.5833740234375 64.76375579833984 674.4573974609375 97.23499298095703 C 669.4307250976562 96.13610076904297 652.82177734375 87.70771026611328 645.1597900390625 90.05380249023438 C 638.5950317382812 89.51106262207031 638.11767578125 86.02078247070312 637.4182739257812 84.22685241699219 C 626.1995239257812 84.46372985839844 620.1878051757812 93.166259765625 608.1641845703125 86.57746124267578 C 609.9354248046875 74.7587661743164 612.2733154296875 73.6111831665039 614.4229125976562 71.58198547363281 C 622.5986938476562 68.81227111816406 648.6919555664062 25.120445251464844 647.5156860351562 20.80501937866211 C 655.325927734375 8.821516990661621 656.487548828125 2.7629950046539307 668.7335205078125 3.5337722301483154 C 669.8217163085938 2.6873679161071777 670.1061401367188 1.070204257965088 673.9071655273438 -3.006345510482788" stroke-width="0.0" fill="url(#shape_20_fill)"/>
    <path d="M 561.8098754882812 155.9674072265625 C 569.8640747070312 156.446044921875 569.9740600585938 161.4374237060547 572.8994750976562 165.58580017089844 C 583.3132934570312 168.34634399414062 573.8956909179688 230.95562744140625 576.8310546875 240.6138916015625 C 577.6559448242188 244.88697814941406 577.0900268554688 246.89869689941406 578.2160034179688 268.5141296386719 C 544.0911254882812 264.54510498046875 539.8447265625 259.9933776855469 539.9511108398438 246.91607666015625 C 544.9795532226562 244.7400665283203 544.345458984375 166.3294677734375 554.9898681640625 156.64352416992188 C 555.387939453125 152.97607421875 559.3410034179688 151.70352172851562 561.8098754882812 155.9674072265625" stroke-width="0.0" fill="url(#shape_21_fill)"/>
    <path d="M 214.9709014892578 209.86782836914062 C 234.2005615234375 208.859375 237.24620056152344 242.23704528808594 223.71144104003906 257.74273681640625 C 211.6972198486328 263.2920837402344 209.45166015625 264.0120544433594 208.91517639160156 273.13232421875 C 205.8651123046875 275.3382873535156 206.78709411621094 277.10089111328125 205.93878173828125 279.9258728027344 C 206.67431640625 282.8787536621094 203.1953125 285.67486572265625 201.41766357421875 284.9440612792969 C 201.36050415039062 283.2159118652344 190.46572875976562 272.6632385253906 188.1664276123047 264.2677001953125 C 186.72500610351562 261.61248779296875 183.7923583984375 262.86065673828125 181.48300170898438 262.71539306640625 C 180.8877716064453 260.48480224609375 180.33287048339844 260.5105895996094 178.19630432128906 251.78512573242188 C 178.78472900390625 248.45989990234375 169.1576385498047 242.11294555664062 170.1859130859375 237.92745971679688 C 175.82167053222656 213.39974975585938 177.02273559570312 212.96932983398438 185.56842041015625 220.46759033203125 C 193.7875213623047 219.5238037109375 194.15003967285156 215.18426513671875 198.40614318847656 213.2138214111328 C 184.9338836669922 206.425048828125 185.03042602539062 201.41810607910156 201.46539306640625 196.8003387451172 C 213.46319580078125 193.21482849121094 214.84523010253906 195.91358947753906 214.9709014892578 209.86782836914062" stroke-width="0.0" fill="url(#shape_22_fill)"/>
    <path d="M 111.62931823730469 426.2810363769531 C 112.73365020751953 429.2812194824219 111.01909637451172 431.19879150390625 110.65873718261719 431.4639892578125 C 104.91436767578125 432.6982727050781 103.27542114257812 433.7551574707031 91.90679931640625 433.0792236328125 C 89.76836395263672 435.9682312011719 95.67332458496094 446.421630859375 91.60698699951172 452.1399841308594 C 78.66380310058594 444.9972229003906 46.938175201416016 447.9271240234375 25.141828536987305 449.62841796875 C 14.029120445251465 446.2215576171875 13.891286849975586 439.7619323730469 17.890233993530273 436.38824462890625 C 34.861881256103516 427.6724548339844 50.038002014160156 426.5998229980469 72.78038787841797 427.0574035644531 C 73.70574951171875 423.8984069824219 109.988525390625 420.5653991699219 111.62931823730469 426.2810363769531" stroke-width="0.0" fill="url(#shape_23_fill)"/>
    <path d="M 194.02296447753906 123.68537902832031 C 200.65048217773438 124.6223373413086 210.7532196044922 145.297119140625 214.6542205810547 145.21942138671875 C 215.64154052734375 148.32798767089844 218.58042907714844 149.71533203125 220.58981323242188 154.03872680664062 C 227.33753967285156 158.41146850585938 247.83218383789062 177.88426208496094 244.77357482910156 199.02415466308594 C 239.1945343017578 199.53823852539062 235.6820068359375 186.9142303466797 232.28756713867188 179.8911895751953 C 234.8397674560547 187.0723419189453 233.36859130859375 195.9535369873047 230.56588745117188 197.10220336914062 C 227.99227905273438 197.2041015625 225.92019653320312 202.80050659179688 220.18309020996094 208.6661834716797 C 215.06980895996094 207.7010040283203 213.423828125 201.00611877441406 212.47726440429688 197.8452606201172 C 211.8780517578125 190.56346130371094 211.9234619140625 183.56031799316406 206.88427734375 177.63998413085938 C 203.89964294433594 174.03453063964844 204.95602416992188 173.0113067626953 205.6434326171875 167.36302185058594 C 202.50086975097656 147.56320190429688 199.3665313720703 146.97732543945312 192.37167358398438 143.89710998535156 C 189.3810577392578 142.37110900878906 191.4275665283203 128.4656219482422 194.02296447753906 123.68537902832031" stroke-width="0.0" fill="url(#shape_24_fill)"/>
    <path d="M 594.5870361328125 406.6246032714844 C 599.2217407226562 409.2415466308594 627.9268188476562 407.16314697265625 631.4796142578125 413.10723876953125 C 631.4342651367188 421.84686279296875 628.2504272460938 425.8191223144531 628.8433837890625 426.5030212402344 C 630.5366821289062 427.8306884765625 636.00048828125 428.0553283691406 639.724609375 436.84283447265625 C 618.4903564453125 447.6232604980469 578.4283447265625 438.957763671875 572.5562133789062 434.8999328613281 C 567.7355346679688 427.19061279296875 573.8709106445312 419.5535888671875 576.7569580078125 413.4463806152344 C 579.4745483398438 409.4521179199219 587.3442993164062 414.6940002441406 594.5870361328125 406.6246032714844" stroke-width="0.0" fill="url(#shape_25_fill)"/>
    <path d="M 142.91912841796875 66.75352478027344 C 144.0702667236328 68.92262268066406 149.17100524902344 68.07884979248047 149.63070678710938 69.09789276123047 C 148.8977508544922 70.8985824584961 150.46746826171875 71.82185363769531 149.73965454101562 73.88349914550781 C 151.1116943359375 74.45291137695312 150.12547302246094 78.5161361694336 149.4520721435547 81.67305755615234 C 151.81744384765625 89.99866485595703 153.0918731689453 97.55037689208984 153.84329223632812 104.11669921875 C 153.49073791503906 107.62442016601562 155.12741088867188 108.51475524902344 155.59194946289062 111.3056640625 C 158.0209503173828 123.45350646972656 155.31204223632812 133.5254669189453 150.4320831298828 133.59576416015625 C 142.61984252929688 127.153076171875 137.32681274414062 119.78273010253906 126.11929321289062 116.98011779785156 C 122.49986267089844 114.11593627929688 124.39391326904297 109.54341888427734 126.59382629394531 107.03944396972656 C 128.7190399169922 106.81809997558594 128.94004821777344 105.27859497070312 132.64511108398438 104.72948455810547 C 138.3419647216797 96.80722045898438 134.85316467285156 92.84088897705078 133.0320281982422 89.19269561767578 C 134.06834411621094 88.35025024414062 139.325927734375 87.30084228515625 140.1807098388672 85.356201171875 C 138.26979064941406 84.74436950683594 138.78977966308594 77.64147186279297 139.51881408691406 77.4814224243164 C 143.66690063476562 76.60367584228516 142.72718811035156 70.4314193725586 142.91912841796875 66.75352478027344" stroke-width="0.0" fill="url(#shape_26_fill)"/>
    <path d="M 139.61996459960938 67.75813293457031 C 148.9833526611328 66.92713928222656 149.6856689453125 68.12367248535156 148.75942993164062 77.1501693725586 C 150.47625732421875 78.3263931274414 151.1001739501953 80.72008514404297 154.72531127929688 85.07047271728516 C 150.1412811279297 90.46356964111328 154.89849853515625 95.30325317382812 150.89663696289062 105.1892318725586 C 152.85409545898438 105.9576187133789 153.634765625 109.35993194580078 155.4932861328125 112.5088119506836 C 152.7787322998047 116.44793701171875 157.94102478027344 122.33412170410156 154.3600616455078 126.30970764160156 C 152.52914428710938 132.0204620361328 151.3177032470703 133.16778564453125 147.51223754882812 134.05355834960938 C 141.84458923339844 131.28221130371094 128.34837341308594 122.0080337524414 129.3520050048828 117.56961059570312 C 124.64727020263672 118.57768249511719 122.57403564453125 113.0708999633789 128.2774658203125 110.52103424072266 C 122.87722778320312 108.15574645996094 124.33772277832031 104.31298065185547 133.50537109375 107.34202575683594 C 136.5158233642578 105.76736450195312 133.38931274414062 92.74313354492188 132.7889404296875 89.0721206665039 C 139.46426391601562 87.48261260986328 138.880859375 85.03031158447266 138.8655242919922 81.29850769042969 C 139.07118225097656 77.50042724609375 140.36373901367188 76.81166076660156 142.33187866210938 78.14744567871094 C 145.33444213867188 72.07176971435547 142.62840270996094 70.45294952392578 139.61996459960938 67.75813293457031" stroke-width="0.0" fill="url(#shape_27_fill)"/>
    <path d="M -0.367516428232193 -0.274626225233078 C 4.716379165649414 0.3851128816604614 9.67038631439209 -0.5292750000953674 18.827577590942383 -0.9095609784126282 C 25.51685333251953 -1.6762889623641968 25.912466049194336 -0.8362491130828857 50.099822998046875 0.3796018064022064 C 45.738765716552734 25.822004318237305 28.228687286376953 24.536033630371094 27.79474639892578 24.761991500854492 C 53.403228759765625 13.982647895812988 61.920494079589844 14.143362998962402 63.82972717285156 56.81558609008789 C 38.219947814941406 58.254295349121094 25.423925399780273 58.2150764465332 19.06078338623047 51.36005401611328 C 15.681791305541992 39.36886215209961 11.335676193237305 38.30985641479492 9.98362922668457 33.62255096435547 C 10.06275463104248 35.81240463256836 14.523408889770508 39.267581939697266 14.581768989562988 41.04412078857422 C 16.01250457763672 42.20424270629883 15.720954895019531 44.907188415527344 18.197078704833984 47.86700439453125 C 20.082584381103516 51.069637298583984 18.7705135345459 52.305023193359375 21.593860626220703 57.207637786865234 C 21.777036666870117 66.2847900390625 15.801278114318848 68.3567123413086 8.34977912902832 61.54011535644531 C 5.485934734344482 60.89010238647461 3.5340023040771484 59.14121627807617 0.32048216462135315 59.43849563598633 C -0.3189305067062378 39.787471771240234 -0.3249317407608032 19.63094711303711 -0.367516428232193 -0.274626225233078" stroke-width="0.0" fill="url(#shape_28_fill)"/>
    <path d="M 299.0226135253906 197.21681213378906 C 297.9390869140625 199.48065185546875 300.3442077636719 202.26451110839844 301.5318603515625 208.2438201904297 C 299.89886474609375 214.05459594726562 326.3100280761719 223.43113708496094 316.00250244140625 255.5301513671875 C 311.87554931640625 254.4795379638672 310.6340637207031 255.8570098876953 304.7099304199219 255.01722717285156 C 304.02069091796875 257.9697265625 294.1413269042969 258.73956298828125 281.14007568359375 256.0102233886719 C 277.78497314453125 223.96298217773438 284.61480712890625 220.36434936523438 299.0226135253906 197.21681213378906" stroke-width="0.0" fill="url(#shape_29_fill)"/>
    <path d="M 0.0037410673685371876 -0.1219174787402153 C 4.554932594299316 0.4459812045097351 9.72998332977295 -0.41262170672416687 14.681774139404297 0.10676632076501846 C 15.903685569763184 0.48031318187713623 16.6457462310791 3.378091812133789 16.51738929748535 7.981479167938232 C 18.815948486328125 10.940613746643066 21.674558639526367 19.021121978759766 27.461944580078125 20.581064224243164 C 27.194202423095703 22.532546997070312 23.919132232666016 26.6739559173584 24.79587173461914 32.05603790283203 C 20.109323501586914 32.50151443481445 12.247939109802246 30.010875701904297 5.201805591583252 33.60980224609375 C 8.97348690032959 36.014034271240234 8.733925819396973 38.86051940917969 10.868829727172852 40.47007369995117 C 10.262190818786621 43.58193588256836 7.596466541290283 49.556339263916016 11.743186950683594 53.781028747558594 C 17.73179817199707 51.2212028503418 19.490110397338867 51.722782135009766 18.464038848876953 58.33555221557617 C 11.325913429260254 60.76313018798828 9.423234939575195 62.59339904785156 0.18339157104492188 61.50530242919922 C -0.4253896176815033 39.974910736083984 -0.35461246967315674 19.755868911743164 0.0037410673685371876 -0.1219174787402153" stroke-width="0.0" fill="url(#shape_30_fill)"/>
    <path d="M 548.7267456054688 70.48738098144531 C 546.5762329101562 78.06143188476562 576.5733032226562 89.61741638183594 581.3928833007812 91.7324447631836 C 580.9387817382812 92.87312316894531 577.4182739257812 93.35704040527344 577.2251586914062 98.30863952636719 C 573.281982421875 100.70484924316406 572.0640869140625 99.78857421875 569.5691528320312 100.07536315917969 C 567.5569458007812 94.81597137451172 546.1632690429688 97.72368621826172 538.9207153320312 88.26895904541016 C 538.2031860351562 85.5397720336914 538.7235107421875 82.95510864257812 535.7928466796875 82.02914428710938 C 534.2586059570312 80.33689880371094 527.1753540039062 79.67393493652344 527.169677734375 78.26158905029297 C 525.1424560546875 75.79113006591797 527.6984252929688 70.7914047241211 531.9239501953125 68.87777709960938 C 538.9638671875 66.95396423339844 542.6990356445312 71.64369201660156 548.7267456054688 70.48738098144531" stroke-width="0.0" fill="url(#shape_31_fill)"/>
    <path d="M 447.0461120605469 264.4021301269531 C 450.6458740234375 265.292724609375 451.275146484375 266.7460021972656 455.7372741699219 267.7818298339844 C 460.5113830566406 267.6551208496094 465.32232666015625 270.3759765625 469.94775390625 273.07952880859375 C 470.4309997558594 275.6334533691406 471.828857421875 276.8876953125 471.6768798828125 280.76531982421875 C 451.7938537597656 287.3467712402344 430.3836669921875 284.0726013183594 415.7362976074219 285.1588134765625 C 413.43157958984375 273.8979187011719 414.8412780761719 272.32293701171875 415.4876708984375 268.1347351074219 C 418.187744140625 267.2044677734375 417.756103515625 264.7967224121094 419.35736083984375 263.0821838378906 C 441.9493408203125 252.1185302734375 446.4709777832031 252.49322509765625 447.0461120605469 264.4021301269531" stroke-width="0.0" fill="url(#shape_32_fill)"/>
    <path d="M 272.81878662109375 192.2483673095703 C 274.977294921875 192.27645874023438 287.549560546875 243.69027709960938 282.1650695800781 247.1811065673828 C 279.74609375 248.478271484375 273.9997253417969 247.0417938232422 269.4033508300781 249.02223205566406 C 266.2521667480469 246.321533203125 266.594482421875 242.47799682617188 260.9831237792969 240.70993041992188 C 254.46340942382812 208.88909912109375 262.642333984375 206.1134796142578 272.81878662109375 192.2483673095703" stroke-width="0.0" fill="url(#shape_33_fill)"/>
    <path d="M 269.4577941894531 410.2602844238281 C 263.0728759765625 428.8418884277344 264.23846435546875 430.5907897949219 267.9620666503906 440.3388977050781 C 262.50555419921875 440.85479736328125 260.6857604980469 446.43499755859375 258.4626159667969 447.86297607421875 C 245.51234436035156 445.8583068847656 214.9338836669922 448.6990661621094 212.4794158935547 444.9783020019531 C 213.0231170654297 436.99578857421875 213.95974731445312 436.2222900390625 216.0426483154297 434.65191650390625 C 216.38516235351562 433.5608215332031 225.076904296875 433.8121643066406 226.73902893066406 430.7660217285156 C 227.6319580078125 418.53662109375 235.42474365234375 418.37896728515625 269.4577941894531 410.2602844238281" stroke-width="0.0" fill="url(#shape_34_fill)"/>
    <path d="M 105.58229064941406 69.73723602294922 C 110.12648010253906 69.67207336425781 110.92925262451172 78.97814178466797 112.83403015136719 85.51831817626953 C 117.81368255615234 86.0567855834961 116.52375030517578 110.26067352294922 118.31021881103516 110.66301727294922 C 116.73760986328125 112.5893783569336 110.52019500732422 114.3790283203125 106.91700744628906 124.83744812011719 C 104.6424560546875 117.12914276123047 96.47968292236328 118.86357879638672 87.7919692993164 109.46195220947266 C 86.32215881347656 85.76580047607422 105.68889617919922 84.48596954345703 105.58229064941406 69.73723602294922" stroke-width="0.0" fill="url(#shape_35_fill)"/>
    <path d="M 451.2146911621094 178.46533203125 C 453.85809326171875 176.0253448486328 456.1956481933594 177.87974548339844 455.33544921875 180.41456604003906 C 455.95928955078125 180.98895263671875 454.911376953125 185.56558227539062 456.27337646484375 186.1221160888672 C 456.0783386230469 188.56326293945312 459.27630615234375 194.02037048339844 458.96636962890625 204.51817321777344 C 459.3158874511719 208.56304931640625 451.677978515625 209.5311737060547 446.01953125 204.35292053222656 C 441.3164978027344 207.42750549316406 441.2906494140625 208.70875549316406 432.7351989746094 210.91180419921875 C 435.45361328125 209.92234802246094 436.7865905761719 188.75389099121094 437.6935729980469 176.85037231445312 C 440.5226135253906 179.26646423339844 442.4229431152344 182.04542541503906 446.6942138671875 181.12835693359375 C 447.8633117675781 179.5766143798828 450.1277770996094 179.66551208496094 451.2146911621094 178.46533203125" stroke-width="0.0" fill="url(#shape_36_fill)"/>
    <path d="M 557.6417846679688 84.38392639160156 C 561.0514526367188 80.65437316894531 578.4623413085938 82.8898696899414 579.9291381835938 85.56903076171875 C 581.200927734375 83.19987487792969 586.2735595703125 85.4151840209961 587.73779296875 88.61073303222656 C 597.4744262695312 104.4421157836914 588.646240234375 111.14679718017578 574.3533935546875 100.62511444091797 C 573.7824096679688 99.54020690917969 552.699951171875 97.40702056884766 546.6986083984375 85.93911743164062 C 538.3732299804688 86.13250732421875 538.0506591796875 83.34500122070312 536.1976318359375 80.14226531982422 C 543.3272094726562 74.55327606201172 546.9730834960938 78.86201477050781 557.6417846679688 84.38392639160156" stroke-width="0.0" fill="url(#shape_37_fill)"/>
    <path d="M 251.831298828125 207.16781616210938 C 265.6903076171875 213.69451904296875 261.35150146484375 236.38247680664062 260.0728454589844 247.66258239746094 C 259.2658386230469 254.42637634277344 251.13674926757812 254.92764282226562 249.21417236328125 257.1935119628906 C 234.5242919921875 237.49607849121094 241.3019256591797 215.8029327392578 251.831298828125 207.16781616210938" stroke-width="0.0" fill="url(#shape_38_fill)"/>
    <path d="M 442.4562683105469 263.18133544921875 C 446.17327880859375 263.31451416015625 449.256103515625 266.5263671875 447.9106750488281 270.06976318359375 C 444.6692810058594 270.4041442871094 442.6730041503906 277.2937927246094 440.3926086425781 277.32720947265625 C 438.7353515625 286.56890869140625 428.604248046875 285.8648376464844 418.355224609375 275.5084228515625 C 414.4866027832031 276.78173828125 413.3390197753906 274.4515686035156 416.37933349609375 271.6358642578125 C 415.10089111328125 269.9385070800781 419.3450622558594 262.335205078125 425.31097412109375 258.6072082519531 C 426.9638366699219 257.6893615722656 439.7104797363281 257.44525146484375 442.4562683105469 263.18133544921875" stroke-width="0.0" fill="url(#shape_39_fill)"/>
    <path d="M 407.687744140625 409.8665466308594 C 408.6573181152344 409.9042663574219 416.76983642578125 419.10125732421875 414.0089111328125 424.3807678222656 C 399.63958740234375 435.1719055175781 386.0811767578125 420.861083984375 376.57720947265625 420.86981201171875 C 371.0809631347656 417.9588317871094 371.2326354980469 416.5549011230469 372.7337646484375 410.4656677246094 C 374.99102783203125 400.7529296875 392.50262451171875 404.4080505371094 407.687744140625 409.8665466308594" stroke-width="0.0" fill="url(#shape_40_fill)"/>
    <path d="M 66.4548110961914 427.48046875 C 67.23159790039062 428.9774169921875 64.12580871582031 432.6199035644531 58.71518325805664 434.9228210449219 C 57.37930679321289 436.27191162109375 39.954002380371094 435.5562744140625 31.741626739501953 443.07025146484375 C 29.258691787719727 443.5589599609375 27.762863159179688 444.0989685058594 17.34823226928711 442.6545104980469 C 16.451730728149414 440.6516418457031 17.94614028930664 439.2092590332031 17.36521339416504 437.7818603515625 C 35.815250396728516 427.1781005859375 53.191307067871094 428.17901611328125 66.4548110961914 427.48046875" stroke-width="0.0" fill="url(#shape_41_fill)"/>
    <path d="M 278.18133544921875 381.0556945800781 C 284.6042785644531 381.2018737792969 297.8870849609375 381.2640686035156 307.5769348144531 385.58856201171875 C 296.9953918457031 394.6950378417969 299.3246765136719 401.0978698730469 294.48577880859375 405.24200439453125 C 291.7569580078125 400.07354736328125 266.91754150390625 406.5530090332031 258.9031066894531 408.4750061035156 C 245.94058227539062 408.62127685546875 240.65919494628906 402.1880187988281 240.97177124023438 383.83856201171875 C 260.68084716796875 379.94287109375 267.0408630371094 381.8669738769531 278.18133544921875 381.0556945800781" stroke-width="0.0" fill="url(#shape_42_fill)"/>
    <path d="M 222.81201171875 208.29844665527344 C 224.136474609375 206.4010009765625 239.08058166503906 206.2777862548828 239.33230590820312 210.72653198242188 C 242.01535034179688 221.5382080078125 244.6868133544922 243.55519104003906 254.96078491210938 269.5531311035156 C 251.5662841796875 274.7421569824219 242.809326171875 273.0590515136719 208.54330444335938 272.3338928222656 C 208.319091796875 266.0433349609375 205.26002502441406 251.25918579101562 216.40557861328125 247.7108917236328 C 219.27267456054688 246.46142578125 218.3997802734375 226.42849731445312 222.81201171875 208.29844665527344" stroke-width="0.0" fill="url(#shape_43_fill)"/>
    <path d="M 483.4007263183594 396.23150634765625 C 486.7814025878906 399.81744384765625 485.7757568359375 400.9739990234375 483.4548645019531 400.96612548828125 C 471.22247314453125 407.31793212890625 451.1646423339844 406.8655700683594 450.26934814453125 407.59234619140625 C 448.19415283203125 404.4217834472656 451.6645202636719 396.1859436035156 453.6466369628906 396.5196533203125 C 465.2771301269531 393.14300537109375 471.5182800292969 392.3926696777344 483.4007263183594 396.23150634765625" stroke-width="0.0" fill="url(#shape_44_fill)"/>
    <path d="M 45.705535888671875 408.0751953125 C 45.37657165527344 408.7318420410156 35.78519821166992 411.81182861328125 33.086631774902344 412.7596130371094 C 32.51204299926758 414.4100341796875 32.03604507446289 415.815185546875 27.949384689331055 414.8387145996094 C 27.03028106689453 416.5155944824219 24.340131759643555 417.40203857421875 20.939590454101562 420.3233642578125 C 18.852127075195312 420.2116394042969 0.4299808740615845 417.3477783203125 -0.6735275387763977 420.5703430175781 C 1.837720513343811 419.4424133300781 -1.01408052444458 411.1983947753906 0.9749206304550171 410.2244567871094 C 6.173076629638672 409.5386047363281 45.45512390136719 406.3912353515625 45.705535888671875 408.0751953125" stroke-width="0.0" fill="url(#shape_45_fill)"/>
    <path d="M 452.2798156738281 174.27415466308594 C 453.8274841308594 174.98487854003906 464.6905822753906 198.60845947265625 466.8074645996094 200.18576049804688 C 462.671630859375 209.33314514160156 451.4164733886719 209.14952087402344 449.4604797363281 206.45321655273438 C 448.3137512207031 203.26075744628906 449.0007629394531 198.31993103027344 448.8523254394531 195.29815673828125 C 447.9616394042969 194.56565856933594 447.58990478515625 192.08213806152344 448.5191650390625 188.00277709960938 C 450.99200439453125 186.6463165283203 450.49835205078125 182.80740356445312 452.2798156738281 174.27415466308594" stroke-width="0.0" fill="url(#shape_46_fill)"/>
    <path d="M 372.4635314941406 184.35452270507812 C 379.37890625 197.34986877441406 380.1611328125 202.48866271972656 371.4811096191406 205.82720947265625 C 365.86480712890625 206.81947326660156 364.772216796875 204.83132934570312 361.61883544921875 206.0911865234375 C 339.5649108886719 211.90460205078125 335.7088928222656 202.65762329101562 353.3351135253906 188.8030242919922 C 356.6863098144531 184.9801483154297 358.3759460449219 184.3843231201172 368.1949462890625 185.48089599609375 C 368.98895263671875 183.31341552734375 372.2909240722656 183.79635620117188 372.4635314941406 184.35452270507812" stroke-width="0.0" fill="url(#shape_47_fill)"/>
    <path d="M 472.7176513671875 264.136474609375 C 474.5884704589844 267.160400390625 480.7020263671875 270.55975341796875 481.9569396972656 284.06787109375 C 465.7254333496094 287.3847351074219 445.88482666015625 287.3191833496094 444.47210693359375 284.9571533203125 C 439.3493347167969 282.170654296875 440.00579833984375 276.96136474609375 441.0841369628906 276.37451171875 C 448.85791015625 266.6163330078125 455.9339599609375 262.0729675292969 472.7176513671875 264.136474609375" stroke-width="0.0" fill="url(#shape_48_fill)"/>
    <path d="M 176.8863067626953 116.68451690673828 C 177.9496612548828 115.47149658203125 181.72323608398438 116.14165496826172 182.7245635986328 117.26622772216797 C 184.67501831054688 120.27294158935547 183.85107421875 122.34209442138672 184.8185272216797 122.99028015136719 C 179.59130859375 128.07400512695312 185.52330017089844 136.81085205078125 182.71043395996094 139.6505584716797 C 181.94525146484375 146.8418426513672 172.84153747558594 146.19931030273438 171.97752380371094 146.86444091796875 C 172.02438354492188 127.0298843383789 170.9242401123047 124.5285873413086 176.8863067626953 116.68451690673828" stroke-width="0.0" fill="url(#shape_49_fill)"/>
    <path d="M 333.36724853515625 426.9669494628906 C 336.2004089355469 429.56622314453125 341.89923095703125 428.82244873046875 343.39617919921875 431.706298828125 C 346.3701171875 435.57855224609375 345.158447265625 437.2184143066406 342.37139892578125 437.55072021484375 C 342.73455810546875 447.4825439453125 325.5364685058594 448.7929992675781 323.6587219238281 444.85107421875 C 321.51495361328125 436.2176208496094 321.5758056640625 432.6086120605469 306.2953796386719 429.9861755371094 C 319.4643249511719 425.9521179199219 327.7653503417969 429.850341796875 333.36724853515625 426.9669494628906" stroke-width="0.0" fill="url(#shape_50_fill)"/>
    <path d="M 311.6233825683594 388.6178894042969 C 306.0607604980469 395.3424377441406 293.1094665527344 396.4742431640625 291.5035705566406 399.1091613769531 C 279.1044921875 397.49053955078125 277.8868713378906 399.17431640625 271.298095703125 402.4049987792969 C 271.1914367675781 401.60308837890625 269.89532470703125 398.9286804199219 271.59423828125 397.4986877441406 C 270.2356872558594 395.5509338378906 273.3369445800781 388.4071044921875 279.9508056640625 388.40985107421875 C 284.5716247558594 386.69781494140625 288.6371154785156 391.2905578613281 311.6233825683594 388.6178894042969" stroke-width="0.0" fill="url(#shape_51_fill)"/>
    <path d="M 269.0234680175781 184.9488067626953 C 276.4107360839844 194.7120361328125 277.2423400878906 207.8445587158203 280.3904724121094 217.64089965820312 C 271.5152893066406 210.484619140625 269.54058837890625 208.35995483398438 260.80255126953125 216.32518005371094 C 257.8005676269531 208.26853942871094 263.275390625 195.617919921875 266.872802734375 195.28561401367188 C 269.74700927734375 194.31344604492188 268.9022521972656 191.74339294433594 269.0234680175781 184.9488067626953" stroke-width="0.0" fill="url(#shape_52_fill)"/>
    <path d="M 218.39999389648438 409.4424743652344 C 215.89463806152344 410.9126892089844 215.71322631835938 413.31396484375 214.2854461669922 414.6412658691406 C 214.3883514404297 422.85498046875 193.69744873046875 425.0883483886719 187.62173461914062 415.5616455078125 C 186.31570434570312 404.5885314941406 207.62570190429688 399.6995849609375 218.39999389648438 409.4424743652344" stroke-width="0.0" fill="url(#shape_53_fill)"/>
    <path d="M 205.97474670410156 424.5019836425781 C 205.4735565185547 425.24212646484375 206.15017700195312 428.29248046875 204.56036376953125 429.0596618652344 C 194.24053955078125 429.65020751953125 178.8192138671875 430.1058654785156 178.04356384277344 432.6654052734375 C 176.87548828125 430.9437561035156 178.4379119873047 425.9447937011719 177.094482421875 423.90850830078125 C 188.0248260498047 418.0190124511719 192.10784912109375 423.7255859375 205.97474670410156 424.5019836425781" stroke-width="0.0" fill="url(#shape_54_fill)"/>
    <path d="M 268.50689697265625 247.6645965576172 C 275.2857666015625 245.33460998535156 276.7646789550781 247.89195251464844 280.1994934082031 248.04005432128906 C 280.7896423339844 251.01063537597656 280.08673095703125 252.38368225097656 288.592041015625 266.76239013671875 C 263.4551696777344 258.07525634765625 262.94384765625 257.3750305175781 250.14512634277344 266.26361083984375 C 254.83877563476562 248.17430114746094 255.89678955078125 247.24293518066406 258.7502136230469 245.13125610351562 C 260.31317138671875 239.28640747070312 264.08270263671875 239.8924102783203 268.50689697265625 247.6645965576172" stroke-width="0.0" fill="url(#shape_55_fill)"/>
    <path d="M 281.5831604003906 343.30328369140625 C 281.8977966308594 362.7017822265625 284.57366943359375 363.2999572753906 284.9635925292969 368.0274658203125 C 285.4935607910156 369.2289123535156 286.0589904785156 371.79315185546875 285.62091064453125 381.20782470703125 C 274.315185546875 379.35247802734375 260.36065673828125 381.2287292480469 238.62176513671875 383.822998046875 C 234.1316680908203 382.3622131347656 233.03936767578125 369.1488342285156 233.52012634277344 346.9740905761719 C 240.9991455078125 342.86474609375 250.0047149658203 341.6700134277344 281.5831604003906 343.30328369140625" stroke-width="0.0" fill="url(#shape_56_fill)"/>
    <path d="M 408.1119384765625 272.2080993652344 C 414.8935546875 269.60638427734375 418.0529479980469 274.1387634277344 423.05615234375 281.54620361328125 C 415.821044921875 283.3474426269531 411.47442626953125 276.3975830078125 377.3851013183594 273.9784240722656 C 377.7553405761719 264.4987487792969 385.7214660644531 263.78729248046875 408.1119384765625 272.2080993652344" stroke-width="0.0" fill="url(#shape_57_fill)"/>
    <path d="M 632.0888061523438 351.820556640625 C 632.9822998046875 355.24566650390625 661.4779052734375 354.80181884765625 668.5524291992188 354.8753356933594 C 668.4688720703125 358.3189697265625 663.0086669921875 360.3567810058594 660.1345825195312 356.9757385253906 C 646.6143188476562 355.92138671875 635.2459716796875 359.367431640625 631.6149291992188 360.0661926269531 C 627.8567504882812 357.1748046875 629.4569702148438 353.63641357421875 632.0888061523438 351.820556640625" stroke-width="0.0" fill="url(#shape_58_fill)"/>
    <path d="M 341.3494873046875 384.80767822265625 C 342.821533203125 390.1650695800781 358.1434631347656 391.6723937988281 359.1775207519531 394.6430358886719 C 356.8406066894531 398.6228942871094 339.78118896484375 401.218017578125 338.27459716796875 399.5582275390625 C 335.1358642578125 399.62530517578125 333.0654602050781 398.78521728515625 331.8409118652344 396.5372619628906 C 331.9906921386719 394.93994140625 330.74658203125 393.4737243652344 332.2875061035156 390.5873718261719 C 332.8901062011719 384.9301452636719 335.9768371582031 383.93408203125 341.3494873046875 384.80767822265625" stroke-width="0.0" fill="url(#shape_59_fill)"/>
    <path d="M 459.17987060546875 363.9901123046875 C 462.3160705566406 363.8110046386719 473.1981506347656 370.9617614746094 473.1766662597656 374.44830322265625 C 471.8088073730469 376.2483825683594 470.33636474609375 376.870361328125 463.1166687011719 375.827880859375 C 458.431396484375 377.3556823730469 457.5888977050781 376.8470764160156 452.68170166015625 370.8551940917969 C 453.39959716796875 370.185302734375 460.0243835449219 368.5027770996094 459.17987060546875 363.9901123046875" stroke-width="0.0" fill="url(#shape_60_fill)"/>
    <path d="M 428.7149658203125 432.3468322753906 C 440.0127258300781 434.2861328125 442.4275207519531 436.6145935058594 442.10845947265625 438.6023864746094 C 440.2874755859375 440.7203369140625 428.2256774902344 439.2569885253906 425.6962585449219 442.20281982421875 C 422.4811706542969 438.8135986328125 423.83892822265625 434.7109375 410.9251403808594 424.7325134277344 C 427.38427734375 428.8089904785156 429.107177734375 431.7979736328125 428.7149658203125 432.3468322753906" stroke-width="0.0" fill="url(#shape_61_fill)"/>
    <path d="M 185.41000366210938 411.4491882324219 C 186.26934814453125 413.93170166015625 185.00399780273438 414.7928771972656 186.91647338867188 417.61163330078125 C 184.8722686767578 420.2075500488281 183.3892059326172 419.502685546875 182.51333618164062 419.751953125 C 180.82257080078125 421.6426696777344 174.45957946777344 420.1590576171875 171.54298400878906 420.07366943359375 C 169.58062744140625 417.69879150390625 169.77789306640625 415.627197265625 175.1504669189453 412.17626953125 C 177.08172607421875 413.3268737792969 181.28501892089844 410.4546203613281 185.41000366210938 411.4491882324219" stroke-width="0.0" fill="url(#shape_62_fill)"/>
    <path d="M 332.19097900390625 418.7604064941406 C 334.3968811035156 425.7511901855469 329.8955078125 427.97943115234375 327.2438659667969 425.7254943847656 C 324.5368957519531 427.7522888183594 322.9761657714844 426.7041931152344 321.26116943359375 427.45361328125 C 318.8860778808594 425.99371337890625 319.92095947265625 419.96356201171875 317.5926208496094 418.4961242675781 C 318.9997863769531 420.1828308105469 325.913818359375 418.7088928222656 332.19097900390625 418.7604064941406" stroke-width="0.0" fill="url(#shape_63_fill)"/>
    <path d="M 55.52895736694336 273.9453430175781 C 56.576969146728516 269.18865966796875 65.29732513427734 270.1278076171875 64.73190307617188 278.39239501953125 C 59.44721221923828 279.1435852050781 53.98091125488281 272.6397705078125 48.468379974365234 276.0601806640625 C 50.8206672668457 273.4167175292969 52.52714157104492 273.0276184082031 55.52895736694336 273.9453430175781" stroke-width="0.0" fill="url(#shape_64_fill)"/>
    <path d="M 304.72772216796875 439.98614501953125 C 304.60174560546875 437.8725280761719 306.5992431640625 436.787353515625 313.53692626953125 437.4220275878906 C 314.41510009765625 439.7667541503906 313.0255432128906 441.18646240234375 311.1333923339844 441.8709716796875 C 307.96038818359375 445.22796630859375 306.4816589355469 444.24371337890625 305.3325500488281 444.0307922363281 C 302.5040588378906 441.70025634765625 303.285400390625 440.3645935058594 304.72772216796875 439.98614501953125" stroke-width="0.0" fill="url(#shape_65_fill)"/>
    <path d="M -0.5233405232429504 -0.4345141649246216 C 224.84805297851562 -0.16686111688613892 444.22705078125 0.317923903465271 672.5911254882812 0.42138198018074036 C 673.4181518554688 155.3562774658203 674.7227172851562 296.1794128417969 673.713623046875 445.4796447753906 C 450.2337951660156 446.32720947265625 230.34396362304688 446.2884826660156 0.5050886273384094 445.4128112792969 C 0.20226110517978668 297.1783142089844 -0.17931124567985535 149.31985473632812 -0.5233405232429504 -0.4345141649246216" stroke-width="0.0" fill="url(#shape_66_fill)"/>
    <path d="M -1.0886478424072266 -0.20060381293296814 C 222.6685028076172 -0.12145738303661346 442.9839172363281 0.37010031938552856 672.5386352539062 -0.22811678051948547 C 673.4789428710938 156.15469360351562 674.7996215820312 295.6649475097656 673.3787231445312 445.3918151855469 C 450.53924560546875 446.3993835449219 230.43466186523438 446.3305969238281 0.5329499244689941 445.332275390625 C 0.08143307268619537 297.4292907714844 -0.2763587236404419 149.0552215576172 -1.0886478424072266 -0.20060381293296814" stroke-width="0.0" fill="url(#shape_67_fill)"/>
    <path d="M -0.7126001715660095 -0.25404059886932373 C 223.25991821289062 -0.17234309017658234 441.8272705078125 0.5013415813446045 672.6355590820312 -0.2978357672691345 C 673.5275268554688 155.7067108154297 674.7938842773438 295.5299987792969 673.3714599609375 445.3920593261719 C 450.5361328125 446.4002990722656 230.45547485351562 446.3317565917969 1.099012017250061 445.31341552734375 C 0.491645872592926 295.6736755371094 0.06454822421073914 148.5247039794922 -0.7126001715660095 -0.25404059886932373" stroke-width="0.0" fill="url(#shape_68_fill)"/>
  </g>
</svg>
