<?xml version="1.0" ?>
<svg xmlns="http://www.w3.org/2000/svg" version="1.1" width="674" height="446">
  <defs>
    <radialGradient id="shape_0_fill" cx="0.5333030089426465" cy="0.7400520222069437" r="0.2798552923457205">
      <stop offset="0.74064213" stop-color="rgb(159, 175, 0)" stop-opacity="0.8469200134277344"/>
      <stop offset="1.0" stop-color="rgb(49, 45, 0)" stop-opacity="1.0"/>
    </radialGradient>
    <radialGradient id="shape_1_fill" cx="0.5349515920576781" cy="0.7439020952301709" r="0.20646486367245456">
      <stop offset="0.50849557" stop-color="rgb(71, 70, 69)" stop-opacity="0.771000325679779"/>
      <stop offset="1.0" stop-color="rgb(33, 13, 0)" stop-opacity="0.6228911876678467"/>
    </radialGradient>
    <radialGradient id="shape_2_fill" cx="0.09792273546892387" cy="0.7376672719091578" r="0.22062588021026522">
      <stop offset="0.00012944255" stop-color="rgb(36, 95, 183)" stop-opacity="0.9569356441497803"/>
      <stop offset="0.9861321" stop-color="rgb(7, 100, 255)" stop-opacity="0.9180575013160706"/>
    </radialGradient>
    <radialGradient id="shape_3_fill" cx="0.2773489796443226" cy="0.21552468201504696" r="0.1298925586553285">
      <stop offset="0.39649028" stop-color="rgb(133, 187, 1)" stop-opacity="0.7800504565238953"/>
      <stop offset="1.0" stop-color="rgb(36, 38, 0)" stop-opacity="0.9403947591781616"/>
    </radialGradient>
    <radialGradient id="shape_4_fill" cx="0.1543026706231454" cy="0.9977578475336323" r="0.10288926755639141">
      <stop offset="0.0" stop-color="rgb(81, 79, 86)" stop-opacity="1.0"/>
      <stop offset="1.0" stop-color="rgb(62, 60, 75)" stop-opacity="0.8871409893035889"/>
    </radialGradient>
    <radialGradient id="shape_5_fill" cx="0.14807964290992442" cy="0.23997249517740155" r="0.11810664960821587">
      <stop offset="0.0" stop-color="rgb(255, 255, 255)" stop-opacity="0.6465655565261841"/>
      <stop offset="0.5626593" stop-color="rgb(255, 255, 255)" stop-opacity="0.5496031045913696"/>
    </radialGradient>
    <radialGradient id="shape_6_fill" cx="0.18397626112759644" cy="0.9977578475336323" r="0.0754974885934892">
      <stop offset="0.0" stop-color="rgb(93, 90, 94)" stop-opacity="1.0"/>
      <stop offset="1.0" stop-color="rgb(144, 129, 131)" stop-opacity="0.9201868772506714"/>
    </radialGradient>
    <radialGradient id="shape_7_fill" cx="0.2893175074183976" cy="0.05829596412556054" r="0.08666390552011372">
      <stop offset="0.0" stop-color="rgb(55, 66, 29)" stop-opacity="1.0"/>
      <stop offset="1.0" stop-color="rgb(113, 130, 49)" stop-opacity="0.550142228603363"/>
    </radialGradient>
    <radialGradient id="shape_8_fill" cx="0.3382789091115889" cy="0.9439461883408071" r="0.06756690277190167">
      <stop offset="0.0" stop-color="rgb(91, 124, 45)" stop-opacity="1.0"/>
      <stop offset="1.0" stop-color="rgb(112, 166, 47)" stop-opacity="0.6713148355484009"/>
    </radialGradient>
    <radialGradient id="shape_9_fill" cx="0.30712166172106825" cy="0.9977578475336323" r="0.0730758406641929">
      <stop offset="0.0" stop-color="rgb(38, 48, 20)" stop-opacity="1.0"/>
      <stop offset="1.0" stop-color="rgb(33, 32, 49)" stop-opacity="1.0"/>
    </radialGradient>
    <radialGradient id="shape_10_fill" cx="0.3056379821958457" cy="0.9977578475336323" r="0.06792919147615971">
      <stop offset="0.0" stop-color="rgb(39, 49, 21)" stop-opacity="1.0"/>
      <stop offset="1.0" stop-color="rgb(36, 19, 0)" stop-opacity="0.6683220267295837"/>
    </radialGradient>
    <radialGradient id="shape_11_fill" cx="0.21810089020771514" cy="0.968609865470852" r="0.06792919147615971">
      <stop offset="0.0" stop-color="rgb(138, 135, 129)" stop-opacity="1.0"/>
      <stop offset="1.0" stop-color="rgb(147, 114, 80)" stop-opacity="0.4625052511692047"/>
    </radialGradient>
    <radialGradient id="shape_12_fill" cx="0.29080118694362017" cy="0.9977578475336323" r="0.07480746985189285">
      <stop offset="0.0" stop-color="rgb(22, 25, 13)" stop-opacity="1.0"/>
      <stop offset="1.0" stop-color="rgb(38, 39, 10)" stop-opacity="0.9996150135993958"/>
    </radialGradient>
    <radialGradient id="shape_13_fill" cx="0.327893175074184" cy="0.8923766816143498" r="0.06900465877544279">
      <stop offset="0.0" stop-color="rgb(89, 117, 50)" stop-opacity="1.0"/>
      <stop offset="1.0" stop-color="rgb(97, 133, 8)" stop-opacity="0.649677038192749"/>
    </radialGradient>
    <radialGradient id="shape_14_fill" cx="0.142433234421365" cy="0.9977578475336323" r="0.06617211022079875">
      <stop offset="0.0" stop-color="rgb(155, 150, 153)" stop-opacity="1.0"/>
      <stop offset="1.0" stop-color="rgb(255, 202, 184)" stop-opacity="0.22867295145988464"/>
    </radialGradient>
    <radialGradient id="shape_15_fill" cx="0.31008902077151335" cy="0.9977578475336323" r="0.06683642786405207">
      <stop offset="0.0" stop-color="rgb(43, 55, 23)" stop-opacity="1.0"/>
      <stop offset="1.0" stop-color="rgb(58, 67, 20)" stop-opacity="0.9351649284362793"/>
    </radialGradient>
    <radialGradient id="shape_16_fill" cx="0.27299703264094954" cy="0.9977578475336323" r="0.08110449363640579">
      <stop offset="0.0" stop-color="rgb(31, 35, 19)" stop-opacity="1.0"/>
      <stop offset="1.0" stop-color="rgb(30, 30, 0)" stop-opacity="0.959210991859436"/>
    </radialGradient>
    <radialGradient id="shape_17_fill" cx="0.2893175074183976" cy="0.9977578475336323" r="0.07513486030193747">
      <stop offset="0.0" stop-color="rgb(22, 23, 13)" stop-opacity="1.0"/>
      <stop offset="1.0" stop-color="rgb(22, 20, 0)" stop-opacity="0.8614799976348877"/>
    </radialGradient>
    <radialGradient id="shape_18_fill" cx="0.3293768545994065" cy="0.7556053811659192" r="0.06617211022079875">
      <stop offset="0.0" stop-color="rgb(83, 108, 65)" stop-opacity="1.0"/>
      <stop offset="1.0" stop-color="rgb(108, 132, 60)" stop-opacity="0.9834433794021606"/>
    </radialGradient>
    <radialGradient id="shape_19_fill" cx="0.3516320474777448" cy="0.9977578475336323" r="0.06617211022079875">
      <stop offset="0.0" stop-color="rgb(95, 135, 39)" stop-opacity="1.0"/>
      <stop offset="1.0" stop-color="rgb(137, 198, 7)" stop-opacity="0.7465853095054626"/>
    </radialGradient>
    <radialGradient id="shape_20_fill" cx="0.0830860534124629" cy="0.9977578475336323" r="0.06792919147615971">
      <stop offset="0.0" stop-color="rgb(49, 52, 66)" stop-opacity="1.0"/>
      <stop offset="1.0" stop-color="rgb(32, 20, 57)" stop-opacity="0.41268685460090637"/>
    </radialGradient>
    <radialGradient id="shape_21_fill" cx="0.29821958456973297" cy="0.9977578475336323" r="0.06792919147615971">
      <stop offset="0.0" stop-color="rgb(33, 40, 17)" stop-opacity="1.0"/>
      <stop offset="1.0" stop-color="rgb(43, 59, 0)" stop-opacity="0.7181171178817749"/>
    </radialGradient>
    <radialGradient id="shape_22_fill" cx="0.3563326600751113" cy="0.44372438849889645" r="0.06594546966099951">
      <stop offset="0.5238344" stop-color="rgb(104, 141, 31)" stop-opacity="0.9763145446777344"/>
      <stop offset="0.38892958" stop-color="rgb(148, 182, 39)" stop-opacity="0.911641001701355"/>
    </radialGradient>
    <radialGradient id="shape_23_fill" cx="0.6454005934718101" cy="0.1412556053811659" r="0.06617211022079875">
      <stop offset="0.0" stop-color="rgb(46, 38, 13)" stop-opacity="1.0"/>
      <stop offset="1.0" stop-color="rgb(52, 31, 0)" stop-opacity="0.8833634257316589"/>
    </radialGradient>
    <radialGradient id="shape_24_fill" cx="0.24925517186920437" cy="0.48430746446275924" r="0.06616980102720176">
      <stop offset="0.0" stop-color="rgb(204, 212, 206)" stop-opacity="1.0"/>
      <stop offset="0.92914283" stop-color="rgb(255, 255, 255)" stop-opacity="0.5948240756988525"/>
    </radialGradient>
    <radialGradient id="shape_25_fill" cx="0.6320474777448071" cy="0.9977578475336323" r="0.06617211022079875">
      <stop offset="0.0" stop-color="rgb(35, 28, 8)" stop-opacity="1.0"/>
      <stop offset="1.0" stop-color="rgb(39, 16, 0)" stop-opacity="0.5644950270652771"/>
    </radialGradient>
    <radialGradient id="shape_26_fill" cx="0.15414520399506793" cy="0.3207086811151205" r="0.06604698362265567">
      <stop offset="0.11989566" stop-color="rgb(198, 211, 155)" stop-opacity="1.0"/>
      <stop offset="0.58338004" stop-color="rgb(116, 115, 240)" stop-opacity="0.02961057238280773"/>
    </radialGradient>
    <radialGradient id="shape_27_fill" cx="0.15410647972401242" cy="0.3208032787648017" r="0.06604505929465818">
      <stop offset="0.0" stop-color="rgb(192, 205, 0)" stop-opacity="1.0"/>
      <stop offset="0.49375948" stop-color="rgb(77, 72, 45)" stop-opacity="0.6105576157569885"/>
    </radialGradient>
    <radialGradient id="shape_28_fill" cx="0.036128564828934936" cy="0.016942094794303312" r="0.06908565600477269">
      <stop offset="0.13123268" stop-color="rgb(6, 27, 121)" stop-opacity="0.9727393388748169"/>
      <stop offset="0.8242722" stop-color="rgb(6, 27, 161)" stop-opacity="0.7388796210289001"/>
    </radialGradient>
    <radialGradient id="shape_29_fill" cx="0.33976258863681147" cy="0.6659192825112108" r="0.06617211022079875">
      <stop offset="0.0" stop-color="rgb(90, 117, 55)" stop-opacity="1.0"/>
      <stop offset="1.0" stop-color="rgb(108, 138, 27)" stop-opacity="0.8730972409248352"/>
    </radialGradient>
    <radialGradient id="shape_30_fill" cx="0.03953173040282479" cy="0.016428210810160958" r="0.06880234964523542">
      <stop offset="0.17207392" stop-color="rgb(49, 75, 76)" stop-opacity="1.0"/>
      <stop offset="0.925801" stop-color="rgb(60, 67, 0)" stop-opacity="0.5226768851280212"/>
    </radialGradient>
    <radialGradient id="shape_31_fill" cx="0.12314540059347182" cy="0.9977578475336323" r="0.06617211022079875">
      <stop offset="0.0" stop-color="rgb(95, 103, 98)" stop-opacity="1.0"/>
      <stop offset="1.0" stop-color="rgb(134, 125, 112)" stop-opacity="0.7420285940170288"/>
    </radialGradient>
    <radialGradient id="shape_32_fill" cx="0.4035608308605341" cy="0.984304932735426" r="0.06617211022079875">
      <stop offset="0.0" stop-color="rgb(126, 155, 63)" stop-opacity="1.0"/>
      <stop offset="1.0" stop-color="rgb(135, 125, 30)" stop-opacity="0.9896526336669922"/>
    </radialGradient>
    <radialGradient id="shape_33_fill" cx="0.3249258160237389" cy="0.6053811659192825" r="0.06617211022079875">
      <stop offset="4.268037e-06" stop-color="rgb(93, 124, 71)" stop-opacity="0.9999479651451111"/>
      <stop offset="1.0" stop-color="rgb(126, 151, 57)" stop-opacity="1.0"/>
    </radialGradient>
    <radialGradient id="shape_34_fill" cx="0.6468842729970327" cy="0.531390134529148" r="0.06617211022079875">
      <stop offset="0.0" stop-color="rgb(54, 47, 24)" stop-opacity="1.0"/>
      <stop offset="1.0" stop-color="rgb(49, 15, 24)" stop-opacity="0.4030534029006958"/>
    </radialGradient>
    <radialGradient id="shape_35_fill" cx="0.14773934248293188" cy="0.24018230352701092" r="0.06951450947837942">
      <stop offset="0.10821954" stop-color="rgb(198, 255, 85)" stop-opacity="0.17920562624931335"/>
      <stop offset="0.5744004" stop-color="rgb(104, 78, 60)" stop-opacity="0.8088295459747314"/>
    </radialGradient>
    <radialGradient id="shape_36_fill" cx="0.2878338278931751" cy="0.9977578475336323" r="0.06617211022079875">
      <stop offset="0.0" stop-color="rgb(80, 96, 53)" stop-opacity="1.0"/>
      <stop offset="1.0" stop-color="rgb(33, 34, 0)" stop-opacity="0.7816373705863953"/>
    </radialGradient>
    <radialGradient id="shape_37_fill" cx="0.129080118694362" cy="0.9977578475336323" r="0.06617211022079875">
      <stop offset="0.0" stop-color="rgb(87, 97, 81)" stop-opacity="1.0"/>
      <stop offset="1.0" stop-color="rgb(66, 75, 55)" stop-opacity="0.5987854599952698"/>
    </radialGradient>
    <radialGradient id="shape_38_fill" cx="0.33892324204260943" cy="0.5607740119968294" r="0.0666785763703751">
      <stop offset="0.7501433" stop-color="rgb(83, 112, 22)" stop-opacity="0.9131748676300049"/>
      <stop offset="0.6022492" stop-color="rgb(168, 255, 80)" stop-opacity="0.8851639628410339"/>
    </radialGradient>
    <radialGradient id="shape_39_fill" cx="0.40059347181008903" cy="0.9641255605381166" r="0.06617211022079875">
      <stop offset="0.0" stop-color="rgb(138, 168, 60)" stop-opacity="1.0"/>
      <stop offset="1.0" stop-color="rgb(213, 254, 81)" stop-opacity="0.993373692035675"/>
    </radialGradient>
    <radialGradient id="shape_40_fill" cx="0.6125784401370086" cy="0.8773562170464896" r="0.07040600536131364">
      <stop offset="0.38295576" stop-color="rgb(149, 134, 168)" stop-opacity="0.3330395221710205"/>
      <stop offset="0.5012421" stop-color="rgb(1, 14, 69)" stop-opacity="0.9639835953712463"/>
    </radialGradient>
    <radialGradient id="shape_41_fill" cx="0.6454005934718101" cy="0.08744394618834081" r="0.06617211022079875">
      <stop offset="0.0" stop-color="rgb(58, 48, 21)" stop-opacity="1.0"/>
      <stop offset="1.0" stop-color="rgb(90, 63, 20)" stop-opacity="1.0"/>
    </radialGradient>
    <radialGradient id="shape_42_fill" cx="0.5845697329376854" cy="0.6188340807174888" r="0.06617211022079875">
      <stop offset="0.0" stop-color="rgb(62, 59, 56)" stop-opacity="1.0"/>
      <stop offset="1.0" stop-color="rgb(37, 33, 79)" stop-opacity="0.6056305766105652"/>
    </radialGradient>
    <radialGradient id="shape_43_fill" cx="0.3550641656983146" cy="0.5022331545705753" r="0.06960973541531436">
      <stop offset="0.2502119" stop-color="rgb(119, 158, 49)" stop-opacity="0.9163565039634705"/>
      <stop offset="0.58437395" stop-color="rgb(202, 255, 27)" stop-opacity="0.81790691614151"/>
    </radialGradient>
    <radialGradient id="shape_44_fill" cx="0.5934718100890207" cy="0.9977578475336323" r="0.06617211022079875">
      <stop offset="0.0" stop-color="rgb(89, 61, 18)" stop-opacity="1.0"/>
      <stop offset="1.0" stop-color="rgb(162, 82, 2)" stop-opacity="0.7328206896781921"/>
    </radialGradient>
    <radialGradient id="shape_45_fill" cx="0.612759643916914" cy="0.04035874439461883" r="0.06617211022079875">
      <stop offset="0.0" stop-color="rgb(157, 136, 123)" stop-opacity="1.0"/>
      <stop offset="1.0" stop-color="rgb(255, 222, 203)" stop-opacity="1.0"/>
    </radialGradient>
    <radialGradient id="shape_46_fill" cx="0.28635014836795253" cy="0.9977578475336323" r="0.06617211022079875">
      <stop offset="0.0" stop-color="rgb(82, 99, 55)" stop-opacity="1.0"/>
      <stop offset="1.0" stop-color="rgb(89, 103, 25)" stop-opacity="0.5788273215293884"/>
    </radialGradient>
    <radialGradient id="shape_47_fill" cx="0.28635014836795253" cy="0.8183856502242153" r="0.06617211022079875">
      <stop offset="0.0" stop-color="rgb(166, 189, 197)" stop-opacity="1.0"/>
      <stop offset="1.0" stop-color="rgb(252, 255, 255)" stop-opacity="0.4448942244052887"/>
    </radialGradient>
    <radialGradient id="shape_48_fill" cx="0.40801186943620177" cy="0.9977578475336323" r="0.06617211022079875">
      <stop offset="0.0" stop-color="rgb(107, 135, 68)" stop-opacity="1.0"/>
      <stop offset="1.0" stop-color="rgb(127, 143, 55)" stop-opacity="1.0"/>
    </radialGradient>
    <radialGradient id="shape_49_fill" cx="0.19287833827893175" cy="0.3991031390134529" r="0.06617211022079875">
      <stop offset="0.0" stop-color="rgb(92, 100, 54)" stop-opacity="1.0"/>
      <stop offset="1.0" stop-color="rgb(58, 36, 0)" stop-opacity="0.5181695222854614"/>
    </radialGradient>
    <radialGradient id="shape_50_fill" cx="0.6439169139465876" cy="0.7376681614349776" r="0.06617211022079875">
      <stop offset="0.0" stop-color="rgb(65, 56, 25)" stop-opacity="1.0"/>
      <stop offset="1.0" stop-color="rgb(148, 185, 104)" stop-opacity="0.428606778383255"/>
    </radialGradient>
    <radialGradient id="shape_51_fill" cx="0.5845697329376854" cy="0.6322869955156951" r="0.06617211022079875">
      <stop offset="0.0" stop-color="rgb(75, 68, 60)" stop-opacity="1.0"/>
      <stop offset="1.0" stop-color="rgb(149, 116, 92)" stop-opacity="0.6259879469871521"/>
    </radialGradient>
    <radialGradient id="shape_52_fill" cx="0.2997032640949555" cy="0.6031390134529148" r="0.06617211022079875">
      <stop offset="0.0" stop-color="rgb(107, 158, 118)" stop-opacity="1.0"/>
      <stop offset="1.0" stop-color="rgb(178, 255, 233)" stop-opacity="0.5347551107406616"/>
    </radialGradient>
    <radialGradient id="shape_53_fill" cx="0.6097922848664689" cy="0.45067264573991034" r="0.06617211022079875">
      <stop offset="0.0" stop-color="rgb(38, 39, 27)" stop-opacity="1.0"/>
      <stop offset="1.0" stop-color="rgb(19, 14, 53)" stop-opacity="0.35882148146629333"/>
    </radialGradient>
    <radialGradient id="shape_54_fill" cx="0.6335311572700296" cy="0.426009002822397" r="0.06617211022079875">
      <stop offset="0.0" stop-color="rgb(67, 49, 20)" stop-opacity="1.0"/>
      <stop offset="1.0" stop-color="rgb(143, 81, 24)" stop-opacity="0.6067101359367371"/>
    </radialGradient>
    <radialGradient id="shape_55_fill" cx="0.3707168533823257" cy="0.5988430827187851" r="0.066001377049115">
      <stop offset="0.43605936" stop-color="rgb(237, 255, 48)" stop-opacity="0.865943968296051"/>
      <stop offset="0.16089156" stop-color="rgb(204, 255, 0)" stop-opacity="0.7220618724822998"/>
    </radialGradient>
    <radialGradient id="shape_56_fill" cx="0.5489614243323442" cy="0.600896860986547" r="0.06617211022079875">
      <stop offset="0.0" stop-color="rgb(50, 62, 80)" stop-opacity="1.0"/>
      <stop offset="1.0" stop-color="rgb(26, 77, 238)" stop-opacity="0.43051227927207947"/>
    </radialGradient>
    <radialGradient id="shape_57_fill" cx="0.4094955489614243" cy="0.9035874439461884" r="0.06617211022079875">
      <stop offset="0.0" stop-color="rgb(111, 144, 47)" stop-opacity="1.0"/>
      <stop offset="1.0" stop-color="rgb(201, 255, 42)" stop-opacity="0.7400649189949036"/>
    </radialGradient>
    <radialGradient id="shape_58_fill" cx="0.5281899109792285" cy="0.9977578475336323" r="0.06617211022079875">
      <stop offset="0.0" stop-color="rgb(50, 43, 14)" stop-opacity="1.0"/>
      <stop offset="1.0" stop-color="rgb(78, 57, 9)" stop-opacity="1.0"/>
    </radialGradient>
    <radialGradient id="shape_59_fill" cx="0.5845697329376854" cy="0.7690582959641256" r="0.06617211022079875">
      <stop offset="0.0" stop-color="rgb(61, 63, 58)" stop-opacity="1.0"/>
      <stop offset="1.0" stop-color="rgb(78, 75, 94)" stop-opacity="0.7088025808334351"/>
    </radialGradient>
    <radialGradient id="shape_60_fill" cx="0.5489614243323442" cy="0.9977578475336323" r="0.06617211022079875">
      <stop offset="0.0" stop-color="rgb(140, 131, 64)" stop-opacity="1.0"/>
      <stop offset="1.0" stop-color="rgb(233, 205, 90)" stop-opacity="0.9087575078010559"/>
    </radialGradient>
    <radialGradient id="shape_61_fill" cx="0.646971614848966" cy="0.96866973740103" r="0.06610450971020436">
      <stop offset="0.46308073" stop-color="rgb(255, 216, 64)" stop-opacity="1.0"/>
      <stop offset="0.21360955" stop-color="rgb(215, 145, 30)" stop-opacity="0.7176119089126587"/>
    </radialGradient>
    <radialGradient id="shape_62_fill" cx="0.615727002967359" cy="0.3991031390134529" r="0.06617211022079875">
      <stop offset="0.0" stop-color="rgb(55, 47, 13)" stop-opacity="1.0"/>
      <stop offset="1.0" stop-color="rgb(76, 53, 1)" stop-opacity="0.9961568117141724"/>
    </radialGradient>
    <radialGradient id="shape_63_fill" cx="0.6261127596439169" cy="0.7286995515695067" r="0.06617211022079875">
      <stop offset="0.0" stop-color="rgb(79, 66, 32)" stop-opacity="1.0"/>
      <stop offset="1.0" stop-color="rgb(193, 200, 107)" stop-opacity="0.5878580212593079"/>
    </radialGradient>
    <radialGradient id="shape_64_fill" cx="0.40801186943620177" cy="0.12556053811659193" r="0.06617211022079875">
      <stop offset="0.0" stop-color="rgb(76, 66, 59)" stop-opacity="1.0"/>
      <stop offset="1.0" stop-color="rgb(110, 83, 78)" stop-opacity="1.0"/>
    </radialGradient>
    <radialGradient id="shape_65_fill" cx="0.6528189910979229" cy="0.6883408071748879" r="0.06617211022079875">
      <stop offset="0.0" stop-color="rgb(121, 97, 39)" stop-opacity="1.0"/>
      <stop offset="1.0" stop-color="rgb(255, 234, 92)" stop-opacity="1.0"/>
    </radialGradient>
    <radialGradient id="shape_66_fill" cx="0.6526096242117952" cy="0.45943656202923555" r="0.07026689342645934">
      <stop offset="0.24114269" stop-color="rgb(166, 200, 116)" stop-opacity="0.298380970954895"/>
      <stop offset="0.94249046" stop-color="rgb(0, 0, 0)" stop-opacity="0.0517171286046505"/>
    </radialGradient>
    <radialGradient id="shape_67_fill" cx="0.5964007731361276" cy="0.9950580682455157" r="0.06990052967467718">
      <stop offset="0.8432455" stop-color="rgb(53, 30, 0)" stop-opacity="0.70361328125"/>
      <stop offset="1.0" stop-color="rgb(0, 2, 0)" stop-opacity="0.1517183482646942"/>
    </radialGradient>
    <radialGradient id="shape_68_fill" cx="0.49065188625799794" cy="0.9969179298845642" r="0.06813906208343959">
      <stop offset="0.36633918" stop-color="rgb(47, 19, 0)" stop-opacity="0.5476325750350952"/>
      <stop offset="1.0" stop-color="rgb(35, 62, 55)" stop-opacity="0.2126367688179016"/>
    </radialGradient>
  </defs>
  <g>
    <path d="M -0.1038917601108551 271.16583251953125 C 25.046268463134766 263.7627258300781 39.01861572265625 265.6424255371094 45.8572998046875 272.17669677734375 C 48.138362884521484 273.9279479980469 49.359214782714844 276.22515869140625 57.094627380371094 274.4754333496094 C 59.52486801147461 273.77569580078125 63.256080627441406 274.25091552734375 63.965999603271484 270.770263671875 C 68.993896484375 268.87335205078125 99.78569793701172 270.30267333984375 116.73982238769531 270.5937194824219 C 120.29922485351562 271.1070251464844 124.65879821777344 278.2346496582031 126.53800201416016 282.3028869628906 C 132.5413055419922 282.7513732910156 142.8065185546875 281.395751953125 163.0199432373047 288.77825927734375 C 185.27932739257812 282.67169189453125 185.85137939453125 282.24444580078125 206.71754455566406 287.3017883300781 C 200.26014709472656 287.4126892089844 198.28872680664062 281.4772033691406 210.93630981445312 269.1380615234375 C 247.69451904296875 268.3438720703125 291.14849853515625 266.6805725097656 313.33203125 273.59344482421875 C 349.1024475097656 275.1311950683594 426.0467529296875 275.78875732421875 472.08978271484375 269.4256896972656 C 501.5191345214844 265.6824645996094 547.0673217773438 266.3028259277344 546.9962158203125 276.17401123046875 C 548.1807861328125 275.08135986328125 548.4921875 268.286376953125 575.0562744140625 266.2713317871094 C 590.364501953125 270.7814636230469 612.113037109375 281.4873962402344 612.7210693359375 281.5185546875 C 619.8681030273438 268.08648681640625 629.15625 266.9574890136719 673.503173828125 266.26776123046875 C 676.6690063476562 272.3275451660156 679.3623657226562 278.8306884765625 678.4677124023438 284.90374755859375 C 676.6173706054688 339.5245361328125 674.7152709960938 391.49212646484375 675.1177368164062 446.4668273925781 C 451.9151306152344 446.6697692871094 228.9889373779297 446.8115539550781 -0.4724748432636261 446.4240417480469 C -0.4540637135505676 389.14483642578125 -0.17744065821170807 332.3588562011719 -0.1038917601108551 271.16583251953125" stroke-width="0.0" fill="url(#shape_0_fill)"/>
    <path d="M 0.023078298196196556 271.076171875 C 35.93361282348633 275.3946533203125 36.5576057434082 274.58685302734375 44.205047607421875 273.94500732421875 C 46.80889892578125 266.8883361816406 59.360782623291016 266.40301513671875 78.45732879638672 267.9222412109375 C 113.57539367675781 278.68035888671875 114.04560089111328 279.3109130859375 127.72052001953125 279.1814270019531 C 127.8026351928711 271.0047302246094 138.54696655273438 269.4032287597656 145.020751953125 269.6979064941406 C 185.23233032226562 268.332275390625 185.94918823242188 269.44775390625 203.34072875976562 273.579833984375 C 203.1909637451172 292.0723571777344 204.08901977539062 292.3544921875 210.36294555664062 298.1847839355469 C 213.7705841064453 297.5500793457031 266.1706237792969 299.59283447265625 288.2148742675781 301.1089172363281 C 315.50482177734375 304.344482421875 447.0310974121094 302.51629638671875 461.5315246582031 303.5586853027344 C 479.57861328125 294.33929443359375 490.880859375 291.8125305175781 503.86761474609375 287.0323181152344 C 512.1803588867188 288.50347900390625 520.84716796875 286.5986328125 522.9663696289062 286.5190734863281 C 527.4547119140625 285.7171325683594 531.7845458984375 285.948486328125 534.7755737304688 287.15087890625 C 541.086669921875 287.0799865722656 543.2348022460938 288.38848876953125 551.8299560546875 303.8032531738281 C 579.3615112304688 290.2464904785156 581.5670166015625 290.7564392089844 597.99560546875 295.76220703125 C 615.4148559570312 289.20050048828125 625.6112060546875 288.1073913574219 633.9964599609375 288.52105712890625 C 642.4038696289062 277.4131774902344 655.2830200195312 281.5870056152344 673.7298583984375 292.02996826171875 C 674.1663818359375 340.3023376464844 674.48193359375 392.1495666503906 674.1571044921875 446.2807922363281 C 451.4774169921875 446.3905334472656 229.19664001464844 446.25439453125 -0.30765676498413086 446.2476501464844 C -0.21360212564468384 389.4035949707031 -0.2955459654331207 333.0256652832031 0.023078298196196556 271.076171875" stroke-width="0.0" fill="url(#shape_1_fill)"/>
    <path d="M -0.019932541996240616 -0.25989267230033875 C 219.69313049316406 0.1040392518043518 439.478759765625 -0.45242562890052795 672.7874145507812 -0.1533588171005249 C 666.101318359375 11.05976390838623 644.7789306640625 35.291954040527344 637.7347412109375 48.74836730957031 C 634.5266723632812 53.185035705566406 610.8858032226562 92.77739715576172 584.3377685546875 83.8910903930664 C 577.7354125976562 81.56735229492188 561.4710083007812 71.24420166015625 532.6484985351562 73.64913940429688 C 531.9537963867188 78.01997375488281 525.5110473632812 79.25389099121094 522.2642211914062 72.03398132324219 C 522.6552734375 68.87356567382812 499.368896484375 63.8889274597168 499.308349609375 62.654632568359375 C 493.02203369140625 62.157047271728516 485.93133544921875 60.99159622192383 484.5068664550781 68.75943756103516 C 475.241943359375 72.78373718261719 476.1061706542969 75.87299346923828 476.9385986328125 83.04449462890625 C 485.09844970703125 99.70613861083984 478.6446838378906 118.20038604736328 475.7906799316406 121.24166870117188 C 460.4578857421875 117.35298156738281 459.16375732421875 113.79991912841797 450.0047912597656 108.30372619628906 C 435.1794128417969 107.89124298095703 411.7250061035156 102.19121551513672 410.03021240234375 105.16146087646484 C 414.0721130371094 120.1256332397461 418.36199951171875 127.13211059570312 414.6123962402344 139.2639923095703 C 410.0552978515625 151.321533203125 396.7030334472656 150.93255615234375 394.0538330078125 136.3084716796875 C 381.4076843261719 141.8331756591797 377.2532653808594 158.3117218017578 369.05059814453125 157.5449981689453 C 366.3762512207031 155.8331756591797 363.69598388671875 158.93325805664062 357.8030090332031 162.9240264892578 C 353.32208251953125 166.53846740722656 350.1539001464844 166.90016174316406 350.0413513183594 172.5727081298828 C 345.32818603515625 179.4600830078125 338.1698913574219 174.7300262451172 343.4212341308594 164.99925231933594 C 299.147216796875 162.602294921875 297.89569091796875 169.25035095214844 295.861572265625 177.632080078125 C 305.2251281738281 185.8952178955078 303.84576416015625 190.66720581054688 307.47894287109375 201.4969482421875 C 307.4930114746094 200.65365600585938 306.1763610839844 198.1349639892578 304.199462890625 189.94390869140625 C 304.79132080078125 185.6675567626953 303.7760925292969 185.0661163330078 290.30584716796875 173.97763061523438 C 289.6805725097656 194.55728149414062 289.1139221191406 195.97073364257812 289.38897705078125 196.29393005371094 C 289.2593078613281 189.93765258789062 290.7794189453125 182.0542449951172 289.62994384765625 173.70167541503906 C 272.04638671875 176.25738525390625 268.6729736328125 181.52377319335938 261.2620544433594 177.02633666992188 C 255.98739624023438 183.1065216064453 255.688720703125 188.64419555664062 254.55198669433594 197.30455017089844 C 260.7159118652344 199.33726501464844 260.5477294921875 199.91676330566406 257.8254699707031 199.57705688476562 C 257.1632995605469 198.48121643066406 253.77911376953125 195.8788604736328 254.98983764648438 193.90872192382812 C 255.49725341796875 183.79806518554688 260.8244323730469 182.42160034179688 258.7749938964844 166.09085083007812 C 259.8870849609375 161.7484588623047 216.25296020507812 142.22940063476562 213.37112426757812 140.87060546875 C 186.44406127929688 132.22850036621094 195.25425720214844 104.48644256591797 191.54458618164062 86.65892791748047 C 191.6267547607422 84.73703002929688 161.5128173828125 73.70154571533203 130.9303436279297 58.97853088378906 C 106.9924087524414 39.572265625 73.57840728759766 57.356666564941406 42.32779312133789 59.492881774902344 C 27.17650032043457 70.03807830810547 3.1753952503204346 69.70752716064453 -1.1404577493667603 69.51750183105469 C 0.34183040261268616 43.958133697509766 -0.3314551115036011 22.56187629699707 -0.019932541996240616 -0.25989267230033875" stroke-width="0.0" fill="url(#shape_2_fill)"/>
    <path d="M 86.9847640991211 58.624210357666016 C 89.21215057373047 68.79447174072266 91.57942199707031 69.06588745117188 93.72364044189453 71.34747314453125 C 90.94268798828125 79.96343231201172 91.67511749267578 81.67012023925781 89.55538940429688 93.30791473388672 C 96.32958984375 86.16800689697266 98.37185668945312 86.43168640136719 102.91036987304688 87.8637466430664 C 104.85718536376953 75.2445068359375 105.83897399902344 73.3542251586914 108.21709442138672 73.32270050048828 C 112.40744018554688 87.46940612792969 110.72794342041016 92.94495391845703 116.76873779296875 99.23028564453125 C 116.32421875 100.05178833007812 116.25228881835938 109.25392150878906 115.54163360595703 115.36161804199219 C 123.00074768066406 115.37252807617188 128.452880859375 115.84048461914062 129.50758361816406 111.99250030517578 C 130.7894287109375 110.27439880371094 136.82093811035156 109.2001953125 136.58888244628906 104.789794921875 C 136.64755249023438 103.67806243896484 135.56341552734375 101.82969665527344 137.44325256347656 98.6991958618164 C 136.4990692138672 93.27359008789062 137.53289794921875 92.90475463867188 137.58505249023438 89.41991424560547 C 137.32545471191406 85.09291076660156 138.60043334960938 84.9298095703125 139.8345489501953 87.46620178222656 C 140.33839416503906 83.15193176269531 146.75674438476562 80.69145202636719 148.18719482421875 82.7886962890625 C 148.56455993652344 93.24768829345703 149.99998474121094 94.55335998535156 152.186767578125 99.17813110351562 C 153.64801025390625 102.92168426513672 149.92630004882812 106.91776275634766 148.85223388671875 106.74016571044922 C 152.5341796875 109.73786926269531 150.3644256591797 114.07054138183594 148.4089813232422 113.35488891601562 C 154.42018127441406 112.83379364013672 157.98391723632812 122.58625793457031 157.1453399658203 123.31319427490234 C 161.2225799560547 125.01687622070312 164.89535522460938 123.45663452148438 169.64828491210938 122.71642303466797 C 174.39208984375 119.7313461303711 175.7849578857422 121.51335906982422 177.70291137695312 122.49641418457031 C 179.3393096923828 122.68757629394531 180.03652954101562 125.14188385009766 183.33529663085938 127.53852081298828 C 183.88583374023438 130.16046142578125 182.53057861328125 133.03158569335938 184.48260498046875 134.99151611328125 C 187.23680114746094 135.53086853027344 188.27069091796875 141.52928161621094 188.4020233154297 145.2115936279297 C 196.48422241210938 147.06690979003906 208.51516723632812 152.6199188232422 202.04515075683594 172.8155975341797 C 205.28182983398438 177.07679748535156 206.18898010253906 178.6879425048828 205.09832763671875 181.49676513671875 C 214.5010986328125 181.32179260253906 215.0374298095703 194.35374450683594 212.25497436523438 201.76638793945312 C 204.79901123046875 206.37876892089844 203.1511688232422 206.72950744628906 203.1682586669922 210.26548767089844 C 200.71316528320312 210.5103759765625 199.98736572265625 211.70986938476562 200.04786682128906 213.42356872558594 C 196.20127868652344 215.22079467773438 193.3003692626953 215.2863311767578 192.0914764404297 219.7289276123047 C 184.28773498535156 220.83985900878906 183.60203552246094 224.7438201904297 178.38217163085938 230.07940673828125 C 176.41261291503906 233.52186584472656 180.84425354003906 238.81642150878906 180.95016479492188 239.86244201660156 C 182.2306365966797 251.8308868408203 185.77999877929688 260.8135681152344 178.90382385253906 264.83203125 C 173.42637634277344 268.1518859863281 148.8030548095703 268.2765197753906 135.5888671875 269.680419921875 C 131.29013061523438 268.89996337890625 129.13497924804688 272.3017883300781 122.47464752197266 275.597900390625 C 109.16484832763672 276.85809326171875 73.3044662475586 275.999267578125 73.00624084472656 270.06829833984375 C 47.70705795288086 266.7792663574219 56.5606575012207 268.57421875 57.7096061706543 273.5732727050781 C 48.47215270996094 276.3905334472656 1.0542367696762085 272.7033996582031 0.8167799115180969 270.2107238769531 C -5.9402852058410645 224.657958984375 -5.72240686416626 166.37998962402344 2.225903272628784 122.19612884521484 C 11.087298393249512 118.1810302734375 21.50897789001465 113.8703384399414 26.04349708557129 121.83052825927734 C 27.16295623779297 129.72348022460938 35.63212966918945 129.15432739257812 41.95097732543945 131.83807373046875 C 46.375118255615234 130.24644470214844 48.0611457824707 131.0111083984375 49.4892578125 142.22625732421875 C 50.34161376953125 148.8888702392578 61.38130187988281 148.79644775390625 62.756858825683594 146.2228546142578 C 62.204524993896484 136.86737060546875 63.100196838378906 134.01234436035156 62.109718322753906 128.2987823486328 C 68.23202514648438 126.6600341796875 67.69713592529297 123.77334594726562 66.33055877685547 112.52831268310547 C 67.86466217041016 111.09308624267578 68.36007690429688 106.18223571777344 75.9374008178711 102.76923370361328 C 73.95356750488281 101.14803314208984 78.11937713623047 91.59420776367188 77.32386016845703 85.73242950439453 C 77.22543334960938 83.6196517944336 77.72455596923828 75.03755187988281 85.25218963623047 75.3548583984375 C 83.0776138305664 70.18436431884766 82.90872192382812 67.5390853881836 86.9847640991211 58.624210357666016" stroke-width="0.0" fill="url(#shape_3_fill)"/>
    <path d="M 674.0844116210938 -0.6708962917327881 C 676.1160888671875 47.826377868652344 675.0172119140625 95.90823364257812 680.393310546875 138.74009704589844 C 678.541259765625 123.7054443359375 670.2185668945312 122.08927917480469 661.6599731445312 119.99989318847656 C 660.8256225585938 120.12200927734375 655.0429077148438 109.40628051757812 649.9219970703125 110.9249267578125 C 648.9183959960938 112.54151153564453 645.2929077148438 149.5753173828125 642.8549194335938 155.63063049316406 C 629.8751831054688 154.60491943359375 626.8447265625 142.9268798828125 627.0645141601562 138.50848388671875 C 623.0390625 137.44955444335938 618.9976196289062 145.35794067382812 615.42724609375 144.13023376464844 C 611.6814575195312 142.3143768310547 610.159423828125 143.3337860107422 607.7850952148438 141.0597381591797 C 608.9288940429688 137.66221618652344 612.7642822265625 132.9784393310547 606.5906372070312 119.38873291015625 C 598.436767578125 134.19607543945312 597.5509643554688 139.3615264892578 594.0194091796875 142.86033630371094 C 599.6691284179688 145.39259338378906 597.5250244140625 150.9615020751953 597.373291015625 152.17994689941406 C 588.6621704101562 157.63735961914062 588.0035400390625 164.5430450439453 578.3612060546875 172.33482360839844 C 572.093505859375 170.23182678222656 569.9254150390625 157.99685668945312 568.569580078125 157.09617614746094 C 565.6541748046875 157.8101348876953 563.390869140625 153.782470703125 561.7860107421875 151.0012969970703 C 560.083251953125 150.7510986328125 556.070068359375 150.90750122070312 555.6326904296875 155.8647003173828 C 551.8865356445312 156.07933044433594 550.3453979492188 158.73822021484375 548.813232421875 158.45692443847656 C 547.849609375 156.3323211669922 544.5953979492188 155.87367248535156 536.1652221679688 153.5624237060547 C 531.7874755859375 154.90545654296875 529.9700927734375 158.88473510742188 523.1100463867188 156.86920166015625 C 519.27685546875 160.51339721679688 520.30615234375 162.1566925048828 522.9852294921875 169.1375732421875 C 517.6204223632812 168.48919677734375 517.2052001953125 170.9552001953125 516.2725219726562 171.652099609375 C 511.2713623046875 173.32232666015625 509.8157043457031 175.26531982421875 505.64166259765625 174.399169921875 C 502.7638854980469 171.404541015625 503.0317077636719 169.51528930664062 502.9367370605469 159.28790283203125 C 492.10791015625 145.20359802246094 506.7895812988281 121.4708251953125 518.0322875976562 126.5613021850586 C 523.6659545898438 125.21244812011719 540.274658203125 110.07514953613281 548.80810546875 112.98303985595703 C 557.2529296875 110.71965789794922 556.90771484375 109.38363647460938 558.4149780273438 107.7592544555664 C 559.482666015625 108.35379791259766 564.88720703125 102.76995086669922 570.3667602539062 104.99140930175781 C 574.6141357421875 102.44723510742188 573.462158203125 97.51261138916016 579.0275268554688 94.08043670654297 C 586.1022338867188 88.50534057617188 594.2346801757812 77.51168823242188 613.1473999023438 78.31663513183594 C 616.9070434570312 73.5928955078125 644.9193725585938 51.1463737487793 645.6357421875 35.49777603149414 C 644.9702758789062 32.440677642822266 647.9957885742188 30.390750885009766 647.61474609375 29.525169372558594 C 646.9302368164062 28.286741256713867 664.215087890625 -4.212380409240723 674.0844116210938 -0.6708962917327881" stroke-width="0.0" fill="url(#shape_4_fill)"/>
    <path d="M 151.5497283935547 68.55043029785156 C 152.30419921875 69.09353637695312 186.57481384277344 84.52594757080078 192.66281127929688 92.7637939453125 C 179.18756103515625 118.36746215820312 217.66151428222656 150.08584594726562 220.88168334960938 154.89419555664062 C 238.86790466308594 170.05496215820312 241.9807891845703 184.16226196289062 240.81468200683594 193.86575317382812 C 238.09228515625 193.20193481445312 236.1612091064453 186.5667266845703 236.77056884765625 184.06350708007812 C 235.68426513671875 183.55223083496094 234.1561737060547 184.30377197265625 231.070068359375 182.69558715820312 C 231.45338439941406 183.87294006347656 232.02891540527344 194.03448486328125 228.63687133789062 195.6683807373047 C 227.5980682373047 196.6363067626953 227.27919006347656 205.3894805908203 221.3314666748047 207.68919372558594 C 215.0955810546875 206.58328247070312 214.3215789794922 197.79953002929688 214.65512084960938 194.88522338867188 C 212.9595184326172 185.4390106201172 211.89602661132812 184.9486083984375 206.50637817382812 177.4422149658203 C 205.88343811035156 172.97024536132812 206.0724334716797 166.74172973632812 204.1853485107422 159.1474609375 C 206.1762237548828 153.3955535888672 194.8546600341797 144.6724853515625 193.40785217285156 141.18063354492188 C 189.10902404785156 140.1868133544922 188.9077911376953 137.12722778320312 186.4624481201172 135.82998657226562 C 178.2284698486328 133.3560333251953 178.93824768066406 127.0674819946289 183.3476104736328 117.24457550048828 C 179.39002990722656 116.44601440429688 177.39669799804688 117.65339660644531 172.94720458984375 117.76602172851562 C 179.342041015625 128.18055725097656 175.86614990234375 130.8606414794922 151.85707092285156 130.35215759277344 C 149.6707763671875 128.09449768066406 151.569091796875 102.34879302978516 154.05841064453125 94.37680053710938 C 152.8388214111328 89.1801986694336 153.34812927246094 87.2940902709961 150.0420379638672 76.28909301757812 C 148.08419799804688 75.90835571289062 148.4136199951172 69.26498413085938 151.5497283935547 68.55043029785156" stroke-width="0.0" fill="url(#shape_5_fill)"/>
    <path d="M 611.4436645507812 81.33534240722656 C 618.7379150390625 84.10415649414062 619.6586303710938 86.27063751220703 631.50927734375 85.53834533691406 C 636.074951171875 86.07917785644531 637.0753173828125 88.2862319946289 641.1779174804688 89.40325927734375 C 642.16357421875 87.15455627441406 666.6279296875 92.35888671875 674.870361328125 98.55017852783203 C 675.4061889648438 110.61996459960938 674.7958374023438 125.90589904785156 675.309814453125 150.9364776611328 C 665.8829956054688 142.46755981445312 662.7566528320312 136.72076416015625 658.86083984375 131.7672119140625 C 659.6625366210938 122.10330200195312 660.71826171875 116.35931396484375 652.8388061523438 112.3432388305664 C 645.0531616210938 113.16864013671875 644.3360595703125 142.2722930908203 642.4401245117188 143.01959228515625 C 643.9522705078125 144.6848602294922 642.6513061523438 148.25209045410156 644.1883544921875 150.37860107421875 C 639.9326171875 150.7307586669922 637.893798828125 152.7438201904297 634.6371459960938 153.33029174804688 C 631.5448608398438 146.2439422607422 629.1879272460938 141.3946533203125 630.0836181640625 140.53636169433594 C 628.8430786132812 137.68199157714844 622.0016479492188 136.93939208984375 620.9325561523438 138.94155883789062 C 618.3054809570312 140.59274291992188 619.3997802734375 142.37203979492188 618.4082641601562 148.38153076171875 C 614.128173828125 144.67337036132812 613.4207153320312 143.20217895507812 609.9085083007812 143.69760131835938 C 608.5118408203125 140.407470703125 609.5696411132812 139.2425994873047 609.127197265625 137.3313446044922 C 606.6233520507812 132.1724853515625 604.9121704101562 126.81407165527344 599.0210571289062 128.1748809814453 C 605.7923583984375 133.36367797851562 595.0736083984375 147.93223571777344 591.9094848632812 155.17233276367188 C 590.3948364257812 163.77456665039062 588.9880981445312 163.9752960205078 585.6563110351562 169.12477111816406 C 584.812744140625 167.5367889404297 583.949462890625 165.90113830566406 589.4761352539062 154.1111602783203 C 589.1993408203125 146.27133178710938 584.0225830078125 145.15818786621094 575.33837890625 142.60293579101562 C 569.9033813476562 156.92344665527344 556.7154541015625 155.62376403808594 556.0036010742188 151.38121032714844 C 555.834228515625 152.906005859375 553.07275390625 154.70530700683594 552.9354858398438 157.7969207763672 C 550.9400024414062 161.3020782470703 548.0284423828125 160.87783813476562 547.3690795898438 159.18408203125 C 544.5156860351562 156.4842987060547 542.7294921875 154.16575622558594 537.701416015625 157.1199493408203 C 535.1123046875 158.47242736816406 531.1707763671875 157.55697631835938 529.6182250976562 158.3694305419922 C 526.41845703125 159.5330810546875 526.6021728515625 163.06251525878906 525.6769409179688 166.40740966796875 C 524.5303955078125 169.44461059570312 523.5554809570312 171.5727996826172 519.0355834960938 173.08531188964844 C 510.5965270996094 177.82281494140625 497.7137756347656 178.61260986328125 486.9320983886719 160.82948303222656 C 482.1750793457031 137.0543975830078 500.6600646972656 118.11485290527344 513.2680053710938 118.28496551513672 C 529.1907348632812 127.6075668334961 540.843994140625 107.99170684814453 549.2623291015625 111.72775268554688 C 555.634033203125 110.09127807617188 560.6936645507812 109.88385009765625 564.0089721679688 106.81342315673828 C 564.62841796875 104.48943328857422 566.5189208984375 103.5774154663086 569.8236083984375 104.56745910644531 C 574.0179443359375 101.31390380859375 578.7003173828125 98.23920440673828 587.1143798828125 99.14894104003906 C 600.4766845703125 93.44429779052734 603.5039672851562 80.00894165039062 611.4436645507812 81.33534240722656" stroke-width="0.0" fill="url(#shape_6_fill)"/>
    <path d="M 1.0641554594039917 100.80400085449219 C 38.26741027832031 111.20053100585938 45.81319046020508 120.77436065673828 51.38801574707031 139.36199951171875 C 81.27271270751953 154.04380798339844 52.5284309387207 213.87026977539062 42.75847625732422 244.10629272460938 C 50.682037353515625 260.20281982421875 48.45743942260742 264.616455078125 48.66404342651367 265.2370910644531 C 48.80812454223633 259.72430419921875 24.363136291503906 254.77622985839844 13.637799263000488 250.40467834472656 C 4.930747032165527 206.50588989257812 -7.550272464752197 169.56585693359375 1.0641554594039917 100.80400085449219" stroke-width="0.0" fill="url(#shape_7_fill)"/>
    <path d="M 384.3658752441406 197.77139282226562 C 424.1444396972656 186.02638244628906 427.36175537109375 190.8882598876953 429.68756103515625 204.15199279785156 C 474.9513244628906 189.51605224609375 496.5454406738281 204.31967163085938 491.70947265625 231.5543212890625 C 491.0010986328125 250.49258422851562 486.2483215332031 251.5017547607422 484.85784912109375 252.4095458984375 C 485.9392395019531 259.02667236328125 482.5767517089844 268.92901611328125 477.10223388671875 268.96368408203125 C 469.04290771484375 272.9302978515625 453.2210388183594 266.7112731933594 451.63330078125 269.7130432128906 C 447.0748291015625 266.2836608886719 448.28656005859375 261.218505859375 449.07562255859375 260.1612548828125 C 439.2554626464844 264.7864990234375 436.5174865722656 261.42919921875 437.4382629394531 256.77508544921875 C 427.00579833984375 256.5603942871094 425.6871032714844 258.94219970703125 421.1513366699219 262.0934753417969 C 418.5514831542969 264.2513732910156 417.68377685546875 267.7189025878906 414.9323425292969 273.5845031738281 C 414.1081848144531 272.7526550292969 392.42999267578125 268.5607604980469 392.5464782714844 264.1922912597656 C 391.82098388671875 265.1234130859375 388.9408264160156 263.3663635253906 385.8079528808594 263.8216552734375 C 382.1090393066406 261.968017578125 380.81622314453125 263.19970703125 376.4718933105469 261.1089782714844 C 374.85772705078125 256.3482666015625 376.0406188964844 252.5418701171875 371.7764892578125 249.96524047851562 C 359.4535217285156 243.54115295410156 374.29083251953125 195.71279907226562 378.52099609375 177.2586212158203 C 384.59429931640625 170.88706970214844 393.9822692871094 176.5474090576172 384.3658752441406 197.77139282226562" stroke-width="0.0" fill="url(#shape_8_fill)"/>
    <path d="M 566.3336181640625 157.24569702148438 C 568.1815795898438 158.88922119140625 568.1464233398438 166.62057495117188 569.4152221679688 168.00869750976562 C 573.510009765625 169.46853637695312 573.6486206054688 170.99755859375 577.4822387695312 174.44105529785156 C 581.9307250976562 172.94581604003906 583.9710693359375 174.56951904296875 583.7056274414062 179.472412109375 C 575.3649291992188 180.47653198242188 572.14892578125 225.615234375 577.3712768554688 226.96453857421875 C 577.8767700195312 229.9749298095703 581.2991333007812 235.694091796875 577.2378540039062 241.27821350097656 C 568.8063354492188 238.41912841796875 566.62548828125 237.15708923339844 558.9293212890625 247.34829711914062 C 553.7492065429688 249.96734619140625 496.935302734375 254.7223358154297 487.21063232421875 251.30007934570312 C 486.1595764160156 250.2386474609375 487.16448974609375 239.55833435058594 494.074951171875 230.1669158935547 C 486.3932189941406 226.31666564941406 483.1700439453125 222.31539916992188 481.9361572265625 215.5619659423828 C 476.8245849609375 209.89935302734375 479.41387939453125 205.8604278564453 482.7918701171875 205.98646545410156 C 480.144775390625 205.3446807861328 481.5904541015625 199.0844268798828 489.52789306640625 199.0198974609375 C 492.01629638671875 196.25433349609375 491.81121826171875 192.50979614257812 492.7406005859375 187.95924377441406 C 489.3827819824219 174.20574951171875 489.5911865234375 173.26678466796875 487.7017517089844 164.4715576171875 C 504.18310546875 163.9067840576172 505.7335510253906 164.72332763671875 515.79052734375 163.9584197998047 C 522.822265625 169.13430786132812 524.9524536132812 167.355224609375 526.0926513671875 167.90283203125 C 523.2488403320312 161.60643005371094 531.822998046875 156.53414916992188 533.2627563476562 158.7193145751953 C 537.599365234375 161.87254333496094 541.3701171875 162.4804229736328 542.1482543945312 163.99658203125 C 545.20361328125 164.08563232421875 545.810791015625 165.8690185546875 549.8247680664062 166.74215698242188 C 548.9327392578125 165.60716247558594 550.672119140625 157.81893920898438 554.7562255859375 157.74020385742188 C 557.959716796875 160.99461364746094 563.0607299804688 157.9005126953125 566.3336181640625 157.24569702148438" stroke-width="0.0" fill="url(#shape_9_fill)"/>
    <path d="M 561.1668090820312 156.47830200195312 C 565.9559936523438 153.00686645507812 571.330810546875 157.82293701171875 570.7007446289062 170.9973907470703 C 572.2943115234375 169.1627655029297 576.1729125976562 169.20497131347656 579.475341796875 174.72195434570312 C 580.5671997070312 178.11935424804688 579.0601196289062 187.40489196777344 578.3255004882812 191.41473388671875 C 571.3084106445312 196.5702667236328 572.0135498046875 229.9708709716797 578.0907592773438 230.97633361816406 C 576.071044921875 231.15975952148438 575.6080932617188 236.84027099609375 572.0620727539062 238.0172119140625 C 560.2254028320312 235.86961364746094 567.2731323242188 238.65756225585938 563.790283203125 247.6470489501953 C 547.4536743164062 253.4532012939453 501.2882080078125 249.25099182128906 500.1887512207031 251.71563720703125 C 491.07989501953125 251.8243865966797 487.87945556640625 236.97569274902344 492.5272521972656 230.33323669433594 C 486.62237548828125 224.9264373779297 481.9822082519531 219.27554321289062 481.6769714355469 215.27420043945312 C 475.52227783203125 214.57449340820312 473.83502197265625 215.39060974121094 464.5826416015625 196.53726196289062 C 463.9778137207031 183.87823486328125 476.4934997558594 179.6173553466797 483.25848388671875 195.4526824951172 C 489.7906188964844 197.5254364013672 494.5467529296875 184.37542724609375 496.62567138671875 182.95428466796875 C 495.30364990234375 178.8603057861328 497.5860900878906 177.68179321289062 500.1700744628906 177.44444274902344 C 507.9385986328125 179.09046936035156 516.5671997070312 181.689697265625 520.7354125976562 174.08905029296875 C 524.0780029296875 173.39466857910156 527.1710815429688 159.34823608398438 531.513671875 155.14891052246094 C 538.1696166992188 155.95257568359375 538.6411743164062 159.09832763671875 539.2343139648438 166.1110382080078 C 545.760986328125 165.96139526367188 549.0588989257812 167.42626953125 551.3967895507812 166.4156951904297 C 551.0725708007812 155.90463256835938 553.0484008789062 153.06631469726562 561.1668090820312 156.47830200195312" stroke-width="0.0" fill="url(#shape_10_fill)"/>
    <path d="M 447.65582275390625 107.82662963867188 C 452.81744384765625 111.93327331542969 453.80523681640625 113.33944702148438 462.5858459472656 110.78270721435547 C 465.1344299316406 116.35490417480469 469.1689147949219 114.72395324707031 482.56353759765625 110.4994888305664 C 488.96453857421875 124.45556640625 488.7030334472656 125.2622299194336 491.8424377441406 130.774169921875 C 493.56756591796875 132.12339782714844 493.5895690917969 135.01771545410156 496.97515869140625 136.33790588378906 C 494.0359802246094 135.60597229003906 492.8434753417969 138.3030548095703 489.39080810546875 141.3391571044922 C 483.137451171875 137.74856567382812 481.97430419921875 139.7751922607422 479.1336364746094 142.9014892578125 C 468.05853271484375 138.99127197265625 466.4955749511719 137.99391174316406 465.7397766113281 134.41702270507812 C 464.3697509765625 133.55821228027344 460.7033996582031 133.5584259033203 460.43975830078125 134.235595703125 C 461.2825012207031 133.5625762939453 479.2640075683594 143.2032928466797 494.293212890625 151.85812377929688 C 476.6029052734375 176.89236450195312 475.50128173828125 177.2728729248047 473.67529296875 182.64581298828125 C 467.5882568359375 183.1168975830078 467.24676513671875 188.28855895996094 466.2320251464844 189.845703125 C 462.5814208984375 184.7174835205078 461.9068603515625 172.61048889160156 459.7427978515625 166.1577606201172 C 448.3468017578125 180.09336853027344 447.4825744628906 182.40606689453125 439.8898620605469 183.086669921875 C 439.37738037109375 183.85118103027344 435.759765625 195.65304565429688 434.8096008300781 197.57225036621094 C 429.36187744140625 200.314208984375 417.54083251953125 180.57456970214844 417.6956481933594 179.76084899902344 C 416.9358825683594 179.7807159423828 398.41021728515625 180.22650146484375 397.4922790527344 173.4127960205078 C 393.8246154785156 171.1347198486328 389.7898864746094 176.3867950439453 379.5106201171875 174.77749633789062 C 382.3066711425781 158.94314575195312 380.019287109375 151.00894165039062 392.5926818847656 138.92727661132812 C 398.12078857421875 137.6288604736328 399.6357421875 129.95797729492188 402.3426208496094 120.7837142944336 C 407.0447692871094 99.10277557373047 425.3558654785156 102.82994079589844 447.65582275390625 107.82662963867188" stroke-width="0.0" fill="url(#shape_11_fill)"/>
    <path d="M 602.8560180664062 127.68461608886719 C 605.8240966796875 129.872314453125 605.5199584960938 143.37709045410156 607.1563110351562 145.1233367919922 C 611.1035766601562 145.6377410888672 611.6260986328125 149.3797149658203 615.9893188476562 153.03990173339844 C 618.1126708984375 149.8861541748047 618.0648803710938 141.77748107910156 621.4215087890625 141.12696838378906 C 623.0259399414062 137.4077911376953 625.4323120117188 137.35125732421875 627.4192504882812 140.32418823242188 C 627.407470703125 142.16580200195312 628.9400634765625 144.77679443359375 628.8958740234375 147.21078491210938 C 632.0996704101562 149.77232360839844 631.7327880859375 151.1966094970703 636.3303833007812 153.70936584472656 C 642.2311401367188 154.6042938232422 642.0226440429688 160.28634643554688 647.6488647460938 170.46200561523438 C 639.2850341796875 185.23385620117188 640.1080322265625 194.9480438232422 640.5407104492188 206.4947052001953 C 653.0985717773438 211.66917419433594 653.9047241210938 234.2362518310547 642.7218627929688 245.53001403808594 C 622.8475952148438 248.2448272705078 611.7410278320312 249.1035919189453 578.75634765625 264.0986328125 C 570.7350463867188 252.8130645751953 578.06103515625 231.32476806640625 574.302734375 216.75552368164062 C 568.0252075195312 209.08819580078125 571.6603393554688 168.85861206054688 583.1678466796875 169.81187438964844 C 597.241455078125 163.6002197265625 599.6296997070312 143.57955932617188 599.9756469726562 142.03213500976562 C 595.5925903320312 139.90846252441406 596.6986083984375 137.01739501953125 602.8560180664062 127.68461608886719" stroke-width="0.0" fill="url(#shape_12_fill)"/>
    <path d="M 411.38507080078125 176.60989379882812 C 419.964111328125 174.06954956054688 433.57110595703125 213.2373046875 428.6829528808594 219.8810577392578 C 419.9398193359375 228.0934295654297 427.372314453125 237.60789489746094 431.53033447265625 243.46060180664062 C 428.8214416503906 260.8556213378906 420.0243835449219 268.1435852050781 414.9303283691406 268.0422668457031 C 406.2348327636719 265.3016662597656 402.2843017578125 271.7759704589844 390.742431640625 267.8961181640625 C 385.51129150390625 265.008056640625 382.49102783203125 266.2008056640625 379.80743408203125 265.5263977050781 C 375.0767822265625 263.9715270996094 374.9347229003906 261.10546875 375.09375 258.4936828613281 C 376.3229064941406 255.66476440429688 374.6067199707031 254.51260375976562 374.83489990234375 253.7238006591797 C 371.9884033203125 255.0803985595703 369.90374755859375 251.27099609375 368.4237365722656 251.88397216796875 C 360.61376953125 247.98094177246094 366.06329345703125 228.99583435058594 367.1539306640625 221.62962341308594 C 369.36468505859375 219.02183532714844 372.1751708984375 202.74830627441406 381.74188232421875 203.18643188476562 C 379.43060302734375 193.6506805419922 379.0965576171875 192.08718872070312 389.7300109863281 187.8823699951172 C 391.4738464355469 177.59584045410156 392.9264831542969 176.71038818359375 411.38507080078125 176.60989379882812" stroke-width="0.0" fill="url(#shape_13_fill)"/>
    <path d="M 508.3182373046875 67.036865234375 C 512.4163208007812 66.11637878417969 520.794189453125 70.53103637695312 522.3763427734375 75.86738586425781 C 530.85791015625 79.37592315673828 534.2797241210938 79.98190307617188 537.1251831054688 88.69197082519531 C 539.3126220703125 90.86846923828125 544.5418701171875 90.28990936279297 545.0235595703125 91.17145538330078 C 545.53662109375 92.74301147460938 556.1815795898438 96.81845092773438 559.2410278320312 95.40320587158203 C 563.4676513671875 97.6012954711914 567.3466186523438 97.51652526855469 568.7427368164062 98.76393127441406 C 564.3158569335938 105.4423599243164 557.2218627929688 115.57244110107422 541.8594970703125 110.8208236694336 C 541.391357421875 111.8395004272461 539.3732299804688 114.9609146118164 534.7394409179688 118.40975189208984 C 527.8218994140625 120.77326202392578 519.8651123046875 124.48741912841797 515.6124877929688 118.71719360351562 C 511.6500244140625 120.77608489990234 501.5355529785156 125.61343383789062 499.6238708496094 125.7985610961914 C 497.550537109375 128.73500061035156 493.8780822753906 128.57806396484375 489.5853576660156 127.23751831054688 C 489.52886962890625 119.36432647705078 468.8330078125 118.65380859375 468.1308898925781 117.65800476074219 C 463.5369873046875 117.80332946777344 462.9361572265625 116.68228149414062 462.14697265625 116.07640838623047 C 469.7516174316406 118.85334014892578 473.6763610839844 112.99608612060547 477.6103210449219 107.85675048828125 C 474.78265380859375 93.48631286621094 473.3109436035156 85.9201431274414 474.869384765625 81.9229507446289 C 474.5901184082031 70.93367004394531 475.34326171875 70.38605499267578 478.05389404296875 66.3418960571289 C 478.71221923828125 63.9550895690918 482.546630859375 63.94047546386719 484.2367858886719 63.13374328613281 C 495.895751953125 64.1317138671875 502.4148254394531 61.121822357177734 508.3182373046875 67.036865234375" stroke-width="0.0" fill="url(#shape_14_fill)"/>
    <path d="M 533.7096557617188 160.724365234375 C 543.9301147460938 162.5919647216797 544.22412109375 163.44276428222656 546.6395874023438 165.23374938964844 C 549.6990356445312 167.6101837158203 549.57763671875 170.22779846191406 544.1099243164062 179.69883728027344 C 542.2843017578125 190.01119995117188 536.9368896484375 231.33956909179688 536.5906982421875 233.12109375 C 540.7342529296875 237.86614990234375 541.1484375 251.43177795410156 516.2626342773438 252.3834991455078 C 502.766845703125 251.46702575683594 483.431640625 243.22178649902344 487.9678955078125 230.5216064453125 C 476.6626281738281 218.935302734375 478.9644775390625 208.38668823242188 482.40533447265625 201.1167755126953 C 486.4197998046875 197.4606475830078 487.9850769042969 197.4541778564453 488.979248046875 198.78433227539062 C 482.8402404785156 195.71075439453125 488.7683410644531 183.3099822998047 487.5572509765625 172.9904022216797 C 487.4279479980469 167.48255920410156 489.03173828125 166.16212463378906 491.3539733886719 166.98410034179688 C 505.5589294433594 178.8834686279297 511.177490234375 184.18760681152344 522.7351684570312 172.73184204101562 C 525.5549926757812 170.9607696533203 525.5443115234375 167.31443786621094 526.8170776367188 165.15733337402344 C 525.7171020507812 159.4053192138672 528.822021484375 158.38336181640625 533.7096557617188 160.724365234375" stroke-width="0.0" fill="url(#shape_15_fill)"/>
    <path d="M 651.7164916992188 109.8101577758789 C 653.9517822265625 110.4988784790039 664.029541015625 121.74104309082031 659.7056884765625 133.26942443847656 C 664.09326171875 136.13670349121094 664.6162719726562 142.9298858642578 673.3397216796875 148.0988006591797 C 676.8012084960938 179.1339111328125 673.5609741210938 211.42416381835938 676.0787963867188 266.6833190917969 C 675.01513671875 265.0919189453125 636.5255737304688 272.57818603515625 630.4971923828125 263.46051025390625 C 637.1082763671875 244.8179473876953 642.8543090820312 124.09362030029297 651.7164916992188 109.8101577758789" stroke-width="0.0" fill="url(#shape_16_fill)"/>
    <path d="M 601.3768310546875 129.59584045410156 C 603.421630859375 128.13330078125 606.3826293945312 131.94866943359375 606.19384765625 134.1215057373047 C 608.8571166992188 135.00514221191406 606.9231567382812 141.217529296875 609.2283935546875 143.58912658691406 C 628.3511352539062 142.98779296875 630.7579345703125 217.7742462158203 633.4817504882812 266.37713623046875 C 583.5385131835938 270.8138732910156 575.7998657226562 263.2412414550781 579.5711059570312 239.62326049804688 C 561.7469482421875 226.0226593017578 598.0514526367188 155.04258728027344 601.3768310546875 129.59584045410156" stroke-width="0.0" fill="url(#shape_17_fill)"/>
    <path d="M 320.36212158203125 186.2704315185547 C 320.7926025390625 186.51255798339844 322.257568359375 189.43893432617188 321.2170104980469 199.62806701660156 C 332.7547607421875 194.0724639892578 333.6936950683594 193.31845092773438 337.4005126953125 196.11203002929688 C 343.6619567871094 200.15467834472656 346.3841552734375 197.8077392578125 353.6618957519531 192.96945190429688 C 358.79962158203125 193.3370361328125 359.4403381347656 193.71693420410156 356.4947204589844 201.76622009277344 C 359.36737060546875 204.13209533691406 361.6231689453125 204.2051239013672 364.48223876953125 209.7670440673828 C 367.3081970214844 207.14627075195312 368.5162658691406 208.19053649902344 368.2186279296875 211.8125762939453 C 370.3717041015625 220.0091552734375 370.31158447265625 223.01107788085938 365.9461364746094 225.7566680908203 C 366.1108703613281 231.5034942626953 364.0592346191406 236.17005920410156 366.7861633300781 247.90194702148438 C 369.43701171875 252.4256591796875 366.74298095703125 256.1548767089844 358.0603332519531 254.61524963378906 C 354.1331787109375 255.77316284179688 326.9287414550781 255.01206970214844 322.91748046875 255.3389892578125 C 313.34564208984375 255.9907684326172 312.10595703125 253.66627502441406 308.25164794921875 243.3761444091797 C 304.27459716796875 229.72491455078125 320.9391174316406 194.79244995117188 320.36212158203125 186.2704315185547" stroke-width="0.0" fill="url(#shape_18_fill)"/>
    <path d="M 478.3465576171875 222.33346557617188 C 500.9885559082031 250.54791259765625 512.0095825195312 263.8822021484375 493.0903625488281 279.5723571777344 C 470.608154296875 279.3594055175781 443.9825134277344 261.5505065917969 442.1307373046875 261.7493591308594 C 438.76055908203125 260.5194396972656 437.1798400878906 258.2134704589844 432.62139892578125 258.0680847167969 C 429.4498596191406 258.5980224609375 428.1451416015625 256.78582763671875 429.264892578125 253.86483764648438 C 432.55609130859375 236.78912353515625 422.514404296875 234.15211486816406 422.9486389160156 229.70504760742188 C 423.14788818359375 226.89999389648438 421.1136779785156 226.7044219970703 420.20184326171875 225.08602905273438 C 427.78204345703125 219.60638427734375 429.6956481933594 218.84922790527344 428.45611572265625 215.0308074951172 C 439.0396423339844 197.65994262695312 477.37188720703125 198.0665283203125 478.3465576171875 222.33346557617188" stroke-width="0.0" fill="url(#shape_19_fill)"/>
    <path d="M 673.9054565429688 -3.0084924697875977 C 675.0673828125 32.84974670410156 674.5833740234375 64.76375579833984 674.39501953125 97.33343505859375 C 669.7412719726562 95.93073272705078 653.142578125 87.99334716796875 644.823974609375 90.05989837646484 C 638.5995483398438 89.52880096435547 638.1256103515625 86.00639343261719 637.4514770507812 84.2896499633789 C 626.2553100585938 84.58121490478516 619.9967651367188 93.03443145751953 608.1720581054688 86.60853576660156 C 609.912841796875 74.7642593383789 612.4144287109375 73.61751556396484 614.5054321289062 71.68153381347656 C 622.5996704101562 68.7684326171875 648.6510009765625 25.113492965698242 647.4365234375 20.897655487060547 C 655.2282104492188 8.41115665435791 656.4420776367188 2.993324041366577 668.6133422851562 3.627706527709961 C 669.8171997070312 2.6844823360443115 670.1156616210938 1.0795668363571167 673.9054565429688 -3.0084924697875977" stroke-width="0.0" fill="url(#shape_20_fill)"/>
    <path d="M 561.8992919921875 155.95565795898438 C 569.8810424804688 156.4640350341797 569.9447631835938 161.56719970703125 573.27490234375 165.44692993164062 C 583.9111938476562 168.34022521972656 574.6256103515625 231.16012573242188 576.7642211914062 240.66964721679688 C 577.1153564453125 244.89111328125 576.5423583984375 246.88621520996094 577.1328125 265.4672546386719 C 548.2293090820312 260.9466857910156 541.5680541992188 256.8063049316406 540.085205078125 246.56361389160156 C 544.7007446289062 244.72825622558594 543.103759765625 166.1558837890625 555.0707397460938 157.09060668945312 C 555.4531860351562 153.08555603027344 559.1016235351562 151.95465087890625 561.8992919921875 155.95565795898438" stroke-width="0.0" fill="url(#shape_21_fill)"/>
    <path d="M 215.0061492919922 209.88912963867188 C 233.82229614257812 208.98731994628906 236.14382934570312 240.6737518310547 221.62210083007812 256.53460693359375 C 211.7195281982422 263.25689697265625 209.68472290039062 264.2698974609375 208.95562744140625 273.1595764160156 C 205.8894805908203 275.3545837402344 206.8013153076172 277.11285400390625 206.2301483154297 280.1151123046875 C 206.75611877441406 282.9401550292969 203.3956298828125 285.638427734375 201.23049926757812 284.9490966796875 C 200.9746856689453 283.2984924316406 190.41513061523438 272.8337097167969 188.20217895507812 264.56890869140625 C 186.55918884277344 261.7272644042969 183.659912109375 262.64776611328125 181.49574279785156 262.5704345703125 C 180.8383331298828 260.556884765625 180.19314575195312 260.51702880859375 178.4744873046875 252.61468505859375 C 178.82125854492188 248.2512664794922 168.7729949951172 241.55604553222656 170.68357849121094 238.3887176513672 C 175.97079467773438 213.1451416015625 177.1103515625 213.31886291503906 185.62693786621094 220.55181884765625 C 193.8347625732422 219.4163360595703 194.19346618652344 215.28042602539062 198.57200622558594 213.19656372070312 C 185.1454315185547 206.87664794921875 185.07569885253906 201.77194213867188 199.55235290527344 196.82972717285156 C 213.43836975097656 194.39646911621094 214.78594970703125 197.70498657226562 215.0061492919922 209.88912963867188" stroke-width="0.0" fill="url(#shape_22_fill)"/>
    <path d="M 111.60704040527344 426.3134765625 C 112.7308349609375 429.28009033203125 111.01246643066406 431.1954040527344 110.66258239746094 431.52032470703125 C 104.17837524414062 432.9695129394531 103.96149444580078 433.8572692871094 91.91094207763672 432.9658508300781 C 89.76618957519531 435.96710205078125 95.67654418945312 446.421630859375 91.61457824707031 452.1399841308594 C 78.66380310058594 444.9972229003906 46.938175201416016 447.9271240234375 25.09762954711914 449.6329345703125 C 14.023197174072266 446.235107421875 13.887194633483887 439.7664489746094 17.937219619750977 436.3760986328125 C 34.65816116333008 427.6538391113281 50.18817901611328 426.6961364746094 71.89549255371094 427.171142578125 C 73.68502807617188 423.8982849121094 109.98601531982422 420.567626953125 111.60704040527344 426.3134765625" stroke-width="0.0" fill="url(#shape_23_fill)"/>
    <path d="M 194.12550354003906 123.87879180908203 C 200.5471954345703 124.52652740478516 210.635986328125 145.0045928955078 214.546142578125 145.17306518554688 C 215.62281799316406 148.255126953125 218.5554962158203 149.72479248046875 220.47645568847656 153.84783935546875 C 227.24412536621094 158.49916076660156 247.92901611328125 177.88485717773438 244.74517822265625 199.16416931152344 C 239.2325897216797 199.5247344970703 235.6795196533203 186.8636016845703 232.27438354492188 180.04832458496094 C 234.89859008789062 187.0140838623047 233.33990478515625 195.94842529296875 230.59207153320312 197.09251403808594 C 227.54904174804688 197.566650390625 225.95860290527344 203.0146484375 220.28857421875 208.57469177246094 C 215.25390625 207.64816284179688 213.66590881347656 198.61729431152344 213.37242126464844 196.56825256347656 C 212.30250549316406 190.138671875 212.17059326171875 183.701171875 206.4444122314453 177.9523468017578 C 203.92530822753906 174.03050231933594 204.99012756347656 173.0177764892578 205.6284942626953 167.44020080566406 C 202.7328643798828 147.55738830566406 199.39195251464844 146.9934844970703 192.47325134277344 143.95367431640625 C 189.31678771972656 142.3444366455078 191.33126831054688 128.44422912597656 194.12550354003906 123.87879180908203" stroke-width="0.0" fill="url(#shape_24_fill)"/>
    <path d="M 595.1588134765625 408.28076171875 C 598.71728515625 410.20355224609375 627.3847045898438 407.885986328125 630.11865234375 414.036376953125 C 629.92822265625 421.4013366699219 627.551025390625 425.5367736816406 628.862060546875 426.614990234375 C 630.5279541015625 427.83294677734375 635.970947265625 428.0606689453125 639.6834716796875 436.8951110839844 C 618.2608642578125 447.4345703125 578.1879272460938 439.180908203125 572.5977172851562 434.90838623046875 C 567.7504272460938 427.1653747558594 573.86865234375 419.546875 576.7262573242188 413.6582336425781 C 579.4553833007812 409.34368896484375 587.2373657226562 414.1328430175781 595.1588134765625 408.28076171875" stroke-width="0.0" fill="url(#shape_25_fill)"/>
    <path d="M 142.9129638671875 66.73699188232422 C 144.07290649414062 68.93812561035156 149.1698760986328 68.21035766601562 149.6307830810547 69.12320709228516 C 148.9007568359375 70.89847564697266 150.46725463867188 71.82225799560547 149.75538635253906 73.87664031982422 C 151.0917510986328 74.44989013671875 150.12802124023438 78.45885467529297 150.49781799316406 80.64662170410156 C 152.26853942871094 89.38520050048828 152.9897003173828 97.57875061035156 153.92796325683594 104.1045150756836 C 153.5093536376953 107.62100982666016 155.12217712402344 108.51685333251953 155.25851440429688 111.41807556152344 C 158.1019744873047 123.43904876708984 155.3429412841797 133.5176544189453 150.41090393066406 133.58395385742188 C 143.043212890625 126.82364654541016 137.37217712402344 119.95573425292969 126.04566955566406 117.05156707763672 C 122.53630828857422 114.19908142089844 124.53187561035156 109.62189483642578 126.67855834960938 106.80223083496094 C 128.81134033203125 106.84187316894531 128.87107849121094 105.27802276611328 132.65673828125 104.7168960571289 C 138.33213806152344 96.85394287109375 134.8463897705078 92.83085632324219 133.06422424316406 89.44506072998047 C 134.09774780273438 88.47284698486328 139.32559204101562 87.31285858154297 140.16183471679688 85.35690307617188 C 138.2303924560547 84.74662780761719 138.81077575683594 77.64317321777344 139.50770568847656 77.47821044921875 C 143.59906005859375 76.5981216430664 142.68362426757812 70.35603332519531 142.9129638671875 66.73699188232422" stroke-width="0.0" fill="url(#shape_26_fill)"/>
    <path d="M 139.7792510986328 67.7226333618164 C 148.9331512451172 66.97161865234375 149.7712860107422 68.19363403320312 148.7525634765625 77.02355194091797 C 150.47474670410156 78.3267593383789 151.0911407470703 80.69864654541016 154.6383819580078 84.99685668945312 C 150.25640869140625 90.51609802246094 154.89797973632812 95.0145492553711 151.4204864501953 105.12516021728516 C 152.89157104492188 105.89497375488281 153.51211547851562 109.38688659667969 155.62669372558594 113.08911895751953 C 152.6365509033203 116.2379379272461 157.93545532226562 121.9287338256836 154.57720947265625 126.4870376586914 C 152.5547332763672 132.02584838867188 151.32569885253906 133.16949462890625 147.50039672851562 133.98040771484375 C 141.77310180664062 131.4194793701172 128.36312866210938 121.94723510742188 129.26467895507812 117.57158660888672 C 124.54051208496094 118.65660095214844 122.5816879272461 113.41682434082031 128.24673461914062 110.46686553955078 C 122.91004180908203 108.20979309082031 124.34542083740234 104.65188598632812 133.58047485351562 107.21055603027344 C 136.42800903320312 105.74095916748047 133.42208862304688 92.8287582397461 132.82106018066406 89.1257553100586 C 139.45611572265625 87.2647476196289 138.9134521484375 84.94876861572266 138.79908752441406 81.38912200927734 C 139.0745086669922 77.50827026367188 140.3648681640625 76.81584167480469 142.2449188232422 78.00460052490234 C 145.3876953125 72.2669448852539 142.60202026367188 70.47579956054688 139.7792510986328 67.7226333618164" stroke-width="0.0" fill="url(#shape_27_fill)"/>
    <path d="M -0.347944974899292 -0.2732561230659485 C 4.71082878112793 0.38375529646873474 9.664090156555176 -0.5280851125717163 19.047588348388672 -0.9139276742935181 C 25.447967529296875 -1.4239089488983154 25.698333740234375 -0.6670737862586975 47.705867767333984 2.0022079944610596 C 43.13657760620117 25.767559051513672 28.214982986450195 25.183210372924805 27.442459106445312 24.187894821166992 C 50.4095458984375 15.67096996307373 58.757164001464844 16.0773983001709 60.635223388671875 52.66311264038086 C 38.28883361816406 54.93060302734375 27.760583877563477 55.31591033935547 18.364587783813477 50.008697509765625 C 15.47219181060791 39.37846755981445 11.41400146484375 38.23570251464844 9.997764587402344 33.61286544799805 C 10.013712882995605 35.86322021484375 14.444971084594727 39.317039489746094 14.608996391296387 41.04278564453125 C 15.972970962524414 42.21163558959961 15.651993751525879 44.95734786987305 18.218990325927734 47.85232925415039 C 20.081695556640625 51.06939697265625 18.7665958404541 52.306175231933594 21.184947967529297 57.20027542114258 C 21.385398864746094 65.22373962402344 15.760343551635742 67.1657943725586 8.513896942138672 61.450706481933594 C 5.492971897125244 60.88661193847656 3.534289598464966 59.14103698730469 0.32221195101737976 59.436100006103516 C -0.3183436691761017 39.78364181518555 -0.32489487528800964 19.629627227783203 -0.347944974899292 -0.2732561230659485" stroke-width="0.0" fill="url(#shape_28_fill)"/>
    <path d="M 299.0596008300781 197.15635681152344 C 297.9514465332031 199.5085906982422 300.05029296875 202.38217163085938 301.1676025390625 207.5546112060547 C 299.87139892578125 213.35887145996094 325.4413146972656 224.55526733398438 316.27532958984375 255.47914123535156 C 311.82080078125 254.22547912597656 310.59600830078125 255.82691955566406 304.3988342285156 255.0120849609375 C 302.75616455078125 258.1427917480469 293.7677307128906 258.4613037109375 281.08648681640625 256.0185546875 C 278.3684387207031 225.2947235107422 284.8160095214844 219.6438751220703 299.0596008300781 197.15635681152344" stroke-width="0.0" fill="url(#shape_29_fill)"/>
    <path d="M 0.0030542402528226376 -0.11046392470598221 C 4.53536319732666 0.4435260593891144 9.699851989746094 -0.413605272769928 14.652249336242676 0.11221583187580109 C 15.864781379699707 0.48397892713546753 16.555524826049805 3.8958122730255127 16.465238571166992 8.012689590454102 C 18.84125518798828 10.911900520324707 21.76714515686035 18.9813232421875 27.322704315185547 20.619680404663086 C 27.164308547973633 22.51579475402832 24.047279357910156 26.69574737548828 24.668760299682617 32.072792053222656 C 20.07147789001465 32.36167526245117 12.70625114440918 29.952346801757812 5.702802658081055 33.67923355102539 C 9.001252174377441 35.97981643676758 8.7515287399292 38.81691360473633 10.87065315246582 40.467681884765625 C 10.162901878356934 43.91063690185547 7.644517421722412 49.4459114074707 11.708183288574219 53.755435943603516 C 17.71906280517578 51.27692413330078 19.499719619750977 51.7951774597168 18.51498031616211 58.33295440673828 C 11.328619003295898 60.75606155395508 9.419301986694336 62.60619354248047 0.18864527344703674 61.48322677612305 C -0.42354223132133484 39.97172546386719 -0.3545680046081543 19.755477905273438 0.0030542402528226376 -0.11046392470598221" stroke-width="0.0" fill="url(#shape_30_fill)"/>
    <path d="M 548.7568359375 70.5837631225586 C 546.1448974609375 77.80695343017578 576.5938720703125 89.6094741821289 581.3992309570312 91.72229766845703 C 580.9118041992188 92.81439971923828 577.3677978515625 93.33531951904297 577.13671875 98.28949737548828 C 573.2774658203125 100.72128295898438 572.068359375 99.81600189208984 569.2144775390625 100.01942443847656 C 568.1857299804688 94.82160186767578 546.2691650390625 97.90119171142578 538.889404296875 88.27071380615234 C 538.2230834960938 85.51399230957031 538.7208862304688 82.92084503173828 535.7467651367188 82.2527084350586 C 534.4181518554688 80.06626892089844 527.2821655273438 79.72245788574219 527.14990234375 78.37879180908203 C 525.215087890625 75.8161392211914 527.7954711914062 70.88459014892578 531.9763793945312 68.8733139038086 C 538.8821411132812 67.0347671508789 542.6626586914062 71.62067413330078 548.7568359375 70.5837631225586" stroke-width="0.0" fill="url(#shape_31_fill)"/>
    <path d="M 447.0733337402344 264.4304504394531 C 450.65887451171875 265.2807922363281 451.2859802246094 266.73614501953125 455.8066711425781 267.7514953613281 C 460.5113830566406 267.6551208496094 465.32232666015625 270.3759765625 469.94097900390625 273.1122131347656 C 470.4311218261719 275.6334533691406 471.828857421875 276.8888244628906 471.6768798828125 280.75994873046875 C 451.6280822753906 287.4112243652344 430.1402893066406 284.039306640625 415.7847595214844 285.1540832519531 C 413.45166015625 273.9027099609375 415.0020446777344 272.3319091796875 415.5542907714844 268.1755676269531 C 418.18951416015625 267.20672607421875 417.7645568847656 264.80084228515625 419.3629455566406 263.1262512207031 C 440.6643981933594 253.20541381835938 446.5976867675781 253.1803436279297 447.0733337402344 264.4304504394531" stroke-width="0.0" fill="url(#shape_32_fill)"/>
    <path d="M 272.588623046875 192.37144470214844 C 275.339599609375 192.24794006347656 287.19287109375 243.68138122558594 281.8879699707031 246.26724243164062 C 279.65142822265625 248.0055694580078 273.9562072753906 246.90011596679688 269.5268249511719 248.84059143066406 C 266.310791015625 246.1868133544922 266.6563415527344 242.317626953125 261.0328063964844 240.70999145507812 C 254.4001922607422 209.36964416503906 262.5516357421875 206.2283935546875 272.588623046875 192.37144470214844" stroke-width="0.0" fill="url(#shape_33_fill)"/>
    <path d="M 266.9420471191406 411.4668273925781 C 262.98651123046875 426.66925048828125 264.7965087890625 430.66558837890625 268.0660705566406 440.3100280761719 C 262.5010681152344 440.835693359375 260.7015380859375 446.4505615234375 258.31768798828125 447.8618469238281 C 245.61904907226562 445.8431091308594 215.73875427246094 448.59283447265625 212.51051330566406 444.92120361328125 C 213.02349853515625 436.99578857421875 213.95974731445312 436.2222900390625 216.01797485351562 434.60809326171875 C 216.33505249023438 433.5243835449219 225.0609130859375 433.7156982421875 226.69906616210938 430.6471862792969 C 227.9893341064453 418.9919128417969 236.81301879882812 418.9736328125 266.9420471191406 411.4668273925781" stroke-width="0.0" fill="url(#shape_34_fill)"/>
    <path d="M 105.51893615722656 69.85572052001953 C 110.20831298828125 69.54490661621094 110.87030029296875 79.29117584228516 112.68090057373047 85.41248321533203 C 117.67723083496094 86.11697387695312 116.7947006225586 110.26734161376953 118.03852844238281 110.71711730957031 C 116.74632263183594 112.56368255615234 110.59142303466797 114.3836441040039 106.87825012207031 124.74256134033203 C 104.6502685546875 117.15528106689453 96.50481414794922 118.83197784423828 88.69119262695312 110.54777526855469 C 87.27838134765625 85.79006958007812 106.1230697631836 84.68063354492188 105.51893615722656 69.85572052001953" stroke-width="0.0" fill="url(#shape_35_fill)"/>
    <path d="M 451.24896240234375 178.4382781982422 C 453.7503662109375 176.05908203125 456.2020568847656 177.88404846191406 455.4544372558594 180.41366577148438 C 456.0054016113281 180.8946990966797 455.1876525878906 185.437744140625 456.3091735839844 186.080810546875 C 456.0071716308594 188.5761260986328 459.1436767578125 194.1077117919922 459.20611572265625 204.4729766845703 C 459.3163146972656 208.52732849121094 451.52301025390625 209.4955291748047 445.99798583984375 204.33126831054688 C 441.4908142089844 207.38706970214844 441.0647888183594 208.7681121826172 432.96002197265625 210.93109130859375 C 435.1812744140625 209.9217529296875 436.97833251953125 189.02191162109375 438.0947570800781 177.81564331054688 C 440.5738220214844 179.2602996826172 442.9540710449219 182.00099182128906 446.6357116699219 180.9820556640625 C 447.8229064941406 179.48802185058594 450.11688232421875 179.63363647460938 451.24896240234375 178.4382781982422" stroke-width="0.0" fill="url(#shape_36_fill)"/>
    <path d="M 557.4932861328125 84.43429565429688 C 561.3792724609375 80.74214935302734 578.4848022460938 82.78997802734375 580.02197265625 85.71382904052734 C 581.3018188476562 83.52705383300781 586.287353515625 85.53450775146484 587.5697631835938 88.65923309326172 C 596.80615234375 102.22821044921875 588.32568359375 109.96171569824219 574.3629150390625 100.53164672851562 C 573.7826538085938 99.53290557861328 552.6275634765625 97.2323226928711 545.4488525390625 85.71495819091797 C 538.4531860351562 85.8397445678711 537.9454345703125 82.50833129882812 536.1085815429688 80.21857452392578 C 543.18994140625 74.62673950195312 547.1560668945312 78.73095703125 557.4932861328125 84.43429565429688" stroke-width="0.0" fill="url(#shape_37_fill)"/>
    <path d="M 251.7621612548828 207.32374572753906 C 265.65570068359375 212.68136596679688 261.4908752441406 237.52011108398438 259.9185791015625 247.613037109375 C 259.9222412109375 254.60299682617188 251.0685272216797 254.62120056152344 249.3724822998047 257.3096923828125 C 234.6338348388672 237.58013916015625 241.35635375976562 215.3972930908203 251.7621612548828 207.32374572753906" stroke-width="0.0" fill="url(#shape_38_fill)"/>
    <path d="M 442.76458740234375 263.33282470703125 C 446.115234375 263.36077880859375 449.2237243652344 266.5499572753906 447.879638671875 270.0747375488281 C 444.6641845703125 270.40350341796875 442.6724853515625 277.2906494140625 440.5928039550781 278.0093078613281 C 439.1985168457031 286.6806945800781 427.709228515625 285.3074951171875 418.1282043457031 275.76409912109375 C 414.50592041015625 276.80145263671875 413.3462829589844 274.4234313964844 416.2711181640625 271.63623046875 C 415.1534118652344 269.9412841796875 419.2601318359375 262.1739501953125 425.6666259765625 257.9783935546875 C 426.5415344238281 257.1752624511719 439.4737243652344 257.64483642578125 442.76458740234375 263.33282470703125" stroke-width="0.0" fill="url(#shape_39_fill)"/>
    <path d="M 407.6990661621094 409.8458251953125 C 408.6642761230469 409.89862060546875 416.77349853515625 419.0820617675781 413.9014892578125 424.3186950683594 C 399.39642333984375 435.3351745605469 386.14520263671875 420.9185485839844 376.5885009765625 420.8641357421875 C 371.0843505859375 417.95770263671875 371.2348937988281 416.5549011230469 372.6566467285156 410.42083740234375 C 375.01361083984375 400.926025390625 393.2485046386719 404.2197265625 407.6990661621094 409.8458251953125" stroke-width="0.0" fill="url(#shape_40_fill)"/>
    <path d="M 66.43928527832031 427.512451171875 C 67.26876068115234 429.0125732421875 64.30034637451172 433.1266174316406 58.759666442871094 435.2257080078125 C 57.390682220458984 436.4449768066406 39.45520782470703 435.7745361328125 32.009857177734375 442.8463439941406 C 29.41411018371582 443.6212463378906 27.649246215820312 444.087890625 17.313560485839844 442.78753662109375 C 16.44794464111328 440.6505126953125 17.895977020263672 439.2085266113281 17.35218620300293 437.7488098144531 C 35.527313232421875 427.2665100097656 53.71925735473633 428.0165710449219 66.43928527832031 427.512451171875" stroke-width="0.0" fill="url(#shape_41_fill)"/>
    <path d="M 278.37054443359375 381.04290771484375 C 284.62310791015625 381.2180480957031 297.8879089355469 381.2460632324219 306.6867980957031 385.3645324707031 C 297.06146240234375 394.7598876953125 299.3085632324219 401.0347900390625 294.45697021484375 405.197265625 C 291.7509765625 400.0081481933594 266.54998779296875 406.2375793457031 259.2102355957031 407.8648376464844 C 247.8294219970703 404.1270751953125 243.2154541015625 397.4804992675781 244.38150024414062 383.4297180175781 C 260.83026123046875 380.4185791015625 267.23687744140625 381.82025146484375 278.37054443359375 381.04290771484375" stroke-width="0.0" fill="url(#shape_42_fill)"/>
    <path d="M 222.52682495117188 208.51300048828125 C 224.0079345703125 207.68722534179688 238.96435546875 207.69178771972656 239.60638427734375 211.93505859375 C 241.7808074951172 221.54466247558594 245.20738220214844 242.76626586914062 254.160400390625 269.2023010253906 C 251.1549530029297 274.096923828125 242.4012451171875 272.9936218261719 208.89735412597656 272.39031982421875 C 208.00570678710938 266.1697998046875 205.3419189453125 252.2478485107422 216.5197296142578 247.7530975341797 C 219.30648803710938 246.46424865722656 218.155517578125 226.42282104492188 222.52682495117188 208.51300048828125" stroke-width="0.0" fill="url(#shape_43_fill)"/>
    <path d="M 483.5339050292969 396.0712890625 C 486.790283203125 399.81207275390625 485.790283203125 400.9779052734375 483.4742736816406 401.0278015136719 C 471.7605895996094 407.2062683105469 451.1646423339844 406.8328857421875 450.2625732421875 407.61529541015625 C 448.1527404785156 404.4188537597656 451.6387023925781 396.1809997558594 453.6396179199219 396.5221252441406 C 464.9506530761719 393.1522521972656 471.6966857910156 392.4359130859375 483.5339050292969 396.0712890625" stroke-width="0.0" fill="url(#shape_44_fill)"/>
    <path d="M 45.77549362182617 408.0712890625 C 45.35332107543945 408.5743713378906 35.781246185302734 411.7483825683594 33.345314025878906 412.8695983886719 C 32.60661697387695 414.45611572265625 32.09739685058594 415.8475341796875 27.969844818115234 414.7833557128906 C 27.161333084106445 416.7245788574219 24.628128051757812 417.61236572265625 21.295719146728516 420.42474365234375 C 18.770160675048828 420.2110900878906 -0.08069025725126266 417.27496337890625 -0.5959748029708862 420.5703430175781 C 1.7030236721038818 419.48370361328125 -0.9653928279876709 411.19024658203125 0.939536452293396 410.2197265625 C 6.580972671508789 409.5677490234375 45.45760726928711 406.3679504394531 45.77549362182617 408.0712890625" stroke-width="0.0" fill="url(#shape_45_fill)"/>
    <path d="M 452.1894226074219 174.6029815673828 C 453.8955078125 174.99961853027344 464.6436767578125 198.75306701660156 466.4621887207031 199.72853088378906 C 462.6531677246094 209.39981079101562 451.49237060546875 209.23345947265625 449.4638671875 206.51174926757812 C 448.317138671875 203.2579345703125 449.01416015625 198.3182373046875 448.8519287109375 195.29872131347656 C 447.9591979980469 194.56236267089844 447.5921630859375 192.09799194335938 448.51690673828125 188.00729370117188 C 451.0030517578125 186.6483612060547 450.5855712890625 182.88064575195312 452.1894226074219 174.6029815673828" stroke-width="0.0" fill="url(#shape_46_fill)"/>
    <path d="M 372.83984375 184.95074462890625 C 379.2567138671875 197.06869506835938 380.3387451171875 202.5789337158203 371.5954895019531 205.89102172851562 C 365.86480712890625 206.82325744628906 364.772216796875 204.85275268554688 361.7384033203125 206.16574096679688 C 339.8215026855469 211.8751678466797 336.37896728515625 203.4420166015625 353.4578857421875 188.83834838867188 C 356.6776428222656 184.9771728515625 358.3736877441406 184.39749145507812 368.1625671386719 185.46998596191406 C 368.9713439941406 183.26719665527344 372.28350830078125 183.788330078125 372.83984375 184.95074462890625" stroke-width="0.0" fill="url(#shape_47_fill)"/>
    <path d="M 472.2984924316406 263.9942626953125 C 474.6565246582031 267.4287414550781 480.5929260253906 270.2568359375 481.2129821777344 284.2663879394531 C 464.9079895019531 287.3144836425781 447.89581298828125 287.3162841796875 444.3578186035156 284.9476623535156 C 439.3511047363281 282.18841552734375 440.0052795410156 276.9584655761719 441.1150817871094 276.40203857421875 C 448.80950927734375 266.6242370605469 455.49951171875 262.4053039550781 472.2984924316406 263.9942626953125" stroke-width="0.0" fill="url(#shape_48_fill)"/>
    <path d="M 177.03683471679688 116.88199615478516 C 177.92054748535156 115.46654510498047 181.7235565185547 116.15968322753906 182.7212677001953 117.30314636230469 C 184.6763458251953 120.26627349853516 183.84979248046875 122.34870147705078 184.78616333007812 123.09484100341797 C 179.5520477294922 127.34207153320312 185.6561279296875 136.6959686279297 182.7667694091797 139.5895538330078 C 181.78570556640625 146.76119995117188 172.8331756591797 146.25148010253906 171.9906768798828 146.909912109375 C 171.8656768798828 127.03264617919922 170.8556671142578 124.54841613769531 177.03683471679688 116.88199615478516" stroke-width="0.0" fill="url(#shape_49_fill)"/>
    <path d="M 333.4028625488281 427.2891845703125 C 336.6713562011719 429.2436218261719 341.74755859375 428.793212890625 343.27783203125 431.77783203125 C 346.36785888671875 435.5821228027344 345.1586608886719 437.2214050292969 342.4012451171875 437.5705871582031 C 342.75225830078125 446.9462890625 324.9222106933594 449.2305603027344 324.19317626953125 443.9667663574219 C 321.50958251953125 436.20233154296875 321.57110595703125 432.6029968261719 306.7064514160156 429.7159118652344 C 319.8849792480469 426.2402648925781 327.9831237792969 429.5098571777344 333.4028625488281 427.2891845703125" stroke-width="0.0" fill="url(#shape_50_fill)"/>
    <path d="M 309.0151062011719 388.57275390625 C 304.8904113769531 396.0093078613281 292.5394592285156 396.108154296875 292.0741882324219 399.13726806640625 C 279.1051940917969 397.43402099609375 277.8975524902344 399.2400817871094 271.3113708496094 402.45458984375 C 271.16259765625 401.6064758300781 269.8237609863281 398.93804931640625 271.43707275390625 397.492431640625 C 270.1396484375 395.5365295410156 273.2250061035156 388.3106384277344 279.876220703125 388.2937927246094 C 284.5490417480469 386.6748962402344 288.6578369140625 391.154296875 309.0151062011719 388.57275390625" stroke-width="0.0" fill="url(#shape_51_fill)"/>
    <path d="M 268.9718322753906 184.46783447265625 C 276.193115234375 194.67459106445312 277.35931396484375 207.84808349609375 280.28350830078125 217.5848846435547 C 271.5119323730469 210.42361450195312 269.4715270996094 208.2714080810547 261.0526428222656 215.9463653564453 C 257.4819030761719 208.09976196289062 263.5749816894531 196.4259033203125 266.6689147949219 195.26487731933594 C 269.704833984375 194.28305053710938 268.90826416015625 191.72470092773438 268.9718322753906 184.46783447265625" stroke-width="0.0" fill="url(#shape_52_fill)"/>
    <path d="M 218.35894775390625 409.4688720703125 C 215.9013671875 410.92486572265625 215.68360900878906 413.29925537109375 214.283203125 414.4410400390625 C 214.35101318359375 422.5663146972656 193.09910583496094 425.0257873535156 187.58633422851562 415.5610656738281 C 186.3006591796875 404.8361511230469 207.192626953125 399.9847412109375 218.35894775390625 409.4688720703125" stroke-width="0.0" fill="url(#shape_53_fill)"/>
    <path d="M 205.94430541992188 424.501708984375 C 205.48597717285156 425.25274658203125 206.14813232421875 428.28887939453125 204.56338500976562 429.1285705566406 C 194.0625 429.691650390625 178.8152313232422 430.0880126953125 178.01654052734375 432.6514892578125 C 176.84080505371094 430.94537353515625 178.38546752929688 425.9465637207031 177.0142364501953 423.9059753417969 C 187.56964111328125 418.3293762207031 193.126220703125 423.140380859375 205.94430541992188 424.501708984375" stroke-width="0.0" fill="url(#shape_54_fill)"/>
    <path d="M 268.7259826660156 247.43276977539062 C 275.43621826171875 245.0524139404297 276.6431884765625 247.6468505859375 280.3218994140625 247.47894287109375 C 280.7407531738281 251.00296020507812 280.0452880859375 252.41827392578125 287.10723876953125 263.5770568847656 C 263.45941162109375 258.0333251953125 262.937744140625 257.3403015136719 250.62937927246094 265.139404296875 C 254.84597778320312 248.17367553710938 255.8856201171875 247.2372589111328 258.70355224609375 245.07861328125 C 260.315185546875 239.21267700195312 265.0927429199219 239.68988037109375 268.7259826660156 247.43276977539062" stroke-width="0.0" fill="url(#shape_55_fill)"/>
    <path d="M 279.25067138671875 346.4096984863281 C 280.4239807128906 362.8320617675781 284.0662841796875 363.38641357421875 284.886962890625 368.03704833984375 C 285.45489501953125 369.23138427734375 286.0289611816406 371.8072509765625 285.653076171875 381.2080078125 C 275.1177673339844 379.2889404296875 261.056640625 381.27923583984375 240.49664306640625 383.8586730957031 C 235.96336364746094 382.2062683105469 235.01878356933594 366.22528076171875 234.8903045654297 348.8060607910156 C 243.99771118164062 346.133544921875 252.7960968017578 345.1666259765625 279.25067138671875 346.4096984863281" stroke-width="0.0" fill="url(#shape_56_fill)"/>
    <path d="M 408.21044921875 271.77435302734375 C 415.4263916015625 269.0818786621094 418.07177734375 273.46368408203125 422.5570068359375 281.32049560546875 C 415.5467224121094 283.267822265625 409.8953857421875 277.24737548828125 378.5884094238281 274.34674072265625 C 378.3413391113281 264.6524353027344 386.37066650390625 263.5371398925781 408.21044921875 271.77435302734375" stroke-width="0.0" fill="url(#shape_57_fill)"/>
    <path d="M 632.0738525390625 351.6488342285156 C 632.9822998046875 355.3233642578125 661.0345458984375 354.6275939941406 668.5740356445312 354.6224365234375 C 668.4793090820312 358.39935302734375 663.0037841796875 360.42474365234375 660.109375 357.09527587890625 C 647.962646484375 355.6273193359375 634.90234375 359.6168212890625 631.5804443359375 360.30133056640625 C 627.829345703125 357.1357727050781 629.4088745117188 353.6131896972656 632.0738525390625 351.6488342285156" stroke-width="0.0" fill="url(#shape_58_fill)"/>
    <path d="M 341.33367919921875 384.8766784667969 C 342.8141174316406 390.1930236816406 358.14007568359375 391.69635009765625 359.181396484375 394.6644592285156 C 356.8883056640625 398.62103271484375 339.76885986328125 401.2001037597656 338.2786560058594 399.5532531738281 C 335.1358642578125 399.62158203125 333.0699768066406 398.782958984375 331.8465576171875 396.5372619628906 C 331.98956298828125 394.93994140625 330.74884033203125 393.4737243652344 332.30267333984375 390.593017578125 C 332.95721435546875 384.9661560058594 336.2043762207031 383.9971618652344 341.33367919921875 384.8766784667969" stroke-width="0.0" fill="url(#shape_59_fill)"/>
    <path d="M 459.2539978027344 363.92340087890625 C 462.705078125 364.0884094238281 472.73785400390625 370.6508483886719 473.15478515625 374.3742370605469 C 471.8054504394531 376.2367858886719 470.3356018066406 376.8755798339844 463.05792236328125 375.8602294921875 C 458.4534606933594 377.28607177734375 457.6019287109375 376.9672546386719 452.7276916503906 370.9611511230469 C 453.3513488769531 370.1643371582031 459.8183288574219 367.4317321777344 459.2539978027344 363.92340087890625" stroke-width="0.0" fill="url(#shape_60_fill)"/>
    <path d="M 430.741455078125 432.5437316894531 C 440.0148010253906 434.3183288574219 442.4366455078125 436.58282470703125 442.07525634765625 438.6163330078125 C 440.3035888671875 440.8349914550781 428.56927490234375 439.4298400878906 425.70001220703125 442.2806701660156 C 422.470458984375 438.948974609375 423.85595703125 434.68218994140625 411.4933166503906 424.92608642578125 C 427.030517578125 429.4857482910156 429.9447937011719 432.62774658203125 430.741455078125 432.5437316894531" stroke-width="0.0" fill="url(#shape_61_fill)"/>
    <path d="M 185.41490173339844 411.4490051269531 C 186.2676544189453 413.93170166015625 185.005126953125 414.7928771972656 186.91932678222656 417.6380920410156 C 184.87046813964844 420.1999816894531 183.39202880859375 419.5072021484375 182.50550842285156 419.73919677734375 C 180.81732177734375 421.6406555175781 174.44960021972656 420.1906433105469 171.46026611328125 420.11431884765625 C 169.5691680908203 417.74273681640625 169.7726287841797 415.6285095214844 174.6683349609375 412.5130310058594 C 176.7901153564453 412.7594909667969 181.5348663330078 410.6773681640625 185.41490173339844 411.4490051269531" stroke-width="0.0" fill="url(#shape_62_fill)"/>
    <path d="M 332.07659912109375 418.82037353515625 C 334.69964599609375 426.0010070800781 329.8605651855469 427.8576354980469 327.255126953125 425.8143615722656 C 324.5563659667969 427.76019287109375 322.9837341308594 426.71307373046875 321.0957946777344 427.4975280761719 C 318.84625244140625 426.0068359375 319.8535461425781 419.97100830078125 317.56060791015625 418.4864807128906 C 319.0117492675781 420.1063232421875 325.9692077636719 418.7121276855469 332.07659912109375 418.82037353515625" stroke-width="0.0" fill="url(#shape_63_fill)"/>
    <path d="M 55.478824615478516 273.7047424316406 C 56.572444915771484 269.26983642578125 65.66616821289062 269.8682556152344 65.13113403320312 278.2900085449219 C 59.127113342285156 279.4480285644531 53.97441101074219 272.5587158203125 48.40621566772461 276.1286926269531 C 50.492549896240234 273.273681640625 52.46982192993164 272.8418273925781 55.478824615478516 273.7047424316406" stroke-width="0.0" fill="url(#shape_64_fill)"/>
    <path d="M 304.665283203125 439.7314147949219 C 304.57427978515625 437.69403076171875 306.44952392578125 436.5559387207031 313.512451171875 437.2484130859375 C 314.25177001953125 439.3331604003906 313.4173889160156 441.78765869140625 311.3880615234375 441.54833984375 C 307.9808349609375 445.255126953125 306.5049133300781 444.2552185058594 305.3420715332031 444.1567077636719 C 302.8927001953125 441.6748352050781 302.8978576660156 439.8471374511719 304.665283203125 439.7314147949219" stroke-width="0.0" fill="url(#shape_65_fill)"/>
    <path d="M -0.4888937175273895 -0.4301486611366272 C 224.81695556640625 -0.1595214605331421 444.18792724609375 0.3371284008026123 672.69921875 0.5038536190986633 C 673.467529296875 154.98512268066406 674.7132568359375 296.16046142578125 673.6968383789062 445.4867858886719 C 450.3240966796875 446.3309020996094 230.44642639160156 446.2789306640625 0.47989213466644287 445.3863220214844 C 0.20816540718078613 297.151611328125 -0.1559496968984604 149.1980743408203 -0.4888937175273895 -0.4301486611366272" stroke-width="0.0" fill="url(#shape_66_fill)"/>
    <path d="M -1.0601160526275635 -0.18444553017616272 C 222.5853271484375 -0.10981529951095581 443.0216064453125 0.36214712262153625 672.688232421875 -0.21225780248641968 C 673.56591796875 155.52484130859375 674.7984619140625 295.61175537109375 673.3765869140625 445.3946838378906 C 450.6109619140625 446.4059753417969 230.54629516601562 446.3237609863281 0.595320999622345 445.2979431152344 C 0.11466684937477112 297.2989807128906 -0.2627209722995758 148.97215270996094 -1.0601160526275635 -0.18444553017616272" stroke-width="0.0" fill="url(#shape_67_fill)"/>
    <path d="M -0.684302031993866 -0.24094258248806 C 223.15147399902344 -0.1586151272058487 441.94000244140625 0.49737799167633057 672.7328491210938 -0.27692562341690063 C 673.5779418945312 155.33192443847656 674.7884521484375 295.5522155761719 673.37255859375 445.39532470703125 C 450.60980224609375 446.4067687988281 230.56442260742188 446.3249816894531 1.1528512239456177 445.27899169921875 C 0.5098538994789124 295.5917663574219 0.07328590750694275 148.46864318847656 -0.684302031993866 -0.24094258248806" stroke-width="0.0" fill="url(#shape_68_fill)"/>
  </g>
</svg>
