<?xml version="1.0" ?>
<svg xmlns="http://www.w3.org/2000/svg" version="1.1" width="674" height="446">
  <defs>
    <radialGradient id="shape_0_fill" cx="0.5313950264135525" cy="0.7395798892718259" r="0.2820883957497798">
      <stop offset="0.7124322" stop-color="rgb(158, 168, 0)" stop-opacity="0.8368788361549377"/>
      <stop offset="1.0" stop-color="rgb(48, 41, 0)" stop-opacity="0.9848625659942627"/>
    </radialGradient>
    <radialGradient id="shape_1_fill" cx="0.5329962936989985" cy="0.7434301675702424" r="0.20668450873400407">
      <stop offset="0.36647552" stop-color="rgb(66, 59, 75)" stop-opacity="0.7436052560806274"/>
      <stop offset="0.9976862" stop-color="rgb(35, 7, 0)" stop-opacity="0.6051737666130066"/>
    </radialGradient>
    <radialGradient id="shape_2_fill" cx="0.09792273546892387" cy="0.7376672719091578" r="0.22062588021026522">
      <stop offset="0.0031885253" stop-color="rgb(48, 109, 188)" stop-opacity="0.8690257668495178"/>
      <stop offset="0.988774" stop-color="rgb(3, 88, 255)" stop-opacity="0.8980962634086609"/>
    </radialGradient>
    <radialGradient id="shape_3_fill" cx="0.278335435454145" cy="0.21500935575887226" r="0.13188136296031736">
      <stop offset="0.40450996" stop-color="rgb(127, 173, 0)" stop-opacity="0.7689074873924255"/>
      <stop offset="1.0" stop-color="rgb(35, 31, 0)" stop-opacity="0.9281970858573914"/>
    </radialGradient>
    <radialGradient id="shape_4_fill" cx="0.1543026706231454" cy="0.9977578475336323" r="0.10288926755639141">
      <stop offset="0.0" stop-color="rgb(81, 79, 86)" stop-opacity="1.0"/>
      <stop offset="1.0" stop-color="rgb(50, 40, 65)" stop-opacity="0.8548817038536072"/>
    </radialGradient>
    <radialGradient id="shape_5_fill" cx="0.14807964290992442" cy="0.23997249517740155" r="0.11810664960821587">
      <stop offset="0.0" stop-color="rgb(255, 255, 255)" stop-opacity="0.6465655565261841"/>
      <stop offset="0.5626593" stop-color="rgb(255, 255, 255)" stop-opacity="0.5182058811187744"/>
    </radialGradient>
    <radialGradient id="shape_6_fill" cx="0.18397626112759644" cy="0.9977578475336323" r="0.0754974885934892">
      <stop offset="0.0" stop-color="rgb(93, 90, 94)" stop-opacity="1.0"/>
      <stop offset="1.0" stop-color="rgb(147, 126, 133)" stop-opacity="0.8812573552131653"/>
    </radialGradient>
    <radialGradient id="shape_7_fill" cx="0.2893175074183976" cy="0.05829596412556054" r="0.08666390552011372">
      <stop offset="0.0" stop-color="rgb(55, 66, 29)" stop-opacity="1.0"/>
      <stop offset="1.0" stop-color="rgb(120, 129, 56)" stop-opacity="0.5759316682815552"/>
    </radialGradient>
    <radialGradient id="shape_8_fill" cx="0.3382789091115889" cy="0.9439461883408071" r="0.06756690277190167">
      <stop offset="0.0" stop-color="rgb(91, 124, 45)" stop-opacity="1.0"/>
      <stop offset="1.0" stop-color="rgb(85, 139, 4)" stop-opacity="0.5573393106460571"/>
    </radialGradient>
    <radialGradient id="shape_9_fill" cx="0.30712166172106825" cy="0.9977578475336323" r="0.0730758406641929">
      <stop offset="0.0" stop-color="rgb(38, 48, 20)" stop-opacity="1.0"/>
      <stop offset="1.0" stop-color="rgb(34, 28, 52)" stop-opacity="1.0"/>
    </radialGradient>
    <radialGradient id="shape_10_fill" cx="0.3056379821958457" cy="0.9977578475336323" r="0.06792919147615971">
      <stop offset="0.0" stop-color="rgb(39, 49, 21)" stop-opacity="1.0"/>
      <stop offset="1.0" stop-color="rgb(32, 6, 0)" stop-opacity="0.648196280002594"/>
    </radialGradient>
    <radialGradient id="shape_11_fill" cx="0.21810089020771514" cy="0.968609865470852" r="0.06792919147615971">
      <stop offset="0.0" stop-color="rgb(138, 135, 129)" stop-opacity="1.0"/>
      <stop offset="1.0" stop-color="rgb(119, 73, 48)" stop-opacity="0.41425010561943054"/>
    </radialGradient>
    <radialGradient id="shape_12_fill" cx="0.29080118694362017" cy="0.9977578475336323" r="0.07480746985189285">
      <stop offset="0.0" stop-color="rgb(22, 25, 13)" stop-opacity="1.0"/>
      <stop offset="1.0" stop-color="rgb(37, 31, 15)" stop-opacity="1.0"/>
    </radialGradient>
    <radialGradient id="shape_13_fill" cx="0.327893175074184" cy="0.8923766816143498" r="0.06900465877544279">
      <stop offset="0.0" stop-color="rgb(89, 117, 50)" stop-opacity="1.0"/>
      <stop offset="1.0" stop-color="rgb(92, 120, 9)" stop-opacity="0.6460819840431213"/>
    </radialGradient>
    <radialGradient id="shape_14_fill" cx="0.142433234421365" cy="0.9977578475336323" r="0.06617211022079875">
      <stop offset="0.0" stop-color="rgb(155, 150, 153)" stop-opacity="1.0"/>
      <stop offset="1.0" stop-color="rgb(255, 148, 144)" stop-opacity="0.22788169980049133"/>
    </radialGradient>
    <radialGradient id="shape_15_fill" cx="0.31008902077151335" cy="0.9977578475336323" r="0.06683642786405207">
      <stop offset="0.0" stop-color="rgb(43, 55, 23)" stop-opacity="1.0"/>
      <stop offset="1.0" stop-color="rgb(61, 65, 22)" stop-opacity="0.8713448643684387"/>
    </radialGradient>
    <radialGradient id="shape_16_fill" cx="0.27299703264094954" cy="0.9977578475336323" r="0.08110449363640579">
      <stop offset="0.0" stop-color="rgb(31, 35, 19)" stop-opacity="1.0"/>
      <stop offset="1.0" stop-color="rgb(30, 24, 0)" stop-opacity="0.9434208869934082"/>
    </radialGradient>
    <radialGradient id="shape_17_fill" cx="0.2893175074183976" cy="0.9977578475336323" r="0.07513486030193747">
      <stop offset="0.0" stop-color="rgb(22, 23, 13)" stop-opacity="1.0"/>
      <stop offset="1.0" stop-color="rgb(25, 20, 0)" stop-opacity="0.8536286950111389"/>
    </radialGradient>
    <radialGradient id="shape_18_fill" cx="0.3293768545994065" cy="0.7556053811659192" r="0.06617211022079875">
      <stop offset="0.0" stop-color="rgb(83, 108, 65)" stop-opacity="1.0"/>
      <stop offset="1.0" stop-color="rgb(105, 122, 58)" stop-opacity="0.9668799042701721"/>
    </radialGradient>
    <radialGradient id="shape_19_fill" cx="0.3516320474777448" cy="0.9977578475336323" r="0.06617211022079875">
      <stop offset="0.0" stop-color="rgb(95, 135, 39)" stop-opacity="1.0"/>
      <stop offset="1.0" stop-color="rgb(128, 184, 0)" stop-opacity="0.6378458738327026"/>
    </radialGradient>
    <radialGradient id="shape_20_fill" cx="0.0830860534124629" cy="0.9977578475336323" r="0.06792919147615971">
      <stop offset="0.0" stop-color="rgb(49, 52, 66)" stop-opacity="1.0"/>
      <stop offset="1.0" stop-color="rgb(44, 29, 65)" stop-opacity="0.44784191250801086"/>
    </radialGradient>
    <radialGradient id="shape_21_fill" cx="0.29821958456973297" cy="0.9977578475336323" r="0.06792919147615971">
      <stop offset="0.0" stop-color="rgb(33, 40, 17)" stop-opacity="1.0"/>
      <stop offset="1.0" stop-color="rgb(48, 62, 0)" stop-opacity="0.7159184217453003"/>
    </radialGradient>
    <radialGradient id="shape_22_fill" cx="0.3563326600751113" cy="0.44372438849889645" r="0.06594546966099951">
      <stop offset="0.52384716" stop-color="rgb(107, 134, 38)" stop-opacity="1.0"/>
      <stop offset="0.38891584" stop-color="rgb(146, 173, 40)" stop-opacity="0.9102875590324402"/>
    </radialGradient>
    <radialGradient id="shape_23_fill" cx="0.6454005934718101" cy="0.1412556053811659" r="0.06617211022079875">
      <stop offset="0.0" stop-color="rgb(46, 38, 13)" stop-opacity="1.0"/>
      <stop offset="1.0" stop-color="rgb(54, 28, 0)" stop-opacity="0.887985110282898"/>
    </radialGradient>
    <radialGradient id="shape_24_fill" cx="0.2492550586734398" cy="0.4843076355254169" r="0.06616971047059012">
      <stop offset="0.0" stop-color="rgb(205, 213, 206)" stop-opacity="1.0"/>
      <stop offset="0.92454517" stop-color="rgb(255, 255, 255)" stop-opacity="0.3386126458644867"/>
    </radialGradient>
    <radialGradient id="shape_25_fill" cx="0.6320474777448071" cy="0.9977578475336323" r="0.06617211022079875">
      <stop offset="0.0" stop-color="rgb(35, 28, 8)" stop-opacity="1.0"/>
      <stop offset="1.0" stop-color="rgb(39, 14, 0)" stop-opacity="0.7173436880111694"/>
    </radialGradient>
    <radialGradient id="shape_26_fill" cx="0.15414520399506793" cy="0.3207086811151205" r="0.06604698362265567">
      <stop offset="0.11989566" stop-color="rgb(198, 211, 155)" stop-opacity="1.0"/>
      <stop offset="0.58338004" stop-color="rgb(167, 143, 104)" stop-opacity="0.35365280508995056"/>
    </radialGradient>
    <radialGradient id="shape_27_fill" cx="0.15410647972401242" cy="0.3208032787648017" r="0.06604505929465818">
      <stop offset="0.0" stop-color="rgb(192, 205, 0)" stop-opacity="1.0"/>
      <stop offset="0.49375948" stop-color="rgb(46, 40, 27)" stop-opacity="0.4663088917732239"/>
    </radialGradient>
    <radialGradient id="shape_28_fill" cx="0.03402749579455096" cy="0.015525554862257611" r="0.07227143760251009">
      <stop offset="0.0987879" stop-color="rgb(7, 20, 112)" stop-opacity="0.939370334148407"/>
      <stop offset="0.8181151" stop-color="rgb(9, 23, 153)" stop-opacity="0.7537921071052551"/>
    </radialGradient>
    <radialGradient id="shape_29_fill" cx="0.33976258863681147" cy="0.6659192825112108" r="0.06617211022079875">
      <stop offset="0.0" stop-color="rgb(90, 117, 55)" stop-opacity="1.0"/>
      <stop offset="1.0" stop-color="rgb(107, 130, 28)" stop-opacity="0.8682965040206909"/>
    </radialGradient>
    <radialGradient id="shape_30_fill" cx="0.03890254589499635" cy="0.016024401369650804" r="0.06944419792922385">
      <stop offset="0.17738368" stop-color="rgb(50, 70, 76)" stop-opacity="1.0"/>
      <stop offset="0.92942107" stop-color="rgb(65, 64, 0)" stop-opacity="0.4953174293041229"/>
    </radialGradient>
    <radialGradient id="shape_31_fill" cx="0.12314540059347182" cy="0.9977578475336323" r="0.06617211022079875">
      <stop offset="0.0" stop-color="rgb(95, 103, 98)" stop-opacity="1.0"/>
      <stop offset="1.0" stop-color="rgb(135, 118, 109)" stop-opacity="0.7324692606925964"/>
    </radialGradient>
    <radialGradient id="shape_32_fill" cx="0.4035608308605341" cy="0.984304932735426" r="0.06617211022079875">
      <stop offset="0.0" stop-color="rgb(126, 155, 63)" stop-opacity="1.0"/>
      <stop offset="1.0" stop-color="rgb(98, 74, 11)" stop-opacity="0.604159951210022"/>
    </radialGradient>
    <radialGradient id="shape_33_fill" cx="0.3249258160237389" cy="0.6053811659192825" r="0.06617211022079875">
      <stop offset="1.5749209e-05" stop-color="rgb(93, 124, 71)" stop-opacity="0.999808132648468"/>
      <stop offset="1.0" stop-color="rgb(124, 140, 58)" stop-opacity="1.0"/>
    </radialGradient>
    <radialGradient id="shape_34_fill" cx="0.6468842729970327" cy="0.531390134529148" r="0.06617211022079875">
      <stop offset="0.0" stop-color="rgb(54, 47, 24)" stop-opacity="1.0"/>
      <stop offset="1.0" stop-color="rgb(45, 8, 33)" stop-opacity="0.38355621695518494"/>
    </radialGradient>
    <radialGradient id="shape_35_fill" cx="0.1504621986819304" cy="0.2383229037571381" r="0.06712605054725171">
      <stop offset="0.116009995" stop-color="rgb(208, 255, 95)" stop-opacity="0.13936477899551392"/>
      <stop offset="0.53224206" stop-color="rgb(106, 72, 66)" stop-opacity="0.8464927673339844"/>
    </radialGradient>
    <radialGradient id="shape_36_fill" cx="0.2878338278931751" cy="0.9977578475336323" r="0.06617211022079875">
      <stop offset="0.0" stop-color="rgb(80, 96, 53)" stop-opacity="1.0"/>
      <stop offset="1.0" stop-color="rgb(22, 17, 0)" stop-opacity="0.7782182693481445"/>
    </radialGradient>
    <radialGradient id="shape_37_fill" cx="0.129080118694362" cy="0.9977578475336323" r="0.06617211022079875">
      <stop offset="0.0" stop-color="rgb(87, 97, 81)" stop-opacity="1.0"/>
      <stop offset="1.0" stop-color="rgb(63, 64, 58)" stop-opacity="0.6035253405570984"/>
    </radialGradient>
    <radialGradient id="shape_38_fill" cx="0.33892324204260943" cy="0.5607740119968294" r="0.0666785763703751">
      <stop offset="0.7501433" stop-color="rgb(85, 107, 28)" stop-opacity="0.9246876835823059"/>
      <stop offset="0.6022492" stop-color="rgb(164, 246, 77)" stop-opacity="0.8714183568954468"/>
    </radialGradient>
    <radialGradient id="shape_39_fill" cx="0.40059347181008903" cy="0.9641255605381166" r="0.06617211022079875">
      <stop offset="0.0" stop-color="rgb(138, 168, 60)" stop-opacity="1.0"/>
      <stop offset="1.0" stop-color="rgb(221, 255, 86)" stop-opacity="0.8406580686569214"/>
    </radialGradient>
    <radialGradient id="shape_40_fill" cx="0.610560567159681" cy="0.8748661605766536" r="0.07211763285741608">
      <stop offset="0.36837113" stop-color="rgb(159, 141, 175)" stop-opacity="0.27445340156555176"/>
      <stop offset="0.5259476" stop-color="rgb(2, 7, 60)" stop-opacity="0.801410973072052"/>
    </radialGradient>
    <radialGradient id="shape_41_fill" cx="0.6454005934718101" cy="0.08744394618834081" r="0.06617211022079875">
      <stop offset="0.0" stop-color="rgb(58, 48, 21)" stop-opacity="1.0"/>
      <stop offset="1.0" stop-color="rgb(92, 60, 24)" stop-opacity="0.9998612999916077"/>
    </radialGradient>
    <radialGradient id="shape_42_fill" cx="0.5845697329376854" cy="0.6188340807174888" r="0.06617211022079875">
      <stop offset="0.0" stop-color="rgb(62, 59, 56)" stop-opacity="1.0"/>
      <stop offset="1.0" stop-color="rgb(44, 35, 78)" stop-opacity="0.6571635603904724"/>
    </radialGradient>
    <radialGradient id="shape_43_fill" cx="0.35440151769258854" cy="0.5017023129313516" r="0.07020682043420809">
      <stop offset="0.2444658" stop-color="rgb(120, 150, 53)" stop-opacity="0.9204535484313965"/>
      <stop offset="0.61626816" stop-color="rgb(201, 252, 21)" stop-opacity="0.7291204333305359"/>
    </radialGradient>
    <radialGradient id="shape_44_fill" cx="0.5934718100890207" cy="0.9977578475336323" r="0.06617211022079875">
      <stop offset="0.0" stop-color="rgb(89, 61, 18)" stop-opacity="1.0"/>
      <stop offset="1.0" stop-color="rgb(165, 77, 6)" stop-opacity="0.6923729181289673"/>
    </radialGradient>
    <radialGradient id="shape_45_fill" cx="0.612759643916914" cy="0.04035874439461883" r="0.06617211022079875">
      <stop offset="0.0" stop-color="rgb(157, 136, 123)" stop-opacity="1.0"/>
      <stop offset="1.0" stop-color="rgb(255, 215, 203)" stop-opacity="1.0"/>
    </radialGradient>
    <radialGradient id="shape_46_fill" cx="0.28635014836795253" cy="0.9977578475336323" r="0.06617211022079875">
      <stop offset="0.0" stop-color="rgb(82, 99, 55)" stop-opacity="1.0"/>
      <stop offset="1.0" stop-color="rgb(92, 96, 32)" stop-opacity="0.5683675408363342"/>
    </radialGradient>
    <radialGradient id="shape_47_fill" cx="0.28635014836795253" cy="0.8183856502242153" r="0.06617211022079875">
      <stop offset="0.0" stop-color="rgb(166, 189, 197)" stop-opacity="1.0"/>
      <stop offset="1.0" stop-color="rgb(241, 255, 255)" stop-opacity="0.43943846225738525"/>
    </radialGradient>
    <radialGradient id="shape_48_fill" cx="0.40801186943620177" cy="0.9977578475336323" r="0.06617211022079875">
      <stop offset="0.0" stop-color="rgb(107, 135, 68)" stop-opacity="1.0"/>
      <stop offset="1.0" stop-color="rgb(126, 135, 56)" stop-opacity="1.0"/>
    </radialGradient>
    <radialGradient id="shape_49_fill" cx="0.19287833827893175" cy="0.3991031390134529" r="0.06617211022079875">
      <stop offset="0.0" stop-color="rgb(92, 100, 54)" stop-opacity="1.0"/>
      <stop offset="1.0" stop-color="rgb(51, 20, 0)" stop-opacity="0.5041350722312927"/>
    </radialGradient>
    <radialGradient id="shape_50_fill" cx="0.6439169139465876" cy="0.7376681614349776" r="0.06617211022079875">
      <stop offset="0.0" stop-color="rgb(65, 56, 25)" stop-opacity="1.0"/>
      <stop offset="1.0" stop-color="rgb(146, 168, 87)" stop-opacity="0.3517448306083679"/>
    </radialGradient>
    <radialGradient id="shape_51_fill" cx="0.5845697329376854" cy="0.6322869955156951" r="0.06617211022079875">
      <stop offset="0.0" stop-color="rgb(75, 68, 60)" stop-opacity="1.0"/>
      <stop offset="1.0" stop-color="rgb(182, 133, 106)" stop-opacity="0.46861180663108826"/>
    </radialGradient>
    <radialGradient id="shape_52_fill" cx="0.2997032640949555" cy="0.6031390134529148" r="0.06617211022079875">
      <stop offset="0.0" stop-color="rgb(107, 158, 118)" stop-opacity="1.0"/>
      <stop offset="1.0" stop-color="rgb(171, 255, 213)" stop-opacity="0.563951849937439"/>
    </radialGradient>
    <radialGradient id="shape_53_fill" cx="0.6097922848664689" cy="0.45067264573991034" r="0.06617211022079875">
      <stop offset="0.0" stop-color="rgb(38, 39, 27)" stop-opacity="1.0"/>
      <stop offset="1.0" stop-color="rgb(16, 6, 64)" stop-opacity="0.3292486369609833"/>
    </radialGradient>
    <radialGradient id="shape_54_fill" cx="0.6335311572700296" cy="0.426009002822397" r="0.06617211022079875">
      <stop offset="0.0" stop-color="rgb(67, 49, 20)" stop-opacity="1.0"/>
      <stop offset="1.0" stop-color="rgb(173, 90, 36)" stop-opacity="0.4530031383037567"/>
    </radialGradient>
    <radialGradient id="shape_55_fill" cx="0.3707168533823257" cy="0.5988430827187851" r="0.066001377049115">
      <stop offset="0.43605936" stop-color="rgb(243, 255, 50)" stop-opacity="0.8292628526687622"/>
      <stop offset="0.16089156" stop-color="rgb(232, 255, 20)" stop-opacity="0.7419119477272034"/>
    </radialGradient>
    <radialGradient id="shape_56_fill" cx="0.5489614243323442" cy="0.600896860986547" r="0.06617211022079875">
      <stop offset="0.0" stop-color="rgb(50, 62, 80)" stop-opacity="1.0"/>
      <stop offset="1.0" stop-color="rgb(33, 89, 255)" stop-opacity="0.43425318598747253"/>
    </radialGradient>
    <radialGradient id="shape_57_fill" cx="0.4094955489614243" cy="0.9035874439461884" r="0.06617211022079875">
      <stop offset="0.0" stop-color="rgb(111, 144, 47)" stop-opacity="1.0"/>
      <stop offset="1.0" stop-color="rgb(213, 255, 63)" stop-opacity="0.7720867991447449"/>
    </radialGradient>
    <radialGradient id="shape_58_fill" cx="0.5281899109792285" cy="0.9977578475336323" r="0.06617211022079875">
      <stop offset="0.0" stop-color="rgb(50, 43, 14)" stop-opacity="1.0"/>
      <stop offset="1.0" stop-color="rgb(85, 58, 17)" stop-opacity="1.0"/>
    </radialGradient>
    <radialGradient id="shape_59_fill" cx="0.5845697329376854" cy="0.7690582959641256" r="0.06617211022079875">
      <stop offset="0.0" stop-color="rgb(61, 63, 58)" stop-opacity="1.0"/>
      <stop offset="1.0" stop-color="rgb(79, 69, 90)" stop-opacity="0.7111569046974182"/>
    </radialGradient>
    <radialGradient id="shape_60_fill" cx="0.5489614243323442" cy="0.9977578475336323" r="0.06617211022079875">
      <stop offset="0.0" stop-color="rgb(140, 131, 64)" stop-opacity="1.0"/>
      <stop offset="1.0" stop-color="rgb(232, 198, 93)" stop-opacity="0.8861748576164246"/>
    </radialGradient>
    <radialGradient id="shape_61_fill" cx="0.6469716601272719" cy="0.96866973740103" r="0.06610439651443979">
      <stop offset="0.463088" stop-color="rgb(246, 191, 63)" stop-opacity="0.954853355884552"/>
      <stop offset="0.21278743" stop-color="rgb(157, 78, 71)" stop-opacity="0.45400986075401306"/>
    </radialGradient>
    <radialGradient id="shape_62_fill" cx="0.615727002967359" cy="0.3991031390134529" r="0.06617211022079875">
      <stop offset="0.0" stop-color="rgb(55, 47, 13)" stop-opacity="1.0"/>
      <stop offset="1.0" stop-color="rgb(81, 52, 5)" stop-opacity="0.8922685980796814"/>
    </radialGradient>
    <radialGradient id="shape_63_fill" cx="0.6261127596439169" cy="0.7286995515695067" r="0.06617211022079875">
      <stop offset="0.0" stop-color="rgb(79, 66, 32)" stop-opacity="1.0"/>
      <stop offset="1.0" stop-color="rgb(197, 189, 95)" stop-opacity="0.5098480582237244"/>
    </radialGradient>
    <radialGradient id="shape_64_fill" cx="0.40801186943620177" cy="0.12556053811659193" r="0.06617211022079875">
      <stop offset="0.0" stop-color="rgb(76, 66, 59)" stop-opacity="1.0"/>
      <stop offset="1.0" stop-color="rgb(145, 111, 113)" stop-opacity="1.0"/>
    </radialGradient>
    <radialGradient id="shape_65_fill" cx="0.6528189910979229" cy="0.6883408071748879" r="0.06617211022079875">
      <stop offset="0.0" stop-color="rgb(121, 97, 39)" stop-opacity="1.0"/>
      <stop offset="1.0" stop-color="rgb(255, 220, 94)" stop-opacity="1.0"/>
    </radialGradient>
    <radialGradient id="shape_66_fill" cx="0.6522759683761823" cy="0.45800370699621634" r="0.0707244080676523">
      <stop offset="0.25652754" stop-color="rgb(182, 213, 116)" stop-opacity="0.292649507522583"/>
      <stop offset="0.7636496" stop-color="rgb(0, 15, 0)" stop-opacity="0.05184777453541756"/>
    </radialGradient>
    <radialGradient id="shape_67_fill" cx="0.5976730029731546" cy="0.9948783156048556" r="0.0707770723971132">
      <stop offset="0.8363365" stop-color="rgb(50, 28, 0)" stop-opacity="0.637103259563446"/>
      <stop offset="1.0" stop-color="rgb(0, 22, 0)" stop-opacity="0.1522376537322998"/>
    </radialGradient>
    <radialGradient id="shape_68_fill" cx="0.4922668728701085" cy="0.9977861755097394" r="0.06855732609327186">
      <stop offset="0.39256576" stop-color="rgb(43, 14, 0)" stop-opacity="0.4469265639781952"/>
      <stop offset="1.0" stop-color="rgb(29, 64, 52)" stop-opacity="0.18251588940620422"/>
    </radialGradient>
  </defs>
  <g>
    <path d="M 0.018654868006706238 271.3248291015625 C 17.33716583251953 256.8555908203125 46.126834869384766 258.9876403808594 46.65861129760742 271.14654541015625 C 48.26161193847656 273.0612487792969 49.33123779296875 276.1744079589844 57.1363410949707 274.6025085449219 C 57.94757080078125 273.8287353515625 62.289039611816406 273.62091064453125 62.61320495605469 269.14715576171875 C 68.32416534423828 267.9110412597656 100.3817367553711 269.2674560546875 116.70817565917969 269.61126708984375 C 119.55225372314453 271.5888977050781 125.16798400878906 278.1529846191406 126.62178802490234 282.3335266113281 C 134.79283142089844 282.795166015625 147.25660705566406 280.6979064941406 172.73114013671875 290.3030090332031 C 185.40785217285156 283.18206787109375 185.91468811035156 281.3961486816406 206.7391815185547 287.23822021484375 C 200.5423126220703 286.9683532714844 198.36053466796875 280.9559326171875 210.9276885986328 268.05230712890625 C 249.85708618164062 265.5384216308594 293.7498779296875 263.2485046386719 311.99627685546875 272.5888366699219 C 349.36029052734375 273.9664001464844 425.6895446777344 274.774658203125 479.33245849609375 263.8218078613281 C 511.21600341796875 258.720947265625 548.6693725585938 259.6714172363281 548.3092041015625 273.990478515625 C 547.1430053710938 273.9755554199219 547.1727905273438 262.799560546875 578.5091552734375 262.8189697265625 C 596.9279174804688 267.2027282714844 612.1929321289062 279.316650390625 612.5392456054688 280.06683349609375 C 612.47119140625 265.6134338378906 624.3513793945312 265.4957275390625 673.406494140625 265.7299499511719 C 676.7754516601562 272.2897033691406 679.37158203125 278.8263854980469 678.4677124023438 284.9035339355469 C 676.6203002929688 339.5298767089844 674.7125244140625 391.48724365234375 675.1177368164062 446.4668273925781 C 451.9151306152344 446.6697692871094 228.9889373779297 446.8115539550781 -0.4355620741844177 446.4240417480469 C -0.5162252187728882 389.140869140625 -0.6539574861526489 332.2918701171875 0.018654868006706238 271.3248291015625" stroke-width="0.0" fill="url(#shape_0_fill)"/>
    <path d="M -0.2937139570713043 271.109375 C 35.93408966064453 275.3908386230469 36.5576057434082 274.58306884765625 44.0323371887207 273.291015625 C 44.92427444458008 266.09979248046875 58.4979133605957 265.80633544921875 80.63228607177734 266.68475341796875 C 113.70573425292969 278.67987060546875 114.08055877685547 279.3109130859375 128.22691345214844 279.1533203125 C 127.73663330078125 270.105224609375 135.909423828125 269.3758239746094 144.9772491455078 269.5809631347656 C 185.25177001953125 268.76837158203125 186.0899200439453 268.8611145019531 205.51803588867188 272.0579833984375 C 203.63400268554688 292.140869140625 204.3893585205078 292.32611083984375 208.7218017578125 298.94305419921875 C 213.76980590820312 298.1328430175781 267.9612731933594 298.6599426269531 292.0956115722656 301.1794128417969 C 306.5885009765625 306.78369140625 441.8251037597656 304.00958251953125 459.9681091308594 304.55322265625 C 474.95574951171875 293.09466552734375 492.6011657714844 292.7684020996094 504.58251953125 286.9375 C 515.7515869140625 289.3465576171875 521.23486328125 286.845458984375 523.2151489257812 286.6048583984375 C 527.39404296875 285.7535095214844 531.7030029296875 286.00970458984375 534.201171875 287.2272644042969 C 538.8881225585938 287.5141906738281 540.4677734375 288.82818603515625 542.1278076171875 310.0694885253906 C 579.6220703125 291.7889709472656 581.630126953125 292.30023193359375 601.3638916015625 298.584228515625 C 619.7967529296875 289.3721618652344 629.2652587890625 288.1946716308594 634.1605224609375 288.4985656738281 C 636.6565551757812 274.25164794921875 653.5819091796875 276.4113464355469 673.6492919921875 293.7313232421875 C 674.4127807617188 339.872802734375 674.5122680664062 392.07415771484375 674.1581420898438 446.2807922363281 C 451.4774169921875 446.3905334472656 229.19664001464844 446.25439453125 -0.30765825510025024 446.2476501464844 C -0.21194632351398468 389.403564453125 -0.30782535672187805 333.01385498046875 -0.2937139570713043 271.109375" stroke-width="0.0" fill="url(#shape_1_fill)"/>
    <path d="M -0.019932541996240616 -0.25989267230033875 C 219.69313049316406 0.1040392518043518 439.478759765625 -0.45242562890052795 674.1677856445312 -0.05919407680630684 C 665.8670043945312 10.687893867492676 644.8814697265625 34.8499870300293 637.2664184570312 49.6103515625 C 634.26416015625 53.02654266357422 611.9887084960938 91.9197006225586 583.7977905273438 83.8082275390625 C 577.1849365234375 81.23794555664062 564.2786865234375 72.06964874267578 532.5138549804688 74.39569854736328 C 531.8466796875 79.19637298583984 527.7352294921875 80.20731353759766 522.1072387695312 72.00452423095703 C 522.6909790039062 68.93536376953125 499.3161926269531 63.927059173583984 498.9989929199219 62.594173431396484 C 493.21795654296875 62.265201568603516 486.2395935058594 61.09860610961914 484.30615234375 68.85456848144531 C 475.267578125 72.88898468017578 476.28076171875 76.09317779541016 476.6817626953125 81.22960662841797 C 483.4887390136719 100.52449035644531 480.1780090332031 120.01287841796875 479.9819641113281 122.80827331542969 C 460.32708740234375 116.81982421875 459.24530029296875 114.81979370117188 450.92791748046875 108.56182861328125 C 435.37957763671875 107.471435546875 411.7751770019531 101.5692138671875 409.33380126953125 105.5592041015625 C 413.06536865234375 121.66545104980469 419.4011535644531 128.7513885498047 413.5256042480469 139.37655639648438 C 410.67962646484375 152.71185302734375 394.6054992675781 152.2628173828125 394.6291809082031 135.48944091796875 C 382.7393798828125 140.1389617919922 381.3321838378906 158.33084106445312 370.11358642578125 157.69827270507812 C 366.1838073730469 156.7399444580078 363.20892333984375 158.12600708007812 354.4236145019531 158.32411193847656 C 348.3333435058594 163.7330780029297 345.6958923339844 165.4518280029297 347.6555480957031 171.44607543945312 C 343.6260681152344 177.3916473388672 341.4338073730469 175.9106903076172 350.572509765625 160.5528564453125 C 293.642578125 156.2635955810547 292.9953308105469 162.79898071289062 291.535888671875 172.18199157714844 C 306.06488037109375 185.385986328125 304.102783203125 189.44520568847656 307.4888000488281 201.4219970703125 C 307.5289611816406 200.6287384033203 306.35247802734375 198.14830017089844 304.760498046875 190.09156799316406 C 304.1142272949219 185.73291015625 302.8137512207031 184.55975341796875 291.2361145019531 171.26187133789062 C 289.8492736816406 194.56260681152344 288.9991149902344 195.96336364746094 289.35443115234375 196.29937744140625 C 289.3437194824219 189.90553283691406 291.7532958984375 181.7720184326172 290.4686584472656 167.0105438232422 C 270.64410400390625 169.69557189941406 266.33941650390625 176.4255828857422 261.7451477050781 173.536376953125 C 256.41180419921875 183.9959716796875 255.93101501464844 189.393310546875 254.73077392578125 197.07986450195312 C 260.6748046875 199.27694702148438 260.4677429199219 199.87294006347656 257.9909362792969 199.6551971435547 C 257.0646667480469 198.68287658691406 253.967529296875 196.514404296875 255.390380859375 193.81874084472656 C 255.74610900878906 181.7017059326172 262.3109130859375 179.9234619140625 262.9043884277344 162.3247528076172 C 261.93096923828125 158.09947204589844 215.74974060058594 143.47402954101562 212.3762969970703 142.3277587890625 C 187.17539978027344 134.8956298828125 195.3715057373047 106.10124969482422 191.32044982910156 86.4046401977539 C 190.84107971191406 84.54147338867188 162.62661743164062 74.33576965332031 128.7053985595703 57.85186004638672 C 100.93379974365234 38.932342529296875 75.90011596679688 58.69779586791992 46.79790115356445 57.58029556274414 C 29.818078994750977 70.43585968017578 1.7216544151306152 69.88545989990234 -0.9085187911987305 69.44957733154297 C 0.34183040261268616 43.958133697509766 -0.3314551115036011 22.56187629699707 -0.019932541996240616 -0.25989267230033875" stroke-width="0.0" fill="url(#shape_2_fill)"/>
    <path d="M 87.23348236083984 58.06867980957031 C 88.92786407470703 68.81876373291016 91.67347717285156 69.00281524658203 93.79887390136719 71.93639373779297 C 90.03154754638672 80.03202819824219 92.95052337646484 81.71670532226562 89.0738296508789 94.12067413330078 C 95.78943634033203 85.8216323852539 98.1534423828125 86.47443389892578 102.84564208984375 87.94153594970703 C 105.09239959716797 75.14885711669922 105.62207794189453 73.25982666015625 108.1978759765625 73.57382202148438 C 112.77201843261719 87.03561401367188 109.7651138305664 92.16570281982422 117.5570297241211 98.69084167480469 C 115.95581817626953 100.03492736816406 116.88426971435547 109.4529800415039 115.44345092773438 115.0789794921875 C 121.13855743408203 115.35623931884766 128.19329833984375 116.2869873046875 129.79283142089844 112.12824249267578 C 131.08230590820312 111.07306671142578 136.90802001953125 109.56048583984375 136.78553771972656 104.9994125366211 C 136.69065856933594 103.69966125488281 135.5947723388672 101.8990707397461 137.9739990234375 99.77562713623047 C 136.55148315429688 93.28550720214844 137.5982208251953 92.9339599609375 137.73141479492188 89.88560485839844 C 137.35150146484375 85.48394012451172 138.5470733642578 85.02091979980469 140.1886749267578 88.97535705566406 C 140.75497436523438 83.36628723144531 146.7654571533203 80.281494140625 148.4864044189453 80.36480712890625 C 148.20004272460938 93.28494262695312 149.69415283203125 94.55239868164062 152.51577758789062 99.58313751220703 C 153.96267700195312 102.63555908203125 149.8671417236328 106.85296630859375 148.8782501220703 106.77446746826172 C 152.3330535888672 109.4744873046875 150.04202270507812 113.94320678710938 148.21151733398438 113.21206665039062 C 154.1785888671875 112.92194366455078 158.14498901367188 122.59558868408203 157.04319763183594 123.3689193725586 C 160.96902465820312 124.83037567138672 164.76351928710938 123.42577362060547 169.7085723876953 122.81961822509766 C 174.39767456054688 119.73480987548828 175.78883361816406 121.50920104980469 177.60792541503906 122.47651672363281 C 179.31564331054688 122.72491455078125 180.10316467285156 124.97317504882812 183.6800537109375 127.23756408691406 C 183.93502807617188 130.0399627685547 182.6884765625 132.75436401367188 185.7437286376953 134.61322021484375 C 189.5762176513672 135.22927856445312 189.3305206298828 136.70516967773438 187.7434844970703 144.14187622070312 C 197.52244567871094 148.5165557861328 208.92611694335938 153.59249877929688 201.59185791015625 172.6389923095703 C 205.66065979003906 177.06834411621094 206.3410186767578 179.4530029296875 205.24899291992188 181.68975830078125 C 213.98123168945312 180.99134826660156 215.16209411621094 193.08682250976562 212.62474060058594 201.2929229736328 C 204.44891357421875 205.9068145751953 202.91970825195312 206.1855926513672 203.48023986816406 210.13665771484375 C 200.41734313964844 210.4067840576172 200.3817138671875 211.82774353027344 198.87144470214844 212.9785919189453 C 196.43002319335938 215.45928955078125 192.90164184570312 215.2589111328125 192.185791015625 219.61868286132812 C 184.29347229003906 220.6121826171875 183.65008544921875 224.76795959472656 178.21502685546875 230.1182403564453 C 176.41847229003906 233.4304962158203 181.56529235839844 237.9542236328125 181.19839477539062 238.4906768798828 C 181.86480712890625 251.83338928222656 185.60166931152344 260.7957458496094 179.82752990722656 264.20916748046875 C 169.2986602783203 269.89886474609375 148.66184997558594 267.7518005371094 136.2342987060547 269.6388244628906 C 131.43743896484375 268.8234558105469 128.9961395263672 272.2829895019531 122.82545471191406 275.5079040527344 C 109.16545104980469 276.6435852050781 73.34382629394531 275.8942565917969 72.98397827148438 270.12603759765625 C 47.752323150634766 266.79986572265625 56.594146728515625 268.5894775390625 58.187110900878906 273.3871154785156 C 48.67401123046875 276.5892028808594 1.0620607137680054 272.6549377441406 0.7676374912261963 269.9137268066406 C -6.441354274749756 225.84555053710938 -4.731888771057129 168.0353546142578 1.9905074834823608 122.25630187988281 C 10.49410629272461 117.78508758544922 21.28020668029785 113.98119354248047 26.304933547973633 121.87618255615234 C 27.6168212890625 130.0062713623047 35.83940505981445 129.1045379638672 42.112972259521484 131.94329833984375 C 46.143577575683594 130.34341430664062 47.436038970947266 131.35768127441406 49.528343200683594 142.33326721191406 C 50.65519332885742 149.47991943359375 61.062957763671875 148.53736877441406 62.716182708740234 146.25877380371094 C 62.15507125854492 136.97512817382812 63.174644470214844 134.11802673339844 62.066043853759766 128.27957153320312 C 68.20726013183594 126.6007308959961 67.66344451904297 124.35652923583984 66.26227569580078 112.68949127197266 C 68.56858825683594 111.13629913330078 67.97411346435547 104.02243041992188 75.17584228515625 100.97373962402344 C 74.9015884399414 100.49642181396484 77.69620513916016 89.96598815917969 77.38087463378906 85.92108917236328 C 77.31587219238281 83.07286834716797 77.47581481933594 75.22731018066406 85.2506332397461 75.34722137451172 C 83.14580535888672 70.26092529296875 82.67534637451172 67.54814910888672 87.23348236083984 58.06867980957031" stroke-width="0.0" fill="url(#shape_3_fill)"/>
    <path d="M 673.9807739257812 -0.5503371953964233 C 676.1173095703125 47.82545471191406 675.0172119140625 95.90823364257812 682.0397338867188 136.6663055419922 C 678.9864501953125 119.59693908691406 673.0813598632812 120.00897979736328 662.1431884765625 120.12439727783203 C 660.1917724609375 119.50109100341797 654.6563110351562 109.57595825195312 650.1842651367188 110.94841003417969 C 648.9408569335938 112.54838562011719 644.9881591796875 150.1263427734375 642.9241943359375 155.6934814453125 C 629.95458984375 154.82078552246094 627.1179809570312 142.6717987060547 626.9793090820312 138.4795379638672 C 623.0463256835938 137.47457885742188 619.25048828125 145.43446350097656 615.4214477539062 144.42227172851562 C 611.6814575195312 142.30990600585938 610.1643676757812 143.31654357910156 607.8043212890625 141.01510620117188 C 608.8713989257812 136.96533203125 613.4759521484375 132.64329528808594 604.6401977539062 115.08174133300781 C 599.4730834960938 135.7392578125 597.80126953125 139.61997985839844 593.35009765625 142.53611755371094 C 599.0338134765625 145.91822814941406 598.3515625 151.4776153564453 597.3986206054688 152.6912384033203 C 587.695556640625 157.45162963867188 588.5393676757812 164.7099151611328 578.0630493164062 172.56517028808594 C 572.3289794921875 170.1741485595703 569.7095336914062 157.7401885986328 568.568115234375 157.06568908691406 C 565.23388671875 158.3101348876953 563.4967651367188 154.32110595703125 561.93310546875 148.53932189941406 C 560.0720825195312 151.13124084472656 556.7483520507812 151.19268798828125 555.4315795898438 155.5252227783203 C 552.399169921875 155.9578857421875 550.745849609375 157.982421875 548.6696166992188 158.41461181640625 C 548.1159057617188 154.7390899658203 544.8480834960938 155.17575073242188 536.0023193359375 152.79527282714844 C 531.7528076171875 154.898193359375 529.9620971679688 159.47927856445312 523.1417846679688 156.94662475585938 C 519.2521362304688 160.52365112304688 520.3270874023438 162.1522216796875 522.8580932617188 168.93832397460938 C 517.6307373046875 168.50949096679688 517.3018188476562 171.06732177734375 516.2474975585938 171.61895751953125 C 511.2713623046875 173.32232666015625 509.8157043457031 175.26531982421875 505.645751953125 174.399169921875 C 502.7381591796875 171.4150390625 503.05914306640625 169.50531005859375 502.9847717285156 159.29714965820312 C 489.96112060546875 143.96087646484375 504.6565856933594 119.17304229736328 516.108154296875 125.7182846069336 C 524.0560302734375 125.43817138671875 542.2560424804688 109.13741302490234 548.79345703125 112.89974975585938 C 557.2012329101562 110.73274993896484 556.9954833984375 109.39868927001953 558.465576171875 109.13690948486328 C 559.5488891601562 107.32105255126953 564.7503662109375 103.4232406616211 570.12255859375 105.10375213623047 C 574.6549682617188 102.41912841796875 573.5635986328125 97.68826293945312 579.0047607421875 93.87835693359375 C 588.3578491210938 88.09124755859375 591.4042358398438 77.94396209716797 612.4986572265625 78.51255798339844 C 616.9127197265625 73.61080169677734 644.3600463867188 51.23891830444336 645.941162109375 35.35478591918945 C 644.8885498046875 32.39790725708008 647.968017578125 30.375398635864258 647.4694213867188 29.463180541992188 C 646.8866577148438 28.282289505004883 664.1486206054688 -4.263731479644775 673.9807739257812 -0.5503371953964233" stroke-width="0.0" fill="url(#shape_4_fill)"/>
    <path d="M 151.48809814453125 68.6255874633789 C 152.3063201904297 69.0793228149414 186.20997619628906 84.828857421875 192.59056091308594 91.83432006835938 C 179.740234375 118.26128387451172 217.78892517089844 149.97393798828125 221.21878051757812 154.5749969482422 C 240.0989990234375 167.98760986328125 242.01480102539062 184.32937622070312 240.7337646484375 193.8675079345703 C 237.9972381591797 193.2089385986328 236.09600830078125 186.78330993652344 236.77247619628906 184.06607055664062 C 235.68850708007812 183.52610778808594 234.15426635742188 184.3131561279297 231.0529022216797 182.6694793701172 C 231.9177703857422 184.39834594726562 232.12551879882812 193.15008544921875 228.65682983398438 195.66871643066406 C 227.64141845703125 196.6385955810547 227.67982482910156 205.25120544433594 221.0565185546875 207.64471435546875 C 215.08309936523438 206.57643127441406 214.28277587890625 197.8607177734375 214.57943725585938 195.00086975097656 C 212.95538330078125 185.44717407226562 211.8932342529297 184.95709228515625 206.59005737304688 177.40528869628906 C 205.80679321289062 172.68585205078125 206.19752502441406 168.03009033203125 204.21530151367188 159.4560089111328 C 205.71652221679688 153.82102966308594 194.87730407714844 144.6232452392578 193.557861328125 141.0843048095703 C 189.223388671875 139.92495727539062 189.0810089111328 136.212646484375 186.6477813720703 135.83514404296875 C 177.63897705078125 134.10963439941406 178.48435974121094 127.61106872558594 183.42767333984375 117.18163299560547 C 179.3909149169922 116.41044616699219 177.40057373046875 117.66780090332031 172.9370574951172 117.72547912597656 C 178.8948211669922 128.0037384033203 177.2152099609375 131.21546936035156 152.2576904296875 130.27491760253906 C 148.92144775390625 129.16561889648438 152.30604553222656 102.65284729003906 154.36764526367188 92.66268157958984 C 152.5751190185547 91.56281280517578 153.23341369628906 88.0172119140625 150.33729553222656 76.23588562011719 C 147.95408630371094 75.890869140625 148.00552368164062 69.19384765625 151.48809814453125 68.6255874633789" stroke-width="0.0" fill="url(#shape_5_fill)"/>
    <path d="M 614.9329833984375 78.99784851074219 C 618.8515625 83.94536590576172 620.2645263671875 86.79473114013672 632.367919921875 86.0859375 C 635.9962768554688 86.3082046508789 636.9691162109375 88.69896697998047 641.1554565429688 89.25392150878906 C 642.1847534179688 86.7104721069336 665.3475341796875 92.49282836914062 675.0139770507812 98.22837829589844 C 675.4066162109375 110.61923217773438 674.7958984375 125.90557098388672 674.7210083007812 151.7560272216797 C 665.6954345703125 142.7638702392578 662.6256713867188 136.77694702148438 660.3203125 131.9668426513672 C 660.2295532226562 123.56015014648438 660.7948608398438 117.69755554199219 653.7340698242188 112.31368255615234 C 642.9109497070312 113.7916259765625 643.845703125 142.2356719970703 642.9297485351562 142.87266540527344 C 644.3158569335938 144.42987060546875 642.4228515625 148.1705780029297 644.5556640625 149.97653198242188 C 640.12939453125 151.05589294433594 637.9344482421875 152.76840209960938 634.4867553710938 153.10299682617188 C 631.7432250976562 146.16256713867188 629.1731567382812 141.3968505859375 630.0359497070312 140.55349731445312 C 628.6538696289062 137.45401000976562 621.9186401367188 136.13160705566406 621.3046264648438 139.12997436523438 C 618.6656494140625 140.68557739257812 619.2919311523438 142.49391174316406 618.39453125 149.3876495361328 C 613.4730224609375 144.76112365722656 613.084228515625 143.23031616210938 609.370849609375 143.6834716796875 C 608.4605712890625 140.4075164794922 609.5189819335938 139.24107360839844 608.7828979492188 137.3762969970703 C 606.3644409179688 132.63563537597656 604.5610961914062 127.31202697753906 600.61962890625 127.75537872314453 C 606.0877075195312 133.7778778076172 595.3579711914062 148.2042999267578 592.4795532226562 152.94522094726562 C 590.4610595703125 163.74534606933594 588.8265991210938 163.8914337158203 585.9364624023438 169.10633850097656 C 584.5379638671875 167.55787658691406 584.091064453125 167.01612854003906 589.2872924804688 153.74998474121094 C 593.216064453125 141.350341796875 589.7455444335938 139.80804443359375 574.907958984375 131.13754272460938 C 573.7322998046875 157.69395446777344 557.3319702148438 157.1909942626953 555.9657592773438 151.16033935546875 C 555.7966918945312 152.86883544921875 553.064208984375 154.69618225097656 552.9628295898438 157.85133361816406 C 552.0042724609375 161.7095184326172 548.119140625 160.76333618164062 547.3553466796875 159.31777954101562 C 544.4544677734375 156.33534240722656 542.68994140625 153.73202514648438 538.3278198242188 155.9706268310547 C 535.8849487304688 158.48196411132812 530.939697265625 157.89389038085938 529.1397705078125 158.2018585205078 C 526.592529296875 159.54222106933594 526.8250122070312 163.41213989257812 525.69189453125 166.86900329589844 C 524.7042846679688 169.5762176513672 523.6331176757812 171.60716247558594 519.0385131835938 173.07138061523438 C 513.2402954101562 175.51922607421875 501.68768310546875 174.79461669921875 481.9326171875 159.19692993164062 C 478.51165771484375 136.2573699951172 500.28570556640625 119.66017150878906 514.313232421875 118.30268859863281 C 528.349365234375 127.695556640625 541.565673828125 108.00248718261719 548.2208862304688 111.73776245117188 C 556.4432983398438 111.06198120117188 563.206787109375 111.67229461669922 564.2618408203125 107.0549545288086 C 564.6289672851562 104.43550872802734 566.4716186523438 103.42598724365234 569.8623046875 104.7376937866211 C 572.7559814453125 101.10030364990234 578.99365234375 99.5569076538086 587.0848388671875 98.58758544921875 C 600.8460693359375 93.48047637939453 603.0194702148438 79.92375946044922 614.9329833984375 78.99784851074219" stroke-width="0.0" fill="url(#shape_6_fill)"/>
    <path d="M 0.35489383339881897 93.00774383544922 C 42.029640197753906 107.57229614257812 43.98504638671875 118.55342864990234 50.643028259277344 138.86216735839844 C 81.78445434570312 153.18736267089844 54.26161575317383 213.1350555419922 36.973812103271484 249.23719787597656 C 51.27720642089844 259.6646423339844 48.709537506103516 264.6475830078125 49.00465393066406 264.807373046875 C 50.95535659790039 254.64031982421875 34.62381362915039 248.17799377441406 20.177473068237305 241.46058654785156 C 6.487936496734619 196.65835571289062 -11.371530532836914 176.7717742919922 0.35489383339881897 93.00774383544922" stroke-width="0.0" fill="url(#shape_7_fill)"/>
    <path d="M 384.6084289550781 197.14663696289062 C 424.88031005859375 188.58261108398438 427.0356750488281 189.12364196777344 429.7657165527344 204.36663818359375 C 477.08074951171875 188.16799926757812 498.6562194824219 202.4617156982422 491.21331787109375 229.5450439453125 C 490.9665832519531 250.4988555908203 486.2962341308594 251.5187530517578 484.9273986816406 252.48036193847656 C 486.35498046875 259.1845397949219 482.559814453125 268.83197021484375 476.614501953125 268.68853759765625 C 469.0429992675781 272.9303283691406 453.2210388183594 266.7112731933594 451.65679931640625 269.7178649902344 C 447.1974792480469 266.28912353515625 448.421630859375 261.23944091796875 449.20294189453125 260.16265869140625 C 439.27532958984375 264.853515625 436.525146484375 261.4986267089844 437.530029296875 256.7608947753906 C 427.0392150878906 257.0514831542969 425.71185302734375 259.97564697265625 420.9528503417969 262.04278564453125 C 418.5141296386719 264.1982421875 417.7723388671875 267.7700500488281 414.9783935546875 273.6811218261719 C 414.1123962402344 271.4903564453125 392.2270202636719 269.7697448730469 392.51947021484375 264.2560119628906 C 391.8133544921875 265.17559814453125 388.8286437988281 263.4588928222656 385.36676025390625 264.2652893066406 C 382.0937805175781 262.014404296875 380.80450439453125 263.24298095703125 376.4039001464844 261.2251281738281 C 375.11102294921875 256.4344787597656 375.7228088378906 252.84080505371094 370.53948974609375 251.23013305664062 C 360.4475402832031 242.99493408203125 374.0993957519531 194.6910858154297 378.474365234375 177.05921936035156 C 385.02001953125 171.60313415527344 394.3030700683594 176.86099243164062 384.6084289550781 197.14663696289062" stroke-width="0.0" fill="url(#shape_8_fill)"/>
    <path d="M 566.5065307617188 157.1111297607422 C 567.9395751953125 158.98291015625 568.123779296875 166.62057495117188 569.33740234375 168.01612854003906 C 573.4931030273438 169.4950408935547 573.6187744140625 171.05914306640625 577.53662109375 174.3961639404297 C 581.9307250976562 172.94601440429688 583.9710693359375 174.56983947753906 583.7080688476562 179.472412109375 C 575.3946533203125 180.47549438476562 572.2796630859375 225.61241149902344 577.52685546875 226.95896911621094 C 577.8779296875 230.0018310546875 581.4841918945312 236.07289123535156 576.539306640625 242.57733154296875 C 568.9198608398438 238.5899658203125 566.9863891601562 237.10406494140625 558.960693359375 247.44985961914062 C 553.0726318359375 249.2699432373047 499.2721862792969 255.2027130126953 485.542724609375 251.02903747558594 C 486.7032470703125 250.42567443847656 488.4393615722656 241.3860321044922 497.87939453125 231.55517578125 C 486.17022705078125 226.86700439453125 483.1012268066406 222.4774169921875 482.6519775390625 215.2271728515625 C 477.2610778808594 210.1173095703125 479.81109619140625 205.94515991210938 482.8542175292969 206.1857147216797 C 480.7005920410156 205.21456909179688 481.4609680175781 199.31124877929688 492.2881774902344 199.57131958007812 C 492.45550537109375 196.4258270263672 491.6955871582031 192.50640869140625 491.91680908203125 188.55389404296875 C 487.5106201171875 174.37557983398438 487.858154296875 173.39341735839844 488.1311950683594 164.27871704101562 C 503.9141540527344 164.39976501464844 505.2243957519531 164.62278747558594 512.6270751953125 160.7840118408203 C 522.2789916992188 169.46885681152344 524.33642578125 167.47552490234375 526.1795654296875 167.3696746826172 C 523.7801513671875 162.15838623046875 531.127685546875 157.30259704589844 533.1968383789062 158.9273681640625 C 537.4883422851562 161.97671508789062 541.2825927734375 162.56800842285156 542.013916015625 164.14906311035156 C 545.105712890625 164.15191650390625 545.6468505859375 166.01553344726562 549.984130859375 166.93316650390625 C 549.0057983398438 165.5903778076172 550.20166015625 157.9215087890625 554.903076171875 158.14617919921875 C 557.88330078125 161.07974243164062 563.0950317382812 157.99415588378906 566.5065307617188 157.1111297607422" stroke-width="0.0" fill="url(#shape_9_fill)"/>
    <path d="M 561.2263793945312 156.7596435546875 C 565.4680786132812 152.9821014404297 571.3834228515625 157.0046844482422 571.0489501953125 173.73495483398438 C 572.529296875 169.13929748535156 576.56201171875 169.08445739746094 579.6615600585938 174.01072692871094 C 580.551513671875 178.1180419921875 578.916015625 187.3743438720703 579.9021606445312 191.0005340576172 C 571.374267578125 196.2227783203125 572.0618286132812 229.96826171875 578.119140625 230.974853515625 C 576.08154296875 231.16287231445312 575.6273803710938 236.8665771484375 572.1160888671875 237.9735107421875 C 560.6053466796875 235.79730224609375 567.115478515625 238.70672607421875 563.3409423828125 247.5655975341797 C 548.94384765625 253.19097900390625 501.2934265136719 249.22088623046875 500.2046203613281 251.878662109375 C 491.2287292480469 251.83370971679688 488.0596923828125 237.49143981933594 499.02130126953125 231.87481689453125 C 486.63385009765625 224.88168334960938 481.9794921875 219.28701782226562 481.8933410644531 214.76425170898438 C 475.8006896972656 215.39541625976562 472.3746032714844 215.14932250976562 464.60980224609375 196.762939453125 C 464.80810546875 176.68540954589844 480.26593017578125 175.0889129638672 482.5190124511719 195.41488647460938 C 489.7059631347656 197.85751342773438 494.81640625 184.82330322265625 496.6139221191406 182.96170043945312 C 495.2951965332031 178.86648559570312 497.5860900878906 177.68739318847656 500.1569519042969 177.50523376464844 C 507.93701171875 179.16656494140625 516.5708618164062 181.7552032470703 521.0108642578125 174.15798950195312 C 525.3179321289062 173.49534606933594 528.4139404296875 159.65167236328125 529.828125 154.5000457763672 C 538.2647705078125 155.7868194580078 539.888427734375 156.84278869628906 537.047607421875 165.80300903320312 C 545.7530517578125 166.0398712158203 549.0638427734375 167.5226287841797 551.6211547851562 166.6873321533203 C 550.9713745117188 155.29859924316406 552.78955078125 152.99647521972656 561.2263793945312 156.7596435546875" stroke-width="0.0" fill="url(#shape_10_fill)"/>
    <path d="M 443.55133056640625 108.87593841552734 C 452.1592712402344 114.10796356201172 453.9491271972656 115.49880981445312 463.0242004394531 107.6459732055664 C 466.9480895996094 114.1432876586914 469.3427429199219 113.15215301513672 488.57855224609375 107.63420104980469 C 489.40618896484375 124.43156433105469 488.73846435546875 125.26358032226562 492.51678466796875 130.5030517578125 C 493.25091552734375 132.22398376464844 493.4696044921875 135.48268127441406 496.72015380859375 136.3037567138672 C 493.7145690917969 135.7798309326172 493.1127014160156 138.7776641845703 490.2216491699219 141.87339782714844 C 483.8325500488281 138.9754180908203 482.50628662109375 141.4088134765625 480.880615234375 142.64271545410156 C 468.8207092285156 136.5750274658203 467.0253601074219 135.0816192626953 465.52056884765625 134.57716369628906 C 464.2357177734375 133.46954345703125 460.99786376953125 134.2228240966797 460.3084411621094 133.6348114013672 C 461.8421325683594 131.92160034179688 480.7508239746094 141.45599365234375 499.7892761230469 155.21450805664062 C 476.86566162109375 176.9366455078125 475.9248352050781 177.6009979248047 480.6736755371094 184.69557189941406 C 467.84771728515625 183.5541229248047 467.36456298828125 188.61807250976562 463.42156982421875 190.02435302734375 C 463.1143798828125 184.58206176757812 460.77728271484375 172.80172729492188 460.8555908203125 159.31387329101562 C 449.17864990234375 182.48406982421875 447.1571350097656 183.227783203125 439.8042907714844 183.08743286132812 C 439.1402282714844 183.8221893310547 435.7998962402344 195.76304626464844 435.0396728515625 197.37255859375 C 428.14208984375 200.37448120117188 417.53326416015625 180.58265686035156 417.67938232421875 179.81314086914062 C 416.93170166015625 180.0340118408203 398.9902038574219 180.88870239257812 398.0412292480469 174.59268188476562 C 394.10498046875 172.3808135986328 389.7694396972656 176.8568878173828 379.452392578125 174.68614196777344 C 382.5571594238281 157.724853515625 379.7477111816406 152.09375 392.30535888671875 138.8217315673828 C 398.5242004394531 138.6507110595703 399.8940734863281 130.3106689453125 402.9878845214844 119.91842651367188 C 406.56854248046875 98.97770690917969 424.2645568847656 101.40605163574219 443.55133056640625 108.87593841552734" stroke-width="0.0" fill="url(#shape_11_fill)"/>
    <path d="M 602.8837280273438 127.71670532226562 C 605.693359375 130.27975463867188 605.2855834960938 143.3636016845703 606.8896484375 145.4685516357422 C 610.8025512695312 146.09295654296875 610.905517578125 151.2351531982422 619.0458374023438 154.01651000976562 C 618.0565185546875 149.8406219482422 617.5333862304688 141.8875732421875 622.8836669921875 141.0836639404297 C 623.9854736328125 137.39480590820312 625.361572265625 137.32345581054688 627.1968383789062 140.32894897460938 C 627.1072998046875 142.21875 628.8731079101562 144.8381805419922 629.0621337890625 147.23411560058594 C 632.0797119140625 149.78749084472656 631.685791015625 151.24807739257812 635.828369140625 153.75682067871094 C 642.2366943359375 154.19479370117188 642.0308227539062 160.12875366210938 649.7100219726562 174.49716186523438 C 639.5591430664062 186.0350341796875 640.3648071289062 195.1245574951172 640.867431640625 206.0597381591797 C 660.9977416992188 206.97335815429688 662.1239013671875 244.26072692871094 642.4793701171875 245.29173278808594 C 622.1753540039062 247.96987915039062 611.212890625 248.87486267089844 579.2625122070312 265.2761535644531 C 574.3312377929688 253.22927856445312 580.8130493164062 229.65792846679688 572.5494995117188 215.26121520996094 C 568.0626220703125 208.81358337402344 571.5033569335938 168.8790740966797 583.8385620117188 169.72059631347656 C 596.77490234375 163.23756408691406 599.836669921875 143.03785705566406 600.1895141601562 142.18714904785156 C 595.760986328125 140.01258850097656 596.2536010742188 137.34071350097656 602.8837280273438 127.71670532226562" stroke-width="0.0" fill="url(#shape_12_fill)"/>
    <path d="M 412.199462890625 176.59536743164062 C 418.8682861328125 174.51502990722656 434.8484802246094 213.58253479003906 428.4752502441406 219.71987915039062 C 419.8143310546875 228.7650604248047 427.5249328613281 236.91612243652344 431.1628112792969 241.69476318359375 C 430.1486511230469 260.88897705078125 417.74029541015625 272.1878356933594 411.6748046875 267.7244567871094 C 407.0539855957031 264.8103332519531 401.64276123046875 271.9335021972656 391.44696044921875 268.45562744140625 C 385.66973876953125 264.89886474609375 382.6079406738281 266.0575866699219 378.7218933105469 265.6673583984375 C 373.7059631347656 266.0697326660156 372.9044494628906 262.108642578125 374.52703857421875 258.4129638671875 C 376.1506652832031 256.2769470214844 374.6766662597656 254.7412872314453 374.9640197753906 253.8883819580078 C 370.99127197265625 255.7126922607422 368.8989562988281 251.77830505371094 368.10272216796875 252.17239379882812 C 360.6012268066406 248.02749633789062 366.58660888671875 229.39292907714844 367.12835693359375 222.27708435058594 C 369.71356201171875 218.81871032714844 371.59674072265625 202.486328125 383.25689697265625 202.61366271972656 C 378.6612854003906 193.59213256835938 379.7467956542969 191.7263641357422 389.90570068359375 191.66444396972656 C 390.79449462890625 177.4259033203125 392.6925048828125 176.7576446533203 412.199462890625 176.59536743164062" stroke-width="0.0" fill="url(#shape_13_fill)"/>
    <path d="M 507.6007995605469 66.8711929321289 C 508.8947448730469 67.68546295166016 511.97784423828125 74.71890258789062 514.3854370117188 87.76604461669922 C 531.56640625 79.5545425415039 535.83935546875 79.78968811035156 537.5972290039062 85.83019256591797 C 539.1732177734375 90.85319519042969 544.5379638671875 90.27848815917969 545.0235595703125 91.1767349243164 C 545.53662109375 92.74091339111328 556.1619262695312 96.8614501953125 559.4144897460938 95.53887176513672 C 563.374267578125 97.59661102294922 567.3873901367188 97.31441497802734 568.4276733398438 98.09738159179688 C 563.8517456054688 106.51681518554688 558.775390625 116.24775695800781 537.9906616210938 109.01822662353516 C 540.53662109375 112.07657623291016 539.9950561523438 115.30773162841797 534.6470336914062 118.41770935058594 C 527.2920532226562 120.17647552490234 519.5910034179688 124.5693588256836 515.6051025390625 118.56343078613281 C 512.5256958007812 121.84432220458984 501.8023681640625 125.9169921875 500.58856201171875 127.18840789794922 C 498.15179443359375 129.7060089111328 494.2209167480469 129.32452392578125 489.9942321777344 126.44371795654297 C 489.17108154296875 116.97561645507812 468.8612060546875 118.24955749511719 468.16046142578125 117.39676666259766 C 463.5247802734375 117.83794403076172 462.9172668457031 116.6512222290039 461.96221923828125 116.32081604003906 C 471.572021484375 120.81556701660156 474.66064453125 115.89749908447266 477.45947265625 112.88018798828125 C 470.4183654785156 99.87399291992188 471.9317932128906 88.0537109375 474.4246520996094 81.76371002197266 C 474.58685302734375 70.9327163696289 475.3394775390625 70.38510131835938 477.193359375 66.01646423339844 C 478.3230285644531 63.61594772338867 482.36962890625 63.67523956298828 483.9857482910156 63.472721099853516 C 495.085693359375 63.16041946411133 504.0296630859375 61.574092864990234 507.6007995605469 66.8711929321289" stroke-width="0.0" fill="url(#shape_14_fill)"/>
    <path d="M 535.2194213867188 161.82684326171875 C 544.0249633789062 162.3475799560547 544.3331909179688 163.13882446289062 546.5389404296875 165.06297302246094 C 549.8558959960938 167.49815368652344 549.6716918945312 170.16497802734375 542.8646850585938 183.1190185546875 C 544.5457153320312 191.8112030029297 535.7103881835938 230.1332550048828 537.1509399414062 232.31814575195312 C 541.3826904296875 239.0029754638672 540.8804931640625 252.71836853027344 518.66064453125 252.27537536621094 C 502.3474426269531 253.0602264404297 481.9580993652344 242.49142456054688 487.98248291015625 230.40811157226562 C 476.4140930175781 219.93377685546875 478.9585266113281 207.78041076660156 483.14471435546875 201.80052185058594 C 486.4606628417969 197.5194091796875 487.9836120605469 197.4827423095703 488.7777404785156 199.31553649902344 C 482.8177185058594 195.45166015625 488.6847229003906 184.5257568359375 487.3580322265625 173.8806610107422 C 487.6487731933594 167.3277587890625 489.56365966796875 166.42018127441406 491.0998229980469 166.93194580078125 C 505.4794921875 178.92730712890625 511.3099670410156 184.17015075683594 522.7607421875 172.7794189453125 C 525.5669555664062 170.9700927734375 525.3604125976562 167.20022583007812 526.1399536132812 165.0709686279297 C 525.4619750976562 160.164794921875 528.1419067382812 158.12855529785156 535.2194213867188 161.82684326171875" stroke-width="0.0" fill="url(#shape_15_fill)"/>
    <path d="M 651.6176147460938 109.43953704833984 C 653.8241577148438 110.58477783203125 664.1014404296875 121.5085678100586 659.8350219726562 132.6274871826172 C 664.0249633789062 136.16604614257812 664.5143432617188 143.8085174560547 673.2159423828125 147.87213134765625 C 677.2872314453125 178.98104858398438 673.842529296875 210.88392639160156 676.2041015625 267.0882873535156 C 675.0957641601562 265.4519958496094 635.743896484375 272.96575927734375 630.9174194335938 264.055908203125 C 636.2787475585938 244.8949432373047 643.469970703125 124.03221893310547 651.6176147460938 109.43953704833984" stroke-width="0.0" fill="url(#shape_16_fill)"/>
    <path d="M 601.4321899414062 128.6345672607422 C 604.0098266601562 128.2997283935547 605.6049194335938 131.67953491210938 606.3402709960938 134.0070343017578 C 608.8547973632812 135.18002319335938 607.0967407226562 141.58056640625 609.1404418945312 143.80178833007812 C 628.7608642578125 143.29132080078125 632.2531127929688 216.43849182128906 632.9255981445312 271.6443176269531 C 579.24365234375 276.5014343261719 574.329345703125 268.3031311035156 579.9454345703125 242.2983856201172 C 559.4326171875 226.13922119140625 598.6566772460938 156.2762908935547 601.4321899414062 128.6345672607422" stroke-width="0.0" fill="url(#shape_17_fill)"/>
    <path d="M 320.3359069824219 186.1414337158203 C 321.4726867675781 186.41696166992188 321.6297912597656 189.24334716796875 321.37030029296875 199.96270751953125 C 331.51220703125 193.61305236816406 332.337646484375 193.3242645263672 336.8656921386719 196.19317626953125 C 345.3034973144531 198.7063446044922 346.5802307128906 197.3475799560547 356.59710693359375 190.87643432617188 C 358.7167663574219 192.33538818359375 359.65301513671875 194.39617919921875 356.2662353515625 201.8414306640625 C 359.4254455566406 204.04298400878906 361.60028076171875 204.16839599609375 364.80157470703125 210.350830078125 C 367.31109619140625 207.17645263671875 368.5777587890625 207.89419555664062 368.2593994140625 211.6592254638672 C 370.114013671875 220.10308837890625 370.29534912109375 223.075927734375 366.0863342285156 225.55975341796875 C 365.8125 231.37806701660156 363.5253601074219 237.41885375976562 368.048095703125 248.65518188476562 C 370.51544189453125 253.8082733154297 368.0116271972656 255.70033264160156 358.0460205078125 254.6204071044922 C 354.6015930175781 255.82003784179688 324.28070068359375 254.94371032714844 322.5746154785156 255.3977508544922 C 313.2618713378906 256.061767578125 311.9566650390625 253.86740112304688 308.7689208984375 245.19175720214844 C 303.8367614746094 229.14268493652344 320.9608154296875 195.52626037597656 320.3359069824219 186.1414337158203" stroke-width="0.0" fill="url(#shape_18_fill)"/>
    <path d="M 482.6256408691406 232.09298706054688 C 505.7912902832031 252.2224884033203 515.4185180664062 263.9957580566406 495.221435546875 280.5722351074219 C 470.1398620605469 280.21343994140625 443.94842529296875 261.7682189941406 442.086181640625 262.04290771484375 C 438.7647399902344 260.5256042480469 437.0987854003906 258.3726806640625 432.63665771484375 258.18072509765625 C 429.7224426269531 258.5362243652344 428.4312438964844 256.7395935058594 429.9197082519531 253.82208251953125 C 433.1354064941406 237.19561767578125 423.611328125 233.7451171875 422.9647521972656 229.72323608398438 C 423.0443420410156 227.16647338867188 421.08062744140625 226.65408325195312 420.256103515625 225.10035705566406 C 427.3990478515625 219.72427368164062 429.45050048828125 218.79696655273438 428.6819763183594 213.93820190429688 C 444.5695495605469 197.18988037109375 481.2716064453125 196.25857543945312 482.6256408691406 232.09298706054688" stroke-width="0.0" fill="url(#shape_19_fill)"/>
    <path d="M 673.9315185546875 -2.969756603240967 C 675.0673828125 32.84956741333008 674.5833740234375 64.76375579833984 674.6306762695312 97.25884246826172 C 669.3363037109375 96.0396957397461 651.6607055664062 87.53131103515625 645.7012329101562 90.0901870727539 C 638.5833740234375 89.48477935791016 638.1015625 86.0559310913086 637.34814453125 84.07136535644531 C 626.1050415039062 84.2531509399414 620.7717895507812 93.44449615478516 608.0306396484375 86.51113891601562 C 609.8223876953125 74.74928283691406 612.1673583984375 73.62638854980469 614.4496459960938 71.59200286865234 C 622.4683227539062 68.79393005371094 648.7688598632812 25.112781524658203 647.5238037109375 20.629764556884766 C 655.4441528320312 9.114004135131836 656.560302734375 2.3124167919158936 668.942626953125 3.383286714553833 C 669.8281860351562 2.6931543350219727 670.0896606445312 1.0545706748962402 673.9315185546875 -2.969756603240967" stroke-width="0.0" fill="url(#shape_20_fill)"/>
    <path d="M 561.7467651367188 156.17417907714844 C 569.8626708984375 156.48573303222656 570.1578369140625 161.12615966796875 572.1556396484375 165.89981079101562 C 581.8050537109375 168.34925842285156 571.9282836914062 230.5572967529297 578.39501953125 240.55490112304688 C 579.2313842773438 244.88491821289062 578.3803100585938 247.00157165527344 577.7391357421875 270.7362365722656 C 536.6997680664062 269.6976013183594 533.228271484375 266.82440185546875 538.4566650390625 248.3182373046875 C 545.6871337890625 244.7811279296875 548.0553588867188 167.6571044921875 555.3305053710938 156.91693115234375 C 555.4956665039062 152.71824645996094 559.7068481445312 151.7616424560547 561.7467651367188 156.17417907714844" stroke-width="0.0" fill="url(#shape_21_fill)"/>
    <path d="M 215.0057373046875 210.23211669921875 C 234.91514587402344 208.51910400390625 238.11813354492188 241.49435424804688 224.9711151123047 257.49346923828125 C 211.4437255859375 262.9649353027344 209.0994110107422 263.5982360839844 208.8700408935547 273.0679626464844 C 205.81402587890625 275.298828125 206.74925231933594 277.06805419921875 205.6229705810547 279.4874572753906 C 206.64340209960938 282.8118591308594 202.9710235595703 285.74688720703125 201.7998809814453 284.91802978515625 C 202.1602020263672 283.0354309082031 190.3409881591797 272.44659423828125 188.13720703125 263.4246826171875 C 186.6641387939453 261.6058654785156 183.88499450683594 263.10845947265625 181.43768310546875 263.2110900878906 C 180.9871368408203 260.9258117675781 179.91404724121094 259.97625732421875 178.67034912109375 251.75160217285156 C 178.89395141601562 247.88156127929688 169.04515075683594 242.264404296875 170.606689453125 238.53004455566406 C 175.1818084716797 213.60629272460938 177.3251495361328 212.9073028564453 185.53720092773438 220.62759399414062 C 193.68399047851562 219.69851684570312 194.0476837158203 215.0310821533203 198.51644897460938 213.39979553222656 C 184.49591064453125 205.81178283691406 184.56646728515625 200.7174072265625 201.2313690185547 197.42433166503906 C 212.8834228515625 192.8292236328125 215.12344360351562 194.8623504638672 215.0057373046875 210.23211669921875" stroke-width="0.0" fill="url(#shape_22_fill)"/>
    <path d="M 111.69271850585938 426.1979064941406 C 112.74385070800781 429.28521728515625 111.04434204101562 431.2082824707031 110.65797424316406 431.403564453125 C 104.96639251708984 432.6657409667969 103.22502899169922 433.80023193359375 91.94978332519531 433.0794982910156 C 89.77336883544922 435.9709167480469 95.6640396118164 446.421630859375 91.58598327636719 452.1399841308594 C 78.66380310058594 444.9972229003906 46.938175201416016 447.9271240234375 25.262916564941406 449.61517333984375 C 14.045388221740723 446.18487548828125 13.902864456176758 439.7489929199219 18.07097625732422 436.3465881347656 C 35.271175384521484 427.5592956542969 49.5954704284668 426.68450927734375 73.4418716430664 427.04534912109375 C 73.60992431640625 423.8487548828125 110.00318145751953 420.5531921386719 111.69271850585938 426.1979064941406" stroke-width="0.0" fill="url(#shape_23_fill)"/>
    <path d="M 198.59786987304688 120.99017333984375 C 208.78236389160156 116.94071960449219 221.62246704101562 135.4300994873047 218.23794555664062 141.71322631835938 C 216.2545623779297 147.85379028320312 218.50209045410156 150.3849334716797 220.22592163085938 154.72222900390625 C 228.16921997070312 158.37167358398438 247.7212677001953 175.9968719482422 244.7571258544922 198.99078369140625 C 239.1337432861328 199.58892822265625 235.67637634277344 187.02651977539062 232.3109588623047 179.79429626464844 C 234.7781219482422 187.1873779296875 233.43934631347656 195.96102905273438 230.51641845703125 197.12254333496094 C 228.1836395263672 197.0733184814453 225.8269805908203 202.59849548339844 220.17300415039062 208.7136993408203 C 214.83790588378906 207.8060302734375 213.37054443359375 202.6389923095703 212.0961456298828 198.57864379882812 C 211.48179626464844 190.8144989013672 211.63818359375 183.27432250976562 206.77432250976562 177.65310668945312 C 203.85723876953125 174.04812622070312 204.91200256347656 173.00230407714844 205.726318359375 167.86740112304688 C 202.5570831298828 147.5442657470703 199.49038696289062 146.94235229492188 192.08206176757812 143.79689025878906 C 189.4240264892578 142.41995239257812 191.5474090576172 128.4431610107422 198.59786987304688 120.99017333984375" stroke-width="0.0" fill="url(#shape_24_fill)"/>
    <path d="M 590.9137573242188 401.806396484375 C 601.1908569335938 405.9112854003906 629.1897583007812 405.0863952636719 636.2705078125 410.9818420410156 C 634.8792114257812 423.5452575683594 630.4220581054688 426.87835693359375 629.0717163085938 426.0234680175781 C 630.5650024414062 427.8257751464844 636.1021118164062 428.0365905761719 639.8798828125 436.5780029296875 C 618.805419921875 447.9429626464844 578.7783203125 438.6777648925781 572.4108276367188 434.8983459472656 C 567.6839599609375 427.26837158203125 573.8773803710938 419.57427978515625 577.03955078125 412.8882141113281 C 578.1170654296875 411.0555725097656 585.7489013671875 413.54400634765625 590.9137573242188 401.806396484375" stroke-width="0.0" fill="url(#shape_25_fill)"/>
    <path d="M 142.9091033935547 66.91026306152344 C 144.04592895507812 68.89418029785156 149.1739501953125 67.57925415039062 149.61756896972656 69.00090789794922 C 148.8719024658203 70.90974426269531 150.44322204589844 71.82865142822266 149.57713317871094 73.93643951416016 C 151.09107971191406 74.49071502685547 150.15396118164062 78.68451690673828 149.6168975830078 90.94539642333984 C 150.28564453125 93.13522338867188 154.36764526367188 95.55301666259766 153.2914581298828 104.16768646240234 C 153.29042053222656 107.68289184570312 155.10838317871094 108.51206970214844 155.7520751953125 110.95768737792969 C 157.25804138183594 123.24698638916016 154.57484436035156 133.4778289794922 150.02305603027344 133.5792999267578 C 141.25624084472656 128.0321044921875 137.61956787109375 118.56849670410156 125.97950744628906 116.66649627685547 C 121.93865203857422 113.77357482910156 123.33686065673828 109.30551147460938 126.16911315917969 107.27214813232422 C 128.55960083007812 106.77165985107422 129.03297424316406 105.2780990600586 132.55628967285156 104.90718841552734 C 138.53036499023438 96.43306732177734 135.16311645507812 92.89066314697266 132.82225036621094 89.0471420288086 C 134.0471954345703 88.19615936279297 139.41026306152344 87.79540252685547 140.43014526367188 85.38849639892578 C 138.4984130859375 84.72161102294922 138.57415771484375 77.63035583496094 139.76097106933594 77.63916778564453 C 143.97947692871094 76.53532409667969 143.01744079589844 70.93196868896484 142.9091033935547 66.91026306152344" stroke-width="0.0" fill="url(#shape_26_fill)"/>
    <path d="M 139.6270751953125 67.76622009277344 C 149.12533569335938 66.82344818115234 149.5303192138672 67.95512390136719 148.76104736328125 77.29895782470703 C 150.50936889648438 78.29033660888672 151.14010620117188 80.75886535644531 154.93362426757812 85.29849243164062 C 150.02745056152344 90.35444641113281 155.11390686035156 95.72602081298828 150.98193359375 105.2575454711914 C 152.74069213867188 106.06900024414062 153.60374450683594 109.74398803710938 155.52557373046875 112.92987823486328 C 152.8141632080078 116.2741928100586 157.8943634033203 122.35617065429688 153.59860229492188 126.33653259277344 C 152.47592163085938 132.0110321044922 151.304931640625 133.16506958007812 147.56170654296875 134.46377563476562 C 141.94558715820312 131.00213623046875 128.2584228515625 122.20514678955078 129.54110717773438 117.58312225341797 C 124.20478057861328 118.53631591796875 122.879150390625 113.15155029296875 128.21717834472656 110.62396240234375 C 122.78179931640625 107.62655639648438 124.50311279296875 104.24793243408203 133.30738830566406 107.7029800415039 C 136.7261199951172 105.86829376220703 133.3197479248047 92.68671417236328 132.69607543945312 89.14933013916016 C 139.41192626953125 87.6294174194336 138.8826141357422 85.16655731201172 138.98001098632812 81.1600341796875 C 139.06582641601562 77.49103546142578 140.3621063232422 76.81208801269531 142.45863342285156 78.31383514404297 C 145.35305786132812 71.77164459228516 142.5930633544922 70.52107238769531 139.6270751953125 67.76622009277344" stroke-width="0.0" fill="url(#shape_27_fill)"/>
    <path d="M -0.4170224666595459 -0.27753183245658875 C 4.729283809661865 0.38822993636131287 9.680732727050781 -0.5322566628456116 18.71150016784668 -0.9033493399620056 C 25.5213623046875 -1.7921619415283203 26.0040283203125 -0.9885990023612976 55.56527328491211 0.42842745780944824 C 51.33466339111328 25.735733032226562 28.84270668029785 23.16888999938965 27.9161434173584 27.294452667236328 C 60.163902282714844 9.230828285217285 69.02230072021484 8.826062202453613 72.43875122070312 56.73357009887695 C 33.765708923339844 58.435646057128906 22.16606903076172 61.190277099609375 19.741403579711914 53.371368408203125 C 16.629825592041016 39.29532241821289 11.325054168701172 38.28302001953125 9.982696533203125 33.61905288696289 C 10.09661865234375 35.78757858276367 14.526243209838867 39.26178741455078 14.555339813232422 41.041221618652344 C 16.123607635498047 42.17797088623047 16.005868911743164 44.630096435546875 18.172422409057617 47.87876892089844 C 20.076412200927734 51.07184982299805 18.77107048034668 52.3042106628418 22.526151657104492 57.594905853271484 C 23.31421661376953 70.43595886230469 12.38550853729248 72.88458251953125 7.501436233520508 61.85523986816406 C 5.339341640472412 60.94108581542969 3.5490365028381348 59.1314811706543 0.3148205280303955 59.44574737548828 C -0.3207949995994568 39.79960250854492 -0.3250507116317749 19.635147094726562 -0.4170224666595459 -0.27753183245658875" stroke-width="0.0" fill="url(#shape_28_fill)"/>
    <path d="M 298.4552917480469 197.26065063476562 C 297.8142395019531 199.47032165527344 300.6644592285156 202.16152954101562 301.5396423339844 208.76791381835938 C 300.4368591308594 214.38743591308594 325.9625244140625 222.5881805419922 316.0790710449219 255.52822875976562 C 311.8909606933594 254.66940307617188 310.54888916015625 255.76248168945312 304.4783935546875 255.01898193359375 C 303.8153381347656 258.07305908203125 296.9734802246094 258.5250244140625 281.25537109375 256.2591857910156 C 276.8786315917969 223.71128845214844 285.0165710449219 221.5391082763672 298.4552917480469 197.26065063476562" stroke-width="0.0" fill="url(#shape_29_fill)"/>
    <path d="M 0.0033163027837872505 -0.13889038562774658 C 4.604068279266357 0.4544147253036499 9.80646800994873 -0.40965473651885986 14.738125801086426 0.09401578456163406 C 15.965540885925293 0.47212302684783936 16.762046813964844 2.4086878299713135 16.59018325805664 7.916233062744141 C 18.753522872924805 11.018229484558105 21.40290641784668 19.173778533935547 27.818822860717773 20.509660720825195 C 27.30049705505371 22.598539352416992 23.61073875427246 26.685123443603516 25.03390884399414 31.971477508544922 C 20.416637420654297 32.625648498535156 11.460149765014648 30.135229110717773 4.025975704193115 33.4537467956543 C 8.85830020904541 36.17302322387695 8.660523414611816 39.0831413269043 10.866177558898926 40.461700439453125 C 10.452025413513184 42.98296356201172 7.421666145324707 49.38340377807617 11.753437995910645 53.79952621459961 C 17.768953323364258 51.07586669921875 19.467100143432617 51.527244567871094 18.52338218688965 58.34973907470703 C 11.318690299987793 60.7006721496582 9.426719665527344 62.47087478637695 0.17695222795009613 61.58926773071289 C -0.4278516471385956 39.97880172729492 -0.354690819978714 19.75649070739746 0.0033163027837872505 -0.13889038562774658" stroke-width="0.0" fill="url(#shape_30_fill)"/>
    <path d="M 548.99267578125 70.73078155517578 C 546.7467651367188 78.43689727783203 576.7119140625 89.40326690673828 581.3995361328125 91.8160400390625 C 580.9903564453125 92.98313903808594 577.5125122070312 93.39006805419922 577.4210205078125 98.33956146240234 C 573.292724609375 100.69239807128906 572.0559692382812 99.81664276123047 569.24609375 100.02832794189453 C 567.609619140625 93.84007263183594 547.9041137695312 98.98627471923828 538.9044799804688 88.25518035888672 C 538.19921875 85.51692199707031 538.92138671875 82.76396942138672 535.8758544921875 81.8708267211914 C 534.047607421875 80.74120330810547 527.0471801757812 79.5136489868164 526.9959716796875 78.10858917236328 C 524.9905395507812 75.8150405883789 527.6644287109375 70.81700897216797 531.9066162109375 68.93199920654297 C 539.1864013671875 66.81453704833984 542.8008422851562 71.44985961914062 548.99267578125 70.73078155517578" stroke-width="0.0" fill="url(#shape_31_fill)"/>
    <path d="M 446.9519348144531 264.4398193359375 C 450.6125793457031 265.32342529296875 451.2485656738281 266.7705078125 455.56591796875 267.85516357421875 C 460.5113830566406 267.6551208496094 465.32232666015625 270.3759765625 469.9612731933594 273.00701904296875 C 470.4309997558594 275.6334533691406 471.828857421875 276.8868713378906 471.6768798828125 280.78131103515625 C 452.25177001953125 287.26605224609375 431.1003723144531 284.1264953613281 415.77301025390625 285.14605712890625 C 413.3477478027344 273.8799133300781 414.1931457519531 272.2864990234375 415.2710876464844 268.0127868652344 C 418.179443359375 267.1954040527344 417.71881103515625 264.77813720703125 419.3135986328125 262.86370849609375 C 445.1504211425781 250.9937286376953 447.1818542480469 251.3152618408203 446.9519348144531 264.4398193359375" stroke-width="0.0" fill="url(#shape_32_fill)"/>
    <path d="M 272.87103271484375 192.0796661376953 C 274.2946472167969 192.3447265625 288.2555236816406 243.72305297851562 282.6531066894531 249.16127014160156 C 279.74188232421875 249.697998046875 274.07635498046875 247.79161071777344 269.1432189941406 250.02352905273438 C 266.08636474609375 246.71083068847656 266.41790771484375 242.91461181640625 260.8207702636719 240.70346069335938 C 254.52627563476562 207.68716430664062 263.0008544921875 206.0910186767578 272.87103271484375 192.0796661376953" stroke-width="0.0" fill="url(#shape_33_fill)"/>
    <path d="M 270.1700134277344 406.255615234375 C 262.1297607421875 429.796875 264.208251953125 430.9061584472656 267.1119079589844 440.634765625 C 262.4990539550781 440.8529052734375 260.6869812011719 446.4288330078125 258.6905212402344 447.8650817871094 C 245.33224487304688 445.8787536621094 213.3257293701172 448.86846923828125 212.38748168945312 445.074462890625 C 213.0218963623047 436.99578857421875 213.95974731445312 436.2222900390625 216.0889129638672 434.755126953125 C 216.50088500976562 433.64898681640625 225.11219787597656 434.0381774902344 226.83209228515625 431.0427551269531 C 226.7010040283203 417.7074890136719 232.09356689453125 417.0084533691406 270.1700134277344 406.255615234375" stroke-width="0.0" fill="url(#shape_34_fill)"/>
    <path d="M 105.60408782958984 69.59309387207031 C 110.14036560058594 69.78144836425781 110.72318267822266 78.54893493652344 112.7595443725586 85.04841613769531 C 117.88497924804688 86.44295501708984 115.96504974365234 110.1595230102539 118.92100524902344 110.59261322021484 C 116.70130920410156 112.57173156738281 109.76432800292969 114.27489471435547 106.98231506347656 124.95234680175781 C 104.5862045288086 117.11922454833984 96.47040557861328 118.90972900390625 87.30810546875 107.54843139648438 C 85.88684844970703 85.65535736083984 106.0538558959961 84.27987670898438 105.60408782958984 69.59309387207031" stroke-width="0.0" fill="url(#shape_35_fill)"/>
    <path d="M 451.2084045410156 178.4609375 C 454.1611022949219 176.02566528320312 456.3378601074219 177.769775390625 455.0992736816406 180.3311309814453 C 455.90570068359375 180.84620666503906 455.1248474121094 184.873046875 456.04083251953125 186.879150390625 C 456.32647705078125 188.47499084472656 459.30267333984375 193.79795837402344 458.8955993652344 204.39456176757812 C 458.804443359375 208.2789764404297 453.20416259765625 210.2925262451172 445.9768371582031 204.37014770507812 C 442.2371520996094 206.71572875976562 440.7134704589844 209.3626251220703 432.2461853027344 210.87564086914062 C 435.9013671875 209.9204559326172 436.83038330078125 187.88992309570312 437.5860900878906 173.84896850585938 C 440.2104187011719 179.04159545898438 440.78857421875 181.35177612304688 446.8228759765625 181.43576049804688 C 447.9338684082031 179.71119689941406 450.147705078125 179.71713256835938 451.2084045410156 178.4609375" stroke-width="0.0" fill="url(#shape_36_fill)"/>
    <path d="M 557.8839721679688 84.52867126464844 C 560.1676635742188 80.26384735107422 578.3844604492188 83.1613540649414 579.388916015625 85.13201904296875 C 581.435546875 83.2007827758789 586.3363647460938 84.87553405761719 588.2335815429688 88.68868255615234 C 598.362060546875 110.14579772949219 588.7413330078125 116.529052734375 574.3223876953125 100.85517883300781 C 573.786376953125 99.47834014892578 551.04052734375 96.87732696533203 548.3672485351562 86.83158111572266 C 539.1753540039062 86.6844253540039 537.6336059570312 85.08675384521484 536.8470458984375 79.84565734863281 C 543.1455078125 74.80412292480469 547.0640258789062 78.65167236328125 557.8839721679688 84.52867126464844" stroke-width="0.0" fill="url(#shape_37_fill)"/>
    <path d="M 251.84906005859375 207.04786682128906 C 265.8952941894531 215.11431884765625 261.3581848144531 234.72598266601562 260.0469055175781 248.4154510498047 C 259.7238464355469 254.579833984375 251.38592529296875 255.1529998779297 248.96051025390625 257.0242614746094 C 234.41331481933594 236.84255981445312 240.96432495117188 215.9638671875 251.84906005859375 207.04786682128906" stroke-width="0.0" fill="url(#shape_38_fill)"/>
    <path d="M 442.2090759277344 262.998779296875 C 445.96630859375 263.42852783203125 449.2009582519531 266.6890563964844 447.9212951660156 270.0867614746094 C 444.6692810058594 270.4041442871094 442.6736145019531 277.33197021484375 440.0843200683594 277.2518615722656 C 438.25592041015625 286.9020690917969 430.30743408203125 286.2507629394531 417.9172058105469 275.3187561035156 C 414.4219970703125 276.72125244140625 413.2784423828125 274.35986328125 416.4349060058594 271.6022033691406 C 414.8880310058594 269.9175109863281 419.28375244140625 262.302734375 425.2391357421875 258.510498046875 C 426.9720764160156 257.9296875 440.73919677734375 257.6351013183594 442.2090759277344 262.998779296875" stroke-width="0.0" fill="url(#shape_39_fill)"/>
    <path d="M 407.65570068359375 409.9246520996094 C 408.6379699707031 409.91888427734375 416.7665710449219 419.1509094238281 414.21826171875 424.4386901855469 C 398.994140625 435.3526916503906 386.2942810058594 420.6047668457031 376.5466613769531 420.8857727050781 C 371.0729064941406 417.9615173339844 371.2272644042969 416.5549011230469 372.46453857421875 410.3707580566406 C 375.6217956542969 401.1571350097656 392.1455993652344 403.97991943359375 407.65570068359375 409.9246520996094" stroke-width="0.0" fill="url(#shape_40_fill)"/>
    <path d="M 66.57749938964844 427.39190673828125 C 67.2052230834961 428.93121337890625 63.897220611572266 431.8804626464844 58.611759185791016 434.2557678222656 C 57.35137939453125 435.90167236328125 41.579833984375 435.3351135253906 30.855682373046875 443.36724853515625 C 28.271764755249023 443.5215148925781 27.529094696044922 444.2294616699219 17.41151237487793 442.5149841308594 C 16.458492279052734 440.6537170410156 18.056982040405273 439.2092590332031 17.410484313964844 437.7183532714844 C 36.31269073486328 427.0593566894531 51.81231689453125 428.4739685058594 66.57749938964844 427.39190673828125" stroke-width="0.0" fill="url(#shape_41_fill)"/>
    <path d="M 277.0009765625 381.0894775390625 C 284.704345703125 381.175537109375 298.3990783691406 380.7821960449219 311.3172302246094 385.900634765625 C 296.7494812011719 394.41015625 299.2933654785156 401.1250305175781 294.5531311035156 405.25091552734375 C 291.7725830078125 400.1092224121094 268.10699462890625 407.4112243652344 258.3180236816406 410.1156005859375 C 239.267333984375 418.7987060546875 232.2869873046875 413.32708740234375 231.4020233154297 384.1868591308594 C 259.78985595703125 378.49017333984375 266.3581237792969 382.3064880371094 277.0009765625 381.0894775390625" stroke-width="0.0" fill="url(#shape_42_fill)"/>
    <path d="M 222.70960998535156 208.94898986816406 C 224.21522521972656 206.3202362060547 238.5459442138672 206.1556854248047 238.87002563476562 210.0243682861328 C 242.68045043945312 221.7292938232422 244.12704467773438 244.6023712158203 255.94308471679688 270.2784729003906 C 252.15065002441406 276.17279052734375 243.3654022216797 273.4677734375 208.07313537597656 272.4046325683594 C 208.9541473388672 265.9283142089844 205.4811553955078 250.198486328125 216.20816040039062 247.62242126464844 C 219.18350219726562 246.4535369873047 218.46640014648438 226.42796325683594 222.70960998535156 208.94898986816406" stroke-width="0.0" fill="url(#shape_43_fill)"/>
    <path d="M 483.3247985839844 396.3919677734375 C 486.6377868652344 399.69622802734375 485.9653625488281 401.0575866699219 483.39947509765625 400.7715759277344 C 469.77587890625 407.476806640625 451.1646423339844 406.91650390625 450.2890625 407.5156555175781 C 448.3251647949219 404.43572998046875 451.7607116699219 396.2085876464844 453.6943664550781 396.53424072265625 C 466.6719055175781 393.4093017578125 471.9132385253906 392.2197265625 483.3247985839844 396.3919677734375" stroke-width="0.0" fill="url(#shape_44_fill)"/>
    <path d="M 45.821224212646484 408.13336181640625 C 45.30739974975586 408.1148986816406 35.877655029296875 412.5347900390625 32.16426086425781 412.5694580078125 C 32.220245361328125 414.28814697265625 31.83568000793457 415.7098388671875 27.97842025756836 414.9348449707031 C 26.897197723388672 416.2874755859375 23.90909767150879 417.0387268066406 19.8931884765625 420.1616516113281 C 19.431142807006836 420.2825622558594 0.24390865862369537 417.3673095703125 -0.6622907519340515 420.5212707519531 C 1.892251968383789 419.4012756347656 -1.139657735824585 411.1902770996094 1.036976933479309 410.1764221191406 C 5.873191833496094 409.7046203613281 45.46397018432617 406.2757263183594 45.821224212646484 408.13336181640625" stroke-width="0.0" fill="url(#shape_45_fill)"/>
    <path d="M 452.4451599121094 173.7521209716797 C 453.80419921875 174.9571533203125 464.645263671875 198.48263549804688 467.2601013183594 199.84300231933594 C 462.6191101074219 209.20294189453125 451.17559814453125 209.1344757080078 449.4493103027344 206.47802734375 C 448.3026428222656 203.269287109375 448.9563293457031 198.32395935058594 448.8520812988281 195.29684448242188 C 447.96636962890625 194.57237243652344 447.58453369140625 192.04641723632812 448.5238342285156 187.99024963378906 C 450.9761047363281 186.6431427001953 450.3070373535156 182.63438415527344 452.4451599121094 173.7521209716797" stroke-width="0.0" fill="url(#shape_46_fill)"/>
    <path d="M 372.1640930175781 183.27134704589844 C 379.3088684082031 198.50498962402344 380.5277404785156 202.7202606201172 371.44769287109375 205.8166046142578 C 365.8671875 206.83432006835938 364.772216796875 204.77285766601562 361.6290283203125 206.11366271972656 C 339.60076904296875 212.31787109375 335.2127990722656 200.95252990722656 353.39208984375 189.37539672851562 C 356.70477294921875 184.98748779296875 358.37908935546875 184.36752319335938 368.2115478515625 185.4490509033203 C 369.0531921386719 182.7994842529297 371.4100036621094 182.9321746826172 372.1640930175781 183.27134704589844" stroke-width="0.0" fill="url(#shape_47_fill)"/>
    <path d="M 473.0487060546875 264.4803161621094 C 473.89215087890625 268.5909729003906 481.019287109375 271.5045471191406 483.9659423828125 283.52545166015625 C 466.7377624511719 288.0733947753906 445.38262939453125 286.8249816894531 443.77117919921875 284.9122619628906 C 439.34283447265625 282.1175231933594 440.0020446777344 276.9651184082031 441.0057678222656 276.3055114746094 C 449.0502624511719 266.5644226074219 456.3525085449219 261.64727783203125 473.0487060546875 264.4803161621094" stroke-width="0.0" fill="url(#shape_48_fill)"/>
    <path d="M 176.63134765625 116.63027954101562 C 178.10232543945312 115.58271789550781 181.7117462158203 116.1615982055664 182.6779327392578 117.28218078613281 C 184.6278076171875 120.08356475830078 183.92825317382812 121.75740051269531 184.72213745117188 123.44734191894531 C 179.48143005371094 128.45974731445312 185.5616455078125 136.9834747314453 183.15589904785156 139.5054168701172 C 181.70584106445312 146.45639038085938 172.8335418701172 146.3100128173828 172.48426818847656 146.8898468017578 C 172.79344177246094 126.99578857421875 171.13140869140625 124.47268676757812 176.63134765625 116.63027954101562" stroke-width="0.0" fill="url(#shape_49_fill)"/>
    <path d="M 333.8262634277344 426.49432373046875 C 335.359375 430.3101501464844 342.1415710449219 428.8919372558594 343.66748046875 431.54559326171875 C 346.3775329589844 435.56744384765625 345.158447265625 437.21112060546875 342.28948974609375 437.4960021972656 C 342.5218505859375 447.3898620605469 325.5554504394531 448.7864074707031 323.5860595703125 445.5401306152344 C 321.5572814941406 436.1708068847656 321.5848388671875 432.6791076660156 305.3901672363281 430.5203857421875 C 318.0412292480469 425.0953063964844 327.2713623046875 430.80889892578125 333.8262634277344 426.49432373046875" stroke-width="0.0" fill="url(#shape_50_fill)"/>
    <path d="M 319.6861877441406 388.56512451171875 C 311.72491455078125 395.6795349121094 293.0780029296875 395.6651916503906 291.5215148925781 399.0482177734375 C 279.1022644042969 397.63543701171875 277.8616638183594 399.0165100097656 271.2601318359375 402.27880859375 C 271.26300048828125 401.5964660644531 270.0489196777344 398.8966369628906 271.76080322265625 397.50799560546875 C 270.3982849121094 395.5812683105469 273.557373046875 388.6183166503906 280.0502624511719 388.4585266113281 C 284.4117431640625 386.7920227050781 288.5260925292969 390.85284423828125 319.6861877441406 388.56512451171875" stroke-width="0.0" fill="url(#shape_51_fill)"/>
    <path d="M 269.02374267578125 186.47483825683594 C 277.6288757324219 194.82427978515625 276.95770263671875 207.77767944335938 280.35809326171875 217.3905792236328 C 271.6004333496094 210.4359130859375 269.5384216308594 208.5161895751953 260.1124267578125 217.23684692382812 C 257.76739501953125 208.73416137695312 263.01104736328125 195.176025390625 267.963134765625 195.6844024658203 C 269.6192321777344 194.12965393066406 268.85797119140625 191.57608032226562 269.02374267578125 186.47483825683594" stroke-width="0.0" fill="url(#shape_52_fill)"/>
    <path d="M 218.52496337890625 409.3688049316406 C 215.88311767578125 410.8944091796875 215.77745056152344 413.34417724609375 214.30050659179688 415.1768798828125 C 214.5491180419922 423.57147216796875 195.03314208984375 425.1192626953125 187.7098388671875 415.5965576171875 C 186.3611297607422 404.0124816894531 208.9353790283203 398.9201354980469 218.52496337890625 409.3688049316406" stroke-width="0.0" fill="url(#shape_53_fill)"/>
    <path d="M 206.0214385986328 424.6209716796875 C 205.44688415527344 425.2210693359375 206.1522216796875 428.2991027832031 204.54998779296875 428.8730773925781 C 194.50694274902344 429.4903869628906 178.82748413085938 429.98724365234375 178.10565185546875 432.6958312988281 C 176.95069885253906 430.9410705566406 178.5430908203125 425.9421081542969 177.19021606445312 423.864013671875 C 187.2432861328125 418.678955078125 192.33860778808594 423.24163818359375 206.0214385986328 424.6209716796875" stroke-width="0.0" fill="url(#shape_54_fill)"/>
    <path d="M 268.3514709472656 247.86875915527344 C 275.19805908203125 245.26222229003906 276.795654296875 248.01162719726562 279.16668701171875 249.3385009765625 C 281.1407165527344 251.00155639648438 280.7427062988281 252.14418029785156 294.3109130859375 271.8218994140625 C 263.4888916015625 258.1430358886719 262.8797912597656 257.48297119140625 249.21676635742188 268.107421875 C 254.82525634765625 248.17633056640625 255.9248809814453 247.2577362060547 258.7087707519531 245.25587463378906 C 261.0343933105469 240.1211700439453 263.55767822265625 239.2378387451172 268.3514709472656 247.86875915527344" stroke-width="0.0" fill="url(#shape_55_fill)"/>
    <path d="M 288.6039123535156 336.0251770019531 C 285.9306640625 362.6051940917969 286.8070068359375 363.2528076171875 285.4237060546875 368.02587890625 C 285.5846252441406 369.2232360839844 286.1103820800781 371.76251220703125 285.5188293457031 381.4554748535156 C 270.7521057128906 379.4051818847656 257.18157958984375 380.9315185546875 234.0456085205078 383.2184753417969 C 229.77622985839844 382.6658935546875 229.11744689941406 371.51495361328125 235.06146240234375 345.1558837890625 C 236.59307861328125 336.729736328125 241.8172607421875 334.32159423828125 288.6039123535156 336.0251770019531" stroke-width="0.0" fill="url(#shape_56_fill)"/>
    <path d="M 408.0728454589844 271.9415588378906 C 413.28643798828125 270.5638122558594 417.81103515625 275.59393310546875 425.4954528808594 282.143310546875 C 416.4911193847656 283.192626953125 412.3815002441406 275.8503723144531 374.3086853027344 274.229736328125 C 375.86956787109375 263.49578857421875 383.7926940917969 263.6846008300781 408.0728454589844 271.9415588378906" stroke-width="0.0" fill="url(#shape_57_fill)"/>
    <path d="M 632.116943359375 352.48223876953125 C 632.981689453125 354.72576904296875 661.5267333984375 355.12579345703125 668.496337890625 355.4339294433594 C 668.4366455078125 358.0839538574219 662.9986572265625 360.1808166503906 660.1834716796875 356.6555480957031 C 644.6045532226562 356.4938659667969 636.3192138671875 358.83953857421875 631.7156372070312 359.5628356933594 C 627.9176025390625 357.2449035644531 629.564697265625 353.6927795410156 632.116943359375 352.48223876953125" stroke-width="0.0" fill="url(#shape_58_fill)"/>
    <path d="M 341.3818359375 384.6539001464844 C 342.8389892578125 390.09185791015625 358.1533203125 391.60687255859375 359.164794921875 394.5751037597656 C 356.6378173828125 398.5449523925781 339.7782287597656 401.2710876464844 338.27191162109375 399.56976318359375 C 335.1358642578125 399.63592529296875 333.0547180175781 398.79058837890625 331.8274841308594 396.5372619628906 C 331.9933776855469 394.93994140625 330.7412109375 393.4737243652344 332.24725341796875 390.5739440917969 C 332.7229309082031 384.85125732421875 335.4314270019531 383.79742431640625 341.3818359375 384.6539001464844" stroke-width="0.0" fill="url(#shape_59_fill)"/>
    <path d="M 458.379150390625 364.1239318847656 C 461.625244140625 363.4300537109375 474.9947509765625 371.5479431152344 473.24029541015625 374.5827941894531 C 471.81427001953125 376.2465515136719 470.33636474609375 376.8336181640625 463.7223205566406 375.8365173339844 C 458.95697021484375 376.6296691894531 456.86358642578125 377.1556396484375 452.6191101074219 370.65142822265625 C 453.441650390625 370.1693115234375 459.3836975097656 368.9503173828125 458.379150390625 364.1239318847656" stroke-width="0.0" fill="url(#shape_60_fill)"/>
    <path d="M 428.19989013671875 432.3048095703125 C 439.9847717285156 434.2286682128906 442.3889465332031 436.71221923828125 442.1149597167969 438.60662841796875 C 440.26580810546875 440.7408142089844 427.5036926269531 439.3206787109375 425.7151794433594 442.0062561035156 C 422.5379333496094 437.8834228515625 423.89495849609375 434.69512939453125 410.4974670410156 425.3683166503906 C 427.61199951171875 428.2188415527344 428.95050048828125 431.62945556640625 428.19989013671875 432.3048095703125" stroke-width="0.0" fill="url(#shape_61_fill)"/>
    <path d="M 185.39402770996094 411.4523620605469 C 186.23733520507812 413.8905029296875 185.05099487304688 414.82061767578125 186.8350372314453 417.7328186035156 C 184.8773956298828 420.2294921875 183.3809356689453 419.4871520996094 182.53662109375 419.7925109863281 C 180.8340606689453 421.6573486328125 174.4717254638672 420.1288757324219 171.753173828125 419.97772216796875 C 169.60691833496094 417.5736999511719 169.78811645507812 415.62371826171875 175.2847442626953 412.1446228027344 C 176.7212371826172 413.6389465332031 180.24891662597656 410.4783935546875 185.39402770996094 411.4523620605469" stroke-width="0.0" fill="url(#shape_62_fill)"/>
    <path d="M 331.85223388671875 418.8966064453125 C 334.2456970214844 425.62799072265625 329.856689453125 427.83856201171875 327.21466064453125 425.4997253417969 C 324.48095703125 427.72998046875 322.953857421875 426.6802673339844 321.7054138183594 427.32818603515625 C 318.9823303222656 425.9573059082031 320.05841064453125 419.9468994140625 317.6512145996094 418.5220642089844 C 318.9674072265625 420.3149719238281 325.7276306152344 418.5371398925781 331.85223388671875 418.8966064453125" stroke-width="0.0" fill="url(#shape_63_fill)"/>
    <path d="M 55.618675231933594 274.3638000488281 C 56.690738677978516 269.4682312011719 64.39983367919922 270.7932434082031 63.16245651245117 278.82666015625 C 59.75339889526367 278.6659851074219 54.34260559082031 272.32275390625 48.767799377441406 276.3626708984375 C 51.37354278564453 273.8085632324219 52.8568000793457 273.360107421875 55.618675231933594 274.3638000488281" stroke-width="0.0" fill="url(#shape_64_fill)"/>
    <path d="M 304.7056884765625 440.2256164550781 C 304.5767822265625 437.83807373046875 306.47796630859375 436.89898681640625 313.218017578125 437.7497253417969 C 314.3547058105469 439.66778564453125 312.8402099609375 441.0509033203125 310.8103332519531 441.3083190917969 C 307.8583984375 445.16632080078125 306.44952392578125 444.1977844238281 305.2161560058594 443.8102111816406 C 302.56964111328125 441.70904541015625 303.355712890625 440.37286376953125 304.7056884765625 440.2256164550781" stroke-width="0.0" fill="url(#shape_65_fill)"/>
    <path d="M -0.5781119465827942 -0.42745867371559143 C 224.7391815185547 -0.13925541937351227 444.1669006347656 0.3085673153400421 672.4124145507812 0.22769437730312347 C 673.3628540039062 155.8621063232422 674.7659301757812 296.0151672363281 673.7564697265625 445.47161865234375 C 450.0791015625 446.3191833496094 230.07882690429688 446.312255859375 0.4253889322280884 445.494384765625 C 0.17834419012069702 297.267578125 -0.21697720885276794 149.51419067382812 -0.5781119465827942 -0.42745867371559143" stroke-width="0.0" fill="url(#shape_66_fill)"/>
    <path d="M -1.1356909275054932 -0.22840331494808197 C 222.8292694091797 -0.13530440628528595 442.9099426269531 0.39610224962234497 672.3367309570312 -0.250654399394989 C 673.3881225585938 156.91534423828125 674.8245849609375 295.6164245605469 673.397705078125 445.3920593261719 C 450.3941955566406 446.38153076171875 230.16281127929688 446.3458251953125 0.43675094842910767 445.4309997558594 C 0.024227214977145195 297.63116455078125 -0.3015078008174896 149.1884307861328 -1.1356909275054932 -0.22840331494808197" stroke-width="0.0" fill="url(#shape_67_fill)"/>
    <path d="M -0.7390504479408264 -0.2774331569671631 C 223.47467041015625 -0.1893514096736908 441.63067626953125 0.5267670154571533 672.5394287109375 -0.32714027166366577 C 673.4935302734375 156.0700225830078 674.8240356445312 295.4112854003906 673.386474609375 445.3912658691406 C 450.3904113769531 446.3827209472656 230.2116241455078 446.3442077636719 1.0902200937271118 445.4061584472656 C 0.4694667160511017 295.76629638671875 0.053312622010707855 148.59304809570312 -0.7390504479408264 -0.2774331569671631" stroke-width="0.0" fill="url(#shape_68_fill)"/>
  </g>
</svg>
