<?xml version="1.0" ?>
<svg xmlns="http://www.w3.org/2000/svg" version="1.1" width="674" height="446">
  <defs>
    <radialGradient id="shape_0_fill" cx="0.5312466041270633" cy="0.7393023572160524" r="0.2823671969178876">
      <stop offset="0.7111965" stop-color="rgb(158, 167, 0)" stop-opacity="0.8367708921432495"/>
      <stop offset="1.0" stop-color="rgb(48, 41, 0)" stop-opacity="0.9818191528320312"/>
    </radialGradient>
    <radialGradient id="shape_1_fill" cx="0.5327329097940235" cy="0.7434257883662065" r="0.2066944246829794">
      <stop offset="0.35619462" stop-color="rgb(65, 57, 75)" stop-opacity="0.7354356646537781"/>
      <stop offset="0.9927769" stop-color="rgb(35, 6, 0)" stop-opacity="0.6027743816375732"/>
    </radialGradient>
    <radialGradient id="shape_2_fill" cx="0.09792273546892387" cy="0.7376672719091578" r="0.22062588021026522">
      <stop offset="0.0046170224" stop-color="rgb(49, 111, 189)" stop-opacity="0.8594677448272705"/>
      <stop offset="0.99261886" stop-color="rgb(2, 87, 255)" stop-opacity="0.8952798247337341"/>
    </radialGradient>
    <radialGradient id="shape_3_fill" cx="0.27845587574763536" cy="0.2149634596478244" r="0.1321310388582043">
      <stop offset="0.40570363" stop-color="rgb(127, 172, 0)" stop-opacity="0.7682552337646484"/>
      <stop offset="1.0" stop-color="rgb(35, 30, 0)" stop-opacity="0.9268627166748047"/>
    </radialGradient>
    <radialGradient id="shape_4_fill" cx="0.1543026706231454" cy="0.9977578475336323" r="0.10288926755639141">
      <stop offset="0.0" stop-color="rgb(81, 79, 86)" stop-opacity="1.0"/>
      <stop offset="1.0" stop-color="rgb(49, 38, 64)" stop-opacity="0.8506420850753784"/>
    </radialGradient>
    <radialGradient id="shape_5_fill" cx="0.14807964290992442" cy="0.23997249517740155" r="0.11810664960821587">
      <stop offset="0.0" stop-color="rgb(255, 255, 255)" stop-opacity="0.6465655565261841"/>
      <stop offset="0.5626593" stop-color="rgb(255, 255, 255)" stop-opacity="0.5105662941932678"/>
    </radialGradient>
    <radialGradient id="shape_6_fill" cx="0.18397626112759644" cy="0.9977578475336323" r="0.0754974885934892">
      <stop offset="0.0" stop-color="rgb(93, 90, 94)" stop-opacity="1.0"/>
      <stop offset="1.0" stop-color="rgb(148, 127, 133)" stop-opacity="0.8683732151985168"/>
    </radialGradient>
    <radialGradient id="shape_7_fill" cx="0.2893175074183976" cy="0.05829596412556054" r="0.08666390552011372">
      <stop offset="0.0" stop-color="rgb(55, 66, 29)" stop-opacity="1.0"/>
      <stop offset="1.0" stop-color="rgb(120, 129, 56)" stop-opacity="0.5746421813964844"/>
    </radialGradient>
    <radialGradient id="shape_8_fill" cx="0.3382789091115889" cy="0.9439461883408071" r="0.06756690277190167">
      <stop offset="0.0" stop-color="rgb(91, 124, 45)" stop-opacity="1.0"/>
      <stop offset="1.0" stop-color="rgb(80, 134, 0)" stop-opacity="0.5458094477653503"/>
    </radialGradient>
    <radialGradient id="shape_9_fill" cx="0.30712166172106825" cy="0.9977578475336323" r="0.0730758406641929">
      <stop offset="0.0" stop-color="rgb(38, 48, 20)" stop-opacity="1.0"/>
      <stop offset="1.0" stop-color="rgb(34, 27, 52)" stop-opacity="1.0"/>
    </radialGradient>
    <radialGradient id="shape_10_fill" cx="0.3056379821958457" cy="0.9977578475336323" r="0.06792919147615971">
      <stop offset="0.0" stop-color="rgb(39, 49, 21)" stop-opacity="1.0"/>
      <stop offset="1.0" stop-color="rgb(32, 6, 0)" stop-opacity="0.6467069983482361"/>
    </radialGradient>
    <radialGradient id="shape_11_fill" cx="0.21810089020771514" cy="0.968609865470852" r="0.06792919147615971">
      <stop offset="0.0" stop-color="rgb(138, 135, 129)" stop-opacity="1.0"/>
      <stop offset="1.0" stop-color="rgb(116, 68, 43)" stop-opacity="0.40615323185920715"/>
    </radialGradient>
    <radialGradient id="shape_12_fill" cx="0.29080118694362017" cy="0.9977578475336323" r="0.07480746985189285">
      <stop offset="0.0" stop-color="rgb(22, 25, 13)" stop-opacity="1.0"/>
      <stop offset="1.0" stop-color="rgb(38, 30, 15)" stop-opacity="1.0"/>
    </radialGradient>
    <radialGradient id="shape_13_fill" cx="0.327893175074184" cy="0.8923766816143498" r="0.06900465877544279">
      <stop offset="0.0" stop-color="rgb(89, 117, 50)" stop-opacity="1.0"/>
      <stop offset="1.0" stop-color="rgb(92, 120, 9)" stop-opacity="0.6418349742889404"/>
    </radialGradient>
    <radialGradient id="shape_14_fill" cx="0.142433234421365" cy="0.9977578475336323" r="0.06617211022079875">
      <stop offset="0.0" stop-color="rgb(155, 150, 153)" stop-opacity="1.0"/>
      <stop offset="1.0" stop-color="rgb(255, 143, 140)" stop-opacity="0.22673813998699188"/>
    </radialGradient>
    <radialGradient id="shape_15_fill" cx="0.31008902077151335" cy="0.9977578475336323" r="0.06683642786405207">
      <stop offset="0.0" stop-color="rgb(43, 55, 23)" stop-opacity="1.0"/>
      <stop offset="1.0" stop-color="rgb(61, 65, 22)" stop-opacity="0.8725022673606873"/>
    </radialGradient>
    <radialGradient id="shape_16_fill" cx="0.27299703264094954" cy="0.9977578475336323" r="0.08110449363640579">
      <stop offset="0.0" stop-color="rgb(31, 35, 19)" stop-opacity="1.0"/>
      <stop offset="1.0" stop-color="rgb(30, 23, 0)" stop-opacity="0.9413470029830933"/>
    </radialGradient>
    <radialGradient id="shape_17_fill" cx="0.2893175074183976" cy="0.9977578475336323" r="0.07513486030193747">
      <stop offset="0.0" stop-color="rgb(22, 23, 13)" stop-opacity="1.0"/>
      <stop offset="1.0" stop-color="rgb(25, 19, 0)" stop-opacity="0.8526878952980042"/>
    </radialGradient>
    <radialGradient id="shape_18_fill" cx="0.3293768545994065" cy="0.7556053811659192" r="0.06617211022079875">
      <stop offset="0.0" stop-color="rgb(83, 108, 65)" stop-opacity="1.0"/>
      <stop offset="1.0" stop-color="rgb(105, 121, 58)" stop-opacity="0.9647531509399414"/>
    </radialGradient>
    <radialGradient id="shape_19_fill" cx="0.3516320474777448" cy="0.9977578475336323" r="0.06617211022079875">
      <stop offset="0.0" stop-color="rgb(95, 135, 39)" stop-opacity="1.0"/>
      <stop offset="1.0" stop-color="rgb(128, 184, 0)" stop-opacity="0.6346572041511536"/>
    </radialGradient>
    <radialGradient id="shape_20_fill" cx="0.0830860534124629" cy="0.9977578475336323" r="0.06792919147615971">
      <stop offset="0.0" stop-color="rgb(49, 52, 66)" stop-opacity="1.0"/>
      <stop offset="1.0" stop-color="rgb(45, 29, 66)" stop-opacity="0.45226821303367615"/>
    </radialGradient>
    <radialGradient id="shape_21_fill" cx="0.29821958456973297" cy="0.9977578475336323" r="0.06792919147615971">
      <stop offset="0.0" stop-color="rgb(33, 40, 17)" stop-opacity="1.0"/>
      <stop offset="1.0" stop-color="rgb(49, 62, 0)" stop-opacity="0.7145980000495911"/>
    </radialGradient>
    <radialGradient id="shape_22_fill" cx="0.3563326600751113" cy="0.44372438849889645" r="0.06594546966099951">
      <stop offset="0.52384716" stop-color="rgb(111, 136, 42)" stop-opacity="1.0"/>
      <stop offset="0.38891584" stop-color="rgb(146, 172, 41)" stop-opacity="0.9112557768821716"/>
    </radialGradient>
    <radialGradient id="shape_23_fill" cx="0.6454005934718101" cy="0.1412556053811659" r="0.06617211022079875">
      <stop offset="0.0" stop-color="rgb(46, 38, 13)" stop-opacity="1.0"/>
      <stop offset="1.0" stop-color="rgb(54, 28, 0)" stop-opacity="0.8867810964584351"/>
    </radialGradient>
    <radialGradient id="shape_24_fill" cx="0.2492550586734398" cy="0.4843076355254169" r="0.06616971047059012">
      <stop offset="0.0" stop-color="rgb(205, 213, 206)" stop-opacity="1.0"/>
      <stop offset="0.92454517" stop-color="rgb(255, 255, 255)" stop-opacity="0.3267301619052887"/>
    </radialGradient>
    <radialGradient id="shape_25_fill" cx="0.6320474777448071" cy="0.9977578475336323" r="0.06617211022079875">
      <stop offset="0.0" stop-color="rgb(35, 28, 8)" stop-opacity="1.0"/>
      <stop offset="1.0" stop-color="rgb(39, 14, 0)" stop-opacity="0.7796698808670044"/>
    </radialGradient>
    <radialGradient id="shape_26_fill" cx="0.15414520399506793" cy="0.3207086811151205" r="0.06604698362265567">
      <stop offset="0.11989566" stop-color="rgb(198, 211, 155)" stop-opacity="1.0"/>
      <stop offset="0.58338004" stop-color="rgb(167, 144, 110)" stop-opacity="0.35702043771743774"/>
    </radialGradient>
    <radialGradient id="shape_27_fill" cx="0.15410647972401242" cy="0.3208032787648017" r="0.06604505929465818">
      <stop offset="0.0" stop-color="rgb(192, 205, 0)" stop-opacity="1.0"/>
      <stop offset="0.49375948" stop-color="rgb(41, 34, 21)" stop-opacity="0.45109623670578003"/>
    </radialGradient>
    <radialGradient id="shape_28_fill" cx="0.03383257551787515" cy="0.015200130608049743" r="0.0727061036786269">
      <stop offset="0.097915344" stop-color="rgb(8, 19, 112)" stop-opacity="0.936089038848877"/>
      <stop offset="0.81528705" stop-color="rgb(8, 17, 147)" stop-opacity="0.7155873775482178"/>
    </radialGradient>
    <radialGradient id="shape_29_fill" cx="0.33976258863681147" cy="0.6659192825112108" r="0.06617211022079875">
      <stop offset="0.0" stop-color="rgb(90, 117, 55)" stop-opacity="1.0"/>
      <stop offset="1.0" stop-color="rgb(107, 130, 29)" stop-opacity="0.8683280348777771"/>
    </radialGradient>
    <radialGradient id="shape_30_fill" cx="0.038820926088961365" cy="0.01598911648908538" r="0.06952529703474186">
      <stop offset="0.17668322" stop-color="rgb(50, 70, 76)" stop-opacity="1.0"/>
      <stop offset="0.9324032" stop-color="rgb(65, 64, 0)" stop-opacity="0.490665465593338"/>
    </radialGradient>
    <radialGradient id="shape_31_fill" cx="0.12314540059347182" cy="0.9977578475336323" r="0.06617211022079875">
      <stop offset="0.0" stop-color="rgb(95, 103, 98)" stop-opacity="1.0"/>
      <stop offset="1.0" stop-color="rgb(136, 118, 109)" stop-opacity="0.7321773767471313"/>
    </radialGradient>
    <radialGradient id="shape_32_fill" cx="0.4035608308605341" cy="0.984304932735426" r="0.06617211022079875">
      <stop offset="0.0" stop-color="rgb(126, 155, 63)" stop-opacity="1.0"/>
      <stop offset="1.0" stop-color="rgb(90, 62, 7)" stop-opacity="0.5335947275161743"/>
    </radialGradient>
    <radialGradient id="shape_33_fill" cx="0.3249258160237389" cy="0.6053811659192825" r="0.06617211022079875">
      <stop offset="1.5749225e-05" stop-color="rgb(93, 124, 71)" stop-opacity="0.999808132648468"/>
      <stop offset="1.0" stop-color="rgb(124, 139, 58)" stop-opacity="1.0"/>
    </radialGradient>
    <radialGradient id="shape_34_fill" cx="0.6468842729970327" cy="0.531390134529148" r="0.06617211022079875">
      <stop offset="0.0" stop-color="rgb(54, 47, 24)" stop-opacity="1.0"/>
      <stop offset="1.0" stop-color="rgb(44, 6, 34)" stop-opacity="0.37554535269737244"/>
    </radialGradient>
    <radialGradient id="shape_35_fill" cx="0.15084675865286534" cy="0.23781987690604856" r="0.06666259312841942">
      <stop offset="0.12103741" stop-color="rgb(210, 255, 96)" stop-opacity="0.13621786236763"/>
      <stop offset="0.52851486" stop-color="rgb(104, 69, 66)" stop-opacity="0.8661308884620667"/>
    </radialGradient>
    <radialGradient id="shape_36_fill" cx="0.2878338278931751" cy="0.9977578475336323" r="0.06617211022079875">
      <stop offset="0.0" stop-color="rgb(80, 96, 53)" stop-opacity="1.0"/>
      <stop offset="1.0" stop-color="rgb(21, 15, 0)" stop-opacity="0.7795290946960449"/>
    </radialGradient>
    <radialGradient id="shape_37_fill" cx="0.129080118694362" cy="0.9977578475336323" r="0.06617211022079875">
      <stop offset="0.0" stop-color="rgb(87, 97, 81)" stop-opacity="1.0"/>
      <stop offset="1.0" stop-color="rgb(62, 63, 57)" stop-opacity="0.5999762415885925"/>
    </radialGradient>
    <radialGradient id="shape_38_fill" cx="0.33892324204260943" cy="0.5607740119968294" r="0.0666785763703751">
      <stop offset="0.7501433" stop-color="rgb(86, 107, 29)" stop-opacity="0.9269371628761292"/>
      <stop offset="0.6022492" stop-color="rgb(164, 245, 78)" stop-opacity="0.8704795837402344"/>
    </radialGradient>
    <radialGradient id="shape_39_fill" cx="0.40059347181008903" cy="0.9641255605381166" r="0.06617211022079875">
      <stop offset="0.0" stop-color="rgb(138, 168, 60)" stop-opacity="1.0"/>
      <stop offset="1.0" stop-color="rgb(222, 255, 85)" stop-opacity="0.8236311674118042"/>
    </radialGradient>
    <radialGradient id="shape_40_fill" cx="0.6103346284136221" cy="0.8745880126953125" r="0.07230874126672038">
      <stop offset="0.3659605" stop-color="rgb(161, 143, 173)" stop-opacity="0.26490938663482666"/>
      <stop offset="0.5286891" stop-color="rgb(2, 6, 58)" stop-opacity="0.7752969861030579"/>
    </radialGradient>
    <radialGradient id="shape_41_fill" cx="0.6454005934718101" cy="0.08744394618834081" r="0.06617211022079875">
      <stop offset="0.0" stop-color="rgb(58, 48, 21)" stop-opacity="1.0"/>
      <stop offset="1.0" stop-color="rgb(92, 60, 24)" stop-opacity="1.0"/>
    </radialGradient>
    <radialGradient id="shape_42_fill" cx="0.5845697329376854" cy="0.6188340807174888" r="0.06617211022079875">
      <stop offset="0.0" stop-color="rgb(62, 59, 56)" stop-opacity="1.0"/>
      <stop offset="1.0" stop-color="rgb(44, 35, 79)" stop-opacity="0.6496512293815613"/>
    </radialGradient>
    <radialGradient id="shape_43_fill" cx="0.35435340949265115" cy="0.5017257485154498" r="0.07024636537455664">
      <stop offset="0.24428715" stop-color="rgb(120, 149, 53)" stop-opacity="0.9209343194961548"/>
      <stop offset="0.6167514" stop-color="rgb(201, 251, 22)" stop-opacity="0.7263707518577576"/>
    </radialGradient>
    <radialGradient id="shape_44_fill" cx="0.5934718100890207" cy="0.9977578475336323" r="0.06617211022079875">
      <stop offset="0.0" stop-color="rgb(89, 61, 18)" stop-opacity="1.0"/>
      <stop offset="1.0" stop-color="rgb(164, 76, 6)" stop-opacity="0.6862614154815674"/>
    </radialGradient>
    <radialGradient id="shape_45_fill" cx="0.612759643916914" cy="0.04035874439461883" r="0.06617211022079875">
      <stop offset="0.0" stop-color="rgb(157, 136, 123)" stop-opacity="1.0"/>
      <stop offset="1.0" stop-color="rgb(255, 215, 203)" stop-opacity="1.0"/>
    </radialGradient>
    <radialGradient id="shape_46_fill" cx="0.28635014836795253" cy="0.9977578475336323" r="0.06617211022079875">
      <stop offset="0.0" stop-color="rgb(82, 99, 55)" stop-opacity="1.0"/>
      <stop offset="1.0" stop-color="rgb(90, 93, 31)" stop-opacity="0.5650935769081116"/>
    </radialGradient>
    <radialGradient id="shape_47_fill" cx="0.28635014836795253" cy="0.8183856502242153" r="0.06617211022079875">
      <stop offset="0.0" stop-color="rgb(166, 189, 197)" stop-opacity="1.0"/>
      <stop offset="1.0" stop-color="rgb(242, 255, 255)" stop-opacity="0.44374221563339233"/>
    </radialGradient>
    <radialGradient id="shape_48_fill" cx="0.40801186943620177" cy="0.9977578475336323" r="0.06617211022079875">
      <stop offset="0.0" stop-color="rgb(107, 135, 68)" stop-opacity="1.0"/>
      <stop offset="1.0" stop-color="rgb(126, 134, 56)" stop-opacity="1.0"/>
    </radialGradient>
    <radialGradient id="shape_49_fill" cx="0.19287833827893175" cy="0.3991031390134529" r="0.06617211022079875">
      <stop offset="0.0" stop-color="rgb(92, 100, 54)" stop-opacity="1.0"/>
      <stop offset="1.0" stop-color="rgb(51, 19, 0)" stop-opacity="0.5058401226997375"/>
    </radialGradient>
    <radialGradient id="shape_50_fill" cx="0.6439169139465876" cy="0.7376681614349776" r="0.06617211022079875">
      <stop offset="0.0" stop-color="rgb(65, 56, 25)" stop-opacity="1.0"/>
      <stop offset="1.0" stop-color="rgb(147, 167, 85)" stop-opacity="0.3464958071708679"/>
    </radialGradient>
    <radialGradient id="shape_51_fill" cx="0.5845697329376854" cy="0.6322869955156951" r="0.06617211022079875">
      <stop offset="0.0" stop-color="rgb(75, 68, 60)" stop-opacity="1.0"/>
      <stop offset="1.0" stop-color="rgb(188, 137, 109)" stop-opacity="0.4470979571342468"/>
    </radialGradient>
    <radialGradient id="shape_52_fill" cx="0.2997032640949555" cy="0.6031390134529148" r="0.06617211022079875">
      <stop offset="0.0" stop-color="rgb(107, 158, 118)" stop-opacity="1.0"/>
      <stop offset="1.0" stop-color="rgb(171, 255, 210)" stop-opacity="0.5720460414886475"/>
    </radialGradient>
    <radialGradient id="shape_53_fill" cx="0.6097922848664689" cy="0.45067264573991034" r="0.06617211022079875">
      <stop offset="0.0" stop-color="rgb(38, 39, 27)" stop-opacity="1.0"/>
      <stop offset="1.0" stop-color="rgb(16, 6, 65)" stop-opacity="0.32785871624946594"/>
    </radialGradient>
    <radialGradient id="shape_54_fill" cx="0.6335311572700296" cy="0.426009002822397" r="0.06617211022079875">
      <stop offset="0.0" stop-color="rgb(67, 49, 20)" stop-opacity="1.0"/>
      <stop offset="1.0" stop-color="rgb(177, 91, 37)" stop-opacity="0.43940120935440063"/>
    </radialGradient>
    <radialGradient id="shape_55_fill" cx="0.3707168533823257" cy="0.5988430827187851" r="0.066001377049115">
      <stop offset="0.43605936" stop-color="rgb(244, 255, 56)" stop-opacity="0.8432864546775818"/>
      <stop offset="0.16089156" stop-color="rgb(233, 255, 31)" stop-opacity="0.7731578946113586"/>
    </radialGradient>
    <radialGradient id="shape_56_fill" cx="0.5489614243323442" cy="0.600896860986547" r="0.06617211022079875">
      <stop offset="0.0" stop-color="rgb(50, 62, 80)" stop-opacity="1.0"/>
      <stop offset="1.0" stop-color="rgb(34, 90, 255)" stop-opacity="0.4404200613498688"/>
    </radialGradient>
    <radialGradient id="shape_57_fill" cx="0.4094955489614243" cy="0.9035874439461884" r="0.06617211022079875">
      <stop offset="0.0" stop-color="rgb(111, 144, 47)" stop-opacity="1.0"/>
      <stop offset="1.0" stop-color="rgb(213, 255, 64)" stop-opacity="0.7688760161399841"/>
    </radialGradient>
    <radialGradient id="shape_58_fill" cx="0.5281899109792285" cy="0.9977578475336323" r="0.06617211022079875">
      <stop offset="0.0" stop-color="rgb(50, 43, 14)" stop-opacity="1.0"/>
      <stop offset="1.0" stop-color="rgb(85, 58, 17)" stop-opacity="1.0"/>
    </radialGradient>
    <radialGradient id="shape_59_fill" cx="0.5845697329376854" cy="0.7690582959641256" r="0.06617211022079875">
      <stop offset="0.0" stop-color="rgb(61, 63, 58)" stop-opacity="1.0"/>
      <stop offset="1.0" stop-color="rgb(79, 69, 90)" stop-opacity="0.7109559774398804"/>
    </radialGradient>
    <radialGradient id="shape_60_fill" cx="0.5489614243323442" cy="0.9977578475336323" r="0.06617211022079875">
      <stop offset="0.0" stop-color="rgb(140, 131, 64)" stop-opacity="1.0"/>
      <stop offset="1.0" stop-color="rgb(229, 195, 92)" stop-opacity="0.8732814788818359"/>
    </radialGradient>
    <radialGradient id="shape_61_fill" cx="0.6469716601272719" cy="0.96866973740103" r="0.06610439651443979">
      <stop offset="0.463088" stop-color="rgb(243, 188, 62)" stop-opacity="0.93818598985672"/>
      <stop offset="0.21278743" stop-color="rgb(150, 72, 76)" stop-opacity="0.43974870443344116"/>
    </radialGradient>
    <radialGradient id="shape_62_fill" cx="0.615727002967359" cy="0.3991031390134529" r="0.06617211022079875">
      <stop offset="0.0" stop-color="rgb(55, 47, 13)" stop-opacity="1.0"/>
      <stop offset="1.0" stop-color="rgb(82, 52, 6)" stop-opacity="0.8737485408782959"/>
    </radialGradient>
    <radialGradient id="shape_63_fill" cx="0.6261127596439169" cy="0.7286995515695067" r="0.06617211022079875">
      <stop offset="0.0" stop-color="rgb(79, 66, 32)" stop-opacity="1.0"/>
      <stop offset="1.0" stop-color="rgb(199, 188, 93)" stop-opacity="0.5060102939605713"/>
    </radialGradient>
    <radialGradient id="shape_64_fill" cx="0.40801186943620177" cy="0.12556053811659193" r="0.06617211022079875">
      <stop offset="0.0" stop-color="rgb(76, 66, 59)" stop-opacity="1.0"/>
      <stop offset="1.0" stop-color="rgb(155, 120, 122)" stop-opacity="1.0"/>
    </radialGradient>
    <radialGradient id="shape_65_fill" cx="0.6528189910979229" cy="0.6883408071748879" r="0.06617211022079875">
      <stop offset="0.0" stop-color="rgb(121, 97, 39)" stop-opacity="1.0"/>
      <stop offset="1.0" stop-color="rgb(255, 219, 93)" stop-opacity="1.0"/>
    </radialGradient>
    <radialGradient id="shape_66_fill" cx="0.6521818800566812" cy="0.457737088738001" r="0.07074360606932145">
      <stop offset="0.25771368" stop-color="rgb(183, 213, 116)" stop-opacity="0.29559326171875"/>
      <stop offset="0.7629462" stop-color="rgb(0, 16, 0)" stop-opacity="0.05302347615361214"/>
    </radialGradient>
    <radialGradient id="shape_67_fill" cx="0.5977992388897905" cy="0.9948484822773612" r="0.07088326700363386">
      <stop offset="0.8369258" stop-color="rgb(50, 27, 0)" stop-opacity="0.624133288860321"/>
      <stop offset="1.0" stop-color="rgb(0, 25, 0)" stop-opacity="0.15286360681056976"/>
    </radialGradient>
    <radialGradient id="shape_68_fill" cx="0.4924810845349592" cy="0.997885255001051" r="0.06860231574989568">
      <stop offset="0.39303845" stop-color="rgb(42, 13, 0)" stop-opacity="0.4354129135608673"/>
      <stop offset="1.0" stop-color="rgb(28, 64, 52)" stop-opacity="0.1791948825120926"/>
    </radialGradient>
  </defs>
  <g>
    <path d="M 0.016332946717739105 271.34619140625 C 16.397541046142578 255.99172973632812 47.14424514770508 258.1044616699219 46.760337829589844 271.0089416503906 C 48.284912109375 272.935546875 49.32722473144531 276.181884765625 57.16069030761719 274.63922119140625 C 57.57755661010742 273.8996276855469 62.034603118896484 273.4334411621094 62.50665283203125 269.0234680175781 C 68.32891082763672 267.8338928222656 100.51495361328125 269.12646484375 116.71541595458984 269.4534606933594 C 119.39393615722656 271.6883544921875 125.08921813964844 278.2626953125 126.56681823730469 282.3443298339844 C 134.74266052246094 282.8043212890625 147.54541015625 280.662353515625 174.39646911621094 290.6435852050781 C 185.31997680664062 283.1260681152344 186.0373992919922 281.38897705078125 206.74798583984375 287.14691162109375 C 200.57919311523438 286.9106750488281 198.3792724609375 280.9244689941406 211.03211975097656 267.86334228515625 C 249.94224548339844 265.0818176269531 293.9361572265625 262.8282470703125 311.47650146484375 272.6120910644531 C 348.96160888671875 274.0498962402344 424.6206359863281 274.70538330078125 480.1764831542969 263.3846740722656 C 511.8426513671875 258.2034912109375 548.82421875 259.2669982910156 548.4070434570312 273.9136962890625 C 547.0589599609375 273.8382263183594 547.1357421875 262.6003723144531 578.4102172851562 262.68353271484375 C 597.35009765625 267.0228271484375 612.2282104492188 279.1455993652344 612.464111328125 279.9470520019531 C 612.0960083007812 265.6653747558594 624.1298828125 265.37518310546875 673.416259765625 265.719482421875 C 676.77783203125 272.28900146484375 679.37158203125 278.8263854980469 678.4677124023438 284.9035339355469 C 676.6203002929688 339.5303649902344 674.7125244140625 391.48675537109375 675.1177368164062 446.4668273925781 C 451.9151306152344 446.6697692871094 228.9889373779297 446.8115539550781 -0.4355661869049072 446.4240417480469 C -0.5168178081512451 389.140869140625 -0.7331266403198242 332.2760009765625 0.016332946717739105 271.34619140625" stroke-width="0.0" fill="url(#shape_0_fill)"/>
    <path d="M -0.2844875156879425 271.0406188964844 C 35.93415069580078 275.3903503417969 36.5576057434082 274.58306884765625 44.01200866699219 273.2131652832031 C 44.67554473876953 265.9788818359375 58.35926818847656 265.7089538574219 80.9661865234375 266.4853515625 C 113.72601318359375 278.67987060546875 114.08514404296875 279.3109130859375 128.31405639648438 279.1481018066406 C 127.69468688964844 269.9100646972656 135.35581970214844 269.30523681640625 144.85287475585938 269.5906066894531 C 185.24903869628906 268.7891540527344 186.10963439941406 268.8909606933594 205.74490356445312 271.8686828613281 C 203.6849365234375 292.1523742675781 204.40493774414062 292.320556640625 208.7354736328125 298.9112243652344 C 213.72930908203125 298.17486572265625 268.0492858886719 298.643310546875 292.60333251953125 301.1536865234375 C 305.826416015625 306.8657531738281 441.2749328613281 303.93023681640625 460.0306701660156 304.5804138183594 C 474.2917785644531 292.99017333984375 492.7879943847656 292.9748840332031 504.53704833984375 286.9159240722656 C 516.111328125 289.37841796875 521.2693481445312 286.8592834472656 523.243896484375 286.61297607421875 C 527.3847045898438 285.7583923339844 531.6908569335938 286.01800537109375 534.07861328125 287.2425231933594 C 538.8218994140625 287.5572204589844 540.3612670898438 288.8852233886719 540.464111328125 310.65789794921875 C 579.6593017578125 292.0234375 581.6340942382812 292.5668640136719 601.4319458007812 299.01641845703125 C 620.218505859375 289.3849182128906 629.5293579101562 288.1994934082031 634.450927734375 288.49774169921875 C 636.13720703125 274.1001281738281 653.5401611328125 276.1226806640625 673.6730346679688 293.9839782714844 C 674.444580078125 339.80682373046875 674.5158081054688 392.06378173828125 674.1581420898438 446.2807922363281 C 451.4774169921875 446.3905334472656 229.19664001464844 446.25439453125 -0.30765825510025024 446.2476501464844 C -0.21107140183448792 389.403564453125 -0.30971628427505493 333.0142822265625 -0.2844875156879425 271.0406188964844" stroke-width="0.0" fill="url(#shape_1_fill)"/>
    <path d="M -0.019932541996240616 -0.25989267230033875 C 219.69313049316406 0.1040392518043518 439.478759765625 -0.45242562890052795 674.4217529296875 -0.039969440549612045 C 665.8267211914062 10.646013259887695 644.8588256835938 34.75621032714844 637.23486328125 49.624332427978516 C 634.3815307617188 53.022727966308594 611.96337890625 91.8007583618164 583.9278564453125 83.81824493408203 C 577.0491943359375 81.2538833618164 564.4345703125 72.11392211914062 532.4088745117188 74.30181884765625 C 531.8697509765625 79.37129974365234 527.906982421875 80.30870819091797 522.0758666992188 72.02783966064453 C 522.696044921875 68.93673706054688 499.32696533203125 63.91688919067383 498.961669921875 62.5898551940918 C 493.2571105957031 62.265682220458984 486.1685791015625 61.099517822265625 484.3583679199219 68.82869720458984 C 475.26544189453125 72.87734985351562 476.30010986328125 76.10882568359375 476.65924072265625 81.04454040527344 C 483.25518798828125 100.5372085571289 480.30657958984375 120.11746978759766 480.5647277832031 122.9775619506836 C 460.3158264160156 116.81465911865234 459.2682189941406 114.92835998535156 450.942626953125 108.51075744628906 C 435.37042236328125 107.46746826171875 411.77313232421875 101.63412475585938 409.3199157714844 105.52902221679688 C 412.9744567871094 121.87832641601562 419.53717041015625 129.00108337402344 413.3800354003906 139.4148712158203 C 410.9162292480469 152.74423217773438 394.5789489746094 152.23785400390625 394.5834655761719 135.48574829101562 C 383.0162658691406 140.0274200439453 381.7155456542969 158.2568817138672 370.39630126953125 157.77655029296875 C 366.171630859375 156.6622772216797 363.20294189453125 158.53224182128906 354.18560791015625 158.48121643066406 C 348.2458801269531 163.6883544921875 345.619140625 165.39170837402344 347.66326904296875 171.45254516601562 C 343.5735168457031 177.23907470703125 341.6950988769531 176.04124450683594 351.048095703125 160.1781463623047 C 293.114013671875 155.81385803222656 292.4796142578125 162.24192810058594 291.05731201171875 171.5214385986328 C 306.1683654785156 185.56832885742188 304.1296691894531 189.31619262695312 307.5044860839844 201.4019317626953 C 307.5494689941406 200.61183166503906 306.3855895996094 198.1387176513672 304.8201599121094 190.15687561035156 C 304.08502197265625 185.7029571533203 302.7763977050781 184.49639892578125 291.1925964355469 171.14584350585938 C 289.8678894042969 194.55531311035156 288.9844055175781 195.96128845214844 289.3761291503906 196.3016815185547 C 289.3289489746094 189.9113006591797 291.6750793457031 181.72064208984375 290.5785827636719 166.22555541992188 C 270.42803955078125 168.97837829589844 265.953857421875 175.8446044921875 261.97344970703125 173.35728454589844 C 256.3783264160156 184.13345336914062 255.9278106689453 189.40089416503906 254.72689819335938 197.09124755859375 C 260.6453552246094 199.2582244873047 260.4786376953125 199.88819885253906 258.0274353027344 199.59954833984375 C 257.0791015625 198.5901641845703 253.9604034423828 196.5028839111328 255.43826293945312 193.83961486816406 C 255.7566375732422 181.4261932373047 262.377197265625 179.70303344726562 263.2602844238281 161.934814453125 C 262.1072692871094 157.748046875 215.70729064941406 143.60191345214844 212.32008361816406 142.48756408691406 C 187.21243286132812 134.8897705078125 195.4280242919922 106.24950408935547 191.24635314941406 86.32719421386719 C 190.8265838623047 84.62498474121094 162.8026580810547 74.40653228759766 128.66212463378906 57.816368103027344 C 100.34700012207031 38.75018310546875 76.14901733398438 58.85573959350586 47.23959732055664 57.37519454956055 C 29.87105941772461 70.43317413330078 1.6764196157455444 69.89856719970703 -0.8921962380409241 69.44438934326172 C 0.34183040261268616 43.958133697509766 -0.3314551115036011 22.56187629699707 -0.019932541996240616 -0.25989267230033875" stroke-width="0.0" fill="url(#shape_2_fill)"/>
    <path d="M 87.2393798828125 58.05537414550781 C 88.88467407226562 68.8188705444336 91.71444702148438 68.98741149902344 93.81587219238281 71.97000122070312 C 89.9153060913086 80.0558853149414 93.06875610351562 81.72381591796875 89.01854705810547 94.2119140625 C 95.79486846923828 85.8310775756836 98.14497375488281 86.49921417236328 102.85957336425781 87.85409545898438 C 105.09963989257812 75.13160705566406 105.60258483886719 73.24905395507812 108.17910766601562 73.6116943359375 C 112.73316955566406 86.79887390136719 109.74920654296875 92.21686553955078 117.55571746826172 98.6759033203125 C 115.89984893798828 100.0346450805664 116.91468048095703 109.48976135253906 115.4395751953125 115.0843505859375 C 120.83326721191406 115.31861114501953 128.12257385253906 116.27204132080078 129.78623962402344 112.03601837158203 C 131.1298370361328 111.13141632080078 136.94793701171875 109.66357421875 136.80494689941406 105.03235626220703 C 136.6956787109375 103.70852661132812 135.5989227294922 101.9137954711914 138.05032348632812 99.94245910644531 C 136.55908203125 93.28614807128906 137.60667419433594 92.93782806396484 137.76077270507812 89.95691680908203 C 137.34934997558594 85.51482391357422 138.53921508789062 85.0602035522461 140.19021606445312 89.13397216796875 C 140.78884887695312 83.35414123535156 146.7500762939453 80.18607330322266 148.5348663330078 79.78165435791016 C 148.16375732421875 93.29029846191406 149.62728881835938 94.55343627929688 152.5128936767578 99.63870239257812 C 153.9784393310547 102.58272552490234 149.85433959960938 106.84099578857422 148.88287353515625 106.77877807617188 C 152.3186798095703 109.44701385498047 150.01199340820312 113.93101501464844 148.19183349609375 113.19499206542969 C 154.15370178222656 112.93358612060547 158.18214416503906 122.59518432617188 157.01214599609375 123.38953399658203 C 160.8427734375 124.80917358398438 164.76332092285156 123.42498779296875 169.71742248535156 122.83501434326172 C 174.39862060546875 119.73526000976562 175.78956604003906 121.50846862792969 177.61387634277344 122.46990966796875 C 179.3119659423828 122.73041534423828 180.1101837158203 124.9582290649414 183.68519592285156 127.19758605957031 C 183.93153381347656 130.0327606201172 182.6920928955078 132.72996520996094 185.8943328857422 134.40757751464844 C 188.87364196777344 135.46482849121094 190.07969665527344 137.34373474121094 187.50665283203125 143.8522186279297 C 197.5264892578125 148.7535400390625 208.913330078125 153.48695373535156 201.5879364013672 172.63246154785156 C 205.64263916015625 177.137939453125 206.4236602783203 179.42352294921875 205.30332946777344 181.66551208496094 C 213.93417358398438 180.88360595703125 215.02830505371094 193.0956268310547 212.74668884277344 201.09486389160156 C 204.3937530517578 205.8516845703125 202.88702392578125 206.10897827148438 203.4941864013672 210.10702514648438 C 200.40821838378906 210.39964294433594 200.38955688476562 211.83480834960938 198.8234405517578 212.96255493164062 C 196.4900665283203 215.50448608398438 192.84243774414062 215.258544921875 192.17816162109375 219.65155029296875 C 184.2959747314453 220.58779907226562 183.65887451171875 224.77459716796875 178.1990966796875 230.13267517089844 C 176.42417907714844 233.40699768066406 181.6620635986328 237.8223419189453 181.40159606933594 238.33290100097656 C 181.76385498046875 251.88970947265625 185.6496124267578 260.78179931640625 179.8326416015625 264.17205810546875 C 169.12786865234375 270.20709228515625 148.58863830566406 267.5594787597656 136.2152099609375 269.6036376953125 C 131.45265197753906 268.82666015625 128.9685821533203 272.2771911621094 122.85372161865234 275.475830078125 C 109.1628189086914 276.6084289550781 73.34748077392578 275.87939453125 72.9857177734375 270.12945556640625 C 47.760231018066406 266.80181884765625 56.600128173828125 268.5914306640625 58.27387237548828 273.3499755859375 C 48.738929748535156 276.6556396484375 1.0627851486206055 272.67779541015625 0.7646930813789368 269.9007873535156 C -6.528834342956543 226.02516174316406 -4.7200117111206055 168.13665771484375 1.9827626943588257 122.28264617919922 C 10.442015647888184 117.73821258544922 21.304798126220703 113.97005462646484 26.38207244873047 121.84098815917969 C 27.5082950592041 130.15476989746094 35.839256286621094 129.0417938232422 42.1201057434082 131.93673706054688 C 46.13455581665039 130.3491668701172 47.3952522277832 131.37210083007812 49.653316497802734 142.24014282226562 C 50.73735809326172 149.47467041015625 61.0213623046875 148.5258331298828 62.693572998046875 146.29383850097656 C 62.14720153808594 136.9882354736328 63.18461990356445 134.1331787109375 62.061492919921875 128.26535034179688 C 68.18910217285156 126.58245086669922 67.66284942626953 124.38809967041016 66.35294342041016 112.71045684814453 C 68.76651763916016 111.15457916259766 67.98210144042969 103.74730682373047 75.38799285888672 100.81674194335938 C 74.9200439453125 100.4935073852539 77.72052764892578 89.871337890625 77.37933349609375 85.94380950927734 C 77.28852844238281 82.99176025390625 77.47356414794922 75.25148010253906 85.24092864990234 75.3516616821289 C 83.15910339355469 70.26695251464844 82.66985321044922 67.5508804321289 87.2393798828125 58.05537414550781" stroke-width="0.0" fill="url(#shape_3_fill)"/>
    <path d="M 673.9655151367188 -0.5313414335250854 C 676.1181030273438 47.8248176574707 675.0172119140625 95.90823364257812 682.0587158203125 136.4113311767578 C 679.0780029296875 119.4049072265625 673.5042114257812 119.85369873046875 662.1278686523438 120.07207489013672 C 660.1553344726562 119.52701568603516 654.6116333007812 109.59977722167969 650.2698974609375 110.95808410644531 C 648.986328125 112.55326843261719 645.0831909179688 150.345458984375 642.9261474609375 155.68006896972656 C 629.8945922851562 154.86221313476562 627.1488647460938 142.68466186523438 626.9720458984375 138.47889709472656 C 623.0234375 137.45767211914062 619.2396240234375 145.4389190673828 615.41259765625 144.47946166992188 C 611.6814575195312 142.30941772460938 610.1646728515625 143.31483459472656 607.8045654296875 141.01222229003906 C 608.9039306640625 136.9584197998047 613.7233276367188 132.34947204589844 603.4268798828125 113.7164535522461 C 599.4268188476562 135.7255401611328 597.8077392578125 139.59481811523438 593.2373046875 142.55601501464844 C 599.0650634765625 145.8779754638672 598.361083984375 151.44430541992188 597.4615478515625 152.697021484375 C 587.6378784179688 157.57662963867188 588.5029907226562 164.7090301513672 578.1572875976562 172.61572265625 C 572.3202514648438 170.181884765625 569.66357421875 157.80307006835938 568.5964965820312 157.0538787841797 C 565.1774291992188 158.36337280273438 563.5588989257812 154.3745574951172 561.9556884765625 148.36427307128906 C 560.0543212890625 151.11643981933594 556.7371215820312 151.18869018554688 555.478515625 155.467529296875 C 552.3814697265625 155.8807373046875 550.804931640625 158.01336669921875 548.902587890625 158.32891845703125 C 547.8856201171875 154.86282348632812 544.77734375 154.9034423828125 535.9237670898438 152.69358825683594 C 531.7871704101562 154.9099578857422 529.9324951171875 159.48550415039062 523.1453857421875 156.9629364013672 C 519.2501831054688 160.5250244140625 520.3290405273438 162.1517333984375 522.8428344726562 168.94430541992188 C 517.6307373046875 168.49989318847656 517.3228149414062 171.07931518554688 516.2455444335938 171.61643981933594 C 511.2713623046875 173.32232666015625 509.8157043457031 175.26531982421875 505.646240234375 174.399169921875 C 502.73553466796875 171.41624450683594 503.0657043457031 169.50433349609375 502.9762878417969 159.31204223632812 C 489.3637390136719 143.48800659179688 504.0846862792969 118.78478240966797 515.7582397460938 125.22373962402344 C 524.2991943359375 125.62615203857422 542.5679931640625 108.9111557006836 548.7938232421875 112.8864517211914 C 557.1484985351562 110.7378921508789 557.042724609375 109.40670776367188 558.513427734375 108.96582794189453 C 559.550537109375 107.30718994140625 564.7382202148438 103.34661865234375 570.0685424804688 105.062255859375 C 574.6690063476562 102.43062591552734 573.5861206054688 97.72539520263672 579.039794921875 93.86729431152344 C 588.4891357421875 87.98196411132812 591.1302490234375 78.10636901855469 612.4111938476562 78.4961929321289 C 616.9063720703125 73.60488891601562 644.3425903320312 51.27885437011719 645.9671020507812 35.34598159790039 C 644.8761596679688 32.39312744140625 647.964111328125 30.37391471862793 647.4483032226562 29.454790115356445 C 646.8837280273438 28.282394409179688 664.1317749023438 -4.283568382263184 673.9655151367188 -0.5313414335250854" stroke-width="0.0" fill="url(#shape_4_fill)"/>
    <path d="M 151.47915649414062 68.64681243896484 C 152.30494689941406 69.0871353149414 186.18984985351562 84.877197265625 192.68299865722656 91.59715270996094 C 179.5210723876953 118.11009216308594 217.82313537597656 149.9397735595703 221.24232482910156 154.5578155517578 C 240.2749786376953 168.3796844482422 242.15968322753906 183.7337188720703 240.64561462402344 193.85955810546875 C 237.9893798828125 193.20822143554688 236.0867462158203 186.8091583251953 236.77261352539062 184.06593322753906 C 235.68899536132812 183.52244567871094 234.15402221679688 184.3141326904297 231.04978942871094 182.6671600341797 C 231.91612243652344 184.5330352783203 232.1811065673828 192.9918975830078 228.65771484375 195.66847229003906 C 227.6436767578125 196.6387481689453 227.6984405517578 205.25941467285156 221.0986785888672 207.64468383789062 C 215.0816650390625 206.57518005371094 214.2779083251953 197.8688507080078 214.57188415527344 195.0170440673828 C 212.95460510253906 185.44895935058594 211.89259338378906 184.95895385742188 206.59231567382812 177.4016571044922 C 205.78785705566406 172.67913818359375 206.21531677246094 168.2544708251953 204.2225799560547 159.48948669433594 C 205.6629638671875 153.85182189941406 194.89187622070312 144.60768127441406 193.58599853515625 141.06590270996094 C 189.24679565429688 139.86874389648438 189.11666870117188 136.05935668945312 186.66226196289062 135.91099548339844 C 177.5777130126953 134.12677001953125 178.4290313720703 127.66584014892578 183.48118591308594 117.19042205810547 C 179.39102172851562 116.40631103515625 177.40115356445312 117.66910552978516 172.94595336914062 117.75148010253906 C 178.95091247558594 128.0666961669922 177.30422973632812 131.1811065673828 152.30357360839844 130.2911376953125 C 148.8805694580078 129.3076934814453 152.31097412109375 102.6135025024414 154.39895629882812 92.51094055175781 C 152.54513549804688 91.89596557617188 153.22311401367188 88.10018157958984 150.3734588623047 76.23072052001953 C 147.94287109375 75.88933563232422 147.96754455566406 69.18600463867188 151.47915649414062 68.64681243896484" stroke-width="0.0" fill="url(#shape_5_fill)"/>
    <path d="M 614.6309814453125 79.06822967529297 C 618.7476196289062 83.88185119628906 620.4264526367188 86.93942260742188 632.6746215820312 86.20442199707031 C 635.9874877929688 86.27671813964844 636.9597778320312 88.72689819335938 641.1539306640625 89.25305938720703 C 642.187744140625 86.6872329711914 665.2401733398438 92.51219177246094 675.0267333984375 98.18080139160156 C 675.4066162109375 110.61923217773438 674.7958984375 125.90557098388672 674.7162475585938 151.76113891601562 C 665.6996459960938 142.7669677734375 662.6564331054688 136.7560577392578 660.381591796875 132.10546875 C 660.338623046875 123.73365783691406 660.8826293945312 117.9562759399414 653.8360595703125 112.3091812133789 C 642.626220703125 113.80738067626953 643.7850341796875 142.2318115234375 642.9884643554688 142.86097717285156 C 644.367919921875 144.4141082763672 642.3876342773438 148.16470336914062 644.5521240234375 149.92481994628906 C 640.1349487304688 151.01800537109375 637.9308471679688 152.7512664794922 634.6881713867188 153.33804321289062 C 631.8042602539062 146.1215362548828 629.170654296875 141.39727783203125 630.0274047851562 140.55715942382812 C 628.6544799804688 137.13133239746094 622.2691040039062 136.43862915039062 621.2044677734375 139.08908081054688 C 618.7155151367188 140.70065307617188 619.270751953125 142.51231384277344 618.4091796875 149.50917053222656 C 613.434326171875 144.76690673828125 613.063232421875 143.23265075683594 609.3681640625 143.69232177734375 C 608.455322265625 140.4072723388672 609.5126953125 139.24082946777344 608.7276000976562 137.3947296142578 C 606.29736328125 132.75238037109375 604.5086059570312 127.37041473388672 600.8138427734375 127.7618408203125 C 606.2020874023438 133.7787628173828 595.5237426757812 148.3355712890625 592.5282592773438 152.603271484375 C 590.497802734375 163.7477569580078 588.8054809570312 163.8778076171875 585.9879760742188 169.0794677734375 C 584.535888671875 167.56031799316406 584.1563720703125 167.23703002929688 589.3455200195312 153.5782928466797 C 593.3551025390625 141.28761291503906 590.0447998046875 139.65847778320312 574.8931884765625 130.17909240722656 C 573.8977661132812 157.7294158935547 557.4716186523438 157.42575073242188 555.9639282226562 151.11288452148438 C 555.7908325195312 152.8637237548828 553.063232421875 154.6955108642578 553.0034790039062 157.87132263183594 C 551.4842529296875 161.323486328125 548.1132202148438 161.09893798828125 547.348876953125 159.33685302734375 C 544.3618774414062 156.43638610839844 542.7783813476562 153.63079833984375 538.5941772460938 155.97711181640625 C 536.193359375 158.53366088867188 530.9483032226562 157.8990936279297 529.166259765625 158.18783569335938 C 526.661376953125 159.57199096679688 526.87060546875 163.49722290039062 525.6264038085938 166.84585571289062 C 524.7111206054688 169.58050537109375 523.63623046875 171.6099090576172 519.0430908203125 173.06198120117188 C 514.40966796875 174.22021484375 502.6889343261719 173.27427673339844 481.3731384277344 159.79820251464844 C 478.1478271484375 136.3449249267578 500.3440856933594 119.9004898071289 514.2913818359375 118.31607055664062 C 528.1549072265625 127.6679458618164 541.68701171875 108.1635513305664 548.064697265625 111.65445709228516 C 556.5751342773438 111.21501922607422 563.6521606445312 112.04545593261719 564.2701416015625 107.08560180664062 C 564.6282958984375 104.4273452758789 566.4686889648438 103.40373229980469 569.8726196289062 104.76659393310547 C 572.6103515625 101.08392333984375 579.0254516601562 99.7251205444336 587.0892333984375 98.4991683959961 C 600.9241943359375 93.53221130371094 602.9389038085938 79.89788055419922 614.6309814453125 79.06822967529297" stroke-width="0.0" fill="url(#shape_6_fill)"/>
    <path d="M 0.4845617711544037 92.20323181152344 C 42.48099136352539 107.25682067871094 43.77168273925781 118.2389144897461 50.57524490356445 138.8527374267578 C 81.99649810791016 153.01202392578125 54.89024353027344 213.3629150390625 36.714229583740234 248.08106994628906 C 50.80925369262695 259.35870361328125 49.27570343017578 263.9927062988281 48.443580627441406 265.44696044921875 C 51.17532730102539 254.4247283935547 35.3931884765625 247.71861267089844 20.765274047851562 240.61062622070312 C 6.670384407043457 195.49923706054688 -11.771531105041504 177.6292266845703 0.4845617711544037 92.20323181152344" stroke-width="0.0" fill="url(#shape_7_fill)"/>
    <path d="M 384.5743713378906 197.15797424316406 C 424.8782958984375 188.60177612304688 426.97137451171875 189.06552124023438 429.7796325683594 204.30340576171875 C 477.2422180175781 188.10496520996094 498.7754211425781 202.34027099609375 491.1700439453125 229.4524688720703 C 490.96826171875 250.50039672851562 486.307373046875 251.52175903320312 484.9359436035156 252.49407958984375 C 486.42333984375 259.16156005859375 482.51690673828125 268.80291748046875 476.49700927734375 268.63592529296875 C 469.0434875488281 272.9308166503906 453.2210388183594 266.7112731933594 451.65277099609375 269.7243957519531 C 447.2052917480469 266.2961730957031 448.4371337890625 261.24493408203125 449.2239990234375 260.1797790527344 C 439.2877502441406 264.8860168457031 436.52960205078125 261.5279541015625 437.5646057128906 256.7209777832031 C 427.0389099121094 257.0177307128906 425.7115783691406 259.9689025878906 420.92010498046875 262.0428466796875 C 418.5040283203125 264.1886901855469 417.7768859863281 267.7725830078125 414.9783630371094 273.79071044921875 C 414.110595703125 271.4496765136719 392.2096252441406 269.78204345703125 392.51654052734375 264.26318359375 C 391.8123779296875 265.1841735839844 388.8144836425781 263.4767761230469 385.30621337890625 264.3233947753906 C 382.0913391113281 262.02105712890625 380.80255126953125 263.24908447265625 376.3968200683594 261.23919677734375 C 375.1367492675781 256.4314880371094 375.72686767578125 252.86688232421875 370.38116455078125 251.4705352783203 C 360.7342224121094 242.880126953125 374.00579833984375 194.48106384277344 378.48406982421875 177.02879333496094 C 385.04644775390625 171.68765258789062 394.3157958984375 176.8862762451172 384.5743713378906 197.15797424316406" stroke-width="0.0" fill="url(#shape_8_fill)"/>
    <path d="M 566.5160522460938 157.10137939453125 C 567.914794921875 158.99267578125 568.1220703125 166.62057495117188 569.3310546875 168.01686096191406 C 573.4931030273438 169.4959716796875 573.6176147460938 171.06369018554688 577.5358276367188 174.3983917236328 C 581.9307250976562 172.94601440429688 583.9710693359375 174.56983947753906 583.7080688476562 179.472412109375 C 575.3952026367188 180.4754180908203 572.2847290039062 225.61212158203125 577.537841796875 226.95822143554688 C 577.88623046875 230.02610778808594 581.6051025390625 236.2949676513672 577.0407104492188 242.37745666503906 C 569.0076293945312 238.61009216308594 566.9520263671875 237.19183349609375 558.6715698242188 247.26718139648438 C 552.9495239257812 249.1490478515625 499.48236083984375 255.29432678222656 485.357421875 251.01377868652344 C 486.77178955078125 250.4382781982422 488.53704833984375 241.3993377685547 497.84918212890625 231.5027313232422 C 486.1237487792969 226.98228454589844 483.087646484375 222.51007080078125 482.74237060546875 215.1896209716797 C 477.312744140625 210.14517211914062 479.8607177734375 205.95591735839844 482.8717346191406 206.19308471679688 C 480.7317199707031 205.2177734375 481.49517822265625 199.36973571777344 492.50787353515625 199.65972900390625 C 492.5514831542969 196.4213104248047 491.6497497558594 192.51087951660156 491.7613525390625 188.64956665039062 C 487.386474609375 174.38705444335938 487.8125 173.39991760253906 488.1371765136719 164.24520874023438 C 503.8848876953125 164.42591857910156 505.0622863769531 164.658447265625 512.3638305664062 160.2552032470703 C 522.2508544921875 169.51348876953125 524.3174438476562 167.44798278808594 526.0744018554688 167.35125732421875 C 523.8057861328125 162.2789764404297 531.1263427734375 157.33216857910156 533.1604614257812 158.96888732910156 C 537.4678955078125 161.99658203125 541.2648315429688 162.58596801757812 541.9901733398438 164.1791229248047 C 545.0884399414062 164.1632537841797 545.6239013671875 166.03501892089844 550.002197265625 166.9553680419922 C 549.0148315429688 165.587890625 550.0994873046875 157.92214965820312 554.9004516601562 158.17445373535156 C 557.8724975585938 161.08335876464844 563.0969848632812 157.99703979492188 566.5160522460938 157.10137939453125" stroke-width="0.0" fill="url(#shape_9_fill)"/>
    <path d="M 561.3389892578125 156.8474884033203 C 565.3168334960938 152.9774627685547 571.3217163085938 156.99044799804688 571.0609741210938 174.0968780517578 C 572.5543212890625 169.11183166503906 576.5426635742188 169.0618438720703 579.6381225585938 174.02235412597656 C 580.551513671875 178.1180419921875 578.916015625 187.3743438720703 580.1131591796875 190.97457885742188 C 571.3816528320312 196.18551635742188 572.0675659179688 229.968017578125 578.1228637695312 230.97470092773438 C 576.08349609375 231.16336059570312 575.6303100585938 236.8705596923828 572.1248779296875 237.96656799316406 C 560.6709594726562 235.78610229492188 567.090576171875 238.7145233154297 563.2854614257812 247.5788116455078 C 549.2898559570312 253.15316772460938 501.29437255859375 249.21498107910156 500.2065734863281 251.90292358398438 C 491.2486267089844 251.8350830078125 488.0691833496094 237.404541015625 499.0049743652344 231.75588989257812 C 486.6279296875 224.8933868408203 481.9790344238281 219.28883361816406 481.9188537597656 214.73960876464844 C 475.7835388183594 215.41314697265625 472.22320556640625 215.2209930419922 464.6297607421875 196.64285278320312 C 465.0308532714844 175.97560119628906 480.6502685546875 174.57594299316406 482.538330078125 195.39341735839844 C 489.6960144042969 197.8583526611328 494.864013671875 184.8999481201172 496.6139221191406 182.9652862548828 C 495.29351806640625 178.86746215820312 497.5860900878906 177.68836975097656 500.154296875 177.51625061035156 C 507.93701171875 179.1786651611328 516.5690307617188 181.76527404785156 521.0420532226562 174.166259765625 C 525.616943359375 173.51341247558594 528.4512329101562 159.6660614013672 529.7609252929688 154.52386474609375 C 538.2937622070312 155.85130310058594 539.9395141601562 156.63943481445312 537.01220703125 165.73484802246094 C 545.7501220703125 166.05198669433594 549.0638427734375 167.53323364257812 551.6719970703125 166.71395874023438 C 550.9733276367188 155.23968505859375 552.7620239257812 152.99208068847656 561.3389892578125 156.8474884033203" stroke-width="0.0" fill="url(#shape_10_fill)"/>
    <path d="M 443.5975036621094 108.77128601074219 C 452.18304443359375 114.07731628417969 453.92315673828125 115.57567596435547 463.17071533203125 107.04821014404297 C 467.1650390625 114.00019073486328 469.30218505859375 112.87915802001953 488.7710876464844 107.5441665649414 C 489.4440002441406 124.43119812011719 488.7544250488281 125.2635726928711 492.31329345703125 130.4873046875 C 493.3454895019531 132.20616149902344 493.4147644042969 135.48910522460938 496.73187255859375 136.1055145263672 C 494.1082763671875 136.0551300048828 492.80157470703125 138.7202911376953 490.3217468261719 142.09707641601562 C 483.8495788574219 139.03858947753906 482.6078186035156 141.60548400878906 481.170654296875 142.70291137695312 C 468.8316955566406 136.54656982421875 467.0641784667969 134.92965698242188 465.5210266113281 134.58262634277344 C 464.2507629394531 133.4593963623047 461.0126647949219 134.2708740234375 460.2487487792969 133.5944366455078 C 461.86846923828125 131.902099609375 480.92889404296875 141.2801513671875 500.381103515625 155.7512664794922 C 476.8873291015625 176.93609619140625 475.9868469238281 177.63963317871094 481.4352722167969 184.7731475830078 C 467.85162353515625 183.57423400878906 467.36407470703125 188.6156005859375 462.6127014160156 189.9412078857422 C 462.5197448730469 184.6068115234375 461.0347595214844 172.8653106689453 460.8992919921875 158.3559112548828 C 449.4002685546875 182.32656860351562 447.0592041015625 183.41842651367188 439.7854919433594 183.08413696289062 C 439.1023864746094 183.8177032470703 435.74310302734375 195.71484375 434.97320556640625 197.34584045410156 C 428.0115966796875 200.35147094726562 417.51947021484375 180.586181640625 417.6739196777344 179.82513427734375 C 416.9310607910156 180.06748962402344 399.0115966796875 181.0555877685547 398.1786804199219 174.8297882080078 C 394.1496276855469 172.6208038330078 389.7695007324219 176.95135498046875 379.4859924316406 174.58946228027344 C 382.5806884765625 157.69287109375 379.68310546875 152.11936950683594 392.28387451171875 138.7930450439453 C 398.5848388671875 138.80596923828125 399.9132385253906 130.3506622314453 403.05096435546875 119.79975891113281 C 406.4335632324219 98.98587799072266 424.0058288574219 101.4642333984375 443.5975036621094 108.77128601074219" stroke-width="0.0" fill="url(#shape_11_fill)"/>
    <path d="M 602.923828125 127.62895965576172 C 605.576416015625 130.49790954589844 605.30419921875 143.36166381835938 606.8895874023438 145.51637268066406 C 610.7550659179688 146.17735290527344 610.7892456054688 151.6332244873047 619.4134521484375 154.15916442871094 C 618.041015625 149.80274963378906 617.38916015625 141.85641479492188 622.961181640625 141.1103973388672 C 623.773681640625 137.3872833251953 625.3766479492188 137.31446838378906 627.1979370117188 140.32333374023438 C 627.0809326171875 142.22377014160156 628.865966796875 144.84494018554688 629.0489501953125 147.22804260253906 C 632.0768432617188 149.78944396972656 631.679931640625 151.25389099121094 635.7827758789062 153.73233032226562 C 642.2362060546875 154.13330078125 642.0040893554688 160.1365509033203 649.912109375 174.6925506591797 C 639.5895385742188 186.1730499267578 640.4140014648438 195.15347290039062 640.9317626953125 205.504150390625 C 662.427490234375 205.63519287109375 663.1693725585938 244.50328063964844 642.5582885742188 245.3394012451172 C 622.095947265625 247.94236755371094 611.1122436523438 248.83914184570312 579.1435546875 265.2258605957031 C 574.9818115234375 253.2541046142578 581.390625 229.58795166015625 572.758056640625 214.7216796875 C 568.0367431640625 208.70431518554688 571.402587890625 168.86912536621094 583.8905029296875 169.71775817871094 C 596.7680053710938 163.1445770263672 599.9132080078125 143.08950805664062 600.2184448242188 142.3184356689453 C 595.919677734375 139.9305419921875 596.094970703125 137.3272705078125 602.923828125 127.62895965576172" stroke-width="0.0" fill="url(#shape_12_fill)"/>
    <path d="M 412.320068359375 176.59092712402344 C 418.6852722167969 174.57696533203125 434.98211669921875 213.67977905273438 428.4754638671875 219.73851013183594 C 419.83984375 228.83139038085938 427.5668029785156 236.81065368652344 431.6797790527344 241.5147247314453 C 429.82177734375 260.6549072265625 417.4878845214844 272.2122802734375 411.4370422363281 267.6463317871094 C 407.1219482421875 264.6786193847656 401.7062683105469 272.0809631347656 391.6146545410156 268.4245300292969 C 385.6690673828125 264.9483642578125 382.61175537109375 266.0773620605469 378.5780029296875 265.6036682128906 C 373.4191589355469 266.364501953125 372.3603515625 262.2081604003906 374.3649597167969 258.25762939453125 C 376.15936279296875 256.2988586425781 374.61529541015625 254.7769317626953 375.0064697265625 253.87123107910156 C 370.84332275390625 255.8438720703125 368.8096618652344 251.8289794921875 368.0769958496094 252.18971252441406 C 360.54693603515625 248.0256805419922 366.5686340332031 229.41131591796875 367.138427734375 222.38272094726562 C 369.7713623046875 218.80111694335938 371.5326843261719 202.4462432861328 383.8435363769531 202.2616729736328 C 378.669189453125 193.4890594482422 379.71954345703125 191.70547485351562 389.95086669921875 191.65618896484375 C 390.71044921875 177.4029541015625 392.6568298339844 176.7642822265625 412.320068359375 176.59092712402344" stroke-width="0.0" fill="url(#shape_13_fill)"/>
    <path d="M 507.5017395019531 66.76850128173828 C 508.12109375 67.7039794921875 510.17041015625 75.34501647949219 513.6256713867188 89.34305572509766 C 531.7877197265625 79.5783462524414 535.8880615234375 79.7228012084961 537.5263671875 85.60179901123047 C 539.0301513671875 90.87739562988281 544.5359497070312 90.28357696533203 545.0235595703125 91.1774673461914 C 545.53662109375 92.74126434326172 556.1478881835938 96.89090728759766 559.5081787109375 95.58074188232422 C 563.3475952148438 97.59127044677734 567.3956909179688 97.25231170654297 568.3372192382812 98.02919006347656 C 563.8277587890625 106.76750946044922 558.6734619140625 116.44847869873047 538.0842895507812 108.90791320800781 C 540.388671875 112.13387298583984 540.1065673828125 115.37134552001953 534.6412963867188 118.41553497314453 C 527.2394409179688 120.11551666259766 519.5643920898438 124.57807922363281 515.5780029296875 118.56754302978516 C 512.5381469726562 121.8809814453125 501.82806396484375 125.94096374511719 500.6672668457031 127.2973861694336 C 498.1671447753906 129.77728271484375 494.2373962402344 129.3826141357422 489.9243469238281 126.37100982666016 C 489.1790771484375 116.73052215576172 468.8630065917969 118.2256851196289 468.1614990234375 117.39813232421875 C 463.5238037109375 117.84201049804688 462.9167785644531 116.64806365966797 461.975830078125 116.31680297851562 C 471.6904602050781 120.86553955078125 474.7915344238281 116.17570495605469 477.6549987792969 113.42195892333984 C 469.3683166503906 101.06761932373047 471.25518798828125 88.9334945678711 474.3724060058594 81.7655258178711 C 474.58636474609375 70.9325942993164 475.3389892578125 70.38497924804688 477.06170654296875 65.9693603515625 C 478.2818603515625 63.583614349365234 482.35595703125 63.65937423706055 483.98291015625 63.49711608886719 C 495.10107421875 63.18867492675781 504.0641174316406 61.5531005859375 507.5017395019531 66.76850128173828" stroke-width="0.0" fill="url(#shape_14_fill)"/>
    <path d="M 535.6336669921875 162.03750610351562 C 544.0369873046875 162.30947875976562 544.3409423828125 163.10374450683594 546.5208129882812 165.0518341064453 C 549.880126953125 167.48387145996094 549.688720703125 170.16038513183594 542.7183227539062 183.44873046875 C 544.7688598632812 192.24440002441406 535.5147094726562 229.61297607421875 537.1800537109375 232.35272216796875 C 541.4312744140625 239.1318359375 540.8487548828125 252.77597045898438 518.8401489257812 252.22633361816406 C 502.38140869140625 253.2983856201172 481.7279357910156 242.26858520507812 487.8385925292969 230.4417266845703 C 476.5103759765625 219.8098602294922 478.9028015136719 207.60739135742188 483.21759033203125 201.864990234375 C 486.462646484375 197.52243041992188 487.98211669921875 197.487060546875 488.7666015625 199.31878662109375 C 482.7886047363281 195.471923828125 488.7487487792969 184.70016479492188 487.35626220703125 174.0000457763672 C 487.66986083984375 167.35865783691406 489.5603332519531 166.40359497070312 491.0247497558594 166.99929809570312 C 505.46990966796875 178.92864990234375 511.32489013671875 184.16802978515625 522.7705078125 172.79908752441406 C 525.5728759765625 170.97439575195312 525.3155517578125 167.18011474609375 526.1171264648438 165.04373168945312 C 525.3939819335938 160.22332763671875 528.1094970703125 158.2049560546875 535.6336669921875 162.03750610351562" stroke-width="0.0" fill="url(#shape_15_fill)"/>
    <path d="M 651.54541015625 109.39329528808594 C 653.78759765625 110.61294555664062 664.1231079101562 121.45392608642578 659.8474731445312 132.6410369873047 C 664.0350341796875 136.11163330078125 664.5240478515625 143.8575897216797 673.2149658203125 147.8328857421875 C 677.2832641601562 179.03318786621094 673.8679809570312 210.83416748046875 676.208984375 267.1004943847656 C 675.106689453125 265.45947265625 635.8042602539062 272.96038818359375 631.0005493164062 264.0383605957031 C 636.1395263671875 244.862548828125 643.643310546875 124.07930755615234 651.54541015625 109.39329528808594" stroke-width="0.0" fill="url(#shape_16_fill)"/>
    <path d="M 601.449462890625 128.37599182128906 C 604.05712890625 128.26361083984375 605.48828125 131.69976806640625 606.3505859375 134.0290069580078 C 608.9182739257812 135.1717529296875 607.074951171875 141.50999450683594 609.1609497070312 143.9045867919922 C 628.8389892578125 143.30555725097656 632.5164794921875 216.24923706054688 632.8222045898438 271.9258117675781 C 579.3095092773438 276.7940979003906 574.4367065429688 268.46514892578125 580.1099243164062 242.34219360351562 C 559.0782470703125 226.08116149902344 598.7769165039062 156.46495056152344 601.449462890625 128.37599182128906" stroke-width="0.0" fill="url(#shape_17_fill)"/>
    <path d="M 320.3317565917969 186.12078857421875 C 321.4857482910156 186.3984375 321.6268005371094 189.23976135253906 321.3627624511719 199.9896697998047 C 331.4277648925781 193.6114044189453 332.21405029296875 193.39715576171875 336.7076416015625 196.2323455810547 C 345.37579345703125 198.41146850585938 346.4497375488281 197.20428466796875 357.08349609375 190.46823120117188 C 358.6903076171875 192.3209228515625 359.627197265625 194.40074157714844 356.24462890625 201.84225463867188 C 359.435546875 204.02731323242188 361.59332275390625 204.16494750976562 364.7994384765625 210.33724975585938 C 367.3133239746094 207.14532470703125 368.57672119140625 207.8621063232422 368.2517395019531 211.6062469482422 C 370.09283447265625 220.1116943359375 370.2973327636719 223.08978271484375 366.0980529785156 225.57659912109375 C 365.7828063964844 231.42709350585938 363.3421630859375 237.97579956054688 368.4205322265625 248.43124389648438 C 370.25238037109375 253.33798217773438 368.465576171875 255.89874267578125 358.02349853515625 254.57818603515625 C 354.8508605957031 255.8513946533203 324.3298645019531 254.92062377929688 322.5303039550781 255.41004943847656 C 313.25244140625 256.0078125 311.9358215332031 253.88589477539062 308.842529296875 245.4778289794922 C 303.7747497558594 229.05410766601562 320.96685791015625 195.61305236816406 320.3317565917969 186.12078857421875" stroke-width="0.0" fill="url(#shape_18_fill)"/>
    <path d="M 483.0479431152344 233.23548889160156 C 506.12164306640625 252.38038635253906 515.5899658203125 263.91107177734375 495.3293762207031 280.6673278808594 C 470.0511779785156 280.3668212890625 443.9394836425781 261.8240661621094 442.067626953125 262.1709289550781 C 438.7461242675781 260.5511779785156 437.0458679199219 258.4693603515625 432.5843200683594 258.2936096191406 C 429.75518798828125 258.5291442871094 428.4715881347656 256.7410583496094 430.010986328125 253.814697265625 C 433.26617431640625 237.21087646484375 423.369873046875 233.81350708007812 422.9632873535156 229.72607421875 C 423.06085205078125 227.15145874023438 421.07244873046875 226.66940307617188 420.2632141113281 225.08506774902344 C 427.3765869140625 219.7107696533203 429.456298828125 218.81361389160156 428.6346130371094 213.86627197265625 C 445.49371337890625 197.0360107421875 481.74261474609375 196.21044921875 483.0479431152344 233.23548889160156" stroke-width="0.0" fill="url(#shape_19_fill)"/>
    <path d="M 673.9383544921875 -2.960099458694458 C 675.0673828125 32.84956741333008 674.5833740234375 64.76375579833984 674.6596069335938 97.26593780517578 C 669.3395385742188 96.00420379638672 651.4490966796875 87.49564361572266 645.7350463867188 90.10062408447266 C 638.5814208984375 89.4827880859375 638.0986328125 86.062255859375 637.3350830078125 84.04273223876953 C 626.086669921875 84.20726013183594 620.8934326171875 93.48067474365234 608.0421752929688 86.4852523803711 C 609.7630615234375 74.74639892578125 612.1719970703125 73.63520050048828 614.481689453125 71.57058715820312 C 622.44677734375 68.7869644165039 648.795654296875 25.11793327331543 647.516357421875 20.600128173828125 C 655.4588012695312 9.147130012512207 656.5762939453125 2.2452645301818848 668.9696655273438 3.364100217819214 C 669.8291625976562 2.6940834522247314 670.0877075195312 1.0525020360946655 673.9383544921875 -2.960099458694458" stroke-width="0.0" fill="url(#shape_20_fill)"/>
    <path d="M 561.7314453125 156.1223602294922 C 569.8143310546875 156.54200744628906 570.2650756835938 161.10098266601562 572.115234375 165.96685791015625 C 581.6182861328125 168.3473358154297 571.5894775390625 230.49989318847656 578.2896728515625 240.55422973632812 C 579.58935546875 244.89047241210938 578.9296875 247.0530242919922 577.844482421875 270.93634033203125 C 535.9524536132812 270.16937255859375 532.1356201171875 267.4015197753906 537.8829956054688 248.460205078125 C 545.8078002929688 244.79034423828125 548.7530517578125 168.00350952148438 555.3815307617188 156.85533142089844 C 555.5199584960938 152.6641387939453 559.8095703125 151.7107391357422 561.7314453125 156.1223602294922" stroke-width="0.0" fill="url(#shape_21_fill)"/>
    <path d="M 214.9977569580078 210.3461151123047 C 234.9739532470703 208.34120178222656 238.27992248535156 240.9461669921875 225.00595092773438 257.47381591796875 C 211.400634765625 262.9009094238281 209.04824829101562 263.5257263183594 208.86497497558594 273.05908203125 C 205.80520629882812 275.29144287109375 206.74256896972656 277.06195068359375 205.57513427734375 279.4205322265625 C 206.6415252685547 282.79852294921875 202.92605590820312 285.7549133300781 201.87986755371094 284.9112854003906 C 202.2881622314453 283.0059814453125 190.32847595214844 272.4084167480469 188.12887573242188 263.3589172363281 C 186.67483520507812 261.5544128417969 183.93966674804688 263.16619873046875 181.42430114746094 263.68853759765625 C 181.01219177246094 261.1986389160156 179.80609130859375 259.6949768066406 178.53424072265625 251.7422637939453 C 178.87844848632812 247.79122924804688 168.9974365234375 242.26089477539062 170.65992736816406 238.59658813476562 C 175.1905059814453 213.59120178222656 177.25759887695312 212.92457580566406 185.55038452148438 220.5199737548828 C 193.66903686523438 219.74057006835938 194.03643798828125 215.035888671875 198.6185302734375 213.46627807617188 C 184.44410705566406 205.72344970703125 184.50405883789062 200.42613220214844 201.12371826171875 197.45303344726562 C 212.78282165527344 192.75424194335938 215.0650634765625 194.8281707763672 214.9977569580078 210.3461151123047" stroke-width="0.0" fill="url(#shape_22_fill)"/>
    <path d="M 111.70682525634766 426.1819763183594 C 112.74658966064453 429.28570556640625 111.05078125 431.2102355957031 110.65809631347656 431.3937072753906 C 104.96644592285156 432.6728210449219 103.22526550292969 433.80413818359375 91.95867919921875 433.0780334472656 C 89.77442169189453 435.9714050292969 95.66229248046875 446.421630859375 91.58195495605469 452.1399841308594 C 78.66380310058594 444.9972229003906 46.938175201416016 447.9271240234375 25.28805923461914 449.61224365234375 C 14.048736572265625 446.1771240234375 13.905163764953613 439.74627685546875 18.03853416442871 436.3092956542969 C 35.36140441894531 427.5727844238281 49.53047180175781 426.6738586425781 73.44584655761719 427.0469970703125 C 73.5905990600586 423.8482666015625 110.00615692138672 420.5563659667969 111.70682525634766 426.1819763183594" stroke-width="0.0" fill="url(#shape_23_fill)"/>
    <path d="M 198.8832244873047 120.82415771484375 C 210.0419921875 115.92539978027344 223.34408569335938 134.15963745117188 219.1879119873047 141.6133575439453 C 216.27432250976562 147.86058044433594 218.5426025390625 150.3864288330078 220.19863891601562 154.74380493164062 C 228.22557067871094 158.51809692382812 247.6614227294922 175.64495849609375 244.7571258544922 198.9973907470703 C 239.13674926757812 199.5926971435547 235.6780242919922 187.02597045898438 232.31625366210938 179.8257293701172 C 234.77780151367188 187.15966796875 233.44149780273438 195.96160888671875 230.51295471191406 197.12799072265625 C 228.19845581054688 197.1154327392578 225.80393981933594 202.5767822265625 220.1892547607422 208.71676635742188 C 214.8328094482422 207.81442260742188 213.42030334472656 202.40602111816406 211.8814697265625 198.5582275390625 C 211.3831787109375 190.8633575439453 211.58543395996094 183.25709533691406 206.81385803222656 177.62185668945312 C 203.850830078125 174.0496368408203 204.90562438964844 173.00059509277344 205.71670532226562 167.98342895507812 C 202.56307983398438 147.54110717773438 199.5053253173828 146.94216918945312 192.09788513183594 143.81285095214844 C 189.4354248046875 142.41754150390625 191.4708251953125 128.17422485351562 198.8832244873047 120.82415771484375" stroke-width="0.0" fill="url(#shape_24_fill)"/>
    <path d="M 590.3626708984375 401.51708984375 C 601.4432373046875 405.4789123535156 629.4022216796875 404.75689697265625 637.50244140625 410.7162170410156 C 635.710205078125 424.092529296875 631.038818359375 427.349853515625 629.2216186523438 426.1292419433594 C 630.5700073242188 427.82513427734375 636.1235961914062 428.0326843261719 639.9159545898438 436.53094482421875 C 618.8662719726562 448.03680419921875 578.843505859375 438.6492919921875 572.3786010742188 434.89752197265625 C 567.6732177734375 427.2876892089844 573.8803100585938 419.57916259765625 577.1331176757812 412.8564453125 C 578.0782470703125 411.1048889160156 585.6956787109375 413.5003356933594 590.3626708984375 401.51708984375" stroke-width="0.0" fill="url(#shape_25_fill)"/>
    <path d="M 142.89735412597656 66.95340728759766 C 144.03981018066406 68.8861312866211 149.1744384765625 67.45049285888672 149.61343383789062 68.9782943725586 C 148.86489868164062 70.91279602050781 150.43560791015625 71.83028411865234 149.53311157226562 73.94912719726562 C 151.0641632080078 74.5005111694336 150.136962890625 78.70330810546875 149.2421417236328 92.50028228759766 C 151.03271484375 93.08570098876953 154.62362670898438 95.47358703613281 153.15892028808594 104.13612365722656 C 153.24371337890625 107.70109558105469 155.08934020996094 108.51689910888672 155.74871826171875 110.98512268066406 C 157.22535705566406 123.3277587890625 154.62295532226562 133.4748992919922 149.92758178710938 133.5704803466797 C 140.61109924316406 128.50962829589844 137.63107299804688 118.32059478759766 125.96269226074219 116.59371948242188 C 121.87710571289062 113.77674102783203 123.34031677246094 109.4485855102539 126.17267608642578 107.24272155761719 C 128.55169677734375 106.7671890258789 129.0300750732422 105.27717590332031 132.5385284423828 104.95673370361328 C 138.59291076660156 96.3475112915039 135.22756958007812 92.92013549804688 132.77272033691406 89.06007385253906 C 134.0470428466797 88.18284606933594 139.42758178710938 87.88944244384766 140.4988250732422 85.39622497558594 C 138.22952270507812 84.71411895751953 138.85617065429688 77.95508575439453 139.85272216796875 77.36653137207031 C 143.96925354003906 76.4784164428711 143.0774688720703 70.97710418701172 142.89735412597656 66.95340728759766" stroke-width="0.0" fill="url(#shape_26_fill)"/>
    <path d="M 139.46986389160156 67.78133392333984 C 149.1538848876953 66.80174255371094 149.51318359375 67.92398071289062 148.7700653076172 77.34354400634766 C 150.50917053222656 78.29471588134766 151.14825439453125 80.76732635498047 154.8648681640625 85.18376159667969 C 150.11402893066406 90.36090087890625 155.0233154296875 95.87190246582031 150.9337158203125 105.24496459960938 C 152.73904418945312 106.0772933959961 153.63597106933594 109.75143432617188 155.51605224609375 112.9669189453125 C 152.89845275878906 116.09554290771484 157.8170928955078 122.22306060791016 153.42074584960938 126.35443115234375 C 152.47535705566406 132.01095581054688 151.30543518066406 133.1646728515625 147.57171630859375 134.5408935546875 C 141.99844360351562 130.91293334960938 128.23724365234375 122.2431869506836 129.57073974609375 117.58972930908203 C 124.2134017944336 118.48411560058594 122.84065246582031 113.04117584228516 128.30992126464844 110.62812805175781 C 122.77568054199219 107.57719421386719 124.52581024169922 104.16706085205078 133.11196899414062 107.8272476196289 C 136.78660583496094 105.89132690429688 133.31558227539062 92.69586944580078 132.7120361328125 89.17465209960938 C 139.39649963378906 87.68217468261719 138.89312744140625 85.18319702148438 138.9878387451172 81.146240234375 C 139.06533813476562 77.4900131225586 140.3618621826172 76.81266784667969 142.4935302734375 78.34257507324219 C 145.2584228515625 71.87633514404297 142.66580200195312 70.40669250488281 139.46986389160156 67.78133392333984" stroke-width="0.0" fill="url(#shape_27_fill)"/>
    <path d="M -0.42845311760902405 -0.2780260741710663 C 4.7315778732299805 0.3887859880924225 9.682273864746094 -0.5328121185302734 18.690309524536133 -0.9019931554794312 C 25.520570755004883 -1.8138090372085571 26.021564483642578 -1.0285940170288086 56.46575164794922 0.3779461085796356 C 52.11332702636719 25.70479393005371 28.834815979003906 22.964557647705078 28.05303192138672 27.86998176574707 C 61.35316848754883 8.256086349487305 70.27999877929688 8.158690452575684 73.96121215820312 56.67185592651367 C 33.56913757324219 58.27460479736328 22.444639205932617 61.23291015625 19.711669921875 53.7054443359375 C 16.3797664642334 39.35000991821289 11.273218154907227 38.33424377441406 9.96906852722168 33.62592697143555 C 10.105648040771484 35.78040313720703 14.531595230102539 39.260501861572266 14.595891952514648 41.0326042175293 C 16.157983779907227 42.16803741455078 16.061752319335938 44.57719802856445 18.171594619750977 47.87849426269531 C 20.074739456176758 51.072410583496094 18.770408630371094 52.30435562133789 22.751628875732422 57.64563751220703 C 23.668670654296875 70.40503692626953 10.747512817382812 72.9403305053711 7.33603048324585 61.869747161865234 C 5.247397422790527 60.9677619934082 3.559638738632202 59.125728607177734 0.31336739659309387 59.44729232788086 C -0.32130149006843567 39.802852630615234 -0.3250844180583954 19.636314392089844 -0.42845311760902405 -0.2780260741710663" stroke-width="0.0" fill="url(#shape_28_fill)"/>
    <path d="M 298.3252868652344 197.28309631347656 C 297.77911376953125 199.4843292236328 300.6872253417969 202.16091918945312 301.6139831542969 208.88504028320312 C 300.4497375488281 214.2522735595703 325.75543212890625 222.51519775390625 316.04583740234375 255.54031372070312 C 311.8937683105469 254.67007446289062 310.5273742675781 255.77574157714844 304.3992004394531 255.0155029296875 C 303.8760681152344 258.11187744140625 297.2975769042969 258.4644775390625 281.3126220703125 256.3238830566406 C 276.7300109863281 223.6575927734375 285.119140625 221.69491577148438 298.3252868652344 197.28309631347656" stroke-width="0.0" fill="url(#shape_29_fill)"/>
    <path d="M 0.004112923517823219 -0.14036966860294342 C 4.613488674163818 0.456393301486969 9.821381568908691 -0.40898966789245605 14.748146057128906 0.09169302135705948 C 15.975128173828125 0.4704270362854004 16.779712677001953 2.231135606765747 16.60426139831543 7.900270938873291 C 18.749828338623047 11.025097846984863 21.364763259887695 19.190670013427734 27.87358283996582 20.50692367553711 C 27.31932258605957 22.612863540649414 23.531278610229492 26.690242767333984 25.17241668701172 31.96712303161621 C 20.51890754699707 32.604530334472656 11.414552688598633 30.204504013061523 3.8331186771392822 33.44789505004883 C 8.835469245910645 36.20964431762695 8.649654388427734 39.12379837036133 10.864442825317383 40.464866638183594 C 10.4899320602417 42.873008728027344 7.4161176681518555 49.386470794677734 11.752450942993164 53.80175018310547 C 17.7779541015625 51.049739837646484 19.463653564453125 51.488338470458984 18.497861862182617 58.335304260253906 C 11.321381568908691 60.725032806396484 9.427355766296387 62.43569564819336 0.17615580558776855 61.614479064941406 C -0.4283553659915924 39.97957229614258 -0.3547075688838959 19.756629943847656 0.004112923517823219 -0.14036966860294342" stroke-width="0.0" fill="url(#shape_30_fill)"/>
    <path d="M 549.0126953125 70.72770690917969 C 546.7555541992188 78.48722839355469 576.7462768554688 89.35336303710938 581.3980712890625 91.83605194091797 C 580.99755859375 92.99979400634766 577.5258178710938 93.39289855957031 577.4607543945312 98.3463363647461 C 573.294677734375 100.69912719726562 572.0540161132812 99.84813690185547 569.6318969726562 100.11598205566406 C 567.1572265625 94.24968719482422 547.5344848632812 98.62630462646484 538.8984985351562 88.25621795654297 C 538.2006225585938 85.51216125488281 538.9589233398438 82.73562622070312 535.8837890625 81.87705993652344 C 533.9962158203125 80.86991119384766 527.064453125 79.48513793945312 526.9969482421875 78.06568145751953 C 524.9796142578125 75.83650970458984 527.6949462890625 70.84132385253906 531.8580932617188 68.93453216552734 C 539.2281494140625 66.81724548339844 542.8119506835938 71.46089935302734 549.0126953125 70.72770690917969" stroke-width="0.0" fill="url(#shape_31_fill)"/>
    <path d="M 446.8968811035156 264.45159912109375 C 450.6062316894531 265.32928466796875 451.2431945800781 266.775390625 455.5320129394531 267.8695373535156 C 460.5113830566406 267.6551208496094 465.32232666015625 270.3759765625 469.9637145996094 272.9947509765625 C 470.4309997558594 275.6334533691406 471.828857421875 276.8868713378906 471.6768798828125 280.7839050292969 C 452.3225402832031 287.25274658203125 431.2232360839844 284.142333984375 415.80120849609375 285.1401062011719 C 413.34039306640625 273.8764953613281 414.0675048828125 272.2786865234375 415.2139587402344 267.9744873046875 C 418.1764831542969 267.1922607421875 417.7066345214844 264.77215576171875 419.3004455566406 262.81109619140625 C 445.037841796875 250.51290893554688 447.2564697265625 251.5645294189453 446.8968811035156 264.45159912109375" stroke-width="0.0" fill="url(#shape_32_fill)"/>
    <path d="M 272.8827209472656 192.06202697753906 C 274.1524963378906 192.35987854003906 288.337646484375 243.73577880859375 282.722900390625 249.4982452392578 C 279.72589111328125 249.85768127441406 274.1011657714844 247.895751953125 269.10626220703125 250.21795654296875 C 266.05621337890625 246.78176879882812 266.3868408203125 242.9932098388672 260.7438659667969 240.7046356201172 C 254.79861450195312 208.3612823486328 262.48486328125 205.3424072265625 272.8827209472656 192.06202697753906" stroke-width="0.0" fill="url(#shape_33_fill)"/>
    <path d="M 270.2464599609375 406.0589294433594 C 262.1380615234375 429.7990417480469 264.2093200683594 430.9071960449219 267.25665283203125 440.6444396972656 C 262.4975891113281 440.8518371582031 260.6866760253906 446.4268493652344 258.6488037109375 447.86444091796875 C 245.30303955078125 445.88165283203125 213.0391845703125 448.8939514160156 212.36944580078125 445.0886535644531 C 213.0216522216797 436.99578857421875 213.95974731445312 436.2220764160156 216.09451293945312 434.774658203125 C 216.52317810058594 433.66680908203125 225.1186981201172 434.08172607421875 226.84568786621094 431.0864562988281 C 226.47378540039062 417.52703857421875 231.44869995117188 416.8039855957031 270.2464599609375 406.0589294433594" stroke-width="0.0" fill="url(#shape_34_fill)"/>
    <path d="M 105.59810638427734 69.57203674316406 C 110.2066650390625 69.75727844238281 110.65586853027344 78.44049835205078 112.80667877197266 85.15509796142578 C 117.87296295166016 86.427490234375 116.09308624267578 110.03361511230469 118.90283203125 110.694091796875 C 116.68620300292969 112.53022003173828 109.59944152832031 114.23955535888672 107.00641632080078 124.98124694824219 C 104.57445526123047 117.11888885498047 96.4739761352539 118.91497039794922 87.39401245117188 107.20686340332031 C 85.9361801147461 85.64407348632812 106.16622924804688 84.24148559570312 105.59810638427734 69.57203674316406" stroke-width="0.0" fill="url(#shape_35_fill)"/>
    <path d="M 451.20074462890625 178.4622039794922 C 454.2047119140625 176.04086303710938 456.3623046875 177.77281188964844 455.0920104980469 180.33424377441406 C 455.86309814453125 180.87188720703125 455.0564270019531 184.87901306152344 456.0563049316406 186.8719024658203 C 456.3761901855469 188.45266723632812 459.27978515625 193.7566680908203 458.7587585449219 204.4791717529297 C 458.8130798339844 208.2922821044922 453.2981262207031 210.2919464111328 445.96240234375 204.37261962890625 C 442.2528381347656 206.69317626953125 440.69659423828125 209.35430908203125 432.1069641113281 210.86663818359375 C 436.02349853515625 209.9193115234375 436.9670104980469 187.68890380859375 437.7270202636719 173.8225860595703 C 440.4606628417969 178.7249298095703 440.5577697753906 181.49977111816406 446.8417663574219 181.50714111328125 C 447.9440002441406 179.7264404296875 450.1499938964844 179.7221221923828 451.20074462890625 178.4622039794922" stroke-width="0.0" fill="url(#shape_36_fill)"/>
    <path d="M 558.0421142578125 84.58426666259766 C 559.964111328125 80.19427490234375 578.3656616210938 83.2315444946289 579.3516235351562 85.07269287109375 C 581.3869018554688 83.1328125 586.3123168945312 84.91192626953125 588.3215942382812 88.77434539794922 C 598.5431518554688 110.8874282836914 588.5784912109375 117.37843322753906 574.3145751953125 100.89942169189453 C 573.787353515625 99.46627044677734 550.622802734375 96.85855865478516 548.6058349609375 86.7839584350586 C 539.185546875 86.8192138671875 537.6871948242188 85.35887145996094 536.8372192382812 79.86943817138672 C 543.2111206054688 74.74996185302734 546.9583129882812 78.75069427490234 558.0421142578125 84.58426666259766" stroke-width="0.0" fill="url(#shape_37_fill)"/>
    <path d="M 251.74713134765625 206.90484619140625 C 265.9136657714844 215.1731719970703 261.35205078125 234.47134399414062 260.05194091796875 248.58053588867188 C 259.8166198730469 254.62135314941406 251.44349670410156 255.2070770263672 248.9087677001953 256.9751281738281 C 234.31292724609375 236.49610900878906 240.70726013183594 215.80404663085938 251.74713134765625 206.90484619140625" stroke-width="0.0" fill="url(#shape_38_fill)"/>
    <path d="M 442.208251953125 262.94891357421875 C 445.97222900390625 263.4246520996094 449.20599365234375 266.6888427734375 447.9278564453125 270.0858459472656 C 444.6692810058594 270.4041442871094 442.6741027832031 277.3421630859375 440.0733642578125 277.28515625 C 438.1846618652344 286.890625 430.49951171875 286.22332763671875 417.75665283203125 275.3087463378906 C 414.404296875 276.7082824707031 413.2572326660156 274.31610107421875 416.4364013671875 271.59698486328125 C 414.848388671875 269.9141540527344 419.2710876464844 262.2919006347656 425.22918701171875 258.5307922363281 C 426.9716491699219 257.92547607421875 440.7032470703125 257.6724853515625 442.208251953125 262.94891357421875" stroke-width="0.0" fill="url(#shape_39_fill)"/>
    <path d="M 407.64935302734375 409.93609619140625 C 408.6340637207031 409.92181396484375 416.76513671875 419.1601867675781 414.25079345703125 424.44049072265625 C 398.83062744140625 435.3663330078125 386.3338623046875 420.5579528808594 376.5408020019531 420.8889465332031 C 371.0709533691406 417.9620056152344 371.2262878417969 416.5549011230469 372.5177917480469 410.4622497558594 C 375.6216125488281 401.0966796875 391.9732666015625 404.0094299316406 407.64935302734375 409.93609619140625" stroke-width="0.0" fill="url(#shape_40_fill)"/>
    <path d="M 66.60692596435547 427.37457275390625 C 67.20429992675781 428.9254455566406 63.8784065246582 431.8241271972656 58.59691619873047 434.1596374511719 C 57.34656524658203 435.8503723144531 41.99008560180664 435.3664245605469 30.691097259521484 443.087158203125 C 28.852453231811523 443.5606994628906 26.951738357543945 444.0959777832031 17.39869499206543 442.6209716796875 C 16.46043586730957 440.6537170410156 18.07231903076172 439.2092590332031 17.40665054321289 437.735107421875 C 36.413658142089844 427.0561828613281 51.52969741821289 428.51617431640625 66.60692596435547 427.37457275390625" stroke-width="0.0" fill="url(#shape_41_fill)"/>
    <path d="M 276.7313232421875 381.1448669433594 C 284.8360595703125 381.2069396972656 298.7845764160156 380.35711669921875 312.1749572753906 385.53753662109375 C 296.7041931152344 394.3664855957031 299.2812194824219 401.1165466308594 294.5664367675781 405.24969482421875 C 291.7767028808594 400.1236877441406 268.2060852050781 407.478759765625 258.03851318359375 410.1672058105469 C 237.97064208984375 419.5855712890625 230.693359375 414.84722900390625 229.7649688720703 383.854248046875 C 259.6678466796875 378.1918029785156 266.25018310546875 382.3367004394531 276.7313232421875 381.1448669433594" stroke-width="0.0" fill="url(#shape_42_fill)"/>
    <path d="M 222.69346618652344 209.01473999023438 C 224.22201538085938 206.39443969726562 238.5955810546875 206.15652465820312 238.76609802246094 209.94114685058594 C 242.8194580078125 221.7862548828125 244.00271606445312 244.80101013183594 256.1153564453125 270.3765563964844 C 252.2364959716797 276.36505126953125 243.4231414794922 273.5287170410156 208.05914306640625 272.41619873046875 C 208.5307159423828 266.2147216796875 206.07501220703125 250.81930541992188 216.1539306640625 247.56356811523438 C 219.17349243164062 246.4525604248047 218.4799041748047 226.42796325683594 222.69346618652344 209.01473999023438" stroke-width="0.0" fill="url(#shape_43_fill)"/>
    <path d="M 483.57574462890625 396.1231994628906 C 486.5947265625 399.5448303222656 486.0225524902344 401.0790710449219 483.36932373046875 400.8741760253906 C 469.4324951171875 407.4748840332031 451.1646423339844 406.9263916015625 450.2928771972656 407.5001525878906 C 448.3523254394531 404.4403991699219 451.78656005859375 396.2159729003906 453.7086486816406 396.5351867675781 C 466.8170166015625 393.4309387207031 471.64862060546875 392.27801513671875 483.57574462890625 396.1231994628906" stroke-width="0.0" fill="url(#shape_44_fill)"/>
    <path d="M 45.856719970703125 408.1319580078125 C 45.28256607055664 407.98431396484375 35.894981384277344 412.6775817871094 32.04600143432617 412.5289611816406 C 32.165985107421875 414.26629638671875 31.79039764404297 415.687255859375 28.006366729736328 414.9617614746094 C 26.913928985595703 416.3034973144531 23.85576820373535 416.9898986816406 19.67045783996582 420.0984802246094 C 19.571088790893555 420.2668151855469 0.23184894025325775 417.38531494140625 -0.6848856210708618 420.5146179199219 C 1.9418326616287231 419.4023132324219 -1.1582578420639038 411.18609619140625 1.033349871635437 410.1830749511719 C 5.808839797973633 409.6991271972656 45.467994689941406 406.2749328613281 45.856719970703125 408.1319580078125" stroke-width="0.0" fill="url(#shape_45_fill)"/>
    <path d="M 452.4333801269531 173.62734985351562 C 453.82330322265625 174.94912719726562 464.5773010253906 198.52969360351562 467.3253173828125 199.7389678955078 C 462.6044006347656 209.16793823242188 451.1117858886719 209.12767028808594 449.4468688964844 206.48439025878906 C 448.3002014160156 203.27122497558594 448.9460754394531 198.32469177246094 448.8515930175781 195.29681396484375 C 447.96685791015625 194.57359313964844 447.58355712890625 192.04006958007812 448.5243225097656 187.98731994628906 C 450.9695129394531 186.64149475097656 450.2371520996094 182.56640625 452.4333801269531 173.62734985351562" stroke-width="0.0" fill="url(#shape_46_fill)"/>
    <path d="M 372.1885070800781 183.47833251953125 C 379.3433532714844 198.754638671875 380.65008544921875 202.7494354248047 371.50201416015625 205.80657958984375 C 365.86767578125 206.83795166015625 364.772216796875 204.7617645263672 361.6003723144531 206.07839965820312 C 339.58746337890625 212.39486694335938 335.1482849121094 200.80804443359375 353.385498046875 189.40866088867188 C 356.7072448730469 184.9869384765625 358.37908935546875 184.36434936523438 368.20306396484375 185.4597625732422 C 369.0433044433594 182.788330078125 371.4083557128906 182.9297332763672 372.1885070800781 183.47833251953125" stroke-width="0.0" fill="url(#shape_47_fill)"/>
    <path d="M 473.220703125 264.4115295410156 C 473.8172302246094 268.7433776855469 481.0772705078125 271.58197021484375 484.2964782714844 283.4850769042969 C 466.7922058105469 287.99737548828125 445.37921142578125 286.9205627441406 443.7867736816406 284.9142761230469 C 439.33905029296875 282.1080627441406 440.0005798339844 276.96600341796875 440.9950866699219 276.2960205078125 C 449.12493896484375 266.5466613769531 456.2323303222656 261.65057373046875 473.220703125 264.4115295410156" stroke-width="0.0" fill="url(#shape_48_fill)"/>
    <path d="M 176.5417938232422 116.63941192626953 C 178.14443969726562 115.60836029052734 181.71286010742188 116.15986633300781 182.6983184814453 117.25316619873047 C 184.6282501220703 120.0844955444336 183.93101501464844 121.75200653076172 184.7330780029297 123.39324951171875 C 179.44300842285156 128.39694213867188 185.5179443359375 136.9961700439453 183.12225341796875 139.09768676757812 C 181.50320434570312 146.2490234375 172.82301330566406 146.3727569580078 172.44915771484375 146.85792541503906 C 172.8423309326172 126.98060607910156 171.1142578125 124.4442138671875 176.5417938232422 116.63941192626953" stroke-width="0.0" fill="url(#shape_49_fill)"/>
    <path d="M 333.9948425292969 426.411865234375 C 335.2357482910156 430.4216003417969 342.158203125 428.8724670410156 343.70550537109375 431.5238037109375 C 346.3789978027344 435.56500244140625 345.15838623046875 437.20965576171875 342.2730407714844 437.48504638671875 C 342.48028564453125 447.36444091796875 325.5506591796875 448.7909851074219 323.570068359375 445.6419372558594 C 321.5655822753906 436.1609802246094 321.5870056152344 432.6943664550781 305.24298095703125 430.66168212890625 C 317.8066101074219 424.9347839355469 327.2233581542969 430.95977783203125 333.9948425292969 426.411865234375" stroke-width="0.0" fill="url(#shape_50_fill)"/>
    <path d="M 320.8911437988281 388.635498046875 C 313.50811767578125 395.9949645996094 293.07708740234375 395.50994873046875 291.52557373046875 399.0331726074219 C 279.1017761230469 397.65740966796875 277.8572692871094 398.989013671875 271.2526550292969 402.25506591796875 C 271.2775573730469 401.5954895019531 270.0832214355469 398.8925476074219 271.7834167480469 397.51043701171875 C 270.42657470703125 395.5875244140625 273.6011047363281 388.67138671875 280.064697265625 388.462646484375 C 284.34649658203125 386.8161926269531 288.5023193359375 390.6434020996094 320.8911437988281 388.635498046875" stroke-width="0.0" fill="url(#shape_51_fill)"/>
    <path d="M 269.02337646484375 186.92996215820312 C 277.8496398925781 195.05308532714844 276.8477478027344 207.8180389404297 280.1386413574219 217.5198211669922 C 271.5978088378906 210.4226531982422 269.5403137207031 208.50970458984375 260.1706848144531 217.32244873046875 C 257.8604431152344 208.76596069335938 262.8889465332031 195.24005126953125 267.9372863769531 195.7260284423828 C 269.65411376953125 194.14303588867188 268.8440856933594 191.56448364257812 269.02337646484375 186.92996215820312" stroke-width="0.0" fill="url(#shape_52_fill)"/>
    <path d="M 218.54940795898438 409.3553771972656 C 215.88214111328125 410.8927001953125 215.78903198242188 413.34954833984375 214.306396484375 415.2972106933594 C 214.58363342285156 423.7718200683594 195.26585388183594 425.1771545410156 187.72613525390625 415.62591552734375 C 186.37110900878906 403.7784118652344 209.1856231689453 398.74835205078125 218.54940795898438 409.3553771972656" stroke-width="0.0" fill="url(#shape_53_fill)"/>
    <path d="M 206.02772521972656 424.64923095703125 C 205.44241333007812 425.2179870605469 206.1524658203125 428.30047607421875 204.54803466796875 428.8298645019531 C 194.5887908935547 429.4735107421875 178.8295440673828 430.0235595703125 178.11614990234375 432.7027282714844 C 176.96450805664062 430.9405822753906 178.562255859375 425.9416198730469 177.22000122070312 423.862060546875 C 187.23841857910156 418.6486511230469 192.3302001953125 423.268798828125 206.02772521972656 424.64923095703125" stroke-width="0.0" fill="url(#shape_54_fill)"/>
    <path d="M 268.6250305175781 247.9398956298828 C 275.2135925292969 245.16751098632812 276.77923583984375 247.9229278564453 278.9960632324219 249.18438720703125 C 281.125732421875 251.00387573242188 280.8238830566406 252.12278747558594 294.53558349609375 272.5252380371094 C 263.4809265136719 258.164794921875 262.8822326660156 257.4969787597656 249.0961151123047 268.69976806640625 C 254.8206329345703 248.1752471923828 255.92872619628906 247.25868225097656 258.7602233886719 245.28248596191406 C 261.10369873046875 240.14776611328125 263.4368896484375 239.2686004638672 268.6250305175781 247.9398956298828" stroke-width="0.0" fill="url(#shape_55_fill)"/>
    <path d="M 290.0765380859375 334.89324951171875 C 286.6653137207031 362.624267578125 287.47735595703125 363.2928161621094 285.53460693359375 368.0330810546875 C 285.5849914550781 369.222900390625 286.1112060546875 371.76080322265625 285.4320983886719 381.4562683105469 C 269.96868896484375 379.3290710449219 256.43115234375 380.795654296875 233.20516967773438 383.0085144042969 C 228.93894958496094 382.6880187988281 228.28213500976562 370.8246765136719 235.63523864746094 345.1143493652344 C 236.94741821289062 335.9422607421875 240.57537841796875 333.2619934082031 290.0765380859375 334.89324951171875" stroke-width="0.0" fill="url(#shape_56_fill)"/>
    <path d="M 407.97491455078125 271.9195251464844 C 412.80023193359375 270.8057861328125 417.7364196777344 275.9160461425781 425.6141662597656 282.0644226074219 C 416.4425354003906 283.28204345703125 412.4000244140625 275.7592468261719 373.8289489746094 274.2667236328125 C 375.491455078125 263.05963134765625 383.35125732421875 263.469970703125 407.97491455078125 271.9195251464844" stroke-width="0.0" fill="url(#shape_57_fill)"/>
    <path d="M 632.1190795898438 352.4808349609375 C 632.981689453125 354.6185302734375 661.2832641601562 355.25396728515625 668.486572265625 355.6119689941406 C 668.4307861328125 358.0377502441406 662.9935302734375 360.1495056152344 660.185791015625 356.6132507324219 C 644.3783569335938 356.5711975097656 636.5374145507812 358.7962341308594 631.7398071289062 359.48541259765625 C 627.927734375 357.2622985839844 629.5824584960938 353.70172119140625 632.1190795898438 352.4808349609375" stroke-width="0.0" fill="url(#shape_58_fill)"/>
    <path d="M 341.3885498046875 384.6260681152344 C 342.8424072265625 390.07769775390625 358.1552734375 391.5928649902344 359.161865234375 394.56378173828125 C 356.61395263671875 398.53662109375 339.7777404785156 401.2801513671875 338.27142333984375 399.5721435546875 C 335.1358642578125 399.63787841796875 333.0527648925781 398.79156494140625 331.8246154785156 396.5372619628906 C 331.9938659667969 394.93994140625 330.740234375 393.4737243652344 332.2391052246094 390.5715026855469 C 332.69146728515625 384.8390808105469 335.3443603515625 383.775146484375 341.3885498046875 384.6260681152344" stroke-width="0.0" fill="url(#shape_59_fill)"/>
    <path d="M 457.6014099121094 364.347412109375 C 461.6977233886719 362.9869689941406 475.0085144042969 371.6869812011719 473.24468994140625 374.6018371582031 C 471.81475830078125 376.24456787109375 470.33636474609375 376.826171875 463.7288818359375 375.82464599609375 C 458.96087646484375 376.638916015625 456.8903503417969 377.11907958984375 452.7518615722656 371.3126220703125 C 453.3939208984375 370.1607971191406 458.59954833984375 368.27301025390625 457.6014099121094 364.347412109375" stroke-width="0.0" fill="url(#shape_60_fill)"/>
    <path d="M 428.1953430175781 432.323974609375 C 439.9788513183594 434.2178039550781 442.3811340332031 436.7318115234375 442.11602783203125 438.6080627441406 C 440.2616271972656 440.7390441894531 427.4015197753906 439.3357238769531 425.70245361328125 441.9866027832031 C 422.54486083984375 437.76385498046875 423.8993225097656 434.69879150390625 410.29254150390625 425.3663635253906 C 427.6380920410156 428.12054443359375 428.95098876953125 431.62750244140625 428.1953430175781 432.323974609375" stroke-width="0.0" fill="url(#shape_61_fill)"/>
    <path d="M 185.39060974121094 411.45281982421875 C 186.23831176757812 413.8905029296875 185.05026245117188 414.82061767578125 186.8334197998047 417.7193908691406 C 184.87831115722656 420.2332458496094 183.3794708251953 419.4842224121094 182.541015625 419.8003234863281 C 180.8360137939453 421.6603088378906 174.4728240966797 420.12548828125 171.7888946533203 419.9570617675781 C 169.6107177734375 417.5527038574219 169.78952026367188 415.62322998046875 175.15740966796875 412.16522216796875 C 176.6669158935547 413.6759948730469 180.1311798095703 410.4627685546875 185.39060974121094 411.45281982421875" stroke-width="0.0" fill="url(#shape_62_fill)"/>
    <path d="M 331.7998962402344 418.91693115234375 C 334.2220458984375 425.60455322265625 329.849609375 427.8100280761719 327.2086181640625 425.4565124511719 C 324.46978759765625 427.7255859375 322.949462890625 426.6753845214844 321.8067321777344 427.3011474609375 C 319.0008239746094 425.9489440917969 320.0832214355469 419.9434814453125 317.66326904296875 418.5270080566406 C 318.9620361328125 420.35089111328125 325.6941833496094 418.52056884765625 331.7998962402344 418.91693115234375" stroke-width="0.0" fill="url(#shape_63_fill)"/>
    <path d="M 55.656856536865234 274.41766357421875 C 56.693145751953125 269.5823974609375 64.25662994384766 271.0240173339844 63.00665283203125 278.7900390625 C 59.77383041381836 278.535888671875 54.25426483154297 272.24139404296875 48.81553649902344 276.52313232421875 C 51.47125244140625 273.8880310058594 52.95588302612305 273.4046630859375 55.656856536865234 274.41766357421875" stroke-width="0.0" fill="url(#shape_64_fill)"/>
    <path d="M 304.7125549316406 440.3083801269531 C 304.57049560546875 437.8223876953125 306.4508056640625 436.8992614746094 313.229248046875 437.7346496582031 C 314.35198974609375 439.65277099609375 312.8306579589844 441.0478820800781 310.7868957519531 441.25714111328125 C 307.8382568359375 445.1552734375 306.44207763671875 444.18994140625 305.1709899902344 443.787353515625 C 302.5830993652344 441.7125244140625 303.3681640625 440.37432861328125 304.7125549316406 440.3083801269531" stroke-width="0.0" fill="url(#shape_65_fill)"/>
    <path d="M -0.5873154401779175 -0.42517122626304626 C 224.71018981933594 -0.13053563237190247 444.14031982421875 0.3106101155281067 672.3903198242188 0.191061332821846 C 673.3677978515625 155.84890747070312 674.7782592773438 295.9292297363281 673.7642822265625 445.47064208984375 C 450.05316162109375 446.3172302246094 230.02880859375 446.3164367675781 0.4245958626270294 445.5124206542969 C 0.17724326252937317 297.27362060546875 -0.2218535840511322 149.53887939453125 -0.5873154401779175 -0.42517122626304626" stroke-width="0.0" fill="url(#shape_66_fill)"/>
    <path d="M -1.1412651538848877 -0.23329883813858032 C 222.85888671875 -0.1376936435699463 442.8964538574219 0.4008660912513733 672.3140258789062 -0.25464752316474915 C 673.3877563476562 156.95269775390625 674.8347778320312 295.5622253417969 673.4025268554688 445.3925476074219 C 450.3683166503906 446.3778991699219 230.1136474609375 446.3486633300781 0.44810551404953003 445.451171875 C 0.02144194021821022 297.64080810546875 -0.30458104610443115 149.20387268066406 -1.1412651538848877 -0.23329883813858032" stroke-width="0.0" fill="url(#shape_67_fill)"/>
    <path d="M -0.7396889925003052 -0.28164926171302795 C 223.51541137695312 -0.1923234760761261 441.5987854003906 0.532271146774292 672.5394897460938 -0.3315971791744232 C 673.5059204101562 156.0227508544922 674.8352661132812 295.33917236328125 673.389404296875 445.3917236328125 C 450.3674621582031 446.3792724609375 230.1744842529297 446.3456726074219 1.093744158744812 445.4232482910156 C 0.46889930963516235 295.7688293457031 0.053496554493904114 148.5924072265625 -0.7396889925003052 -0.28164926171302795" stroke-width="0.0" fill="url(#shape_68_fill)"/>
  </g>
</svg>
