<?xml version="1.0" ?>
<svg xmlns="http://www.w3.org/2000/svg" version="1.1" width="674" height="446">
  <defs>
    <radialGradient id="shape_0_fill" cx="0.5310630005969492" cy="0.7388407617406461" r="0.28276175207483306">
      <stop offset="0.7108084" stop-color="rgb(158, 166, 0)" stop-opacity="0.8354366421699524"/>
      <stop offset="1.0" stop-color="rgb(48, 40, 0)" stop-opacity="0.9791613221168518"/>
    </radialGradient>
    <radialGradient id="shape_1_fill" cx="0.5323607673984607" cy="0.7434272252925308" r="0.20669766208184578">
      <stop offset="0.34001258" stop-color="rgb(64, 56, 76)" stop-opacity="0.7261938452720642"/>
      <stop offset="0.97747517" stop-color="rgb(35, 6, 0)" stop-opacity="0.5993129014968872"/>
    </radialGradient>
    <radialGradient id="shape_2_fill" cx="0.09792273546892387" cy="0.7376672719091578" r="0.22062588021026522">
      <stop offset="0.007623149" stop-color="rgb(52, 114, 190)" stop-opacity="0.8435292840003967"/>
      <stop offset="1.0" stop-color="rgb(1, 85, 255)" stop-opacity="0.8911420106887817"/>
    </radialGradient>
    <radialGradient id="shape_3_fill" cx="0.27862152642949045" cy="0.2149009533527186" r="0.13249195223392293">
      <stop offset="0.40695485" stop-color="rgb(127, 170, 0)" stop-opacity="0.7677985429763794"/>
      <stop offset="1.0" stop-color="rgb(35, 29, 0)" stop-opacity="0.9252147674560547"/>
    </radialGradient>
    <radialGradient id="shape_4_fill" cx="0.1543026706231454" cy="0.9977578475336323" r="0.10288926755639141">
      <stop offset="0.0" stop-color="rgb(81, 79, 86)" stop-opacity="1.0"/>
      <stop offset="1.0" stop-color="rgb(48, 36, 62)" stop-opacity="0.8466428518295288"/>
    </radialGradient>
    <radialGradient id="shape_5_fill" cx="0.14807964290992442" cy="0.23997249517740155" r="0.11810664960821587">
      <stop offset="0.0" stop-color="rgb(255, 255, 255)" stop-opacity="0.6465655565261841"/>
      <stop offset="0.5626593" stop-color="rgb(255, 255, 255)" stop-opacity="0.5144777894020081"/>
    </radialGradient>
    <radialGradient id="shape_6_fill" cx="0.18397626112759644" cy="0.9977578475336323" r="0.0754974885934892">
      <stop offset="0.0" stop-color="rgb(93, 90, 94)" stop-opacity="1.0"/>
      <stop offset="1.0" stop-color="rgb(150, 127, 134)" stop-opacity="0.8477660417556763"/>
    </radialGradient>
    <radialGradient id="shape_7_fill" cx="0.2893175074183976" cy="0.05829596412556054" r="0.08666390552011372">
      <stop offset="0.0" stop-color="rgb(55, 66, 29)" stop-opacity="1.0"/>
      <stop offset="1.0" stop-color="rgb(122, 130, 58)" stop-opacity="0.572825014591217"/>
    </radialGradient>
    <radialGradient id="shape_8_fill" cx="0.3382789091115889" cy="0.9439461883408071" r="0.06756690277190167">
      <stop offset="0.0" stop-color="rgb(91, 124, 45)" stop-opacity="1.0"/>
      <stop offset="1.0" stop-color="rgb(79, 131, 0)" stop-opacity="0.5427223443984985"/>
    </radialGradient>
    <radialGradient id="shape_9_fill" cx="0.30712166172106825" cy="0.9977578475336323" r="0.0730758406641929">
      <stop offset="0.0" stop-color="rgb(38, 48, 20)" stop-opacity="1.0"/>
      <stop offset="1.0" stop-color="rgb(34, 26, 53)" stop-opacity="1.0"/>
    </radialGradient>
    <radialGradient id="shape_10_fill" cx="0.3056379821958457" cy="0.9977578475336323" r="0.06792919147615971">
      <stop offset="0.0" stop-color="rgb(39, 49, 21)" stop-opacity="1.0"/>
      <stop offset="1.0" stop-color="rgb(32, 5, 0)" stop-opacity="0.644627034664154"/>
    </radialGradient>
    <radialGradient id="shape_11_fill" cx="0.21810089020771514" cy="0.968609865470852" r="0.06792919147615971">
      <stop offset="0.0" stop-color="rgb(138, 135, 129)" stop-opacity="1.0"/>
      <stop offset="1.0" stop-color="rgb(113, 61, 38)" stop-opacity="0.395230770111084"/>
    </radialGradient>
    <radialGradient id="shape_12_fill" cx="0.29080118694362017" cy="0.9977578475336323" r="0.07480746985189285">
      <stop offset="0.0" stop-color="rgb(22, 25, 13)" stop-opacity="1.0"/>
      <stop offset="1.0" stop-color="rgb(38, 30, 16)" stop-opacity="1.0"/>
    </radialGradient>
    <radialGradient id="shape_13_fill" cx="0.327893175074184" cy="0.8923766816143498" r="0.06900465877544279">
      <stop offset="0.0" stop-color="rgb(89, 117, 50)" stop-opacity="1.0"/>
      <stop offset="1.0" stop-color="rgb(92, 118, 8)" stop-opacity="0.6375345587730408"/>
    </radialGradient>
    <radialGradient id="shape_14_fill" cx="0.142433234421365" cy="0.9977578475336323" r="0.06617211022079875">
      <stop offset="0.0" stop-color="rgb(155, 150, 153)" stop-opacity="1.0"/>
      <stop offset="1.0" stop-color="rgb(255, 134, 134)" stop-opacity="0.2241121530532837"/>
    </radialGradient>
    <radialGradient id="shape_15_fill" cx="0.31008902077151335" cy="0.9977578475336323" r="0.06683642786405207">
      <stop offset="0.0" stop-color="rgb(43, 55, 23)" stop-opacity="1.0"/>
      <stop offset="1.0" stop-color="rgb(62, 65, 22)" stop-opacity="0.8627530932426453"/>
    </radialGradient>
    <radialGradient id="shape_16_fill" cx="0.27299703264094954" cy="0.9977578475336323" r="0.08110449363640579">
      <stop offset="0.0" stop-color="rgb(31, 35, 19)" stop-opacity="1.0"/>
      <stop offset="1.0" stop-color="rgb(30, 23, 0)" stop-opacity="0.939202070236206"/>
    </radialGradient>
    <radialGradient id="shape_17_fill" cx="0.2893175074183976" cy="0.9977578475336323" r="0.07513486030193747">
      <stop offset="0.0" stop-color="rgb(22, 23, 13)" stop-opacity="1.0"/>
      <stop offset="1.0" stop-color="rgb(26, 19, 0)" stop-opacity="0.8505070805549622"/>
    </radialGradient>
    <radialGradient id="shape_18_fill" cx="0.3293768545994065" cy="0.7556053811659192" r="0.06617211022079875">
      <stop offset="0.0" stop-color="rgb(83, 108, 65)" stop-opacity="1.0"/>
      <stop offset="1.0" stop-color="rgb(105, 120, 57)" stop-opacity="0.9623883366584778"/>
    </radialGradient>
    <radialGradient id="shape_19_fill" cx="0.3516320474777448" cy="0.9977578475336323" r="0.06617211022079875">
      <stop offset="0.0" stop-color="rgb(95, 135, 39)" stop-opacity="1.0"/>
      <stop offset="1.0" stop-color="rgb(129, 184, 0)" stop-opacity="0.6351199746131897"/>
    </radialGradient>
    <radialGradient id="shape_20_fill" cx="0.0830860534124629" cy="0.9977578475336323" r="0.06792919147615971">
      <stop offset="0.0" stop-color="rgb(49, 52, 66)" stop-opacity="1.0"/>
      <stop offset="1.0" stop-color="rgb(46, 30, 67)" stop-opacity="0.4513722360134125"/>
    </radialGradient>
    <radialGradient id="shape_21_fill" cx="0.29821958456973297" cy="0.9977578475336323" r="0.06792919147615971">
      <stop offset="0.0" stop-color="rgb(33, 40, 17)" stop-opacity="1.0"/>
      <stop offset="1.0" stop-color="rgb(50, 63, 0)" stop-opacity="0.710229218006134"/>
    </radialGradient>
    <radialGradient id="shape_22_fill" cx="0.3563326600751113" cy="0.44372438849889645" r="0.06594546966099951">
      <stop offset="0.52384716" stop-color="rgb(109, 133, 40)" stop-opacity="1.0"/>
      <stop offset="0.38891584" stop-color="rgb(146, 171, 41)" stop-opacity="0.9122301936149597"/>
    </radialGradient>
    <radialGradient id="shape_23_fill" cx="0.6454005934718101" cy="0.1412556053811659" r="0.06617211022079875">
      <stop offset="0.0" stop-color="rgb(46, 38, 13)" stop-opacity="1.0"/>
      <stop offset="1.0" stop-color="rgb(54, 27, 0)" stop-opacity="0.8851364254951477"/>
    </radialGradient>
    <radialGradient id="shape_24_fill" cx="0.2492550586734398" cy="0.4843076355254169" r="0.06616971047059012">
      <stop offset="0.0" stop-color="rgb(205, 213, 206)" stop-opacity="1.0"/>
      <stop offset="0.92454517" stop-color="rgb(255, 255, 255)" stop-opacity="0.3253239691257477"/>
    </radialGradient>
    <radialGradient id="shape_25_fill" cx="0.6320474777448071" cy="0.9977578475336323" r="0.06617211022079875">
      <stop offset="0.0" stop-color="rgb(35, 28, 8)" stop-opacity="1.0"/>
      <stop offset="1.0" stop-color="rgb(39, 15, 0)" stop-opacity="0.8774650692939758"/>
    </radialGradient>
    <radialGradient id="shape_26_fill" cx="0.15414520399506793" cy="0.3207086811151205" r="0.06604698362265567">
      <stop offset="0.11989566" stop-color="rgb(198, 211, 155)" stop-opacity="1.0"/>
      <stop offset="0.58338004" stop-color="rgb(166, 144, 112)" stop-opacity="0.38141635060310364"/>
    </radialGradient>
    <radialGradient id="shape_27_fill" cx="0.15410647972401242" cy="0.3208032787648017" r="0.06604505929465818">
      <stop offset="0.0" stop-color="rgb(192, 205, 0)" stop-opacity="1.0"/>
      <stop offset="0.49375948" stop-color="rgb(34, 26, 15)" stop-opacity="0.426530659198761"/>
    </radialGradient>
    <radialGradient id="shape_28_fill" cx="0.03356542219394039" cy="0.014728625259057288" r="0.07330223219331011">
      <stop offset="0.09454372" stop-color="rgb(9, 19, 111)" stop-opacity="0.9370850324630737"/>
      <stop offset="0.8157853" stop-color="rgb(8, 17, 146)" stop-opacity="0.7159534692764282"/>
    </radialGradient>
    <radialGradient id="shape_29_fill" cx="0.33976258863681147" cy="0.6659192825112108" r="0.06617211022079875">
      <stop offset="0.0" stop-color="rgb(90, 117, 55)" stop-opacity="1.0"/>
      <stop offset="1.0" stop-color="rgb(107, 129, 28)" stop-opacity="0.866374671459198"/>
    </radialGradient>
    <radialGradient id="shape_30_fill" cx="0.038709303745530124" cy="0.01594677420475023" r="0.06963743441890184">
      <stop offset="0.17608146" stop-color="rgb(50, 69, 76)" stop-opacity="1.0"/>
      <stop offset="0.9339561" stop-color="rgb(66, 64, 0)" stop-opacity="0.48881080746650696"/>
    </radialGradient>
    <radialGradient id="shape_31_fill" cx="0.12314540059347182" cy="0.9977578475336323" r="0.06617211022079875">
      <stop offset="0.0" stop-color="rgb(95, 103, 98)" stop-opacity="1.0"/>
      <stop offset="1.0" stop-color="rgb(136, 118, 109)" stop-opacity="0.7335537672042847"/>
    </radialGradient>
    <radialGradient id="shape_32_fill" cx="0.4035608308605341" cy="0.984304932735426" r="0.06617211022079875">
      <stop offset="0.0" stop-color="rgb(126, 155, 63)" stop-opacity="1.0"/>
      <stop offset="1.0" stop-color="rgb(80, 44, 3)" stop-opacity="0.4617435038089752"/>
    </radialGradient>
    <radialGradient id="shape_33_fill" cx="0.3249258160237389" cy="0.6053811659192825" r="0.06617211022079875">
      <stop offset="1.5749225e-05" stop-color="rgb(93, 124, 71)" stop-opacity="0.999808132648468"/>
      <stop offset="1.0" stop-color="rgb(124, 138, 58)" stop-opacity="1.0"/>
    </radialGradient>
    <radialGradient id="shape_34_fill" cx="0.6468842729970327" cy="0.531390134529148" r="0.06617211022079875">
      <stop offset="0.0" stop-color="rgb(54, 47, 24)" stop-opacity="1.0"/>
      <stop offset="1.0" stop-color="rgb(42, 4, 36)" stop-opacity="0.3636654019355774"/>
    </radialGradient>
    <radialGradient id="shape_35_fill" cx="0.15143284104344398" cy="0.23716496352123037" r="0.06600394659297049">
      <stop offset="0.12207685" stop-color="rgb(212, 255, 98)" stop-opacity="0.12715232372283936"/>
      <stop offset="0.5189787" stop-color="rgb(104, 69, 67)" stop-opacity="0.8852802515029907"/>
    </radialGradient>
    <radialGradient id="shape_36_fill" cx="0.2878338278931751" cy="0.9977578475336323" r="0.06617211022079875">
      <stop offset="0.0" stop-color="rgb(80, 96, 53)" stop-opacity="1.0"/>
      <stop offset="1.0" stop-color="rgb(20, 13, 0)" stop-opacity="0.7770773768424988"/>
    </radialGradient>
    <radialGradient id="shape_37_fill" cx="0.129080118694362" cy="0.9977578475336323" r="0.06617211022079875">
      <stop offset="0.0" stop-color="rgb(87, 97, 81)" stop-opacity="1.0"/>
      <stop offset="1.0" stop-color="rgb(61, 61, 57)" stop-opacity="0.5937689542770386"/>
    </radialGradient>
    <radialGradient id="shape_38_fill" cx="0.33892324204260943" cy="0.5607740119968294" r="0.0666785763703751">
      <stop offset="0.7501433" stop-color="rgb(87, 107, 30)" stop-opacity="0.9305903315544128"/>
      <stop offset="0.6022492" stop-color="rgb(164, 244, 79)" stop-opacity="0.8753288388252258"/>
    </radialGradient>
    <radialGradient id="shape_39_fill" cx="0.40059347181008903" cy="0.9641255605381166" r="0.06617211022079875">
      <stop offset="0.0" stop-color="rgb(138, 168, 60)" stop-opacity="1.0"/>
      <stop offset="1.0" stop-color="rgb(222, 255, 84)" stop-opacity="0.8092898726463318"/>
    </radialGradient>
    <radialGradient id="shape_40_fill" cx="0.6100179519426929" cy="0.8741963476343539" r="0.07257788683611137">
      <stop offset="0.36700585" stop-color="rgb(162, 144, 172)" stop-opacity="0.2550980746746063"/>
      <stop offset="0.53178024" stop-color="rgb(1, 4, 56)" stop-opacity="0.7380059957504272"/>
    </radialGradient>
    <radialGradient id="shape_41_fill" cx="0.6454005934718101" cy="0.08744394618834081" r="0.06617211022079875">
      <stop offset="0.0" stop-color="rgb(58, 48, 21)" stop-opacity="1.0"/>
      <stop offset="1.0" stop-color="rgb(92, 59, 25)" stop-opacity="0.99837726354599"/>
    </radialGradient>
    <radialGradient id="shape_42_fill" cx="0.5845697329376854" cy="0.6188340807174888" r="0.06617211022079875">
      <stop offset="0.0" stop-color="rgb(62, 59, 56)" stop-opacity="1.0"/>
      <stop offset="1.0" stop-color="rgb(43, 34, 81)" stop-opacity="0.6353553533554077"/>
    </radialGradient>
    <radialGradient id="shape_43_fill" cx="0.3542766174859746" cy="0.5017577372324307" r="0.07029563383108077">
      <stop offset="0.24415678" stop-color="rgb(121, 150, 55)" stop-opacity="0.9267964959144592"/>
      <stop offset="0.62205994" stop-color="rgb(202, 252, 21)" stop-opacity="0.7232774496078491"/>
    </radialGradient>
    <radialGradient id="shape_44_fill" cx="0.5934718100890207" cy="0.9977578475336323" r="0.06617211022079875">
      <stop offset="0.0" stop-color="rgb(89, 61, 18)" stop-opacity="1.0"/>
      <stop offset="1.0" stop-color="rgb(165, 76, 7)" stop-opacity="0.6800177693367004"/>
    </radialGradient>
    <radialGradient id="shape_45_fill" cx="0.612759643916914" cy="0.04035874439461883" r="0.06617211022079875">
      <stop offset="0.0" stop-color="rgb(157, 136, 123)" stop-opacity="1.0"/>
      <stop offset="1.0" stop-color="rgb(255, 215, 203)" stop-opacity="1.0"/>
    </radialGradient>
    <radialGradient id="shape_46_fill" cx="0.28635014836795253" cy="0.9977578475336323" r="0.06617211022079875">
      <stop offset="0.0" stop-color="rgb(82, 99, 55)" stop-opacity="1.0"/>
      <stop offset="1.0" stop-color="rgb(91, 93, 31)" stop-opacity="0.5624768733978271"/>
    </radialGradient>
    <radialGradient id="shape_47_fill" cx="0.28635014836795253" cy="0.8183856502242153" r="0.06617211022079875">
      <stop offset="0.0" stop-color="rgb(166, 189, 197)" stop-opacity="1.0"/>
      <stop offset="1.0" stop-color="rgb(243, 255, 255)" stop-opacity="0.44300612807273865"/>
    </radialGradient>
    <radialGradient id="shape_48_fill" cx="0.40801186943620177" cy="0.9977578475336323" r="0.06617211022079875">
      <stop offset="0.0" stop-color="rgb(107, 135, 68)" stop-opacity="1.0"/>
      <stop offset="1.0" stop-color="rgb(126, 133, 56)" stop-opacity="1.0"/>
    </radialGradient>
    <radialGradient id="shape_49_fill" cx="0.19287833827893175" cy="0.3991031390134529" r="0.06617211022079875">
      <stop offset="0.0" stop-color="rgb(92, 100, 54)" stop-opacity="1.0"/>
      <stop offset="1.0" stop-color="rgb(51, 19, 0)" stop-opacity="0.5046920776367188"/>
    </radialGradient>
    <radialGradient id="shape_50_fill" cx="0.6439169139465876" cy="0.7376681614349776" r="0.06617211022079875">
      <stop offset="0.0" stop-color="rgb(65, 56, 25)" stop-opacity="1.0"/>
      <stop offset="1.0" stop-color="rgb(149, 166, 82)" stop-opacity="0.3417132496833801"/>
    </radialGradient>
    <radialGradient id="shape_51_fill" cx="0.5845697329376854" cy="0.6322869955156951" r="0.06617211022079875">
      <stop offset="0.0" stop-color="rgb(75, 68, 60)" stop-opacity="1.0"/>
      <stop offset="1.0" stop-color="rgb(197, 142, 112)" stop-opacity="0.41596198081970215"/>
    </radialGradient>
    <radialGradient id="shape_52_fill" cx="0.2997032640949555" cy="0.6031390134529148" r="0.06617211022079875">
      <stop offset="0.0" stop-color="rgb(107, 158, 118)" stop-opacity="1.0"/>
      <stop offset="1.0" stop-color="rgb(172, 255, 210)" stop-opacity="0.5751737952232361"/>
    </radialGradient>
    <radialGradient id="shape_53_fill" cx="0.6097922848664689" cy="0.45067264573991034" r="0.06617211022079875">
      <stop offset="0.0" stop-color="rgb(38, 39, 27)" stop-opacity="1.0"/>
      <stop offset="1.0" stop-color="rgb(16, 5, 66)" stop-opacity="0.3254806101322174"/>
    </radialGradient>
    <radialGradient id="shape_54_fill" cx="0.6335311572700296" cy="0.426009002822397" r="0.06617211022079875">
      <stop offset="0.0" stop-color="rgb(67, 49, 20)" stop-opacity="1.0"/>
      <stop offset="1.0" stop-color="rgb(182, 93, 39)" stop-opacity="0.421016126871109"/>
    </radialGradient>
    <radialGradient id="shape_55_fill" cx="0.3707168533823257" cy="0.5988430827187851" r="0.066001377049115">
      <stop offset="0.43605936" stop-color="rgb(246, 255, 55)" stop-opacity="0.8310763239860535"/>
      <stop offset="0.16089156" stop-color="rgb(235, 255, 54)" stop-opacity="0.8641447424888611"/>
    </radialGradient>
    <radialGradient id="shape_56_fill" cx="0.5489614243323442" cy="0.600896860986547" r="0.06617211022079875">
      <stop offset="0.0" stop-color="rgb(50, 62, 80)" stop-opacity="1.0"/>
      <stop offset="1.0" stop-color="rgb(36, 91, 255)" stop-opacity="0.4448833167552948"/>
    </radialGradient>
    <radialGradient id="shape_57_fill" cx="0.4094955489614243" cy="0.9035874439461884" r="0.06617211022079875">
      <stop offset="0.0" stop-color="rgb(111, 144, 47)" stop-opacity="1.0"/>
      <stop offset="1.0" stop-color="rgb(214, 255, 64)" stop-opacity="0.7690061330795288"/>
    </radialGradient>
    <radialGradient id="shape_58_fill" cx="0.5281899109792285" cy="0.9977578475336323" r="0.06617211022079875">
      <stop offset="0.0" stop-color="rgb(50, 43, 14)" stop-opacity="1.0"/>
      <stop offset="1.0" stop-color="rgb(87, 59, 18)" stop-opacity="1.0"/>
    </radialGradient>
    <radialGradient id="shape_59_fill" cx="0.5845697329376854" cy="0.7690582959641256" r="0.06617211022079875">
      <stop offset="0.0" stop-color="rgb(61, 63, 58)" stop-opacity="1.0"/>
      <stop offset="1.0" stop-color="rgb(79, 69, 90)" stop-opacity="0.7094918489456177"/>
    </radialGradient>
    <radialGradient id="shape_60_fill" cx="0.5489614243323442" cy="0.9977578475336323" r="0.06617211022079875">
      <stop offset="0.0" stop-color="rgb(140, 131, 64)" stop-opacity="1.0"/>
      <stop offset="1.0" stop-color="rgb(230, 196, 92)" stop-opacity="0.8770974278450012"/>
    </radialGradient>
    <radialGradient id="shape_61_fill" cx="0.6469716601272719" cy="0.96866973740103" r="0.06610439651443979">
      <stop offset="0.463088" stop-color="rgb(240, 185, 61)" stop-opacity="0.9186552166938782"/>
      <stop offset="0.21278743" stop-color="rgb(142, 65, 83)" stop-opacity="0.42861905694007874"/>
    </radialGradient>
    <radialGradient id="shape_62_fill" cx="0.615727002967359" cy="0.3991031390134529" r="0.06617211022079875">
      <stop offset="0.0" stop-color="rgb(55, 47, 13)" stop-opacity="1.0"/>
      <stop offset="1.0" stop-color="rgb(83, 52, 6)" stop-opacity="0.8461758494377136"/>
    </radialGradient>
    <radialGradient id="shape_63_fill" cx="0.6261127596439169" cy="0.7286995515695067" r="0.06617211022079875">
      <stop offset="0.0" stop-color="rgb(79, 66, 32)" stop-opacity="1.0"/>
      <stop offset="1.0" stop-color="rgb(200, 187, 92)" stop-opacity="0.5003535151481628"/>
    </radialGradient>
    <radialGradient id="shape_64_fill" cx="0.40801186943620177" cy="0.12556053811659193" r="0.06617211022079875">
      <stop offset="0.0" stop-color="rgb(76, 66, 59)" stop-opacity="1.0"/>
      <stop offset="1.0" stop-color="rgb(158, 121, 124)" stop-opacity="1.0"/>
    </radialGradient>
    <radialGradient id="shape_65_fill" cx="0.6528189910979229" cy="0.6883408071748879" r="0.06617211022079875">
      <stop offset="0.0" stop-color="rgb(121, 97, 39)" stop-opacity="1.0"/>
      <stop offset="1.0" stop-color="rgb(255, 218, 92)" stop-opacity="1.0"/>
    </radialGradient>
    <radialGradient id="shape_66_fill" cx="0.6520509804745456" cy="0.45733957333415076" r="0.07077115225862679">
      <stop offset="0.25520602" stop-color="rgb(184, 212, 115)" stop-opacity="0.3002946674823761"/>
      <stop offset="0.7610268" stop-color="rgb(0, 16, 0)" stop-opacity="0.054646458476781845"/>
    </radialGradient>
    <radialGradient id="shape_67_fill" cx="0.5979736962021281" cy="0.9948138591954526" r="0.07103340986574438">
      <stop offset="0.83579606" stop-color="rgb(49, 26, 0)" stop-opacity="0.6099159717559814"/>
      <stop offset="1.0" stop-color="rgb(0, 28, 0)" stop-opacity="0.1537780463695526"/>
    </radialGradient>
    <radialGradient id="shape_68_fill" cx="0.49277598214078727" cy="0.998025389530199" r="0.06866569971826027">
      <stop offset="0.39587986" stop-color="rgb(40, 11, 0)" stop-opacity="0.41959187388420105"/>
      <stop offset="1.0" stop-color="rgb(27, 64, 52)" stop-opacity="0.17450611293315887"/>
    </radialGradient>
  </defs>
  <g>
    <path d="M 0.0235007144510746 271.4479064941406 C 16.001201629638672 254.54153442382812 47.14384460449219 257.0606384277344 47.051780700683594 270.8648376464844 C 48.35260772705078 272.653564453125 49.3099250793457 276.2091369628906 57.11298370361328 274.7013244628906 C 57.20475769042969 273.8659973144531 61.85942077636719 273.3004150390625 62.26750183105469 268.8868713378906 C 68.34526062011719 267.72259521484375 100.70915985107422 268.9103698730469 116.77838134765625 269.2128601074219 C 119.37483215332031 271.7047424316406 125.17362976074219 278.2093505859375 126.56378936767578 282.3655090332031 C 134.6237335205078 282.7984313964844 148.02259826660156 280.59490966796875 176.937255859375 290.9029541015625 C 185.3306427001953 283.1593933105469 186.08157348632812 281.2359924316406 206.68763732910156 287.29248046875 C 200.62994384765625 286.8163757324219 198.40521240234375 280.8861999511719 211.2314910888672 267.7077941894531 C 250.19149780273438 264.6557922363281 294.4217529296875 262.35882568359375 310.7484436035156 272.6724548339844 C 348.3417053222656 274.17364501953125 423.2814636230469 274.60772705078125 481.5287780761719 262.8804931640625 C 512.55908203125 257.56585693359375 549.0049438476562 258.7886962890625 548.5035400390625 273.77105712890625 C 546.9996337890625 273.7564392089844 547.0778198242188 262.3564453125 578.297119140625 262.540283203125 C 597.8648071289062 266.8141784667969 612.3211059570312 278.96453857421875 612.3290405273438 279.7413635253906 C 611.6783447265625 265.773193359375 623.8174438476562 265.1914978027344 673.4252319335938 265.70404052734375 C 676.7793579101562 272.2882995605469 679.37158203125 278.8263854980469 678.4677124023438 284.9035339355469 C 676.6203002929688 339.53106689453125 674.7125244140625 391.4860534667969 675.1177368164062 446.4668273925781 C 451.9151306152344 446.6697692871094 228.9889373779297 446.8115539550781 -0.4355686604976654 446.4240417480469 C -0.5173446536064148 389.140869140625 -0.8347819447517395 332.25250244140625 0.0235007144510746 271.4479064941406" stroke-width="0.0" fill="url(#shape_0_fill)"/>
    <path d="M -0.2671035826206207 270.9313049316406 C 35.93415069580078 275.3900451660156 36.5576057434082 274.58306884765625 43.984004974365234 273.10443115234375 C 44.32231521606445 265.800048828125 58.14794158935547 265.5644836425781 81.46988677978516 266.19256591796875 C 113.75460815429688 278.67987060546875 114.09063720703125 279.3109130859375 128.28651428222656 279.16131591796875 C 127.76180267333984 269.923583984375 134.52772521972656 269.1292724609375 144.70555114746094 269.6141357421875 C 185.24774169921875 268.80609130859375 186.1316375732422 268.9178466796875 206.03749084472656 271.6378479003906 C 203.61453247070312 292.16937255859375 204.3550262451172 292.31549072265625 208.694580078125 298.86822509765625 C 213.67355346679688 298.232177734375 268.1712646484375 298.62091064453125 293.2767333984375 301.12640380859375 C 304.6785583496094 306.98541259765625 440.48040771484375 303.8194885253906 460.2518615722656 304.6119384765625 C 473.4871826171875 292.9595947265625 493.3231506347656 293.408447265625 504.599853515625 286.966064453125 C 516.6203002929688 289.4284362792969 521.3496704101562 286.88153076171875 523.2846069335938 286.62420654296875 C 527.3705444335938 285.7654113769531 531.6724853515625 286.03021240234375 533.879150390625 287.2652587890625 C 538.7166137695312 287.6196594238281 540.1993408203125 288.9499206542969 537.8875122070312 311.4350891113281 C 579.7181396484375 292.3553771972656 581.6456909179688 292.87445068359375 601.59423828125 299.45220947265625 C 620.6403198242188 289.39764404296875 629.8316040039062 288.2050476074219 633.6471557617188 288.4806823730469 C 636.9605102539062 274.6827087402344 654.3809814453125 275.147216796875 673.6321411132812 294.2787780761719 C 674.4795532226562 339.7323303222656 674.5194702148438 392.0520324707031 674.1581420898438 446.2807922363281 C 451.4774169921875 446.3905334472656 229.19664001464844 446.25439453125 -0.30765825510025024 446.2476501464844 C -0.21060886979103088 389.403564453125 -0.3107156753540039 333.0142822265625 -0.2671035826206207 270.9313049316406" stroke-width="0.0" fill="url(#shape_1_fill)"/>
    <path d="M -0.019932541996240616 -0.25989267230033875 C 219.69313049316406 0.1040392518043518 439.478759765625 -0.45242562890052795 674.732421875 -0.015574509277939796 C 665.856689453125 10.66973876953125 645.08642578125 34.875362396240234 637.23583984375 49.631465911865234 C 634.45263671875 52.9843635559082 612.0309448242188 91.6455307006836 584.060546875 83.86671447753906 C 576.8603515625 81.23591613769531 564.7654418945312 72.1506576538086 532.300048828125 74.29338836669922 C 531.953857421875 79.68079376220703 528.214111328125 80.44944763183594 522.0554809570312 72.034912109375 C 522.7045288085938 68.93572998046875 499.3330078125 63.91120147705078 498.8936767578125 62.58364486694336 C 493.3569641113281 62.2574348449707 486.1187438964844 61.104103088378906 484.3492126464844 68.80644989013672 C 475.2596740722656 72.85201263427734 476.3230895996094 76.1300277709961 476.7486877441406 80.8956527709961 C 483.4046630859375 100.5285415649414 480.85107421875 120.18699645996094 481.375 123.19379425048828 C 460.2980651855469 116.8296890258789 459.3294677734375 114.88335418701172 450.9137268066406 108.53580474853516 C 435.3795471191406 107.4287338256836 411.7771911621094 101.63683319091797 409.329833984375 105.5290756225586 C 412.911376953125 122.16281127929688 419.7928161621094 129.3566131591797 413.09942626953125 139.32972717285156 C 411.23583984375 152.7229461669922 394.4612731933594 152.1634979248047 394.6286926269531 135.4898681640625 C 383.0142517089844 139.2705078125 382.0400390625 158.10813903808594 370.854248046875 157.8399658203125 C 366.1373596191406 156.24559020996094 363.2135009765625 159.14697265625 353.7130126953125 158.332275390625 C 348.13873291015625 163.63653564453125 345.5414123535156 165.3206024169922 347.593994140625 171.40045166015625 C 343.5621643066406 177.1424102783203 342.01007080078125 176.1097869873047 351.3269958496094 159.48313903808594 C 292.44976806640625 154.9567413330078 291.8988342285156 161.37152099609375 290.5196533203125 170.8144989013672 C 306.30462646484375 185.8542938232422 304.1666259765625 189.12278747558594 307.5210266113281 201.38003540039062 C 307.57952880859375 200.58688354492188 306.40374755859375 198.12945556640625 304.88726806640625 190.2891387939453 C 304.0312805175781 185.66015625 302.7132568359375 184.41590881347656 291.2369689941406 171.0283966064453 C 289.8505554199219 194.5394287109375 289.022216796875 195.95960998535156 289.3700866699219 196.30409240722656 C 289.3891296386719 189.93296813964844 291.6412658691406 181.68484497070312 290.5935974121094 165.27378845214844 C 270.0670166015625 167.9637451171875 265.3890686035156 174.9844207763672 262.15594482421875 173.05577087402344 C 256.324951171875 184.31832885742188 255.93421936035156 189.38485717773438 254.8099365234375 197.1329345703125 C 260.6451721191406 199.2782440185547 260.4526672363281 199.8666229248047 258.084228515625 199.54803466796875 C 257.1127624511719 198.3819122314453 253.89817810058594 196.50991821289062 255.4318084716797 193.9048614501953 C 255.8311309814453 181.09129333496094 262.5819091796875 179.48956298828125 264.0088195800781 161.5818634033203 C 262.2734069824219 157.43313598632812 215.6371612548828 143.81410217285156 212.24310302734375 142.7446746826172 C 187.22816467285156 134.72096252441406 195.48165893554688 106.418212890625 191.19839477539062 86.23873138427734 C 190.81619262695312 84.67138671875 162.987548828125 74.54629516601562 128.83682250976562 57.89049530029297 C 99.54984283447266 38.751346588134766 76.3673324584961 58.98127746582031 47.828857421875 57.006229400634766 C 29.99355125427246 70.52100372314453 1.6994822025299072 69.95792388916016 -0.847467839717865 69.40502166748047 C 0.34183040261268616 43.958133697509766 -0.3314551115036011 22.56187629699707 -0.019932541996240616 -0.25989267230033875" stroke-width="0.0" fill="url(#shape_2_fill)"/>
    <path d="M 87.25243377685547 58.02931594848633 C 88.82245635986328 68.82078552246094 91.7725601196289 68.96453094482422 93.78380584716797 71.9394760131836 C 90.08944702148438 79.972412109375 92.9747085571289 81.88219451904297 89.00341033935547 94.32518768310547 C 95.80738067626953 85.84117889404297 98.12894439697266 86.52543640136719 102.85319519042969 87.76045989990234 C 105.11619567871094 75.12712860107422 105.60733032226562 73.23929595947266 108.16812133789062 73.66495513916016 C 112.7320556640625 86.44241333007812 109.73359680175781 92.32859802246094 117.56929779052734 98.65808868408203 C 115.8428726196289 100.03570556640625 116.97872924804688 109.56382751464844 115.4088363647461 115.06254577636719 C 120.47897338867188 115.3135986328125 128.01910400390625 116.31292724609375 129.78158569335938 112.1150894165039 C 131.18167114257812 111.15159606933594 137.01986694335938 109.83970642089844 136.83050537109375 105.08051300048828 C 136.7023468017578 103.72312927246094 135.60426330566406 101.933837890625 138.15277099609375 100.16387939453125 C 136.57057189941406 93.28675842285156 137.61936950683594 92.94376373291016 137.80728149414062 90.06377410888672 C 137.34628295898438 85.5575942993164 138.52767944335938 85.1141357421875 140.18087768554688 89.35151672363281 C 140.83094787597656 83.3239517211914 146.7145538330078 80.02647399902344 148.60731506347656 78.90205383300781 C 148.16946411132812 93.29931640625 149.58673095703125 94.55220031738281 152.5365753173828 99.71186065673828 C 154.00161743164062 102.50869750976562 149.83700561523438 106.8246841430664 148.89015197753906 106.78514099121094 C 152.2954559326172 109.40540313720703 149.965576171875 113.91200256347656 148.15643310546875 113.1742935180664 C 154.06654357910156 112.96675872802734 158.20921325683594 122.60098266601562 156.99746704101562 123.40548706054688 C 160.67098999023438 124.76994323730469 164.74050903320312 123.41896057128906 169.73072814941406 122.85892486572266 C 174.40000915527344 119.73611450195312 175.79061889648438 121.50743865966797 177.6011505126953 122.4630126953125 C 179.30682373046875 122.73880767822266 180.11904907226562 124.9486312866211 183.68276977539062 127.13938903808594 C 183.92068481445312 130.03009033203125 182.6881561279297 132.71861267089844 185.9400634765625 134.36277770996094 C 188.71945190429688 135.48585510253906 190.14178466796875 137.27020263671875 187.46974182128906 143.818359375 C 197.4997100830078 149.03256225585938 208.8203582763672 153.3090362548828 201.6441192626953 172.5387725830078 C 205.62228393554688 177.22373962402344 206.51022338867188 179.35658264160156 205.0806121826172 181.57289123535156 C 213.53652954101562 181.04246520996094 215.12442016601562 192.8249053955078 212.703125 200.58444213867188 C 204.29397583007812 205.60662841796875 202.96102905273438 206.183349609375 203.47105407714844 210.08053588867188 C 200.3919677734375 210.3903045654297 200.40411376953125 211.84329223632812 198.75909423828125 212.93133544921875 C 196.5257110595703 215.54339599609375 192.76547241210938 215.2486572265625 192.19126892089844 219.73158264160156 C 184.3001251220703 220.54405212402344 183.67611694335938 224.78836059570312 178.1916961669922 230.16148376464844 C 176.42559814453125 233.37982177734375 181.81517028808594 237.59417724609375 181.54220581054688 238.09066772460938 C 181.56591796875 251.97579956054688 185.70220947265625 260.7335510253906 179.9405517578125 264.1340026855469 C 168.5580596923828 270.3572082519531 148.15451049804688 267.54541015625 136.0123748779297 269.5031433105469 C 131.5416259765625 268.8893737792969 128.90199279785156 272.2664794921875 122.89872741699219 275.44879150390625 C 109.1579818725586 276.5566711425781 73.35227966308594 275.85809326171875 72.98860168457031 270.134033203125 C 47.77231979370117 266.80462646484375 56.61012649536133 268.5941162109375 58.42777633666992 273.26397705078125 C 48.7971305847168 276.745849609375 1.064772605895996 272.7073669433594 0.7520911693572998 269.8294372558594 C -6.658200263977051 226.2869415283203 -4.746273040771484 168.2408905029297 1.963890790939331 122.34283447265625 C 10.376215934753418 117.70053100585938 21.35021209716797 113.9722671508789 26.23822784423828 121.81932067871094 C 27.73213768005371 130.03134155273438 35.935394287109375 129.11109924316406 42.08160400390625 131.93138122558594 C 46.11453628540039 130.35765075683594 47.305152893066406 131.40464782714844 49.72785186767578 142.1785125732422 C 50.79142761230469 149.54759216308594 60.95787048339844 148.4130859375 62.66312789916992 146.3297119140625 C 62.13408660888672 137.0059356689453 63.19874954223633 134.15574645996094 62.071006774902344 128.29811096191406 C 68.16047668457031 126.5992660522461 67.67816162109375 124.40867614746094 66.30243682861328 112.6391830444336 C 68.9342041015625 111.14215087890625 67.94490814208984 103.45578002929688 75.41392517089844 100.8798828125 C 74.93785095214844 100.494384765625 77.6767807006836 89.68184661865234 77.37339782714844 85.98101806640625 C 77.31491088867188 82.87268829345703 77.44746398925781 75.25261688232422 85.24017333984375 75.35215759277344 C 83.17556762695312 70.27535247802734 82.64289855957031 67.55436706542969 87.25243377685547 58.02931594848633" stroke-width="0.0" fill="url(#shape_3_fill)"/>
    <path d="M 673.9356689453125 -0.5192553400993347 C 676.1233520507812 47.82096862792969 675.0172119140625 95.90815734863281 682.0823364257812 136.03285217285156 C 679.2033081054688 119.11677551269531 674.1084594726562 119.6131362915039 662.1019287109375 120.01268768310547 C 660.0989379882812 119.56693267822266 654.5499877929688 109.632080078125 650.3734741210938 110.97032165527344 C 649.0205688476562 112.5578842163086 645.0454711914062 150.50311279296875 642.9154663085938 155.6656951904297 C 629.851806640625 154.9199981689453 627.21044921875 142.67115783691406 626.9645385742188 138.4786834716797 C 623.007080078125 137.45111083984375 619.2185668945312 145.44515991210938 615.3908081054688 144.5714569091797 C 611.6814575195312 142.30882263183594 610.1657104492188 143.31126403808594 607.8057250976562 141.0030975341797 C 608.9515991210938 136.795654296875 614.5223388671875 131.00962829589844 601.6270751953125 111.30307006835938 C 598.8082885742188 135.3094940185547 597.712158203125 139.49403381347656 593.0909423828125 142.57589721679688 C 599.1212768554688 145.7833709716797 598.3692016601562 151.3839111328125 597.4727172851562 152.74317932128906 C 587.4234008789062 157.6243438720703 588.509765625 164.72491455078125 578.2288818359375 172.68125915527344 C 572.3174438476562 170.19810485839844 569.5692138671875 158.0174102783203 568.9681396484375 157.5941619873047 C 565.5045166015625 157.79641723632812 563.0140380859375 154.86619567871094 562.0191040039062 148.0631103515625 C 560.0252685546875 151.09310913085938 556.71875 151.18563842773438 555.540771484375 155.37669372558594 C 552.3702392578125 155.82705688476562 550.8427124023438 158.0312957763672 549.1521606445312 158.199951171875 C 547.7278442382812 154.9188232421875 544.7659912109375 154.60011291503906 535.769287109375 152.5491180419922 C 531.9447021484375 154.97067260742188 529.8259887695312 159.26951599121094 523.1493530273438 156.99517822265625 C 519.2486572265625 160.52713012695312 520.331787109375 162.15138244628906 522.82470703125 168.95164489746094 C 517.6307373046875 168.48826599121094 517.3475341796875 171.09335327148438 516.2427368164062 171.6136932373047 C 511.2713623046875 173.32232666015625 509.8157043457031 175.26531982421875 505.6469421386719 174.399169921875 C 502.7329406738281 171.4176483154297 503.08282470703125 169.5029296875 502.982666015625 159.3848419189453 C 488.31182861328125 142.77365112304688 503.1220703125 118.34564971923828 515.2102661132812 124.70113372802734 C 524.83544921875 126.04248809814453 543.0244750976562 108.45986938476562 548.7952270507812 112.86402130126953 C 557.126953125 110.74335479736328 557.0604858398438 109.41036224365234 558.6240234375 108.95233917236328 C 559.5499267578125 107.31061553955078 564.7841796875 103.4315185546875 570.0233764648438 105.02822875976562 C 574.6927490234375 102.45489501953125 573.623291015625 97.78842163085938 579.0943603515625 93.84596252441406 C 588.843505859375 87.90348815917969 590.8507080078125 78.22532653808594 612.3778076171875 78.57050323486328 C 616.9153442382812 73.61351776123047 644.2490844726562 51.29716110229492 645.9733276367188 35.32261657714844 C 644.8569946289062 32.3859977722168 647.95849609375 30.371837615966797 647.4234619140625 29.4466609954834 C 646.8966064453125 28.28707504272461 664.1625366210938 -4.303440093994141 673.9356689453125 -0.5192553400993347" stroke-width="0.0" fill="url(#shape_4_fill)"/>
    <path d="M 151.4691925048828 68.65846252441406 C 152.30438232421875 69.0898666381836 186.0728302001953 85.04596710205078 192.8346405029297 91.25727844238281 C 179.1978302001953 117.91097259521484 217.86691284179688 149.8949737548828 221.25799560546875 154.55471801757812 C 240.7677001953125 169.21707153320312 242.4391326904297 182.23977661132812 240.46987915039062 193.84129333496094 C 237.9690399169922 193.2075653076172 236.06825256347656 186.86318969726562 236.77261352539062 184.06558227539062 C 235.689697265625 183.51718139648438 234.15367126464844 184.31553649902344 231.04541015625 182.66331481933594 C 231.9228515625 184.72119140625 232.25491333007812 192.74151611328125 228.65870666503906 195.66812133789062 C 227.64639282226562 196.6387481689453 227.70477294921875 205.17117309570312 221.07913208007812 207.6433563232422 C 215.07675170898438 206.5740966796875 214.2664031982422 197.89242553710938 214.5473175048828 195.0610809326172 C 212.95269775390625 185.4530792236328 211.89132690429688 184.9627685546875 206.5695343017578 177.42825317382812 C 205.77679443359375 172.6244354248047 206.37631225585938 168.47772216796875 204.23092651367188 159.5274200439453 C 205.60336303710938 153.87521362304688 194.91751098632812 144.58299255371094 193.61988830566406 141.04762268066406 C 189.26736450195312 139.82086181640625 189.15264892578125 135.91233825683594 186.76864624023438 135.91253662109375 C 177.5274200439453 134.096435546875 178.37464904785156 127.6968765258789 183.55491638183594 117.19908142089844 C 179.39073181152344 116.39883422851562 177.4013214111328 117.66609954833984 172.9532928466797 117.7647476196289 C 179.0297088623047 128.1561279296875 177.4239501953125 131.1137237548828 152.30274963378906 130.33688354492188 C 148.73353576660156 129.54966735839844 152.53868103027344 102.80282592773438 154.24911499023438 93.13697814941406 C 152.97247314453125 91.35420227050781 152.64852905273438 87.39022064208984 150.39251708984375 76.2290267944336 C 147.9261016845703 75.88738250732422 147.911376953125 69.1744384765625 151.4691925048828 68.65846252441406" stroke-width="0.0" fill="url(#shape_5_fill)"/>
    <path d="M 614.6946411132812 79.0272216796875 C 618.7982788085938 83.85997772216797 620.4066162109375 87.25270080566406 632.91845703125 85.98875427246094 C 635.9735107421875 86.23283386230469 636.9467163085938 88.75981140136719 641.1525268554688 89.2396011352539 C 642.19287109375 86.64563751220703 665.1253051757812 92.49529266357422 675.0360107421875 98.20104217529297 C 675.4066162109375 110.61923217773438 674.7958984375 125.90557098388672 674.70166015625 151.77505493164062 C 665.66162109375 142.80331420898438 662.7105102539062 136.73919677734375 660.3323364257812 132.05157470703125 C 660.49658203125 123.79727935791016 661.130859375 118.24469757080078 653.7443237304688 112.2702407836914 C 642.123779296875 113.80509948730469 643.6773071289062 142.2250213623047 643.0578002929688 142.8456268310547 C 644.4338989257812 144.39744567871094 642.331298828125 148.15821838378906 644.5486450195312 149.86477661132812 C 640.1641235351562 151.0386962890625 637.9432983398438 152.7608184814453 634.1630249023438 153.5322723388672 C 631.8203735351562 146.149658203125 629.1664428710938 141.39808654785156 630.0147094726562 140.5624237060547 C 628.605224609375 137.03643798828125 622.3704833984375 136.46153259277344 621.2621459960938 139.22198486328125 C 618.7423706054688 140.71484375 619.2901611328125 142.52549743652344 618.4076538085938 149.7465362548828 C 613.3838500976562 144.7747039794922 613.0458984375 143.2365264892578 609.3660278320312 143.74217224121094 C 608.447998046875 140.406982421875 609.5054321289062 139.240478515625 608.6912231445312 137.3972930908203 C 606.2056274414062 132.90536499023438 604.4495849609375 127.4282455444336 600.9356689453125 127.86788940429688 C 606.3189086914062 133.81861877441406 595.7599487304688 148.5216827392578 592.5780639648438 152.15403747558594 C 590.57470703125 163.7570343017578 588.7888793945312 163.8626251220703 586.013671875 169.04348754882812 C 584.5256958007812 167.57196044921875 584.184814453125 167.4231414794922 589.26416015625 153.1696014404297 C 593.5746459960938 141.17564392089844 590.5608520507812 139.41317749023438 574.6851196289062 128.8223876953125 C 574.044677734375 157.77447509765625 557.6744384765625 157.64291381835938 555.9666748046875 151.0350341796875 C 555.7819213867188 152.85546875 553.0618286132812 154.6942138671875 553.0184936523438 157.8876190185547 C 551.4707641601562 161.2951202392578 548.1265869140625 161.17637634277344 547.3577270507812 159.31484985351562 C 544.4069213867188 156.40574645996094 542.78076171875 153.71580505371094 538.7134399414062 155.76165771484375 C 536.7677001953125 158.62896728515625 531.0318603515625 157.90431213378906 529.0830688476562 158.1641845703125 C 526.7420654296875 159.59747314453125 526.9282836914062 163.59849548339844 525.5848388671875 166.82733154296875 C 524.7272338867188 169.59043884277344 523.640869140625 171.61331176757812 519.0496826171875 173.04641723632812 C 515.7755126953125 172.37509155273438 503.5795593261719 171.6604461669922 480.7635192871094 161.5131378173828 C 477.67034912109375 136.37744140625 500.41949462890625 120.33587646484375 514.4351196289062 118.37952423095703 C 528.0286254882812 127.73308563232422 541.7850952148438 108.3520736694336 547.8404541015625 111.5986099243164 C 556.667724609375 111.64420318603516 563.091552734375 112.08572387695312 564.5116577148438 107.14373779296875 C 564.6270141601562 104.41680145263672 566.4744262695312 103.37319946289062 569.8864135742188 104.79657745361328 C 572.3889770507812 101.0404281616211 579.0665893554688 99.96949768066406 587.10107421875 98.38375091552734 C 601.0457153320312 93.64391326904297 602.881103515625 79.87676239013672 614.6946411132812 79.0272216796875" stroke-width="0.0" fill="url(#shape_6_fill)"/>
    <path d="M 0.8539296388626099 90.87527465820312 C 43.602760314941406 106.55513000488281 43.65476989746094 117.3672103881836 50.429752349853516 138.79808044433594 C 82.31793212890625 152.7721405029297 55.710758209228516 213.5332489013672 36.01155090332031 246.61123657226562 C 50.5432014465332 259.2715759277344 49.425376892089844 263.79254150390625 48.31296157836914 265.64117431640625 C 51.58831024169922 254.12049865722656 36.602691650390625 247.04061889648438 21.713844299316406 239.3461456298828 C 6.963794231414795 193.7230682373047 -12.462287902832031 179.14830017089844 0.8539296388626099 90.87527465820312" stroke-width="0.0" fill="url(#shape_7_fill)"/>
    <path d="M 384.5694885253906 197.1579132080078 C 424.8827819824219 188.60546875 426.88055419921875 188.92897033691406 429.8111877441406 204.2710723876953 C 477.48126220703125 188.00567626953125 498.9351806640625 202.15576171875 491.1567687988281 229.3614959716797 C 490.9795837402344 250.50318908691406 486.3268127441406 251.5262451171875 484.93865966796875 252.5166778564453 C 486.5256652832031 259.15863037109375 482.46759033203125 268.7601318359375 476.34185791015625 268.5704345703125 C 469.0447998046875 272.93206787109375 453.2210388183594 266.7112731933594 451.63897705078125 269.7415771484375 C 447.2095947265625 266.3131103515625 448.4582214355469 261.25494384765625 449.2596740722656 260.220703125 C 439.31256103515625 264.9529724121094 436.5380859375 261.5898132324219 437.63140869140625 256.64276123046875 C 427.04034423828125 256.96533203125 425.7117614746094 259.97796630859375 420.8582458496094 262.00921630859375 C 418.486328125 264.1730651855469 417.7793884277344 267.7737121582031 414.97320556640625 273.9690856933594 C 414.1079406738281 271.3648986816406 392.1891784667969 269.709716796875 392.5121765136719 264.2738342285156 C 391.81097412109375 265.1974182128906 388.79461669921875 263.50439453125 385.218994140625 264.4078369140625 C 382.0874938964844 262.0308837890625 380.79974365234375 263.2582092285156 376.3874206542969 261.2594299316406 C 375.16827392578125 256.4228210449219 375.7466125488281 252.89852905273438 370.2048034667969 251.79898071289062 C 360.94415283203125 242.64825439453125 373.90789794921875 194.32911682128906 378.487548828125 177.0363006591797 C 385.06915283203125 171.83473205566406 394.32342529296875 176.93409729003906 384.5694885253906 197.1579132080078" stroke-width="0.0" fill="url(#shape_8_fill)"/>
    <path d="M 566.52734375 157.10342407226562 C 567.8818969726562 159.00543212890625 568.1206665039062 166.62057495117188 569.3226318359375 168.01791381835938 C 573.4938354492188 169.49606323242188 573.6190185546875 171.06591796875 577.5642700195312 174.3789825439453 C 581.9307250976562 172.94601440429688 583.9710693359375 174.56983947753906 583.7080688476562 179.472412109375 C 575.397216796875 180.4751739501953 572.3012084960938 225.61111450195312 577.5750122070312 226.9556427001953 C 577.8945922851562 230.05099487304688 581.7822265625 236.62442016601562 577.2930297851562 242.7232666015625 C 569.0394897460938 238.69932556152344 566.9735717773438 237.19747924804688 558.5180053710938 247.3831329345703 C 553.041259765625 249.21368408203125 499.8918762207031 255.28770446777344 485.079345703125 250.93621826171875 C 486.8609619140625 250.44979858398438 488.642578125 241.3200225830078 497.8309326171875 231.50369262695312 C 486.05523681640625 227.14852905273438 483.066162109375 222.55914306640625 482.859130859375 215.14547729492188 C 477.3785400390625 210.19044494628906 479.9290466308594 205.9720458984375 482.89727783203125 206.20150756835938 C 480.76959228515625 205.22442626953125 481.54730224609375 199.46449279785156 492.81378173828125 199.8101806640625 C 492.69354248046875 196.3985137939453 491.59161376953125 192.52365112304688 491.5130920410156 188.80772399902344 C 487.2333068847656 174.4044647216797 487.8249206542969 173.40892028808594 488.17608642578125 164.2085418701172 C 503.8496398925781 164.54234313964844 504.8045349121094 164.78997802734375 511.94158935546875 159.57386779785156 C 522.0731201171875 169.34835815429688 524.431884765625 167.53924560546875 525.9874877929688 167.2951202392578 C 523.7598876953125 162.4578399658203 531.1738891601562 157.43492126464844 533.1127319335938 159.02789306640625 C 537.4389038085938 162.02487182617188 541.239501953125 162.61192321777344 541.9558715820312 164.22315979003906 C 545.063232421875 164.17897033691406 545.5985717773438 166.05316162109375 550.0267333984375 166.9705047607422 C 549.0253295898438 165.58541870117188 549.9940795898438 157.92149353027344 554.8955078125 158.1876983642578 C 557.856689453125 161.08702087402344 563.0986328125 157.99880981445312 566.52734375 157.10342407226562" stroke-width="0.0" fill="url(#shape_9_fill)"/>
    <path d="M 561.43408203125 156.81785583496094 C 565.0912475585938 152.8699493408203 571.264892578125 156.95982360839844 571.42529296875 174.05767822265625 C 572.5906372070312 169.04779052734375 576.4808959960938 169.01307678222656 579.5670776367188 174.088134765625 C 580.551513671875 178.1180419921875 578.916015625 187.3743438720703 580.4376220703125 190.9422149658203 C 571.3922729492188 196.15184020996094 572.0740356445312 229.96792602539062 578.12353515625 230.9748077392578 C 576.0838623046875 231.16357421875 575.6336059570312 236.87542724609375 572.1384887695312 237.9559326171875 C 560.776123046875 235.76881408691406 567.0518798828125 238.7265167236328 563.21630859375 247.60939025878906 C 549.83203125 253.07923889160156 501.2957763671875 249.20436096191406 500.2093811035156 251.9385223388672 C 491.27093505859375 251.8372802734375 488.07586669921875 237.25515747070312 498.93487548828125 231.7620086669922 C 486.61712646484375 224.91334533691406 481.97711181640625 219.29270935058594 481.957275390625 214.70704650878906 C 475.7515563964844 215.44044494628906 471.9854431152344 215.3322296142578 464.5834045410156 196.33592224121094 C 465.3041687011719 174.90504455566406 481.200439453125 173.924072265625 482.49383544921875 195.25289916992188 C 489.7464599609375 198.07931518554688 494.8752136230469 184.9580841064453 496.61358642578125 182.96981811523438 C 495.29071044921875 178.86886596679688 497.5860900878906 177.6897735595703 500.15008544921875 177.53286743164062 C 507.9371337890625 179.1962127685547 516.5662231445312 181.78033447265625 521.0827026367188 174.17710876464844 C 526.0330200195312 173.536376953125 528.5146484375 159.6873016357422 529.7039184570312 154.47142028808594 C 538.3853149414062 155.6592559814453 539.9391479492188 156.77212524414062 537.3994750976562 165.70384216308594 C 545.7459106445312 166.06866455078125 549.0638427734375 167.54820251464844 551.727294921875 166.72776794433594 C 550.9304809570312 155.05523681640625 552.687744140625 152.95521545410156 561.43408203125 156.81785583496094" stroke-width="0.0" fill="url(#shape_10_fill)"/>
    <path d="M 443.5784912109375 108.7614517211914 C 452.1963195800781 114.11260986328125 453.9133605957031 115.66364288330078 463.21295166015625 106.28671264648438 C 467.3482666015625 113.6107406616211 469.500244140625 112.63142395019531 488.77471923828125 107.50785064697266 C 489.49139404296875 124.43081665039062 488.7767639160156 125.26350402832031 492.35772705078125 130.4481964111328 C 493.3500061035156 132.23062133789062 493.3182373046875 135.65200805664062 496.6177978515625 136.02430725097656 C 494.0276794433594 136.07350158691406 492.9648132324219 139.02662658691406 490.4285583496094 142.19317626953125 C 484.0135192871094 139.23291015625 482.6416320800781 141.8107147216797 481.185302734375 142.61355590820312 C 468.85479736328125 136.49774169921875 467.1134948730469 134.74359130859375 465.52008056640625 134.5841064453125 C 464.256591796875 133.4545440673828 461.0152587890625 134.28404235839844 460.1979675292969 133.5822296142578 C 461.8614501953125 131.97850036621094 481.1431884765625 141.08383178710938 501.0312805175781 156.01914978027344 C 476.9426574707031 176.95401000976562 476.07318115234375 177.66253662109375 482.05279541015625 185.1067352294922 C 468.0145263671875 183.68109130859375 467.26556396484375 188.68894958496094 462.55316162109375 189.86448669433594 C 462.6796569824219 184.55081176757812 461.4209899902344 172.89080810546875 460.7084045410156 157.4876708984375 C 449.5755920410156 182.34051513671875 447.08209228515625 183.4548797607422 439.7569580078125 183.0791015625 C 439.0511169433594 183.8116455078125 435.76287841796875 195.73251342773438 434.992919921875 197.3919219970703 C 427.7447204589844 200.34999084472656 417.4928283691406 180.59339904785156 417.6639099121094 179.853759765625 C 416.9296569824219 180.15521240234375 399.035400390625 181.49545288085938 398.41448974609375 175.02316284179688 C 394.21307373046875 172.9196014404297 389.765625 177.11819458007812 379.4717102050781 174.6173553466797 C 382.62799072265625 157.6303253173828 379.5171203613281 152.05551147460938 392.2135314941406 138.8155517578125 C 398.6497802734375 138.99246215820312 399.9253234863281 130.38894653320312 403.1355895996094 119.71424865722656 C 406.4146728515625 99.1053466796875 423.7447204589844 101.5359115600586 443.5784912109375 108.7614517211914" stroke-width="0.0" fill="url(#shape_11_fill)"/>
    <path d="M 602.8795166015625 127.66175079345703 C 605.3865356445312 130.90155029296875 605.333251953125 143.35919189453125 606.851318359375 145.59190368652344 C 610.681884765625 146.308837890625 610.6257934570312 152.22103881835938 619.8169555664062 154.34683227539062 C 618.0206298828125 149.75880432128906 617.23388671875 141.85804748535156 623.1148071289062 141.0386962890625 C 623.4629516601562 137.37001037597656 625.3900146484375 137.29449462890625 627.1937866210938 140.31629943847656 C 627.0401000976562 142.23170471191406 628.8510131835938 144.85813903808594 629.0576782226562 147.2312774658203 C 632.0726318359375 149.79238891601562 631.6713256835938 151.26290893554688 635.7069091796875 153.66494750976562 C 642.15625 154.12928771972656 642.0415649414062 160.18687438964844 650.079345703125 174.77786254882812 C 639.6124877929688 186.39425659179688 640.5100708007812 195.1827850341797 641.0198974609375 204.5626220703125 C 663.3390502929688 205.95474243164062 664.03759765625 244.07521057128906 642.592041015625 245.35284423828125 C 621.9671020507812 247.89295959472656 610.9654541015625 248.7848358154297 579.017333984375 265.1400451660156 C 575.3087768554688 253.26791381835938 581.2374267578125 229.69976806640625 571.9496459960938 214.44161987304688 C 568.022216796875 208.61666870117188 571.3298950195312 168.8677978515625 583.9100341796875 169.72158813476562 C 596.7661743164062 163.09149169921875 599.989501953125 143.12887573242188 600.3319702148438 142.29075622558594 C 595.8941650390625 140.06578063964844 596.1456909179688 137.49937438964844 602.8795166015625 127.66175079345703" stroke-width="0.0" fill="url(#shape_12_fill)"/>
    <path d="M 412.5262145996094 176.58351135253906 C 418.5072021484375 174.6449432373047 435.1325988769531 213.8230438232422 428.3998107910156 219.73162841796875 C 419.8864440917969 229.092041015625 427.61285400390625 236.6527862548828 431.76190185546875 241.56005859375 C 429.6977233886719 260.4681396484375 417.1439514160156 272.3183288574219 411.5835266113281 267.14459228515625 C 406.9772033691406 264.99041748046875 401.46435546875 271.8896179199219 391.8295593261719 268.4210510253906 C 385.6669006347656 264.9230041503906 382.63970947265625 265.98541259765625 378.37860107421875 265.5943908691406 C 373.03399658203125 266.8302917480469 371.6006164550781 262.27374267578125 374.17431640625 258.19964599609375 C 376.043212890625 256.36346435546875 374.6557312011719 254.65850830078125 375.067626953125 253.8909454345703 C 370.9338684082031 255.8968963623047 368.8157958984375 252.1331024169922 367.8096923828125 251.985595703125 C 360.4676818847656 248.0254669189453 366.5765380859375 229.45933532714844 367.1275939941406 222.42031860351562 C 369.73968505859375 218.58016967773438 371.34967041015625 202.41162109375 384.8990173339844 201.88108825683594 C 378.66815185546875 193.33236694335938 379.6719665527344 191.69598388671875 389.9647216796875 191.6533660888672 C 390.5901184082031 177.37001037597656 392.605712890625 176.76918029785156 412.5262145996094 176.58351135253906" stroke-width="0.0" fill="url(#shape_13_fill)"/>
    <path d="M 507.07147216796875 66.55937957763672 C 506.40618896484375 68.03485870361328 509.624267578125 75.62384796142578 514.6918334960938 91.51727294921875 C 532.2598266601562 79.65958404541016 535.8814697265625 79.62980651855469 537.3657836914062 85.32231140136719 C 538.798583984375 90.91734313964844 544.5326538085938 90.29351043701172 545.0235595703125 91.17814636230469 C 545.53759765625 92.73995971679688 556.15087890625 96.88581848144531 559.5090942382812 95.54151916503906 C 563.2782592773438 97.60929870605469 567.4024658203125 97.18035888671875 568.2030639648438 97.97714233398438 C 563.6536254882812 106.78948974609375 558.7020263671875 116.56443786621094 538.1066284179688 108.68608093261719 C 540.3361206054688 112.16898345947266 540.1358032226562 115.396484375 534.6382446289062 118.4326171875 C 527.1774291992188 120.02761840820312 519.54931640625 124.56484985351562 515.6073608398438 118.54527282714844 C 512.5391845703125 121.90435028076172 501.85491943359375 125.96460723876953 500.75 127.41048431396484 C 498.1781311035156 129.85008239746094 494.2665710449219 129.4362335205078 490.0343933105469 126.21308135986328 C 488.9736328125 116.79766845703125 468.864013671875 118.16975402832031 468.16290283203125 117.404052734375 C 463.5228576660156 117.84733581542969 462.91656494140625 116.64374542236328 461.987060546875 116.31372833251953 C 471.8077697753906 120.91661834716797 474.95758056640625 116.53258514404297 478.00872802734375 113.9713134765625 C 467.6075744628906 102.75497436523438 469.6931457519531 90.14501953125 474.23919677734375 81.76081085205078 C 474.5856628417969 70.93241882324219 475.3382873535156 70.38480377197266 476.9216613769531 65.92595672607422 C 478.2464904785156 63.553035736083984 482.3430480957031 63.646453857421875 483.968994140625 63.377750396728516 C 495.11895751953125 63.20315170288086 504.1218566894531 61.517887115478516 507.07147216796875 66.55937957763672" stroke-width="0.0" fill="url(#shape_14_fill)"/>
    <path d="M 536.399169921875 162.07839965820312 C 544.0570678710938 162.23544311523438 544.3558959960938 163.04345703125 546.4959106445312 165.0183563232422 C 549.8997192382812 167.52850341796875 549.7124633789062 170.162353515625 542.7596435546875 183.38314819335938 C 544.6128540039062 192.66473388671875 535.6649169921875 229.2346954345703 537.1502685546875 232.2533416748047 C 541.400146484375 239.28868103027344 540.8673706054688 252.97604370117188 519.1854248046875 252.20677185058594 C 502.2249450683594 253.70840454101562 481.8077392578125 241.87954711914062 487.5718688964844 230.37942504882812 C 476.685546875 219.7003936767578 478.8908386230469 207.31373596191406 483.2900390625 201.92941284179688 C 486.4618835449219 197.5239715576172 487.97930908203125 197.49229431152344 488.7555236816406 199.3104705810547 C 482.7334289550781 195.4858856201172 488.73870849609375 184.88560485839844 487.3424987792969 174.1255340576172 C 487.6650085449219 167.3588409423828 489.5335388183594 166.40135192871094 490.90582275390625 167.1048583984375 C 505.4514465332031 178.93116760253906 511.3593444824219 184.1501922607422 522.7860717773438 172.82704162597656 C 525.5795288085938 170.97984313964844 525.2689208984375 167.1611785888672 526.0189208984375 164.98570251464844 C 525.2321166992188 160.26048278808594 528.0404663085938 158.2867889404297 536.399169921875 162.07839965820312" stroke-width="0.0" fill="url(#shape_15_fill)"/>
    <path d="M 651.5917358398438 109.34097290039062 C 653.7586669921875 110.63835144042969 664.1256103515625 121.35214233398438 659.8658447265625 132.67181396484375 C 664.0372314453125 136.06443786621094 664.51318359375 143.9610137939453 673.2066650390625 147.6221923828125 C 677.2047729492188 179.18734741210938 673.8908081054688 210.79701232910156 676.2160034179688 267.11920166015625 C 675.1229248046875 265.4713134765625 635.8770751953125 272.9539794921875 631.1278076171875 264.02203369140625 C 635.8712158203125 244.76295471191406 643.7927856445312 124.17203521728516 651.5917358398438 109.34097290039062" stroke-width="0.0" fill="url(#shape_16_fill)"/>
    <path d="M 601.528564453125 128.18856811523438 C 604.1185913085938 128.23423767089844 605.4061889648438 131.7088623046875 606.3270874023438 134.07850646972656 C 608.9608764648438 135.16311645507812 607.0075073242188 141.43280029296875 609.19091796875 143.94387817382812 C 628.9634399414062 143.3175048828125 632.91845703125 215.95530700683594 632.67578125 272.374755859375 C 579.3806762695312 277.2688903808594 574.5413208007812 268.7322998046875 580.2205200195312 242.40696716308594 C 558.4713134765625 225.93519592285156 598.9591674804688 156.7306365966797 601.528564453125 128.18856811523438" stroke-width="0.0" fill="url(#shape_17_fill)"/>
    <path d="M 320.3267517089844 186.08889770507812 C 321.4745788574219 186.3693389892578 321.6170654296875 189.23782348632812 321.3565979003906 200.01727294921875 C 331.3100280761719 193.59730529785156 331.99578857421875 193.50148010253906 336.4199523925781 196.28079223632812 C 345.4405212402344 198.12078857421875 346.1805725097656 197.06700134277344 357.4248352050781 189.71871948242188 C 358.6212158203125 192.3139190673828 359.57275390625 194.4109344482422 356.22900390625 201.85301208496094 C 359.4541320800781 203.99920654296875 361.58648681640625 204.1558380126953 364.8172607421875 210.3760986328125 C 367.3155517578125 207.11288452148438 368.57135009765625 207.82791137695312 368.26141357421875 211.54872131347656 C 370.0542297363281 220.1256866455078 370.29791259765625 223.1062774658203 366.11859130859375 225.59707641601562 C 365.7691345214844 231.5556182861328 363.0776672363281 238.95199584960938 368.37115478515625 248.84152221679688 C 370.42889404296875 253.3083953857422 368.7438049316406 255.77688598632812 357.9396057128906 254.56658935546875 C 355.06402587890625 255.90057373046875 324.339111328125 254.92373657226562 322.52801513671875 255.42703247070312 C 313.237548828125 255.91954040527344 311.9046936035156 253.91677856445312 308.9471740722656 245.9780731201172 C 303.6974792480469 228.95999145507812 320.97705078125 195.73464965820312 320.3267517089844 186.08889770507812" stroke-width="0.0" fill="url(#shape_18_fill)"/>
    <path d="M 483.7792053222656 234.88279724121094 C 506.5364074707031 252.58929443359375 515.803955078125 263.7767333984375 495.4468078613281 280.7620849609375 C 469.9179992675781 280.5843811035156 443.9255676269531 261.911865234375 442.0405578613281 262.36834716796875 C 438.70989990234375 260.5934143066406 436.9923400878906 258.5909423828125 432.54815673828125 258.3129577636719 C 429.8149719238281 258.4954528808594 428.5316162109375 256.73541259765625 430.08203125 253.78907775878906 C 433.48944091796875 237.1609344482422 423.45184326171875 233.83740234375 422.961181640625 229.72901916503906 C 423.077880859375 227.13600158691406 421.06365966796875 226.68655395507812 420.2706604003906 225.06689453125 C 427.3769226074219 219.71275329589844 429.45721435546875 218.8220672607422 428.5528869628906 213.7740478515625 C 446.1611633300781 197.18560791015625 482.36456298828125 196.14735412597656 483.7792053222656 234.88279724121094" stroke-width="0.0" fill="url(#shape_19_fill)"/>
    <path d="M 673.9481811523438 -2.94577693939209 C 675.0673828125 32.84956741333008 674.5833740234375 64.76375579833984 674.6889038085938 97.31739044189453 C 669.2832641601562 96.00133514404297 651.1924438476562 87.41411590576172 645.77880859375 90.10845184326172 C 638.57861328125 89.47901916503906 638.0944213867188 86.07089233398438 637.3156127929688 84.00152587890625 C 626.4320678710938 84.477783203125 620.6358642578125 93.19499969482422 607.9409790039062 86.78406524658203 C 609.709228515625 74.74339294433594 612.1820678710938 73.64712524414062 614.5115356445312 71.53022003173828 C 622.4232788085938 68.78817749023438 648.8115234375 25.104604721069336 647.5281982421875 20.58802604675293 C 655.4808349609375 9.151360511779785 656.595458984375 2.130829334259033 669.0000610351562 3.3282358646392822 C 669.83056640625 2.6953725814819336 670.0848999023438 1.0497695207595825 673.9481811523438 -2.94577693939209" stroke-width="0.0" fill="url(#shape_20_fill)"/>
    <path d="M 561.568359375 156.168212890625 C 569.7908935546875 156.5706024169922 570.3610229492188 161.00953674316406 572.0963745117188 166.08724975585938 C 581.3828735351562 168.3437957763672 570.951171875 230.4381103515625 577.83447265625 240.5758819580078 C 580.0682373046875 244.89389038085938 579.7872924804688 247.12814331054688 578.0111694335938 271.1057434082031 C 535.2879638671875 270.53955078125 531.00390625 267.8210144042969 537.28466796875 248.5896453857422 C 545.9784545898438 244.80516052246094 549.7562866210938 168.5477752685547 555.4351806640625 156.76405334472656 C 555.5798950195312 152.62554931640625 559.9889526367188 151.598876953125 561.568359375 156.168212890625" stroke-width="0.0" fill="url(#shape_21_fill)"/>
    <path d="M 215.0305633544922 210.44058227539062 C 235.03749084472656 208.17984008789062 238.7077178955078 240.0740966796875 225.1192626953125 257.5216979980469 C 211.3474578857422 262.821533203125 208.9792022705078 263.4269714355469 208.8549346923828 273.04754638671875 C 205.79266357421875 275.2803649902344 206.73313903808594 277.0529479980469 205.510498046875 279.3584899902344 C 206.63954162597656 282.78173828125 202.86895751953125 285.7650146484375 202.0672607421875 284.8940734863281 C 202.50892639160156 282.9568786621094 190.34503173828125 272.31494140625 188.11788940429688 263.2790832519531 C 186.6409912109375 261.447265625 184.03648376464844 263.22467041015625 181.4058837890625 263.6705017089844 C 181.0177764892578 261.25677490234375 180.0458526611328 259.6265869140625 178.41539001464844 251.6105499267578 C 178.9217987060547 247.76242065429688 168.89669799804688 242.36083984375 170.6855926513672 238.6688995361328 C 175.22523498535156 213.58102416992188 177.1346893310547 212.9327850341797 185.5012969970703 220.44224548339844 C 193.64614868164062 219.81907653808594 194.02149963378906 215.03831481933594 198.59133911132812 213.4888916015625 C 184.34983825683594 205.60951232910156 184.40260314941406 200.27439880371094 201.0410919189453 197.56991577148438 C 212.6820526123047 192.59422302246094 214.930908203125 194.886474609375 215.0305633544922 210.44058227539062" stroke-width="0.0" fill="url(#shape_22_fill)"/>
    <path d="M 111.72844696044922 426.1581115722656 C 112.7508773803711 429.28662109375 111.06082916259766 431.2130432128906 110.65828704833984 431.3786315917969 C 104.96644592285156 432.683349609375 103.22561645507812 433.80975341796875 91.97206115722656 433.075927734375 C 89.77603149414062 435.97210693359375 95.65977478027344 446.421630859375 91.57608032226562 452.1399841308594 C 78.66380310058594 444.9972229003906 46.938175201416016 447.9271240234375 25.324657440185547 449.6080322265625 C 14.05362319946289 446.1658935546875 13.908472061157227 439.7420654296875 17.983901977539062 436.32867431640625 C 35.498497009277344 427.59368896484375 49.43031692504883 426.6581115722656 73.44408416748047 427.0471496582031 C 73.56084442138672 423.8467712402344 110.01055908203125 420.56072998046875 111.72844696044922 426.1581115722656" stroke-width="0.0" fill="url(#shape_23_fill)"/>
    <path d="M 198.49249267578125 121.40846252441406 C 211.58238220214844 115.1112060546875 225.46531677246094 132.7421112060547 220.6387939453125 141.94439697265625 C 216.32537841796875 147.8970489501953 218.5596466064453 150.38723754882812 220.293212890625 154.6793670654297 C 228.21803283691406 158.7102508544922 247.5557861328125 175.36444091796875 244.7751922607422 199.00001525878906 C 239.137451171875 199.59861755371094 235.6785125732422 187.03054809570312 232.31826782226562 179.81304931640625 C 234.768310546875 187.1554718017578 233.44625854492188 195.96327209472656 230.50900268554688 197.13006591796875 C 228.2116241455078 197.06875610351562 225.8172149658203 202.5669708251953 220.17434692382812 208.71224975585938 C 214.80824279785156 207.83148193359375 213.4811248779297 202.13792419433594 211.7906036376953 198.302001953125 C 211.30621337890625 190.8821563720703 211.5693817138672 183.16317749023438 206.79238891601562 177.642333984375 C 203.84063720703125 174.05276489257812 204.89527893066406 172.997802734375 205.77198791503906 168.0784149169922 C 202.5883026123047 147.5357208251953 199.529296875 146.9412841796875 192.11753845214844 143.83302307128906 C 189.44491577148438 142.41236877441406 191.29869079589844 127.5558090209961 198.49249267578125 121.40846252441406" stroke-width="0.0" fill="url(#shape_24_fill)"/>
    <path d="M 589.6683349609375 401.4753112792969 C 601.8289794921875 404.7972412109375 629.933349609375 403.8260498046875 638.7572021484375 409.80670166015625 C 636.739013671875 424.79583740234375 631.8059692382812 427.6841735839844 629.3584594726562 425.89483642578125 C 630.5776977539062 427.8238830566406 636.156494140625 428.0265808105469 639.9725341796875 436.4473876953125 C 618.9398803710938 448.12451171875 578.9405517578125 438.5807800292969 572.3316040039062 434.89422607421875 C 567.6577758789062 427.3171691894531 573.8854370117188 419.5867614746094 577.220703125 412.7864685058594 C 578.073974609375 411.1178283691406 585.6990966796875 413.4947814941406 589.6683349609375 401.4753112792969" stroke-width="0.0" fill="url(#shape_25_fill)"/>
    <path d="M 142.87889099121094 67.02131652832031 C 144.00323486328125 68.67758178710938 149.0631866455078 67.95220184326172 149.71664428710938 68.81402587890625 C 148.85440063476562 70.91690063476562 150.4237518310547 71.8321533203125 149.46510314941406 73.96441650390625 C 151.033935546875 74.51593017578125 150.1566619873047 78.7406005859375 149.45697021484375 92.79026794433594 C 152.03424072265625 92.9980697631836 154.83349609375 95.37925720214844 152.89987182617188 104.13206481933594 C 153.1778564453125 107.72936248779297 155.05191040039062 108.5285873413086 155.76626586914062 111.08196258544922 C 157.234375 123.4922866821289 154.7701873779297 133.4736328125 149.80323791503906 133.55661010742188 C 140.1477508544922 128.8936767578125 137.94644165039062 117.8267593383789 125.985595703125 116.47154998779297 C 121.81396484375 113.75141143798828 123.36917114257812 109.6497802734375 126.1781997680664 107.19194030761719 C 128.53993225097656 106.76029205322266 129.02549743652344 105.2755355834961 132.5214080810547 105.02523040771484 C 138.7023468017578 96.23273468017578 135.32180786132812 92.97277069091797 132.6947784423828 89.04420471191406 C 134.04562377929688 88.15552520751953 139.45315551757812 88.01688385009766 140.6089324951172 85.40653991699219 C 138.20169067382812 84.70153045654297 138.8237762451172 78.0401840209961 139.96243286132812 77.35730743408203 C 144.07424926757812 76.41492462158203 143.0067596435547 71.2401351928711 142.87889099121094 67.02131652832031" stroke-width="0.0" fill="url(#shape_26_fill)"/>
    <path d="M 139.5020751953125 67.7804946899414 C 149.1956787109375 66.76792907714844 149.48532104492188 67.87713623046875 148.77679443359375 77.4063949584961 C 150.5200653076172 78.2894287109375 151.1636505126953 80.78002166748047 155.00531005859375 85.33876037597656 C 149.9588165283203 90.34883117675781 155.12551879882812 95.89228057861328 150.94003295898438 105.23902130126953 C 152.73912048339844 106.08670043945312 153.681396484375 109.77751922607422 155.4532470703125 113.00749206542969 C 152.96914672851562 115.88333129882812 157.7250213623047 122.05635833740234 153.1910400390625 126.34248352050781 C 152.48085021972656 132.01171875 151.30812072753906 133.1644744873047 147.5867156982422 134.67330932617188 C 142.12147521972656 130.72862243652344 128.19967651367188 122.30956268310547 129.61474609375 117.60223388671875 C 124.24356079101562 118.40467071533203 122.79679870605469 112.8907699584961 128.41558837890625 110.66047668457031 C 122.79263305664062 107.52383422851562 124.54924774169922 104.00811004638672 132.92335510253906 107.97452545166016 C 136.88427734375 105.94034576416016 133.3102264404297 92.72354125976562 132.6642608642578 89.17540740966797 C 139.4118194580078 87.7844467163086 138.87445068359375 85.24581146240234 138.99920654296875 81.12785339355469 C 139.06446838378906 77.48847198486328 140.36151123046875 76.81319427490234 142.51475524902344 78.34744262695312 C 145.24295043945312 71.86524200439453 142.7005157470703 70.37517547607422 139.5020751953125 67.7804946899414" stroke-width="0.0" fill="url(#shape_27_fill)"/>
    <path d="M -0.4430902302265167 -0.2786363959312439 C 4.7345967292785645 0.38951191306114197 9.683807373046875 -0.5335739254951477 18.65814208984375 -0.8997982740402222 C 25.518369674682617 -1.8468539714813232 26.0474796295166 -1.0519423484802246 57.742225646972656 0.3578043580055237 C 53.22933578491211 25.613401412963867 28.95553207397461 22.856189727783203 28.13042449951172 28.39516830444336 C 63.03157043457031 7.227833271026611 72.04271697998047 6.881363868713379 75.81724548339844 56.465431213378906 C 33.532318115234375 58.46660232543945 22.707157135009766 61.393531799316406 20.037790298461914 53.95972442626953 C 16.737279891967773 39.3445930480957 11.264970779418945 38.34064865112305 9.966691017150879 33.62675094604492 C 10.10361385345459 35.78512191772461 14.523125648498535 39.26689147949219 14.615346908569336 41.024513244628906 C 16.191057205200195 42.158843994140625 16.09907341003418 44.55836486816406 18.166196823120117 47.88066864013672 C 20.07163429260254 51.07352066040039 18.768596649169922 52.305023193359375 23.015893936157227 57.822105407714844 C 24.21724510192871 70.56178283691406 9.059453010559082 72.9054946899414 7.0555524826049805 61.886627197265625 C 5.113461971282959 61.004295349121094 3.5744264125823975 59.11799240112305 0.3113965094089508 59.44947814941406 C -0.3219795525074005 39.80720901489258 -0.3251289427280426 19.637855529785156 -0.4430902302265167 -0.2786363959312439" stroke-width="0.0" fill="url(#shape_28_fill)"/>
    <path d="M 298.2039794921875 197.2998046875 C 297.74932861328125 199.5040740966797 300.74749755859375 202.15626525878906 301.6138610839844 209.05064392089844 C 300.41546630859375 214.37644958496094 325.7879943847656 222.19680786132812 315.9501953125 255.51028442382812 C 311.898193359375 254.7064208984375 310.4977722167969 255.74412536621094 304.306640625 255.0261688232422 C 303.9523620605469 258.10577392578125 297.7735900878906 258.3457336425781 281.3616638183594 256.4974670410156 C 276.5350646972656 223.5391845703125 285.217041015625 221.88233947753906 298.2039794921875 197.2998046875" stroke-width="0.0" fill="url(#shape_29_fill)"/>
    <path d="M 0.003663009963929653 -0.1427392214536667 C 4.627586364746094 0.4593113958835602 9.84332275390625 -0.4079875946044922 14.762090682983398 0.08835560083389282 C 15.986769676208496 0.46790915727615356 16.800342559814453 1.9912168979644775 16.62387466430664 7.8721842765808105 C 18.746517181396484 11.03223705291748 21.318395614624023 19.198959350585938 27.95092010498047 20.503190994262695 C 27.34807586669922 22.634679794311523 23.446683883666992 26.706684112548828 26.245010375976562 31.968788146972656 C 20.67111587524414 32.54373550415039 11.375494956970215 30.298141479492188 3.5360827445983887 33.45360565185547 C 8.798893928527832 36.270660400390625 8.630970001220703 39.195152282714844 10.86176586151123 40.466976165771484 C 10.524911880493164 42.737388610839844 7.364262104034424 49.351558685302734 11.754417419433594 53.79780960083008 C 17.785703659057617 51.020973205566406 19.455385208129883 51.4470329284668 18.470155715942383 58.40747833251953 C 11.321770668029785 60.7168083190918 9.426529884338379 62.386962890625 0.17477476596832275 61.655601501464844 C -0.4289558529853821 39.980525970458984 -0.35472649335861206 19.756778717041016 0.003663009963929653 -0.1427392214536667" stroke-width="0.0" fill="url(#shape_30_fill)"/>
    <path d="M 549.0409545898438 70.72258758544922 C 546.7582397460938 78.57774353027344 576.7989501953125 89.27275085449219 581.396484375 91.86290740966797 C 581.0093383789062 93.02611541748047 577.5487060546875 93.3982925415039 577.5230102539062 98.33939361572266 C 573.2974853515625 100.68558502197266 572.05126953125 99.80235290527344 569.48876953125 100.04351043701172 C 567.0272216796875 94.08585357666016 547.4210205078125 98.64088439941406 538.8877563476562 88.26525115966797 C 538.2481079101562 85.53406524658203 538.795654296875 82.83787536621094 535.9154052734375 81.73707580566406 C 533.915283203125 81.09895324707031 527.1299438476562 79.44252014160156 526.9904174804688 78.00914764404297 C 524.9725341796875 75.8696060180664 527.7402954101562 70.86170196533203 531.7838745117188 68.945068359375 C 539.2889404296875 66.81950378417969 542.8275756835938 71.4732666015625 549.0409545898438 70.72258758544922" stroke-width="0.0" fill="url(#shape_31_fill)"/>
    <path d="M 446.88665771484375 264.4638671875 C 450.59674072265625 265.3380432128906 451.2354736328125 266.78240966796875 455.4812316894531 267.8912048339844 C 460.5113830566406 267.6551208496094 465.32232666015625 270.3759765625 469.96722412109375 272.9774169921875 C 470.4309997558594 275.6334533691406 471.828857421875 276.8868713378906 471.6768798828125 280.78717041015625 C 452.4239807128906 287.219482421875 431.3993225097656 284.17034912109375 415.8352355957031 285.1340026855469 C 413.3388366699219 273.87158203125 413.904296875 272.2678527832031 415.13067626953125 267.9162292480469 C 418.1712646484375 267.1866149902344 417.6858215332031 264.7616882324219 419.2965087890625 262.7995910644531 C 445.0557556152344 250.30844116210938 447.2850036621094 251.4632568359375 446.88665771484375 264.4638671875" stroke-width="0.0" fill="url(#shape_32_fill)"/>
    <path d="M 272.9656982421875 192.04415893554688 C 274.0172424316406 192.37503051757812 288.484130859375 243.7476348876953 282.8333740234375 249.81996154785156 C 279.7122497558594 249.98292541503906 274.1437072753906 247.99563598632812 269.0414123535156 250.42906188964844 C 266.0115966796875 246.88259887695312 266.34344482421875 243.10317993164062 260.73504638671875 240.70668029785156 C 254.8399658203125 208.39048767089844 262.1441650390625 205.16278076171875 272.9656982421875 192.04415893554688" stroke-width="0.0" fill="url(#shape_33_fill)"/>
    <path d="M 270.3314208984375 405.9942932128906 C 262.1510009765625 429.80255126953125 264.2070617675781 430.9085998535156 267.4111022949219 440.6536560058594 C 262.4917907714844 440.8432922363281 260.6852722167969 446.4197082519531 258.62298583984375 447.8636474609375 C 245.53924560546875 446.1753234863281 213.0262451171875 448.6212158203125 212.17401123046875 445.1518859863281 C 213.02130126953125 436.99578857421875 213.95974731445312 436.22137451171875 216.1005401611328 434.8023376464844 C 216.55580139160156 433.69293212890625 225.12844848632812 434.14617919921875 226.863037109375 431.1581726074219 C 226.1321258544922 417.3070373535156 230.6678924560547 416.61126708984375 270.3314208984375 405.9942932128906" stroke-width="0.0" fill="url(#shape_34_fill)"/>
    <path d="M 105.57955169677734 69.57840728759766 C 110.43195343017578 69.63746643066406 110.44352722167969 78.30831909179688 112.85147094726562 85.27233123779297 C 117.99075317382812 86.39366149902344 115.81824493408203 110.00283813476562 118.97084045410156 110.67848205566406 C 116.66227722167969 112.46610260009766 109.35707092285156 114.18051147460938 107.01097106933594 124.99887084960938 C 104.55451202392578 117.12114715576172 96.47525787353516 118.9254150390625 87.49488067626953 106.6576919555664 C 86.04437255859375 85.64527893066406 106.26963806152344 84.16255187988281 105.57955169677734 69.57840728759766" stroke-width="0.0" fill="url(#shape_35_fill)"/>
    <path d="M 451.1924743652344 178.4775848388672 C 454.2625732421875 176.06649780273438 456.39373779296875 177.78123474121094 455.0726623535156 180.33810424804688 C 455.8116760253906 180.91378784179688 454.9575500488281 184.89398193359375 456.064697265625 186.85765075683594 C 456.455322265625 188.42498779296875 459.3820495605469 193.67251586914062 458.620849609375 204.4765167236328 C 458.8255920410156 208.28822326660156 453.3048095703125 210.28302001953125 446.0069885253906 204.41189575195312 C 442.2577819824219 206.70599365234375 440.69769287109375 209.36561584472656 431.93505859375 210.8572235107422 C 436.0370178222656 209.91726684570312 436.9659729003906 187.218505859375 437.6747131347656 173.51797485351562 C 440.0899963378906 178.7569580078125 440.8111267089844 181.23233032226562 446.8716735839844 181.62826538085938 C 447.9590759277344 179.74639892578125 450.1527404785156 179.72718811035156 451.1924743652344 178.4775848388672" stroke-width="0.0" fill="url(#shape_36_fill)"/>
    <path d="M 558.3599243164062 84.6891098022461 C 559.6694946289062 80.0678939819336 578.3422241210938 83.31053924560547 579.291748046875 85.0009994506836 C 581.3350219726562 83.07633209228516 586.2980346679688 84.94676971435547 588.441162109375 88.80916595458984 C 598.8193969726562 111.68878173828125 588.3847045898438 118.2084732055664 574.3033447265625 100.9521713256836 C 573.7887573242188 99.44660186767578 549.974853515625 96.77159118652344 548.9801635742188 86.62740325927734 C 539.2069702148438 86.97727966308594 537.7886352539062 85.42372131347656 536.8338012695312 79.88420867919922 C 543.3137817382812 74.6623306274414 546.8013916015625 78.89623260498047 558.3599243164062 84.6891098022461" stroke-width="0.0" fill="url(#shape_37_fill)"/>
    <path d="M 251.6610870361328 206.53343200683594 C 265.97027587890625 215.44338989257812 261.3624267578125 233.99632263183594 260.06597900390625 248.8133544921875 C 259.94842529296875 254.6891632080078 251.5314178466797 255.29164123535156 248.8411102294922 256.9082946777344 C 234.1591339111328 236.11993408203125 240.59144592285156 216.35484313964844 251.6610870361328 206.53343200683594" stroke-width="0.0" fill="url(#shape_38_fill)"/>
    <path d="M 442.22027587890625 262.948486328125 C 445.98980712890625 263.41754150390625 449.2181701660156 266.6808166503906 447.9383239746094 270.0830383300781 C 444.6692810058594 270.4041442871094 442.6748046875 277.35784912109375 440.070068359375 277.3432922363281 C 438.0738525390625 286.8695983886719 430.8027648925781 286.17572021484375 417.51348876953125 275.2789306640625 C 414.36248779296875 276.6839599609375 413.1998596191406 274.1868591308594 416.423583984375 271.5863342285156 C 414.8093566894531 269.91204833984375 419.2642822265625 262.2735595703125 425.2102355957031 258.52056884765625 C 426.97174072265625 257.8885803222656 440.6904296875 257.6846923828125 442.22027587890625 262.948486328125" stroke-width="0.0" fill="url(#shape_39_fill)"/>
    <path d="M 407.6399230957031 409.95294189453125 C 408.6284484863281 409.926025390625 416.7639465332031 419.173828125 414.3025817871094 424.44097900390625 C 398.5856018066406 435.3760070800781 386.3893127441406 420.495849609375 376.5323791503906 420.89385986328125 C 371.0681457519531 417.96270751953125 371.2244567871094 416.5549011230469 372.5849609375 410.5398254394531 C 375.6144714355469 400.99188232421875 391.7062683105469 404.0455322265625 407.6399230957031 409.95294189453125" stroke-width="0.0" fill="url(#shape_40_fill)"/>
    <path d="M 66.64604949951172 427.347900390625 C 67.20307159423828 428.9186096191406 63.865299224853516 431.7981872558594 58.58063888549805 434.0408020019531 C 57.33931350708008 435.77899169921875 42.6636962890625 435.4429016113281 30.98723030090332 443.37060546875 C 28.981403350830078 443.4390563964844 26.82442283630371 444.17205810546875 17.412702560424805 442.5523376464844 C 16.464603424072266 440.6541748046875 18.092178344726562 439.2092590332031 17.398956298828125 437.7339782714844 C 36.535194396972656 427.021484375 51.09096145629883 428.5472412109375 66.64604949951172 427.347900390625" stroke-width="0.0" fill="url(#shape_41_fill)"/>
    <path d="M 276.28924560546875 381.0943603515625 C 285.035400390625 381.5327453613281 299.4726867675781 379.7470703125 313.5612487792969 384.8606262207031 C 296.69073486328125 394.38067626953125 299.2896423339844 401.14886474609375 294.58868408203125 405.25018310546875 C 291.7834167480469 400.1502990722656 268.346923828125 407.5758972167969 257.58270263671875 410.1767883300781 C 236.25140380859375 420.3419189453125 228.6471710205078 416.7361145019531 227.60475158691406 383.7582092285156 C 259.724609375 377.88165283203125 266.10260009765625 382.2632141113281 276.28924560546875 381.0943603515625" stroke-width="0.0" fill="url(#shape_42_fill)"/>
    <path d="M 222.6788787841797 209.0594940185547 C 224.22576904296875 206.4072265625 238.50552368164062 206.21864318847656 238.89056396484375 209.80776977539062 C 242.88473510742188 221.949951171875 243.72512817382812 245.16282653808594 256.35394287109375 270.6188049316406 C 252.4090118408203 276.6097717285156 243.52755737304688 273.5635681152344 208.10739135742188 272.3857116699219 C 208.589111328125 266.24346923828125 206.18954467773438 250.86331176757812 216.0911865234375 247.52574157714844 C 219.15753173828125 246.45083618164062 218.49920654296875 226.42796325683594 222.6788787841797 209.0594940185547" stroke-width="0.0" fill="url(#shape_43_fill)"/>
    <path d="M 483.56243896484375 396.165771484375 C 486.714111328125 399.5627746582031 485.79547119140625 400.97430419921875 483.33258056640625 400.9677734375 C 468.996337890625 407.51129150390625 451.1646423339844 406.943359375 450.29888916015625 407.47705078125 C 448.3912658691406 404.44647216796875 451.8218078613281 396.2260437011719 453.72515869140625 396.52911376953125 C 466.8464050292969 393.3852844238281 470.9897155761719 392.4343566894531 483.56243896484375 396.165771484375" stroke-width="0.0" fill="url(#shape_44_fill)"/>
    <path d="M 45.90863037109375 408.1545715332031 C 45.24570083618164 407.8392333984375 35.91597366333008 412.8678894042969 31.835649490356445 412.4817199707031 C 32.060909271240234 414.230712890625 31.708215713500977 415.6490783691406 28.041383743286133 414.9909362792969 C 26.926280975341797 416.3099365234375 23.777055740356445 416.9160461425781 20.422250747680664 419.7975769042969 C 18.77040672302246 420.13671875 0.1860833615064621 417.5342102050781 -0.686480700969696 420.4916687011719 C 2.0657317638397217 419.4044494628906 -1.1750658750534058 411.1808776855469 1.009418249130249 410.1852722167969 C 5.7496113777160645 409.707275390625 45.47488784790039 406.2525329589844 45.90863037109375 408.1545715332031" stroke-width="0.0" fill="url(#shape_45_fill)"/>
    <path d="M 452.4736022949219 173.45664978027344 C 453.8509826660156 174.9383544921875 464.4373474121094 198.65179443359375 467.4122619628906 199.69923400878906 C 462.5834045410156 209.1196746826172 451.000244140625 209.13018798828125 449.4426574707031 206.51434326171875 C 448.29669189453125 203.2743377685547 448.9305114746094 198.3259735107422 448.85089111328125 195.29678344726562 C 447.9675598144531 194.57534790039062 447.5821533203125 192.03094482421875 448.5250244140625 187.98277282714844 C 450.9586486816406 186.6385040283203 450.1285400390625 182.45848083496094 452.4736022949219 173.45664978027344" stroke-width="0.0" fill="url(#shape_46_fill)"/>
    <path d="M 372.04583740234375 183.84645080566406 C 380.01226806640625 198.41650390625 380.1701965332031 202.5862274169922 371.8801574707031 205.9019012451172 C 365.8683776855469 206.840576171875 364.772216796875 204.74929809570312 361.591064453125 206.08705139160156 C 339.505615234375 212.4796142578125 334.96600341796875 200.4436798095703 353.343017578125 189.4058074951172 C 356.7103271484375 184.9854278564453 358.37908935546875 184.35885620117188 368.19091796875 185.45689392089844 C 369.0292663574219 182.77317810058594 371.4079284667969 182.9278564453125 372.04583740234375 183.84645080566406" stroke-width="0.0" fill="url(#shape_47_fill)"/>
    <path d="M 473.2314147949219 264.416748046875 C 473.7437744140625 268.8727111816406 481.1800842285156 271.58441162109375 484.7789306640625 283.39276123046875 C 467.1781921386719 287.9412841796875 445.3721618652344 286.9811096191406 443.8113098144531 284.9132080078125 C 439.3337707519531 282.09490966796875 439.9990539550781 276.9674072265625 440.98162841796875 276.2836608886719 C 449.3582763671875 266.5248107910156 455.9092102050781 261.61260986328125 473.2314147949219 264.416748046875" stroke-width="0.0" fill="url(#shape_48_fill)"/>
    <path d="M 176.48326110839844 116.66849517822266 C 178.20066833496094 115.62886047363281 181.7204132080078 116.13875579833984 182.7316131591797 117.19187927246094 C 184.62863159179688 120.0875473022461 183.93359375 121.74765014648438 184.74404907226562 123.31903076171875 C 179.4215087890625 128.25836181640625 185.5511016845703 137.03033447265625 183.0617218017578 139.13442993164062 C 181.53492736816406 146.21209716796875 172.81947326660156 146.3231201171875 172.42037963867188 146.85191345214844 C 172.92088317871094 126.95838165283203 171.08999633789062 124.40150451660156 176.48326110839844 116.66849517822266" stroke-width="0.0" fill="url(#shape_49_fill)"/>
    <path d="M 333.5131530761719 426.9621276855469 C 335.7293395996094 429.8883361816406 342.77801513671875 429.45648193359375 343.7559509277344 431.49395751953125 C 346.38128662109375 435.56207275390625 345.15838623046875 437.2071228027344 342.2496032714844 437.4683837890625 C 342.42413330078125 447.3395690917969 325.5459289550781 448.8018493652344 323.5513916015625 445.7572021484375 C 321.5777587890625 436.14495849609375 321.5907897949219 432.7143859863281 305.0311584472656 430.9122314453125 C 317.41314697265625 424.62481689453125 327.0916442871094 431.0467834472656 333.5131530761719 426.9621276855469" stroke-width="0.0" fill="url(#shape_50_fill)"/>
    <path d="M 322.3940124511719 388.8910217285156 C 315.9741516113281 396.59552001953125 293.0787353515625 395.2656555175781 291.5265197753906 398.9864501953125 C 279.10028076171875 397.68609619140625 277.85150146484375 398.9518737792969 271.2378845214844 402.21759033203125 C 271.2985534667969 401.5944519042969 270.1314697265625 398.8892822265625 271.8190002441406 397.5135192871094 C 270.4643249511719 395.59539794921875 273.6553955078125 388.7341613769531 280.073486328125 388.4701843261719 C 284.2341003417969 386.8580627441406 288.47113037109375 390.24896240234375 322.3940124511719 388.8910217285156" stroke-width="0.0" fill="url(#shape_51_fill)"/>
    <path d="M 269.0209045410156 187.6752166748047 C 278.18719482421875 195.3803253173828 276.8227844238281 207.7311248779297 280.2294921875 217.39779663085938 C 271.54534912109375 210.48126220703125 269.5888977050781 208.4859619140625 260.1763000488281 217.34002685546875 C 258.2435607910156 208.8779754638672 262.6624450683594 195.20628356933594 267.9306640625 195.8263397216797 C 269.6963195800781 194.1613006591797 268.83367919921875 191.55740356445312 269.0209045410156 187.6752166748047" stroke-width="0.0" fill="url(#shape_52_fill)"/>
    <path d="M 218.5850067138672 409.3373107910156 C 215.88087463378906 410.8907165527344 215.80618286132812 413.3572692871094 214.3159637451172 415.47265625 C 214.63406372070312 424.0688171386719 195.62387084960938 425.2645568847656 187.74929809570312 415.6680603027344 C 186.38499450683594 403.4996032714844 209.53594970703125 398.5231628417969 218.5850067138672 409.3373107910156" stroke-width="0.0" fill="url(#shape_53_fill)"/>
    <path d="M 206.0379638671875 424.6354675292969 C 205.43551635742188 425.2132263183594 206.15261840820312 428.3022155761719 204.5449676513672 428.7601623535156 C 194.71730041503906 429.4489440917969 178.83290100097656 430.10107421875 178.1305694580078 432.7137451171875 C 176.985595703125 430.93988037109375 178.59205627441406 425.94091796875 177.2633819580078 423.8592529296875 C 187.22982788085938 418.6063232421875 192.3145751953125 423.3173522949219 206.0379638671875 424.6354675292969" stroke-width="0.0" fill="url(#shape_54_fill)"/>
    <path d="M 269.00653076171875 248.27999877929688 C 275.2300720214844 245.05780029296875 276.7400817871094 247.90188598632812 279.01806640625 249.28033447265625 C 281.1047058105469 251.00637817382812 280.7654113769531 252.15432739257812 294.652587890625 273.505126953125 C 263.4696044921875 258.1921691894531 262.8865966796875 257.514404296875 248.8823699951172 269.477783203125 C 254.81240844726562 248.1731414794922 255.93455505371094 247.25997924804688 258.79730224609375 245.22654724121094 C 261.1445617675781 240.1787872314453 263.1197509765625 239.3445281982422 269.00653076171875 248.27999877929688" stroke-width="0.0" fill="url(#shape_55_fill)"/>
    <path d="M 292.1248474121094 333.31390380859375 C 288.0348205566406 362.6517333984375 288.6416015625 363.4258117675781 285.6307373046875 368.04779052734375 C 285.57867431640625 369.222900390625 286.1085510253906 371.7597961425781 285.4196472167969 381.6205749511719 C 268.2347412109375 379.2755432128906 255.132568359375 380.5854797363281 232.12686157226562 382.57672119140625 C 227.88441467285156 382.6941833496094 227.26077270507812 369.4559326171875 236.56117248535156 345.0649108886719 C 237.58412170410156 334.8935852050781 238.78675842285156 331.8169250488281 292.1248474121094 333.31390380859375" stroke-width="0.0" fill="url(#shape_56_fill)"/>
    <path d="M 407.92047119140625 271.8719177246094 C 412.4799499511719 270.98150634765625 417.7778015136719 275.9891357421875 425.7483825683594 281.947021484375 C 416.3728942871094 283.40728759765625 412.45263671875 275.51470947265625 373.06304931640625 274.4497375488281 C 374.8934020996094 262.4432678222656 382.72607421875 263.3016662597656 407.92047119140625 271.8719177246094" stroke-width="0.0" fill="url(#shape_57_fill)"/>
    <path d="M 632.1227416992188 352.5724182128906 C 632.981689453125 354.36749267578125 661.1246337890625 355.3430480957031 668.4728393554688 355.82421875 C 668.4226684570312 357.9687194824219 662.9893188476562 360.10272216796875 660.1931762695312 356.51568603515625 C 644.1716918945312 356.69781494140625 636.8230590820312 358.71063232421875 631.7609252929688 359.3873291015625 C 627.9423217773438 357.36053466796875 629.6121215820312 353.7178039550781 632.1227416992188 352.5724182128906" stroke-width="0.0" fill="url(#shape_58_fill)"/>
    <path d="M 341.3983459472656 384.5866394042969 C 342.8473205566406 390.05718994140625 358.1580810546875 391.57293701171875 359.15789794921875 394.5526123046875 C 356.5911865234375 398.5301818847656 339.77703857421875 401.29437255859375 338.2707214355469 399.5756530761719 C 335.1358642578125 399.64068603515625 333.0499572753906 398.79296875 331.8204040527344 396.5372619628906 C 331.99456787109375 394.93994140625 330.73883056640625 393.4737243652344 332.22760009765625 390.5679931640625 C 332.65106201171875 384.824462890625 335.24395751953125 383.7462463378906 341.3983459472656 384.5866394042969" stroke-width="0.0" fill="url(#shape_59_fill)"/>
    <path d="M 457.7716064453125 365.0394592285156 C 461.607421875 361.9280700683594 474.47119140625 372.23406982421875 473.2498474121094 374.6385803222656 C 471.8154602050781 376.2423095703125 470.33636474609375 376.8185729980469 463.7305603027344 375.87353515625 C 458.95391845703125 376.69049072265625 456.9293518066406 377.1020812988281 452.7808532714844 371.1910095214844 C 453.37884521484375 370.087890625 458.5107421875 368.32196044921875 457.7716064453125 365.0394592285156" stroke-width="0.0" fill="url(#shape_60_fill)"/>
    <path d="M 428.1942443847656 432.3108825683594 C 439.9727783203125 434.19830322265625 442.369873046875 436.7584228515625 442.1189270019531 438.60968017578125 C 440.2550048828125 440.7394714355469 427.2489318847656 439.3542175292969 425.67913818359375 441.9604187011719 C 422.5561828613281 437.5600280761719 423.91082763671875 434.698486328125 410.1102600097656 425.24945068359375 C 427.6743469238281 427.9844970703125 428.9516906738281 431.62469482421875 428.1942443847656 432.3108825683594" stroke-width="0.0" fill="url(#shape_61_fill)"/>
    <path d="M 185.3856964111328 411.45281982421875 C 186.23971557617188 413.8905029296875 185.04920959472656 414.82061767578125 186.83096313476562 417.7020568847656 C 184.87936401367188 420.2381591796875 183.37753295898438 419.4801940917969 182.54702758789062 419.8113098144531 C 180.8388214111328 421.6640625 174.47434997558594 420.1191711425781 171.84033203125 419.9232482910156 C 169.6160430908203 417.5204162597656 169.79124450683594 415.6223449707031 175.17962646484375 412.1614685058594 C 176.64930725097656 413.6967468261719 180.0203094482422 410.48065185546875 185.3856964111328 411.45281982421875" stroke-width="0.0" fill="url(#shape_62_fill)"/>
    <path d="M 331.7291564941406 418.9374084472656 C 334.1892395019531 425.5678405761719 329.8384094238281 427.76702880859375 327.1988220214844 425.3939208984375 C 324.45306396484375 427.71917724609375 322.9427490234375 426.6683654785156 321.9735412597656 427.2614440917969 C 319.0330505371094 425.9345397949219 320.121826171875 419.9385681152344 317.67938232421875 418.5345458984375 C 318.9543151855469 420.3962707519531 325.64404296875 418.48516845703125 331.7291564941406 418.9374084472656" stroke-width="0.0" fill="url(#shape_63_fill)"/>
    <path d="M 55.650360107421875 274.4622497558594 C 56.7672119140625 269.876708984375 64.115234375 271.2593078613281 62.918270111083984 278.7330322265625 C 59.83513641357422 278.3787841796875 54.08324432373047 272.2484130859375 48.81119918823242 276.518310546875 C 51.56782913208008 273.9851379394531 53.09907913208008 273.4566345214844 55.650360107421875 274.4622497558594" stroke-width="0.0" fill="url(#shape_64_fill)"/>
    <path d="M 304.7079772949219 440.35125732421875 C 304.564208984375 437.80657958984375 306.4134521484375 436.9132080078125 313.23492431640625 437.7399597167969 C 314.3470153808594 439.63372802734375 312.8170166015625 441.03900146484375 310.7232360839844 441.1438293457031 C 307.8025207519531 445.1372985839844 306.428955078125 444.177734375 305.1164245605469 443.7397766113281 C 302.5966796875 441.7147216796875 303.3797607421875 440.3708801269531 304.7079772949219 440.35125732421875" stroke-width="0.0" fill="url(#shape_65_fill)"/>
    <path d="M -0.6040122509002686 -0.4222608208656311 C 224.67282104492188 -0.11801538616418839 444.0980224609375 0.31426364183425903 672.3665771484375 0.1372324824333191 C 673.38623046875 155.74754333496094 674.7996215820312 295.7611389160156 673.7753295898438 445.46923828125 C 450.0145568847656 446.3140869140625 229.95411682128906 446.32275390625 0.44958019256591797 445.5405578613281 C 0.17773295938968658 297.2782287597656 -0.23087941110134125 149.5845184326172 -0.6040122509002686 -0.4222608208656311" stroke-width="0.0" fill="url(#shape_66_fill)"/>
    <path d="M -1.149908423423767 -0.24007204174995422 C 222.9002685546875 -0.14062166213989258 442.87518310546875 0.40776702761650085 672.288818359375 -0.26083019375801086 C 673.3963623046875 156.93760681152344 674.8507690429688 295.4490661621094 673.4072265625 445.39324951171875 C 450.33111572265625 446.3722839355469 230.04351806640625 446.3528747558594 0.49456730484962463 445.4811706542969 C 0.023525582626461983 297.6333312988281 -0.3089785575866699 149.2262725830078 -1.149908423423767 -0.24007204174995422" stroke-width="0.0" fill="url(#shape_67_fill)"/>
    <path d="M -0.7357316017150879 -0.28769651055336 C 223.57444763183594 -0.1964256465435028 441.5519104003906 0.5404300689697266 672.5496826171875 -0.33806896209716797 C 673.5340576171875 155.88365173339844 674.8528442382812 295.208740234375 673.3930053710938 445.3924255371094 C 450.3346862792969 446.37432861328125 230.12335205078125 446.3477783203125 1.1012694835662842 445.44781494140625 C 0.47109976410865784 295.760498046875 0.056080903857946396 148.5780792236328 -0.7357316017150879 -0.28769651055336" stroke-width="0.0" fill="url(#shape_68_fill)"/>
  </g>
</svg>
