<?xml version="1.0" ?>
<svg xmlns="http://www.w3.org/2000/svg" version="1.1" width="674" height="446">
  <defs>
    <radialGradient id="shape_0_fill" cx="0.5339018598154673" cy="0.7402684506814041" r="0.27928886073986925">
      <stop offset="0.7602482" stop-color="rgb(162, 178, 0)" stop-opacity="0.8515704274177551"/>
      <stop offset="1.0" stop-color="rgb(50, 46, 0)" stop-opacity="1.0"/>
    </radialGradient>
    <radialGradient id="shape_1_fill" cx="0.5354842913256909" cy="0.7441009384634248" r="0.20635961425056798">
      <stop offset="0.5205303" stop-color="rgb(74, 74, 69)" stop-opacity="0.7844083309173584"/>
      <stop offset="1.0" stop-color="rgb(31, 12, 0)" stop-opacity="0.6237887740135193"/>
    </radialGradient>
    <radialGradient id="shape_2_fill" cx="0.09792273546892387" cy="0.7376672719091578" r="0.22062588021026522">
      <stop offset="0.0" stop-color="rgb(36, 96, 183)" stop-opacity="0.9560325741767883"/>
      <stop offset="0.98651487" stop-color="rgb(8, 103, 255)" stop-opacity="0.9232889413833618"/>
    </radialGradient>
    <radialGradient id="shape_3_fill" cx="0.27702302112069965" cy="0.21561801380106152" r="0.12938244194234513">
      <stop offset="0.39616778" stop-color="rgb(137, 193, 5)" stop-opacity="0.7934120893478394"/>
      <stop offset="1.0" stop-color="rgb(37, 40, 0)" stop-opacity="0.9448572993278503"/>
    </radialGradient>
    <radialGradient id="shape_4_fill" cx="0.1543026706231454" cy="0.9977578475336323" r="0.10288926755639141">
      <stop offset="0.0" stop-color="rgb(81, 79, 86)" stop-opacity="1.0"/>
      <stop offset="1.0" stop-color="rgb(68, 64, 79)" stop-opacity="0.8951667547225952"/>
    </radialGradient>
    <radialGradient id="shape_5_fill" cx="0.14807964290992442" cy="0.23997249517740155" r="0.11810664960821587">
      <stop offset="0.0" stop-color="rgb(255, 255, 255)" stop-opacity="0.6465655565261841"/>
      <stop offset="0.5626593" stop-color="rgb(255, 255, 255)" stop-opacity="0.5679358839988708"/>
    </radialGradient>
    <radialGradient id="shape_6_fill" cx="0.18397626112759644" cy="0.9977578475336323" r="0.0754974885934892">
      <stop offset="0.0" stop-color="rgb(93, 90, 94)" stop-opacity="1.0"/>
      <stop offset="1.0" stop-color="rgb(145, 130, 132)" stop-opacity="0.9254974126815796"/>
    </radialGradient>
    <radialGradient id="shape_7_fill" cx="0.2893175074183976" cy="0.05829596412556054" r="0.08666390552011372">
      <stop offset="0.0" stop-color="rgb(55, 66, 29)" stop-opacity="1.0"/>
      <stop offset="1.0" stop-color="rgb(111, 129, 47)" stop-opacity="0.5495964884757996"/>
    </radialGradient>
    <radialGradient id="shape_8_fill" cx="0.3382789091115889" cy="0.9439461883408071" r="0.06756690277190167">
      <stop offset="0.0" stop-color="rgb(91, 124, 45)" stop-opacity="1.0"/>
      <stop offset="1.0" stop-color="rgb(115, 172, 56)" stop-opacity="0.6948162317276001"/>
    </radialGradient>
    <radialGradient id="shape_9_fill" cx="0.30712166172106825" cy="0.9977578475336323" r="0.0730758406641929">
      <stop offset="0.0" stop-color="rgb(38, 48, 20)" stop-opacity="1.0"/>
      <stop offset="1.0" stop-color="rgb(32, 32, 48)" stop-opacity="1.0"/>
    </radialGradient>
    <radialGradient id="shape_10_fill" cx="0.3056379821958457" cy="0.9977578475336323" r="0.06792919147615971">
      <stop offset="0.0" stop-color="rgb(39, 49, 21)" stop-opacity="1.0"/>
      <stop offset="1.0" stop-color="rgb(38, 23, 0)" stop-opacity="0.6858506798744202"/>
    </radialGradient>
    <radialGradient id="shape_11_fill" cx="0.21810089020771514" cy="0.968609865470852" r="0.06792919147615971">
      <stop offset="0.0" stop-color="rgb(138, 135, 129)" stop-opacity="1.0"/>
      <stop offset="1.0" stop-color="rgb(155, 123, 90)" stop-opacity="0.4677780270576477"/>
    </radialGradient>
    <radialGradient id="shape_12_fill" cx="0.29080118694362017" cy="0.9977578475336323" r="0.07480746985189285">
      <stop offset="0.0" stop-color="rgb(22, 25, 13)" stop-opacity="1.0"/>
      <stop offset="1.0" stop-color="rgb(37, 40, 7)" stop-opacity="0.9958380460739136"/>
    </radialGradient>
    <radialGradient id="shape_13_fill" cx="0.327893175074184" cy="0.8923766816143498" r="0.06900465877544279">
      <stop offset="0.0" stop-color="rgb(89, 117, 50)" stop-opacity="1.0"/>
      <stop offset="1.0" stop-color="rgb(103, 140, 13)" stop-opacity="0.6752113699913025"/>
    </radialGradient>
    <radialGradient id="shape_14_fill" cx="0.142433234421365" cy="0.9977578475336323" r="0.06617211022079875">
      <stop offset="0.0" stop-color="rgb(155, 150, 153)" stop-opacity="1.0"/>
      <stop offset="1.0" stop-color="rgb(255, 220, 204)" stop-opacity="0.2129853367805481"/>
    </radialGradient>
    <radialGradient id="shape_15_fill" cx="0.31008902077151335" cy="0.9977578475336323" r="0.06683642786405207">
      <stop offset="0.0" stop-color="rgb(43, 55, 23)" stop-opacity="1.0"/>
      <stop offset="1.0" stop-color="rgb(58, 68, 19)" stop-opacity="0.9320371747016907"/>
    </radialGradient>
    <radialGradient id="shape_16_fill" cx="0.27299703264094954" cy="0.9977578475336323" r="0.08110449363640579">
      <stop offset="0.0" stop-color="rgb(31, 35, 19)" stop-opacity="1.0"/>
      <stop offset="1.0" stop-color="rgb(31, 31, 0)" stop-opacity="0.9664707183837891"/>
    </radialGradient>
    <radialGradient id="shape_17_fill" cx="0.2893175074183976" cy="0.9977578475336323" r="0.07513486030193747">
      <stop offset="0.0" stop-color="rgb(22, 23, 13)" stop-opacity="1.0"/>
      <stop offset="1.0" stop-color="rgb(20, 18, 0)" stop-opacity="0.8513344526290894"/>
    </radialGradient>
    <radialGradient id="shape_18_fill" cx="0.3293768545994065" cy="0.7556053811659192" r="0.06617211022079875">
      <stop offset="0.0" stop-color="rgb(83, 108, 65)" stop-opacity="1.0"/>
      <stop offset="1.0" stop-color="rgb(110, 134, 60)" stop-opacity="0.9794812202453613"/>
    </radialGradient>
    <radialGradient id="shape_19_fill" cx="0.3516320474777448" cy="0.9977578475336323" r="0.06617211022079875">
      <stop offset="0.0" stop-color="rgb(95, 135, 39)" stop-opacity="1.0"/>
      <stop offset="1.0" stop-color="rgb(140, 203, 5)" stop-opacity="0.7456448078155518"/>
    </radialGradient>
    <radialGradient id="shape_20_fill" cx="0.0830860534124629" cy="0.9977578475336323" r="0.06792919147615971">
      <stop offset="0.0" stop-color="rgb(49, 52, 66)" stop-opacity="1.0"/>
      <stop offset="1.0" stop-color="rgb(25, 14, 53)" stop-opacity="0.39306458830833435"/>
    </radialGradient>
    <radialGradient id="shape_21_fill" cx="0.29821958456973297" cy="0.9977578475336323" r="0.06792919147615971">
      <stop offset="0.0" stop-color="rgb(33, 40, 17)" stop-opacity="1.0"/>
      <stop offset="1.0" stop-color="rgb(42, 57, 0)" stop-opacity="0.6881910562515259"/>
    </radialGradient>
    <radialGradient id="shape_22_fill" cx="0.3563326600751113" cy="0.4437244569239595" r="0.06594546966099951">
      <stop offset="0.52352643" stop-color="rgb(105, 143, 15)" stop-opacity="0.9732570648193359"/>
      <stop offset="0.38925716" stop-color="rgb(150, 185, 38)" stop-opacity="0.9123165011405945"/>
    </radialGradient>
    <radialGradient id="shape_23_fill" cx="0.6454005934718101" cy="0.1412556053811659" r="0.06617211022079875">
      <stop offset="0.0" stop-color="rgb(46, 38, 13)" stop-opacity="1.0"/>
      <stop offset="1.0" stop-color="rgb(52, 31, 0)" stop-opacity="0.8804063200950623"/>
    </radialGradient>
    <radialGradient id="shape_24_fill" cx="0.24925732258873098" cy="0.48430544592339897" r="0.06617138010811735">
      <stop offset="0.0" stop-color="rgb(201, 209, 206)" stop-opacity="1.0"/>
      <stop offset="0.9766002" stop-color="rgb(255, 255, 255)" stop-opacity="0.5814396739006042"/>
    </radialGradient>
    <radialGradient id="shape_25_fill" cx="0.6320474777448071" cy="0.9977578475336323" r="0.06617211022079875">
      <stop offset="0.0" stop-color="rgb(35, 28, 8)" stop-opacity="1.0"/>
      <stop offset="1.0" stop-color="rgb(39, 16, 0)" stop-opacity="0.5676735639572144"/>
    </radialGradient>
    <radialGradient id="shape_26_fill" cx="0.15414520399506793" cy="0.3207086811151205" r="0.06604698362265567">
      <stop offset="0.11989566" stop-color="rgb(198, 211, 155)" stop-opacity="1.0"/>
      <stop offset="0.58338004" stop-color="rgb(115, 114, 253)" stop-opacity="0.001506904256530106"/>
    </radialGradient>
    <radialGradient id="shape_27_fill" cx="0.15410647972401242" cy="0.3208032787648017" r="0.06604505929465818">
      <stop offset="0.0" stop-color="rgb(192, 205, 0)" stop-opacity="1.0"/>
      <stop offset="0.49375948" stop-color="rgb(77, 73, 48)" stop-opacity="0.6170105338096619"/>
    </radialGradient>
    <radialGradient id="shape_28_fill" cx="0.03678826691488837" cy="0.017237095554847887" r="0.06868872373677148">
      <stop offset="0.14275284" stop-color="rgb(5, 28, 124)" stop-opacity="0.9819822311401367"/>
      <stop offset="0.7914003" stop-color="rgb(5, 27, 161)" stop-opacity="0.7451533675193787"/>
    </radialGradient>
    <radialGradient id="shape_29_fill" cx="0.33976258863681147" cy="0.6659192825112108" r="0.06617211022079875">
      <stop offset="0.0" stop-color="rgb(90, 117, 55)" stop-opacity="1.0"/>
      <stop offset="1.0" stop-color="rgb(110, 142, 29)" stop-opacity="0.8812375068664551"/>
    </radialGradient>
    <radialGradient id="shape_30_fill" cx="0.039644269631948954" cy="0.016694436693405357" r="0.06861083373117871">
      <stop offset="0.26112288" stop-color="rgb(47, 74, 71)" stop-opacity="1.0"/>
      <stop offset="0.9199527" stop-color="rgb(57, 65, 12)" stop-opacity="0.5640618801116943"/>
    </radialGradient>
    <radialGradient id="shape_31_fill" cx="0.12314540059347182" cy="0.9977578475336323" r="0.06617211022079875">
      <stop offset="0.0" stop-color="rgb(95, 103, 98)" stop-opacity="1.0"/>
      <stop offset="1.0" stop-color="rgb(136, 127, 114)" stop-opacity="0.7387889623641968"/>
    </radialGradient>
    <radialGradient id="shape_32_fill" cx="0.4035608308605341" cy="0.984304932735426" r="0.06617211022079875">
      <stop offset="0.0" stop-color="rgb(126, 155, 63)" stop-opacity="1.0"/>
      <stop offset="1.0" stop-color="rgb(140, 129, 29)" stop-opacity="0.9747215509414673"/>
    </radialGradient>
    <radialGradient id="shape_33_fill" cx="0.3249258160237389" cy="0.6053811659192825" r="0.06617211022079875">
      <stop offset="0.0" stop-color="rgb(93, 124, 71)" stop-opacity="1.0"/>
      <stop offset="1.0" stop-color="rgb(128, 155, 57)" stop-opacity="1.0"/>
    </radialGradient>
    <radialGradient id="shape_34_fill" cx="0.6468842729970327" cy="0.531390134529148" r="0.06617211022079875">
      <stop offset="0.0" stop-color="rgb(54, 47, 24)" stop-opacity="1.0"/>
      <stop offset="1.0" stop-color="rgb(51, 17, 22)" stop-opacity="0.42015114426612854"/>
    </radialGradient>
    <radialGradient id="shape_35_fill" cx="0.14694314611417958" cy="0.239647185321346" r="0.0692777378976522">
      <stop offset="0.059861027" stop-color="rgb(195, 255, 79)" stop-opacity="0.15956491231918335"/>
      <stop offset="0.57059044" stop-color="rgb(112, 92, 61)" stop-opacity="0.7868676781654358"/>
    </radialGradient>
    <radialGradient id="shape_36_fill" cx="0.2878338278931751" cy="0.9977578475336323" r="0.06617211022079875">
      <stop offset="0.0" stop-color="rgb(80, 96, 53)" stop-opacity="1.0"/>
      <stop offset="1.0" stop-color="rgb(36, 37, 0)" stop-opacity="0.7857633233070374"/>
    </radialGradient>
    <radialGradient id="shape_37_fill" cx="0.129080118694362" cy="0.9977578475336323" r="0.06617211022079875">
      <stop offset="0.0" stop-color="rgb(87, 97, 81)" stop-opacity="1.0"/>
      <stop offset="1.0" stop-color="rgb(66, 76, 54)" stop-opacity="0.5905008316040039"/>
    </radialGradient>
    <radialGradient id="shape_38_fill" cx="0.33892324204260943" cy="0.5607740119968294" r="0.0666785763703751">
      <stop offset="0.7501433" stop-color="rgb(83, 114, 21)" stop-opacity="0.9074305295944214"/>
      <stop offset="0.6022492" stop-color="rgb(170, 255, 79)" stop-opacity="0.8862766623497009"/>
    </radialGradient>
    <radialGradient id="shape_39_fill" cx="0.40059347181008903" cy="0.9641255605381166" r="0.06617211022079875">
      <stop offset="0.0" stop-color="rgb(138, 168, 60)" stop-opacity="1.0"/>
      <stop offset="1.0" stop-color="rgb(217, 255, 82)" stop-opacity="1.0"/>
    </radialGradient>
    <radialGradient id="shape_40_fill" cx="0.6132098913900222" cy="0.8781600062622618" r="0.06985105746577684">
      <stop offset="0.35690543" stop-color="rgb(158, 144, 147)" stop-opacity="0.4450992941856384"/>
      <stop offset="0.50569916" stop-color="rgb(0, 14, 70)" stop-opacity="0.9970059990882874"/>
    </radialGradient>
    <radialGradient id="shape_41_fill" cx="0.6454005934718101" cy="0.08744394618834081" r="0.06617211022079875">
      <stop offset="0.0" stop-color="rgb(58, 48, 21)" stop-opacity="1.0"/>
      <stop offset="1.0" stop-color="rgb(90, 63, 18)" stop-opacity="1.0"/>
    </radialGradient>
    <radialGradient id="shape_42_fill" cx="0.5845697329376854" cy="0.6188340807174888" r="0.06617211022079875">
      <stop offset="0.0" stop-color="rgb(62, 59, 56)" stop-opacity="1.0"/>
      <stop offset="1.0" stop-color="rgb(34, 30, 80)" stop-opacity="0.5931405425071716"/>
    </radialGradient>
    <radialGradient id="shape_43_fill" cx="0.3553488077678737" cy="0.5025474308852123" r="0.06926898786505181">
      <stop offset="0.24014835" stop-color="rgb(118, 160, 49)" stop-opacity="0.9035394191741943"/>
      <stop offset="0.57533234" stop-color="rgb(204, 255, 29)" stop-opacity="0.8386417627334595"/>
    </radialGradient>
    <radialGradient id="shape_44_fill" cx="0.5934718100890207" cy="0.9977578475336323" r="0.06617211022079875">
      <stop offset="0.0" stop-color="rgb(89, 61, 18)" stop-opacity="1.0"/>
      <stop offset="1.0" stop-color="rgb(163, 83, 0)" stop-opacity="0.7482266426086426"/>
    </radialGradient>
    <radialGradient id="shape_45_fill" cx="0.612759643916914" cy="0.04035874439461883" r="0.06617211022079875">
      <stop offset="0.0" stop-color="rgb(157, 136, 123)" stop-opacity="1.0"/>
      <stop offset="1.0" stop-color="rgb(255, 225, 205)" stop-opacity="1.0"/>
    </radialGradient>
    <radialGradient id="shape_46_fill" cx="0.28635014836795253" cy="0.9977578475336323" r="0.06617211022079875">
      <stop offset="0.0" stop-color="rgb(82, 99, 55)" stop-opacity="1.0"/>
      <stop offset="1.0" stop-color="rgb(91, 107, 28)" stop-opacity="0.5895131826400757"/>
    </radialGradient>
    <radialGradient id="shape_47_fill" cx="0.28635014836795253" cy="0.8183856502242153" r="0.06617211022079875">
      <stop offset="0.0" stop-color="rgb(166, 189, 197)" stop-opacity="1.0"/>
      <stop offset="1.0" stop-color="rgb(255, 255, 255)" stop-opacity="0.45332998037338257"/>
    </radialGradient>
    <radialGradient id="shape_48_fill" cx="0.40801186943620177" cy="0.9977578475336323" r="0.06617211022079875">
      <stop offset="0.0" stop-color="rgb(107, 135, 68)" stop-opacity="1.0"/>
      <stop offset="1.0" stop-color="rgb(129, 146, 55)" stop-opacity="1.0"/>
    </radialGradient>
    <radialGradient id="shape_49_fill" cx="0.19287833827893175" cy="0.3991031390134529" r="0.06617211022079875">
      <stop offset="0.0" stop-color="rgb(92, 100, 54)" stop-opacity="1.0"/>
      <stop offset="1.0" stop-color="rgb(61, 39, 1)" stop-opacity="0.5223832130432129"/>
    </radialGradient>
    <radialGradient id="shape_50_fill" cx="0.6439169139465876" cy="0.7376681614349776" r="0.06617211022079875">
      <stop offset="0.0" stop-color="rgb(65, 56, 25)" stop-opacity="1.0"/>
      <stop offset="1.0" stop-color="rgb(152, 191, 102)" stop-opacity="0.444245308637619"/>
    </radialGradient>
    <radialGradient id="shape_51_fill" cx="0.5845697329376854" cy="0.6322869955156951" r="0.06617211022079875">
      <stop offset="0.0" stop-color="rgb(75, 68, 60)" stop-opacity="1.0"/>
      <stop offset="1.0" stop-color="rgb(144, 113, 90)" stop-opacity="0.6761512160301208"/>
    </radialGradient>
    <radialGradient id="shape_52_fill" cx="0.2997032640949555" cy="0.6031390134529148" r="0.06617211022079875">
      <stop offset="0.0" stop-color="rgb(107, 158, 118)" stop-opacity="1.0"/>
      <stop offset="1.0" stop-color="rgb(183, 255, 240)" stop-opacity="0.5308082699775696"/>
    </radialGradient>
    <radialGradient id="shape_53_fill" cx="0.6097922848664689" cy="0.45067264573991034" r="0.06617211022079875">
      <stop offset="0.0" stop-color="rgb(38, 39, 27)" stop-opacity="1.0"/>
      <stop offset="1.0" stop-color="rgb(18, 13, 48)" stop-opacity="0.369823157787323"/>
    </radialGradient>
    <radialGradient id="shape_54_fill" cx="0.6335311572700296" cy="0.426009002822397" r="0.06617211022079875">
      <stop offset="0.0" stop-color="rgb(67, 49, 20)" stop-opacity="1.0"/>
      <stop offset="1.0" stop-color="rgb(137, 78, 20)" stop-opacity="0.6547453999519348"/>
    </radialGradient>
    <radialGradient id="shape_55_fill" cx="0.3707168533823257" cy="0.5988430827187851" r="0.066001377049115">
      <stop offset="0.43605936" stop-color="rgb(238, 255, 45)" stop-opacity="0.8635686039924622"/>
      <stop offset="0.16089156" stop-color="rgb(204, 255, 0)" stop-opacity="0.7356858849525452"/>
    </radialGradient>
    <radialGradient id="shape_56_fill" cx="0.5489614243323442" cy="0.600896860986547" r="0.06617211022079875">
      <stop offset="0.0" stop-color="rgb(50, 62, 80)" stop-opacity="1.0"/>
      <stop offset="1.0" stop-color="rgb(28, 76, 229)" stop-opacity="0.4504169821739197"/>
    </radialGradient>
    <radialGradient id="shape_57_fill" cx="0.4094955489614243" cy="0.9035874439461884" r="0.06617211022079875">
      <stop offset="0.0" stop-color="rgb(111, 144, 47)" stop-opacity="1.0"/>
      <stop offset="1.0" stop-color="rgb(183, 244, 25)" stop-opacity="0.6876683235168457"/>
    </radialGradient>
    <radialGradient id="shape_58_fill" cx="0.5281899109792285" cy="0.9977578475336323" r="0.06617211022079875">
      <stop offset="0.0" stop-color="rgb(50, 43, 14)" stop-opacity="1.0"/>
      <stop offset="1.0" stop-color="rgb(76, 55, 6)" stop-opacity="1.0"/>
    </radialGradient>
    <radialGradient id="shape_59_fill" cx="0.5845697329376854" cy="0.7690582959641256" r="0.06617211022079875">
      <stop offset="0.0" stop-color="rgb(61, 63, 58)" stop-opacity="1.0"/>
      <stop offset="1.0" stop-color="rgb(78, 75, 95)" stop-opacity="0.7087944746017456"/>
    </radialGradient>
    <radialGradient id="shape_60_fill" cx="0.5489614243323442" cy="0.9977578475336323" r="0.06617211022079875">
      <stop offset="0.0" stop-color="rgb(140, 131, 64)" stop-opacity="1.0"/>
      <stop offset="1.0" stop-color="rgb(235, 207, 89)" stop-opacity="0.9157136678695679"/>
    </radialGradient>
    <radialGradient id="shape_61_fill" cx="0.6469658192258206" cy="0.9686680951995166" r="0.06610789992335288">
      <stop offset="0.46290526" stop-color="rgb(255, 223, 62)" stop-opacity="1.0"/>
      <stop offset="0.23317832" stop-color="rgb(232, 167, 19)" stop-opacity="0.8177757263183594"/>
    </radialGradient>
    <radialGradient id="shape_62_fill" cx="0.615727002967359" cy="0.3991031390134529" r="0.06617211022079875">
      <stop offset="0.0" stop-color="rgb(55, 47, 13)" stop-opacity="1.0"/>
      <stop offset="1.0" stop-color="rgb(76, 53, 0)" stop-opacity="1.0"/>
    </radialGradient>
    <radialGradient id="shape_63_fill" cx="0.6261127596439169" cy="0.7286995515695067" r="0.06617211022079875">
      <stop offset="0.0" stop-color="rgb(79, 66, 32)" stop-opacity="1.0"/>
      <stop offset="1.0" stop-color="rgb(195, 204, 107)" stop-opacity="0.6155726313591003"/>
    </radialGradient>
    <radialGradient id="shape_64_fill" cx="0.40801186943620177" cy="0.12556053811659193" r="0.06617211022079875">
      <stop offset="0.0" stop-color="rgb(76, 66, 59)" stop-opacity="1.0"/>
      <stop offset="1.0" stop-color="rgb(109, 81, 75)" stop-opacity="1.0"/>
    </radialGradient>
    <radialGradient id="shape_65_fill" cx="0.6528189910979229" cy="0.6883408071748879" r="0.06617211022079875">
      <stop offset="0.0" stop-color="rgb(121, 97, 39)" stop-opacity="1.0"/>
      <stop offset="1.0" stop-color="rgb(255, 243, 95)" stop-opacity="1.0"/>
    </radialGradient>
    <radialGradient id="shape_66_fill" cx="0.6524243453843658" cy="0.4599214904511456" r="0.06997907055591618">
      <stop offset="0.2460607" stop-color="rgb(164, 198, 113)" stop-opacity="0.30601125955581665"/>
      <stop offset="0.946949" stop-color="rgb(0, 0, 0)" stop-opacity="0.05465918406844139"/>
    </radialGradient>
    <radialGradient id="shape_67_fill" cx="0.5960653514465876" cy="0.9950918018016045" r="0.06967388345508972">
      <stop offset="0.8482216" stop-color="rgb(53, 30, 0)" stop-opacity="0.7167930603027344"/>
      <stop offset="1.0" stop-color="rgb(0, 0, 0)" stop-opacity="0.15470042824745178"/>
    </radialGradient>
    <radialGradient id="shape_68_fill" cx="0.4902609080872125" cy="0.996733455914553" r="0.06802724730720859">
      <stop offset="0.36269775" stop-color="rgb(48, 21, 2)" stop-opacity="0.5751235485076904"/>
      <stop offset="1.0" stop-color="rgb(37, 62, 56)" stop-opacity="0.22586020827293396"/>
    </radialGradient>
  </defs>
  <g>
    <path d="M -0.4850829839706421 271.0350036621094 C 25.672866821289062 265.3751525878906 37.61506652832031 267.14984130859375 45.608306884765625 272.4388427734375 C 48.11894226074219 274.1490173339844 49.36162567138672 276.2774658203125 57.082393646240234 274.49444580078125 C 59.60371398925781 273.8033447265625 63.312129974365234 274.27423095703125 64.28852081298828 271.3741149902344 C 69.48920440673828 269.3291015625 99.99400329589844 270.57928466796875 116.78365325927734 270.78485107421875 C 120.65355682373047 270.92572021484375 124.58307647705078 278.07000732421875 125.638916015625 282.39569091796875 C 132.5248260498047 282.7464599609375 141.17079162597656 281.580322265625 159.9075164794922 288.10870361328125 C 185.265380859375 282.4825134277344 185.83218383789062 282.36376953125 206.69309997558594 287.29193115234375 C 200.15248107910156 287.5732116699219 198.24110412597656 281.6316833496094 210.93556213378906 269.550537109375 C 246.93296813964844 269.4307861328125 290.4064636230469 267.9279479980469 313.3714599609375 274.2213134765625 C 348.45159912109375 275.97344970703125 425.3616027832031 276.47796630859375 470.0186767578125 271.0094909667969 C 498.96990966796875 267.9082946777344 547.4196166992188 268.58416748046875 547.38525390625 276.16571044921875 C 547.7066650390625 275.9457092285156 549.17822265625 270.7050476074219 572.2081909179688 268.16412353515625 C 587.8643188476562 272.38836669921875 612.1441040039062 282.10833740234375 612.7103881835938 282.2159118652344 C 622.7454833984375 269.9499816894531 632.1240844726562 269.1108093261719 672.4207763671875 268.3406982421875 C 676.2661743164062 272.5361633300781 679.303466796875 278.87042236328125 678.4636840820312 284.9092712402344 C 676.611328125 339.5169982910156 674.7210693359375 391.4986267089844 675.1177368164062 446.4668273925781 C 451.9151306152344 446.6697692871094 228.9889373779297 446.8115539550781 -0.4724586606025696 446.4240417480469 C -0.45359793305397034 389.14483642578125 -0.16371746361255646 332.3588562011719 -0.4850829839706421 271.0350036621094" stroke-width="0.0" fill="url(#shape_0_fill)"/>
    <path d="M 2.9371061827987432e-05 271.0598449707031 C 35.933494567871094 275.3955993652344 36.5576057434082 274.5877990722656 44.248260498046875 274.1078186035156 C 47.21337890625 267.0357666015625 59.51613235473633 266.50701904296875 77.9993896484375 268.1543884277344 C 113.55073547363281 278.68035888671875 114.03925323486328 279.3109130859375 127.55537414550781 279.00994873046875 C 127.8666000366211 271.6405334472656 139.86647033691406 269.89813232421875 145.33428955078125 269.43499755859375 C 185.2025604248047 268.4072570800781 185.90609741210938 270.12725830078125 202.9189910888672 274.10174560546875 C 203.123291015625 292.0221252441406 204.2058868408203 292.313232421875 212.0440216064453 297.7204895019531 C 214.71826171875 296.9124450683594 266.5545654296875 299.20556640625 287.989013671875 300.7442626953125 C 317.4712219238281 303.1925964355469 448.18719482421875 301.3175354003906 462.5765686035156 302.65948486328125 C 479.87359619140625 294.25946044921875 490.2662353515625 291.6434020996094 504.1941223144531 287.0313415527344 C 511.4107360839844 288.1779479980469 520.7142944335938 286.52020263671875 522.9176025390625 286.4949951171875 C 527.4694213867188 285.7076721191406 531.803466796875 285.9327392578125 534.8504638671875 287.12646484375 C 541.6067504882812 287.0413513183594 544.8145141601562 288.3240966796875 552.6339111328125 302.1103820800781 C 579.3173217773438 289.91522216796875 581.5410766601562 290.4991760253906 596.5126953125 295.0494689941406 C 614.01416015625 289.1356201171875 624.3597412109375 288.0724182128906 633.427978515625 288.4946594238281 C 643.3339233398438 278.11151123046875 655.7076416015625 282.60565185546875 673.8203735351562 291.5224609375 C 674.1041870117188 340.3865051269531 674.4732666015625 392.1663513183594 674.1565551757812 446.2807922363281 C 451.4774169921875 446.3905334472656 229.19664001464844 446.25439453125 -0.3076566159725189 446.2476501464844 C -0.2135799378156662 389.4035949707031 -0.2940194308757782 333.0278625488281 2.9371061827987432e-05 271.0598449707031" stroke-width="0.0" fill="url(#shape_1_fill)"/>
    <path d="M -0.019932541996240616 -0.25989267230033875 C 219.69313049316406 0.1040392518043518 439.478759765625 -0.45242562890052795 672.5348510742188 -0.16941039264202118 C 665.980712890625 10.997028350830078 644.7975463867188 35.420310974121094 637.8221435546875 48.4974250793457 C 634.3992309570312 53.20358657836914 611.0032348632812 93.17266845703125 584.5517578125 83.97559356689453 C 577.7405395507812 81.60672760009766 561.0765380859375 71.03208923339844 532.6365966796875 73.79818725585938 C 531.94384765625 77.56292724609375 525.0814819335938 79.0546875 522.3226928710938 72.06947326660156 C 522.6407470703125 68.86602020263672 499.4134216308594 63.84889221191406 499.40203857421875 62.659664154052734 C 492.9422912597656 62.14498519897461 486.1080017089844 61.008033752441406 484.5902404785156 68.52214050292969 C 475.22027587890625 72.49332427978516 476.07989501953125 75.68241119384766 477.183837890625 83.72689819335938 C 485.3499450683594 99.31385803222656 478.0592346191406 117.41465759277344 474.6054992675781 120.77830505371094 C 460.50128173828125 117.49375915527344 459.1598815917969 113.62171936035156 450.0163269042969 108.30345153808594 C 435.1781005859375 107.91465759277344 411.7151794433594 102.22660064697266 410.12310791015625 105.05445098876953 C 413.71240234375 120.15884399414062 417.55474853515625 127.19096374511719 414.22607421875 138.31552124023438 C 409.61627197265625 149.18609619140625 398.3431396484375 148.63565063476562 393.71697998046875 136.03475952148438 C 381.55035400390625 142.6800537109375 376.3900146484375 158.2239227294922 369.0635986328125 157.4468536376953 C 366.6664733886719 156.37831115722656 364.2763977050781 160.09259033203125 358.8907470703125 164.26416015625 C 354.92376708984375 167.57289123535156 351.6509704589844 167.57974243164062 350.517333984375 173.20570373535156 C 345.2779846191406 180.2796630859375 337.5047607421875 174.71078491210938 340.8050231933594 166.43577575683594 C 300.77227783203125 164.5817413330078 299.3533935546875 171.1653289794922 297.3510437011719 178.4248809814453 C 304.2620849609375 187.6357421875 304.0289001464844 191.41748046875 307.4737854003906 201.51080322265625 C 307.5046081542969 200.64572143554688 306.0965270996094 198.1627655029297 303.97210693359375 190.34364318847656 C 305.02130126953125 185.7919464111328 303.9566650390625 185.27706909179688 289.2933349609375 175.40684509277344 C 289.6913757324219 194.5653839111328 289.1459655761719 195.97210693359375 289.4564514160156 196.29107666015625 C 289.0169372558594 189.94906616210938 290.1959533691406 182.17947387695312 288.698974609375 175.4705047607422 C 272.30450439453125 178.10504150390625 269.178466796875 182.98443603515625 261.68438720703125 178.39578247070312 C 255.45611572265625 183.08831787109375 255.62562561035156 188.09771728515625 254.76048278808594 197.40676879882812 C 260.70697021484375 199.32936096191406 260.5918273925781 199.94729614257812 257.7896423339844 199.57504272460938 C 257.1802062988281 198.4265594482422 253.81085205078125 195.62342834472656 254.57203674316406 193.77337646484375 C 255.80758666992188 185.37857055664062 260.1142578125 183.20101928710938 257.54656982421875 167.19993591308594 C 259.1962585449219 162.7772674560547 216.35614013671875 142.00643920898438 213.60047912597656 140.59445190429688 C 186.1565704345703 131.30929565429688 195.34219360351562 104.02384948730469 191.68553161621094 86.97598266601562 C 191.8197479248047 84.57127380371094 161.04698181152344 73.58820343017578 132.57447814941406 59.7624626159668 C 108.47718048095703 39.54357147216797 72.52054595947266 56.61552429199219 40.98657989501953 60.39621353149414 C 25.544004440307617 69.93916320800781 4.237120628356934 69.50617218017578 -1.141553282737732 69.68111419677734 C 0.34183040261268616 43.958133697509766 -0.3314551115036011 22.56187629699707 -0.019932541996240616 -0.25989267230033875" stroke-width="0.0" fill="url(#shape_2_fill)"/>
    <path d="M 86.6957015991211 59.585140228271484 C 89.15557861328125 68.79085540771484 91.69770050048828 69.03858184814453 93.53453826904297 71.087158203125 C 90.98065948486328 79.96961212158203 91.58295440673828 81.64965057373047 89.79182434082031 92.62240600585938 C 96.4759521484375 86.30850219726562 98.45352935791016 86.5213623046875 102.9292984008789 87.80616760253906 C 104.74826049804688 75.2353286743164 105.86692810058594 73.37443542480469 108.27684020996094 73.2585220336914 C 112.3208999633789 87.5805435180664 110.6863784790039 93.31233215332031 116.59080505371094 99.29277801513672 C 116.40787506103516 100.05279541015625 116.30843353271484 109.1988296508789 115.49503326416016 115.35459899902344 C 123.5316390991211 115.358154296875 128.53977966308594 115.7782974243164 129.4686737060547 112.28656768798828 C 130.67364501953125 110.04781341552734 136.7241973876953 108.83303833007812 136.55821228027344 104.72859954833984 C 136.6380615234375 103.67804718017578 135.55638122558594 101.81920623779297 137.33448791503906 98.49593353271484 C 136.4877166748047 93.26953887939453 137.51727294921875 92.89745330810547 137.53591918945312 89.35313415527344 C 137.33946228027344 85.19285583496094 138.61285400390625 84.77444458007812 139.59584045410156 87.21025085449219 C 140.2097930908203 82.98224639892578 146.73443603515625 80.70272064208984 148.10604858398438 82.9970932006836 C 148.5841522216797 93.24271392822266 150.08473205566406 94.5520248413086 152.00820922851562 99.12559509277344 C 153.53469848632812 102.94123077392578 149.91876220703125 106.91340637207031 148.83761596679688 106.7278823852539 C 152.57618713378906 109.79439544677734 150.4326934814453 114.09807586669922 148.44528198242188 113.39252471923828 C 154.41195678710938 112.83538818359375 157.9207000732422 122.59139251708984 157.16836547851562 123.2966079711914 C 161.3082275390625 125.0408706665039 164.97998046875 123.46965789794922 169.63616943359375 122.69612121582031 C 174.39112854003906 119.73050689697266 175.78436279296875 121.51406860351562 177.70899963378906 122.50047302246094 C 179.33303833007812 122.68702697753906 180.00234985351562 125.25373077392578 183.14547729492188 127.61304473876953 C 183.85264587402344 130.18783569335938 182.46224975585938 133.08815002441406 184.1688232421875 135.2115936279297 C 187.15716552734375 135.1784210205078 187.6402130126953 142.297607421875 188.7862548828125 145.15821838378906 C 195.2133026123047 146.45399475097656 206.63719177246094 153.6103973388672 201.63470458984375 172.8653106689453 C 205.33480834960938 176.61871337890625 205.9669189453125 178.69879150390625 205.55308532714844 181.56076049804688 C 213.82403564453125 181.4054412841797 214.4670867919922 195.76219177246094 212.50283813476562 202.52268981933594 C 205.051513671875 206.63900756835938 203.25697326660156 207.06410217285156 203.14352416992188 210.2557373046875 C 200.74595642089844 210.5193634033203 199.95603942871094 211.7019805908203 200.1336212158203 213.4894256591797 C 196.29544067382812 215.24668884277344 193.38807678222656 215.32424926757812 192.0029296875 219.7006072998047 C 184.28009033203125 220.877685546875 183.5952606201172 224.74053955078125 178.49371337890625 230.1125946044922 C 176.41815185546875 233.53488159179688 180.6472625732422 239.01922607421875 180.9858856201172 240.3903350830078 C 182.3897705078125 251.76922607421875 185.78952026367188 260.7843322753906 178.8218994140625 264.8812255859375 C 173.51828002929688 268.1806335449219 148.6837158203125 268.31549072265625 135.97459411621094 269.59710693359375 C 131.86700439453125 269.2220764160156 129.17239379882812 272.3304138183594 122.2564926147461 275.5229797363281 C 109.14828491210938 276.90106201171875 73.29002380371094 276.0295715332031 73.02740478515625 270.0421447753906 C 47.69975280761719 266.7734680175781 56.55537414550781 268.5710754394531 57.62641906738281 273.57305908203125 C 48.2553825378418 276.3742370605469 1.0453686714172363 272.8114318847656 0.8099581599235535 270.1070861816406 C -5.754598617553711 224.2813262939453 -5.4231462478637695 166.60906982421875 2.2978150844573975 121.7688980102539 C 11.270891189575195 118.429931640625 21.613618850708008 113.95104217529297 26.05912208557129 121.78181457519531 C 27.034740447998047 129.60597229003906 35.646522521972656 129.06011962890625 42.159488677978516 131.91476440429688 C 47.1007080078125 130.1827850341797 47.555458068847656 130.91281127929688 49.49638366699219 142.18626403808594 C 50.31806564331055 148.5747528076172 61.45785903930664 148.75003051757812 62.76137161254883 146.2677001953125 C 62.20085525512695 136.84161376953125 63.08285903930664 133.9788360595703 62.1619987487793 128.268310546875 C 68.30787658691406 126.66234588623047 67.64693450927734 123.57183837890625 66.31742095947266 112.52213287353516 C 67.92589569091797 111.126708984375 68.39283752441406 106.1740493774414 75.87579345703125 102.77593231201172 C 73.98516082763672 100.90383911132812 78.31715393066406 91.86946868896484 77.31353759765625 85.67234802246094 C 77.19481658935547 83.7355728149414 77.79755401611328 74.9096450805664 85.2977294921875 75.34266662597656 C 83.0184555053711 70.11629486083984 82.81200408935547 67.53815460205078 86.6957015991211 59.585140228271484" stroke-width="0.0" fill="url(#shape_3_fill)"/>
    <path d="M 674.0654296875 -0.7187973260879517 C 676.1160888671875 47.826499938964844 675.0172119140625 95.90823364257812 680.1889038085938 139.16546630859375 C 677.534423828125 125.91443634033203 669.3032836914062 123.2034912109375 661.6204223632812 120.23377990722656 C 660.8555908203125 120.07913208007812 655.0733032226562 109.39240264892578 649.8355102539062 110.92098999023438 C 648.83056640625 112.53512573242188 645.2298583984375 149.46282958984375 642.85888671875 155.68580627441406 C 629.8429565429688 154.59304809570312 626.8099365234375 142.9635009765625 627.0592041015625 138.52383422851562 C 623.0317993164062 137.438720703125 618.9641723632812 145.34689331054688 615.4288940429688 144.0908203125 C 611.6814575195312 142.3153533935547 610.1575317382812 143.3397979736328 607.7745361328125 141.08363342285156 C 608.8878173828125 137.7669677734375 612.5438842773438 132.95339965820312 606.6322631835938 119.78751373291016 C 598.32080078125 133.98629760742188 597.5230712890625 139.3226318359375 594.1887817382812 142.697509765625 C 599.479736328125 146.2127227783203 597.666748046875 151.4703826904297 597.4429931640625 152.07994079589844 C 588.7010498046875 157.60142517089844 587.621337890625 164.36981201171875 578.9020385742188 172.3341827392578 C 571.9189453125 170.29510498046875 569.9151611328125 158.38314819335938 568.6713256835938 157.0941925048828 C 565.7570190429688 157.7010498046875 563.4596557617188 153.66458129882812 561.7276000976562 151.51199340820312 C 560.0967407226562 150.64999389648438 556.1782836914062 150.95994567871094 555.7852172851562 156.05319213867188 C 551.9085083007812 156.13314819335938 550.356689453125 158.8204803466797 548.8234252929688 158.63832092285156 C 547.6380615234375 156.6055908203125 544.422607421875 156.18365478515625 536.1674194335938 153.67413330078125 C 531.7896118164062 154.8997802734375 529.9682006835938 158.77145385742188 523.1165771484375 156.86622619628906 C 519.260498046875 160.51747131347656 520.3131713867188 162.15078735351562 522.991943359375 169.25625610351562 C 517.6151733398438 168.4634246826172 517.1793212890625 170.9201202392578 516.2822875976562 171.66470336914062 C 511.2713623046875 173.32232666015625 509.8157043457031 175.26531982421875 505.6397705078125 174.399169921875 C 502.7699279785156 171.4010009765625 503.00994873046875 169.51876831054688 502.8221740722656 159.09506225585938 C 492.5198669433594 145.31617736816406 507.0787048339844 121.65583038330078 518.2157592773438 126.55095672607422 C 523.7207641601562 125.27294921875 539.9617309570312 110.23807525634766 548.8060302734375 112.99471282958984 C 557.2381591796875 110.71697235107422 556.9052124023438 109.38192749023438 558.1909790039062 107.52962493896484 C 559.7304077148438 108.4059829711914 564.8923950195312 102.68196105957031 570.4406127929688 104.9626235961914 C 574.6022338867188 102.4448013305664 573.44140625 97.48308563232422 578.9942016601562 94.1036148071289 C 585.1150512695312 88.48107147216797 595.6548461914062 77.5629653930664 613.35107421875 78.29866790771484 C 616.8938598632812 73.5718002319336 645.0094604492188 51.197853088378906 645.3856201171875 35.51169204711914 C 644.9812622070312 32.449501037597656 648.0001831054688 30.39339828491211 647.649169921875 29.54247283935547 C 646.9672241210938 28.295501708984375 664.34228515625 -4.173607349395752 674.0654296875 -0.7187973260879517" stroke-width="0.0" fill="url(#shape_4_fill)"/>
    <path d="M 151.56893920898438 68.51226806640625 C 152.31008911132812 69.05821228027344 186.29940795898438 84.51045227050781 192.67420959472656 92.7770004272461 C 179.34109497070312 117.9434585571289 217.6952667236328 150.06800842285156 220.86679077148438 154.9109344482422 C 238.85818481445312 170.06776428222656 241.98797607421875 184.16827392578125 240.81417846679688 193.8645477294922 C 238.11155700683594 193.20004272460938 236.17205810546875 186.52560424804688 236.7700958251953 184.06214904785156 C 235.68284606933594 183.55938720703125 234.15664672851562 184.30088806152344 231.073974609375 182.7025909423828 C 231.2044677734375 183.9398651123047 232.10662841796875 194.03433227539062 228.63262939453125 195.6683807373047 C 227.58877563476562 196.63583374023438 227.1827850341797 205.38978576660156 221.3816375732422 207.7012481689453 C 215.08285522460938 206.58847045898438 214.3168182373047 197.8538360595703 214.65731811523438 194.88157653808594 C 212.95986938476562 185.43795776367188 211.89666748046875 184.94593811035156 206.52842712402344 177.39260864257812 C 205.9042510986328 173.02943420410156 205.974853515625 166.4983367919922 204.14132690429688 159.10304260253906 C 206.24388122558594 153.32846069335938 194.85057067871094 144.6809539794922 193.3845672607422 141.19473266601562 C 189.0825653076172 140.2348175048828 188.86460876464844 137.29519653320312 186.57723999023438 135.8649444580078 C 178.31735229492188 133.27040100097656 178.98876953125 126.94078826904297 183.2897186279297 117.29277038574219 C 179.3900909423828 116.4628677368164 177.39730834960938 117.65579223632812 172.95938110351562 117.76575469970703 C 179.2517852783203 128.1050262451172 175.73858642578125 131.01963806152344 151.93165588378906 130.3129119873047 C 149.56280517578125 127.3141860961914 151.62049865722656 102.70454406738281 153.99415588378906 94.47454071044922 C 152.88905334472656 88.88494873046875 153.39227294921875 87.04334259033203 149.93984985351562 76.30464935302734 C 148.1234893798828 75.91404724121094 148.5343475341797 69.28401947021484 151.56893920898438 68.51226806640625" stroke-width="0.0" fill="url(#shape_5_fill)"/>
    <path d="M 611.3349609375 81.57334899902344 C 618.692138671875 84.11910247802734 619.6506958007812 86.1143569946289 631.2488403320312 85.67818450927734 C 636.0997314453125 86.01078033447266 637.1273193359375 88.04039764404297 641.196044921875 89.32650756835938 C 642.157470703125 87.32684326171875 666.764404296875 92.55697631835938 674.8493041992188 98.27924346923828 C 675.3910522460938 110.63827514648438 674.7884521484375 125.91450500488281 675.2969970703125 150.93490600585938 C 665.8422241210938 142.54049682617188 662.921875 136.58375549316406 658.8756713867188 131.34169006347656 C 659.5908813476562 122.00238800048828 660.60400390625 116.47185516357422 653.0636596679688 112.30387878417969 C 646.1129150390625 114.36559295654297 644.5618896484375 142.2958221435547 642.3751831054688 143.065185546875 C 643.8232421875 144.7801971435547 642.6438598632812 148.28321838378906 643.9873046875 150.4384307861328 C 639.943115234375 150.8526611328125 637.9141845703125 152.79550170898438 634.9513549804688 153.3917694091797 C 631.5702514648438 146.22425842285156 629.191162109375 141.3942108154297 630.091796875 140.5341796875 C 628.862548828125 137.80862426757812 621.9906616210938 137.13681030273438 620.8364868164062 138.79371643066406 C 618.2784423828125 140.5802764892578 619.3707275390625 142.3672332763672 618.5411376953125 147.5363006591797 C 614.3850708007812 144.6340789794922 613.4949951171875 143.19412231445312 610.0809936523438 143.67031860351562 C 608.5250854492188 140.40675354003906 609.581298828125 139.24307250976562 609.1761474609375 137.37083435058594 C 606.5560302734375 132.2527618408203 604.9944458007812 126.66485595703125 598.5697021484375 128.22952270507812 C 605.3367919921875 133.56356811523438 595.0767822265625 148.0429229736328 591.8017578125 155.5577850341797 C 590.4603271484375 163.80776977539062 589.0875244140625 164.02101135253906 585.543212890625 169.12498474121094 C 584.8512573242188 167.52911376953125 583.8947143554688 165.58729553222656 590.0099487304688 154.1726531982422 C 587.233642578125 148.64707946777344 581.8519897460938 147.14149475097656 575.46337890625 144.75299072265625 C 566.6261596679688 156.48214721679688 556.6879272460938 155.47105407714844 556.0280151367188 151.38589477539062 C 555.841064453125 152.91305541992188 553.0746459960938 154.70704650878906 552.89892578125 157.76947021484375 C 551.2962646484375 161.70272827148438 548.0348510742188 160.50828552246094 547.3739013671875 159.1243133544922 C 544.4566650390625 156.60751342773438 542.8429565429688 154.2196807861328 537.6278076171875 157.32015991210938 C 535.02099609375 158.49058532714844 531.2163696289062 157.64524841308594 529.0792846679688 158.3065643310547 C 526.2803344726562 159.40469360351562 526.49365234375 162.83349609375 525.4598388671875 166.1385498046875 C 524.50146484375 169.42376708984375 523.5376586914062 171.5669403076172 519.0360717773438 173.08486938476562 C 511.63946533203125 177.4072265625 501.7045593261719 175.134765625 487.6533508300781 162.31521606445312 C 483.25140380859375 137.61631774902344 501.0919189453125 118.37126159667969 513.052001953125 118.21611785888672 C 529.4089965820312 127.56599426269531 540.5785522460938 108.10153198242188 549.6217651367188 111.69581604003906 C 555.5609741210938 110.02046203613281 560.4739990234375 109.82022094726562 563.9418334960938 106.77123260498047 C 564.6272583007812 104.50209045410156 566.5817260742188 103.59835815429688 569.8716430664062 104.51004791259766 C 574.314453125 101.33248901367188 578.5825805664062 97.8895492553711 586.9358520507812 99.31665802001953 C 600.3546142578125 93.36473083496094 603.5517578125 80.02559661865234 611.3349609375 81.57334899902344" stroke-width="0.0" fill="url(#shape_6_fill)"/>
    <path d="M 1.179370641708374 103.96649169921875 C 35.30974578857422 114.10327911376953 43.22402572631836 123.32763671875 51.52985763549805 139.27273559570312 C 81.04581451416016 154.11907958984375 52.11272430419922 214.44679260253906 43.96905517578125 241.65048217773438 C 50.494056701660156 260.22705078125 48.44681930541992 264.6250305175781 48.415794372558594 265.3753967285156 C 48.552486419677734 261.4660339355469 21.381240844726562 256.86285400390625 11.81809139251709 252.95069885253906 C 4.850856781005859 208.24313354492188 -6.173672676086426 168.30084228515625 1.179370641708374 103.96649169921875" stroke-width="0.0" fill="url(#shape_7_fill)"/>
    <path d="M 384.6953430175781 197.4224090576172 C 422.4562683105469 184.6127166748047 427.3122863769531 191.5347137451172 429.94012451171875 204.1809539794922 C 474.6319885253906 189.9904327392578 496.3291015625 204.74282836914062 491.7095642089844 231.8141326904297 C 490.9982604980469 250.49069213867188 486.2357482910156 251.4979705810547 484.8580322265625 252.40159606933594 C 485.9431457519531 258.9236755371094 482.4941101074219 268.90924072265625 477.0256042480469 269.0519714355469 C 469.04290771484375 272.9302978515625 453.2210388183594 266.7112731933594 451.6287536621094 269.7130432128906 C 447.0536193847656 266.28271484375 448.261474609375 261.21282958984375 449.052490234375 260.1692199707031 C 439.2552795410156 264.7811279296875 436.5163269042969 261.4211120605469 437.4417419433594 256.799072265625 C 427.0112609863281 256.75238037109375 425.6951904296875 259.20196533203125 421.14862060546875 262.09307861328125 C 418.5459899902344 264.2519836425781 417.6439514160156 267.6937255859375 414.92498779296875 273.4183044433594 C 414.1131286621094 272.4969787597656 391.9451904296875 268.20159912109375 392.5826110839844 264.1856689453125 C 391.8226013183594 265.11370849609375 388.96673583984375 263.3502502441406 385.8949279785156 263.7205810546875 C 382.11181640625 261.9583435058594 380.8183898925781 263.1905822753906 376.4984130859375 261.0804138183594 C 374.8911437988281 256.336181640625 376.0884704589844 252.5018768310547 372.1590270996094 249.6587371826172 C 359.34234619140625 243.636474609375 374.1310729980469 195.69107055664062 378.71502685546875 178.02352905273438 C 384.1584777832031 170.83604431152344 393.77496337890625 176.65806579589844 384.6953430175781 197.4224090576172" stroke-width="0.0" fill="url(#shape_8_fill)"/>
    <path d="M 566.2747802734375 157.27223205566406 C 568.2523193359375 158.8648223876953 568.1552734375 166.62094116210938 569.4364013671875 168.00648498535156 C 573.5133666992188 169.4635009765625 573.6599731445312 170.97610473632812 577.5300903320312 174.4014434814453 C 581.9317626953125 172.9445343017578 583.9725341796875 174.56744384765625 583.7054443359375 179.4728240966797 C 575.3458251953125 180.477294921875 572.0719604492188 225.6162872314453 577.2974243164062 226.96559143066406 C 577.8969116210938 229.9532012939453 581.3020629882812 235.680908203125 577.148193359375 241.5081329345703 C 568.7631225585938 238.52027893066406 566.5322265625 237.17803955078125 558.7658081054688 247.30734252929688 C 553.9699096679688 250.17379760742188 495.9639587402344 254.44192504882812 487.5213317871094 251.51251220703125 C 486.1176452636719 250.21275329589844 486.9556884765625 239.34140014648438 492.475830078125 229.46771240234375 C 486.40765380859375 226.29415893554688 483.1759033203125 222.30441284179688 481.8111877441406 215.61619567871094 C 476.7434387207031 209.86404418945312 479.34539794921875 205.84759521484375 482.77471923828125 205.9815673828125 C 480.1260070800781 205.34214782714844 481.5577392578125 199.0384521484375 489.20599365234375 198.96136474609375 C 491.97515869140625 196.22064208984375 491.81500244140625 192.5052032470703 492.81036376953125 187.93092346191406 C 489.7164306640625 174.17098999023438 490.11181640625 173.19281005859375 487.6214904785156 164.51687622070312 C 504.1993408203125 163.4254608154297 505.7224426269531 165.43580627441406 516.6583251953125 164.64859008789062 C 523.078369140625 169.38885498046875 524.7630615234375 167.17396545410156 525.8333129882812 167.5453338623047 C 523.470947265625 161.4381561279297 531.4996948242188 156.2853240966797 533.29541015625 158.67364501953125 C 537.6135864257812 161.8600616455078 541.3786010742188 162.47225952148438 542.1633911132812 163.98069763183594 C 545.217529296875 164.07540893554688 545.84521484375 165.83349609375 549.7783203125 166.66929626464844 C 548.9756469726562 165.621337890625 551.195556640625 157.43360900878906 554.6527709960938 158.1256866455078 C 557.9735717773438 160.96849060058594 563.0498046875 157.86915588378906 566.2747802734375 157.27223205566406" stroke-width="0.0" fill="url(#shape_9_fill)"/>
    <path d="M 561.5715942382812 156.68753051757812 C 566.109375 152.80136108398438 571.1072998046875 158.2955322265625 570.8756713867188 170.4801483154297 C 572.2786254882812 169.16514587402344 576.158203125 169.2113800048828 579.4718627929688 174.74105834960938 C 580.6671752929688 178.1301727294922 579.3849487304688 187.4751739501953 578.086669921875 191.57423400878906 C 571.286865234375 196.6962432861328 571.997314453125 229.97181701660156 578.081298828125 230.97666931152344 C 576.070068359375 231.159423828125 575.6058349609375 236.83697509765625 572.0523681640625 238.0255584716797 C 560.14501953125 235.88978576660156 567.3172607421875 238.64712524414062 563.8353881835938 247.79539489746094 C 548.0299072265625 253.40341186523438 501.2872619628906 249.23117065429688 500.1844177246094 251.67205810546875 C 491.0660095214844 251.82325744628906 487.86553955078125 236.98851013183594 491.7093200683594 229.9178466796875 C 486.6233215332031 224.9271240234375 481.983154296875 219.2741241455078 481.64178466796875 215.42689514160156 C 475.5573425292969 214.43203735351562 474.1297607421875 214.67599487304688 464.38250732421875 197.20065307617188 C 463.8414001464844 186.12428283691406 474.603271484375 182.07981872558594 483.2142028808594 195.46078491210938 C 489.9178161621094 197.64215087890625 494.46099853515625 184.27459716796875 496.6285095214844 182.95497131347656 C 495.3045959472656 178.85935974121094 497.5860900878906 177.68084716796875 500.17144775390625 177.437255859375 C 507.935546875 179.0813446044922 516.5587768554688 181.67623901367188 520.59765625 174.0618896484375 C 523.74169921875 173.3594512939453 526.9052124023438 159.26840209960938 531.5479125976562 155.2765655517578 C 537.9291381835938 156.11355590820312 538.6417236328125 159.77232360839844 539.9335327148438 166.08123779296875 C 545.7596435546875 165.9449920654297 549.0562744140625 167.398193359375 551.3439331054688 166.3038330078125 C 551.0693359375 155.94407653808594 553.0751953125 153.05905151367188 561.5715942382812 156.68753051757812" stroke-width="0.0" fill="url(#shape_10_fill)"/>
    <path d="M 447.79034423828125 107.49320983886719 C 452.8110046386719 111.03759002685547 453.9459228515625 112.52940368652344 462.2806396484375 111.63494873046875 C 464.99114990234375 116.78086853027344 469.259033203125 115.03963470458984 480.9360656738281 111.75033569335938 C 488.7469177246094 124.47720336914062 488.726806640625 125.25989532470703 492.24310302734375 130.87828063964844 C 493.67730712890625 131.9239959716797 493.5331726074219 134.79278564453125 497.0406494140625 136.31692504882812 C 494.11981201171875 135.61000061035156 492.7999572753906 138.24838256835938 489.11907958984375 141.2496337890625 C 483.0389709472656 137.33834838867188 481.759521484375 139.2689208984375 478.3680114746094 143.1042938232422 C 467.70306396484375 140.23341369628906 466.26458740234375 138.89390563964844 465.7628173828125 134.41064453125 C 464.44012451171875 133.5398712158203 460.69268798828125 133.5376434326172 460.35699462890625 134.2704620361328 C 461.0965881347656 133.97860717773438 478.5378112792969 144.02447509765625 492.9327087402344 152.7439422607422 C 476.481201171875 176.80967712402344 475.4617004394531 177.24526977539062 472.8539733886719 182.0690155029297 C 467.2979431152344 182.8428955078125 466.95074462890625 187.8462677001953 466.23052978515625 189.59999084472656 C 463.1578674316406 184.40170288085938 462.14837646484375 172.93907165527344 458.451416015625 168.54464721679688 C 448.2846374511719 179.36355590820312 447.4736022949219 182.38636779785156 439.89501953125 183.0844268798828 C 439.4211120605469 183.8565673828125 435.7593688964844 195.6243133544922 434.78436279296875 197.53944396972656 C 429.5794372558594 200.26548767089844 417.5282287597656 180.57635498046875 417.6978454589844 179.7520751953125 C 416.93780517578125 179.7017059326172 398.0445251464844 180.2388458251953 397.7930908203125 173.23089599609375 C 393.7878723144531 171.04852294921875 389.7919921875 176.35964965820312 379.5419006347656 174.72608947753906 C 382.1224365234375 160.05487060546875 380.7708740234375 149.28103637695312 392.6226806640625 139.0040740966797 C 397.9766540527344 137.33567810058594 399.5433349609375 129.8370361328125 402.14373779296875 121.1025390625 C 407.1957092285156 99.01792907714844 425.9137878417969 103.1445541381836 447.79034423828125 107.49320983886719" stroke-width="0.0" fill="url(#shape_11_fill)"/>
    <path d="M 602.8741455078125 127.52887725830078 C 605.744384765625 130.2097930908203 605.6417236328125 143.41925048828125 607.3832397460938 144.9904327392578 C 611.1670532226562 145.54771423339844 611.771240234375 149.08087158203125 615.8588256835938 152.8251953125 C 618.14990234375 149.8782958984375 618.1593627929688 141.7934112548828 621.3906860351562 141.06658935546875 C 623.1117553710938 137.43605041503906 625.4326782226562 137.3861846923828 627.5148315429688 140.32017517089844 C 627.4856567382812 142.15484619140625 628.9716186523438 144.76148986816406 628.8746337890625 147.2234649658203 C 632.1053466796875 149.7675323486328 631.7460327148438 151.1792755126953 636.5097045898438 153.53407287597656 C 642.1971435546875 154.68264770507812 641.951171875 160.40737915039062 647.202880859375 169.9923553466797 C 639.2213134765625 185.09971618652344 640.0709228515625 194.91769409179688 640.4614868164062 206.575439453125 C 650.4412231445312 213.7176513671875 651.3748168945312 232.5170440673828 642.8787841796875 245.66928100585938 C 623.0081176757812 248.32522583007812 611.7080078125 249.12826538085938 579.0414428710938 262.9651184082031 C 569.9671630859375 251.91285705566406 576.2608642578125 232.0689697265625 574.832275390625 217.3546142578125 C 568.0799560546875 209.33741760253906 571.9267578125 168.8900146484375 583.264892578125 169.78689575195312 C 597.2456665039062 163.46583557128906 599.5592041015625 143.6779022216797 599.9620361328125 142.04638671875 C 595.6546020507812 139.7966766357422 596.7515258789062 136.91542053222656 602.8741455078125 127.52887725830078" stroke-width="0.0" fill="url(#shape_12_fill)"/>
    <path d="M 411.069580078125 176.542236328125 C 420.2200012207031 173.94686889648438 433.24554443359375 213.1939239501953 429.05450439453125 220.39723205566406 C 419.74920654296875 227.56715393066406 427.110107421875 237.8434295654297 430.2601013183594 242.73902893066406 C 429.9766540527344 262.5311279296875 420.77825927734375 266.4439697265625 415.0306091308594 268.4673156738281 C 404.64361572265625 266.0004577636719 401.6051025390625 271.90087890625 390.776611328125 267.5821228027344 C 385.4863586425781 264.93975830078125 382.4865417480469 266.1137390136719 380.0050964355469 265.3707580566406 C 375.37811279296875 263.52703857421875 375.1661682128906 260.789306640625 375.0968322753906 258.4262390136719 C 376.3913879394531 255.40574645996094 374.6629638671875 254.5953369140625 374.77886962890625 253.5579376220703 C 372.2743835449219 254.87327575683594 370.09954833984375 251.14608764648438 368.51690673828125 251.80343627929688 C 360.4740295410156 248.09396362304688 366.2065124511719 229.135986328125 367.1492919921875 221.3350830078125 C 369.2289123535156 218.87477111816406 372.206298828125 202.7687225341797 381.78057861328125 203.1823272705078 C 379.3742370605469 195.359375 379.3302001953125 190.49542236328125 389.70013427734375 186.77293395996094 C 391.57281494140625 177.33609008789062 392.9128112792969 176.8928985595703 411.069580078125 176.542236328125" stroke-width="0.0" fill="url(#shape_13_fill)"/>
    <path d="M 508.5180969238281 66.97057342529297 C 512.6480712890625 65.9629135131836 521.27099609375 70.13446044921875 523.100341796875 75.09423828125 C 530.75927734375 79.39761352539062 533.918701171875 80.0055923461914 536.7998657226562 89.94688415527344 C 539.2782592773438 90.89379119873047 544.5418701171875 90.29470825195312 545.0235595703125 91.17057800292969 C 545.53662109375 92.74437713623047 556.1686401367188 96.84121704101562 559.0947265625 95.4061508178711 C 563.45947265625 97.60569763183594 567.3296508789062 97.55235290527344 568.740234375 99.13561248779297 C 564.3981323242188 105.35149383544922 556.7402954101562 115.61270141601562 542.1837768554688 110.79236602783203 C 541.3898315429688 111.8376235961914 539.3438720703125 114.94036102294922 534.7681274414062 118.41204071044922 C 527.9679565429688 120.8790512084961 519.9776611328125 124.4010238647461 515.621826171875 118.6818618774414 C 511.4302062988281 120.50669860839844 501.49462890625 125.54308319091797 499.2803955078125 125.34751892089844 C 497.24517822265625 128.50759887695312 493.71368408203125 128.4727020263672 489.44464111328125 127.29012298583984 C 489.6791076660156 120.16053771972656 468.8231201171875 118.76791381835938 468.1173095703125 117.76084899902344 C 463.53900146484375 117.79342651367188 462.9363098144531 116.70093536376953 462.1943664550781 115.965576171875 C 469.8824157714844 118.62570190429688 472.6944885253906 111.70512390136719 477.82501220703125 107.04218292236328 C 474.88604736328125 93.24749755859375 473.32598876953125 86.66170501708984 475.0263671875 82.0068130493164 C 474.5901184082031 70.93390655517578 475.34326171875 70.38629150390625 478.2227783203125 66.40848541259766 C 478.8271484375 64.05855560302734 482.6127624511719 64.06842041015625 484.3917541503906 63.12970733642578 C 495.9576110839844 64.23503112792969 502.1098937988281 61.15879440307617 508.5180969238281 66.97057342529297" stroke-width="0.0" fill="url(#shape_14_fill)"/>
    <path d="M 533.166259765625 160.48524475097656 C 543.897705078125 162.66531372070312 544.18603515625 163.53915405273438 546.9639282226562 165.1287078857422 C 549.6834106445312 167.62403869628906 549.57763671875 170.2459259033203 544.1683959960938 179.6926727294922 C 541.8759155273438 189.77996826171875 536.9739990234375 231.31460571289062 536.6300048828125 233.23455810546875 C 540.6636962890625 237.62872314453125 541.0927734375 251.14768981933594 516.1558837890625 252.372802734375 C 502.5440368652344 251.4461669921875 483.58258056640625 243.6551971435547 488.0218505859375 230.5540771484375 C 476.73486328125 218.8402557373047 478.6751708984375 207.79080200195312 482.43572998046875 201.16302490234375 C 486.6432800292969 197.2100830078125 487.9278259277344 197.62123107910156 489.0417175292969 198.62600708007812 C 482.9622497558594 195.61720275878906 488.6459655761719 182.6117706298828 487.70867919921875 172.8627471923828 C 487.1585388183594 167.57650756835938 489.0631408691406 166.2037811279297 491.67205810546875 166.84783935546875 C 505.5951232910156 178.84707641601562 511.1522521972656 184.1824493408203 522.7349853515625 172.73158264160156 C 525.5537109375 170.96054077148438 525.5432739257812 167.3129119873047 526.9027709960938 165.15774536132812 C 525.8532104492188 159.21397399902344 528.81494140625 158.20069885253906 533.166259765625 160.48524475097656" stroke-width="0.0" fill="url(#shape_15_fill)"/>
    <path d="M 651.8250122070312 109.92503356933594 C 653.9944458007812 110.46774291992188 663.7560424804688 121.68599700927734 659.8467407226562 132.7582550048828 C 664.1260986328125 136.05039978027344 664.5825805664062 142.83132934570312 673.2764892578125 148.224609375 C 677.1435546875 178.7328338623047 673.6033935546875 211.298583984375 675.4573974609375 264.63897705078125 C 674.4022827148438 262.9578552246094 638.3826904296875 270.42071533203125 632.2431030273438 261.2724304199219 C 637.4634399414062 245.3702850341797 642.3184814453125 123.95881652832031 651.8250122070312 109.92503356933594" stroke-width="0.0" fill="url(#shape_16_fill)"/>
    <path d="M 601.2120971679688 129.68247985839844 C 603.3123779296875 128.22341918945312 606.654541015625 131.9811553955078 606.2319946289062 134.076171875 C 608.5819702148438 135.0264892578125 607.0732421875 141.00828552246094 609.3400268554688 143.56857299804688 C 627.983642578125 142.92276000976562 631.1445922851562 218.42971801757812 633.4675903320312 263.7699890136719 C 586.2265625 268.2941589355469 576.5607299804688 260.6891784667969 579.627197265625 238.4748077392578 C 562.4784545898438 226.1727294921875 597.9436645507812 154.7876434326172 601.2120971679688 129.68247985839844" stroke-width="0.0" fill="url(#shape_17_fill)"/>
    <path d="M 320.503662109375 186.2997283935547 C 320.8296813964844 186.5197296142578 322.5000305175781 189.46958923339844 320.6312561035156 198.8101348876953 C 332.8157653808594 193.97047424316406 334.0993347167969 193.2508087158203 337.38238525390625 196.2572479248047 C 342.9930725097656 200.35166931152344 346.2412414550781 197.8131103515625 353.93341064453125 192.91021728515625 C 358.5835876464844 193.49447631835938 359.0738830566406 194.19915771484375 356.81597900390625 201.65988159179688 C 359.3653869628906 204.1232147216797 361.51739501953125 204.2722625732422 363.58221435546875 209.42637634277344 C 367.28692626953125 207.13998413085938 368.505126953125 208.21420288085938 368.1650390625 211.82093811035156 C 370.49713134765625 219.9691162109375 370.3424072265625 223.03944396972656 365.8730773925781 226.0361785888672 C 366.2596740722656 231.54591369628906 364.3472595214844 236.05123901367188 366.7529602050781 248.2093048095703 C 369.24383544921875 252.25485229492188 366.60247802734375 256.19537353515625 358.0534362792969 254.67630004882812 C 354.37091064453125 255.7220916748047 328.113037109375 254.94485473632812 322.80316162109375 255.34805297851562 C 313.36639404296875 255.96080017089844 312.13433837890625 253.61843872070312 307.8988342285156 243.0311737060547 C 304.2787170410156 229.8180389404297 321.09686279296875 194.758056640625 320.503662109375 186.2997283935547" stroke-width="0.0" fill="url(#shape_18_fill)"/>
    <path d="M 478.44580078125 219.73394775390625 C 499.0585632324219 249.91529846191406 510.39801025390625 262.9471435546875 491.9358215332031 279.0839538574219 C 470.6813659667969 279.26055908203125 443.99139404296875 261.4998779296875 442.1299133300781 261.7528381347656 C 438.70489501953125 260.5755920410156 437.15570068359375 258.2359619140625 432.5699768066406 258.10552978515625 C 429.404052734375 258.625 428.1135559082031 256.8119201660156 428.98492431640625 253.84852600097656 C 431.7528381347656 237.2181854248047 422.4490661621094 233.32579040527344 422.95184326171875 229.70245361328125 C 423.1407470703125 226.90896606445312 421.1184997558594 226.69384765625 420.1968688964844 225.08963012695312 C 427.76519775390625 219.58065795898438 429.6925048828125 218.83514404296875 428.618896484375 215.13734436035156 C 438.43585205078125 198.01512145996094 476.4179382324219 197.87738037109375 478.44580078125 219.73394775390625" stroke-width="0.0" fill="url(#shape_19_fill)"/>
    <path d="M 673.905029296875 -3.0035510063171387 C 675.065673828125 32.850833892822266 674.5833740234375 64.76375579833984 674.3638916015625 97.40003204345703 C 669.8331909179688 95.84260559082031 653.0289916992188 87.80258178710938 644.5696411132812 90.06329345703125 C 638.60498046875 89.54215240478516 638.1338500976562 85.99028015136719 637.4805297851562 84.34048461914062 C 626.2611694335938 84.52424621582031 619.8121337890625 92.84344482421875 608.0625 86.68090057373047 C 610.1544799804688 74.78299713134766 612.9508056640625 73.66018676757812 614.5965576171875 71.68416595458984 C 622.6010131835938 68.73545837402344 648.6726684570312 25.174964904785156 647.3221435546875 21.359010696411133 C 655.2246704101562 8.850631713867188 656.4684448242188 3.255220890045166 668.5214233398438 3.7195255756378174 C 669.8134155273438 2.681851625442505 670.1251220703125 1.088515043258667 673.905029296875 -3.0035510063171387" stroke-width="0.0" fill="url(#shape_20_fill)"/>
    <path d="M 561.9521484375 155.91793823242188 C 569.8529052734375 156.49887084960938 569.889404296875 161.875244140625 573.6895141601562 165.34127807617188 C 584.4674682617188 168.3245391845703 575.1029663085938 231.2211456298828 577.0858764648438 240.70008850097656 C 576.8298950195312 244.8720703125 575.893310546875 246.91342163085938 576.859375 262.10009765625 C 551.7498779296875 257.7684631347656 542.40478515625 254.43106079101562 540.0921630859375 246.37342834472656 C 544.5194091796875 244.72149658203125 542.2958984375 166.10797119140625 555.0341796875 157.343017578125 C 555.4269409179688 153.20138549804688 558.9293212890625 152.21136474609375 561.9521484375 155.91793823242188" stroke-width="0.0" fill="url(#shape_21_fill)"/>
    <path d="M 215.1227264404297 209.9276123046875 C 233.6964111328125 209.10968017578125 235.44680786132812 240.25509643554688 220.62762451171875 255.9612274169922 C 211.7559356689453 263.2650146484375 209.84539794921875 264.41229248046875 208.9900360107422 273.1781005859375 C 205.91030883789062 275.36492919921875 206.8064422607422 277.1214294433594 206.45870971679688 280.2513122558594 C 206.82579040527344 283.0024108886719 203.57632446289062 285.6009216308594 200.97694396972656 284.9591979980469 C 200.6457061767578 283.3676452636719 190.3724822998047 272.96136474609375 188.0785675048828 264.8630065917969 C 186.6378173828125 261.6447448730469 183.7068328857422 262.6355285644531 181.50314331054688 262.38311767578125 C 180.8018341064453 260.6051940917969 180.09239196777344 260.5213317871094 178.64971923828125 253.23745727539062 C 178.8709259033203 248.43450927734375 168.85403442382812 242.42825317382812 170.77845764160156 238.387451171875 C 175.89488220214844 213.17637634277344 177.29666137695312 213.33084106445312 185.6180419921875 220.58108520507812 C 193.86431884765625 219.24349975585938 194.22634887695312 215.3432159423828 198.56175231933594 213.3982391357422 C 186.1536407470703 206.6546173095703 184.95465087890625 202.04859924316406 198.68341064453125 197.51109313964844 C 213.61981201171875 195.56211853027344 214.46714782714844 200.09474182128906 215.1227264404297 209.9276123046875" stroke-width="0.0" fill="url(#shape_22_fill)"/>
    <path d="M 111.58910369873047 426.3388977050781 C 112.72870635986328 429.2791442871094 111.00757598876953 431.19256591796875 110.66380310058594 431.5496520996094 C 104.33901977539062 432.9605712890625 103.64249420166016 433.8470458984375 91.89655303955078 432.9677429199219 C 89.7641830444336 435.9661560058594 95.67874145507812 446.421630859375 91.62010955810547 452.1399841308594 C 78.66380310058594 444.9972229003906 46.938175201416016 447.9271240234375 25.06189727783203 449.63671875 C 14.018444061279297 446.2458190917969 13.883944511413574 439.7702331542969 17.961843490600586 436.37115478515625 C 34.50881576538086 427.66290283203125 50.30447769165039 426.877685546875 71.35730743408203 427.18798828125 C 73.72618865966797 423.968505859375 110.06414031982422 420.4859313964844 111.58910369873047 426.3388977050781" stroke-width="0.0" fill="url(#shape_23_fill)"/>
    <path d="M 194.25234985351562 123.7680435180664 C 200.270751953125 124.62762451171875 210.61346435546875 144.82969665527344 214.50991821289062 145.23350524902344 C 215.63442993164062 148.1541748046875 218.55335998535156 149.7109375 220.35049438476562 153.75 C 227.20254516601562 158.46363830566406 248.0240936279297 177.98878479003906 244.72738647460938 199.30076599121094 C 239.25537109375 199.52059936523438 235.6763153076172 186.83401489257812 232.26171875 179.98329162597656 C 234.9075164794922 187.01795959472656 233.323486328125 195.9494171142578 230.59776306152344 197.0484161376953 C 227.13414001464844 197.86009216308594 225.9734649658203 203.19546508789062 220.28753662109375 208.5437774658203 C 215.236572265625 207.64630126953125 213.63623046875 198.87852478027344 213.7174530029297 196.12962341308594 C 212.5935821533203 189.73980712890625 212.47044372558594 183.29600524902344 206.5810546875 178.0866241455078 C 203.94415283203125 174.02952575683594 205.01870727539062 173.02293395996094 205.5957489013672 167.70254516601562 C 202.8579864501953 147.55502319335938 199.4062042236328 147.00563049316406 192.55467224121094 143.98587036132812 C 189.27685546875 142.32501220703125 191.26608276367188 128.4326171875 194.25234985351562 123.7680435180664" stroke-width="0.0" fill="url(#shape_24_fill)"/>
    <path d="M 595.657958984375 409.373779296875 C 598.528076171875 410.66510009765625 627.0850219726562 408.2327880859375 629.5225219726562 414.5364685058594 C 629.0812377929688 421.20440673828125 627.1752319335938 425.3719787597656 628.8795776367188 426.64117431640625 C 630.5263061523438 427.837890625 635.9551391601562 428.060302734375 639.6494140625 436.9024353027344 C 617.9411010742188 447.2219543457031 577.9122314453125 439.4559326171875 572.6390380859375 434.9050598144531 C 567.7451171875 427.1323547363281 573.8801879882812 419.5566101074219 576.61962890625 413.78887939453125 C 579.5093383789062 409.3829040527344 587.2472534179688 413.8933410644531 595.657958984375 409.373779296875" stroke-width="0.0" fill="url(#shape_25_fill)"/>
    <path d="M 142.91204833984375 66.72454071044922 C 144.07554626464844 68.94136810302734 149.16944885253906 68.28353881835938 149.63031005859375 69.13626098632812 C 148.90219116210938 70.89909362792969 150.46566772460938 71.82315063476562 149.75833129882812 73.87267303466797 C 151.0811004638672 74.4494857788086 150.12608337402344 78.4419174194336 150.55792236328125 80.46807098388672 C 152.1628875732422 89.45811462402344 152.91773986816406 97.615966796875 153.9382781982422 104.10282897949219 C 153.51333618164062 107.62064361572266 155.11776733398438 108.51821899414062 155.1520233154297 111.45435333251953 C 158.1316375732422 123.43071746826172 155.35250854492188 133.5151824951172 150.41017150878906 133.58004760742188 C 143.07369995117188 126.8106689453125 137.32455444335938 120.0536117553711 126.01487731933594 117.06875610351562 C 122.53445434570312 114.22002410888672 124.55806732177734 109.64692687988281 126.71796417236328 106.85165405273438 C 128.81558227539062 106.84422302246094 128.87281799316406 105.27921295166016 132.66107177734375 104.7167739868164 C 138.35487365722656 96.87134552001953 134.9862823486328 92.77750396728516 133.11936950683594 89.53437042236328 C 134.1456756591797 88.67716217041016 139.3248748779297 87.33755493164062 140.14300537109375 85.35609436035156 C 138.13633728027344 84.74777221679688 138.72850036621094 77.64430236816406 139.49761962890625 77.4781265258789 C 143.5792236328125 76.5973129272461 142.6693878173828 70.33863067626953 142.91204833984375 66.72454071044922" stroke-width="0.0" fill="url(#shape_26_fill)"/>
    <path d="M 140.3165740966797 67.94164276123047 C 148.90020751953125 67.02637481689453 149.83993530273438 68.24974060058594 148.67999267578125 76.84213256835938 C 150.55648803710938 78.21932983398438 151.09471130371094 80.67523193359375 154.5592803955078 85.12469482421875 C 150.37008666992188 90.60610961914062 154.6178436279297 94.71155548095703 151.60348510742188 105.04476928710938 C 152.931640625 105.84439086914062 153.4603271484375 109.31355285644531 155.52325439453125 113.1207046508789 C 152.62376403808594 116.67655181884766 158.16436767578125 122.07521057128906 154.48158264160156 126.14385223388672 C 152.57521057128906 132.0298614501953 151.331298828125 133.17091369628906 147.4697265625 134.0065155029297 C 141.4251251220703 131.801025390625 128.10594177246094 121.85978698730469 129.34130859375 117.74455261230469 C 124.46500396728516 118.73013305664062 122.5949478149414 113.72425079345703 128.1699676513672 110.4241943359375 C 122.9856185913086 108.27093505859375 124.33617401123047 104.93694305419922 133.4528045654297 107.1426773071289 C 136.281005859375 105.71772766113281 133.75326538085938 92.51121520996094 133.3912353515625 89.16046905517578 C 139.5303497314453 87.38325500488281 138.91128540039062 84.943115234375 138.71775817871094 81.4854965209961 C 139.07687377929688 77.51303100585938 140.36569213867188 76.81580352783203 142.1416473388672 77.76435852050781 C 145.56883239746094 72.54313659667969 142.72216796875 70.3244400024414 140.3165740966797 67.94164276123047" stroke-width="0.0" fill="url(#shape_27_fill)"/>
    <path d="M -0.33354371786117554 -0.27222493290901184 C 4.706834316253662 0.3827555477619171 9.658310890197754 -0.5272346138954163 19.399398803710938 -0.9028620719909668 C 25.142274856567383 -0.985881507396698 25.280797958374023 -0.18765223026275635 45.55424880981445 4.167304039001465 C 41.01201629638672 25.69805908203125 28.186580657958984 25.560791015625 27.26664161682129 23.591835021972656 C 47.9981803894043 17.70155906677246 56.17636489868164 17.369037628173828 57.859127044677734 50.42135238647461 C 38.033660888671875 52.47880554199219 28.934938430786133 52.91506576538086 18.14653778076172 48.891807556152344 C 14.846638679504395 39.47064208984375 11.396343231201172 38.27588653564453 9.998373985290527 33.61127853393555 C 9.987627983093262 35.88656234741211 14.424018859863281 39.329803466796875 14.682817459106445 41.03376388549805 C 15.949125289916992 42.21480178833008 15.618906021118164 44.973533630371094 18.2235107421875 47.84610366821289 C 20.07828712463379 51.069854736328125 18.762744903564453 52.3071174621582 20.977710723876953 57.19468307495117 C 21.214216232299805 64.5518798828125 15.658888816833496 66.38684844970703 8.61246109008789 61.38980484008789 C 5.495645046234131 60.88518524169922 3.534505844116211 59.14087677001953 0.3232883810997009 59.434722900390625 C -0.3179531395435333 39.781089782714844 -0.32487016916275024 19.62873649597168 -0.33354371786117554 -0.27222493290901184" stroke-width="0.0" fill="url(#shape_28_fill)"/>
    <path d="M 299.2190856933594 197.18894958496094 C 297.9513244628906 199.53579711914062 299.8448486328125 202.4678955078125 301.5365295410156 207.87945556640625 C 299.0289306640625 213.00857543945312 324.5429992675781 225.79331970214844 316.22491455078125 255.36062622070312 C 311.7794494628906 254.32412719726562 310.5340270996094 255.78753662109375 304.48681640625 254.99502563476562 C 302.1602478027344 258.169677734375 294.19842529296875 258.42724609375 280.9084167480469 255.99923706054688 C 278.6260986328125 225.8907928466797 284.7142333984375 219.0362091064453 299.2190856933594 197.18894958496094" stroke-width="0.0" fill="url(#shape_29_fill)"/>
    <path d="M 0.0030345371924340725 -0.08979573845863342 C 4.51795768737793 0.4432770013809204 9.674102783203125 -0.4140937626361847 14.626745223999023 0.11712824553251266 C 15.829334259033203 0.48690202832221985 16.463144302368164 4.325916290283203 16.403980255126953 8.034480094909668 C 18.861328125 10.889187812805176 21.84039878845215 18.944061279296875 27.224639892578125 20.64999008178711 C 27.14620590209961 22.50594139099121 24.158403396606445 26.72158432006836 24.61802101135254 32.074668884277344 C 20.111886978149414 32.266448974609375 13.248818397521973 30.092449188232422 6.211208343505859 33.7763671875 C 9.037184715270996 35.938941955566406 8.771147727966309 38.767913818359375 10.871075630187988 40.462120056152344 C 10.116240501403809 44.165714263916016 7.717894077301025 49.75641632080078 11.675446510314941 53.767906188964844 C 17.713048934936523 51.336082458496094 19.50725555419922 51.857398986816406 18.29210090637207 58.41716384887695 C 11.329925537109375 60.737388610839844 9.415122985839844 62.63045120239258 0.1929870843887329 61.46404266357422 C -0.42237457633018494 39.969791412353516 -0.35453343391418457 19.755197525024414 0.0030345371924340725 -0.08979573845863342" stroke-width="0.0" fill="url(#shape_30_fill)"/>
    <path d="M 548.2381591796875 70.40575408935547 C 546.0585327148438 77.64578247070312 576.6023559570312 89.6141357421875 581.416259765625 91.70891571044922 C 580.8810424804688 92.74376678466797 577.317138671875 93.31170654296875 577.055908203125 98.2415771484375 C 573.2725219726562 100.71678924560547 572.0702514648438 99.80528259277344 569.2534790039062 100.0124282836914 C 567.5739135742188 95.2715072631836 546.1234741210938 97.19939422607422 538.6637573242188 88.3419418334961 C 538.5487670898438 85.44304656982422 537.9246215820312 83.0778579711914 535.7230834960938 82.30241394042969 C 534.5692749023438 79.81934356689453 527.847900390625 79.64805603027344 527.1376953125 78.38101196289062 C 525.2490234375 75.8138656616211 527.7955932617188 70.86946868896484 531.9276123046875 68.90486907958984 C 538.80859375 67.13031768798828 542.6156616210938 71.62789154052734 548.2381591796875 70.40575408935547" stroke-width="0.0" fill="url(#shape_31_fill)"/>
    <path d="M 447.122802734375 264.4253234863281 C 450.6678161621094 265.27252197265625 451.293212890625 266.7292175292969 455.8515319824219 267.7318420410156 C 460.5113830566406 267.6551208496094 465.32232666015625 270.3759765625 469.935302734375 273.1403503417969 C 470.43206787109375 275.6330261230469 471.8283996582031 276.8897705078125 471.6768798828125 280.76434326171875 C 451.5799865722656 287.7695617675781 430.1394958496094 284.1054992675781 415.8656005859375 285.20465087890625 C 413.4535217285156 273.9055480957031 415.07916259765625 272.3367919921875 415.5972900390625 268.20440673828125 C 418.1904602050781 267.2078552246094 417.7693786621094 264.80303955078125 419.36077880859375 263.12139892578125 C 438.7859802246094 253.33456420898438 446.4100646972656 253.5900115966797 447.122802734375 264.4253234863281" stroke-width="0.0" fill="url(#shape_32_fill)"/>
    <path d="M 272.5507507324219 192.44837951660156 C 275.7523498535156 192.20870971679688 286.7178955078125 243.68423461914062 281.59149169921875 245.66952514648438 C 279.5456848144531 247.696044921875 273.91448974609375 246.8433074951172 269.5893859863281 248.72769165039062 C 266.349365234375 246.09815979003906 266.6996154785156 242.2031707763672 261.1659240722656 240.64132690429688 C 254.33486938476562 209.60194396972656 262.413330078125 206.51319885253906 272.5507507324219 192.44837951660156" stroke-width="0.0" fill="url(#shape_33_fill)"/>
    <path d="M 266.1538391113281 413.3524169921875 C 263.40557861328125 425.0872497558594 265.1280822753906 430.5744934082031 267.66766357421875 440.9478454589844 C 262.20928955078125 440.1686706542969 261.0523376464844 446.60772705078125 257.7758483886719 447.85516357421875 C 245.7471923828125 445.8222351074219 216.60276794433594 448.4623718261719 212.53550720214844 444.857666015625 C 213.0239715576172 436.99578857421875 213.95974731445312 436.2222900390625 215.99362182617188 434.568359375 C 216.28802490234375 433.4910583496094 225.04635620117188 433.6272888183594 226.66592407226562 430.5386047363281 C 228.26437377929688 419.40020751953125 238.06658935546875 419.5954284667969 266.1538391113281 413.3524169921875" stroke-width="0.0" fill="url(#shape_34_fill)"/>
    <path d="M 105.77490234375 69.84464263916016 C 110.02053833007812 69.65410614013672 111.12796020507812 79.25748443603516 112.5512924194336 85.17459106445312 C 117.5145263671875 86.13845825195312 117.0571517944336 110.27103424072266 117.90440368652344 110.75798797607422 C 116.7645492553711 112.5848617553711 110.75370025634766 114.40058898925781 106.8558349609375 124.58989715576172 C 104.65584564208984 117.18807220458984 96.50550079345703 118.82662200927734 89.28369140625 111.24724578857422 C 87.89015197753906 85.735595703125 106.02462768554688 84.63787841796875 105.77490234375 69.84464263916016" stroke-width="0.0" fill="url(#shape_35_fill)"/>
    <path d="M 451.288818359375 178.41595458984375 C 453.3609924316406 176.39817810058594 456.432861328125 177.64108276367188 455.4057922363281 180.27749633789062 C 456.04547119140625 180.80642700195312 455.46527099609375 185.30197143554688 456.4236145019531 185.98468017578125 C 455.9632873535156 188.5811767578125 459.0599060058594 194.16110229492188 459.4275207519531 204.32371520996094 C 459.3211364746094 208.4851531982422 451.50030517578125 209.43679809570312 446.04083251953125 204.4044952392578 C 441.773681640625 207.39849853515625 440.8284912109375 208.73338317871094 433.148193359375 210.94329833984375 C 435.011962890625 209.92129516601562 437.0195007324219 189.16859436035156 438.2296447753906 178.3516082763672 C 440.5815124511719 179.23162841796875 443.6313171386719 181.6029052734375 446.5968933105469 180.8640899658203 C 447.791015625 179.41453552246094 450.1085205078125 179.60630798339844 451.288818359375 178.41595458984375" stroke-width="0.0" fill="url(#shape_36_fill)"/>
    <path d="M 557.2939453125 84.29324340820312 C 561.5922241210938 80.85401153564453 578.494140625 82.7419204711914 580.0470581054688 85.8347396850586 C 581.3468017578125 83.77063751220703 586.2946166992188 85.64839172363281 587.44189453125 88.76190948486328 C 596.3687744140625 101.69190979003906 588.2538452148438 109.43485260009766 574.3704833984375 100.45176696777344 C 573.7846069335938 99.50059509277344 552.5797729492188 96.58118438720703 544.3275146484375 85.56631469726562 C 538.4818725585938 85.66993713378906 537.8784790039062 82.26824188232422 536.0156860351562 80.17560577392578 C 543.0105590820312 74.7738265991211 547.3511962890625 78.61943054199219 557.2939453125 84.29324340820312" stroke-width="0.0" fill="url(#shape_37_fill)"/>
    <path d="M 251.72845458984375 207.92042541503906 C 265.5177917480469 211.93679809570312 261.50445556640625 238.38340759277344 260.035400390625 247.619140625 C 259.5716552734375 254.59425354003906 251.04103088378906 254.5928497314453 249.50369262695312 257.37176513671875 C 234.6002960205078 237.3636932373047 241.13754272460938 214.81295776367188 251.72845458984375 207.92042541503906" stroke-width="0.0" fill="url(#shape_38_fill)"/>
    <path d="M 443.0181884765625 263.3793029785156 C 446.06103515625 263.402099609375 449.1896057128906 266.5720520019531 447.8335876464844 270.0698547363281 C 444.5795593261719 270.3913879394531 442.66180419921875 277.24761962890625 440.8027648925781 278.4028625488281 C 439.33404541015625 286.28045654296875 426.346923828125 285.1449279785156 418.0040283203125 275.9908142089844 C 414.5175476074219 276.8016662597656 413.3446044921875 274.3848571777344 416.16973876953125 271.6418151855469 C 415.181396484375 269.9438171386719 419.2425537109375 262.15838623046875 426.01434326171875 258.2148132324219 C 426.4105529785156 256.6489562988281 438.8832092285156 257.9979553222656 443.0181884765625 263.3793029785156" stroke-width="0.0" fill="url(#shape_39_fill)"/>
    <path d="M 407.7098693847656 409.8264465332031 C 408.6708984375 409.8936767578125 416.77801513671875 419.06597900390625 413.7745361328125 424.2336730957031 C 399.1373291015625 435.95111083984375 386.4219055175781 420.3286437988281 376.59796142578125 420.85845947265625 C 371.0871887207031 417.9567565917969 371.2367858886719 416.5549011230469 372.6144714355469 410.37957763671875 C 375.0377197265625 401.0251770019531 393.8858337402344 404.0091857910156 407.7098693847656 409.8264465332031" stroke-width="0.0" fill="url(#shape_40_fill)"/>
    <path d="M 66.4367904663086 427.5403747558594 C 67.31157684326172 429.048583984375 64.48118591308594 433.63031005859375 58.79700469970703 435.4746398925781 C 57.40279006958008 436.5993957519531 39.50738525390625 436.1197204589844 31.917837142944336 442.7820129394531 C 29.37172508239746 443.576416015625 27.533689498901367 444.04693603515625 17.27488899230957 442.9296569824219 C 16.44436264038086 440.6495666503906 17.8542537689209 439.20758056640625 17.3330135345459 437.8312683105469 C 35.21458435058594 427.2674560546875 54.081382751464844 427.95501708984375 66.4367904663086 427.5403747558594" stroke-width="0.0" fill="url(#shape_41_fill)"/>
    <path d="M 278.3835144042969 381.0326843261719 C 284.6549377441406 381.2285461425781 297.90771484375 381.20697021484375 306.11749267578125 385.4645690917969 C 297.15826416015625 394.84710693359375 299.3135986328125 401.0002136230469 294.43304443359375 405.1339111328125 C 291.7458801269531 399.9176330566406 266.2098388671875 405.9142761230469 259.09930419921875 407.4096984863281 C 248.57757568359375 403.520263671875 244.72215270996094 395.07232666015625 246.56983947753906 383.2012634277344 C 260.9018249511719 380.8292541503906 267.3436584472656 381.9540100097656 278.3835144042969 381.0326843261719" stroke-width="0.0" fill="url(#shape_42_fill)"/>
    <path d="M 222.5896453857422 211.48214721679688 C 223.92892456054688 210.51336669921875 238.14283752441406 210.10531616210938 239.24168395996094 213.51271057128906 C 242.33494567871094 221.1098175048828 246.51744079589844 241.3535614013672 252.92694091796875 268.9334716796875 C 250.7377471923828 273.5466003417969 242.04493713378906 272.87188720703125 209.11550903320312 272.4143371582031 C 207.41416931152344 266.2876892089844 205.2409210205078 253.40313720703125 216.63206481933594 247.79409790039062 C 219.35084533691406 246.46722412109375 218.1646270751953 226.42356872558594 222.5896453857422 211.48214721679688" stroke-width="0.0" fill="url(#shape_43_fill)"/>
    <path d="M 483.62457275390625 395.9634094238281 C 486.79669189453125 399.8089904785156 485.8016357421875 400.9807434082031 483.4894714355469 401.0738525390625 C 472.28033447265625 407.14605712890625 451.1646423339844 406.80450439453125 450.2574768066406 407.6312255859375 C 448.1206970214844 404.4169616699219 451.61981201171875 396.1772155761719 453.631103515625 396.5179138183594 C 464.5718994140625 393.1687316894531 472.0359802246094 392.5060119628906 483.62457275390625 395.9634094238281" stroke-width="0.0" fill="url(#shape_44_fill)"/>
    <path d="M 45.81063461303711 408.06549072265625 C 45.34083557128906 408.523681640625 35.77195739746094 411.67803955078125 33.543968200683594 413.00152587890625 C 32.66652297973633 414.4931335449219 32.142478942871094 415.8827819824219 28.163923263549805 414.89471435546875 C 27.364959716796875 416.9790344238281 24.826988220214844 417.75323486328125 21.47385597229004 420.4936828613281 C 18.554601669311523 420.208740234375 0.023902365937829018 417.3290100097656 -0.7484012246131897 420.48553466796875 C 1.8794139623641968 419.5982360839844 -0.9215435981750488 411.1954345703125 0.902872622013092 410.2369384765625 C 6.8574090003967285 409.49798583984375 45.45819091796875 406.4053039550781 45.81063461303711 408.06549072265625" stroke-width="0.0" fill="url(#shape_45_fill)"/>
    <path d="M 452.17828369140625 174.9169464111328 C 453.89666748046875 175.02554321289062 464.65802001953125 198.78402709960938 466.27789306640625 199.4671173095703 C 462.6294860839844 209.45726013183594 451.55029296875 209.32260131835938 449.4667053222656 206.57212829589844 C 448.3199768066406 203.2555694580078 449.0239562988281 198.3168182373047 448.8509826660156 195.2991943359375 C 447.9570617675781 194.5595245361328 447.5946044921875 192.11196899414062 448.5150146484375 188.01129150390625 C 451.0108337402344 186.64971923828125 450.66021728515625 182.9429931640625 452.17828369140625 174.9169464111328" stroke-width="0.0" fill="url(#shape_46_fill)"/>
    <path d="M 372.737548828125 184.76243591308594 C 378.9067077636719 196.88754272460938 380.4874572753906 202.87796020507812 371.4316711425781 205.86265563964844 C 365.8646545410156 206.82211303710938 364.772216796875 204.8580780029297 361.95220947265625 205.6765899658203 C 341.3898620605469 210.6796875 338.71978759765625 202.0016632080078 353.6929931640625 188.70904541015625 C 356.6700134277344 184.97515869140625 358.3722839355469 184.40939331054688 368.13848876953125 185.46202087402344 C 368.9587097167969 183.23448181152344 372.282470703125 183.77699279785156 372.737548828125 184.76243591308594" stroke-width="0.0" fill="url(#shape_47_fill)"/>
    <path d="M 471.90374755859375 263.8807373046875 C 474.74566650390625 267.6474609375 480.5892028808594 269.8769836425781 480.8499450683594 284.3759765625 C 464.7428894042969 287.36767578125 449.9130554199219 287.02813720703125 444.18841552734375 284.9281921386719 C 439.3416748046875 282.2064208984375 440.00494384765625 276.95806884765625 441.1461486816406 276.429443359375 C 448.95806884765625 266.62274169921875 454.9361572265625 262.5389099121094 471.90374755859375 263.8807373046875" stroke-width="0.0" fill="url(#shape_48_fill)"/>
    <path d="M 177.1717987060547 117.10637664794922 C 177.9438934326172 115.49717712402344 181.7526092529297 116.1750717163086 182.71847534179688 117.30431365966797 C 184.6779022216797 120.26062774658203 183.84951782226562 122.35186767578125 184.7606201171875 123.01717376708984 C 179.5564422607422 126.69400024414062 185.84588623046875 136.58920288085938 182.82754516601562 139.53897094726562 C 181.63824462890625 146.66714477539062 172.82308959960938 146.2432861328125 171.99708557128906 146.81393432617188 C 171.75326538085938 127.03365325927734 170.8106689453125 124.58084106445312 177.1717987060547 117.10637664794922" stroke-width="0.0" fill="url(#shape_49_fill)"/>
    <path d="M 333.6690979003906 427.8797607421875 C 336.97625732421875 429.0003662109375 341.59332275390625 428.83251953125 343.1823425292969 431.838134765625 C 346.365966796875 435.5859069824219 345.15960693359375 437.2235107421875 342.4229431152344 437.585205078125 C 342.79156494140625 446.86163330078125 324.9602355957031 449.0631103515625 323.61663818359375 443.80218505859375 C 321.6797790527344 435.5419921875 321.4776611328125 433.2911682128906 306.82476806640625 429.8123474121094 C 320.40155029296875 426.2023010253906 328.33172607421875 429.40155029296875 333.6690979003906 427.8797607421875" stroke-width="0.0" fill="url(#shape_50_fill)"/>
    <path d="M 306.4389953613281 388.8972473144531 C 302.94061279296875 395.0585632324219 292.7420959472656 397.01275634765625 292.0690612792969 399.16229248046875 C 279.103759765625 397.3864440917969 277.90716552734375 399.2789611816406 271.3180236816406 402.492431640625 C 271.1370544433594 401.60931396484375 269.7592468261719 398.9452819824219 271.2949523925781 397.48858642578125 C 270.0715637207031 395.5274963378906 273.15142822265625 388.23175048828125 279.8049011230469 388.09832763671875 C 284.5273742675781 386.6512145996094 288.6699523925781 391.027587890625 306.4389953613281 388.8972473144531" stroke-width="0.0" fill="url(#shape_51_fill)"/>
    <path d="M 268.9998779296875 184.10440063476562 C 276.0787353515625 194.75628662109375 277.5941162109375 207.76181030273438 280.15875244140625 217.4636993408203 C 271.5546875 210.34124755859375 269.349853515625 208.24554443359375 261.0892333984375 215.7117462158203 C 257.4280090332031 208.0148162841797 263.7489013671875 196.71714782714844 266.58544921875 195.26351928710938 C 269.68878173828125 194.27182006835938 268.92266845703125 191.71534729003906 268.9998779296875 184.10440063476562" stroke-width="0.0" fill="url(#shape_52_fill)"/>
    <path d="M 218.3275909423828 409.4914245605469 C 215.90594482421875 410.9356689453125 215.65953063964844 413.2864990234375 214.2318878173828 414.331298828125 C 214.7865447998047 422.96826171875 192.27423095703125 424.4191589355469 187.55685424804688 415.5646057128906 C 186.28858947753906 405.1146240234375 206.8380889892578 400.24371337890625 218.3275909423828 409.4914245605469" stroke-width="0.0" fill="url(#shape_53_fill)"/>
    <path d="M 205.9108123779297 424.5514831542969 C 205.49658203125 425.26226806640625 206.1455078125 428.2852478027344 204.56703186035156 429.2226867675781 C 194.0242156982422 429.7845458984375 178.81402587890625 430.1905517578125 177.9952850341797 432.646728515625 C 176.8094024658203 430.947265625 178.33602905273438 425.9484558105469 176.9358367919922 423.9016418457031 C 186.90191650390625 418.4449462890625 193.6717071533203 422.96295166015625 205.9108123779297 424.5514831542969" stroke-width="0.0" fill="url(#shape_54_fill)"/>
    <path d="M 268.6736145019531 247.14085388183594 C 275.4388122558594 245.0127716064453 276.6600646972656 247.26185607910156 280.10565185546875 246.82127380371094 C 280.7344970703125 250.99285888671875 280.0965270996094 252.42349243164062 286.4113464355469 262.1948547363281 C 263.4595642089844 258.0050048828125 262.9330139160156 257.3114929199219 251.26690673828125 264.1318359375 C 254.85623168945312 248.17529296875 255.87844848632812 247.23297119140625 258.6504821777344 245.02667236328125 C 260.38250732421875 239.25575256347656 265.8047790527344 239.62107849121094 268.6736145019531 247.14085388183594" stroke-width="0.0" fill="url(#shape_55_fill)"/>
    <path d="M 277.70513916015625 348.8759765625 C 279.4736328125 363.11651611328125 283.9430236816406 363.3262634277344 284.77734375 368.04779052734375 C 285.4287109375 369.2332763671875 286.0049743652344 371.818115234375 285.68304443359375 381.1435241699219 C 275.52679443359375 379.3558654785156 261.6953125 381.46685791015625 241.99037170410156 383.907470703125 C 237.5744171142578 382.0997619628906 236.9048614501953 363.5396423339844 236.92654418945312 350.8340759277344 C 246.31350708007812 348.84234619140625 254.6044464111328 347.9024963378906 277.70513916015625 348.8759765625" stroke-width="0.0" fill="url(#shape_56_fill)"/>
    <path d="M 408.53369140625 271.23089599609375 C 415.7955322265625 268.8893737792969 418.2179260253906 273.0522155761719 421.414794921875 280.2063293457031 C 414.0386657714844 284.5299377441406 406.8468322753906 279.67108154296875 379.5350341796875 276.35107421875 C 378.7374267578125 264.5683898925781 387.2685852050781 263.4969787597656 408.53369140625 271.23089599609375" stroke-width="0.0" fill="url(#shape_57_fill)"/>
    <path d="M 632.0643920898438 351.64251708984375 C 632.9810791015625 355.2380065917969 660.4481811523438 354.3323974609375 668.5935668945312 354.33038330078125 C 668.4868774414062 358.4564514160156 663.0001220703125 360.4757080078125 660.088134765625 357.1913757324219 C 649.1008911132812 355.37957763671875 634.6845703125 359.8213806152344 631.5516357421875 360.4677734375 C 627.8091430664062 357.1165466308594 629.3749389648438 353.5978698730469 632.0643920898438 351.64251708984375" stroke-width="0.0" fill="url(#shape_58_fill)"/>
    <path d="M 341.3207702636719 384.93023681640625 C 342.8084411621094 390.21490478515625 358.1370849609375 391.71722412109375 359.1841735839844 394.68475341796875 C 356.6163635253906 398.30877685546875 339.4450988769531 401.5055236816406 338.35186767578125 399.5416564941406 C 335.13616943359375 399.6180114746094 333.0730895996094 398.78106689453125 331.8512878417969 396.53717041015625 C 331.9886169433594 394.93994140625 330.750732421875 393.4737243652344 332.3168640136719 390.59857177734375 C 333.0114440917969 384.99554443359375 336.3832702636719 384.04766845703125 341.3207702636719 384.93023681640625" stroke-width="0.0" fill="url(#shape_59_fill)"/>
    <path d="M 459.3196105957031 363.8017883300781 C 462.8144836425781 364.4391174316406 472.48150634765625 370.3560485839844 473.1398010253906 374.3023681640625 C 471.8026123046875 376.2256164550781 470.33465576171875 376.87799072265625 463.0310363769531 375.8962707519531 C 458.3325500488281 377.2613830566406 457.50299072265625 377.1064758300781 452.7131042480469 370.9445495605469 C 453.3481140136719 370.1961669921875 459.92779541015625 366.6722106933594 459.3196105957031 363.8017883300781" stroke-width="0.0" fill="url(#shape_60_fill)"/>
    <path d="M 432.3503112792969 432.7691345214844 C 440.0198669433594 434.339111328125 442.44329833984375 436.556640625 442.0486145019531 438.6796569824219 C 440.3310241699219 441.1110534667969 428.9408874511719 439.7786560058594 425.7218933105469 442.3505554199219 C 422.4696960449219 438.9364318847656 423.8846740722656 434.64727783203125 412.11590576171875 425.4537658691406 C 427.67071533203125 428.9932556152344 431.0669250488281 433.609130859375 432.3503112792969 432.7691345214844" stroke-width="0.0" fill="url(#shape_61_fill)"/>
    <path d="M 185.4185791015625 411.4495544433594 C 186.26634216308594 413.93170166015625 185.00607299804688 414.7928771972656 186.9216766357422 417.6639404296875 C 184.8685760498047 420.1930236816406 183.39453125 419.5116882324219 182.49935913085938 419.729736328125 C 180.8138885498047 421.6404113769531 174.44200134277344 420.2178039550781 171.40342712402344 420.14410400390625 C 169.5609588623047 417.77520751953125 169.76889038085938 415.6296081542969 174.09217834472656 413.0677795410156 C 176.52871704101562 412.5219421386719 181.41619873046875 410.6646423339844 185.4185791015625 411.4495544433594" stroke-width="0.0" fill="url(#shape_62_fill)"/>
    <path d="M 332.16021728515625 418.7728576660156 C 334.770263671875 426.0573425292969 329.86590576171875 427.87872314453125 327.2633056640625 425.87939453125 C 324.5698547363281 427.7658996582031 322.9892272949219 426.7196960449219 320.98382568359375 427.5322570800781 C 318.8164367675781 426.01629638671875 319.7992248535156 419.9770812988281 317.5331726074219 418.4793395996094 C 319.0205078125 420.04559326171875 326.0141296386719 418.7288818359375 332.16021728515625 418.7728576660156" stroke-width="0.0" fill="url(#shape_63_fill)"/>
    <path d="M 55.449913024902344 273.5467529296875 C 56.57061767578125 269.3052978515625 65.78536224365234 269.8841247558594 65.45745849609375 278.2440490722656 C 59.13111877441406 279.30035400390625 53.72059631347656 272.81097412109375 48.28535079956055 276.0646667480469 C 50.23249435424805 273.1631774902344 52.42402648925781 272.698486328125 55.449913024902344 273.5467529296875" stroke-width="0.0" fill="url(#shape_64_fill)"/>
    <path d="M 304.59478759765625 439.4658203125 C 304.5602111816406 437.52703857421875 306.3327331542969 436.3802795410156 313.05194091796875 437.52606201171875 C 314.7329406738281 438.84283447265625 312.9905090332031 441.3885803222656 311.2763977050781 441.58123779296875 C 307.9072265625 445.32940673828125 306.6282043457031 444.2227478027344 305.3380126953125 444.2930603027344 C 302.90460205078125 441.66680908203125 302.81854248046875 439.7738952636719 304.59478759765625 439.4658203125" stroke-width="0.0" fill="url(#shape_65_fill)"/>
    <path d="M -0.45718684792518616 -0.42285025119781494 C 224.75379943847656 -0.14611245691776276 444.13360595703125 0.35687434673309326 672.80859375 0.5717470645904541 C 673.5137939453125 154.57752990722656 674.6810913085938 296.1896667480469 673.667724609375 445.4919738769531 C 450.4018249511719 446.3322448730469 230.53553771972656 446.2694091796875 0.5349175333976746 445.3648681640625 C 0.23148207366466522 297.0673522949219 -0.1361469030380249 149.0931854248047 -0.45718684792518616 -0.42285025119781494" stroke-width="0.0" fill="url(#shape_66_fill)"/>
    <path d="M -1.0265265703201294 -0.17055784165859222 C 222.5233917236328 -0.10393892973661423 443.086181640625 0.35539349913597107 672.8159790039062 -0.1839469075202942 C 673.6320190429688 154.8824005126953 674.7526245117188 295.5570373535156 673.3495483398438 445.39727783203125 C 450.66796875 446.409912109375 230.6369171142578 446.3174133300781 0.6356094479560852 445.2729187011719 C 0.143889382481575 297.1793518066406 -0.24846233427524567 148.8810577392578 -1.0265265703201294 -0.17055784165859222" stroke-width="0.0" fill="url(#shape_67_fill)"/>
    <path d="M -0.6698777675628662 -0.22709490358829498 C 223.05258178710938 -0.1450043022632599 442.1000061035156 0.4996224343776703 672.8355712890625 -0.24497583508491516 C 673.6320190429688 154.80372619628906 674.7493286132812 295.5274353027344 673.3515625 445.39837646484375 C 450.67193603515625 446.4104309082031 230.6590576171875 446.3179931640625 1.2069491147994995 445.25299072265625 C 0.5221707224845886 295.531005859375 0.0763014405965805 148.4475555419922 -0.6698777675628662 -0.22709490358829498" stroke-width="0.0" fill="url(#shape_68_fill)"/>
  </g>
</svg>
