<?xml version="1.0" ?>
<svg xmlns="http://www.w3.org/2000/svg" version="1.1" width="674" height="446">
  <defs>
    <radialGradient id="shape_0_fill" cx="0.5370590708022301" cy="0.7435895295421104" r="0.2764919745108494">
      <stop offset="0.87163" stop-color="rgb(178, 179, 0)" stop-opacity="0.9278610944747925"/>
      <stop offset="1.0" stop-color="rgb(46, 32, 0)" stop-opacity="1.0"/>
    </radialGradient>
    <radialGradient id="shape_1_fill" cx="0.5380382594439679" cy="0.745607726777081" r="0.20583635550931936">
      <stop offset="0.6185063" stop-color="rgb(97, 102, 61)" stop-opacity="0.8871731162071228"/>
      <stop offset="1.0" stop-color="rgb(18, 1, 0)" stop-opacity="0.6271865367889404"/>
    </radialGradient>
    <radialGradient id="shape_2_fill" cx="0.09792284866468842" cy="0.7376681614349776" r="0.22062588021026522">
      <stop offset="0.0" stop-color="rgb(30, 91, 183)" stop-opacity="0.998186469078064"/>
      <stop offset="0.99519885" stop-color="rgb(9, 117, 255)" stop-opacity="0.9548467993736267"/>
    </radialGradient>
    <radialGradient id="shape_3_fill" cx="0.2754914371479159" cy="0.21603706599351002" r="0.12692141886634714">
      <stop offset="0.38556743" stop-color="rgb(158, 219, 12)" stop-opacity="0.8538123965263367"/>
      <stop offset="1.0" stop-color="rgb(43, 46, 0)" stop-opacity="0.9867978096008301"/>
    </radialGradient>
    <radialGradient id="shape_4_fill" cx="0.1543026706231454" cy="0.9977578475336323" r="0.10288926755639141">
      <stop offset="0.0" stop-color="rgb(81, 79, 86)" stop-opacity="1.0"/>
      <stop offset="1.0" stop-color="rgb(104, 99, 109)" stop-opacity="0.8402275443077087"/>
    </radialGradient>
    <radialGradient id="shape_5_fill" cx="0.14807964290992442" cy="0.23997249517740155" r="0.11810664960821587">
      <stop offset="0.0" stop-color="rgb(255, 255, 255)" stop-opacity="0.6465769410133362"/>
      <stop offset="0.56268185" stop-color="rgb(255, 255, 255)" stop-opacity="0.6245166063308716"/>
    </radialGradient>
    <radialGradient id="shape_6_fill" cx="0.18397626112759644" cy="0.9977578475336323" r="0.0754974885934892">
      <stop offset="0.0" stop-color="rgb(93, 90, 94)" stop-opacity="1.0"/>
      <stop offset="1.0" stop-color="rgb(150, 128, 134)" stop-opacity="0.7550868391990662"/>
    </radialGradient>
    <radialGradient id="shape_7_fill" cx="0.2893175074183976" cy="0.05829596412556054" r="0.08666390552011372">
      <stop offset="0.0" stop-color="rgb(55, 66, 29)" stop-opacity="1.0"/>
      <stop offset="1.0" stop-color="rgb(80, 89, 21)" stop-opacity="0.8619966506958008"/>
    </radialGradient>
    <radialGradient id="shape_8_fill" cx="0.3382789091115889" cy="0.9439461883408071" r="0.06756690277190167">
      <stop offset="0.0" stop-color="rgb(91, 124, 45)" stop-opacity="1.0"/>
      <stop offset="1.0" stop-color="rgb(144, 193, 79)" stop-opacity="0.752472460269928"/>
    </radialGradient>
    <radialGradient id="shape_9_fill" cx="0.30712166172106825" cy="0.9977578475336323" r="0.0730758406641929">
      <stop offset="0.0" stop-color="rgb(38, 48, 20)" stop-opacity="1.0"/>
      <stop offset="1.0" stop-color="rgb(19, 24, 19)" stop-opacity="0.9651670455932617"/>
    </radialGradient>
    <radialGradient id="shape_10_fill" cx="0.3056379821958457" cy="0.9977578475336323" r="0.06792919147615971">
      <stop offset="0.0" stop-color="rgb(39, 49, 21)" stop-opacity="1.0"/>
      <stop offset="1.0" stop-color="rgb(42, 34, 0)" stop-opacity="0.7213845252990723"/>
    </radialGradient>
    <radialGradient id="shape_11_fill" cx="0.21810089020771514" cy="0.968609865470852" r="0.06792919147615971">
      <stop offset="0.0" stop-color="rgb(138, 135, 129)" stop-opacity="1.0"/>
      <stop offset="1.0" stop-color="rgb(222, 190, 178)" stop-opacity="0.5689396858215332"/>
    </radialGradient>
    <radialGradient id="shape_12_fill" cx="0.29080118694362017" cy="0.9977578475336323" r="0.07480746985189285">
      <stop offset="0.0" stop-color="rgb(22, 25, 13)" stop-opacity="1.0"/>
      <stop offset="1.0" stop-color="rgb(23, 19, 0)" stop-opacity="1.0"/>
    </radialGradient>
    <radialGradient id="shape_13_fill" cx="0.327893175074184" cy="0.8923766816143498" r="0.06900465877544279">
      <stop offset="0.0" stop-color="rgb(89, 117, 50)" stop-opacity="1.0"/>
      <stop offset="1.0" stop-color="rgb(131, 173, 39)" stop-opacity="0.8890560865402222"/>
    </radialGradient>
    <radialGradient id="shape_14_fill" cx="0.142433234421365" cy="0.9977578475336323" r="0.06617211022079875">
      <stop offset="0.0" stop-color="rgb(155, 150, 153)" stop-opacity="1.0"/>
      <stop offset="1.0" stop-color="rgb(255, 255, 255)" stop-opacity="0.39694494009017944"/>
    </radialGradient>
    <radialGradient id="shape_15_fill" cx="0.31008902077151335" cy="0.9977578475336323" r="0.06683642786405207">
      <stop offset="0.0" stop-color="rgb(43, 55, 23)" stop-opacity="1.0"/>
      <stop offset="1.0" stop-color="rgb(52, 62, 10)" stop-opacity="0.9484988451004028"/>
    </radialGradient>
    <radialGradient id="shape_16_fill" cx="0.27299703264094954" cy="0.9977578475336323" r="0.08110449363640579">
      <stop offset="0.0" stop-color="rgb(31, 35, 19)" stop-opacity="1.0"/>
      <stop offset="1.0" stop-color="rgb(30, 27, 0)" stop-opacity="1.0"/>
    </radialGradient>
    <radialGradient id="shape_17_fill" cx="0.2893175074183976" cy="0.9977578475336323" r="0.07513486030193747">
      <stop offset="0.0" stop-color="rgb(22, 23, 13)" stop-opacity="1.0"/>
      <stop offset="1.0" stop-color="rgb(0, 0, 0)" stop-opacity="0.6017209887504578"/>
    </radialGradient>
    <radialGradient id="shape_18_fill" cx="0.3293768545994065" cy="0.7556053811659192" r="0.06617211022079875">
      <stop offset="0.0" stop-color="rgb(83, 108, 65)" stop-opacity="1.0"/>
      <stop offset="1.0" stop-color="rgb(111, 145, 55)" stop-opacity="0.922991931438446"/>
    </radialGradient>
    <radialGradient id="shape_19_fill" cx="0.3516320474777448" cy="0.9977578475336323" r="0.06617211022079875">
      <stop offset="0.0" stop-color="rgb(95, 135, 39)" stop-opacity="1.0"/>
      <stop offset="1.0" stop-color="rgb(155, 230, 12)" stop-opacity="0.8382083177566528"/>
    </radialGradient>
    <radialGradient id="shape_20_fill" cx="0.0830860534124629" cy="0.9977578475336323" r="0.06792919147615971">
      <stop offset="0.0" stop-color="rgb(49, 52, 66)" stop-opacity="1.0"/>
      <stop offset="1.0" stop-color="rgb(25, 23, 57)" stop-opacity="0.6446720957756042"/>
    </radialGradient>
    <radialGradient id="shape_21_fill" cx="0.29821958456973297" cy="0.9977578475336323" r="0.06792919147615971">
      <stop offset="0.0" stop-color="rgb(33, 40, 17)" stop-opacity="1.0"/>
      <stop offset="1.0" stop-color="rgb(26, 36, 0)" stop-opacity="0.6766647696495056"/>
    </radialGradient>
    <radialGradient id="shape_22_fill" cx="0.3564346947372844" cy="0.44366290857973656" r="0.06591664435955466">
      <stop offset="0.0" stop-color="rgb(224, 252, 0)" stop-opacity="0.6314613819122314"/>
      <stop offset="0.43007222" stop-color="rgb(164, 206, 30)" stop-opacity="0.8998847007751465"/>
    </radialGradient>
    <radialGradient id="shape_23_fill" cx="0.6454005934718101" cy="0.1412556053811659" r="0.06617211022079875">
      <stop offset="0.0" stop-color="rgb(46, 38, 13)" stop-opacity="1.0"/>
      <stop offset="1.0" stop-color="rgb(48, 23, 0)" stop-opacity="0.8071715235710144"/>
    </radialGradient>
    <radialGradient id="shape_24_fill" cx="0.24925732258873098" cy="0.48430544592339897" r="0.06617138010811735">
      <stop offset="0.0" stop-color="rgb(201, 209, 206)" stop-opacity="1.0"/>
      <stop offset="0.9766132" stop-color="rgb(255, 255, 255)" stop-opacity="0.5259820818901062"/>
    </radialGradient>
    <radialGradient id="shape_25_fill" cx="0.6320474777448071" cy="0.9977578475336323" r="0.06617211022079875">
      <stop offset="0.0" stop-color="rgb(35, 28, 8)" stop-opacity="1.0"/>
      <stop offset="1.0" stop-color="rgb(34, 5, 0)" stop-opacity="0.6642342209815979"/>
    </radialGradient>
    <radialGradient id="shape_26_fill" cx="0.15414549830405577" cy="0.320708646902589" r="0.0660472326533377">
      <stop offset="0.11955841" stop-color="rgb(198, 211, 155)" stop-opacity="1.0"/>
      <stop offset="0.583799" stop-color="rgb(115, 115, 253)" stop-opacity="0.0"/>
    </radialGradient>
    <radialGradient id="shape_27_fill" cx="0.15410647972401242" cy="0.3208032787648017" r="0.06604505929465818">
      <stop offset="0.0" stop-color="rgb(192, 205, 0)" stop-opacity="1.0"/>
      <stop offset="0.49382544" stop-color="rgb(84, 78, 53)" stop-opacity="0.578353226184845"/>
    </radialGradient>
    <radialGradient id="shape_28_fill" cx="0.040030785059716655" cy="0.02037421684094074" r="0.06709819872938207">
      <stop offset="0.035381597" stop-color="rgb(0, 12, 121)" stop-opacity="0.9604743123054504"/>
      <stop offset="0.79146975" stop-color="rgb(0, 25, 141)" stop-opacity="0.7607221007347107"/>
    </radialGradient>
    <radialGradient id="shape_29_fill" cx="0.33976258863681147" cy="0.6659192825112108" r="0.06617211022079875">
      <stop offset="0.0" stop-color="rgb(90, 117, 55)" stop-opacity="1.0"/>
      <stop offset="1.0" stop-color="rgb(122, 158, 34)" stop-opacity="0.9284407496452332"/>
    </radialGradient>
    <radialGradient id="shape_30_fill" cx="0.04078502541833532" cy="0.019196219508423398" r="0.06708644334923267">
      <stop offset="0.29110247" stop-color="rgb(47, 76, 55)" stop-opacity="0.8733099102973938"/>
      <stop offset="0.99321204" stop-color="rgb(33, 44, 48)" stop-opacity="0.7550613880157471"/>
    </radialGradient>
    <radialGradient id="shape_31_fill" cx="0.12314540059347182" cy="0.9977578475336323" r="0.06617211022079875">
      <stop offset="0.0" stop-color="rgb(95, 103, 98)" stop-opacity="1.0"/>
      <stop offset="1.0" stop-color="rgb(153, 141, 130)" stop-opacity="0.7363218665122986"/>
    </radialGradient>
    <radialGradient id="shape_32_fill" cx="0.4035608308605341" cy="0.984304932735426" r="0.06617211022079875">
      <stop offset="0.0" stop-color="rgb(126, 155, 63)" stop-opacity="1.0"/>
      <stop offset="1.0" stop-color="rgb(187, 158, 32)" stop-opacity="0.9433862566947937"/>
    </radialGradient>
    <radialGradient id="shape_33_fill" cx="0.3249258160237389" cy="0.6053811659192825" r="0.06617211022079875">
      <stop offset="0.0" stop-color="rgb(93, 124, 71)" stop-opacity="1.0"/>
      <stop offset="1.0" stop-color="rgb(126, 159, 40)" stop-opacity="0.935102641582489"/>
    </radialGradient>
    <radialGradient id="shape_34_fill" cx="0.6468842729970327" cy="0.531390134529148" r="0.06617211022079875">
      <stop offset="0.0" stop-color="rgb(54, 47, 24)" stop-opacity="1.0"/>
      <stop offset="1.0" stop-color="rgb(68, 38, 5)" stop-opacity="0.7198746800422668"/>
    </radialGradient>
    <radialGradient id="shape_35_fill" cx="0.1430782804857022" cy="0.23524227056802655" r="0.06657629267751994">
      <stop offset="0.0" stop-color="rgb(135, 216, 33)" stop-opacity="0.26949459314346313"/>
      <stop offset="0.5278896" stop-color="rgb(158, 151, 84)" stop-opacity="0.5347524881362915"/>
    </radialGradient>
    <radialGradient id="shape_36_fill" cx="0.2878338278931751" cy="0.9977578475336323" r="0.06617211022079875">
      <stop offset="0.0" stop-color="rgb(80, 96, 53)" stop-opacity="1.0"/>
      <stop offset="1.0" stop-color="rgb(69, 69, 33)" stop-opacity="0.9526349902153015"/>
    </radialGradient>
    <radialGradient id="shape_37_fill" cx="0.129080118694362" cy="0.9977578475336323" r="0.06617211022079875">
      <stop offset="0.0" stop-color="rgb(87, 97, 81)" stop-opacity="1.0"/>
      <stop offset="1.0" stop-color="rgb(106, 116, 86)" stop-opacity="0.7949555516242981"/>
    </radialGradient>
    <radialGradient id="shape_38_fill" cx="0.3389231288468449" cy="0.5607740119968294" r="0.06667862164868092">
      <stop offset="0.7495939" stop-color="rgb(87, 126, 11)" stop-opacity="0.8962093591690063"/>
      <stop offset="0.6027843" stop-color="rgb(179, 255, 57)" stop-opacity="0.8052359819412231"/>
    </radialGradient>
    <radialGradient id="shape_39_fill" cx="0.40059347181008903" cy="0.9641255605381166" r="0.06617211022079875">
      <stop offset="0.0" stop-color="rgb(138, 168, 60)" stop-opacity="1.0"/>
      <stop offset="1.0" stop-color="rgb(234, 255, 79)" stop-opacity="1.0"/>
    </radialGradient>
    <radialGradient id="shape_40_fill" cx="0.6166212042290662" cy="0.8826375371137543" r="0.06665070757314076">
      <stop offset="0.3785736" stop-color="rgb(112, 87, 83)" stop-opacity="0.5568313002586365"/>
      <stop offset="0.49102205" stop-color="rgb(0, 0, 56)" stop-opacity="1.0"/>
    </radialGradient>
    <radialGradient id="shape_41_fill" cx="0.6454005934718101" cy="0.08744394618834081" r="0.06617211022079875">
      <stop offset="0.0" stop-color="rgb(58, 48, 21)" stop-opacity="1.0"/>
      <stop offset="1.0" stop-color="rgb(89, 58, 3)" stop-opacity="0.9441617727279663"/>
    </radialGradient>
    <radialGradient id="shape_42_fill" cx="0.5845697329376854" cy="0.6188340807174888" r="0.06617211022079875">
      <stop offset="0.0" stop-color="rgb(62, 59, 56)" stop-opacity="1.0"/>
      <stop offset="1.0" stop-color="rgb(32, 29, 68)" stop-opacity="0.7443128824234009"/>
    </radialGradient>
    <radialGradient id="shape_43_fill" cx="0.3570917735113942" cy="0.5052588766465808" r="0.06688135526300538">
      <stop offset="0.21488063" stop-color="rgb(128, 174, 53)" stop-opacity="1.0"/>
      <stop offset="0.50305307" stop-color="rgb(207, 255, 21)" stop-opacity="0.8681108951568604"/>
    </radialGradient>
    <radialGradient id="shape_44_fill" cx="0.5934718100890207" cy="0.9977578475336323" r="0.06617211022079875">
      <stop offset="0.0" stop-color="rgb(89, 61, 18)" stop-opacity="1.0"/>
      <stop offset="1.0" stop-color="rgb(180, 80, 0)" stop-opacity="0.732265055179596"/>
    </radialGradient>
    <radialGradient id="shape_45_fill" cx="0.612759643916914" cy="0.04035874439461883" r="0.06617211022079875">
      <stop offset="0.0" stop-color="rgb(157, 136, 123)" stop-opacity="1.0"/>
      <stop offset="1.0" stop-color="rgb(255, 233, 210)" stop-opacity="1.0"/>
    </radialGradient>
    <radialGradient id="shape_46_fill" cx="0.28635014836795253" cy="0.9977578475336323" r="0.06617211022079875">
      <stop offset="0.0" stop-color="rgb(82, 99, 55)" stop-opacity="1.0"/>
      <stop offset="1.0" stop-color="rgb(107, 121, 28)" stop-opacity="0.49965929985046387"/>
    </radialGradient>
    <radialGradient id="shape_47_fill" cx="0.28635014836795253" cy="0.8183856502242153" r="0.06617211022079875">
      <stop offset="0.0" stop-color="rgb(166, 189, 197)" stop-opacity="1.0"/>
      <stop offset="1.0" stop-color="rgb(255, 255, 255)" stop-opacity="0.46014946699142456"/>
    </radialGradient>
    <radialGradient id="shape_48_fill" cx="0.40801186943620177" cy="0.9977578475336323" r="0.06617211022079875">
      <stop offset="0.0" stop-color="rgb(107, 135, 68)" stop-opacity="1.0"/>
      <stop offset="1.0" stop-color="rgb(140, 156, 53)" stop-opacity="1.0"/>
    </radialGradient>
    <radialGradient id="shape_49_fill" cx="0.19287833827893175" cy="0.3991031390134529" r="0.06617211022079875">
      <stop offset="0.0" stop-color="rgb(92, 100, 54)" stop-opacity="1.0"/>
      <stop offset="1.0" stop-color="rgb(112, 99, 40)" stop-opacity="0.6461313962936401"/>
    </radialGradient>
    <radialGradient id="shape_50_fill" cx="0.6439169139465876" cy="0.7376681614349776" r="0.06617211022079875">
      <stop offset="0.0" stop-color="rgb(65, 56, 25)" stop-opacity="1.0"/>
      <stop offset="1.0" stop-color="rgb(151, 194, 41)" stop-opacity="0.4328395128250122"/>
    </radialGradient>
    <radialGradient id="shape_51_fill" cx="0.5845697329376854" cy="0.6322869955156951" r="0.06617211022079875">
      <stop offset="0.0" stop-color="rgb(75, 68, 60)" stop-opacity="1.0"/>
      <stop offset="1.0" stop-color="rgb(134, 104, 86)" stop-opacity="0.8463819622993469"/>
    </radialGradient>
    <radialGradient id="shape_52_fill" cx="0.2997032640949555" cy="0.6031390134529148" r="0.06617211022079875">
      <stop offset="0.0" stop-color="rgb(107, 158, 118)" stop-opacity="1.0"/>
      <stop offset="1.0" stop-color="rgb(190, 255, 207)" stop-opacity="0.8048779964447021"/>
    </radialGradient>
    <radialGradient id="shape_53_fill" cx="0.6097922848664689" cy="0.45067264573991034" r="0.06617211022079875">
      <stop offset="0.0" stop-color="rgb(38, 39, 27)" stop-opacity="1.0"/>
      <stop offset="1.0" stop-color="rgb(10, 0, 14)" stop-opacity="0.5826948881149292"/>
    </radialGradient>
    <radialGradient id="shape_54_fill" cx="0.6335311572700296" cy="0.426009002822397" r="0.06617211022079875">
      <stop offset="0.0" stop-color="rgb(67, 49, 20)" stop-opacity="1.0"/>
      <stop offset="1.0" stop-color="rgb(112, 56, 0)" stop-opacity="0.8117576241493225"/>
    </radialGradient>
    <radialGradient id="shape_55_fill" cx="0.37070779772116097" cy="0.5988534149033071" r="0.06599978098883473">
      <stop offset="0.41511902" stop-color="rgb(243, 255, 42)" stop-opacity="0.8506808876991272"/>
      <stop offset="0.17176884" stop-color="rgb(207, 255, 4)" stop-opacity="0.7957757115364075"/>
    </radialGradient>
    <radialGradient id="shape_56_fill" cx="0.5489614243323442" cy="0.600896860986547" r="0.06617211022079875">
      <stop offset="0.0" stop-color="rgb(50, 62, 80)" stop-opacity="1.0"/>
      <stop offset="1.0" stop-color="rgb(27, 58, 163)" stop-opacity="0.6126040816307068"/>
    </radialGradient>
    <radialGradient id="shape_57_fill" cx="0.4094955489614243" cy="0.9035874439461884" r="0.06617211022079875">
      <stop offset="0.0" stop-color="rgb(111, 144, 47)" stop-opacity="1.0"/>
      <stop offset="1.0" stop-color="rgb(181, 211, 29)" stop-opacity="0.8590185642242432"/>
    </radialGradient>
    <radialGradient id="shape_58_fill" cx="0.5281899109792285" cy="0.9977578475336323" r="0.06617211022079875">
      <stop offset="0.0" stop-color="rgb(50, 43, 14)" stop-opacity="1.0"/>
      <stop offset="1.0" stop-color="rgb(66, 42, 0)" stop-opacity="1.0"/>
    </radialGradient>
    <radialGradient id="shape_59_fill" cx="0.5845697329376854" cy="0.7690582959641256" r="0.06617211022079875">
      <stop offset="0.0" stop-color="rgb(61, 63, 58)" stop-opacity="1.0"/>
      <stop offset="1.0" stop-color="rgb(70, 70, 98)" stop-opacity="0.7251496315002441"/>
    </radialGradient>
    <radialGradient id="shape_60_fill" cx="0.5489614243323442" cy="0.9977578475336323" r="0.06617211022079875">
      <stop offset="0.0" stop-color="rgb(140, 131, 64)" stop-opacity="1.0"/>
      <stop offset="1.0" stop-color="rgb(248, 217, 85)" stop-opacity="0.9388501644134521"/>
    </radialGradient>
    <radialGradient id="shape_61_fill" cx="0.6468606377213928" cy="0.9686186923039868" r="0.06617818883335555">
      <stop offset="0.377202" stop-color="rgb(255, 255, 2)" stop-opacity="1.0"/>
      <stop offset="1.0" stop-color="rgb(255, 222, 0)" stop-opacity="1.0"/>
    </radialGradient>
    <radialGradient id="shape_62_fill" cx="0.615727002967359" cy="0.3991031390134529" r="0.06617211022079875">
      <stop offset="0.0" stop-color="rgb(55, 47, 13)" stop-opacity="1.0"/>
      <stop offset="1.0" stop-color="rgb(76, 48, 0)" stop-opacity="0.9788157939910889"/>
    </radialGradient>
    <radialGradient id="shape_63_fill" cx="0.6261127596439169" cy="0.7286995515695067" r="0.06617211022079875">
      <stop offset="0.0" stop-color="rgb(79, 66, 32)" stop-opacity="1.0"/>
      <stop offset="1.0" stop-color="rgb(211, 232, 85)" stop-opacity="0.7138622999191284"/>
    </radialGradient>
    <radialGradient id="shape_64_fill" cx="0.40801186943620177" cy="0.12556053811659193" r="0.06617211022079875">
      <stop offset="0.0" stop-color="rgb(76, 66, 59)" stop-opacity="1.0"/>
      <stop offset="1.0" stop-color="rgb(100, 68, 63)" stop-opacity="1.0"/>
    </radialGradient>
    <radialGradient id="shape_65_fill" cx="0.6528189910979229" cy="0.6883408071748879" r="0.06617211022079875">
      <stop offset="0.0" stop-color="rgb(121, 97, 39)" stop-opacity="1.0"/>
      <stop offset="1.0" stop-color="rgb(255, 255, 84)" stop-opacity="1.0"/>
    </radialGradient>
    <radialGradient id="shape_66_fill" cx="0.6508479358888167" cy="0.46081262425991454" r="0.06793688878814969">
      <stop offset="0.36385226" stop-color="rgb(147, 182, 81)" stop-opacity="0.4003397226333618"/>
      <stop offset="0.96565795" stop-color="rgb(0, 0, 0)" stop-opacity="0.061932522803545"/>
    </radialGradient>
    <radialGradient id="shape_67_fill" cx="0.5941481321431056" cy="0.9954219527308716" r="0.06833794138198082">
      <stop offset="0.9164104" stop-color="rgb(51, 26, 0)" stop-opacity="0.7805513143539429"/>
      <stop offset="1.0" stop-color="rgb(0, 0, 0)" stop-opacity="0.16510523855686188"/>
    </radialGradient>
    <radialGradient id="shape_68_fill" cx="0.48855215010374164" cy="0.9963341956715948" r="0.06749414053444339">
      <stop offset="0.43735743" stop-color="rgb(52, 33, 20)" stop-opacity="0.7131699919700623"/>
      <stop offset="1.0" stop-color="rgb(50, 69, 61)" stop-opacity="0.3245556652545929"/>
    </radialGradient>
  </defs>
  <g>
    <path d="M -0.26344287395477295 271.2228088378906 C 25.773258209228516 270.34832763671875 34.73173141479492 271.301025390625 44.8917236328125 273.2437438964844 C 48.084007263183594 274.7889404296875 49.36421585083008 276.59820556640625 57.107276916503906 274.53619384765625 C 60.482391357421875 273.7973937988281 63.88067626953125 274.56121826171875 64.73368835449219 273.3464660644531 C 71.63863372802734 271.0146484375 101.47269439697266 271.4872131347656 115.62283325195312 271.70550537109375 C 119.22249603271484 273.78082275390625 127.18106079101562 278.19915771484375 125.89969635009766 282.7903137207031 C 133.84483337402344 282.22503662109375 140.250732421875 281.3477783203125 146.88937377929688 284.8038024902344 C 185.26356506347656 281.92852783203125 185.75584411621094 282.5186767578125 206.5109405517578 286.9506530761719 C 199.89991760253906 288.2618103027344 198.1382598876953 283.4626159667969 214.7050323486328 274.26324462890625 C 241.55987548828125 275.6317138671875 284.5313415527344 274.8097229003906 308.42431640625 280.0634460449219 C 341.349609375 282.064453125 417.5578918457031 281.84466552734375 460.6458740234375 279.3462219238281 C 487.6194152832031 278.6252746582031 536.747802734375 280.2438049316406 540.208251953125 285.8887634277344 C 549.2449951171875 285.9837646484375 550.7048950195312 281.1681823730469 563.5449829101562 278.2348937988281 C 575.6563720703125 281.67108154296875 612.0098876953125 284.7516784667969 612.8267822265625 285.53094482421875 C 634.0730590820312 278.2945556640625 644.0807495117188 278.903564453125 663.8295288085938 278.857421875 C 669.02978515625 279.4963073730469 674.7234497070312 283.8266906738281 676.4462280273438 287.9556579589844 C 676.121337890625 339.19183349609375 675.1437377929688 391.8122863769531 675.108642578125 446.4478759765625 C 451.9100036621094 446.6553955078125 228.99114990234375 446.7956237792969 -0.4595968723297119 446.40625 C -0.4137532114982605 389.1458435058594 0.27220457792282104 332.36083984375 -0.26344287395477295 271.2228088378906" stroke-width="0.0" fill="url(#shape_0_fill)"/>
    <path d="M -0.045298729091882706 271.50286865234375 C 35.933231353759766 275.3992919921875 36.5576057434082 274.5904235839844 44.47505569458008 275.8807373046875 C 52.5692253112793 271.0716857910156 64.1883316040039 269.83575439453125 77.5631332397461 271.1057434082031 C 113.46562194824219 278.68035888671875 114.0172348022461 279.3109130859375 127.14883422851562 278.7883605957031 C 127.11731719970703 276.5149230957031 150.41836547851562 276.21282958984375 153.80551147460938 275.14239501953125 C 185.07070922851562 274.3200378417969 185.66050720214844 275.81121826171875 201.07444763183594 277.84625244140625 C 203.61004638671875 291.5650329589844 205.63525390625 291.4902038574219 221.86322021484375 292.0047302246094 C 222.48193359375 290.8081970214844 274.64886474609375 292.59698486328125 295.2601318359375 293.9610290527344 C 327.23614501953125 295.8383483886719 447.6427307128906 293.7811279296875 453.0861511230469 293.9247131347656 C 471.0888366699219 290.1025085449219 487.7945556640625 291.4444885253906 505.7588195800781 288.32781982421875 C 509.5223388671875 287.47772216796875 518.0145263671875 286.1546630859375 522.8269653320312 286.42510986328125 C 527.5242919921875 285.67279052734375 531.8775634765625 285.8723449707031 535.1217041015625 287.0159606933594 C 543.70263671875 286.7602233886719 550.92431640625 287.89111328125 557.9066772460938 292.2115478515625 C 571.3247680664062 287.36248779296875 579.3226318359375 288.72552490234375 587.7042236328125 290.43585205078125 C 606.3804931640625 288.7098693847656 619.522216796875 287.869140625 632.8139038085938 288.3210754394531 C 645.5751342773438 281.99993896484375 656.2630615234375 287.670654296875 673.5581665039062 289.66058349609375 C 673.7969970703125 340.87017822265625 674.408935546875 392.3016357421875 674.1444091796875 446.2807922363281 C 451.4774169921875 446.3905334472656 229.19664001464844 446.25439453125 -0.3076556622982025 446.2476501464844 C -0.21357887983322144 389.4035949707031 -0.2940112352371216 333.0278625488281 -0.045298729091882706 271.50286865234375" stroke-width="0.0" fill="url(#shape_1_fill)"/>
    <path d="M -0.014576107263565063 -0.259891539812088 C 219.69313049316406 0.10403645783662796 439.478759765625 -0.4524174630641937 671.027587890625 -0.2690006196498871 C 663.673828125 9.111586570739746 645.8328857421875 36.75794219970703 636.968017578125 47.10063552856445 C 633.8825073242188 52.998382568359375 611.0123901367188 94.16513061523438 585.486083984375 84.27381134033203 C 578.2053833007812 81.39056396484375 559.4568481445312 70.7706069946289 533.0342407226562 73.80709838867188 C 531.5894775390625 75.36466217041016 524.7327880859375 77.21488189697266 522.5880126953125 72.03907775878906 C 522.6076049804688 68.8115234375 499.6578369140625 63.633567810058594 499.8398742675781 62.50229263305664 C 492.7737121582031 62.124000549316406 487.45947265625 61.06993865966797 483.53790283203125 68.5216064453125 C 474.8260498046875 70.8434829711914 475.6635437011719 74.3245620727539 476.323486328125 80.19315338134766 C 480.12762451171875 93.67520904541016 470.5087890625 110.02189636230469 466.3006286621094 114.52175903320312 C 460.5986022949219 115.6607666015625 455.133056640625 113.28482055664062 452.17291259765625 108.81828308105469 C 435.80194091796875 107.32723999023438 411.62152099609375 102.59385681152344 410.7418212890625 104.8624496459961 C 409.6876525878906 118.86481475830078 409.3753967285156 123.41954803466797 405.6515197753906 129.73355102539062 C 403.33795166015625 137.33847045898438 394.9477233886719 137.77259826660156 390.1784362792969 137.9322509765625 C 381.0908203125 143.3495330810547 375.25732421875 158.42799377441406 371.1573181152344 157.64967346191406 C 370.3439636230469 162.9587860107422 369.0713806152344 166.94725036621094 365.3629150390625 171.330810546875 C 363.1158142089844 173.78778076171875 359.8512268066406 173.01113891601562 352.68707275390625 178.25503540039062 C 345.9892578125 185.96340942382812 336.40447998046875 177.6531219482422 328.9441833496094 174.48922729492188 C 308.18450927734375 174.6229248046875 307.5355529785156 181.07276916503906 305.7782287597656 183.95033264160156 C 305.20989990234375 189.32582092285156 303.9206848144531 192.6929473876953 307.6082458496094 201.27838134765625 C 307.2453918457031 200.92877197265625 305.90447998046875 198.61134338378906 305.7644348144531 192.08584594726562 C 303.9200439453125 190.187744140625 299.0826416015625 190.48765563964844 286.0028991699219 185.12603759765625 C 290.16851806640625 194.30648803710938 289.5739440917969 195.98867797851562 289.3966369628906 196.32086181640625 C 287.6512756347656 190.73934936523438 286.4643249511719 185.27053833007812 284.512939453125 184.27813720703125 C 273.12518310546875 186.17835998535156 271.2984924316406 189.37228393554688 265.5804138183594 186.2495574951172 C 259.06683349609375 186.96620178222656 259.2024230957031 191.0633087158203 258.7867431640625 197.6688995361328 C 261.1120300292969 199.2511444091797 260.4353332519531 200.3711395263672 257.770751953125 199.57603454589844 C 256.9466247558594 199.6772918701172 251.5755615234375 198.135498046875 252.1130828857422 195.03717041015625 C 252.92059326171875 189.95590209960938 253.7735137939453 187.34982299804688 250.2107696533203 175.03726196289062 C 253.81817626953125 169.50621032714844 216.2156524658203 141.95755004882812 214.37632751464844 139.61387634277344 C 184.68246459960938 125.84630584716797 195.57923889160156 101.97315216064453 191.94345092773438 88.49705505371094 C 193.2439727783203 83.4715805053711 157.63632202148438 72.96179962158203 142.0232391357422 64.60906219482422 C 116.36369323730469 38.916202545166016 68.26788330078125 54.347869873046875 36.1135368347168 62.20489501953125 C 16.969223022460938 69.87019348144531 11.160175323486328 69.19105529785156 -0.5232336521148682 69.64445495605469 C 0.3417375981807709 43.95853042602539 -0.3314954936504364 22.56199073791504 -0.014576107263565063 -0.259891539812088" stroke-width="0.0" fill="url(#shape_2_fill)"/>
    <path d="M 86.38990020751953 66.38216400146484 C 88.48818969726562 69.0702133178711 92.55721282958984 68.51667022705078 93.734619140625 69.3198471069336 C 90.81839752197266 79.2269287109375 91.4051742553711 81.61455535888672 91.05223083496094 86.9081802368164 C 95.84345245361328 84.4469223022461 97.57530212402344 87.19564819335938 102.82426452636719 88.57555389404297 C 104.39351654052734 75.55040740966797 105.70286560058594 73.37188720703125 108.88787078857422 73.74872589111328 C 111.70941925048828 87.68653106689453 111.55125427246094 93.81458282470703 116.13055419921875 99.45327758789062 C 116.69712829589844 100.06781005859375 116.46595764160156 108.53983306884766 115.57968139648438 115.61820983886719 C 124.82587432861328 115.03376770019531 128.76658630371094 115.13243865966797 129.58973693847656 113.6268310546875 C 129.9569091796875 108.75463104248047 136.35289001464844 107.2097396850586 136.4657745361328 104.50340270996094 C 136.60223388671875 103.6908950805664 135.5321502685547 101.79602813720703 137.02581787109375 98.03446197509766 C 136.4536895751953 93.25537109375 137.47109985351562 92.8748779296875 137.2245635986328 89.01395416259766 C 137.2818145751953 84.8769302368164 138.61590576171875 84.76932525634766 139.12454223632812 85.87275695800781 C 139.76364135742188 82.1962661743164 146.62745666503906 80.68712615966797 147.90811157226562 83.63471984863281 C 147.83966064453125 90.29718780517578 150.7602081298828 95.52629089355469 152.0033721923828 98.99336242675781 C 153.42552185058594 103.04845428466797 149.92904663085938 106.8948745727539 148.818115234375 106.68087768554688 C 152.81114196777344 109.99430084228516 150.73130798339844 114.20463562011719 148.63034057617188 113.49501037597656 C 154.81643676757812 112.72703552246094 158.12144470214844 122.54586029052734 157.8179168701172 123.09969329833984 C 161.71466064453125 124.77616882324219 164.88584899902344 123.37468719482422 169.7529754638672 122.79314422607422 C 174.62985229492188 119.53498840332031 175.56515502929688 121.59010314941406 177.68270874023438 122.5204849243164 C 179.32415771484375 122.68000030517578 179.9176788330078 125.47384643554688 182.5833282470703 127.80550384521484 C 183.8148956298828 130.22647094726562 182.3784942626953 133.1411590576172 183.2996063232422 135.5776824951172 C 185.99188232421875 135.649658203125 187.89178466796875 142.826416015625 188.65464782714844 145.56204223632812 C 194.04803466796875 144.98854064941406 205.23854064941406 156.4091033935547 201.88104248046875 173.6881866455078 C 205.47474670410156 174.45126342773438 205.12876892089844 178.16900634765625 205.48985290527344 183.0203857421875 C 212.1105194091797 181.9791717529297 215.25457763671875 198.84326171875 212.3874053955078 205.10842895507812 C 207.51182556152344 207.1063232421875 203.4390106201172 208.0139617919922 203.12924194335938 210.284423828125 C 200.79705810546875 210.53517150878906 199.91937255859375 211.69113159179688 200.27621459960938 213.6321563720703 C 195.8350372314453 215.33755493164062 193.61195373535156 215.22164916992188 192.13302612304688 219.2821502685547 C 184.28871154785156 221.0546417236328 183.60919189453125 224.79661560058594 178.9169921875 230.4222869873047 C 176.2133331298828 233.61520385742188 179.6243133544922 239.74771118164062 180.84881591796875 243.80877685546875 C 182.31600952148438 252.07077026367188 186.10858154296875 260.2734375 178.5284423828125 265.09417724609375 C 174.13616943359375 268.08782958984375 147.44998168945312 267.3843688964844 137.24771118164062 270.0990905761719 C 129.26742553710938 268.60101318359375 125.70318603515625 270.5313415527344 118.80357360839844 273.3667297363281 C 108.9976577758789 276.9566345214844 73.18204498291016 276.1222229003906 73.20880889892578 269.8987731933594 C 47.65444564819336 266.7289733886719 56.513954162597656 268.552978515625 57.14286422729492 273.65185546875 C 47.04562759399414 277.0124816894531 0.570082426071167 273.927490234375 0.5513423681259155 269.5151672363281 C -3.9230828285217285 220.92848205566406 -3.0504543781280518 167.5092315673828 -1.6710939407348633 116.80995178222656 C 11.212688446044922 118.5165786743164 20.118345260620117 115.5927734375 26.808025360107422 123.1702651977539 C 30.20929527282715 127.38355255126953 36.505191802978516 128.2352752685547 41.5978889465332 131.72621154785156 C 46.985694885253906 131.36895751953125 47.37595748901367 134.55897521972656 49.388187408447266 141.35316467285156 C 50.577388763427734 145.81690979003906 61.81520462036133 147.23736572265625 62.63311004638672 145.71055603027344 C 62.11018753051758 136.72386169433594 63.02371597290039 133.8408966064453 62.740413665771484 128.3645782470703 C 68.62084197998047 126.65967559814453 67.5326156616211 122.33307647705078 66.42117309570312 112.45386505126953 C 68.00970458984375 111.1771240234375 68.33939361572266 105.89044952392578 75.59933471679688 104.14373779296875 C 74.77259063720703 101.05935668945312 78.16548156738281 89.64166259765625 77.27671813964844 85.358154296875 C 77.54993438720703 84.13343048095703 78.76817321777344 73.93623352050781 85.32160949707031 74.71452331542969 C 82.77165222167969 70.23485565185547 84.88600158691406 67.67668151855469 86.38990020751953 66.38216400146484" stroke-width="0.0" fill="url(#shape_3_fill)"/>
    <path d="M 674.5243530273438 -0.19549128413200378 C 676.0821533203125 47.8546142578125 675.0113525390625 95.91094207763672 678.2384643554688 141.56875610351562 C 672.4191284179688 132.9065399169922 666.0057983398438 126.64224243164062 661.6202392578125 120.33663940429688 C 660.9852905273438 119.91207122802734 655.1607055664062 109.36195373535156 649.5264282226562 110.91502380371094 C 648.5299072265625 112.51139068603516 644.466064453125 148.33355712890625 641.5828857421875 154.21197509765625 C 630.9069213867188 154.38966369628906 627.1483154296875 142.21482849121094 627.6123657226562 138.18894958496094 C 622.9957885742188 137.3568878173828 618.7623901367188 145.28524780273438 615.4220581054688 143.90066528320312 C 611.6800537109375 142.31666564941406 610.1524658203125 143.359130859375 607.7250366210938 141.1240997314453 C 607.2447509765625 137.1814422607422 609.4405517578125 132.08961486816406 606.9170532226562 122.72061920166016 C 598.0064086914062 133.45986938476562 597.4688720703125 139.24717712402344 594.9462280273438 143.2795867919922 C 598.445068359375 147.4835968017578 596.7523193359375 150.79183959960938 596.9568481445312 153.0540008544922 C 588.3058471679688 156.5629425048828 587.080322265625 163.9182891845703 580.0617065429688 171.76683044433594 C 571.4541625976562 170.3491668701172 569.7111206054688 160.37142944335938 569.0149536132812 157.39151000976562 C 566.2490844726562 157.2320556640625 564.1663818359375 153.1024169921875 561.5261840820312 152.8619842529297 C 560.0313110351562 150.86178588867188 555.3441162109375 150.6088409423828 554.64501953125 156.2520294189453 C 551.6739501953125 155.92947387695312 550.6434936523438 159.07496643066406 548.9752197265625 159.45240783691406 C 546.9209594726562 157.67311096191406 542.8961791992188 158.5880889892578 536.0006713867188 154.22970581054688 C 531.754638671875 154.80899047851562 529.9291381835938 158.27406311035156 524.039794921875 157.6154022216797 C 518.1065063476562 161.10055541992188 520.8483276367188 161.50616455078125 522.73193359375 169.98110961914062 C 517.522705078125 169.8396453857422 515.8351440429688 166.72940063476562 516.5540771484375 171.07913208007812 C 511.2629089355469 173.32249450683594 509.8284912109375 175.26522827148438 505.6253967285156 174.3988037109375 C 502.8486022949219 171.36471557617188 502.95147705078125 169.54824829101562 501.453857421875 162.1391143798828 C 494.80963134765625 146.75186157226562 508.85101318359375 122.71382141113281 518.9988403320312 126.01324462890625 C 522.8524780273438 124.2408447265625 538.118408203125 110.81879425048828 548.4998779296875 112.7695083618164 C 558.01953125 110.52886199951172 556.3714599609375 109.5760498046875 556.2646484375 106.05435180664062 C 560.6049194335938 108.27326202392578 564.711669921875 102.9570541381836 571.2084350585938 105.09846496582031 C 574.6430053710938 102.61790466308594 573.4262084960938 97.47348022460938 578.8822631835938 94.14056396484375 C 581.4544067382812 88.11388397216797 600.3147583007812 77.42506408691406 614.2099609375 78.55551147460938 C 617.56689453125 74.13938903808594 645.9296264648438 52.947425842285156 644.2981567382812 35.40239715576172 C 644.957763671875 32.4318733215332 647.987548828125 30.381372451782227 647.6231689453125 29.515201568603516 C 646.8582763671875 28.267967224121094 664.3560180664062 -3.543851375579834 674.5243530273438 -0.19549128413200378" stroke-width="0.0" fill="url(#shape_4_fill)"/>
    <path d="M 151.6112060546875 68.5422134399414 C 152.3214111328125 68.99163055419922 186.4468536376953 83.8241958618164 192.80752563476562 92.47994995117188 C 179.2504119873047 116.7950439453125 217.31483459472656 150.46420288085938 221.15261840820312 154.61656188964844 C 238.07423400878906 170.5448455810547 241.30133056640625 184.96148681640625 240.9792022705078 193.806640625 C 238.16415405273438 193.2284393310547 236.2286834716797 186.30125427246094 236.76795959472656 184.052734375 C 235.6746826171875 183.6004180908203 234.15896606445312 184.2830352783203 231.0975341796875 182.74098205566406 C 232.26490783691406 183.60594177246094 231.5866241455078 192.92250061035156 228.60130310058594 195.67742919921875 C 227.556884765625 196.62295532226562 226.77734375 205.1693115234375 221.57489013671875 207.75042724609375 C 215.05093383789062 206.6063690185547 214.29086303710938 197.9736328125 214.66275024414062 194.86129760742188 C 212.9606170654297 185.43508911132812 211.8980712890625 184.94129943847656 206.36114501953125 177.54978942871094 C 205.5160675048828 172.78138732910156 205.5736541748047 164.8385772705078 205.3178253173828 159.03143310546875 C 206.4308319091797 153.95635986328125 195.46368408203125 144.10044860839844 192.776611328125 141.7351837158203 C 189.0458221435547 140.30523681640625 188.7396697998047 137.87899780273438 186.23829650878906 135.8662567138672 C 178.3580780029297 133.0770263671875 179.64122009277344 126.42889404296875 182.7919921875 117.49083709716797 C 179.25372314453125 116.41136932373047 177.5414581298828 117.66996765136719 173.27340698242188 117.88311767578125 C 179.2919921875 128.34829711914062 174.4417266845703 131.2503204345703 151.55892944335938 130.469482421875 C 150.32272338867188 125.17504119873047 151.27133178710938 103.11965942382812 153.59823608398438 96.1216812133789 C 152.86878967285156 88.70735931396484 153.6612548828125 83.53421783447266 150.0944366455078 76.32332611083984 C 148.41525268554688 75.92791748046875 149.0356903076172 69.33003234863281 151.6112060546875 68.5422134399414" stroke-width="0.0" fill="url(#shape_5_fill)"/>
    <path d="M 613.2322998046875 83.4426040649414 C 618.5883178710938 84.18921661376953 619.6232299804688 85.85990142822266 630.7933959960938 85.45877075195312 C 636.7357177734375 85.98495483398438 636.7520141601562 87.76496124267578 641.2542724609375 87.8796157836914 C 642.149169921875 87.54603576660156 668.80224609375 92.04719543457031 673.5531616210938 98.23590850830078 C 673.73193359375 112.77367401123047 673.660888671875 129.5687713623047 673.9970092773438 147.41531372070312 C 666.7451782226562 141.66339111328125 662.90283203125 136.55409240722656 659.6050415039062 129.91506958007812 C 659.3095703125 122.04096984863281 660.0241088867188 116.161865234375 652.582763671875 111.33894348144531 C 647.7704467773438 116.63616943359375 645.0637817382812 142.35494995117188 642.211669921875 143.17332458496094 C 643.66943359375 145.33859252929688 641.7980346679688 148.9291229248047 642.3611450195312 149.9408721923828 C 639.827880859375 151.3236083984375 638.024169921875 152.3080291748047 634.8463745117188 150.75357055664062 C 631.2604370117188 146.82432556152344 629.1942749023438 141.39273071289062 630.1052856445312 140.5273895263672 C 628.9155883789062 138.0586395263672 623.6207275390625 137.0050506591797 620.8583984375 138.57046508789062 C 618.2202758789062 140.55235290527344 619.2902221679688 142.35720825195312 618.7555541992188 144.85411071777344 C 614.4453125 144.50030517578125 614.130126953125 143.1294708251953 610.2613525390625 143.77719116210938 C 608.5527954101562 140.40573120117188 609.6004028320312 139.2448272705078 609.4046630859375 137.37979125976562 C 606.6130981445312 132.2353057861328 604.7720947265625 126.551025390625 597.34375 127.9701919555664 C 601.9710083007812 136.67684936523438 596.2313232421875 151.11563110351562 591.6043701171875 156.9973907470703 C 590.7235717773438 163.9238739013672 589.4461669921875 164.1908416748047 585.8755493164062 168.5311279296875 C 585.033203125 166.8194122314453 580.575439453125 165.57374572753906 579.1298217773438 164.03326416015625 C 575.6647338867188 162.63131713867188 575.01123046875 158.2999267578125 574.1030883789062 156.30572509765625 C 565.5799560546875 155.58255004882812 556.4090576171875 155.1101837158203 556.2083129882812 151.33688354492188 C 555.8529052734375 152.9221954345703 553.080322265625 154.71177673339844 552.8834838867188 157.75027465820312 C 550.0404052734375 161.4880828857422 547.9657592773438 160.8758087158203 547.2535400390625 159.52938842773438 C 544.0305786132812 157.07252502441406 543.3992919921875 155.37387084960938 536.5905151367188 157.83580017089844 C 534.9369506835938 158.48617553710938 530.6641235351562 157.36595153808594 528.6873779296875 158.22572326660156 C 526.0735473632812 159.3036651611328 526.3722534179688 162.59304809570312 525.3723754882812 165.72906494140625 C 524.573974609375 169.46946716308594 523.6075439453125 171.5965576171875 519.05615234375 173.1304931640625 C 510.9730224609375 177.65423583984375 503.48114013671875 173.106689453125 495.93408203125 167.63006591796875 C 491.41656494140625 144.4379119873047 507.0329284667969 123.3002700805664 515.1723022460938 120.82010650634766 C 526.4860229492188 122.16130828857422 541.6863403320312 110.41487884521484 551.4882202148438 111.36592102050781 C 555.376953125 109.86600494384766 560.0657348632812 109.76155090332031 563.7477416992188 106.67464447021484 C 564.6346435546875 104.54888916015625 566.8616943359375 103.64550018310547 569.74365234375 104.06680297851562 C 574.936279296875 101.51345825195312 578.3303833007812 97.08668518066406 584.1697387695312 95.26265716552734 C 596.10888671875 89.15127563476562 603.6339111328125 81.44107055664062 613.2322998046875 83.4426040649414" stroke-width="0.0" fill="url(#shape_6_fill)"/>
    <path d="M 0.6964026689529419 115.94434356689453 C 28.607297897338867 121.45662689208984 37.88836669921875 127.42792510986328 48.76420974731445 139.40660095214844 C 74.27925109863281 157.61192321777344 50.973026275634766 221.8497772216797 53.26658630371094 244.6509246826172 C 53.060943603515625 260.2577209472656 48.69694900512695 264.66607666015625 48.49201583862305 266.22430419921875 C 36.50801467895508 270.6831970214844 7.384469509124756 266.8817443847656 2.919987678527832 264.96343994140625 C 1.3110063076019287 215.57127380371094 -2.1516692638397217 164.9351348876953 0.6964026689529419 115.94434356689453" stroke-width="0.0" fill="url(#shape_7_fill)"/>
    <path d="M 392.9513244628906 183.54161071777344 C 411.9164733886719 173.07095336914062 425.8266906738281 191.82290649414062 431.63751220703125 205.39537048339844 C 471.3703308105469 194.1850128173828 493.8240051269531 208.45469665527344 491.6949157714844 234.14651489257812 C 490.9862365722656 250.4776611328125 486.1589050292969 251.4754180908203 484.8469543457031 252.33860778808594 C 487.02325439453125 255.93295288085938 480.9322204589844 266.6087341308594 476.77569580078125 270.25653076171875 C 469.0430603027344 272.9302978515625 453.2210388183594 266.7112731933594 451.6219482421875 269.70855712890625 C 447.0038757324219 266.27691650390625 448.20025634765625 261.1990966796875 448.9836730957031 260.1586608886719 C 439.2380065917969 264.7355651855469 436.5093994140625 261.3809814453125 437.4137268066406 256.88909912109375 C 427.5078430175781 255.8558807373047 425.96441650390625 258.4941711425781 421.23193359375 262.2470397949219 C 418.5384521484375 264.26025390625 417.5032653808594 267.5972595214844 414.8594665527344 271.77880859375 C 414.1005859375 272.8546447753906 397.2529602050781 268.03253173828125 392.5928649902344 264.1551208496094 C 391.8258361816406 265.09368896484375 389.03131103515625 263.3191833496094 386.0538635253906 263.5233459472656 C 382.1159973144531 261.9404296875 380.82177734375 263.17523193359375 376.5993957519531 261.0211181640625 C 375.0438232421875 256.3041687011719 376.2094421386719 252.4362030029297 372.896240234375 249.0992431640625 C 359.5520935058594 243.9549560546875 373.98736572265625 195.82835388183594 378.1120910644531 180.9336395263672 C 383.3670654296875 171.299072265625 394.8667907714844 176.2275848388672 392.9513244628906 183.54161071777344" stroke-width="0.0" fill="url(#shape_8_fill)"/>
    <path d="M 565.6547241210938 157.48219299316406 C 568.1698608398438 159.0826873779297 569.4457397460938 165.5447540283203 568.9532470703125 167.2459716796875 C 573.8651123046875 169.4499969482422 573.4212646484375 170.7941436767578 577.75 174.21595764160156 C 581.9335327148438 172.94180297851562 583.9718017578125 174.56715393066406 583.7063598632812 179.47531127929688 C 575.3406372070312 180.47535705566406 572.0549926757812 225.61634826660156 577.2786865234375 226.9659423828125 C 577.854736328125 229.99835205078125 581.2839965820312 235.65509033203125 576.5844116210938 242.63742065429688 C 568.5740356445312 238.99525451660156 566.2322387695312 237.3271484375 558.4999389648438 247.2017364501953 C 554.3946533203125 251.59446716308594 492.8321228027344 252.7486572265625 489.6046142578125 252.64112854003906 C 487.28387451171875 247.34039306640625 487.2503967285156 239.0218505859375 490.81475830078125 229.83328247070312 C 486.4481506347656 226.23585510253906 483.1902160644531 222.2767791748047 481.29620361328125 215.97552490234375 C 476.53192138671875 209.81219482421875 479.1718444824219 205.7946319580078 482.6864013671875 205.95388793945312 C 479.89520263671875 205.31227111816406 481.1169128417969 198.53709411621094 486.5832824707031 198.4304962158203 C 491.8487854003906 196.1510467529297 491.8681640625 192.50721740722656 492.9773254394531 187.82485961914062 C 491.2930908203125 174.04849243164062 492.4225769042969 173.01092529296875 492.1170349121094 167.64581298828125 C 503.9096374511719 167.0593719482422 505.3046875 170.535400390625 517.4281616210938 168.72007751464844 C 523.6067504882812 170.10557556152344 524.4566650390625 167.4730224609375 525.9144287109375 165.39170837402344 C 524.4649658203125 160.55465698242188 529.3550415039062 156.2047882080078 533.3900146484375 158.6151123046875 C 537.6485595703125 161.82911682128906 541.399658203125 162.45240783691406 542.2074584960938 163.93572998046875 C 545.2630615234375 164.041015625 545.9667358398438 165.69979858398438 549.4237670898438 166.3823699951172 C 548.7608032226562 165.62730407714844 551.225341796875 157.3442840576172 555.2296142578125 157.58938598632812 C 557.5936889648438 159.35479736328125 563.6807861328125 157.42405700683594 565.6547241210938 157.48219299316406" stroke-width="0.0" fill="url(#shape_9_fill)"/>
    <path d="M 561.2965087890625 156.37632751464844 C 567.0759887695312 153.53839111328125 571.2136840820312 159.41087341308594 570.1912231445312 167.8314971923828 C 572.634765625 170.1450958251953 576.4594116210938 169.99215698242188 580.1193237304688 174.96826171875 C 579.7958984375 178.0056610107422 578.645751953125 187.34286499023438 576.9976196289062 191.5468292236328 C 571.2702026367188 196.79815673828125 571.9849243164062 229.9728240966797 578.0745849609375 230.9768524169922 C 576.070068359375 231.15914916992188 575.6058349609375 236.83465576171875 572.020263671875 238.0530242919922 C 559.8721313476562 235.96739196777344 567.4840698242188 238.61024475097656 564.4254150390625 249.33277893066406 C 554.7440185546875 252.37779235839844 501.2862548828125 248.9920196533203 500.17694091796875 251.49188232421875 C 491.0632629394531 251.8046875 487.93157958984375 237.1135711669922 491.00189208984375 230.24847412109375 C 486.62646484375 224.9254608154297 481.9859924316406 219.27032470703125 481.5309143066406 216.01597595214844 C 475.6464538574219 214.0441131591797 474.9748229980469 212.56015014648438 471.74517822265625 200.8381805419922 C 471.1466064453125 196.9823760986328 477.28253173828125 193.4949951171875 481.09356689453125 196.8073272705078 C 490.0252380371094 195.51417541503906 494.41656494140625 184.20571899414062 496.6374206542969 182.97349548339844 C 495.9580993652344 179.4836883544922 496.8780822753906 176.99819946289062 500.4249572753906 176.32418823242188 C 507.731689453125 177.9647216796875 516.0827026367188 180.5450439453125 519.852783203125 173.94552612304688 C 523.044921875 173.28778076171875 526.5092163085938 159.20761108398438 532.4488525390625 157.71665954589844 C 537.4197998046875 156.9249725341797 538.7440185546875 160.50794982910156 542.4024658203125 165.6333770751953 C 545.5921020507812 165.54454040527344 548.9190673828125 166.80857849121094 551.0364990234375 164.51121520996094 C 551.0272827148438 156.42457580566406 553.219970703125 153.19032287597656 561.2965087890625 156.37632751464844" stroke-width="0.0" fill="url(#shape_10_fill)"/>
    <path d="M 449.727294921875 107.67254638671875 C 453.8036193847656 109.27304077148438 454.31768798828125 112.66426086425781 461.9293212890625 112.73741912841797 C 463.83721923828125 116.58738708496094 469.1747131347656 117.26631927490234 473.13177490234375 118.6120834350586 C 488.37030029296875 124.53642272949219 488.8016357421875 125.25065612792969 492.5231628417969 129.39395141601562 C 493.4340515136719 131.7030487060547 493.2199401855469 134.2556915283203 496.9364318847656 136.16270446777344 C 494.4628601074219 135.05288696289062 491.9308776855469 136.59422302246094 486.1820373535156 138.79026794433594 C 482.9239196777344 136.14321899414062 481.4293518066406 137.22059631347656 478.83074951171875 137.1385040283203 C 473.533935546875 137.61737060546875 470.2991638183594 136.82235717773438 468.1081237792969 134.3648681640625 C 465.3033447265625 133.49761962890625 460.0737609863281 133.50682067871094 459.2488708496094 134.39353942871094 C 455.9388427734375 141.38351440429688 471.9069519042969 150.2000732421875 482.584228515625 157.91868591308594 C 476.172119140625 176.61038208007812 475.34375 177.1636505126953 470.1591796875 180.8290557861328 C 466.68365478515625 182.25888061523438 466.28045654296875 186.72128295898438 464.0663757324219 188.5417022705078 C 460.6328430175781 186.63668823242188 455.3818359375 180.28237915039062 454.1639099121094 177.0673065185547 C 448.268310546875 179.35992431640625 447.51318359375 182.56198120117188 439.90130615234375 183.08419799804688 C 439.49078369140625 183.86508178710938 436.1041259765625 195.9268798828125 434.73187255859375 198.14024353027344 C 428.71185302734375 200.69863891601562 417.465576171875 180.6020050048828 417.72723388671875 179.72267150878906 C 416.9583740234375 179.55030822753906 400.6386413574219 176.2248992919922 400.3290710449219 171.2145233154297 C 393.0375671386719 169.30960083007812 390.269775390625 176.1806640625 380.44049072265625 173.43658447265625 C 379.8079833984375 164.8245086669922 384.85906982421875 145.0900115966797 392.5101318359375 139.23097229003906 C 397.919677734375 137.47164916992188 399.38092041015625 129.6919403076172 402.2966003417969 122.92607116699219 C 409.9524230957031 99.75301361083984 426.8335876464844 105.246337890625 449.727294921875 107.67254638671875" stroke-width="0.0" fill="url(#shape_11_fill)"/>
    <path d="M 602.8330078125 127.73358917236328 C 605.7161865234375 131.31072998046875 606.0421142578125 143.45315551757812 608.4994506835938 143.9061279296875 C 612.02294921875 144.50918579101562 612.1203002929688 147.81993103027344 615.4427490234375 151.8289794921875 C 618.4124755859375 149.8013458251953 618.4803466796875 141.38253784179688 621.0443115234375 141.26788330078125 C 623.4444580078125 137.18431091308594 625.6493530273438 137.75555419921875 628.2630615234375 140.1731719970703 C 627.730224609375 142.1229248046875 629.3865356445312 144.6101531982422 629.4188842773438 147.22325134277344 C 632.1287231445312 149.7543182373047 631.7988891601562 151.08364868164062 637.07421875 152.8584442138672 C 642.300537109375 154.5264129638672 641.0065307617188 160.55079650878906 643.373779296875 168.8568572998047 C 637.696044921875 183.86541748046875 639.2233276367188 194.36328125 639.7158813476562 206.41015625 C 642.2069091796875 219.10191345214844 646.3941040039062 232.16677856445312 642.8131713867188 245.6956329345703 C 623.3642578125 248.5628662109375 610.5014038085938 248.79019165039062 576.5253295898438 254.00509643554688 C 572.2200317382812 245.05174255371094 572.5209350585938 231.58114624023438 572.32568359375 219.51104736328125 C 568.6617431640625 210.31967163085938 572.5747680664062 168.6266632080078 583.364990234375 169.58099365234375 C 598.0430297851562 164.24722290039062 597.4541015625 144.1632843017578 599.5431518554688 141.90257263183594 C 595.9140014648438 139.09115600585938 597.0989379882812 136.62205505371094 602.8330078125 127.73358917236328" stroke-width="0.0" fill="url(#shape_12_fill)"/>
    <path d="M 408.5009460449219 176.75930786132812 C 421.08917236328125 173.2345733642578 433.148681640625 212.0969696044922 428.22747802734375 220.64871215820312 C 419.8797607421875 230.4659881591797 426.3765563964844 238.37057495117188 428.48126220703125 247.37228393554688 C 430.5639953613281 262.2745666503906 420.6044616699219 265.745849609375 416.7127685546875 267.4407043457031 C 402.12548828125 268.9445495605469 395.88653564453125 269.0339050292969 389.70166015625 268.5757751464844 C 385.3791198730469 264.51434326171875 382.59637451171875 265.1835021972656 380.4015197753906 264.79840087890625 C 376.2241516113281 262.6095886230469 376.63250732421875 260.52459716796875 375.4064636230469 258.4234619140625 C 376.3370056152344 255.79232788085938 375.65814208984375 253.70358276367188 374.4224853515625 253.49337768554688 C 374.0234375 252.6678924560547 370.4739685058594 250.62252807617188 369.03057861328125 251.55433654785156 C 360.2803649902344 246.2715301513672 365.6034851074219 227.7251434326172 367.88043212890625 221.1128387451172 C 369.0701904296875 218.86697387695312 371.8964538574219 202.77264404296875 380.155029296875 203.71852111816406 C 380.3985900878906 202.50469970703125 381.92047119140625 185.9956512451172 386.4954528808594 182.02499389648438 C 391.59967041015625 176.21102905273438 392.8039855957031 176.20411682128906 408.5009460449219 176.75930786132812" stroke-width="0.0" fill="url(#shape_13_fill)"/>
    <path d="M 509.8460388183594 66.64860534667969 C 512.4844360351562 66.08180236816406 520.9697875976562 70.55996704101562 523.6610717773438 74.31938171386719 C 531.0333251953125 80.04706573486328 534.2515869140625 80.01615905761719 536.2288208007812 90.3034439086914 C 539.3524169921875 90.88363647460938 544.5418701171875 90.33438873291016 545.023681640625 91.16690826416016 C 545.5343627929688 92.7552261352539 556.0279541015625 97.09486389160156 560.795654296875 95.08514404296875 C 563.6488037109375 97.49259185791016 567.3319702148438 97.5395278930664 568.7078247070312 99.24720764160156 C 565.0388793945312 105.06729125976562 555.1966552734375 114.95893859863281 546.353271484375 111.00536346435547 C 541.6187133789062 112.01952362060547 539.359130859375 114.95866394042969 534.6844482421875 118.21880340576172 C 529.2684326171875 121.32137298583984 523.3924560546875 121.39825439453125 516.0255126953125 119.54340362548828 C 510.3207092285156 119.29849243164062 501.4100341796875 125.40986633300781 498.97259521484375 124.98675537109375 C 497.0727233886719 128.3760223388672 493.66766357421875 128.28248596191406 489.4644775390625 127.82839965820312 C 489.346435546875 124.04737091064453 468.78369140625 119.06853485107422 468.05902099609375 118.0858383178711 C 463.2998352050781 117.75257873535156 463.0982971191406 116.45294189453125 461.6047668457031 115.4615249633789 C 466.53704833984375 112.9136734008789 469.0610656738281 106.9546127319336 475.56524658203125 101.33318328857422 C 477.817138671875 87.70176696777344 475.4805603027344 85.26885223388672 475.1022033691406 82.14878845214844 C 474.58868408203125 70.93414306640625 475.3428955078125 70.38673400878906 478.6779479980469 66.5672378540039 C 479.0924377441406 64.29412841796875 482.7709655761719 64.40300750732422 484.9021911621094 63.93781280517578 C 493.08154296875 63.375980377197266 500.76336669921875 62.650169372558594 509.8460388183594 66.64860534667969" stroke-width="0.0" fill="url(#shape_14_fill)"/>
    <path d="M 532.2194213867188 159.85789489746094 C 543.7875366210938 162.90179443359375 544.0458374023438 163.87411499023438 546.8087768554688 165.63511657714844 C 549.345703125 167.894775390625 549.4544677734375 170.40298461914062 543.7578125 181.59410095214844 C 541.4839477539062 189.320556640625 536.7102661132812 230.95823669433594 536.1583251953125 233.43898010253906 C 540.554443359375 236.8979949951172 540.8016967773438 250.01576232910156 514.6469116210938 252.1884002685547 C 502.2691345214844 251.2455291748047 483.7988586425781 245.0923309326172 487.7829284667969 230.5239715576172 C 477.064453125 218.25047302246094 478.0873718261719 205.98443603515625 483.7476806640625 200.35726928710938 C 486.8860168457031 197.4676055908203 488.57720947265625 197.60516357421875 489.49468994140625 197.52069091796875 C 485.1033935546875 189.93812561035156 487.2486877441406 177.94728088378906 488.0674743652344 173.83523559570312 C 489.4081726074219 171.74136352539062 491.7845764160156 169.4222412109375 496.6748352050781 171.32583618164062 C 506.2219543457031 177.96946716308594 511.7401123046875 182.4246826171875 522.6597900390625 172.57215881347656 C 525.5466918945312 170.95726013183594 525.5361938476562 167.30128479003906 526.9578857421875 165.0968475341797 C 527.5833129882812 161.61880493164062 530.777099609375 160.32498168945312 532.2194213867188 159.85789489746094" stroke-width="0.0" fill="url(#shape_15_fill)"/>
    <path d="M 652.1992797851562 110.9726333618164 C 653.499267578125 109.9372329711914 663.264404296875 121.97404479980469 661.5966186523438 127.43226623535156 C 665.2695922851562 133.6761932373047 665.7866821289062 140.16127014160156 673.3960571289062 148.02174377441406 C 676.5048828125 178.95639038085938 673.4067993164062 211.90606689453125 674.1840209960938 254.21417236328125 C 672.8163452148438 251.97824096679688 647.6207275390625 259.29803466796875 637.8678588867188 250.26992797851562 C 635.8495483398438 244.22230529785156 639.5916748046875 122.37603759765625 652.1992797851562 110.9726333618164" stroke-width="0.0" fill="url(#shape_16_fill)"/>
    <path d="M 600.6732177734375 130.0410919189453 C 603.1614379882812 127.6178970336914 607.9064331054688 131.80197143554688 606.8273315429688 133.95298767089844 C 608.2212524414062 135.07037353515625 608.137451171875 139.4290008544922 609.5541381835938 142.33309936523438 C 624.54150390625 143.20213317871094 625.3550415039062 227.7400360107422 621.8715209960938 249.92529296875 C 596.3350219726562 255.15341186523438 578.2191772460938 247.68850708007812 579.9821166992188 235.7262725830078 C 565.02197265625 227.6220703125 596.4872436523438 153.315673828125 600.6732177734375 130.0410919189453" stroke-width="0.0" fill="url(#shape_17_fill)"/>
    <path d="M 321.204345703125 186.1995391845703 C 322.358642578125 186.2900390625 323.8592834472656 189.02284240722656 323.3028869628906 193.98837280273438 C 332.5807800292969 191.7989959716797 336.2872619628906 190.35768127441406 338.4818115234375 193.2082977294922 C 341.5065002441406 197.964111328125 346.4881591796875 196.65167236328125 353.6361389160156 195.4324493408203 C 357.2581481933594 194.86422729492188 358.1730041503906 197.78640747070312 358.3429870605469 201.03086853027344 C 359.6903076171875 203.8466339111328 361.749755859375 204.01995849609375 362.321533203125 207.40724182128906 C 367.2460632324219 206.99560546875 368.4747009277344 208.22039794921875 368.1401062011719 211.84339904785156 C 370.1306457519531 219.5728302001953 370.4110107421875 222.654052734375 366.3535461425781 225.4227294921875 C 366.8097229003906 231.4951934814453 365.3498840332031 235.3153076171875 368.6791687011719 246.8717041015625 C 368.46051025390625 250.77745056152344 365.87725830078125 256.264404296875 357.5740051269531 254.94419860839844 C 353.0468444824219 255.2242431640625 330.8490295410156 255.03013610839844 322.04901123046875 255.33287048339844 C 313.435546875 255.99110412597656 312.2210693359375 253.48171997070312 308.8749084472656 241.23875427246094 C 304.5071716308594 229.47047424316406 320.5875549316406 193.66421508789062 321.204345703125 186.1995391845703" stroke-width="0.0" fill="url(#shape_18_fill)"/>
    <path d="M 479.2826232910156 216.53900146484375 C 491.8863220214844 245.92578125 500.3617858886719 254.28857421875 483.41192626953125 272.9674377441406 C 470.66876220703125 278.7624816894531 444.0129089355469 261.3652648925781 442.1431579589844 261.6596984863281 C 438.6331787109375 260.64300537109375 437.15081787109375 258.2007141113281 432.5743408203125 258.0107116699219 C 429.67474365234375 258.1446228027344 427.6495056152344 257.47210693359375 427.41339111328125 254.19338989257812 C 425.4757995605469 241.65724182128906 421.4468688964844 233.39358520507812 422.58526611328125 228.6532745361328 C 425.2155456542969 227.0985870361328 421.2051696777344 227.99148559570312 420.342041015625 225.609130859375 C 427.7054748535156 219.4744415283203 429.6871032714844 218.792236328125 429.492919921875 215.63107299804688 C 437.7794494628906 196.7938690185547 468.0658264160156 201.3070526123047 479.2826232910156 216.53900146484375" stroke-width="0.0" fill="url(#shape_19_fill)"/>
    <path d="M 674.0556640625 -2.695849895477295 C 675.0536499023438 32.861812591552734 674.5826416015625 64.76448059082031 674.3533325195312 97.38339233398438 C 669.8226928710938 96.14282989501953 651.0650024414062 86.76934051513672 643.060302734375 90.30311584472656 C 638.6724243164062 89.57295227050781 638.2180786132812 85.8245620727539 637.75341796875 84.60576629638672 C 626.2815551757812 84.69746398925781 618.4008178710938 92.45104217529297 608.1536254882812 86.61843872070312 C 609.8099365234375 77.05840301513672 614.771240234375 75.0696792602539 614.7628784179688 71.7476806640625 C 623.3462524414062 69.77713775634766 649.5745239257812 25.90696144104004 648.3847045898438 22.617656707763672 C 656.0591430664062 14.644549369812012 656.7259521484375 4.526823043823242 667.9177856445312 4.055600643157959 C 669.7872924804688 2.659924268722534 670.2094116210938 1.1764473915100098 674.0556640625 -2.695849895477295" stroke-width="0.0" fill="url(#shape_20_fill)"/>
    <path d="M 562.079345703125 155.89134216308594 C 569.7711791992188 156.6853485107422 569.6469116210938 163.8460693359375 574.314697265625 165.2460174560547 C 585.6096801757812 168.29132080078125 575.9573974609375 231.35691833496094 577.3380737304688 240.75799560546875 C 575.0678100585938 244.4110107421875 570.384765625 246.0318603515625 570.2230834960938 250.74447631835938 C 559.3072509765625 250.8370819091797 543.0335693359375 251.8213348388672 540.0399169921875 246.30613708496094 C 544.3409423828125 244.70899963378906 540.0565795898438 163.87168884277344 555.2139892578125 157.798095703125 C 555.7633056640625 153.23068237304688 558.568359375 153.19696044921875 562.079345703125 155.89134216308594" stroke-width="0.0" fill="url(#shape_21_fill)"/>
    <path d="M 215.60745239257812 212.78720092773438 C 228.94090270996094 214.37916564941406 229.37123107910156 247.16773986816406 219.61268615722656 255.7977752685547 C 211.38294982910156 262.9774475097656 209.1368408203125 264.4631042480469 206.97914123535156 273.1524353027344 C 205.5107879638672 275.50836181640625 206.76083374023438 276.5911560058594 207.30958557128906 279.84490966796875 C 207.07752990722656 283.2281188964844 204.17050170898438 285.21466064453125 200.1063995361328 284.8421325683594 C 200.26548767089844 283.4578857421875 192.88815307617188 270.4368591308594 187.82449340820312 265.05194091796875 C 186.34017944335938 261.3210754394531 183.93553161621094 262.123779296875 181.5311279296875 261.88922119140625 C 180.68923950195312 260.7515869140625 179.69717407226562 260.5530700683594 178.37547302246094 255.1561279296875 C 180.6505584716797 248.8059844970703 169.40574645996094 243.81687927246094 170.69723510742188 237.4484405517578 C 175.7039337158203 214.6005859375 178.51055908203125 213.4860076904297 185.81185913085938 220.80653381347656 C 193.991943359375 218.63754272460938 194.32260131835938 215.63267517089844 197.1443634033203 214.59231567382812 C 191.0227813720703 203.9043731689453 190.71714782714844 201.77516174316406 198.6339111328125 200.49386596679688 C 213.16604614257812 199.79014587402344 214.14939880371094 202.14659118652344 215.60745239257812 212.78720092773438" stroke-width="0.0" fill="url(#shape_22_fill)"/>
    <path d="M 111.52436828613281 426.4149169921875 C 112.72102355957031 429.27520751953125 110.9930648803711 431.1832580566406 110.67157745361328 431.6805419921875 C 105.64189910888672 433.8531799316406 102.40729522705078 434.38568115234375 91.84542083740234 432.9779968261719 C 89.75105285644531 435.9789733886719 95.7020263671875 446.431640625 91.6237564086914 452.1258239746094 C 78.66384887695312 444.9972229003906 46.938072204589844 447.9271240234375 24.939884185791016 449.6498107910156 C 14.001619338989258 446.28253173828125 13.871980667114258 439.7830505371094 17.417329788208008 436.3246765136719 C 34.305057525634766 428.18377685546875 50.9731559753418 426.93359375 70.77281188964844 427.21051025390625 C 75.97740173339844 426.3434753417969 108.44932556152344 418.6913757324219 111.52436828613281 426.4149169921875" stroke-width="0.0" fill="url(#shape_23_fill)"/>
    <path d="M 194.48406982421875 122.81127166748047 C 198.8434295654297 125.46601867675781 209.11712646484375 145.25180053710938 214.22616577148438 144.94171142578125 C 215.49020385742188 148.2296600341797 218.458984375 149.76895141601562 219.94696044921875 153.49334716796875 C 227.0428009033203 157.9098358154297 248.8892364501953 179.70059204101562 244.52444458007812 199.5924072265625 C 239.10848999023438 199.56353759765625 235.45494079589844 187.29348754882812 234.2882080078125 181.45083618164062 C 233.66888427734375 184.73919677734375 232.3838348388672 194.77664184570312 230.94705200195312 197.12022399902344 C 225.77871704101562 199.62948608398438 225.0735321044922 201.8256378173828 220.4950408935547 208.49256896972656 C 215.16197204589844 207.650634765625 213.6857147216797 199.97630310058594 214.37730407714844 195.97463989257812 C 212.67694091796875 189.59861755371094 212.60617065429688 182.98133850097656 206.966064453125 178.2952880859375 C 204.0084991455078 174.02639770507812 205.1123504638672 173.0372314453125 205.54586791992188 167.4412841796875 C 203.228759765625 149.99652099609375 200.23916625976562 148.56822204589844 193.16976928710938 143.75938415527344 C 188.68397521972656 142.7918701171875 191.5519561767578 128.7460479736328 194.48406982421875 122.81127166748047" stroke-width="0.0" fill="url(#shape_24_fill)"/>
    <path d="M 595.6666870117188 411.1392517089844 C 598.0631103515625 412.5986328125 625.9229736328125 409.7014465332031 627.335693359375 416.6746826171875 C 628.5693359375 421.00885009765625 626.9012451171875 425.0146484375 628.94384765625 426.6716613769531 C 630.3656616210938 429.056640625 634.1338500976562 428.9283752441406 636.6107177734375 437.7205810546875 C 617.02392578125 446.8936462402344 577.5175170898438 440.0485534667969 575.108642578125 433.3422546386719 C 568.991455078125 424.99505615234375 573.8343505859375 418.4646301269531 575.5408935546875 413.8659362792969 C 579.941162109375 409.0773620605469 587.2109985351562 411.50750732421875 595.6666870117188 411.1392517089844" stroke-width="0.0" fill="url(#shape_25_fill)"/>
    <path d="M 142.9176483154297 66.6969223022461 C 144.08328247070312 68.92505645751953 149.1692352294922 68.3835220336914 149.6291046142578 69.14096069335938 C 148.90725708007812 70.90202331542969 150.4581298828125 71.82706451416016 149.77056884765625 73.8637924194336 C 151.0176544189453 74.45549774169922 150.40753173828125 78.20561218261719 151.145751953125 82.15609741210938 C 152.11605834960938 89.58724212646484 152.59518432617188 97.83060455322266 153.93289184570312 104.10289764404297 C 153.52325439453125 107.62039947509766 155.1005096435547 108.523193359375 154.975341796875 111.54047393798828 C 158.23065185546875 123.39725494384766 155.38888549804688 133.5103302001953 150.34921264648438 133.58631896972656 C 142.88963317871094 127.02771759033203 136.98037719726562 120.5789794921875 125.55430603027344 117.34445190429688 C 122.49945831298828 114.31311798095703 124.5958023071289 109.70098114013672 126.89889526367188 107.136474609375 C 128.8340606689453 106.85467529296875 128.8782958984375 105.283203125 132.65882873535156 104.6933822631836 C 139.0231475830078 96.47714233398438 135.04598999023438 93.03447723388672 133.38095092773438 90.03943634033203 C 134.21153259277344 88.90050506591797 139.2703857421875 87.09503936767578 140.04275512695312 85.30924987792969 C 138.14761352539062 84.75031280517578 138.84573364257812 77.6474838256836 139.51673889160156 77.46765899658203 C 143.54148864746094 76.59207153320312 142.657958984375 70.30150604248047 142.9176483154297 66.6969223022461" stroke-width="0.0" fill="url(#shape_26_fill)"/>
    <path d="M 143.38650512695312 67.68467712402344 C 149.22227478027344 67.97755432128906 149.96624755859375 69.6282958984375 148.37249755859375 76.00757598876953 C 151.34613037109375 77.35059356689453 151.56582641601562 79.98904418945312 153.591064453125 83.34632110595703 C 150.4668731689453 90.53443908691406 153.6419677734375 92.95967102050781 152.42369079589844 104.17716217041016 C 153.79388427734375 105.41790771484375 153.34576416015625 109.23554229736328 155.2552490234375 113.06298065185547 C 152.66075134277344 117.45428466796875 158.06765747070312 122.2926254272461 155.08258056640625 126.0084228515625 C 152.66627502441406 132.04872131347656 151.35736083984375 133.1750030517578 147.4497528076172 133.44615173339844 C 140.9196319580078 132.8915252685547 129.00291442871094 120.57870483398438 127.33789825439453 119.6275405883789 C 124.2271957397461 119.59725189208984 121.8420639038086 114.2055435180664 128.43844604492188 110.5180892944336 C 124.00308227539062 108.7219467163086 124.12894439697266 106.02685546875 132.47872924804688 106.1863784790039 C 136.34243774414062 105.46317291259766 134.4664306640625 92.72914123535156 134.35443115234375 89.5354995727539 C 139.38682556152344 87.34053039550781 138.57627868652344 84.58415222167969 138.34707641601562 81.70143127441406 C 139.0780792236328 77.49919128417969 140.3634033203125 76.78010559082031 141.76214599609375 76.79121398925781 C 145.22848510742188 72.84210205078125 143.17523193359375 69.61238861083984 143.38650512695312 67.68467712402344" stroke-width="0.0" fill="url(#shape_27_fill)"/>
    <path d="M -0.3173031806945801 -0.27040788531303406 C 4.696960926055908 0.38023900985717773 9.643186569213867 -0.5243033766746521 18.517290115356445 -0.6478695869445801 C 22.329051971435547 0.1499136984348297 21.985506057739258 6.903279781341553 36.133827209472656 14.363205909729004 C 32.697479248046875 25.167343139648438 27.926067352294922 26.07431411743164 27.069049835205078 24.14692497253418 C 37.4834098815918 27.088275909423828 44.24123001098633 28.06368637084961 45.97437286376953 40.7754020690918 C 36.129295349121094 42.488197326660156 32.205055236816406 42.620094299316406 27.181001663208008 39.84593963623047 C 21.699485778808594 35.9293327331543 12.743106842041016 36.54374694824219 10.774659156799316 33.70065689086914 C 9.262224197387695 36.560855865478516 12.940373420715332 40.10597610473633 13.155529975891113 41.5277099609375 C 14.506101608276367 42.00567626953125 14.448737144470215 43.95858383178711 18.095666885375977 47.921775817871094 C 20.060142517089844 51.073612213134766 18.747196197509766 52.31001663208008 20.0954647064209 57.034507751464844 C 20.2846736907959 62.586177825927734 13.643305778503418 64.54934692382812 8.867512702941895 61.216796875 C 5.4960479736328125 60.884490966796875 3.533602237701416 59.14173889160156 0.32501745223999023 59.433956146240234 C -0.31767794489860535 39.778865814208984 -0.32487404346466064 19.628616333007812 -0.3173031806945801 -0.27040788531303406" stroke-width="0.0" fill="url(#shape_28_fill)"/>
    <path d="M 299.34033203125 197.30296325683594 C 297.5309753417969 199.25967407226562 299.64361572265625 202.30947875976562 301.5150146484375 208.62217712402344 C 299.86376953125 211.3009490966797 321.082763671875 230.34042358398438 315.44830322265625 255.421630859375 C 312.54302978515625 254.28652954101562 311.107177734375 255.72581481933594 307.7491149902344 256.72003173828125 C 300.8052062988281 257.8692321777344 296.41845703125 257.6732482910156 281.1053771972656 256.41790771484375 C 280.4386901855469 231.52037048339844 285.97918701171875 216.69691467285156 299.34033203125 197.30296325683594" stroke-width="0.0" fill="url(#shape_29_fill)"/>
    <path d="M -0.27193787693977356 0.0961635410785675 C 4.445994853973389 0.4496457874774933 9.56185245513916 -0.41498488187789917 14.527235984802246 0.13745810091495514 C 15.7027587890625 0.4966427683830261 16.1414794921875 5.487058639526367 16.133502960205078 8.064428329467773 C 18.962873458862305 10.777722358703613 22.144617080688477 18.796537399291992 26.862449645996094 20.844947814941406 C 27.10770606994629 22.484039306640625 24.75409507751465 26.90981101989746 24.47726821899414 31.1590518951416 C 20.78790855407715 32.73445510864258 15.785344123840332 32.6280403137207 7.7080512046813965 34.271053314208984 C 9.151973724365234 35.84165954589844 8.829144477844238 38.64353561401367 11.07596492767334 40.440818786621094 C 9.945169448852539 45.477088928222656 7.672941207885742 51.80615234375 11.500905990600586 53.82632064819336 C 17.78105354309082 51.45972442626953 19.484725952148438 52.11905288696289 18.368446350097656 57.8095817565918 C 12.014742851257324 59.908782958984375 8.451058387756348 62.00007247924805 0.22315993905067444 61.412593841552734 C -0.4149530529975891 39.95633316040039 -0.3543548882007599 19.753711700439453 -0.27193787693977356 0.0961635410785675" stroke-width="0.0" fill="url(#shape_30_fill)"/>
    <path d="M 546.9580688476562 71.12643432617188 C 546.2201538085938 74.51190948486328 577.7371215820312 88.59928131103516 581.4189453125 90.8119125366211 C 581.1234130859375 92.49774932861328 578.4478149414062 92.4825668334961 577.2837524414062 98.23893737792969 C 573.2451782226562 100.80169677734375 572.1060791015625 100.1273422241211 568.5054321289062 99.42558288574219 C 566.8334350585938 96.09235382080078 543.3176879882812 95.30622100830078 538.5294799804688 88.50293731689453 C 538.5846557617188 85.47567749023438 537.5086059570312 83.33146667480469 535.5953369140625 82.57179260253906 C 534.8588256835938 79.43778228759766 529.4457397460938 79.44652557373047 526.78857421875 78.31236267089844 C 525.3535766601562 75.77560424804688 527.7667236328125 70.88227081298828 532.8456420898438 69.28308868408203 C 536.1265258789062 67.90455627441406 540.6466064453125 69.77954864501953 546.9580688476562 71.12643432617188" stroke-width="0.0" fill="url(#shape_31_fill)"/>
    <path d="M 448.1711730957031 264.0433654785156 C 450.6831970214844 265.2566833496094 451.32183837890625 266.7032165527344 455.99383544921875 267.6663513183594 C 460.51263427734375 267.65478515625 465.3243713378906 270.3736267089844 469.9100341796875 273.2666931152344 C 470.43634033203125 275.6302490234375 471.8241271972656 276.89404296875 471.6768798828125 280.75958251953125 C 449.80322265625 289.6210021972656 427.42681884765625 286.65484619140625 415.7171936035156 284.9743347167969 C 413.3604736328125 273.91650390625 415.2535095214844 272.3528747558594 415.7149658203125 268.2599792480469 C 418.1906433105469 267.2078552246094 417.7780456542969 264.8067626953125 419.340087890625 263.0664978027344 C 429.38134765625 253.4031524658203 440.46160888671875 257.7257385253906 448.1711730957031 264.0433654785156" stroke-width="0.0" fill="url(#shape_32_fill)"/>
    <path d="M 269.8531494140625 191.597900390625 C 278.4695739746094 191.57089233398438 284.4057312011719 243.64816284179688 280.4945983886719 244.71652221679688 C 279.0792541503906 247.07557678222656 273.7897644042969 246.9051971435547 269.961669921875 248.34164428710938 C 266.46875 245.82232666015625 266.8143310546875 241.95098876953125 261.4912414550781 240.84942626953125 C 255.12454223632812 211.6177978515625 262.15826416015625 205.86415100097656 269.8531494140625 191.597900390625" stroke-width="0.0" fill="url(#shape_33_fill)"/>
    <path d="M 255.77915954589844 422.7894287109375 C 258.4554443359375 425.2281799316406 266.2286376953125 429.60638427734375 266.41357421875 440.0447998046875 C 261.9908752441406 443.43133544921875 261.638916015625 446.8370666503906 252.71121215820312 446.65155029296875 C 247.00596618652344 444.8182373046875 221.11524963378906 446.9218444824219 212.60804748535156 444.5041809082031 C 213.0249786376953 436.99578857421875 213.95974731445312 436.2222900390625 215.88064575195312 434.4116516113281 C 216.10104370117188 433.36224365234375 224.99180603027344 433.29638671875 226.58660888671875 430.0976867675781 C 230.76080322265625 423.26605224609375 242.5714874267578 424.109375 255.77915954589844 422.7894287109375" stroke-width="0.0" fill="url(#shape_34_fill)"/>
    <path d="M 106.06517028808594 69.95491027832031 C 109.46874237060547 70.0291976928711 112.29136657714844 78.36456298828125 111.249267578125 82.60671997070312 C 117.0622787475586 84.38477325439453 117.55363464355469 110.27806091308594 117.67064666748047 110.90878295898438 C 116.91919708251953 112.92945861816406 112.13089752197266 114.54167938232422 107.28143310546875 120.78599548339844 C 105.38702392578125 116.82428741455078 96.66746520996094 118.88874816894531 92.09651947021484 112.9432373046875 C 90.88575744628906 85.52117156982422 103.84158325195312 84.19819641113281 106.06517028808594 69.95491027832031" stroke-width="0.0" fill="url(#shape_35_fill)"/>
    <path d="M 451.6557312011719 178.4901885986328 C 453.5553894042969 176.2593536376953 456.5755310058594 177.34890747070312 456.50006103515625 179.93267822265625 C 457.1070861816406 180.19485473632812 457.08258056640625 184.55123901367188 458.04345703125 186.1502685546875 C 455.672607421875 189.5760955810547 459.4963684082031 194.70428466796875 460.3776550292969 206.4769744873047 C 459.44073486328125 208.66729736328125 452.9834899902344 209.2966766357422 446.65325927734375 204.8963623046875 C 440.70086669921875 206.97799682617188 440.2295227050781 209.01754760742188 433.1000671386719 210.90399169921875 C 433.8026428222656 209.99375915527344 437.5978088378906 189.41958618164062 439.4295654296875 182.88839721679688 C 440.6853942871094 181.2260284423828 444.4796142578125 181.69593811035156 446.4761047363281 180.4501495361328 C 447.72796630859375 179.23875427246094 450.0555419921875 179.44509887695312 451.6557312011719 178.4901885986328" stroke-width="0.0" fill="url(#shape_36_fill)"/>
    <path d="M 558.1066284179688 85.90098571777344 C 564.8058471679688 80.08814239501953 578.7725830078125 81.73246002197266 580.4059448242188 85.63451385498047 C 581.2380981445312 83.52894592285156 586.5514526367188 85.2104721069336 586.8799438476562 88.22550201416016 C 590.7843627929688 95.21186065673828 584.3929443359375 102.53024291992188 574.3931274414062 100.07472229003906 C 573.794677734375 99.3408432006836 550.4990234375 95.35704803466797 541.1046142578125 85.73457336425781 C 538.6463623046875 85.25535583496094 537.7877807617188 81.3497085571289 535.7647705078125 80.20060729980469 C 543.677490234375 74.9847640991211 549.2672729492188 78.21858215332031 558.1066284179688 85.90098571777344" stroke-width="0.0" fill="url(#shape_37_fill)"/>
    <path d="M 252.37644958496094 208.5526885986328 C 263.96270751953125 210.01231384277344 261.04376220703125 243.83377075195312 260.3612060546875 247.645263671875 C 256.8403015136719 254.23214721679688 250.19876098632812 253.61251831054688 246.96153259277344 256.48828125 C 235.36549377441406 238.80538940429688 241.56903076171875 211.14756774902344 252.37644958496094 208.5526885986328" stroke-width="0.0" fill="url(#shape_38_fill)"/>
    <path d="M 443.19830322265625 263.36798095703125 C 445.9421081542969 263.4945983886719 449.0995178222656 266.60223388671875 447.6642150878906 270.0636901855469 C 444.13128662109375 270.33917236328125 442.5926513671875 277.0003967285156 440.9797668457031 279.3799133300781 C 440.3805847167969 284.97747802734375 420.7138671875 284.4569091796875 416.3222351074219 277.3554382324219 C 414.67486572265625 276.97955322265625 413.2149658203125 273.58709716796875 415.4324035644531 271.6726989746094 C 414.8677673339844 269.8923034667969 418.833251953125 261.8578186035156 425.5193786621094 258.7054748535156 C 428.59832763671875 255.60556030273438 436.9856872558594 257.9952392578125 443.19830322265625 263.36798095703125" stroke-width="0.0" fill="url(#shape_39_fill)"/>
    <path d="M 407.7445373535156 409.7637939453125 C 408.68914794921875 409.8793029785156 416.7770080566406 419.02069091796875 413.53070068359375 424.1350402832031 C 400.305908203125 435.626953125 383.5300598144531 420.64996337890625 377.19854736328125 420.39251708984375 C 370.1018981933594 417.712646484375 371.952880859375 416.8349914550781 373.13201904296875 411.2745056152344 C 375.881591796875 401.3853454589844 396.91961669921875 402.6390075683594 407.7445373535156 409.7637939453125" stroke-width="0.0" fill="url(#shape_40_fill)"/>
    <path d="M 66.46378326416016 427.59832763671875 C 67.50000762939453 429.1888122558594 65.2154541015625 435.59033203125 59.499839782714844 436.16204833984375 C 58.4267692565918 437.1539001464844 40.695011138916016 437.0798034667969 31.161930084228516 442.4474792480469 C 27.897262573242188 442.3441162109375 24.85645294189453 445.511962890625 17.123104095458984 443.5324401855469 C 16.48443603515625 440.6449279785156 17.677574157714844 439.20330810546875 16.954071044921875 437.8595886230469 C 33.405494689941406 427.7462158203125 55.95335006713867 427.4568786621094 66.46378326416016 427.59832763671875" stroke-width="0.0" fill="url(#shape_41_fill)"/>
    <path d="M 278.5351867675781 381.8930358886719 C 284.061767578125 381.93896484375 297.0964660644531 382.10711669921875 299.74322509765625 385.66729736328125 C 297.37744140625 394.9674072265625 299.3170166015625 400.72515869140625 294.33819580078125 404.39251708984375 C 291.7249755859375 398.8155517578125 264.6984558105469 403.7941589355469 257.707275390625 404.3597412109375 C 251.68446350097656 403.2620544433594 250.38687133789062 391.7745056152344 253.4927215576172 383.12518310546875 C 261.280517578125 381.0925598144531 267.7108154296875 381.8997802734375 278.5351867675781 381.8930358886719" stroke-width="0.0" fill="url(#shape_42_fill)"/>
    <path d="M 221.06651306152344 219.079833984375 C 225.53514099121094 217.61587524414062 232.599365234375 217.51107788085938 237.85801696777344 218.91282653808594 C 240.005615234375 223.15306091308594 245.85194396972656 241.34312438964844 244.42153930664062 260.1520080566406 C 241.6975555419922 265.7370300292969 234.41160583496094 265.7588806152344 216.89852905273438 265.32476806640625 C 212.42311096191406 262.8362731933594 211.93141174316406 260.9378356933594 217.59066772460938 248.04103088378906 C 219.50619506835938 246.47654724121094 217.8954315185547 226.41720581054688 221.06651306152344 219.079833984375" stroke-width="0.0" fill="url(#shape_43_fill)"/>
    <path d="M 483.9764709472656 395.4491271972656 C 486.8248291015625 399.7976989746094 485.8493957519531 400.98895263671875 483.5478820800781 401.2383728027344 C 474.3628845214844 406.8434143066406 451.1579284667969 406.6756286621094 450.2469482421875 407.6733093261719 C 448.03619384765625 404.41827392578125 451.5869140625 396.1737060546875 453.6030578613281 396.46392822265625 C 462.5777282714844 393.06890869140625 473.3817443847656 392.8157653808594 483.9764709472656 395.4491271972656" stroke-width="0.0" fill="url(#shape_44_fill)"/>
    <path d="M 45.890602111816406 406.8215026855469 C 45.312923431396484 408.2784423828125 35.8541259765625 411.6630859375 34.829952239990234 414.0887756347656 C 32.83109664916992 414.703369140625 32.5052490234375 416.1641540527344 29.46356964111328 416.4134826660156 C 27.993431091308594 417.8549499511719 25.180850982666016 418.0640869140625 21.62163734436035 420.6812744140625 C 17.58711051940918 420.1832580566406 0.36451512575149536 417.2025451660156 -0.8553393483161926 420.5884704589844 C 1.6758452653884888 419.6222839355469 -0.3616599440574646 410.6171875 0.5716956853866577 410.0122375488281 C 8.657482147216797 408.68621826171875 45.61545181274414 407.5768127441406 45.890602111816406 406.8215026855469" stroke-width="0.0" fill="url(#shape_45_fill)"/>
    <path d="M 451.8257751464844 175.28689575195312 C 455.7591552734375 174.7872772216797 464.26544189453125 198.73329162597656 464.91033935546875 202.47463989257812 C 462.5836486816406 209.646484375 451.6932373046875 209.61305236816406 449.47454833984375 206.7643585205078 C 448.327392578125 203.2497100830078 449.0486755371094 198.312744140625 448.8467102050781 195.3010711669922 C 447.9442443847656 194.5468292236328 447.607421875 192.1800994873047 448.5005798339844 187.73135375976562 C 451.2572937011719 187.13650512695312 450.578125 183.6956024169922 451.8257751464844 175.28689575195312" stroke-width="0.0" fill="url(#shape_46_fill)"/>
    <path d="M 373.4901428222656 186.31524658203125 C 378.5068054199219 192.04588317871094 379.360107421875 203.54550170898438 371.9083251953125 206.36715698242188 C 365.8646545410156 206.8275909423828 364.772216796875 204.8542022705078 361.79888916015625 204.07855224609375 C 351.3695068359375 207.67274475097656 349.75811767578125 203.5697021484375 354.5609436035156 188.4888916015625 C 356.64520263671875 184.96182250976562 358.36627197265625 184.43319702148438 368.5401916503906 185.51480102539062 C 368.5279235839844 183.7104034423828 373.0841064453125 183.36984252929688 373.4901428222656 186.31524658203125" stroke-width="0.0" fill="url(#shape_47_fill)"/>
    <path d="M 472.8915710449219 264.26983642578125 C 475.57647705078125 265.8333435058594 479.8939208984375 267.1282043457031 478.787109375 284.6360778808594 C 465.5997314453125 288.1620178222656 454.6668701171875 286.14947509765625 443.9867248535156 284.88189697265625 C 439.3018798828125 282.21990966796875 439.99713134765625 276.9566650390625 441.2215881347656 276.48480224609375 C 446.6746520996094 266.802490234375 456.0452880859375 266.4886169433594 472.8915710449219 264.26983642578125" stroke-width="0.0" fill="url(#shape_48_fill)"/>
    <path d="M 176.8546142578125 118.48426055908203 C 178.96315002441406 116.16583251953125 181.96241760253906 116.70336151123047 183.07080078125 117.44490814208984 C 184.6914825439453 120.22090911865234 183.8521270751953 122.35011291503906 184.92608642578125 124.81704711914062 C 180.6820068359375 130.0543975830078 186.15103149414062 136.6717529296875 184.44882202148438 141.67361450195312 C 181.16209411621094 147.07955932617188 172.32977294921875 145.11390686035156 171.84803771972656 146.60269165039062 C 170.8029327392578 126.34762573242188 169.65252685546875 123.79952239990234 176.8546142578125 118.48426055908203" stroke-width="0.0" fill="url(#shape_49_fill)"/>
    <path d="M 333.9903564453125 427.7657775878906 C 337.4364318847656 428.33856201171875 340.92303466796875 429.2750244140625 342.883544921875 432.0431213378906 C 346.36004638671875 435.6005554199219 345.162353515625 437.2301025390625 342.4814758300781 437.60906982421875 C 342.878173828125 445.5965270996094 324.96209716796875 447.6144104003906 323.03692626953125 441.4490051269531 C 318.4943542480469 437.27337646484375 316.2948303222656 432.8525085449219 314.29107666015625 430.6712341308594 C 322.31500244140625 426.666259765625 328.590576171875 426.56463623046875 333.9903564453125 427.7657775878906" stroke-width="0.0" fill="url(#shape_50_fill)"/>
    <path d="M 298.6763000488281 390.37567138671875 C 298.8822326660156 393.8597412109375 295.4830627441406 398.8567810058594 289.07464599609375 399.1156005859375 C 282.24737548828125 397.3043212890625 280.7154235839844 398.41241455078125 271.3894958496094 402.6721496582031 C 271.04608154296875 401.61981201171875 269.5382080078125 398.99334716796875 270.9927978515625 397.481201171875 C 269.9022216796875 395.4966735839844 272.9313049316406 388.0150451660156 279.28411865234375 388.6837463378906 C 283.2784118652344 386.806884765625 288.23541259765625 388.907958984375 298.6763000488281 390.37567138671875" stroke-width="0.0" fill="url(#shape_51_fill)"/>
    <path d="M 269.7103271484375 185.5889434814453 C 275.7035827636719 195.2591094970703 277.9403076171875 207.70945739746094 279.8143310546875 217.35162353515625 C 271.42401123046875 210.51512145996094 268.7316589355469 207.91378784179688 260.7292785644531 215.42300415039062 C 258.1646423339844 205.80320739746094 264.3097229003906 198.07357788085938 265.8386535644531 195.15240478515625 C 269.527099609375 194.20587158203125 268.88995361328125 191.67431640625 269.7103271484375 185.5889434814453" stroke-width="0.0" fill="url(#shape_52_fill)"/>
    <path d="M 218.22354125976562 409.5750427246094 C 215.933837890625 411.00933837890625 215.54196166992188 413.2152099609375 214.25331115722656 413.78851318359375 C 214.71957397460938 420.522216796875 189.807861328125 424.05950927734375 187.4727325439453 415.64337158203125 C 186.26150512695312 406.8834533691406 205.6756591796875 401.3017578125 218.22354125976562 409.5750427246094" stroke-width="0.0" fill="url(#shape_53_fill)"/>
    <path d="M 205.7767333984375 424.56280517578125 C 205.3903045654297 425.4019775390625 206.20452880859375 428.56884765625 204.54869079589844 429.1835632324219 C 197.8955535888672 432.44140625 178.83529663085938 432.2532043457031 177.91873168945312 432.75018310546875 C 176.689453125 430.955810546875 178.15176391601562 425.95654296875 176.7218475341797 423.9067077636719 C 186.42318725585938 418.98223876953125 196.00656127929688 421.68170166015625 205.7767333984375 424.56280517578125" stroke-width="0.0" fill="url(#shape_54_fill)"/>
    <path d="M 270.08074951171875 245.65875244140625 C 275.4225158691406 244.72518920898438 276.6680908203125 246.02232360839844 281.4263610839844 245.5128631591797 C 281.4210205078125 251.3347930908203 280.8746643066406 252.0628662109375 283.64263916015625 260.1836853027344 C 263.4609069824219 257.890869140625 262.9211120605469 257.176513671875 255.1498565673828 258.03582763671875 C 254.88427734375 248.1728973388672 255.85720825195312 247.2288055419922 258.29608154296875 244.6881103515625 C 260.09759521484375 239.5359649658203 266.0338134765625 240.07872009277344 270.08074951171875 245.65875244140625" stroke-width="0.0" fill="url(#shape_55_fill)"/>
    <path d="M 274.4826965332031 359.3924560546875 C 277.1029052734375 364.52923583984375 282.0240478515625 363.2260437011719 284.4918518066406 368.099853515625 C 285.3821716308594 369.2434997558594 285.7306213378906 371.8287353515625 285.5981750488281 379.8314514160156 C 277.5899353027344 380.0038146972656 265.4201354980469 383.22705078125 250.0624542236328 382.21282958984375 C 246.15234375 378.5767822265625 247.5977325439453 364.10272216796875 248.94808959960938 362.0353088378906 C 255.85089111328125 360.5905456542969 262.20782470703125 359.5758972167969 274.4826965332031 359.3924560546875" stroke-width="0.0" fill="url(#shape_56_fill)"/>
    <path d="M 409.54608154296875 270.4701843261719 C 415.0440979003906 269.5224609375 417.6640319824219 273.8672790527344 417.9857177734375 281.6094055175781 C 413.142578125 289.06622314453125 402.16705322265625 285.5102233886719 386.8927001953125 283.9721984863281 C 384.8981628417969 269.3727111816406 393.53936767578125 264.8211669921875 409.54608154296875 270.4701843261719" stroke-width="0.0" fill="url(#shape_57_fill)"/>
    <path d="M 632.0471801757812 351.7425842285156 C 632.97021484375 354.1907043457031 659.6552734375 353.1546630859375 668.6815795898438 353.5601501464844 C 668.4599609375 358.34661865234375 662.3794555664062 360.88702392578125 657.8896484375 356.6955871582031 C 652.9327392578125 356.3964538574219 634.0359497070312 360.69757080078125 631.4447631835938 361.03411865234375 C 627.7548828125 357.120361328125 629.2923583984375 353.56402587890625 632.0471801757812 351.7425842285156" stroke-width="0.0" fill="url(#shape_58_fill)"/>
    <path d="M 341.2596435546875 385.1883850097656 C 342.77618408203125 390.342041015625 358.1152648925781 391.8636779785156 359.1808166503906 394.7892761230469 C 356.5799560546875 398.84075927734375 340.132568359375 401.81610107421875 338.4543762207031 399.516845703125 C 335.1405334472656 399.6051940917969 333.0859069824219 398.77252197265625 331.872802734375 396.5346984863281 C 331.9852294921875 394.93994140625 330.75927734375 393.4737243652344 332.3843078613281 390.6221008300781 C 333.1606750488281 385.06121826171875 337.16070556640625 384.39288330078125 341.2596435546875 385.1883850097656" stroke-width="0.0" fill="url(#shape_59_fill)"/>
    <path d="M 460.39227294921875 363.9208984375 C 462.77264404296875 365.0508117675781 471.720703125 369.47064208984375 473.0907897949219 373.8802185058594 C 471.785400390625 376.14617919921875 470.3318176269531 376.8326110839844 463.0484313964844 375.9248962402344 C 459.02178955078125 376.8202819824219 457.5043640136719 376.76806640625 452.6820068359375 370.89569091796875 C 452.9593200683594 369.04638671875 458.8011779785156 364.8924255371094 460.39227294921875 363.9208984375" stroke-width="0.0" fill="url(#shape_60_fill)"/>
    <path d="M 435.2890930175781 432.4534912109375 C 440.25115966796875 434.2543640136719 442.4895935058594 436.34161376953125 441.99798583984375 439.0901794433594 C 440.4900207519531 442.3311767578125 430.1304016113281 441.08154296875 425.8379211425781 442.523681640625 C 422.5267333984375 438.1777038574219 424.1231384277344 434.4595947265625 419.66845703125 428.194091796875 C 428.3389587402344 429.7729187011719 431.9220886230469 434.692138671875 435.2890930175781 432.4534912109375" stroke-width="0.0" fill="url(#shape_61_fill)"/>
    <path d="M 185.4290313720703 411.4540710449219 C 186.26206970214844 413.93170166015625 185.0094451904297 414.7928771972656 186.92236328125 417.8328552246094 C 184.85675048828125 420.1443786621094 183.41050720214844 419.53863525390625 182.38230895996094 419.66766357421875 C 181.10263061523438 421.9693603515625 174.69911193847656 420.10455322265625 171.18331909179688 420.2699279785156 C 169.5228271484375 417.9002685546875 169.75067138671875 415.6357116699219 173.04336547851562 413.7099304199219 C 176.25262451171875 412.1319885253906 180.6356964111328 410.8621520996094 185.4290313720703 411.4540710449219" stroke-width="0.0" fill="url(#shape_62_fill)"/>
    <path d="M 332.5645446777344 418.3404541015625 C 334.9429016113281 426.1983337402344 329.9122314453125 428.045166015625 327.28692626953125 426.122314453125 C 324.60791015625 427.7845764160156 323.0060729980469 426.7430114746094 320.4473571777344 427.6657409667969 C 318.7040100097656 426.04736328125 319.6307678222656 419.99298095703125 317.8158264160156 418.4173583984375 C 321.95587158203125 419.92669677734375 326.522705078125 418.6876220703125 332.5645446777344 418.3404541015625" stroke-width="0.0" fill="url(#shape_63_fill)"/>
    <path d="M 55.359432220458984 273.23828125 C 56.53828811645508 269.7811279296875 66.28707122802734 270.206787109375 66.3268051147461 278.787353515625 C 59.26726150512695 278.8840026855469 53.44462966918945 273.3321838378906 47.88622283935547 275.96588134765625 C 49.336997985839844 272.8453674316406 52.26860046386719 272.3161926269531 55.359432220458984 273.23828125" stroke-width="0.0" fill="url(#shape_64_fill)"/>
    <path d="M 304.32147216796875 438.62457275390625 C 304.4551086425781 437.0392761230469 305.83251953125 436.0599365234375 313.154541015625 436.9817810058594 C 314.7981262207031 438.9275207519531 313.23785400390625 441.6894836425781 311.52716064453125 443.3084716796875 C 307.844970703125 445.4347229003906 306.7805480957031 444.23431396484375 305.0009460449219 445.2295227050781 C 303.0525817871094 441.5361022949219 302.28851318359375 439.4458923339844 304.32147216796875 438.62457275390625" stroke-width="0.0" fill="url(#shape_65_fill)"/>
    <path d="M -0.30385297536849976 -0.3259281814098358 C 223.9556427001953 0.002830436686053872 443.7038879394531 0.47437742352485657 673.25390625 0.8501642942428589 C 673.9386596679688 151.16555786132812 674.5054931640625 295.25250244140625 673.466064453125 445.43914794921875 C 450.4544677734375 446.1775207519531 230.8126678466797 446.1214599609375 0.5820291638374329 445.2724914550781 C 0.268964022397995 296.9209289550781 -0.075713612139225 148.78628540039062 -0.30385297536849976 -0.3259281814098358" stroke-width="0.0" fill="url(#shape_66_fill)"/>
    <path d="M -0.8835827112197876 -0.10388801991939545 C 222.56263732910156 -0.12066217511892319 443.5478210449219 0.3684900999069214 673.2666625976562 0.48949310183525085 C 674.0248413085938 151.15501403808594 674.5042114257812 294.5436096191406 673.20849609375 445.29205322265625 C 450.3963623046875 446.25048828125 231.069580078125 446.16796875 0.7357158064842224 445.1619567871094 C 0.22556109726428986 296.81787109375 -0.19911669194698334 148.53575134277344 -0.8835827112197876 -0.10388801991939545" stroke-width="0.0" fill="url(#shape_67_fill)"/>
    <path d="M -0.6215382218360901 -0.18234147131443024 C 222.90623474121094 -0.24837715923786163 443.1534118652344 0.31722500920295715 673.241943359375 -0.09279776364564896 C 674.0043334960938 151.30044555664062 674.5164794921875 294.6344909667969 673.2243041992188 445.28497314453125 C 450.43548583984375 446.2538757324219 231.15084838867188 446.165283203125 1.2945518493652344 445.1340026855469 C 0.47866013646125793 295.6969909667969 0.04348384961485863 148.68148803710938 -0.6215382218360901 -0.18234147131443024" stroke-width="0.0" fill="url(#shape_68_fill)"/>
  </g>
</svg>
