<?xml version="1.0" ?>
<svg xmlns="http://www.w3.org/2000/svg" version="1.1" width="674" height="446">
  <defs>
    <radialGradient id="shape_0_fill" cx="0.5329099479697932" cy="0.7400449060003854" r="0.28023920710079747">
      <stop offset="0.7238305" stop-color="rgb(158, 174, 0)" stop-opacity="0.8436372876167297"/>
      <stop offset="1.0" stop-color="rgb(49, 45, 0)" stop-opacity="1.0"/>
    </radialGradient>
    <radialGradient id="shape_1_fill" cx="0.5346037641123423" cy="0.7437799564926079" r="0.20652607994192784">
      <stop offset="0.49765265" stop-color="rgb(70, 68, 70)" stop-opacity="0.7676894068717957"/>
      <stop offset="1.0" stop-color="rgb(33, 13, 0)" stop-opacity="0.6188415884971619"/>
    </radialGradient>
    <radialGradient id="shape_2_fill" cx="0.09792273546892387" cy="0.7376672719091578" r="0.22062588021026522">
      <stop offset="0.001386876" stop-color="rgb(35, 95, 182)" stop-opacity="0.9607083797454834"/>
      <stop offset="0.9883906" stop-color="rgb(7, 98, 255)" stop-opacity="0.91465163230896"/>
    </radialGradient>
    <radialGradient id="shape_3_fill" cx="0.2775529810512101" cy="0.21544284563962654" r="0.13022879535437337">
      <stop offset="0.3972313" stop-color="rgb(130, 183, 0)" stop-opacity="0.7722228169441223"/>
      <stop offset="1.0" stop-color="rgb(36, 37, 0)" stop-opacity="0.9378001093864441"/>
    </radialGradient>
    <radialGradient id="shape_4_fill" cx="0.1543026706231454" cy="0.9977578475336323" r="0.10288926755639141">
      <stop offset="0.0" stop-color="rgb(81, 79, 86)" stop-opacity="1.0"/>
      <stop offset="1.0" stop-color="rgb(60, 56, 73)" stop-opacity="0.8826220035552979"/>
    </radialGradient>
    <radialGradient id="shape_5_fill" cx="0.14807964290992442" cy="0.23997249517740155" r="0.11810664960821587">
      <stop offset="0.0" stop-color="rgb(255, 255, 255)" stop-opacity="0.6465655565261841"/>
      <stop offset="0.5626593" stop-color="rgb(255, 255, 255)" stop-opacity="0.5451877117156982"/>
    </radialGradient>
    <radialGradient id="shape_6_fill" cx="0.18397626112759644" cy="0.9977578475336323" r="0.0754974885934892">
      <stop offset="0.0" stop-color="rgb(93, 90, 94)" stop-opacity="1.0"/>
      <stop offset="1.0" stop-color="rgb(144, 128, 131)" stop-opacity="0.9107009172439575"/>
    </radialGradient>
    <radialGradient id="shape_7_fill" cx="0.2893175074183976" cy="0.05829596412556054" r="0.08666390552011372">
      <stop offset="0.0" stop-color="rgb(55, 66, 29)" stop-opacity="1.0"/>
      <stop offset="1.0" stop-color="rgb(113, 128, 50)" stop-opacity="0.5635892748832703"/>
    </radialGradient>
    <radialGradient id="shape_8_fill" cx="0.3382789091115889" cy="0.9439461883408071" r="0.06756690277190167">
      <stop offset="0.0" stop-color="rgb(91, 124, 45)" stop-opacity="1.0"/>
      <stop offset="1.0" stop-color="rgb(110, 164, 42)" stop-opacity="0.653801441192627"/>
    </radialGradient>
    <radialGradient id="shape_9_fill" cx="0.30712166172106825" cy="0.9977578475336323" r="0.0730758406641929">
      <stop offset="0.0" stop-color="rgb(38, 48, 20)" stop-opacity="1.0"/>
      <stop offset="1.0" stop-color="rgb(33, 31, 49)" stop-opacity="1.0"/>
    </radialGradient>
    <radialGradient id="shape_10_fill" cx="0.3056379821958457" cy="0.9977578475336323" r="0.06792919147615971">
      <stop offset="0.0" stop-color="rgb(39, 49, 21)" stop-opacity="1.0"/>
      <stop offset="1.0" stop-color="rgb(35, 16, 0)" stop-opacity="0.6641347408294678"/>
    </radialGradient>
    <radialGradient id="shape_11_fill" cx="0.21810089020771514" cy="0.968609865470852" r="0.06792919147615971">
      <stop offset="0.0" stop-color="rgb(138, 135, 129)" stop-opacity="1.0"/>
      <stop offset="1.0" stop-color="rgb(141, 107, 75)" stop-opacity="0.4611673653125763"/>
    </radialGradient>
    <radialGradient id="shape_12_fill" cx="0.29080118694362017" cy="0.9977578475336323" r="0.07480746985189285">
      <stop offset="0.0" stop-color="rgb(22, 25, 13)" stop-opacity="1.0"/>
      <stop offset="1.0" stop-color="rgb(37, 38, 12)" stop-opacity="1.0"/>
    </radialGradient>
    <radialGradient id="shape_13_fill" cx="0.327893175074184" cy="0.8923766816143498" r="0.06900465877544279">
      <stop offset="0.0" stop-color="rgb(89, 117, 50)" stop-opacity="1.0"/>
      <stop offset="1.0" stop-color="rgb(94, 129, 7)" stop-opacity="0.645052969455719"/>
    </radialGradient>
    <radialGradient id="shape_14_fill" cx="0.142433234421365" cy="0.9977578475336323" r="0.06617211022079875">
      <stop offset="0.0" stop-color="rgb(155, 150, 153)" stop-opacity="1.0"/>
      <stop offset="1.0" stop-color="rgb(255, 191, 174)" stop-opacity="0.22966623306274414"/>
    </radialGradient>
    <radialGradient id="shape_15_fill" cx="0.31008902077151335" cy="0.9977578475336323" r="0.06683642786405207">
      <stop offset="0.0" stop-color="rgb(43, 55, 23)" stop-opacity="1.0"/>
      <stop offset="1.0" stop-color="rgb(58, 67, 20)" stop-opacity="0.9159740209579468"/>
    </radialGradient>
    <radialGradient id="shape_16_fill" cx="0.27299703264094954" cy="0.9977578475336323" r="0.08110449363640579">
      <stop offset="0.0" stop-color="rgb(31, 35, 19)" stop-opacity="1.0"/>
      <stop offset="1.0" stop-color="rgb(30, 29, 0)" stop-opacity="0.9553852677345276"/>
    </radialGradient>
    <radialGradient id="shape_17_fill" cx="0.2893175074183976" cy="0.9977578475336323" r="0.07513486030193747">
      <stop offset="0.0" stop-color="rgb(22, 23, 13)" stop-opacity="1.0"/>
      <stop offset="1.0" stop-color="rgb(23, 21, 0)" stop-opacity="0.8606036305427551"/>
    </radialGradient>
    <radialGradient id="shape_18_fill" cx="0.3293768545994065" cy="0.7556053811659192" r="0.06617211022079875">
      <stop offset="0.0" stop-color="rgb(83, 108, 65)" stop-opacity="1.0"/>
      <stop offset="1.0" stop-color="rgb(108, 130, 60)" stop-opacity="0.9826433658599854"/>
    </radialGradient>
    <radialGradient id="shape_19_fill" cx="0.3516320474777448" cy="0.9977578475336323" r="0.06617211022079875">
      <stop offset="0.0" stop-color="rgb(95, 135, 39)" stop-opacity="1.0"/>
      <stop offset="1.0" stop-color="rgb(134, 194, 3)" stop-opacity="0.710801362991333"/>
    </radialGradient>
    <radialGradient id="shape_20_fill" cx="0.0830860534124629" cy="0.9977578475336323" r="0.06792919147615971">
      <stop offset="0.0" stop-color="rgb(49, 52, 66)" stop-opacity="1.0"/>
      <stop offset="1.0" stop-color="rgb(36, 24, 60)" stop-opacity="0.42303839325904846"/>
    </radialGradient>
    <radialGradient id="shape_21_fill" cx="0.29821958456973297" cy="0.9977578475336323" r="0.06792919147615971">
      <stop offset="0.0" stop-color="rgb(33, 40, 17)" stop-opacity="1.0"/>
      <stop offset="1.0" stop-color="rgb(44, 60, 0)" stop-opacity="0.7259396910667419"/>
    </radialGradient>
    <radialGradient id="shape_22_fill" cx="0.3563326600751113" cy="0.44372438849889645" r="0.06594546966099951">
      <stop offset="0.5238459" stop-color="rgb(106, 139, 33)" stop-opacity="0.9757394790649414"/>
      <stop offset="0.3889173" stop-color="rgb(147, 180, 40)" stop-opacity="0.9159671664237976"/>
    </radialGradient>
    <radialGradient id="shape_23_fill" cx="0.6454005934718101" cy="0.1412556053811659" r="0.06617211022079875">
      <stop offset="0.0" stop-color="rgb(46, 38, 13)" stop-opacity="1.0"/>
      <stop offset="1.0" stop-color="rgb(52, 31, 0)" stop-opacity="0.8824165463447571"/>
    </radialGradient>
    <radialGradient id="shape_24_fill" cx="0.2492550586734398" cy="0.4843076355254169" r="0.06616971047059012">
      <stop offset="0.0" stop-color="rgb(205, 212, 206)" stop-opacity="1.0"/>
      <stop offset="0.92505676" stop-color="rgb(255, 255, 255)" stop-opacity="0.5800860524177551"/>
    </radialGradient>
    <radialGradient id="shape_25_fill" cx="0.6320474777448071" cy="0.9977578475336323" r="0.06617211022079875">
      <stop offset="0.0" stop-color="rgb(35, 28, 8)" stop-opacity="1.0"/>
      <stop offset="1.0" stop-color="rgb(38, 15, 0)" stop-opacity="0.5687457919120789"/>
    </radialGradient>
    <radialGradient id="shape_26_fill" cx="0.15414520399506793" cy="0.3207086811151205" r="0.06604698362265567">
      <stop offset="0.11989566" stop-color="rgb(198, 211, 155)" stop-opacity="1.0"/>
      <stop offset="0.58338004" stop-color="rgb(120, 116, 195)" stop-opacity="0.07564311474561691"/>
    </radialGradient>
    <radialGradient id="shape_27_fill" cx="0.15410647972401242" cy="0.3208032787648017" r="0.06604505929465818">
      <stop offset="0.0" stop-color="rgb(192, 205, 0)" stop-opacity="1.0"/>
      <stop offset="0.49375948" stop-color="rgb(74, 69, 41)" stop-opacity="0.5963801145553589"/>
    </radialGradient>
    <radialGradient id="shape_28_fill" cx="0.03568793050613177" cy="0.016823593276498565" r="0.06945275552902448">
      <stop offset="0.121319905" stop-color="rgb(6, 26, 118)" stop-opacity="0.9641742706298828"/>
      <stop offset="0.8835958" stop-color="rgb(6, 26, 163)" stop-opacity="0.7294541001319885"/>
    </radialGradient>
    <radialGradient id="shape_29_fill" cx="0.33976258863681147" cy="0.6659192825112108" r="0.06617211022079875">
      <stop offset="0.0" stop-color="rgb(90, 117, 55)" stop-opacity="1.0"/>
      <stop offset="1.0" stop-color="rgb(107, 136, 27)" stop-opacity="0.8703851699829102"/>
    </radialGradient>
    <radialGradient id="shape_30_fill" cx="0.039421735248509074" cy="0.016345680561835454" r="0.068913756916714">
      <stop offset="0.17920037" stop-color="rgb(49, 75, 75)" stop-opacity="1.0"/>
      <stop offset="0.9332156" stop-color="rgb(61, 65, 0)" stop-opacity="0.5142028331756592"/>
    </radialGradient>
    <radialGradient id="shape_31_fill" cx="0.12314540059347182" cy="0.9977578475336323" r="0.06617211022079875">
      <stop offset="0.0" stop-color="rgb(95, 103, 98)" stop-opacity="1.0"/>
      <stop offset="1.0" stop-color="rgb(132, 122, 110)" stop-opacity="0.7371347546577454"/>
    </radialGradient>
    <radialGradient id="shape_32_fill" cx="0.4035608308605341" cy="0.984304932735426" r="0.06617211022079875">
      <stop offset="0.0" stop-color="rgb(126, 155, 63)" stop-opacity="1.0"/>
      <stop offset="1.0" stop-color="rgb(129, 119, 28)" stop-opacity="0.9763594269752502"/>
    </radialGradient>
    <radialGradient id="shape_33_fill" cx="0.3249258160237389" cy="0.6053811659192825" r="0.06617211022079875">
      <stop offset="1.4492969e-05" stop-color="rgb(93, 124, 71)" stop-opacity="0.999823272228241"/>
      <stop offset="1.0" stop-color="rgb(125, 149, 57)" stop-opacity="1.0"/>
    </radialGradient>
    <radialGradient id="shape_34_fill" cx="0.6468842729970327" cy="0.531390134529148" r="0.06617211022079875">
      <stop offset="0.0" stop-color="rgb(54, 47, 24)" stop-opacity="1.0"/>
      <stop offset="1.0" stop-color="rgb(49, 14, 27)" stop-opacity="0.4027748107910156"/>
    </radialGradient>
    <radialGradient id="shape_35_fill" cx="0.1482087426794035" cy="0.2402917836279078" r="0.06932413684154476">
      <stop offset="0.101113796" stop-color="rgb(204, 255, 90)" stop-opacity="0.1660822033882141"/>
      <stop offset="0.5769217" stop-color="rgb(102, 78, 62)" stop-opacity="0.8237477540969849"/>
    </radialGradient>
    <radialGradient id="shape_36_fill" cx="0.2878338278931751" cy="0.9977578475336323" r="0.06617211022079875">
      <stop offset="0.0" stop-color="rgb(80, 96, 53)" stop-opacity="1.0"/>
      <stop offset="1.0" stop-color="rgb(32, 33, 0)" stop-opacity="0.7803733944892883"/>
    </radialGradient>
    <radialGradient id="shape_37_fill" cx="0.129080118694362" cy="0.9977578475336323" r="0.06617211022079875">
      <stop offset="0.0" stop-color="rgb(87, 97, 81)" stop-opacity="1.0"/>
      <stop offset="1.0" stop-color="rgb(67, 74, 56)" stop-opacity="0.6013929843902588"/>
    </radialGradient>
    <radialGradient id="shape_38_fill" cx="0.33892324204260943" cy="0.5607740119968294" r="0.0666785763703751">
      <stop offset="0.7501433" stop-color="rgb(83, 111, 23)" stop-opacity="0.9156063795089722"/>
      <stop offset="0.6022492" stop-color="rgb(166, 255, 79)" stop-opacity="0.8759361505508423"/>
    </radialGradient>
    <radialGradient id="shape_39_fill" cx="0.40059347181008903" cy="0.9641255605381166" r="0.06617211022079875">
      <stop offset="0.0" stop-color="rgb(138, 168, 60)" stop-opacity="1.0"/>
      <stop offset="1.0" stop-color="rgb(213, 252, 82)" stop-opacity="0.9826385378837585"/>
    </radialGradient>
    <radialGradient id="shape_40_fill" cx="0.6121917634052764" cy="0.87687621522912" r="0.07073603327267247">
      <stop offset="0.3793925" stop-color="rgb(150, 133, 174)" stop-opacity="0.3047400116920471"/>
      <stop offset="0.50822526" stop-color="rgb(1, 13, 67)" stop-opacity="0.9420008659362793"/>
    </radialGradient>
    <radialGradient id="shape_41_fill" cx="0.6454005934718101" cy="0.08744394618834081" r="0.06617211022079875">
      <stop offset="0.0" stop-color="rgb(58, 48, 21)" stop-opacity="1.0"/>
      <stop offset="1.0" stop-color="rgb(90, 63, 21)" stop-opacity="1.0"/>
    </radialGradient>
    <radialGradient id="shape_42_fill" cx="0.5845697329376854" cy="0.6188340807174888" r="0.06617211022079875">
      <stop offset="0.0" stop-color="rgb(62, 59, 56)" stop-opacity="1.0"/>
      <stop offset="1.0" stop-color="rgb(40, 34, 78)" stop-opacity="0.6210033297538757"/>
    </radialGradient>
    <radialGradient id="shape_43_fill" cx="0.35485986998243924" cy="0.5019804266001612" r="0.06979454448032096">
      <stop offset="0.2466934" stop-color="rgb(118, 155, 50)" stop-opacity="0.9107123017311096"/>
      <stop offset="0.5945373" stop-color="rgb(202, 255, 24)" stop-opacity="0.7822235226631165"/>
    </radialGradient>
    <radialGradient id="shape_44_fill" cx="0.5934718100890207" cy="0.9977578475336323" r="0.06617211022079875">
      <stop offset="0.0" stop-color="rgb(89, 61, 18)" stop-opacity="1.0"/>
      <stop offset="1.0" stop-color="rgb(162, 81, 3)" stop-opacity="0.7237751483917236"/>
    </radialGradient>
    <radialGradient id="shape_45_fill" cx="0.612759643916914" cy="0.04035874439461883" r="0.06617211022079875">
      <stop offset="0.0" stop-color="rgb(157, 136, 123)" stop-opacity="1.0"/>
      <stop offset="1.0" stop-color="rgb(255, 221, 203)" stop-opacity="1.0"/>
    </radialGradient>
    <radialGradient id="shape_46_fill" cx="0.28635014836795253" cy="0.9977578475336323" r="0.06617211022079875">
      <stop offset="0.0" stop-color="rgb(82, 99, 55)" stop-opacity="1.0"/>
      <stop offset="1.0" stop-color="rgb(90, 101, 26)" stop-opacity="0.5761892795562744"/>
    </radialGradient>
    <radialGradient id="shape_47_fill" cx="0.28635014836795253" cy="0.8183856502242153" r="0.06617211022079875">
      <stop offset="0.0" stop-color="rgb(166, 189, 197)" stop-opacity="1.0"/>
      <stop offset="1.0" stop-color="rgb(247, 255, 255)" stop-opacity="0.44217997789382935"/>
    </radialGradient>
    <radialGradient id="shape_48_fill" cx="0.40801186943620177" cy="0.9977578475336323" r="0.06617211022079875">
      <stop offset="0.0" stop-color="rgb(107, 135, 68)" stop-opacity="1.0"/>
      <stop offset="1.0" stop-color="rgb(127, 141, 55)" stop-opacity="1.0"/>
    </radialGradient>
    <radialGradient id="shape_49_fill" cx="0.19287833827893175" cy="0.3991031390134529" r="0.06617211022079875">
      <stop offset="0.0" stop-color="rgb(92, 100, 54)" stop-opacity="1.0"/>
      <stop offset="1.0" stop-color="rgb(58, 34, 0)" stop-opacity="0.5182590484619141"/>
    </radialGradient>
    <radialGradient id="shape_50_fill" cx="0.6439169139465876" cy="0.7376681614349776" r="0.06617211022079875">
      <stop offset="0.0" stop-color="rgb(65, 56, 25)" stop-opacity="1.0"/>
      <stop offset="1.0" stop-color="rgb(148, 183, 98)" stop-opacity="0.4117496907711029"/>
    </radialGradient>
    <radialGradient id="shape_51_fill" cx="0.5845697329376854" cy="0.6322869955156951" r="0.06617211022079875">
      <stop offset="0.0" stop-color="rgb(75, 68, 60)" stop-opacity="1.0"/>
      <stop offset="1.0" stop-color="rgb(153, 117, 93)" stop-opacity="0.5972758531570435"/>
    </radialGradient>
    <radialGradient id="shape_52_fill" cx="0.2997032640949555" cy="0.6031390134529148" r="0.06617211022079875">
      <stop offset="0.0" stop-color="rgb(107, 158, 118)" stop-opacity="1.0"/>
      <stop offset="1.0" stop-color="rgb(176, 255, 229)" stop-opacity="0.5408532023429871"/>
    </radialGradient>
    <radialGradient id="shape_53_fill" cx="0.6097922848664689" cy="0.45067264573991034" r="0.06617211022079875">
      <stop offset="0.0" stop-color="rgb(38, 39, 27)" stop-opacity="1.0"/>
      <stop offset="1.0" stop-color="rgb(20, 14, 57)" stop-opacity="0.35106220841407776"/>
    </radialGradient>
    <radialGradient id="shape_54_fill" cx="0.6335311572700296" cy="0.426009002822397" r="0.06617211022079875">
      <stop offset="0.0" stop-color="rgb(67, 49, 20)" stop-opacity="1.0"/>
      <stop offset="1.0" stop-color="rgb(148, 83, 26)" stop-opacity="0.5759992599487305"/>
    </radialGradient>
    <radialGradient id="shape_55_fill" cx="0.3707168533823257" cy="0.5988430827187851" r="0.066001377049115">
      <stop offset="0.43605936" stop-color="rgb(237, 255, 46)" stop-opacity="0.844862699508667"/>
      <stop offset="0.16089156" stop-color="rgb(210, 255, 0)" stop-opacity="0.7145451903343201"/>
    </radialGradient>
    <radialGradient id="shape_56_fill" cx="0.5489614243323442" cy="0.600896860986547" r="0.06617211022079875">
      <stop offset="0.0" stop-color="rgb(50, 62, 80)" stop-opacity="1.0"/>
      <stop offset="1.0" stop-color="rgb(25, 79, 250)" stop-opacity="0.4109326899051666"/>
    </radialGradient>
    <radialGradient id="shape_57_fill" cx="0.4094955489614243" cy="0.9035874439461884" r="0.06617211022079875">
      <stop offset="0.0" stop-color="rgb(111, 144, 47)" stop-opacity="1.0"/>
      <stop offset="1.0" stop-color="rgb(207, 255, 53)" stop-opacity="0.7924951910972595"/>
    </radialGradient>
    <radialGradient id="shape_58_fill" cx="0.5281899109792285" cy="0.9977578475336323" r="0.06617211022079875">
      <stop offset="0.0" stop-color="rgb(50, 43, 14)" stop-opacity="1.0"/>
      <stop offset="1.0" stop-color="rgb(79, 57, 11)" stop-opacity="1.0"/>
    </radialGradient>
    <radialGradient id="shape_59_fill" cx="0.5845697329376854" cy="0.7690582959641256" r="0.06617211022079875">
      <stop offset="0.0" stop-color="rgb(61, 63, 58)" stop-opacity="1.0"/>
      <stop offset="1.0" stop-color="rgb(78, 74, 93)" stop-opacity="0.7088455557823181"/>
    </radialGradient>
    <radialGradient id="shape_60_fill" cx="0.5489614243323442" cy="0.9977578475336323" r="0.06617211022079875">
      <stop offset="0.0" stop-color="rgb(140, 131, 64)" stop-opacity="1.0"/>
      <stop offset="1.0" stop-color="rgb(233, 204, 90)" stop-opacity="0.9034191966056824"/>
    </radialGradient>
    <radialGradient id="shape_61_fill" cx="0.6469716601272719" cy="0.96866973740103" r="0.06610439651443979">
      <stop offset="0.4630873" stop-color="rgb(255, 210, 65)" stop-opacity="1.0"/>
      <stop offset="0.21288052" stop-color="rgb(204, 132, 37)" stop-opacity="0.6572222709655762"/>
    </radialGradient>
    <radialGradient id="shape_62_fill" cx="0.615727002967359" cy="0.3991031390134529" r="0.06617211022079875">
      <stop offset="0.0" stop-color="rgb(55, 47, 13)" stop-opacity="1.0"/>
      <stop offset="1.0" stop-color="rgb(76, 52, 2)" stop-opacity="0.9876224994659424"/>
    </radialGradient>
    <radialGradient id="shape_63_fill" cx="0.6261127596439169" cy="0.7286995515695067" r="0.06617211022079875">
      <stop offset="0.0" stop-color="rgb(79, 66, 32)" stop-opacity="1.0"/>
      <stop offset="1.0" stop-color="rgb(192, 199, 102)" stop-opacity="0.5650597810745239"/>
    </radialGradient>
    <radialGradient id="shape_64_fill" cx="0.40801186943620177" cy="0.12556053811659193" r="0.06617211022079875">
      <stop offset="0.0" stop-color="rgb(76, 66, 59)" stop-opacity="1.0"/>
      <stop offset="1.0" stop-color="rgb(115, 86, 82)" stop-opacity="1.0"/>
    </radialGradient>
    <radialGradient id="shape_65_fill" cx="0.6528189910979229" cy="0.6883408071748879" r="0.06617211022079875">
      <stop offset="0.0" stop-color="rgb(121, 97, 39)" stop-opacity="1.0"/>
      <stop offset="1.0" stop-color="rgb(255, 231, 96)" stop-opacity="1.0"/>
    </radialGradient>
    <radialGradient id="shape_66_fill" cx="0.6526989583091849" cy="0.45915622454587657" r="0.07044191105783162">
      <stop offset="0.23776288" stop-color="rgb(168, 202, 117)" stop-opacity="0.28699514269828796"/>
      <stop offset="0.9243862" stop-color="rgb(0, 2, 0)" stop-opacity="0.05027027055621147"/>
    </radialGradient>
    <radialGradient id="shape_67_fill" cx="0.5966283419011962" cy="0.9950342563235707" r="0.0700516403605747">
      <stop offset="0.8413377" stop-color="rgb(53, 30, 0)" stop-opacity="0.6935623288154602"/>
      <stop offset="1.0" stop-color="rgb(0, 5, 0)" stop-opacity="0.1506934016942978"/>
    </radialGradient>
    <radialGradient id="shape_68_fill" cx="0.49090490143093934" cy="0.9970564222121987" r="0.06821502210124664">
      <stop offset="0.37241352" stop-color="rgb(47, 18, 0)" stop-opacity="0.5306146740913391"/>
      <stop offset="1.0" stop-color="rgb(34, 63, 54)" stop-opacity="0.20569565892219543"/>
    </radialGradient>
  </defs>
  <g>
    <path d="M -0.20923073589801788 271.3110046386719 C 24.24781608581543 262.6202087402344 40.12248992919922 264.5579528808594 46.006038665771484 272.0007629394531 C 48.154029846191406 273.7849426269531 49.35588836669922 276.2113037109375 57.09947204589844 274.46826171875 C 59.443668365478516 273.75604248046875 63.19868087768555 274.2300109863281 63.66963195800781 270.4044189453125 C 68.76191711425781 268.6207275390625 99.75482940673828 270.12158203125 116.70704650878906 270.4620056152344 C 120.04511260986328 271.24945068359375 124.62911224365234 278.3529968261719 126.85292053222656 282.34527587890625 C 133.11349487304688 282.69891357421875 144.22837829589844 281.16162109375 164.97573852539062 289.0869445800781 C 185.29690551757812 282.79693603515625 185.8611297607422 282.13861083984375 206.7291259765625 287.29998779296875 C 200.3124542236328 287.34027099609375 198.3075714111328 281.3904113769531 210.90777587890625 268.9175109863281 C 248.186767578125 267.75726318359375 291.6974792480469 265.9347839355469 313.3043212890625 273.2584228515625 C 349.26690673828125 274.77850341796875 426.2508544921875 275.47979736328125 473.577392578125 268.24896240234375 C 503.46148681640625 264.1443176269531 547.283935546875 264.7612609863281 547.1143798828125 275.75531005859375 C 548.084228515625 274.853271484375 547.8683471679688 266.5853576660156 576.7999877929688 265.0279235839844 C 592.0038452148438 269.7774658203125 612.2268676757812 281.1363525390625 612.5972900390625 281.04168701171875 C 617.9498901367188 267.0079650878906 627.38671875 266.1594543457031 673.4727172851562 265.8890380859375 C 676.7222900390625 272.3067626953125 679.3668823242188 278.8282165527344 678.4677124023438 284.9035339355469 C 676.6187744140625 339.52630615234375 674.7139892578125 391.4906005859375 675.1177368164062 446.4668273925781 C 451.9151306152344 446.6697692871094 228.9889373779297 446.8115539550781 -0.4544539749622345 446.4240417480469 C -0.4847073554992676 389.142822265625 -0.3359271287918091 332.3433532714844 -0.20923073589801788 271.3110046386719" stroke-width="0.0" fill="url(#shape_0_fill)"/>
    <path d="M -0.21913371980190277 271.2090148925781 C 35.933692932128906 275.3940124511719 36.5576057434082 274.5862121582031 44.17551040649414 273.8341979980469 C 46.513824462890625 266.77740478515625 59.24002456665039 266.3249206542969 78.78545379638672 267.75152587890625 C 113.59303283691406 278.68035888671875 114.0499267578125 279.3109130859375 127.82135009765625 279.16326904296875 C 127.80451202392578 270.81317138671875 138.15011596679688 269.37457275390625 145.04344177246094 269.7115783691406 C 185.2454071044922 268.4100646972656 185.9684600830078 269.1764221191406 203.65052795410156 273.3037109375 C 203.0569305419922 292.0959167480469 204.03102111816406 292.36566162109375 209.47091674804688 298.6202697753906 C 213.5244140625 297.8800048828125 266.3794250488281 299.5141906738281 288.6264953613281 301.2955627441406 C 313.4219665527344 305.2239685058594 445.902099609375 303.37451171875 460.8718566894531 304.1950378417969 C 478.9189453125 294.09161376953125 491.14471435546875 291.9087829589844 504.1385498046875 287.0956115722656 C 512.7733764648438 288.7021484375 520.9039916992188 286.6494140625 523.00830078125 286.53656005859375 C 527.4457397460938 285.7235412597656 531.771728515625 285.958740234375 534.720947265625 287.1669616699219 C 540.686767578125 287.1044616699219 541.9097290039062 288.43707275390625 550.5446166992188 304.9669494628906 C 579.401123046875 290.48797607421875 581.5811157226562 290.9765319824219 598.6165161132812 296.1908874511719 C 616.1717529296875 289.2361145019531 626.40478515625 288.1286315917969 634.0992431640625 288.53253173828125 C 641.845703125 276.9646301269531 654.7296752929688 280.9800720214844 673.7673950195312 292.41259765625 C 674.21875 340.2210388183594 674.4891357421875 392.13409423828125 674.1581420898438 446.2807922363281 C 451.4774169921875 446.3905334472656 229.19664001464844 446.25439453125 -0.3076581060886383 446.2476501464844 C -0.21370436251163483 389.403564453125 -0.3026270270347595 333.0155334472656 -0.21913371980190277 271.2090148925781" stroke-width="0.0" fill="url(#shape_1_fill)"/>
    <path d="M -0.019932541996240616 -0.25989267230033875 C 219.69313049316406 0.1040392518043518 439.478759765625 -0.45242562890052795 672.95947265625 -0.142375186085701 C 666.0701293945312 10.99946117401123 644.7322998046875 35.14387893676758 637.6268920898438 48.93678665161133 C 634.6431274414062 53.2287483215332 611.0287475585938 92.35240173339844 584.0704345703125 83.80912017822266 C 577.7311401367188 81.55326843261719 561.7197875976562 71.47530364990234 532.5745239257812 73.7344741821289 C 532.0489501953125 78.3628921508789 525.891845703125 79.3111343383789 522.2102661132812 72.01846313476562 C 522.666748046875 68.8714599609375 499.34588623046875 63.90900421142578 499.2428894042969 62.64973068237305 C 493.0988464355469 62.17801284790039 485.88592529296875 60.9979133605957 484.4028015136719 68.81543731689453 C 475.240234375 72.83831787109375 476.136962890625 75.9101333618164 476.86212158203125 82.60938262939453 C 484.8605651855469 99.94481658935547 479.0073547363281 118.66877746582031 476.56304931640625 121.59268188476562 C 460.4324645996094 117.2489013671875 459.1741027832031 113.8953857421875 449.98431396484375 108.3139419555664 C 435.1761169433594 107.8671875 411.7279968261719 102.20349884033203 410.00714111328125 105.13529968261719 C 414.12664794921875 120.00702667236328 418.3280334472656 126.96126556396484 414.24884033203125 139.4357147216797 C 410.2201232910156 152.1736602783203 395.1986999511719 151.88046264648438 394.5771179199219 136.37013244628906 C 381.314453125 141.2173309326172 377.6048278808594 158.3186492919922 369.0915222167969 157.55648803710938 C 366.35162353515625 156.548095703125 363.48956298828125 158.6489715576172 357.11871337890625 162.07821655273438 C 352.2634582519531 165.91436767578125 349.2013244628906 166.534912109375 349.633544921875 172.1707763671875 C 345.3236999511719 178.99993896484375 338.6390686035156 174.84103393554688 345.01397705078125 164.0775909423828 C 298.06048583984375 161.32489013671875 296.9066162109375 168.0019989013672 294.85870361328125 177.09217834472656 C 305.81884765625 184.89817810058594 303.7561950683594 189.90306091308594 307.4817199707031 201.47842407226562 C 307.47412109375 200.6703338623047 306.2380676269531 198.12879943847656 304.3867492675781 189.82359313964844 C 304.62481689453125 185.69606018066406 303.496337890625 184.9532012939453 290.9371337890625 173.16561889648438 C 289.70318603515625 194.55731201171875 289.0835876464844 195.96983337402344 289.3311462402344 196.29409790039062 C 289.39288330078125 189.9362335205078 291.1777038574219 182.0098419189453 290.37384033203125 172.53726196289062 C 271.81109619140625 175.04049682617188 268.35589599609375 180.60064697265625 260.9190368652344 176.1879425048828 C 256.2594909667969 183.17880249023438 255.78330993652344 188.9210662841797 254.60543823242188 197.224609375 C 260.6613464355469 199.28443908691406 260.580322265625 199.94796752929688 257.8462829589844 199.664306640625 C 257.1507873535156 198.4881134033203 253.70375061035156 196.0938262939453 255.1487274169922 194.01235961914062 C 255.43814086914062 182.97854614257812 261.37548828125 182.16221618652344 259.6540832519531 165.39556884765625 C 260.29779052734375 161.10203552246094 216.16934204101562 142.41493225097656 213.19679260253906 141.07650756835938 C 186.5693817138672 132.83633422851562 195.25894165039062 104.83402252197266 191.38323974609375 86.42375946044922 C 191.5966339111328 84.9908676147461 161.79934692382812 73.7583236694336 130.07861328125 58.55952072143555 C 105.92620086669922 39.10309600830078 74.14594268798828 57.66305160522461 43.15319061279297 59.26853942871094 C 27.38373565673828 69.72233581542969 2.6440329551696777 70.15811157226562 -0.9828654527664185 69.43164825439453 C 0.34183040261268616 43.958133697509766 -0.3314551115036011 22.56187629699707 -0.019932541996240616 -0.25989267230033875" stroke-width="0.0" fill="url(#shape_2_fill)"/>
    <path d="M 87.1206283569336 58.252201080322266 C 89.18130493164062 68.81324005126953 91.47669219970703 69.08257293701172 93.71145629882812 71.50907135009766 C 90.84454345703125 79.96867370605469 91.75484466552734 81.67086791992188 89.36591339111328 93.62464141845703 C 96.22418212890625 86.08352661132812 98.3182144165039 86.41300964355469 102.86018371582031 87.93637084960938 C 104.92769622802734 75.25382995605469 105.82376098632812 73.34088897705078 108.37397766113281 73.3487319946289 C 112.10930633544922 87.49739837646484 110.70404815673828 92.10823822021484 117.02802276611328 99.1517333984375 C 116.31854248046875 100.05301666259766 116.37327575683594 109.36741638183594 115.57119750976562 115.32921600341797 C 122.70297241210938 115.3813705444336 128.41136169433594 115.92414855957031 129.54547119140625 111.86650085449219 C 130.8540802001953 110.38326263427734 136.89146423339844 109.43778228759766 136.6119842529297 104.83482360839844 C 136.65428161621094 103.67861938476562 135.5681610107422 101.8369140625 137.51901245117188 98.85111236572266 C 136.50680541992188 93.27656555175781 137.5436248779297 92.9097671508789 137.56011962890625 89.48126220703125 C 137.33798217773438 85.2076644897461 138.5901336669922 84.87995910644531 139.93988037109375 87.6978988647461 C 140.42800903320312 83.25144958496094 146.769287109375 80.67713928222656 148.2377166748047 82.6633071899414 C 148.46661376953125 93.25296020507812 149.95059204101562 94.55314636230469 152.353759765625 99.210205078125 C 153.7101593017578 102.87677764892578 149.9188690185547 106.909912109375 148.86114501953125 106.74707794189453 C 152.5160369873047 109.70187377929688 150.32603454589844 114.05309295654297 148.38211059570312 113.33799743652344 C 154.40306091308594 112.84503173828125 158.02651977539062 122.58487701416016 157.14430236816406 123.32103729248047 C 161.2313232421875 124.99398803710938 164.89410400390625 123.45491790771484 169.65786743164062 122.73236083984375 C 174.39305114746094 119.73198699951172 175.7855987548828 121.51277160644531 177.69631958007812 122.4928207397461 C 179.34149169921875 122.68924713134766 180.0572052001953 125.07266235351562 183.4699249267578 127.48074340820312 C 183.90646362304688 130.1411895751953 182.5712432861328 132.99111938476562 184.7095184326172 134.9171142578125 C 187.47242736816406 135.56549072265625 188.4420928955078 140.79586791992188 188.3555450439453 144.6117706298828 C 196.27163696289062 148.13876342773438 208.74728393554688 152.90261840820312 201.61695861816406 172.61688232421875 C 205.32102966308594 177.15501403808594 206.53379821777344 178.66171264648438 205.16856384277344 181.47531127929688 C 214.6755828857422 181.3458709716797 215.49241638183594 193.6300506591797 212.26719665527344 201.56539916992188 C 204.71580505371094 206.2471923828125 203.09588623046875 206.58091735839844 203.1990203857422 210.2763671875 C 200.6727752685547 210.50074768066406 200.0330352783203 211.71971130371094 199.935791015625 213.34857177734375 C 196.11865234375 215.2017059326172 193.19956970214844 215.25115966796875 192.1361541748047 219.64755249023438 C 184.28799438476562 220.80015563964844 183.60574340820312 224.7431640625 178.3197784423828 230.0726776123047 C 176.40261840820312 233.51429748535156 180.96347045898438 238.6841583251953 181.03404235839844 239.6173095703125 C 182.09423828125 251.9247589111328 185.8592529296875 260.93023681640625 178.96511840820312 264.6936950683594 C 173.26052856445312 268.4470520019531 148.86778259277344 268.2792053222656 135.97213745117188 269.62200927734375 C 131.28514099121094 268.877197265625 129.07827758789062 272.2900390625 122.51197052001953 275.5789489746094 C 109.16764068603516 276.8215026855469 73.31295013427734 275.9795837402344 72.99369049072266 270.0857238769531 C 47.71227264404297 266.78375244140625 56.5645751953125 268.5767822265625 57.76982879638672 273.5809631347656 C 48.60232925415039 276.4422912597656 1.05582857131958 272.67376708984375 0.8113008737564087 270.1969909667969 C -6.009857177734375 224.85501098632812 -5.411413669586182 166.83348083496094 2.1801187992095947 122.27513122558594 C 10.992225646972656 118.0860824584961 21.480592727661133 113.85176849365234 26.137271881103516 121.8134994506836 C 27.189138412475586 129.83766174316406 35.63484573364258 129.15834045410156 42.10771942138672 131.8867645263672 C 46.31343078613281 130.22865295410156 47.973480224609375 131.1331787109375 49.449859619140625 142.26715087890625 C 50.357810974121094 149.02001953125 61.32769012451172 148.7172393798828 62.76713180541992 146.16781616210938 C 62.19721221923828 136.8844757080078 63.1106071472168 134.0316925048828 62.090641021728516 128.29286193847656 C 68.23384857177734 126.66165161132812 67.69144439697266 123.92662811279297 66.34674072265625 112.53429412841797 C 67.8652114868164 111.0860595703125 68.36537170410156 106.1988296508789 76.02151489257812 102.6268081665039 C 73.88213348388672 101.04853820800781 78.02120971679688 91.33028411865234 77.33749389648438 85.76834869384766 C 77.25772857666016 83.53314208984375 77.62742614746094 75.07371520996094 85.2710189819336 75.37648010253906 C 83.10269165039062 70.19745635986328 82.80277252197266 67.53548431396484 87.1206283569336 58.252201080322266" stroke-width="0.0" fill="url(#shape_3_fill)"/>
    <path d="M 674.0885009765625 -0.6336591243743896 C 676.1160888671875 47.826377868652344 675.0172119140625 95.90823364257812 680.5021362304688 138.46026611328125 C 679.108154296875 122.22325897216797 670.84033203125 121.29776763916016 661.6788940429688 119.82597351074219 C 660.8009033203125 120.15818786621094 655.0171508789062 109.41852569580078 649.968017578125 110.92695617675781 C 648.94189453125 112.5435562133789 645.2490844726562 149.64694213867188 642.9602661132812 155.55517578125 C 629.947509765625 154.60403442382812 626.88818359375 142.8636016845703 627.053955078125 138.49537658691406 C 623.0398559570312 137.45370483398438 619.0 145.3621368408203 615.4232177734375 144.1572723388672 C 611.6814575195312 142.31341552734375 610.1607055664062 143.32958984375 607.7918090820312 141.0449981689453 C 608.9147338867188 137.5154266357422 612.883544921875 132.9483642578125 606.4515380859375 119.07703399658203 C 598.5392456054688 134.3751678466797 597.5770263671875 139.3971710205078 594.059814453125 142.34608459472656 C 599.1392211914062 145.7791748046875 598.1879272460938 151.39752197265625 597.3403930664062 152.286376953125 C 588.4966430664062 157.5417938232422 588.152587890625 164.59275817871094 578.2899169921875 172.3330535888672 C 572.2147827148438 170.18295288085938 569.9297485351562 157.75718688964844 568.4961547851562 157.10720825195312 C 565.5480346679688 157.90858459472656 563.227783203125 153.95840454101562 561.8106079101562 149.5670166015625 C 560.1287231445312 151.20623779296875 556.5918579101562 151.09930419921875 555.1054077148438 155.71446228027344 C 551.87353515625 156.0437469482422 550.33984375 158.68978881835938 548.8189697265625 158.3116455078125 C 548.0070190429688 156.1138458251953 544.71240234375 155.6896209716797 536.1588134765625 153.48422241210938 C 531.7860107421875 154.91110229492188 529.9713134765625 158.9738006591797 523.1145629882812 156.87857055664062 C 519.2720947265625 160.51504516601562 520.3106689453125 162.1558380126953 522.9617919921875 169.09022521972656 C 517.6227416992188 168.49586486816406 517.2274169921875 170.9796142578125 516.2667846679688 171.6439208984375 C 511.2713623046875 173.32232666015625 509.8157043457031 175.26531982421875 505.642578125 174.399169921875 C 502.76007080078125 171.40660095214844 503.0436706542969 169.51332092285156 502.97869873046875 159.37966918945312 C 491.8214111328125 145.12539672851562 506.5767517089844 121.29463195800781 517.8731689453125 126.50736236572266 C 523.655517578125 125.19883728027344 540.5571899414062 109.98445129394531 548.8079223632812 112.9730453491211 C 557.2599487304688 110.72110748291016 556.9118041992188 109.3850326538086 558.58056640625 107.92903900146484 C 559.3159790039062 108.30552673339844 564.8925170898438 102.84877014160156 570.3111572265625 105.00174713134766 C 574.619873046875 102.44134521484375 573.4755859375 97.53336334228516 579.0101318359375 94.04678344726562 C 586.4727172851562 88.40164947509766 593.5062866210938 77.69772338867188 613.0198974609375 78.35438537597656 C 616.8995971679688 73.5930404663086 644.717041015625 51.056434631347656 645.7473754882812 35.468528747558594 C 644.959228515625 32.43359375 647.991943359375 30.388437271118164 647.5900268554688 29.513235092163086 C 646.9093017578125 28.282121658325195 664.1478881835938 -4.229869365692139 674.0885009765625 -0.6336591243743896" stroke-width="0.0" fill="url(#shape_4_fill)"/>
    <path d="M 151.53469848632812 68.5918197631836 C 152.29815673828125 69.12844848632812 186.36312866210938 84.89041900634766 192.88916015625 92.06854248046875 C 179.00674438476562 118.68978881835938 217.630126953125 150.1039581298828 220.88978576660156 154.88351440429688 C 238.88079833984375 170.02999877929688 241.97940063476562 184.16729736328125 240.81658935546875 193.86639404296875 C 238.08016967773438 193.2029571533203 236.1536865234375 186.5923309326172 236.77088928222656 184.06414794921875 C 235.6852264404297 183.54769897460938 234.15585327148438 184.30569458007812 231.06756591796875 182.6912078857422 C 231.88485717773438 183.80831909179688 231.95156860351562 193.83145141601562 228.63946533203125 195.6683807373047 C 227.60398864746094 196.63662719726562 227.33741760253906 205.37518310546875 221.27223205566406 207.6833038330078 C 215.09811401367188 206.58192443847656 214.32078552246094 197.7886505126953 214.65322875976562 194.88864135742188 C 212.95936584472656 185.43927001953125 211.8959197998047 184.94906616210938 206.51690673828125 177.43299865722656 C 205.78549194335938 172.96624755859375 206.1027069091797 166.8563995361328 204.1754913330078 159.19064331054688 C 206.12335205078125 153.4440155029297 194.86000061035156 144.66404724121094 193.43064880371094 141.16517639160156 C 189.13037109375 140.14187622070312 188.9306640625 137.0334014892578 186.31912231445312 135.7989044189453 C 178.1531982421875 133.48953247070312 178.90261840820312 127.1672134399414 183.386962890625 117.21321868896484 C 179.39002990722656 116.43402862548828 177.39669799804688 117.65206146240234 172.95046997070312 117.76927185058594 C 179.40159606933594 128.24899291992188 175.95880126953125 130.76287841796875 151.8585662841797 130.37440490722656 C 149.59629821777344 128.41668701171875 151.85792541503906 102.48844909667969 154.15093994140625 93.90596008300781 C 152.8040008544922 89.38085174560547 153.32598876953125 87.32859802246094 150.13851928710938 76.27490234375 C 148.06227111816406 75.90499114990234 148.34292602539062 69.25308227539062 151.53469848632812 68.5918197631836" stroke-width="0.0" fill="url(#shape_5_fill)"/>
    <path d="M 611.7379760742188 81.07450866699219 C 618.7991943359375 84.07318878173828 619.6765747070312 86.38348388671875 631.70751953125 85.6220703125 C 636.0582885742188 86.13803100585938 637.0482177734375 88.40392303466797 641.1705932617188 89.3497543334961 C 642.1669311523438 87.02703094482422 666.3864135742188 92.34613037109375 674.9027099609375 98.46980285644531 C 675.4066162109375 110.61929321289062 674.7958984375 125.90557861328125 675.102783203125 151.20635986328125 C 665.6695556640625 142.72018432617188 662.9176635742188 136.61114501953125 659.3533935546875 131.56044006347656 C 659.7772827148438 122.29773712158203 660.6847534179688 116.20349884033203 653.2159423828125 112.78936767578125 C 644.5089721679688 113.03150177001953 644.2113037109375 142.26141357421875 642.4821166992188 142.98956298828125 C 644.0025634765625 144.634765625 642.6236572265625 148.23190307617188 644.3446044921875 150.3090362548828 C 639.95849609375 150.77549743652344 637.9085083007812 152.77224731445312 635.0419311523438 153.5221405029297 C 631.5977783203125 146.19113159179688 629.1860961914062 141.3948516845703 630.0772094726562 140.5380096435547 C 628.8273315429688 137.5924072265625 621.9988403320312 136.794921875 620.93798828125 138.75865173339844 C 618.4234619140625 140.60755920410156 619.3048706054688 142.4188690185547 618.3467407226562 148.74310302734375 C 614.0128784179688 144.6895751953125 613.3885498046875 143.20364379882812 609.8300170898438 143.6958465576172 C 608.5032958984375 140.4076385498047 609.5609741210938 139.24227905273438 609.1033935546875 137.30789184570312 C 606.632568359375 132.17782592773438 604.8428344726562 126.9180908203125 599.3118286132812 128.13197326660156 C 606.0973510742188 133.28013610839844 595.0679931640625 147.8700408935547 592.0316162109375 154.888427734375 C 590.36328125 163.75669860839844 588.9337158203125 163.9508056640625 585.6729125976562 169.13211059570312 C 584.774169921875 167.54876708984375 583.9991455078125 166.15638732910156 589.419921875 154.39566040039062 C 590.140869140625 144.8961181640625 585.3965454101562 143.80735778808594 575.213623046875 140.7146453857422 C 571.77392578125 157.19650268554688 556.7587890625 155.6400909423828 555.9937744140625 151.3608856201172 C 555.8291015625 152.900146484375 553.0714721679688 154.70372009277344 552.94287109375 157.80706787109375 C 551.0086669921875 161.3112335205078 548.0403442382812 160.9350128173828 547.3668212890625 159.22984313964844 C 544.45751953125 156.5089874267578 542.7346801757812 154.00929260253906 537.7789306640625 156.95509338378906 C 535.1976318359375 158.47610473632812 531.1720581054688 157.61129760742188 529.4193725585938 158.32369995117188 C 526.38427734375 159.49295043945312 526.6029663085938 163.04727172851562 525.6815185546875 166.50531005859375 C 524.5861206054688 169.4894256591797 523.5888061523438 171.583251953125 519.0338134765625 173.08642578125 C 509.40283203125 178.25929260253906 496.1143798828125 179.9219970703125 486.1402893066406 159.27638244628906 C 481.4056091308594 136.7141876220703 500.42706298828125 118.17257690429688 513.5579223632812 118.31751251220703 C 529.0631103515625 127.61946868896484 540.9856567382812 107.91441345214844 549.0372314453125 111.752197265625 C 555.7083740234375 110.17121887207031 560.9088134765625 109.98092651367188 564.0602416992188 106.84823608398438 C 564.6305541992188 104.48212432861328 566.5022583007812 103.5582275390625 569.7848510742188 104.5823745727539 C 573.661376953125 101.10076141357422 578.7518920898438 98.45909118652344 587.0907592773438 99.06076049804688 C 600.525634765625 93.39600372314453 603.50732421875 80.01608276367188 611.7379760742188 81.07450866699219" stroke-width="0.0" fill="url(#shape_6_fill)"/>
    <path d="M 0.7625285983085632 98.83939361572266 C 39.61703109741211 109.79044342041016 45.98972702026367 119.96932220458984 50.57310485839844 139.12603759765625 C 81.1971435546875 153.96087646484375 52.54814147949219 213.5320587158203 41.646324157714844 245.8439483642578 C 50.884151458740234 260.1723937988281 48.476219177246094 264.60687255859375 48.744850158691406 265.1288757324219 C 49.136268615722656 258.60858154296875 26.27864646911621 253.5178680419922 14.800079345703125 248.76095581054688 C 5.063848972320557 205.0479278564453 -8.228048324584961 170.6129150390625 0.7625285983085632 98.83939361572266" stroke-width="0.0" fill="url(#shape_7_fill)"/>
    <path d="M 384.5500183105469 197.34652709960938 C 424.501220703125 186.32411193847656 426.8603515625 190.7080078125 429.9321594238281 204.12989807128906 C 475.3321838378906 189.13331604003906 496.9005432128906 203.91256713867188 491.698486328125 231.21762084960938 C 491.0022888183594 250.49375915527344 486.2558288574219 251.50413513183594 484.8582763671875 252.4142303466797 C 485.9453430175781 259.0931396484375 482.6243896484375 268.9388122558594 477.1389465332031 268.9445495605469 C 469.04290771484375 272.9302978515625 453.2210388183594 266.7112731933594 451.6365051269531 269.7130432128906 C 447.090087890625 266.2843017578125 448.3045959472656 261.22235107421875 449.0927429199219 260.1565856933594 C 439.2552795410156 264.7890625 436.5178527832031 261.4337158203125 437.439208984375 256.7662353515625 C 427.00653076171875 256.5469970703125 425.6879577636719 258.9643859863281 421.1241455078125 262.0629577636719 C 418.5456237792969 264.2442626953125 417.7005920410156 267.72869873046875 414.940673828125 273.6123046875 C 414.1092529296875 272.5242919921875 392.41461181640625 268.84869384765625 392.54010009765625 264.2038879394531 C 391.8197021484375 265.1308898925781 388.9218444824219 263.3791198730469 385.7409362792969 263.8966979980469 C 382.1070861816406 261.9750671386719 380.8143005371094 263.20648193359375 376.4501037597656 261.1304931640625 C 374.8298034667969 256.35772705078125 376.0086669921875 252.5746307373047 371.5061950683594 250.20359802246094 C 359.5382080078125 243.4506072998047 374.2541809082031 195.54571533203125 378.5151062011719 177.21885681152344 C 384.8497314453125 170.98924255371094 394.10174560546875 176.5426788330078 384.5500183105469 197.34652709960938" stroke-width="0.0" fill="url(#shape_8_fill)"/>
    <path d="M 566.3714599609375 157.2317657470703 C 568.1355590820312 158.90597534179688 568.1412963867188 166.62057495117188 569.3988037109375 168.01019287109375 C 573.505859375 169.47476196289062 573.6409301757812 171.01182556152344 577.455322265625 174.46263122558594 C 581.9307250976562 172.94601440429688 583.9710693359375 174.56983947753906 583.7056274414062 179.472412109375 C 575.3663330078125 180.47653198242188 572.154541015625 225.615234375 577.376220703125 226.96453857421875 C 577.8699951171875 229.97349548339844 581.2906494140625 235.68870544433594 577.15185546875 241.29750061035156 C 568.821533203125 238.3794708251953 566.6904296875 237.1427001953125 559.0508422851562 247.41458129882812 C 553.641357421875 249.84486389160156 497.3207702636719 254.78927612304688 486.8769226074219 251.25462341308594 C 486.1752624511719 250.25967407226562 487.31890869140625 239.8057403564453 495.9418029785156 231.24188232421875 C 486.384033203125 226.33056640625 483.16595458984375 222.32333374023438 482.0420837402344 215.51785278320312 C 476.89483642578125 209.92640686035156 479.47222900390625 205.87075805664062 482.80474853515625 205.9903564453125 C 480.1527099609375 205.34567260742188 481.6048889160156 199.11126708984375 489.7618713378906 199.07069396972656 C 492.0498046875 196.280517578125 491.80908203125 192.5133056640625 492.68798828125 187.98300170898438 C 489.0551452636719 174.23731994628906 489.29522705078125 173.2986297607422 487.8044738769531 164.3434600830078 C 504.1675720214844 164.27903747558594 505.7212219238281 164.6200408935547 515.4050903320312 163.55239868164062 C 522.76611328125 169.18173217773438 524.9479370117188 167.24490356445312 526.15869140625 167.70582580566406 C 523.2012939453125 161.7072296142578 532.0108032226562 156.64617919921875 533.2353515625 158.7513427734375 C 537.5879516601562 161.88291931152344 541.3628540039062 162.48745727539062 542.136474609375 164.0087432861328 C 545.19287109375 164.0933837890625 545.78515625 165.89425659179688 549.8642578125 166.78590393066406 C 548.9508666992188 165.60397338867188 550.6180419921875 157.85275268554688 554.806884765625 157.80227661132812 C 557.9500122070312 161.01040649414062 563.0693359375 157.9219207763672 566.3714599609375 157.2317657470703" stroke-width="0.0" fill="url(#shape_9_fill)"/>
    <path d="M 561.2975463867188 156.67665100097656 C 565.8200073242188 153.03868103027344 571.32568359375 157.70834350585938 570.6211547851562 171.48001098632812 C 572.3209228515625 169.1560516357422 576.2940063476562 169.1781768798828 579.5687255859375 174.4573211669922 C 580.5531005859375 178.11814880371094 578.9318237304688 187.37771606445312 578.2677612304688 191.22677612304688 C 571.3225708007812 196.49436950683594 572.0238037109375 229.97023010253906 578.0962524414062 230.9761962890625 C 576.0723266601562 231.16017150878906 575.6106567382812 236.8435516357422 572.0697631835938 238.01100158691406 C 560.2816162109375 235.85684204101562 567.2451782226562 238.6649932861328 563.7522583007812 247.58509826660156 C 547.3239135742188 253.35751342773438 501.2888488769531 249.2538604736328 500.1914367675781 251.7449493408203 C 491.0926513671875 251.82618713378906 487.9029235839844 237.03733825683594 493.83929443359375 230.60568237304688 C 486.62371826171875 224.9219512939453 481.9818420410156 219.2764892578125 481.7175598144531 215.0550079345703 C 475.8318176269531 215.2538604736328 473.34503173828125 214.802734375 464.6177978515625 196.5985565185547 C 464.0632629394531 182.3768768310547 477.879150390625 178.2578125 482.95819091796875 195.4183807373047 C 489.7518310546875 197.60667419433594 494.5838928222656 184.43190002441406 496.6237487792969 182.95404052734375 C 495.3030090332031 178.86094665527344 497.5860900878906 177.68243408203125 500.1687927246094 177.45010375976562 C 507.9399108886719 179.09765625 516.5718383789062 181.69882202148438 520.799072265625 174.10400390625 C 524.1907958984375 173.4077911376953 527.2655639648438 159.36851501464844 531.123779296875 155.05128479003906 C 538.377685546875 155.83396911621094 538.6536865234375 158.50753784179688 538.742431640625 166.10382080078125 C 545.760986328125 165.96961975097656 549.0601806640625 167.43882751464844 551.4012451171875 166.44219970703125 C 551.0201416015625 155.81764221191406 552.9968872070312 153.06787109375 561.2975463867188 156.67665100097656" stroke-width="0.0" fill="url(#shape_10_fill)"/>
    <path d="M 445.94256591796875 108.49640655517578 C 452.7881164550781 112.99829864501953 453.6529235839844 113.99952697753906 462.67742919921875 110.17327880859375 C 465.37945556640625 115.93975067138672 469.1589050292969 114.54136657714844 483.8740539550781 109.64839172363281 C 489.11029052734375 124.4435806274414 488.682373046875 125.26383209228516 491.7731018066406 130.7751922607422 C 493.55462646484375 132.13531494140625 493.55364990234375 135.16842651367188 496.9073486328125 136.3622283935547 C 494.009521484375 135.59259033203125 492.8546142578125 138.31143188476562 489.58245849609375 141.37730407714844 C 483.2690124511719 138.0025634765625 482.0451965332031 140.03445434570312 479.6114196777344 142.79298400878906 C 468.30511474609375 138.1234893798828 466.6515808105469 137.3502655029297 465.7017517089844 134.42393493652344 C 464.3423767089844 133.57041931152344 460.7126770019531 133.5782470703125 460.4833068847656 134.20803833007812 C 461.3288269042969 133.40289306640625 479.61328125 142.79356384277344 495.239013671875 151.74217224121094 C 476.66021728515625 176.931396484375 475.5427551269531 177.2996063232422 475.0793151855469 183.32093811035156 C 467.7716979980469 183.34768676757812 467.3470764160156 188.5430908203125 466.02020263671875 189.96408081054688 C 462.4991760253906 184.80760192871094 461.54345703125 172.5441436767578 460.4529113769531 164.96694946289062 C 448.3891906738281 180.57151794433594 447.4978942871094 182.4453125 439.88287353515625 183.08843994140625 C 439.3448181152344 183.8472137451172 435.7506103515625 195.6615447998047 434.8412780761719 197.53298950195312 C 429.21636962890625 200.327880859375 417.55377197265625 180.57228088378906 417.6958923339844 179.7660675048828 C 416.9346008300781 179.80886840820312 398.41033935546875 180.4545135498047 397.57574462890625 173.5605010986328 C 393.8615417480469 171.24111938476562 389.79266357421875 176.44448852539062 379.5099182128906 174.77513122558594 C 382.6131896972656 158.24598693847656 379.6949462890625 151.87840270996094 392.23968505859375 139.0352783203125 C 398.2093505859375 137.81251525878906 399.70721435546875 130.0447235107422 402.50946044921875 120.61747741699219 C 406.9915771484375 99.11868286132812 425.0094909667969 102.54710388183594 445.94256591796875 108.49640655517578" stroke-width="0.0" fill="url(#shape_11_fill)"/>
    <path d="M 602.8265991210938 127.77404022216797 C 605.9015502929688 129.75277709960938 605.4196166992188 143.37586975097656 607.0103759765625 145.18739318847656 C 611.0585327148438 145.69969177246094 611.5195922851562 149.60354614257812 616.0123901367188 153.1859130859375 C 618.08984375 149.8924102783203 618.033935546875 141.7900848388672 621.480224609375 141.17681884765625 C 622.9071044921875 137.3788604736328 625.4494018554688 137.30984497070312 627.3699340820312 140.3225860595703 C 627.3534545898438 142.17404174804688 628.9195556640625 144.7877655029297 628.9614868164062 147.1110382080078 C 632.0968017578125 149.77464294433594 631.7250366210938 151.2059326171875 636.2393798828125 153.7574005126953 C 642.2440185546875 154.5445556640625 642.0451049804688 160.23287963867188 647.9387817382812 171.19891357421875 C 639.33203125 185.34136962890625 640.1387329101562 194.97216796875 640.58447265625 206.49574279785156 C 653.8705444335938 211.39337158203125 654.9570922851562 235.8986358642578 642.6026611328125 245.4393768310547 C 622.7345581054688 248.1922607421875 611.7437133789062 249.08255004882812 579.2076416015625 264.8285217285156 C 571.234619140625 253.11288452148438 578.7333984375 230.85928344726562 574.3659057617188 216.0850067138672 C 568.0316772460938 209.08154296875 571.668212890625 168.88002014160156 583.2186889648438 169.76393127441406 C 597.20654296875 163.60089111328125 599.6015014648438 143.45640563964844 599.9679565429688 142.29649353027344 C 595.876220703125 139.74801635742188 596.4160766601562 136.92434692382812 602.8265991210938 127.77404022216797" stroke-width="0.0" fill="url(#shape_12_fill)"/>
    <path d="M 411.6534729003906 176.57508850097656 C 419.6847839355469 174.1513671875 433.7602844238281 213.34043884277344 428.7214660644531 219.8347625732422 C 419.9189147949219 228.1908721923828 427.443115234375 237.49180603027344 431.6151428222656 243.2512969970703 C 428.7637939453125 260.61383056640625 419.88897705078125 269.24267578125 414.38348388671875 268.2531433105469 C 406.3411560058594 265.0605773925781 402.22589111328125 271.927001953125 390.7778625488281 267.9577331542969 C 385.5563049316406 264.91949462890625 382.5295715332031 266.16424560546875 379.6443176269531 265.63702392578125 C 374.8682861328125 264.2926940917969 374.7764892578125 261.3139953613281 375.03765869140625 258.4502258300781 C 376.3341064453125 255.69320678710938 374.5159912109375 254.5925750732422 374.8875427246094 253.8004913330078 C 371.8010559082031 255.2088165283203 369.74676513671875 251.35482788085938 368.3643798828125 251.9426727294922 C 360.6404113769531 247.99374389648438 366.2204284667969 229.08685302734375 367.5533447265625 221.98875427246094 C 369.41839599609375 219.0199737548828 372.09521484375 202.7229766845703 381.74163818359375 203.19317626953125 C 378.7704772949219 193.9233856201172 379.697021484375 191.6543426513672 389.7554016113281 188.6194305419922 C 391.3828125 177.60507202148438 392.9101257324219 176.75088500976562 411.6534729003906 176.57508850097656" stroke-width="0.0" fill="url(#shape_13_fill)"/>
    <path d="M 508.15838623046875 67.048583984375 C 512.259033203125 66.00687408447266 519.7512817382812 71.010498046875 520.63134765625 77.6105728149414 C 530.9073486328125 79.38185119628906 534.6206665039062 79.95992279052734 537.2857666015625 87.88490295410156 C 539.378662109375 90.83793640136719 544.5424194335938 90.28223419189453 545.0235595703125 91.17200469970703 C 545.53662109375 92.74320983886719 556.1729736328125 96.83848571777344 559.253662109375 95.7464599609375 C 563.484619140625 97.58554077148438 567.3582153320312 97.48139953613281 568.7200317382812 98.56046295166016 C 564.1500244140625 105.48818969726562 557.5484619140625 115.66897583007812 541.1073608398438 110.72001647949219 C 541.3753662109375 111.83500671386719 539.3847045898438 114.9704360961914 534.7113037109375 118.4114761352539 C 527.733154296875 120.71167755126953 519.8056640625 124.53809356689453 515.6137084960938 118.64595031738281 C 511.78387451171875 120.9368667602539 501.5704040527344 125.66255950927734 499.81597900390625 126.07949829101562 C 497.72296142578125 128.90362548828125 493.99639892578125 128.66165161132812 489.5804443359375 127.15574645996094 C 489.49462890625 118.79107666015625 468.8392333984375 118.58192443847656 468.13861083984375 117.59147644042969 C 463.5335998535156 117.81021118164062 462.9294738769531 116.67601776123047 462.13031005859375 116.13542175292969 C 470.09942626953125 119.2979507446289 473.7753601074219 113.433349609375 477.5377502441406 108.55826568603516 C 474.52667236328125 93.90098571777344 473.22235107421875 85.5736312866211 474.7384033203125 81.87120819091797 C 474.59002685546875 70.93350982666016 475.3426513671875 70.38589477539062 477.91253662109375 66.28530883789062 C 478.6238708496094 63.87620162963867 482.4989013671875 63.852352142333984 484.1391906738281 63.11359405517578 C 495.7463073730469 63.99848937988281 502.77276611328125 61.12796401977539 508.15838623046875 67.048583984375" stroke-width="0.0" fill="url(#shape_14_fill)"/>
    <path d="M 533.9610595703125 160.95457458496094 C 543.9511108398438 162.5457000732422 544.2504272460938 163.37867736816406 546.682861328125 165.16162109375 C 549.7315063476562 167.52976989746094 549.5863647460938 170.21090698242188 543.973876953125 180.03652954101562 C 542.3958129882812 190.02386474609375 536.916748046875 231.3564910888672 536.57275390625 233.08282470703125 C 540.8486938476562 238.0371551513672 541.1202392578125 251.5944366455078 516.5551147460938 252.35655212402344 C 502.9254455566406 251.43966674804688 483.2437438964844 242.95033264160156 487.9683532714844 230.41102600097656 C 476.3796081542969 219.12017822265625 478.8751220703125 208.8735809326172 482.644287109375 201.33248901367188 C 486.42559814453125 197.4818115234375 487.98760986328125 197.45272827148438 488.93572998046875 198.94786071777344 C 482.920654296875 195.57569885253906 488.7189025878906 183.49920654296875 487.46575927734375 173.1046142578125 C 487.57958984375 167.43528747558594 488.98199462890625 166.1352081298828 491.13555908203125 167.08743286132812 C 505.5393981933594 178.9016571044922 511.19818115234375 184.18655395507812 522.7344970703125 172.72950744628906 C 525.5538940429688 170.96018981933594 525.5382080078125 167.3081512451172 526.72509765625 165.1177978515625 C 525.5321044921875 159.4130859375 528.737548828125 158.45281982421875 533.9610595703125 160.95457458496094" stroke-width="0.0" fill="url(#shape_15_fill)"/>
    <path d="M 651.5420532226562 109.69573211669922 C 653.9385375976562 110.51243591308594 664.18798828125 121.72915649414062 659.684814453125 133.10081481933594 C 664.0661010742188 136.20529174804688 664.5919799804688 143.1187744140625 673.3892211914062 148.06492614746094 C 676.5831909179688 179.36961364746094 673.5333251953125 211.50198364257812 676.1668701171875 266.9778137207031 C 675.0493774414062 265.371826171875 635.7734985351562 272.92071533203125 630.3267822265625 263.96197509765625 C 637.3359375 245.2158660888672 643.0684204101562 124.04081726074219 651.5420532226562 109.69573211669922" stroke-width="0.0" fill="url(#shape_16_fill)"/>
    <path d="M 601.3496704101562 129.4171600341797 C 603.5439453125 128.14999389648438 606.2227783203125 131.87042236328125 606.2368774414062 134.029541015625 C 608.7269897460938 135.0961456298828 607.0505981445312 141.5383758544922 609.1866455078125 143.6522216796875 C 628.5654296875 143.07373046875 630.8626708984375 217.2224884033203 633.4578857421875 268.039794921875 C 581.6253051757812 272.4227294921875 575.0618896484375 264.9035949707031 579.4398193359375 240.54598999023438 C 561.3563842773438 226.0265655517578 598.1178588867188 155.2097930908203 601.3496704101562 129.4171600341797" stroke-width="0.0" fill="url(#shape_17_fill)"/>
    <path d="M 320.3595886230469 186.25534057617188 C 320.89459228515625 186.5003204345703 322.0450134277344 189.39297485351562 321.08685302734375 199.8086395263672 C 332.54827880859375 194.00746154785156 333.4307556152344 193.28944396972656 337.38470458984375 196.07225036621094 C 344.0361022949219 200.03802490234375 346.4287414550781 197.82977294921875 353.50738525390625 192.94163513183594 C 359.15924072265625 192.97470092773438 359.21075439453125 193.9246826171875 356.4681396484375 201.88137817382812 C 359.3616943359375 204.13905334472656 361.6202392578125 204.2067413330078 364.70977783203125 209.97035217285156 C 367.3205871582031 207.1377716064453 368.521484375 208.17030334472656 368.2288818359375 211.80438232421875 C 370.2876281738281 220.0376739501953 370.2973327636719 223.00209045410156 365.9576721191406 225.57876586914062 C 366.00750732421875 231.4546356201172 363.8768615722656 236.264404296875 366.62249755859375 247.82131958007812 C 369.5708923339844 252.615966796875 366.85986328125 256.1325988769531 358.0455627441406 254.62815856933594 C 354.0665283203125 255.77394104003906 326.1994323730469 255.01779174804688 323.103759765625 255.338623046875 C 313.33209228515625 256.0011901855469 312.0845031738281 253.69667053222656 308.4292907714844 243.49172973632812 C 304.1899108886719 229.57920837402344 320.9457702636719 194.90960693359375 320.3595886230469 186.25534057617188" stroke-width="0.0" fill="url(#shape_18_fill)"/>
    <path d="M 478.912109375 223.63438415527344 C 501.98675537109375 250.94854736328125 512.7672729492188 264.2249450683594 493.66021728515625 279.812744140625 C 470.54290771484375 279.4552001953125 443.9763488769531 261.5869140625 442.1280517578125 261.76544189453125 C 438.7763977050781 260.50311279296875 437.18572998046875 258.2083740234375 432.6664733886719 258.02276611328125 C 429.4941101074219 258.5714416503906 428.1695251464844 256.7591857910156 429.4105224609375 253.8757781982422 C 432.5384826660156 236.89820861816406 422.76220703125 234.158203125 422.9460754394531 229.7066650390625 C 423.1517639160156 226.89501953125 421.1104736328125 226.71109008789062 420.2050476074219 225.08433532714844 C 427.7925720214844 219.6217041015625 429.6987609863281 218.86032104492188 428.35260009765625 214.95840454101562 C 441.27386474609375 197.35244750976562 478.09942626953125 197.5377960205078 478.912109375 223.63438415527344" stroke-width="0.0" fill="url(#shape_19_fill)"/>
    <path d="M 673.9058227539062 -3.0083584785461426 C 675.0673828125 32.84957504272461 674.5833740234375 64.76375579833984 674.427490234375 97.262939453125 C 669.501708984375 96.08976745605469 653.0291748046875 87.7402114868164 645.0213012695312 90.04714965820312 C 638.5969848632812 89.51870727539062 638.12060546875 86.01508331298828 637.4328002929688 84.25492095947266 C 626.226806640625 84.53191375732422 620.103759765625 93.11588287353516 608.1573486328125 86.59781646728516 C 609.886474609375 74.7575454711914 612.2586669921875 73.60811614990234 614.4056396484375 71.59974670410156 C 622.5991821289062 68.7874526977539 648.702392578125 25.143266677856445 647.4913330078125 20.841787338256836 C 655.2841186523438 8.636619567871094 656.466796875 2.85611629486084 668.6831665039062 3.5702874660491943 C 669.8197631835938 2.686157464981079 670.1100463867188 1.0740411281585693 673.9058227539062 -3.0083584785461426" stroke-width="0.0" fill="url(#shape_20_fill)"/>
    <path d="M 561.814208984375 155.9482421875 C 569.8698120117188 156.45648193359375 569.9633178710938 161.49334716796875 573.0743408203125 165.52352905273438 C 583.5820922851562 168.34368896484375 574.2149658203125 231.04379272460938 576.6588134765625 240.6402130126953 C 577.4238891601562 244.89158630371094 576.9296875 246.89080810546875 578.1588134765625 267.470947265625 C 545.958251953125 262.9934997558594 540.8419189453125 258.4364929199219 540.0863647460938 246.71212768554688 C 544.8526611328125 244.7344207763672 543.7626342773438 166.21473693847656 555.08056640625 156.92953491210938 C 555.4837036132812 153.0330047607422 559.2469482421875 151.80946350097656 561.814208984375 155.9482421875" stroke-width="0.0" fill="url(#shape_21_fill)"/>
    <path d="M 214.86544799804688 209.86044311523438 C 233.96224975585938 208.93756103515625 236.66294860839844 241.44366455078125 222.68450927734375 257.2073669433594 C 211.70489501953125 263.26904296875 209.56101989746094 264.1426086425781 208.9338836669922 273.14593505859375 C 205.8758087158203 275.34600830078125 206.7939910888672 277.1065368652344 206.06488037109375 280.0057373046875 C 206.70790100097656 282.9023742675781 203.27598571777344 285.6604919433594 201.34461975097656 284.94683837890625 C 201.1975860595703 283.25115966796875 190.4525909423828 272.7295227050781 188.1969757080078 264.3993835449219 C 186.61878967285156 261.67431640625 183.73431396484375 262.7968444824219 181.48806762695312 262.56170654296875 C 180.867431640625 260.51519775390625 180.25811767578125 260.513916015625 178.3112030029297 252.09535217285156 C 178.98452758789062 248.1261749267578 168.6810302734375 241.4647979736328 170.64303588867188 238.43600463867188 C 175.96282958984375 213.09796142578125 176.94708251953125 213.29443359375 185.5771026611328 220.5111541748047 C 193.81048583984375 219.49366760253906 194.17471313476562 215.2465362548828 198.51937866210938 213.23252868652344 C 184.99508666992188 206.68704223632812 185.10653686523438 201.81411743164062 200.94667053222656 196.6995849609375 C 213.45547485351562 193.5483856201172 214.871826171875 196.3041229248047 214.86544799804688 209.86044311523438" stroke-width="0.0" fill="url(#shape_22_fill)"/>
    <path d="M 111.61956024169922 426.2952880859375 C 112.73242950439453 429.2807312011719 111.01612091064453 431.19732666015625 110.66049194335938 431.48907470703125 C 104.69462585449219 432.98406982421875 103.49344635009766 433.6427917480469 91.90706634521484 433.0517578125 C 89.76747131347656 435.9677429199219 95.67481994628906 446.421630859375 91.6104507446289 452.1399841308594 C 78.66380310058594 444.9972229003906 46.938175201416016 447.9271240234375 25.1229305267334 449.63037109375 C 14.026568412780762 446.2274169921875 13.889510154724121 439.7638854980469 17.917104721069336 436.37689208984375 C 34.76451873779297 427.6504211425781 50.100643157958984 426.6293029785156 72.39690399169922 427.1228332519531 C 73.70037841796875 423.8990173339844 109.98623657226562 420.5676574707031 111.61956024169922 426.2952880859375" stroke-width="0.0" fill="url(#shape_23_fill)"/>
    <path d="M 194.03900146484375 123.79043579101562 C 200.61622619628906 124.5687026977539 210.6986846923828 145.1796112060547 214.6496124267578 145.19149780273438 C 215.62928771972656 148.31211853027344 218.55902099609375 149.73095703125 220.54940795898438 153.9403533935547 C 227.2848358154297 158.4068145751953 247.83836364746094 177.96104431152344 244.76258850097656 199.07228088378906 C 239.21343994140625 199.52952575683594 235.68350219726562 186.8846435546875 232.27420043945312 179.94142150878906 C 234.8638916015625 187.0612030029297 233.3590850830078 195.9515838623047 230.5807647705078 197.0945587158203 C 227.88424682617188 197.32675170898438 225.93821716308594 202.8726043701172 220.25221252441406 208.600830078125 C 215.21800231933594 207.65858459472656 213.58795166015625 199.29441833496094 212.76327514648438 197.29840087890625 C 212.00779724121094 190.45925903320312 211.98536682128906 183.6814727783203 206.74285888671875 177.71612548828125 C 203.9098358154297 174.0323028564453 204.96969604492188 173.0142364501953 205.61865234375 167.34521484375 C 202.62022399902344 147.5593719482422 199.38658142089844 146.98410034179688 192.42062377929688 143.92828369140625 C 189.35719299316406 142.3591766357422 191.3876495361328 128.4533233642578 194.03900146484375 123.79043579101562" stroke-width="0.0" fill="url(#shape_24_fill)"/>
    <path d="M 594.8157348632812 407.3910217285156 C 598.9501953125 409.77069091796875 627.6552734375 407.562255859375 630.8241577148438 413.5850524902344 C 630.7574462890625 421.629638671875 627.9212646484375 425.6885070800781 628.8505249023438 426.5625915527344 C 630.5327758789062 427.8316650390625 635.9868774414062 428.0577697753906 639.705810546875 436.8708190917969 C 618.4075927734375 447.549560546875 578.3349609375 439.0418395996094 572.5751953125 434.9031677246094 C 567.7426147460938 427.1795654296875 573.8699340820312 419.55035400390625 576.7545166015625 413.5478820800781 C 579.4502563476562 409.389404296875 587.2772827148438 414.4179382324219 594.8157348632812 407.3910217285156" stroke-width="0.0" fill="url(#shape_25_fill)"/>
    <path d="M 142.91587829589844 66.74513244628906 C 144.07159423828125 68.92838287353516 149.17051696777344 68.13298034667969 149.63096618652344 69.10859680175781 C 148.8993377685547 70.89833068847656 150.46775817871094 71.8218765258789 149.7495574951172 73.88007354736328 C 151.10089111328125 74.4510498046875 150.12281799316406 78.48081970214844 149.9658203125 80.95588684082031 C 152.1048583984375 89.55000305175781 152.95396423339844 97.63461303710938 153.89524841308594 104.10964965820312 C 153.5021514892578 107.62218475341797 155.12493896484375 108.51586151123047 155.45632934570312 111.35448455810547 C 158.06837463378906 123.45035552978516 155.33668518066406 133.52206420898438 150.41998291015625 133.59046936035156 C 142.8764190673828 126.95043182373047 137.37396240234375 119.85481262207031 126.087890625 117.01848602294922 C 122.52743530273438 114.16272735595703 124.48139190673828 109.58926391601562 126.64840698242188 106.76982116699219 C 128.8090362548828 106.84056854248047 128.87020874023438 105.27750396728516 132.65164184570312 104.72067260742188 C 138.3350067138672 96.83316040039062 134.83755493164062 92.83940124511719 133.0531005859375 89.37920379638672 C 134.08346557617188 88.41215515136719 139.3245086669922 87.29705810546875 140.1692352294922 85.35565185546875 C 138.25296020507812 84.74559020996094 138.8038330078125 77.64229583740234 139.5109100341797 77.47940063476562 C 143.6287384033203 76.6002426147461 142.70364379882812 70.386962890625 142.91587829589844 66.74513244628906" stroke-width="0.0" fill="url(#shape_26_fill)"/>
    <path d="M 139.67247009277344 67.76502227783203 C 148.9589385986328 66.94886779785156 149.7197265625 68.15579986572266 148.74794006347656 77.11849212646484 C 150.47035217285156 78.33441925048828 151.0962677001953 80.70988464355469 154.78201293945312 85.1759033203125 C 150.08474731445312 90.5113754272461 154.99639892578125 95.1180648803711 150.99244689941406 105.1496353149414 C 152.87420654296875 105.92892456054688 153.5835418701172 109.37702178955078 155.7831268310547 112.97799682617188 C 152.4942626953125 116.18333435058594 157.98953247070312 121.9291763305664 154.42196655273438 126.37086486816406 C 152.5403289794922 132.0226593017578 151.3211212158203 133.16851806640625 147.50987243652344 134.00917053222656 C 141.84608459472656 131.31028747558594 128.3623809814453 121.97215270996094 129.3149871826172 117.56517028808594 C 124.60325622558594 118.61178588867188 122.58011627197266 113.2218246459961 128.2593536376953 110.4969482421875 C 122.88429260253906 108.17020416259766 124.33545684814453 104.43281555175781 133.5013885498047 107.25731658935547 C 136.46163940429688 105.75199127197266 133.403076171875 92.76347351074219 132.8040008544922 89.11077117919922 C 139.47561645507812 87.43959045410156 138.87242126464844 85.0044937133789 138.83944702148438 81.33439636230469 C 139.07264709472656 77.50386810302734 140.36422729492188 76.81382751464844 142.28663635253906 78.08838653564453 C 145.41622924804688 72.05506896972656 142.56759643554688 70.5465316772461 139.67247009277344 67.76502227783203" stroke-width="0.0" fill="url(#shape_27_fill)"/>
    <path d="M -0.3594062626361847 -0.27402204275131226 C 4.713894844055176 0.3845077455043793 9.667756080627441 -0.5287373065948486 18.894174575805664 -0.9119542241096497 C 25.50587272644043 -1.6043528318405151 25.856971740722656 -0.848694920539856 49.048343658447266 0.807478129863739 C 44.560646057128906 25.788209915161133 28.221837997436523 24.826074600219727 27.62548828125 24.29573631286621 C 52.09968948364258 14.67086124420166 60.5438117980957 15.00290298461914 62.40639877319336 54.69486618041992 C 38.34101486206055 56.72331619262695 26.571016311645508 56.95002365112305 18.803773880004883 50.75152587890625 C 15.596712112426758 39.37201690673828 11.364624977111816 38.28479766845703 9.991761207580566 33.61817169189453 C 10.04501724243164 35.83030700683594 14.496922492980957 39.285064697265625 14.59133529663086 41.043819427490234 C 15.991880416870117 42.20842361450195 15.681171417236328 44.940834045410156 18.2054500579834 47.86185073852539 C 20.082538604736328 51.069496154785156 18.768936157226562 52.30553436279297 21.41166114807129 57.20258331298828 C 21.594757080078125 65.76556396484375 15.851679801940918 67.76670837402344 8.428008079528809 61.49797821044922 C 5.48960542678833 60.88832092285156 3.5340843200683594 59.141178131103516 0.3212158679962158 59.437408447265625 C -0.3186935782432556 39.785919189453125 -0.32491740584373474 19.63042449951172 -0.3594062626361847 -0.27402204275131226" stroke-width="0.0" fill="url(#shape_28_fill)"/>
    <path d="M 299.0267028808594 197.18084716796875 C 297.9457702636719 199.49072265625 300.238037109375 202.30685424804688 301.45770263671875 207.98204040527344 C 299.90869140625 214.0118408203125 325.8774719238281 224.04092407226562 316.0244140625 255.5321502685547 C 311.8492126464844 254.31500244140625 310.6280212402344 255.90953063964844 304.3107604980469 254.9874725341797 C 303.5985412597656 258.1835632324219 293.6673583984375 258.4659729003906 281.1593933105469 256.0284729003906 C 278.1112976074219 224.63809204101562 284.7395935058594 219.9810028076172 299.0267028808594 197.18084716796875" stroke-width="0.0" fill="url(#shape_29_fill)"/>
    <path d="M 0.0036647962406277657 -0.11777202785015106 C 4.546453475952148 0.44475871324539185 9.716768264770508 -0.4130783677101135 14.669612884521484 0.10912377387285233 C 15.887831687927246 0.4818582236766815 16.60813331604004 3.5959925651550293 16.494491577148438 7.995828628540039 C 18.82738494873047 10.927539825439453 21.716901779174805 19.001964569091797 27.39866828918457 20.597532272338867 C 27.178802490234375 22.524078369140625 23.96926498413086 26.679248809814453 24.705961227416992 32.068355560302734 C 20.080785751342773 32.451961517333984 12.420825004577637 29.981937408447266 5.397439002990723 33.643150329589844 C 8.98105525970459 36.00405502319336 8.739603042602539 38.8463249206543 10.867929458618164 40.46939468383789 C 10.241157531738281 43.7473258972168 7.620611190795898 49.51714324951172 11.724248886108398 53.76517105102539 C 17.725770950317383 51.245723724365234 19.493640899658203 51.75516128540039 18.50066566467285 58.32820510864258 C 11.327165603637695 60.76116180419922 9.421591758728027 62.59729766845703 0.18598681688308716 61.49044418334961 C -0.4244959354400635 39.973350524902344 -0.3545922040939331 19.755685806274414 0.0036647962406277657 -0.11777202785015106" stroke-width="0.0" fill="url(#shape_30_fill)"/>
    <path d="M 548.99560546875 70.5889892578125 C 546.2084350585938 77.86349487304688 576.6207885742188 89.575439453125 581.3938598632812 91.72525024414062 C 580.9273681640625 92.84880828857422 577.3967895507812 93.34774780273438 577.1878051757812 98.30422973632812 C 573.280029296875 100.71728515625 572.0660400390625 99.82636260986328 569.6754760742188 100.11099243164062 C 567.7182006835938 95.0172119140625 546.158447265625 97.73810577392578 538.9225463867188 88.26576232910156 C 538.2048950195312 85.53926086425781 538.7052001953125 82.9751968383789 535.7779541015625 82.07551574707031 C 534.3294677734375 80.21302795410156 527.2125854492188 79.69876861572266 527.1982421875 78.3025894165039 C 525.1813354492188 75.8046646118164 527.757080078125 70.85093688964844 531.9580078125 68.86494445800781 C 538.9320678710938 66.9809799194336 542.6866455078125 71.59355926513672 548.99560546875 70.5889892578125" stroke-width="0.0" fill="url(#shape_31_fill)"/>
    <path d="M 447.031005859375 264.4237060546875 C 450.6517333984375 265.287353515625 451.280029296875 266.7416076660156 455.76947021484375 267.7677917480469 C 460.5113830566406 267.6551208496094 465.32232666015625 270.3759765625 469.94482421875 273.0936279296875 C 470.4309997558594 275.6334533691406 471.828857421875 276.88818359375 471.6768798828125 280.76190185546875 C 451.707275390625 287.3404541015625 430.2603759765625 284.0564270019531 415.7520751953125 285.1724548339844 C 413.44317626953125 273.9002685546875 414.9213562011719 272.32733154296875 415.516845703125 268.1501770019531 C 418.188720703125 267.2054443359375 417.760009765625 264.7986755371094 419.3599548339844 263.1043701171875 C 441.4674072265625 252.76536560058594 446.6312255859375 252.65725708007812 447.031005859375 264.4237060546875" stroke-width="0.0" fill="url(#shape_32_fill)"/>
    <path d="M 272.70782470703125 192.30491638183594 C 275.10772705078125 192.26646423339844 287.38818359375 243.68885803222656 282.0511779785156 246.81289672851562 C 279.7155456542969 248.28427124023438 273.9844665527344 246.9769287109375 269.46405029296875 248.9320526123047 C 266.2796630859375 246.2585906982422 266.62286376953125 242.4073486328125 260.99603271484375 240.7335205078125 C 254.4459686279297 209.10617065429688 262.619873046875 206.16290283203125 272.70782470703125 192.30491638183594" stroke-width="0.0" fill="url(#shape_33_fill)"/>
    <path d="M 268.3426818847656 410.82098388671875 C 263.3504943847656 427.8968505859375 264.7359924316406 430.6503601074219 268.0023498535156 440.31939697265625 C 262.507568359375 440.8558044433594 260.6875305175781 446.4391784667969 258.3959655761719 447.86248779296875 C 245.55198669433594 445.85296630859375 215.24668884277344 448.6598815917969 212.49307250976562 444.95648193359375 C 213.02317810058594 436.99578857421875 213.95974731445312 436.2222900390625 216.0330047607422 434.6340026855469 C 216.36427307128906 433.54559326171875 225.0701904296875 433.7716369628906 226.7217559814453 430.7164001464844 C 227.78811645507812 418.7272644042969 236.0133819580078 418.6276550292969 268.3426818847656 410.82098388671875" stroke-width="0.0" fill="url(#shape_34_fill)"/>
    <path d="M 105.58056640625 69.68789672851562 C 110.01620483398438 69.69520568847656 111.00833892822266 79.0296401977539 112.7197265625 85.52572631835938 C 117.74053955078125 86.09642791748047 116.6676025390625 110.26408386230469 118.17301177978516 110.68653869628906 C 116.73970031738281 112.57010650634766 110.60218811035156 114.38343048095703 106.92660522460938 124.83618927001953 C 104.6470718383789 117.13841247558594 96.4909439086914 118.849365234375 88.20987701416016 109.99539947509766 C 86.73914337158203 85.7785873413086 106.01049041748047 84.61592102050781 105.58056640625 69.68789672851562" stroke-width="0.0" fill="url(#shape_35_fill)"/>
    <path d="M 451.228515625 178.4514617919922 C 453.81915283203125 176.02703857421875 456.1833190917969 177.89202880859375 455.36505126953125 180.41929626464844 C 455.99560546875 180.9540557861328 455.0181884765625 185.51943969726562 456.27056884765625 186.1169891357422 C 456.03802490234375 188.57212829589844 459.192626953125 194.06777954101562 459.0614318847656 204.52598571777344 C 459.3146667480469 208.5509490966797 451.5871887207031 209.52301025390625 446.0127258300781 204.350830078125 C 441.4155578613281 207.42237854003906 441.24212646484375 208.7763671875 432.8179626464844 210.9212188720703 C 435.3363342285156 209.92201232910156 436.88409423828125 188.87754821777344 437.89044189453125 177.33372497558594 C 440.56103515625 179.2597198486328 442.6607360839844 182.07044982910156 446.6687927246094 181.07005310058594 C 447.84637451171875 179.53976440429688 450.1228942871094 179.6516876220703 451.228515625 178.4514617919922" stroke-width="0.0" fill="url(#shape_36_fill)"/>
    <path d="M 557.5281982421875 84.43495178222656 C 561.2057495117188 80.70555114746094 578.4766845703125 82.83991241455078 579.983642578125 85.62164306640625 C 581.2532958984375 83.34573364257812 586.2866821289062 85.45342254638672 587.6730346679688 88.58488464355469 C 597.1837768554688 103.12397766113281 588.51904296875 110.42094421386719 574.3577880859375 100.58024597167969 C 573.7824096679688 99.53817749023438 552.7664184570312 97.32366180419922 546.2637329101562 85.82959747314453 C 538.41015625 85.99736785888672 537.995849609375 82.93553924560547 536.1476440429688 80.20584106445312 C 543.29248046875 74.54683685302734 547.0103149414062 78.8484115600586 557.5281982421875 84.43495178222656" stroke-width="0.0" fill="url(#shape_37_fill)"/>
    <path d="M 251.78562927246094 207.2667694091797 C 265.6638488769531 213.2762451171875 261.41204833984375 236.9296112060547 260.14794921875 247.63966369628906 C 259.2890930175781 254.4304656982422 251.1040496826172 254.87161254882812 249.28945922851562 257.24127197265625 C 234.56204223632812 237.5562286376953 241.32936096191406 215.64984130859375 251.78562927246094 207.2667694091797" stroke-width="0.0" fill="url(#shape_38_fill)"/>
    <path d="M 442.5613098144531 263.2247619628906 C 446.1572570800781 263.3265686035156 449.2466125488281 266.5314636230469 447.90057373046875 270.0712585449219 C 444.6687927246094 270.4041442871094 442.6730041503906 277.2929382324219 440.3780822753906 277.4841613769531 C 439.0646667480469 286.8457946777344 428.2955627441406 285.400390625 418.2437744140625 275.62615966796875 C 414.4946594238281 276.7911376953125 413.3417663574219 274.4390563964844 416.34967041015625 271.63720703125 C 415.1466369628906 269.9444885253906 419.3668518066406 262.3472595214844 425.34814453125 258.5117492675781 C 426.9241027832031 257.6416015625 439.5919189453125 257.4647521972656 442.5613098144531 263.2247619628906" stroke-width="0.0" fill="url(#shape_39_fill)"/>
    <path d="M 407.6926574707031 409.8575744628906 C 408.6603088378906 409.9018249511719 416.7712707519531 419.09295654296875 413.97039794921875 424.3608093261719 C 399.59503173828125 435.1645202636719 386.0360107421875 420.95965576171875 376.58209228515625 420.86737060546875 C 371.0824279785156 417.9583435058594 371.2336120605469 416.5549011230469 372.6980895996094 410.4554138183594 C 375.0006408691406 400.8390808105469 392.8228759765625 404.3392639160156 407.6926574707031 409.8575744628906" stroke-width="0.0" fill="url(#shape_40_fill)"/>
    <path d="M 66.44669342041016 427.4950256347656 C 67.24529266357422 428.99072265625 64.19090270996094 432.810791015625 58.733341217041016 435.04931640625 C 57.384117126464844 436.345947265625 39.694095611572266 435.637451171875 31.86042594909668 442.97052001953125 C 29.397436141967773 443.6437683105469 27.717483520507812 444.1188049316406 17.33456802368164 442.7086486816406 C 16.450714111328125 440.6511535644531 17.924623489379883 439.20916748046875 17.363208770751953 437.8039245605469 C 35.71370315551758 427.20751953125 53.41487503051758 428.075927734375 66.44669342041016 427.4950256347656" stroke-width="0.0" fill="url(#shape_41_fill)"/>
    <path d="M 278.30316162109375 381.0655212402344 C 284.6038818359375 381.2267761230469 297.8905334472656 381.2647705078125 307.0788879394531 385.30389404296875 C 297.0191345214844 394.7154235839844 299.3180847167969 401.0709533691406 294.4736022949219 405.22760009765625 C 291.75439453125 400.05230712890625 266.7458190917969 406.41156005859375 259.0764465332031 408.1618347167969 C 246.8739471435547 406.37445068359375 241.84866333007812 400.0816955566406 242.560791015625 383.69171142578125 C 260.7439880371094 380.0886535644531 267.1229553222656 381.7709045410156 278.30316162109375 381.0655212402344" stroke-width="0.0" fill="url(#shape_42_fill)"/>
    <path d="M 222.67388916015625 207.79818725585938 C 224.09317016601562 206.58033752441406 239.33226013183594 206.48110961914062 239.3795928955078 211.01953125 C 241.99317932128906 221.48760986328125 244.88905334472656 243.22573852539062 254.72271728515625 269.35089111328125 C 251.39620971679688 274.4433288574219 242.63577270507812 273.0119323730469 208.6696319580078 272.3360595703125 C 208.18667602539062 266.09954833984375 205.29762268066406 251.65740966796875 216.4541778564453 247.72947692871094 C 219.28587341308594 246.462646484375 218.2897491455078 226.42599487304688 222.67388916015625 207.79818725585938" stroke-width="0.0" fill="url(#shape_43_fill)"/>
    <path d="M 483.4602966308594 396.1583251953125 C 486.7853088378906 399.81500244140625 485.7820739746094 400.9759521484375 483.4635009765625 400.9948425292969 C 471.44281005859375 407.2637023925781 451.1646423339844 406.85186767578125 450.26641845703125 407.6029357910156 C 448.1754455566406 404.4203186035156 451.6524658203125 396.1835632324219 453.64324951171875 396.520751953125 C 465.12518310546875 393.1375732421875 471.50726318359375 392.4192810058594 483.4602966308594 396.1583251953125" stroke-width="0.0" fill="url(#shape_44_fill)"/>
    <path d="M 45.74344253540039 408.08135986328125 C 45.370948791503906 408.7014465332031 35.78449249267578 411.78607177734375 33.208534240722656 412.80841064453125 C 32.55622863769531 414.4307861328125 32.064212799072266 415.8302001953125 27.937410354614258 414.8083190917969 C 27.079736709594727 416.59808349609375 24.445363998413086 417.4823303222656 21.108015060424805 420.353515625 C 18.739023208618164 420.2179870605469 0.38305553793907166 417.3160095214844 -0.7400667667388916 420.5039367675781 C 1.9669667482376099 419.49737548828125 -0.9884571433067322 411.2039794921875 0.9270128607749939 410.2042541503906 C 6.393570423126221 409.57464599609375 45.45648956298828 406.3602294921875 45.74344253540039 408.08135986328125" stroke-width="0.0" fill="url(#shape_45_fill)"/>
    <path d="M 452.2099609375 174.4029083251953 C 453.8553161621094 174.99024963378906 464.6787414550781 198.65811157226562 466.6686706542969 199.98422241210938 C 462.6669006347656 209.36376953125 451.4515380859375 209.18411254882812 449.4619445800781 206.4771270751953 C 448.3152160644531 203.25953674316406 449.00677490234375 198.31919860839844 448.8523254394531 195.29840087890625 C 447.9606628417969 194.5642852783203 447.59088134765625 192.08897399902344 448.5181884765625 188.00473022460938 C 450.9963073730469 186.64706420898438 450.5313415527344 182.83499145507812 452.2099609375 174.4029083251953" stroke-width="0.0" fill="url(#shape_46_fill)"/>
    <path d="M 372.6308288574219 184.6409454345703 C 379.4223327636719 197.12733459472656 380.1438903808594 202.40774536132812 371.55218505859375 205.87342834472656 C 365.86480712890625 206.82131958007812 364.772216796875 204.8414764404297 361.6501159667969 206.1141815185547 C 339.63958740234375 211.84701538085938 335.89630126953125 203.0086669921875 353.36883544921875 188.796630859375 C 356.6828918457031 184.9789276123047 358.3749694824219 184.38966369628906 368.1812438964844 185.47665405273438 C 368.9815979003906 183.294189453125 372.287841796875 183.79324340820312 372.6308288574219 184.6409454345703" stroke-width="0.0" fill="url(#shape_47_fill)"/>
    <path d="M 472.5185852050781 264.0640563964844 C 474.6094970703125 267.2694396972656 480.6234436035156 270.4693603515625 481.5829162597656 284.1731262207031 C 465.2681579589844 287.2965393066406 446.65643310546875 287.32818603515625 444.4164123535156 284.95703125 C 439.348876953125 282.17864990234375 440.0051574707031 276.96002197265625 441.09674072265625 276.385986328125 C 448.79547119140625 266.6366882324219 455.8336181640625 262.244140625 472.5185852050781 264.0640563964844" stroke-width="0.0" fill="url(#shape_48_fill)"/>
    <path d="M 176.9517364501953 116.78353118896484 C 177.94329833984375 115.46822357177734 181.72467041015625 116.14602661132812 182.72166442871094 117.2804946899414 C 184.67550659179688 120.27035522460938 183.85043334960938 122.3451919555664 184.8032989501953 123.0271987915039 C 179.55905151367188 127.73967742919922 185.5460662841797 136.76429748535156 182.718017578125 139.6433868408203 C 181.88388061523438 146.82174682617188 172.8393096923828 146.22901916503906 171.97706604003906 146.88363647460938 C 171.94744873046875 127.03092193603516 170.89019775390625 124.53428649902344 176.9517364501953 116.78353118896484" stroke-width="0.0" fill="url(#shape_49_fill)"/>
    <path d="M 333.3465881347656 427.0091552734375 C 336.40447998046875 429.4269714355469 341.8351135253906 428.8096008300781 343.34405517578125 431.7376708984375 C 346.369140625 435.58001708984375 345.158447265625 437.219482421875 342.385009765625 437.55963134765625 C 342.74993896484375 447.3103332519531 325.3231506347656 448.9529724121094 323.8537902832031 444.5470275878906 C 321.5090026855469 436.22265625 321.5743408203125 432.6006164550781 306.4631042480469 429.8770751953125 C 319.6492004394531 426.1382751464844 327.8079528808594 429.6455078125 333.3465881347656 427.0091552734375" stroke-width="0.0" fill="url(#shape_50_fill)"/>
    <path d="M 310.5144348144531 388.6569519042969 C 305.6972961425781 395.4388427734375 293.06207275390625 396.52447509765625 291.5540466308594 399.1017150878906 C 279.10498046875 397.4661560058594 277.8917541503906 399.20556640625 271.3046569824219 402.4273986816406 C 271.1792297363281 401.60455322265625 269.8685607910156 398.93414306640625 271.5344543457031 397.4963684082031 C 270.1941833496094 395.5442810058594 273.2858581542969 388.3619689941406 279.9187927246094 388.3688049316406 C 284.5635986328125 386.68994140625 288.646240234375 391.2574157714844 310.5144348144531 388.6569519042969" stroke-width="0.0" fill="url(#shape_51_fill)"/>
    <path d="M 268.94732666015625 184.76979064941406 C 276.3312072753906 194.66244506835938 277.2966613769531 207.8370819091797 280.3283996582031 217.65769958496094 C 271.49591064453125 210.47024536132812 269.5309143066406 208.3009033203125 260.92364501953125 216.1658477783203 C 257.6295471191406 208.19924926757812 263.3596496582031 195.8819580078125 266.7614440917969 195.2724609375 C 269.7264404296875 194.2978973388672 268.904541015625 191.73448181152344 268.94732666015625 184.76979064941406" stroke-width="0.0" fill="url(#shape_52_fill)"/>
    <path d="M 218.38177490234375 409.4538879394531 C 215.89755249023438 410.9176330566406 215.70065307617188 413.30780029296875 214.2849578857422 414.5505676269531 C 214.3634490966797 422.71148681640625 193.43899536132812 425.06683349609375 187.60650634765625 415.5597839355469 C 186.30914306640625 404.7019348144531 207.4369659423828 399.8231506347656 218.38177490234375 409.4538879394531" stroke-width="0.0" fill="url(#shape_53_fill)"/>
    <path d="M 205.9632110595703 424.5013122558594 C 205.4789276123047 425.24652099609375 206.1494140625 428.291015625 204.56166076660156 429.087646484375 C 194.16192626953125 429.6662902832031 178.81747436523438 430.0964050292969 178.03184509277344 432.6590881347656 C 176.86083984375 430.9442443847656 178.41685485839844 425.9452819824219 177.0637664794922 423.9069519042969 C 187.778564453125 418.1940002441406 192.51463317871094 423.52557373046875 205.9632110595703 424.5013122558594" stroke-width="0.0" fill="url(#shape_54_fill)"/>
    <path d="M 268.7572021484375 247.66200256347656 C 275.4319152832031 245.082275390625 276.62457275390625 247.93765258789062 280.2085266113281 247.53549194335938 C 280.7557067871094 251.0092010498047 280.0382080078125 252.4056396484375 287.8887023925781 265.0799560546875 C 263.4580383300781 258.055419921875 262.94146728515625 257.36016845703125 250.3230743408203 265.7890930175781 C 254.84104919433594 248.17359924316406 255.89163208007812 247.24057006835938 258.7296142578125 245.1205596923828 C 260.3202819824219 239.23451232910156 264.6189880371094 239.76890563964844 268.7572021484375 247.66200256347656" stroke-width="0.0" fill="url(#shape_55_fill)"/>
    <path d="M 280.4834289550781 344.670166015625 C 281.1986083984375 362.75244140625 284.332275390625 363.3368835449219 284.9295654296875 368.0313720703125 C 285.475830078125 369.2301025390625 286.0459899902344 371.79949951171875 285.60400390625 381.211181640625 C 274.663330078125 379.31890869140625 260.6636962890625 381.2500305175781 239.4706573486328 383.8395690917969 C 234.94285583496094 382.2890625 233.86526489257812 367.9244689941406 234.0064239501953 347.69696044921875 C 242.31546020507812 344.2547302246094 251.31126403808594 343.1746826171875 280.4834289550781 344.670166015625" stroke-width="0.0" fill="url(#shape_56_fill)"/>
    <path d="M 408.0848693847656 272.1852722167969 C 415.09027099609375 269.4010314941406 418.0257873535156 273.9046630859375 423.1585388183594 281.7890319824219 C 415.9154357910156 283.1895446777344 411.0963439941406 276.4800720214844 377.9209899902344 273.7865295410156 C 377.98516845703125 264.5611267089844 385.9214782714844 263.6710205078125 408.0848693847656 272.1852722167969" stroke-width="0.0" fill="url(#shape_57_fill)"/>
    <path d="M 632.0819702148438 351.73614501953125 C 632.9822998046875 355.30206298828125 661.3031005859375 354.7405700683594 668.5630493164062 354.78369140625 C 668.4739990234375 358.3559265136719 663.0068359375 360.3874206542969 660.1240844726562 357.03448486328125 C 647.1743774414062 355.7694396972656 635.0845947265625 359.4638366699219 631.6007690429688 360.1684875488281 C 627.8447265625 357.1545715332031 629.4354858398438 353.6258850097656 632.0819702148438 351.73614501953125" stroke-width="0.0" fill="url(#shape_58_fill)"/>
    <path d="M 341.3426513671875 384.83795166015625 C 342.818115234375 390.1777648925781 358.1419982910156 391.68292236328125 359.1794738769531 394.6524963378906 C 356.86920166015625 398.62933349609375 339.78045654296875 401.2065124511719 338.2752990722656 399.5562744140625 C 335.1358642578125 399.62384033203125 333.0674133300781 398.78424072265625 331.8433532714844 396.5372619628906 C 331.9902038574219 394.93994140625 330.74755859375 393.4737243652344 332.2938537597656 390.5898132324219 C 332.9188232421875 384.9457092285156 336.0757141113281 383.96142578125 341.3426513671875 384.83795166015625" stroke-width="0.0" fill="url(#shape_59_fill)"/>
    <path d="M 459.1978759765625 363.96856689453125 C 462.47515869140625 363.9161071777344 472.9872131347656 370.8445129394531 473.16632080078125 374.4178771972656 C 471.807373046875 376.2447814941406 470.33624267578125 376.8733215332031 463.1038818359375 375.8291015625 C 458.38671875 377.35394287109375 457.5523681640625 376.96649169921875 452.69927978515625 370.9140319824219 C 453.3857116699219 370.21282958984375 459.94232177734375 368.0627136230469 459.1978759765625 363.96856689453125" stroke-width="0.0" fill="url(#shape_60_fill)"/>
    <path d="M 429.7061767578125 432.5479736328125 C 440.0156555175781 434.29937744140625 442.4324951171875 436.5981140136719 442.0955505371094 438.59490966796875 C 440.2916564941406 440.73626708984375 428.3632507324219 439.30023193359375 425.6952209472656 442.2362060546875 C 422.474365234375 438.9056701660156 423.8414001464844 434.7026062011719 411.0791015625 424.7809753417969 C 426.98797607421875 429.37261962890625 429.7879333496094 432.47430419921875 429.7061767578125 432.5479736328125" stroke-width="0.0" fill="url(#shape_61_fill)"/>
    <path d="M 185.41220092773438 411.4490051269531 C 186.26861572265625 413.93170166015625 185.00448608398438 414.7928771972656 186.917724609375 417.62286376953125 C 184.8715362548828 420.2044677734375 183.3904266357422 419.504638671875 182.50991821289062 419.74615478515625 C 180.82012939453125 421.6417541503906 174.45521545410156 420.17230224609375 171.50582885742188 420.09100341796875 C 169.57522583007812 417.7192687988281 169.77545166015625 415.62786865234375 175.0594940185547 412.2928771972656 C 176.98526000976562 413.0074157714844 181.42938232421875 410.5198059082031 185.41220092773438 411.4490051269531" stroke-width="0.0" fill="url(#shape_62_fill)"/>
    <path d="M 332.2283935546875 418.7184143066406 C 334.44488525390625 425.7901916503906 329.8974609375 427.9871826171875 327.2484130859375 425.7643127441406 C 324.54547119140625 427.7557067871094 322.9795837402344 426.7080993652344 321.1860656738281 427.47235107421875 C 318.86865234375 425.99957275390625 319.8931884765625 419.9665222167969 317.5804443359375 418.49114990234375 C 319.0053405761719 420.1492004394531 325.93853759765625 418.7076721191406 332.2283935546875 418.7184143066406" stroke-width="0.0" fill="url(#shape_63_fill)"/>
    <path d="M 55.50291442871094 273.83380126953125 C 56.575382232666016 269.1934509277344 65.41849517822266 270.0569763183594 64.9906234741211 278.37738037109375 C 59.13030242919922 279.5111389160156 54.0765495300293 272.42791748046875 48.49164962768555 276.2670593261719 C 50.67383575439453 273.3531188964844 52.50066375732422 272.94708251953125 55.50291442871094 273.83380126953125" stroke-width="0.0" fill="url(#shape_64_fill)"/>
    <path d="M 304.7241516113281 439.93731689453125 C 304.5951232910156 437.8266906738281 306.56292724609375 436.71844482421875 313.6064758300781 437.2981262207031 C 314.3016052246094 439.6643371582031 313.2354736328125 441.4687194824219 311.25750732421875 441.7517395019531 C 307.973876953125 445.238037109375 306.48736572265625 444.25042724609375 305.3419189453125 444.07037353515625 C 302.5288391113281 441.69818115234375 303.2401123046875 440.3172607421875 304.7241516113281 439.93731689453125" stroke-width="0.0" fill="url(#shape_65_fill)"/>
    <path d="M -0.5098514556884766 -0.4333755373954773 C 224.84249877929688 -0.1653515249490738 444.21514892578125 0.32518142461776733 672.640380859375 0.457107812166214 C 673.4443359375 155.16720581054688 674.721923828125 296.1484680175781 673.7073974609375 445.48248291015625 C 450.2712097167969 446.32867431640625 230.3896026611328 446.2841796875 0.4812884032726288 445.4007263183594 C 0.20163388550281525 297.17669677734375 -0.17261233925819397 149.28492736816406 -0.5098514556884766 -0.4333755373954773" stroke-width="0.0" fill="url(#shape_66_fill)"/>
    <path d="M -1.081389307975769 -0.1943516731262207 C 222.63540649414062 -0.1173565611243248 442.9995422363281 0.3663114607334137 672.6106567382812 -0.22215421497821808 C 673.5266723632812 155.8337860107422 674.8059692382812 295.6126708984375 673.3795166015625 445.3927917480469 C 450.5704040527344 446.4023132324219 230.48440551757812 446.3276062011719 0.5577308535575867 445.3166809082031 C 0.09232403337955475 297.38751220703125 -0.2723698616027832 149.03158569335938 -1.081389307975769 -0.1943516731262207" stroke-width="0.0" fill="url(#shape_67_fill)"/>
    <path d="M -0.6977704763412476 -0.24882984161376953 C 223.21592712402344 -0.1670592725276947 441.8720703125 0.4992360770702362 672.681884765625 -0.28983044624328613 C 673.5565185546875 155.51388549804688 674.7970581054688 295.5171203613281 673.3734130859375 445.3934020996094 C 450.5675964355469 446.4032287597656 230.50270080566406 446.3288269042969 1.1179076433181763 445.29803466796875 C 0.4995560050010681 295.6389465332031 0.06924892216920853 148.49497985839844 -0.6977704763412476 -0.24882984161376953" stroke-width="0.0" fill="url(#shape_68_fill)"/>
  </g>
</svg>
