<?xml version="1.0" ?>
<svg xmlns="http://www.w3.org/2000/svg" version="1.1" width="674" height="446">
  <defs>
    <radialGradient id="shape_0_fill" cx="0.538271080492512" cy="0.7437603869245726" r="0.27523120008519564">
      <stop offset="0.4418731" stop-color="rgb(209, 248, 0)" stop-opacity="1.0"/>
      <stop offset="1.0" stop-color="rgb(98, 10, 0)" stop-opacity="1.0"/>
    </radialGradient>
    <radialGradient id="shape_1_fill" cx="0.5390605077545437" cy="0.746837462010405" r="0.20541039984728532">
      <stop offset="0.6714571" stop-color="rgb(98, 105, 27)" stop-opacity="1.0"/>
      <stop offset="1.0" stop-color="rgb(23, 0, 0)" stop-opacity="0.8675512075424194"/>
    </radialGradient>
    <radialGradient id="shape_2_fill" cx="0.09792284866468842" cy="0.7376681614349776" r="0.22062588021026522">
      <stop offset="4.0722247e-05" stop-color="rgb(30, 90, 182)" stop-opacity="0.9999317526817322"/>
      <stop offset="1.0" stop-color="rgb(0, 114, 255)" stop-opacity="1.0"/>
    </radialGradient>
    <radialGradient id="shape_3_fill" cx="0.2749405360009621" cy="0.21578211420854645" r="0.1259406341643291">
      <stop offset="0.3947414" stop-color="rgb(166, 219, 0)" stop-opacity="1.0"/>
      <stop offset="1.0" stop-color="rgb(33, 34, 0)" stop-opacity="1.0"/>
    </radialGradient>
    <radialGradient id="shape_4_fill" cx="0.1543026706231454" cy="0.9977578475336323" r="0.10288926755639141">
      <stop offset="0.0" stop-color="rgb(81, 79, 86)" stop-opacity="1.0"/>
      <stop offset="1.0" stop-color="rgb(154, 56, 107)" stop-opacity="0.9018794298171997"/>
    </radialGradient>
    <radialGradient id="shape_5_fill" cx="0.14808135216596927" cy="0.23997215305208625" r="0.11810807587484931">
      <stop offset="0.0" stop-color="rgb(255, 255, 255)" stop-opacity="0.6478980183601379"/>
      <stop offset="0.56526387" stop-color="rgb(255, 255, 255)" stop-opacity="0.724085807800293"/>
    </radialGradient>
    <radialGradient id="shape_6_fill" cx="0.18397626112759644" cy="0.9977578475336323" r="0.0754974885934892">
      <stop offset="0.0" stop-color="rgb(93, 90, 94)" stop-opacity="1.0"/>
      <stop offset="1.0" stop-color="rgb(192, 122, 165)" stop-opacity="0.44400280714035034"/>
    </radialGradient>
    <radialGradient id="shape_7_fill" cx="0.2893175074183976" cy="0.05829596412556054" r="0.08666390552011372">
      <stop offset="0.0" stop-color="rgb(55, 66, 29)" stop-opacity="1.0"/>
      <stop offset="1.0" stop-color="rgb(68, 71, 0)" stop-opacity="1.0"/>
    </radialGradient>
    <radialGradient id="shape_8_fill" cx="0.3382789091115889" cy="0.9439461883408071" r="0.06756690277190167">
      <stop offset="0.0" stop-color="rgb(91, 124, 45)" stop-opacity="1.0"/>
      <stop offset="1.0" stop-color="rgb(207, 237, 28)" stop-opacity="0.8682737350463867"/>
    </radialGradient>
    <radialGradient id="shape_9_fill" cx="0.30712166172106825" cy="0.9977578475336323" r="0.0730758406641929">
      <stop offset="0.0" stop-color="rgb(38, 48, 20)" stop-opacity="1.0"/>
      <stop offset="1.0" stop-color="rgb(29, 37, 0)" stop-opacity="1.0"/>
    </radialGradient>
    <radialGradient id="shape_10_fill" cx="0.3056379821958457" cy="0.9977578475336323" r="0.06792919147615971">
      <stop offset="0.0" stop-color="rgb(39, 49, 21)" stop-opacity="1.0"/>
      <stop offset="1.0" stop-color="rgb(37, 38, 0)" stop-opacity="0.7777247428894043"/>
    </radialGradient>
    <radialGradient id="shape_11_fill" cx="0.21810089020771514" cy="0.968609865470852" r="0.06792919147615971">
      <stop offset="0.0" stop-color="rgb(138, 135, 129)" stop-opacity="1.0"/>
      <stop offset="1.0" stop-color="rgb(255, 242, 244)" stop-opacity="0.454441636800766"/>
    </radialGradient>
    <radialGradient id="shape_12_fill" cx="0.29080118694362017" cy="0.9977578475336323" r="0.07480746985189285">
      <stop offset="0.0" stop-color="rgb(22, 25, 13)" stop-opacity="1.0"/>
      <stop offset="1.0" stop-color="rgb(0, 0, 0)" stop-opacity="1.0"/>
    </radialGradient>
    <radialGradient id="shape_13_fill" cx="0.327893175074184" cy="0.8923766816143498" r="0.06900465877544279">
      <stop offset="0.0" stop-color="rgb(89, 117, 50)" stop-opacity="1.0"/>
      <stop offset="1.0" stop-color="rgb(163, 200, 34)" stop-opacity="1.0"/>
    </radialGradient>
    <radialGradient id="shape_14_fill" cx="0.142433234421365" cy="0.9977578475336323" r="0.06617211022079875">
      <stop offset="0.0" stop-color="rgb(155, 150, 153)" stop-opacity="1.0"/>
      <stop offset="1.0" stop-color="rgb(255, 255, 255)" stop-opacity="0.4749830663204193"/>
    </radialGradient>
    <radialGradient id="shape_15_fill" cx="0.31008902077151335" cy="0.9977578475336323" r="0.06683642786405207">
      <stop offset="0.0" stop-color="rgb(43, 55, 23)" stop-opacity="1.0"/>
      <stop offset="1.0" stop-color="rgb(40, 43, 0)" stop-opacity="0.8025974631309509"/>
    </radialGradient>
    <radialGradient id="shape_16_fill" cx="0.27299703264094954" cy="0.9977578475336323" r="0.08110449363640579">
      <stop offset="0.0" stop-color="rgb(31, 35, 19)" stop-opacity="1.0"/>
      <stop offset="1.0" stop-color="rgb(3, 0, 0)" stop-opacity="1.0"/>
    </radialGradient>
    <radialGradient id="shape_17_fill" cx="0.2893175074183976" cy="0.9977578475336323" r="0.07513486030193747">
      <stop offset="0.0" stop-color="rgb(22, 23, 13)" stop-opacity="1.0"/>
      <stop offset="1.0" stop-color="rgb(0, 0, 0)" stop-opacity="0.32897448539733887"/>
    </radialGradient>
    <radialGradient id="shape_18_fill" cx="0.3293768545994065" cy="0.7556053811659192" r="0.06617211022079875">
      <stop offset="0.0" stop-color="rgb(83, 108, 65)" stop-opacity="1.0"/>
      <stop offset="1.0" stop-color="rgb(141, 184, 43)" stop-opacity="0.991676926612854"/>
    </radialGradient>
    <radialGradient id="shape_19_fill" cx="0.3516320474777448" cy="0.9977578475336323" r="0.06617211022079875">
      <stop offset="0.0" stop-color="rgb(95, 135, 39)" stop-opacity="1.0"/>
      <stop offset="1.0" stop-color="rgb(183, 234, 5)" stop-opacity="1.0"/>
    </radialGradient>
    <radialGradient id="shape_20_fill" cx="0.0830860534124629" cy="0.9977578475336323" r="0.06792919147615971">
      <stop offset="0.0" stop-color="rgb(49, 52, 66)" stop-opacity="1.0"/>
      <stop offset="1.0" stop-color="rgb(36, 33, 60)" stop-opacity="0.8575505018234253"/>
    </radialGradient>
    <radialGradient id="shape_21_fill" cx="0.29821958456973297" cy="0.9977578475336323" r="0.06792919147615971">
      <stop offset="0.0" stop-color="rgb(33, 40, 17)" stop-opacity="1.0"/>
      <stop offset="1.0" stop-color="rgb(1, 0, 0)" stop-opacity="0.7486781477928162"/>
    </radialGradient>
    <radialGradient id="shape_22_fill" cx="0.3564296462061851" cy="0.44366701408352016" r="0.06592015342825598">
      <stop offset="0.0" stop-color="rgb(224, 251, 0)" stop-opacity="0.6327664256095886"/>
      <stop offset="0.4375857" stop-color="rgb(209, 239, 13)" stop-opacity="0.8881103992462158"/>
    </radialGradient>
    <radialGradient id="shape_23_fill" cx="0.6454005934718101" cy="0.1412556053811659" r="0.06617211022079875">
      <stop offset="0.0" stop-color="rgb(46, 38, 13)" stop-opacity="1.0"/>
      <stop offset="1.0" stop-color="rgb(37, 0, 0)" stop-opacity="0.9996400475502014"/>
    </radialGradient>
    <radialGradient id="shape_24_fill" cx="0.24925732258873098" cy="0.48430544592339897" r="0.06617141406684672">
      <stop offset="0.0" stop-color="rgb(201, 209, 206)" stop-opacity="1.0"/>
      <stop offset="0.9783569" stop-color="rgb(255, 255, 255)" stop-opacity="0.8186416029930115"/>
    </radialGradient>
    <radialGradient id="shape_25_fill" cx="0.6320474777448071" cy="0.9977578475336323" r="0.06617211022079875">
      <stop offset="0.0" stop-color="rgb(35, 28, 8)" stop-opacity="1.0"/>
      <stop offset="1.0" stop-color="rgb(5, 0, 0)" stop-opacity="0.6595903635025024"/>
    </radialGradient>
    <radialGradient id="shape_26_fill" cx="0.15418910131256375" cy="0.3206832954167251" r="0.06608329116413784">
      <stop offset="0.07833984" stop-color="rgb(196, 208, 151)" stop-opacity="1.0"/>
      <stop offset="0.63340276" stop-color="rgb(177, 175, 255)" stop-opacity="0.23105008900165558"/>
    </radialGradient>
    <radialGradient id="shape_27_fill" cx="0.15410937753558512" cy="0.32080071282493694" r="0.06604677421049124">
      <stop offset="0.0" stop-color="rgb(191, 204, 0)" stop-opacity="1.0"/>
      <stop offset="0.50136817" stop-color="rgb(163, 152, 35)" stop-opacity="0.6458492279052734"/>
    </radialGradient>
    <radialGradient id="shape_28_fill" cx="0.04127327270960596" cy="0.02200757869155952" r="0.06625765791986392">
      <stop offset="0.13701534" stop-color="rgb(0, 5, 105)" stop-opacity="1.0"/>
      <stop offset="0.7255611" stop-color="rgb(0, 20, 122)" stop-opacity="0.8538258075714111"/>
    </radialGradient>
    <radialGradient id="shape_29_fill" cx="0.33976258863681147" cy="0.6659192825112108" r="0.06617211022079875">
      <stop offset="0.0" stop-color="rgb(90, 117, 55)" stop-opacity="1.0"/>
      <stop offset="1.0" stop-color="rgb(159, 196, 26)" stop-opacity="1.0"/>
    </radialGradient>
    <radialGradient id="shape_30_fill" cx="0.0411898757300674" cy="0.02040260041241154" r="0.066452411232787">
      <stop offset="0.33719763" stop-color="rgb(11, 52, 43)" stop-opacity="0.8292792439460754"/>
      <stop offset="1.0" stop-color="rgb(6, 40, 53)" stop-opacity="0.7855396270751953"/>
    </radialGradient>
    <radialGradient id="shape_31_fill" cx="0.12314540059347182" cy="0.9977578475336323" r="0.06617211022079875">
      <stop offset="0.0" stop-color="rgb(95, 103, 98)" stop-opacity="1.0"/>
      <stop offset="1.0" stop-color="rgb(214, 196, 195)" stop-opacity="0.4883187413215637"/>
    </radialGradient>
    <radialGradient id="shape_32_fill" cx="0.4035608308605341" cy="0.984304932735426" r="0.06617211022079875">
      <stop offset="0.0" stop-color="rgb(126, 155, 63)" stop-opacity="1.0"/>
      <stop offset="1.0" stop-color="rgb(212, 221, 17)" stop-opacity="1.0"/>
    </radialGradient>
    <radialGradient id="shape_33_fill" cx="0.3249258160237389" cy="0.6053811659192825" r="0.06617211022079875">
      <stop offset="0.0" stop-color="rgb(93, 124, 71)" stop-opacity="1.0"/>
      <stop offset="1.0" stop-color="rgb(178, 197, 30)" stop-opacity="0.9988775849342346"/>
    </radialGradient>
    <radialGradient id="shape_34_fill" cx="0.6468842729970327" cy="0.531390134529148" r="0.06617211022079875">
      <stop offset="0.0" stop-color="rgb(54, 47, 24)" stop-opacity="1.0"/>
      <stop offset="1.0" stop-color="rgb(68, 25, 0)" stop-opacity="0.9466080069541931"/>
    </radialGradient>
    <radialGradient id="shape_35_fill" cx="0.1421353937256584" cy="0.23389881287989595" r="0.0661625961167876">
      <stop offset="0.012872674" stop-color="rgb(139, 221, 0)" stop-opacity="0.3490152955055237"/>
      <stop offset="0.39498645" stop-color="rgb(215, 241, 0)" stop-opacity="0.26879826188087463"/>
    </radialGradient>
    <radialGradient id="shape_36_fill" cx="0.2878338278931751" cy="0.9977578475336323" r="0.06617211022079875">
      <stop offset="0.0" stop-color="rgb(80, 96, 53)" stop-opacity="1.0"/>
      <stop offset="1.0" stop-color="rgb(101, 97, 56)" stop-opacity="1.0"/>
    </radialGradient>
    <radialGradient id="shape_37_fill" cx="0.129080118694362" cy="0.9977578475336323" r="0.06617211022079875">
      <stop offset="0.0" stop-color="rgb(87, 97, 81)" stop-opacity="1.0"/>
      <stop offset="1.0" stop-color="rgb(159, 150, 74)" stop-opacity="0.8700375556945801"/>
    </radialGradient>
    <radialGradient id="shape_38_fill" cx="0.3389033195880471" cy="0.5607637824499019" r="0.06668553225010722">
      <stop offset="0.6876783" stop-color="rgb(72, 98, 5)" stop-opacity="0.994579553604126"/>
      <stop offset="0.66309285" stop-color="rgb(151, 255, 2)" stop-opacity="0.9961822628974915"/>
    </radialGradient>
    <radialGradient id="shape_39_fill" cx="0.40059347181008903" cy="0.9641255605381166" r="0.06617211022079875">
      <stop offset="0.0" stop-color="rgb(138, 168, 60)" stop-opacity="1.0"/>
      <stop offset="1.0" stop-color="rgb(253, 255, 62)" stop-opacity="1.0"/>
    </radialGradient>
    <radialGradient id="shape_40_fill" cx="0.6172293824328867" cy="0.8833933603603209" r="0.06616001525335567">
      <stop offset="0.0" stop-color="rgb(0, 8, 0)" stop-opacity="1.0"/>
      <stop offset="0.79251504" stop-color="rgb(0, 0, 0)" stop-opacity="1.0"/>
    </radialGradient>
    <radialGradient id="shape_41_fill" cx="0.6454005934718101" cy="0.08744394618834081" r="0.06617211022079875">
      <stop offset="0.0" stop-color="rgb(58, 48, 21)" stop-opacity="1.0"/>
      <stop offset="1.0" stop-color="rgb(70, 26, 0)" stop-opacity="0.9553558230400085"/>
    </radialGradient>
    <radialGradient id="shape_42_fill" cx="0.5845697329376854" cy="0.6188340807174888" r="0.06617211022079875">
      <stop offset="0.0" stop-color="rgb(62, 59, 56)" stop-opacity="1.0"/>
      <stop offset="1.0" stop-color="rgb(34, 19, 40)" stop-opacity="0.8836510181427002"/>
    </radialGradient>
    <radialGradient id="shape_43_fill" cx="0.35763398122362994" cy="0.506717733203563" r="0.06620057329579701">
      <stop offset="0.17519033" stop-color="rgb(199, 234, 8)" stop-opacity="0.9987733364105225"/>
      <stop offset="0.6424638" stop-color="rgb(206, 251, 6)" stop-opacity="0.9993582963943481"/>
    </radialGradient>
    <radialGradient id="shape_44_fill" cx="0.5934718100890207" cy="0.9977578475336323" r="0.06617211022079875">
      <stop offset="0.0" stop-color="rgb(89, 61, 18)" stop-opacity="1.0"/>
      <stop offset="1.0" stop-color="rgb(185, 62, 0)" stop-opacity="0.7369398474693298"/>
    </radialGradient>
    <radialGradient id="shape_45_fill" cx="0.612759643916914" cy="0.04035874439461883" r="0.06617211022079875">
      <stop offset="0.0" stop-color="rgb(157, 136, 123)" stop-opacity="1.0"/>
      <stop offset="1.0" stop-color="rgb(255, 242, 212)" stop-opacity="1.0"/>
    </radialGradient>
    <radialGradient id="shape_46_fill" cx="0.28635014836795253" cy="0.9977578475336323" r="0.06617211022079875">
      <stop offset="0.0" stop-color="rgb(82, 99, 55)" stop-opacity="1.0"/>
      <stop offset="1.0" stop-color="rgb(150, 161, 33)" stop-opacity="0.16185441613197327"/>
    </radialGradient>
    <radialGradient id="shape_47_fill" cx="0.28635014836795253" cy="0.8183856502242153" r="0.06617211022079875">
      <stop offset="0.0" stop-color="rgb(166, 189, 197)" stop-opacity="1.0"/>
      <stop offset="1.0" stop-color="rgb(255, 255, 255)" stop-opacity="0.7383356094360352"/>
    </radialGradient>
    <radialGradient id="shape_48_fill" cx="0.40801186943620177" cy="0.9977578475336323" r="0.06617211022079875">
      <stop offset="0.0" stop-color="rgb(107, 135, 68)" stop-opacity="1.0"/>
      <stop offset="1.0" stop-color="rgb(189, 203, 55)" stop-opacity="1.0"/>
    </radialGradient>
    <radialGradient id="shape_49_fill" cx="0.19287833827893175" cy="0.3991031390134529" r="0.06617211022079875">
      <stop offset="0.0" stop-color="rgb(92, 100, 54)" stop-opacity="1.0"/>
      <stop offset="1.0" stop-color="rgb(202, 188, 18)" stop-opacity="0.4635154902935028"/>
    </radialGradient>
    <radialGradient id="shape_50_fill" cx="0.6439169139465876" cy="0.7376681614349776" r="0.06617211022079875">
      <stop offset="0.0" stop-color="rgb(65, 56, 25)" stop-opacity="1.0"/>
      <stop offset="1.0" stop-color="rgb(96, 171, 61)" stop-opacity="0.6443930864334106"/>
    </radialGradient>
    <radialGradient id="shape_51_fill" cx="0.5845697329376854" cy="0.6322869955156951" r="0.06617211022079875">
      <stop offset="0.0" stop-color="rgb(75, 68, 60)" stop-opacity="1.0"/>
      <stop offset="1.0" stop-color="rgb(120, 86, 73)" stop-opacity="0.8248705863952637"/>
    </radialGradient>
    <radialGradient id="shape_52_fill" cx="0.2997032640949555" cy="0.6031390134529148" r="0.06617211022079875">
      <stop offset="0.0" stop-color="rgb(107, 158, 118)" stop-opacity="1.0"/>
      <stop offset="1.0" stop-color="rgb(220, 255, 226)" stop-opacity="0.8609303832054138"/>
    </radialGradient>
    <radialGradient id="shape_53_fill" cx="0.6097922848664689" cy="0.45067264573991034" r="0.06617211022079875">
      <stop offset="0.0" stop-color="rgb(38, 39, 27)" stop-opacity="1.0"/>
      <stop offset="1.0" stop-color="rgb(17, 0, 0)" stop-opacity="0.6427286267280579"/>
    </radialGradient>
    <radialGradient id="shape_54_fill" cx="0.6335311572700296" cy="0.426009002822397" r="0.06617211022079875">
      <stop offset="0.0" stop-color="rgb(67, 49, 20)" stop-opacity="1.0"/>
      <stop offset="1.0" stop-color="rgb(104, 19, 0)" stop-opacity="0.8061333894729614"/>
    </radialGradient>
    <radialGradient id="shape_55_fill" cx="0.3705495047640022" cy="0.5989791801692125" r="0.06597485528147892">
      <stop offset="0.0" stop-color="rgb(255, 255, 15)" stop-opacity="0.9269611835479736"/>
      <stop offset="0.32068366" stop-color="rgb(250, 255, 25)" stop-opacity="0.8903038501739502"/>
    </radialGradient>
    <radialGradient id="shape_56_fill" cx="0.5489614243323442" cy="0.600896860986547" r="0.06617211022079875">
      <stop offset="0.0" stop-color="rgb(50, 62, 80)" stop-opacity="1.0"/>
      <stop offset="1.0" stop-color="rgb(37, 53, 132)" stop-opacity="0.7537406086921692"/>
    </radialGradient>
    <radialGradient id="shape_57_fill" cx="0.4094955489614243" cy="0.9035874439461884" r="0.06617211022079875">
      <stop offset="0.0" stop-color="rgb(111, 144, 47)" stop-opacity="1.0"/>
      <stop offset="1.0" stop-color="rgb(211, 239, 16)" stop-opacity="0.9647277593612671"/>
    </radialGradient>
    <radialGradient id="shape_58_fill" cx="0.5281899109792285" cy="0.9977578475336323" r="0.06617211022079875">
      <stop offset="0.0" stop-color="rgb(50, 43, 14)" stop-opacity="1.0"/>
      <stop offset="1.0" stop-color="rgb(53, 3, 0)" stop-opacity="0.9374120235443115"/>
    </radialGradient>
    <radialGradient id="shape_59_fill" cx="0.5845697329376854" cy="0.7690582959641256" r="0.06617211022079875">
      <stop offset="0.0" stop-color="rgb(61, 63, 58)" stop-opacity="1.0"/>
      <stop offset="1.0" stop-color="rgb(72, 69, 83)" stop-opacity="0.7656199336051941"/>
    </radialGradient>
    <radialGradient id="shape_60_fill" cx="0.5489614243323442" cy="0.9977578475336323" r="0.06617211022079875">
      <stop offset="0.0" stop-color="rgb(140, 131, 64)" stop-opacity="1.0"/>
      <stop offset="1.0" stop-color="rgb(254, 220, 57)" stop-opacity="0.9628664255142212"/>
    </radialGradient>
    <radialGradient id="shape_61_fill" cx="0.6468877141482752" cy="0.9686050757164378" r="0.06617186119011673">
      <stop offset="0.091680996" stop-color="rgb(255, 144, 0)" stop-opacity="1.0"/>
      <stop offset="0.9735744" stop-color="rgb(255, 142, 0)" stop-opacity="1.0"/>
    </radialGradient>
    <radialGradient id="shape_62_fill" cx="0.615727002967359" cy="0.3991031390134529" r="0.06617211022079875">
      <stop offset="0.0" stop-color="rgb(55, 47, 13)" stop-opacity="1.0"/>
      <stop offset="1.0" stop-color="rgb(74, 16, 0)" stop-opacity="0.9858192205429077"/>
    </radialGradient>
    <radialGradient id="shape_63_fill" cx="0.6261127596439169" cy="0.7286995515695067" r="0.06617211022079875">
      <stop offset="0.0" stop-color="rgb(79, 66, 32)" stop-opacity="1.0"/>
      <stop offset="1.0" stop-color="rgb(203, 221, 90)" stop-opacity="0.8119193911552429"/>
    </radialGradient>
    <radialGradient id="shape_64_fill" cx="0.40801186943620177" cy="0.12556053811659193" r="0.06617211022079875">
      <stop offset="0.0" stop-color="rgb(76, 66, 59)" stop-opacity="1.0"/>
      <stop offset="1.0" stop-color="rgb(100, 64, 54)" stop-opacity="1.0"/>
    </radialGradient>
    <radialGradient id="shape_65_fill" cx="0.6528189910979229" cy="0.6883408071748879" r="0.06617211022079875">
      <stop offset="0.0" stop-color="rgb(121, 97, 39)" stop-opacity="1.0"/>
      <stop offset="1.0" stop-color="rgb(255, 255, 94)" stop-opacity="1.0"/>
    </radialGradient>
    <radialGradient id="shape_66_fill" cx="0.6497993808825575" cy="0.46098638970755673" r="0.06708105523083967">
      <stop offset="0.5907279" stop-color="rgb(190, 228, 0)" stop-opacity="0.2405797690153122"/>
      <stop offset="1.0" stop-color="rgb(31, 21, 0)" stop-opacity="0.06116229295730591"/>
    </radialGradient>
    <radialGradient id="shape_67_fill" cx="0.5932149915383902" cy="0.9957158383767166" r="0.06758673466985232">
      <stop offset="0.8766571" stop-color="rgb(49, 29, 0)" stop-opacity="0.8742848634719849"/>
      <stop offset="1.0" stop-color="rgb(11, 18, 0)" stop-opacity="0.14726486802101135"/>
    </radialGradient>
    <radialGradient id="shape_68_fill" cx="0.4880738753593286" cy="0.996518669641606" r="0.06728145135262599">
      <stop offset="0.46772027" stop-color="rgb(45, 35, 31)" stop-opacity="0.7761479616165161"/>
      <stop offset="1.0" stop-color="rgb(57, 75, 76)" stop-opacity="0.3879163861274719"/>
    </radialGradient>
  </defs>
  <g>
    <path d="M -0.27727818489074707 271.0831604003906 C 25.679763793945312 270.4508972167969 34.563812255859375 271.45330810546875 44.31456756591797 273.67950439453125 C 48.05362319946289 275.4097595214844 49.367164611816406 276.7145690917969 57.1634635925293 274.54034423828125 C 60.510162353515625 273.9295654296875 63.78616714477539 274.5697937011719 65.98942565917969 275.3798522949219 C 74.51500701904297 273.23944091796875 104.13640594482422 272.81658935546875 112.31614685058594 273.5189514160156 C 115.06665802001953 277.3721008300781 126.76189422607422 277.1450500488281 127.48233795166016 280.5752258300781 C 134.40516662597656 281.7774963378906 140.90467834472656 281.0330810546875 149.12733459472656 281.8135681152344 C 185.26223754882812 281.7572021484375 185.75352478027344 282.5262451171875 203.91973876953125 283.80133056640625 C 200.71820068359375 290.8106994628906 199.65802001953125 283.3258361816406 218.1672821044922 277.96002197265625 C 237.9617156982422 279.33074951171875 280.7247009277344 278.65631103515625 304.5700988769531 284.08990478515625 C 337.1700134277344 285.96087646484375 416.4493408203125 285.479248046875 456.7120666503906 283.3193359375 C 482.94024658203125 283.0827331542969 532.1424560546875 284.7505798339844 540.5142211914062 286.888671875 C 549.353271484375 287.0005798339844 550.9271240234375 283.638671875 561.2232055664062 282.33380126953125 C 571.135986328125 285.8005676269531 609.845703125 286.5815124511719 615.0499267578125 286.8861389160156 C 638.4699096679688 282.3410339355469 648.4874877929688 282.9554748535156 659.7614135742188 282.9140319824219 C 664.4679565429688 283.9586486816406 669.9561767578125 288.6016540527344 672.3544921875 292.48565673828125 C 674.3687744140625 340.5996398925781 673.8723754882812 392.5338134765625 674.1433715820312 445.3190002441406 C 451.48687744140625 445.6205139160156 229.17176818847656 445.65655517578125 0.14925558865070343 445.4140930175781 C -0.3881678581237793 389.13153076171875 0.27713027596473694 332.3587341308594 -0.27727818489074707 271.0831604003906" stroke-width="0.0" fill="url(#shape_0_fill)"/>
    <path d="M 0.015479877591133118 272.1636047363281 C 35.933231353759766 275.4002990722656 36.557334899902344 274.5918273925781 44.458740234375 276.54681396484375 C 56.439735412597656 275.7930908203125 67.99403381347656 274.6609802246094 77.10397338867188 275.1915588378906 C 113.41200256347656 278.6828308105469 113.99663543701172 279.3117980957031 126.0184326171875 280.38165283203125 C 130.220947265625 279.7560729980469 154.4947052001953 279.88421630859375 157.68817138671875 278.8273010253906 C 185.03123474121094 277.94415283203125 185.57057189941406 279.642578125 199.0971221923828 281.4820556640625 C 202.34579467773438 291.2052917480469 204.67184448242188 290.51495361328125 220.1132049560547 288.57135009765625 C 226.254638671875 287.4348449707031 278.4778747558594 288.99920654296875 299.30303955078125 289.9400939941406 C 328.44586181640625 291.6933288574219 443.69580078125 289.4816589355469 449.065673828125 289.7281799316406 C 469.40985107421875 288.9083251953125 485.87847900390625 289.50726318359375 503.862060546875 286.8410339355469 C 508.41607666015625 286.9974365234375 516.318115234375 285.8905029296875 522.8076171875 286.3953857421875 C 527.5307006835938 285.6689453125 531.8888549804688 285.8645324707031 535.1513671875 286.9924621582031 C 543.9949340820312 286.64068603515625 551.6248779296875 287.7333068847656 559.9099731445312 289.39569091796875 C 569.4832763671875 286.9206237792969 579.4221801757812 287.7516784667969 587.1647338867188 289.0343017578125 C 604.4193725585938 288.4853210449219 618.4807739257812 287.7799377441406 631.86572265625 288.2748107910156 C 646.1679077148438 283.8485412597656 658.6806030273438 287.0677185058594 674.2528076171875 288.7720031738281 C 673.8129272460938 340.8739013671875 674.4092407226562 392.30413818359375 674.1441040039062 446.2807922363281 C 451.4774169921875 446.3905334472656 229.19664001464844 446.25439453125 -0.30753758549690247 446.2476501464844 C -0.21345406770706177 389.4035949707031 -0.29310110211372375 333.0296630859375 0.015479877591133118 272.1636047363281" stroke-width="0.0" fill="url(#shape_1_fill)"/>
    <path d="M -0.21179449558258057 -0.2598004937171936 C 219.69313049316406 0.10372019559144974 439.4786682128906 -0.4514942169189453 669.7849731445312 -0.3637802004814148 C 661.9706420898438 7.579718112945557 645.0786743164062 35.866119384765625 637.7579345703125 47.668243408203125 C 636.7389526367188 54.6794319152832 612.033935546875 94.38472747802734 585.4268798828125 84.18842315673828 C 578.2260131835938 81.45086669921875 558.1520385742188 71.00050354003906 531.6234741210938 72.19475555419922 C 531.06640625 73.71187591552734 525.4598999023438 76.22553253173828 523.1779174804688 71.25484466552734 C 522.8355712890625 68.11345672607422 501.68585205078125 61.71608352661133 500.6711730957031 61.98586654663086 C 492.08099365234375 61.86000442504883 485.2505798339844 60.572330474853516 480.2718811035156 68.37047576904297 C 474.49322509765625 69.406494140625 474.67364501953125 73.52307891845703 474.3210144042969 77.16536712646484 C 476.4826965332031 89.95193481445312 466.6024475097656 106.10384368896484 462.4215393066406 110.77662658691406 C 457.6521911621094 112.56526184082031 452.656982421875 110.92150115966797 450.8756408691406 109.5491943359375 C 437.38726806640625 106.04598999023438 411.2083435058594 103.02851867675781 410.40240478515625 105.2896499633789 C 405.4392395019531 115.30406188964844 405.3631896972656 119.76790618896484 402.00311279296875 126.05558776855469 C 400.1472473144531 134.4086151123047 393.0776062011719 137.5225830078125 389.1785888671875 138.19017028808594 C 378.4355773925781 140.827392578125 375.6007995605469 157.8175506591797 374.1852111816406 160.46044921875 C 373.61773681640625 166.2993621826172 372.4241027832031 170.3963623046875 368.95306396484375 174.95509338378906 C 366.8658447265625 177.3013153076172 363.5623779296875 176.40370178222656 353.292724609375 181.33901977539062 C 346.8835144042969 189.0199737548828 336.453125 180.34976196289062 324.78155517578125 178.2043914794922 C 311.8052673339844 178.68719482421875 311.2049865722656 185.0830535888672 309.5040283203125 187.67835998535156 C 308.6051330566406 192.34019470214844 306.6495056152344 194.6391143798828 307.78302001953125 201.39276123046875 C 307.1629333496094 201.10745239257812 304.3482971191406 199.37705993652344 303.6795654296875 195.19883728027344 C 300.77301025390625 192.50511169433594 296.5968933105469 193.63516235351562 290.4400634765625 189.1666259765625 C 291.8675537109375 193.7471923828125 290.1634826660156 196.48040771484375 289.00439453125 196.50099182128906 C 283.9264221191406 193.72702026367188 282.29071044921875 188.895263671875 281.7016296386719 188.35589599609375 C 274.1085510253906 189.1474609375 272.3343200683594 191.12953186035156 268.0694274902344 189.2898712158203 C 261.60955810546875 188.9649200439453 260.98565673828125 194.3386688232422 260.20953369140625 197.70956420898438 C 261.0521545410156 199.23739624023438 260.7451477050781 200.78338623046875 257.64801025390625 200.95375061035156 C 256.99029541015625 200.8577117919922 251.23916625976562 200.30502319335938 250.79910278320312 197.68043518066406 C 249.21290588378906 192.2761993408203 250.02113342285156 190.4561004638672 246.60214233398438 178.67295837402344 C 250.68795776367188 172.58045959472656 216.37338256835938 141.7535858154297 214.25326538085938 139.6794891357422 C 184.1300506591797 121.70747375488281 195.1491241455078 100.11834716796875 192.37474060058594 89.13945007324219 C 193.90455627441406 83.85206604003906 157.234375 72.30924224853516 143.75482177734375 65.7873306274414 C 120.42582702636719 39.827762603759766 65.41407012939453 52.67253494262695 37.18562698364258 62.80995559692383 C 16.01565933227539 70.11311340332031 12.447011947631836 68.6279525756836 -0.2583550214767456 69.63357543945312 C 0.33802905678749084 43.987884521484375 -0.3334064185619354 22.570783615112305 -0.21179449558258057 -0.2598004937171936" stroke-width="0.0" fill="url(#shape_2_fill)"/>
    <path d="M 86.2050552368164 68.16535949707031 C 88.36746978759766 69.46086120605469 92.50231170654297 68.61527252197266 93.73442840576172 69.07172393798828 C 90.50235748291016 77.32516479492188 91.5505599975586 82.27288818359375 91.49772644042969 84.71160125732422 C 96.4962158203125 82.98772430419922 97.42971801757812 85.4981918334961 103.16503143310547 86.31294250488281 C 102.772216796875 76.70246124267578 105.05821990966797 75.33007049560547 109.53680419921875 76.70811462402344 C 111.60063934326172 87.77462005615234 112.04141235351562 94.5217514038086 115.73136901855469 99.54564666748047 C 116.71295928955078 100.08211517333984 116.74838256835938 108.53328704833984 115.40961456298828 115.74325561523438 C 124.47232818603516 114.415771484375 129.0996551513672 114.57044982910156 129.23255920410156 111.55033874511719 C 129.3316192626953 107.70470428466797 136.28439331054688 106.42037200927734 136.43466186523438 104.43429565429688 C 136.5956268310547 103.69467163085938 135.5284423828125 101.7938232421875 136.9941864013672 97.98573303222656 C 136.44796752929688 93.25300598144531 137.463623046875 92.87217712402344 137.1027374267578 88.92170715332031 C 137.2689208984375 84.85167694091797 138.61172485351562 84.7313003540039 139.02215576171875 85.62969970703125 C 139.6656494140625 82.0302505493164 146.60580444335938 80.70284271240234 147.8742218017578 83.75450897216797 C 147.2388153076172 87.56733703613281 151.03659057617188 95.58232116699219 152.13140869140625 98.97278594970703 C 153.45875549316406 103.07062530517578 149.9295654296875 106.89508819580078 148.8218536376953 106.66455841064453 C 152.8528594970703 110.01693725585938 150.77500915527344 114.22176361083984 148.67750549316406 113.48892974853516 C 155.10345458984375 112.64673614501953 158.3707733154297 122.5038070678711 158.1728973388672 123.03318786621094 C 161.99203491210938 124.68502807617188 164.82139587402344 123.32848358154297 170.0009002685547 123.03889465332031 C 175.05191040039062 119.34114074707031 175.19390869140625 121.63890075683594 177.5355224609375 122.54275512695312 C 179.31005859375 122.68417358398438 179.87754821777344 125.57841491699219 182.56655883789062 127.83221435546875 C 183.84176635742188 130.2287139892578 182.3900604248047 133.14837646484375 183.24160766601562 135.74339294433594 C 186.3524627685547 135.29525756835938 187.61183166503906 142.97140502929688 188.96656799316406 144.84365844726562 C 192.73927307128906 145.7848358154297 204.40370178222656 157.93873596191406 203.12171936035156 172.6051025390625 C 205.5968780517578 173.83746337890625 204.93418884277344 177.84510803222656 205.13287353515625 183.104736328125 C 210.5472869873047 182.02247619628906 215.33546447753906 200.07688903808594 211.3928985595703 203.06385803222656 C 208.5531005859375 207.2191925048828 203.44149780273438 208.14334106445312 203.13856506347656 210.29989624023438 C 200.80349731445312 210.53744506835938 199.91653442382812 211.6901397705078 200.2977752685547 213.6508331298828 C 196.3058319091797 215.71682739257812 193.79254150390625 215.42970275878906 191.8356170654297 219.55520629882812 C 184.28720092773438 221.11228942871094 183.60401916503906 224.8009033203125 179.04310607910156 230.51715087890625 C 176.16725158691406 233.62660217285156 179.09866333007812 240.0786590576172 179.9364776611328 242.76025390625 C 179.6549072265625 250.62327575683594 184.2947998046875 258.677978515625 176.63113403320312 264.0315856933594 C 173.97398376464844 267.92877197265625 148.8472137451172 268.1897277832031 139.7754364013672 269.96722412109375 C 128.9431915283203 266.6159362792969 123.52543640136719 268.5176086425781 115.58385467529297 270.8197326660156 C 108.20182037353516 275.9229431152344 73.4652328491211 274.8216857910156 73.53267669677734 269.7533874511719 C 47.61888885498047 266.697998046875 56.50080871582031 268.5440979003906 56.20383834838867 273.31353759765625 C 45.222068786621094 276.53338623046875 0.4733441472053528 274.23602294921875 0.46680399775505066 271.1759033203125 C -1.891908049583435 218.2191619873047 -1.2500314712524414 166.68670654296875 -2.010280132293701 116.48856353759766 C 8.459181785583496 118.78074645996094 16.134248733520508 119.32656860351562 24.110782623291016 125.73212432861328 C 30.728347778320312 126.85930633544922 36.78105545043945 127.89936065673828 40.99455642700195 131.26226806640625 C 46.60591125488281 131.768310546875 46.472259521484375 137.21963500976562 49.69769287109375 139.8631134033203 C 50.760101318359375 143.50230407714844 61.86555099487305 144.73989868164062 62.559165954589844 142.69886779785156 C 62.04600524902344 136.67442321777344 63.0189208984375 133.8139190673828 62.84454345703125 126.82532501220703 C 68.27491760253906 125.08489227294922 67.2279281616211 121.74274444580078 65.37235260009766 112.37471008300781 C 67.4376449584961 110.95172119140625 67.94297790527344 105.13714599609375 75.85528564453125 104.68604278564453 C 75.59912872314453 103.48722076416016 76.96610260009766 91.54462432861328 75.57477569580078 85.26692199707031 C 78.12744903564453 84.18167877197266 79.29983520507812 73.49989318847656 84.9162826538086 73.86724090576172 C 82.87259674072266 70.15508270263672 84.83658599853516 67.64889526367188 86.2050552368164 68.16535949707031" stroke-width="0.0" fill="url(#shape_3_fill)"/>
    <path d="M 672.794189453125 0.3871215879917145 C 674.8690795898438 48.81475830078125 674.5355224609375 96.13507843017578 675.5097045898438 144.11000061035156 C 669.0787963867188 136.2074432373047 664.5186767578125 128.7719268798828 661.69140625 120.27300262451172 C 661.0429077148438 119.81448364257812 655.223876953125 109.24286651611328 649.415283203125 110.88472747802734 C 648.3876953125 112.49597930908203 643.4442749023438 146.4817657470703 640.4529418945312 152.79396057128906 C 632.6171264648438 153.98434448242188 627.45263671875 141.15194702148438 627.875244140625 138.15606689453125 C 622.9011840820312 137.30824279785156 618.5847778320312 145.3382110595703 615.3670043945312 143.80674743652344 C 611.5458984375 142.1603546142578 610.2587890625 143.7159881591797 607.9239501953125 140.91253662109375 C 607.526611328125 137.38401794433594 608.4075317382812 133.2757110595703 604.38427734375 126.84207916259766 C 598.1046752929688 133.6888427734375 597.6143188476562 139.46961975097656 595.1663818359375 144.5009307861328 C 595.1973876953125 148.85264587402344 593.7031860351562 150.9115447998047 594.4286499023438 154.06689453125 C 590.0606689453125 158.18544006347656 588.3016967773438 165.15945434570312 581.3693237304688 170.16378784179688 C 571.4633178710938 170.0994415283203 569.6610107421875 160.5169219970703 568.9679565429688 157.4580535888672 C 566.3638305664062 157.1267852783203 564.2839965820312 153.33462524414062 561.4141235351562 153.78221130371094 C 559.9926147460938 150.7393035888672 554.9628295898438 150.33203125 554.0968017578125 153.50341796875 C 551.4785766601562 155.64529418945312 550.849609375 159.2182159423828 548.7315673828125 160.91851806640625 C 546.3086547851562 158.6635284423828 541.7149658203125 160.55386352539062 535.8771362304688 154.50875854492188 C 531.6898803710938 154.6546630859375 529.8713989257812 157.75836181640625 524.1560668945312 157.71609497070312 C 518.0170288085938 161.2075958251953 520.8670654296875 161.38607788085938 522.5922241210938 169.85899353027344 C 517.4871215820312 169.9848175048828 515.8679809570312 165.03028869628906 516.5921020507812 171.27012634277344 C 510.4580993652344 173.34945678710938 511.05975341796875 175.23008728027344 505.64532470703125 174.359130859375 C 503.10260009765625 171.22329711914062 502.9238586425781 169.6422119140625 502.990966796875 166.38565063476562 C 498.2993469238281 150.2200164794922 512.3111572265625 126.07135772705078 521.815185546875 128.6826629638672 C 523.080322265625 123.72283172607422 537.2221069335938 112.29696655273438 548.3799438476562 112.71634674072266 C 558.3021240234375 110.41342163085938 556.1514282226562 109.69746398925781 556.1797485351562 105.8005599975586 C 561.7537231445312 106.68881225585938 566.148681640625 103.82440948486328 571.8099365234375 105.31873321533203 C 574.7177124023438 102.80731964111328 573.45361328125 97.51282501220703 578.89794921875 94.12019348144531 C 579.9407958984375 87.40776824951172 600.832275390625 78.6373519897461 612.897705078125 78.42283630371094 C 615.6168823242188 72.34188842773438 642.2962036132812 49.62575912475586 644.0159912109375 35.26856994628906 C 644.9507446289062 32.42503356933594 647.9837036132812 30.377716064453125 647.5949096679688 29.495586395263672 C 646.76708984375 28.239849090576172 663.5774536132812 -3.7334978580474854 672.794189453125 0.3871215879917145" stroke-width="0.0" fill="url(#shape_4_fill)"/>
    <path d="M 151.61788940429688 68.58568572998047 C 152.32644653320312 68.9465560913086 187.4332733154297 82.90719604492188 192.91915893554688 90.70825958251953 C 179.3251495361328 116.93063354492188 215.74305725097656 153.06590270996094 220.6456756591797 154.9285888671875 C 239.02174377441406 169.723876953125 242.84217834472656 184.69268798828125 241.0701141357422 194.0721893310547 C 237.69931030273438 193.9873046875 236.76382446289062 185.78518676757812 236.76348876953125 184.0531768798828 C 235.66790771484375 183.60385131835938 234.1630401611328 184.2798309326172 231.1143341064453 182.74708557128906 C 231.90834045410156 183.27151489257812 230.58120727539062 192.4689178466797 227.92599487304688 196.01182556152344 C 227.87828063964844 196.18324279785156 227.30355834960938 205.64109802246094 221.3206024169922 207.75732421875 C 215.03262329101562 206.61203002929688 214.25531005859375 198.03475952148438 214.6515350341797 194.86082458496094 C 212.96046447753906 185.4332275390625 211.8984832763672 184.94175720214844 206.359619140625 177.60057067871094 C 204.42816162109375 172.2050018310547 205.91795349121094 165.4830780029297 205.782958984375 159.71856689453125 C 206.187255859375 153.8307647705078 196.1167449951172 143.46156311035156 192.63632202148438 141.756103515625 C 189.03933715820312 140.34535217285156 188.7837371826172 137.86141967773438 187.9112091064453 134.14437866210938 C 182.23231506347656 130.56346130371094 183.2563018798828 123.3709945678711 183.57568359375 118.04519653320312 C 178.8851776123047 116.0905532836914 177.9369354248047 117.90401458740234 173.65782165527344 117.94034576416016 C 176.68927001953125 127.02696990966797 172.22225952148438 130.26837158203125 154.4158172607422 128.04356384277344 C 152.76463317871094 123.02787017822266 150.19808959960938 102.49358367919922 153.41204833984375 96.52340698242188 C 152.8750762939453 88.61194610595703 153.72450256347656 83.00337219238281 150.14044189453125 76.325927734375 C 148.472900390625 75.92684936523438 149.08001708984375 69.32785034179688 151.61788940429688 68.58568572998047" stroke-width="0.0" fill="url(#shape_5_fill)"/>
    <path d="M 613.2219848632812 83.49079132080078 C 618.58544921875 84.19133758544922 619.6232299804688 85.8546142578125 630.7735595703125 85.69570922851562 C 636.835205078125 85.94086456298828 637.8690185546875 87.6181869506836 641.2571411132812 87.79869079589844 C 642.150390625 87.51185607910156 669.1431884765625 91.85717010498047 673.89892578125 98.47085571289062 C 673.7731323242188 112.59825134277344 673.3239135742188 128.797607421875 673.6447143554688 142.93865966796875 C 670.3099975585938 137.9124298095703 665.68896484375 133.63133239746094 661.20703125 128.16116333007812 C 660.4033813476562 121.40767669677734 660.5327758789062 115.72203063964844 653.1504516601562 111.50499725341797 C 647.7666015625 116.62948608398438 645.06005859375 142.3550567626953 642.0422973632812 143.27944946289062 C 643.4153442382812 145.65623474121094 641.5501098632812 148.79452514648438 640.8433837890625 149.01898193359375 C 639.7009887695312 150.9657745361328 638.0849609375 151.99513244628906 634.689697265625 149.7322235107422 C 631.3673706054688 146.77493286132812 629.3576049804688 141.22946166992188 629.9429321289062 140.6904296875 C 628.9213256835938 138.07012939453125 623.859619140625 137.0584716796875 620.8436889648438 138.56504821777344 C 618.2216186523438 140.5522003173828 619.2645874023438 142.3569793701172 618.7581176757812 144.20216369628906 C 614.5152587890625 144.48129272460938 614.1520385742188 143.11907958984375 610.2429809570312 143.74754333496094 C 608.5565795898438 140.40538024902344 609.5993041992188 139.24591064453125 609.4443969726562 137.365234375 C 606.6104125976562 132.2510986328125 604.7308349609375 126.53158569335938 597.2799072265625 127.9371337890625 C 600.1924438476562 136.52951049804688 594.8222045898438 150.1427764892578 592.095947265625 157.67465209960938 C 590.7625122070312 163.9378662109375 589.485595703125 164.20960998535156 586.1311645507812 168.01895141601562 C 582.6689453125 168.3627471923828 579.6842651367188 167.62843322753906 576.7599487304688 166.2791290283203 C 573.5715942382812 164.90390014648438 572.802978515625 160.48385620117188 571.6713256835938 157.3720245361328 C 567.8612670898438 154.84207153320312 556.1859130859375 154.23606872558594 556.30615234375 151.22073364257812 C 555.8200073242188 152.87611389160156 553.0717163085938 154.70252990722656 552.874755859375 157.7424774169922 C 549.9539184570312 161.4426727294922 547.9161987304688 160.90248107910156 547.2610473632812 159.84425354003906 C 542.4246215820312 159.05392456054688 539.5302124023438 157.6096649169922 536.0855102539062 157.0709991455078 C 534.8125610351562 158.16171264648438 531.5219116210938 157.00640869140625 528.4483032226562 157.9757537841797 C 526.0332641601562 159.2050018310547 526.0703125 162.14805603027344 524.9154052734375 164.83743286132812 C 524.071044921875 169.03228759765625 522.6373901367188 171.26866149902344 518.9334106445312 173.05088806152344 C 510.886474609375 177.65757751464844 503.1673889160156 173.39378356933594 500.73992919921875 171.58274841308594 C 495.9862365722656 148.7799835205078 511.41644287109375 127.65984344482422 519.2938842773438 124.7081298828125 C 525.4896850585938 120.66973114013672 540.3085327148438 113.35012817382812 551.9703369140625 112.10091400146484 C 555.3680419921875 109.8575668334961 559.9974365234375 109.72232818603516 563.7277221679688 106.6627426147461 C 564.636962890625 104.54631042480469 566.870361328125 103.60970306396484 569.6926879882812 103.89153289794922 C 575.0382690429688 101.6257095336914 578.307373046875 97.06864929199219 583.5165405273438 94.33968353271484 C 593.9166870117188 87.2741928100586 602.2290649414062 80.92449951171875 613.2219848632812 83.49079132080078" stroke-width="0.0" fill="url(#shape_6_fill)"/>
    <path d="M 3.7246451377868652 117.87197875976562 C 26.003597259521484 124.6600570678711 36.88439178466797 129.0392608642578 48.46279525756836 138.50660705566406 C 71.1579360961914 159.82176208496094 52.337100982666016 224.7087860107422 56.45518112182617 246.71092224121094 C 53.187896728515625 260.3007507324219 48.723087310791016 264.6813049316406 48.5637092590332 266.4144287109375 C 39.09946060180664 274.58013916015625 3.6498427391052246 270.712158203125 0.7661828994750977 268.6152648925781 C 0.517305850982666 218.2608184814453 0.20026609301567078 167.3070526123047 3.7246451377868652 117.87197875976562" stroke-width="0.0" fill="url(#shape_7_fill)"/>
    <path d="M 393.5159912109375 181.3589324951172 C 410.6335754394531 173.91961669921875 426.52252197265625 191.80540466308594 432.3802185058594 209.03115844726562 C 468.4016418457031 197.34197998046875 491.0669860839844 211.49301147460938 491.6277160644531 236.1385040283203 C 490.984375 250.48410034179688 486.1560974121094 251.467529296875 484.8458557128906 252.33619689941406 C 485.31634521484375 254.51312255859375 479.0793762207031 265.03521728515625 474.8370666503906 268.45703125 C 469.0430603027344 272.9305419921875 453.2210388183594 266.7112731933594 451.62945556640625 269.68035888671875 C 446.9710693359375 266.2762756347656 448.21820068359375 261.2279357910156 448.9759826660156 260.1618957519531 C 439.2511901855469 264.719970703125 436.4944763183594 261.3729553222656 437.42462158203125 256.9051818847656 C 428.3567199707031 257.1287536621094 426.6600646972656 259.5740661621094 421.2318420410156 262.2486267089844 C 418.5391845703125 264.2608642578125 417.4998474121094 267.5942077636719 414.8233947753906 269.96527099609375 C 414.1306457519531 269.7478942871094 397.9103698730469 267.8028259277344 392.5914001464844 264.1527404785156 C 391.8272705078125 265.09356689453125 389.04248046875 263.31805419921875 386.0594177246094 263.5159606933594 C 382.1156005859375 261.9399108886719 380.8226013183594 263.17401123046875 376.68927001953125 260.9706726074219 C 375.1153869628906 256.2904357910156 376.2433776855469 252.43038940429688 372.9430236816406 249.0819549560547 C 360.22540283203125 244.116455078125 376.3891296386719 197.9851837158203 379.0057067871094 182.8708953857422 C 383.802001953125 171.87379455566406 395.3980407714844 176.1376953125 393.5159912109375 181.3589324951172" stroke-width="0.0" fill="url(#shape_8_fill)"/>
    <path d="M 565.61376953125 157.44631958007812 C 568.5598754882812 158.98129272460938 569.9989013671875 162.5706024169922 570.4398193359375 165.4532012939453 C 573.9010009765625 169.4420166015625 573.4067993164062 170.78717041015625 577.8140258789062 174.4173126220703 C 582.1427612304688 172.78598022460938 583.7713623046875 174.78684997558594 583.6049194335938 179.72113037109375 C 575.386962890625 180.23001098632812 572.1657104492188 225.61863708496094 577.2774047851562 226.96536254882812 C 577.8162231445312 229.94717407226562 581.193603515625 235.54275512695312 576.2902221679688 242.68190002441406 C 568.5693969726562 238.88035583496094 566.1129150390625 237.33274841308594 558.7105712890625 246.4744415283203 C 553.0089111328125 253.27101135253906 494.2008361816406 252.1381378173828 490.4537048339844 252.46414184570312 C 487.9116516113281 246.6541290283203 487.820556640625 239.02658081054688 490.18597412109375 229.9556427001953 C 486.4546813964844 226.22671508789062 483.1939697265625 222.27101135253906 481.15399169921875 216.1050567626953 C 476.5025329589844 209.81817626953125 479.14697265625 205.7737579345703 482.64910888671875 205.94801330566406 C 479.9121398925781 205.31478881835938 480.84515380859375 197.97511291503906 484.9909973144531 198.02964782714844 C 491.8498840332031 196.20193481445312 491.88214111328125 192.52052307128906 493.5840759277344 188.18411254882812 C 493.2652282714844 174.24484252929688 495.77020263671875 173.52450561523438 496.2949523925781 171.4705810546875 C 504.0040588378906 170.10609436035156 505.1278381347656 173.11355590820312 519.3324584960938 170.68316650390625 C 524.0423583984375 171.06759643554688 524.6368408203125 168.3413543701172 526.3411254882812 165.56784057617188 C 525.5263671875 161.1053009033203 529.8861694335938 156.4698486328125 533.3836669921875 158.65206909179688 C 537.6537475585938 161.8245849609375 541.40283203125 162.44956970214844 542.2193603515625 163.92550659179688 C 545.2925415039062 164.02200317382812 546.013671875 165.66165161132812 549.3804931640625 166.34878540039062 C 548.752685546875 165.63206481933594 551.4016723632812 157.12770080566406 555.5554809570312 157.22483825683594 C 558.8782348632812 156.26683044433594 562.2314453125 156.0856170654297 565.61376953125 157.44631958007812" stroke-width="0.0" fill="url(#shape_9_fill)"/>
    <path d="M 561.6878662109375 156.16297912597656 C 567.78466796875 153.87228393554688 571.3031616210938 159.5804901123047 571.684326171875 166.7459259033203 C 572.6138305664062 170.75682067871094 575.08935546875 171.57350158691406 578.843994140625 176.35731506347656 C 579.545166015625 178.01580810546875 578.3365478515625 187.2665252685547 577.2512817382812 191.58779907226562 C 571.3137817382812 196.81954956054688 571.9855346679688 230.01722717285156 578.0593872070312 230.97439575195312 C 576.04345703125 231.122802734375 575.6321411132812 236.83502197265625 572.0128784179688 238.05958557128906 C 559.558837890625 236.1079864501953 567.7262573242188 238.58250427246094 561.5109252929688 247.63038635253906 C 555.2838745117188 251.6258087158203 501.2859191894531 248.9429168701172 500.1800842285156 251.4805145263672 C 491.1116027832031 251.796142578125 487.9637756347656 236.90634155273438 490.3012390136719 230.24795532226562 C 486.623046875 224.92904663085938 481.9861145019531 219.2701873779297 481.4876403808594 216.22637939453125 C 475.4603271484375 214.54331970214844 475.4789123535156 212.57666015625 474.7532958984375 203.66465759277344 C 474.4295654296875 200.57029724121094 480.6108093261719 197.5643768310547 481.6535339355469 197.0332794189453 C 490.5734558105469 195.77223205566406 494.5227355957031 184.41534423828125 496.6480407714844 183.0154266357422 C 495.9399108886719 179.4751434326172 496.85125732421875 176.99801635742188 500.4261779785156 176.07333374023438 C 507.4710388183594 175.53302001953125 514.6505737304688 177.66424560546875 520.0531616210938 173.96505737304688 C 523.7550048828125 173.36212158203125 526.8511962890625 159.3422393798828 532.0932006835938 158.58900451660156 C 536.9124755859375 157.82337951660156 538.7388916015625 161.51422119140625 542.768798828125 165.4274444580078 C 545.2771606445312 165.06658935546875 548.7067260742188 166.25970458984375 550.9736938476562 163.41041564941406 C 551.3312377929688 158.14122009277344 553.6107788085938 153.7823486328125 561.6878662109375 156.16297912597656" stroke-width="0.0" fill="url(#shape_10_fill)"/>
    <path d="M 449.7860107421875 107.77361297607422 C 454.0624694824219 109.11275482177734 456.1981506347656 112.2983627319336 460.6438293457031 113.64167022705078 C 463.5274353027344 116.8070068359375 468.9883728027344 117.4150619506836 472.3509521484375 119.63038635253906 C 488.3648376464844 124.5391845703125 488.8009338378906 125.25108337402344 491.7410888671875 129.8392791748047 C 493.3814392089844 131.74549865722656 493.2258605957031 134.14967346191406 496.51416015625 136.4358367919922 C 494.4857177734375 134.4940948486328 492.44879150390625 136.3183135986328 488.1530456542969 135.1774444580078 C 484.3698425292969 133.50592041015625 482.47259521484375 135.006103515625 479.24713134765625 134.60289001464844 C 474.6803283691406 135.9315948486328 471.4350280761719 134.28622436523438 468.2691955566406 134.357666015625 C 465.31512451171875 133.4940643310547 460.0502624511719 133.50161743164062 457.18353271484375 134.39816284179688 C 453.2449035644531 143.7752685546875 468.3969421386719 153.6619110107422 480.0987548828125 157.94686889648438 C 476.1574401855469 176.60414123535156 475.3335876464844 177.1566162109375 469.6518249511719 180.68785095214844 C 466.6604309082031 182.2427520751953 466.2571105957031 186.66717529296875 463.70037841796875 188.41259765625 C 458.7806396484375 188.96484375 454.65679931640625 181.67701721191406 453.7508239746094 176.7229461669922 C 448.26776123046875 179.3984832763672 447.518798828125 182.63304138183594 439.89947509765625 183.09417724609375 C 439.4844970703125 183.85972595214844 435.9710693359375 195.81353759765625 434.5093688964844 198.41043090820312 C 428.5502624511719 200.83413696289062 417.4916076660156 180.59844970703125 417.7357177734375 179.70790100097656 C 416.9685974121094 179.52883911132812 401.958984375 175.52261352539062 399.7864990234375 167.19183349609375 C 392.7462463378906 168.22605895996094 386.4989013671875 175.98594665527344 381.2610168457031 173.06007385253906 C 381.69976806640625 164.66676330566406 384.0819091796875 143.74649047851562 392.71319580078125 141.3643035888672 C 397.9047546386719 137.44229125976562 399.3662414550781 129.67970275878906 402.2667541503906 123.2111587524414 C 411.8647155761719 100.93457794189453 428.40106201171875 105.27064514160156 449.7860107421875 107.77361297607422" stroke-width="0.0" fill="url(#shape_11_fill)"/>
    <path d="M 602.2977294921875 126.89680480957031 C 606.163818359375 129.65748596191406 605.7596435546875 142.41552734375 608.8280639648438 143.2078094482422 C 612.0706176757812 144.46408081054688 612.2250366210938 147.7161407470703 614.8048095703125 151.52708435058594 C 618.6749877929688 149.80189514160156 618.8203735351562 141.70932006835938 620.3842163085938 140.2707061767578 C 624.13525390625 138.10084533691406 626.7379150390625 137.40199279785156 628.37451171875 140.136474609375 C 627.7359008789062 142.12103271484375 629.486083984375 144.58045959472656 629.7691650390625 147.5622100830078 C 632.286865234375 149.83685302734375 631.607421875 151.0473175048828 636.1173095703125 153.7677764892578 C 640.9686889648438 155.8274383544922 639.5833740234375 161.63414001464844 641.7347412109375 170.9940185546875 C 637.3952026367188 183.70803833007812 639.102783203125 194.307373046875 639.6503295898438 206.38290405273438 C 642.1885986328125 219.08949279785156 646.30078125 232.0813751220703 643.0424194335938 246.73484802246094 C 622.3718872070312 248.2593231201172 608.5543212890625 246.93270874023438 578.4151611328125 249.98020935058594 C 574.6676635742188 242.685302734375 574.7047729492188 229.50479125976562 573.5048828125 219.06455993652344 C 570.6848754882812 213.42193603515625 575.3312377929688 168.02743530273438 585.400634765625 168.67803955078125 C 596.8966064453125 162.9789276123047 597.1263427734375 142.3453826904297 598.6798706054688 141.82647705078125 C 595.81396484375 138.6954345703125 597.04345703125 136.59751892089844 602.2977294921875 126.89680480957031" stroke-width="0.0" fill="url(#shape_12_fill)"/>
    <path d="M 405.8585510253906 177.9520721435547 C 422.1809997558594 175.2236328125 435.7972717285156 210.28076171875 429.7264709472656 218.01731872558594 C 420.0827941894531 231.49746704101562 423.94281005859375 240.12339782714844 426.8618469238281 248.22434997558594 C 430.257568359375 262.11688232421875 420.1125183105469 264.8802185058594 415.4111633300781 267.2891540527344 C 404.88470458984375 270.4280090332031 395.74041748046875 269.7912292480469 390.2344055175781 269.5047302246094 C 385.172119140625 264.3830871582031 382.9337158203125 264.87518310546875 381.0946350097656 263.001220703125 C 377.51129150390625 262.31903076171875 377.0803527832031 260.07806396484375 375.5642395019531 258.3966369628906 C 376.320068359375 255.93820190429688 375.7187805175781 253.31251525878906 374.50433349609375 253.5342559814453 C 374.3219909667969 252.23541259765625 370.5225524902344 250.5335693359375 369.2816467285156 251.3580322265625 C 363.0234680175781 242.3343048095703 365.64093017578125 225.6855010986328 367.5851135253906 220.70323181152344 C 368.7590637207031 218.427490234375 371.58087158203125 203.14187622070312 376.8417053222656 202.32920837402344 C 377.340087890625 199.71282958984375 378.8710632324219 181.99365234375 384.00616455078125 179.73439025878906 C 391.8968200683594 175.48251342773438 392.4396667480469 175.7703857421875 405.8585510253906 177.9520721435547" stroke-width="0.0" fill="url(#shape_13_fill)"/>
    <path d="M 510.6198425292969 65.42889404296875 C 512.0272216796875 66.68974304199219 519.8272094726562 71.8506851196289 523.003173828125 75.0121078491211 C 530.0413208007812 80.71791076660156 534.38037109375 81.1895523071289 536.2081909179688 90.0940170288086 C 539.5526123046875 90.72293853759766 544.540771484375 90.40803527832031 545.023681640625 91.15515899658203 C 545.5372314453125 92.7464599609375 556.0960693359375 97.05117797851562 560.8765258789062 95.8000259399414 C 563.7001953125 97.57093048095703 567.3902587890625 97.48760986328125 568.6654052734375 99.60839080810547 C 566.9368896484375 105.76759338378906 554.70166015625 112.94480895996094 547.5057373046875 109.55081176757812 C 541.7548828125 112.1543960571289 539.3988647460938 114.99620819091797 533.8707885742188 117.14789581298828 C 526.9293212890625 119.43636322021484 524.7799072265625 120.77581787109375 515.5570068359375 119.4788589477539 C 510.5706481933594 119.5594482421875 500.7894592285156 124.7792739868164 499.0646057128906 125.39277648925781 C 496.6677551269531 128.3023681640625 493.5146484375 128.43075561523438 489.1401062011719 127.85993194580078 C 489.5749816894531 125.06834411621094 468.7734375 119.13371276855469 468.0481262207031 118.14983367919922 C 463.2959899902344 117.75677490234375 463.0897521972656 116.46198272705078 460.4165954589844 114.80238342285156 C 463.11767578125 109.14913940429688 465.8471984863281 103.51734161376953 472.1949462890625 97.85479736328125 C 475.21600341796875 89.23262786865234 473.5905456542969 84.59947967529297 473.49273681640625 82.0604248046875 C 474.5853271484375 70.93335723876953 475.3411560058594 70.3859634399414 478.3697204589844 66.43745422363281 C 479.0788269042969 64.25519561767578 482.7205505371094 64.24649810791016 484.7218017578125 63.02272415161133 C 493.0923156738281 63.78185272216797 501.4432067871094 63.15007019042969 510.6198425292969 65.42889404296875" stroke-width="0.0" fill="url(#shape_14_fill)"/>
    <path d="M 532.490478515625 159.25686645507812 C 543.7764892578125 162.91871643066406 544.0298461914062 163.90716552734375 546.9906005859375 165.90060424804688 C 547.1671142578125 168.0635986328125 548.4442138671875 170.2677459716797 544.1298217773438 182.074462890625 C 542.7619018554688 189.77688598632812 539.409423828125 232.50428771972656 538.5844116210938 235.31179809570312 C 540.5087280273438 236.8955078125 540.8419799804688 250.05039978027344 514.0189819335938 252.6758270263672 C 503.27984619140625 250.76438903808594 483.7806396484375 245.3324737548828 487.0318603515625 230.59365844726562 C 476.6777648925781 218.79083251953125 477.8682861328125 205.05337524414062 485.5326843261719 199.71116638183594 C 487.1434326171875 197.20391845703125 488.96771240234375 197.93084716796875 490.56280517578125 197.06410217285156 C 488.3813171386719 189.94773864746094 490.1228332519531 180.412109375 491.5917663574219 177.69859313964844 C 493.83221435546875 176.2075653076172 496.42010498046875 174.15260314941406 501.2571716308594 174.98812866210938 C 507.3080749511719 175.75076293945312 511.66461181640625 179.71730041503906 522.656494140625 172.5623016357422 C 525.5438232421875 170.95582580566406 525.5354614257812 167.29959106445312 526.9550170898438 165.09500122070312 C 527.5806274414062 161.67471313476562 530.8985595703125 160.5149688720703 532.490478515625 159.25686645507812" stroke-width="0.0" fill="url(#shape_15_fill)"/>
    <path d="M 651.2323608398438 111.98091125488281 C 656.6588745117188 109.83751678466797 663.81201171875 121.26776885986328 662.2391967773438 126.74919891357422 C 665.4641723632812 133.34886169433594 666.038330078125 139.59332275390625 673.4970703125 148.4552459716797 C 675.9928588867188 179.45286560058594 674.0250244140625 212.23696899414062 673.7778930664062 250.5485382080078 C 671.8630981445312 248.02716064453125 649.781005859375 255.36431884765625 641.0562744140625 246.63436889648438 C 635.805908203125 242.1517791748047 637.6978149414062 120.0864028930664 651.2323608398438 111.98091125488281" stroke-width="0.0" fill="url(#shape_16_fill)"/>
    <path d="M 600.1005859375 129.72581481933594 C 603.4476928710938 127.51457977294922 608.3230590820312 131.45205688476562 606.9638061523438 133.9401397705078 C 608.3834838867188 135.0644989013672 608.42578125 139.0845184326172 610.0187377929688 145.67550659179688 C 623.0562133789062 140.03030395507812 622.1640625 231.77000427246094 617.1570434570312 245.0561065673828 C 596.02685546875 253.0394287109375 577.952392578125 246.5457305908203 580.2307739257812 235.81314086914062 C 564.5397338867188 227.15573120117188 595.4788818359375 152.4105224609375 600.1005859375 129.72581481933594" stroke-width="0.0" fill="url(#shape_17_fill)"/>
    <path d="M 321.2740783691406 186.19998168945312 C 322.7934875488281 185.89431762695312 324.312255859375 188.2971954345703 326.7272033691406 190.1186981201172 C 332.0481872558594 189.75192260742188 336.92724609375 189.1236114501953 339.6180725097656 191.1478271484375 C 342.0179443359375 196.448974609375 347.48260498046875 195.41453552246094 353.7005310058594 195.41360473632812 C 356.9275207519531 195.13845825195312 357.8689270019531 198.5376739501953 358.8442687988281 200.71450805664062 C 359.88385009765625 203.68936157226562 362.063720703125 203.744384765625 363.23077392578125 206.21177673339844 C 367.2548828125 206.94754028320312 368.4800720214844 208.2047576904297 368.37847900390625 211.81101989746094 C 370.9132385253906 218.01866149902344 370.67462158203125 223.39527893066406 366.56817626953125 225.7580108642578 C 366.856689453125 231.49746704101562 365.4063720703125 235.2342987060547 367.2469787597656 242.56849670410156 C 367.4438171386719 247.51309204101562 364.631103515625 255.51708984375 356.02838134765625 254.93540954589844 C 353.3456115722656 255.34274291992188 330.8912048339844 254.99986267089844 323.8433532714844 254.65560913085938 C 313.5233459472656 255.58937072753906 312.2921142578125 253.28758239746094 311.2231140136719 239.42041015625 C 306.38006591796875 230.15359497070312 319.29718017578125 192.0530242919922 321.2740783691406 186.19998168945312" stroke-width="0.0" fill="url(#shape_18_fill)"/>
    <path d="M 479.1524658203125 217.7980194091797 C 491.2830505371094 243.93417358398438 497.2147216796875 250.63180541992188 479.9089660644531 269.2196350097656 C 470.23492431640625 278.1435546875 444.01025390625 261.343505859375 442.1436462402344 261.65924072265625 C 438.63775634765625 260.6339416503906 437.1812438964844 258.14044189453125 432.59625244140625 257.9261169433594 C 429.6523132324219 258.19512939453125 427.6395568847656 257.72259521484375 426.6186828613281 254.33631896972656 C 421.9739074707031 244.93731689453125 420.4920654296875 235.93124389648438 422.486572265625 228.5124053955078 C 424.1368713378906 224.54331970214844 420.9592590332031 228.83432006835938 421.5914001464844 225.70045471191406 C 427.6854553222656 219.43527221679688 429.6671447753906 218.7689208984375 429.6117248535156 215.75669860839844 C 438.365966796875 200.08352661132812 465.1731872558594 204.58303833007812 479.1524658203125 217.7980194091797" stroke-width="0.0" fill="url(#shape_19_fill)"/>
    <path d="M 674.028564453125 -2.1660101413726807 C 674.94482421875 32.9619255065918 674.5637817382812 64.77555084228516 674.3078002929688 97.0692367553711 C 668.913818359375 96.61410522460938 651.5755615234375 86.07669830322266 642.7614135742188 90.8955078125 C 638.6813354492188 89.6051254272461 638.2615966796875 85.78226470947266 637.930419921875 84.66950988769531 C 629.0629272460938 86.18423461914062 620.2684326171875 90.94142150878906 609.3911743164062 84.80284118652344 C 610.8997192382812 78.50322723388672 614.4497680664062 75.97843170166016 614.6469116210938 71.77301788330078 C 624.9439697265625 71.63538360595703 650.9456176757812 27.154830932617188 649.0414428710938 22.161226272583008 C 656.4960327148438 16.023056030273438 656.7318115234375 4.748018264770508 667.8056640625 4.1572089195251465 C 669.7734985351562 2.6445038318634033 670.2568359375 1.2363619804382324 674.028564453125 -2.1660101413726807" stroke-width="0.0" fill="url(#shape_20_fill)"/>
    <path d="M 561.8450927734375 156.07635498046875 C 569.6759643554688 156.80967712402344 569.5545654296875 164.65206909179688 572.704833984375 165.99864196777344 C 584.8668212890625 167.72496032714844 575.058349609375 231.32791137695312 576.3113403320312 239.9257049560547 C 572.09716796875 241.56910705566406 567.8132934570312 244.1533660888672 566.4722290039062 247.4158172607422 C 558.3380737304688 250.0970458984375 542.9758911132812 251.6462860107422 540.1220092773438 246.29811096191406 C 544.5520629882812 244.71713256835938 540.4876708984375 162.71844482421875 554.90771484375 157.67303466796875 C 556.2047729492188 153.35665893554688 558.4407958984375 153.46681213378906 561.8450927734375 156.07635498046875" stroke-width="0.0" fill="url(#shape_21_fill)"/>
    <path d="M 217.2486114501953 211.96865844726562 C 226.05087280273438 218.09910583496094 226.61474609375 250.1726837158203 218.41482543945312 254.79469299316406 C 210.87582397460938 262.60076904296875 208.17294311523438 263.9108581542969 205.62295532226562 272.3813171386719 C 205.3830108642578 275.99945068359375 206.62136840820312 276.1966247558594 206.93695068359375 280.1534729003906 C 207.0874786376953 283.2629089355469 204.2707977294922 285.1565246582031 200.63436889648438 284.7332458496094 C 201.41281127929688 283.3170166015625 195.9479522705078 266.8211364746094 188.26040649414062 263.9987487792969 C 186.64105224609375 260.8738098144531 184.41302490234375 261.78717041015625 181.4287109375 261.16644287109375 C 180.7904510498047 260.541259765625 178.93389892578125 260.84637451171875 177.8184814453125 255.7256317138672 C 180.93714904785156 248.51800537109375 169.2952117919922 242.41488647460938 170.95945739746094 237.34898376464844 C 176.08973693847656 217.08053588867188 181.3280792236328 216.2880401611328 187.22589111328125 220.9379425048828 C 194.2731475830078 218.2207489013672 193.6905517578125 215.82823181152344 195.78746032714844 213.0322723388672 C 194.46505737304688 205.7128448486328 194.37196350097656 203.8019256591797 200.87962341308594 202.6306610107422 C 211.2510986328125 202.36936950683594 214.35023498535156 204.02322387695312 217.2486114501953 211.96865844726562" stroke-width="0.0" fill="url(#shape_22_fill)"/>
    <path d="M 111.51839447021484 426.42242431640625 C 112.71976470947266 429.2741394042969 110.99315643310547 431.1816711425781 110.67428588867188 431.7021179199219 C 106.52446746826172 435.64727783203125 102.26899719238281 436.2654724121094 91.96783447265625 433.0873107910156 C 89.11172485351562 437.40985107421875 97.06501007080078 447.4082946777344 89.92894744873047 450.7594299316406 C 78.67256927490234 445.0043640136719 46.92374038696289 447.91717529296875 24.950946807861328 449.6311950683594 C 13.979171752929688 446.2931823730469 13.891697883605957 439.79608154296875 17.81462860107422 436.90338134765625 C 34.89067840576172 429.0157470703125 51.266963958740234 426.6950988769531 70.43633270263672 425.94952392578125 C 75.79354858398438 425.61279296875 107.63176727294922 417.8493347167969 111.51839447021484 426.42242431640625" stroke-width="0.0" fill="url(#shape_23_fill)"/>
    <path d="M 195.01405334472656 123.66680145263672 C 200.151611328125 124.30398559570312 210.34263610839844 143.9355010986328 213.37710571289062 145.39161682128906 C 215.44247436523438 148.30487060546875 218.45571899414062 149.7697296142578 219.6859130859375 153.70237731933594 C 227.23797607421875 157.7174530029297 249.31631469726562 180.45921325683594 244.47088623046875 199.67135620117188 C 239.03390502929688 199.6015625 235.39041137695312 187.4641876220703 234.5186767578125 182.9970245361328 C 232.99002075195312 184.63311767578125 231.15957641601562 193.58279418945312 230.18966674804688 196.56842041015625 C 226.57403564453125 200.01869201660156 225.80072021484375 202.20352172851562 220.9286346435547 208.33282470703125 C 215.1850128173828 207.61387634277344 213.72415161132812 199.99891662597656 214.6098175048828 195.86727905273438 C 212.71914672851562 189.50888061523438 212.68011474609375 182.8098907470703 207.24378967285156 178.30322265625 C 204.04844665527344 174.02578735351562 205.16641235351562 173.0392608642578 205.2593231201172 166.814697265625 C 204.3247528076172 151.38389587402344 199.99273681640625 148.90472412109375 193.44676208496094 143.78048706054688 C 188.75918579101562 141.18617248535156 190.33387756347656 127.80006408691406 195.01405334472656 123.66680145263672" stroke-width="0.0" fill="url(#shape_24_fill)"/>
    <path d="M 594.701416015625 413.3564147949219 C 597.1612548828125 415.1961364746094 624.77490234375 412.1178283691406 627.4725952148438 418.8333740234375 C 628.34033203125 420.8053283691406 625.8342895507812 424.9259033203125 627.5448608398438 427.748046875 C 629.1113891601562 430.16827392578125 632.3290405273438 430.32501220703125 634.0780029296875 436.2671813964844 C 615.5336303710938 447.043212890625 578.73779296875 440.1496276855469 577.7203369140625 431.3488464355469 C 570.9662475585938 423.1646728515625 574.1864013671875 417.33868408203125 575.1548461914062 414.72589111328125 C 580.4777221679688 410.3287048339844 587.2172241210938 412.2847595214844 594.701416015625 413.3564147949219" stroke-width="0.0" fill="url(#shape_25_fill)"/>
    <path d="M 142.9219512939453 66.69095611572266 C 144.084228515625 68.92881774902344 149.1693115234375 68.46253204345703 149.62979125976562 69.13815307617188 C 148.90982055664062 70.9024887084961 150.45782470703125 71.82652282714844 149.7834014892578 73.85759735107422 C 151.00975036621094 74.45346069335938 150.48416137695312 78.1123275756836 151.77352905273438 82.56855010986328 C 152.43988037109375 89.8646469116211 152.1899871826172 97.90557861328125 154.0369110107422 104.07015228271484 C 153.54795837402344 107.61679077148438 155.12286376953125 108.51995086669922 154.74688720703125 111.75584411621094 C 158.1779022216797 123.10882568359375 155.17385864257812 133.51939392089844 150.1563262939453 133.53897094726562 C 141.68565368652344 128.3671112060547 135.1754913330078 122.47496032714844 125.54857635498047 117.36672973632812 C 122.50792694091797 114.33917236328125 124.65302276611328 109.7432861328125 126.92581939697266 107.15890502929688 C 128.83599853515625 106.85499572753906 128.8787078857422 105.28337097167969 132.64073181152344 104.64669036865234 C 139.24542236328125 96.44192504882812 135.26698303222656 92.94635772705078 133.3545684814453 90.30260467529297 C 134.21343994140625 88.90279388427734 139.2703857421875 87.08480072021484 140.0456085205078 85.31085205078125 C 138.1471405029297 84.7512435913086 138.86184692382812 77.64545440673828 139.48171997070312 77.45068359375 C 143.4967803955078 76.58743286132812 142.65065002441406 70.23455047607422 142.9219512939453 66.69095611572266" stroke-width="0.0" fill="url(#shape_26_fill)"/>
    <path d="M 144.49990844726562 67.7067642211914 C 149.26821899414062 68.23133850097656 150.1722869873047 70.75811767578125 148.43309020996094 75.78693389892578 C 151.9123992919922 76.78264617919922 151.5048065185547 79.64342498779297 154.03155517578125 81.98934173583984 C 151.46205139160156 88.21035766601562 152.65870666503906 94.95513153076172 153.07839965820312 104.146728515625 C 154.29544067382812 105.19678497314453 153.6219482421875 108.91093444824219 154.96986389160156 112.35745239257812 C 154.38128662109375 117.56990814208984 156.42105102539062 122.05512237548828 155.11529541015625 126.1053466796875 C 152.68280029296875 132.05284118652344 151.36268615722656 133.17544555664062 147.435791015625 133.374267578125 C 139.42860412597656 134.35888671875 127.24942016601562 122.27152252197266 125.18709564208984 121.73809814453125 C 122.14801025390625 119.43495178222656 121.00492095947266 114.37353515625 128.52593994140625 110.53144836425781 C 124.1098861694336 108.77534484863281 124.23438262939453 106.17302703857422 131.56398010253906 105.75801086425781 C 135.6039276123047 105.30413818359375 134.79176330566406 91.83119201660156 135.0919189453125 89.60536193847656 C 139.31405639648438 87.08490753173828 138.3589324951172 84.58928680419922 138.29220581054688 81.68609619140625 C 139.07839965820312 77.49252319335938 140.3615264892578 76.77483367919922 141.64239501953125 76.5493392944336 C 145.17344665527344 71.76200103759766 143.40533447265625 68.8420639038086 144.49990844726562 67.7067642211914" stroke-width="0.0" fill="url(#shape_27_fill)"/>
    <path d="M -0.31781005859375 -0.2702902853488922 C 4.697021961212158 0.38012006878852844 9.64342975616455 -0.5241168737411499 16.970884323120117 -0.4461075961589813 C 19.948827743530273 0.197021946310997 19.513242721557617 10.580117225646973 32.27361297607422 17.964515686035156 C 29.695158004760742 25.40604019165039 27.322031021118164 25.409528732299805 27.368629455566406 27.028831481933594 C 33.66314697265625 31.04094886779785 40.2953987121582 31.88296127319336 42.044708251953125 38.23113250732422 C 36.440731048583984 39.33644104003906 33.442535400390625 39.02996826171875 30.977758407592773 35.86448287963867 C 25.894615173339844 31.64702606201172 17.207744598388672 33.01605987548828 10.515798568725586 33.44361114501953 C 9.106478691101074 37.094581604003906 12.59793758392334 40.223052978515625 13.100019454956055 41.56535720825195 C 13.684974670410156 42.069942474365234 14.170228004455566 46.53120803833008 18.064939498901367 47.94821548461914 C 20.05634880065918 51.0750732421875 18.742862701416016 52.3095817565918 19.778255462646484 56.99465560913086 C 18.92435646057129 61.02241897583008 11.295702934265137 62.11192321777344 8.90819263458252 61.16014099121094 C 5.4975080490112305 60.88258743286133 3.5333166122436523 59.142051696777344 0.325313001871109 59.43399429321289 C -0.3174990117549896 39.778141021728516 -0.3247838020324707 19.628591537475586 -0.31781005859375 -0.2702902853488922" stroke-width="0.0" fill="url(#shape_28_fill)"/>
    <path d="M 298.36090087890625 196.8910369873047 C 297.2413330078125 199.23362731933594 299.1288757324219 202.43605041503906 300.79327392578125 207.251953125 C 301.4241638183594 209.15936279296875 319.14910888671875 232.35955810546875 313.16278076171875 251.8720703125 C 310.58892822265625 251.82949829101562 310.1230773925781 254.87510681152344 307.525146484375 256.7712707519531 C 300.1192932128906 258.7035827636719 294.88946533203125 258.6955261230469 283.3671569824219 257.7311706542969 C 282.73468017578125 232.5602569580078 285.5797424316406 213.28895568847656 298.36090087890625 196.8910369873047" stroke-width="0.0" fill="url(#shape_29_fill)"/>
    <path d="M -0.43540266156196594 0.1421794444322586 C 4.4356842041015625 0.45179083943367004 9.535776138305664 -0.4149027466773987 14.510372161865234 0.14204688370227814 C 15.686585426330566 0.4978592097759247 16.122499465942383 5.584310054779053 16.107784271240234 8.071331977844238 C 18.983837127685547 10.754046440124512 22.223934173583984 18.72381019592285 26.64638328552246 21.047260284423828 C 27.289091110229492 22.30332374572754 24.706031799316406 26.786956787109375 24.06869888305664 31.250722885131836 C 21.119081497192383 33.03440475463867 15.977359771728516 32.82063674926758 7.716142177581787 34.43709945678711 C 9.320930480957031 35.687225341796875 8.765046119689941 38.399662017822266 11.431896209716797 40.383689880371094 C 11.623346328735352 44.16807174682617 10.935338973999023 50.04105758666992 13.88648509979248 52.17116928100586 C 17.576208114624023 52.31480407714844 18.88111114501953 53.99955368041992 18.18130111694336 57.469879150390625 C 12.412251472473145 59.816734313964844 7.482361316680908 60.675968170166016 0.22940678894519806 61.588741302490234 C -0.41117504239082336 39.94960021972656 -0.35416218638420105 19.75279998779297 -0.43540266156196594 0.1421794444322586" stroke-width="0.0" fill="url(#shape_30_fill)"/>
    <path d="M 544.7614135742188 72.18042755126953 C 548.8456420898438 71.77189636230469 581.3064575195312 85.0477523803711 584.7018432617188 87.49910736083984 C 580.8690795898438 92.1912612915039 578.3526611328125 92.6092758178711 577.2734375 98.24828338623047 C 573.240966796875 100.72431945800781 572.13671875 99.9888687133789 568.918212890625 98.08313751220703 C 566.7200317382812 96.23341369628906 544.8515625 93.30552673339844 538.51806640625 88.50706481933594 C 538.5808715820312 85.48705291748047 537.47265625 83.35921478271484 535.570068359375 82.61406707763672 C 534.9232177734375 79.31481170654297 530.8783569335938 79.00047302246094 527.1900024414062 78.00406646728516 C 525.4006958007812 75.82312774658203 527.8235473632812 70.82642364501953 531.5745849609375 69.34253692626953 C 536.2487182617188 67.03620147705078 540.8639526367188 68.50335693359375 544.7614135742188 72.18042755126953" stroke-width="0.0" fill="url(#shape_31_fill)"/>
    <path d="M 448.376953125 263.9716796875 C 450.66680908203125 265.2650146484375 451.3351745605469 266.69140625 456.02459716796875 267.6419982910156 C 460.68377685546875 267.59765625 465.58837890625 270.0770263671875 469.9036560058594 273.3017272949219 C 470.4377746582031 275.6323547363281 471.82257080078125 276.8924560546875 471.67620849609375 280.72296142578125 C 448.6477355957031 289.3282470703125 426.7307434082031 286.8318176269531 415.9337158203125 284.88323974609375 C 413.37652587890625 273.9169921875 415.3141174316406 272.3575439453125 415.7338562011719 268.2679138183594 C 418.1904296875 267.20758056640625 417.7783203125 264.8069152832031 419.32958984375 263.05560302734375 C 428.8148498535156 254.27098083496094 438.7837219238281 258.9554443359375 448.376953125 263.9716796875" stroke-width="0.0" fill="url(#shape_32_fill)"/>
    <path d="M 270.52069091796875 190.79603576660156 C 281.29241943359375 191.2478790283203 284.2608337402344 243.08526611328125 279.0555419921875 244.0089874267578 C 278.32049560546875 247.1923370361328 273.79345703125 246.65943908691406 269.95184326171875 248.28179931640625 C 266.4791259765625 245.8026123046875 266.8211975097656 241.93841552734375 264.0005798339844 240.47303771972656 C 257.238525390625 209.11160278320312 259.9823303222656 203.22459411621094 270.52069091796875 190.79603576660156" stroke-width="0.0" fill="url(#shape_33_fill)"/>
    <path d="M 253.72515869140625 425.15008544921875 C 255.87164306640625 427.858154296875 263.4267272949219 432.1806640625 263.0790100097656 438.77935791015625 C 260.5157165527344 441.4209289550781 260.04205322265625 444.28875732421875 252.35183715820312 444.4556579589844 C 247.00457763671875 444.23876953125 220.60891723632812 446.7540588378906 212.60159301757812 444.5325012207031 C 213.0252685546875 436.9956970214844 213.95947265625 436.2223815917969 215.92298889160156 434.45721435546875 C 216.1281280517578 433.38177490234375 224.99789428710938 433.33184814453125 226.6001434326172 430.2087097167969 C 231.9403076171875 424.9566955566406 242.94058227539062 424.0542297363281 253.72515869140625 425.15008544921875" stroke-width="0.0" fill="url(#shape_34_fill)"/>
    <path d="M 105.62124633789062 69.93666076660156 C 109.40808868408203 70.07947540283203 112.45050811767578 78.2666015625 110.47648620605469 82.58577728271484 C 115.7872085571289 85.14804077148438 116.8637466430664 110.28587341308594 117.08135986328125 110.93792724609375 C 117.38842010498047 113.35600280761719 111.7054672241211 114.06362915039062 109.87430572509766 118.40239715576172 C 105.48950958251953 116.61914825439453 96.72591400146484 118.7597427368164 92.4540786743164 112.95625305175781 C 91.67012786865234 85.5757064819336 103.40365600585938 84.11432647705078 105.62124633789062 69.93666076660156" stroke-width="0.0" fill="url(#shape_35_fill)"/>
    <path d="M 451.71563720703125 178.1712646484375 C 453.6005554199219 176.13282775878906 456.6274108886719 177.1887664794922 456.961669921875 179.69871520996094 C 457.6636657714844 179.75721740722656 457.78546142578125 184.06346130371094 459.3887634277344 185.3827362060547 C 458.24212646484375 189.93951416015625 462.0098876953125 193.64181518554688 460.6546936035156 206.31898498535156 C 459.3378601074219 209.43453979492188 453.5254211425781 209.07626342773438 449.112548828125 206.9566650390625 C 441.4927062988281 207.61688232421875 440.48785400390625 209.2610321044922 433.9557189941406 210.74432373046875 C 432.3031311035156 209.18984985351562 437.0481262207031 188.83486938476562 439.7698974609375 185.31007385253906 C 441.35699462890625 182.06942749023438 445.5283508300781 182.4617156982422 446.8317565917969 180.68663024902344 C 448.0816345214844 178.0886688232422 449.7569580078125 179.941650390625 451.71563720703125 178.1712646484375" stroke-width="0.0" fill="url(#shape_36_fill)"/>
    <path d="M 557.6389770507812 83.41232299804688 C 563.6516723632812 80.50201416015625 581.99560546875 82.57302856445312 577.4508056640625 84.04180145263672 C 582.5465698242188 83.21815490722656 586.6929931640625 84.60921478271484 586.9402465820312 87.42335510253906 C 587.9987182617188 91.8393783569336 580.7909545898438 98.38746643066406 574.3919677734375 100.00970458984375 C 573.79541015625 99.3423080444336 548.7060546875 96.77440643310547 540.9631958007812 85.76837921142578 C 538.8908081054688 85.18058776855469 537.927490234375 81.41156768798828 536.8540649414062 78.38392639160156 C 544.4473266601562 76.81582641601562 551.21142578125 78.50581359863281 557.6389770507812 83.41232299804688" stroke-width="0.0" fill="url(#shape_37_fill)"/>
    <path d="M 250.0913848876953 208.58737182617188 C 260.72491455078125 211.86363220214844 257.86859130859375 246.22677612304688 258.19403076171875 247.27731323242188 C 255.1280975341797 254.05953979492188 249.9666748046875 253.3498077392578 245.73451232910156 255.91268920898438 C 236.21902465820312 242.09902954101562 243.33673095703125 211.11190795898438 250.0913848876953 208.58737182617188" stroke-width="0.0" fill="url(#shape_38_fill)"/>
    <path d="M 444.6108093261719 261.8910827636719 C 445.9630126953125 263.4877624511719 449.09033203125 266.5980224609375 447.64459228515625 270.09661865234375 C 443.9752197265625 270.3262634277344 442.5621337890625 276.90606689453125 441.0245056152344 279.94097900390625 C 440.42724609375 286.19171142578125 416.6905822753906 286.6417541503906 415.84893798828125 280.5233154296875 C 414.7731628417969 276.9229736328125 413.25360107421875 274.0176696777344 415.38720703125 271.6778869628906 C 414.5470275878906 269.81842041015625 418.1645812988281 261.0367736816406 424.37054443359375 260.1338195800781 C 430.322998046875 255.78390502929688 437.0315246582031 257.8127746582031 444.6108093261719 261.8910827636719" stroke-width="0.0" fill="url(#shape_39_fill)"/>
    <path d="M 407.7402038574219 409.77020263671875 C 408.6874084472656 409.8802490234375 416.76666259765625 419.0188903808594 413.4374694824219 424.037841796875 C 397.1707458496094 432.618408203125 380.7155456542969 420.9621276855469 377.4301452636719 420.1825866699219 C 369.8744812011719 417.58880615234375 372.09765625 416.9741516113281 373.3331604003906 412.0277404785156 C 379.3729553222656 404.3489685058594 398.5887756347656 403.9523010253906 407.7402038574219 409.77020263671875" stroke-width="0.0" fill="url(#shape_40_fill)"/>
    <path d="M 66.4269027709961 427.6312255859375 C 67.5799789428711 429.1721496582031 65.32647705078125 435.9075622558594 59.97858810424805 436.274658203125 C 58.579833984375 437.22906494140625 41.88909912109375 437.5787353515625 33.260841369628906 444.1531066894531 C 29.51412582397461 444.0059509277344 24.222082138061523 447.58453369140625 17.049470901489258 443.6590576171875 C 16.551406860351562 440.6380310058594 17.593795776367188 439.2030944824219 16.65757942199707 437.3595886230469 C 33.483909606933594 428.55706787109375 57.01005935668945 426.81475830078125 66.4269027709961 427.6312255859375" stroke-width="0.0" fill="url(#shape_41_fill)"/>
    <path d="M 278.55712890625 384.770263671875 C 281.62286376953125 384.4761657714844 293.8348693847656 385.1105041503906 296.045654296875 389.4712829589844 C 297.1769714355469 395.15240478515625 299.68914794921875 400.2153625488281 294.23876953125 403.73211669921875 C 291.7787170410156 398.0452575683594 264.1128845214844 402.4886779785156 258.2256774902344 403.059326171875 C 254.80380249023438 401.90325927734375 253.92660522460938 390.81634521484375 257.4022521972656 387.1203308105469 C 264.56201171875 384.9537048339844 270.3852233886719 385.17498779296875 278.55712890625 384.770263671875" stroke-width="0.0" fill="url(#shape_42_fill)"/>
    <path d="M 219.50755310058594 222.43714904785156 C 223.02444458007812 221.2525634765625 228.9303741455078 221.44534301757812 234.24798583984375 222.9696502685547 C 237.01950073242188 226.1639862060547 242.89564514160156 243.76580810546875 240.29017639160156 255.70858764648438 C 237.4651336669922 261.03411865234375 229.94273376464844 261.2218322753906 220.9091796875 261.2723388671875 C 216.12611389160156 259.3737487792969 215.6686248779297 258.60516357421875 217.7122802734375 248.049560546875 C 219.54055786132812 246.47854614257812 217.8444366455078 226.39651489257812 219.50755310058594 222.43714904785156" stroke-width="0.0" fill="url(#shape_43_fill)"/>
    <path d="M 483.99932861328125 395.3725891113281 C 486.83087158203125 399.8009948730469 485.85614013671875 400.9897155761719 483.5624084472656 401.2682800292969 C 475.0428771972656 407.4057922363281 450.8883972167969 407.3385314941406 450.7073974609375 407.3830261230469 C 448.0359191894531 404.4214782714844 451.59271240234375 396.1758117675781 453.6051940917969 396.462646484375 C 462.38543701171875 393.09991455078125 474.11785888671875 392.774169921875 483.99932861328125 395.3725891113281" stroke-width="0.0" fill="url(#shape_44_fill)"/>
    <path d="M 46.05965805053711 406.4459228515625 C 45.54335021972656 409.6233825683594 36.07599639892578 412.4331970214844 35.236061096191406 414.5849609375 C 32.886802673339844 414.75750732421875 32.563438415527344 416.2132568359375 29.788881301879883 416.7437438964844 C 28.165699005126953 418.1733703613281 25.274709701538086 418.1734924316406 21.830961227416992 421.23291015625 C 15.958099365234375 420.0335388183594 2.2755227088928223 416.7207946777344 -1.1086137294769287 420.71826171875 C 0.7068008184432983 419.5909118652344 -0.51251220703125 410.2522277832031 1.5499197244644165 409.94158935546875 C 8.261262893676758 408.91748046875 43.945167541503906 407.7424621582031 46.05965805053711 406.4459228515625" stroke-width="0.0" fill="url(#shape_45_fill)"/>
    <path d="M 452.0267333984375 175.27281188964844 C 456.71832275390625 174.64561462402344 465.1336364746094 197.43905639648438 464.61578369140625 202.05178833007812 C 462.57208251953125 209.6565704345703 451.68890380859375 209.63743591308594 449.4757385253906 206.77621459960938 C 448.3285217285156 203.24899291992188 449.0526428222656 198.3126220703125 448.845458984375 195.3010711669922 C 447.93994140625 194.5433807373047 447.6117248535156 192.1996307373047 448.49755859375 187.7369384765625 C 449.96649169921875 186.33535766601562 449.59344482421875 183.2595672607422 452.0267333984375 175.27281188964844" stroke-width="0.0" fill="url(#shape_46_fill)"/>
    <path d="M 375.1708984375 185.0904998779297 C 378.2507629394531 189.867431640625 378.6197814941406 205.89749145507812 373.01519775390625 206.6334991455078 C 365.864501953125 206.82656860351562 364.7735595703125 204.851806640625 361.7923583984375 203.30364990234375 C 354.02239990234375 204.05215454101562 351.74310302734375 200.14944458007812 354.5406494140625 188.343017578125 C 356.6385803222656 184.94602966308594 358.3638000488281 184.40931701660156 365.8185729980469 185.33294677734375 C 369.07440185546875 184.6145782470703 373.7091979980469 182.75038146972656 375.1708984375 185.0904998779297" stroke-width="0.0" fill="url(#shape_47_fill)"/>
    <path d="M 470.04559326171875 268.0982971191406 C 472.3936462402344 268.6109619140625 476.31109619140625 269.7842102050781 475.2330322265625 283.6762390136719 C 464.78912353515625 287.0704345703125 456.6610107421875 284.4853820800781 444.3321838378906 284.7575988769531 C 439.3137512207031 282.1976318359375 439.9970703125 276.9552307128906 441.2402038574219 276.4993591308594 C 447.9195556640625 267.08209228515625 455.81341552734375 267.561767578125 470.04559326171875 268.0982971191406" stroke-width="0.0" fill="url(#shape_48_fill)"/>
    <path d="M 176.7576446533203 118.95686340332031 C 179.18511962890625 116.2586669921875 181.8749542236328 117.03402709960938 183.44869995117188 117.48632049560547 C 184.6974334716797 120.20630645751953 183.85391235351562 122.34408569335938 185.12710571289062 126.2879409790039 C 181.57052612304688 132.15499877929688 186.90640258789062 136.8383026123047 186.1431121826172 143.95851135253906 C 183.06314086914062 149.33995056152344 174.1737823486328 147.2748565673828 170.71669006347656 147.72677612304688 C 170.60853576660156 126.22720336914062 169.3944091796875 122.38265991210938 176.7576446533203 118.95686340332031" stroke-width="0.0" fill="url(#shape_49_fill)"/>
    <path d="M 334.08575439453125 427.5029602050781 C 337.7055969238281 428.29962158203125 340.74200439453125 429.4117736816406 342.8422546386719 432.0733947753906 C 346.3594055175781 435.6020812988281 345.1610412597656 437.23175048828125 342.4783935546875 437.6107482910156 C 342.9654235839844 445.0172424316406 324.34051513671875 447.57904052734375 321.9505310058594 440.76519775390625 C 316.90771484375 439.81964111328125 315.9666748046875 434.02264404296875 315.3950500488281 429.72955322265625 C 321.0121765136719 424.6441650390625 328.1246643066406 425.00042724609375 334.08575439453125 427.5029602050781" stroke-width="0.0" fill="url(#shape_50_fill)"/>
    <path d="M 297.0120544433594 389.86663818359375 C 298.55401611328125 395.0794372558594 296.6101989746094 399.77972412109375 289.22222900390625 399.2388916015625 C 284.59576416015625 397.5415344238281 281.9467468261719 398.9570617675781 271.4011535644531 402.71063232421875 C 271.02972412109375 401.62164306640625 269.4910583496094 399.00201416015625 270.94085693359375 397.478759765625 C 269.8721618652344 395.49237060546875 272.88836669921875 387.9798889160156 277.76129150390625 388.962890625 C 283.6305847167969 386.75677490234375 289.3691101074219 387.477294921875 297.0120544433594 389.86663818359375" stroke-width="0.0" fill="url(#shape_51_fill)"/>
    <path d="M 269.80706787109375 188.74822998046875 C 277.8632507324219 194.33018493652344 278.82696533203125 205.964111328125 280.5433349609375 214.67465209960938 C 271.6839294433594 211.0868377685547 267.05792236328125 208.8513946533203 261.1935729980469 214.1681365966797 C 260.12506103515625 205.98277282714844 264.2574768066406 197.30409240722656 265.643310546875 194.62806701660156 C 269.383056640625 194.45278930664062 269.3112487792969 191.90029907226562 269.80706787109375 188.74822998046875" stroke-width="0.0" fill="url(#shape_52_fill)"/>
    <path d="M 218.1018829345703 409.71966552734375 C 215.94415283203125 410.91729736328125 215.48538208007812 413.05413818359375 214.34222412109375 414.5140686035156 C 213.52389526367188 417.9586181640625 189.02735900878906 421.3554992675781 187.4838409423828 415.66412353515625 C 186.27474975585938 408.3378601074219 205.6858367919922 401.5296325683594 218.1018829345703 409.71966552734375" stroke-width="0.0" fill="url(#shape_53_fill)"/>
    <path d="M 205.7507781982422 424.5806884765625 C 205.351806640625 425.4235534667969 206.21978759765625 428.63397216796875 204.5413360595703 429.54833984375 C 200.4830780029297 433.6011047363281 178.84239196777344 433.4978942871094 177.89981079101562 432.81781005859375 C 176.6656494140625 430.9566650390625 178.12269592285156 425.9544982910156 176.68911743164062 423.9136047363281 C 186.96165466308594 420.5051574707031 196.97447204589844 422.2248840332031 205.7507781982422 424.5806884765625" stroke-width="0.0" fill="url(#shape_54_fill)"/>
    <path d="M 270.7354736328125 245.114013671875 C 275.42083740234375 244.6695556640625 276.66339111328125 245.75537109375 281.13409423828125 246.311767578125 C 280.79217529296875 250.55667114257812 279.59918212890625 254.3199005126953 281.640625 257.9876403808594 C 263.4642333984375 257.85809326171875 262.9250793457031 257.1459045410156 255.5227508544922 255.83770751953125 C 254.87608337402344 248.1714630126953 255.8524932861328 247.2292938232422 258.4889831542969 245.0125732421875 C 259.8158264160156 239.48207092285156 265.84722900390625 240.87765502929688 270.7354736328125 245.114013671875" stroke-width="0.0" fill="url(#shape_55_fill)"/>
    <path d="M 271.3464660644531 363.2440490722656 C 276.9903259277344 364.96295166015625 281.7430725097656 363.3468322753906 284.44415283203125 368.1256103515625 C 285.4084777832031 369.254638671875 285.46136474609375 371.6953125 283.7630920410156 378.0753173828125 C 276.4520263671875 377.9530944824219 265.3442687988281 380.44287109375 253.9282684326172 378.7803039550781 C 250.2781524658203 375.4353332519531 251.80865478515625 367.2085876464844 253.0935516357422 365.9166259765625 C 259.318359375 364.40985107421875 265.68670654296875 363.5702819824219 271.3464660644531 363.2440490722656" stroke-width="0.0" fill="url(#shape_56_fill)"/>
    <path d="M 409.32989501953125 271.3594970703125 C 413.19549560546875 270.1461181640625 416.9679260253906 274.9746398925781 416.72552490234375 281.5635681152344 C 412.4459228515625 288.7310791015625 401.53863525390625 285.4559020996094 390.7103576660156 286.8243103027344 C 389.0963439941406 273.48797607421875 397.73760986328125 267.8231201171875 409.32989501953125 271.3594970703125" stroke-width="0.0" fill="url(#shape_57_fill)"/>
    <path d="M 632.3170166015625 352.4019470214844 C 632.5289306640625 352.9402770996094 660.029296875 353.0665283203125 668.693359375 353.25311279296875 C 668.4688110351562 358.3804016113281 662.3844604492188 360.907958984375 656.4429321289062 358.38739013671875 C 654.1027221679688 358.2126159667969 634.0576171875 361.073486328125 631.4230346679688 361.12432861328125 C 627.7453002929688 357.1500549316406 629.28125 353.5602111816406 632.3170166015625 352.4019470214844" stroke-width="0.0" fill="url(#shape_58_fill)"/>
    <path d="M 341.3446960449219 385.3232421875 C 342.6636047363281 390.3688049316406 358.107177734375 391.8448486328125 359.169189453125 394.8363037109375 C 356.251953125 399.54833984375 341.0473937988281 402.3448486328125 338.4571228027344 399.5119323730469 C 335.14239501953125 399.6007385253906 333.0894775390625 398.76953125 331.8788757324219 396.53326416015625 C 331.9853515625 394.9387512207031 330.76129150390625 393.47491455078125 332.4403076171875 390.6339416503906 C 334.3126220703125 385.8961181640625 338.1940612792969 386.5345153808594 341.3446960449219 385.3232421875" stroke-width="0.0" fill="url(#shape_59_fill)"/>
    <path d="M 459.9488525390625 364.4842834472656 C 463.9241943359375 364.1892395019531 472.20062255859375 368.2260437011719 472.82525634765625 373.1800842285156 C 471.6865234375 377.184326171875 470.4819030761719 375.9808044433594 463.0651550292969 375.974365234375 C 460.2074890136719 376.6853942871094 455.2026672363281 377.6743469238281 452.7490539550781 370.6395568847656 C 452.0150146484375 368.91998291015625 458.5905456542969 364.8867492675781 459.9488525390625 364.4842834472656" stroke-width="0.0" fill="url(#shape_60_fill)"/>
    <path d="M 436.53399658203125 433.21527099609375 C 440.2864074707031 434.2386779785156 442.4936218261719 436.3188781738281 441.98870849609375 439.1304626464844 C 440.5071716308594 442.4458312988281 430.21478271484375 441.18084716796875 425.88250732421875 442.5204162597656 C 422.5434265136719 438.0685119628906 424.1504821777344 434.45556640625 423.71197509765625 432.4810485839844 C 428.59613037109375 431.0614929199219 433.8350524902344 431.39178466796875 436.53399658203125 433.21527099609375" stroke-width="0.0" fill="url(#shape_61_fill)"/>
    <path d="M 185.4312286376953 411.4554443359375 C 186.2609405517578 413.93170166015625 185.0103302001953 414.79278564453125 186.91552734375 417.93505859375 C 184.84901428222656 420.1141357421875 183.42005920410156 419.553466796875 182.3003387451172 419.6433410644531 C 180.52996826171875 421.02532958984375 175.05064392089844 420.8371276855469 171.1347198486328 420.2939758300781 C 169.51211547851562 417.9230041503906 169.7432861328125 415.6355895996094 171.96090698242188 413.9388122558594 C 176.27536010742188 411.7060241699219 180.34219360351562 410.55438232421875 185.4312286376953 411.4554443359375" stroke-width="0.0" fill="url(#shape_62_fill)"/>
    <path d="M 332.6374816894531 418.2298583984375 C 334.983642578125 426.22821044921875 329.91265869140625 428.0778503417969 327.2989501953125 426.1724853515625 C 324.6147155761719 427.7883605957031 323.00982666015625 426.748291015625 320.3094787597656 427.6941223144531 C 318.6736755371094 426.05377197265625 319.5934143066406 419.9944152832031 317.79534912109375 418.415771484375 C 323.4782409667969 420.188720703125 326.6639404296875 418.890380859375 332.6374816894531 418.2298583984375" stroke-width="0.0" fill="url(#shape_63_fill)"/>
    <path d="M 55.37571716308594 273.72857666015625 C 56.4638557434082 270.601806640625 66.01045989990234 272.00982666015625 66.30580139160156 279.8675842285156 C 61.14757537841797 278.13824462890625 53.564151763916016 273.8146057128906 47.940181732177734 276.3502197265625 C 49.35905075073242 272.8127746582031 52.262516021728516 272.2540283203125 55.37571716308594 273.72857666015625" stroke-width="0.0" fill="url(#shape_64_fill)"/>
    <path d="M 304.2696838378906 438.53118896484375 C 304.4391784667969 437.0046081542969 305.7950744628906 436.0413513183594 313.1557312011719 436.875732421875 C 314.7886962890625 438.93463134765625 313.27386474609375 441.73846435546875 311.6017150878906 443.830810546875 C 307.850341796875 445.4430236816406 306.7855529785156 444.24346923828125 304.8548278808594 445.4880676269531 C 303.0521240234375 441.5094299316406 302.2574462890625 439.4665832519531 304.2696838378906 438.53118896484375" stroke-width="0.0" fill="url(#shape_65_fill)"/>
    <path d="M 0.9786527156829834 -0.1784973293542862 C 223.70265197753906 0.08674759417772293 443.653564453125 0.49434760212898254 673.476318359375 0.921360969543457 C 674.1743774414062 149.73828125 674.524658203125 294.6521301269531 673.4464721679688 445.3417053222656 C 450.36163330078125 446.0154724121094 230.98793029785156 445.98114013671875 0.7232581377029419 445.2093200683594 C 0.26996445655822754 296.9116516113281 -0.03377537801861763 149.3632049560547 0.9786527156829834 -0.1784973293542862" stroke-width="0.0" fill="url(#shape_66_fill)"/>
    <path d="M -0.14696034789085388 0.29366010427474976 C 222.65362548828125 0.06742414832115173 443.5151062011719 0.4205823838710785 673.4675903320312 0.7076041102409363 C 674.2486572265625 149.92921447753906 674.5553588867188 294.3972473144531 673.2833862304688 445.1631774902344 C 450.02203369140625 445.9633483886719 231.24365234375 445.9297790527344 0.8762956261634827 445.0531921386719 C 0.28623273968696594 296.5791015625 -0.13547483086585999 148.5458984375 -0.14696034789085388 0.29366010427474976" stroke-width="0.0" fill="url(#shape_67_fill)"/>
    <path d="M -0.60825514793396 -0.03619281202554703 C 223.0936279296875 -0.200636625289917 443.5022277832031 0.29810500144958496 673.4518432617188 0.09334560483694077 C 674.2305908203125 150.005615234375 674.5531616210938 294.4280700683594 673.288330078125 445.14434814453125 C 450.0358581542969 445.9781188964844 231.30181884765625 445.93719482421875 1.2073967456817627 445.03021240234375 C 0.38342058658599854 296.1320495605469 -0.012917080894112587 149.129150390625 -0.60825514793396 -0.03619281202554703" stroke-width="0.0" fill="url(#shape_68_fill)"/>
  </g>
</svg>
