<?xml version="1.0" ?>
<svg xmlns="http://www.w3.org/2000/svg" version="1.1" width="674" height="446">
  <defs>
    <radialGradient id="shape_0_fill" cx="0.5385756676557863" cy="0.7443946188340808" r="0.27474543178116884">
      <stop offset="0.0" stop-color="rgb(50, 51, 23)" stop-opacity="1.0"/>
      <stop offset="1.0" stop-color="rgb(50, 51, 23)" stop-opacity="1.0"/>
    </radialGradient>
    <radialGradient id="shape_1_fill" cx="0.5385756676557863" cy="0.7488789237668162" r="0.2041171835155091">
      <stop offset="0.0" stop-color="rgb(50, 50, 22)" stop-opacity="1.0"/>
      <stop offset="1.0" stop-color="rgb(50, 50, 22)" stop-opacity="1.0"/>
    </radialGradient>
    <radialGradient id="shape_2_fill" cx="0.09792284866468842" cy="0.7376681614349776" r="0.22062588021026522">
      <stop offset="0.0" stop-color="rgb(30, 90, 182)" stop-opacity="1.0"/>
      <stop offset="1.0" stop-color="rgb(30, 90, 182)" stop-opacity="1.0"/>
    </radialGradient>
    <radialGradient id="shape_3_fill" cx="0.2744807121661721" cy="0.21524665387756622" r="0.1251882332368845">
      <stop offset="0.0" stop-color="rgb(56, 68, 30)" stop-opacity="1.0"/>
      <stop offset="1.0" stop-color="rgb(56, 68, 30)" stop-opacity="1.0"/>
    </radialGradient>
    <radialGradient id="shape_4_fill" cx="0.1543026706231454" cy="0.9977578475336323" r="0.10288926755639141">
      <stop offset="0.0" stop-color="rgb(81, 79, 86)" stop-opacity="1.0"/>
      <stop offset="1.0" stop-color="rgb(81, 79, 86)" stop-opacity="1.0"/>
    </radialGradient>
    <radialGradient id="shape_5_fill" cx="0.14836795252225518" cy="0.2399103139013453" r="0.11835332581834199">
      <stop offset="0.0" stop-color="rgb(171, 168, 164)" stop-opacity="1.0"/>
      <stop offset="1.0" stop-color="rgb(171, 168, 164)" stop-opacity="1.0"/>
    </radialGradient>
    <radialGradient id="shape_6_fill" cx="0.18397626112759644" cy="0.9977578475336323" r="0.0754974885934892">
      <stop offset="0.0" stop-color="rgb(93, 90, 94)" stop-opacity="1.0"/>
      <stop offset="1.0" stop-color="rgb(93, 90, 94)" stop-opacity="1.0"/>
    </radialGradient>
    <radialGradient id="shape_7_fill" cx="0.2893175074183976" cy="0.05829596412556054" r="0.08666390552011372">
      <stop offset="0.0" stop-color="rgb(55, 66, 29)" stop-opacity="1.0"/>
      <stop offset="1.0" stop-color="rgb(55, 66, 29)" stop-opacity="1.0"/>
    </radialGradient>
    <radialGradient id="shape_8_fill" cx="0.3382789091115889" cy="0.9439461883408071" r="0.06756690277190167">
      <stop offset="0.0" stop-color="rgb(91, 124, 45)" stop-opacity="1.0"/>
      <stop offset="1.0" stop-color="rgb(91, 124, 45)" stop-opacity="1.0"/>
    </radialGradient>
    <radialGradient id="shape_9_fill" cx="0.30712166172106825" cy="0.9977578475336323" r="0.0730758406641929">
      <stop offset="0.0" stop-color="rgb(38, 48, 20)" stop-opacity="1.0"/>
      <stop offset="1.0" stop-color="rgb(38, 48, 20)" stop-opacity="1.0"/>
    </radialGradient>
    <radialGradient id="shape_10_fill" cx="0.3056379821958457" cy="0.9977578475336323" r="0.06792919147615971">
      <stop offset="0.0" stop-color="rgb(39, 49, 21)" stop-opacity="1.0"/>
      <stop offset="1.0" stop-color="rgb(39, 49, 21)" stop-opacity="1.0"/>
    </radialGradient>
    <radialGradient id="shape_11_fill" cx="0.21810089020771514" cy="0.968609865470852" r="0.06792919147615971">
      <stop offset="0.0" stop-color="rgb(138, 135, 129)" stop-opacity="1.0"/>
      <stop offset="1.0" stop-color="rgb(138, 135, 129)" stop-opacity="1.0"/>
    </radialGradient>
    <radialGradient id="shape_12_fill" cx="0.29080118694362017" cy="0.9977578475336323" r="0.07480746985189285">
      <stop offset="0.0" stop-color="rgb(22, 25, 13)" stop-opacity="1.0"/>
      <stop offset="1.0" stop-color="rgb(22, 25, 13)" stop-opacity="1.0"/>
    </radialGradient>
    <radialGradient id="shape_13_fill" cx="0.327893175074184" cy="0.8923766816143498" r="0.06900465877544279">
      <stop offset="0.0" stop-color="rgb(89, 117, 50)" stop-opacity="1.0"/>
      <stop offset="1.0" stop-color="rgb(89, 117, 50)" stop-opacity="1.0"/>
    </radialGradient>
    <radialGradient id="shape_14_fill" cx="0.142433234421365" cy="0.9977578475336323" r="0.06617211022079875">
      <stop offset="0.0" stop-color="rgb(155, 150, 153)" stop-opacity="1.0"/>
      <stop offset="1.0" stop-color="rgb(155, 150, 153)" stop-opacity="1.0"/>
    </radialGradient>
    <radialGradient id="shape_15_fill" cx="0.31008902077151335" cy="0.9977578475336323" r="0.06683642786405207">
      <stop offset="0.0" stop-color="rgb(43, 55, 23)" stop-opacity="1.0"/>
      <stop offset="1.0" stop-color="rgb(43, 55, 23)" stop-opacity="1.0"/>
    </radialGradient>
    <radialGradient id="shape_16_fill" cx="0.27299703264094954" cy="0.9977578475336323" r="0.08110449363640579">
      <stop offset="0.0" stop-color="rgb(31, 35, 19)" stop-opacity="1.0"/>
      <stop offset="1.0" stop-color="rgb(31, 35, 19)" stop-opacity="1.0"/>
    </radialGradient>
    <radialGradient id="shape_17_fill" cx="0.2893175074183976" cy="0.9977578475336323" r="0.07513486030193747">
      <stop offset="0.0" stop-color="rgb(22, 23, 13)" stop-opacity="1.0"/>
      <stop offset="1.0" stop-color="rgb(22, 23, 13)" stop-opacity="1.0"/>
    </radialGradient>
    <radialGradient id="shape_18_fill" cx="0.3293768545994065" cy="0.7556053811659192" r="0.06617211022079875">
      <stop offset="0.0" stop-color="rgb(83, 108, 65)" stop-opacity="1.0"/>
      <stop offset="1.0" stop-color="rgb(83, 108, 65)" stop-opacity="1.0"/>
    </radialGradient>
    <radialGradient id="shape_19_fill" cx="0.3516320474777448" cy="0.9977578475336323" r="0.06617211022079875">
      <stop offset="0.0" stop-color="rgb(95, 135, 39)" stop-opacity="1.0"/>
      <stop offset="1.0" stop-color="rgb(95, 135, 39)" stop-opacity="1.0"/>
    </radialGradient>
    <radialGradient id="shape_20_fill" cx="0.0830860534124629" cy="0.9977578475336323" r="0.06792919147615971">
      <stop offset="0.0" stop-color="rgb(49, 52, 66)" stop-opacity="1.0"/>
      <stop offset="1.0" stop-color="rgb(49, 52, 66)" stop-opacity="1.0"/>
    </radialGradient>
    <radialGradient id="shape_21_fill" cx="0.29821958456973297" cy="0.9977578475336323" r="0.06792919147615971">
      <stop offset="0.0" stop-color="rgb(33, 40, 17)" stop-opacity="1.0"/>
      <stop offset="1.0" stop-color="rgb(33, 40, 17)" stop-opacity="1.0"/>
    </radialGradient>
    <radialGradient id="shape_22_fill" cx="0.35608306341425955" cy="0.4439461883408072" r="0.06617211022079875">
      <stop offset="0.0" stop-color="rgb(106, 133, 45)" stop-opacity="1.0"/>
      <stop offset="1.0" stop-color="rgb(106, 133, 45)" stop-opacity="1.0"/>
    </radialGradient>
    <radialGradient id="shape_23_fill" cx="0.6454005934718101" cy="0.1412556053811659" r="0.06617211022079875">
      <stop offset="0.0" stop-color="rgb(46, 38, 13)" stop-opacity="1.0"/>
      <stop offset="1.0" stop-color="rgb(46, 38, 13)" stop-opacity="1.0"/>
    </radialGradient>
    <radialGradient id="shape_24_fill" cx="0.24925816023738873" cy="0.484304932735426" r="0.06617211022079875">
      <stop offset="0.0" stop-color="rgb(201, 208, 206)" stop-opacity="1.0"/>
      <stop offset="1.0" stop-color="rgb(201, 208, 206)" stop-opacity="1.0"/>
    </radialGradient>
    <radialGradient id="shape_25_fill" cx="0.6320474777448071" cy="0.9977578475336323" r="0.06617211022079875">
      <stop offset="0.0" stop-color="rgb(35, 28, 8)" stop-opacity="1.0"/>
      <stop offset="1.0" stop-color="rgb(35, 28, 8)" stop-opacity="1.0"/>
    </radialGradient>
    <radialGradient id="shape_26_fill" cx="0.1543026706231454" cy="0.32062780269058294" r="0.06617211022079875">
      <stop offset="0.0" stop-color="rgb(85, 94, 63)" stop-opacity="1.0"/>
      <stop offset="1.0" stop-color="rgb(85, 94, 63)" stop-opacity="1.0"/>
    </radialGradient>
    <radialGradient id="shape_27_fill" cx="0.1543026706231454" cy="0.32062780269058294" r="0.06617211022079875">
      <stop offset="0.0" stop-color="rgb(84, 94, 62)" stop-opacity="1.0"/>
      <stop offset="1.0" stop-color="rgb(84, 94, 62)" stop-opacity="1.0"/>
    </radialGradient>
    <radialGradient id="shape_28_fill" cx="0.04154302670623145" cy="0.02242152466367713" r="0.06617211022079875">
      <stop offset="0.0" stop-color="rgb(33, 54, 63)" stop-opacity="1.0"/>
      <stop offset="1.0" stop-color="rgb(33, 54, 63)" stop-opacity="1.0"/>
    </radialGradient>
    <radialGradient id="shape_29_fill" cx="0.33976258863681147" cy="0.6659192825112108" r="0.06617211022079875">
      <stop offset="0.0" stop-color="rgb(90, 117, 55)" stop-opacity="1.0"/>
      <stop offset="1.0" stop-color="rgb(90, 117, 55)" stop-opacity="1.0"/>
    </radialGradient>
    <radialGradient id="shape_30_fill" cx="0.04154302670623145" cy="0.020179372197309416" r="0.06617211022079875">
      <stop offset="0.0" stop-color="rgb(34, 54, 60)" stop-opacity="1.0"/>
      <stop offset="1.0" stop-color="rgb(34, 54, 60)" stop-opacity="1.0"/>
    </radialGradient>
    <radialGradient id="shape_31_fill" cx="0.12314540059347182" cy="0.9977578475336323" r="0.06617211022079875">
      <stop offset="0.0" stop-color="rgb(95, 103, 98)" stop-opacity="1.0"/>
      <stop offset="1.0" stop-color="rgb(95, 103, 98)" stop-opacity="1.0"/>
    </radialGradient>
    <radialGradient id="shape_32_fill" cx="0.4035608308605341" cy="0.984304932735426" r="0.06617211022079875">
      <stop offset="0.0" stop-color="rgb(126, 155, 63)" stop-opacity="1.0"/>
      <stop offset="1.0" stop-color="rgb(126, 155, 63)" stop-opacity="1.0"/>
    </radialGradient>
    <radialGradient id="shape_33_fill" cx="0.3249258160237389" cy="0.6053811659192825" r="0.06617211022079875">
      <stop offset="0.0" stop-color="rgb(93, 124, 71)" stop-opacity="1.0"/>
      <stop offset="1.0" stop-color="rgb(93, 124, 71)" stop-opacity="1.0"/>
    </radialGradient>
    <radialGradient id="shape_34_fill" cx="0.6468842729970327" cy="0.531390134529148" r="0.06617211022079875">
      <stop offset="0.0" stop-color="rgb(54, 47, 24)" stop-opacity="1.0"/>
      <stop offset="1.0" stop-color="rgb(54, 47, 24)" stop-opacity="1.0"/>
    </radialGradient>
    <radialGradient id="shape_35_fill" cx="0.142433234421365" cy="0.23318385650224216" r="0.06617211022079875">
      <stop offset="0.0" stop-color="rgb(74, 87, 45)" stop-opacity="1.0"/>
      <stop offset="1.0" stop-color="rgb(74, 87, 45)" stop-opacity="1.0"/>
    </radialGradient>
    <radialGradient id="shape_36_fill" cx="0.2878338278931751" cy="0.9977578475336323" r="0.06617211022079875">
      <stop offset="0.0" stop-color="rgb(80, 96, 53)" stop-opacity="1.0"/>
      <stop offset="1.0" stop-color="rgb(80, 96, 53)" stop-opacity="1.0"/>
    </radialGradient>
    <radialGradient id="shape_37_fill" cx="0.129080118694362" cy="0.9977578475336323" r="0.06617211022079875">
      <stop offset="0.0" stop-color="rgb(87, 97, 81)" stop-opacity="1.0"/>
      <stop offset="1.0" stop-color="rgb(87, 97, 81)" stop-opacity="1.0"/>
    </radialGradient>
    <radialGradient id="shape_38_fill" cx="0.3382789091115889" cy="0.5605381165919282" r="0.06617211022079875">
      <stop offset="0.0" stop-color="rgb(79, 106, 48)" stop-opacity="1.0"/>
      <stop offset="1.0" stop-color="rgb(79, 106, 48)" stop-opacity="1.0"/>
    </radialGradient>
    <radialGradient id="shape_39_fill" cx="0.40059347181008903" cy="0.9641255605381166" r="0.06617211022079875">
      <stop offset="0.0" stop-color="rgb(138, 168, 60)" stop-opacity="1.0"/>
      <stop offset="1.0" stop-color="rgb(138, 168, 60)" stop-opacity="1.0"/>
    </radialGradient>
    <radialGradient id="shape_40_fill" cx="0.6172106824925816" cy="0.8834080717488789" r="0.06617211022079875">
      <stop offset="0.0" stop-color="rgb(45, 39, 28)" stop-opacity="1.0"/>
      <stop offset="1.0" stop-color="rgb(45, 39, 28)" stop-opacity="1.0"/>
    </radialGradient>
    <radialGradient id="shape_41_fill" cx="0.6454005934718101" cy="0.08744394618834081" r="0.06617211022079875">
      <stop offset="0.0" stop-color="rgb(58, 48, 21)" stop-opacity="1.0"/>
      <stop offset="1.0" stop-color="rgb(58, 48, 21)" stop-opacity="1.0"/>
    </radialGradient>
    <radialGradient id="shape_42_fill" cx="0.5845697329376854" cy="0.6188340807174888" r="0.06617211022079875">
      <stop offset="0.0" stop-color="rgb(62, 59, 56)" stop-opacity="1.0"/>
      <stop offset="1.0" stop-color="rgb(62, 59, 56)" stop-opacity="1.0"/>
    </radialGradient>
    <radialGradient id="shape_43_fill" cx="0.3575667429394821" cy="0.5067264573991032" r="0.06617211022079875">
      <stop offset="0.0" stop-color="rgb(104, 143, 36)" stop-opacity="1.0"/>
      <stop offset="1.0" stop-color="rgb(104, 143, 36)" stop-opacity="1.0"/>
    </radialGradient>
    <radialGradient id="shape_44_fill" cx="0.5934718100890207" cy="0.9977578475336323" r="0.06617211022079875">
      <stop offset="0.0" stop-color="rgb(89, 61, 18)" stop-opacity="1.0"/>
      <stop offset="1.0" stop-color="rgb(89, 61, 18)" stop-opacity="1.0"/>
    </radialGradient>
    <radialGradient id="shape_45_fill" cx="0.612759643916914" cy="0.04035874439461883" r="0.06617211022079875">
      <stop offset="0.0" stop-color="rgb(157, 136, 123)" stop-opacity="1.0"/>
      <stop offset="1.0" stop-color="rgb(157, 136, 123)" stop-opacity="1.0"/>
    </radialGradient>
    <radialGradient id="shape_46_fill" cx="0.28635014836795253" cy="0.9977578475336323" r="0.06617211022079875">
      <stop offset="0.0" stop-color="rgb(82, 99, 55)" stop-opacity="1.0"/>
      <stop offset="1.0" stop-color="rgb(82, 99, 55)" stop-opacity="1.0"/>
    </radialGradient>
    <radialGradient id="shape_47_fill" cx="0.28635014836795253" cy="0.8183856502242153" r="0.06617211022079875">
      <stop offset="0.0" stop-color="rgb(166, 189, 197)" stop-opacity="1.0"/>
      <stop offset="1.0" stop-color="rgb(166, 189, 197)" stop-opacity="1.0"/>
    </radialGradient>
    <radialGradient id="shape_48_fill" cx="0.40801186943620177" cy="0.9977578475336323" r="0.06617211022079875">
      <stop offset="0.0" stop-color="rgb(107, 135, 68)" stop-opacity="1.0"/>
      <stop offset="1.0" stop-color="rgb(107, 135, 68)" stop-opacity="1.0"/>
    </radialGradient>
    <radialGradient id="shape_49_fill" cx="0.19287833827893175" cy="0.3991031390134529" r="0.06617211022079875">
      <stop offset="0.0" stop-color="rgb(92, 100, 54)" stop-opacity="1.0"/>
      <stop offset="1.0" stop-color="rgb(92, 100, 54)" stop-opacity="1.0"/>
    </radialGradient>
    <radialGradient id="shape_50_fill" cx="0.6439169139465876" cy="0.7376681614349776" r="0.06617211022079875">
      <stop offset="0.0" stop-color="rgb(65, 56, 25)" stop-opacity="1.0"/>
      <stop offset="1.0" stop-color="rgb(65, 56, 25)" stop-opacity="1.0"/>
    </radialGradient>
    <radialGradient id="shape_51_fill" cx="0.5845697329376854" cy="0.6322869955156951" r="0.06617211022079875">
      <stop offset="0.0" stop-color="rgb(75, 68, 60)" stop-opacity="1.0"/>
      <stop offset="1.0" stop-color="rgb(75, 68, 60)" stop-opacity="1.0"/>
    </radialGradient>
    <radialGradient id="shape_52_fill" cx="0.2997032640949555" cy="0.6031390134529148" r="0.06617211022079875">
      <stop offset="0.0" stop-color="rgb(107, 158, 118)" stop-opacity="1.0"/>
      <stop offset="1.0" stop-color="rgb(107, 158, 118)" stop-opacity="1.0"/>
    </radialGradient>
    <radialGradient id="shape_53_fill" cx="0.6097922848664689" cy="0.45067264573991034" r="0.06617211022079875">
      <stop offset="0.0" stop-color="rgb(38, 39, 27)" stop-opacity="1.0"/>
      <stop offset="1.0" stop-color="rgb(38, 39, 27)" stop-opacity="1.0"/>
    </radialGradient>
    <radialGradient id="shape_54_fill" cx="0.6335311572700296" cy="0.426009002822397" r="0.06617211022079875">
      <stop offset="0.0" stop-color="rgb(67, 49, 20)" stop-opacity="1.0"/>
      <stop offset="1.0" stop-color="rgb(67, 49, 20)" stop-opacity="1.0"/>
    </radialGradient>
    <radialGradient id="shape_55_fill" cx="0.37091988130563797" cy="0.5986547085201793" r="0.06617211022079875">
      <stop offset="0.0" stop-color="rgb(132, 174, 55)" stop-opacity="1.0"/>
      <stop offset="1.0" stop-color="rgb(132, 174, 55)" stop-opacity="1.0"/>
    </radialGradient>
    <radialGradient id="shape_56_fill" cx="0.5489614243323442" cy="0.600896860986547" r="0.06617211022079875">
      <stop offset="0.0" stop-color="rgb(50, 62, 80)" stop-opacity="1.0"/>
      <stop offset="1.0" stop-color="rgb(50, 62, 80)" stop-opacity="1.0"/>
    </radialGradient>
    <radialGradient id="shape_57_fill" cx="0.4094955489614243" cy="0.9035874439461884" r="0.06617211022079875">
      <stop offset="0.0" stop-color="rgb(111, 144, 47)" stop-opacity="1.0"/>
      <stop offset="1.0" stop-color="rgb(111, 144, 47)" stop-opacity="1.0"/>
    </radialGradient>
    <radialGradient id="shape_58_fill" cx="0.5281899109792285" cy="0.9977578475336323" r="0.06617211022079875">
      <stop offset="0.0" stop-color="rgb(50, 43, 14)" stop-opacity="1.0"/>
      <stop offset="1.0" stop-color="rgb(50, 43, 14)" stop-opacity="1.0"/>
    </radialGradient>
    <radialGradient id="shape_59_fill" cx="0.5845697329376854" cy="0.7690582959641256" r="0.06617211022079875">
      <stop offset="0.0" stop-color="rgb(61, 63, 58)" stop-opacity="1.0"/>
      <stop offset="1.0" stop-color="rgb(61, 63, 58)" stop-opacity="1.0"/>
    </radialGradient>
    <radialGradient id="shape_60_fill" cx="0.5489614243323442" cy="0.9977578475336323" r="0.06617211022079875">
      <stop offset="0.0" stop-color="rgb(140, 131, 64)" stop-opacity="1.0"/>
      <stop offset="1.0" stop-color="rgb(140, 131, 64)" stop-opacity="1.0"/>
    </radialGradient>
    <radialGradient id="shape_61_fill" cx="0.6468842729970327" cy="0.968609865470852" r="0.06617211022079875">
      <stop offset="0.0" stop-color="rgb(95, 74, 23)" stop-opacity="1.0"/>
      <stop offset="1.0" stop-color="rgb(95, 74, 23)" stop-opacity="1.0"/>
    </radialGradient>
    <radialGradient id="shape_62_fill" cx="0.615727002967359" cy="0.3991031390134529" r="0.06617211022079875">
      <stop offset="0.0" stop-color="rgb(55, 47, 13)" stop-opacity="1.0"/>
      <stop offset="1.0" stop-color="rgb(55, 47, 13)" stop-opacity="1.0"/>
    </radialGradient>
    <radialGradient id="shape_63_fill" cx="0.6261127596439169" cy="0.7286995515695067" r="0.06617211022079875">
      <stop offset="0.0" stop-color="rgb(79, 66, 32)" stop-opacity="1.0"/>
      <stop offset="1.0" stop-color="rgb(79, 66, 32)" stop-opacity="1.0"/>
    </radialGradient>
    <radialGradient id="shape_64_fill" cx="0.40801186943620177" cy="0.12556053811659193" r="0.06617211022079875">
      <stop offset="0.0" stop-color="rgb(76, 66, 59)" stop-opacity="1.0"/>
      <stop offset="1.0" stop-color="rgb(76, 66, 59)" stop-opacity="1.0"/>
    </radialGradient>
    <radialGradient id="shape_65_fill" cx="0.6528189910979229" cy="0.6883408071748879" r="0.06617211022079875">
      <stop offset="0.0" stop-color="rgb(121, 97, 39)" stop-opacity="1.0"/>
      <stop offset="1.0" stop-color="rgb(121, 97, 39)" stop-opacity="1.0"/>
    </radialGradient>
    <radialGradient id="shape_66_fill" cx="0.6483679525222552" cy="0.4618834080717489" r="0.06617211022079875">
      <stop offset="0.0" stop-color="rgb(71, 67, 43)" stop-opacity="1.0"/>
      <stop offset="1.0" stop-color="rgb(71, 67, 43)" stop-opacity="1.0"/>
    </radialGradient>
    <radialGradient id="shape_67_fill" cx="0.5934718100890207" cy="0.9977578475336323" r="0.06617211022079875">
      <stop offset="0.0" stop-color="rgb(73, 55, 25)" stop-opacity="1.0"/>
      <stop offset="1.0" stop-color="rgb(73, 55, 25)" stop-opacity="1.0"/>
    </radialGradient>
    <radialGradient id="shape_68_fill" cx="0.486646884272997" cy="0.9977578475336323" r="0.06617211022079875">
      <stop offset="0.0" stop-color="rgb(109, 116, 47)" stop-opacity="0.9900000691413879"/>
      <stop offset="1.0" stop-color="rgb(109, 116, 53)" stop-opacity="0.9900000095367432"/>
    </radialGradient>
  </defs>
  <g>
    <path d="M -0.10269935429096222 274.06304931640625 C 23.109724044799805 273.69085693359375 31.373220443725586 275.1338806152344 40.70713806152344 275.5529479980469 C 48.770408630371094 275.61041259765625 48.635406494140625 277.1736145019531 57.015708923339844 274.0169372558594 C 60.3858528137207 274.2886962890625 63.35581970214844 274.97344970703125 66.33346557617188 276.08905029296875 C 76.2604751586914 278.2131042480469 104.66845703125 277.7575988769531 108.51428985595703 278.5029602050781 C 114.02455139160156 278.1792297363281 124.4034194946289 279.6805419921875 128.0767822265625 281.00396728515625 C 134.67156982421875 281.5133972167969 140.6581268310547 281.28314208984375 149.33973693847656 281.5658264160156 C 185.53982543945312 282.056640625 185.4744415283203 282.2823181152344 199.1138916015625 286.3180847167969 C 204.75042724609375 288.3713684082031 196.53749084472656 286.0888366699219 223.14601135253906 283.3752136230469 C 234.17291259765625 284.21148681640625 277.3756408691406 283.2037048339844 303.0601806640625 284.5848693847656 C 336.4559631347656 285.673095703125 417.50830078125 285.41259765625 458.6495361328125 284.4658203125 C 482.17578125 283.5572814941406 531.6831665039062 284.620849609375 542.0546875 285.4147033691406 C 551.07080078125 287.37310791015625 549.224365234375 283.6869812011719 558.6935424804688 285.5747985839844 C 568.3574829101562 286.68829345703125 608.5255737304688 287.04278564453125 617.3527221679688 287.0228576660156 C 641.5278930664062 287.09063720703125 650.9954833984375 287.78271484375 655.749755859375 287.82672119140625 C 661.1883544921875 288.1949157714844 671.147705078125 287.4958801269531 674.0364379882812 289.047607421875 C 674.1404418945312 340.81317138671875 673.8060302734375 392.6224670410156 673.966552734375 445.935791015625 C 451.4442138671875 446.05389404296875 229.14239501953125 446.02130126953125 0.07309053838253021 445.9058532714844 C -0.06354883313179016 389.088623046875 0.05991257727146149 332.37213134765625 -0.10269935429096222 274.06304931640625" stroke-width="0.0" fill="url(#shape_0_fill)"/>
    <path d="M 0.09513615816831589 275.0416564941406 C 36.20781326293945 275.0726318359375 36.284305572509766 274.9263610839844 43.95872497558594 276.9642028808594 C 56.37762451171875 279.2891845703125 67.6238784790039 278.0003967285156 76.9933090209961 278.6195983886719 C 113.62364959716797 278.93621826171875 113.7298812866211 279.0624694824219 126.2230453491211 280.56304931640625 C 130.35296630859375 281.380615234375 154.31263732910156 281.2321472167969 156.68251037597656 281.4510803222656 C 185.2753143310547 281.53472900390625 185.28970336914062 281.84686279296875 195.48451232910156 285.9905090332031 C 200.92523193359375 288.0743408203125 201.7115478515625 287.1553649902344 216.61300659179688 284.1441650390625 C 228.79266357421875 283.0187072753906 281.501708984375 284.4495849609375 302.75244140625 285.1524658203125 C 328.5845642089844 287.02978515625 441.6307373046875 284.77117919921875 446.70904541015625 285.1181945800781 C 467.0695495605469 284.83843994140625 483.26318359375 285.0621643066406 501.81494140625 285.5965270996094 C 508.785888671875 286.01092529296875 516.1746215820312 286.1338195800781 523.1550903320312 286.00823974609375 C 527.4827880859375 286.0213623046875 531.4556274414062 286.2232360839844 535.5277099609375 286.60577392578125 C 543.7578735351562 286.96099853515625 552.141357421875 287.11090087890625 560.3681640625 286.9479675292969 C 569.9808349609375 286.8586730957031 579.4274291992188 287.10467529296875 588.8836059570312 287.5038146972656 C 603.796875 288.1040344238281 618.5527954101562 287.99822998046875 633.4453735351562 288.0559387207031 C 647.0244750976562 287.81695556640625 660.396728515625 288.35321044921875 674.0347900390625 289.03277587890625 C 673.8829956054688 340.8521728515625 674.0760498046875 392.5386962890625 674.0304565429688 445.9992370605469 C 451.47955322265625 446.0395202636719 229.2177734375 445.9923400878906 0.016174372285604477 446.0042419433594 C 0.04688733443617821 389.5504455566406 -0.029964717105031013 333.17547607421875 0.09513615816831589 275.0416564941406" stroke-width="0.0" fill="url(#shape_1_fill)"/>
    <path d="M -0.017847463488578796 -0.003912542015314102 C 219.76795959472656 0.04434511438012123 439.4368896484375 -0.21964508295059204 666.1177978515625 0.133658304810524 C 659.5253295898438 4.8250274658203125 643.4801635742188 34.17357635498047 636.5551147460938 46.251617431640625 C 633.1383056640625 50.642601013183594 608.0079345703125 90.04479217529297 582.2880859375 80.66605377197266 C 578.0511474609375 80.4332504272461 560.455322265625 67.32382202148438 529.7755126953125 68.89990234375 C 527.21875 70.29563903808594 524.9254150390625 71.72532653808594 522.0121459960938 69.917236328125 C 524.1672973632812 69.0653076171875 501.5663146972656 61.91318893432617 501.0713806152344 62.12907409667969 C 492.427001953125 61.29129409790039 484.2115478515625 60.98882293701172 477.0292663574219 65.96133422851562 C 474.7020568847656 69.37635803222656 474.1973571777344 72.67045593261719 473.71246337890625 76.3734130859375 C 472.52850341796875 86.21829986572266 462.8968505859375 102.51212310791016 458.86370849609375 107.415771484375 C 455.68994140625 109.10334777832031 453.49163818359375 107.9251708984375 450.590087890625 107.37830352783203 C 439.99969482421875 103.87226867675781 412.21539306640625 101.66878509521484 409.8079528808594 105.06897735595703 C 402.5355224609375 112.45487976074219 402.03497314453125 116.62999725341797 399.89141845703125 123.79865264892578 C 398.29962158203125 132.54331970214844 391.3794250488281 135.89541625976562 389.2411193847656 137.5565948486328 C 380.87451171875 141.468994140625 379.6863098144531 160.87606811523438 379.0811462402344 164.8378143310547 C 378.3240661621094 170.60475158691406 377.14678955078125 174.8699951171875 373.76318359375 179.75729370117188 C 371.3209533691406 182.0738067626953 368.14447021484375 181.2567596435547 355.69354248046875 185.77328491210938 C 345.7151794433594 193.2489013671875 334.3261413574219 184.47247314453125 320.5988464355469 183.20811462402344 C 316.54644775390625 183.39273071289062 315.9801025390625 189.71514892578125 314.4931945800781 192.4905548095703 C 313.3303527832031 196.95184326171875 311.4490051269531 199.101806640625 307.9653625488281 201.95465087890625 C 307.03106689453125 201.8739471435547 303.4547119140625 199.8712158203125 302.0909423828125 197.4015350341797 C 299.6015930175781 192.90280151367188 296.1568298339844 194.5832977294922 294.817138671875 194.11741638183594 C 293.96527099609375 195.77102661132812 292.1561279296875 199.0551300048828 287.7231140136719 198.92974853515625 C 279.1778564453125 198.54562377929688 277.54608154296875 193.62966918945312 277.03326416015625 193.18197631835938 C 275.35595703125 190.70556640625 272.1069641113281 191.11624145507812 269.72216796875 191.1748046875 C 264.4929504394531 191.63304138183594 262.1918640136719 197.29685974121094 260.76336669921875 198.69227600097656 C 261.3971862792969 198.3153076171875 260.08917236328125 200.20652770996094 257.7279357910156 201.44140625 C 256.4520568847656 202.60757446289062 251.15048217773438 202.60604858398438 249.01168823242188 202.11683654785156 C 244.3181610107422 196.91192626953125 245.11746215820312 195.07826232910156 241.62229919433594 183.49856567382812 C 245.84059143066406 177.35626220703125 212.6553497314453 145.29029846191406 210.97569274902344 143.11671447753906 C 185.01034545898438 120.73966979980469 196.6187744140625 98.27192687988281 193.07363891601562 88.56185150146484 C 194.26722717285156 84.12339782714844 156.7786407470703 72.41744232177734 147.38766479492188 65.91205596923828 C 123.82916259765625 43.333709716796875 61.54938888549805 54.00934982299805 36.393516540527344 61.147422790527344 C 16.32925796508789 69.50466918945312 13.215906143188477 65.3940200805664 -0.04776293784379959 66.09126281738281 C 0.1088935136795044 44.16448974609375 -0.07844340801239014 22.466552734375 -0.017847463488578796 -0.003912542015314102" stroke-width="0.0" fill="url(#shape_2_fill)"/>
    <path d="M 88.6888427734375 66.06298065185547 C 89.04035949707031 71.96902465820312 90.26334381103516 66.50484466552734 92.01193237304688 70.6618423461914 C 93.49177551269531 73.75485229492188 94.73538970947266 80.9924087524414 94.780029296875 82.43856048583984 C 95.61467742919922 83.69246673583984 99.55500030517578 83.35768127441406 101.64207458496094 81.68052673339844 C 104.4146957397461 79.15251922607422 106.73473358154297 78.61534881591797 110.0977554321289 79.03431701660156 C 114.17202758789062 85.61296081542969 115.63198852539062 91.69586944580078 116.31558227539062 99.3588638305664 C 116.27806854248047 100.28177642822266 117.5824203491211 107.89596557617188 119.05192565917969 111.03289794921875 C 120.509521484375 110.14106750488281 125.36665344238281 110.41336822509766 126.60452270507812 107.76081085205078 C 127.69131469726562 105.66621398925781 135.7122802734375 104.50161743164062 135.93031311035156 104.00138092041016 C 136.136962890625 103.23716735839844 135.98178100585938 102.23670959472656 136.55335998535156 97.65675354003906 C 136.84182739257812 93.30260467529297 137.0786895751953 92.82511138916016 137.33656311035156 88.12960052490234 C 137.80516052246094 84.78340911865234 138.15591430664062 84.90333557128906 140.9959716796875 83.00979614257812 C 137.713623046875 83.72587585449219 147.33419799804688 81.87378692626953 147.17710876464844 83.7201156616211 C 147.4714813232422 86.46717834472656 149.35609436035156 96.71583557128906 149.0802764892578 101.84931182861328 C 156.4167938232422 103.9692153930664 147.9571533203125 104.65620422363281 150.35972595214844 107.87535095214844 C 154.6532745361328 108.37313842773438 149.7404327392578 114.109619140625 149.20541381835938 113.64427947998047 C 156.40280151367188 111.24491882324219 157.1455841064453 122.78579711914062 158.05300903320312 122.75811004638672 C 161.3037872314453 123.8458480834961 165.40907287597656 124.09281158447266 170.8860321044922 123.91006469726562 C 176.22286987304688 120.06180572509766 174.10406494140625 120.92723083496094 177.601318359375 121.42798614501953 C 180.0736083984375 121.79805755615234 179.06675720214844 125.12002563476562 181.30422973632812 129.060791015625 C 185.14849853515625 129.74598693847656 181.06983947753906 134.41998291015625 184.3741912841797 134.46546936035156 C 187.82252502441406 134.4179229736328 190.2996063232422 140.7301788330078 191.36390686035156 142.62484741210938 C 194.1699676513672 144.44544982910156 206.4982452392578 156.61788940429688 204.83151245117188 171.0363006591797 C 205.03602600097656 174.29685974121094 205.92750549316406 176.83055114746094 208.3603515625 179.67584228515625 C 210.41835021972656 180.78660583496094 214.28334045410156 200.30885314941406 212.64723205566406 204.87013244628906 C 212.27383422851562 209.4329833984375 204.46426391601562 209.39625549316406 202.66290283203125 210.11801147460938 C 200.35951232910156 211.2907257080078 200.6905517578125 211.00807189941406 199.62982177734375 213.3005828857422 C 197.50091552734375 217.01531982421875 195.30953979492188 217.3882293701172 191.6451873779297 218.7779541015625 C 184.90342712402344 221.7183380126953 182.98501586914062 224.1977081298828 179.79034423828125 231.1113739013672 C 175.69561767578125 233.15916442871094 179.53231811523438 239.62608337402344 177.2510528564453 241.87989807128906 C 176.03335571289062 247.91624450683594 180.05287170410156 254.9617919921875 173.9042510986328 260.6487121582031 C 170.70423889160156 263.88409423828125 145.4081268310547 264.1161193847656 138.81285095214844 265.1967468261719 C 129.48582458496094 265.91546630859375 122.52951049804688 267.3010559082031 113.85489654541016 268.97100830078125 C 104.141845703125 270.96234130859375 77.1160659790039 269.8573913574219 73.05711364746094 270.2421875 C 47.065895080566406 267.2452697753906 57.18914794921875 268.0151062011719 51.216922760009766 268.8618469238281 C 43.69163131713867 271.7851867675781 1.9820350408554077 269.7249450683594 -0.0070500909350812435 267.9510192871094 C -0.08432617038488388 217.16734313964844 0.017185188829898834 166.4482879638672 -0.004502033814787865 114.0511245727539 C 11.176963806152344 115.36544036865234 17.45209312438965 116.3349838256836 26.542009353637695 122.56884765625 C 31.612865447998047 125.9395523071289 36.65034866333008 128.0216064453125 42.33994674682617 130.0192108154297 C 46.36594009399414 131.81954956054688 48.62455749511719 133.91162109375 50.90705490112305 138.32106018066406 C 50.163291931152344 142.62841796875 62.183631896972656 142.80638122558594 62.208187103271484 141.29620361328125 C 62.284786224365234 136.92335510253906 62.741310119628906 133.5381622314453 63.01911926269531 126.41055297851562 C 63.717193603515625 121.31934356689453 63.04765319824219 118.39629364013672 64.93379974365234 110.97206115722656 C 68.77661895751953 112.27274322509766 66.24932861328125 105.65312194824219 72.09540557861328 102.6426010131836 C 71.35562133789062 100.15839385986328 72.54711151123047 88.05072784423828 75.36512756347656 83.9856948852539 C 78.62054443359375 85.36670684814453 77.9698486328125 73.76535034179688 83.9890365600586 72.04186248779297 C 84.2540283203125 71.43549346923828 86.15304565429688 66.33673095703125 88.6888427734375 66.06298065185547" stroke-width="0.0" fill="url(#shape_3_fill)"/>
    <path d="M 673.8640747070312 2.0451931953430176 C 674.1812744140625 49.16686248779297 673.8469848632812 96.31910705566406 674.011474609375 144.99549865722656 C 666.319091796875 138.6815643310547 663.3671875 130.68890380859375 661.0804443359375 120.86660766601562 C 660.554443359375 120.23799133300781 652.27978515625 105.40702056884766 650.6053466796875 112.84852600097656 C 649.3165893554688 111.36454772949219 644.535400390625 147.5248260498047 639.0244750976562 151.0679931640625 C 632.783935546875 155.51681518554688 629.1287231445312 139.26812744140625 626.9263916015625 139.09275817871094 C 620.52734375 135.83514404296875 616.5538330078125 147.8585968017578 614.23095703125 144.3528594970703 C 610.4800415039062 142.41416931152344 611.5166015625 143.62152099609375 608.9134521484375 139.93875122070312 C 608.1162109375 136.9584503173828 607.7900390625 134.0316619873047 602.0176391601562 128.99122619628906 C 598.553466796875 134.14093017578125 597.1856689453125 139.04685974121094 595.6349487304688 145.01318359375 C 595.0503540039062 148.81201171875 593.5401611328125 151.0509033203125 593.0515747070312 153.5952606201172 C 592.0977172851562 160.2627716064453 590.77880859375 168.26583862304688 581.2448120117188 169.3773193359375 C 570.8269653320312 170.69798278808594 570.2750244140625 159.99383544921875 568.3326416015625 158.1154022216797 C 567.028076171875 156.46412658691406 563.685546875 153.993896484375 559.9843139648438 152.9444580078125 C 561.4175415039062 149.3599853515625 555.9815063476562 151.63523864746094 554.0692138671875 153.06724548339844 C 551.7412719726562 155.90650939941406 550.5840454101562 158.95703125 548.6421508789062 161.91360473632812 C 545.3458862304688 159.8347930908203 540.5534057617188 162.6361541748047 534.60205078125 155.88821411132812 C 530.497314453125 153.25205993652344 531.086181640625 158.68348693847656 524.9403686523438 158.34754943847656 C 518.6783447265625 162.00006103515625 520.180419921875 160.59249877929688 521.0479736328125 168.04539489746094 C 517.0973510742188 171.01658630371094 516.541015625 164.11813354492188 516.9821166992188 171.84291076660156 C 508.9959411621094 174.46566772460938 513.2866821289062 174.40049743652344 506.6013488769531 173.29676818847656 C 502.7818908691406 170.63662719726562 503.3125 170.21145629882812 502.56121826171875 167.4771270751953 C 501.15966796875 152.79354858398438 515.1167602539062 128.72879028320312 524.1721801757812 130.9615936279297 C 524.0999755859375 124.69026184082031 538.3717041015625 113.53394317626953 547.884765625 112.2134780883789 C 558.0736694335938 109.81392669677734 556.2142333984375 110.24384307861328 559.4217529296875 108.08861541748047 C 562.7555541992188 105.26972961425781 565.9558715820312 104.8073959350586 570.5507202148438 104.06440734863281 C 575.99169921875 102.39463806152344 572.2205200195312 98.6468505859375 580.1332397460938 95.31172943115234 C 581.9623413085938 89.69621276855469 601.97265625 79.23155212402344 612.229736328125 77.39373016357422 C 614.9307250976562 71.70366668701172 641.0177001953125 48.58300018310547 643.6642456054688 34.92494583129883 C 645.2249145507812 32.65038299560547 648.0050048828125 29.893388748168945 647.6837158203125 29.49124526977539 C 646.0560302734375 28.930559158325195 664.1510009765625 -2.6643006801605225 673.8640747070312 2.0451931953430176" stroke-width="0.0" fill="url(#shape_4_fill)"/>
    <path d="M 151.89793395996094 68.64791870117188 C 152.1834716796875 68.35662841796875 187.77516174316406 82.4967041015625 195.09034729003906 88.66981506347656 C 181.19439697265625 115.95339965820312 216.94651794433594 152.72573852539062 221.0274200439453 154.38665771484375 C 239.4042510986328 169.57635498046875 243.89273071289062 184.08346557617188 241.8343048095703 193.76138305664062 C 237.7177734375 193.98672485351562 236.7769775390625 185.77944946289062 235.7501983642578 185.07791137695312 C 234.44134521484375 182.9615936279297 235.16351318359375 184.03482055664062 231.91363525390625 181.88824462890625 C 232.24026489257812 183.3966827392578 230.9677276611328 192.63160705566406 227.93894958496094 195.9489288330078 C 227.4459686279297 195.97947692871094 227.19091796875 205.97476196289062 220.78846740722656 206.94277954101562 C 214.20855712890625 207.43209838867188 215.07066345214844 198.76622009277344 213.99496459960938 195.3399658203125 C 212.39173889160156 184.96495056152344 212.4664306640625 185.38668823242188 206.7593994140625 176.8502655029297 C 203.63478088378906 171.8202667236328 204.93511962890625 165.54776000976562 205.26959228515625 159.8357696533203 C 206.01507568359375 153.95550537109375 195.907470703125 143.68849182128906 192.3931427001953 142.3872833251953 C 188.99649047851562 140.4384307861328 188.80470275878906 138.53912353515625 186.7775421142578 134.7897186279297 C 182.38333129882812 130.9501953125 183.5789031982422 123.163818359375 182.97445678710938 117.37709045410156 C 179.5481719970703 116.76567077636719 177.26611328125 117.22858428955078 174.37973022460938 118.54511260986328 C 173.00534057617188 123.37259674072266 168.88136291503906 126.70045471191406 158.30941772460938 123.29396057128906 C 155.73988342285156 121.30123138427734 152.12474060058594 102.11012268066406 153.14512634277344 96.30221557617188 C 153.1683807373047 88.86542510986328 153.456787109375 82.70914459228516 149.89793395996094 76.07560729980469 C 149.33096313476562 76.1458969116211 147.89889526367188 68.04773712158203 151.89793395996094 68.64791870117188" stroke-width="0.0" fill="url(#shape_5_fill)"/>
    <path d="M 613.60546875 82.89697265625 C 618.1751708984375 84.60137176513672 620.0260620117188 85.44061279296875 631.084716796875 85.68370056152344 C 636.5410766601562 86.26078033447266 638.684814453125 87.22911071777344 641.6314697265625 88.09754943847656 C 641.776611328125 87.16034698486328 668.8065185546875 92.21669006347656 673.9722290039062 97.0654525756836 C 674.1691284179688 112.65879821777344 673.7198486328125 128.8084259033203 674.0133666992188 145.0746612548828 C 667.9465942382812 140.12681579589844 664.6055297851562 134.71478271484375 663.026611328125 126.86810302734375 C 660.576171875 121.26164245605469 660.8192138671875 115.48944854736328 653.164794921875 110.93854522705078 C 646.3892211914062 115.2732162475586 643.8937377929688 143.7256317138672 643.2415771484375 141.9094696044922 C 643.084228515625 145.7388153076172 641.928466796875 148.44351196289062 640.7527465820312 149.0875244140625 C 639.347900390625 151.21121215820312 638.4194946289062 151.58901977539062 634.0438232421875 150.1417694091797 C 631.3836669921875 146.61854553222656 628.9100341796875 141.5449981689453 629.1932983398438 140.57699584960938 C 629.3887329101562 137.6164093017578 623.5006103515625 137.55001831054688 620.156005859375 139.22433471679688 C 618.851318359375 141.30548095703125 618.8082885742188 141.53558349609375 618.1914672851562 143.934814453125 C 614.7920532226562 143.92787170410156 614.5579223632812 143.70443725585938 610.9005126953125 143.0739288330078 C 608.9678344726562 139.7666015625 609.2005615234375 139.88262939453125 608.4052124023438 138.16111755371094 C 606.6079711914062 132.03726196289062 604.2380981445312 123.61225891113281 599.8740844726562 130.9954071044922 C 598.7476196289062 135.24069213867188 593.6023559570312 149.01644897460938 591.9383544921875 157.94662475585938 C 590.381103515625 164.10643005371094 589.8966674804688 164.03192138671875 585.2033081054688 168.21844482421875 C 581.8600463867188 170.3863067626953 578.2979125976562 170.20205688476562 574.9639282226562 169.03944396972656 C 572.0714721679688 166.20745849609375 570.7054443359375 162.25588989257812 568.8756713867188 158.92056274414062 C 568.2958984375 154.59507751464844 557.974365234375 152.0704803466797 556.1044311523438 151.06076049804688 C 555.3245239257812 152.362548828125 553.506591796875 155.13633728027344 552.4571533203125 157.3140869140625 C 550.3395385742188 161.81112670898438 548.5321044921875 162.0559539794922 546.0065307617188 162.49871826171875 C 540.3359375 161.5119171142578 538.2720947265625 157.99179077148438 535.5369262695312 157.5570068359375 C 535.392578125 157.5303192138672 531.4763793945312 156.70394897460938 529.3151245117188 157.46658325195312 C 526.101318359375 159.36878967285156 525.9957275390625 161.45359802246094 524.8286743164062 164.8477020263672 C 523.396484375 168.3173065185547 521.4007568359375 170.45826721191406 518.958740234375 172.95777893066406 C 510.5561218261719 176.23507690429688 504.14202880859375 172.01998901367188 502.08074951171875 170.5491943359375 C 498.342041015625 152.80516052246094 515.8038330078125 131.98765563964844 523.4825439453125 129.01962280273438 C 526.2222900390625 121.28843688964844 540.1226196289062 112.60912322998047 551.4033813476562 111.54212951660156 C 555.8764038085938 110.37064361572266 559.444091796875 109.18336486816406 563.3179321289062 106.25616455078125 C 565.0669555664062 104.9142074584961 567.0191650390625 104.05204772949219 569.260498046875 103.4410400390625 C 574.6378784179688 101.18771362304688 578.5072021484375 97.25923156738281 582.86474609375 93.56810760498047 C 592.0537719726562 85.36163330078125 600.3558959960938 79.0301513671875 613.60546875 82.89697265625" stroke-width="0.0" fill="url(#shape_6_fill)"/>
    <path d="M 3.03324556350708 115.12215423583984 C 27.367691040039062 122.76945495605469 37.85332489013672 127.71893310546875 49.98435974121094 136.8737030029297 C 68.59141540527344 159.4194793701172 50.74434280395508 224.86224365234375 55.02129364013672 246.4126739501953 C 53.74292755126953 260.85394287109375 48.17299270629883 265.22601318359375 49.11921310424805 265.8798522949219 C 39.000038146972656 272.7603759765625 4.2057108879089355 268.918701171875 -0.004263583570718765 268.9906921386719 C -0.057005781680345535 218.18675231933594 -0.041208721697330475 167.32162475585938 3.03324556350708 115.12215423583984" stroke-width="0.0" fill="url(#shape_7_fill)"/>
    <path d="M 395.6424865722656 178.00294494628906 C 410.45166015625 173.36077880859375 427.7665710449219 191.06639099121094 433.8086853027344 210.45457458496094 C 464.74041748046875 201.53904724121094 487.556396484375 215.48666381835938 488.8890075683594 239.35545349121094 C 489.9720153808594 252.87081909179688 488.03741455078125 249.30267333984375 486.0284423828125 253.5372314453125 C 485.31634521484375 254.51312255859375 479.0793762207031 265.03521728515625 474.8280029296875 268.50885009765625 C 468.6701965332031 273.3049621582031 452.8472900390625 266.3406982421875 452.46759033203125 267.43572998046875 C 443.3470764160156 264.0150451660156 451.2622985839844 263.4385986328125 446.5585021972656 262.5047607421875 C 442.4105224609375 261.62261962890625 433.7449951171875 258.7894592285156 438.9134521484375 259.9121398925781 C 428.52960205078125 257.375244140625 426.4383850097656 259.3157043457031 420.9592590332031 261.976318359375 C 418.8073425292969 264.5295715332031 417.23614501953125 267.3302307128906 414.7256164550781 269.88262939453125 C 414.4004821777344 269.5736999511719 398.2010192871094 267.4786071777344 392.2688903808594 264.4484558105469 C 392.1383972167969 264.7623291015625 388.7625427246094 263.74114990234375 386.16583251953125 263.33184814453125 C 381.2516174316406 262.25537109375 381.7431335449219 262.86297607421875 377.4350891113281 260.2341003417969 C 373.4854431152344 254.66632080078125 378.14190673828125 253.6033172607422 371.0374450683594 250.9356231689453 C 359.3038024902344 244.04443359375 375.3504333496094 197.41818237304688 378.866455078125 182.97251892089844 C 383.19329833984375 171.40118408203125 395.2304382324219 176.61036682128906 395.6424865722656 178.00294494628906" stroke-width="0.0" fill="url(#shape_8_fill)"/>
    <path d="M 565.9566650390625 157.07940673828125 C 568.2930908203125 159.28884887695312 569.6992797851562 161.94728088378906 570.883056640625 165.02513122558594 C 573.7515869140625 169.88345336914062 573.553466796875 170.378173828125 577.8294677734375 174.0448455810547 C 579.7418823242188 175.5472412109375 581.4935302734375 177.43801879882812 579.4996337890625 184.91429138183594 C 578.9391479492188 175.520751953125 573.9863891601562 226.7797088623047 576.4937744140625 225.82546997070312 C 575.297607421875 228.23617553710938 577.9855346679688 232.6016387939453 573.8989868164062 238.1612548828125 C 568.3517456054688 238.83631896972656 566.3902587890625 237.00814819335938 558.4999389648438 244.8677520751953 C 549.1351318359375 250.817626953125 495.24908447265625 253.9158935546875 494.14581298828125 248.6669464111328 C 490.7355651855469 243.9468536376953 488.8424377441406 238.2714080810547 487.4521484375 232.4429931640625 C 486.06414794921875 226.61610412597656 483.59222412109375 221.8722381591797 480.76849365234375 216.4971923828125 C 478.9108581542969 212.2776641845703 480.95013427734375 203.3948974609375 480.9220886230469 205.7000732421875 C 480.12994384765625 206.19461059570312 481.7235107421875 198.8608856201172 485.81317138671875 198.19058227539062 C 491.41143798828125 195.73927307128906 492.3147888183594 192.94984436035156 493.9644470214844 188.21255493164062 C 496.78607177734375 176.0225372314453 499.87890625 175.90943908691406 499.9420471191406 176.02960205078125 C 502.6270446777344 174.74594116210938 508.5787658691406 177.83078002929688 521.13427734375 173.85662841796875 C 523.953369140625 171.13412475585938 524.8800048828125 168.86312866210938 526.5374145507812 165.45819091796875 C 528.4022216796875 161.13497924804688 529.5257568359375 158.9461669921875 533.0436401367188 158.99169921875 C 537.9660034179688 161.51585388183594 541.1051635742188 162.74664306640625 542.5030517578125 163.62425231933594 C 544.9517822265625 164.36021423339844 546.3582763671875 165.31805419921875 549.1455688476562 166.00340270996094 C 548.9562377929688 165.99244689941406 551.783447265625 157.51077270507812 555.3367919921875 156.34030151367188 C 559.0930786132812 155.68287658691406 562.3729858398438 155.48416137695312 565.9566650390625 157.07940673828125" stroke-width="0.0" fill="url(#shape_9_fill)"/>
    <path d="M 561.2695922851562 155.4620819091797 C 567.7177734375 155.51010131835938 569.2591552734375 160.47406005859375 571.9060668945312 166.76376342773438 C 573.338134765625 170.19650268554688 575.4083251953125 171.28369140625 578.6554565429688 176.37020874023438 C 579.4449462890625 178.0260467529297 578.283935546875 187.26150512695312 577.2216796875 191.58172607421875 C 575.1170043945312 199.7521209716797 574.4463500976562 233.90553283691406 575.2398681640625 228.16294860839844 C 574.8711547851562 230.95452880859375 576.7146606445312 237.4126739501953 570.8323974609375 238.38601684570312 C 559.5128173828125 237.61131286621094 567.9525146484375 237.1826629638672 558.2516479492188 244.7790069580078 C 554.0576171875 252.43919372558594 500.2846374511719 249.72293090820312 501.1469421386719 250.3268280029297 C 489.3172302246094 253.62306213378906 489.79803466796875 235.76724243164062 486.8561096191406 230.32125854492188 C 486.1676025390625 225.38189697265625 482.4368591308594 218.81948852539062 481.0624084472656 216.65736389160156 C 478.4503479003906 212.47666931152344 478.7956848144531 210.6013641357422 478.99139404296875 206.9458465576172 C 478.466796875 204.02386474609375 482.9168395996094 198.26034545898438 485.62567138671875 198.2874755859375 C 491.47491455078125 197.23507690429688 495.77130126953125 185.71620178222656 495.8870544433594 182.2247772216797 C 496.4735412597656 179.3675994873047 497.5616760253906 177.40110778808594 500.13299560546875 175.8284912109375 C 507.44927978515625 175.55599975585938 514.5675659179688 177.48046875 521.1725463867188 172.99583435058594 C 525.2237548828125 174.4210968017578 526.1881103515625 158.79197692871094 531.9682006835938 159.57203674316406 C 536.3027954101562 158.9558868408203 539.185546875 161.72653198242188 543.6497192382812 164.5022430419922 C 545.1968994140625 165.0372772216797 549.35791015625 166.7098846435547 550.2817993164062 162.44461059570312 C 552.0271606445312 159.08470153808594 553.058837890625 153.2308807373047 561.2695922851562 155.4620819091797" stroke-width="0.0" fill="url(#shape_10_fill)"/>
    <path d="M 449.91314697265625 107.96349334716797 C 453.7422790527344 109.46043395996094 456.78924560546875 111.830078125 460.0829162597656 114.0950698852539 C 464.01922607421875 116.32106018066406 468.5091857910156 117.88966369628906 472.8177490234375 119.313232421875 C 488.548583984375 124.8275375366211 488.6127624511719 124.96316528320312 492.94390869140625 130.02471923828125 C 493.7933044433594 132.2354736328125 492.77947998046875 134.4988555908203 496.9922790527344 135.9666290283203 C 493.4478759765625 135.69163513183594 492.1072692871094 136.99998474121094 487.482666015625 134.99551391601562 C 484.46343994140625 133.6219024658203 482.14361572265625 134.8299560546875 478.8933410644531 135.0583953857422 C 475.002197265625 135.54808044433594 471.71954345703125 134.68695068359375 467.9089050292969 134.00540161132812 C 464.85430908203125 133.84291076660156 460.5002136230469 133.8640594482422 457.3780212402344 134.0394744873047 C 454.3031921386719 142.51222229003906 469.2764587402344 153.00796508789062 479.9920959472656 158.03500366210938 C 475.77410888671875 176.85244750976562 475.71697998046875 176.9064178466797 469.0256042480469 182.0607452392578 C 465.34796142578125 180.8073272705078 467.4696960449219 186.853515625 463.0781555175781 187.78135681152344 C 459.86871337890625 188.0142822265625 455.7025451660156 180.60675048828125 453.943359375 176.9559783935547 C 447.7989501953125 179.86170959472656 447.9913330078125 183.16371154785156 439.97412109375 182.9816436767578 C 439.8691711425781 183.5599365234375 435.8430480957031 195.56883239746094 433.9508056640625 198.9890899658203 C 429.1019592285156 200.83688354492188 417.1443786621094 180.220947265625 417.75787353515625 179.9298095703125 C 416.79168701171875 180.59666442871094 401.4721374511719 176.06239318847656 397.0094909667969 168.83653259277344 C 392.6524658203125 168.2274627685547 387.192626953125 176.6092529296875 381.25 173.03118896484375 C 380.3771667480469 163.6538543701172 382.3118591308594 142.08642578125 390.0032958984375 138.58677673339844 C 397.6249084472656 137.13905334472656 399.6197509765625 129.92767333984375 401.9203186035156 122.81238555908203 C 410.04376220703125 98.9889144897461 428.1063537597656 102.92711639404297 449.91314697265625 107.96349334716797" stroke-width="0.0" fill="url(#shape_11_fill)"/>
    <path d="M 601.9656372070312 130.08836364746094 C 607.108642578125 130.00653076171875 608.5347290039062 139.48171997070312 609.9691772460938 141.4945831298828 C 611.590576171875 144.92572021484375 612.6797485351562 147.2470245361328 615.3224487304688 149.99786376953125 C 620.3313598632812 151.33413696289062 617.4237670898438 143.22703552246094 622.2310180664062 140.51629638671875 C 624.90869140625 139.6170654296875 626.426513671875 139.87937927246094 628.2725830078125 141.43235778808594 C 627.3903198242188 140.7737579345703 630.0514526367188 143.81520080566406 630.5166015625 146.5279541015625 C 632.0255737304688 150.31289672851562 631.8465576171875 150.60256958007812 635.3801879882812 153.69764709472656 C 639.34912109375 156.84898376464844 637.274658203125 162.33572387695312 638.1166381835938 171.46908569335938 C 637.5077514648438 183.35052490234375 638.7144775390625 194.62071228027344 639.890625 206.101318359375 C 640.4507446289062 218.84861755371094 643.07861328125 229.77236938476562 638.9161987304688 243.63540649414062 C 622.2788696289062 247.1300506591797 608.5330810546875 243.98617553710938 583.1589965820312 245.18121337890625 C 579.3134765625 238.4051513671875 578.8597412109375 225.8105010986328 576.900634765625 216.84666442871094 C 573.0220336914062 216.0719451904297 579.4971923828125 169.26730346679688 587.1089477539062 169.1405792236328 C 593.9745483398438 160.03839111328125 596.0609130859375 140.51361083984375 596.9225463867188 140.59243774414062 C 598.0175170898438 137.12489318847656 597.46923828125 135.1866455078125 601.9656372070312 130.08836364746094" stroke-width="0.0" fill="url(#shape_12_fill)"/>
    <path d="M 404.6705017089844 176.5276336669922 C 421.4129333496094 176.8416290283203 437.61737060546875 210.36407470703125 430.8274841308594 215.3446807861328 C 419.4633483886719 230.72695922851562 423.2741394042969 240.41090393066406 424.60498046875 246.80006408691406 C 427.95208740234375 260.7019958496094 418.2582702636719 263.4207458496094 414.10052490234375 269.9971008300781 C 406.7296142578125 270.04901123046875 397.1868896484375 267.067626953125 393.7198486328125 265.6726379394531 C 386.50579833984375 262.8971252441406 385.2633056640625 263.3817443847656 381.0738830566406 262.66058349609375 C 378.3250427246094 261.74969482421875 377.5157470703125 260.5656433105469 375.9615783691406 258.0191650390625 C 375.94390869140625 256.2606506347656 375.3673095703125 253.69970703125 374.8893127441406 253.12667846679688 C 373.9842224121094 252.5583038330078 370.2215881347656 250.83331298828125 369.6505126953125 251.01516723632812 C 364.9925842285156 240.3716278076172 366.7411193847656 226.18463134765625 368.666748046875 222.16319274902344 C 369.2826843261719 219.45140075683594 371.3263244628906 203.30099487304688 374.08642578125 200.03863525390625 C 374.5653381347656 197.73876953125 376.4112548828125 179.71340942382812 381.0195617675781 175.93226623535156 C 389.5384216308594 171.17356872558594 395.388916015625 171.65867614746094 404.6705017089844 176.5276336669922" stroke-width="0.0" fill="url(#shape_13_fill)"/>
    <path d="M 510.3028869628906 65.37220001220703 C 513.0654907226562 65.9036636352539 522.2352905273438 69.39665222167969 524.0407104492188 74.04225158691406 C 530.3353881835938 80.44932556152344 535.4913330078125 80.28540802001953 538.5081176757812 88.02360534667969 C 540.039306640625 90.91554260253906 544.7391967773438 90.59343719482422 545.5118408203125 91.77677917480469 C 544.9275512695312 92.14422607421875 556.7254638671875 96.4200668334961 561.044921875 96.37191772460938 C 564.7208862304688 97.39663696289062 567.5187377929688 97.77399444580078 570.0423583984375 101.00257110595703 C 566.6900024414062 104.95568084716797 553.3041381835938 111.75171661376953 547.8667602539062 111.7271957397461 C 542.1695556640625 112.5723876953125 538.9863891601562 114.58390808105469 534.2860717773438 117.55815887451172 C 527.7745971679688 121.3410873413086 525.893310546875 122.10491943359375 515.8626098632812 121.24190521240234 C 511.1314697265625 120.36138916015625 501.6441345214844 125.63936614990234 501.16546630859375 127.86776733398438 C 497.25701904296875 129.4704132080078 494.077392578125 129.68344116210938 489.805419921875 128.99095153808594 C 489.1356201171875 125.79969024658203 468.4549865722656 118.48147583007812 468.35675048828125 118.77770233154297 C 463.3689880371094 117.35945129394531 463.084228515625 116.8941421508789 460.00592041015625 115.0167465209961 C 460.4195556640625 106.4037094116211 462.7615051269531 100.60092163085938 468.4881896972656 94.37705993652344 C 472.8576354980469 89.03836822509766 472.3148193359375 84.05792236328125 473.0882873535156 81.50328063964844 C 474.89422607421875 70.69464874267578 475.0320739746094 70.62655639648438 477.9704284667969 66.08076477050781 C 479.37054443359375 64.5438003540039 482.3363037109375 63.82632064819336 484.7729797363281 62.57737350463867 C 493.93914794921875 60.75669479370117 501.5464172363281 62.187286376953125 510.3028869628906 65.37220001220703" stroke-width="0.0" fill="url(#shape_14_fill)"/>
    <path d="M 532.940673828125 158.99717712402344 C 543.9710083007812 163.2707977294922 543.833740234375 163.5426483154297 546.9688720703125 166.96119689941406 C 547.0140991210938 168.0542755126953 548.31884765625 170.26722717285156 544.591796875 182.2333984375 C 543.2323608398438 189.87664794921875 539.8595581054688 232.60618591308594 539.1578369140625 235.99560546875 C 537.0282592773438 239.75167846679688 544.4065551757812 254.30421447753906 516.12939453125 251.08460998535156 C 500.6797790527344 254.6864776611328 485.68560791015625 247.77049255371094 487.5931701660156 230.01910400390625 C 479.1186828613281 216.18991088867188 477.47943115234375 203.6350555419922 484.1302795410156 198.49884033203125 C 487.4454040527344 196.96957397460938 488.5177307128906 198.10055541992188 490.9028625488281 196.93740844726562 C 492.896728515625 193.88107299804688 494.82708740234375 184.6563720703125 496.150146484375 182.0251007080078 C 497.3175354003906 179.44851684570312 498.8849792480469 176.82469177246094 501.99041748046875 175.98410034179688 C 507.2977600097656 175.6567840576172 511.5617980957031 179.51158142089844 523.0513916015625 172.94642639160156 C 524.9175415039062 170.4501495361328 525.883544921875 168.3158416748047 526.9935302734375 165.23216247558594 C 528.211181640625 162.34793090820312 530.2811279296875 160.8824920654297 532.940673828125 158.99717712402344" stroke-width="0.0" fill="url(#shape_15_fill)"/>
    <path d="M 650.8201904296875 112.87129974365234 C 657.1035766601562 109.33161926269531 663.2925415039062 121.8096923828125 663.2069702148438 125.78988647460938 C 665.175537109375 133.5829315185547 666.582763671875 138.92947387695312 672.88623046875 146.43955993652344 C 674.8768310546875 180.53622436523438 673.5380859375 212.6585693359375 673.943359375 247.2122039794922 C 669.9542236328125 243.4594268798828 653.9381713867188 250.5475311279297 645.45458984375 241.7174530029297 C 638.2261962890625 238.62721252441406 638.3877563476562 116.29475402832031 650.8201904296875 112.87129974365234" stroke-width="0.0" fill="url(#shape_16_fill)"/>
    <path d="M 600.303955078125 130.22222900390625 C 602.7857666015625 126.72493743896484 607.6836547851562 132.11630249023438 607.6117553710938 134.7578887939453 C 608.4323120117188 134.23370361328125 607.7030029296875 138.09579467773438 614.70361328125 151.2223358154297 C 618.3428955078125 134.52923583984375 617.1993408203125 230.41546630859375 616.1830444335938 241.19923400878906 C 600.77099609375 248.41006469726562 573.1159057617188 244.05465698242188 585.0591430664062 239.62649536132812 C 562.816162109375 223.32579040527344 591.3551025390625 148.4483642578125 600.303955078125 130.22222900390625" stroke-width="0.0" fill="url(#shape_17_fill)"/>
    <path d="M 319.5025634765625 184.49365234375 C 323.6777038574219 183.83169555664062 325.6405334472656 186.01707458496094 328.9308166503906 186.89498901367188 C 332.9003601074219 188.70948791503906 336.63616943359375 189.3853302001953 341.1010437011719 189.98728942871094 C 343.8238525390625 193.82916259765625 349.1614990234375 192.59466552734375 353.99688720703125 193.0488739013672 C 356.4991760253906 195.5651092529297 357.5995178222656 197.90187072753906 358.890625 201.0206756591797 C 360.268310546875 203.4038543701172 361.58770751953125 203.91903686523438 364.0414123535156 205.36180114746094 C 367.7411804199219 207.50779724121094 367.9696960449219 207.6600341796875 369.0692443847656 211.1829833984375 C 369.0670166015625 216.30909729003906 368.037353515625 221.08009338378906 367.00592041015625 226.0360565185547 C 366.32781982421875 231.00991821289062 365.91583251953125 235.7284698486328 366.1441345214844 240.6248016357422 C 366.3629455566406 245.951171875 365.3885803222656 256.32269287109375 356.6199645996094 254.04299926757812 C 352.5611267089844 254.2373504638672 331.3345642089844 254.2183074951172 323.3101501464844 254.0272216796875 C 312.4862976074219 254.88111877441406 313.38775634765625 254.01283264160156 312.5147705078125 235.77516174316406 C 304.9624328613281 227.0520782470703 314.9088134765625 187.73597717285156 319.5025634765625 184.49365234375" stroke-width="0.0" fill="url(#shape_18_fill)"/>
    <path d="M 480.2648620605469 218.16091918945312 C 492.3743591308594 240.37954711914062 494.0936584472656 247.1208038330078 477.7350158691406 266.5848388671875 C 470.40899658203125 278.7714538574219 442.8912658691406 260.93231201171875 443.2652893066406 262.14581298828125 C 439.2861328125 259.9864807128906 436.5351867675781 258.7898254394531 432.1732177734375 258.3756103515625 C 429.17059326171875 257.7468566894531 428.09881591796875 257.2032470703125 426.10137939453125 254.81504821777344 C 421.206298828125 246.29702758789062 420.5696105957031 237.4650115966797 422.04327392578125 228.0861358642578 C 423.9341125488281 224.02992248535156 421.3073425292969 229.29676818847656 422.46453857421875 226.4092254638672 C 428.08917236328125 219.4671173095703 429.3758239746094 218.58474731445312 429.7445983886719 216.2530517578125 C 439.2866516113281 202.27432250976562 463.4793701171875 207.02688598632812 480.2648620605469 218.16091918945312" stroke-width="0.0" fill="url(#shape_19_fill)"/>
    <path d="M 673.9797973632812 1.9630130529403687 C 674.17236328125 33.33234786987305 674.1698608398438 64.75096130371094 673.9052734375 96.93865203857422 C 670.4771118164062 95.97180938720703 653.1318969726562 88.978271484375 645.3670043945312 88.73007202148438 C 636.2579956054688 87.76087951660156 640.6705932617188 87.61809539794922 635.925537109375 86.8159408569336 C 632.1448364257812 86.71770477294922 623.60107421875 86.98521423339844 611.0977172851562 81.12574005126953 C 611.4502563476562 77.51773071289062 612.86474609375 75.94487762451172 615.3922119140625 73.53884887695312 C 622.912841796875 70.00489044189453 650.9677124023438 26.10001564025879 650.5034790039062 22.67396354675293 C 654.9224243164062 14.355799674987793 658.7185668945312 7.955683708190918 667.0863037109375 3.062579393386841 C 670.0210571289062 2.0849387645721436 670.0797729492188 1.880688190460205 673.9797973632812 1.9630130529403687" stroke-width="0.0" fill="url(#shape_20_fill)"/>
    <path d="M 563.6360473632812 155.3181915283203 C 569.6893310546875 156.80841064453125 569.29638671875 164.17578125 574.6709594726562 170.49908447265625 C 583.2135620117188 163.32614135742188 570.6062622070312 227.2846221923828 573.0234375 238.10031127929688 C 568.3671264648438 237.78269958496094 563.8759155273438 240.00274658203125 561.9536743164062 242.6513214111328 C 556.5704345703125 247.8346710205078 541.8204345703125 251.98590087890625 541.6026611328125 243.89366149902344 C 542.9026489257812 247.0699462890625 536.8995971679688 161.7638397216797 553.18896484375 156.1252899169922 C 556.443603515625 152.23233032226562 558.6331176757812 152.82435607910156 563.6360473632812 155.3181915283203" stroke-width="0.0" fill="url(#shape_21_fill)"/>
    <path d="M 214.90777587890625 212.2337188720703 C 222.69064331054688 220.96485900878906 223.8359375 252.9525909423828 218.24923706054688 254.71157836914062 C 210.4572296142578 262.2096252441406 208.28326416015625 264.08673095703125 205.6112060546875 272.5118103027344 C 205.68301391601562 275.7085876464844 206.2762451171875 276.586669921875 206.70849609375 280.4394836425781 C 207.65895080566406 283.7981872558594 203.4324493408203 284.4664611816406 200.8728790283203 283.8923645019531 C 201.86659240722656 284.1007080078125 195.9362030029297 266.56280517578125 189.89300537109375 263.092529296875 C 186.43565368652344 260.9847717285156 184.9700927734375 261.18963623046875 182.30831909179688 260.3449401855469 C 181.1652374267578 259.7200012207031 179.51577758789062 259.8783264160156 177.33438110351562 255.567138671875 C 177.0996856689453 251.88734436035156 170.9786376953125 242.33673095703125 172.026611328125 235.9362335205078 C 178.61154174804688 220.64007568359375 184.8780059814453 220.0885772705078 188.77825927734375 218.6689910888672 C 193.55715942382812 217.1553497314453 193.8113555908203 215.79379272460938 196.01376342773438 211.97251892089844 C 198.55548095703125 209.34991455078125 198.49026489257812 208.0313720703125 204.20338439941406 207.09568786621094 C 207.57557678222656 206.6179962158203 211.53890991210938 208.0835418701172 214.90777587890625 212.2337188720703" stroke-width="0.0" fill="url(#shape_22_fill)"/>
    <path d="M 111.9427719116211 426.88671875 C 112.27887725830078 428.8331298828125 111.54597473144531 430.71661376953125 111.07087707519531 432.1461486816406 C 106.59663391113281 435.9466857910156 102.24134826660156 436.6173400878906 96.52080535888672 437.2548828125 C 84.20990753173828 442.0848388671875 102.44976043701172 444.1962890625 84.32731628417969 445.50689697265625 C 79.42436218261719 445.7015380859375 45.13628387451172 446.3638916015625 28.315662384033203 446.4195251464844 C 10.629406929016113 444.83258056640625 17.23747444152832 442.4551086425781 16.97568130493164 436.05078125 C 34.51895523071289 428.2220458984375 51.09663772583008 425.9712219238281 70.23837280273438 425.27001953125 C 75.69709014892578 425.2065734863281 107.5230484008789 417.53521728515625 111.9427719116211 426.88671875" stroke-width="0.0" fill="url(#shape_23_fill)"/>
    <path d="M 195.20831298828125 124.8273696899414 C 199.2340850830078 125.05497741699219 209.10923767089844 144.92721557617188 213.3206329345703 145.3338165283203 C 215.76988220214844 147.97067260742188 218.15676879882812 150.07205200195312 220.0029296875 153.4148712158203 C 226.4180450439453 158.27072143554688 246.91563415527344 180.77999877929688 242.36875915527344 197.28932189941406 C 240.72018432617188 202.0194549560547 237.69265747070312 185.15243530273438 233.9152069091797 182.33346557617188 C 231.66505432128906 183.70220947265625 230.47463989257812 193.060302734375 229.29905700683594 195.3603973388672 C 227.2646484375 200.6348876953125 227.74424743652344 203.78582763671875 220.32717895507812 207.48678588867188 C 214.386962890625 208.4208221435547 214.56466674804688 199.61102294921875 214.13986206054688 196.34739685058594 C 213.2361602783203 188.98519897460938 212.18446350097656 183.28842163085938 206.94973754882812 177.9045867919922 C 204.40345764160156 173.67672729492188 204.8199005126953 173.3868865966797 204.9944610595703 165.5968017578125 C 205.35433959960938 151.2648162841797 199.51910400390625 149.75169372558594 195.27200317382812 144.8483123779297 C 190.7804718017578 139.78843688964844 191.48287963867188 128.1155548095703 195.20831298828125 124.8273696899414" stroke-width="0.0" fill="url(#shape_24_fill)"/>
    <path d="M 594.6316528320312 413.50830078125 C 597.1239013671875 415.4180603027344 624.7702026367188 412.3481750488281 627.8990478515625 418.9208984375 C 628.30126953125 420.7632141113281 625.9000854492188 424.91387939453125 627.5037231445312 427.8016052246094 C 629.0472412109375 430.2384338378906 632.2884521484375 430.37774658203125 633.9706420898438 436.0136413574219 C 615.5462646484375 446.7828674316406 578.9659423828125 439.8747253417969 577.9905395507812 431.065185546875 C 571.1123046875 423.04791259765625 574.187744140625 417.28240966796875 574.9932250976562 414.590576171875 C 580.475830078125 410.3036804199219 587.1975708007812 412.3327941894531 594.6316528320312 413.50830078125" stroke-width="0.0" fill="url(#shape_25_fill)"/>
    <path d="M 144.21929931640625 67.8467025756836 C 142.79226684570312 68.01836395263672 149.0471954345703 68.6760482788086 149.1103057861328 69.21849822998047 C 149.2931365966797 70.6268310546875 150.01376342773438 72.03648376464844 150.2335968017578 73.51948547363281 C 151.002197265625 74.43419647216797 150.5042266845703 77.53295135498047 153.9196014404297 82.0052261352539 C 155.16201782226562 89.5876693725586 155.17449951171875 97.05973052978516 154.07505798339844 104.65961456298828 C 153.84120178222656 107.49529266357422 154.76553344726562 108.62115478515625 155.97183227539062 111.03279113769531 C 159.3317413330078 121.06108856201172 155.1352996826172 132.66958618164062 149.20640563964844 132.75900268554688 C 139.8129119873047 130.4558868408203 133.2509765625 124.56375122070312 126.58929443359375 116.8602066040039 C 122.93331146240234 114.4326400756836 125.2088623046875 109.7629623413086 126.68631744384766 107.67124938964844 C 128.96099853515625 106.06395721435547 128.9530029296875 106.0232925415039 132.01963806152344 104.93695831298828 C 135.48841857910156 98.03215789794922 133.63650512695312 91.45448303222656 133.97091674804688 89.79693603515625 C 133.5617218017578 87.839111328125 140.40721130371094 88.03490447998047 138.9193572998047 85.44780731201172 C 139.11328125 84.7597885131836 138.31427001953125 76.52548217773438 140.83428955078125 77.00196075439453 C 142.66055297851562 78.74825286865234 143.31871032714844 70.35395050048828 144.21929931640625 67.8467025756836" stroke-width="0.0" fill="url(#shape_26_fill)"/>
    <path d="M 144.9539031982422 68.10221099853516 C 149.77684020996094 67.75721740722656 149.8061065673828 70.6178207397461 150.51380920410156 73.95738983154297 C 151.54713439941406 77.12043762207031 151.98599243164062 79.16654968261719 154.0518798828125 81.93788146972656 C 155.28485107421875 89.43694305419922 155.0814208984375 96.88215637207031 154.0055694580078 104.45866394042969 C 154.05850219726562 105.1762924194336 154.06015014648438 107.90432739257812 155.3323211669922 109.57121276855469 C 157.6759033203125 117.35099792480469 157.6990203857422 121.18109130859375 155.7379913330078 126.76506805419922 C 152.0807647705078 132.47828674316406 151.96974182128906 132.7296905517578 148.00607299804688 133.91140747070312 C 141.76681518554688 131.75828552246094 129.1459503173828 120.20160675048828 127.97374725341797 119.21137237548828 C 124.91341400146484 117.36377716064453 123.01315307617188 111.80094146728516 126.53561401367188 107.84797668457031 C 124.21868896484375 111.48246765136719 126.24571990966797 106.15315246582031 129.5792999267578 106.20083618164062 C 135.68768310546875 105.78568267822266 133.95852661132812 91.8466796875 134.05726623535156 89.04118347167969 C 139.46994018554688 87.51438903808594 138.5812530517578 84.87036895751953 139.0558319091797 82.2811050415039 C 139.85877990722656 76.65496063232422 139.6211700439453 77.53131866455078 141.3372039794922 75.72111511230469 C 143.91737365722656 70.81103515625 143.5426025390625 68.54895782470703 144.9539031982422 68.10221099853516" stroke-width="0.0" fill="url(#shape_27_fill)"/>
    <path d="M -0.054720472544431686 0.04225689917802811 C 4.967288970947266 0.13556231558322906 9.856292724609375 -0.25328853726387024 15.048768043518066 0.03286021575331688 C 15.776408195495605 1.3056248426437378 17.072982788085938 14.289970397949219 29.05607032775879 21.007816314697266 C 28.646528244018555 24.149818420410156 27.33753204345703 25.146358489990234 26.435487747192383 28.199726104736328 C 31.882282257080078 32.644107818603516 38.694393157958984 33.364559173583984 40.08275604248047 38.918739318847656 C 36.26936340332031 38.631988525390625 34.102535247802734 38.07232666015625 31.095294952392578 35.86830139160156 C 25.34288215637207 32.390602111816406 17.513286590576172 33.681068420410156 10.91390609741211 33.914512634277344 C 8.604687690734863 36.76972579956055 13.004467010498047 39.773902893066406 13.093389511108398 41.67670822143555 C 13.688854217529297 41.98534393310547 14.019783973693848 47.46659851074219 17.178447723388672 48.87965774536133 C 19.665254592895508 51.99258041381836 19.223066329956055 51.393733978271484 20.061870574951172 56.972599029541016 C 17.105581283569336 59.4519157409668 10.359113693237305 61.384239196777344 8.909367561340332 61.097469329833984 C 5.9821953773498535 60.39738464355469 3.106701135635376 59.56709671020508 0.08601213991641998 59.04688262939453 C -0.05093979835510254 39.49365234375 -0.07011803984642029 19.93857765197754 -0.054720472544431686 0.04225689917802811" stroke-width="0.0" fill="url(#shape_28_fill)"/>
    <path d="M 295.92352294921875 194.0491485595703 C 299.7796936035156 197.2343292236328 300.9107360839844 200.0743865966797 302.5565490722656 204.9169464111328 C 302.2913513183594 207.7914581298828 318.2702331542969 232.9312744140625 310.7377624511719 249.885009765625 C 309.8704528808594 251.46852111816406 308.7546081542969 253.5608673095703 306.3951416015625 254.16603088378906 C 297.9982604980469 255.58950805664062 295.5968933105469 255.60035705566406 287.6932678222656 254.56614685058594 C 284.2137145996094 233.29856872558594 285.54766845703125 212.00344848632812 295.92352294921875 194.0491485595703" stroke-width="0.0" fill="url(#shape_29_fill)"/>
    <path d="M -0.03589719533920288 0.09466841071844101 C 4.840181350708008 0.06945192068815231 9.838593482971191 -0.09162361919879913 14.951236724853516 0.054549068212509155 C 15.308643341064453 -0.02507651224732399 15.572885513305664 5.7520246505737305 16.40190315246582 7.651012420654297 C 18.29079818725586 11.432705879211426 22.90582847595215 18.068506240844727 27.99634552001953 20.00750732421875 C 29.191984176635742 23.174434661865234 26.288745880126953 27.927793502807617 25.04892349243164 31.606964111328125 C 20.8848876953125 32.797183990478516 16.201702117919922 32.9975471496582 8.960917472839355 34.07325744628906 C 9.623247146606445 35.536888122558594 8.538809776306152 37.59796905517578 11.930830955505371 39.99886703491211 C 12.884054183959961 42.96538162231445 13.192461013793945 48.0496826171875 16.556690216064453 49.689796447753906 C 18.793363571166992 51.556480407714844 19.759971618652344 53.35451889038086 18.9293212890625 57.076656341552734 C 12.369014739990234 60.37860107421875 7.361145973205566 60.59387969970703 0.031790610402822495 58.95499038696289 C -0.08875435590744019 39.59598159790039 -0.09684067964553833 20.016185760498047 -0.03589719533920288 0.09466841071844101" stroke-width="0.0" fill="url(#shape_30_fill)"/>
    <path d="M 545.9434814453125 70.29156494140625 C 551.3715209960938 68.90652465820312 584.0308837890625 82.01567077636719 587.8192138671875 85.12063598632812 C 582.9723510742188 94.0673599243164 580.1807861328125 94.3333740234375 576.8907470703125 98.1893081665039 C 572.9155883789062 100.70463562011719 572.4771118164062 100.0419921875 567.9996337890625 99.07431030273438 C 565.5310668945312 97.93541717529297 543.0101928710938 95.49297332763672 538.9686279296875 88.05532836914062 C 538.1321411132812 85.8966293334961 537.0587158203125 83.8345718383789 536.0137939453125 82.14510345458984 C 534.00048828125 80.40068054199219 530.822998046875 79.9797134399414 528.39404296875 78.08467864990234 C 525.73876953125 75.63912200927734 528.1318969726562 70.7129135131836 529.9625244140625 69.1715316772461 C 534.8865966796875 67.34309387207031 539.7704467773438 69.0363540649414 545.9434814453125 70.29156494140625" stroke-width="0.0" fill="url(#shape_31_fill)"/>
    <path d="M 448.2396545410156 264.5255432128906 C 451.2942810058594 265.8525085449219 450.737060546875 266.10260009765625 455.6437683105469 266.9996337890625 C 460.8992004394531 268.0085754394531 465.7202453613281 269.9429016113281 470.1116638183594 272.7451477050781 C 471.0978698730469 277.3844909667969 471.11578369140625 275.41009521484375 471.0220031738281 280.224853515625 C 446.58282470703125 285.5867004394531 428.26324462890625 282.9681396484375 417.6505126953125 282.3789367675781 C 413.71771240234375 272.6936340332031 414.91607666015625 273.5843811035156 416.0765686035156 268.6155090332031 C 417.71148681640625 266.7333679199219 418.3310546875 265.3714599609375 419.5471496582031 263.2652282714844 C 428.85906982421875 254.36514282226562 438.8724365234375 258.91650390625 448.2396545410156 264.5255432128906" stroke-width="0.0" fill="url(#shape_32_fill)"/>
    <path d="M 271.2762451171875 192.83062744140625 C 282.5792541503906 188.7808380126953 281.26300048828125 239.12396240234375 278.58685302734375 243.6328582763672 C 276.15325927734375 247.4664306640625 274.0870361328125 246.35604858398438 271.22021484375 247.05078125 C 265.34246826171875 246.30662536621094 267.8734436035156 241.9881134033203 264.4349365234375 241.0766143798828 C 257.83905029296875 205.34446716308594 257.45928955078125 198.888427734375 271.2762451171875 192.83062744140625" stroke-width="0.0" fill="url(#shape_33_fill)"/>
    <path d="M 252.4895782470703 426.3362121582031 C 254.44558715820312 429.1312561035156 261.6583557128906 433.6335144042969 261.0509033203125 438.6213684082031 C 259.51544189453125 440.6412048339844 259.51239013671875 444.2317810058594 252.6142120361328 445.9692687988281 C 247.17535400390625 445.4497375488281 219.6543731689453 448.04217529296875 212.98171997070312 444.1636962890625 C 213.38323974609375 436.5330810546875 213.59971618652344 436.6913757324219 215.73187255859375 434.1930236816406 C 217.58798217773438 431.8298645019531 226.58169555664062 434.5599060058594 225.04258728027344 431.2294616699219 C 233.48147583007812 426.3004150390625 242.5610809326172 423.40240478515625 252.4895782470703 426.3362121582031" stroke-width="0.0" fill="url(#shape_34_fill)"/>
    <path d="M 106.34979248046875 70.95103454589844 C 110.4612808227539 69.01882934570312 111.48006439208984 79.24465942382812 112.85930633544922 81.30248260498047 C 116.25294494628906 84.55924987792969 117.69422149658203 110.42234802246094 116.8672103881836 110.91178131103516 C 114.9441909790039 111.68985748291016 109.58121490478516 111.9839096069336 107.04374694824219 114.695556640625 C 104.58061218261719 115.59244537353516 95.7979965209961 119.64933013916016 94.13976287841797 111.81665802001953 C 89.32504272460938 83.35531616210938 103.41861724853516 86.33221435546875 106.34979248046875 70.95103454589844" stroke-width="0.0" fill="url(#shape_35_fill)"/>
    <path d="M 451.1014709472656 177.11886596679688 C 452.6898498535156 176.5024871826172 457.2333984375 177.85263061523438 456.4455871582031 179.0718994140625 C 457.3359375 180.04440307617188 458.24444580078125 183.593994140625 459.4039306640625 185.441650390625 C 461.1739196777344 188.5594482421875 464.7255554199219 192.50872802734375 462.9864196777344 206.98643493652344 C 459.1737365722656 208.97055053710938 454.36614990234375 207.9787139892578 449.8162841796875 208.01962280273438 C 441.369873046875 207.7693328857422 439.79449462890625 208.5605926513672 436.09564208984375 208.96673583984375 C 432.6159362792969 207.56602478027344 436.1585693359375 187.95785522460938 439.0030822753906 185.13929748535156 C 441.3948669433594 182.35565185546875 445.1632995605469 182.63905334472656 447.61163330078125 181.37924194335938 C 450.27984619140625 177.57814025878906 448.8002014160156 180.18922424316406 451.1014709472656 177.11886596679688" stroke-width="0.0" fill="url(#shape_36_fill)"/>
    <path d="M 558.26708984375 79.834228515625 C 562.6641235351562 81.42594909667969 582.9646606445312 83.53123474121094 577.0560913085938 83.01068115234375 C 582.304931640625 83.58430480957031 587.0812377929688 84.17908477783203 586.5758056640625 86.96817779541016 C 585.7633666992188 89.57735443115234 578.4683837890625 96.00470733642578 574.0217895507812 99.87059020996094 C 573.9710693359375 99.92330932617188 548.171875 97.22705841064453 539.3021240234375 87.48846435546875 C 537.7030639648438 85.77210235595703 537.703369140625 80.73330688476562 538.0820922851562 79.78376007080078 C 544.5493774414062 77.14604187011719 551.4547119140625 77.6477279663086 558.26708984375 79.834228515625" stroke-width="0.0" fill="url(#shape_37_fill)"/>
    <path d="M 250.271240234375 204.46340942382812 C 263.08392333984375 208.78680419921875 257.5680236816406 243.5102081298828 256.9754638671875 246.48011779785156 C 253.94200134277344 254.47232055664062 250.37356567382812 252.85011291503906 247.9552459716797 252.92977905273438 C 237.3220672607422 239.86219787597656 242.19529724121094 207.84751892089844 250.271240234375 204.46340942382812" stroke-width="0.0" fill="url(#shape_38_fill)"/>
    <path d="M 444.3091125488281 262.5226135253906 C 445.3423767089844 264.1087341308594 449.7170715332031 265.97607421875 446.930419921875 270.9263916015625 C 443.9169616699219 269.5250549316406 442.90020751953125 277.0842590332031 441.6291198730469 280.7154541015625 C 440.3712158203125 284.6156005859375 417.5129089355469 284.3418884277344 416.42041015625 278.9993591308594 C 415.4322509765625 276.2569885253906 414.26953125 274.8950500488281 415.4051208496094 270.4374694824219 C 414.2526550292969 271.0948181152344 419.42047119140625 262.2620849609375 422.9499816894531 260.0506896972656 C 431.0476989746094 256.3681640625 437.3835754394531 258.1489562988281 444.3091125488281 262.5226135253906" stroke-width="0.0" fill="url(#shape_39_fill)"/>
    <path d="M 407.9954528808594 410.0265808105469 C 408.056884765625 409.9915466308594 417.76495361328125 419.9941711425781 412.4244384765625 423.05267333984375 C 397.16748046875 431.8515319824219 381.11285400390625 419.849853515625 378.0204772949219 419.5798034667969 C 370.21234130859375 417.0501708984375 371.71173095703125 417.52471923828125 373.1316833496094 411.9955139160156 C 381.01239013671875 406.7676696777344 399.3309020996094 405.9827575683594 407.9954528808594 410.0265808105469" stroke-width="0.0" fill="url(#shape_40_fill)"/>
    <path d="M 66.14630126953125 427.3727722167969 C 68.13125610351562 428.9223327636719 65.19035339355469 435.7881774902344 60.391441345214844 436.6479187011719 C 58.248680114746094 436.8790283203125 42.64607238769531 438.0287780761719 36.01636505126953 446.11505126953125 C 30.886137008666992 445.6460266113281 23.87008285522461 448.54638671875 17.652568817138672 442.93865966796875 C 16.120243072509766 440.0104064941406 17.595760345458984 439.85113525390625 17.813495635986328 436.8665466308594 C 32.1835823059082 426.7695617675781 56.54830551147461 425.3899841308594 66.14630126953125 427.3727722167969" stroke-width="0.0" fill="url(#shape_41_fill)"/>
    <path d="M 277.4421081542969 387.81121826171875 C 279.7568664550781 387.4332275390625 292.0422668457031 387.7615051269531 295.9546203613281 391.04425048828125 C 297.46405029296875 393.5645446777344 298.9065246582031 398.2028503417969 290.2547607421875 401.0556640625 C 295.76605224609375 399.4366149902344 267.9540100097656 406.2057189941406 260.90155029296875 400.0497741699219 C 257.6226501464844 399.5923156738281 256.71148681640625 390.2401123046875 259.9353332519531 389.1257019042969 C 265.4915771484375 387.3775329589844 271.2174377441406 387.8594055175781 277.4421081542969 387.81121826171875" stroke-width="0.0" fill="url(#shape_42_fill)"/>
    <path d="M 220.91064453125 225.49484252929688 C 223.52830505371094 224.53370666503906 226.91452026367188 223.81163024902344 230.04296875 226.91482543945312 C 232.6612548828125 230.0376739501953 238.5000762939453 247.5854949951172 236.9320068359375 254.0056610107422 C 234.39498901367188 257.4103698730469 226.9954071044922 257.68133544921875 224.26785278320312 257.2251892089844 C 219.5745086669922 255.73486328125 218.2859344482422 255.49407958984375 218.6918487548828 246.52374267578125 C 219.59593200683594 247.96267700195312 215.76931762695312 223.300048828125 220.91064453125 225.49484252929688" stroke-width="0.0" fill="url(#shape_43_fill)"/>
    <path d="M 483.9940185546875 396.0322570800781 C 485.64208984375 399.4583435058594 484.61431884765625 402.7757568359375 485.0514221191406 399.8754577636719 C 477.9718322753906 411.3106994628906 453.283935546875 411.22998046875 451.6843566894531 406.4401550292969 C 447.023681640625 405.4226989746094 452.5188293457031 396.4414978027344 453.33135986328125 396.6886291503906 C 461.823974609375 391.765380859375 475.52960205078125 390.938232421875 483.9940185546875 396.0322570800781" stroke-width="0.0" fill="url(#shape_44_fill)"/>
    <path d="M 44.322837829589844 407.8771667480469 C 47.450260162353516 411.42132568359375 34.62114715576172 413.51611328125 36.06419372558594 414.13861083984375 C 33.05781173706055 415.20916748046875 32.43634796142578 415.6856689453125 29.874900817871094 416.8379211425781 C 27.754486083984375 417.70452880859375 25.666616439819336 418.5745849609375 21.574872970581055 421.1490173339844 C 15.421934127807617 421.1976623535156 6.233476638793945 420.1950988769531 -0.24160093069076538 420.0125732421875 C 0.784142017364502 420.4627685546875 -1.2114300727844238 410.0303955078125 0.9833581447601318 409.577392578125 C 8.028182983398438 408.1628723144531 41.53487014770508 406.7868957519531 44.322837829589844 407.8771667480469" stroke-width="0.0" fill="url(#shape_45_fill)"/>
    <path d="M 452.7948913574219 175.92987060546875 C 456.45880126953125 173.89320373535156 465.0530090332031 197.39236450195312 463.1877746582031 201.6296844482422 C 464.00482177734375 211.1053009033203 452.97259521484375 208.21475219726562 449.1514587402344 207.0414276123047 C 448.667724609375 202.9115753173828 448.5920104980469 198.7349395751953 448.4095764160156 194.83447265625 C 448.27850341796875 195.0165252685547 448.0452575683594 191.929931640625 448.07977294921875 188.17820739746094 C 447.63800048828125 184.7557830810547 447.01885986328125 181.35244750976562 452.7948913574219 175.92987060546875" stroke-width="0.0" fill="url(#shape_46_fill)"/>
    <path d="M 377.0184631347656 183.46690368652344 C 375.72625732421875 187.49063110351562 374.62841796875 203.29290771484375 371.5834655761719 205.58705139160156 C 364.8855285644531 206.25909423828125 365.7433776855469 205.5514373779297 361.2551574707031 203.8278045654297 C 357.87677001953125 199.98902893066406 355.2848815917969 196.6199188232422 355.26226806640625 188.9729461669922 C 357.3131408691406 184.28282165527344 357.6790466308594 185.0609893798828 364.3429870605469 183.89955139160156 C 368.5108337402344 183.32977294921875 373.0681457519531 181.78961181640625 377.0184631347656 183.46690368652344" stroke-width="0.0" fill="url(#shape_47_fill)"/>
    <path d="M 466.73870849609375 270.7853088378906 C 468.5657043457031 271.917236328125 472.1677551269531 273.37353515625 470.9123840332031 280.0654296875 C 462.2914123535156 284.36505126953125 455.2331237792969 281.79351806640625 444.7568054199219 283.0815124511719 C 437.7193908691406 283.7916259765625 440.66064453125 276.6476135253906 440.7815246582031 276.8866271972656 C 447.5361328125 266.218017578125 456.0009765625 266.6455078125 466.73870849609375 270.7853088378906" stroke-width="0.0" fill="url(#shape_48_fill)"/>
    <path d="M 174.26914978027344 116.7286605834961 C 179.132568359375 114.71466064453125 182.702392578125 116.06089782714844 183.96380615234375 117.93244171142578 C 184.339599609375 120.56902313232422 184.21157836914062 121.96504211425781 184.79733276367188 126.36100769042969 C 184.34815979003906 134.06138610839844 187.66116333007812 137.97573852539062 184.22972106933594 141.81277465820312 C 181.5566864013672 146.48214721679688 173.3990020751953 144.77635192871094 173.0563507080078 145.08348083496094 C 171.8160858154297 125.10343933105469 168.17352294921875 120.72296905517578 174.26914978027344 116.7286605834961" stroke-width="0.0" fill="url(#shape_49_fill)"/>
    <path d="M 333.9056396484375 428.04058837890625 C 337.3158874511719 428.8101806640625 340.3005065917969 429.951171875 342.81097412109375 432.0989074707031 C 345.0844421386719 434.26220703125 343.7736511230469 438.55401611328125 343.8494873046875 436.5058288574219 C 341.55712890625 442.992431640625 322.6050109863281 445.204833984375 320.56292724609375 441.2272033691406 C 318.4897155761719 439.187255859375 317.95489501953125 432.9363708496094 317.9795837402344 431.9176330566406 C 322.2503356933594 426.61822509765625 327.52508544921875 427.25372314453125 333.9056396484375 428.04058837890625" stroke-width="0.0" fill="url(#shape_50_fill)"/>
    <path d="M 295.0676574707031 390.9919738769531 C 296.6181945800781 395.4980163574219 296.6407165527344 400.0622253417969 290.5849304199219 400.2046203613281 C 286.9067077636719 400.5905456542969 284.12432861328125 402.1610107421875 270.99151611328125 402.2507629394531 C 271.4546813964844 402.0906982421875 269.0130310058594 399.47381591796875 270.5857849121094 396.0288391113281 C 269.7090148925781 396.9362487792969 274.36309814453125 389.44873046875 277.2669677734375 388.6044616699219 C 283.9646301269531 387.15374755859375 289.19708251953125 387.50286865234375 295.0676574707031 390.9919738769531" stroke-width="0.0" fill="url(#shape_51_fill)"/>
    <path d="M 272.7779541015625 192.19004821777344 C 278.9451599121094 194.51756286621094 279.0687561035156 205.32275390625 278.9604187011719 210.87315368652344 C 270.35577392578125 213.06729125976562 265.04974365234375 210.18756103515625 261.20880126953125 210.19935607910156 C 258.5403747558594 204.44100952148438 261.9891662597656 195.436767578125 266.45068359375 195.5712432861328 C 269.86016845703125 195.72804260253906 270.18328857421875 192.599365234375 272.7779541015625 192.19004821777344" stroke-width="0.0" fill="url(#shape_52_fill)"/>
    <path d="M 216.00439453125 411.2601013183594 C 216.01605224609375 406.466064453125 216.0634002685547 412.2261047363281 214.9171905517578 414.041748046875 C 213.5563201904297 417.9875183105469 189.05813598632812 421.3414306640625 188.1063995361328 415.04803466796875 C 185.6519012451172 408.09649658203125 206.30862426757812 402.1534423828125 216.00439453125 411.2601013183594" stroke-width="0.0" fill="url(#shape_53_fill)"/>
    <path d="M 205.9525146484375 424.91375732421875 C 205.8197479248047 425.89813232421875 205.8052978515625 428.2202453613281 204.95809936523438 429.8648681640625 C 201.37240600585938 433.5664978027344 178.47015380859375 434.1882019042969 178.45584106445312 432.0140075683594 C 175.07762145996094 431.3499755859375 178.82940673828125 424.7566833496094 177.93251037597656 426.0482482910156 C 185.8762969970703 418.9915466308594 197.23487854003906 421.0296630859375 205.9525146484375 424.91375732421875" stroke-width="0.0" fill="url(#shape_54_fill)"/>
    <path d="M 271.3876953125 245.52342224121094 C 275.894775390625 244.3441162109375 276.1563415527344 246.03787231445312 279.86187744140625 248.2737274169922 C 281.5708923339844 250.0666046142578 281.0672302246094 255.23191833496094 280.9857482910156 256.1744384765625 C 263.2141418457031 257.5953063964844 263.1766662597656 257.39263916015625 255.07876586914062 255.0074462890625 C 255.30613708496094 247.81155395507812 255.42417907714844 247.60403442382812 258.1807556152344 245.0015869140625 C 262.7782897949219 243.50196838378906 266.47900390625 244.52940368652344 271.3876953125 245.52342224121094" stroke-width="0.0" fill="url(#shape_55_fill)"/>
    <path d="M 272.8512268066406 366.6879577636719 C 276.49456787109375 367.31683349609375 280.4869384765625 365.2184753417969 284.9101257324219 368.887451171875 C 285.3280334472656 368.5097961425781 284.6883239746094 370.9126892089844 280.84490966796875 375.1510925292969 C 275.07958984375 375.4446105957031 265.28948974609375 378.0814514160156 256.9903259277344 375.99517822265625 C 253.41322326660156 373.24530029296875 254.8931121826172 369.0365295410156 256.0174560546875 368.0316162109375 C 261.5748291015625 366.95343017578125 267.31768798828125 366.7489013671875 272.8512268066406 366.6879577636719" stroke-width="0.0" fill="url(#shape_56_fill)"/>
    <path d="M 408.82080078125 270.0846862792969 C 412.2286376953125 270.771484375 417.50042724609375 275.7253723144531 415.1856689453125 279.3028869628906 C 409.5320129394531 286.85614013671875 399.1956481933594 282.0631103515625 394.0807800292969 282.9833984375 C 391.2333679199219 274.6861572265625 399.201904296875 267.781982421875 408.82080078125 270.0846862792969" stroke-width="0.0" fill="url(#shape_57_fill)"/>
    <path d="M 632.3251953125 352.75811767578125 C 632.5332641601562 352.7485046386719 660.0596923828125 352.6241760253906 666.5557250976562 355.1390686035156 C 670.6595458984375 360.5985107421875 662.9052124023438 358.8298645019531 656.3894653320312 359.46063232421875 C 654.18994140625 358.8451843261719 634.147705078125 361.70782470703125 632.1185302734375 360.43408203125 C 627.0496215820312 357.5788879394531 629.9762573242188 354.2471618652344 632.3251953125 352.75811767578125" stroke-width="0.0" fill="url(#shape_58_fill)"/>
    <path d="M 345.6361999511719 389.50177001953125 C 340.25860595703125 389.8486328125 359.45379638671875 388.65545654296875 357.8446350097656 393.83160400390625 C 356.5344543457031 399.5973815917969 342.3780212402344 399.9653015136719 338.01568603515625 399.9515686035156 C 335.43450927734375 399.1315002441406 333.6108703613281 398.3326721191406 331.00469970703125 396.9154357910156 C 331.7762145996094 393.9696350097656 330.9152526855469 394.513427734375 333.3951721191406 391.45623779296875 C 337.0912170410156 389.3351135253906 340.5767517089844 389.4724426269531 345.6361999511719 389.50177001953125" stroke-width="0.0" fill="url(#shape_59_fill)"/>
    <path d="M 460.6141052246094 363.8997802734375 C 464.0211181640625 363.36676025390625 470.2349853515625 368.5725402832031 472.0545959472656 372.15460205078125 C 471.0421142578125 377.7100524902344 471.1648864746094 375.6255187988281 463.9508056640625 376.75823974609375 C 460.8832702636719 377.2635803222656 454.7745361328125 378.0318908691406 453.0858459472656 372.4263916015625 C 452.67425537109375 368.4993591308594 458.15460205078125 363.842041015625 460.6141052246094 363.8997802734375" stroke-width="0.0" fill="url(#shape_60_fill)"/>
    <path d="M 438.0843505859375 433.0515441894531 C 439.8274841308594 434.7026672363281 442.9640197753906 435.8437805175781 441.544677734375 438.67889404296875 C 440.7607116699219 442.7098083496094 430.4735107421875 440.93170166015625 427.3970642089844 441.0780029296875 C 421.04315185546875 439.0737609863281 425.6437683105469 435.88739013671875 424.8699645996094 434.0506286621094 C 428.9573974609375 432.14178466796875 433.6299133300781 432.2959899902344 438.0843505859375 433.0515441894531" stroke-width="0.0" fill="url(#shape_61_fill)"/>
    <path d="M 184.873779296875 412.0604248046875 C 185.7449493408203 414.3250427246094 185.5684814453125 414.36865234375 186.05711364746094 417.0408630371094 C 184.07252502441406 420.06634521484375 184.17408752441406 419.5706787109375 182.73495483398438 420.5382995605469 C 180.40208435058594 421.13311767578125 174.89308166503906 421.4664306640625 171.89755249023438 419.53546142578125 C 168.74588012695312 418.10296630859375 170.5078887939453 416.3778076171875 171.95217895507812 414.1064758300781 C 176.37213134765625 411.56195068359375 180.24899291992188 410.17388916015625 184.873779296875 412.0604248046875" stroke-width="0.0" fill="url(#shape_62_fill)"/>
    <path d="M 331.6766052246094 419.08087158203125 C 335.12237548828125 424.5854797363281 327.2383117675781 427.98223876953125 329.31182861328125 426.76611328125 C 324.24249267578125 427.38525390625 323.4136047363281 427.1624755859375 320.6483459472656 426.9183654785156 C 317.3218078613281 426.8124084472656 319.5847473144531 418.507568359375 318.86822509765625 419.9441223144531 C 322.673095703125 417.4879455566406 325.6023864746094 417.3634033203125 331.6766052246094 419.08087158203125" stroke-width="0.0" fill="url(#shape_63_fill)"/>
    <path d="M 56.650367736816406 272.8231506347656 C 55.17321014404297 272.54168701171875 68.61599731445312 272.21954345703125 63.531532287597656 278.2539367675781 C 61.12208557128906 279.85418701171875 50.70273971557617 277.62738037109375 48.932159423828125 277.9017028808594 C 49.973899841308594 272.0460205078125 51.542518615722656 273.1348571777344 56.650367736816406 272.8231506347656" stroke-width="0.0" fill="url(#shape_64_fill)"/>
    <path d="M 304.5032958984375 438.2461242675781 C 304.1825866699219 436.736328125 306.029541015625 436.27630615234375 312.88330078125 437.0861511230469 C 315.06549072265625 438.6632080078125 313.0184326171875 441.48297119140625 311.1019287109375 443.9586181640625 C 307.4161376953125 444.98175048828125 307.2515563964844 444.73040771484375 304.1974182128906 444.9749450683594 C 303.0262756347656 440.8463439941406 302.408935546875 440.14111328125 304.5032958984375 438.2461242675781" stroke-width="0.0" fill="url(#shape_65_fill)"/>
    <path d="M 1.6543612251060553e-17 0.04999971389770508 C 222.4199981689453 -0.04999970272183418 444.8399963378906 -0.04999971762299538 673.9500122070312 0.04999971389770508 C 674.0499877929688 147.17999267578125 674.0499877929688 294.3599853515625 673.9500122070312 445.95001220703125 C 451.5799865722656 446.04998779296875 229.16000366210938 446.04998779296875 0.04999956861138344 445.95001220703125 C -0.049999549984931946 298.82000732421875 -0.049999576061964035 151.63999938964844 1.6543612251060553e-17 0.04999971389770508" stroke-width="0.0" fill="url(#shape_66_fill)"/>
    <path d="M 1.6543612251060553e-17 0.04999971389770508 C 222.4199981689453 -0.04999970272183418 444.8399963378906 -0.04999971762299538 673.9500122070312 0.04999971389770508 C 674.0499877929688 147.17999267578125 674.0499877929688 294.3599853515625 673.9500122070312 445.95001220703125 C 451.5799865722656 446.04998779296875 229.16000366210938 446.04998779296875 0.04999956861138344 445.95001220703125 C -0.049999549984931946 298.82000732421875 -0.049999576061964035 151.63999938964844 1.6543612251060553e-17 0.04999971389770508" stroke-width="0.0" fill="url(#shape_67_fill)"/>
    <path d="M -0.049910735338926315 0.049999747425317764 C 222.4199981689453 -0.04999957233667374 444.8399963378906 -0.04999956488609314 673.9500122070312 0.04999977722764015 C 674.0499877929688 147.17999267578125 674.0499877929688 294.3599853515625 673.9500122070312 445.95001220703125 C 451.5799865722656 446.04998779296875 229.16000366210938 446.04998779296875 0.04999948665499687 445.95001220703125 C -0.04999960586428642 298.82000732421875 -0.04999959468841553 151.63999938964844 -0.049910735338926315 0.049999747425317764" stroke-width="0.0" fill="url(#shape_68_fill)"/>
  </g>
</svg>
