<?xml version="1.0" ?>
<svg xmlns="http://www.w3.org/2000/svg" version="1.1" width="674" height="446">
  <defs>
    <radialGradient id="shape_0_fill" cx="0.5341774688630146" cy="0.7404357499605871" r="0.2790274464411976">
      <stop offset="0.7628951" stop-color="rgb(164, 181, 0)" stop-opacity="0.8530617356300354"/>
      <stop offset="1.0" stop-color="rgb(51, 46, 0)" stop-opacity="1.0"/>
    </radialGradient>
    <radialGradient id="shape_1_fill" cx="0.5357333672860256" cy="0.744195912450953" r="0.2063089025480457">
      <stop offset="0.5261656" stop-color="rgb(76, 76, 68)" stop-opacity="0.7956141829490662"/>
      <stop offset="1.0" stop-color="rgb(30, 11, 0)" stop-opacity="0.6255093216896057"/>
    </radialGradient>
    <radialGradient id="shape_2_fill" cx="0.09792273546892387" cy="0.7376672719091578" r="0.22062588021026522">
      <stop offset="0.0" stop-color="rgb(35, 95, 183)" stop-opacity="0.9587736129760742"/>
      <stop offset="0.988948" stop-color="rgb(9, 105, 255)" stop-opacity="0.9258528351783752"/>
    </radialGradient>
    <radialGradient id="shape_3_fill" cx="0.2768848770096323" cy="0.21565927411408703" r="0.12914507042406576">
      <stop offset="0.39563745" stop-color="rgb(139, 195, 6)" stop-opacity="0.799569308757782"/>
      <stop offset="1.0" stop-color="rgb(38, 41, 0)" stop-opacity="0.9468072652816772"/>
    </radialGradient>
    <radialGradient id="shape_4_fill" cx="0.1543026706231454" cy="0.9977578475336323" r="0.10288926755639141">
      <stop offset="0.0" stop-color="rgb(81, 79, 86)" stop-opacity="1.0"/>
      <stop offset="1.0" stop-color="rgb(71, 66, 81)" stop-opacity="0.8997053503990173"/>
    </radialGradient>
    <radialGradient id="shape_5_fill" cx="0.14807964290992442" cy="0.23997249517740155" r="0.11810664960821587">
      <stop offset="0.0" stop-color="rgb(255, 255, 255)" stop-opacity="0.6465655565261841"/>
      <stop offset="0.5626593" stop-color="rgb(255, 255, 255)" stop-opacity="0.5751070976257324"/>
    </radialGradient>
    <radialGradient id="shape_6_fill" cx="0.18397626112759644" cy="0.9977578475336323" r="0.0754974885934892">
      <stop offset="0.0" stop-color="rgb(93, 90, 94)" stop-opacity="1.0"/>
      <stop offset="1.0" stop-color="rgb(145, 131, 133)" stop-opacity="0.9280582070350647"/>
    </radialGradient>
    <radialGradient id="shape_7_fill" cx="0.2893175074183976" cy="0.05829596412556054" r="0.08666390552011372">
      <stop offset="0.0" stop-color="rgb(55, 66, 29)" stop-opacity="1.0"/>
      <stop offset="1.0" stop-color="rgb(113, 130, 46)" stop-opacity="0.5415270328521729"/>
    </radialGradient>
    <radialGradient id="shape_8_fill" cx="0.3382789091115889" cy="0.9439461883408071" r="0.06756690277190167">
      <stop offset="0.0" stop-color="rgb(91, 124, 45)" stop-opacity="1.0"/>
      <stop offset="1.0" stop-color="rgb(119, 177, 59)" stop-opacity="0.7015261650085449"/>
    </radialGradient>
    <radialGradient id="shape_9_fill" cx="0.30712166172106825" cy="0.9977578475336323" r="0.0730758406641929">
      <stop offset="0.0" stop-color="rgb(38, 48, 20)" stop-opacity="1.0"/>
      <stop offset="1.0" stop-color="rgb(32, 33, 47)" stop-opacity="1.0"/>
    </radialGradient>
    <radialGradient id="shape_10_fill" cx="0.3056379821958457" cy="0.9977578475336323" r="0.06792919147615971">
      <stop offset="0.0" stop-color="rgb(39, 49, 21)" stop-opacity="1.0"/>
      <stop offset="1.0" stop-color="rgb(39, 25, 0)" stop-opacity="0.6905725598335266"/>
    </radialGradient>
    <radialGradient id="shape_11_fill" cx="0.21810089020771514" cy="0.968609865470852" r="0.06792919147615971">
      <stop offset="0.0" stop-color="rgb(138, 135, 129)" stop-opacity="1.0"/>
      <stop offset="1.0" stop-color="rgb(160, 128, 97)" stop-opacity="0.47438162565231323"/>
    </radialGradient>
    <radialGradient id="shape_12_fill" cx="0.29080118694362017" cy="0.9977578475336323" r="0.07480746985189285">
      <stop offset="0.0" stop-color="rgb(22, 25, 13)" stop-opacity="1.0"/>
      <stop offset="1.0" stop-color="rgb(36, 39, 5)" stop-opacity="0.9962487816810608"/>
    </radialGradient>
    <radialGradient id="shape_13_fill" cx="0.327893175074184" cy="0.8923766816143498" r="0.06900465877544279">
      <stop offset="0.0" stop-color="rgb(89, 117, 50)" stop-opacity="1.0"/>
      <stop offset="1.0" stop-color="rgb(107, 143, 16)" stop-opacity="0.6958416104316711"/>
    </radialGradient>
    <radialGradient id="shape_14_fill" cx="0.142433234421365" cy="0.9977578475336323" r="0.06617211022079875">
      <stop offset="0.0" stop-color="rgb(155, 150, 153)" stop-opacity="1.0"/>
      <stop offset="1.0" stop-color="rgb(255, 228, 215)" stop-opacity="0.1976952999830246"/>
    </radialGradient>
    <radialGradient id="shape_15_fill" cx="0.31008902077151335" cy="0.9977578475336323" r="0.06683642786405207">
      <stop offset="0.0" stop-color="rgb(43, 55, 23)" stop-opacity="1.0"/>
      <stop offset="1.0" stop-color="rgb(57, 67, 18)" stop-opacity="0.9379803538322449"/>
    </radialGradient>
    <radialGradient id="shape_16_fill" cx="0.27299703264094954" cy="0.9977578475336323" r="0.08110449363640579">
      <stop offset="0.0" stop-color="rgb(31, 35, 19)" stop-opacity="1.0"/>
      <stop offset="1.0" stop-color="rgb(31, 31, 0)" stop-opacity="0.970516562461853"/>
    </radialGradient>
    <radialGradient id="shape_17_fill" cx="0.2893175074183976" cy="0.9977578475336323" r="0.07513486030193747">
      <stop offset="0.0" stop-color="rgb(22, 23, 13)" stop-opacity="1.0"/>
      <stop offset="1.0" stop-color="rgb(19, 16, 0)" stop-opacity="0.8487805724143982"/>
    </radialGradient>
    <radialGradient id="shape_18_fill" cx="0.3293768545994065" cy="0.7556053811659192" r="0.06617211022079875">
      <stop offset="0.0" stop-color="rgb(83, 108, 65)" stop-opacity="1.0"/>
      <stop offset="1.0" stop-color="rgb(110, 135, 60)" stop-opacity="0.9771680235862732"/>
    </radialGradient>
    <radialGradient id="shape_19_fill" cx="0.3516320474777448" cy="0.9977578475336323" r="0.06617211022079875">
      <stop offset="0.0" stop-color="rgb(95, 135, 39)" stop-opacity="1.0"/>
      <stop offset="1.0" stop-color="rgb(142, 205, 6)" stop-opacity="0.7581987380981445"/>
    </radialGradient>
    <radialGradient id="shape_20_fill" cx="0.0830860534124629" cy="0.9977578475336323" r="0.06792919147615971">
      <stop offset="0.0" stop-color="rgb(49, 52, 66)" stop-opacity="1.0"/>
      <stop offset="1.0" stop-color="rgb(21, 11, 52)" stop-opacity="0.38681522011756897"/>
    </radialGradient>
    <radialGradient id="shape_21_fill" cx="0.29821958456973297" cy="0.9977578475336323" r="0.06792919147615971">
      <stop offset="0.0" stop-color="rgb(33, 40, 17)" stop-opacity="1.0"/>
      <stop offset="1.0" stop-color="rgb(40, 55, 0)" stop-opacity="0.6738885641098022"/>
    </radialGradient>
    <radialGradient id="shape_22_fill" cx="0.3563327506317229" cy="0.4437251069620586" r="0.06594546966099951">
      <stop offset="0.52248436" stop-color="rgb(103, 156, 32)" stop-opacity="0.9181516766548157"/>
      <stop offset="0.39036533" stop-color="rgb(151, 187, 38)" stop-opacity="0.9124908447265625"/>
    </radialGradient>
    <radialGradient id="shape_23_fill" cx="0.6454005934718101" cy="0.1412556053811659" r="0.06617211022079875">
      <stop offset="0.0" stop-color="rgb(46, 38, 13)" stop-opacity="1.0"/>
      <stop offset="1.0" stop-color="rgb(51, 30, 0)" stop-opacity="0.8760955929756165"/>
    </radialGradient>
    <radialGradient id="shape_24_fill" cx="0.24925732258873098" cy="0.48430544592339897" r="0.06617138010811735">
      <stop offset="0.0" stop-color="rgb(201, 209, 206)" stop-opacity="1.0"/>
      <stop offset="0.9766002" stop-color="rgb(255, 255, 255)" stop-opacity="0.6015357971191406"/>
    </radialGradient>
    <radialGradient id="shape_25_fill" cx="0.6320474777448071" cy="0.9977578475336323" r="0.06617211022079875">
      <stop offset="0.0" stop-color="rgb(35, 28, 8)" stop-opacity="1.0"/>
      <stop offset="1.0" stop-color="rgb(38, 15, 0)" stop-opacity="0.5710983872413635"/>
    </radialGradient>
    <radialGradient id="shape_26_fill" cx="0.15414520399506793" cy="0.3207086811151205" r="0.06604698362265567">
      <stop offset="0.11989566" stop-color="rgb(198, 211, 155)" stop-opacity="1.0"/>
      <stop offset="0.58338004" stop-color="rgb(115, 114, 253)" stop-opacity="0.0"/>
    </radialGradient>
    <radialGradient id="shape_27_fill" cx="0.15410647972401242" cy="0.3208032787648017" r="0.06604505929465818">
      <stop offset="0.0" stop-color="rgb(192, 205, 0)" stop-opacity="1.0"/>
      <stop offset="0.49375948" stop-color="rgb(78, 73, 48)" stop-opacity="0.6137534976005554"/>
    </radialGradient>
    <radialGradient id="shape_28_fill" cx="0.03710026557084715" cy="0.01739666173276345" r="0.06857546005475415">
      <stop offset="0.14177309" stop-color="rgb(4, 27, 126)" stop-opacity="0.9863781332969666"/>
      <stop offset="0.7571134" stop-color="rgb(5, 27, 159)" stop-opacity="0.7550355792045593"/>
    </radialGradient>
    <radialGradient id="shape_29_fill" cx="0.33976258863681147" cy="0.6659192825112108" r="0.06617211022079875">
      <stop offset="0.0" stop-color="rgb(90, 117, 55)" stop-opacity="1.0"/>
      <stop offset="1.0" stop-color="rgb(112, 144, 29)" stop-opacity="0.8841500282287598"/>
    </radialGradient>
    <radialGradient id="shape_30_fill" cx="0.03970600094215099" cy="0.016828051597013602" r="0.06851079131446182">
      <stop offset="0.28031495" stop-color="rgb(47, 73, 70)" stop-opacity="1.0"/>
      <stop offset="0.907444" stop-color="rgb(55, 64, 17)" stop-opacity="0.5821169018745422"/>
    </radialGradient>
    <radialGradient id="shape_31_fill" cx="0.12314540059347182" cy="0.9977578475336323" r="0.06617211022079875">
      <stop offset="0.0" stop-color="rgb(95, 103, 98)" stop-opacity="1.0"/>
      <stop offset="1.0" stop-color="rgb(137, 128, 116)" stop-opacity="0.7418544888496399"/>
    </radialGradient>
    <radialGradient id="shape_32_fill" cx="0.4035608308605341" cy="0.984304932735426" r="0.06617211022079875">
      <stop offset="0.0" stop-color="rgb(126, 155, 63)" stop-opacity="1.0"/>
      <stop offset="1.0" stop-color="rgb(141, 130, 29)" stop-opacity="0.9746766686439514"/>
    </radialGradient>
    <radialGradient id="shape_33_fill" cx="0.3249258160237389" cy="0.6053811659192825" r="0.06617211022079875">
      <stop offset="0.0" stop-color="rgb(93, 124, 71)" stop-opacity="1.0"/>
      <stop offset="1.0" stop-color="rgb(126, 154, 56)" stop-opacity="0.9973631501197815"/>
    </radialGradient>
    <radialGradient id="shape_34_fill" cx="0.6468842729970327" cy="0.531390134529148" r="0.06617211022079875">
      <stop offset="0.0" stop-color="rgb(54, 47, 24)" stop-opacity="1.0"/>
      <stop offset="1.0" stop-color="rgb(53, 19, 20)" stop-opacity="0.43089762330055237"/>
    </radialGradient>
    <radialGradient id="shape_35_fill" cx="0.14656027276013656" cy="0.23934312144737072" r="0.06904186056346497">
      <stop offset="0.05552483" stop-color="rgb(194, 255, 78)" stop-opacity="0.1664057821035385"/>
      <stop offset="0.5744379" stop-color="rgb(115, 94, 64)" stop-opacity="0.7664465308189392"/>
    </radialGradient>
    <radialGradient id="shape_36_fill" cx="0.2878338278931751" cy="0.9977578475336323" r="0.06617211022079875">
      <stop offset="0.0" stop-color="rgb(80, 96, 53)" stop-opacity="1.0"/>
      <stop offset="1.0" stop-color="rgb(39, 40, 0)" stop-opacity="0.791454553604126"/>
    </radialGradient>
    <radialGradient id="shape_37_fill" cx="0.129080118694362" cy="0.9977578475336323" r="0.06617211022079875">
      <stop offset="0.0" stop-color="rgb(87, 97, 81)" stop-opacity="1.0"/>
      <stop offset="1.0" stop-color="rgb(67, 77, 54)" stop-opacity="0.5890081524848938"/>
    </radialGradient>
    <radialGradient id="shape_38_fill" cx="0.33892324204260943" cy="0.5607740119968294" r="0.0666785763703751">
      <stop offset="0.7501433" stop-color="rgb(83, 114, 20)" stop-opacity="0.9056636095046997"/>
      <stop offset="0.6022492" stop-color="rgb(172, 255, 79)" stop-opacity="0.882398784160614"/>
    </radialGradient>
    <radialGradient id="shape_39_fill" cx="0.40059347181008903" cy="0.9641255605381166" r="0.06617211022079875">
      <stop offset="0.0" stop-color="rgb(138, 168, 60)" stop-opacity="1.0"/>
      <stop offset="1.0" stop-color="rgb(218, 255, 82)" stop-opacity="1.0"/>
    </radialGradient>
    <radialGradient id="shape_40_fill" cx="0.6135057398402727" cy="0.8785461973181754" r="0.06958338910111334">
      <stop offset="0.34593746" stop-color="rgb(158, 145, 140)" stop-opacity="0.4913147985935211"/>
      <stop offset="0.50753" stop-color="rgb(0, 12, 70)" stop-opacity="1.0"/>
    </radialGradient>
    <radialGradient id="shape_41_fill" cx="0.6454005934718101" cy="0.08744394618834081" r="0.06617211022079875">
      <stop offset="0.0" stop-color="rgb(58, 48, 21)" stop-opacity="1.0"/>
      <stop offset="1.0" stop-color="rgb(90, 63, 18)" stop-opacity="0.9990767240524292"/>
    </radialGradient>
    <radialGradient id="shape_42_fill" cx="0.5845697329376854" cy="0.6188340807174888" r="0.06617211022079875">
      <stop offset="0.0" stop-color="rgb(62, 59, 56)" stop-opacity="1.0"/>
      <stop offset="1.0" stop-color="rgb(34, 29, 79)" stop-opacity="0.5926666855812073"/>
    </radialGradient>
    <radialGradient id="shape_43_fill" cx="0.35544488833283105" cy="0.5026573899615506" r="0.06910548790272336">
      <stop offset="0.25123757" stop-color="rgb(121, 164, 48)" stop-opacity="0.9086117148399353"/>
      <stop offset="0.5714216" stop-color="rgb(205, 255, 27)" stop-opacity="0.8367839455604553"/>
    </radialGradient>
    <radialGradient id="shape_44_fill" cx="0.5934718100890207" cy="0.9977578475336323" r="0.06617211022079875">
      <stop offset="0.0" stop-color="rgb(89, 61, 18)" stop-opacity="1.0"/>
      <stop offset="1.0" stop-color="rgb(163, 83, 0)" stop-opacity="0.7558989524841309"/>
    </radialGradient>
    <radialGradient id="shape_45_fill" cx="0.612759643916914" cy="0.04035874439461883" r="0.06617211022079875">
      <stop offset="0.0" stop-color="rgb(157, 136, 123)" stop-opacity="1.0"/>
      <stop offset="1.0" stop-color="rgb(255, 225, 205)" stop-opacity="1.0"/>
    </radialGradient>
    <radialGradient id="shape_46_fill" cx="0.28635014836795253" cy="0.9977578475336323" r="0.06617211022079875">
      <stop offset="0.0" stop-color="rgb(82, 99, 55)" stop-opacity="1.0"/>
      <stop offset="1.0" stop-color="rgb(93, 109, 26)" stop-opacity="0.5651439428329468"/>
    </radialGradient>
    <radialGradient id="shape_47_fill" cx="0.28635014836795253" cy="0.8183856502242153" r="0.06617211022079875">
      <stop offset="0.0" stop-color="rgb(166, 189, 197)" stop-opacity="1.0"/>
      <stop offset="1.0" stop-color="rgb(255, 255, 255)" stop-opacity="0.45313987135887146"/>
    </radialGradient>
    <radialGradient id="shape_48_fill" cx="0.40801186943620177" cy="0.9977578475336323" r="0.06617211022079875">
      <stop offset="0.0" stop-color="rgb(107, 135, 68)" stop-opacity="1.0"/>
      <stop offset="1.0" stop-color="rgb(130, 147, 55)" stop-opacity="1.0"/>
    </radialGradient>
    <radialGradient id="shape_49_fill" cx="0.19287833827893175" cy="0.3991031390134529" r="0.06617211022079875">
      <stop offset="0.0" stop-color="rgb(92, 100, 54)" stop-opacity="1.0"/>
      <stop offset="1.0" stop-color="rgb(62, 40, 2)" stop-opacity="0.5239133238792419"/>
    </radialGradient>
    <radialGradient id="shape_50_fill" cx="0.6439169139465876" cy="0.7376681614349776" r="0.06617211022079875">
      <stop offset="0.0" stop-color="rgb(65, 56, 25)" stop-opacity="1.0"/>
      <stop offset="1.0" stop-color="rgb(152, 194, 101)" stop-opacity="0.4493281841278076"/>
    </radialGradient>
    <radialGradient id="shape_51_fill" cx="0.5845697329376854" cy="0.6322869955156951" r="0.06617211022079875">
      <stop offset="0.0" stop-color="rgb(75, 68, 60)" stop-opacity="1.0"/>
      <stop offset="1.0" stop-color="rgb(142, 112, 89)" stop-opacity="0.6980995535850525"/>
    </radialGradient>
    <radialGradient id="shape_52_fill" cx="0.2997032640949555" cy="0.6031390134529148" r="0.06617211022079875">
      <stop offset="0.0" stop-color="rgb(107, 158, 118)" stop-opacity="1.0"/>
      <stop offset="1.0" stop-color="rgb(186, 255, 244)" stop-opacity="0.5298504829406738"/>
    </radialGradient>
    <radialGradient id="shape_53_fill" cx="0.6097922848664689" cy="0.45067264573991034" r="0.06617211022079875">
      <stop offset="0.0" stop-color="rgb(38, 39, 27)" stop-opacity="1.0"/>
      <stop offset="1.0" stop-color="rgb(18, 13, 45)" stop-opacity="0.3735791742801666"/>
    </radialGradient>
    <radialGradient id="shape_54_fill" cx="0.6335311572700296" cy="0.426009002822397" r="0.06617211022079875">
      <stop offset="0.0" stop-color="rgb(67, 49, 20)" stop-opacity="1.0"/>
      <stop offset="1.0" stop-color="rgb(135, 77, 19)" stop-opacity="0.6764623522758484"/>
    </radialGradient>
    <radialGradient id="shape_55_fill" cx="0.3707168533823257" cy="0.5988430827187851" r="0.066001377049115">
      <stop offset="0.43605936" stop-color="rgb(239, 255, 47)" stop-opacity="0.8751247525215149"/>
      <stop offset="0.16089156" stop-color="rgb(202, 255, 0)" stop-opacity="0.7395968437194824"/>
    </radialGradient>
    <radialGradient id="shape_56_fill" cx="0.5489614243323442" cy="0.600896860986547" r="0.06617211022079875">
      <stop offset="0.0" stop-color="rgb(50, 62, 80)" stop-opacity="1.0"/>
      <stop offset="1.0" stop-color="rgb(28, 75, 225)" stop-opacity="0.4558297395706177"/>
    </radialGradient>
    <radialGradient id="shape_57_fill" cx="0.4094955489614243" cy="0.9035874439461884" r="0.06617211022079875">
      <stop offset="0.0" stop-color="rgb(111, 144, 47)" stop-opacity="1.0"/>
      <stop offset="1.0" stop-color="rgb(173, 232, 15)" stop-opacity="0.6631848216056824"/>
    </radialGradient>
    <radialGradient id="shape_58_fill" cx="0.5281899109792285" cy="0.9977578475336323" r="0.06617211022079875">
      <stop offset="0.0" stop-color="rgb(50, 43, 14)" stop-opacity="1.0"/>
      <stop offset="1.0" stop-color="rgb(74, 54, 5)" stop-opacity="1.0"/>
    </radialGradient>
    <radialGradient id="shape_59_fill" cx="0.5845697329376854" cy="0.7690582959641256" r="0.06617211022079875">
      <stop offset="0.0" stop-color="rgb(61, 63, 58)" stop-opacity="1.0"/>
      <stop offset="1.0" stop-color="rgb(78, 76, 95)" stop-opacity="0.7085443735122681"/>
    </radialGradient>
    <radialGradient id="shape_60_fill" cx="0.5489614243323442" cy="0.9977578475336323" r="0.06617211022079875">
      <stop offset="0.0" stop-color="rgb(140, 131, 64)" stop-opacity="1.0"/>
      <stop offset="1.0" stop-color="rgb(237, 209, 89)" stop-opacity="0.9212111234664917"/>
    </radialGradient>
    <radialGradient id="shape_61_fill" cx="0.6469461231627874" cy="0.9686617316686519" r="0.06611967228286698">
      <stop offset="0.4623095" stop-color="rgb(255, 227, 60)" stop-opacity="1.0"/>
      <stop offset="0.29956087" stop-color="rgb(239, 177, 15)" stop-opacity="0.8628382086753845"/>
    </radialGradient>
    <radialGradient id="shape_62_fill" cx="0.615727002967359" cy="0.3991031390134529" r="0.06617211022079875">
      <stop offset="0.0" stop-color="rgb(55, 47, 13)" stop-opacity="1.0"/>
      <stop offset="1.0" stop-color="rgb(76, 53, 0)" stop-opacity="1.0"/>
    </radialGradient>
    <radialGradient id="shape_63_fill" cx="0.6261127596439169" cy="0.7286995515695067" r="0.06617211022079875">
      <stop offset="0.0" stop-color="rgb(79, 66, 32)" stop-opacity="1.0"/>
      <stop offset="1.0" stop-color="rgb(196, 207, 107)" stop-opacity="0.626335620880127"/>
    </radialGradient>
    <radialGradient id="shape_64_fill" cx="0.40801186943620177" cy="0.12556053811659193" r="0.06617211022079875">
      <stop offset="0.0" stop-color="rgb(76, 66, 59)" stop-opacity="1.0"/>
      <stop offset="1.0" stop-color="rgb(106, 78, 72)" stop-opacity="1.0"/>
    </radialGradient>
    <radialGradient id="shape_65_fill" cx="0.6528189910979229" cy="0.6883408071748879" r="0.06617211022079875">
      <stop offset="0.0" stop-color="rgb(121, 97, 39)" stop-opacity="1.0"/>
      <stop offset="1.0" stop-color="rgb(255, 244, 95)" stop-opacity="1.0"/>
    </radialGradient>
    <radialGradient id="shape_66_fill" cx="0.65233605268801" cy="0.46015249346403797" r="0.06984509770877284">
      <stop offset="0.24771647" stop-color="rgb(162, 196, 112)" stop-opacity="0.31193432211875916"/>
      <stop offset="0.9447298" stop-color="rgb(0, 0, 0)" stop-opacity="0.056012507528066635"/>
    </radialGradient>
    <radialGradient id="shape_67_fill" cx="0.595911088258647" cy="0.9951075395661084" r="0.06957026405221277">
      <stop offset="0.8501069" stop-color="rgb(53, 30, 0)" stop-opacity="0.7219634652137756"/>
      <stop offset="1.0" stop-color="rgb(0, 0, 0)" stop-opacity="0.15625759959220886"/>
    </radialGradient>
    <radialGradient id="shape_68_fill" cx="0.49007707816556934" cy="0.9966538091411505" r="0.06797732231525003">
      <stop offset="0.3642731" stop-color="rgb(49, 22, 3)" stop-opacity="0.5876697301864624"/>
      <stop offset="1.0" stop-color="rgb(38, 63, 56)" stop-opacity="0.2328788936138153"/>
    </radialGradient>
  </defs>
  <g>
    <path d="M -0.4540456235408783 271.0615234375 C 25.847148895263672 266.0661315917969 37.07595443725586 267.7743835449219 45.504920959472656 272.5487365722656 C 48.112308502197266 274.2317810058594 49.362483978271484 276.2974853515625 57.079933166503906 274.5000915527344 C 59.62458038330078 273.81640625 63.32432174682617 274.2785339355469 64.4008560180664 271.6416320800781 C 69.73204040527344 269.55279541015625 100.13412475585938 270.7101745605469 116.80290985107422 270.86822509765625 C 120.88607025146484 270.83709716796875 124.85132598876953 277.8066711425781 125.26358032226562 282.3056335449219 C 132.7147674560547 282.699462890625 140.8220672607422 281.5925598144531 158.39273071289062 287.87200927734375 C 185.26918029785156 282.43463134765625 185.81642150878906 282.3946228027344 206.68170166015625 287.25750732421875 C 200.1011962890625 287.6429443359375 198.21585083007812 281.7000732421875 210.91065979003906 269.7660827636719 C 246.52243041992188 269.9960021972656 289.9698791503906 268.5811767578125 313.3236389160156 274.59051513671875 C 348.07135009765625 276.50616455078125 424.9129333496094 276.9630432128906 469.2810363769531 271.81805419921875 C 497.8920593261719 268.9656677246094 547.1616821289062 269.722900390625 547.0194091796875 276.6600036621094 C 547.709716796875 276.6971130371094 549.3951416015625 271.7902526855469 570.9180908203125 269.11419677734375 C 586.7049560546875 273.1700744628906 612.3799438476562 282.4949951171875 612.4737548828125 282.42724609375 C 623.97509765625 270.75 633.4015502929688 270.04986572265625 671.5686645507812 269.326171875 C 675.8787231445312 272.78350830078125 679.215576171875 278.9393615722656 678.45361328125 284.9219665527344 C 676.607666015625 339.5123291015625 674.724609375 391.50262451171875 675.1177368164062 446.4668273925781 C 451.9151306152344 446.6697692871094 228.9889373779297 446.8115539550781 -0.47240424156188965 446.4240417480469 C -0.4520213305950165 389.14483642578125 -0.11724361777305603 332.3588562011719 -0.4540456235408783 271.0615234375" stroke-width="0.0" fill="url(#shape_0_fill)"/>
    <path d="M -0.009112532250583172 271.1363525390625 C 35.933441162109375 275.39605712890625 36.5576057434082 274.5882263183594 44.26682662963867 274.1829833984375 C 47.381290435791016 267.0957336425781 59.57816696166992 266.5492248535156 77.80998992919922 268.2488708496094 C 113.54025268554688 278.68035888671875 114.03653717041016 279.3109130859375 127.43233489990234 279.007080078125 C 127.89842987060547 272.0357666015625 140.77081298828125 270.2548828125 145.6029510498047 269.2933044433594 C 185.1859588623047 268.58587646484375 185.88218688964844 270.5314636230469 202.79718017578125 274.3574523925781 C 203.1148681640625 291.9958801269531 204.30372619628906 292.28204345703125 212.7945556640625 297.3677673339844 C 215.23497009277344 296.53485107421875 266.9423522949219 298.88983154296875 288.0957336425781 300.5278015136719 C 317.9803466796875 302.7914733886719 448.56683349609375 300.8775939941406 462.8114929199219 302.22021484375 C 479.5329284667969 293.8472595214844 489.60260009765625 291.4794006347656 504.5274658203125 287.0992431640625 C 511.07281494140625 288.0156555175781 520.728515625 286.4909362792969 522.8981323242188 286.4843444824219 C 527.4762573242188 285.7033996582031 531.81201171875 285.92547607421875 534.8844604492188 287.1153564453125 C 541.8387451171875 287.02166748046875 545.4652099609375 288.2943420410156 552.8896484375 301.30194091796875 C 579.3269653320312 289.76318359375 581.5040893554688 290.44525146484375 595.5237426757812 294.65020751953125 C 613.2122802734375 289.0995788574219 623.8023681640625 288.0555725097656 633.2357177734375 288.4842224121094 C 643.85009765625 278.5244445800781 655.8056030273438 283.2282409667969 673.8018798828125 291.3257141113281 C 674.071044921875 340.42919921875 674.468505859375 392.1748352050781 674.1557006835938 446.2807922363281 C 451.4774169921875 446.3905334472656 229.19664001464844 446.25439453125 -0.3076566159725189 446.2476501464844 C -0.2135799378156662 389.4035949707031 -0.2940194308757782 333.0278625488281 -0.009112532250583172 271.1363525390625" stroke-width="0.0" fill="url(#shape_1_fill)"/>
    <path d="M -0.019932538270950317 -0.25989267230033875 C 219.69313049316406 0.1040392518043518 439.478759765625 -0.45242562890052795 672.4203491210938 -0.176717609167099 C 665.8641357421875 10.910345077514648 644.7725219726562 35.43177032470703 637.92529296875 48.44816589355469 C 634.31005859375 53.13785171508789 610.9303588867188 93.23714447021484 584.621826171875 84.00225830078125 C 577.7003173828125 81.64285278320312 560.9266967773438 70.77879333496094 532.2769165039062 73.8905258178711 C 532.2767333984375 77.5280990600586 524.9025268554688 78.76587677001953 522.3326416015625 72.09127807617188 C 522.6344604492188 68.8598861694336 499.4372253417969 63.826873779296875 499.44317626953125 62.65742492675781 C 492.9146423339844 62.13847351074219 486.2353210449219 61.015228271484375 484.4886169433594 68.48302459716797 C 475.2179870605469 72.34060668945312 476.0390319824219 75.5685806274414 477.2224426269531 83.84868621826172 C 485.2048645019531 99.04827880859375 477.63775634765625 117.00220489501953 474.0533447265625 120.58130645751953 C 460.5053405761719 117.59146118164062 459.1508483886719 113.6606216430664 450.0914611816406 108.30992889404297 C 435.1737976074219 107.93023681640625 411.7082214355469 102.28661346435547 410.14947509765625 105.04435729980469 C 413.2555236816406 120.13856506347656 416.501953125 127.03907775878906 413.3820495605469 137.6133270263672 C 409.2159118652344 148.14224243164062 398.3147277832031 147.6032257080078 393.29791259765625 136.19610595703125 C 381.555908203125 142.91336059570312 376.11041259765625 158.18824768066406 369.07281494140625 157.45022583007812 C 366.78619384765625 156.7573699951172 364.4917297363281 160.4954071044922 359.35345458984375 164.81932067871094 C 355.69378662109375 168.08621215820312 352.38946533203125 167.9481201171875 350.7403564453125 173.53131103515625 C 345.34112548828125 180.72682189941406 337.3506774902344 174.73068237304688 339.7220153808594 167.18052673339844 C 301.4573974609375 165.53985595703125 300.1268310546875 172.09561157226562 298.112060546875 178.69003295898438 C 303.9916076660156 188.0005340576172 304.08245849609375 191.5612030029297 307.46923828125 201.51304626464844 C 307.5036926269531 200.648193359375 306.0740051269531 198.17498779296875 303.9883117675781 190.5452117919922 C 305.08831787109375 185.96241760253906 303.88641357421875 185.4026641845703 288.7362060546875 176.1778564453125 C 289.6686706542969 194.5728759765625 289.1787414550781 195.972412109375 289.5018615722656 196.28836059570312 C 288.857177734375 189.96871948242188 289.8486633300781 182.29440307617188 287.88409423828125 176.28379821777344 C 272.4020080566406 178.90933227539062 269.3837890625 183.63551330566406 261.8132019042969 179.05941772460938 C 255.25413513183594 183.14260864257812 255.681884765625 187.8792724609375 254.90367126464844 197.4600372314453 C 260.7062683105469 199.34356689453125 260.6072082519531 199.95608520507812 257.7696838378906 199.56304931640625 C 257.1769714355469 198.42282104492188 253.76840209960938 195.57310485839844 254.35101318359375 193.7450408935547 C 255.95265197753906 186.03005981445312 259.87774658203125 183.7229766845703 256.9802551269531 167.81141662597656 C 258.8019104003906 163.35406494140625 216.3876953125 141.93447875976562 213.68597412109375 140.4905242919922 C 186.10833740234375 130.87554931640625 195.4888458251953 103.8321304321289 191.4853515625 86.7573013305664 C 192.16065979003906 84.7083969116211 160.73519897460938 73.63518524169922 133.4104766845703 60.01420974731445 C 109.15050506591797 39.623260498046875 72.00100708007812 56.28727722167969 40.490013122558594 60.63330078125 C 24.894380569458008 70.03330993652344 4.800725936889648 69.30003356933594 -1.097996711730957 69.70905303955078 C 0.34183040261268616 43.958133697509766 -0.3314551115036011 22.56187629699707 -0.019932538270950317 -0.25989267230033875" stroke-width="0.0" fill="url(#shape_2_fill)"/>
    <path d="M 86.6693115234375 60.026607513427734 C 89.20304107666016 68.76275634765625 91.82124328613281 69.01134490966797 93.42671966552734 70.9664077758789 C 91.06542205810547 80.0382080078125 91.58084869384766 81.58308410644531 90.2129135131836 92.22590637207031 C 96.47908020019531 86.28723907470703 98.44770050048828 86.5636978149414 102.9937515258789 87.8712387084961 C 104.67259216308594 75.2166748046875 105.86698913574219 73.38487243652344 108.29511260986328 73.23218536376953 C 112.34333801269531 87.55127716064453 110.76901245117188 93.3775405883789 116.52848052978516 99.31611633300781 C 116.44560241699219 100.05359649658203 116.33246612548828 109.15949249267578 115.53703308105469 115.36731719970703 C 123.73868560791016 115.34253692626953 128.57550048828125 115.73511505126953 129.4501495361328 112.36540222167969 C 130.62289428710938 109.94966888427734 136.6861114501953 108.69181060791016 136.5460968017578 104.70372009277344 C 136.6339874267578 103.67826080322266 135.55328369140625 101.81489562988281 137.28761291503906 98.4059066772461 C 136.48373413085938 93.26775360107422 137.51087951660156 92.89429473876953 137.59007263183594 89.30538177490234 C 137.31640625 84.99497985839844 138.6182861328125 84.91240692138672 139.54490661621094 87.0573501586914 C 140.1559600830078 82.90689849853516 146.72402954101562 80.70903015136719 148.06640625 83.10418701171875 C 148.53147888183594 93.24259948730469 150.1505889892578 94.5484619140625 151.98399353027344 99.10733795166016 C 153.5079803466797 102.9507827758789 149.9175567626953 106.91063690185547 148.8327178955078 106.7226791381836 C 152.59986877441406 109.82129669189453 150.46792602539062 114.1123046875 148.4634552001953 113.41165924072266 C 154.41015625 112.83739471435547 157.90133666992188 122.59305572509766 157.20765686035156 123.28385162353516 C 161.32907104492188 125.04573059082031 165.00917053222656 123.47361755371094 169.63070678710938 122.68706512451172 C 174.3907012939453 119.73009490966797 175.78414916992188 121.51438903808594 177.71530151367188 122.50117492675781 C 179.33120727539062 122.6863021850586 179.98812866210938 125.30010223388672 183.06285095214844 127.64742279052734 C 183.83935546875 130.19894409179688 182.43115234375 133.11183166503906 184.0116424560547 135.2628936767578 C 186.86160278320312 135.23561096191406 187.57275390625 142.54750061035156 188.8567657470703 145.21173095703125 C 195.05709838867188 146.33840942382812 206.70138549804688 154.01422119140625 201.6278839111328 173.00900268554688 C 205.3504180908203 176.40728759765625 205.8515167236328 178.72825622558594 205.44740295410156 181.63990783691406 C 213.63023376464844 181.5095977783203 214.4683380126953 196.08641052246094 212.4408721923828 202.9650421142578 C 205.27174377441406 206.72604370117188 203.29847717285156 207.2363739013672 203.1371307373047 210.254150390625 C 200.75575256347656 210.5222930908203 199.9477996826172 211.6996307373047 200.15933227539062 213.5102996826172 C 196.3251953125 215.25372314453125 193.42807006835938 215.3369903564453 191.97988891601562 219.696044921875 C 184.2803955078125 220.90261840820312 183.5941925048828 224.743408203125 178.53114318847656 230.13262939453125 C 176.4127655029297 233.53956604003906 180.5426483154297 239.11807250976562 181.0677947998047 240.80386352539062 C 182.26153564453125 251.9380645751953 186.0172119140625 261.0403137207031 178.8242950439453 264.94793701171875 C 173.87350463867188 268.24560546875 148.6815643310547 268.3268127441406 136.30209350585938 269.58453369140625 C 132.0121612548828 269.31939697265625 129.023193359375 272.26690673828125 121.92949676513672 275.34271240234375 C 109.13494110107422 276.9126892089844 73.28363037109375 276.0428161621094 73.03707122802734 270.0313720703125 C 47.69654083251953 266.7710266113281 56.55316925048828 268.5697937011719 57.59114074707031 273.5790710449219 C 48.187164306640625 276.3829650878906 1.01827073097229 272.84808349609375 0.7809478044509888 270.017333984375 C -5.627274513244629 224.0831298828125 -4.944337368011475 167.03721618652344 2.276054859161377 121.53728485107422 C 11.426682472229004 118.69266510009766 21.692338943481445 114.0548324584961 26.01938247680664 121.77305603027344 C 27.121492385864258 129.46966552734375 35.66758728027344 129.0542755126953 42.0176887512207 131.94667053222656 C 47.10538101196289 130.17904663085938 47.53196334838867 131.2304229736328 49.462669372558594 142.2232666015625 C 50.30870056152344 148.3914031982422 61.49115753173828 148.67276000976562 62.743080139160156 146.2862091064453 C 62.19505310058594 136.8313446044922 63.073524475097656 133.96559143066406 62.182167053222656 128.2450714111328 C 68.38282012939453 126.70085144042969 67.58787536621094 123.50230407714844 66.32351684570312 112.51861572265625 C 67.96276092529297 111.1421127319336 68.39886474609375 106.13987731933594 75.8661880493164 102.77830505371094 C 74.10107421875 100.84371948242188 78.32887268066406 91.72956085205078 77.23078155517578 85.64155578613281 C 77.19070434570312 83.78831481933594 77.8581771850586 74.8555679321289 85.40699768066406 75.37139892578125 C 82.98248291015625 70.08399963378906 82.73319244384766 67.5382080078125 86.6693115234375 60.026607513427734" stroke-width="0.0" fill="url(#shape_3_fill)"/>
    <path d="M 674.0333251953125 -0.7627582550048828 C 676.1156005859375 47.82694625854492 675.0172119140625 95.90823364257812 680.0755615234375 139.35797119140625 C 677.0885620117188 126.73928833007812 668.9505004882812 123.58885192871094 661.6093139648438 120.28883361816406 C 660.8668823242188 120.06306457519531 655.08447265625 109.38751983642578 649.7896728515625 110.91868591308594 C 648.7787475585938 112.5313720703125 645.1549072265625 149.38385009765625 642.8804931640625 155.6635284423828 C 629.8545532226562 154.58102416992188 626.8032836914062 142.9619140625 627.0630493164062 138.44235229492188 C 623.028564453125 137.42318725585938 618.9517822265625 145.3422088623047 615.4288940429688 144.07571411132812 C 611.6814575195312 142.31570434570312 610.1566772460938 143.3414764404297 607.772216796875 141.0911865234375 C 608.9067993164062 137.87680053710938 612.4705200195312 132.9656524658203 606.7017822265625 119.9622573852539 C 598.2852172851562 133.9195098876953 597.5182495117188 139.31776428222656 594.25244140625 142.69773864746094 C 599.2090454101562 146.8272247314453 597.6154174804688 151.75439453125 597.5 152.18519592285156 C 588.6634521484375 157.55276489257812 587.4248657226562 164.2557830810547 579.22265625 172.29383850097656 C 571.8690795898438 170.3042755126953 569.9172973632812 158.5000457763672 568.7086791992188 157.10809326171875 C 565.7966918945312 157.65513610839844 563.4656982421875 153.6324920654297 561.70166015625 151.65403747558594 C 560.1010131835938 150.6516876220703 556.2183227539062 150.97215270996094 555.8040771484375 156.11936950683594 C 551.9158935546875 156.15310668945312 550.360595703125 158.85101318359375 548.833251953125 158.7038116455078 C 547.5619506835938 156.7025146484375 544.3351440429688 156.3466033935547 536.1679077148438 153.71725463867188 C 531.7904663085938 154.89732360839844 529.9673461914062 158.72744750976562 523.158447265625 156.89279174804688 C 519.1889038085938 160.53729248046875 520.35107421875 162.12753295898438 522.9741821289062 169.34271240234375 C 517.61181640625 168.44410705566406 517.1544189453125 170.90415954589844 516.2896118164062 171.66925048828125 C 511.2713623046875 173.32232666015625 509.8157043457031 175.26531982421875 505.638916015625 174.399169921875 C 502.7731628417969 171.39915466308594 503.0001220703125 169.5205841064453 502.7437744140625 159.0492401123047 C 492.6986389160156 145.37265014648438 507.20257568359375 121.72373962402344 518.2899780273438 126.52717590332031 C 523.7359619140625 125.28507232666016 539.8132934570312 110.28376007080078 548.8045654296875 112.99922180175781 C 557.2297973632812 110.7155990600586 556.905517578125 109.38134765625 558.07958984375 107.38529205322266 C 559.8668823242188 108.42047882080078 564.9248046875 102.75355529785156 570.4669799804688 104.9551010131836 C 574.592041015625 102.4311294555664 573.4290771484375 97.466552734375 578.97900390625 94.11741638183594 C 584.7156372070312 88.48287200927734 596.2678833007812 77.51866912841797 613.43701171875 78.2850570678711 C 616.9098510742188 73.58201599121094 645.06103515625 51.271209716796875 645.2576293945312 35.50926208496094 C 644.9823608398438 32.45109558105469 648.0006103515625 30.393516540527344 647.6617431640625 29.548828125 C 646.9841918945312 28.299850463867188 664.4246215820312 -4.158594608306885 674.0333251953125 -0.7627582550048828" stroke-width="0.0" fill="url(#shape_4_fill)"/>
    <path d="M 151.57601928710938 68.509033203125 C 152.31077575683594 69.05397033691406 186.1542205810547 84.57415008544922 192.6653594970703 92.80103302001953 C 179.30751037597656 117.81861114501953 217.70281982421875 150.06362915039062 220.86045837402344 154.9173583984375 C 238.85809326171875 170.06143188476562 241.9822540283203 184.17535400390625 240.814697265625 193.86390686035156 C 238.11952209472656 193.19918823242188 236.1759033203125 186.50875854492188 236.76988220214844 184.06150817871094 C 235.6822052001953 183.56280517578125 234.1568603515625 184.2993927001953 231.07589721679688 182.70571899414062 C 231.13951110839844 183.95703125 232.1260223388672 194.01515197753906 228.63038635253906 195.668212890625 C 227.5836944580078 196.63555908203125 227.12635803222656 205.3583221435547 221.4044189453125 207.7083740234375 C 215.0787811279297 206.59034729003906 214.31593322753906 197.87156677246094 214.65859985351562 194.87937927246094 C 212.9600830078125 185.43753051757812 211.89688110351562 184.9451141357422 206.51698303222656 177.40000915527344 C 205.82394409179688 173.11322021484375 205.88633728027344 166.3443603515625 204.0726318359375 159.08828735351562 C 206.2675018310547 153.30538940429688 194.84779357910156 144.68519592285156 193.37632751464844 141.20004272460938 C 189.07606506347656 140.24444580078125 188.84890747070312 137.3544464111328 186.61354064941406 135.9229736328125 C 178.36361694335938 133.22518920898438 179.01651000976562 126.87771606445312 183.26773071289062 117.30619812011719 C 179.3900909423828 116.46763610839844 177.39752197265625 117.65467071533203 172.95187377929688 117.76581573486328 C 179.2048797607422 128.0723876953125 175.67640686035156 131.09481811523438 151.8144073486328 130.2999725341797 C 149.46473693847656 127.24927520751953 151.89772033691406 103.02059936523438 153.96981811523438 94.47294616699219 C 152.90499877929688 88.79672241210938 153.41177368164062 86.87418365478516 149.91578674316406 76.30976867675781 C 148.14639282226562 75.91700744628906 148.5999755859375 69.29370880126953 151.57601928710938 68.509033203125" stroke-width="0.0" fill="url(#shape_5_fill)"/>
    <path d="M 611.4495849609375 81.7000961303711 C 618.6758422851562 84.1243896484375 619.6474609375 86.0508804321289 631.1065063476562 85.70862579345703 C 636.109375 86.00375366210938 637.1534423828125 87.90715026855469 641.2066650390625 89.19133758544922 C 642.1557006835938 87.37283325195312 666.9786987304688 92.5115966796875 674.7699584960938 98.25940704345703 C 675.340087890625 110.70079040527344 674.7632446289062 125.94390106201172 675.3505249023438 150.82681274414062 C 665.8174438476562 142.56796264648438 663.063720703125 136.49032592773438 659.4078979492188 130.61282348632812 C 659.593994140625 122.10909271240234 660.349609375 116.50859832763672 652.7372436523438 112.06562042236328 C 646.4588623046875 114.65830993652344 644.6605834960938 142.30612182617188 642.3435668945312 143.0859375 C 643.7554931640625 144.82725524902344 642.6273803710938 148.29847717285156 643.8713989257812 150.45455932617188 C 639.9132080078125 150.7578125 637.8869018554688 152.74607849121094 635.0093994140625 153.1914520263672 C 631.58544921875 146.21383666992188 629.192138671875 141.39401245117188 630.09521484375 140.53311157226562 C 628.8701782226562 137.86663818359375 621.9412231445312 137.18507385253906 620.812255859375 138.74496459960938 C 618.2667846679688 140.57505798339844 619.3583984375 142.36529541015625 618.5872802734375 147.17926025390625 C 614.4849243164062 144.61585998535156 613.524169921875 143.19044494628906 610.1609497070312 143.6478729248047 C 608.5310668945312 140.40625 609.5861206054688 139.24322509765625 609.1765747070312 137.4053192138672 C 606.5499877929688 132.28372192382812 604.9368896484375 126.6533432006836 598.3746948242188 128.17713928222656 C 605.1898193359375 133.7008819580078 595.2406616210938 148.22244262695312 591.7835083007812 155.75650024414062 C 590.4912109375 163.82342529296875 589.13671875 164.04432678222656 585.549560546875 169.12258911132812 C 584.8568725585938 167.5339813232422 583.8782348632812 165.4574432373047 589.895263671875 154.650634765625 C 585.8921508789062 150.03123474121094 580.609375 148.3732452392578 575.5390014648438 146.1573944091797 C 565.5245361328125 156.21231079101562 556.6682739257812 155.30789184570312 556.0492553710938 151.37179565429688 C 555.8436279296875 152.91575622558594 553.0755004882812 154.7076873779297 552.8973388671875 157.7664031982422 C 551.2025756835938 161.64390563964844 548.0281372070312 160.50753784179688 547.3756713867188 159.09352111816406 C 544.4791259765625 156.6097412109375 542.8489379882812 154.32981872558594 537.4943237304688 157.3505859375 C 535.00146484375 158.4938201904297 531.2330932617188 157.52493286132812 528.7628173828125 158.23260498046875 C 526.2097778320312 159.34352111816406 526.4443969726562 162.73362731933594 525.1429443359375 165.87242126464844 C 524.4889526367188 169.41966247558594 523.5308837890625 171.56605529785156 519.0360107421875 173.084716796875 C 511.8221435546875 177.31329345703125 503.3731384277344 173.4686279296875 487.8315734863281 162.65469360351562 C 483.7027282714844 137.85617065429688 501.2630920410156 118.47001647949219 512.9686279296875 118.17240905761719 C 529.519287109375 127.4958267211914 540.482177734375 108.2020263671875 549.821044921875 111.70597076416016 C 555.5404663085938 110.0043716430664 560.4006958007812 109.8121566772461 563.9111328125 106.75360870361328 C 564.6260986328125 104.50618743896484 566.6056518554688 103.6047592163086 569.8848876953125 104.48009490966797 C 574.4119262695312 101.3091049194336 578.5310668945312 97.73682403564453 586.7822265625 99.33807373046875 C 600.2832641601562 93.28543853759766 603.6903076171875 80.08006286621094 611.4495849609375 81.7000961303711" stroke-width="0.0" fill="url(#shape_6_fill)"/>
    <path d="M 1.0848466157913208 105.63792419433594 C 33.59556579589844 115.74504852294922 41.73561096191406 124.6785659790039 51.260799407958984 139.47767639160156 C 80.75313568115234 154.4576416015625 51.670230865478516 214.57034301757812 44.31816864013672 240.400146484375 C 50.4829216003418 260.2305603027344 48.45039367675781 264.6274719238281 48.39478302001953 265.4532165527344 C 47.05448913574219 262.3006591796875 19.986711502075195 257.8410339355469 10.916879653930664 254.17755126953125 C 4.680600643157959 209.32452392578125 -5.454658031463623 167.9908905029297 1.0848466157913208 105.63792419433594" stroke-width="0.0" fill="url(#shape_7_fill)"/>
    <path d="M 385.2584228515625 196.23057556152344 C 421.376708984375 183.30503845214844 427.33575439453125 191.02186584472656 429.6933288574219 204.19854736328125 C 474.5555419921875 190.1474609375 496.30255126953125 204.86717224121094 491.7095642089844 231.8707733154297 C 490.9969787597656 250.48983764648438 486.2306213378906 251.49630737304688 484.8613586425781 252.39703369140625 C 485.9527587890625 258.8744201660156 482.4595947265625 268.9038391113281 476.99212646484375 269.0930480957031 C 469.04290771484375 272.9302978515625 453.2210388183594 266.7112731933594 451.62744140625 269.7127990722656 C 447.0462951660156 266.2818908691406 448.2522277832031 261.21038818359375 449.0436096191406 260.17132568359375 C 439.2544860839844 264.7776184082031 436.5154724121094 261.4167785644531 437.4413757324219 256.8042907714844 C 427.0009460449219 256.8046569824219 425.70806884765625 259.2035827636719 421.1593322753906 262.11566162109375 C 418.5421142578125 264.25140380859375 417.6246032714844 267.68115234375 414.9266052246094 273.2824401855469 C 414.1125183105469 272.6215515136719 392.5726623535156 268.1952819824219 392.5841979980469 264.1810302734375 C 391.8230285644531 265.11004638671875 388.97711181640625 263.3440856933594 385.92572021484375 263.68212890625 C 382.1126708984375 261.9546813964844 380.8192443847656 263.18719482421875 376.509765625 261.0694885253906 C 374.9077453613281 256.3311462402344 376.1092834472656 252.48809814453125 372.3111267089844 249.54248046875 C 359.3439636230469 243.6773223876953 374.1653137207031 195.77830505371094 378.6796569824219 178.20706176757812 C 384.0575256347656 170.82276916503906 393.7598876953125 176.72140502929688 385.2584228515625 196.23057556152344" stroke-width="0.0" fill="url(#shape_8_fill)"/>
    <path d="M 566.2384033203125 157.29254150390625 C 568.281982421875 158.85671997070312 568.1608276367188 166.62254333496094 569.4439086914062 168.00413513183594 C 573.5142211914062 169.4626007080078 573.6651000976562 170.96600341796875 577.5565795898438 174.37948608398438 C 581.931884765625 172.94400024414062 583.973388671875 174.56658935546875 583.7062377929688 179.47303771972656 C 575.34326171875 180.4774169921875 572.0632934570312 225.61631774902344 577.2890625 226.96575927734375 C 577.8942260742188 229.9419403076172 581.2908325195312 235.6656951904297 577.1148071289062 241.595458984375 C 568.7448120117188 238.56106567382812 566.4933471679688 237.18597412109375 558.7096557617188 247.3473358154297 C 554.1244506835938 250.35305786132812 495.5240783691406 254.2604522705078 487.64471435546875 251.6197509765625 C 486.09124755859375 250.21340942382812 486.8797607421875 239.27247619628906 492.11346435546875 229.39561462402344 C 486.4135437011719 226.2854766845703 483.17828369140625 222.30014038085938 481.7724304199219 215.6345977783203 C 476.71905517578125 209.84481811523438 479.3208923339844 205.8408203125 482.764404296875 205.97830200195312 C 480.1023864746094 205.33883666992188 481.51690673828125 198.9937286376953 488.97119140625 198.92434692382812 C 491.959228515625 196.20741271972656 491.8169860839844 192.50343322753906 492.8355407714844 187.91822814941406 C 489.8922424316406 174.1508331298828 490.3045349121094 173.16168212890625 487.6484375 164.52452087402344 C 504.20135498046875 163.35494995117188 505.70074462890625 165.79100036621094 516.9143676757812 164.9890594482422 C 523.0903930664062 169.37782287597656 524.7728881835938 167.2554931640625 525.949462890625 167.58897399902344 C 523.586669921875 161.21871948242188 531.1448364257812 156.12530517578125 533.3052978515625 158.65513610839844 C 537.6193237304688 161.85496520996094 541.3820190429688 162.46871948242188 542.1702270507812 163.97364807128906 C 545.223876953125 164.0706024169922 545.8629760742188 165.81422424316406 549.759033203125 166.6293487548828 C 548.9764404296875 165.6241455078125 551.2279663085938 157.32217407226562 554.599853515625 158.17861938476562 C 557.9786987304688 160.95632934570312 563.0448608398438 157.8550567626953 566.2384033203125 157.29254150390625" stroke-width="0.0" fill="url(#shape_9_fill)"/>
    <path d="M 561.5969848632812 156.66567993164062 C 566.1766967773438 152.9156951904297 571.125732421875 158.36398315429688 570.8978271484375 170.42861938476562 C 572.262939453125 169.17160034179688 576.1506958007812 169.21868896484375 579.4826049804688 174.73040771484375 C 580.6165161132812 178.1170654296875 579.3145141601562 187.4582977294922 577.620361328125 191.5526123046875 C 571.27880859375 196.7484588623047 571.9910278320312 229.97222900390625 578.0778198242188 230.9768829345703 C 576.070068359375 231.159423828125 575.6058349609375 236.8362274169922 572.048095703125 238.02902221679688 C 560.110595703125 235.89906311035156 567.3378295898438 238.64260864257812 563.867431640625 247.90704345703125 C 548.4593505859375 253.41676330566406 501.2868347167969 249.22254943847656 500.18280029296875 251.65310668945312 C 491.0637512207031 251.82217407226562 487.86590576171875 236.993408203125 491.41448974609375 230.00682067871094 C 486.6233215332031 224.92794799804688 481.98358154296875 219.2734832763672 481.6236267089844 215.50314331054688 C 475.5722351074219 214.4091033935547 474.2574157714844 214.3467559814453 464.4453125 197.57191467285156 C 463.95965576171875 187.20657348632812 474.4077453613281 183.2248077392578 483.3294677734375 195.52357482910156 C 489.9194030761719 197.44729614257812 494.4598693847656 184.26235961914062 496.6293640136719 182.95518493652344 C 495.3050231933594 178.85919189453125 497.5856628417969 177.6803741455078 500.171875 177.43460083007812 C 507.9335021972656 179.07847595214844 516.5545043945312 181.67019653320312 520.53515625 174.0500946044922 C 523.5814208984375 173.34291076660156 526.77294921875 159.2260284423828 531.41796875 155.3798065185547 C 537.93359375 156.14601135253906 538.5834350585938 159.9629364013672 540.24951171875 166.05355834960938 C 545.7586669921875 165.9355926513672 549.0545654296875 167.38172912597656 551.3319091796875 166.24720764160156 C 551.0855712890625 155.98052978515625 553.0957641601562 153.05859375 561.5969848632812 156.66567993164062" stroke-width="0.0" fill="url(#shape_10_fill)"/>
    <path d="M 447.6887512207031 107.61082458496094 C 452.8043212890625 110.860107421875 453.9906005859375 112.29718780517578 462.1649169921875 112.0279769897461 C 464.89935302734375 116.92045593261719 469.2909851074219 115.15599822998047 480.4907531738281 112.21134185791016 C 488.5962219238281 124.49412536621094 488.7587585449219 125.25645446777344 492.7374572753906 131.14828491210938 C 493.9719543457031 131.45700073242188 493.32879638671875 134.6114044189453 497.00640869140625 136.35421752929688 C 494.3390808105469 135.58108520507812 492.6956481933594 138.10043334960938 488.9483337402344 141.24388122558594 C 483.00677490234375 137.11041259765625 481.64666748046875 139.00921630859375 477.62310791015625 143.38002014160156 C 467.53106689453125 140.81553649902344 466.16845703125 139.2817840576172 465.6691589355469 134.4086456298828 C 464.5834655761719 133.53021240234375 460.6895446777344 133.5349578857422 460.3203430175781 134.28265380859375 C 461.0517883300781 134.07479858398438 478.233154296875 144.34909057617188 492.3431701660156 153.22984313964844 C 476.4227600097656 176.77005004882812 475.4446105957031 177.2334747314453 472.85760498046875 181.95481872558594 C 467.1819763183594 182.72801208496094 466.7893371582031 187.63131713867188 466.0537109375 189.48135375976562 C 463.3141784667969 184.30282592773438 462.2019958496094 173.1212921142578 458.2870788574219 169.8289337158203 C 448.27593994140625 179.31747436523438 447.4836730957031 182.42616271972656 439.8982849121094 183.08453369140625 C 439.4369201660156 183.8585205078125 435.7837829589844 195.6361083984375 434.8310241699219 197.42274475097656 C 429.7608642578125 200.19140625 417.5306091308594 180.57452392578125 417.7004089355469 179.74693298339844 C 416.93939208984375 179.68560791015625 398.105224609375 179.9141387939453 397.7817077636719 173.12513732910156 C 393.7764587402344 171.0212860107422 389.7958679199219 176.3719024658203 379.64984130859375 174.72276306152344 C 381.74871826171875 160.607666015625 381.2434997558594 148.6177978515625 392.501953125 138.99237060546875 C 397.93353271484375 137.2681121826172 399.5101013183594 129.79586791992188 402.0789794921875 121.28386688232422 C 407.48577880859375 99.13124084472656 426.1744689941406 103.28874969482422 447.6887512207031 107.61082458496094" stroke-width="0.0" fill="url(#shape_11_fill)"/>
    <path d="M 602.9058837890625 127.59614562988281 C 605.7965087890625 130.57565307617188 605.5616455078125 143.56809997558594 607.5208129882812 144.83926391601562 C 611.1962890625 145.50868225097656 611.833984375 148.95462036132812 615.8270874023438 152.73130798339844 C 618.1776123046875 149.87620544433594 618.210693359375 141.80569458007812 621.3889770507812 141.04669189453125 C 623.1484375 137.45440673828125 625.4232177734375 137.41348266601562 627.5640869140625 140.31919860839844 C 627.518798828125 142.15057373046875 628.988037109375 144.75392150878906 628.859375 147.21629333496094 C 632.1080932617188 149.7649688720703 631.7526245117188 151.17068481445312 636.5850830078125 153.4547576904297 C 642.1882934570312 154.7113494873047 641.92431640625 160.44810485839844 646.9898071289062 169.86825561523438 C 639.189208984375 185.0422821044922 640.052978515625 194.90341186523438 640.421630859375 206.62460327148438 C 648.8347778320312 214.9888153076172 650.05419921875 232.15118408203125 642.9281005859375 245.71458435058594 C 623.0753784179688 248.36154174804688 611.6539916992188 249.13018798828125 579.7390747070312 262.4176330566406 C 569.9769287109375 251.07217407226562 575.4597778320312 232.29830932617188 574.8646850585938 217.86911010742188 C 568.1102905273438 209.47323608398438 572.0769653320312 168.9189453125 583.3142700195312 169.80335998535156 C 597.2083129882812 163.3380126953125 599.5360717773438 143.7131805419922 599.9379272460938 142.06492614746094 C 595.7328491210938 139.71261596679688 596.7548217773438 136.85377502441406 602.9058837890625 127.59614562988281" stroke-width="0.0" fill="url(#shape_12_fill)"/>
    <path d="M 410.9814758300781 176.5290069580078 C 420.34027099609375 173.8793487548828 433.01531982421875 213.16958618164062 428.9674377441406 220.45445251464844 C 419.81280517578125 227.78819274902344 426.91552734375 238.00311279296875 429.7961730957031 242.72531127929688 C 430.0206298828125 262.7550048828125 420.8548278808594 266.2371826171875 415.4003601074219 268.58251953125 C 403.5498046875 266.57281494140625 400.634765625 271.5865783691406 390.76385498046875 267.4992980957031 C 385.48370361328125 264.8782043457031 382.491943359375 266.0615539550781 380.05975341796875 265.3774108886719 C 375.4981384277344 263.3617248535156 375.2653503417969 260.66094970703125 375.1376037597656 258.4577941894531 C 376.3788146972656 255.40994262695312 374.7305603027344 254.52857971191406 374.7614440917969 253.47674560546875 C 372.3176574707031 254.79177856445312 370.1640319824219 251.06561279296875 368.59320068359375 251.78811645507812 C 359.97308349609375 248.58352661132812 366.6751708984375 229.6173095703125 367.24932861328125 221.24021911621094 C 369.1759338378906 218.82467651367188 372.2244873046875 202.78314208984375 381.8226318359375 203.19195556640625 C 379.2172546386719 195.8861541748047 379.3393859863281 189.78857421875 389.8699951171875 186.4974822998047 C 391.614013671875 176.98541259765625 392.8748779296875 177.1903533935547 410.9814758300781 176.5290069580078" stroke-width="0.0" fill="url(#shape_13_fill)"/>
    <path d="M 508.59649658203125 66.95227813720703 C 512.6558227539062 65.98851013183594 521.3218994140625 70.09817504882812 523.1832885742188 74.94129180908203 C 530.7431030273438 79.39962005615234 533.8458862304688 80.01069641113281 536.725830078125 90.19454193115234 C 539.2780151367188 90.89859008789062 544.5418701171875 90.29602813720703 545.0235595703125 91.17039489746094 C 545.5360107421875 92.74691009521484 556.1358642578125 96.9044189453125 559.400390625 95.44612121582031 C 563.5104370117188 97.57093048095703 567.3323974609375 97.54249572753906 568.7452392578125 99.18426513671875 C 564.4769287109375 105.26203918457031 556.4349975585938 115.52151489257812 542.1979370117188 110.8775405883789 C 541.3926391601562 111.8394775390625 539.3306884765625 114.9312515258789 534.7791748046875 118.41458892822266 C 528.0281982421875 120.92877960205078 520.0164794921875 124.37379455566406 515.5760498046875 118.65986633300781 C 511.2870788574219 120.33148956298828 501.4754943847656 125.50877380371094 499.1080017089844 125.14954376220703 C 497.1180419921875 128.43397521972656 493.671142578125 128.4326934814453 489.4465637207031 127.36260223388672 C 489.63818359375 120.63994598388672 468.81884765625 118.80652618408203 468.11053466796875 117.80241394042969 C 463.5406494140625 117.7857894897461 462.9356994628906 116.71192932128906 462.1625061035156 115.94171142578125 C 469.6629943847656 117.97452545166016 472.4556884765625 111.31787872314453 477.94970703125 106.70026397705078 C 474.9263000488281 93.09996032714844 473.2678527832031 86.9998779296875 475.05902099609375 82.04131317138672 C 474.5901184082031 70.93401336669922 475.34326171875 70.38639831542969 478.2887878417969 66.43317413330078 C 478.8693542480469 64.09577941894531 482.63775634765625 64.11902618408203 484.45654296875 63.19362258911133 C 495.8716735839844 64.18461608886719 502.0190124511719 61.17768859863281 508.59649658203125 66.95227813720703" stroke-width="0.0" fill="url(#shape_14_fill)"/>
    <path d="M 532.864990234375 160.4646759033203 C 543.8840942382812 162.6987762451172 544.1716918945312 163.5778045654297 547.0030517578125 165.11756896972656 C 549.6758422851562 167.63626098632812 549.579345703125 170.2558135986328 544.1279907226562 179.68544006347656 C 541.935546875 189.81602478027344 536.8995971679688 231.24534606933594 536.5189208984375 233.40528869628906 C 540.6483154296875 237.5214385986328 541.04931640625 250.95449829101562 515.8092651367188 252.3196258544922 C 502.52655029296875 251.37342834472656 483.45562744140625 243.9409637451172 487.8564453125 230.33290100097656 C 476.71600341796875 218.49632263183594 478.452880859375 208.06253051757812 482.8350830078125 201.4679718017578 C 486.903564453125 196.9612579345703 487.88555908203125 197.80215454101562 489.05718994140625 198.4624481201172 C 482.94451904296875 195.72654724121094 488.6061096191406 182.34585571289062 487.7584533691406 172.81072998046875 C 487.030029296875 167.65042114257812 489.02886962890625 166.1947784423828 491.7910461425781 166.81883239746094 C 505.6151123046875 178.82594299316406 511.1443786621094 184.1781768798828 522.734130859375 172.72979736328125 C 525.5528564453125 170.9603271484375 525.542236328125 167.31167602539062 526.9148559570312 165.13076782226562 C 525.833251953125 159.06861877441406 528.7486572265625 158.10153198242188 532.864990234375 160.4646759033203" stroke-width="0.0" fill="url(#shape_15_fill)"/>
    <path d="M 651.8070678710938 109.95787048339844 C 653.9771728515625 110.46666717529297 663.5848999023438 121.75546264648438 659.9931640625 131.7761688232422 C 664.2127685546875 135.8466339111328 664.6072387695312 142.7349090576172 673.2674560546875 148.3148956298828 C 677.146484375 178.69602966308594 673.5902709960938 211.32888793945312 675.1898193359375 263.6147155761719 C 674.1234130859375 261.8630676269531 639.4057006835938 269.311279296875 633.8756713867188 260.1464538574219 C 637.78564453125 245.9019012451172 642.0191650390625 123.85010528564453 651.8070678710938 109.95787048339844" stroke-width="0.0" fill="url(#shape_16_fill)"/>
    <path d="M 601.146728515625 129.7171173095703 C 603.2769165039062 128.26107788085938 606.7783203125 131.98988342285156 606.2542724609375 134.0533447265625 C 608.4544067382812 135.0356903076172 607.163330078125 140.86892700195312 609.458251953125 143.543701171875 C 627.7781982421875 142.8863983154297 630.5760498046875 219.21730041503906 632.4476928710938 262.5445556640625 C 587.5391235351562 267.0755310058594 576.8831176757812 259.43994140625 579.672607421875 237.9859161376953 C 562.8901977539062 226.39524841308594 597.971435546875 154.7722625732422 601.146728515625 129.7171173095703" stroke-width="0.0" fill="url(#shape_17_fill)"/>
    <path d="M 320.54412841796875 186.3130645751953 C 320.8309326171875 186.5234832763672 322.54931640625 189.47845458984375 320.4536437988281 198.34080505371094 C 332.8413391113281 193.85760498046875 334.4006042480469 193.11802673339844 337.3563537597656 196.29530334472656 C 342.4810485839844 200.39007568359375 346.076416015625 197.7699432373047 353.6513977050781 193.17286682128906 C 358.4546813964844 193.7056121826172 359.0216369628906 194.5650177001953 356.9112548828125 201.63653564453125 C 359.36651611328125 204.1180877685547 361.48876953125 204.2902374267578 363.2882385253906 209.0956268310547 C 367.275390625 207.1274871826172 368.4981384277344 208.22314453125 368.1295166015625 211.83364868164062 C 370.54095458984375 219.9609375 370.3672790527344 223.05369567871094 365.8623046875 226.1361083984375 C 366.34423828125 231.56455993652344 364.4740905761719 236.02012634277344 366.6385803222656 248.44598388671875 C 369.1759948730469 252.12644958496094 366.53863525390625 256.1702575683594 358.02764892578125 254.68319702148438 C 354.4794616699219 255.69444274902344 328.6143493652344 254.9221954345703 322.6953125 255.3477783203125 C 313.3746032714844 255.96234130859375 312.14532470703125 253.60125732421875 307.8161926269531 242.9174041748047 C 304.33721923828125 229.9258270263672 321.0874328613281 194.70010375976562 320.54412841796875 186.3130645751953" stroke-width="0.0" fill="url(#shape_18_fill)"/>
    <path d="M 478.3582458496094 218.9359130859375 C 498.19610595703125 249.61802673339844 509.6185302734375 262.3470764160156 491.3458251953125 278.79119873046875 C 470.71923828125 279.2158508300781 443.99658203125 261.4705505371094 442.1300964355469 261.7512512207031 C 438.6750183105469 260.6058654785156 437.14166259765625 258.24859619140625 432.55194091796875 258.115478515625 C 429.387939453125 258.6335144042969 428.0982971191406 256.8229064941406 428.7879943847656 253.84092712402344 C 431.2652893066406 237.47911071777344 422.2884521484375 233.10377502441406 422.953125 229.7012939453125 C 423.13623046875 226.91488647460938 421.1212158203125 226.6881561279297 420.1943054199219 225.0927734375 C 427.75726318359375 219.56837463378906 429.6912841796875 218.82945251464844 428.6941223144531 215.1790313720703 C 438.3313293457031 197.5720977783203 475.51123046875 198.044677734375 478.3582458496094 218.9359130859375" stroke-width="0.0" fill="url(#shape_19_fill)"/>
    <path d="M 673.9054565429688 -2.9983885288238525 C 675.0646362304688 32.8516960144043 674.5833740234375 64.76380157470703 674.392333984375 97.13131713867188 C 669.5865478515625 96.10401153564453 652.8622436523438 87.82588195800781 644.444580078125 90.07360076904297 C 638.6085205078125 89.5469970703125 638.1383666992188 85.98050689697266 637.493896484375 84.36382293701172 C 626.210205078125 84.40663146972656 619.7122802734375 92.76981353759766 607.992431640625 86.77322387695312 C 610.2444458007812 74.76122283935547 613.1967163085938 73.71537017822266 614.663818359375 71.74398040771484 C 622.52978515625 68.68226623535156 648.6603393554688 25.155202865600586 647.2822265625 21.5352840423584 C 655.2601928710938 9.419766426086426 656.513671875 3.395998001098633 668.4884033203125 3.757093667984009 C 669.8117065429688 2.6805942058563232 670.1295166015625 1.0928986072540283 673.9054565429688 -2.9983885288238525" stroke-width="0.0" fill="url(#shape_20_fill)"/>
    <path d="M 562.0165405273438 155.95257568359375 C 569.8325805664062 156.5272979736328 569.8660888671875 162.04676818847656 573.9102783203125 165.2900390625 C 584.7200317382812 168.31422424316406 575.2644653320312 231.22195434570312 577.2222900390625 240.72958374023438 C 576.6373291015625 244.84739685058594 575.6316528320312 246.94358825683594 576.5874633789062 260.6192932128906 C 553.4302368164062 256.2881164550781 542.663818359375 253.4268798828125 540.0787353515625 246.31765747070312 C 544.4600830078125 244.71932983398438 542.00390625 166.07156372070312 555.052734375 157.56826782226562 C 555.479248046875 153.2899627685547 558.8919067382812 152.35694885253906 562.0165405273438 155.95257568359375" stroke-width="0.0" fill="url(#shape_21_fill)"/>
    <path d="M 215.12725830078125 209.86927795410156 C 233.57766723632812 209.12217712402344 234.9402618408203 240.3356475830078 220.32373046875 255.83543395996094 C 211.78594970703125 263.2845153808594 209.90858459472656 264.45904541015625 209.01014709472656 273.1877136230469 C 205.92189025878906 275.36920166015625 206.80538940429688 277.1260986328125 206.5641326904297 280.2991638183594 C 206.8568115234375 283.0310974121094 203.65524291992188 285.5770263671875 200.8683624267578 284.95928955078125 C 200.53102111816406 283.39190673828125 190.3881072998047 272.98004150390625 188.0868682861328 264.9468078613281 C 186.54112243652344 261.6969909667969 183.64854431152344 262.52362060546875 181.5056915283203 262.34954833984375 C 180.78726196289062 260.6241760253906 180.04029846191406 260.5244445800781 178.71763610839844 253.4008026123047 C 179.0047149658203 248.4765167236328 168.90167236328125 242.6284637451172 170.82054138183594 238.37355041503906 C 175.84442138671875 213.18154907226562 177.36993408203125 213.3275146484375 185.65420532226562 220.6108856201172 C 193.8809814453125 219.26119995117188 194.240478515625 215.3765106201172 198.53550720214844 213.4107208251953 C 186.41775512695312 206.89779663085938 185.34811401367188 201.9047393798828 198.1008758544922 197.49240112304688 C 213.61546325683594 196.0444793701172 214.48825073242188 200.4984588623047 215.12725830078125 209.86927795410156" stroke-width="0.0" fill="url(#shape_22_fill)"/>
    <path d="M 111.58137512207031 426.34893798828125 C 112.72774505615234 429.2787170410156 111.00547790527344 431.1912841796875 110.66433715820312 431.5625915527344 C 104.4167251586914 432.9617614746094 103.49742889404297 433.8451843261719 91.89044189453125 432.9685974121094 C 89.7633285522461 435.9657287597656 95.67970275878906 446.421630859375 91.62250518798828 452.1399841308594 C 78.66380310058594 444.9972229003906 46.938175201416016 447.9271240234375 25.04644775390625 449.638427734375 C 14.016386032104492 446.2505187988281 13.882518768310547 439.7719421386719 17.938947677612305 436.36004638671875 C 34.44980239868164 427.6651916503906 50.356544494628906 426.9117126464844 71.17302703857422 427.1342468261719 C 73.97132110595703 424.2457580566406 110.34241485595703 420.2075500488281 111.58137512207031 426.34893798828125" stroke-width="0.0" fill="url(#shape_23_fill)"/>
    <path d="M 194.31039428710938 123.67244720458984 C 200.1324462890625 124.68994903564453 210.55352783203125 144.75381469726562 214.5316619873047 145.16758728027344 C 215.6327362060547 148.12171936035156 218.55160522460938 149.7057647705078 220.31211853027344 153.71096801757812 C 227.1752166748047 158.44851684570312 248.07374572753906 178.0680389404297 244.71315002441406 199.36209106445312 C 239.25706481933594 199.5215301513672 235.67214965820312 186.8330841064453 232.2498779296875 179.87327575683594 C 234.89125061035156 187.01443481445312 233.29766845703125 195.95179748535156 230.68505859375 197.0554962158203 C 226.77264404296875 197.9449462890625 226.04763793945312 203.29931640625 220.34532165527344 208.55575561523438 C 215.21902465820312 207.64939880371094 213.62368774414062 199.0753936767578 213.80145263671875 196.0314178466797 C 212.67591857910156 189.63018798828125 212.55368041992188 183.18370056152344 206.6006622314453 178.14828491210938 C 203.9509735107422 174.02931213378906 205.02880859375 173.0246124267578 205.51559448242188 167.612060546875 C 202.88075256347656 147.55169677734375 199.45077514648438 147.00872802734375 192.5928497314453 144.01475524902344 C 189.27313232421875 142.31658935546875 191.24533081054688 128.42098999023438 194.31039428710938 123.67244720458984" stroke-width="0.0" fill="url(#shape_24_fill)"/>
    <path d="M 595.7771606445312 409.74530029296875 C 598.4728393554688 410.8424987792969 626.97216796875 408.3671875 629.310546875 414.73468017578125 C 628.86181640625 421.1609802246094 627.0493774414062 425.3155517578125 628.8765258789062 426.6518249511719 C 630.5374145507812 427.8516540527344 635.9605102539062 428.0483093261719 639.6234741210938 436.9112548828125 C 617.7579345703125 447.1616516113281 577.7642822265625 439.6390075683594 572.7021484375 434.8593444824219 C 567.6968994140625 427.0726013183594 573.9299926757812 419.6061096191406 576.5131225585938 413.8202209472656 C 579.5371704101562 409.4106140136719 587.2276611328125 413.75848388671875 595.7771606445312 409.74530029296875" stroke-width="0.0" fill="url(#shape_25_fill)"/>
    <path d="M 142.91111755371094 66.72116088867188 C 144.07640075683594 68.94001770019531 149.16944885253906 68.29598236083984 149.63009643554688 69.13790130615234 C 148.90283203125 70.8994140625 150.46481323242188 71.82357788085938 149.75918579101562 73.8712387084961 C 151.0753631591797 74.44959259033203 150.13148498535156 78.43179321289062 150.4811248779297 80.50621795654297 C 152.15306091308594 89.46537017822266 152.85989379882812 97.66244506835938 153.93777465820312 104.10294342041016 C 153.514404296875 107.62064361572266 155.1156005859375 108.51885986328125 155.1612091064453 111.44913482666016 C 158.14158630371094 123.42721557617188 155.35594177246094 133.5146942138672 150.40711975097656 133.58009338378906 C 143.05984497070312 126.82714080810547 137.29757690429688 120.09441375732422 125.99456024169922 117.0794906616211 C 122.53168487548828 114.22764587402344 124.56321716308594 109.65377807617188 126.73585510253906 106.87716674804688 C 128.81771850585938 106.84539794921875 128.87362670898438 105.27980041503906 132.65130615234375 104.70263671875 C 138.50747680664062 96.75143432617188 134.956787109375 92.87034606933594 133.1619110107422 89.69681549072266 C 134.1698455810547 88.7698745727539 139.32083129882812 87.3326416015625 140.1178436279297 85.34803771972656 C 138.09674072265625 84.74811553955078 138.6882781982422 77.64464569091797 139.49282836914062 77.47823333740234 C 143.5736846923828 76.59720611572266 142.66514587402344 70.33457946777344 142.91111755371094 66.72116088867188" stroke-width="0.0" fill="url(#shape_26_fill)"/>
    <path d="M 140.59280395507812 67.9402847290039 C 148.884521484375 67.0516586303711 149.86000061035156 68.27396392822266 148.64242553710938 76.75579071044922 C 150.62681579589844 78.13166046142578 151.1153106689453 80.63739776611328 154.51454162597656 85.17915344238281 C 150.3527069091797 90.68043518066406 154.5389862060547 94.54867553710938 151.6789093017578 105.00006103515625 C 152.97421264648438 105.81343841552734 153.43447875976562 109.29853820800781 155.5067596435547 113.09860229492188 C 152.7061004638672 116.67375946044922 158.03753662109375 122.04904174804688 154.52874755859375 126.1290054321289 C 152.5850830078125 132.0317840576172 151.3340301513672 133.17144775390625 147.46522521972656 133.96859741210938 C 141.847900390625 131.39492797851562 127.57144165039062 121.31946563720703 129.81869506835938 118.10763549804688 C 124.47943115234375 118.76678466796875 122.62052917480469 113.88150024414062 128.14418029785156 110.41101837158203 C 123.12403869628906 108.32122802734375 124.24458312988281 105.01024627685547 133.38888549804688 107.15581512451172 C 136.31552124023438 105.70674896240234 133.8546142578125 92.53611755371094 133.5349884033203 89.26274871826172 C 139.5545196533203 87.43000793457031 138.8776397705078 84.93029022216797 138.68101501464844 81.52129364013672 C 139.07766723632812 77.51435852050781 140.36590576171875 76.81536102294922 142.1167449951172 77.68907928466797 C 145.60354614257812 72.57396697998047 142.61709594726562 70.45220184326172 140.59280395507812 67.9402847290039" stroke-width="0.0" fill="url(#shape_27_fill)"/>
    <path d="M -0.3281196057796478 -0.27179163694381714 C 4.705150127410889 0.38232797384262085 9.655555725097656 -0.5268638134002686 19.56970977783203 -0.8926833868026733 C 24.908649444580078 -0.7786163091659546 25.061702728271484 0.0876598060131073 44.6132926940918 5.225020408630371 C 40.12904739379883 25.66006088256836 28.1698055267334 25.681943893432617 27.220291137695312 23.4617862701416 C 46.9429931640625 18.623151779174805 54.9880256652832 18.423301696777344 56.62175369262695 49.35276794433594 C 37.80694580078125 51.368499755859375 29.327611923217773 51.830596923828125 18.743471145629883 48.17067337036133 C 14.164090156555176 39.579872131347656 11.274944305419922 38.4376220703125 9.981270790100098 33.62345886230469 C 9.999876022338867 35.86530685424805 14.47946548461914 39.29695129394531 14.763883590698242 41.02352523803711 C 15.926002502441406 42.21763229370117 15.575566291809082 45.0131950378418 18.21097755432129 47.85280227661133 C 20.07621955871582 51.07032775878906 18.76107406616211 52.307498931884766 20.91157341003418 57.19914245605469 C 21.147323608398438 64.3498306274414 15.496622085571289 66.18672943115234 8.647459030151367 61.369773864746094 C 5.496371746063232 60.88475799560547 3.534534454345703 59.140869140625 0.32371267676353455 59.43424987792969 C -0.31782153248786926 39.78020477294922 -0.32486289739608765 19.628461837768555 -0.3281196057796478 -0.27179163694381714" stroke-width="0.0" fill="url(#shape_28_fill)"/>
    <path d="M 299.240966796875 197.2045440673828 C 297.8789367675781 199.53326416015625 299.75201416015625 202.47398376464844 301.5455627441406 207.99488830566406 C 299.23065185546875 212.8171844482422 324.2327880859375 226.37583923339844 316.1745910644531 255.29942321777344 C 311.7730407714844 254.37107849121094 310.510498046875 255.76060485839844 304.5105895996094 254.99864196777344 C 301.9884033203125 258.1774597167969 294.4136657714844 258.3938903808594 280.8605041503906 256.0333251953125 C 278.81231689453125 226.20384216308594 284.60870361328125 218.58912658691406 299.240966796875 197.2045440673828" stroke-width="0.0" fill="url(#shape_29_fill)"/>
    <path d="M 0.002281307941302657 -0.07677635550498962 C 4.509420871734619 0.44353505969047546 9.661087989807129 -0.4142310917377472 14.615121841430664 0.11973290890455246 C 15.812539100646973 0.48815929889678955 16.41414451599121 4.517796039581299 16.37062644958496 8.04153823852539 C 18.871328353881836 10.878233909606934 21.870515823364258 18.935501098632812 27.175722122192383 20.672460556030273 C 27.139286041259766 22.502248764038086 24.212074279785156 26.734376907348633 24.61188316345215 32.05799865722656 C 20.147153854370117 32.21197509765625 13.476505279541016 30.155420303344727 6.419272422790527 33.824668884277344 C 9.049375534057617 35.92550277709961 8.777359008789062 38.75227355957031 10.892960548400879 40.45600128173828 C 10.091135025024414 44.31855773925781 7.680287837982178 50.010459899902344 11.615616798400879 53.82482147216797 C 17.711946487426758 51.36914825439453 19.51166534423828 51.88861846923828 18.283998489379883 58.431304931640625 C 11.327392578125 60.66669464111328 9.410725593566895 62.6236457824707 0.1972263902425766 61.4542121887207 C -0.4212111830711365 39.96769332885742 -0.35450902581214905 19.75497817993164 0.002281307941302657 -0.07677635550498962" stroke-width="0.0" fill="url(#shape_30_fill)"/>
    <path d="M 548.03515625 70.3502426147461 C 545.9938354492188 77.63671112060547 576.5933837890625 89.62154388427734 581.426025390625 91.69451141357422 C 580.8643188476562 92.7030029296875 577.2969360351562 93.30193328857422 577.0194702148438 98.21866607666016 C 573.2699584960938 100.71515655517578 572.0711059570312 99.80619049072266 569.2510375976562 100.02842712402344 C 567.4600219726562 95.36810302734375 545.943603515625 97.05628204345703 538.6387939453125 88.36357116699219 C 538.57421875 85.43904876708984 537.8262329101562 83.11348724365234 535.7095947265625 82.3331298828125 C 534.6099243164062 79.762451171875 528.0238647460938 79.63294219970703 527.1442260742188 78.3662338256836 C 525.2546997070312 75.80557250976562 527.7777709960938 70.84880065917969 531.8895263671875 68.84577941894531 C 538.8109130859375 67.1100082397461 542.5704956054688 71.58924865722656 548.03515625 70.3502426147461" stroke-width="0.0" fill="url(#shape_31_fill)"/>
    <path d="M 447.12982177734375 264.4270935058594 C 450.6712951660156 265.2693176269531 451.29620361328125 266.7265625 455.86962890625 267.7237243652344 C 460.5113830566406 267.6551208496094 465.32232666015625 270.3759765625 469.9327392578125 273.1531677246094 C 470.4324951171875 275.6325988769531 471.8279724121094 276.89019775390625 471.6768798828125 280.76605224609375 C 451.5420227050781 287.9317626953125 430.12066650390625 284.12530517578125 415.89605712890625 285.17181396484375 C 413.44970703125 273.9068298339844 415.10528564453125 272.3385009765625 415.60888671875 268.2094421386719 C 418.1906433105469 267.2078552246094 417.7710876464844 264.80389404296875 419.35784912109375 263.10986328125 C 437.568359375 253.3256378173828 446.28887939453125 253.70700073242188 447.12982177734375 264.4270935058594" stroke-width="0.0" fill="url(#shape_32_fill)"/>
    <path d="M 272.4847106933594 192.46878051757812 C 275.94140625 192.1894073486328 286.4703063964844 243.6848907470703 281.4171447753906 245.3275146484375 C 279.471435546875 247.54620361328125 273.8858642578125 246.82302856445312 269.6158142089844 248.68190002441406 C 266.364990234375 246.063232421875 266.71630859375 242.1666259765625 261.1888732910156 240.6537628173828 C 254.2937774658203 209.7268829345703 262.37164306640625 206.6909637451172 272.4847106933594 192.46878051757812" stroke-width="0.0" fill="url(#shape_33_fill)"/>
    <path d="M 265.4632873535156 414.05621337890625 C 263.1263732910156 424.5202331542969 265.136962890625 430.5336608886719 267.78118896484375 440.8808288574219 C 262.17742919921875 440.44525146484375 261.0887451171875 446.6213073730469 257.3493347167969 447.8492126464844 C 245.8118438720703 445.8106384277344 217.01202392578125 448.39556884765625 212.54623413085938 444.8273620605469 C 213.02418518066406 436.99578857421875 213.95974731445312 436.2222900390625 215.9811553955078 434.549560546875 C 216.2661590576172 433.4756774902344 225.03990173339844 433.58740234375 226.65135192871094 430.4903259277344 C 228.36843872070312 419.55706787109375 238.51902770996094 419.8278503417969 265.4632873535156 414.05621337890625" stroke-width="0.0" fill="url(#shape_34_fill)"/>
    <path d="M 105.90543365478516 69.82679748535156 C 109.91755676269531 69.70056915283203 111.24195861816406 79.22344207763672 112.50442504882812 85.06404876708984 C 117.37910461425781 86.13154602050781 117.23920440673828 110.27210235595703 117.89300537109375 110.77447509765625 C 116.77653503417969 112.60785675048828 110.92391204833984 114.41674041748047 106.8912124633789 124.47879028320312 C 104.67263793945312 117.19284057617188 96.50898742675781 118.82234954833984 89.56990051269531 111.48013305664062 C 88.05602264404297 85.66560363769531 105.75173950195312 84.59068298339844 105.90543365478516 69.82679748535156" stroke-width="0.0" fill="url(#shape_35_fill)"/>
    <path d="M 451.30987548828125 178.39657592773438 C 453.33929443359375 176.3981475830078 456.4305114746094 177.65647888183594 455.4669189453125 180.2710723876953 C 456.1395568847656 180.76263427734375 455.59375 185.2500762939453 456.48828125 185.94216918945312 C 455.9297180175781 188.58932495117188 458.9820861816406 194.1983642578125 459.5203857421875 204.3319549560547 C 459.32757568359375 208.46922302246094 451.60198974609375 209.39935302734375 446.0690612792969 204.41319274902344 C 441.8155517578125 207.3889923095703 440.7691955566406 208.7534942626953 433.230712890625 210.94920349121094 C 434.90716552734375 209.92068481445312 437.02655029296875 189.2014923095703 438.2655944824219 178.65660095214844 C 440.537353515625 179.28579711914062 443.9002380371094 181.46908569335938 446.5796813964844 180.8233184814453 C 447.77691650390625 179.3807373046875 450.1048583984375 179.59347534179688 451.30987548828125 178.39657592773438" stroke-width="0.0" fill="url(#shape_36_fill)"/>
    <path d="M 557.2236938476562 84.28578186035156 C 561.7127685546875 80.90889739990234 578.500244140625 82.7148208618164 580.0537719726562 85.8644027709961 C 581.3699951171875 83.81266021728516 586.3067626953125 85.63643646240234 587.3880004882812 88.7623062133789 C 596.170166015625 101.43952941894531 588.2227783203125 109.1722640991211 574.3739013671875 100.41152954101562 C 573.7862548828125 99.47875213623047 552.649169921875 96.17340087890625 544.0173950195312 85.51079559326172 C 538.4940795898438 85.60619354248047 537.8560180664062 82.17619323730469 535.9896850585938 80.18226623535156 C 542.9279174804688 74.8590316772461 547.4263305664062 78.60436248779297 557.2236938476562 84.28578186035156" stroke-width="0.0" fill="url(#shape_37_fill)"/>
    <path d="M 251.8196258544922 208.03724670410156 C 265.43115234375 211.8341064453125 261.5183410644531 238.8964385986328 260.12286376953125 247.66070556640625 C 259.50445556640625 254.59576416015625 251.03146362304688 254.5811309814453 249.4862060546875 257.4219665527344 C 234.5093994140625 237.2988739013672 240.9878387451172 214.6077423095703 251.8196258544922 208.03724670410156" stroke-width="0.0" fill="url(#shape_38_fill)"/>
    <path d="M 443.0567626953125 263.40936279296875 C 446.0381774902344 263.419677734375 449.1784362792969 266.5822448730469 447.8141174316406 270.0667724609375 C 444.5091552734375 270.3824462890625 442.65179443359375 277.2098693847656 440.85028076171875 278.5842590332031 C 439.4358825683594 286.21966552734375 425.80035400390625 285.0640563964844 418.0689697265625 276.0616760253906 C 414.52337646484375 276.79541015625 413.3428955078125 274.36334228515625 416.1138916015625 271.6435546875 C 415.1868591308594 269.9453125 419.24822998046875 262.1782531738281 426.01409912109375 258.2154235839844 C 426.6338806152344 256.6130065917969 438.72637939453125 257.9727478027344 443.0567626953125 263.40936279296875" stroke-width="0.0" fill="url(#shape_39_fill)"/>
    <path d="M 407.7149963378906 409.8174743652344 C 408.67388916015625 409.89154052734375 416.77984619140625 419.05914306640625 413.751220703125 424.22607421875 C 399.3607482910156 436.0066223144531 386.2132263183594 420.3093566894531 376.6018981933594 420.85589599609375 C 371.0881042480469 417.9563293457031 371.2376403808594 416.5549011230469 372.6031799316406 410.3770751953125 C 375.05096435546875 401.0656433105469 394.1642150878906 403.9146728515625 407.7149963378906 409.8174743652344" stroke-width="0.0" fill="url(#shape_40_fill)"/>
    <path d="M 66.43844604492188 427.5518798828125 C 67.33284759521484 429.06512451171875 64.56304931640625 433.85028076171875 58.808685302734375 435.5718078613281 C 57.41159439086914 436.6634216308594 39.60605239868164 436.2867431640625 31.859027862548828 442.7653503417969 C 29.31842041015625 443.5477294921875 27.46946907043457 444.03125 17.256778717041016 442.9970703125 C 16.44322395324707 440.6491394042969 17.83591079711914 439.2071533203125 17.320241928100586 437.8395690917969 C 35.07331466674805 427.29168701171875 54.25532150268555 427.9254455566406 66.43844604492188 427.5518798828125" stroke-width="0.0" fill="url(#shape_41_fill)"/>
    <path d="M 278.4002380371094 381.0306396484375 C 284.6661376953125 381.2262268066406 297.9073486328125 381.2004089355469 305.7968444824219 385.4910888671875 C 297.2076110839844 394.8865966796875 299.3193054199219 400.9873962402344 294.4225158691406 405.1072082519531 C 291.7437438964844 399.8800964355469 266.0589294433594 405.766357421875 258.9900817871094 407.2140197753906 C 248.8289337158203 403.625732421875 245.31321716308594 394.3749084472656 247.36680603027344 383.0356750488281 C 260.90478515625 380.9172058105469 267.366455078125 381.9808044433594 278.4002380371094 381.0306396484375" stroke-width="0.0" fill="url(#shape_42_fill)"/>
    <path d="M 222.6102752685547 212.43756103515625 C 223.90696716308594 211.56150817871094 236.98048400878906 211.1217803955078 239.252685546875 214.05372619628906 C 242.30775451660156 221.13827514648438 247.1305694580078 240.7899627685547 252.3536376953125 268.5677185058594 C 250.45523071289062 273.30010986328125 241.8700408935547 272.7956237792969 209.23570251464844 272.3951721191406 C 207.20535278320312 266.346435546875 205.29266357421875 254.09519958496094 216.69769287109375 247.81898498535156 C 219.368896484375 246.46853637695312 218.17730712890625 226.4243621826172 222.6102752685547 212.43756103515625" stroke-width="0.0" fill="url(#shape_43_fill)"/>
    <path d="M 483.6604309082031 395.9179382324219 C 486.79925537109375 399.8080749511719 485.80633544921875 400.9820251464844 483.4966735839844 401.0953369140625 C 472.5690002441406 407.16021728515625 451.1646423339844 406.79412841796875 450.2553405761719 407.6377258300781 C 448.1065979003906 404.4161071777344 451.61181640625 396.175537109375 453.6250915527344 396.5108947753906 C 464.3486022949219 393.15753173828125 472.1846008300781 392.5431823730469 483.6604309082031 395.9179382324219" stroke-width="0.0" fill="url(#shape_44_fill)"/>
    <path d="M 45.819679260253906 408.061767578125 C 45.344337463378906 408.59344482421875 35.76375198364258 411.6272277832031 33.635765075683594 413.0626525878906 C 32.6837158203125 414.50946044921875 32.16793441772461 415.9057312011719 28.258363723754883 414.9962463378906 C 27.430313110351562 417.05426025390625 24.88859748840332 417.7962951660156 21.51776885986328 420.5143127441406 C 18.42447853088379 420.2013854980469 0.07856763899326324 417.27813720703125 -0.7425687909126282 420.5107421875 C 1.8259661197662354 419.59136962890625 -0.8280245661735535 411.1801452636719 0.8645381331443787 410.2712097167969 C 7.044625282287598 409.41412353515625 45.457862854003906 406.4430236816406 45.819679260253906 408.061767578125" stroke-width="0.0" fill="url(#shape_45_fill)"/>
    <path d="M 452.1334228515625 175.01077270507812 C 453.97216796875 175.02256774902344 464.66162109375 198.7967071533203 466.1722106933594 199.46690368652344 C 462.6178894042969 209.49021911621094 451.5792541503906 209.37525939941406 449.4679870605469 206.6092071533203 C 448.3212585449219 203.25450134277344 449.02783203125 198.31617736816406 448.8505554199219 195.29940795898438 C 447.9557800292969 194.55824279785156 447.59588623046875 192.11849975585938 448.51416015625 188.01300048828125 C 451.01226806640625 186.6497802734375 450.6748352050781 182.95401000976562 452.1334228515625 175.01077270507812" stroke-width="0.0" fill="url(#shape_46_fill)"/>
    <path d="M 372.7807922363281 184.86407470703125 C 378.9485168457031 196.5888214111328 380.3946533203125 202.7986297607422 371.4449768066406 205.90902709960938 C 365.8646545410156 206.8216094970703 364.772216796875 204.8577117919922 361.9923400878906 205.37901306152344 C 342.46710205078125 209.6614532470703 339.6106262207031 201.48085021972656 353.7578125 188.60630798339844 C 356.6665954589844 184.9729766845703 358.3714294433594 184.41163635253906 368.1272888183594 185.4441680908203 C 368.954345703125 183.23048400878906 372.2912292480469 183.76686096191406 372.7807922363281 184.86407470703125" stroke-width="0.0" fill="url(#shape_47_fill)"/>
    <path d="M 471.67529296875 263.7737731933594 C 474.84173583984375 267.6517333984375 480.6000671386719 269.597900390625 480.6833190917969 284.4615173339844 C 464.77899169921875 287.3811950683594 450.7694396972656 286.8172912597656 444.09246826171875 284.92010498046875 C 439.33258056640625 282.2144775390625 440.0038757324219 276.95806884765625 441.1556091308594 276.43817138671875 C 448.9258117675781 266.6380615234375 454.9066467285156 262.6151123046875 471.67529296875 263.7737731933594" stroke-width="0.0" fill="url(#shape_48_fill)"/>
    <path d="M 177.2091064453125 117.19743347167969 C 177.99649047851562 115.52275848388672 181.77593994140625 116.17890167236328 182.6861114501953 117.31373596191406 C 184.6782989501953 120.26018524169922 183.84963989257812 122.35273742675781 184.75509643554688 122.96829986572266 C 179.56748962402344 126.64624786376953 185.8566436767578 136.56643676757812 182.85223388671875 139.54884338378906 C 181.56991577148438 146.6236114501953 172.81866455078125 146.2411651611328 171.99656677246094 146.7794952392578 C 171.71185302734375 127.03416442871094 170.79232788085938 124.5904541015625 177.2091064453125 117.19743347167969" stroke-width="0.0" fill="url(#shape_49_fill)"/>
    <path d="M 333.7315368652344 427.9702453613281 C 337.0711669921875 428.9029846191406 341.5208435058594 428.8643798828125 343.1392822265625 431.8657531738281 C 346.3651123046875 435.5880126953125 345.1600341796875 437.224365234375 342.4317626953125 437.5901794433594 C 342.8046875 446.79803466796875 324.97491455078125 448.9676818847656 323.3785400390625 443.64013671875 C 321.1840515136719 435.1171569824219 321.3466491699219 433.67132568359375 306.8267517089844 430.16326904296875 C 320.8891906738281 426.28289794921875 328.5022277832031 429.0267639160156 333.7315368652344 427.9702453613281" stroke-width="0.0" fill="url(#shape_50_fill)"/>
    <path d="M 305.19915771484375 388.91925048828125 C 301.9888000488281 394.0848388671875 292.9974060058594 397.40008544921875 292.10247802734375 398.9956970214844 C 279.0980529785156 397.3659973144531 277.91644287109375 399.28143310546875 271.321533203125 402.509521484375 C 271.12548828125 401.610595703125 269.7315673828125 398.9501037597656 271.24151611328125 397.4873046875 C 270.0428466796875 395.5228271484375 273.11541748046875 388.18505859375 279.76910400390625 387.9828796386719 C 284.5167541503906 386.6313781738281 288.66912841796875 390.9938049316406 305.19915771484375 388.91925048828125" stroke-width="0.0" fill="url(#shape_51_fill)"/>
    <path d="M 268.9942321777344 184.01339721679688 C 276.0148010253906 194.9005126953125 277.6913146972656 207.73464965820312 280.0376892089844 217.4015350341797 C 271.51019287109375 210.3705291748047 269.35589599609375 208.17201232910156 261.106689453125 215.6698455810547 C 257.41766357421875 207.977783203125 263.7745666503906 196.73428344726562 266.5497131347656 195.26275634765625 C 269.6837158203125 194.2677764892578 268.9334716796875 191.71163940429688 268.9942321777344 184.01339721679688" stroke-width="0.0" fill="url(#shape_52_fill)"/>
    <path d="M 218.31436157226562 409.5014953613281 C 215.90769958496094 410.94049072265625 215.64927673339844 413.28094482421875 214.2323760986328 414.259521484375 C 214.76150512695312 422.7129821777344 192.03411865234375 424.3897399902344 187.54421997070312 415.5679626464844 C 186.28367614746094 405.287109375 206.6869659423828 400.36724853515625 218.31436157226562 409.5014953613281" stroke-width="0.0" fill="url(#shape_53_fill)"/>
    <path d="M 205.89598083496094 424.5738220214844 C 205.50146484375 425.2669677734375 206.14401245117188 428.2835388183594 204.56881713867188 429.2752685546875 C 194.04229736328125 429.84515380859375 178.8140411376953 430.2710266113281 177.98458862304688 432.6470031738281 C 176.79489135742188 430.9481201171875 178.3136749267578 425.9493103027344 176.90464782714844 423.9002380371094 C 186.59178161621094 418.4637451171875 193.84205627441406 422.91424560546875 205.89598083496094 424.5738220214844" stroke-width="0.0" fill="url(#shape_54_fill)"/>
    <path d="M 268.7545166015625 247.00282287597656 C 275.4396667480469 244.9824676513672 276.66632080078125 247.09767150878906 280.3725280761719 246.8199005126953 C 280.7491149902344 250.987548828125 280.1313171386719 252.42422485351562 286.16119384765625 261.8951721191406 C 263.4591369628906 257.992431640625 262.9308776855469 257.2969665527344 251.65286254882812 263.639404296875 C 254.8616943359375 248.17630004882812 255.87603759765625 247.2318572998047 258.6621398925781 245.10357666015625 C 260.44219970703125 239.31275939941406 266.12353515625 239.62208557128906 268.7545166015625 247.00282287597656" stroke-width="0.0" fill="url(#shape_55_fill)"/>
    <path d="M 277.1219482421875 350.02252197265625 C 279.14959716796875 363.4794616699219 284.1808776855469 363.08612060546875 284.65045166015625 368.055419921875 C 285.417724609375 369.2338562011719 285.9938659667969 371.8232421875 285.70123291015625 381.17095947265625 C 275.5178527832031 379.2558898925781 261.9669494628906 381.54986572265625 242.7261962890625 383.81732177734375 C 238.37368774414062 382.05316162109375 237.82505798339844 362.31085205078125 237.99029541015625 351.8868103027344 C 247.3439178466797 350.08502197265625 255.35072326660156 349.1247253417969 277.1219482421875 350.02252197265625" stroke-width="0.0" fill="url(#shape_56_fill)"/>
    <path d="M 408.6675720214844 271.04876708984375 C 415.7957458496094 268.90753173828125 418.2230529785156 273.0596618652344 421.1158142089844 280.01611328125 C 413.48773193359375 285.3567199707031 405.4666442871094 280.8966369628906 379.9638671875 277.3400573730469 C 379.1009216308594 264.76153564453125 387.6997985839844 263.3151550292969 408.6675720214844 271.04876708984375" stroke-width="0.0" fill="url(#shape_57_fill)"/>
    <path d="M 632.0598754882812 351.7037353515625 C 632.980224609375 355.14892578125 660.135009765625 354.13671875 668.60302734375 354.1861267089844 C 668.4902954101562 358.4787902832031 662.99755859375 360.4969177246094 660.0776977539062 357.26690673828125 C 649.5601196289062 355.4267578125 634.5936279296875 359.9249572753906 631.5410766601562 360.5315856933594 C 627.8013916015625 357.1062927246094 629.3621826171875 353.59234619140625 632.0598754882812 351.7037353515625" stroke-width="0.0" fill="url(#shape_58_fill)"/>
    <path d="M 341.3147888183594 384.95440673828125 C 342.8057556152344 390.2255554199219 358.1353759765625 391.72845458984375 359.1849060058594 394.6956787109375 C 356.26898193359375 397.9545593261719 339.0435485839844 401.9250793457031 338.44891357421875 399.52996826171875 C 335.1365966796875 399.6167297363281 333.0743713378906 398.78021240234375 331.85357666015625 396.5368957519531 C 331.9881896972656 394.93994140625 330.7515869140625 393.4737243652344 332.3232727050781 390.6011047363281 C 333.0350646972656 385.0088195800781 336.462158203125 384.07080078125 341.3147888183594 384.95440673828125" stroke-width="0.0" fill="url(#shape_59_fill)"/>
    <path d="M 459.1722717285156 363.81689453125 C 462.7690124511719 364.62933349609375 472.44390869140625 370.24017333984375 473.1327209472656 374.2571716308594 C 471.8009948730469 376.2177734375 470.334228515625 376.8761901855469 463.0294189453125 375.9013977050781 C 458.41900634765625 377.25091552734375 457.5733337402344 377.05145263671875 452.71380615234375 370.8898620605469 C 453.3184814453125 370.0794677734375 460.38470458984375 366.18389892578125 459.1722717285156 363.81689453125" stroke-width="0.0" fill="url(#shape_60_fill)"/>
    <path d="M 433.26422119140625 433.00701904296875 C 440.0356140136719 434.337158203125 442.4478759765625 436.5353088378906 442.0390625 438.7186279296875 C 440.34686279296875 441.2566223144531 429.11181640625 439.9542236328125 425.72991943359375 442.3817138671875 C 422.4701232910156 438.92333984375 423.895751953125 434.6340026855469 412.2948303222656 425.7193603515625 C 427.8778381347656 428.95196533203125 431.081298828125 433.8817138671875 433.26422119140625 433.00701904296875" stroke-width="0.0" fill="url(#shape_61_fill)"/>
    <path d="M 185.42007446289062 411.449951171875 C 186.2659149169922 413.93170166015625 185.00650024414062 414.7928771972656 186.9224853515625 417.6765441894531 C 184.8677215576172 420.1896057128906 183.39581298828125 419.5138244628906 182.49658203125 419.7254943847656 C 180.8123321533203 421.6396179199219 174.43832397460938 420.23065185546875 171.37973022460938 420.1571350097656 C 169.556884765625 417.78973388671875 169.7669677734375 415.6304626464844 173.95082092285156 413.1752624511719 C 176.49246215820312 412.50408935546875 181.37213134765625 410.6672668457031 185.42007446289062 411.449951171875" stroke-width="0.0" fill="url(#shape_62_fill)"/>
    <path d="M 332.2073974609375 418.7250061035156 C 334.7908935546875 426.0745849609375 329.8714599609375 427.89923095703125 327.26605224609375 425.9075927734375 C 324.57464599609375 427.7681579589844 322.9913635253906 426.7226867675781 320.92584228515625 427.548095703125 C 318.8033142089844 426.02044677734375 319.7778625488281 419.97943115234375 317.5228271484375 418.47637939453125 C 319.02252197265625 420.0168151855469 326.0284423828125 418.71990966796875 332.2073974609375 418.7250061035156" stroke-width="0.0" fill="url(#shape_63_fill)"/>
    <path d="M 55.435279846191406 273.48150634765625 C 56.568321228027344 269.3328857421875 65.84657287597656 269.884521484375 65.5946273803711 278.2518005371094 C 59.1351318359375 279.263916015625 53.62430953979492 272.92626953125 48.23226547241211 276.0706481933594 C 50.1269645690918 273.1186218261719 52.40468978881836 272.63983154296875 55.435279846191406 273.48150634765625" stroke-width="0.0" fill="url(#shape_64_fill)"/>
    <path d="M 304.5741271972656 439.3663635253906 C 304.55511474609375 437.4560546875 306.27508544921875 436.31524658203125 313.051513671875 437.43902587890625 C 314.7366943359375 438.8482971191406 313.003173828125 441.4120788574219 311.3403625488281 441.85760498046875 C 307.91912841796875 445.3365173339844 306.6316223144531 444.2278747558594 305.33074951171875 444.34576416015625 C 302.8810119628906 441.66522216796875 302.79486083984375 439.76959228515625 304.5741271972656 439.3663635253906" stroke-width="0.0" fill="url(#shape_65_fill)"/>
    <path d="M -0.44608810544013977 -0.41874969005584717 C 224.71746826171875 -0.13873526453971863 444.10546875 0.3660596013069153 672.8739624023438 0.6008987426757812 C 673.5543823242188 154.2342529296875 674.6588745117188 296.1514892578125 673.6451416015625 445.49359130859375 C 450.433349609375 446.33197021484375 230.57489013671875 446.26470947265625 0.542227029800415 445.3555908203125 C 0.23853358626365662 297.0403747558594 -0.13172753155231476 149.06936645507812 -0.44608810544013977 -0.41874969005584717" stroke-width="0.0" fill="url(#shape_66_fill)"/>
    <path d="M -1.0148404836654663 -0.1660091131925583 C 222.5099334716797 -0.10629607737064362 443.1409912109375 0.35280749201774597 672.880615234375 -0.15738976001739502 C 673.6759643554688 154.46852111816406 674.72412109375 295.4742431640625 673.3297729492188 445.3979797363281 C 450.6912841796875 446.4108581542969 230.67800903320312 446.31402587890625 0.6539356112480164 445.2627258300781 C 0.15512681007385254 297.13226318359375 -0.24337826669216156 148.8477783203125 -1.0148404836654663 -0.1660091131925583" stroke-width="0.0" fill="url(#shape_67_fill)"/>
    <path d="M -0.6611663103103638 -0.22038759291172028 C 223.00933837890625 -0.1408863514661789 442.1934509277344 0.4990181028842926 672.89013671875 -0.2270495444536209 C 673.6708374023438 154.43788146972656 674.7235107421875 295.4627685546875 673.3345947265625 445.3994445800781 C 450.69805908203125 446.41119384765625 230.7026824951172 446.31427001953125 1.2256581783294678 445.2423095703125 C 0.5239102840423584 295.5199279785156 0.07652602344751358 148.44537353515625 -0.6611663103103638 -0.22038759291172028" stroke-width="0.0" fill="url(#shape_68_fill)"/>
  </g>
</svg>
