<?xml version="1.0" ?>
<svg xmlns="http://www.w3.org/2000/svg" version="1.1" width="674" height="446">
  <defs>
    <radialGradient id="shape_0_fill" cx="0.5321656179003617" cy="0.7400929403946539" r="0.28101312654308463">
      <stop offset="0.7167579" stop-color="rgb(157, 170, 0)" stop-opacity="0.8408712148666382"/>
      <stop offset="1.0" stop-color="rgb(48, 44, 0)" stop-opacity="0.9980950355529785"/>
    </radialGradient>
    <radialGradient id="shape_1_fill" cx="0.5339279853979275" cy="0.7435715337505255" r="0.2066202588180406">
      <stop offset="0.47122243" stop-color="rgb(68, 64, 71)" stop-opacity="0.7623705267906189"/>
      <stop offset="1.0" stop-color="rgb(34, 11, 0)" stop-opacity="0.6134089231491089"/>
    </radialGradient>
    <radialGradient id="shape_2_fill" cx="0.09792273546892387" cy="0.7376672719091578" r="0.22062588021026522">
      <stop offset="0.0" stop-color="rgb(39, 99, 184)" stop-opacity="0.9286514520645142"/>
      <stop offset="0.97509694" stop-color="rgb(5, 93, 255)" stop-opacity="0.9080266356468201"/>
    </radialGradient>
    <radialGradient id="shape_3_fill" cx="0.2778759285674958" cy="0.2152388192078458" r="0.13091631246957297">
      <stop offset="0.4010443" stop-color="rgb(128, 178, 0)" stop-opacity="0.7702937126159668"/>
      <stop offset="1.0" stop-color="rgb(35, 34, 0)" stop-opacity="0.9338995814323425"/>
    </radialGradient>
    <radialGradient id="shape_4_fill" cx="0.1543026706231454" cy="0.9977578475336323" r="0.10288926755639141">
      <stop offset="0.0" stop-color="rgb(81, 79, 86)" stop-opacity="1.0"/>
      <stop offset="1.0" stop-color="rgb(55, 48, 70)" stop-opacity="0.8681407570838928"/>
    </radialGradient>
    <radialGradient id="shape_5_fill" cx="0.14807964290992442" cy="0.23997249517740155" r="0.11810664960821587">
      <stop offset="0.0" stop-color="rgb(255, 255, 255)" stop-opacity="0.6465655565261841"/>
      <stop offset="0.5626593" stop-color="rgb(255, 255, 255)" stop-opacity="0.5299479365348816"/>
    </radialGradient>
    <radialGradient id="shape_6_fill" cx="0.18397626112759644" cy="0.9977578475336323" r="0.0754974885934892">
      <stop offset="0.0" stop-color="rgb(93, 90, 94)" stop-opacity="1.0"/>
      <stop offset="1.0" stop-color="rgb(144, 126, 131)" stop-opacity="0.9041963815689087"/>
    </radialGradient>
    <radialGradient id="shape_7_fill" cx="0.2893175074183976" cy="0.05829596412556054" r="0.08666390552011372">
      <stop offset="0.0" stop-color="rgb(55, 66, 29)" stop-opacity="1.0"/>
      <stop offset="1.0" stop-color="rgb(116, 129, 53)" stop-opacity="0.5692304372787476"/>
    </radialGradient>
    <radialGradient id="shape_8_fill" cx="0.3382789091115889" cy="0.9439461883408071" r="0.06756690277190167">
      <stop offset="0.0" stop-color="rgb(91, 124, 45)" stop-opacity="1.0"/>
      <stop offset="1.0" stop-color="rgb(102, 155, 29)" stop-opacity="0.6091012358665466"/>
    </radialGradient>
    <radialGradient id="shape_9_fill" cx="0.30712166172106825" cy="0.9977578475336323" r="0.0730758406641929">
      <stop offset="0.0" stop-color="rgb(38, 48, 20)" stop-opacity="1.0"/>
      <stop offset="1.0" stop-color="rgb(33, 29, 50)" stop-opacity="1.0"/>
    </radialGradient>
    <radialGradient id="shape_10_fill" cx="0.3056379821958457" cy="0.9977578475336323" r="0.06792919147615971">
      <stop offset="0.0" stop-color="rgb(39, 49, 21)" stop-opacity="1.0"/>
      <stop offset="1.0" stop-color="rgb(32, 10, 0)" stop-opacity="0.6578220129013062"/>
    </radialGradient>
    <radialGradient id="shape_11_fill" cx="0.21810089020771514" cy="0.968609865470852" r="0.06792919147615971">
      <stop offset="0.0" stop-color="rgb(138, 135, 129)" stop-opacity="1.0"/>
      <stop offset="1.0" stop-color="rgb(131, 93, 65)" stop-opacity="0.44879698753356934"/>
    </radialGradient>
    <radialGradient id="shape_12_fill" cx="0.29080118694362017" cy="0.9977578475336323" r="0.07480746985189285">
      <stop offset="0.0" stop-color="rgb(22, 25, 13)" stop-opacity="1.0"/>
      <stop offset="1.0" stop-color="rgb(37, 33, 13)" stop-opacity="1.0"/>
    </radialGradient>
    <radialGradient id="shape_13_fill" cx="0.327893175074184" cy="0.8923766816143498" r="0.06900465877544279">
      <stop offset="0.0" stop-color="rgb(89, 117, 50)" stop-opacity="1.0"/>
      <stop offset="1.0" stop-color="rgb(92, 124, 8)" stop-opacity="0.6539241075515747"/>
    </radialGradient>
    <radialGradient id="shape_14_fill" cx="0.142433234421365" cy="0.9977578475336323" r="0.06617211022079875">
      <stop offset="0.0" stop-color="rgb(155, 150, 153)" stop-opacity="1.0"/>
      <stop offset="1.0" stop-color="rgb(255, 171, 159)" stop-opacity="0.2235853672027588"/>
    </radialGradient>
    <radialGradient id="shape_15_fill" cx="0.31008902077151335" cy="0.9977578475336323" r="0.06683642786405207">
      <stop offset="0.0" stop-color="rgb(43, 55, 23)" stop-opacity="1.0"/>
      <stop offset="1.0" stop-color="rgb(60, 67, 21)" stop-opacity="0.8830237984657288"/>
    </radialGradient>
    <radialGradient id="shape_16_fill" cx="0.27299703264094954" cy="0.9977578475336323" r="0.08110449363640579">
      <stop offset="0.0" stop-color="rgb(31, 35, 19)" stop-opacity="1.0"/>
      <stop offset="1.0" stop-color="rgb(30, 27, 0)" stop-opacity="0.9509996175765991"/>
    </radialGradient>
    <radialGradient id="shape_17_fill" cx="0.2893175074183976" cy="0.9977578475336323" r="0.07513486030193747">
      <stop offset="0.0" stop-color="rgb(22, 23, 13)" stop-opacity="1.0"/>
      <stop offset="1.0" stop-color="rgb(24, 21, 0)" stop-opacity="0.8602018356323242"/>
    </radialGradient>
    <radialGradient id="shape_18_fill" cx="0.3293768545994065" cy="0.7556053811659192" r="0.06617211022079875">
      <stop offset="0.0" stop-color="rgb(83, 108, 65)" stop-opacity="1.0"/>
      <stop offset="1.0" stop-color="rgb(106, 126, 59)" stop-opacity="0.9772939085960388"/>
    </radialGradient>
    <radialGradient id="shape_19_fill" cx="0.3516320474777448" cy="0.9977578475336323" r="0.06617211022079875">
      <stop offset="0.0" stop-color="rgb(95, 135, 39)" stop-opacity="1.0"/>
      <stop offset="1.0" stop-color="rgb(128, 187, 0)" stop-opacity="0.6534866690635681"/>
    </radialGradient>
    <radialGradient id="shape_20_fill" cx="0.0830860534124629" cy="0.9977578475336323" r="0.06792919147615971">
      <stop offset="0.0" stop-color="rgb(49, 52, 66)" stop-opacity="1.0"/>
      <stop offset="1.0" stop-color="rgb(40, 27, 62)" stop-opacity="0.44198742508888245"/>
    </radialGradient>
    <radialGradient id="shape_21_fill" cx="0.29821958456973297" cy="0.9977578475336323" r="0.06792919147615971">
      <stop offset="0.0" stop-color="rgb(33, 40, 17)" stop-opacity="1.0"/>
      <stop offset="1.0" stop-color="rgb(46, 61, 0)" stop-opacity="0.7190653085708618"/>
    </radialGradient>
    <radialGradient id="shape_22_fill" cx="0.3563326600751113" cy="0.44372438849889645" r="0.06594546966099951">
      <stop offset="0.52384716" stop-color="rgb(107, 139, 33)" stop-opacity="0.9776871204376221"/>
      <stop offset="0.38891584" stop-color="rgb(146, 176, 40)" stop-opacity="0.9113703966140747"/>
    </radialGradient>
    <radialGradient id="shape_23_fill" cx="0.6454005934718101" cy="0.1412556053811659" r="0.06617211022079875">
      <stop offset="0.0" stop-color="rgb(46, 38, 13)" stop-opacity="1.0"/>
      <stop offset="1.0" stop-color="rgb(53, 29, 0)" stop-opacity="0.8790295124053955"/>
    </radialGradient>
    <radialGradient id="shape_24_fill" cx="0.2492550586734398" cy="0.4843076355254169" r="0.06616971047059012">
      <stop offset="0.0" stop-color="rgb(205, 213, 206)" stop-opacity="1.0"/>
      <stop offset="0.9245507" stop-color="rgb(255, 255, 255)" stop-opacity="0.5001118779182434"/>
    </radialGradient>
    <radialGradient id="shape_25_fill" cx="0.6320474777448071" cy="0.9977578475336323" r="0.06617211022079875">
      <stop offset="0.0" stop-color="rgb(35, 28, 8)" stop-opacity="1.0"/>
      <stop offset="1.0" stop-color="rgb(38, 14, 0)" stop-opacity="0.5817504525184631"/>
    </radialGradient>
    <radialGradient id="shape_26_fill" cx="0.15414520399506793" cy="0.3207086811151205" r="0.06604698362265567">
      <stop offset="0.11989566" stop-color="rgb(198, 211, 155)" stop-opacity="1.0"/>
      <stop offset="0.58338004" stop-color="rgb(147, 130, 62)" stop-opacity="0.19641241431236267"/>
    </radialGradient>
    <radialGradient id="shape_27_fill" cx="0.15410647972401242" cy="0.3208032787648017" r="0.06604505929465818">
      <stop offset="0.0" stop-color="rgb(192, 205, 0)" stop-opacity="1.0"/>
      <stop offset="0.49375948" stop-color="rgb(66, 60, 45)" stop-opacity="0.5473319888114929"/>
    </radialGradient>
    <radialGradient id="shape_28_fill" cx="0.03487748562051564" cy="0.01648405635303446" r="0.07048688373509077">
      <stop offset="0.11214244" stop-color="rgb(7, 23, 115)" stop-opacity="0.9540127515792847"/>
      <stop offset="0.793192" stop-color="rgb(7, 24, 154)" stop-opacity="0.7442858219146729"/>
    </radialGradient>
    <radialGradient id="shape_29_fill" cx="0.33976258863681147" cy="0.6659192825112108" r="0.06617211022079875">
      <stop offset="0.0" stop-color="rgb(90, 117, 55)" stop-opacity="1.0"/>
      <stop offset="1.0" stop-color="rgb(107, 133, 28)" stop-opacity="0.8727583289146423"/>
    </radialGradient>
    <radialGradient id="shape_30_fill" cx="0.039211015672995" cy="0.01618998467654925" r="0.06913406417348618">
      <stop offset="0.17467351" stop-color="rgb(49, 72, 76)" stop-opacity="1.0"/>
      <stop offset="0.9310104" stop-color="rgb(62, 64, 0)" stop-opacity="0.5059945583343506"/>
    </radialGradient>
    <radialGradient id="shape_31_fill" cx="0.12314540059347182" cy="0.9977578475336323" r="0.06617211022079875">
      <stop offset="0.0" stop-color="rgb(95, 103, 98)" stop-opacity="1.0"/>
      <stop offset="1.0" stop-color="rgb(136, 123, 112)" stop-opacity="0.7494686245918274"/>
    </radialGradient>
    <radialGradient id="shape_32_fill" cx="0.4035608308605341" cy="0.984304932735426" r="0.06617211022079875">
      <stop offset="0.0" stop-color="rgb(126, 155, 63)" stop-opacity="1.0"/>
      <stop offset="1.0" stop-color="rgb(124, 112, 26)" stop-opacity="0.8862950205802917"/>
    </radialGradient>
    <radialGradient id="shape_33_fill" cx="0.3249258160237389" cy="0.6053811659192825" r="0.06617211022079875">
      <stop offset="1.5735699e-05" stop-color="rgb(93, 124, 71)" stop-opacity="0.999808132648468"/>
      <stop offset="1.0" stop-color="rgb(124, 145, 58)" stop-opacity="1.0"/>
    </radialGradient>
    <radialGradient id="shape_34_fill" cx="0.6468842729970327" cy="0.531390134529148" r="0.06617211022079875">
      <stop offset="0.0" stop-color="rgb(54, 47, 24)" stop-opacity="1.0"/>
      <stop offset="1.0" stop-color="rgb(48, 14, 29)" stop-opacity="0.4104854166507721"/>
    </radialGradient>
    <radialGradient id="shape_35_fill" cx="0.1491742006749003" cy="0.24007550910983919" r="0.06863598583006364">
      <stop offset="0.094185956" stop-color="rgb(205, 255, 92)" stop-opacity="0.1448982059955597"/>
      <stop offset="0.5729634" stop-color="rgb(103, 74, 63)" stop-opacity="0.8329995274543762"/>
    </radialGradient>
    <radialGradient id="shape_36_fill" cx="0.2878338278931751" cy="0.9977578475336323" r="0.06617211022079875">
      <stop offset="0.0" stop-color="rgb(80, 96, 53)" stop-opacity="1.0"/>
      <stop offset="1.0" stop-color="rgb(31, 30, 0)" stop-opacity="0.7791990041732788"/>
    </radialGradient>
    <radialGradient id="shape_37_fill" cx="0.129080118694362" cy="0.9977578475336323" r="0.06617211022079875">
      <stop offset="0.0" stop-color="rgb(87, 97, 81)" stop-opacity="1.0"/>
      <stop offset="1.0" stop-color="rgb(66, 71, 58)" stop-opacity="0.6112473607063293"/>
    </radialGradient>
    <radialGradient id="shape_38_fill" cx="0.33892324204260943" cy="0.5607740119968294" r="0.0666785763703751">
      <stop offset="0.7501433" stop-color="rgb(84, 108, 25)" stop-opacity="0.9199534058570862"/>
      <stop offset="0.6022492" stop-color="rgb(164, 250, 77)" stop-opacity="0.8669938445091248"/>
    </radialGradient>
    <radialGradient id="shape_39_fill" cx="0.40059347181008903" cy="0.9641255605381166" r="0.06617211022079875">
      <stop offset="0.0" stop-color="rgb(138, 168, 60)" stop-opacity="1.0"/>
      <stop offset="1.0" stop-color="rgb(213, 250, 84)" stop-opacity="0.9501442313194275"/>
    </radialGradient>
    <radialGradient id="shape_40_fill" cx="0.6114731061352466" cy="0.8759942845913327" r="0.0713432096939766">
      <stop offset="0.3778192" stop-color="rgb(157, 139, 174)" stop-opacity="0.3070726990699768"/>
      <stop offset="0.51159114" stop-color="rgb(1, 10, 66)" stop-opacity="0.8908981084823608"/>
    </radialGradient>
    <radialGradient id="shape_41_fill" cx="0.6454005934718101" cy="0.08744394618834081" r="0.06617211022079875">
      <stop offset="0.0" stop-color="rgb(58, 48, 21)" stop-opacity="1.0"/>
      <stop offset="1.0" stop-color="rgb(91, 61, 22)" stop-opacity="1.0"/>
    </radialGradient>
    <radialGradient id="shape_42_fill" cx="0.5845697329376854" cy="0.6188340807174888" r="0.06617211022079875">
      <stop offset="0.0" stop-color="rgb(62, 59, 56)" stop-opacity="1.0"/>
      <stop offset="1.0" stop-color="rgb(43, 36, 77)" stop-opacity="0.6491283774375916"/>
    </radialGradient>
    <radialGradient id="shape_43_fill" cx="0.35462202304194873" cy="0.501736662313008" r="0.0700131990789306">
      <stop offset="0.246253" stop-color="rgb(118, 152, 51)" stop-opacity="0.912434458732605"/>
      <stop offset="0.6059481" stop-color="rgb(201, 255, 22)" stop-opacity="0.7426586747169495"/>
    </radialGradient>
    <radialGradient id="shape_44_fill" cx="0.5934718100890207" cy="0.9977578475336323" r="0.06617211022079875">
      <stop offset="0.0" stop-color="rgb(89, 61, 18)" stop-opacity="1.0"/>
      <stop offset="1.0" stop-color="rgb(163, 79, 4)" stop-opacity="0.7087799310684204"/>
    </radialGradient>
    <radialGradient id="shape_45_fill" cx="0.612759643916914" cy="0.04035874439461883" r="0.06617211022079875">
      <stop offset="0.0" stop-color="rgb(157, 136, 123)" stop-opacity="1.0"/>
      <stop offset="1.0" stop-color="rgb(255, 217, 202)" stop-opacity="1.0"/>
    </radialGradient>
    <radialGradient id="shape_46_fill" cx="0.28635014836795253" cy="0.9977578475336323" r="0.06617211022079875">
      <stop offset="0.0" stop-color="rgb(82, 99, 55)" stop-opacity="1.0"/>
      <stop offset="1.0" stop-color="rgb(92, 100, 31)" stop-opacity="0.5768235325813293"/>
    </radialGradient>
    <radialGradient id="shape_47_fill" cx="0.28635014836795253" cy="0.8183856502242153" r="0.06617211022079875">
      <stop offset="0.0" stop-color="rgb(166, 189, 197)" stop-opacity="1.0"/>
      <stop offset="1.0" stop-color="rgb(242, 255, 255)" stop-opacity="0.4413332939147949"/>
    </radialGradient>
    <radialGradient id="shape_48_fill" cx="0.40801186943620177" cy="0.9977578475336323" r="0.06617211022079875">
      <stop offset="0.0" stop-color="rgb(107, 135, 68)" stop-opacity="1.0"/>
      <stop offset="1.0" stop-color="rgb(126, 138, 55)" stop-opacity="1.0"/>
    </radialGradient>
    <radialGradient id="shape_49_fill" cx="0.19287833827893175" cy="0.3991031390134529" r="0.06617211022079875">
      <stop offset="0.0" stop-color="rgb(92, 100, 54)" stop-opacity="1.0"/>
      <stop offset="1.0" stop-color="rgb(56, 31, 0)" stop-opacity="0.5177562236785889"/>
    </radialGradient>
    <radialGradient id="shape_50_fill" cx="0.6439169139465876" cy="0.7376681614349776" r="0.06617211022079875">
      <stop offset="0.0" stop-color="rgb(65, 56, 25)" stop-opacity="1.0"/>
      <stop offset="1.0" stop-color="rgb(146, 177, 91)" stop-opacity="0.3800294101238251"/>
    </radialGradient>
    <radialGradient id="shape_51_fill" cx="0.5845697329376854" cy="0.6322869955156951" r="0.06617211022079875">
      <stop offset="0.0" stop-color="rgb(75, 68, 60)" stop-opacity="1.0"/>
      <stop offset="1.0" stop-color="rgb(162, 122, 97)" stop-opacity="0.5487316846847534"/>
    </radialGradient>
    <radialGradient id="shape_52_fill" cx="0.2997032640949555" cy="0.6031390134529148" r="0.06617211022079875">
      <stop offset="0.0" stop-color="rgb(107, 158, 118)" stop-opacity="1.0"/>
      <stop offset="1.0" stop-color="rgb(173, 255, 221)" stop-opacity="0.5541969537734985"/>
    </radialGradient>
    <radialGradient id="shape_53_fill" cx="0.6097922848664689" cy="0.45067264573991034" r="0.06617211022079875">
      <stop offset="0.0" stop-color="rgb(38, 39, 27)" stop-opacity="1.0"/>
      <stop offset="1.0" stop-color="rgb(18, 11, 60)" stop-opacity="0.3421747088432312"/>
    </radialGradient>
    <radialGradient id="shape_54_fill" cx="0.6335311572700296" cy="0.426009002822397" r="0.06617211022079875">
      <stop offset="0.0" stop-color="rgb(67, 49, 20)" stop-opacity="1.0"/>
      <stop offset="1.0" stop-color="rgb(158, 86, 31)" stop-opacity="0.5171055793762207"/>
    </radialGradient>
    <radialGradient id="shape_55_fill" cx="0.3707168533823257" cy="0.5988430827187851" r="0.066001377049115">
      <stop offset="0.43605936" stop-color="rgb(239, 255, 47)" stop-opacity="0.8363509178161621"/>
      <stop offset="0.16089156" stop-color="rgb(224, 255, 0)" stop-opacity="0.701338529586792"/>
    </radialGradient>
    <radialGradient id="shape_56_fill" cx="0.5489614243323442" cy="0.600896860986547" r="0.06617211022079875">
      <stop offset="0.0" stop-color="rgb(50, 62, 80)" stop-opacity="1.0"/>
      <stop offset="1.0" stop-color="rgb(27, 83, 255)" stop-opacity="0.4164994955062866"/>
    </radialGradient>
    <radialGradient id="shape_57_fill" cx="0.4094955489614243" cy="0.9035874439461884" r="0.06617211022079875">
      <stop offset="0.0" stop-color="rgb(111, 144, 47)" stop-opacity="1.0"/>
      <stop offset="1.0" stop-color="rgb(207, 255, 54)" stop-opacity="0.772202730178833"/>
    </radialGradient>
    <radialGradient id="shape_58_fill" cx="0.5281899109792285" cy="0.9977578475336323" r="0.06617211022079875">
      <stop offset="0.0" stop-color="rgb(50, 43, 14)" stop-opacity="1.0"/>
      <stop offset="1.0" stop-color="rgb(80, 57, 13)" stop-opacity="1.0"/>
    </radialGradient>
    <radialGradient id="shape_59_fill" cx="0.5845697329376854" cy="0.7690582959641256" r="0.06617211022079875">
      <stop offset="0.0" stop-color="rgb(61, 63, 58)" stop-opacity="1.0"/>
      <stop offset="1.0" stop-color="rgb(78, 72, 93)" stop-opacity="0.7098569869995117"/>
    </radialGradient>
    <radialGradient id="shape_60_fill" cx="0.5489614243323442" cy="0.9977578475336323" r="0.06617211022079875">
      <stop offset="0.0" stop-color="rgb(140, 131, 64)" stop-opacity="1.0"/>
      <stop offset="1.0" stop-color="rgb(232, 201, 92)" stop-opacity="0.8967717885971069"/>
    </radialGradient>
    <radialGradient id="shape_61_fill" cx="0.6469716601272719" cy="0.96866973740103" r="0.06610439651443979">
      <stop offset="0.463088" stop-color="rgb(255, 202, 66)" stop-opacity="1.0"/>
      <stop offset="0.21278845" stop-color="rgb(182, 105, 51)" stop-opacity="0.5432644486427307"/>
    </radialGradient>
    <radialGradient id="shape_62_fill" cx="0.615727002967359" cy="0.3991031390134529" r="0.06617211022079875">
      <stop offset="0.0" stop-color="rgb(55, 47, 13)" stop-opacity="1.0"/>
      <stop offset="1.0" stop-color="rgb(77, 51, 4)" stop-opacity="0.9515073895454407"/>
    </radialGradient>
    <radialGradient id="shape_63_fill" cx="0.6261127596439169" cy="0.7286995515695067" r="0.06617211022079875">
      <stop offset="0.0" stop-color="rgb(79, 66, 32)" stop-opacity="1.0"/>
      <stop offset="1.0" stop-color="rgb(195, 195, 98)" stop-opacity="0.5403237342834473"/>
    </radialGradient>
    <radialGradient id="shape_64_fill" cx="0.40801186943620177" cy="0.12556053811659193" r="0.06617211022079875">
      <stop offset="0.0" stop-color="rgb(76, 66, 59)" stop-opacity="1.0"/>
      <stop offset="1.0" stop-color="rgb(126, 95, 94)" stop-opacity="1.0"/>
    </radialGradient>
    <radialGradient id="shape_65_fill" cx="0.6528189910979229" cy="0.6883408071748879" r="0.06617211022079875">
      <stop offset="0.0" stop-color="rgb(121, 97, 39)" stop-opacity="1.0"/>
      <stop offset="1.0" stop-color="rgb(255, 228, 96)" stop-opacity="1.0"/>
    </radialGradient>
    <radialGradient id="shape_66_fill" cx="0.652625335783916" cy="0.4587556984392517" r="0.07063789820458839">
      <stop offset="0.2578484" stop-color="rgb(174, 207, 117)" stop-opacity="0.27108412981033325"/>
      <stop offset="0.7792437" stop-color="rgb(0, 10, 0)" stop-opacity="0.048467203974723816"/>
    </radialGradient>
    <radialGradient id="shape_67_fill" cx="0.5970873280873285" cy="0.9949854692536084" r="0.07035865557299877">
      <stop offset="0.83928674" stop-color="rgb(52, 29, 0)" stop-opacity="0.6784000396728516"/>
      <stop offset="1.0" stop-color="rgb(0, 12, 0)" stop-opacity="0.15108004212379456"/>
    </radialGradient>
    <radialGradient id="shape_68_fill" cx="0.4914364687413066" cy="0.9973594768164938" r="0.06836659688977884">
      <stop offset="0.39152116" stop-color="rgb(46, 17, 0)" stop-opacity="0.497409850358963"/>
      <stop offset="1.0" stop-color="rgb(32, 63, 53)" stop-opacity="0.19562925398349762"/>
    </radialGradient>
  </defs>
  <g>
    <path d="M 0.035245537757873535 271.32037353515625 C 21.94180679321289 260.30096435546875 42.61356735229492 262.313720703125 46.2827033996582 271.6513977050781 C 48.19174575805664 273.5099792480469 49.34579086303711 276.2158508300781 57.09800338745117 274.6099548339844 C 58.63901901245117 273.790283203125 62.778743743896484 273.9012145996094 63.4710807800293 269.7603759765625 C 68.426025390625 268.23016357421875 99.90483856201172 269.7652587890625 116.68295288085938 270.1655578613281 C 119.77758026123047 271.4239501953125 124.81782531738281 278.3251037597656 126.79169464111328 282.5015563964844 C 134.54351806640625 282.6010437011719 146.18272399902344 280.7731018066406 167.8616180419922 289.71612548828125 C 185.33656311035156 282.9833679199219 185.88232421875 281.8604736328125 206.74432373046875 287.2558898925781 C 200.40089416503906 287.2044372558594 198.3228302001953 281.1978454589844 210.8423614501953 268.4453125 C 249.23809814453125 266.4881591796875 292.83282470703125 264.33740234375 313.0280456542969 272.9003601074219 C 349.8393249511719 274.7470703125 426.9957275390625 275.6327209472656 476.0617370605469 266.0140075683594 C 507.25738525390625 261.3516540527344 547.7798461914062 262.0511169433594 547.5697021484375 274.8509826660156 C 547.6527709960938 274.4573974609375 547.4375 264.1726379394531 578.9525146484375 263.44342041015625 C 594.813720703125 268.1904602050781 612.2408447265625 280.30419921875 612.5916137695312 280.4520568847656 C 615.0337524414062 265.9750061035156 625.5032958984375 265.716552734375 673.3330078125 265.7768859863281 C 676.7505493164062 272.297607421875 679.3695068359375 278.826904296875 678.4677124023438 284.9035339355469 C 676.6203002929688 339.52801513671875 674.7125244140625 391.4891052246094 675.1177368164062 446.4668273925781 C 451.9151306152344 446.6697692871094 228.9889373779297 446.8115539550781 -0.43575701117515564 446.4240417480469 C -0.5132395029067993 389.141357421875 -0.370832622051239 332.33782958984375 0.035245537757873535 271.32037353515625" stroke-width="0.0" fill="url(#shape_0_fill)"/>
    <path d="M -0.27669671177864075 271.1576843261719 C 35.93385696411133 275.3927001953125 36.5576057434082 274.58489990234375 44.11544418334961 273.61212158203125 C 45.878395080566406 266.5272216796875 58.96432876586914 266.1437683105469 79.48785400390625 267.3696594238281 C 113.63358306884766 278.68035888671875 114.06072998046875 279.3109130859375 128.03036499023438 279.1538391113281 C 127.82292175292969 270.54425048828125 137.5535888671875 269.4622802734375 145.16226196289062 269.6618347167969 C 185.26536560058594 268.704345703125 186.01022338867188 268.7726135253906 204.3363037109375 272.7462158203125 C 203.0948944091797 292.10626220703125 204.05250549316406 292.36474609375 208.731201171875 298.885498046875 C 213.721923828125 297.9556579589844 267.2207336425781 298.9894104003906 289.9921875 301.3077087402344 C 310.0623474121094 306.2911682128906 444.00848388671875 304.25830078125 460.3375244140625 304.84417724609375 C 477.56280517578125 293.7701416015625 491.9197692871094 292.2161865234375 504.5626220703125 287.0057373046875 C 514.0823364257812 289.0116271972656 521.0510864257812 286.7392272949219 523.0996704101562 286.56890869140625 C 527.4256591796875 285.7355041503906 531.7453002929688 285.9789733886719 534.5652465820312 287.178955078125 C 539.2257080078125 287.3319091796875 540.5900268554688 288.5873107910156 547.2408447265625 307.328369140625 C 579.4924926757812 291.0234375 581.6092529296875 291.4848937988281 599.5234375 296.9822998046875 C 617.4641723632812 289.29400634765625 627.757080078125 288.1635437011719 634.594482421875 288.5305480957031 C 640.6795654296875 275.7603454589844 654.941162109375 278.8215637207031 673.7033081054688 292.7857666015625 C 674.2766723632812 340.12823486328125 674.4963989257812 392.11724853515625 674.1581420898438 446.2807922363281 C 451.4774169921875 446.3905334472656 229.19664001464844 446.25439453125 -0.30765825510025024 446.2476501464844 C -0.21345508098602295 389.403564453125 -0.3045477867126465 333.0137634277344 -0.27669671177864075 271.1576843261719" stroke-width="0.0" fill="url(#shape_1_fill)"/>
    <path d="M -0.019932541996240616 -0.25989267230033875 C 219.69313049316406 0.1040392518043518 439.478759765625 -0.45242562890052795 673.3761596679688 -0.11502988636493683 C 666.0472412109375 10.912675857543945 644.9481811523438 35.18201446533203 637.4178466796875 49.270286560058594 C 634.4598999023438 53.2519416809082 611.9073486328125 91.83297729492188 583.4758911132812 83.77334594726562 C 577.6923828125 81.24368286132812 563.1925048828125 71.9537124633789 532.3473510742188 74.38123321533203 C 532.2222290039062 79.09212493896484 526.6607055664062 79.46514892578125 522.1409301757812 72.01933288574219 C 522.6776123046875 68.89776611328125 499.32098388671875 63.92766189575195 499.1419982910156 62.63145065307617 C 493.3085021972656 62.198307037353516 485.87841796875 61.11112976074219 484.22955322265625 68.87727355957031 C 475.2405700683594 72.87284088134766 476.2076110839844 75.94720458984375 476.7768249511719 81.94322967529297 C 484.2665710449219 100.3377685546875 479.58575439453125 119.38945007324219 478.0127868652344 122.15923309326172 C 460.374267578125 117.038818359375 459.1928405761719 114.25737762451172 450.2474365234375 108.33364868164062 C 435.270263671875 107.70475769042969 411.7451171875 102.07927703857422 409.9079284667969 105.13028717041016 C 413.9339904785156 120.20938110351562 418.62481689453125 127.42585754394531 413.87835693359375 139.4037322998047 C 410.3386535644531 152.67111206054688 394.66741943359375 152.34701538085938 394.6695556640625 135.97789001464844 C 381.61370849609375 140.75732421875 379.5457763671875 158.55316162109375 369.46417236328125 157.58062744140625 C 366.28875732421875 156.893798828125 363.4048156738281 158.54977416992188 356.0755615234375 160.70289611816406 C 349.9530334472656 164.62840270996094 347.1903991699219 165.79957580566406 348.9901428222656 171.5432891845703 C 344.6998596191406 178.27137756347656 339.7805480957031 175.20297241210938 347.4666442871094 162.49267578125 C 296.0160827636719 159.0036163330078 295.11138916015625 165.65219116210938 293.373046875 174.88571166992188 C 306.260009765625 185.26873779296875 303.6122131347656 189.16632080078125 307.4815979003906 201.45225524902344 C 307.4582214355469 200.68551635742188 306.2589416503906 198.15586853027344 304.56890869140625 189.89002990722656 C 304.3530578613281 185.75845336914062 303.1050720214844 184.78622436523438 291.33258056640625 172.17030334472656 C 289.7754211425781 194.5676727294922 289.0626525878906 195.96864318847656 289.2739562988281 196.29345703125 C 289.45257568359375 189.92559814453125 291.6554260253906 181.95643615722656 290.56195068359375 170.21966552734375 C 271.40869140625 172.67593383789062 267.56048583984375 178.69046020507812 261.1361999511719 174.833740234375 C 256.482177734375 183.5155487060547 255.9040985107422 189.25387573242188 254.60728454589844 197.2086181640625 C 260.6589050292969 199.36048889160156 260.53131103515625 199.93215942382812 257.9440612792969 199.37371826171875 C 257.125244140625 198.5548553466797 253.80352783203125 196.4020233154297 255.3079833984375 193.9297332763672 C 255.51779174804688 182.51036071777344 261.8713073730469 180.78878784179688 261.07427978515625 164.0625 C 261.006591796875 159.90516662597656 215.97903442382812 142.86094665527344 212.80010986328125 141.58106994628906 C 186.9086151123047 133.90179443359375 195.38441467285156 105.32069396972656 191.20510864257812 86.20258331298828 C 191.56689453125 85.18090057373047 162.1840057373047 73.93675231933594 128.80531311035156 57.976627349853516 C 103.76390075683594 38.99734878540039 75.12177276611328 58.34324264526367 45.122833251953125 58.44355392456055 C 28.96830940246582 70.08674621582031 1.9107614755630493 70.0379638671875 -0.9027963876724243 69.42562866210938 C 0.34183040261268616 43.958133697509766 -0.3314551115036011 22.56187629699707 -0.019932541996240616 -0.25989267230033875" stroke-width="0.0" fill="url(#shape_2_fill)"/>
    <path d="M 87.1957778930664 58.09024429321289 C 89.0850830078125 68.81890106201172 91.53141021728516 69.05573272705078 93.73839569091797 71.70051574707031 C 90.63567352294922 79.98291778564453 92.17557525634766 81.68151092529297 89.18901062011719 93.93392181396484 C 95.99861907958984 85.91787719726562 98.2215805053711 86.37792205810547 102.86922454833984 87.98499298095703 C 104.98140716552734 75.1907730102539 105.72313690185547 73.30323791503906 108.35797882080078 73.41348266601562 C 112.47818756103516 87.69387817382812 110.09085083007812 91.82545471191406 117.3836669921875 98.936279296875 C 116.22820281982422 100.05066680908203 116.59609985351562 109.5227279663086 115.5086669921875 115.18428802490234 C 122.11931610107422 115.3929214477539 128.34213256835938 116.09219360351562 129.6463165283203 111.703125 C 130.94601440429688 110.4805908203125 137.02420043945312 109.8009033203125 136.6626739501953 104.91716766357422 C 136.66912841796875 103.68172454833984 135.5784912109375 101.85530853271484 137.69378662109375 99.18246459960938 C 136.5245361328125 93.28116607666016 137.56617736816406 92.91954803466797 137.619384765625 89.623779296875 C 137.35414123535156 85.36443328857422 138.57394409179688 84.8683090209961 140.09967041015625 88.24989318847656 C 140.5891876220703 83.3558349609375 146.78195190429688 80.55624389648438 148.33731079101562 82.06341552734375 C 148.41888427734375 93.26586151123047 149.90243530273438 94.55033111572266 152.47042846679688 99.35214233398438 C 153.8320770263672 102.79358673095703 149.90171813964844 106.8893814086914 148.8670654296875 106.75972747802734 C 152.4421844482422 109.6163101196289 150.2154541015625 114.01117706298828 148.3191680908203 113.28929138183594 C 154.3747100830078 112.86048889160156 158.11732482910156 122.581298828125 157.17428588867188 123.32768249511719 C 161.26202392578125 124.93980407714844 164.8473358154297 123.44623565673828 169.6788330078125 122.76762390136719 C 174.39501953125 119.73342895507812 175.7869110107422 121.5114974975586 177.64544677734375 122.4881362915039 C 179.33001708984375 122.7040786743164 180.0810546875 125.00762939453125 183.66514587402344 127.36094665527344 C 183.93190002441406 130.09048461914062 182.64242553710938 132.8813934326172 185.1642608642578 134.80050659179688 C 187.9978790283203 135.44639587402344 188.4320068359375 139.64869689941406 188.1826629638672 144.40907287597656 C 196.8203125 148.261962890625 208.92523193359375 153.46981811523438 201.58384704589844 172.5453338623047 C 205.58116149902344 177.0984344482422 206.39044189453125 179.30596923828125 205.57589721679688 181.76812744140625 C 214.7982177734375 181.15609741210938 215.59532165527344 193.09808349609375 212.46975708007812 201.07606506347656 C 204.5378875732422 206.04542541503906 203.0015411376953 206.35293579101562 203.3619384765625 210.31979370117188 C 200.45626831054688 210.44589233398438 200.32974243164062 211.78150939941406 199.21197509765625 213.04449462890625 C 196.1526336669922 215.26473999023438 193.09201049804688 215.24085998535156 192.1957550048828 219.65895080566406 C 184.2791290283203 220.69586181640625 183.616455078125 224.7392578125 178.2360382080078 230.0780487060547 C 176.39036560058594 233.494873046875 181.20896911621094 238.3948211669922 181.08705139160156 239.06040954589844 C 181.8950958251953 252.00924682617188 185.9273223876953 261.2070007324219 179.3612060546875 264.4945983886719 C 171.95755004882812 269.1203308105469 148.83428955078125 268.1240234375 136.13970947265625 269.61724853515625 C 131.2963409423828 268.8851623535156 129.01914978027344 272.2846374511719 122.63855743408203 275.5606689453125 C 109.16939544677734 276.7530212402344 73.32745361328125 275.9443664550781 72.98192596435547 270.10931396484375 C 47.72572326660156 266.7918701171875 56.57452392578125 268.58203125 57.91742706298828 273.5550231933594 C 48.779029846191406 276.4871520996094 1.0576468706130981 272.6217346191406 0.8030030131340027 270.1695861816406 C -6.178597450256348 225.26669311523438 -5.031975269317627 167.4442138671875 2.0167534351348877 122.2850112915039 C 10.758454322814941 117.94507598876953 21.359731674194336 113.91618347167969 26.18252944946289 121.88786315917969 C 27.442279815673828 129.85052490234375 35.72898483276367 129.15585327148438 42.201053619384766 131.9266357421875 C 46.22945022583008 130.2872314453125 47.726524353027344 131.24290466308594 49.51871109008789 142.25328063964844 C 50.41413497924805 149.23814392089844 61.220672607421875 148.51255798339844 62.73919677734375 146.2241668701172 C 62.176353454589844 136.9234619140625 63.136390686035156 134.06443786621094 62.08013153076172 128.24705505371094 C 68.23482513427734 126.65172576904297 67.63732147216797 124.1700210571289 66.33905792236328 112.55486297607422 C 67.98975372314453 111.09830474853516 68.28070068359375 105.69415283203125 74.99417114257812 102.10777282714844 C 75.14397430419922 100.64392852783203 77.8211441040039 90.36077880859375 77.35958862304688 85.84136199951172 C 77.23767852783203 83.35438537597656 77.593017578125 75.22712707519531 85.2623291015625 75.34730529785156 C 83.14818572998047 70.22209930419922 82.77721405029297 67.53836822509766 87.1957778930664 58.09024429321289" stroke-width="0.0" fill="url(#shape_3_fill)"/>
    <path d="M 674.0454711914062 -0.5977967381477356 C 676.1160888671875 47.826377868652344 675.0172119140625 95.90823364257812 681.0285034179688 137.89549255371094 C 679.4590454101562 119.8873062133789 671.8556518554688 120.47346496582031 662.146728515625 120.32267761230469 C 660.3327026367188 119.48382568359375 654.8054809570312 109.49827575683594 650.0241088867188 110.93008422851562 C 648.9240112304688 112.54354858398438 645.0548095703125 149.74356079101562 642.8948974609375 155.7338409423828 C 629.9830322265625 154.70692443847656 627.015625 142.74468994140625 627.0206298828125 138.4900665283203 C 623.0120849609375 137.43887329101562 618.9191284179688 145.35848999023438 615.4058227539062 144.22190856933594 C 611.6814575195312 142.3115692138672 610.163330078125 143.3217010498047 607.8054809570312 141.0234375 C 608.9291381835938 137.32366943359375 613.1278076171875 132.84259033203125 606.1798095703125 117.90394592285156 C 598.7937622070312 134.79083251953125 597.65283203125 139.50022888183594 593.7791748046875 142.42633056640625 C 599.0006103515625 145.94247436523438 598.3340454101562 151.51483154296875 597.338623046875 152.52293395996094 C 588.1812133789062 157.45956420898438 588.3585205078125 164.64439392089844 578.2076416015625 172.3294677734375 C 572.3146362304688 170.13934326171875 569.845947265625 157.67080688476562 568.48388671875 157.10629272460938 C 565.3981323242188 158.09373474121094 563.296875 154.14395141601562 561.8857421875 149.08082580566406 C 560.132080078125 151.18312072753906 556.830322265625 151.2265625 555.2706298828125 155.7398681640625 C 551.8567504882812 155.98899841308594 550.3359375 158.6216583251953 548.8839721679688 157.9798126220703 C 548.341552734375 155.61221313476562 544.98681640625 155.28076171875 536.1032104492188 153.3170928955078 C 531.7765502929688 154.90945434570312 529.9691772460938 159.15939331054688 523.1250610351562 156.9029083251953 C 519.2628173828125 160.51861572265625 520.3182983398438 162.15408325195312 522.8988037109375 169.10919189453125 C 517.6204223632812 168.46368408203125 517.3081665039062 171.0251922607422 516.2581787109375 171.6327362060547 C 511.2713623046875 173.32232666015625 509.8157043457031 175.26531982421875 505.6438903808594 174.399169921875 C 502.7510681152344 171.41038513183594 503.0517578125 169.50987243652344 502.98834228515625 159.3142852783203 C 491.17230224609375 144.8168182373047 505.9793395996094 120.69413757324219 517.4141235351562 126.33983612060547 C 523.7461547851562 125.2815933227539 541.1839599609375 109.68378448486328 548.8062133789062 112.94779205322266 C 557.2705078125 110.72364807128906 556.9256591796875 109.38946533203125 558.9575805664062 108.44313049316406 C 558.8417358398438 108.15731048583984 564.8798828125 102.94563293457031 570.2293701171875 105.0247802734375 C 574.6398315429688 102.45449829101562 573.5097045898438 97.59373474121094 578.9788208007812 93.96636199951172 C 587.7486572265625 88.40957641601562 592.290283203125 77.47604370117188 612.8125 78.48795318603516 C 616.9140625 73.60887908935547 644.557861328125 51.145652770996094 645.8414916992188 35.4127197265625 C 644.93310546875 32.419376373291016 647.9837646484375 30.383522033691406 647.5411376953125 29.492321014404297 C 646.893798828125 28.280614852905273 664.139404296875 -4.240105152130127 674.0454711914062 -0.5977967381477356" stroke-width="0.0" fill="url(#shape_4_fill)"/>
    <path d="M 151.5108642578125 68.62548828125 C 152.2980194091797 69.12854766845703 186.28733825683594 84.94160461425781 192.96896362304688 91.50338745117188 C 178.9495849609375 119.09723663330078 217.594482421875 150.12672424316406 220.93658447265625 154.8333740234375 C 238.92300415039062 169.69186401367188 241.92623901367188 184.47247314453125 240.83522033691406 193.8678436279297 C 238.0514373779297 193.2054443359375 236.1343536376953 186.6539764404297 236.77154541015625 184.06546020507812 C 235.6866455078125 183.53900146484375 234.1551971435547 184.30909729003906 231.06163024902344 182.6837158203125 C 231.8957061767578 183.95335388183594 232.00650024414062 193.67298889160156 228.6473388671875 195.6686553955078 C 227.62100219726562 196.63746643066406 227.5026092529297 205.4172821044922 221.2067108154297 207.67384338378906 C 215.09300231933594 206.5810546875 214.308837890625 197.81155395507812 214.6342010498047 194.9144287109375 C 212.95867919921875 185.4402313232422 211.89569091796875 184.94970703125 206.62603759765625 177.31723022460938 C 205.85023498535156 172.87034606933594 205.9206085205078 167.39320373535156 204.17059326171875 159.27845764160156 C 205.98316955566406 153.5779571533203 194.86273193359375 144.6521759033203 193.4680633544922 141.14028930664062 C 189.1433868408203 140.11439514160156 188.9219207763672 137.05435180664062 186.19020080566406 135.65614318847656 C 178.0218048095703 133.7621307373047 178.83688354492188 127.3250961303711 183.4318389892578 117.1752700805664 C 179.3904571533203 116.42144775390625 177.39796447753906 117.65787506103516 172.94857788085938 117.76896667480469 C 179.5126953125 128.46823120117188 176.1793212890625 130.581787109375 152.0228271484375 130.4149932861328 C 149.25233459472656 128.6329803466797 152.0750732421875 102.54219055175781 154.32012939453125 92.95671844482422 C 152.7159423828125 90.0725326538086 153.29171752929688 87.47451782226562 150.2474365234375 76.25480651855469 C 148.0107421875 75.89830017089844 148.18528747558594 69.226806640625 151.5108642578125 68.62548828125" stroke-width="0.0" fill="url(#shape_5_fill)"/>
    <path d="M 612.8380737304688 80.23114776611328 C 619.0440673828125 83.94960021972656 619.7368774414062 86.61567687988281 632.0836181640625 85.6141357421875 C 636.0330200195312 86.20088958740234 637.0059814453125 88.58210754394531 641.1593627929688 89.31340789794922 C 642.1747436523438 86.82862854003906 665.8705444335938 92.38920593261719 674.9644165039062 98.30374908447266 C 675.4066162109375 110.61923217773438 674.7958984375 125.90557098388672 674.7183227539062 151.76028442382812 C 665.6767578125 142.7283477783203 662.5142211914062 136.86448669433594 660.0245361328125 131.66265869140625 C 659.9329833984375 122.939208984375 660.460205078125 116.64891815185547 653.404541015625 112.22264862060547 C 643.9086303710938 113.65316009521484 644.0242309570312 142.24905395507812 642.6668701171875 142.92861938476562 C 644.1530151367188 144.52159118652344 642.5916137695312 148.18865966796875 644.6174926757812 150.13833618164062 C 640.004638671875 150.78456115722656 637.893798828125 152.739501953125 634.7328491210938 153.5469207763672 C 631.6627807617188 146.1688232421875 629.1817626953125 141.39541625976562 630.062744140625 140.54295349121094 C 628.7757568359375 137.49026489257812 621.985595703125 136.53195190429688 621.1013793945312 138.9587860107422 C 618.4917602539062 140.63221740722656 619.3317260742188 142.43800354003906 618.3098754882812 149.06895446777344 C 613.774169921875 144.72157287597656 613.2664794921875 143.21315002441406 609.6710815429688 143.65768432617188 C 608.486328125 140.4076385498047 609.5450439453125 139.2416229248047 608.98095703125 137.3318328857422 C 606.429931640625 132.4300079345703 604.8714599609375 126.9611587524414 600.043212890625 128.07257080078125 C 605.75146484375 133.75686645507812 595.2808837890625 148.16900634765625 592.2250366210938 154.18699645996094 C 590.357177734375 163.74053955078125 588.8741455078125 163.92259216308594 585.8043823242188 169.14093017578125 C 584.6889038085938 167.56594848632812 584.083251953125 166.64231872558594 589.3395385742188 154.40438842773438 C 592.3953247070312 142.51388549804688 588.1526489257812 141.2747039794922 574.6520385742188 136.46914672851562 C 572.7959594726562 157.48329162597656 556.905029296875 156.291748046875 555.974365234375 151.3165283203125 C 555.8169555664062 152.88734436035156 553.068115234375 154.7003631591797 552.9521484375 157.8265838623047 C 551.40966796875 161.49530029296875 548.0715942382812 160.91702270507812 547.3682250976562 159.28353881835938 C 544.4039306640625 156.48805236816406 542.7256469726562 153.84530639648438 537.8898315429688 156.51622009277344 C 535.3970947265625 158.46444702148438 531.0942993164062 157.7008056640625 529.3583374023438 158.27642822265625 C 526.4417114257812 159.51165771484375 526.6937255859375 163.18695068359375 525.6787719726562 166.64501953125 C 524.6240234375 169.51695251464844 523.6096801757812 171.59278869628906 519.0296020507812 173.08775329589844 C 509.05279541015625 178.44998168945312 497.7147216796875 179.15711975097656 484.4858093261719 157.66464233398438 C 480.1261291503906 136.46826171875 500.319580078125 118.86076354980469 514.1005249023438 118.36415100097656 C 528.8660888671875 127.62596893310547 541.2968139648438 107.941162109375 548.4802856445312 111.75677490234375 C 555.934326171875 110.42044067382812 561.6331787109375 110.42239379882812 564.1679077148438 106.93303680419922 C 564.6309204101562 104.46343994140625 566.4898071289062 103.50318145751953 569.8092651367188 104.62726593017578 C 573.2630004882812 101.06661987304688 578.8529052734375 98.90502166748047 587.01953125 98.84442901611328 C 600.647216796875 93.37725067138672 603.4417724609375 80.02690887451172 612.8380737304688 80.23114776611328" stroke-width="0.0" fill="url(#shape_6_fill)"/>
    <path d="M 0.4391648769378662 96.04481506347656 C 41.155296325683594 108.3785171508789 45.289188385009766 118.8895034790039 50.2159538269043 138.56956481933594 C 81.51140594482422 153.38006591796875 53.20096206665039 213.44390869140625 39.80744934082031 248.9816436767578 C 51.600555419921875 259.9911804199219 48.54777526855469 264.570068359375 48.91328430175781 264.9295959472656 C 50.02464294433594 256.5420837402344 30.169252395629883 251.03762817382812 17.408910751342773 245.35772705078125 C 6.2164106369018555 200.48875427246094 -9.200610160827637 171.8971710205078 0.4391648769378662 96.04481506347656" stroke-width="0.0" fill="url(#shape_7_fill)"/>
    <path d="M 384.5586853027344 197.32069396972656 C 425.7132263183594 187.36402893066406 426.38433837890625 189.95240783691406 429.99066162109375 204.26556396484375 C 476.29547119140625 188.5403594970703 497.9040222167969 203.0850067138672 491.5102844238281 230.2646026611328 C 490.987060546875 250.4952392578125 486.2676086425781 251.50889587402344 484.875 252.43096923828125 C 486.0140380859375 259.0749816894531 482.56390380859375 268.90814208984375 476.97052001953125 268.86492919921875 C 469.04290771484375 272.9302978515625 453.2210388183594 266.7112731933594 451.6457824707031 269.7130432128906 C 447.1316833496094 266.2847595214844 448.3494873046875 261.229248046875 449.1329345703125 260.14703369140625 C 439.25592041015625 264.7968444824219 436.51837158203125 261.4443664550781 437.45745849609375 256.7797546386719 C 427.0240478515625 256.8029479980469 425.7018737792969 259.5240783691406 421.086181640625 262.0452575683594 C 418.546875 264.236083984375 417.7369384765625 267.75091552734375 414.9557800292969 273.6708068847656 C 414.1095275878906 272.1645812988281 392.3257751464844 269.3525695800781 392.5311584472656 264.22637939453125 C 391.81707763671875 265.14794921875 388.88262939453125 263.4083557128906 385.5828552246094 264.0593566894531 C 382.1018371582031 261.9908142089844 380.81036376953125 263.2209167480469 376.4275817871094 261.1710205078125 C 374.84423828125 256.360595703125 376.0040283203125 252.63104248046875 371.0216979980469 250.7080841064453 C 359.7787170410156 243.2821044921875 374.28045654296875 195.3094024658203 378.443115234375 177.14288330078125 C 385.0585021972656 171.23263549804688 394.2231750488281 176.62550354003906 384.5586853027344 197.32069396972656" stroke-width="0.0" fill="url(#shape_8_fill)"/>
    <path d="M 566.439697265625 157.184326171875 C 568.0502319335938 158.93861389160156 568.1333618164062 166.62057495117188 569.3677978515625 168.01315307617188 C 573.4970092773438 169.4881591796875 573.6261596679688 171.0394744873047 577.4024658203125 174.50331115722656 C 581.9307250976562 172.94601440429688 583.9710693359375 174.56983947753906 583.7080688476562 179.472412109375 C 575.39208984375 180.47567749023438 572.263427734375 225.61309814453125 577.4976196289062 226.960693359375 C 577.869384765625 229.97352600097656 581.292236328125 235.69322204589844 576.5237426757812 241.8271942138672 C 568.8125610351562 238.35891723632812 566.8744506835938 237.06787109375 559.3191528320312 247.4076385498047 C 553.2775268554688 249.50289916992188 498.1224060058594 255.01234436035156 486.3211669921875 251.16232299804688 C 486.39984130859375 250.33746337890625 487.8742980957031 240.82301330566406 498.87506103515625 231.90771484375 C 486.3358459472656 226.42982482910156 483.1455383300781 222.36427307128906 482.28814697265625 215.3890380859375 C 477.0466003417969 210.0043487548828 479.6097717285156 205.90066528320312 482.848876953125 206.0044708251953 C 480.218994140625 205.3547821044922 481.705810546875 199.2356719970703 490.7384338378906 199.2449493408203 C 492.163818359375 196.35438537597656 491.8121337890625 192.52383422851562 492.4616394042969 188.0979766845703 C 488.4007568359375 174.2974395751953 488.6335144042969 173.35031127929688 487.9471130371094 164.22515869140625 C 504.0532531738281 164.41456604003906 505.63092041015625 164.65328979492188 514.2786865234375 162.44940185546875 C 522.45654296875 169.11038208007812 524.5949096679688 167.6808624267578 526.4139404296875 167.27781677246094 C 523.6194458007812 161.61801147460938 531.1974487304688 157.277099609375 533.31982421875 158.79388427734375 C 537.555419921875 161.91299438476562 541.3392333984375 162.51072692871094 542.0993041992188 164.049560546875 C 545.1626586914062 164.11444091796875 545.72802734375 165.94590759277344 549.91943359375 166.84915161132812 C 548.97802734375 165.5981903076172 550.4487915039062 157.87890625 554.8499145507812 157.93746948242188 C 557.9251098632812 161.04173278808594 563.0834350585938 157.95907592773438 566.439697265625 157.184326171875" stroke-width="0.0" fill="url(#shape_9_fill)"/>
    <path d="M 561.4383544921875 156.8038787841797 C 565.3352661132812 152.79896545410156 571.2044677734375 157.61619567871094 570.9491577148438 172.78359985351562 C 572.3745727539062 169.19204711914062 576.3878173828125 169.1760711669922 579.626708984375 174.30624389648438 C 580.551513671875 178.1180419921875 578.916015625 187.3743438720703 579.3094482421875 191.0877685546875 C 571.3535766601562 196.34915161132812 572.0446166992188 229.9691925048828 578.1067504882812 230.9755401611328 C 576.074951171875 231.1610107421875 575.6162109375 236.85194396972656 572.0869750976562 237.9969482421875 C 560.3973388671875 235.83456420898438 567.19677734375 238.6806182861328 563.5811767578125 247.54864501953125 C 547.7647705078125 253.35545349121094 501.29052734375 249.25637817382812 500.19708251953125 251.80340576171875 C 491.1516418457031 251.8320770263672 488.0149841308594 237.60943603515625 497.92779541015625 231.98849487304688 C 486.6487121582031 224.85682678222656 481.98089599609375 219.2803497314453 481.7959289550781 214.8292999267578 C 475.8459777832031 215.33360290527344 472.88433837890625 214.90089416503906 464.5411071777344 197.4279022216797 C 464.3941650390625 179.75790405273438 479.0472717285156 176.87255859375 482.6820983886719 195.3539581298828 C 489.7424621582031 197.78794860839844 494.64556884765625 184.54623413085938 496.6184387207031 182.95309448242188 C 495.3006591796875 178.86282348632812 497.5860900878906 177.68406677246094 500.1652526855469 177.4681854248047 C 507.939453125 179.12179565429688 516.5744018554688 181.7198028564453 520.9397583007812 174.13623046875 C 524.6290893554688 173.45008850097656 527.7550048828125 159.49398803710938 530.304443359375 154.807861328125 C 538.891845703125 155.65505981445312 538.8766479492188 156.9846649169922 538.0216064453125 166.0062255859375 C 545.7593383789062 165.99560546875 549.0628051757812 167.47340393066406 551.4359741210938 166.51641845703125 C 550.9286499023438 155.5319061279297 552.8743286132812 153.02818298339844 561.4383544921875 156.8038787841797" stroke-width="0.0" fill="url(#shape_10_fill)"/>
    <path d="M 444.0141296386719 109.17345428466797 C 452.7062683105469 114.63072204589844 453.4205017089844 115.24995422363281 462.4605407714844 108.83242797851562 C 466.32171630859375 115.2152328491211 469.090087890625 113.90705108642578 486.46240234375 108.4076919555664 C 489.2589111328125 124.43489837646484 488.6883850097656 125.26419067382812 492.3283386230469 130.61984252929688 C 493.49224853515625 132.17701721191406 493.45477294921875 135.51394653320312 496.752685546875 136.40264892578125 C 493.92388916015625 135.55055236816406 492.8738708496094 138.31622314453125 489.96881103515625 141.4916229248047 C 483.4822998046875 138.3828887939453 482.2655334472656 140.5970458984375 480.3453674316406 142.66455078125 C 468.6072998046875 137.26954650878906 466.8352966308594 136.1256103515625 465.5947570800781 134.45481872558594 C 464.280029296875 133.58270263671875 460.74395751953125 133.64340209960938 460.56317138671875 134.12554931640625 C 461.5514221191406 132.74649047851562 480.1583251953125 142.1318817138672 497.1103820800781 152.4986572265625 C 476.7779846191406 177.01060485839844 475.6502380371094 177.35806274414062 477.7149658203125 184.19540405273438 C 467.8385009765625 183.5130157470703 467.3724365234375 188.64715576171875 465.1919860839844 190.12413024902344 C 462.8700866699219 184.78082275390625 460.9185485839844 172.54481506347656 460.8738708496094 162.76316833496094 C 448.4679260253906 181.2930908203125 447.52239990234375 182.4728240966797 439.857421875 183.0901336669922 C 439.2645263671875 183.8373565673828 435.74237060546875 195.6882781982422 434.88116455078125 197.5252685546875 C 428.8411865234375 200.37098693847656 417.5719909667969 180.5703125 417.69573974609375 179.77720642089844 C 416.9325866699219 179.86929321289062 398.4135437011719 180.91030883789062 397.91290283203125 174.1464385986328 C 393.9783935546875 171.74183654785156 389.7821960449219 176.57894897460938 379.4418640136719 174.6783447265625 C 382.8428649902344 157.41558837890625 379.42425537109375 152.21250915527344 392.07965087890625 138.88893127441406 C 398.34832763671875 138.2129669189453 399.8056945800781 130.174072265625 402.8115539550781 120.19215393066406 C 406.7936096191406 98.69788360595703 424.7214660644531 101.38604736328125 444.0141296386719 109.17345428466797" stroke-width="0.0" fill="url(#shape_11_fill)"/>
    <path d="M 602.8045043945312 127.79693603515625 C 605.929931640625 129.79736328125 605.3333740234375 143.37120056152344 606.9024047851562 145.303955078125 C 610.9563598632812 145.84153747558594 611.2882080078125 150.11013793945312 616.7301025390625 153.4928436279297 C 618.2515869140625 149.93556213378906 618.081787109375 141.87049865722656 622.0341186523438 141.43435668945312 C 623.0011596679688 137.3402099609375 625.4730224609375 137.24636840820312 627.2883911132812 140.31895446777344 C 627.2389526367188 142.19374084472656 628.906982421875 144.80596923828125 629.0374145507812 147.2180938720703 C 632.0895385742188 149.7802734375 631.7081298828125 151.22491455078125 636.0330810546875 153.84567260742188 C 642.267333984375 154.35989379882812 642.0543823242188 160.1396026611328 648.571533203125 172.68077087402344 C 639.430419921875 185.59519958496094 640.2166748046875 195.02880859375 640.6820068359375 206.4878692626953 C 655.6510620117188 210.2345428466797 656.854736328125 238.7678985595703 642.4869384765625 245.35777282714844 C 622.5126953125 248.10128784179688 611.5857543945312 249.00999450683594 579.3733520507812 265.4599609375 C 573.0189208984375 253.44635009765625 580.9686279296875 230.45993041992188 573.9144287109375 217.49879455566406 C 568.048583984375 209.03646850585938 571.65966796875 168.89688110351562 583.44775390625 169.72091674804688 C 596.996337890625 163.44606018066406 599.7836303710938 143.29367065429688 600.1563110351562 142.1647491455078 C 595.7659912109375 139.92152404785156 596.4981689453125 137.1898651123047 602.8045043945312 127.79693603515625" stroke-width="0.0" fill="url(#shape_12_fill)"/>
    <path d="M 411.8431091308594 176.55166625976562 C 419.3475646972656 174.3306427001953 434.12127685546875 213.4202117919922 428.7669677734375 219.9816131591797 C 419.60986328125 228.04428100585938 427.60369873046875 237.14312744140625 431.5106506347656 242.09857177734375 C 429.74212646484375 261.0259704589844 419.1636047363281 271.3163757324219 413.36944580078125 267.8791809082031 C 406.7137145996094 264.8083190917969 401.894287109375 271.7795715332031 390.9095458984375 268.266357421875 C 385.62890625 264.8322448730469 382.5892639160156 266.1103210449219 379.267822265625 265.8202209472656 C 374.3320007324219 264.9772033691406 373.7769470214844 261.6622314453125 374.69305419921875 258.2579345703125 C 376.3287353515625 256.00848388671875 374.7947998046875 254.8483428955078 374.7666015625 253.72802734375 C 371.4444885253906 255.3867950439453 369.38873291015625 251.5343475341797 368.2436218261719 252.05413818359375 C 360.70269775390625 248.0232391357422 366.5067443847656 229.26712036132812 367.2515563964844 221.9517059326172 C 369.5462341308594 219.03819274902344 371.9705810546875 202.66116333007812 382.02789306640625 203.11593627929688 C 378.6489562988281 193.96266174316406 379.84930419921875 191.88905334472656 389.9039001464844 191.35679626464844 C 391.13739013671875 177.55758666992188 392.8420104980469 176.7812042236328 411.8431091308594 176.55166625976562" stroke-width="0.0" fill="url(#shape_13_fill)"/>
    <path d="M 507.15728759765625 67.3671875 C 510.2992858886719 67.49164581298828 517.4906005859375 72.49588775634766 518.932861328125 81.24673461914062 C 531.076416015625 79.40473175048828 535.1971435546875 79.89175415039062 537.5355834960938 86.33326721191406 C 539.6245727539062 90.7696762084961 544.54443359375 90.26559448242188 545.0235595703125 91.17337799072266 C 545.53662109375 92.74126434326172 556.187255859375 96.8075942993164 559.260498046875 95.51014709472656 C 563.42919921875 97.61231231689453 567.3635864257812 97.45256042480469 568.6226806640625 98.38720703125 C 563.5344848632812 105.8504638671875 558.736572265625 116.47718048095703 539.720703125 110.1682357788086 C 541.3147583007812 111.82981872558594 539.4073486328125 114.99414825439453 534.6907958984375 118.4184799194336 C 527.5260620117188 120.47895050048828 519.7085571289062 124.56897735595703 515.6873168945312 118.60314178466797 C 512.1774291992188 121.39117431640625 501.66937255859375 125.77865600585938 500.16748046875 126.60216522216797 C 497.9776306152344 129.29185485839844 494.1477966308594 128.9673614501953 489.7965087890625 126.93132781982422 C 489.3193359375 117.92776489257812 468.8504943847656 118.42565155029297 468.15118408203125 117.47526550292969 C 463.52850341796875 117.82257843017578 462.9188232421875 116.6661605834961 462.05316162109375 116.23580932617188 C 470.8411865234375 120.13785552978516 474.08209228515625 114.48957061767578 477.28265380859375 110.06250762939453 C 473.250732421875 95.78314208984375 472.7982482910156 85.62621307373047 474.4770812988281 81.78338623046875 C 474.5887145996094 70.93318176269531 475.3413391113281 70.38556671142578 477.61737060546875 66.17822265625 C 478.4930725097656 63.7547607421875 482.4334716796875 63.74258804321289 484.0348815917969 63.23798370361328 C 495.82867431640625 63.78511428833008 504.4228515625 60.759090423583984 507.15728759765625 67.3671875" stroke-width="0.0" fill="url(#shape_14_fill)"/>
    <path d="M 534.401123046875 161.47149658203125 C 543.9873657226562 162.46002197265625 544.299072265625 163.2590789794922 546.5699462890625 165.0835418701172 C 549.7637939453125 167.558837890625 549.6087646484375 170.19061279296875 543.7709350585938 180.65118408203125 C 542.7528076171875 190.13955688476562 537.1734619140625 231.6238250732422 536.6868286132812 233.0308380126953 C 541.1068725585938 238.50274658203125 541.0423583984375 252.39300537109375 518.2710571289062 252.4214630126953 C 502.77642822265625 251.5872039794922 482.64154052734375 242.76171875 487.965576171875 230.55101013183594 C 476.4368591308594 219.4148712158203 478.9869079589844 208.4358367919922 482.8897399902344 201.58152770996094 C 486.4480285644531 197.5040283203125 487.98773193359375 197.46530151367188 488.8603820800781 199.07582092285156 C 482.72247314453125 195.6429443359375 488.8110656738281 184.17050170898438 487.39703369140625 173.38131713867188 C 487.7693786621094 167.359375 488.84930419921875 166.0924530029297 490.66998291015625 167.32666015625 C 505.5042724609375 178.92970275878906 511.26165771484375 184.17823791503906 522.73974609375 172.73648071289062 C 525.5556030273438 170.96127319335938 525.5213623046875 167.29505920410156 526.5775756835938 165.06472778320312 C 525.2499389648438 159.41465759277344 528.6138305664062 158.53460693359375 534.401123046875 161.47149658203125" stroke-width="0.0" fill="url(#shape_15_fill)"/>
    <path d="M 651.6061401367188 109.58834075927734 C 653.9086303710938 110.52523803710938 664.1416625976562 121.68511962890625 659.7057495117188 132.81539916992188 C 663.9758911132812 136.38385009765625 664.458984375 143.615234375 673.292236328125 147.90367126464844 C 676.9541625976562 179.14010620117188 673.67236328125 211.23541259765625 676.1876220703125 267.043701171875 C 675.0601806640625 265.4271545410156 635.565185546875 272.98333740234375 630.5518188476562 264.1010437011719 C 636.9679565429688 245.19508361816406 643.0607299804688 123.9400405883789 651.6061401367188 109.58834075927734" stroke-width="0.0" fill="url(#shape_16_fill)"/>
    <path d="M 601.4414672851562 129.14671325683594 C 603.7047729492188 128.457275390625 606.0323486328125 131.71884155273438 606.2096557617188 134.06544494628906 C 608.919677734375 135.08853149414062 606.9852905273438 141.55258178710938 609.2044677734375 143.75079345703125 C 628.79638671875 143.2024688720703 631.6575317382812 216.36972045898438 633.2639770507812 270.1334228515625 C 579.0892944335938 274.9196472167969 573.9619750976562 267.3624572753906 579.3010864257812 242.0006561279297 C 560.5543823242188 226.1048126220703 598.3380126953125 155.62701416015625 601.4414672851562 129.14671325683594" stroke-width="0.0" fill="url(#shape_17_fill)"/>
    <path d="M 320.3742980957031 186.2135009765625 C 321.2947692871094 186.47203063964844 321.7849426269531 189.28732299804688 321.26318359375 199.931396484375 C 331.8621520996094 193.70787048339844 332.8650207519531 193.1704864501953 337.2950134277344 196.1281280517578 C 344.6334533691406 199.88963317871094 346.506103515625 197.88816833496094 354.476806640625 192.1734161376953 C 358.6792297363281 192.4894561767578 359.64056396484375 194.41209411621094 356.3269348144531 201.89395141601562 C 359.3797607421875 204.10948181152344 361.60955810546875 204.1971435546875 364.7128601074219 210.07615661621094 C 367.30462646484375 207.2655029296875 368.5858154296875 207.99354553222656 368.2316589355469 211.7792205810547 C 370.19342041015625 220.07247924804688 370.29364013671875 223.04209899902344 366.0493469238281 225.5800323486328 C 365.88983154296875 231.37623596191406 363.7210388183594 236.5841522216797 366.65966796875 247.89718627929688 C 369.88214111328125 253.1345672607422 367.1787414550781 255.94891357421875 358.0176696777344 254.60882568359375 C 354.2177734375 255.84207153320312 324.7506408691406 254.96868896484375 323.2747802734375 255.3529815673828 C 313.30133056640625 256.0811462402344 312.0334777832031 253.7738494873047 308.5367431640625 244.2903289794922 C 304.0658264160156 229.41383361816406 320.9283142089844 195.12962341308594 320.3742980957031 186.2135009765625" stroke-width="0.0" fill="url(#shape_18_fill)"/>
    <path d="M 481.161865234375 226.16033935546875 C 503.9495849609375 251.49266052246094 514.1854248046875 264.19189453125 494.495849609375 280.10809326171875 C 470.39837646484375 279.7016296386719 443.96551513671875 261.65447998046875 442.1180419921875 261.8289489746094 C 438.78314208984375 260.49688720703125 437.1780090332031 258.2248229980469 432.706298828125 258.00274658203125 C 429.59625244140625 258.5486145019531 428.27349853515625 256.7383728027344 429.6791687011719 253.8806610107422 C 432.4563293457031 237.314453125 423.2371826171875 233.712646484375 422.94134521484375 229.7101287841797 C 423.1595153808594 226.88546752929688 421.10498046875 226.72381591796875 420.21075439453125 225.0789337158203 C 427.8010559082031 219.63633728027344 429.7006530761719 218.8798370361328 428.0987548828125 214.73941040039062 C 442.1153869628906 197.5744171142578 479.4517517089844 197.06857299804688 481.161865234375 226.16033935546875" stroke-width="0.0" fill="url(#shape_19_fill)"/>
    <path d="M 673.911865234375 -2.99900221824646 C 675.0673828125 32.84956741333008 674.5833740234375 64.76375579833984 674.5172119140625 97.21871185302734 C 669.4258422851562 96.09063720703125 652.4277954101562 87.63762664794922 645.3716430664062 90.06241607666016 C 638.5917358398438 89.49964904785156 638.1127319335938 86.03056335449219 637.3927001953125 84.17562103271484 C 626.1461791992188 84.30963134765625 620.3342895507812 93.25457000732422 608.145263671875 86.56491088867188 C 609.9804077148438 74.7594223022461 612.2720336914062 73.61483001708984 614.441650390625 71.56888580322266 C 622.599365234375 68.85800170898438 648.68994140625 25.099550247192383 647.50341796875 20.697341918945312 C 655.37646484375 8.946549415588379 656.50830078125 2.5990142822265625 668.8063354492188 3.476362705230713 C 669.824462890625 2.689283847808838 670.10009765625 1.064513087272644 673.911865234375 -2.99900221824646" stroke-width="0.0" fill="url(#shape_20_fill)"/>
    <path d="M 561.7219848632812 155.96450805664062 C 569.855712890625 156.4644775390625 570.0440673828125 161.29745483398438 572.6080322265625 165.6922607421875 C 582.7986450195312 168.35035705566406 573.318603515625 230.81979370117188 577.32421875 240.57711791992188 C 578.068603515625 244.88011169433594 577.4171142578125 246.91673278808594 577.9705200195312 269.5276794433594 C 541.4010620117188 266.5458068847656 537.850341796875 262.428955078125 539.602294921875 247.33480834960938 C 545.2034301757812 244.75108337402344 545.4593505859375 166.6466064453125 555.074462890625 156.79132080078125 C 555.5152587890625 152.9929962158203 559.6107177734375 151.58692932128906 561.7219848632812 155.96450805664062" stroke-width="0.0" fill="url(#shape_21_fill)"/>
    <path d="M 214.99368286132812 209.91358947753906 C 234.55694580078125 208.712890625 237.76390075683594 242.4335174560547 224.55450439453125 257.78265380859375 C 211.6363067626953 263.2366943359375 209.31500244140625 263.8544616699219 208.8932647705078 273.10906982421875 C 205.8485107421875 275.32562255859375 206.7754669189453 277.09100341796875 205.81353759765625 279.791748046875 C 206.650634765625 282.8557434082031 203.11671447753906 285.7012634277344 201.57049560546875 284.9314880371094 C 201.66085815429688 283.1497497558594 190.46881103515625 272.5625915527344 188.15371704101562 264.01556396484375 C 186.87667846679688 261.5444641113281 183.86349487304688 262.9261474609375 181.4740447998047 262.967529296875 C 180.9141387939453 260.4435119628906 180.38377380371094 260.5079345703125 178.25221252441406 251.22967529296875 C 179.16281127929688 248.41580200195312 169.20875549316406 242.305908203125 170.4146270751953 238.0764617919922 C 175.6602325439453 213.84681701660156 177.116943359375 212.5477294921875 185.47337341308594 220.5755615234375 C 193.75814819335938 219.66004943847656 194.11553955078125 215.1232147216797 198.32901000976562 213.24449157714844 C 184.78945922851562 206.10488891601562 184.85714721679688 200.77992248535156 201.8957061767578 197.0852508544922 C 213.4503173828125 192.8272247314453 214.81539916992188 195.64271545410156 214.99368286132812 209.91358947753906" stroke-width="0.0" fill="url(#shape_22_fill)"/>
    <path d="M 111.64649200439453 426.25616455078125 C 112.73579406738281 429.28204345703125 111.02450561523438 431.2012634277344 110.65801239013672 431.4425964355469 C 104.96302795410156 432.6441955566406 103.22746276855469 433.7848815917969 91.91822052001953 433.0836486816406 C 89.76980590820312 435.96905517578125 95.6705551147461 446.421630859375 91.60075378417969 452.1399841308594 C 78.66380310058594 444.9972229003906 46.938175201416016 447.9271240234375 25.176143646240234 449.6246032714844 C 14.033733367919922 446.2111511230469 13.894529342651367 439.75830078125 17.878503799438477 436.39666748046875 C 34.97475814819336 427.6043395996094 49.88462448120117 426.6294860839844 73.1841049194336 427.0590515136719 C 73.69226837158203 423.8871765136719 109.99284362792969 420.5604248046875 111.64649200439453 426.25616455078125" stroke-width="0.0" fill="url(#shape_23_fill)"/>
    <path d="M 194.26136779785156 123.60819244384766 C 201.64662170410156 123.88636016845703 212.53749084472656 143.87269592285156 214.80397033691406 145.27540588378906 C 215.599853515625 148.45901489257812 218.5891571044922 149.71533203125 220.6531524658203 154.07498168945312 C 227.32235717773438 158.4623260498047 247.73251342773438 177.7628173828125 244.79127502441406 199.00035095214844 C 239.16163635253906 199.55938720703125 235.6789093017578 186.96839904785156 232.29100036621094 179.8528289794922 C 234.81927490234375 187.1549835205078 233.40078735351562 195.95480346679688 230.5296173095703 197.12298583984375 C 228.083984375 197.1962890625 225.91482543945312 202.74720764160156 220.19960021972656 208.71688842773438 C 214.88369750976562 207.76531982421875 213.276123046875 202.67706298828125 212.6375274658203 198.16647338867188 C 211.80552673339844 190.59912109375 211.89419555664062 183.301025390625 206.91156005859375 177.65798950195312 C 203.88357543945312 174.0399169921875 204.93601989746094 173.0072479248047 205.60025024414062 167.2336883544922 C 202.48809814453125 147.5585174560547 199.39976501464844 146.9620361328125 192.2584991455078 143.86170959472656 C 189.4188232421875 142.39324951171875 191.5 128.49732971191406 194.26136779785156 123.60819244384766" stroke-width="0.0" fill="url(#shape_24_fill)"/>
    <path d="M 593.89794921875 405.16253662109375 C 599.77783203125 408.23870849609375 628.4073486328125 406.3857116699219 632.8148803710938 412.18927001953125 C 632.5059814453125 422.26025390625 628.8214721679688 426.04461669921875 628.8439331054688 426.3785400390625 C 630.5435180664062 427.8294982910156 636.0258178710938 428.05078125 639.7626953125 436.77899169921875 C 618.6021728515625 447.7384338378906 578.5524291992188 438.8569641113281 572.5204467773438 434.89703369140625 C 567.7219848632812 427.2104187011719 573.87255859375 419.5593566894531 576.8222045898438 413.28704833984375 C 579.1805419921875 409.887939453125 587.0618286132812 414.6781921386719 593.89794921875 405.16253662109375" stroke-width="0.0" fill="url(#shape_25_fill)"/>
    <path d="M 142.92494201660156 66.78150177001953 C 144.06568908691406 68.91685485839844 149.17181396484375 67.97809600830078 149.6287078857422 69.07722473144531 C 148.8928680419922 70.90038299560547 150.4641571044922 71.82284545898438 149.7075653076172 73.89289855957031 C 151.12596130371094 74.46045684814453 150.16139221191406 78.58820343017578 149.57080078125 84.73699188232422 C 150.36822509765625 92.15863800048828 154.1859130859375 96.3590316772461 153.6759796142578 104.1172866821289 C 153.4512939453125 107.63299560546875 155.13145446777344 108.51237487792969 155.61593627929688 111.11878204345703 C 157.7505340576172 123.34806060791016 155.02671813964844 133.51504516601562 150.3424835205078 133.60240173339844 C 142.16123962402344 127.50328063964844 137.2337188720703 119.6565933227539 126.13945007324219 116.89976501464844 C 122.37914276123047 113.9739761352539 124.05928802490234 109.36776733398438 126.42967987060547 107.39051818847656 C 128.59127807617188 106.78565979003906 129.03533935546875 105.27993774414062 132.62588500976562 104.75984954833984 C 138.37623596191406 96.72969818115234 134.92562866210938 92.84220123291016 132.9847412109375 89.08103942871094 C 134.05569458007812 88.28372192382812 139.34707641601562 87.432373046875 140.22625732421875 85.36331939697266 C 138.31788635253906 84.74037170410156 138.7530517578125 77.63922882080078 139.55157470703125 77.48784637451172 C 143.7888641357422 76.61600494384766 142.79763793945312 70.583251953125 142.92494201660156 66.78150177001953" stroke-width="0.0" fill="url(#shape_26_fill)"/>
    <path d="M 139.55345153808594 67.76187896728516 C 149.02574157714844 66.89714050292969 149.631103515625 68.07171630859375 148.74342346191406 77.16667175292969 C 150.49790954589844 78.29714965820312 151.1255645751953 80.70742797851562 154.90191650390625 85.27837371826172 C 150.031005859375 90.44139862060547 154.9852752685547 95.40961456298828 150.9210662841797 105.23887634277344 C 152.81350708007812 106.00113677978516 153.64584350585938 109.4619369506836 155.58975219726562 112.57989501953125 C 152.79702758789062 116.66361236572266 158.01095581054688 122.5949935913086 154.15472412109375 126.2405014038086 C 152.51052856445312 132.0169219970703 151.31260681152344 133.1667022705078 147.5243377685547 134.14810180664062 C 141.86734008789062 131.20387268066406 128.32144165039062 122.06716918945312 129.40090942382812 117.57911682128906 C 124.68608856201172 118.52068328857422 122.53849792480469 112.86852264404297 128.3684844970703 110.53378295898438 C 122.76835632324219 108.1050033569336 124.42303466796875 104.24897766113281 133.44544982910156 107.54645538330078 C 136.6193389892578 105.79978942871094 133.38284301757812 92.7123794555664 132.7855987548828 89.08607482910156 C 139.4116973876953 87.49787139892578 138.920166015625 85.05242156982422 138.90859985351562 81.2435531616211 C 139.0689697265625 77.49593353271484 140.363037109375 76.80984497070312 142.3859405517578 78.2166519165039 C 145.32769775390625 71.95471954345703 142.6177215576172 70.47257995605469 139.55345153808594 67.76187896728516" stroke-width="0.0" fill="url(#shape_27_fill)"/>
    <path d="M -0.38012710213661194 -0.2755143344402313 C 4.72027587890625 0.3860493302345276 9.673687934875488 -0.5301564931869507 18.790647506713867 -0.9079091548919678 C 25.52078628540039 -1.7132377624511719 25.940853118896484 -0.86495041847229 51.84074020385742 0.5117858052253723 C 47.65904235839844 25.829954147338867 28.4480037689209 24.081546783447266 27.88005256652832 25.52399444580078 C 55.50712203979492 12.483877182006836 64.15266418457031 12.515426635742188 66.51541137695312 56.691776275634766 C 36.32337951660156 58.495086669921875 23.46002960205078 59.46989822387695 19.598642349243164 52.1108512878418 C 15.84603214263916 39.360633850097656 11.322765350341797 38.31244659423828 9.982847213745117 33.621891021728516 C 10.076803207397461 35.79902648925781 14.536131858825684 39.256591796875 14.573928833007812 41.04397964477539 C 16.05322265625 42.19514846801758 15.810163497924805 44.82270431518555 18.18353271484375 47.874053955078125 C 20.08061981201172 51.0703125 18.77144432067871 52.30447006225586 21.850595474243164 57.22027587890625 C 22.111034393310547 67.35757446289062 15.6347074508667 69.53453826904297 8.15761661529541 61.627952575683594 C 5.4752020835876465 60.894962310791016 3.534381151199341 59.140830993652344 0.3191271722316742 59.440330505371094 C -0.31935665011405945 39.790279388427734 -0.3249574303627014 19.631879806518555 -0.38012710213661194 -0.2755143344402313" stroke-width="0.0" fill="url(#shape_28_fill)"/>
    <path d="M 298.84490966796875 197.19482421875 C 297.91229248046875 199.4720916748047 300.4593505859375 202.21910095214844 301.6182861328125 208.61474609375 C 299.8533630371094 214.03225708007812 326.31103515625 222.8478240966797 316.1270751953125 255.5526123046875 C 311.883544921875 254.63458251953125 310.6033020019531 255.76329040527344 304.83892822265625 255.0319366455078 C 303.6391296386719 257.77685546875 295.27899169921875 258.8836669921875 281.1370544433594 255.92861938476562 C 277.3288879394531 223.44076538085938 284.7424011230469 221.31251525878906 298.84490966796875 197.19482421875" stroke-width="0.0" fill="url(#shape_29_fill)"/>
    <path d="M 0.003282520454376936 -0.12805914878845215 C 4.569552421569824 0.4482818841934204 9.75270938873291 -0.4117971658706665 14.700244903564453 0.10287555307149887 C 15.927660942077637 0.4778243899345398 16.703998565673828 3.0266761779785156 16.553682327270508 7.957594871520996 C 18.794675827026367 10.965121269226074 21.596744537353516 19.055438995361328 27.582822799682617 20.552396774291992 C 27.22701072692871 22.550752639770508 23.839656829833984 26.67528533935547 24.862634658813477 32.033790588378906 C 20.171188354492188 32.581363677978516 12.034632682800293 30.088092803955078 4.899936199188232 33.571014404296875 C 8.956148147583008 36.03799819946289 8.719014167785645 38.90139389038086 10.86789321899414 40.46913528442383 C 10.307092666625977 43.36567687988281 7.520435333251953 49.51544952392578 11.754776000976562 53.79193878173828 C 17.741456985473633 51.173831939697266 19.484487533569336 51.664337158203125 18.47747230529785 58.34101104736328 C 11.320096969604492 60.719329833984375 9.424535751342773 62.577632904052734 0.17889131605625153 61.52787780761719 C -0.4265661835670471 39.976959228515625 -0.3546394109725952 19.75609588623047 0.003282520454376936 -0.12805914878845215" stroke-width="0.0" fill="url(#shape_30_fill)"/>
    <path d="M 548.8359375 70.62515258789062 C 546.697265625 78.23719024658203 576.5902709960938 89.57756805419922 581.3973999023438 91.74946594238281 C 580.9585571289062 92.91474151611328 577.4557495117188 93.37320709228516 577.288330078125 98.33304595947266 C 573.2852783203125 100.70561981201172 572.0621337890625 99.7839584350586 569.3257446289062 100.04328155517578 C 567.5275268554688 94.45388793945312 546.4144287109375 98.03326416015625 538.9136352539062 88.27135467529297 C 538.1998901367188 85.53416442871094 538.7796020507812 82.89608764648438 535.8179931640625 81.97476196289062 C 534.1840209960938 80.4645004272461 527.2014770507812 79.61402893066406 527.1165161132812 78.20303344726562 C 525.086181640625 75.77755737304688 527.6465454101562 70.77230072021484 531.9814453125 68.8816146850586 C 539.0209350585938 66.88472747802734 542.7245483398438 71.6823501586914 548.8359375 70.62515258789062" stroke-width="0.0" fill="url(#shape_31_fill)"/>
    <path d="M 447.0758972167969 264.401611328125 C 450.63623046875 265.30169677734375 451.2671813964844 266.75341796875 455.68585205078125 267.8040771484375 C 460.5113830566406 267.6551208496094 465.32232666015625 270.3759765625 469.95196533203125 273.05645751953125 C 470.4309997558594 275.6334533691406 471.828857421875 276.8868713378906 471.6768798828125 280.7710266113281 C 451.9535217285156 287.3365173339844 430.61614990234375 284.0895080566406 415.73284912109375 285.1667785644531 C 413.4053649902344 273.8929443359375 414.6685791015625 272.3135986328125 415.4314880371094 268.1056823730469 C 418.18609619140625 267.20281982421875 417.7481994628906 264.7928161621094 419.35357666015625 263.0560607910156 C 443.3841247558594 251.42465209960938 446.2442626953125 252.6607666015625 447.0758972167969 264.401611328125" stroke-width="0.0" fill="url(#shape_32_fill)"/>
    <path d="M 272.8470153808594 192.1686248779297 C 274.6925354003906 192.30206298828125 287.7580261230469 243.70919799804688 282.33905029296875 247.7601318359375 C 279.7703552246094 248.83700561523438 274.0276794433594 247.25123596191406 269.3082580566406 249.2660369873047 C 266.2013244628906 246.43682861328125 266.5440368652344 242.59451293945312 260.9361877441406 240.687255859375 C 254.5174560546875 208.5957794189453 262.76055908203125 205.98193359375 272.8470153808594 192.1686248779297" stroke-width="0.0" fill="url(#shape_33_fill)"/>
    <path d="M 270.67547607421875 408.63726806640625 C 262.9813232421875 430.0867919921875 263.2325439453125 430.6283264160156 268.0373840332031 440.3559875488281 C 262.498046875 440.8448486328125 260.6839599609375 446.425537109375 258.5573425292969 447.8634338378906 C 245.45361328125 445.8655700683594 214.4354705810547 448.7562255859375 212.4530792236328 445.0109558105469 C 213.0228271484375 436.99578857421875 213.95974731445312 436.2222900390625 216.0594482421875 434.68316650390625 C 216.41949462890625 433.5859375 225.08790588378906 433.87908935546875 226.7685089111328 430.8493957519531 C 227.36233520507812 418.2528076171875 234.42481994628906 417.9490966796875 270.67547607421875 408.63726806640625" stroke-width="0.0" fill="url(#shape_34_fill)"/>
    <path d="M 105.55681610107422 69.74934387207031 C 110.10972595214844 69.693603515625 110.82275390625 78.9290771484375 112.90534973144531 85.46940612792969 C 117.87509155273438 85.96226501464844 116.15603637695312 110.25223541259766 118.62200164794922 110.6168441772461 C 116.73905944824219 112.64508056640625 110.42530059814453 114.3714599609375 106.94672393798828 124.89923095703125 C 104.63130950927734 117.11959075927734 96.47416687011719 118.87779998779297 87.40576934814453 108.7477798461914 C 85.96931457519531 85.73271179199219 105.863037109375 84.44876861572266 105.55681610107422 69.74934387207031" stroke-width="0.0" fill="url(#shape_35_fill)"/>
    <path d="M 451.1991882324219 178.4735870361328 C 453.9385986328125 176.02134704589844 456.23223876953125 177.84336853027344 455.3116760253906 180.40087890625 C 455.9039611816406 181.04417419433594 454.76214599609375 185.6342010498047 456.34307861328125 186.103271484375 C 456.164306640625 188.54147338867188 459.4190979003906 193.93008422851562 458.8077697753906 204.50830078125 C 459.3241882324219 208.59765625 451.8966064453125 209.5527801513672 446.0859375 204.447021484375 C 441.3873291015625 207.519287109375 441.418701171875 208.57994079589844 432.5953674316406 210.8931884765625 C 435.6041259765625 209.922607421875 436.8595886230469 188.57176208496094 437.7550048828125 176.01425170898438 C 440.5478210449219 179.22216796875 441.7804870605469 181.948974609375 446.7352600097656 181.21470642089844 C 447.88812255859375 179.6295623779297 450.1353759765625 179.68740844726562 451.1991882324219 178.4735870361328" stroke-width="0.0" fill="url(#shape_36_fill)"/>
    <path d="M 557.4351196289062 84.40389251708984 C 560.77392578125 80.53416442871094 578.4387817382812 82.96548461914062 579.8563232421875 85.49740600585938 C 581.1143798828125 82.98500061035156 586.2473754882812 85.37409210205078 587.8328857421875 88.65821075439453 C 597.857177734375 106.49325561523438 588.6123046875 112.48748016357422 574.3451538085938 100.69863891601562 C 573.7826538085938 99.53632354736328 552.2384033203125 97.5124282836914 547.5921020507812 86.2133560180664 C 538.3367919921875 86.36215209960938 538.2113647460938 83.83296966552734 536.2833862304688 80.03353881835938 C 542.9351196289062 75.06708526611328 547.3831176757812 78.47467803955078 557.4351196289062 84.40389251708984" stroke-width="0.0" fill="url(#shape_37_fill)"/>
    <path d="M 251.78199768066406 207.0829315185547 C 265.79473876953125 214.43222045898438 261.3661804199219 235.7381591796875 260.0525817871094 247.8466339111328 C 259.3830871582031 254.46185302734375 251.20713806152344 254.9954071044922 249.1295623779297 257.17669677734375 C 234.5313262939453 237.3861541748047 241.3086700439453 216.01539611816406 251.78199768066406 207.0829315185547" stroke-width="0.0" fill="url(#shape_38_fill)"/>
    <path d="M 442.2949523925781 263.06207275390625 C 446.1539611816406 263.3269348144531 449.2557373046875 266.5464782714844 447.9205627441406 270.07110595703125 C 444.6692810058594 270.4041442871094 442.6730041503906 277.29754638671875 440.2294006347656 277.1390686035156 C 438.53778076171875 286.67889404296875 429.61798095703125 286.06317138671875 418.23663330078125 275.4418029785156 C 414.4708557128906 276.7644958496094 413.3301696777344 274.4591369628906 416.43310546875 271.6342468261719 C 415.0388488769531 269.9314880371094 419.3147888183594 262.3016052246094 425.278564453125 258.6171569824219 C 426.9717102050781 257.8408508300781 439.7741394042969 257.5858154296875 442.2949523925781 263.06207275390625" stroke-width="0.0" fill="url(#shape_39_fill)"/>
    <path d="M 407.6786804199219 409.883056640625 C 408.65155029296875 409.90838623046875 416.7687072753906 419.1160888671875 414.07733154296875 424.4078063964844 C 399.5633239746094 435.2254333496094 386.15972900390625 420.7349548339844 376.56866455078125 420.8742370605469 C 371.0784912109375 417.95965576171875 371.2309875488281 416.5549011230469 372.5005798339844 410.1951904296875 C 375.31060791015625 400.98699951171875 392.4128112792969 404.149658203125 407.6786804199219 409.883056640625" stroke-width="0.0" fill="url(#shape_40_fill)"/>
    <path d="M 66.47947692871094 427.4516906738281 C 67.21785736083984 428.9610290527344 64.03952026367188 432.3477478027344 58.68375778198242 434.70867919921875 C 57.37061309814453 436.1452331542969 40.369667053222656 435.4251403808594 31.494159698486328 443.2023620605469 C 28.92974281311035 443.4734802246094 27.74765396118164 444.2162780761719 17.369417190551758 442.5843200683594 C 16.452863693237305 440.6524658203125 17.98149871826172 439.2092590332031 17.376239776611328 437.7393493652344 C 36.03424072265625 427.15472412109375 52.779109954833984 428.2457275390625 66.47947692871094 427.4516906738281" stroke-width="0.0" fill="url(#shape_41_fill)"/>
    <path d="M 277.992919921875 381.0749206542969 C 284.60687255859375 381.1419982910156 297.9072570800781 381.2439880371094 308.65673828125 386.1069030761719 C 296.934326171875 394.6327819824219 299.3218078613281 401.1216125488281 294.5054931640625 405.2522888183594 C 291.7615051269531 400.0954284667969 267.2877502441406 406.83941650390625 258.6601257324219 409.0494384765625 C 244.16722106933594 412.3318786621094 238.45703125 405.75372314453125 238.11050415039062 383.92852783203125 C 260.45196533203125 379.5121154785156 266.8172302246094 381.986083984375 277.992919921875 381.0749206542969" stroke-width="0.0" fill="url(#shape_42_fill)"/>
    <path d="M 222.83883666992188 208.7677459716797 C 224.17149353027344 206.34580993652344 238.75250244140625 206.2581024169922 239.17190551757812 210.5332489013672 C 242.27841186523438 221.51332092285156 244.56890869140625 243.839111328125 255.27536010742188 269.8667297363281 C 251.80520629882812 275.2523193359375 243.05203247070312 273.1811828613281 208.3704376220703 272.3451232910156 C 208.5549774169922 265.965087890625 205.2464141845703 250.67758178710938 216.32838439941406 247.6802520751953 C 219.2443389892578 246.45875549316406 218.4519805908203 226.4291229248047 222.83883666992188 208.7677459716797" stroke-width="0.0" fill="url(#shape_43_fill)"/>
    <path d="M 483.3095703125 396.3480224609375 C 486.775634765625 399.82183837890625 485.7666015625 400.970703125 483.4397888183594 400.91473388671875 C 470.8623352050781 407.40863037109375 451.1646423339844 406.8840637207031 450.27484130859375 407.5708923339844 C 448.22991943359375 404.425048828125 451.68798828125 396.190673828125 453.6549987792969 396.52001953125 C 465.6167907714844 393.1777038574219 471.7607421875 392.3020935058594 483.3095703125 396.3480224609375" stroke-width="0.0" fill="url(#shape_44_fill)"/>
    <path d="M 45.68516159057617 408.0781555175781 C 45.3667106628418 408.57867431640625 35.80683517456055 411.9903869628906 32.849273681640625 412.7270812988281 C 32.430152893066406 414.3729553222656 31.982948303222656 415.7858581542969 27.958208084106445 414.8690490722656 C 26.908958435058594 416.32879638671875 24.166688919067383 417.25823974609375 20.49886131286621 420.23834228515625 C 18.9993953704834 420.2626953125 0.36400580406188965 417.32379150390625 -0.5939996838569641 420.5909423828125 C 1.7634485960006714 419.3863830566406 -1.0393180847167969 411.18896484375 0.9769055843353271 410.20086669921875 C 6.0537943840026855 409.6473388671875 45.453895568847656 406.3355407714844 45.68516159057617 408.0781555175781" stroke-width="0.0" fill="url(#shape_45_fill)"/>
    <path d="M 452.2916564941406 174.08274841308594 C 453.8340148925781 174.97113037109375 464.7109680175781 198.53001403808594 466.97674560546875 200.23228454589844 C 462.6634216308594 209.2845458984375 451.3478088378906 209.11709594726562 449.45733642578125 206.43870544433594 C 448.3105773925781 203.26312255859375 448.9888916015625 198.3211669921875 448.8523254394531 195.29774475097656 C 447.9632873535156 194.56771850585938 447.5882568359375 192.07101440429688 448.52081298828125 187.99935913085938 C 450.9839782714844 186.6447296142578 450.4243469238281 182.74124145507812 452.2916564941406 174.08274841308594" stroke-width="0.0" fill="url(#shape_46_fill)"/>
    <path d="M 372.2969970703125 183.9213409423828 C 379.3307800292969 197.7041015625 380.2495422363281 202.6066131591797 371.4107360839844 205.79010009765625 C 365.8653259277344 206.82142639160156 364.772216796875 204.81422424316406 361.6086120605469 206.11187744140625 C 339.47210693359375 212.05355834960938 335.4352111816406 202.0500030517578 353.32037353515625 188.94027709960938 C 356.6908264160156 184.98121643066406 358.3770446777344 184.37548828125 368.2162780761719 185.46853637695312 C 369.00079345703125 183.34075927734375 372.29571533203125 183.79708862304688 372.2969970703125 183.9213409423828" stroke-width="0.0" fill="url(#shape_47_fill)"/>
    <path d="M 473.17596435546875 264.2875061035156 C 474.51513671875 267.1386413574219 480.8368835449219 270.7213134765625 482.60272216796875 283.8752746582031 C 466.67852783203125 287.57354736328125 444.81396484375 287.21551513671875 444.56671142578125 284.9465026855469 C 439.34881591796875 282.1560974121094 440.0060119628906 276.9630126953125 441.05950927734375 276.3524169921875 C 448.8835754394531 266.582275390625 456.15032958984375 261.9083557128906 473.17596435546875 264.2875061035156" stroke-width="0.0" fill="url(#shape_48_fill)"/>
    <path d="M 176.90077209472656 116.66558074951172 C 177.96786499023438 115.48526000976562 181.71563720703125 116.14315795898438 182.70753479003906 117.28058624267578 C 184.6746826171875 120.27574157714844 183.85235595703125 122.33546447753906 184.83084106445312 122.7737045288086 C 179.56625366210938 128.40357971191406 185.47146606445312 136.87887573242188 182.7239227294922 139.6211395263672 C 182.03076171875 146.8621826171875 172.84420776367188 146.157958984375 172.07078552246094 146.8633575439453 C 172.26528930664062 127.03007507324219 171.02581787109375 124.52828979492188 176.90077209472656 116.66558074951172" stroke-width="0.0" fill="url(#shape_49_fill)"/>
    <path d="M 333.4731140136719 426.8909912109375 C 335.9425964355469 429.7820129394531 342.0033264160156 428.8306579589844 343.4847717285156 431.6526184082031 C 346.3719482421875 435.5757751464844 345.158447265625 437.2166442871094 342.3475036621094 437.53485107421875 C 342.677490234375 447.4865417480469 325.5738525390625 448.7689208984375 323.6217041015625 445.0848083496094 C 321.5278625488281 436.2037353515625 321.5782775878906 432.6281433105469 305.9854736328125 430.1689453125 C 319.0798034667969 425.6217346191406 327.6780700683594 430.1902770996094 333.4731140136719 426.8909912109375" stroke-width="0.0" fill="url(#shape_50_fill)"/>
    <path d="M 313.9176025390625 388.5318603515625 C 306.6864929199219 395.2495422363281 293.10467529296875 396.2569274902344 291.4998474121094 399.09686279296875 C 279.1036682128906 397.5329895019531 277.8779296875 399.1156311035156 271.283447265625 402.3638000488281 C 271.21221923828125 401.6006164550781 269.9370422363281 398.917236328125 271.6539306640625 397.5011901855469 C 270.2896728515625 395.56048583984375 273.4080505371094 388.47052001953125 279.9859313964844 388.416748046875 C 284.5641174316406 386.7077331542969 288.6150207519531 391.28057861328125 313.9176025390625 388.5318603515625" stroke-width="0.0" fill="url(#shape_51_fill)"/>
    <path d="M 269.0103454589844 185.29505920410156 C 276.6150207519531 194.75132751464844 277.13482666015625 207.87242126464844 280.355712890625 217.63851928710938 C 271.6058044433594 210.43289184570312 269.49365234375 208.49655151367188 260.56298828125 216.61935424804688 C 258.0430603027344 208.363037109375 263.093994140625 195.2173614501953 266.99493408203125 195.28526306152344 C 269.7670593261719 194.3339385986328 268.884521484375 191.75677490234375 269.0103454589844 185.29505920410156" stroke-width="0.0" fill="url(#shape_52_fill)"/>
    <path d="M 218.43479919433594 409.42138671875 C 215.8901824951172 410.9054260253906 215.7335968017578 413.3236999511719 214.28700256347656 414.79254150390625 C 214.4332275390625 423.0783386230469 194.12583923339844 425.10223388671875 187.64706420898438 415.56689453125 C 186.3279571533203 404.4391174316406 207.9803924560547 399.4857482910156 218.43479919433594 409.42138671875" stroke-width="0.0" fill="url(#shape_53_fill)"/>
    <path d="M 205.99404907226562 424.4588623046875 C 205.4646759033203 425.23504638671875 206.1510009765625 428.2949523925781 204.55789184570312 429.0130920410156 C 194.36351013183594 429.62225341796875 178.8220977783203 430.11322021484375 178.06297302246094 432.6754150390625 C 176.89906311035156 430.94293212890625 178.4713897705078 425.9439697265625 177.14195251464844 423.9100036621094 C 188.13584899902344 417.89715576171875 191.5122833251953 424.0106201171875 205.99404907226562 424.4588623046875" stroke-width="0.0" fill="url(#shape_54_fill)"/>
    <path d="M 268.16448974609375 247.77003479003906 C 275.17724609375 245.49411010742188 276.8503112792969 247.94039916992188 280.1540222167969 248.43934631347656 C 280.9009094238281 251.0122528076172 280.21368408203125 252.33053588867188 290.6063232421875 268.7563781738281 C 263.494140625 258.0764465332031 262.90130615234375 257.4239807128906 249.78871154785156 266.73455810546875 C 254.83505249023438 248.17529296875 255.90496826171875 247.24600219726562 258.8051452636719 245.108154296875 C 260.38287353515625 239.3113250732422 263.31536865234375 240.01266479492188 268.16448974609375 247.77003479003906" stroke-width="0.0" fill="url(#shape_55_fill)"/>
    <path d="M 283.5996398925781 341.11944580078125 C 283.2566833496094 362.6388854980469 285.02471923828125 363.2532653808594 285.01416015625 368.0220031738281 C 285.5251770019531 369.2264404296875 286.07843017578125 371.78204345703125 285.4608154296875 381.3652038574219 C 273.26727294921875 379.2220458984375 259.5297546386719 381.0434265136719 237.07728576660156 383.7034606933594 C 232.82278442382812 382.4999084472656 232.07215881347656 371.0618591308594 233.91958618164062 346.1920166015625 C 239.14178466796875 340.7933654785156 247.6338348388672 339.3205261230469 283.5996398925781 341.11944580078125" stroke-width="0.0" fill="url(#shape_56_fill)"/>
    <path d="M 408.149658203125 272.0864562988281 C 414.5943298339844 269.85479736328125 418.1773986816406 274.3580322265625 423.5532531738281 281.1953430175781 C 415.7435302734375 283.6806945800781 412.407958984375 276.117431640625 376.579833984375 274.37176513671875 C 377.28765869140625 264.197265625 385.2476501464844 263.9556884765625 408.149658203125 272.0864562988281" stroke-width="0.0" fill="url(#shape_57_fill)"/>
    <path d="M 632.1016235351562 352.1119079589844 C 632.9822998046875 355.0581970214844 661.748779296875 354.8376770019531 668.5335083007812 354.9857482910156 C 668.458984375 358.25152587890625 663.0095825195312 360.3031005859375 660.1513061523438 356.85736083984375 C 645.9033203125 356.1688537597656 635.5428466796875 359.19775390625 631.6425170898438 359.894287109375 C 627.87744140625 357.22930908203125 629.4963989257812 353.6581726074219 632.1016235351562 352.1119079589844" stroke-width="0.0" fill="url(#shape_58_fill)"/>
    <path d="M 341.3600769042969 384.75927734375 C 342.8271484375 390.14306640625 358.14605712890625 391.6534729003906 359.1742248535156 394.6248474121094 C 356.78240966796875 398.6045227050781 339.780517578125 401.23724365234375 338.2737731933594 399.5615234375 C 335.1358642578125 399.62847900390625 333.0621643066406 398.786865234375 331.8367919921875 396.5372619628906 C 331.99151611328125 394.93994140625 330.74493408203125 393.4737243652344 332.2765197753906 390.583251953125 C 332.8407897949219 384.90435791015625 335.8034973144531 383.8898620605469 341.3600769042969 384.75927734375" stroke-width="0.0" fill="url(#shape_59_fill)"/>
    <path d="M 459.20147705078125 363.9403381347656 C 462.0174560546875 363.7102355957031 473.59649658203125 371.2471008300781 473.1978759765625 374.4907531738281 C 471.8104553222656 376.24798583984375 470.33636474609375 376.86077880859375 463.13623046875 375.8267822265625 C 458.37255859375 377.4668273925781 457.5571594238281 376.693115234375 452.6752624511719 370.81121826171875 C 453.409423828125 370.1795959472656 459.7731018066406 368.63995361328125 459.20147705078125 363.9403381347656" stroke-width="0.0" fill="url(#shape_60_fill)"/>
    <path d="M 428.22869873046875 432.2535095214844 C 440.0047607421875 434.267578125 442.4159851074219 436.6441650390625 442.11260986328125 438.6116943359375 C 440.2807922363281 440.71484375 427.9678039550781 439.2095947265625 425.69952392578125 442.14117431640625 C 422.49969482421875 438.5314636230469 423.85467529296875 434.70745849609375 410.8359680175781 424.942138671875 C 427.5127258300781 428.548583984375 428.957763671875 431.6457824707031 428.22869873046875 432.2535095214844" stroke-width="0.0" fill="url(#shape_61_fill)"/>
    <path d="M 185.40591430664062 411.4498291015625 C 186.24156188964844 413.8991394042969 185.0431671142578 414.81414794921875 186.85523986816406 417.7499694824219 C 184.8735809326172 420.2128601074219 183.38710021972656 419.4991760253906 182.5196075439453 419.7623596191406 C 180.82655334472656 421.6461486816406 174.46485900878906 420.14434814453125 171.6084747314453 420.0445861816406 C 169.5899200439453 417.6595764160156 169.7815704345703 415.62554931640625 175.14755249023438 412.1654968261719 C 176.97547912597656 413.53826904296875 180.93443298339844 410.3559875488281 185.40591430664062 411.4498291015625" stroke-width="0.0" fill="url(#shape_62_fill)"/>
    <path d="M 332.07781982421875 418.8245849609375 C 334.3464660644531 425.71136474609375 329.8845520019531 427.9390563964844 327.2374572753906 425.658935546875 C 324.5223693847656 427.74615478515625 322.9701843261719 426.6976013183594 321.3862609863281 427.4206237792969 C 318.91448974609375 425.98382568359375 319.9630126953125 419.9586181640625 317.6090393066406 418.50482177734375 C 318.9901123046875 420.2261657714844 325.8634033203125 418.6739501953125 332.07781982421875 418.8245849609375" stroke-width="0.0" fill="url(#shape_63_fill)"/>
    <path d="M 55.58920669555664 274.13165283203125 C 56.58430099487305 269.2200012207031 65.11512756347656 270.2372741699219 64.20913696289062 278.5498962402344 C 59.66614532470703 279.06854248046875 53.901615142822266 272.8011779785156 48.51220703125 276.0162048339844 C 51.049007415771484 273.5356750488281 52.59064865112305 273.1552429199219 55.58920669555664 274.13165283203125" stroke-width="0.0" fill="url(#shape_64_fill)"/>
    <path d="M 304.71820068359375 440.0615539550781 C 304.6022033691406 437.9048767089844 306.6059875488281 436.8671569824219 313.4034729003906 437.5696716308594 C 314.4122314453125 439.7639465332031 312.9406433105469 441.1065979003906 310.9973449707031 441.6721496582031 C 307.9338073730469 445.2106628417969 306.4734191894531 444.2312927246094 305.3320617675781 443.9674987792969 C 302.519775390625 441.6994323730469 303.3109130859375 440.3734130859375 304.71820068359375 440.0615539550781" stroke-width="0.0" fill="url(#shape_65_fill)"/>
    <path d="M -0.5422506928443909 -0.4339559078216553 C 224.83065795898438 -0.16315943002700806 444.226806640625 0.3106187582015991 672.5245361328125 0.3619076609611511 C 673.3880615234375 155.5902862548828 674.730224609375 296.1784973144531 673.7252807617188 445.47607421875 C 450.1773681640625 446.3254699707031 230.25941467285156 446.2966613769531 0.43651288747787476 445.4360046386719 C 0.18476085364818573 297.238525390625 -0.19462484121322632 149.400146484375 -0.5422506928443909 -0.4339559078216553" stroke-width="0.0" fill="url(#shape_66_fill)"/>
    <path d="M -1.1000632047653198 -0.20979410409927368 C 222.71856689453125 -0.12702009081840515 442.9584655761719 0.37631678581237793 672.4577026367188 -0.2373071163892746 C 673.4336547851562 156.48912048339844 674.801025390625 295.68914794921875 673.3821411132812 445.391357421875 C 450.4903869628906 446.3944396972656 230.3465576171875 446.3363342285156 0.4666844606399536 445.36114501953125 C 0.05778798460960388 297.51483154296875 -0.28333282470703125 149.09361267089844 -1.1000632047653198 -0.20979410409927368" stroke-width="0.0" fill="url(#shape_67_fill)"/>
    <path d="M -0.7233884334564209 -0.2616981863975525 C 223.32594299316406 -0.179358571767807 441.75830078125 0.5057558417320251 672.5861206054688 -0.3094461262226105 C 673.5003051757812 155.91285705566406 674.7969360351562 295.5248107910156 673.3736572265625 445.3912658691406 C 450.4873046875 446.3959045410156 230.3728485107422 446.33685302734375 1.0927015542984009 445.3414001464844 C 0.4841780662536621 295.70538330078125 0.06045141816139221 148.550048828125 -0.7233884334564209 -0.2616981863975525" stroke-width="0.0" fill="url(#shape_68_fill)"/>
  </g>
</svg>
