<?xml version="1.0" ?>
<svg xmlns="http://www.w3.org/2000/svg" version="1.1" width="674" height="446">
  <defs>
    <radialGradient id="shape_0_fill" cx="0.5361546819217127" cy="0.7423877117345151" r="0.27722229094462864">
      <stop offset="0.80055594" stop-color="rgb(175, 185, 0)" stop-opacity="0.8853877782821655"/>
      <stop offset="1.0" stop-color="rgb(54, 41, 0)" stop-opacity="1.0"/>
    </radialGradient>
    <radialGradient id="shape_1_fill" cx="0.5373892402082947" cy="0.7450544417171735" r="0.2059841891778329">
      <stop offset="0.61228" stop-color="rgb(89, 92, 62)" stop-opacity="0.8582961559295654"/>
      <stop offset="1.0" stop-color="rgb(21, 5, 0)" stop-opacity="0.6237459778785706"/>
    </radialGradient>
    <radialGradient id="shape_2_fill" cx="0.09792284866468842" cy="0.7376672719091578" r="0.22062588021026522">
      <stop offset="0.0024758617" stop-color="rgb(30, 90, 181)" stop-opacity="0.9936686158180237"/>
      <stop offset="1.0" stop-color="rgb(10, 112, 255)" stop-opacity="0.9448891282081604"/>
    </radialGradient>
    <radialGradient id="shape_3_fill" cx="0.2759451484114197" cy="0.21599960327148438" r="0.1275642236545461">
      <stop offset="0.38897392" stop-color="rgb(152, 212, 13)" stop-opacity="0.833862841129303"/>
      <stop offset="1.0" stop-color="rgb(40, 43, 0)" stop-opacity="0.9682881832122803"/>
    </radialGradient>
    <radialGradient id="shape_4_fill" cx="0.1543026706231454" cy="0.9977578475336323" r="0.10288926755639141">
      <stop offset="0.0" stop-color="rgb(81, 79, 86)" stop-opacity="1.0"/>
      <stop offset="1.0" stop-color="rgb(96, 84, 101)" stop-opacity="0.8708652853965759"/>
    </radialGradient>
    <radialGradient id="shape_5_fill" cx="0.14807964290992442" cy="0.23997249517740155" r="0.11810664960821587">
      <stop offset="0.0" stop-color="rgb(255, 255, 255)" stop-opacity="0.6465656161308289"/>
      <stop offset="0.5626598" stop-color="rgb(255, 255, 255)" stop-opacity="0.6244489550590515"/>
    </radialGradient>
    <radialGradient id="shape_6_fill" cx="0.18397626112759644" cy="0.9977578475336323" r="0.0754974885934892">
      <stop offset="0.0" stop-color="rgb(93, 90, 94)" stop-opacity="1.0"/>
      <stop offset="1.0" stop-color="rgb(146, 131, 135)" stop-opacity="0.906863808631897"/>
    </radialGradient>
    <radialGradient id="shape_7_fill" cx="0.2893175074183976" cy="0.05829596412556054" r="0.08666390552011372">
      <stop offset="0.0" stop-color="rgb(55, 66, 29)" stop-opacity="1.0"/>
      <stop offset="1.0" stop-color="rgb(86, 98, 27)" stop-opacity="0.7696682810783386"/>
    </radialGradient>
    <radialGradient id="shape_8_fill" cx="0.3382789091115889" cy="0.9439461883408071" r="0.06756690277190167">
      <stop offset="0.0" stop-color="rgb(91, 124, 45)" stop-opacity="1.0"/>
      <stop offset="1.0" stop-color="rgb(136, 194, 77)" stop-opacity="0.7344615459442139"/>
    </radialGradient>
    <radialGradient id="shape_9_fill" cx="0.30712166172106825" cy="0.9977578475336323" r="0.0730758406641929">
      <stop offset="0.0" stop-color="rgb(38, 48, 20)" stop-opacity="1.0"/>
      <stop offset="1.0" stop-color="rgb(23, 27, 31)" stop-opacity="0.9736225008964539"/>
    </radialGradient>
    <radialGradient id="shape_10_fill" cx="0.3056379821958457" cy="0.9977578475336323" r="0.06792919147615971">
      <stop offset="0.0" stop-color="rgb(39, 49, 21)" stop-opacity="1.0"/>
      <stop offset="1.0" stop-color="rgb(43, 33, 0)" stop-opacity="0.7160279750823975"/>
    </radialGradient>
    <radialGradient id="shape_11_fill" cx="0.21810089020771514" cy="0.968609865470852" r="0.06792919147615971">
      <stop offset="0.0" stop-color="rgb(138, 135, 129)" stop-opacity="1.0"/>
      <stop offset="1.0" stop-color="rgb(206, 172, 156)" stop-opacity="0.5419286489486694"/>
    </radialGradient>
    <radialGradient id="shape_12_fill" cx="0.29080118694362017" cy="0.9977578475336323" r="0.07480746985189285">
      <stop offset="0.0" stop-color="rgb(22, 25, 13)" stop-opacity="1.0"/>
      <stop offset="1.0" stop-color="rgb(30, 32, 0)" stop-opacity="1.0"/>
    </radialGradient>
    <radialGradient id="shape_13_fill" cx="0.327893175074184" cy="0.8923766816143498" r="0.06900465877544279">
      <stop offset="0.0" stop-color="rgb(89, 117, 50)" stop-opacity="1.0"/>
      <stop offset="1.0" stop-color="rgb(126, 165, 40)" stop-opacity="0.8776976466178894"/>
    </radialGradient>
    <radialGradient id="shape_14_fill" cx="0.142433234421365" cy="0.9977578475336323" r="0.06617211022079875">
      <stop offset="0.0" stop-color="rgb(155, 150, 153)" stop-opacity="1.0"/>
      <stop offset="1.0" stop-color="rgb(255, 254, 255)" stop-opacity="0.19797903299331665"/>
    </radialGradient>
    <radialGradient id="shape_15_fill" cx="0.31008902077151335" cy="0.9977578475336323" r="0.06683642786405207">
      <stop offset="0.0" stop-color="rgb(43, 55, 23)" stop-opacity="1.0"/>
      <stop offset="1.0" stop-color="rgb(54, 64, 12)" stop-opacity="0.9628961086273193"/>
    </radialGradient>
    <radialGradient id="shape_16_fill" cx="0.27299703264094954" cy="0.9977578475336323" r="0.08110449363640579">
      <stop offset="0.0" stop-color="rgb(31, 35, 19)" stop-opacity="1.0"/>
      <stop offset="1.0" stop-color="rgb(33, 32, 0)" stop-opacity="0.999173104763031"/>
    </radialGradient>
    <radialGradient id="shape_17_fill" cx="0.2893175074183976" cy="0.9977578475336323" r="0.07513486030193747">
      <stop offset="0.0" stop-color="rgb(22, 23, 13)" stop-opacity="1.0"/>
      <stop offset="1.0" stop-color="rgb(8, 0, 0)" stop-opacity="0.7378427982330322"/>
    </radialGradient>
    <radialGradient id="shape_18_fill" cx="0.3293768545994065" cy="0.7556053811659192" r="0.06617211022079875">
      <stop offset="0.0" stop-color="rgb(83, 108, 65)" stop-opacity="1.0"/>
      <stop offset="1.0" stop-color="rgb(112, 141, 57)" stop-opacity="0.9488823413848877"/>
    </radialGradient>
    <radialGradient id="shape_19_fill" cx="0.3516320474777448" cy="0.9977578475336323" r="0.06617211022079875">
      <stop offset="0.0" stop-color="rgb(95, 135, 39)" stop-opacity="1.0"/>
      <stop offset="1.0" stop-color="rgb(152, 225, 3)" stop-opacity="0.7806921601295471"/>
    </radialGradient>
    <radialGradient id="shape_20_fill" cx="0.0830860534124629" cy="0.9977578475336323" r="0.06792919147615971">
      <stop offset="0.0" stop-color="rgb(49, 52, 66)" stop-opacity="1.0"/>
      <stop offset="1.0" stop-color="rgb(10, 9, 47)" stop-opacity="0.5160013437271118"/>
    </radialGradient>
    <radialGradient id="shape_21_fill" cx="0.29821958456973297" cy="0.9977578475336323" r="0.06792919147615971">
      <stop offset="0.0" stop-color="rgb(33, 40, 17)" stop-opacity="1.0"/>
      <stop offset="1.0" stop-color="rgb(30, 40, 0)" stop-opacity="0.6586108803749084"/>
    </radialGradient>
    <radialGradient id="shape_22_fill" cx="0.3564346947372844" cy="0.44366290857973656" r="0.06591664435955466">
      <stop offset="0.0" stop-color="rgb(224, 252, 0)" stop-opacity="0.6314502358436584"/>
      <stop offset="0.43000785" stop-color="rgb(159, 199, 34)" stop-opacity="0.9138320684432983"/>
    </radialGradient>
    <radialGradient id="shape_23_fill" cx="0.6454005934718101" cy="0.1412556053811659" r="0.06617211022079875">
      <stop offset="0.0" stop-color="rgb(46, 38, 13)" stop-opacity="1.0"/>
      <stop offset="1.0" stop-color="rgb(49, 26, 0)" stop-opacity="0.8206121325492859"/>
    </radialGradient>
    <radialGradient id="shape_24_fill" cx="0.24925732258873098" cy="0.48430544592339897" r="0.06617138010811735">
      <stop offset="0.0" stop-color="rgb(201, 209, 206)" stop-opacity="1.0"/>
      <stop offset="0.97660035" stop-color="rgb(255, 255, 255)" stop-opacity="0.5091201066970825"/>
    </radialGradient>
    <radialGradient id="shape_25_fill" cx="0.6320474777448071" cy="0.9977578475336323" r="0.06617211022079875">
      <stop offset="0.0" stop-color="rgb(35, 28, 8)" stop-opacity="1.0"/>
      <stop offset="1.0" stop-color="rgb(36, 9, 0)" stop-opacity="0.6235499382019043"/>
    </radialGradient>
    <radialGradient id="shape_26_fill" cx="0.15414520399506793" cy="0.3207086811151205" r="0.06604698362265567">
      <stop offset="0.11988666" stop-color="rgb(198, 211, 155)" stop-opacity="1.0"/>
      <stop offset="0.5833916" stop-color="rgb(115, 114, 253)" stop-opacity="0.0"/>
    </radialGradient>
    <radialGradient id="shape_27_fill" cx="0.15410647972401242" cy="0.3208032787648017" r="0.06604505929465818">
      <stop offset="0.0" stop-color="rgb(192, 205, 0)" stop-opacity="1.0"/>
      <stop offset="0.4937612" stop-color="rgb(79, 72, 48)" stop-opacity="0.5965636372566223"/>
    </radialGradient>
    <radialGradient id="shape_28_fill" cx="0.03912471805198964" cy="0.019343611370822238" r="0.06759991631663517">
      <stop offset="0.08925013" stop-color="rgb(0, 22, 129)" stop-opacity="1.0"/>
      <stop offset="0.76570344" stop-color="rgb(0, 31, 152)" stop-opacity="0.7846968770027161"/>
    </radialGradient>
    <radialGradient id="shape_29_fill" cx="0.33976258863681147" cy="0.6659192825112108" r="0.06617211022079875">
      <stop offset="0.0" stop-color="rgb(90, 117, 55)" stop-opacity="1.0"/>
      <stop offset="1.0" stop-color="rgb(120, 154, 32)" stop-opacity="0.9126702547073364"/>
    </radialGradient>
    <radialGradient id="shape_30_fill" cx="0.04046240333987273" cy="0.018510360888836095" r="0.06751709663549588">
      <stop offset="0.29068938" stop-color="rgb(48, 76, 58)" stop-opacity="0.8982348442077637"/>
      <stop offset="1.0" stop-color="rgb(39, 48, 45)" stop-opacity="0.7149217128753662"/>
    </radialGradient>
    <radialGradient id="shape_31_fill" cx="0.12314540059347182" cy="0.9977578475336323" r="0.06617211022079875">
      <stop offset="0.0" stop-color="rgb(95, 103, 98)" stop-opacity="1.0"/>
      <stop offset="1.0" stop-color="rgb(147, 138, 129)" stop-opacity="0.7734466195106506"/>
    </radialGradient>
    <radialGradient id="shape_32_fill" cx="0.4035608308605341" cy="0.984304932735426" r="0.06617211022079875">
      <stop offset="0.0" stop-color="rgb(126, 155, 63)" stop-opacity="1.0"/>
      <stop offset="1.0" stop-color="rgb(170, 144, 29)" stop-opacity="0.8890339136123657"/>
    </radialGradient>
    <radialGradient id="shape_33_fill" cx="0.3249258160237389" cy="0.6053811659192825" r="0.06617211022079875">
      <stop offset="0.0" stop-color="rgb(93, 124, 71)" stop-opacity="1.0"/>
      <stop offset="1.0" stop-color="rgb(123, 155, 43)" stop-opacity="0.9446600675582886"/>
    </radialGradient>
    <radialGradient id="shape_34_fill" cx="0.6468842729970327" cy="0.531390134529148" r="0.06617211022079875">
      <stop offset="0.0" stop-color="rgb(54, 47, 24)" stop-opacity="1.0"/>
      <stop offset="1.0" stop-color="rgb(63, 33, 10)" stop-opacity="0.6302102208137512"/>
    </radialGradient>
    <radialGradient id="shape_35_fill" cx="0.1440158583643882" cy="0.23655175521234761" r="0.06717201368745074">
      <stop offset="0.017488603" stop-color="rgb(153, 232, 41)" stop-opacity="0.23675434291362762"/>
      <stop offset="0.57365274" stop-color="rgb(151, 123, 78)" stop-opacity="0.6313098073005676"/>
    </radialGradient>
    <radialGradient id="shape_36_fill" cx="0.2878338278931751" cy="0.9977578475336323" r="0.06617211022079875">
      <stop offset="0.0" stop-color="rgb(80, 96, 53)" stop-opacity="1.0"/>
      <stop offset="1.0" stop-color="rgb(62, 61, 24)" stop-opacity="0.9083694219589233"/>
    </radialGradient>
    <radialGradient id="shape_37_fill" cx="0.129080118694362" cy="0.9977578475336323" r="0.06617211022079875">
      <stop offset="0.0" stop-color="rgb(87, 97, 81)" stop-opacity="1.0"/>
      <stop offset="1.0" stop-color="rgb(90, 99, 74)" stop-opacity="0.6933475136756897"/>
    </radialGradient>
    <radialGradient id="shape_38_fill" cx="0.33892324204260943" cy="0.5607740119968294" r="0.0666785763703751">
      <stop offset="0.75012803" stop-color="rgb(85, 121, 13)" stop-opacity="0.8952390551567078"/>
      <stop offset="0.60226417" stop-color="rgb(175, 255, 67)" stop-opacity="0.8194038271903992"/>
    </radialGradient>
    <radialGradient id="shape_39_fill" cx="0.40059347181008903" cy="0.9641255605381166" r="0.06617211022079875">
      <stop offset="0.0" stop-color="rgb(138, 168, 60)" stop-opacity="1.0"/>
      <stop offset="1.0" stop-color="rgb(231, 255, 82)" stop-opacity="1.0"/>
    </radialGradient>
    <radialGradient id="shape_40_fill" cx="0.6156263945718193" cy="0.8813620939383058" r="0.06760165953140938">
      <stop offset="0.33510688" stop-color="rgb(152, 134, 117)" stop-opacity="0.5453597903251648"/>
      <stop offset="0.50672615" stop-color="rgb(0, 0, 65)" stop-opacity="1.0"/>
    </radialGradient>
    <radialGradient id="shape_41_fill" cx="0.6454005934718101" cy="0.08744394618834081" r="0.06617211022079875">
      <stop offset="0.0" stop-color="rgb(58, 48, 21)" stop-opacity="1.0"/>
      <stop offset="1.0" stop-color="rgb(90, 60, 10)" stop-opacity="0.9604688286781311"/>
    </radialGradient>
    <radialGradient id="shape_42_fill" cx="0.5845697329376854" cy="0.6188340807174888" r="0.06617211022079875">
      <stop offset="0.0" stop-color="rgb(62, 59, 56)" stop-opacity="1.0"/>
      <stop offset="1.0" stop-color="rgb(31, 27, 72)" stop-opacity="0.6657980680465698"/>
    </radialGradient>
    <radialGradient id="shape_43_fill" cx="0.35635179015932167" cy="0.504117101831821" r="0.0677313139601348">
      <stop offset="0.27640072" stop-color="rgb(133, 180, 56)" stop-opacity="1.0"/>
      <stop offset="0.53143877" stop-color="rgb(217, 255, 24)" stop-opacity="0.8615005016326904"/>
    </radialGradient>
    <radialGradient id="shape_44_fill" cx="0.5934718100890207" cy="0.9977578475336323" r="0.06617211022079875">
      <stop offset="0.0" stop-color="rgb(89, 61, 18)" stop-opacity="1.0"/>
      <stop offset="1.0" stop-color="rgb(171, 81, 0)" stop-opacity="0.7482159733772278"/>
    </radialGradient>
    <radialGradient id="shape_45_fill" cx="0.612759643916914" cy="0.04035874439461883" r="0.06617211022079875">
      <stop offset="0.0" stop-color="rgb(157, 136, 123)" stop-opacity="1.0"/>
      <stop offset="1.0" stop-color="rgb(255, 232, 210)" stop-opacity="1.0"/>
    </radialGradient>
    <radialGradient id="shape_46_fill" cx="0.28635014836795253" cy="0.9977578475336323" r="0.06617211022079875">
      <stop offset="0.0" stop-color="rgb(82, 99, 55)" stop-opacity="1.0"/>
      <stop offset="1.0" stop-color="rgb(93, 114, 21)" stop-opacity="0.5083529949188232"/>
    </radialGradient>
    <radialGradient id="shape_47_fill" cx="0.28635014836795253" cy="0.8183856502242153" r="0.06617211022079875">
      <stop offset="0.0" stop-color="rgb(166, 189, 197)" stop-opacity="1.0"/>
      <stop offset="1.0" stop-color="rgb(255, 255, 255)" stop-opacity="0.46833232045173645"/>
    </radialGradient>
    <radialGradient id="shape_48_fill" cx="0.40801186943620177" cy="0.9977578475336323" r="0.06617211022079875">
      <stop offset="0.0" stop-color="rgb(107, 135, 68)" stop-opacity="1.0"/>
      <stop offset="1.0" stop-color="rgb(133, 153, 53)" stop-opacity="1.0"/>
    </radialGradient>
    <radialGradient id="shape_49_fill" cx="0.19287833827893175" cy="0.3991031390134529" r="0.06617211022079875">
      <stop offset="0.0" stop-color="rgb(92, 100, 54)" stop-opacity="1.0"/>
      <stop offset="1.0" stop-color="rgb(83, 67, 13)" stop-opacity="0.5841290950775146"/>
    </radialGradient>
    <radialGradient id="shape_50_fill" cx="0.6439169139465876" cy="0.7376681614349776" r="0.06617211022079875">
      <stop offset="0.0" stop-color="rgb(65, 56, 25)" stop-opacity="1.0"/>
      <stop offset="1.0" stop-color="rgb(156, 192, 69)" stop-opacity="0.42023828625679016"/>
    </radialGradient>
    <radialGradient id="shape_51_fill" cx="0.5845697329376854" cy="0.6322869955156951" r="0.06617211022079875">
      <stop offset="0.0" stop-color="rgb(75, 68, 60)" stop-opacity="1.0"/>
      <stop offset="1.0" stop-color="rgb(135, 105, 86)" stop-opacity="0.805176854133606"/>
    </radialGradient>
    <radialGradient id="shape_52_fill" cx="0.2997032640949555" cy="0.6031390134529148" r="0.06617211022079875">
      <stop offset="0.0" stop-color="rgb(107, 158, 118)" stop-opacity="1.0"/>
      <stop offset="1.0" stop-color="rgb(191, 255, 227)" stop-opacity="0.6763479113578796"/>
    </radialGradient>
    <radialGradient id="shape_53_fill" cx="0.6097922848664689" cy="0.45067264573991034" r="0.06617211022079875">
      <stop offset="0.0" stop-color="rgb(38, 39, 27)" stop-opacity="1.0"/>
      <stop offset="1.0" stop-color="rgb(14, 10, 28)" stop-opacity="0.45615270733833313"/>
    </radialGradient>
    <radialGradient id="shape_54_fill" cx="0.6335311572700296" cy="0.426009002822397" r="0.06617211022079875">
      <stop offset="0.0" stop-color="rgb(67, 49, 20)" stop-opacity="1.0"/>
      <stop offset="1.0" stop-color="rgb(117, 64, 6)" stop-opacity="0.8049749732017517"/>
    </radialGradient>
    <radialGradient id="shape_55_fill" cx="0.3707166722691024" cy="0.5988430827187851" r="0.06600135440996209">
      <stop offset="0.43546867" stop-color="rgb(239, 255, 60)" stop-opacity="0.9717628955841064"/>
      <stop offset="0.16119833" stop-color="rgb(204, 255, 0)" stop-opacity="0.7604309320449829"/>
    </radialGradient>
    <radialGradient id="shape_56_fill" cx="0.5489614243323442" cy="0.600896860986547" r="0.06617211022079875">
      <stop offset="0.0" stop-color="rgb(50, 62, 80)" stop-opacity="1.0"/>
      <stop offset="1.0" stop-color="rgb(23, 60, 184)" stop-opacity="0.5365657210350037"/>
    </radialGradient>
    <radialGradient id="shape_57_fill" cx="0.4094955489614243" cy="0.9035874439461884" r="0.06617211022079875">
      <stop offset="0.0" stop-color="rgb(111, 144, 47)" stop-opacity="1.0"/>
      <stop offset="1.0" stop-color="rgb(163, 206, 1)" stop-opacity="0.6790080070495605"/>
    </radialGradient>
    <radialGradient id="shape_58_fill" cx="0.5281899109792285" cy="0.9977578475336323" r="0.06617211022079875">
      <stop offset="0.0" stop-color="rgb(50, 43, 14)" stop-opacity="1.0"/>
      <stop offset="1.0" stop-color="rgb(70, 47, 0)" stop-opacity="1.0"/>
    </radialGradient>
    <radialGradient id="shape_59_fill" cx="0.5845697329376854" cy="0.7690582959641256" r="0.06617211022079875">
      <stop offset="0.0" stop-color="rgb(61, 63, 58)" stop-opacity="1.0"/>
      <stop offset="1.0" stop-color="rgb(75, 73, 98)" stop-opacity="0.7148799896240234"/>
    </radialGradient>
    <radialGradient id="shape_60_fill" cx="0.5489614243323442" cy="0.9977578475336323" r="0.06617211022079875">
      <stop offset="0.0" stop-color="rgb(140, 131, 64)" stop-opacity="1.0"/>
      <stop offset="1.0" stop-color="rgb(244, 214, 87)" stop-opacity="0.9320014119148254"/>
    </radialGradient>
    <radialGradient id="shape_61_fill" cx="0.6468553854379173" cy="0.9686176659280409" r="0.06618022635711761">
      <stop offset="0.42759082" stop-color="rgb(255, 255, 41)" stop-opacity="1.0"/>
      <stop offset="0.99983907" stop-color="rgb(255, 223, 0)" stop-opacity="1.0"/>
    </radialGradient>
    <radialGradient id="shape_62_fill" cx="0.615727002967359" cy="0.3991031390134529" r="0.06617211022079875">
      <stop offset="0.0" stop-color="rgb(55, 47, 13)" stop-opacity="1.0"/>
      <stop offset="1.0" stop-color="rgb(75, 49, 0)" stop-opacity="0.9897096753120422"/>
    </radialGradient>
    <radialGradient id="shape_63_fill" cx="0.6261127596439169" cy="0.7286995515695067" r="0.06617211022079875">
      <stop offset="0.0" stop-color="rgb(79, 66, 32)" stop-opacity="1.0"/>
      <stop offset="1.0" stop-color="rgb(211, 213, 92)" stop-opacity="0.673160970211029"/>
    </radialGradient>
    <radialGradient id="shape_64_fill" cx="0.40801186943620177" cy="0.12556053811659193" r="0.06617211022079875">
      <stop offset="0.0" stop-color="rgb(76, 66, 59)" stop-opacity="1.0"/>
      <stop offset="1.0" stop-color="rgb(101, 70, 64)" stop-opacity="1.0"/>
    </radialGradient>
    <radialGradient id="shape_65_fill" cx="0.6528189910979229" cy="0.6883408071748879" r="0.06617211022079875">
      <stop offset="0.0" stop-color="rgb(121, 97, 39)" stop-opacity="1.0"/>
      <stop offset="1.0" stop-color="rgb(255, 255, 87)" stop-opacity="1.0"/>
    </radialGradient>
    <radialGradient id="shape_66_fill" cx="0.6514115602397069" cy="0.46086835647377733" r="0.06862934689847228">
      <stop offset="0.31891894" stop-color="rgb(147, 181, 89)" stop-opacity="0.4012421667575836"/>
      <stop offset="0.97262067" stop-color="rgb(0, 0, 0)" stop-opacity="0.05962264910340309"/>
    </radialGradient>
    <radialGradient id="shape_67_fill" cx="0.594701161370433" cy="0.9952981717917951" r="0.0687543603008508">
      <stop offset="0.87993103" stop-color="rgb(52, 28, 0)" stop-opacity="0.7612382769584656"/>
      <stop offset="1.0" stop-color="rgb(0, 0, 0)" stop-opacity="0.16185064613819122"/>
    </radialGradient>
    <radialGradient id="shape_68_fill" cx="0.48892872977327523" cy="0.9963125733516676" r="0.06763833495912637">
      <stop offset="0.41961807" stop-color="rgb(51, 30, 15)" stop-opacity="0.6668214797973633"/>
      <stop offset="1.0" stop-color="rgb(46, 66, 59)" stop-opacity="0.29173240065574646"/>
    </radialGradient>
  </defs>
  <g>
    <path d="M -0.22036568820476532 271.1859130859375 C 25.956096649169922 269.71710205078125 34.985599517822266 270.8221435546875 44.949859619140625 273.13458251953125 C 48.088783264160156 274.65521240234375 49.36372375488281 276.5041198730469 57.109962463378906 274.49908447265625 C 60.3768424987793 273.7821350097656 63.88174819946289 274.5700378417969 64.26151275634766 272.9023132324219 C 71.12055969238281 270.6527404785156 101.07275390625 271.325439453125 116.44569396972656 271.3225402832031 C 120.71542358398438 271.74407958984375 126.42628479003906 277.3677673339844 123.97734832763672 282.41973876953125 C 133.56399536132812 282.4067687988281 140.00657653808594 281.5052490234375 149.6089630126953 286.2579345703125 C 185.269287109375 282.1416320800781 185.76136779785156 282.5298767089844 206.6083526611328 287.3549499511719 C 199.8044891357422 288.04833984375 198.17230224609375 282.6881103515625 212.73170471191406 272.2619323730469 C 243.4810028076172 273.5408935546875 286.70172119140625 272.55230712890625 311.141845703125 277.5033264160156 C 344.3233642578125 279.8831481933594 420.28985595703125 279.9667663574219 463.7707824707031 276.6962585449219 C 490.95404052734375 275.5028991699219 540.2763671875 277.0554504394531 540.92626953125 282.6913757324219 C 548.922607421875 283.24151611328125 550.2713623046875 278.36761474609375 563.8935546875 275.5255432128906 C 578.7744750976562 279.0838623046875 612.00390625 284.1513671875 612.8157958984375 284.727294921875 C 631.052001953125 275.9784240722656 641.1285400390625 276.5283508300781 665.7816772460938 276.3067321777344 C 671.3310546875 277.0723876953125 676.842529296875 281.51275634765625 677.6986083984375 286.0892028808594 C 676.562744140625 339.48065185546875 674.7655029296875 391.5310974121094 675.1177368164062 446.46636962890625 C 451.9151306152344 446.6694641113281 228.9889373779297 446.81121826171875 -0.4673948287963867 446.42364501953125 C -0.4140738248825073 389.1458435058594 0.27215641736984253 332.36083984375 -0.22036568820476532 271.1859130859375" stroke-width="0.0" fill="url(#shape_0_fill)"/>
    <path d="M -0.026616893708705902 271.3841552734375 C 35.933231353759766 275.3992919921875 36.5576057434082 274.5904235839844 44.37797164916992 274.8100891113281 C 48.7940559387207 267.8277893066406 60.472450256347656 267.0569152832031 77.0270767211914 268.8778076171875 C 113.48123931884766 278.68035888671875 114.02267456054688 279.3109130859375 126.50534057617188 279.1190185546875 C 127.79285430908203 274.5837097167969 146.92816162109375 273.76336669921875 150.74810791015625 272.8316650390625 C 185.1104736328125 271.8120422363281 185.73670959472656 273.4512939453125 202.0457000732422 276.1976013183594 C 203.46206665039062 291.7793273925781 205.41827392578125 291.74737548828125 219.4139404296875 294.13690185546875 C 219.9336395263672 292.9656982421875 271.9448547363281 294.9360656738281 292.644775390625 296.3699645996094 C 324.6246337890625 298.27459716796875 449.4691467285156 296.2842712402344 456.9394836425781 296.7439270019531 C 472.1607666015625 289.92352294921875 487.4623718261719 291.2648010253906 504.91229248046875 288.0252685546875 C 509.8097229003906 287.5599670410156 518.8095092773438 286.2308349609375 522.8424072265625 286.43743896484375 C 527.513916015625 285.6781005859375 531.8637084960938 285.8827209472656 535.080322265625 287.04083251953125 C 543.3553466796875 286.8446960449219 550.0388793945312 288.0005798339844 558.2661743164062 294.772216796875 C 574.2923583984375 287.82373046875 579.482421875 289.55224609375 589.1358032226562 291.5401916503906 C 607.8016357421875 288.817138671875 620.3306274414062 287.92095947265625 634.0313720703125 288.384765625 C 646.4551391601562 281.1284484863281 656.3530883789062 286.6651306152344 673.8077392578125 290.1385498046875 C 673.9098510742188 340.6423034667969 674.4415893554688 392.222900390625 674.1525268554688 446.2807922363281 C 451.4774169921875 446.3905334472656 229.19664001464844 446.25439453125 -0.3076566159725189 446.2476501464844 C -0.2135799378156662 389.4035949707031 -0.29401928186416626 333.0278625488281 -0.026616893708705902 271.3841552734375" stroke-width="0.0" fill="url(#shape_1_fill)"/>
    <path d="M -0.019790586084127426 -0.25989267230033875 C 219.69313049316406 0.10403919219970703 439.478759765625 -0.452425479888916 671.6216430664062 -0.2280140370130539 C 664.648193359375 9.934165000915527 645.650146484375 36.544315338134766 637.5991821289062 47.70512390136719 C 633.939697265625 52.89306640625 610.5809936523438 93.70219421386719 585.18798828125 84.19059753417969 C 577.8408203125 81.66514587402344 559.7619018554688 70.55445861816406 532.568359375 73.87629699707031 C 531.5245361328125 76.12028503417969 524.3421020507812 77.94183349609375 522.3916625976562 72.20539093017578 C 522.5965576171875 68.85255432128906 499.5412902832031 63.73051071166992 499.6476135253906 62.663848876953125 C 492.7483825683594 62.13630294799805 487.3446350097656 61.05842208862305 484.2716979980469 68.36856079101562 C 475.1197814941406 71.56995391845703 476.03045654296875 74.74800109863281 477.4079284667969 82.19324493408203 C 482.3861389160156 95.84275817871094 473.06256103515625 112.54578399658203 468.98291015625 117.17903137207031 C 459.7146911621094 117.72457885742188 458.22467041015625 114.17141723632812 451.69549560546875 108.70142364501953 C 435.5408630371094 107.58540344238281 411.6715087890625 102.51889038085938 410.53070068359375 104.83477783203125 C 411.04693603515625 119.80546569824219 411.4389953613281 125.32450866699219 407.99566650390625 132.41700744628906 C 405.36346435546875 140.2227020263672 396.6900634765625 138.90924072265625 391.135498046875 136.98216247558594 C 381.716552734375 143.99307250976562 375.4428405761719 158.11614990234375 370.08551025390625 157.5494842529297 C 368.9306945800781 161.18235778808594 367.3492736816406 164.90438842773438 363.346923828125 169.25161743164062 C 360.8318786621094 171.8269500732422 357.5033874511719 171.1446533203125 352.1515808105469 176.5866241455078 C 345.6525573730469 184.2164764404297 336.46282958984375 176.3818817138672 332.0750732421875 172.2284393310547 C 306.1183166503906 171.98609924316406 305.3913879394531 178.47430419921875 303.49310302734375 181.9364776611328 C 304.1131286621094 188.4132080078125 303.958251953125 191.93138122558594 307.5672302246094 201.33970642089844 C 307.31793212890625 200.8366241455078 305.8056640625 198.41024780273438 305.10040283203125 191.20106506347656 C 304.9916687011719 188.6759796142578 301.1436462402344 188.02633666992188 286.35113525390625 182.21435546875 C 289.6760559082031 194.58299255371094 289.2437438964844 195.97607421875 289.66400146484375 196.27029418945312 C 288.3194274902344 190.2841339111328 287.8326416015625 184.06614685058594 284.4068908691406 181.8392791748047 C 272.9302673339844 184.10440063476562 270.7958679199219 187.90921020507812 264.0649719238281 184.18658447265625 C 257.048583984375 185.48777770996094 257.41259765625 189.07620239257812 257.5661315917969 197.58436584472656 C 260.8788146972656 199.35963439941406 260.52838134765625 200.14376831054688 257.7707214355469 198.97811889648438 C 257.0154113769531 199.0622100830078 252.1375732421875 196.66696166992188 253.14125061035156 194.44053649902344 C 254.84616088867188 189.3577423095703 256.3201904296875 186.34097290039062 252.39662170410156 172.79725646972656 C 255.52191162109375 167.60440063476562 216.4011993408203 141.7776336669922 214.09510803222656 139.96661376953125 C 185.08839416503906 127.74630737304688 195.57388305664062 102.6082992553711 191.8149871826172 87.96227264404297 C 192.93267822265625 83.77361297607422 158.599365234375 73.187255859375 139.90744018554688 63.16814041137695 C 114.1046371459961 39.21481704711914 69.20199584960938 54.77769470214844 36.8609504699707 61.80622482299805 C 18.5098876953125 69.96314239501953 9.657873153686523 69.43659210205078 -0.6340868473052979 69.56835174560547 C 0.3418278396129608 43.958133697509766 -0.33145612478256226 22.56187629699707 -0.019790586084127426 -0.25989267230033875" stroke-width="0.0" fill="url(#shape_2_fill)"/>
    <path d="M 86.52753448486328 64.73246002197266 C 88.68624114990234 68.90396881103516 92.53669738769531 68.61381530761719 93.56673431396484 69.67984008789062 C 90.88855743408203 79.91213989257812 91.26624298095703 80.63182830810547 91.2641830444336 88.77218627929688 C 96.0093002319336 85.23326873779297 97.88150024414062 87.10208892822266 103.01097869873047 87.9324722290039 C 104.22003173828125 75.1637191772461 105.8641357421875 73.5049819946289 108.5181655883789 73.27204895019531 C 111.94957733154297 87.69137573242188 111.36968231201172 93.66487121582031 116.25869750976562 99.4168472290039 C 116.62550354003906 100.06368255615234 116.2916259765625 108.60301971435547 115.64652252197266 115.39759063720703 C 124.68914031982422 115.15409851074219 128.75172424316406 115.4039535522461 129.559814453125 113.61058807373047 C 130.22726440429688 109.23394012451172 136.46070861816406 107.75776672363281 136.4853515625 104.56134796142578 C 136.61016845703125 103.68614196777344 135.5370635986328 101.79926300048828 137.07138061523438 98.10032653808594 C 136.4608154296875 93.25824737548828 137.48016357421875 92.87886810302734 137.33082580566406 89.0935287475586 C 137.2928466796875 84.90687561035156 138.61924743652344 84.8029556274414 139.23756408691406 86.15586853027344 C 139.857177734375 82.39048767089844 146.65318298339844 80.70143127441406 147.95468139648438 83.50597381591797 C 148.37730407714844 92.38448333740234 150.30308532714844 94.8383560180664 151.94329833984375 99.02536010742188 C 153.43406677246094 103.03162384033203 149.9283447265625 106.90342712402344 148.8221435546875 106.69538116455078 C 152.76083374023438 109.96067810058594 150.67372131347656 114.18524169921875 148.5828094482422 113.48579406738281 C 154.59649658203125 112.7874526977539 157.95018005371094 122.57589721679688 157.54734802246094 123.1593017578125 C 161.56588745117188 124.86634826660156 164.9783477783203 123.41639709472656 169.6082000732422 122.64122772216797 C 174.39938354492188 119.71804809570312 175.77249145507812 121.51981353759766 177.71031188964844 122.51346588134766 C 179.32862854003906 122.67908477783203 179.9332733154297 125.4402084350586 182.59925842285156 127.79318237304688 C 183.80722045898438 130.2268524169922 182.3795166015625 133.13836669921875 183.45828247070312 135.50843811035156 C 186.1870574951172 135.54766845703125 187.7404327392578 142.90065002441406 188.5357666015625 145.55349731445312 C 194.62474060058594 145.15850830078125 206.26206970214844 155.57525634765625 201.61961364746094 173.9653778076172 C 205.47286987304688 175.06820678710938 205.50222778320312 178.3290252685547 205.5992889404297 182.8087158203125 C 212.4081268310547 181.8852996826172 214.6809539794922 198.43798828125 212.18617248535156 204.88522338867188 C 207.28787231445312 207.08384704589844 203.41305541992188 207.84848022460938 203.12615966796875 210.27297973632812 C 200.7904052734375 210.5332794189453 199.92330932617188 211.69212341308594 200.25404357910156 213.59774780273438 C 196.40985107421875 215.25189208984375 193.67823791503906 215.42098999023438 191.86334228515625 219.39126586914062 C 184.2965850830078 221.0515899658203 183.6087646484375 224.7911834716797 178.81455993652344 230.33782958984375 C 176.2886199951172 233.58673095703125 179.8542022705078 239.61305236816406 180.7993621826172 243.49900817871094 C 182.44369506835938 252.0569305419922 186.21774291992188 260.6539611816406 178.8702392578125 264.7143859863281 C 173.8505859375 268.1034851074219 148.1359100341797 268.2119140625 137.24464416503906 269.671875 C 130.11993408203125 268.9205322265625 126.67122650146484 271.0948486328125 119.79688262939453 274.0403137207031 C 109.02833557128906 276.9682922363281 73.28406524658203 276.1231384277344 73.1105728149414 269.9726867675781 C 47.67458724975586 266.7555847167969 56.53890609741211 268.560791015625 57.37232208251953 273.6291809082031 C 47.51470184326172 276.6820373535156 0.5665427446365356 273.429443359375 0.6281320452690125 269.8507995605469 C -4.515933990478516 222.0498504638672 -3.4043829441070557 167.75296020507812 -1.3730239868164062 118.2698974609375 C 12.254294395446777 119.20314025878906 22.085878372192383 114.03413391113281 26.57601547241211 122.06491088867188 C 29.292043685913086 127.90164947509766 36.42625045776367 128.29339599609375 41.38593292236328 131.80462646484375 C 46.85908889770508 131.21224975585938 47.74300765991211 133.315185546875 49.23456573486328 142.08334350585938 C 50.40851974487305 147.31301879882812 61.6910400390625 148.63014221191406 62.8118782043457 147.0139923095703 C 62.13615036010742 136.7552032470703 63.023353576660156 133.86634826660156 62.54195022583008 128.35362243652344 C 68.52178192138672 126.70601654052734 67.45922088623047 122.62406158447266 66.31501007080078 112.48441314697266 C 68.07557678222656 111.18401336669922 68.34241485595703 105.8587646484375 75.5998764038086 103.53101348876953 C 74.567626953125 100.55500793457031 78.36109924316406 90.24462890625 77.1919174194336 85.40878295898438 C 76.99956512451172 84.03958129882812 78.435302734375 74.46758270263672 85.42597961425781 75.53407287597656 C 82.7154769897461 70.23272705078125 84.60187530517578 67.6621322631836 86.52753448486328 64.73246002197266" stroke-width="0.0" fill="url(#shape_3_fill)"/>
    <path d="M 674.3654174804688 -0.38391685485839844 C 676.0994873046875 47.84147262573242 675.0172119140625 95.90843200683594 679.0180053710938 140.72886657714844 C 674.0955810546875 130.98629760742188 667.1115112304688 125.38753509521484 661.59375 120.36859130859375 C 660.9376831054688 119.97006225585938 655.1387329101562 109.36833953857422 649.6148681640625 110.91694641113281 C 648.6050415039062 112.5180435180664 644.7567749023438 148.78733825683594 642.0535888671875 154.73548889160156 C 630.5692138671875 154.46734619140625 627.0746459960938 142.4303436279297 627.4271240234375 138.2245330810547 C 623.001708984375 137.36895751953125 618.8031005859375 145.30233764648438 615.4197998046875 143.97561645507812 C 611.6814575195312 142.31820678710938 610.1522216796875 143.35203552246094 607.7316284179688 141.11546325683594 C 607.79638671875 137.39036560058594 610.6624755859375 132.0839385986328 606.809814453125 121.15655517578125 C 598.014404296875 133.42446899414062 597.4652099609375 139.23463439941406 594.6504516601562 142.99984741210938 C 598.8773193359375 148.03802490234375 597.4617919921875 151.41287231445312 597.4092407226562 152.89059448242188 C 588.3421630859375 156.8517303466797 587.0670776367188 163.95162963867188 579.7354125976562 172.02438354492188 C 571.56884765625 170.35604858398438 569.8372802734375 159.5527801513672 568.9984741210938 157.39024353027344 C 566.15234375 157.32615661621094 564.0852661132812 153.07183837890625 561.5908813476562 152.37188720703125 C 560.07080078125 150.88047790527344 555.748779296875 150.73683166503906 555.4674072265625 156.18109130859375 C 551.9519653320312 156.26095581054688 550.3606567382812 158.92759704589844 548.9536743164062 159.15670776367188 C 547.2059936523438 157.2186737060547 543.634521484375 157.4642791748047 536.10302734375 153.9999237060547 C 531.7793579101562 154.86451721191406 529.9520874023438 158.483154296875 523.8978271484375 157.4855194091797 C 518.225341796875 160.9888916015625 520.8096313476562 161.62884521484375 522.7772827148438 169.89639282226562 C 517.591064453125 168.64500427246094 516.1018676757812 170.12652587890625 516.4462890625 171.45849609375 C 511.2712097167969 173.32232666015625 509.8159484863281 175.26531982421875 505.63104248046875 174.399169921875 C 502.80963134765625 171.38157653808594 502.9535217285156 169.53717041015625 501.7419738769531 160.4045867919922 C 493.8066101074219 145.96630859375 508.02703857421875 122.1610107421875 518.7056884765625 126.17719268798828 C 523.485595703125 125.00408935546875 538.9102783203125 110.64100646972656 548.6891479492188 112.92974090576172 C 557.367919921875 110.66886138916016 556.8853149414062 109.42826843261719 556.409912109375 106.31036376953125 C 560.2025146484375 108.44635009765625 564.8029174804688 103.10186767578125 570.9110717773438 105.04389190673828 C 574.6123046875 102.52726745605469 573.4157104492188 97.45728302001953 578.9310302734375 94.17208099365234 C 582.6491088867188 88.4427261352539 599.537109375 76.61334991455078 614.136962890625 78.5191879272461 C 617.3855590820312 73.97147369384766 645.9788818359375 52.749874114990234 644.5233764648438 35.43666076660156 C 644.96630859375 32.44025421142578 647.9918212890625 30.385560989379883 647.6505737304688 29.53448486328125 C 646.9283447265625 28.28740692138672 664.6189575195312 -3.579066276550293 674.3654174804688 -0.38391685485839844" stroke-width="0.0" fill="url(#shape_4_fill)"/>
    <path d="M 151.61012268066406 68.49810028076172 C 152.31927490234375 69.00444030761719 186.3517608642578 84.0071029663086 192.7619171142578 92.69487762451172 C 179.1260223388672 117.14408874511719 217.70420837402344 150.07943725585938 220.8177947998047 154.95664978027344 C 238.8636932373047 170.09042358398438 241.93765258789062 184.11572265625 240.85804748535156 193.85650634765625 C 238.17135620117188 193.19337463378906 236.1846160888672 186.4010772705078 236.76849365234375 184.05572509765625 C 235.67723083496094 183.5883026123047 234.1582489013672 184.2882080078125 231.0900421142578 182.72962951660156 C 231.54678344726562 183.8760223388672 232.05572509765625 193.3665008544922 228.6160430908203 195.6673583984375 C 227.5559844970703 196.6338653564453 226.85696411132812 205.15541076660156 221.43943786621094 207.72821044921875 C 215.06663513183594 206.5997314453125 214.31512451171875 197.91717529296875 214.66676330566406 194.8637237548828 C 212.9606170654297 185.4356231689453 211.8980712890625 184.94142150878906 206.4158477783203 177.4636688232422 C 205.9053955078125 172.91297912597656 205.8902130126953 164.863525390625 203.55410766601562 159.26968383789062 C 207.01414489746094 153.37139892578125 194.8584442138672 144.7047576904297 193.37796020507812 141.19583129882812 C 189.05870056152344 140.2625274658203 188.7642822265625 137.73997497558594 186.12232971191406 136.1938934326172 C 178.40187072753906 133.19970703125 179.28884887695312 126.68669128417969 183.00094604492188 117.3303451538086 C 179.38771057128906 116.50344848632812 177.4018096923828 117.60607147216797 173.2068328857422 117.69929504394531 C 178.8340301513672 127.80903625488281 175.1387939453125 131.48501586914062 151.62332153320312 130.23167419433594 C 149.84085083007812 125.49127197265625 151.63446044921875 103.26270294189453 153.6600799560547 95.78945922851562 C 152.8652801513672 88.86016082763672 153.53208923339844 85.30399322509766 149.971435546875 76.32976531982422 C 148.3577117919922 75.92938232421875 148.9951171875 69.33342742919922 151.61012268066406 68.49810028076172" stroke-width="0.0" fill="url(#shape_5_fill)"/>
    <path d="M 613.172119140625 83.21024322509766 C 618.593994140625 84.18289947509766 619.6257934570312 85.87169647216797 630.7470092773438 85.71405029296875 C 636.1690673828125 86.0000228881836 637.2274169921875 87.33392333984375 641.2478637695312 88.41730499267578 C 642.1476440429688 87.59053802490234 668.4567260742188 92.27224731445312 673.5074462890625 98.00516510009766 C 673.6615600585938 112.78812408447266 673.4002075195312 129.4100341796875 674.3409423828125 149.18603515625 C 666.9508666992188 141.50440979003906 663.098388671875 136.3271484375 659.6134033203125 129.90135192871094 C 659.00390625 122.28096008300781 659.713134765625 116.43766021728516 652.3896484375 111.44255065917969 C 647.7784423828125 116.66278076171875 645.0682373046875 142.35580444335938 642.2660522460938 143.16477966308594 C 643.7116088867188 145.352294921875 641.8893432617188 148.9462890625 643.8684692382812 149.94248962402344 C 639.9439697265625 151.43820190429688 637.9759521484375 152.61940002441406 635.1915283203125 151.13381958007812 C 631.3179931640625 146.7185516357422 629.1932373046875 141.39401245117188 630.1057739257812 140.52682495117188 C 628.90478515625 138.0911407470703 622.9527587890625 136.98068237304688 620.8721313476562 138.58067321777344 C 618.2230834960938 140.5536651611328 619.3043212890625 142.35777282714844 618.7225341796875 145.51910400390625 C 614.4830932617188 144.52474975585938 613.93701171875 143.1516876220703 610.287353515625 143.7076416015625 C 608.5501098632812 140.40565490722656 609.6007690429688 139.24429321289062 609.2999877929688 137.4593048095703 C 606.5079956054688 132.4315185546875 604.6860961914062 126.59667205810547 597.434814453125 128.02896118164062 C 602.7630615234375 135.40208435058594 595.5151977539062 149.8815155029297 591.6226806640625 156.82000732421875 C 590.6758422851562 163.90428161621094 589.38525390625 164.1614990234375 585.9135131835938 168.49061584472656 C 584.467041015625 166.93240356445312 581.4053955078125 165.012451171875 581.1741943359375 162.3860626220703 C 577.0595092773438 160.81301879882812 575.7540283203125 157.25753784179688 574.886474609375 154.30084228515625 C 565.2825927734375 155.6007080078125 556.3703002929688 155.31495666503906 556.1947631835938 151.35142517089844 C 555.854736328125 152.92611694335938 553.080322265625 154.71153259277344 552.886962890625 157.75502014160156 C 550.3524169921875 161.5359344482422 547.9790649414062 160.80307006835938 547.319091796875 159.25408935546875 C 544.3583374023438 157.1752166748047 543.0741577148438 155.3115997314453 536.7469482421875 157.86318969726562 C 534.9462890625 158.50038146972656 530.8837890625 157.1221466064453 528.6200561523438 158.22727966308594 C 526.0625 159.27920532226562 526.396240234375 162.6033935546875 525.2681274414062 165.73199462890625 C 524.571044921875 169.46380615234375 523.5850830078125 171.57879638671875 519.0424194335938 173.10301208496094 C 511.44140625 177.49839782714844 504.7655944824219 171.73606872558594 492.838623046875 166.37112426757812 C 488.6659240722656 141.87680053710938 504.4397888183594 120.73670959472656 513.1089477539062 118.59112548828125 C 529.2001342773438 125.53800964355469 540.9906005859375 109.00699615478516 551.0549926757812 111.28067016601562 C 555.4103393554688 109.89692687988281 560.1216430664062 109.78597259521484 563.7651977539062 106.68331909179688 C 564.6315307617188 104.5422134399414 566.8070678710938 103.65283966064453 569.7974243164062 104.20590209960938 C 574.7901000976562 101.36160278320312 578.3342895507812 97.09537506103516 584.6314697265625 95.9708023071289 C 597.6181030273438 90.3539810180664 603.9589233398438 80.9708251953125 613.172119140625 83.21024322509766" stroke-width="0.0" fill="url(#shape_6_fill)"/>
    <path d="M -0.17797166109085083 115.01398468017578 C 28.709897994995117 120.89226531982422 37.30170440673828 127.73025512695312 49.104637145996094 139.9816131591797 C 76.36739349365234 157.70960998535156 51.25068283081055 219.4052276611328 50.73493576049805 242.12042236328125 C 52.71732711791992 260.20294189453125 48.656620025634766 264.6497802734375 48.43830490112305 266.00970458984375 C 37.6562614440918 268.0541076660156 10.845827102661133 264.22412109375 5.338156700134277 262.0295715332031 C 3.3549787998199463 212.86619567871094 -2.312516927719116 164.38003540039062 -0.17797166109085083 115.01398468017578" stroke-width="0.0" fill="url(#shape_7_fill)"/>
    <path d="M 389.5285949707031 187.1925048828125 C 414.4145812988281 173.9586639404297 425.3492736816406 191.21568298339844 430.2253112792969 203.7446746826172 C 473.1552429199219 191.97666931152344 495.2833557128906 206.5001678466797 491.71856689453125 232.9043426513672 C 490.9920959472656 250.48202514648438 486.1824951171875 251.48158264160156 484.8375244140625 252.35574340820312 C 485.9384460449219 257.9497375488281 483.0338134765625 268.406494140625 477.1129150390625 269.42718505859375 C 469.0430603027344 272.9302978515625 453.2210388183594 266.7112731933594 451.62237548828125 269.70965576171875 C 447.01055908203125 266.27801513671875 448.2086486816406 261.2010192871094 448.9969482421875 260.1673583984375 C 439.2438049316406 264.74774169921875 436.510986328125 261.3894958496094 437.42755126953125 256.8892822265625 C 426.90521240234375 256.42498779296875 425.93499755859375 258.38848876953125 421.2344055175781 262.2465515136719 C 418.53369140625 264.25640869140625 417.5193786621094 267.6094970703125 414.88629150390625 272.1875305175781 C 414.0989990234375 273.25732421875 394.9817810058594 268.39678955078125 392.5907287597656 264.16168212890625 C 391.8258056640625 265.0960693359375 389.0225830078125 263.3221435546875 386.0383605957031 263.5431213378906 C 382.1159973144531 261.9422912597656 380.82177734375 263.1763610839844 376.5597229003906 261.03497314453125 C 374.9787292480469 256.31390380859375 376.1781311035156 252.44529724121094 372.8170471191406 249.15333557128906 C 359.48785400390625 243.90277099609375 373.8456726074219 195.66383361816406 378.33355712890625 180.34603881835938 C 383.0644836425781 170.9617462158203 394.48779296875 176.66732788085938 389.5285949707031 187.1925048828125" stroke-width="0.0" fill="url(#shape_8_fill)"/>
    <path d="M 565.769775390625 157.4201202392578 C 567.859375 159.13201904296875 569.0755004882812 166.73370361328125 568.9161987304688 167.35064697265625 C 573.6063232421875 169.44766235351562 573.6265869140625 170.88967895507812 577.7107543945312 174.25245666503906 C 581.931884765625 172.94320678710938 583.9734497070312 174.5652313232422 583.70703125 179.4731903076172 C 575.3404541015625 180.47747802734375 572.05419921875 225.61634826660156 577.2786865234375 226.9659423828125 C 577.8547973632812 229.99871826171875 581.2846069335938 235.656005859375 576.779296875 242.32069396972656 C 568.6104736328125 238.87326049804688 566.2852172851562 237.2657470703125 558.4845581054688 247.0298309326172 C 554.2354736328125 250.83441162109375 492.84722900390625 253.59207153320312 489.0773620605469 252.21897888183594 C 486.3606872558594 248.3082733154297 486.5718078613281 238.61598205566406 491.0213928222656 229.4387969970703 C 486.44207763671875 226.24375915527344 483.1883239746094 222.2808074951172 481.41790771484375 215.87672424316406 C 476.5693054199219 209.80499267578125 479.1963806152344 205.80294799804688 482.7027282714844 205.95840454101562 C 479.93829345703125 205.3168487548828 481.21160888671875 198.673095703125 487.30426025390625 198.66307067871094 C 491.8758544921875 196.14585876464844 491.8442077636719 192.49923706054688 492.92413330078125 187.8400115966797 C 490.9460754394531 174.04507446289062 491.4404602050781 173.0056915283203 490.073486328125 165.22610473632812 C 504.05059814453125 164.83653259277344 505.4093933105469 169.08543395996094 517.1900634765625 167.68775939941406 C 523.414306640625 169.72767639160156 524.5503540039062 167.31312561035156 525.97607421875 166.3125762939453 C 524.3377685546875 160.5437774658203 529.7996826171875 155.84754943847656 533.3704833984375 158.59677124023438 C 537.6421508789062 161.83465576171875 541.3959350585938 162.45550537109375 542.1989135742188 163.9439697265625 C 545.2495727539062 164.0498504638672 545.9457397460938 165.71876525878906 549.4995727539062 166.41297912597656 C 548.81103515625 165.6271514892578 551.166748046875 157.32723999023438 555.1987915039062 157.6519775390625 C 557.3436279296875 161.2386932373047 563.1958618164062 158.01568603515625 565.769775390625 157.4201202392578" stroke-width="0.0" fill="url(#shape_9_fill)"/>
    <path d="M 561.5485229492188 156.59579467773438 C 567.0280151367188 153.2587127685547 570.9884033203125 159.26095581054688 570.6087646484375 169.1632080078125 C 572.5694580078125 170.2395477294922 576.7000122070312 169.10781860351562 579.42578125 175.18272399902344 C 579.8485717773438 178.00645446777344 578.7230224609375 187.3625030517578 576.93115234375 191.53616333007812 C 571.2700805664062 196.7980194091797 571.9849243164062 229.9724884033203 578.0745849609375 230.9768524169922 C 576.070068359375 231.159423828125 575.6058349609375 236.83465576171875 572.0266723632812 238.04751586914062 C 559.9263305664062 235.95086669921875 567.4507446289062 238.61781311035156 564.3201904296875 248.91380310058594 C 552.4514770507812 252.8874969482422 501.2852783203125 249.1034698486328 500.1814880371094 251.5297393798828 C 491.1600341796875 251.78993225097656 487.9775390625 236.7447509765625 491.1491394042969 229.210205078125 C 486.62591552734375 224.92630004882812 481.9859924316406 219.27081298828125 481.5506896972656 215.90670776367188 C 475.6535949707031 214.07554626464844 474.95648193359375 212.58995056152344 469.5596008300781 199.7965087890625 C 469.2157287597656 194.82972717285156 475.9822082519531 191.05328369140625 480.8680725097656 196.61849975585938 C 489.97662353515625 195.92340087890625 494.3962707519531 184.1692352294922 496.6335754394531 182.962646484375 C 495.96331787109375 179.50489807128906 496.9150085449219 177.0139617919922 500.04071044921875 177.44447326660156 C 507.88128662109375 179.17649841308594 516.8839111328125 181.7925567626953 520.0980834960938 173.979248046875 C 523.1048583984375 173.2945098876953 526.5037231445312 159.18502807617188 532.1019287109375 157.08094787597656 C 537.6640014648438 156.59573364257812 538.5177001953125 160.51315307617188 541.8089599609375 165.80294799804688 C 545.6919555664062 165.72068786621094 548.9951171875 167.05296325683594 551.1934814453125 165.20518493652344 C 551.0999145507812 156.1200408935547 553.180908203125 153.037109375 561.5485229492188 156.59579467773438" stroke-width="0.0" fill="url(#shape_10_fill)"/>
    <path d="M 449.31494140625 107.76387786865234 C 453.22747802734375 109.47157287597656 453.7669677734375 112.15919494628906 460.6027526855469 112.78539276123047 C 463.85748291015625 116.638427734375 469.55267333984375 116.62015533447266 474.5513610839844 117.0560073852539 C 488.38348388671875 124.53141784667969 488.802490234375 125.2498550415039 493.1839599609375 129.489990234375 C 493.6574401855469 131.6291961669922 493.1829833984375 134.5879669189453 496.8922424316406 136.21554565429688 C 494.430419921875 135.04336547851562 492.12646484375 137.03109741210938 486.6961364746094 139.16111755371094 C 483.2525939941406 136.35525512695312 481.1578063964844 137.5195770263672 477.1192321777344 138.5099334716797 C 470.3447265625 140.0964813232422 467.1423645019531 139.62991333007812 467.3214416503906 134.3777313232422 C 465.2786865234375 133.49330139160156 460.5630798339844 133.52398681640625 459.7475280761719 134.38082885742188 C 457.5001525878906 139.33529663085938 473.43304443359375 148.93380737304688 486.03997802734375 157.17605590820312 C 476.1992492675781 176.62413024902344 475.3607177734375 177.17518615722656 470.996826171875 181.0766143798828 C 466.7380676269531 182.2990264892578 466.3287353515625 186.8219451904297 464.4945983886719 188.7474822998047 C 461.71893310546875 185.80950927734375 456.84539794921875 178.509521484375 455.4039001464844 176.07728576660156 C 448.2679748535156 179.36004638671875 447.5099792480469 182.54678344726562 439.9041748046875 183.0844268798828 C 439.50054931640625 183.8662109375 436.1930847167969 195.9898223876953 434.9622497558594 197.74314880371094 C 429.150146484375 200.46278381347656 417.463134765625 180.59774780273438 417.7153625488281 179.73057556152344 C 416.9559326171875 179.55908203125 399.3928527832031 176.7674560546875 399.50250244140625 171.85704040527344 C 393.5238342285156 170.20733642578125 390.2785339355469 176.33900451660156 380.15130615234375 174.07684326171875 C 380.20361328125 164.39491271972656 384.1058349609375 145.1153106689453 392.3489685058594 139.30361938476562 C 397.9132385253906 137.44448852539062 399.3930969238281 129.69686889648438 402.0459289550781 122.1236572265625 C 408.6043395996094 99.43058013916016 426.4656066894531 104.56976318359375 449.31494140625 107.76387786865234" stroke-width="0.0" fill="url(#shape_11_fill)"/>
    <path d="M 602.8572387695312 127.48242950439453 C 605.3425903320312 131.7411651611328 605.74169921875 143.7832794189453 608.2706298828125 144.44996643066406 C 611.87353515625 144.69619750976562 611.846435546875 148.120849609375 615.4112548828125 152.08860778808594 C 618.216796875 149.82107543945312 618.4810791015625 141.82823181152344 620.9349365234375 140.78695678710938 C 623.364013671875 137.30459594726562 625.66796875 137.35537719726562 628.1567993164062 140.2068634033203 C 627.6956176757812 142.1289825439453 629.2503662109375 144.65744018554688 629.2033081054688 147.02899169921875 C 632.1250610351562 149.7479705810547 631.7984008789062 151.10670471191406 637.056884765625 153.05262756347656 C 642.4834594726562 154.3506317138672 641.2670288085938 160.36874389648438 644.381591796875 169.1086883544922 C 638.1016235351562 184.1461639404297 639.4091796875 194.47720336914062 639.830322265625 206.4725341796875 C 642.2080688476562 219.10133361816406 646.3951416015625 232.1673126220703 642.8558959960938 245.6724395751953 C 623.3687133789062 248.56201171875 610.7354736328125 248.90394592285156 577.6255493164062 256.3307800292969 C 571.5755615234375 245.85606384277344 572.4195556640625 232.09632873535156 572.7191772460938 219.475341796875 C 568.3909301757812 209.9180145263672 572.3380126953125 168.781005859375 583.1001586914062 169.7868194580078 C 597.56689453125 163.5855712890625 598.71923828125 144.12582397460938 599.6604614257812 141.7662811279297 C 595.6942138671875 139.2548370361328 597.0953979492188 136.75485229492188 602.8572387695312 127.48242950439453" stroke-width="0.0" fill="url(#shape_12_fill)"/>
    <path d="M 409.3460388183594 176.48898315429688 C 420.5956115722656 173.28749084472656 432.5285339355469 212.76519775390625 427.9102478027344 220.21292114257812 C 419.9734802246094 228.79360961914062 426.362548828125 238.4127197265625 428.7231140136719 246.02633666992188 C 430.5646667480469 262.37200927734375 420.6631164550781 265.79010009765625 417.01177978515625 268.0641784667969 C 401.5914611816406 268.36578369140625 396.33270263671875 269.68994140625 389.70159912109375 268.305419921875 C 385.4811096191406 264.5262145996094 382.5180969238281 265.6092529296875 380.3114318847656 265.2322082519531 C 375.3468322753906 262.6769714355469 376.2534484863281 260.78533935546875 375.2736511230469 258.3904113769531 C 376.3236389160156 255.61489868164062 375.5815734863281 253.83822631835938 374.50726318359375 253.32833862304688 C 372.9258117675781 253.90597534179688 370.4612731933594 250.67613220214844 368.94708251953125 251.68370056152344 C 359.98583984375 247.2652130126953 365.9790344238281 228.33444213867188 367.8428039550781 221.10015869140625 C 368.9660949707031 218.84437561035156 372.4701232910156 202.83424377441406 380.5871887207031 203.2664031982422 C 379.63507080078125 201.050537109375 380.8611145019531 185.927734375 388.14404296875 183.41241455078125 C 391.6531677246094 176.4983367919922 392.8360290527344 176.49964904785156 409.3460388183594 176.48898315429688" stroke-width="0.0" fill="url(#shape_13_fill)"/>
    <path d="M 509.6523742675781 66.6451416015625 C 512.5281372070312 66.28380584716797 521.357666015625 70.19245910644531 523.2327880859375 74.74000549316406 C 530.7823486328125 79.49922943115234 533.7330322265625 79.93450164794922 536.7048950195312 89.95696258544922 C 539.32470703125 90.87989044189453 544.5418701171875 90.31383514404297 545.0235595703125 91.16950988769531 C 545.5333862304688 92.75778198242188 556.0067138671875 97.0994644165039 561.3390502929688 94.56339263916016 C 563.686767578125 97.47119140625 567.3449096679688 97.5110092163086 568.72314453125 99.14728546142578 C 564.7085571289062 105.05589294433594 555.349609375 115.58151245117188 544.8716430664062 110.85894012451172 C 541.5013427734375 111.91548156738281 539.3287963867188 114.92933654785156 534.7955932617188 118.31764221191406 C 528.3057861328125 120.592529296875 520.7369384765625 123.7900161743164 515.6012573242188 118.83368682861328 C 510.566162109375 119.49683380126953 501.4401550292969 125.44567108154297 499.0357360839844 125.03539276123047 C 497.08197021484375 128.384765625 493.6733703613281 128.32676696777344 489.47772216796875 127.61935424804688 C 489.4388732910156 123.0067367553711 468.7952575683594 118.99080657958984 468.0713806152344 118.00366973876953 C 463.3037109375 117.74723815917969 463.10577392578125 116.4454574584961 462.36212158203125 116.18805694580078 C 468.08978271484375 114.94002532958984 470.74835205078125 108.92753601074219 477.4534912109375 103.66484832763672 C 476.57061767578125 90.18568420410156 474.0370788574219 86.92989349365234 475.4179992675781 82.16036987304688 C 474.5901184082031 70.93414306640625 475.34326171875 70.3868408203125 478.6594543457031 66.56668090820312 C 479.04425048828125 64.26029205322266 482.7527160644531 64.38700103759766 484.7864074707031 63.68706512451172 C 494.1180725097656 63.48769760131836 501.695068359375 61.755531311035156 509.6523742675781 66.6451416015625" stroke-width="0.0" fill="url(#shape_14_fill)"/>
    <path d="M 532.3575439453125 159.7469482421875 C 543.80810546875 162.85873413085938 544.0681762695312 163.82276916503906 547.1171875 165.1772918701172 C 549.6854248046875 167.63954162597656 549.5492553710938 170.27000427246094 543.768310546875 180.5411834716797 C 541.9707641601562 189.7427978515625 536.7659912109375 231.06707763671875 536.3078002929688 233.51649475097656 C 540.5712280273438 237.01174926757812 540.8468627929688 250.22457885742188 515.2275390625 252.15863037109375 C 501.8302307128906 251.3191680908203 483.4381103515625 245.26185607910156 487.9618835449219 230.59967041015625 C 477.2132568359375 218.15516662597656 478.771240234375 207.33975219726562 482.93682861328125 200.36582946777344 C 486.8089904785156 197.44471740722656 488.5359802246094 197.56919860839844 489.2203674316406 197.72802734375 C 484.83306884765625 192.4830780029297 488.23992919921875 179.21151733398438 487.74786376953125 172.848388671875 C 486.8519592285156 169.4163360595703 488.40460205078125 166.09078979492188 492.8492431640625 167.95687866210938 C 505.6029968261719 178.85202026367188 511.3260803222656 184.31558227539062 522.6863403320312 172.62945556640625 C 525.548828125 170.9582977294922 525.538330078125 167.30496215820312 526.9600219726562 165.0973358154297 C 527.4315795898438 161.1678009033203 530.1112060546875 159.4221649169922 532.3575439453125 159.7469482421875" stroke-width="0.0" fill="url(#shape_15_fill)"/>
    <path d="M 652.1121215820312 110.37467193603516 C 653.90478515625 110.44969177246094 662.9510498046875 122.0684814453125 660.7263793945312 129.0923614501953 C 664.9342651367188 134.32745361328125 665.2199096679688 141.36691284179688 673.4100952148438 148.2918243408203 C 676.4723510742188 179.17059326171875 673.4038696289062 211.81906127929688 674.2516479492188 256.87261962890625 C 673.03173828125 254.76715087890625 647.4686889648438 262.038818359375 637.5626220703125 252.31756591796875 C 636.1837768554688 245.2401580810547 640.7561645507812 123.51307678222656 652.1121215820312 110.37467193603516" stroke-width="0.0" fill="url(#shape_16_fill)"/>
    <path d="M 600.8970336914062 130.01324462890625 C 603.0736694335938 127.97452545166016 607.4712524414062 131.97366333007812 606.53173828125 133.96517944335938 C 608.0984497070312 135.07199096679688 607.8173217773438 139.882080078125 609.4773559570312 142.55886840820312 C 625.4015502929688 143.26361083984375 626.3863525390625 225.2476043701172 625.0651245117188 253.80810546875 C 595.7088012695312 258.5568542480469 578.1415405273438 250.65997314453125 579.9498901367188 235.9409637451172 C 564.8223876953125 227.55374145507812 597.2758178710938 154.03848266601562 600.8970336914062 130.01324462890625" stroke-width="0.0" fill="url(#shape_17_fill)"/>
    <path d="M 321.04974365234375 186.29464721679688 C 321.4865417480469 186.4451141357422 323.2829284667969 189.303955078125 323.09979248046875 196.1875762939453 C 333.263916015625 192.9970703125 336.05078125 191.50100708007812 338.4110412597656 194.13621520996094 C 341.3761901855469 198.78790283203125 346.32037353515625 197.15150451660156 353.6401672363281 195.35972595214844 C 357.56890869140625 194.71722412109375 358.44512939453125 197.06275939941406 357.8027038574219 201.31846618652344 C 359.5382995605469 203.96144104003906 361.58392333984375 204.15565490722656 362.29754638671875 207.91629028320312 C 367.24822998046875 207.03836059570312 368.4794616699219 208.22813415527344 368.1715393066406 211.83944702148438 C 370.0274353027344 220.26214599609375 370.71832275390625 222.64215087890625 366.07421875 225.41517639160156 C 366.73553466796875 231.51602172851562 365.1996765136719 235.56298828125 368.1630554199219 248.53848266601562 C 368.81146240234375 251.69712829589844 366.2477111816406 256.3468017578125 357.9605712890625 254.79661560058594 C 353.3868103027344 255.41146850585938 330.51611328125 255.05245971679688 322.0357666015625 255.2836456298828 C 313.41943359375 255.99131774902344 312.20257568359375 253.5117645263672 308.1491394042969 242.02178955078125 C 304.5538024902344 229.96031188964844 320.80010986328125 194.01516723632812 321.04974365234375 186.29464721679688" stroke-width="0.0" fill="url(#shape_18_fill)"/>
    <path d="M 479.1310729980469 216.0391387939453 C 492.6475830078125 247.04751586914062 502.85577392578125 256.5235900878906 485.8869934082031 275.30841064453125 C 470.7485656738281 279.086181640625 444.0089416503906 261.399658203125 442.1390380859375 261.6896057128906 C 438.6325988769531 260.6455383300781 437.1372985839844 258.22882080078125 432.5501708984375 258.0610656738281 C 429.6731262207031 258.145263671875 427.65118408203125 257.48077392578125 428.0830078125 254.11476135253906 C 427.6603698730469 239.8665008544922 421.55841064453125 232.48684692382812 422.6932067871094 229.06539916992188 C 424.6330871582031 227.42808532714844 421.29229736328125 227.1861572265625 420.01904296875 225.71665954589844 C 427.7170104980469 219.4990692138672 429.6909484863281 218.80404663085938 429.2726745605469 215.49215698242188 C 438.8542175292969 195.09954833984375 470.55413818359375 199.07504272460938 479.1310729980469 216.0391387939453" stroke-width="0.0" fill="url(#shape_19_fill)"/>
    <path d="M 673.949951171875 -2.8789772987365723 C 675.0543823242188 32.861000061035156 674.5826416015625 64.76441955566406 674.3572387695312 97.33008575439453 C 669.90771484375 96.06763458251953 651.662841796875 87.2901840209961 643.4990234375 90.09583282470703 C 638.6558227539062 89.55465698242188 638.19091796875 85.86703491210938 637.6560668945312 84.54959106445312 C 626.1004028320312 84.540283203125 619.0217895507812 92.7352523803711 608.4818115234375 86.49906921386719 C 609.3935546875 75.28204345703125 613.0877075195312 73.55245208740234 615.082275390625 71.9528579711914 C 622.7510986328125 69.17191314697266 649.3817138671875 25.64370346069336 648.4290771484375 22.52695083618164 C 655.9071655273438 12.706655502319336 656.4229736328125 3.9761719703674316 668.0830078125 4.052556037902832 C 669.7958374023438 2.667609453201294 670.1787109375 1.142711877822876 673.949951171875 -2.8789772987365723" stroke-width="0.0" fill="url(#shape_20_fill)"/>
    <path d="M 562.2224731445312 156.02322387695312 C 569.8729858398438 156.55813598632812 569.8494262695312 162.35362243652344 574.5167846679688 165.1910858154297 C 585.5868530273438 168.28677368164062 575.8408813476562 231.2683868408203 577.433349609375 240.8009490966797 C 575.4411010742188 244.60507202148438 571.7166137695312 246.50390625 571.930419921875 252.67544555664062 C 559.37060546875 250.5123291015625 543.0570068359375 251.2786102294922 540.0352783203125 246.25840759277344 C 544.31689453125 244.70997619628906 540.2750854492188 164.46063232421875 555.307373046875 157.84181213378906 C 555.3806762695312 153.2200164794922 558.6249389648438 153.15211486816406 562.2224731445312 156.02322387695312" stroke-width="0.0" fill="url(#shape_21_fill)"/>
    <path d="M 215.55886840820312 209.8587646484375 C 231.68112182617188 210.87429809570312 231.77781677246094 243.8646697998047 219.87232971191406 255.8134765625 C 211.72445678710938 263.2294616699219 209.7291717529297 264.6266784667969 208.1910400390625 273.48223876953125 C 205.71224975585938 275.37359619140625 206.7943572998047 276.87164306640625 207.32266235351562 279.7535400390625 C 207.0316925048828 283.1861877441406 204.063232421875 285.3072204589844 200.228271484375 284.88507080078125 C 200.14889526367188 283.47607421875 191.15777587890625 272.3489685058594 187.95042419433594 265.0820617675781 C 186.50587463378906 261.41632080078125 183.8166046142578 262.1771240234375 181.52566528320312 261.7182312011719 C 180.7074432373047 260.7220153808594 179.82373046875 260.5406188964844 178.65480041503906 254.58604431152344 C 180.3848114013672 248.7004852294922 169.28225708007812 243.44906616210938 170.78640747070312 237.80471801757812 C 175.900146484375 213.57086181640625 177.60755920410156 213.11447143554688 185.82652282714844 220.5757293701172 C 193.9510498046875 218.88009643554688 194.30938720703125 215.48463439941406 197.77520751953125 214.15255737304688 C 189.42221069335938 205.6774139404297 189.28700256347656 202.1265869140625 198.2783966064453 198.5456085205078 C 213.92649841308594 198.4640655517578 214.80816650390625 200.72409057617188 215.55886840820312 209.8587646484375" stroke-width="0.0" fill="url(#shape_22_fill)"/>
    <path d="M 111.53805541992188 426.3992004394531 C 112.72262573242188 429.2762756347656 110.9955062866211 431.1853942871094 110.66868591308594 431.64483642578125 C 104.94347381591797 432.8951110839844 102.55086517333984 433.60284423828125 91.8560791015625 432.9735412597656 C 89.75878143310547 435.9653015136719 95.68607330322266 446.42169189453125 91.63615417480469 452.13958740234375 C 78.66380310058594 444.9972229003906 46.938175201416016 447.9271240234375 24.96146011352539 449.647705078125 C 14.004908561706543 446.27593994140625 13.874190330505371 439.78076171875 17.635395050048828 436.3970031738281 C 34.14719772338867 427.7862243652344 50.728668212890625 426.9972229003906 70.38008117675781 427.0445556640625 C 75.16786193847656 425.5380859375 108.9926986694336 419.1265869140625 111.53805541992188 426.3992004394531" stroke-width="0.0" fill="url(#shape_23_fill)"/>
    <path d="M 194.8361358642578 122.42227935791016 C 199.15187072753906 125.1873550415039 209.70034790039062 144.8371124267578 214.39218139648438 144.99232482910156 C 215.52784729003906 148.18048095703125 218.48614501953125 149.74716186523438 220.13162231445312 153.4728546142578 C 227.01927185058594 158.2168426513672 248.64723205566406 179.0132293701172 244.56591796875 199.55250549316406 C 239.16107177734375 199.54666137695312 235.50738525390625 187.1658935546875 232.61514282226562 180.876953125 C 234.37722778320312 185.8678741455078 233.7742919921875 195.85018920898438 231.4464874267578 196.77694702148438 C 225.47091674804688 199.4598846435547 225.0135955810547 201.84445190429688 220.4698486328125 208.57167053222656 C 215.19056701660156 207.6530303955078 213.67356872558594 199.52369689941406 214.17568969726562 196.0014190673828 C 212.67047119140625 189.62034606933594 212.58433532714844 183.0484161376953 206.89126586914062 178.2731170654297 C 203.99301147460938 174.02633666992188 205.0882568359375 173.03424072265625 205.49813842773438 167.7515869140625 C 202.58253479003906 149.00941467285156 200.3133087158203 148.32151794433594 192.7344207763672 144.24859619140625 C 189.19235229492188 142.2880096435547 191.03587341308594 128.2606201171875 194.8361358642578 122.42227935791016" stroke-width="0.0" fill="url(#shape_24_fill)"/>
    <path d="M 595.7515869140625 410.9920349121094 C 598.1937866210938 412.1114501953125 626.1851806640625 409.3431396484375 627.8909912109375 416.1883239746094 C 628.3024291992188 421.03070068359375 626.9011840820312 425.07861328125 628.9368286132812 426.67730712890625 C 630.6616821289062 428.89227294921875 635.0215454101562 428.3734436035156 637.4784545898438 437.7472229003906 C 617.2484741210938 446.76318359375 577.4757690429688 439.8888854980469 574.5423583984375 433.6829528808594 C 568.5111083984375 425.4979553222656 574.284912109375 419.1054992675781 576.2819213867188 414.0630798339844 C 579.815185546875 409.21533203125 587.1362915039062 412.1658935546875 595.7515869140625 410.9920349121094" stroke-width="0.0" fill="url(#shape_25_fill)"/>
    <path d="M 142.9154052734375 66.70263671875 C 144.0816192626953 68.9254379272461 149.16944885253906 68.34173583984375 149.62930297851562 69.13867950439453 C 148.90609741210938 70.9014892578125 150.4596710205078 71.82626342773438 149.76719665527344 73.86480712890625 C 151.0446319580078 74.45281219482422 150.31529235839844 78.30241394042969 150.89219665527344 81.6671371459961 C 152.09063720703125 89.51776123046875 152.57769775390625 97.83395385742188 153.9392547607422 104.1012954711914 C 153.5209197998047 107.62052917480469 155.1020050048828 108.52276611328125 154.95196533203125 111.5281753540039 C 158.20724487304688 123.41087341308594 155.3823699951172 133.51136779785156 150.36083984375 133.5861053466797 C 142.927001953125 126.981201171875 137.05824279785156 120.48017883300781 125.58419036865234 117.33052062988281 C 122.50286865234375 114.30276489257812 124.5848617553711 109.68716430664062 126.87164306640625 107.10498046875 C 128.830810546875 106.85321807861328 128.87693786621094 105.28247833251953 132.64976501464844 104.6865463256836 C 138.98851013183594 96.47201538085938 134.9353790283203 93.09013366699219 133.36192321777344 90.13092041015625 C 134.21658325195312 88.91510009765625 139.28016662597656 87.14937591552734 140.0474853515625 85.31199645996094 C 138.1313934326172 84.74951171875 138.79208374023438 77.64647674560547 139.51654052734375 77.47713470458984 C 143.54977416992188 76.59593200683594 142.65611267089844 70.3138656616211 142.9154052734375 66.70263671875" stroke-width="0.0" fill="url(#shape_26_fill)"/>
    <path d="M 142.99417114257812 67.85803985595703 C 149.20945739746094 67.6854248046875 149.83135986328125 67.85442352294922 148.48233032226562 76.14292907714844 C 151.13104248046875 77.55998229980469 151.40147399902344 80.214111328125 153.58143615722656 84.18926239013672 C 150.71533203125 91.07180786132812 153.94143676757812 93.7475814819336 151.93896484375 104.39849853515625 C 153.50091552734375 105.52725219726562 153.27830505371094 109.29360961914062 155.32098388671875 112.87547302246094 C 152.921875 117.28375244140625 157.91482543945312 122.1857681274414 154.708740234375 125.87257385253906 C 152.6469268798828 132.04441833496094 151.35198974609375 133.1743621826172 147.45309448242188 133.60568237304688 C 141.0666046142578 132.56642150878906 128.7967529296875 120.5827407836914 129.1366424560547 118.22185516357422 C 124.64566802978516 119.01307678222656 122.33972930908203 114.22622680664062 128.2384796142578 110.41950988769531 C 123.57421875 108.64141082763672 124.29936981201172 105.93467712402344 133.06515502929688 106.66857147216797 C 136.40145874023438 105.58151245117188 134.18344116210938 92.92884826660156 133.85792541503906 89.58074188232422 C 139.50909423828125 87.54463958740234 138.63638305664062 84.68729400634766 138.42774963378906 81.6753158569336 C 139.07823181152344 77.50342559814453 140.36447143554688 76.78815460205078 141.843017578125 76.99411010742188 C 145.3526153564453 73.08354187011719 143.0260009765625 69.75386810302734 142.99417114257812 67.85803985595703" stroke-width="0.0" fill="url(#shape_27_fill)"/>
    <path d="M -0.3156302571296692 -0.27041932940483093 C 4.697664260864258 0.3804232180118561 9.643837928771973 -0.5246502161026001 19.237911224365234 -0.74162757396698 C 22.976654052734375 0.03796602413058281 23.07550621032715 4.483065128326416 38.53977584838867 12.045148849487305 C 34.80135726928711 25.336824417114258 28.01065444946289 26.111675262451172 27.1162109375 22.779335021972656 C 40.15389633178711 24.601200103759766 47.234622955322266 25.446046829223633 48.89488220214844 42.93048858642578 C 36.52792739868164 44.981075286865234 31.563066482543945 45.07611083984375 25.13303565979004 42.16327667236328 C 19.46187400817871 37.93239974975586 11.43817138671875 37.60115432739258 10.553860664367676 34.015132904052734 C 9.391212463378906 35.94071578979492 13.418461799621582 39.90064239501953 14.21695613861084 41.474609375 C 15.219990730285645 41.94782257080078 14.658187866210938 44.22265625 18.11955451965332 47.90653610229492 C 20.063928604125977 51.072967529296875 18.75103187561035 52.30946350097656 20.309789657592773 57.08442687988281 C 20.466920852661133 62.94904708862305 14.05100154876709 64.91194915771484 8.81120491027832 61.262813568115234 C 5.496065139770508 60.884944915771484 3.533888101577759 59.14147186279297 0.325001060962677 59.43373107910156 C -0.3176359236240387 39.7786750793457 -0.3248674273490906 19.62841796875 -0.3156302571296692 -0.27041932940483093" stroke-width="0.0" fill="url(#shape_28_fill)"/>
    <path d="M 299.4158020019531 197.34951782226562 C 297.5833740234375 199.21424865722656 299.9716796875 202.16766357421875 301.495849609375 208.0375518798828 C 299.30401611328125 212.04788208007812 321.9954528808594 229.50827026367188 315.6095886230469 255.7122802734375 C 311.8283386230469 253.867431640625 310.5689697265625 254.99063110351562 306.4956970214844 255.95274353027344 C 301.6351318359375 258.0487365722656 295.788330078125 257.88800048828125 281.0534362792969 256.42724609375 C 280.4250183105469 230.4718780517578 285.6267395019531 216.6732940673828 299.4158020019531 197.34951782226562" stroke-width="0.0" fill="url(#shape_29_fill)"/>
    <path d="M -0.062146276235580444 0.05523444339632988 C 4.457897186279297 0.44814085960388184 9.585714340209961 -0.4148348271846771 14.547882080078125 0.13320347666740417 C 15.723847389221191 0.4948606491088867 16.17214012145996 5.343171119689941 16.176849365234375 8.05288028717041 C 18.941286087036133 10.801563262939453 22.06825065612793 18.852680206298828 26.91950798034668 20.808019638061523 C 27.111896514892578 22.487707138061523 24.617050170898438 26.859249114990234 24.467321395874023 31.469226837158203 C 20.485897064208984 32.3244514465332 14.997053146362305 31.42588233947754 7.440765857696533 34.11552047729492 C 9.123255729675293 35.86164093017578 8.809619903564453 38.69197463989258 10.884722709655762 40.474273681640625 C 9.860403060913086 45.14466857910156 7.513653755187988 51.501991271972656 11.481522560119629 53.908504486083984 C 17.712627410888672 51.513648986816406 19.53980827331543 52.03071975708008 18.326610565185547 58.002586364746094 C 11.017072677612305 59.85935974121094 9.673635482788086 63.01496505737305 0.2198021411895752 61.17524719238281 C -0.4160500466823578 39.95817184448242 -0.35439202189445496 19.754032135009766 -0.062146276235580444 0.05523444339632988" stroke-width="0.0" fill="url(#shape_30_fill)"/>
    <path d="M 546.7496337890625 70.69161224365234 C 545.8109741210938 76.40272521972656 577.1363525390625 89.12664031982422 581.5574340820312 91.54954528808594 C 580.7498779296875 92.41575622558594 577.0386352539062 93.15433502197266 576.996337890625 98.21385955810547 C 573.253173828125 100.7875747680664 572.0875854492188 100.06526184082031 569.2838745117188 99.93632507324219 C 567.1121215820312 95.86066436767578 544.1004638671875 95.9010238647461 538.55419921875 88.47201538085938 C 538.5895385742188 85.46320343017578 537.5613403320312 83.28731536865234 535.6250610351562 82.5147705078125 C 534.8007202148438 79.5501937866211 528.8413696289062 79.59867095947266 526.9528198242188 78.34883880615234 C 525.3306274414062 75.78414154052734 527.7819213867188 70.90315246582031 532.9004516601562 69.16288757324219 C 536.4097290039062 67.58319091796875 540.5927734375 69.9582290649414 546.7496337890625 70.69161224365234" stroke-width="0.0" fill="url(#shape_31_fill)"/>
    <path d="M 448.0040283203125 264.1239013671875 C 450.68597412109375 265.255859375 451.3137512207031 266.7104187011719 455.96575927734375 267.6821594238281 C 460.5113830566406 267.6551208496094 465.32232666015625 270.3759765625 469.91607666015625 273.2362976074219 C 470.4352722167969 275.6302490234375 471.8251953125 276.8929748535156 471.6768798828125 280.762939453125 C 450.22894287109375 289.2848205566406 428.2764892578125 285.967529296875 415.7947998046875 284.7101745605469 C 413.3793640136719 273.9147033691406 415.2197265625 272.349609375 415.6894226074219 268.2459411621094 C 418.1906433105469 267.2078552246094 417.7781066894531 264.8067626953125 419.3494567871094 263.0794372558594 C 431.4794616699219 253.08604431152344 443.32122802734375 255.86856079101562 448.0040283203125 264.1239013671875" stroke-width="0.0" fill="url(#shape_32_fill)"/>
    <path d="M 270.8901672363281 192.0843048095703 C 277.8917236328125 191.66470336914062 285.031005859375 243.62989807128906 280.5933837890625 244.66268920898438 C 279.14990234375 247.17015075683594 273.8190002441406 246.92031860351562 269.9422302246094 248.42552185058594 C 266.4481506347656 245.86956787109375 266.79638671875 241.9850616455078 261.2281188964844 240.82371520996094 C 254.68795776367188 211.32591247558594 262.54840087890625 206.66348266601562 270.8901672363281 192.0843048095703" stroke-width="0.0" fill="url(#shape_33_fill)"/>
    <path d="M 257.5443420410156 419.9574890136719 C 259.269287109375 424.2118835449219 266.15936279296875 429.5265197753906 267.22564697265625 439.977783203125 C 262.166748046875 442.5799255371094 261.09710693359375 446.5828857421875 253.53196716308594 447.74163818359375 C 246.38670349121094 445.64739990234375 219.85391235351562 447.7862854003906 212.5946807861328 444.6239318847656 C 213.02471923828125 436.99578857421875 213.95974731445312 436.2222900390625 215.90480041503906 434.44268798828125 C 216.1398162841797 433.3876953125 225.0034637451172 433.36407470703125 226.62464904785156 430.2467041015625 C 228.86756896972656 420.0934143066406 239.969482421875 421.533935546875 257.5443420410156 419.9574890136719" stroke-width="0.0" fill="url(#shape_34_fill)"/>
    <path d="M 106.20260620117188 69.91317749023438 C 109.41444396972656 69.9639892578125 112.01342010498047 78.66716766357422 111.70454406738281 83.24740600585938 C 117.02052307128906 84.91809844970703 117.44659423828125 110.27783203125 117.7069091796875 110.88007354736328 C 116.88152313232422 112.85026550292969 112.00426483154297 114.52916717529297 106.97859191894531 122.20878601074219 C 104.9205322265625 117.1321792602539 96.56859588623047 118.8253402709961 91.6053237915039 112.78571319580078 C 90.06969451904297 85.4808349609375 104.3639907836914 84.33425903320312 106.20260620117188 69.91317749023438" stroke-width="0.0" fill="url(#shape_35_fill)"/>
    <path d="M 451.5798034667969 178.5628204345703 C 453.4462890625 176.3406982421875 456.5199279785156 177.52420043945312 456.0942687988281 180.10581970214844 C 456.73126220703125 180.44976806640625 456.57061767578125 184.82508850097656 457.50787353515625 186.30577087402344 C 455.070556640625 188.10179138183594 459.1264953613281 193.92138671875 460.189453125 205.49871826171875 C 459.4059143066406 208.51385498046875 452.4395446777344 209.25559997558594 445.6260681152344 204.5784454345703 C 441.7937316894531 207.28855895996094 440.70758056640625 209.09254455566406 433.1630859375 210.98097229003906 C 434.0321350097656 209.91213989257812 437.51361083984375 189.43890380859375 439.11907958984375 180.8346405029297 C 440.3833923339844 180.38427734375 444.0766906738281 181.08824157714844 446.4924011230469 180.51963806152344 C 447.728759765625 179.2570037841797 450.0736999511719 179.4890594482422 451.5798034667969 178.5628204345703" stroke-width="0.0" fill="url(#shape_36_fill)"/>
    <path d="M 558.4347534179688 85.37664794921875 C 563.7639770507812 80.67288208007812 578.6321411132812 82.12275695800781 580.2111206054688 85.73106384277344 C 581.56884765625 83.9053726196289 586.4859619140625 85.23773956298828 586.9570922851562 88.6959228515625 C 593.8092041015625 96.61174011230469 585.9654541015625 104.42757415771484 574.390625 100.14356994628906 C 573.7925415039062 99.37122344970703 551.506591796875 95.20686340332031 542.085693359375 85.58944702148438 C 538.6350708007812 85.3049087524414 537.8063354492188 81.38895416259766 536.097900390625 80.60226440429688 C 543.2137451171875 74.85836029052734 547.9658813476562 78.79173278808594 558.4347534179688 85.37664794921875" stroke-width="0.0" fill="url(#shape_37_fill)"/>
    <path d="M 252.59210205078125 208.66213989257812 C 264.6772766113281 210.26730346679688 261.52484130859375 242.60765075683594 260.5635986328125 247.83322143554688 C 258.26531982421875 254.4367218017578 250.56423950195312 254.04383850097656 248.11839294433594 257.0352478027344 C 234.3765411376953 237.51004028320312 240.3816375732422 212.16539001464844 252.59210205078125 208.66213989257812" stroke-width="0.0" fill="url(#shape_38_fill)"/>
    <path d="M 443.3382263183594 263.48699951171875 C 445.95355224609375 263.4901428222656 449.1146240234375 266.6026611328125 447.6849060058594 270.0520935058594 C 444.17523193359375 270.34222412109375 442.6013488769531 277.0270080566406 441.1141357421875 279.6703796386719 C 440.09051513671875 285.4205322265625 423.3365783691406 284.2815856933594 417.95111083984375 275.71307373046875 C 414.6610412597656 277.0075988769531 413.2192077636719 273.6158752441406 415.7748718261719 271.70428466796875 C 415.10028076171875 269.9375915527344 419.1898498535156 262.22686767578125 425.9861145019531 258.2101135253906 C 427.7150573730469 255.8938446044922 437.36114501953125 258.03826904296875 443.3382263183594 263.48699951171875" stroke-width="0.0" fill="url(#shape_39_fill)"/>
    <path d="M 407.7425231933594 409.76922607421875 C 408.68841552734375 409.8800964355469 416.7822265625 419.0249328613281 413.5928955078125 424.1721496582031 C 400.9202880859375 436.15130615234375 384.65826416015625 420.29840087890625 376.8991394042969 420.638916015625 C 370.530517578125 417.8570251464844 371.65509033203125 416.67254638671875 372.71356201171875 410.6874694824219 C 374.9994812011719 401.1284484863281 395.61114501953125 403.5150451660156 407.7425231933594 409.76922607421875" stroke-width="0.0" fill="url(#shape_40_fill)"/>
    <path d="M 66.45306396484375 427.59271240234375 C 67.45278930664062 429.1576232910156 65.0385513305664 435.166748046875 58.990360260009766 436.03765869140625 C 58.3079719543457 437.0753173828125 40.396270751953125 436.76495361328125 31.560623168945312 442.66650390625 C 28.63229751586914 442.473876953125 25.960723876953125 444.40814208984375 17.166919708251953 443.38427734375 C 16.457448959350586 440.6474609375 17.728042602539062 439.2043762207031 17.141860961914062 437.9429626464844 C 33.98772048950195 427.59417724609375 55.43119430541992 427.64593505859375 66.45306396484375 427.59271240234375" stroke-width="0.0" fill="url(#shape_41_fill)"/>
    <path d="M 278.98944091796875 380.9938049316406 C 284.7678527832031 380.9356689453125 297.9367980957031 381.0673828125 302.0332946777344 384.7095642089844 C 297.3788146972656 394.9576416015625 299.3221130371094 400.8131103515625 294.35595703125 404.7292785644531 C 291.7289733886719 399.3322448730469 265.0301208496094 404.48577880859375 258.1085510253906 405.4466857910156 C 250.31785583496094 403.99505615234375 248.5288848876953 393.0616455078125 251.31980895996094 382.46697998046875 C 260.9178466796875 381.20538330078125 267.573486328125 382.2842712402344 278.98944091796875 380.9938049316406" stroke-width="0.0" fill="url(#shape_42_fill)"/>
    <path d="M 222.97361755371094 216.9232177734375 C 223.61459350585938 215.45179748535156 233.77903747558594 215.33702087402344 239.7209014892578 216.91119384765625 C 241.23208618164062 222.1240692138672 247.43426513671875 240.59950256347656 247.00990295410156 263.4758605957031 C 245.12744140625 269.1741638183594 237.6100616455078 269.3857421875 213.40769958496094 269.14825439453125 C 209.3067626953125 265.209228515625 208.84043884277344 260.9709167480469 217.35018920898438 248.00628662109375 C 219.45806884765625 246.47457885742188 217.9619598388672 226.41993713378906 222.97361755371094 216.9232177734375" stroke-width="0.0" fill="url(#shape_43_fill)"/>
    <path d="M 483.9215087890625 395.549072265625 C 486.8189697265625 399.7995300292969 485.8390808105469 400.9878845214844 483.53680419921875 401.2080078125 C 473.9815368652344 406.97186279296875 451.1643371582031 406.7073974609375 450.2439270019531 407.668701171875 C 448.0462341308594 404.4163513183594 451.5870666503906 396.17291259765625 453.60498046875 396.4730224609375 C 462.9356994628906 393.08587646484375 473.075927734375 392.7644348144531 483.9215087890625 395.549072265625" stroke-width="0.0" fill="url(#shape_44_fill)"/>
    <path d="M 45.814762115478516 407.24273681640625 C 45.275699615478516 408.17706298828125 35.77013397216797 411.4805603027344 34.43608856201172 413.7239074707031 C 32.7744140625 414.65252685546875 32.453731536865234 416.120361328125 29.160985946655273 416.1307067871094 C 27.83751678466797 417.58380126953125 25.12853240966797 417.9988708496094 21.571786880493164 420.5669250488281 C 17.821121215820312 420.1363220214844 0.2698661983013153 417.2036437988281 -0.8204871416091919 420.5357666015625 C 1.7027428150177002 419.6694030761719 -0.5661402940750122 411.07501220703125 0.7585412859916687 410.2798156738281 C 9.018205642700195 408.68048095703125 45.461002349853516 407.33270263671875 45.814762115478516 407.24273681640625" stroke-width="0.0" fill="url(#shape_45_fill)"/>
    <path d="M 451.87347412109375 175.23728942871094 C 455.2581787109375 174.85218811035156 464.2741394042969 198.95985412597656 465.2176513671875 201.55845642089844 C 462.5863037109375 209.63015747070312 451.69451904296875 209.5831298828125 449.4734802246094 206.74386596679688 C 448.3263244628906 203.250244140625 449.04486083984375 198.3132781982422 448.8477783203125 195.30079650878906 C 447.94744873046875 194.54991149902344 447.6042175292969 192.16358947753906 448.5082702636719 188.0151824951172 C 450.99920654296875 186.66317749023438 450.7975158691406 183.03785705566406 451.87347412109375 175.23728942871094" stroke-width="0.0" fill="url(#shape_46_fill)"/>
    <path d="M 373.0751037597656 185.96072387695312 C 378.4908142089844 194.09713745117188 380.03875732421875 203.1606903076172 371.50634765625 206.23013305664062 C 365.8646545410156 206.82618713378906 364.772216796875 204.85499572753906 362.01116943359375 204.4281005859375 C 350.07940673828125 208.19570922851562 347.0392150878906 202.95260620117188 354.48602294921875 188.52462768554688 C 356.648681640625 184.95606994628906 358.3675842285156 184.40943908691406 368.1017150878906 185.46774291992188 C 368.9454650878906 183.62583923339844 372.7940673828125 183.41897583007812 373.0751037597656 185.96072387695312" stroke-width="0.0" fill="url(#shape_47_fill)"/>
    <path d="M 471.0549621582031 263.6186218261719 C 475.8374328613281 266.9222717285156 480.7987060546875 267.32989501953125 479.7779541015625 284.4399719238281 C 465.39202880859375 287.6151428222656 453.8774719238281 285.9474792480469 443.78515625 284.9200744628906 C 439.2962646484375 282.2332763671875 439.9981994628906 276.9577331542969 441.2054138183594 276.4759216308594 C 447.3000183105469 266.5574645996094 455.3029479980469 264.2519836425781 471.0549621582031 263.6186218261719" stroke-width="0.0" fill="url(#shape_48_fill)"/>
    <path d="M 177.06411743164062 117.92534637451172 C 178.5282440185547 115.88666534423828 181.9176483154297 116.43064880371094 182.82156372070312 117.34819793701172 C 184.68658447265625 120.23641204833984 183.85238647460938 122.35074615478516 184.798095703125 123.63420104980469 C 179.90750122070312 127.85216522216797 185.77374267578125 136.583984375 182.52490234375 140.10096740722656 C 181.63352966308594 146.7596893310547 172.7913055419922 145.74734497070312 171.64260864257812 146.5015106201172 C 171.33340454101562 126.45277404785156 170.01197814941406 124.89818572998047 177.06411743164062 117.92534637451172" stroke-width="0.0" fill="url(#shape_49_fill)"/>
    <path d="M 333.95703125 428.07177734375 C 337.34149169921875 428.4412841796875 341.0607604980469 429.16552734375 342.92755126953125 432.01129150390625 C 346.3611145019531 435.5981750488281 345.162353515625 437.2290344238281 342.4732971191406 437.60638427734375 C 342.86541748046875 445.8880920410156 325.02362060546875 447.841796875 323.042236328125 441.8178405761719 C 319.2727966308594 436.5278015136719 317.0908203125 432.0704650878906 312.5494384765625 429.3937072753906 C 322.16168212890625 427.5095520019531 328.8922424316406 428.26300048828125 333.95703125 428.07177734375" stroke-width="0.0" fill="url(#shape_50_fill)"/>
    <path d="M 300.4706726074219 389.497314453125 C 299.2674560546875 393.5908203125 295.15362548828125 398.7486572265625 289.6983642578125 399.11505126953125 C 280.5390319824219 397.6627502441406 279.9258728027344 398.4326477050781 271.3759460449219 402.6288757324219 C 271.0635986328125 401.61767578125 269.5802917480469 398.9828796386719 271.0411682128906 397.4822692871094 C 269.9314270019531 395.50201416015625 272.9717712402344 388.0480041503906 279.9635009765625 388.42559814453125 C 283.074462890625 386.6786193847656 287.63897705078125 390.1494140625 300.4706726074219 389.497314453125" stroke-width="0.0" fill="url(#shape_51_fill)"/>
    <path d="M 268.87255859375 184.22755432128906 C 275.8537292480469 194.98666381835938 278.0253601074219 207.6481475830078 280.0213928222656 217.29522705078125 C 271.4667663574219 210.41616821289062 268.9559326171875 207.9808349609375 260.8868103027344 215.46835327148438 C 257.6488952636719 206.71897888183594 264.11468505859375 197.65225219726562 266.19110107421875 195.2313232421875 C 269.58648681640625 194.2292022705078 268.8996887207031 191.6870880126953 268.87255859375 184.22755432128906" stroke-width="0.0" fill="url(#shape_52_fill)"/>
    <path d="M 218.2459259033203 409.55523681640625 C 215.92138671875 410.98248291015625 215.57806396484375 413.23907470703125 214.24929809570312 413.8684997558594 C 214.61508178710938 421.0965881347656 190.50323486328125 424.2897644042969 187.48170471191406 415.5964050292969 C 186.25799560546875 405.92388916015625 205.85569763183594 401.00604248046875 218.2459259033203 409.55523681640625" stroke-width="0.0" fill="url(#shape_53_fill)"/>
    <path d="M 205.7967987060547 424.6341857910156 C 205.53564453125 425.3060607910156 206.13233947753906 428.2773132324219 204.58465576171875 429.5371398925781 C 196.03036499023438 431.3788757324219 178.82833862304688 431.480712890625 177.93309020996094 432.71624755859375 C 176.71107482910156 430.95367431640625 178.18673706054688 425.9548645019531 176.75840759277344 423.9029235839844 C 185.7232208251953 418.6488952636719 194.79278564453125 422.41900634765625 205.7967987060547 424.6341857910156" stroke-width="0.0" fill="url(#shape_54_fill)"/>
    <path d="M 269.75799560546875 245.98870849609375 C 275.424560546875 244.8079833984375 276.66632080078125 246.282958984375 280.7424011230469 245.11322021484375 C 281.0530700683594 251.01539611816406 280.4200134277344 252.36412048339844 284.56787109375 260.5487060546875 C 263.4591369628906 257.9132995605469 262.9201965332031 257.2019958496094 254.17539978027344 259.7103271484375 C 254.8818359375 248.1747283935547 255.86109924316406 247.22885131835938 258.5776062011719 245.12655639648438 C 260.2377014160156 239.47662353515625 266.2528076171875 239.9093780517578 269.75799560546875 245.98870849609375" stroke-width="0.0" fill="url(#shape_55_fill)"/>
    <path d="M 275.27142333984375 357.0181579589844 C 277.76959228515625 363.9534912109375 282.6445617675781 363.4353332519531 284.51507568359375 368.0870056152344 C 285.3615417480469 369.2372131347656 285.89630126953125 371.85308837890625 285.8858642578125 380.701904296875 C 276.7542724609375 379.5484313964844 263.78411865234375 382.5921630859375 247.66119384765625 382.64691162109375 C 243.43653869628906 380.6162109375 244.70115661621094 362.1087951660156 245.9413604736328 359.229248046875 C 253.46499633789062 357.77679443359375 259.99444580078125 356.67779541015625 275.27142333984375 357.0181579589844" stroke-width="0.0" fill="url(#shape_56_fill)"/>
    <path d="M 409.3426208496094 270.6195373535156 C 415.3046875 269.37493896484375 417.9340515136719 273.66326904296875 419.2106628417969 280.8600158691406 C 412.8671875 288.6238098144531 402.4369201660156 284.91204833984375 384.546875 281.73614501953125 C 382.6204833984375 267.230712890625 391.3114013671875 263.8592834472656 409.3426208496094 270.6195373535156" stroke-width="0.0" fill="url(#shape_57_fill)"/>
    <path d="M 632.0426025390625 351.81610107421875 C 632.9798583984375 354.69476318359375 659.5073852539062 353.4744873046875 668.6614990234375 353.733642578125 C 668.4528198242188 358.303955078125 662.3736572265625 360.85382080078125 660.083984375 356.5616760253906 C 652.2177734375 356.10150146484375 634.1531372070312 360.51519775390625 631.4741821289062 360.91845703125 C 627.767578125 357.0966796875 629.3088989257812 353.5698547363281 632.0426025390625 351.81610107421875" stroke-width="0.0" fill="url(#shape_58_fill)"/>
    <path d="M 341.2734680175781 385.1275939941406 C 342.78497314453125 390.3086853027344 358.1216735839844 391.8222961425781 359.1841735839844 394.7630920410156 C 356.5601806640625 398.5013732910156 339.6343688964844 401.8795166015625 338.4522399902344 399.5211181640625 C 335.1393737792969 399.6083984375 333.08270263671875 398.774658203125 331.8674621582031 396.5357666015625 C 331.98541259765625 394.93994140625 330.75714111328125 393.4737243652344 332.3612060546875 390.6155700683594 C 333.1788635253906 385.10247802734375 336.9932556152344 384.2428283691406 341.2734680175781 385.1275939941406" stroke-width="0.0" fill="url(#shape_59_fill)"/>
    <path d="M 460.6007385253906 363.7957763671875 C 462.6273193359375 365.04193115234375 471.95654296875 369.7823486328125 473.1000061035156 373.9710388183594 C 471.790283203125 376.1568298339844 470.3314514160156 376.8512878417969 463.0704040527344 375.919677734375 C 458.43218994140625 376.98486328125 457.57647705078125 376.9400939941406 452.71893310546875 370.95501708984375 C 453.0593566894531 369.2850646972656 459.1889953613281 365.1174011230469 460.6007385253906 363.7957763671875" stroke-width="0.0" fill="url(#shape_60_fill)"/>
    <path d="M 435.1488037109375 432.71875 C 440.2008056640625 434.2758483886719 442.4822692871094 436.380859375 442.0036315917969 439.0008239746094 C 440.4548645019531 442.0786437988281 429.9101257324219 440.8018493652344 425.7983703613281 442.4983825683594 C 422.50579833984375 438.3800354003906 424.0577087402344 434.4955139160156 415.822265625 426.3919677734375 C 427.9433898925781 429.9919738769531 431.8356018066406 434.26031494140625 435.1488037109375 432.71875" stroke-width="0.0" fill="url(#shape_61_fill)"/>
    <path d="M 185.42742919921875 411.4521789550781 C 186.2631378173828 413.93170166015625 185.0089111328125 414.7928771972656 186.92372131347656 417.77886962890625 C 184.8606719970703 420.1605224609375 183.4054718017578 419.53033447265625 182.4755096435547 419.70233154296875 C 180.8102264404297 421.6666564941406 174.4138946533203 420.3582458496094 171.23109436035156 420.24395751953125 C 169.53244018554688 417.87744140625 169.75677490234375 415.6356201171875 173.513916015625 413.4525451660156 C 176.44757080078125 412.4511413574219 181.0070343017578 410.7144775390625 185.42742919921875 411.4521789550781" stroke-width="0.0" fill="url(#shape_62_fill)"/>
    <path d="M 332.4788513183594 418.44921875 C 334.90948486328125 426.1718444824219 329.9030456542969 428.0146484375 327.2820739746094 426.0748291015625 C 324.6007995605469 427.7806396484375 323.00286865234375 426.7384033203125 320.56512451171875 427.63726806640625 C 318.7289123535156 426.0413513183594 319.6643371582031 419.99017333984375 317.8343505859375 418.42047119140625 C 320.3555603027344 420.1094665527344 326.357421875 418.69549560546875 332.4788513183594 418.44921875" stroke-width="0.0" fill="url(#shape_63_fill)"/>
    <path d="M 55.36640167236328 273.196533203125 C 56.54391860961914 269.5982360839844 66.26521301269531 269.87542724609375 66.16766357421875 278.4924011230469 C 58.69954299926758 279.1951904296875 53.55149841308594 273.1303405761719 47.97892379760742 276.1001892089844 C 49.49396896362305 272.8978576660156 52.293609619140625 272.37677001953125 55.36640167236328 273.196533203125" stroke-width="0.0" fill="url(#shape_64_fill)"/>
    <path d="M 304.3965759277344 438.77117919921875 C 304.4784851074219 437.0991516113281 305.89984130859375 436.0895690917969 313.1338806152344 437.0742492675781 C 314.7934265136719 438.91510009765625 313.1849060058594 441.62445068359375 311.4480895996094 442.7848205566406 C 307.83807373046875 445.4258728027344 306.7759094238281 444.2248229980469 305.1220703125 444.9990539550781 C 302.840576171875 441.627197265625 302.5748596191406 439.665771484375 304.3965759277344 438.77117919921875" stroke-width="0.0" fill="url(#shape_65_fill)"/>
    <path d="M -0.383725643157959 -0.35082197189331055 C 224.1128692626953 -0.025833668187260628 443.7709655761719 0.4568915367126465 673.1111450195312 0.7884274125099182 C 673.8060913085938 152.06649780273438 674.5225219726562 295.5587158203125 673.4991455078125 445.48309326171875 C 450.4944152832031 446.2880859375 230.71168518066406 446.2164611816406 0.593410074710846 445.3114929199219 C 0.27047789096832275 296.9107971191406 -0.08138810843229294 148.78819274902344 -0.383725643157959 -0.35082197189331055" stroke-width="0.0" fill="url(#shape_66_fill)"/>
    <path d="M -0.9300183653831482 -0.13298682868480682 C 222.53436279296875 -0.12886177003383636 443.52569580078125 0.3507014214992523 673.1199951171875 0.29523709416389465 C 673.916015625 152.177490234375 674.572265625 294.90057373046875 673.2462158203125 445.36627197265625 C 450.61376953125 446.37030029296875 230.90301513671875 446.26910400390625 0.7262211441993713 445.21136474609375 C 0.21087881922721863 296.8845520019531 -0.2118668109178543 148.62481689453125 -0.9300183653831482 -0.13298682868480682" stroke-width="0.0" fill="url(#shape_67_fill)"/>
    <path d="M -0.5977079272270203 -0.16265644133090973 C 222.67686462402344 -0.12504948675632477 442.7657470703125 0.43773365020751953 673.1038818359375 -0.11754975467920303 C 673.8973999023438 152.27365112304688 674.5779418945312 294.9593811035156 673.2581176757812 445.36724853515625 C 450.65380859375 446.3725891113281 230.9708709716797 446.2667236328125 1.2835495471954346 445.1856384277344 C 0.5091049075126648 295.5661315917969 0.06955459713935852 148.4926300048828 -0.5977079272270203 -0.16265644133090973" stroke-width="0.0" fill="url(#shape_68_fill)"/>
  </g>
</svg>
