<?xml version="1.0" ?>
<svg xmlns="http://www.w3.org/2000/svg" version="1.1" width="674" height="446">
  <defs>
    <radialGradient id="shape_0_fill" cx="0.5310342488727513" cy="0.73875365663537" r="0.28282946578119206">
      <stop offset="0.7106733" stop-color="rgb(158, 166, 0)" stop-opacity="0.835317850112915"/>
      <stop offset="1.0" stop-color="rgb(48, 40, 0)" stop-opacity="0.978708803653717"/>
    </radialGradient>
    <radialGradient id="shape_1_fill" cx="0.5322972872136962" cy="0.7434296201697379" r="0.20669664331996476">
      <stop offset="0.33701935" stop-color="rgb(64, 55, 76)" stop-opacity="0.724833607673645"/>
      <stop offset="0.97369564" stop-color="rgb(35, 5, 0)" stop-opacity="0.5988892316818237"/>
    </radialGradient>
    <radialGradient id="shape_2_fill" cx="0.09792273546892387" cy="0.7376672719091578" r="0.22062588021026522">
      <stop offset="0.008072063" stop-color="rgb(52, 114, 190)" stop-opacity="0.841707706451416"/>
      <stop offset="1.0" stop-color="rgb(1, 85, 255)" stop-opacity="0.8905011415481567"/>
    </radialGradient>
    <radialGradient id="shape_3_fill" cx="0.27864778784686806" cy="0.21489033036167846" r="0.13255555693402843">
      <stop offset="0.4073088" stop-color="rgb(127, 170, 0)" stop-opacity="0.7678869366645813"/>
      <stop offset="1.0" stop-color="rgb(35, 29, 0)" stop-opacity="0.9248211979866028"/>
    </radialGradient>
    <radialGradient id="shape_4_fill" cx="0.1543026706231454" cy="0.9977578475336323" r="0.10288926755639141">
      <stop offset="0.0" stop-color="rgb(81, 79, 86)" stop-opacity="1.0"/>
      <stop offset="1.0" stop-color="rgb(48, 35, 62)" stop-opacity="0.8459582924842834"/>
    </radialGradient>
    <radialGradient id="shape_5_fill" cx="0.14807964290992442" cy="0.23997249517740155" r="0.11810664960821587">
      <stop offset="0.0" stop-color="rgb(255, 255, 255)" stop-opacity="0.6465655565261841"/>
      <stop offset="0.5626593" stop-color="rgb(255, 255, 255)" stop-opacity="0.5128015875816345"/>
    </radialGradient>
    <radialGradient id="shape_6_fill" cx="0.18397626112759644" cy="0.9977578475336323" r="0.0754974885934892">
      <stop offset="0.0" stop-color="rgb(93, 90, 94)" stop-opacity="1.0"/>
      <stop offset="1.0" stop-color="rgb(150, 127, 134)" stop-opacity="0.8450894951820374"/>
    </radialGradient>
    <radialGradient id="shape_7_fill" cx="0.2893175074183976" cy="0.05829596412556054" r="0.08666390552011372">
      <stop offset="0.0" stop-color="rgb(55, 66, 29)" stop-opacity="1.0"/>
      <stop offset="1.0" stop-color="rgb(122, 130, 58)" stop-opacity="0.5723328590393066"/>
    </radialGradient>
    <radialGradient id="shape_8_fill" cx="0.3382789091115889" cy="0.9439461883408071" r="0.06756690277190167">
      <stop offset="0.0" stop-color="rgb(91, 124, 45)" stop-opacity="1.0"/>
      <stop offset="1.0" stop-color="rgb(78, 131, 0)" stop-opacity="0.542569637298584"/>
    </radialGradient>
    <radialGradient id="shape_9_fill" cx="0.30712166172106825" cy="0.9977578475336323" r="0.0730758406641929">
      <stop offset="0.0" stop-color="rgb(38, 48, 20)" stop-opacity="1.0"/>
      <stop offset="1.0" stop-color="rgb(34, 27, 53)" stop-opacity="1.0"/>
    </radialGradient>
    <radialGradient id="shape_10_fill" cx="0.3056379821958457" cy="0.9977578475336323" r="0.06792919147615971">
      <stop offset="0.0" stop-color="rgb(39, 49, 21)" stop-opacity="1.0"/>
      <stop offset="1.0" stop-color="rgb(32, 4, 0)" stop-opacity="0.6438161134719849"/>
    </radialGradient>
    <radialGradient id="shape_11_fill" cx="0.21810089020771514" cy="0.968609865470852" r="0.06792919147615971">
      <stop offset="0.0" stop-color="rgb(138, 135, 129)" stop-opacity="1.0"/>
      <stop offset="1.0" stop-color="rgb(113, 60, 37)" stop-opacity="0.39322155714035034"/>
    </radialGradient>
    <radialGradient id="shape_12_fill" cx="0.29080118694362017" cy="0.9977578475336323" r="0.07480746985189285">
      <stop offset="0.0" stop-color="rgb(22, 25, 13)" stop-opacity="1.0"/>
      <stop offset="1.0" stop-color="rgb(38, 30, 16)" stop-opacity="1.0"/>
    </radialGradient>
    <radialGradient id="shape_13_fill" cx="0.327893175074184" cy="0.8923766816143498" r="0.06900465877544279">
      <stop offset="0.0" stop-color="rgb(89, 117, 50)" stop-opacity="1.0"/>
      <stop offset="1.0" stop-color="rgb(92, 118, 7)" stop-opacity="0.6366915106773376"/>
    </radialGradient>
    <radialGradient id="shape_14_fill" cx="0.142433234421365" cy="0.9977578475336323" r="0.06617211022079875">
      <stop offset="0.0" stop-color="rgb(155, 150, 153)" stop-opacity="1.0"/>
      <stop offset="1.0" stop-color="rgb(255, 133, 132)" stop-opacity="0.2229689657688141"/>
    </radialGradient>
    <radialGradient id="shape_15_fill" cx="0.31008902077151335" cy="0.9977578475336323" r="0.06683642786405207">
      <stop offset="0.0" stop-color="rgb(43, 55, 23)" stop-opacity="1.0"/>
      <stop offset="1.0" stop-color="rgb(62, 65, 22)" stop-opacity="0.8600335121154785"/>
    </radialGradient>
    <radialGradient id="shape_16_fill" cx="0.27299703264094954" cy="0.9977578475336323" r="0.08110449363640579">
      <stop offset="0.0" stop-color="rgb(31, 35, 19)" stop-opacity="1.0"/>
      <stop offset="1.0" stop-color="rgb(30, 22, 0)" stop-opacity="0.9388971328735352"/>
    </radialGradient>
    <radialGradient id="shape_17_fill" cx="0.2893175074183976" cy="0.9977578475336323" r="0.07513486030193747">
      <stop offset="0.0" stop-color="rgb(22, 23, 13)" stop-opacity="1.0"/>
      <stop offset="1.0" stop-color="rgb(26, 18, 0)" stop-opacity="0.8521599173545837"/>
    </radialGradient>
    <radialGradient id="shape_18_fill" cx="0.3293768545994065" cy="0.7556053811659192" r="0.06617211022079875">
      <stop offset="0.0" stop-color="rgb(83, 108, 65)" stop-opacity="1.0"/>
      <stop offset="1.0" stop-color="rgb(105, 120, 57)" stop-opacity="0.9620589017868042"/>
    </radialGradient>
    <radialGradient id="shape_19_fill" cx="0.3516320474777448" cy="0.9977578475336323" r="0.06617211022079875">
      <stop offset="0.0" stop-color="rgb(95, 135, 39)" stop-opacity="1.0"/>
      <stop offset="1.0" stop-color="rgb(129, 184, 0)" stop-opacity="0.6351943612098694"/>
    </radialGradient>
    <radialGradient id="shape_20_fill" cx="0.0830860534124629" cy="0.9977578475336323" r="0.06792919147615971">
      <stop offset="0.0" stop-color="rgb(49, 52, 66)" stop-opacity="1.0"/>
      <stop offset="1.0" stop-color="rgb(46, 30, 67)" stop-opacity="0.4515495300292969"/>
    </radialGradient>
    <radialGradient id="shape_21_fill" cx="0.29821958456973297" cy="0.9977578475336323" r="0.06792919147615971">
      <stop offset="0.0" stop-color="rgb(33, 40, 17)" stop-opacity="1.0"/>
      <stop offset="1.0" stop-color="rgb(50, 63, 0)" stop-opacity="0.7106853127479553"/>
    </radialGradient>
    <radialGradient id="shape_22_fill" cx="0.3563326600751113" cy="0.44372438849889645" r="0.06594546966099951">
      <stop offset="0.52384716" stop-color="rgb(109, 133, 40)" stop-opacity="1.0"/>
      <stop offset="0.38891584" stop-color="rgb(146, 171, 41)" stop-opacity="0.9124113917350769"/>
    </radialGradient>
    <radialGradient id="shape_23_fill" cx="0.6454005934718101" cy="0.1412556053811659" r="0.06617211022079875">
      <stop offset="0.0" stop-color="rgb(46, 38, 13)" stop-opacity="1.0"/>
      <stop offset="1.0" stop-color="rgb(55, 27, 0)" stop-opacity="0.8850142359733582"/>
    </radialGradient>
    <radialGradient id="shape_24_fill" cx="0.2492550586734398" cy="0.4843076355254169" r="0.06616971047059012">
      <stop offset="0.0" stop-color="rgb(205, 213, 206)" stop-opacity="1.0"/>
      <stop offset="0.92454517" stop-color="rgb(255, 255, 255)" stop-opacity="0.3270566165447235"/>
    </radialGradient>
    <radialGradient id="shape_25_fill" cx="0.6320474777448071" cy="0.9977578475336323" r="0.06617211022079875">
      <stop offset="0.0" stop-color="rgb(35, 28, 8)" stop-opacity="1.0"/>
      <stop offset="1.0" stop-color="rgb(40, 15, 0)" stop-opacity="0.8944424986839294"/>
    </radialGradient>
    <radialGradient id="shape_26_fill" cx="0.15414520399506793" cy="0.3207086811151205" r="0.06604698362265567">
      <stop offset="0.11989566" stop-color="rgb(198, 211, 155)" stop-opacity="1.0"/>
      <stop offset="0.58338004" stop-color="rgb(165, 144, 110)" stop-opacity="0.3853180706501007"/>
    </radialGradient>
    <radialGradient id="shape_27_fill" cx="0.15410647972401242" cy="0.3208032787648017" r="0.06604505929465818">
      <stop offset="0.0" stop-color="rgb(192, 205, 0)" stop-opacity="1.0"/>
      <stop offset="0.49375948" stop-color="rgb(33, 24, 14)" stop-opacity="0.42338308691978455"/>
    </radialGradient>
    <radialGradient id="shape_28_fill" cx="0.033520834382280755" cy="0.014645059012511386" r="0.0734048045353649">
      <stop offset="0.09310346" stop-color="rgb(9, 19, 111)" stop-opacity="0.9367527961730957"/>
      <stop offset="0.8228512" stop-color="rgb(8, 17, 146)" stop-opacity="0.7120951414108276"/>
    </radialGradient>
    <radialGradient id="shape_29_fill" cx="0.33976258863681147" cy="0.6659192825112108" r="0.06617211022079875">
      <stop offset="0.0" stop-color="rgb(90, 117, 55)" stop-opacity="1.0"/>
      <stop offset="1.0" stop-color="rgb(107, 129, 28)" stop-opacity="0.8668252825737"/>
    </radialGradient>
    <radialGradient id="shape_30_fill" cx="0.03869242059724621" cy="0.015941155865587996" r="0.06965518917457286">
      <stop offset="0.17447115" stop-color="rgb(50, 69, 76)" stop-opacity="1.0"/>
      <stop offset="0.93349713" stop-color="rgb(66, 64, 0)" stop-opacity="0.48861080408096313"/>
    </radialGradient>
    <radialGradient id="shape_31_fill" cx="0.12314540059347182" cy="0.9977578475336323" r="0.06617211022079875">
      <stop offset="0.0" stop-color="rgb(95, 103, 98)" stop-opacity="1.0"/>
      <stop offset="1.0" stop-color="rgb(136, 118, 109)" stop-opacity="0.7327185273170471"/>
    </radialGradient>
    <radialGradient id="shape_32_fill" cx="0.4035608308605341" cy="0.984304932735426" r="0.06617211022079875">
      <stop offset="0.0" stop-color="rgb(126, 155, 63)" stop-opacity="1.0"/>
      <stop offset="1.0" stop-color="rgb(78, 41, 2)" stop-opacity="0.44767895340919495"/>
    </radialGradient>
    <radialGradient id="shape_33_fill" cx="0.3249258160237389" cy="0.6053811659192825" r="0.06617211022079875">
      <stop offset="1.5749225e-05" stop-color="rgb(93, 124, 71)" stop-opacity="0.999808132648468"/>
      <stop offset="1.0" stop-color="rgb(124, 138, 58)" stop-opacity="1.0"/>
    </radialGradient>
    <radialGradient id="shape_34_fill" cx="0.6468842729970327" cy="0.531390134529148" r="0.06617211022079875">
      <stop offset="0.0" stop-color="rgb(54, 47, 24)" stop-opacity="1.0"/>
      <stop offset="1.0" stop-color="rgb(42, 3, 36)" stop-opacity="0.36136800050735474"/>
    </radialGradient>
    <radialGradient id="shape_35_fill" cx="0.15153532848867535" cy="0.23705060813459045" r="0.06588649466766448">
      <stop offset="0.12282211" stop-color="rgb(212, 255, 98)" stop-opacity="0.12400941550731659"/>
      <stop offset="0.51661307" stop-color="rgb(104, 69, 67)" stop-opacity="0.8838084936141968"/>
    </radialGradient>
    <radialGradient id="shape_36_fill" cx="0.2878338278931751" cy="0.9977578475336323" r="0.06617211022079875">
      <stop offset="0.0" stop-color="rgb(80, 96, 53)" stop-opacity="1.0"/>
      <stop offset="1.0" stop-color="rgb(20, 13, 0)" stop-opacity="0.7769176959991455"/>
    </radialGradient>
    <radialGradient id="shape_37_fill" cx="0.129080118694362" cy="0.9977578475336323" r="0.06617211022079875">
      <stop offset="0.0" stop-color="rgb(87, 97, 81)" stop-opacity="1.0"/>
      <stop offset="1.0" stop-color="rgb(61, 61, 57)" stop-opacity="0.5938667058944702"/>
    </radialGradient>
    <radialGradient id="shape_38_fill" cx="0.33892324204260943" cy="0.5607740119968294" r="0.0666785763703751">
      <stop offset="0.7501433" stop-color="rgb(87, 107, 30)" stop-opacity="0.930127739906311"/>
      <stop offset="0.6022492" stop-color="rgb(165, 244, 79)" stop-opacity="0.8749681115150452"/>
    </radialGradient>
    <radialGradient id="shape_39_fill" cx="0.40059347181008903" cy="0.9641255605381166" r="0.06617211022079875">
      <stop offset="0.0" stop-color="rgb(138, 168, 60)" stop-opacity="1.0"/>
      <stop offset="1.0" stop-color="rgb(222, 255, 84)" stop-opacity="0.8084675669670105"/>
    </radialGradient>
    <radialGradient id="shape_40_fill" cx="0.6099653385513261" cy="0.8741323017753293" r="0.07262207280280682">
      <stop offset="0.36825034" stop-color="rgb(162, 144, 173)" stop-opacity="0.25399693846702576"/>
      <stop offset="0.531885" stop-color="rgb(1, 4, 56)" stop-opacity="0.7315483689308167"/>
    </radialGradient>
    <radialGradient id="shape_41_fill" cx="0.6454005934718101" cy="0.08744394618834081" r="0.06617211022079875">
      <stop offset="0.0" stop-color="rgb(58, 48, 21)" stop-opacity="1.0"/>
      <stop offset="1.0" stop-color="rgb(93, 59, 25)" stop-opacity="0.9990752935409546"/>
    </radialGradient>
    <radialGradient id="shape_42_fill" cx="0.5845697329376854" cy="0.6188340807174888" r="0.06617211022079875">
      <stop offset="0.0" stop-color="rgb(62, 59, 56)" stop-opacity="1.0"/>
      <stop offset="1.0" stop-color="rgb(44, 34, 81)" stop-opacity="0.6320406198501587"/>
    </radialGradient>
    <radialGradient id="shape_43_fill" cx="0.35426052104825434" cy="0.5017618085236827" r="0.0703034839573529">
      <stop offset="0.24520099" stop-color="rgb(121, 150, 55)" stop-opacity="0.9224749803543091"/>
      <stop offset="0.62206" stop-color="rgb(202, 251, 21)" stop-opacity="0.7231876850128174"/>
    </radialGradient>
    <radialGradient id="shape_44_fill" cx="0.5934718100890207" cy="0.9977578475336323" r="0.06617211022079875">
      <stop offset="0.0" stop-color="rgb(89, 61, 18)" stop-opacity="1.0"/>
      <stop offset="1.0" stop-color="rgb(165, 76, 7)" stop-opacity="0.6790664792060852"/>
    </radialGradient>
    <radialGradient id="shape_45_fill" cx="0.612759643916914" cy="0.04035874439461883" r="0.06617211022079875">
      <stop offset="0.0" stop-color="rgb(157, 136, 123)" stop-opacity="1.0"/>
      <stop offset="1.0" stop-color="rgb(255, 215, 204)" stop-opacity="1.0"/>
    </radialGradient>
    <radialGradient id="shape_46_fill" cx="0.28635014836795253" cy="0.9977578475336323" r="0.06617211022079875">
      <stop offset="0.0" stop-color="rgb(82, 99, 55)" stop-opacity="1.0"/>
      <stop offset="1.0" stop-color="rgb(90, 92, 31)" stop-opacity="0.5631929039955139"/>
    </radialGradient>
    <radialGradient id="shape_47_fill" cx="0.28635014836795253" cy="0.8183856502242153" r="0.06617211022079875">
      <stop offset="0.0" stop-color="rgb(166, 189, 197)" stop-opacity="1.0"/>
      <stop offset="1.0" stop-color="rgb(243, 255, 255)" stop-opacity="0.4441627264022827"/>
    </radialGradient>
    <radialGradient id="shape_48_fill" cx="0.40801186943620177" cy="0.9977578475336323" r="0.06617211022079875">
      <stop offset="0.0" stop-color="rgb(107, 135, 68)" stop-opacity="1.0"/>
      <stop offset="1.0" stop-color="rgb(126, 133, 56)" stop-opacity="1.0"/>
    </radialGradient>
    <radialGradient id="shape_49_fill" cx="0.19287833827893175" cy="0.3991031390134529" r="0.06617211022079875">
      <stop offset="0.0" stop-color="rgb(92, 100, 54)" stop-opacity="1.0"/>
      <stop offset="1.0" stop-color="rgb(51, 19, 0)" stop-opacity="0.5045238733291626"/>
    </radialGradient>
    <radialGradient id="shape_50_fill" cx="0.6439169139465876" cy="0.7376681614349776" r="0.06617211022079875">
      <stop offset="0.0" stop-color="rgb(65, 56, 25)" stop-opacity="1.0"/>
      <stop offset="1.0" stop-color="rgb(149, 166, 81)" stop-opacity="0.3407008945941925"/>
    </radialGradient>
    <radialGradient id="shape_51_fill" cx="0.5845697329376854" cy="0.6322869955156951" r="0.06617211022079875">
      <stop offset="0.0" stop-color="rgb(75, 68, 60)" stop-opacity="1.0"/>
      <stop offset="1.0" stop-color="rgb(198, 143, 113)" stop-opacity="0.40865421295166016"/>
    </radialGradient>
    <radialGradient id="shape_52_fill" cx="0.2997032640949555" cy="0.6031390134529148" r="0.06617211022079875">
      <stop offset="0.0" stop-color="rgb(107, 158, 118)" stop-opacity="1.0"/>
      <stop offset="1.0" stop-color="rgb(172, 255, 209)" stop-opacity="0.5752332806587219"/>
    </radialGradient>
    <radialGradient id="shape_53_fill" cx="0.6097922848664689" cy="0.45067264573991034" r="0.06617211022079875">
      <stop offset="0.0" stop-color="rgb(38, 39, 27)" stop-opacity="1.0"/>
      <stop offset="1.0" stop-color="rgb(16, 5, 66)" stop-opacity="0.3251608610153198"/>
    </radialGradient>
    <radialGradient id="shape_54_fill" cx="0.6335311572700296" cy="0.426009002822397" r="0.06617211022079875">
      <stop offset="0.0" stop-color="rgb(67, 49, 20)" stop-opacity="1.0"/>
      <stop offset="1.0" stop-color="rgb(183, 93, 39)" stop-opacity="0.4178975522518158"/>
    </radialGradient>
    <radialGradient id="shape_55_fill" cx="0.3707168533823257" cy="0.5988430827187851" r="0.066001377049115">
      <stop offset="0.43605936" stop-color="rgb(246, 255, 55)" stop-opacity="0.8297948837280273"/>
      <stop offset="0.16089156" stop-color="rgb(235, 255, 58)" stop-opacity="0.8808218836784363"/>
    </radialGradient>
    <radialGradient id="shape_56_fill" cx="0.5489614243323442" cy="0.600896860986547" r="0.06617211022079875">
      <stop offset="0.0" stop-color="rgb(50, 62, 80)" stop-opacity="1.0"/>
      <stop offset="1.0" stop-color="rgb(36, 92, 255)" stop-opacity="0.4458377957344055"/>
    </radialGradient>
    <radialGradient id="shape_57_fill" cx="0.4094955489614243" cy="0.9035874439461884" r="0.06617211022079875">
      <stop offset="0.0" stop-color="rgb(111, 144, 47)" stop-opacity="1.0"/>
      <stop offset="1.0" stop-color="rgb(214, 255, 65)" stop-opacity="0.7676171660423279"/>
    </radialGradient>
    <radialGradient id="shape_58_fill" cx="0.5281899109792285" cy="0.9977578475336323" r="0.06617211022079875">
      <stop offset="0.0" stop-color="rgb(50, 43, 14)" stop-opacity="1.0"/>
      <stop offset="1.0" stop-color="rgb(87, 58, 18)" stop-opacity="1.0"/>
    </radialGradient>
    <radialGradient id="shape_59_fill" cx="0.5845697329376854" cy="0.7690582959641256" r="0.06617211022079875">
      <stop offset="0.0" stop-color="rgb(61, 63, 58)" stop-opacity="1.0"/>
      <stop offset="1.0" stop-color="rgb(79, 69, 90)" stop-opacity="0.7090668678283691"/>
    </radialGradient>
    <radialGradient id="shape_60_fill" cx="0.5489614243323442" cy="0.9977578475336323" r="0.06617211022079875">
      <stop offset="0.0" stop-color="rgb(140, 131, 64)" stop-opacity="1.0"/>
      <stop offset="1.0" stop-color="rgb(231, 196, 93)" stop-opacity="0.878139317035675"/>
    </radialGradient>
    <radialGradient id="shape_61_fill" cx="0.6469716601272719" cy="0.96866973740103" r="0.06610439651443979">
      <stop offset="0.463088" stop-color="rgb(240, 185, 60)" stop-opacity="0.915793776512146"/>
      <stop offset="0.21278743" stop-color="rgb(140, 64, 84)" stop-opacity="0.427729070186615"/>
    </radialGradient>
    <radialGradient id="shape_62_fill" cx="0.615727002967359" cy="0.3991031390134529" r="0.06617211022079875">
      <stop offset="0.0" stop-color="rgb(55, 47, 13)" stop-opacity="1.0"/>
      <stop offset="1.0" stop-color="rgb(84, 52, 6)" stop-opacity="0.8408995866775513"/>
    </radialGradient>
    <radialGradient id="shape_63_fill" cx="0.6261127596439169" cy="0.7286995515695067" r="0.06617211022079875">
      <stop offset="0.0" stop-color="rgb(79, 66, 32)" stop-opacity="1.0"/>
      <stop offset="1.0" stop-color="rgb(200, 187, 91)" stop-opacity="0.4985024631023407"/>
    </radialGradient>
    <radialGradient id="shape_64_fill" cx="0.40801186943620177" cy="0.12556053811659193" r="0.06617211022079875">
      <stop offset="0.0" stop-color="rgb(76, 66, 59)" stop-opacity="1.0"/>
      <stop offset="1.0" stop-color="rgb(164, 126, 130)" stop-opacity="1.0"/>
    </radialGradient>
    <radialGradient id="shape_65_fill" cx="0.6528189910979229" cy="0.6883408071748879" r="0.06617211022079875">
      <stop offset="0.0" stop-color="rgb(121, 97, 39)" stop-opacity="1.0"/>
      <stop offset="1.0" stop-color="rgb(255, 217, 93)" stop-opacity="1.0"/>
    </radialGradient>
    <radialGradient id="shape_66_fill" cx="0.6520287035480805" cy="0.4572691639442615" r="0.07077612721247914">
      <stop offset="0.25536355" stop-color="rgb(184, 212, 115)" stop-opacity="0.30134105682373047"/>
      <stop offset="0.7609414" stop-color="rgb(0, 16, 0)" stop-opacity="0.054979633539915085"/>
    </radialGradient>
    <radialGradient id="shape_67_fill" cx="0.5980038062755008" cy="0.9948083851904078" r="0.07105944489159287">
      <stop offset="0.8355246" stop-color="rgb(49, 26, 0)" stop-opacity="0.607568621635437"/>
      <stop offset="1.0" stop-color="rgb(0, 28, 0)" stop-opacity="0.1539827138185501"/>
    </radialGradient>
    <radialGradient id="shape_68_fill" cx="0.4928262410602513" cy="0.9980500225529008" r="0.06867650991377562">
      <stop offset="0.39606738" stop-color="rgb(40, 11, 0)" stop-opacity="0.4166925847530365"/>
      <stop offset="1.0" stop-color="rgb(26, 64, 52)" stop-opacity="0.17373812198638916"/>
    </radialGradient>
  </defs>
  <g>
    <path d="M 0.02831517904996872 271.4573059082031 C 15.987740516662598 254.31529235839844 47.11262512207031 256.8540344238281 46.99229431152344 270.8415832519531 C 48.368370056152344 272.59442138671875 49.3056640625 276.217041015625 56.816131591796875 274.76739501953125 C 57.49927520751953 273.8835754394531 61.819244384765625 273.19757080078125 62.22309875488281 268.8646240234375 C 68.34839630126953 267.70330810546875 100.74253845214844 268.8714294433594 116.78719329833984 269.1705627441406 C 119.34801483154297 271.72149658203125 125.16360473632812 278.2264404296875 126.59476470947266 282.3278503417969 C 134.54627990722656 282.8014221191406 148.11904907226562 280.5872497558594 177.439208984375 290.91845703125 C 185.33834838867188 283.17095947265625 186.08538818359375 281.2024230957031 206.67864990234375 287.310546875 C 200.6360321044922 286.8071594238281 198.4085693359375 280.8822937011719 211.27041625976562 267.70147705078125 C 250.25445556640625 264.6225280761719 294.55242919921875 262.3011779785156 310.6672668457031 272.6796569824219 C 348.2397155761719 274.1914978027344 423.1111755371094 274.5920715332031 481.7440185546875 262.8601989746094 C 512.653076171875 257.51123046875 549.0206909179688 258.74151611328125 548.5154418945312 273.7653503417969 C 546.9944458007812 273.7330322265625 547.0697631835938 262.3213806152344 578.2771606445312 262.5183410644531 C 597.9415893554688 266.7843933105469 612.3375244140625 278.9368591308594 612.307373046875 279.7063293457031 C 611.6017456054688 265.7877197265625 623.7667846679688 265.1658935546875 673.4266967773438 265.70135498046875 C 676.7796020507812 272.2881774902344 679.37158203125 278.8263854980469 678.4677124023438 284.9035339355469 C 676.6203002929688 339.53118896484375 674.7125244140625 391.4859313964844 675.1177368164062 446.4668273925781 C 451.9151306152344 446.6697692871094 228.9889373779297 446.8115539550781 -0.4355688989162445 446.4240417480469 C -0.5174044370651245 389.140869140625 -0.848338782787323 332.2491760253906 0.02831517904996872 271.4573059082031" stroke-width="0.0" fill="url(#shape_0_fill)"/>
    <path d="M -0.270035982131958 270.94293212890625 C 35.93415069580078 275.3900451660156 36.5576057434082 274.58306884765625 43.97929000854492 273.0859680175781 C 44.26185607910156 265.7683410644531 58.11019515991211 265.538330078125 81.56006622314453 266.1402587890625 C 113.75945281982422 278.67987060546875 114.09143829345703 279.3109130859375 128.30410766601562 279.1522521972656 C 127.7625732421875 269.9085388183594 134.40341186523438 269.1297302246094 144.67527770996094 269.6140441894531 C 185.24769592285156 268.8074035644531 186.13465881347656 268.92474365234375 206.07945251464844 271.6064453125 C 203.57005310058594 292.172119140625 204.33935546875 292.3145751953125 208.6980743408203 298.86016845703125 C 213.66339111328125 298.2420349121094 268.1904602050781 298.6184387207031 293.3943176269531 301.12152099609375 C 304.48358154296875 307.0052185058594 440.34539794921875 303.8008117675781 460.289306640625 304.6158752441406 C 473.3218688964844 292.9267272949219 493.42376708984375 293.4937744140625 504.61767578125 286.991455078125 C 516.7113647460938 289.45025634765625 521.3591918945312 286.8884582519531 523.2916870117188 286.62615966796875 C 527.3678588867188 285.7666320800781 531.6690673828125 286.03240966796875 533.8421630859375 287.269287109375 C 538.6974487304688 287.62994384765625 540.1703491210938 288.9582824707031 537.496337890625 311.5502624511719 C 579.7288818359375 292.4122314453125 581.6483764648438 292.92022705078125 601.6277465820312 299.5089111328125 C 620.6957397460938 289.39935302734375 629.8785400390625 288.2060241699219 633.6177978515625 288.4794006347656 C 636.9888305664062 274.6844482421875 654.3915405273438 275.09002685546875 673.6364135742188 294.33740234375 C 674.4868774414062 339.71612548828125 674.5202026367188 392.0495910644531 674.1581420898438 446.2807922363281 C 451.4774169921875 446.3905334472656 229.19664001464844 446.25439453125 -0.30765825510025024 446.2476501464844 C -0.21058408915996552 389.403564453125 -0.3107692003250122 333.0142822265625 -0.270035982131958 270.94293212890625" stroke-width="0.0" fill="url(#shape_1_fill)"/>
    <path d="M -0.019932541996240616 -0.25989267230033875 C 219.69313049316406 0.1040392518043518 439.478759765625 -0.45242562890052795 674.77783203125 -0.011934392154216766 C 665.8626708984375 10.678046226501465 645.0906982421875 34.852413177490234 637.229736328125 49.627685546875 C 634.4834594726562 53.000152587890625 612.0684814453125 91.6265869140625 584.0983276367188 83.8857650756836 C 576.8394775390625 81.23118591308594 564.79248046875 72.16681671142578 532.28466796875 74.2851333618164 C 531.9703369140625 79.74235534667969 528.2523803710938 80.48324584960938 522.0550537109375 72.03413391113281 C 522.70654296875 68.9324722290039 499.3377685546875 63.90718460083008 498.8854675292969 62.579864501953125 C 493.379638671875 62.259490966796875 486.118896484375 61.10856246948242 484.343994140625 68.80609130859375 C 475.25421142578125 72.84173583984375 476.3226318359375 76.12725067138672 476.73162841796875 80.92208099365234 C 483.5403137207031 100.52594757080078 481.0717468261719 120.19237518310547 481.5926818847656 123.2171630859375 C 460.2911682128906 116.84871673583984 459.34356689453125 114.86885833740234 450.9435119628906 108.5452651977539 C 435.37261962890625 107.43216705322266 411.77691650390625 101.64359283447266 409.32818603515625 105.51780700683594 C 412.8866271972656 122.23979187011719 419.84027099609375 129.4242401123047 413.1023864746094 139.347900390625 C 411.3218078613281 152.7362823486328 394.4121398925781 152.16738891601562 394.64019775390625 135.48321533203125 C 383.03045654296875 139.1632843017578 382.0994567871094 158.07569885253906 370.9093017578125 157.79763793945312 C 366.12994384765625 156.20587158203125 363.2137145996094 159.24649047851562 353.67626953125 158.35496520996094 C 348.154296875 163.6399688720703 345.5507507324219 165.32139587402344 347.6022644042969 171.40367126464844 C 343.5664367675781 177.1215362548828 342.043212890625 176.12637329101562 351.32122802734375 159.42349243164062 C 292.3610534667969 154.89390563964844 291.8309020996094 161.2753448486328 290.4588928222656 170.7650909423828 C 306.3253173828125 185.9074249267578 304.1699523925781 189.0901336669922 307.5230712890625 201.37698364257812 C 307.58502197265625 200.58230590820312 306.40838623046875 198.12686157226562 304.89794921875 190.31495666503906 C 304.0210266113281 185.6520538330078 302.7001953125 184.40357971191406 291.2560729980469 171.0043487548828 C 289.84710693359375 194.53787231445312 289.0371398925781 195.95962524414062 289.3619079589844 196.30418395996094 C 289.3979187011719 189.93499755859375 291.66571044921875 181.68309020996094 290.581787109375 165.10044860839844 C 269.98602294921875 167.7842254638672 265.282958984375 174.86485290527344 262.2210998535156 173.00204467773438 C 256.2928771972656 184.3460693359375 255.92454528808594 189.370849609375 254.8043670654297 197.14324951171875 C 260.6520690917969 199.29185485839844 260.441162109375 199.85939025878906 258.0973815917969 199.52464294433594 C 257.10076904296875 198.4536895751953 253.97349548339844 196.46353149414062 255.3798370361328 193.83766174316406 C 255.86102294921875 181.03759765625 262.6269226074219 179.46470642089844 264.11553955078125 161.5076446533203 C 262.3125 157.34861755371094 215.6266326904297 143.84771728515625 212.2333984375 142.7861328125 C 187.23556518554688 134.6691131591797 195.49139404296875 106.44088745117188 191.19195556640625 86.22734069824219 C 190.815185546875 84.67236328125 163.0432586669922 74.54855346679688 128.85899353027344 57.90331268310547 C 99.41880798339844 38.743167877197266 76.4076919555664 59.00553512573242 47.9127197265625 56.95048522949219 C 30.003047943115234 70.53094482421875 1.7035818099975586 69.96200561523438 -0.8501393795013428 69.41400146484375 C 0.34183040261268616 43.958133697509766 -0.3314551115036011 22.56187629699707 -0.019932541996240616 -0.25989267230033875" stroke-width="0.0" fill="url(#shape_2_fill)"/>
    <path d="M 87.25640106201172 58.02540588378906 C 88.81207275390625 68.82096099853516 91.78351593017578 68.96028900146484 93.77506256103516 71.93283081054688 C 90.108154296875 79.95587158203125 92.93661499023438 81.91168975830078 89.02019500732422 94.3305435180664 C 95.80074310302734 85.83506774902344 98.12236785888672 86.52542114257812 102.8667984008789 87.7690658569336 C 105.11752319335938 75.12588500976562 105.60853576660156 73.23744201660156 108.16234588623047 73.67361450195312 C 112.72705841064453 86.37983703613281 109.73821258544922 92.3502197265625 117.5730209350586 98.65626525878906 C 115.83550262451172 100.0361099243164 116.99234771728516 109.58157348632812 115.4056167602539 115.08431243896484 C 120.4365463256836 115.30880737304688 128.00079345703125 116.32876586914062 129.77967834472656 112.12772369384766 C 131.19256591796875 111.16259765625 137.0318145751953 109.86808013916016 136.83517456054688 105.08828735351562 C 136.7034454345703 103.72610473632812 135.6051788330078 101.93746948242188 138.16876220703125 100.20323944091797 C 136.57257080078125 93.28688049316406 137.6216278076172 92.94485473632812 137.8154754638672 90.08364868164062 C 137.34580993652344 85.5652084350586 138.52566528320312 85.1235580444336 140.17762756347656 89.38882446289062 C 140.83724975585938 83.3172378540039 146.70660400390625 79.99591064453125 148.6182861328125 78.74320983886719 C 148.16152954101562 93.3011703491211 149.58541870117188 94.55159759521484 152.5355987548828 99.72525024414062 C 154.0048370361328 102.4967041015625 149.83441162109375 106.82260131835938 148.8911590576172 106.78740692138672 C 152.29002380371094 109.39881134033203 149.9571990966797 113.90898895263672 148.15138244628906 113.16908264160156 C 154.0569610595703 112.97034454345703 158.21896362304688 122.6012954711914 157.0082550048828 123.40786743164062 C 160.64187622070312 124.76582336425781 164.73248291015625 123.4180679321289 169.73313903808594 122.86323547363281 C 174.40025329589844 119.73626708984375 175.79080200195312 121.50725555419922 177.5993194580078 122.46180725097656 C 179.306396484375 122.73997497558594 180.1202850341797 124.94938659667969 183.6798553466797 127.13029479980469 C 183.91868591308594 130.0297393798828 182.6873016357422 132.71717834472656 185.94261169433594 134.361572265625 C 188.71250915527344 135.48265075683594 190.12864685058594 137.2379608154297 187.50799560546875 143.83973693847656 C 197.5047149658203 149.0695037841797 208.80726623535156 153.27468872070312 201.64747619628906 172.56980895996094 C 205.61647033691406 177.24110412597656 206.5273895263672 179.34715270996094 205.07864379882812 181.5771026611328 C 213.55926513671875 181.01431274414062 215.12332153320312 192.73594665527344 212.589599609375 200.19422912597656 C 204.63467407226562 205.7164306640625 202.8712158203125 206.08497619628906 203.44908142089844 210.0792694091797 C 200.38937377929688 210.38885498046875 200.4064483642578 211.84461975097656 198.7487030029297 212.92527770996094 C 196.5289306640625 215.5491943359375 192.74774169921875 215.24575805664062 192.1925048828125 219.7237548828125 C 184.30093383789062 220.5350799560547 183.67947387695312 224.79110717773438 178.1847686767578 230.16603088378906 C 176.4228973388672 233.3771514892578 181.84027099609375 237.55348205566406 181.55609130859375 238.04563903808594 C 181.52685546875 251.99169921875 185.71258544921875 260.72784423828125 179.9730682373047 264.13232421875 C 168.4612274169922 270.383056640625 148.05616760253906 267.5687561035156 135.96908569335938 269.4623107910156 C 131.5605926513672 268.9040222167969 128.89022827148438 272.2649841308594 122.90729522705078 275.44073486328125 C 109.15680694580078 276.5474548339844 73.35307312011719 275.85443115234375 72.98915100097656 270.134765625 C 47.77456283569336 266.8050537109375 56.61213684082031 268.594482421875 58.4591178894043 273.2426452636719 C 48.79563903808594 276.7593994140625 1.0647027492523193 272.7159118652344 0.7538186311721802 269.8390197753906 C -6.677292346954346 226.3229217529297 -4.756006240844727 168.2528839111328 1.954946756362915 122.34625244140625 C 10.366100311279297 117.69708251953125 21.361909866333008 113.97354888916016 26.260986328125 121.80060577392578 C 27.722883224487305 130.05455017089844 35.938907623291016 129.100830078125 42.07218551635742 131.93153381347656 C 46.111297607421875 130.3588409423828 47.2885856628418 131.41050720214844 49.72955322265625 142.1789093017578 C 50.798702239990234 149.56637573242188 60.946319580078125 148.39398193359375 62.65861511230469 146.33560180664062 C 62.131568908691406 137.00894165039062 63.200984954833984 134.1602020263672 62.06953430175781 128.30955505371094 C 68.13011169433594 126.59870910644531 67.70559692382812 124.38795471191406 66.31800842285156 112.6365966796875 C 68.95919036865234 111.14028930664062 67.939697265625 103.41777801513672 75.4127197265625 100.9164047241211 C 74.9300308227539 100.49337768554688 77.68284606933594 89.6615982055664 77.36602020263672 85.9878921508789 C 77.28068542480469 82.85408782958984 77.48792266845703 75.2910385131836 85.24655151367188 75.32527923583984 C 83.1729965209961 70.28052520751953 82.63307189941406 67.55506896972656 87.25640106201172 58.02540588378906" stroke-width="0.0" fill="url(#shape_3_fill)"/>
    <path d="M 673.9380493164062 -0.5127389430999756 C 676.1249389648438 47.81981658935547 675.0172119140625 95.90812683105469 682.0859985351562 135.96839904785156 C 679.2227783203125 119.06634521484375 674.208251953125 119.5701675415039 662.0968017578125 120.00495147705078 C 660.0880126953125 119.57461547851562 654.53857421875 109.63792419433594 650.3848266601562 110.97179412841797 C 649.0206909179688 112.55819702148438 645.0429077148438 150.53700256347656 642.9281616210938 155.650390625 C 629.8362426757812 154.9279327392578 627.2158813476562 142.6767120361328 626.983642578125 138.48289489746094 C 623.0068359375 137.45420837402344 619.214599609375 145.4464874267578 615.3870239257812 144.58726501464844 C 611.6814575195312 142.30870056152344 610.1658325195312 143.3107147216797 607.8055419921875 141.00198364257812 C 608.955322265625 136.74330139160156 614.7005615234375 130.67880249023438 601.5728759765625 110.87715148925781 C 598.6641845703125 135.22059631347656 597.6821899414062 139.46963500976562 593.0637817382812 142.579345703125 C 599.1339721679688 145.76499938964844 598.37451171875 151.37078857421875 597.4533081054688 152.7034454345703 C 587.3764038085938 157.6114501953125 588.5137329101562 164.72433471679688 578.2510986328125 172.6894989013672 C 572.3269653320312 170.19775390625 569.5502319335938 158.05918884277344 568.982666015625 157.59652709960938 C 565.55126953125 157.73719787597656 563.0093994140625 154.8761749267578 562.0360717773438 147.99925231933594 C 560.0188598632812 151.08798217773438 556.7145385742188 151.1849365234375 555.5548095703125 155.36233520507812 C 552.3687744140625 155.8193359375 550.8486328125 158.03402709960938 549.166748046875 158.17893981933594 C 547.7426147460938 154.8737335205078 544.7763061523438 154.5928497314453 535.7405395507812 152.51409912109375 C 531.9459228515625 154.969970703125 529.8216552734375 159.28460693359375 523.1513061523438 156.99993896484375 C 519.2484130859375 160.52749633789062 520.33203125 162.1513214111328 522.8212890625 168.95286560058594 C 517.6307373046875 168.4864501953125 517.351318359375 171.0955047607422 516.2422485351562 171.61329650878906 C 511.2713623046875 173.32232666015625 509.8157043457031 175.26531982421875 505.6470642089844 174.399169921875 C 502.7322998046875 171.4178924560547 503.0838623046875 169.502685546875 502.9871520996094 159.41078186035156 C 488.19573974609375 142.71261596679688 503.01190185546875 118.26345825195312 515.1173706054688 124.6378173828125 C 524.8983154296875 126.05078887939453 543.0640258789062 108.32705688476562 548.795654296875 112.85979461669922 C 557.1271362304688 110.74417877197266 557.0601196289062 109.41046142578125 558.6461181640625 108.96887969970703 C 559.5494384765625 107.30994415283203 564.7871704101562 103.42401123046875 570.0101928710938 105.01758575439453 C 574.69580078125 102.45610809326172 573.62939453125 97.79893493652344 579.1077270507812 93.84417724609375 C 588.8981323242188 87.86830139160156 590.7669677734375 78.1922836303711 612.3648071289062 78.57428741455078 C 616.915771484375 73.61410522460938 644.2301635742188 51.29911804199219 645.9732666015625 35.31828689575195 C 644.8533325195312 32.38465881347656 647.95751953125 30.371435165405273 647.4195556640625 29.445486068725586 C 646.8990478515625 28.287883758544922 664.1640014648438 -4.30618143081665 673.9380493164062 -0.5127389430999756" stroke-width="0.0" fill="url(#shape_4_fill)"/>
    <path d="M 151.468017578125 68.65735626220703 C 152.3046112060547 69.08827209472656 185.98231506347656 85.1290283203125 192.87728881835938 91.25128936767578 C 179.13763427734375 117.88201141357422 217.87307739257812 149.8883514404297 221.2627410888672 154.5514678955078 C 240.8206787109375 169.35142517089844 242.451416015625 182.02035522460938 240.4446258544922 193.83837890625 C 237.96463012695312 193.2075653076172 236.06484985351562 186.8739776611328 236.77261352539062 184.06552124023438 C 235.6898193359375 183.51626586914062 234.1536102294922 184.31578063964844 231.04458618164062 182.66273498535156 C 231.94876098632812 184.75390625 232.27413940429688 192.68685913085938 228.65895080566406 195.66806030273438 C 227.6470184326172 196.6387481689453 227.7061004638672 205.14694213867188 221.07093811035156 207.64227294921875 C 215.07583618164062 206.57373046875 214.26385498046875 197.8969268798828 214.54229736328125 195.07005310058594 C 212.9522705078125 185.45399475097656 211.89102172851562 184.96356201171875 206.56765747070312 177.42762756347656 C 205.71495056152344 172.6417694091797 206.377197265625 168.5212860107422 204.23309326171875 159.53472900390625 C 205.58990478515625 153.88356018066406 194.92041015625 144.57986450195312 193.62425231933594 141.04576110839844 C 189.26930236816406 139.8166046142578 189.1568145751953 135.89736938476562 186.77133178710938 135.9182586669922 C 177.5194549560547 134.09339904785156 178.36593627929688 127.70130157470703 183.56466674804688 117.19942474365234 C 179.3906707763672 116.39759826660156 177.4013214111328 117.66546630859375 172.954345703125 117.76488494873047 C 179.04156494140625 128.1734619140625 177.44422912597656 131.10302734375 152.31150817871094 130.34136962890625 C 148.6893310546875 129.5485076904297 152.49215698242188 102.76935577392578 154.3218994140625 93.20800018310547 C 152.9739532470703 91.29224395751953 152.61093139648438 87.1951675415039 150.39593505859375 76.22894287109375 C 147.92327880859375 75.88710021972656 147.90211486816406 69.17252349853516 151.468017578125 68.65735626220703" stroke-width="0.0" fill="url(#shape_5_fill)"/>
    <path d="M 614.737060546875 79.00672149658203 C 618.8025512695312 83.86521911621094 620.403564453125 87.30253601074219 632.9483642578125 85.98719787597656 C 635.9707641601562 86.23253631591797 636.9445190429688 88.7652359008789 641.1522216796875 89.24177551269531 C 642.193603515625 86.64537048339844 665.098876953125 92.50545501708984 675.0404663085938 98.17323303222656 C 675.4066162109375 110.61923217773438 674.7958984375 125.90557098388672 674.7211303710938 151.7504119873047 C 665.66943359375 142.79615783691406 662.7332763671875 136.72402954101562 660.3155517578125 132.03468322753906 C 660.4469604492188 123.8633804321289 661.0953979492188 118.31341552734375 653.7574462890625 112.2597427368164 C 642.0642700195312 113.81035614013672 643.6627197265625 142.2243194580078 643.0708618164062 142.84339904785156 C 644.44287109375 144.39547729492188 642.3181762695312 148.15728759765625 644.54345703125 149.85531616210938 C 640.16943359375 151.0467529296875 637.948486328125 152.77049255371094 634.3270874023438 153.53208923339844 C 631.8389282226562 146.13804626464844 629.1657104492188 141.39820861816406 630.0122680664062 140.56333923339844 C 628.594482421875 137.03802490234375 622.36865234375 136.4458465576172 621.2808837890625 139.25331115722656 C 618.7456665039062 140.71694946289062 619.2947998046875 142.5275115966797 618.4147338867188 149.7646942138672 C 613.3804931640625 144.7755584716797 613.0443725585938 143.2371368408203 609.3609008789062 143.75265502929688 C 608.446533203125 140.406982421875 609.5042114257812 139.24041748046875 608.6887817382812 137.3948516845703 C 606.1950073242188 132.9222869873047 604.4479370117188 127.43315887451172 600.94384765625 127.8851547241211 C 606.3262329101562 133.8214874267578 595.7628173828125 148.51795959472656 592.5853881835938 152.06005859375 C 590.5911254882812 163.75918579101562 588.7877807617188 163.86053466796875 586.0151977539062 169.0400390625 C 584.5284423828125 167.578857421875 584.1807250976562 167.44032287597656 589.235595703125 153.09230041503906 C 593.6126708984375 141.1514892578125 590.653564453125 139.36956787109375 574.6885986328125 128.59962463378906 C 574.0662231445312 157.76451110839844 557.7119140625 157.68016052246094 555.9678955078125 151.01885986328125 C 555.7802124023438 152.85386657714844 553.0615844726562 154.6939697265625 553.0195922851562 157.88987731933594 C 551.4921875 161.30653381347656 548.1295776367188 161.17520141601562 547.3580322265625 159.31561279296875 C 544.3872680664062 156.42599487304688 542.8046875 153.69320678710938 538.7783813476562 155.7653350830078 C 536.8797607421875 158.64932250976562 531.0606689453125 157.93096923828125 529.0592041015625 158.16224670410156 C 526.7545166015625 159.60079956054688 526.937255859375 163.61378479003906 525.56640625 166.8139190673828 C 524.7288818359375 169.59140014648438 523.6414794921875 171.61376953125 519.0506591796875 173.043701171875 C 515.9481201171875 172.09622192382812 503.6125793457031 171.56126403808594 480.670654296875 161.97055053710938 C 477.5908203125 136.36627197265625 500.4256286621094 120.4002685546875 514.4480590820312 118.35562133789062 C 527.987548828125 127.71263885498047 541.7974243164062 108.3392562866211 547.7679443359375 111.55487823486328 C 556.7039184570312 111.65277862548828 563.1011962890625 112.17864990234375 564.5140380859375 107.15180969238281 C 564.6271362304688 104.41506958007812 566.4778442382812 103.36753845214844 569.8909301757812 104.79878234863281 C 572.356201171875 101.03902435302734 579.0742797851562 100.01514434814453 587.0973510742188 98.36112213134766 C 601.05908203125 93.64627838134766 602.8572998046875 79.86844635009766 614.737060546875 79.00672149658203" stroke-width="0.0" fill="url(#shape_6_fill)"/>
    <path d="M 0.9132713079452515 90.61713409423828 C 43.77717971801758 106.4230728149414 43.517127990722656 117.2662353515625 50.442623138427734 138.7661590576172 C 82.3683853149414 152.7405242919922 55.857791900634766 213.5558624267578 35.884056091308594 246.29600524902344 C 50.518646240234375 259.2615661621094 49.42487716674805 263.7870788574219 48.316070556640625 265.6467590332031 C 51.65135192871094 254.08921813964844 36.77743148803711 246.9427490234375 21.875627517700195 239.13516235351562 C 6.979636192321777 193.479248046875 -12.614812850952148 179.48684692382812 0.9132713079452515 90.61713409423828" stroke-width="0.0" fill="url(#shape_7_fill)"/>
    <path d="M 384.56414794921875 197.16165161132812 C 424.8843078613281 188.6046600341797 426.86505126953125 188.89920043945312 429.8116760253906 204.27297973632812 C 477.5250244140625 187.98788452148438 498.9629211425781 202.12210083007812 491.1586608886719 229.34844970703125 C 490.982421875 250.5037384033203 486.3306884765625 251.527099609375 484.9378967285156 252.52137756347656 C 486.5457458496094 259.16741943359375 482.4641418457031 268.7530517578125 476.3175964355469 268.5599365234375 C 469.0450439453125 272.93231201171875 453.2210388183594 266.7112731933594 451.6360168457031 269.7451171875 C 447.20977783203125 266.31646728515625 448.4616394042969 261.25677490234375 449.2658996582031 260.22869873046875 C 439.31719970703125 264.96612548828125 436.5397644042969 261.6024475097656 437.6443786621094 256.6266174316406 C 427.04083251953125 256.9571533203125 425.7119140625 259.9858093261719 420.85003662109375 262.0059814453125 C 418.48382568359375 264.1708679199219 417.7798767089844 267.7740173339844 414.97332763671875 273.9740295410156 C 414.10791015625 271.3285827636719 392.1833801269531 269.7329406738281 392.5113220214844 264.2760314941406 C 391.810791015625 265.1998596191406 388.79119873046875 263.5093994140625 385.2041015625 264.42236328125 C 382.0867614746094 262.03271484375 380.79925537109375 263.2597961425781 376.3857116699219 261.2628479003906 C 375.1727294921875 256.4215393066406 375.7496337890625 252.90487670898438 370.1755676269531 251.8564453125 C 360.9659423828125 242.6067657470703 373.9041442871094 194.32427978515625 378.48699951171875 177.0453643798828 C 385.0648498535156 171.86813354492188 394.3223571777344 176.9486846923828 384.56414794921875 197.16165161132812" stroke-width="0.0" fill="url(#shape_8_fill)"/>
    <path d="M 566.529541015625 157.10520935058594 C 567.8767700195312 159.0073699951172 568.1204223632812 166.62057495117188 569.3214111328125 168.01809692382812 C 573.4943237304688 169.4958038330078 573.6199951171875 171.06536865234375 577.5772094726562 174.36936950683594 C 581.9307250976562 172.94601440429688 583.9710693359375 174.56983947753906 583.7080688476562 179.472412109375 C 575.397216796875 180.4751739501953 572.302001953125 225.61105346679688 577.5768432617188 226.9555206298828 C 577.8950805664062 230.0525360107422 581.796630859375 236.65142822265625 577.2418212890625 242.8275604248047 C 569.0330200195312 238.71270751953125 566.9906616210938 237.18849182128906 558.5372314453125 247.43197631835938 C 553.0228271484375 249.17816162109375 499.85906982421875 255.2898406982422 485.0364990234375 250.95046997070312 C 486.8804931640625 250.45252990722656 488.6584777832031 241.2981719970703 497.8424987792969 231.46966552734375 C 486.04296875 227.17672729492188 483.0618896484375 222.5682373046875 482.8783264160156 215.1387939453125 C 477.3891906738281 210.1983184814453 479.9403991699219 205.9748077392578 482.90142822265625 206.20281982421875 C 480.7747802734375 205.2254638671875 481.5549621582031 199.48220825195312 492.87286376953125 199.8416290283203 C 492.7187805175781 196.39244079589844 491.581787109375 192.52685546875 491.46978759765625 188.8367462158203 C 487.2011413574219 174.4078826904297 487.81646728515625 173.4102020263672 488.1809997558594 164.2061309814453 C 503.84588623046875 164.5823211669922 504.7602233886719 164.83154296875 511.90167236328125 159.46051025390625 C 522.0311279296875 169.30540466308594 524.4577026367188 167.55203247070312 525.9815673828125 167.29617309570312 C 523.745849609375 162.4796905517578 531.1806640625 157.44850158691406 533.1070556640625 159.03521728515625 C 537.4347534179688 162.02890014648438 541.2360229492188 162.61553955078125 541.9513549804688 164.22947692871094 C 545.0589599609375 164.1815185546875 545.5955200195312 166.0547637939453 550.02978515625 166.97084045410156 C 549.0263671875 165.58534240722656 549.9993896484375 157.92572021484375 554.901611328125 158.1913299560547 C 557.85400390625 161.08734130859375 563.098876953125 157.99887084960938 566.529541015625 157.10520935058594" stroke-width="0.0" fill="url(#shape_9_fill)"/>
    <path d="M 561.4410400390625 156.81719970703125 C 565.0322875976562 152.85643005371094 571.2457885742188 156.96482849121094 571.4326171875 174.07545471191406 C 572.5977172851562 169.03375244140625 576.4716186523438 169.00186157226562 579.5548706054688 174.09278869628906 C 580.551513671875 178.1180419921875 578.916015625 187.3743438720703 580.4763793945312 190.93804931640625 C 571.3936157226562 196.14669799804688 572.0750122070312 229.96791076660156 578.12353515625 230.97474670410156 C 576.0836181640625 231.16354370117188 575.6340942382812 236.87615966796875 572.1409301757812 237.9539794921875 C 560.7957763671875 235.76564025878906 567.044677734375 238.7287139892578 563.2044067382812 247.61416625976562 C 549.9243774414062 253.0536346435547 501.2960205078125 249.20216369628906 500.2099304199219 251.9449920654297 C 491.27606201171875 251.83755493164062 488.0779724121094 237.2299346923828 498.92718505859375 231.80557250976562 C 486.6146240234375 224.91746520996094 481.976318359375 219.29373168945312 481.963134765625 214.70193481445312 C 475.74505615234375 215.4460906982422 471.94287109375 215.35232543945312 464.5916748046875 196.23265075683594 C 465.3399353027344 174.69659423828125 481.262939453125 173.81649780273438 482.44287109375 195.32911682128906 C 489.7093505859375 198.01417541503906 494.90826416015625 184.9986572265625 496.61346435546875 182.97048950195312 C 495.29022216796875 178.86911010742188 497.5860900878906 177.6900177001953 500.14935302734375 177.53590393066406 C 507.9372253417969 179.19935607910156 516.5657348632812 181.7830352783203 521.0890502929688 174.17881774902344 C 526.1072998046875 173.54014587402344 528.525146484375 159.69097900390625 529.6724853515625 154.46710205078125 C 538.4224853515625 155.4711456298828 539.9046630859375 156.97523498535156 537.5908813476562 165.7219696044922 C 545.7451782226562 166.07150268554688 549.0638427734375 167.55084228515625 551.7385864257812 166.73204040527344 C 550.9263916015625 155.0275115966797 552.6773071289062 152.94921875 561.4410400390625 156.81719970703125" stroke-width="0.0" fill="url(#shape_10_fill)"/>
    <path d="M 443.5678405761719 108.76155090332031 C 452.1977233886719 114.12377166748047 453.9151306152344 115.6796875 463.25189208984375 106.15730285644531 C 467.42828369140625 113.59335327148438 469.4930419921875 112.54933166503906 488.7598876953125 107.51654815673828 C 489.49896240234375 124.43075561523438 488.7803039550781 125.26350402832031 492.3750305175781 130.4408416748047 C 493.3454895019531 132.23660278320312 493.3016052246094 135.68289184570312 496.59124755859375 136.0244903564453 C 494.01348876953125 136.06785583496094 492.98419189453125 139.05227661132812 490.450439453125 142.24588012695312 C 484.02105712890625 139.24925231933594 482.6618347167969 141.8538360595703 481.2342834472656 142.62376403808594 C 468.8587951660156 136.49002075195312 467.1202697753906 134.71884155273438 465.51885986328125 134.5845489501953 C 464.2568664550781 133.4540252685547 461.0151672363281 134.28477478027344 460.1903991699219 133.5813751220703 C 461.8569641113281 131.99710083007812 481.1746826171875 141.05630493164062 501.11773681640625 155.9893798828125 C 476.9596862792969 176.96377563476562 476.0849914550781 177.65802001953125 482.09771728515625 185.200927734375 C 468.0644226074219 183.70909118652344 467.2315368652344 188.70094299316406 462.55694580078125 189.8535919189453 C 462.60394287109375 184.55128479003906 461.42919921875 172.89944458007812 460.67535400390625 157.32208251953125 C 449.599365234375 182.3479461669922 447.09063720703125 183.45687866210938 439.7528381347656 183.0785369873047 C 439.0424499511719 183.81060791015625 435.7631530761719 195.73226928710938 434.9973449707031 197.39332580566406 C 427.7338562011719 200.3374481201172 417.49176025390625 180.5935516357422 417.66259765625 179.8592071533203 C 416.9294128417969 180.17408752441406 399.03875732421875 181.58990478515625 398.448974609375 175.04156494140625 C 394.2311096191406 172.9741973876953 389.7707214355469 177.1529541015625 379.4827575683594 174.5833282470703 C 382.64605712890625 157.62136840820312 379.4959716796875 152.04977416992188 392.26123046875 138.8401336669922 C 398.657470703125 139.011962890625 399.92529296875 130.39247131347656 403.11590576171875 119.66476440429688 C 406.46990966796875 99.16448974609375 423.7211608886719 101.47450256347656 443.5678405761719 108.76155090332031" stroke-width="0.0" fill="url(#shape_11_fill)"/>
    <path d="M 602.8905029296875 127.6142349243164 C 605.3640747070312 130.93894958496094 605.3388671875 143.3587188720703 606.8428955078125 145.60475158691406 C 610.6700439453125 146.33084106445312 610.5993041992188 152.3203125 619.8137817382812 154.37857055664062 C 617.9979858398438 149.75332641601562 617.2047119140625 141.8687744140625 623.1356811523438 141.0392608642578 C 623.393798828125 137.36386108398438 625.3974609375 137.28482055664062 627.1962280273438 140.31430053710938 C 627.0323486328125 142.23329162597656 628.8496704101562 144.86033630371094 629.0682983398438 147.2369842529297 C 632.0718994140625 149.79299926757812 631.6696166992188 151.26455688476562 635.7011108398438 153.57843017578125 C 642.0465698242188 154.25453186035156 642.1921997070312 160.1908721923828 650.1193237304688 174.69606018066406 C 639.616943359375 186.4349822998047 640.5269775390625 195.1881561279297 641.0372314453125 204.4395751953125 C 663.50537109375 205.93319702148438 664.1990356445312 244.07791137695312 642.6045532226562 245.3562774658203 C 621.9450073242188 247.8846893310547 610.9393310546875 248.77523803710938 579.016845703125 265.1229248046875 C 575.3682250976562 253.26266479492188 581.23046875 229.7014617919922 571.9385375976562 214.27020263671875 C 568.0245361328125 208.6104278564453 571.3267211914062 168.86813354492188 583.8883666992188 169.70742797851562 C 596.7682495117188 163.0924530029297 600.001220703125 143.1337432861328 600.3427734375 142.28033447265625 C 595.876953125 140.0887451171875 596.148193359375 137.52645874023438 602.8905029296875 127.6142349243164" stroke-width="0.0" fill="url(#shape_12_fill)"/>
    <path d="M 412.5372619628906 176.58599853515625 C 418.4839782714844 174.659423828125 435.1839904785156 213.83477783203125 428.3641052246094 219.7039337158203 C 419.91949462890625 229.1583709716797 427.6187744140625 236.63040161132812 431.77490234375 241.66757202148438 C 429.7550354003906 260.4772033691406 417.0954895019531 272.3542175292969 411.56646728515625 267.0968933105469 C 406.9662780761719 265.00531005859375 401.44952392578125 271.8927307128906 391.83197021484375 268.4613037109375 C 385.6651611328125 264.91802978515625 382.64410400390625 265.9679870605469 378.3403015136719 265.6093444824219 C 372.9666442871094 266.92315673828125 371.4779968261719 262.2890319824219 374.1312561035156 258.14886474609375 C 376.04083251953125 256.3692932128906 374.6440734863281 254.66091918945312 375.08282470703125 253.9007568359375 C 370.94512939453125 255.89292907714844 368.7967529296875 252.16786193847656 367.7830810546875 251.96875 C 360.4601745605469 248.0272674560547 366.5948791503906 229.47735595703125 367.1130676269531 222.41180419921875 C 369.7253723144531 218.5242156982422 371.3091125488281 202.4051513671875 385.1072998046875 201.77491760253906 C 378.665771484375 193.30519104003906 379.6625061035156 191.6971435546875 389.97625732421875 191.65464782714844 C 390.5701599121094 177.36428833007812 392.5970458984375 176.76919555664062 412.5372619628906 176.58599853515625" stroke-width="0.0" fill="url(#shape_13_fill)"/>
    <path d="M 507.1929626464844 66.4822998046875 C 506.2505187988281 68.08753967285156 509.5018615722656 75.7005615234375 515.05810546875 91.91657257080078 C 532.36279296875 79.67939758300781 535.8732299804688 79.61509704589844 537.3369750976562 85.28231811523438 C 538.7535400390625 90.92558288574219 544.5319213867188 90.2957992553711 545.0235595703125 91.17828369140625 C 545.53759765625 92.73987579345703 556.1489868164062 96.89037322998047 559.4609375 95.59831237792969 C 563.266845703125 97.61295318603516 567.4031982421875 97.1709213256836 568.1812133789062 97.97490692138672 C 563.6290283203125 106.84452056884766 558.719482421875 116.6209945678711 538.1114501953125 108.65135955810547 C 540.330078125 112.17414855957031 540.1373901367188 115.39918518066406 534.6376953125 118.43611145019531 C 527.166748046875 120.00946044921875 519.5494384765625 124.55925750732422 515.6224365234375 118.5409927368164 C 512.5371704101562 121.9050064086914 501.8580627441406 125.9672622680664 500.76025390625 127.42442321777344 C 498.1784973144531 129.85971069335938 494.2706604003906 129.44358825683594 490.0180969238281 126.20481872558594 C 488.9626159667969 116.77545928955078 468.8642578125 118.1644287109375 468.16314697265625 117.4051742553711 C 463.5227355957031 117.84819030761719 462.91650390625 116.64301300048828 461.985595703125 116.31501007080078 C 471.8209228515625 120.93006134033203 474.98291015625 116.59161376953125 478.0564880371094 114.04329681396484 C 467.28009033203125 103.11219787597656 469.4017639160156 90.41532897949219 474.2157897949219 81.76139068603516 C 474.5855407714844 70.93238830566406 475.3381652832031 70.38477325439453 476.900146484375 65.92041778564453 C 478.2427062988281 63.5498161315918 482.341796875 63.64727020263672 483.9678039550781 63.36076354980469 C 495.12200927734375 63.212158203125 504.1326904296875 61.51483917236328 507.1929626464844 66.4822998046875" stroke-width="0.0" fill="url(#shape_14_fill)"/>
    <path d="M 536.53857421875 162.10743713378906 C 544.0606689453125 162.22140502929688 544.3582763671875 163.03330993652344 546.4887084960938 165.01678466796875 C 549.90380859375 167.53651428222656 549.7172241210938 170.1625213623047 542.745849609375 183.35255432128906 C 544.6056518554688 192.76954650878906 535.6835327148438 229.18260192871094 537.1171875 232.1566162109375 C 541.3930053710938 239.31500244140625 540.8724975585938 253.01097106933594 519.240966796875 252.19993591308594 C 502.159912109375 253.78741455078125 481.8975524902344 241.816162109375 487.5802917480469 230.41127014160156 C 476.7042236328125 219.67088317871094 478.8684997558594 207.29833984375 483.3122863769531 201.94981384277344 C 486.4616394042969 197.5242919921875 487.97882080078125 197.4933319091797 488.75347900390625 199.30902099609375 C 482.7220764160156 195.48851013183594 488.73602294921875 184.91561889648438 487.3416442871094 174.1417999267578 C 487.6601257324219 167.35726928710938 489.5265808105469 166.40145874023438 490.88482666015625 167.1236572265625 C 505.4487609863281 178.93045043945312 511.36602783203125 184.1457977294922 522.7882690429688 172.8305206298828 C 525.5805053710938 170.98069763183594 525.2606201171875 167.1580047607422 525.9847412109375 164.9715576171875 C 525.1887817382812 160.2620086669922 528.0233154296875 158.2976531982422 536.53857421875 162.10743713378906" stroke-width="0.0" fill="url(#shape_15_fill)"/>
    <path d="M 651.6264038085938 109.33674621582031 C 653.7520141601562 110.6437759399414 664.1286010742188 121.33609008789062 659.8654174804688 132.6763458251953 C 664.03662109375 136.05796813964844 664.5108032226562 143.97618103027344 673.209716796875 147.57330322265625 C 677.1897583007812 179.21389770507812 673.893798828125 210.79270935058594 676.2172241210938 267.12261962890625 C 675.1256103515625 265.4735107421875 635.8836669921875 272.953369140625 631.15283203125 264.02252197265625 C 635.8075561523438 244.7355499267578 643.8062133789062 124.19918823242188 651.6264038085938 109.33674621582031" stroke-width="0.0" fill="url(#shape_16_fill)"/>
    <path d="M 601.5433349609375 128.17694091796875 C 604.1304321289062 128.2308807373047 605.3933715820312 131.71047973632812 606.3248901367188 134.08795166015625 C 608.9796142578125 135.1603546142578 607.0010375976562 141.41122436523438 609.187255859375 143.9623260498047 C 628.9829711914062 143.3235626220703 632.987060546875 215.91079711914062 632.6502685546875 272.4161376953125 C 579.3935546875 277.31292724609375 574.5576782226562 268.7555236816406 580.2297973632812 242.41195678710938 C 558.3533325195312 225.90206909179688 599.01611328125 156.79901123046875 601.5433349609375 128.17694091796875" stroke-width="0.0" fill="url(#shape_17_fill)"/>
    <path d="M 320.3235778808594 186.0825653076172 C 321.47955322265625 186.36416625976562 321.61956787109375 189.23692321777344 321.35693359375 200.02268981933594 C 331.28704833984375 193.59872436523438 331.9615173339844 193.5260009765625 336.36962890625 196.27264404296875 C 345.4701843261719 198.09291076660156 346.1514892578125 197.07383728027344 357.5431823730469 189.5757293701172 C 358.61199951171875 192.31219482421875 359.5642395019531 194.41241455078125 356.2273254394531 201.8534698486328 C 359.4580993652344 203.99349975585938 361.5880432128906 204.1522674560547 364.8202819824219 210.37355041503906 C 367.3157043457031 207.10726928710938 368.5701599121094 207.8221435546875 368.2509460449219 211.5381317138672 C 370.0494384765625 220.1273651123047 370.2979431152344 223.10791015625 366.1280517578125 225.60118103027344 C 365.77081298828125 231.57896423339844 363.04437255859375 239.09951782226562 368.3915100097656 248.8822021484375 C 370.4660339355469 253.3022003173828 368.7711486816406 255.74769592285156 357.9169921875 254.5731964111328 C 355.0912170410156 255.90914916992188 324.3392028808594 254.92955017089844 322.5288391113281 255.4247589111328 C 313.234619140625 255.90731811523438 311.8990783691406 253.92381286621094 308.94769287109375 246.06887817382812 C 303.65814208984375 228.9205780029297 320.9555358886719 195.73684692382812 320.3235778808594 186.0825653076172" stroke-width="0.0" fill="url(#shape_18_fill)"/>
    <path d="M 483.85467529296875 235.19241333007812 C 506.591064453125 252.6390838623047 515.8529663085938 263.7410583496094 495.4610290527344 280.7671203613281 C 469.8948974609375 280.6197814941406 443.9230041503906 261.9280090332031 442.0359802246094 262.4039001464844 C 438.70111083984375 260.6019287109375 436.9881896972656 258.60565185546875 432.5467224121094 258.3078918457031 C 429.8265686035156 258.48809814453125 428.5420227050781 256.73358154296875 430.0893859863281 253.78305053710938 C 433.53509521484375 237.14495849609375 423.5073547363281 233.8347625732422 422.9608154296875 229.7294464111328 C 423.08026123046875 227.13388061523438 421.0623779296875 226.6890869140625 420.2717590332031 225.06431579589844 C 427.3778991699219 219.71371459960938 429.45721435546875 218.82322692871094 428.5411376953125 213.7639617919922 C 446.2840270996094 197.2274627685547 482.45843505859375 196.14207458496094 483.85467529296875 235.19241333007812" stroke-width="0.0" fill="url(#shape_19_fill)"/>
    <path d="M 673.9498901367188 -2.9432244300842285 C 675.0673828125 32.84956741333008 674.5833740234375 64.76375579833984 674.6934204101562 97.32357025146484 C 669.2593994140625 96.0107421875 651.1599731445312 87.39342498779297 645.7882690429688 90.11006164550781 C 638.578125 89.47823333740234 638.0936889648438 86.07231903076172 637.3114624023438 83.99388885498047 C 626.5468139648438 84.56733703613281 620.5339965820312 93.08404541015625 607.9302978515625 86.82914733886719 C 609.6986083984375 74.74270629882812 612.18212890625 73.64924621582031 614.51318359375 71.5299301147461 C 622.4124755859375 68.77789306640625 648.8154907226562 25.102294921875 647.5332641601562 20.587635040283203 C 655.4855346679688 9.14746379852295 656.5980224609375 2.1075589656829834 669.0044555664062 3.320922613143921 C 669.830810546875 2.6955926418304443 670.0844116210938 1.0493080615997314 673.9498901367188 -2.9432244300842285" stroke-width="0.0" fill="url(#shape_20_fill)"/>
    <path d="M 561.5834350585938 156.1929168701172 C 569.7846069335938 156.57211303710938 570.363525390625 161.01882934570312 572.1013793945312 166.1094207763672 C 581.3612060546875 168.34280395507812 570.8467407226562 230.43228149414062 577.7529296875 240.58201599121094 C 580.1522827148438 244.89425659179688 579.9583129882812 247.1407470703125 578.0595703125 271.12469482421875 C 535.2305297851562 270.57904052734375 530.905029296875 267.8593444824219 537.2503662109375 248.60598754882812 C 546.00927734375 244.8080596923828 549.9368286132812 168.64939880371094 555.4440307617188 156.75267028808594 C 555.5932006835938 152.620849609375 560.0225830078125 151.5792236328125 561.5834350585938 156.1929168701172" stroke-width="0.0" fill="url(#shape_21_fill)"/>
    <path d="M 214.9980926513672 210.4055938720703 C 235.05218505859375 208.1588592529297 238.8237762451172 239.90016174316406 225.15394592285156 257.529541015625 C 211.33836364746094 262.80731201171875 208.9678497314453 263.4091796875 208.85340881347656 273.0457763671875 C 205.79058837890625 275.2785339355469 206.73155212402344 277.0514831542969 205.50006103515625 279.34674072265625 C 206.63919067382812 282.7784423828125 202.85720825195312 285.76593017578125 202.0946044921875 284.8912658691406 C 202.54306030273438 282.9490966796875 190.33944702148438 272.30596923828125 188.10406494140625 263.2808837890625 C 186.63587951660156 261.43194580078125 184.04722595214844 263.22882080078125 181.40321350097656 263.6876525878906 C 181.01800537109375 261.25872802734375 180.07508850097656 259.62347412109375 178.39718627929688 251.5853729248047 C 178.93377685546875 247.7562255859375 168.8832244873047 242.37705993652344 170.6956024169922 238.67320251464844 C 175.2298583984375 213.57931518554688 177.1119384765625 212.93382263183594 185.4840545654297 220.4407196044922 C 193.6417999267578 219.8315887451172 194.01907348632812 215.03921508789062 198.57089233398438 213.5208740234375 C 184.3334503173828 205.59194946289062 184.3856201171875 200.2714080810547 201.02259826660156 197.5889892578125 C 212.66513061523438 192.5678253173828 214.90518188476562 194.902587890625 214.9980926513672 210.4055938720703" stroke-width="0.0" fill="url(#shape_22_fill)"/>
    <path d="M 111.7323226928711 426.1538391113281 C 112.75167083740234 429.286865234375 111.06269836425781 431.2135314941406 110.6583480834961 431.3759460449219 C 104.96644592285156 432.6851806640625 103.22567749023438 433.81072998046875 91.97444152832031 433.0755615234375 C 89.77633666992188 435.97222900390625 95.65934753417969 446.421630859375 91.5750732421875 452.1399841308594 C 78.66380310058594 444.9972229003906 46.938175201416016 447.9271240234375 25.331024169921875 449.6072998046875 C 14.054479598999023 446.1639404296875 13.909063339233398 439.7413330078125 17.97581672668457 436.3298645019531 C 35.519996643066406 427.5946350097656 49.41177749633789 426.6594543457031 73.44307708740234 427.04742431640625 C 73.5553970336914 423.8461608886719 110.0113525390625 420.56134033203125 111.7323226928711 426.1538391113281" stroke-width="0.0" fill="url(#shape_23_fill)"/>
    <path d="M 198.42388916015625 121.5055923461914 C 211.85667419433594 114.97539520263672 225.83596801757812 132.49288940429688 220.92294311523438 142.06240844726562 C 216.34310913085938 147.9075164794922 218.56802368164062 150.38768005371094 220.31838989257812 154.66162109375 C 228.2208709716797 158.73719787597656 247.56362915039062 175.3247528076172 244.78204345703125 198.9989776611328 C 239.13865661621094 199.59933471679688 235.68040466308594 187.02749633789062 232.3155975341797 179.80078125 C 234.7649688720703 187.16029357910156 233.44752502441406 195.9637451171875 230.5140838623047 197.130615234375 C 228.21392822265625 197.05899047851562 225.8089599609375 202.55609130859375 220.16709899902344 208.71067810058594 C 214.79832458496094 207.83615112304688 213.48690795898438 202.14376831054688 211.7765350341797 198.26222229003906 C 211.29725646972656 190.88031005859375 211.5749969482422 183.1284942626953 206.82411193847656 177.6356658935547 C 203.8388671875 174.05308532714844 204.8932342529297 172.9972381591797 205.7626495361328 168.11546325683594 C 202.59152221679688 147.53504943847656 199.5310516357422 146.94166564941406 192.1216583251953 143.8372039794922 C 189.4498291015625 142.41171264648438 191.27525329589844 127.45809173583984 198.42388916015625 121.5055923461914" stroke-width="0.0" fill="url(#shape_24_fill)"/>
    <path d="M 589.568115234375 401.4938049316406 C 601.911376953125 404.6387023925781 630.0572509765625 403.5856018066406 638.9761962890625 409.59051513671875 C 636.9238891601562 424.90673828125 631.9262084960938 427.6825866699219 629.365234375 425.80804443359375 C 630.5789184570312 427.8237609863281 636.162353515625 428.0254821777344 639.9827880859375 436.4320983886719 C 618.951904296875 448.1404724121094 578.9576416015625 438.5694274902344 572.3233032226562 434.8935241699219 C 567.6550903320312 427.3225402832031 573.8864135742188 419.5881042480469 577.2398071289062 412.77691650390625 C 578.0745239257812 411.11871337890625 585.702392578125 413.4952392578125 589.568115234375 401.4938049316406" stroke-width="0.0" fill="url(#shape_25_fill)"/>
    <path d="M 142.87535095214844 67.03392028808594 C 144.00022888183594 68.66657257080078 149.05787658691406 67.9604721069336 149.72084045410156 68.80183410644531 C 148.8524627685547 70.91757202148438 150.42149353027344 71.83241271972656 149.45205688476562 73.96636199951172 C 151.026611328125 74.51878356933594 150.15415954589844 78.74565887451172 149.4211883544922 92.85236358642578 C 152.24517822265625 92.9831771850586 154.88095092773438 95.36198425292969 152.84324645996094 104.13065338134766 C 153.1669464111328 107.73419189453125 155.04563903808594 108.53080749511719 155.76300048828125 111.0899658203125 C 157.23631286621094 123.5230712890625 154.7979736328125 133.47323608398438 149.78041076660156 133.5504913330078 C 140.10287475585938 128.93637084960938 138.0091552734375 117.73776245117188 125.9961166381836 116.44556427001953 C 121.80496978759766 113.7419662475586 123.37592315673828 109.68534851074219 126.17961883544922 107.18201446533203 C 128.5377197265625 106.75896453857422 129.02464294433594 105.27520751953125 132.5191192626953 105.03646087646484 C 138.7231903076172 96.21261596679688 135.3388214111328 92.98334503173828 132.6802978515625 89.04283905029297 C 134.04534912109375 88.15003967285156 139.4579315185547 88.03950500488281 140.62966918945312 85.40853881835938 C 138.2113800048828 84.69918823242188 138.8072509765625 78.04227447509766 139.97598266601562 77.3596420288086 C 144.10707092285156 76.41633605957031 143.00244140625 71.29110717773438 142.87535095214844 67.03392028808594" stroke-width="0.0" fill="url(#shape_26_fill)"/>
    <path d="M 139.46481323242188 67.78355407714844 C 149.20249938964844 66.76199340820312 149.4798583984375 67.8691177368164 148.7805633544922 77.41753387451172 C 150.52305603027344 78.2874526977539 151.16603088378906 80.78340911865234 155.03607177734375 85.3713607788086 C 149.92454528808594 90.34661865234375 155.1430206298828 95.89096069335938 150.93011474609375 105.23729705810547 C 152.7399444580078 106.08796691894531 153.69100952148438 109.78136444091797 155.44235229492188 113.01579284667969 C 152.9628448486328 115.88074493408203 157.74856567382812 122.0537109375 153.1449737548828 126.30767822265625 C 152.4824981689453 132.01193237304688 151.308837890625 133.16453552246094 147.589111328125 134.7012939453125 C 142.14698791503906 130.6901397705078 128.19085693359375 122.32474517822266 129.62086486816406 117.60501861572266 C 124.2510757446289 118.39028930664062 122.791015625 112.8652114868164 128.42654418945312 110.66973114013672 C 122.79679870605469 107.51484680175781 124.55380249023438 103.97863006591797 132.88511657714844 107.99934387207031 C 136.90203857421875 105.94955444335938 133.31106567382812 92.72671508789062 132.69400024414062 89.2208023071289 C 139.3648681640625 87.74166107177734 138.92572021484375 85.22207641601562 139.00111389160156 81.12584686279297 C 139.0642852783203 77.48816680908203 140.3614501953125 76.81328582763672 142.52101135253906 78.35102081298828 C 145.23280334472656 71.87162017822266 142.69998168945312 70.36919403076172 139.46481323242188 67.78355407714844" stroke-width="0.0" fill="url(#shape_27_fill)"/>
    <path d="M -0.4457211494445801 -0.27874115109443665 C 4.735119819641113 0.3896380662918091 9.684059143066406 -0.5337076187133789 18.65302276611328 -0.899436891078949 C 25.51795768737793 -1.8521147966384888 26.051652908325195 -1.0564314126968384 57.9628791809082 0.3544095456600189 C 53.41913986206055 25.593868255615234 28.988115310668945 22.85516929626465 28.127140045166016 28.415449142456055 C 63.31002426147461 7.062204837799072 72.34407806396484 6.658437728881836 76.11174011230469 56.394100189208984 C 33.50716781616211 58.544586181640625 22.709016799926758 61.464237213134766 20.074880599975586 54.01179504394531 C 16.607175827026367 39.3667106628418 11.253114700317383 38.35368728637695 9.96568775177002 33.62745666503906 C 10.103381156921387 35.7855224609375 14.522298812866211 39.26755905151367 14.624290466308594 41.02212905883789 C 16.19984245300293 42.15633010864258 16.10858917236328 44.552616119384766 18.167369842529297 47.87989044189453 C 20.071340560913086 51.07362365722656 18.76840591430664 52.30509948730469 23.06844711303711 57.85538864135742 C 24.331388473510742 70.7045669555664 9.221370697021484 72.76966857910156 6.964040756225586 61.89063262939453 C 5.089595317840576 61.010475158691406 3.576997995376587 59.11668395996094 0.3110750913619995 59.449859619140625 C -0.3220977783203125 39.80795669555664 -0.3251369297504425 19.63813018798828 -0.4457211494445801 -0.27874115109443665" stroke-width="0.0" fill="url(#shape_28_fill)"/>
    <path d="M 298.1945495605469 197.2964630126953 C 297.7518310546875 199.5009307861328 300.7640075683594 202.1533203125 301.61151123046875 209.05560302734375 C 300.4169616699219 214.37564086914062 325.8112487792969 222.12481689453125 315.95159912109375 255.5035858154297 C 311.8997497558594 254.705810546875 310.49530029296875 255.7157440185547 304.3061828613281 255.02468872070312 C 303.96685791015625 258.1075134277344 297.8984680175781 258.3182678222656 281.3691711425781 256.515380859375 C 276.50628662109375 223.51747131347656 285.22747802734375 221.90814208984375 298.1945495605469 197.2964630126953" stroke-width="0.0" fill="url(#shape_29_fill)"/>
    <path d="M 0.0040777260437607765 -0.1431729644536972 C 4.63012170791626 0.4598332643508911 9.847240447998047 -0.40780583024024963 14.764328002929688 0.08779098093509674 C 15.988121032714844 0.4674839973449707 16.80175018310547 1.958669662475586 16.625642776489258 7.8674540519714355 C 18.7459716796875 11.033387184143066 21.31084632873535 19.198366165161133 27.963594436645508 20.501270294189453 C 27.35178565979004 22.63817024230957 23.428367614746094 26.709653854370117 26.180965423583984 31.97479820251465 C 20.693878173828125 32.53047180175781 11.361716270446777 30.304903030395508 3.487100839614868 33.45283889770508 C 8.792984008789062 36.28048324584961 8.62744140625 39.208168029785156 10.862116813659668 40.467567443847656 C 10.544342994689941 42.73640060424805 7.357990264892578 49.34485626220703 11.760483741760254 53.8017578125 C 17.786304473876953 51.01796340942383 19.453527450561523 51.44257354736328 18.47344398498535 58.41022872924805 C 11.321235656738281 60.706241607666016 9.426064491271973 62.37668228149414 0.174654021859169 61.65993118286133 C -0.4289678633213043 39.980533599853516 -0.3547278940677643 19.756786346435547 0.0040777260437607765 -0.1431729644536972" stroke-width="0.0" fill="url(#shape_30_fill)"/>
    <path d="M 549.0496826171875 70.72235870361328 C 546.758544921875 78.59627532958984 576.8071899414062 89.25932312011719 581.3961181640625 91.86768341064453 C 581.0112915039062 93.0305404663086 577.5526123046875 93.39909362792969 577.5341796875 98.3392105102539 C 573.2979736328125 100.68431854248047 572.051025390625 99.79888916015625 569.458740234375 100.04595947265625 C 567.0233154296875 94.04706573486328 547.42822265625 98.67893981933594 538.8862915039062 88.2665786743164 C 538.251220703125 85.53433227539062 538.7947387695312 82.8388671875 535.9188232421875 81.73348999023438 C 533.9011840820312 81.14382934570312 527.1362915039062 79.43770599365234 526.9903564453125 78.00177764892578 C 524.9723510742188 75.87511444091797 527.7471923828125 70.86206817626953 531.7730712890625 68.94973754882812 C 539.2999267578125 66.81890106201172 542.8306884765625 71.47314453125 549.0496826171875 70.72235870361328" stroke-width="0.0" fill="url(#shape_31_fill)"/>
    <path d="M 446.88275146484375 264.46636962890625 C 450.59503173828125 265.3396301269531 451.234130859375 266.78363037109375 455.4721984863281 267.8949890136719 C 460.5113830566406 267.6551208496094 465.32232666015625 270.3759765625 469.96783447265625 272.9744873046875 C 470.4309997558594 275.6334533691406 471.828857421875 276.8868713378906 471.6768798828125 280.78790283203125 C 452.44378662109375 287.218505859375 431.4319763183594 284.17626953125 415.8403625488281 285.13079833984375 C 413.33941650390625 273.8707275390625 413.8779602050781 272.2660217285156 415.1162109375 267.90570068359375 C 418.1702880859375 267.1855163574219 417.6819152832031 264.7597351074219 419.296875 262.80157470703125 C 445.06402587890625 250.28662109375 447.2877502441406 251.4349822998047 446.88275146484375 264.46636962890625" stroke-width="0.0" fill="url(#shape_32_fill)"/>
    <path d="M 272.96514892578125 192.04959106445312 C 274.00421142578125 192.37718200683594 288.52545166015625 243.7467803955078 282.85711669921875 249.8484649658203 C 279.7115478515625 249.9911651611328 274.15045166015625 248.00497436523438 269.03289794921875 250.45458984375 C 266.0047607421875 246.8977813720703 266.3367919921875 243.12071228027344 260.74151611328125 240.70863342285156 C 254.8533477783203 208.37411499023438 262.1407470703125 205.1642608642578 272.96514892578125 192.04959106445312" stroke-width="0.0" fill="url(#shape_33_fill)"/>
    <path d="M 270.340576171875 406.0038757324219 C 262.153076171875 429.80316162109375 264.2063903808594 430.9088439941406 267.430908203125 440.6544494628906 C 262.4905700683594 440.8413391113281 260.6849670410156 446.4181823730469 258.6200256347656 447.863525390625 C 245.71653747558594 446.36724853515625 213.24380493164062 448.4234924316406 212.0585174560547 445.1844177246094 C 213.021240234375 436.99578857421875 213.95974731445312 436.22125244140625 216.10137939453125 434.8070068359375 C 216.56150817871094 433.69744873046875 225.13015747070312 434.15753173828125 226.8657684326172 431.17144775390625 C 226.0700225830078 417.2727355957031 230.5450897216797 416.5883483886719 270.340576171875 406.0038757324219" stroke-width="0.0" fill="url(#shape_34_fill)"/>
    <path d="M 105.5885238647461 69.57592010498047 C 110.47455596923828 69.61136627197266 110.39723205566406 78.28319549560547 112.86589813232422 85.29348754882812 C 118.0318832397461 86.3876724243164 115.76815032958984 110.00125122070312 118.97537994384766 110.67325592041016 C 116.65872955322266 112.45816802978516 109.33626556396484 114.17195892333984 107.01333618164062 124.99687957763672 C 104.55182647705078 117.12139892578125 96.4736099243164 118.92838287353516 87.51817321777344 106.57744598388672 C 86.0558853149414 85.64022827148438 106.30937194824219 84.1603012084961 105.5885238647461 69.57592010498047" stroke-width="0.0" fill="url(#shape_35_fill)"/>
    <path d="M 451.19122314453125 178.48223876953125 C 454.2730407714844 176.0709991455078 456.39862060546875 177.7818603515625 455.06683349609375 180.3375244140625 C 455.8053283691406 180.92141723632812 454.9410400390625 184.89697265625 456.0589904785156 186.85617065429688 C 456.46453857421875 188.42262268066406 459.3968505859375 193.65972900390625 458.60162353515625 204.4758758544922 C 458.8283386230469 208.28810119628906 453.2977294921875 210.283203125 446.00018310546875 204.40403747558594 C 442.2583923339844 206.71038818359375 440.69866943359375 209.37026977539062 431.92669677734375 210.856689453125 C 436.05426025390625 209.91725158691406 436.9631652832031 187.1566925048828 437.6605529785156 173.474365234375 C 440.069580078125 178.73536682128906 440.82305908203125 181.22042846679688 446.8768005371094 181.6490936279297 C 447.9618835449219 179.7499542236328 450.1531066894531 179.7279815673828 451.19122314453125 178.48223876953125" stroke-width="0.0" fill="url(#shape_36_fill)"/>
    <path d="M 558.39794921875 84.69536590576172 C 559.62109375 80.04396057128906 578.3389282226562 83.32006072998047 579.2806396484375 84.9906997680664 C 581.32568359375 83.0740737915039 586.2957763671875 84.95793914794922 588.460693359375 88.81475067138672 C 598.8675537109375 111.81190490722656 588.3599243164062 118.32793426513672 574.3011474609375 100.96013641357422 C 573.7890014648438 99.44235229492188 549.8627319335938 96.74066162109375 549.0068969726562 86.59500122070312 C 539.2106323242188 87.00410461425781 537.8062133789062 85.44639587402344 536.82763671875 79.89360046386719 C 543.3372192382812 74.64521026611328 546.7774047851562 78.91378784179688 558.39794921875 84.69536590576172" stroke-width="0.0" fill="url(#shape_37_fill)"/>
    <path d="M 251.5477294921875 206.44485473632812 C 265.9684753417969 215.5877685546875 261.3601989746094 233.9277801513672 260.062255859375 248.84976196289062 C 259.9705505371094 254.7017059326172 251.5474090576172 255.30751037597656 248.82958984375 256.90155029296875 C 234.1315460205078 236.06118774414062 240.57957458496094 216.4626922607422 251.5477294921875 206.44485473632812" stroke-width="0.0" fill="url(#shape_38_fill)"/>
    <path d="M 442.23150634765625 262.9561462402344 C 445.9905700683594 263.41766357421875 449.2194519042969 266.680908203125 447.93994140625 270.0827941894531 C 444.6692810058594 270.4041442871094 442.6749267578125 277.36077880859375 440.07025146484375 277.3519592285156 C 438.05377197265625 286.8621520996094 430.8749694824219 286.1597595214844 417.49407958984375 275.26617431640625 C 414.35345458984375 276.6794738769531 413.1871643066406 274.15777587890625 416.4205017089844 271.5842590332031 C 414.8077392578125 269.91265869140625 419.2707214355469 262.277099609375 425.2068786621094 258.5176696777344 C 426.97161865234375 257.8884582519531 440.6993408203125 257.6947326660156 442.23150634765625 262.9561462402344" stroke-width="0.0" fill="url(#shape_39_fill)"/>
    <path d="M 407.6382141113281 409.95587158203125 C 408.6274719238281 409.9267578125 416.7638244628906 419.1761474609375 414.3118591308594 424.44122314453125 C 398.5452880859375 435.3773193359375 386.3988342285156 420.48516845703125 376.5309143066406 420.89471435546875 C 371.0676574707031 417.96282958984375 371.2240905761719 416.5549011230469 372.59490966796875 410.5496826171875 C 375.61322021484375 400.97174072265625 391.6590881347656 404.04998779296875 407.6382141113281 409.95587158203125" stroke-width="0.0" fill="url(#shape_40_fill)"/>
    <path d="M 66.65176391601562 427.3426208496094 C 67.20252227783203 428.91748046875 63.863895416259766 431.7975769042969 58.578125 434.0212707519531 C 57.33775329589844 435.7650146484375 42.72813415527344 435.44195556640625 30.950950622558594 443.3612976074219 C 28.98573875427246 443.43426513671875 26.820144653320312 444.174072265625 17.416236877441406 442.5372314453125 C 16.465312957763672 440.6541748046875 18.09558868408203 439.2092590332031 17.39728355407715 437.74273681640625 C 36.56068420410156 427.018798828125 51.013004302978516 428.5472106933594 66.65176391601562 427.3426208496094" stroke-width="0.0" fill="url(#shape_41_fill)"/>
    <path d="M 276.2321472167969 381.09576416015625 C 285.06695556640625 381.61956787109375 299.5823974609375 379.67236328125 313.79217529296875 384.7574462890625 C 296.6930236816406 394.38983154296875 299.29400634765625 401.1593933105469 294.5930480957031 405.250732421875 C 291.7846374511719 400.1554870605469 268.3717346191406 407.5931701660156 257.5022888183594 410.1744384765625 C 235.98773193359375 420.4558410644531 228.34124755859375 417.0279541015625 227.2567901611328 383.6830749511719 C 259.74285888671875 377.7779846191406 266.0850830078125 382.21624755859375 276.2321472167969 381.09576416015625" stroke-width="0.0" fill="url(#shape_42_fill)"/>
    <path d="M 222.67825317382812 209.06341552734375 C 224.2257537841797 206.37677001953125 238.40496826171875 206.2550506591797 238.9646759033203 209.78976440429688 C 242.85902404785156 222.0004119873047 243.69570922851562 245.18862915039062 256.403076171875 270.6614685058594 C 252.44276428222656 276.6452941894531 243.54676818847656 273.56292724609375 208.11859130859375 272.3818359375 C 208.6167449951172 266.2406005859375 206.19342041015625 250.8509521484375 216.080078125 247.51991271972656 C 219.154296875 246.45046997070312 218.50135803222656 226.42796325683594 222.67825317382812 209.06341552734375" stroke-width="0.0" fill="url(#shape_43_fill)"/>
    <path d="M 483.55096435546875 396.182373046875 C 486.7174377441406 399.56378173828125 485.7867736816406 400.97021484375 483.32879638671875 400.9627990722656 C 468.9246826171875 407.51934814453125 451.1646423339844 406.9461975097656 450.29998779296875 407.4726867675781 C 448.3981628417969 404.44744873046875 451.82769775390625 396.2276916503906 453.72796630859375 396.5283508300781 C 466.8686218261719 393.3843078613281 470.9313659667969 392.4524230957031 483.55096435546875 396.182373046875" stroke-width="0.0" fill="url(#shape_44_fill)"/>
    <path d="M 45.91728973388672 408.1510314941406 C 45.23786163330078 407.808837890625 35.91904067993164 412.90008544921875 31.784242630004883 412.479248046875 C 32.04021072387695 414.2251281738281 31.694040298461914 415.64300537109375 28.048349380493164 414.99627685546875 C 26.927852630615234 416.31072998046875 23.763294219970703 416.9034729003906 20.454439163208008 419.73944091796875 C 18.729394912719727 420.1498107910156 0.17791089415550232 417.60870361328125 -0.6346074938774109 420.536865234375 C 1.9836515188217163 419.36199951171875 -1.128751277923584 411.1658935546875 0.9971085786819458 410.1815185546875 C 5.725045204162598 409.6993103027344 45.47633361816406 406.2504577636719 45.91728973388672 408.1510314941406" stroke-width="0.0" fill="url(#shape_45_fill)"/>
    <path d="M 452.46868896484375 173.4310302734375 C 453.8507995605469 174.93740844726562 464.4303283691406 198.64886474609375 467.4300842285156 199.6771697998047 C 462.57965087890625 209.1116180419922 450.98065185546875 209.1315155029297 449.4419250488281 206.52032470703125 C 448.29608154296875 203.27488708496094 448.9277038574219 198.3262176513672 448.85076904296875 195.29678344726562 C 447.9676818847656 194.57565307617188 447.5819091796875 192.02935791015625 448.525146484375 187.98191833496094 C 450.9569091796875 186.6379852294922 450.1094665527344 182.4389190673828 452.46868896484375 173.4310302734375" stroke-width="0.0" fill="url(#shape_46_fill)"/>
    <path d="M 372.0622253417969 183.7888641357422 C 380.0394592285156 198.445556640625 380.16046142578125 202.6014404296875 371.8526611328125 205.87081909179688 C 365.86846923828125 206.8402557373047 364.772216796875 204.74710083007812 361.5845031738281 206.08700561523438 C 339.466064453125 212.4879913330078 334.9063720703125 200.3609161376953 353.3296813964844 189.40576171875 C 356.7108154296875 184.98507690429688 358.37908935546875 184.3579559326172 368.18853759765625 185.45773315429688 C 369.0268249511719 182.7705078125 371.4079284667969 182.92755126953125 372.0622253417969 183.7888641357422" stroke-width="0.0" fill="url(#shape_47_fill)"/>
    <path d="M 473.23236083984375 264.4133605957031 C 473.72418212890625 268.9171142578125 481.1943054199219 271.6074523925781 484.8614501953125 283.3716125488281 C 467.26312255859375 287.93798828125 445.3709411621094 286.99041748046875 443.8152160644531 284.9131164550781 C 439.3327941894531 282.0927734375 439.9988098144531 276.9676513671875 440.97943115234375 276.2815856933594 C 449.39794921875 266.5148010253906 455.84307861328125 261.5960388183594 473.23236083984375 264.4133605957031" stroke-width="0.0" fill="url(#shape_48_fill)"/>
    <path d="M 176.48497009277344 116.66157531738281 C 178.20376586914062 115.62710571289062 181.72048950195312 116.13360595703125 182.74313354492188 117.1783218383789 C 184.62875366210938 120.08785247802734 183.93402099609375 121.74688720703125 184.74664306640625 123.30816650390625 C 179.41635131835938 128.25389099121094 185.55238342285156 137.0372314453125 183.04591369628906 139.1342010498047 C 181.5464630126953 146.2115936279297 172.8192596435547 146.31443786621094 172.4176788330078 146.85867309570312 C 172.93492126464844 126.95464324951172 171.08676147460938 124.3949966430664 176.48497009277344 116.66157531738281" stroke-width="0.0" fill="url(#shape_49_fill)"/>
    <path d="M 333.397216796875 427.0679016113281 C 335.84527587890625 429.7732849121094 342.89202880859375 429.5711669921875 343.7655944824219 431.4881896972656 C 346.38177490234375 435.5614929199219 345.15838623046875 437.2066345214844 342.2452392578125 437.46533203125 C 342.4144287109375 447.3359375 325.5452575683594 448.80389404296875 323.54718017578125 445.7759704589844 C 321.5799255371094 436.1419372558594 321.5915222167969 432.71728515625 304.9953918457031 430.9573669433594 C 317.3206481933594 424.5986328125 327.0408020019531 431.0431213378906 333.397216796875 427.0679016113281" stroke-width="0.0" fill="url(#shape_50_fill)"/>
    <path d="M 322.550537109375 388.7364807128906 C 316.35113525390625 396.72271728515625 293.080322265625 395.2431640625 291.5268859863281 398.9973449707031 C 279.09991455078125 397.6905822753906 277.8506164550781 398.9462890625 271.2350769042969 402.21087646484375 C 271.3022155761719 401.5943298339844 270.1393737792969 398.888916015625 271.8258361816406 397.5141296386719 C 270.4711608886719 395.59674072265625 273.6650695800781 388.7453918457031 280.07464599609375 388.4747009277344 C 284.2105407714844 386.8686218261719 288.4660339355469 390.1756286621094 322.550537109375 388.7364807128906" stroke-width="0.0" fill="url(#shape_51_fill)"/>
    <path d="M 269.0210876464844 187.8147735595703 C 278.204833984375 195.4810791015625 276.79901123046875 207.72938537597656 280.2236633300781 217.41282653808594 C 271.5384521484375 210.48721313476562 269.5947570800781 208.4825897216797 260.160888671875 217.34532165527344 C 258.2703857421875 208.8996124267578 262.6134033203125 195.20037841796875 267.955810546875 195.85089111328125 C 269.7040100097656 194.1651153564453 268.83221435546875 191.55726623535156 269.0210876464844 187.8147735595703" stroke-width="0.0" fill="url(#shape_52_fill)"/>
    <path d="M 218.59136962890625 409.3342590332031 C 215.8806915283203 410.8904724121094 215.80917358398438 413.3586120605469 214.3177947998047 415.5022888183594 C 214.64259338378906 424.117431640625 195.6832733154297 425.27886962890625 187.753173828125 415.67498779296875 C 186.3872528076172 403.45318603515625 209.59683227539062 398.4854736328125 218.59136962890625 409.3342590332031" stroke-width="0.0" fill="url(#shape_53_fill)"/>
    <path d="M 206.03977966308594 424.6336975097656 C 205.43429565429688 425.2123718261719 206.15261840820312 428.3025817871094 204.5443572998047 428.7460632324219 C 194.7334747314453 429.4429931640625 178.8333282470703 430.1068115234375 178.1326446533203 432.7150573730469 C 176.9893798828125 430.9398193359375 178.59754943847656 425.9407958984375 177.2709197998047 423.85870361328125 C 187.22802734375 418.5984802246094 192.3116455078125 423.32666015625 206.03977966308594 424.6336975097656" stroke-width="0.0" fill="url(#shape_54_fill)"/>
    <path d="M 268.9897766113281 248.2882080078125 C 275.18267822265625 245.1263885498047 276.78912353515625 247.7843017578125 279.01513671875 249.33436584472656 C 281.0977478027344 251.00782775878906 280.74371337890625 252.163818359375 294.68408203125 273.6341857910156 C 263.47564697265625 258.19024658203125 262.8800964355469 257.5231018066406 248.8254852294922 269.57940673828125 C 254.8108673095703 248.17271423339844 255.9355926513672 247.26022338867188 258.8053283691406 245.21939086914062 C 261.1518859863281 240.1838836669922 263.0585021972656 239.35902404785156 268.9897766113281 248.2882080078125" stroke-width="0.0" fill="url(#shape_55_fill)"/>
    <path d="M 292.45599365234375 333.0714416503906 C 288.29351806640625 362.6568908691406 288.8576354980469 363.4590759277344 285.6456298828125 368.0509338378906 C 285.5763244628906 369.222900390625 286.10711669921875 371.7597961425781 285.44921875 381.6328125 C 267.8817138671875 379.26080322265625 254.87986755371094 380.5499572753906 231.95599365234375 382.5088806152344 C 227.70046997070312 382.6912536621094 227.08055114746094 369.14300537109375 236.66090393066406 345.0287780761719 C 237.56747436523438 334.7093505859375 238.42333984375 331.5820007324219 292.45599365234375 333.0714416503906" stroke-width="0.0" fill="url(#shape_56_fill)"/>
    <path d="M 407.9294128417969 271.8385925292969 C 412.46197509765625 270.99249267578125 417.78619384765625 275.9839172363281 425.7452392578125 281.9573059082031 C 416.36297607421875 283.42608642578125 412.464599609375 275.435546875 372.93231201171875 274.4607238769531 C 374.78887939453125 262.3465881347656 382.616943359375 263.28668212890625 407.9294128417969 271.8385925292969" stroke-width="0.0" fill="url(#shape_57_fill)"/>
    <path d="M 632.1237182617188 352.60699462890625 C 632.981689453125 354.33544921875 661.08349609375 355.3555908203125 668.4706420898438 355.8546447753906 C 668.4214477539062 357.9567565917969 662.9891357421875 360.09454345703125 660.1951293945312 356.5032958984375 C 644.1399536132812 356.7219543457031 636.8786010742188 358.703125 631.7623901367188 359.37164306640625 C 627.9447631835938 357.3869934082031 629.6177368164062 353.7210388183594 632.1237182617188 352.60699462890625" stroke-width="0.0" fill="url(#shape_58_fill)"/>
    <path d="M 341.3999328613281 384.5798034667969 C 342.8481750488281 390.05377197265625 358.1585693359375 391.5697937011719 359.15716552734375 394.551513671875 C 356.5889587402344 398.5304260253906 339.77691650390625 401.29730224609375 338.2705993652344 399.5762634277344 C 335.1358642578125 399.64117431640625 333.0494689941406 398.793212890625 331.8196716308594 396.5372619628906 C 331.99468994140625 394.93994140625 330.73858642578125 393.4737243652344 332.22564697265625 390.5673828125 C 332.64483642578125 384.8223571777344 335.230712890625 383.74151611328125 341.3999328613281 384.5798034667969" stroke-width="0.0" fill="url(#shape_59_fill)"/>
    <path d="M 457.71478271484375 365.079345703125 C 461.5581970214844 361.7004089355469 474.3642578125 372.3235168457031 473.2507629394531 374.644287109375 C 471.8155822753906 376.24169921875 470.33636474609375 376.8171081542969 463.7249755859375 375.8731689453125 C 458.95184326171875 376.6975402832031 456.935791015625 377.10064697265625 452.776611328125 371.1398010253906 C 453.3819274902344 370.0862731933594 458.5247497558594 368.3632507324219 457.71478271484375 365.079345703125" stroke-width="0.0" fill="url(#shape_60_fill)"/>
    <path d="M 428.21185302734375 432.28363037109375 C 439.971923828125 434.1947021484375 442.367919921875 436.7628173828125 442.1192321777344 438.6098937988281 C 440.2537841796875 440.74066162109375 427.22015380859375 439.3578796386719 425.675048828125 441.9551696777344 C 422.55828857421875 437.51837158203125 423.9136962890625 434.69757080078125 410.0816650390625 425.2838134765625 C 427.6799011230469 427.96435546875 428.9518127441406 431.62432861328125 428.21185302734375 432.28363037109375" stroke-width="0.0" fill="url(#shape_61_fill)"/>
    <path d="M 185.3848419189453 411.45281982421875 C 186.23995971679688 413.8905029296875 185.04896545410156 414.82061767578125 186.83053588867188 417.69927978515625 C 184.87954711914062 420.239013671875 183.37722778320312 419.4795837402344 182.54806518554688 419.8132629394531 C 180.83934020996094 421.6646423339844 174.47479248046875 420.1175231933594 171.84939575195312 419.9170837402344 C 169.6170196533203 417.5143737792969 169.79153442382812 415.62213134765625 174.923583984375 412.4220886230469 C 176.9111785888672 413.4361572265625 180.27731323242188 410.7418212890625 185.3848419189453 411.45281982421875" stroke-width="0.0" fill="url(#shape_62_fill)"/>
    <path d="M 331.71563720703125 418.94189453125 C 334.1833190917969 425.5611267089844 329.8363342285156 427.75933837890625 327.1970520019531 425.3829345703125 C 324.45001220703125 427.71795654296875 322.9415283203125 426.6671447753906 322.0063781738281 427.2537536621094 C 319.03961181640625 425.931640625 320.1291198730469 419.9377136230469 317.6818542480469 418.5359802246094 C 318.9530944824219 420.4039611816406 325.6353759765625 418.4793395996094 331.71563720703125 418.94189453125" stroke-width="0.0" fill="url(#shape_63_fill)"/>
    <path d="M 55.648624420166016 274.47052001953125 C 56.78024673461914 269.9332580566406 64.093017578125 271.30584716796875 62.90187454223633 278.7431945800781 C 59.945884704589844 278.2621154785156 54.0672492980957 272.3853454589844 48.76018142700195 276.4043884277344 C 51.57769775390625 274.000732421875 53.124568939208984 273.4654235839844 55.648624420166016 274.47052001953125" stroke-width="0.0" fill="url(#shape_64_fill)"/>
    <path d="M 304.7046813964844 440.347900390625 C 304.5631103515625 437.8066711425781 306.4100036621094 436.9174499511719 313.2351989746094 437.7385559082031 C 314.3455810546875 439.6292419433594 312.8135681152344 441.03570556640625 310.71221923828125 441.1233215332031 C 307.796142578125 445.1340026855469 306.426513671875 444.1754455566406 305.1075134277344 443.72869873046875 C 302.5985412597656 441.7151794433594 303.3814392089844 440.3696594238281 304.7046813964844 440.347900390625" stroke-width="0.0" fill="url(#shape_65_fill)"/>
    <path d="M -0.6069347262382507 -0.42179906368255615 C 224.66683959960938 -0.11582797020673752 444.0901794433594 0.31501075625419617 672.3624267578125 0.12780380249023438 C 673.39013671875 155.72303771972656 674.8032836914062 295.72967529296875 673.7770385742188 445.468994140625 C 450.0079345703125 446.3134765625 229.94119262695312 446.3238525390625 0.4620562493801117 445.5455627441406 C 0.1792706698179245 297.2748718261719 -0.23229719698429108 149.59178161621094 -0.6069347262382507 -0.42179906368255615" stroke-width="0.0" fill="url(#shape_66_fill)"/>
    <path d="M -1.1515604257583618 -0.2412191778421402 C 222.90740966796875 -0.14105406403541565 442.87139892578125 0.4090289771556854 672.284912109375 -0.26189419627189636 C 673.398681640625 156.92880249023438 674.8536987304688 295.4268798828125 673.407958984375 445.39337158203125 C 450.32464599609375 446.3713073730469 230.03131103515625 446.3536071777344 0.5098116397857666 445.4865417480469 C 0.025449736043810844 297.62628173828125 -0.3097166121006012 149.2301025390625 -1.1515604257583618 -0.2412191778421402" stroke-width="0.0" fill="url(#shape_67_fill)"/>
    <path d="M -0.7353490591049194 -0.28874459862709045 C 223.58482360839844 -0.1970909982919693 441.54376220703125 0.5419532060623169 672.5526123046875 -0.33915725350379944 C 673.5401000976562 155.8516082763672 674.8560791015625 295.1830749511719 673.3937377929688 445.3926086425781 C 450.3290710449219 446.37347412109375 230.11471557617188 446.34808349609375 1.1024565696716309 445.45208740234375 C 0.4712556004524231 295.75994873046875 0.05636938288807869 148.57650756835938 -0.7353490591049194 -0.28874459862709045" stroke-width="0.0" fill="url(#shape_68_fill)"/>
  </g>
</svg>
