<?xml version="1.0" ?>
<svg xmlns="http://www.w3.org/2000/svg" version="1.1" width="674" height="446">
  <defs>
    <radialGradient id="shape_0_fill" cx="0.5384151107833364" cy="0.7441081915201093" r="0.274846696712143">
      <stop offset="0.34517214" stop-color="rgb(148, 147, 0)" stop-opacity="1.0"/>
      <stop offset="1.0" stop-color="rgb(124, 47, 0)" stop-opacity="1.0"/>
    </radialGradient>
    <radialGradient id="shape_1_fill" cx="0.5382919990698025" cy="0.7481199529673487" r="0.2045417581892155">
      <stop offset="0.34567654" stop-color="rgb(141, 120, 0)" stop-opacity="0.7134993672370911"/>
      <stop offset="0.9881286" stop-color="rgb(0, 0, 0)" stop-opacity="1.0"/>
    </radialGradient>
    <radialGradient id="shape_2_fill" cx="0.09792284866468842" cy="0.7376681614349776" r="0.22062588021026522">
      <stop offset="1.3583439e-06" stop-color="rgb(30, 90, 182)" stop-opacity="1.0"/>
      <stop offset="1.0" stop-color="rgb(0, 123, 255)" stop-opacity="1.0"/>
    </radialGradient>
    <radialGradient id="shape_3_fill" cx="0.274523319051952" cy="0.215912446847411" r="0.12520082060590343">
      <stop offset="0.3845306" stop-color="rgb(161, 175, 0)" stop-opacity="0.721958577632904"/>
      <stop offset="0.91252387" stop-color="rgb(59, 16, 0)" stop-opacity="1.0"/>
    </radialGradient>
    <radialGradient id="shape_4_fill" cx="0.1543026706231454" cy="0.9977578475336323" r="0.10288926755639141">
      <stop offset="0.0" stop-color="rgb(81, 79, 86)" stop-opacity="1.0"/>
      <stop offset="1.0" stop-color="rgb(175, 167, 182)" stop-opacity="0.6277422904968262"/>
    </radialGradient>
    <radialGradient id="shape_5_fill" cx="0.14813626343135664" cy="0.23995862199586604" r="0.11815415787060113">
      <stop offset="0.0" stop-color="rgb(255, 254, 251)" stop-opacity="0.6844611763954163"/>
      <stop offset="0.63670915" stop-color="rgb(255, 255, 255)" stop-opacity="0.6245293617248535"/>
    </radialGradient>
    <radialGradient id="shape_6_fill" cx="0.18397626112759644" cy="0.9977578475336323" r="0.0754974885934892">
      <stop offset="0.0" stop-color="rgb(93, 90, 94)" stop-opacity="1.0"/>
      <stop offset="1.0" stop-color="rgb(200, 194, 204)" stop-opacity="0.920592188835144"/>
    </radialGradient>
    <radialGradient id="shape_7_fill" cx="0.2893175074183976" cy="0.05829596412556054" r="0.08666390552011372">
      <stop offset="0.0" stop-color="rgb(55, 66, 29)" stop-opacity="1.0"/>
      <stop offset="1.0" stop-color="rgb(18, 0, 0)" stop-opacity="1.0"/>
    </radialGradient>
    <radialGradient id="shape_8_fill" cx="0.3382789091115889" cy="0.9439461883408071" r="0.06756690277190167">
      <stop offset="0.0" stop-color="rgb(91, 124, 45)" stop-opacity="1.0"/>
      <stop offset="1.0" stop-color="rgb(187, 223, 0)" stop-opacity="0.826307475566864"/>
    </radialGradient>
    <radialGradient id="shape_9_fill" cx="0.30712166172106825" cy="0.9977578475336323" r="0.0730758406641929">
      <stop offset="0.0" stop-color="rgb(38, 48, 20)" stop-opacity="1.0"/>
      <stop offset="1.0" stop-color="rgb(0, 0, 0)" stop-opacity="1.0"/>
    </radialGradient>
    <radialGradient id="shape_10_fill" cx="0.3056379821958457" cy="0.9977578475336323" r="0.06792919147615971">
      <stop offset="0.0" stop-color="rgb(39, 49, 21)" stop-opacity="1.0"/>
      <stop offset="1.0" stop-color="rgb(0, 0, 0)" stop-opacity="1.0"/>
    </radialGradient>
    <radialGradient id="shape_11_fill" cx="0.21810089020771514" cy="0.968609865470852" r="0.06792919147615971">
      <stop offset="0.0" stop-color="rgb(138, 135, 129)" stop-opacity="1.0"/>
      <stop offset="1.0" stop-color="rgb(248, 245, 241)" stop-opacity="0.5723097324371338"/>
    </radialGradient>
    <radialGradient id="shape_12_fill" cx="0.29080118694362017" cy="0.9977578475336323" r="0.07480746985189285">
      <stop offset="0.0" stop-color="rgb(22, 25, 13)" stop-opacity="1.0"/>
      <stop offset="1.0" stop-color="rgb(0, 0, 0)" stop-opacity="1.0"/>
    </radialGradient>
    <radialGradient id="shape_13_fill" cx="0.327893175074184" cy="0.8923766816143498" r="0.06900465877544279">
      <stop offset="0.0" stop-color="rgb(89, 117, 50)" stop-opacity="1.0"/>
      <stop offset="1.0" stop-color="rgb(195, 225, 0)" stop-opacity="0.8176913261413574"/>
    </radialGradient>
    <radialGradient id="shape_14_fill" cx="0.142433234421365" cy="0.9977578475336323" r="0.06617211022079875">
      <stop offset="0.0" stop-color="rgb(155, 150, 153)" stop-opacity="1.0"/>
      <stop offset="1.0" stop-color="rgb(255, 255, 255)" stop-opacity="0.5875514149665833"/>
    </radialGradient>
    <radialGradient id="shape_15_fill" cx="0.31008902077151335" cy="0.9977578475336323" r="0.06683642786405207">
      <stop offset="0.0" stop-color="rgb(43, 55, 23)" stop-opacity="1.0"/>
      <stop offset="1.0" stop-color="rgb(0, 0, 0)" stop-opacity="0.728156328201294"/>
    </radialGradient>
    <radialGradient id="shape_16_fill" cx="0.27299703264094954" cy="0.9977578475336323" r="0.08110449363640579">
      <stop offset="0.0" stop-color="rgb(31, 35, 19)" stop-opacity="1.0"/>
      <stop offset="1.0" stop-color="rgb(0, 0, 0)" stop-opacity="1.0"/>
    </radialGradient>
    <radialGradient id="shape_17_fill" cx="0.2893175074183976" cy="0.9977578475336323" r="0.07513486030193747">
      <stop offset="0.0" stop-color="rgb(22, 23, 13)" stop-opacity="1.0"/>
      <stop offset="1.0" stop-color="rgb(0, 0, 0)" stop-opacity="0.6760072112083435"/>
    </radialGradient>
    <radialGradient id="shape_18_fill" cx="0.3293768545994065" cy="0.7556053811659192" r="0.06617211022079875">
      <stop offset="0.0" stop-color="rgb(83, 108, 65)" stop-opacity="1.0"/>
      <stop offset="1.0" stop-color="rgb(188, 215, 0)" stop-opacity="0.6239145994186401"/>
    </radialGradient>
    <radialGradient id="shape_19_fill" cx="0.3516320474777448" cy="0.9977578475336323" r="0.06617211022079875">
      <stop offset="0.0" stop-color="rgb(95, 135, 39)" stop-opacity="1.0"/>
      <stop offset="1.0" stop-color="rgb(201, 244, 0)" stop-opacity="1.0"/>
    </radialGradient>
    <radialGradient id="shape_20_fill" cx="0.0830860534124629" cy="0.9977578475336323" r="0.06792919147615971">
      <stop offset="0.0" stop-color="rgb(49, 52, 66)" stop-opacity="1.0"/>
      <stop offset="1.0" stop-color="rgb(14, 0, 17)" stop-opacity="1.0"/>
    </radialGradient>
    <radialGradient id="shape_21_fill" cx="0.29821958456973297" cy="0.9977578475336323" r="0.06792919147615971">
      <stop offset="0.0" stop-color="rgb(33, 40, 17)" stop-opacity="1.0"/>
      <stop offset="1.0" stop-color="rgb(0, 0, 0)" stop-opacity="1.0"/>
    </radialGradient>
    <radialGradient id="shape_22_fill" cx="0.35627828082981733" cy="0.4437962690276415" r="0.06602714606491678">
      <stop offset="0.0" stop-color="rgb(200, 228, 0)" stop-opacity="0.6697329878807068"/>
      <stop offset="0.63548875" stop-color="rgb(214, 242, 0)" stop-opacity="0.8048198819160461"/>
    </radialGradient>
    <radialGradient id="shape_23_fill" cx="0.6454005934718101" cy="0.1412556053811659" r="0.06617211022079875">
      <stop offset="0.0" stop-color="rgb(46, 38, 13)" stop-opacity="1.0"/>
      <stop offset="1.0" stop-color="rgb(0, 0, 0)" stop-opacity="1.0"/>
    </radialGradient>
    <radialGradient id="shape_24_fill" cx="0.24925816023738873" cy="0.484304932735426" r="0.06617211022079875">
      <stop offset="0.0" stop-color="rgb(201, 208, 206)" stop-opacity="1.0"/>
      <stop offset="1.0" stop-color="rgb(255, 255, 255)" stop-opacity="1.0"/>
    </radialGradient>
    <radialGradient id="shape_25_fill" cx="0.6320474777448071" cy="0.9977578475336323" r="0.06617211022079875">
      <stop offset="0.0" stop-color="rgb(35, 28, 8)" stop-opacity="1.0"/>
      <stop offset="1.0" stop-color="rgb(0, 0, 0)" stop-opacity="0.7994053959846497"/>
    </radialGradient>
    <radialGradient id="shape_26_fill" cx="0.15425924872786073" cy="0.32067142366828405" r="0.06614656193673787">
      <stop offset="0.0" stop-color="rgb(153, 161, 112)" stop-opacity="1.0"/>
      <stop offset="0.7582612" stop-color="rgb(184, 193, 151)" stop-opacity="0.619018018245697"/>
    </radialGradient>
    <radialGradient id="shape_27_fill" cx="0.1541900861157154" cy="0.320726197931264" r="0.06609577665696866">
      <stop offset="0.0" stop-color="rgb(166, 177, 0)" stop-opacity="1.0"/>
      <stop offset="0.6803012" stop-color="rgb(189, 199, 0)" stop-opacity="0.9697304964065552"/>
    </radialGradient>
    <radialGradient id="shape_28_fill" cx="0.041541640058115614" cy="0.022417669339030312" r="0.06616941616160225">
      <stop offset="0.01954922" stop-color="rgb(0, 0, 22)" stop-opacity="0.989886462688446"/>
      <stop offset="0.910192" stop-color="rgb(0, 0, 25)" stop-opacity="0.9281901717185974"/>
    </radialGradient>
    <radialGradient id="shape_29_fill" cx="0.33976258863681147" cy="0.6659192825112108" r="0.06617211022079875">
      <stop offset="0.0" stop-color="rgb(90, 117, 55)" stop-opacity="1.0"/>
      <stop offset="1.0" stop-color="rgb(195, 225, 0)" stop-opacity="0.774489164352417"/>
    </radialGradient>
    <radialGradient id="shape_30_fill" cx="0.041573643330650445" cy="0.02027376671008465" r="0.06611987603524318">
      <stop offset="0.049702186" stop-color="rgb(0, 3, 12)" stop-opacity="0.9472028613090515"/>
      <stop offset="0.91694427" stop-color="rgb(10, 22, 29)" stop-opacity="0.9690144062042236"/>
    </radialGradient>
    <radialGradient id="shape_31_fill" cx="0.12314540059347182" cy="0.9977578475336323" r="0.06617211022079875">
      <stop offset="0.0" stop-color="rgb(95, 103, 98)" stop-opacity="1.0"/>
      <stop offset="1.0" stop-color="rgb(200, 208, 204)" stop-opacity="0.5839207172393799"/>
    </radialGradient>
    <radialGradient id="shape_32_fill" cx="0.4035608308605341" cy="0.984304932735426" r="0.06617211022079875">
      <stop offset="0.0" stop-color="rgb(126, 155, 63)" stop-opacity="1.0"/>
      <stop offset="1.0" stop-color="rgb(225, 255, 0)" stop-opacity="0.8370398283004761"/>
    </radialGradient>
    <radialGradient id="shape_33_fill" cx="0.3249258160237389" cy="0.6053811659192825" r="0.06617211022079875">
      <stop offset="0.0" stop-color="rgb(93, 124, 71)" stop-opacity="1.0"/>
      <stop offset="1.0" stop-color="rgb(198, 230, 0)" stop-opacity="0.6698964834213257"/>
    </radialGradient>
    <radialGradient id="shape_34_fill" cx="0.6468842729970327" cy="0.531390134529148" r="0.06617211022079875">
      <stop offset="0.0" stop-color="rgb(54, 47, 24)" stop-opacity="1.0"/>
      <stop offset="1.0" stop-color="rgb(38, 0, 0)" stop-opacity="0.8348140716552734"/>
    </radialGradient>
    <radialGradient id="shape_35_fill" cx="0.14234464741602143" cy="0.23327934367774314" r="0.06614733166793688">
      <stop offset="0.0" stop-color="rgb(170, 180, 0)" stop-opacity="0.7894154191017151"/>
      <stop offset="0.7167169" stop-color="rgb(176, 189, 0)" stop-opacity="0.6058682203292847"/>
    </radialGradient>
    <radialGradient id="shape_36_fill" cx="0.2878338278931751" cy="0.9977578475336323" r="0.06617211022079875">
      <stop offset="0.0" stop-color="rgb(80, 96, 53)" stop-opacity="1.0"/>
      <stop offset="1.0" stop-color="rgb(179, 196, 0)" stop-opacity="0.9489557147026062"/>
    </radialGradient>
    <radialGradient id="shape_37_fill" cx="0.129080118694362" cy="0.9977578475336323" r="0.06617211022079875">
      <stop offset="0.0" stop-color="rgb(87, 97, 81)" stop-opacity="1.0"/>
      <stop offset="1.0" stop-color="rgb(191, 201, 181)" stop-opacity="0.6187316179275513"/>
    </radialGradient>
    <radialGradient id="shape_38_fill" cx="0.33838943345610395" cy="0.5606556708502662" r="0.06624799100157061">
      <stop offset="0.19731054" stop-color="rgb(171, 197, 0)" stop-opacity="1.0"/>
      <stop offset="0.8708696" stop-color="rgb(182, 212, 0)" stop-opacity="0.9329270124435425"/>
    </radialGradient>
    <radialGradient id="shape_39_fill" cx="0.40059347181008903" cy="0.9641255605381166" r="0.06617211022079875">
      <stop offset="0.0" stop-color="rgb(138, 168, 60)" stop-opacity="1.0"/>
      <stop offset="1.0" stop-color="rgb(245, 255, 0)" stop-opacity="1.0"/>
    </radialGradient>
    <radialGradient id="shape_40_fill" cx="0.6172233151399064" cy="0.8833997238911855" r="0.06616398842469168">
      <stop offset="0.0" stop-color="rgb(0, 0, 0)" stop-opacity="1.0"/>
      <stop offset="0.8547158" stop-color="rgb(0, 0, 0)" stop-opacity="1.0"/>
    </radialGradient>
    <radialGradient id="shape_41_fill" cx="0.6454005934718101" cy="0.08744394618834081" r="0.06617211022079875">
      <stop offset="0.0" stop-color="rgb(58, 48, 21)" stop-opacity="1.0"/>
      <stop offset="1.0" stop-color="rgb(12, 0, 0)" stop-opacity="0.7486093044281006"/>
    </radialGradient>
    <radialGradient id="shape_42_fill" cx="0.5845697329376854" cy="0.6188340807174888" r="0.06617211022079875">
      <stop offset="0.0" stop-color="rgb(62, 59, 56)" stop-opacity="1.0"/>
      <stop offset="1.0" stop-color="rgb(0, 0, 0)" stop-opacity="0.9506797194480896"/>
    </radialGradient>
    <radialGradient id="shape_43_fill" cx="0.3576645214409078" cy="0.5066396259940793" r="0.06613232756934463">
      <stop offset="0.0" stop-color="rgb(208, 250, 0)" stop-opacity="0.9586331248283386"/>
      <stop offset="0.71760297" stop-color="rgb(210, 251, 0)" stop-opacity="0.9763988852500916"/>
    </radialGradient>
    <radialGradient id="shape_44_fill" cx="0.5934718100890207" cy="0.9977578475336323" r="0.06617211022079875">
      <stop offset="0.0" stop-color="rgb(89, 61, 18)" stop-opacity="1.0"/>
      <stop offset="1.0" stop-color="rgb(192, 0, 0)" stop-opacity="1.0"/>
    </radialGradient>
    <radialGradient id="shape_45_fill" cx="0.612759643916914" cy="0.04035874439461883" r="0.06617211022079875">
      <stop offset="0.0" stop-color="rgb(157, 136, 123)" stop-opacity="1.0"/>
      <stop offset="1.0" stop-color="rgb(255, 240, 219)" stop-opacity="1.0"/>
    </radialGradient>
    <radialGradient id="shape_46_fill" cx="0.28635014836795253" cy="0.9977578475336323" r="0.06617211022079875">
      <stop offset="0.0" stop-color="rgb(82, 99, 55)" stop-opacity="1.0"/>
      <stop offset="1.0" stop-color="rgb(184, 202, 0)" stop-opacity="0.6542177796363831"/>
    </radialGradient>
    <radialGradient id="shape_47_fill" cx="0.28635014836795253" cy="0.8183856502242153" r="0.06617211022079875">
      <stop offset="0.0" stop-color="rgb(166, 189, 197)" stop-opacity="1.0"/>
      <stop offset="1.0" stop-color="rgb(255, 255, 255)" stop-opacity="0.644523024559021"/>
    </radialGradient>
    <radialGradient id="shape_48_fill" cx="0.40801186943620177" cy="0.9977578475336323" r="0.06617211022079875">
      <stop offset="0.0" stop-color="rgb(107, 135, 68)" stop-opacity="1.0"/>
      <stop offset="1.0" stop-color="rgb(211, 241, 0)" stop-opacity="0.6209495067596436"/>
    </radialGradient>
    <radialGradient id="shape_49_fill" cx="0.19287833827893175" cy="0.3991031390134529" r="0.06617211022079875">
      <stop offset="0.0" stop-color="rgb(92, 100, 54)" stop-opacity="1.0"/>
      <stop offset="1.0" stop-color="rgb(196, 204, 0)" stop-opacity="0.5960291624069214"/>
    </radialGradient>
    <radialGradient id="shape_50_fill" cx="0.6439169139465876" cy="0.7376681614349776" r="0.06617211022079875">
      <stop offset="0.0" stop-color="rgb(65, 56, 25)" stop-opacity="1.0"/>
      <stop offset="1.0" stop-color="rgb(105, 54, 119)" stop-opacity="1.0"/>
    </radialGradient>
    <radialGradient id="shape_51_fill" cx="0.5845697329376854" cy="0.6322869955156951" r="0.06617211022079875">
      <stop offset="0.0" stop-color="rgb(75, 68, 60)" stop-opacity="1.0"/>
      <stop offset="1.0" stop-color="rgb(168, 0, 0)" stop-opacity="1.0"/>
    </radialGradient>
    <radialGradient id="shape_52_fill" cx="0.2997032640949555" cy="0.6031390134529148" r="0.06617211022079875">
      <stop offset="0.0" stop-color="rgb(107, 158, 118)" stop-opacity="1.0"/>
      <stop offset="1.0" stop-color="rgb(211, 255, 224)" stop-opacity="1.0"/>
    </radialGradient>
    <radialGradient id="shape_53_fill" cx="0.6097922848664689" cy="0.45067264573991034" r="0.06617211022079875">
      <stop offset="0.0" stop-color="rgb(38, 39, 27)" stop-opacity="1.0"/>
      <stop offset="1.0" stop-color="rgb(0, 0, 0)" stop-opacity="0.786151111125946"/>
    </radialGradient>
    <radialGradient id="shape_54_fill" cx="0.6335311572700296" cy="0.426009002822397" r="0.06617211022079875">
      <stop offset="0.0" stop-color="rgb(67, 49, 20)" stop-opacity="1.0"/>
      <stop offset="1.0" stop-color="rgb(142, 0, 0)" stop-opacity="1.0"/>
    </radialGradient>
    <radialGradient id="shape_55_fill" cx="0.37083174708335265" cy="0.598718617529078" r="0.06613023910748853">
      <stop offset="0.0" stop-color="rgb(236, 255, 0)" stop-opacity="0.7583333849906921"/>
      <stop offset="0.70882106" stop-color="rgb(238, 255, 0)" stop-opacity="0.780913770198822"/>
    </radialGradient>
    <radialGradient id="shape_56_fill" cx="0.5489614243323442" cy="0.600896860986547" r="0.06617211022079875">
      <stop offset="0.0" stop-color="rgb(50, 62, 80)" stop-opacity="1.0"/>
      <stop offset="1.0" stop-color="rgb(0, 0, 158)" stop-opacity="1.0"/>
    </radialGradient>
    <radialGradient id="shape_57_fill" cx="0.4094955489614243" cy="0.9035874439461884" r="0.06617211022079875">
      <stop offset="0.0" stop-color="rgb(111, 144, 47)" stop-opacity="1.0"/>
      <stop offset="1.0" stop-color="rgb(216, 250, 0)" stop-opacity="0.8130038380622864"/>
    </radialGradient>
    <radialGradient id="shape_58_fill" cx="0.5281899109792285" cy="0.9977578475336323" r="0.06617211022079875">
      <stop offset="0.0" stop-color="rgb(50, 43, 14)" stop-opacity="1.0"/>
      <stop offset="1.0" stop-color="rgb(0, 0, 0)" stop-opacity="0.7661588191986084"/>
    </radialGradient>
    <radialGradient id="shape_59_fill" cx="0.5845697329376854" cy="0.7690582959641256" r="0.06617211022079875">
      <stop offset="0.0" stop-color="rgb(61, 63, 58)" stop-opacity="1.0"/>
      <stop offset="1.0" stop-color="rgb(98, 0, 54)" stop-opacity="1.0"/>
    </radialGradient>
    <radialGradient id="shape_60_fill" cx="0.5489614243323442" cy="0.9977578475336323" r="0.06617211022079875">
      <stop offset="0.0" stop-color="rgb(140, 131, 64)" stop-opacity="1.0"/>
      <stop offset="1.0" stop-color="rgb(245, 235, 0)" stop-opacity="1.0"/>
    </radialGradient>
    <radialGradient id="shape_61_fill" cx="0.6468858124594307" cy="0.9686062389425099" r="0.0661717140356228">
      <stop offset="0.0" stop-color="rgb(193, 60, 0)" stop-opacity="1.0"/>
      <stop offset="0.9801671" stop-color="rgb(194, 60, 0)" stop-opacity="1.0"/>
    </radialGradient>
    <radialGradient id="shape_62_fill" cx="0.615727002967359" cy="0.3991031390134529" r="0.06617211022079875">
      <stop offset="0.0" stop-color="rgb(55, 47, 13)" stop-opacity="1.0"/>
      <stop offset="1.0" stop-color="rgb(0, 0, 0)" stop-opacity="0.7709099650382996"/>
    </radialGradient>
    <radialGradient id="shape_63_fill" cx="0.6261127596439169" cy="0.7286995515695067" r="0.06617211022079875">
      <stop offset="0.0" stop-color="rgb(79, 66, 32)" stop-opacity="1.0"/>
      <stop offset="1.0" stop-color="rgb(169, 133, 115)" stop-opacity="1.0"/>
    </radialGradient>
    <radialGradient id="shape_64_fill" cx="0.40801186943620177" cy="0.12556053811659193" r="0.06617211022079875">
      <stop offset="0.0" stop-color="rgb(76, 66, 59)" stop-opacity="1.0"/>
      <stop offset="1.0" stop-color="rgb(161, 0, 0)" stop-opacity="1.0"/>
    </radialGradient>
    <radialGradient id="shape_65_fill" cx="0.6528189910979229" cy="0.6883408071748879" r="0.06617211022079875">
      <stop offset="0.0" stop-color="rgb(121, 97, 39)" stop-opacity="1.0"/>
      <stop offset="1.0" stop-color="rgb(222, 193, 118)" stop-opacity="1.0"/>
    </radialGradient>
    <radialGradient id="shape_66_fill" cx="0.6489227928818156" cy="0.46167584064295475" r="0.06677184968037138">
      <stop offset="0.4244666" stop-color="rgb(171, 188, 0)" stop-opacity="0.5269081592559814"/>
      <stop offset="1.0" stop-color="rgb(92, 103, 50)" stop-opacity="0.4989559054374695"/>
    </radialGradient>
    <radialGradient id="shape_67_fill" cx="0.5938563587403792" cy="0.9966479245857273" r="0.06690270964398935">
      <stop offset="0.51235056" stop-color="rgb(19, 0, 0)" stop-opacity="1.0"/>
      <stop offset="1.0" stop-color="rgb(31, 48, 29)" stop-opacity="0.5596604943275452"/>
    </radialGradient>
    <radialGradient id="shape_68_fill" cx="0.4874391640682956" cy="0.996826171875" r="0.06691975692613189">
      <stop offset="0.37322286" stop-color="rgb(76, 49, 9)" stop-opacity="0.7485535740852356"/>
      <stop offset="1.0" stop-color="rgb(63, 85, 84)" stop-opacity="0.7426910996437073"/>
    </radialGradient>
  </defs>
  <g>
    <path d="M -0.23934997618198395 272.1268005371094 C 24.2238826751709 271.764892578125 32.591068267822266 273.23150634765625 41.52568054199219 274.9955749511719 C 48.04075622558594 276.0422058105469 49.36073684692383 276.6907043457031 57.14952087402344 274.5442199707031 C 60.426170349121094 273.9402160644531 63.723960876464844 274.63177490234375 65.99676513671875 276.4144287109375 C 76.91895294189453 276.2989196777344 105.43343353271484 275.8433532714844 109.59227752685547 276.57696533203125 C 114.95787048339844 276.52178955078125 125.38539123535156 278.0697326660156 127.89825439453125 280.7349548339844 C 134.42112731933594 281.766357421875 140.90939331054688 281.0281066894531 149.17481994628906 281.733642578125 C 185.26470947265625 281.7643127441406 185.749755859375 282.56805419921875 201.901611328125 283.9535827636719 C 201.9434814453125 290.771240234375 199.33584594726562 284.12359619140625 220.45570373535156 280.6795959472656 C 235.0016632080078 282.41497802734375 277.7975769042969 281.7287292480469 302.1490173339844 286.4469909667969 C 336.4302673339844 287.5796203613281 417.9081115722656 287.2828369140625 458.2059326171875 285.78973388671875 C 481.52386474609375 285.2877502441406 530.906494140625 286.406494140625 540.48046875 287.0881652832031 C 549.4093017578125 287.1236267089844 550.8858642578125 283.8877258300781 560.2875366210938 283.88311767578125 C 568.3673706054688 286.97796630859375 608.8109741210938 286.7376403808594 617.0601806640625 287.330078125 C 641.3500366210938 285.4170837402344 651.1456298828125 286.02239990234375 656.7699584960938 285.9783630371094 C 661.6500244140625 286.98681640625 670.8150634765625 288.5132141113281 673.7123413085938 290.0949401855469 C 674.1404418945312 340.81317138671875 673.8060302734375 392.6224670410156 673.9515380859375 445.2814025878906 C 451.4402770996094 445.41021728515625 229.1654052734375 445.4017639160156 0.31922876834869385 445.3239440917969 C -0.31041833758354187 389.0978698730469 0.2989780902862549 332.3515930175781 -0.23934997618198395 272.1268005371094" stroke-width="0.0" fill="url(#shape_0_fill)"/>
    <path d="M -0.07732132822275162 274.865966796875 C 35.93568801879883 275.4004211425781 36.55454635620117 274.5970458984375 44.415462493896484 276.9233703613281 C 56.614845275878906 278.1947937011719 67.82316589355469 276.8560791015625 76.75099182128906 278.12628173828125 C 113.3774185180664 278.68780517578125 113.9776611328125 279.3107604980469 125.97989654541016 280.53961181640625 C 130.20773315429688 280.9937438964844 154.3950653076172 280.8689270019531 157.14476013183594 281.1715393066406 C 185.02444458007812 280.8691711425781 185.54847717285156 282.0584716796875 196.11685180664062 284.5005798339844 C 200.9654083251953 288.5060119628906 202.28611755371094 287.5335693359375 217.32102966308594 285.5427551269531 C 228.57382202148438 284.41845703125 281.0862121582031 285.95965576171875 302.10382080078125 286.8646545410156 C 328.6347351074219 288.6654357910156 441.8564453125 286.4341125488281 447.0133972167969 286.7780456542969 C 467.1924743652344 286.2152404785156 483.3970642089844 286.50396728515625 502.08843994140625 285.30010986328125 C 508.51422119140625 286.6662902832031 516.315673828125 285.74041748046875 522.8130493164062 286.382080078125 C 527.53369140625 285.67596435546875 531.8848876953125 285.8705749511719 535.1541748046875 286.9815368652344 C 544.0836181640625 286.5655212402344 551.7953491210938 287.6360778808594 560.24462890625 286.9795837402344 C 569.56103515625 286.5809326171875 579.7341918945312 286.7884826660156 588.4512939453125 287.8935852050781 C 604.0109252929688 288.36480712890625 618.3071899414062 287.7392578125 633.6322631835938 288.3099060058594 C 646.9872436523438 286.7381896972656 660.3709716796875 287.5747985839844 674.3247680664062 288.47845458984375 C 673.8129272460938 340.8739929199219 674.4059448242188 392.3058776855469 674.14208984375 446.27813720703125 C 451.4774169921875 446.3867492675781 229.1967315673828 446.2508239746094 -0.30428019165992737 446.24407958984375 C -0.21020808815956116 389.4046936035156 -0.289711058139801 333.0310974121094 -0.07732132822275162 274.865966796875" stroke-width="0.0" fill="url(#shape_1_fill)"/>
    <path d="M 0.023326916620135307 -0.2573672831058502 C 219.69473266601562 0.09498724341392517 439.4720153808594 -0.42602357268333435 667.9315795898438 -0.47128215432167053 C 660.1720581054688 5.711218357086182 643.9996337890625 34.7174072265625 636.8443603515625 46.61689376831055 C 634.7550048828125 52.27362823486328 609.556884765625 91.69158935546875 582.8167114257812 82.35072326660156 C 576.9711303710938 81.84622955322266 559.5053100585938 68.73060607910156 529.3876342773438 70.04331970214844 C 528.2720336914062 70.74604034423828 525.494873046875 73.25455474853516 523.2521362304688 71.0628662109375 C 522.9246215820312 67.94233703613281 502.7680969238281 60.709712982177734 501.5335693359375 61.61695098876953 C 491.9300231933594 61.81031036376953 484.7094421386719 60.47205352783203 477.95550537109375 66.5653076171875 C 474.1930847167969 68.85843658447266 474.7134704589844 73.18798828125 473.21337890625 75.91549682617188 C 473.42333984375 86.9405517578125 463.5536804199219 103.08830261230469 459.3908996582031 107.74783325195312 C 455.8581848144531 109.6518783569336 453.23065185546875 108.09198760986328 450.18475341796875 107.64989471435547 C 439.6133117675781 103.86912536621094 411.7229919433594 101.2559585571289 409.5987548828125 104.45842742919922 C 402.48175048828125 112.42286682128906 402.4320983886719 116.93103790283203 399.06085205078125 123.16539764404297 C 397.3817138671875 131.68106079101562 390.4552917480469 134.91009521484375 387.61053466796875 136.03970336914062 C 379.0849609375 140.00794982910156 378.09234619140625 159.52183532714844 377.1016845703125 163.33078002929688 C 376.5919494628906 169.20419311523438 375.4064025878906 173.33860778808594 371.9555358886719 177.95947265625 C 369.8302001953125 180.2999725341797 366.552734375 179.40719604492188 353.87677001953125 183.79550170898438 C 347.0624694824219 191.3281707763672 336.0005187988281 182.5417022705078 321.8642272949219 181.25515747070312 C 314.8262023925781 181.74635314941406 314.2276306152344 188.1246795654297 312.5455627441406 190.7025146484375 C 311.65509033203125 195.29197692871094 309.7102355957031 197.50930786132812 307.7928161621094 201.47933959960938 C 307.1924743652344 201.25787353515625 303.5185852050781 199.7938232421875 302.4498291015625 196.96961975097656 C 299.4920959472656 193.03778076171875 296.013671875 194.412353515625 293.0054931640625 192.21087646484375 C 292.29052734375 194.1330108642578 290.53460693359375 197.34349060058594 289.0838623046875 197.00424194335938 C 280.87762451171875 196.7301788330078 279.2530212402344 191.89540100097656 278.78875732421875 191.41746520996094 C 275.2344665527344 190.22109985351562 272.5537414550781 191.53323364257812 269.09033203125 190.66659545898438 C 262.6299133300781 189.73789978027344 261.4566650390625 196.05484008789062 260.5686950683594 197.75428771972656 C 260.9588623046875 199.23855590820312 260.9360046386719 200.9462127685547 257.3796081542969 201.03639221191406 C 256.2804260253906 201.17294311523438 250.8376007080078 201.11756896972656 250.86880493164062 200.21517944335938 C 246.17005920410156 195.20510864257812 246.984375 193.42111206054688 243.5792236328125 181.67701721191406 C 247.6987762451172 175.55577087402344 214.48800659179688 143.47767639160156 212.83230590820312 141.26611328125 C 186.43875122070312 119.57666778564453 197.5714874267578 97.60617065429688 192.9783477783203 88.61146545410156 C 194.18959045410156 83.90692138671875 156.5115966796875 72.69746398925781 145.97975158691406 64.94894409179688 C 123.40695190429688 41.39276123046875 62.479679107666016 52.108665466308594 37.60170364379883 61.232017517089844 C 17.127120971679688 71.02297973632812 13.65043830871582 66.9568099975586 -0.2696773409843445 67.76298522949219 C 0.35362908244132996 44.033729553222656 -0.32695308327674866 22.587207794189453 0.023326916620135307 -0.2573672831058502" stroke-width="0.0" fill="url(#shape_2_fill)"/>
    <path d="M 86.33109283447266 68.4284439086914 C 88.26223754882812 69.68341064453125 92.35582733154297 68.53950500488281 93.67972564697266 68.93792724609375 C 92.05425262451172 74.58467864990234 93.5124740600586 81.37702941894531 93.53253173828125 83.614990234375 C 96.663330078125 82.55168151855469 98.58518981933594 84.32884216308594 102.88695526123047 83.26056671142578 C 104.48930358886719 79.09589385986328 107.00137329101562 78.0579833984375 109.1639175415039 79.47235870361328 C 113.003173828125 86.40287780761719 114.41692352294922 92.4186019897461 115.72601318359375 99.57953643798828 C 116.7900619506836 100.0593490600586 117.2635498046875 108.29792785644531 117.39543914794922 113.0168228149414 C 121.77945709228516 111.50530242919922 126.73418426513672 112.1898193359375 127.62809753417969 109.14801788330078 C 127.94947814941406 106.1972427368164 135.93357849121094 104.98673248291016 136.36404418945312 104.47417449951172 C 136.59036254882812 103.6902847290039 135.5326385498047 101.7979965209961 136.9868621826172 97.97821807861328 C 136.4511260986328 93.24853515625 137.45912170410156 92.87609100341797 137.0825958251953 88.89202880859375 C 137.28968811035156 85.00713348388672 138.6458282470703 84.54106903076172 139.00709533691406 85.56002807617188 C 139.13232421875 81.9817123413086 146.62255859375 81.1493148803711 147.8627471923828 83.76509094238281 C 146.45555114746094 86.81529998779297 150.747314453125 95.71581268310547 151.79537963867188 99.27635955810547 C 153.76864624023438 102.9450454711914 149.71372985839844 106.96937561035156 149.002685546875 106.46762084960938 C 152.88592529296875 109.93376922607422 150.73765563964844 114.29016876220703 148.73728942871094 113.4195785522461 C 155.19972229003906 112.5992431640625 158.41392517089844 122.49629211425781 158.29310607910156 123.00552368164062 C 162.0692138671875 124.6296615600586 164.79605102539062 123.31422424316406 170.1256561279297 123.15894317626953 C 175.2916259765625 119.31784057617188 174.98785400390625 121.62618255615234 177.69924926757812 122.43375396728516 C 179.4315948486328 122.51297760009766 179.72634887695312 125.59758758544922 182.5494384765625 127.86219787597656 C 183.8779296875 130.23170471191406 182.36976623535156 133.1736297607422 183.2183380126953 135.73565673828125 C 186.458984375 135.77903747558594 188.81515502929688 142.08328247070312 189.552734375 144.40167236328125 C 192.37501525878906 146.18186950683594 204.67929077148438 158.27706909179688 203.990478515625 171.8421173095703 C 205.75582885742188 173.5968780517578 205.17518615722656 177.54295349121094 207.1253204345703 181.0446319580078 C 208.84738159179688 181.89828491210938 212.85366821289062 201.2029266357422 211.06365966796875 203.58139038085938 C 211.03208923339844 208.15870666503906 203.53594970703125 208.24989318847656 203.1566619873047 210.2722930908203 C 200.80345153808594 210.55258178710938 199.93235778808594 211.67886352539062 200.26773071289062 213.62710571289062 C 197.0267333984375 216.39794921875 194.55140686035156 216.4204864501953 191.661865234375 219.132080078125 C 184.2977752685547 221.13034057617188 183.59637451171875 224.79505920410156 179.07022094726562 230.53416442871094 C 176.16001892089844 233.62271118164062 179.0699005126953 240.0891571044922 178.3115234375 242.23301696777344 C 177.11228942871094 248.45301818847656 181.55584716796875 256.1718444824219 175.66696166992188 262.50018310546875 C 172.04031372070312 265.7493896484375 146.7041778564453 265.9977111816406 140.24392700195312 267.1997985839844 C 129.15524291992188 265.6054992675781 122.88452911376953 267.6624755859375 113.58915710449219 268.7370300292969 C 105.26590728759766 272.8885192871094 76.4204330444336 271.7746276855469 73.581787109375 269.71710205078125 C 47.57768249511719 266.71478271484375 56.68650817871094 268.5390930175781 53.5176887512207 271.0898132324219 C 43.3686408996582 273.7271423339844 0.9458474516868591 271.6191101074219 -0.34427061676979065 269.6391296386719 C -0.3458636701107025 217.1663055419922 0.1806582808494568 166.44854736328125 -1.3454759120941162 115.8031005859375 C 9.789270401000977 117.16248321533203 16.316898345947266 117.98867797851562 25.300907135009766 124.1581802368164 C 31.1195068359375 126.43215942382812 37.10967254638672 127.5609130859375 41.80267333984375 130.54078674316406 C 45.729732513427734 132.2726287841797 47.27920913696289 135.2989044189453 50.13791275024414 137.8053741455078 C 50.903011322021484 142.1444549560547 61.9273567199707 143.6009521484375 62.460365295410156 141.63246154785156 C 62.02277374267578 136.6614990234375 63.00670623779297 133.79954528808594 62.75796127319336 126.15139770507812 C 65.32731628417969 122.16795349121094 64.60440063476562 119.02386474609375 64.11913299560547 112.3484115600586 C 67.35682678222656 110.8853988647461 67.6292724609375 104.4213638305664 73.38385772705078 104.0768051147461 C 72.94868469238281 101.18317413330078 74.32398223876953 89.42588806152344 74.4959716796875 85.18328094482422 C 78.04962158203125 84.17311096191406 79.17960357666016 73.0091323852539 85.445556640625 73.57518005371094 C 83.05342864990234 70.21920776367188 84.95490264892578 67.51026916503906 86.33109283447266 68.4284439086914" stroke-width="0.0" fill="url(#shape_3_fill)"/>
    <path d="M 672.9940795898438 0.683480978012085 C 674.282958984375 49.16836929321289 674.036376953125 96.31988525390625 674.8152465820312 144.47174072265625 C 667.0277709960938 137.99029541015625 663.5324096679688 130.32357788085938 661.3947143554688 120.55603790283203 C 660.9103393554688 119.92427062988281 654.6806030273438 108.15153503417969 650.0645141601562 111.3469009399414 C 648.3963012695312 112.47736358642578 643.4317626953125 146.42921447753906 640.4379272460938 152.61819458007812 C 633.0266723632812 153.96168518066406 627.5866088867188 140.84710693359375 627.8856811523438 138.1120147705078 C 622.144287109375 136.99502563476562 617.9327392578125 146.17356872558594 614.4236450195312 144.63133239746094 C 611.2588500976562 141.88787841796875 610.6424560546875 144.13209533691406 608.181396484375 140.6499786376953 C 607.6015625 137.41180419921875 608.2951049804688 133.5346221923828 601.9088745117188 129.2059326171875 C 598.1156005859375 133.7020721435547 597.6235961914062 139.4842987060547 595.193115234375 144.57081604003906 C 595.2974243164062 149.05735778808594 593.2737426757812 150.79173278808594 593.3560180664062 153.865966796875 C 592.298583984375 160.24298095703125 590.4974365234375 167.53456115722656 581.831298828125 169.98960876464844 C 571.4453735351562 170.08038330078125 569.65869140625 160.6046600341797 568.970947265625 157.47900390625 C 566.3934326171875 157.09805297851562 564.3195190429688 153.34902954101562 561.371826171875 153.9052276611328 C 560.014404296875 150.78817749023438 554.7367553710938 150.24908447265625 554.3169555664062 152.9713897705078 C 551.475341796875 155.6394500732422 550.8563842773438 159.22760009765625 548.3638916015625 161.6270294189453 C 545.7869262695312 159.30224609375 541.1371459960938 161.9937286376953 535.8457641601562 154.5533905029297 C 531.661865234375 154.6118927001953 529.8888549804688 157.72567749023438 524.2315063476562 157.79263305664062 C 517.9921875 161.27162170410156 520.8612670898438 161.31736755371094 522.531005859375 169.77566528320312 C 517.469482421875 170.06655883789062 515.90673828125 164.51931762695312 516.619384765625 171.9595947265625 C 509.64068603515625 173.4306640625 512.5455932617188 175.02560424804688 505.7054443359375 174.3078155517578 C 503.11309814453125 171.20628356933594 502.93701171875 169.65530395507812 504.26885986328125 167.66012573242188 C 501.0178527832031 152.70802307128906 514.9691772460938 128.615234375 524.2056274414062 131.0708465576172 C 524.5281982421875 125.248046875 538.9551391601562 114.24678802490234 548.3229370117188 112.65997314453125 C 558.4159545898438 110.32160186767578 555.980712890625 109.77569580078125 557.0084838867188 106.26756286621094 C 562.4283447265625 105.94535827636719 566.625244140625 104.67569732666016 571.8433837890625 105.330810546875 C 574.749755859375 102.83150482177734 573.4368896484375 97.54080963134766 578.9735107421875 94.16458892822266 C 581.7385864257812 89.32576751708984 601.8378295898438 79.15044403076172 612.7432250976562 78.08828735351562 C 615.4034423828125 72.17524719238281 641.4107055664062 48.974483489990234 643.99560546875 35.255348205566406 C 644.9505004882812 32.424041748046875 647.9840698242188 30.37159538269043 647.593505859375 29.493677139282227 C 646.74658203125 28.24397850036621 663.4462280273438 -3.5425615310668945 672.9940795898438 0.683480978012085" stroke-width="0.0" fill="url(#shape_4_fill)"/>
    <path d="M 151.66171264648438 68.62322998046875 C 152.28958129882812 68.88372039794922 187.7536163330078 82.58219909667969 193.4357452392578 90.05516815185547 C 179.69883728027344 116.68948364257812 215.82986450195312 153.26593017578125 220.79551696777344 154.73336791992188 C 239.22019958496094 169.54617309570312 243.0147247314453 184.55841064453125 241.2735137939453 194.074951171875 C 237.7177734375 193.98672485351562 236.7769775390625 185.77944946289062 236.6564178466797 184.1734619140625 C 235.57168579101562 183.25958251953125 234.2468719482422 184.38246154785156 231.3312225341797 182.5021209716797 C 231.94126892089844 183.28207397460938 230.61077880859375 192.48036193847656 227.70631408691406 195.86001586914062 C 227.3406219482422 195.86753845214844 226.7690887451172 205.52110290527344 221.32371520996094 207.74916076660156 C 215.02142333984375 206.62237548828125 214.26373291015625 198.04771423339844 214.63722229003906 194.87110900878906 C 212.95223999023438 185.3999481201172 211.90692138671875 184.97386169433594 206.38815307617188 177.56837463378906 C 203.8610076904297 171.80874633789062 205.13064575195312 165.54296875 205.33929443359375 159.83445739746094 C 206.02101135253906 153.94654846191406 195.9910125732422 143.56336975097656 192.75669860839844 141.59364318847656 C 188.86264038085938 140.53167724609375 188.96282958984375 138.03689575195312 187.8314666748047 133.85662841796875 C 182.74386596679688 130.69244384765625 183.90245056152344 123.14739227294922 183.6696319580078 117.99626159667969 C 178.89404296875 116.09796142578125 177.9282684326172 117.89292907714844 173.7202911376953 117.8909683227539 C 174.17552185058594 124.91050720214844 169.9374237060547 128.38739013671875 156.73912048339844 125.08057403564453 C 154.70248413085938 122.0062026977539 151.85366821289062 102.23576354980469 153.42291259765625 96.5937271118164 C 152.89002990722656 88.58934783935547 153.7355499267578 82.95437622070312 150.145751953125 76.32339477539062 C 148.4993438720703 75.92880249023438 149.07235717773438 69.30538940429688 151.66171264648438 68.62322998046875" stroke-width="0.0" fill="url(#shape_5_fill)"/>
    <path d="M 613.1849975585938 83.29592895507812 C 618.5811767578125 84.19522094726562 619.6271362304688 85.85018920898438 630.7658081054688 85.97917938232422 C 636.8651123046875 85.93936157226562 638.2597045898438 87.56755828857422 641.26123046875 87.78607940673828 C 642.1468505859375 87.50660705566406 669.169677734375 91.84811401367188 673.5880737304688 97.6432113647461 C 673.7977294921875 112.55706024169922 673.4295043945312 128.7063751220703 673.719970703125 143.9433135986328 C 669.1285400390625 138.9938507080078 665.3048706054688 134.00540161132812 662.9354858398438 126.80664825439453 C 660.544189453125 121.28559112548828 660.78759765625 115.49134063720703 653.5812377929688 111.71492004394531 C 647.7393798828125 116.60785675048828 645.040283203125 142.38314819335938 642.0612182617188 143.25149536132812 C 643.40283203125 145.8190155029297 641.7281494140625 148.7218475341797 640.4014282226562 148.7525177001953 C 639.6785278320312 150.88699340820312 638.0940551757812 151.91879272460938 633.6932983398438 149.80804443359375 C 631.2744140625 146.69593811035156 628.8641357421875 141.54440307617188 629.6572265625 140.98928833007812 C 628.925048828125 138.07992553710938 623.820068359375 137.0851287841797 620.8377075195312 138.59901428222656 C 618.2279663085938 140.56271362304688 619.247802734375 142.34521484375 618.7662353515625 144.1001434326172 C 614.5211791992188 144.47438049316406 614.15673828125 143.12461853027344 610.264892578125 143.73399353027344 C 608.5629272460938 140.39810180664062 609.594970703125 139.2532196044922 609.251220703125 137.4943084716797 C 606.8060302734375 131.97586059570312 604.5780639648438 126.13751220703125 597.589111328125 128.37332153320312 C 599.06591796875 135.47206115722656 593.4051513671875 148.86965942382812 592.2006225585938 157.74378967285156 C 590.7657470703125 163.94265747070312 589.4940185546875 164.20924377441406 585.4537353515625 167.95880126953125 C 581.943115234375 170.02737426757812 578.5182495117188 169.47935485839844 574.8358764648438 168.57032775878906 C 571.9091796875 166.425537109375 571.0225219726562 162.01068115234375 569.7909545898438 158.1759796142578 C 568.78076171875 154.0078887939453 558.0098266601562 152.0343017578125 556.3056030273438 151.20547485351562 C 555.8076171875 152.860107421875 553.074951171875 154.7054901123047 552.871826171875 157.73828125 C 550.1307983398438 161.13290405273438 547.7169189453125 160.90675354003906 546.9332885742188 161.01365661621094 C 541.3989868164062 160.18734741210938 539.1215209960938 157.01004028320312 536.1305541992188 156.99037170410156 C 534.8214721679688 158.1027069091797 531.3114013671875 156.15585327148438 528.773681640625 157.8564910888672 C 525.735107421875 158.95831298828125 526.3450927734375 161.79319763183594 524.4736938476562 164.50682067871094 C 523.743408203125 168.66783142089844 521.1185913085938 170.82801818847656 518.6980590820312 172.79566955566406 C 510.8866271972656 177.4513702392578 503.6830749511719 173.00367736816406 503.1624450683594 171.7866668701172 C 498.63861083984375 151.5336151123047 514.2833862304688 130.49041748046875 522.2315673828125 127.62749481201172 C 527.3612670898438 122.57051086425781 541.2042236328125 113.84957885742188 551.9278564453125 112.06771087646484 C 555.3610229492188 109.85420227050781 559.9656372070312 109.70193481445312 563.7176513671875 106.6546630859375 C 564.6419067382812 104.54869079589844 566.8636474609375 103.60779571533203 569.6688232421875 103.85554504394531 C 574.9118041992188 101.468017578125 578.245849609375 96.99825286865234 583.1268310546875 93.82907104492188 C 592.0010986328125 85.27684020996094 600.3282470703125 78.93736267089844 613.1849975585938 83.29592895507812" stroke-width="0.0" fill="url(#shape_6_fill)"/>
    <path d="M 4.083223342895508 116.2784423828125 C 26.55487632751465 123.87168884277344 36.95574188232422 128.8550567626953 48.28718185424805 138.53038024902344 C 68.79949951171875 160.19935607910156 51.720733642578125 225.1316680908203 56.163002014160156 246.74449157714844 C 53.19902038574219 260.3089599609375 48.71887969970703 264.6878662109375 48.57549285888672 266.4219665527344 C 39.18674850463867 274.4132995605469 3.476916790008545 270.6707458496094 0.4253014624118805 269.4005432128906 C 0.5207856893539429 218.68887329101562 0.6911613345146179 167.77516174316406 4.083223342895508 116.2784423828125" stroke-width="0.0" fill="url(#shape_7_fill)"/>
    <path d="M 394.8528137207031 179.27149963378906 C 409.87744140625 174.0539093017578 426.4146728515625 192.14468383789062 432.1905822753906 211.67173767089844 C 465.4726867675781 200.37623596191406 488.1935729980469 214.49282836914062 491.3248291015625 237.20050048828125 C 491.0158996582031 250.6967315673828 486.2463684082031 251.28599548339844 484.8651428222656 252.3562774658203 C 485.31634521484375 254.51312255859375 479.0793762207031 265.03521728515625 474.8321533203125 268.48687744140625 C 469.0391540527344 272.93499755859375 453.21746826171875 266.70806884765625 451.8329162597656 268.92022705078125 C 446.119384765625 266.2503356933594 448.7446594238281 262.0204162597656 448.83612060546875 260.2906494140625 C 439.64434814453125 264.34552001953125 436.09619140625 261.18841552734375 437.8221435546875 257.2484130859375 C 428.3583068847656 257.1322326660156 426.65771484375 259.5712585449219 421.229248046875 262.24603271484375 C 418.5417785644531 264.26348876953125 417.4975280761719 267.59185791015625 414.469482421875 269.6355895996094 C 414.44744873046875 269.0065002441406 397.83154296875 268.0605163574219 392.55029296875 264.12213134765625 C 391.8592224121094 265.1305236816406 389.1854553222656 263.2983703613281 386.0585021972656 263.5142517089844 C 382.10040283203125 261.93994140625 380.8397521972656 263.1714172363281 376.7198181152344 260.94000244140625 C 375.0720520019531 256.2375793457031 376.3177795410156 252.45069885253906 372.9203186035156 249.1045684814453 C 360.0774230957031 244.4645233154297 376.4332275390625 198.13641357421875 378.3659973144531 182.462890625 C 383.7380065917969 171.95025634765625 395.7679748535156 176.07406616210938 394.8528137207031 179.27149963378906" stroke-width="0.0" fill="url(#shape_8_fill)"/>
    <path d="M 565.631591796875 157.4034881591797 C 568.602294921875 158.9600067138672 570.0465698242188 161.80914306640625 570.539306640625 165.34898376464844 C 574.0722045898438 169.5627899169922 573.2314453125 170.69688415527344 578.170654296875 174.41639709472656 C 580.8372802734375 174.5427703857422 582.35205078125 176.74546813964844 582.2326049804688 182.0221405029297 C 576.421142578125 177.93191528320312 573.04931640625 225.6509552001953 577.239990234375 226.94744873046875 C 576.9141235351562 228.9354248046875 579.6636962890625 233.8048858642578 575.61181640625 239.7073974609375 C 568.625 238.6742401123047 566.1287841796875 237.3319091796875 558.3693237304688 245.03985595703125 C 550.2283935546875 252.18849182128906 495.21966552734375 254.68478393554688 493.3643493652344 249.80921936035156 C 490.3836669921875 244.2264862060547 488.79486083984375 238.2984619140625 488.367431640625 231.81285095214844 C 486.4498596191406 226.23284912109375 483.2083435058594 222.25604248046875 481.1520080566406 216.11109924316406 C 476.6447448730469 209.97048950195312 479.20550537109375 205.6233367919922 482.5592041015625 206.0038299560547 C 479.9042663574219 205.32595825195312 480.8433837890625 197.97927856445312 484.99713134765625 197.28065490722656 C 491.8410949707031 196.17388916015625 491.8836669921875 192.5188751220703 494.3847961425781 188.6212921142578 C 495.502685546875 174.9886932373047 498.78826904296875 175.03094482421875 499.2790832519531 174.49070739746094 C 502.5546569824219 173.09146118164062 507.6732177734375 176.10968017578125 520.7185668945312 173.00308227539062 C 524.3639526367188 171.54354858398438 524.4524536132812 168.44252014160156 526.9710693359375 165.87449645996094 C 527.4779052734375 160.44252014160156 528.9088745117188 157.83531188964844 533.3524780273438 158.68212890625 C 537.6577758789062 161.82054138183594 541.4013671875 162.4508056640625 542.2274780273438 163.91761779785156 C 545.3001708984375 164.01834106445312 546.0283203125 165.64967346191406 549.3802490234375 166.342529296875 C 548.7554321289062 165.63577270507812 551.4296875 157.15768432617188 555.3565063476562 156.51547241210938 C 558.9403076171875 155.50953674316406 562.51025390625 155.3019256591797 565.631591796875 157.4034881591797" stroke-width="0.0" fill="url(#shape_9_fill)"/>
    <path d="M 561.1951904296875 155.82301330566406 C 568.0778198242188 155.55238342285156 569.9684448242188 160.0442657470703 571.7571411132812 166.72158813476562 C 573.2875366210938 170.2348175048828 575.5111083984375 171.2087860107422 578.64990234375 176.4033966064453 C 579.4917602539062 178.02906799316406 578.3280639648438 187.2666778564453 577.251220703125 191.5853729248047 C 572.3529052734375 197.40797424316406 572.0724487304688 231.08383178710938 577.67919921875 230.43063354492188 C 575.7610473632812 230.74354553222656 575.885009765625 236.82640075683594 571.9762573242188 238.09579467773438 C 559.37548828125 236.21766662597656 567.869140625 238.53851318359375 559.0193481445312 245.501953125 C 555.0083618164062 251.4408416748047 501.2713317871094 248.9486083984375 500.1932678222656 251.4495086669922 C 491.0796813964844 251.85723876953125 488.07867431640625 236.6664581298828 487.9322814941406 229.9549102783203 C 486.61383056640625 224.93731689453125 481.99078369140625 219.26551818847656 481.50885009765625 216.20994567871094 C 477.5978088378906 212.83009338378906 478.1029968261719 210.55752563476562 477.703125 206.3780517578125 C 477.3634033203125 203.360107421875 482.57708740234375 198.4520721435547 484.44171142578125 197.5718994140625 C 490.7293701171875 196.4294891357422 495.01275634765625 184.97628784179688 496.2628479003906 182.6517333984375 C 495.977294921875 179.5207977294922 496.92950439453125 177.01400756835938 500.43560791015625 176.11463928222656 C 507.44732666015625 175.49179077148438 514.5574951171875 177.4089813232422 520.2669067382812 173.9781036376953 C 524.3748168945312 173.4359130859375 527.0919189453125 159.43162536621094 532.5392456054688 158.9534149169922 C 536.6220092773438 158.442626953125 539.1315307617188 161.612548828125 542.852783203125 165.3334197998047 C 545.1824951171875 164.8832550048828 548.6648559570312 166.10227966308594 550.9668579101562 163.13955688476562 C 551.4098510742188 158.4635772705078 553.6763916015625 153.85000610351562 561.1951904296875 155.82301330566406" stroke-width="0.0" fill="url(#shape_10_fill)"/>
    <path d="M 449.5613708496094 108.427978515625 C 454.0552062988281 109.14981842041016 456.4714050292969 112.24139404296875 460.4594421386719 113.73216247558594 C 463.53076171875 116.8034896850586 468.9822692871094 117.4207992553711 472.3431396484375 119.64337921142578 C 488.366455078125 124.54196166992188 488.79925537109375 125.24835968017578 491.9416198730469 129.82505798339844 C 493.372802734375 131.7586669921875 493.2254943847656 134.1254425048828 496.519775390625 136.43161010742188 C 493.7397766113281 134.68609619140625 492.36993408203125 136.04360961914062 487.90252685546875 134.33486938476562 C 484.2125549316406 133.21524047851562 482.4729309082031 135.190185546875 479.118896484375 134.63096618652344 C 474.64300537109375 135.8546905517578 471.4186706542969 134.23472595214844 468.26593017578125 134.3544921875 C 465.31243896484375 133.49728393554688 460.05126953125 133.50477600097656 456.9613952636719 134.39419555664062 C 452.8340148925781 143.95314025878906 467.8553161621094 154.46823120117188 479.9644775390625 158.02223205566406 C 476.1535949707031 176.60641479492188 475.3370666503906 177.154052734375 469.6368408203125 180.71546936035156 C 466.632568359375 182.212158203125 466.2827453613281 186.66238403320312 463.7008361816406 188.39820861816406 C 460.41802978515625 187.2965850830078 455.88787841796875 180.37327575683594 454.2001647949219 177.20904541015625 C 448.2632141113281 179.45852661132812 447.52789306640625 182.70193481445312 439.79180908203125 183.2145233154297 C 439.5998229980469 183.74502563476562 435.8126525878906 195.6548309326172 434.4518127441406 198.32289123535156 C 428.6274719238281 200.9502410888672 417.49658203125 180.59300231933594 417.5992431640625 179.64859008789062 C 417.1100158691406 179.6717987060547 402.0450134277344 175.40135192871094 398.2348327636719 167.2469024658203 C 392.69451904296875 168.15597534179688 386.0869445800781 176.0189208984375 381.32354736328125 172.9965057373047 C 381.974365234375 164.7565155029297 383.9808044433594 143.4872283935547 391.70635986328125 140.26206970214844 C 397.8897705078125 137.4130859375 399.36199951171875 129.6721954345703 402.1926574707031 123.10160064697266 C 411.348388671875 100.591796875 428.9081726074219 104.55646514892578 449.5613708496094 108.427978515625" stroke-width="0.0" fill="url(#shape_11_fill)"/>
    <path d="M 601.5875854492188 129.45977783203125 C 606.5155029296875 130.29428100585938 607.8306274414062 139.93833923339844 609.4638061523438 141.9954376220703 C 612.07470703125 144.4362335205078 612.1848754882812 147.74696350097656 614.5695190429688 151.47190856933594 C 618.7986450195312 149.8516845703125 618.8883666992188 141.90028381347656 621.8489379882812 141.0294189453125 C 624.4290771484375 139.11061096191406 626.900634765625 139.2525177001953 628.3469848632812 140.16876220703125 C 627.7008056640625 142.09584045410156 629.4583129882812 144.59072875976562 629.7572631835938 147.73931884765625 C 632.3042602539062 149.86180114746094 631.5702514648438 151.0403289794922 635.6690063476562 154.26138305664062 C 640.466796875 156.1315155029297 638.767578125 161.9208984375 640.045166015625 172.18470764160156 C 637.2415771484375 183.6608123779297 639.043212890625 194.30364990234375 639.6154174804688 206.3856658935547 C 641.7838745117188 218.81668090820312 644.8370971679688 230.74227905273438 640.8060302734375 245.5851593017578 C 623.263916015625 249.04977416992188 608.644287109375 245.85855102539062 581.3619995117188 247.08045959472656 C 577.5924682617188 239.78811645507812 577.3349609375 226.88540649414062 575.2633666992188 217.9126739501953 C 571.742919921875 215.41526794433594 577.8718872070312 168.02491760253906 586.3685913085938 169.0282440185547 C 594.9208984375 160.7914276123047 596.973388671875 141.14041137695312 597.823974609375 141.21766662597656 C 597.5827026367188 137.050048828125 597.333984375 135.18902587890625 601.5875854492188 129.45977783203125" stroke-width="0.0" fill="url(#shape_12_fill)"/>
    <path d="M 403.4158020019531 178.20291137695312 C 420.07574462890625 177.91600036621094 436.1177978515625 211.63816833496094 429.61907958984375 216.45079040527344 C 419.5807189941406 230.80465698242188 423.285888671875 240.4157257080078 425.19384765625 247.00857543945312 C 428.5182800292969 260.9226379394531 418.6294250488281 263.62060546875 414.92510986328125 268.51531982421875 C 406.3367919921875 269.095947265625 396.26123046875 268.4975891113281 392.92413330078125 267.30181884765625 C 386.6089782714844 262.7047424316406 384.5399169921875 263.9114990234375 381.5541687011719 262.2284851074219 C 377.69476318359375 262.241455078125 377.1228332519531 260.0185546875 375.5905456542969 258.3907165527344 C 376.32464599609375 255.95343017578125 375.7195129394531 253.29879760742188 374.5168762207031 253.50027465820312 C 374.36114501953125 252.17657470703125 370.5268859863281 250.52276611328125 369.3343200683594 251.3284912109375 C 365.5386962890625 240.34275817871094 367.5680847167969 226.6431427001953 369.8215637207031 222.83778381347656 C 370.58343505859375 220.1474609375 372.7969665527344 204.2284698486328 375.5879821777344 201.0502471923828 C 376.0237121582031 198.73123168945312 377.9300537109375 180.890625 382.6605529785156 177.6873779296875 C 390.5458679199219 172.8893280029297 394.572998046875 173.3427276611328 403.4158020019531 178.20291137695312" stroke-width="0.0" fill="url(#shape_13_fill)"/>
    <path d="M 509.4957275390625 66.63565063476562 C 512.2037963867188 66.99488067626953 521.1932373046875 70.5739974975586 522.7484130859375 75.36739349365234 C 529.2575073242188 81.574951171875 534.2093505859375 81.53155517578125 537.08837890625 89.34310913085938 C 539.621337890625 90.72432708740234 544.5590209960938 90.4168930053711 545.0220336914062 91.15865325927734 C 545.5308837890625 92.739990234375 556.104248046875 97.04222106933594 560.9345703125 96.47163391113281 C 564.1632690429688 97.8936767578125 567.4570922851562 97.6113052368164 568.593017578125 99.89874267578125 C 565.7949829101562 103.98001098632812 552.7261352539062 110.67623901367188 546.9024047851562 110.23258209228516 C 541.7601318359375 112.16069030761719 539.3953247070312 114.99273681640625 533.8665161132812 117.1386489868164 C 527.1384887695312 120.20510864257812 525.6416015625 120.85315704345703 515.4531860351562 119.821533203125 C 510.3670349121094 119.24629211425781 500.7077941894531 124.50105285644531 499.86651611328125 126.27989959716797 C 496.74700927734375 128.41966247558594 493.57574462890625 128.805419921875 489.2763366699219 128.45091247558594 C 489.7100830078125 125.19005584716797 468.7711181640625 119.12385559082031 468.04913330078125 118.16338348388672 C 463.2928466796875 117.75130462646484 463.09521484375 116.46868133544922 460.3096923828125 114.74121856689453 C 460.4687194824219 106.54641723632812 463.1405334472656 100.85050964355469 469.48797607421875 95.20974731445312 C 473.6952209472656 89.46929931640625 472.4369812011719 84.22797393798828 473.0151672363281 82.00595092773438 C 474.5877685546875 70.930908203125 475.3378601074219 70.38800811767578 478.2672424316406 66.39562225341797 C 479.06671142578125 64.2394027709961 482.6749572753906 64.17606353759766 484.3963623046875 62.22187042236328 C 493.5629577636719 61.9825325012207 501.0301818847656 63.388404846191406 509.4957275390625 66.63565063476562" stroke-width="0.0" fill="url(#shape_14_fill)"/>
    <path d="M 532.8499145507812 158.7291259765625 C 543.7815551757812 162.91217041015625 544.0267333984375 163.9046173095703 546.7048950195312 166.75164794921875 C 547.0139770507812 168.05433654785156 548.31884765625 170.26722717285156 544.5416870117188 182.2282257080078 C 543.1696166992188 189.8701934814453 539.8253173828125 232.60275268554688 539.1227416992188 235.88861083984375 C 539.4950561523438 237.53640747070312 541.9102783203125 251.60511779785156 514.6700439453125 253.3863067626953 C 501.15924072265625 253.1710662841797 486.1432189941406 246.87130737304688 488.0645446777344 229.4346466064453 C 478.1672668457031 216.72976684570312 476.91143798828125 203.94161987304688 484.1501770019531 198.9490509033203 C 487.2715759277344 197.07884216308594 488.8370361328125 198.0567169189453 490.7134704589844 196.95712280273438 C 491.4397277832031 192.8225860595703 493.1942138671875 183.37786865234375 494.6658630371094 180.75660705566406 C 496.66253662109375 179.05470275878906 498.66156005859375 176.4961395263672 502.15032958984375 176.08514404296875 C 507.29681396484375 175.6539764404297 511.5538024902344 179.49551391601562 522.6603393554688 172.565673828125 C 525.53515625 170.9496307373047 525.5462646484375 167.31605529785156 526.9530639648438 165.0960693359375 C 527.6060180664062 161.70016479492188 530.9049682617188 160.5272979736328 532.8499145507812 158.7291259765625" stroke-width="0.0" fill="url(#shape_15_fill)"/>
    <path d="M 650.2813720703125 112.3259048461914 C 657.3251342773438 109.87694549560547 663.8306274414062 121.27234649658203 662.7800903320312 126.21858978271484 C 665.5733032226562 133.18930053710938 666.1665649414062 139.35968017578125 673.77197265625 147.67123413085938 C 675.6910400390625 179.76377868652344 673.9362182617188 212.36215209960938 674.3252563476562 247.6799774169922 C 669.413818359375 244.99896240234375 652.577392578125 252.30960083007812 643.4551391601562 243.61627197265625 C 636.2255859375 239.83026123046875 636.4471435546875 117.42919921875 650.2813720703125 112.3259048461914" stroke-width="0.0" fill="url(#shape_16_fill)"/>
    <path d="M 599.61474609375 129.49395751953125 C 603.5117797851562 127.48009490966797 608.422607421875 131.37167358398438 607.0216064453125 133.94342041015625 C 608.4537353515625 135.04949951171875 608.5147094726562 138.92193603515625 612.0654907226562 148.41189575195312 C 620.976318359375 137.34181213378906 619.8124389648438 231.81173706054688 616.5388793945312 242.643310546875 C 598.1686401367188 250.9849395751953 575.834228515625 246.36741638183594 582.325927734375 237.1654815673828 C 562.15234375 224.79551696777344 593.0859375 150.06019592285156 599.61474609375 129.49395751953125" stroke-width="0.0" fill="url(#shape_17_fill)"/>
    <path d="M 321.4101867675781 186.34329223632812 C 322.4305725097656 185.50430297851562 324.30743408203125 187.70846557617188 328.02984619140625 187.60498046875 C 332.3377380371094 189.24655151367188 337.1355285644531 188.8822021484375 340.4869079589844 190.53842163085938 C 342.4547424316406 195.5928497314453 348.10675048828125 194.28170776367188 353.5655212402344 193.61700439453125 C 356.9437561035156 195.13531494140625 357.92803955078125 198.44886779785156 358.9810485839844 200.64620971679688 C 359.90625 203.68951416015625 362.10015869140625 203.64512634277344 363.38470458984375 206.01339721679688 C 367.2622375488281 206.94692993164062 368.476806640625 208.19631958007812 368.41656494140625 211.79931640625 C 369.4217834472656 216.70571899414062 368.3249206542969 221.5749969482422 366.5182189941406 225.54443359375 C 366.8367919921875 231.48512268066406 365.36505126953125 235.24070739746094 366.5106506347656 241.0989990234375 C 367.2842102050781 246.89366149902344 364.45794677734375 255.3959197998047 355.7251281738281 254.45741271972656 C 353.0715026855469 254.769287109375 330.83172607421875 254.76190185546875 324.36334228515625 254.29261779785156 C 313.5341796875 255.46853637695312 312.3389892578125 253.2464599609375 313.8936767578125 237.00242614746094 C 306.7976989746094 228.58299255371094 316.8283386230469 189.46026611328125 321.4101867675781 186.34329223632812" stroke-width="0.0" fill="url(#shape_18_fill)"/>
    <path d="M 481.33905029296875 216.87757873535156 C 491.5050354003906 241.05262756347656 494.2518615722656 247.65545654296875 478.4384460449219 267.339599609375 C 470.11175537109375 277.9087829589844 443.9919738769531 261.31109619140625 442.1615905761719 261.67156982421875 C 438.6451721191406 260.6265869140625 437.17388916015625 258.1478271484375 432.5921325683594 257.930908203125 C 429.6478271484375 258.1899108886719 427.6452941894531 257.7087707519531 426.5257873535156 254.36122131347656 C 420.5533752441406 246.4756317138672 419.71923828125 237.41860961914062 422.4344482421875 228.4730224609375 C 423.8482360839844 223.95860290527344 420.95172119140625 228.93109130859375 421.89697265625 225.87266540527344 C 427.69091796875 219.40615844726562 429.6648864746094 218.7765655517578 429.5975036621094 215.78689575195312 C 439.3775329589844 201.66587829589844 464.15667724609375 206.00144958496094 481.33905029296875 216.87757873535156" stroke-width="0.0" fill="url(#shape_19_fill)"/>
    <path d="M 673.7356567382812 -0.3644953966140747 C 674.4505615234375 33.34743118286133 674.4259033203125 64.84732055664062 674.1857299804688 97.14299774169922 C 669.9241333007812 96.12958526611328 653.705810546875 87.39128112792969 642.9446411132812 91.12093353271484 C 638.5270385742188 89.56866455078125 638.4337158203125 85.85287475585938 637.9589233398438 84.77811431884766 C 631.3693237304688 86.57255554199219 622.8941040039062 88.19603729248047 611.6029052734375 81.94651794433594 C 611.1918334960938 78.29199981689453 613.3556518554688 75.5883560180664 615.2575073242188 73.27410888671875 C 622.9335327148438 70.03669738769531 650.5753784179688 25.93145179748535 650.2135620117188 22.539335250854492 C 655.5420532226562 14.76722526550293 657.839599609375 6.649703025817871 667.5292358398438 3.2444705963134766 C 669.7490844726562 2.5983309745788574 670.3224487304688 1.3579922914505005 673.7356567382812 -0.3644953966140747" stroke-width="0.0" fill="url(#shape_20_fill)"/>
    <path d="M 563.3984375 155.70591735839844 C 569.7544555664062 156.73818969726562 569.5132446289062 164.3663787841797 572.5545654296875 167.9915313720703 C 585.1028442382812 165.83273315429688 573.0745239257812 229.71205139160156 574.0105590820312 238.97158813476562 C 569.3746948242188 239.00094604492188 565.0850830078125 241.3516082763672 563.5519409179688 244.38031005859375 C 557.6618041992188 248.9576416015625 542.9181518554688 250.90248107910156 540.1608276367188 246.1019287109375 C 544.4926147460938 244.84898376464844 539.1640014648438 160.23936462402344 554.2799682617188 157.1198272705078 C 556.42578125 153.17396545410156 558.2614135742188 153.62416076660156 563.3984375 155.70591735839844" stroke-width="0.0" fill="url(#shape_21_fill)"/>
    <path d="M 215.06869506835938 212.00343322753906 C 223.0985870361328 220.8632049560547 223.83255004882812 252.6336669921875 217.9454345703125 254.40457153320312 C 210.7410125732422 262.4938659667969 207.99539184570312 263.8002624511719 205.21697998046875 272.1931457519531 C 205.36825561523438 276.0292053222656 206.60667419433594 276.2364501953125 206.81826782226562 280.07147216796875 C 207.0405731201172 283.1817932128906 204.05564880371094 285.08404541015625 200.8292999267578 284.691162109375 C 201.7056427001953 283.3023681640625 196.73553466796875 265.7655334472656 190.40794372558594 263.3615417480469 C 186.77894592285156 260.6446228027344 184.61697387695312 261.5699157714844 182.31741333007812 259.9031982421875 C 180.880859375 260.5132141113281 178.5446319580078 260.87957763671875 177.31439208984375 256.1829528808594 C 178.06275939941406 251.26715087890625 170.20144653320312 242.4397430419922 170.85897827148438 236.05235290527344 C 177.94900512695312 219.68936157226562 183.98828125 219.07296752929688 188.6191864013672 219.5398712158203 C 193.8876495361328 217.49742126464844 193.47317504882812 215.4553985595703 196.276611328125 212.1146240234375 C 197.3536376953125 208.3475799560547 197.23622131347656 206.58192443847656 203.47630310058594 205.53668212890625 C 208.46315002441406 205.29605102539062 212.61888122558594 206.85169982910156 215.06869506835938 212.00343322753906" stroke-width="0.0" fill="url(#shape_22_fill)"/>
    <path d="M 111.5226058959961 426.42822265625 C 112.71488189697266 429.2692565917969 111.00013732910156 431.1761779785156 110.67847442626953 431.7078552246094 C 106.60044860839844 435.9565124511719 102.24349975585938 436.62860107421875 93.81681060791016 434.652587890625 C 86.9712905883789 439.6119079589844 99.62642669677734 446.7218322753906 86.97807312011719 448.12445068359375 C 78.9405517578125 445.1998596191406 46.506778717041016 447.6470947265625 25.577091217041016 449.0806884765625 C 13.402396202087402 446.494140625 14.465198516845703 440.121826171875 17.114458084106445 435.8000793457031 C 34.51933288574219 428.2262878417969 51.09758758544922 425.97259521484375 70.23460388183594 425.2264709472656 C 75.69435119628906 425.1770324707031 107.52320861816406 417.5082702636719 111.5226058959961 426.42822265625" stroke-width="0.0" fill="url(#shape_23_fill)"/>
    <path d="M 196.0007781982422 123.3908462524414 C 200.79183959960938 123.58269500732422 210.5615692138672 143.59600830078125 213.09860229492188 145.5792999267578 C 215.44615173339844 148.30397033691406 218.46405029296875 149.76400756835938 219.7206268310547 153.7040557861328 C 227.64047241210938 157.13088989257812 248.09364318847656 179.7164764404297 244.29025268554688 199.55435180664062 C 239.06520080566406 199.75572204589844 235.51321411132812 187.3668212890625 234.14202880859375 182.64393615722656 C 231.5515594482422 183.69898986816406 230.34645080566406 193.01199340820312 228.81451416015625 195.10447692871094 C 226.79177856445312 200.38015747070312 227.42745971679688 203.6957550048828 221.0626220703125 208.29432678222656 C 215.20236206054688 207.61053466796875 213.7581024169922 199.75173950195312 214.6441192626953 195.84713745117188 C 212.732666015625 189.48785400390625 212.68690490722656 182.78958129882812 207.31787109375 178.28982543945312 C 204.05667114257812 174.0192108154297 205.16151428222656 173.04103088378906 204.67318725585938 165.88282775878906 C 205.95126342773438 150.9577178955078 199.98959350585938 149.3812255859375 194.42591857910156 144.7356719970703 C 189.51983642578125 139.95408630371094 190.1959991455078 127.5096664428711 196.0007781982422 123.3908462524414" stroke-width="0.0" fill="url(#shape_24_fill)"/>
    <path d="M 594.61181640625 413.6529846191406 C 597.1153564453125 415.5416259765625 624.7532348632812 412.4734191894531 627.7666015625 418.9509582519531 C 628.4063720703125 420.8050842285156 625.8309326171875 424.9225158691406 627.46044921875 427.8233337402344 C 629.0267333984375 430.26007080078125 632.263427734375 430.39898681640625 633.8893432617188 435.823486328125 C 615.5481567382812 446.5786437988281 579.0150756835938 439.6949462890625 578.1400756835938 430.9055480957031 C 571.176513671875 423.02923583984375 574.2330932617188 417.28173828125 575.0432739257812 414.64825439453125 C 580.481689453125 410.3599853515625 587.192626953125 412.39605712890625 594.61181640625 413.6529846191406" stroke-width="0.0" fill="url(#shape_25_fill)"/>
    <path d="M 142.94705200195312 66.70552062988281 C 144.05905151367188 68.91485595703125 149.17733764648438 68.55779266357422 149.6304473876953 69.12064361572266 C 148.90643310546875 70.91769409179688 150.45709228515625 71.80216979980469 149.7974853515625 73.85203552246094 C 151.02699279785156 74.44291687011719 150.5018768310547 78.07630920410156 153.03501892089844 82.10162353515625 C 153.73883056640625 89.54510498046875 153.50257873535156 96.95281219482422 154.1747283935547 104.05362701416016 C 153.57479858398438 107.62152862548828 155.1492462158203 108.5051040649414 155.3134307861328 111.6005630493164 C 158.1827850341797 121.9340591430664 155.46426391601562 133.59303283691406 150.0804901123047 133.31387329101562 C 139.8584747314453 130.39044189453125 133.2808074951172 124.51712036132812 125.8248062133789 117.15534210205078 C 122.336181640625 114.55023193359375 124.90824127197266 109.95719146728516 126.92707061767578 107.16747283935547 C 128.8416748046875 106.8448486328125 128.87554931640625 105.29136657714844 132.6057891845703 104.61707305908203 C 137.31593322753906 97.43692779541016 133.7938995361328 92.0893783569336 133.35560607910156 90.3364028930664 C 134.20700073242188 88.8874740600586 139.29022216796875 87.10501098632812 140.03134155273438 85.3055419921875 C 138.18869018554688 84.76041412353516 138.83731079101562 77.57799530029297 139.47874450683594 77.41764831542969 C 143.46441650390625 76.71087646484375 142.77587890625 70.13788604736328 142.94705200195312 66.70552062988281" stroke-width="0.0" fill="url(#shape_26_fill)"/>
    <path d="M 144.50645446777344 67.64946746826172 C 149.30947875976562 68.22538757324219 150.2628936767578 70.51255798339844 149.88185119628906 74.56702423095703 C 151.98960876464844 76.71051788330078 151.57626342773438 79.56604766845703 154.3629913330078 81.64314270019531 C 153.63775634765625 89.05291748046875 153.94577026367188 96.6212387084961 153.3350830078125 103.71270751953125 C 154.6640625 104.73889923095703 153.5608367919922 108.47660064697266 155.58755493164062 110.27055358886719 C 155.9895477294922 118.00784301757812 156.22723388671875 121.56014251708984 155.10702514648438 126.14240264892578 C 152.67762756347656 132.05722045898438 151.3692169189453 133.17079162597656 147.44442749023438 133.34275817871094 C 141.02647399902344 132.61573791503906 128.3848114013672 121.0354995727539 126.94929504394531 120.21488189697266 C 124.15608978271484 117.97269439697266 122.6905746459961 112.20415496826172 128.42257690429688 110.3115005493164 C 124.11631774902344 109.00251770019531 124.3043212890625 106.00775909423828 130.97633361816406 105.82954406738281 C 135.2039031982422 105.2463150024414 134.39328002929688 91.435302734375 134.72598266601562 89.40770721435547 C 139.4376678466797 87.06047058105469 138.2936553955078 84.76663208007812 138.2915802001953 81.70433807373047 C 139.09217834472656 77.42567443847656 140.3486328125 76.84040069580078 141.5762939453125 76.45018005371094 C 144.28839111328125 71.16735076904297 143.20449829101562 68.28235626220703 144.50645446777344 67.64946746826172" stroke-width="0.0" fill="url(#shape_27_fill)"/>
    <path d="M -0.2952077388763428 -0.26701998710632324 C 4.699485778808594 0.377903014421463 9.642854690551758 -0.5211942791938782 16.46598243713379 -0.046942535787820816 C 17.56586265563965 -0.12727563083171844 18.29579734802246 13.290780067443848 29.550704956054688 20.570186614990234 C 28.93836212158203 24.440954208374023 27.054317474365234 24.866701126098633 26.670007705688477 28.513582229614258 C 31.283655166625977 33.4500732421875 38.02629470825195 34.183921813964844 40.33242416381836 38.55411148071289 C 36.641502380371094 38.95694351196289 33.75668716430664 38.3740234375 31.571998596191406 35.43447494506836 C 25.71152687072754 31.269365310668945 17.61028289794922 32.715492248535156 10.449151039123535 33.45147705078125 C 9.068319320678711 37.175697326660156 12.541356086730957 40.2367057800293 12.526375770568848 41.57270050048828 C 13.619248390197754 42.06997299194336 14.123556137084961 47.954437255859375 18.028095245361328 47.9842643737793 C 20.066478729248047 51.098419189453125 18.739850997924805 52.28489303588867 19.7526798248291 56.94668960571289 C 16.754837036132812 58.718177795410156 9.862335205078125 60.45447540283203 8.909592628479004 61.1479377746582 C 5.503846645355225 60.8765983581543 3.5293450355529785 59.14607238769531 0.32466068863868713 59.429996490478516 C -0.3142739534378052 39.771240234375 -0.3223068118095398 19.62952423095703 -0.2952077388763428 -0.26701998710632324" stroke-width="0.0" fill="url(#shape_28_fill)"/>
    <path d="M 297.70513916015625 195.90753173828125 C 298.1518859863281 198.0484619140625 300.04669189453125 201.51809692382812 300.6528625488281 206.6438446044922 C 300.5246276855469 209.3844757080078 316.78924560546875 234.2622833251953 310.4669189453125 249.70811462402344 C 310.12530517578125 251.06556701660156 309.0718688964844 253.92901611328125 306.0857238769531 254.1737060546875 C 298.39874267578125 255.9434814453125 295.2092590332031 255.8964385986328 286.32635498046875 254.9273681640625 C 285.5420227050781 234.57272338867188 287.3643798828125 213.62705993652344 297.70513916015625 195.90753173828125" stroke-width="0.0" fill="url(#shape_29_fill)"/>
    <path d="M -0.4745471477508545 0.15749575197696686 C 4.432440757751465 0.44802016019821167 9.522234916687012 -0.41213151812553406 14.512800216674805 0.14250898361206055 C 15.678679466247559 0.49290716648101807 16.107053756713867 5.588141441345215 16.114377975463867 8.063937187194824 C 18.977947235107422 10.758959770202637 22.25254249572754 18.689476013183594 27.82760238647461 20.14313507080078 C 29.04584312438965 23.117258071899414 26.106279373168945 27.835187911987305 24.802692413330078 31.338502883911133 C 21.160341262817383 33.07398223876953 15.90654182434082 32.6942138671875 8.063408851623535 34.27464294433594 C 9.569214820861816 35.45879364013672 8.601890563964844 38.062259674072266 11.541532516479492 40.35093307495117 C 13.169466972351074 42.721614837646484 12.877517700195312 48.34564971923828 16.221158981323242 49.974708557128906 C 18.67506217956543 51.384429931640625 19.87438201904297 53.53306198120117 18.57855796813965 56.9397087097168 C 12.300497055053711 60.16292190551758 7.309268474578857 60.44841384887695 0.2671603262424469 59.9404411315918 C -0.38508713245391846 39.90076446533203 -0.35112830996513367 19.748945236206055 -0.4745471477508545 0.15749575197696686" stroke-width="0.0" fill="url(#shape_30_fill)"/>
    <path d="M 544.7794189453125 71.90953826904297 C 550.0648803710938 70.52381134033203 582.68017578125 83.60681915283203 586.2977294921875 86.53341674804688 C 582.609375 93.81072235107422 580.0332641601562 94.19646453857422 577.307373046875 98.2869644165039 C 573.2350463867188 100.71837615966797 572.1452026367188 99.99234771728516 569.51611328125 97.46073150634766 C 566.5128784179688 96.49015808105469 544.2949829101562 93.90449523925781 538.5208740234375 88.50465393066406 C 538.5773315429688 85.49276733398438 537.4689331054688 83.35794067382812 535.5429077148438 82.61785888671875 C 535.1351318359375 79.10894012451172 531.3729248046875 79.32768249511719 527.6600341796875 77.93436431884766 C 525.1168212890625 75.9696273803711 528.0195922851562 70.84441375732422 530.5369873046875 70.20032501220703 C 534.8350830078125 68.1761703491211 539.3710327148438 70.04143524169922 544.7794189453125 71.90953826904297" stroke-width="0.0" fill="url(#shape_31_fill)"/>
    <path d="M 448.63238525390625 263.91363525390625 C 450.6419372558594 265.2869567871094 451.3447265625 266.67254638671875 456.007080078125 267.6365661621094 C 460.99298095703125 267.58660888671875 465.7219543457031 269.913818359375 469.9350280761719 273.3031311035156 C 470.44708251953125 275.7033386230469 471.810791015625 276.82342529296875 471.6651916503906 280.6290283203125 C 447.2119445800781 287.13714599609375 428.4334411621094 284.33642578125 416.2110900878906 283.8399658203125 C 413.38018798828125 273.8923034667969 415.3306579589844 272.3828125 415.7393798828125 268.2720031738281 C 418.1853942871094 267.2026672363281 417.785400390625 264.81329345703125 419.3306884765625 263.0574645996094 C 428.87969970703125 254.31724548339844 438.9571228027344 258.73858642578125 448.63238525390625 263.91363525390625" stroke-width="0.0" fill="url(#shape_32_fill)"/>
    <path d="M 269.5897216796875 190.6454315185547 C 281.6199645996094 191.0027618408203 283.414306640625 240.98342895507812 278.52069091796875 243.87156677246094 C 276.5094909667969 247.2154541015625 273.82220458984375 246.61875915527344 269.97454833984375 248.2576904296875 C 266.45977783203125 245.8223114013672 266.8370666503906 241.95384216308594 265.12725830078125 240.39080810546875 C 259.4440612792969 206.28060913085938 259.141845703125 200.43356323242188 269.5897216796875 190.6454315185547" stroke-width="0.0" fill="url(#shape_33_fill)"/>
    <path d="M 252.6546630859375 426.12408447265625 C 254.54360961914062 429.0411682128906 261.7541809082031 433.56207275390625 261.1416931152344 438.5739440917969 C 259.44500732421875 440.55535888671875 259.38299560546875 444.0086669921875 252.110595703125 444.60205078125 C 246.7392120361328 444.1509704589844 220.260498046875 446.7450866699219 212.6018524169922 444.5389099121094 C 213.02880859375 436.99114990234375 213.95590209960938 436.2270812988281 215.93960571289062 434.4759521484375 C 216.17771911621094 433.3537292480469 225.0417938232422 433.39764404296875 226.57257080078125 430.3044128417969 C 233.34771728515625 426.19635009765625 242.61631774902344 423.521484375 252.6546630859375 426.12408447265625" stroke-width="0.0" fill="url(#shape_34_fill)"/>
    <path d="M 105.41876983642578 69.91901397705078 C 109.512939453125 70.06473541259766 112.5001220703125 78.21299743652344 110.9686279296875 82.9972915649414 C 115.79011535644531 85.26469421386719 116.95558166503906 110.3353042602539 116.86161041259766 110.88452911376953 C 115.3432846069336 112.06849670410156 109.48262786865234 111.88829040527344 107.66693878173828 115.55586242675781 C 105.49018096923828 116.51847076416016 96.72679138183594 118.71795654296875 92.69905853271484 112.95964050292969 C 91.8029556274414 85.396728515625 103.50721740722656 84.34664916992188 105.41876983642578 69.91901397705078" stroke-width="0.0" fill="url(#shape_35_fill)"/>
    <path d="M 451.5718078613281 177.75515747070312 C 453.3094482421875 175.8834228515625 456.6133728027344 177.40139770507812 457.03521728515625 179.65602111816406 C 457.76190185546875 179.67091369628906 457.9382019042969 183.9311065673828 459.6971130371094 185.15557861328125 C 460.1361389160156 189.16928100585938 463.6884765625 192.93582153320312 461.7623596191406 205.9937744140625 C 458.8733825683594 208.27734375 454.3053283691406 207.61279296875 449.9062194824219 207.0911407470703 C 441.0469665527344 207.3988800048828 440.1507568359375 208.92669677734375 435.8595886230469 208.7738494873047 C 434.0366516113281 208.4031982421875 437.5896911621094 188.94882202148438 440.005615234375 185.87547302246094 C 441.3014831542969 182.0244140625 445.4610595703125 182.7342071533203 447.1711730957031 180.94989013671875 C 449.40576171875 177.22853088378906 449.2826843261719 180.4987030029297 451.5718078613281 177.75515747070312" stroke-width="0.0" fill="url(#shape_36_fill)"/>
    <path d="M 557.282958984375 81.35933685302734 C 563.1395263671875 80.93830108642578 583.111328125 83.06291198730469 576.8040161132812 83.49031829833984 C 582.6637573242188 83.21743774414062 586.7100830078125 84.55390167236328 586.9437866210938 87.33975982666016 C 585.9600219726562 89.81430053710938 578.7288818359375 96.27597045898438 574.3560180664062 99.96302795410156 C 573.83203125 99.37196350097656 548.8634643554688 96.57670593261719 540.5975952148438 85.99686431884766 C 538.4365234375 85.4833755493164 538.268310546875 80.5487289428711 538.5125122070312 80.24922943115234 C 544.2691650390625 77.94292449951172 550.8944091796875 78.80529022216797 557.282958984375 81.35933685302734" stroke-width="0.0" fill="url(#shape_37_fill)"/>
    <path d="M 250.2106475830078 206.3728485107422 C 261.2642822265625 210.39402770996094 256.1275634765625 244.63902282714844 257.45068359375 246.95372009277344 C 253.80813598632812 254.00914001464844 249.9136505126953 253.31381225585938 248.40992736816406 253.83123779296875 C 238.78152465820312 241.05018615722656 244.002197265625 209.4794464111328 250.2106475830078 206.3728485107422" stroke-width="0.0" fill="url(#shape_38_fill)"/>
    <path d="M 445.01702880859375 261.6167297363281 C 445.9644775390625 263.49237060546875 449.0975646972656 266.59027099609375 447.6363220214844 270.1080017089844 C 443.9771728515625 270.31658935546875 442.55859375 276.8968200683594 440.8302917480469 279.9898376464844 C 440.4859619140625 285.6339416503906 417.0870056152344 285.40606689453125 415.5177307128906 280.00433349609375 C 415.4634704589844 276.629638671875 413.6526184082031 274.9382019042969 415.57281494140625 271.6965026855469 C 414.51226806640625 269.8380126953125 418.133544921875 260.98291015625 422.1942138671875 258.7127685546875 C 430.7422180175781 255.20040893554688 437.63934326171875 257.2135925292969 445.01702880859375 261.6167297363281" stroke-width="0.0" fill="url(#shape_39_fill)"/>
    <path d="M 407.74493408203125 409.775634765625 C 408.68084716796875 409.8768005371094 416.7806396484375 419.03253173828125 413.4206237792969 424.0202331542969 C 397.1147155761719 431.90472412109375 380.947998046875 420.1717529296875 377.5338134765625 420.08221435546875 C 369.801513671875 417.5275573730469 372.13800048828125 417.0426330566406 373.3823547363281 412.21783447265625 C 380.6001892089844 405.8634948730469 399.1989440917969 405.1844787597656 407.74493408203125 409.775634765625" stroke-width="0.0" fill="url(#shape_40_fill)"/>
    <path d="M 66.13262939453125 427.5257263183594 C 68.10491943359375 428.9071044921875 65.15865325927734 435.7574768066406 60.04033279418945 436.2910461425781 C 58.60445785522461 437.23541259765625 42.27107238769531 437.6748046875 34.77312469482422 444.86651611328125 C 30.206865310668945 444.4013671875 24.65516471862793 447.4743957519531 17.041601181030273 443.6449279785156 C 16.569101333618164 440.6307373046875 17.55980682373047 439.210693359375 16.612489700317383 436.1396179199219 C 32.238224029541016 426.9653625488281 56.57288360595703 425.5839538574219 66.13262939453125 427.5257263183594" stroke-width="0.0" fill="url(#shape_41_fill)"/>
    <path d="M 277.4220275878906 387.4943542480469 C 279.76123046875 387.203857421875 292.0386047363281 387.6725158691406 295.6214294433594 391.2355041503906 C 297.29248046875 393.6205139160156 298.88641357421875 398.22564697265625 293.0513916015625 403.4742431640625 C 292.971923828125 397.2776794433594 265.2252502441406 403.4383850097656 260.7626037597656 400.190673828125 C 257.478515625 399.7056884765625 256.564697265625 390.2296447753906 259.7804870605469 388.953369140625 C 265.4477844238281 387.18194580078125 271.2012634277344 387.6227111816406 277.4220275878906 387.4943542480469" stroke-width="0.0" fill="url(#shape_42_fill)"/>
    <path d="M 221.12574768066406 225.23919677734375 C 223.0120086669922 224.10398864746094 226.67330932617188 224.28286743164062 231.28097534179688 225.9370880126953 C 234.02137756347656 229.0750732421875 239.9963836669922 246.5984344482422 237.920654296875 253.11497497558594 C 234.72169494628906 258.1182556152344 227.39996337890625 258.2864990234375 223.60305786132812 258.3358154296875 C 218.8724365234375 256.59136962890625 218.00498962402344 256.0566711425781 217.72714233398438 248.01187133789062 C 219.7734375 246.50209045410156 217.18272399902344 225.83242797851562 221.12574768066406 225.23919677734375" stroke-width="0.0" fill="url(#shape_43_fill)"/>
    <path d="M 483.8462219238281 395.3955078125 C 486.84967041015625 399.89813232421875 485.7334289550781 400.98492431640625 483.63653564453125 401.2279968261719 C 477.5663146972656 410.20556640625 453.0848388671875 410.12457275390625 450.67596435546875 407.42059326171875 C 448.0103759765625 404.4355773925781 451.59698486328125 396.1707763671875 453.58123779296875 396.4356994628906 C 461.4725341796875 391.11785888671875 475.5746154785156 390.4759521484375 483.8462219238281 395.3955078125" stroke-width="0.0" fill="url(#shape_44_fill)"/>
    <path d="M 46.07421112060547 406.37945556640625 C 45.70241928100586 410.28271484375 36.11160659790039 412.70147705078125 35.359432220458984 414.7135009765625 C 32.88862991333008 414.7739562988281 32.58903503417969 416.217529296875 29.863174438476562 416.818115234375 C 28.20528793334961 418.24664306640625 25.309988021850586 418.2105712890625 21.894372940063477 421.47698974609375 C 15.232972145080566 420.19207763671875 5.014881134033203 417.72833251953125 -0.8019572496414185 420.8560485839844 C 0.6171838641166687 419.5992736816406 -0.837090253829956 410.1873779296875 0.21887731552124023 409.3785400390625 C 8.309440612792969 408.9499816894531 41.98805236816406 407.89190673828125 46.07421112060547 406.37945556640625" stroke-width="0.0" fill="url(#shape_45_fill)"/>
    <path d="M 452.1192321777344 175.25296020507812 C 457.0621643066406 174.58493041992188 465.63525390625 196.817138671875 464.56494140625 201.53561401367188 C 462.5967712402344 209.6846923828125 451.7113952636719 209.60537719726562 449.4726867675781 206.77716064453125 C 448.3318786621094 203.24575805664062 449.0480041503906 198.3167266845703 448.8400573730469 195.2965087890625 C 447.9395751953125 194.5457763671875 447.6183166503906 192.21026611328125 448.4911193847656 187.743896484375 C 448.1101989746094 185.0226287841797 448.01959228515625 182.16790771484375 452.1192321777344 175.25296020507812" stroke-width="0.0" fill="url(#shape_46_fill)"/>
    <path d="M 376.00042724609375 184.31678771972656 C 375.5682373046875 187.5750274658203 375.76806640625 203.9765625 372.62591552734375 206.6447296142578 C 365.8501892089844 206.82127380371094 364.78790283203125 204.8590087890625 361.87261962890625 203.20748901367188 C 356.55841064453125 201.18736267089844 354.18011474609375 197.66722106933594 354.5732421875 188.3284149169922 C 356.64483642578125 184.93516540527344 358.3556213378906 184.41041564941406 364.9234619140625 184.99832153320312 C 368.78076171875 184.28175354003906 373.1063232421875 182.74288940429688 376.00042724609375 184.31678771972656" stroke-width="0.0" fill="url(#shape_47_fill)"/>
    <path d="M 467.37945556640625 270.35784912109375 C 469.4311218261719 271.3847351074219 473.2954406738281 272.6390380859375 472.2243957519531 281.4781494140625 C 463.0313720703125 285.5309143066406 455.6852722167969 282.9377746582031 444.4107666015625 284.6820983886719 C 439.2652587890625 282.2416076660156 440.0102233886719 276.9543762207031 441.2364501953125 276.5040283203125 C 448.11419677734375 267.0843200683594 456.1530456542969 267.4512023925781 467.37945556640625 270.35784912109375" stroke-width="0.0" fill="url(#shape_48_fill)"/>
    <path d="M 175.8730010986328 118.37174224853516 C 179.32199096679688 116.10816192626953 181.9517059326172 117.40792083740234 183.5261688232422 117.48474884033203 C 184.6953887939453 120.20716094970703 183.85826110839844 122.33844757080078 185.1485595703125 126.48308563232422 C 182.68875122070312 134.47503662109375 186.29409790039062 138.4828338623047 184.65541076660156 142.6718292236328 C 181.88177490234375 147.27818298339844 173.50665283203125 145.4261932373047 171.9329376220703 145.74766540527344 C 170.96986389160156 125.91171264648438 169.0128173828125 121.734130859375 175.8730010986328 118.37174224853516" stroke-width="0.0" fill="url(#shape_49_fill)"/>
    <path d="M 333.6211853027344 428.2920837402344 C 337.0611877441406 428.4740295410156 340.63018798828125 429.6195983886719 342.7767639160156 432.1416320800781 C 346.36279296875 435.591552734375 345.1114501953125 437.2511291503906 342.4706726074219 437.5791015625 C 341.9804382324219 443.803466796875 322.9052429199219 445.9541931152344 321.0023193359375 441.3062438964844 C 318.30352783203125 439.16290283203125 317.55865478515625 433.0282287597656 317.2647399902344 431.293212890625 C 321.93011474609375 426.0826721191406 327.4812927246094 426.7247009277344 333.6211853027344 428.2920837402344" stroke-width="0.0" fill="url(#shape_50_fill)"/>
    <path d="M 295.8248291015625 390.4270324707031 C 297.05548095703125 395.25775146484375 296.5533142089844 399.59228515625 290.1399841308594 399.195556640625 C 286.6290283203125 399.7464294433594 283.8841247558594 401.2715148925781 271.39801025390625 402.7152099609375 C 271.029541015625 401.6263427734375 269.476318359375 399.00872802734375 270.933837890625 397.4453125 C 269.8357238769531 395.5237731933594 272.9096984863281 388.0038146972656 277.3606872558594 388.5875549316406 C 284.0317687988281 386.93878173828125 289.34625244140625 387.18115234375 295.8248291015625 390.4270324707031" stroke-width="0.0" fill="url(#shape_51_fill)"/>
    <path d="M 271.7483825683594 191.70994567871094 C 277.6095886230469 195.41151428222656 278.544189453125 206.12510681152344 279.9773254394531 211.8876190185547 C 270.5346984863281 212.87059020996094 264.96282958984375 210.75973510742188 261.5761413574219 211.5305938720703 C 260.0082702636719 205.53143310546875 263.4017028808594 196.21705627441406 266.248291015625 194.22927856445312 C 269.2691955566406 195.0052032470703 270.0621643066406 192.41549682617188 271.7483825683594 191.70994567871094" stroke-width="0.0" fill="url(#shape_52_fill)"/>
    <path d="M 217.15618896484375 410.6007080078125 C 215.22897338867188 408.4006652832031 216.36793518066406 412.8360290527344 214.3517608642578 414.5238037109375 C 213.50653076171875 417.70123291015625 189.06875610351562 421.04052734375 187.49046325683594 415.656494140625 C 186.26829528808594 408.3533935546875 205.69337463378906 401.5380554199219 217.15618896484375 410.6007080078125" stroke-width="0.0" fill="url(#shape_53_fill)"/>
    <path d="M 205.74136352539062 424.6167297363281 C 205.35572814941406 425.4290466308594 206.2147674560547 428.6287841796875 204.546630859375 429.7032470703125 C 201.66482543945312 433.92236328125 178.84027099609375 433.8125 177.8977508544922 432.8248291015625 C 176.58912658691406 430.9326477050781 178.18283081054688 425.86016845703125 176.67633056640625 424.0080261230469 C 185.9401397705078 419.51715087890625 197.07418823242188 421.6253967285156 205.74136352539062 424.6167297363281" stroke-width="0.0" fill="url(#shape_54_fill)"/>
    <path d="M 270.8939514160156 245.06642150878906 C 275.4269104003906 244.78126525878906 276.6295471191406 245.63778686523438 279.12847900390625 249.04298400878906 C 280.592529296875 250.6272430419922 280.2198181152344 255.61489868164062 281.2428283691406 256.43804931640625 C 263.4622802734375 257.8470458984375 262.928466796875 257.1409606933594 255.5605926513672 255.29335021972656 C 254.87887573242188 248.16812133789062 255.84828186035156 247.23410034179688 258.6327209472656 245.47946166992188 C 262.4000549316406 242.3819122314453 266.5447082519531 243.53257751464844 270.8939514160156 245.06642150878906" stroke-width="0.0" fill="url(#shape_55_fill)"/>
    <path d="M 272.8372802734375 366.1276550292969 C 276.5213317871094 366.86688232421875 280.68865966796875 364.6902160644531 284.38427734375 368.1504821777344 C 285.4056701660156 369.24530029296875 285.4378356933594 371.6614990234375 280.96630859375 375.31817626953125 C 275.1001892089844 375.3758544921875 265.28057861328125 377.93829345703125 256.6759948730469 375.9903869628906 C 253.0174102783203 373.39385986328125 254.52256774902344 368.9458923339844 255.8486328125 368.2285461425781 C 261.2347412109375 366.5750427246094 267.55029296875 366.2328796386719 272.8372802734375 366.1276550292969" stroke-width="0.0" fill="url(#shape_56_fill)"/>
    <path d="M 409.4747009277344 271.6896057128906 C 412.2086486816406 270.1679992675781 416.6177978515625 275.7530822753906 414.0648193359375 278.74481201171875 C 409.702392578125 286.5489196777344 399.28106689453125 282.9595642089844 393.64453125 284.58819580078125 C 391.98248291015625 275.9408264160156 400.3043212890625 269.2784423828125 409.4747009277344 271.6896057128906" stroke-width="0.0" fill="url(#shape_57_fill)"/>
    <path d="M 632.3854370117188 353.01605224609375 C 632.5239868164062 353.09857177734375 660.0374755859375 353.0351257324219 668.5921020507812 353.3279113769531 C 668.5747680664062 358.4896240234375 662.3323364257812 360.81158447265625 656.3694458007812 359.0433349609375 C 654.1558227539062 358.52618408203125 634.1143188476562 361.3883361816406 631.4302978515625 361.1177978515625 C 627.7374267578125 357.15643310546875 629.2889404296875 353.56787109375 632.3854370117188 353.01605224609375" stroke-width="0.0" fill="url(#shape_58_fill)"/>
    <path d="M 343.12481689453125 386.6648864746094 C 340.8762512207031 389.5826416015625 358.15234375 390.362548828125 359.13836669921875 394.8509521484375 C 356.6077575683594 399.8404235839844 342.4089660644531 400.3541564941406 338.45501708984375 399.5096740722656 C 335.14697265625 399.59234619140625 333.0978698730469 398.7628479003906 331.8695373535156 396.5353088378906 C 331.99212646484375 394.91241455078125 330.7481994628906 393.50146484375 332.484619140625 390.6678771972656 C 336.785888671875 388.58331298828125 340.50146484375 389.2020568847656 343.12481689453125 386.6648864746094" stroke-width="0.0" fill="url(#shape_59_fill)"/>
    <path d="M 460.67022705078125 363.50244140625 C 464.84307861328125 362.4474182128906 471.289306640625 367.5411376953125 472.5562744140625 372.64825439453125 C 471.5448303222656 377.88055419921875 470.6641845703125 375.4769592285156 463.0972900390625 375.90264892578125 C 460.4903564453125 378.3828430175781 453.9653015136719 379.20245361328125 451.858154296875 373.00341796875 C 451.6611022949219 367.7159729003906 457.3470153808594 363.1027526855469 460.67022705078125 363.50244140625" stroke-width="0.0" fill="url(#shape_60_fill)"/>
    <path d="M 437.78765869140625 433.1182556152344 C 440.2919616699219 434.2388916015625 442.4991149902344 436.3087463378906 441.98138427734375 439.1325378417969 C 440.5126037597656 442.4608459472656 430.2262268066406 441.17901611328125 425.9188232421875 442.48724365234375 C 422.5094299316406 438.09716796875 424.1856384277344 434.4876708984375 424.41253662109375 433.391845703125 C 428.8121337890625 431.7550048828125 433.6163635253906 432.1800231933594 437.78765869140625 433.1182556152344" stroke-width="0.0" fill="url(#shape_61_fill)"/>
    <path d="M 185.42666625976562 411.46337890625 C 186.25479125976562 413.9355773925781 185.0166473388672 414.7884826660156 186.8917694091797 418.00335693359375 C 184.8308868408203 420.0946044921875 183.4397430419922 419.55987548828125 182.30435180664062 419.66064453125 C 180.38258361816406 420.9433898925781 174.90768432617188 421.2239685058594 171.14041137695312 420.28692626953125 C 169.50257873535156 417.9293212890625 169.75184631347656 415.6441345214844 172.20004272460938 414.4234313964844 C 176.45790100097656 411.8103942871094 180.2909698486328 410.41949462890625 185.42666625976562 411.46337890625" stroke-width="0.0" fill="url(#shape_62_fill)"/>
    <path d="M 332.4259948730469 418.3390197753906 C 335.1026306152344 426.2040100097656 329.6637268066406 428.1197814941406 327.51422119140625 426.14776611328125 C 324.6130065917969 427.7854919433594 323.0147705078125 426.75384521484375 320.29156494140625 427.69000244140625 C 318.6397399902344 426.0610656738281 319.6068420410156 419.9573059082031 317.8058166503906 418.45062255859375 C 322.5369567871094 417.8160705566406 325.83026123046875 416.98907470703125 332.4259948730469 418.3390197753906" stroke-width="0.0" fill="url(#shape_63_fill)"/>
    <path d="M 55.413246154785156 273.9525146484375 C 56.41107177734375 270.9400634765625 66.19570922851562 272.235595703125 65.94566345214844 280.1448974609375 C 61.28822708129883 279.2860107421875 51.20412826538086 276.4444274902344 48.11131286621094 277.055908203125 C 49.615169525146484 272.8578186035156 52.278194427490234 272.3179016113281 55.413246154785156 273.9525146484375" stroke-width="0.0" fill="url(#shape_64_fill)"/>
    <path d="M 304.2551574707031 438.4933166503906 C 304.4303894042969 436.984130859375 305.7821960449219 436.0284118652344 313.159912109375 436.81231689453125 C 314.79132080078125 438.938232421875 313.29400634765625 441.7576904296875 311.62615966796875 444.01123046875 C 307.84747314453125 445.4410400390625 306.7915954589844 444.25091552734375 304.7752990722656 445.5651550292969 C 303.07537841796875 441.4642639160156 302.2628173828125 439.5091247558594 304.2551574707031 438.4933166503906" stroke-width="0.0" fill="url(#shape_65_fill)"/>
    <path d="M 1.5122156143188477 0.5631106495857239 C 223.27267456054688 0.3296765983104706 443.6783752441406 0.40943312644958496 673.4573364257812 0.866953432559967 C 674.0311279296875 148.30860900878906 674.0805053710938 293.53033447265625 673.28759765625 445.349609375 C 450.2473449707031 446.0609436035156 230.517822265625 446.0641784667969 0.7549424171447754 445.297119140625 C 0.046013154089450836 297.4263916015625 -0.12606550753116608 151.057373046875 1.5122156143188477 0.5631106495857239" stroke-width="0.0" fill="url(#shape_66_fill)"/>
    <path d="M 1.653847575187683 0.757307767868042 C 223.296630859375 0.2922813296318054 443.6068115234375 0.38894790410995483 673.4035034179688 0.815098226070404 C 673.997802734375 148.32681274414062 674.0025024414062 293.18914794921875 673.1138916015625 445.16107177734375 C 449.95849609375 445.90155029296875 230.7024688720703 445.92333984375 0.8766571283340454 445.1237487792969 C 0.08150327950716019 297.2227783203125 -0.15866586565971375 150.34152221679688 1.653847575187683 0.757307767868042" stroke-width="0.0" fill="url(#shape_67_fill)"/>
    <path d="M 0.4031258523464203 0.6666672825813293 C 223.385986328125 0.3623260259628296 443.7306213378906 0.5025362372398376 673.4027709960938 0.6121302247047424 C 673.9935913085938 148.3749542236328 674.0068969726562 293.19659423828125 673.1123657226562 445.1392517089844 C 449.95306396484375 445.91754150390625 230.7261199951172 445.93255615234375 0.9672601819038391 445.10784912109375 C 0.10085814446210861 297.0519714355469 -0.11384499073028564 150.12965393066406 0.4031258523464203 0.6666672825813293" stroke-width="0.0" fill="url(#shape_68_fill)"/>
  </g>
</svg>
