<?xml version="1.0" ?>
<svg xmlns="http://www.w3.org/2000/svg" version="1.1" width="674" height="446">
  <defs>
    <radialGradient id="shape_0_fill" cx="0.5311001288077244" cy="0.7389470942886421" r="0.28267669677734375">
      <stop offset="0.7109587" stop-color="rgb(158, 166, 0)" stop-opacity="0.8359068036079407"/>
      <stop offset="1.0" stop-color="rgb(48, 40, 0)" stop-opacity="0.9797228574752808"/>
    </radialGradient>
    <radialGradient id="shape_1_fill" cx="0.5324406383299333" cy="0.7434253093907651" r="0.2066982506998215">
      <stop offset="0.3437141" stop-color="rgb(64, 56, 76)" stop-opacity="0.7279729247093201"/>
      <stop offset="0.9817112" stop-color="rgb(35, 6, 0)" stop-opacity="0.6000240445137024"/>
    </radialGradient>
    <radialGradient id="shape_2_fill" cx="0.09792273546892387" cy="0.7376672719091578" r="0.22062588021026522">
      <stop offset="0.0068663117" stop-color="rgb(51, 113, 190)" stop-opacity="0.8468978404998779"/>
      <stop offset="0.99915695" stop-color="rgb(2, 85, 255)" stop-opacity="0.8920785784721375"/>
    </radialGradient>
    <radialGradient id="shape_3_fill" cx="0.2785878167308049" cy="0.21491409096482622" r="0.1324127151987319">
      <stop offset="0.40647936" stop-color="rgb(127, 170, 0)" stop-opacity="0.7678438425064087"/>
      <stop offset="1.0" stop-color="rgb(35, 30, 0)" stop-opacity="0.9254966974258423"/>
    </radialGradient>
    <radialGradient id="shape_4_fill" cx="0.1543026706231454" cy="0.9977578475336323" r="0.10288926755639141">
      <stop offset="0.0" stop-color="rgb(81, 79, 86)" stop-opacity="1.0"/>
      <stop offset="1.0" stop-color="rgb(48, 36, 62)" stop-opacity="0.8475269675254822"/>
    </radialGradient>
    <radialGradient id="shape_5_fill" cx="0.14807964290992442" cy="0.23997249517740155" r="0.11810664960821587">
      <stop offset="0.0" stop-color="rgb(255, 255, 255)" stop-opacity="0.6465655565261841"/>
      <stop offset="0.5626593" stop-color="rgb(255, 255, 255)" stop-opacity="0.5171613693237305"/>
    </radialGradient>
    <radialGradient id="shape_6_fill" cx="0.18397626112759644" cy="0.9977578475336323" r="0.0754974885934892">
      <stop offset="0.0" stop-color="rgb(93, 90, 94)" stop-opacity="1.0"/>
      <stop offset="1.0" stop-color="rgb(149, 127, 134)" stop-opacity="0.8516789674758911"/>
    </radialGradient>
    <radialGradient id="shape_7_fill" cx="0.2893175074183976" cy="0.05829596412556054" r="0.08666390552011372">
      <stop offset="0.0" stop-color="rgb(55, 66, 29)" stop-opacity="1.0"/>
      <stop offset="1.0" stop-color="rgb(122, 130, 57)" stop-opacity="0.574126660823822"/>
    </radialGradient>
    <radialGradient id="shape_8_fill" cx="0.3382789091115889" cy="0.9439461883408071" r="0.06756690277190167">
      <stop offset="0.0" stop-color="rgb(91, 124, 45)" stop-opacity="1.0"/>
      <stop offset="1.0" stop-color="rgb(79, 131, 0)" stop-opacity="0.5436962246894836"/>
    </radialGradient>
    <radialGradient id="shape_9_fill" cx="0.30712166172106825" cy="0.9977578475336323" r="0.0730758406641929">
      <stop offset="0.0" stop-color="rgb(38, 48, 20)" stop-opacity="1.0"/>
      <stop offset="1.0" stop-color="rgb(34, 27, 53)" stop-opacity="1.0"/>
    </radialGradient>
    <radialGradient id="shape_10_fill" cx="0.3056379821958457" cy="0.9977578475336323" r="0.06792919147615971">
      <stop offset="0.0" stop-color="rgb(39, 49, 21)" stop-opacity="1.0"/>
      <stop offset="1.0" stop-color="rgb(32, 5, 0)" stop-opacity="0.6473652720451355"/>
    </radialGradient>
    <radialGradient id="shape_11_fill" cx="0.21810089020771514" cy="0.968609865470852" r="0.06792919147615971">
      <stop offset="0.0" stop-color="rgb(138, 135, 129)" stop-opacity="1.0"/>
      <stop offset="1.0" stop-color="rgb(114, 63, 39)" stop-opacity="0.3978297710418701"/>
    </radialGradient>
    <radialGradient id="shape_12_fill" cx="0.29080118694362017" cy="0.9977578475336323" r="0.07480746985189285">
      <stop offset="0.0" stop-color="rgb(22, 25, 13)" stop-opacity="1.0"/>
      <stop offset="1.0" stop-color="rgb(38, 30, 15)" stop-opacity="1.0"/>
    </radialGradient>
    <radialGradient id="shape_13_fill" cx="0.327893175074184" cy="0.8923766816143498" r="0.06900465877544279">
      <stop offset="0.0" stop-color="rgb(89, 117, 50)" stop-opacity="1.0"/>
      <stop offset="1.0" stop-color="rgb(92, 119, 8)" stop-opacity="0.6376209855079651"/>
    </radialGradient>
    <radialGradient id="shape_14_fill" cx="0.142433234421365" cy="0.9977578475336323" r="0.06617211022079875">
      <stop offset="0.0" stop-color="rgb(155, 150, 153)" stop-opacity="1.0"/>
      <stop offset="1.0" stop-color="rgb(255, 136, 135)" stop-opacity="0.22659429907798767"/>
    </radialGradient>
    <radialGradient id="shape_15_fill" cx="0.31008902077151335" cy="0.9977578475336323" r="0.06683642786405207">
      <stop offset="0.0" stop-color="rgb(43, 55, 23)" stop-opacity="1.0"/>
      <stop offset="1.0" stop-color="rgb(62, 65, 22)" stop-opacity="0.8629001975059509"/>
    </radialGradient>
    <radialGradient id="shape_16_fill" cx="0.27299703264094954" cy="0.9977578475336323" r="0.08110449363640579">
      <stop offset="0.0" stop-color="rgb(31, 35, 19)" stop-opacity="1.0"/>
      <stop offset="1.0" stop-color="rgb(30, 23, 0)" stop-opacity="0.9396042227745056"/>
    </radialGradient>
    <radialGradient id="shape_17_fill" cx="0.2893175074183976" cy="0.9977578475336323" r="0.07513486030193747">
      <stop offset="0.0" stop-color="rgb(22, 23, 13)" stop-opacity="1.0"/>
      <stop offset="1.0" stop-color="rgb(26, 19, 0)" stop-opacity="0.8520358800888062"/>
    </radialGradient>
    <radialGradient id="shape_18_fill" cx="0.3293768545994065" cy="0.7556053811659192" r="0.06617211022079875">
      <stop offset="0.0" stop-color="rgb(83, 108, 65)" stop-opacity="1.0"/>
      <stop offset="1.0" stop-color="rgb(105, 120, 57)" stop-opacity="0.9629483819007874"/>
    </radialGradient>
    <radialGradient id="shape_19_fill" cx="0.3516320474777448" cy="0.9977578475336323" r="0.06617211022079875">
      <stop offset="0.0" stop-color="rgb(95, 135, 39)" stop-opacity="1.0"/>
      <stop offset="1.0" stop-color="rgb(129, 184, 0)" stop-opacity="0.6345637440681458"/>
    </radialGradient>
    <radialGradient id="shape_20_fill" cx="0.0830860534124629" cy="0.9977578475336323" r="0.06792919147615971">
      <stop offset="0.0" stop-color="rgb(49, 52, 66)" stop-opacity="1.0"/>
      <stop offset="1.0" stop-color="rgb(46, 30, 66)" stop-opacity="0.45207375288009644"/>
    </radialGradient>
    <radialGradient id="shape_21_fill" cx="0.29821958456973297" cy="0.9977578475336323" r="0.06792919147615971">
      <stop offset="0.0" stop-color="rgb(33, 40, 17)" stop-opacity="1.0"/>
      <stop offset="1.0" stop-color="rgb(50, 63, 0)" stop-opacity="0.7116044163703918"/>
    </radialGradient>
    <radialGradient id="shape_22_fill" cx="0.3563326600751113" cy="0.44372438849889645" r="0.06594546966099951">
      <stop offset="0.52384716" stop-color="rgb(109, 134, 39)" stop-opacity="1.0"/>
      <stop offset="0.38891584" stop-color="rgb(146, 171, 41)" stop-opacity="0.9113593697547913"/>
    </radialGradient>
    <radialGradient id="shape_23_fill" cx="0.6454005934718101" cy="0.1412556053811659" r="0.06617211022079875">
      <stop offset="0.0" stop-color="rgb(46, 38, 13)" stop-opacity="1.0"/>
      <stop offset="1.0" stop-color="rgb(54, 27, 0)" stop-opacity="0.8851330280303955"/>
    </radialGradient>
    <radialGradient id="shape_24_fill" cx="0.2492550586734398" cy="0.4843076355254169" r="0.06616971047059012">
      <stop offset="0.0" stop-color="rgb(205, 213, 206)" stop-opacity="1.0"/>
      <stop offset="0.92454517" stop-color="rgb(255, 255, 255)" stop-opacity="0.3247976005077362"/>
    </radialGradient>
    <radialGradient id="shape_25_fill" cx="0.6320474777448071" cy="0.9977578475336323" r="0.06617211022079875">
      <stop offset="0.0" stop-color="rgb(35, 28, 8)" stop-opacity="1.0"/>
      <stop offset="1.0" stop-color="rgb(39, 15, 0)" stop-opacity="0.8561338782310486"/>
    </radialGradient>
    <radialGradient id="shape_26_fill" cx="0.15414520399506793" cy="0.3207086811151205" r="0.06604698362265567">
      <stop offset="0.11989566" stop-color="rgb(198, 211, 155)" stop-opacity="1.0"/>
      <stop offset="0.58338004" stop-color="rgb(167, 144, 112)" stop-opacity="0.3772481381893158"/>
    </radialGradient>
    <radialGradient id="shape_27_fill" cx="0.15410647972401242" cy="0.3208032787648017" r="0.06604505929465818">
      <stop offset="0.0" stop-color="rgb(192, 205, 0)" stop-opacity="1.0"/>
      <stop offset="0.49375948" stop-color="rgb(35, 27, 16)" stop-opacity="0.432510107755661"/>
    </radialGradient>
    <radialGradient id="shape_28_fill" cx="0.033622175720395955" cy="0.014835763939827547" r="0.07317441153597054">
      <stop offset="0.094072685" stop-color="rgb(8, 19, 112)" stop-opacity="0.935655415058136"/>
      <stop offset="0.820582" stop-color="rgb(8, 17, 146)" stop-opacity="0.7131088972091675"/>
    </radialGradient>
    <radialGradient id="shape_29_fill" cx="0.33976258863681147" cy="0.6659192825112108" r="0.06617211022079875">
      <stop offset="0.0" stop-color="rgb(90, 117, 55)" stop-opacity="1.0"/>
      <stop offset="1.0" stop-color="rgb(107, 129, 28)" stop-opacity="0.8666303157806396"/>
    </radialGradient>
    <radialGradient id="shape_30_fill" cx="0.038732622073029195" cy="0.015953140943039693" r="0.06961380480305024">
      <stop offset="0.17607951" stop-color="rgb(50, 69, 76)" stop-opacity="1.0"/>
      <stop offset="0.9326596" stop-color="rgb(66, 64, 0)" stop-opacity="0.4887402355670929"/>
    </radialGradient>
    <radialGradient id="shape_31_fill" cx="0.12314540059347182" cy="0.9977578475336323" r="0.06617211022079875">
      <stop offset="0.0" stop-color="rgb(95, 103, 98)" stop-opacity="1.0"/>
      <stop offset="1.0" stop-color="rgb(136, 118, 109)" stop-opacity="0.7343740463256836"/>
    </radialGradient>
    <radialGradient id="shape_32_fill" cx="0.4035608308605341" cy="0.984304932735426" r="0.06617211022079875">
      <stop offset="0.0" stop-color="rgb(126, 155, 63)" stop-opacity="1.0"/>
      <stop offset="1.0" stop-color="rgb(82, 48, 4)" stop-opacity="0.47889432311058044"/>
    </radialGradient>
    <radialGradient id="shape_33_fill" cx="0.3249258160237389" cy="0.6053811659192825" r="0.06617211022079875">
      <stop offset="1.5749225e-05" stop-color="rgb(93, 124, 71)" stop-opacity="0.999808132648468"/>
      <stop offset="1.0" stop-color="rgb(123, 138, 58)" stop-opacity="1.0"/>
    </radialGradient>
    <radialGradient id="shape_34_fill" cx="0.6468842729970327" cy="0.531390134529148" r="0.06617211022079875">
      <stop offset="0.0" stop-color="rgb(54, 47, 24)" stop-opacity="1.0"/>
      <stop offset="1.0" stop-color="rgb(43, 4, 35)" stop-opacity="0.3666626811027527"/>
    </radialGradient>
    <radialGradient id="shape_35_fill" cx="0.15130406954168213" cy="0.23730431116215317" r="0.06614876359435853">
      <stop offset="0.1234522" stop-color="rgb(212, 255, 98)" stop-opacity="0.1286543607711792"/>
      <stop offset="0.5219073" stop-color="rgb(104, 69, 66)" stop-opacity="0.882472813129425"/>
    </radialGradient>
    <radialGradient id="shape_36_fill" cx="0.2878338278931751" cy="0.9977578475336323" r="0.06617211022079875">
      <stop offset="0.0" stop-color="rgb(80, 96, 53)" stop-opacity="1.0"/>
      <stop offset="1.0" stop-color="rgb(20, 13, 0)" stop-opacity="0.776718258857727"/>
    </radialGradient>
    <radialGradient id="shape_37_fill" cx="0.129080118694362" cy="0.9977578475336323" r="0.06617211022079875">
      <stop offset="0.0" stop-color="rgb(87, 97, 81)" stop-opacity="1.0"/>
      <stop offset="1.0" stop-color="rgb(61, 61, 57)" stop-opacity="0.5954063534736633"/>
    </radialGradient>
    <radialGradient id="shape_38_fill" cx="0.33892324204260943" cy="0.5607740119968294" r="0.0666785763703751">
      <stop offset="0.7501433" stop-color="rgb(87, 108, 30)" stop-opacity="0.9284582138061523"/>
      <stop offset="0.6022492" stop-color="rgb(164, 244, 78)" stop-opacity="0.8743168711662292"/>
    </radialGradient>
    <radialGradient id="shape_39_fill" cx="0.40059347181008903" cy="0.9641255605381166" r="0.06617211022079875">
      <stop offset="0.0" stop-color="rgb(138, 168, 60)" stop-opacity="1.0"/>
      <stop offset="1.0" stop-color="rgb(222, 255, 84)" stop-opacity="0.8102062940597534"/>
    </radialGradient>
    <radialGradient id="shape_40_fill" cx="0.6100849638353115" cy="0.8742787314102789" r="0.07252126631467916">
      <stop offset="0.3668" stop-color="rgb(162, 144, 172)" stop-opacity="0.2593526244163513"/>
      <stop offset="0.5313568" stop-color="rgb(1, 5, 56)" stop-opacity="0.7459964156150818"/>
    </radialGradient>
    <radialGradient id="shape_41_fill" cx="0.6454005934718101" cy="0.08744394618834081" r="0.06617211022079875">
      <stop offset="0.0" stop-color="rgb(58, 48, 21)" stop-opacity="1.0"/>
      <stop offset="1.0" stop-color="rgb(92, 59, 24)" stop-opacity="0.9985650181770325"/>
    </radialGradient>
    <radialGradient id="shape_42_fill" cx="0.5845697329376854" cy="0.6188340807174888" r="0.06617211022079875">
      <stop offset="0.0" stop-color="rgb(62, 59, 56)" stop-opacity="1.0"/>
      <stop offset="1.0" stop-color="rgb(44, 34, 81)" stop-opacity="0.6387122869491577"/>
    </radialGradient>
    <radialGradient id="shape_43_fill" cx="0.354296268270702" cy="0.5017532896033317" r="0.07028548583078809">
      <stop offset="0.24383195" stop-color="rgb(121, 149, 54)" stop-opacity="0.9281250834465027"/>
      <stop offset="0.6218022" stop-color="rgb(202, 252, 21)" stop-opacity="0.7240452170372009"/>
    </radialGradient>
    <radialGradient id="shape_44_fill" cx="0.5934718100890207" cy="0.9977578475336323" r="0.06617211022079875">
      <stop offset="0.0" stop-color="rgb(89, 61, 18)" stop-opacity="1.0"/>
      <stop offset="1.0" stop-color="rgb(165, 76, 7)" stop-opacity="0.6814302802085876"/>
    </radialGradient>
    <radialGradient id="shape_45_fill" cx="0.612759643916914" cy="0.04035874439461883" r="0.06617211022079875">
      <stop offset="0.0" stop-color="rgb(157, 136, 123)" stop-opacity="1.0"/>
      <stop offset="1.0" stop-color="rgb(255, 214, 203)" stop-opacity="1.0"/>
    </radialGradient>
    <radialGradient id="shape_46_fill" cx="0.28635014836795253" cy="0.9977578475336323" r="0.06617211022079875">
      <stop offset="0.0" stop-color="rgb(82, 99, 55)" stop-opacity="1.0"/>
      <stop offset="1.0" stop-color="rgb(91, 93, 31)" stop-opacity="0.5631126761436462"/>
    </radialGradient>
    <radialGradient id="shape_47_fill" cx="0.28635014836795253" cy="0.8183856502242153" r="0.06617211022079875">
      <stop offset="0.0" stop-color="rgb(166, 189, 197)" stop-opacity="1.0"/>
      <stop offset="1.0" stop-color="rgb(243, 255, 255)" stop-opacity="0.4412805438041687"/>
    </radialGradient>
    <radialGradient id="shape_48_fill" cx="0.40801186943620177" cy="0.9977578475336323" r="0.06617211022079875">
      <stop offset="0.0" stop-color="rgb(107, 135, 68)" stop-opacity="1.0"/>
      <stop offset="1.0" stop-color="rgb(126, 133, 56)" stop-opacity="1.0"/>
    </radialGradient>
    <radialGradient id="shape_49_fill" cx="0.19287833827893175" cy="0.3991031390134529" r="0.06617211022079875">
      <stop offset="0.0" stop-color="rgb(92, 100, 54)" stop-opacity="1.0"/>
      <stop offset="1.0" stop-color="rgb(51, 19, 0)" stop-opacity="0.5037685632705688"/>
    </radialGradient>
    <radialGradient id="shape_50_fill" cx="0.6439169139465876" cy="0.7376681614349776" r="0.06617211022079875">
      <stop offset="0.0" stop-color="rgb(65, 56, 25)" stop-opacity="1.0"/>
      <stop offset="1.0" stop-color="rgb(148, 166, 82)" stop-opacity="0.34268563985824585"/>
    </radialGradient>
    <radialGradient id="shape_51_fill" cx="0.5845697329376854" cy="0.6322869955156951" r="0.06617211022079875">
      <stop offset="0.0" stop-color="rgb(75, 68, 60)" stop-opacity="1.0"/>
      <stop offset="1.0" stop-color="rgb(195, 141, 111)" stop-opacity="0.4255015552043915"/>
    </radialGradient>
    <radialGradient id="shape_52_fill" cx="0.2997032640949555" cy="0.6031390134529148" r="0.06617211022079875">
      <stop offset="0.0" stop-color="rgb(107, 158, 118)" stop-opacity="1.0"/>
      <stop offset="1.0" stop-color="rgb(172, 255, 210)" stop-opacity="0.5749794244766235"/>
    </radialGradient>
    <radialGradient id="shape_53_fill" cx="0.6097922848664689" cy="0.45067264573991034" r="0.06617211022079875">
      <stop offset="0.0" stop-color="rgb(38, 39, 27)" stop-opacity="1.0"/>
      <stop offset="1.0" stop-color="rgb(16, 5, 66)" stop-opacity="0.3263424336910248"/>
    </radialGradient>
    <radialGradient id="shape_54_fill" cx="0.6335311572700296" cy="0.426009002822397" r="0.06617211022079875">
      <stop offset="0.0" stop-color="rgb(67, 49, 20)" stop-opacity="1.0"/>
      <stop offset="1.0" stop-color="rgb(181, 93, 38)" stop-opacity="0.42345720529556274"/>
    </radialGradient>
    <radialGradient id="shape_55_fill" cx="0.3707168533823257" cy="0.5988430827187851" r="0.066001377049115">
      <stop offset="0.43605936" stop-color="rgb(245, 255, 54)" stop-opacity="0.8312860727310181"/>
      <stop offset="0.16089156" stop-color="rgb(235, 255, 49)" stop-opacity="0.840851366519928"/>
    </radialGradient>
    <radialGradient id="shape_56_fill" cx="0.5489614243323442" cy="0.600896860986547" r="0.06617211022079875">
      <stop offset="0.0" stop-color="rgb(50, 62, 80)" stop-opacity="1.0"/>
      <stop offset="1.0" stop-color="rgb(35, 91, 255)" stop-opacity="0.4439488649368286"/>
    </radialGradient>
    <radialGradient id="shape_57_fill" cx="0.4094955489614243" cy="0.9035874439461884" r="0.06617211022079875">
      <stop offset="0.0" stop-color="rgb(111, 144, 47)" stop-opacity="1.0"/>
      <stop offset="1.0" stop-color="rgb(213, 255, 64)" stop-opacity="0.7696253657341003"/>
    </radialGradient>
    <radialGradient id="shape_58_fill" cx="0.5281899109792285" cy="0.9977578475336323" r="0.06617211022079875">
      <stop offset="0.0" stop-color="rgb(50, 43, 14)" stop-opacity="1.0"/>
      <stop offset="1.0" stop-color="rgb(87, 59, 18)" stop-opacity="1.0"/>
    </radialGradient>
    <radialGradient id="shape_59_fill" cx="0.5845697329376854" cy="0.7690582959641256" r="0.06617211022079875">
      <stop offset="0.0" stop-color="rgb(61, 63, 58)" stop-opacity="1.0"/>
      <stop offset="1.0" stop-color="rgb(79, 69, 90)" stop-opacity="0.7099645733833313"/>
    </radialGradient>
    <radialGradient id="shape_60_fill" cx="0.5489614243323442" cy="0.9977578475336323" r="0.06617211022079875">
      <stop offset="0.0" stop-color="rgb(140, 131, 64)" stop-opacity="1.0"/>
      <stop offset="1.0" stop-color="rgb(230, 195, 92)" stop-opacity="0.8746039867401123"/>
    </radialGradient>
    <radialGradient id="shape_61_fill" cx="0.6469716601272719" cy="0.96866973740103" r="0.06610439651443979">
      <stop offset="0.463088" stop-color="rgb(241, 186, 61)" stop-opacity="0.9223082065582275"/>
      <stop offset="0.21278743" stop-color="rgb(144, 66, 81)" stop-opacity="0.43017852306365967"/>
    </radialGradient>
    <radialGradient id="shape_62_fill" cx="0.615727002967359" cy="0.3991031390134529" r="0.06617211022079875">
      <stop offset="0.0" stop-color="rgb(55, 47, 13)" stop-opacity="1.0"/>
      <stop offset="1.0" stop-color="rgb(83, 52, 6)" stop-opacity="0.8531090021133423"/>
    </radialGradient>
    <radialGradient id="shape_63_fill" cx="0.6261127596439169" cy="0.7286995515695067" r="0.06617211022079875">
      <stop offset="0.0" stop-color="rgb(79, 66, 32)" stop-opacity="1.0"/>
      <stop offset="1.0" stop-color="rgb(199, 187, 92)" stop-opacity="0.5006018877029419"/>
    </radialGradient>
    <radialGradient id="shape_64_fill" cx="0.40801186943620177" cy="0.12556053811659193" r="0.06617211022079875">
      <stop offset="0.0" stop-color="rgb(76, 66, 59)" stop-opacity="1.0"/>
      <stop offset="1.0" stop-color="rgb(155, 119, 121)" stop-opacity="1.0"/>
    </radialGradient>
    <radialGradient id="shape_65_fill" cx="0.6528189910979229" cy="0.6883408071748879" r="0.06617211022079875">
      <stop offset="0.0" stop-color="rgb(121, 97, 39)" stop-opacity="1.0"/>
      <stop offset="1.0" stop-color="rgb(255, 218, 93)" stop-opacity="1.0"/>
    </radialGradient>
    <radialGradient id="shape_66_fill" cx="0.6520789624675445" cy="0.4574275337527151" r="0.07076500006882303">
      <stop offset="0.25522572" stop-color="rgb(184, 213, 115)" stop-opacity="0.29910141229629517"/>
      <stop offset="0.76108736" stop-color="rgb(0, 16, 0)" stop-opacity="0.054252710193395615"/>
    </radialGradient>
    <radialGradient id="shape_67_fill" cx="0.5979358888167656" cy="0.9948209069769479" r="0.07100080948555151">
      <stop offset="0.83613104" stop-color="rgb(49, 27, 0)" stop-opacity="0.6128241419792175"/>
      <stop offset="1.0" stop-color="rgb(0, 27, 0)" stop-opacity="0.15354715287685394"/>
    </radialGradient>
    <radialGradient id="shape_68_fill" cx="0.4927125472343286" cy="0.9979945982518218" r="0.06865212188630146">
      <stop offset="0.3957352" stop-color="rgb(40, 11, 0)" stop-opacity="0.4232679605484009"/>
      <stop offset="1.0" stop-color="rgb(27, 64, 52)" stop-opacity="0.175490140914917"/>
    </radialGradient>
  </defs>
  <g>
    <path d="M 0.028199700638651848 271.4322509765625 C 16.01161003112793 254.84732055664062 47.24124526977539 257.2994079589844 47.16017532348633 270.8826599121094 C 48.32731246948242 272.7457580566406 49.317420959472656 276.19512939453125 57.20047378540039 274.67706298828125 C 57.1857795715332 273.8670654296875 61.89640426635742 273.3475341796875 62.31888198852539 268.9141540527344 C 68.34136199951172 267.7467041015625 100.66715240478516 268.95849609375 116.76815795898438 269.2651672363281 C 119.40945434570312 271.6833190917969 125.19723510742188 278.18170166015625 126.59520721435547 282.3920593261719 C 134.7013702392578 282.7992858886719 147.91079711914062 280.6061096191406 176.34097290039062 290.8714904785156 C 185.32257080078125 283.14642333984375 186.07623291015625 281.27557373046875 206.7013397216797 287.2569274902344 C 200.62094116210938 286.8316345214844 198.40054321289062 280.89276123046875 211.1862030029297 267.7234191894531 C 250.1231231689453 264.7112731933594 294.2821044921875 262.43731689453125 310.87982177734375 272.6596374511719 C 348.4714660644531 274.1493225097656 423.5164794921875 274.6272888183594 481.2485656738281 262.9291076660156 C 512.4298095703125 257.6535339355469 548.9717407226562 258.8612365722656 548.4872436523438 273.7987060546875 C 547.01123046875 273.7690124511719 547.072998046875 262.400146484375 578.3236694335938 262.5689392089844 C 597.7660522460938 266.8528137207031 612.3005981445312 279.0000915527344 612.3566284179688 279.7854309082031 C 611.7681274414062 265.7523193359375 623.8806762695312 265.226318359375 673.423095703125 265.7073974609375 C 676.779052734375 272.2884521484375 679.37158203125 278.8263854980469 678.4677124023438 284.9035339355469 C 676.6203002929688 339.5309143066406 674.7125244140625 391.4862060546875 675.1177368164062 446.4668273925781 C 451.9151306152344 446.6697692871094 228.9889373779297 446.8115539550781 -0.43556830286979675 446.4240417480469 C -0.5172556042671204 389.140869140625 -0.8153016567230225 332.2572021484375 0.028199700638651848 271.4322509765625" stroke-width="0.0" fill="url(#shape_0_fill)"/>
    <path d="M -0.2676410675048828 270.9379577636719 C 35.93415069580078 275.3900451660156 36.5576057434082 274.58306884765625 43.98987579345703 273.1274719238281 C 44.39741897583008 265.83905029296875 58.19442367553711 265.59619140625 81.35724639892578 266.2567138671875 C 113.74848175048828 278.67987060546875 114.08956146240234 279.3109130859375 128.26365661621094 279.1575927734375 C 127.74686431884766 269.9241943359375 134.67803955078125 269.143310546875 144.73516845703125 269.60565185546875 C 185.24781799316406 268.79913330078125 186.1275634765625 268.9090881347656 205.9827423095703 271.6798095703125 C 203.66233825683594 292.1656494140625 204.3704833984375 292.3168640136719 208.68829345703125 298.8778991699219 C 213.68563842773438 298.2195129394531 268.14532470703125 298.62518310546875 293.1318359375 301.1319580078125 C 304.9281311035156 306.95965576171875 440.65118408203125 303.8426818847656 460.2287292480469 304.60919189453125 C 473.7097473144531 293.00347900390625 493.1746826171875 293.2943420410156 504.5615234375 286.937744140625 C 516.506591796875 289.4093017578125 521.337890625 286.8747863769531 523.2757568359375 286.62176513671875 C 527.3737182617188 285.7638854980469 531.6765747070312 286.0274658203125 533.9242553710938 287.2602233886719 C 538.7398681640625 287.60650634765625 540.2339477539062 288.93817138671875 538.3904418945312 311.28350830078125 C 579.7050170898438 292.2846984863281 581.6426391601562 292.8153381347656 601.55029296875 299.37481689453125 C 620.5676879882812 289.3954162597656 629.7737426757812 288.2039794921875 633.70751953125 288.4825744628906 C 636.899169921875 274.6590576171875 654.3239135742188 275.2445983886719 673.62353515625 294.2130126953125 C 674.470458984375 339.7522888183594 674.5185546875 392.0550842285156 674.1581420898438 446.2807922363281 C 451.4774169921875 446.3905334472656 229.19664001464844 446.25439453125 -0.30765825510025024 446.2476501464844 C -0.21065282821655273 389.403564453125 -0.3106207251548767 333.0142822265625 -0.2676410675048828 270.9379577636719" stroke-width="0.0" fill="url(#shape_1_fill)"/>
    <path d="M -0.019932541996240616 -0.25989267230033875 C 219.69313049316406 0.1040392518043518 439.478759765625 -0.45242562890052795 674.6805419921875 -0.019713977351784706 C 665.7939453125 10.605783462524414 645.056640625 34.87950897216797 637.2192993164062 49.624061584472656 C 634.471435546875 53.024600982666016 612.0485229492188 91.67377471923828 584.017822265625 83.83149719238281 C 576.8818359375 81.24896240234375 564.7138061523438 72.13063049316406 532.3187255859375 74.29759216308594 C 531.9329223632812 79.60614013671875 528.1566772460938 80.41156005859375 522.054931640625 72.03379821777344 C 522.70458984375 68.92909240722656 499.33538818359375 63.909427642822266 498.9082336425781 62.58840560913086 C 493.3476867675781 62.263065338134766 486.136962890625 61.11104202270508 484.3628234863281 68.81673431396484 C 475.2646179199219 72.86094665527344 476.32275390625 76.13003540039062 476.72686767578125 80.90925598144531 C 483.2601013183594 100.53279113769531 480.6061706542969 120.17715454101562 481.1278991699219 123.1566162109375 C 460.3045654296875 116.81627655029297 459.31451416015625 114.88932800292969 450.9017639160156 108.54080963134766 C 435.3824462890625 107.43363952636719 411.77630615234375 101.63712310791016 409.324462890625 105.51286315917969 C 412.93316650390625 122.07295227050781 419.72216796875 129.2734375 413.12274169921875 139.32997131347656 C 411.1416931152344 152.71340942382812 394.479736328125 152.16732788085938 394.58843994140625 135.4884490966797 C 382.9765930175781 139.45079040527344 382.0481262207031 158.1858367919922 370.7835998535156 157.81646728515625 C 366.14532470703125 156.28433227539062 363.21160888671875 158.99362182617188 353.77984619140625 158.3050994873047 C 348.1286926269531 163.63589477539062 345.5349426269531 165.3234100341797 347.6259765625 171.4243927001953 C 343.5975341796875 177.12571716308594 341.9140930175781 176.1399688720703 351.3066711425781 159.59519958496094 C 292.57415771484375 155.0797119140625 292.0023193359375 161.5234832763672 290.6141662597656 170.90383911132812 C 306.2823486328125 185.7807159423828 304.16253662109375 189.1612548828125 307.5180969238281 201.38406372070312 C 307.5727233886719 200.59255981445312 306.4010925292969 198.1317138671875 304.87384033203125 190.25843811035156 C 304.0433349609375 185.670166015625 302.72296142578125 184.43360900878906 291.22430419921875 171.0575714111328 C 289.858642578125 194.54258728027344 289.0056457519531 195.95970153808594 289.3775939941406 196.3038330078125 C 289.3706970214844 189.9287872314453 291.61572265625 181.6875762939453 290.62158203125 165.49057006835938 C 270.1605224609375 168.1881103515625 265.5167236328125 175.14547729492188 262.0643615722656 173.11703491210938 C 256.3379211425781 184.27452087402344 255.94461059570312 189.39488220214844 254.80609130859375 197.1207275390625 C 260.62957763671875 199.2598114013672 260.47406005859375 199.88446044921875 258.0711669921875 199.55352783203125 C 257.1051330566406 198.4292449951172 253.91273498535156 196.5050506591797 255.42596435546875 193.88796997070312 C 255.8136444091797 181.172119140625 262.53521728515625 179.53724670410156 263.8587341308594 161.6573944091797 C 262.23358154296875 157.51539611816406 215.65179443359375 143.76876831054688 212.25767517089844 142.6900177001953 C 187.22286987304688 134.77392578125 195.47366333007812 106.38561248779297 191.21221923828125 86.244140625 C 190.8189239501953 84.65972137451172 162.93704223632812 74.52537536621094 128.8035430908203 57.86604309082031 C 99.71788787841797 38.747745513916016 76.32264709472656 58.95564651489258 47.71247482299805 57.075950622558594 C 29.96289825439453 70.49518585205078 1.6823840141296387 69.96585845947266 -0.8516914248466492 69.4208755493164 C 0.34183040261268616 43.958133697509766 -0.3314551115036011 22.56187629699707 -0.019932541996240616 -0.25989267230033875" stroke-width="0.0" fill="url(#shape_2_fill)"/>
    <path d="M 87.25089263916016 58.034671783447266 C 88.83493041992188 68.82128143310547 91.75238800048828 68.97113800048828 93.78955078125 71.96240997314453 C 90.0022964477539 80.0090103149414 93.04006958007812 81.82426452636719 88.96576690673828 94.302978515625 C 95.80917358398438 85.84291076660156 98.13497924804688 86.52007293701172 102.86573791503906 87.75227355957031 C 105.11256408691406 75.12715148925781 105.60466766357422 73.2411117553711 108.17186737060547 73.65303039550781 C 112.72998809814453 86.52408599853516 109.73250579833984 92.29850006103516 117.56591033935547 98.6604232788086 C 115.85346984863281 100.03528594970703 116.96573638916016 109.54478454589844 115.40773010253906 115.07634735107422 C 120.53598022460938 115.31089782714844 128.0414276123047 116.29144287109375 129.78326416015625 112.0927505493164 C 131.16864013671875 111.1410140991211 137.00440979003906 109.80255126953125 136.82479858398438 105.07034301757812 C 136.70091247558594 103.7195816040039 135.60311889648438 101.92930603027344 138.1317138671875 100.11528015136719 C 136.56805419921875 93.28662872314453 137.61654663085938 92.94242858886719 137.7969207763672 90.03947448730469 C 137.34689331054688 85.5481948852539 138.53016662597656 85.10244750976562 140.1842041015625 89.3047103881836 C 140.82249450683594 83.33147430419922 146.72372436523438 80.0636978149414 148.5926055908203 79.10346984863281 C 148.16558837890625 93.29715728759766 149.5885772705078 94.55281829833984 152.53585815429688 99.69571685791016 C 153.99794006347656 102.5247802734375 149.84083557128906 106.8281021118164 148.88925170898438 106.7832260131836 C 152.3023681640625 109.4141845703125 149.9765625 113.91607666015625 148.163818359375 113.17967224121094 C 154.0819091796875 112.9606704711914 158.19935607910156 122.60020446777344 156.9896697998047 123.40229797363281 C 160.70753479003906 124.7759780883789 164.74667358398438 123.41961669921875 169.72772216796875 122.85353088378906 C 174.3997039794922 119.73592376708984 175.79039001464844 121.5076675415039 177.6026153564453 122.46467590332031 C 179.30755615234375 122.73721313476562 180.11721801757812 124.94950103759766 183.6849365234375 127.15160369873047 C 183.9232635498047 130.03057861328125 182.68922424316406 132.72039794921875 185.93569946289062 134.36544799804688 C 188.73175048828125 135.48944091796875 190.15570068359375 137.31167602539062 187.4962921142578 143.82742309570312 C 197.5006561279297 148.97933959960938 208.8365020751953 153.3463897705078 201.61769104003906 172.58399963378906 C 205.62168884277344 177.20852661132812 206.4888916015625 179.37310791015625 205.1205596923828 181.54762268066406 C 213.53759765625 181.0588836669922 215.12965393066406 192.9044189453125 212.7333984375 200.83746337890625 C 204.3187713623047 205.77798461914062 202.84584045410156 206.01756286621094 203.50453186035156 210.08103942871094 C 200.39529418945312 210.3921661376953 200.40110778808594 211.84161376953125 198.77218627929688 212.93824768066406 C 196.50857543945312 215.53163146972656 192.7691192626953 215.24717712402344 192.1844940185547 219.71580505371094 C 184.29913330078125 220.55514526367188 183.6719512939453 224.7849578857422 178.19610595703125 230.15505981445312 C 176.4275360107422 233.3837890625 181.7841796875 237.6426239013672 181.51492309570312 238.16908264160156 C 181.61256408691406 251.95590209960938 185.68869018554688 260.7430419921875 179.89878845214844 264.13995361328125 C 168.70030212402344 270.35400390625 148.2747039794922 267.5279235839844 136.09268188476562 269.53997802734375 C 131.5519256591797 268.8860168457031 128.92306518554688 272.27227783203125 122.89749908447266 275.46270751953125 C 109.15929412841797 276.5679931640625 73.35128021240234 275.8626708984375 72.98793029785156 270.13311767578125 C 47.76957702636719 266.80401611328125 56.607723236083984 268.5936279296875 58.390567779541016 273.28961181640625 C 48.8007698059082 276.73040771484375 1.0646352767944336 272.6992492675781 0.7534408569335938 269.8280334472656 C -6.632740020751953 226.23703002929688 -4.739509582519531 168.2200469970703 1.9540218114852905 122.324951171875 C 10.387815475463867 117.70228576660156 21.33711051940918 113.96878051757812 26.213714599609375 121.84384155273438 C 27.729713439941406 130.01419067382812 35.92656707763672 129.12025451660156 42.09238052368164 131.93141174316406 C 46.11868667602539 130.3560791015625 47.32583236694336 131.39730834960938 49.72420883178711 142.17971801757812 C 50.78218460083008 149.52601623535156 60.97166442871094 148.43704223632812 62.66694259643555 146.3144989013672 C 62.13713073730469 137.00218200683594 63.195735931396484 134.15072631835938 62.066627502441406 128.27099609375 C 68.1967544555664 126.59758758544922 67.6449203491211 124.43269348144531 66.32246398925781 112.65170288085938 C 68.9045181274414 111.14637756347656 67.95578002929688 103.51396179199219 75.40811157226562 100.84384155273438 C 74.93159484863281 100.49388885498047 77.66574096679688 89.70304870605469 77.37852478027344 85.97197723388672 C 77.291259765625 82.89635467529297 77.46102905273438 75.26072692871094 85.24317169189453 75.33753967285156 C 83.17683410644531 70.2710189819336 82.6559066772461 67.55359649658203 87.25089263916016 58.034671783447266" stroke-width="0.0" fill="url(#shape_3_fill)"/>
    <path d="M 673.939453125 -0.5187270045280457 C 676.121337890625 47.822425842285156 675.0172119140625 95.90819549560547 682.07763671875 136.11390686035156 C 679.177978515625 119.17926025390625 673.9814453125 119.66585540771484 662.1080932617188 120.02277374267578 C 660.1121215820312 119.55765533447266 654.5640258789062 109.62482452392578 650.3569946289062 110.96812438964844 C 649.0189819335938 112.5573501586914 645.0451049804688 150.4550018310547 642.9015502929688 155.6669921875 C 629.884033203125 154.90513610839844 627.2078247070312 142.65638732910156 626.9699096679688 138.48301696777344 C 623.007080078125 137.44937133789062 619.2194213867188 145.4430389404297 615.3956298828125 144.55116271972656 C 611.6814575195312 142.30894470214844 610.1654663085938 143.31202697753906 607.8056030273438 141.00477600097656 C 608.9359741210938 136.8407745361328 614.3012084960938 131.3978271484375 601.8095703125 111.83840942382812 C 598.979736328125 135.4176025390625 597.74462890625 139.52183532714844 593.1175537109375 142.5803680419922 C 599.1013793945312 145.8154754638672 598.3618774414062 151.40338134765625 597.4464111328125 152.69927978515625 C 587.4679565429688 157.6060333251953 588.5156860351562 164.73208618164062 578.2134399414062 172.6717529296875 C 572.3125610351562 170.19651794433594 569.5986938476562 157.94168090820312 568.92041015625 157.52743530273438 C 565.4282836914062 157.9078826904297 563.0818481445312 154.80747985839844 561.9993896484375 148.1382598876953 C 560.0328369140625 151.09918212890625 556.7243041992188 151.18673706054688 555.5269775390625 155.39712524414062 C 552.3720703125 155.83692932128906 550.8348999023438 158.0276336669922 549.1293334960938 158.22581481933594 C 547.715087890625 154.9723358154297 544.767822265625 154.60601806640625 535.8037719726562 152.591064453125 C 531.9381713867188 154.96942138671875 529.8340454101562 159.26072692871094 523.1472778320312 156.9891815185547 C 519.2489624023438 160.52667236328125 520.3312377929688 162.15145874023438 522.8286743164062 168.95013427734375 C 517.6307373046875 168.49061584472656 517.3426513671875 171.09056091308594 516.2433471679688 171.61422729492188 C 511.2713623046875 173.32232666015625 509.8157043457031 175.26531982421875 505.64678955078125 174.399169921875 C 502.7335510253906 171.41734313964844 503.079833984375 169.50323486328125 502.979736328125 159.36070251464844 C 488.5050964355469 142.88424682617188 503.30133056640625 118.46436309814453 515.3372192382812 124.7853775024414 C 524.6930541992188 125.93883514404297 542.9027709960938 108.55077362060547 548.7943115234375 112.86893463134766 C 557.1273803710938 110.74229431152344 557.0604248046875 109.41015625 558.5971069335938 108.93612670898438 C 559.55078125 107.31239318847656 564.7830200195312 103.44908905029297 570.0433349609375 105.0430679321289 C 574.6897583007812 102.45574951171875 573.6162109375 97.77623748779297 579.0795288085938 93.8487777709961 C 588.7648315429688 87.92256164550781 590.9166259765625 78.20556640625 612.3836669921875 78.55315399169922 C 616.9132690429688 73.61136627197266 644.2737426757812 51.297752380371094 645.9713134765625 35.32746887207031 C 644.8614501953125 32.38761520385742 647.959716796875 30.372316360473633 647.4280395507812 29.448041915893555 C 646.8929443359375 28.285905838012695 664.15869140625 -4.293165683746338 673.939453125 -0.5187270045280457" stroke-width="0.0" fill="url(#shape_4_fill)"/>
    <path d="M 151.4709014892578 68.65863037109375 C 152.3042755126953 69.09066009521484 186.13673400878906 84.97540283203125 192.8032989501953 91.37371063232422 C 179.27574157714844 117.94950103759766 217.85882568359375 149.90359497070312 221.25462341308594 154.55589294433594 C 240.75799560546875 168.94960021972656 242.43162536621094 182.5232696533203 240.5089569091797 193.84519958496094 C 237.97393798828125 193.2076416015625 236.07237243652344 186.85060119628906 236.77261352539062 184.06565856933594 C 235.68954467773438 183.51832580566406 234.15374755859375 184.3152313232422 231.04641723632812 182.66409301757812 C 231.91310119628906 184.68087768554688 232.24452209472656 192.81015014648438 228.65841674804688 195.66819763183594 C 227.6456756591797 196.6387481689453 227.70364379882812 205.2008514404297 221.0893096923828 207.64439392089844 C 215.07772827148438 206.5745086669922 214.26907348632812 197.8874969482422 214.5535125732422 195.05001831054688 C 212.95318603515625 185.4519805908203 211.89163208007812 184.96177673339844 206.57382202148438 177.4249267578125 C 205.7877960205078 172.642822265625 206.30686950683594 168.4639129638672 204.22225952148438 159.52049255371094 C 205.61837768554688 153.8672637939453 194.91294860839844 144.5875701904297 193.61363220214844 141.05056762695312 C 189.26431274414062 139.82785034179688 189.14613342285156 135.938232421875 186.75123596191406 135.91075134277344 C 177.53712463378906 134.10113525390625 178.38511657714844 127.6910629272461 183.5430908203125 117.19930267333984 C 179.39080810546875 116.40050506591797 177.40130615234375 117.66702270507812 172.95606994628906 117.76470184326172 C 179.0142059326172 128.1356964111328 177.3987579345703 131.12692260742188 152.3228759765625 130.31494140625 C 148.8324432373047 129.50575256347656 152.51461791992188 102.75559997558594 154.22647094726562 92.98687744140625 C 152.90049743652344 91.49903106689453 152.75778198242188 87.6056137084961 150.3874969482422 76.2292251586914 C 147.92971801757812 75.88776397705078 147.92332458496094 69.1769027709961 151.4709014892578 68.65863037109375" stroke-width="0.0" fill="url(#shape_5_fill)"/>
    <path d="M 614.6495361328125 79.05299377441406 C 618.7918701171875 83.85452270507812 620.4105834960938 87.18485260009766 632.859130859375 85.94197845458984 C 635.9768676757812 86.23574829101562 636.94970703125 88.75257873535156 641.15283203125 89.24070739746094 C 642.1918334960938 86.6516342163086 665.1478271484375 92.49671173095703 675.0325927734375 98.21527862548828 C 675.4066162109375 110.61923217773438 674.7958984375 125.90557098388672 674.7159423828125 151.75962829589844 C 665.6831665039062 142.7813262939453 662.6859130859375 136.74827575683594 660.3567504882812 132.12503051757812 C 660.4164428710938 123.79602813720703 661.0864868164062 118.21421813964844 653.7368774414062 112.28517150878906 C 642.2217407226562 113.8038330078125 643.6990356445312 142.2262725830078 643.0426025390625 142.84861755371094 C 644.4215698242188 144.4003448486328 642.3457641601562 148.15939331054688 644.5529174804688 149.87649536132812 C 640.1552734375 151.02261352539062 637.9371337890625 152.75184631347656 634.1726684570312 153.5245819091797 C 631.8079223632812 146.15243530273438 629.1673583984375 141.39793395996094 630.0175170898438 140.561279296875 C 628.6183471679688 137.03785705566406 622.3689575195312 136.4774627685547 621.2399291992188 139.1844940185547 C 618.7379150390625 140.71214294433594 619.2846069335938 142.52293395996094 618.4046630859375 149.71450805664062 C 613.3909301757812 144.77337646484375 613.048583984375 143.23573303222656 609.3709716796875 143.7295379638672 C 608.4498291015625 140.40699768066406 609.5069580078125 139.2405548095703 608.6953735351562 137.39892578125 C 606.2189331054688 132.88446044921875 604.45166015625 127.42143249511719 600.925537109375 127.84374237060547 C 606.29833984375 133.80233764648438 595.7056884765625 148.4792022705078 592.56494140625 152.25184631347656 C 590.555908203125 163.754638671875 588.7908325195312 163.86526489257812 586.0117797851562 169.04815673828125 C 584.5267333984375 167.5653076171875 584.1849975585938 167.38914489746094 589.288818359375 153.26206970214844 C 593.52685546875 141.2023468017578 590.442626953125 139.4689483642578 574.6633911132812 129.1116943359375 C 574.0857543945312 157.82945251464844 557.6304931640625 157.54339599609375 555.965576171875 151.05308532714844 C 555.7840576171875 152.85740661621094 553.0621337890625 154.69451904296875 553.0167846679688 157.8845672607422 C 551.4473876953125 161.2833251953125 548.1229248046875 161.1748809814453 547.3538208007812 159.32473754882812 C 544.4409790039062 156.36376953125 542.7447509765625 153.74449157714844 538.6283569335938 155.75982666015625 C 536.621337890625 158.60372924804688 530.9998779296875 157.88966369628906 529.1091918945312 158.16744995117188 C 526.7267456054688 159.59344482421875 526.9171752929688 163.57949829101562 525.5948486328125 166.83383178710938 C 524.7227172851562 169.5875701904297 523.6396484375 171.61256408691406 519.0484619140625 173.04966735839844 C 515.5464477539062 172.72030639648438 503.5151062011719 171.81016540527344 480.8871154785156 160.97303771972656 C 477.771728515625 136.3826446533203 500.4071044921875 120.24261474609375 514.430908203125 118.3503189086914 C 528.0464477539062 127.77474975585938 541.7218017578125 108.2696304321289 547.8914184570312 111.60256958007812 C 556.6256103515625 111.62469482421875 563.1030883789062 111.97637176513672 564.499267578125 107.13302612304688 C 564.6266479492188 104.41883850097656 566.469970703125 103.38003540039062 569.88232421875 104.79344940185547 C 572.4378662109375 101.0504150390625 579.0578002929688 99.91480255126953 587.1084594726562 98.41731262207031 C 601.031982421875 93.64725494384766 602.916259765625 79.88866424560547 614.6495361328125 79.05299377441406" stroke-width="0.0" fill="url(#shape_6_fill)"/>
    <path d="M 0.7430907487869263 91.1912612915039 C 43.350948333740234 106.73379516601562 43.78903579711914 117.53366088867188 50.48280334472656 138.79554748535156 C 82.24481964111328 152.81900024414062 55.537105560302734 213.5142822265625 36.1800651550293 246.97752380371094 C 50.579139709472656 259.282958984375 49.420963287353516 263.8048095703125 48.31364822387695 265.6291809082031 C 51.5032958984375 254.17205810546875 36.35917282104492 247.17665100097656 21.50366973876953 239.6177215576172 C 6.931706428527832 194.051025390625 -12.283100128173828 178.74276733398438 0.7430907487869263 91.1912612915039" stroke-width="0.0" fill="url(#shape_7_fill)"/>
    <path d="M 384.5647277832031 197.15603637695312 C 424.88104248046875 188.6084442138672 426.8997802734375 188.96670532226562 429.799560546875 204.26295471191406 C 477.4266662597656 188.02951049804688 498.8996887207031 202.19866943359375 491.1550598144531 229.37899780273438 C 490.9762878417969 250.50250244140625 486.3221130371094 251.52517700195312 484.9393005371094 252.5109405517578 C 486.50213623046875 259.1513671875 482.47406005859375 268.7690734863281 476.3731689453125 268.5838928222656 C 469.04449462890625 272.9317626953125 453.2210388183594 266.7112731933594 451.6428527832031 269.737060546875 C 447.2095031738281 266.3087463378906 448.4539489746094 261.25262451171875 449.2518310546875 260.210693359375 C 439.3067626953125 264.93670654296875 436.5361022949219 261.5743713378906 437.6153564453125 256.6615295410156 C 427.03973388671875 256.97528076171875 425.71160888671875 259.97064208984375 420.8710021972656 262.0157775878906 C 418.4900817871094 264.1763000488281 417.7789306640625 267.77349853515625 414.973388671875 273.9543762207031 C 414.108154296875 271.4004211425781 392.1959533691406 269.6893005371094 392.51324462890625 264.2712097167969 C 391.811279296875 265.1944274902344 388.79888916015625 263.49822998046875 385.23779296875 264.38946533203125 C 382.0884094238281 262.02874755859375 380.80035400390625 263.2562255859375 376.3894348144531 261.2551574707031 C 375.1620178222656 256.4246826171875 375.7422790527344 252.89138793945312 370.2532958984375 251.72608947753906 C 360.9242248535156 242.69081115722656 373.89453125 194.3175811767578 378.4957275390625 177.03404235839844 C 385.0715026855469 171.79556274414062 394.32354736328125 176.917724609375 384.5647277832031 197.15603637695312" stroke-width="0.0" fill="url(#shape_8_fill)"/>
    <path d="M 566.5248413085938 157.10137939453125 C 567.8886108398438 159.00286865234375 568.1209716796875 166.62057495117188 569.324462890625 168.01768493652344 C 573.4935302734375 169.49627685546875 573.6180419921875 171.0662384033203 577.5512084960938 174.3885498046875 C 581.9307250976562 172.94601440429688 583.9710693359375 174.56983947753906 583.7080688476562 179.472412109375 C 575.39697265625 180.4751739501953 572.2996215820312 225.6112060546875 577.5714721679688 226.95590209960938 C 577.8937377929688 230.04843139648438 581.7597045898438 236.58230590820312 577.3370971679688 242.59259033203125 C 569.0523681640625 238.67279052734375 566.9485473632812 237.21482849121094 558.50390625 247.31980895996094 C 553.0382690429688 249.2277374267578 499.8923034667969 255.2892608642578 485.13763427734375 250.9279022216797 C 486.8381042480469 250.4467010498047 488.6215515136719 241.34295654296875 497.8072509765625 231.44593811035156 C 486.0706481933594 227.112060546875 483.0713195800781 222.5478973388672 482.8348083496094 215.15443420410156 C 477.36505126953125 210.18057250976562 479.9146728515625 205.96853637695312 482.8919982910156 206.1998291015625 C 480.76275634765625 205.22312927246094 481.53741455078125 199.44342041015625 492.74468994140625 199.7738800048828 C 492.6624450683594 196.4051513671875 491.60382080078125 192.52015686035156 491.56903076171875 188.7706756591797 C 487.2719421386719 174.40028381347656 487.8310852050781 173.40713500976562 488.1658630371094 164.21185302734375 C 503.854736328125 164.49972534179688 504.8600769042969 164.742431640625 512.0708618164062 159.7053985595703 C 522.1552734375 169.4505615234375 524.364501953125 167.4800567626953 526.0034790039062 167.30636596679688 C 523.7758178710938 162.42697143554688 531.1649780273438 157.4151611328125 533.1209716796875 159.0172882080078 C 537.4443969726562 162.01951599121094 541.2442016601562 162.60708618164062 541.9620361328125 164.2146453857422 C 545.0686645507812 164.17568969726562 545.6028442382812 166.05067443847656 550.0218505859375 166.9695587158203 C 549.0238647460938 165.58578491210938 550.009765625 157.92025756835938 554.894287109375 158.18508911132812 C 557.8600463867188 161.08657836914062 563.0983276367188 157.9986572265625 566.5248413085938 157.10137939453125" stroke-width="0.0" fill="url(#shape_9_fill)"/>
    <path d="M 561.4195556640625 156.81446838378906 C 565.1570434570312 152.8881378173828 571.2852783203125 156.95677185058594 571.3921508789062 174.04220581054688 C 572.5819702148438 169.0639190673828 576.4926147460938 169.02586364746094 579.5823364257812 174.07962036132812 C 580.551513671875 178.1180419921875 578.916015625 187.3743438720703 580.3844604492188 190.947509765625 C 571.3904418945312 196.15689086914062 572.0730590820312 229.96792602539062 578.1236572265625 230.9748077392578 C 576.083984375 231.16357421875 575.6329956054688 236.87449645996094 572.1354370117188 237.9582977294922 C 560.7521362304688 235.772705078125 567.0607299804688 238.7238311767578 563.2314453125 247.60345458984375 C 549.716796875 253.10609436035156 501.29547119140625 249.20681762695312 500.2087707519531 251.93048095703125 C 491.2657165527344 251.8368682861328 488.0743713378906 237.29139709472656 498.95440673828125 231.7531280517578 C 486.6199645996094 224.90850830078125 481.9779357910156 219.2915496826172 481.9494934082031 214.7152557373047 C 475.75933837890625 215.43431091308594 472.0380554199219 215.30752563476562 464.5812683105469 196.42861938476562 C 465.2565002441406 175.13406372070312 481.0821533203125 174.07029724121094 482.5621032714844 195.26602172851562 C 489.73809814453125 198.02426147460938 494.8744812011719 184.94715881347656 496.6137390136719 182.96897888183594 C 495.29132080078125 178.86856079101562 497.5860900878906 177.68946838378906 500.1510009765625 177.5291290283203 C 507.93701171875 179.19232177734375 516.5668334960938 181.7769775390625 521.0744018554688 174.17494201660156 C 525.9420166015625 173.53163146972656 528.4953002929688 159.68174743652344 529.7129516601562 154.4860076904297 C 538.3295288085938 155.94647216796875 539.9918212890625 156.4683074951172 537.1038208007812 165.67530822753906 C 545.746826171875 166.0650177001953 549.0638427734375 167.54473876953125 551.7141723632812 166.7234649658203 C 550.9384155273438 155.0967559814453 552.7034912109375 152.9642791748047 561.4195556640625 156.81446838378906" stroke-width="0.0" fill="url(#shape_10_fill)"/>
    <path d="M 443.5772399902344 108.7705307006836 C 452.1943664550781 114.0998306274414 453.91192626953125 115.6436996459961 463.1827392578125 106.43915557861328 C 467.2239685058594 113.61211395263672 469.5171813964844 112.76570129394531 488.7890930175781 107.48921966552734 C 489.48193359375 124.43089294433594 488.7723388671875 125.26350402832031 492.3384704589844 130.45704650878906 C 493.35479736328125 132.22340393066406 493.3389892578125 135.61361694335938 496.6499328613281 136.0262908935547 C 494.050537109375 136.08071899414062 492.9327392578125 138.98248291015625 490.4043884277344 142.13772583007812 C 484.0000915527344 139.20924377441406 482.61474609375 141.75299072265625 481.1712951660156 142.6433868408203 C 468.8502502441406 136.50537109375 467.10284423828125 134.7834014892578 465.5201110839844 134.58401489257812 C 464.25604248046875 133.45529174804688 461.0152282714844 134.28282165527344 460.2082214355469 133.5834197998047 C 461.87103271484375 131.94664001464844 481.1068420410156 141.11447143554688 500.9205017089844 156.0404510498047 C 476.927001953125 176.94837951660156 476.05303955078125 177.66189575195312 482.0077819824219 184.99534606933594 C 467.9163513183594 183.63067626953125 467.3377990722656 188.68382263183594 462.54461669921875 189.87924194335938 C 462.7317199707031 184.55453491210938 461.40325927734375 172.88015747070312 460.7439270019531 157.67718505859375 C 449.54205322265625 182.33139038085938 447.0723876953125 183.45208740234375 439.7626953125 183.07997131347656 C 439.0622253417969 183.8129425048828 435.7687072753906 195.7378387451172 435.0028381347656 197.377685546875 C 427.8013610839844 200.34933471679688 417.49774169921875 180.59202575683594 417.666015625 179.846923828125 C 416.9299621582031 180.13270568847656 399.0303955078125 181.38232421875 398.3605041503906 174.99949645996094 C 394.193603515625 172.85252380371094 389.7614440917969 177.07254028320312 379.4566955566406 174.64454650878906 C 382.6174621582031 157.6461181640625 379.5612487792969 152.07749938964844 392.2142028808594 138.80555725097656 C 398.639404296875 138.96249389648438 399.92559814453125 130.3843536376953 403.1706237792969 119.76714324951172 C 406.3111572265625 98.99786376953125 423.7456970214844 101.62263488769531 443.5772399902344 108.7705307006836" stroke-width="0.0" fill="url(#shape_11_fill)"/>
    <path d="M 602.8847045898438 127.67543029785156 C 605.4310302734375 130.81475830078125 605.328125 143.35960388183594 606.862548828125 145.5752716064453 C 610.6975708007812 146.28018188476562 610.6602172851562 152.09388732910156 619.8226928710938 154.30613708496094 C 618.050048828125 149.7661895751953 617.27392578125 141.84886169433594 623.1098022460938 141.0442657470703 C 623.5792236328125 137.37474060058594 625.3916015625 137.29798889160156 627.1947631835938 140.3173065185547 C 627.0494995117188 142.22976684570312 628.8529663085938 144.8553924560547 629.0463256835938 147.2252960205078 C 632.0735473632812 149.7916717529297 631.67333984375 151.26087951660156 635.7222290039062 153.7222900390625 C 642.2362670898438 154.04949951171875 641.9495239257812 160.16835021972656 650.0390014648438 174.81845092773438 C 639.6077880859375 186.34388732910156 640.4883422851562 195.17662048339844 640.9995727539062 204.72129821777344 C 663.1322631835938 205.96954345703125 663.8425903320312 244.0892333984375 642.5858764648438 245.35337829589844 C 621.9957885742188 247.904052734375 610.9981079101562 248.7969512939453 579.0203857421875 265.1607360839844 C 575.238525390625 253.27337646484375 581.2628173828125 229.69320678710938 572.0144653320312 214.6221466064453 C 568.0209350585938 208.62680053710938 571.33642578125 168.86744689941406 583.9033813476562 169.7171173095703 C 596.7698974609375 163.09365844726562 599.9733276367188 143.12767028808594 600.3179931640625 142.30186462402344 C 595.9122314453125 140.03411865234375 596.1382446289062 137.46267700195312 602.8847045898438 127.67543029785156" stroke-width="0.0" fill="url(#shape_12_fill)"/>
    <path d="M 412.48797607421875 176.58799743652344 C 418.523681640625 174.6327667236328 435.0799560546875 213.8090362548828 428.51025390625 219.82032775878906 C 419.80279541015625 228.94932556152344 427.6000671386719 236.68479919433594 431.8984069824219 241.2842559814453 C 429.65283203125 260.4745788574219 417.20916748046875 272.28369140625 411.5703125 267.23577880859375 C 407.004638671875 264.9383850097656 401.5057678222656 271.9118957519531 391.8092041015625 268.37274169921875 C 385.6683044433594 264.9297180175781 382.6337890625 266.00811767578125 378.420654296875 265.5860595703125 C 373.1077880859375 266.72589111328125 371.7413330078125 262.2626953125 374.2256774902344 258.254638671875 C 376.0527648925781 256.3556823730469 374.6641845703125 254.663330078125 375.04541015625 253.86434936523438 C 370.8847351074219 255.93698120117188 368.8443908691406 252.07070922851562 367.8592834472656 252.02195739746094 C 360.483154296875 248.02467346191406 366.5682678222656 229.44512939453125 367.13848876953125 222.4275360107422 C 369.758056640625 218.65357971191406 371.4029235839844 202.4187774658203 384.6240234375 201.96954345703125 C 378.6693420410156 193.3670196533203 379.6829528808594 191.6954345703125 389.94964599609375 191.650390625 C 390.61590576171875 177.3775634765625 392.616943359375 176.76907348632812 412.48797607421875 176.58799743652344" stroke-width="0.0" fill="url(#shape_13_fill)"/>
    <path d="M 507.0090026855469 66.64250946044922 C 506.70477294921875 67.95339965820312 509.7189025878906 75.56513977050781 514.2724609375 91.03096771240234 C 532.1377563476562 79.63591003417969 535.8861083984375 79.64835357666016 537.4042358398438 85.37190246582031 C 538.8529052734375 90.9076919555664 544.5335693359375 90.29093170166016 545.0235595703125 91.17801666259766 C 545.537353515625 92.74018859863281 556.151611328125 96.88326263427734 559.5621948242188 95.49192810058594 C 563.2938232421875 97.60426330566406 567.4015502929688 97.19332885742188 568.2308959960938 97.98126983642578 C 563.6873168945312 106.74705505371094 558.6847534179688 116.51322174072266 538.1008911132812 108.7327651977539 C 540.3440551757812 112.16262817382812 540.13330078125 115.39289855957031 534.6388549804688 118.4282455444336 C 527.1915283203125 120.0503921508789 519.550537109375 124.57087707519531 515.591796875 118.55159759521484 C 512.5399169921875 121.90133666992188 501.8501892089844 125.96054077148438 500.73529052734375 127.39051818847656 C 498.1769714355469 129.8368682861328 494.2608642578125 129.42642211914062 490.0430908203125 126.2294921875 C 488.99609375 116.81278991699219 468.86370849609375 118.1778335571289 468.16259765625 117.40260314941406 C 463.52301025390625 117.84625244140625 462.91656494140625 116.64466094970703 461.98602294921875 116.31370544433594 C 471.7875061035156 120.90492248535156 474.92498779296875 116.45987701416016 477.94122314453125 113.87554931640625 C 468.0065002441406 102.34439086914062 470.0522766113281 89.843017578125 474.2687072753906 81.76113891601562 C 474.5858154296875 70.93245697021484 475.33843994140625 70.38484191894531 476.94769287109375 65.93280792236328 C 478.25146484375 63.55731964111328 482.34478759765625 63.64604568481445 483.9717712402344 63.407196044921875 C 495.11505126953125 63.19502639770508 504.1078186035156 61.523067474365234 507.0090026855469 66.64250946044922" stroke-width="0.0" fill="url(#shape_14_fill)"/>
    <path d="M 536.2200927734375 162.07737731933594 C 544.0523071289062 162.2535858154297 544.3524169921875 163.05731201171875 546.5021362304688 165.02651977539062 C 549.8963623046875 167.51370239257812 549.7072143554688 170.16156005859375 542.7589721679688 183.40350341796875 C 544.5975952148438 192.52500915527344 535.6280517578125 229.30178833007812 537.1499633789062 232.36514282226562 C 541.4086303710938 239.2532501220703 540.8606567382812 252.9195098876953 519.0846557617188 252.22332763671875 C 502.3929748535156 253.55174255371094 481.6357116699219 241.96714782714844 487.67083740234375 230.51722717285156 C 476.6280517578125 219.75296020507812 478.89080810546875 207.3784942626953 483.26641845703125 201.90838623046875 C 486.462158203125 197.52365112304688 487.97991943359375 197.49110412597656 488.75787353515625 199.3124542236328 C 482.7467346191406 195.48281860351562 488.74810791015625 184.84912109375 487.3513488769531 174.10421752929688 C 487.6697998046875 167.36041259765625 489.54144287109375 166.40130615234375 490.931640625 167.0817413330078 C 505.454833984375 178.93185424804688 511.3512268066406 184.15536499023438 522.7830810546875 172.82212829589844 C 525.5783081054688 170.97872924804688 525.2786865234375 167.16500854492188 526.05517578125 165.00213623046875 C 525.2808227539062 160.2583465576172 528.0606689453125 158.273193359375 536.2200927734375 162.07737731933594" stroke-width="0.0" fill="url(#shape_15_fill)"/>
    <path d="M 651.5715942382812 109.35064697265625 C 653.7628173828125 110.63336944580078 664.1212158203125 121.38170623779297 659.870361328125 132.67750549316406 C 664.0372924804688 136.07424926757812 664.515380859375 143.9407196044922 673.2094116210938 147.66537475585938 C 677.2306518554688 179.14578247070312 673.8883056640625 210.79969787597656 676.2144775390625 267.1150207519531 C 675.1195678710938 265.46856689453125 635.8665771484375 272.9549255371094 631.0892944335938 264.0223083496094 C 635.9476318359375 244.79522705078125 643.7984619140625 124.1672134399414 651.5715942382812 109.35064697265625" stroke-width="0.0" fill="url(#shape_16_fill)"/>
    <path d="M 601.5081176757812 128.20411682128906 C 604.1170043945312 128.23631286621094 605.4329223632812 131.69949340820312 606.3351440429688 134.06613159179688 C 608.9448852539062 135.1657257080078 607.01953125 141.4545440673828 609.1884155273438 143.92860412597656 C 628.9340209960938 143.31283569335938 632.8399658203125 216.0237579345703 632.7127075195312 272.3061828613281 C 579.3648071289062 277.19622802734375 574.5205688476562 268.6927185058594 580.2058715820312 242.3981475830078 C 558.6075439453125 225.9645538330078 598.904541015625 156.65771484375 601.5081176757812 128.20411682128906" stroke-width="0.0" fill="url(#shape_17_fill)"/>
    <path d="M 320.3251953125 186.09542846679688 C 321.4751892089844 186.37576293945312 321.6189270019531 189.23843383789062 321.3621826171875 200.0104522705078 C 331.33868408203125 193.6012420654297 332.0503845214844 193.47592163085938 336.48583984375 196.2850799560547 C 345.40948486328125 198.15638732910156 346.2309875488281 197.06719970703125 357.32293701171875 189.8985595703125 C 358.6341247558594 192.3157958984375 359.5836486816406 194.40882873535156 356.2296142578125 201.85081481933594 C 359.449462890625 204.00601196289062 361.58587646484375 204.1593780517578 364.8198547363281 210.37489318847656 C 367.3153381347656 207.1198272705078 368.5728759765625 207.83502197265625 368.252197265625 211.5625762939453 C 370.060791015625 220.1232452392578 370.2977294921875 223.1035919189453 366.1018371582031 225.59130859375 C 365.7681579589844 231.5252685546875 363.12615966796875 238.75572204589844 368.3551330566406 248.78257751464844 C 370.3831787109375 253.31288146972656 368.7039489746094 255.81211853027344 357.9646911621094 254.56149291992188 C 355.0259704589844 255.88389587402344 324.33868408203125 254.9135284423828 322.5271911621094 255.4282989501953 C 313.24114990234375 255.9363250732422 311.91168212890625 253.90847778320312 308.9241027832031 245.83917236328125 C 303.6956787109375 228.9553985595703 320.95013427734375 195.6847381591797 320.3251953125 186.09542846679688" stroke-width="0.0" fill="url(#shape_18_fill)"/>
    <path d="M 483.57806396484375 234.4989776611328 C 506.4645690917969 252.52816772460938 515.7465209960938 263.81689453125 495.4270324707031 280.7513732910156 C 469.9474182128906 280.5383605957031 443.92877197265625 261.8916015625 442.0464782714844 262.3233947753906 C 438.71954345703125 260.5834655761719 436.999755859375 258.56964111328125 432.55084228515625 258.3222351074219 C 429.8008117675781 258.50482177734375 428.5184326171875 256.73736572265625 430.07183837890625 253.79527282714844 C 433.44256591796875 237.17442321777344 423.4224853515625 233.8343048095703 422.9616394042969 229.72840881347656 C 423.0747375488281 227.13885498046875 421.0653381347656 226.68321228027344 420.2691955566406 225.07037353515625 C 427.37591552734375 219.71170043945312 429.45721435546875 218.8206024169922 428.56878662109375 213.7897491455078 C 445.96337890625 197.14463806152344 482.2198486328125 196.17095947265625 483.57806396484375 234.4989776611328" stroke-width="0.0" fill="url(#shape_19_fill)"/>
    <path d="M 673.946044921875 -2.9489333629608154 C 675.0673828125 32.84956741333008 674.5833740234375 64.76375579833984 674.6845092773438 97.30101776123047 C 669.3052978515625 95.99690246582031 651.232421875 87.4467544555664 645.7685546875 90.10673522949219 C 638.5792236328125 89.47988891601562 638.0953369140625 86.0690689086914 637.3200073242188 84.01041412353516 C 626.1963500976562 84.27259826660156 620.8590087890625 93.41019439697266 608.0067749023438 86.63011932373047 C 609.72119140625 74.74417114257812 612.1828002929688 73.64472961425781 614.5125122070312 71.53853607177734 C 622.4324340820312 68.79476165771484 648.8078002929688 25.107711791992188 647.5260009765625 20.593334197998047 C 655.47607421875 9.159250259399414 656.5922241210938 2.1584205627441406 668.9942016601562 3.336866855621338 C 669.8302612304688 2.695096015930176 670.0855102539062 1.0503493547439575 673.946044921875 -2.9489333629608154" stroke-width="0.0" fill="url(#shape_20_fill)"/>
    <path d="M 561.5740356445312 156.12750244140625 C 569.7959594726562 156.56675720214844 570.3495483398438 161.01666259765625 572.08837890625 166.06015014648438 C 581.4176635742188 168.3448486328125 571.0866088867188 230.4467315673828 577.9389038085938 240.5685272216797 C 579.9629516601562 244.89329528808594 579.5798950195312 247.11215209960938 577.95751953125 271.0781555175781 C 535.3759155273438 270.48138427734375 531.1513061523438 267.76129150390625 537.3461303710938 248.56773376464844 C 545.9412231445312 244.80172729492188 549.5396118164062 168.4267120361328 555.4258422851562 156.7847900390625 C 555.5660400390625 152.63316345214844 559.9480590820312 151.62451171875 561.5740356445312 156.12750244140625" stroke-width="0.0" fill="url(#shape_21_fill)"/>
    <path d="M 214.992919921875 210.40359497070312 C 234.97988891601562 208.26983642578125 238.6416778564453 240.2523651123047 225.08592224121094 257.512451171875 C 211.3588104248047 262.83892822265625 208.99374389648438 263.4488220214844 208.85707092285156 273.0498962402344 C 205.7953338623047 275.28265380859375 206.7351531982422 277.0548095703125 205.52371215820312 279.3722229003906 C 206.63992309570312 282.7857666015625 202.88308715820312 285.7637023925781 202.02960205078125 284.89776611328125 C 202.46307373046875 282.9672546386719 190.3474578857422 272.3306579589844 188.1305694580078 263.283447265625 C 186.6485595703125 261.46844482421875 184.02212524414062 263.2193908691406 181.4095916748047 263.67901611328125 C 181.0174560546875 261.25274658203125 179.99119567871094 259.632568359375 178.44102478027344 251.63986206054688 C 178.90939331054688 247.76712036132812 168.91758728027344 242.33592224121094 170.68287658691406 238.6597442626953 C 175.2192840576172 213.58319091796875 177.16261291503906 212.9314727783203 185.5193634033203 220.4462890625 C 193.6521453857422 219.8067626953125 194.02639770507812 215.04466247558594 198.62808227539062 213.4592742919922 C 184.37142944335938 205.63064575195312 184.42474365234375 200.2840576171875 201.06358337402344 197.54385375976562 C 212.70326232910156 192.62710571289062 214.96127319335938 194.8672637939453 214.992919921875 210.40359497070312" stroke-width="0.0" fill="url(#shape_22_fill)"/>
    <path d="M 111.72364044189453 426.163330078125 C 112.7499008178711 429.28631591796875 111.05854797363281 431.2124328613281 110.65823364257812 431.3819885253906 C 104.96644592285156 432.6810607910156 103.22554016113281 433.80853271484375 91.9691162109375 433.0763854980469 C 89.7756576538086 435.9719543457031 95.66030883789062 446.421630859375 91.57733917236328 452.1399841308594 C 78.66380310058594 444.9972229003906 46.938175201416016 447.9271240234375 25.316753387451172 449.60894775390625 C 14.052560806274414 446.1683349609375 13.907744407653809 439.74298095703125 17.99755096435547 436.329833984375 C 35.47210693359375 427.5947570800781 49.45383834838867 426.66107177734375 73.44557189941406 427.04681396484375 C 73.56756591796875 423.8473815917969 110.00959014892578 420.5599670410156 111.72364044189453 426.163330078125" stroke-width="0.0" fill="url(#shape_23_fill)"/>
    <path d="M 198.64102172851562 121.33966064453125 C 211.2432098388672 115.28166961669922 225.00433349609375 133.05191040039062 220.29576110839844 141.8235321044922 C 216.30401611328125 147.88531494140625 218.549072265625 150.3869171142578 220.26400756835938 154.6966552734375 C 228.21929931640625 158.6595001220703 247.5568084716797 175.4276885986328 244.76870727539062 199.0010528564453 C 239.13662719726562 199.59764099121094 235.677490234375 187.03167724609375 232.318603515625 179.81979370117188 C 234.77059936523438 187.153564453125 233.4444580078125 195.96282958984375 230.50668334960938 197.1295928955078 C 228.19851684570312 197.06983947753906 225.8238067626953 202.57640075683594 220.18447875976562 208.71566772460938 C 214.8184051513672 207.82635498046875 213.47254943847656 202.1479949951172 211.80810546875 198.3514404296875 C 211.31886291503906 190.88253784179688 211.56591796875 183.19740295410156 206.77972412109375 177.64112854003906 C 203.84291076660156 174.05209350585938 204.8976287841797 172.99842834472656 205.73886108398438 168.0601806640625 C 202.5777130126953 147.5369873046875 199.52420043945312 146.9412384033203 192.11131286621094 143.82826232910156 C 189.44102478027344 142.4134979248047 191.3365936279297 127.7021255493164 198.64102172851562 121.33966064453125" stroke-width="0.0" fill="url(#shape_24_fill)"/>
    <path d="M 589.8003540039062 401.46197509765625 C 601.7302856445312 404.98016357421875 629.7872314453125 404.0991516113281 638.4965209960938 410.0628662109375 C 636.515380859375 424.65557861328125 631.6538696289062 427.6689147949219 629.3438110351562 425.994873046875 C 630.5761108398438 427.8241271972656 636.149169921875 428.0279541015625 639.9598999023438 436.4672546386719 C 618.9273071289062 448.1058349609375 578.9200439453125 438.5939636230469 572.3419799804688 434.89495849609375 C 567.6611328125 427.3105163574219 573.8842163085938 419.5850830078125 577.1975708007812 412.7989807128906 C 578.073486328125 411.1164855957031 585.6956787109375 413.49444580078125 589.8003540039062 401.46197509765625" stroke-width="0.0" fill="url(#shape_25_fill)"/>
    <path d="M 142.8832550048828 67.00577545166016 C 144.00794982910156 68.6985092163086 149.0739288330078 67.91773986816406 149.70738220214844 68.833984375 C 148.8567657470703 70.91605377197266 150.42648315429688 71.83180236816406 149.48086547851562 73.96173095703125 C 151.0419921875 74.512451171875 150.15591430664062 78.73336029052734 149.4200897216797 92.7826919555664 C 151.80783081054688 93.0172119140625 154.78778076171875 95.39917755126953 152.9643096923828 104.13328552246094 C 153.19131469726562 107.72339630126953 155.05990600585938 108.52587890625 155.76531982421875 111.0644760131836 C 157.2298126220703 123.45343780517578 154.73390197753906 133.47389221191406 149.82884216308594 133.5621337890625 C 140.19203186035156 128.8487091064453 137.8539581298828 117.94593048095703 125.97639465332031 116.5009765625 C 121.82588958740234 113.76000213623047 123.36074829101562 109.60536193847656 126.17658996582031 107.2038803100586 C 128.54258728027344 106.76187133789062 129.02650451660156 105.27591705322266 132.52413940429688 105.01074981689453 C 138.6768341064453 96.25698852539062 135.3011932373047 92.96015930175781 132.7125701904297 89.04981231689453 C 134.04608154296875 88.16271209716797 139.44740295410156 87.98949432373047 140.58364868164062 85.40422058105469 C 138.19276428222656 84.70441436767578 138.84344482421875 78.03523254394531 139.94476318359375 77.3552017211914 C 144.0302276611328 76.41556549072266 143.02235412597656 71.1655044555664 142.8832550048828 67.00577545166016" stroke-width="0.0" fill="url(#shape_26_fill)"/>
    <path d="M 139.58094787597656 67.7705307006836 C 149.18728637695312 66.77499389648438 149.49220275878906 67.88700866699219 148.76934814453125 77.39227294921875 C 150.5161895751953 78.29215240478516 151.1597900390625 80.77742767333984 154.96144104003906 85.29931640625 C 149.99954223632812 90.3514633178711 155.1001434326172 95.89315795898438 150.9471435546875 105.2410659790039 C 152.7381591796875 106.08511352539062 153.66993713378906 109.77249908447266 155.47000122070312 112.99703216552734 C 152.9744415283203 115.89338684082031 157.7035675048828 122.06513214111328 153.2560577392578 126.3821029663086 C 152.47926330566406 132.01150512695312 151.3074188232422 133.1644744873047 147.58343505859375 134.64158630371094 C 142.09019470214844 130.77499389648438 128.20947265625 122.29244995117188 129.60594177246094 117.59896850585938 C 124.23514556884766 118.42251586914062 122.80500793457031 112.92329406738281 128.39874267578125 110.65021514892578 C 122.78782653808594 107.53514862060547 124.54376220703125 104.04469299316406 132.9598846435547 107.944091796875 C 136.86070251464844 105.9286880493164 133.308837890625 92.71936798095703 132.68943786621094 89.20330047607422 C 139.37832641601562 87.72191619873047 138.90838623046875 85.20877838134766 138.99632263183594 81.13189697265625 C 139.064697265625 77.48881530761719 140.36158752441406 76.81307983398438 142.49896240234375 78.33499145507812 C 145.3129119873047 71.7757568359375 142.63320922851562 70.46915435791016 139.58094787597656 67.7705307006836" stroke-width="0.0" fill="url(#shape_27_fill)"/>
    <path d="M -0.43986400961875916 -0.2785055339336395 C 4.733943462371826 0.38935473561286926 9.683489799499512 -0.5334076881408691 18.664823532104492 -0.9002655744552612 C 25.518890380859375 -1.8399972915649414 26.042095184326172 -1.0478146076202393 57.46802520751953 0.3614486753940582 C 52.98836135864258 25.651975631713867 28.892290115356445 22.842819213867188 28.155027389526367 28.33345603942871 C 62.67894744873047 7.418254375457764 71.66473388671875 7.148658752441406 75.3968505859375 56.503204345703125 C 33.56315994262695 58.37478256225586 22.695758819580078 61.30672073364258 19.960845947265625 53.90435028076172 C 16.824527740478516 39.324764251708984 11.277233123779297 38.32675552368164 9.967748641967773 33.62602233886719 C 10.103611946105957 35.78500747680664 14.522429466247559 39.267066955566406 14.604822158813477 41.02734375 C 16.181142807006836 42.161685943603516 16.089038848876953 44.56387710571289 18.16588592529297 47.88102722167969 C 20.07217025756836 51.07332992553711 18.768943786621094 52.30488586425781 22.95876693725586 57.777591705322266 C 24.084928512573242 70.4444580078125 9.164791107177734 72.98577880859375 7.143531322479248 61.88213348388672 C 5.142119407653809 60.996707916259766 3.5713272094726562 59.11959457397461 0.31181561946868896 59.44902038574219 C -0.32183271646499634 39.806270599365234 -0.32511913776397705 19.63751792907715 -0.43986400961875916 -0.2785055339336395" stroke-width="0.0" fill="url(#shape_28_fill)"/>
    <path d="M 298.21649169921875 197.30088806152344 C 297.7487487792969 199.5055694580078 300.7291259765625 202.1590576171875 301.6205749511719 209.0210723876953 C 300.42181396484375 214.3519744873047 325.7702331542969 222.27488708496094 315.9546203613281 255.51390075683594 C 311.8974609375 254.67922973632812 310.50164794921875 255.76040649414062 304.30767822265625 255.02159118652344 C 303.9327697753906 258.1137390136719 297.6061096191406 258.3971862792969 281.3544616699219 256.47589111328125 C 276.57476806640625 223.56680297851562 285.204833984375 221.84864807128906 298.21649169921875 197.30088806152344" stroke-width="0.0" fill="url(#shape_29_fill)"/>
    <path d="M 0.0035738269798457623 -0.14220617711544037 C 4.624453067779541 0.45866507291793823 9.838472366333008 -0.408211886882782 14.75917911529541 0.08907023817300797 C 15.984746932983398 0.4684526026248932 16.797761917114258 2.03684401512146 16.62111473083496 7.878208160400391 C 18.747257232666016 11.030752182006836 21.32789421081543 19.199373245239258 27.934925079345703 20.505210876464844 C 27.34280014038086 22.630237579345703 23.46560287475586 26.70284652709961 26.214338302612305 31.96357536315918 C 20.640817642211914 32.55653762817383 11.387289047241211 30.278554916381836 3.5971426963806152 33.452762603759766 C 8.806398391723633 36.2581901550293 8.63524055480957 39.17934036254883 10.861406326293945 40.466941833496094 C 10.510703086853027 42.74806594848633 7.381290435791016 49.35306930541992 11.753009796142578 53.795326232910156 C 17.784914016723633 51.02555847167969 19.457731246948242 51.45334243774414 18.462127685546875 58.35909652709961 C 11.321884155273438 60.720794677734375 9.42691421508789 62.39738082885742 0.1750449538230896 61.646827697753906 C -0.4288777709007263 39.980403900146484 -0.35472372174263 19.756759643554688 0.0035738269798457623 -0.14220617711544037" stroke-width="0.0" fill="url(#shape_30_fill)"/>
    <path d="M 549.0322875976562 70.7249526977539 C 546.757568359375 78.55738067626953 576.7876586914062 89.29029083251953 581.3970947265625 91.85650634765625 C 581.0068969726562 93.02055358886719 577.5438232421875 93.3972396850586 577.5089721679688 98.3398666381836 C 573.296875 100.6875991821289 572.0518188476562 99.80754852294922 569.5327758789062 100.0138931274414 C 567.036865234375 94.12808990478516 547.4465942382812 98.58206939697266 538.889892578125 88.26286315917969 C 538.2420043945312 85.53221893310547 538.8084716796875 82.82952880859375 535.9102783203125 81.75025939941406 C 533.9323120117188 81.04670715332031 527.1142578125 79.45110321044922 526.9910278320312 78.02002716064453 C 524.973876953125 75.86311340332031 527.73291015625 70.86189270019531 531.8002319335938 68.93938446044922 C 539.2755737304688 66.81903839111328 542.823974609375 71.4720687866211 549.0322875976562 70.7249526977539" stroke-width="0.0" fill="url(#shape_31_fill)"/>
    <path d="M 446.8902587890625 264.4609680175781 C 450.598876953125 265.3360595703125 451.2371520996094 266.7808837890625 455.492431640625 267.886474609375 C 460.5113830566406 267.6551208496094 465.32232666015625 270.3759765625 469.9664611816406 272.9810791015625 C 470.4309997558594 275.6334533691406 471.828857421875 276.8868713378906 471.6768798828125 280.7862854003906 C 452.39947509765625 287.22222900390625 431.35882568359375 284.1648254394531 415.8285827636719 285.13861083984375 C 413.33843994140625 273.8726501464844 413.9379577636719 272.2701416015625 415.14874267578125 267.92913818359375 C 418.1724853515625 267.1879577636719 417.6905822753906 264.7641296386719 419.2963562011719 262.79852294921875 C 445.04681396484375 250.3391571044922 447.28131103515625 251.496826171875 446.8902587890625 264.4609680175781" stroke-width="0.0" fill="url(#shape_32_fill)"/>
    <path d="M 272.9425354003906 192.04107666015625 C 274.0357360839844 192.3724822998047 288.44036865234375 243.7474822998047 282.8065490722656 249.7718048095703 C 279.71392822265625 249.967041015625 274.1348876953125 247.9806671142578 269.05499267578125 250.392578125 C 266.0207824707031 246.86212158203125 266.3523254394531 243.08042907714844 260.7296142578125 240.70570373535156 C 254.82679748535156 208.40635681152344 262.1584167480469 205.16676330566406 272.9425354003906 192.04107666015625" stroke-width="0.0" fill="url(#shape_33_fill)"/>
    <path d="M 270.319091796875 405.9904479980469 C 262.1482849121094 429.8017883300781 264.2077331542969 430.9082946777344 267.3822021484375 440.6524963378906 C 262.4931945800781 440.84552001953125 260.68548583984375 446.4212646484375 258.6138610839844 447.8636779785156 C 245.2710418701172 445.8843994140625 212.7145233154297 448.9208679199219 212.34812927246094 445.1035461425781 C 213.02137756347656 436.99578857421875 213.95974731445312 436.2215270996094 216.09939575195312 434.79638671875 C 216.5487060546875 433.6872863769531 225.12631225585938 434.132080078125 226.85951232910156 431.1417236328125 C 226.2081298828125 417.3508605957031 230.8240966796875 416.6430969238281 270.319091796875 405.9904479980469" stroke-width="0.0" fill="url(#shape_34_fill)"/>
    <path d="M 105.56561279296875 69.5785140991211 C 110.38189697265625 69.66753387451172 110.49764251708984 78.3362808227539 112.84278106689453 85.2454605102539 C 117.95750427246094 86.40054321289062 115.88892364501953 110.00542449951172 118.96368408203125 110.68449401855469 C 116.66668701171875 112.47539520263672 109.39774322509766 114.19178009033203 107.01539611816406 124.99825286865234 C 104.55914306640625 117.12031555175781 96.47627258300781 118.92233276367188 87.48292541503906 106.76820373535156 C 86.00802612304688 85.63899230957031 106.24079895019531 84.18342590332031 105.56561279296875 69.5785140991211" stroke-width="0.0" fill="url(#shape_35_fill)"/>
    <path d="M 451.19378662109375 178.47157287597656 C 454.2500305175781 176.06080627441406 456.38763427734375 177.7799530029297 455.0793762207031 180.33843994140625 C 455.8210144042969 180.90432739257812 454.9791564941406 184.89031982421875 456.0704345703125 186.8598175048828 C 456.4423828125 188.4287109375 459.3633117675781 193.68927001953125 458.64794921875 204.47743225097656 C 458.8225402832031 208.2880401611328 453.31402587890625 210.2821807861328 446.01922607421875 204.4136199951172 C 442.25701904296875 206.7010040283203 440.6965637207031 209.35983276367188 431.95306396484375 210.85824584960938 C 436.0241394042969 209.91741943359375 436.9470520019531 187.2995147705078 437.6670837402344 173.59414672851562 C 440.2113952636719 178.74061584472656 440.7109375 181.32220458984375 446.8651428222656 181.59849548339844 C 447.95556640625 179.74195861816406 450.1521911621094 179.7261199951172 451.19378662109375 178.47157287597656" stroke-width="0.0" fill="url(#shape_36_fill)"/>
    <path d="M 558.2933349609375 84.66983032226562 C 559.7283935546875 80.09881591796875 578.3464965820312 83.2981185913086 579.30517578125 85.01395416259766 C 581.34716796875 83.07987213134766 586.3023681640625 84.93074798583984 588.4165649414062 88.79650115966797 C 598.7574462890625 111.53227233886719 588.4174194335938 118.05313873291016 574.3057861328125 100.94190216064453 C 573.7884521484375 99.45172882080078 550.1122436523438 96.80896759033203 548.9246826171875 86.66866302490234 C 539.2019653320312 86.94389343261719 537.7653198242188 85.41596221923828 536.8325805664062 79.87724304199219 C 543.2870483398438 74.68220520019531 546.8335571289062 78.8688735961914 558.2933349609375 84.66983032226562" stroke-width="0.0" fill="url(#shape_37_fill)"/>
    <path d="M 251.6764373779297 206.70736694335938 C 265.9621887207031 215.3405303955078 261.36248779296875 234.10125732421875 260.068115234375 248.76589965820312 C 259.92022705078125 254.67355346679688 251.51202392578125 255.27281188964844 248.85537719726562 256.92230224609375 C 234.16709899902344 236.1304931640625 240.5355682373047 216.11770629882812 251.6764373779297 206.70736694335938" stroke-width="0.0" fill="url(#shape_38_fill)"/>
    <path d="M 442.200439453125 262.9429016113281 C 445.9890441894531 263.4174499511719 449.2166442871094 266.6805114746094 447.93634033203125 270.0833435058594 C 444.6692810058594 270.4041442871094 442.6746520996094 277.354248046875 440.0699768066406 277.33221435546875 C 438.0985412597656 286.87744140625 430.7007141113281 286.1966552734375 417.5492858886719 275.2906494140625 C 414.3734130859375 276.6896057128906 413.2152099609375 274.2217712402344 416.4274597167969 271.5888671875 C 414.8133239746094 269.9116516113281 419.259521484375 262.27227783203125 425.21429443359375 258.52020263671875 C 426.9718322753906 257.8919677734375 440.6894836425781 257.6746520996094 442.200439453125 262.9429016113281" stroke-width="0.0" fill="url(#shape_39_fill)"/>
    <path d="M 407.6420593261719 409.94927978515625 C 408.6296691894531 409.92510986328125 416.76409912109375 419.1708068847656 414.2907409667969 424.4407653808594 C 398.6380310058594 435.3741760253906 386.3774719238281 420.50885009765625 376.5342102050781 420.8927917480469 C 371.0687561035156 417.9625549316406 371.22491455078125 416.5549011230469 372.5722351074219 410.52642822265625 C 375.6160583496094 401.0163269042969 391.76495361328125 404.0392761230469 407.6420593261719 409.94927978515625" stroke-width="0.0" fill="url(#shape_40_fill)"/>
    <path d="M 66.63861083984375 427.3544006347656 C 67.20361328125 428.91998291015625 63.867042541503906 431.7991638183594 58.5838623046875 434.065673828125 C 57.341190338134766 435.79608154296875 42.56747817993164 435.4398193359375 30.995607376098633 443.35272216796875 C 28.972637176513672 443.44781494140625 26.833080291748047 444.1674499511719 17.408504486083984 442.57061767578125 C 16.463682174682617 440.6541442871094 18.087907791137695 439.2092590332031 17.400768280029297 437.7244567871094 C 36.50151824951172 427.0264892578125 51.188724517822266 428.5585632324219 66.63861083984375 427.3544006347656" stroke-width="0.0" fill="url(#shape_41_fill)"/>
    <path d="M 276.3697204589844 381.1139221191406 C 284.9941711425781 381.4344787597656 299.3228759765625 379.8603210449219 313.2573547363281 385.016845703125 C 296.6888427734375 394.370849609375 299.28472900390625 401.1367492675781 294.5834045410156 405.2496643066406 C 291.7818908691406 400.1440124511719 268.3156433105469 407.5542297363281 257.6835021972656 410.1791687011719 C 236.6048583984375 420.2071228027344 229.0575714111328 416.354248046875 228.0437469482422 383.8863220214844 C 259.73046875 378.0616149902344 266.13543701171875 382.35308837890625 276.3697204589844 381.1139221191406" stroke-width="0.0" fill="url(#shape_42_fill)"/>
    <path d="M 222.68020629882812 209.05833435058594 C 224.22605895996094 206.45913696289062 238.66058349609375 206.16481018066406 238.73602294921875 209.8430938720703 C 242.86009216308594 221.9229278564453 243.75045776367188 245.13818359375 256.2910461425781 270.5667724609375 C 252.3675079345703 276.561767578125 243.5037841796875 273.5613098144531 208.09466552734375 272.3919982910156 C 208.5569610595703 266.24432373046875 206.17945861816406 250.87342834472656 216.1044921875 247.53292846679688 C 219.16136169433594 246.45123291015625 218.49618530273438 226.42796325683594 222.68020629882812 209.05833435058594" stroke-width="0.0" fill="url(#shape_43_fill)"/>
    <path d="M 483.5747375488281 396.1470947265625 C 486.7066650390625 399.5611572265625 485.81201171875 400.9820556640625 483.3377685546875 400.9701232910156 C 469.08746337890625 407.501708984375 451.1646423339844 406.939697265625 450.2975158691406 407.48236083984375 C 448.3828430175781 404.44525146484375 451.8144836425781 396.22393798828125 453.7216491699219 396.5301513671875 C 466.82281494140625 393.3900451660156 471.08160400390625 392.41058349609375 483.5747375488281 396.1470947265625" stroke-width="0.0" fill="url(#shape_44_fill)"/>
    <path d="M 45.89673614501953 408.1557922363281 C 45.2541389465332 407.86883544921875 35.91165542602539 412.82568359375 31.89766502380371 412.486572265625 C 32.087467193603516 414.2381896972656 31.726810455322266 415.65716552734375 28.03325080871582 414.9844055175781 C 26.924057006835938 416.3087158203125 23.794116973876953 416.9317626953125 20.350576400756836 419.87615966796875 C 18.85257339477539 420.14227294921875 0.19554218649864197 417.4814453125 -0.6888046264648438 420.49542236328125 C 2.03721022605896 419.4039306640625 -1.167752981185913 411.18133544921875 1.0120751857757568 410.1777648925781 C 5.754717826843262 409.6998291015625 45.47315979003906 406.25787353515625 45.89673614501953 408.1557922363281" stroke-width="0.0" fill="url(#shape_45_fill)"/>
    <path d="M 452.4749755859375 173.48995971679688 C 453.8511962890625 174.93955993652344 464.4559631347656 198.64215087890625 467.39154052734375 199.72433471679688 C 462.5882263183594 209.13011169433594 451.0252990722656 209.12884521484375 449.4435729980469 206.5067901611328 C 448.2974548339844 203.27365112304688 448.93402099609375 198.32566833496094 448.8510437011719 195.29678344726562 C 447.9674072265625 194.57496643066406 447.58245849609375 192.03292846679688 448.5248718261719 187.98377990722656 C 450.9607849121094 186.6391143798828 450.15203857421875 182.48231506347656 452.4749755859375 173.48995971679688" stroke-width="0.0" fill="url(#shape_46_fill)"/>
    <path d="M 372.10272216796875 183.7967071533203 C 379.9515075683594 198.4071807861328 380.2037658691406 202.58047485351562 371.8868103027344 205.9280548095703 C 365.86822509765625 206.84092712402344 364.772216796875 204.75221252441406 361.5967102050781 206.08612060546875 C 339.545166015625 212.46632385253906 335.03173828125 200.55136108398438 353.3592834472656 189.41134643554688 C 356.709716796875 184.9858856201172 358.37908935546875 184.3601531982422 368.1938171386719 185.4586639404297 C 369.0323181152344 182.77645874023438 371.4079284667969 182.92823791503906 372.10272216796875 183.7967071533203" stroke-width="0.0" fill="url(#shape_47_fill)"/>
    <path d="M 473.2303161621094 264.4288635253906 C 473.7669372558594 268.8215026855469 481.16070556640625 271.5635070800781 484.6740417480469 283.4189147949219 C 467.07720947265625 287.9495544433594 445.3736877441406 286.9723815917969 443.8061218261719 284.9136657714844 C 439.3349914550781 282.09765625 439.9993591308594 276.96710205078125 440.984375 276.2862548828125 C 449.3067626953125 266.53802490234375 455.9947204589844 261.6368103027344 473.2303161621094 264.4288635253906" stroke-width="0.0" fill="url(#shape_48_fill)"/>
    <path d="M 176.48345947265625 116.664306640625 C 178.19223022460938 115.62744140625 181.71945190429688 116.14431762695312 182.72007751464844 117.20748138427734 C 184.62852478027344 120.08704376220703 183.9330596923828 121.74857330322266 184.7414093017578 123.333740234375 C 179.4304656982422 128.27239990234375 185.55203247070312 137.02073669433594 183.07313537597656 139.101318359375 C 181.51797485351562 146.21112060546875 172.8195037841797 146.33389282226562 172.42462158203125 146.8452606201172 C 172.90318298339844 126.96305084228516 171.09413146972656 124.40985107421875 176.48345947265625 116.664306640625" stroke-width="0.0" fill="url(#shape_49_fill)"/>
    <path d="M 333.74542236328125 426.7413024902344 C 335.4969177246094 430.1194152832031 342.55145263671875 429.22540283203125 343.7447814941406 431.50054931640625 C 346.38067626953125 435.5627136230469 345.15838623046875 437.2077331542969 342.2548522949219 437.4720458984375 C 342.43603515625 447.3438415527344 325.5467529296875 448.7991027832031 323.5557861328125 445.73321533203125 C 321.5750427246094 436.14862060546875 321.5898742675781 432.7105407714844 305.0758361816406 430.8573913574219 C 317.51837158203125 424.7289123535156 327.1398620605469 431.07159423828125 333.74542236328125 426.7413024902344" stroke-width="0.0" fill="url(#shape_50_fill)"/>
    <path d="M 322.132568359375 388.9384765625 C 315.4722900390625 396.4458923339844 293.0775451660156 395.3089599609375 291.52630615234375 398.9820556640625 C 279.1006774902344 397.68023681640625 277.85272216796875 398.95953369140625 271.24139404296875 402.2259826660156 C 271.2939758300781 401.5946044921875 270.12091064453125 398.8897705078125 271.81048583984375 397.51275634765625 C 270.4560241699219 395.5937194824219 273.6437683105469 388.72100830078125 280.0723876953125 388.4670104980469 C 284.26165771484375 386.8468017578125 288.4776306152344 390.34307861328125 322.132568359375 388.9384765625" stroke-width="0.0" fill="url(#shape_51_fill)"/>
    <path d="M 269.0257568359375 187.5125732421875 C 278.1357421875 195.3075714111328 276.85015869140625 207.73593139648438 280.17999267578125 217.4666748046875 C 271.594970703125 210.4255828857422 269.5386657714844 208.52516174316406 260.18658447265625 217.32156372070312 C 258.2010498046875 208.85134887695312 262.73193359375 195.21400451660156 267.9095153808594 195.79852294921875 C 269.6870422363281 194.1568145751953 268.8361511230469 191.55789184570312 269.0257568359375 187.5125732421875" stroke-width="0.0" fill="url(#shape_52_fill)"/>
    <path d="M 218.57716369628906 409.34112548828125 C 215.881103515625 410.89105224609375 215.8023681640625 413.3555908203125 214.31373596191406 415.4347229003906 C 214.62315368652344 424.0059814453125 195.54734802246094 425.24609375 187.7443389892578 415.6592712402344 C 186.38211059570312 403.557373046875 209.4608154296875 398.57012939453125 218.57716369628906 409.34112548828125" stroke-width="0.0" fill="url(#shape_53_fill)"/>
    <path d="M 206.03567504882812 424.6390075683594 C 205.43704223632812 425.21429443359375 206.15261840820312 428.3017578125 204.54568481445312 428.77703857421875 C 194.697998046875 429.459228515625 178.8323211669922 430.0918273925781 178.12783813476562 432.7119140625 C 176.98094177246094 430.9400329589844 178.58531188964844 425.9410705566406 177.25387573242188 423.85986328125 C 187.23187255859375 418.6159973144531 192.31813049316406 423.3064270019531 206.03567504882812 424.6390075683594" stroke-width="0.0" fill="url(#shape_54_fill)"/>
    <path d="M 268.9014587402344 248.18887329101562 C 275.22705078125 245.08517456054688 276.74993896484375 247.90487670898438 279.004150390625 249.2347412109375 C 281.1104431152344 251.00534057617188 280.7895812988281 252.14341735839844 294.60797119140625 273.3287658691406 C 263.4718322753906 258.18707275390625 262.8855285644531 257.51104736328125 248.93362426757812 269.3233642578125 C 254.81431579589844 248.17367553710938 255.93328857421875 247.25967407226562 258.7878112792969 245.2362060546875 C 261.1358337402344 240.17213439941406 263.1941223144531 239.32672119140625 268.9014587402344 248.18887329101562" stroke-width="0.0" fill="url(#shape_55_fill)"/>
    <path d="M 291.6943664550781 333.64251708984375 C 287.7265930175781 362.64697265625 288.3788146972656 363.3885803222656 285.61224365234375 368.0441589355469 C 285.58087158203125 369.222900390625 286.1099853515625 371.75994873046875 285.3945007324219 381.6109619140625 C 268.6509094238281 379.289794921875 255.43727111816406 380.62872314453125 232.3695068359375 382.6550598144531 C 228.1426239013672 382.6960754394531 227.50152587890625 369.814208984375 236.4085693359375 345.0989074707031 C 237.5630645751953 335.1249694824219 239.2281951904297 332.1199035644531 291.6943664550781 333.64251708984375" stroke-width="0.0" fill="url(#shape_56_fill)"/>
    <path d="M 407.9132385253906 271.9053039550781 C 412.504150390625 270.9653015136719 417.75677490234375 276.00958251953125 425.734619140625 281.9489440917969 C 416.3861083984375 283.3826599121094 412.4384765625 275.60052490234375 373.21942138671875 274.4041442871094 C 375.0149230957031 262.556884765625 382.8521423339844 263.32135009765625 407.9132385253906 271.9053039550781" stroke-width="0.0" fill="url(#shape_57_fill)"/>
    <path d="M 632.121826171875 352.536865234375 C 632.981689453125 354.4229736328125 661.1519775390625 355.3299865722656 668.4755859375 355.7846374511719 C 668.4241943359375 357.9836730957031 662.9898071289062 360.1129455566406 660.1912231445312 356.5335388183594 C 644.218017578125 356.6903381347656 636.7779541015625 358.76348876953125 631.758544921875 359.40728759765625 C 627.9392700195312 357.32989501953125 629.6053466796875 353.7139587402344 632.121826171875 352.536865234375" stroke-width="0.0" fill="url(#shape_58_fill)"/>
    <path d="M 341.3962707519531 384.5951843261719 C 342.84625244140625 390.0615539550781 358.157470703125 391.5769958496094 359.1588134765625 394.5541687011719 C 356.5943908691406 398.53021240234375 339.7771911621094 401.29083251953125 338.2708740234375 399.57489013671875 C 335.1358642578125 399.64007568359375 333.0505676269531 398.79266357421875 331.8213195800781 396.5372619628906 C 331.9944152832031 394.93994140625 330.7391357421875 393.4737243652344 332.23004150390625 390.5687561035156 C 332.6590576171875 384.8272399902344 335.26171875 383.752197265625 341.3962707519531 384.5951843261719" stroke-width="0.0" fill="url(#shape_59_fill)"/>
    <path d="M 457.7292785644531 364.9617614746094 C 461.6639709472656 362.2233581542969 474.6686096191406 372.0914001464844 473.2491760253906 374.6292419433594 C 471.8153076171875 376.242919921875 470.33636474609375 376.8203125 463.73480224609375 375.8688659667969 C 458.9563903808594 376.679931640625 456.9215393066406 377.1025695800781 452.784423828125 371.2494201660156 C 453.3760070800781 370.09197998046875 458.4981689453125 368.27703857421875 457.7292785644531 364.9617614746094" stroke-width="0.0" fill="url(#shape_60_fill)"/>
    <path d="M 428.2111511230469 432.2857971191406 C 439.9740295410156 434.2026062011719 442.372314453125 436.7527770996094 442.1182556152344 438.6092224121094 C 440.2564697265625 440.73846435546875 427.2837219238281 439.349609375 425.68328857421875 441.9669189453125 C 422.5533447265625 437.61279296875 423.9073181152344 434.6995544433594 410.13507080078125 425.2718200683594 C 427.66680908203125 428.01239013671875 428.9515380859375 431.62530517578125 428.2111511230469 432.2857971191406" stroke-width="0.0" fill="url(#shape_61_fill)"/>
    <path d="M 185.3867645263672 411.45281982421875 C 186.23941040039062 413.8905029296875 185.0494384765625 414.82061767578125 186.8314971923828 417.70562744140625 C 184.87913513183594 420.2370910644531 183.37791442871094 419.48095703125 182.5457305908203 419.8088684082031 C 180.8382110595703 421.6632995605469 174.47393798828125 420.1208190917969 171.82911682128906 419.9306945800781 C 169.61483764648438 417.5278015136719 169.79086303710938 415.62255859375 175.16018676757812 412.1579284667969 C 176.64816284179688 413.6902160644531 180.039794921875 410.4772644042969 185.3867645263672 411.45281982421875" stroke-width="0.0" fill="url(#shape_62_fill)"/>
    <path d="M 331.7451171875 418.9324035644531 C 334.1964416503906 425.5761413574219 329.84100341796875 427.7765808105469 327.2010803222656 425.4075927734375 C 324.45684814453125 427.72064208984375 322.94427490234375 426.6698913574219 321.93438720703125 427.2706604003906 C 319.02520751953125 425.93798828125 320.1128845214844 419.93963623046875 317.6761474609375 418.5328369140625 C 318.95599365234375 420.3867492675781 325.6549987792969 418.4930114746094 331.7451171875 418.9324035644531" stroke-width="0.0" fill="url(#shape_63_fill)"/>
    <path d="M 55.66526794433594 274.4566650390625 C 56.740028381347656 269.79315185546875 64.14026641845703 271.22845458984375 62.93624496459961 278.7461242675781 C 59.70953369140625 278.5407409667969 54.080501556396484 272.12152099609375 48.866973876953125 276.65753173828125 C 51.55194091796875 273.9660339355469 53.06902313232422 273.446044921875 55.66526794433594 274.4566650390625" stroke-width="0.0" fill="url(#shape_64_fill)"/>
    <path d="M 304.7115783691406 440.353759765625 C 304.56549072265625 437.8078918457031 306.4190673828125 436.9089660644531 313.2344665527344 437.7413330078125 C 314.3485107421875 439.638671875 312.8207702636719 441.0423278808594 310.7395324707031 441.1717834472656 C 307.81060791015625 445.14129638671875 306.431884765625 444.18048095703125 305.1319580078125 443.75018310546875 C 302.5943298339844 441.7139587402344 303.37762451171875 440.3722839355469 304.7115783691406 440.353759765625" stroke-width="0.0" fill="url(#shape_65_fill)"/>
    <path d="M -0.6002416610717773 -0.4228375554084778 C 224.6803436279297 -0.12068311870098114 444.10748291015625 0.3134500980377197 672.3717651367188 0.14908140897750854 C 673.3816528320312 155.77532958984375 674.7950439453125 295.7994079589844 673.773193359375 445.46954345703125 C 450.02294921875 446.3148498535156 229.97036743164062 446.3213806152344 0.4377685487270355 445.5343017578125 C 0.1765873283147812 297.280029296875 -0.2289152890443802 149.5745086669922 -0.6002416610717773 -0.4228375554084778" stroke-width="0.0" fill="url(#shape_66_fill)"/>
    <path d="M -1.14792001247406 -0.23861882090568542 C 222.89134216308594 -0.14002099633216858 442.8799133300781 0.40625929832458496 672.2938842773438 -0.25946128368377686 C 673.393798828125 156.9464111328125 674.8472290039062 295.47613525390625 673.4063110351562 445.3930969238281 C 450.3392028808594 446.3735046386719 230.05874633789062 446.3519592285156 0.47907039523124695 445.4745178222656 C 0.021924441680312157 297.63909912109375 -0.3080393075942993 149.22142028808594 -1.14792001247406 -0.23861882090568542" stroke-width="0.0" fill="url(#shape_67_fill)"/>
    <path d="M -0.7363973259925842 -0.28637465834617615 C 223.5614776611328 -0.19551876187324524 441.5621337890625 0.5386481285095215 672.5464477539062 -0.33665964007377625 C 673.5269775390625 155.9208221435547 674.848876953125 295.2396545410156 673.3922729492188 445.39227294921875 C 450.3417053222656 446.3753967285156 230.13427734375 446.3473205566406 1.099738597869873 445.4424743652344 C 0.4707389771938324 295.7618103027344 0.05560460314154625 148.5806884765625 -0.7363973259925842 -0.28637465834617615" stroke-width="0.0" fill="url(#shape_68_fill)"/>
  </g>
</svg>
