<?xml version="1.0" ?>
<svg xmlns="http://www.w3.org/2000/svg" version="1.1" width="674" height="446">
  <defs>
    <radialGradient id="shape_0_fill" cx="0.5314770254253988" cy="0.7397033965106502" r="0.2819477839710451">
      <stop offset="0.71170336" stop-color="rgb(158, 168, 0)" stop-opacity="0.8370058536529541"/>
      <stop offset="1.0" stop-color="rgb(48, 41, 0)" stop-opacity="0.9866222143173218"/>
    </radialGradient>
    <radialGradient id="shape_1_fill" cx="0.5331267857763817" cy="0.7434333151231433" r="0.206678373523565">
      <stop offset="0.37396517" stop-color="rgb(67, 60, 74)" stop-opacity="0.7482873797416687"/>
      <stop offset="0.9988778" stop-color="rgb(35, 8, 0)" stop-opacity="0.6061933636665344"/>
    </radialGradient>
    <radialGradient id="shape_2_fill" cx="0.09792273546892387" cy="0.7376672719091578" r="0.22062588021026522">
      <stop offset="0.0021603918" stop-color="rgb(47, 108, 188)" stop-opacity="0.8774078488349915"/>
      <stop offset="0.98522437" stop-color="rgb(3, 89, 255)" stop-opacity="0.8994992971420288"/>
    </radialGradient>
    <radialGradient id="shape_3_fill" cx="0.2782776829750672" cy="0.21503537438910103" r="0.13175539871351655">
      <stop offset="0.40402067" stop-color="rgb(127, 173, 0)" stop-opacity="0.768747866153717"/>
      <stop offset="1.0" stop-color="rgb(35, 31, 0)" stop-opacity="0.9288797974586487"/>
    </radialGradient>
    <radialGradient id="shape_4_fill" cx="0.1543026706231454" cy="0.9977578475336323" r="0.10288926755639141">
      <stop offset="0.0" stop-color="rgb(81, 79, 86)" stop-opacity="1.0"/>
      <stop offset="1.0" stop-color="rgb(51, 41, 65)" stop-opacity="0.856503427028656"/>
    </radialGradient>
    <radialGradient id="shape_5_fill" cx="0.14807964290992442" cy="0.23997249517740155" r="0.11810664960821587">
      <stop offset="0.0" stop-color="rgb(255, 255, 255)" stop-opacity="0.6465655565261841"/>
      <stop offset="0.5626593" stop-color="rgb(255, 255, 255)" stop-opacity="0.514940619468689"/>
    </radialGradient>
    <radialGradient id="shape_6_fill" cx="0.18397626112759644" cy="0.9977578475336323" r="0.0754974885934892">
      <stop offset="0.0" stop-color="rgb(93, 90, 94)" stop-opacity="1.0"/>
      <stop offset="1.0" stop-color="rgb(146, 126, 132)" stop-opacity="0.8872134685516357"/>
    </radialGradient>
    <radialGradient id="shape_7_fill" cx="0.2893175074183976" cy="0.05829596412556054" r="0.08666390552011372">
      <stop offset="0.0" stop-color="rgb(55, 66, 29)" stop-opacity="1.0"/>
      <stop offset="1.0" stop-color="rgb(119, 129, 55)" stop-opacity="0.5747029185295105"/>
    </radialGradient>
    <radialGradient id="shape_8_fill" cx="0.3382789091115889" cy="0.9439461883408071" r="0.06756690277190167">
      <stop offset="0.0" stop-color="rgb(91, 124, 45)" stop-opacity="1.0"/>
      <stop offset="1.0" stop-color="rgb(88, 142, 7)" stop-opacity="0.5645406246185303"/>
    </radialGradient>
    <radialGradient id="shape_9_fill" cx="0.30712166172106825" cy="0.9977578475336323" r="0.0730758406641929">
      <stop offset="0.0" stop-color="rgb(38, 48, 20)" stop-opacity="1.0"/>
      <stop offset="1.0" stop-color="rgb(34, 28, 52)" stop-opacity="1.0"/>
    </radialGradient>
    <radialGradient id="shape_10_fill" cx="0.3056379821958457" cy="0.9977578475336323" r="0.06792919147615971">
      <stop offset="0.0" stop-color="rgb(39, 49, 21)" stop-opacity="1.0"/>
      <stop offset="1.0" stop-color="rgb(32, 7, 0)" stop-opacity="0.6485219597816467"/>
    </radialGradient>
    <radialGradient id="shape_11_fill" cx="0.21810089020771514" cy="0.968609865470852" r="0.06792919147615971">
      <stop offset="0.0" stop-color="rgb(138, 135, 129)" stop-opacity="1.0"/>
      <stop offset="1.0" stop-color="rgb(121, 76, 50)" stop-opacity="0.4197963774204254"/>
    </radialGradient>
    <radialGradient id="shape_12_fill" cx="0.29080118694362017" cy="0.9977578475336323" r="0.07480746985189285">
      <stop offset="0.0" stop-color="rgb(22, 25, 13)" stop-opacity="1.0"/>
      <stop offset="1.0" stop-color="rgb(37, 31, 14)" stop-opacity="1.0"/>
    </radialGradient>
    <radialGradient id="shape_13_fill" cx="0.327893175074184" cy="0.8923766816143498" r="0.06900465877544279">
      <stop offset="0.0" stop-color="rgb(89, 117, 50)" stop-opacity="1.0"/>
      <stop offset="1.0" stop-color="rgb(92, 121, 9)" stop-opacity="0.6465263366699219"/>
    </radialGradient>
    <radialGradient id="shape_14_fill" cx="0.142433234421365" cy="0.9977578475336323" r="0.06617211022079875">
      <stop offset="0.0" stop-color="rgb(155, 150, 153)" stop-opacity="1.0"/>
      <stop offset="1.0" stop-color="rgb(255, 151, 146)" stop-opacity="0.2276163101196289"/>
    </radialGradient>
    <radialGradient id="shape_15_fill" cx="0.31008902077151335" cy="0.9977578475336323" r="0.06683642786405207">
      <stop offset="0.0" stop-color="rgb(43, 55, 23)" stop-opacity="1.0"/>
      <stop offset="1.0" stop-color="rgb(60, 65, 21)" stop-opacity="0.8763354420661926"/>
    </radialGradient>
    <radialGradient id="shape_16_fill" cx="0.27299703264094954" cy="0.9977578475336323" r="0.08110449363640579">
      <stop offset="0.0" stop-color="rgb(31, 35, 19)" stop-opacity="1.0"/>
      <stop offset="1.0" stop-color="rgb(30, 24, 0)" stop-opacity="0.9443544745445251"/>
    </radialGradient>
    <radialGradient id="shape_17_fill" cx="0.2893175074183976" cy="0.9977578475336323" r="0.07513486030193747">
      <stop offset="0.0" stop-color="rgb(22, 23, 13)" stop-opacity="1.0"/>
      <stop offset="1.0" stop-color="rgb(25, 20, 0)" stop-opacity="0.8538385629653931"/>
    </radialGradient>
    <radialGradient id="shape_18_fill" cx="0.3293768545994065" cy="0.7556053811659192" r="0.06617211022079875">
      <stop offset="0.0" stop-color="rgb(83, 108, 65)" stop-opacity="1.0"/>
      <stop offset="1.0" stop-color="rgb(105, 123, 58)" stop-opacity="0.9685319066047668"/>
    </radialGradient>
    <radialGradient id="shape_19_fill" cx="0.3516320474777448" cy="0.9977578475336323" r="0.06617211022079875">
      <stop offset="0.0" stop-color="rgb(95, 135, 39)" stop-opacity="1.0"/>
      <stop offset="1.0" stop-color="rgb(127, 184, 0)" stop-opacity="0.6353628635406494"/>
    </radialGradient>
    <radialGradient id="shape_20_fill" cx="0.0830860534124629" cy="0.9977578475336323" r="0.06792919147615971">
      <stop offset="0.0" stop-color="rgb(49, 52, 66)" stop-opacity="1.0"/>
      <stop offset="1.0" stop-color="rgb(43, 28, 64)" stop-opacity="0.44458046555519104"/>
    </radialGradient>
    <radialGradient id="shape_21_fill" cx="0.29821958456973297" cy="0.9977578475336323" r="0.06792919147615971">
      <stop offset="0.0" stop-color="rgb(33, 40, 17)" stop-opacity="1.0"/>
      <stop offset="1.0" stop-color="rgb(48, 62, 0)" stop-opacity="0.7170939445495605"/>
    </radialGradient>
    <radialGradient id="shape_22_fill" cx="0.3563326600751113" cy="0.44372438849889645" r="0.06594546966099951">
      <stop offset="0.52384716" stop-color="rgb(107, 133, 36)" stop-opacity="0.9860413074493408"/>
      <stop offset="0.38891584" stop-color="rgb(145, 173, 40)" stop-opacity="0.9100255966186523"/>
    </radialGradient>
    <radialGradient id="shape_23_fill" cx="0.6454005934718101" cy="0.1412556053811659" r="0.06617211022079875">
      <stop offset="0.0" stop-color="rgb(46, 38, 13)" stop-opacity="1.0"/>
      <stop offset="1.0" stop-color="rgb(54, 28, 0)" stop-opacity="0.8886069655418396"/>
    </radialGradient>
    <radialGradient id="shape_24_fill" cx="0.2492550586734398" cy="0.4843076355254169" r="0.06616971047059012">
      <stop offset="0.0" stop-color="rgb(205, 213, 206)" stop-opacity="1.0"/>
      <stop offset="0.92454517" stop-color="rgb(255, 255, 255)" stop-opacity="0.34023407101631165"/>
    </radialGradient>
    <radialGradient id="shape_25_fill" cx="0.6320474777448071" cy="0.9977578475336323" r="0.06617211022079875">
      <stop offset="0.0" stop-color="rgb(35, 28, 8)" stop-opacity="1.0"/>
      <stop offset="1.0" stop-color="rgb(39, 14, 0)" stop-opacity="0.6899247765541077"/>
    </radialGradient>
    <radialGradient id="shape_26_fill" cx="0.15414520399506793" cy="0.3207086811151205" r="0.06604698362265567">
      <stop offset="0.11989566" stop-color="rgb(198, 211, 155)" stop-opacity="1.0"/>
      <stop offset="0.58338004" stop-color="rgb(166, 142, 105)" stop-opacity="0.33996614813804626"/>
    </radialGradient>
    <radialGradient id="shape_27_fill" cx="0.15410647972401242" cy="0.3208032787648017" r="0.06604505929465818">
      <stop offset="0.0" stop-color="rgb(192, 205, 0)" stop-opacity="1.0"/>
      <stop offset="0.49375948" stop-color="rgb(49, 43, 29)" stop-opacity="0.4771333336830139"/>
    </radialGradient>
    <radialGradient id="shape_28_fill" cx="0.034128681488489895" cy="0.01567054008689162" r="0.07204930223414027">
      <stop offset="0.10025477" stop-color="rgb(8, 20, 112)" stop-opacity="0.9408067464828491"/>
      <stop offset="0.79707104" stop-color="rgb(9, 24, 154)" stop-opacity="0.771297812461853"/>
    </radialGradient>
    <radialGradient id="shape_29_fill" cx="0.33976258863681147" cy="0.6659192825112108" r="0.06617211022079875">
      <stop offset="0.0" stop-color="rgb(90, 117, 55)" stop-opacity="1.0"/>
      <stop offset="1.0" stop-color="rgb(106, 130, 28)" stop-opacity="0.8670591115951538"/>
    </radialGradient>
    <radialGradient id="shape_30_fill" cx="0.038943222792990485" cy="0.016040637354145137" r="0.06940442659734618">
      <stop offset="0.17530468" stop-color="rgb(50, 70, 76)" stop-opacity="1.0"/>
      <stop offset="0.9296299" stop-color="rgb(64, 64, 0)" stop-opacity="0.49598225951194763"/>
    </radialGradient>
    <radialGradient id="shape_31_fill" cx="0.12314540059347182" cy="0.9977578475336323" r="0.06617211022079875">
      <stop offset="0.0" stop-color="rgb(95, 103, 98)" stop-opacity="1.0"/>
      <stop offset="1.0" stop-color="rgb(136, 119, 109)" stop-opacity="0.7309027910232544"/>
    </radialGradient>
    <radialGradient id="shape_32_fill" cx="0.4035608308605341" cy="0.984304932735426" r="0.06617211022079875">
      <stop offset="0.0" stop-color="rgb(126, 155, 63)" stop-opacity="1.0"/>
      <stop offset="1.0" stop-color="rgb(103, 81, 13)" stop-opacity="0.6454617977142334"/>
    </radialGradient>
    <radialGradient id="shape_33_fill" cx="0.3249258160237389" cy="0.6053811659192825" r="0.06617211022079875">
      <stop offset="1.574918e-05" stop-color="rgb(93, 124, 71)" stop-opacity="0.999808132648468"/>
      <stop offset="1.0" stop-color="rgb(124, 141, 58)" stop-opacity="1.0"/>
    </radialGradient>
    <radialGradient id="shape_34_fill" cx="0.6468842729970327" cy="0.531390134529148" r="0.06617211022079875">
      <stop offset="0.0" stop-color="rgb(54, 47, 24)" stop-opacity="1.0"/>
      <stop offset="1.0" stop-color="rgb(45, 9, 33)" stop-opacity="0.3886575996875763"/>
    </radialGradient>
    <radialGradient id="shape_35_fill" cx="0.1502827607559521" cy="0.23859042864743904" r="0.06735960170847725">
      <stop offset="0.10998426" stop-color="rgb(207, 255, 94)" stop-opacity="0.14216341078281403"/>
      <stop offset="0.53864074" stop-color="rgb(105, 71, 66)" stop-opacity="0.8336842656135559"/>
    </radialGradient>
    <radialGradient id="shape_36_fill" cx="0.2878338278931751" cy="0.9977578475336323" r="0.06617211022079875">
      <stop offset="0.0" stop-color="rgb(80, 96, 53)" stop-opacity="1.0"/>
      <stop offset="1.0" stop-color="rgb(23, 18, 0)" stop-opacity="0.7789075970649719"/>
    </radialGradient>
    <radialGradient id="shape_37_fill" cx="0.129080118694362" cy="0.9977578475336323" r="0.06617211022079875">
      <stop offset="0.0" stop-color="rgb(87, 97, 81)" stop-opacity="1.0"/>
      <stop offset="1.0" stop-color="rgb(63, 65, 58)" stop-opacity="0.6043301224708557"/>
    </radialGradient>
    <radialGradient id="shape_38_fill" cx="0.33892324204260943" cy="0.5607740119968294" r="0.0666785763703751">
      <stop offset="0.7501433" stop-color="rgb(85, 107, 28)" stop-opacity="0.9259302020072937"/>
      <stop offset="0.6022492" stop-color="rgb(164, 246, 77)" stop-opacity="0.8707130551338196"/>
    </radialGradient>
    <radialGradient id="shape_39_fill" cx="0.40059347181008903" cy="0.9641255605381166" r="0.06617211022079875">
      <stop offset="0.0" stop-color="rgb(138, 168, 60)" stop-opacity="1.0"/>
      <stop offset="1.0" stop-color="rgb(220, 255, 86)" stop-opacity="0.8508749604225159"/>
    </radialGradient>
    <radialGradient id="shape_40_fill" cx="0.6106770682405648" cy="0.8750100584842699" r="0.0720184846872392">
      <stop offset="0.3675076" stop-color="rgb(159, 141, 176)" stop-opacity="0.28168028593063354"/>
      <stop offset="0.5251725" stop-color="rgb(2, 7, 62)" stop-opacity="0.815746009349823"/>
    </radialGradient>
    <radialGradient id="shape_41_fill" cx="0.6454005934718101" cy="0.08744394618834081" r="0.06617211022079875">
      <stop offset="0.0" stop-color="rgb(58, 48, 21)" stop-opacity="1.0"/>
      <stop offset="1.0" stop-color="rgb(92, 60, 24)" stop-opacity="1.0"/>
    </radialGradient>
    <radialGradient id="shape_42_fill" cx="0.5845697329376854" cy="0.6188340807174888" r="0.06617211022079875">
      <stop offset="0.0" stop-color="rgb(62, 59, 56)" stop-opacity="1.0"/>
      <stop offset="1.0" stop-color="rgb(45, 36, 78)" stop-opacity="0.6605804562568665"/>
    </radialGradient>
    <radialGradient id="shape_43_fill" cx="0.3544299977469515" cy="0.5016898595698746" r="0.07018543775428296">
      <stop offset="0.24433552" stop-color="rgb(119, 150, 53)" stop-opacity="0.9199230670928955"/>
      <stop offset="0.6147388" stop-color="rgb(202, 253, 21)" stop-opacity="0.7293293476104736"/>
    </radialGradient>
    <radialGradient id="shape_44_fill" cx="0.5934718100890207" cy="0.9977578475336323" r="0.06617211022079875">
      <stop offset="0.0" stop-color="rgb(89, 61, 18)" stop-opacity="1.0"/>
      <stop offset="1.0" stop-color="rgb(165, 77, 6)" stop-opacity="0.6939518451690674"/>
    </radialGradient>
    <radialGradient id="shape_45_fill" cx="0.612759643916914" cy="0.04035874439461883" r="0.06617211022079875">
      <stop offset="0.0" stop-color="rgb(157, 136, 123)" stop-opacity="1.0"/>
      <stop offset="1.0" stop-color="rgb(255, 215, 202)" stop-opacity="1.0"/>
    </radialGradient>
    <radialGradient id="shape_46_fill" cx="0.28635014836795253" cy="0.9977578475336323" r="0.06617211022079875">
      <stop offset="0.0" stop-color="rgb(82, 99, 55)" stop-opacity="1.0"/>
      <stop offset="1.0" stop-color="rgb(92, 96, 32)" stop-opacity="0.5738193988800049"/>
    </radialGradient>
    <radialGradient id="shape_47_fill" cx="0.28635014836795253" cy="0.8183856502242153" r="0.06617211022079875">
      <stop offset="0.0" stop-color="rgb(166, 189, 197)" stop-opacity="1.0"/>
      <stop offset="1.0" stop-color="rgb(241, 255, 255)" stop-opacity="0.44246482849121094"/>
    </radialGradient>
    <radialGradient id="shape_48_fill" cx="0.40801186943620177" cy="0.9977578475336323" r="0.06617211022079875">
      <stop offset="0.0" stop-color="rgb(107, 135, 68)" stop-opacity="1.0"/>
      <stop offset="1.0" stop-color="rgb(126, 135, 56)" stop-opacity="1.0"/>
    </radialGradient>
    <radialGradient id="shape_49_fill" cx="0.19287833827893175" cy="0.3991031390134529" r="0.06617211022079875">
      <stop offset="0.0" stop-color="rgb(92, 100, 54)" stop-opacity="1.0"/>
      <stop offset="1.0" stop-color="rgb(51, 21, 0)" stop-opacity="0.5077801942825317"/>
    </radialGradient>
    <radialGradient id="shape_50_fill" cx="0.6439169139465876" cy="0.7376681614349776" r="0.06617211022079875">
      <stop offset="0.0" stop-color="rgb(65, 56, 25)" stop-opacity="1.0"/>
      <stop offset="1.0" stop-color="rgb(146, 169, 88)" stop-opacity="0.35612058639526367"/>
    </radialGradient>
    <radialGradient id="shape_51_fill" cx="0.5845697329376854" cy="0.6322869955156951" r="0.06617211022079875">
      <stop offset="0.0" stop-color="rgb(75, 68, 60)" stop-opacity="1.0"/>
      <stop offset="1.0" stop-color="rgb(179, 131, 105)" stop-opacity="0.4817706048488617"/>
    </radialGradient>
    <radialGradient id="shape_52_fill" cx="0.2997032640949555" cy="0.6031390134529148" r="0.06617211022079875">
      <stop offset="0.0" stop-color="rgb(107, 158, 118)" stop-opacity="1.0"/>
      <stop offset="1.0" stop-color="rgb(172, 255, 214)" stop-opacity="0.5605734586715698"/>
    </radialGradient>
    <radialGradient id="shape_53_fill" cx="0.6097922848664689" cy="0.45067264573991034" r="0.06617211022079875">
      <stop offset="0.0" stop-color="rgb(38, 39, 27)" stop-opacity="1.0"/>
      <stop offset="1.0" stop-color="rgb(16, 7, 63)" stop-opacity="0.33101746439933777"/>
    </radialGradient>
    <radialGradient id="shape_54_fill" cx="0.6335311572700296" cy="0.426009002822397" r="0.06617211022079875">
      <stop offset="0.0" stop-color="rgb(67, 49, 20)" stop-opacity="1.0"/>
      <stop offset="1.0" stop-color="rgb(171, 89, 35)" stop-opacity="0.4592195451259613"/>
    </radialGradient>
    <radialGradient id="shape_55_fill" cx="0.3707168533823257" cy="0.5988430827187851" r="0.066001377049115">
      <stop offset="0.43605936" stop-color="rgb(242, 255, 50)" stop-opacity="0.8296132683753967"/>
      <stop offset="0.16089156" stop-color="rgb(231, 255, 15)" stop-opacity="0.7300764322280884"/>
    </radialGradient>
    <radialGradient id="shape_56_fill" cx="0.5489614243323442" cy="0.600896860986547" r="0.06617211022079875">
      <stop offset="0.0" stop-color="rgb(50, 62, 80)" stop-opacity="1.0"/>
      <stop offset="1.0" stop-color="rgb(33, 88, 255)" stop-opacity="0.4342838525772095"/>
    </radialGradient>
    <radialGradient id="shape_57_fill" cx="0.4094955489614243" cy="0.9035874439461884" r="0.06617211022079875">
      <stop offset="0.0" stop-color="rgb(111, 144, 47)" stop-opacity="1.0"/>
      <stop offset="1.0" stop-color="rgb(212, 255, 61)" stop-opacity="0.7569192051887512"/>
    </radialGradient>
    <radialGradient id="shape_58_fill" cx="0.5281899109792285" cy="0.9977578475336323" r="0.06617211022079875">
      <stop offset="0.0" stop-color="rgb(50, 43, 14)" stop-opacity="1.0"/>
      <stop offset="1.0" stop-color="rgb(83, 57, 16)" stop-opacity="1.0"/>
    </radialGradient>
    <radialGradient id="shape_59_fill" cx="0.5845697329376854" cy="0.7690582959641256" r="0.06617211022079875">
      <stop offset="0.0" stop-color="rgb(61, 63, 58)" stop-opacity="1.0"/>
      <stop offset="1.0" stop-color="rgb(79, 70, 91)" stop-opacity="0.7109379172325134"/>
    </radialGradient>
    <radialGradient id="shape_60_fill" cx="0.5489614243323442" cy="0.9977578475336323" r="0.06617211022079875">
      <stop offset="0.0" stop-color="rgb(140, 131, 64)" stop-opacity="1.0"/>
      <stop offset="1.0" stop-color="rgb(231, 198, 92)" stop-opacity="0.8848519325256348"/>
    </radialGradient>
    <radialGradient id="shape_61_fill" cx="0.6469716601272719" cy="0.96866973740103" r="0.06610439651443979">
      <stop offset="0.463088" stop-color="rgb(248, 192, 64)" stop-opacity="0.9645114541053772"/>
      <stop offset="0.21278743" stop-color="rgb(160, 82, 69)" stop-opacity="0.4629383683204651"/>
    </radialGradient>
    <radialGradient id="shape_62_fill" cx="0.615727002967359" cy="0.3991031390134529" r="0.06617211022079875">
      <stop offset="0.0" stop-color="rgb(55, 47, 13)" stop-opacity="1.0"/>
      <stop offset="1.0" stop-color="rgb(80, 52, 5)" stop-opacity="0.9007201194763184"/>
    </radialGradient>
    <radialGradient id="shape_63_fill" cx="0.6261127596439169" cy="0.7286995515695067" r="0.06617211022079875">
      <stop offset="0.0" stop-color="rgb(79, 66, 32)" stop-opacity="1.0"/>
      <stop offset="1.0" stop-color="rgb(196, 189, 96)" stop-opacity="0.5090153813362122"/>
    </radialGradient>
    <radialGradient id="shape_64_fill" cx="0.40801186943620177" cy="0.12556053811659193" r="0.06617211022079875">
      <stop offset="0.0" stop-color="rgb(76, 66, 59)" stop-opacity="1.0"/>
      <stop offset="1.0" stop-color="rgb(144, 110, 111)" stop-opacity="1.0"/>
    </radialGradient>
    <radialGradient id="shape_65_fill" cx="0.6528189910979229" cy="0.6883408071748879" r="0.06617211022079875">
      <stop offset="0.0" stop-color="rgb(121, 97, 39)" stop-opacity="1.0"/>
      <stop offset="1.0" stop-color="rgb(255, 220, 94)" stop-opacity="1.0"/>
    </radialGradient>
    <radialGradient id="shape_66_fill" cx="0.6523230578142387" cy="0.4581206112164553" r="0.07071442420121823">
      <stop offset="0.25786874" stop-color="rgb(181, 213, 115)" stop-opacity="0.2909894287586212"/>
      <stop offset="0.76473236" stop-color="rgb(0, 14, 0)" stop-opacity="0.051355428993701935"/>
    </radialGradient>
    <radialGradient id="shape_67_fill" cx="0.5976065344202058" cy="0.9948943954946748" r="0.07072415337718205">
      <stop offset="0.83582807" stop-color="rgb(51, 28, 0)" stop-opacity="0.644836962223053"/>
      <stop offset="1.0" stop-color="rgb(0, 21, 0)" stop-opacity="0.1520259529352188"/>
    </radialGradient>
    <radialGradient id="shape_68_fill" cx="0.4921571182567925" cy="0.9977321197099215" r="0.06853459072396026">
      <stop offset="0.39469284" stop-color="rgb(43, 15, 0)" stop-opacity="0.4535837173461914"/>
      <stop offset="1.0" stop-color="rgb(29, 64, 52)" stop-opacity="0.18423500657081604"/>
    </radialGradient>
  </defs>
  <g>
    <path d="M 0.022706646472215652 271.3168029785156 C 17.923995971679688 257.3071594238281 45.64064407348633 259.4341735839844 46.603492736816406 271.216064453125 C 48.250816345214844 273.1263122558594 49.332969665527344 276.18035888671875 57.12947463989258 274.6036682128906 C 58.09346008300781 273.7102355957031 62.49813461303711 273.7885437011719 62.59135055541992 269.2131042480469 C 68.3256607055664 267.949951171875 100.31581115722656 269.335693359375 116.70489501953125 269.6900634765625 C 119.5916748046875 271.5586853027344 125.1063232421875 278.18499755859375 126.68490600585938 282.3728332519531 C 134.85792541503906 282.7790832519531 147.1917266845703 280.69659423828125 171.9268341064453 290.1684265136719 C 185.39537048339844 283.1512145996094 185.9090576171875 281.47076416015625 206.7389373779297 287.2707214355469 C 200.52615356445312 286.9917907714844 198.35311889648438 280.9729919433594 210.88966369628906 268.11163330078125 C 249.8214111328125 265.6836242675781 293.66571044921875 263.3882141113281 312.1959533691406 272.5741882324219 C 349.53070068359375 273.9402770996094 426.1498107910156 274.81243896484375 478.8671569824219 264.0209045410156 C 510.7779235839844 258.99127197265625 548.570068359375 259.9117736816406 548.2278442382812 274.0764465332031 C 547.1958618164062 274.0283508300781 547.1941528320312 262.9168395996094 578.561767578125 262.88623046875 C 596.6976928710938 267.3035583496094 612.2168579101562 279.44744873046875 612.5424194335938 280.0839538574219 C 612.53173828125 265.5359802246094 624.4559326171875 265.60528564453125 673.3972778320312 265.7353515625 C 676.7734375 272.2903137207031 679.37158203125 278.8263854980469 678.4677124023438 284.9035339355469 C 676.6203002929688 339.5296325683594 674.7125244140625 391.48748779296875 675.1177368164062 446.4668273925781 C 451.9151306152344 446.6697692871094 228.9889373779297 446.8115539550781 -0.4355570077896118 446.4240417480469 C -0.5156351327896118 389.14111328125 -0.5960075259208679 332.30230712890625 0.022706646472215652 271.3168029785156" stroke-width="0.0" fill="url(#shape_0_fill)"/>
    <path d="M -0.28793981671333313 271.0921325683594 C 35.934059143066406 275.3910827636719 36.5576057434082 274.5832824707031 44.04279708862305 273.3306884765625 C 45.049293518066406 266.158935546875 58.56436538696289 265.85382080078125 80.4672622680664 266.7831726074219 C 113.69560241699219 278.67999267578125 114.07805633544922 279.3109130859375 128.1771240234375 279.1515808105469 C 127.72335815429688 270.1799011230469 136.21592712402344 269.4488220214844 145.04693603515625 269.5915222167969 C 185.2532501220703 268.7538146972656 186.0797882080078 268.8477783203125 205.37515258789062 272.151611328125 C 203.61341857910156 292.1317138671875 204.34750366210938 292.3324890136719 208.74794006347656 298.9459533691406 C 213.78184509277344 298.1073913574219 267.904296875 298.6759033203125 291.82830810546875 301.1950378417969 C 306.9692077636719 306.7407531738281 442.10247802734375 304.04833984375 459.9825134277344 304.5366516113281 C 475.22930908203125 293.06561279296875 492.3482971191406 292.6139221191406 504.6053771972656 286.94525146484375 C 515.5551147460938 289.3215637207031 521.2124633789062 286.8360595703125 523.200439453125 286.6006164550781 C 527.3984375 285.7510681152344 531.7088623046875 286.00555419921875 534.2571411132812 287.2199401855469 C 538.9180908203125 287.4933776855469 540.5159301757812 288.7978210449219 542.846923828125 309.7554626464844 C 579.6045532226562 291.67547607421875 581.628662109375 292.164306640625 601.2222290039062 298.33978271484375 C 619.5206909179688 289.3638000488281 629.108642578125 288.1918029785156 634.0856323242188 288.5013122558594 C 637.1669921875 274.3812255859375 653.8153076171875 276.6018371582031 673.6577758789062 293.58294677734375 C 674.3947143554688 339.90924072265625 674.5103149414062 392.08001708984375 674.1581420898438 446.2807922363281 C 451.4774169921875 446.3905334472656 229.19664001464844 446.25439453125 -0.30765825510025024 446.2476501464844 C -0.21225838363170624 389.403564453125 -0.3071509301662445 333.0137634277344 -0.28793981671333313 271.0921325683594" stroke-width="0.0" fill="url(#shape_1_fill)"/>
    <path d="M -0.019932541996240616 -0.25989267230033875 C 219.69313049316406 0.1040392518043518 439.478759765625 -0.45242562890052795 674.043701171875 -0.06835070997476578 C 665.8821411132812 10.706131935119629 644.8787231445312 34.881900787353516 637.2764892578125 49.60491943359375 C 634.2742309570312 53.10879135131836 612.1055297851562 91.99412536621094 583.767578125 83.77606964111328 C 577.2335205078125 81.25607299804688 564.14208984375 72.05081176757812 532.5523071289062 74.38554382324219 C 531.8446044921875 79.14027404785156 527.56689453125 80.17670440673828 522.11572265625 71.99937438964844 C 522.6908569335938 68.92752838134766 499.31292724609375 63.931129455566406 499.0160217285156 62.59624099731445 C 493.1999206542969 62.262611389160156 486.2872009277344 61.097984313964844 484.30413818359375 68.8659896850586 C 475.2662353515625 72.88220977783203 476.2734680175781 76.07638549804688 476.7237243652344 81.30351257324219 C 483.5950622558594 100.51004028320312 480.10107421875 119.95024108886719 479.7237243652344 122.71420288085938 C 460.330078125 116.84339141845703 459.24005126953125 114.72309112548828 450.9030456542969 108.53716278076172 C 435.39886474609375 107.46163940429688 411.7745666503906 101.5608139038086 409.3110046386719 105.5372085571289 C 413.0889587402344 121.56829071044922 419.3060302734375 128.67416381835938 413.6240539550781 139.39173889160156 C 410.5959167480469 152.69056701660156 394.6219177246094 152.2647705078125 394.62518310546875 135.52003479003906 C 382.58642578125 140.12088012695312 381.0619812011719 158.33810424804688 369.9451904296875 157.74996948242188 C 366.1853332519531 156.80715942382812 363.2165222167969 158.02658081054688 354.55450439453125 158.40025329589844 C 348.364501953125 163.74899291992188 345.773193359375 165.48231506347656 347.7066345214844 171.43264770507812 C 343.73834228515625 177.47036743164062 341.22796630859375 175.8499755859375 350.2728271484375 160.84921264648438 C 293.8897705078125 156.62281799316406 293.2276611328125 163.13804626464844 291.7356262207031 172.46249389648438 C 306.01727294921875 185.31448364257812 304.0914306640625 189.4974365234375 307.4818115234375 201.4307098388672 C 307.5176696777344 200.63807678222656 306.3492126464844 198.1497802734375 304.7290954589844 190.066162109375 C 304.1242370605469 185.74703979492188 302.8393859863281 184.59083557128906 291.28289794921875 171.35263061523438 C 289.84246826171875 194.56466674804688 288.995361328125 195.96401977539062 289.3533630371094 196.29885864257812 C 289.35858154296875 189.90615844726562 291.75164794921875 181.79322814941406 290.48809814453125 167.42745971679688 C 270.77752685546875 170.0729217529297 266.5039978027344 176.68045043945312 261.6320495605469 173.6825408935547 C 256.4668273925781 183.94219970703125 255.95899963378906 189.40699768066406 254.7669219970703 197.06785583496094 C 260.618896484375 199.24465942382812 260.53338623046875 199.92831420898438 257.97930908203125 199.60833740234375 C 257.0687561035156 198.66758728027344 253.9270477294922 196.53587341308594 255.37693786621094 193.84349060058594 C 255.70123291015625 181.8145751953125 262.2485046386719 180.0163116455078 262.6706848144531 162.50721740722656 C 261.8275146484375 158.31820678710938 215.7693328857422 143.4153289794922 212.40716552734375 142.25375366210938 C 187.16786193847656 134.8500213623047 195.37322998046875 106.0030746459961 191.379638671875 86.46257019042969 C 190.85060119628906 84.49747467041016 162.52194213867188 74.30509185791016 128.7935028076172 57.89789581298828 C 101.23502349853516 39.088497161865234 75.7669448852539 58.63180923461914 46.409584045410156 57.61949920654297 C 29.72712516784668 70.4615478515625 1.8092788457870483 69.95281982421875 -0.8872507810592651 69.43081665039062 C 0.34183040261268616 43.958133697509766 -0.3314551115036011 22.56187629699707 -0.019932541996240616 -0.25989267230033875" stroke-width="0.0" fill="url(#shape_2_fill)"/>
    <path d="M 87.2254638671875 58.086692810058594 C 88.9495849609375 68.81656646728516 91.66436004638672 69.00836181640625 93.7852783203125 71.91578674316406 C 90.09516143798828 80.02062225341797 92.89395904541016 81.71342468261719 89.11381530761719 94.07249450683594 C 95.79446411132812 85.82074737548828 98.15979766845703 86.4588394165039 102.85042572021484 87.96185302734375 C 105.08515930175781 75.15837097167969 105.63693237304688 73.26587677001953 108.20987701416016 73.55236053466797 C 112.77157592773438 87.16387939453125 109.77054595947266 92.13886260986328 117.55477905273438 98.69977569580078 C 115.97640991210938 100.03510284423828 116.83137512207031 109.41824340820312 115.46066284179688 115.07781219482422 C 121.30367279052734 115.36251068115234 128.224609375 116.29483795166016 129.78944396972656 112.09193420410156 C 131.05941772460938 111.02654266357422 136.90167236328125 109.5390396118164 136.77313232421875 104.98464965820312 C 136.6880645751953 103.69566345214844 135.5925750732422 101.89159393310547 137.93682861328125 99.6838150024414 C 136.54791259765625 93.28504180908203 137.5940704345703 92.93206787109375 137.7174835205078 89.8485107421875 C 137.35231018066406 85.46728515625 138.5509796142578 84.99984741210938 140.18690490722656 88.89006805419922 C 140.73681640625 83.36930847167969 146.7705535888672 80.32270812988281 148.46299743652344 80.63477325439453 C 148.238037109375 93.28244018554688 149.7367401123047 94.55146026611328 152.48878479003906 99.56185913085938 C 153.95115661621094 102.66263580322266 149.8736572265625 106.85960388183594 148.87612915039062 106.77342224121094 C 152.3425750732422 109.49124908447266 150.06033325195312 113.950439453125 148.22158813476562 113.22301483154297 C 154.18702697753906 112.9186782836914 158.1239013671875 122.59619140625 157.0477294921875 123.3590087890625 C 161.0302734375 124.84151458740234 164.7644805908203 123.4262924194336 169.70474243164062 122.81256103515625 C 174.39730834960938 119.73462677001953 175.7885284423828 121.50956726074219 177.60655212402344 122.479248046875 C 179.31777954101562 122.72196197509766 180.1008758544922 124.97480010986328 183.6799774169922 127.25479125976562 C 183.93527221679688 130.04519653320312 182.68438720703125 132.77053833007812 185.68173217773438 134.63449096679688 C 189.3675994873047 135.24932861328125 189.20736694335938 137.07505798339844 187.950439453125 144.31564331054688 C 197.4290008544922 148.4185791015625 208.83184814453125 153.6317901611328 201.5424346923828 172.57347106933594 C 205.66920471191406 177.03256225585938 206.29550170898438 179.464599609375 205.24563598632812 181.65415954589844 C 214.0338592529297 181.02894592285156 215.22122192382812 192.99288940429688 212.47207641601562 201.3097686767578 C 204.51634216308594 205.93130493164062 202.93118286132812 206.21241760253906 203.47222900390625 210.16250610351562 C 200.41629028320312 210.40975952148438 200.3833465576172 211.82391357421875 198.89535522460938 212.98414611816406 C 196.3867645263672 215.43057250976562 192.92335510253906 215.25567626953125 192.18942260742188 219.6395263671875 C 184.29234313964844 220.62570190429688 183.64630126953125 224.7653350830078 178.2236785888672 230.11415100097656 C 176.41357421875 233.4423370361328 181.518798828125 238.01377868652344 181.17881774902344 238.58050537109375 C 181.91175842285156 251.8041229248047 185.57286071777344 260.7972106933594 179.79360961914062 264.21539306640625 C 169.39599609375 269.766357421875 148.664794921875 267.93426513671875 136.23287963867188 269.6180725097656 C 131.41268920898438 268.82696533203125 128.98130798339844 272.2774353027344 122.79010772705078 275.5140686035156 C 109.1663589477539 276.66009521484375 73.3419189453125 275.9013671875 72.98322296142578 270.12432861328125 C 47.7484130859375 266.79888916015625 56.591156005859375 268.5885009765625 58.14669418334961 273.4104309082031 C 48.669925689697266 276.5631408691406 1.0618795156478882 272.6444396972656 0.7650406956672668 269.9151306152344 C -6.40592622756958 225.77574157714844 -4.746406078338623 167.97891235351562 1.977966070175171 122.25782012939453 C 10.530041694641113 117.8213882446289 21.269813537597656 113.9905014038086 26.26540184020996 121.89838409423828 C 27.650949478149414 129.93829345703125 35.84116744995117 129.1229705810547 42.111873626708984 131.94515991210938 C 46.150550842285156 130.3394775390625 47.46574783325195 131.34706115722656 49.58258056640625 142.3058624267578 C 50.55302047729492 149.56924438476562 61.079193115234375 148.46400451660156 62.728431701660156 146.24606323242188 C 62.158451080322266 136.9685516357422 63.16938018798828 134.1114501953125 62.06632614135742 128.3040313720703 C 68.17369842529297 126.61693572998047 67.6943359375 124.29922485351562 66.22968292236328 112.67367553710938 C 68.49105834960938 111.13471984863281 68.0113525390625 104.25653839111328 75.1270980834961 101.17219543457031 C 75.04310607910156 100.5179672241211 77.72515106201172 90.0673828125 77.3335952758789 85.91157531738281 C 77.27880096435547 83.11260223388672 77.51932525634766 75.25440979003906 85.24323272705078 75.30732727050781 C 83.14418029785156 70.25853729248047 82.69452667236328 67.54705047607422 87.2254638671875 58.086692810058594" stroke-width="0.0" fill="url(#shape_3_fill)"/>
    <path d="M 673.9680786132812 -0.5589829683303833 C 676.1161499023438 47.8263053894043 675.0172119140625 95.90823364257812 682.0278930664062 136.7964630126953 C 678.9385375976562 119.68501281738281 672.8653564453125 120.09125518798828 662.1494140625 120.15040588378906 C 660.2085571289062 119.48934936523438 654.6770629882812 109.56475067138672 650.1531982421875 110.9443130493164 C 648.9296264648438 112.54692077636719 644.952880859375 150.02981567382812 642.9271240234375 155.68336486816406 C 629.9510498046875 154.8020782470703 627.1029052734375 142.68836975097656 627.0069580078125 138.4887237548828 C 623.0387573242188 137.46795654296875 619.2149047851562 145.425537109375 615.421875 144.39404296875 C 611.6814575195312 142.3101043701172 610.1643676757812 143.31698608398438 607.8056030273438 141.01536560058594 C 608.8834838867188 137.01905822753906 613.4092407226562 132.7074737548828 605.1951293945312 115.6396713256836 C 599.403076171875 135.6493682861328 597.7842407226562 139.6167755126953 593.39501953125 142.53919982910156 C 599.0053100585938 145.95242309570312 598.3348999023438 151.50331115722656 597.3363037109375 152.65310668945312 C 587.7550048828125 157.42276000976562 588.6346435546875 164.78990173339844 578.1119384765625 172.5333251953125 C 572.3431396484375 170.16476440429688 569.72021484375 157.7520294189453 568.52685546875 157.08071899414062 C 565.2608642578125 158.28297424316406 563.4769287109375 154.29261779785156 561.9277954101562 148.61915588378906 C 560.0803833007812 151.13829040527344 556.7539672851562 151.19471740722656 555.4067993164062 155.5502166748047 C 552.4141235351562 156.03614807128906 550.6655883789062 157.9387969970703 548.6451416015625 158.44833374023438 C 548.16259765625 154.85064697265625 544.8786010742188 155.13723754882812 536.025390625 152.87130737304688 C 531.757568359375 154.9013671875 529.9635620117188 159.43341064453125 523.1393432617188 156.94015502929688 C 519.2531127929688 160.52304077148438 520.3261108398438 162.1524658203125 522.8663940429688 168.93539428710938 C 517.6307373046875 168.51478576660156 517.2898559570312 171.06044006347656 516.2489013671875 171.6204833984375 C 511.2713623046875 173.32232666015625 509.8157043457031 175.26531982421875 505.6455078125 174.399169921875 C 502.73974609375 171.4144287109375 503.0577697753906 169.50582885742188 502.9881896972656 159.29359436035156 C 490.1542663574219 144.10922241210938 504.87115478515625 119.46163940429688 516.3260498046875 125.87974548339844 C 523.947021484375 125.3541259765625 542.07568359375 109.20265197753906 548.7933959960938 112.9057388305664 C 557.2013549804688 110.73133087158203 556.9968872070312 109.398681640625 558.428466796875 109.09772491455078 C 559.5413208007812 107.33073425292969 564.7490844726562 103.42805480957031 570.155029296875 105.1196060180664 C 574.6513061523438 102.42176055908203 573.5546264648438 97.6733169555664 578.9884033203125 93.88180541992188 C 588.351806640625 88.14897918701172 591.50244140625 77.80345153808594 612.539794921875 78.52367401123047 C 616.91015625 73.6080551147461 644.3959350585938 51.22290802001953 645.9353637695312 35.36507797241211 C 644.8949584960938 32.4006462097168 647.9700927734375 30.37639617919922 647.48046875 29.467884063720703 C 646.8902587890625 28.282848358154297 664.16259765625 -4.252671241760254 673.9680786132812 -0.5589829683303833" stroke-width="0.0" fill="url(#shape_4_fill)"/>
    <path d="M 151.49191284179688 68.6185302734375 C 152.3061065673828 69.08057403564453 186.1758575439453 84.86821746826172 192.56495666503906 91.66973876953125 C 179.81053161621094 118.3441390991211 217.76878356933594 149.9929962158203 221.19863891601562 154.59239196777344 C 240.05252075195312 167.85781860351562 241.9654541015625 184.50439453125 240.7824249267578 193.8683319091797 C 238.0020751953125 193.20880126953125 236.1004638671875 186.7698974609375 236.77235412597656 184.06607055664062 C 235.68826293945312 183.52789306640625 234.15438842773438 184.3126678466797 231.05430603027344 182.67088317871094 C 231.90953063964844 184.3371124267578 232.116943359375 193.2435302734375 228.65614318847656 195.66871643066406 C 227.6399383544922 196.6384735107422 227.67124938964844 205.27903747558594 221.0516815185547 207.64682006835938 C 215.08340454101562 206.57752990722656 214.28521728515625 197.8580322265625 214.58242797851562 194.99395751953125 C 212.95574951171875 185.44631958007812 211.8936004638672 184.95594787597656 206.59591674804688 177.39617919921875 C 205.82040405273438 172.69871520996094 206.15664672851562 167.95347595214844 204.2130584716797 159.43263244628906 C 205.75148010253906 153.79473876953125 194.87168884277344 144.63014221191406 193.54083251953125 141.09579467773438 C 189.2061309814453 139.9659423828125 189.05380249023438 136.33558654785156 186.6436004638672 135.7671661376953 C 177.68505859375 134.07394409179688 178.52456665039062 127.56959533691406 183.4160919189453 117.1792984008789 C 179.390869140625 116.41234588623047 177.40032958984375 117.66828918457031 172.9547882080078 117.74846649169922 C 178.87246704101562 127.97455596923828 177.16845703125 131.22821044921875 152.25387573242188 130.29031372070312 C 148.95632934570312 129.03067016601562 152.2344970703125 102.60968780517578 154.35963439941406 92.73908233642578 C 152.58753967285156 91.40801239013672 153.23451232910156 87.99838256835938 150.3240509033203 76.2380599975586 C 147.959716796875 75.89165496826172 148.02444458007812 69.19770050048828 151.49191284179688 68.6185302734375" stroke-width="0.0" fill="url(#shape_5_fill)"/>
    <path d="M 614.8287963867188 79.04156494140625 C 619.289794921875 83.87950897216797 619.811279296875 86.9521484375 632.123046875 85.66236114501953 C 636.0014038085938 86.29845428466797 636.974365234375 88.68244171142578 641.1559448242188 89.2569580078125 C 642.1832885742188 86.72340393066406 665.404296875 92.48248291015625 675.0082397460938 98.24281311035156 C 675.4066162109375 110.61923217773438 674.7958984375 125.90557098388672 674.7080688476562 151.77554321289062 C 665.70849609375 142.7454071044922 662.576904296875 136.80471801757812 660.3341674804688 131.9708251953125 C 660.3189697265625 123.41083526611328 660.7780151367188 117.57220458984375 653.6652221679688 112.32218170166016 C 643.0459594726562 113.78536987304688 643.8722534179688 142.2374725341797 642.8975830078125 142.87908935546875 C 644.2906494140625 144.43943786621094 642.4404907226562 148.17478942871094 644.55224609375 150.00672912597656 C 640.1244506835938 151.06788635253906 637.9335327148438 152.77835083007812 634.2510986328125 153.18072509765625 C 631.697021484375 146.19923400878906 629.1741333007812 141.396728515625 630.0398559570312 140.55181884765625 C 628.6732788085938 137.4481964111328 621.9300537109375 136.18016052246094 621.3025512695312 139.23043823242188 C 618.6034545898438 140.67303466796875 619.346923828125 142.4713134765625 618.3677368164062 149.33172607421875 C 613.5050048828125 144.75685119628906 613.1038818359375 143.22833251953125 609.388671875 143.68148803710938 C 608.4636840820312 140.4076385498047 609.5223999023438 139.24119567871094 608.810791015625 137.36819458007812 C 606.3809204101562 132.5962371826172 604.6021118164062 127.26774597167969 600.5358276367188 127.79519653320312 C 606.0298461914062 133.77577209472656 595.2886962890625 148.15032958984375 592.40673828125 153.1012725830078 C 590.4434814453125 163.7449951171875 588.8392944335938 163.89878845214844 585.9161376953125 169.11834716796875 C 584.5387573242188 167.55667114257812 584.0589599609375 166.9067840576172 589.3036499023438 153.8503875732422 C 593.167724609375 141.37847900390625 589.6121215820312 139.88092041015625 574.9003295898438 131.6297149658203 C 573.6010131835938 157.65963745117188 557.2661743164062 157.10971069335938 555.9667358398438 151.185546875 C 555.7996215820312 152.8714599609375 553.064697265625 154.69654846191406 552.9618530273438 157.84957885742188 C 551.9533081054688 161.6979217529297 548.11376953125 160.79541015625 547.3541870117188 159.3248748779297 C 544.4673461914062 156.31455993652344 542.6767578125 153.7362823486328 538.2474365234375 156.01829528808594 C 535.7442626953125 158.4571075439453 530.9373779296875 157.87232971191406 529.1302490234375 158.20852661132812 C 526.5601806640625 159.5286865234375 526.80419921875 163.3725128173828 525.670166015625 166.82350158691406 C 524.68603515625 169.56253051757812 523.6282958984375 171.60496520996094 519.0365600585938 173.0750274658203 C 512.6839599609375 176.0515594482422 501.2017822265625 175.45266723632812 482.2709655761719 158.90773010253906 C 478.7215881347656 136.2701416015625 500.2855224609375 119.58119201660156 514.2802124023438 118.36177062988281 C 528.403076171875 127.60687255859375 541.561279296875 107.96136474609375 548.259765625 111.7385482788086 C 556.3847045898438 110.98533630371094 563.0126342773438 111.51313781738281 564.2540893554688 107.04122924804688 C 564.6287841796875 104.43946838378906 566.4737548828125 103.43688201904297 569.8572387695312 104.72223663330078 C 572.8309936523438 101.11076354980469 578.9776611328125 99.47431182861328 587.0795288085938 98.63025665283203 C 600.8085327148438 93.45349884033203 603.0621337890625 79.93683624267578 614.8287963867188 79.04156494140625" stroke-width="0.0" fill="url(#shape_6_fill)"/>
    <path d="M 0.4666154682636261 93.37786865234375 C 41.86311340332031 107.68272399902344 44.05363845825195 118.67863464355469 50.64963912963867 138.82774353027344 C 81.70851135253906 153.24298095703125 54.017791748046875 213.0999755859375 37.083763122558594 250.06289672851562 C 51.31214904785156 259.6873779296875 48.71641540527344 264.6392822265625 48.9913215637207 264.8167419433594 C 50.877384185791016 254.7204132080078 34.32048797607422 248.37350463867188 19.9150333404541 241.82679748535156 C 6.494697093963623 197.0473175048828 -11.118882179260254 176.20645141601562 0.4666154682636261 93.37786865234375" stroke-width="0.0" fill="url(#shape_7_fill)"/>
    <path d="M 384.61279296875 197.15130615234375 C 424.8836975097656 188.572998046875 427.0664367675781 189.1497344970703 429.75146484375 204.35366821289062 C 476.987548828125 188.20762634277344 498.57794189453125 202.53353881835938 491.2437744140625 229.61419677734375 C 490.96759033203125 250.49815368652344 486.2911682128906 251.51718139648438 484.9221496582031 252.47315979003906 C 486.316650390625 259.1843566894531 482.572509765625 268.8451232910156 476.6707458496094 268.7157897949219 C 469.04290771484375 272.9302978515625 453.2210388183594 266.7112731933594 451.6572570800781 269.71575927734375 C 447.1912841796875 266.286865234375 448.4129638671875 261.23736572265625 449.19287109375 260.15667724609375 C 439.2706604003906 264.84088134765625 436.5234069824219 261.4869689941406 437.515869140625 256.77471923828125 C 427.0391845703125 257.0588073730469 425.71185302734375 259.9719543457031 420.9736633300781 262.04351806640625 C 418.51971435546875 264.2038269042969 417.7691955566406 267.7684326171875 414.9750061035156 273.66949462890625 C 414.1121520996094 271.5655212402344 392.2363586425781 269.7532043457031 392.52093505859375 264.2523498535156 C 391.8138427734375 265.1714782714844 388.8357238769531 263.450439453125 385.3965759277344 264.2362060546875 C 382.0950012207031 262.01123046875 380.80548095703125 263.24005126953125 376.4070739746094 261.2182922363281 C 375.09136962890625 256.4334411621094 375.72979736328125 252.82501220703125 370.6339111328125 251.1230926513672 C 360.36114501953125 243.0302734375 374.11920166015625 194.76229858398438 378.47052001953125 177.06643676757812 C 385.02484130859375 171.55348205566406 394.2974548339844 176.83432006835938 384.61279296875 197.15130615234375" stroke-width="0.0" fill="url(#shape_8_fill)"/>
    <path d="M 566.497314453125 157.1280517578125 C 567.9520874023438 158.97830200195312 568.124755859375 166.62057495117188 569.3408203125 168.01576232910156 C 573.4932861328125 169.4944305419922 573.6192626953125 171.0569610595703 577.5304565429688 174.40060424804688 C 581.9307250976562 172.94601440429688 583.9710693359375 174.56983947753906 583.7080688476562 179.472412109375 C 575.3946533203125 180.47549438476562 572.2796630859375 225.61241149902344 577.52685546875 226.95896911621094 C 577.877685546875 230.0008087158203 581.4741821289062 236.0535125732422 576.67138671875 242.42422485351562 C 568.9226684570312 238.58583068847656 566.9544677734375 237.1162109375 558.9005737304688 247.3418426513672 C 553.095458984375 249.3033905029297 499.14996337890625 255.18727111816406 485.6301574707031 251.0438690185547 C 486.6633605957031 250.41714477539062 488.3812561035156 241.3538360595703 497.8595886230469 231.56658935546875 C 486.192626953125 226.810546875 483.1075744628906 222.46182250976562 482.6061706542969 215.2476043701172 C 477.2353515625 210.1036834716797 479.7865295410156 205.939697265625 482.8463439941406 206.18020629882812 C 480.6810607910156 205.2149200439453 481.44891357421875 199.2855987548828 492.15081787109375 199.53036499023438 C 492.4141845703125 196.4245147705078 491.718017578125 192.5060577392578 491.9901123046875 188.50457763671875 C 487.5840148925781 174.3693389892578 487.8941955566406 173.38983154296875 488.0859375 164.2873077392578 C 503.9290466308594 164.39389038085938 505.2972412109375 164.62322998046875 512.81884765625 161.02256774902344 C 522.2960815429688 169.4413299560547 524.3462524414062 167.48837280273438 526.2744750976562 167.35397338867188 C 523.67138671875 162.08505249023438 531.1613159179688 157.33128356933594 533.21435546875 158.908203125 C 537.4981079101562 161.96731567382812 541.2909545898438 162.5594482421875 542.026123046875 164.1342315673828 C 545.1141967773438 164.1462860107422 545.6585083007812 166.00546264648438 549.978759765625 166.92140197753906 C 549.0029296875 165.5912628173828 550.234619140625 157.91725158691406 554.8993530273438 158.1259002685547 C 557.888671875 161.07745361328125 563.0940551757812 157.99224853515625 566.497314453125 157.1280517578125" stroke-width="0.0" fill="url(#shape_9_fill)"/>
    <path d="M 561.1705322265625 156.6505889892578 C 565.4605102539062 152.92483520507812 571.39306640625 157.0490264892578 571.1749877929688 173.45091247558594 C 572.5069580078125 169.15045166015625 576.5299072265625 169.1016082763672 579.6454467773438 174.0865478515625 C 580.551513671875 178.1180419921875 578.916015625 187.3743438720703 579.839599609375 191.01014709472656 C 571.3719482421875 196.23757934570312 572.059814453125 229.9683837890625 578.11767578125 230.974853515625 C 576.08056640625 231.16262817382812 575.6259155273438 236.8646240234375 572.1117553710938 237.97683715820312 C 560.574462890625 235.80264282226562 567.1272583007812 238.70298767089844 563.3726806640625 247.5600128173828 C 548.767578125 253.20245361328125 501.2929382324219 249.2246551513672 500.2036437988281 251.86741638183594 C 491.21832275390625 251.83303833007812 488.05419921875 237.52798461914062 499.01983642578125 231.94273376464844 C 486.63641357421875 224.87628173828125 481.9794921875 219.28634643554688 481.88037109375 214.7733917236328 C 475.8083190917969 215.38563537597656 472.4473571777344 215.11412048339844 464.59393310546875 196.82675170898438 C 464.7413024902344 177.11216735839844 480.19195556640625 175.2835235595703 482.5395202636719 195.2733154296875 C 489.766357421875 197.98460388183594 494.7546691894531 184.74835205078125 496.6139221191406 182.95962524414062 C 495.2959289550781 178.86599731445312 497.5860900878906 177.68690490722656 500.1581726074219 177.49998474121094 C 507.93701171875 179.1606903076172 516.5713500976562 181.7502899169922 520.9938354492188 174.15390014648438 C 525.166259765625 173.4858856201172 528.3850708007812 159.64227294921875 529.84130859375 154.48460388183594 C 538.2623291015625 155.756103515625 539.8588256835938 156.93661499023438 537.1276245117188 165.8374481201172 C 545.7543334960938 166.03411865234375 549.0638427734375 167.51751708984375 551.5911254882812 166.66946411132812 C 550.9594116210938 155.3144073486328 552.796630859375 152.9951934814453 561.1705322265625 156.6505889892578" stroke-width="0.0" fill="url(#shape_10_fill)"/>
    <path d="M 443.56689453125 108.86807250976562 C 452.1761169433594 114.09671783447266 453.9383239746094 115.49219512939453 463.00738525390625 107.85720825195312 C 466.80181884765625 114.19108581542969 469.3514099121094 113.32648468017578 488.4477844238281 107.6617202758789 C 489.3890075683594 124.43174743652344 488.7314453125 125.26358032226562 492.6103210449219 130.51220703125 C 493.2900085449219 132.23240661621094 493.41656494140625 135.67555236816406 496.75177001953125 136.1912841796875 C 493.7751770019531 135.7793426513672 493.0533142089844 138.7067108154297 490.181640625 141.8182830810547 C 483.7996826171875 138.91993713378906 482.4624328613281 141.30250549316406 480.9488220214844 142.73562622070312 C 468.8133544921875 136.59744262695312 466.99505615234375 135.20553588867188 465.51763916015625 134.56988525390625 C 464.2196960449219 133.48255920410156 460.9749755859375 134.1562957763672 460.3652648925781 133.68881225585938 C 461.8469543457031 131.90737915039062 480.6910400390625 141.5133056640625 499.4813537597656 154.87823486328125 C 476.8621520996094 176.95022583007812 475.8840026855469 177.56887817382812 480.3208312988281 184.6290740966797 C 467.8470458984375 183.54690551757812 467.3689880371094 188.63552856445312 463.798828125 190.07339477539062 C 463.1651306152344 184.6084442138672 460.72369384765625 172.75869750976562 461.0531921386719 159.87889099121094 C 448.942626953125 182.7827911376953 447.3563232421875 182.92120361328125 439.8134460449219 183.08865356445312 C 439.1584167480469 183.8243865966797 435.7781677246094 195.74281311035156 434.99853515625 197.40199279785156 C 428.1616516113281 200.40496826171875 417.53594970703125 180.58226013183594 417.681640625 179.80870056152344 C 416.93194580078125 180.0202178955078 398.97509765625 180.82748413085938 397.97259521484375 174.5118408203125 C 394.0842590332031 172.28216552734375 389.76751708984375 176.80943298339844 379.4471740722656 174.71592712402344 C 382.5467834472656 157.7388916015625 379.7743835449219 152.0783233642578 392.35516357421875 138.84454345703125 C 398.4913024902344 138.5616455078125 399.8821716308594 130.28814697265625 402.9926452636719 119.96282958984375 C 406.5404968261719 98.87357330322266 424.3218994140625 101.40135955810547 443.56689453125 108.86807250976562" stroke-width="0.0" fill="url(#shape_11_fill)"/>
    <path d="M 602.8361206054688 127.71109008789062 C 605.7670288085938 130.13685607910156 605.28662109375 143.36407470703125 606.8900756835938 145.44564819335938 C 610.8251953125 146.05320739746094 610.962646484375 151.04502868652344 618.8819580078125 153.94273376464844 C 618.1060791015625 149.864990234375 617.6464233398438 141.914794921875 622.894775390625 141.0709991455078 C 624.12158203125 137.3928680419922 625.37353515625 137.31358337402344 627.1948852539062 140.3302001953125 C 627.1217041015625 142.2159423828125 628.8735961914062 144.8355255126953 629.0565185546875 147.2335968017578 C 632.0811157226562 149.7865447998047 631.688720703125 151.24526977539062 635.84765625 153.77638244628906 C 642.2426147460938 154.22010803222656 642.04638671875 160.11778259277344 649.5842895507812 174.3042449951172 C 639.54248046875 185.96910095214844 640.3423461914062 195.1100311279297 640.8384399414062 206.16502380371094 C 660.1834716796875 207.7646942138672 661.3978881835938 243.62905883789062 642.4572143554688 245.2866668701172 C 622.2183227539062 247.98570251464844 611.2647705078125 248.8932647705078 579.2708129882812 265.30328369140625 C 574.04833984375 253.25164794921875 580.6609497070312 229.76629638671875 572.4664916992188 215.7512664794922 C 568.080810546875 208.8968505859375 571.5836791992188 168.89190673828125 583.7877197265625 169.72415161132812 C 596.7801513671875 163.25059509277344 599.8997192382812 143.09991455078125 600.288818359375 141.94317626953125 C 595.53076171875 140.17808532714844 596.5296630859375 137.46881103515625 602.8361206054688 127.71109008789062" stroke-width="0.0" fill="url(#shape_12_fill)"/>
    <path d="M 412.1498718261719 176.5994110107422 C 418.9664611816406 174.48355102539062 434.7931823730469 213.53863525390625 428.6747131347656 219.8843231201172 C 419.6706848144531 228.55662536621094 427.53399658203125 236.93569946289062 431.3706359863281 241.3792266845703 C 430.3004455566406 260.9778747558594 417.83294677734375 272.1961669921875 411.7934265136719 267.7911071777344 C 407.0150146484375 264.87103271484375 401.6224365234375 271.87335205078125 391.3762512207031 268.4396057128906 C 385.6698303222656 264.8613586425781 382.60955810546875 266.0347900390625 378.78338623046875 265.7204895019531 C 373.8139953613281 265.9461975097656 373.09912109375 262.06005859375 374.5714111328125 258.42388916015625 C 376.1655578613281 256.2500305175781 374.6932678222656 254.74996948242188 374.9361267089844 253.8685302734375 C 371.03167724609375 255.7035369873047 368.9714050292969 251.74688720703125 368.1166076660156 252.1629180908203 C 360.6457824707031 248.03224182128906 366.6470642089844 229.4127197265625 367.1033935546875 222.20620727539062 C 369.686767578125 218.87356567382812 371.6729736328125 202.5315399169922 383.0518798828125 202.81512451171875 C 378.65838623046875 193.64056396484375 379.76043701171875 191.732177734375 389.8862609863281 191.6149139404297 C 390.8399963378906 177.4398193359375 392.7117919921875 176.75563049316406 412.1498718261719 176.5994110107422" stroke-width="0.0" fill="url(#shape_13_fill)"/>
    <path d="M 507.55963134765625 66.95559692382812 C 509.0464782714844 67.77700805664062 512.9373779296875 74.40117645263672 515.1002197265625 86.9140853881836 C 531.4715576171875 79.54341125488281 535.7764892578125 79.81858825683594 537.6168212890625 85.93309020996094 C 539.2473754882812 90.84037017822266 544.5389404296875 90.27604675292969 545.0235595703125 91.1763687133789 C 545.53662109375 92.74079132080078 556.168212890625 96.84782409667969 559.3406372070312 95.53797149658203 C 563.3794555664062 97.60150146484375 567.3839111328125 97.3361587524414 568.47216796875 98.18824005126953 C 563.7391967773438 106.50230407714844 559.0076904296875 116.46394348144531 537.809326171875 109.21920776367188 C 540.7542114257812 112.00662994384766 539.8235473632812 115.21927642822266 534.6544189453125 118.42195129394531 C 527.3209228515625 120.20680236816406 519.6083374023438 124.56088256835938 515.6246337890625 118.56588745117188 C 512.51123046875 121.81563568115234 501.7877197265625 125.90281677246094 500.54327392578125 127.12535095214844 C 498.14013671875 129.6642608642578 494.2140197753906 129.28939819335938 490.0278625488281 126.4857177734375 C 489.16973876953125 117.11383819580078 468.86004638671875 118.2651596069336 468.15972900390625 117.3987808227539 C 463.5252685546875 117.83583068847656 462.9175109863281 116.65287017822266 461.9539794921875 116.32275390625 C 471.4989013671875 120.7803955078125 474.589111328125 115.74071502685547 477.4263916015625 112.56953430175781 C 470.938720703125 99.29441833496094 472.2583923339844 87.6657943725586 474.4525451660156 81.76380157470703 C 474.58709716796875 70.93277740478516 475.3397216796875 70.38516235351562 477.25750732421875 66.04013061523438 C 478.34503173828125 63.63166427612305 482.3761291503906 63.6794319152832 483.98419189453125 63.424068450927734 C 495.0767517089844 63.13108825683594 504.012939453125 61.57890701293945 507.55963134765625 66.95559692382812" stroke-width="0.0" fill="url(#shape_14_fill)"/>
    <path d="M 535.05322265625 161.79656982421875 C 544.0194091796875 162.3662567138672 544.329345703125 163.15576171875 546.5513916015625 165.06478881835938 C 549.8455200195312 167.49917602539062 549.66357421875 170.16693115234375 543.0814819335938 182.76239013671875 C 544.3800048828125 191.53494262695312 535.9002685546875 230.40505981445312 537.1210327148438 232.4324493408203 C 541.2989501953125 238.94410705566406 540.950927734375 252.8093719482422 518.709716796875 252.25892639160156 C 502.3515319824219 252.86703491210938 482.0605163574219 242.58497619628906 488.025390625 230.46142578125 C 476.4084167480469 219.94139099121094 478.9955139160156 207.826904296875 483.1065979003906 201.76820373535156 C 486.459716796875 197.5177459716797 487.9843444824219 197.4804229736328 488.78680419921875 199.30599975585938 C 482.8446044921875 195.4398956298828 488.6695251464844 184.43572998046875 487.43170166015625 173.8231201171875 C 487.6208190917969 167.2738037109375 489.5490417480469 166.4477081298828 491.12762451171875 166.90533447265625 C 505.4796142578125 178.93106079101562 511.3109436035156 184.16664123535156 522.7572021484375 172.77197265625 C 525.5640258789062 170.96791076660156 525.3915405273438 167.2158966064453 526.1600341796875 165.0875701904297 C 525.4931030273438 160.1371612548828 528.1654052734375 158.10377502441406 535.05322265625 161.79656982421875" stroke-width="0.0" fill="url(#shape_15_fill)"/>
    <path d="M 651.6183471679688 109.45265197753906 C 653.8424072265625 110.57107543945312 664.095947265625 121.53522491455078 659.8270874023438 132.62010192871094 C 664.0174560546875 136.199462890625 664.5070190429688 143.78684997558594 673.208740234375 147.87010192871094 C 677.264404296875 178.98196411132812 673.8245239257812 210.92124938964844 676.20166015625 267.0822448730469 C 675.0903930664062 265.4484558105469 635.7156372070312 272.96844482421875 630.8810424804688 264.0641174316406 C 636.392333984375 244.95484924316406 643.3943481445312 123.99693298339844 651.6183471679688 109.45265197753906" stroke-width="0.0" fill="url(#shape_16_fill)"/>
    <path d="M 601.4584350585938 128.78785705566406 C 603.9654541015625 128.3247528076172 605.6448364257812 131.6870574951172 606.3191528320312 134.0037841796875 C 608.830078125 135.17971801757812 607.091796875 141.6126251220703 609.1395874023438 143.7533721923828 C 628.7529296875 143.27731323242188 632.1446533203125 216.45989990234375 632.9799194335938 271.5055847167969 C 579.2117919921875 276.3559875488281 574.270751953125 268.220703125 579.85009765625 242.27394104003906 C 559.509033203125 226.04782104492188 598.5728149414062 156.13467407226562 601.4584350585938 128.78785705566406" stroke-width="0.0" fill="url(#shape_17_fill)"/>
    <path d="M 320.3336181640625 186.1505584716797 C 321.4707946777344 186.42620849609375 321.6206359863281 189.24403381347656 321.36810302734375 199.95941162109375 C 331.55865478515625 193.62928771972656 332.40789794921875 193.30169677734375 336.94073486328125 196.20294189453125 C 345.2354431152344 198.8498077392578 346.6427917480469 197.41607666015625 356.2813720703125 191.09521484375 C 358.71966552734375 192.34756469726562 359.65789794921875 194.3948516845703 356.2747497558594 201.84336853027344 C 359.4220275878906 204.04930114746094 361.6059265136719 204.16744995117188 364.80255126953125 210.3514862060547 C 367.31036376953125 207.1914520263672 368.57861328125 207.90928649902344 368.2227783203125 211.68568420410156 C 370.1255187988281 220.0986328125 370.2951965332031 223.07130432128906 366.0677185058594 225.5655517578125 C 365.8236389160156 231.36436462402344 363.5926208496094 237.23092651367188 367.82208251953125 248.67604064941406 C 370.5947570800781 254.00094604492188 367.7875061035156 255.6288299560547 358.04766845703125 254.6199188232422 C 354.4388122558594 255.8079376220703 324.2010498046875 254.9622802734375 322.6527404785156 255.3970947265625 C 313.2673645019531 256.07476806640625 311.9673156738281 253.85496520996094 308.72796630859375 245.04879760742188 C 303.8669738769531 229.1873321533203 320.9477844238281 195.47947692871094 320.3336181640625 186.1505584716797" stroke-width="0.0" fill="url(#shape_18_fill)"/>
    <path d="M 482.4942626953125 231.35888671875 C 505.6397399902344 252.10281372070312 515.3118286132812 264.03369140625 495.160400390625 280.5201416015625 C 470.1813659667969 280.13763427734375 443.95208740234375 261.7447509765625 442.0939025878906 261.990966796875 C 438.7718505859375 260.5156555175781 437.1213684082031 258.33233642578125 432.66156005859375 258.123779296875 C 429.7072448730469 258.5372619628906 428.4111328125 256.7381286621094 429.872314453125 253.82687377929688 C 433.051513671875 237.1960906982422 423.6649169921875 233.7215576171875 422.9653625488281 229.72178649902344 C 423.0345458984375 227.17515563964844 421.08551025390625 226.6454315185547 420.2511901855469 225.10671997070312 C 427.4364929199219 219.74745178222656 429.4414978027344 218.7761688232422 428.6964111328125 213.99176025390625 C 444.1260986328125 197.53468322753906 481.15826416015625 196.12937927246094 482.4942626953125 231.35888671875" stroke-width="0.0" fill="url(#shape_19_fill)"/>
    <path d="M 673.928466796875 -2.9744138717651367 C 675.0673828125 32.84956741333008 674.5833740234375 64.76375579833984 674.61376953125 97.27349853515625 C 669.35693359375 96.03890228271484 651.773193359375 87.55284118652344 645.6773681640625 90.0903549194336 C 638.5843505859375 89.48575592041016 638.10302734375 86.05242919921875 637.3536987304688 84.08477783203125 C 626.1072998046875 84.24700927734375 620.7063598632812 93.41651916503906 608.0420532226562 86.5143051147461 C 609.8672485351562 74.75167846679688 612.1799926757812 73.62283325195312 614.4407958984375 71.58843994140625 C 622.5001220703125 68.82240295410156 648.7431640625 25.100709915161133 647.5209350585938 20.633522033691406 C 655.4370727539062 9.100481986999512 656.552978515625 2.3466358184814453 668.9278564453125 3.393073797225952 C 669.8276977539062 2.692678451538086 670.0906372070312 1.0556758642196655 673.928466796875 -2.9744138717651367" stroke-width="0.0" fill="url(#shape_20_fill)"/>
    <path d="M 561.6829833984375 156.1658172607422 C 569.9019775390625 156.44659423828125 570.1096801757812 161.08837890625 572.1641235351562 165.87030029296875 C 581.91357421875 168.35009765625 572.0949096679688 230.58663940429688 578.3048095703125 240.55503845214844 C 579.05517578125 244.88209533691406 578.1982421875 246.98240661621094 577.7704467773438 270.5884704589844 C 537.250244140625 269.32366943359375 533.9078369140625 266.3374938964844 538.781005859375 248.20761108398438 C 545.6261596679688 244.77676391601562 547.7088623046875 167.494140625 555.3038330078125 156.94473266601562 C 555.5204467773438 152.7738800048828 559.6990966796875 151.73606872558594 561.6829833984375 156.1658172607422" stroke-width="0.0" fill="url(#shape_21_fill)"/>
    <path d="M 214.9589080810547 210.2917938232422 C 234.90628051757812 208.55322265625 237.96771240234375 241.80970764160156 224.9498291015625 257.5221862792969 C 211.4677276611328 263.0003356933594 209.1260986328125 263.6357116699219 208.8717498779297 273.07281494140625 C 205.81854248046875 275.302490234375 206.75267028808594 277.07122802734375 205.64993286132812 279.5264587402344 C 206.64544677734375 282.8206481933594 203.00230407714844 285.7446594238281 201.77215576171875 284.9203186035156 C 202.0992431640625 283.0496520996094 190.3538818359375 272.4620666503906 188.1620330810547 263.4515075683594 C 186.64920043945312 261.6228942871094 183.86264038085938 263.0756530761719 181.44239807128906 263.017333984375 C 180.94699096679688 260.4899597167969 180.31446838378906 260.4189453125 178.7668914794922 251.63763427734375 C 178.97482299804688 247.97264099121094 169.05950927734375 242.30613708496094 170.5630340576172 238.48733520507812 C 175.20213317871094 213.62451171875 177.3371124267578 212.88304138183594 185.5927276611328 220.59080505371094 C 193.69488525390625 219.70542907714844 194.05809020996094 215.0471954345703 198.47140502929688 213.38975524902344 C 184.5232696533203 205.84600830078125 184.59349060058594 200.62940979003906 201.2064666748047 197.30995178222656 C 212.97203063964844 192.78570556640625 215.09805297851562 194.94873046875 214.9589080810547 210.2917938232422" stroke-width="0.0" fill="url(#shape_22_fill)"/>
    <path d="M 111.68598937988281 426.2057189941406 C 112.74256134033203 429.2847595214844 111.04124450683594 431.2073059082031 110.65791320800781 431.408447265625 C 104.9663314819336 432.6623229980469 103.22496795654297 433.79827880859375 91.9454574584961 433.0802307128906 C 89.77288055419922 435.9706726074219 95.6648941040039 446.421630859375 91.58799743652344 452.1399841308594 C 78.66380310058594 444.9972229003906 46.938175201416016 447.9271240234375 25.250749588012695 449.61651611328125 C 14.04376220703125 446.18853759765625 13.90172290802002 439.7502136230469 18.060646057128906 436.36004638671875 C 35.225341796875 427.548828125 49.62647247314453 426.6817626953125 73.44136810302734 427.0442199707031 C 73.62064361572266 423.8509216308594 110.00172424316406 420.5525817871094 111.68598937988281 426.2057189941406" stroke-width="0.0" fill="url(#shape_23_fill)"/>
    <path d="M 198.54421997070312 121.46599578857422 C 208.02273559570312 117.63574981689453 220.64083862304688 136.23684692382812 217.79440307617188 141.89263916015625 C 216.23695373535156 147.859130859375 218.4236602783203 150.38392639160156 220.31507873535156 154.64804077148438 C 228.08827209472656 158.34217834472656 247.8166046142578 176.2706756591797 244.7742156982422 198.98800659179688 C 239.13182067871094 199.58697509765625 235.67465209960938 187.0282440185547 232.30531311035156 179.78114318847656 C 234.77886962890625 187.2053680419922 233.43980407714844 195.96080017089844 230.52207946777344 197.12118530273438 C 228.1838836669922 197.05690002441406 225.8808135986328 202.64752197265625 220.1793670654297 208.71551513671875 C 214.84010314941406 207.8023223876953 213.34921264648438 202.71826171875 212.21327209472656 198.53257751464844 C 211.53700256347656 190.7791290283203 211.681640625 183.24655151367188 206.77403259277344 177.6714630126953 C 203.860107421875 174.04771423339844 204.91500854492188 173.00315856933594 205.6902313232422 167.8387451171875 C 202.54083251953125 147.54666137695312 199.47679138183594 146.94375610351562 192.07479858398438 143.7981719970703 C 189.42739868164062 142.42059326171875 191.58804321289062 128.5785675048828 198.54421997070312 121.46599578857422" stroke-width="0.0" fill="url(#shape_24_fill)"/>
    <path d="M 591.2190551757812 402.06732177734375 C 601.0283813476562 406.1904296875 629.0833129882812 405.2555847167969 635.6256103515625 411.118896484375 C 634.4778442382812 423.30523681640625 630.1366577148438 426.67803955078125 629.0018920898438 426.00537109375 C 630.5620727539062 427.8262634277344 636.0913696289062 428.0385437011719 639.8623657226562 436.6045227050781 C 618.7767944335938 447.9012756347656 578.7451171875 438.6961975097656 572.4269409179688 434.8983154296875 C 567.6893310546875 427.25927734375 573.876220703125 419.5718688964844 576.974853515625 412.9029235839844 C 578.1812133789062 410.978271484375 585.8394165039062 413.6159362792969 591.2190551757812 402.06732177734375" stroke-width="0.0" fill="url(#shape_25_fill)"/>
    <path d="M 142.9146728515625 66.88980865478516 C 144.04885864257812 68.89818572998047 149.1737060546875 67.64124298095703 149.61947631835938 69.01197052001953 C 148.87521362304688 70.90824890136719 150.44679260253906 71.82779693603516 149.5975341796875 73.92980194091797 C 151.1011199951172 74.48606872558594 150.1623077392578 78.67587280273438 149.54005432128906 90.0435791015625 C 150.03872680664062 93.16204833984375 154.2564697265625 95.57825469970703 153.3592071533203 104.18750762939453 C 153.3131103515625 107.6747055053711 155.11524963378906 108.51081085205078 155.73794555664062 110.94365692138672 C 157.28123474121094 123.22080993652344 154.5699005126953 133.48025512695312 150.06541442871094 133.58518981933594 C 141.56166076660156 127.80545806884766 137.65892028808594 118.65010833740234 126.00043487548828 116.69708251953125 C 121.97636413574219 113.76866149902344 123.34931945800781 109.24333953857422 126.17102813720703 107.28551483154297 C 128.563232421875 106.7736587524414 129.03427124023438 105.27843475341797 132.56272888183594 104.87966918945312 C 138.49864196777344 96.47224426269531 135.1280975341797 92.8790054321289 132.8451690673828 89.04827117919922 C 134.0475311279297 88.20365905761719 139.4019775390625 87.7496566772461 140.39869689941406 85.38483428955078 C 138.48179626464844 84.72469329833984 138.6186981201172 77.63175201416016 139.7324981689453 77.61830139160156 C 143.905517578125 76.54499816894531 143.06329345703125 70.78465270996094 142.9146728515625 66.88980865478516" stroke-width="0.0" fill="url(#shape_26_fill)"/>
    <path d="M 139.5157928466797 67.77616119384766 C 149.111572265625 66.83370971679688 149.54066467285156 67.97052001953125 148.7603302001953 77.27711486816406 C 150.5111846923828 78.28653717041016 151.13941955566406 80.7497787475586 154.96543884277344 85.34235382080078 C 149.987060546875 90.35452270507812 155.11819458007812 95.65946197509766 151.00906372070312 105.26275634765625 C 152.7390594482422 106.0650863647461 153.57586669921875 109.76251220703125 155.5215301513672 112.90644836425781 C 152.81777954101562 116.28154754638672 157.83328247070312 122.35821533203125 153.74954223632812 126.415771484375 C 152.4786376953125 132.01145935058594 151.30551147460938 133.16539001464844 147.55728149414062 134.42977905273438 C 141.92135620117188 131.0434112548828 128.26747131347656 122.18817138671875 129.5232391357422 117.58270263671875 C 124.20407104492188 118.56307220458984 122.90074920654297 113.2176742553711 128.17440795898438 110.62724304199219 C 122.80402374267578 107.66600799560547 124.47483825683594 104.26303100585938 133.39004516601562 107.65332794189453 C 136.71310424804688 105.85942077636719 133.30885314941406 92.71987915039062 132.70803833007812 89.16850280761719 C 139.3827362060547 87.5660629272461 138.91775512695312 85.12983703613281 138.97625732421875 81.16836547851562 C 139.06619262695312 77.49158477783203 140.3622283935547 76.81182861328125 142.4591827392578 78.31739807128906 C 145.2977294921875 71.85687255859375 142.62289428710938 70.46200561523438 139.5157928466797 67.77616119384766" stroke-width="0.0" fill="url(#shape_27_fill)"/>
    <path d="M -0.4112142026424408 -0.27725839614868164 C 4.728064060211182 0.3879324793815613 9.67978286743164 -0.531968891620636 18.72210121154785 -0.9040074348449707 C 25.521621704101562 -1.7815266847610474 25.99559783935547 -0.9750003218650818 55.09636688232422 0.43118056654930115 C 50.882938385009766 25.72675895690918 28.84294319152832 23.265600204467773 27.854568481445312 27.082874298095703 C 59.58783721923828 9.768360137939453 68.40432739257812 9.203272819519043 71.64457702636719 56.71798324584961 C 34.01705551147461 58.527278900146484 22.101184844970703 61.02153015136719 19.532804489135742 53.27450942993164 C 16.359943389892578 39.31624221801758 11.328874588012695 38.28126907348633 9.984254837036133 33.61859893798828 C 10.090740203857422 35.792640686035156 14.523977279663086 39.262916564941406 14.556925773620605 41.04230499267578 C 16.117231369018555 42.179691314697266 15.99349308013916 44.639984130859375 18.17626190185547 47.876895904541016 C 20.07744598388672 51.071495056152344 18.771543502807617 52.3040885925293 22.41023826599121 57.52290725708008 C 23.110673904418945 70.09263610839844 13.124700546264648 72.50946807861328 7.595999717712402 61.83211898803711 C 5.377072811126709 60.9295539855957 3.5446584224700928 59.13398742675781 0.31549352407455444 59.44497299194336 C -0.3205567002296448 39.79806900024414 -0.3250346779823303 19.634593963623047 -0.4112142026424408 -0.27725839614868164" stroke-width="0.0" fill="url(#shape_28_fill)"/>
    <path d="M 298.529052734375 197.25839233398438 C 297.8306884765625 199.46609497070312 300.6585388183594 202.16116333007812 301.5155029296875 208.68667602539062 C 300.4214782714844 214.529541015625 326.1562194824219 222.55938720703125 315.961181640625 255.5094757080078 C 311.8863220214844 254.69107055664062 310.5566711425781 255.73915100097656 304.5121765136719 255.03048706054688 C 303.7853088378906 258.0518493652344 296.8633728027344 258.5484619140625 281.23394775390625 256.2201843261719 C 276.9422607421875 223.70240783691406 284.93572998046875 221.4674835205078 298.529052734375 197.25839233398438" stroke-width="0.0" fill="url(#shape_29_fill)"/>
    <path d="M 0.003876875387504697 -0.1379549652338028 C 4.599449157714844 0.4534893035888672 9.799181938171387 -0.4099684953689575 14.733187675476074 0.09517757594585419 C 15.960780143737793 0.47292718291282654 16.754192352294922 2.4930977821350098 16.58447265625 7.922857761383057 C 18.757061004638672 11.012838363647461 21.426965713500977 19.159372329711914 27.792613983154297 20.513153076171875 C 27.291505813598633 22.59193992614746 23.646400451660156 26.6838321685791 25.000593185424805 31.97059440612793 C 20.369680404663086 32.641998291015625 11.509954452514648 30.134843826293945 4.129538536071777 33.46482849121094 C 8.870132446289062 36.15485763549805 8.666299819946289 39.0626335144043 10.866393089294434 40.4601936340332 C 10.452367782592773 43.03645324707031 7.441068649291992 49.418094635009766 11.755091667175293 53.797119140625 C 17.764883041381836 51.08927917480469 19.469106674194336 51.546348571777344 18.52414321899414 58.356956481933594 C 11.31771183013916 60.69325256347656 9.42662239074707 62.487239837646484 0.177091583609581 61.57272720336914 C -0.4276861846446991 39.97858428955078 -0.3546833097934723 19.75642967224121 0.003876875387504697 -0.1379549652338028" stroke-width="0.0" fill="url(#shape_30_fill)"/>
    <path d="M 548.9662475585938 70.73654174804688 C 546.7379760742188 78.40296173095703 576.7025146484375 89.41944122314453 581.4009399414062 91.80501556396484 C 580.9869384765625 92.97564697265625 577.5067749023438 93.38910675048828 577.402587890625 98.34014129638672 C 573.291748046875 100.69416046142578 572.0569458007812 99.81474304199219 569.2512817382812 100.02832794189453 C 567.5969848632812 93.92890167236328 547.747314453125 98.90797424316406 538.9069213867188 88.25590515136719 C 538.1982421875 85.51976013183594 538.8995971679688 82.78057098388672 535.8703002929688 81.87181854248047 C 534.07177734375 80.6839599609375 527.0396728515625 79.52870178222656 526.979736328125 78.13180541992188 C 524.9956665039062 75.80509948730469 527.6494140625 70.80370330810547 531.9230346679688 68.92279052734375 C 539.1681518554688 66.81043243408203 542.795654296875 71.44320678710938 548.9662475585938 70.73654174804688" stroke-width="0.0" fill="url(#shape_31_fill)"/>
    <path d="M 447.009765625 264.4327087402344 C 450.6157531738281 265.32049560546875 451.25115966796875 266.76806640625 455.58221435546875 267.8482360839844 C 460.5113830566406 267.6551208496094 465.32232666015625 270.3759765625 469.9600524902344 273.01336669921875 C 470.4309997558594 275.6334533691406 471.828857421875 276.8868713378906 471.6768798828125 280.78009033203125 C 452.2172546386719 287.2763366699219 431.0400085449219 284.1205139160156 415.7626037597656 285.14739990234375 C 413.35272216796875 273.8816223144531 414.2552795410156 272.290283203125 415.2962646484375 268.0288391113281 C 418.1806640625 267.19677734375 417.7241516113281 264.78076171875 419.32220458984375 262.90032958984375 C 445.35003662109375 251.1158905029297 447.0035400390625 251.3522491455078 447.009765625 264.4327087402344" stroke-width="0.0" fill="url(#shape_32_fill)"/>
    <path d="M 272.8668518066406 192.0848388671875 C 274.349365234375 192.33834838867188 288.1889343261719 243.72169494628906 282.6152648925781 248.97048950195312 C 279.75128173828125 249.5923614501953 274.0698547363281 247.72802734375 269.1626281738281 249.92434692382812 C 266.0999755859375 246.6779022216797 266.432861328125 242.87509155273438 260.8314208984375 240.70404052734375 C 254.53965759277344 207.834228515625 262.99261474609375 206.06085205078125 272.8668518066406 192.0848388671875" stroke-width="0.0" fill="url(#shape_33_fill)"/>
    <path d="M 270.17669677734375 406.42230224609375 C 262.1280212402344 429.79632568359375 264.2060241699219 430.90533447265625 267.0333557128906 440.62750244140625 C 262.4983825683594 440.8509216308594 260.6865539550781 446.4278564453125 258.6993713378906 447.8650817871094 C 245.34683227539062 445.8772888183594 213.4666748046875 448.85546875 212.3964080810547 445.067138671875 C 213.0220184326172 436.99578857421875 213.95974731445312 436.2222900390625 216.08543395996094 434.7453308105469 C 216.48992919921875 433.6402587890625 225.10902404785156 434.01678466796875 226.82481384277344 431.0203552246094 C 226.804931640625 417.7912902832031 232.40255737304688 417.1118469238281 270.17669677734375 406.42230224609375" stroke-width="0.0" fill="url(#shape_34_fill)"/>
    <path d="M 105.5596694946289 69.66316223144531 C 110.24026489257812 69.72921752929688 110.68476104736328 78.61568450927734 112.76165008544922 84.99616241455078 C 117.95008087158203 86.43624114990234 115.88345336914062 110.23867797851562 118.94950866699219 110.52191925048828 C 116.70631408691406 112.57829284667969 109.8553237915039 114.28900146484375 106.9742660522461 124.95340728759766 C 104.59193420410156 117.11860656738281 96.469970703125 118.90592193603516 87.30260467529297 107.70634460449219 C 85.84819030761719 85.65100860595703 106.02677917480469 84.32454681396484 105.5596694946289 69.66316223144531" stroke-width="0.0" fill="url(#shape_35_fill)"/>
    <path d="M 451.2118225097656 178.46214294433594 C 454.1383972167969 176.0192108154297 456.3249816894531 177.7694854736328 455.1040954589844 180.33055114746094 C 455.9195861816406 180.83480834960938 455.1573486328125 184.873779296875 456.0405578613281 186.8775177001953 C 456.3088073730469 188.4844970703125 459.3511047363281 193.8098602294922 458.9706115722656 204.28887939453125 C 458.7998352050781 208.2484893798828 453.1299133300781 210.2675018310547 445.9658508300781 204.3697509765625 C 442.21014404296875 206.7475128173828 440.74151611328125 209.35232543945312 432.31268310546875 210.87998962402344 C 435.8619384765625 209.9210205078125 436.92828369140625 188.0290069580078 437.7906799316406 173.92051696777344 C 440.3480224609375 179.2315216064453 440.5935363769531 181.51754760742188 446.8124694824219 181.38580322265625 C 447.9289245605469 179.70326232910156 450.146484375 179.71424865722656 451.2118225097656 178.46214294433594" stroke-width="0.0" fill="url(#shape_36_fill)"/>
    <path d="M 557.8001098632812 84.49494934082031 C 560.2503662109375 80.2958755493164 578.3935546875 83.12788391113281 579.4107666015625 85.16324615478516 C 581.460693359375 83.23139953613281 586.3497314453125 84.85408020019531 588.1837158203125 88.64158630371094 C 598.2920532226562 109.78764343261719 588.769775390625 116.03608703613281 574.3259887695312 100.8333740234375 C 573.785888671875 99.48654174804688 551.1612548828125 96.96629333496094 548.2623901367188 86.83731079101562 C 539.1649169921875 86.61536407470703 537.6113891601562 84.98477935791016 536.8300170898438 79.83999633789062 C 543.10986328125 74.83379364013672 547.1141357421875 78.6097183227539 557.8001098632812 84.49494934082031" stroke-width="0.0" fill="url(#shape_37_fill)"/>
    <path d="M 251.85560607910156 207.0763702392578 C 265.8941345214844 215.04302978515625 261.3626708984375 234.82327270507812 260.04425048828125 248.33544921875 C 259.6790771484375 254.56158447265625 251.3603515625 255.12973022460938 248.9928741455078 257.04534912109375 C 234.450927734375 236.98434448242188 241.06643676757812 216.01885986328125 251.85560607910156 207.0763702392578" stroke-width="0.0" fill="url(#shape_38_fill)"/>
    <path d="M 442.2176208496094 263.0236511230469 C 445.980224609375 263.4228210449219 449.20550537109375 266.6772766113281 447.9206237792969 270.0853576660156 C 444.6692810058594 270.4041442871094 442.6733703613281 277.3273620605469 440.09307861328125 277.2244567871094 C 438.2906188964844 286.88671875 430.211669921875 286.24346923828125 417.9542541503906 275.3386535644531 C 414.42987060546875 276.72747802734375 413.2872009277344 274.3763122558594 416.4353332519531 271.60516357421875 C 414.9061584472656 269.9185485839844 419.2820739746094 262.29644775390625 425.24310302734375 258.510498046875 C 426.9726257324219 257.9189758300781 440.68536376953125 257.6042175292969 442.2176208496094 263.0236511230469" stroke-width="0.0" fill="url(#shape_39_fill)"/>
    <path d="M 407.65887451171875 409.9190368652344 C 408.6399230957031 409.91741943359375 416.7673034667969 419.1462707519531 414.2023010253906 424.4369812011719 C 399.0766906738281 435.3414611816406 386.27484130859375 420.6263427734375 376.5495910644531 420.8843078613281 C 371.0736389160156 417.9612731933594 371.2277526855469 416.5549011230469 372.43377685546875 410.3083190917969 C 375.6195983886719 401.18280029296875 392.22607421875 403.9646911621094 407.65887451171875 409.9190368652344" stroke-width="0.0" fill="url(#shape_40_fill)"/>
    <path d="M 66.56326293945312 427.4007568359375 C 67.2060317993164 428.93438720703125 63.90934753417969 431.9190368652344 58.6199951171875 434.3077697753906 C 57.353851318359375 435.9294128417969 41.39689636230469 435.3304443359375 30.923583984375 443.3435974121094 C 28.0947322845459 443.30108642578125 27.770755767822266 444.4670715332031 17.414194107055664 442.44354248046875 C 16.45796775817871 440.6537170410156 18.048280715942383 439.2092590332031 17.412315368652344 437.7003173828125 C 36.2712516784668 427.0690002441406 51.9506950378418 428.46844482421875 66.56326293945312 427.4007568359375" stroke-width="0.0" fill="url(#shape_41_fill)"/>
    <path d="M 277.1316833496094 381.0774841308594 C 284.6668701171875 381.1607360839844 298.2664489746094 380.920166015625 310.91070556640625 385.9770202636719 C 296.774658203125 394.4369201660156 299.3002014160156 401.1302185058594 294.54681396484375 405.2507019042969 C 291.7706298828125 400.1027526855469 268.0472106933594 407.3703308105469 258.4241027832031 410.05181884765625 C 239.93313598632812 418.22576904296875 233.1016082763672 412.4684143066406 232.2393798828125 384.26959228515625 C 259.92724609375 378.6875305175781 266.42449951171875 382.2933654785156 277.1316833496094 381.0774841308594" stroke-width="0.0" fill="url(#shape_42_fill)"/>
    <path d="M 222.71209716796875 208.91452026367188 C 224.20913696289062 206.30279541015625 238.53248596191406 206.18316650390625 238.93507385253906 210.0941162109375 C 242.57754516601562 221.7262725830078 244.11181640625 244.6035919189453 255.8426055908203 270.2509765625 C 252.1139373779297 276.06988525390625 243.33816528320312 273.4285888671875 208.1032257080078 272.38385009765625 C 208.95750427246094 265.8907775878906 205.36856079101562 250.14169311523438 216.2230224609375 247.63433837890625 C 219.18936157226562 246.45407104492188 218.45863342285156 226.42796325683594 222.71209716796875 208.91452026367188" stroke-width="0.0" fill="url(#shape_43_fill)"/>
    <path d="M 483.158935546875 396.5716552734375 C 486.765625 399.8291320800781 485.75042724609375 400.9627990722656 483.40509033203125 400.79229736328125 C 469.9391174316406 407.4778137207031 451.1646423339844 406.9122619628906 450.2873229980469 407.5234375 C 448.3122253417969 404.4337158203125 451.7489929199219 396.2052917480469 453.68695068359375 396.5316467285156 C 466.5428161621094 393.39385986328125 471.94921875 392.23388671875 483.158935546875 396.5716552734375" stroke-width="0.0" fill="url(#shape_44_fill)"/>
    <path d="M 45.79757308959961 408.1334533691406 C 45.317195892333984 408.16943359375 35.86864471435547 412.4629821777344 32.249149322509766 412.59521484375 C 32.250125885009766 414.29876708984375 31.857152938842773 415.72003173828125 27.96523094177246 414.92071533203125 C 26.884035110473633 416.27203369140625 23.933340072631836 417.0599060058594 19.978357315063477 420.1718444824219 C 19.36211395263672 420.2864074707031 0.2528795599937439 417.3525085449219 -0.6481977105140686 420.52642822265625 C 1.8684879541397095 419.4004211425781 -1.1398842334747314 411.1936340332031 1.0432530641555786 410.1776428222656 C 5.893702030181885 409.69757080078125 45.46182632446289 406.27044677734375 45.79757308959961 408.1334533691406" stroke-width="0.0" fill="url(#shape_45_fill)"/>
    <path d="M 452.44171142578125 173.8079833984375 C 453.80023193359375 174.9602508544922 464.66729736328125 198.4736328125 467.2247009277344 199.8903350830078 C 462.6257019042969 209.21636962890625 451.201416015625 209.1341552734375 449.4505310058594 206.47401428222656 C 448.3038635253906 203.2684326171875 448.96136474609375 198.32359313964844 448.8523254394531 195.29693603515625 C 447.96612548828125 194.57176208496094 447.58502197265625 192.04959106445312 448.5235900878906 187.99169921875 C 450.97723388671875 186.64344787597656 450.328369140625 182.6553192138672 452.44171142578125 173.8079833984375" stroke-width="0.0" fill="url(#shape_46_fill)"/>
    <path d="M 372.1073913574219 183.23190307617188 C 379.3042907714844 198.38882446289062 380.4807434082031 202.70655822753906 371.4289245605469 205.8150177001953 C 365.866943359375 206.83258056640625 364.772216796875 204.77833557128906 361.6417236328125 206.1312713623047 C 339.593017578125 212.27981567382812 335.2342224121094 201.03353881835938 353.3912658691406 189.35057067871094 C 356.70330810546875 184.9874267578125 358.3789978027344 184.36895751953125 368.2161865234375 185.45220947265625 C 369.057861328125 182.80577087402344 371.41259765625 182.93499755859375 372.1073913574219 183.23190307617188" stroke-width="0.0" fill="url(#shape_47_fill)"/>
    <path d="M 473.02410888671875 264.5036926269531 C 473.9657897949219 268.4053039550781 480.9919738769531 271.4252624511719 483.78900146484375 283.5400390625 C 466.73248291015625 288.1125793457031 445.3815002441406 286.7703857421875 443.7654113769531 284.91143798828125 C 439.3440856933594 282.1225891113281 440.0027160644531 276.9648742675781 441.0116882324219 276.3106994628906 C 449.0135803222656 266.5545654296875 456.3564758300781 261.6425476074219 473.02410888671875 264.5036926269531" stroke-width="0.0" fill="url(#shape_48_fill)"/>
    <path d="M 176.67431640625 116.61103057861328 C 178.07614135742188 115.56555938720703 181.71153259277344 116.15962982177734 182.67481994628906 117.28823852539062 C 184.62767028808594 120.08354187011719 183.92654418945312 121.76165771484375 184.7161865234375 123.47245788574219 C 179.49452209472656 128.5199737548828 185.5370635986328 136.97793579101562 182.89541625976562 139.47616577148438 C 182.01174926757812 146.73387145996094 172.84213256835938 146.12631225585938 172.494873046875 146.87564086914062 C 172.7643585205078 127.00263977050781 171.13560485839844 124.48463439941406 176.67431640625 116.61103057861328" stroke-width="0.0" fill="url(#shape_49_fill)"/>
    <path d="M 333.74169921875 426.57440185546875 C 335.38482666015625 430.2578125 342.127197265625 428.9051818847656 343.6471862792969 431.5577392578125 C 346.3768005371094 435.56866455078125 345.158447265625 437.21185302734375 342.2976379394531 437.5013427734375 C 342.54315185546875 447.4034118652344 325.5581359863281 448.7841796875 323.5939025878906 445.48406982421875 C 321.5531311035156 436.175537109375 321.5838623046875 432.67205810546875 305.4638366699219 430.464111328125 C 318.1696472167969 425.15802001953125 327.32208251953125 430.7399597167969 333.74169921875 426.57440185546875" stroke-width="0.0" fill="url(#shape_50_fill)"/>
    <path d="M 318.9753112792969 388.57635498046875 C 310.8034973144531 395.5429382324219 293.0796203613281 395.746337890625 291.5191650390625 399.0558166503906 C 279.1025085449219 397.6238708496094 277.8638610839844 399.0303649902344 271.263427734375 402.29022216796875 C 271.2559509277344 401.5969543457031 270.03271484375 398.8988342285156 271.7475280761719 397.50677490234375 C 270.3831787109375 395.578125 273.53546142578125 388.5933837890625 280.0425720214844 388.4555969238281 C 284.44219970703125 386.77911376953125 288.53900146484375 390.94586181640625 318.9753112792969 388.57635498046875" stroke-width="0.0" fill="url(#shape_51_fill)"/>
    <path d="M 269.0199279785156 186.22898864746094 C 277.45416259765625 194.7710418701172 276.8998718261719 207.87461853027344 280.220703125 217.5166778564453 C 271.5488586425781 210.4932403564453 269.5897216796875 208.46876525878906 260.13983154296875 217.22866821289062 C 257.8652038574219 208.841796875 263.08892822265625 195.03677368164062 267.9301452636719 195.68873596191406 C 269.5993957519531 194.12294006347656 268.8673400878906 191.58132934570312 269.0199279785156 186.22898864746094" stroke-width="0.0" fill="url(#shape_52_fill)"/>
    <path d="M 218.51248168945312 409.3758850097656 C 215.8837127685547 410.8953857421875 215.77171325683594 413.34149169921875 214.2978973388672 415.1202087402344 C 214.53277587890625 423.4860534667969 194.9232177734375 425.09979248046875 187.7020721435547 415.5851745605469 C 186.3563690185547 404.12725830078125 208.80511474609375 399.0079345703125 218.51248168945312 409.3758850097656" stroke-width="0.0" fill="url(#shape_53_fill)"/>
    <path d="M 206.01869201660156 424.59295654296875 C 205.44908142089844 425.2227783203125 206.152099609375 428.2986145019531 204.55105590820312 428.8968505859375 C 194.4806365966797 429.50311279296875 178.82667541503906 429.99664306640625 178.10035705566406 432.69281005859375 C 176.944091796875 430.9413146972656 178.53379821777344 425.9423522949219 177.17552185058594 423.8650207519531 C 187.24705505371094 418.6930236816406 192.3411102294922 423.22882080078125 206.01869201660156 424.59295654296875" stroke-width="0.0" fill="url(#shape_54_fill)"/>
    <path d="M 268.2423095703125 247.85365295410156 C 275.1900939941406 245.3098907470703 276.8021545410156 248.06285095214844 279.26361083984375 249.49081420898438 C 281.13226318359375 251.00299072265625 280.67425537109375 252.1646728515625 294.0683288574219 271.5258483886719 C 263.492431640625 258.1329345703125 262.8788146972656 257.47637939453125 249.26760864257812 267.8364562988281 C 254.8269500732422 248.1764678955078 255.92250061035156 247.25648498535156 258.6682434082031 245.18946838378906 C 260.9866638183594 240.10719299316406 263.5899963378906 239.23379516601562 268.2423095703125 247.85365295410156" stroke-width="0.0" fill="url(#shape_55_fill)"/>
    <path d="M 287.884521484375 336.6368408203125 C 285.7695617675781 362.6091003417969 286.499267578125 363.2413024902344 285.3425598144531 368.0226135253906 C 285.580810546875 369.2234802246094 286.1079406738281 371.7638854980469 285.504150390625 381.52410888671875 C 271.095703125 379.3309326171875 257.49420166015625 380.91326904296875 234.43353271484375 383.2781066894531 C 230.15325927734375 382.6492004394531 229.5049591064453 371.7311706542969 234.86160278320312 345.2113037109375 C 236.5260009765625 337.1636657714844 242.4771270751953 334.8909606933594 287.884521484375 336.6368408203125" stroke-width="0.0" fill="url(#shape_56_fill)"/>
    <path d="M 408.107421875 271.9477233886719 C 413.5555114746094 270.42510986328125 417.8744812011719 275.3749084472656 425.4306640625 282.1300048828125 C 416.4945068359375 283.17498779296875 412.3804626464844 275.91302490234375 374.5772705078125 274.2437744140625 C 376.03619384765625 263.5704345703125 383.9894104003906 263.775390625 408.107421875 271.9477233886719" stroke-width="0.0" fill="url(#shape_57_fill)"/>
    <path d="M 632.115478515625 352.5222473144531 C 632.981689453125 354.7539978027344 661.6654052734375 355.05096435546875 668.501220703125 355.3459777832031 C 668.4395751953125 358.1069030761719 663.0011596679688 360.19659423828125 660.1817016601562 356.6755676269531 C 644.7403564453125 356.4508361816406 636.2269897460938 358.88677978515625 631.7042846679688 359.60015869140625 C 627.9127197265625 357.2389221191406 629.5565795898438 353.6888732910156 632.115478515625 352.5222473144531" stroke-width="0.0" fill="url(#shape_58_fill)"/>
    <path d="M 341.378662109375 384.66796875 C 342.8372802734375 390.09893798828125 358.15234375 391.613525390625 359.166259765625 394.5807800292969 C 356.65155029296875 398.5500793457031 339.7784729003906 401.26678466796875 338.27215576171875 399.56878662109375 C 335.1358642578125 399.63494873046875 333.0556945800781 398.79010009765625 331.8287048339844 396.5372619628906 C 331.9931335449219 394.93994140625 330.74169921875 393.4737243652344 332.25128173828125 390.5751647949219 C 332.739013671875 384.85772705078125 335.4776306152344 383.8090515136719 341.378662109375 384.66796875" stroke-width="0.0" fill="url(#shape_59_fill)"/>
    <path d="M 459.06658935546875 364.2184143066406 C 461.6573181152344 363.50714111328125 474.849609375 371.5403747558594 473.2372741699219 374.5748596191406 C 471.81390380859375 376.2473449707031 470.33636474609375 376.8373107910156 463.73345947265625 375.8811950683594 C 458.9490966796875 376.64593505859375 456.86041259765625 377.1643371582031 452.6166687011719 370.5539855957031 C 453.4320983886719 370.0851745605469 459.6446838378906 369.1866149902344 459.06658935546875 364.2184143066406" stroke-width="0.0" fill="url(#shape_60_fill)"/>
    <path d="M 428.20269775390625 432.2962951660156 C 439.987548828125 434.2341003417969 442.3926086425781 436.7028503417969 442.1141357421875 438.60498046875 C 440.2675476074219 440.73675537109375 427.5610656738281 439.3066711425781 425.7121276855469 442.0228576660156 C 422.5333251953125 437.95782470703125 423.8925476074219 434.6935119628906 410.5973205566406 425.35821533203125 C 427.5987854003906 428.2680358886719 428.95025634765625 431.63043212890625 428.20269775390625 432.2962951660156" stroke-width="0.0" fill="url(#shape_61_fill)"/>
    <path d="M 185.39573669433594 411.4521179199219 C 186.23684692382812 413.8905029296875 185.05136108398438 414.82061767578125 186.8357696533203 417.7398376464844 C 184.8769073486328 420.2275390625 183.3816680908203 419.4886169433594 182.5343475341797 419.7884521484375 C 180.8330841064453 421.6556091308594 174.47119140625 420.1298828125 171.735595703125 419.9864501953125 C 169.60496520996094 417.5841979980469 169.78738403320312 415.62396240234375 175.32376098632812 412.15118408203125 C 176.73605346679688 413.60150146484375 180.310791015625 410.4896240234375 185.39573669433594 411.4521179199219" stroke-width="0.0" fill="url(#shape_62_fill)"/>
    <path d="M 331.8785705566406 418.8861389160156 C 334.2577819824219 425.6394348144531 329.8603515625 427.8521728515625 327.2178955078125 425.5209045410156 C 324.48675537109375 427.732177734375 322.9560546875 426.6827087402344 321.65618896484375 427.34210205078125 C 318.9731750488281 425.96124267578125 320.0462951660156 419.9485778808594 317.64532470703125 418.5196228027344 C 318.97027587890625 420.2982177734375 325.74432373046875 418.5462951660156 331.8785705566406 418.8861389160156" stroke-width="0.0" fill="url(#shape_63_fill)"/>
    <path d="M 55.61213684082031 274.3324279785156 C 56.67994689941406 269.4024963378906 64.48137664794922 270.70416259765625 63.296905517578125 278.78497314453125 C 59.74424743652344 278.72247314453125 54.338497161865234 272.37945556640625 48.74653625488281 276.3174743652344 C 51.33057403564453 273.76873779296875 52.81117248535156 273.3333435058594 55.61213684082031 274.3324279785156" stroke-width="0.0" fill="url(#shape_64_fill)"/>
    <path d="M 304.7050476074219 440.193359375 C 304.5806579589844 437.84814453125 306.49517822265625 436.8983459472656 313.23028564453125 437.7391052246094 C 314.3598327636719 439.6800537109375 312.85052490234375 441.0574035644531 310.82794189453125 441.3415222167969 C 307.86785888671875 445.1717224121094 306.4525451660156 444.20196533203125 305.2234191894531 443.83453369140625 C 302.5625305175781 441.7077941894531 303.34942626953125 440.37225341796875 304.7050476074219 440.193359375" stroke-width="0.0" fill="url(#shape_65_fill)"/>
    <path d="M -0.5738955140113831 -0.42862197756767273 C 224.75411987304688 -0.14353050291538239 444.17926025390625 0.30769115686416626 672.42529296875 0.24557620286941528 C 673.3623046875 155.85400390625 674.7603149414062 296.0504150390625 673.7525634765625 445.47210693359375 C 450.0915222167969 446.3201599121094 230.1029510498047 446.310302734375 0.4266047179698944 445.4859313964844 C 0.17883864045143127 297.26495361328125 -0.21482016146183014 149.5032501220703 -0.5738955140113831 -0.42862197756767273" stroke-width="0.0" fill="url(#shape_66_fill)"/>
    <path d="M -1.1329717636108398 -0.2259240597486496 C 222.8143768310547 -0.13408149778842926 442.91650390625 0.39367416501045227 672.349853515625 -0.2487434595823288 C 673.3902587890625 156.88331604003906 674.8201293945312 295.6373291015625 673.395263671875 445.39190673828125 C 450.4068908691406 446.38323974609375 230.1871795654297 446.3446044921875 0.4288650453090668 445.4212341308594 C 0.02507813274860382 297.6280822753906 -0.3000454306602478 149.1811065673828 -1.1329717636108398 -0.2259240597486496" stroke-width="0.0" fill="url(#shape_67_fill)"/>
    <path d="M -0.7376501560211182 -0.2752930223941803 C 223.4542694091797 -0.1877172887325287 441.64666748046875 0.5242226719856262 672.5418090820312 -0.3248283565044403 C 673.4901123046875 156.07643127441406 674.8192749023438 295.43939208984375 673.385009765625 445.3912658691406 C 450.40216064453125 446.3846740722656 230.23072814941406 446.3434753417969 1.0899012088775635 445.3976135253906 C 0.4704756736755371 295.76202392578125 0.053688179701566696 148.59063720703125 -0.7376501560211182 -0.2752930223941803" stroke-width="0.0" fill="url(#shape_68_fill)"/>
  </g>
</svg>
