<?xml version="1.0" ?>
<svg xmlns="http://www.w3.org/2000/svg" version="1.1" width="674" height="446">
  <defs>
    <radialGradient id="shape_0_fill" cx="0.531212283171249" cy="0.7392268843714966" r="0.28243633689088">
      <stop offset="0.7106788" stop-color="rgb(158, 167, 0)" stop-opacity="0.8365088701248169"/>
      <stop offset="1.0" stop-color="rgb(48, 41, 0)" stop-opacity="0.9813125133514404"/>
    </radialGradient>
    <radialGradient id="shape_1_fill" cx="0.5326674373638028" cy="0.7434248988403868" r="0.20669603206283615">
      <stop offset="0.35350612" stop-color="rgb(65, 57, 75)" stop-opacity="0.7336300611495972"/>
      <stop offset="0.9908638" stop-color="rgb(35, 6, 0)" stop-opacity="0.6022160053253174"/>
    </radialGradient>
    <radialGradient id="shape_2_fill" cx="0.09792273546892387" cy="0.7376672719091578" r="0.22062588021026522">
      <stop offset="0.0049915095" stop-color="rgb(50, 111, 189)" stop-opacity="0.8575280904769897"/>
      <stop offset="0.99347806" stop-color="rgb(2, 86, 255)" stop-opacity="0.8945943117141724"/>
    </radialGradient>
    <radialGradient id="shape_3_fill" cx="0.2784861669342313" cy="0.21495235768134283" r="0.13219328520913506">
      <stop offset="0.4058867" stop-color="rgb(127, 171, 0)" stop-opacity="0.7678341865539551"/>
      <stop offset="1.0" stop-color="rgb(35, 30, 0)" stop-opacity="0.926561713218689"/>
    </radialGradient>
    <radialGradient id="shape_4_fill" cx="0.1543026706231454" cy="0.9977578475336323" r="0.10288926755639141">
      <stop offset="0.0" stop-color="rgb(81, 79, 86)" stop-opacity="1.0"/>
      <stop offset="1.0" stop-color="rgb(49, 38, 63)" stop-opacity="0.8497843146324158"/>
    </radialGradient>
    <radialGradient id="shape_5_fill" cx="0.14807964290992442" cy="0.23997249517740155" r="0.11810664960821587">
      <stop offset="0.0" stop-color="rgb(255, 255, 255)" stop-opacity="0.6465655565261841"/>
      <stop offset="0.5626593" stop-color="rgb(255, 255, 255)" stop-opacity="0.5130691528320312"/>
    </radialGradient>
    <radialGradient id="shape_6_fill" cx="0.18397626112759644" cy="0.9977578475336323" r="0.0754974885934892">
      <stop offset="0.0" stop-color="rgb(93, 90, 94)" stop-opacity="1.0"/>
      <stop offset="1.0" stop-color="rgb(148, 127, 133)" stop-opacity="0.86517733335495"/>
    </radialGradient>
    <radialGradient id="shape_7_fill" cx="0.2893175074183976" cy="0.05829596412556054" r="0.08666390552011372">
      <stop offset="0.0" stop-color="rgb(55, 66, 29)" stop-opacity="1.0"/>
      <stop offset="1.0" stop-color="rgb(121, 129, 56)" stop-opacity="0.5736429691314697"/>
    </radialGradient>
    <radialGradient id="shape_8_fill" cx="0.3382789091115889" cy="0.9439461883408071" r="0.06756690277190167">
      <stop offset="0.0" stop-color="rgb(91, 124, 45)" stop-opacity="1.0"/>
      <stop offset="1.0" stop-color="rgb(80, 133, 0)" stop-opacity="0.545089602470398"/>
    </radialGradient>
    <radialGradient id="shape_9_fill" cx="0.30712166172106825" cy="0.9977578475336323" r="0.0730758406641929">
      <stop offset="0.0" stop-color="rgb(38, 48, 20)" stop-opacity="1.0"/>
      <stop offset="1.0" stop-color="rgb(34, 27, 52)" stop-opacity="1.0"/>
    </radialGradient>
    <radialGradient id="shape_10_fill" cx="0.3056379821958457" cy="0.9977578475336323" r="0.06792919147615971">
      <stop offset="0.0" stop-color="rgb(39, 49, 21)" stop-opacity="1.0"/>
      <stop offset="1.0" stop-color="rgb(32, 6, 0)" stop-opacity="0.6472935080528259"/>
    </radialGradient>
    <radialGradient id="shape_11_fill" cx="0.21810089020771514" cy="0.968609865470852" r="0.06792919147615971">
      <stop offset="0.0" stop-color="rgb(138, 135, 129)" stop-opacity="1.0"/>
      <stop offset="1.0" stop-color="rgb(116, 67, 42)" stop-opacity="0.4042329490184784"/>
    </radialGradient>
    <radialGradient id="shape_12_fill" cx="0.29080118694362017" cy="0.9977578475336323" r="0.07480746985189285">
      <stop offset="0.0" stop-color="rgb(22, 25, 13)" stop-opacity="1.0"/>
      <stop offset="1.0" stop-color="rgb(38, 30, 15)" stop-opacity="1.0"/>
    </radialGradient>
    <radialGradient id="shape_13_fill" cx="0.327893175074184" cy="0.8923766816143498" r="0.06900465877544279">
      <stop offset="0.0" stop-color="rgb(89, 117, 50)" stop-opacity="1.0"/>
      <stop offset="1.0" stop-color="rgb(92, 119, 8)" stop-opacity="0.6408451795578003"/>
    </radialGradient>
    <radialGradient id="shape_14_fill" cx="0.142433234421365" cy="0.9977578475336323" r="0.06617211022079875">
      <stop offset="0.0" stop-color="rgb(155, 150, 153)" stop-opacity="1.0"/>
      <stop offset="1.0" stop-color="rgb(255, 141, 139)" stop-opacity="0.22631530463695526"/>
    </radialGradient>
    <radialGradient id="shape_15_fill" cx="0.31008902077151335" cy="0.9977578475336323" r="0.06683642786405207">
      <stop offset="0.0" stop-color="rgb(43, 55, 23)" stop-opacity="1.0"/>
      <stop offset="1.0" stop-color="rgb(61, 65, 22)" stop-opacity="0.8713942170143127"/>
    </radialGradient>
    <radialGradient id="shape_16_fill" cx="0.27299703264094954" cy="0.9977578475336323" r="0.08110449363640579">
      <stop offset="0.0" stop-color="rgb(31, 35, 19)" stop-opacity="1.0"/>
      <stop offset="1.0" stop-color="rgb(30, 23, 0)" stop-opacity="0.9408767819404602"/>
    </radialGradient>
    <radialGradient id="shape_17_fill" cx="0.2893175074183976" cy="0.9977578475336323" r="0.07513486030193747">
      <stop offset="0.0" stop-color="rgb(22, 23, 13)" stop-opacity="1.0"/>
      <stop offset="1.0" stop-color="rgb(25, 19, 0)" stop-opacity="0.8548140525817871"/>
    </radialGradient>
    <radialGradient id="shape_18_fill" cx="0.3293768545994065" cy="0.7556053811659192" r="0.06617211022079875">
      <stop offset="0.0" stop-color="rgb(83, 108, 65)" stop-opacity="1.0"/>
      <stop offset="1.0" stop-color="rgb(105, 121, 57)" stop-opacity="0.9648628830909729"/>
    </radialGradient>
    <radialGradient id="shape_19_fill" cx="0.3516320474777448" cy="0.9977578475336323" r="0.06617211022079875">
      <stop offset="0.0" stop-color="rgb(95, 135, 39)" stop-opacity="1.0"/>
      <stop offset="1.0" stop-color="rgb(129, 184, 0)" stop-opacity="0.6346977353096008"/>
    </radialGradient>
    <radialGradient id="shape_20_fill" cx="0.0830860534124629" cy="0.9977578475336323" r="0.06792919147615971">
      <stop offset="0.0" stop-color="rgb(49, 52, 66)" stop-opacity="1.0"/>
      <stop offset="1.0" stop-color="rgb(45, 29, 66)" stop-opacity="0.45330289006233215"/>
    </radialGradient>
    <radialGradient id="shape_21_fill" cx="0.29821958456973297" cy="0.9977578475336323" r="0.06792919147615971">
      <stop offset="0.0" stop-color="rgb(33, 40, 17)" stop-opacity="1.0"/>
      <stop offset="1.0" stop-color="rgb(49, 62, 0)" stop-opacity="0.7149159908294678"/>
    </radialGradient>
    <radialGradient id="shape_22_fill" cx="0.3563326600751113" cy="0.44372438849889645" r="0.06594546966099951">
      <stop offset="0.52384716" stop-color="rgb(111, 135, 41)" stop-opacity="1.0"/>
      <stop offset="0.38891584" stop-color="rgb(146, 172, 41)" stop-opacity="0.910961925983429"/>
    </radialGradient>
    <radialGradient id="shape_23_fill" cx="0.6454005934718101" cy="0.1412556053811659" r="0.06617211022079875">
      <stop offset="0.0" stop-color="rgb(46, 38, 13)" stop-opacity="1.0"/>
      <stop offset="1.0" stop-color="rgb(54, 27, 0)" stop-opacity="0.8861536979675293"/>
    </radialGradient>
    <radialGradient id="shape_24_fill" cx="0.2492550586734398" cy="0.4843076355254169" r="0.06616971047059012">
      <stop offset="0.0" stop-color="rgb(205, 213, 206)" stop-opacity="1.0"/>
      <stop offset="0.92454517" stop-color="rgb(255, 255, 255)" stop-opacity="0.3281245529651642"/>
    </radialGradient>
    <radialGradient id="shape_25_fill" cx="0.6320474777448071" cy="0.9977578475336323" r="0.06617211022079875">
      <stop offset="0.0" stop-color="rgb(35, 28, 8)" stop-opacity="1.0"/>
      <stop offset="1.0" stop-color="rgb(39, 14, 0)" stop-opacity="0.7962974309921265"/>
    </radialGradient>
    <radialGradient id="shape_26_fill" cx="0.15414520399506793" cy="0.3207086811151205" r="0.06604698362265567">
      <stop offset="0.11989566" stop-color="rgb(198, 211, 155)" stop-opacity="1.0"/>
      <stop offset="0.58338004" stop-color="rgb(167, 144, 111)" stop-opacity="0.3617112934589386"/>
    </radialGradient>
    <radialGradient id="shape_27_fill" cx="0.15410647972401242" cy="0.3208032787648017" r="0.06604505929465818">
      <stop offset="0.0" stop-color="rgb(192, 205, 0)" stop-opacity="1.0"/>
      <stop offset="0.49375948" stop-color="rgb(40, 32, 20)" stop-opacity="0.4469369649887085"/>
    </radialGradient>
    <radialGradient id="shape_28_fill" cx="0.033785053106019335" cy="0.015117509482687363" r="0.07281157949204262">
      <stop offset="0.09757769" stop-color="rgb(8, 19, 111)" stop-opacity="0.9372282028198242"/>
      <stop offset="0.81135345" stop-color="rgb(8, 17, 145)" stop-opacity="0.7113077640533447"/>
    </radialGradient>
    <radialGradient id="shape_29_fill" cx="0.33976258863681147" cy="0.6659192825112108" r="0.06617211022079875">
      <stop offset="0.0" stop-color="rgb(90, 117, 55)" stop-opacity="1.0"/>
      <stop offset="1.0" stop-color="rgb(107, 129, 29)" stop-opacity="0.8677783012390137"/>
    </radialGradient>
    <radialGradient id="shape_30_fill" cx="0.03880051123282322" cy="0.015980551595645102" r="0.06954576848876229">
      <stop offset="0.17622024" stop-color="rgb(50, 70, 76)" stop-opacity="1.0"/>
      <stop offset="0.9338109" stop-color="rgb(65, 64, 0)" stop-opacity="0.49078646302223206"/>
    </radialGradient>
    <radialGradient id="shape_31_fill" cx="0.12314540059347182" cy="0.9977578475336323" r="0.06617211022079875">
      <stop offset="0.0" stop-color="rgb(95, 103, 98)" stop-opacity="1.0"/>
      <stop offset="1.0" stop-color="rgb(136, 118, 109)" stop-opacity="0.7323426604270935"/>
    </radialGradient>
    <radialGradient id="shape_32_fill" cx="0.4035608308605341" cy="0.984304932735426" r="0.06617211022079875">
      <stop offset="0.0" stop-color="rgb(126, 155, 63)" stop-opacity="1.0"/>
      <stop offset="1.0" stop-color="rgb(89, 59, 6)" stop-opacity="0.5170321464538574"/>
    </radialGradient>
    <radialGradient id="shape_33_fill" cx="0.3249258160237389" cy="0.6053811659192825" r="0.06617211022079875">
      <stop offset="1.5749225e-05" stop-color="rgb(93, 124, 71)" stop-opacity="0.999808132648468"/>
      <stop offset="1.0" stop-color="rgb(123, 139, 58)" stop-opacity="1.0"/>
    </radialGradient>
    <radialGradient id="shape_34_fill" cx="0.6468842729970327" cy="0.531390134529148" r="0.06617211022079875">
      <stop offset="0.0" stop-color="rgb(54, 47, 24)" stop-opacity="1.0"/>
      <stop offset="1.0" stop-color="rgb(43, 6, 34)" stop-opacity="0.3726210594177246"/>
    </radialGradient>
    <radialGradient id="shape_35_fill" cx="0.1509467331521235" cy="0.23770213447878713" r="0.06654745605649863">
      <stop offset="0.11896284" stop-color="rgb(210, 255, 96)" stop-opacity="0.13353371620178223"/>
      <stop offset="0.52742285" stop-color="rgb(104, 69, 66)" stop-opacity="0.8715328574180603"/>
    </radialGradient>
    <radialGradient id="shape_36_fill" cx="0.2878338278931751" cy="0.9977578475336323" r="0.06617211022079875">
      <stop offset="0.0" stop-color="rgb(80, 96, 53)" stop-opacity="1.0"/>
      <stop offset="1.0" stop-color="rgb(21, 15, 0)" stop-opacity="0.7786373496055603"/>
    </radialGradient>
    <radialGradient id="shape_37_fill" cx="0.129080118694362" cy="0.9977578475336323" r="0.06617211022079875">
      <stop offset="0.0" stop-color="rgb(87, 97, 81)" stop-opacity="1.0"/>
      <stop offset="1.0" stop-color="rgb(62, 62, 57)" stop-opacity="0.5985977649688721"/>
    </radialGradient>
    <radialGradient id="shape_38_fill" cx="0.33892324204260943" cy="0.5607740119968294" r="0.0666785763703751">
      <stop offset="0.7501433" stop-color="rgb(87, 107, 29)" stop-opacity="0.9267972111701965"/>
      <stop offset="0.6022492" stop-color="rgb(164, 245, 78)" stop-opacity="0.8708664178848267"/>
    </radialGradient>
    <radialGradient id="shape_39_fill" cx="0.40059347181008903" cy="0.9641255605381166" r="0.06617211022079875">
      <stop offset="0.0" stop-color="rgb(138, 168, 60)" stop-opacity="1.0"/>
      <stop offset="1.0" stop-color="rgb(222, 255, 85)" stop-opacity="0.8204653859138489"/>
    </radialGradient>
    <radialGradient id="shape_40_fill" cx="0.6102786191493185" cy="0.8745188349565582" r="0.07235628914762321">
      <stop offset="0.36510932" stop-color="rgb(161, 143, 172)" stop-opacity="0.2632005512714386"/>
      <stop offset="0.5298604" stop-color="rgb(2, 6, 58)" stop-opacity="0.7687276005744934"/>
    </radialGradient>
    <radialGradient id="shape_41_fill" cx="0.6454005934718101" cy="0.08744394618834081" r="0.06617211022079875">
      <stop offset="0.0" stop-color="rgb(58, 48, 21)" stop-opacity="1.0"/>
      <stop offset="1.0" stop-color="rgb(92, 60, 24)" stop-opacity="1.0"/>
    </radialGradient>
    <radialGradient id="shape_42_fill" cx="0.5845697329376854" cy="0.6188340807174888" r="0.06617211022079875">
      <stop offset="0.0" stop-color="rgb(62, 59, 56)" stop-opacity="1.0"/>
      <stop offset="1.0" stop-color="rgb(44, 35, 79)" stop-opacity="0.6470098495483398"/>
    </radialGradient>
    <radialGradient id="shape_43_fill" cx="0.3543421804728069" cy="0.5017322831089721" r="0.07025546631402714">
      <stop offset="0.2437281" stop-color="rgb(120, 149, 54)" stop-opacity="0.9225268959999084"/>
      <stop offset="0.61778694" stop-color="rgb(201, 251, 22)" stop-opacity="0.725873589515686"/>
    </radialGradient>
    <radialGradient id="shape_44_fill" cx="0.5934718100890207" cy="0.9977578475336323" r="0.06617211022079875">
      <stop offset="0.0" stop-color="rgb(89, 61, 18)" stop-opacity="1.0"/>
      <stop offset="1.0" stop-color="rgb(165, 76, 6)" stop-opacity="0.6853876113891602"/>
    </radialGradient>
    <radialGradient id="shape_45_fill" cx="0.612759643916914" cy="0.04035874439461883" r="0.06617211022079875">
      <stop offset="0.0" stop-color="rgb(157, 136, 123)" stop-opacity="1.0"/>
      <stop offset="1.0" stop-color="rgb(255, 215, 203)" stop-opacity="1.0"/>
    </radialGradient>
    <radialGradient id="shape_46_fill" cx="0.28635014836795253" cy="0.9977578475336323" r="0.06617211022079875">
      <stop offset="0.0" stop-color="rgb(82, 99, 55)" stop-opacity="1.0"/>
      <stop offset="1.0" stop-color="rgb(90, 93, 31)" stop-opacity="0.5642126202583313"/>
    </radialGradient>
    <radialGradient id="shape_47_fill" cx="0.28635014836795253" cy="0.8183856502242153" r="0.06617211022079875">
      <stop offset="0.0" stop-color="rgb(166, 189, 197)" stop-opacity="1.0"/>
      <stop offset="1.0" stop-color="rgb(242, 255, 255)" stop-opacity="0.44189462065696716"/>
    </radialGradient>
    <radialGradient id="shape_48_fill" cx="0.40801186943620177" cy="0.9977578475336323" r="0.06617211022079875">
      <stop offset="0.0" stop-color="rgb(107, 135, 68)" stop-opacity="1.0"/>
      <stop offset="1.0" stop-color="rgb(126, 134, 56)" stop-opacity="1.0"/>
    </radialGradient>
    <radialGradient id="shape_49_fill" cx="0.19287833827893175" cy="0.3991031390134529" r="0.06617211022079875">
      <stop offset="0.0" stop-color="rgb(92, 100, 54)" stop-opacity="1.0"/>
      <stop offset="1.0" stop-color="rgb(51, 19, 0)" stop-opacity="0.5052407383918762"/>
    </radialGradient>
    <radialGradient id="shape_50_fill" cx="0.6439169139465876" cy="0.7376681614349776" r="0.06617211022079875">
      <stop offset="0.0" stop-color="rgb(65, 56, 25)" stop-opacity="1.0"/>
      <stop offset="1.0" stop-color="rgb(148, 167, 84)" stop-opacity="0.34555917978286743"/>
    </radialGradient>
    <radialGradient id="shape_51_fill" cx="0.5845697329376854" cy="0.6322869955156951" r="0.06617211022079875">
      <stop offset="0.0" stop-color="rgb(75, 68, 60)" stop-opacity="1.0"/>
      <stop offset="1.0" stop-color="rgb(190, 138, 109)" stop-opacity="0.44054633378982544"/>
    </radialGradient>
    <radialGradient id="shape_52_fill" cx="0.2997032640949555" cy="0.6031390134529148" r="0.06617211022079875">
      <stop offset="0.0" stop-color="rgb(107, 158, 118)" stop-opacity="1.0"/>
      <stop offset="1.0" stop-color="rgb(171, 255, 209)" stop-opacity="0.5741069912910461"/>
    </radialGradient>
    <radialGradient id="shape_53_fill" cx="0.6097922848664689" cy="0.45067264573991034" r="0.06617211022079875">
      <stop offset="0.0" stop-color="rgb(38, 39, 27)" stop-opacity="1.0"/>
      <stop offset="1.0" stop-color="rgb(16, 6, 65)" stop-opacity="0.3270844519138336"/>
    </radialGradient>
    <radialGradient id="shape_54_fill" cx="0.6335311572700296" cy="0.426009002822397" r="0.06617211022079875">
      <stop offset="0.0" stop-color="rgb(67, 49, 20)" stop-opacity="1.0"/>
      <stop offset="1.0" stop-color="rgb(178, 92, 37)" stop-opacity="0.4364931285381317"/>
    </radialGradient>
    <radialGradient id="shape_55_fill" cx="0.3707168533823257" cy="0.5988430827187851" r="0.066001377049115">
      <stop offset="0.43605936" stop-color="rgb(244, 255, 55)" stop-opacity="0.8411719799041748"/>
      <stop offset="0.16089156" stop-color="rgb(233, 255, 34)" stop-opacity="0.7828226685523987"/>
    </radialGradient>
    <radialGradient id="shape_56_fill" cx="0.5489614243323442" cy="0.600896860986547" r="0.06617211022079875">
      <stop offset="0.0" stop-color="rgb(50, 62, 80)" stop-opacity="1.0"/>
      <stop offset="1.0" stop-color="rgb(34, 90, 255)" stop-opacity="0.4417208731174469"/>
    </radialGradient>
    <radialGradient id="shape_57_fill" cx="0.4094955489614243" cy="0.9035874439461884" r="0.06617211022079875">
      <stop offset="0.0" stop-color="rgb(111, 144, 47)" stop-opacity="1.0"/>
      <stop offset="1.0" stop-color="rgb(213, 255, 64)" stop-opacity="0.7697861790657043"/>
    </radialGradient>
    <radialGradient id="shape_58_fill" cx="0.5281899109792285" cy="0.9977578475336323" r="0.06617211022079875">
      <stop offset="0.0" stop-color="rgb(50, 43, 14)" stop-opacity="1.0"/>
      <stop offset="1.0" stop-color="rgb(86, 58, 17)" stop-opacity="1.0"/>
    </radialGradient>
    <radialGradient id="shape_59_fill" cx="0.5845697329376854" cy="0.7690582959641256" r="0.06617211022079875">
      <stop offset="0.0" stop-color="rgb(61, 63, 58)" stop-opacity="1.0"/>
      <stop offset="1.0" stop-color="rgb(79, 69, 90)" stop-opacity="0.710885226726532"/>
    </radialGradient>
    <radialGradient id="shape_60_fill" cx="0.5489614243323442" cy="0.9977578475336323" r="0.06617211022079875">
      <stop offset="0.0" stop-color="rgb(140, 131, 64)" stop-opacity="1.0"/>
      <stop offset="1.0" stop-color="rgb(229, 195, 92)" stop-opacity="0.8732603788375854"/>
    </radialGradient>
    <radialGradient id="shape_61_fill" cx="0.6469716601272719" cy="0.96866973740103" r="0.06610439651443979">
      <stop offset="0.463088" stop-color="rgb(243, 187, 61)" stop-opacity="0.9341874122619629"/>
      <stop offset="0.21278743" stop-color="rgb(149, 71, 77)" stop-opacity="0.4370817244052887"/>
    </radialGradient>
    <radialGradient id="shape_62_fill" cx="0.615727002967359" cy="0.3991031390134529" r="0.06617211022079875">
      <stop offset="0.0" stop-color="rgb(55, 47, 13)" stop-opacity="1.0"/>
      <stop offset="1.0" stop-color="rgb(82, 52, 6)" stop-opacity="0.8703582286834717"/>
    </radialGradient>
    <radialGradient id="shape_63_fill" cx="0.6261127596439169" cy="0.7286995515695067" r="0.06617211022079875">
      <stop offset="0.0" stop-color="rgb(79, 66, 32)" stop-opacity="1.0"/>
      <stop offset="1.0" stop-color="rgb(199, 188, 93)" stop-opacity="0.5067431926727295"/>
    </radialGradient>
    <radialGradient id="shape_64_fill" cx="0.40801186943620177" cy="0.12556053811659193" r="0.06617211022079875">
      <stop offset="0.0" stop-color="rgb(76, 66, 59)" stop-opacity="1.0"/>
      <stop offset="1.0" stop-color="rgb(156, 121, 123)" stop-opacity="1.0"/>
    </radialGradient>
    <radialGradient id="shape_65_fill" cx="0.6528189910979229" cy="0.6883408071748879" r="0.06617211022079875">
      <stop offset="0.0" stop-color="rgb(121, 97, 39)" stop-opacity="1.0"/>
      <stop offset="1.0" stop-color="rgb(255, 218, 92)" stop-opacity="1.0"/>
    </radialGradient>
    <radialGradient id="shape_66_fill" cx="0.6521587881207113" cy="0.4576696216258233" r="0.07074826407503304">
      <stop offset="0.2571935" stop-color="rgb(183, 213, 115)" stop-opacity="0.2963176965713501"/>
      <stop offset="0.7620601" stop-color="rgb(0, 16, 0)" stop-opacity="0.05325908213853836"/>
    </radialGradient>
    <radialGradient id="shape_67_fill" cx="0.5978298923028329" cy="0.9948418450462444" r="0.07090959633847019">
      <stop offset="0.83686787" stop-color="rgb(49, 27, 0)" stop-opacity="0.62153559923172"/>
      <stop offset="1.0" stop-color="rgb(0, 25, 0)" stop-opacity="0.1529843807220459"/>
    </radialGradient>
    <radialGradient id="shape_68_fill" cx="0.49253292819512706" cy="0.9979090669229961" r="0.06861355042952812">
      <stop offset="0.3940557" stop-color="rgb(41, 13, 0)" stop-opacity="0.43285876512527466"/>
      <stop offset="1.0" stop-color="rgb(28, 64, 52)" stop-opacity="0.17835041880607605"/>
    </radialGradient>
  </defs>
  <g>
    <path d="M 0.024283992126584053 271.35296630859375 C 16.200246810913086 255.77171325683594 47.40247344970703 257.87567138671875 46.78801727294922 270.97369384765625 C 48.291015625 272.9037170410156 49.32619857788086 276.1834716796875 57.169490814208984 274.6509094238281 C 57.48014450073242 273.89410400390625 61.996917724609375 273.40911865234375 62.46175765991211 268.99603271484375 C 68.33124542236328 267.8146057128906 100.54856872558594 269.090087890625 116.72740936279297 269.4119873046875 C 119.40005493164062 271.6849670410156 125.10746765136719 278.2490234375 126.5964126586914 282.3408203125 C 134.7621612548828 282.79815673828125 147.62374877929688 280.64703369140625 174.81341552734375 290.7357482910156 C 185.3150177001953 283.1268615722656 186.05125427246094 281.3700866699219 206.7414093017578 287.1551818847656 C 200.58912658691406 286.892333984375 198.38446044921875 280.91705322265625 211.0636749267578 267.8211364746094 C 249.97506713867188 264.977294921875 293.99652099609375 262.72662353515625 311.33599853515625 272.6206359863281 C 348.8517761230469 274.0726318359375 424.3442077636719 274.68695068359375 480.40753173828125 263.2542724609375 C 511.9843444824219 258.059326171875 548.8656616210938 259.16204833984375 548.426025390625 273.8884582519531 C 547.043212890625 273.8174743652344 547.129638671875 262.555908203125 578.3925170898438 262.65362548828125 C 597.4529418945312 266.97979736328125 612.24365234375 279.1098327636719 612.43603515625 279.91082763671875 C 612.0458374023438 265.6981506347656 624.0661010742188 265.3266296386719 673.41748046875 265.716796875 C 676.7781982421875 272.28887939453125 679.37158203125 278.8263854980469 678.4677124023438 284.9035339355469 C 676.6203002929688 339.5304870605469 674.7125244140625 391.48663330078125 675.1177368164062 446.4668273925781 C 451.9151306152344 446.6697692871094 228.9889373779297 446.8115539550781 -0.4355667531490326 446.4240417480469 C -0.5169200897216797 389.140869140625 -0.7502456903457642 332.2722473144531 0.024283992126584053 271.35296630859375" stroke-width="0.0" fill="url(#shape_0_fill)"/>
    <path d="M -0.28251174092292786 271.0260925292969 C 35.93415069580078 275.3902282714844 36.5576057434082 274.58306884765625 44.00699996948242 273.1938781738281 C 44.613250732421875 265.94805908203125 58.32326889038086 265.6841125488281 81.0513916015625 266.4348449707031 C 113.7310791015625 278.67987060546875 114.0862045288086 279.3109130859375 128.3272705078125 279.15545654296875 C 127.67486572265625 269.855224609375 135.21255493164062 269.2928771972656 144.8215789794922 269.5914306640625 C 185.24859619140625 268.79248046875 186.1140594482422 268.89599609375 205.80052185058594 271.8230285644531 C 203.694580078125 292.15509033203125 204.4005126953125 292.3197937011719 208.7191925048828 298.90228271484375 C 213.71900939941406 298.18359375 268.0708923339844 298.6387939453125 292.726318359375 301.1475830078125 C 305.632568359375 306.88604736328125 441.1372985839844 303.9102783203125 460.081787109375 304.5890808105469 C 474.1762390136719 292.9987487792969 492.83697509765625 293.0273742675781 504.5523986816406 286.91680908203125 C 516.1981201171875 289.3849792480469 521.2887573242188 286.8627014160156 523.2509765625 286.61492919921875 C 527.3822631835938 285.7596130371094 531.6876831054688 286.02008056640625 534.0455322265625 287.2464294433594 C 538.80419921875 287.56829833984375 540.3336791992188 288.8982849121094 540.0056762695312 310.8037414550781 C 579.6692504882812 292.0827941894531 581.6356201171875 292.62823486328125 601.4478149414062 299.1073303222656 C 620.3056030273438 289.3875427246094 629.5889892578125 288.2005615234375 634.222900390625 288.49322509765625 C 636.3750610351562 274.2901306152344 653.8068237304688 275.84210205078125 673.6619262695312 294.0321350097656 C 674.4498291015625 339.7959289550781 674.516357421875 392.06201171875 674.1581420898438 446.2807922363281 C 451.4774169921875 446.3905334472656 229.19664001464844 446.25439453125 -0.30765825510025024 446.2476501464844 C -0.21093088388442993 389.403564453125 -0.31001991033554077 333.0142822265625 -0.28251174092292786 271.0260925292969" stroke-width="0.0" fill="url(#shape_1_fill)"/>
    <path d="M -0.019932541996240616 -0.25989267230033875 C 219.69313049316406 0.1040392518043518 439.478759765625 -0.45242562890052795 674.4846801757812 -0.03510483726859093 C 665.827880859375 10.644752502441406 644.895751953125 34.78003692626953 637.2293701171875 49.62815475463867 C 634.4031372070312 53.02709197998047 611.9773559570312 91.79678344726562 583.9733276367188 83.82127380371094 C 577.0448608398438 81.23725128173828 564.49169921875 72.1653823852539 532.3807983398438 74.34412384033203 C 531.880126953125 79.42041015625 527.953369140625 80.3328857421875 522.067626953125 72.03176879882812 C 522.6986694335938 68.93136596679688 499.3319091796875 63.91245651245117 498.9507141113281 62.59146499633789 C 493.2836608886719 62.26900863647461 486.16229248046875 61.107521057128906 484.36065673828125 68.82801055908203 C 475.2655944824219 72.87459564208984 476.3058776855469 76.1138916015625 476.64984130859375 81.0147705078125 C 483.1986083984375 100.54059600830078 480.32928466796875 120.13607788085938 480.6916198730469 123.0206298828125 C 460.31402587890625 116.81202697753906 459.2757263183594 114.93762969970703 450.9078674316406 108.51680755615234 C 435.37750244140625 107.45549011230469 411.7741394042969 101.6327896118164 409.32073974609375 105.53104400634766 C 412.9649658203125 121.9151382446289 419.5736389160156 129.06065368652344 413.32940673828125 139.39974975585938 C 410.9542236328125 152.73019409179688 394.55029296875 152.21829223632812 394.6054992675781 135.49313354492188 C 383.037353515625 139.94061279296875 381.80682373046875 158.24607849121094 370.4962158203125 157.81275939941406 C 366.16650390625 156.58462524414062 363.2052001953125 158.64610290527344 354.10003662109375 158.4595184326172 C 348.2096862792969 163.6729736328125 345.5934143066406 165.3715362548828 347.65667724609375 171.44595336914062 C 343.6003112792969 177.19766235351562 341.73309326171875 176.08590698242188 351.1448974609375 160.07066345214844 C 292.98468017578125 155.66830444335938 292.3699951171875 162.0955047607422 290.938232421875 171.36489868164062 C 306.1925354003906 185.61801147460938 304.1334533691406 189.2833709716797 307.50787353515625 201.3976593017578 C 307.5548400878906 200.60740661621094 306.38885498046875 198.13742065429688 304.8390808105469 190.17442321777344 C 304.07781982421875 185.69471740722656 302.765380859375 184.4815673828125 291.2251281738281 171.12327575683594 C 289.8650817871094 194.55117797851562 288.9749450683594 195.96055603027344 289.3851623535156 196.3025360107422 C 289.3421630859375 189.91648864746094 291.6413269042969 181.70852661132812 290.64697265625 166.05169677734375 C 270.3446960449219 168.785888671875 265.8458557128906 175.70872497558594 262.0476379394531 173.273193359375 C 256.346923828125 184.15562438964844 255.92352294921875 189.39004516601562 254.73236083984375 197.10658264160156 C 260.660888671875 199.2753143310547 260.4581604003906 199.87074279785156 258.0367431640625 199.59072875976562 C 257.0847473144531 198.55606079101562 253.95167541503906 196.50140380859375 255.44346618652344 193.8518829345703 C 255.78207397460938 181.3822784423828 262.4054260253906 179.6649932861328 263.3774719238281 161.86053466796875 C 262.1378173828125 157.69287109375 215.69561767578125 143.63670349121094 212.30633544921875 142.53036499023438 C 187.21762084960938 134.8719940185547 195.4440155029297 106.28085327148438 191.2386016845703 86.30559539794922 C 190.8240203857422 84.63978576660156 162.81321716308594 74.45088195800781 128.71798706054688 57.810272216796875 C 100.20539093017578 38.780704498291016 76.19921875 58.8975944519043 47.33252716064453 57.316490173339844 C 29.920391082763672 70.48505401611328 1.7028621435165405 69.9338607788086 -0.8828898668289185 69.44650268554688 C 0.34183040261268616 43.958133697509766 -0.3314551115036011 22.56187629699707 -0.019932541996240616 -0.25989267230033875" stroke-width="0.0" fill="url(#shape_2_fill)"/>
    <path d="M 87.2420883178711 58.05308151245117 C 88.87259674072266 68.81963348388672 91.72172546386719 68.98403930664062 93.81693267822266 71.9764633178711 C 89.88441467285156 80.06183624267578 93.09794616699219 81.72553253173828 89.00469970703125 94.23270416259766 C 95.79786682128906 85.83375549316406 98.14312744140625 86.50344848632812 102.8460693359375 87.82537078857422 C 105.10137939453125 75.12896728515625 105.60099029541016 73.24688720703125 108.17965698242188 73.62041473388672 C 112.74461364746094 86.72940826416016 109.74852752685547 92.23554229736328 117.55717468261719 98.67208099365234 C 115.88780975341797 100.03469848632812 116.92253112792969 109.49701690673828 115.4145736694336 115.08120727539062 C 120.76504516601562 115.32115936279297 128.10507202148438 116.27738952636719 129.7866668701172 112.06355285644531 C 131.13726806640625 111.13030242919922 136.96017456054688 109.6939926147461 136.80938720703125 105.04075622558594 C 136.6968536376953 103.71080017089844 135.5998992919922 101.91722106933594 138.06893920898438 99.98040008544922 C 136.56103515625 93.28627014160156 137.60882568359375 92.93883514404297 137.76840209960938 89.97473907470703 C 137.3488006591797 85.52223205566406 138.53721618652344 85.06963348388672 140.18984985351562 89.17222595214844 C 140.79678344726562 83.34989929199219 146.7451171875 80.1606216430664 148.54811096191406 79.63951110839844 C 148.15476989746094 93.29179382324219 149.6130828857422 94.55351257324219 152.51412963867188 99.65269470214844 C 153.98326110839844 102.57061004638672 149.8516387939453 106.83848571777344 148.8846893310547 106.78006744384766 C 152.31629943847656 109.4401626586914 150.00514221191406 113.92790985107422 148.18617248535156 113.19161987304688 C 154.1400909423828 112.93891906738281 158.18675231933594 122.59603118896484 157.00308227539062 123.39350128173828 C 160.81341552734375 124.80325317382812 164.762451171875 123.42461395263672 169.71974182128906 122.83914947509766 C 174.39886474609375 119.73539733886719 175.7897491455078 121.50828552246094 177.61065673828125 122.46880340576172 C 179.31045532226562 122.73228454589844 180.11154174804688 124.95690155029297 183.68609619140625 127.18726348876953 C 183.93003845214844 130.0321502685547 182.69180297851562 132.72706604003906 185.9096221923828 134.39044189453125 C 188.8189697265625 135.48013305664062 190.1307373046875 137.369873046875 187.52023315429688 143.90354919433594 C 197.4986572265625 148.82131958007812 208.8879852294922 153.46363830566406 201.5997314453125 172.69107055664062 C 205.63189697265625 177.15798950195312 206.4363250732422 179.4158935546875 205.28155517578125 181.564697265625 C 213.78843688964844 180.96678161621094 215.1122589111328 193.0179901123047 212.76358032226562 201.04638671875 C 204.3800811767578 205.8363037109375 202.87789916992188 206.0879669189453 203.4970245361328 210.1010284423828 C 200.40530395507812 210.3978729248047 200.39215087890625 211.83642578125 198.8115692138672 212.9573211669922 C 196.49227905273438 215.5091552734375 192.82681274414062 215.255615234375 192.18067932128906 219.6781463623047 C 184.29656982421875 220.5816192626953 183.66131591796875 224.77639770507812 178.19664001464844 230.1369171142578 C 176.4254150390625 233.4008331298828 181.69088745117188 237.78060913085938 181.43771362304688 238.33270263671875 C 181.7329559326172 251.90359497070312 185.6571807861328 260.7742004394531 179.82061767578125 264.14947509765625 C 169.05276489257812 270.2484436035156 148.53482055664062 267.5094909667969 136.17848205566406 269.5818176269531 C 131.4579620361328 268.8327941894531 128.951416015625 272.2731018066406 122.86022186279297 275.4738464355469 C 109.16226959228516 276.5994873046875 73.34835052490234 275.8756103515625 72.98619079589844 270.13031005859375 C 47.76225280761719 266.80230712890625 56.60169219970703 268.5919189453125 58.29755401611328 273.3397216796875 C 48.75783920288086 276.6732177734375 1.063064694404602 272.6830749511719 0.7629063725471497 269.89300537109375 C -6.5526442527771 226.07421875 -4.724149227142334 168.15536499023438 1.9725024700164795 122.28984069824219 C 10.429394721984863 117.72898864746094 21.309974670410156 113.96956634521484 26.301616668701172 121.86512756347656 C 27.58317756652832 130.0986785888672 35.863319396972656 129.078125 42.11598587036133 131.93536376953125 C 46.131465911865234 130.35067749023438 47.38182830810547 131.3769073486328 49.680728912353516 142.21612548828125 C 50.74995422363281 149.4826202392578 61.0102653503418 148.50830078125 62.687068939208984 146.29281616210938 C 62.14509582519531 136.9913787841797 63.187068939208984 134.13710021972656 62.058589935302734 128.23397827148438 C 68.22149658203125 126.60286712646484 67.62908172607422 124.43440246582031 66.33907318115234 112.70179748535156 C 68.7852783203125 111.1499252319336 67.96061706542969 103.66949462890625 75.3840560913086 100.80264282226562 C 74.9296875 100.49420166015625 77.7125244140625 89.84130859375 77.3638916015625 85.95033264160156 C 77.29878234863281 82.9712142944336 77.46281433105469 75.24735260009766 85.25143432617188 75.3597412109375 C 83.16075134277344 70.26712036132812 82.66021728515625 67.55145263671875 87.2420883178711 58.05308151245117" stroke-width="0.0" fill="url(#shape_3_fill)"/>
    <path d="M 673.9555053710938 -0.5242809057235718 C 676.1180419921875 47.82487869262695 675.0172119140625 95.90823364257812 682.0631103515625 136.34661865234375 C 679.1004028320312 119.35511779785156 673.6099243164062 119.8135986328125 662.1237182617188 120.05995178222656 C 660.1458129882812 119.53378295898438 654.6005249023438 109.60570526123047 650.2916870117188 110.9605484008789 C 648.9968872070312 112.55443572998047 645.0863647460938 150.38189697265625 642.9334716796875 155.67555236816406 C 629.8826904296875 154.87203979492188 627.16064453125 142.68515014648438 626.9835815429688 138.4803924560547 C 623.0153198242188 137.45204162597656 619.228759765625 145.4387969970703 615.4092407226562 144.49436950683594 C 611.6814575195312 142.30929565429688 610.1649169921875 143.31410217285156 607.8049926757812 141.0099639892578 C 608.903076171875 136.93321228027344 613.8121948242188 132.2065887451172 603.05078125 113.32115936279297 C 599.3611450195312 135.67666625976562 597.800537109375 139.5810546875 593.2077026367188 142.56202697753906 C 599.0711059570312 145.8678436279297 598.3601684570312 151.43692016601562 597.4729614257812 152.7115936279297 C 587.6185302734375 157.60787963867188 588.5070190429688 164.71990966796875 578.1854858398438 172.6273651123047 C 572.3233032226562 170.18276977539062 569.660888671875 157.78607177734375 568.6091918945312 157.0518035888672 C 565.1632690429688 158.3762969970703 563.5814819335938 154.38613891601562 561.9635009765625 148.31756591796875 C 560.049560546875 151.1125946044922 556.7326049804688 151.18734741210938 555.4873046875 155.45021057128906 C 552.3787841796875 155.8693084716797 550.8119506835938 158.01678466796875 548.9899291992188 158.30259704589844 C 547.8025512695312 154.93775939941406 544.74951171875 154.7954864501953 535.8994140625 152.67271423339844 C 531.8516235351562 154.9365234375 529.8936767578125 159.37399291992188 523.14453125 156.9701385498047 C 519.2498168945312 160.525390625 520.3295288085938 162.15167236328125 522.8394165039062 168.94569396972656 C 517.6307373046875 168.49771118164062 517.3275146484375 171.08200073242188 516.2450561523438 171.6158905029297 C 511.2713623046875 173.32232666015625 509.8157043457031 175.26531982421875 505.6463623046875 174.399169921875 C 502.7349548339844 171.41648864746094 503.0679931640625 169.50408935546875 502.96917724609375 159.3120574951172 C 489.1683654785156 143.3327178955078 503.9112243652344 118.76251983642578 515.6943969726562 125.08306121826172 C 524.3671875 125.67825317382812 542.6342163085938 108.83162689208984 548.7935791015625 112.88262939453125 C 557.1390991210938 110.739013671875 557.051025390625 109.40815734863281 558.5289306640625 108.9388427734375 C 559.5509643554688 107.30829620361328 564.7477416992188 103.3684310913086 570.06201171875 105.05802154541016 C 574.6734619140625 102.43585968017578 573.592529296875 97.73605346679688 579.05126953125 93.86470794677734 C 588.594482421875 87.99302673339844 591.083984375 78.11251068115234 612.399658203125 78.50285339355469 C 616.9055786132812 73.60437774658203 644.3170166015625 51.277442932128906 645.9652099609375 35.34039306640625 C 644.8729858398438 32.39195251464844 647.963134765625 30.373577117919922 647.4432983398438 29.452951431274414 C 646.88427734375 28.28278923034668 664.1324462890625 -4.284664630889893 673.9555053710938 -0.5242809057235718" stroke-width="0.0" fill="url(#shape_4_fill)"/>
    <path d="M 151.4769744873047 68.65160369873047 C 152.3045196533203 69.08963775634766 186.16944885253906 84.90943908691406 192.70236206054688 91.52643585205078 C 179.45396423339844 118.07363891601562 217.83128356933594 149.9313201904297 221.2451171875 154.55731201171875 C 240.3766632080078 168.50929260253906 242.28189086914062 183.4932098388672 240.6297607421875 193.8566436767578 C 237.98667907714844 193.20803833007812 236.08396911621094 186.8170928955078 236.77261352539062 184.0658721923828 C 235.68911743164062 183.5215301513672 234.15396118164062 184.3143768310547 231.0490264892578 182.66648864746094 C 231.9042205810547 184.5716552734375 232.19830322265625 192.95314025878906 228.65785217285156 195.6684112548828 C 227.64410400390625 196.6387481689453 227.69998168945312 205.24534606933594 221.09292602539062 207.64427185058594 C 215.08087158203125 206.57505798339844 214.2761688232422 197.8726043701172 214.56883239746094 195.02279663085938 C 212.95436096191406 185.4495086669922 211.8924102783203 184.95950317382812 206.59027099609375 177.40438842773438 C 205.7940673828125 172.66836547851562 206.242431640625 168.29513549804688 204.2281951904297 159.4951171875 C 205.65234375 153.8561553955078 194.89627075195312 144.60337829589844 193.5924835205078 141.0620574951172 C 189.2515106201172 139.85769653320312 189.12399291992188 136.02886962890625 186.68544006347656 135.9066619873047 C 177.5676727294922 134.12124633789062 178.41897583007812 127.67372131347656 183.4969940185547 117.19348907470703 C 179.39102172851562 116.40524291992188 177.4012451171875 117.66928100585938 172.9543914794922 117.7614974975586 C 178.96585083007812 128.08250427246094 177.32611083984375 131.17050170898438 152.31358337402344 130.2938232421875 C 148.8671112060547 129.33975219726562 152.31300354003906 102.60592651367188 154.40951538085938 92.45073699951172 C 152.53781127929688 91.97189331054688 153.21934509277344 88.12821960449219 150.3812255859375 76.22974395751953 C 147.93997192382812 75.88895416259766 147.95770263671875 69.1839828491211 151.4769744873047 68.65160369873047" stroke-width="0.0" fill="url(#shape_5_fill)"/>
    <path d="M 614.5863647460938 79.0790023803711 C 618.7623291015625 83.86497497558594 620.4228515625 86.99564361572266 632.7122802734375 86.13007354736328 C 635.9852905273438 86.26483917236328 636.9578247070312 88.7315673828125 641.1536865234375 89.24958038330078 C 642.188720703125 86.67803955078125 665.2197875976562 92.5071792602539 675.02734375 98.19672393798828 C 675.4066162109375 110.61923217773438 674.7958984375 125.90557098388672 674.7146606445312 151.76417541503906 C 665.711181640625 142.75730895996094 662.6759643554688 136.7406463623047 660.36767578125 132.11146545410156 C 660.4034423828125 123.74089813232422 660.9368896484375 118.02497863769531 653.8271484375 112.31009674072266 C 642.5400390625 113.80868530273438 643.766845703125 142.23062133789062 643.0013427734375 142.8581085205078 C 644.38037109375 144.4108123779297 642.3786010742188 148.1634521484375 644.5527954101562 149.9132080078125 C 640.1387939453125 151.01763916015625 637.9328002929688 152.7545166015625 634.6445922851562 153.44583129882812 C 631.8067626953125 146.12586975097656 629.169921875 141.39744567871094 630.0252075195312 140.55807495117188 C 628.6492919921875 137.08999633789062 622.3145141601562 136.4721221923828 621.2015380859375 139.10276794433594 C 618.7218627929688 140.70352172851562 619.2720947265625 142.51498413085938 618.4090576171875 149.54547119140625 C 613.4263305664062 144.76817321777344 613.059814453125 143.2332763671875 609.369384765625 143.69903564453125 C 608.4541015625 140.40721130371094 609.51123046875 139.2407684326172 608.7164916992188 137.3983917236328 C 606.275634765625 132.78952026367188 604.4907836914062 127.3848876953125 600.858154296875 127.77408599853516 C 606.2269897460938 133.7749786376953 595.5564575195312 148.36070251464844 592.5473022460938 152.52389526367188 C 590.5098266601562 163.74905395507812 588.80126953125 163.87461853027344 585.9954833984375 169.07196044921875 C 584.5335693359375 167.56044006347656 584.1660766601562 167.27706909179688 589.3452758789062 153.51956176757812 C 593.392578125 141.27000427246094 590.1275634765625 139.61854553222656 574.8746337890625 129.94036865234375 C 573.935791015625 157.74156188964844 557.5073852539062 157.47317504882812 555.9639892578125 151.1002960205078 C 555.7893676757812 152.86245727539062 553.06298828125 154.69532775878906 553.0081787109375 157.87466430664062 C 551.4452514648438 161.29261779785156 548.114501953125 161.1312713623047 547.3466796875 159.342529296875 C 544.4221801757812 156.36866760253906 542.7368774414062 153.69503784179688 538.5621337890625 155.89505004882812 C 536.2738037109375 158.54641723632812 530.9520874023438 157.89361572265625 529.163818359375 158.1833953857422 C 526.6783447265625 159.5784912109375 526.8824462890625 163.51844787597656 525.6138305664062 166.84024047851562 C 524.7127075195312 169.58135986328125 523.6369018554688 171.6105194091797 519.0443115234375 173.05931091308594 C 514.691162109375 173.8742218017578 502.9218444824219 172.89112854003906 481.2616882324219 159.9853973388672 C 478.06585693359375 136.36634826660156 500.3620300292969 119.9734878540039 514.3165893554688 118.314453125 C 528.1160888671875 127.69651794433594 541.6873168945312 108.17259216308594 548.0177612304688 111.63203430175781 C 556.5735473632812 111.33656311035156 563.4692993164062 111.97900390625 564.3486938476562 107.09761810302734 C 564.6278076171875 104.42536926269531 566.4683227539062 103.39839172363281 569.8743286132812 104.7737045288086 C 572.5726318359375 101.07861328125 579.0332641601562 99.76800537109375 587.0952758789062 98.48397064208984 C 600.9476928710938 93.55659484863281 602.9287719726562 79.89456176757812 614.5863647460938 79.0790023803711" stroke-width="0.0" fill="url(#shape_6_fill)"/>
    <path d="M 0.5166181325912476 91.99198150634766 C 42.62930679321289 107.1690673828125 43.76276397705078 118.11663055419922 50.567440032958984 138.83200073242188 C 82.05416870117188 152.948486328125 55.01408004760742 213.392822265625 36.609092712402344 247.8678741455078 C 50.736236572265625 259.32904052734375 49.33949279785156 263.9156799316406 48.383018493652344 265.52178955078125 C 51.248779296875 254.36080932617188 35.61505889892578 247.59336853027344 20.925949096679688 240.3866729736328 C 6.740452289581299 195.1569061279297 -11.870254516601562 177.83407592773438 0.5166181325912476 91.99198150634766" stroke-width="0.0" fill="url(#shape_7_fill)"/>
    <path d="M 384.58026123046875 197.16143798828125 C 424.878173828125 188.6072998046875 426.95477294921875 189.0513458251953 429.78533935546875 204.29920959472656 C 477.28289794921875 188.0904998779297 498.8033447265625 202.31045532226562 491.16314697265625 229.43389892578125 C 490.96942138671875 250.50082397460938 486.31036376953125 251.52249145507812 484.9375 252.49746704101562 C 486.4407653808594 259.1560974121094 482.5059509277344 268.7953796386719 476.46820068359375 268.623779296875 C 469.04364013671875 272.9309387207031 453.2210388183594 266.7112731933594 451.6512451171875 269.7265319824219 C 447.2068176269531 266.29840087890625 448.44097900390625 261.2464599609375 449.22979736328125 260.1854248046875 C 439.29150390625 264.89581298828125 436.5309143066406 261.5368347167969 437.5745544433594 256.7085266113281 C 427.0389709472656 257.00811767578125 425.7115478515625 259.96734619140625 420.9107971191406 262.0394592285156 C 418.50128173828125 264.1861877441406 417.7775573730469 267.77294921875 414.97674560546875 273.8387145996094 C 414.10968017578125 271.4580993652344 392.2064208984375 269.76397705078125 392.51580810546875 264.264892578125 C 391.8121337890625 265.1863708496094 388.8109436035156 263.4814147949219 385.291015625 264.3379821777344 C 382.0907287597656 262.02276611328125 380.80206298828125 263.25067138671875 376.3951110839844 261.24285888671875 C 375.1424560546875 256.4301452636719 375.729736328125 252.8726348876953 370.3662414550781 251.52651977539062 C 360.81817626953125 242.82980346679688 373.9534606933594 194.40377807617188 378.4852600097656 177.02813720703125 C 385.0556945800781 171.70823669433594 394.3190002441406 176.89096069335938 384.58026123046875 197.16143798828125" stroke-width="0.0" fill="url(#shape_8_fill)"/>
    <path d="M 566.5176391601562 157.10118103027344 C 567.9088134765625 158.99508666992188 568.121826171875 166.62057495117188 569.32958984375 168.0170440673828 C 573.4931030273438 169.49615478515625 573.6173706054688 171.06472778320312 577.5345458984375 174.3998565673828 C 581.9307250976562 172.94601440429688 583.9710693359375 174.56983947753906 583.7080688476562 179.472412109375 C 575.3956909179688 180.47535705566406 572.2886352539062 225.61187744140625 577.5464477539062 226.95762634277344 C 577.8884887695312 230.03280639648438 581.6451416015625 236.3690185546875 577.1296997070312 242.4014129638672 C 569.0750122070312 238.5668487548828 566.8944702148438 237.25637817382812 558.5808715820312 247.22044372558594 C 552.9500122070312 249.1466827392578 499.5789489746094 255.29205322265625 485.3105163574219 250.99000549316406 C 486.78680419921875 250.44053649902344 488.5592041015625 241.39718627929688 497.8416442871094 231.47792053222656 C 486.1122741699219 227.01058959960938 483.084228515625 222.5181884765625 482.76373291015625 215.18138122558594 C 477.32501220703125 210.15277099609375 479.87298583984375 205.9586639404297 482.87628173828125 206.19467163085938 C 480.7392578125 205.21896362304688 481.50506591796875 199.3859405517578 492.5599670410156 199.68374633789062 C 492.5761413574219 196.41873168945312 491.6389465332031 192.51258850097656 491.7191467285156 188.6750030517578 C 487.3614501953125 174.38992309570312 487.81671142578125 173.4015655517578 488.1390075683594 164.2323455810547 C 503.877197265625 164.43307495117188 505.0177917480469 164.66632080078125 512.3134155273438 160.1232147216797 C 522.2438354492188 169.5240936279297 524.3125610351562 167.4406280517578 526.0574951171875 167.34291076660156 C 523.8028564453125 162.3131561279297 531.1339111328125 157.3490753173828 533.151123046875 158.9800567626953 C 537.4625244140625 162.00184631347656 541.2601318359375 162.59075927734375 541.9837646484375 164.18707275390625 C 545.0840454101562 164.1660919189453 545.6182861328125 166.03968811035156 550.0086059570312 166.9606170654297 C 549.0189208984375 165.58724975585938 550.0797119140625 157.9208221435547 554.8978271484375 158.17807006835938 C 557.8695678710938 161.08428955078125 563.0974731445312 157.99757385253906 566.5176391601562 157.10118103027344" stroke-width="0.0" fill="url(#shape_9_fill)"/>
    <path d="M 561.3607788085938 156.84429931640625 C 565.2896118164062 152.959228515625 571.3170776367188 156.980224609375 571.1549072265625 174.08384704589844 C 572.560302734375 169.1023406982422 576.532470703125 169.05470275878906 579.6271362304688 174.03404235839844 C 580.551513671875 178.1180419921875 578.916015625 187.3743438720703 580.1825561523438 190.96728515625 C 571.3839111328125 196.1761016845703 572.0692138671875 229.96795654296875 578.12353515625 230.9746856689453 C 576.083740234375 231.1634521484375 575.6310424804688 236.8715362548828 572.1270751953125 237.96478271484375 C 560.6882934570312 235.783203125 567.0841674804688 238.71653747558594 563.273193359375 247.5827178955078 C 549.3798828125 253.1321563720703 501.29461669921875 249.2124481201172 500.2070617675781 251.9088134765625 C 491.25299072265625 251.83544921875 488.0708312988281 237.38014221191406 498.9971008300781 231.73663330078125 C 486.6263427734375 224.89651489257812 481.9789123535156 219.28932189941406 481.9258117675781 214.73614501953125 C 475.7791442871094 215.41793823242188 472.183837890625 215.23927307128906 464.61981201171875 196.5924530029297 C 465.08428955078125 175.791748046875 480.7521057128906 174.45123291015625 482.5653991699219 195.3524169921875 C 489.7060852050781 197.88742065429688 494.86810302734375 184.912109375 496.6139221191406 182.96620178222656 C 495.29302978515625 178.86770629882812 497.5860900878906 177.68861389160156 500.153564453125 177.51905822753906 C 507.93701171875 179.18165588378906 516.5685424804688 181.76783752441406 521.0498046875 174.1683807373047 C 525.6903076171875 173.51771545410156 528.4530639648438 159.66824340820312 529.7451171875 154.52122497558594 C 538.3013916015625 155.87173461914062 539.9500122070312 156.59620666503906 537.0046997070312 165.71905517578125 C 545.7493896484375 166.0550537109375 549.0638427734375 167.53594970703125 551.6820068359375 166.7175750732422 C 550.9674682617188 155.2134552001953 552.7506103515625 152.98789978027344 561.3607788085938 156.84429931640625" stroke-width="0.0" fill="url(#shape_10_fill)"/>
    <path d="M 443.5888366699219 108.77033233642578 C 452.1869201660156 114.07774353027344 453.9182434082031 115.59147644042969 463.2120666503906 106.87283325195312 C 467.210693359375 113.95087432861328 469.29638671875 112.820068359375 488.79547119140625 107.52066040039062 C 489.4532165527344 124.43110656738281 488.7586975097656 125.26354217529297 492.3066711425781 130.48110961914062 C 493.3539123535156 132.2078399658203 493.3977966308594 135.51283264160156 496.7221984863281 136.0698699951172 C 494.13958740234375 136.0860137939453 492.78985595703125 138.7532501220703 490.338623046875 142.12828063964844 C 483.8718566894531 139.06805419921875 482.613525390625 141.63812255859375 481.279541015625 142.7372283935547 C 468.8388671875 136.52503967285156 467.0711364746094 134.90313720703125 465.5194091796875 134.58363342285156 C 464.2525329589844 133.4582061767578 461.0138244628906 134.2753143310547 460.23907470703125 133.59036254882812 C 461.8757019042969 131.8984375 480.97540283203125 141.2347869873047 500.51898193359375 155.85940551757812 C 476.8907470703125 176.93345642089844 476.0047302246094 177.6510772705078 481.6028137207031 184.80162048339844 C 467.85369873046875 183.5810546875 467.3672180175781 188.62904357910156 462.5418701171875 189.92640686035156 C 462.5146484375 184.59971618652344 461.1603698730469 172.86825561523438 460.93341064453125 158.1789093017578 C 449.4360656738281 182.32078552246094 447.0574951171875 183.4327850341797 439.78057861328125 183.08319091796875 C 439.09344482421875 183.816650390625 435.7561950683594 195.7264862060547 434.9856872558594 197.3446044921875 C 427.9811096191406 200.3443145751953 417.51556396484375 180.5871124267578 417.6722106933594 179.82940673828125 C 416.9308166503906 180.0792694091797 399.0159912109375 181.1145477294922 398.21563720703125 174.88787841796875 C 394.1589660644531 172.68035888671875 389.7671203613281 176.97999572753906 379.4816589355469 174.609375 C 382.5954284667969 157.6856689453125 379.6685485839844 152.1230926513672 392.2983703613281 138.81182861328125 C 398.59832763671875 138.84271240234375 399.9167175292969 130.35916137695312 403.0757751464844 119.78535461425781 C 406.4011535644531 98.98592376708984 423.9428405761719 101.49473571777344 443.5888366699219 108.77033233642578" stroke-width="0.0" fill="url(#shape_11_fill)"/>
    <path d="M 602.924560546875 127.62568664550781 C 605.5535278320312 130.54989624023438 605.3114624023438 143.3610382080078 606.8869018554688 145.5289306640625 C 610.7427368164062 146.1993865966797 610.7604370117188 151.734619140625 619.5145263671875 154.1933135986328 C 618.0499267578125 149.7958221435547 617.37158203125 141.85928344726562 623.0004272460938 141.1046905517578 C 623.7315673828125 137.38343811035156 625.38427734375 137.30796813964844 627.1964111328125 140.32168579101562 C 627.0743408203125 142.22499084472656 628.86279296875 144.84719848632812 629.048828125 147.21914672851562 C 632.0761108398438 149.78990173339844 631.678466796875 151.2554168701172 635.7681884765625 153.7301483154297 C 642.2337646484375 154.1189727783203 641.9923706054688 160.14646911621094 649.94580078125 174.7388153076172 C 639.5952758789062 186.20913696289062 640.428466796875 195.15975952148438 640.947265625 205.26422119140625 C 662.5758666992188 205.80502319335938 663.3178100585938 244.32473754882812 642.56982421875 245.34854125976562 C 622.0746459960938 247.93446350097656 611.0873413085938 248.83001708984375 579.0942993164062 265.212890625 C 575.0575561523438 253.26644897460938 581.3977661132812 229.61744689941406 572.5806884765625 214.7514190673828 C 568.0317993164062 208.68370056152344 571.384521484375 168.86849975585938 583.9044799804688 169.71888732910156 C 596.7786254882812 163.1346435546875 599.9149169921875 143.10008239746094 600.2488403320312 142.31954956054688 C 595.927001953125 139.94483947753906 596.0986328125 137.35264587402344 602.924560546875 127.62568664550781" stroke-width="0.0" fill="url(#shape_12_fill)"/>
    <path d="M 412.370361328125 176.5892791748047 C 418.6466064453125 174.58843994140625 435.00274658203125 213.71107482910156 428.50115966796875 219.77096557617188 C 419.81964111328125 228.8644256591797 427.5867614746094 236.77011108398438 431.6815185546875 241.44728088378906 C 429.7344970703125 260.59478759765625 417.4194641113281 272.2228698730469 411.3769226074219 267.6335144042969 C 407.1379089355469 264.645751953125 401.7249450683594 272.12158203125 391.6698303222656 268.3876037597656 C 385.66949462890625 264.94720458984375 382.6161193847656 266.0679016113281 378.540283203125 265.60125732421875 C 373.3416748046875 266.44659423828125 372.2095947265625 262.2283935546875 374.3162841796875 258.20220947265625 C 376.16375732421875 256.30133056640625 374.6020202636719 254.78695678710938 375.0140380859375 253.86585998535156 C 370.80108642578125 255.88560485839844 368.79156494140625 251.84072875976562 368.0707702636719 252.19386291503906 C 360.5390930175781 248.0264129638672 366.5777282714844 229.42361450195312 367.1134338378906 222.37986755371094 C 369.7721862792969 218.77565002441406 371.5074462890625 202.439208984375 384.0108337402344 202.1884307861328 C 378.67022705078125 193.46221923828125 379.7120056152344 191.70143127441406 389.94525146484375 191.65159606933594 C 390.69000244140625 177.39805603027344 392.6484069824219 176.7662811279297 412.370361328125 176.5892791748047" stroke-width="0.0" fill="url(#shape_13_fill)"/>
    <path d="M 507.2840881347656 66.77579498291016 C 507.7757568359375 67.7476577758789 510.08282470703125 75.38794708251953 513.5747680664062 89.73111724853516 C 531.8536987304688 79.58724212646484 535.8900756835938 79.70557403564453 537.5009765625 85.55301666259766 C 538.988525390625 90.88441467285156 544.5354614257812 90.28515625 545.0235595703125 91.17765045166016 C 545.53662109375 92.74136352539062 556.1441650390625 96.89865112304688 559.4650268554688 95.65653991699219 C 563.3363037109375 97.59325408935547 567.3973388671875 97.23748779296875 568.3133544921875 98.01852416992188 C 563.7999267578125 106.7948989868164 558.6717529296875 116.49444580078125 538.0892333984375 108.88195037841797 C 540.3742065429688 112.14188385009766 540.1166381835938 115.37830352783203 534.6411743164062 118.41792297363281 C 527.2284545898438 120.10206604003906 519.5598754882812 124.57826232910156 515.5745849609375 118.5664291381836 C 512.5381469726562 121.88606262207031 501.83349609375 125.94585418701172 500.6842346191406 127.32073974609375 C 498.16998291015625 129.7923583984375 494.24261474609375 129.3939971923828 489.9095458984375 126.35029602050781 C 489.1813049316406 116.6744384765625 468.8633728027344 118.22061157226562 468.1617431640625 117.39900207519531 C 463.5235595703125 117.84298706054688 462.9166564941406 116.64730072021484 461.97882080078125 116.31580352783203 C 471.7158508300781 120.87499237060547 474.8233947753906 116.24280548095703 477.71807861328125 113.53960418701172 C 469.0728454589844 101.34589385986328 471.0111389160156 89.1414794921875 474.3515319824219 81.76497650146484 C 474.58624267578125 70.93256378173828 475.3388671875 70.38494873046875 477.0321350097656 65.95933532714844 C 478.2734680175781 63.57655334472656 482.35296630859375 63.65512466430664 483.98046875 63.482383728027344 C 495.1035461425781 63.190399169921875 504.0714111328125 61.54766845703125 507.2840881347656 66.77579498291016" stroke-width="0.0" fill="url(#shape_14_fill)"/>
    <path d="M 535.7532348632812 162.0985565185547 C 544.0401611328125 162.29913330078125 544.3432006835938 163.09432983398438 546.5252075195312 165.04342651367188 C 549.8858642578125 167.4818878173828 549.693115234375 170.15968322753906 542.72119140625 183.41615295410156 C 544.73193359375 192.29420471191406 535.5150756835938 229.51644897460938 537.1769409179688 232.38844299316406 C 541.4295043945312 239.1603240966797 540.849853515625 252.80178833007812 518.885986328125 252.21090698242188 C 502.39678955078125 253.34141540527344 481.67083740234375 242.209716796875 487.7958068847656 230.52227783203125 C 476.5469970703125 219.80564880371094 478.9374694824219 207.5712890625 483.23162841796875 201.87606811523438 C 486.462890625 197.52294921875 487.98162841796875 197.488037109375 488.76422119140625 199.31773376464844 C 482.7757568359375 195.47398376464844 488.7518615722656 184.7346954345703 487.3596496582031 174.02700805664062 C 487.6724548339844 167.36058044433594 489.55755615234375 166.4024658203125 491.0038757324219 167.01771545410156 C 505.46624755859375 178.9301300048828 511.3301696777344 184.16627502441406 522.773193359375 172.80441284179688 C 525.5742797851562 170.9754180908203 525.3067626953125 167.17648315429688 526.1113891601562 165.03726196289062 C 525.3760986328125 160.238037109375 528.1026000976562 158.2255096435547 535.7532348632812 162.0985565185547" stroke-width="0.0" fill="url(#shape_15_fill)"/>
    <path d="M 651.530029296875 109.38031768798828 C 653.783935546875 110.61760711669922 664.140625 121.4337158203125 659.8619995117188 132.66891479492188 C 664.0357666015625 136.10267639160156 664.5242919921875 143.87051391601562 673.208984375 147.8028106689453 C 677.269287109375 179.06094360351562 673.8719482421875 210.82749938964844 676.210205078125 267.1036682128906 C 675.109619140625 265.46142578125 635.8200073242188 272.95904541015625 631.0204467773438 264.0337829589844 C 636.0956420898438 244.84376525878906 643.6721801757812 124.08224487304688 651.530029296875 109.38031768798828" stroke-width="0.0" fill="url(#shape_16_fill)"/>
    <path d="M 601.4520874023438 128.31333923339844 C 604.0806884765625 128.2534942626953 605.4774780273438 131.69561767578125 606.3496704101562 134.035888671875 C 608.9259643554688 135.1700897216797 607.0601806640625 141.5005340576172 609.1680297851562 143.90951538085938 C 628.8653564453125 143.30441284179688 632.5847778320312 216.18624877929688 632.7952270507812 272.0226135253906 C 579.322265625 276.8961486816406 574.4577026367188 268.5234069824219 580.1388549804688 242.35702514648438 C 558.9775390625 226.05487060546875 598.802490234375 156.5052947998047 601.4520874023438 128.31333923339844" stroke-width="0.0" fill="url(#shape_17_fill)"/>
    <path d="M 320.32843017578125 186.11485290527344 C 321.48480224609375 186.3936309814453 321.6214904785156 189.2390899658203 321.3565673828125 199.9928741455078 C 331.40509033203125 193.6055908203125 332.1780090332031 193.41177368164062 336.6618957519531 196.24034118652344 C 345.3805236816406 198.3291015625 346.39874267578125 197.15635681152344 357.1423034667969 190.35484313964844 C 358.67828369140625 192.31956481933594 359.6178283691406 194.4024658203125 356.2393493652344 201.84332275390625 C 359.4383544921875 204.02296447753906 361.59088134765625 204.16436767578125 364.8001403808594 210.3428955078125 C 367.3138122558594 207.1391143798828 368.5760803222656 207.85556030273438 368.2549743652344 211.59507751464844 C 370.087158203125 220.1139678955078 370.2979431152344 223.09402465820312 366.1025390625 225.58506774902344 C 365.7743835449219 231.44448852539062 363.2862243652344 238.15245056152344 368.39300537109375 248.5106658935547 C 370.26617431640625 253.31390380859375 368.5310974121094 255.88560485839844 358.0133361816406 254.5713653564453 C 354.92572021484375 255.86659240722656 324.3336181640625 254.9153594970703 322.52801513671875 255.41419982910156 C 313.250244140625 255.98973083496094 311.9306335449219 253.88961791992188 308.864501953125 245.53868103027344 C 303.7516174316406 229.0235137939453 320.9517822265625 195.61949157714844 320.32843017578125 186.11485290527344" stroke-width="0.0" fill="url(#shape_18_fill)"/>
    <path d="M 483.1004333496094 233.518310546875 C 506.1715087890625 252.4490966796875 515.6436157226562 263.8840637207031 495.3484191894531 280.6815490722656 C 470.0285339355469 280.4051818847656 443.9371643066406 261.8385925292969 442.0628662109375 262.2043151855469 C 438.7408752441406 260.55810546875 437.03338623046875 258.4939270019531 432.5741271972656 258.31048583984375 C 429.76458740234375 258.5251159667969 428.4819030761719 256.7406921386719 430.03082275390625 253.81100463867188 C 433.3096618652344 237.20420837402344 423.3769226074219 233.81927490234375 422.9629211425781 229.72662353515625 C 423.0643310546875 227.14830017089844 421.0707092285156 226.67276000976562 420.2646789550781 225.08148193359375 C 427.3753662109375 219.7102813720703 429.4566955566406 218.8155975341797 428.6199035644531 213.8484649658203 C 445.593994140625 197.05291748046875 481.8473815917969 196.20712280273438 483.1004333496094 233.518310546875" stroke-width="0.0" fill="url(#shape_19_fill)"/>
    <path d="M 673.9400634765625 -2.957630157470703 C 675.0673828125 32.84956741333008 674.5833740234375 64.76375579833984 674.6655883789062 97.27424621582031 C 669.335693359375 96.00176239013672 651.39306640625 87.4951400756836 645.7420043945312 90.10328674316406 C 638.5809326171875 89.48221588134766 638.097900390625 86.06378173828125 637.3314208984375 84.03527069091797 C 626.0789184570312 84.1872329711914 620.9179077148438 93.49185180664062 608.0459594726562 86.49060821533203 C 609.7517700195312 74.74583435058594 612.1735229492188 73.63726806640625 614.488037109375 71.56062316894531 C 622.4459228515625 68.79151916503906 648.7968139648438 25.114696502685547 647.5098266601562 20.58721160888672 C 655.462646484375 9.153069496154785 656.5802001953125 2.227180242538452 668.9756469726562 3.3585455417633057 C 669.8294067382812 2.6943113803863525 670.0872192382812 1.052011251449585 673.9400634765625 -2.957630157470703" stroke-width="0.0" fill="url(#shape_20_fill)"/>
    <path d="M 561.6865234375 156.11167907714844 C 569.8116455078125 156.5451202392578 570.2835693359375 161.07728576660156 572.0927124023438 165.98727416992188 C 581.56884765625 168.3468780517578 571.4833374023438 230.48597717285156 578.2212524414062 240.55551147460938 C 579.6734008789062 244.89129638671875 579.0661010742188 247.0665283203125 577.8675537109375 270.9730529785156 C 535.800048828125 270.2520751953125 531.8823852539062 267.5003356933594 537.7444458007812 248.48831176757812 C 545.8381958007812 244.79283142089844 548.9321899414062 168.09725952148438 555.3946533203125 156.8450927734375 C 555.5322875976562 152.6571044921875 559.8403930664062 151.69297790527344 561.6865234375 156.11167907714844" stroke-width="0.0" fill="url(#shape_21_fill)"/>
    <path d="M 215.0104522705078 210.2950897216797 C 234.94876098632812 208.34652709960938 238.3775177001953 240.76441955566406 225.01492309570312 257.479736328125 C 211.39097595214844 262.88677978515625 209.03564453125 263.5084533691406 208.8631134033203 273.0569152832031 C 205.80300903320312 275.28948974609375 206.7409210205078 277.06036376953125 205.56356811523438 279.407958984375 C 206.6411895751953 282.79571533203125 202.91683959960938 285.75714111328125 201.9108123779297 284.908447265625 C 202.325927734375 282.9975280761719 190.3310546875 272.3930358886719 188.12991333007812 263.341064453125 C 186.67236328125 261.5372619628906 183.96275329589844 263.1859130859375 181.4208526611328 263.76092529296875 C 181.01409912109375 261.220458984375 179.83563232421875 259.6713562011719 178.51339721679688 251.72021484375 C 178.88453674316406 247.77996826171875 168.9819793701172 242.27023315429688 170.6714630126953 238.61282348632812 C 175.19764709472656 213.5892333984375 177.23751831054688 212.92662048339844 185.5464630126953 220.49131774902344 C 193.66517639160156 219.7476043701172 194.03485107421875 215.04095458984375 198.63552856445312 213.50048828125 C 184.4287567138672 205.70297241210938 184.4866485595703 200.35946655273438 201.10025024414062 197.46096801757812 C 212.76417541503906 192.72425842285156 215.0442352294922 194.83062744140625 215.0104522705078 210.2950897216797" stroke-width="0.0" fill="url(#shape_22_fill)"/>
    <path d="M 111.71047973632812 426.1778564453125 C 112.7472915649414 429.28582763671875 111.05245971679688 431.2107238769531 110.65812683105469 431.3911437988281 C 104.96644592285156 432.6746520996094 103.22532653808594 433.80511474609375 91.96096801757812 433.0776672363281 C 89.77469635009766 435.9715270996094 95.66183471679688 446.421630859375 91.58091735839844 452.1399841308594 C 78.66380310058594 444.9972229003906 46.938175201416016 447.9271240234375 25.294475555419922 449.61151123046875 C 14.049589157104492 446.1751708984375 13.905739784240723 439.74554443359375 18.03326988220215 436.3164367675781 C 35.38841247558594 427.58294677734375 49.51533889770508 426.6720275878906 73.44683074951172 427.0442199707031 C 73.58568572998047 423.8482666015625 110.00691986083984 420.5572204589844 111.71047973632812 426.1778564453125" stroke-width="0.0" fill="url(#shape_23_fill)"/>
    <path d="M 198.92117309570312 120.99882507324219 C 210.31192016601562 115.76799774169922 223.7208251953125 133.90501403808594 219.4214630126953 141.632568359375 C 216.2768096923828 147.86402893066406 218.54296875 150.3865966796875 220.2041473388672 154.7404022216797 C 228.2053985595703 158.58270263671875 247.64852905273438 175.60008239746094 244.7601776123047 198.99838256835938 C 239.13697814941406 199.59378051757812 235.67857360839844 187.02593994140625 232.314453125 179.81748962402344 C 234.77442932128906 187.16058349609375 233.44107055664062 195.9618377685547 230.5089874267578 197.12811279296875 C 228.19195556640625 197.10142517089844 225.818359375 202.58607482910156 220.19381713867188 208.71844482421875 C 214.83041381835938 207.81690979003906 213.43255615234375 202.3452606201172 211.85458374023438 198.52035522460938 C 211.36636352539062 190.86883544921875 211.5807342529297 183.24130249023438 206.8229217529297 177.61907958984375 C 203.84918212890625 174.05006408691406 204.9039764404297 173.00013732910156 205.72430419921875 167.9965362548828 C 202.56436157226562 147.5403594970703 199.50833129882812 146.94219970703125 192.0995330810547 143.81723022460938 C 189.4375762939453 142.416748046875 191.4463348388672 128.09097290039062 198.92117309570312 120.99882507324219" stroke-width="0.0" fill="url(#shape_24_fill)"/>
    <path d="M 590.2352905273438 401.48736572265625 C 601.4999389648438 405.3825378417969 629.4672241210938 404.65191650390625 637.7542114257812 410.6162414550781 C 635.8960571289062 424.2257385253906 631.18603515625 427.4544982910156 629.2556762695312 426.1369323730469 C 630.5712280273438 427.8249816894531 636.1290893554688 428.0317077636719 639.9254760742188 436.5171203613281 C 618.8817749023438 448.0506896972656 578.8617553710938 438.6337890625 572.3705444335938 434.89691162109375 C 567.6705322265625 427.2925720214844 573.8810424804688 419.58038330078125 577.1480102539062 412.844482421875 C 578.0756225585938 411.109130859375 585.693115234375 413.497314453125 590.2352905273438 401.48736572265625" stroke-width="0.0" fill="url(#shape_25_fill)"/>
    <path d="M 142.8943634033203 66.964599609375 C 144.03514099121094 68.86180877685547 149.16192626953125 67.49271392822266 149.6247100830078 68.95781707763672 C 148.86312866210938 70.91353607177734 150.43365478515625 71.83065032958984 149.5217742919922 73.95211791992188 C 151.05821228027344 74.50306701660156 150.13890075683594 78.70966339111328 149.21749877929688 92.7201156616211 C 151.21485900878906 93.07192993164062 154.6687774658203 95.45553588867188 153.1193389892578 104.1339111328125 C 153.2318115234375 107.70599365234375 155.0833740234375 108.51861572265625 155.75511169433594 110.99444580078125 C 157.22146606445312 123.35273742675781 154.64247131347656 133.47459411621094 149.9029998779297 133.5692596435547 C 140.45751953125 128.62745666503906 137.64566040039062 118.25637817382812 125.9645767211914 116.57374572753906 C 121.86489868164062 113.77371978759766 123.34368896484375 109.48335266113281 126.1736831665039 107.2347412109375 C 128.5496826171875 106.76602935791016 129.02928161621094 105.27690124511719 132.53485107421875 104.96893310546875 C 138.6101531982422 96.3270034790039 135.2432098388672 92.92859649658203 132.75973510742188 89.06106567382812 C 134.04696655273438 88.17931365966797 139.43191528320312 87.91228485107422 140.51666259765625 85.39803314208984 C 138.204833984375 84.71211242675781 138.86923217773438 77.9881820678711 139.88095092773438 77.3595199584961 C 143.93435668945312 76.45027160644531 143.10470581054688 70.94959259033203 142.8943634033203 66.964599609375" stroke-width="0.0" fill="url(#shape_26_fill)"/>
    <path d="M 139.50633239746094 67.7774429321289 C 149.16152954101562 66.79568481445312 149.50881958007812 67.91568756103516 148.7670440673828 77.3543472290039 C 150.50950622558594 78.29544830322266 151.14999389648438 80.77042388916016 154.8754425048828 85.2022705078125 C 150.09645080566406 90.35924530029297 155.0333251953125 95.88219451904297 150.9364013671875 105.24400329589844 C 152.73851013183594 106.07921600341797 153.64297485351562 109.75593566894531 155.51173400878906 112.97285461425781 C 152.9405059814453 116.01079559326172 157.7477569580078 122.1582260131836 153.40814208984375 126.40160369873047 C 152.47604370117188 132.01107788085938 151.30584716796875 133.16461181640625 147.57423400878906 134.5616912841797 C 142.013671875 130.88784790039062 128.23126220703125 122.25405883789062 129.578125 117.59185791015625 C 124.21720886230469 118.47084045410156 122.8321762084961 113.01506805419922 128.3311004638672 110.63162994384766 C 122.77729034423828 107.56754302978516 124.5295181274414 104.1422348022461 133.06524658203125 107.8578872680664 C 136.79933166503906 105.89881134033203 133.31065368652344 92.70349884033203 132.7014617919922 89.17083740234375 C 139.40101623535156 87.70494842529297 138.88861083984375 85.19570922851562 138.98953247070312 81.14340209960938 C 139.06521606445312 77.4897689819336 140.36180114746094 76.81275939941406 142.49459838867188 78.34083557128906 C 145.28671264648438 71.82698822021484 142.62623596191406 70.45521545410156 139.50633239746094 67.7774429321289" stroke-width="0.0" fill="url(#shape_27_fill)"/>
    <path d="M -0.4310532510280609 -0.2781352400779724 C 4.732109546661377 0.3889140188694 9.682563781738281 -0.5329448580741882 18.684673309326172 -0.9016196131706238 C 25.5202579498291 -1.8196017742156982 26.026155471801758 -1.0352832078933716 56.69386672973633 0.38010692596435547 C 52.317893981933594 25.703338623046875 28.835355758666992 22.924909591674805 28.08917808532715 27.995380401611328 C 61.65348815917969 8.043156623840332 70.59130096435547 7.93194580078125 74.27631378173828 56.6317138671875 C 33.611629486083984 58.28047180175781 22.551965713500977 61.19242858886719 19.693105697631836 53.778221130371094 C 16.430526733398438 39.349578857421875 11.271259307861328 38.33525466918945 9.968008041381836 33.6263542175293 C 10.105498313903809 35.7812385559082 14.529449462890625 39.26209259033203 14.59963607788086 41.031314849853516 C 16.164220809936523 42.16630554199219 16.071496963500977 44.56960678100586 18.170692443847656 47.87885665893555 C 20.074235916137695 51.07258605957031 18.770166397094727 52.3044319152832 22.80179214477539 57.65924835205078 C 23.754287719726562 70.34869384765625 10.342851638793945 72.90072631835938 7.292787551879883 61.871177673339844 C 5.223639965057373 60.974430084228516 3.5623247623443604 59.12430953979492 0.3130139112472534 59.44770431518555 C -0.32142338156700134 39.80363845825195 -0.3250924050807953 19.63658905029297 -0.4310532510280609 -0.2781352400779724" stroke-width="0.0" fill="url(#shape_28_fill)"/>
    <path d="M 298.29791259765625 197.29156494140625 C 297.770263671875 199.48912048339844 300.6950988769531 202.16055297851562 301.61920166015625 208.91693115234375 C 300.4449462890625 214.2649383544922 325.74700927734375 222.46826171875 316.0032958984375 255.51025390625 C 311.8954162597656 254.66123962402344 310.5212097167969 255.7650604248047 304.3755187988281 255.01138305664062 C 303.8905029296875 258.12261962890625 297.3844909667969 258.4533996582031 281.3250427246094 256.3462829589844 C 276.69354248046875 223.63954162597656 285.14898681640625 221.73654174804688 298.29791259765625 197.29156494140625" stroke-width="0.0" fill="url(#shape_29_fill)"/>
    <path d="M 0.002474409993737936 -0.140768900513649 C 4.615889072418213 0.45689070224761963 9.82515811920166 -0.4088205099105835 14.750621795654297 0.09110674262046814 C 15.9774169921875 0.46999406814575195 16.784217834472656 2.186809778213501 16.608179092407227 7.89572286605835 C 18.74921989440918 11.026423454284668 21.356321334838867 19.193445205688477 27.888044357299805 20.50701141357422 C 27.324588775634766 22.616846084594727 23.511775970458984 26.692716598510742 25.304092407226562 31.964628219604492 C 20.546497344970703 32.59396743774414 11.408360481262207 30.219301223754883 3.782393455505371 33.44779968261719 C 8.829394340515137 36.21962356567383 8.646671295166016 39.13528823852539 10.861702919006348 40.46626663208008 C 10.489859580993652 42.83658981323242 7.41264009475708 49.370147705078125 11.755027770996094 53.80055618286133 C 17.780065536499023 51.04350280761719 19.462726593017578 51.47904586791992 18.509910583496094 58.37242889404297 C 11.322097778320312 60.73230743408203 9.42752456665039 62.42751693725586 0.17588509619235992 61.621803283691406 C -0.4284955859184265 39.97979736328125 -0.3547118306159973 19.75666618347168 0.002474409993737936 -0.140768900513649" stroke-width="0.0" fill="url(#shape_30_fill)"/>
    <path d="M 549.017333984375 70.72534942626953 C 546.7573852539062 78.49994659423828 576.7555541992188 89.33983612060547 581.3978271484375 91.84088897705078 C 580.9995727539062 93.0043716430664 577.5296630859375 93.39383697509766 577.4710083007812 98.34603881835938 C 573.295166015625 100.69835662841797 572.0535278320312 99.8459701538086 569.6365966796875 100.14055633544922 C 567.1106567382812 94.24310302734375 547.53076171875 98.56857299804688 538.89697265625 88.25652313232422 C 538.2008666992188 85.5111312866211 538.96728515625 82.72918701171875 535.8853149414062 81.87996673583984 C 533.9822998046875 80.90707397460938 527.0839233398438 79.47589111328125 526.9971923828125 78.05320739746094 C 524.978271484375 75.84261322021484 527.703857421875 70.84652709960938 531.84130859375 68.93059539794922 C 539.2393188476562 66.8166732788086 542.8147583007812 71.46326446533203 549.017333984375 70.72534942626953" stroke-width="0.0" fill="url(#shape_31_fill)"/>
    <path d="M 446.8929748535156 264.45367431640625 C 450.6046447753906 265.33074951171875 451.2418518066406 266.776611328125 455.5232849121094 267.87322998046875 C 460.5113830566406 267.6551208496094 465.32232666015625 270.3759765625 469.9643249511719 272.99169921875 C 470.4309997558594 275.6334533691406 471.828857421875 276.8868713378906 471.6768798828125 280.7843933105469 C 452.3390197753906 287.2454528808594 431.2530517578125 284.146728515625 415.8070983886719 285.14056396484375 C 413.3391418457031 273.8756408691406 414.0368957519531 272.2767333984375 415.1991882324219 267.96435546875 C 418.1756286621094 267.1913757324219 417.7032470703125 264.77044677734375 419.2985534667969 262.80438232421875 C 445.0342102050781 250.45884704589844 447.264404296875 251.56228637695312 446.8929748535156 264.45367431640625" stroke-width="0.0" fill="url(#shape_32_fill)"/>
    <path d="M 272.8941955566406 192.0530548095703 C 274.12109375 192.3630828857422 288.3583679199219 243.73902893066406 282.74090576171875 249.5756072998047 C 279.7221984863281 249.89144897460938 274.1084899902344 247.92001342773438 269.0949401855469 250.2626495361328 C 266.0483703613281 246.79986572265625 266.3790283203125 243.0131378173828 260.7351989746094 240.70521545410156 C 254.80911254882812 208.397705078125 262.3794860839844 205.27224731445312 272.8941955566406 192.0530548095703" stroke-width="0.0" fill="url(#shape_33_fill)"/>
    <path d="M 270.2691650390625 406.0311584472656 C 262.140380859375 429.7996520996094 264.2091064453125 430.9074401855469 267.2872009277344 440.646484375 C 262.4967346191406 440.8506774902344 260.6864318847656 446.4256896972656 258.6341857910156 447.86419677734375 C 245.2958984375 445.88226318359375 212.96759033203125 448.9000549316406 212.36483764648438 445.0920715332031 C 213.02159118652344 436.99578857421875 213.95974731445312 436.2219543457031 216.09571838378906 434.779541015625 C 216.52883911132812 433.6713562011719 225.12034606933594 434.0928039550781 226.84886169433594 431.0979309082031 C 226.41455078125 417.4842529296875 231.29689025878906 416.760498046875 270.2691650390625 406.0311584472656" stroke-width="0.0" fill="url(#shape_34_fill)"/>
    <path d="M 105.59406280517578 69.57366943359375 C 110.24406433105469 69.7403564453125 110.62548065185547 78.41683959960938 112.79222106933594 85.17903900146484 C 117.90869903564453 86.42166900634766 116.07770538330078 110.02276611328125 118.91852569580078 110.69583892822266 C 116.68119049072266 112.5133285522461 109.55451202392578 114.22833251953125 107.01423645019531 124.98922729492188 C 104.57170867919922 117.11862182617188 96.4755630493164 118.91587829589844 87.41975402832031 107.1063232421875 C 85.94294738769531 85.63839721679688 106.18708038330078 84.23310852050781 105.59406280517578 69.57366943359375" stroke-width="0.0" fill="url(#shape_35_fill)"/>
    <path d="M 451.1989440917969 178.4634246826172 C 454.21527099609375 176.04515075683594 456.3682861328125 177.77430725097656 455.0901794433594 180.33546447753906 C 455.8522033691406 180.87884521484375 455.0390930175781 184.8812255859375 456.06304931640625 186.868896484375 C 456.3932189941406 188.44595336914062 459.2986755371094 193.7412567138672 458.7331237792969 204.48236083984375 C 458.8151550292969 208.29136657714844 453.3092346191406 210.28860473632812 445.9940490722656 204.38917541503906 C 442.2542419433594 206.69325256347656 440.69580078125 209.35377502441406 432.0633544921875 210.86431884765625 C 436.0211486816406 209.9187774658203 436.9754943847656 187.5982208251953 437.73211669921875 173.7783660888672 C 440.47283935546875 178.71453857421875 440.5236511230469 181.5157470703125 446.8467102050781 181.52247619628906 C 447.9464416503906 179.72987365722656 450.1504821777344 179.72308349609375 451.1989440917969 178.4634246826172" stroke-width="0.0" fill="url(#shape_36_fill)"/>
    <path d="M 558.1077880859375 84.5976791381836 C 559.912109375 80.174560546875 578.3611450195312 83.24789428710938 579.3417358398438 85.0577621459961 C 581.3785400390625 83.11560821533203 586.3108520507812 84.9109115600586 588.3435668945312 88.7768325805664 C 598.5888061523438 111.04603576660156 588.5348510742188 117.55012512207031 574.3126220703125 100.90968322753906 C 573.78759765625 99.46349334716797 550.5047607421875 96.85896301269531 548.6760864257812 86.76256561279297 C 539.1900024414062 86.84707641601562 537.70654296875 85.34293365478516 536.8483276367188 79.86470794677734 C 543.2260131835938 74.73541259765625 546.9307250976562 78.77710723876953 558.1077880859375 84.5976791381836" stroke-width="0.0" fill="url(#shape_37_fill)"/>
    <path d="M 251.73744201660156 206.9089813232422 C 265.9232482910156 215.20223999023438 261.35400390625 234.39627075195312 260.0555114746094 248.62213134765625 C 259.8398132324219 254.63253784179688 251.45867919921875 255.22164916992188 248.9018096923828 256.9637145996094 C 234.29405212402344 236.43374633789062 240.6891632080078 215.88336181640625 251.73744201660156 206.9089813232422" stroke-width="0.0" fill="url(#shape_38_fill)"/>
    <path d="M 442.2137756347656 262.9415588378906 C 445.9798583984375 263.4208984375 449.2097473144531 266.6844482421875 447.9302978515625 270.0849304199219 C 444.6692810058594 270.4041442871094 442.6742248535156 277.3447570800781 440.0725402832031 277.29742431640625 C 438.1661071777344 286.8897399902344 430.5197448730469 286.2242736816406 417.70904541015625 275.30364990234375 C 414.3989562988281 276.70452880859375 413.2503967285156 274.3012390136719 416.43603515625 271.595458984375 C 414.8385925292969 269.9132385253906 419.2661437988281 262.28594970703125 425.22576904296875 258.5263977050781 C 426.9715576171875 257.92181396484375 440.6749267578125 257.68115234375 442.2137756347656 262.9415588378906" stroke-width="0.0" fill="url(#shape_39_fill)"/>
    <path d="M 407.64776611328125 409.93902587890625 C 408.6330871582031 409.92254638671875 416.764892578125 419.1625061035156 414.25927734375 424.44061279296875 C 398.7887268066406 435.3682861328125 386.3435974121094 420.5467224121094 376.5393371582031 420.8898010253906 C 371.0704650878906 417.9621276855469 371.2260437011719 416.5549011230469 372.530517578125 410.47882080078125 C 375.6205749511719 401.079833984375 391.9276123046875 404.01678466796875 407.64776611328125 409.93902587890625" stroke-width="0.0" fill="url(#shape_40_fill)"/>
    <path d="M 66.61420440673828 427.37017822265625 C 67.20409393310547 428.92401123046875 63.87485885620117 431.81488037109375 58.593772888183594 434.1379699707031 C 57.345550537109375 435.8392028808594 42.145748138427734 435.3905029296875 30.751371383666992 443.12322998046875 C 28.900859832763672 443.51513671875 26.903940200805664 444.12542724609375 17.399581909179688 442.6141052246094 C 16.46111488342285 440.6537170410156 18.07584571838379 439.2092590332031 17.406265258789062 437.7414245605469 C 36.436561584472656 427.0489501953125 51.45402145385742 428.5171813964844 66.61420440673828 427.37017822265625" stroke-width="0.0" fill="url(#shape_41_fill)"/>
    <path d="M 276.645263671875 381.1559753417969 C 284.8667297363281 381.2458190917969 298.8910217285156 380.25579833984375 312.40509033203125 385.4508361816406 C 296.6969299316406 394.3621520996094 299.27972412109375 401.11724853515625 294.56988525390625 405.24932861328125 C 291.7778015136719 400.12786865234375 268.2300720214844 407.4952392578125 257.96136474609375 410.17449951171875 C 237.65658569335938 419.760986328125 230.31124877929688 415.207275390625 229.36532592773438 383.808837890625 C 259.6648254394531 378.1755676269531 266.2210998535156 382.3708190917969 276.645263671875 381.1559753417969" stroke-width="0.0" fill="url(#shape_42_fill)"/>
    <path d="M 222.68939208984375 209.0326690673828 C 224.2229461669922 206.418212890625 238.6084747314453 206.16676330566406 238.7452850341797 209.9308319091797 C 242.8216552734375 221.8221893310547 243.9353485107422 244.89401245117188 256.1503601074219 270.4149169921875 C 252.26223754882812 276.4107666015625 243.4398651123047 273.5389404296875 208.0664520263672 272.41168212890625 C 208.51702880859375 266.2309875488281 206.11788940429688 250.85484313964844 216.1425018310547 247.55545043945312 C 219.17098999023438 246.45230102539062 218.48403930664062 226.42796325683594 222.68939208984375 209.0326690673828" stroke-width="0.0" fill="url(#shape_43_fill)"/>
    <path d="M 483.5860900878906 396.1165466308594 C 486.64044189453125 399.5510559082031 485.938720703125 401.04052734375 483.3591613769531 400.92108154296875 C 469.3534851074219 407.4792175292969 451.1646423339844 406.9292907714844 450.2938537597656 407.496337890625 C 448.3592834472656 404.44158935546875 451.7931823730469 396.2178649902344 453.7117614746094 396.5341491699219 C 466.8179016113281 393.4234619140625 471.52008056640625 392.3083190917969 483.5860900878906 396.1165466308594" stroke-width="0.0" fill="url(#shape_44_fill)"/>
    <path d="M 45.86529541015625 408.13812255859375 C 45.27708435058594 407.9627685546875 35.89934158325195 412.713134765625 32.020355224609375 412.5176086425781 C 32.15163040161133 414.2604064941406 31.777795791625977 415.680908203125 28.012720108032227 414.96734619140625 C 26.91661262512207 416.3050537109375 23.842023849487305 416.9768981933594 19.713788986206055 420.0813903808594 C 19.520017623901367 420.16278076171875 0.2277398705482483 417.4335632324219 -0.686593770980835 420.51470947265625 C 1.9621635675430298 419.4025573730469 -1.153855562210083 411.1843566894531 1.0298110246658325 410.17730712890625 C 5.814757347106934 409.7152099609375 45.46903610229492 406.2682800292969 45.86529541015625 408.13812255859375" stroke-width="0.0" fill="url(#shape_45_fill)"/>
    <path d="M 452.4388122558594 173.59591674804688 C 453.8319396972656 174.946533203125 464.5561828613281 198.54708862304688 467.3406982421875 199.7265625 C 462.6007385253906 209.1590576171875 451.0931091308594 209.126953125 449.4461364746094 206.48806762695312 C 448.2995910644531 203.271728515625 448.94342041015625 198.3248748779297 448.8514709472656 195.29681396484375 C 447.96697998046875 194.5738983154297 447.58331298828125 192.03848266601562 448.5244445800781 187.98655700683594 C 450.9674377441406 186.6409454345703 450.21771240234375 182.5474853515625 452.4388122558594 173.59591674804688" stroke-width="0.0" fill="url(#shape_46_fill)"/>
    <path d="M 372.1631164550781 183.56764221191406 C 379.42694091796875 198.74473571777344 380.6131286621094 202.73138427734375 371.5684509277344 205.82594299316406 C 365.8677978515625 206.83920288085938 364.772216796875 204.75965881347656 361.5998840332031 206.0776824951172 C 339.5877990722656 212.41017150878906 335.1351013183594 200.7697296142578 353.3846740722656 189.41729736328125 C 356.7078552246094 184.98681640625 358.37908935546875 184.3634490966797 368.20111083984375 185.45855712890625 C 369.0408630371094 182.78564453125 371.4082336425781 182.92935180664062 372.1631164550781 183.56764221191406" stroke-width="0.0" fill="url(#shape_47_fill)"/>
    <path d="M 473.22344970703125 264.4198303222656 C 473.8035888671875 268.7655334472656 481.09375 271.58770751953125 484.37823486328125 283.4703369140625 C 466.8309326171875 287.9844970703125 445.37799072265625 286.941650390625 443.79095458984375 284.9147644042969 C 439.33807373046875 282.1057434082031 440.0002136230469 276.96624755859375 440.99261474609375 276.2938232421875 C 449.1632995605469 266.55084228515625 456.1939697265625 261.6552429199219 473.22344970703125 264.4198303222656" stroke-width="0.0" fill="url(#shape_48_fill)"/>
    <path d="M 176.5211639404297 116.64854431152344 C 178.1580810546875 115.61554718017578 181.71438598632812 116.15798950195312 182.702880859375 117.24357604980469 C 184.62831115722656 120.08505249023438 183.9315185546875 121.75116729736328 184.7353057861328 123.37955474853516 C 179.447509765625 128.35595703125 185.53724670410156 136.9973907470703 183.09803771972656 139.02418518066406 C 181.49102783203125 146.2286834716797 172.8213653564453 146.36647033691406 172.44276428222656 146.8511199951172 C 172.8557586669922 126.97676086425781 171.10989379882812 124.43653106689453 176.5211639404297 116.64854431152344" stroke-width="0.0" fill="url(#shape_49_fill)"/>
    <path d="M 334.03863525390625 426.3969421386719 C 335.19805908203125 430.4486083984375 342.162353515625 428.86248779296875 343.714599609375 431.51849365234375 C 346.3793640136719 435.5644226074219 345.15838623046875 437.20928955078125 342.2690124511719 437.48223876953125 C 342.47021484375 447.3590087890625 325.5496520996094 448.79248046875 323.56683349609375 445.6632080078125 C 321.5676574707031 436.15838623046875 321.5876159667969 432.6983947753906 305.20501708984375 430.7040710449219 C 317.7480773925781 424.8967590332031 327.20941162109375 430.9936218261719 334.03863525390625 426.3969421386719" stroke-width="0.0" fill="url(#shape_50_fill)"/>
    <path d="M 321.17633056640625 388.7196044921875 C 313.9449157714844 396.0816345214844 293.0769348144531 395.46612548828125 291.5260925292969 399.0209045410156 C 279.1015319824219 397.66265869140625 277.8561706542969 398.9821472167969 271.2503967285156 402.2487487792969 C 271.2812194824219 401.5952453613281 270.09173583984375 398.89178466796875 271.78912353515625 397.51104736328125 C 270.43341064453125 395.5889892578125 273.61151123046875 388.6839599609375 280.067626953125 388.46441650390625 C 284.32867431640625 386.82281494140625 288.49658203125 390.5852966308594 321.17633056640625 388.7196044921875" stroke-width="0.0" fill="url(#shape_51_fill)"/>
    <path d="M 269.0213623046875 187.0526580810547 C 277.94879150390625 195.0901336669922 276.91162109375 207.74122619628906 280.2618103027344 217.43943786621094 C 271.5865173339844 210.43678283691406 269.55078125 208.50404357910156 260.17962646484375 217.3197479248047 C 257.9408264160156 208.78875732421875 262.8778076171875 195.23716735839844 267.9251403808594 195.73971557617188 C 269.66180419921875 194.1461639404297 268.8419189453125 191.56231689453125 269.0213623046875 187.0526580810547" stroke-width="0.0" fill="url(#shape_52_fill)"/>
    <path d="M 218.55555725097656 409.3520812988281 C 215.88189697265625 410.892333984375 215.79196166992188 413.35089111328125 214.30792236328125 415.3280944824219 C 214.59246826171875 423.8258972167969 195.32855224609375 425.19366455078125 187.730224609375 415.6336364746094 C 186.3736114501953 403.7248840332031 209.24766540527344 398.7069091796875 218.55555725097656 409.3520812988281" stroke-width="0.0" fill="url(#shape_53_fill)"/>
    <path d="M 206.0294952392578 424.6482849121094 C 205.44125366210938 425.2172546386719 206.15252685546875 428.30084228515625 204.54754638671875 428.8188781738281 C 194.61277770996094 429.4699401855469 178.8301544189453 430.0386047363281 178.11878967285156 432.70477294921875 C 176.9680633544922 430.9404602050781 178.5671844482422 425.9414978027344 177.2274932861328 423.861572265625 C 187.2371368408203 418.64129638671875 192.3277130126953 423.2762145996094 206.0294952392578 424.6482849121094" stroke-width="0.0" fill="url(#shape_54_fill)"/>
    <path d="M 268.6820068359375 247.98060607910156 C 275.2168884277344 245.1481475830078 276.77362060546875 247.91342163085938 278.9803771972656 249.17442321777344 C 281.1202087402344 251.00460815429688 280.82611083984375 252.12379455566406 294.5392761230469 272.7279357910156 C 263.4787292480469 258.1705017089844 262.88287353515625 257.5005798339844 249.06190490722656 268.8489074707031 C 254.81930541992188 248.17494201660156 255.92971801757812 247.25888061523438 258.7666320800781 245.27284240722656 C 261.1114501953125 240.1532440185547 263.38818359375 239.28024291992188 268.6820068359375 247.98060607910156" stroke-width="0.0" fill="url(#shape_55_fill)"/>
    <path d="M 290.4401550292969 334.5997009277344 C 286.8941650390625 362.6307678222656 287.6650085449219 363.30841064453125 285.5541687011719 368.03521728515625 C 285.5846252441406 369.222900390625 286.1114501953125 371.760498046875 285.4105224609375 381.5301818847656 C 269.6786804199219 379.32318115234375 256.2218933105469 380.76263427734375 233.03787231445312 382.9311828613281 C 228.7914581298828 382.69140625 228.12464904785156 370.6276550292969 235.8360595703125 345.12109375 C 237.09532165527344 335.7566223144531 240.28622436523438 332.9988098144531 290.4401550292969 334.5997009277344" stroke-width="0.0" fill="url(#shape_56_fill)"/>
    <path d="M 407.9476318359375 271.92791748046875 C 412.6997375488281 270.8561096191406 417.72625732421875 275.9721984863281 425.64373779296875 282.0296325683594 C 416.429931640625 283.3040466308594 412.4075927734375 275.7305908203125 373.6949768066406 274.2818298339844 C 375.3840026855469 262.93756103515625 383.2333679199219 263.4283142089844 407.9476318359375 271.92791748046875" stroke-width="0.0" fill="url(#shape_57_fill)"/>
    <path d="M 632.1195678710938 352.48883056640625 C 632.981689453125 354.58184814453125 661.2400512695312 355.2771301269531 668.484130859375 355.6534729003906 C 668.4293212890625 358.0258483886719 662.9924926757812 360.1415100097656 660.1867065429688 356.5976867675781 C 644.3346557617188 356.5931091308594 636.5889282226562 358.7836608886719 631.7457885742188 359.46649169921875 C 627.930419921875 357.26898193359375 629.5873413085938 353.7041931152344 632.1195678710938 352.48883056640625" stroke-width="0.0" fill="url(#shape_58_fill)"/>
    <path d="M 341.3902587890625 384.6191101074219 C 342.84326171875 390.07403564453125 358.15576171875 391.5892028808594 359.1612548828125 394.5612487792969 C 356.60888671875 398.53472900390625 339.7776184082031 401.2823791503906 338.27130126953125 399.57275390625 C 335.1358642578125 399.63836669921875 333.0522766113281 398.79180908203125 331.8238830566406 396.5372619628906 C 331.9939880371094 394.93994140625 330.739990234375 393.4737243652344 332.2370300292969 390.5708923339844 C 332.6838073730469 384.8362121582031 335.3237609863281 383.769775390625 341.3902587890625 384.6191101074219" stroke-width="0.0" fill="url(#shape_59_fill)"/>
    <path d="M 457.4633483886719 364.4807434082031 C 461.7203674316406 362.8458251953125 474.9885559082031 371.73828125 473.2458190917969 374.6074523925781 C 471.81488037109375 376.24420166015625 470.33636474609375 376.82470703125 463.7316589355469 375.8341064453125 C 458.9605712890625 376.6467590332031 456.8977355957031 377.1124572753906 452.7678527832031 371.33953857421875 C 453.3851623535156 370.13494873046875 458.5444030761719 368.2443542480469 457.4633483886719 364.4807434082031" stroke-width="0.0" fill="url(#shape_60_fill)"/>
    <path d="M 428.2083435058594 432.2890930175781 C 439.9776306152344 434.2145690917969 442.3791809082031 436.7366638183594 442.1166076660156 438.6087951660156 C 440.2606201171875 440.7398681640625 427.37750244140625 439.34063720703125 425.69720458984375 441.9831237792969 C 422.54644775390625 437.7361145019531 423.90045166015625 434.69964599609375 410.24273681640625 425.3721008300781 C 427.6444396972656 428.0967102050781 428.95111083984375 431.62701416015625 428.2083435058594 432.2890930175781" stroke-width="0.0" fill="url(#shape_61_fill)"/>
    <path d="M 185.38975524902344 411.45281982421875 C 186.23855590820312 413.8905029296875 185.05007934570312 414.82061767578125 186.83299255371094 417.7161865234375 C 184.8784942626953 420.2341003417969 183.3791046142578 419.4834899902344 182.54209899902344 419.8022766113281 C 180.8365020751953 421.6610107421875 174.4730682373047 420.1244812011719 171.7978973388672 419.9513244628906 C 169.61163330078125 417.5473327636719 169.78982543945312 415.62310791015625 175.1651153564453 412.1576232910156 C 176.66221618652344 413.67401123046875 180.1068878173828 410.459228515625 185.38975524902344 411.45281982421875" stroke-width="0.0" fill="url(#shape_62_fill)"/>
    <path d="M 331.7876281738281 418.9205627441406 C 334.21630859375 425.5984191894531 329.8477783203125 427.80267333984375 327.20703125 425.4456481933594 C 324.46697998046875 427.7244873046875 322.9483642578125 426.6741638183594 321.8337097167969 427.2945251464844 C 319.0057678222656 425.9466857910156 320.08941650390625 419.942626953125 317.6661682128906 418.5282287597656 C 318.960693359375 420.3588562011719 325.6855163574219 418.5145568847656 331.7876281738281 418.9205627441406" stroke-width="0.0" fill="url(#shape_63_fill)"/>
    <path d="M 55.669952392578125 274.4303894042969 C 56.69341278076172 269.6120910644531 64.22638702392578 271.08746337890625 62.98865509033203 278.7711181640625 C 59.77047348022461 278.5128479003906 54.22160339355469 272.21527099609375 48.82714080810547 276.5556945800781 C 51.49150085449219 273.90606689453125 52.98095703125 273.4139404296875 55.669952392578125 274.4303894042969" stroke-width="0.0" fill="url(#shape_64_fill)"/>
    <path d="M 304.71441650390625 440.3291320800781 C 304.5687255859375 437.815185546875 306.43865966796875 436.8993835449219 313.23291015625 437.7384033203125 C 314.35186767578125 439.64959716796875 312.8289489746094 441.04730224609375 310.7787170410156 441.2413330078125 C 307.83258056640625 445.1523132324219 306.43994140625 444.1878662109375 305.16241455078125 443.7796936035156 C 302.5858459472656 441.71295166015625 303.3705749511719 440.37451171875 304.71441650390625 440.3291320800781" stroke-width="0.0" fill="url(#shape_65_fill)"/>
    <path d="M -0.5897672176361084 -0.42460593581199646 C 224.7030792236328 -0.1282792091369629 444.13311767578125 0.3112623691558838 672.3858032226562 0.18186934292316437 C 673.3701171875 155.838134765625 674.78173828125 295.90350341796875 673.7662353515625 445.47039794921875 C 450.04644775390625 446.3167419433594 230.0159454345703 446.3175354003906 0.42278510332107544 445.5171813964844 C 0.17644280195236206 297.2766418457031 -0.2232273668050766 149.54576110839844 -0.5897672176361084 -0.42460593581199646" stroke-width="0.0" fill="url(#shape_66_fill)"/>
    <path d="M -1.142698884010315 -0.2344847470521927 C 222.8661346435547 -0.13820308446884155 442.8929138183594 0.4021076261997223 672.30908203125 -0.25565895438194275 C 673.388427734375 156.95619201660156 674.8374633789062 295.5456848144531 673.4035034179688 445.3926696777344 C 450.3618469238281 446.3769226074219 230.1013641357422 446.3493957519531 0.4518865942955017 445.456298828125 C 0.020891746506094933 297.6427001953125 -0.3053651452064514 149.20782470703125 -1.142698884010315 -0.2344847470521927" stroke-width="0.0" fill="url(#shape_67_fill)"/>
    <path d="M -0.7392985224723816 -0.2826886773109436 C 223.52554321289062 -0.19298623502254486 441.5907287597656 0.5337502360343933 672.54052734375 -0.33268579840660095 C 673.5101318359375 156.00350952148438 674.8384399414062 295.3180236816406 673.39013671875 445.391845703125 C 450.3617248535156 446.37841796875 230.16539001464844 446.3460388183594 1.0945793390274048 445.4275207519531 C 0.4689403772354126 295.7687683105469 0.05374990776181221 148.5910186767578 -0.7392985224723816 -0.2826886773109436" stroke-width="0.0" fill="url(#shape_68_fill)"/>
  </g>
</svg>
