<?xml version="1.0" ?>
<svg xmlns="http://www.w3.org/2000/svg" version="1.1" width="674" height="446">
  <defs>
    <radialGradient id="shape_0_fill" cx="0.5351124658782688" cy="0.7412370758740892" r="0.2781319773869274">
      <stop offset="0.77858174" stop-color="rgb(170, 185, 0)" stop-opacity="0.862841784954071"/>
      <stop offset="1.0" stop-color="rgb(52, 45, 0)" stop-opacity="1.0"/>
    </radialGradient>
    <radialGradient id="shape_1_fill" cx="0.5365834674778607" cy="0.7445573336340386" r="0.206146240234375">
      <stop offset="0.56788915" stop-color="rgb(82, 83, 65)" stop-opacity="0.8274402022361755"/>
      <stop offset="1.0" stop-color="rgb(27, 8, 0)" stop-opacity="0.6264598369598389"/>
    </radialGradient>
    <radialGradient id="shape_2_fill" cx="0.09792284866468842" cy="0.7376672719091578" r="0.22062588021026522">
      <stop offset="0.0021212872" stop-color="rgb(32, 92, 180)" stop-opacity="0.9785259366035461"/>
      <stop offset="1.0" stop-color="rgb(10, 109, 255)" stop-opacity="0.9353784322738647"/>
    </radialGradient>
    <radialGradient id="shape_3_fill" cx="0.2764301017059417" cy="0.2158206546253153" r="0.12835899375666496">
      <stop offset="0.39172608" stop-color="rgb(146, 204, 10)" stop-opacity="0.8174124956130981"/>
      <stop offset="1.0" stop-color="rgb(39, 42, 0)" stop-opacity="0.9554764032363892"/>
    </radialGradient>
    <radialGradient id="shape_4_fill" cx="0.1543026706231454" cy="0.9977578475336323" r="0.10288926755639141">
      <stop offset="0.0" stop-color="rgb(81, 79, 86)" stop-opacity="1.0"/>
      <stop offset="1.0" stop-color="rgb(85, 74, 89)" stop-opacity="0.8860287666320801"/>
    </radialGradient>
    <radialGradient id="shape_5_fill" cx="0.14807964290992442" cy="0.23997249517740155" r="0.11810664960821587">
      <stop offset="0.0" stop-color="rgb(255, 255, 255)" stop-opacity="0.6465655565261841"/>
      <stop offset="0.5626593" stop-color="rgb(255, 255, 255)" stop-opacity="0.6016485095024109"/>
    </radialGradient>
    <radialGradient id="shape_6_fill" cx="0.18397626112759644" cy="0.9977578475336323" r="0.0754974885934892">
      <stop offset="0.0" stop-color="rgb(93, 90, 94)" stop-opacity="1.0"/>
      <stop offset="1.0" stop-color="rgb(145, 131, 134)" stop-opacity="0.9247907400131226"/>
    </radialGradient>
    <radialGradient id="shape_7_fill" cx="0.2893175074183976" cy="0.05829596412556054" r="0.08666390552011372">
      <stop offset="0.0" stop-color="rgb(55, 66, 29)" stop-opacity="1.0"/>
      <stop offset="1.0" stop-color="rgb(105, 121, 39)" stop-opacity="0.5732851624488831"/>
    </radialGradient>
    <radialGradient id="shape_8_fill" cx="0.3382789091115889" cy="0.9439461883408071" r="0.06756690277190167">
      <stop offset="0.0" stop-color="rgb(91, 124, 45)" stop-opacity="1.0"/>
      <stop offset="1.0" stop-color="rgb(126, 184, 71)" stop-opacity="0.7272295951843262"/>
    </radialGradient>
    <radialGradient id="shape_9_fill" cx="0.30712166172106825" cy="0.9977578475336323" r="0.0730758406641929">
      <stop offset="0.0" stop-color="rgb(38, 48, 20)" stop-opacity="1.0"/>
      <stop offset="1.0" stop-color="rgb(29, 31, 44)" stop-opacity="1.0"/>
    </radialGradient>
    <radialGradient id="shape_10_fill" cx="0.3056379821958457" cy="0.9977578475336323" r="0.06792919147615971">
      <stop offset="0.0" stop-color="rgb(39, 49, 21)" stop-opacity="1.0"/>
      <stop offset="1.0" stop-color="rgb(43, 33, 0)" stop-opacity="0.7188239693641663"/>
    </radialGradient>
    <radialGradient id="shape_11_fill" cx="0.21810089020771514" cy="0.968609865470852" r="0.06792919147615971">
      <stop offset="0.0" stop-color="rgb(138, 135, 129)" stop-opacity="1.0"/>
      <stop offset="1.0" stop-color="rgb(180, 148, 125)" stop-opacity="0.5136722326278687"/>
    </radialGradient>
    <radialGradient id="shape_12_fill" cx="0.29080118694362017" cy="0.9977578475336323" r="0.07480746985189285">
      <stop offset="0.0" stop-color="rgb(22, 25, 13)" stop-opacity="1.0"/>
      <stop offset="1.0" stop-color="rgb(34, 37, 0)" stop-opacity="0.9996286034584045"/>
    </radialGradient>
    <radialGradient id="shape_13_fill" cx="0.327893175074184" cy="0.8923766816143498" r="0.06900465877544279">
      <stop offset="0.0" stop-color="rgb(89, 117, 50)" stop-opacity="1.0"/>
      <stop offset="1.0" stop-color="rgb(118, 155, 29)" stop-opacity="0.787746250629425"/>
    </radialGradient>
    <radialGradient id="shape_14_fill" cx="0.142433234421365" cy="0.9977578475336323" r="0.06617211022079875">
      <stop offset="0.0" stop-color="rgb(155, 150, 153)" stop-opacity="1.0"/>
      <stop offset="1.0" stop-color="rgb(255, 246, 243)" stop-opacity="0.14058366417884827"/>
    </radialGradient>
    <radialGradient id="shape_15_fill" cx="0.31008902077151335" cy="0.9977578475336323" r="0.06683642786405207">
      <stop offset="0.0" stop-color="rgb(43, 55, 23)" stop-opacity="1.0"/>
      <stop offset="1.0" stop-color="rgb(56, 66, 16)" stop-opacity="0.9487499594688416"/>
    </radialGradient>
    <radialGradient id="shape_16_fill" cx="0.27299703264094954" cy="0.9977578475336323" r="0.08110449363640579">
      <stop offset="0.0" stop-color="rgb(31, 35, 19)" stop-opacity="1.0"/>
      <stop offset="1.0" stop-color="rgb(32, 31, 0)" stop-opacity="0.9823631048202515"/>
    </radialGradient>
    <radialGradient id="shape_17_fill" cx="0.2893175074183976" cy="0.9977578475336323" r="0.07513486030193747">
      <stop offset="0.0" stop-color="rgb(22, 23, 13)" stop-opacity="1.0"/>
      <stop offset="1.0" stop-color="rgb(15, 10, 0)" stop-opacity="0.8015099167823792"/>
    </radialGradient>
    <radialGradient id="shape_18_fill" cx="0.3293768545994065" cy="0.7556053811659192" r="0.06617211022079875">
      <stop offset="0.0" stop-color="rgb(83, 108, 65)" stop-opacity="1.0"/>
      <stop offset="1.0" stop-color="rgb(112, 138, 59)" stop-opacity="0.9679452776908875"/>
    </radialGradient>
    <radialGradient id="shape_19_fill" cx="0.3516320474777448" cy="0.9977578475336323" r="0.06617211022079875">
      <stop offset="0.0" stop-color="rgb(95, 135, 39)" stop-opacity="1.0"/>
      <stop offset="1.0" stop-color="rgb(147, 215, 5)" stop-opacity="0.7708896398544312"/>
    </radialGradient>
    <radialGradient id="shape_20_fill" cx="0.0830860534124629" cy="0.9977578475336323" r="0.06792919147615971">
      <stop offset="0.0" stop-color="rgb(49, 52, 66)" stop-opacity="1.0"/>
      <stop offset="1.0" stop-color="rgb(8, 6, 46)" stop-opacity="0.43209192156791687"/>
    </radialGradient>
    <radialGradient id="shape_21_fill" cx="0.29821958456973297" cy="0.9977578475336323" r="0.06792919147615971">
      <stop offset="0.0" stop-color="rgb(33, 40, 17)" stop-opacity="1.0"/>
      <stop offset="1.0" stop-color="rgb(35, 47, 0)" stop-opacity="0.6512637734413147"/>
    </radialGradient>
    <radialGradient id="shape_22_fill" cx="0.3563967741561573" cy="0.4437136457639959" r="0.06591949689282155">
      <stop offset="0.23669502" stop-color="rgb(228, 255, 6)" stop-opacity="0.5738054513931274"/>
      <stop offset="0.47179165" stop-color="rgb(155, 192, 37)" stop-opacity="0.9131506681442261"/>
    </radialGradient>
    <radialGradient id="shape_23_fill" cx="0.6454005934718101" cy="0.1412556053811659" r="0.06617211022079875">
      <stop offset="0.0" stop-color="rgb(46, 38, 13)" stop-opacity="1.0"/>
      <stop offset="1.0" stop-color="rgb(51, 29, 0)" stop-opacity="0.8555276989936829"/>
    </radialGradient>
    <radialGradient id="shape_24_fill" cx="0.24925732258873098" cy="0.48430544592339897" r="0.06617138010811735">
      <stop offset="0.0" stop-color="rgb(201, 209, 206)" stop-opacity="1.0"/>
      <stop offset="0.9766002" stop-color="rgb(255, 255, 255)" stop-opacity="0.6376754641532898"/>
    </radialGradient>
    <radialGradient id="shape_25_fill" cx="0.6320474777448071" cy="0.9977578475336323" r="0.06617211022079875">
      <stop offset="0.0" stop-color="rgb(35, 28, 8)" stop-opacity="1.0"/>
      <stop offset="1.0" stop-color="rgb(37, 13, 0)" stop-opacity="0.591141402721405"/>
    </radialGradient>
    <radialGradient id="shape_26_fill" cx="0.15414520399506793" cy="0.3207086811151205" r="0.06604698362265567">
      <stop offset="0.1198956" stop-color="rgb(198, 211, 155)" stop-opacity="1.0"/>
      <stop offset="0.58338004" stop-color="rgb(115, 114, 253)" stop-opacity="0.0"/>
    </radialGradient>
    <radialGradient id="shape_27_fill" cx="0.15410647972401242" cy="0.3208032787648017" r="0.06604505929465818">
      <stop offset="0.0" stop-color="rgb(192, 205, 0)" stop-opacity="1.0"/>
      <stop offset="0.49375948" stop-color="rgb(78, 72, 48)" stop-opacity="0.6018093824386597"/>
    </radialGradient>
    <radialGradient id="shape_28_fill" cx="0.037981449319630066" cy="0.018135494180858937" r="0.06804742445224117">
      <stop offset="0.158377" stop-color="rgb(1, 27, 129)" stop-opacity="0.9986038208007812"/>
      <stop offset="0.5997283" stop-color="rgb(3, 26, 153)" stop-opacity="0.7979038953781128"/>
    </radialGradient>
    <radialGradient id="shape_29_fill" cx="0.33976258863681147" cy="0.6659192825112108" r="0.06617211022079875">
      <stop offset="0.0" stop-color="rgb(90, 117, 55)" stop-opacity="1.0"/>
      <stop offset="1.0" stop-color="rgb(115, 148, 31)" stop-opacity="0.9010980725288391"/>
    </radialGradient>
    <radialGradient id="shape_30_fill" cx="0.04006615307635299" cy="0.01762309844183815" r="0.0680363652260438">
      <stop offset="0.29012185" stop-color="rgb(49, 76, 64)" stop-opacity="0.9508381485939026"/>
      <stop offset="0.9514471" stop-color="rgb(46, 56, 32)" stop-opacity="0.6507797837257385"/>
    </radialGradient>
    <radialGradient id="shape_31_fill" cx="0.12314540059347182" cy="0.9977578475336323" r="0.06617211022079875">
      <stop offset="0.0" stop-color="rgb(95, 103, 98)" stop-opacity="1.0"/>
      <stop offset="1.0" stop-color="rgb(144, 135, 124)" stop-opacity="0.7695275545120239"/>
    </radialGradient>
    <radialGradient id="shape_32_fill" cx="0.4035608308605341" cy="0.984304932735426" r="0.06617211022079875">
      <stop offset="0.0" stop-color="rgb(126, 155, 63)" stop-opacity="1.0"/>
      <stop offset="1.0" stop-color="rgb(153, 138, 28)" stop-opacity="0.9709134697914124"/>
    </radialGradient>
    <radialGradient id="shape_33_fill" cx="0.3249258160237389" cy="0.6053811659192825" r="0.06617211022079875">
      <stop offset="0.0" stop-color="rgb(93, 124, 71)" stop-opacity="1.0"/>
      <stop offset="1.0" stop-color="rgb(123, 154, 46)" stop-opacity="0.954431414604187"/>
    </radialGradient>
    <radialGradient id="shape_34_fill" cx="0.6468842729970327" cy="0.531390134529148" r="0.06617211022079875">
      <stop offset="0.0" stop-color="rgb(54, 47, 24)" stop-opacity="1.0"/>
      <stop offset="1.0" stop-color="rgb(58, 25, 15)" stop-opacity="0.49641457200050354"/>
    </radialGradient>
    <radialGradient id="shape_35_fill" cx="0.1452545709355295" cy="0.23812686595146967" r="0.06811690401252724">
      <stop offset="0.039667066" stop-color="rgb(184, 255, 62)" stop-opacity="0.18207578361034393"/>
      <stop offset="0.5744099" stop-color="rgb(130, 107, 72)" stop-opacity="0.6919043064117432"/>
    </radialGradient>
    <radialGradient id="shape_36_fill" cx="0.2878338278931751" cy="0.9977578475336323" r="0.06617211022079875">
      <stop offset="0.0" stop-color="rgb(80, 96, 53)" stop-opacity="1.0"/>
      <stop offset="1.0" stop-color="rgb(49, 49, 10)" stop-opacity="0.8412671685218811"/>
    </radialGradient>
    <radialGradient id="shape_37_fill" cx="0.129080118694362" cy="0.9977578475336323" r="0.06617211022079875">
      <stop offset="0.0" stop-color="rgb(87, 97, 81)" stop-opacity="1.0"/>
      <stop offset="1.0" stop-color="rgb(74, 84, 60)" stop-opacity="0.622806966304779"/>
    </radialGradient>
    <radialGradient id="shape_38_fill" cx="0.33892324204260943" cy="0.5607740119968294" r="0.0666785763703751">
      <stop offset="0.7501433" stop-color="rgb(84, 117, 15)" stop-opacity="0.8963785767555237"/>
      <stop offset="0.6022492" stop-color="rgb(174, 255, 77)" stop-opacity="0.8554326891899109"/>
    </radialGradient>
    <radialGradient id="shape_39_fill" cx="0.40059347181008903" cy="0.9641255605381166" r="0.06617211022079875">
      <stop offset="0.0" stop-color="rgb(138, 168, 60)" stop-opacity="1.0"/>
      <stop offset="1.0" stop-color="rgb(224, 255, 82)" stop-opacity="1.0"/>
    </radialGradient>
    <radialGradient id="shape_40_fill" cx="0.6145146310506305" cy="0.8798821282493694" r="0.06865199737096045">
      <stop offset="0.3325134" stop-color="rgb(162, 151, 127)" stop-opacity="0.5875034928321838"/>
      <stop offset="0.50447106" stop-color="rgb(0, 8, 70)" stop-opacity="1.0"/>
    </radialGradient>
    <radialGradient id="shape_41_fill" cx="0.6454005934718101" cy="0.08744394618834081" r="0.06617211022079875">
      <stop offset="0.0" stop-color="rgb(58, 48, 21)" stop-opacity="1.0"/>
      <stop offset="1.0" stop-color="rgb(90, 62, 15)" stop-opacity="0.9846242070198059"/>
    </radialGradient>
    <radialGradient id="shape_42_fill" cx="0.5845697329376854" cy="0.6188340807174888" r="0.06617211022079875">
      <stop offset="0.0" stop-color="rgb(62, 59, 56)" stop-opacity="1.0"/>
      <stop offset="1.0" stop-color="rgb(32, 27, 77)" stop-opacity="0.6105983257293701"/>
    </radialGradient>
    <radialGradient id="shape_43_fill" cx="0.35571200769803646" cy="0.5031386234300553" r="0.06853157405683478">
      <stop offset="0.27656376" stop-color="rgb(128, 172, 51)" stop-opacity="0.949993908405304"/>
      <stop offset="0.5433957" stop-color="rgb(206, 255, 29)" stop-opacity="0.8827448487281799"/>
    </radialGradient>
    <radialGradient id="shape_44_fill" cx="0.5934718100890207" cy="0.9977578475336323" r="0.06617211022079875">
      <stop offset="0.0" stop-color="rgb(89, 61, 18)" stop-opacity="1.0"/>
      <stop offset="1.0" stop-color="rgb(165, 82, 0)" stop-opacity="0.7645717859268188"/>
    </radialGradient>
    <radialGradient id="shape_45_fill" cx="0.612759643916914" cy="0.04035874439461883" r="0.06617211022079875">
      <stop offset="0.0" stop-color="rgb(157, 136, 123)" stop-opacity="1.0"/>
      <stop offset="1.0" stop-color="rgb(255, 229, 207)" stop-opacity="1.0"/>
    </radialGradient>
    <radialGradient id="shape_46_fill" cx="0.28635014836795253" cy="0.9977578475336323" r="0.06617211022079875">
      <stop offset="0.0" stop-color="rgb(82, 99, 55)" stop-opacity="1.0"/>
      <stop offset="1.0" stop-color="rgb(95, 113, 24)" stop-opacity="0.5470866560935974"/>
    </radialGradient>
    <radialGradient id="shape_47_fill" cx="0.28635014836795253" cy="0.8183856502242153" r="0.06617211022079875">
      <stop offset="0.0" stop-color="rgb(166, 189, 197)" stop-opacity="1.0"/>
      <stop offset="1.0" stop-color="rgb(255, 255, 255)" stop-opacity="0.4769636392593384"/>
    </radialGradient>
    <radialGradient id="shape_48_fill" cx="0.40801186943620177" cy="0.9977578475336323" r="0.06617211022079875">
      <stop offset="0.0" stop-color="rgb(107, 135, 68)" stop-opacity="1.0"/>
      <stop offset="1.0" stop-color="rgb(132, 150, 54)" stop-opacity="1.0"/>
    </radialGradient>
    <radialGradient id="shape_49_fill" cx="0.19287833827893175" cy="0.3991031390134529" r="0.06617211022079875">
      <stop offset="0.0" stop-color="rgb(92, 100, 54)" stop-opacity="1.0"/>
      <stop offset="1.0" stop-color="rgb(69, 47, 6)" stop-opacity="0.5384368896484375"/>
    </radialGradient>
    <radialGradient id="shape_50_fill" cx="0.6439169139465876" cy="0.7376681614349776" r="0.06617211022079875">
      <stop offset="0.0" stop-color="rgb(65, 56, 25)" stop-opacity="1.0"/>
      <stop offset="1.0" stop-color="rgb(153, 196, 87)" stop-opacity="0.43174877762794495"/>
    </radialGradient>
    <radialGradient id="shape_51_fill" cx="0.5845697329376854" cy="0.6322869955156951" r="0.06617211022079875">
      <stop offset="0.0" stop-color="rgb(75, 68, 60)" stop-opacity="1.0"/>
      <stop offset="1.0" stop-color="rgb(139, 109, 88)" stop-opacity="0.7556195855140686"/>
    </radialGradient>
    <radialGradient id="shape_52_fill" cx="0.2997032640949555" cy="0.6031390134529148" r="0.06617211022079875">
      <stop offset="0.0" stop-color="rgb(107, 158, 118)" stop-opacity="1.0"/>
      <stop offset="1.0" stop-color="rgb(190, 255, 249)" stop-opacity="0.5402783751487732"/>
    </radialGradient>
    <radialGradient id="shape_53_fill" cx="0.6097922848664689" cy="0.45067264573991034" r="0.06617211022079875">
      <stop offset="0.0" stop-color="rgb(38, 39, 27)" stop-opacity="1.0"/>
      <stop offset="1.0" stop-color="rgb(19, 13, 38)" stop-opacity="0.39203113317489624"/>
    </radialGradient>
    <radialGradient id="shape_54_fill" cx="0.6335311572700296" cy="0.426009002822397" r="0.06617211022079875">
      <stop offset="0.0" stop-color="rgb(67, 49, 20)" stop-opacity="1.0"/>
      <stop offset="1.0" stop-color="rgb(126, 71, 13)" stop-opacity="0.7471023201942444"/>
    </radialGradient>
    <radialGradient id="shape_55_fill" cx="0.3707168533823257" cy="0.5988430827187851" r="0.066001377049115">
      <stop offset="0.43605363" stop-color="rgb(239, 255, 55)" stop-opacity="0.9343094825744629"/>
      <stop offset="0.16089456" stop-color="rgb(199, 255, 0)" stop-opacity="0.7462917566299438"/>
    </radialGradient>
    <radialGradient id="shape_56_fill" cx="0.5489614243323442" cy="0.600896860986547" r="0.06617211022079875">
      <stop offset="0.0" stop-color="rgb(50, 62, 80)" stop-opacity="1.0"/>
      <stop offset="1.0" stop-color="rgb(23, 67, 209)" stop-opacity="0.4844391942024231"/>
    </radialGradient>
    <radialGradient id="shape_57_fill" cx="0.4094955489614243" cy="0.9035874439461884" r="0.06617211022079875">
      <stop offset="0.0" stop-color="rgb(111, 144, 47)" stop-opacity="1.0"/>
      <stop offset="1.0" stop-color="rgb(161, 212, 3)" stop-opacity="0.6507752537727356"/>
    </radialGradient>
    <radialGradient id="shape_58_fill" cx="0.5281899109792285" cy="0.9977578475336323" r="0.06617211022079875">
      <stop offset="0.0" stop-color="rgb(50, 43, 14)" stop-opacity="1.0"/>
      <stop offset="1.0" stop-color="rgb(72, 51, 0)" stop-opacity="1.0"/>
    </radialGradient>
    <radialGradient id="shape_59_fill" cx="0.5845697329376854" cy="0.7690582959641256" r="0.06617211022079875">
      <stop offset="0.0" stop-color="rgb(61, 63, 58)" stop-opacity="1.0"/>
      <stop offset="1.0" stop-color="rgb(76, 75, 97)" stop-opacity="0.7106834650039673"/>
    </radialGradient>
    <radialGradient id="shape_60_fill" cx="0.5489614243323442" cy="0.9977578475336323" r="0.06617211022079875">
      <stop offset="0.0" stop-color="rgb(140, 131, 64)" stop-opacity="1.0"/>
      <stop offset="1.0" stop-color="rgb(240, 211, 88)" stop-opacity="0.9263654947280884"/>
    </radialGradient>
    <radialGradient id="shape_61_fill" cx="0.6468565173955628" cy="0.9686211556062571" r="0.06617793980267352">
      <stop offset="0.43715367" stop-color="rgb(255, 238, 54)" stop-opacity="1.0"/>
      <stop offset="0.92224705" stop-color="rgb(254, 215, 2)" stop-opacity="0.9854381084442139"/>
    </radialGradient>
    <radialGradient id="shape_62_fill" cx="0.615727002967359" cy="0.3991031390134529" r="0.06617211022079875">
      <stop offset="0.0" stop-color="rgb(55, 47, 13)" stop-opacity="1.0"/>
      <stop offset="1.0" stop-color="rgb(76, 51, 0)" stop-opacity="1.0"/>
    </radialGradient>
    <radialGradient id="shape_63_fill" cx="0.6261127596439169" cy="0.7286995515695067" r="0.06617211022079875">
      <stop offset="0.0" stop-color="rgb(79, 66, 32)" stop-opacity="1.0"/>
      <stop offset="1.0" stop-color="rgb(204, 212, 102)" stop-opacity="0.6565050482749939"/>
    </radialGradient>
    <radialGradient id="shape_64_fill" cx="0.40801186943620177" cy="0.12556053811659193" r="0.06617211022079875">
      <stop offset="0.0" stop-color="rgb(76, 66, 59)" stop-opacity="1.0"/>
      <stop offset="1.0" stop-color="rgb(104, 75, 68)" stop-opacity="1.0"/>
    </radialGradient>
    <radialGradient id="shape_65_fill" cx="0.6528189910979229" cy="0.6883408071748879" r="0.06617211022079875">
      <stop offset="0.0" stop-color="rgb(121, 97, 39)" stop-opacity="1.0"/>
      <stop offset="1.0" stop-color="rgb(255, 255, 90)" stop-opacity="1.0"/>
    </radialGradient>
    <radialGradient id="shape_66_fill" cx="0.6519921639552809" cy="0.4607296246584221" r="0.06934666279869192">
      <stop offset="0.26814958" stop-color="rgb(155, 189, 102)" stop-opacity="0.35598960518836975"/>
      <stop offset="0.9577234" stop-color="rgb(0, 0, 0)" stop-opacity="0.05843107029795647"/>
    </radialGradient>
    <radialGradient id="shape_67_fill" cx="0.5953538481488779" cy="0.9951775384056194" r="0.06920025539681182">
      <stop offset="0.86265916" stop-color="rgb(53, 29, 0)" stop-opacity="0.7407710552215576"/>
      <stop offset="1.0" stop-color="rgb(0, 0, 0)" stop-opacity="0.1594460904598236"/>
    </radialGradient>
    <radialGradient id="shape_68_fill" cx="0.48948642266610254" cy="0.9964256115558436" r="0.06781007557311468">
      <stop offset="0.38166" stop-color="rgb(50, 26, 9)" stop-opacity="0.6242004036903381"/>
      <stop offset="1.0" stop-color="rgb(42, 64, 58)" stop-opacity="0.2592809200286865"/>
    </radialGradient>
  </defs>
  <g>
    <path d="M -0.1185508519411087 271.2262268066406 C 26.221834182739258 268.17706298828125 35.7528076171875 269.5588073730469 45.19009780883789 272.8760070800781 C 48.09712600708008 274.452880859375 49.363895416259766 276.3668518066406 57.091064453125 274.4956359863281 C 59.68510437011719 273.89178466796875 63.33699035644531 274.2587890625 64.67103576660156 272.37420654296875 C 70.45686340332031 270.13671875 100.56421661376953 271.05889892578125 116.73604583740234 271.1048278808594 C 121.2751235961914 270.92352294921875 125.82632446289062 277.1313781738281 124.48831176757812 282.4205322265625 C 133.09243774414062 282.6042785644531 140.22157287597656 281.5988464355469 153.9685821533203 287.3482360839844 C 185.28189086914062 282.35125732421875 185.772216796875 282.4427490234375 206.64581298828125 287.257568359375 C 199.93295288085938 287.8771057128906 198.1341552734375 281.94964599609375 210.89471435546875 270.3740234375 C 245.161865234375 271.5128479003906 288.3804626464844 270.5129699707031 312.6776428222656 275.76806640625 C 346.6448974609375 277.9761657714844 423.1345520019531 278.25823974609375 466.9259033203125 274.0835876464844 C 494.5454406738281 272.09332275390625 544.3054809570312 273.3518371582031 544.884033203125 279.0509338378906 C 548.3660888671875 279.9583435058594 549.7528686523438 275.1045227050781 566.4112548828125 272.3232116699219 C 582.7465209960938 276.0213317871094 612.1541137695312 283.3514709472656 612.654296875 283.5574035644531 C 627.381103515625 273.2395324707031 637.29296875 273.26239013671875 668.4873657226562 272.8122253417969 C 673.8340454101562 274.47857666015625 678.4086303710938 279.72821044921875 678.2785034179688 285.171630859375 C 676.6065673828125 339.510986328125 674.7256469726562 391.5037841796875 675.1177368164062 446.4668273925781 C 451.9151306152344 446.6697692871094 228.9889373779297 446.8115539550781 -0.47114428877830505 446.4240417480469 C -0.4375753402709961 389.14495849609375 0.13234342634677887 332.3591613769531 -0.1185508519411087 271.2262268066406" stroke-width="0.0" fill="url(#shape_0_fill)"/>
    <path d="M -0.0029900381341576576 271.2179260253906 C 35.933265686035156 275.39849853515625 36.5576057434082 274.5896301269531 44.321441650390625 274.456787109375 C 47.872352600097656 267.2703552246094 59.76109313964844 266.6698303222656 77.25797271728516 268.517822265625 C 113.50852966308594 278.68035888671875 114.02909851074219 279.3109130859375 126.87388610839844 279.4318542480469 C 127.83245849609375 272.9469909667969 143.275390625 271.4620056152344 146.9773712158203 270.37396240234375 C 185.14625549316406 269.8535461425781 185.8121795654297 271.7701110839844 202.46043395996094 275.1300048828125 C 202.85128784179688 291.9207763671875 204.7618408203125 292.0979919433594 215.49525451660156 296.1069030761719 C 217.33299255371094 295.0735168457031 269.1278076171875 297.25213623046875 289.8752136230469 298.8723449707031 C 320.7315673828125 300.81964111328125 449.8325500488281 298.8548889160156 461.7050476074219 300.0081481933594 C 477.21728515625 291.93896484375 487.1232604980469 290.84515380859375 503.77545166015625 287.2087707519531 C 510.11529541015625 287.63916015625 519.755615234375 286.3385314941406 522.8648071289062 286.4578552246094 C 527.4968872070312 285.6893615722656 531.8399658203125 285.9023132324219 534.9924926757812 287.0782165527344 C 542.646728515625 286.9446105957031 547.8216552734375 288.168212890625 555.5296020507812 298.5364074707031 C 578.556640625 288.606201171875 580.3099365234375 290.5882568359375 592.540771484375 293.4433898925781 C 610.60107421875 288.9734191894531 622.0235595703125 287.99395751953125 634.0863647460938 288.45037841796875 C 645.7282104492188 279.8885192871094 656.203125 285.0988464355469 673.7916870117188 290.6688232421875 C 673.991455078125 340.53076171875 674.4581909179688 392.193115234375 674.155517578125 446.2807922363281 C 451.4774169921875 446.3905334472656 229.19664001464844 446.25439453125 -0.3076566159725189 446.2476501464844 C -0.2135799378156662 389.4035949707031 -0.2940194308757782 333.0278625488281 -0.0029900381341576576 271.2179260253906" stroke-width="0.0" fill="url(#shape_1_fill)"/>
    <path d="M -0.019931234419345856 -0.25989267230033875 C 219.69313049316406 0.1040392518043518 439.478759765625 -0.45242562890052795 672.0493774414062 -0.20025719702243805 C 665.4969482421875 10.631402969360352 645.2769775390625 36.08060836791992 637.7512817382812 47.92232131958008 C 634.0567626953125 52.98757553100586 610.8214721679688 93.4593734741211 584.8466186523438 84.07814025878906 C 577.6541748046875 81.72491455078125 560.5157470703125 70.43085479736328 532.1182861328125 74.06571197509766 C 531.962646484375 76.79353332519531 524.5938110351562 78.22318267822266 522.3594360351562 72.1344223022461 C 522.6215209960938 68.82701110839844 499.4964599609375 63.77313232421875 499.52581787109375 62.673892974853516 C 492.73968505859375 62.10354232788086 486.4940490722656 60.98689270019531 484.2879333496094 68.38442993164062 C 475.2073059082031 72.0481185913086 476.0677795410156 75.20691680908203 477.3095397949219 83.90086364746094 C 484.2554626464844 97.85043334960938 475.796875 115.25550079345703 471.9170227050781 119.6211166381836 C 460.4293212890625 118.0315933227539 459.16461181640625 113.79296112060547 450.8766174316406 108.43301391601562 C 435.2926330566406 107.81625366210938 411.6899108886719 102.3902359008789 410.3154602050781 104.91751098632812 C 411.71612548828125 120.03630065917969 412.9954528808594 126.24259185791016 410.55987548828125 135.37977600097656 C 407.8986511230469 144.50184631347656 398.0572509765625 143.6565704345703 391.9589538574219 136.7630157470703 C 381.79095458984375 143.80450439453125 375.62640380859375 158.09457397460938 369.3755187988281 157.30386352539062 C 367.7667541503906 159.10494995117188 365.74835205078125 162.6157684326172 361.1810302734375 166.89956665039062 C 358.2685852050781 169.84793090820312 354.9399108886719 169.38760375976562 351.49200439453125 174.8782958984375 C 345.4293518066406 182.28944396972656 336.7579040527344 175.2836151123047 335.86114501953125 169.57203674316406 C 303.707275390625 168.65867614746094 302.77886962890625 175.23333740234375 300.7213439941406 180.07301330566406 C 303.54315185546875 188.46913146972656 304.09674072265625 191.65631103515625 307.50787353515625 201.4400177001953 C 307.42822265625 200.7244873046875 306.0180969238281 198.21844482421875 304.1620178222656 190.85641479492188 C 305.4421081542969 186.85589599609375 303.26953125 186.11691284179688 287.22808837890625 179.03759765625 C 289.6791076660156 194.57394409179688 289.29730224609375 195.970947265625 289.5733642578125 196.28126525878906 C 288.4772033691406 190.07943725585938 288.8936462402344 182.9061737060547 285.8824462890625 178.97705078125 C 272.6842956542969 181.5354461669922 270.09259033203125 185.80319213867188 262.3029479980469 181.47885131835938 C 254.64706420898438 183.7506103515625 255.24661254882812 187.24778747558594 255.76400756835938 197.50518798828125 C 260.7601013183594 199.39617919921875 260.59356689453125 199.9886474609375 257.7342834472656 199.2460174560547 C 257.11224365234375 198.6024932861328 253.16566467285156 195.63990783691406 254.01882934570312 194.16094970703125 C 256.77532958984375 188.88291931152344 259.1182861328125 186.3623504638672 254.883544921875 170.197265625 C 257.31561279296875 165.40133666992188 216.4436492919922 141.78543090820312 213.8900909423828 140.22769165039062 C 185.68218994140625 129.42434692382812 195.59832763671875 103.23374938964844 191.57664489746094 87.29015350341797 C 192.57923889160156 84.34224700927734 159.81971740722656 73.3958969116211 136.11668395996094 61.31529998779297 C 111.49471282958984 39.51376724243164 70.42277526855469 55.290733337402344 38.72616195678711 61.14030075073242 C 21.929468154907227 70.38966369628906 7.26144552230835 69.24996948242188 -0.7970252633094788 69.66240692138672 C 0.34183040261268616 43.958133697509766 -0.3314551115036011 22.56187629699707 -0.019931234419345856 -0.25989267230033875" stroke-width="0.0" fill="url(#shape_2_fill)"/>
    <path d="M 86.68488311767578 62.34889602661133 C 89.04432678222656 68.7649154663086 92.2262954711914 68.85787963867188 93.37411499023438 70.41631317138672 C 90.85713958740234 80.55386352539062 91.35700225830078 80.971923828125 91.04513549804688 90.83099365234375 C 96.66458129882812 85.57884216308594 97.93881225585938 86.86809539794922 102.99439239501953 87.70063781738281 C 104.42461395263672 75.16657257080078 105.86299896240234 73.4304428100586 108.42780303955078 73.1839370727539 C 112.1309585571289 87.68489837646484 111.00188446044922 93.45797729492188 116.41251373291016 99.36724853515625 C 116.54608154296875 100.05875396728516 116.23466491699219 108.79251098632812 115.47055053710938 115.3775863647461 C 124.36434936523438 115.28279876708984 128.68548583984375 115.62091064453125 129.461669921875 112.91352081298828 C 130.43911743164062 109.60365295410156 136.56849670410156 108.21957397460938 136.51307678222656 104.62738800048828 C 136.6216278076172 103.68135833740234 135.5444793701172 101.8053207397461 137.1616668701172 98.21440124511719 C 136.47195434570312 93.2627944946289 137.49398803710938 92.88574981689453 137.46722412109375 89.20459747314453 C 137.30709838867188 84.95317840576172 138.62136840820312 84.85761260986328 139.3958740234375 86.58940887451172 C 140.0001678466797 82.66262817382812 146.68978881835938 80.71904754638672 147.9796142578125 83.35159301757812 C 148.57882690429688 93.4822006225586 150.1047821044922 94.29811096191406 152.00514221191406 99.06119537353516 C 153.47930908203125 102.99486541748047 149.92491149902344 106.90782165527344 148.82533264160156 106.70953369140625 C 152.68157958984375 109.90006256103516 150.57835388183594 114.15339660644531 148.5223388671875 113.45741271972656 C 154.43360900878906 112.83060455322266 157.86351013183594 122.59456634521484 157.32736206054688 123.23594665527344 C 161.37918090820312 124.992431640625 164.9995574951172 123.454345703125 169.61476135253906 122.65872955322266 C 174.3893280029297 119.72893524169922 175.78330993652344 121.51539611816406 177.72303771972656 122.50565338134766 C 179.3285369873047 122.68267822265625 179.9521026611328 125.40538787841797 182.7982940673828 127.7436752319336 C 183.82386779785156 130.2106170654297 182.40235900878906 133.1308135986328 183.68975830078125 135.4130859375 C 186.2957763671875 135.43399047851562 187.62527465820312 142.90599060058594 188.82337951660156 145.2501220703125 C 194.78228759765625 146.0354461669922 206.93968200683594 154.98300170898438 201.54837036132812 173.37603759765625 C 205.45899963378906 175.64883422851562 205.7627716064453 178.46847534179688 205.49005126953125 182.18594360351562 C 213.0684051513672 181.6492156982422 214.50108337402344 197.5962677001953 212.2831573486328 203.99972534179688 C 206.26620483398438 206.89553833007812 203.37564086914062 207.64028930664062 203.1272735595703 210.26145935058594 C 200.77760314941406 210.5292205810547 199.9314422607422 211.69467163085938 200.2169189453125 213.5615692138672 C 196.41932678222656 215.27967834472656 193.5352020263672 215.37884521484375 191.89710998535156 219.61203002929688 C 184.29501342773438 220.9996795654297 183.6038360595703 224.77305603027344 178.6758270263672 230.2267608642578 C 176.37855529785156 233.55245971679688 180.15953063964844 239.43275451660156 180.7289276123047 242.4222412109375 C 182.2907257080078 252.0767059326172 186.21762084960938 260.8875427246094 178.75686645507812 264.7582702636719 C 173.830322265625 268.1034240722656 148.32147216796875 268.1814270019531 136.89968872070312 269.68194580078125 C 131.3147735595703 269.2649841308594 127.7885971069336 271.6637878417969 120.55296325683594 274.5116271972656 C 109.08699035644531 276.94488525390625 73.27522277832031 276.0857238769531 73.07177734375 270.0013122558594 C 47.686676025390625 266.76416015625 56.54692840576172 268.5655822753906 57.48478317260742 273.58831787109375 C 48.04237747192383 276.34991455078125 0.5665603876113892 272.90863037109375 0.7325313687324524 270.0777282714844 C -5.141922950744629 223.41163635253906 -3.7116811275482178 168.0291290283203 0.39630943536758423 120.184814453125 C 11.976283073425293 119.21119689941406 22.113643646240234 114.00431823730469 26.421878814697266 121.7140121459961 C 27.61240005493164 128.98651123046875 35.913333892822266 128.7245635986328 41.54597091674805 131.86268615722656 C 47.001708984375 130.6593475341797 47.80971145629883 132.13099670410156 49.309078216552734 142.29481506347656 C 50.30805969238281 147.7977294921875 61.59803771972656 148.45399475097656 62.791419982910156 146.6089630126953 C 62.163028717041016 136.79818725585938 63.03874206542969 133.9188690185547 62.30473327636719 128.34762573242188 C 68.41446685791016 126.76374816894531 67.60450744628906 123.02693939208984 66.30732727050781 112.50877380371094 C 68.05530548095703 111.17402648925781 68.37982940673828 106.00462341308594 75.6902084350586 102.89356231689453 C 74.27069854736328 100.53185272216797 78.38862609863281 91.24529266357422 77.2148208618164 85.54022979736328 C 77.12505340576172 83.93340301513672 78.2223892211914 74.76216125488281 85.4721908569336 75.44718170166016 C 82.89888763427734 70.1596450805664 83.92738342285156 67.60523223876953 86.68488311767578 62.34889602661133" stroke-width="0.0" fill="url(#shape_3_fill)"/>
    <path d="M 673.988037109375 -0.6775808334350586 C 676.0997924804688 47.841121673583984 675.0172119140625 95.90838623046875 679.6133422851562 140.01629638671875 C 675.6480712890625 128.98065185546875 667.9713745117188 124.5571060180664 661.5970458984375 120.351806640625 C 660.903564453125 120.00972747802734 655.1251220703125 109.3675308227539 649.6701049804688 110.91093444824219 C 648.63818359375 112.52108001708984 644.9493408203125 149.19342041015625 642.814208984375 155.21881103515625 C 630.1949462890625 154.5183868408203 626.9160766601562 142.71409606933594 627.1345825195312 138.2196044921875 C 623.008544921875 137.37062072753906 618.863037109375 145.31903076171875 615.4229125976562 144.0248565673828 C 611.6814575195312 142.3168487548828 610.1548461914062 143.34603881835938 607.7598876953125 141.1050262451172 C 608.8176879882812 138.04331970214844 612.0419921875 132.79188537597656 606.9002685546875 120.36968231201172 C 598.1240844726562 133.61476135253906 597.4905395507812 139.27426147460938 594.4564819335938 142.7775421142578 C 599.0079345703125 147.69044494628906 597.62451171875 151.76678466796875 597.5631713867188 152.47999572753906 C 588.5302124023438 157.3209991455078 587.1121215820312 164.07017517089844 579.6460571289062 172.21829223632812 C 571.7615966796875 170.31590270996094 569.940185546875 158.68890380859375 568.8404541015625 157.30458068847656 C 565.958251953125 157.49546813964844 563.638916015625 153.4217071533203 561.6318359375 152.04693603515625 C 560.101806640625 150.6622772216797 556.2179565429688 150.98065185546875 555.6270751953125 156.21920776367188 C 551.9344482421875 156.20774841308594 550.3670043945312 158.92042541503906 548.8777465820312 158.9249725341797 C 547.3446044921875 157.0045166015625 543.9899291992188 156.93283081054688 536.1489868164062 153.8668670654297 C 531.7943115234375 154.89927673339844 529.9664916992188 158.63095092773438 523.6161499023438 157.23751831054688 C 518.5210571289062 160.79063415527344 520.6868286132812 161.84474182128906 522.7966918945312 169.8494110107422 C 517.5906982421875 168.26588439941406 516.7037353515625 171.26620483398438 516.3738403320312 171.33511352539062 C 511.2713623046875 173.32232666015625 509.8157043457031 175.26531982421875 505.63580322265625 174.399169921875 C 502.78759765625 171.3917999267578 502.9720153808594 169.5278778076172 502.2391357421875 159.40049743652344 C 493.24005126953125 145.6060028076172 507.592041015625 121.92864227294922 518.51025390625 126.40485382080078 C 523.7578735351562 125.29912567138672 539.3928833007812 110.4530258178711 548.7887573242188 113.00275421142578 C 557.2152099609375 110.70932006835938 556.9154052734375 109.38352966308594 557.5780639648438 106.78498077392578 C 560.2139282226562 108.40673828125 565.0248413085938 103.20252227783203 570.6830444335938 104.99484252929688 C 574.5971069335938 102.47053527832031 573.4160766601562 97.45246124267578 578.9227905273438 94.1412353515625 C 583.7067260742188 88.60095977783203 598.2223510742188 76.96654510498047 613.738037109375 78.29491424560547 C 617.0792236328125 73.71996307373047 645.2647094726562 51.78717803955078 644.8522338867188 35.4549446105957 C 644.9758911132812 32.44816589355469 647.997314453125 30.390522003173828 647.6727294921875 29.55143165588379 C 646.9869384765625 28.301837921142578 664.6495971679688 -3.8847107887268066 673.988037109375 -0.6775808334350586" stroke-width="0.0" fill="url(#shape_4_fill)"/>
    <path d="M 151.5956268310547 68.51842498779297 C 152.31182861328125 69.04824829101562 186.0894775390625 84.48734283447266 192.8177947998047 92.88597869873047 C 179.08358764648438 117.43262481689453 217.71646118164062 150.057861328125 220.8402557373047 154.93714904785156 C 238.87789916992188 170.0156707763672 241.96917724609375 184.19068908691406 240.8193359375 193.8616180419922 C 238.14112854003906 193.19638061523438 236.18080139160156 186.46450805664062 236.76918029785156 184.05889892578125 C 235.6799774169922 183.57469177246094 234.15756225585938 184.29415893554688 231.08216857910156 182.71722412109375 C 231.05810546875 184.00955200195312 232.24879455566406 193.7790069580078 228.62318420410156 195.66751098632812 C 227.56906127929688 196.63482666015625 226.9799346923828 205.21075439453125 221.4065704345703 207.71131896972656 C 215.0818634033203 206.59201049804688 214.32662963867188 197.85696411132812 214.6641845703125 194.8699951171875 C 212.9606170654297 185.43630981445312 211.8975830078125 184.94296264648438 206.4724578857422 177.42050170898438 C 205.82638549804688 173.19949340820312 205.77635192871094 165.38861083984375 204.04969787597656 158.91220092773438 C 206.41610717773438 153.20199584960938 194.85919189453125 144.68374633789062 193.37542724609375 141.1981964111328 C 189.07627868652344 140.22926330566406 188.82420349121094 137.4452362060547 186.84901428222656 135.94720458984375 C 178.52044677734375 133.05348205566406 179.11245727539062 126.66522979736328 183.1658172607422 117.32398986816406 C 179.39028930664062 116.4832534790039 177.39776611328125 117.64102172851562 172.99026489257812 117.76689910888672 C 179.006591796875 127.93061065673828 175.42222595214844 131.3204803466797 151.72219848632812 130.29083251953125 C 149.7150421142578 126.45377349853516 151.74429321289062 103.01424407958984 153.7866973876953 95.22953033447266 C 152.89608764648438 88.82129669189453 153.45046997070312 86.34823608398438 149.8812713623047 76.32341766357422 C 148.22592163085938 75.92588806152344 148.8107147216797 69.32401275634766 151.5956268310547 68.51842498779297" stroke-width="0.0" fill="url(#shape_5_fill)"/>
    <path d="M 612.7381591796875 82.51998901367188 C 618.6240234375 84.1552734375 619.6357421875 85.92269134521484 630.8229370117188 85.81989288330078 C 636.1328125 86.01841735839844 637.2195434570312 87.5254135131836 641.2352294921875 88.67866516113281 C 642.1514282226562 87.48939514160156 668.1035766601562 92.22805786132812 673.4376831054688 98.04308319091797 C 673.5398559570312 113.09485626220703 673.2924194335938 127.93064880371094 674.70849609375 150.35226440429688 C 666.5784301757812 141.86117553710938 663.4017333984375 136.12013244628906 660.041748046875 129.71673583984375 C 659.7600708007812 121.98397064208984 660.1912841796875 116.25484466552734 651.3861694335938 111.18755340576172 C 647.2138061523438 115.43006134033203 644.9190673828125 142.33499145507812 642.293701171875 143.13417053222656 C 643.5909423828125 144.94107055664062 642.5847778320312 148.33941650390625 643.5850219726562 150.4945526123047 C 639.938720703125 150.9962615966797 637.9306640625 152.87632751464844 635.4331665039062 152.27845764160156 C 631.4487915039062 146.46142578125 629.1932373046875 141.39401245117188 630.1026611328125 140.52865600585938 C 628.8847045898438 138.11447143554688 622.0361328125 136.8896026611328 620.928466796875 138.66004943847656 C 618.2373657226562 140.5603790283203 619.3262329101562 142.3602294921875 618.6692504882812 146.34002685546875 C 614.6905517578125 144.5657501220703 613.5927734375 143.1822509765625 610.2859497070312 143.6076202392578 C 608.5448608398438 140.40530395507812 609.596923828125 139.2436065673828 609.2045288085938 137.47866821289062 C 606.5198364257812 132.37217712402344 604.7922973632812 126.60692596435547 597.7552490234375 128.13079833984375 C 605.1337280273438 133.90921020507812 595.197998046875 148.3668212890625 591.62109375 156.32418823242188 C 590.581298828125 163.86758422851562 589.272216796875 164.10833740234375 585.8240356445312 168.52340698242188 C 584.1143188476562 167.85658264160156 584.4639282226562 165.892822265625 586.5418090820312 158.1845703125 C 580.77880859375 155.56112670898438 576.2772827148438 154.23709106445312 575.1878662109375 150.4651641845703 C 564.7022705078125 155.37428283691406 556.3007202148438 155.41473388671875 556.1692504882812 151.3582305908203 C 555.8504028320312 152.92247009277344 553.0783081054688 154.7097930908203 552.8917236328125 157.76123046875 C 550.8154907226562 161.6112060546875 548.0010375976562 160.69102478027344 547.3602905273438 159.09378051757812 C 544.3695068359375 156.8196258544922 543.0587768554688 154.53884887695312 537.4202270507812 157.75527954101562 C 534.9595336914062 158.5062713623047 531.2046508789062 157.19577026367188 528.4843139648438 158.26779174804688 C 526.0336303710938 159.2337188720703 526.382080078125 162.56834411621094 525.13037109375 165.75096130371094 C 524.4910278320312 169.4252166748047 523.5392456054688 171.56719970703125 519.0355224609375 173.08514404296875 C 511.8460998535156 177.29605102539062 505.4510803222656 170.8934326171875 489.5415344238281 163.54652404785156 C 485.74127197265625 139.59719848632812 502.482177734375 119.34716796875 512.9417114257812 118.44754791259766 C 529.7075805664062 127.05842590332031 539.9000854492188 108.31864166259766 550.4945678710938 111.79716491699219 C 555.4965209960938 109.9784164428711 560.2506713867188 109.82402801513672 563.8239135742188 106.711669921875 C 564.6295166015625 104.52704620361328 566.7221069335938 103.63092803955078 569.8751831054688 104.34994506835938 C 574.6162109375 101.24483489990234 578.4053344726562 97.26959991455078 586.0336303710938 98.00387573242188 C 600.4705200195312 93.322509765625 605.0479736328125 80.48356628417969 612.7381591796875 82.51998901367188" stroke-width="0.0" fill="url(#shape_6_fill)"/>
    <path d="M 0.0860794186592102 111.15448760986328 C 28.93260383605957 120.49378204345703 39.19578552246094 126.9588851928711 50.0518798828125 139.94342041015625 C 78.58451843261719 157.59288024902344 51.466304779052734 216.92892456054688 46.88441848754883 239.3815460205078 C 51.491050720214844 260.1703796386719 48.54769515991211 264.6318664550781 48.388458251953125 265.72930908203125 C 42.012447357177734 265.154052734375 15.33717155456543 261.0769348144531 8.184354782104492 258.1829833984375 C 4.499854564666748 210.98667907714844 -3.5695137977600098 165.95335388183594 0.0860794186592102 111.15448760986328" stroke-width="0.0" fill="url(#shape_7_fill)"/>
    <path d="M 385.1948547363281 191.82174682617188 C 417.701904296875 179.46505737304688 427.1888427734375 191.61138916015625 430.0506286621094 204.40049743652344 C 474.31878662109375 190.47842407226562 496.1679382324219 205.16635131835938 491.7095031738281 232.03054809570312 C 490.9922790527344 250.48648071289062 486.2100830078125 251.49002075195312 484.8552551269531 252.3791961669922 C 485.4613952636719 258.2654113769531 482.8642272949219 269.3841857910156 477.3769226074219 268.65838623046875 C 469.04290771484375 272.9302978515625 453.2210388183594 266.7112731933594 451.62384033203125 269.7119445800781 C 447.025634765625 266.2801818847656 448.22747802734375 261.20513916015625 449.01898193359375 260.17437744140625 C 439.25146484375 264.7654113769531 436.5126647949219 261.4031677246094 437.43316650390625 256.9073486328125 C 426.1892395019531 256.52899169921875 426.0877685546875 258.09552001953125 421.1732482910156 262.1456298828125 C 418.5263366699219 264.2453308105469 417.5615234375 267.6384582519531 414.91455078125 272.69891357421875 C 414.1069030761719 273.0071105957031 394.1194763183594 268.2873840332031 392.5884094238281 264.1687316894531 C 391.8244323730469 265.1010437011719 389.0058898925781 263.3289794921875 386.00274658203125 263.58782958984375 C 382.1148681640625 261.94610595703125 380.8210144042969 263.1796569824219 376.53680419921875 261.0462341308594 C 374.93975830078125 256.3214416503906 376.14886474609375 252.4600067138672 372.64752197265625 249.27728271484375 C 359.4355773925781 243.81919860839844 374.2735900878906 196.06484985351562 378.2234802246094 178.76608276367188 C 383.7264099121094 170.68765258789062 393.61651611328125 176.86428833007812 385.1948547363281 191.82174682617188" stroke-width="0.0" fill="url(#shape_8_fill)"/>
    <path d="M 566.0701904296875 157.33729553222656 C 568.1353149414062 158.94027709960938 568.4169921875 166.8671112060547 569.2284545898438 167.7574462890625 C 573.5181884765625 169.4581756591797 573.680419921875 170.9352569580078 577.6376342773438 174.3131103515625 C 581.931884765625 172.94320678710938 583.9734497070312 174.5652313232422 583.70703125 179.4731903076172 C 575.3404541015625 180.47747802734375 572.05419921875 225.61634826660156 577.2786865234375 226.9659423828125 C 577.8562622070312 229.99612426757812 581.2844848632812 235.6556396484375 576.9103393554688 242.02024841308594 C 568.66455078125 238.73435974121094 566.3677978515625 237.2211151123047 558.5458984375 247.08041381835938 C 554.0963745117188 250.444091796875 493.8817443847656 254.3187713623047 488.5104064941406 251.4969024658203 C 485.59515380859375 250.32382202148438 487.1722412109375 239.31065368652344 491.4588317871094 229.30731201171875 C 486.4296875 226.261474609375 483.1840515136719 222.28907775878906 481.5989074707031 215.7430419921875 C 476.6358337402344 209.8096923828125 479.24664306640625 205.81814575195312 482.7289123535156 205.96633911132812 C 480.0087890625 205.32542419433594 481.3450012207031 198.81704711914062 488.078369140625 198.798583984375 C 491.9151306152344 196.1711883544922 491.825927734375 192.4987030029297 492.9013366699219 187.87127685546875 C 490.41131591796875 174.08824157714844 490.7740478515625 173.08314514160156 487.8913879394531 164.21710205078125 C 504.180419921875 163.49905395507812 505.583984375 167.30142211914062 517.3116455078125 166.2900848388672 C 523.1901245117188 169.4668426513672 524.7430419921875 167.51524353027344 525.99267578125 167.3501739501953 C 524.1215209960938 160.81475830078125 530.4457397460938 155.81820678710938 533.3395385742188 158.61170959472656 C 537.6334838867188 161.84239196777344 541.3909912109375 162.46006774902344 542.1884765625 163.95501708984375 C 545.239990234375 164.05776977539062 545.91455078125 165.75485229492188 549.62646484375 166.4936065673828 C 548.8995361328125 165.62750244140625 551.2767333984375 157.32925415039062 554.6143798828125 158.0288543701172 C 557.982177734375 160.91819763183594 563.0374145507812 157.8162384033203 566.0701904296875 157.33729553222656" stroke-width="0.0" fill="url(#shape_9_fill)"/>
    <path d="M 561.4663696289062 156.42605590820312 C 566.4539794921875 153.25262451171875 571.2183227539062 158.55555725097656 570.6486206054688 170.2228546142578 C 572.2368774414062 169.23501586914062 576.1614379882812 169.2224578857422 579.4976806640625 174.70852661132812 C 579.8720703125 178.00851440429688 578.7340698242188 187.36383056640625 576.9257202148438 191.5367431640625 C 571.2700805664062 196.79864501953125 571.9849243164062 229.9724884033203 578.0745849609375 230.9768524169922 C 576.070068359375 231.159423828125 575.6058349609375 236.83480834960938 572.0364379882812 238.03916931152344 C 559.9901123046875 235.93556213378906 567.4165649414062 238.6276092529297 563.912109375 248.3697509765625 C 550.4228515625 253.36477661132812 501.2855224609375 249.1817169189453 500.1802978515625 251.58676147460938 C 491.0843200683594 251.8104248046875 487.90618896484375 236.96604919433594 491.06500244140625 230.081787109375 C 486.6236877441406 224.9288330078125 481.9849853515625 219.27203369140625 481.56646728515625 215.79928588867188 C 475.630126953125 214.38330078125 474.7165222167969 213.16311645507812 466.18017578125 198.18698120117188 C 465.9057922363281 190.92385864257812 474.8680419921875 186.9907684326172 482.6512756347656 195.39309692382812 C 489.99786376953125 196.9946746826172 494.3792724609375 184.15536499023438 496.6301574707031 182.953857421875 C 495.3352355957031 178.8880615234375 497.5551452636719 177.6497344970703 500.15069580078125 177.44757080078125 C 507.8816833496094 179.13088989257812 516.549560546875 181.6317901611328 520.3710327148438 174.01925659179688 C 523.1951904296875 173.30328369140625 526.4458618164062 159.12217712402344 530.9435424804688 156.12229919433594 C 538.02978515625 156.23719787597656 538.3402099609375 160.2780303955078 541.1893310546875 165.93231201171875 C 545.744140625 165.87771606445312 549.038818359375 167.2783203125 551.2889404296875 165.88681030273438 C 551.1279296875 156.0664520263672 553.1531372070312 153.04342651367188 561.4663696289062 156.42605590820312" stroke-width="0.0" fill="url(#shape_10_fill)"/>
    <path d="M 448.51263427734375 107.6922836303711 C 452.8430480957031 110.056884765625 454.0730895996094 111.85098266601562 461.9803771972656 112.45784759521484 C 463.9036560058594 117.0842056274414 469.53912353515625 115.75495910644531 477.4229736328125 114.45072937011719 C 488.4367980957031 124.5184326171875 488.79498291015625 125.2509536743164 493.8004150390625 129.66558837890625 C 494.04779052734375 131.6567840576172 493.0667419433594 135.11485290527344 496.8155517578125 136.35877990722656 C 494.6240539550781 135.17535400390625 492.4162902832031 137.55636596679688 487.5385437011719 140.3970947265625 C 483.1105041503906 136.50587463378906 481.3251037597656 138.18553161621094 476.0013122558594 142.2438201904297 C 466.6377868652344 141.42498779296875 466.82049560546875 139.7880401611328 465.9147033691406 134.39688110351562 C 465.2242126464844 133.50135803222656 460.68353271484375 133.53817749023438 460.0564880371094 134.33445739746094 C 459.92535400390625 135.7916717529297 476.2004699707031 146.37185668945312 490.0021667480469 155.5470428466797 C 476.2568054199219 176.6600341796875 475.3973083496094 177.20120239257812 472.8946533203125 181.67515563964844 C 466.8851013183594 182.43251037597656 466.4633483886719 187.09165954589844 465.1116638183594 189.14633178710938 C 463.4252014160156 184.61236572265625 460.54296875 174.9679412841797 457.42828369140625 174.20370483398438 C 448.2705993652344 179.38951110839844 447.5017395019531 182.5084228515625 439.9029846191406 183.08457946777344 C 439.4738464355469 183.86300659179688 435.8634338378906 195.6894073486328 434.91802978515625 197.279296875 C 429.7594909667969 200.16961669921875 417.5003662109375 180.58274841308594 417.7073059082031 179.73548889160156 C 416.94659423828125 179.63365173339844 398.40155029296875 178.40394592285156 397.9739685058594 172.5872039794922 C 393.7081298828125 170.7871551513672 389.9256896972656 176.406494140625 379.9736022949219 174.6212615966797 C 380.6087646484375 162.6369171142578 382.8713073730469 146.77197265625 392.6064758300781 139.116943359375 C 397.87261962890625 137.26585388183594 399.4178771972656 129.7008514404297 401.9391784667969 121.56399536132812 C 408.0308532714844 99.1932373046875 426.3316345214844 103.76744842529297 448.51263427734375 107.6922836303711" stroke-width="0.0" fill="url(#shape_11_fill)"/>
    <path d="M 602.9328002929688 127.562255859375 C 605.5064086914062 131.77871704101562 605.5162353515625 144.06239318847656 608.0187377929688 144.2284698486328 C 611.32275390625 145.3593292236328 612.0362548828125 148.5403289794922 615.6157836914062 152.41287231445312 C 618.2296142578125 149.8603973388672 618.3977661132812 141.8662567138672 621.30615234375 140.954833984375 C 623.2055053710938 137.4987030029297 625.5248413085938 137.4330596923828 627.9073486328125 140.2770233154297 C 627.6357421875 142.136962890625 629.1383056640625 144.70553588867188 629.0951538085938 147.31228637695312 C 632.119140625 149.7550048828125 631.7772216796875 151.1376190185547 636.818603515625 153.22409057617188 C 642.2056274414062 154.70484924316406 641.7100219726562 160.55931091308594 645.689453125 169.65313720703125 C 638.6762084960938 184.57289123535156 639.7286376953125 194.6789093017578 640.0853271484375 206.58023071289062 C 644.3379516601562 217.96717834472656 647.2318115234375 231.9630889892578 642.9077758789062 245.69271850585938 C 623.2486572265625 248.46630859375 611.2203369140625 249.0574188232422 579.5137939453125 259.5790100097656 C 570.7259521484375 247.82412719726562 573.2763061523438 232.54771423339844 573.8707275390625 218.98081970214844 C 568.1362915039062 209.6293182373047 572.2548217773438 168.96490478515625 583.1880493164062 169.8350830078125 C 597.3892822265625 163.20941162109375 599.37109375 144.0487823486328 599.7484741210938 142.16224670410156 C 595.9306030273438 139.4681854248047 596.7139892578125 136.63987731933594 602.9328002929688 127.562255859375" stroke-width="0.0" fill="url(#shape_12_fill)"/>
    <path d="M 410.3194580078125 176.58921813964844 C 420.63836669921875 173.7472686767578 432.54248046875 212.9322967529297 428.4024658203125 220.44061279296875 C 419.9698486328125 228.3235321044922 426.4359130859375 238.37379455566406 428.8331298828125 242.9111328125 C 430.23095703125 262.88800048828125 420.8788146972656 265.9284973144531 416.5553283691406 268.3018493652344 C 401.6338195800781 267.7289733886719 398.47076416015625 270.8262634277344 390.4703369140625 267.49542236328125 C 385.49981689453125 264.66754150390625 382.510986328125 265.8934326171875 380.15240478515625 265.4904479980469 C 375.75885009765625 263.0124816894531 375.522216796875 260.3804931640625 375.18988037109375 258.4109191894531 C 376.3883056640625 255.0719757080078 375.01666259765625 254.44444274902344 374.6724548339844 253.30599975585938 C 372.636474609375 254.55703735351562 370.37115478515625 250.86561584472656 368.75347900390625 251.7331085205078 C 359.9013366699219 248.0164031982422 366.5070495605469 229.13609313964844 367.5643615722656 220.89590454101562 C 368.9526672363281 218.67401123046875 372.3616027832031 202.85086059570312 381.35894775390625 203.21649169921875 C 379.085205078125 198.58871459960938 380.0072021484375 188.4817657470703 390.7782287597656 185.74412536621094 C 391.70257568359375 176.82969665527344 392.8757019042969 176.8958740234375 410.3194580078125 176.58921813964844" stroke-width="0.0" fill="url(#shape_13_fill)"/>
    <path d="M 509.0016174316406 66.8539810180664 C 512.624267578125 66.06267547607422 521.4144897460938 70.08063507080078 523.3274536132812 74.72306823730469 C 530.7257080078125 79.39986419677734 533.7431030273438 80.01834106445312 536.7006225585938 90.33438873291016 C 539.2988891601562 90.88577270507812 544.5418701171875 90.30206298828125 545.0235595703125 91.17030334472656 C 545.5335693359375 92.75621795654297 556.0258178710938 97.08785247802734 561.1616821289062 95.35433959960938 C 563.6555786132812 97.4878158569336 567.3436889648438 97.51393127441406 568.7413330078125 99.19537353515625 C 564.6536865234375 105.1263427734375 555.7482299804688 115.5396499633789 542.8151245117188 110.93905639648438 C 541.4087524414062 111.84956359863281 539.3011474609375 114.91053009033203 534.7948608398438 118.38987731933594 C 527.9247436523438 120.78746795654297 519.8118896484375 124.55552673339844 515.4328002929688 119.0915298461914 C 510.846435546875 119.79862976074219 501.4332580566406 125.44095611572266 499.04571533203125 125.03324890136719 C 497.0959167480469 128.41156005859375 493.6777038574219 128.3835906982422 489.4683837890625 127.52691650390625 C 489.5318603515625 121.91787719726562 468.8064270019531 118.90756225585938 468.08526611328125 117.917724609375 C 463.540283203125 117.73688507080078 462.95159912109375 116.74015045166016 462.0842590332031 115.94027709960938 C 469.0635681152344 116.5211410522461 471.7854309082031 110.30377960205078 478.21026611328125 105.681640625 C 475.1736755371094 92.39729309082031 473.13421630859375 87.75543212890625 475.2536926269531 82.12440490722656 C 474.5901184082031 70.93414306640625 475.34326171875 70.38674926757812 478.488037109375 66.50435638427734 C 478.9650573730469 64.18229675292969 482.6983337402344 64.25126647949219 484.62310791015625 63.30615997314453 C 495.1200256347656 63.745609283447266 501.8164367675781 61.440040588378906 509.0016174316406 66.8539810180664" stroke-width="0.0" fill="url(#shape_14_fill)"/>
    <path d="M 532.31787109375 160.05255126953125 C 543.8397827148438 162.794921875 544.11279296875 163.7208709716797 547.1430053710938 165.16546630859375 C 549.6608276367188 167.64089965820312 549.5870971679688 170.28758239746094 543.933349609375 180.02476501464844 C 541.9170532226562 189.7589569091797 536.8707275390625 231.18251037597656 536.468505859375 233.51296997070312 C 540.6041259765625 237.2255096435547 540.9315185546875 250.5172119140625 515.4984741210938 252.20530700683594 C 502.0244140625 251.29782104492188 483.1943664550781 244.92739868164062 487.9265441894531 230.62570190429688 C 476.9955139160156 218.16812133789062 478.6563720703125 208.01560974121094 482.82769775390625 200.85194396972656 C 486.81427001953125 197.44618225097656 488.54400634765625 197.567626953125 488.6869812011719 197.8665313720703 C 483.50579833984375 194.9680938720703 488.3613586425781 180.85421752929688 487.88873291015625 172.70736694335938 C 486.9056701660156 168.33705139160156 488.585205078125 165.86949157714844 491.9429931640625 167.2180633544922 C 505.6608581542969 178.7757568359375 511.1211853027344 184.16551208496094 522.7307739257812 172.72119140625 C 525.5515747070312 170.9596710205078 525.5410766601562 167.3096160888672 526.951904296875 165.09043884277344 C 526.1580810546875 159.1603546142578 528.3153076171875 157.5900115966797 532.31787109375 160.05255126953125" stroke-width="0.0" fill="url(#shape_15_fill)"/>
    <path d="M 651.8619384765625 110.08696746826172 C 654.0086059570312 110.43850708007812 663.2759399414062 121.77751922607422 660.1585083007812 130.23281860351562 C 664.6697998046875 134.88665771484375 664.9696044921875 141.9646759033203 673.3822021484375 148.5155487060547 C 676.7628784179688 179.0016326904297 673.48828125 211.60231018066406 674.5004272460938 260.1707763671875 C 673.370849609375 258.2676086425781 643.0443725585938 265.71624755859375 637.0243530273438 256.3575134277344 C 637.1605834960938 245.599365234375 641.24951171875 123.5548324584961 651.8619384765625 110.08696746826172" stroke-width="0.0" fill="url(#shape_16_fill)"/>
    <path d="M 600.9417114257812 129.79656982421875 C 603.169189453125 128.35513305664062 607.080810546875 132.0363311767578 606.3162231445312 134.00535583496094 C 608.2015380859375 135.05809020996094 607.4998779296875 140.35546875 609.6107788085938 143.20823669433594 C 626.825439453125 142.9986572265625 628.7344970703125 221.86810302734375 629.182861328125 258.19500732421875 C 592.0414428710938 262.79388427734375 577.730224609375 255.03269958496094 579.84716796875 236.66171264648438 C 563.957763671875 226.99264526367188 597.7598266601562 154.49612426757812 600.9417114257812 129.79656982421875" stroke-width="0.0" fill="url(#shape_17_fill)"/>
    <path d="M 320.6373596191406 186.3395233154297 C 320.56915283203125 186.52809143066406 322.38275146484375 189.5182647705078 320.2337646484375 197.29339599609375 C 333.0646667480469 193.48008728027344 335.5971984863281 192.4774627685547 337.8275146484375 195.4507598876953 C 341.3504333496094 199.97955322265625 346.37054443359375 197.88699340820312 353.6766357421875 195.4730987548828 C 358.0638427734375 194.4234619140625 358.8265686035156 195.84555053710938 357.191162109375 201.53182983398438 C 359.4089050292969 204.07028198242188 361.46478271484375 204.2838592529297 362.8234558105469 208.2028045654297 C 367.2552490234375 207.08511352539062 368.4861145019531 208.2339324951172 368.26336669921875 211.83517456054688 C 370.10198974609375 220.51895141601562 371.1575012207031 222.6403350830078 365.86370849609375 225.73231506347656 C 366.6158752441406 231.56448364257812 364.9394226074219 235.86972045898438 366.9040832519531 249.033203125 C 368.96051025390625 251.89566040039062 366.3759765625 256.2076721191406 358.02392578125 254.76966857910156 C 354.419677734375 255.5369415283203 329.9248352050781 254.91343688964844 322.3336181640625 255.34085083007812 C 313.399658203125 255.9758758544922 312.17669677734375 253.5504608154297 307.67584228515625 242.43551635742188 C 304.4512023925781 230.08709716796875 321.09478759765625 194.5615692138672 320.6373596191406 186.3395233154297" stroke-width="0.0" fill="url(#shape_18_fill)"/>
    <path d="M 478.54986572265625 217.07974243164062 C 495.4581604003906 248.44981384277344 506.68975830078125 259.6032409667969 488.9773864746094 277.4455261230469 C 470.7698669433594 279.1637878417969 444.005859375 261.4192810058594 442.13330078125 261.7289733886719 C 438.6331481933594 260.6477966308594 437.1224060058594 258.2613830566406 432.5223693847656 258.1199035644531 C 429.4660949707031 258.4734802246094 427.9186706542969 257.0856628417969 428.4220886230469 253.92047119140625 C 429.7047119140625 238.32949829101562 422.1045227050781 232.04339599609375 422.9559326171875 229.67019653320312 C 423.0096740722656 227.1259002685547 421.1790466308594 226.59266662597656 420.15447998046875 225.22708129882812 C 427.73199462890625 219.52919006347656 429.68634033203125 218.81350708007812 428.94781494140625 215.3238067626953 C 438.7159423828125 196.17478942871094 472.798095703125 198.4557342529297 478.54986572265625 217.07974243164062" stroke-width="0.0" fill="url(#shape_19_fill)"/>
    <path d="M 673.9080200195312 -2.9607365131378174 C 675.0576171875 32.85811233520508 674.5830688476562 64.76422119140625 674.349609375 97.23896026611328 C 669.5693969726562 96.19087982177734 652.5310668945312 87.385498046875 644.006103515625 90.05120849609375 C 638.6302490234375 89.549560546875 638.1611938476562 85.92720794677734 637.5582275390625 84.4572982788086 C 625.6521606445312 84.09016418457031 619.7699584960938 93.16673278808594 608.4767456054688 86.58580780029297 C 609.6006469726562 74.47298431396484 612.9442138671875 74.23760223388672 614.9249877929688 71.84770965576172 C 622.4971923828125 68.79434967041016 648.9833374023438 25.271713256835938 648.2803344726562 22.132177352905273 C 655.7435913085938 11.169926643371582 656.2739868164062 3.4877114295959473 668.254638671875 3.9233083724975586 C 669.80419921875 2.67449951171875 670.1525268554688 1.1158502101898193 673.9080200195312 -2.9607365131378174" stroke-width="0.0" fill="url(#shape_20_fill)"/>
    <path d="M 562.16748046875 155.93629455566406 C 569.8373413085938 156.542236328125 569.873291015625 162.1011962890625 574.4061279296875 165.18618774414062 C 585.2924194335938 168.2916717529297 575.6185913085938 231.23245239257812 577.56591796875 240.8480682373047 C 575.936767578125 244.7171630859375 573.9939575195312 246.9971923828125 573.9984130859375 256.14361572265625 C 557.9046630859375 252.3813934326172 543.0341186523438 251.58592224121094 540.05126953125 246.23638916015625 C 544.3460693359375 244.71401977539062 541.1205444335938 165.54541015625 555.0325927734375 157.94198608398438 C 555.642822265625 153.46063232421875 558.7078247070312 152.72802734375 562.16748046875 155.93629455566406" stroke-width="0.0" fill="url(#shape_21_fill)"/>
    <path d="M 215.07188415527344 209.59194946289062 C 232.72352600097656 209.5543975830078 233.12893676757812 241.9326629638672 219.84532165527344 255.67431640625 C 211.86318969726562 263.3336486816406 210.0491485595703 264.5718078613281 209.03854370117188 273.2974853515625 C 205.9642333984375 275.3758850097656 206.7638397216797 277.1321716308594 206.98397827148438 280.17694091796875 C 206.95179748535156 283.1173095703125 203.88763427734375 285.4529724121094 200.54336547851562 284.9265441894531 C 200.26425170898438 283.4498596191406 190.58177185058594 272.8726501464844 187.8214111328125 265.2452392578125 C 186.70794677734375 261.4764709472656 183.7628936767578 262.3339538574219 181.51718139648438 261.964111328125 C 180.7449951171875 260.6757507324219 179.9684600830078 260.531005859375 178.8161163330078 253.783203125 C 179.69644165039062 248.54354858398438 169.0921173095703 242.99000549316406 170.8212432861328 238.1752166748047 C 175.71266174316406 213.2219696044922 177.61282348632812 213.3332061767578 185.68589782714844 220.6206512451172 C 193.93495178222656 219.23960876464844 194.28379821777344 215.47401428222656 198.23814392089844 213.24853515625 C 187.5236053466797 207.99551391601562 187.16189575195312 202.1646728515625 197.240234375 197.3621063232422 C 213.720947265625 197.31396484375 214.76235961914062 200.2987060546875 215.07188415527344 209.59194946289062" stroke-width="0.0" fill="url(#shape_22_fill)"/>
    <path d="M 111.55784606933594 426.3752746582031 C 112.72491455078125 429.27764892578125 110.9998550415039 431.1881408691406 110.66644287109375 431.6047058105469 C 104.66692352294922 432.9339294433594 103.01498413085938 433.78369140625 91.87200927734375 432.9714050292969 C 89.76087951660156 435.965576171875 95.68270111083984 446.421630859375 91.62989807128906 452.1399841308594 C 78.66380310058594 444.9972229003906 46.938175201416016 447.9271240234375 24.999441146850586 449.6435852050781 C 14.010106086730957 446.26458740234375 13.878063201904297 439.7766418457031 17.86094093322754 436.4007568359375 C 34.24363327026367 427.642822265625 50.51404571533203 426.9917297363281 70.81291961669922 427.11773681640625 C 74.61537170410156 424.9461975097656 109.87418365478516 419.50421142578125 111.55784606933594 426.3752746582031" stroke-width="0.0" fill="url(#shape_23_fill)"/>
    <path d="M 194.25189208984375 123.49789428710938 C 199.91726684570312 124.7409896850586 210.64935302734375 144.3185577392578 214.38812255859375 145.20408630371094 C 215.59024047851562 148.1127471923828 218.52438354492188 149.71693420410156 220.19705200195312 153.5965118408203 C 227.07904052734375 158.4393768310547 248.37013244628906 178.39089965820312 244.64122009277344 199.51072692871094 C 239.20941162109375 199.5375518798828 235.57247924804688 187.02658081054688 232.6407470703125 180.66885375976562 C 234.61509704589844 185.9534149169922 233.31886291503906 196.2708282470703 231.1309814453125 196.8135986328125 C 225.74855041503906 199.18080139160156 225.2598876953125 202.36488342285156 220.36239624023438 208.5646209716797 C 215.1919708251953 207.65362548828125 213.6290740966797 199.40928649902344 213.9404296875 196.0540771484375 C 212.68588256835938 189.60159301757812 212.59347534179688 183.0636749267578 206.70962524414062 178.27667236328125 C 203.97369384765625 174.02719116210938 205.05517578125 173.02830505371094 205.59149169921875 166.7131805419922 C 201.84848022460938 147.5935516357422 200.52383422851562 147.607666015625 192.59848022460938 144.2474365234375 C 189.21046447753906 142.28985595703125 191.10926818847656 128.34925842285156 194.25189208984375 123.49789428710938" stroke-width="0.0" fill="url(#shape_24_fill)"/>
    <path d="M 595.90380859375 410.642578125 C 598.3406982421875 411.4689025878906 626.604736328125 408.83245849609375 628.5990600585938 415.4066162109375 C 628.2681274414062 421.05712890625 626.7881469726562 425.16717529296875 628.8968505859375 426.66217041015625 C 631.1464233398438 428.5828552246094 636.3583984375 427.5093994140625 638.6370239257812 437.5997009277344 C 617.4117431640625 446.7664489746094 577.5013427734375 439.7784118652344 573.7548828125 434.07012939453125 C 567.5473022460938 426.11334228515625 574.4697265625 419.8536682128906 576.3308715820312 413.9310302734375 C 579.650634765625 409.40411376953125 587.1405639648438 413.0882873535156 595.90380859375 410.642578125" stroke-width="0.0" fill="url(#shape_25_fill)"/>
    <path d="M 142.90753173828125 66.7083969116211 C 144.0796661376953 68.93202209472656 149.16944885253906 68.32888793945312 149.62957763671875 69.14107513427734 C 148.90463256835938 70.90050506591797 150.46200561523438 71.82498168945312 149.76290893554688 73.86738586425781 C 151.05679321289062 74.45072174072266 150.19227600097656 78.38211822509766 150.56591796875 80.91206359863281 C 152.35250854492188 89.29722595214844 152.83067321777344 97.65987396240234 153.9395751953125 104.10210418701172 C 153.51797485351562 107.62061309814453 155.1078643798828 108.52106475830078 155.1973114013672 111.43324279785156 C 158.17918395996094 123.41561126708984 155.37057495117188 133.51300048828125 150.37774658203125 133.58448791503906 C 142.9900665283203 126.90453338623047 137.18959045410156 120.26448059082031 125.78421783447266 117.20730590820312 C 122.51471710205078 114.27204132080078 124.57694244384766 109.67498016357422 126.80359649658203 106.9881362915039 C 128.8243865966797 106.84942626953125 128.8754119873047 105.28131103515625 132.63287353515625 104.6729736328125 C 138.9364776611328 96.44004821777344 134.80950927734375 93.14522552490234 133.29019165039062 90.02811431884766 C 134.20809936523438 88.89579772949219 139.29624938964844 87.23677825927734 140.05850219726562 85.31953430175781 C 138.09683227539062 84.74848175048828 138.70240783691406 77.64505004882812 139.49508666992188 77.47840881347656 C 143.55142211914062 76.59685516357422 142.6461639404297 70.31839752197266 142.90753173828125 66.7083969116211" stroke-width="0.0" fill="url(#shape_26_fill)"/>
    <path d="M 140.60903930664062 67.96541595458984 C 148.88124084472656 67.11322784423828 149.9083251953125 68.32840728759766 148.5910186767578 76.49270629882812 C 150.87680053710938 77.8316650390625 151.22134399414062 80.46009063720703 154.3897705078125 85.0245132446289 C 150.44432067871094 90.97111511230469 154.4683837890625 94.02472686767578 151.82664489746094 104.75534057617188 C 153.1754913330078 105.69365692138672 153.31570434570312 109.34329986572266 155.4930877685547 113.00179290771484 C 152.91844177246094 116.7464370727539 157.60321044921875 122.03063201904297 154.68006896972656 126.24574279785156 C 152.6172332763672 132.0384063720703 151.3435516357422 133.17298889160156 147.46434020996094 133.78121948242188 C 141.56236267089844 131.8336639404297 128.0255584716797 120.9973373413086 129.56085205078125 118.26993560791016 C 124.86847686767578 118.69015502929688 122.2340087890625 114.03815460205078 128.26295471191406 110.4412841796875 C 123.40509796142578 108.4988784790039 124.19617462158203 105.50048065185547 133.46624755859375 107.14879608154297 C 136.43409729003906 105.67036437988281 133.981201171875 92.86225128173828 133.64605712890625 89.45867919921875 C 139.5353546142578 87.49394989013672 138.7978973388672 84.79771423339844 138.5478973388672 81.61396026611328 C 139.0783233642578 77.50994873046875 140.3655548095703 76.80233764648438 141.96449279785156 77.33258056640625 C 145.55197143554688 72.9850845336914 142.50259399414062 70.48365020751953 140.60903930664062 67.96541595458984" stroke-width="0.0" fill="url(#shape_27_fill)"/>
    <path d="M -0.31812459230422974 -0.27069148421287537 C 4.700242519378662 0.3810780346393585 9.647381782531738 -0.5256158113479614 19.904512405395508 -0.8323367834091187 C 23.830711364746094 -0.19458097219467163 24.264020919799805 1.3329710960388184 41.583740234375 8.768194198608398 C 37.58119583129883 25.54995346069336 28.10845947265625 26.011913299560547 27.138093948364258 23.728858947753906 C 43.57712173461914 21.767549514770508 51.19060134887695 21.931737899780273 52.67774200439453 45.77360534667969 C 37.129886627197266 48.06373977661133 30.54668617248535 48.38862609863281 22.250240325927734 45.1117057800293 C 16.226154327392578 39.04740905761719 11.272381782531738 38.331825256347656 10.053309440612793 33.709503173828125 C 9.94431209564209 35.71609115600586 14.179741859436035 39.50593948364258 15.128116607666016 41.15789794921875 C 15.59871768951416 42.15128707885742 15.357468605041504 44.73728942871094 18.15924072265625 47.88302993774414 C 20.06967544555664 51.07183074951172 18.75609016418457 52.308589935302734 20.61546516418457 57.15640640258789 C 20.78280258178711 63.68114471435547 14.626062393188477 65.64418029785156 8.740802764892578 61.31685256958008 C 5.496702194213867 60.88457107543945 3.534268379211426 59.14112854003906 0.32466256618499756 59.43367004394531 C -0.31764930486679077 39.77890396118164 -0.3248611092567444 19.62828254699707 -0.31812459230422974 -0.27069148421287537" stroke-width="0.0" fill="url(#shape_28_fill)"/>
    <path d="M 299.4729309082031 197.42433166503906 C 297.5323181152344 199.25485229492188 300.0087585449219 202.13906860351562 301.5186767578125 207.971923828125 C 299.1474609375 212.5808868408203 323.0426025390625 228.07901000976562 315.54437255859375 255.28672790527344 C 311.7792053222656 254.2751922607422 310.4684143066406 255.698486328125 304.5212707519531 255.00650024414062 C 300.8734130859375 258.2474060058594 295.036376953125 258.3800964355469 281.09954833984375 256.0696716308594 C 280.0241394042969 228.5518035888672 285.1799621582031 217.1554412841797 299.4729309082031 197.42433166503906" stroke-width="0.0" fill="url(#shape_29_fill)"/>
    <path d="M 0.0027641146443784237 -0.013020046055316925 C 4.480344295501709 0.4458887577056885 9.621580123901367 -0.41456952691078186 14.581223487854004 0.12677477300167084 C 15.765652656555176 0.49171212315559387 16.280649185180664 4.988140106201172 16.2762393951416 8.04882526397705 C 18.906116485595703 10.840404510498047 21.96555519104004 18.907676696777344 27.02729034423828 20.742290496826172 C 27.124462127685547 22.49390411376953 24.414875030517578 26.79169273376465 24.615039825439453 32.05001449584961 C 20.241735458374023 32.078346252441406 14.04214096069336 30.30198097229004 6.965343475341797 33.907386779785156 C 9.084421157836914 35.891239166259766 8.788804054260254 38.728816986083984 10.86230754852295 40.461666107177734 C 9.987832069396973 44.59963607788086 7.705224514007568 50.18157196044922 11.543936729431152 53.83682632446289 C 17.708026885986328 51.4539680480957 19.523714065551758 51.97261047363281 18.262182235717773 58.49862289428711 C 11.30908203125 60.4185791015625 9.410530090332031 62.550498962402344 0.20870907604694366 61.438289642333984 C -0.418591171503067 39.9627799987793 -0.35445770621299744 19.75454330444336 0.0027641146443784237 -0.013020046055316925" stroke-width="0.0" fill="url(#shape_30_fill)"/>
    <path d="M 547.4443359375 70.30055236816406 C 545.8858032226562 77.20761108398438 576.7353515625 89.4990234375 581.4888305664062 91.52218627929688 C 580.8081665039062 92.55826568603516 577.2546997070312 93.28108215332031 576.8870849609375 98.16390991210938 C 573.2615356445312 100.7096939086914 572.0745849609375 99.81578826904297 569.2818603515625 100.02515411376953 C 567.3531494140625 95.6809310913086 545.2879638671875 96.49300384521484 538.5914306640625 88.42032623291016 C 538.592041015625 85.44764709472656 537.6588745117188 83.20938110351562 535.6669311523438 82.42656707763672 C 534.70654296875 79.67529296875 528.2947998046875 79.66323852539062 527.058837890625 78.38257598876953 C 525.2822875976562 75.78849792480469 527.757080078125 70.85015869140625 532.6282348632812 69.2742919921875 C 538.44921875 66.68463897705078 541.2355346679688 71.26616668701172 547.4443359375 70.30055236816406" stroke-width="0.0" fill="url(#shape_31_fill)"/>
    <path d="M 447.60467529296875 264.3008728027344 C 450.68182373046875 265.25994873046875 451.3052062988281 266.7181396484375 455.92559814453125 267.6996154785156 C 460.5113830566406 267.6551208496094 465.32232666015625 270.3759765625 469.92431640625 273.1952819824219 C 470.43389892578125 275.6311950683594 471.8265686035156 276.8916015625 471.6768798828125 280.7684020996094 C 450.99359130859375 288.723876953125 429.5384521484375 284.8833312988281 415.9079284667969 284.71209716796875 C 413.42120361328125 273.9110412597656 415.1719970703125 272.3441162109375 415.6493225097656 268.2258605957031 C 418.1906433105469 267.2078552246094 417.7760925292969 264.8060607910156 419.3522033691406 263.0885314941406 C 433.8278503417969 254.130126953125 445.7091064453125 254.7797393798828 447.60467529296875 264.3008728027344" stroke-width="0.0" fill="url(#shape_32_fill)"/>
    <path d="M 272.04266357421875 192.58494567871094 C 276.7334899902344 191.83346557617188 285.6173400878906 243.67489624023438 280.8650207519531 244.7061004638672 C 279.2915954589844 247.31271362304688 273.84765625 246.87600708007812 269.767333984375 248.55099487304688 C 266.4093017578125 245.96224975585938 266.7616882324219 242.0656280517578 261.1736755371094 240.737060546875 C 254.18746948242188 210.3818359375 262.28192138671875 207.0987548828125 272.04266357421875 192.58494567871094" stroke-width="0.0" fill="url(#shape_33_fill)"/>
    <path d="M 261.96368408203125 417.3813781738281 C 260.7715759277344 423.6081237792969 265.1771240234375 430.2344970703125 267.7906188964844 440.2495422363281 C 262.1854248046875 441.45648193359375 261.074951171875 446.5923156738281 255.4833221435547 447.8175964355469 C 246.0502471923828 445.7607116699219 218.37159729003906 448.1465148925781 212.5757293701172 444.727783203125 C 213.02471923828125 436.99578857421875 213.95974731445312 436.2222900390625 215.94102478027344 434.491455078125 C 216.19798278808594 433.4278259277344 225.0203094482422 433.4660339355469 226.60975646972656 430.3495788574219 C 228.64682006835938 419.9783020019531 239.62757873535156 420.44366455078125 261.96368408203125 417.3813781738281" stroke-width="0.0" fill="url(#shape_34_fill)"/>
    <path d="M 106.11080169677734 69.80510711669922 C 109.61164855957031 69.84085845947266 111.60906219482422 79.0200424194336 112.27932739257812 84.72740936279297 C 117.28833770751953 85.3507308959961 117.34088897705078 110.27567291259766 117.8157730102539 110.8265151977539 C 116.81871795654297 112.6849594116211 111.59971618652344 114.4776382446289 107.08109283447266 123.77621459960938 C 104.74897766113281 117.19880676269531 96.52648162841797 118.80778503417969 90.73230743408203 112.27669525146484 C 88.98146057128906 85.50796508789062 104.75875854492188 84.43868255615234 106.11080169677734 69.80510711669922" stroke-width="0.0" fill="url(#shape_35_fill)"/>
    <path d="M 451.466064453125 178.59011840820312 C 453.31298828125 176.40695190429688 456.4410095214844 177.69041442871094 455.6935119628906 180.24407958984375 C 456.4175720214844 180.63462829589844 455.99365234375 185.0855255126953 456.7344055175781 185.8216094970703 C 455.7680969238281 188.62423706054688 458.65631103515625 194.3379669189453 459.85284423828125 204.7513427734375 C 459.3657531738281 208.46669006347656 452.0514831542969 209.30433654785156 445.7436828613281 204.49172973632812 C 441.9547119140625 207.36349487304688 440.6253967285156 208.8367156982422 433.26385498046875 210.96690368652344 C 434.33062744140625 209.91436767578125 437.26141357421875 189.29190063476562 438.7812194824219 179.73410034179688 C 440.4084167480469 179.60772705078125 444.2409973144531 181.03282165527344 446.5262756347656 180.6541290283203 C 447.74261474609375 179.2952117919922 450.091552734375 179.54718017578125 451.466064453125 178.59011840820312" stroke-width="0.0" fill="url(#shape_36_fill)"/>
    <path d="M 557.7485961914062 84.6748275756836 C 562.4756469726562 80.97755432128906 578.5486450195312 82.5149154663086 580.1156005859375 85.84306335449219 C 581.4569091796875 83.8611068725586 586.37255859375 85.48725891113281 587.209228515625 88.69189453125 C 595.5634155273438 99.31407165527344 587.8834838867188 107.64775085449219 574.3840942382812 100.27297973632812 C 573.789794921875 99.41846466064453 552.5704345703125 95.29594421386719 543.350341796875 85.41189575195312 C 538.556396484375 85.42618560791016 537.8004760742188 81.87006378173828 535.7450561523438 80.17100524902344 C 542.8381958007812 75.02093505859375 547.6593627929688 78.46827697753906 557.7485961914062 84.6748275756836" stroke-width="0.0" fill="url(#shape_37_fill)"/>
    <path d="M 252.12130737304688 208.30345153808594 C 265.157470703125 211.30809020996094 261.60125732421875 240.6631622314453 260.4147644042969 247.8517608642578 C 259.3354797363281 254.58636474609375 250.9165802001953 254.44313049316406 249.14599609375 257.57293701171875 C 234.31118774414062 237.3971405029297 240.6211395263672 213.51620483398438 252.12130737304688 208.30345153808594" stroke-width="0.0" fill="url(#shape_38_fill)"/>
    <path d="M 443.30560302734375 263.5548400878906 C 445.9841613769531 263.46881103515625 449.1430358886719 266.5975341796875 447.732177734375 270.0533752441406 C 444.2336120605469 270.348876953125 442.6107482910156 277.0595703125 440.924560546875 279.0509948730469 C 439.8305358886719 286.0885925292969 423.8935852050781 284.8292541503906 418.41461181640625 276.2013854980469 C 414.5858459472656 276.7597351074219 413.29241943359375 274.27276611328125 415.8805847167969 271.64959716796875 C 415.16650390625 269.9450988769531 419.23016357421875 262.2052001953125 425.8994445800781 258.2759094238281 C 427.2149353027344 256.3898620605469 438.0755920410156 257.9961853027344 443.30560302734375 263.5548400878906" stroke-width="0.0" fill="url(#shape_39_fill)"/>
    <path d="M 407.7315368652344 409.7887878417969 C 408.68310546875 409.884521484375 416.7835693359375 419.03839111328125 413.6732177734375 424.2026062011719 C 400.36553955078125 436.1692810058594 385.5295104980469 420.2278747558594 376.6175842285156 420.84564208984375 C 371.0821838378906 417.9540710449219 371.2465515136719 416.5563659667969 372.5898742675781 410.46746826171875 C 375.1054992675781 401.1923828125 395.0379333496094 403.616943359375 407.7315368652344 409.7887878417969" stroke-width="0.0" fill="url(#shape_40_fill)"/>
    <path d="M 66.44541931152344 427.57891845703125 C 67.3936767578125 429.1125793457031 64.80270385742188 434.52239990234375 58.225921630859375 435.8104553222656 C 58.05088424682617 436.928955078125 40.082645416259766 436.3346862792969 31.819541931152344 442.76824951171875 C 29.213747024536133 443.10662841796875 27.04802894592285 444.006591796875 17.20808219909668 443.19183349609375 C 16.445100784301758 440.6488342285156 17.781326293945312 439.20574951171875 17.27555274963379 437.8686218261719 C 34.59516525268555 427.4034423828125 54.80994415283203 427.7959289550781 66.44541931152344 427.57891845703125" stroke-width="0.0" fill="url(#shape_41_fill)"/>
    <path d="M 278.25885009765625 380.976806640625 C 284.6735534667969 381.27978515625 297.9635009765625 381.1907958984375 304.4611511230469 385.1488952636719 C 297.3287658691406 394.96044921875 299.3278503417969 400.92120361328125 294.3887634277344 404.98968505859375 C 291.73699951171875 399.720947265625 265.53118896484375 405.20330810546875 258.5854187011719 406.50299072265625 C 249.44110107421875 404.19378662109375 246.93812561035156 393.9134216308594 249.51463317871094 382.4749450683594 C 260.8708801269531 381.08538818359375 267.42315673828125 382.1470947265625 278.25885009765625 380.976806640625" stroke-width="0.0" fill="url(#shape_42_fill)"/>
    <path d="M 222.69459533691406 214.89068603515625 C 223.89781188964844 213.6846466064453 235.12384033203125 213.1520538330078 239.7859344482422 215.3883056640625 C 242.0574951171875 221.4073944091797 247.91114807128906 240.17874145507812 249.7066650390625 266.6184997558594 C 248.49176025390625 272.2826843261719 240.75064086914062 272.48211669921875 209.63729858398438 272.2423095703125 C 206.6063995361328 266.5148620605469 205.7714080810547 257.0865173339844 216.9761505126953 247.9178924560547 C 219.41973876953125 246.47215270996094 218.1184539794922 226.424072265625 222.69459533691406 214.89068603515625" stroke-width="0.0" fill="url(#shape_43_fill)"/>
    <path d="M 483.80419921875 395.74273681640625 C 486.8089599609375 399.80316162109375 485.82208251953125 400.9859313964844 483.51971435546875 401.161865234375 C 473.431884765625 407.1490783691406 451.1646423339844 406.7561340332031 450.248779296875 407.6544189453125 C 448.06787109375 404.4149169921875 451.5927734375 396.17242431640625 453.6098937988281 396.4869079589844 C 463.5256652832031 393.0867004394531 472.3395080566406 392.71759033203125 483.80419921875 395.74273681640625" stroke-width="0.0" fill="url(#shape_44_fill)"/>
    <path d="M 45.82392883300781 407.9710693359375 C 45.34034729003906 408.6936340332031 35.74739456176758 411.497802734375 34.00166702270508 413.3363037109375 C 32.675045013427734 414.5722961425781 32.369449615478516 416.0360107421875 28.746442794799805 415.5841064453125 C 27.66478157043457 417.32794189453125 25.068279266357422 417.9339599609375 21.57175636291504 420.52972412109375 C 18.089473724365234 420.1822814941406 0.2677515149116516 417.2825012207031 -0.7291024327278137 420.5545654296875 C 1.7568060159683228 419.6308288574219 -0.7022740840911865 411.1505432128906 0.6786227822303772 410.4023742675781 C 8.098101615905762 408.90948486328125 45.455570220947266 406.75225830078125 45.82392883300781 407.9710693359375" stroke-width="0.0" fill="url(#shape_45_fill)"/>
    <path d="M 451.9513854980469 175.15499877929688 C 454.599609375 174.9420166015625 464.5587463378906 198.86959838867188 465.7072448730469 200.44090270996094 C 462.595458984375 209.59732055664062 451.677734375 209.53074645996094 449.4716491699219 206.70721435546875 C 448.3244934082031 203.25161743164062 449.0382385253906 198.31423950195312 448.8491516113281 195.30010986328125 C 447.9515686035156 194.5540313720703 447.60009765625 192.14093017578125 448.5113525390625 188.0192108154297 C 451.0178527832031 186.64991760253906 450.7278747558594 182.98484802246094 451.9513854980469 175.15499877929688" stroke-width="0.0" fill="url(#shape_46_fill)"/>
    <path d="M 372.9529724121094 185.33511352539062 C 378.9389343261719 195.8018341064453 380.24615478515625 202.4427032470703 371.39276123046875 206.1061248779297 C 365.8646545410156 206.82313537597656 364.772216796875 204.85585021972656 362.0405578613281 204.7624053955078 C 345.97894287109375 208.40870666503906 342.51507568359375 201.01707458496094 353.993896484375 188.3817138671875 C 356.6556701660156 184.96298217773438 358.36944580078125 184.41131591796875 368.10308837890625 185.439697265625 C 368.962646484375 183.6322021484375 372.7926025390625 183.415771484375 372.9529724121094 185.33511352539062" stroke-width="0.0" fill="url(#shape_47_fill)"/>
    <path d="M 471.0443115234375 263.6873474121094 C 475.17041015625 267.7398376464844 480.6241455078125 268.69158935546875 480.11419677734375 284.7031555175781 C 465.2005615234375 287.4820251464844 452.5565185546875 286.27020263671875 443.8057861328125 284.9302062988281 C 439.3054504394531 282.2328796386719 440.00018310546875 276.95806884765625 441.1792297363281 276.45794677734375 C 448.0066833496094 266.7372741699219 455.4934997558594 263.60498046875 471.0443115234375 263.6873474121094" stroke-width="0.0" fill="url(#shape_48_fill)"/>
    <path d="M 177.1919403076172 117.40675354003906 C 178.1471710205078 115.63011169433594 181.8555908203125 116.22079467773438 182.68280029296875 117.28977966308594 C 184.68133544921875 120.25291442871094 183.85130310058594 122.35176849365234 184.7471923828125 122.85873413085938 C 179.5888671875 126.67132568359375 185.7823944091797 136.53558349609375 183.02915954589844 139.8363037109375 C 181.4358673095703 146.51925659179688 172.8061981201172 146.19688415527344 171.9258270263672 146.68072509765625 C 171.4903106689453 126.99847412109375 170.64833068847656 124.6128158569336 177.1919403076172 117.40675354003906" stroke-width="0.0" fill="url(#shape_49_fill)"/>
    <path d="M 333.8547058105469 428.0867919921875 C 337.2569274902344 428.6340026855469 341.2851257324219 429.002197265625 343.0146179199219 431.9493103027344 C 346.36248779296875 435.5938415527344 345.16143798828125 437.2271728515625 342.45654296875 437.6011962890625 C 342.8392028808594 446.3770751953125 325.0087890625 448.4296875 323.1895446777344 442.6662292480469 C 319.4449462890625 436.3738708496094 318.1095275878906 432.9630126953125 309.3316345214844 429.24822998046875 C 321.7682189941406 427.00140380859375 328.764892578125 428.5625 333.8547058105469 428.0867919921875" stroke-width="0.0" fill="url(#shape_50_fill)"/>
    <path d="M 302.58966064453125 388.8942565917969 C 300.2587585449219 393.38775634765625 294.1746826171875 398.3644714355469 290.8803405761719 399.03564453125 C 278.7648010253906 397.8743591308594 278.6568908691406 398.4701843261719 271.3578186035156 402.57379150390625 C 271.0914306640625 401.61468505859375 269.6485595703125 398.9667053222656 271.1224670410156 397.48394775390625 C 269.97576904296875 395.5104675292969 273.0272521972656 388.0850524902344 280.38238525390625 388.42156982421875 C 283.7965393066406 385.8951110839844 287.9761962890625 391.5448913574219 302.58966064453125 388.8942565917969" stroke-width="0.0" fill="url(#shape_51_fill)"/>
    <path d="M 268.96484375 183.77496337890625 C 275.91107177734375 195.1199188232422 277.8692321777344 207.6883544921875 279.884521484375 217.29127502441406 C 271.5021057128906 210.3551025390625 269.1850891113281 208.07493591308594 260.9881591796875 215.56289672851562 C 257.4875183105469 207.62042236328125 263.8400573730469 196.8787078857422 266.4955749511719 195.2737274169922 C 269.6794738769531 194.25787353515625 268.97479248046875 191.70176696777344 268.96484375 183.77496337890625" stroke-width="0.0" fill="url(#shape_52_fill)"/>
    <path d="M 218.27784729003906 409.5303955078125 C 215.91404724121094 410.9591369628906 215.61497497558594 413.2613525390625 214.23814392089844 414.0413513183594 C 214.682373046875 421.79315185546875 191.25531005859375 424.2685241699219 187.50917053222656 415.5665283203125 C 186.2686309814453 405.6793518066406 206.2345733642578 400.723388671875 218.27784729003906 409.5303955078125" stroke-width="0.0" fill="url(#shape_53_fill)"/>
    <path d="M 205.84742736816406 424.6286926269531 C 205.51962280273438 425.2835388183594 206.13804626464844 428.276611328125 204.57542419433594 429.4232482910156 C 194.52426147460938 430.2641296386719 178.8199005126953 430.7619934082031 177.9530792236328 432.6749572753906 C 176.7492218017578 430.950927734375 178.24610900878906 425.9521179199219 176.82325744628906 423.9002380371094 C 186.24949645996094 418.49615478515625 194.44508361816406 422.5600280761719 205.84742736816406 424.6286926269531" stroke-width="0.0" fill="url(#shape_54_fill)"/>
    <path d="M 269.2383117675781 246.47073364257812 C 275.43218994140625 244.90103149414062 276.6693115234375 246.6323699951172 280.6626892089844 245.5252227783203 C 280.8978576660156 250.9689483642578 280.2712707519531 252.4214630126953 285.5971374511719 261.048828125 C 263.45819091796875 257.94866943359375 262.9232177734375 257.244140625 252.97406005859375 261.6869201660156 C 254.87564086914062 248.1768341064453 255.86773681640625 247.22903442382812 258.6354675292969 245.20687866210938 C 260.39971923828125 239.44334411621094 266.41253662109375 239.7606658935547 269.2383117675781 246.47073364257812" stroke-width="0.0" fill="url(#shape_55_fill)"/>
    <path d="M 275.7733154296875 353.7119140625 C 278.27392578125 363.7254943847656 283.2427978515625 363.29827880859375 284.5694274902344 368.07232666015625 C 285.38623046875 369.2352600097656 285.95574951171875 371.8390808105469 285.74908447265625 380.9880676269531 C 275.8852233886719 379.1753845214844 263.02978515625 382.03436279296875 245.06961059570312 383.2480773925781 C 240.7791290283203 382.1424865722656 240.96192932128906 360.2755126953125 241.8568115234375 355.5418701171875 C 250.47291564941406 354.0870666503906 257.6270751953125 353.07098388671875 275.7733154296875 353.7119140625" stroke-width="0.0" fill="url(#shape_56_fill)"/>
    <path d="M 408.987060546875 270.8464660644531 C 415.50390625 269.1374816894531 418.055908203125 273.40960693359375 420.2889709472656 279.869384765625 C 412.7937316894531 287.19268798828125 403.3073425292969 283.373291015625 382.2269287109375 279.8087158203125 C 380.5716247558594 265.357421875 389.3564147949219 263.5416259765625 408.987060546875 270.8464660644531" stroke-width="0.0" fill="url(#shape_57_fill)"/>
    <path d="M 632.0502319335938 351.7157897949219 C 632.9799194335938 354.8776550292969 659.7483520507812 353.745849609375 668.6343383789062 353.930419921875 C 668.4901733398438 358.485107421875 662.8753662109375 360.602783203125 660.17041015625 357.3876953125 C 650.6822509765625 355.4811096191406 634.3954467773438 360.1753234863281 631.5046997070312 360.7195739746094 C 627.7821044921875 357.0962829589844 629.3317260742188 353.5792541503906 632.0502319335938 351.7157897949219" stroke-width="0.0" fill="url(#shape_58_fill)"/>
    <path d="M 341.2948913574219 385.0406494140625 C 342.7959289550781 390.26397705078125 358.1291809082031 391.7705383300781 359.185791015625 394.7303771972656 C 356.5145568847656 398.2951965332031 339.30596923828125 401.9307861328125 338.4503173828125 399.5257568359375 C 335.13800048828125 399.6125183105469 333.0785827636719 398.77740478515625 331.860595703125 396.5368957519531 C 331.9867858886719 394.93994140625 330.75439453125 393.4737243652344 332.342041015625 390.6081237792969 C 333.106689453125 385.0544128417969 336.71661376953125 384.15313720703125 341.2948913574219 385.0406494140625" stroke-width="0.0" fill="url(#shape_59_fill)"/>
    <path d="M 459.8862609863281 363.4225158691406 C 462.600830078125 364.9515686035156 472.3033752441406 370.0344543457031 473.11431884765625 374.1066589355469 C 471.7957763671875 376.18963623046875 470.33282470703125 376.8652648925781 463.09466552734375 375.91351318359375 C 458.5918273925781 377.0992126464844 457.7193603515625 376.9398498535156 452.7320861816406 370.9959716796875 C 453.20062255859375 369.696044921875 459.82061767578125 365.5821228027344 459.8862609863281 363.4225158691406" stroke-width="0.0" fill="url(#shape_60_fill)"/>
    <path d="M 435.0500793457031 432.8581237792969 C 440.1235656738281 434.3045654296875 442.4676513671875 436.44915771484375 442.01934814453125 438.85870361328125 C 440.400634765625 441.6982727050781 429.5465393066406 440.4148864746094 425.75958251953125 442.4494934082031 C 422.4795227050781 438.74871826171875 423.9507751464844 434.5790100097656 413.07525634765625 425.797119140625 C 428.1033020019531 429.3241271972656 431.55999755859375 434.25592041015625 435.0500793457031 432.8581237792969" stroke-width="0.0" fill="url(#shape_61_fill)"/>
    <path d="M 185.42430114746094 411.4510192871094 C 186.26451110839844 413.93170166015625 185.00790405273438 414.7928771972656 186.9242706298828 417.72344970703125 C 184.8645477294922 420.17657470703125 183.40028381347656 419.5213928222656 182.48703002929688 419.7128601074219 C 180.80679321289062 421.64501953125 174.42153930664062 420.29522705078125 171.3024444580078 420.202880859375 C 169.54421997070312 417.8363342285156 169.76185607910156 415.6332702636719 173.75320434570312 413.31158447265625 C 176.4171600341797 412.4547119140625 181.26747131347656 410.7175598144531 185.42430114746094 411.4510192871094" stroke-width="0.0" fill="url(#shape_62_fill)"/>
    <path d="M 332.35205078125 418.59686279296875 C 334.85699462890625 426.1285705566406 329.8890075683594 427.9627380371094 327.2744445800781 425.99652099609375 C 324.5890808105469 427.775146484375 322.9978332519531 426.73126220703125 320.74072265625 427.5967712402344 C 318.7630920410156 426.0322265625 319.7125549316406 419.9860534667969 317.596435546875 418.45660400390625 C 318.8291015625 420.0148010253906 326.1170959472656 419.07965087890625 332.35205078125 418.59686279296875" stroke-width="0.0" fill="url(#shape_63_fill)"/>
    <path d="M 55.39683151245117 273.3045349121094 C 56.555633544921875 269.4792175292969 66.08072662353516 269.87408447265625 65.95968627929688 278.30474853515625 C 58.994266510009766 279.06915283203125 53.696372985839844 272.9700012207031 48.05891799926758 276.1337890625 C 49.76316833496094 272.9856872558594 52.342498779296875 272.4754333496094 55.39683151245117 273.3045349121094" stroke-width="0.0" fill="url(#shape_64_fill)"/>
    <path d="M 304.49365234375 439.02099609375 C 304.52099609375 437.2438659667969 306.0574645996094 436.17315673828125 313.0595703125 437.2569885253906 C 314.7616271972656 438.8858337402344 313.08575439453125 441.5098876953125 311.47998046875 442.52947998046875 C 307.9255676269531 445.36578369140625 306.6599426269531 444.24066162109375 305.2603759765625 444.6307067871094 C 302.8140563964844 441.65814208984375 302.7215576171875 439.7532043457031 304.49365234375 439.02099609375" stroke-width="0.0" fill="url(#shape_65_fill)"/>
    <path d="M -0.42083409428596497 -0.39472082257270813 C 224.48843383789062 -0.0947495549917221 443.9594421386719 0.40761739015579224 673.0064086914062 0.695517361164093 C 673.6907958984375 153.09091186523438 674.5899658203125 295.89129638671875 673.5692749023438 445.4928894042969 C 450.4950866699219 446.323974609375 230.66200256347656 446.24908447265625 0.5676367282867432 445.3323974609375 C 0.2481343001127243 297.00067138671875 -0.10228744894266129 148.9062957763672 -0.42083409428596497 -0.39472082257270813" stroke-width="0.0" fill="url(#shape_66_fill)"/>
    <path d="M -0.9910929799079895 -0.14653320610523224 C 222.4813995361328 -0.11176937073469162 443.37066650390625 0.3549991846084595 672.9968872070312 0.047315604984760284 C 673.7965698242188 153.31922912597656 674.6477661132812 295.2221984863281 673.284912109375 445.39453125 C 450.72613525390625 446.4064636230469 230.8011474609375 446.3001403808594 0.7023522853851318 445.2352294921875 C 0.17927008867263794 297.02667236328125 -0.2331683486700058 148.77688598632812 -0.9910929799079895 -0.14653320610523224" stroke-width="0.0" fill="url(#shape_67_fill)"/>
    <path d="M -0.6461314558982849 -0.18736203014850616 C 222.79537963867188 -0.11158747971057892 442.45806884765625 0.4897620677947998 673.0018310546875 -0.17183923721313477 C 673.7908325195312 153.305908203125 674.64794921875 295.2256774902344 673.2906494140625 445.39776611328125 C 450.7494201660156 446.4078369140625 230.84214782714844 446.29949951171875 1.2600436210632324 445.2126159667969 C 0.512782096862793 295.5596618652344 0.06801863014698029 148.50100708007812 -0.6461314558982849 -0.18736203014850616" stroke-width="0.0" fill="url(#shape_68_fill)"/>
  </g>
</svg>
