<?xml version="1.0" ?>
<svg xmlns="http://www.w3.org/2000/svg" version="1.1" width="674" height="446">
  <defs>
    <radialGradient id="shape_0_fill" cx="0.5385756676557863" cy="0.7443946188340808" r="0.27474543178116884">
      <stop offset="1.6370079e-07" stop-color="rgb(50, 51, 23)" stop-opacity="0.9999966621398926"/>
      <stop offset="1.0" stop-color="rgb(39, 39, 12)" stop-opacity="1.0"/>
    </radialGradient>
    <radialGradient id="shape_1_fill" cx="0.5385756676557863" cy="0.7488789237668162" r="0.2041171835155091">
      <stop offset="0.0" stop-color="rgb(47, 47, 21)" stop-opacity="1.0"/>
      <stop offset="0.9991275" stop-color="rgb(26, 26, 0)" stop-opacity="1.0"/>
    </radialGradient>
    <radialGradient id="shape_2_fill" cx="0.09792284866468842" cy="0.7376681614349776" r="0.22062588021026522">
      <stop offset="0.0" stop-color="rgb(30, 90, 182)" stop-opacity="1.0"/>
      <stop offset="1.0" stop-color="rgb(7, 67, 194)" stop-opacity="1.0"/>
    </radialGradient>
    <radialGradient id="shape_3_fill" cx="0.2744807121661721" cy="0.21524665387756622" r="0.1251882332368845">
      <stop offset="0.0" stop-color="rgb(56, 68, 29)" stop-opacity="1.0"/>
      <stop offset="1.0" stop-color="rgb(52, 64, 26)" stop-opacity="1.0"/>
    </radialGradient>
    <radialGradient id="shape_4_fill" cx="0.1543026706231454" cy="0.9977578475336323" r="0.10288926755639141">
      <stop offset="0.0" stop-color="rgb(81, 79, 86)" stop-opacity="1.0"/>
      <stop offset="1.0" stop-color="rgb(81, 79, 86)" stop-opacity="1.0"/>
    </radialGradient>
    <radialGradient id="shape_5_fill" cx="0.14836795252225518" cy="0.2399103139013453" r="0.11835332581834199">
      <stop offset="0.0" stop-color="rgb(171, 168, 165)" stop-opacity="0.9994707703590393"/>
      <stop offset="1.0" stop-color="rgb(172, 169, 166)" stop-opacity="0.9935008883476257"/>
    </radialGradient>
    <radialGradient id="shape_6_fill" cx="0.18397626112759644" cy="0.9977578475336323" r="0.0754974885934892">
      <stop offset="0.0" stop-color="rgb(93, 90, 94)" stop-opacity="1.0"/>
      <stop offset="1.0" stop-color="rgb(93, 89, 96)" stop-opacity="1.0"/>
    </radialGradient>
    <radialGradient id="shape_7_fill" cx="0.2893175074183976" cy="0.05829596412556054" r="0.08666390552011372">
      <stop offset="0.0" stop-color="rgb(55, 66, 29)" stop-opacity="1.0"/>
      <stop offset="1.0" stop-color="rgb(53, 64, 28)" stop-opacity="1.0"/>
    </radialGradient>
    <radialGradient id="shape_8_fill" cx="0.3382789091115889" cy="0.9439461883408071" r="0.06756690277190167">
      <stop offset="0.0" stop-color="rgb(91, 124, 45)" stop-opacity="1.0"/>
      <stop offset="1.0" stop-color="rgb(91, 124, 45)" stop-opacity="1.0"/>
    </radialGradient>
    <radialGradient id="shape_9_fill" cx="0.30712166172106825" cy="0.9977578475336323" r="0.0730758406641929">
      <stop offset="0.0" stop-color="rgb(38, 48, 20)" stop-opacity="1.0"/>
      <stop offset="1.0" stop-color="rgb(38, 48, 20)" stop-opacity="1.0"/>
    </radialGradient>
    <radialGradient id="shape_10_fill" cx="0.3056379821958457" cy="0.9977578475336323" r="0.06792919147615971">
      <stop offset="0.0" stop-color="rgb(39, 49, 21)" stop-opacity="1.0"/>
      <stop offset="1.0" stop-color="rgb(39, 48, 20)" stop-opacity="1.0"/>
    </radialGradient>
    <radialGradient id="shape_11_fill" cx="0.21810089020771514" cy="0.968609865470852" r="0.06792919147615971">
      <stop offset="0.0" stop-color="rgb(138, 135, 129)" stop-opacity="1.0"/>
      <stop offset="1.0" stop-color="rgb(139, 136, 132)" stop-opacity="0.9919120073318481"/>
    </radialGradient>
    <radialGradient id="shape_12_fill" cx="0.29080118694362017" cy="0.9977578475336323" r="0.07480746985189285">
      <stop offset="0.0" stop-color="rgb(22, 25, 13)" stop-opacity="1.0"/>
      <stop offset="1.0" stop-color="rgb(21, 23, 12)" stop-opacity="1.0"/>
    </radialGradient>
    <radialGradient id="shape_13_fill" cx="0.327893175074184" cy="0.8923766816143498" r="0.06900465877544279">
      <stop offset="0.0" stop-color="rgb(89, 117, 50)" stop-opacity="1.0"/>
      <stop offset="1.0" stop-color="rgb(88, 117, 50)" stop-opacity="0.9997676014900208"/>
    </radialGradient>
    <radialGradient id="shape_14_fill" cx="0.142433234421365" cy="0.9977578475336323" r="0.06617211022079875">
      <stop offset="0.0" stop-color="rgb(155, 150, 153)" stop-opacity="1.0"/>
      <stop offset="1.0" stop-color="rgb(157, 151, 155)" stop-opacity="0.9929033517837524"/>
    </radialGradient>
    <radialGradient id="shape_15_fill" cx="0.31008902077151335" cy="0.9977578475336323" r="0.06683642786405207">
      <stop offset="0.0" stop-color="rgb(43, 55, 23)" stop-opacity="1.0"/>
      <stop offset="1.0" stop-color="rgb(42, 54, 22)" stop-opacity="0.9996838569641113"/>
    </radialGradient>
    <radialGradient id="shape_16_fill" cx="0.27299703264094954" cy="0.9977578475336323" r="0.08110449363640579">
      <stop offset="0.0" stop-color="rgb(31, 35, 19)" stop-opacity="1.0"/>
      <stop offset="1.0" stop-color="rgb(30, 34, 18)" stop-opacity="1.0"/>
    </radialGradient>
    <radialGradient id="shape_17_fill" cx="0.2893175074183976" cy="0.9977578475336323" r="0.07513486030193747">
      <stop offset="0.0" stop-color="rgb(22, 23, 13)" stop-opacity="1.0"/>
      <stop offset="1.0" stop-color="rgb(20, 21, 12)" stop-opacity="1.0"/>
    </radialGradient>
    <radialGradient id="shape_18_fill" cx="0.3293768545994065" cy="0.7556053811659192" r="0.06617211022079875">
      <stop offset="0.0" stop-color="rgb(83, 108, 65)" stop-opacity="1.0"/>
      <stop offset="1.0" stop-color="rgb(83, 108, 65)" stop-opacity="1.0"/>
    </radialGradient>
    <radialGradient id="shape_19_fill" cx="0.3516320474777448" cy="0.9977578475336323" r="0.06617211022079875">
      <stop offset="0.0" stop-color="rgb(95, 135, 39)" stop-opacity="1.0"/>
      <stop offset="1.0" stop-color="rgb(95, 135, 39)" stop-opacity="1.0"/>
    </radialGradient>
    <radialGradient id="shape_20_fill" cx="0.0830860534124629" cy="0.9977578475336323" r="0.06792919147615971">
      <stop offset="0.0" stop-color="rgb(49, 52, 66)" stop-opacity="1.0"/>
      <stop offset="1.0" stop-color="rgb(25, 28, 80)" stop-opacity="1.0"/>
    </radialGradient>
    <radialGradient id="shape_21_fill" cx="0.29821958456973297" cy="0.9977578475336323" r="0.06792919147615971">
      <stop offset="0.0" stop-color="rgb(33, 40, 17)" stop-opacity="1.0"/>
      <stop offset="1.0" stop-color="rgb(31, 38, 16)" stop-opacity="1.0"/>
    </radialGradient>
    <radialGradient id="shape_22_fill" cx="0.35608306341425955" cy="0.4439461883408072" r="0.06617211022079875">
      <stop offset="0.0" stop-color="rgb(106, 133, 45)" stop-opacity="0.9999035000801086"/>
      <stop offset="1.0" stop-color="rgb(106, 133, 45)" stop-opacity="0.9994246363639832"/>
    </radialGradient>
    <radialGradient id="shape_23_fill" cx="0.6454005934718101" cy="0.1412556053811659" r="0.06617211022079875">
      <stop offset="0.0" stop-color="rgb(46, 38, 13)" stop-opacity="1.0"/>
      <stop offset="1.0" stop-color="rgb(22, 14, 0)" stop-opacity="1.0"/>
    </radialGradient>
    <radialGradient id="shape_24_fill" cx="0.24925816023738873" cy="0.484304932735426" r="0.06617211022079875">
      <stop offset="0.0" stop-color="rgb(201, 208, 206)" stop-opacity="1.0"/>
      <stop offset="1.0" stop-color="rgb(202, 209, 208)" stop-opacity="1.0"/>
    </radialGradient>
    <radialGradient id="shape_25_fill" cx="0.6320474777448071" cy="0.9977578475336323" r="0.06617211022079875">
      <stop offset="0.0" stop-color="rgb(35, 28, 8)" stop-opacity="1.0"/>
      <stop offset="1.0" stop-color="rgb(34, 27, 7)" stop-opacity="1.0"/>
    </radialGradient>
    <radialGradient id="shape_26_fill" cx="0.1543026706231454" cy="0.32062780269058294" r="0.06617211022079875">
      <stop offset="0.0" stop-color="rgb(85, 94, 63)" stop-opacity="0.9999988079071045"/>
      <stop offset="1.0" stop-color="rgb(85, 94, 63)" stop-opacity="0.9999749064445496"/>
    </radialGradient>
    <radialGradient id="shape_27_fill" cx="0.1543026706231454" cy="0.32062780269058294" r="0.06617211022079875">
      <stop offset="0.0" stop-color="rgb(84, 94, 62)" stop-opacity="0.9999998807907104"/>
      <stop offset="1.0" stop-color="rgb(84, 94, 62)" stop-opacity="0.9999512434005737"/>
    </radialGradient>
    <radialGradient id="shape_28_fill" cx="0.041542927659937466" cy="0.022421501142561702" r="0.06617216681868103">
      <stop offset="0.0014685881" stop-color="rgb(10, 31, 41)" stop-opacity="1.0"/>
      <stop offset="1.0" stop-color="rgb(10, 31, 40)" stop-opacity="1.0"/>
    </radialGradient>
    <radialGradient id="shape_29_fill" cx="0.33976258863681147" cy="0.6659192825112108" r="0.06617211022079875">
      <stop offset="0.0" stop-color="rgb(90, 117, 55)" stop-opacity="1.0"/>
      <stop offset="1.0" stop-color="rgb(90, 118, 55)" stop-opacity="1.0"/>
    </radialGradient>
    <radialGradient id="shape_30_fill" cx="0.041542936149619805" cy="0.020179331569928224" r="0.0661721385197399">
      <stop offset="0.0019237576" stop-color="rgb(11, 31, 38)" stop-opacity="1.0"/>
      <stop offset="1.0" stop-color="rgb(11, 31, 38)" stop-opacity="1.0"/>
    </radialGradient>
    <radialGradient id="shape_31_fill" cx="0.12314540059347182" cy="0.9977578475336323" r="0.06617211022079875">
      <stop offset="0.0" stop-color="rgb(95, 103, 98)" stop-opacity="1.0"/>
      <stop offset="1.0" stop-color="rgb(95, 103, 98)" stop-opacity="0.9995107054710388"/>
    </radialGradient>
    <radialGradient id="shape_32_fill" cx="0.4035608308605341" cy="0.984304932735426" r="0.06617211022079875">
      <stop offset="0.0" stop-color="rgb(126, 155, 63)" stop-opacity="1.0"/>
      <stop offset="1.0" stop-color="rgb(126, 155, 62)" stop-opacity="1.0"/>
    </radialGradient>
    <radialGradient id="shape_33_fill" cx="0.3249258160237389" cy="0.6053811659192825" r="0.06617211022079875">
      <stop offset="0.0" stop-color="rgb(93, 124, 71)" stop-opacity="1.0"/>
      <stop offset="1.0" stop-color="rgb(93, 124, 71)" stop-opacity="1.0"/>
    </radialGradient>
    <radialGradient id="shape_34_fill" cx="0.6468842729970327" cy="0.531390134529148" r="0.06617211022079875">
      <stop offset="0.0" stop-color="rgb(54, 47, 24)" stop-opacity="1.0"/>
      <stop offset="1.0" stop-color="rgb(54, 47, 23)" stop-opacity="0.9999401569366455"/>
    </radialGradient>
    <radialGradient id="shape_35_fill" cx="0.142433234421365" cy="0.23318385650224216" r="0.06617211022079875">
      <stop offset="0.0" stop-color="rgb(74, 87, 45)" stop-opacity="0.9998673796653748"/>
      <stop offset="1.0" stop-color="rgb(74, 87, 45)" stop-opacity="0.9997264742851257"/>
    </radialGradient>
    <radialGradient id="shape_36_fill" cx="0.2878338278931751" cy="0.9977578475336323" r="0.06617211022079875">
      <stop offset="0.0" stop-color="rgb(80, 96, 53)" stop-opacity="1.0"/>
      <stop offset="1.0" stop-color="rgb(80, 96, 53)" stop-opacity="1.0"/>
    </radialGradient>
    <radialGradient id="shape_37_fill" cx="0.129080118694362" cy="0.9977578475336323" r="0.06617211022079875">
      <stop offset="0.0" stop-color="rgb(87, 97, 81)" stop-opacity="1.0"/>
      <stop offset="1.0" stop-color="rgb(87, 97, 81)" stop-opacity="0.999974250793457"/>
    </radialGradient>
    <radialGradient id="shape_38_fill" cx="0.3382789091115889" cy="0.5605381165919282" r="0.06617211022079875">
      <stop offset="0.0" stop-color="rgb(79, 106, 48)" stop-opacity="1.0"/>
      <stop offset="1.0" stop-color="rgb(79, 106, 48)" stop-opacity="1.0"/>
    </radialGradient>
    <radialGradient id="shape_39_fill" cx="0.40059347181008903" cy="0.9641255605381166" r="0.06617211022079875">
      <stop offset="0.0" stop-color="rgb(138, 168, 60)" stop-opacity="1.0"/>
      <stop offset="1.0" stop-color="rgb(138, 168, 60)" stop-opacity="1.0"/>
    </radialGradient>
    <radialGradient id="shape_40_fill" cx="0.6172106824925816" cy="0.8834080717488789" r="0.06617211022079875">
      <stop offset="0.0" stop-color="rgb(45, 39, 28)" stop-opacity="1.0"/>
      <stop offset="1.0" stop-color="rgb(44, 39, 28)" stop-opacity="1.0"/>
    </radialGradient>
    <radialGradient id="shape_41_fill" cx="0.6454005934718101" cy="0.08744394618834081" r="0.06617211022079875">
      <stop offset="0.0" stop-color="rgb(58, 48, 21)" stop-opacity="1.0"/>
      <stop offset="1.0" stop-color="rgb(34, 24, 0)" stop-opacity="0.9115041494369507"/>
    </radialGradient>
    <radialGradient id="shape_42_fill" cx="0.5845697329376854" cy="0.6188340807174888" r="0.06617211022079875">
      <stop offset="0.0" stop-color="rgb(62, 59, 56)" stop-opacity="1.0"/>
      <stop offset="1.0" stop-color="rgb(62, 59, 56)" stop-opacity="0.9999534487724304"/>
    </radialGradient>
    <radialGradient id="shape_43_fill" cx="0.3575667429394821" cy="0.5067264573991032" r="0.06617211022079875">
      <stop offset="0.0" stop-color="rgb(104, 143, 36)" stop-opacity="1.0"/>
      <stop offset="1.0" stop-color="rgb(104, 143, 36)" stop-opacity="1.0"/>
    </radialGradient>
    <radialGradient id="shape_44_fill" cx="0.5934718100890207" cy="0.9977578475336323" r="0.06617211022079875">
      <stop offset="0.0" stop-color="rgb(89, 61, 18)" stop-opacity="1.0"/>
      <stop offset="1.0" stop-color="rgb(89, 61, 18)" stop-opacity="0.9999306201934814"/>
    </radialGradient>
    <radialGradient id="shape_45_fill" cx="0.612759643916914" cy="0.04035874439461883" r="0.06617211022079875">
      <stop offset="0.0" stop-color="rgb(157, 136, 123)" stop-opacity="1.0"/>
      <stop offset="1.0" stop-color="rgb(173, 150, 139)" stop-opacity="1.0"/>
    </radialGradient>
    <radialGradient id="shape_46_fill" cx="0.28635014836795253" cy="0.9977578475336323" r="0.06617211022079875">
      <stop offset="0.0" stop-color="rgb(82, 99, 55)" stop-opacity="1.0"/>
      <stop offset="1.0" stop-color="rgb(82, 99, 55)" stop-opacity="0.9999943971633911"/>
    </radialGradient>
    <radialGradient id="shape_47_fill" cx="0.28635014836795253" cy="0.8183856502242153" r="0.06617211022079875">
      <stop offset="0.0" stop-color="rgb(166, 189, 197)" stop-opacity="1.0"/>
      <stop offset="1.0" stop-color="rgb(167, 190, 197)" stop-opacity="0.9992083311080933"/>
    </radialGradient>
    <radialGradient id="shape_48_fill" cx="0.40801186943620177" cy="0.9977578475336323" r="0.06617211022079875">
      <stop offset="0.0" stop-color="rgb(107, 135, 68)" stop-opacity="1.0"/>
      <stop offset="1.0" stop-color="rgb(107, 135, 68)" stop-opacity="0.9999843835830688"/>
    </radialGradient>
    <radialGradient id="shape_49_fill" cx="0.19287833827893175" cy="0.3991031390134529" r="0.06617211022079875">
      <stop offset="0.0" stop-color="rgb(92, 100, 54)" stop-opacity="1.0"/>
      <stop offset="1.0" stop-color="rgb(92, 100, 54)" stop-opacity="0.9997830390930176"/>
    </radialGradient>
    <radialGradient id="shape_50_fill" cx="0.6439169139465876" cy="0.7376681614349776" r="0.06617211022079875">
      <stop offset="0.0" stop-color="rgb(65, 56, 25)" stop-opacity="1.0"/>
      <stop offset="1.0" stop-color="rgb(65, 56, 25)" stop-opacity="0.9999537467956543"/>
    </radialGradient>
    <radialGradient id="shape_51_fill" cx="0.5845697329376854" cy="0.6322869955156951" r="0.06617211022079875">
      <stop offset="0.0" stop-color="rgb(75, 68, 60)" stop-opacity="1.0"/>
      <stop offset="1.0" stop-color="rgb(75, 67, 60)" stop-opacity="0.9999744296073914"/>
    </radialGradient>
    <radialGradient id="shape_52_fill" cx="0.2997032640949555" cy="0.6031390134529148" r="0.06617211022079875">
      <stop offset="0.0" stop-color="rgb(107, 158, 118)" stop-opacity="1.0"/>
      <stop offset="1.0" stop-color="rgb(107, 158, 118)" stop-opacity="1.0"/>
    </radialGradient>
    <radialGradient id="shape_53_fill" cx="0.6097922848664689" cy="0.45067264573991034" r="0.06617211022079875">
      <stop offset="0.0" stop-color="rgb(38, 39, 27)" stop-opacity="1.0"/>
      <stop offset="1.0" stop-color="rgb(38, 39, 27)" stop-opacity="1.0"/>
    </radialGradient>
    <radialGradient id="shape_54_fill" cx="0.6335311572700296" cy="0.426009002822397" r="0.06617211022079875">
      <stop offset="0.0" stop-color="rgb(67, 49, 20)" stop-opacity="1.0"/>
      <stop offset="1.0" stop-color="rgb(66, 49, 20)" stop-opacity="0.9999669194221497"/>
    </radialGradient>
    <radialGradient id="shape_55_fill" cx="0.37091988130563797" cy="0.5986547085201793" r="0.06617211022079875">
      <stop offset="0.0" stop-color="rgb(132, 174, 55)" stop-opacity="0.9998729825019836"/>
      <stop offset="1.0" stop-color="rgb(132, 174, 55)" stop-opacity="0.9996748566627502"/>
    </radialGradient>
    <radialGradient id="shape_56_fill" cx="0.5489614243323442" cy="0.600896860986547" r="0.06617211022079875">
      <stop offset="0.0" stop-color="rgb(50, 62, 80)" stop-opacity="1.0"/>
      <stop offset="1.0" stop-color="rgb(50, 62, 80)" stop-opacity="1.0"/>
    </radialGradient>
    <radialGradient id="shape_57_fill" cx="0.4094955489614243" cy="0.9035874439461884" r="0.06617211022079875">
      <stop offset="0.0" stop-color="rgb(111, 144, 47)" stop-opacity="1.0"/>
      <stop offset="1.0" stop-color="rgb(111, 144, 46)" stop-opacity="0.999911904335022"/>
    </radialGradient>
    <radialGradient id="shape_58_fill" cx="0.5281899109792285" cy="0.9977578475336323" r="0.06617211022079875">
      <stop offset="0.0" stop-color="rgb(50, 43, 14)" stop-opacity="1.0"/>
      <stop offset="1.0" stop-color="rgb(50, 43, 14)" stop-opacity="1.0"/>
    </radialGradient>
    <radialGradient id="shape_59_fill" cx="0.5845697329376854" cy="0.7690582959641256" r="0.06617211022079875">
      <stop offset="0.0" stop-color="rgb(61, 63, 58)" stop-opacity="1.0"/>
      <stop offset="1.0" stop-color="rgb(61, 63, 58)" stop-opacity="0.9999724626541138"/>
    </radialGradient>
    <radialGradient id="shape_60_fill" cx="0.5489614243323442" cy="0.9977578475336323" r="0.06617211022079875">
      <stop offset="0.0" stop-color="rgb(140, 131, 64)" stop-opacity="1.0"/>
      <stop offset="1.0" stop-color="rgb(140, 131, 64)" stop-opacity="1.0"/>
    </radialGradient>
    <radialGradient id="shape_61_fill" cx="0.6468842729970327" cy="0.968609865470852" r="0.06617211022079875">
      <stop offset="0.0" stop-color="rgb(95, 74, 23)" stop-opacity="0.9999828934669495"/>
      <stop offset="1.0" stop-color="rgb(95, 74, 23)" stop-opacity="0.999977707862854"/>
    </radialGradient>
    <radialGradient id="shape_62_fill" cx="0.615727002967359" cy="0.3991031390134529" r="0.06617211022079875">
      <stop offset="0.0" stop-color="rgb(55, 47, 13)" stop-opacity="1.0"/>
      <stop offset="1.0" stop-color="rgb(55, 47, 13)" stop-opacity="0.9999958276748657"/>
    </radialGradient>
    <radialGradient id="shape_63_fill" cx="0.6261127596439169" cy="0.7286995515695067" r="0.06617211022079875">
      <stop offset="0.0" stop-color="rgb(79, 66, 32)" stop-opacity="1.0"/>
      <stop offset="1.0" stop-color="rgb(79, 66, 32)" stop-opacity="0.9999768733978271"/>
    </radialGradient>
    <radialGradient id="shape_64_fill" cx="0.40801186943620177" cy="0.12556053811659193" r="0.06617211022079875">
      <stop offset="0.0" stop-color="rgb(76, 66, 59)" stop-opacity="1.0"/>
      <stop offset="1.0" stop-color="rgb(76, 66, 59)" stop-opacity="1.0"/>
    </radialGradient>
    <radialGradient id="shape_65_fill" cx="0.6528189910979229" cy="0.6883408071748879" r="0.06617211022079875">
      <stop offset="0.0" stop-color="rgb(121, 97, 39)" stop-opacity="1.0"/>
      <stop offset="1.0" stop-color="rgb(121, 97, 39)" stop-opacity="1.0"/>
    </radialGradient>
    <radialGradient id="shape_66_fill" cx="0.6483679525222552" cy="0.4618834080717489" r="0.06617217813825749">
      <stop offset="0.0022974287" stop-color="rgb(63, 78, 53)" stop-opacity="0.9593168497085571"/>
      <stop offset="1.0" stop-color="rgb(55, 52, 60)" stop-opacity="0.9448098540306091"/>
    </radialGradient>
    <radialGradient id="shape_67_fill" cx="0.5935525865866098" cy="0.9976125811247548" r="0.06626731351858077">
      <stop offset="0.07158157" stop-color="rgb(50, 32, 2)" stop-opacity="1.0"/>
      <stop offset="1.0" stop-color="rgb(50, 32, 48)" stop-opacity="1.0"/>
    </radialGradient>
    <radialGradient id="shape_68_fill" cx="0.4867762443927346" cy="0.9975566094231713" r="0.06630637737692995">
      <stop offset="0.092085384" stop-color="rgb(85, 92, 22)" stop-opacity="0.8941270709037781"/>
      <stop offset="1.0" stop-color="rgb(85, 92, 76)" stop-opacity="0.8958002328872681"/>
    </radialGradient>
  </defs>
  <g>
    <path d="M -0.1026957705616951 274.06268310546875 C 23.10973358154297 273.6905517578125 31.37323570251465 275.13360595703125 41.00276184082031 275.243408203125 C 48.33748245239258 275.85015869140625 49.06581497192383 276.9491271972656 57.031700134277344 274.3383483886719 C 60.42719268798828 274.0561828613281 63.599769592285156 274.7455139160156 66.10187530517578 276.32037353515625 C 76.2604751586914 278.2127990722656 104.66845703125 277.7572937011719 108.51428985595703 278.5025939941406 C 114.02455139160156 278.1791687011719 124.4034194946289 279.68048095703125 127.90725708007812 280.8382568359375 C 134.50245666503906 281.6844177246094 140.8287353515625 281.1104736328125 149.21902465820312 281.68072509765625 C 185.35348510742188 281.8595886230469 185.6608123779297 282.4791259765625 199.6211700439453 285.809326171875 C 204.2406005859375 288.8778381347656 197.0460205078125 285.5869140625 222.64935302734375 282.8695983886719 C 234.17291259765625 284.2112731933594 277.3756408691406 283.2035827636719 303.0601806640625 284.5848693847656 C 336.4559631347656 285.67315673828125 417.50830078125 285.41259765625 458.6495361328125 284.4654541015625 C 482.17578125 283.55731201171875 531.6831665039062 284.620849609375 541.5519409179688 285.9184265136719 C 550.5670166015625 287.79583740234375 549.7281494140625 283.259033203125 559.196044921875 285.0711975097656 C 568.1936645507812 286.8915100097656 608.7064819335938 286.8376159667969 617.1717529296875 287.2279357910156 C 641.5278930664062 287.09051513671875 650.9954833984375 287.7825927734375 655.749755859375 287.8265075683594 C 661.1883544921875 288.1949157714844 671.147705078125 287.4958801269531 674.0364379882812 289.047607421875 C 674.1404418945312 340.81317138671875 673.8060302734375 392.6224670410156 673.966552734375 445.935791015625 C 451.4442138671875 446.05389404296875 229.14239501953125 446.02130126953125 0.239927276968956 445.9175109863281 C -0.2308831363916397 389.09619140625 0.2267737090587616 332.35406494140625 -0.1026957705616951 274.06268310546875" stroke-width="0.0" fill="url(#shape_0_fill)"/>
    <path d="M 0.02065221592783928 275.20135498046875 C 36.02399826049805 275.2930908203125 36.466896057128906 274.70513916015625 44.25830078125 276.94061279296875 C 56.37762451171875 279.2891845703125 67.6238784790039 278.0003967285156 76.82462310791016 278.79034423828125 C 113.45647430419922 278.7680969238281 113.8973617553711 279.2305908203125 126.055908203125 280.7270812988281 C 130.27122497558594 281.54058837890625 154.37228393554688 281.0641174316406 156.732177734375 281.3747253417969 C 185.1229705810547 281.5116271972656 185.4496612548828 282.05560302734375 195.3395233154297 285.8542175292969 C 200.76890563964844 288.2787170410156 201.89120483398438 286.9536437988281 216.61318969726562 284.1450500488281 C 228.79266357421875 283.0187072753906 281.501708984375 284.4495849609375 302.75244140625 285.1524658203125 C 328.5845642089844 287.02978515625 441.6307373046875 284.77117919921875 446.70904541015625 285.1181945800781 C 467.0695495605469 284.83843994140625 483.26318359375 285.0621643066406 502.025634765625 285.3700256347656 C 508.60723876953125 286.4112243652344 516.3112182617188 285.9443359375 522.9254760742188 286.2542419433594 C 527.5287475585938 285.7901611328125 531.7388305664062 285.98712158203125 535.2796020507812 286.8547668457031 C 543.9408569335938 286.7203369140625 551.9411010742188 287.4482421875 560.2413940429688 286.6528015136719 C 569.7255859375 286.6592102050781 579.6469116210938 286.8636474609375 588.676025390625 287.7212219238281 C 603.9471435546875 288.2794189453125 618.3839721679688 287.8229064941406 633.6435546875 288.23126220703125 C 647.0244750976562 287.81695556640625 660.396728515625 288.35321044921875 674.21435546875 288.9730224609375 C 673.8173828125 340.8824462890625 674.2911987304688 392.376953125 674.0692749023438 446.1877746582031 C 451.47821044921875 446.2607116699219 229.20448303222656 446.12945556640625 -0.1943037360906601 446.1224670410156 C -0.10071417689323425 389.4580078125 -0.1802249550819397 333.0837707519531 0.02065221592783928 275.20135498046875" stroke-width="0.0" fill="url(#shape_1_fill)"/>
    <path d="M 0.014135983772575855 -0.16936779022216797 C 219.76097106933594 -0.09777595847845078 439.3650817871094 -0.10918666422367096 665.9987182617188 0.26387831568717957 C 659.3594970703125 4.660812854766846 643.6473999023438 34.340309143066406 636.3881225585938 46.085330963134766 C 633.1383666992188 50.64273452758789 608.0079345703125 90.0449447631836 582.2880859375 80.66629791259766 C 578.0511474609375 80.433349609375 560.455322265625 67.32394409179688 529.7633666992188 68.88121032714844 C 527.2848510742188 70.25321960449219 524.9090576171875 71.83182525634766 522.51904296875 70.42141723632812 C 523.6598510742188 68.56188201904297 502.07354736328125 61.405094146728516 501.34320068359375 61.819698333740234 C 492.1362609863281 61.6031494140625 484.498291015625 60.6794319152832 477.2506408691406 66.07147216796875 C 474.3684387207031 69.0362319946289 474.5322570800781 73.00507354736328 473.3764953613281 76.05146026611328 C 472.52850341796875 86.21832275390625 462.8968505859375 102.51214599609375 458.9264831542969 107.31752014160156 C 455.72100830078125 109.26561737060547 453.4088439941406 107.80243682861328 450.5909729003906 107.3771743774414 C 439.99969482421875 103.87230682373047 412.21539306640625 101.6688003540039 409.8079528808594 105.06897735595703 C 402.3780822753906 112.33924865722656 402.2015380859375 116.75560760498047 399.74957275390625 123.73912811279297 C 398.29962158203125 132.54331970214844 391.3794250488281 135.89541625976562 389.2411193847656 137.5565948486328 C 380.82611083984375 141.46038818359375 379.8051452636719 160.90182495117188 378.9692687988281 164.81875610351562 C 378.3240661621094 170.60475158691406 377.14678955078125 174.8699951171875 373.76312255859375 179.75723266601562 C 371.3209533691406 182.07374572753906 368.14447021484375 181.25665283203125 355.6934814453125 185.77297973632812 C 345.7151794433594 193.24871826171875 334.3261413574219 184.47227478027344 320.5988464355469 183.2078857421875 C 316.54522705078125 183.39207458496094 315.98382568359375 189.7160186767578 314.44757080078125 192.4517364501953 C 313.4016418457031 196.94297790527344 311.4589538574219 199.17788696289062 308.0097961425781 201.83326721191406 C 307.04998779296875 201.96841430664062 303.3365478515625 199.98550415039062 302.2637939453125 197.2135009765625 C 299.55010986328125 192.9369659423828 296.1206970214844 194.55770874023438 294.5924072265625 193.88246154785156 C 293.96527099609375 195.77101135253906 292.1561279296875 199.05508422851562 287.7231140136719 198.9295654296875 C 279.1778564453125 198.54554748535156 277.54608154296875 193.62962341308594 277.0353088378906 193.1954803466797 C 275.185302734375 190.41477966308594 272.3919677734375 191.40199279785156 269.4058532714844 190.89279174804688 C 264.3654479980469 191.50772094726562 262.3678283691406 197.45852661132812 260.51580810546875 198.19097900390625 C 261.3238830566406 198.80560302734375 260.53533935546875 200.60601806640625 257.5001220703125 201.22230529785156 C 256.4599914550781 202.62835693359375 251.1424560546875 202.6338653564453 249.01177978515625 202.09239196777344 C 244.3182830810547 196.91189575195312 245.11761474609375 195.07823181152344 241.6226043701172 183.4984893798828 C 245.84066772460938 177.35623168945312 212.65538024902344 145.290283203125 210.97572326660156 143.11668395996094 C 185.01034545898438 120.73966979980469 196.61875915527344 98.27192687988281 193.07359313964844 88.56185150146484 C 194.26722717285156 84.12339782714844 156.7786407470703 72.41744232177734 147.38758850097656 65.9120864868164 C 123.82916259765625 43.33352279663086 61.549400329589844 54.009246826171875 36.393577575683594 61.14760971069336 C 16.329275131225586 69.50477600097656 13.21590805053711 65.39411163330078 -0.21509923040866852 66.23194122314453 C 0.27672892808914185 44.07292175292969 -0.24630868434906006 22.56035804748535 0.014135983772575855 -0.16936779022216797" stroke-width="0.0" fill="url(#shape_2_fill)"/>
    <path d="M 88.17863464355469 66.56914520263672 C 88.53413391113281 71.4594497680664 90.7701644897461 67.01554107666016 92.52037048339844 70.1517333984375 C 93.67758178710938 73.67969512939453 94.86769104003906 80.99730682373047 94.68553161621094 82.74779510498047 C 95.82256317138672 83.38121795654297 99.32357788085938 83.45073699951172 101.70651245117188 81.87986755371094 C 104.25020599365234 79.0305404663086 106.8771743774414 78.46208953857422 110.15521240234375 79.17378234863281 C 114.17202758789062 85.61296081542969 115.63198852539062 91.69586944580078 115.96892547607422 99.7040786743164 C 116.62466430664062 99.93587493896484 117.23805236816406 108.11800384521484 119.05609893798828 111.22520446777344 C 120.42898559570312 109.93746948242188 125.46649932861328 110.54390716552734 126.60452270507812 107.76083374023438 C 127.69131469726562 105.66621398925781 135.7122802734375 104.50161743164062 136.2197723388672 104.31234741210938 C 136.4359893798828 103.5354232788086 135.68443298339844 101.94577026367188 136.84817504882812 97.87722778320312 C 136.57733154296875 93.10432434082031 137.33648681640625 93.01678466796875 137.14012145996094 88.5616226196289 C 137.4838104248047 84.9695816040039 138.4698028564453 84.64556884765625 140.78561401367188 83.50946807861328 C 137.2971649169922 83.27455139160156 146.9080352783203 82.27217864990234 147.60275268554688 83.81163787841797 C 147.4711151123047 86.4671859741211 149.35720825195312 96.71568298339844 149.588623046875 101.34146118164062 C 155.90652465820312 103.46595764160156 148.46627807617188 105.12419128417969 149.85308837890625 107.40359497070312 C 154.18533325195312 108.85020446777344 150.02566528320312 113.9996109008789 148.9766082763672 113.69355010986328 C 155.97549438476562 111.74655151367188 157.5824432373047 122.61125183105469 158.22067260742188 122.92510986328125 C 161.72634887695312 124.26861572265625 165.16622924804688 123.6685791015625 170.4891357421875 123.51548767089844 C 175.85128784179688 119.68473052978516 174.48797607421875 121.32183074951172 177.89918518066406 121.17645263671875 C 179.7633514404297 122.10821533203125 179.37649536132812 125.42736053466797 181.81222534179688 128.55613708496094 C 184.6387481689453 130.2261962890625 181.58023071289062 133.91392517089844 183.99264526367188 134.972412109375 C 187.82252502441406 134.4179229736328 190.2996063232422 140.7301788330078 191.36380004882812 142.6249237060547 C 194.16989135742188 144.4455108642578 206.4981689453125 156.617919921875 204.4269256591797 171.4413604736328 C 205.4403839111328 173.90133666992188 205.52725219726562 177.152099609375 208.4949188232422 179.61216735839844 C 210.4183349609375 180.78660583496094 214.2833251953125 200.30885314941406 212.64720153808594 204.87013244628906 C 212.27383422851562 209.4329833984375 204.46426391601562 209.39625549316406 202.4521026611328 209.8191680908203 C 200.68936157226562 210.92640686035156 200.36428833007812 211.37744140625 199.49269104003906 213.0509033203125 C 197.6465606689453 217.16273498535156 195.16961669921875 217.28684997558594 191.64295959472656 218.76687622070312 C 184.59567260742188 221.42916870117188 183.2992706298828 224.49830627441406 179.3963623046875 230.76519775390625 C 176.00552368164062 233.46841430664062 179.2228240966797 239.93504333496094 177.2510528564453 241.87989807128906 C 176.03335571289062 247.91624450683594 180.0529022216797 254.9617919921875 173.9043731689453 260.64892578125 C 170.70423889160156 263.8843078613281 145.4081268310547 264.1163635253906 138.82489013671875 265.248779296875 C 129.253662109375 265.6841125488281 122.76095581054688 267.53265380859375 113.62466430664062 268.7392883300781 C 104.141845703125 270.96270751953125 77.1160659790039 269.8576965332031 73.38650512695312 269.9107360839844 C 47.372901916503906 266.91583251953125 56.90913772583008 268.3475036621094 51.16004180908203 268.83111572265625 C 43.69163131713867 271.7855529785156 1.9820338487625122 269.72515869140625 -0.004793028812855482 267.9510192871094 C -0.0937689021229744 217.16734313964844 0.02922935038805008 166.4482879638672 -0.009629220701754093 114.05118560791016 C 11.176949501037598 115.36553192138672 17.45209312438965 116.33500671386719 26.538305282592773 122.57213592529297 C 31.3101863861084 126.2426528930664 36.953399658203125 127.71842956542969 42.03700256347656 130.32228088378906 C 46.36540222167969 131.81541442871094 48.629337310791016 133.91114807128906 50.457576751708984 137.9105987548828 C 50.61308670043945 142.3291015625 62.01286315917969 143.24935913085938 62.37632369995117 141.4860382080078 C 62.1069450378418 136.7457733154297 62.92049789428711 133.7147979736328 62.839202880859375 126.23062133789062 C 63.71723175048828 121.31934356689453 63.04767608642578 118.39629364013672 64.45187377929688 111.47847747802734 C 68.26639556884766 111.7649917602539 66.75518798828125 105.15606689453125 72.09539794921875 102.6426010131836 C 71.35562133789062 100.15839385986328 72.54718780517578 88.05073547363281 74.89656829833984 84.48797607421875 C 78.68907165527344 84.86430358886719 78.47225189208984 73.2760009765625 83.98904418945312 72.0418930053711 C 84.25401306152344 71.43549346923828 86.15303039550781 66.33671569824219 88.17863464355469 66.56914520263672" stroke-width="0.0" fill="url(#shape_3_fill)"/>
    <path d="M 673.8984375 2.0451695919036865 C 674.276611328125 49.16713333129883 673.963134765625 96.31964874267578 674.0883178710938 145.04502868652344 C 666.3187255859375 138.68214416503906 663.3671875 130.68890380859375 661.2527465820312 120.69446563720703 C 660.4351806640625 120.35907745361328 652.7619018554688 105.90631866455078 651.0731811523438 112.33917236328125 C 648.8368530273438 111.87390899658203 644.0289916992188 147.0227813720703 639.5184936523438 151.57069396972656 C 632.3784790039062 155.01397705078125 628.6265258789062 139.77066040039062 627.4214477539062 138.59019470214844 C 621.0345458984375 136.33836364746094 616.9981689453125 147.3505401611328 613.8348999023438 144.6922607421875 C 610.8668823242188 142.03565979003906 611.1292114257812 143.99771118164062 608.5278930664062 140.31715393066406 C 607.8019409179688 137.25021362304688 608.1007080078125 133.72264099121094 602.0176391601562 128.99122619628906 C 598.2655029296875 133.85250854492188 597.4738159179688 139.33486938476562 595.345703125 144.72341918945312 C 595.2313232421875 148.98963928222656 593.3613891601562 150.87673950195312 593.2252197265625 153.765869140625 C 592.0977172851562 160.2627716064453 590.77880859375 168.26583862304688 581.6302490234375 169.7705841064453 C 571.2211303710938 170.30416870117188 569.881591796875 160.38624572753906 568.7053833007812 157.74159240722656 C 566.654541015625 156.83761596679688 564.0587158203125 153.6232452392578 560.491943359375 153.43331909179688 C 560.908447265625 149.86952209472656 555.4816284179688 151.1273956298828 554.2372436523438 153.00201416015625 C 551.5614624023438 155.7260284423828 550.7681274414062 159.14012145996094 548.4551391601562 161.72950744628906 C 545.3458862304688 159.8347930908203 540.5534057617188 162.6361541748047 535.1019897460938 155.38092041015625 C 530.9894409179688 153.7625732421875 530.590087890625 158.2062225341797 524.549560546875 158.1114959716797 C 518.2845458984375 161.61590576171875 520.5730590820312 160.97837829589844 521.548828125 168.55055236816406 C 517.3359985351562 170.70111083984375 516.259033203125 163.87242126464844 516.745361328125 172.10208129882812 C 508.9228515625 174.02821350097656 513.361328125 174.38368225097656 506.2929382324219 173.71971130371094 C 503.051513671875 170.9715576171875 503.0380554199219 169.87820434570312 502.8783874511719 167.9340057373047 C 501.15966796875 152.79354858398438 515.1167602539062 128.72879028320312 524.1721801757812 130.9615936279297 C 524.0999755859375 124.69026184082031 538.3717041015625 113.53394317626953 548.1552734375 112.4884033203125 C 558.3451538085938 110.09100341796875 555.9457397460938 109.96831512451172 559.2091674804688 108.02420806884766 C 562.6661376953125 105.15167999267578 566.0313720703125 104.82015991210938 571.058349609375 104.56959533691406 C 575.485595703125 102.84674835205078 572.7261352539062 98.16117858886719 579.6278686523438 94.80833435058594 C 581.9623413085938 89.69617462158203 601.97265625 79.23149108886719 612.229736328125 77.39363861083984 C 614.9307250976562 71.70362854003906 641.0177001953125 48.58297348022461 643.8865966796875 35.14653778076172 C 645.033935546875 32.48591232299805 648.0294189453125 30.193649291992188 647.5973510742188 29.48685646057129 C 646.4844360351562 28.504728317260742 663.726806640625 -3.087566614151001 673.8984375 2.0451695919036865" stroke-width="0.0" fill="url(#shape_4_fill)"/>
    <path d="M 151.89793395996094 68.64799499511719 C 152.18345642089844 68.35671997070312 187.775146484375 82.49679565429688 195.09011840820312 88.66989135742188 C 181.19424438476562 115.95341491699219 216.9464874267578 152.72573852539062 221.0274200439453 154.38665771484375 C 239.4042510986328 169.57635498046875 243.8927001953125 184.08346557617188 241.8343048095703 193.76138305664062 C 237.7177734375 193.98672485351562 236.7769775390625 185.77944946289062 236.15725708007812 184.6690216064453 C 234.8441619873047 182.60948181152344 234.7576141357422 184.43531799316406 232.26609802246094 181.53619384765625 C 232.24026489257812 183.3966827392578 230.9677276611328 192.63160705566406 227.93894958496094 195.9489288330078 C 227.4459686279297 195.97947692871094 227.19091796875 205.97476196289062 221.1479034423828 207.4129180908203 C 214.6813201904297 206.9607391357422 214.60055541992188 198.33444213867188 214.3176727294922 195.10400390625 C 212.70684814453125 184.81271362304688 212.15126037597656 185.54957580566406 206.8297119140625 176.9067840576172 C 203.63478088378906 171.8202667236328 204.93511962890625 165.54776000976562 205.26959228515625 159.8357696533203 C 206.01507568359375 153.95550537109375 195.907470703125 143.68849182128906 192.60195922851562 142.26168823242188 C 188.78103637695312 140.6529541015625 189.00975036621094 138.32339477539062 186.78341674804688 134.7918701171875 C 182.38333129882812 130.9501953125 183.5789031982422 123.163818359375 183.3511505126953 117.74813079833984 C 179.15908813476562 116.3748779296875 177.6560821533203 117.61918640136719 173.9933624267578 118.15512084960938 C 173.00534057617188 123.37261962890625 168.88136291503906 126.70051574707031 158.30938720703125 123.2940673828125 C 155.73988342285156 121.30123138427734 152.12474060058594 102.11012268066406 153.33297729492188 96.49958801269531 C 152.98013305664062 88.67835998535156 153.64529418945312 82.87632751464844 150.06576538085938 76.243408203125 C 148.9991455078125 75.98870849609375 148.3079071044922 68.5494155883789 151.89793395996094 68.64799499511719" stroke-width="0.0" fill="url(#shape_5_fill)"/>
    <path d="M 613.3247680664062 83.16449737548828 C 618.4468383789062 84.32958984375 619.7588500976562 85.71406555175781 630.869140625 85.89141845703125 C 636.759033203125 86.04544067382812 638.4012451171875 87.45633697509766 641.3807373046875 87.88676452636719 C 642.02734375 87.39486694335938 669.0550537109375 91.96649932861328 673.8240966796875 97.18396759033203 C 674.0210571289062 112.57878112792969 673.5719604492188 128.73214721679688 673.8656005859375 145.16659545898438 C 667.9465942382812 140.12681579589844 664.6055297851562 134.71478271484375 663.026611328125 126.86810302734375 C 660.576171875 121.26164245605469 660.8192138671875 115.48944854736328 653.164794921875 110.93856048583984 C 646.898681640625 115.77384948730469 644.4002685546875 143.22769165039062 642.7345581054688 142.40707397460938 C 643.301513671875 145.80889892578125 641.794189453125 148.64344787597656 640.5185546875 148.8628387451172 C 639.5695190429688 150.99362182617188 638.201171875 151.81019592285156 633.8106079101562 149.9176025390625 C 631.335693359375 146.65380859375 628.89306640625 141.54164123535156 629.5026245117188 140.8563690185547 C 629.0792236328125 137.9266357421875 623.6968383789062 137.2406005859375 620.6062622070312 139.20068359375 C 618.435791015625 140.8689422607422 619.0789794921875 141.97877502441406 618.5699462890625 143.95909118652344 C 614.6366577148438 144.28187561035156 614.2892456054688 143.33326721191406 610.504638671875 143.4815216064453 C 608.6907348632812 140.16172790527344 609.4732055664062 139.48777770996094 608.663818359375 137.9224090576172 C 606.544677734375 132.11614990234375 604.4391479492188 124.07987213134766 599.37353515625 130.48959350585938 C 598.9083251953125 135.38714599609375 593.4652709960938 148.9217529296875 592.10107421875 157.8077392578125 C 590.6351318359375 164.01852416992188 589.6310424804688 164.12815856933594 585.4159545898438 168.0559539794922 C 581.8600463867188 170.3863067626953 578.2979125976562 170.2020721435547 575.0892944335938 168.96615600585938 C 571.9197387695312 166.3376922607422 570.818359375 162.1439666748047 568.8703002929688 158.9250030517578 C 568.3178100585938 154.5569610595703 557.9071044921875 152.2373046875 556.2553100585938 151.1825714111328 C 555.6314086914062 152.67324829101562 553.219482421875 154.8495330810547 552.73486328125 157.59751892089844 C 550.45458984375 161.89602661132812 548.4227294921875 162.03961181640625 546.0036010742188 162.4761962890625 C 540.3359375 161.5119171142578 538.2720947265625 157.99179077148438 535.913818359375 157.19488525390625 C 535.0285034179688 157.89511108398438 531.427001953125 156.33648681640625 529.0746459960938 157.71047973632812 C 525.86865234375 159.12696838378906 526.2305908203125 161.68824768066406 524.5985717773438 164.6242218017578 C 523.6235961914062 168.54269409179688 521.1284790039062 170.68223571777344 518.7391967773438 172.73521423339844 C 510.5561218261719 176.23512268066406 504.14202880859375 172.02000427246094 502.08074951171875 170.5491943359375 C 498.342041015625 152.80514526367188 515.8038330078125 131.9876251220703 523.4825439453125 129.01956176757812 C 526.2222900390625 121.28843688964844 540.1226196289062 112.60912322998047 551.7323608398438 111.87276458740234 C 555.5460205078125 110.04012298583984 559.7747802734375 109.51363372802734 563.5806274414062 106.5180435180664 C 564.7901611328125 104.67083740234375 566.8922119140625 103.76338958740234 569.5265502929688 103.70980072021484 C 574.8151245117188 101.36553955078125 578.3295288085938 97.08155822753906 583.0426635742188 93.74540710449219 C 592.0537719726562 85.36163330078125 600.3558959960938 79.0301513671875 613.3247680664062 83.16449737548828" stroke-width="0.0" fill="url(#shape_6_fill)"/>
    <path d="M 3.0332419872283936 115.12215423583984 C 27.367691040039062 122.76945495605469 37.85332489013672 127.71893310546875 49.98423385620117 136.873779296875 C 68.59141540527344 159.4194793701172 50.74434280395508 224.86224365234375 55.02129364013672 246.4126739501953 C 53.386024475097656 260.4973449707031 48.52938461303711 264.87384033203125 48.76347351074219 266.23309326171875 C 39.000038146972656 272.76043701171875 4.2057013511657715 268.9188537597656 -0.004374809097498655 268.9908142089844 C -0.057104796171188354 218.18675231933594 -0.04124090448021889 167.32162475585938 3.0332419872283936 115.12215423583984" stroke-width="0.0" fill="url(#shape_7_fill)"/>
    <path d="M 395.6424865722656 178.00294494628906 C 410.45166015625 173.36077880859375 427.7665710449219 191.06639099121094 433.80865478515625 210.45457458496094 C 464.74041748046875 201.53903198242188 487.556396484375 215.48666381835938 489.3976745605469 238.85231018066406 C 490.474609375 252.36024475097656 487.5408020019531 249.8130645751953 485.521728515625 253.02801513671875 C 485.31634521484375 254.51312255859375 479.0793762207031 265.03521728515625 474.8280029296875 268.50885009765625 C 468.920166015625 273.05462646484375 453.09796142578125 266.5895690917969 452.2044372558594 267.33306884765625 C 443.85687255859375 264.52337646484375 450.7528991699219 262.9470520019531 447.068115234375 261.99481201171875 C 441.9039611816406 262.1315612792969 433.8598937988281 259.2982482910156 439.404296875 259.4026794433594 C 428.40289306640625 257.20880126953125 426.5960998535156 259.49688720703125 421.1420593261719 262.158935546875 C 418.6276550292969 264.34954833984375 417.4129638671875 267.5071716308594 414.5513916015625 269.71197509765625 C 414.4004821777344 269.5736999511719 398.2010192871094 267.4786071777344 392.4583740234375 264.2291564941406 C 391.95013427734375 265.00823974609375 389.0479736328125 263.4479064941406 385.9628601074219 263.55230712890625 C 381.62396240234375 261.9967956542969 381.35357666015625 263.1291198730469 377.0928039550781 260.5469970703125 C 373.9952087402344 255.1724090576172 377.63134765625 253.09950256347656 371.5463562011719 250.42770385742188 C 359.3038024902344 244.04443359375 375.3504333496094 197.41818237304688 378.51104736328125 182.61639404296875 C 383.5489501953125 171.757080078125 395.5850524902344 176.25474548339844 395.6424865722656 178.00294494628906" stroke-width="0.0" fill="url(#shape_8_fill)"/>
    <path d="M 565.7387084960938 157.29685974121094 C 568.5011596679688 159.06858825683594 569.9310913085938 161.8251190185547 570.6533813476562 165.24241638183594 C 573.966796875 169.668212890625 573.3372802734375 170.5922088623047 578.0552368164062 174.30226135253906 C 579.7418823242188 175.5472412109375 581.4935302734375 177.43801879882812 580.0077514648438 184.41934204101562 C 578.4332275390625 175.579345703125 573.56591796875 226.2793731689453 576.9323120117188 226.32582092285156 C 575.297607421875 228.23617553710938 577.9855346679688 232.6016387939453 573.8989868164062 238.16128540039062 C 568.3517456054688 238.83631896972656 566.3902587890625 237.00814819335938 558.4999389648438 244.8677520751953 C 549.1351318359375 250.817626953125 495.24908447265625 253.9158935546875 494.14581298828125 248.6669464111328 C 490.7355651855469 243.9468536376953 488.8424377441406 238.2714080810547 487.42535400390625 232.45750427246094 C 486.3198547363281 226.36135864257812 483.3367919921875 222.1276397705078 481.0235595703125 216.2412109375 C 478.40228271484375 211.771240234375 480.440673828125 203.83694458007812 481.3652648925781 206.18446350097656 C 479.8905029296875 205.70697021484375 481.2320556640625 198.37060546875 485.81317138671875 198.19058227539062 C 491.69842529296875 196.02908325195312 492.0269470214844 192.66209411621094 494.2535400390625 188.49554443359375 C 496.78607177734375 176.0225372314453 499.87890625 175.90943908691406 499.9420471191406 176.02957153320312 C 502.6270446777344 174.74588012695312 508.5787658691406 177.83070373535156 520.8960571289062 173.6291046142578 C 524.228271484375 171.40882873535156 524.5953369140625 168.5828857421875 526.8303833007812 165.73936462402344 C 528.3709106445312 161.14161682128906 529.5346069335938 158.92755126953125 533.252197265625 158.7828826904297 C 537.7579345703125 161.7216339111328 541.3051147460938 162.54693603515625 542.3180541992188 163.82151794433594 C 545.1853637695312 164.13076782226562 546.136962890625 165.54017639160156 549.3041381835938 166.23330688476562 C 548.8202514648438 165.7509002685547 551.5438842773438 157.27146911621094 555.3524169921875 156.4691162109375 C 558.979736328125 155.55548095703125 562.4755249023438 155.3503875732422 565.7387084960938 157.29685974121094" stroke-width="0.0" fill="url(#shape_9_fill)"/>
    <path d="M 561.2695922851562 155.4620819091797 C 567.7177734375 155.51010131835938 569.2591552734375 160.47406005859375 571.8806762695312 166.77206420898438 C 573.3017578125 170.2244415283203 575.4819946289062 171.22976684570312 578.6253051757812 176.39617919921875 C 579.4449462890625 178.0260467529297 578.283935546875 187.26150512695312 577.2216796875 191.58172607421875 C 574.6102905273438 199.37620544433594 573.9371337890625 233.41131591796875 575.7493286132812 228.65757751464844 C 575.264892578125 230.56517028808594 576.3198852539062 237.01797485351562 571.2553100585938 238.6990509033203 C 559.0319213867188 237.10623168945312 568.3889770507812 237.6816864013672 557.7703857421875 244.29006958007812 C 554.541748046875 251.93173217773438 500.78466796875 249.26516723632812 500.64837646484375 250.7991485595703 C 489.819091796875 253.11962890625 489.2975158691406 235.4631805419922 486.8561096191406 230.32125854492188 C 486.4584045410156 225.091552734375 482.14599609375 219.1103057861328 481.3534240722656 216.36659240722656 C 478.2384338378906 212.6703643798828 479.0026550292969 210.40296936035156 479.10504150390625 206.98046875 C 478.466796875 204.02386474609375 482.9168395996094 198.26034545898438 485.62567138671875 198.2874755859375 C 491.47491455078125 197.23507690429688 495.77130126953125 185.71620178222656 496.1152038574219 182.4458465576172 C 496.2425537109375 179.60189819335938 497.3452453613281 177.17047119140625 500.3609313964844 176.04937744140625 C 507.44927978515625 175.55599975585938 514.5675659179688 177.48046875 520.6928100585938 173.4992218017578 C 524.778564453125 173.9178466796875 526.6694946289062 159.19290161132812 532.3466796875 159.17857360839844 C 536.3027954101562 158.9558868408203 539.185546875 161.72653198242188 543.2354736328125 164.92295837402344 C 545.1130981445312 165.0706024169922 548.9320068359375 166.29942321777344 550.7069702148438 162.87278747558594 C 551.6334228515625 158.6887969970703 553.4528198242188 153.62571716308594 561.2695922851562 155.4620819091797" stroke-width="0.0" fill="url(#shape_10_fill)"/>
    <path d="M 449.69976806640625 108.1746826171875 C 453.9617919921875 109.24193572998047 456.665771484375 112.08294677734375 460.3358459472656 113.85222625732422 C 463.69622802734375 116.64004516601562 468.82073974609375 117.58113861083984 472.5037536621094 119.5268783569336 C 488.42437744140625 124.63468170166016 488.7398376464844 125.15576171875 492.64288330078125 129.90931701660156 C 493.485107421875 131.927490234375 493.0888671875 134.19329833984375 496.6820983886719 136.27606201171875 C 493.4576721191406 135.66213989257812 492.1042785644531 137.02462768554688 487.6134948730469 135.16172790527344 C 484.30133056640625 133.37850952148438 482.3732604980469 135.07371520996094 479.10443115234375 134.83169555664062 C 474.76397705078125 135.78018188476562 471.5118103027344 134.42388916015625 468.1488342285156 134.24069213867188 C 465.1613464355469 133.61001586914062 460.1991271972656 133.62222290039062 457.1370849609375 134.27835083007812 C 454.3031921386719 142.51222229003906 469.2764587402344 153.00796508789062 479.9815979003906 158.01593017578125 C 476.0301208496094 176.68576049804688 475.4605712890625 177.0741729736328 469.3720397949219 181.58396911621094 C 465.8194274902344 181.31649780273438 467.002197265625 186.52825927734375 463.4739990234375 188.17529296875 C 459.86871337890625 188.0142822265625 455.7025451660156 180.60675048828125 453.943359375 176.9559783935547 C 448.1084289550781 179.5832061767578 447.6817932128906 182.85353088378906 439.7015075683594 183.2909393310547 C 439.87286376953125 183.56082153320312 435.85101318359375 195.57200622558594 433.94439697265625 198.98678588867188 C 428.8516845703125 201.0869140625 417.3889465332031 180.47164916992188 417.5142822265625 179.67910766601562 C 416.79168701171875 180.59666442871094 401.4721374511719 176.06239318847656 397.0094909667969 168.8365020751953 C 392.6524658203125 168.2274627685547 387.192626953125 176.6092529296875 381.25 173.03118896484375 C 380.3772277832031 163.6538543701172 382.3119201660156 142.08644104003906 390.00335693359375 138.58685302734375 C 397.80096435546875 137.31556701660156 399.4434814453125 129.75149536132812 402.0966796875 122.98807525634766 C 410.04376220703125 98.98896789550781 428.1063537597656 102.92716979980469 449.69976806640625 108.1746826171875" stroke-width="0.0" fill="url(#shape_11_fill)"/>
    <path d="M 601.9656372070312 130.08836364746094 C 607.108642578125 130.00653076171875 608.5347290039062 139.48171997070312 609.6530151367188 141.8056182861328 C 611.9105224609375 144.60202026367188 612.3560180664062 147.573974609375 614.8676147460938 150.5048065185547 C 619.8215942382812 150.82806396484375 617.9281005859375 142.73077392578125 621.9461059570312 140.81663513183594 C 624.6118774414062 139.32089233398438 626.721923828125 139.56375122070312 628.7001342773438 140.94911193847656 C 627.1930541992188 141.2628173828125 629.5680541992188 144.30345153808594 630.641357421875 146.78041076660156 C 632.2393188476562 150.02793884277344 631.6334228515625 150.8811798095703 635.5896606445312 154.0839385986328 C 639.34912109375 156.84898376464844 637.274658203125 162.33572387695312 638.116943359375 171.46908569335938 C 637.2986450195312 183.56053161621094 638.9237670898438 194.41159057617188 639.68115234375 206.30917358398438 C 640.450927734375 218.84861755371094 643.0787963867188 229.77236938476562 638.9163818359375 243.63583374023438 C 622.2788696289062 247.13040161132812 608.5330810546875 243.98648071289062 583.158935546875 245.18154907226562 C 579.3134765625 238.4051513671875 578.8597412109375 225.8105010986328 576.900634765625 216.84666442871094 C 573.0220336914062 216.0719451904297 579.4971313476562 169.26727294921875 587.1089477539062 169.1405487060547 C 593.9745483398438 160.03839111328125 596.0609130859375 140.51361083984375 596.9225463867188 140.59243774414062 C 598.0175170898438 137.12489318847656 597.46923828125 135.1866455078125 601.9656372070312 130.08836364746094" stroke-width="0.0" fill="url(#shape_12_fill)"/>
    <path d="M 404.6705017089844 176.52774047851562 C 421.41290283203125 176.84164428710938 437.6173400878906 210.3640899658203 430.8274841308594 215.3446807861328 C 419.4633483886719 230.72695922851562 423.2741394042969 240.41090393066406 424.60498046875 246.80006408691406 C 427.95208740234375 260.7019958496094 418.2582702636719 263.4207458496094 414.10052490234375 269.9971008300781 C 406.7296142578125 270.04901123046875 397.1868896484375 267.067626953125 393.8101806640625 265.809814453125 C 386.7461242675781 262.658447265625 385.0562744140625 263.625 381.38714599609375 262.36358642578125 C 377.9361877441406 262.0665283203125 377.2538757324219 260.2179260253906 375.7129821777344 258.2679138183594 C 376.19915771484375 256.0567932128906 375.60418701171875 253.42892456054688 374.638916015625 253.37965393066406 C 374.2423400878906 252.29649353027344 370.42755126953125 250.62347412109375 369.4374694824219 251.2266082763672 C 364.9925842285156 240.3716278076172 366.7411193847656 226.18463134765625 368.666748046875 222.16319274902344 C 369.2826843261719 219.45140075683594 371.3263244628906 203.30099487304688 374.08642578125 200.03863525390625 C 374.5653381347656 197.73876953125 376.4112854003906 179.71340942382812 381.0196228027344 175.93238830566406 C 389.5384216308594 171.1736297607422 395.388916015625 171.65872192382812 404.6705017089844 176.52774047851562" stroke-width="0.0" fill="url(#shape_13_fill)"/>
    <path d="M 510.3028869628906 65.37220001220703 C 513.0654907226562 65.9036636352539 522.2352905273438 69.39665222167969 524.0407104492188 74.04225158691406 C 530.3353881835938 80.44932556152344 535.4913330078125 80.2854232788086 538.5081176757812 88.02363586425781 C 539.9762573242188 90.95252990722656 544.7811889648438 90.39264678955078 545.1282958984375 91.3924560546875 C 545.3118286132812 92.52659606933594 556.330078125 96.81590270996094 561.044677734375 96.37422180175781 C 564.6690673828125 97.4344711303711 567.5757446289062 97.69646453857422 570.03564453125 101.04898071289062 C 566.6900024414062 104.95564270019531 553.3041381835938 111.75166320800781 547.8690795898438 111.73084259033203 C 541.8975219726562 112.29950714111328 539.2589111328125 114.85651397705078 534.012939453125 117.28610229492188 C 527.7745971679688 121.3410873413086 525.893310546875 122.10491943359375 515.8626098632812 121.24188232421875 C 511.1314697265625 120.36138153076172 501.6441345214844 125.63935089111328 501.1477966308594 127.73553466796875 C 497.3742370605469 129.59521484375 493.97186279296875 129.8221435546875 489.7875671386719 128.85887145996094 C 489.3872985839844 125.54437255859375 468.70416259765625 118.68346405029297 468.1129455566406 118.54898071289062 C 463.14935302734375 117.61699676513672 463.2962646484375 116.62821197509766 460.21234130859375 114.82991790771484 C 460.4195556640625 106.4037094116211 462.7615051269531 100.60092163085938 468.4881896972656 94.37705993652344 C 472.9603576660156 89.07778930664062 472.1101989746094 84.04634094238281 473.02874755859375 81.82856750488281 C 474.6883239746094 70.85502624511719 475.2375793457031 70.46470642089844 478.1684875488281 66.2918472290039 C 479.1648864746094 64.33790588378906 482.5635986328125 64.06068420410156 484.5106506347656 62.30963134765625 C 493.93914794921875 60.7567024230957 501.5464172363281 62.187286376953125 510.3028869628906 65.37220001220703" stroke-width="0.0" fill="url(#shape_14_fill)"/>
    <path d="M 532.8978881835938 158.7921905517578 C 543.8428955078125 163.0275115966797 543.9647216796875 163.7872772216797 546.796875 166.78529357910156 C 547.0140991210938 168.0542755126953 548.31884765625 170.26722717285156 544.591796875 182.2333984375 C 543.2323608398438 189.87664794921875 539.8595581054688 232.60618591308594 539.1578369140625 235.99560546875 C 537.5300903320312 239.25303649902344 543.9042358398438 253.80006408691406 515.6410522460938 251.5854034423828 C 500.6797790527344 254.6865234375 485.68560791015625 247.77049255371094 487.5931701660156 230.01910400390625 C 479.1186828613281 216.18991088867188 477.47943115234375 203.6350555419922 484.0813293457031 198.5485076904297 C 487.418701171875 196.82797241210938 488.5806884765625 198.22080993652344 490.9117126464844 196.9349365234375 C 492.90057373046875 193.8830108642578 494.8104248046875 184.6516571044922 496.2176513671875 182.06436157226562 C 497.2315979003906 179.46871948242188 498.8526916503906 176.7406463623047 502.054931640625 176.0253448486328 C 507.2977600097656 175.6567840576172 511.5617980957031 179.51158142089844 522.7928466796875 172.6937255859375 C 525.2551879882812 170.74830627441406 525.8660278320312 167.82742309570312 526.8555297851562 165.07525634765625 C 527.8469848632812 161.96139526367188 530.6770629882812 160.6415252685547 532.8978881835938 158.7921905517578" stroke-width="0.0" fill="url(#shape_15_fill)"/>
    <path d="M 650.466552734375 112.515625 C 657.31591796875 109.6873779296875 663.6480712890625 121.45405578613281 662.9386596679688 126.05609893798828 C 665.443603515625 133.31497192382812 666.31494140625 139.19834899902344 673.0333862304688 146.39816284179688 C 675.0247802734375 180.4861297607422 673.6858520507812 212.649169921875 674.0897216796875 247.2241668701172 C 669.9542236328125 243.45953369140625 653.9381713867188 250.5476837158203 645.453857421875 241.7177276611328 C 638.2254028320312 238.62721252441406 638.3871459960938 116.29475402832031 650.466552734375 112.515625" stroke-width="0.0" fill="url(#shape_16_fill)"/>
    <path d="M 599.8567504882812 129.76837158203125 C 603.2283325195312 127.17821502685547 608.1337890625 131.664306640625 607.2350463867188 134.28387451171875 C 608.5597534179688 134.7076873779297 608.1787719726562 138.5691375732422 614.1988525390625 150.718505859375 C 618.8474731445312 135.0330352783203 617.6978759765625 230.64633178710938 616.1830444335938 241.19927978515625 C 600.2717895507812 248.9132537841797 573.622314453125 244.55682373046875 584.5524291992188 239.1234130859375 C 562.816162109375 223.32579040527344 591.3551025390625 148.4483642578125 599.8567504882812 129.76837158203125" stroke-width="0.0" fill="url(#shape_17_fill)"/>
    <path d="M 319.5028076171875 184.49383544921875 C 323.6777038574219 183.83175659179688 325.6405334472656 186.0171356201172 329.2075500488281 186.58705139160156 C 332.56243896484375 189.04165649414062 336.96783447265625 189.05479431152344 340.7765197753906 190.31723022460938 C 343.8238525390625 193.82980346679688 349.1614685058594 192.59359741210938 353.7176513671875 193.32168579101562 C 356.7938232421875 195.2797088623047 357.830078125 198.23995971679688 359.1363220214844 200.7346954345703 C 359.97735595703125 203.70811462402344 361.89630126953125 203.58273315429688 363.6515808105469 205.75497436523438 C 367.4287109375 207.151123046875 368.2976989746094 208.0029296875 368.6737060546875 211.5684051513672 C 369.3102111816406 216.5253143310547 367.822265625 221.29037475585938 366.7001037597656 225.7215576171875 C 366.6527404785156 231.30828857421875 365.5609130859375 235.4176483154297 366.417724609375 240.92588806152344 C 366.85931396484375 246.45460510253906 364.8900451660156 255.82525634765625 356.1319580078125 254.37103271484375 C 352.72314453125 254.4066619873047 331.1709899902344 254.38780212402344 323.81610107421875 254.23313903808594 C 312.99322509765625 255.30145263671875 312.88079833984375 253.55882263183594 312.5147705078125 235.77516174316406 C 304.9625549316406 227.05209350585938 314.9090881347656 187.7360382080078 319.5028076171875 184.49383544921875" stroke-width="0.0" fill="url(#shape_18_fill)"/>
    <path d="M 480.2648620605469 218.16091918945312 C 492.3743591308594 240.37954711914062 494.0936584472656 247.1208038330078 478.1585998535156 267.0101013183594 C 470.0600280761719 278.311279296875 443.3977355957031 260.8222351074219 442.7586975097656 262.16668701171875 C 438.8948974609375 260.37847900390625 436.92633056640625 258.39703369140625 432.44866943359375 258.0859680175781 C 429.4791564941406 258.03521728515625 427.8037109375 257.5301513671875 426.3825378417969 254.51918029785156 C 421.206298828125 246.29702758789062 420.5696105957031 237.4650115966797 422.28778076171875 228.3332977294922 C 423.7903137207031 223.82290649414062 421.07061767578125 229.06893920898438 422.17510986328125 226.1168975830078 C 427.8170166015625 219.23040771484375 429.64208984375 218.85116577148438 429.4925231933594 215.9761199951172 C 439.2866516113281 202.27432250976562 463.4793701171875 207.02688598632812 480.2648620605469 218.16091918945312" stroke-width="0.0" fill="url(#shape_19_fill)"/>
    <path d="M 674.1543579101562 1.5273717641830444 C 674.3802490234375 33.33463668823242 674.3206176757812 64.81346893310547 674.0797729492188 97.03543853759766 C 670.4094848632812 96.07981872558594 653.1453857421875 88.94121551513672 644.8648681640625 89.23931884765625 C 636.728759765625 88.27082824707031 640.1802978515625 87.1084976196289 636.4329223632812 86.30595397949219 C 632.1448364257812 86.71770477294922 623.60107421875 86.98522186279297 611.3390502929688 81.36759948730469 C 611.2085571289062 77.73775482177734 613.07470703125 75.69303131103516 615.636962890625 73.78375244140625 C 622.912841796875 70.00482940673828 650.9677124023438 26.099952697753906 650.50341796875 22.673885345458984 C 654.9224243164062 14.355749130249023 658.7185668945312 7.955617904663086 667.398193359375 3.265005350112915 C 669.8372802734375 2.402085304260254 670.2479248046875 1.5583537817001343 674.1543579101562 1.5273717641830444" stroke-width="0.0" fill="url(#shape_20_fill)"/>
    <path d="M 563.6360473632812 155.3181915283203 C 569.6893310546875 156.80841064453125 569.29638671875 164.17578125 574.172119140625 169.9951629638672 C 583.710693359375 163.83010864257812 571.1074829101562 227.77928161621094 573.0234375 238.10031127929688 C 568.3652954101562 237.78126525878906 563.8795776367188 240.00767517089844 561.9519653320312 242.64801025390625 C 557.065185546875 248.3358612060547 542.3240356445312 251.4803466796875 541.0955810546875 244.39915466308594 C 543.4121704101562 246.5635223388672 537.406494140625 161.30072021484375 553.18896484375 156.1252899169922 C 556.443603515625 152.23233032226562 558.6331176757812 152.82435607910156 563.6360473632812 155.3181915283203" stroke-width="0.0" fill="url(#shape_21_fill)"/>
    <path d="M 214.90777587890625 212.2337188720703 C 222.69064331054688 220.96485900878906 223.8359375 252.9525909423828 218.05714416503906 254.5170440673828 C 210.65069580078125 262.4031066894531 208.08946228027344 263.8935546875 205.3466796875 272.30010986328125 C 205.47134399414062 275.92462158203125 206.49789428710938 276.3536376953125 206.74685668945312 280.2263488769531 C 207.2637481689453 283.4039306640625 203.8271942138672 284.86053466796875 200.74893188476562 284.3592224121094 C 201.88677978515625 283.63397216796875 196.4095916748047 266.09051513671875 190.16909790039062 263.297119140625 C 186.66439819335938 260.75604248046875 184.73684692382812 261.43707275390625 182.52682495117188 260.0337219238281 C 181.30372619628906 259.63153076171875 179.381103515625 260.0068054199219 177.32467651367188 255.49058532714844 C 177.0996856689453 251.88734436035156 170.9786376953125 242.33673095703125 172.026611328125 235.9362335205078 C 178.61154174804688 220.64007568359375 184.8780059814453 220.0885772705078 188.58175659179688 218.53488159179688 C 193.77944946289062 217.38186645507812 193.58726501464844 215.57008361816406 196.24252319335938 212.17391967773438 C 198.59881591796875 209.49456787109375 198.40618896484375 207.88772583007812 204.25961303710938 207.09254455566406 C 207.57557678222656 206.6179962158203 211.53890991210938 208.0835418701172 214.90777587890625 212.2337188720703" stroke-width="0.0" fill="url(#shape_22_fill)"/>
    <path d="M 111.66770935058594 426.5909423828125 C 112.56273651123047 429.11639404296875 111.20193481445312 431.01324462890625 110.81153106689453 431.8609924316406 C 106.59663391113281 435.9466857910156 102.24134826660156 436.6173400878906 96.01644897460938 436.75115966796875 C 84.7160415649414 441.5823059082031 101.94308471679688 444.6993103027344 84.81505584716797 445.99908447265625 C 79.50545501708984 445.7889404296875 45.32704162597656 446.613525390625 27.815563201904297 446.9236145019531 C 11.139328956604004 445.337890625 16.727497100830078 441.94903564453125 16.975618362426758 436.05072021484375 C 34.51895523071289 428.2220458984375 51.09663772583008 425.9712219238281 70.23837280273438 425.27001953125 C 75.69709014892578 425.2065734863281 107.5230484008789 417.53521728515625 111.66770935058594 426.5909423828125" stroke-width="0.0" fill="url(#shape_23_fill)"/>
    <path d="M 195.20831298828125 124.82735443115234 C 199.2340850830078 125.05497741699219 209.10923767089844 144.92721557617188 213.14505004882812 145.51202392578125 C 215.55320739746094 148.19271850585938 218.36399841308594 149.86428833007812 219.80047607421875 153.62118530273438 C 226.41807556152344 158.2707061767578 246.91563415527344 180.77999877929688 242.87539672851562 197.79965209960938 C 240.2140655517578 201.5089874267578 237.18544006347656 185.65797424316406 233.9152069091797 182.33346557617188 C 231.6645965576172 183.70201110839844 230.47677612304688 193.06076049804688 229.29725646972656 195.36012268066406 C 227.2646484375 200.6348876953125 227.74424743652344 203.78582763671875 220.76536560058594 207.957275390625 C 214.860595703125 207.9492950439453 214.09451293945312 199.578369140625 214.45294189453125 196.03628540039062 C 212.9228515625 189.2975616455078 212.4976043701172 182.97735595703125 207.21279907226562 178.15394592285156 C 204.17308044433594 173.9048614501953 205.04867553710938 173.15586853027344 204.75808715820312 165.7676239013672 C 205.35433959960938 151.2648162841797 199.51910400390625 149.75169372558594 195.27200317382812 144.8483123779297 C 190.78045654296875 139.78843688964844 191.4828643798828 128.1155548095703 195.20831298828125 124.82735443115234" stroke-width="0.0" fill="url(#shape_24_fill)"/>
    <path d="M 594.6316528320312 413.50830078125 C 597.1239013671875 415.4180603027344 624.7702026367188 412.3481750488281 627.8539428710938 418.8934020996094 C 628.3635864257812 420.7861633300781 625.8787231445312 424.91888427734375 627.5037231445312 427.8016052246094 C 629.0472412109375 430.2384338378906 632.2884521484375 430.37774658203125 633.9706420898438 436.0136413574219 C 615.5462646484375 446.7828674316406 578.9659423828125 439.8747253417969 577.9905395507812 431.065185546875 C 571.1123046875 423.04791259765625 574.187744140625 417.28240966796875 574.9932250976562 414.590576171875 C 580.475830078125 410.3036804199219 587.1975708007812 412.3327941894531 594.6316528320312 413.50830078125" stroke-width="0.0" fill="url(#shape_25_fill)"/>
    <path d="M 143.77542114257812 67.34089660644531 C 143.2338409423828 68.52249908447266 149.39102172851562 68.78895568847656 149.39797973632812 68.97349548339844 C 148.98858642578125 70.91871643066406 150.32125854492188 71.74132537841797 149.93350219726562 73.84033203125 C 151.2790069580078 74.18910217285156 150.25070190429688 77.81764221191406 153.9196014404297 82.0052261352539 C 155.16201782226562 89.5876693725586 155.17446899414062 97.05973052978516 154.3493194580078 104.3539810180664 C 153.54173278808594 107.80094909667969 155.0765380859375 108.30713653564453 155.6385498046875 111.37638854980469 C 159.3317413330078 121.06108856201172 155.1352996826172 132.66958618164062 149.20640563964844 132.75900268554688 C 139.8129119873047 130.4558868408203 133.2509765625 124.56375122070312 126.58929443359375 116.8602066040039 C 122.93331146240234 114.4326400756836 125.2088623046875 109.7629623413086 126.85709381103516 107.4492416381836 C 128.985107421875 106.51309204101562 128.83944702148438 105.58477020263672 132.34524536132812 104.9656982421875 C 135.6412353515625 98.06977844238281 133.2946319580078 91.61510467529297 133.57630920410156 90.15121459960938 C 133.9603729248047 88.32992553710938 139.89849853515625 87.59135437011719 139.4275360107422 85.08934020996094 C 138.6592254638672 85.06410217285156 138.7210693359375 76.9802017211914 140.33096313476562 76.65139770507812 C 143.15513610839844 78.247314453125 143.55227661132812 70.57303619384766 143.77542114257812 67.34089660644531" stroke-width="0.0" fill="url(#shape_26_fill)"/>
    <path d="M 144.65769958496094 67.79281616210938 C 149.46717834472656 68.06735229492188 150.11553955078125 70.5244369506836 150.2149658203125 74.23814392089844 C 151.8443603515625 76.84418487548828 151.7171630859375 79.4284896850586 154.2981719970703 81.71320343017578 C 155.28482055664062 89.43694305419922 155.0814208984375 96.88215637207031 153.61260986328125 104.0181655883789 C 154.44322204589844 104.877685546875 153.75010681152344 108.24256896972656 155.59019470214844 109.46994018554688 C 157.67587280273438 117.35099792480469 157.69900512695312 121.18109130859375 155.34434509277344 126.3889389038086 C 152.4593963623047 132.19834899902344 151.58912658691406 133.02101135253906 147.64613342285156 133.5582275390625 C 141.76681518554688 131.75828552246094 129.1459503173828 120.20160675048828 127.97374725341797 119.21137237548828 C 124.91341400146484 117.36377716064453 123.01315307617188 111.80094146728516 127.0452880859375 108.35679626464844 C 123.77423858642578 110.9786605834961 125.73545837402344 105.64349365234375 129.9340057373047 106.55683898925781 C 135.3328857421875 105.4295883178711 134.29884338378906 91.50411224365234 134.33432006835938 89.29100799560547 C 139.24423217773438 87.26567840576172 138.7755889892578 84.63615417480469 138.65133666992188 81.97837829589844 C 139.45631408691406 76.59848022460938 140.02395629882812 77.72418975830078 141.0837860107422 75.62422943115234 C 144.10702514648438 71.00608825683594 143.32955932617188 68.3476791381836 144.65769958496094 67.79281616210938" stroke-width="0.0" fill="url(#shape_27_fill)"/>
    <path d="M -0.21628141403198242 -0.15664632618427277 C 4.783145904541016 0.30342888832092285 9.690799713134766 -0.4306892156600952 15.23874568939209 0.1812504231929779 C 15.820328712463379 1.2977392673492432 17.06910514831543 14.292057991027832 29.244510650634766 20.8101863861084 C 28.836971282958984 24.340999603271484 27.147748947143555 24.957849502563477 26.623424530029297 28.38851547241211 C 31.882282257080078 32.644107818603516 38.694393157958984 33.364559173583984 40.310821533203125 38.68370819091797 C 36.50971984863281 38.870994567871094 33.866004943847656 38.2995491027832 31.322328567504883 35.634437561035156 C 25.341270446777344 32.35955047607422 17.52164649963379 33.7384033203125 10.604121208190918 33.606361389160156 C 8.914510726928711 37.0393180847168 12.694696426391602 40.0833740234375 12.831897735595703 41.738548278808594 C 13.780179023742676 41.90339279174805 13.959312438964844 47.64613342285156 17.540576934814453 48.484439849853516 C 20.025339126586914 51.57655715942383 18.860126495361328 51.80543899536133 20.053354263305664 56.83884048461914 C 17.105581283569336 59.4519157409668 10.359113693237305 61.384239196777344 8.896248817443848 61.1424446105957 C 5.669422149658203 60.71139144897461 3.388737678527832 59.28611373901367 0.248473659157753 59.30425262451172 C -0.22901664674282074 39.680328369140625 -0.24087367951869965 19.728960037231445 -0.21628141403198242 -0.15664632618427277" stroke-width="0.0" fill="url(#shape_28_fill)"/>
    <path d="M 295.88372802734375 194.06617736816406 C 299.80792236328125 197.1846160888672 300.9562683105469 200.09713745117188 302.5221862792969 204.93130493164062 C 302.2912292480469 207.79150390625 318.2702331542969 232.9312744140625 310.4834899902344 249.63816833496094 C 310.14404296875 251.2295684814453 308.9884338378906 253.8021240234375 306.1527404785156 253.9300537109375 C 298.2181701660156 255.80654907226562 295.3769836425781 255.81784057617188 287.67315673828125 254.34886169433594 C 284.2137451171875 233.29856872558594 285.54791259765625 212.00350952148438 295.88372802734375 194.06617736816406" stroke-width="0.0" fill="url(#shape_29_fill)"/>
    <path d="M -0.31763073801994324 0.1411190927028656 C 4.566466808319092 0.32358047366142273 9.620329856872559 -0.30775007605552673 14.668213844299316 0.1262090653181076 C 15.547818183898926 0.3149584233760834 15.92593002319336 5.434947490692139 16.449596405029297 7.72969913482666 C 18.64175033569336 11.09511661529541 22.588764190673828 18.352956771850586 27.99634552001953 20.00750732421875 C 29.191984176635742 23.174434661865234 26.288745880126953 27.927793502807617 24.895793914794922 31.426332473754883 C 21.072460174560547 32.98557662963867 16.00328826904297 32.7952995300293 8.642790794372559 34.3015251159668 C 9.713388442993164 35.60841751098633 8.453490257263184 37.89222717285156 11.693774223327637 40.200645446777344 C 13.085156440734863 42.78184127807617 12.998296737670898 48.22895050048828 16.4526424407959 49.75714874267578 C 18.78212547302246 51.396705627441406 19.91384506225586 53.46903610229492 18.824542999267578 57.14545822143555 C 12.369014739990234 60.37860107421875 7.361145973205566 60.59387969970703 0.2087741196155548 58.77751159667969 C -0.2776455283164978 39.7791633605957 -0.26870664954185486 19.83188819885254 -0.31763073801994324 0.1411190927028656" stroke-width="0.0" fill="url(#shape_30_fill)"/>
    <path d="M 545.9434814453125 70.29156494140625 C 551.3715209960938 68.90652465820312 584.0308837890625 82.01567077636719 587.8192138671875 85.12061309814453 C 582.9723510742188 94.0673599243164 580.1807861328125 94.3333740234375 577.1175537109375 98.31253051757812 C 573.1077270507812 100.62946319580078 572.2809448242188 100.09964752197266 568.3455810546875 98.9217758178711 C 565.5310668945312 97.9354019165039 543.0101928710938 95.4929428100586 538.6717529296875 88.35356140136719 C 538.4262084960938 85.62814331054688 537.3309936523438 83.5226058959961 535.7018432617188 82.45857238769531 C 534.1220703125 80.26204681396484 530.6891479492188 80.158203125 528.444091796875 77.93492126464844 C 525.73876953125 75.63912200927734 528.1318969726562 70.7129135131836 529.9625244140625 69.17153930664062 C 534.8865966796875 67.34310150146484 539.7704467773438 69.0363540649414 545.9434814453125 70.29156494140625" stroke-width="0.0" fill="url(#shape_31_fill)"/>
    <path d="M 448.6646728515625 264.1060485839844 C 450.90716552734375 265.50933837890625 451.070556640625 266.451171875 455.8853759765625 267.38134765625 C 460.8992004394531 268.00701904296875 465.72125244140625 269.94171142578125 470.4626770019531 272.6531066894531 C 470.71630859375 276.9976501464844 471.49847412109375 275.619384765625 471.3994140625 280.42535400390625 C 446.58282470703125 285.58673095703125 428.26324462890625 282.9681396484375 417.1412353515625 282.8877868652344 C 413.3012390136719 273.1886291503906 415.3118591308594 273.0893859863281 415.83660888671875 268.37884521484375 C 418.02142333984375 267.0406494140625 417.9905090332031 265.0169982910156 419.3888244628906 263.1148986816406 C 428.85906982421875 254.36514282226562 438.8724365234375 258.91650390625 448.6646728515625 264.1060485839844" stroke-width="0.0" fill="url(#shape_32_fill)"/>
    <path d="M 270.7849426269531 192.33041381835938 C 283.0196533203125 189.2810516357422 281.762939453125 239.59364318847656 278.58685302734375 243.6328582763672 C 276.15325927734375 247.4664306640625 274.0870361328125 246.35604858398438 270.7122497558594 247.5552215576172 C 265.828125 246.44236755371094 267.3982849121094 242.2808074951172 264.8629455566406 240.65109252929688 C 257.83905029296875 205.34446716308594 257.45928955078125 198.888427734375 270.7849426269531 192.33041381835938" stroke-width="0.0" fill="url(#shape_33_fill)"/>
    <path d="M 252.4895782470703 426.3362121582031 C 254.44558715820312 429.1312561035156 261.6583557128906 433.6335144042969 261.0509033203125 438.6213684082031 C 259.51544189453125 440.6412048339844 259.51239013671875 444.2317810058594 252.63255310058594 445.990966796875 C 247.17919921875 445.54412841796875 219.63656616210938 448.1465148925781 212.7251434326172 444.4468078613281 C 213.14620971679688 436.8390808105469 213.83795166015625 436.38177490234375 215.87147521972656 434.3821716308594 C 217.0862579345703 432.3346862792969 226.07595825195312 434.4664001464844 225.54798889160156 430.7490234375 C 233.48147583007812 426.3004150390625 242.5610809326172 423.40240478515625 252.4895782470703 426.3362121582031" stroke-width="0.0" fill="url(#shape_34_fill)"/>
    <path d="M 105.8624267578125 70.44725799560547 C 110.08352661132812 69.52322387695312 111.98297882080078 78.73570251464844 112.85905456542969 81.30257415771484 C 116.25282287597656 84.55927276611328 117.69416046142578 110.42234802246094 116.70571899414062 110.7016372680664 C 115.140380859375 111.9000473022461 109.38656616210938 111.78268432617188 107.04374694824219 114.695556640625 C 105.0719985961914 116.08937072753906 96.29633331298828 119.14989471435547 93.6419906616211 112.32037353515625 C 89.80760955810547 83.82452392578125 103.09529876708984 85.86579132080078 105.8624267578125 70.44725799560547" stroke-width="0.0" fill="url(#shape_35_fill)"/>
    <path d="M 451.1014709472656 177.1189727783203 C 453.0854797363281 176.10743713378906 456.8381652832031 177.55062866210938 456.83837890625 179.44424438476562 C 457.55206298828125 179.83193969726562 458.0423889160156 183.7995147705078 459.6050109863281 185.2444610595703 C 461.17388916015625 188.5594482421875 464.7255554199219 192.50872802734375 462.9864196777344 206.98643493652344 C 459.1737365722656 208.97055053710938 454.36614990234375 207.9787139892578 449.9151916503906 208.1539764404297 C 441.1548156738281 207.53146362304688 440.03021240234375 208.79696655273438 435.8492126464844 208.73570251464844 C 432.615966796875 207.56602478027344 436.1585998535156 187.95785522460938 439.0030822753906 185.13929748535156 C 441.3948669433594 182.35565185546875 445.1632995605469 182.63905334472656 447.3967590332031 181.16824340820312 C 450.025390625 177.338134765625 449.01702880859375 180.40223693847656 451.1014709472656 177.1189727783203" stroke-width="0.0" fill="url(#shape_36_fill)"/>
    <path d="M 558.26708984375 79.83423614501953 C 562.8562622070312 81.2298583984375 583.1548461914062 83.33609771728516 576.865234375 83.20611572265625 C 582.5547485351562 83.33377838134766 586.83056640625 84.42979431152344 586.8263549804688 87.21659851074219 C 585.7633666992188 89.57735443115234 578.4683837890625 96.00470733642578 574.0217895507812 99.87059020996094 C 573.9710693359375 99.92327117919922 548.171875 97.2270278930664 539.30517578125 87.48846435546875 C 537.699462890625 85.77324676513672 537.700927734375 80.73216247558594 538.0851440429688 79.78376007080078 C 544.5493774414062 77.14604187011719 551.4547119140625 77.6477279663086 558.26708984375 79.83423614501953" stroke-width="0.0" fill="url(#shape_37_fill)"/>
    <path d="M 250.271240234375 204.46371459960938 C 263.0838317871094 208.78684997558594 257.5680236816406 243.5102081298828 257.28485107421875 246.78961181640625 C 253.8346405029297 254.16282653808594 250.06631469726562 253.1595458984375 247.9552459716797 252.92977905273438 C 237.32212829589844 239.86219787597656 242.1954803466797 207.8475799560547 250.271240234375 204.46371459960938" stroke-width="0.0" fill="url(#shape_38_fill)"/>
    <path d="M 444.3091125488281 262.5226135253906 C 445.7383117675781 263.7156066894531 449.32171630859375 266.368408203125 447.3592529296875 270.45135498046875 C 444.14459228515625 269.9955139160156 442.4903259277344 276.69586181640625 441.3443603515625 280.492431640625 C 440.3712158203125 284.6156005859375 417.5129089355469 284.3418884277344 416.42974853515625 278.9903564453125 C 415.64788818359375 276.40740966796875 414.0442199707031 274.89373779296875 415.8116760253906 270.94476318359375 C 413.95819091796875 270.5876770019531 418.9112548828125 261.7532653808594 422.9499816894531 260.0506896972656 C 431.0476989746094 256.3681640625 437.3835754394531 258.1489562988281 444.3091125488281 262.5226135253906" stroke-width="0.0" fill="url(#shape_39_fill)"/>
    <path d="M 407.9114685058594 409.94244384765625 C 408.4612731933594 409.757568359375 417.26220703125 419.49603271484375 412.9315185546875 423.5512390136719 C 397.16748046875 431.85150146484375 381.11285400390625 419.849853515625 377.7318420410156 419.87738037109375 C 369.9179382324219 417.34454345703125 372.00579833984375 417.2297668457031 373.3101806640625 412.1725769042969 C 381.01239013671875 406.767578125 399.3309020996094 405.982666015625 407.9114685058594 409.94244384765625" stroke-width="0.0" fill="url(#shape_40_fill)"/>
    <path d="M 66.14630126953125 427.3727722167969 C 68.13125610351562 428.9223327636719 65.19035339355469 435.7881774902344 60.15386199951172 436.4064636230469 C 58.48957824707031 437.1202392578125 42.392784118652344 437.78948974609375 35.76320266723633 445.8707275390625 C 30.722299575805664 445.83477783203125 23.678924560546875 448.77886962890625 17.25873374938965 443.3482360839844 C 16.491403579711914 440.4065856933594 17.31002426147461 439.4517822265625 17.352258682250977 437.0755615234375 C 32.1835823059082 426.7695617675781 56.54830551147461 425.3899841308594 66.14630126953125 427.3727722167969" stroke-width="0.0" fill="url(#shape_41_fill)"/>
    <path d="M 277.4421081542969 387.81121826171875 C 279.7568664550781 387.4332275390625 292.0422668457031 387.7615051269531 295.9546203613281 391.04425048828125 C 297.46405029296875 393.5645446777344 298.9065246582031 398.2028503417969 290.73736572265625 401.5509338378906 C 295.2858581542969 398.9416809082031 267.4800720214844 405.71478271484375 260.90155029296875 400.0497741699219 C 257.6226501464844 399.5923156738281 256.71148681640625 390.2401123046875 259.9353332519531 389.1257019042969 C 265.4915771484375 387.3775329589844 271.2174377441406 387.8594055175781 277.4421081542969 387.81121826171875" stroke-width="0.0" fill="url(#shape_42_fill)"/>
    <path d="M 220.91064453125 225.49484252929688 C 223.52830505371094 224.53370666503906 226.91452026367188 223.81163024902344 230.04296875 226.91482543945312 C 232.6612548828125 230.0376739501953 238.50010681152344 247.5854949951172 236.9320068359375 254.0056610107422 C 234.39498901367188 257.4103698730469 226.9954071044922 257.68133544921875 224.26785278320312 257.2251892089844 C 219.5745086669922 255.73486328125 218.2859344482422 255.49407958984375 218.19210815429688 247.027099609375 C 220.0907745361328 247.46011352539062 215.70399475097656 223.8003387451172 220.91064453125 225.49484252929688" stroke-width="0.0" fill="url(#shape_43_fill)"/>
    <path d="M 483.71343994140625 395.760009765625 C 485.95538330078125 399.2775573730469 485.06201171875 402.2832336425781 484.7140197753906 400.12744140625 C 477.9718322753906 411.3106994628906 453.283935546875 411.22998046875 451.17401123046875 406.94287109375 C 447.5296325683594 404.91839599609375 452.0258483886719 396.0669250488281 453.37725830078125 396.6427001953125 C 461.823974609375 391.765380859375 475.52960205078125 390.938232421875 483.71343994140625 395.760009765625" stroke-width="0.0" fill="url(#shape_44_fill)"/>
    <path d="M 44.82856369018555 407.38238525390625 C 46.9448356628418 411.4059143066406 35.13142013549805 413.01873779296875 36.13044357299805 414.47747802734375 C 32.743247985839844 414.8946533203125 32.77079391479492 416.0222473144531 29.888378143310547 416.84808349609375 C 28.04743194580078 418.045654296875 25.429792404174805 418.3331604003906 21.791301727294922 421.3744201660156 C 15.409263610839844 421.29150390625 6.229565620422363 419.88848876953125 -0.5670291185379028 420.4979553222656 C 0.9750842452049255 419.9773254394531 -0.7903169989585876 410.15484619140625 0.8212702870368958 409.4095764160156 C 8.028192520141602 408.1629943847656 41.53487014770508 406.7869873046875 44.82856369018555 407.38238525390625" stroke-width="0.0" fill="url(#shape_45_fill)"/>
    <path d="M 452.37896728515625 175.50498962402344 C 456.86785888671875 174.31809997558594 465.47735595703125 196.9683074951172 463.6890563964844 201.19801330566406 C 463.501953125 210.60107421875 452.4803466796875 208.7165069580078 449.36773681640625 206.8620147705078 C 448.4420471191406 203.13623046875 448.89349365234375 198.45692443847656 448.6940002441406 195.1321563720703 C 448.0445861816406 194.70787048339844 447.76654052734375 192.13815307617188 448.3492736816406 187.8953399658203 C 447.63800048828125 184.7557830810547 447.01885986328125 181.35244750976562 452.37896728515625 175.50498962402344" stroke-width="0.0" fill="url(#shape_46_fill)"/>
    <path d="M 377.0184631347656 183.46690368652344 C 375.72625732421875 187.49063110351562 374.62841796875 203.29290771484375 372.06732177734375 206.0961151123047 C 365.368408203125 206.65089416503906 365.2626037597656 205.12936401367188 361.6512756347656 203.4318389892578 C 357.87677001953125 199.98902893066406 355.2848815917969 196.6199188232422 354.8341369628906 188.55227661132812 C 356.90020751953125 184.68849182128906 358.09686279296875 184.65858459472656 364.1708068847656 183.6435546875 C 368.5108337402344 183.32977294921875 373.0681457519531 181.78961181640625 377.0184631347656 183.46690368652344" stroke-width="0.0" fill="url(#shape_47_fill)"/>
    <path d="M 466.73870849609375 270.7853088378906 C 468.5657043457031 271.917236328125 472.1677551269531 273.37353515625 470.9123840332031 280.0654296875 C 462.2914123535156 284.36505126953125 455.2331237792969 281.79351806640625 445.1689453125 283.58319091796875 C 438.10614013671875 283.30706787109375 440.3336486816406 276.8901062011719 441.08465576171875 276.6320495605469 C 447.5361328125 266.218017578125 456.0009765625 266.6455078125 466.73870849609375 270.7853088378906" stroke-width="0.0" fill="url(#shape_48_fill)"/>
    <path d="M 174.26918029785156 116.72871398925781 C 179.132568359375 114.71468353271484 182.702392578125 116.0609130859375 183.68508911132812 117.63253021240234 C 184.5784149169922 120.32603454589844 183.9745635986328 122.21417999267578 185.035888671875 126.43537902832031 C 184.34812927246094 134.06138610839844 187.66116333007812 137.97573852539062 184.22972106933594 141.81277465820312 C 181.5566864013672 146.48214721679688 173.3990020751953 144.77635192871094 173.0563507080078 145.08348083496094 C 171.39013671875 125.52706146240234 168.599365234375 121.14596557617188 174.26918029785156 116.72871398925781" stroke-width="0.0" fill="url(#shape_49_fill)"/>
    <path d="M 333.69683837890625 428.2536926269531 C 337.08856201171875 428.5947570800781 340.5146179199219 429.7424011230469 342.602294921875 432.3110656738281 C 345.59222412109375 434.7673034667969 344.2825622558594 438.091552734375 343.3408508300781 436.70416259765625 C 341.5582580566406 442.9937744140625 322.6050109863281 445.2052001953125 320.5585632324219 441.23016357421875 C 318.48687744140625 439.1882629394531 317.9527587890625 432.93682861328125 317.97705078125 431.9161376953125 C 322.2497253417969 426.6159973144531 327.52484130859375 427.2513427734375 333.69683837890625 428.2536926269531" stroke-width="0.0" fill="url(#shape_50_fill)"/>
    <path d="M 295.0676574707031 390.9919738769531 C 296.6181945800781 395.4980163574219 296.6407165527344 400.0622253417969 290.5849304199219 400.2046203613281 C 286.9067077636719 400.5905456542969 284.12432861328125 402.1610107421875 271.2626953125 402.5606689453125 C 271.17071533203125 401.7810363769531 269.3230895996094 399.1636047363281 271.0613708496094 396.51800537109375 C 269.27362060546875 396.4478759765625 273.86798095703125 388.95391845703125 277.2669677734375 388.6044616699219 C 283.9646301269531 387.15374755859375 289.19708251953125 387.50286865234375 295.0676574707031 390.9919738769531" stroke-width="0.0" fill="url(#shape_51_fill)"/>
    <path d="M 272.7779235839844 192.1901092529297 C 278.9450988769531 194.51759338378906 279.0687561035156 205.32275390625 278.9604187011719 210.87315368652344 C 270.35577392578125 213.06729125976562 265.04974365234375 210.18756103515625 261.20880126953125 210.19935607910156 C 258.5404052734375 204.44100952148438 261.98919677734375 195.43679809570312 266.45068359375 195.57125854492188 C 269.8602294921875 195.7289581298828 270.18206787109375 192.59829711914062 272.7779235839844 192.1901092529297" stroke-width="0.0" fill="url(#shape_52_fill)"/>
    <path d="M 216.44619750976562 410.8974304199219 C 215.62644958496094 406.8141784667969 216.37013244628906 412.5909729003906 214.56015014648438 414.3598937988281 C 213.5563201904297 417.9875183105469 189.05813598632812 421.3414306640625 187.71324157714844 415.4369201660156 C 186.04515075683594 408.2142028808594 205.91574096679688 401.76031494140625 216.44619750976562 410.8974304199219" stroke-width="0.0" fill="url(#shape_53_fill)"/>
    <path d="M 205.7910614013672 424.7067565917969 C 205.52293395996094 425.59735107421875 206.07363891601562 428.4881591796875 204.68853759765625 429.738037109375 C 201.6119842529297 433.816650390625 178.72085571289062 433.9431457519531 178.1167449951172 432.4864807128906 C 175.55995178222656 430.8803405761719 178.43080139160156 424.43609619140625 177.42202758789062 425.5382080078125 C 185.8762969970703 418.9915466308594 197.23487854003906 421.0296630859375 205.7910614013672 424.7067565917969" stroke-width="0.0" fill="url(#shape_54_fill)"/>
    <path d="M 271.0796203613281 245.2139129638672 C 275.58465576171875 244.65367126464844 276.46636962890625 245.74069213867188 279.85784912109375 248.27474975585938 C 281.5708923339844 250.0666046142578 281.0672302246094 255.23191833496094 281.1625671386719 256.3407897949219 C 263.3821716308594 257.7657775878906 263.0086364746094 257.22216796875 255.39283752441406 255.18247985839844 C 255.02215576171875 248.05047607421875 255.70632934570312 247.35684204101562 258.4792785644531 245.31333923339844 C 262.7782897949219 243.50196838378906 266.47900390625 244.52940368652344 271.0796203613281 245.2139129638672" stroke-width="0.0" fill="url(#shape_55_fill)"/>
    <path d="M 272.8512268066406 366.6879577636719 C 276.49456787109375 367.31683349609375 280.4869384765625 365.2184753417969 284.5600891113281 368.4466857910156 C 285.46392822265625 368.94976806640625 285.1376037597656 371.3616027832031 280.68560791015625 375.0669860839844 C 275.07958984375 375.4446105957031 265.28948974609375 378.0814514160156 256.9903259277344 375.99517822265625 C 253.41322326660156 373.24530029296875 254.8931121826172 369.0365295410156 256.16021728515625 368.2343444824219 C 261.3804016113281 366.75323486328125 267.5065612792969 366.5345153808594 272.8512268066406 366.6879577636719" stroke-width="0.0" fill="url(#shape_56_fill)"/>
    <path d="M 408.82080078125 270.0846862792969 C 412.2286376953125 270.771484375 417.50042724609375 275.7253723144531 415.1856689453125 279.3028869628906 C 409.5320129394531 286.85614013671875 399.1956481933594 282.0631103515625 394.0807800292969 282.9834289550781 C 391.2333679199219 274.6861572265625 399.201904296875 267.781982421875 408.82080078125 270.0846862792969" stroke-width="0.0" fill="url(#shape_57_fill)"/>
    <path d="M 632.3251953125 352.75811767578125 C 632.5332641601562 352.7485046386719 660.0596923828125 352.6241760253906 667.062744140625 354.63616943359375 C 670.150634765625 360.0900573730469 662.4159545898438 359.3351745605469 656.3894653320312 359.46063232421875 C 654.18994140625 358.8451843261719 634.147705078125 361.70782470703125 631.6914672851562 360.8587951660156 C 627.4763793945312 357.35986328125 629.5496826171875 353.824951171875 632.3251953125 352.75811767578125" stroke-width="0.0" fill="url(#shape_58_fill)"/>
    <path d="M 345.3565673828125 389.0489807128906 C 339.77630615234375 389.34820556640625 358.95220947265625 388.8463439941406 358.34613037109375 394.3087158203125 C 356.5344543457031 399.59710693359375 342.3780212402344 399.964599609375 338.30194091796875 399.6639099121094 C 335.2322082519531 399.4285583496094 333.2845764160156 398.6151123046875 331.40411376953125 396.6405029296875 C 332.03875732421875 394.3377990722656 330.6305236816406 394.11944580078125 333.09246826171875 391.1412353515625 C 337.037353515625 389.1876525878906 340.6358947753906 389.54425048828125 345.3565673828125 389.0489807128906" stroke-width="0.0" fill="url(#shape_59_fill)"/>
    <path d="M 460.6141052246094 363.8997802734375 C 464.0211181640625 363.36676025390625 470.2349853515625 368.5725402832031 472.3131103515625 372.3648986816406 C 471.32220458984375 377.95703125 470.8930358886719 375.4236755371094 463.4670715332031 376.2705078125 C 460.8832702636719 377.2635803222656 454.7745361328125 378.0318908691406 453.0858459472656 372.4263916015625 C 452.67425537109375 368.4993591308594 458.15460205078125 363.842041015625 460.6141052246094 363.8997802734375" stroke-width="0.0" fill="url(#shape_60_fill)"/>
    <path d="M 438.08404541015625 433.0519714355469 C 440.13763427734375 434.3931579589844 442.6539001464844 436.15386962890625 441.8359375 438.98199462890625 C 440.5929260253906 442.54205322265625 430.3063659667969 441.09942626953125 426.8881530761719 441.5829772949219 C 421.5517883300781 438.95758056640625 425.1355895996094 435.38507080078125 424.8699645996094 434.0506286621094 C 428.9573974609375 432.14178466796875 433.6299133300781 432.2959899902344 438.08404541015625 433.0519714355469" stroke-width="0.0" fill="url(#shape_61_fill)"/>
    <path d="M 185.23678588867188 411.6838684082031 C 186.06809997558594 414.0653076171875 185.21742248535156 414.6469421386719 186.46531677246094 417.3438720703125 C 184.47251892089844 420.3128662109375 183.79061889648438 419.35748291015625 182.66188049316406 420.13470458984375 C 180.40208435058594 421.13311767578125 174.89308166503906 421.4664306640625 171.44239807128906 419.98797607421875 C 169.20071411132812 418.088134765625 170.0532989501953 415.9342041015625 171.96435546875 414.1153259277344 C 176.37213134765625 411.56195068359375 180.24899291992188 410.17388916015625 185.23678588867188 411.6838684082031" stroke-width="0.0" fill="url(#shape_62_fill)"/>
    <path d="M 332.1279602050781 418.63311767578125 C 334.67840576171875 424.3212890625 327.73492431640625 428.456298828125 329.37969970703125 426.4514465332031 C 324.4898986816406 427.65093994140625 323.1490173339844 426.89215087890625 320.5700378417969 427.32275390625 C 317.8242492675781 426.32916259765625 319.7092590332031 418.96343994140625 318.36181640625 419.4530029296875 C 322.6724853515625 417.48577880859375 325.6025390625 417.361083984375 332.1279602050781 418.63311767578125" stroke-width="0.0" fill="url(#shape_63_fill)"/>
    <path d="M 56.188758850097656 273.3233337402344 C 55.63311767578125 272.0365905761719 68.1113052368164 271.7106018066406 64.03594207763672 278.7510070800781 C 61.12208557128906 279.85418701171875 50.70273971557617 277.62738037109375 48.45829391479492 277.4263916015625 C 49.697959899902344 272.5198059082031 51.98244094848633 272.6612854003906 56.188758850097656 273.3233337402344" stroke-width="0.0" fill="url(#shape_64_fill)"/>
    <path d="M 304.3354797363281 438.4139099121094 C 304.35040283203125 436.9041748046875 305.8619079589844 436.10845947265625 313.0696105957031 436.89984130859375 C 314.8791809082031 438.8495178222656 313.2047424316406 441.6692810058594 311.4432678222656 443.9494323730469 C 307.7021789550781 445.28509521484375 306.9484558105469 444.41571044921875 304.5337829589844 445.354736328125 C 303.063232421875 441.1797790527344 302.35498046875 439.79998779296875 304.3354797363281 438.4139099121094" stroke-width="0.0" fill="url(#shape_65_fill)"/>
    <path d="M -0.2011970430612564 0.2527172863483429 C 222.56723022460938 -0.2042991667985916 444.69525146484375 -0.20469236373901367 673.7684326171875 0.24483127892017365 C 674.2183227539062 147.28492736816406 674.2264404296875 294.49505615234375 673.7811889648438 445.745849609375 C 451.411865234375 446.20684814453125 229.0335235595703 446.2220153808594 0.2043428272008896 445.7749328613281 C -0.2298731654882431 298.9783935546875 -0.22005122900009155 151.70870971679688 -0.2011970430612564 0.2527172863483429" stroke-width="0.0" fill="url(#shape_66_fill)"/>
    <path d="M -0.09809770435094833 0.32849764823913574 C 222.7371826171875 -0.15758654475212097 444.55535888671875 -0.17031028866767883 673.7379760742188 0.28060320019721985 C 674.2119750976562 147.4620819091797 674.2281494140625 294.4289855957031 673.7448120117188 445.7019348144531 C 451.3031005859375 446.19122314453125 229.1904754638672 446.2086486816406 0.21480460464954376 445.718017578125 C -0.23048186302185059 298.9112548828125 -0.22046789526939392 151.6937713623047 -0.09809770435094833 0.32849764823913574" stroke-width="0.0" fill="url(#shape_67_fill)"/>
    <path d="M -0.21454359591007233 0.31634265184402466 C 222.73434448242188 -0.1313115954399109 444.5451354980469 -0.14163504540920258 673.7388305664062 0.26692476868629456 C 674.2122802734375 147.46022033691406 674.2281494140625 294.42999267578125 673.7447509765625 445.6984558105469 C 451.3027648925781 446.1915588378906 229.1974334716797 446.2080078125 0.21616564691066742 445.7126159667969 C -0.22820323705673218 298.9096984863281 -0.22010377049446106 151.69064331054688 -0.21454359591007233 0.31634265184402466" stroke-width="0.0" fill="url(#shape_68_fill)"/>
  </g>
</svg>
