<?xml version="1.0" ?>
<svg xmlns="http://www.w3.org/2000/svg" version="1.1" width="674" height="446">
  <defs>
    <radialGradient id="shape_0_fill" cx="0.5323264917209524" cy="0.740096498497933" r="0.28083547711018636">
      <stop offset="0.71911716" stop-color="rgb(157, 171, 0)" stop-opacity="0.8416221737861633"/>
      <stop offset="1.0" stop-color="rgb(48, 44, 0)" stop-opacity="1.0"/>
    </radialGradient>
    <radialGradient id="shape_1_fill" cx="0.5340810260716107" cy="0.7436153257908843" r="0.20660183054757048">
      <stop offset="0.4790842" stop-color="rgb(69, 65, 70)" stop-opacity="0.763850748538971"/>
      <stop offset="1.0" stop-color="rgb(34, 11, 0)" stop-opacity="0.6143109202384949"/>
    </radialGradient>
    <radialGradient id="shape_2_fill" cx="0.09792273546892387" cy="0.7376672719091578" r="0.22062588021026522">
      <stop offset="0.0" stop-color="rgb(38, 98, 184)" stop-opacity="0.9331620335578918"/>
      <stop offset="0.97670203" stop-color="rgb(5, 94, 255)" stop-opacity="0.9095957279205322"/>
    </radialGradient>
    <radialGradient id="shape_3_fill" cx="0.2778054981627875" cy="0.21528230333542075" r="0.13075626497806356">
      <stop offset="0.3997551" stop-color="rgb(128, 178, 0)" stop-opacity="0.7710668444633484"/>
      <stop offset="1.0" stop-color="rgb(35, 35, 0)" stop-opacity="0.9346479773521423"/>
    </radialGradient>
    <radialGradient id="shape_4_fill" cx="0.1543026706231454" cy="0.9977578475336323" r="0.10288926755639141">
      <stop offset="0.0" stop-color="rgb(81, 79, 86)" stop-opacity="1.0"/>
      <stop offset="1.0" stop-color="rgb(56, 50, 70)" stop-opacity="0.8713693618774414"/>
    </radialGradient>
    <radialGradient id="shape_5_fill" cx="0.14807964290992442" cy="0.23997249517740155" r="0.11810664960821587">
      <stop offset="0.0" stop-color="rgb(255, 255, 255)" stop-opacity="0.6465655565261841"/>
      <stop offset="0.5626593" stop-color="rgb(255, 255, 255)" stop-opacity="0.5396746397018433"/>
    </radialGradient>
    <radialGradient id="shape_6_fill" cx="0.18397626112759644" cy="0.9977578475336323" r="0.0754974885934892">
      <stop offset="0.0" stop-color="rgb(93, 90, 94)" stop-opacity="1.0"/>
      <stop offset="1.0" stop-color="rgb(144, 127, 131)" stop-opacity="0.9054625034332275"/>
    </radialGradient>
    <radialGradient id="shape_7_fill" cx="0.2893175074183976" cy="0.05829596412556054" r="0.08666390552011372">
      <stop offset="0.0" stop-color="rgb(55, 66, 29)" stop-opacity="1.0"/>
      <stop offset="1.0" stop-color="rgb(116, 129, 52)" stop-opacity="0.5664821267127991"/>
    </radialGradient>
    <radialGradient id="shape_8_fill" cx="0.3382789091115889" cy="0.9439461883408071" r="0.06756690277190167">
      <stop offset="0.0" stop-color="rgb(91, 124, 45)" stop-opacity="1.0"/>
      <stop offset="1.0" stop-color="rgb(104, 158, 33)" stop-opacity="0.620161235332489"/>
    </radialGradient>
    <radialGradient id="shape_9_fill" cx="0.30712166172106825" cy="0.9977578475336323" r="0.0730758406641929">
      <stop offset="0.0" stop-color="rgb(38, 48, 20)" stop-opacity="1.0"/>
      <stop offset="1.0" stop-color="rgb(33, 30, 50)" stop-opacity="1.0"/>
    </radialGradient>
    <radialGradient id="shape_10_fill" cx="0.3056379821958457" cy="0.9977578475336323" r="0.06792919147615971">
      <stop offset="0.0" stop-color="rgb(39, 49, 21)" stop-opacity="1.0"/>
      <stop offset="1.0" stop-color="rgb(33, 12, 0)" stop-opacity="0.6573742032051086"/>
    </radialGradient>
    <radialGradient id="shape_11_fill" cx="0.21810089020771514" cy="0.968609865470852" r="0.06792919147615971">
      <stop offset="0.0" stop-color="rgb(138, 135, 129)" stop-opacity="1.0"/>
      <stop offset="1.0" stop-color="rgb(133, 96, 67)" stop-opacity="0.45203086733818054"/>
    </radialGradient>
    <radialGradient id="shape_12_fill" cx="0.29080118694362017" cy="0.9977578475336323" r="0.07480746985189285">
      <stop offset="0.0" stop-color="rgb(22, 25, 13)" stop-opacity="1.0"/>
      <stop offset="1.0" stop-color="rgb(37, 34, 13)" stop-opacity="1.0"/>
    </radialGradient>
    <radialGradient id="shape_13_fill" cx="0.327893175074184" cy="0.8923766816143498" r="0.06900465877544279">
      <stop offset="0.0" stop-color="rgb(89, 117, 50)" stop-opacity="1.0"/>
      <stop offset="1.0" stop-color="rgb(92, 125, 7)" stop-opacity="0.6514275074005127"/>
    </radialGradient>
    <radialGradient id="shape_14_fill" cx="0.142433234421365" cy="0.9977578475336323" r="0.06617211022079875">
      <stop offset="0.0" stop-color="rgb(155, 150, 153)" stop-opacity="1.0"/>
      <stop offset="1.0" stop-color="rgb(255, 175, 162)" stop-opacity="0.2290138602256775"/>
    </radialGradient>
    <radialGradient id="shape_15_fill" cx="0.31008902077151335" cy="0.9977578475336323" r="0.06683642786405207">
      <stop offset="0.0" stop-color="rgb(43, 55, 23)" stop-opacity="1.0"/>
      <stop offset="1.0" stop-color="rgb(59, 67, 21)" stop-opacity="0.8884321451187134"/>
    </radialGradient>
    <radialGradient id="shape_16_fill" cx="0.27299703264094954" cy="0.9977578475336323" r="0.08110449363640579">
      <stop offset="0.0" stop-color="rgb(31, 35, 19)" stop-opacity="1.0"/>
      <stop offset="1.0" stop-color="rgb(30, 27, 0)" stop-opacity="0.9521020650863647"/>
    </radialGradient>
    <radialGradient id="shape_17_fill" cx="0.2893175074183976" cy="0.9977578475336323" r="0.07513486030193747">
      <stop offset="0.0" stop-color="rgb(22, 23, 13)" stop-opacity="1.0"/>
      <stop offset="1.0" stop-color="rgb(24, 21, 0)" stop-opacity="0.8594473600387573"/>
    </radialGradient>
    <radialGradient id="shape_18_fill" cx="0.3293768545994065" cy="0.7556053811659192" r="0.06617211022079875">
      <stop offset="0.0" stop-color="rgb(83, 108, 65)" stop-opacity="1.0"/>
      <stop offset="1.0" stop-color="rgb(107, 127, 59)" stop-opacity="0.9785606265068054"/>
    </radialGradient>
    <radialGradient id="shape_19_fill" cx="0.3516320474777448" cy="0.9977578475336323" r="0.06617211022079875">
      <stop offset="0.0" stop-color="rgb(95, 135, 39)" stop-opacity="1.0"/>
      <stop offset="1.0" stop-color="rgb(129, 188, 0)" stop-opacity="0.6625934839248657"/>
    </radialGradient>
    <radialGradient id="shape_20_fill" cx="0.0830860534124629" cy="0.9977578475336323" r="0.06792919147615971">
      <stop offset="0.0" stop-color="rgb(49, 52, 66)" stop-opacity="1.0"/>
      <stop offset="1.0" stop-color="rgb(39, 27, 62)" stop-opacity="0.44133061170578003"/>
    </radialGradient>
    <radialGradient id="shape_21_fill" cx="0.29821958456973297" cy="0.9977578475336323" r="0.06792919147615971">
      <stop offset="0.0" stop-color="rgb(33, 40, 17)" stop-opacity="1.0"/>
      <stop offset="1.0" stop-color="rgb(46, 60, 0)" stop-opacity="0.728471577167511"/>
    </radialGradient>
    <radialGradient id="shape_22_fill" cx="0.3563326600751113" cy="0.44372438849889645" r="0.06594546966099951">
      <stop offset="0.52384716" stop-color="rgb(108, 139, 34)" stop-opacity="0.9728827476501465"/>
      <stop offset="0.38891584" stop-color="rgb(145, 176, 40)" stop-opacity="0.9115847945213318"/>
    </radialGradient>
    <radialGradient id="shape_23_fill" cx="0.6454005934718101" cy="0.1412556053811659" r="0.06617211022079875">
      <stop offset="0.0" stop-color="rgb(46, 38, 13)" stop-opacity="1.0"/>
      <stop offset="1.0" stop-color="rgb(53, 30, 0)" stop-opacity="0.8801470994949341"/>
    </radialGradient>
    <radialGradient id="shape_24_fill" cx="0.2492550586734398" cy="0.4843076355254169" r="0.06616971047059012">
      <stop offset="0.0" stop-color="rgb(205, 213, 206)" stop-opacity="1.0"/>
      <stop offset="0.92456126" stop-color="rgb(255, 255, 255)" stop-opacity="0.5408428311347961"/>
    </radialGradient>
    <radialGradient id="shape_25_fill" cx="0.6320474777448071" cy="0.9977578475336323" r="0.06617211022079875">
      <stop offset="0.0" stop-color="rgb(35, 28, 8)" stop-opacity="1.0"/>
      <stop offset="1.0" stop-color="rgb(38, 14, 0)" stop-opacity="0.5778922438621521"/>
    </radialGradient>
    <radialGradient id="shape_26_fill" cx="0.15414520399506793" cy="0.3207086811151205" r="0.06604698362265567">
      <stop offset="0.11989566" stop-color="rgb(198, 211, 155)" stop-opacity="1.0"/>
      <stop offset="0.58338004" stop-color="rgb(139, 126, 76)" stop-opacity="0.1836225986480713"/>
    </radialGradient>
    <radialGradient id="shape_27_fill" cx="0.15410647972401242" cy="0.3208032787648017" r="0.06604505929465818">
      <stop offset="0.0" stop-color="rgb(192, 205, 0)" stop-opacity="1.0"/>
      <stop offset="0.49375948" stop-color="rgb(69, 63, 44)" stop-opacity="0.5558047294616699"/>
    </radialGradient>
    <radialGradient id="shape_28_fill" cx="0.03504537474861485" cy="0.01659162482873207" r="0.07020465839510502">
      <stop offset="0.11404424" stop-color="rgb(7, 24, 115)" stop-opacity="0.9557905793190002"/>
      <stop offset="0.8241902" stop-color="rgb(7, 24, 156)" stop-opacity="0.7374966740608215"/>
    </radialGradient>
    <radialGradient id="shape_29_fill" cx="0.33976258863681147" cy="0.6659192825112108" r="0.06617211022079875">
      <stop offset="0.0" stop-color="rgb(90, 117, 55)" stop-opacity="1.0"/>
      <stop offset="1.0" stop-color="rgb(107, 134, 28)" stop-opacity="0.8711011409759521"/>
    </radialGradient>
    <radialGradient id="shape_30_fill" cx="0.0392588776721445" cy="0.01622186647936902" r="0.06908412220216292">
      <stop offset="0.17848891" stop-color="rgb(49, 73, 75)" stop-opacity="1.0"/>
      <stop offset="0.92876613" stop-color="rgb(62, 65, 0)" stop-opacity="0.5098518133163452"/>
    </radialGradient>
    <radialGradient id="shape_31_fill" cx="0.12314540059347182" cy="0.9977578475336323" r="0.06617211022079875">
      <stop offset="0.0" stop-color="rgb(95, 103, 98)" stop-opacity="1.0"/>
      <stop offset="1.0" stop-color="rgb(136, 123, 112)" stop-opacity="0.7498283982276917"/>
    </radialGradient>
    <radialGradient id="shape_32_fill" cx="0.4035608308605341" cy="0.984304932735426" r="0.06617211022079875">
      <stop offset="0.0" stop-color="rgb(126, 155, 63)" stop-opacity="1.0"/>
      <stop offset="1.0" stop-color="rgb(126, 114, 28)" stop-opacity="0.9078066349029541"/>
    </radialGradient>
    <radialGradient id="shape_33_fill" cx="0.3249258160237389" cy="0.6053811659192825" r="0.06617211022079875">
      <stop offset="1.5710413e-05" stop-color="rgb(93, 124, 71)" stop-opacity="0.9998084306716919"/>
      <stop offset="1.0" stop-color="rgb(124, 145, 58)" stop-opacity="1.0"/>
    </radialGradient>
    <radialGradient id="shape_34_fill" cx="0.6468842729970327" cy="0.531390134529148" r="0.06617211022079875">
      <stop offset="0.0" stop-color="rgb(54, 47, 24)" stop-opacity="1.0"/>
      <stop offset="1.0" stop-color="rgb(48, 14, 28)" stop-opacity="0.41012144088745117"/>
    </radialGradient>
    <radialGradient id="shape_35_fill" cx="0.14895067299862644" cy="0.24016263132138102" r="0.06881009789531946">
      <stop offset="0.09153709" stop-color="rgb(204, 255, 92)" stop-opacity="0.144757479429245"/>
      <stop offset="0.5748358" stop-color="rgb(105, 75, 63)" stop-opacity="0.832383394241333"/>
    </radialGradient>
    <radialGradient id="shape_36_fill" cx="0.2878338278931751" cy="0.9977578475336323" r="0.06617211022079875">
      <stop offset="0.0" stop-color="rgb(80, 96, 53)" stop-opacity="1.0"/>
      <stop offset="1.0" stop-color="rgb(32, 31, 0)" stop-opacity="0.7774600386619568"/>
    </radialGradient>
    <radialGradient id="shape_37_fill" cx="0.129080118694362" cy="0.9977578475336323" r="0.06617211022079875">
      <stop offset="0.0" stop-color="rgb(87, 97, 81)" stop-opacity="1.0"/>
      <stop offset="1.0" stop-color="rgb(66, 71, 58)" stop-opacity="0.6104668378829956"/>
    </radialGradient>
    <radialGradient id="shape_38_fill" cx="0.33892324204260943" cy="0.5607740119968294" r="0.0666785763703751">
      <stop offset="0.7501433" stop-color="rgb(83, 109, 25)" stop-opacity="0.919357419013977"/>
      <stop offset="0.6022492" stop-color="rgb(164, 252, 77)" stop-opacity="0.8685897588729858"/>
    </radialGradient>
    <radialGradient id="shape_39_fill" cx="0.40059347181008903" cy="0.9641255605381166" r="0.06617211022079875">
      <stop offset="0.0" stop-color="rgb(138, 168, 60)" stop-opacity="1.0"/>
      <stop offset="1.0" stop-color="rgb(212, 250, 83)" stop-opacity="0.9604013562202454"/>
    </radialGradient>
    <radialGradient id="shape_40_fill" cx="0.6116301765781482" cy="0.8761838220160104" r="0.07121251952400547">
      <stop offset="0.37848273" stop-color="rgb(156, 138, 174)" stop-opacity="0.3078573942184448"/>
      <stop offset="0.51101285" stop-color="rgb(1, 11, 66)" stop-opacity="0.9036036729812622"/>
    </radialGradient>
    <radialGradient id="shape_41_fill" cx="0.6454005934718101" cy="0.08744394618834081" r="0.06617211022079875">
      <stop offset="0.0" stop-color="rgb(58, 48, 21)" stop-opacity="1.0"/>
      <stop offset="1.0" stop-color="rgb(91, 62, 22)" stop-opacity="1.0"/>
    </radialGradient>
    <radialGradient id="shape_42_fill" cx="0.5845697329376854" cy="0.6188340807174888" r="0.06617211022079875">
      <stop offset="0.0" stop-color="rgb(62, 59, 56)" stop-opacity="1.0"/>
      <stop offset="1.0" stop-color="rgb(43, 36, 77)" stop-opacity="0.6422773599624634"/>
    </radialGradient>
    <radialGradient id="shape_43_fill" cx="0.35466727870861925" cy="0.5017765199122407" r="0.06996988471962225">
      <stop offset="0.24610782" stop-color="rgb(118, 153, 51)" stop-opacity="0.9141637086868286"/>
      <stop offset="0.6047514" stop-color="rgb(201, 255, 22)" stop-opacity="0.7518357634544373"/>
    </radialGradient>
    <radialGradient id="shape_44_fill" cx="0.5934718100890207" cy="0.9977578475336323" r="0.06617211022079875">
      <stop offset="0.0" stop-color="rgb(89, 61, 18)" stop-opacity="1.0"/>
      <stop offset="1.0" stop-color="rgb(163, 79, 4)" stop-opacity="0.7118741869926453"/>
    </radialGradient>
    <radialGradient id="shape_45_fill" cx="0.612759643916914" cy="0.04035874439461883" r="0.06617211022079875">
      <stop offset="0.0" stop-color="rgb(157, 136, 123)" stop-opacity="1.0"/>
      <stop offset="1.0" stop-color="rgb(255, 218, 202)" stop-opacity="1.0"/>
    </radialGradient>
    <radialGradient id="shape_46_fill" cx="0.28635014836795253" cy="0.9977578475336323" r="0.06617211022079875">
      <stop offset="0.0" stop-color="rgb(82, 99, 55)" stop-opacity="1.0"/>
      <stop offset="1.0" stop-color="rgb(92, 101, 32)" stop-opacity="0.5821645259857178"/>
    </radialGradient>
    <radialGradient id="shape_47_fill" cx="0.28635014836795253" cy="0.8183856502242153" r="0.06617211022079875">
      <stop offset="0.0" stop-color="rgb(166, 189, 197)" stop-opacity="1.0"/>
      <stop offset="1.0" stop-color="rgb(242, 255, 255)" stop-opacity="0.4433305561542511"/>
    </radialGradient>
    <radialGradient id="shape_48_fill" cx="0.40801186943620177" cy="0.9977578475336323" r="0.06617211022079875">
      <stop offset="0.0" stop-color="rgb(107, 135, 68)" stop-opacity="1.0"/>
      <stop offset="1.0" stop-color="rgb(126, 139, 55)" stop-opacity="1.0"/>
    </radialGradient>
    <radialGradient id="shape_49_fill" cx="0.19287833827893175" cy="0.3991031390134529" r="0.06617211022079875">
      <stop offset="0.0" stop-color="rgb(92, 100, 54)" stop-opacity="1.0"/>
      <stop offset="1.0" stop-color="rgb(57, 32, 0)" stop-opacity="0.5183179974555969"/>
    </radialGradient>
    <radialGradient id="shape_50_fill" cx="0.6439169139465876" cy="0.7376681614349776" r="0.06617211022079875">
      <stop offset="0.0" stop-color="rgb(65, 56, 25)" stop-opacity="1.0"/>
      <stop offset="1.0" stop-color="rgb(146, 178, 92)" stop-opacity="0.3868318498134613"/>
    </radialGradient>
    <radialGradient id="shape_51_fill" cx="0.5845697329376854" cy="0.6322869955156951" r="0.06617211022079875">
      <stop offset="0.0" stop-color="rgb(75, 68, 60)" stop-opacity="1.0"/>
      <stop offset="1.0" stop-color="rgb(160, 121, 96)" stop-opacity="0.5613283514976501"/>
    </radialGradient>
    <radialGradient id="shape_52_fill" cx="0.2997032640949555" cy="0.6031390134529148" r="0.06617211022079875">
      <stop offset="0.0" stop-color="rgb(107, 158, 118)" stop-opacity="1.0"/>
      <stop offset="1.0" stop-color="rgb(173, 255, 222)" stop-opacity="0.5501535534858704"/>
    </radialGradient>
    <radialGradient id="shape_53_fill" cx="0.6097922848664689" cy="0.45067264573991034" r="0.06617211022079875">
      <stop offset="0.0" stop-color="rgb(38, 39, 27)" stop-opacity="1.0"/>
      <stop offset="1.0" stop-color="rgb(19, 12, 59)" stop-opacity="0.34538719058036804"/>
    </radialGradient>
    <radialGradient id="shape_54_fill" cx="0.6335311572700296" cy="0.426009002822397" r="0.06617211022079875">
      <stop offset="0.0" stop-color="rgb(67, 49, 20)" stop-opacity="1.0"/>
      <stop offset="1.0" stop-color="rgb(156, 85, 30)" stop-opacity="0.528921365737915"/>
    </radialGradient>
    <radialGradient id="shape_55_fill" cx="0.3707168533823257" cy="0.5988430827187851" r="0.066001377049115">
      <stop offset="0.43605936" stop-color="rgb(238, 255, 48)" stop-opacity="0.8405823111534119"/>
      <stop offset="0.16089156" stop-color="rgb(220, 255, 0)" stop-opacity="0.7086855173110962"/>
    </radialGradient>
    <radialGradient id="shape_56_fill" cx="0.5489614243323442" cy="0.600896860986547" r="0.06617211022079875">
      <stop offset="0.0" stop-color="rgb(50, 62, 80)" stop-opacity="1.0"/>
      <stop offset="1.0" stop-color="rgb(26, 82, 255)" stop-opacity="0.41180944442749023"/>
    </radialGradient>
    <radialGradient id="shape_57_fill" cx="0.4094955489614243" cy="0.9035874439461884" r="0.06617211022079875">
      <stop offset="0.0" stop-color="rgb(111, 144, 47)" stop-opacity="1.0"/>
      <stop offset="1.0" stop-color="rgb(206, 255, 53)" stop-opacity="0.7756035327911377"/>
    </radialGradient>
    <radialGradient id="shape_58_fill" cx="0.5281899109792285" cy="0.9977578475336323" r="0.06617211022079875">
      <stop offset="0.0" stop-color="rgb(50, 43, 14)" stop-opacity="1.0"/>
      <stop offset="1.0" stop-color="rgb(80, 57, 13)" stop-opacity="1.0"/>
    </radialGradient>
    <radialGradient id="shape_59_fill" cx="0.5845697329376854" cy="0.7690582959641256" r="0.06617211022079875">
      <stop offset="0.0" stop-color="rgb(61, 63, 58)" stop-opacity="1.0"/>
      <stop offset="1.0" stop-color="rgb(78, 73, 93)" stop-opacity="0.7095574140548706"/>
    </radialGradient>
    <radialGradient id="shape_60_fill" cx="0.5489614243323442" cy="0.9977578475336323" r="0.06617211022079875">
      <stop offset="0.0" stop-color="rgb(140, 131, 64)" stop-opacity="1.0"/>
      <stop offset="1.0" stop-color="rgb(233, 202, 92)" stop-opacity="0.8998859524726868"/>
    </radialGradient>
    <radialGradient id="shape_61_fill" cx="0.6469716601272719" cy="0.96866973740103" r="0.06610439651443979">
      <stop offset="0.463088" stop-color="rgb(255, 203, 66)" stop-opacity="1.0"/>
      <stop offset="0.21279041" stop-color="rgb(187, 111, 48)" stop-opacity="0.5661087036132812"/>
    </radialGradient>
    <radialGradient id="shape_62_fill" cx="0.615727002967359" cy="0.3991031390134529" r="0.06617211022079875">
      <stop offset="0.0" stop-color="rgb(55, 47, 13)" stop-opacity="1.0"/>
      <stop offset="1.0" stop-color="rgb(77, 52, 4)" stop-opacity="0.9617185592651367"/>
    </radialGradient>
    <radialGradient id="shape_63_fill" cx="0.6261127596439169" cy="0.7286995515695067" r="0.06617211022079875">
      <stop offset="0.0" stop-color="rgb(79, 66, 32)" stop-opacity="1.0"/>
      <stop offset="1.0" stop-color="rgb(195, 197, 99)" stop-opacity="0.5490150451660156"/>
    </radialGradient>
    <radialGradient id="shape_64_fill" cx="0.40801186943620177" cy="0.12556053811659193" r="0.06617211022079875">
      <stop offset="0.0" stop-color="rgb(76, 66, 59)" stop-opacity="1.0"/>
      <stop offset="1.0" stop-color="rgb(126, 95, 94)" stop-opacity="1.0"/>
    </radialGradient>
    <radialGradient id="shape_65_fill" cx="0.6528189910979229" cy="0.6883408071748879" r="0.06617211022079875">
      <stop offset="0.0" stop-color="rgb(121, 97, 39)" stop-opacity="1.0"/>
      <stop offset="1.0" stop-color="rgb(255, 227, 95)" stop-opacity="1.0"/>
    </radialGradient>
    <radialGradient id="shape_66_fill" cx="0.6526756399816859" cy="0.4588165283203125" r="0.07061679285428644">
      <stop offset="0.24673766" stop-color="rgb(173, 206, 118)" stop-opacity="0.2685956060886383"/>
      <stop offset="0.82779866" stop-color="rgb(0, 8, 0)" stop-opacity="0.04862288013100624"/>
    </radialGradient>
    <radialGradient id="shape_67_fill" cx="0.5969831879839346" cy="0.9949979226150855" r="0.07028899489948941">
      <stop offset="0.83916533" stop-color="rgb(52, 29, 0)" stop-opacity="0.6815847158432007"/>
      <stop offset="1.0" stop-color="rgb(0, 11, 0)" stop-opacity="0.15065230429172516"/>
    </radialGradient>
    <radialGradient id="shape_68_fill" cx="0.49130928198024854" cy="0.997288451601037" r="0.06833198162497682">
      <stop offset="0.3869328" stop-color="rgb(46, 17, 0)" stop-opacity="0.5048878788948059"/>
      <stop offset="1.0" stop-color="rgb(32, 63, 53)" stop-opacity="0.19754359126091003"/>
    </radialGradient>
  </defs>
  <g>
    <path d="M 0.024242311716079712 271.2848815917969 C 22.53010368347168 260.8260498046875 42.02924346923828 262.8243713378906 46.22110366821289 271.73077392578125 C 48.182151794433594 273.5760803222656 49.34837341308594 276.21673583984375 57.09606170654297 274.5902404785156 C 58.74661636352539 273.8259582519531 62.817779541015625 273.9141845703125 63.605712890625 269.9082336425781 C 68.4822998046875 268.3028869628906 99.84519958496094 269.8467712402344 116.68624114990234 270.2387390136719 C 119.8575439453125 271.3755798339844 124.8277359008789 278.2885437011719 126.71185302734375 282.48944091796875 C 134.34278869628906 282.58514404296875 145.9168243408203 280.8160705566406 167.37144470214844 289.5288391113281 C 185.3268280029297 282.94366455078125 185.87705993652344 281.9294738769531 206.73362731933594 287.3056335449219 C 200.38037109375 287.2371520996094 198.32054138183594 281.24560546875 210.8628692626953 268.56695556640625 C 249.08383178710938 266.7893371582031 292.6800537109375 264.65740966796875 313.1357421875 272.953857421875 C 349.6898193359375 274.7630310058594 426.80706787109375 275.60186767578125 475.547119140625 266.4767150878906 C 506.486572265625 261.91387939453125 547.6590576171875 262.57635498046875 547.4522094726562 275.04302978515625 C 547.7645874023438 274.5388488769531 547.4520874023438 264.5646667480469 578.92919921875 263.64813232421875 C 594.3162841796875 268.44598388671875 612.2389526367188 280.4820251464844 612.5895385742188 280.5670166015625 C 615.6109008789062 266.12554931640625 625.8045043945312 265.7602233886719 673.331298828125 265.78778076171875 C 676.7444458007812 272.2994384765625 679.368896484375 278.82720947265625 678.4677124023438 284.9035339355469 C 676.6203002929688 339.5277099609375 674.7125244140625 391.4894104003906 675.1177368164062 446.4668273925781 C 451.9151306152344 446.6697692871094 228.9889373779297 446.8115539550781 -0.43615496158599854 446.4240417480469 C -0.5125306248664856 389.141357421875 -0.35509783029556274 332.33990478515625 0.024242311716079712 271.2848815917969" stroke-width="0.0" fill="url(#shape_0_fill)"/>
    <path d="M -0.27354973554611206 271.16748046875 C 35.93381881713867 275.39300537109375 36.5576057434082 274.585205078125 44.129215240478516 273.6634521484375 C 46.028297424316406 266.5893249511719 59.031455993652344 266.1905517578125 79.31841278076172 267.4655456542969 C 113.62345886230469 278.68035888671875 114.0579605102539 279.3109130859375 127.96790313720703 279.1560974121094 C 127.81880187988281 270.59814453125 137.67955017089844 269.42987060546875 145.15286254882812 269.6704406738281 C 185.2649688720703 268.6587219238281 185.9977569580078 268.7999572753906 204.1724395751953 272.8714294433594 C 203.13746643066406 292.10528564453125 204.0316162109375 292.3686828613281 208.725830078125 298.8655090332031 C 213.66351318359375 297.9565124511719 267.024169921875 299.1096496582031 289.6494445800781 301.3265075683594 C 310.79388427734375 306.1368408203125 444.38134765625 304.2339782714844 460.44268798828125 304.9587097167969 C 477.9158935546875 293.84564208984375 491.7303161621094 292.13348388671875 504.52490234375 287.0263977050781 C 513.7942504882812 288.9494934082031 521.0061645507812 286.71978759765625 523.0783081054688 286.5618591308594 C 527.4305419921875 285.7327575683594 531.7515869140625 285.9740905761719 534.6101684570312 287.1802673339844 C 539.5433959960938 287.2445983886719 540.3182983398438 288.54229736328125 548.0929565429688 306.7989807128906 C 579.4707641601562 290.9015197753906 581.6031494140625 291.3717956542969 599.2832641601562 296.80560302734375 C 617.1775512695312 289.2821350097656 627.4911499023438 288.1568298339844 634.5887451171875 288.53472900390625 C 641.0323486328125 276.069091796875 654.951416015625 279.364990234375 673.7120361328125 292.68292236328125 C 674.2590942382812 340.15802001953125 674.4942016601562 392.12255859375 674.1581420898438 446.2807922363281 C 451.4774169921875 446.3905334472656 229.19664001464844 446.25439453125 -0.30765825510025024 446.2476501464844 C -0.21361659467220306 389.403564453125 -0.30416902899742126 333.0137634277344 -0.27354973554611206 271.16748046875" stroke-width="0.0" fill="url(#shape_1_fill)"/>
    <path d="M -0.019932541996240616 -0.25989267230033875 C 219.69313049316406 0.1040392518043518 439.478759765625 -0.45242562890052795 673.2700805664062 -0.1221010684967041 C 666.0266723632812 10.910374641418457 644.8318481445312 35.0942268371582 637.4639282226562 49.197601318359375 C 634.5513916015625 53.29484176635742 611.7302856445312 91.98014831542969 583.6696166992188 83.76605224609375 C 577.935546875 81.14977264404297 562.8878784179688 71.99520874023438 532.3935546875 74.3055419921875 C 532.1874389648438 78.92584228515625 526.4996337890625 79.42315673828125 522.1476440429688 72.01736450195312 C 522.677734375 68.88434600830078 499.3243408203125 63.9251823425293 499.1548767089844 62.63640594482422 C 493.2158508300781 62.22376251220703 485.77484130859375 61.026588439941406 484.4152526855469 68.8748779296875 C 475.2414245605469 72.87049102783203 476.19287109375 75.94300079345703 476.78399658203125 82.04037475585938 C 484.3973693847656 100.25446319580078 479.4519348144531 119.24175262451172 477.6642761230469 122.08216857910156 C 460.3836364746094 117.10968780517578 459.1921691894531 114.11822509765625 450.2577209472656 108.34207153320312 C 435.21612548828125 107.78656768798828 411.7398986816406 102.13590240478516 409.9627990722656 105.11479187011719 C 414.02996826171875 120.10739135742188 418.5570983886719 127.24703979492188 413.95269775390625 139.42897033691406 C 410.2663269042969 152.66709899902344 394.54437255859375 152.38230895996094 394.673828125 136.0385284423828 C 381.4017639160156 140.6835174560547 378.7701721191406 158.44566345214844 369.3129577636719 157.56553649902344 C 366.28076171875 156.831298828125 363.4020080566406 158.51919555664062 356.3202209472656 161.03720092773438 C 350.564453125 164.95220947265625 347.7745666503906 165.970458984375 349.21197509765625 171.6828155517578 C 344.5909118652344 178.42388916015625 339.541748046875 175.10354614257812 346.8805236816406 162.8140411376953 C 296.4803771972656 159.49835205078125 295.504150390625 166.1777801513672 293.68536376953125 175.4364013671875 C 306.21551513671875 185.00364685058594 303.6382141113281 189.26614379882812 307.4851379394531 201.45248413085938 C 307.4551086425781 200.68763732910156 306.2801818847656 198.14376831054688 304.5641784667969 189.8507537841797 C 304.3983459472656 185.75521850585938 303.1833190917969 184.8193359375 291.44366455078125 172.3287353515625 C 289.71783447265625 194.55567932128906 289.0476379394531 195.9683380126953 289.2861633300781 196.29393005371094 C 289.5380859375 189.943115234375 291.6168212890625 181.9842071533203 290.6390380859375 170.74810791015625 C 271.4610290527344 173.17845153808594 267.78009033203125 179.13966369628906 261.1657409667969 175.0791015625 C 256.4364013671875 183.43202209472656 255.8716583251953 189.190673828125 254.5663604736328 197.19834899902344 C 260.6644287109375 199.33277893066406 260.5368347167969 199.92703247070312 257.91363525390625 199.51483154296875 C 257.1199035644531 198.6100311279297 253.83531188964844 196.36000061035156 255.25450134277344 193.8966827392578 C 255.47398376464844 182.44268798828125 261.8255920410156 181.0813751220703 260.84234619140625 164.39613342285156 C 260.8334045410156 160.21224975585938 216.0274658203125 142.74337768554688 212.8995361328125 141.44883728027344 C 186.8582000732422 133.67567443847656 195.38087463378906 105.21625518798828 191.23179626464844 86.26324462890625 C 191.5719757080078 85.1554183959961 162.15692138671875 73.84490966796875 128.9208984375 58.06412124633789 C 104.29843139648438 39.00482177734375 75.00299835205078 58.28498840332031 44.555702209472656 58.58895492553711 C 28.57675552368164 69.92372131347656 2.004206657409668 70.07190704345703 -0.917354166507721 69.4254150390625 C 0.34183040261268616 43.958133697509766 -0.3314551115036011 22.56187629699707 -0.019932541996240616 -0.25989267230033875" stroke-width="0.0" fill="url(#shape_2_fill)"/>
    <path d="M 87.20111846923828 58.09100341796875 C 89.10385131835938 68.82305908203125 91.48857879638672 69.06743621826172 93.7292251586914 71.66712951660156 C 90.67363739013672 79.97870635986328 92.03645324707031 81.67738342285156 89.21102905273438 93.8945541381836 C 96.05171966552734 85.95494842529297 98.2411880493164 86.38609313964844 102.8774642944336 87.99590301513672 C 104.95980072021484 75.19795227050781 105.74114990234375 73.31078338623047 108.38404846191406 73.39274597167969 C 112.30377960205078 87.67912292480469 110.23551940917969 91.76839447021484 117.28026580810547 99.009521484375 C 116.27237701416016 100.0522232055664 116.59162902832031 109.5246353149414 115.51261138916016 115.22897338867188 C 122.24705505371094 115.39704132080078 128.35972595214844 116.03926086425781 129.6209716796875 111.75145721435547 C 130.92990112304688 110.47262573242188 136.99639892578125 109.73396301269531 136.65097045898438 104.90037536621094 C 136.66546630859375 103.6806869506836 135.5760498046875 101.85049438476562 137.6492919921875 99.11170196533203 C 136.5201416015625 93.28031921386719 137.5608367919922 92.9172592163086 137.5951690673828 89.587158203125 C 137.35317993164062 85.3466796875 138.57745361328125 84.84904479980469 140.06881713867188 88.11888122558594 C 140.5563507080078 83.34439849853516 146.78077697753906 80.59523010253906 148.3131103515625 82.2657470703125 C 148.46575927734375 93.26220703125 149.90521240234375 94.55160522460938 152.468505859375 99.30819702148438 C 153.80087280273438 102.8110122680664 149.90487670898438 106.89364624023438 148.8653564453125 106.75715637207031 C 152.4615020751953 109.63847351074219 150.24420166015625 114.02210998535156 148.33529663085938 113.30216979980469 C 154.38282775878906 112.8566665649414 158.0953826904297 122.58195495605469 157.1625213623047 123.32552337646484 C 161.2666473388672 124.95301055908203 164.8635711669922 123.44894409179688 169.67388916015625 122.75924682617188 C 174.39456176757812 119.73308563232422 175.78660583496094 121.51179504394531 177.65882873535156 122.48905181884766 C 179.33343505859375 122.70005798339844 180.07644653320312 125.01899719238281 183.6314697265625 127.38716888427734 C 183.92779541015625 130.10304260253906 182.62799072265625 132.90740966796875 185.06871032714844 134.82472229003906 C 187.87271118164062 135.47454833984375 188.42831420898438 139.9291534423828 188.1783447265625 144.5263671875 C 196.76597595214844 148.14781188964844 208.80538940429688 153.45558166503906 201.6082000732422 172.35641479492188 C 205.31773376464844 177.557861328125 206.85330200195312 178.80296325683594 205.1362762451172 181.6199493408203 C 214.78775024414062 181.2315216064453 215.6459503173828 193.1756134033203 212.41812133789062 201.21237182617188 C 204.5428009033203 206.08670043945312 203.0228729248047 206.40086364746094 203.31430053710938 210.3138885498047 C 200.5111846923828 210.4631805419922 200.25389099121094 211.76319885253906 199.4041748046875 213.10162353515625 C 196.11627197265625 215.2363739013672 193.11399841308594 215.23617553710938 192.1935272216797 219.67474365234375 C 184.2805633544922 220.7200164794922 183.613525390625 224.7395477294922 178.25135803222656 230.0743865966797 C 176.39247131347656 233.50003051757812 181.1521453857422 238.46400451660156 181.04806518554688 239.19517517089844 C 181.87203979492188 252.07101440429688 186.017578125 261.2861633300781 179.23779296875 264.4291687011719 C 172.2789764404297 268.9317321777344 148.8554229736328 268.18841552734375 136.09371948242188 269.62139892578125 C 131.28746032714844 268.8804016113281 129.04510498046875 272.2892761230469 122.6103515625 275.5657653808594 C 109.16956329345703 276.7689514160156 73.3243637084961 275.9522705078125 72.98311614990234 270.105224609375 C 47.722164154052734 266.7903137207031 56.57191467285156 268.580810546875 57.87936019897461 273.56982421875 C 48.75288009643555 276.48724365234375 1.0567846298217773 272.6416015625 0.8093609809875488 270.21099853515625 C -6.134737014770508 225.15975952148438 -5.121955871582031 167.3040313720703 2.073779582977295 122.32582092285156 C 10.828651428222656 117.98491668701172 21.385623931884766 113.89483642578125 26.134796142578125 121.88629913330078 C 27.40489387512207 129.83453369140625 35.709320068359375 129.17063903808594 42.20683670043945 131.91531372070312 C 46.24911880493164 130.27345275878906 47.783809661865234 131.21910095214844 49.49061584472656 142.2644500732422 C 50.3969612121582 149.17555236816406 61.24615478515625 148.5449981689453 62.74661636352539 146.21127319335938 C 62.17970275878906 136.91444396972656 63.12989044189453 134.05621337890625 62.084983825683594 128.29042053222656 C 68.18043518066406 126.6232681274414 67.69584655761719 124.06958770751953 66.35297393798828 112.53890228271484 C 67.91669464111328 111.088134765625 68.3189468383789 105.90560150146484 75.01416778564453 102.2081527709961 C 74.77256774902344 100.78410339355469 77.77677917480469 90.45124053955078 77.35086822509766 85.82608795166016 C 77.27706909179688 83.39803314208984 77.58856201171875 75.19171905517578 85.22267150878906 75.41477966308594 C 83.13493347167969 70.21685791015625 82.76451873779297 67.53693389892578 87.20111846923828 58.09100341796875" stroke-width="0.0" fill="url(#shape_3_fill)"/>
    <path d="M 674.0577392578125 -0.6059889197349548 C 676.1160888671875 47.826377868652344 675.0172119140625 95.90823364257812 680.6348876953125 138.0699920654297 C 679.7137451171875 120.19548034667969 671.6527709960938 120.45305633544922 662.08349609375 120.2904052734375 C 660.4075317382812 119.58204650878906 654.8447875976562 109.48207092285156 650.0045166015625 110.92818450927734 C 648.9231567382812 112.54307556152344 645.0621948242188 149.67906188964844 642.9116821289062 155.68386840820312 C 630.006103515625 154.674072265625 626.9910888671875 142.7528533935547 627.0247192382812 138.48974609375 C 623.030029296875 137.4539031982422 618.9823608398438 145.36692810058594 615.4148559570312 144.20968627929688 C 611.6814575195312 142.31190490722656 610.1627197265625 143.3232421875 607.8027954101562 141.02713012695312 C 608.9273681640625 137.36343383789062 613.0822143554688 132.8607177734375 606.1810913085938 118.17820739746094 C 598.7108154296875 134.65797424316406 597.62939453125 139.46759033203125 593.8504638671875 142.37623596191406 C 598.9993286132812 145.93606567382812 598.3287353515625 151.51895141601562 597.3461303710938 152.49908447265625 C 588.2589111328125 157.48130798339844 588.2935180664062 164.6118927001953 578.2388916015625 172.32260131835938 C 572.3099975585938 170.14053344726562 569.8756103515625 157.6407470703125 568.4723510742188 157.10574340820312 C 565.4203491210938 158.05850219726562 563.2501220703125 154.123046875 561.8709106445312 149.15899658203125 C 560.1369018554688 151.18814086914062 556.8198852539062 151.22303771972656 555.21142578125 155.7439727783203 C 551.8611450195312 156.00274658203125 550.3365478515625 158.63803100585938 548.860595703125 158.06236267089844 C 548.2671508789062 155.7261962890625 544.9242553710938 155.37571716308594 536.119384765625 153.3612823486328 C 531.779052734375 154.91026306152344 529.9697875976562 159.11428833007812 523.1226196289062 156.89686584472656 C 519.2646484375 160.51785278320312 520.3170776367188 162.15438842773438 522.911865234375 169.10415649414062 C 517.6210327148438 168.47024536132812 517.2930297851562 171.0169219970703 516.259765625 171.63453674316406 C 511.2713623046875 173.32232666015625 509.8157043457031 175.26531982421875 505.6435852050781 174.399169921875 C 502.7532043457031 171.4096221923828 503.051025390625 169.51063537597656 502.9881591796875 159.3370361328125 C 491.3325500488281 144.916015625 506.1446838378906 120.87438201904297 517.5447998046875 126.39188385009766 C 523.734375 125.27788543701172 541.0714111328125 109.79830169677734 548.8074951171875 112.95455169677734 C 557.2685546875 110.7231216430664 556.922119140625 109.38827514648438 558.8775634765625 108.31814575195312 C 558.9818115234375 108.19947814941406 564.8910522460938 102.93490600585938 570.2457885742188 105.01974487304688 C 574.6349487304688 102.45039367675781 573.5011596679688 97.57823944091797 578.993896484375 93.99227142333984 C 587.486083984375 88.4306411743164 592.5398559570312 77.47892761230469 612.8622436523438 78.4434585571289 C 616.9091796875 73.60481262207031 644.5592651367188 51.10076904296875 645.8258056640625 35.42267990112305 C 644.939208984375 32.42265701293945 647.9859008789062 30.384679794311523 647.5521240234375 29.49675750732422 C 646.8946533203125 28.280208587646484 664.1312255859375 -4.241755962371826 674.0577392578125 -0.6059889197349548" stroke-width="0.0" fill="url(#shape_4_fill)"/>
    <path d="M 151.51657104492188 68.61707305908203 C 152.29843139648438 69.12638854980469 186.3433380126953 84.8798828125 192.91554260253906 91.79893493652344 C 178.94442749023438 119.03459167480469 217.59922790527344 150.12355041503906 220.9208526611328 154.84974670410156 C 238.9288787841797 169.78196716308594 241.93202209472656 184.3606414794922 240.831298828125 193.86753845214844 C 238.0589141845703 193.204833984375 236.1395263671875 186.63790893554688 236.77139282226562 184.06515502929688 C 235.68634033203125 183.54098510742188 234.1553497314453 184.30833435058594 231.06300354003906 182.68539428710938 C 231.89964294433594 183.92092895507812 231.99658203125 193.7095489501953 228.6452178955078 195.6685028076172 C 227.6161346435547 196.6371612548828 227.44476318359375 205.33396911621094 221.17945861816406 207.6747283935547 C 215.0948486328125 206.5810546875 214.31201171875 197.8035125732422 214.64007568359375 194.9061737060547 C 212.95896911621094 185.4397735595703 211.89584350585938 184.94915771484375 206.61671447753906 177.31651306152344 C 205.90057373046875 172.8695831298828 205.9391326904297 167.25367736816406 204.15579223632812 159.26416015625 C 206.01702880859375 153.54501342773438 194.8627471923828 144.65440368652344 193.45977783203125 141.14566040039062 C 189.1382293701172 140.12631225585938 188.9146728515625 137.09751892089844 186.20321655273438 135.61349487304688 C 178.05032348632812 133.69949340820312 178.85260009765625 127.2938461303711 183.42208862304688 117.18257141113281 C 179.3903045654297 116.42393493652344 177.3975067138672 117.65538787841797 172.9417266845703 117.76348114013672 C 179.49417114257812 128.40554809570312 176.1276092529297 130.62281799316406 151.9883270263672 130.40760803222656 C 149.34689331054688 128.58201599121094 152.00698852539062 102.49684143066406 154.2869415283203 93.18212890625 C 152.73887634277344 89.87346649169922 153.2998046875 87.4224853515625 150.2239990234375 76.2591552734375 C 148.02301025390625 75.89984130859375 148.22267150878906 69.23304748535156 151.51657104492188 68.61707305908203" stroke-width="0.0" fill="url(#shape_5_fill)"/>
    <path d="M 612.5464477539062 80.46730041503906 C 618.9750366210938 83.98089599609375 619.7239379882812 86.55943298339844 631.999267578125 85.66358184814453 C 636.0377197265625 86.1944351196289 637.01416015625 88.54842376708984 641.1615600585938 89.31558227539062 C 642.1726684570312 86.87312316894531 665.9435424804688 92.41190338134766 674.9542236328125 98.32596588134766 C 675.4066162109375 110.61923217773438 674.7958984375 125.90557098388672 674.7015380859375 151.76776123046875 C 665.5958251953125 142.81219482421875 662.6964721679688 136.75794982910156 659.8076782226562 131.67239379882812 C 659.869384765625 122.90897369384766 660.3677978515625 116.41932678222656 653.37890625 112.32937622070312 C 644.0086059570312 113.46727752685547 644.0562133789062 142.25091552734375 642.6146240234375 142.9407958984375 C 644.1129150390625 144.5464324951172 642.6011962890625 148.19482421875 644.5994873046875 150.16897583007812 C 639.9990234375 150.80137634277344 637.9013671875 152.75079345703125 634.63427734375 153.45361328125 C 631.6515502929688 146.17002868652344 629.1829833984375 141.39524841308594 630.06640625 140.54153442382812 C 628.7911376953125 137.5025177001953 621.990966796875 136.59140014648438 621.0597534179688 138.8935089111328 C 618.4801025390625 140.6263885498047 619.3204345703125 142.43527221679688 618.3136596679688 149.01730346679688 C 613.825927734375 144.71473693847656 613.2953491210938 143.2111053466797 609.7221069335938 143.66445922851562 C 608.4906005859375 140.4076385498047 609.548828125 139.2417755126953 609.0233154296875 137.31182861328125 C 606.4888305664062 132.35531616210938 604.8722534179688 126.95563507080078 599.8965454101562 128.06332397460938 C 605.6553955078125 133.71200561523438 595.1201171875 148.04837036132812 592.1741333007812 154.3200225830078 C 590.3549194335938 163.74261474609375 588.884765625 163.92796325683594 585.8060302734375 169.14248657226562 C 584.7073974609375 167.5615997314453 584.0581665039062 166.5154266357422 589.2623901367188 154.36883544921875 C 591.8618774414062 143.05580139160156 587.5676879882812 141.84913635253906 574.6650390625 137.37513732910156 C 572.619873046875 157.4038543701172 556.8604736328125 156.10498046875 555.9796142578125 151.32640075683594 C 555.8200073242188 152.89064025878906 553.0693359375 154.70118713378906 552.9490966796875 157.82029724121094 C 551.2826538085938 161.43826293945312 548.0634155273438 160.92050170898438 547.3619384765625 159.2921142578125 C 544.4796752929688 156.41148376464844 542.6759643554688 153.94430541992188 537.8333740234375 156.61134338378906 C 535.368408203125 158.47781372070312 531.1282348632812 157.6822967529297 529.3976440429688 158.28994750976562 C 526.4277954101562 159.51095581054688 526.6720581054688 163.15512084960938 525.7273559570312 166.66390991210938 C 524.63916015625 169.5304412841797 523.615966796875 171.5934295654297 519.0299682617188 173.08824157714844 C 508.64373779296875 178.59674072265625 496.9719543457031 179.67779541015625 484.8440246582031 157.7200164794922 C 480.3568115234375 136.42074584960938 500.278076171875 118.62226104736328 513.9705200195312 118.35296630859375 C 528.9254150390625 127.61091613769531 541.2592163085938 107.98532104492188 548.6200561523438 111.7752685546875 C 555.8753051757812 110.35513305664062 561.438720703125 110.29354858398438 564.144775390625 106.91331481933594 C 564.6309204101562 104.46774291992188 566.4911499023438 103.51611328125 569.8002319335938 104.61488342285156 C 573.3430786132812 101.05815887451172 578.828857421875 98.79913330078125 587.0226440429688 98.9006576538086 C 600.6068115234375 93.35580444335938 603.4754028320312 80.03367614746094 612.5464477539062 80.46730041503906" stroke-width="0.0" fill="url(#shape_6_fill)"/>
    <path d="M 0.3691519796848297 96.5336685180664 C 41.08310317993164 108.41903686523438 45.56904983520508 118.93346405029297 50.12127685546875 138.5327911376953 C 81.48343658447266 153.4591064453125 53.09244155883789 213.4897918701172 40.306915283203125 248.27322387695312 C 51.41802215576172 260.04205322265625 48.527931213378906 264.58038330078125 48.87553024291992 264.9720458984375 C 49.802391052246094 257.0178527832031 29.24053192138672 251.62197875976562 16.794546127319336 246.14804077148438 C 5.997808456420898 201.41468811035156 -8.925419807434082 171.29241943359375 0.3691519796848297 96.5336685180664" stroke-width="0.0" fill="url(#shape_7_fill)"/>
    <path d="M 384.56951904296875 197.33627319335938 C 425.4128723144531 187.0862274169922 426.48388671875 190.1342010498047 429.9795837402344 204.254638671875 C 476.11614990234375 188.62754821777344 497.71343994140625 203.22694396972656 491.5650939941406 230.45053100585938 C 490.9918212890625 250.49493408203125 486.26470947265625 251.50767517089844 484.8698425292969 252.425537109375 C 485.993896484375 259.109130859375 482.6069641113281 268.9234924316406 477.04827880859375 268.8921203613281 C 469.04290771484375 272.9302978515625 453.2210388183594 266.7112731933594 451.6433410644531 269.7130432128906 C 447.1210021972656 266.2847595214844 448.33819580078125 261.22772216796875 449.1225280761719 260.1477355957031 C 439.2550048828125 264.7936096191406 436.51800537109375 261.4409484863281 437.4513244628906 256.7757873535156 C 427.019775390625 256.73809814453125 425.69873046875 259.39471435546875 421.126220703125 262.0846252441406 C 418.5533142089844 264.2439270019531 417.7314758300781 267.7481384277344 414.9534606933594 273.6658935546875 C 414.1087646484375 272.2918701171875 392.3427734375 269.2933654785156 392.5330810546875 264.22149658203125 C 391.81768798828125 265.1437683105469 388.8916320800781 263.4012145996094 385.6206970214844 264.0213623046875 C 382.1030578613281 261.9871520996094 380.811279296875 263.2175598144531 376.4312438964844 261.161865234375 C 374.8387145996094 256.36029052734375 376.0043640136719 252.6171875 371.1158752441406 250.59396362304688 C 359.69921875 243.3341827392578 374.2839050292969 195.37982177734375 378.44305419921875 177.1378173828125 C 385.0224914550781 171.177978515625 394.19683837890625 176.6011199951172 384.56951904296875 197.33627319335938" stroke-width="0.0" fill="url(#shape_8_fill)"/>
    <path d="M 566.4225463867188 157.19862365722656 C 568.0691528320312 158.9313201904297 568.1351928710938 166.62057495117188 569.3739013671875 168.01254272460938 C 573.4982299804688 169.4861297607422 573.6290893554688 171.03399658203125 577.4119262695312 174.4961395263672 C 581.9307250976562 172.94601440429688 583.9710693359375 174.56983947753906 583.7079467773438 179.472412109375 C 575.3890380859375 180.475830078125 572.2477416992188 225.61363220214844 577.4736328125 226.9620361328125 C 577.869384765625 229.97335815429688 581.2897338867188 235.68804931640625 576.7716064453125 241.5858154296875 C 568.8233642578125 238.34629821777344 566.8168334960938 237.0939483642578 559.24267578125 247.38607788085938 C 553.35888671875 249.58248901367188 497.9798278808594 254.95648193359375 486.4452209472656 251.16883850097656 C 486.3208923339844 250.31358337402344 487.7139892578125 240.53952026367188 498.6940002441406 231.8440399169922 C 486.3544616699219 226.38404846191406 483.1520080566406 222.35011291503906 482.22998046875 215.41932678222656 C 477.01165771484375 209.9871063232422 479.5780029296875 205.8937530517578 482.8379211425781 206.0010528564453 C 480.2007141113281 205.35215759277344 481.67791748046875 199.19882202148438 490.4601745605469 199.19320678710938 C 492.1296081542969 196.335205078125 491.811767578125 192.52191162109375 492.53582763671875 188.0469207763672 C 488.5634765625 174.28265380859375 488.79388427734375 173.33958435058594 487.9040222167969 164.22459411621094 C 504.0841369628906 164.41285705566406 505.6645812988281 164.6856231689453 514.555908203125 162.6995849609375 C 522.5675659179688 169.14866638183594 524.755859375 167.47552490234375 526.11474609375 167.54306030273438 C 523.5947265625 161.5500030517578 531.20263671875 157.2272491455078 533.3335571289062 158.7747039794922 C 537.56396484375 161.90509033203125 541.3458251953125 162.50418090820312 542.1094360351562 164.03790283203125 C 545.1708984375 164.1087646484375 545.74267578125 165.932861328125 549.9081420898438 166.8341064453125 C 548.972900390625 165.5994415283203 550.4774780273438 157.86827087402344 554.8336791992188 157.902099609375 C 557.9318237304688 161.0341339111328 563.0805053710938 157.95106506347656 566.4225463867188 157.19862365722656" stroke-width="0.0" fill="url(#shape_9_fill)"/>
    <path d="M 561.409423828125 156.7771759033203 C 565.4171752929688 152.86024475097656 571.2194213867188 157.6452178955078 570.7966918945312 172.61993408203125 C 572.3573608398438 169.19088745117188 576.36767578125 169.1815643310547 579.6207885742188 174.3349151611328 C 580.551513671875 178.1180419921875 578.9163208007812 187.37440490722656 579.0726318359375 191.11338806152344 C 571.3467407226562 196.37933349609375 572.0399169921875 229.96934509277344 578.1043090820312 230.97569274902344 C 576.0743408203125 231.1608428955078 575.6146850585938 236.84988403320312 572.0827026367188 238.00038146972656 C 560.3684692382812 235.8399658203125 567.2083740234375 238.6768035888672 563.6203002929688 247.54820251464844 C 547.6151123046875 253.3280029296875 501.2900695800781 249.25546264648438 500.19586181640625 251.79002380371094 C 491.14215087890625 251.8314971923828 488.002685546875 237.53167724609375 497.2674255371094 232.38441467285156 C 486.64447021484375 224.86912536621094 481.98089599609375 219.27923583984375 481.7811279296875 214.83258056640625 C 475.8526306152344 215.31912231445312 472.96563720703125 214.86123657226562 464.533935546875 197.43310546875 C 464.3222961425781 180.24124145507812 478.72027587890625 177.18402099609375 482.7980041503906 195.34967041015625 C 489.71881103515625 197.66725158691406 494.6448669433594 184.5289764404297 496.6194152832031 182.9529266357422 C 495.30126953125 178.86236572265625 497.5860900878906 177.68360900878906 500.1661682128906 177.46324157714844 C 507.93975830078125 179.11517333984375 516.5744018554688 181.7145538330078 520.9149780273438 174.13015747070312 C 524.539794921875 173.44186401367188 527.6456298828125 159.46673583984375 530.5422973632812 154.8729248046875 C 538.7752075195312 155.68055725097656 538.8225708007812 157.33877563476562 538.1826171875 166.0340576171875 C 545.7599487304688 165.98826599121094 549.0621948242188 167.46371459960938 551.4049072265625 166.4785614013672 C 550.9118041992188 155.56063842773438 552.8837890625 153.03028869628906 561.409423828125 156.7771759033203" stroke-width="0.0" fill="url(#shape_10_fill)"/>
    <path d="M 444.3240661621094 109.03987884521484 C 452.78045654296875 114.34060668945312 453.3836975097656 115.1409912109375 462.3807067871094 109.25782012939453 C 466.1800842285156 115.32353973388672 469.1435241699219 114.06713104248047 485.9195861816406 108.65264129638672 C 489.22930908203125 124.43610382080078 488.6819763183594 125.26434326171875 492.23199462890625 130.64840698242188 C 493.5092468261719 132.1657257080078 493.48046875 135.42831420898438 496.7911071777344 136.394775390625 C 493.94586181640625 135.5620880126953 492.86724853515625 138.31410217285156 489.86676025390625 141.4697723388672 C 483.4185791015625 138.2951202392578 482.227294921875 140.4779815673828 480.1224060058594 142.70082092285156 C 468.552001953125 137.43536376953125 466.80047607421875 136.36451721191406 465.62030029296875 134.44479370117188 C 464.2960510253906 133.58218383789062 460.7343444824219 133.62265014648438 460.54913330078125 134.14891052246094 C 461.4996032714844 132.9056396484375 480.0539855957031 142.25872802734375 496.66021728515625 152.17657470703125 C 476.7494812011719 176.99142456054688 475.62432861328125 177.34469604492188 477.1471862792969 184.09451293945312 C 467.83575439453125 183.50469970703125 467.3711242675781 188.64102172851562 465.4908752441406 190.0780029296875 C 462.77703857421875 184.7607879638672 460.9302978515625 172.5502166748047 460.8113098144531 163.34860229492188 C 448.4504089355469 181.12515258789062 447.51470947265625 182.45535278320312 439.8633117675781 183.0892791748047 C 439.283203125 183.8396453857422 435.72760009765625 195.66722106933594 434.8460388183594 197.53204345703125 C 428.91961669921875 200.36798095703125 417.5675964355469 180.57089233398438 417.6959228515625 179.7740020751953 C 416.9328918457031 179.8530731201172 398.4027099609375 180.8092803955078 397.80999755859375 174.07470703125 C 393.9613952636719 171.646728515625 389.7916259765625 176.56988525390625 379.36651611328125 174.66575622558594 C 383.2640380859375 156.95896911621094 378.9130859375 152.57913208007812 392.2791442871094 139.03030395507812 C 398.3221130371094 138.11302185058594 399.7920227050781 130.15316772460938 402.7822265625 120.25293731689453 C 406.6975402832031 98.65093994140625 424.722900390625 101.6072769165039 444.3240661621094 109.03987884521484" stroke-width="0.0" fill="url(#shape_11_fill)"/>
    <path d="M 602.8499145507812 127.74231719970703 C 605.8759155273438 129.82199096679688 605.3258666992188 143.37391662597656 606.9087524414062 145.27821350097656 C 610.9804077148438 145.8073272705078 611.3429565429688 149.9847412109375 616.4052734375 153.41835021972656 C 618.1797485351562 149.9211883544922 618.0602416992188 141.84194946289062 621.744873046875 141.32611083984375 C 622.8229370117188 137.3402099609375 625.4763793945312 137.24986267089844 627.3131713867188 140.3173065185547 C 627.2640380859375 142.1891632080078 628.9153442382812 144.79978942871094 629.031982421875 147.21400451660156 C 632.0909423828125 149.7791290283203 631.7120361328125 151.22055053710938 636.0904541015625 153.8197479248047 C 642.2649536132812 154.3983154296875 642.0509643554688 160.1581268310547 648.4058837890625 172.27549743652344 C 639.407958984375 185.53330993652344 640.19677734375 195.0151824951172 640.6561279296875 206.50294494628906 C 654.9945678710938 210.62855529785156 656.2060546875 238.01971435546875 642.5032958984375 245.37258911132812 C 622.5647583007812 248.12200927734375 611.6400146484375 249.03012084960938 579.4684448242188 265.45477294921875 C 572.7054443359375 253.4097137451172 580.7372436523438 230.52566528320312 574.40478515625 217.14356994628906 C 568.0426635742188 209.05123901367188 571.6643676757812 168.8960418701172 583.4152221679688 169.72268676757812 C 597.0364990234375 163.48574829101562 599.7835083007812 143.34344482421875 600.135498046875 142.1946563720703 C 595.8112182617188 139.8670654296875 596.4861450195312 137.12933349609375 602.8499145507812 127.74231719970703" stroke-width="0.0" fill="url(#shape_12_fill)"/>
    <path d="M 411.89031982421875 176.57940673828125 C 419.43023681640625 174.27957153320312 434.0250244140625 213.40113830566406 428.7593994140625 219.94644165039062 C 419.69586181640625 228.07244873046875 427.5484924316406 237.24879455566406 431.460205078125 242.3336639404297 C 429.59326171875 261.0350341796875 419.5640563964844 270.4748229980469 413.5312194824219 267.92095947265625 C 406.6017150878906 264.7597351074219 401.99456787109375 271.73358154296875 390.8443908691406 268.1192932128906 C 385.6109619140625 264.861572265625 382.5744323730469 266.1435241699219 379.3680419921875 265.7737121582031 C 374.443359375 264.8038024902344 373.99102783203125 261.6020202636719 374.7754211425781 258.31927490234375 C 376.31512451171875 255.98536682128906 374.80670166015625 254.7802734375 374.7586364746094 253.72317504882812 C 371.5365905761719 255.30992126464844 369.46307373046875 251.4933624267578 368.2727355957031 252.02713012695312 C 360.7233581542969 248.0227508544922 366.5146789550781 229.25865173339844 367.2428283691406 221.872314453125 C 369.5093688964844 219.04054260253906 372.0137023925781 202.6827392578125 382.02056884765625 203.14971923828125 C 378.64959716796875 193.9900665283203 379.8515625 191.78012084960938 390.19091796875 190.7834014892578 C 391.2059020996094 177.57904052734375 392.8645324707031 176.7900390625 411.89031982421875 176.57940673828125" stroke-width="0.0" fill="url(#shape_13_fill)"/>
    <path d="M 507.4407043457031 67.23684692382812 C 511.1013488769531 66.7445297241211 518.0241088867188 72.00269317626953 519.039306640625 80.29415893554688 C 531.046630859375 79.3881607055664 535.123046875 79.90103149414062 537.4896850585938 86.53860473632812 C 539.6073608398438 90.77165985107422 544.5446166992188 90.26628112792969 545.0235595703125 91.17292785644531 C 545.53662109375 92.74161529541016 556.186767578125 96.80709838867188 559.3414306640625 95.44783782958984 C 563.4420776367188 97.6090316772461 567.3611450195312 97.46582794189453 568.6491088867188 98.42780303955078 C 563.6170654296875 105.67958068847656 558.3173217773438 116.27356719970703 540.0588989257812 110.36112976074219 C 541.3323364257812 111.83013153076172 539.4039306640625 114.98924255371094 534.705810546875 118.4317398071289 C 527.5764770507812 120.54777526855469 519.7284545898438 124.57234954833984 515.6792602539062 118.62074279785156 C 512.0786743164062 121.2763671875 501.64410400390625 125.75060272216797 500.0867614746094 126.48641967773438 C 497.9277648925781 129.20494079589844 494.1234130859375 128.89385986328125 489.7719421386719 127.007080078125 C 489.3161315917969 118.17133331298828 468.8480529785156 118.45630645751953 468.1485595703125 117.49958038330078 C 463.52911376953125 117.82023620605469 462.91973876953125 116.66891479492188 462.0739440917969 116.21424102783203 C 470.6790466308594 119.96830749511719 474.005126953125 114.25384521484375 477.3238525390625 109.673095703125 C 473.6893615722656 95.19461822509766 472.99609375 85.45349884033203 474.5260925292969 81.79798889160156 C 474.5890197753906 70.93325805664062 475.3416442871094 70.3856430053711 477.690673828125 66.2044906616211 C 478.5205078125 63.78080368041992 482.4471740722656 63.76486587524414 484.0589294433594 63.235538482666016 C 495.7176208496094 63.88054656982422 503.7684326171875 60.93009948730469 507.4407043457031 67.23684692382812" stroke-width="0.0" fill="url(#shape_14_fill)"/>
    <path d="M 534.3311767578125 161.34410095214844 C 543.9810180664062 162.47552490234375 544.290771484375 163.28077697753906 546.5985717773438 165.09017944335938 C 549.757080078125 167.54364013671875 549.6026611328125 170.19461059570312 543.8756713867188 180.53005981445312 C 542.542236328125 190.03602600097656 537.0262451171875 231.49754333496094 536.662109375 233.1004180908203 C 541.0067749023438 238.380126953125 541.1016845703125 252.23519897460938 517.6773681640625 252.43019104003906 C 502.8709411621094 251.51541137695312 482.7962341308594 242.76197814941406 488.0042724609375 230.4702911376953 C 476.3452453613281 219.4251251220703 478.8971862792969 208.56503295898438 482.8280334472656 201.53123474121094 C 486.4440002441406 197.50018310546875 487.9877624511719 197.4625244140625 488.87371826171875 199.0636749267578 C 482.7697448730469 195.60308837890625 488.7779846191406 183.9965057373047 487.399169921875 173.31396484375 C 487.72503662109375 167.36839294433594 488.8709411621094 166.09864807128906 490.775146484375 167.26760864257812 C 505.51300048828125 178.9228973388672 511.24560546875 184.18064880371094 522.7363891601562 172.7302703857422 C 525.5549926757812 170.9608154296875 525.5261840820312 167.29833984375 526.609130859375 165.077392578125 C 525.3158569335938 159.42726135253906 528.6464233398438 158.5245819091797 534.3311767578125 161.34410095214844" stroke-width="0.0" fill="url(#shape_15_fill)"/>
    <path d="M 651.585693359375 109.61767578125 C 653.906494140625 110.52579498291016 664.14697265625 121.7208251953125 659.75732421875 132.87149047851562 C 663.9774780273438 136.38949584960938 664.4541625976562 143.57763671875 673.306884765625 147.97251892089844 C 676.8362426757812 179.2225341796875 673.6307373046875 211.31861877441406 676.1848754882812 267.035888671875 C 675.0556030273438 265.4224853515625 635.5520629882812 272.9836730957031 630.4930419921875 264.1010437011719 C 637.08642578125 245.2539520263672 643.0330200195312 123.95075225830078 651.585693359375 109.61767578125" stroke-width="0.0" fill="url(#shape_16_fill)"/>
    <path d="M 601.4259033203125 129.1641082763672 C 603.6497192382812 128.4754638671875 606.1134643554688 131.7299346923828 606.2006225585938 134.05230712890625 C 608.8634033203125 135.09646606445312 607.0096435546875 141.58392333984375 609.2011108398438 143.74668884277344 C 628.7684326171875 143.1912078857422 631.4566650390625 216.48275756835938 633.2664794921875 269.77532958984375 C 579.1952514648438 274.5253601074219 573.9642333984375 267.0764465332031 579.2219848632812 241.87860107421875 C 560.6779174804688 226.0120086669922 598.3255615234375 155.54718017578125 601.4259033203125 129.1641082763672" stroke-width="0.0" fill="url(#shape_17_fill)"/>
    <path d="M 320.3742370605469 186.2238311767578 C 321.2210998535156 186.4779052734375 321.8734436035156 189.30857849121094 321.1669616699219 199.8443603515625 C 332.009765625 193.7888946533203 332.97442626953125 193.2027130126953 337.3202819824219 196.138916015625 C 344.5263977050781 199.96163940429688 346.4133605957031 197.87210083007812 354.0865173339844 192.20896911621094 C 358.6805114746094 192.52940368652344 359.6304626464844 194.41162109375 356.3684997558594 201.91720581054688 C 359.3736572265625 204.120361328125 361.6190490722656 204.19583129882812 364.6411437988281 209.9567108154297 C 367.3017578125 207.26242065429688 368.5839538574219 208.00941467285156 368.24298095703125 211.78683471679688 C 370.20648193359375 220.0675048828125 370.2936706542969 223.03683471679688 366.0506591796875 225.5883331298828 C 365.89483642578125 231.37486267089844 363.728759765625 236.47604370117188 366.75640869140625 247.89866638183594 C 369.8425598144531 253.0460968017578 367.12872314453125 255.99314880371094 358.04425048828125 254.58721923828125 C 354.1583251953125 255.83543395996094 325.1097412109375 254.98626708984375 323.2329406738281 255.35305786132812 C 313.3081970214844 256.0655517578125 312.0455627441406 253.75656127929688 308.4987487792969 244.16268920898438 C 304.1017761230469 229.45469665527344 320.92578125 195.06658935546875 320.3742370605469 186.2238311767578" stroke-width="0.0" fill="url(#shape_18_fill)"/>
    <path d="M 480.49261474609375 225.3375701904297 C 503.53125 251.3719940185547 513.8770141601562 264.22515869140625 494.325439453125 280.04241943359375 C 470.4314880371094 279.6380920410156 443.9674987792969 261.6413879394531 442.12030029296875 261.8139343261719 C 438.7825012207031 260.4971618652344 437.18182373046875 258.2174987792969 432.70050048828125 257.9980163574219 C 429.5703430175781 258.5522766113281 428.2452697753906 256.7415466308594 429.6591491699219 253.89195251464844 C 432.37249755859375 237.3219757080078 423.2093811035156 233.71156311035156 422.9422607421875 229.70928955078125 C 423.1576843261719 226.88760375976562 421.106201171875 226.72091674804688 420.20953369140625 225.0803680419922 C 427.8005065917969 219.6346435546875 429.70074462890625 218.87588500976562 428.152587890625 214.7834014892578 C 442.166015625 197.44996643066406 479.1750793457031 197.0638885498047 480.49261474609375 225.3375701904297" stroke-width="0.0" fill="url(#shape_19_fill)"/>
    <path d="M 673.9099731445312 -3.002096176147461 C 675.0673828125 32.84956741333008 674.5833740234375 64.76375579833984 674.4959106445312 97.21382904052734 C 669.4202880859375 96.11959075927734 652.5667114257812 87.67925262451172 645.2947998046875 90.06211853027344 C 638.5929565429688 89.50385284423828 638.1145629882812 86.02690124511719 637.40185546875 84.19467163085938 C 626.1643676757812 84.36116027832031 620.27685546875 93.21976470947266 608.1539916992188 86.5700912475586 C 609.9794311523438 74.76001739501953 612.2841796875 73.6138916015625 614.4370727539062 71.56358337402344 C 622.6047973632812 68.8496322631836 648.6820678710938 25.099288940429688 647.49853515625 20.718656539916992 C 655.3596801757812 8.913832664489746 656.5017700195312 2.659280776977539 668.7807006835938 3.496718406677246 C 669.8237915039062 2.6885921955108643 670.1019897460938 1.0665174722671509 673.9099731445312 -3.002096176147461" stroke-width="0.0" fill="url(#shape_20_fill)"/>
    <path d="M 561.7664794921875 155.97750854492188 C 569.8579711914062 156.4559783935547 570.0196533203125 161.34083557128906 572.7119750976562 165.65225219726562 C 582.9864501953125 168.34918212890625 573.5369873046875 230.86965942382812 577.1207275390625 240.58961486816406 C 577.9031982421875 244.88217163085938 577.2623291015625 246.90945434570312 577.9878540039062 269.2391357421875 C 542.3328857421875 265.9082946777344 538.6555786132812 261.5790100097656 539.7711181640625 247.16595458984375 C 545.1176147460938 244.7466583251953 545.0188598632812 166.51266479492188 555.052490234375 156.77293395996094 C 555.4820556640625 152.99359130859375 559.51953125 151.63279724121094 561.7664794921875 155.97750854492188" stroke-width="0.0" fill="url(#shape_21_fill)"/>
    <path d="M 214.9936065673828 209.87413024902344 C 234.4445343017578 208.76258850097656 237.6470184326172 242.49533081054688 224.36671447753906 257.86334228515625 C 211.66525268554688 263.2711181640625 209.3597412109375 263.90313720703125 208.90037536621094 273.1174621582031 C 205.85440063476562 275.3301696777344 206.7797393798828 277.09466552734375 205.84494018554688 279.842529296875 C 206.6540985107422 282.8625183105469 203.13818359375 285.6915283203125 201.5126495361328 284.9367980957031 C 201.54762268066406 283.1747741699219 190.46542358398438 272.602294921875 188.12673950195312 264.1365051269531 C 186.85015869140625 261.5467529296875 183.85736083984375 262.9176940917969 181.47683715820312 262.8638916015625 C 180.90589904785156 260.45660400390625 180.36964416503906 260.5088806152344 178.2118682861328 251.44598388671875 C 178.96507263183594 248.46392822265625 169.21783447265625 242.2728729248047 170.29478454589844 237.9810791015625 C 175.65980529785156 213.7916717529297 177.14418029785156 212.5908966064453 185.44252014160156 220.59561157226562 C 193.7694854736328 219.6442413330078 194.1265106201172 215.14080810546875 198.33706665039062 213.24533081054688 C 184.85108947753906 206.2069549560547 184.92735290527344 201.04159545898438 201.79946899414062 196.9750518798828 C 213.45835876464844 192.96946716308594 214.82383728027344 195.72274780273438 214.9936065673828 209.87413024902344" stroke-width="0.0" fill="url(#shape_22_fill)"/>
    <path d="M 111.63993072509766 426.2654724121094 C 112.73494720458984 429.28173828125 111.02235412597656 431.2003479003906 110.65817260742188 431.4496154785156 C 104.95726013183594 432.6476745605469 103.23303985595703 433.7798156738281 91.91348266601562 433.08355712890625 C 89.76927185058594 435.96875 95.67162322998047 446.421630859375 91.60311889648438 452.1399841308594 C 78.66380310058594 444.9972229003906 46.938175201416016 447.9271240234375 25.163049697875977 449.6261291503906 C 14.031976699829102 446.2151184082031 13.89329719543457 439.75982666015625 17.875699996948242 436.38238525390625 C 34.92952346801758 427.6229553222656 49.94084548950195 426.60443115234375 73.0748291015625 427.0644226074219 C 73.70140075683594 423.8938293457031 109.99124145507812 420.5627746582031 111.63993072509766 426.2654724121094" stroke-width="0.0" fill="url(#shape_23_fill)"/>
    <path d="M 194.02676391601562 123.7081298828125 C 200.94273376464844 124.49775695800781 211.3554229736328 144.93331909179688 214.73890686035156 145.2063751220703 C 215.64364624023438 148.36175537109375 218.5973663330078 149.7035675048828 220.6435089111328 154.06866455078125 C 227.3212127685547 158.4663848876953 247.77001953125 177.79656982421875 244.78346252441406 198.99803161621094 C 239.17355346679688 199.550537109375 235.68077087402344 186.94696044921875 232.2985382080078 179.85662841796875 C 234.82913208007812 187.12840270996094 233.38900756835938 195.95379638671875 230.5334014892578 197.11622619628906 C 228.0618896484375 197.22377014160156 225.94618225097656 202.8041534423828 220.1638641357422 208.7345428466797 C 214.91065979003906 207.75433349609375 213.27777099609375 202.49810791015625 212.5481719970703 198.15220642089844 C 211.82864379882812 190.58872985839844 211.9086151123047 183.3805694580078 206.95004272460938 177.6302947998047 C 203.88931274414062 174.03749084472656 204.94241333007812 173.00840759277344 205.5983428955078 167.3059844970703 C 202.46714782714844 147.56166076660156 199.3788299560547 146.96792602539062 192.3035888671875 143.87229919433594 C 189.40231323242188 142.38478088378906 191.4700469970703 128.4844970703125 194.02676391601562 123.7081298828125" stroke-width="0.0" fill="url(#shape_24_fill)"/>
    <path d="M 594.2492065429688 405.7337341308594 C 599.5681762695312 408.6104431152344 628.2462158203125 406.660888671875 632.3440551757812 412.4979553222656 C 632.12841796875 422.1021728515625 628.6094970703125 425.95941162109375 628.8402709960938 426.4286193847656 C 630.5408325195312 427.8299865722656 636.0158081054688 428.0526123046875 639.7476196289062 436.80609130859375 C 618.5691528320312 447.6967468261719 578.514404296875 438.8828125 572.5345458984375 434.8974304199219 C 567.7272338867188 427.2027587890625 573.8719482421875 419.5572204589844 576.7886352539062 413.3446960449219 C 579.518798828125 409.5172119140625 587.39990234375 414.96533203125 594.2492065429688 405.7337341308594" stroke-width="0.0" fill="url(#shape_25_fill)"/>
    <path d="M 142.9230499267578 66.76893615722656 C 144.06773376464844 68.91915130615234 149.1715087890625 68.02047729492188 149.62969970703125 69.08586883544922 C 148.89503479003906 70.89950561523438 150.46585083007812 71.82231903076172 149.7218780517578 73.88902282714844 C 151.1215057373047 74.4571304321289 150.1502227783203 78.5640869140625 149.7340850830078 83.43463897705078 C 151.02304077148438 91.21759033203125 153.6643829345703 97.02753448486328 153.75274658203125 104.1206283569336 C 153.4689483642578 107.62904357910156 155.1304931640625 108.51321411132812 155.59397888183594 111.21331024169922 C 157.8759765625 123.40391540527344 155.16671752929688 133.5216064453125 150.3938446044922 133.6004638671875 C 142.2925262451172 127.4095458984375 137.24644470214844 119.71949768066406 126.14293670654297 116.93033599853516 C 122.43901824951172 114.03518676757812 124.21759033203125 109.4501724243164 126.498779296875 107.36833953857422 C 128.60824584960938 106.79035186767578 129.02484130859375 105.27993774414062 132.63412475585938 104.74678039550781 C 138.3605194091797 96.7638931274414 134.89329528808594 92.84132385253906 133.00498962402344 89.10491180419922 C 134.05982971191406 88.30854797363281 139.33779907226562 87.37548828125 140.20558166503906 85.36016082763672 C 138.29632568359375 84.74215698242188 138.76759338378906 77.64019012451172 139.53631591796875 77.48497009277344 C 143.7351837158203 76.61044311523438 142.76736450195312 70.51546478271484 142.9230499267578 66.76893615722656" stroke-width="0.0" fill="url(#shape_26_fill)"/>
    <path d="M 139.61648559570312 67.7602767944336 C 149.0101318359375 66.90799713134766 149.65110778808594 68.09068298339844 148.75025939941406 77.15756225585938 C 150.49024963378906 78.30704498291016 151.1162872314453 80.71147918701172 154.8390655517578 85.19235229492188 C 150.11045837402344 90.45284271240234 154.9246368408203 95.3994369506836 150.9144744873047 105.22277069091797 C 152.82894897460938 105.9858169555664 153.6554412841797 109.40145111083984 155.53602600097656 112.4941177368164 C 152.83946228027344 116.61060333251953 157.97604370117188 122.537841796875 154.24835205078125 126.26057434082031 C 152.5173797607422 132.0181427001953 151.3143310546875 133.16700744628906 147.51895141601562 134.10736083984375 C 141.85830688476562 131.23361206054688 128.33164978027344 122.04505920410156 129.38194274902344 117.57535552978516 C 124.66899871826172 118.54096984863281 122.54684448242188 112.92840576171875 128.329345703125 110.53218841552734 C 122.87609100341797 108.14408111572266 124.34270477294922 104.21675109863281 133.4049530029297 107.49864196777344 C 136.5619354248047 105.78509521484375 133.38119506835938 92.7118148803711 132.78561401367188 89.06324768066406 C 139.43780517578125 87.51180267333984 138.9025421142578 85.04908752441406 138.8917236328125 81.2635269165039 C 139.06973266601562 77.4973373413086 140.36322021484375 76.8101577758789 142.3711395263672 78.19518280029297 C 145.29226684570312 72.05801391601562 142.68511962890625 70.38715362548828 139.61648559570312 67.7602767944336" stroke-width="0.0" fill="url(#shape_27_fill)"/>
    <path d="M -0.3756363093852997 -0.27519428730010986 C 4.718850135803223 0.38570743799209595 9.6725492477417 -0.5298302173614502 18.799545288085938 -0.9083298444747925 C 25.519895553588867 -1.7042882442474365 25.932945251464844 -0.8228067755699158 51.19791030883789 0.47944217920303345 C 46.96290588378906 25.857572555541992 28.22650146484375 24.194713592529297 28.00811767578125 25.402690887451172 C 54.7241096496582 13.042007446289062 63.322113037109375 13.130456924438477 65.40482330322266 56.798343658447266 C 37.036373138427734 58.64543914794922 24.110797882080078 59.1670036315918 19.375246047973633 51.89372634887695 C 15.810493469238281 39.36090850830078 11.324944496154785 38.314903259277344 9.981301307678223 33.623233795166016 C 10.072616577148438 35.80292892456055 14.533539772033691 39.259437561035156 14.572318077087402 41.04472732543945 C 16.036022186279297 42.1992301940918 15.770325660705566 44.862548828125 18.18778419494629 47.87202453613281 C 20.08154296875 51.07001495361328 18.771318435668945 52.304622650146484 21.76643180847168 57.204559326171875 C 21.973278045654297 66.91650390625 15.677155494689941 69.06338500976562 8.240338325500488 61.592010498046875 C 5.480283737182617 60.8927116394043 3.5341217517852783 59.141075134277344 0.31966137886047363 59.43961715698242 C -0.3191959261894226 39.789215087890625 -0.3249480426311493 19.63153839111328 -0.3756363093852997 -0.27519428730010986" stroke-width="0.0" fill="url(#shape_28_fill)"/>
    <path d="M 298.93023681640625 197.21063232421875 C 297.92425537109375 199.47451782226562 300.42010498046875 202.23472595214844 301.595703125 208.5010223388672 C 299.859619140625 214.14337158203125 326.5307922363281 222.88693237304688 316.00677490234375 255.52635192871094 C 311.8846130371094 254.583984375 310.6165771484375 255.76678466796875 304.9338684082031 255.0613250732422 C 303.67669677734375 257.7652282714844 295.0755615234375 258.8822021484375 281.1267395019531 255.87965393066406 C 277.4678039550781 223.5609130859375 284.6554870605469 220.95455932617188 298.93023681640625 197.21063232421875" stroke-width="0.0" fill="url(#shape_29_fill)"/>
    <path d="M 0.00368953263387084 -0.1258009672164917 C 4.56406831741333 0.44741255044937134 9.744218826293945 -0.41210925579071045 14.693618774414062 0.1043127179145813 C 15.919339179992676 0.47873654961586 16.684255599975586 3.1513102054595947 16.54140281677246 7.9658942222595215 C 18.802824020385742 10.955763816833496 21.62579345703125 19.043745040893555 27.53573989868164 20.5633487701416 C 27.214046478271484 22.54347801208496 23.869539260864258 26.67379379272461 24.84811782836914 32.043758392333984 C 20.150346755981445 32.55525588989258 12.121223449707031 30.075002670288086 5.01503324508667 33.586185455322266 C 8.964698791503906 36.026275634765625 8.725894927978516 38.88200759887695 10.867445945739746 40.4705810546875 C 10.294988632202148 43.44738006591797 7.553001880645752 49.554847717285156 11.757144927978516 53.79287338256836 C 17.737802505493164 51.19204330444336 19.48671531677246 51.686683654785156 18.508193969726562 58.334354400634766 C 11.32190990447998 60.726097106933594 9.423307418823242 62.58326721191406 0.18049199879169464 61.53498077392578 C -0.42618870735168457 39.97630310058594 -0.35463055968284607 19.756019592285156 0.00368953263387084 -0.1258009672164917" stroke-width="0.0" fill="url(#shape_30_fill)"/>
    <path d="M 548.7565307617188 70.5970230102539 C 546.66943359375 78.20289611816406 576.5713500976562 89.60327911376953 581.3950805664062 91.74266815185547 C 580.9512329101562 92.89947509765625 577.4413452148438 93.36714172363281 577.2640380859375 98.32032775878906 C 573.2840576171875 100.70048522949219 572.062744140625 99.76876831054688 569.3826904296875 100.03715515136719 C 567.522705078125 94.59025573730469 546.2208251953125 97.90557098388672 538.91552734375 88.27252197265625 C 538.2011108398438 85.5364990234375 538.7581176757812 82.91878509521484 535.8079833984375 81.99707794189453 C 534.2045288085938 80.4312973022461 527.2021484375 79.63538360595703 527.1403198242188 78.21769714355469 C 525.1043701171875 75.7798080444336 527.6566162109375 70.76847839355469 531.9633178710938 68.89459991455078 C 538.998291015625 66.91352081298828 542.7139282226562 71.68803405761719 548.7565307617188 70.5970230102539" stroke-width="0.0" fill="url(#shape_31_fill)"/>
    <path d="M 447.0626525878906 264.39996337890625 C 450.6396484375 265.2984313964844 451.26995849609375 266.75067138671875 455.7042541503906 267.796142578125 C 460.5113830566406 267.6551208496094 465.32232666015625 270.3759765625 469.950439453125 273.06500244140625 C 470.4309997558594 275.6334533691406 471.828857421875 276.8871765136719 471.6768798828125 280.7688903808594 C 451.89312744140625 287.3401184082031 430.527587890625 284.08245849609375 415.7308654785156 285.1618957519531 C 413.4156799316406 273.8948974609375 414.737060546875 272.3172912597656 415.4537353515625 268.1173095703125 C 418.18670654296875 267.20343017578125 417.7512512207031 264.7943420410156 419.35455322265625 263.06353759765625 C 442.6470947265625 251.54847717285156 446.2227783203125 252.72271728515625 447.0626525878906 264.39996337890625" stroke-width="0.0" fill="url(#shape_32_fill)"/>
    <path d="M 272.82696533203125 192.19163513183594 C 274.80279541015625 192.29222106933594 287.7044982910156 243.6982879638672 282.28057861328125 247.5208282470703 C 279.76361083984375 248.68032836914062 274.01519775390625 247.1439666748047 269.3423767089844 249.15576171875 C 266.2214050292969 246.3917236328125 266.5631408691406 242.55392456054688 260.95855712890625 240.69857788085938 C 254.5108184814453 208.6977081298828 262.7111511230469 206.0121307373047 272.82696533203125 192.19163513183594" stroke-width="0.0" fill="url(#shape_33_fill)"/>
    <path d="M 270.3239440917969 409.3038635253906 C 262.8034973144531 429.7747802734375 263.6225891113281 430.5246887207031 267.9903564453125 440.3536682128906 C 262.50128173828125 440.849609375 260.6845703125 446.42950439453125 258.5231018066406 447.8633117675781 C 245.47483825683594 445.86309814453125 214.61973571777344 448.7357482910156 212.4632568359375 444.99920654296875 C 213.02297973632812 436.99578857421875 213.95974731445312 436.2222900390625 216.05320739746094 434.6712646484375 C 216.40664672851562 433.5763854980469 225.08384704589844 433.85406494140625 226.757568359375 430.8173828125 C 227.46173095703125 418.3481750488281 234.79197692871094 418.1076354980469 270.3239440917969 409.3038635253906" stroke-width="0.0" fill="url(#shape_34_fill)"/>
    <path d="M 105.58312225341797 69.82735443115234 C 110.24388122558594 69.62250518798828 110.78789520263672 78.984619140625 112.86883544921875 85.4950942993164 C 117.87348937988281 85.9992446899414 116.30884552001953 110.25575256347656 118.4993896484375 110.63658905029297 C 116.7398681640625 112.63125610351562 110.4688949584961 114.37677764892578 106.9272689819336 124.87549591064453 C 104.63601684570312 117.12178802490234 96.47765350341797 118.87105560302734 87.49807739257812 108.97232818603516 C 86.0523681640625 85.74634552001953 105.75920867919922 84.45354461669922 105.58312225341797 69.82735443115234" stroke-width="0.0" fill="url(#shape_35_fill)"/>
    <path d="M 451.2027282714844 178.4719696044922 C 453.9055480957031 176.02383422851562 456.21728515625 177.85946655273438 455.3196105957031 180.4068145751953 C 455.92388916015625 181.0235137939453 454.8154602050781 185.60935974121094 456.30804443359375 186.11351013183594 C 456.13134765625 188.55014038085938 459.3753356933594 193.96261596679688 458.86981201171875 204.51068115234375 C 459.32061767578125 208.58282470703125 451.8232727050781 209.54196166992188 446.12030029296875 204.4563446044922 C 441.353759765625 207.47879028320312 441.35479736328125 208.61854553222656 432.65350341796875 210.900390625 C 435.5572204589844 209.92262268066406 436.8352966308594 188.65321350097656 437.73681640625 176.31893920898438 C 440.5367736816406 179.2413787841797 442.01751708984375 181.99847412109375 446.720458984375 181.18324279785156 C 447.8792419433594 179.61070251464844 450.13262939453125 179.6795196533203 451.2027282714844 178.4719696044922" stroke-width="0.0" fill="url(#shape_36_fill)"/>
    <path d="M 557.4777221679688 84.44798278808594 C 560.8837890625 80.5793685913086 578.44775390625 82.93621826171875 579.882080078125 85.52094268798828 C 581.148193359375 83.05703735351562 586.2571411132812 85.38291931152344 587.7962036132812 88.64851379394531 C 597.7291259765625 105.77030181884766 588.6682739257812 111.97991180419922 574.3482055664062 100.67356872558594 C 573.7824096679688 99.5418472290039 552.4078369140625 97.56294250488281 547.2843017578125 86.09370422363281 C 538.3496704101562 86.27212524414062 538.14794921875 83.6360855102539 536.0714721679688 79.89799499511719 C 542.9302978515625 75.0135726928711 547.3709716796875 78.48836517333984 557.4777221679688 84.44798278808594" stroke-width="0.0" fill="url(#shape_37_fill)"/>
    <path d="M 251.80296325683594 207.11734008789062 C 265.7636413574219 214.1767120361328 261.364501953125 235.9635467529297 260.0595397949219 247.76683044433594 C 259.3297424316406 254.44557189941406 251.1779022216797 254.9693603515625 249.15541076660156 257.1690673828125 C 234.52635192871094 237.4091796875 241.29417419433594 215.92559814453125 251.80296325683594 207.11734008789062" stroke-width="0.0" fill="url(#shape_38_fill)"/>
    <path d="M 442.36383056640625 263.0898132324219 C 446.1682434082031 263.318115234375 449.25836181640625 266.5344543457031 447.9178466796875 270.07000732421875 C 444.6692810058594 270.4041442871094 442.6730041503906 277.2952880859375 440.3041687011719 277.1992492675781 C 438.5957336425781 286.59686279296875 429.39703369140625 285.9821472167969 418.3824157714844 275.4112243652344 C 414.47735595703125 276.77117919921875 413.3356018066406 274.46478271484375 416.4201965332031 271.63677978515625 C 415.05853271484375 269.9331359863281 419.3175354003906 262.3030700683594 425.2867431640625 258.5480041503906 C 426.97100830078125 257.7554016113281 439.7547302246094 257.5066223144531 442.36383056640625 263.0898132324219" stroke-width="0.0" fill="url(#shape_39_fill)"/>
    <path d="M 407.6820373535156 409.8768310546875 C 408.6536865234375 409.9068603515625 416.7690124511719 419.110595703125 414.05181884765625 424.39923095703125 C 399.6149597167969 435.20501708984375 386.1338806152344 420.7729187011719 376.572021484375 420.8724060058594 C 371.07940673828125 417.9593505859375 371.2315979003906 416.5549011230469 372.76947021484375 410.4763488769531 C 374.98358154296875 400.6559753417969 392.159912109375 404.4764099121094 407.6820373535156 409.8768310546875" stroke-width="0.0" fill="url(#shape_40_fill)"/>
    <path d="M 66.46725463867188 427.46270751953125 C 67.2213134765625 428.9664611816406 64.06961059570312 432.4464111328125 58.69569778442383 434.7884521484375 C 57.373924255371094 436.1920166015625 40.22323989868164 435.47296142578125 31.579975128173828 443.1633605957031 C 29.07288360595703 443.50518798828125 27.756772994995117 444.1687927246094 17.361555099487305 442.6090393066406 C 16.452346801757812 440.65216064453125 17.968355178833008 439.2092590332031 17.370800018310547 437.7744445800781 C 35.94914245605469 427.1534118652344 52.930755615234375 428.22503662109375 66.46725463867188 427.46270751953125" stroke-width="0.0" fill="url(#shape_41_fill)"/>
    <path d="M 278.0928039550781 381.06658935546875 C 284.5905456542969 381.17816162109375 297.869140625 381.2887268066406 308.2574157714844 386.0447998046875 C 296.960693359375 394.6632385253906 299.3235778808594 401.114990234375 294.4981689453125 405.2498474121094 C 291.7596740722656 400.0869445800781 267.1538391113281 406.7376403808594 258.7215270996094 408.8237609863281 C 244.8361358642578 410.9674987792969 239.30526733398438 404.4433898925781 239.2022247314453 383.8416442871094 C 260.5141906738281 379.6161804199219 266.90777587890625 381.8819885253906 278.0928039550781 381.06658935546875" stroke-width="0.0" fill="url(#shape_42_fill)"/>
    <path d="M 222.8549346923828 208.71070861816406 C 224.16412353515625 206.3935546875 238.8855438232422 206.25547790527344 239.25611877441406 210.56494140625 C 242.2416534423828 221.47877502441406 244.63897705078125 243.70745849609375 255.15965270996094 269.7679138183594 C 251.72421264648438 275.07049560546875 242.9699249267578 273.1376953125 208.43084716796875 272.3439025878906 C 208.47314453125 265.9886474609375 205.24362182617188 250.87144470214844 216.3564910888672 247.69189453125 C 219.2557830810547 246.45982360839844 218.44680786132812 226.4292755126953 222.8549346923828 208.71070861816406" stroke-width="0.0" fill="url(#shape_43_fill)"/>
    <path d="M 483.3404235839844 396.3073425292969 C 486.77777099609375 399.8203125 485.76995849609375 400.971923828125 483.4455261230469 400.9344177246094 C 471.0038146972656 407.3798828125 451.1646423339844 406.8777160644531 450.272705078125 407.5791320800781 C 448.2164001464844 404.423828125 451.67901611328125 396.1888427734375 453.6516418457031 396.5197448730469 C 465.48797607421875 393.165771484375 471.6772155761719 392.3369445800781 483.3404235839844 396.3073425292969" stroke-width="0.0" fill="url(#shape_44_fill)"/>
    <path d="M 45.68860626220703 408.0628662109375 C 45.37333297729492 408.6609191894531 35.795936584472656 411.9059753417969 32.946571350097656 412.73858642578125 C 32.461158752441406 414.3866271972656 32.003089904785156 415.7967529296875 27.95734405517578 414.85845947265625 C 26.956111907958984 416.4010314941406 24.23287010192871 417.3143005371094 20.671369552612305 420.2552795410156 C 18.91523551940918 420.24493408203125 0.39393407106399536 417.29522705078125 -0.5806318521499634 420.6042785644531 C 1.765706181526184 419.3912658691406 -1.0154569149017334 411.1881408691406 0.9531188011169434 410.20977783203125 C 6.107504367828369 409.6252746582031 45.45425033569336 406.360107421875 45.68860626220703 408.0628662109375" stroke-width="0.0" fill="url(#shape_45_fill)"/>
    <path d="M 452.31256103515625 174.1494598388672 C 453.8305358886719 174.9757537841797 464.72845458984375 198.52313232421875 466.93609619140625 200.27285766601562 C 462.67022705078125 209.30343627929688 451.376220703125 209.12567138671875 449.45855712890625 206.4399871826172 C 448.3117980957031 203.26220703125 448.99346923828125 198.32070922851562 448.8523254394531 195.2978973388672 C 447.9626770019531 194.56695556640625 447.5888671875 192.07513427734375 448.52020263671875 188.00070190429688 C 450.987060546875 186.6453399658203 450.4561462402344 182.77011108398438 452.31256103515625 174.1494598388672" stroke-width="0.0" fill="url(#shape_46_fill)"/>
    <path d="M 372.38385009765625 184.1090545654297 C 379.33941650390625 197.5791778564453 380.21044921875 202.57196044921875 371.4285888671875 205.79624938964844 C 365.8650207519531 206.81982421875 364.772216796875 204.82049560546875 361.60833740234375 206.10580444335938 C 339.4854736328125 212.00448608398438 335.5169982910156 202.28086853027344 353.3213195800781 188.8836669921875 C 356.6893005371094 184.98095703125 358.3767395019531 184.37852478027344 368.2093200683594 185.47802734375 C 368.9972839355469 183.33338928222656 372.2940368652344 183.79849243164062 372.38385009765625 184.1090545654297" stroke-width="0.0" fill="url(#shape_47_fill)"/>
    <path d="M 473.0238037109375 264.2568054199219 C 474.56243896484375 267.0837707519531 480.7952880859375 270.6367492675781 482.36688232421875 283.937744140625 C 466.3612060546875 287.5301818847656 445.21759033203125 287.26348876953125 444.5323486328125 284.95135498046875 C 439.34912109375 282.1615905761719 440.0060119628906 276.96240234375 441.0691223144531 276.36102294921875 C 448.9093933105469 266.6171569824219 456.07452392578125 261.9804382324219 473.0238037109375 264.2568054199219" stroke-width="0.0" fill="url(#shape_48_fill)"/>
    <path d="M 176.89761352539062 116.67216491699219 C 177.95713806152344 115.47891235351562 181.71807861328125 116.14308166503906 182.7064666748047 117.2787094116211 C 184.67462158203125 120.27546691894531 183.85186767578125 122.3381576538086 184.82823181152344 122.8787841796875 C 179.57847595214844 128.33396911621094 185.47642517089844 136.8570556640625 182.71331787109375 139.6468048095703 C 182.00355529785156 146.8625030517578 172.84396362304688 146.17726135253906 171.98995971679688 146.86441040039062 C 172.14593505859375 127.03006744384766 170.98126220703125 124.52989196777344 176.89761352539062 116.67216491699219" stroke-width="0.0" fill="url(#shape_49_fill)"/>
    <path d="M 333.431640625 426.9382629394531 C 336.0329284667969 429.7025451660156 341.96807861328125 428.8256530761719 343.4525451660156 431.6720275878906 C 346.37115478515625 435.5769958496094 345.158447265625 437.2173767089844 342.3563537597656 437.5408630371094 C 342.6998596191406 447.4959411621094 325.5720520019531 448.7689514160156 323.6257629394531 445.00732421875 C 321.5229797363281 436.20892333984375 321.5773620605469 432.6199035644531 306.1025695800781 430.09893798828125 C 319.2298583984375 425.7264709472656 327.7312316894531 430.08526611328125 333.431640625 426.9382629394531" stroke-width="0.0" fill="url(#shape_50_fill)"/>
    <path d="M 313.00592041015625 388.6021728515625 C 306.40423583984375 395.2794494628906 293.10986328125 396.346923828125 291.4981384277344 399.0968322753906 C 279.1039733886719 397.5164489746094 277.8812255859375 399.1371154785156 271.28887939453125 402.3791809082031 C 271.20440673828125 401.6015319824219 269.9214172363281 398.9215087890625 271.6358337402344 397.5002746582031 C 270.27154541015625 395.5571594238281 273.38397216796875 388.4491271972656 279.974853515625 388.419189453125 C 284.5704345703125 386.7032470703125 288.62469482421875 391.2969970703125 313.00592041015625 388.6021728515625" stroke-width="0.0" fill="url(#shape_51_fill)"/>
    <path d="M 268.9863586425781 185.1283416748047 C 276.50238037109375 194.74581909179688 277.1333312988281 207.89990234375 280.39276123046875 217.59567260742188 C 271.53875732421875 210.493408203125 269.5474548339844 208.41949462890625 260.6722717285156 216.52134704589844 C 258.0029602050781 208.24537658691406 263.10546875 195.24327087402344 266.950927734375 195.2867431640625 C 269.76068115234375 194.3269805908203 268.8905944824219 191.75198364257812 268.9863586425781 185.1283416748047" stroke-width="0.0" fill="url(#shape_52_fill)"/>
    <path d="M 218.4210968017578 409.4295959472656 C 215.89178466796875 410.9079284667969 215.72616577148438 413.3201904296875 214.2862091064453 414.7368469238281 C 214.4163055419922 423.00286865234375 193.96449279785156 425.1038818359375 187.6367950439453 415.5655517578125 C 186.3228759765625 404.4814147949219 207.83987426757812 399.56695556640625 218.4210968017578 409.4295959472656" stroke-width="0.0" fill="url(#shape_53_fill)"/>
    <path d="M 205.9872283935547 424.4701232910156 C 205.46788024902344 425.23748779296875 206.15069580078125 428.2940368652344 204.55880737304688 429.02972412109375 C 194.32025146484375 429.6343078613281 178.82102966308594 430.10955810546875 178.05596923828125 432.6717529296875 C 176.89048767089844 430.9432373046875 178.4591522216797 425.94427490234375 177.1245574951172 423.9098815917969 C 188.19444274902344 417.96588134765625 191.79148864746094 423.8608703613281 205.9872283935547 424.4701232910156" stroke-width="0.0" fill="url(#shape_54_fill)"/>
    <path d="M 268.2594299316406 247.7094268798828 C 275.1903381347656 245.4838104248047 276.8468017578125 247.89288330078125 280.1697692871094 248.4370880126953 C 280.8570251464844 251.010986328125 280.1707763671875 252.34999084472656 289.8258361816406 268.1191101074219 C 263.45074462890625 258.0940856933594 262.94573974609375 257.3869934082031 249.96148681640625 266.6633605957031 C 254.8365478515625 248.1750946044922 255.9022216796875 247.24514770507812 258.78680419921875 245.1337432861328 C 260.3421936035156 239.32130432128906 263.5422058105469 239.99623107910156 268.2594299316406 247.7094268798828" stroke-width="0.0" fill="url(#shape_55_fill)"/>
    <path d="M 282.8384704589844 341.91265869140625 C 282.73406982421875 362.65777587890625 284.8564453125 363.26715087890625 284.99688720703125 368.023681640625 C 285.5133972167969 369.22735595703125 286.07177734375 371.78619384765625 285.5382385253906 381.20306396484375 C 273.7696228027344 379.23358154296875 259.85113525390625 381.0910339355469 237.64866638183594 383.7490539550781 C 233.2273406982422 382.4482116699219 232.25144958496094 370.43963623046875 233.5264129638672 346.43414306640625 C 239.78150939941406 341.5257263183594 248.5357208251953 340.1666564941406 282.8384704589844 341.91265869140625" stroke-width="0.0" fill="url(#shape_56_fill)"/>
    <path d="M 408.146484375 272.1227722167969 C 414.6863708496094 269.7796936035156 418.1195983886719 274.31085205078125 423.16888427734375 281.2588806152344 C 415.73883056640625 283.5654602050781 411.98870849609375 276.2878112792969 376.8755187988281 274.3101501464844 C 377.48370361328125 264.355712890625 385.4590759277344 263.9053039550781 408.146484375 272.1227722167969" stroke-width="0.0" fill="url(#shape_57_fill)"/>
    <path d="M 632.0967407226562 351.97808837890625 C 632.9822998046875 355.1352233886719 661.6553344726562 354.8286437988281 668.5402221679688 354.94976806640625 C 668.462646484375 358.27685546875 663.0097045898438 360.32293701171875 660.1454467773438 356.8992919921875 C 646.1399536132812 356.0809631347656 635.4277954101562 359.2591857910156 631.6334838867188 359.9573974609375 C 627.8701171875 357.2087707519531 629.482177734375 353.64971923828125 632.0967407226562 351.97808837890625" stroke-width="0.0" fill="url(#shape_58_fill)"/>
    <path d="M 341.3564453125 384.7763977050781 C 342.8251647949219 390.15106201171875 358.14501953125 391.66070556640625 359.1754455566406 394.63250732421875 C 356.80584716796875 398.61279296875 339.78082275390625 401.2305908203125 338.2740783691406 399.560302734375 C 335.1358642578125 399.62725830078125 333.0633850097656 398.7862548828125 331.83831787109375 396.5372619628906 C 331.9912109375 394.93994140625 330.74554443359375 393.4737243652344 332.28076171875 390.58477783203125 C 332.8594970703125 384.9138488769531 335.8688659667969 383.90576171875 341.3564453125 384.7763977050781" stroke-width="0.0" fill="url(#shape_59_fill)"/>
    <path d="M 459.1179504394531 363.96856689453125 C 462.1359558105469 363.72625732421875 473.4145812988281 371.13787841796875 473.1895446777344 374.4774475097656 C 471.8098449707031 376.24859619140625 470.33636474609375 376.86474609375 463.12255859375 375.8274230957031 C 458.3884582519531 377.41156005859375 457.5684509277344 376.7656555175781 452.6625061035156 370.7517395019531 C 453.41363525390625 370.19580078125 459.9910583496094 368.76629638671875 459.1179504394531 363.96856689453125" stroke-width="0.0" fill="url(#shape_60_fill)"/>
    <path d="M 428.27294921875 432.2284240722656 C 440.0068664550781 434.27490234375 442.4202575683594 436.6344909667969 442.1121520996094 438.6075744628906 C 440.2829895019531 440.71331787109375 428.0668640136719 439.22418212890625 425.6996154785156 442.1649475097656 C 422.4927062988281 438.6446228027344 423.8465881347656 434.7110595703125 410.829833984375 424.9490966796875 C 427.4862060546875 428.6168212890625 428.97503662109375 431.66448974609375 428.27294921875 432.2284240722656" stroke-width="0.0" fill="url(#shape_61_fill)"/>
    <path d="M 185.40745544433594 411.44952392578125 C 186.25523376464844 413.9150085449219 185.0240020751953 414.8037414550781 186.88473510742188 417.68084716796875 C 184.873046875 420.2106628417969 183.38790893554688 419.5006103515625 182.5171661376953 419.75823974609375 C 180.82516479492188 421.6443786621094 174.46331787109375 420.1482238769531 171.58383178710938 420.0552673339844 C 169.58656311035156 417.6744689941406 169.78030395507812 415.62615966796875 175.1364288330078 412.17364501953125 C 177.01795959472656 413.47216796875 181.04750061035156 410.3287353515625 185.40745544433594 411.44952392578125" stroke-width="0.0" fill="url(#shape_62_fill)"/>
    <path d="M 332.12188720703125 418.8045654296875 C 334.3640441894531 425.7250671386719 329.8888244628906 427.955078125 327.239990234375 425.6841735839844 C 324.52801513671875 427.74859619140625 322.9725341796875 426.7000427246094 321.3409423828125 427.4333190917969 C 318.9039611816406 425.98748779296875 319.9473571777344 419.96044921875 317.6030578613281 418.50146484375 C 318.9937744140625 420.2107849121094 325.88348388671875 418.6915588378906 332.12188720703125 418.8045654296875" stroke-width="0.0" fill="url(#shape_63_fill)"/>
    <path d="M 55.564640045166016 274.07171630859375 C 56.580684661865234 269.2047119140625 65.18318939208984 270.1943359375 64.40277862548828 278.5068054199219 C 59.63690948486328 279.09564208984375 53.819847106933594 272.8395080566406 48.474578857421875 275.9818420410156 C 50.97918701171875 273.493896484375 52.5643424987793 273.11376953125 55.564640045166016 274.07171630859375" stroke-width="0.0" fill="url(#shape_64_fill)"/>
    <path d="M 304.7233581542969 440.0391540527344 C 304.6047058105469 437.9009094238281 306.61468505859375 436.84173583984375 313.4491882324219 437.519287109375 C 314.4196472167969 439.77081298828125 312.96075439453125 441.1208801269531 311.0445861816406 441.7624816894531 C 307.9442443847656 445.21728515625 306.4764709472656 444.23614501953125 305.328125 443.99603271484375 C 302.5118408203125 441.69964599609375 303.30322265625 440.3726501464844 304.7233581542969 440.0391540527344" stroke-width="0.0" fill="url(#shape_65_fill)"/>
    <path d="M -0.5355324745178223 -0.4343756437301636 C 224.83937072753906 -0.1651034951210022 444.2290344238281 0.3128160834312439 672.546142578125 0.38382843136787415 C 673.3975830078125 155.5121307373047 674.7265625 296.1842956542969 673.7205810546875 445.477294921875 C 450.1973876953125 446.3260803222656 230.29127502441406 446.2936096191406 0.4634810984134674 445.4271545410156 C 0.19026722013950348 297.2206726074219 -0.1868593692779541 149.35931396484375 -0.5355324745178223 -0.4343756437301636" stroke-width="0.0" fill="url(#shape_66_fill)"/>
    <path d="M -1.0917521715164185 -0.20661304891109467 C 222.7007598876953 -0.1253911703824997 442.9675598144531 0.3736036419868469 672.481201171875 -0.2343619167804718 C 673.4444580078125 156.40151977539062 674.798583984375 295.6928405761719 673.3803100585938 445.391357421875 C 450.50762939453125 446.3962707519531 230.37928771972656 446.334228515625 0.48745325207710266 445.35015869140625 C 0.06795685738325119 297.4784851074219 -0.2792024314403534 149.07098388671875 -1.0917521715164185 -0.20661304891109467" stroke-width="0.0" fill="url(#shape_67_fill)"/>
    <path d="M -0.720560610294342 -0.2591041028499603 C 223.30291748046875 -0.17759153246879578 441.7829284667969 0.5031672716140747 672.5982666015625 -0.3057107627391815 C 673.5054321289062 155.86419677734375 674.7938842773438 295.5350036621094 673.3718872070312 445.39129638671875 C 450.5046691894531 446.3974304199219 230.4036407470703 446.3348693847656 1.0934491157531738 445.33074951171875 C 0.486775279045105 295.69451904296875 0.061760902404785156 148.54208374023438 -0.720560610294342 -0.2591041028499603" stroke-width="0.0" fill="url(#shape_68_fill)"/>
  </g>
</svg>
