<?xml version="1.0" ?>
<svg xmlns="http://www.w3.org/2000/svg" version="1.1" width="674" height="446">
  <defs>
    <radialGradient id="shape_0_fill" cx="0.535767869355063" cy="0.7419435646501892" r="0.2775507850533777">
      <stop offset="0.79467845" stop-color="rgb(173, 185, 0)" stop-opacity="0.8738194704055786"/>
      <stop offset="1.0" stop-color="rgb(54, 43, 0)" stop-opacity="1.0"/>
    </radialGradient>
    <radialGradient id="shape_1_fill" cx="0.537107563867767" cy="0.7448516298302621" r="0.2060430736145563">
      <stop offset="0.5960757" stop-color="rgb(86, 89, 62)" stop-opacity="0.8479316234588623"/>
      <stop offset="1.0" stop-color="rgb(23, 6, 0)" stop-opacity="0.6246214509010315"/>
    </radialGradient>
    <radialGradient id="shape_2_fill" cx="0.09792284866468842" cy="0.7376672719091578" r="0.22062588021026522">
      <stop offset="0.0029654512" stop-color="rgb(31, 90, 180)" stop-opacity="0.9871058464050293"/>
      <stop offset="1.0" stop-color="rgb(10, 111, 255)" stop-opacity="0.9412910342216492"/>
    </radialGradient>
    <radialGradient id="shape_3_fill" cx="0.2761224129787185" cy="0.21594161303054057" r="0.1278541406467336">
      <stop offset="0.38946578" stop-color="rgb(150, 209, 12)" stop-opacity="0.8284592032432556"/>
      <stop offset="1.0" stop-color="rgb(40, 43, 0)" stop-opacity="0.9628259539604187"/>
    </radialGradient>
    <radialGradient id="shape_4_fill" cx="0.1543026706231454" cy="0.9977578475336323" r="0.10288926755639141">
      <stop offset="0.0" stop-color="rgb(81, 79, 86)" stop-opacity="1.0"/>
      <stop offset="1.0" stop-color="rgb(93, 79, 96)" stop-opacity="0.8786715269088745"/>
    </radialGradient>
    <radialGradient id="shape_5_fill" cx="0.14807964290992442" cy="0.23997249517740155" r="0.11810664960821587">
      <stop offset="0.0" stop-color="rgb(255, 255, 255)" stop-opacity="0.6465655565261841"/>
      <stop offset="0.5626593" stop-color="rgb(255, 255, 255)" stop-opacity="0.620158851146698"/>
    </radialGradient>
    <radialGradient id="shape_6_fill" cx="0.18397626112759644" cy="0.9977578475336323" r="0.0754974885934892">
      <stop offset="0.0" stop-color="rgb(93, 90, 94)" stop-opacity="1.0"/>
      <stop offset="1.0" stop-color="rgb(145, 130, 135)" stop-opacity="0.9210163354873657"/>
    </radialGradient>
    <radialGradient id="shape_7_fill" cx="0.2893175074183976" cy="0.05829596412556054" r="0.08666390552011372">
      <stop offset="0.0" stop-color="rgb(55, 66, 29)" stop-opacity="1.0"/>
      <stop offset="1.0" stop-color="rgb(92, 105, 31)" stop-opacity="0.7025772929191589"/>
    </radialGradient>
    <radialGradient id="shape_8_fill" cx="0.3382789091115889" cy="0.9439461883408071" r="0.06756690277190167">
      <stop offset="0.0" stop-color="rgb(91, 124, 45)" stop-opacity="1.0"/>
      <stop offset="1.0" stop-color="rgb(132, 189, 76)" stop-opacity="0.7343321442604065"/>
    </radialGradient>
    <radialGradient id="shape_9_fill" cx="0.30712166172106825" cy="0.9977578475336323" r="0.0730758406641929">
      <stop offset="0.0" stop-color="rgb(38, 48, 20)" stop-opacity="1.0"/>
      <stop offset="1.0" stop-color="rgb(25, 28, 35)" stop-opacity="0.9818053841590881"/>
    </radialGradient>
    <radialGradient id="shape_10_fill" cx="0.3056379821958457" cy="0.9977578475336323" r="0.06792919147615971">
      <stop offset="0.0" stop-color="rgb(39, 49, 21)" stop-opacity="1.0"/>
      <stop offset="1.0" stop-color="rgb(44, 34, 0)" stop-opacity="0.7204623818397522"/>
    </radialGradient>
    <radialGradient id="shape_11_fill" cx="0.21810089020771514" cy="0.968609865470852" r="0.06792919147615971">
      <stop offset="0.0" stop-color="rgb(138, 135, 129)" stop-opacity="1.0"/>
      <stop offset="1.0" stop-color="rgb(196, 164, 145)" stop-opacity="0.5302248001098633"/>
    </radialGradient>
    <radialGradient id="shape_12_fill" cx="0.29080118694362017" cy="0.9977578475336323" r="0.07480746985189285">
      <stop offset="0.0" stop-color="rgb(22, 25, 13)" stop-opacity="1.0"/>
      <stop offset="1.0" stop-color="rgb(32, 35, 0)" stop-opacity="1.0"/>
    </radialGradient>
    <radialGradient id="shape_13_fill" cx="0.327893175074184" cy="0.8923766816143498" r="0.06900465877544279">
      <stop offset="0.0" stop-color="rgb(89, 117, 50)" stop-opacity="1.0"/>
      <stop offset="1.0" stop-color="rgb(124, 163, 37)" stop-opacity="0.8514419198036194"/>
    </radialGradient>
    <radialGradient id="shape_14_fill" cx="0.142433234421365" cy="0.9977578475336323" r="0.06617211022079875">
      <stop offset="0.0" stop-color="rgb(155, 150, 153)" stop-opacity="1.0"/>
      <stop offset="1.0" stop-color="rgb(255, 252, 253)" stop-opacity="0.17224574089050293"/>
    </radialGradient>
    <radialGradient id="shape_15_fill" cx="0.31008902077151335" cy="0.9977578475336323" r="0.06683642786405207">
      <stop offset="0.0" stop-color="rgb(43, 55, 23)" stop-opacity="1.0"/>
      <stop offset="1.0" stop-color="rgb(55, 65, 14)" stop-opacity="0.953216552734375"/>
    </radialGradient>
    <radialGradient id="shape_16_fill" cx="0.27299703264094954" cy="0.9977578475336323" r="0.08110449363640579">
      <stop offset="0.0" stop-color="rgb(31, 35, 19)" stop-opacity="1.0"/>
      <stop offset="1.0" stop-color="rgb(32, 32, 0)" stop-opacity="0.9922112226486206"/>
    </radialGradient>
    <radialGradient id="shape_17_fill" cx="0.2893175074183976" cy="0.9977578475336323" r="0.07513486030193747">
      <stop offset="0.0" stop-color="rgb(22, 23, 13)" stop-opacity="1.0"/>
      <stop offset="1.0" stop-color="rgb(12, 4, 0)" stop-opacity="0.7734776139259338"/>
    </radialGradient>
    <radialGradient id="shape_18_fill" cx="0.3293768545994065" cy="0.7556053811659192" r="0.06617211022079875">
      <stop offset="0.0" stop-color="rgb(83, 108, 65)" stop-opacity="1.0"/>
      <stop offset="1.0" stop-color="rgb(111, 140, 58)" stop-opacity="0.9591824412345886"/>
    </radialGradient>
    <radialGradient id="shape_19_fill" cx="0.3516320474777448" cy="0.9977578475336323" r="0.06617211022079875">
      <stop offset="0.0" stop-color="rgb(95, 135, 39)" stop-opacity="1.0"/>
      <stop offset="1.0" stop-color="rgb(150, 222, 2)" stop-opacity="0.7718871235847473"/>
    </radialGradient>
    <radialGradient id="shape_20_fill" cx="0.0830860534124629" cy="0.9977578475336323" r="0.06792919147615971">
      <stop offset="0.0" stop-color="rgb(49, 52, 66)" stop-opacity="1.0"/>
      <stop offset="1.0" stop-color="rgb(8, 7, 45)" stop-opacity="0.47775909304618835"/>
    </radialGradient>
    <radialGradient id="shape_21_fill" cx="0.29821958456973297" cy="0.9977578475336323" r="0.06792919147615971">
      <stop offset="0.0" stop-color="rgb(33, 40, 17)" stop-opacity="1.0"/>
      <stop offset="1.0" stop-color="rgb(32, 43, 0)" stop-opacity="0.6586243510246277"/>
    </radialGradient>
    <radialGradient id="shape_22_fill" cx="0.3564346947372844" cy="0.44366290857973656" r="0.06591664435955466">
      <stop offset="0.0" stop-color="rgb(224, 252, 0)" stop-opacity="0.6314501762390137"/>
      <stop offset="0.43000636" stop-color="rgb(158, 196, 35)" stop-opacity="0.9105411767959595"/>
    </radialGradient>
    <radialGradient id="shape_23_fill" cx="0.6454005934718101" cy="0.1412556053811659" r="0.06617211022079875">
      <stop offset="0.0" stop-color="rgb(46, 38, 13)" stop-opacity="1.0"/>
      <stop offset="1.0" stop-color="rgb(50, 27, 0)" stop-opacity="0.8358064889907837"/>
    </radialGradient>
    <radialGradient id="shape_24_fill" cx="0.24925732258873098" cy="0.48430544592339897" r="0.06617138010811735">
      <stop offset="0.0" stop-color="rgb(201, 209, 206)" stop-opacity="1.0"/>
      <stop offset="0.9766002" stop-color="rgb(255, 255, 255)" stop-opacity="0.55182284116745"/>
    </radialGradient>
    <radialGradient id="shape_25_fill" cx="0.6320474777448071" cy="0.9977578475336323" r="0.06617211022079875">
      <stop offset="0.0" stop-color="rgb(35, 28, 8)" stop-opacity="1.0"/>
      <stop offset="1.0" stop-color="rgb(35, 11, 0)" stop-opacity="0.6076906323432922"/>
    </radialGradient>
    <radialGradient id="shape_26_fill" cx="0.15414520399506793" cy="0.3207086811151205" r="0.06604698362265567">
      <stop offset="0.11989396" stop-color="rgb(198, 211, 155)" stop-opacity="1.0"/>
      <stop offset="0.58338207" stop-color="rgb(115, 114, 253)" stop-opacity="0.0"/>
    </radialGradient>
    <radialGradient id="shape_27_fill" cx="0.15410647972401242" cy="0.3208032787648017" r="0.06604505929465818">
      <stop offset="0.0" stop-color="rgb(192, 205, 0)" stop-opacity="1.0"/>
      <stop offset="0.49375975" stop-color="rgb(78, 72, 47)" stop-opacity="0.5935980677604675"/>
    </radialGradient>
    <radialGradient id="shape_28_fill" cx="0.0387042325752779" cy="0.01890001168700077" r="0.06777179276554096">
      <stop offset="0.1561199" stop-color="rgb(0, 25, 132)" stop-opacity="1.0"/>
      <stop offset="0.7164041" stop-color="rgb(0, 29, 155)" stop-opacity="0.7788404822349548"/>
    </radialGradient>
    <radialGradient id="shape_29_fill" cx="0.33976258863681147" cy="0.6659192825112108" r="0.06617211022079875">
      <stop offset="0.0" stop-color="rgb(90, 117, 55)" stop-opacity="1.0"/>
      <stop offset="1.0" stop-color="rgb(118, 151, 33)" stop-opacity="0.9113707542419434"/>
    </radialGradient>
    <radialGradient id="shape_30_fill" cx="0.04031880036305957" cy="0.018193826547118045" r="0.0677064505104495">
      <stop offset="0.28697643" stop-color="rgb(49, 77, 60)" stop-opacity="0.9130585193634033"/>
      <stop offset="0.9950991" stop-color="rgb(41, 50, 41)" stop-opacity="0.6952257752418518"/>
    </radialGradient>
    <radialGradient id="shape_31_fill" cx="0.12314540059347182" cy="0.9977578475336323" r="0.06617211022079875">
      <stop offset="0.0" stop-color="rgb(95, 103, 98)" stop-opacity="1.0"/>
      <stop offset="1.0" stop-color="rgb(146, 136, 127)" stop-opacity="0.7769019603729248"/>
    </radialGradient>
    <radialGradient id="shape_32_fill" cx="0.4035608308605341" cy="0.984304932735426" r="0.06617211022079875">
      <stop offset="0.0" stop-color="rgb(126, 155, 63)" stop-opacity="1.0"/>
      <stop offset="1.0" stop-color="rgb(163, 143, 28)" stop-opacity="0.8915711045265198"/>
    </radialGradient>
    <radialGradient id="shape_33_fill" cx="0.3249258160237389" cy="0.6053811659192825" r="0.06617211022079875">
      <stop offset="0.0" stop-color="rgb(93, 124, 71)" stop-opacity="1.0"/>
      <stop offset="1.0" stop-color="rgb(123, 155, 45)" stop-opacity="0.9490156769752502"/>
    </radialGradient>
    <radialGradient id="shape_34_fill" cx="0.6468842729970327" cy="0.531390134529148" r="0.06617211022079875">
      <stop offset="0.0" stop-color="rgb(54, 47, 24)" stop-opacity="1.0"/>
      <stop offset="1.0" stop-color="rgb(61, 30, 12)" stop-opacity="0.57039874792099"/>
    </radialGradient>
    <radialGradient id="shape_35_fill" cx="0.1444500320389292" cy="0.23712522566585797" r="0.06750355276226644">
      <stop offset="0.025866667" stop-color="rgb(167, 244, 49)" stop-opacity="0.21334168314933777"/>
      <stop offset="0.57020086" stop-color="rgb(145, 119, 78)" stop-opacity="0.6398016214370728"/>
    </radialGradient>
    <radialGradient id="shape_36_fill" cx="0.2878338278931751" cy="0.9977578475336323" r="0.06617211022079875">
      <stop offset="0.0" stop-color="rgb(80, 96, 53)" stop-opacity="1.0"/>
      <stop offset="1.0" stop-color="rgb(57, 56, 19)" stop-opacity="0.8853399753570557"/>
    </radialGradient>
    <radialGradient id="shape_37_fill" cx="0.129080118694362" cy="0.9977578475336323" r="0.06617211022079875">
      <stop offset="0.0" stop-color="rgb(87, 97, 81)" stop-opacity="1.0"/>
      <stop offset="1.0" stop-color="rgb(83, 93, 68)" stop-opacity="0.6663329005241394"/>
    </radialGradient>
    <radialGradient id="shape_38_fill" cx="0.33892324204260943" cy="0.5607740119968294" r="0.0666785763703751">
      <stop offset="0.7501405" stop-color="rgb(85, 119, 14)" stop-opacity="0.8934643268585205"/>
      <stop offset="0.602252" stop-color="rgb(176, 255, 72)" stop-opacity="0.8313527703285217"/>
    </radialGradient>
    <radialGradient id="shape_39_fill" cx="0.40059347181008903" cy="0.9641255605381166" r="0.06617211022079875">
      <stop offset="0.0" stop-color="rgb(138, 168, 60)" stop-opacity="1.0"/>
      <stop offset="1.0" stop-color="rgb(229, 255, 83)" stop-opacity="1.0"/>
    </radialGradient>
    <radialGradient id="shape_40_fill" cx="0.6152110113941951" cy="0.8808079877776416" r="0.0679980258205878">
      <stop offset="0.3371726" stop-color="rgb(158, 147, 124)" stop-opacity="0.5786709189414978"/>
      <stop offset="0.49558213" stop-color="rgb(0, 3, 69)" stop-opacity="1.0"/>
    </radialGradient>
    <radialGradient id="shape_41_fill" cx="0.6454005934718101" cy="0.08744394618834081" r="0.06617211022079875">
      <stop offset="0.0" stop-color="rgb(58, 48, 21)" stop-opacity="1.0"/>
      <stop offset="1.0" stop-color="rgb(90, 61, 12)" stop-opacity="0.9684081077575684"/>
    </radialGradient>
    <radialGradient id="shape_42_fill" cx="0.5845697329376854" cy="0.6188340807174888" r="0.06617211022079875">
      <stop offset="0.0" stop-color="rgb(62, 59, 56)" stop-opacity="1.0"/>
      <stop offset="1.0" stop-color="rgb(31, 27, 75)" stop-opacity="0.6397920846939087"/>
    </radialGradient>
    <radialGradient id="shape_43_fill" cx="0.35607011381879405" cy="0.5037091173933226" r="0.06805387095103278">
      <stop offset="0.27626228" stop-color="rgb(131, 177, 57)" stop-opacity="1.0"/>
      <stop offset="0.534804" stop-color="rgb(214, 255, 25)" stop-opacity="0.879882276058197"/>
    </radialGradient>
    <radialGradient id="shape_44_fill" cx="0.5934718100890207" cy="0.9977578475336323" r="0.06617211022079875">
      <stop offset="0.0" stop-color="rgb(89, 61, 18)" stop-opacity="1.0"/>
      <stop offset="1.0" stop-color="rgb(168, 82, 0)" stop-opacity="0.756297767162323"/>
    </radialGradient>
    <radialGradient id="shape_45_fill" cx="0.612759643916914" cy="0.04035874439461883" r="0.06617211022079875">
      <stop offset="0.0" stop-color="rgb(157, 136, 123)" stop-opacity="1.0"/>
      <stop offset="1.0" stop-color="rgb(255, 232, 211)" stop-opacity="1.0"/>
    </radialGradient>
    <radialGradient id="shape_46_fill" cx="0.28635014836795253" cy="0.9977578475336323" r="0.06617211022079875">
      <stop offset="0.0" stop-color="rgb(82, 99, 55)" stop-opacity="1.0"/>
      <stop offset="1.0" stop-color="rgb(96, 116, 21)" stop-opacity="0.5080841779708862"/>
    </radialGradient>
    <radialGradient id="shape_47_fill" cx="0.28635014836795253" cy="0.8183856502242153" r="0.06617211022079875">
      <stop offset="0.0" stop-color="rgb(166, 189, 197)" stop-opacity="1.0"/>
      <stop offset="1.0" stop-color="rgb(255, 255, 255)" stop-opacity="0.4671182334423065"/>
    </radialGradient>
    <radialGradient id="shape_48_fill" cx="0.40801186943620177" cy="0.9977578475336323" r="0.06617211022079875">
      <stop offset="0.0" stop-color="rgb(107, 135, 68)" stop-opacity="1.0"/>
      <stop offset="1.0" stop-color="rgb(133, 152, 53)" stop-opacity="1.0"/>
    </radialGradient>
    <radialGradient id="shape_49_fill" cx="0.19287833827893175" cy="0.3991031390134529" r="0.06617211022079875">
      <stop offset="0.0" stop-color="rgb(92, 100, 54)" stop-opacity="1.0"/>
      <stop offset="1.0" stop-color="rgb(76, 56, 11)" stop-opacity="0.5564548373222351"/>
    </radialGradient>
    <radialGradient id="shape_50_fill" cx="0.6439169139465876" cy="0.7376681614349776" r="0.06617211022079875">
      <stop offset="0.0" stop-color="rgb(65, 56, 25)" stop-opacity="1.0"/>
      <stop offset="1.0" stop-color="rgb(155, 195, 75)" stop-opacity="0.42366939783096313"/>
    </radialGradient>
    <radialGradient id="shape_51_fill" cx="0.5845697329376854" cy="0.6322869955156951" r="0.06617211022079875">
      <stop offset="0.0" stop-color="rgb(75, 68, 60)" stop-opacity="1.0"/>
      <stop offset="1.0" stop-color="rgb(136, 107, 87)" stop-opacity="0.7874165177345276"/>
    </radialGradient>
    <radialGradient id="shape_52_fill" cx="0.2997032640949555" cy="0.6031390134529148" r="0.06617211022079875">
      <stop offset="0.0" stop-color="rgb(107, 158, 118)" stop-opacity="1.0"/>
      <stop offset="1.0" stop-color="rgb(192, 255, 237)" stop-opacity="0.6109212636947632"/>
    </radialGradient>
    <radialGradient id="shape_53_fill" cx="0.6097922848664689" cy="0.45067264573991034" r="0.06617211022079875">
      <stop offset="0.0" stop-color="rgb(38, 39, 27)" stop-opacity="1.0"/>
      <stop offset="1.0" stop-color="rgb(20, 11, 30)" stop-opacity="0.4061214327812195"/>
    </radialGradient>
    <radialGradient id="shape_54_fill" cx="0.6335311572700296" cy="0.426009002822397" r="0.06617211022079875">
      <stop offset="0.0" stop-color="rgb(67, 49, 20)" stop-opacity="1.0"/>
      <stop offset="1.0" stop-color="rgb(120, 67, 9)" stop-opacity="0.7871513962745667"/>
    </radialGradient>
    <radialGradient id="shape_55_fill" cx="0.3707168533823257" cy="0.5988430827187851" r="0.066001377049115">
      <stop offset="0.43594468" stop-color="rgb(239, 255, 60)" stop-opacity="0.9617893099784851"/>
      <stop offset="0.16095117" stop-color="rgb(201, 255, 0)" stop-opacity="0.7485247850418091"/>
    </radialGradient>
    <radialGradient id="shape_56_fill" cx="0.5489614243323442" cy="0.600896860986547" r="0.06617211022079875">
      <stop offset="0.0" stop-color="rgb(50, 62, 80)" stop-opacity="1.0"/>
      <stop offset="1.0" stop-color="rgb(24, 63, 195)" stop-opacity="0.5115548968315125"/>
    </radialGradient>
    <radialGradient id="shape_57_fill" cx="0.4094955489614243" cy="0.9035874439461884" r="0.06617211022079875">
      <stop offset="0.0" stop-color="rgb(111, 144, 47)" stop-opacity="1.0"/>
      <stop offset="1.0" stop-color="rgb(160, 207, 0)" stop-opacity="0.6539316177368164"/>
    </radialGradient>
    <radialGradient id="shape_58_fill" cx="0.5281899109792285" cy="0.9977578475336323" r="0.06617211022079875">
      <stop offset="0.0" stop-color="rgb(50, 43, 14)" stop-opacity="1.0"/>
      <stop offset="1.0" stop-color="rgb(71, 49, 0)" stop-opacity="1.0"/>
    </radialGradient>
    <radialGradient id="shape_59_fill" cx="0.5845697329376854" cy="0.7690582959641256" r="0.06617211022079875">
      <stop offset="0.0" stop-color="rgb(61, 63, 58)" stop-opacity="1.0"/>
      <stop offset="1.0" stop-color="rgb(76, 74, 98)" stop-opacity="0.712363064289093"/>
    </radialGradient>
    <radialGradient id="shape_60_fill" cx="0.5489614243323442" cy="0.9977578475336323" r="0.06617211022079875">
      <stop offset="0.0" stop-color="rgb(140, 131, 64)" stop-opacity="1.0"/>
      <stop offset="1.0" stop-color="rgb(242, 212, 87)" stop-opacity="0.9283994436264038"/>
    </radialGradient>
    <radialGradient id="shape_61_fill" cx="0.6468552948813057" cy="0.9686180764784192" r="0.06617989808940039">
      <stop offset="0.4296636" stop-color="rgb(255, 250, 46)" stop-opacity="1.0"/>
      <stop offset="0.98919547" stop-color="rgb(255, 223, 0)" stop-opacity="1.0"/>
    </radialGradient>
    <radialGradient id="shape_62_fill" cx="0.615727002967359" cy="0.3991031390134529" r="0.06617211022079875">
      <stop offset="0.0" stop-color="rgb(55, 47, 13)" stop-opacity="1.0"/>
      <stop offset="1.0" stop-color="rgb(75, 50, 0)" stop-opacity="1.0"/>
    </radialGradient>
    <radialGradient id="shape_63_fill" cx="0.6261127596439169" cy="0.7286995515695067" r="0.06617211022079875">
      <stop offset="0.0" stop-color="rgb(79, 66, 32)" stop-opacity="1.0"/>
      <stop offset="1.0" stop-color="rgb(207, 216, 95)" stop-opacity="0.6658244132995605"/>
    </radialGradient>
    <radialGradient id="shape_64_fill" cx="0.40801186943620177" cy="0.12556053811659193" r="0.06617211022079875">
      <stop offset="0.0" stop-color="rgb(76, 66, 59)" stop-opacity="1.0"/>
      <stop offset="1.0" stop-color="rgb(102, 73, 66)" stop-opacity="1.0"/>
    </radialGradient>
    <radialGradient id="shape_65_fill" cx="0.6528189910979229" cy="0.6883408071748879" r="0.06617211022079875">
      <stop offset="0.0" stop-color="rgb(121, 97, 39)" stop-opacity="1.0"/>
      <stop offset="1.0" stop-color="rgb(255, 255, 91)" stop-opacity="1.0"/>
    </radialGradient>
    <radialGradient id="shape_66_fill" cx="0.6516452868543676" cy="0.46088317049992994" r="0.06891121001201143">
      <stop offset="0.30342034" stop-color="rgb(150, 184, 93)" stop-opacity="0.38786616921424866"/>
      <stop offset="0.96857053" stop-color="rgb(0, 0, 0)" stop-opacity="0.05924298241734505"/>
    </radialGradient>
    <radialGradient id="shape_67_fill" cx="0.5949485620334524" cy="0.9952466477193105" r="0.06892522930745201">
      <stop offset="0.87445307" stop-color="rgb(52, 29, 0)" stop-opacity="0.7539425492286682"/>
      <stop offset="1.0" stop-color="rgb(0, 0, 0)" stop-opacity="0.16097933053970337"/>
    </radialGradient>
    <radialGradient id="shape_68_fill" cx="0.4891145519403746" cy="0.9963377537748739" r="0.06770171326770273">
      <stop offset="0.40794146" stop-color="rgb(51, 29, 13)" stop-opacity="0.6492047905921936"/>
      <stop offset="1.0" stop-color="rgb(45, 65, 59)" stop-opacity="0.27926182746887207"/>
    </radialGradient>
  </defs>
  <g>
    <path d="M -0.15329116582870483 271.2309265136719 C 26.081512451171875 269.24310302734375 35.20363235473633 270.439208984375 45.01869583129883 273.05523681640625 C 48.0911750793457 274.59161376953125 49.36375045776367 276.458984375 57.11077117919922 274.4837646484375 C 59.89189529418945 273.94769287109375 63.44221878051758 274.2814636230469 64.68135070800781 272.7725830078125 C 70.91272735595703 270.4866027832031 100.90447235107422 271.2392578125 116.55704498291016 271.2451171875 C 120.94375610351562 271.42913818359375 126.3036117553711 277.2711181640625 124.2210693359375 282.48907470703125 C 133.41806030273438 282.5043640136719 140.0935516357422 281.5467529296875 151.34149169921875 286.7299499511719 C 185.2730712890625 282.22064208984375 185.76502990722656 282.5070495605469 206.62673950195312 287.3004150390625 C 199.8435516357422 287.990966796875 198.13670349121094 282.318115234375 211.82408142089844 271.4112854003906 C 244.1387176513672 272.7454833984375 287.388671875 271.7596740722656 311.9336242675781 276.68267822265625 C 345.40509033203125 279.02197265625 421.5600280761719 279.1899719238281 465.02197265625 275.64825439453125 C 492.2999572753906 274.2118835449219 541.7067260742188 275.7148742675781 542.2897338867188 281.2543029785156 C 548.7589111328125 282.0491943359375 550.0484619140625 277.1684265136719 564.5344848632812 274.3516845703125 C 580.1815185546875 277.9784240722656 612.0462036132812 283.8878479003906 612.77001953125 284.3231201171875 C 629.73583984375 274.9972839355469 639.7962036132812 275.4068908691406 666.6273193359375 275.0979309082031 C 672.1930541992188 276.1338195800781 677.4512329101562 280.80047607421875 677.9577026367188 285.672119140625 C 676.5985107421875 339.5054626464844 674.7330322265625 391.50872802734375 675.1177368164062 446.4668273925781 C 451.9151306152344 446.6697692871094 228.9889373779297 446.8115539550781 -0.4675770699977875 446.4240417480469 C -0.41408127546310425 389.1458435058594 0.2721553146839142 332.36083984375 -0.15329116582870483 271.2309265136719" stroke-width="0.0" fill="url(#shape_0_fill)"/>
    <path d="M -0.019587112590670586 271.3409118652344 C 35.933231353759766 275.3992919921875 36.5576057434082 274.5904235839844 44.35166549682617 274.6192321777344 C 48.21898651123047 267.435791015625 59.95853805541992 266.78387451171875 77.00733947753906 268.6817932128906 C 113.490234375 278.68035888671875 114.02487182617188 279.3109130859375 126.58792877197266 279.29034423828125 C 127.79158020019531 273.85882568359375 145.5043487548828 272.82452392578125 149.31460571289062 271.86004638671875 C 185.1295623779297 270.8766174316406 185.7731475830078 272.57208251953125 202.2910614013672 275.6479187011719 C 203.1820526123047 291.83941650390625 205.18910217285156 291.8875732421875 217.9768829345703 294.95416259765625 C 218.91143798828125 293.83270263671875 270.8416748046875 295.87103271484375 291.5842590332031 297.3369445800781 C 323.2511901855469 299.2538757324219 449.9436340332031 297.3119201660156 458.9125671386719 298.0596618652344 C 474.0823059082031 290.5220031738281 487.36749267578125 291.12890625 504.4474792480469 287.74627685546875 C 509.8535461425781 287.57427978515625 519.17529296875 286.2691955566406 522.8515625 286.44500732421875 C 527.5083618164062 285.68170166015625 531.8558959960938 285.88916015625 535.0525512695312 287.0541687011719 C 543.1380615234375 286.88214111328125 549.4009399414062 288.0575256347656 558.4927978515625 296.2103576660156 C 575.9930419921875 288.11993408203125 579.7389526367188 289.9727783203125 590.567626953125 292.364013671875 C 608.69580078125 288.8709716796875 620.8148803710938 287.9461669921875 634.2847900390625 288.4109802246094 C 646.3223876953125 280.6959533691406 656.2962646484375 286.1407775878906 673.79150390625 290.294189453125 C 673.9414672851562 340.59490966796875 674.4493408203125 392.208251953125 674.1542358398438 446.2807922363281 C 451.4774169921875 446.3905334472656 229.19664001464844 446.25439453125 -0.3076566159725189 446.2476501464844 C -0.2135799378156662 389.4035949707031 -0.2940194308757782 333.0278625488281 -0.019587112590670586 271.3409118652344" stroke-width="0.0" fill="url(#shape_1_fill)"/>
    <path d="M -0.019905665889382362 -0.25989267230033875 C 219.69313049316406 0.1040392518043518 439.478759765625 -0.45242562890052795 671.7704467773438 -0.21823474764823914 C 664.984619140625 10.212565422058105 645.5176391601562 36.383872985839844 637.676025390625 47.79662322998047 C 634.0538940429688 52.95320510864258 610.62841796875 93.53382110595703 585.0008544921875 84.15469360351562 C 577.7603759765625 81.67607116699219 560.1327514648438 70.3373031616211 532.498291015625 73.92943572998047 C 531.6580810546875 76.34783172607422 524.4139404296875 78.04507446289062 522.3824462890625 72.17514038085938 C 522.6089477539062 68.82952117919922 499.53057861328125 63.74208068847656 499.59814453125 62.66489791870117 C 492.73944091796875 62.10491943359375 487.10113525390625 61.0191650390625 484.38726806640625 68.34056854248047 C 475.1540222167969 71.79875946044922 476.12872314453125 74.88600158691406 477.3036804199219 83.10883331298828 C 483.1089172363281 96.68952178955078 474.1175537109375 113.61587524414062 470.11529541015625 118.1937026977539 C 459.8481750488281 118.24711608886719 459.6626281738281 114.06604766845703 451.46697998046875 108.61276245117188 C 435.42938232421875 107.69296264648438 411.6770935058594 102.48877716064453 410.3822021484375 104.86580657958984 C 411.0464782714844 119.96681213378906 411.8976135253906 125.81636810302734 408.97113037109375 133.5561065673828 C 406.3297424316406 141.72528076171875 397.421142578125 140.47108459472656 391.6075744628906 136.89454650878906 C 381.8196105957031 144.08587646484375 375.5169982910156 158.0959930419922 369.78875732421875 157.3850555419922 C 368.5076904296875 160.4935760498047 366.7196960449219 164.05303955078125 362.5254211425781 168.36135864257812 C 359.84698486328125 171.03329467773438 356.5386657714844 170.4442901611328 351.88665771484375 175.92379760742188 C 345.5395812988281 183.5096435546875 336.51824951171875 175.94638061523438 333.3532409667969 171.2333984375 C 305.2471618652344 170.77130126953125 304.4701232910156 177.31890869140625 302.49298095703125 181.1952667236328 C 303.9089660644531 188.244873046875 304.12451171875 191.5891571044922 307.5417175292969 201.38436889648438 C 307.3653259277344 200.7846221923828 305.968994140625 198.27371215820312 304.6564636230469 191.0740203857422 C 305.106689453125 188.1226043701172 302.108642578125 187.1117706298828 286.5059814453125 181.0810089111328 C 289.76947021484375 194.5334930419922 289.2989196777344 195.9713592529297 289.58392333984375 196.2801971435547 C 288.3404541015625 190.20375061035156 288.2286376953125 183.59548950195312 284.8164978027344 180.7872772216797 C 272.9043273925781 183.22323608398438 270.4980163574219 187.14242553710938 263.33526611328125 183.23443603515625 C 256.0724182128906 184.81753540039062 256.5375671386719 188.26742553710938 256.9702453613281 197.51382446289062 C 260.8046875 199.42654418945312 260.57879638671875 200.03265380859375 257.7478332519531 199.0540771484375 C 257.04498291015625 198.89434814453125 252.51905822753906 196.16209411621094 253.5079345703125 194.3000030517578 C 255.69320678710938 189.2786407470703 257.43389892578125 186.27296447753906 253.3260498046875 171.84107971191406 C 256.20550537109375 166.79022216796875 216.45245361328125 141.73265075683594 213.99444580078125 140.09982299804688 C 185.36721801757812 128.40870666503906 195.70835876464844 102.82237243652344 191.771484375 87.81841278076172 C 192.77047729492188 83.9736099243164 159.23037719726562 73.13191986083984 138.3986053466797 62.512107849121094 C 113.1461181640625 39.32529067993164 69.62818908691406 54.94456481933594 37.43658447265625 61.58035659790039 C 19.509349822998047 70.05943298339844 8.868865013122559 69.44457244873047 -0.6783815026283264 69.56299591064453 C 0.34182998538017273 43.958133697509766 -0.3314552307128906 22.56187629699707 -0.019905665889382362 -0.25989267230033875" stroke-width="0.0" fill="url(#shape_2_fill)"/>
    <path d="M 86.63076782226562 63.90419387817383 C 88.83746337890625 68.82075500488281 92.49436950683594 68.68488311767578 93.51592254638672 69.92962646484375 C 90.8294448852539 80.22313690185547 91.33625030517578 80.6629867553711 91.20801544189453 89.58177947998047 C 96.2424545288086 85.36434173583984 97.91952514648438 86.93853759765625 103.02267456054688 87.68049621582031 C 104.27792358398438 75.1492919921875 105.85987854003906 73.4757080078125 108.45845794677734 73.22293090820312 C 112.074462890625 87.67371368408203 111.24964904785156 93.5738754272461 116.31700134277344 99.39937591552734 C 116.59900665283203 100.06207275390625 116.2667007446289 108.66155242919922 115.54672241210938 115.43631744384766 C 124.6044921875 115.20323944091797 128.7364501953125 115.48180389404297 129.52532958984375 113.43672180175781 C 130.31610107421875 109.39146423339844 136.50247192382812 107.95096588134766 136.49462890625 104.58540344238281 C 136.61407470703125 103.68439483642578 135.53961181640625 101.8012924194336 137.1000213623047 98.13823699951172 C 136.464599609375 93.25980377197266 137.48487854003906 92.8811264038086 137.37925720214844 89.13238525390625 C 137.29800415039062 84.92253112792969 138.62022399902344 84.82124328613281 139.29464721679688 86.30537414550781 C 139.90614318847656 82.48760223388672 146.66600036621094 80.70870971679688 147.96978759765625 83.45014953613281 C 148.60972595214844 93.11897277832031 150.03025817871094 94.4364242553711 151.96328735351562 99.03784942626953 C 153.45164489746094 103.02340698242188 149.929443359375 106.90760040283203 148.8243408203125 106.70160675048828 C 152.73358154296875 109.94121551513672 150.6417694091797 114.17459869384766 148.56114196777344 113.47785186767578 C 154.5277862548828 112.80606842041016 157.9062957763672 122.58441925048828 157.45591735839844 123.18856811523438 C 161.50433349609375 124.91422271728516 164.99449157714844 123.43169403076172 169.60653686523438 122.64275360107422 C 174.3905792236328 119.72626495361328 175.7809600830078 121.51655578613281 177.7175750732422 122.51039123535156 C 179.3292694091797 122.67971801757812 179.93971252441406 125.42903900146484 182.65655517578125 127.78003692626953 C 183.81369018554688 130.22125244140625 182.38917541503906 133.13568115234375 183.54335021972656 135.47540283203125 C 186.18966674804688 135.51370239257812 187.68893432617188 142.94871520996094 188.643310546875 145.37582397460938 C 194.76405334472656 145.42208862304688 206.69622802734375 155.3130340576172 201.54705810546875 173.82127380371094 C 205.48553466796875 175.24620056152344 205.64202880859375 178.34280395507812 205.56008911132812 182.4910430908203 C 212.61473083496094 181.9836883544922 214.80897521972656 197.9458465576172 212.1270751953125 204.51905822753906 C 206.9418182373047 207.0152587890625 203.40292358398438 207.7904052734375 203.12583923339844 210.26858520507812 C 200.78652954101562 210.53207397460938 199.92572021484375 211.69285583496094 200.2421417236328 213.5845184326172 C 196.43812561035156 215.27455139160156 193.63104248046875 215.4026641845703 191.89024353027344 219.5802764892578 C 184.29917907714844 221.045654296875 183.60858154296875 224.78810119628906 178.76914978027344 230.2990264892578 C 176.32391357421875 233.5733184814453 179.96070861816406 239.55120849609375 180.7584686279297 243.22743225097656 C 182.40492248535156 252.06277465820312 186.22286987304688 260.72137451171875 178.8135528564453 264.71685791015625 C 173.8941650390625 268.14483642578125 148.20242309570312 268.1944885253906 137.0500030517578 269.6273193359375 C 130.47557067871094 269.01470947265625 127.01215362548828 271.2660827636719 120.0042724609375 274.1710510253906 C 109.04878997802734 276.9603271484375 73.28002166748047 276.1107177734375 73.09552764892578 269.9851379394531 C 47.6799430847168 266.7602233886719 56.542728424072266 268.56292724609375 57.41653823852539 273.61822509765625 C 47.72129440307617 276.5372314453125 0.5667117834091187 273.2106018066406 0.6591700315475464 269.9299621582031 C -4.743946552276611 222.5308837890625 -3.5248656272888184 167.8462677001953 -1.0216730833053589 118.88799285888672 C 12.001049995422363 118.96334838867188 22.086135864257812 113.97299194335938 26.451736450195312 121.92789459228516 C 28.706911087036133 128.25440979003906 36.301170349121094 128.39598083496094 41.42456817626953 131.8348846435547 C 46.87959671020508 131.01162719726562 47.73871612548828 133.01206970214844 49.21067810058594 142.2252960205078 C 50.36254119873047 147.4585418701172 61.662269592285156 148.51878356933594 62.833045959472656 146.8956298828125 C 62.1455192565918 136.76998901367188 63.02708053588867 133.8824920654297 62.45869445800781 128.36639404296875 C 68.40354919433594 126.62802124023438 67.58373260498047 122.6635971069336 66.34239959716797 112.49833679199219 C 68.10411834716797 111.19090270996094 68.36557006835938 105.90095520019531 75.61710357666016 103.01912689208984 C 74.5329818725586 100.51678466796875 78.40994262695312 90.62724304199219 77.25607299804688 85.45433044433594 C 76.97029113769531 84.00027465820312 78.39079284667969 74.67497253417969 85.49569702148438 75.55122375488281 C 82.7462158203125 70.21161651611328 84.44245147705078 67.6495132446289 86.63076782226562 63.90419387817383" stroke-width="0.0" fill="url(#shape_3_fill)"/>
    <path d="M 674.2017211914062 -0.5255438089370728 C 676.0997924804688 47.84117889404297 675.0172119140625 95.90838623046875 679.2574462890625 140.45587158203125 C 674.6901245117188 130.2568817138672 667.4151611328125 125.09355926513672 661.5946044921875 120.36419677734375 C 660.9252319335938 119.98285675048828 655.1380615234375 109.36444854736328 649.6381225585938 110.91319274902344 C 648.6199951171875 112.51945495605469 644.9197387695312 149.0882568359375 642.5120239257812 154.95870971679688 C 630.4937744140625 154.4875030517578 627.0478515625 142.48257446289062 627.3344116210938 138.22044372558594 C 623.001220703125 137.36680603027344 618.8102416992188 145.30589294433594 615.4188232421875 143.9934539794922 C 611.6814575195312 142.3178253173828 610.1531982421875 143.3496856689453 607.7418212890625 141.110107421875 C 608.3379516601562 137.80882263183594 611.2496948242188 132.29541015625 606.8778686523438 120.8064193725586 C 598.044921875 133.4732666015625 597.473388671875 139.24691772460938 594.569091796875 142.9251708984375 C 598.968017578125 148.007080078125 597.5879516601562 151.5314178466797 597.4940185546875 152.74325561523438 C 588.3892211914062 157.00767517089844 587.0054931640625 163.91845703125 579.6137084960938 172.08412170410156 C 571.646484375 170.34107971191406 569.913818359375 159.07058715820312 568.9822998046875 157.3889923095703 C 566.098876953125 157.37802124023438 564.0040283203125 153.1255645751953 561.6091918945312 152.22994995117188 C 560.087646484375 150.69981384277344 556.0750732421875 150.9208221435547 555.4761352539062 156.2190704345703 C 551.9487915039062 156.24630737304688 550.3636474609375 158.9358367919922 548.92236328125 159.07127380371094 C 547.2557373046875 157.14085388183594 543.7653198242188 157.2698516845703 536.1187133789062 153.95166015625 C 531.7855834960938 154.8787384033203 529.9581909179688 158.5417022705078 523.8126220703125 157.40814208984375 C 518.3056640625 160.92633056640625 520.7792358398438 161.6970672607422 522.7874755859375 169.86013793945312 C 517.596923828125 168.33900451660156 516.2779541015625 170.69371032714844 516.41845703125 171.5489959716797 C 511.2713623046875 173.32232666015625 509.8157043457031 175.26531982421875 505.63299560546875 174.399169921875 C 502.8004455566406 171.38572692871094 502.9584655761719 169.5336456298828 501.8515625 159.98834228515625 C 493.5607604980469 145.8033905029297 507.8398742675781 122.0587387084961 518.6412963867188 126.28267669677734 C 523.6566772460938 125.17898559570312 539.0753173828125 110.5171127319336 548.7669067382812 112.99433135986328 C 557.0764770507812 110.70260620117188 557.0946655273438 109.3895263671875 556.7537231445312 106.39710235595703 C 560.021728515625 108.62715148925781 564.7637329101562 103.0071029663086 570.8258056640625 105.02429962158203 C 574.6061401367188 102.50553131103516 573.4149169921875 97.45437622070312 578.9338989257812 94.1677474975586 C 583.1063842773438 88.5768814086914 599.1832885742188 76.6618423461914 614.0155639648438 78.44790649414062 C 617.289794921875 73.89274597167969 645.7239990234375 52.43983840942383 644.6206665039062 35.43648147583008 C 644.97021484375 32.44365310668945 647.9937744140625 30.387493133544922 647.6610107421875 29.542015075683594 C 646.9544677734375 28.293949127197266 664.6517944335938 -3.7071948051452637 674.2017211914062 -0.5255438089370728" stroke-width="0.0" fill="url(#shape_4_fill)"/>
    <path d="M 151.6065673828125 68.5083999633789 C 152.31585693359375 69.02503967285156 186.27650451660156 84.1684341430664 192.7101593017578 92.76250457763672 C 179.15821838378906 117.2005386352539 217.72019958496094 150.0626678466797 220.8243408203125 154.95208740234375 C 238.90733337402344 170.03790283203125 241.95462036132812 184.0970916748047 240.81617736816406 193.8590087890625 C 238.1588592529297 193.19419860839844 236.18223571777344 186.42886352539062 236.76873779296875 184.05694580078125 C 235.67820739746094 183.5831298828125 234.1580047607422 184.2904052734375 231.08670043945312 182.72482299804688 C 231.07217407226562 183.9566192626953 232.1409454345703 193.56283569335938 228.61871337890625 195.66726684570312 C 227.56048583984375 196.63438415527344 226.8979034423828 205.15359497070312 221.42745971679688 207.71929931640625 C 215.07687377929688 206.595458984375 214.3252410888672 197.87608337402344 214.66651916503906 194.86558532714844 C 212.9606170654297 185.4358673095703 211.8980255126953 184.94168090820312 206.44619750976562 177.43434143066406 C 205.86572265625 173.0636749267578 205.8947296142578 165.06114196777344 203.451171875 158.4941864013672 C 207.01626586914062 153.36306762695312 194.84031677246094 144.72222900390625 193.3902130126953 141.18475341796875 C 189.0618133544922 140.25502014160156 188.77772521972656 137.66346740722656 186.47080993652344 136.1120147705078 C 178.5479278564453 133.01806640625 179.15631103515625 126.5755386352539 183.06448364257812 117.32379150390625 C 179.3903045654297 116.49629974365234 177.39862060546875 117.62098693847656 173.1129913330078 117.74179077148438 C 178.874755859375 127.83353424072266 175.2425079345703 131.43716430664062 151.6961669921875 130.24237060546875 C 149.804931640625 125.75049591064453 151.651123046875 103.17478942871094 153.69204711914062 95.64148712158203 C 152.86000061035156 88.94926452636719 153.46383666992188 86.02159881591797 149.9220428466797 76.33041381835938 C 148.32260131835938 75.92929077148438 148.95765686035156 69.33372497558594 151.6065673828125 68.5083999633789" stroke-width="0.0" fill="url(#shape_5_fill)"/>
    <path d="M 613.0963134765625 82.98123931884766 C 618.6011962890625 84.17545318603516 619.6283569335938 85.88478088378906 630.7398071289062 85.8382568359375 C 636.1452026367188 86.02555084228516 637.2379760742188 87.38126373291016 641.2443237304688 88.50028991699219 C 642.1484985351562 87.56900024414062 668.3596801757812 92.2718276977539 673.4863891601562 97.92061614990234 C 673.5807495117188 112.84300994873047 673.3990478515625 128.86865234375 674.385986328125 149.82078552246094 C 667.0023193359375 141.46731567382812 663.282470703125 136.15673828125 659.7900390625 129.7707061767578 C 659.1199340820312 122.26408386230469 659.7349853515625 116.4329833984375 652.2591552734375 111.41316986083984 C 647.7392578125 116.555908203125 645.0558471679688 142.3535919189453 642.2906494140625 143.15792846679688 C 643.5159912109375 145.050537109375 642.3963623046875 148.4679412841797 643.46435546875 150.42413330078125 C 639.9615478515625 151.36563110351562 637.9531860351562 152.78709411621094 635.2344970703125 151.58653259277344 C 631.3506469726562 146.6492156982422 629.1932373046875 141.39401245117188 630.1047973632812 140.52732849121094 C 628.8981323242188 138.10235595703125 622.592529296875 136.95362854003906 620.8864135742188 138.5966033935547 C 618.2266845703125 140.5553741455078 619.3111572265625 142.35842895507812 618.6998291015625 145.88597106933594 C 614.7271118164062 144.53639221191406 613.6853637695312 143.17193603515625 610.2940063476562 143.62481689453125 C 608.5491333007812 140.40541076660156 609.5997924804688 139.24404907226562 609.256103515625 137.4800262451172 C 606.5016479492188 132.4284210205078 604.7142944335938 126.59980773925781 597.530029296875 128.06600952148438 C 603.5972290039062 134.97549438476562 595.2797241210938 149.1253662109375 591.5265502929688 156.62167358398438 C 590.64208984375 163.89125061035156 589.3462524414062 164.14268493652344 586.01904296875 168.44322204589844 C 584.0424194335938 167.17117309570312 581.5173950195312 165.1209259033203 582.7603759765625 161.177001953125 C 578.0054931640625 159.24566650390625 575.5094604492188 156.93276977539062 574.5818481445312 153.2261505126953 C 565.1425170898438 155.6205596923828 556.3516235351562 155.42198181152344 556.1873779296875 151.3539581298828 C 555.853759765625 152.92547607421875 553.080078125 154.71104431152344 552.8883056640625 157.75633239746094 C 550.48486328125 161.54661560058594 547.9857177734375 160.75674438476562 547.34228515625 159.15126037597656 C 544.428466796875 157.0382080078125 543.0059204101562 155.1363067626953 536.8825073242188 157.79104614257812 C 534.9456176757812 158.50323486328125 531.0197143554688 157.1190185546875 528.5201416015625 158.23741149902344 C 526.0364379882812 159.2502899169922 526.3894653320312 162.57839965820312 525.2433471679688 165.74261474609375 C 524.5472412109375 169.45091247558594 523.5657958984375 171.57017517089844 519.0372314453125 173.09271240234375 C 511.667724609375 177.39866638183594 505.2214050292969 171.17269897460938 491.650634765625 165.86880493164062 C 487.68463134765625 141.1658935546875 503.77008056640625 120.23802947998047 513.0111083984375 118.63898468017578 C 529.9877319335938 126.9486083984375 539.4044189453125 108.51417541503906 550.8916015625 111.52698516845703 C 555.4425659179688 109.93011474609375 560.1640625 109.80232238769531 563.7822875976562 106.6916275024414 C 564.6305541992188 104.53746032714844 566.7796020507812 103.6467056274414 569.8253784179688 104.25570678710938 C 574.7225952148438 101.30017852783203 578.35205078125 97.12866973876953 585.00830078125 96.51323699951172 C 598.8602905273438 91.38068389892578 604.2443237304688 80.56016540527344 613.0963134765625 82.98123931884766" stroke-width="0.0" fill="url(#shape_6_fill)"/>
    <path d="M -0.1374104917049408 113.7913589477539 C 28.883119583129883 120.6603775024414 37.80339050292969 127.44998168945312 49.44765090942383 139.80917358398438 C 76.96639251708984 157.98960876464844 51.00480651855469 218.298828125 49.29123306274414 241.208984375 C 52.36761474609375 260.17816162109375 48.625396728515625 264.64208984375 48.41799545288086 265.9114685058594 C 39.06145095825195 266.9801330566406 12.444087982177734 263.08355712890625 6.416624069213867 260.7028503417969 C 4.113682746887207 211.73641967773438 -2.515329122543335 164.52352905273438 -0.1374104917049408 113.7913589477539" stroke-width="0.0" fill="url(#shape_7_fill)"/>
    <path d="M 387.5201416015625 188.8341827392578 C 415.5167236328125 175.9161834716797 425.7459716796875 191.0747833251953 430.1158142089844 203.7534942626953 C 473.72869873046875 191.23587036132812 495.7287292480469 205.84869384765625 491.71600341796875 232.47752380371094 C 490.9919128417969 250.4838104248047 486.1929626464844 251.48475646972656 484.839599609375 252.36436462402344 C 485.4479064941406 258.2599182128906 483.3867492675781 268.8976135253906 477.2740783691406 268.7397766113281 C 469.0430603027344 272.9302978515625 453.2210388183594 266.7112731933594 451.6224670410156 269.71063232421875 C 447.0148620605469 266.27899169921875 448.2143249511719 261.2024841308594 449.0047607421875 260.1719055175781 C 439.2472229003906 264.75531005859375 436.511474609375 261.3951110839844 437.4298095703125 256.8943786621094 C 426.4425964355469 256.5365905761719 425.9230041503906 258.1807556152344 421.2265930175781 262.23309326171875 C 418.5302734375 264.2529602050781 417.53167724609375 267.6180419921875 414.8978576660156 272.3621826171875 C 414.1012878417969 273.22100830078125 394.6038818359375 268.3921813964844 392.5902099609375 264.16387939453125 C 391.8253173828125 265.0975341796875 389.0176086425781 263.32391357421875 386.0288391113281 263.5550842285156 C 382.1157531738281 261.9432678222656 380.82177734375 263.1773376464844 376.5480651855469 261.03887939453125 C 374.95416259765625 256.31787109375 376.1627197265625 252.45053100585938 372.77166748046875 249.1866455078125 C 359.5585021972656 243.89044189453125 374.013427734375 195.81695556640625 378.2473449707031 179.7081756591797 C 383.26324462890625 170.74703979492188 394.0816955566406 176.8194580078125 387.5201416015625 188.8341827392578" stroke-width="0.0" fill="url(#shape_8_fill)"/>
    <path d="M 565.861328125 157.3965301513672 C 567.77783203125 159.13714599609375 568.9635009765625 167.04391479492188 568.9022827148438 167.28314208984375 C 573.539794921875 169.4490509033203 573.6765747070312 170.917236328125 577.6864013671875 174.27276611328125 C 581.931884765625 172.94320678710938 583.9734497070312 174.5652313232422 583.70703125 179.4731903076172 C 575.3404541015625 180.47747802734375 572.05419921875 225.61634826660156 577.2786865234375 226.9659423828125 C 577.8547973632812 229.99871826171875 581.2846069335938 235.656005859375 576.8268432617188 242.20921325683594 C 568.628662109375 238.81947326660156 566.3110961914062 237.2449951171875 558.5042724609375 247.0622100830078 C 554.2340087890625 250.79017639160156 493.2125244140625 253.82557678222656 488.8305358886719 251.91867065429688 C 485.9950866699219 248.97703552246094 486.66766357421875 238.83570861816406 491.3525085449219 229.4381866455078 C 486.4385681152344 226.2487030029297 483.187255859375 222.28306579589844 481.48193359375 215.827880859375 C 476.5914001464844 209.80276489257812 479.2115173339844 205.8073272705078 482.71112060546875 205.960693359375 C 479.9610900878906 205.31935119628906 481.25482177734375 198.72238159179688 487.5689697265625 198.71835327148438 C 491.8895263671875 196.15191650390625 491.83514404296875 192.49745178222656 492.9190979003906 187.84901428222656 C 490.8542785644531 174.04971313476562 491.2377014160156 173.0203399658203 489.4002990722656 164.5770263671875 C 504.115478515625 164.1691131591797 505.474609375 168.3866424560547 517.2184448242188 167.1400146484375 C 523.3373413085938 169.63641357421875 524.6000366210938 167.29559326171875 526.0430908203125 166.85812377929688 C 524.2848510742188 160.59251403808594 530.0081787109375 155.7671356201172 533.3593139648438 158.59689331054688 C 537.6392211914062 161.8372344970703 541.39453125 162.4568328857422 542.1959838867188 163.94696044921875 C 545.2466430664062 164.05213928222656 545.9371337890625 165.72845458984375 549.54150390625 166.4329376220703 C 548.8389282226562 165.62728881835938 551.1928100585938 157.3283233642578 554.7837524414062 157.8818359375 C 557.7630004882812 160.98538208007812 563.2427978515625 158.07786560058594 565.861328125 157.3965301513672" stroke-width="0.0" fill="url(#shape_9_fill)"/>
    <path d="M 561.5547485351562 156.4952850341797 C 566.9537963867188 153.0100555419922 570.90087890625 159.125 570.7276611328125 169.42408752441406 C 572.72314453125 169.74256896972656 576.6723022460938 168.72171020507812 579.02197265625 175.1652374267578 C 579.8497314453125 178.00645446777344 578.7246704101562 187.3629150390625 576.9296264648438 191.5359344482422 C 571.2700805664062 196.7980194091797 571.9849243164062 229.9724884033203 578.0745849609375 230.9768524169922 C 576.070068359375 231.159423828125 575.6058349609375 236.83465576171875 572.0296020507812 238.04469299316406 C 559.9449462890625 235.9467010498047 567.4409790039062 238.62098693847656 564.169189453125 248.70330810546875 C 551.5656127929688 253.07481384277344 501.28509521484375 249.14346313476562 500.18048095703125 251.5512237548828 C 491.12420654296875 251.79864501953125 487.9476623535156 236.85256958007812 490.9918518066406 229.6389923095703 C 486.62518310546875 224.92727661132812 481.9858703613281 219.27105712890625 481.5585632324219 215.86199951171875 C 475.65411376953125 214.10000610351562 474.910888671875 212.68768310546875 468.31219482421875 199.27757263183594 C 468.042236328125 193.5212860107422 475.4371032714844 189.6820831298828 481.18524169921875 196.34384155273438 C 489.9920349121094 196.26556396484375 494.38983154296875 184.16290283203125 496.6322021484375 182.95899963378906 C 495.89910888671875 179.450439453125 496.9913024902344 177.08538818359375 499.60589599609375 177.9846954345703 C 507.8226318359375 179.21136474609375 516.6138305664062 181.6269989013672 520.2648315429688 174.00045776367188 C 523.1376953125 173.29806518554688 526.4954223632812 159.16903686523438 531.7757568359375 156.8045196533203 C 537.7889404296875 156.48291015625 538.4490966796875 160.45164489746094 541.5908813476562 165.85562133789062 C 545.7169799804688 165.79197692871094 549.014892578125 167.1475830078125 551.2484741210938 165.48251342773438 C 551.135986328125 156.1014862060547 553.1796875 153.02960205078125 561.5547485351562 156.4952850341797" stroke-width="0.0" fill="url(#shape_10_fill)"/>
    <path d="M 449.0531311035156 107.61761474609375 C 452.9409484863281 109.59972381591797 454.0330810546875 111.85541534423828 460.8155822753906 112.83468627929688 C 463.80047607421875 116.83336639404297 469.6103820800781 116.2566909790039 475.469482421875 116.15419006347656 C 488.39471435546875 124.52803802490234 488.802978515625 125.2494888305664 493.3372802734375 129.58169555664062 C 493.8124084472656 131.62155151367188 493.1407165527344 134.80471801757812 496.85626220703125 136.26353454589844 C 494.4851989746094 135.07614135742188 492.1982421875 137.1791229248047 486.77337646484375 139.6395263671875 C 483.2012939453125 136.2989501953125 481.2297058105469 137.77037048339844 476.88543701171875 139.55288696289062 C 469.2223205566406 140.6929168701172 467.3451232910156 139.39620971679688 466.64703369140625 134.3835906982422 C 465.2641296386719 133.49441528320312 460.6582946777344 133.52943420410156 459.7965087890625 134.3687744140625 C 458.3348083496094 138.11355590820312 474.3082275390625 148.15679931640625 487.5716552734375 156.72879028320312 C 476.2165222167969 176.6342010498047 475.3712463378906 177.18263244628906 471.5223083496094 181.2399139404297 C 466.7759094238281 182.33013916015625 466.36273193359375 186.8899383544922 464.59912109375 188.89306640625 C 462.0828552246094 185.61395263671875 457.6291809082031 177.7053680419922 455.7073669433594 176.08242797851562 C 448.2698974609375 179.4011688232422 447.5082702636719 182.53916931152344 439.9020690917969 183.0843505859375 C 439.4932556152344 183.8653564453125 436.0006103515625 195.81214904785156 434.97454833984375 197.5406494140625 C 429.4044494628906 200.33836364746094 417.4732666015625 180.59278869628906 417.71124267578125 179.7330322265625 C 416.9537658691406 179.56858825683594 398.3685607910156 177.31259155273438 398.84124755859375 172.2575225830078 C 393.55224609375 170.29058837890625 390.26348876953125 176.4514617919922 380.061279296875 174.38058471679688 C 380.3008728027344 163.85617065429688 383.7344055175781 145.6746063232422 392.4590148925781 139.09671020507812 C 397.8939514160156 137.38690185546875 399.3912048339844 129.68777465820312 401.9082946777344 121.75592803955078 C 408.4300231933594 99.39698028564453 426.47686767578125 104.02847290039062 449.0531311035156 107.61761474609375" stroke-width="0.0" fill="url(#shape_11_fill)"/>
    <path d="M 602.930908203125 127.42573547363281 C 605.29150390625 131.83450317382812 605.7332763671875 143.85719299316406 608.1907958984375 144.5303955078125 C 611.6991577148438 144.90902709960938 611.8496704101562 148.2740020751953 615.3563232421875 152.2038116455078 C 618.201904296875 149.83270263671875 618.4691772460938 141.8753662109375 621.1610717773438 140.86717224121094 C 623.5343627929688 137.45738220214844 625.677978515625 137.34259033203125 628.0823364257812 140.2340087890625 C 627.6797485351562 142.13156127929688 629.207275390625 144.6746368408203 629.1419677734375 147.0759735107422 C 632.1250610351562 149.7491455078125 631.7920532226562 151.11705017089844 636.9467163085938 153.2223663330078 C 642.4777221679688 154.38514709472656 641.3125 160.38165283203125 644.909912109375 169.4180145263672 C 638.3492431640625 184.31588745117188 639.5386352539062 194.55599975585938 639.921142578125 206.52037048339844 C 642.4205322265625 218.99642944335938 646.4700317382812 232.14572143554688 642.8764038085938 245.67617797851562 C 623.3350830078125 248.5319061279297 610.900146484375 248.96705627441406 578.25732421875 257.4986877441406 C 571.3065185546875 246.35691833496094 572.5745239257812 232.2928466796875 573.06640625 219.35171508789062 C 568.2171020507812 209.79067993164062 572.384765625 168.9409942626953 583.231689453125 169.80026245117188 C 597.3754272460938 163.2831573486328 599.246337890625 144.1004638671875 599.6885986328125 141.90213012695312 C 595.7584838867188 139.325439453125 596.9453735351562 136.7052459716797 602.930908203125 127.42573547363281" stroke-width="0.0" fill="url(#shape_12_fill)"/>
    <path d="M 409.66644287109375 176.5071258544922 C 420.6956481933594 173.63250732421875 432.54583740234375 212.73484802246094 428.0040588378906 220.2792205810547 C 420.0038757324219 228.62908935546875 426.3564147949219 238.43289184570312 428.7718811035156 245.15382385253906 C 430.7384033203125 262.703369140625 420.8785095214844 265.87261962890625 416.9295959472656 268.1239929199219 C 401.5411682128906 268.18145751953125 397.0649719238281 270.1424865722656 389.9276123046875 268.005615234375 C 385.49127197265625 264.5849914550781 382.5015869140625 265.7391357421875 380.1875 265.5543518066406 C 375.70684814453125 262.8423156738281 375.7684020996094 260.4100341796875 375.22186279296875 258.3621826171875 C 376.3325500488281 255.3881378173828 375.4659423828125 253.99191284179688 374.5429992675781 253.38717651367188 C 372.75341796875 254.18209838867188 370.42681884765625 250.72972106933594 368.89508056640625 251.7154998779297 C 359.9326477050781 247.5276641845703 366.1539306640625 228.6181640625 367.8865661621094 221.16363525390625 C 368.9787902832031 218.88832092285156 372.5579528808594 202.90396118164062 380.96099853515625 203.23526000976562 C 379.5206298828125 200.40623474121094 380.59710693359375 186.56927490234375 389.1177673339844 184.15374755859375 C 391.6802978515625 176.6255340576172 392.85205078125 176.64584350585938 409.66644287109375 176.5071258544922" stroke-width="0.0" fill="url(#shape_13_fill)"/>
    <path d="M 509.22320556640625 66.85012817382812 C 512.6484985351562 66.11622619628906 521.44775390625 70.05467224121094 523.2535400390625 74.74911499023438 C 530.7144165039062 79.42171478271484 533.6884155273438 80.0081558227539 536.7406005859375 90.10645294189453 C 539.31494140625 90.87977600097656 544.5418701171875 90.30874633789062 545.0235595703125 91.16975402832031 C 545.5333862304688 92.75741577148438 556.011962890625 97.09947204589844 561.6190795898438 94.71871185302734 C 563.6998291015625 97.4642562866211 567.3497924804688 97.5008544921875 568.7320556640625 99.13715362548828 C 564.6090087890625 105.0284194946289 555.418701171875 115.63658905029297 544.05712890625 110.8368148803711 C 541.4561157226562 111.88168334960938 539.3126220703125 114.91741943359375 534.7909545898438 118.33074951171875 C 527.8472900390625 120.36631774902344 519.85107421875 124.40998077392578 515.6021728515625 118.85840606689453 C 510.67498779296875 119.61549377441406 501.4414978027344 125.44886016845703 499.04510498046875 125.04158782958984 C 497.0894470214844 128.39712524414062 493.6776123046875 128.3498992919922 489.47808837890625 127.58016204833984 C 489.47515869140625 122.59322357177734 468.7996520996094 118.95909881591797 468.0756530761719 117.97175598144531 C 463.3047790527344 117.74564361572266 463.1081237792969 116.44296264648438 462.56646728515625 116.47982788085938 C 468.5207824707031 115.58369445800781 471.21881103515625 109.52662658691406 477.9067077636719 104.5221176147461 C 476.0979309082031 90.89661407470703 473.6988830566406 87.29898834228516 475.3969421386719 82.15287017822266 C 474.5901184082031 70.93414306640625 475.34326171875 70.3868408203125 478.59857177734375 66.54410552978516 C 479.01519775390625 64.23242950439453 482.7345275878906 64.34210205078125 484.73626708984375 63.559486389160156 C 494.56829833984375 63.5842399597168 501.64044189453125 61.64500427246094 509.22320556640625 66.85012817382812" stroke-width="0.0" fill="url(#shape_14_fill)"/>
    <path d="M 532.31591796875 159.87057495117188 C 543.8179931640625 162.83921813964844 544.0818481445312 163.79161071777344 547.1083374023438 165.18682861328125 C 549.6554565429688 167.66232299804688 549.584228515625 170.2982177734375 543.785400390625 180.31495666503906 C 541.9860229492188 189.7669677734375 536.797119140625 231.1048126220703 536.3626708984375 233.46942138671875 C 540.5814208984375 237.0789031982422 540.8738403320312 250.33531188964844 515.4249267578125 252.23704528808594 C 501.8149108886719 251.33380126953125 483.3166809082031 245.19577026367188 487.9395446777344 230.40133666992188 C 477.1066589355469 218.17819213867188 478.6960144042969 207.60781860351562 482.87548828125 200.60987854003906 C 486.8077697753906 197.44241333007812 488.5396423339844 197.5692138671875 489.0710144042969 197.75958251953125 C 484.3781433105469 193.10162353515625 488.22479248046875 179.6111602783203 487.9002990722656 172.7705535888672 C 486.5197448730469 168.79222106933594 488.592041015625 166.109619140625 492.57879638671875 167.36204528808594 C 505.62677001953125 178.81222534179688 511.2083740234375 184.15333557128906 522.720947265625 172.70147705078125 C 525.5498046875 170.95858764648438 525.539306640625 167.30645751953125 526.9598999023438 165.0953369140625 C 527.218017578125 160.7061309814453 529.4937744140625 158.7454376220703 532.31591796875 159.87057495117188" stroke-width="0.0" fill="url(#shape_15_fill)"/>
    <path d="M 652.0881958007812 110.27357482910156 C 653.9326171875 110.45443725585938 662.9652709960938 122.03777313232422 660.4107666015625 129.75018310546875 C 664.8340454101562 134.53897094726562 665.1234130859375 141.58804321289062 673.390625 148.23504638671875 C 676.58837890625 179.1165008544922 673.4389038085938 211.7274932861328 674.3014526367188 258.0555419921875 C 673.1329345703125 256.0357360839844 646.0326538085938 263.3698425292969 637.2950439453125 253.6925506591797 C 636.4252319335938 245.4900665283203 641.0881958007812 123.67744445800781 652.0881958007812 110.27357482910156" stroke-width="0.0" fill="url(#shape_16_fill)"/>
    <path d="M 600.93994140625 130.03038024902344 C 602.9300537109375 128.0892791748047 607.1602783203125 132.16468811035156 606.4066772460938 133.9805450439453 C 608.1091918945312 135.0685272216797 607.6961059570312 140.06297302246094 609.42822265625 142.8291473388672 C 625.894287109375 143.18821716308594 627.1587524414062 224.06739807128906 626.4931640625 255.3951873779297 C 594.6402587890625 260.09490966796875 578.04541015625 252.21121215820312 579.9240112304688 236.12924194335938 C 564.5032958984375 227.332275390625 597.3834228515625 154.14010620117188 600.93994140625 130.03038024902344" stroke-width="0.0" fill="url(#shape_17_fill)"/>
    <path d="M 320.79998779296875 186.3202667236328 C 321.0362243652344 186.49465942382812 322.9136047363281 189.43690490722656 321.9814758300781 196.86338806152344 C 333.3636169433594 193.33349609375 336.02996826171875 191.79336547851562 338.17938232421875 194.59828186035156 C 341.35418701171875 199.204345703125 346.4413757324219 197.52345275878906 353.731201171875 195.7284393310547 C 357.708984375 194.6827392578125 358.4704284667969 196.71253967285156 357.52056884765625 201.42742919921875 C 359.482177734375 204.00747680664062 361.5417785644531 204.20179748535156 362.4899597167969 207.9913787841797 C 367.2497863769531 207.05795288085938 368.48126220703125 208.2326202392578 368.2051086425781 211.84059143066406 C 370.16412353515625 220.3391571044922 370.9413146972656 222.60018920898438 365.9292907714844 225.37387084960938 C 366.6951904296875 231.53518676757812 365.100341796875 235.70310974121094 367.53778076171875 248.8448028564453 C 368.855224609375 251.72598266601562 366.28076171875 256.2682800292969 357.97430419921875 254.7484130859375 C 353.7402648925781 255.43698120117188 330.3743591308594 254.9869384765625 322.0960998535156 255.33116149902344 C 313.4125061035156 255.99713134765625 312.19378662109375 253.52615356445312 307.95770263671875 242.28005981445312 C 304.6014404296875 230.14523315429688 320.77545166015625 194.12367248535156 320.79998779296875 186.3202667236328" stroke-width="0.0" fill="url(#shape_18_fill)"/>
    <path d="M 479.0977478027344 216.2351837158203 C 493.57574462890625 247.4136505126953 504.1833801269531 257.6168212890625 487.0609130859375 276.2584228515625 C 470.7642517089844 279.1602478027344 444.0074768066406 261.4096984863281 442.1366271972656 261.7062072753906 C 438.6328125 260.6465148925781 437.1312561035156 258.2422180175781 432.5368957519531 258.0879821777344 C 429.6692199707031 258.1480407714844 427.64971923828125 257.5099182128906 428.4115295410156 254.08990478515625 C 428.5081787109375 239.22633361816406 421.68609619140625 232.3141326904297 422.85546875 229.41717529296875 C 423.33819580078125 227.6126708984375 421.3258361816406 226.5915069580078 420.0139465332031 225.70700073242188 C 427.7209167480469 219.50881958007812 429.6880187988281 218.806640625 429.1487731933594 215.42811584472656 C 438.56719970703125 195.35763549804688 471.1888732910156 198.8766632080078 479.0977478027344 216.2351837158203" stroke-width="0.0" fill="url(#shape_19_fill)"/>
    <path d="M 673.9281616210938 -2.914039373397827 C 675.0543823242188 32.860992431640625 674.5826416015625 64.76441955566406 674.349853515625 97.33149719238281 C 669.7838134765625 96.11788940429688 651.9943237304688 87.3446273803711 643.682373046875 90.06112670898438 C 638.6461791992188 89.55198669433594 638.179443359375 85.88900756835938 637.6180419921875 84.51863098144531 C 626.0035400390625 84.46284484863281 619.3106079101562 92.92657470703125 608.5732421875 86.53382110595703 C 609.5298461914062 74.93064880371094 612.9722290039062 73.73963165283203 615.1536254882812 72.02851867675781 C 622.5358276367188 68.954345703125 649.09765625 25.352462768554688 648.45947265625 22.447139739990234 C 655.8967895507812 12.203583717346191 656.32421875 3.7429821491241455 668.1466674804688 4.021617412567139 C 669.7990112304688 2.670433282852173 670.1680908203125 1.1316345930099487 673.9281616210938 -2.914039373397827" stroke-width="0.0" fill="url(#shape_20_fill)"/>
    <path d="M 562.322998046875 155.98837280273438 C 569.83447265625 156.57395935058594 569.8385009765625 162.37637329101562 574.5043334960938 165.18280029296875 C 585.5009765625 168.2869873046875 575.7698364257812 231.25218200683594 577.5114135742188 240.82737731933594 C 575.6727294921875 244.66696166992188 572.6661987304688 246.76246643066406 572.737060546875 253.7523193359375 C 559.064453125 251.04586791992188 543.0537719726562 251.35626220703125 540.037841796875 246.2519073486328 C 544.318603515625 244.71080017089844 540.4412841796875 164.72618103027344 555.2094116210938 157.83912658691406 C 555.355224609375 153.286865234375 558.6467895507812 153.0353546142578 562.322998046875 155.98837280273438" stroke-width="0.0" fill="url(#shape_21_fill)"/>
    <path d="M 214.79495239257812 209.30311584472656 C 232.31179809570312 209.88169860839844 232.09814453125 243.05335998535156 219.8672637939453 255.7568817138672 C 211.8036346435547 263.28399658203125 209.9126739501953 264.63214111328125 208.6253204345703 273.44140625 C 205.85391235351562 275.3658447265625 206.77523803710938 277.0135803222656 207.24151611328125 279.8772888183594 C 207.00497436523438 283.16278076171875 204.00454711914062 285.35589599609375 200.3314666748047 284.8992004394531 C 200.15673828125 283.4734802246094 190.8380889892578 272.6567687988281 187.8800811767578 265.1738586425781 C 186.57383728027344 261.45458984375 183.78158569335938 262.1486511230469 181.52342224121094 261.864501953125 C 180.71884155273438 260.7066955566406 179.88113403320312 260.536376953125 178.71441650390625 254.31637573242188 C 180.20701599121094 248.61697387695312 169.22837829589844 243.11126708984375 170.8134307861328 237.95574951171875 C 175.72047424316406 213.33351135253906 177.73704528808594 213.32606506347656 185.75018310546875 220.7259979248047 C 193.9456329345703 219.03379821777344 194.299072265625 215.47640991210938 198.0652618408203 213.7250518798828 C 188.72518920898438 206.56295776367188 188.52053833007812 201.9478759765625 197.04165649414062 197.6763916015625 C 213.7643280029297 198.176513671875 214.8317413330078 200.70526123046875 214.79495239257812 209.30311584472656" stroke-width="0.0" fill="url(#shape_22_fill)"/>
    <path d="M 111.54479217529297 426.39105224609375 C 112.7233657836914 429.2767639160156 110.99690246582031 431.1863708496094 110.66795349121094 431.6318054199219 C 104.87574005126953 432.9930114746094 102.73883819580078 433.76171875 91.86152648925781 432.9730529785156 C 89.75955200195312 435.9652099609375 95.68468475341797 446.421630859375 91.63416290283203 452.1399841308594 C 78.66380310058594 444.9972229003906 46.938175201416016 447.9271240234375 24.974199295043945 449.646240234375 C 14.006665229797363 446.2720642089844 13.875511169433594 439.779296875 17.745115280151367 436.416748046875 C 34.15669250488281 427.7092590332031 50.64592361450195 427.0133056640625 70.4816665649414 427.0711364746094 C 74.92870330810547 425.2864990234375 109.28033447265625 419.279541015625 111.54479217529297 426.39105224609375" stroke-width="0.0" fill="url(#shape_23_fill)"/>
    <path d="M 194.52378845214844 122.88434600830078 C 199.4142608642578 125.02528381347656 209.8468475341797 144.80722045898438 214.36331176757812 145.03897094726562 C 215.5548553466797 148.1410675048828 218.50198364257812 149.73277282714844 220.1409149169922 153.52455139160156 C 227.02081298828125 158.4004669189453 248.5835418701172 178.6864776611328 244.59158325195312 199.5389404296875 C 239.18521118164062 199.54122924804688 235.54315185546875 187.08843994140625 232.7904815673828 180.43655395507812 C 234.11004638671875 185.875244140625 233.7611541748047 196.1105499267578 231.4649200439453 196.59249877929688 C 225.6568603515625 199.6067657470703 225.05918884277344 201.9917449951172 220.431396484375 208.58485412597656 C 215.19332885742188 207.65396118164062 213.6556854248047 199.44284057617188 214.08224487304688 196.01824951171875 C 212.6717071533203 189.61929321289062 212.5845184326172 183.05320739746094 206.85299682617188 178.27243041992188 C 203.9879913330078 174.0263214111328 205.07940673828125 173.0325164794922 205.51461791992188 167.90895080566406 C 202.43746948242188 148.23797607421875 200.68112182617188 147.97726440429688 192.75892639160156 144.21192932128906 C 189.18479919433594 142.27967834472656 191.0300750732422 128.28091430664062 194.52378845214844 122.88434600830078" stroke-width="0.0" fill="url(#shape_24_fill)"/>
    <path d="M 595.806640625 410.9231872558594 C 598.2526245117188 411.8816223144531 626.3380126953125 409.1565856933594 628.1318359375 415.9067077636719 C 628.126953125 421.02606201171875 626.8706665039062 425.1105651855469 628.9277954101562 426.66180419921875 C 630.8519287109375 428.75653076171875 635.5039672851562 428.04803466796875 637.893310546875 437.7159118652344 C 617.3094482421875 446.754150390625 577.4639892578125 439.8589172363281 574.2592163085938 433.8412780761719 C 568.1809692382812 425.719482421875 574.355712890625 419.36700439453125 576.3439331054688 414.0451965332031 C 579.7536010742188 409.3085632324219 587.1233520507812 412.5149841308594 595.806640625 410.9231872558594" stroke-width="0.0" fill="url(#shape_25_fill)"/>
    <path d="M 142.91246032714844 66.70384216308594 C 144.0811309814453 68.92704772949219 149.16944885253906 68.33731842041016 149.62930297851562 69.13986206054688 C 148.905517578125 70.9012451171875 150.4604034423828 71.82589721679688 149.7656707763672 73.86560821533203 C 151.05014038085938 74.45196533203125 150.2703399658203 78.33531188964844 150.79551696777344 81.41207122802734 C 152.1655731201172 89.44271087646484 152.62289428710938 97.80496978759766 153.9397735595703 104.1014404296875 C 153.5201873779297 107.62052917480469 155.10336303710938 108.52238464355469 155.15316772460938 111.44908905029297 C 158.1992950439453 123.40789031982422 155.37615966796875 133.51171875 150.36520385742188 133.5853729248047 C 142.94866943359375 126.95545959472656 137.10037231445312 120.41217041015625 125.6427001953125 117.29608917236328 C 122.50602722167969 114.29338836669922 124.58079528808594 109.68197631835938 126.85136413574219 107.07535552978516 C 128.82867431640625 106.85211181640625 128.8762969970703 105.28211212158203 132.6449737548828 104.68255615234375 C 138.973876953125 96.46422576904297 134.9029083251953 93.10478210449219 133.34671020507812 90.1025161743164 C 134.21568298339844 88.91468048095703 139.28515625 87.1777114868164 140.04994201660156 85.31368255615234 C 138.1179656982422 84.74909210205078 138.7557830810547 77.64586639404297 139.5089569091797 77.47850036621094 C 143.55064392089844 76.59660339355469 142.65223693847656 70.31591033935547 142.91246032714844 66.70384216308594" stroke-width="0.0" fill="url(#shape_26_fill)"/>
    <path d="M 142.18832397460938 68.033935546875 C 149.3890838623047 67.18226623535156 149.50967407226562 68.24464416503906 148.7531280517578 76.2855453491211 C 151.03001403808594 77.66156768798828 151.3218994140625 80.31468200683594 153.87432861328125 84.55835723876953 C 150.67701721191406 91.01409149169922 154.0820770263672 93.84943389892578 151.85293579101562 104.5214614868164 C 153.36915588378906 105.59003448486328 153.28060913085938 109.32247161865234 155.46279907226562 112.91522216796875 C 152.88113403320312 117.32032775878906 158.03111267089844 122.21549987792969 154.5506134033203 125.86077117919922 C 152.6359100341797 132.042236328125 151.34886169433594 133.1738739013672 147.45877075195312 133.66415405273438 C 141.301513671875 132.2441864013672 128.53948974609375 120.70026397705078 129.3780517578125 118.34027862548828 C 124.7482681274414 118.80723571777344 122.23855590820312 114.22712707519531 128.2427215576172 110.41576385498047 C 123.5027847290039 108.59607696533203 124.27693176269531 105.81536865234375 133.33750915527344 106.9014663696289 C 136.42987060546875 105.62720489501953 134.0730438232422 92.97132110595703 133.7222442626953 89.54857635498047 C 139.51846313476562 87.53691864013672 138.7179718017578 84.71528625488281 138.46878051757812 81.6590347290039 C 139.0783233642578 77.50562286376953 140.36495971679688 76.79261779785156 141.87672424316406 77.08977508544922 C 145.39129638671875 73.15799713134766 142.93531799316406 69.841064453125 142.18832397460938 68.033935546875" stroke-width="0.0" fill="url(#shape_27_fill)"/>
    <path d="M -0.31565630435943604 -0.27045905590057373 C 4.698338031768799 0.3805946111679077 9.644661903381348 -0.5249371528625488 19.523618698120117 -0.7754440903663635 C 23.308761596679688 -0.03889245167374611 23.505434036254883 3.4026050567626953 39.58625030517578 10.94870662689209 C 35.736785888671875 25.41014862060547 28.04093360900879 26.10014533996582 27.111263275146484 23.200103759765625 C 41.386810302734375 23.551753997802734 48.688987731933594 24.183395385742188 50.22614669799805 43.716346740722656 C 36.67714309692383 46.00163269042969 31.213956832885742 46.19022750854492 24.162097930908203 43.20234298706055 C 18.330827713012695 38.399986267089844 11.431476593017578 37.85895538330078 10.509495735168457 34.11935043334961 C 9.452075958251953 35.50510025024414 13.713706970214844 39.75300598144531 14.630697250366211 41.44750213623047 C 15.567359924316406 41.9305305480957 14.776727676391602 44.199806213378906 18.13242530822754 47.898685455322266 C 20.06586456298828 51.072601318359375 18.752836227416992 52.30918502807617 20.411449432373047 57.10825729370117 C 20.56479263305664 63.16432189941406 14.202462196350098 65.13147735595703 8.788005828857422 61.28061294555664 C 5.496324062347412 60.88481140136719 3.5340261459350586 59.14134979248047 0.32492733001708984 59.43367004394531 C -0.3176276981830597 39.7786750793457 -0.32486429810523987 19.628337860107422 -0.31565630435943604 -0.27045905590057373" stroke-width="0.0" fill="url(#shape_28_fill)"/>
    <path d="M 299.4320068359375 197.37200927734375 C 297.56683349609375 199.22547912597656 299.98870849609375 202.15574645996094 301.5014343261719 207.88241577148438 C 299.2645263671875 212.2419891357422 322.4114074707031 228.99989318847656 315.4159851074219 255.53717041015625 C 311.7636413574219 254.1558380126953 310.4918212890625 255.30575561523438 305.6192321777344 254.97569274902344 C 301.5968322753906 258.1351318359375 295.5440368652344 258.05352783203125 281.0502624511719 256.31219482421875 C 280.38653564453125 230.07887268066406 285.5862731933594 216.7953338623047 299.4320068359375 197.37200927734375" stroke-width="0.0" fill="url(#shape_29_fill)"/>
    <path d="M -0.014041097834706306 0.03273371234536171 C 4.464986324310303 0.4474045932292938 9.598185539245605 -0.41474640369415283 14.559652328491211 0.1309414803981781 C 15.737879753112793 0.49379077553749084 16.203815460205078 5.230926990509033 16.20705795288086 8.051279067993164 C 18.928382873535156 10.815983772277832 22.028106689453125 18.879444122314453 26.95321273803711 20.786720275878906 C 27.11562728881836 22.489425659179688 24.545446395874023 26.834081649780273 24.507097244262695 31.69864845275879 C 20.386646270751953 32.20079803466797 14.636823654174805 30.94691276550293 7.289196968078613 34.035011291503906 C 9.110634803771973 35.87071228027344 8.802617073059082 38.70500183105469 10.842352867126465 40.4728889465332 C 9.984674453735352 44.85177230834961 7.730453968048096 51.04688262939453 11.517781257629395 53.91823196411133 C 17.71003532409668 51.49990463256836 19.53457260131836 52.0141487121582 18.308979034423828 58.158729553222656 C 11.043630599975586 60.154144287109375 9.670601844787598 62.85193634033203 0.2157154083251953 61.4781494140625 C -0.4168572723865509 39.95958709716797 -0.35441648960113525 19.75423240661621 -0.014041097834706306 0.03273371234536171" stroke-width="0.0" fill="url(#shape_30_fill)"/>
    <path d="M 546.9169921875 70.526611328125 C 545.8453369140625 76.71028137207031 577.0022583007812 89.25016784667969 581.5358276367188 91.48535919189453 C 580.7652587890625 92.44385528564453 577.208984375 93.2557601928711 576.8515014648438 98.19876098632812 C 573.2562255859375 100.75784301757812 572.0817260742188 99.9662857055664 569.2425537109375 99.9610366821289 C 567.2425537109375 95.76563262939453 544.5293579101562 96.13314056396484 538.5669555664062 88.45477294921875 C 538.5914916992188 85.45721435546875 537.5925903320312 83.26116943359375 535.6399536132812 82.48455047607422 C 534.7701416015625 79.59648895263672 528.6249389648438 79.63465881347656 527.0275268554688 78.3552474975586 C 525.3206176757812 75.78669738769531 527.7788696289062 70.88571166992188 532.6870727539062 69.23760986328125 C 536.8544311523438 67.52039337158203 540.4861450195312 70.6366195678711 546.9169921875 70.526611328125" stroke-width="0.0" fill="url(#shape_31_fill)"/>
    <path d="M 447.8887023925781 264.1819152832031 C 450.6854248046875 265.2566223144531 451.3105163574219 266.7133483886719 455.9530944824219 267.6879577636719 C 460.5113830566406 267.6551208496094 465.32232666015625 270.3759765625 469.91900634765625 273.2218322753906 C 470.4347839355469 275.63031005859375 471.82568359375 276.8924865722656 471.6768798828125 280.7628173828125 C 450.45391845703125 289.0288391113281 428.80645751953125 285.49609375 415.84075927734375 284.59771728515625 C 413.3944396972656 273.9136962890625 415.2043151855469 272.34765625 415.6756286621094 268.23846435546875 C 418.1906433105469 267.2078552246094 417.77789306640625 264.8067626953125 419.350830078125 263.0828552246094 C 432.1067199707031 253.56607055664062 444.30657958984375 255.61297607421875 447.8887023925781 264.1819152832031" stroke-width="0.0" fill="url(#shape_32_fill)"/>
    <path d="M 271.4392395019531 192.3228759765625 C 277.4827880859375 191.7169189453125 285.27947998046875 243.64761352539062 280.67767333984375 244.62196350097656 C 279.19012451171875 247.2139434814453 273.82928466796875 246.91139221191406 269.8943786621094 248.46884155273438 C 266.4355773925781 245.89955139160156 266.78533935546875 242.00909423828125 261.16912841796875 240.78848266601562 C 254.37818908691406 211.0037078857422 262.41021728515625 206.96070861816406 271.4392395019531 192.3228759765625" stroke-width="0.0" fill="url(#shape_33_fill)"/>
    <path d="M 259.1605224609375 418.8641662597656 C 259.6443786621094 423.8985290527344 265.8083801269531 429.7629699707031 267.42633056640625 440.0870056152344 C 262.1878356933594 442.1727600097656 261.0733642578125 446.572021484375 254.2069854736328 447.7856750488281 C 246.25807189941406 445.7027893066406 219.33248901367188 447.9289245605469 212.58929443359375 444.6603088378906 C 213.02471923828125 436.99578857421875 213.95974731445312 436.2222900390625 215.91748046875 434.4591979980469 C 216.15927124023438 433.4010925292969 225.00912475585938 433.3982238769531 226.6076202392578 430.278564453125 C 228.51211547851562 419.888427734375 239.73968505859375 420.8693542480469 259.1605224609375 418.8641662597656" stroke-width="0.0" fill="url(#shape_34_fill)"/>
    <path d="M 106.18085479736328 69.87083435058594 C 109.43228149414062 69.92437744140625 111.85939025878906 78.82166290283203 111.96832275390625 83.56671905517578 C 117.06517028808594 85.12126922607422 117.40428924560547 110.2773666381836 117.7362060546875 110.86265563964844 C 116.85935974121094 112.79207611083984 111.88996887207031 114.513671875 107.07571411132812 122.69815063476562 C 104.80760192871094 117.19328308105469 96.54254913330078 118.80591583251953 91.31529998779297 112.6317367553711 C 89.6081771850586 85.45431518554688 104.49591064453125 84.39851379394531 106.18085479736328 69.87083435058594" stroke-width="0.0" fill="url(#shape_35_fill)"/>
    <path d="M 451.53692626953125 178.57041931152344 C 453.38275146484375 176.37107849121094 456.48602294921875 177.60523986816406 455.9308776855469 180.173095703125 C 456.59735107421875 180.5351104736328 456.36956787109375 184.92315673828125 457.0949401855469 185.93878173828125 C 455.4986877441406 188.45326232910156 458.6878662109375 194.2195587158203 460.0763244628906 205.14602661132812 C 459.391845703125 208.4827880859375 452.2548522949219 209.26304626464844 445.5630187988281 204.59336853027344 C 441.83392333984375 207.2960205078125 440.6105651855469 208.9550018310547 433.2234191894531 210.97744750976562 C 434.15740966796875 209.91213989257812 437.4577331542969 189.41961669921875 439.0743103027344 180.48541259765625 C 440.3703308105469 180.0050048828125 444.1487731933594 181.03741455078125 446.5035095214844 180.56166076660156 C 447.73236083984375 179.26644897460938 450.0805969238281 179.51104736328125 451.53692626953125 178.57041931152344" stroke-width="0.0" fill="url(#shape_36_fill)"/>
    <path d="M 558.3426513671875 84.91704559326172 C 563.2286987304688 80.78353881835938 578.6019287109375 82.2667465209961 580.1796264648438 85.76761627197266 C 581.5234985351562 83.90785217285156 586.435791015625 85.36079406738281 587.0062866210938 88.8543701171875 C 595.0396118164062 97.2988052368164 586.5618896484375 105.57450103759766 574.388671875 100.18421936035156 C 573.7915649414062 99.38661193847656 551.91357421875 95.19452667236328 542.5496826171875 85.52802276611328 C 538.6138305664062 85.33980560302734 537.8070068359375 81.49861907958984 536.271728515625 80.6343002319336 C 543.3750610351562 74.5760498046875 547.3720703125 78.89720916748047 558.3426513671875 84.91704559326172" stroke-width="0.0" fill="url(#shape_37_fill)"/>
    <path d="M 252.52809143066406 208.32147216796875 C 264.8863830566406 210.62240600585938 261.59326171875 241.93870544433594 260.54864501953125 247.9086151123047 C 258.9314270019531 254.5326385498047 250.7596893310547 254.26454162597656 248.4475860595703 257.7216491699219 C 234.25949096679688 237.51504516601562 240.44790649414062 212.91885375976562 252.52809143066406 208.32147216796875" stroke-width="0.0" fill="url(#shape_38_fill)"/>
    <path d="M 443.3477478027344 263.5707092285156 C 445.9615173339844 263.4862365722656 449.12396240234375 266.60247802734375 447.69921875 270.05206298828125 C 444.1759948730469 270.34222412109375 442.6018371582031 277.02813720703125 441.1136169433594 279.54150390625 C 439.9530029296875 285.5638122558594 423.7545166015625 284.43682861328125 418.5325012207031 275.8263244628906 C 414.8469543457031 276.7404479980469 413.04205322265625 273.9278259277344 415.89300537109375 271.71282958984375 C 415.141357421875 269.9435729980469 419.226806640625 262.2419128417969 425.92327880859375 258.1731872558594 C 427.516357421875 256.0524597167969 437.60400390625 258.02093505859375 443.3477478027344 263.5707092285156" stroke-width="0.0" fill="url(#shape_39_fill)"/>
    <path d="M 407.7396240234375 409.77459716796875 C 408.68707275390625 409.88128662109375 416.7831726074219 419.0286560058594 413.6197814941406 424.1823425292969 C 400.8069152832031 436.1335144042969 384.9552001953125 420.295166015625 376.70416259765625 420.7834167480469 C 370.9133605957031 417.9278564453125 371.37384033203125 416.5882263183594 372.60943603515625 410.5568542480469 C 375.11029052734375 401.2283935546875 395.5008850097656 403.4719543457031 407.7396240234375 409.77459716796875" stroke-width="0.0" fill="url(#shape_40_fill)"/>
    <path d="M 66.44937133789062 427.5888366699219 C 67.43109893798828 429.1419982910156 64.95435333251953 434.94866943359375 58.713134765625 435.96380615234375 C 58.24346160888672 437.0306701660156 40.27400588989258 436.60003662109375 31.69192123413086 442.724853515625 C 28.99895668029785 442.7568664550781 26.461322784423828 444.2285461425781 17.182546615600586 443.3182678222656 C 16.451181411743164 440.64794921875 17.74762725830078 439.2048645019531 17.199678421020508 437.9049072265625 C 34.247657775878906 427.5315246582031 55.20216369628906 427.6978454589844 66.44937133789062 427.5888366699219" stroke-width="0.0" fill="url(#shape_41_fill)"/>
    <path d="M 278.5983581542969 381.0119323730469 C 284.6793212890625 381.19061279296875 297.91461181640625 381.21429443359375 302.9169921875 384.9085998535156 C 297.3590087890625 394.95794677734375 299.3238525390625 400.8545837402344 294.3669738769531 404.8456115722656 C 291.732177734375 399.51470947265625 265.17913818359375 404.7439270019531 258.3294677734375 405.90081787109375 C 249.94667053222656 404.191162109375 247.9445037841797 393.50897216796875 250.67591857910156 382.4827880859375 C 260.9107971191406 381.2822265625 267.539794921875 382.3666076660156 278.5983581542969 381.0119323730469" stroke-width="0.0" fill="url(#shape_42_fill)"/>
    <path d="M 222.8933563232422 216.1654510498047 C 223.69253540039062 214.80209350585938 234.2457275390625 214.38735961914062 240.40748596191406 216.1828155517578 C 241.8166961669922 221.6058349609375 247.65797424316406 240.39892578125 247.91050720214844 264.7620544433594 C 246.43426513671875 270.5500183105469 238.8902130126953 270.97796630859375 211.69097900390625 270.90618896484375 C 208.07656860351562 266.04608154296875 207.64837646484375 259.94439697265625 217.2231903076172 247.98129272460938 C 219.44407653808594 246.47384643554688 218.02366638183594 226.42164611816406 222.8933563232422 216.1654510498047" stroke-width="0.0" fill="url(#shape_43_fill)"/>
    <path d="M 483.8864440917969 395.61492919921875 C 486.8157653808594 399.8005065917969 485.8334655761719 400.9873962402344 483.5311279296875 401.1926574707031 C 473.7896423339844 407.0331115722656 451.1646423339844 406.7249450683594 450.245361328125 407.66387939453125 C 448.05206298828125 404.41546630859375 451.5877990722656 396.17242431640625 453.60552978515625 396.4765625 C 463.0989074707031 393.0899963378906 472.77398681640625 392.7748107910156 483.8864440917969 395.61492919921875" stroke-width="0.0" fill="url(#shape_44_fill)"/>
    <path d="M 45.79388427734375 407.5589294433594 C 45.29781723022461 408.3898010253906 35.758514404296875 411.49517822265625 34.27408981323242 413.57843017578125 C 32.74425506591797 414.62640380859375 32.4286003112793 416.09869384765625 29.020084381103516 416.00360107421875 C 27.781818389892578 417.49761962890625 25.110105514526367 417.97735595703125 21.56806755065918 420.5622863769531 C 17.930709838867188 420.1392822265625 0.30849334597587585 417.2997741699219 -0.7459954619407654 420.5225524902344 C 1.809897780418396 419.6846618652344 -0.6976121068000793 411.1409606933594 0.6717440485954285 410.4179382324219 C 8.881978034973145 408.6302795410156 45.4571647644043 407.16943359375 45.79388427734375 407.5589294433594" stroke-width="0.0" fill="url(#shape_45_fill)"/>
    <path d="M 451.91619873046875 175.2050018310547 C 455.0634460449219 174.8769989013672 464.4065246582031 198.90353393554688 465.3797607421875 201.11544799804688 C 462.5889587402344 209.62332153320312 451.6950988769531 209.56964111328125 449.4729919433594 206.7334747314453 C 448.3258361816406 203.25059509277344 449.0430908203125 198.3135223388672 448.8482666015625 195.30055236816406 C 447.94891357421875 194.55137634277344 447.6027526855469 192.15553283691406 448.50958251953125 188.02146911621094 C 451.0142517089844 186.65174865722656 450.7543640136719 183.00033569335938 451.91619873046875 175.2050018310547" stroke-width="0.0" fill="url(#shape_46_fill)"/>
    <path d="M 373.109375 185.61508178710938 C 378.47467041015625 195.10873413085938 380.35858154296875 202.95965576171875 371.310302734375 206.1463165283203 C 365.8646545410156 206.82521057128906 364.772216796875 204.85523986816406 362.0289611816406 204.5666961669922 C 348.5298767089844 208.5460662841797 345.250732421875 202.6293487548828 354.3258361816406 188.49195861816406 C 356.65093994140625 184.95620727539062 358.36810302734375 184.40489196777344 368.09649658203125 185.37669372558594 C 368.957275390625 183.62765502929688 372.7913513183594 183.4185028076172 373.109375 185.61508178710938" stroke-width="0.0" fill="url(#shape_47_fill)"/>
    <path d="M 470.7629699707031 263.69012451171875 C 475.604736328125 267.35040283203125 480.7559509277344 267.7760009765625 479.8893127441406 284.5972900390625 C 465.3980407714844 287.56390380859375 453.4429626464844 286.0250244140625 443.7559509277344 284.92852783203125 C 439.2967224121094 282.23541259765625 439.9986877441406 276.95806884765625 441.1966247558594 276.4703674316406 C 447.5282897949219 266.5940246582031 455.34954833984375 263.87152099609375 470.7629699707031 263.69012451171875" stroke-width="0.0" fill="url(#shape_48_fill)"/>
    <path d="M 177.12266540527344 117.67401885986328 C 178.330078125 115.7579574584961 181.8920135498047 116.3193359375 182.73553466796875 117.32096099853516 C 184.68438720703125 120.24368286132812 183.85243225097656 122.35037231445312 184.76815795898438 123.20621490478516 C 179.73150634765625 127.1282958984375 185.87973022460938 136.54656982421875 182.76980590820312 140.0962371826172 C 181.95431518554688 146.89764404296875 172.8104705810547 145.8477325439453 171.76629638671875 146.611572265625 C 171.53366088867188 126.53459167480469 170.18365478515625 125.1170425415039 177.12266540527344 117.67401885986328" stroke-width="0.0" fill="url(#shape_49_fill)"/>
    <path d="M 333.9248046875 428.1061096191406 C 337.32623291015625 428.499755859375 341.14013671875 429.1011047363281 342.9549865722656 431.991455078125 C 346.3616027832031 435.5967102050781 345.1623229980469 437.2285461425781 342.46820068359375 437.60467529296875 C 342.8573303222656 446.03619384765625 325.0212707519531 448.0148620605469 323.08636474609375 442.0464782714844 C 319.2803955078125 436.5260314941406 317.2569885253906 432.3462219238281 311.40765380859375 428.99468994140625 C 322.00518798828125 427.29937744140625 328.8432922363281 428.38946533203125 333.9248046875 428.1061096191406" stroke-width="0.0" fill="url(#shape_50_fill)"/>
    <path d="M 301.51275634765625 389.2699890136719 C 299.73760986328125 393.538330078125 294.7996826171875 398.54400634765625 289.91796875 399.0482482910156 C 279.9351806640625 397.8620300292969 279.6066589355469 398.51348876953125 271.3701171875 402.609130859375 C 271.07293701171875 401.61669921875 269.603271484375 398.9773254394531 271.0685119628906 397.4827575683594 C 269.9463806152344 395.5048522949219 272.99053955078125 388.06121826171875 280.12347412109375 388.405029296875 C 283.2840576171875 386.3316345214844 287.6933898925781 390.69659423828125 301.51275634765625 389.2699890136719" stroke-width="0.0" fill="url(#shape_51_fill)"/>
    <path d="M 268.9950866699219 183.90492248535156 C 275.8973693847656 195.01043701171875 278.0730895996094 207.59048461914062 279.99755859375 217.38632202148438 C 271.5058898925781 210.36215209960938 269.0143737792969 208.03475952148438 260.93121337890625 215.50149536132812 C 257.62786865234375 207.0440216064453 264.026611328125 197.38597106933594 266.372314453125 195.2619171142578 C 269.634033203125 194.24208068847656 268.9454650878906 191.69284057617188 268.9950866699219 183.90492248535156" stroke-width="0.0" fill="url(#shape_52_fill)"/>
    <path d="M 218.25733947753906 409.54644775390625 C 215.91848754882812 410.97332763671875 215.59181213378906 413.24755859375 214.24461364746094 413.9251708984375 C 214.6359100341797 421.3387451171875 190.7743377685547 424.2815856933594 187.49082946777344 415.58233642578125 C 186.2611083984375 405.80517578125 205.9833526611328 400.9035949707031 218.25733947753906 409.54644775390625" stroke-width="0.0" fill="url(#shape_53_fill)"/>
    <path d="M 205.8144989013672 424.6358337402344 C 205.53201293945312 425.2967224121094 206.1334991455078 428.2731628417969 204.5814666748047 429.501708984375 C 195.39649963378906 430.9433288574219 178.82540893554688 431.1953430175781 177.9405059814453 432.7028503417969 C 176.72398376464844 430.95269775390625 178.20692443847656 425.9538879394531 176.78005981445312 423.9019775390625 C 185.9297637939453 418.587646484375 194.656494140625 422.4700012207031 205.8144989013672 424.6358337402344" stroke-width="0.0" fill="url(#shape_54_fill)"/>
    <path d="M 269.5885314941406 246.14541625976562 C 275.4267883300781 244.8459014892578 276.6675720214844 246.43313598632812 280.6553039550781 245.28529357910156 C 281.0414733886719 250.9693145751953 280.3551940917969 252.41136169433594 285.0386047363281 260.6937561035156 C 263.4586486816406 257.9244689941406 262.9206848144531 257.2153625488281 253.69879150390625 260.42266845703125 C 254.87998962402344 248.1757049560547 255.8633270263672 247.22891235351562 258.6148376464844 245.18592834472656 C 260.29449462890625 239.4571533203125 266.33538818359375 239.8456268310547 269.5885314941406 246.14541625976562" stroke-width="0.0" fill="url(#shape_55_fill)"/>
    <path d="M 275.3747253417969 355.86236572265625 C 277.93145751953125 363.8612060546875 282.840087890625 363.4047546386719 284.5323486328125 368.0817565917969 C 285.36798095703125 369.2362060546875 285.924072265625 371.8488464355469 285.7655944824219 380.8900146484375 C 276.26763916015625 379.2518005371094 263.3302307128906 382.27813720703125 246.70616149902344 382.7191162109375 C 242.2681884765625 381.5533142089844 243.3819580078125 361.2790222167969 244.46710205078125 357.91937255859375 C 252.3963623046875 356.474609375 259.11016845703125 355.3831787109375 275.3747253417969 355.86236572265625" stroke-width="0.0" fill="url(#shape_56_fill)"/>
    <path d="M 409.21234130859375 270.7120361328125 C 415.3719177246094 269.294921875 417.9755554199219 273.5861511230469 419.5156555175781 280.5035095214844 C 412.7669372558594 288.23480224609375 402.6374206542969 284.4981994628906 383.72314453125 280.9305725097656 C 381.8165283203125 266.3664855957031 390.4767761230469 263.4832458496094 409.21234130859375 270.7120361328125" stroke-width="0.0" fill="url(#shape_57_fill)"/>
    <path d="M 632.044921875 351.8336486816406 C 632.9799194335938 354.8403015136719 659.53955078125 353.59503173828125 668.6517333984375 353.8091735839844 C 668.4489135742188 358.2835998535156 662.3710327148438 360.8384704589844 660.4891967773438 356.70709228515625 C 651.7457885742188 355.9494934082031 634.2279663085938 360.41644287109375 631.4851684570312 360.8515625 C 627.7724609375 357.0941162109375 629.3167114257812 353.5728454589844 632.044921875 351.8336486816406" stroke-width="0.0" fill="url(#shape_58_fill)"/>
    <path d="M 341.2807922363281 385.0968933105469 C 342.78887939453125 390.2919921875 358.1246032714844 391.8021240234375 359.1849060058594 394.750244140625 C 356.5315246582031 398.4140930175781 339.4734802246094 401.9585266113281 338.4512634277344 399.5230712890625 C 335.1388854980469 399.60986328125 333.08123779296875 398.775634765625 331.8650207519531 396.5362548828125 C 331.98590087890625 394.93994140625 330.75616455078125 393.4737243652344 332.35406494140625 390.6126403808594 C 333.1518859863281 385.084716796875 336.8833312988281 384.2080993652344 341.2807922363281 385.0968933105469" stroke-width="0.0" fill="url(#shape_59_fill)"/>
    <path d="M 460.2575378417969 363.6180419921875 C 462.6481018066406 364.97381591796875 472.07000732421875 369.87689208984375 473.10455322265625 374.0179748535156 C 471.792236328125 376.168212890625 470.3319396972656 376.856201171875 463.0825500488281 375.9222717285156 C 458.4007873535156 377.00775146484375 457.5475769042969 377.0058288574219 452.7195129394531 370.976806640625 C 453.1044921875 369.4118347167969 459.3800964355469 365.2414245605469 460.2575378417969 363.6180419921875" stroke-width="0.0" fill="url(#shape_60_fill)"/>
    <path d="M 435.19403076171875 432.7130432128906 C 440.1746826171875 434.28594970703125 442.47772216796875 436.4031677246094 442.00830078125 438.9483337402344 C 440.4345397949219 441.9355773925781 429.7762451171875 440.64678955078125 425.7851257324219 442.4803161621094 C 422.49627685546875 438.5037536621094 424.0185546875 434.5237731933594 414.6092529296875 425.9178466796875 C 427.9909362792969 429.7769470214844 431.8359680175781 434.25140380859375 435.19403076171875 432.7130432128906" stroke-width="0.0" fill="url(#shape_61_fill)"/>
    <path d="M 185.4264678955078 411.4516906738281 C 186.2636260986328 413.93170166015625 185.0086669921875 414.7928771972656 186.92396545410156 417.7576599121094 C 184.8621368408203 420.1666564941406 183.4035186767578 419.52691650390625 182.480712890625 419.706298828125 C 180.80502319335938 421.65533447265625 174.41229248046875 420.3415832519531 171.2547607421875 420.2304992675781 C 169.53646850585938 417.86407470703125 169.7587127685547 415.635009765625 173.61585998535156 413.38677978515625 C 176.42236328125 412.4486083984375 181.12176513671875 410.7258605957031 185.4264678955078 411.4516906738281" stroke-width="0.0" fill="url(#shape_62_fill)"/>
    <path d="M 332.4401550292969 418.50238037109375 C 334.8934020996094 426.1582946777344 329.8985900878906 427.9983825683594 327.2796325683594 426.0499267578125 C 324.596923828125 427.7786865234375 323.0013732910156 426.7359619140625 320.6250915527344 427.62359619140625 C 318.74072265625 426.0384216308594 319.68109130859375 419.98870849609375 317.84326171875 418.42230224609375 C 319.4342041015625 420.2574768066406 326.1324768066406 418.7122497558594 332.4401550292969 418.50238037109375" stroke-width="0.0" fill="url(#shape_63_fill)"/>
    <path d="M 55.37639236450195 273.2325134277344 C 56.547420501708984 269.5747985839844 66.24175262451172 269.82684326171875 66.07685089111328 278.4122314453125 C 58.6309928894043 279.23468017578125 53.793113708496094 272.8849182128906 48.0279426574707 276.2083740234375 C 49.577518463134766 272.9258117675781 52.308345794677734 272.40887451171875 55.37639236450195 273.2325134277344" stroke-width="0.0" fill="url(#shape_64_fill)"/>
    <path d="M 304.4297790527344 438.83843994140625 C 304.4915466308594 437.1380310058594 305.942626953125 436.11102294921875 313.1126708984375 437.1254577636719 C 314.7850341796875 438.9052734375 313.1494445800781 441.58123779296875 311.401611328125 442.4895324707031 C 307.8338928222656 445.4213562011719 306.7733154296875 444.2195129394531 305.1742248535156 444.87164306640625 C 302.7895202636719 441.65191650390625 302.6653747558594 439.73138427734375 304.4297790527344 438.83843994140625" stroke-width="0.0" fill="url(#shape_65_fill)"/>
    <path d="M -0.3914117217063904 -0.3667312562465668 C 224.23875427246094 -0.04869634658098221 443.8301696777344 0.44157060980796814 673.0614624023438 0.7562083601951599 C 673.7617797851562 152.47012329101562 674.5509643554688 295.68829345703125 673.5261840820312 445.4905700683594 C 450.5170593261719 446.3080139160156 230.70359802246094 446.232177734375 0.5975183844566345 445.3189392089844 C 0.26778843998908997 296.92193603515625 -0.08542805910110474 148.81080627441406 -0.3914117217063904 -0.3667312562465668" stroke-width="0.0" fill="url(#shape_66_fill)"/>
    <path d="M -0.9520617127418518 -0.13674381375312805 C 222.50799560546875 -0.12336404621601105 443.48773193359375 0.34681469202041626 673.0636596679688 0.20180895924568176 C 673.8665161132812 152.62686157226562 674.5997924804688 295.046142578125 673.2618408203125 445.38140869140625 C 450.6800537109375 446.3902893066406 230.86770629882812 446.28466796875 0.7218046188354492 445.22076416015625 C 0.20143288373947144 296.92730712890625 -0.21918080747127533 148.6774139404297 -0.9520617127418518 -0.13674381375312805" stroke-width="0.0" fill="url(#shape_67_fill)"/>
    <path d="M -0.6160943508148193 -0.16160620748996735 C 222.64193725585938 -0.09451331943273544 442.60968017578125 0.46794959902763367 673.0615234375 -0.13973642885684967 C 673.8568115234375 152.65553283691406 674.6031494140625 295.07763671875 673.2708129882812 445.384033203125 C 450.7183837890625 446.3922119140625 230.9287872314453 446.28253173828125 1.275712013244629 445.1959228515625 C 0.5132944583892822 295.5509033203125 0.07057876884937286 148.48406982421875 -0.6160943508148193 -0.16160620748996735" stroke-width="0.0" fill="url(#shape_68_fill)"/>
  </g>
</svg>
