<?xml version="1.0" ?>
<svg xmlns="http://www.w3.org/2000/svg" version="1.1" width="674" height="446">
  <defs>
    <radialGradient id="shape_0_fill" cx="0.533208513118393" cy="0.7400401162459711" r="0.2799459847922849">
      <stop offset="0.73388296" stop-color="rgb(159, 176, 0)" stop-opacity="0.8455042839050293"/>
      <stop offset="1.0" stop-color="rgb(49, 45, 0)" stop-opacity="1.0"/>
    </radialGradient>
    <radialGradient id="shape_1_fill" cx="0.5348677819135988" cy="0.743871646077109" r="0.2064804167705049">
      <stop offset="0.50608397" stop-color="rgb(71, 69, 70)" stop-opacity="0.7705385088920593"/>
      <stop offset="1.0" stop-color="rgb(33, 13, 0)" stop-opacity="0.6226485967636108"/>
    </radialGradient>
    <radialGradient id="shape_2_fill" cx="0.09792273546892387" cy="0.7376672719091578" r="0.22062588021026522">
      <stop offset="0.0004726788" stop-color="rgb(35, 95, 182)" stop-opacity="0.9588136672973633"/>
      <stop offset="0.9868774" stop-color="rgb(7, 99, 255)" stop-opacity="0.9172166585922241"/>
    </radialGradient>
    <radialGradient id="shape_3_fill" cx="0.27740288346740544" cy="0.2155072336239665" r="0.12997248618468332">
      <stop offset="0.3964741" stop-color="rgb(132, 186, 1)" stop-opacity="0.7785671353340149"/>
      <stop offset="1.0" stop-color="rgb(36, 38, 0)" stop-opacity="0.9395747780799866"/>
    </radialGradient>
    <radialGradient id="shape_4_fill" cx="0.1543026706231454" cy="0.9977578475336323" r="0.10288926755639141">
      <stop offset="0.0" stop-color="rgb(81, 79, 86)" stop-opacity="1.0"/>
      <stop offset="1.0" stop-color="rgb(62, 59, 75)" stop-opacity="0.8860390186309814"/>
    </radialGradient>
    <radialGradient id="shape_5_fill" cx="0.14807964290992442" cy="0.23997249517740155" r="0.11810664960821587">
      <stop offset="0.0" stop-color="rgb(255, 255, 255)" stop-opacity="0.6465655565261841"/>
      <stop offset="0.5626593" stop-color="rgb(255, 255, 255)" stop-opacity="0.5469720959663391"/>
    </radialGradient>
    <radialGradient id="shape_6_fill" cx="0.18397626112759644" cy="0.9977578475336323" r="0.0754974885934892">
      <stop offset="0.0" stop-color="rgb(93, 90, 94)" stop-opacity="1.0"/>
      <stop offset="1.0" stop-color="rgb(144, 128, 131)" stop-opacity="0.918638288974762"/>
    </radialGradient>
    <radialGradient id="shape_7_fill" cx="0.2893175074183976" cy="0.05829596412556054" r="0.08666390552011372">
      <stop offset="0.0" stop-color="rgb(55, 66, 29)" stop-opacity="1.0"/>
      <stop offset="1.0" stop-color="rgb(113, 130, 49)" stop-opacity="0.5561881065368652"/>
    </radialGradient>
    <radialGradient id="shape_8_fill" cx="0.3382789091115889" cy="0.9439461883408071" r="0.06756690277190167">
      <stop offset="0.0" stop-color="rgb(91, 124, 45)" stop-opacity="1.0"/>
      <stop offset="1.0" stop-color="rgb(112, 166, 45)" stop-opacity="0.6667695641517639"/>
    </radialGradient>
    <radialGradient id="shape_9_fill" cx="0.30712166172106825" cy="0.9977578475336323" r="0.0730758406641929">
      <stop offset="0.0" stop-color="rgb(38, 48, 20)" stop-opacity="1.0"/>
      <stop offset="1.0" stop-color="rgb(32, 32, 49)" stop-opacity="1.0"/>
    </radialGradient>
    <radialGradient id="shape_10_fill" cx="0.3056379821958457" cy="0.9977578475336323" r="0.06792919147615971">
      <stop offset="0.0" stop-color="rgb(39, 49, 21)" stop-opacity="1.0"/>
      <stop offset="1.0" stop-color="rgb(36, 19, 0)" stop-opacity="0.6698427796363831"/>
    </radialGradient>
    <radialGradient id="shape_11_fill" cx="0.21810089020771514" cy="0.968609865470852" r="0.06792919147615971">
      <stop offset="0.0" stop-color="rgb(138, 135, 129)" stop-opacity="1.0"/>
      <stop offset="1.0" stop-color="rgb(145, 112, 79)" stop-opacity="0.4626370668411255"/>
    </radialGradient>
    <radialGradient id="shape_12_fill" cx="0.29080118694362017" cy="0.9977578475336323" r="0.07480746985189285">
      <stop offset="0.0" stop-color="rgb(22, 25, 13)" stop-opacity="1.0"/>
      <stop offset="1.0" stop-color="rgb(38, 39, 11)" stop-opacity="1.0"/>
    </radialGradient>
    <radialGradient id="shape_13_fill" cx="0.327893175074184" cy="0.8923766816143498" r="0.06900465877544279">
      <stop offset="0.0" stop-color="rgb(89, 117, 50)" stop-opacity="1.0"/>
      <stop offset="1.0" stop-color="rgb(96, 132, 8)" stop-opacity="0.6485384702682495"/>
    </radialGradient>
    <radialGradient id="shape_14_fill" cx="0.142433234421365" cy="0.9977578475336323" r="0.06617211022079875">
      <stop offset="0.0" stop-color="rgb(155, 150, 153)" stop-opacity="1.0"/>
      <stop offset="1.0" stop-color="rgb(255, 200, 182)" stop-opacity="0.22631317377090454"/>
    </radialGradient>
    <radialGradient id="shape_15_fill" cx="0.31008902077151335" cy="0.9977578475336323" r="0.06683642786405207">
      <stop offset="0.0" stop-color="rgb(43, 55, 23)" stop-opacity="1.0"/>
      <stop offset="1.0" stop-color="rgb(58, 67, 20)" stop-opacity="0.9326184391975403"/>
    </radialGradient>
    <radialGradient id="shape_16_fill" cx="0.27299703264094954" cy="0.9977578475336323" r="0.08110449363640579">
      <stop offset="0.0" stop-color="rgb(31, 35, 19)" stop-opacity="1.0"/>
      <stop offset="1.0" stop-color="rgb(30, 30, 0)" stop-opacity="0.9577473998069763"/>
    </radialGradient>
    <radialGradient id="shape_17_fill" cx="0.2893175074183976" cy="0.9977578475336323" r="0.07513486030193747">
      <stop offset="0.0" stop-color="rgb(22, 23, 13)" stop-opacity="1.0"/>
      <stop offset="1.0" stop-color="rgb(22, 20, 0)" stop-opacity="0.8567795753479004"/>
    </radialGradient>
    <radialGradient id="shape_18_fill" cx="0.3293768545994065" cy="0.7556053811659192" r="0.06617211022079875">
      <stop offset="0.0" stop-color="rgb(83, 108, 65)" stop-opacity="1.0"/>
      <stop offset="1.0" stop-color="rgb(108, 131, 60)" stop-opacity="0.9833354353904724"/>
    </radialGradient>
    <radialGradient id="shape_19_fill" cx="0.3516320474777448" cy="0.9977578475336323" r="0.06617211022079875">
      <stop offset="0.0" stop-color="rgb(95, 135, 39)" stop-opacity="1.0"/>
      <stop offset="1.0" stop-color="rgb(136, 197, 7)" stop-opacity="0.7411746978759766"/>
    </radialGradient>
    <radialGradient id="shape_20_fill" cx="0.0830860534124629" cy="0.9977578475336323" r="0.06792919147615971">
      <stop offset="0.0" stop-color="rgb(49, 52, 66)" stop-opacity="1.0"/>
      <stop offset="1.0" stop-color="rgb(33, 21, 58)" stop-opacity="0.41586825251579285"/>
    </radialGradient>
    <radialGradient id="shape_21_fill" cx="0.29821958456973297" cy="0.9977578475336323" r="0.06792919147615971">
      <stop offset="0.0" stop-color="rgb(33, 40, 17)" stop-opacity="1.0"/>
      <stop offset="1.0" stop-color="rgb(43, 59, 0)" stop-opacity="0.7208375334739685"/>
    </radialGradient>
    <radialGradient id="shape_22_fill" cx="0.3563326600751113" cy="0.44372438849889645" r="0.06594546966099951">
      <stop offset="0.5238396" stop-color="rgb(106, 141, 32)" stop-opacity="0.9718344211578369"/>
      <stop offset="0.388924" stop-color="rgb(147, 181, 39)" stop-opacity="0.9129037857055664"/>
    </radialGradient>
    <radialGradient id="shape_23_fill" cx="0.6454005934718101" cy="0.1412556053811659" r="0.06617211022079875">
      <stop offset="0.0" stop-color="rgb(46, 38, 13)" stop-opacity="1.0"/>
      <stop offset="1.0" stop-color="rgb(52, 31, 0)" stop-opacity="0.883279025554657"/>
    </radialGradient>
    <radialGradient id="shape_24_fill" cx="0.2492550586734398" cy="0.4843076355254169" r="0.06616975574889593">
      <stop offset="0.0" stop-color="rgb(205, 212, 206)" stop-opacity="1.0"/>
      <stop offset="0.92727125" stop-color="rgb(255, 255, 255)" stop-opacity="0.6025724411010742"/>
    </radialGradient>
    <radialGradient id="shape_25_fill" cx="0.6320474777448071" cy="0.9977578475336323" r="0.06617211022079875">
      <stop offset="0.0" stop-color="rgb(35, 28, 8)" stop-opacity="1.0"/>
      <stop offset="1.0" stop-color="rgb(39, 16, 0)" stop-opacity="0.5652298331260681"/>
    </radialGradient>
    <radialGradient id="shape_26_fill" cx="0.15414520399506793" cy="0.3207086811151205" r="0.06604698362265567">
      <stop offset="0.11989566" stop-color="rgb(198, 211, 155)" stop-opacity="1.0"/>
      <stop offset="0.58338004" stop-color="rgb(117, 115, 233)" stop-opacity="0.038989920169115067"/>
    </radialGradient>
    <radialGradient id="shape_27_fill" cx="0.15410647972401242" cy="0.3208032787648017" r="0.06604505929465818">
      <stop offset="0.0" stop-color="rgb(192, 205, 0)" stop-opacity="1.0"/>
      <stop offset="0.49375948" stop-color="rgb(76, 71, 44)" stop-opacity="0.6067668795585632"/>
    </radialGradient>
    <radialGradient id="shape_28_fill" cx="0.03602321636075436" cy="0.01691419768226521" r="0.06916712865631375">
      <stop offset="0.1263914" stop-color="rgb(6, 27, 120)" stop-opacity="0.968843936920166"/>
      <stop offset="0.8444092" stop-color="rgb(6, 26, 161)" stop-opacity="0.7388774156570435"/>
    </radialGradient>
    <radialGradient id="shape_29_fill" cx="0.33976258863681147" cy="0.6659192825112108" r="0.06617211022079875">
      <stop offset="0.0" stop-color="rgb(90, 117, 55)" stop-opacity="1.0"/>
      <stop offset="1.0" stop-color="rgb(107, 138, 27)" stop-opacity="0.8719562888145447"/>
    </radialGradient>
    <radialGradient id="shape_30_fill" cx="0.039508545080349074" cy="0.016399825100406936" r="0.06882867898007175">
      <stop offset="0.16915064" stop-color="rgb(49, 76, 76)" stop-opacity="1.0"/>
      <stop offset="0.92313516" stop-color="rgb(60, 67, 0)" stop-opacity="0.519639790058136"/>
    </radialGradient>
    <radialGradient id="shape_31_fill" cx="0.12314540059347182" cy="0.9977578475336323" r="0.06617211022079875">
      <stop offset="0.0" stop-color="rgb(95, 103, 98)" stop-opacity="1.0"/>
      <stop offset="1.0" stop-color="rgb(134, 124, 112)" stop-opacity="0.7406929731369019"/>
    </radialGradient>
    <radialGradient id="shape_32_fill" cx="0.4035608308605341" cy="0.984304932735426" r="0.06617211022079875">
      <stop offset="0.0" stop-color="rgb(126, 155, 63)" stop-opacity="1.0"/>
      <stop offset="1.0" stop-color="rgb(134, 124, 28)" stop-opacity="0.9879558682441711"/>
    </radialGradient>
    <radialGradient id="shape_33_fill" cx="0.3249258160237389" cy="0.6053811659192825" r="0.06617211022079875">
      <stop offset="8.969698e-06" stop-color="rgb(93, 124, 71)" stop-opacity="0.9998906850814819"/>
      <stop offset="1.0" stop-color="rgb(125, 150, 57)" stop-opacity="1.0"/>
    </radialGradient>
    <radialGradient id="shape_34_fill" cx="0.6468842729970327" cy="0.531390134529148" r="0.06617211022079875">
      <stop offset="0.0" stop-color="rgb(54, 47, 24)" stop-opacity="1.0"/>
      <stop offset="1.0" stop-color="rgb(49, 15, 25)" stop-opacity="0.40095582604408264"/>
    </radialGradient>
    <radialGradient id="shape_35_fill" cx="0.1478504554454226" cy="0.24024130303763488" r="0.06947927163687233">
      <stop offset="0.10427371" stop-color="rgb(199, 255, 86)" stop-opacity="0.1730353683233261"/>
      <stop offset="0.5684414" stop-color="rgb(104, 77, 61)" stop-opacity="0.814867377281189"/>
    </radialGradient>
    <radialGradient id="shape_36_fill" cx="0.2878338278931751" cy="0.9977578475336323" r="0.06617211022079875">
      <stop offset="0.0" stop-color="rgb(80, 96, 53)" stop-opacity="1.0"/>
      <stop offset="1.0" stop-color="rgb(32, 33, 0)" stop-opacity="0.7840675711631775"/>
    </radialGradient>
    <radialGradient id="shape_37_fill" cx="0.129080118694362" cy="0.9977578475336323" r="0.06617211022079875">
      <stop offset="0.0" stop-color="rgb(87, 97, 81)" stop-opacity="1.0"/>
      <stop offset="1.0" stop-color="rgb(67, 75, 56)" stop-opacity="0.5989164113998413"/>
    </radialGradient>
    <radialGradient id="shape_38_fill" cx="0.33892324204260943" cy="0.5607740119968294" r="0.0666785763703751">
      <stop offset="0.7501433" stop-color="rgb(83, 112, 23)" stop-opacity="0.9119343161582947"/>
      <stop offset="0.6022492" stop-color="rgb(168, 255, 80)" stop-opacity="0.8831478357315063"/>
    </radialGradient>
    <radialGradient id="shape_39_fill" cx="0.40059347181008903" cy="0.9641255605381166" r="0.06617211022079875">
      <stop offset="0.0" stop-color="rgb(138, 168, 60)" stop-opacity="1.0"/>
      <stop offset="1.0" stop-color="rgb(212, 253, 82)" stop-opacity="0.9872618913650513"/>
    </radialGradient>
    <radialGradient id="shape_40_fill" cx="0.6124841254259783" cy="0.877240168139539" r="0.07048664602398519">
      <stop offset="0.38833204" stop-color="rgb(149, 134, 171)" stop-opacity="0.32352399826049805"/>
      <stop offset="0.50098443" stop-color="rgb(1, 14, 69)" stop-opacity="0.9585147500038147"/>
    </radialGradient>
    <radialGradient id="shape_41_fill" cx="0.6454005934718101" cy="0.08744394618834081" r="0.06617211022079875">
      <stop offset="0.0" stop-color="rgb(58, 48, 21)" stop-opacity="1.0"/>
      <stop offset="1.0" stop-color="rgb(90, 63, 20)" stop-opacity="1.0"/>
    </radialGradient>
    <radialGradient id="shape_42_fill" cx="0.5845697329376854" cy="0.6188340807174888" r="0.06617211022079875">
      <stop offset="0.0" stop-color="rgb(62, 59, 56)" stop-opacity="1.0"/>
      <stop offset="1.0" stop-color="rgb(38, 33, 79)" stop-opacity="0.6085018515586853"/>
    </radialGradient>
    <radialGradient id="shape_43_fill" cx="0.3550139067788506" cy="0.5021689376488929" r="0.06965853410941557">
      <stop offset="0.24732761" stop-color="rgb(118, 157, 50)" stop-opacity="0.9168013334274292"/>
      <stop offset="0.5876791" stop-color="rgb(202, 255, 27)" stop-opacity="0.8105546832084656"/>
    </radialGradient>
    <radialGradient id="shape_44_fill" cx="0.5934718100890207" cy="0.9977578475336323" r="0.06617211022079875">
      <stop offset="0.0" stop-color="rgb(89, 61, 18)" stop-opacity="1.0"/>
      <stop offset="1.0" stop-color="rgb(162, 81, 2)" stop-opacity="0.7303711771965027"/>
    </radialGradient>
    <radialGradient id="shape_45_fill" cx="0.612759643916914" cy="0.04035874439461883" r="0.06617211022079875">
      <stop offset="0.0" stop-color="rgb(157, 136, 123)" stop-opacity="1.0"/>
      <stop offset="1.0" stop-color="rgb(255, 221, 202)" stop-opacity="1.0"/>
    </radialGradient>
    <radialGradient id="shape_46_fill" cx="0.28635014836795253" cy="0.9977578475336323" r="0.06617211022079875">
      <stop offset="0.0" stop-color="rgb(82, 99, 55)" stop-opacity="1.0"/>
      <stop offset="1.0" stop-color="rgb(90, 103, 26)" stop-opacity="0.5786678194999695"/>
    </radialGradient>
    <radialGradient id="shape_47_fill" cx="0.28635014836795253" cy="0.8183856502242153" r="0.06617211022079875">
      <stop offset="0.0" stop-color="rgb(166, 189, 197)" stop-opacity="1.0"/>
      <stop offset="1.0" stop-color="rgb(251, 255, 255)" stop-opacity="0.4407253563404083"/>
    </radialGradient>
    <radialGradient id="shape_48_fill" cx="0.40801186943620177" cy="0.9977578475336323" r="0.06617211022079875">
      <stop offset="0.0" stop-color="rgb(107, 135, 68)" stop-opacity="1.0"/>
      <stop offset="1.0" stop-color="rgb(127, 143, 55)" stop-opacity="1.0"/>
    </radialGradient>
    <radialGradient id="shape_49_fill" cx="0.19287833827893175" cy="0.3991031390134529" r="0.06617211022079875">
      <stop offset="0.0" stop-color="rgb(92, 100, 54)" stop-opacity="1.0"/>
      <stop offset="1.0" stop-color="rgb(58, 36, 0)" stop-opacity="0.5199501514434814"/>
    </radialGradient>
    <radialGradient id="shape_50_fill" cx="0.6439169139465876" cy="0.7376681614349776" r="0.06617211022079875">
      <stop offset="0.0" stop-color="rgb(65, 56, 25)" stop-opacity="1.0"/>
      <stop offset="1.0" stop-color="rgb(147, 185, 103)" stop-opacity="0.42526963353157043"/>
    </radialGradient>
    <radialGradient id="shape_51_fill" cx="0.5845697329376854" cy="0.6322869955156951" r="0.06617211022079875">
      <stop offset="0.0" stop-color="rgb(75, 68, 60)" stop-opacity="1.0"/>
      <stop offset="1.0" stop-color="rgb(150, 116, 92)" stop-opacity="0.6176718473434448"/>
    </radialGradient>
    <radialGradient id="shape_52_fill" cx="0.2997032640949555" cy="0.6031390134529148" r="0.06617211022079875">
      <stop offset="0.0" stop-color="rgb(107, 158, 118)" stop-opacity="1.0"/>
      <stop offset="1.0" stop-color="rgb(177, 255, 232)" stop-opacity="0.5357211232185364"/>
    </radialGradient>
    <radialGradient id="shape_53_fill" cx="0.6097922848664689" cy="0.45067264573991034" r="0.06617211022079875">
      <stop offset="0.0" stop-color="rgb(38, 39, 27)" stop-opacity="1.0"/>
      <stop offset="1.0" stop-color="rgb(19, 14, 54)" stop-opacity="0.3560482859611511"/>
    </radialGradient>
    <radialGradient id="shape_54_fill" cx="0.6335311572700296" cy="0.426009002822397" r="0.06617211022079875">
      <stop offset="0.0" stop-color="rgb(67, 49, 20)" stop-opacity="1.0"/>
      <stop offset="1.0" stop-color="rgb(144, 82, 25)" stop-opacity="0.5971896648406982"/>
    </radialGradient>
    <radialGradient id="shape_55_fill" cx="0.3707168533823257" cy="0.5988430827187851" r="0.066001377049115">
      <stop offset="0.43605936" stop-color="rgb(237, 255, 49)" stop-opacity="0.8641387820243835"/>
      <stop offset="0.16089156" stop-color="rgb(205, 255, 0)" stop-opacity="0.7160305380821228"/>
    </radialGradient>
    <radialGradient id="shape_56_fill" cx="0.5489614243323442" cy="0.600896860986547" r="0.06617211022079875">
      <stop offset="0.0" stop-color="rgb(50, 62, 80)" stop-opacity="1.0"/>
      <stop offset="1.0" stop-color="rgb(26, 78, 241)" stop-opacity="0.42709749937057495"/>
    </radialGradient>
    <radialGradient id="shape_57_fill" cx="0.4094955489614243" cy="0.9035874439461884" r="0.06617211022079875">
      <stop offset="0.0" stop-color="rgb(111, 144, 47)" stop-opacity="1.0"/>
      <stop offset="1.0" stop-color="rgb(203, 255, 44)" stop-opacity="0.745918333530426"/>
    </radialGradient>
    <radialGradient id="shape_58_fill" cx="0.5281899109792285" cy="0.9977578475336323" r="0.06617211022079875">
      <stop offset="0.0" stop-color="rgb(50, 43, 14)" stop-opacity="1.0"/>
      <stop offset="1.0" stop-color="rgb(78, 57, 10)" stop-opacity="1.0"/>
    </radialGradient>
    <radialGradient id="shape_59_fill" cx="0.5845697329376854" cy="0.7690582959641256" r="0.06617211022079875">
      <stop offset="0.0" stop-color="rgb(61, 63, 58)" stop-opacity="1.0"/>
      <stop offset="1.0" stop-color="rgb(78, 75, 94)" stop-opacity="0.7087719440460205"/>
    </radialGradient>
    <radialGradient id="shape_60_fill" cx="0.5489614243323442" cy="0.9977578475336323" r="0.06617211022079875">
      <stop offset="0.0" stop-color="rgb(140, 131, 64)" stop-opacity="1.0"/>
      <stop offset="1.0" stop-color="rgb(233, 205, 90)" stop-opacity="0.906269371509552"/>
    </radialGradient>
    <radialGradient id="shape_61_fill" cx="0.6469716601272719" cy="0.96866973740103" r="0.06610445311232208">
      <stop offset="0.4630837" stop-color="rgb(255, 215, 64)" stop-opacity="1.0"/>
      <stop offset="0.21327698" stop-color="rgb(212, 142, 31)" stop-opacity="0.7026755213737488"/>
    </radialGradient>
    <radialGradient id="shape_62_fill" cx="0.615727002967359" cy="0.3991031390134529" r="0.06617211022079875">
      <stop offset="0.0" stop-color="rgb(55, 47, 13)" stop-opacity="1.0"/>
      <stop offset="1.0" stop-color="rgb(76, 53, 2)" stop-opacity="0.9943343997001648"/>
    </radialGradient>
    <radialGradient id="shape_63_fill" cx="0.6261127596439169" cy="0.7286995515695067" r="0.06617211022079875">
      <stop offset="0.0" stop-color="rgb(79, 66, 32)" stop-opacity="1.0"/>
      <stop offset="1.0" stop-color="rgb(193, 200, 106)" stop-opacity="0.5833444595336914"/>
    </radialGradient>
    <radialGradient id="shape_64_fill" cx="0.40801186943620177" cy="0.12556053811659193" r="0.06617211022079875">
      <stop offset="0.0" stop-color="rgb(76, 66, 59)" stop-opacity="1.0"/>
      <stop offset="1.0" stop-color="rgb(112, 84, 79)" stop-opacity="1.0"/>
    </radialGradient>
    <radialGradient id="shape_65_fill" cx="0.6528189910979229" cy="0.6883408071748879" r="0.06617211022079875">
      <stop offset="0.0" stop-color="rgb(121, 97, 39)" stop-opacity="1.0"/>
      <stop offset="1.0" stop-color="rgb(255, 230, 92)" stop-opacity="1.0"/>
    </radialGradient>
    <radialGradient id="shape_66_fill" cx="0.6526348442281389" cy="0.45936680267744534" r="0.07031095487781377">
      <stop offset="0.24010524" stop-color="rgb(167, 201, 117)" stop-opacity="0.2964482307434082"/>
      <stop offset="0.93981886" stop-color="rgb(0, 1, 0)" stop-opacity="0.05139898881316185"/>
    </radialGradient>
    <radialGradient id="shape_67_fill" cx="0.5964539751454702" cy="0.9950525942404709" r="0.06993647498971277">
      <stop offset="0.842677" stop-color="rgb(53, 30, 0)" stop-opacity="0.7011197805404663"/>
      <stop offset="1.0" stop-color="rgb(0, 2, 0)" stop-opacity="0.15146635472774506"/>
    </radialGradient>
    <radialGradient id="shape_68_fill" cx="0.49071133667354416" cy="0.996949336988509" r="0.06815745639518037">
      <stop offset="0.3684947" stop-color="rgb(47, 19, 0)" stop-opacity="0.5438545942306519"/>
      <stop offset="1.0" stop-color="rgb(35, 62, 55)" stop-opacity="0.2108800709247589"/>
    </radialGradient>
  </defs>
  <g>
    <path d="M 0.044923678040504456 271.2481689453125 C 24.904930114746094 263.4934997558594 39.27202606201172 265.3853759765625 45.89415740966797 272.13427734375 C 48.14194869995117 273.89239501953125 49.35856628417969 276.2193603515625 57.0962028503418 274.4727783203125 C 59.50735855102539 273.7711181640625 63.2431526184082 274.2459716796875 63.898067474365234 270.6812438964844 C 68.93408203125 268.8120422363281 99.7726821899414 270.2602233886719 116.72701263427734 270.563720703125 C 120.20291900634766 271.1590576171875 124.6108169555664 278.30426025390625 126.66217803955078 282.29388427734375 C 132.6655731201172 282.7391662597656 143.18087768554688 281.3379821777344 163.49781799316406 288.8390808105469 C 185.2832794189453 282.70318603515625 185.8537139892578 282.2216796875 206.72178649902344 287.29974365234375 C 200.2745819091797 287.3924560546875 198.2943572998047 281.45452880859375 210.9307403564453 269.0770263671875 C 247.8049774169922 268.1829528808594 291.2520446777344 266.49664306640625 313.31097412109375 273.5016174316406 C 349.1578063964844 274.9964599609375 426.1187744140625 275.6673889160156 472.4646301269531 269.1545104980469 C 501.9689025878906 265.3182678222656 547.0799560546875 265.93658447265625 547.017822265625 276.082275390625 C 548.1641235351562 275.0229797363281 548.3502197265625 267.8777160644531 575.4710083007812 265.960205078125 C 590.7593994140625 270.53643798828125 612.1380615234375 281.4009704589844 612.6944580078125 281.4011535644531 C 619.4034423828125 267.8122253417969 628.7099609375 266.728271484375 673.5420532226562 266.1235046386719 C 676.6881103515625 272.31964111328125 679.3641357421875 278.82965087890625 678.4677124023438 284.9035949707031 C 676.6177978515625 339.52508544921875 674.7149658203125 391.4916687011719 675.1177368164062 446.4668273925781 C 451.9151306152344 446.6697692871094 228.9889373779297 446.8115539550781 -0.47247523069381714 446.4240417480469 C -0.4540864825248718 389.14483642578125 -0.17930571734905243 332.3587341308594 0.044923678040504456 271.2481689453125" stroke-width="0.0" fill="url(#shape_0_fill)"/>
    <path d="M 0.013828097842633724 271.13385009765625 C 35.933631896972656 275.3945007324219 36.5576057434082 274.5867004394531 44.198036193847656 273.9188232421875 C 46.74024200439453 266.8626708984375 59.333229064941406 266.3848876953125 78.5357666015625 267.88201904296875 C 113.57952117919922 278.68035888671875 114.04659271240234 279.3109130859375 127.74274444580078 279.20703125 C 127.80393981933594 270.9609680175781 138.45779418945312 269.38714599609375 145.02096557617188 269.7039794921875 C 185.2356414794922 268.3438415527344 185.95416259765625 269.3762512207031 203.42030334472656 273.510009765625 C 203.1614990234375 292.0799560546875 204.0817108154297 292.3567199707031 210.1360626220703 298.29779052734375 C 213.66830444335938 297.65264892578125 266.189697265625 299.5996398925781 288.29541015625 301.1599426269531 C 315.0382385253906 304.5652160644531 446.76202392578125 302.76556396484375 461.3521423339844 303.7869567871094 C 479.4438171386719 294.29034423828125 490.93597412109375 291.8318176269531 503.89715576171875 287.05291748046875 C 512.3148803710938 288.5540466308594 520.8674926757812 286.6116027832031 522.9760131835938 286.5232849121094 C 527.4525756835938 285.7186584472656 531.781494140625 285.950927734375 534.762939453125 287.1547546386719 C 540.999267578125 287.08575439453125 542.9417724609375 288.3994445800781 551.56982421875 304.0763244628906 C 579.37060546875 290.3019104003906 581.5703735351562 290.80499267578125 598.174560546875 295.8692321777344 C 615.60791015625 289.20953369140625 625.8041381835938 288.11260986328125 633.9917602539062 288.5244445800781 C 642.230712890625 277.31610107421875 655.1063842773438 281.475830078125 673.7263793945312 292.1363830566406 C 674.1791381835938 340.2830505371094 674.4837646484375 392.14581298828125 674.1574096679688 446.2807922363281 C 451.4774169921875 446.3905334472656 229.19664001464844 446.25439453125 -0.30765706300735474 446.2476501464844 C -0.2136237919330597 389.4035949707031 -0.29687052965164185 333.0237731933594 0.013828097842633724 271.13385009765625" stroke-width="0.0" fill="url(#shape_1_fill)"/>
    <path d="M -0.019932541996240616 -0.25989267230033875 C 219.69313049316406 0.1040392518043518 439.478759765625 -0.45242562890052795 672.8270874023438 -0.1508323699235916 C 666.0927734375 11.044774055480957 644.74267578125 35.23118209838867 637.6918334960938 48.77867126464844 C 634.59228515625 53.22060775756836 610.9069213867188 92.6873779296875 584.2783813476562 83.87187957763672 C 577.6876831054688 81.61571502685547 561.4751586914062 71.33078002929688 532.6319580078125 73.65556335449219 C 531.975830078125 78.09799194335938 525.5989379882812 79.26579284667969 522.2504272460938 72.02922058105469 C 522.6580810546875 68.87313079833984 499.3623352050781 63.89494323730469 499.2922668457031 62.65384292602539 C 493.0265197753906 62.160362243652344 485.8891906738281 60.9869384765625 484.47113037109375 68.7798080444336 C 475.2369079589844 72.79651641845703 476.10711669921875 75.87699127197266 476.8897399902344 82.93563842773438 C 485.0360412597656 99.76384735107422 478.7289733886719 118.3178939819336 475.9803771972656 121.32717895507812 C 460.4505615234375 117.33440399169922 459.1652526855469 113.83171844482422 449.9744567871094 108.30892181396484 C 435.17510986328125 107.8887939453125 411.72528076171875 102.19190216064453 410.01904296875 105.14151000976562 C 414.1020812988281 120.089111328125 418.3684997558594 127.07036590576172 414.5226135253906 139.30210876464844 C 410.1107177734375 151.52215576171875 396.3547668457031 151.15408325195312 394.23822021484375 136.31069946289062 C 381.3852233886719 141.69439697265625 377.3233642578125 158.31289672851562 369.05511474609375 157.560546875 C 366.3598937988281 155.98033142089844 363.602783203125 158.766845703125 357.6009521484375 162.67236328125 C 353.0751037597656 166.38577270507812 349.9510498046875 166.81309509277344 349.96209716796875 172.46437072753906 C 345.37884521484375 179.36705017089844 338.3141174316406 174.71075439453125 343.802001953125 164.74990844726562 C 298.88531494140625 162.27981567382812 297.66387939453125 168.9488525390625 295.6126708984375 177.53526306152344 C 305.3685302734375 185.67654418945312 303.8283386230469 190.49087524414062 307.4800720214844 201.49252319335938 C 307.4883728027344 200.6577606201172 306.192138671875 198.1326141357422 304.24957275390625 189.90187072753906 C 304.7601623535156 185.66404724121094 303.7194519042969 185.0323028564453 290.4942321777344 173.76426696777344 C 289.68231201171875 194.5565643310547 289.10516357421875 195.97048950195312 289.3766174316406 196.29412841796875 C 289.2988586425781 189.9379119873047 290.8706359863281 182.04266357421875 289.7770080566406 173.42861938476562 C 271.9742736816406 175.95480346679688 268.61212158203125 181.3082275390625 261.1502685546875 176.80606079101562 C 256.05181884765625 183.11082458496094 255.7174530029297 188.71853637695312 254.54684448242188 197.30096435546875 C 260.72003173828125 199.35116577148438 260.537353515625 199.9124298095703 257.8343200683594 199.54559326171875 C 257.1605529785156 198.48455810546875 253.7650146484375 195.9281768798828 255.03697204589844 193.93313598632812 C 255.478759765625 183.5988006591797 260.96240234375 182.3659210205078 258.96832275390625 165.937255859375 C 259.9824523925781 161.60060119628906 216.23289489746094 142.27291870117188 213.33270263671875 140.91476440429688 C 186.48780822753906 132.36843872070312 195.27032470703125 104.56680297851562 191.49664306640625 86.62905883789062 C 191.6157684326172 84.81683349609375 161.62135314941406 73.68424987792969 130.73081970214844 58.90339660644531 C 106.72901916503906 39.505027770996094 73.70578002929688 57.42982482910156 42.58934020996094 59.423500061035156 C 27.318870544433594 69.97565460205078 3.0030593872070312 69.77427673339844 -1.121207356452942 69.51025390625 C 0.34183040261268616 43.958133697509766 -0.3314551115036011 22.56187629699707 -0.019932541996240616 -0.25989267230033875" stroke-width="0.0" fill="url(#shape_2_fill)"/>
    <path d="M 87.04499816894531 58.50629806518555 C 89.22381591796875 68.79362487792969 91.56477355957031 69.06977081298828 93.73246002197266 71.3936767578125 C 90.92994689941406 79.96538543701172 91.6891860961914 81.67034149169922 89.50814056396484 93.41229248046875 C 96.31268310546875 86.15343475341797 98.36054992675781 86.42958068847656 102.8901596069336 87.87541961669922 C 104.87816619873047 75.24971771240234 105.83767700195312 73.35124206542969 108.22990417480469 73.33065795898438 C 112.32732391357422 87.43264770507812 110.82270050048828 92.60665893554688 116.83563232421875 99.21038055419922 C 116.32027435302734 100.05198669433594 116.26530456542969 109.27163696289062 115.547607421875 115.34268951416016 C 122.91690826416016 115.3823471069336 128.44009399414062 115.85348510742188 129.51385498046875 111.94009399414062 C 130.8081817626953 110.30921173095703 136.83889770507812 109.26751708984375 136.59449768066406 104.80113220214844 C 136.64915466308594 103.67810821533203 135.5644989013672 101.83128356933594 137.4612274169922 98.73118591308594 C 136.5009307861328 93.27427673339844 137.53541564941406 92.90593719482422 137.59617614746094 89.42987823486328 C 137.32296752929688 85.07540893554688 138.5984649658203 84.95562744140625 139.86788940429688 87.51353454589844 C 140.3595428466797 83.17691802978516 146.75991821289062 80.68903350830078 148.19972229003906 82.75993347167969 C 148.5360565185547 93.24889373779297 149.9902801513672 94.55321502685547 152.22299194335938 99.18704223632812 C 153.66590881347656 102.91450500488281 149.9259796142578 106.91698455810547 148.8544464111328 106.74224090576172 C 152.52943420410156 109.72974395751953 150.35533142089844 114.06652069091797 148.40338134765625 113.3500747680664 C 154.42088317871094 112.83462524414062 157.9970245361328 122.58538818359375 157.14927673339844 123.3154296875 C 161.21649169921875 125.01043701171875 164.8939666748047 123.45565795898438 169.65036010742188 122.719970703125 C 174.39231872558594 119.73149871826172 175.7851104736328 121.51323699951172 177.7003936767578 122.49585723876953 C 179.3398895263672 122.68791198730469 180.04150390625 125.12540435791016 183.3692626953125 127.52545928955078 C 183.891357421875 130.15597534179688 182.5407257080078 133.0225372314453 184.52996826171875 134.96853637695312 C 187.25001525878906 135.56666564941406 188.3349609375 141.3848114013672 188.35406494140625 144.9709014892578 C 196.39244079589844 147.3531951904297 208.57608032226562 152.7587890625 201.94227600097656 172.85435485839844 C 205.2819366455078 177.11634826660156 206.25894165039062 178.72132873535156 205.07598876953125 181.5602569580078 C 214.60704040527344 181.30030822753906 215.1014404296875 194.18212890625 212.22889709472656 201.69766235351562 C 204.7728271484375 206.34275817871094 203.1367645263672 206.689453125 203.17413330078125 210.2675018310547 C 200.70553588867188 210.50845336914062 199.99545288085938 211.7117156982422 200.0275421142578 213.40921020507812 C 196.18905639648438 215.21810913085938 193.2926788330078 215.28140258789062 192.10948181152344 219.7384490966797 C 184.2885284423828 220.83258056640625 183.60284423828125 224.74391174316406 178.3668975830078 230.07701110839844 C 176.4109649658203 233.51963806152344 180.87466430664062 238.7836151123047 180.98814392089844 239.79818725585938 C 182.1919708251953 251.8517303466797 185.7897186279297 260.8313293457031 178.92526245117188 264.847412109375 C 173.46820068359375 268.2068176269531 148.8286895751953 268.27093505859375 135.64898681640625 269.6956787109375 C 131.27279663085938 268.8850402832031 129.1337890625 272.30169677734375 122.4952621459961 275.5989074707031 C 109.16596984863281 276.8495788574219 73.30660247802734 275.99444580078125 73.00296020507812 270.0727233886719 C 47.70825958251953 266.78033447265625 56.561553955078125 268.5748291015625 57.72352600097656 273.57568359375 C 48.50983428955078 276.4018249511719 1.054834246635437 272.6902770996094 0.8089308142662048 270.2102355957031 C -5.958077430725098 224.7071075439453 -5.660691738128662 166.47314453125 2.2078657150268555 122.22471618652344 C 11.063855171203613 118.1531753540039 21.500059127807617 113.86186218261719 26.04534149169922 121.81844329833984 C 27.21268653869629 129.7217559814453 35.639739990234375 129.16610717773438 41.991554260253906 131.85931396484375 C 46.35342025756836 130.2292938232422 48.045467376708984 131.05699157714844 49.475379943847656 142.23692321777344 C 50.345943450927734 148.9228515625 61.36814880371094 148.78123474121094 62.757843017578125 146.20263671875 C 62.203392028808594 136.87156677246094 63.102081298828125 134.018310546875 62.09795379638672 128.2838134765625 C 68.26034545898438 126.66263580322266 67.66395568847656 123.83647155761719 66.35226440429688 112.52986145019531 C 67.86658477783203 111.09188079833984 68.36167907714844 106.1877670288086 75.91767883300781 102.75489807128906 C 73.96319580078125 101.2134780883789 78.11823272705078 91.58587646484375 77.32032775878906 85.74039459228516 C 77.24820709228516 83.59980773925781 77.67045593261719 75.0228042602539 85.25453186035156 75.39911651611328 C 83.08441925048828 70.18876647949219 82.89196014404297 67.53849029541016 87.04499816894531 58.50629806518555" stroke-width="0.0" fill="url(#shape_3_fill)"/>
    <path d="M 674.087890625 -0.6601440906524658 C 676.1160888671875 47.826377868652344 675.0172119140625 95.90823364257812 680.42138671875 138.6714630126953 C 678.6904296875 123.33585357666016 670.3724365234375 121.89491271972656 661.665771484375 119.95687103271484 C 660.8201904296875 120.12986755371094 655.037353515625 109.408935546875 649.9323120117188 110.92543029785156 C 648.924560546875 112.5420150756836 645.2804565429688 149.58377075195312 642.8699951171875 155.6119384765625 C 629.8921508789062 154.60458374023438 626.8544921875 142.912353515625 627.0648193359375 138.50091552734375 C 623.0397338867188 137.45059204101562 618.9995727539062 145.359130859375 615.4263916015625 144.13662719726562 C 611.6814575195312 142.31414794921875 610.1597290039062 143.3327178955078 607.78662109375 141.0555419921875 C 608.9240112304688 137.62294006347656 612.7952880859375 132.9725799560547 606.56103515625 119.3148193359375 C 598.4562377929688 134.23062133789062 597.5557250976562 139.36766052246094 593.9946899414062 142.88937377929688 C 599.7904663085938 145.12930297851562 597.5337524414062 150.7578582763672 597.3741455078125 152.21343994140625 C 588.6390380859375 157.6310272216797 588.0609741210938 164.57266235351562 578.3801879882812 172.30970764160156 C 572.1256103515625 170.217041015625 569.9278564453125 157.93142700195312 568.5525512695312 157.10223388671875 C 565.63330078125 157.8306121826172 563.3623046875 153.81533813476562 561.7918090820312 150.49240112304688 C 560.0811157226562 151.0689697265625 556.0672607421875 150.8134307861328 555.6119384765625 155.83367919921875 C 551.8828735351562 156.0701141357422 550.3436889648438 158.7249298095703 548.8136596679688 158.42303466796875 C 547.8876342773438 156.2806396484375 544.6204223632812 155.83328247070312 536.1646118164062 153.54286193847656 C 531.7871704101562 154.90672302246094 529.9703979492188 158.90489196777344 523.1109619140625 156.8712158203125 C 519.2759399414062 160.5137176513672 520.3070678710938 162.15655517578125 522.9828491210938 169.11239624023438 C 517.6217651367188 168.4974365234375 517.2024536132812 170.95933532714844 516.2713012695312 171.6502227783203 C 511.2713623046875 173.32232666015625 509.8157043457031 175.26531982421875 505.6419677734375 174.399169921875 C 502.7629699707031 171.4050750732422 503.03521728515625 169.51478576660156 502.96142578125 159.3157196044922 C 492.0404968261719 145.18557739257812 506.7406311035156 121.43324279785156 517.9990844726562 126.55500793457031 C 523.6875610351562 125.24151611328125 540.373046875 110.08589172363281 548.8084106445312 112.98094177246094 C 557.2547607421875 110.72003173828125 556.9085693359375 109.38394165039062 558.45263671875 107.79631805419922 C 559.4432983398438 108.343017578125 564.8883056640625 102.79029846191406 570.3524780273438 104.99458312988281 C 574.615234375 102.44509887695312 573.4652099609375 97.51712799072266 579.02490234375 94.07328796386719 C 586.199462890625 88.4874496459961 594.0546264648438 77.56845092773438 613.1119995117188 78.3216323852539 C 616.9054565429688 73.5932846069336 644.877197265625 51.12342834472656 645.67041015625 35.49246597290039 C 644.9678344726562 32.439029693603516 647.994873046875 30.39022445678711 647.608642578125 29.522130966186523 C 646.9240112304688 28.28529167175293 664.194091796875 -4.217127323150635 674.087890625 -0.6601440906524658" stroke-width="0.0" fill="url(#shape_4_fill)"/>
    <path d="M 151.54615783691406 68.56031036376953 C 152.30279541015625 69.10186004638672 186.6005096435547 84.55294036865234 192.7018280029297 92.6272201538086 C 179.20510864257812 118.42385864257812 217.65707397460938 150.08892822265625 220.8841552734375 154.8914794921875 C 238.87083435058594 170.04983520507812 241.97894287109375 184.16233825683594 240.81507873535156 193.86590576171875 C 238.08929443359375 193.2022247314453 236.15939331054688 186.5730438232422 236.77064514160156 184.06365966796875 C 235.6844940185547 183.55111694335938 234.15609741210938 184.30422973632812 231.0694580078125 182.69451904296875 C 231.53550720214844 183.8596649169922 232.01983642578125 194.01376342773438 228.63748168945312 195.6683807373047 C 227.59942626953125 196.63638305664062 227.2924041748047 205.38580322265625 221.32388305664062 207.68775939941406 C 215.09732055664062 206.5826416015625 214.32232666015625 197.7921142578125 214.6538543701172 194.8871612548828 C 212.95944213867188 185.4391632080078 211.8959503173828 184.94886779785156 206.50450134277344 177.4466552734375 C 205.86305236816406 172.95741271972656 206.1102752685547 166.75546264648438 204.17880249023438 159.15838623046875 C 206.16500854492188 153.4056854248047 194.85609436035156 144.67041015625 193.41357421875 141.17689514160156 C 189.11651611328125 140.1710968017578 188.91864013671875 137.08143615722656 186.44480895996094 135.82969665527344 C 178.2102813720703 133.3857421875 178.92906188964844 127.09149169921875 183.35592651367188 117.23645782470703 C 179.39002990722656 116.44303131103516 177.39669799804688 117.65316009521484 172.948974609375 117.7671127319336 C 179.35589599609375 128.1942596435547 175.8868408203125 130.83529663085938 151.8416748046875 130.35838317871094 C 149.69639587402344 128.23483276367188 151.7142333984375 102.43311309814453 154.08607482910156 94.3634262084961 C 152.8302001953125 89.23052215576172 153.34242248535156 87.30697631835938 150.0667266845703 76.28565216064453 C 148.07899475097656 75.90755462646484 148.39671325683594 69.26214599609375 151.54615783691406 68.56031036376953" stroke-width="0.0" fill="url(#shape_5_fill)"/>
    <path d="M 611.4917602539062 81.2783203125 C 618.7492065429688 84.09903717041016 619.6615600585938 86.29690551757812 631.5496826171875 85.52733612060547 C 636.0706787109375 86.09500885009766 637.0682983398438 88.31746673583984 641.1760864257812 89.39056396484375 C 642.1641845703125 87.12548828125 666.5633544921875 92.36311340332031 674.8799438476562 98.51714324951172 C 675.406494140625 110.61965942382812 674.7958984375 125.90575408935547 675.2545776367188 151.00889587402344 C 665.8268432617188 142.53594970703125 662.7838134765625 136.70541381835938 658.9171752929688 131.77259826660156 C 659.6744384765625 122.13334655761719 660.7202758789062 116.31600189208984 652.898193359375 112.42962646484375 C 644.9058227539062 113.08682250976562 644.3026733398438 142.26922607421875 642.44873046875 143.0125274658203 C 643.9666137695312 144.67214965820312 642.6456298828125 148.24786376953125 644.2157592773438 150.36651611328125 C 639.9306640625 150.71395874023438 637.88671875 152.73043823242188 634.6668090820312 153.34837341308594 C 631.5665283203125 146.2200927734375 629.1876220703125 141.3946533203125 630.0820922851562 140.5367431640625 C 628.8394165039062 137.66029357910156 622.0008544921875 136.904296875 620.9423828125 138.93826293945312 C 618.32177734375 140.5955810546875 619.3909912109375 142.37799072265625 618.3876342773438 148.4989013671875 C 614.095703125 144.677978515625 613.4122314453125 143.2027130126953 609.8843994140625 143.6983642578125 C 608.5097045898438 140.4075469970703 609.5675048828125 139.24252319335938 609.1204223632812 137.32579040527344 C 606.6476440429688 132.150634765625 604.8704833984375 126.8571548461914 599.089599609375 128.13829040527344 C 605.8622436523438 133.33445739746094 595.0484619140625 147.89599609375 591.92578125 155.09451293945312 C 590.3861083984375 163.76995849609375 588.9747314453125 163.96932983398438 585.6901245117188 169.12693786621094 C 584.8062133789062 167.5390167236328 583.9610595703125 165.9568634033203 589.398193359375 154.17677307128906 C 589.4380493164062 145.9123077392578 584.3671875 144.83599853515625 575.3578491210938 142.27096557617188 C 570.3765258789062 156.978515625 556.7225341796875 155.61892700195312 556.0005493164062 151.37716674804688 C 555.8330078125 152.90467834472656 553.0724487304688 154.70494079589844 552.938232421875 157.7997283935547 C 550.928955078125 161.28268432617188 548.0301513671875 160.90371704101562 547.3704833984375 159.1880645751953 C 544.49755859375 156.5025177001953 542.7321166992188 154.1324005126953 537.7061157226562 157.07720947265625 C 535.130126953125 158.4720001220703 531.1692504882812 157.5608367919922 529.5866088867188 158.35891723632812 C 526.416015625 159.52737426757812 526.6075439453125 163.067626953125 525.6859741210938 166.4365997314453 C 524.5435180664062 169.45513916015625 523.56396484375 171.57537841796875 519.0352783203125 173.08554077148438 C 510.3203125 177.92381286621094 497.182373046875 179.04164123535156 486.7423095703125 160.46961975097656 C 481.9856262207031 136.97967529296875 500.60333251953125 118.11968231201172 513.3497314453125 118.27643585205078 C 529.1843872070312 127.6451644897461 540.8564453125 107.95964813232422 549.2211303710938 111.74105834960938 C 555.6502685546875 110.10856628417969 560.73779296875 109.90164947509766 564.0206298828125 106.82112121582031 C 564.6287231445312 104.48778533935547 566.51220703125 103.57408142089844 569.8126220703125 104.57384490966797 C 573.9437255859375 101.27855682373047 578.7158813476562 98.294677734375 587.1182861328125 99.12762451171875 C 600.4905395507812 93.43853759765625 603.50146484375 80.00811004638672 611.4917602539062 81.2783203125" stroke-width="0.0" fill="url(#shape_6_fill)"/>
    <path d="M 0.9931321740150452 100.31499481201172 C 38.60780334472656 110.8322982788086 45.799110412597656 120.5841293334961 51.1046028137207 139.466552734375 C 81.30618286132812 153.9850616455078 52.486549377441406 213.71206665039062 42.48775100708008 244.50338745117188 C 50.718135833740234 260.19891357421875 48.46076202392578 264.61468505859375 48.684654235839844 265.21142578125 C 48.87018966674805 259.4520263671875 24.825119018554688 254.4684600830078 13.919916152954102 250.00439453125 C 4.9563889503479 206.1721649169922 -7.7216715812683105 169.82232666015625 0.9931321740150452 100.31499481201172" stroke-width="0.0" fill="url(#shape_7_fill)"/>
    <path d="M 384.3887634277344 197.6619873046875 C 424.21368408203125 186.09666442871094 427.2379455566406 190.8820037841797 429.7713928222656 204.13134765625 C 475.02484130859375 189.42623901367188 496.60772705078125 204.23236083984375 491.7084045410156 231.49002075195312 C 491.0015563964844 250.49288940429688 486.25030517578125 251.5023651123047 484.85772705078125 252.4106903076172 C 485.938232421875 259.0403137207031 482.58660888671875 268.93145751953125 477.1109619140625 268.9568176269531 C 469.04290771484375 272.9302978515625 453.2210388183594 266.7112731933594 451.6340637207031 269.7130432128906 C 447.0783386230469 266.2838134765625 448.29083251953125 261.21942138671875 449.0795593261719 260.159912109375 C 439.25531005859375 264.787109375 436.51763916015625 261.430419921875 437.4378662109375 256.770751953125 C 427.0049743652344 256.53790283203125 425.6866760253906 258.91583251953125 421.146728515625 262.0879211425781 C 418.550537109375 264.2499694824219 417.68865966796875 267.7218017578125 414.9350891113281 273.5905456542969 C 414.10888671875 272.6772155761719 392.43701171875 268.5981750488281 392.544677734375 264.19476318359375 C 391.8206787109375 265.1250915527344 388.9364013671875 263.3692932128906 385.7926940917969 263.8392639160156 C 382.10858154296875 261.9696960449219 380.8157653808594 263.20123291015625 376.4667663574219 261.114013671875 C 374.8507385253906 256.3506164550781 376.0321960449219 252.54971313476562 371.7130432128906 250.0203399658203 C 359.4935302734375 243.5227508544922 374.3184814453125 195.7058868408203 378.5069274902344 177.17282104492188 C 384.6543273925781 170.9016571044922 394.01318359375 176.54034423828125 384.3887634277344 197.6619873046875" stroke-width="0.0" fill="url(#shape_8_fill)"/>
    <path d="M 566.3435668945312 157.24240112304688 C 568.1705932617188 158.89309692382812 568.1452026367188 166.62057495117188 569.4114990234375 168.00900268554688 C 573.5090942382812 169.46978759765625 573.6467895507812 171.00091552734375 577.475830078125 174.44625854492188 C 581.9307250976562 172.94590759277344 583.9710693359375 174.56967163085938 583.7056274414062 179.472412109375 C 575.3656005859375 180.47653198242188 572.1514282226562 225.615234375 577.3734741210938 226.96453857421875 C 577.8737182617188 229.97430419921875 581.2953491210938 235.6916961669922 577.22705078125 241.27047729492188 C 568.8115234375 238.4073486328125 566.6412963867188 237.15432739257812 558.957275390625 247.36575317382812 C 553.72314453125 249.9365997314453 497.0291442871094 254.7425537109375 487.13299560546875 251.28761291503906 C 486.16064453125 250.24339294433594 487.1976318359375 239.6070098876953 494.4793701171875 230.37710571289062 C 486.3910827636719 226.32012939453125 483.16912841796875 222.31715393066406 481.9610900878906 215.5525665283203 C 476.8415832519531 209.90518188476562 479.4275817871094 205.86265563964844 482.7947692871094 205.9873046875 C 480.14666748046875 205.34490966796875 481.5938720703125 199.0904998779297 489.57843017578125 199.03065490722656 C 492.023681640625 196.26019287109375 491.81060791015625 192.51055908203125 492.72796630859375 187.96499633789062 C 489.3216552734375 174.21170043945312 489.5108337402344 173.27664184570312 487.72149658203125 164.45083618164062 C 504.1805114746094 164.02267456054688 505.73187255859375 164.68592834472656 515.698486328125 163.8944091796875 C 522.8067626953125 169.1420135498047 524.9527587890625 167.32801818847656 526.114990234375 167.90293884277344 C 523.2333984375 161.63259887695312 531.8719482421875 156.56378173828125 533.257080078125 158.72640991210938 C 537.596923828125 161.87469482421875 541.3685913085938 162.48184204101562 542.1458129882812 163.99913024902344 C 545.201171875 164.08738708496094 545.8046875 165.8751983642578 549.8363647460938 166.75457763671875 C 548.9375610351562 165.60629272460938 550.6621704101562 157.8307647705078 554.7706298828125 157.75193786621094 C 557.9575805664062 160.9986114501953 563.0628662109375 157.90586853027344 566.3435668945312 157.24240112304688" stroke-width="0.0" fill="url(#shape_9_fill)"/>
    <path d="M 561.1782836914062 156.529052734375 C 565.9183349609375 153.04513549804688 571.3397216796875 157.7803192138672 570.6151123046875 171.16094970703125 C 572.2948608398438 169.16249084472656 576.1683959960938 169.2054443359375 579.4722900390625 174.73052978515625 C 580.560791015625 178.1188201904297 579.002197265625 187.3926239013672 578.1849365234375 191.34336853027344 C 571.311767578125 196.5518798828125 572.0159912109375 229.97071838378906 578.09228515625 230.97633361816406 C 576.0713500976562 231.159912109375 575.6087036132812 236.841064453125 572.0639038085938 238.01576232910156 C 560.2401733398438 235.86593627929688 567.2651977539062 238.65940856933594 563.7960815429688 247.63877868652344 C 547.4130859375 253.44544982910156 501.2883605957031 249.25250244140625 500.1893615722656 251.72262573242188 C 491.0819091796875 251.8248291015625 487.8827209472656 236.98101806640625 492.76153564453125 230.42050170898438 C 486.62255859375 224.9257354736328 481.98211669921875 219.2757110595703 481.68304443359375 215.24398803710938 C 475.64288330078125 214.8543243408203 473.6778259277344 215.1612091064453 464.5752868652344 196.55514526367188 C 463.9833984375 183.5495147705078 476.8297424316406 179.26678466796875 483.0672912597656 195.47653198242188 C 489.78936767578125 197.57684326171875 494.5484313964844 184.38177490234375 496.6252136230469 182.95416259765625 C 495.3034973144531 178.86045837402344 497.5860900878906 177.68194580078125 500.1697692871094 177.44570922851562 C 507.93896484375 179.09207153320312 516.5684204101562 181.69183349609375 520.7518920898438 174.09274291992188 C 524.1102905273438 173.3983154296875 527.1983032226562 159.35496520996094 531.46044921875 155.1311798095703 C 538.2222900390625 155.92376708984375 538.6517944335938 158.9540557861328 539.1354370117188 166.10960388183594 C 545.760986328125 165.96368408203125 549.0592041015625 167.43002319335938 551.4002685546875 166.4278564453125 C 551.0648803710938 155.89488220214844 553.0394897460938 153.0705108642578 561.1782836914062 156.529052734375" stroke-width="0.0" fill="url(#shape_10_fill)"/>
    <path d="M 447.4325866699219 107.85531616210938 C 452.8153991699219 112.13123321533203 453.7727966308594 113.48987579345703 462.6454772949219 110.64107513427734 C 465.1601867675781 116.28840637207031 469.1486511230469 114.67007446289062 482.847412109375 110.30040740966797 C 489.00164794921875 124.45237731933594 488.6996765136719 125.26249694824219 491.77593994140625 130.78294372558594 C 493.5658874511719 132.12631225585938 493.5825500488281 135.0519561767578 496.9595947265625 136.34356689453125 C 494.0299987792969 135.60308837890625 492.8467102050781 138.30587768554688 489.4576721191406 141.32115173339844 C 483.2047424316406 137.84030151367188 481.9571533203125 139.81231689453125 479.32879638671875 142.82337951660156 C 468.1211242675781 138.7697296142578 466.5364074707031 137.8363494873047 465.7321472167969 134.4181671142578 C 464.36334228515625 133.56118774414062 460.7054748535156 133.56275939941406 460.45001220703125 134.22967529296875 C 461.2860412597656 133.54171752929688 479.3453063964844 143.1096649169922 494.5202331542969 151.81631469726562 C 476.6174011230469 176.90220642089844 475.5100402832031 177.27879333496094 473.98883056640625 182.79421997070312 C 467.63818359375 183.16790771484375 467.2787780761719 188.35610961914062 466.1817626953125 189.87979125976562 C 462.54437255859375 184.75399780273438 461.8504333496094 172.5818328857422 459.8912353515625 165.84747314453125 C 448.35638427734375 180.19813537597656 447.4845275878906 182.4106903076172 439.88812255859375 183.0870361328125 C 439.3697814941406 183.8502655029297 435.7552795410156 195.6532745361328 434.8204650878906 197.561767578125 C 429.32708740234375 200.3179168701172 417.5436706542969 180.57408142089844 417.6955261230469 179.7623748779297 C 416.9355773925781 179.7880859375 398.4151306152344 180.2765655517578 397.50665283203125 173.4391632080078 C 393.8306884765625 171.1533203125 389.79010009765625 176.40052795410156 379.5088195800781 174.7871856689453 C 382.3641357421875 158.79493713378906 379.9661865234375 151.24533081054688 392.57281494140625 138.95249938964844 C 398.14556884765625 137.67665100097656 399.65338134765625 129.98028564453125 402.4107666015625 120.77619171142578 C 406.99432373046875 99.0793228149414 425.2472839355469 102.82303619384766 447.4325866699219 107.85531616210938" stroke-width="0.0" fill="url(#shape_11_fill)"/>
    <path d="M 602.8689575195312 127.74156951904297 C 605.8345336914062 129.85499572753906 605.4937744140625 143.37667846679688 607.1202392578125 145.13897705078125 C 611.0928955078125 145.6523895263672 611.601318359375 149.431396484375 616.0001831054688 153.074462890625 C 618.1065063476562 149.8875274658203 618.0553588867188 141.77919006347656 621.4354248046875 141.13955688476562 C 623.00537109375 137.40162658691406 625.4352416992188 137.342529296875 627.4063110351562 140.32412719726562 C 627.3945922851562 142.16770935058594 628.9342651367188 144.77951049804688 628.8971557617188 147.20233154296875 C 632.0987548828125 149.77294921875 631.7308959960938 151.198974609375 636.3036499023438 153.72793579101562 C 642.2298583984375 154.59774780273438 642.0261840820312 160.2813720703125 647.7131958007812 170.6313934326172 C 639.2958984375 185.25796508789062 640.1148071289062 194.95347595214844 640.5518188476562 206.49063110351562 C 653.3584594726562 211.5340576171875 654.2111206054688 234.61375427246094 642.6942749023438 245.5080108642578 C 622.8211059570312 248.23226928710938 611.742919921875 249.09886169433594 578.74267578125 264.2678527832031 C 570.7730102539062 252.93142700195312 578.1286010742188 231.2163543701172 574.19091796875 216.5929412841797 C 568.0286254882812 209.0963134765625 571.6723022460938 168.86717224121094 583.1644287109375 169.791015625 C 597.2506103515625 163.61708068847656 599.5427856445312 143.51187133789062 599.91748046875 142.1843719482422 C 595.7280883789062 139.8260955810547 596.5484619140625 136.94480895996094 602.8689575195312 127.74156951904297" stroke-width="0.0" fill="url(#shape_12_fill)"/>
    <path d="M 411.4515686035156 176.62232971191406 C 419.890380859375 174.0917205810547 433.6161193847656 213.2653350830078 428.6719055175781 219.8424072265625 C 419.95330810546875 228.1630401611328 427.402587890625 237.5726318359375 431.52044677734375 243.46051025390625 C 428.6329650878906 260.6085205078125 419.90484619140625 268.4755859375 414.86578369140625 268.0841979980469 C 406.28997802734375 265.2778015136719 402.24005126953125 271.7914733886719 390.7607116699219 267.906494140625 C 385.5226135253906 264.9850158691406 382.5005798339844 266.19085693359375 379.762939453125 265.5677795410156 C 375.0233154296875 264.0556945800781 374.8975830078125 261.1603698730469 375.0833435058594 258.4869689941406 C 376.3244934082031 255.67691040039062 374.5825500488281 254.5314178466797 374.8442077636719 253.72537231445312 C 371.9329528808594 255.14791870117188 369.8785095214844 251.28875732421875 368.4093322753906 251.8988037109375 C 360.6150817871094 247.98272705078125 366.0664978027344 228.9971160888672 367.2071533203125 221.70706176757812 C 369.3918762207031 219.04904174804688 372.168212890625 202.74366760253906 381.7362976074219 203.18814086914062 C 379.4343566894531 193.29849243164062 379.0375061035156 192.2876434326172 389.76849365234375 188.15406799316406 C 391.45611572265625 177.60289001464844 392.9244384765625 176.7203826904297 411.4515686035156 176.62232971191406" stroke-width="0.0" fill="url(#shape_13_fill)"/>
    <path d="M 508.28619384765625 67.04027557373047 C 512.3767700195312 66.1065902709961 520.583740234375 70.6440200805664 521.9937133789062 76.21987915039062 C 530.8734741210938 79.37425994873047 534.3660278320312 79.97647094726562 537.1773681640625 88.47187042236328 C 539.3251953125 90.86183166503906 544.5418701171875 90.28831481933594 545.0235595703125 91.17158508300781 C 545.53662109375 92.74304962158203 556.1799926757812 96.82274627685547 559.2689819335938 95.47036743164062 C 563.4739379882812 97.59620666503906 567.349853515625 97.50727844238281 568.73876953125 98.70938873291016 C 564.2935791015625 105.45832061767578 557.3070068359375 115.5757827758789 541.77294921875 110.794921875 C 541.3897705078125 111.83906555175781 539.3764038085938 114.96333312988281 534.7314453125 118.40913391113281 C 527.80078125 120.75899505615234 519.8511352539062 124.49984741210938 515.61279296875 118.69465637207031 C 511.6799621582031 120.8125991821289 501.5430603027344 125.62476348876953 499.67193603515625 125.86701965332031 C 497.5943298339844 128.77333068847656 493.9064636230469 128.5950164794922 489.5994873046875 127.22063446044922 C 489.5064697265625 119.24009704589844 468.83453369140625 118.63520050048828 468.13287353515625 117.64147186279297 C 463.53631591796875 117.80490112304688 462.93505859375 116.68035125732422 462.1439208984375 116.09099578857422 C 469.8372497558594 118.95049285888672 473.6867980957031 113.07112884521484 477.6488342285156 108.05282592773438 C 474.7406311035156 93.55457305908203 473.2917785644531 85.82331848144531 474.83837890625 81.9101791381836 C 474.5901184082031 70.93363189697266 475.3431396484375 70.38601684570312 478.0222473144531 66.32887268066406 C 478.6905517578125 63.93566131591797 482.53466796875 63.918216705322266 484.2113952636719 63.155757904052734 C 495.8659973144531 64.15676879882812 502.498046875 61.128841400146484 508.28619384765625 67.04027557373047" stroke-width="0.0" fill="url(#shape_14_fill)"/>
    <path d="M 533.7710571289062 160.79925537109375 C 543.9349975585938 162.581787109375 544.230224609375 163.42787170410156 546.6260375976562 165.2291717529297 C 549.7055053710938 167.59530639648438 549.5796508789062 170.2244873046875 544.0672607421875 179.82505798339844 C 542.270263671875 189.9884033203125 536.9292602539062 231.34120178222656 536.5825805664062 233.12881469726562 C 540.7828979492188 237.90219116210938 541.1195678710938 251.42315673828125 516.301513671875 252.39463806152344 C 502.8078308105469 251.46250915527344 483.3903503417969 243.1532440185547 487.9637145996094 230.54464721679688 C 476.66705322265625 218.92149353027344 479.0008850097656 208.4481201171875 482.4602355957031 201.16598510742188 C 486.4194030761719 197.4676513671875 487.9862060546875 197.45217895507812 488.971435546875 198.79483032226562 C 482.8172912597656 195.74346923828125 488.7835998535156 183.42518615722656 487.5422058105469 173.01266479492188 C 487.4637451171875 167.46810913085938 489.0177001953125 166.15443420410156 491.3019104003906 167.0071563720703 C 505.5539245605469 178.88844299316406 511.1820373535156 184.18804931640625 522.7351684570312 172.73167419433594 C 525.5548706054688 170.96067810058594 525.5433959960938 167.31349182128906 526.7979125976562 165.15185546875 C 525.6814575195312 159.42111206054688 528.8109741210938 158.40599060058594 533.7710571289062 160.79925537109375" stroke-width="0.0" fill="url(#shape_15_fill)"/>
    <path d="M 651.6787719726562 109.78319549560547 C 653.945556640625 110.50360870361328 664.078125 121.74999237060547 659.7255859375 133.1843719482422 C 664.087890625 136.1508331298828 664.6084594726562 142.98202514648438 673.35791015625 148.07962036132812 C 676.7238159179688 179.21351623535156 673.548583984375 211.4564208984375 676.1180419921875 266.8122253417969 C 675.0362548828125 265.2139892578125 636.2770385742188 272.7182922363281 630.3977661132812 263.64306640625 C 637.161376953125 244.89402770996094 642.9533081054688 124.10857391357422 651.6787719726562 109.78319549560547" stroke-width="0.0" fill="url(#shape_16_fill)"/>
    <path d="M 601.3884887695312 129.57501220703125 C 603.4412231445312 128.11778259277344 606.3268432617188 131.9452362060547 606.18701171875 134.12545776367188 C 608.8993530273438 135.00067138671875 606.9054565429688 141.23855590820312 609.2218017578125 143.59246826171875 C 628.4096069335938 143.0145263671875 630.7471923828125 217.635498046875 633.4577026367188 266.7838439941406 C 583.1150512695312 271.1993713378906 575.6585693359375 263.62994384765625 579.5572509765625 239.8206787109375 C 561.6499633789062 226.019287109375 598.0630493164062 155.0784912109375 601.3884887695312 129.57501220703125" stroke-width="0.0" fill="url(#shape_17_fill)"/>
    <path d="M 320.3667297363281 186.26966857910156 C 320.78515625 186.5108642578125 322.18463134765625 189.43170166015625 321.25018310546875 199.73382568359375 C 332.7210388183594 194.05709838867188 333.6448059082031 193.3011016845703 337.4085998535156 196.06832885742188 C 343.74993896484375 200.1233673095703 346.4054260253906 197.812744140625 353.6211853027344 192.97535705566406 C 358.8136901855469 193.32896423339844 359.49359130859375 193.6807403564453 356.4508056640625 201.787841796875 C 359.3656921386719 204.13479614257812 361.6267395019531 204.202880859375 364.54876708984375 209.80413818359375 C 367.3112487792969 207.144775390625 368.5179138183594 208.18592834472656 368.2419738769531 211.80943298339844 C 370.3513488769531 220.015869140625 370.3076171875 223.00741577148438 365.9558410644531 225.714599609375 C 366.08807373046875 231.4949493408203 364.01416015625 236.19204711914062 366.7649841308594 247.8803253173828 C 369.4713439941406 252.46888732910156 366.7706298828125 256.1516418457031 358.0601806640625 254.62460327148438 C 354.1423034667969 255.781005859375 326.75701904296875 255.01560974121094 322.9456481933594 255.33810424804688 C 313.34210205078125 255.99620056152344 312.1009216308594 253.67446899414062 308.2832336425781 243.37738037109375 C 304.2386779785156 229.67210388183594 320.9786682128906 194.85057067871094 320.3667297363281 186.26966857910156" stroke-width="0.0" fill="url(#shape_18_fill)"/>
    <path d="M 478.5840148925781 222.6372833251953 C 501.23876953125 250.66238403320312 512.2271118164062 263.98583984375 493.2418212890625 279.63250732421875 C 470.5943908691406 279.3790588378906 443.98114013671875 261.5586242675781 442.13043212890625 261.75115966796875 C 438.7658996582031 260.5139465332031 437.1820983886719 258.2113342285156 432.632080078125 258.06048583984375 C 429.45977783203125 258.59234619140625 428.1507568359375 256.7799987792969 429.2878723144531 253.8648681640625 C 432.6369323730469 236.73587036132812 422.4766540527344 234.30050659179688 422.9480285644531 229.7054443359375 C 423.1488342285156 226.8987579345703 421.1129150390625 226.70602416992188 420.2026062011719 225.0856475830078 C 427.7847595214844 219.61032104492188 429.6963806152344 218.85179138183594 428.4334411621094 215.01699829101562 C 439.56341552734375 197.54568481445312 477.4830627441406 198.0157928466797 478.5840148925781 222.6372833251953" stroke-width="0.0" fill="url(#shape_19_fill)"/>
    <path d="M 673.9054565429688 -3.008694648742676 C 675.0673828125 32.84967041015625 674.5833740234375 64.76375579833984 674.415771484375 97.24385833740234 C 669.7154541015625 95.92790222167969 653.1455688476562 87.89720916748047 644.8714599609375 90.0544204711914 C 638.5989379882812 89.5263671875 638.1243896484375 86.00853729248047 637.4467163085938 84.28113555908203 C 626.2476196289062 84.56673431396484 620.0206909179688 93.05618286132812 608.16796875 86.60693359375 C 609.88525390625 74.76080322265625 612.3389892578125 73.6124496459961 614.4678344726562 71.65912628173828 C 622.6016235351562 68.77534484863281 648.66845703125 25.125259399414062 647.45458984375 20.880504608154297 C 655.2402954101562 8.453669548034668 656.4470825195312 2.9600512981414795 668.6304321289062 3.614192247390747 C 669.8178100585938 2.684891700744629 670.1141357421875 1.0781975984573364 673.9054565429688 -3.008694648742676" stroke-width="0.0" fill="url(#shape_20_fill)"/>
    <path d="M 561.8607177734375 155.95555114746094 C 569.8734741210938 156.4683074951172 569.9454956054688 161.57774353027344 573.2157592773438 165.46522521972656 C 583.8228149414062 168.34178161621094 574.5308837890625 231.13937377929688 576.6947631835938 240.66485595703125 C 577.173095703125 244.8924102783203 576.6932373046875 246.884033203125 577.4136962890625 265.99920654296875 C 547.6968994140625 261.42999267578125 541.4144287109375 257.1727600097656 540.0852661132812 246.59591674804688 C 544.7349853515625 244.72958374023438 543.2508544921875 166.16372680664062 555.0844116210938 157.069091796875 C 555.471435546875 153.07301330566406 559.1372680664062 151.9175567626953 561.8607177734375 155.95555114746094" stroke-width="0.0" fill="url(#shape_21_fill)"/>
    <path d="M 214.9456024169922 209.8868408203125 C 233.82762145996094 208.9940185546875 236.24417114257812 240.82000732421875 221.82225036621094 256.6622314453125 C 211.7154083251953 263.2581481933594 209.6570281982422 264.24285888671875 208.95091247558594 273.1566162109375 C 205.88632202148438 275.3527526855469 206.7998504638672 277.1114807128906 206.19187927246094 280.09051513671875 C 206.74472045898438 282.9309997558594 203.3673553466797 285.6445007324219 201.26318359375 284.9483642578125 C 201.03164672851562 283.28656005859375 190.4291534423828 272.80462646484375 188.21864318847656 264.51739501953125 C 186.5543212890625 261.7224426269531 183.67477416992188 262.687744140625 181.49310302734375 262.50750732421875 C 180.8450164794922 260.5475769042969 180.2095184326172 260.5162658691406 178.43836975097656 252.4963836669922 C 178.8340301513672 248.22364807128906 168.75340270996094 241.4865264892578 170.66441345214844 238.3939666748047 C 175.97178649902344 213.1352996826172 177.07420349121094 213.3137664794922 185.6236114501953 220.53851318359375 C 193.82870483398438 219.43174743652344 194.18789672851562 215.26795959472656 198.54696655273438 213.24884033203125 C 185.08615112304688 206.86419677734375 185.10711669921875 201.7896728515625 199.888916015625 196.74647521972656 C 213.42996215820312 194.17860412597656 214.83621215820312 197.2816925048828 214.9456024169922 209.8868408203125" stroke-width="0.0" fill="url(#shape_22_fill)"/>
    <path d="M 111.61003875732422 426.3092041015625 C 112.73120880126953 429.2802429199219 111.01331329345703 431.19586181640625 110.66239166259766 431.5155944824219 C 104.15203857421875 432.9698181152344 104.01177215576172 433.85858154296875 91.91333770751953 432.9655456542969 C 89.76649475097656 435.9672546386719 95.67616271972656 446.421630859375 91.6136245727539 452.1399841308594 C 78.66380310058594 444.9972229003906 46.938175201416016 447.9271240234375 25.103591918945312 449.63232421875 C 14.023991584777832 446.2332763671875 13.887737274169922 439.7658386230469 17.93101692199707 436.3750915527344 C 34.682212829589844 427.6526184082031 50.16779708862305 426.6797180175781 71.99905395507812 427.1662902832031 C 73.6888656616211 423.89801025390625 109.98538208007812 420.5683898925781 111.61003875732422 426.3092041015625" stroke-width="0.0" fill="url(#shape_23_fill)"/>
    <path d="M 194.10205078125 123.87577819824219 C 200.5732421875 124.52924346923828 210.63241577148438 145.05418395996094 214.56887817382812 145.1640167236328 C 215.6288299560547 148.25860595703125 218.55563354492188 149.72659301757812 220.49163818359375 153.86793518066406 C 227.25645446777344 158.4725799560547 247.897216796875 177.89532470703125 244.7472381591797 199.14027404785156 C 239.22862243652344 199.5252227783203 235.68031311035156 186.8679962158203 232.25685119628906 180.028076171875 C 234.88546752929688 187.01576232910156 233.3359375 195.94882202148438 230.5852508544922 197.0950927734375 C 227.63565063476562 197.51458740234375 225.9658203125 202.98951721191406 220.27264404296875 208.578857421875 C 215.25177001953125 207.6495819091797 213.660888671875 198.65386962890625 213.2489013671875 196.71615600585938 C 212.22821044921875 190.2322235107422 212.1097869873047 183.74343872070312 206.48655700683594 177.89707946777344 C 203.9217071533203 174.03074645996094 204.98526000976562 173.01693725585938 205.62759399414062 167.40611267089844 C 202.7111358642578 147.5575714111328 199.392333984375 146.99124145507812 192.4613037109375 143.94912719726562 C 189.3267059326172 142.3478240966797 191.34469604492188 128.44590759277344 194.10205078125 123.87577819824219" stroke-width="0.0" fill="url(#shape_24_fill)"/>
    <path d="M 595.0667724609375 408.0868835449219 C 598.7601318359375 410.1238098144531 627.4410400390625 407.8234558105469 630.257080078125 413.9437561035156 C 630.1101684570312 421.4486999511719 627.6280517578125 425.56964111328125 628.8560180664062 426.6071472167969 C 630.5288696289062 427.8326416015625 635.9744873046875 428.06005859375 639.6886596679688 436.89080810546875 C 618.3016967773438 447.4604187011719 578.22607421875 439.1413879394531 572.5926513671875 434.9070129394531 C 567.7489013671875 427.1687316894531 573.8689575195312 419.54754638671875 576.7343139648438 413.6330871582031 C 579.4500122070312 409.3476867675781 587.23828125 414.18505859375 595.0667724609375 408.0868835449219" stroke-width="0.0" fill="url(#shape_25_fill)"/>
    <path d="M 142.91348266601562 66.73893737792969 C 144.07257080078125 68.93616485595703 149.17002868652344 68.19305419921875 149.630859375 69.12000274658203 C 148.90045166015625 70.89839935302734 150.46743774414062 71.8221435546875 149.7545166015625 73.87741088867188 C 151.09396362304688 74.45010375976562 150.12950134277344 78.46257781982422 150.45587158203125 80.72117614746094 C 152.2158203125 89.430419921875 152.94924926757812 97.61872863769531 153.92208862304688 104.1056137084961 C 153.5081787109375 107.62117767333984 155.12286376953125 108.5166244506836 155.29208374023438 111.40687561035156 C 158.095458984375 123.44149780273438 155.34185791015625 133.5184783935547 150.41140747070312 133.5853729248047 C 143.01939392089844 126.84087371826172 137.37689208984375 119.93439483642578 126.05352020263672 117.04610443115234 C 122.53559112548828 114.19300079345703 124.52416229248047 109.6162338256836 126.672119140625 106.79473114013672 C 128.81072998046875 106.8415298461914 128.870849609375 105.27787017822266 132.65573120117188 104.71714782714844 C 138.33230590820312 96.84992980957031 134.84141540527344 92.83368682861328 133.06292724609375 89.45654296875 C 134.095458984375 88.4623794555664 139.32586669921875 87.31305694580078 140.1632843017578 85.35662841796875 C 138.2367706298828 84.74642181396484 138.81134033203125 77.64298248291016 139.5081329345703 77.47836303710938 C 143.60459899902344 76.59844970703125 142.68753051757812 70.36140441894531 142.91348266601562 66.73893737792969" stroke-width="0.0" fill="url(#shape_26_fill)"/>
    <path d="M 139.7744903564453 67.69867706298828 C 148.93930053710938 66.96412658691406 149.759033203125 68.18415832519531 148.7601318359375 77.047119140625 C 150.47265625 78.32998657226562 151.09310913085938 80.6995849609375 154.6453094482422 84.99900817871094 C 150.2387237548828 90.5067138671875 154.9094696044922 95.06078338623047 151.3266143798828 105.13086700439453 C 152.88768005371094 105.90263366699219 153.52496337890625 109.3924789428711 155.65379333496094 113.07267761230469 C 152.612060546875 116.20819091796875 157.9290771484375 121.91828918457031 154.53897094726562 126.4685287475586 C 152.55133056640625 132.0251007080078 151.3246307373047 133.1692657470703 147.50360107421875 133.98507690429688 C 141.80528259277344 131.37945556640625 128.36692810058594 121.948974609375 129.2766571044922 117.56761932373047 C 124.55587005615234 118.64612579345703 122.58236694335938 113.37273406982422 128.24977111816406 110.4734878540039 C 122.90223693847656 108.19998931884766 124.34211730957031 104.60012817382812 133.5748291015625 107.22184753417969 C 136.45286560058594 105.74299621582031 133.41136169433594 92.83267211914062 132.81199645996094 89.10948181152344 C 139.4879608154297 87.32240295410156 138.87094116210938 84.98471069335938 138.81033325195312 81.37467956542969 C 139.07411193847656 77.50732421875 140.36471557617188 76.81566619873047 142.26280212402344 78.04023742675781 C 145.322021484375 72.3172607421875 142.65516662597656 70.39521026611328 139.7744903564453 67.69867706298828" stroke-width="0.0" fill="url(#shape_27_fill)"/>
    <path d="M -0.3506629765033722 -0.27343443036079407 C 4.711533546447754 0.3839291036128998 9.664983749389648 -0.5282341837882996 19.005632400512695 -0.9138993620872498 C 25.46890640258789 -1.4742313623428345 25.74405860900879 -0.7251580953598022 48.03608322143555 1.700947642326355 C 43.48408508300781 25.7763614654541 28.218517303466797 25.10449981689453 27.481552124023438 24.16499900817871 C 50.79872131347656 15.41529369354248 59.17655944824219 15.841426849365234 61.06208038330078 53.07802963256836 C 38.302547454833984 55.35459899902344 27.512731552124023 55.716548919677734 18.473102569580078 50.17817306518555 C 15.49642276763916 39.37743377685547 11.401053428649902 38.24901580810547 9.994559288024902 33.61507797241211 C 10.02086067199707 35.855648040771484 14.45631217956543 39.31011199951172 14.604262351989746 41.04310989379883 C 15.976998329162598 42.21099853515625 15.65672779083252 44.95615005493164 18.215761184692383 47.854713439941406 C 20.081981658935547 51.06940841674805 18.76717758178711 52.30602264404297 21.23465347290039 57.20267105102539 C 21.428234100341797 65.35214233398438 15.790406227111816 67.30912017822266 8.49543285369873 61.46158218383789 C 5.492301940917969 60.886962890625 3.534238338470459 59.141075134277344 0.32197821140289307 59.43637466430664 C -0.3184262812137604 39.784175872802734 -0.32490023970603943 19.629817962646484 -0.3506629765033722 -0.27343443036079407" stroke-width="0.0" fill="url(#shape_28_fill)"/>
    <path d="M 299.0516052246094 197.16152954101562 C 297.95025634765625 199.50357055664062 300.1022033691406 202.36151123046875 301.2762756347656 207.58706665039062 C 299.91033935546875 213.6067352294922 325.4705810546875 224.52713012695312 316.2345886230469 255.52810668945312 C 311.8234558105469 254.2167205810547 310.602294921875 255.82318115234375 304.3750915527344 255.01901245117188 C 302.9246826171875 258.1483154296875 293.7235412597656 258.4649963378906 281.1105651855469 256.0243835449219 C 278.32733154296875 225.2119140625 284.86090087890625 219.76840209960938 299.0516052246094 197.16152954101562" stroke-width="0.0" fill="url(#shape_29_fill)"/>
    <path d="M 0.0024144877679646015 -0.11254536360502243 C 4.5380167961120605 0.4437565207481384 9.703851699829102 -0.4134911596775055 14.656506538391113 0.11147342622280121 C 15.870538711547852 0.4834679961204529 16.568891525268555 3.822327136993408 16.47258186340332 8.008665084838867 C 18.83818817138672 10.915360450744629 21.755800247192383 18.98586654663086 27.340070724487305 20.614540100097656 C 27.16737174987793 22.517562866210938 24.028125762939453 26.69115447998047 24.696002960205078 32.069183349609375 C 20.070480346679688 32.38045883178711 12.629936218261719 29.94797134399414 5.623045921325684 33.670223236083984 C 8.995311737060547 35.98686981201172 8.748125076293945 38.825347900390625 10.87261962890625 40.46773147583008 C 10.191577911376953 43.87154769897461 7.649768352508545 49.439605712890625 11.70737361907959 53.7604866027832 C 17.72036361694336 51.268924713134766 19.49814224243164 51.785701751708984 18.511011123657227 58.322914123535156 C 11.328317642211914 60.758853912353516 9.419962882995605 62.604305267333984 0.18811912834644318 61.48150634765625 C -0.4237297475337982 39.97203826904297 -0.3545732796192169 19.755525588989258 0.0024144877679646015 -0.11254536360502243" stroke-width="0.0" fill="url(#shape_30_fill)"/>
    <path d="M 548.8342895507812 70.5666732788086 C 546.1694946289062 77.80362701416016 576.6049194335938 89.59883880615234 581.3978881835938 91.72142028808594 C 580.915771484375 92.8232650756836 577.3748168945312 93.33838653564453 577.1488037109375 98.29344177246094 C 573.278076171875 100.7200698852539 572.0679931640625 99.81632232666016 569.173828125 100.02277374267578 C 568.2947998046875 94.7179946899414 546.2738647460938 98.04661560058594 538.9057006835938 88.26893615722656 C 538.2021484375 85.52025604248047 538.7655029296875 82.9151840209961 535.7520141601562 82.2281494140625 C 534.3936767578125 80.10829162597656 527.2435302734375 79.72341918945312 527.1683349609375 78.3599624633789 C 525.20703125 75.81365966796875 527.7882080078125 70.88008117675781 531.9745483398438 68.8653793334961 C 538.8955688476562 67.0183334350586 542.669189453125 71.60995483398438 548.8342895507812 70.5666732788086" stroke-width="0.0" fill="url(#shape_31_fill)"/>
    <path d="M 447.0576171875 264.43072509765625 C 450.6572265625 265.2823181152344 451.28460693359375 266.73736572265625 455.79840087890625 267.7550964355469 C 460.5113830566406 267.6551208496094 465.32232666015625 270.3759765625 469.94189453125 273.1077880859375 C 470.4309997558594 275.6334533691406 471.828857421875 276.888671875 471.6768798828125 280.7597351074219 C 451.64129638671875 287.3670654296875 430.1627197265625 284.0290222167969 415.774658203125 285.1627502441406 C 413.4501953125 273.9022216796875 414.9854431152344 272.33099365234375 415.5455322265625 268.1685485839844 C 418.1893615722656 267.2064208984375 417.7636413574219 264.8003845214844 419.3626403808594 263.12310791015625 C 440.8625793457031 253.12832641601562 446.6053161621094 253.0789337158203 447.0576171875 264.43072509765625" stroke-width="0.0" fill="url(#shape_32_fill)"/>
    <path d="M 272.59649658203125 192.3576202392578 C 275.2645568847656 192.25450134277344 287.2372741699219 243.68466186523438 281.9261779785156 246.376220703125 C 279.6659851074219 248.06407165527344 273.962158203125 246.91383361816406 269.5142822265625 248.8596649169922 C 266.30413818359375 246.2021942138672 266.6489562988281 242.33799743652344 261.0184020996094 240.72134399414062 C 254.4160919189453 209.32237243652344 262.5863342285156 206.2104034423828 272.59649658203125 192.3576202392578" stroke-width="0.0" fill="url(#shape_33_fill)"/>
    <path d="M 267.1562194824219 411.2825012207031 C 263.006591796875 426.9434509277344 264.7653503417969 430.6704406738281 268.0478210449219 440.3067932128906 C 262.5048522949219 440.845703125 260.69525146484375 446.4462890625 258.3373718261719 447.86199951171875 C 245.6008758544922 445.8458557128906 215.60946655273438 448.611083984375 212.50634765625 444.9305725097656 C 213.02342224121094 436.99578857421875 213.95974731445312 436.2222900390625 216.02166748046875 434.6143493652344 C 216.3421630859375 433.529541015625 225.06317138671875 433.729248046875 226.7043914794922 430.663818359375 C 227.94102478027344 418.9263916015625 236.61492919921875 418.88555908203125 267.1562194824219 411.2825012207031" stroke-width="0.0" fill="url(#shape_34_fill)"/>
    <path d="M 105.52930450439453 69.77206420898438 C 110.04531860351562 69.6153564453125 110.92323303222656 79.2449722290039 112.69454956054688 85.44513702392578 C 117.69798278808594 86.11319732666016 116.7735366821289 110.26660919189453 118.06777954101562 110.70996856689453 C 116.744384765625 112.563720703125 110.5959243774414 114.38346862792969 106.89094543457031 124.77066040039062 C 104.64944458007812 117.1509780883789 96.50244903564453 118.83526611328125 88.57929229736328 110.43316650390625 C 87.18524932861328 85.80088806152344 106.11358642578125 84.66307830810547 105.52930450439453 69.77206420898438" stroke-width="0.0" fill="url(#shape_35_fill)"/>
    <path d="M 451.2426452636719 178.4390869140625 C 453.7729187011719 176.0445556640625 456.1917724609375 177.89305114746094 455.43353271484375 180.4178009033203 C 456.0157775878906 180.9101104736328 455.14508056640625 185.46070861816406 456.2953186035156 186.0931854248047 C 456.01318359375 188.57569885253906 459.1540832519531 194.09942626953125 459.1711120605469 204.48756408691406 C 459.3157653808594 208.533203125 451.5394592285156 209.5023956298828 445.9917907714844 204.32933044433594 C 441.4522705078125 207.3893280029297 441.1074523925781 208.77389526367188 432.9278869628906 210.92893981933594 C 435.2225036621094 209.921875 436.9765625 189.00308227539062 438.0869140625 177.72561645507812 C 440.5641784667969 179.26791381835938 442.8781433105469 182.0345916748047 446.6429748535156 181.003173828125 C 447.8282470703125 179.49986267089844 450.1182556152344 179.63780212402344 451.2426452636719 178.4390869140625" stroke-width="0.0" fill="url(#shape_36_fill)"/>
    <path d="M 557.4956665039062 84.44342041015625 C 561.3421020507812 80.7306900024414 578.4835815429688 82.79911041259766 580.015380859375 85.69044494628906 C 581.2922973632812 83.48263549804688 586.2877197265625 85.51227569580078 587.5943603515625 88.63545227050781 C 596.8887939453125 102.39288330078125 588.3607177734375 110.05735778808594 574.3616943359375 100.54322814941406 C 573.7824096679688 99.5354995727539 552.6356811523438 97.2950210571289 545.6392211914062 85.7454605102539 C 538.4449462890625 85.87371826171875 537.9567260742188 82.58586120605469 536.1151123046875 80.21483612060547 C 543.2122802734375 74.60677337646484 547.1209716796875 78.75920104980469 557.4956665039062 84.44342041015625" stroke-width="0.0" fill="url(#shape_37_fill)"/>
    <path d="M 251.794189453125 207.31944274902344 C 265.6740417480469 212.82481384277344 261.4934997558594 237.41571044921875 260.04638671875 247.62657165527344 C 259.67327880859375 254.5325469970703 251.07528686523438 254.71185302734375 249.34523010253906 257.29034423828125 C 234.61158752441406 237.58433532714844 241.3568115234375 215.49261474609375 251.794189453125 207.31944274902344" stroke-width="0.0" fill="url(#shape_38_fill)"/>
    <path d="M 442.68231201171875 263.33905029296875 C 446.1264343261719 263.3522033691406 449.2304992675781 266.5450744628906 447.8861083984375 270.0738525390625 C 444.6662902832031 270.40380859375 442.6727294921875 277.2917175292969 440.5514831542969 277.9092712402344 C 439.1717224121094 286.7294921875 427.8950500488281 285.32611083984375 418.1638488769531 275.7248840332031 C 414.5034484863281 276.7992248535156 413.345458984375 274.4273376464844 416.29241943359375 271.6365966796875 C 415.1529846191406 269.942138671875 419.2839660644531 262.2109375 425.5033874511719 257.9959411621094 C 426.7166442871094 257.37994384765625 439.5478515625 257.53076171875 442.68231201171875 263.33905029296875" stroke-width="0.0" fill="url(#shape_39_fill)"/>
    <path d="M 407.6975402832031 409.8487243652344 C 408.6632385253906 409.8993835449219 416.77288818359375 419.08465576171875 413.9224853515625 424.3326416015625 C 399.4765625 435.2513732910156 386.0765380859375 420.9730224609375 376.58697509765625 420.86492919921875 C 371.0838928222656 417.9578552246094 371.2345886230469 416.5549011230469 372.6664123535156 410.4323425292969 C 375.0106506347656 400.90850830078125 393.14715576171875 404.2513732910156 407.6975402832031 409.8487243652344" stroke-width="0.0" fill="url(#shape_40_fill)"/>
    <path d="M 66.44039154052734 427.5082702636719 C 67.26244354248047 429.0068664550781 64.27181243896484 433.04547119140625 58.753334045410156 435.1834411621094 C 57.38902282714844 436.42047119140625 39.49335479736328 435.7342224121094 32.033226013183594 442.88531494140625 C 29.414875030517578 443.63079833984375 27.665996551513672 444.0961608886719 17.318939208984375 442.7674865722656 C 16.448640823364258 440.6506652832031 17.902738571166992 439.20867919921875 17.354568481445312 437.74615478515625 C 35.571807861328125 427.255859375 53.65166091918945 428.03271484375 66.44039154052734 427.5082702636719" stroke-width="0.0" fill="url(#shape_41_fill)"/>
    <path d="M 278.35675048828125 381.0436706542969 C 284.6174011230469 381.2210693359375 297.88812255859375 381.25189208984375 306.7622375488281 385.3210754394531 C 297.0489501953125 394.7465515136719 299.3100891113281 401.04254150390625 294.4609375 405.2057800292969 C 291.7517395019531 400.0201721191406 266.600341796875 406.2833251953125 259.1871643066406 407.93408203125 C 247.63705444335938 404.545654296875 242.91427612304688 398.0604553222656 243.9896240234375 383.5281677246094 C 260.8139343261719 380.3257141113281 267.20843505859375 381.7844543457031 278.35675048828125 381.0436706542969" stroke-width="0.0" fill="url(#shape_42_fill)"/>
    <path d="M 222.54762268066406 208.20184326171875 C 224.02606201171875 207.35569763183594 239.02569580078125 207.3679962158203 239.53306579589844 211.72097778320312 C 241.7585906982422 221.57485961914062 245.0859832763672 242.9183349609375 254.31854248046875 269.2301330566406 C 251.21408081054688 274.1809997558594 242.4574737548828 273.001220703125 208.8528289794922 272.3758850097656 C 208.08177185058594 266.1517639160156 205.35247802734375 252.09359741210938 216.5040740966797 247.74766540527344 C 219.30084228515625 246.4638671875 218.18109130859375 226.4234619140625 222.54762268066406 208.20184326171875" stroke-width="0.0" fill="url(#shape_43_fill)"/>
    <path d="M 483.5172119140625 396.0911865234375 C 486.7892150878906 399.81268310546875 485.7884216308594 400.9774475097656 483.4716796875 401.0201416015625 C 471.6815490722656 407.2189636230469 451.1646423339844 406.8374938964844 450.26348876953125 407.6123962402344 C 448.1580810546875 404.4191589355469 451.64190673828125 396.1816101074219 453.6405334472656 396.5218811035156 C 464.9921875 393.14666748046875 471.6337585449219 392.4324035644531 483.5172119140625 396.0911865234375" stroke-width="0.0" fill="url(#shape_44_fill)"/>
    <path d="M 45.7696418762207 408.07489013671875 C 45.358123779296875 408.6090087890625 35.78329849243164 411.7642822265625 33.31247329711914 412.854248046875 C 32.59526062011719 414.4501647949219 32.08981704711914 415.8434143066406 27.95342445373535 414.78375244140625 C 27.136362075805664 416.6883850097656 24.584688186645508 417.5820617675781 21.25798988342285 420.41064453125 C 18.807897567749023 420.2065734863281 0.10971668362617493 417.42840576171875 -0.7065322995185852 420.5557556152344 C 1.7335933446884155 419.4835205078125 -0.9715898036956787 411.1930847167969 0.961169421672821 410.212158203125 C 6.520700454711914 409.5601806640625 45.45744705200195 406.3699951171875 45.7696418762207 408.07489013671875" stroke-width="0.0" fill="url(#shape_45_fill)"/>
    <path d="M 452.1822814941406 174.55271911621094 C 453.8889465332031 174.9966583251953 464.6623840332031 198.71546936035156 466.5126037597656 199.7513427734375 C 462.6570739746094 209.39149475097656 451.48309326171875 209.22117614746094 449.4634094238281 206.50326538085938 C 448.3166809082031 203.25831604003906 449.0124816894531 198.31846618652344 448.8520812988281 195.29864501953125 C 447.95965576171875 194.5628204345703 447.59185791015625 192.09580993652344 448.5172119140625 188.00668334960938 C 451.0013427734375 186.64804077148438 450.5715637207031 182.86874389648438 452.1822814941406 174.55271911621094" stroke-width="0.0" fill="url(#shape_46_fill)"/>
    <path d="M 372.7749938964844 184.96762084960938 C 379.3569030761719 197.0247802734375 380.24249267578125 202.47964477539062 371.623291015625 205.90431213378906 C 365.86480712890625 206.82293701171875 364.772216796875 204.850341796875 361.7098693847656 206.15855407714844 C 339.75531005859375 211.85702514648438 336.2013854980469 203.35374450683594 353.42999267578125 188.83229064941406 C 356.6790466308594 184.9776153564453 358.3739929199219 184.39547729492188 368.1666564941406 185.4719696044922 C 368.9737548828125 183.2736053466797 372.284423828125 183.78964233398438 372.7749938964844 184.96762084960938" stroke-width="0.0" fill="url(#shape_47_fill)"/>
    <path d="M 472.35540771484375 264.0082092285156 C 474.64874267578125 267.3803405761719 480.59649658203125 270.3043518066406 481.2874755859375 284.24664306640625 C 464.97320556640625 287.29876708984375 447.5929260253906 287.3203430175781 444.37445068359375 284.95013427734375 C 439.35101318359375 282.18597412109375 440.0052795410156 276.9587707519531 441.10992431640625 276.3974914550781 C 448.7918701171875 266.6429443359375 455.6288146972656 262.39239501953125 472.35540771484375 264.0082092285156" stroke-width="0.0" fill="url(#shape_48_fill)"/>
    <path d="M 177.02430725097656 116.86882019042969 C 177.92538452148438 115.46699523925781 181.72256469726562 116.15776062011719 182.72036743164062 117.3006820678711 C 184.67611694335938 120.26725006103516 183.84994506835938 122.3479232788086 184.79063415527344 123.08515930175781 C 179.5550537109375 127.45085144042969 185.62791442871094 136.7136993408203 182.75491333007812 139.6064910888672 C 181.81004333496094 146.77894592285156 172.8350830078125 146.25181579589844 171.9873809814453 146.91700744628906 C 171.88478088378906 127.03244018554688 170.8642578125 124.54548645019531 177.02430725097656 116.86882019042969" stroke-width="0.0" fill="url(#shape_49_fill)"/>
    <path d="M 333.3735046386719 427.18316650390625 C 336.6159973144531 429.2850646972656 341.7697448730469 428.7939453125 343.2933654785156 431.7682800292969 C 346.3681640625 435.5815124511719 345.15850830078125 437.220947265625 342.39752197265625 437.5679931640625 C 342.7450256347656 446.95458984375 324.9158020019531 449.2528381347656 324.2145080566406 444.0317687988281 C 321.50775146484375 436.213134765625 321.5724792480469 432.59796142578125 306.6429443359375 429.75885009765625 C 319.826171875 426.23394775390625 327.92132568359375 429.51019287109375 333.3735046386719 427.18316650390625" stroke-width="0.0" fill="url(#shape_50_fill)"/>
    <path d="M 309.3990173339844 388.5462341308594 C 305.16827392578125 395.7635803222656 292.7795715332031 396.3260498046875 291.8350830078125 399.114501953125 C 279.1051940917969 397.44146728515625 277.89617919921875 399.23248291015625 271.30999755859375 402.4483337402344 C 271.16656494140625 401.60601806640625 269.8346862792969 398.9372863769531 271.4608154296875 397.49334716796875 C 270.1517028808594 395.53814697265625 273.2378234863281 388.3218078613281 279.885986328125 388.31494140625 C 284.55242919921875 386.6783752441406 288.65509033203125 391.1799011230469 309.3990173339844 388.5462341308594" stroke-width="0.0" fill="url(#shape_51_fill)"/>
    <path d="M 268.9666442871094 184.54562377929688 C 276.1947021484375 194.70199584960938 277.35540771484375 207.83775329589844 280.30133056640625 217.6326446533203 C 271.5816345214844 210.359375 269.4089660644531 208.34580993652344 260.981689453125 215.9404754638672 C 257.5081787109375 208.10545349121094 263.5154113769531 196.2973175048828 266.6857604980469 195.26544189453125 C 269.7092590332031 194.2859344482422 268.90765380859375 191.7267608642578 268.9666442871094 184.54562377929688" stroke-width="0.0" fill="url(#shape_52_fill)"/>
    <path d="M 218.36431884765625 409.4652099609375 C 215.90048217773438 410.92303466796875 215.68772888183594 413.3013916015625 214.28408813476562 414.4666442871094 C 214.34942626953125 422.5943298339844 193.18206787109375 425.0408630371094 187.591064453125 415.5609436035156 C 186.30271911621094 404.8049011230469 207.25167846679688 399.9454345703125 218.36431884765625 409.4652099609375" stroke-width="0.0" fill="url(#shape_53_fill)"/>
    <path d="M 205.94927978515625 424.49664306640625 C 205.4842987060547 425.251220703125 206.1484375 428.2893371582031 204.56292724609375 429.117431640625 C 194.08447265625 429.68548583984375 178.81568908691406 430.0867614746094 178.02012634277344 432.6530456542969 C 176.8456573486328 430.945068359375 178.39312744140625 425.9462585449219 177.02671813964844 423.9062194824219 C 187.5889129638672 418.30572509765625 192.9755096435547 423.23126220703125 205.94927978515625 424.49664306640625" stroke-width="0.0" fill="url(#shape_54_fill)"/>
    <path d="M 268.7441101074219 247.4850311279297 C 275.4353332519531 245.0595245361328 276.6391906738281 247.70977783203125 280.29388427734375 247.4918670654297 C 280.7437744140625 251.0048828125 280.0362854003906 252.41690063476562 287.2424011230469 263.8808898925781 C 263.4592590332031 258.0382080078125 262.93865966796875 257.34503173828125 250.5479278564453 265.29132080078125 C 254.8446502685547 248.17356872558594 255.88694763183594 247.23802185058594 258.7101745605469 245.08816528320312 C 260.31640625 239.2111358642578 264.9986572265625 239.69972229003906 268.7441101074219 247.4850311279297" stroke-width="0.0" fill="url(#shape_55_fill)"/>
    <path d="M 279.5288391113281 346.0089111328125 C 280.5985107421875 362.8107604980469 284.1254577636719 363.3750915527344 284.8971252441406 368.0356750488281 C 285.4596862792969 369.2310791015625 286.0330810546875 371.805419921875 285.64849853515625 381.2131042480469 C 275.0037536621094 379.28826904296875 260.9599609375 381.2692565917969 240.24522399902344 383.84527587890625 C 235.7110137939453 382.2259216308594 234.735595703125 366.6509704589844 234.62062072753906 348.52386474609375 C 243.60816955566406 345.6846008300781 252.46536254882812 344.694091796875 279.5288391113281 346.0089111328125" stroke-width="0.0" fill="url(#shape_56_fill)"/>
    <path d="M 408.1793212890625 271.84918212890625 C 415.33392333984375 269.15240478515625 418.04638671875 273.5788879394531 422.75811767578125 281.5634460449219 C 415.7219543457031 283.18896484375 410.303955078125 276.9547119140625 378.4088134765625 274.0787658691406 C 378.2510070800781 264.6348571777344 386.2427062988281 263.54345703125 408.1793212890625 271.84918212890625" stroke-width="0.0" fill="url(#shape_57_fill)"/>
    <path d="M 632.07568359375 351.6733093261719 C 632.9822998046875 355.3306884765625 661.0927734375 354.65509033203125 668.5712890625 354.66522216796875 C 668.4780883789062 358.3894348144531 663.00439453125 360.41619873046875 660.113037109375 357.0811462402344 C 647.75732421875 355.6246337890625 634.9503173828125 359.5752868652344 631.5853881835938 360.2696228027344 C 627.8330078125 357.1402893066406 629.4149780273438 353.6161193847656 632.07568359375 351.6733093261719" stroke-width="0.0" fill="url(#shape_58_fill)"/>
    <path d="M 341.3358154296875 384.8676452636719 C 342.8150329589844 390.18951416015625 358.1405334472656 391.69317626953125 359.1809387207031 394.66156005859375 C 356.8870544433594 398.6262512207031 339.7742614746094 401.1991271972656 338.2772521972656 399.5540466308594 C 335.1358642578125 399.6221923828125 333.0693664550781 398.78326416015625 331.8457946777344 396.5372619628906 C 331.9897155761719 394.93994140625 330.74853515625 393.4737243652344 332.300537109375 390.5922546386719 C 332.9482116699219 384.9613952636719 336.17474365234375 383.98876953125 341.3358154296875 384.8676452636719" stroke-width="0.0" fill="url(#shape_59_fill)"/>
    <path d="M 459.2494201660156 363.98089599609375 C 462.6693420410156 364.0381164550781 472.8116149902344 370.6849670410156 473.1575012207031 374.38543701171875 C 471.805908203125 376.2386779785156 470.33575439453125 376.8749694824219 463.0699462890625 375.85394287109375 C 458.4374694824219 377.3553466796875 457.58880615234375 376.99542236328125 452.7210693359375 370.9471740722656 C 453.3600158691406 370.1817321777344 459.8436584472656 367.5713806152344 459.2494201660156 363.98089599609375" stroke-width="0.0" fill="url(#shape_60_fill)"/>
    <path d="M 430.53094482421875 432.6134948730469 C 440.01544189453125 434.3135681152344 442.43572998046875 436.5860595703125 442.0799865722656 438.6089782714844 C 440.30010986328125 440.8030700683594 428.5137634277344 439.3882141113281 425.6971130371094 442.2695617675781 C 422.47100830078125 438.9455871582031 423.85137939453125 434.6879577636719 411.37945556640625 424.86285400390625 C 426.9971618652344 429.4867248535156 429.8715515136719 432.5606384277344 430.53094482421875 432.6134948730469" stroke-width="0.0" fill="url(#shape_61_fill)"/>
    <path d="M 185.41429138183594 411.4490051269531 C 186.26788330078125 413.93170166015625 185.00497436523438 414.7928771972656 186.9189453125 417.6343078613281 C 184.8707733154297 420.2010498046875 183.3916473388672 419.506591796875 182.50650024414062 419.74078369140625 C 180.81793212890625 421.6407775878906 174.45082092285156 420.1863708496094 171.47047424316406 420.1089782714844 C 169.57049560546875 417.7373962402344 169.7732391357422 415.62835693359375 174.7705078125 412.4464416503906 C 176.83998107910156 412.8098449707031 181.522216796875 410.64349365234375 185.41429138183594 411.4490051269531" stroke-width="0.0" fill="url(#shape_62_fill)"/>
    <path d="M 332.1622009277344 418.7579040527344 C 334.59039306640625 425.910400390625 329.8792724609375 427.9233703613281 327.25360107421875 425.8028259277344 C 324.5539245605469 427.7591247558594 322.9828186035156 426.7120056152344 321.11474609375 427.4917907714844 C 318.851318359375 426.0052185058594 319.8631591796875 419.9699401855469 317.565673828125 418.4873962402344 C 319.0102233886719 420.1159362792969 325.9615173339844 418.7082214355469 332.1622009277344 418.7579040527344" stroke-width="0.0" fill="url(#shape_63_fill)"/>
    <path d="M 55.483924865722656 273.73284912109375 C 56.572792053222656 269.25775146484375 65.6264419555664 269.8890075683594 65.08757019042969 278.3140869140625 C 59.122276306152344 279.4930114746094 53.994171142578125 272.5305480957031 48.42584991455078 276.15826416015625 C 50.53541946411133 273.29229736328125 52.47713088989258 272.86627197265625 55.483924865722656 273.73284912109375" stroke-width="0.0" fill="url(#shape_64_fill)"/>
    <path d="M 304.68505859375 439.7987976074219 C 304.57977294921875 437.7284240722656 306.478515625 436.5941467285156 313.5777893066406 437.21026611328125 C 314.1697082519531 439.4136047363281 313.4853820800781 441.8523864746094 311.3821716308594 441.4920959472656 C 307.9814453125 445.2498474121094 306.4982604980469 444.255126953125 305.3421630859375 444.1346740722656 C 302.7218017578125 441.68524169921875 303.0493469238281 440.06072998046875 304.68505859375 439.7987976074219" stroke-width="0.0" fill="url(#shape_65_fill)"/>
    <path d="M -0.4940435290336609 -0.4310869574546814 C 224.82485961914062 -0.16127419471740723 444.19549560546875 0.3340637981891632 672.6845703125 0.49271416664123535 C 673.4617309570312 155.0291748046875 674.7152709960938 296.15655517578125 673.6992797851562 445.48583984375 C 450.3114318847656 446.3304443359375 230.4329071044922 446.2802734375 0.4663260579109192 445.3896789550781 C 0.20377780497074127 297.1663513183594 -0.1604897379875183 149.22177124023438 -0.4940435290336609 -0.4310869574546814" stroke-width="0.0" fill="url(#shape_66_fill)"/>
    <path d="M -1.065206527709961 -0.18693125247955322 C 222.5975341796875 -0.11171630769968033 443.0155944824219 0.3630284070968628 672.671142578125 -0.2150477170944214 C 673.5584716796875 155.5913543701172 674.8019409179688 295.607421875 673.3778686523438 445.39422607421875 C 450.6014404296875 446.40521240234375 230.53164672851562 446.3246765136719 0.5875653624534607 445.30224609375 C 0.10969479382038116 297.31890869140625 -0.26496344804763794 148.9861297607422 -1.065206527709961 -0.18693125247955322" stroke-width="0.0" fill="url(#shape_67_fill)"/>
    <path d="M -0.6866418719291687 -0.24295957386493683 C 223.1673583984375 -0.16086672246456146 441.9215393066406 0.49743637442588806 672.7205200195312 -0.28056517243385315 C 673.5732421875 155.3760528564453 674.79150390625 295.5422668457031 673.3731689453125 445.3948669433594 C 450.5998229980469 446.406005859375 230.54965209960938 446.3258972167969 1.1428965330123901 445.2834167480469 C 0.507208526134491 295.60406494140625 0.0725456103682518 148.4735565185547 -0.6866418719291687 -0.24295957386493683" stroke-width="0.0" fill="url(#shape_68_fill)"/>
  </g>
</svg>
