<?xml version="1.0" ?>
<svg xmlns="http://www.w3.org/2000/svg" version="1.1" width="674" height="446">
  <defs>
    <radialGradient id="shape_0_fill" cx="0.5378084267636081" cy="0.7443367996557946" r="0.27573883781093517">
      <stop offset="0.6518205" stop-color="rgb(229, 220, 0)" stop-opacity="0.9796348810195923"/>
      <stop offset="1.0" stop-color="rgb(38, 42, 0)" stop-opacity="1.0"/>
    </radialGradient>
    <radialGradient id="shape_1_fill" cx="0.5387282102681056" cy="0.7463133260273612" r="0.20569479288616238">
      <stop offset="0.74918133" stop-color="rgb(99, 95, 49)" stop-opacity="0.8922106027603149"/>
      <stop offset="1.0" stop-color="rgb(21, 4, 0)" stop-opacity="0.7207240462303162"/>
    </radialGradient>
    <radialGradient id="shape_2_fill" cx="0.09792284866468842" cy="0.7376681614349776" r="0.22062588021026522">
      <stop offset="0.0001004991" stop-color="rgb(30, 90, 182)" stop-opacity="1.0"/>
      <stop offset="1.0" stop-color="rgb(10, 119, 255)" stop-opacity="0.9571225643157959"/>
    </radialGradient>
    <radialGradient id="shape_3_fill" cx="0.2751030851188682" cy="0.21591655235119464" r="0.1263581567419035">
      <stop offset="0.3701699" stop-color="rgb(153, 217, 22)" stop-opacity="0.8778204917907715"/>
      <stop offset="1.0" stop-color="rgb(49, 51, 0)" stop-opacity="1.0"/>
    </radialGradient>
    <radialGradient id="shape_4_fill" cx="0.1543026706231454" cy="0.9977578475336323" r="0.10288926755639141">
      <stop offset="0.0" stop-color="rgb(81, 79, 86)" stop-opacity="1.0"/>
      <stop offset="1.0" stop-color="rgb(107, 115, 102)" stop-opacity="0.8667139410972595"/>
    </radialGradient>
    <radialGradient id="shape_5_fill" cx="0.14807991457975936" cy="0.23997249517740155" r="0.11810686468016854">
      <stop offset="0.0" stop-color="rgb(255, 255, 255)" stop-opacity="0.6468079686164856"/>
      <stop offset="0.56313324" stop-color="rgb(255, 255, 255)" stop-opacity="0.7223969101905823"/>
    </radialGradient>
    <radialGradient id="shape_6_fill" cx="0.18397626112759644" cy="0.9977578475336323" r="0.0754974885934892">
      <stop offset="0.0" stop-color="rgb(93, 90, 94)" stop-opacity="1.0"/>
      <stop offset="1.0" stop-color="rgb(151, 145, 143)" stop-opacity="0.5345571041107178"/>
    </radialGradient>
    <radialGradient id="shape_7_fill" cx="0.2893175074183976" cy="0.05829596412556054" r="0.08666390552011372">
      <stop offset="0.0" stop-color="rgb(55, 66, 29)" stop-opacity="1.0"/>
      <stop offset="1.0" stop-color="rgb(73, 77, 0)" stop-opacity="0.9518103003501892"/>
    </radialGradient>
    <radialGradient id="shape_8_fill" cx="0.3382789091115889" cy="0.9439461883408071" r="0.06756690277190167">
      <stop offset="0.0" stop-color="rgb(91, 124, 45)" stop-opacity="1.0"/>
      <stop offset="1.0" stop-color="rgb(151, 193, 65)" stop-opacity="0.831002950668335"/>
    </radialGradient>
    <radialGradient id="shape_9_fill" cx="0.30712166172106825" cy="0.9977578475336323" r="0.0730758406641929">
      <stop offset="0.0" stop-color="rgb(38, 48, 20)" stop-opacity="1.0"/>
      <stop offset="1.0" stop-color="rgb(26, 39, 0)" stop-opacity="1.0"/>
    </radialGradient>
    <radialGradient id="shape_10_fill" cx="0.3056379821958457" cy="0.9977578475336323" r="0.06792919147615971">
      <stop offset="0.0" stop-color="rgb(39, 49, 21)" stop-opacity="1.0"/>
      <stop offset="1.0" stop-color="rgb(51, 50, 0)" stop-opacity="0.7456601858139038"/>
    </radialGradient>
    <radialGradient id="shape_11_fill" cx="0.21810089020771514" cy="0.968609865470852" r="0.06792919147615971">
      <stop offset="0.0" stop-color="rgb(138, 135, 129)" stop-opacity="1.0"/>
      <stop offset="1.0" stop-color="rgb(244, 194, 198)" stop-opacity="0.6216256618499756"/>
    </radialGradient>
    <radialGradient id="shape_12_fill" cx="0.29080118694362017" cy="0.9977578475336323" r="0.07480746985189285">
      <stop offset="0.0" stop-color="rgb(22, 25, 13)" stop-opacity="1.0"/>
      <stop offset="1.0" stop-color="rgb(2, 0, 0)" stop-opacity="1.0"/>
    </radialGradient>
    <radialGradient id="shape_13_fill" cx="0.327893175074184" cy="0.8923766816143498" r="0.06900465877544279">
      <stop offset="0.0" stop-color="rgb(89, 117, 50)" stop-opacity="1.0"/>
      <stop offset="1.0" stop-color="rgb(118, 159, 52)" stop-opacity="0.9953809380531311"/>
    </radialGradient>
    <radialGradient id="shape_14_fill" cx="0.142433234421365" cy="0.9977578475336323" r="0.06617211022079875">
      <stop offset="0.0" stop-color="rgb(155, 150, 153)" stop-opacity="1.0"/>
      <stop offset="1.0" stop-color="rgb(255, 255, 255)" stop-opacity="0.48025214672088623"/>
    </radialGradient>
    <radialGradient id="shape_15_fill" cx="0.31008902077151335" cy="0.9977578475336323" r="0.06683642786405207">
      <stop offset="0.0" stop-color="rgb(43, 55, 23)" stop-opacity="1.0"/>
      <stop offset="1.0" stop-color="rgb(44, 56, 0)" stop-opacity="1.0"/>
    </radialGradient>
    <radialGradient id="shape_16_fill" cx="0.27299703264094954" cy="0.9977578475336323" r="0.08110449363640579">
      <stop offset="0.0" stop-color="rgb(31, 35, 19)" stop-opacity="1.0"/>
      <stop offset="1.0" stop-color="rgb(30, 21, 0)" stop-opacity="1.0"/>
    </radialGradient>
    <radialGradient id="shape_17_fill" cx="0.2893175074183976" cy="0.9977578475336323" r="0.07513486030193747">
      <stop offset="0.0" stop-color="rgb(22, 23, 13)" stop-opacity="1.0"/>
      <stop offset="1.0" stop-color="rgb(0, 0, 0)" stop-opacity="0.4643707275390625"/>
    </radialGradient>
    <radialGradient id="shape_18_fill" cx="0.3293768545994065" cy="0.7556053811659192" r="0.06617211022079875">
      <stop offset="0.0" stop-color="rgb(83, 108, 65)" stop-opacity="1.0"/>
      <stop offset="1.0" stop-color="rgb(106, 138, 76)" stop-opacity="0.9744973182678223"/>
    </radialGradient>
    <radialGradient id="shape_19_fill" cx="0.3516320474777448" cy="0.9977578475336323" r="0.06617211022079875">
      <stop offset="0.0" stop-color="rgb(95, 135, 39)" stop-opacity="1.0"/>
      <stop offset="1.0" stop-color="rgb(137, 208, 37)" stop-opacity="0.9884881973266602"/>
    </radialGradient>
    <radialGradient id="shape_20_fill" cx="0.0830860534124629" cy="0.9977578475336323" r="0.06792919147615971">
      <stop offset="0.0" stop-color="rgb(49, 52, 66)" stop-opacity="1.0"/>
      <stop offset="1.0" stop-color="rgb(46, 36, 75)" stop-opacity="0.7798547148704529"/>
    </radialGradient>
    <radialGradient id="shape_21_fill" cx="0.29821958456973297" cy="0.9977578475336323" r="0.06792919147615971">
      <stop offset="0.0" stop-color="rgb(33, 40, 17)" stop-opacity="1.0"/>
      <stop offset="1.0" stop-color="rgb(12, 9, 0)" stop-opacity="0.6339380145072937"/>
    </radialGradient>
    <radialGradient id="shape_22_fill" cx="0.35643387972777957" cy="0.4436635244053041" r="0.06591723297753037">
      <stop offset="0.0" stop-color="rgb(224, 251, 0)" stop-opacity="0.6316892504692078"/>
      <stop offset="0.43138498" stop-color="rgb(157, 201, 15)" stop-opacity="0.8934575915336609"/>
    </radialGradient>
    <radialGradient id="shape_23_fill" cx="0.6454005934718101" cy="0.1412556053811659" r="0.06617211022079875">
      <stop offset="0.0" stop-color="rgb(46, 38, 13)" stop-opacity="1.0"/>
      <stop offset="1.0" stop-color="rgb(36, 11, 0)" stop-opacity="0.8031262159347534"/>
    </radialGradient>
    <radialGradient id="shape_24_fill" cx="0.24925732258873098" cy="0.48430544592339897" r="0.06617138010811735">
      <stop offset="0.0" stop-color="rgb(201, 209, 206)" stop-opacity="1.0"/>
      <stop offset="0.9768998" stop-color="rgb(255, 255, 255)" stop-opacity="0.6627936363220215"/>
    </radialGradient>
    <radialGradient id="shape_25_fill" cx="0.6320474777448071" cy="0.9977578475336323" r="0.06617211022079875">
      <stop offset="0.0" stop-color="rgb(35, 28, 8)" stop-opacity="1.0"/>
      <stop offset="1.0" stop-color="rgb(24, 0, 0)" stop-opacity="0.6231042742729187"/>
    </radialGradient>
    <radialGradient id="shape_26_fill" cx="0.15415255040018777" cy="0.32070467824893145" r="0.0660530282764831">
      <stop offset="0.11251915" stop-color="rgb(198, 211, 154)" stop-opacity="1.0"/>
      <stop offset="0.59208953" stop-color="rgb(126, 126, 254)" stop-opacity="0.04120802879333496"/>
    </radialGradient>
    <radialGradient id="shape_27_fill" cx="0.1541069438266471" cy="0.3208029366394864" r="0.06604533096449311">
      <stop offset="0.0" stop-color="rgb(192, 204, 0)" stop-opacity="1.0"/>
      <stop offset="0.49513996" stop-color="rgb(105, 99, 50)" stop-opacity="0.6051577925682068"/>
    </radialGradient>
    <radialGradient id="shape_28_fill" cx="0.040814504425320496" cy="0.021384668991704693" r="0.06658774808889327">
      <stop offset="0.099769585" stop-color="rgb(0, 0, 116)" stop-opacity="0.9270712733268738"/>
      <stop offset="0.7468115" stop-color="rgb(0, 19, 130)" stop-opacity="0.782272458076477"/>
    </radialGradient>
    <radialGradient id="shape_29_fill" cx="0.33976258863681147" cy="0.6659192825112108" r="0.06617211022079875">
      <stop offset="0.0" stop-color="rgb(90, 117, 55)" stop-opacity="1.0"/>
      <stop offset="1.0" stop-color="rgb(125, 161, 45)" stop-opacity="0.9558563828468323"/>
    </radialGradient>
    <radialGradient id="shape_30_fill" cx="0.04109398476801569" cy="0.01988972890537416" r="0.06662857780116956">
      <stop offset="0.33221716" stop-color="rgb(46, 67, 55)" stop-opacity="0.8368383646011353"/>
      <stop offset="0.88439536" stop-color="rgb(28, 44, 59)" stop-opacity="0.7542644739151001"/>
    </radialGradient>
    <radialGradient id="shape_31_fill" cx="0.12314540059347182" cy="0.9977578475336323" r="0.06617211022079875">
      <stop offset="0.0" stop-color="rgb(95, 103, 98)" stop-opacity="1.0"/>
      <stop offset="1.0" stop-color="rgb(162, 138, 138)" stop-opacity="0.723715603351593"/>
    </radialGradient>
    <radialGradient id="shape_32_fill" cx="0.4035608308605341" cy="0.984304932735426" r="0.06617211022079875">
      <stop offset="0.0" stop-color="rgb(126, 155, 63)" stop-opacity="1.0"/>
      <stop offset="1.0" stop-color="rgb(178, 160, 25)" stop-opacity="1.0"/>
    </radialGradient>
    <radialGradient id="shape_33_fill" cx="0.3249258160237389" cy="0.6053811659192825" r="0.06617211022079875">
      <stop offset="0.0" stop-color="rgb(93, 124, 71)" stop-opacity="1.0"/>
      <stop offset="1.0" stop-color="rgb(125, 155, 53)" stop-opacity="0.9980229139328003"/>
    </radialGradient>
    <radialGradient id="shape_34_fill" cx="0.6468842729970327" cy="0.531390134529148" r="0.06617211022079875">
      <stop offset="0.0" stop-color="rgb(54, 47, 24)" stop-opacity="1.0"/>
      <stop offset="1.0" stop-color="rgb(76, 47, 0)" stop-opacity="0.8405843377113342"/>
    </radialGradient>
    <radialGradient id="shape_35_fill" cx="0.1424139232239313" cy="0.23438032004865295" r="0.06636956325270656">
      <stop offset="0.0" stop-color="rgb(121, 214, 2)" stop-opacity="0.23073254525661469"/>
      <stop offset="0.43253306" stop-color="rgb(184, 189, 17)" stop-opacity="0.4051760733127594"/>
    </radialGradient>
    <radialGradient id="shape_36_fill" cx="0.2878338278931751" cy="0.9977578475336323" r="0.06617211022079875">
      <stop offset="0.0" stop-color="rgb(80, 96, 53)" stop-opacity="1.0"/>
      <stop offset="1.0" stop-color="rgb(62, 64, 86)" stop-opacity="0.9967889785766602"/>
    </radialGradient>
    <radialGradient id="shape_37_fill" cx="0.129080118694362" cy="0.9977578475336323" r="0.06617211022079875">
      <stop offset="0.0" stop-color="rgb(87, 97, 81)" stop-opacity="1.0"/>
      <stop offset="1.0" stop-color="rgb(108, 111, 94)" stop-opacity="0.9260622262954712"/>
    </radialGradient>
    <radialGradient id="shape_38_fill" cx="0.3389196650564494" cy="0.5607722329451899" r="0.0666798328433617">
      <stop offset="0.7387525" stop-color="rgb(93, 129, 5)" stop-opacity="0.9044151902198792"/>
      <stop offset="0.61334413" stop-color="rgb(162, 255, 28)" stop-opacity="0.909908652305603"/>
    </radialGradient>
    <radialGradient id="shape_39_fill" cx="0.40059347181008903" cy="0.9641255605381166" r="0.06617211022079875">
      <stop offset="0.0" stop-color="rgb(138, 168, 60)" stop-opacity="1.0"/>
      <stop offset="1.0" stop-color="rgb(239, 255, 75)" stop-opacity="1.0"/>
    </radialGradient>
    <radialGradient id="shape_40_fill" cx="0.6172427848114104" cy="0.8833608584553672" r="0.06614939183085185">
      <stop offset="0.049484674" stop-color="rgb(13, 0, 28)" stop-opacity="0.9777820706367493"/>
      <stop offset="0.67779624" stop-color="rgb(0, 0, 14)" stop-opacity="1.0"/>
    </radialGradient>
    <radialGradient id="shape_41_fill" cx="0.6454005934718101" cy="0.08744394618834081" r="0.06617211022079875">
      <stop offset="0.0" stop-color="rgb(58, 48, 21)" stop-opacity="1.0"/>
      <stop offset="1.0" stop-color="rgb(90, 53, 0)" stop-opacity="0.9759867787361145"/>
    </radialGradient>
    <radialGradient id="shape_42_fill" cx="0.5845697329376854" cy="0.6188340807174888" r="0.06617211022079875">
      <stop offset="0.0" stop-color="rgb(62, 59, 56)" stop-opacity="1.0"/>
      <stop offset="1.0" stop-color="rgb(29, 20, 54)" stop-opacity="0.8471089601516724"/>
    </radialGradient>
    <radialGradient id="shape_43_fill" cx="0.3576038032327986" cy="0.5064632603940408" r="0.0662378769600073">
      <stop offset="0.17173502" stop-color="rgb(141, 193, 43)" stop-opacity="1.0"/>
      <stop offset="0.57305264" stop-color="rgb(179, 255, 33)" stop-opacity="0.9017744064331055"/>
    </radialGradient>
    <radialGradient id="shape_44_fill" cx="0.5934718100890207" cy="0.9977578475336323" r="0.06617211022079875">
      <stop offset="0.0" stop-color="rgb(89, 61, 18)" stop-opacity="1.0"/>
      <stop offset="1.0" stop-color="rgb(166, 82, 0)" stop-opacity="0.6667444109916687"/>
    </radialGradient>
    <radialGradient id="shape_45_fill" cx="0.612759643916914" cy="0.04035874439461883" r="0.06617211022079875">
      <stop offset="0.0" stop-color="rgb(157, 136, 123)" stop-opacity="1.0"/>
      <stop offset="1.0" stop-color="rgb(255, 226, 200)" stop-opacity="1.0"/>
    </radialGradient>
    <radialGradient id="shape_46_fill" cx="0.28635014836795253" cy="0.9977578475336323" r="0.06617211022079875">
      <stop offset="0.0" stop-color="rgb(82, 99, 55)" stop-opacity="1.0"/>
      <stop offset="1.0" stop-color="rgb(113, 127, 24)" stop-opacity="0.37921082973480225"/>
    </radialGradient>
    <radialGradient id="shape_47_fill" cx="0.28635014836795253" cy="0.8183856502242153" r="0.06617211022079875">
      <stop offset="0.0" stop-color="rgb(166, 189, 197)" stop-opacity="1.0"/>
      <stop offset="1.0" stop-color="rgb(255, 255, 255)" stop-opacity="0.6395165920257568"/>
    </radialGradient>
    <radialGradient id="shape_48_fill" cx="0.40801186943620177" cy="0.9977578475336323" r="0.06617211022079875">
      <stop offset="0.0" stop-color="rgb(107, 135, 68)" stop-opacity="1.0"/>
      <stop offset="1.0" stop-color="rgb(130, 150, 48)" stop-opacity="1.0"/>
    </radialGradient>
    <radialGradient id="shape_49_fill" cx="0.19287833827893175" cy="0.3991031390134529" r="0.06617211022079875">
      <stop offset="0.0" stop-color="rgb(92, 100, 54)" stop-opacity="1.0"/>
      <stop offset="1.0" stop-color="rgb(141, 127, 74)" stop-opacity="0.6915916204452515"/>
    </radialGradient>
    <radialGradient id="shape_50_fill" cx="0.6439169139465876" cy="0.7376681614349776" r="0.06617211022079875">
      <stop offset="0.0" stop-color="rgb(65, 56, 25)" stop-opacity="1.0"/>
      <stop offset="1.0" stop-color="rgb(153, 202, 12)" stop-opacity="0.5606971979141235"/>
    </radialGradient>
    <radialGradient id="shape_51_fill" cx="0.5845697329376854" cy="0.6322869955156951" r="0.06617211022079875">
      <stop offset="0.0" stop-color="rgb(75, 68, 60)" stop-opacity="1.0"/>
      <stop offset="1.0" stop-color="rgb(133, 104, 83)" stop-opacity="0.8867313861846924"/>
    </radialGradient>
    <radialGradient id="shape_52_fill" cx="0.2997032640949555" cy="0.6031390134529148" r="0.06617211022079875">
      <stop offset="0.0" stop-color="rgb(107, 158, 118)" stop-opacity="1.0"/>
      <stop offset="1.0" stop-color="rgb(186, 255, 220)" stop-opacity="0.8411821126937866"/>
    </radialGradient>
    <radialGradient id="shape_53_fill" cx="0.6097922848664689" cy="0.45067264573991034" r="0.06617211022079875">
      <stop offset="0.0" stop-color="rgb(38, 39, 27)" stop-opacity="1.0"/>
      <stop offset="1.0" stop-color="rgb(31, 14, 0)" stop-opacity="0.40835094451904297"/>
    </radialGradient>
    <radialGradient id="shape_54_fill" cx="0.6335311572700296" cy="0.426009002822397" r="0.06617211022079875">
      <stop offset="0.0" stop-color="rgb(67, 49, 20)" stop-opacity="1.0"/>
      <stop offset="1.0" stop-color="rgb(112, 57, 0)" stop-opacity="0.8692226409912109"/>
    </radialGradient>
    <radialGradient id="shape_55_fill" cx="0.3705693366619529" cy="0.5990107241232834" r="0.06597557407458388">
      <stop offset="0.09257905" stop-color="rgb(255, 255, 16)" stop-opacity="0.8905215859413147"/>
      <stop offset="0.28804043" stop-color="rgb(215, 255, 15)" stop-opacity="0.8702998757362366"/>
    </radialGradient>
    <radialGradient id="shape_56_fill" cx="0.5489614243323442" cy="0.600896860986547" r="0.06617211022079875">
      <stop offset="0.0" stop-color="rgb(50, 62, 80)" stop-opacity="1.0"/>
      <stop offset="1.0" stop-color="rgb(24, 46, 140)" stop-opacity="0.7283324003219604"/>
    </radialGradient>
    <radialGradient id="shape_57_fill" cx="0.4094955489614243" cy="0.9035874439461884" r="0.06617211022079875">
      <stop offset="0.0" stop-color="rgb(111, 144, 47)" stop-opacity="1.0"/>
      <stop offset="1.0" stop-color="rgb(175, 205, 40)" stop-opacity="0.9589627385139465"/>
    </radialGradient>
    <radialGradient id="shape_58_fill" cx="0.5281899109792285" cy="0.9977578475336323" r="0.06617211022079875">
      <stop offset="0.0" stop-color="rgb(50, 43, 14)" stop-opacity="1.0"/>
      <stop offset="1.0" stop-color="rgb(58, 37, 0)" stop-opacity="0.9626392722129822"/>
    </radialGradient>
    <radialGradient id="shape_59_fill" cx="0.5845697329376854" cy="0.7690582959641256" r="0.06617211022079875">
      <stop offset="0.0" stop-color="rgb(61, 63, 58)" stop-opacity="1.0"/>
      <stop offset="1.0" stop-color="rgb(71, 65, 99)" stop-opacity="0.7406208515167236"/>
    </radialGradient>
    <radialGradient id="shape_60_fill" cx="0.5489614243323442" cy="0.9977578475336323" r="0.06617211022079875">
      <stop offset="0.0" stop-color="rgb(140, 131, 64)" stop-opacity="1.0"/>
      <stop offset="1.0" stop-color="rgb(255, 204, 90)" stop-opacity="0.926738977432251"/>
    </radialGradient>
    <radialGradient id="shape_61_fill" cx="0.6468697386608633" cy="0.9686154079009599" r="0.06617602679425248">
      <stop offset="0.2914786" stop-color="rgb(255, 224, 0)" stop-opacity="1.0"/>
      <stop offset="1.0" stop-color="rgb(255, 204, 0)" stop-opacity="1.0"/>
    </radialGradient>
    <radialGradient id="shape_62_fill" cx="0.615727002967359" cy="0.3991031390134529" r="0.06617211022079875">
      <stop offset="0.0" stop-color="rgb(55, 47, 13)" stop-opacity="1.0"/>
      <stop offset="1.0" stop-color="rgb(70, 46, 0)" stop-opacity="0.9805445671081543"/>
    </radialGradient>
    <radialGradient id="shape_63_fill" cx="0.6261127596439169" cy="0.7286995515695067" r="0.06617211022079875">
      <stop offset="0.0" stop-color="rgb(79, 66, 32)" stop-opacity="1.0"/>
      <stop offset="1.0" stop-color="rgb(253, 238, 45)" stop-opacity="0.8859513998031616"/>
    </radialGradient>
    <radialGradient id="shape_64_fill" cx="0.40801186943620177" cy="0.12556053811659193" r="0.06617211022079875">
      <stop offset="0.0" stop-color="rgb(76, 66, 59)" stop-opacity="1.0"/>
      <stop offset="1.0" stop-color="rgb(115, 80, 74)" stop-opacity="1.0"/>
    </radialGradient>
    <radialGradient id="shape_65_fill" cx="0.6528189910979229" cy="0.6883408071748879" r="0.06617211022079875">
      <stop offset="0.0" stop-color="rgb(121, 97, 39)" stop-opacity="1.0"/>
      <stop offset="1.0" stop-color="rgb(255, 255, 49)" stop-opacity="1.0"/>
    </radialGradient>
    <radialGradient id="shape_66_fill" cx="0.6502399840765254" cy="0.46056537029454525" r="0.0672654624508821">
      <stop offset="0.41131938" stop-color="rgb(146, 186, 30)" stop-opacity="0.38934749364852905"/>
      <stop offset="0.9975885" stop-color="rgb(0, 0, 0)" stop-opacity="0.070594422519207"/>
    </radialGradient>
    <radialGradient id="shape_67_fill" cx="0.5935562088510756" cy="0.9955393017140205" r="0.06788056257570532">
      <stop offset="0.924411" stop-color="rgb(49, 25, 0)" stop-opacity="0.8324898481369019"/>
      <stop offset="1.0" stop-color="rgb(0, 6, 0)" stop-opacity="0.1715472936630249"/>
    </radialGradient>
    <radialGradient id="shape_68_fill" cx="0.4883131712056055" cy="0.996435191064672" r="0.06736264667454389">
      <stop offset="0.43763092" stop-color="rgb(54, 35, 23)" stop-opacity="0.7430976629257202"/>
      <stop offset="1.0" stop-color="rgb(54, 72, 67)" stop-opacity="0.3649939000606537"/>
    </radialGradient>
  </defs>
  <g>
    <path d="M -0.2577197551727295 271.2515869140625 C 25.7490177154541 270.41058349609375 34.68852996826172 271.3551025390625 44.87578582763672 273.33251953125 C 48.07319641113281 275.0050964355469 49.366519927978516 276.6614685058594 57.13738250732422 274.54595947265625 C 60.51335525512695 273.86065673828125 63.85407638549805 274.5374450683594 65.46643829345703 274.3223571777344 C 73.0189208984375 272.0202331542969 102.75093841552734 271.94744873046875 113.924560546875 272.4262390136719 C 116.69868469238281 276.18096923828125 126.89328002929688 277.8233642578125 126.45433044433594 281.3704833984375 C 134.1590118408203 281.8988342285156 140.81642150878906 281.1081848144531 148.43893432617188 282.640869140625 C 185.26202392578125 281.8002014160156 185.75404357910156 282.5224609375 204.98251342773438 284.6688232421875 C 200.69203186035156 289.970458984375 198.63369750976562 282.9295349121094 217.39662170410156 276.5035095214844 C 239.48765563964844 277.7710876464844 282.2915954589844 277.078369140625 306.1481628417969 282.5133972167969 C 338.71636962890625 284.466796875 416.3610534667969 284.08978271484375 457.8797607421875 281.8615417480469 C 484.5685729980469 281.4399108886719 533.7130126953125 283.098388671875 540.5473022460938 286.5059509277344 C 549.3389892578125 286.8140869140625 550.8924560546875 283.03265380859375 562.3076782226562 280.7956848144531 C 572.8383178710938 284.2670593261719 611.411865234375 285.9451599121094 613.375732421875 286.1725769042969 C 636.8031005859375 280.7439880371094 646.8291015625 281.3619689941406 661.4024047851562 281.31134033203125 C 666.2271118164062 282.2407531738281 671.6710205078125 286.8430480957031 673.99169921875 291.06048583984375 C 675.7107543945312 339.54193115234375 674.8876342773438 391.9684753417969 674.9273071289062 446.07342529296875 C 451.7952575683594 446.3694152832031 229.04074096679688 446.479248046875 -0.3009047210216522 446.0527648925781 C -0.4072338938713074 389.1424560546875 0.27318575978279114 332.36053466796875 -0.2577197551727295 271.2515869140625" stroke-width="0.0" fill="url(#shape_0_fill)"/>
    <path d="M -0.03758483752608299 271.6400451660156 C 35.933231353759766 275.3994140625 36.557525634765625 274.5908203125 44.47734451293945 276.3133544921875 C 55.152889251708984 274.142578125 66.52843475341797 273.0074768066406 77.32188415527344 273.8944396972656 C 113.44297790527344 278.6812744140625 114.00901794433594 279.31121826171875 125.88313293457031 279.167724609375 C 128.69435119628906 278.2185363769531 152.89877319335938 278.3331604003906 156.095703125 277.2893981933594 C 185.04364013671875 276.46246337890625 185.59942626953125 278.1387634277344 200.2106170654297 279.9549560546875 C 202.65341186523438 291.6203918457031 205.1872100830078 291.1689147949219 221.4838104248047 290.0108337402344 C 224.8321990966797 288.8453063964844 277.0155944824219 290.4588317871094 297.6881103515625 291.5771179199219 C 327.57952880859375 293.3365478515625 445.2010498046875 291.1596984863281 450.44195556640625 291.2762756347656 C 470.56219482421875 289.9381408691406 487.0934143066406 290.74658203125 505.2235412597656 287.8656005859375 C 508.8554992675781 287.26690673828125 516.9609985351562 286.02947998046875 522.8142700195312 286.4101257324219 C 527.5298461914062 285.6697692871094 531.8851318359375 285.8665466308594 535.1394653320312 286.99951171875 C 543.9046630859375 286.682373046875 551.4110717773438 287.79638671875 558.93408203125 290.40887451171875 C 569.6822509765625 287.0950622558594 579.3564453125 288.1753845214844 587.2715454101562 289.578857421875 C 605.0759887695312 288.58209228515625 618.8037109375 287.8183288574219 631.3718872070312 288.27215576171875 C 645.4848022460938 282.8072814941406 657.4970703125 287.01397705078125 674.2186279296875 288.44146728515625 C 673.8129272460938 340.8739013671875 674.4092407226562 392.30413818359375 674.1441040039062 446.2807922363281 C 451.4774169921875 446.3905334472656 229.19664001464844 446.25439453125 -0.30763497948646545 446.2476501464844 C -0.21355699002742767 389.4035949707031 -0.2938489615917206 333.0281066894531 -0.03758483752608299 271.6400451660156" stroke-width="0.0" fill="url(#shape_1_fill)"/>
    <path d="M -0.06480111181735992 -0.259874165058136 C 219.69313049316406 0.10398110747337341 439.478759765625 -0.4522557854652405 670.2749633789062 -0.3253844678401947 C 662.495849609375 8.076608657836914 645.2540283203125 36.06121826171875 637.48095703125 47.4674072265625 C 636.5938110351562 54.93793487548828 612.396240234375 94.83003997802734 585.8023681640625 84.26348876953125 C 578.4458618164062 81.24909210205078 558.86669921875 71.13147735595703 532.9395141601562 73.43830108642578 C 531.7147216796875 74.60681915283203 525.4135131835938 76.42578887939453 522.9418334960938 71.57392883300781 C 522.7300415039062 68.42670440673828 500.4488525390625 62.933563232421875 499.9658203125 62.295867919921875 C 492.3818664550781 61.94179153442383 486.1595458984375 60.7696647644043 481.6138916015625 68.56365966796875 C 474.5495910644531 69.84671020507812 475.0364685058594 73.9041519165039 475.28460693359375 78.44535064697266 C 478.0784912109375 91.55442810058594 468.2235412597656 107.7158432006836 464.0025329589844 112.34097290039062 C 459.0274963378906 114.02690887451172 453.4933166503906 112.26860046386719 452.141845703125 109.1742935180664 C 436.4665222167969 106.66451263427734 411.2414855957031 102.7369384765625 410.6361083984375 104.79922485351562 C 407.0481872558594 116.788330078125 406.87249755859375 121.22682189941406 403.57476806640625 127.61160278320312 C 401.59796142578125 135.65501403808594 394.0368957519531 138.05406188964844 390.210205078125 138.94715881347656 C 379.7224426269531 142.20196533203125 375.1293640136719 158.4541473388672 372.86529541015625 159.03158569335938 C 372.2149353027344 164.88356018066406 370.9908142089844 168.95445251464844 367.5101013183594 173.5061492919922 C 365.391357421875 175.8717803955078 362.0987854003906 175.00506591796875 353.0555114746094 180.04052734375 C 346.4136047363281 187.78746032714844 336.42987060546875 179.2095489501953 326.3140563964844 176.7057647705078 C 310.3113098144531 177.09945678710938 309.7064208984375 183.50953674316406 308.0047302246094 186.17733764648438 C 307.067138671875 191.00807189941406 305.0928649902344 193.6785430908203 307.6844177246094 201.3150177001953 C 307.2011413574219 201.00494384765625 305.45660400390625 198.90174865722656 304.90771484375 193.82188415527344 C 301.9945068359375 191.74835205078125 297.4385070800781 192.58119201660156 288.8775634765625 187.61277770996094 C 291.1152648925781 193.61241149902344 289.8407897949219 196.40957641601562 289.2232971191406 196.18704223632812 C 285.5067443847656 192.31898498535156 283.8348693847656 187.46356201171875 282.978759765625 186.75404357910156 C 273.24871826171875 188.1044921875 271.716796875 190.49488830566406 266.83746337890625 188.1781463623047 C 260.60455322265625 188.14047241210938 260.3455810546875 193.01846313476562 259.774658203125 197.68475341796875 C 261.0097351074219 199.2252655029297 260.6881103515625 200.701416015625 257.7429504394531 200.42958068847656 C 256.9127197265625 200.40655517578125 251.33985900878906 199.5179901123047 251.20506286621094 196.40037536621094 C 250.72544860839844 191.03707885742188 251.51365661621094 189.0835723876953 248.06358337402344 177.2060546875 C 252.0258026123047 171.3111572265625 216.11868286132812 142.0301513671875 214.54544067382812 139.40032958984375 C 184.166748046875 123.3774642944336 195.74330139160156 101.53875732421875 192.11538696289062 88.86943054199219 C 193.7041778564453 83.60772705078125 157.3212890625 72.58065032958984 143.0893096923828 65.5124740600586 C 118.80364227294922 39.29018020629883 66.7298355102539 53.34105682373047 36.25797653198242 62.55683898925781 C 16.079938888549805 69.65570831298828 11.741060256958008 68.69454956054688 -0.29214563965797424 69.98493957519531 C 0.3399059474468231 43.967403411865234 -0.33229872584342957 22.56461524963379 -0.06480111181735992 -0.259874165058136" stroke-width="0.0" fill="url(#shape_2_fill)"/>
    <path d="M 86.25923156738281 67.5645751953125 C 88.39777374267578 69.29632568359375 92.5186767578125 68.5573501586914 93.78317260742188 69.17023468017578 C 90.92565155029297 78.35039520263672 91.55583953857422 82.65817260742188 91.36315155029297 85.39891815185547 C 96.03498077392578 83.65301513671875 97.54041290283203 86.40094757080078 103.29156494140625 87.80729675292969 C 103.61397552490234 76.43850708007812 105.72571563720703 74.3226089477539 108.8628158569336 75.52099609375 C 111.77347564697266 87.62406921386719 111.97981262207031 94.18021392822266 115.92137145996094 99.50836944580078 C 116.75275421142578 100.07528686523438 116.74739837646484 108.5363540649414 115.53787231445312 115.99341583251953 C 124.57052612304688 114.77362823486328 128.8042449951172 114.66742706298828 129.45132446289062 112.50880432128906 C 129.59912109375 108.11609649658203 136.25653076171875 106.57425689697266 136.4503631591797 104.44744873046875 C 136.59719848632812 103.6938705444336 135.5291290283203 101.79413604736328 137.0013885498047 97.99567413330078 C 136.44927978515625 93.25365447998047 137.4654998779297 92.87271118164062 137.13818359375 88.95130157470703 C 137.27264404296875 84.85729217529297 138.61265563964844 84.74726867675781 139.04676818847656 85.6951904296875 C 139.69931030273438 82.06641387939453 146.61058044433594 80.68525695800781 147.8841094970703 83.71412658691406 C 147.4108428955078 88.66889953613281 150.92205810546875 95.61000061035156 152.0937042236328 98.97178649902344 C 153.4405059814453 103.06735229492188 149.93365478515625 106.89391326904297 148.81741333007812 106.67288208007812 C 152.8399658203125 110.0122299194336 150.76324462890625 114.21562957763672 148.6630096435547 113.49269104003906 C 155.0164337158203 112.67132568359375 158.29222106933594 122.516845703125 158.0608673095703 123.05516052246094 C 161.89710998535156 124.7159194946289 164.84005737304688 123.34425354003906 169.92312622070312 122.96395874023438 C 174.91624450683594 119.38617706298828 175.312744140625 121.6333236694336 177.61114501953125 122.53255462646484 C 179.31488037109375 122.68411254882812 179.89727783203125 125.5294189453125 182.57098388671875 127.81841278076172 C 183.82716369628906 130.22914123535156 182.38430786132812 133.14515686035156 183.23526000976562 135.62818908691406 C 185.89340209960938 135.6107940673828 187.75665283203125 143.06886291503906 188.33453369140625 145.58642578125 C 193.12152099609375 145.44659423828125 204.09063720703125 157.4326934814453 202.15476989746094 173.45057678222656 C 205.505859375 174.11045837402344 204.97853088378906 178.00894165039062 205.49691772460938 183.01336669921875 C 211.58892822265625 182.12379455566406 215.83470153808594 199.23373413085938 212.2496795654297 204.48109436035156 C 207.96981811523438 207.1520538330078 203.45901489257812 208.14903259277344 203.13494873046875 210.29681396484375 C 200.8016357421875 210.5365447998047 199.9172821044922 211.690673828125 200.29248046875 213.6464080810547 C 196.12014770507812 215.61875915527344 193.97731018066406 215.5672149658203 192.3028106689453 219.4585418701172 C 184.29054260253906 221.09555053710938 183.61000061035156 224.80589294433594 179.03207397460938 230.50106811523438 C 176.1737823486328 233.63027954101562 179.33995056152344 239.9283447265625 180.52330017089844 243.4584503173828 C 181.19198608398438 251.81549072265625 185.7377471923828 260.0365905761719 177.88037109375 264.9007568359375 C 174.1913604736328 267.9541931152344 148.1365509033203 267.551513671875 138.28648376464844 270.3141174316406 C 128.7393035888672 267.5646667480469 124.38298797607422 269.4416198730469 116.9716567993164 272.0061340332031 C 108.9285888671875 276.7095031738281 73.31397247314453 275.7220764160156 73.40994262695312 269.8080749511719 C 47.632755279541016 266.70623779296875 56.487091064453125 268.5472106933594 56.70787048339844 273.6560974121094 C 46.28908920288086 277.1326904296875 0.531726062297821 274.5101623535156 0.5395776033401489 271.02984619140625 C -2.7472641468048096 219.15237426757812 -2.0871455669403076 166.98973083496094 -1.9493330717086792 116.50553131103516 C 9.20242977142334 118.80260467529297 17.489431381225586 118.0144271850586 24.762224197387695 125.03235626220703 C 30.477584838867188 127.11112213134766 36.596229553222656 128.11102294921875 41.11201858520508 131.5613555908203 C 46.674129486083984 131.74842834472656 46.869110107421875 136.5264434814453 49.51930618286133 140.62571716308594 C 50.675926208496094 144.3445587158203 61.8243522644043 145.48629760742188 62.57918167114258 143.3538055419922 C 62.068965911865234 136.68955993652344 63.02068328857422 133.82232666015625 62.86616897583008 127.74600219726562 C 68.51325225830078 125.811767578125 67.40135955810547 121.99597930908203 66.21466064453125 112.40753173828125 C 67.71749877929688 111.07096099853516 68.14539337158203 105.5270004272461 75.68903350830078 104.38874816894531 C 75.62725830078125 102.65478515625 77.8769302368164 90.591064453125 76.56452178955078 85.3233642578125 C 78.06212615966797 84.1864242553711 79.1746597290039 73.65068817138672 84.86128997802734 73.96244049072266 C 82.83800506591797 70.19004821777344 84.86351013183594 67.66549682617188 86.25923156738281 67.5645751953125" stroke-width="0.0" fill="url(#shape_3_fill)"/>
    <path d="M 673.9658203125 0.12174460291862488 C 675.7275390625 48.13621139526367 674.8915405273438 95.9668197631836 676.8649291992188 142.88607788085938 C 670.67138671875 134.6413116455078 665.4320678710938 127.41192626953125 661.67431640625 120.27942657470703 C 661.0349731445312 119.83543395996094 655.216796875 109.309326171875 649.4282836914062 110.89131927490234 C 648.4196166992188 112.5001449584961 643.6529541015625 146.93955993652344 640.6260375976562 153.27096557617188 C 631.6246337890625 154.17617797851562 627.2549438476562 141.77066040039062 627.7353515625 138.17385864257812 C 622.97509765625 137.34193420410156 618.6900634765625 145.2777862548828 615.413330078125 143.82008361816406 C 611.6503295898438 142.2818145751953 610.1741333007812 143.44461059570312 607.7720336914062 141.08163452148438 C 607.4164428710938 137.3076629638672 608.8071899414062 132.6697998046875 605.9881591796875 125.11666107177734 C 598.0744018554688 133.63519287109375 597.5510864257812 139.3782196044922 595.1146240234375 144.16726684570312 C 596.1847534179688 148.67779541015625 594.9522705078125 150.94891357421875 595.8212280273438 153.6753387451172 C 588.767822265625 156.9405975341797 587.0394287109375 163.91163635253906 580.6470336914062 170.91537475585938 C 571.46533203125 170.1998291015625 569.6873168945312 160.42425537109375 569.040283203125 157.3691864013672 C 566.3323364257812 157.14962768554688 564.234619140625 153.23936462402344 561.4521484375 153.4407958984375 C 560.000732421875 150.7667694091797 555.1173095703125 150.4551544189453 554.1189575195312 154.5262451171875 C 551.4996948242188 155.67391967773438 550.828857421875 159.1949920654297 548.8681030273438 160.21340942382812 C 546.50244140625 158.35353088378906 542.03466796875 159.95016479492188 535.8952026367188 154.44110107421875 C 531.71533203125 154.71612548828125 529.8939208984375 157.95956420898438 524.1216430664062 157.68685913085938 C 518.0429077148438 161.17361450195312 520.86328125 161.4244842529297 522.6546630859375 169.9401092529297 C 517.4962768554688 169.96817016601562 515.859130859375 165.5289306640625 516.5801391601562 171.06492614746094 C 511.093994140625 173.32717895507812 510.08477783203125 175.26242065429688 505.6134948730469 174.3899383544922 C 503.00390625 171.28575134277344 502.9127197265625 169.60107421875 501.6163635253906 164.65390014648438 C 496.6009216308594 148.51783752441406 510.60980224609375 124.37301635742188 520.166015625 127.04388427734375 C 521.9368896484375 122.87663269042969 536.7077026367188 111.15226745605469 548.4052734375 112.71818542480469 C 558.2294311523438 110.44865417480469 556.2095336914062 109.66056060791016 556.2051391601562 105.85322570800781 C 561.9050903320312 107.81359100341797 565.5191040039062 103.05236053466797 571.5916137695312 105.21208953857422 C 574.6890258789062 102.73844909667969 573.443359375 97.49749755859375 578.8831787109375 94.1268081665039 C 580.8054809570312 88.11126708984375 601.1630249023438 78.67415618896484 613.5855102539062 78.51177978515625 C 616.9901733398438 73.6133804321289 643.9963989257812 51.276641845703125 644.0812377929688 35.30870056152344 C 644.9521484375 32.42631912231445 647.9844360351562 30.378637313842773 647.6015625 29.50041389465332 C 646.795166015625 28.24906349182129 663.9136352539062 -3.6310200691223145 673.9658203125 0.12174460291862488" stroke-width="0.0" fill="url(#shape_4_fill)"/>
    <path d="M 151.6110076904297 68.59217834472656 C 152.3210906982422 68.99046325683594 186.5466766357422 83.70772552490234 192.50157165527344 92.09650421142578 C 179.9719696044922 116.00804138183594 216.8736572265625 151.8516845703125 220.77992248535156 155.03541564941406 C 238.6394500732422 170.05899047851562 242.46824645996094 184.93565368652344 240.524169921875 193.57273864746094 C 237.7056121826172 193.8135223388672 236.715087890625 185.80198669433594 236.766845703125 184.05079650878906 C 235.67181396484375 183.60919189453125 234.1602020263672 184.2789306640625 231.10511779785156 182.7496795654297 C 232.10789489746094 183.36685180664062 230.964111328125 192.64227294921875 228.38839721679688 195.88706970214844 C 227.75857543945312 196.4125213623047 226.8411865234375 204.8605499267578 221.25758361816406 207.74981689453125 C 215.03904724121094 206.6099090576172 214.26441955566406 198.01121520996094 214.6537628173828 194.86114501953125 C 212.9606170654297 185.43447875976562 211.8981475830078 184.94105529785156 206.352294921875 177.593994140625 C 204.89256286621094 172.54226684570312 206.2082977294922 165.31846618652344 205.7935028076172 159.62583923339844 C 206.1531982421875 153.8802032470703 196.0876007080078 143.46217346191406 192.67701721191406 141.75291442871094 C 189.04336547851562 140.3292236328125 188.761962890625 137.87083435058594 187.82785034179688 134.12533569335938 C 181.03182983398438 130.75965881347656 182.03939819335938 124.20171356201172 183.14585876464844 118.03791046142578 C 178.8773193359375 116.08211517333984 177.93362426757812 117.89873504638672 173.4236297607422 117.9799575805664 C 178.18397521972656 128.1884307861328 173.5218963623047 131.4579620361328 152.7693328857422 129.6859130859375 C 151.92591857910156 123.88053131103516 150.56881713867188 102.69171905517578 153.50689697265625 96.55918884277344 C 152.8693084716797 88.6465835571289 153.70379638671875 83.09478759765625 150.12962341308594 76.32538604736328 C 148.45603942871094 75.9270248413086 149.0642852783203 69.32787322998047 151.6110076904297 68.59217834472656" stroke-width="0.0" fill="url(#shape_5_fill)"/>
    <path d="M 613.2394409179688 83.52245330810547 C 618.5864868164062 84.19037628173828 619.6232299804688 85.85643768310547 630.7737426757812 85.61290740966797 C 636.7869873046875 85.96180725097656 637.3239135742188 87.68843078613281 641.256103515625 87.8334732055664 C 642.14990234375 87.52626037597656 669.0032348632812 91.93598175048828 673.727783203125 98.3451156616211 C 673.8955688476562 112.8048324584961 673.7349243164062 129.12924194335938 673.8342895507812 144.3813934326172 C 668.876953125 139.3995361328125 664.3430786132812 135.0315399169922 660.4083862304688 129.0172119140625 C 660.0413818359375 121.52013397216797 660.6597290039062 115.56565856933594 653.0201416015625 111.32670593261719 C 647.7666625976562 116.62364196777344 645.0610961914062 142.35443115234375 642.0572509765625 143.28012084960938 C 644.044189453125 144.92636108398438 641.295166015625 148.4680633544922 641.7620239257812 149.4717254638672 C 639.7468872070312 151.141357421875 638.0585327148438 152.1421356201172 634.908447265625 150.2257080078125 C 631.2572021484375 146.8557891845703 629.2227783203125 141.3642120361328 630.0772094726562 140.5556640625 C 628.9203491210938 138.05349731445312 623.8616333007812 137.02682495117188 620.85107421875 138.5669403076172 C 618.22119140625 140.55223083496094 619.2748413085938 142.35720825195312 618.757568359375 144.3638153076172 C 614.505615234375 144.48516845703125 614.1485595703125 143.12127685546875 610.2377319335938 143.76190185546875 C 608.5545043945312 140.4057159423828 609.5993041992188 139.245361328125 609.4344482421875 137.3658447265625 C 606.61181640625 132.24436950683594 604.7496948242188 126.54613494873047 597.302734375 127.94886779785156 C 601.4990234375 137.15159606933594 596.2293090820312 151.50840759277344 591.9849853515625 157.59054565429688 C 590.7538452148438 163.93479919433594 589.4784545898438 164.20632934570312 586.7374877929688 168.02310180664062 C 583.6261596679688 167.87054443359375 579.508544921875 166.88441467285156 578.0389404296875 164.99169921875 C 574.642333984375 163.74783325195312 573.991943359375 159.3719940185547 572.9774169921875 157.38168334960938 C 566.7178955078125 155.41375732421875 556.4224243164062 154.41946411132812 556.2357177734375 151.25868225097656 C 555.8331909179688 152.89419555664062 553.0753173828125 154.70623779296875 552.8768310546875 157.7443389892578 C 549.9296264648438 161.4773712158203 547.952392578125 160.92437744140625 547.232421875 159.74668884277344 C 543.116943359375 158.429443359375 540.72607421875 156.80715942382812 536.0750732421875 157.2677001953125 C 534.8609008789062 158.33798217773438 531.2279663085938 157.73013305664062 528.5645751953125 158.10391235351562 C 526.103515625 159.3003692626953 526.189453125 162.4322967529297 525.3810424804688 165.41665649414062 C 524.4290161132812 169.36558532714844 523.4313354492188 171.54103088378906 519.0375366210938 173.12020874023438 C 510.8903503417969 177.6602325439453 503.17376708984375 173.3825225830078 499.07012939453125 170.02130126953125 C 494.33489990234375 147.14938354492188 509.7826843261719 126.03936767578125 517.7166137695312 123.16314697265625 C 524.743408203125 120.0066909790039 540.231201171875 112.51284790039062 551.8490600585938 111.8932113647461 C 555.3672485351562 109.85667419433594 560.0217895507812 109.73272705078125 563.73876953125 106.66874694824219 C 564.636474609375 104.54650115966797 566.8682861328125 103.61637878417969 569.7066040039062 103.93071746826172 C 575.0596923828125 101.65121459960938 578.3380737304688 97.10157775878906 583.8817749023438 94.84004974365234 C 595.1162719726562 88.32998657226562 603.066650390625 81.4400863647461 613.2394409179688 83.52245330810547" stroke-width="0.0" fill="url(#shape_6_fill)"/>
    <path d="M 2.5082008838653564 116.94844055175781 C 27.360248565673828 123.18760681152344 38.00246047973633 127.8355484008789 48.31612777709961 138.8664093017578 C 71.73234558105469 159.04905700683594 50.918827056884766 223.41763305664062 55.02777099609375 245.56541442871094 C 53.14625930786133 260.2855224609375 48.71575927734375 264.67657470703125 48.53984069824219 266.36151123046875 C 37.83108139038086 273.1409606933594 4.807682514190674 269.2992858886719 1.2370821237564087 267.33197021484375 C 0.379662424325943 217.4056854248047 -0.8412408232688904 166.27122497558594 2.5082008838653564 116.94844055175781" stroke-width="0.0" fill="url(#shape_7_fill)"/>
    <path d="M 393.4926452636719 181.7404022216797 C 409.97137451171875 174.43984985351562 425.3779602050781 192.90113830566406 432.0957336425781 207.71075439453125 C 469.7121276855469 195.96987915039062 492.306640625 210.1576690673828 491.6608581542969 235.27810668945312 C 490.9840393066406 250.4778594970703 486.15386962890625 251.47300720214844 484.8453063964844 252.33563232421875 C 485.32440185546875 254.5170135498047 479.08441162109375 265.0387268066406 474.84857177734375 268.4658203125 C 469.0430603027344 272.9302978515625 453.2210388183594 266.7112731933594 451.62310791015625 269.70361328125 C 446.99725341796875 266.27679443359375 448.2020263671875 261.2036437988281 448.9801940917969 260.1580505371094 C 439.23944091796875 264.7312316894531 436.5063781738281 261.37847900390625 437.412353515625 256.8940124511719 C 427.80377197265625 256.2474670410156 426.2895812988281 258.8758850097656 421.2318420410156 262.2480773925781 C 418.5391845703125 264.2608642578125 417.49932861328125 267.59344482421875 414.8327941894531 270.49737548828125 C 414.1104736328125 271.0057373046875 397.9022216796875 267.8239440917969 392.59295654296875 264.1533203125 C 391.826171875 265.0926818847656 389.0365905761719 263.3184509277344 386.05938720703125 263.5163879394531 C 382.1159973144531 261.9399108886719 380.8218688964844 263.174560546875 376.6636962890625 260.989501953125 C 375.10101318359375 256.2946472167969 376.2334289550781 252.4310760498047 372.93402099609375 249.08145141601562 C 360.0013732910156 244.06051635742188 375.3423156738281 197.11183166503906 378.6390380859375 182.17694091796875 C 383.7788391113281 171.569091796875 395.0066223144531 176.24012756347656 393.4926452636719 181.7404022216797" stroke-width="0.0" fill="url(#shape_8_fill)"/>
    <path d="M 565.6157836914062 157.51870727539062 C 568.4791259765625 159.0099639892578 569.8744506835938 163.61090087890625 569.8624877929688 166.1188201904297 C 573.8810424804688 169.4394989013672 573.4185180664062 170.79287719726562 577.7156372070312 174.21803283691406 C 581.9697875976562 172.9142303466797 583.9367065429688 174.60621643066406 583.6885375976562 179.51837158203125 C 575.3486938476562 180.43238830566406 572.0744018554688 225.61671447753906 577.2786865234375 226.96588134765625 C 577.8480834960938 229.98971557617188 581.2681274414062 235.63558959960938 575.835205078125 243.23492431640625 C 568.5146484375 239.0485076904297 566.1651611328125 237.31483459472656 558.7536010742188 247.20565795898438 C 554.0200805664062 252.7871856689453 493.5969543457031 251.75970458984375 489.9031066894531 252.71131896972656 C 487.48480224609375 247.07525634765625 487.32318115234375 239.06585693359375 490.6759338378906 229.87368774414062 C 486.4498596191406 226.2335205078125 483.1910400390625 222.2754669189453 481.1854248046875 216.07322692871094 C 476.50274658203125 209.8145751953125 479.149658203125 205.78175354003906 482.6604309082031 205.947998046875 C 479.8694763183594 205.31214904785156 480.9752197265625 198.30401611328125 485.9113464355469 198.37242126464844 C 491.84814453125 196.1919708251953 491.88348388671875 192.52027893066406 493.1343688964844 187.93594360351562 C 492.173828125 174.13861083984375 494.30828857421875 173.2476806640625 494.6656799316406 170.03271484375 C 504.0224609375 169.02565002441406 505.1385498046875 171.94654846191406 518.43701171875 169.70367431640625 C 523.9166259765625 170.7208709716797 524.5014038085938 167.9581756591797 525.6495971679688 165.06784057617188 C 524.8543701171875 160.69473266601562 529.38525390625 156.38174438476562 533.3961181640625 158.62818908691406 C 537.65234375 161.82589721679688 541.4017944335938 162.4507293701172 542.2142333984375 163.93019104003906 C 545.280517578125 164.02963256835938 545.9965209960938 165.67530822753906 549.3850708007812 166.35801696777344 C 548.74609375 165.62982177734375 551.3307495117188 157.1249237060547 555.0961303710938 157.80642700195312 C 558.158203125 157.3043670654297 562.7720947265625 156.8761749267578 565.6157836914062 157.51870727539062" stroke-width="0.0" fill="url(#shape_9_fill)"/>
    <path d="M 561.1074829101562 156.26800537109375 C 566.724609375 153.39732360839844 570.9324951171875 159.9224090576172 570.7680053710938 167.60659790039062 C 572.31396484375 170.84353637695312 575.07958984375 171.56129455566406 579.3953247070312 175.8823699951172 C 579.5853881835938 178.0043487548828 578.3436889648438 187.2670135498047 577.254638671875 191.58779907226562 C 571.2778930664062 196.80184936523438 571.9849243164062 229.9805908203125 578.072021484375 230.9764404296875 C 576.0653076171875 231.1527862548828 575.6104125976562 236.83465576171875 572.0157470703125 238.05686950683594 C 559.6714477539062 236.05490112304688 567.6395874023438 238.5921630859375 562.7939453125 248.58258056640625 C 555.9057006835938 252.1240692138672 501.2865905761719 248.9504852294922 500.1790771484375 251.4816131591797 C 491.1002197265625 251.7964324951172 487.9516906738281 236.97044372558594 490.9253845214844 230.05311584472656 C 486.6257019042969 224.92637634277344 481.9859924316406 219.27032470703125 481.47784423828125 216.2301483154297 C 475.6159362792969 214.39402770996094 475.1346130371094 212.49685668945312 473.40045166015625 202.24240112304688 C 472.93756103515625 199.03021240234375 479.0652770996094 195.99386596679688 480.56378173828125 196.56948852539062 C 490.05328369140625 194.95274353027344 494.44683837890625 184.25442504882812 496.64263916015625 182.98931884765625 C 495.9530944824219 179.4805145263672 496.8692626953125 176.99745178222656 500.42510986328125 176.1176300048828 C 507.60894775390625 176.4086151123047 515.1728515625 178.82363891601562 519.8742065429688 173.9434051513672 C 523.2076416015625 173.3051300048828 526.6061401367188 159.2484588623047 532.1406860351562 158.2722930908203 C 537.0904541015625 157.49179077148438 538.80029296875 161.02975463867188 542.7061157226562 165.49703979492188 C 545.4031372070312 165.2823028564453 548.7862548828125 166.4756622314453 550.9718017578125 163.77957153320312 C 551.1802978515625 157.4081268310547 553.443359375 153.55697631835938 561.1074829101562 156.26800537109375" stroke-width="0.0" fill="url(#shape_10_fill)"/>
    <path d="M 449.877685546875 107.64328002929688 C 453.9919738769531 109.14453125 455.19073486328125 112.59490203857422 461.5102233886719 113.17236328125 C 463.571533203125 116.77681732177734 469.0124816894531 117.39652252197266 472.4689025878906 119.47298431396484 C 488.3656005859375 124.53868865966797 488.8009338378906 125.25108337402344 491.75323486328125 129.8227081298828 C 493.3900146484375 131.73590087890625 493.2276916503906 134.14527893066406 496.5617980957031 136.4057159423828 C 494.93304443359375 134.65774536132812 492.2758483886719 136.82008361816406 487.42950439453125 136.29078674316406 C 484.5492248535156 134.18992614746094 482.5477294921875 135.36354064941406 479.56500244140625 135.05029296875 C 474.7471923828125 136.3266143798828 471.4181823730469 134.82798767089844 468.253662109375 134.3585968017578 C 465.3138122558594 133.49432373046875 460.05694580078125 133.5026092529297 457.7665100097656 134.40098571777344 C 454.3026123046875 142.2947540283203 470.029541015625 151.9508514404297 480.7253723144531 157.662109375 C 476.15936279296875 176.6048583984375 475.33489990234375 177.15768432617188 469.720947265625 180.70571899414062 C 466.6627197265625 182.24472045898438 466.25823974609375 186.672119140625 463.7455749511719 188.426025390625 C 458.8626403808594 188.64381408691406 454.6294860839844 181.5770263671875 454.1664733886719 176.85015869140625 C 448.26910400390625 179.38572692871094 447.51544189453125 182.582275390625 439.8995666503906 183.0861358642578 C 439.4807434082031 183.86312866210938 435.9533996582031 195.79693603515625 434.5228576660156 198.3750762939453 C 428.5394592285156 200.8202667236328 417.4836730957031 180.6001739501953 417.73699951171875 179.71249389648438 C 416.9631652832031 179.53054809570312 401.6762390136719 175.66864013671875 400.4880676269531 168.59039306640625 C 392.81622314453125 168.44964599609375 387.913330078125 176.03138732910156 381.1229553222656 173.1337127685547 C 380.8661804199219 164.28567504882812 383.83697509765625 143.45509338378906 392.4225158691406 140.50338745117188 C 397.9197082519531 137.46896362304688 399.3716125488281 129.686767578125 402.3515930175781 123.24874114990234 C 411.06011962890625 99.64087677001953 426.89013671875 105.54300689697266 449.877685546875 107.64328002929688" stroke-width="0.0" fill="url(#shape_11_fill)"/>
    <path d="M 602.76416015625 127.5609130859375 C 605.919189453125 130.6112060546875 605.7969360351562 143.09530639648438 608.6759033203125 143.60264587402344 C 612.1104125976562 144.41236877441406 612.2578735351562 147.677001953125 615.2815551757812 151.6072998046875 C 618.5634155273438 149.7992706298828 618.6925659179688 141.5767822265625 620.9642333984375 141.00721740722656 C 624.009765625 137.99920654296875 626.4249877929688 137.70787048339844 628.3624267578125 140.14447021484375 C 627.7518310546875 142.1190643310547 629.4871826171875 144.57720947265625 629.7672729492188 147.34397888183594 C 632.2131958007812 149.78895568847656 631.7088012695312 151.0623779296875 636.6190795898438 153.29466247558594 C 641.7760620117188 155.06314086914062 640.173095703125 160.97727966308594 642.3818969726562 169.74244689941406 C 637.471435546875 183.73765563964844 639.1301879882812 194.31640625 639.66357421875 206.38665771484375 C 642.2037963867188 219.09988403320312 646.3778076171875 232.1521453857422 643.2559814453125 246.5179443359375 C 622.819580078125 248.14382934570312 610.2238159179688 248.54702758789062 577.361083984375 251.5658416748047 C 573.64111328125 243.7174072265625 573.79833984375 230.4027557373047 572.819091796875 219.2191162109375 C 569.7810668945312 212.0199432373047 573.9493408203125 168.12403869628906 584.5789184570312 169.06158447265625 C 598.009765625 164.0880584716797 596.7864990234375 143.40066528320312 599.0191650390625 141.88246154785156 C 596.0119018554688 138.9235076904297 597.0548095703125 136.5287628173828 602.76416015625 127.5609130859375" stroke-width="0.0" fill="url(#shape_12_fill)"/>
    <path d="M 406.8388366699219 176.84153747558594 C 421.2987060546875 174.4215850830078 434.29595947265625 211.4619598388672 429.0596618652344 219.4866943359375 C 420.1168212890625 231.72210693359375 424.2788391113281 239.9297637939453 427.5323181152344 248.72134399414062 C 430.8809814453125 262.5854797363281 420.7692565917969 265.66241455078125 416.5091857910156 268.1930236816406 C 404.24114990234375 270.1098937988281 396.55401611328125 268.8807373046875 389.9623718261719 268.7865295410156 C 385.2764587402344 264.5382080078125 382.8145446777344 264.85791015625 380.72540283203125 263.8691711425781 C 376.95745849609375 262.4835510253906 376.9570007324219 260.2502746582031 375.517333984375 258.406982421875 C 376.3102722167969 255.9231719970703 375.71490478515625 253.33079528808594 374.4852600097656 253.5940704345703 C 374.2422180175781 252.35629272460938 370.5078125 250.56130981445312 369.1900329589844 251.41677856445312 C 361.71044921875 243.99636840820312 365.4096984863281 226.37918090820312 367.33953857421875 220.4971466064453 C 368.5616760253906 218.3480987548828 371.51507568359375 203.111572265625 378.3529357910156 203.62159729003906 C 378.0924987792969 200.28614807128906 379.4746398925781 183.47573852539062 384.397216796875 180.27792358398438 C 391.6238098144531 175.809326171875 392.72003173828125 175.76023864746094 406.8388366699219 176.84153747558594" stroke-width="0.0" fill="url(#shape_13_fill)"/>
    <path d="M 510.41265869140625 65.99349975585938 C 512.0632934570312 66.58806610107422 520.2134399414062 71.42242431640625 523.8419799804688 74.19679260253906 C 530.8052978515625 79.91927337646484 534.0551147460938 80.92528533935547 536.229248046875 90.2891845703125 C 539.4567260742188 90.79826354980469 544.5411987304688 90.3734359741211 545.023681640625 91.16012573242188 C 545.5364990234375 92.74838256835938 556.0869140625 97.05091094970703 561.0776977539062 95.35629272460938 C 563.648193359375 97.51067352294922 567.33642578125 97.53984832763672 568.6995239257812 99.39804077148438 C 565.68701171875 105.31031799316406 554.89697265625 114.25658416748047 547.4031372070312 110.84870147705078 C 541.7241821289062 112.12340545654297 539.3877563476562 114.98773193359375 534.1102905273438 117.53617858886719 C 528.12255859375 120.51925659179688 524.4515991210938 120.52088165283203 516.142822265625 119.49154663085938 C 510.1793518066406 119.16986083984375 501.27764892578125 125.26966094970703 498.64324951171875 124.9341049194336 C 497.47662353515625 128.7896728515625 494.0774230957031 127.84764862060547 489.3962097167969 128.0563507080078 C 489.3327331542969 124.794189453125 468.77545166015625 119.12036895751953 468.04974365234375 118.14116668701172 C 463.29638671875 117.75666046142578 463.09100341796875 116.45989227294922 460.72198486328125 114.95790100097656 C 464.60858154296875 110.6948013305664 467.3142395019531 105.0344009399414 473.7320251464844 99.37506103515625 C 476.6944580078125 88.12723541259766 474.7320861816406 84.90191650390625 474.2162170410156 82.11222839355469 C 474.58685302734375 70.9338607788086 475.34197998046875 70.3863296508789 478.5080871582031 66.48977661132812 C 479.0905456542969 64.2744369506836 482.7504577636719 64.3074951171875 484.88446044921875 63.80988693237305 C 492.6533508300781 63.747676849365234 500.9944763183594 62.81020736694336 510.41265869140625 65.99349975585938" stroke-width="0.0" fill="url(#shape_14_fill)"/>
    <path d="M 532.279541015625 159.63876342773438 C 543.7781372070312 162.91888427734375 544.034912109375 163.89834594726562 546.982177734375 165.74790954589844 C 547.5306396484375 168.0532684326172 548.2511596679688 170.0956573486328 542.8086547851562 181.1697998046875 C 541.353759765625 189.04539489746094 537.9274291992188 231.6643829345703 537.0868530273438 234.38742065429688 C 540.5450439453125 236.87046813964844 540.7974243164062 249.91563415527344 513.803955078125 252.0950164794922 C 502.85272216796875 251.01034545898438 483.8610534667969 245.13131713867188 487.51873779296875 229.97689819335938 C 477.28448486328125 218.70619201660156 478.7934265136719 205.6593780517578 486.0580749511719 199.6058349609375 C 487.1368103027344 197.20184326171875 488.9848327636719 197.93064880371094 489.81884765625 197.0685272216797 C 486.7313232421875 188.7361297607422 488.4858093261719 178.91888427734375 489.9629211425781 176.0576171875 C 492.1719055175781 174.5303192138672 494.77978515625 172.48561096191406 499.7815856933594 173.97039794921875 C 506.8976745605469 176.893310546875 512.1060180664062 180.86094665527344 522.6572875976562 172.56568908691406 C 525.5448608398438 170.9563446044922 525.53515625 167.29930114746094 526.955322265625 165.094970703125 C 527.5842895507812 161.6725311279297 530.88818359375 160.49783325195312 532.279541015625 159.63876342773438" stroke-width="0.0" fill="url(#shape_15_fill)"/>
    <path d="M 651.8162841796875 111.4707260131836 C 655.1243286132812 109.84119415283203 663.6777954101562 121.56253051757812 662.164306640625 126.92819213867188 C 665.4681396484375 133.3319854736328 666.0986328125 139.50282287597656 673.3873901367188 147.5443572998047 C 676.0591430664062 179.476806640625 673.9951171875 212.25718688964844 673.9069213867188 251.9961700439453 C 673.149658203125 249.54295349121094 648.1846313476562 256.9255065917969 639.4660034179688 248.2854461669922 C 635.5840454101562 242.9359588623047 638.4119262695312 121.22466278076172 651.8162841796875 111.4707260131836" stroke-width="0.0" fill="url(#shape_16_fill)"/>
    <path d="M 600.3567504882812 129.85955810546875 C 603.3701171875 127.5469741821289 608.2135620117188 131.5492401123047 606.917724609375 133.94546508789062 C 608.33935546875 135.06683349609375 608.3452758789062 139.19200134277344 609.4906616210938 144.2399444580078 C 623.8660278320312 141.3828582763672 623.4296264648438 230.29591369628906 618.5925903320312 246.64962768554688 C 595.886474609375 253.64723205566406 578.1631469726562 246.81834411621094 580.02734375 235.7187957763672 C 565.007568359375 227.5980987548828 596.0731811523438 152.9619598388672 600.3567504882812 129.85955810546875" stroke-width="0.0" fill="url(#shape_17_fill)"/>
    <path d="M 321.3116149902344 186.35678100585938 C 322.7924499511719 185.90480041503906 324.00640869140625 188.81658935546875 325.20263671875 191.629638671875 C 331.9856262207031 190.4075469970703 336.6889953613281 189.49920654296875 339.16168212890625 191.8434295654297 C 341.8110046386719 196.9302215576172 347.15338134765625 196.00985717773438 353.6954040527344 195.71754455566406 C 357.0133056640625 195.05459594726562 357.9462585449219 198.3453826904297 358.71710205078125 200.80062866210938 C 359.8293762207031 203.7372283935547 361.9696044921875 203.83677673339844 362.9269714355469 206.57080078125 C 367.2516174316406 206.95855712890625 368.4776916503906 208.20872497558594 368.2707824707031 211.82400512695312 C 370.7552490234375 218.7542724609375 370.782958984375 223.4599151611328 366.5397644042969 225.72967529296875 C 366.8512268066406 231.49671936035156 365.406005859375 235.23941040039062 367.9910888671875 244.1780548095703 C 367.7690734863281 248.64869689941406 365.03924560546875 255.76600646972656 356.5665283203125 255.05320739746094 C 353.205078125 255.35926818847656 331.0387878417969 255.00912475585938 322.9076843261719 255.01829528808594 C 313.48046875 255.798095703125 312.25537109375 253.382080078125 310.1031799316406 240.74032592773438 C 305.6275634765625 230.16290283203125 320.2268981933594 193.1112060546875 321.3116149902344 186.35678100585938" stroke-width="0.0" fill="url(#shape_18_fill)"/>
    <path d="M 479.20379638671875 216.89292907714844 C 490.9927673339844 244.97247314453125 498.4050598144531 252.033447265625 481.17877197265625 270.64105224609375 C 470.41046142578125 278.3829345703125 444.0123291015625 261.35052490234375 442.1435546875 261.6568298339844 C 438.6354675292969 260.6377258300781 437.17034912109375 258.161376953125 432.5869445800781 257.9618225097656 C 429.6567687988281 258.1805114746094 427.6404724121094 257.6661682128906 426.8543395996094 254.28826904296875 C 423.386962890625 243.57765197753906 421.4792175292969 234.69989013671875 422.5185241699219 228.5423126220703 C 424.427734375 225.12258911132812 420.9906005859375 228.71487426757812 421.30572509765625 225.5924835205078 C 427.6937561035156 219.45057678222656 429.6757507324219 218.77777099609375 429.602294921875 215.73397827148438 C 438.68560791015625 198.8588409423828 466.6587829589844 203.10838317871094 479.20379638671875 216.89292907714844" stroke-width="0.0" fill="url(#shape_19_fill)"/>
    <path d="M 674.1382446289062 -2.445317506790161 C 675.03466796875 32.878971099853516 674.5794677734375 64.76630401611328 674.3484497070312 97.24433898925781 C 669.3065795898438 96.41035461425781 651.0265502929688 86.17864227294922 642.7902221679688 90.6366958618164 C 638.6808471679688 89.59550476074219 638.2426147460938 85.79607391357422 637.8583984375 84.64253234863281 C 627.5093994140625 85.22620391845703 618.9818725585938 91.56983184814453 608.383056640625 85.83123016357422 C 609.9892578125 77.50252532958984 614.7015380859375 75.83446502685547 614.433837890625 71.41888427734375 C 624.1817626953125 70.71624755859375 649.8033447265625 26.170654296875 648.4827270507812 21.97615623474121 C 656.1889038085938 15.660074234008789 656.8868408203125 4.8204026222229 667.7821044921875 4.020226001739502 C 669.7791137695312 2.6515111923217773 670.2396850585938 1.212668776512146 674.1382446289062 -2.445317506790161" stroke-width="0.0" fill="url(#shape_20_fill)"/>
    <path d="M 562.0327758789062 155.97254943847656 C 569.672607421875 156.79989624023438 569.5186157226562 164.88894653320312 573.4346923828125 165.4295654296875 C 584.880859375 168.22909545898438 575.6878051757812 231.5755615234375 577.6717529296875 241.23541259765625 C 573.6373291015625 243.10128784179688 569.3546142578125 245.66897583007812 567.9390869140625 248.83273315429688 C 558.82421875 250.98797607421875 543.00244140625 252.22808837890625 540.0889892578125 246.34608459472656 C 544.4730224609375 244.7121124267578 540.3980712890625 163.2783203125 555.084228515625 157.78208923339844 C 556.0556030273438 153.31777954101562 558.5006103515625 153.36856079101562 562.0327758789062 155.97254943847656" stroke-width="0.0" fill="url(#shape_21_fill)"/>
    <path d="M 215.82313537597656 212.7577362060547 C 227.22335815429688 216.7689208984375 227.6859893798828 249.04449462890625 218.96702575683594 255.2799072265625 C 211.0800323486328 262.7586975097656 208.50022888183594 264.1087951660156 205.99172973632812 272.6685485839844 C 205.46612548828125 275.7114562988281 206.6356658935547 276.4083557128906 207.0688934326172 280.086669921875 C 207.097900390625 283.2716064453125 204.2830047607422 285.1935119628906 200.3272705078125 284.7824401855469 C 200.92518615722656 283.3685302734375 194.7398681640625 268.2644348144531 188.1309356689453 264.40155029296875 C 186.42005920410156 261.1534423828125 184.123046875 261.8516845703125 181.51950073242188 261.8330993652344 C 180.70054626464844 260.6994934082031 179.3988494873047 260.6435852050781 178.13906860351562 255.48867797851562 C 181.12889099121094 248.60707092285156 169.35520935058594 243.10433959960938 170.85372924804688 237.35939025878906 C 176.00376892089844 216.01776123046875 180.2091522216797 215.02349853515625 186.2479705810547 220.65176391601562 C 194.46421813964844 218.5990447998047 193.84686279296875 216.05853271484375 196.22825622558594 213.91355895996094 C 193.0324249267578 204.6975555419922 192.87730407714844 202.79798889160156 200.25762939453125 201.5718231201172 C 212.4240264892578 201.00669860839844 213.10238647460938 202.93263244628906 215.82313537597656 212.7577362060547" stroke-width="0.0" fill="url(#shape_22_fill)"/>
    <path d="M 111.51812744140625 426.42108154296875 C 112.7200927734375 429.274658203125 110.99246978759766 431.18218994140625 110.67420959472656 431.70245361328125 C 106.56001281738281 435.66473388671875 102.28399658203125 436.2481689453125 91.86173248291016 433.0005798339844 C 89.62022399902344 436.2669372558594 95.98426055908203 446.6366271972656 91.27851867675781 451.84912109375 C 78.6653060913086 444.9984436035156 46.935638427734375 447.9253845214844 24.934085845947266 449.6473388671875 C 13.996593475341797 446.28656005859375 13.874622344970703 439.7861328125 17.599031448364258 436.5342712402344 C 34.495567321777344 428.2525634765625 50.95387268066406 426.0484924316406 70.40238952636719 425.91278076171875 C 75.80302429199219 425.5534973144531 107.68180084228516 417.6278991699219 111.51812744140625 426.42108154296875" stroke-width="0.0" fill="url(#shape_23_fill)"/>
    <path d="M 194.63417053222656 123.03128814697266 C 199.40118408203125 124.97367858886719 209.8652801513672 144.34490966796875 214.08604431152344 144.77830505371094 C 215.4601287841797 148.2685546875 218.4532928466797 149.77076721191406 219.73924255371094 153.63449096679688 C 227.2045440673828 157.4464874267578 248.84750366210938 180.2402801513672 244.47708129882812 199.63816833496094 C 239.06520080566406 199.5819854736328 235.41314697265625 187.39578247070312 234.5752410888672 182.2693328857422 C 233.26026916503906 184.609130859375 231.61871337890625 193.99778747558594 230.41806030273438 197.6193084716797 C 225.9711151123047 199.4313507080078 225.7113800048828 202.22520446777344 220.7451629638672 208.39491271972656 C 215.15667724609375 207.63230895996094 213.69729614257812 200.21363830566406 214.52708435058594 195.9309539794922 C 212.6992950439453 189.5481719970703 212.64987182617188 182.87542724609375 207.12391662597656 178.30413818359375 C 204.03305053710938 174.0270538330078 205.148193359375 173.0394287109375 205.4806365966797 167.58168029785156 C 203.63856506347656 150.8278350830078 200.00958251953125 148.8114776611328 193.23388671875 143.68301391601562 C 188.72007751464844 142.103271484375 191.00428771972656 128.2859344482422 194.63417053222656 123.03128814697266" stroke-width="0.0" fill="url(#shape_24_fill)"/>
    <path d="M 595.3421020507812 411.9679870605469 C 597.6723022460938 413.7330627441406 625.3934326171875 410.6719665527344 626.98095703125 417.6168212890625 C 628.5432739257812 420.9024353027344 626.4811401367188 424.9698791503906 628.4492797851562 427.0359802246094 C 629.8724975585938 429.4196472167969 633.1704711914062 429.5734558105469 635.3798828125 437.5599060058594 C 616.0968627929688 447.8607482910156 577.6978759765625 440.9951171875 576.2222900390625 432.73626708984375 C 569.74951171875 424.0557861328125 573.3902587890625 417.6858215332031 574.7180786132812 413.99505615234375 C 580.2049560546875 409.4041442871094 587.3377685546875 411.33648681640625 595.3421020507812 411.9679870605469" stroke-width="0.0" fill="url(#shape_25_fill)"/>
    <path d="M 142.91958618164062 66.69351959228516 C 144.08416748046875 68.92760467529297 149.1692352294922 68.42903900146484 149.62928771972656 69.14031982421875 C 148.90872192382812 70.90223693847656 150.45751953125 71.82730102539062 149.77633666992188 73.86115264892578 C 151.00306701660156 74.455810546875 150.4626007080078 78.13594055175781 151.35214233398438 82.6146011352539 C 152.20823669433594 89.78636932373047 152.21188354492188 98.15144348144531 153.96524047851562 104.09256744384766 C 153.5330352783203 107.618896484375 155.10877990722656 108.52206420898438 154.66360473632812 111.73835754394531 C 158.24038696289062 123.33198547363281 155.34642028808594 133.50791931152344 150.28854370117188 133.578125 C 142.80841064453125 127.19474792480469 136.42971801757812 121.16256713867188 125.54296112060547 117.3541030883789 C 122.50049591064453 114.3252182006836 124.61652374267578 109.71920013427734 126.91400146484375 107.15028381347656 C 128.8356475830078 106.85523223876953 128.87896728515625 105.28348541259766 132.6636505126953 104.68790435791016 C 139.044921875 96.53913116455078 135.1593475341797 92.95816040039062 133.37216186523438 90.1130599975586 C 134.21011352539062 88.89546966552734 139.26637268066406 87.07014465332031 140.0406494140625 85.30888366699219 C 138.14784240722656 84.75091552734375 138.8614044189453 77.64743041992188 139.49990844726562 77.45779418945312 C 143.52064514160156 76.58784484863281 142.65447998046875 70.27050018310547 142.91958618164062 66.69351959228516" stroke-width="0.0" fill="url(#shape_26_fill)"/>
    <path d="M 144.40283203125 67.69329833984375 C 149.24752807617188 68.17029571533203 150.10137939453125 70.54578399658203 148.19320678710938 76.32176971435547 C 151.82940673828125 76.86895751953125 151.42820739746094 79.7318344116211 153.8279266357422 82.42878723144531 C 150.88595581054688 89.00849151611328 152.73110961914062 93.97887420654297 152.89759826660156 104.07930755615234 C 154.0745391845703 105.33277130126953 153.559814453125 109.09021759033203 154.9439239501953 113.26377868652344 C 153.88795471191406 118.30895233154297 157.2404327392578 122.5509033203125 155.1693878173828 126.06837463378906 C 152.67947387695312 132.05191040039062 151.3615264892578 133.1754608154297 147.4334716796875 133.39822387695312 C 138.60305786132812 135.2141876220703 126.65100860595703 122.92862701416016 125.22244262695312 121.97028350830078 C 122.80237579345703 120.477783203125 122.12274169921875 115.50831604003906 128.53890991210938 110.54638671875 C 124.07904815673828 108.7572021484375 124.20242309570312 106.13277435302734 131.88412475585938 105.86531829833984 C 135.87559509277344 105.35965728759766 134.77452087402344 92.13471984863281 134.83969116210938 89.5247573852539 C 139.3718719482422 87.08686065673828 138.33802795410156 84.6263427734375 138.30770874023438 81.68695831298828 C 139.0779266357422 77.49551391601562 140.3623809814453 76.7747573852539 141.68162536621094 76.62073516845703 C 145.333984375 72.3587875366211 143.0192413330078 69.27738189697266 144.40283203125 67.69329833984375" stroke-width="0.0" fill="url(#shape_27_fill)"/>
    <path d="M -0.31855353713035583 -0.27038800716400146 C 4.696934700012207 0.3801993429660797 9.643301010131836 -0.5242315530776978 17.56183624267578 -0.48828667402267456 C 21.327619552612305 0.15640269219875336 20.443870544433594 9.076044082641602 33.781978607177734 16.50992202758789 C 30.758996963500977 25.081531524658203 27.74978256225586 25.844539642333984 27.04067611694336 26.335094451904297 C 35.08236312866211 29.579591751098633 41.72230529785156 30.455738067626953 43.48785400390625 38.777984619140625 C 36.16715621948242 40.290164947509766 32.92831039428711 40.25401306152344 29.400665283203125 37.416751861572266 C 24.336462020874023 33.281715393066406 15.813314437866211 34.07611083984375 10.625173568725586 33.47270202636719 C 9.158689498901367 36.952030181884766 12.715103149414062 40.180809020996094 12.977858543395996 41.55841064453125 C 13.93868350982666 42.054832458496094 14.256745338439941 45.13508987426758 18.074459075927734 47.938995361328125 C 20.057392120361328 51.07417678833008 18.744285583496094 52.31018829345703 19.845806121826172 57.03469467163086 C 20.49361228942871 62.61602020263672 12.762405395507812 63.64900207519531 8.900117874145508 61.178871154785156 C 5.4965291023254395 60.883575439453125 3.53340220451355 59.14193344116211 0.3251810669898987 59.43410110473633 C -0.3176303505897522 39.778587341308594 -0.32485947012901306 19.628625869750977 -0.31855353713035583 -0.27038800716400146" stroke-width="0.0" fill="url(#shape_28_fill)"/>
    <path d="M 298.62744140625 196.9459686279297 C 297.4346008300781 199.3135986328125 299.25531005859375 202.46434020996094 301.2914123535156 208.31259155273438 C 300.3092041015625 210.61436462402344 319.7079162597656 231.85447692871094 314.2794494628906 253.43006896972656 C 312.0408020019531 253.33673095703125 311.2932434082031 255.96539306640625 308.27020263671875 257.34503173828125 C 300.7185363769531 258.7962951660156 295.7076416015625 258.5772705078125 281.84033203125 257.29345703125 C 281.1593017578125 231.49374389648438 284.8610534667969 214.7689208984375 298.62744140625 196.9459686279297" stroke-width="0.0" fill="url(#shape_29_fill)"/>
    <path d="M -0.3857104778289795 0.12592752277851105 C 4.438974380493164 0.4510529637336731 9.544650077819824 -0.4149912893772125 14.515176773071289 0.14056357741355896 C 15.691255569458008 0.4976120889186859 16.128265380859375 5.558212757110596 16.11320686340332 8.069586753845215 C 18.977556228637695 10.7612886428833 22.198118209838867 18.750648498535156 26.802248001098633 20.893991470336914 C 27.138532638549805 22.452369689941406 24.81797981262207 26.91865348815918 24.15896987915039 31.2086124420166 C 21.095840454101562 33.04170608520508 16.1291561126709 33.12519073486328 7.817335605621338 34.33624267578125 C 9.198029518127441 35.80330276489258 8.834786415100098 38.560054779052734 11.283685684204102 40.40742492675781 C 11.005147933959961 44.947322845458984 9.564047813415527 51.01661682128906 12.697965621948242 53.42892837524414 C 18.05339813232422 51.58647918701172 19.140043258666992 53.199947357177734 18.501298904418945 57.71035385131836 C 12.440457344055176 59.96749496459961 7.972717761993408 61.40721130371094 0.22528058290481567 62.021846771240234 C -0.41371482610702515 39.95417022705078 -0.3543042242527008 19.75340461730957 -0.3857104778289795 0.12592752277851105" stroke-width="0.0" fill="url(#shape_30_fill)"/>
    <path d="M 546.074462890625 71.47786712646484 C 547.8565063476562 72.71910095214844 579.92333984375 86.43834686279297 583.4634399414062 88.7121810913086 C 580.4066162109375 91.76866912841797 577.7521362304688 92.08261108398438 577.2537841796875 98.23429107666016 C 573.2415161132812 100.74344635009766 572.1282348632812 100.02220153808594 568.137939453125 98.99958801269531 C 566.2347412109375 96.75593566894531 543.71484375 94.43387603759766 538.5178833007812 88.51190948486328 C 538.5811157226562 85.48478698730469 537.4768676757812 83.35794830322266 535.5748291015625 82.60845184326172 C 534.9053955078125 79.3227767944336 530.3377685546875 79.17385864257812 526.9906005859375 78.11373138427734 C 525.4256591796875 75.77448272705078 527.7796630859375 70.82777404785156 532.0991821289062 69.52155303955078 C 536.4415283203125 68.1522445678711 541.50341796875 68.85223388671875 546.074462890625 71.47786712646484" stroke-width="0.0" fill="url(#shape_31_fill)"/>
    <path d="M 448.29840087890625 263.99383544921875 C 450.6752014160156 265.2605285644531 451.330078125 266.6958923339844 456.02252197265625 267.6460876464844 C 460.54119873046875 267.6457214355469 465.369140625 270.3228454589844 469.90545654296875 273.2909851074219 C 470.437255859375 275.6304016113281 471.8232116699219 276.8941650390625 471.6767578125 280.7419738769531 C 449.0019836425781 289.6510314941406 426.6370544433594 287.1047668457031 415.74517822265625 285.12261962890625 C 413.365966796875 273.9175720214844 415.2929992675781 272.3556213378906 415.7294616699219 268.2660217285156 C 418.1906433105469 267.2078552246094 417.7780456542969 264.8067626953125 419.3324890136719 263.0574035644531 C 428.5861511230469 253.64816284179688 438.7812805175781 258.8104248046875 448.29840087890625 263.99383544921875" stroke-width="0.0" fill="url(#shape_32_fill)"/>
    <path d="M 270.32830810546875 191.15557861328125 C 280.1753234863281 191.3798370361328 284.6276550292969 243.5758514404297 279.851806640625 244.41603088378906 C 279.42010498046875 247.17384338378906 273.7960510253906 246.70985412597656 269.9540100097656 248.2943878173828 C 266.4782409667969 245.80335998535156 266.8218994140625 241.93484497070312 262.8097229003906 240.64804077148438 C 256.0668640136719 210.54306030273438 261.18511962890625 204.58517456054688 270.32830810546875 191.15557861328125" stroke-width="0.0" fill="url(#shape_33_fill)"/>
    <path d="M 254.5142822265625 425.2826232910156 C 256.9339904785156 426.87451171875 264.73443603515625 431.01043701171875 264.4902038574219 439.4073791503906 C 261.3315734863281 442.20172119140625 260.51611328125 444.63720703125 252.50437927246094 444.1876220703125 C 247.115478515625 444.17303466796875 221.07772827148438 446.56414794921875 212.60899353027344 444.4858093261719 C 213.02517700195312 436.99578857421875 213.95973205566406 436.2222900390625 215.89295959472656 434.4232482910156 C 216.10269165039062 433.364501953125 224.99130249023438 433.2947692871094 226.58175659179688 430.0879211425781 C 230.9455108642578 424.9521484375 243.44522094726562 425.1441955566406 254.5142822265625 425.2826232910156" stroke-width="0.0" fill="url(#shape_34_fill)"/>
    <path d="M 105.74697875976562 69.93816375732422 C 109.46271514892578 70.0656509399414 112.43216705322266 78.24891662597656 111.4348373413086 81.63935089111328 C 116.54657745361328 84.11502075195312 117.14823150634766 110.28136444091797 117.51414489746094 110.92535400390625 C 117.00970458984375 113.0078125 112.14761352539062 114.46299743652344 109.27189636230469 119.4169692993164 C 105.46330261230469 116.70117950439453 96.70755004882812 118.8121566772461 92.31842803955078 112.94953155517578 C 91.3310546875 85.54261779785156 103.29315948486328 84.10791015625 105.74697875976562 69.93816375732422" stroke-width="0.0" fill="url(#shape_35_fill)"/>
    <path d="M 451.6643981933594 178.21969604492188 C 453.6091613769531 176.1819610595703 456.6139221191406 177.21615600585938 456.8340759277344 179.765625 C 457.42767333984375 179.9290771484375 457.5346984863281 184.24508666992188 458.9646911621094 185.7108917236328 C 457.6932373046875 189.65252685546875 461.0467224121094 193.76226806640625 460.2214660644531 206.61070251464844 C 459.7296142578125 209.06130981445312 453.1141662597656 209.14817810058594 448.0768737792969 206.73556518554688 C 441.1510009765625 207.4294891357422 440.2977294921875 209.14810180664062 433.31640625 210.8323974609375 C 433.1056213378906 210.29864501953125 437.9010925292969 189.6305694580078 439.6861267089844 184.5183563232422 C 441.0899963378906 181.76702880859375 445.1277770996094 182.20533752441406 446.54046630859375 180.47564697265625 C 447.7768249511719 178.98233032226562 449.991943359375 179.528564453125 451.6643981933594 178.21969604492188" stroke-width="0.0" fill="url(#shape_36_fill)"/>
    <path d="M 557.1426391601562 84.96650695800781 C 564.2717895507812 80.25357055664062 580.3367309570312 81.959716796875 578.9664306640625 84.80513763427734 C 582.1024780273438 83.22296905517578 586.6455688476562 84.79646301269531 586.9044189453125 87.65514373779297 C 588.2401733398438 92.63189697265625 581.8731689453125 99.72533416748047 574.3930053710938 100.02963256835938 C 573.7947998046875 99.33744812011719 549.2467041015625 96.15432739257812 540.4724731445312 85.86105346679688 C 538.6962890625 85.22404479980469 537.76123046875 81.85264587402344 535.94287109375 79.54293060302734 C 545.2163696289062 75.69273376464844 550.86669921875 77.82738494873047 557.1426391601562 84.96650695800781" stroke-width="0.0" fill="url(#shape_37_fill)"/>
    <path d="M 251.5530548095703 208.47198486328125 C 262.29815673828125 210.5093231201172 259.4122314453125 244.89637756347656 259.3142395019531 247.5348663330078 C 256.0394592285156 254.1213836669922 250.0426788330078 253.41204833984375 246.28489685058594 255.79315185546875 C 236.0288848876953 240.65106201171875 242.8603973388672 211.65708923339844 251.5530548095703 208.47198486328125" stroke-width="0.0" fill="url(#shape_38_fill)"/>
    <path d="M 443.2286682128906 263.2505187988281 C 445.9281921386719 263.4999694824219 449.0846252441406 266.60797119140625 447.6400451660156 270.0831298828125 C 443.985595703125 270.3257751464844 442.56512451171875 276.9136962890625 441.01239013671875 279.3817443847656 C 440.3287353515625 285.2560729980469 418.1838073730469 285.6861572265625 417.1786193847656 278.9643859863281 C 414.70208740234375 276.9676818847656 413.2422180175781 273.73626708984375 415.3072814941406 271.661865234375 C 414.6321716308594 269.83831787109375 418.3668518066406 261.3078918457031 425.4005432128906 260.4322204589844 C 429.53338623046875 256.26544189453125 436.3048400878906 258.49432373046875 443.2286682128906 263.2505187988281" stroke-width="0.0" fill="url(#shape_39_fill)"/>
    <path d="M 407.7419738769531 409.7667541503906 C 408.6883239746094 409.8798828125 416.7703552246094 419.0184631347656 413.4659423828125 424.0730285644531 C 398.2402648925781 434.1676025390625 381.3344421386719 421.9714660644531 377.3612365722656 420.2469177246094 C 369.9344177246094 417.6265563964844 372.0610046386719 416.931640625 373.27301025390625 411.7878112792969 C 378.1932678222656 403.0445251464844 398.4420471191406 402.6873779296875 407.7419738769531 409.7667541503906" stroke-width="0.0" fill="url(#shape_40_fill)"/>
    <path d="M 66.46121978759766 427.5991516113281 C 67.5359878540039 429.20025634765625 65.32162475585938 435.8503112792969 59.846256256103516 436.2440185546875 C 58.52585220336914 437.20733642578125 41.29767990112305 437.3933410644531 31.85665512084961 443.11309814453125 C 28.55776596069336 443.2322998046875 24.221492767333984 446.9940490722656 17.076414108276367 443.6325988769531 C 16.521799087524414 440.64111328125 17.627458572387695 439.202880859375 16.769845962524414 437.6015319824219 C 33.638206481933594 428.4487609863281 56.731990814208984 427.0650939941406 66.46121978759766 427.5991516113281" stroke-width="0.0" fill="url(#shape_41_fill)"/>
    <path d="M 278.5369873046875 383.4446105957031 C 282.75543212890625 383.2988586425781 295.1978454589844 383.8093566894531 297.5032958984375 387.9710388183594 C 297.1016540527344 395.30718994140625 299.67724609375 400.9964904785156 294.293701171875 403.94659423828125 C 291.732177734375 398.2897033691406 264.3616943359375 403.01739501953125 257.5587463378906 403.50665283203125 C 253.43162536621094 402.8799133300781 252.4955596923828 391.2283935546875 255.95968627929688 385.7635192871094 C 263.4166564941406 383.4638671875 269.3319396972656 383.8043212890625 278.5369873046875 383.4446105957031" stroke-width="0.0" fill="url(#shape_42_fill)"/>
    <path d="M 218.72593688964844 220.89830017089844 C 224.23143005371094 219.6586456298828 230.5299835205078 219.75933837890625 235.9422607421875 221.22572326660156 C 238.6114044189453 224.5619659423828 244.20050048828125 242.3603515625 241.8310546875 257.2550048828125 C 238.78004455566406 262.5485534667969 231.38955688476562 262.6360778808594 219.54904174804688 262.48699951171875 C 214.8968505859375 260.56768798828125 214.4998321533203 259.6319274902344 217.70834350585938 248.05125427246094 C 219.5411376953125 246.4778594970703 217.88824462890625 226.4134063720703 218.72593688964844 220.89830017089844" stroke-width="0.0" fill="url(#shape_43_fill)"/>
    <path d="M 483.9960021972656 395.4146423339844 C 486.828125 399.7977600097656 485.85467529296875 400.9895324707031 483.5545349121094 401.2530517578125 C 474.4965515136719 406.7585754394531 451.03338623046875 406.7662353515625 450.3702087402344 407.59112548828125 C 448.0400085449219 404.4204406738281 451.5940856933594 396.17608642578125 453.6102294921875 396.471435546875 C 462.68798828125 393.4083557128906 473.7987365722656 393.0956115722656 483.9960021972656 395.4146423339844" stroke-width="0.0" fill="url(#shape_44_fill)"/>
    <path d="M 45.99626922607422 406.585205078125 C 45.44914627075195 409.0652160644531 35.99610137939453 412.14105224609375 35.10832595825195 414.4183654785156 C 32.87041091918945 414.7401123046875 32.54513931274414 416.197998046875 29.688419342041016 416.6422119140625 C 28.107196807861328 418.06634521484375 25.23630714416504 418.13092041015625 21.74403953552246 420.9769287109375 C 16.860862731933594 420.21221923828125 1.1841293573379517 417.1285705566406 -1.1828958988189697 420.63800048828125 C 0.9459268450737 419.59686279296875 -0.2750403583049774 410.5123596191406 1.339569330215454 409.84344482421875 C 8.301873207092285 408.72442626953125 45.103397369384766 407.6674499511719 45.99626922607422 406.585205078125" stroke-width="0.0" fill="url(#shape_45_fill)"/>
    <path d="M 451.9560546875 175.27407836914062 C 456.4813537597656 174.68154907226562 464.9222106933594 197.7752685546875 464.6959533691406 202.376953125 C 462.5802307128906 209.66162109375 451.6929931640625 209.63897705078125 449.4754638671875 206.7803497314453 C 448.32830810546875 203.24925231933594 449.0521545410156 198.3125762939453 448.84600830078125 195.3010711669922 C 447.9414978027344 194.54454040527344 447.61016845703125 192.1927490234375 448.4987487792969 187.7353973388672 C 450.5892333984375 186.7268524169922 449.8536071777344 183.32310485839844 451.9560546875 175.27407836914062" stroke-width="0.0" fill="url(#shape_46_fill)"/>
    <path d="M 375.30364990234375 185.05641174316406 C 379.115234375 190.4962158203125 379.3060607910156 204.718017578125 372.6120910644531 206.51968383789062 C 365.8646545410156 206.82740783691406 364.772705078125 204.85302734375 361.7236633300781 203.56289672851562 C 353.0930480957031 205.70184326171875 351.2425842285156 201.55068969726562 354.521484375 188.37081909179688 C 356.6410217285156 184.95262145996094 358.3648376464844 184.41973876953125 366.71575927734375 185.34567260742188 C 368.7935791015625 184.17263793945312 373.6136169433594 182.91793823242188 375.30364990234375 185.05641174316406" stroke-width="0.0" fill="url(#shape_47_fill)"/>
    <path d="M 471.4812927246094 266.6797790527344 C 473.9241638183594 267.2771301269531 477.91717529296875 268.3833312988281 476.83056640625 283.8482666015625 C 465.0516662597656 287.54638671875 455.9947814941406 285.2767028808594 444.22796630859375 284.80755615234375 C 439.3073425292969 282.2033996582031 439.9957275390625 276.95574951171875 441.23419189453125 276.494384765625 C 447.11468505859375 266.45208740234375 455.62750244140625 266.7765808105469 471.4812927246094 266.6797790527344" stroke-width="0.0" fill="url(#shape_48_fill)"/>
    <path d="M 176.6547088623047 118.64937591552734 C 179.17723083496094 116.29451751708984 181.95904541015625 116.88325500488281 183.35848999023438 117.45603942871094 C 184.6959991455078 120.20958709716797 183.85336303710938 122.34586334228516 185.07737731933594 125.77989196777344 C 181.2574462890625 131.0711212158203 187.0396728515625 136.43919372558594 187.07086181640625 144.67559814453125 C 183.77252197265625 149.96038818359375 174.57769775390625 147.51402282714844 170.13624572753906 148.4363555908203 C 170.63816833496094 126.25914001464844 169.4536895751953 122.6622085571289 176.6547088623047 118.64937591552734" stroke-width="0.0" fill="url(#shape_49_fill)"/>
    <path d="M 334.156982421875 427.4124755859375 C 337.7401428222656 428.26806640625 340.81610107421875 429.337890625 342.85357666015625 432.0641174316406 C 346.359130859375 435.60211181640625 345.1622009277344 437.23101806640625 342.48565673828125 437.611083984375 C 342.8800354003906 445.0545959472656 324.49658203125 447.77386474609375 322.88885498046875 440.6593933105469 C 317.0631103515625 439.2271728515625 315.7804260253906 433.9637451171875 315.076416015625 430.3379211425781 C 321.57427978515625 425.2892761230469 328.3951110839844 425.24249267578125 334.156982421875 427.4124755859375" stroke-width="0.0" fill="url(#shape_50_fill)"/>
    <path d="M 297.1230163574219 390.89923095703125 C 298.1417236328125 394.1055603027344 295.6480407714844 399.00787353515625 288.66168212890625 398.9727478027344 C 283.8337097167969 397.2660827636719 281.4985656738281 398.636962890625 271.39862060546875 402.6999816894531 C 271.03448486328125 401.6211242675781 269.5052490234375 398.9990539550781 270.9560852050781 397.48004150390625 C 269.88153076171875 395.4927978515625 272.8991394042969 387.9857177734375 277.8388671875 388.57421875 C 283.1596984863281 386.7311706542969 288.42236328125 388.63861083984375 297.1230163574219 390.89923095703125" stroke-width="0.0" fill="url(#shape_51_fill)"/>
    <path d="M 269.2513122558594 187.3701934814453 C 276.8391418457031 194.755615234375 278.8523864746094 206.55079650878906 280.32012939453125 216.27052307128906 C 271.3130187988281 210.6496124267578 268.5895080566406 207.8324737548828 260.6910705566406 215.66175842285156 C 258.923095703125 206.06361389160156 264.25335693359375 197.66392517089844 265.55767822265625 194.966796875 C 269.4190979003906 194.22813415527344 268.9833679199219 191.69667053222656 269.2513122558594 187.3701934814453" stroke-width="0.0" fill="url(#shape_52_fill)"/>
    <path d="M 218.18768310546875 409.60723876953125 C 215.9863739013672 411.04815673828125 215.47122192382812 413.146484375 214.28192138671875 414.1072692871094 C 213.9720001220703 419.16162109375 188.8318328857422 422.5504455566406 187.481689453125 415.671142578125 C 186.27328491210938 408.1430969238281 205.68136596679688 401.50634765625 218.18768310546875 409.60723876953125" stroke-width="0.0" fill="url(#shape_53_fill)"/>
    <path d="M 205.7646026611328 424.5285949707031 C 205.3537139892578 425.42340087890625 206.2208709716797 428.6355285644531 204.54127502441406 429.4252014160156 C 199.6325225830078 433.3032531738281 178.84083557128906 433.2248229980469 177.90640258789062 432.8045654296875 C 176.6744384765625 430.9567565917969 178.12991333007812 425.9569396972656 176.6996307373047 423.9105529785156 C 187.372802734375 420.052490234375 197.3029022216797 421.6220703125 205.7646026611328 424.5285949707031" stroke-width="0.0" fill="url(#shape_54_fill)"/>
    <path d="M 270.4420166015625 245.3096160888672 C 275.42132568359375 244.6564178466797 276.667724609375 245.78733825683594 282.4173278808594 245.04217529296875 C 282.03851318359375 251.39772033691406 280.9283142089844 253.2199249267578 282.458251953125 259.2019348144531 C 263.4632568359375 257.87042236328125 262.92352294921875 257.1566162109375 255.44662475585938 256.5923767089844 C 254.87954711914062 248.17178344726562 255.8538360595703 247.22830200195312 258.12994384765625 244.42063903808594 C 259.9307556152344 239.53233337402344 265.86370849609375 240.30718994140625 270.4420166015625 245.3096160888672" stroke-width="0.0" fill="url(#shape_55_fill)"/>
    <path d="M 272.0060729980469 361.7825927734375 C 276.94927978515625 364.7509460449219 281.7647399902344 363.3622131347656 284.47650146484375 368.11480712890625 C 285.413818359375 369.2535095214844 285.50665283203125 371.7261047363281 284.7873229980469 379.07049560546875 C 277.17218017578125 379.087646484375 265.4477844238281 381.7070007324219 252.4210662841797 380.2088317871094 C 248.72218322753906 376.6853942871094 250.2481689453125 366.03192138671875 251.5459442138672 364.45001220703125 C 257.98492431640625 362.9781188964844 264.3553466796875 362.0899353027344 272.0060729980469 361.7825927734375" stroke-width="0.0" fill="url(#shape_56_fill)"/>
    <path d="M 409.4324951171875 271.0935974121094 C 413.96612548828125 269.92791748046875 417.2320251464844 274.53509521484375 417.7015075683594 282.17376708984375 C 413.2160339355469 289.2608947753906 402.116943359375 285.7628479003906 389.2729797363281 286.22210693359375 C 387.5549011230469 272.0361633300781 396.2216796875 266.7958679199219 409.4324951171875 271.0935974121094" stroke-width="0.0" fill="url(#shape_57_fill)"/>
    <path d="M 632.2333984375 351.9077453613281 C 632.7813720703125 353.6145935058594 659.9439086914062 353.0722961425781 668.6932373046875 353.3618469238281 C 668.4642333984375 358.370849609375 662.3817138671875 360.9054870605469 656.9205932617188 356.7952880859375 C 653.3640747070312 356.7777099609375 633.9986572265625 360.82574462890625 631.4268188476562 361.1034851074219 C 627.7471313476562 357.14495849609375 629.2830200195312 353.5607604980469 632.2333984375 351.9077453613281" stroke-width="0.0" fill="url(#shape_58_fill)"/>
    <path d="M 341.2657775878906 385.245361328125 C 342.75152587890625 390.3675537109375 358.1097717285156 391.8866882324219 359.1759033203125 394.8121643066406 C 356.44287109375 399.1554870605469 340.6150207519531 401.9274597167969 338.4562072753906 399.5135192871094 C 335.1416015625 399.6024475097656 333.08807373046875 398.77069091796875 331.8767395019531 396.5337829589844 C 331.9852294921875 394.93963623046875 330.7608642578125 393.4739990234375 332.4331359863281 390.6292419433594 C 333.3763122558594 385.09625244140625 337.3414306640625 385.53497314453125 341.2657775878906 385.245361328125" stroke-width="0.0" fill="url(#shape_59_fill)"/>
    <path d="M 459.29608154296875 363.76080322265625 C 462.7574157714844 365.18145751953125 471.1183776855469 369.4809265136719 473.0267333984375 373.6955871582031 C 471.7630920410156 376.37567138671875 470.3636779785156 376.62969970703125 463.03216552734375 375.9516906738281 C 460.4783630371094 376.2840576171875 456.2901611328125 376.976318359375 452.759521484375 370.7396240234375 C 452.76898193359375 369.01373291015625 458.6907653808594 364.9000244140625 459.29608154296875 363.76080322265625" stroke-width="0.0" fill="url(#shape_60_fill)"/>
    <path d="M 436.5726623535156 432.8307800292969 C 440.2784118652344 434.2418212890625 442.49267578125 436.324462890625 441.9925537109375 439.1239318847656 C 440.5039978027344 442.4310302734375 430.2058410644531 441.1777648925781 425.87127685546875 442.5243835449219 C 422.54010009765625 438.0888366699219 424.1432189941406 434.4550476074219 422.35809326171875 431.119384765625 C 427.96240234375 431.2359313964844 433.3488464355469 432.5715637207031 436.5726623535156 432.8307800292969" stroke-width="0.0" fill="url(#shape_61_fill)"/>
    <path d="M 185.43057250976562 411.4555969238281 C 186.26145935058594 413.93170166015625 185.00990295410156 414.7928771972656 186.91908264160156 417.8938293457031 C 184.8523406982422 420.1264343261719 183.41603088378906 419.5474853515625 182.3029327392578 419.6414489746094 C 180.8018341064453 420.9322204589844 175.12013244628906 419.7746276855469 171.14724731445312 420.286376953125 C 169.51499938964844 417.91790771484375 169.7452850341797 415.6357116699219 172.74127197265625 414.4192199707031 C 176.54071044921875 412.3763427734375 180.68504333496094 411.3131408691406 185.43057250976562 411.4555969238281" stroke-width="0.0" fill="url(#shape_62_fill)"/>
    <path d="M 332.6229248046875 418.2550048828125 C 334.96954345703125 426.2193603515625 329.91790771484375 428.0686340332031 327.2911682128906 426.1581115722656 C 324.61279296875 427.7873229980469 323.0087890625 426.7466735839844 320.3490905761719 427.68701171875 C 318.68231201171875 426.0518798828125 319.60235595703125 419.9947814941406 317.8003234863281 418.41522216796875 C 323.03106689453125 419.9481201171875 326.5290832519531 418.7201843261719 332.6229248046875 418.2550048828125" stroke-width="0.0" fill="url(#shape_63_fill)"/>
    <path d="M 55.366859436035156 273.5568542480469 C 56.502197265625 270.3431396484375 66.15829467773438 271.347412109375 66.36469268798828 279.42266845703125 C 60.554420471191406 278.3543395996094 53.85033416748047 273.6656188964844 47.84784698486328 276.08416748046875 C 49.25645446777344 272.8076171875 52.256446838378906 272.2648620605469 55.366859436035156 273.5568542480469" stroke-width="0.0" fill="url(#shape_64_fill)"/>
    <path d="M 304.2839050292969 438.5554504394531 C 304.4438171386719 437.0133056640625 305.8041687011719 436.04644775390625 313.1578674316406 436.9123229980469 C 314.79296875 438.9323425292969 313.2634582519531 441.72393798828125 311.57867431640625 443.67352294921875 C 307.8491516113281 445.44085693359375 306.78399658203125 444.2408752441406 304.8900451660156 445.4148254394531 C 303.04498291015625 441.52276611328125 302.2645568847656 439.4559020996094 304.2839050292969 438.5554504394531" stroke-width="0.0" fill="url(#shape_65_fill)"/>
    <path d="M 0.458840548992157 -0.289848268032074 C 223.87498474121094 0.024634508416056633 443.6919860839844 0.47916632890701294 673.4291381835938 0.8928682804107666 C 674.1266479492188 150.2005615234375 674.5511474609375 294.8757629394531 673.4649658203125 445.38232421875 C 450.4456787109375 446.0466613769531 230.92935180664062 446.0066223144531 0.663213849067688 445.2270202636719 C 0.28984588384628296 296.8621520996094 -0.037088025361299515 148.92913818359375 0.458840548992157 -0.289848268032074" stroke-width="0.0" fill="url(#shape_66_fill)"/>
    <path d="M -0.7074009776115417 0.12267649918794632 C 222.57249450683594 -0.01999630779027939 443.5543518066406 0.3893236815929413 673.4330444335938 0.6242911219596863 C 674.2144165039062 150.31558227539062 674.5748901367188 294.4556579589844 673.263671875 445.19097900390625 C 450.1410217285156 446.0520324707031 231.24465942382812 445.9996643066406 0.8013101816177368 445.08416748046875 C 0.261545330286026 296.6584777832031 -0.17305240035057068 148.4272918701172 -0.7074009776115417 0.12267649918794632" stroke-width="0.0" fill="url(#shape_67_fill)"/>
    <path d="M -0.6530558466911316 -0.16370098292827606 C 223.025634765625 -0.29225799441337585 443.3790588378906 0.24869376420974731 673.4091186523438 -0.050411760807037354 C 674.1887817382812 150.42935180664062 674.5724487304688 294.50836181640625 673.2706298828125 445.1758728027344 C 450.168212890625 446.06365966796875 231.31744384765625 446.0038146972656 1.2538816928863525 445.05810546875 C 0.4232795238494873 295.9559020996094 0.005457906052470207 148.96920776367188 -0.6530558466911316 -0.16370098292827606" stroke-width="0.0" fill="url(#shape_68_fill)"/>
  </g>
</svg>
