<?xml version="1.0" ?>
<svg xmlns="http://www.w3.org/2000/svg" version="1.1" width="674" height="446">
  <defs>
    <radialGradient id="shape_0_fill" cx="0.5385499495780787" cy="0.7443375523314882" r="0.2747649920092846">
      <stop offset="0.1700564" stop-color="rgb(104, 104, 0)" stop-opacity="0.9277026057243347"/>
      <stop offset="1.0" stop-color="rgb(79, 69, 0)" stop-opacity="1.0"/>
    </radialGradient>
    <radialGradient id="shape_1_fill" cx="0.538418280264744" cy="0.7485071019741452" r="0.20430386597041914">
      <stop offset="0.1762817" stop-color="rgb(95, 99, 0)" stop-opacity="0.8425478935241699"/>
      <stop offset="1.0" stop-color="rgb(0, 0, 0)" stop-opacity="1.0"/>
    </radialGradient>
    <radialGradient id="shape_2_fill" cx="0.09792284866468842" cy="0.7376681614349776" r="0.22062588021026522">
      <stop offset="8.875985e-07" stop-color="rgb(30, 90, 182)" stop-opacity="1.0"/>
      <stop offset="1.0" stop-color="rgb(0, 81, 253)" stop-opacity="1.0"/>
    </radialGradient>
    <radialGradient id="shape_3_fill" cx="0.2743654109603927" cy="0.21555088881419912" r="0.1252991990448813">
      <stop offset="0.2079595" stop-color="rgb(115, 129, 0)" stop-opacity="0.7875195741653442"/>
      <stop offset="1.0" stop-color="rgb(51, 58, 0)" stop-opacity="1.0"/>
    </radialGradient>
    <radialGradient id="shape_4_fill" cx="0.1543026706231454" cy="0.9977578475336323" r="0.10288926755639141">
      <stop offset="0.0" stop-color="rgb(81, 79, 86)" stop-opacity="1.0"/>
      <stop offset="1.0" stop-color="rgb(129, 128, 139)" stop-opacity="0.8008321523666382"/>
    </radialGradient>
    <radialGradient id="shape_5_fill" cx="0.14824976482447955" cy="0.2399301229571013" r="0.11825108740379266">
      <stop offset="0.0" stop-color="rgb(232, 229, 225)" stop-opacity="0.7655755877494812"/>
      <stop offset="0.77545804" stop-color="rgb(236, 233, 230)" stop-opacity="0.7428104877471924"/>
    </radialGradient>
    <radialGradient id="shape_6_fill" cx="0.18397626112759644" cy="0.9977578475336323" r="0.0754974885934892">
      <stop offset="0.0" stop-color="rgb(93, 90, 94)" stop-opacity="1.0"/>
      <stop offset="1.0" stop-color="rgb(154, 151, 158)" stop-opacity="1.0"/>
    </radialGradient>
    <radialGradient id="shape_7_fill" cx="0.2893175074183976" cy="0.05829596412556054" r="0.08666390552011372">
      <stop offset="0.0" stop-color="rgb(55, 66, 29)" stop-opacity="1.0"/>
      <stop offset="1.0" stop-color="rgb(30, 0, 0)" stop-opacity="0.9827523231506348"/>
    </radialGradient>
    <radialGradient id="shape_8_fill" cx="0.3382789091115889" cy="0.9439461883408071" r="0.06756690277190167">
      <stop offset="0.0" stop-color="rgb(91, 124, 45)" stop-opacity="1.0"/>
      <stop offset="1.0" stop-color="rgb(142, 178, 0)" stop-opacity="0.8180106282234192"/>
    </radialGradient>
    <radialGradient id="shape_9_fill" cx="0.30712166172106825" cy="0.9977578475336323" r="0.0730758406641929">
      <stop offset="0.0" stop-color="rgb(38, 48, 20)" stop-opacity="1.0"/>
      <stop offset="1.0" stop-color="rgb(0, 0, 0)" stop-opacity="1.0"/>
    </radialGradient>
    <radialGradient id="shape_10_fill" cx="0.3056379821958457" cy="0.9977578475336323" r="0.06792919147615971">
      <stop offset="0.0" stop-color="rgb(39, 49, 21)" stop-opacity="1.0"/>
      <stop offset="1.0" stop-color="rgb(0, 0, 0)" stop-opacity="1.0"/>
    </radialGradient>
    <radialGradient id="shape_11_fill" cx="0.21810089020771514" cy="0.968609865470852" r="0.06792919147615971">
      <stop offset="0.0" stop-color="rgb(138, 135, 129)" stop-opacity="1.0"/>
      <stop offset="1.0" stop-color="rgb(202, 200, 195)" stop-opacity="0.7417904138565063"/>
    </radialGradient>
    <radialGradient id="shape_12_fill" cx="0.29080118694362017" cy="0.9977578475336323" r="0.07480746985189285">
      <stop offset="0.0" stop-color="rgb(22, 25, 13)" stop-opacity="1.0"/>
      <stop offset="1.0" stop-color="rgb(0, 0, 0)" stop-opacity="1.0"/>
    </radialGradient>
    <radialGradient id="shape_13_fill" cx="0.327893175074184" cy="0.8923766816143498" r="0.06900465877544279">
      <stop offset="0.0" stop-color="rgb(89, 117, 50)" stop-opacity="1.0"/>
      <stop offset="1.0" stop-color="rgb(149, 180, 0)" stop-opacity="0.761795163154602"/>
    </radialGradient>
    <radialGradient id="shape_14_fill" cx="0.142433234421365" cy="0.9977578475336323" r="0.06617211022079875">
      <stop offset="0.0" stop-color="rgb(155, 150, 153)" stop-opacity="1.0"/>
      <stop offset="1.0" stop-color="rgb(220, 215, 219)" stop-opacity="0.7423742413520813"/>
    </radialGradient>
    <radialGradient id="shape_15_fill" cx="0.31008902077151335" cy="0.9977578475336323" r="0.06683642786405207">
      <stop offset="0.0" stop-color="rgb(43, 55, 23)" stop-opacity="1.0"/>
      <stop offset="1.0" stop-color="rgb(0, 0, 0)" stop-opacity="0.9011099934577942"/>
    </radialGradient>
    <radialGradient id="shape_16_fill" cx="0.27299703264094954" cy="0.9977578475336323" r="0.08110449363640579">
      <stop offset="0.0" stop-color="rgb(31, 35, 19)" stop-opacity="1.0"/>
      <stop offset="1.0" stop-color="rgb(0, 0, 0)" stop-opacity="1.0"/>
    </radialGradient>
    <radialGradient id="shape_17_fill" cx="0.2893175074183976" cy="0.9977578475336323" r="0.07513486030193747">
      <stop offset="0.0" stop-color="rgb(22, 23, 13)" stop-opacity="1.0"/>
      <stop offset="1.0" stop-color="rgb(0, 0, 0)" stop-opacity="0.8520722389221191"/>
    </radialGradient>
    <radialGradient id="shape_18_fill" cx="0.3293768545994065" cy="0.7556053811659192" r="0.06617211022079875">
      <stop offset="0.0" stop-color="rgb(83, 108, 65)" stop-opacity="1.0"/>
      <stop offset="1.0" stop-color="rgb(143, 171, 3)" stop-opacity="0.7589643597602844"/>
    </radialGradient>
    <radialGradient id="shape_19_fill" cx="0.3516320474777448" cy="0.9977578475336323" r="0.06617211022079875">
      <stop offset="0.0" stop-color="rgb(95, 135, 39)" stop-opacity="1.0"/>
      <stop offset="1.0" stop-color="rgb(156, 198, 0)" stop-opacity="1.0"/>
    </radialGradient>
    <radialGradient id="shape_20_fill" cx="0.0830860534124629" cy="0.9977578475336323" r="0.06792919147615971">
      <stop offset="0.0" stop-color="rgb(49, 52, 66)" stop-opacity="1.0"/>
      <stop offset="1.0" stop-color="rgb(24, 0, 19)" stop-opacity="1.0"/>
    </radialGradient>
    <radialGradient id="shape_21_fill" cx="0.29821958456973297" cy="0.9977578475336323" r="0.06792919147615971">
      <stop offset="0.0" stop-color="rgb(33, 40, 17)" stop-opacity="1.0"/>
      <stop offset="1.0" stop-color="rgb(0, 0, 0)" stop-opacity="1.0"/>
    </radialGradient>
    <radialGradient id="shape_22_fill" cx="0.3561641568599893" cy="0.44388604271037696" r="0.06611195799151232">
      <stop offset="0.0" stop-color="rgb(164, 192, 0)" stop-opacity="0.7769379615783691"/>
      <stop offset="0.800771" stop-color="rgb(169, 197, 0)" stop-opacity="0.7576237320899963"/>
    </radialGradient>
    <radialGradient id="shape_23_fill" cx="0.6454005934718101" cy="0.1412556053811659" r="0.06617211022079875">
      <stop offset="0.0" stop-color="rgb(46, 38, 13)" stop-opacity="1.0"/>
      <stop offset="1.0" stop-color="rgb(0, 0, 0)" stop-opacity="1.0"/>
    </radialGradient>
    <radialGradient id="shape_24_fill" cx="0.24925816023738873" cy="0.484304932735426" r="0.06617211022079875">
      <stop offset="0.0" stop-color="rgb(201, 208, 206)" stop-opacity="1.0"/>
      <stop offset="1.0" stop-color="rgb(255, 255, 255)" stop-opacity="1.0"/>
    </radialGradient>
    <radialGradient id="shape_25_fill" cx="0.6320474777448071" cy="0.9977578475336323" r="0.06617211022079875">
      <stop offset="0.0" stop-color="rgb(35, 28, 8)" stop-opacity="1.0"/>
      <stop offset="1.0" stop-color="rgb(0, 0, 0)" stop-opacity="0.8290371298789978"/>
    </radialGradient>
    <radialGradient id="shape_26_fill" cx="0.1542959015164248" cy="0.3206344057091683" r="0.06616823326586262">
      <stop offset="0.0" stop-color="rgb(115, 124, 79)" stop-opacity="0.9986624717712402"/>
      <stop offset="0.91357315" stop-color="rgb(138, 148, 107)" stop-opacity="0.7942947745323181"/>
    </radialGradient>
    <radialGradient id="shape_27_fill" cx="0.15426212390028052" cy="0.32065999668275297" r="0.06614386787754138">
      <stop offset="0.0" stop-color="rgb(130, 143, 11)" stop-opacity="1.0"/>
      <stop offset="0.8370685" stop-color="rgb(143, 154, 1)" stop-opacity="1.0"/>
    </radialGradient>
    <radialGradient id="shape_28_fill" cx="0.041546300893721314" cy="0.022424849694085227" r="0.06617029908856581">
      <stop offset="0.009258844" stop-color="rgb(0, 0, 0)" stop-opacity="1.0"/>
      <stop offset="0.9691113" stop-color="rgb(0, 1, 0)" stop-opacity="0.9957513213157654"/>
    </radialGradient>
    <radialGradient id="shape_29_fill" cx="0.33976258863681147" cy="0.6659192825112108" r="0.06617211022079875">
      <stop offset="0.0" stop-color="rgb(90, 117, 55)" stop-opacity="1.0"/>
      <stop offset="1.0" stop-color="rgb(150, 180, 0)" stop-opacity="0.7635893225669861"/>
    </radialGradient>
    <radialGradient id="shape_30_fill" cx="0.04154472181280572" cy="0.02017885045620358" r="0.06617085940760038">
      <stop offset="0.0" stop-color="rgb(0, 2, 0)" stop-opacity="1.0"/>
      <stop offset="0.9739822" stop-color="rgb(0, 5, 1)" stop-opacity="1.0"/>
    </radialGradient>
    <radialGradient id="shape_31_fill" cx="0.12314540059347182" cy="0.9977578475336323" r="0.06617211022079875">
      <stop offset="0.0" stop-color="rgb(95, 103, 98)" stop-opacity="1.0"/>
      <stop offset="1.0" stop-color="rgb(154, 163, 159)" stop-opacity="0.7595187425613403"/>
    </radialGradient>
    <radialGradient id="shape_32_fill" cx="0.4035608308605341" cy="0.984304932735426" r="0.06617211022079875">
      <stop offset="0.0" stop-color="rgb(126, 155, 63)" stop-opacity="1.0"/>
      <stop offset="1.0" stop-color="rgb(180, 210, 8)" stop-opacity="0.8311163187026978"/>
    </radialGradient>
    <radialGradient id="shape_33_fill" cx="0.3249258160237389" cy="0.6053811659192825" r="0.06617211022079875">
      <stop offset="0.0" stop-color="rgb(93, 124, 71)" stop-opacity="1.0"/>
      <stop offset="1.0" stop-color="rgb(153, 185, 11)" stop-opacity="0.7677987813949585"/>
    </radialGradient>
    <radialGradient id="shape_34_fill" cx="0.6468842729970327" cy="0.531390134529148" r="0.06617211022079875">
      <stop offset="0.0" stop-color="rgb(54, 47, 24)" stop-opacity="1.0"/>
      <stop offset="1.0" stop-color="rgb(31, 0, 0)" stop-opacity="0.8114303946495056"/>
    </radialGradient>
    <radialGradient id="shape_35_fill" cx="0.14241347044087305" cy="0.23320245101312886" r="0.06616529017598409">
      <stop offset="0.0" stop-color="rgb(126, 144, 0)" stop-opacity="0.83502197265625"/>
      <stop offset="0.8793351" stop-color="rgb(131, 146, 0)" stop-opacity="0.7696186900138855"/>
    </radialGradient>
    <radialGradient id="shape_36_fill" cx="0.2878338278931751" cy="0.9977578475336323" r="0.06617211022079875">
      <stop offset="0.0" stop-color="rgb(80, 96, 53)" stop-opacity="1.0"/>
      <stop offset="1.0" stop-color="rgb(134, 153, 0)" stop-opacity="0.837725043296814"/>
    </radialGradient>
    <radialGradient id="shape_37_fill" cx="0.129080118694362" cy="0.9977578475336323" r="0.06617211022079875">
      <stop offset="0.0" stop-color="rgb(87, 97, 81)" stop-opacity="1.0"/>
      <stop offset="1.0" stop-color="rgb(146, 157, 138)" stop-opacity="0.7949892282485962"/>
    </radialGradient>
    <radialGradient id="shape_38_fill" cx="0.3382525344984468" cy="0.5606055152790429" r="0.06615355177519937">
      <stop offset="0.035769805" stop-color="rgb(130, 163, 0)" stop-opacity="1.0"/>
      <stop offset="0.8297693" stop-color="rgb(137, 168, 0)" stop-opacity="0.8018845915794373"/>
    </radialGradient>
    <radialGradient id="shape_39_fill" cx="0.40059347181008903" cy="0.9641255605381166" r="0.06617211022079875">
      <stop offset="0.0" stop-color="rgb(138, 168, 60)" stop-opacity="1.0"/>
      <stop offset="1.0" stop-color="rgb(200, 230, 0)" stop-opacity="1.0"/>
    </radialGradient>
    <radialGradient id="shape_40_fill" cx="0.6172196928754404" cy="0.8834019134932035" r="0.06616643911299437">
      <stop offset="0.0" stop-color="rgb(3, 0, 0)" stop-opacity="1.0"/>
      <stop offset="0.89638114" stop-color="rgb(0, 0, 0)" stop-opacity="1.0"/>
    </radialGradient>
    <radialGradient id="shape_41_fill" cx="0.6454005934718101" cy="0.08744394618834081" r="0.06617211022079875">
      <stop offset="0.0" stop-color="rgb(58, 48, 21)" stop-opacity="1.0"/>
      <stop offset="1.0" stop-color="rgb(1, 0, 0)" stop-opacity="0.7564949989318848"/>
    </radialGradient>
    <radialGradient id="shape_42_fill" cx="0.5845697329376854" cy="0.6188340807174888" r="0.06617211022079875">
      <stop offset="0.0" stop-color="rgb(62, 59, 56)" stop-opacity="1.0"/>
      <stop offset="1.0" stop-color="rgb(4, 0, 0)" stop-opacity="0.8193905353546143"/>
    </radialGradient>
    <radialGradient id="shape_43_fill" cx="0.357588816113571" cy="0.5067098301087795" r="0.06616425443473839">
      <stop offset="0.0" stop-color="rgb(163, 204, 0)" stop-opacity="0.8203479051589966"/>
      <stop offset="0.87675047" stop-color="rgb(164, 205, 0)" stop-opacity="0.8289289474487305"/>
    </radialGradient>
    <radialGradient id="shape_44_fill" cx="0.5934718100890207" cy="0.9977578475336323" r="0.06617211022079875">
      <stop offset="0.0" stop-color="rgb(89, 61, 18)" stop-opacity="1.0"/>
      <stop offset="1.0" stop-color="rgb(147, 2, 0)" stop-opacity="1.0"/>
    </radialGradient>
    <radialGradient id="shape_45_fill" cx="0.612759643916914" cy="0.04035874439461883" r="0.06617211022079875">
      <stop offset="0.0" stop-color="rgb(157, 136, 123)" stop-opacity="1.0"/>
      <stop offset="1.0" stop-color="rgb(228, 196, 174)" stop-opacity="1.0"/>
    </radialGradient>
    <radialGradient id="shape_46_fill" cx="0.28635014836795253" cy="0.9977578475336323" r="0.06617211022079875">
      <stop offset="0.0" stop-color="rgb(82, 99, 55)" stop-opacity="1.0"/>
      <stop offset="1.0" stop-color="rgb(139, 157, 0)" stop-opacity="0.8291733264923096"/>
    </radialGradient>
    <radialGradient id="shape_47_fill" cx="0.28635014836795253" cy="0.8183856502242153" r="0.06617211022079875">
      <stop offset="0.0" stop-color="rgb(166, 189, 197)" stop-opacity="1.0"/>
      <stop offset="1.0" stop-color="rgb(228, 252, 255)" stop-opacity="0.7565299868583679"/>
    </radialGradient>
    <radialGradient id="shape_48_fill" cx="0.40801186943620177" cy="0.9977578475336323" r="0.06617211022079875">
      <stop offset="0.0" stop-color="rgb(107, 135, 68)" stop-opacity="1.0"/>
      <stop offset="1.0" stop-color="rgb(166, 196, 11)" stop-opacity="0.7875015735626221"/>
    </radialGradient>
    <radialGradient id="shape_49_fill" cx="0.19287833827893175" cy="0.3991031390134529" r="0.06617211022079875">
      <stop offset="0.0" stop-color="rgb(92, 100, 54)" stop-opacity="1.0"/>
      <stop offset="1.0" stop-color="rgb(151, 160, 0)" stop-opacity="0.7683625817298889"/>
    </radialGradient>
    <radialGradient id="shape_50_fill" cx="0.6439169139465876" cy="0.7376681614349776" r="0.06617211022079875">
      <stop offset="0.0" stop-color="rgb(65, 56, 25)" stop-opacity="1.0"/>
      <stop offset="1.0" stop-color="rgb(96, 18, 74)" stop-opacity="1.0"/>
    </radialGradient>
    <radialGradient id="shape_51_fill" cx="0.5845697329376854" cy="0.6322869955156951" r="0.06617211022079875">
      <stop offset="0.0" stop-color="rgb(75, 68, 60)" stop-opacity="1.0"/>
      <stop offset="1.0" stop-color="rgb(123, 13, 2)" stop-opacity="1.0"/>
    </radialGradient>
    <radialGradient id="shape_52_fill" cx="0.2997032640949555" cy="0.6031390134529148" r="0.06617211022079875">
      <stop offset="0.0" stop-color="rgb(107, 158, 118)" stop-opacity="1.0"/>
      <stop offset="1.0" stop-color="rgb(166, 219, 179)" stop-opacity="1.0"/>
    </radialGradient>
    <radialGradient id="shape_53_fill" cx="0.6097922848664689" cy="0.45067264573991034" r="0.06617211022079875">
      <stop offset="0.0" stop-color="rgb(38, 39, 27)" stop-opacity="1.0"/>
      <stop offset="1.0" stop-color="rgb(0, 0, 0)" stop-opacity="0.8238459825515747"/>
    </radialGradient>
    <radialGradient id="shape_54_fill" cx="0.6335311572700296" cy="0.426009002822397" r="0.06617211022079875">
      <stop offset="0.0" stop-color="rgb(67, 49, 20)" stop-opacity="1.0"/>
      <stop offset="1.0" stop-color="rgb(99, 0, 0)" stop-opacity="0.97673100233078"/>
    </radialGradient>
    <radialGradient id="shape_55_fill" cx="0.37089271432214393" cy="0.5986733201373319" r="0.06615982282055592">
      <stop offset="0.0" stop-color="rgb(191, 234, 0)" stop-opacity="0.7748826742172241"/>
      <stop offset="0.8667516" stop-color="rgb(193, 236, 0)" stop-opacity="0.7638436555862427"/>
    </radialGradient>
    <radialGradient id="shape_56_fill" cx="0.5489614243323442" cy="0.600896860986547" r="0.06617211022079875">
      <stop offset="0.0" stop-color="rgb(50, 62, 80)" stop-opacity="1.0"/>
      <stop offset="1.0" stop-color="rgb(0, 5, 115)" stop-opacity="0.9780777096748352"/>
    </radialGradient>
    <radialGradient id="shape_57_fill" cx="0.4094955489614243" cy="0.9035874439461884" r="0.06617211022079875">
      <stop offset="0.0" stop-color="rgb(111, 144, 47)" stop-opacity="1.0"/>
      <stop offset="1.0" stop-color="rgb(170, 205, 0)" stop-opacity="0.7751656174659729"/>
    </radialGradient>
    <radialGradient id="shape_58_fill" cx="0.5281899109792285" cy="0.9977578475336323" r="0.06617211022079875">
      <stop offset="0.0" stop-color="rgb(50, 43, 14)" stop-opacity="1.0"/>
      <stop offset="1.0" stop-color="rgb(0, 0, 0)" stop-opacity="0.8142101168632507"/>
    </radialGradient>
    <radialGradient id="shape_59_fill" cx="0.5845697329376854" cy="0.7690582959641256" r="0.06617211022079875">
      <stop offset="0.0" stop-color="rgb(61, 63, 58)" stop-opacity="1.0"/>
      <stop offset="1.0" stop-color="rgb(78, 8, 19)" stop-opacity="0.9453666806221008"/>
    </radialGradient>
    <radialGradient id="shape_60_fill" cx="0.5489614243323442" cy="0.9977578475336323" r="0.06617211022079875">
      <stop offset="0.0" stop-color="rgb(140, 131, 64)" stop-opacity="1.0"/>
      <stop offset="1.0" stop-color="rgb(199, 189, 8)" stop-opacity="1.0"/>
    </radialGradient>
    <radialGradient id="shape_61_fill" cx="0.6468846352234793" cy="0.9686089759450323" r="0.06617200834461065">
      <stop offset="0.0" stop-color="rgb(148, 93, 0)" stop-opacity="1.0"/>
      <stop offset="0.9946804" stop-color="rgb(149, 93, 0)" stop-opacity="1.0"/>
    </radialGradient>
    <radialGradient id="shape_62_fill" cx="0.615727002967359" cy="0.3991031390134529" r="0.06617211022079875">
      <stop offset="0.0" stop-color="rgb(55, 47, 13)" stop-opacity="1.0"/>
      <stop offset="1.0" stop-color="rgb(21, 0, 0)" stop-opacity="0.8360905647277832"/>
    </radialGradient>
    <radialGradient id="shape_63_fill" cx="0.6261127596439169" cy="0.7286995515695067" r="0.06617211022079875">
      <stop offset="0.0" stop-color="rgb(79, 66, 32)" stop-opacity="1.0"/>
      <stop offset="1.0" stop-color="rgb(128, 88, 71)" stop-opacity="1.0"/>
    </radialGradient>
    <radialGradient id="shape_64_fill" cx="0.40801186943620177" cy="0.12556053811659193" r="0.06617211022079875">
      <stop offset="0.0" stop-color="rgb(76, 66, 59)" stop-opacity="1.0"/>
      <stop offset="1.0" stop-color="rgb(116, 15, 5)" stop-opacity="1.0"/>
    </radialGradient>
    <radialGradient id="shape_65_fill" cx="0.6528189910979229" cy="0.6883408071748879" r="0.06617211022079875">
      <stop offset="0.0" stop-color="rgb(121, 97, 39)" stop-opacity="1.0"/>
      <stop offset="1.0" stop-color="rgb(177, 148, 74)" stop-opacity="1.0"/>
    </radialGradient>
    <radialGradient id="shape_66_fill" cx="0.648663438746059" cy="0.4617122769890345" r="0.06651319735835497">
      <stop offset="0.24948719" stop-color="rgb(127, 144, 0)" stop-opacity="0.7044464349746704"/>
      <stop offset="1.0" stop-color="rgb(55, 88, 26)" stop-opacity="0.6766774654388428"/>
    </radialGradient>
    <radialGradient id="shape_67_fill" cx="0.5939187975241098" cy="0.9969824547190302" r="0.06668249860361705">
      <stop offset="0.35650563" stop-color="rgb(9, 0, 0)" stop-opacity="1.0"/>
      <stop offset="1.0" stop-color="rgb(20, 40, 29)" stop-opacity="0.7339327335357666"/>
    </radialGradient>
    <radialGradient id="shape_68_fill" cx="0.4872124103127318" cy="0.9969905288764714" r="0.06672377543916334">
      <stop offset="0.32766736" stop-color="rgb(69, 57, 0)" stop-opacity="0.7698719501495361"/>
      <stop offset="1.0" stop-color="rgb(60, 83, 82)" stop-opacity="0.8055786490440369"/>
    </radialGradient>
  </defs>
  <g>
    <path d="M -0.09531095623970032 273.0019226074219 C 23.51372718811035 272.64971923828125 31.835826873779297 274.1143798828125 41.14512634277344 275.0826110839844 C 48.05910873413086 276.09088134765625 49.341861724853516 276.6853942871094 57.14151382446289 274.5308837890625 C 60.42555618286133 273.947998046875 63.71490478515625 274.6399841308594 65.99634552001953 276.4241638183594 C 76.56649780273438 277.1824035644531 104.96870422363281 276.72662353515625 108.94139862060547 277.45953369140625 C 114.36976623535156 277.322265625 124.7529067993164 278.88763427734375 127.84159851074219 280.76153564453125 C 134.42755126953125 281.7607116699219 140.90408325195312 281.0335693359375 149.1697235107422 281.73162841796875 C 185.2705841064453 281.7717590332031 185.7437286376953 282.5659484863281 201.11639404296875 284.4503479003906 C 202.7506866455078 290.212646484375 198.51763916015625 284.3971862792969 221.2432098388672 281.46038818359375 C 234.39126586914062 283.2817077636719 277.39385986328125 282.5479736328125 302.71630859375 285.6209716796875 C 336.45477294921875 286.71966552734375 417.6186218261719 286.43048095703125 458.4251708984375 285.1062316894531 C 481.9088134765625 284.5591735839844 531.3414916992188 285.6214599609375 540.5843505859375 286.958984375 C 549.528076171875 287.2281799316406 550.7667846679688 283.7852478027344 560.16455078125 284.03326416015625 C 568.1408081054688 286.9840087890625 608.7990112304688 286.74420166015625 617.0784912109375 287.3228454589844 C 641.6202392578125 286.2696533203125 651.1173706054688 286.8878479003906 656.085693359375 286.85394287109375 C 661.2393188476562 287.75030517578125 670.9947509765625 288.114501953125 673.90673828125 289.60406494140625 C 674.1404418945312 340.81317138671875 673.8060302734375 392.6224670410156 673.9578857421875 445.5361633300781 C 451.4426574707031 445.65234375 229.15716552734375 445.6285400390625 0.31389811635017395 445.5387268066406 C -0.3051355183124542 389.0978698730469 0.2978407144546509 332.3507080078125 -0.09531095623970032 273.0019226074219" stroke-width="0.0" fill="url(#shape_0_fill)"/>
    <path d="M -0.07128726691007614 275.22296142578125 C 35.941551208496094 275.3934020996094 36.5487174987793 274.60430908203125 44.403419494628906 276.9390869140625 C 56.42593765258789 278.9123229980469 67.6572265625 277.5711364746094 76.75029754638672 278.7330322265625 C 113.38216400146484 278.69317626953125 113.97191619873047 279.30548095703125 125.98214721679688 280.7633056640625 C 130.23878479003906 281.4758605957031 154.3849334716797 280.9733581542969 156.8375244140625 281.29449462890625 C 185.03089904785156 281.4019775390625 185.54176330566406 282.1394958496094 195.49293518066406 285.2919616699219 C 200.7441864013672 288.3802795410156 202.0086669921875 286.98016357421875 216.78871154785156 284.7041015625 C 228.75364685058594 283.5821228027344 281.4130859375 285.111083984375 302.5832824707031 285.99444580078125 C 328.604736328125 287.8411560058594 441.6929016113281 285.5892028808594 446.7703857421875 285.912109375 C 467.0727233886719 285.40362548828125 483.2607727050781 285.6744689941406 502.1083679199219 285.27130126953125 C 508.5268859863281 286.6448669433594 516.321044921875 285.7518615722656 522.8206176757812 286.3735046386719 C 527.5335693359375 285.68359375 531.8753051757812 285.8782958984375 535.1627807617188 286.9725036621094 C 544.0755004882812 286.57159423828125 551.8058471679688 287.6204833984375 560.201904296875 286.58831787109375 C 569.6055297851562 286.57159423828125 579.7434692382812 286.7586975097656 588.5682373046875 287.82952880859375 C 604.0104370117188 288.35772705078125 618.3115234375 287.7449035644531 633.7136840820312 288.30877685546875 C 647.0230712890625 287.4652404785156 660.4011840820312 288.13037109375 674.316650390625 288.7889709472656 C 673.8131103515625 340.8744812011719 674.3983154296875 392.3100891113281 674.13720703125 446.27215576171875 C 451.4774169921875 446.37841796875 229.19708251953125 446.2427978515625 -0.29697856307029724 446.2359924316406 C -0.2029363512992859 389.4075927734375 -0.28244003653526306 333.0339050292969 -0.07128726691007614 275.22296142578125" stroke-width="0.0" fill="url(#shape_1_fill)"/>
    <path d="M 0.014654784463346004 -0.25191205739974976 C 219.6988525390625 0.07540527731180191 439.4556579589844 -0.3689359724521637 667.1370849609375 -0.4078617990016937 C 659.5576782226562 4.9967360496521 643.7750244140625 34.472984313964844 636.4492797851562 46.17191696166992 C 633.9514770507812 51.44437026977539 608.73046875 90.84291076660156 582.6126098632812 81.49839782714844 C 577.654052734375 81.06006622314453 560.1219482421875 67.9581069946289 529.5150756835938 69.35548400878906 C 527.7481689453125 70.11660766601562 525.075927734375 72.58699798583984 523.2017211914062 71.01658630371094 C 522.9769287109375 67.98224639892578 502.7387390136719 60.74121856689453 501.53472900390625 61.62596130371094 C 491.94281005859375 61.79684066772461 484.6906433105469 60.48530578613281 477.3500671386719 65.95894622802734 C 474.2021484375 68.86257934570312 474.7001037597656 73.17280578613281 473.2088623046875 75.89773559570312 C 472.67572021484375 86.28672790527344 462.85577392578125 102.4646987915039 458.75006103515625 107.10942840576172 C 455.7414245605469 109.20816802978516 453.396728515625 107.65483856201172 450.7140197753906 106.96587371826172 C 440.0493469238281 103.2896728515625 412.073974609375 100.9322509765625 409.2304382324219 104.27607727050781 C 402.06939697265625 112.04060363769531 402.0726013183594 116.59922790527344 399.04986572265625 123.18057250976562 C 397.66973876953125 131.97447204589844 390.8061218261719 135.3060302734375 388.3904724121094 136.76025390625 C 379.9239807128906 140.7647705078125 378.9469909667969 160.2763671875 377.9717712402344 164.12130737304688 C 377.4444580078125 169.97512817382812 376.2611389160156 174.1501922607422 372.8228759765625 178.8260955810547 C 370.6336364746094 181.16409301757812 367.38043212890625 180.28179931640625 354.7455139160156 184.68150329589844 C 346.29754638671875 192.21017456054688 335.15216064453125 183.42532348632812 321.12750244140625 182.14259338378906 C 315.68341064453125 182.59727478027344 315.0912170410156 188.96310424804688 313.42633056640625 191.56277465820312 C 312.5198974609375 196.12741088867188 310.57464599609375 198.3550567626953 307.6706237792969 201.3641357421875 C 307.3151550292969 201.38485717773438 303.61370849609375 199.6882781982422 302.39031982421875 197.0749969482422 C 299.4502258300781 193.0460662841797 296.01007080078125 194.4412841796875 293.79632568359375 193.06817626953125 C 293.1383056640625 194.96591186523438 291.3711853027344 198.18600463867188 288.3074035644531 197.88681030273438 C 280.0245361328125 197.60191345214844 278.398681640625 192.75418090820312 277.9330749511719 192.28797912597656 C 275.15850830078125 190.2652587890625 272.53399658203125 191.53665161132812 269.2104187011719 190.74038696289062 C 263.486328125 190.60302734375 261.7261657714844 196.74539184570312 260.5758361816406 197.78465270996094 C 260.9844665527344 199.21038818359375 260.91070556640625 200.92567443847656 257.393310546875 201.10922241210938 C 256.0000305175781 201.7436981201172 251.13917541503906 201.7517852783203 249.9917449951172 201.08985900878906 C 245.2944793701172 196.058837890625 246.10572814941406 194.26673889160156 242.69229125976562 182.55209350585938 C 246.8209228515625 176.42822265625 213.6159210205078 144.346923828125 211.96868896484375 142.13165283203125 C 185.76417541503906 120.27092742919922 197.3276824951172 98.0033187866211 193.36390686035156 88.35973358154297 C 194.38145446777344 83.91661834716797 156.76806640625 72.3977279663086 146.8190155029297 64.95296478271484 C 123.97850799560547 42.2523078918457 61.79570388793945 52.951377868652344 36.823184967041016 60.558658599853516 C 16.642406463623047 70.2528305053711 13.322967529296875 66.1370620727539 -0.28692224621772766 67.00074768066406 C 0.35138610005378723 44.04499053955078 -0.3209877908229828 22.589153289794922 0.014654784463346004 -0.25191205739974976" stroke-width="0.0" fill="url(#shape_2_fill)"/>
    <path d="M 86.70381927490234 68.05553436279297 C 88.04975891113281 70.03516387939453 92.00960540771484 68.29215240478516 93.57588195800781 69.05351257324219 C 92.93113708496094 74.04423522949219 94.080322265625 81.45088958740234 93.91218566894531 83.51437377929688 C 96.58480072021484 82.61813354492188 98.6422119140625 84.2197036743164 102.18856811523438 82.43277740478516 C 104.24020385742188 79.0298843383789 106.93582153320312 78.36320495605469 109.7564926147461 79.44129943847656 C 113.74441528320312 85.85059356689453 115.18751525878906 91.88412475585938 115.75129699707031 99.63133239746094 C 116.7906494140625 100.00662231445312 117.26625061035156 108.2286605834961 118.24920654296875 112.15480041503906 C 121.06147766113281 110.68494415283203 126.09868621826172 111.43218231201172 127.07007598876953 108.46646881103516 C 127.7589340209961 105.83759307861328 135.77310180664062 104.66192626953125 136.3544921875 104.46334838867188 C 136.58004760742188 103.67992401123047 135.542724609375 101.80782318115234 136.97763061523438 97.97148132324219 C 136.45953369140625 93.23896026611328 137.45095825195312 92.88545989990234 137.0854034423828 88.86753845214844 C 137.305419921875 85.02911376953125 138.6399383544922 84.5194320678711 139.74644470214844 84.98942565917969 C 138.29920959472656 82.1836166381836 146.6539306640625 81.8250961303711 147.84548950195312 83.76819610595703 C 146.83396911621094 86.64192199707031 150.234130859375 96.15965270996094 151.08775329589844 99.8975601196289 C 154.44332885742188 102.79640197753906 149.4532928466797 106.45885467529297 149.10183715820312 106.52268981933594 C 153.0129852294922 109.79596710205078 150.6473388671875 114.29743957519531 148.78164672851562 113.3958969116211 C 155.26194763183594 112.53307342529297 158.35244750976562 122.50421905517578 158.29400634765625 122.99899291992188 C 162.0500030517578 124.6031723022461 164.8186798095703 123.33641052246094 170.17282104492188 123.20538330078125 C 175.4228515625 119.35198211669922 174.88026428222656 121.61151123046875 178.12901306152344 122.11071014404297 C 179.61892700195312 122.25274658203125 179.5207977294922 125.5707778930664 182.49859619140625 127.91055297851562 C 183.9323272705078 130.2417755126953 182.3131561279297 133.22682189941406 183.27613830566406 135.68014526367188 C 187.25608825683594 135.0039825439453 189.64096069335938 141.3018798828125 190.41358947753906 143.54856872558594 C 193.22503662109375 145.33810424804688 205.5349578857422 157.44888305664062 204.09556579589844 171.7471923828125 C 205.7448272705078 173.59967041015625 205.21949768066406 177.4781036376953 207.98373413085938 180.20484924316406 C 209.58786010742188 181.25987243652344 213.4455108642578 200.70184326171875 211.7859649658203 204.33375549316406 C 211.79013061523438 208.9219512939453 204.175048828125 208.9803924560547 203.0798797607422 210.21728515625 C 200.79769897460938 210.58480834960938 199.9730224609375 211.65492248535156 200.1870880126953 213.56272888183594 C 197.55227661132812 217.01898193359375 195.0150604248047 217.0400848388672 191.60598754882812 218.78515625 C 184.31784057617188 221.1506805419922 183.5772247314453 224.77615356445312 179.09686279296875 230.55186462402344 C 176.1499481201172 233.61251831054688 179.07872009277344 240.07894897460938 177.58612060546875 241.95640563964844 C 176.44725036621094 248.0769500732422 180.74453735351562 255.45370483398438 174.8025360107422 261.6242370605469 C 171.27040100097656 264.8712158203125 145.94381713867188 265.1170349121094 139.47689819335938 266.3133239746094 C 129.15213012695312 265.5850830078125 122.86762237548828 267.64019775390625 113.53219604492188 268.6533203125 C 104.54766845703125 272.003662109375 76.97276306152344 270.89056396484375 73.56922912597656 269.7293701171875 C 47.5584716796875 266.73126220703125 56.719085693359375 268.52783203125 52.62162780761719 270.26470947265625 C 43.65927505493164 272.84112548828125 1.627337098121643 270.73748779296875 -0.25541290640830994 268.8051452636719 C -0.1629311740398407 217.16720581054688 0.0708276554942131 166.4482879638672 -0.5733675956726074 114.96902465820312 C 10.564282417297363 116.29638671875 16.961088180541992 117.15398406982422 25.808837890625 123.4266128540039 C 31.14582633972168 126.40621185302734 37.11073303222656 127.56071472167969 41.86664962768555 130.49114990234375 C 45.87461471557617 132.36257934570312 47.957977294921875 134.5114288330078 50.176971435546875 137.696533203125 C 50.88908004760742 142.10418701171875 61.93507766723633 143.53627014160156 62.45207214355469 141.58151245117188 C 62.02770233154297 136.66664123535156 63.00054168701172 133.7935028076172 62.75987243652344 126.15116882324219 C 64.48238372802734 121.57965087890625 63.83864212036133 118.605712890625 64.09793090820312 112.28072357177734 C 67.42149353027344 110.95148468017578 67.55741882324219 104.46478271484375 72.71260070800781 103.32572174072266 C 72.10781860351562 100.55008697509766 73.45258331298828 88.66690826416016 74.479248046875 85.13189697265625 C 78.09649658203125 84.22012329101562 79.11674499511719 72.87594604492188 84.7166748046875 72.84374237060547 C 83.34414672851562 70.51625061035156 85.24152374267578 67.22451782226562 86.70381927490234 68.05553436279297" stroke-width="0.0" fill="url(#shape_3_fill)"/>
    <path d="M 673.4530029296875 1.3515874147415161 C 674.298828125 49.16795349121094 674.0322875976562 96.31988525390625 674.2678833007812 144.87525939941406 C 666.3777465820312 138.62744140625 663.39794921875 130.6623077392578 661.3292846679688 120.61784362792969 C 660.6978149414062 120.11946868896484 654.0765380859375 107.33393096923828 650.6175537109375 111.630615234375 C 648.4256591796875 112.43690490722656 643.4717407226562 146.4686279296875 640.3551025390625 152.5212860107422 C 632.9373779296875 154.0590362548828 627.6809692382812 140.74978637695312 627.852783203125 138.14303588867188 C 622.031494140625 136.93899536132812 617.8450317382812 146.29409790039062 613.8694458007812 145.1046142578125 C 611.17236328125 141.8571014404297 610.7694702148438 144.17857360839844 608.2510375976562 140.5817413330078 C 607.6190185546875 137.400634765625 608.2792358398438 133.5485382080078 601.98583984375 129.01699829101562 C 598.1255493164062 133.71206665039062 597.61376953125 139.47474670410156 595.2050170898438 144.58319091796875 C 595.3096923828125 149.06576538085938 593.28173828125 150.80038452148438 593.3082275390625 153.84144592285156 C 592.1118774414062 160.22366333007812 590.6441040039062 167.98635864257812 581.8285522460938 169.97787475585938 C 571.4301147460938 170.0955352783203 569.6731567382812 160.59336853027344 568.9508056640625 157.49864196777344 C 566.4108276367188 157.08120727539062 564.3005981445312 153.3743133544922 561.302734375 153.8878936767578 C 560.0834350585938 150.71690368652344 554.7921752929688 150.31686401367188 554.3115844726562 152.96835327148438 C 551.4810791015625 155.645263671875 550.8506469726562 159.2221221923828 548.3711547851562 161.64718627929688 C 545.3521728515625 159.82627868652344 540.5656127929688 162.62107849121094 535.7899780273438 154.61590576171875 C 531.612060546875 154.54849243164062 529.9406127929688 157.76060485839844 524.2677001953125 157.82948303222656 C 518.0059814453125 161.30714416503906 520.841796875 161.28143310546875 522.4425659179688 169.64242553710938 C 517.4570922851562 170.14622497558594 515.9474487304688 164.35910034179688 516.6318359375 172.09629821777344 C 509.50994873046875 173.48301696777344 512.7635498046875 174.94857788085938 505.7521667480469 174.2612762451172 C 503.1132507324219 171.18609619140625 502.9434509277344 169.67364501953125 504.0320739746094 167.79916381835938 C 501.12451171875 152.7654571533203 515.0595092773438 128.6776580810547 524.1484985351562 130.94839477539062 C 524.1723022460938 124.793701171875 538.4844970703125 113.69550323486328 548.29833984375 112.63525390625 C 558.4445190429688 110.26947784423828 555.8947143554688 109.81195068359375 557.81201171875 106.8472900390625 C 562.7302856445312 105.41699981689453 566.1516723632812 105.01366424560547 571.7860717773438 105.2748031616211 C 574.8020629882812 102.8406982421875 573.3868408203125 97.58495330810547 579.0180053710938 94.20850372314453 C 581.9094848632812 89.59656524658203 601.9229736328125 79.15821838378906 612.2938842773438 77.56990051269531 C 614.8585815429688 71.6396255493164 640.923095703125 48.49934387207031 643.98828125 35.24798583984375 C 644.9560546875 32.428184509277344 647.987060546875 30.35976219177246 647.5936889648438 29.49324607849121 C 646.7294921875 28.26185417175293 663.4817504882812 -3.3376553058624268 673.4530029296875 1.3515874147415161" stroke-width="0.0" fill="url(#shape_4_fill)"/>
    <path d="M 151.7519073486328 68.71282196044922 C 152.19956970214844 68.79285430908203 187.72349548339844 82.62547302246094 194.0915985107422 89.43153381347656 C 180.29486083984375 116.29790496826172 216.33731079101562 152.9676971435547 221.11183166503906 154.4091796875 C 239.48728942871094 169.3401641845703 243.3155975341797 184.3278350830078 241.44049072265625 193.96726989746094 C 237.7177734375 193.98672485351562 236.7769775390625 185.77944946289062 236.5093231201172 184.32778930664062 C 235.37730407714844 182.7945098876953 234.37942504882812 184.5302734375 231.74034118652344 182.0423583984375 C 232.06106567382812 183.32826232910156 230.75411987304688 192.54159545898438 227.80029296875 195.89593505859375 C 227.3805694580078 195.9096221923828 226.92465209960938 205.68580627441406 221.3157958984375 207.72703552246094 C 214.99884033203125 206.6448516845703 214.28611755371094 198.0666961669922 214.60560607910156 194.89520263671875 C 212.9336700439453 185.32559204101562 211.9257049560547 185.04640197753906 206.4246368408203 177.51560974121094 C 203.80433654785156 171.82200622558594 205.10044860839844 165.5443115234375 205.32908630371094 159.83468627929688 C 206.01954650878906 153.94869995117188 195.96832275390625 143.59730529785156 192.83489990234375 141.6512451171875 C 188.6661834716797 140.7384796142578 189.08615112304688 138.23330688476562 187.36798095703125 134.28436279296875 C 182.65060424804688 130.7920684814453 183.77008056640625 123.1334228515625 183.62025451660156 117.98233032226562 C 178.91162109375 116.11640930175781 177.91015625 117.87468719482422 173.73251342773438 117.90482330322266 C 173.47068786621094 124.10932922363281 169.27879333496094 127.55742645263672 157.53749084472656 124.2343978881836 C 155.3144989013672 121.5718994140625 152.03787231445312 102.15222930908203 153.41697692871094 96.58743286132812 C 152.89599609375 88.59522247314453 153.72955322265625 82.94927215576172 150.14044189453125 76.31807708740234 C 148.53555297851562 75.93270111083984 149.01715087890625 69.2509536743164 151.7519073486328 68.71282196044922" stroke-width="0.0" fill="url(#shape_5_fill)"/>
    <path d="M 613.1941528320312 83.28768920898438 C 618.5723266601562 84.20406341552734 619.635986328125 85.84071350097656 630.7718505859375 85.98321533203125 C 636.8577880859375 85.94754791259766 638.268798828125 87.56035614013672 641.2691650390625 87.79273986816406 C 642.138916015625 87.49918365478516 669.1646728515625 91.85537719726562 673.7274780273438 97.30119323730469 C 673.9271240234375 112.53816986083984 673.4790649414062 128.69398498535156 673.7991943359375 144.59490966796875 C 668.5403442382812 139.5597381591797 664.8882446289062 134.43017578125 662.947021484375 126.88203430175781 C 660.5712280273438 121.26465606689453 660.8186645507812 115.48173522949219 653.3646850585938 111.26972198486328 C 647.6768188476562 116.54542541503906 644.9957275390625 142.4462127685547 642.10888671875 143.1884307861328 C 643.3975830078125 145.82632446289062 641.7496337890625 148.72531127929688 640.4161376953125 148.76177978515625 C 639.6714477539062 150.89501953125 638.1012573242188 151.91229248046875 633.7022705078125 149.81719970703125 C 631.2695922851562 146.69512939453125 628.8509521484375 141.55014038085938 629.6468505859375 140.98348999023438 C 628.93505859375 138.07078552246094 623.7993774414062 137.09608459472656 620.829833984375 138.6660919189453 C 618.2337646484375 140.58416748046875 619.2437133789062 142.316650390625 618.75732421875 144.0801544189453 C 614.5289306640625 144.46160888671875 614.1654663085938 143.13851928710938 610.2809448242188 143.71734619140625 C 608.5715942382812 140.3824005126953 609.5868530273438 139.26882934570312 609.0244750976562 137.63790893554688 C 606.8316040039062 131.89784240722656 604.5740356445312 125.45124053955078 598.1112670898438 129.08631896972656 C 599.006591796875 135.45289611816406 593.4220581054688 148.89210510253906 592.1931762695312 157.74774169921875 C 590.7568969726562 163.94761657714844 589.5032348632812 164.203857421875 585.5161743164062 167.9916534423828 C 581.9247436523438 170.28736877441406 578.3977661132812 169.86810302734375 575.0249633789062 168.8124542236328 C 571.9286499023438 166.35594177246094 570.97216796875 162.04190063476562 569.4468383789062 158.51611328125 C 568.5094604492188 154.39541625976562 557.8961791992188 152.2770538330078 556.3029174804688 151.2054443359375 C 555.7950439453125 152.84597778320312 553.0846557617188 154.71511840820312 552.86279296875 157.72894287109375 C 550.4656372070312 161.7264862060547 548.1708984375 161.609375 546.375244140625 161.81912231445312 C 540.839111328125 160.88320922851562 538.7325439453125 157.45420837402344 536.1185913085938 157.00428771972656 C 534.8362426757812 158.0880889892578 531.3146362304688 156.1416778564453 528.9225463867188 157.8257598876953 C 525.755615234375 159.0006561279297 526.3397827148438 161.79498291015625 524.4884033203125 164.51942443847656 C 523.7301025390625 168.64959716796875 521.0263061523438 170.79295349121094 518.6531372070312 172.67343139648438 C 510.68017578125 176.80589294433594 504.01995849609375 172.4010467529297 502.8561096191406 171.10076904296875 C 498.8453369140625 152.27186584472656 515.0973510742188 131.29132080078125 522.9586791992188 128.39932250976562 C 526.8538208007812 122.02210998535156 540.7363891601562 113.33213806152344 551.9083251953125 112.05048370361328 C 555.3713989257812 109.86520385742188 559.951904296875 109.68867492675781 563.708251953125 106.64537811279297 C 564.65185546875 104.55656433105469 566.8634643554688 103.61766052246094 569.6571655273438 103.84268188476562 C 574.8972778320312 101.44937133789062 578.250732421875 97.0029296875 583.1224975585938 93.82498931884766 C 592.078369140625 85.40287780761719 600.360107421875 79.08236694335938 613.1941528320312 83.28768920898438" stroke-width="0.0" fill="url(#shape_6_fill)"/>
    <path d="M 3.3347008228302 115.51519775390625 C 27.100318908691406 123.18750762939453 37.5410041809082 128.1659698486328 49.06096267700195 137.74436950683594 C 68.31578826904297 159.7174530029297 50.974334716796875 224.90892028808594 55.35908126831055 246.44842529296875 C 53.209468841552734 260.3208312988281 48.70602035522461 264.7000427246094 48.58729934692383 266.4078063964844 C 38.91397476196289 273.5887756347656 3.884673595428467 269.878662109375 -0.2366000860929489 269.8367614746094 C -0.2064533233642578 218.2364044189453 -0.016220904886722565 167.38595581054688 3.3347008228302 115.51519775390625" stroke-width="0.0" fill="url(#shape_7_fill)"/>
    <path d="M 395.4207458496094 178.48736572265625 C 410.1391906738281 173.63681030273438 427.0717468261719 191.6018829345703 432.9170837402344 211.23484802246094 C 464.8951416015625 201.13880920410156 487.6831359863281 215.20230102539062 490.7864990234375 237.55332946777344 C 491.08905029296875 251.1467742919922 486.4637451171875 250.90655517578125 484.9100036621094 252.4021453857422 C 485.31634521484375 254.51312255859375 479.0793762207031 265.03521728515625 474.8283996582031 268.5069580078125 C 469.0311279296875 272.94329833984375 453.2095031738281 266.7003173828125 451.97198486328125 268.239501953125 C 445.3486328125 265.933349609375 449.27691650390625 262.7413024902344 448.5226135253906 260.5791015625 C 440.3917236328125 263.6295166015625 435.3390197753906 260.7535095214844 438.5760498046875 257.91571044921875 C 428.3608093261719 257.13861083984375 426.654052734375 259.56707763671875 421.22344970703125 262.240234375 C 418.54754638671875 264.2692565917969 417.4918212890625 267.58612060546875 414.4740295410156 269.6368408203125 C 414.42950439453125 269.3869934082031 398.13922119140625 267.5901794433594 392.54412841796875 264.1292724609375 C 391.8652648925781 265.1221618652344 389.1771545410156 263.3083801269531 386.0519714355469 263.5166015625 C 382.0657958984375 261.9424743652344 380.8769226074219 263.1703796386719 376.74688720703125 260.91021728515625 C 374.95074462890625 256.1235656738281 376.47149658203125 252.4990234375 372.7597351074219 249.2566680908203 C 359.5791320800781 244.10264587402344 375.6784973144531 197.55125427246094 378.3382263183594 182.44338989257812 C 383.7250671386719 171.93394470214844 395.75982666015625 176.07984924316406 395.4207458496094 178.48736572265625" stroke-width="0.0" fill="url(#shape_8_fill)"/>
    <path d="M 565.6387329101562 157.39642333984375 C 568.5955810546875 158.96722412109375 570.038818359375 161.8093719482422 570.5469360351562 165.3418731689453 C 574.0651245117188 169.56983947753906 573.2385864257812 170.68991088867188 578.160400390625 174.42323303222656 C 580.245361328125 175.17855834960938 581.9498291015625 177.162353515625 581.458740234375 182.90802001953125 C 577.1299438476562 177.04710388183594 573.2610473632812 225.69686889648438 577.2021484375 226.905517578125 C 576.0844116210938 228.51475524902344 578.8097534179688 233.08193969726562 574.74951171875 238.87820434570312 C 568.525146484375 238.77374267578125 566.228759765625 237.23179626464844 558.458984375 245.08935546875 C 549.5877075195312 251.70094299316406 495.496337890625 254.6510009765625 494.0763244628906 249.05697631835938 C 490.7349853515625 243.9469757080078 488.82672119140625 238.27540588378906 487.65301513671875 232.3350067138672 C 486.4400329589844 226.2420654296875 483.2170104980469 222.2473602294922 481.1432800292969 216.12059020996094 C 476.9687805175781 210.31004333496094 479.3404846191406 205.2880859375 482.36285400390625 206.1298370361328 C 479.9034118652344 205.35128784179688 480.869873046875 198.0095977783203 485.5582275390625 197.87937927246094 C 491.8316345214844 196.16424560546875 491.8931579589844 192.52838134765625 494.3868408203125 188.6245574951172 C 496.2749938964844 175.6961669921875 499.5208435058594 175.6800079345703 499.77655029296875 175.31500244140625 C 502.5602722167969 173.9427490234375 508.24749755859375 176.9716033935547 520.7763061523438 173.43142700195312 C 524.3557739257812 171.53648376464844 524.462158203125 168.45217895507812 526.9679565429688 165.86927795410156 C 528.0953369140625 160.89561462402344 529.2576293945312 158.50889587402344 533.3458862304688 158.68907165527344 C 537.6644287109375 161.81398010253906 541.3948364257812 162.4572296142578 542.2337036132812 163.91104125976562 C 545.2927856445312 164.0257110595703 546.0357055664062 165.64218139648438 549.3751831054688 166.33523559570312 C 548.7597045898438 165.6434326171875 551.4371948242188 157.1652374267578 555.3565063476562 156.51283264160156 C 558.9425659179688 155.51219177246094 562.50830078125 155.30465698242188 565.6387329101562 157.39642333984375" stroke-width="0.0" fill="url(#shape_9_fill)"/>
    <path d="M 561.2218017578125 155.59835815429688 C 567.7677001953125 155.57064819335938 569.4306640625 160.40289306640625 571.6852416992188 166.86672973632812 C 573.2889404296875 170.23387145996094 575.5084228515625 171.2108154296875 578.6383056640625 176.40322875976562 C 579.475341796875 178.02806091308594 578.3136596679688 187.26504516601562 577.2428588867188 191.58441162109375 C 573.1349487304688 198.0835723876953 572.52392578125 231.90907287597656 577.177734375 230.16004943847656 C 575.4735107421875 230.35975646972656 576.1107177734375 236.80873107910156 571.8997192382812 238.17189025878906 C 559.2739868164062 236.3095703125 567.9635620117188 238.46096801757812 558.2040405273438 244.7183074951172 C 554.97802734375 251.4733428955078 501.23895263671875 248.9696502685547 500.2213439941406 251.38150024414062 C 490.9355773925781 252.0011749267578 488.21807861328125 236.49891662597656 487.2399597167969 230.19947814941406 C 486.603515625 224.9475555419922 482.0010681152344 219.2552032470703 481.49853515625 216.22117614746094 C 478.0837707519531 212.70274353027344 478.82122802734375 210.3223114013672 478.5064697265625 206.72964477539062 C 477.9956970214844 203.75364685058594 482.6999206542969 198.22640991210938 485.1407775878906 197.90599060058594 C 491.0273132324219 196.76641845703125 495.5514831542969 185.49810791015625 496.1364440917969 182.5044708251953 C 496.0709533691406 179.62371826171875 497.11151123046875 177.04461669921875 500.44769287109375 176.126708984375 C 507.44805908203125 175.51568603515625 514.5613403320312 177.4358367919922 520.3015747070312 173.94720458984375 C 524.4186401367188 173.46957397460938 527.0706176757812 159.41842651367188 532.5403442382812 158.96983337402344 C 536.4734497070312 158.75054931640625 539.3494262695312 161.50527954101562 542.8815307617188 165.3018798828125 C 545.1747436523438 164.8966827392578 548.6819458007812 166.11196899414062 550.9494018554688 163.11810302734375 C 551.4248046875 158.47879028320312 553.6615600585938 153.83511352539062 561.2218017578125 155.59835815429688" stroke-width="0.0" fill="url(#shape_10_fill)"/>
    <path d="M 449.59185791015625 108.31830596923828 C 454.05670166015625 109.14765167236328 456.560546875 112.21015167236328 460.44921875 113.74205017089844 C 463.5413513183594 116.79290008544922 468.9713134765625 117.43157196044922 472.35333251953125 119.63642883300781 C 488.370361328125 124.54812622070312 488.7952880859375 125.24219512939453 492.111572265625 129.82647705078125 C 493.37225341796875 131.7736358642578 493.2205505371094 134.1064910888672 496.53509521484375 136.42059326171875 C 493.5455627441406 135.18234252929688 492.20050048828125 136.5438232421875 487.75360107421875 134.812744140625 C 484.23699951171875 133.24598693847656 482.4748840332031 135.18594360351562 479.16815185546875 134.69775390625 C 474.66168212890625 135.87347412109375 471.421875 134.28115844726562 468.2575378417969 134.34707641601562 C 465.3031311035156 133.50477600097656 460.0605773925781 133.5125732421875 457.0107421875 134.3865203857422 C 453.5794677734375 143.21253967285156 468.5994567871094 153.70159912109375 479.9716796875 158.0089111328125 C 476.14532470703125 176.6116943359375 475.3452453613281 177.14874267578125 469.6225280761719 180.78277587890625 C 466.5691223144531 182.14315795898438 466.3387145996094 186.64955139160156 463.6846923828125 188.38372802734375 C 460.1468811035156 187.65298461914062 455.8011169433594 180.48426818847656 454.0097961425781 177.00820922851562 C 448.2526550292969 179.45748901367188 447.5376281738281 182.70950317382812 439.57550048828125 183.4353790283203 C 439.830810546875 183.52931213378906 435.589111328125 195.4248046875 434.2618408203125 198.17820739746094 C 428.75213623046875 201.17776489257812 417.4984130859375 180.58299255371094 417.40631103515625 179.56736755371094 C 417.1883850097656 180.0283203125 402.0577392578125 175.38377380371094 397.5424499511719 168.01434326171875 C 392.6017761230469 168.07814025878906 386.70068359375 176.12599182128906 381.4161682128906 172.9044189453125 C 381.2705993652344 164.17892456054688 383.2257995605469 142.78341674804688 390.9264221191406 139.50062561035156 C 397.8809509277344 137.39874267578125 399.36578369140625 129.67466735839844 402.1792907714844 123.07624816894531 C 410.70458984375 99.83557891845703 428.456298828125 103.78916931152344 449.59185791015625 108.31830596923828" stroke-width="0.0" fill="url(#shape_11_fill)"/>
    <path d="M 601.9071655273438 129.98089599609375 C 607.02392578125 130.03472900390625 608.4198608398438 139.533447265625 609.4937133789062 141.96047973632812 C 612.067138671875 144.4437713623047 612.1976928710938 147.7341766357422 614.5706787109375 151.39035034179688 C 618.8853759765625 149.93356323242188 618.80908203125 141.9691619873047 621.8142700195312 140.9958038330078 C 624.4458618164062 139.14996337890625 626.885986328125 139.35643005371094 628.376953125 140.22569274902344 C 627.6795654296875 142.03128051757812 629.4137573242188 144.60479736328125 629.8773803710938 147.62353515625 C 632.2996826171875 149.87294006347656 631.5744018554688 151.02981567382812 635.6367797851562 154.32546997070312 C 640.1255493164062 156.40121459960938 638.1288452148438 162.09359741210938 639.167236328125 171.56602478027344 C 637.2125244140625 183.65280151367188 639.0211181640625 194.31610107421875 639.5982666015625 206.39398193359375 C 641.350830078125 218.6923828125 644.0499877929688 230.1245574951172 639.9259643554688 244.6990509033203 C 622.6273193359375 248.17410278320312 608.4862060546875 244.99217224121094 582.234130859375 246.19761657714844 C 578.4564819335938 238.99267578125 578.1737670898438 226.1748809814453 576.0913696289062 217.24349975585938 C 572.2921752929688 215.79507446289062 578.6444702148438 168.68499755859375 586.3114013671875 168.5718994140625 C 594.194091796875 160.16473388671875 596.2644653320312 140.60415649414062 597.12158203125 140.68649291992188 C 597.9765014648438 137.11572265625 597.4573364257812 135.18133544921875 601.9071655273438 129.98089599609375" stroke-width="0.0" fill="url(#shape_12_fill)"/>
    <path d="M 403.8973388671875 177.44927978515625 C 420.5759582519531 177.61163330078125 436.7743835449219 211.09579467773438 430.1666564941406 215.8520050048828 C 419.4720764160156 230.73243713378906 423.27490234375 240.41136169433594 424.7070617675781 246.81886291503906 C 428.0398864746094 260.71563720703125 418.306884765625 263.44287109375 414.46746826171875 269.28729248046875 C 406.6766052246094 269.4754943847656 396.8158874511719 267.7010803222656 393.4705505371094 266.5041198730469 C 386.8208923339844 262.5729064941406 384.8905029296875 263.77008056640625 381.5465087890625 262.2203674316406 C 377.7123107910156 262.229248046875 377.132080078125 260.0311279296875 375.5982666015625 258.3829650878906 C 376.3172607421875 255.9625701904297 375.7121276855469 253.30494689941406 374.5245056152344 253.4922637939453 C 374.3544006347656 252.18324279785156 370.5203857421875 250.5292510986328 369.341796875 251.32151794433594 C 365.6637268066406 240.33338928222656 367.4535217285156 226.41648864746094 369.39794921875 222.5347137451172 C 369.97882080078125 219.76675415039062 372.07562255859375 203.68045043945312 374.7861022949219 200.40396118164062 C 375.36444091796875 198.24363708496094 377.3042297363281 180.36441040039062 381.9427490234375 176.88040161132812 C 389.97186279296875 172.04905700683594 395.11492919921875 172.50360107421875 403.8973388671875 177.44927978515625" stroke-width="0.0" fill="url(#shape_13_fill)"/>
    <path d="M 509.9790954589844 65.96028137207031 C 512.7034912109375 66.39317321777344 521.7767333984375 69.94515991210938 523.4673461914062 74.64189147949219 C 529.8661499023438 80.93949890136719 534.8380737304688 80.90631866455078 537.7381591796875 88.70201110839844 C 539.6699829101562 90.76663208007812 544.6022338867188 90.37642669677734 545.0182495117188 91.17559051513672 C 545.5162963867188 92.72573852539062 556.1203002929688 97.02581787109375 561.06787109375 96.27410888671875 C 564.5155029296875 97.58238983154297 567.3550415039062 97.89501190185547 569.2442626953125 100.47148895263672 C 566.2276000976562 104.39716339111328 552.949951171875 111.1028060913086 547.396484375 110.91845703125 C 541.7697143554688 112.1707534790039 539.3865966796875 114.9842300415039 533.8810424804688 117.15459442138672 C 527.4892578125 120.80487060546875 525.784423828125 121.50590515136719 515.669921875 120.49825286865234 C 510.73858642578125 119.77020263671875 501.1556396484375 125.02609252929688 500.4828186035156 126.94905853271484 C 497.1523742675781 129.0582275390625 493.8177795410156 129.41043090820312 489.6102600097656 128.70179748535156 C 489.688720703125 125.21440124511719 468.76715087890625 119.09172821044922 468.0527038574219 118.19195556640625 C 463.28375244140625 117.7418441772461 463.10845947265625 116.47985076904297 460.3043212890625 114.7473373413086 C 460.5699157714844 106.51888275146484 463.052734375 100.78880310058594 469.0589599609375 94.8449935913086 C 473.3621826171875 89.28136444091797 472.2416687011719 84.13728332519531 473.01495361328125 81.99376678466797 C 474.59442138671875 70.92587280273438 475.3312072753906 70.39309692382812 478.2596435546875 66.38835144042969 C 479.07281494140625 64.24562072753906 482.6668395996094 64.16749572753906 484.3935546875 62.197265625 C 493.80706787109375 61.33509826660156 501.35552978515625 62.750999450683594 509.9790954589844 65.96028137207031" stroke-width="0.0" fill="url(#shape_14_fill)"/>
    <path d="M 532.873779296875 158.70623779296875 C 543.7859497070312 162.91905212402344 544.0227661132812 163.89654541015625 546.7180786132812 166.72015380859375 C 547.0139770507812 168.05433654785156 548.31884765625 170.26722717285156 544.5599365234375 182.2301483154297 C 543.1909790039062 189.87240600585938 539.837646484375 232.60397338867188 539.1451416015625 235.96737670898438 C 538.8348999023438 238.04852294921875 542.586181640625 252.38951110839844 514.7213134765625 252.84500122070312 C 500.6966857910156 254.0102996826172 485.9494323730469 247.49693298339844 487.57855224609375 229.88328552246094 C 478.6180114746094 216.43569946289062 477.1660461425781 203.7732696533203 484.1246643066406 198.82821655273438 C 487.4772644042969 196.85427856445312 488.6216735839844 198.26748657226562 490.5934143066406 196.7942352294922 C 492.2591857910156 193.51226806640625 494.04119873046875 184.1383514404297 495.517333984375 181.5600128173828 C 497.11846923828125 179.44834899902344 498.82159423828125 176.67018127441406 502.1032409667969 176.05470275878906 C 507.2972412109375 175.65447998046875 511.5569152832031 179.50149536132812 522.6690673828125 172.5741729736328 C 525.5162963867188 170.93603515625 525.5685424804688 167.3509979248047 526.9464721679688 165.09523010253906 C 527.6423950195312 161.73629760742188 530.9010620117188 160.5398406982422 532.873779296875 158.70623779296875" stroke-width="0.0" fill="url(#shape_15_fill)"/>
    <path d="M 650.2896728515625 112.33955383300781 C 657.3861694335938 109.86369323730469 663.8228759765625 121.27942657470703 662.8071899414062 126.18675231933594 C 665.5704345703125 133.18861389160156 666.1853637695312 139.3309326171875 673.5599975585938 146.96983337402344 C 675.3602905273438 180.11865234375 673.8482055664062 212.515869140625 674.2234497070312 247.31011962890625 C 669.6452026367188 244.1863250732422 653.3350219726562 251.4460906982422 644.3348999023438 242.73524475097656 C 637.1017456054688 239.20118713378906 637.3121948242188 116.72683715820312 650.2896728515625 112.33955383300781" stroke-width="0.0" fill="url(#shape_16_fill)"/>
    <path d="M 599.5911254882812 129.49205017089844 C 603.4968872070312 127.45880126953125 608.4096069335938 131.38632202148438 607.0397338867188 133.9654998779297 C 608.4659423828125 135.0263214111328 608.4979248046875 138.88864135742188 612.8098754882812 149.25030517578125 C 620.2359008789062 136.50169372558594 619.0700073242188 231.37901306152344 616.386474609375 242.0098114013672 C 598.9095458984375 250.26885986328125 575.0494384765625 245.83416748046875 583.1151123046875 237.80650329589844 C 561.959716796875 223.9988250732422 592.2125244140625 149.20846557617188 599.5911254882812 129.49205017089844" stroke-width="0.0" fill="url(#shape_17_fill)"/>
    <path d="M 320.54339599609375 185.48907470703125 C 323.135009765625 184.68370056152344 325.0412902832031 186.8739013671875 328.80157470703125 186.84263610839844 C 332.3772277832031 189.2176055908203 337.13568115234375 188.88577270507812 340.5870056152344 190.49777221679688 C 343.2165222167969 194.7351837158203 348.7410888671875 193.4866943359375 353.5789489746094 193.48597717285156 C 356.9391174316406 195.1407470703125 357.9300537109375 198.42173767089844 359.10382080078125 200.6263885498047 C 359.87957763671875 203.76194763183594 362.0713195800781 203.53990173339844 363.41033935546875 205.98756408691406 C 367.2734375 206.96018981933594 368.4650573730469 208.18324279785156 368.4400939941406 211.78323364257812 C 369.4039611816406 216.614990234375 367.79644775390625 221.3984832763672 366.53167724609375 225.54954528808594 C 366.8250732421875 231.47348022460938 365.37713623046875 235.2528076171875 366.5316467285156 241.0728302001953 C 367.25726318359375 246.86488342285156 364.48687744140625 255.42437744140625 355.75201416015625 254.44558715820312 C 353.03680419921875 254.7322235107422 330.8422546386719 254.73348999023438 324.3283386230469 254.2908172607422 C 313.4986267089844 255.45645141601562 312.3752746582031 253.26673889160156 313.3582763671875 236.25552368164062 C 305.94952392578125 227.781494140625 315.9598388671875 188.6192169189453 320.54339599609375 185.48907470703125" stroke-width="0.0" fill="url(#shape_18_fill)"/>
    <path d="M 480.63763427734375 217.64796447753906 C 492.0254211425781 240.52978515625 493.7829284667969 247.07354736328125 478.40008544921875 267.2613830566406 C 470.10552978515625 277.9228210449219 443.9521789550781 261.276611328125 442.20166015625 261.70465087890625 C 438.6617736816406 260.610107421875 437.15740966796875 258.16436767578125 432.5825500488281 257.9412841796875 C 429.63653564453125 258.17950439453125 427.656005859375 257.6957092285156 426.5194091796875 254.37088012695312 C 420.9949951171875 246.34141540527344 420.267578125 237.45838928222656 422.4143371582031 228.456787109375 C 423.80078125 223.854736328125 420.96112060546875 228.95358276367188 421.96527099609375 225.92257690429688 C 427.6982116699219 219.35585021972656 429.67822265625 218.80967712402344 429.56048583984375 215.80743408203125 C 439.36077880859375 202.1922149658203 463.6834716796875 206.67848205566406 480.63763427734375 217.64796447753906" stroke-width="0.0" fill="url(#shape_19_fill)"/>
    <path d="M 673.9786987304688 0.2366696298122406 C 674.4964599609375 33.33617401123047 674.42138671875 64.84419250488281 674.1815185546875 97.09107971191406 C 670.45458984375 95.79385375976562 653.5363159179688 88.23371887207031 643.3624877929688 90.72754669189453 C 638.1605834960938 89.46031951904297 638.7684936523438 86.06847381591797 637.755859375 84.9843521118164 C 631.9223022460938 86.52813720703125 623.4078979492188 87.43115997314453 611.4855346679688 81.53272247314453 C 611.111083984375 77.91954040527344 613.1957397460938 75.57880401611328 615.5856323242188 73.72540283203125 C 622.3451538085938 69.50621032714844 650.3274536132812 25.585020065307617 649.9517211914062 22.258934020996094 C 654.841064453125 14.175201416015625 658.1642456054688 7.337732791900635 667.5339965820312 3.263322114944458 C 669.7545776367188 2.5841307640075684 670.3182983398438 1.3731406927108765 673.9786987304688 0.2366696298122406" stroke-width="0.0" fill="url(#shape_20_fill)"/>
    <path d="M 563.2970581054688 155.8537139892578 C 569.9185791015625 156.57545471191406 569.3446655273438 164.20761108398438 573.000732421875 168.6627197265625 C 584.8008422851562 165.16310119628906 572.41552734375 229.0697021484375 573.447021484375 238.4347381591797 C 568.7501831054688 238.3135223388672 564.4248046875 240.6377410888672 562.7138061523438 243.51560974121094 C 557.591552734375 248.88595581054688 542.87646484375 250.92431640625 540.2501220703125 245.79800415039062 C 544.3932495117188 245.1543731689453 538.7918701171875 160.06227111816406 554.0758056640625 156.92771911621094 C 556.5889282226562 152.7642364501953 558.2916870117188 153.49864196777344 563.2970581054688 155.8537139892578" stroke-width="0.0" fill="url(#shape_21_fill)"/>
    <path d="M 214.46766662597656 212.53823852539062 C 222.60597229003906 221.09710693359375 223.70895385742188 252.87213134765625 217.9645538330078 254.42369079589844 C 210.73606872558594 262.4887390136719 208.00230407714844 263.8069152832031 205.22439575195312 272.2020263671875 C 205.37481689453125 276.0229797363281 206.59913635253906 276.2452697753906 206.8109130859375 280.0796813964844 C 207.05441284179688 283.1952819824219 204.03732299804688 285.0692138671875 200.8274688720703 284.6692199707031 C 201.72256469726562 283.3241271972656 196.72515869140625 265.7752990722656 190.35562133789062 263.3758850097656 C 186.77210998535156 260.64996337890625 184.62791442871094 261.55670166015625 182.49822998046875 259.8771667480469 C 181.1165008544922 259.9532470703125 178.8977508544922 260.4864196777344 177.002685546875 255.9075469970703 C 177.41705322265625 251.72396850585938 170.71006774902344 242.38836669921875 171.43994140625 235.7115478515625 C 178.36941528320312 220.31553649902344 184.59326171875 219.73782348632812 188.52499389648438 218.8571319580078 C 193.88137817382812 217.48681640625 193.4830322265625 215.46583557128906 196.33580017089844 212.2296905517578 C 198.1050262451172 209.0677947998047 197.94630432128906 207.33126831054688 204.00726318359375 206.3762664794922 C 207.85540771484375 206.0752410888672 211.9210662841797 207.59658813476562 214.46766662597656 212.53823852539062" stroke-width="0.0" fill="url(#shape_22_fill)"/>
    <path d="M 111.53234100341797 426.4393005371094 C 112.7046127319336 429.2589111328125 111.0140151977539 431.16510009765625 110.68737030029297 431.71820068359375 C 106.6000747680664 435.9555358886719 102.2432861328125 436.6274719238281 94.61203002929688 435.3874206542969 C 86.15225219726562 440.21844482421875 100.46934509277344 446.034423828125 86.15109252929688 447.3318176269531 C 79.2172622680664 445.417724609375 46.058658599853516 447.3314208984375 26.391101837158203 448.33233642578125 C 12.615675926208496 446.4991149902344 15.249531745910645 440.6375732421875 17.059709548950195 435.8533020019531 C 34.517642974853516 428.21551513671875 51.09525680541992 425.9572448730469 70.23380279541016 425.2230224609375 C 75.69462585449219 425.1799621582031 107.52320861816406 417.51092529296875 111.53234100341797 426.4393005371094" stroke-width="0.0" fill="url(#shape_23_fill)"/>
    <path d="M 195.45155334472656 124.10031127929688 C 200.00636291503906 124.34266662597656 209.8032989501953 144.31884765625 213.07162475585938 145.59262084960938 C 215.45364379882812 148.29574584960938 218.45761108398438 149.7704620361328 219.71890258789062 153.7054443359375 C 227.26089477539062 157.4993133544922 247.74203491210938 180.0518035888672 244.07347106933594 199.2339324951172 C 239.18502807617188 200.07618713378906 235.81663513183594 187.05125427246094 234.11282348632812 182.35903930664062 C 231.4524688720703 183.62005615234375 230.24810791015625 192.96676635742188 228.81085205078125 195.10354614257812 C 226.88955688476562 200.4315185546875 227.4726104736328 203.67333984375 221.04225158691406 208.2718963623047 C 215.17959594726562 207.633056640625 213.7803497314453 199.74095153808594 214.63134765625 195.85984802246094 C 212.74534606933594 189.47496032714844 212.6747589111328 182.80030822753906 207.33108520507812 178.27565002441406 C 204.06556701660156 174.01087951660156 205.1546173095703 173.0483856201172 204.74636840820312 165.8306884765625 C 205.8162384033203 150.99685668945312 199.91175842285156 149.43826293945312 194.88723754882812 144.6759796142578 C 190.08047485351562 139.87930297851562 190.76632690429688 127.8396224975586 195.45155334472656 124.10031127929688" stroke-width="0.0" fill="url(#shape_24_fill)"/>
    <path d="M 594.6148681640625 413.6303405761719 C 597.11669921875 415.522216796875 624.755859375 412.4537353515625 627.7809448242188 418.9426574707031 C 628.3983154296875 420.8016662597656 625.8386840820312 424.9217834472656 627.4671020507812 427.8199768066406 C 629.0299072265625 430.2567443847656 632.2672729492188 430.39569091796875 633.9019165039062 435.8534851074219 C 615.5479125976562 446.6109313964844 579.00732421875 439.7232971191406 578.116455078125 430.9307861328125 C 571.1664428710938 423.03216552734375 574.2261352539062 417.28179931640625 575.0355834960938 414.6393127441406 C 580.4807739257812 410.3512878417969 587.1934814453125 412.38629150390625 594.6148681640625 413.6303405761719" stroke-width="0.0" fill="url(#shape_25_fill)"/>
    <path d="M 143.00845336914062 66.74854278564453 C 143.9984893798828 68.88983917236328 149.1956024169922 68.64398193359375 149.6295166015625 69.11347961425781 C 148.89407348632812 70.95307922363281 150.4536895751953 71.7481918334961 149.8072509765625 73.85037994384766 C 151.04466247558594 74.42568969726562 150.48599243164062 78.05753326416016 153.53335571289062 82.056884765625 C 154.4678955078125 89.55120849609375 154.3304901123047 96.9218978881836 154.2139129638672 104.07853698730469 C 153.56739807128906 107.64434051513672 155.14752197265625 108.48023223876953 155.43667602539062 111.5655288696289 C 158.97080993652344 121.3740005493164 155.49676513671875 133.04261779785156 149.5741424560547 133.0501708984375 C 139.84988403320312 130.4027862548828 133.27728271484375 124.52435302734375 126.28124237060547 116.92268371582031 C 122.54520416259766 114.53500366210938 125.06326293945312 109.87580108642578 126.9217300415039 107.1857681274414 C 128.85508728027344 106.822509765625 128.86981201171875 105.31059265136719 132.58753967285156 104.64078521728516 C 136.56455993652344 97.91873168945312 133.4428253173828 91.81526184082031 133.3679962158203 90.32914733886719 C 134.19033813476562 88.84932708740234 139.33082580566406 87.13639068603516 139.9907684326172 85.2911605834961 C 138.28836059570312 84.78113555908203 138.79962158203125 77.42733001708984 139.5262451171875 77.35883331298828 C 143.48191833496094 76.99822235107422 143.0415802001953 70.04591369628906 143.00845336914062 66.74854278564453" stroke-width="0.0" fill="url(#shape_26_fill)"/>
    <path d="M 144.5194091796875 67.65079498291016 C 149.3223419189453 68.21251678466797 150.258544921875 70.47319030761719 150.0303497314453 74.40935516357422 C 151.98606872558594 76.71439361572266 151.5900421142578 79.55223846435547 154.402099609375 81.61959838867188 C 154.4871826171875 89.46092224121094 154.40859985351562 96.76946258544922 153.38406372070312 103.7080078125 C 154.65794372558594 104.73208618164062 153.5892791748047 108.4397964477539 155.68502807617188 109.6633071899414 C 156.82119750976562 117.69662475585938 156.97006225585938 121.30231475830078 155.12548828125 126.15921020507812 C 152.66311645507812 132.0666046142578 151.38380432128906 133.1608123779297 147.45816040039062 133.3543701171875 C 141.6005096435547 131.9749298095703 128.9686279296875 120.40664672851562 127.6515121459961 119.5207748413086 C 124.7169189453125 117.50311279296875 122.9319076538086 111.85975646972656 128.24728393554688 109.8344497680664 C 124.10956573486328 109.49876403808594 124.46774291992188 105.62156677246094 130.62225341796875 106.21876525878906 C 135.17904663085938 105.25444030761719 134.35609436035156 91.40425109863281 134.6664581298828 89.39805603027344 C 139.40744018554688 87.07482147216797 138.35183715820312 84.74149322509766 138.3305206298828 81.73766326904297 C 139.12249755859375 77.2772216796875 140.32130432128906 76.99078369140625 141.51220703125 76.35337829589844 C 144.2158203125 71.12005615234375 143.18682861328125 68.24913024902344 144.5194091796875 67.65079498291016" stroke-width="0.0" fill="url(#shape_27_fill)"/>
    <path d="M -0.28306812047958374 -0.25967442989349365 C 4.704962253570557 0.372962087392807 9.641815185546875 -0.5147802233695984 15.828469276428223 0.07281395047903061 C 16.75323486328125 0.6370585560798645 17.536867141723633 13.960392951965332 29.35585594177246 20.700502395629883 C 28.924516677856445 24.428627014160156 27.061803817749023 24.873172760009766 26.697891235351562 28.484130859375 C 31.644153594970703 32.97999572753906 38.434566497802734 33.69380569458008 40.391334533691406 38.57342529296875 C 36.624202728271484 38.97632598876953 33.7577018737793 38.39656448364258 31.451942443847656 35.509727478027344 C 25.432416915893555 31.94938850402832 17.539226531982422 33.3509521484375 10.459620475769043 33.4625244140625 C 9.05864143371582 37.16335678100586 12.551292419433594 40.226959228515625 12.622194290161133 41.583290100097656 C 13.630524635314941 42.05882263183594 14.114017486572266 47.74020767211914 17.953248977661133 48.055145263671875 C 20.09066390991211 51.150543212890625 18.73458480834961 52.22948455810547 19.772733688354492 56.93941116333008 C 16.9564266204834 59.137794494628906 10.201925277709961 61.02812957763672 8.908699989318848 61.1476936340332 C 5.514864444732666 60.86561965942383 3.519996166229248 59.15538024902344 0.32033124566078186 59.42144012451172 C -0.30834126472473145 39.7635498046875 -0.31687453389167786 19.635372161865234 -0.28306812047958374 -0.25967442989349365" stroke-width="0.0" fill="url(#shape_28_fill)"/>
    <path d="M 296.92352294921875 195.0879364013672 C 298.9649963378906 197.76206970214844 300.25567626953125 200.84967041015625 301.45703125 205.86233520507812 C 301.3221435546875 208.6125030517578 317.4366149902344 233.5694122314453 310.33154296875 249.5662078857422 C 310.2406005859375 251.10777282714844 309.08856201171875 253.9154815673828 306.0498352050781 253.89044189453125 C 298.32904052734375 255.83631896972656 295.26885986328125 255.76409912109375 287.1346740722656 254.39288330078125 C 285.1217041015625 233.93643188476562 286.590087890625 212.86819458007812 296.92352294921875 195.0879364013672" stroke-width="0.0" fill="url(#shape_29_fill)"/>
    <path d="M -0.4552346169948578 0.15669108927249908 C 4.44118595123291 0.43974921107292175 9.528167724609375 -0.4051990509033203 14.523913383483887 0.1415431797504425 C 15.669000625610352 0.48116499185562134 16.092187881469727 5.565112113952637 16.138561248779297 8.041370391845703 C 18.95568084716797 10.781190872192383 22.27509307861328 18.66676902770996 28.01325035095215 19.98769187927246 C 29.187667846679688 23.17064666748047 26.281150817871094 27.92450523376465 24.830598831176758 31.346115112304688 C 21.155797958374023 33.069618225097656 15.914765357971191 32.704532623291016 8.205183029174805 34.32435607910156 C 9.578133583068848 35.468753814697266 8.59229850769043 38.04682159423828 11.552205085754395 40.34072494506836 C 13.175196647644043 42.70565414428711 12.9147310256958 48.29945373535156 16.42928695678711 49.76140213012695 C 18.783803939819336 51.3304557800293 19.977705001831055 53.50967025756836 18.804645538330078 57.194122314453125 C 12.372262954711914 60.40289306640625 7.360093593597412 60.624427795410156 0.28237220644950867 59.12750244140625 C -0.36666786670684814 39.86966323852539 -0.34536775946617126 19.751306533813477 -0.4552346169948578 0.15669108927249908" stroke-width="0.0" fill="url(#shape_30_fill)"/>
    <path d="M 545.4575805664062 71.09228515625 C 550.8154907226562 69.69336700439453 583.46630859375 82.76608276367188 587.0841064453125 85.7207260131836 C 582.7841796875 93.92547607421875 580.0808715820312 94.23851013183594 577.29052734375 98.29317474365234 C 573.224609375 100.7076187133789 572.15673828125 100.0033187866211 569.2598876953125 97.87487030029297 C 565.9580688476562 97.21427154541016 543.599853515625 94.69258880615234 538.5301513671875 88.49580383300781 C 538.5675048828125 85.50222778320312 537.4597778320312 83.36737060546875 535.552490234375 82.60870361328125 C 534.5684204101562 79.7015609741211 530.9736328125 79.79832458496094 528.1923217773438 77.72923278808594 C 525.510009765625 75.77091979980469 528.1569213867188 70.7999496459961 530.2406005859375 69.7016372680664 C 534.8683471679688 67.8011703491211 539.6389770507812 69.49693298339844 545.4575805664062 71.09228515625" stroke-width="0.0" fill="url(#shape_31_fill)"/>
    <path d="M 448.7519836425781 263.8967590332031 C 450.6440734863281 265.30859375 451.3352355957031 266.6523132324219 455.99273681640625 267.6206970214844 C 460.89129638671875 267.9290466308594 465.6541442871094 270.05279541015625 470.0225524902344 273.2080993652344 C 470.4672546386719 275.86260986328125 471.7860412597656 276.66717529296875 471.6429748535156 280.6077880859375 C 446.7640686035156 286.2977600097656 428.3377380371094 283.51251220703125 416.28436279296875 283.73828125 C 413.3639831542969 273.8376159667969 415.3385009765625 272.4378662109375 415.7459411621094 268.27911376953125 C 418.1744384765625 267.1918640136719 417.7994079589844 264.82696533203125 419.33428955078125 263.0613098144531 C 428.866943359375 254.34642028808594 438.8937072753906 258.86614990234375 448.7519836425781 263.8967590332031" stroke-width="0.0" fill="url(#shape_32_fill)"/>
    <path d="M 269.8021545410156 191.07484436035156 C 282.2670593261719 190.5447235107422 283.01019287109375 240.60794067382812 278.45098876953125 243.78982543945312 C 276.3548583984375 247.29632568359375 273.9031066894531 246.53775024414062 270.0260009765625 248.20848083496094 C 266.4156494140625 245.86660766601562 266.8758850097656 241.97853088378906 265.1107482910156 240.40821838378906 C 258.7269592285156 205.69325256347656 258.34222412109375 199.64523315429688 269.8021545410156 191.07484436035156" stroke-width="0.0" fill="url(#shape_33_fill)"/>
    <path d="M 252.48452758789062 426.3871154785156 C 254.40499877929688 429.1658630371094 261.5963134765625 433.67608642578125 260.9419860839844 438.6156005859375 C 259.43902587890625 440.57427978515625 259.4261779785156 444.11761474609375 252.23817443847656 444.907958984375 C 246.8425750732422 444.4560241699219 220.1483612060547 447.0508728027344 212.60963439941406 444.54962158203125 C 213.03663635253906 436.9810485839844 213.9480438232422 436.23736572265625 215.9351043701172 434.46990966796875 C 216.25466918945312 433.26434326171875 225.1329803466797 433.4952392578125 226.4827423095703 430.3292541503906 C 233.4654541015625 426.340576171875 242.58082580566406 423.50628662109375 252.48452758789062 426.3871154785156" stroke-width="0.0" fill="url(#shape_34_fill)"/>
    <path d="M 105.41924285888672 69.94771575927734 C 109.57408905029297 70.02740478515625 112.47787475585938 78.22516632080078 111.81575012207031 82.19105529785156 C 115.83745574951172 84.85940551757812 117.09672546386719 110.44612121582031 116.74778747558594 110.77312469482422 C 115.23977661132812 112.00458526611328 109.33100891113281 111.72277069091797 107.18788146972656 114.92488098144531 C 105.46210479736328 116.48905181884766 96.69815063476562 118.74616241455078 92.93014526367188 112.86784362792969 C 91.20018768310547 84.92503356933594 103.40838623046875 84.79800415039062 105.41924285888672 69.94771575927734" stroke-width="0.0" fill="url(#shape_35_fill)"/>
    <path d="M 451.1802673339844 177.24951171875 C 453.2952575683594 175.89804077148438 456.62847900390625 177.41036987304688 457.03033447265625 179.6404266357422 C 457.72100830078125 179.69451904296875 457.94677734375 183.91319274902344 459.6957702636719 185.15614318847656 C 460.8160400390625 188.72067260742188 464.3597717285156 192.60995483398438 462.4776916503906 206.60105895996094 C 459.0848388671875 208.71742248535156 454.34918212890625 207.85536193847656 449.9473571777344 207.76702880859375 C 441.05670166015625 207.4145965576172 440.1405334472656 208.9088897705078 435.80523681640625 208.6543731689453 C 433.4557800292969 207.97483825683594 437.0059814453125 188.46649169921875 439.7896728515625 185.70697021484375 C 441.2789611816406 182.0988311767578 445.2267761230469 182.75738525390625 447.2359924316406 181.01068115234375 C 449.6516418457031 177.2097930908203 449.1991882324219 180.50633239746094 451.1802673339844 177.24951171875" stroke-width="0.0" fill="url(#shape_36_fill)"/>
    <path d="M 557.8978271484375 80.53604888916016 C 563.0426025390625 81.03800201416016 583.1932373046875 83.15532684326172 576.7814331054688 83.39105987548828 C 582.6644897460938 83.22271728515625 586.7189331054688 84.54185485839844 586.9375 87.32752227783203 C 585.7965698242188 89.6246337890625 578.519775390625 96.05873107910156 574.27490234375 99.88211822509766 C 573.9130859375 99.45401000976562 548.5370483398438 96.7496109008789 539.8570556640625 86.8011474609375 C 537.9528198242188 85.688232421875 537.875244140625 80.68655395507812 538.2049560546875 79.94003295898438 C 544.4861450195312 77.40837860107422 551.2937622070312 78.10105895996094 557.8978271484375 80.53604888916016" stroke-width="0.0" fill="url(#shape_37_fill)"/>
    <path d="M 250.6995391845703 205.5231475830078 C 262.1134033203125 209.59918212890625 256.860107421875 244.02374267578125 257.4313659667969 246.93582153320312 C 253.7769775390625 254.01869201660156 249.9232940673828 253.30368041992188 248.655517578125 253.13084411621094 C 238.24012756347656 240.3673095703125 243.19908142089844 208.68710327148438 250.6995391845703 205.5231475830078" stroke-width="0.0" fill="url(#shape_38_fill)"/>
    <path d="M 444.5126037597656 262.2180480957031 C 445.9485168457031 263.5074462890625 449.112060546875 266.5758361816406 447.6173400878906 270.1304016113281 C 443.98797607421875 270.2951354980469 442.55303955078125 276.8816833496094 440.86456298828125 280.0174255371094 C 440.40093994140625 284.9884338378906 417.4078674316406 284.7257385253906 416.10552978515625 279.3505859375 C 415.6814880371094 276.51263427734375 413.8670654296875 274.9052429199219 415.5968017578125 271.6426086425781 C 414.4691467285156 269.89178466796875 418.18951416015625 261.0381774902344 422.65533447265625 259.4472351074219 C 430.9613952636719 255.8851318359375 437.4507751464844 257.7940979003906 444.5126037597656 262.2180480957031" stroke-width="0.0" fill="url(#shape_39_fill)"/>
    <path d="M 407.75592041015625 409.7868957519531 C 408.6661682128906 409.8689270019531 416.81256103515625 419.0633544921875 413.387939453125 423.9890441894531 C 397.1606750488281 431.8067626953125 381.0896301269531 419.8825378417969 377.5680236816406 420.04791259765625 C 369.79473876953125 417.50286865234375 372.1371154785156 417.0690612792969 373.3832702636719 412.2420349121094 C 380.94281005859375 406.5155334472656 399.31671142578125 405.7701721191406 407.75592041015625 409.7868957519531" stroke-width="0.0" fill="url(#shape_40_fill)"/>
    <path d="M 66.14159393310547 427.40753173828125 C 68.12487030029297 428.91912841796875 65.18323516845703 435.781494140625 60.04801559448242 436.2987060546875 C 58.59691619873047 437.2277526855469 42.28024673461914 437.68267822265625 34.94392395019531 445.0116271972656 C 30.495567321777344 444.7841796875 24.502670288085938 447.8199462890625 17.053203582763672 443.62603759765625 C 16.569501876831055 440.6158752441406 17.533666610717773 439.2268981933594 16.664386749267578 436.2963562011719 C 32.191444396972656 426.80462646484375 56.55150604248047 425.4292297363281 66.14159393310547 427.40753173828125" stroke-width="0.0" fill="url(#shape_41_fill)"/>
    <path d="M 277.4428405761719 387.98785400390625 C 279.7497253417969 387.51617431640625 292.0223693847656 387.8432922363281 295.8485412597656 391.1375427246094 C 297.3153381347656 393.5061950683594 298.6898193359375 398.06036376953125 292.23486328125 402.9678039550781 C 293.7893981933594 397.5617370605469 266.01116943359375 404.232177734375 261.13232421875 399.6828308105469 C 257.82061767578125 399.52117919921875 256.8958435058594 390.24310302734375 260.0928649902344 389.3143005371094 C 265.5059509277344 387.4956359863281 271.22161865234375 387.9697265625 277.4428405761719 387.98785400390625" stroke-width="0.0" fill="url(#shape_42_fill)"/>
    <path d="M 220.95628356933594 225.61940002441406 C 223.35882568359375 224.54083251953125 226.77951049804688 224.17059326171875 230.49864196777344 226.64321899414062 C 233.21145629882812 229.75302124023438 239.17257690429688 247.26199340820312 237.1771697998047 253.47789001464844 C 234.35623168945312 257.4853210449219 227.03903198242188 257.6787414550781 224.07321166992188 257.59185791015625 C 219.3531494140625 255.99253845214844 218.1352996826172 255.66172790527344 217.75338745117188 247.92974853515625 C 220.04017639160156 246.56884765625 216.5752410888672 225.13487243652344 220.95628356933594 225.61940002441406" stroke-width="0.0" fill="url(#shape_43_fill)"/>
    <path d="M 483.5762634277344 395.6268310546875 C 486.82794189453125 400.0037536621094 485.54876708984375 401.0332946777344 483.7759704589844 401.0553894042969 C 477.8080139160156 410.8006591796875 453.2267150878906 410.7147521972656 450.7096862792969 407.3890686035156 C 447.9790344238281 404.4678039550781 451.6261291503906 396.1640625 453.5689392089844 396.45062255859375 C 461.7634582519531 391.6895446777344 475.53094482421875 390.94921875 483.5762634277344 395.6268310546875" stroke-width="0.0" fill="url(#shape_44_fill)"/>
    <path d="M 45.939727783203125 406.47808837890625 C 45.838966369628906 410.40814208984375 36.03197479248047 412.6983947753906 35.42717742919922 414.7075500488281 C 32.86440658569336 414.78021240234375 32.618263244628906 416.20367431640625 29.866825103759766 416.8218688964844 C 28.195056915283203 418.2333068847656 25.318559646606445 418.2192687988281 21.888774871826172 421.4758605957031 C 15.452475547790527 420.6249694824219 5.697159767150879 418.6015625 -0.7637948393821716 420.84417724609375 C 0.6701973080635071 419.6244812011719 -0.8000745177268982 410.1837463378906 0.22485306859016418 409.3459167480469 C 8.252347946166992 408.85833740234375 41.828773498535156 407.6842956542969 45.939727783203125 406.47808837890625" stroke-width="0.0" fill="url(#shape_45_fill)"/>
    <path d="M 452.1426696777344 175.26426696777344 C 457.0865478515625 174.56167602539062 465.697265625 196.74916076660156 464.50274658203125 201.45773315429688 C 462.6699523925781 209.7593231201172 451.7715759277344 209.53514099121094 449.4656982421875 206.78353881835938 C 448.33917236328125 203.2384796142578 449.0376892089844 198.32606506347656 448.83001708984375 195.2856903076172 C 447.94549560546875 194.55580139160156 447.62884521484375 192.2093505859375 448.4810485839844 187.7549285888672 C 447.7637939453125 184.81796264648438 447.36474609375 181.61903381347656 452.1426696777344 175.26426696777344" stroke-width="0.0" fill="url(#shape_46_fill)"/>
    <path d="M 376.3949890136719 183.96435546875 C 375.43768310546875 187.43011474609375 375.0356750488281 203.474853515625 372.5576477050781 206.60775756835938 C 365.81817626953125 206.81005859375 364.81939697265625 204.87705993652344 361.86187744140625 203.22122192382812 C 357.3317565917969 200.44276428222656 354.9124755859375 196.99537658691406 354.5904846191406 188.34095764160156 C 356.6618957519531 184.9186553955078 358.33831787109375 184.4268798828125 364.72576904296875 184.63534545898438 C 368.6661071777344 183.916015625 373.090576171875 182.36859130859375 376.3949890136719 183.96435546875" stroke-width="0.0" fill="url(#shape_47_fill)"/>
    <path d="M 466.89111328125 270.72540283203125 C 468.77899169921875 271.8828430175781 472.5405578613281 273.2117919921875 471.41571044921875 280.66387939453125 C 462.5258483886719 284.77703857421875 455.3670349121094 282.17779541015625 444.5151672363281 284.5721435546875 C 439.1507568359375 282.3459777832031 440.0391540527344 276.9525146484375 441.22625732421875 276.5124206542969 C 447.7568054199219 266.57159423828125 456.0550537109375 266.9639587402344 466.89111328125 270.72540283203125" stroke-width="0.0" fill="url(#shape_48_fill)"/>
    <path d="M 175.0405731201172 117.5379409790039 C 179.134765625 115.38038635253906 182.36285400390625 116.69338989257812 183.54672241210938 117.4879150390625 C 184.68775939941406 120.21479797363281 183.86614990234375 122.32988739013672 185.1442413330078 126.47863006591797 C 183.52674865722656 134.34225463867188 187.04676818847656 138.21392822265625 184.64505004882812 142.30136108398438 C 181.73220825195312 146.79490661621094 173.45254516601562 144.9359893798828 172.54635620117188 145.22850036621094 C 171.14720153808594 125.76852416992188 168.8433074951172 121.41790771484375 175.0405731201172 117.5379409790039" stroke-width="0.0" fill="url(#shape_49_fill)"/>
    <path d="M 333.6059265136719 428.34332275390625 C 336.9996032714844 428.4951477050781 340.61285400390625 429.6462097167969 342.6385803222656 432.2793273925781 C 346.3691711425781 435.5694274902344 344.9993591308594 437.2950744628906 342.536865234375 437.50970458984375 C 341.62255859375 443.18927001953125 322.65679931640625 445.3836364746094 320.6592102050781 441.2274475097656 C 318.4814147949219 439.1806335449219 317.90521240234375 432.9429931640625 317.8428649902344 431.8040466308594 C 322.1977844238281 426.52203369140625 327.514404296875 427.16571044921875 333.6059265136719 428.34332275390625" stroke-width="0.0" fill="url(#shape_50_fill)"/>
    <path d="M 295.2461242675781 390.9163513183594 C 296.693115234375 395.44927978515625 296.6075134277344 399.9488830566406 290.4688415527344 399.85455322265625 C 286.8238830566406 400.2528381347656 284.0228576660156 401.70269775390625 271.38897705078125 402.705078125 C 271.0388488769531 401.6366271972656 269.46722412109375 399.0190124511719 270.9614562988281 397.3710632324219 C 269.77630615234375 395.5977478027344 272.9869689941406 388.0802307128906 277.285400390625 388.66558837890625 C 283.9610595703125 387.23004150390625 289.1947021484375 387.55645751953125 295.2461242675781 390.9163513183594" stroke-width="0.0" fill="url(#shape_51_fill)"/>
    <path d="M 272.0050354003906 192.427734375 C 278.141357421875 195.15989685058594 278.7000732421875 205.75033569335938 279.5777587890625 211.25135803222656 C 270.3787841796875 213.12930297851562 264.9967346191406 210.4403839111328 261.4706115722656 210.7798309326172 C 259.2793884277344 204.9173126220703 262.6703186035156 195.75885009765625 266.53521728515625 195.0364990234375 C 269.50244140625 195.26304626464844 269.833251953125 192.18580627441406 272.0050354003906 192.427734375" stroke-width="0.0" fill="url(#shape_52_fill)"/>
    <path d="M 216.89515686035156 410.6731872558594 C 215.3341827392578 407.5898742675781 216.45339965820312 412.8033752441406 214.3656463623047 414.5130310058594 C 213.51577758789062 417.7549743652344 189.0668182373047 421.0970764160156 187.50521850585938 415.6419372558594 C 186.25344848632812 408.3431091308594 205.70809936523438 401.552734375 216.89515686035156 410.6731872558594" stroke-width="0.0" fill="url(#shape_53_fill)"/>
    <path d="M 205.74383544921875 424.6211242675781 C 205.36717224121094 425.4405822753906 206.2052764892578 428.6193542480469 204.55621337890625 429.7099609375 C 201.70599365234375 433.92572021484375 178.8323974609375 433.8320007324219 177.9120330810547 432.8029479980469 C 176.43377685546875 430.8771667480469 178.3382110595703 425.647705078125 176.67494201660156 424.2239685058594 C 185.89547729492188 419.1822814941406 197.1932373046875 421.2474670410156 205.74383544921875 424.6211242675781" stroke-width="0.0" fill="url(#shape_54_fill)"/>
    <path d="M 270.9093322753906 245.07672119140625 C 275.4380798339844 244.77642822265625 276.6165771484375 245.64422607421875 278.976318359375 249.15748596191406 C 281.2649230957031 250.23263549804688 280.8565368652344 255.31454467773438 281.23968505859375 256.41070556640625 C 263.4570007324219 257.84161376953125 262.9337463378906 257.14630126953125 255.54769897460938 255.2827911376953 C 254.8883819580078 248.1603240966797 255.8388671875 247.2423095703125 258.623291015625 245.47486877441406 C 262.6979675292969 243.1000518798828 266.47918701171875 244.20936584472656 270.9093322753906 245.07672119140625" stroke-width="0.0" fill="url(#shape_55_fill)"/>
    <path d="M 272.8485412597656 366.75360107421875 C 276.4982604980469 367.35284423828125 280.5030517578125 365.2054138183594 284.3957824707031 368.1703186035156 C 285.409423828125 369.2256774902344 285.41766357421875 371.6410217285156 280.618896484375 374.8050537109375 C 275.02850341796875 375.1014404296875 265.269775390625 377.7168273925781 257.0794982910156 375.6191711425781 C 253.43865966796875 373.23779296875 254.9149169921875 369.04180908203125 256.21307373046875 368.3224182128906 C 261.29583740234375 366.6611633300781 267.5835876464844 366.43408203125 272.8485412597656 366.75360107421875" stroke-width="0.0" fill="url(#shape_56_fill)"/>
    <path d="M 409.039794921875 270.9144287109375 C 412.1365966796875 270.6689147949219 417.1673889160156 275.8185119628906 414.5294494628906 278.69195556640625 C 409.36920166015625 286.3487548828125 399.114501953125 282.2696533203125 394.3046569824219 283.7606201171875 C 391.9110107421875 275.36761474609375 399.8409423828125 268.5284423828125 409.039794921875 270.9144287109375" stroke-width="0.0" fill="url(#shape_57_fill)"/>
    <path d="M 632.3715209960938 352.95843505859375 C 632.5259399414062 353.01861572265625 660.042236328125 352.9397888183594 668.3642578125 353.5030212402344 C 668.8119506835938 358.7333984375 662.2142944335938 360.5945739746094 656.373779296875 359.1414794921875 C 654.1638793945312 358.6003112792969 634.122314453125 361.46258544921875 631.4475708007812 361.10064697265625 C 627.7200927734375 357.169921875 629.3062133789062 353.5849304199219 632.3715209960938 352.95843505859375" stroke-width="0.0" fill="url(#shape_58_fill)"/>
    <path d="M 343.98486328125 387.5586853027344 C 340.0201721191406 388.9432678222656 358.2159729003906 389.80419921875 359.0794372558594 394.81378173828125 C 356.5028381347656 399.4863586425781 342.3614807128906 399.85064697265625 338.4447326660156 399.5199279785156 C 335.15240478515625 399.5812072753906 333.11065673828125 398.7530517578125 331.8378601074219 396.54229736328125 C 332.0072326660156 394.85394287109375 330.7157897949219 393.5605163574219 332.5621032714844 390.7243347167969 C 336.9874572753906 389.0176696777344 340.67529296875 389.59783935546875 343.98486328125 387.5586853027344" stroke-width="0.0" fill="url(#shape_59_fill)"/>
    <path d="M 460.49835205078125 363.5274963378906 C 464.28265380859375 363.0404052734375 470.5984802246094 368.21112060546875 472.49554443359375 372.5546569824219 C 471.5064392089844 377.9716491699219 470.7101745605469 375.4169006347656 463.1176452636719 375.91632080078125 C 460.7429504394531 377.72479248046875 454.5172424316406 378.5111999511719 452.6156311035156 372.6009826660156 C 452.30474853515625 368.21209716796875 457.8306579589844 363.46844482421875 460.49835205078125 363.5274963378906" stroke-width="0.0" fill="url(#shape_60_fill)"/>
    <path d="M 437.9974365234375 433.11810302734375 C 440.2820739746094 434.2489318847656 442.5093994140625 436.2983093261719 441.9715881347656 439.1229553222656 C 440.5181579589844 442.4671630859375 430.2321472167969 441.173828125 425.99755859375 442.414794921875 C 422.43206787109375 438.1661071777344 424.2624816894531 434.5596008300781 424.7265625 433.8275451660156 C 428.91497802734375 432.0375671386719 433.6239013671875 432.290283203125 437.9974365234375 433.11810302734375" stroke-width="0.0" fill="url(#shape_61_fill)"/>
    <path d="M 185.41448974609375 411.47845458984375 C 186.2421875 413.9441833496094 185.0301055908203 414.779052734375 186.8564910888672 417.97088623046875 C 184.8038330078125 420.1086120605469 183.46751403808594 419.54571533203125 182.32618713378906 419.6919250488281 C 180.39158630371094 421.02960205078125 174.90101623535156 421.3377380371094 171.1603546142578 420.2671813964844 C 169.4824981689453 417.93994140625 169.77186584472656 415.66339111328125 172.1060028076172 414.296875 C 176.41983032226562 411.7006530761719 180.2706756591797 410.30902099609375 185.41448974609375 411.47845458984375" stroke-width="0.0" fill="url(#shape_62_fill)"/>
    <path d="M 332.4064636230469 418.3582763671875 C 334.8629455566406 425.7026062011719 329.186279296875 428.5474853515625 327.994873046875 426.06256103515625 C 324.6048889160156 427.7765808105469 323.023681640625 426.7630615234375 320.30963134765625 427.6656494140625 C 318.572021484375 426.0751647949219 319.64556884765625 419.8731689453125 317.8382873535156 418.5351867675781 C 322.5362243652344 417.51739501953125 325.7388000488281 417.1121520996094 332.4064636230469 418.3582763671875" stroke-width="0.0" fill="url(#shape_63_fill)"/>
    <path d="M 55.469566345214844 273.9145202636719 C 56.34964370727539 271.2188415527344 66.78370666503906 271.6776428222656 65.3642349243164 279.8363342285156 C 61.26374435424805 279.3359069824219 50.8696403503418 277.08489990234375 48.139015197753906 277.1009826660156 C 49.6286506652832 272.8374328613281 52.259586334228516 272.34295654296875 55.469566345214844 273.9145202636719" stroke-width="0.0" fill="url(#shape_64_fill)"/>
    <path d="M 304.26068115234375 438.4883117675781 C 304.425048828125 436.9787292480469 305.787353515625 436.0336608886719 313.1528015136719 436.8169860839844 C 314.79644775390625 438.9323425292969 313.2877502441406 441.7520751953125 311.6145324707031 444.0116271972656 C 307.8377990722656 445.4307556152344 306.8020324707031 444.261962890625 304.7433776855469 445.55657958984375 C 303.0820617675781 441.4295959472656 302.2759704589844 439.54388427734375 304.26068115234375 438.4883117675781" stroke-width="0.0" fill="url(#shape_65_fill)"/>
    <path d="M 0.9357770681381226 0.5239774584770203 C 223.51992797851562 -0.03401651233434677 444.3121643066406 -0.032080430537462234 673.6192016601562 0.5286083221435547 C 674.2033081054688 147.5772705078125 674.158935546875 293.5703125 673.4085083007812 445.44952392578125 C 450.5346374511719 446.15216064453125 229.98635864257812 446.16949462890625 0.5708113312721252 445.4403381347656 C -0.15497411787509918 297.9707946777344 -0.24069182574748993 151.3998565673828 0.9357770681381226 0.5239774584770203" stroke-width="0.0" fill="url(#shape_66_fill)"/>
    <path d="M 1.2029973268508911 0.6777250170707703 C 223.47604370117188 2.8984621167182922e-05 444.2354736328125 -0.022782091051340103 673.5306396484375 0.4866177439689636 C 674.1568603515625 147.76809692382812 674.0972900390625 293.33935546875 673.2486572265625 445.29351806640625 C 450.3351745605469 446.0283508300781 230.21641540527344 446.0549011230469 0.7055457234382629 445.2801818847656 C -0.07432498782873154 297.729248046875 -0.22429046034812927 150.8614501953125 1.2029973268508911 0.6777250170707703" stroke-width="0.0" fill="url(#shape_67_fill)"/>
    <path d="M 0.622437059879303 0.6269243955612183 C 223.49142456054688 0.06136544048786163 444.3194580078125 0.018450792878866196 673.529541015625 0.391137957572937 C 674.1549682617188 147.81527709960938 674.1018676757812 293.3466491699219 673.2476806640625 445.2777404785156 C 450.3352355957031 446.0386657714844 230.23216247558594 446.060546875 0.7481200695037842 445.2674255371094 C -0.0970962718129158 297.683349609375 -0.22001613676548004 150.81654357910156 0.622437059879303 0.6269243955612183" stroke-width="0.0" fill="url(#shape_68_fill)"/>
  </g>
</svg>
