<?xml version="1.0" ?>
<svg xmlns="http://www.w3.org/2000/svg" version="1.1" width="674" height="446">
  <defs>
    <radialGradient id="shape_0_fill" cx="0.5335692001025826" cy="0.7401207209702565" r="0.27960066979292236">
      <stop offset="0.7512" stop-color="rgb(160, 177, 0)" stop-opacity="0.8489319086074829"/>
      <stop offset="1.0" stop-color="rgb(49, 46, 0)" stop-opacity="1.0"/>
    </radialGradient>
    <radialGradient id="shape_1_fill" cx="0.5351891220500278" cy="0.7439898845860776" r="0.20641890619204376">
      <stop offset="0.51426315" stop-color="rgb(72, 72, 69)" stop-opacity="0.7772334814071655"/>
      <stop offset="1.0" stop-color="rgb(32, 13, 0)" stop-opacity="0.6237650513648987"/>
    </radialGradient>
    <radialGradient id="shape_2_fill" cx="0.09792273546892387" cy="0.7376672719091578" r="0.22062588021026522">
      <stop offset="0.0" stop-color="rgb(36, 96, 183)" stop-opacity="0.9558996558189392"/>
      <stop offset="0.98603314" stop-color="rgb(8, 101, 255)" stop-opacity="0.9204308390617371"/>
    </radialGradient>
    <radialGradient id="shape_3_fill" cx="0.27719313171567833" cy="0.215569106987239" r="0.12966685762037508">
      <stop offset="0.39658353" stop-color="rgb(135, 190, 3)" stop-opacity="0.7854323387145996"/>
      <stop offset="1.0" stop-color="rgb(37, 39, 0)" stop-opacity="0.9422640204429626"/>
    </radialGradient>
    <radialGradient id="shape_4_fill" cx="0.1543026706231454" cy="0.9977578475336323" r="0.10288926755639141">
      <stop offset="0.0" stop-color="rgb(81, 79, 86)" stop-opacity="1.0"/>
      <stop offset="1.0" stop-color="rgb(64, 62, 77)" stop-opacity="0.8914536833763123"/>
    </radialGradient>
    <radialGradient id="shape_5_fill" cx="0.14807964290992442" cy="0.23997249517740155" r="0.11810664960821587">
      <stop offset="0.0" stop-color="rgb(255, 255, 255)" stop-opacity="0.6465655565261841"/>
      <stop offset="0.5626593" stop-color="rgb(255, 255, 255)" stop-opacity="0.5542804598808289"/>
    </radialGradient>
    <radialGradient id="shape_6_fill" cx="0.18397626112759644" cy="0.9977578475336323" r="0.0754974885934892">
      <stop offset="0.0" stop-color="rgb(93, 90, 94)" stop-opacity="1.0"/>
      <stop offset="1.0" stop-color="rgb(144, 130, 132)" stop-opacity="0.9228593707084656"/>
    </radialGradient>
    <radialGradient id="shape_7_fill" cx="0.2893175074183976" cy="0.05829596412556054" r="0.08666390552011372">
      <stop offset="0.0" stop-color="rgb(55, 66, 29)" stop-opacity="1.0"/>
      <stop offset="1.0" stop-color="rgb(113, 130, 48)" stop-opacity="0.5468215346336365"/>
    </radialGradient>
    <radialGradient id="shape_8_fill" cx="0.3382789091115889" cy="0.9439461883408071" r="0.06756690277190167">
      <stop offset="0.0" stop-color="rgb(91, 124, 45)" stop-opacity="1.0"/>
      <stop offset="1.0" stop-color="rgb(113, 168, 52)" stop-opacity="0.6780727505683899"/>
    </radialGradient>
    <radialGradient id="shape_9_fill" cx="0.30712166172106825" cy="0.9977578475336323" r="0.0730758406641929">
      <stop offset="0.0" stop-color="rgb(38, 48, 20)" stop-opacity="1.0"/>
      <stop offset="1.0" stop-color="rgb(32, 33, 48)" stop-opacity="1.0"/>
    </radialGradient>
    <radialGradient id="shape_10_fill" cx="0.3056379821958457" cy="0.9977578475336323" r="0.06792919147615971">
      <stop offset="0.0" stop-color="rgb(39, 49, 21)" stop-opacity="1.0"/>
      <stop offset="1.0" stop-color="rgb(37, 20, 0)" stop-opacity="0.6785436272621155"/>
    </radialGradient>
    <radialGradient id="shape_11_fill" cx="0.21810089020771514" cy="0.968609865470852" r="0.06792919147615971">
      <stop offset="0.0" stop-color="rgb(138, 135, 129)" stop-opacity="1.0"/>
      <stop offset="1.0" stop-color="rgb(150, 117, 84)" stop-opacity="0.4641802906990051"/>
    </radialGradient>
    <radialGradient id="shape_12_fill" cx="0.29080118694362017" cy="0.9977578475336323" r="0.07480746985189285">
      <stop offset="0.0" stop-color="rgb(22, 25, 13)" stop-opacity="1.0"/>
      <stop offset="1.0" stop-color="rgb(38, 40, 9)" stop-opacity="0.9968147873878479"/>
    </radialGradient>
    <radialGradient id="shape_13_fill" cx="0.327893175074184" cy="0.8923766816143498" r="0.06900465877544279">
      <stop offset="0.0" stop-color="rgb(89, 117, 50)" stop-opacity="1.0"/>
      <stop offset="1.0" stop-color="rgb(100, 136, 8)" stop-opacity="0.6596531271934509"/>
    </radialGradient>
    <radialGradient id="shape_14_fill" cx="0.142433234421365" cy="0.9977578475336323" r="0.06617211022079875">
      <stop offset="0.0" stop-color="rgb(155, 150, 153)" stop-opacity="1.0"/>
      <stop offset="1.0" stop-color="rgb(255, 210, 193)" stop-opacity="0.22430624067783356"/>
    </radialGradient>
    <radialGradient id="shape_15_fill" cx="0.31008902077151335" cy="0.9977578475336323" r="0.06683642786405207">
      <stop offset="0.0" stop-color="rgb(43, 55, 23)" stop-opacity="1.0"/>
      <stop offset="1.0" stop-color="rgb(58, 68, 19)" stop-opacity="0.9354240298271179"/>
    </radialGradient>
    <radialGradient id="shape_16_fill" cx="0.27299703264094954" cy="0.9977578475336323" r="0.08110449363640579">
      <stop offset="0.0" stop-color="rgb(31, 35, 19)" stop-opacity="1.0"/>
      <stop offset="1.0" stop-color="rgb(30, 31, 0)" stop-opacity="0.9631285667419434"/>
    </radialGradient>
    <radialGradient id="shape_17_fill" cx="0.2893175074183976" cy="0.9977578475336323" r="0.07513486030193747">
      <stop offset="0.0" stop-color="rgb(22, 23, 13)" stop-opacity="1.0"/>
      <stop offset="1.0" stop-color="rgb(21, 19, 0)" stop-opacity="0.8502907156944275"/>
    </radialGradient>
    <radialGradient id="shape_18_fill" cx="0.3293768545994065" cy="0.7556053811659192" r="0.06617211022079875">
      <stop offset="0.0" stop-color="rgb(83, 108, 65)" stop-opacity="1.0"/>
      <stop offset="1.0" stop-color="rgb(109, 133, 60)" stop-opacity="0.9826666712760925"/>
    </radialGradient>
    <radialGradient id="shape_19_fill" cx="0.3516320474777448" cy="0.9977578475336323" r="0.06617211022079875">
      <stop offset="0.0" stop-color="rgb(95, 135, 39)" stop-opacity="1.0"/>
      <stop offset="1.0" stop-color="rgb(138, 201, 5)" stop-opacity="0.745024561882019"/>
    </radialGradient>
    <radialGradient id="shape_20_fill" cx="0.0830860534124629" cy="0.9977578475336323" r="0.06792919147615971">
      <stop offset="0.0" stop-color="rgb(49, 52, 66)" stop-opacity="1.0"/>
      <stop offset="1.0" stop-color="rgb(29, 17, 55)" stop-opacity="0.4024367928504944"/>
    </radialGradient>
    <radialGradient id="shape_21_fill" cx="0.29821958456973297" cy="0.9977578475336323" r="0.06792919147615971">
      <stop offset="0.0" stop-color="rgb(33, 40, 17)" stop-opacity="1.0"/>
      <stop offset="1.0" stop-color="rgb(42, 58, 0)" stop-opacity="0.7037243247032166"/>
    </radialGradient>
    <radialGradient id="shape_22_fill" cx="0.3563326600751113" cy="0.44372438849889645" r="0.06594546966099951">
      <stop offset="0.5237922" stop-color="rgb(104, 143, 31)" stop-opacity="0.966358482837677"/>
      <stop offset="0.3889746" stop-color="rgb(149, 183, 38)" stop-opacity="0.911298930644989"/>
    </radialGradient>
    <radialGradient id="shape_23_fill" cx="0.6454005934718101" cy="0.1412556053811659" r="0.06617211022079875">
      <stop offset="0.0" stop-color="rgb(46, 38, 13)" stop-opacity="1.0"/>
      <stop offset="1.0" stop-color="rgb(52, 31, 0)" stop-opacity="0.8827769756317139"/>
    </radialGradient>
    <radialGradient id="shape_24_fill" cx="0.24925573784802718" cy="0.484306609149471" r="0.06617016891343658">
      <stop offset="0.0" stop-color="rgb(201, 208, 205)" stop-opacity="0.9931139349937439"/>
      <stop offset="0.9444037" stop-color="rgb(255, 255, 255)" stop-opacity="0.5755389928817749"/>
    </radialGradient>
    <radialGradient id="shape_25_fill" cx="0.6320474777448071" cy="0.9977578475336323" r="0.06617211022079875">
      <stop offset="0.0" stop-color="rgb(35, 28, 8)" stop-opacity="1.0"/>
      <stop offset="1.0" stop-color="rgb(39, 16, 0)" stop-opacity="0.5641267895698547"/>
    </radialGradient>
    <radialGradient id="shape_26_fill" cx="0.15414520399506793" cy="0.3207086811151205" r="0.06604698362265567">
      <stop offset="0.11989566" stop-color="rgb(198, 211, 155)" stop-opacity="1.0"/>
      <stop offset="0.58338004" stop-color="rgb(115, 114, 250)" stop-opacity="0.014522983692586422"/>
    </radialGradient>
    <radialGradient id="shape_27_fill" cx="0.15410647972401242" cy="0.3208032787648017" r="0.06604505929465818">
      <stop offset="0.0" stop-color="rgb(192, 205, 0)" stop-opacity="1.0"/>
      <stop offset="0.49375948" stop-color="rgb(77, 73, 46)" stop-opacity="0.6156973242759705"/>
    </radialGradient>
    <radialGradient id="shape_28_fill" cx="0.036419619438556254" cy="0.01705283434401713" r="0.0688769173551384">
      <stop offset="0.13939454" stop-color="rgb(5, 28, 122)" stop-opacity="0.9768691658973694"/>
      <stop offset="0.79512006" stop-color="rgb(5, 27, 160)" stop-opacity="0.7457998394966125"/>
    </radialGradient>
    <radialGradient id="shape_29_fill" cx="0.33976258863681147" cy="0.6659192825112108" r="0.06617211022079875">
      <stop offset="0.0" stop-color="rgb(90, 117, 55)" stop-opacity="1.0"/>
      <stop offset="1.0" stop-color="rgb(109, 140, 28)" stop-opacity="0.876264750957489"/>
    </radialGradient>
    <radialGradient id="shape_30_fill" cx="0.03958090547284316" cy="0.016546222661108178" r="0.06871990351011915">
      <stop offset="0.22315265" stop-color="rgb(48, 74, 72)" stop-opacity="1.0"/>
      <stop offset="0.92334664" stop-color="rgb(59, 66, 6)" stop-opacity="0.5398095846176147"/>
    </radialGradient>
    <radialGradient id="shape_31_fill" cx="0.12314540059347182" cy="0.9977578475336323" r="0.06617211022079875">
      <stop offset="0.0" stop-color="rgb(95, 103, 98)" stop-opacity="1.0"/>
      <stop offset="1.0" stop-color="rgb(135, 126, 113)" stop-opacity="0.7416763305664062"/>
    </radialGradient>
    <radialGradient id="shape_32_fill" cx="0.4035608308605341" cy="0.984304932735426" r="0.06617211022079875">
      <stop offset="0.0" stop-color="rgb(126, 155, 63)" stop-opacity="1.0"/>
      <stop offset="1.0" stop-color="rgb(137, 126, 29)" stop-opacity="0.9914426207542419"/>
    </radialGradient>
    <radialGradient id="shape_33_fill" cx="0.3249258160237389" cy="0.6053811659192825" r="0.06617211022079875">
      <stop offset="0.0" stop-color="rgb(93, 124, 71)" stop-opacity="1.0"/>
      <stop offset="1.0" stop-color="rgb(126, 152, 57)" stop-opacity="1.0"/>
    </radialGradient>
    <radialGradient id="shape_34_fill" cx="0.6468842729970327" cy="0.531390134529148" r="0.06617211022079875">
      <stop offset="0.0" stop-color="rgb(54, 47, 24)" stop-opacity="1.0"/>
      <stop offset="1.0" stop-color="rgb(50, 16, 23)" stop-opacity="0.40907517075538635"/>
    </radialGradient>
    <radialGradient id="shape_35_fill" cx="0.1473938463703461" cy="0.23995345590360495" r="0.06949217029424379">
      <stop offset="0.08055633" stop-color="rgb(197, 255, 83)" stop-opacity="0.1679881513118744"/>
      <stop offset="0.5722426" stop-color="rgb(107, 85, 61)" stop-opacity="0.8074838519096375"/>
    </radialGradient>
    <radialGradient id="shape_36_fill" cx="0.2878338278931751" cy="0.9977578475336323" r="0.06617211022079875">
      <stop offset="0.0" stop-color="rgb(80, 96, 53)" stop-opacity="1.0"/>
      <stop offset="1.0" stop-color="rgb(34, 35, 0)" stop-opacity="0.7797235250473022"/>
    </radialGradient>
    <radialGradient id="shape_37_fill" cx="0.129080118694362" cy="0.9977578475336323" r="0.06617211022079875">
      <stop offset="0.0" stop-color="rgb(87, 97, 81)" stop-opacity="1.0"/>
      <stop offset="1.0" stop-color="rgb(66, 76, 55)" stop-opacity="0.5957640409469604"/>
    </radialGradient>
    <radialGradient id="shape_38_fill" cx="0.33892324204260943" cy="0.5607740119968294" r="0.0666785763703751">
      <stop offset="0.7501433" stop-color="rgb(83, 112, 21)" stop-opacity="0.9110908508300781"/>
      <stop offset="0.6022492" stop-color="rgb(169, 255, 79)" stop-opacity="0.8870640993118286"/>
    </radialGradient>
    <radialGradient id="shape_39_fill" cx="0.40059347181008903" cy="0.9641255605381166" r="0.06617211022079875">
      <stop offset="0.0" stop-color="rgb(138, 168, 60)" stop-opacity="1.0"/>
      <stop offset="1.0" stop-color="rgb(214, 255, 82)" stop-opacity="1.0"/>
    </radialGradient>
    <radialGradient id="shape_40_fill" cx="0.6128563583781528" cy="0.8777073060450532" r="0.07016468897063938">
      <stop offset="0.37696272" stop-color="rgb(153, 139, 157)" stop-opacity="0.3738921284675598"/>
      <stop offset="0.50116485" stop-color="rgb(0, 14, 70)" stop-opacity="0.9796031713485718"/>
    </radialGradient>
    <radialGradient id="shape_41_fill" cx="0.6454005934718101" cy="0.08744394618834081" r="0.06617211022079875">
      <stop offset="0.0" stop-color="rgb(58, 48, 21)" stop-opacity="1.0"/>
      <stop offset="1.0" stop-color="rgb(90, 63, 19)" stop-opacity="1.0"/>
    </radialGradient>
    <radialGradient id="shape_42_fill" cx="0.5845697329376854" cy="0.6188340807174888" r="0.06617211022079875">
      <stop offset="0.0" stop-color="rgb(62, 59, 56)" stop-opacity="1.0"/>
      <stop offset="1.0" stop-color="rgb(36, 32, 80)" stop-opacity="0.5971548557281494"/>
    </radialGradient>
    <radialGradient id="shape_43_fill" cx="0.35520108729512473" cy="0.5023993932612808" r="0.06946120559284878">
      <stop offset="0.24794437" stop-color="rgb(119, 159, 49)" stop-opacity="0.9167943596839905"/>
      <stop offset="0.58287776" stop-color="rgb(203, 255, 29)" stop-opacity="0.8382863998413086"/>
    </radialGradient>
    <radialGradient id="shape_44_fill" cx="0.5934718100890207" cy="0.9977578475336323" r="0.06617211022079875">
      <stop offset="0.0" stop-color="rgb(89, 61, 18)" stop-opacity="1.0"/>
      <stop offset="1.0" stop-color="rgb(163, 82, 1)" stop-opacity="0.7395789623260498"/>
    </radialGradient>
    <radialGradient id="shape_45_fill" cx="0.612759643916914" cy="0.04035874439461883" r="0.06617211022079875">
      <stop offset="0.0" stop-color="rgb(157, 136, 123)" stop-opacity="1.0"/>
      <stop offset="1.0" stop-color="rgb(255, 223, 203)" stop-opacity="1.0"/>
    </radialGradient>
    <radialGradient id="shape_46_fill" cx="0.28635014836795253" cy="0.9977578475336323" r="0.06617211022079875">
      <stop offset="0.0" stop-color="rgb(82, 99, 55)" stop-opacity="1.0"/>
      <stop offset="1.0" stop-color="rgb(91, 106, 26)" stop-opacity="0.5780321359634399"/>
    </radialGradient>
    <radialGradient id="shape_47_fill" cx="0.28635014836795253" cy="0.8183856502242153" r="0.06617211022079875">
      <stop offset="0.0" stop-color="rgb(166, 189, 197)" stop-opacity="1.0"/>
      <stop offset="1.0" stop-color="rgb(254, 255, 255)" stop-opacity="0.4572592079639435"/>
    </radialGradient>
    <radialGradient id="shape_48_fill" cx="0.40801186943620177" cy="0.9977578475336323" r="0.06617211022079875">
      <stop offset="0.0" stop-color="rgb(107, 135, 68)" stop-opacity="1.0"/>
      <stop offset="1.0" stop-color="rgb(128, 144, 55)" stop-opacity="1.0"/>
    </radialGradient>
    <radialGradient id="shape_49_fill" cx="0.19287833827893175" cy="0.3991031390134529" r="0.06617211022079875">
      <stop offset="0.0" stop-color="rgb(92, 100, 54)" stop-opacity="1.0"/>
      <stop offset="1.0" stop-color="rgb(59, 37, 0)" stop-opacity="0.5209180116653442"/>
    </radialGradient>
    <radialGradient id="shape_50_fill" cx="0.6439169139465876" cy="0.7376681614349776" r="0.06617211022079875">
      <stop offset="0.0" stop-color="rgb(65, 56, 25)" stop-opacity="1.0"/>
      <stop offset="1.0" stop-color="rgb(149, 188, 103)" stop-opacity="0.43645843863487244"/>
    </radialGradient>
    <radialGradient id="shape_51_fill" cx="0.5845697329376854" cy="0.6322869955156951" r="0.06617211022079875">
      <stop offset="0.0" stop-color="rgb(75, 68, 60)" stop-opacity="1.0"/>
      <stop offset="1.0" stop-color="rgb(146, 114, 91)" stop-opacity="0.6446098685264587"/>
    </radialGradient>
    <radialGradient id="shape_52_fill" cx="0.2997032640949555" cy="0.6031390134529148" r="0.06617211022079875">
      <stop offset="0.0" stop-color="rgb(107, 158, 118)" stop-opacity="1.0"/>
      <stop offset="1.0" stop-color="rgb(179, 255, 236)" stop-opacity="0.5346952676773071"/>
    </radialGradient>
    <radialGradient id="shape_53_fill" cx="0.6097922848664689" cy="0.45067264573991034" r="0.06617211022079875">
      <stop offset="0.0" stop-color="rgb(38, 39, 27)" stop-opacity="1.0"/>
      <stop offset="1.0" stop-color="rgb(19, 14, 51)" stop-opacity="0.36235281825065613"/>
    </radialGradient>
    <radialGradient id="shape_54_fill" cx="0.6335311572700296" cy="0.426009002822397" r="0.06617211022079875">
      <stop offset="0.0" stop-color="rgb(67, 49, 20)" stop-opacity="1.0"/>
      <stop offset="1.0" stop-color="rgb(141, 80, 22)" stop-opacity="0.6288303136825562"/>
    </radialGradient>
    <radialGradient id="shape_55_fill" cx="0.3707168533823257" cy="0.5988430827187851" r="0.066001377049115">
      <stop offset="0.43605936" stop-color="rgb(237, 255, 41)" stop-opacity="0.8458707928657532"/>
      <stop offset="0.16089156" stop-color="rgb(203, 255, 0)" stop-opacity="0.7241296768188477"/>
    </radialGradient>
    <radialGradient id="shape_56_fill" cx="0.5489614243323442" cy="0.600896860986547" r="0.06617211022079875">
      <stop offset="0.0" stop-color="rgb(50, 62, 80)" stop-opacity="1.0"/>
      <stop offset="1.0" stop-color="rgb(28, 77, 233)" stop-opacity="0.44054242968559265"/>
    </radialGradient>
    <radialGradient id="shape_57_fill" cx="0.4094955489614243" cy="0.9035874439461884" r="0.06617211022079875">
      <stop offset="0.0" stop-color="rgb(111, 144, 47)" stop-opacity="1.0"/>
      <stop offset="1.0" stop-color="rgb(196, 254, 38)" stop-opacity="0.7292876839637756"/>
    </radialGradient>
    <radialGradient id="shape_58_fill" cx="0.5281899109792285" cy="0.9977578475336323" r="0.06617211022079875">
      <stop offset="0.0" stop-color="rgb(50, 43, 14)" stop-opacity="1.0"/>
      <stop offset="1.0" stop-color="rgb(77, 57, 8)" stop-opacity="1.0"/>
    </radialGradient>
    <radialGradient id="shape_59_fill" cx="0.5845697329376854" cy="0.7690582959641256" r="0.06617211022079875">
      <stop offset="0.0" stop-color="rgb(61, 63, 58)" stop-opacity="1.0"/>
      <stop offset="1.0" stop-color="rgb(78, 75, 94)" stop-opacity="0.7086883187294006"/>
    </radialGradient>
    <radialGradient id="shape_60_fill" cx="0.5489614243323442" cy="0.9977578475336323" r="0.06617211022079875">
      <stop offset="0.0" stop-color="rgb(140, 131, 64)" stop-opacity="1.0"/>
      <stop offset="1.0" stop-color="rgb(234, 206, 90)" stop-opacity="0.9122844934463501"/>
    </radialGradient>
    <radialGradient id="shape_61_fill" cx="0.6469707998394613" cy="0.96866973740103" r="0.06610496249326259">
      <stop offset="0.46305665" stop-color="rgb(255, 219, 63)" stop-opacity="1.0"/>
      <stop offset="0.21629497" stop-color="rgb(223, 154, 25)" stop-opacity="0.7617073655128479"/>
    </radialGradient>
    <radialGradient id="shape_62_fill" cx="0.615727002967359" cy="0.3991031390134529" r="0.06617211022079875">
      <stop offset="0.0" stop-color="rgb(55, 47, 13)" stop-opacity="1.0"/>
      <stop offset="1.0" stop-color="rgb(76, 53, 0)" stop-opacity="0.9971150755882263"/>
    </radialGradient>
    <radialGradient id="shape_63_fill" cx="0.6261127596439169" cy="0.7286995515695067" r="0.06617211022079875">
      <stop offset="0.0" stop-color="rgb(79, 66, 32)" stop-opacity="1.0"/>
      <stop offset="1.0" stop-color="rgb(194, 202, 107)" stop-opacity="0.601692259311676"/>
    </radialGradient>
    <radialGradient id="shape_64_fill" cx="0.40801186943620177" cy="0.12556053811659193" r="0.06617211022079875">
      <stop offset="0.0" stop-color="rgb(76, 66, 59)" stop-opacity="1.0"/>
      <stop offset="1.0" stop-color="rgb(112, 84, 78)" stop-opacity="1.0"/>
    </radialGradient>
    <radialGradient id="shape_65_fill" cx="0.6528189910979229" cy="0.6883408071748879" r="0.06617211022079875">
      <stop offset="0.0" stop-color="rgb(121, 97, 39)" stop-opacity="1.0"/>
      <stop offset="1.0" stop-color="rgb(255, 242, 96)" stop-opacity="1.0"/>
    </radialGradient>
    <radialGradient id="shape_66_fill" cx="0.6525298891152401" cy="0.45964768756130886" r="0.07013864262521444">
      <stop offset="0.24320059" stop-color="rgb(165, 200, 115)" stop-opacity="0.30117708444595337"/>
      <stop offset="0.945675" stop-color="rgb(0, 0, 0)" stop-opacity="0.0530112162232399"/>
    </radialGradient>
    <radialGradient id="shape_67_fill" cx="0.5962508113872403" cy="0.9950731901844521" r="0.0697993156817971">
      <stop offset="0.8452363" stop-color="rgb(53, 30, 0)" stop-opacity="0.7099006772041321"/>
      <stop offset="1.0" stop-color="rgb(0, 0, 0)" stop-opacity="0.1529679000377655"/>
    </radialGradient>
    <radialGradient id="shape_68_fill" cx="0.49048041731384456" cy="0.9968326038309276" r="0.06808803343277657">
      <stop offset="0.36232963" stop-color="rgb(48, 20, 0)" stop-opacity="0.5593348145484924"/>
      <stop offset="1.0" stop-color="rgb(36, 62, 55)" stop-opacity="0.21819083392620087"/>
    </radialGradient>
  </defs>
  <g>
    <path d="M -0.32239198684692383 271.094970703125 C 25.399341583251953 264.5074157714844 38.3496208190918 266.3415832519531 45.74563217163086 272.29656982421875 C 48.128868103027344 274.0311584472656 49.36052322387695 276.2481994628906 57.08883285522461 274.48455810546875 C 59.567203521728516 273.7882995605469 63.28748321533203 274.26361083984375 64.13516235351562 271.04095458984375 C 69.1969985961914 269.0610046386719 99.85189819335938 270.4220886230469 116.76834106445312 270.67877197265625 C 120.50049591064453 270.99786376953125 124.62232971191406 278.1517333984375 126.16407012939453 282.3855895996094 C 132.33863830566406 282.7760009765625 141.84622192382812 281.527587890625 161.71908569335938 288.4700927734375 C 185.26995849609375 282.5836181640625 185.8446807861328 282.30126953125 206.70751953125 287.2958068847656 C 200.213134765625 287.4838562011719 198.26898193359375 281.5469055175781 210.9425048828125 269.33111572265625 C 247.37045288085938 268.84649658203125 290.8496398925781 267.2367248535156 313.3592834472656 273.9014892578125 C 348.7884826660156 275.58111572265625 425.7083435058594 276.1554870605469 471.02813720703125 270.142578125 C 500.27301025390625 266.6883850097656 546.97021484375 267.347900390625 546.9844970703125 276.3784484863281 C 548.164794921875 275.2904357910156 548.8491821289062 269.3759460449219 573.7835693359375 267.0902404785156 C 589.2483520507812 271.48675537109375 612.0640869140625 281.7383728027344 612.7801513671875 281.85711669921875 C 621.1741943359375 268.92034912109375 630.4849853515625 267.85693359375 673.2337646484375 267.07342529296875 C 676.5662841796875 272.3746337890625 679.3508911132812 278.8377685546875 678.4672241210938 284.90460205078125 C 676.615478515625 339.5222473144531 674.7171020507812 391.4941101074219 675.1177368164062 446.4668273925781 C 451.9151306152344 446.6697692871094 228.9889373779297 446.8115539550781 -0.472472608089447 446.4240417480469 C -0.45399966835975647 389.14483642578125 -0.17555484175682068 332.3588562011719 -0.32239198684692383 271.094970703125" stroke-width="0.0" fill="url(#shape_0_fill)"/>
    <path d="M 0.022092266008257866 271.041015625 C 35.93355941772461 275.39508056640625 36.5576057434082 274.5872802734375 44.22477722167969 274.01873779296875 C 46.996700286865234 266.9574279785156 59.43417739868164 266.4517517089844 78.24264526367188 268.0313415527344 C 113.5639877319336 278.68035888671875 114.04273223876953 279.3109130859375 127.65092468261719 279.0199890136719 C 127.81551361083984 271.21588134765625 138.97352600097656 269.5563659667969 145.1167449951172 269.6424560546875 C 185.22113037109375 268.3331298828125 185.9322509765625 269.7020568847656 203.10784912109375 273.8009033203125 C 203.1256561279297 292.05133056640625 204.11355590820312 292.34228515625 211.0669708251953 297.99224853515625 C 214.16476440429688 297.2726745605469 266.240234375 299.4872741699219 288.04296875 300.9745788574219 C 316.5948791503906 303.8755798339844 447.5966491699219 302.1007385253906 462.0303039550781 303.2304382324219 C 480.00299072265625 294.5339660644531 490.92669677734375 291.8194274902344 503.9711608886719 287.0113525390625 C 511.82147216796875 288.3581848144531 520.765380859375 286.56103515625 522.9427490234375 286.5079650878906 C 527.4611206054688 285.7128601074219 531.7930908203125 285.9415588378906 534.8091430664062 287.13995361328125 C 541.3207397460938 287.0635681152344 543.9902954101562 288.3592224121094 552.31982421875 303.0446472167969 C 579.337646484375 290.09381103515625 581.5574340820312 290.6288757324219 597.4005126953125 295.45123291015625 C 614.81689453125 289.17266845703125 625.04345703125 288.0919494628906 633.8592529296875 288.50970458984375 C 642.8762817382812 277.6934509277344 655.643798828125 281.94403076171875 673.7827758789062 291.7552490234375 C 674.1365356445312 340.3444519042969 674.4777221679688 392.1578674316406 674.1566772460938 446.2807922363281 C 451.4774169921875 446.3905334472656 229.19664001464844 446.25439453125 -0.3076566159725189 446.2476501464844 C -0.2135845273733139 389.4035949707031 -0.29431450366973877 333.02740478515625 0.022092266008257866 271.041015625" stroke-width="0.0" fill="url(#shape_1_fill)"/>
    <path d="M -0.019932541996240616 -0.25989267230033875 C 219.69313049316406 0.1040392518043518 439.478759765625 -0.45242562890052795 672.6723022460938 -0.1606624722480774 C 666.0753784179688 11.057906150817871 644.804443359375 35.375064849853516 637.7238159179688 48.58937454223633 C 634.4829711914062 53.23629379272461 611.0101928710938 93.03390502929688 584.4252319335938 83.9810791015625 C 577.8069458007812 81.52197265625 561.3433227539062 71.17312622070312 532.6821899414062 73.74101257324219 C 531.9105834960938 77.78942108154297 525.298095703125 79.187255859375 522.292724609375 72.05030822753906 C 522.647216796875 68.87672424316406 499.386474609375 63.87326431274414 499.3550720214844 62.65557098388672 C 492.9815979003906 62.1484489440918 485.9755859375 60.995731353759766 484.5851135253906 68.6423110961914 C 475.24566650390625 72.69390106201172 476.1076354980469 75.8283920288086 477.0552062988281 83.41188049316406 C 485.25921630859375 99.55595397949219 478.4114685058594 117.8610610961914 475.2538146972656 121.03834533691406 C 460.4708251953125 117.44223022460938 459.15582275390625 113.78767395019531 450.00433349609375 108.31715393066406 C 435.1889953613281 107.89521789550781 411.7231140136719 102.18366241455078 410.0662841796875 105.14993286132812 C 413.9979553222656 120.16629791259766 418.25164794921875 127.2411117553711 414.763671875 139.0546417236328 C 409.9784851074219 150.5327606201172 397.6495056152344 150.04519653320312 393.8182067871094 136.2708282470703 C 381.4698181152344 142.21823120117188 376.8645324707031 158.2747039794922 369.04034423828125 157.46603393554688 C 366.4774169921875 155.82334899902344 363.97833251953125 159.48155212402344 358.3360595703125 163.58242797851562 C 354.01483154296875 166.9734649658203 350.8023681640625 167.17897033691406 350.2133483886719 172.83761596679688 C 345.29840087890625 179.81842041015625 337.847412109375 174.69085693359375 342.2158203125 165.59922790527344 C 299.8675537109375 163.46258544921875 298.57647705078125 170.1075897216797 296.53350830078125 177.9525909423828 C 304.7872314453125 186.660888671875 303.9289245605469 191.07882690429688 307.4779052734375 201.50436401367188 C 307.50115966796875 200.64703369140625 306.1385498046875 198.1449432373047 304.0621032714844 190.1038818359375 C 304.8885803222656 185.69619750976562 303.8895568847656 185.16749572753906 289.84283447265625 174.60372924804688 C 289.68359375 194.56016540527344 289.12786865234375 195.97137451171875 289.4217834472656 196.29299926757812 C 289.1575622558594 189.93997192382812 290.5173034667969 182.0983428955078 289.2076721191406 174.49267578125 C 272.1522521972656 177.07374572753906 268.91192626953125 182.18539428710938 261.5481872558594 177.62481689453125 C 255.75006103515625 183.08782958984375 255.6188201904297 188.3963165283203 254.61183166503906 197.35302734375 C 260.7202453613281 199.33348083496094 260.5592346191406 199.92642211914062 257.81036376953125 199.56849670410156 C 257.1726989746094 198.45657348632812 253.8057403564453 195.7458038330078 254.8193359375 193.8423614501953 C 255.64537048339844 184.50071716308594 260.52642822265625 182.69241333007812 258.2555236816406 166.55413818359375 C 259.6051330566406 162.17161560058594 216.30209350585938 142.12332153320312 213.47720336914062 140.7362823486328 C 186.1962890625 131.87960815429688 195.1658935546875 104.33570861816406 191.64678955078125 86.82369995117188 C 191.66464233398438 84.57628631591797 161.2721710205078 73.67830657958984 131.5546875 59.2803955078125 C 107.67656707763672 39.55799102783203 73.13431549072266 57.03791427612305 41.55923843383789 59.91395950317383 C 26.439146041870117 70.05777740478516 3.7086260318756104 69.63982391357422 -1.1546742916107178 69.52921295166016 C 0.34183040261268616 43.958133697509766 -0.3314551115036011 22.56187629699707 -0.019932541996240616 -0.25989267230033875" stroke-width="0.0" fill="url(#shape_2_fill)"/>
    <path d="M 86.82291412353516 59.01804733276367 C 89.17054748535156 68.79950714111328 91.61566925048828 69.05596923828125 93.65470886230469 71.21858978271484 C 90.9494857788086 79.95851135253906 91.61730194091797 81.66665649414062 89.60433959960938 92.9869155883789 C 96.3903579711914 86.22592163085938 98.40898132324219 86.45833587646484 102.92755126953125 87.85049438476562 C 104.80655670166016 75.23721313476562 105.84849548339844 73.36334228515625 108.24874114990234 73.29657745361328 C 112.46663665771484 87.53514099121094 110.6010513305664 93.41230773925781 116.65210723876953 99.2679443359375 C 116.35307312011719 100.05191040039062 116.257080078125 109.22622680664062 115.55726623535156 115.33209991455078 C 123.25448608398438 115.35895538330078 128.49302673339844 115.8215103149414 129.49285888671875 112.15448760986328 C 130.73599243164062 110.17066955566406 136.77389526367188 109.02110290527344 136.57411193847656 104.7601318359375 C 136.64324951171875 103.6778335571289 135.56027221679688 101.82508087158203 137.3934783935547 98.61676025390625 C 136.4937286376953 93.27176666259766 137.5256805419922 92.90143585205078 137.55645751953125 89.39202117919922 C 137.34620666503906 85.25222778320312 138.60845947265625 84.75384521484375 139.65167236328125 87.4059829711914 C 140.2787322998047 83.07574462890625 146.74696350097656 80.6958999633789 148.150390625 82.874267578125 C 148.6005096435547 93.2448501586914 150.02626037597656 94.5536117553711 152.10037231445312 99.15214538574219 C 153.59487915039062 102.93294525146484 149.92376708984375 106.91696166992188 148.8456573486328 106.73470306396484 C 152.5512237548828 109.76158905029297 150.392578125 114.0815658569336 148.4234161376953 113.37101745605469 C 154.41104125976562 112.83563995361328 157.9485626220703 122.58929443359375 157.14141845703125 123.30532836914062 C 161.26840209960938 125.03145599365234 164.9275665283203 123.4625473022461 169.64273071289062 122.70712280273438 C 174.3916473388672 119.73098754882812 175.7846221923828 121.51367950439453 177.70562744140625 122.49849700927734 C 179.3369903564453 122.68695831298828 180.02212524414062 125.18840026855469 183.2449493408203 127.57319641113281 C 183.870361328125 130.17271423339844 182.50120544433594 133.05661010742188 184.3640594482422 135.1503143310547 C 187.5546875 135.16229248046875 187.80335998535156 141.8939208984375 188.6941375732422 145.4330291748047 C 196.2984619140625 146.2110137939453 207.60293579101562 152.4344024658203 201.80270385742188 172.641357421875 C 205.30519104003906 176.89588928222656 206.06695556640625 178.62535095214844 205.37803649902344 181.43203735351562 C 214.22708129882812 181.33560180664062 214.79083251953125 195.01063537597656 212.4635467529297 202.0131378173828 C 204.86395263671875 206.49288940429688 203.1970977783203 206.8636016845703 203.1549835205078 210.26051330566406 C 200.73045349121094 210.51498413085938 199.97012329101562 211.70571899414062 200.09329223632812 213.45733642578125 C 196.24281311035156 215.2318878173828 193.332275390625 215.30294799804688 192.0437469482422 219.6984405517578 C 184.2833251953125 220.85472106933594 183.59857177734375 224.74130249023438 178.4342041015625 230.09197998046875 C 176.41748046875 233.52783203125 180.75408935546875 238.9127655029297 180.9113006591797 240.0011444091797 C 182.33363342285156 251.7873077392578 185.7784423828125 260.8023376464844 178.9093475341797 264.8193664550781 C 173.33624267578125 268.13525390625 148.7236328125 268.2825622558594 135.68478393554688 269.6259765625 C 131.54891967773438 269.0406494140625 129.17274475097656 272.3224182128906 122.41193389892578 275.5897521972656 C 109.15975952148438 276.8804016113281 73.29808807373047 276.01312255859375 73.01559448242188 270.05615234375 C 47.70370864868164 266.7765808105469 56.5582275390625 268.5726318359375 57.671566009521484 273.5676574707031 C 48.36604690551758 276.3658752441406 1.053026556968689 272.7403564453125 0.7912763357162476 270.17596435546875 C -5.889652729034424 224.54226684570312 -5.731923580169678 166.3263702392578 2.3116655349731445 122.0569839477539 C 11.15665054321289 118.25865936279297 21.553104400634766 113.88640594482422 26.155792236328125 121.8111572265625 C 26.903209686279297 129.8021697998047 35.607505798339844 129.06625366210938 41.92200469970703 131.75607299804688 C 46.51731872558594 130.4424591064453 48.045127868652344 130.6968231201172 49.51368713378906 142.19422912597656 C 50.3301887512207 148.7728729248047 61.41617202758789 148.80816650390625 62.7592887878418 146.24859619140625 C 62.20537185668945 136.8555450439453 63.093711853027344 133.99618530273438 62.13844680786133 128.2932586669922 C 68.27799224853516 126.67321014404297 67.67059326171875 123.70032501220703 66.32526397705078 112.52362060546875 C 67.87152862548828 111.10111999511719 68.36314392089844 106.16802978515625 75.95352935791016 102.75851440429688 C 73.92322540283203 100.92638397216797 78.12763977050781 91.56552124023438 77.2635269165039 85.70760345458984 C 77.23944854736328 83.67135620117188 77.73416900634766 74.95232391357422 85.26844787597656 75.3407211303711 C 83.0627670288086 70.15573120117188 82.90509796142578 67.5390396118164 86.82291412353516 59.01804733276367" stroke-width="0.0" fill="url(#shape_3_fill)"/>
    <path d="M 674.0774536132812 -0.6924396753311157 C 676.1160888671875 47.826385498046875 675.0172119140625 95.90823364257812 680.306640625 138.93524169921875 C 678.0885009765625 124.75688934326172 669.7847290039062 122.6302490234375 661.6409912109375 120.12090301513672 C 660.8397827148438 120.10157775878906 655.0574340820312 109.39950561523438 649.8938598632812 110.92388916015625 C 648.8958129882812 112.53981018066406 645.3159790039062 149.5616455078125 642.8563232421875 155.66683959960938 C 629.8408203125 154.60171508789062 626.8220825195312 142.95872497558594 627.0680541992188 138.52565002441406 C 623.0352783203125 137.44471740722656 618.980712890625 145.35256958007812 615.42822265625 144.11117553710938 C 611.6814575195312 142.31483459472656 610.1585693359375 143.3365936279297 607.7803344726562 141.07119750976562 C 608.925048828125 137.73521423339844 612.6737670898438 132.9788818359375 606.6648559570312 119.57559204101562 C 598.3848876953125 134.10275268554688 597.5382690429688 139.3443145751953 594.0963745117188 142.77984619140625 C 599.5464477539062 145.83799743652344 597.5845336914062 151.26412963867188 597.4384765625 152.17822265625 C 588.7354125976562 157.68582153320312 587.8380737304688 164.47914123535156 578.4662475585938 172.39256286621094 C 572.007080078125 170.2694854736328 569.920654296875 158.17642211914062 568.6165161132812 157.0960693359375 C 565.7094116210938 157.75486755371094 563.46337890625 153.6988525390625 561.7622680664062 151.3087921142578 C 560.0921630859375 150.6619415283203 556.1334228515625 150.9453125 555.742431640625 155.96441650390625 C 551.8966064453125 156.10340881347656 550.3505249023438 158.7760467529297 548.8154907226562 158.54525756835938 C 547.7453002929688 156.47015380859375 544.5254516601562 155.9938507080078 536.1665649414062 153.61622619628906 C 531.78857421875 154.9029541015625 529.96923828125 158.83154296875 523.1087036132812 156.8646697998047 C 519.27685546875 160.51321411132812 520.3052368164062 162.15631103515625 522.9830322265625 169.24017333984375 C 517.61474609375 168.45127868652344 517.2303466796875 170.9475555419922 516.276123046875 171.65704345703125 C 511.2713623046875 173.32232666015625 509.8157043457031 175.26531982421875 505.64080810546875 174.399169921875 C 502.7664489746094 171.40304565429688 503.0218811035156 169.51678466796875 502.8800354003906 159.20408630371094 C 492.2951965332031 145.25399780273438 506.9230041503906 121.56261444091797 518.1199951171875 126.56780242919922 C 523.6828002929688 125.23042297363281 540.1152954101562 110.1406478881836 548.8073120117188 112.98857116699219 C 557.2469482421875 110.71852111816406 556.906005859375 109.3828125 558.3150024414062 107.6630630493164 C 559.599609375 108.38611602783203 564.89013671875 102.73434448242188 570.4049682617188 104.9809799194336 C 574.6099853515625 102.4498062133789 573.4533081054688 97.49954986572266 579.0061645507812 94.08624267578125 C 585.6692504882812 88.50780487060547 594.8799438476562 77.55625915527344 613.2442016601562 78.31157684326172 C 616.9031372070312 73.58439636230469 644.992431640625 51.189456939697266 645.5224609375 35.50697708129883 C 644.976318359375 32.44505310058594 647.9981689453125 30.392118453979492 647.6312255859375 29.533466339111328 C 646.9476318359375 28.29083251953125 664.2719116210938 -4.195035457611084 674.0774536132812 -0.6924396753311157" stroke-width="0.0" fill="url(#shape_4_fill)"/>
    <path d="M 151.55897521972656 68.52816772460938 C 152.3074188232422 69.07417297363281 186.44564819335938 84.5100326538086 192.6798858642578 92.78402709960938 C 179.28060913085938 118.1532211303711 217.67889404296875 150.0768280029297 220.87466430664062 154.90228271484375 C 238.85775756835938 170.0675506591797 241.98318481445312 184.16744995117188 240.8147430419922 193.86532592773438 C 238.10101318359375 193.20108032226562 236.1663360595703 186.54808044433594 236.77035522460938 184.06292724609375 C 235.68362426757812 183.55543518066406 234.15638732910156 184.302490234375 231.07177734375 182.69879150390625 C 231.2999267578125 183.91065979003906 232.07203674316406 194.0566864013672 228.63499450683594 195.6683807373047 C 227.59402465820312 196.63609313964844 227.236328125 205.37744140625 221.3371124267578 207.69305419921875 C 215.08973693847656 206.5855712890625 214.31912231445312 197.8245391845703 214.65615844726562 194.883544921875 C 212.95960998535156 185.43858337402344 211.896240234375 184.9475555419922 206.5176239013672 177.41905212402344 C 205.85784912109375 173.0242919921875 206.00096130371094 166.65252685546875 204.1844940185547 159.12283325195312 C 206.2069549560547 153.36654663085938 194.8514862060547 144.677490234375 193.39352416992188 141.189697265625 C 189.0904083251953 140.22409057617188 188.8817596435547 137.2303009033203 186.57675170898438 135.7938690185547 C 178.2731170654297 133.29867553710938 178.96226501464844 127.00597381591797 183.32058715820312 117.2690200805664 C 179.39002990722656 116.4546127319336 177.39683532714844 117.65435028076172 172.9451446533203 117.76505279541016 C 179.3018798828125 128.1446075439453 175.80831909179688 130.9319305419922 151.90530395507812 130.33616638183594 C 149.6107635498047 127.71306610107422 151.51498413085938 102.47762298583984 154.03347778320312 94.55889892578125 C 152.862060546875 89.04363250732422 153.36570739746094 87.22113037109375 149.98446655273438 76.2972412109375 C 148.09991455078125 75.91075134277344 148.46360778808594 69.2731704711914 151.55897521972656 68.52816772460938" stroke-width="0.0" fill="url(#shape_5_fill)"/>
    <path d="M 611.3627319335938 81.46278381347656 C 618.7142333984375 84.11280822753906 619.6539916992188 86.19880676269531 631.3961791992188 85.63072204589844 C 636.0862426757812 86.04348754882812 637.0968017578125 88.18732452392578 641.1852416992188 89.39892578125 C 642.1614990234375 87.2235107421875 666.786376953125 92.36576843261719 674.8599853515625 98.4547119140625 C 675.4041137695312 110.6224594116211 674.7947387695312 125.90708923339844 675.3167724609375 150.9205780029297 C 665.8873901367188 142.48052978515625 662.8219604492188 136.66409301757812 658.6838989257812 131.78692626953125 C 659.5868530273438 122.05328369140625 660.673828125 116.455078125 652.9348754882812 112.30109405517578 C 645.543701171875 113.67500305175781 644.437744140625 142.28256225585938 642.4137573242188 143.03985595703125 C 643.901123046875 144.7246551513672 642.6563110351562 148.26499938964844 644.1107788085938 150.40951538085938 C 639.9497680664062 150.83518981933594 637.923095703125 152.80575561523438 634.8778686523438 153.41038513183594 C 631.5426025390625 146.25064086914062 629.1893310546875 141.39447021484375 630.087646484375 140.53538513183594 C 628.8521728515625 137.74246215820312 622.0014038085938 137.035400390625 620.8850708007812 138.8651580810547 C 618.29296875 140.58689880371094 619.3865356445312 142.3698272705078 618.4682006835938 148.02198791503906 C 614.2377319335938 144.6573486328125 613.452392578125 143.1991424560547 609.9862670898438 143.68902587890625 C 608.517822265625 140.40725708007812 609.5750732421875 139.24281311035156 609.1528930664062 137.34396362304688 C 606.5402221679688 132.2476348876953 605.0481567382812 126.67568969726562 598.8368530273438 128.2801055908203 C 605.6182250976562 133.4737091064453 595.17041015625 148.0521697998047 591.9265747070312 155.39735412597656 C 590.4229736328125 163.78872680664062 589.0303344726562 163.99449157714844 585.6448974609375 169.1252899169922 C 584.83544921875 167.53170776367188 583.9251098632812 165.75657653808594 589.820556640625 153.9895477294922 C 588.44677734375 147.28709411621094 583.131591796875 145.91421508789062 575.01953125 143.1656951904297 C 568.3832397460938 156.76473999023438 556.6998291015625 155.6294403076172 556.0128173828125 151.39071655273438 C 555.837646484375 152.9093780517578 553.0736083984375 154.70616149902344 552.9144897460938 157.7816619873047 C 551.2144165039062 161.56031799316406 548.0343627929688 160.64892578125 547.3775634765625 159.1333770751953 C 544.4548950195312 156.5948486328125 542.8060302734375 154.15875244140625 537.7008666992188 157.23155212402344 C 535.0619506835938 158.47474670410156 531.1795654296875 157.56871032714844 529.4287109375 158.35382080078125 C 526.3577880859375 159.48243713378906 526.5474853515625 162.9521484375 525.576416015625 166.2701416015625 C 524.5017700195312 169.42263793945312 523.537841796875 171.56747436523438 519.0357666015625 173.0849151611328 C 511.2209777832031 177.58932495117188 499.5478515625 177.0919647216797 487.365966796875 161.5094451904297 C 482.6708984375 137.266357421875 500.83258056640625 118.18324279785156 513.1351928710938 118.26276397705078 C 529.2744750976562 127.59272766113281 540.7321166992188 108.0365219116211 549.3984985351562 111.70745086669922 C 555.59521484375 110.05154418945312 560.58349609375 109.84571838378906 563.9775390625 106.79340362548828 C 564.6280517578125 104.4956283569336 566.547607421875 103.58818817138672 569.8515014648438 104.54486083984375 C 574.1822509765625 101.35462951660156 578.6498413085938 98.06855773925781 587.0782470703125 99.18054962158203 C 600.44189453125 93.45854187011719 603.5328369140625 80.01739501953125 611.3627319335938 81.46278381347656" stroke-width="0.0" fill="url(#shape_6_fill)"/>
    <path d="M 1.2913975715637207 102.16209411621094 C 37.12627029418945 112.377685546875 45.372318267822266 121.58920288085938 51.9406623840332 139.11703491210938 C 81.44524383544922 153.7395782470703 52.12356185913086 213.83392333984375 43.4157600402832 242.86856079101562 C 50.59077835083008 260.2134094238281 48.45090866088867 264.6207580566406 48.579524993896484 265.30596923828125 C 48.77582550048828 260.5127258300781 23.03038787841797 255.68634033203125 12.851638793945312 251.54513549804688 C 4.925503253936768 207.23565673828125 -6.970211029052734 168.93832397460938 1.2913975715637207 102.16209411621094" stroke-width="0.0" fill="url(#shape_7_fill)"/>
    <path d="M 384.51727294921875 197.95498657226562 C 423.7131042480469 185.70884704589844 427.5531311035156 191.15953063964844 429.687255859375 204.19281005859375 C 474.78570556640625 189.73681640625 496.4195556640625 204.52587890625 491.7096862792969 231.69171142578125 C 490.99981689453125 250.49172973632812 486.2425537109375 251.5000457763672 484.8576965332031 252.406005859375 C 485.94049072265625 258.98333740234375 482.5425109863281 268.92034912109375 477.07476806640625 269.0002136230469 C 469.04290771484375 272.9302978515625 453.2210388183594 266.7112731933594 451.63116455078125 269.7130432128906 C 447.06500244140625 266.2832336425781 448.2749328613281 261.2159423828125 449.06494140625 260.16552734375 C 439.2557678222656 264.7848205566406 436.5170593261719 261.42608642578125 437.4403991699219 256.7888488769531 C 427.00970458984375 256.6573181152344 425.6897888183594 259.0752258300781 421.149658203125 262.0911560058594 C 418.54937744140625 264.2519836425781 417.66583251953125 267.7076721191406 414.9253234863281 273.5369567871094 C 414.10833740234375 272.81011962890625 392.32000732421875 268.3941955566406 392.55511474609375 264.1864929199219 C 391.82183837890625 265.1187744140625 388.95294189453125 263.358642578125 385.8492126464844 263.7740478515625 C 382.1103210449219 261.96337890625 380.8173522949219 263.1954345703125 376.4844970703125 261.095458984375 C 374.87298583984375 256.34271240234375 376.0617370605469 252.52239990234375 371.9549255371094 249.81948852539062 C 359.4167175292969 243.5922393798828 374.2226867675781 195.710205078125 378.6337890625 177.66200256347656 C 384.3976135253906 170.86073303222656 393.8812255859375 176.5889892578125 384.51727294921875 197.95498657226562" stroke-width="0.0" fill="url(#shape_8_fill)"/>
    <path d="M 566.308349609375 157.2519989013672 C 568.2131958007812 158.87786865234375 568.1500854492188 166.62057495117188 569.4253540039062 168.00784301757812 C 573.5117797851562 169.46572875976562 573.6537475585938 170.98809814453125 577.5013427734375 174.42526245117188 C 581.9307250976562 172.9453125 583.9714965820312 174.56874084472656 583.7056274414062 179.47256469726562 C 575.360107421875 180.4767608642578 572.1297607421875 225.61549377441406 577.353271484375 226.96473693847656 C 577.8888549804688 229.97134399414062 581.308349609375 235.69581604003906 577.2149658203125 241.36456298828125 C 568.7872924804688 238.4627685546875 566.5808715820312 237.1655731201172 558.8485107421875 247.30357360839844 C 553.8255004882812 250.0407257080078 496.5801086425781 254.62738037109375 487.3899230957031 251.3610076904297 C 486.14764404296875 250.22561645507812 487.071533203125 239.44869995117188 493.1890869140625 229.71922302246094 C 486.3997497558594 226.30630493164062 483.1726379394531 222.3104248046875 481.8717956542969 215.5858917236328 C 476.7806396484375 209.8829803466797 479.3780822753906 205.8544921875 482.7839660644531 205.9842987060547 C 480.138671875 205.34385681152344 481.57958984375 199.06687927246094 489.3912353515625 198.9928741455078 C 491.9968566894531 196.2386016845703 491.81292724609375 192.5076904296875 492.77410888671875 187.94610595703125 C 489.51806640625 174.1922149658203 489.8359069824219 173.2339324951172 487.6370544433594 164.49594116210938 C 504.1910705566406 163.61508178710938 505.7341613769531 164.92601013183594 516.0930786132812 164.17877197265625 C 522.8934326171875 169.15383911132812 524.93017578125 167.40884399414062 525.9598999023438 167.66104125976562 C 523.3408203125 161.56251525878906 531.7293090820312 156.44769287109375 533.2789306640625 158.69918823242188 C 537.606201171875 161.86676025390625 541.3743896484375 162.47666931152344 542.1550903320312 163.98953247070312 C 545.2102661132812 164.08094787597656 545.8268432617188 165.85267639160156 549.7998046875 166.7086639404297 C 548.9373168945312 165.61190795898438 550.9052124023438 157.7757568359375 554.7490844726562 157.7651824951172 C 557.9664306640625 160.98289489746094 563.0553588867188 157.88577270507812 566.308349609375 157.2519989013672" stroke-width="0.0" fill="url(#shape_9_fill)"/>
    <path d="M 561.5455322265625 156.7125244140625 C 565.9129638671875 152.67652893066406 571.056884765625 158.24940490722656 570.799560546875 170.700439453125 C 572.2928466796875 169.1620330810547 576.186279296875 169.2027587890625 579.4849243164062 174.6946258544922 C 580.5964965820312 178.12120056152344 579.201416015625 187.43507385253906 578.436767578125 191.5384063720703 C 571.2984008789062 196.6251983642578 572.0062255859375 229.97129821777344 578.0864868164062 230.97640991210938 C 576.0701904296875 231.1595001220703 575.6067504882812 236.83834838867188 572.0575561523438 238.02108764648438 C 560.1868896484375 235.87916564941406 567.2938232421875 238.65272521972656 563.7933959960938 247.68914794921875 C 547.6338500976562 253.41102600097656 501.28778076171875 249.24131774902344 500.18701171875 251.6953887939453 C 491.0742492675781 251.82357788085938 487.8728942871094 236.97596740722656 492.11834716796875 229.9057159423828 C 486.6228942871094 224.92652893066406 481.9826354980469 219.27490234375 481.66131591796875 215.34820556640625 C 475.5376281738281 214.5254669189453 473.9691162109375 215.07620239257812 464.5286865234375 197.00662231445312 C 463.9649658203125 184.89892578125 475.5343933105469 180.71861267089844 483.153076171875 195.62855529785156 C 489.8113708496094 197.45111083984375 494.53131103515625 184.3496856689453 496.626953125 182.9547119140625 C 495.3040771484375 178.85987854003906 497.5860900878906 177.68136596679688 500.1709289550781 177.4410400390625 C 507.93731689453125 179.086181640625 516.5637817382812 181.6837158203125 520.6809692382812 174.07769775390625 C 523.9683837890625 173.3828125 527.09765625 159.33053588867188 531.7200317382812 155.21034240722656 C 538.045654296875 156.02293395996094 538.6378173828125 159.43006896972656 539.5377197265625 166.10414123535156 C 545.7606811523438 165.9547119140625 549.0580444335938 167.41510009765625 551.3829345703125 166.3773956298828 C 551.0877075195312 155.9327850341797 553.0684814453125 153.0615997314453 561.5455322265625 156.7125244140625" stroke-width="0.0" fill="url(#shape_10_fill)"/>
    <path d="M 447.852783203125 107.73953247070312 C 452.8152770996094 111.46304321289062 453.8800048828125 112.9301528930664 462.4434509277344 111.12004852294922 C 465.07037353515625 116.54510498046875 469.2158508300781 114.86940002441406 481.8308410644531 111.04253387451172 C 488.8581848144531 124.46549224853516 488.7140197753906 125.26122283935547 492.0850524902344 130.7465362548828 C 493.57562255859375 132.10086059570312 493.5970153808594 134.9261474609375 497.01416015625 136.3229217529297 C 494.0555725097656 135.6117401123047 492.832275390625 138.29122924804688 489.2731018066406 141.28794860839844 C 483.1112365722656 137.5914306640625 481.8617248535156 139.5409393310547 478.8258361816406 143.06906127929688 C 467.8969421386719 139.56283569335938 466.3913879394531 138.40277099609375 465.76165771484375 134.413818359375 C 464.3901672363281 133.54994201660156 460.69805908203125 133.5476531982422 460.40545654296875 134.25196838378906 C 461.2153625488281 133.72567749023438 478.9590759277344 143.55323791503906 493.65667724609375 152.15634155273438 C 476.5556945800781 176.8604278564453 475.48248291015625 177.25975036621094 472.9788513183594 182.27259826660156 C 467.4493408203125 182.9864959716797 467.1324768066406 188.0950164794922 466.28533935546875 189.7417755126953 C 462.8150634765625 184.58233642578125 462.0533752441406 172.7174072265625 459.2082214355469 167.13548278808594 C 448.3179016113281 179.76515197753906 447.4778137207031 182.3951416015625 439.8931579589844 183.08563232421875 C 439.3985290527344 183.85374450683594 435.755126953125 195.6360321044922 434.7947998046875 197.58786010742188 C 429.4548645019531 200.30181884765625 417.5353088378906 180.57540893554688 417.6968688964844 179.75628662109375 C 416.9367370605469 179.7550048828125 398.34136962890625 180.14039611816406 397.51202392578125 173.33871459960938 C 393.8076477050781 171.08734130859375 389.7889404296875 176.34507751464844 379.51763916015625 174.70359802246094 C 382.2741394042969 159.4121551513672 380.2553405761719 150.21603393554688 392.65252685546875 138.9510498046875 C 398.0534362792969 137.49815368652344 399.590087890625 129.89956665039062 402.242919921875 120.88650512695312 C 407.010986328125 98.99970245361328 425.5538635253906 102.98959350585938 447.852783203125 107.73953247070312" stroke-width="0.0" fill="url(#shape_11_fill)"/>
    <path d="M 602.8403930664062 127.64734649658203 C 605.7667236328125 130.0250701904297 605.58447265625 143.3826141357422 607.2554321289062 145.0731964111328 C 611.1326904296875 145.5967254638672 611.6932983398438 149.24057006835938 615.9212036132812 152.94300842285156 C 618.1220703125 149.88131713867188 618.0963134765625 141.77821350097656 621.387451171875 141.0928955078125 C 623.0435791015625 137.42196655273438 625.4256591796875 137.37265014648438 627.4591064453125 140.32371520996094 C 627.444091796875 142.1605224609375 628.9558715820312 144.76947021484375 628.8944702148438 147.22438049316406 C 632.1022338867188 149.7703094482422 631.73876953125 151.18914794921875 636.4143676757812 153.6344757080078 C 642.22607421875 154.62950134277344 641.9990234375 160.32260131835938 647.4574584960938 170.1705780029297 C 639.2559204101562 185.17132568359375 640.0906372070312 194.93385314941406 640.5071411132812 206.5236358642578 C 652.15625 212.38967895507812 652.944091796875 233.35382080078125 642.7948608398438 245.59027099609375 C 622.9204711914062 248.2802276611328 611.7338256835938 249.11636352539062 578.9005126953125 263.5966796875 C 570.5816650390625 252.41062927246094 577.632080078125 231.58815002441406 574.5413818359375 217.10995483398438 C 568.0304565429688 209.1202850341797 571.6897583007812 168.84828186035156 583.1618041992188 169.80755615234375 C 597.2343139648438 163.5561065673828 599.59326171875 143.6028289794922 599.9918823242188 141.99090576171875 C 595.5667114257812 139.8900909423828 596.763671875 136.99900817871094 602.8403930664062 127.64734649658203" stroke-width="0.0" fill="url(#shape_12_fill)"/>
    <path d="M 411.1926574707031 176.58021545410156 C 420.0814208984375 174.0230712890625 433.4479064941406 213.2086181640625 428.9944152832031 220.2691650390625 C 419.6972351074219 227.53172302246094 427.359375 237.63226318359375 431.1650390625 242.97366333007812 C 429.1692199707031 261.4422912597656 420.1805419921875 266.9403381347656 414.63519287109375 268.3150329589844 C 405.7342529296875 265.0540771484375 402.7331237792969 272.0877380371094 390.7313232421875 267.8034973144531 C 385.4913330078125 265.010498046875 382.4801330566406 266.1805725097656 379.9151916503906 265.4217834472656 C 375.22222900390625 263.7525329589844 375.0458679199219 260.9546203613281 375.10528564453125 258.4792785644531 C 376.33978271484375 255.57614135742188 374.6533203125 254.51097106933594 374.8105163574219 253.6986083984375 C 372.139404296875 254.90660095214844 369.9774475097656 251.2198486328125 368.4641418457031 251.8438720703125 C 360.5959167480469 247.9860382080078 366.0735778808594 229.0090789794922 367.0924377441406 221.47052001953125 C 369.3066101074219 218.9727020263672 372.2056579589844 202.7606964111328 381.75079345703125 203.18267822265625 C 379.4371643066406 194.56585693359375 379.2691955566406 191.5452117919922 389.627197265625 187.3458709716797 C 391.5184326171875 177.5565185546875 392.9305114746094 176.70899963378906 411.1926574707031 176.58021545410156" stroke-width="0.0" fill="url(#shape_13_fill)"/>
    <path d="M 508.4340515136719 66.99525451660156 C 512.5183715820312 66.06722259521484 521.0732421875 70.33139038085938 522.8549194335938 75.39973449707031 C 530.809814453125 79.38609313964844 534.081787109375 79.99415588378906 536.96923828125 89.33599090576172 C 539.28857421875 90.88194274902344 544.5418701171875 90.29268646240234 545.0235595703125 91.17102813720703 C 545.53662109375 92.74310302734375 556.1832885742188 96.81304931640625 559.0928344726562 95.3639144897461 C 563.4475708007812 97.61587524414062 567.3367919921875 97.54154205322266 568.7446899414062 98.9393081665039 C 564.313232421875 105.36058807373047 556.9596557617188 115.58126068115234 542.0322265625 110.8470687866211 C 541.3921508789062 111.83920288085938 539.3617553710938 114.95270538330078 534.7587890625 118.413818359375 C 527.8865966796875 120.81912994384766 519.9125366210938 124.4491195678711 515.6185302734375 118.73918151855469 C 511.56402587890625 120.67069244384766 501.5166931152344 125.58251953125 499.48028564453125 125.60108184814453 C 497.4190368652344 128.63059997558594 493.8004150390625 128.53271484375 489.406005859375 127.25452423095703 C 489.71771240234375 119.5769271850586 468.82830810546875 118.71726989746094 468.1250305175781 117.70523834228516 C 463.537841796875 117.79951477050781 462.9366149902344 116.68985748291016 462.16607666015625 116.02813720703125 C 469.7776794433594 118.81928253173828 473.3267517089844 112.47309112548828 477.7007141113281 107.48395538330078 C 474.8494873046875 93.36747741699219 473.34906005859375 86.23184204101562 474.9562683105469 81.96089172363281 C 474.5901184082031 70.93377685546875 475.34326171875 70.38616180419922 478.1358337402344 66.37489318847656 C 478.76824951171875 64.00572204589844 482.5783996582031 64.00106811523438 484.3058166503906 63.138648986816406 C 495.96185302734375 64.22686767578125 502.28326416015625 61.1221923828125 508.4340515136719 66.99525451660156" stroke-width="0.0" fill="url(#shape_14_fill)"/>
    <path d="M 533.5447387695312 160.62269592285156 C 543.916015625 162.6226348876953 544.2067260742188 163.48561096191406 546.828369140625 165.16973876953125 C 549.6900634765625 167.6185302734375 549.5756225585938 170.23565673828125 544.165771484375 179.5969696044922 C 542.0585327148438 189.8954620361328 536.9428100585938 231.31817626953125 536.6004638671875 233.12814331054688 C 540.6810302734375 237.7620391845703 541.1460571289062 251.3627471923828 516.381103515625 252.32156372070312 C 502.6623229980469 251.44578552246094 483.5267028808594 243.4093017578125 487.93780517578125 230.49746704101562 C 476.71160888671875 218.99908447265625 478.9365234375 208.08448791503906 482.2929382324219 201.01185607910156 C 486.4428405761719 197.42010498046875 487.9767150878906 197.47576904296875 489.0056457519531 198.74098205566406 C 482.9132080078125 195.61447143554688 488.7017517089844 182.9630126953125 487.6182556152344 172.93846130371094 C 487.33636474609375 167.53158569335938 489.0738220214844 166.18612670898438 491.5001525878906 166.9232940673828 C 505.57293701171875 178.86964416503906 511.16424560546875 184.18582153320312 522.7351684570312 172.73175048828125 C 525.5547485351562 170.96080017089844 525.5444946289062 167.31451416015625 526.8687744140625 165.1802978515625 C 525.829833984375 159.4015350341797 528.8726196289062 158.34080505371094 533.5447387695312 160.62269592285156" stroke-width="0.0" fill="url(#shape_15_fill)"/>
    <path d="M 651.7828979492188 109.86860656738281 C 653.98046875 110.48184204101562 663.9227905273438 121.69261169433594 659.7195434570312 133.35047912597656 C 664.0989990234375 136.12355041503906 664.6015625 142.88706970214844 673.343505859375 148.18936157226562 C 677.0388793945312 178.86866760253906 673.59423828125 211.33084106445312 675.8311767578125 265.90081787109375 C 674.7930297851562 264.30609130859375 637.2860717773438 271.7770690917969 631.0516357421875 262.6282653808594 C 637.2835693359375 245.03553771972656 642.645263671875 124.06071472167969 651.7828979492188 109.86860656738281" stroke-width="0.0" fill="url(#shape_16_fill)"/>
    <path d="M 601.3207397460938 129.64691162109375 C 603.3641357421875 128.17698669433594 606.50927734375 131.9673614501953 606.2125854492188 134.1053924560547 C 608.7443237304688 135.01515197753906 606.9844360351562 141.1382293701172 609.2694702148438 143.61753845214844 C 628.2244262695312 142.8906707763672 631.0418701171875 217.97494506835938 633.6737670898438 265.198486328125 C 584.713134765625 269.6945495605469 576.1500244140625 262.120849609375 579.5901489257812 239.09564208984375 C 562.0786743164062 226.0891571044922 598.0304565429688 154.95462036132812 601.3207397460938 129.64691162109375" stroke-width="0.0" fill="url(#shape_17_fill)"/>
    <path d="M 320.41253662109375 186.28053283691406 C 320.81561279296875 186.51612854003906 322.4109191894531 189.45668029785156 320.88525390625 199.20184326171875 C 332.7974853515625 194.0714874267578 333.83721923828125 193.34544372558594 337.3828430175781 196.230712890625 C 343.4178466796875 200.26455688476562 346.33294677734375 197.81971740722656 353.8416748046875 192.92135620117188 C 358.720703125 193.37364196777344 359.2305908203125 193.85671997070312 356.6421813964844 201.70042419433594 C 359.36676025390625 204.12757873535156 361.57696533203125 204.2359619140625 364.1437072753906 209.6649169921875 C 367.2995300292969 207.1468963623047 368.5126953125 208.20176696777344 368.2567443847656 211.8145294189453 C 370.428955078125 219.99061584472656 370.3238830566406 223.02195739746094 365.92816162109375 225.8815460205078 C 366.1764831542969 231.5238800048828 364.1905212402344 236.1088409423828 366.80096435546875 247.98826599121094 C 369.33697509765625 252.3348388671875 366.6707763671875 256.1742858886719 358.057373046875 254.63400268554688 C 354.2261047363281 255.7625274658203 327.4644470214844 254.9887237548828 322.8781433105469 255.3470001220703 C 313.3555603027344 255.9722442626953 312.11956787109375 253.64280700683594 308.1025085449219 243.2749786376953 C 304.2857666015625 229.76593017578125 320.94580078125 194.70590209960938 320.41253662109375 186.28053283691406" stroke-width="0.0" fill="url(#shape_18_fill)"/>
    <path d="M 478.1646423339844 221.16981506347656 C 500.1282958984375 250.27713012695312 511.3222961425781 263.50628662109375 492.590576171875 279.3675537109375 C 470.64141845703125 279.3133544921875 443.9863586425781 261.5289306640625 442.1306457519531 261.7491760253906 C 438.739990234375 260.5403137207031 437.1715087890625 258.2214050292969 432.5963134765625 258.08642578125 C 429.4274597167969 258.6114196777344 428.1316833496094 256.7988586425781 429.1799011230469 253.85963439941406 C 432.3252868652344 236.8128204345703 422.7879333496094 233.3932342529297 422.9502868652344 229.70375061035156 C 423.1448974609375 226.90371704101562 421.1158142089844 226.69981384277344 420.19970703125 225.0873565673828 C 427.7745361328125 219.59503173828125 429.6940612792969 218.84251403808594 428.5265808105469 215.07696533203125 C 438.4412536621094 198.39158630371094 477.64996337890625 197.5913848876953 478.1646423339844 221.16981506347656" stroke-width="0.0" fill="url(#shape_19_fill)"/>
    <path d="M 673.9047241210938 -3.007061719894409 C 675.0667114257812 32.850189208984375 674.5833740234375 64.76375579833984 674.3489990234375 97.51873016357422 C 669.9400634765625 95.72261047363281 653.207275390625 87.85123443603516 644.7141723632812 90.05882263183594 C 638.6018676757812 89.5347671508789 638.1290283203125 85.99956512451172 637.4650268554688 84.3132095336914 C 626.2702026367188 84.59496307373047 619.9230346679688 92.95856475830078 608.1423950195312 86.6292495727539 C 610.0122680664062 74.77460479736328 612.6372680664062 73.63201141357422 614.5642700195312 71.69678497314453 C 622.6190795898438 68.76776123046875 648.6653442382812 25.147186279296875 647.3699951171875 21.02880096435547 C 655.2051391601562 8.401864051818848 656.4373779296875 3.0958919525146484 668.56689453125 3.6665666103363037 C 669.8154907226562 2.683305501937866 670.1199340820312 1.083548903465271 673.9047241210938 -3.007061719894409" stroke-width="0.0" fill="url(#shape_20_fill)"/>
    <path d="M 561.8825073242188 155.9456024169922 C 569.8787841796875 156.470703125 569.9259643554688 161.6505126953125 573.4425048828125 165.40074157714844 C 584.1526489257812 168.3348388671875 574.8575439453125 231.19979858398438 576.9242553710938 240.68136596679688 C 576.9866943359375 244.885498046875 576.2042236328125 246.89495849609375 576.9085083007812 263.955078125 C 549.7269897460938 259.568115234375 541.938720703125 255.79818725585938 540.080322265625 246.4834442138672 C 544.611572265625 244.72488403320312 542.7173461914062 166.13914489746094 555.0383911132812 157.15054321289062 C 555.4087524414062 153.1204071044922 559.0039672851562 152.05770874023438 561.8825073242188 155.9456024169922" stroke-width="0.0" fill="url(#shape_21_fill)"/>
    <path d="M 215.11737060546875 209.98695373535156 C 233.88467407226562 208.88601684570312 235.74847412109375 240.4111328125 221.13238525390625 256.2398986816406 C 211.73162841796875 263.2549743652344 209.76040649414062 264.3408508300781 208.96871948242188 273.1676940917969 C 205.8984375 275.3594055175781 206.80455017089844 277.11669921875 206.3343048095703 280.1800231933594 C 206.78770446777344 282.9671936035156 203.4762420654297 285.6219177246094 201.12060546875 284.95379638671875 C 200.8181610107422 283.3314514160156 190.38722229003906 272.9015808105469 188.02072143554688 264.8003234863281 C 186.7716827392578 261.5733642578125 183.78237915039062 262.731689453125 181.50125122070312 262.6142272949219 C 180.82192993164062 260.5789489746094 180.12840270996094 260.5196228027344 178.56829833984375 252.92282104492188 C 178.7909698486328 248.34896850585938 168.80615234375 242.0173797607422 170.7398223876953 238.3979949951172 C 175.95094299316406 213.16571044921875 177.20118713378906 213.32949829101562 185.6102752685547 220.5673828125 C 193.84664916992188 219.29859924316406 194.208251953125 215.3050537109375 198.52813720703125 213.40675354003906 C 185.5867919921875 206.6193084716797 184.7504119873047 201.92283630371094 199.189697265625 197.32806396484375 C 213.6531982421875 194.74667358398438 214.43975830078125 199.10635375976562 215.11737060546875 209.98695373535156" stroke-width="0.0" fill="url(#shape_22_fill)"/>
    <path d="M 111.59878540039062 426.3252868652344 C 112.72987365722656 429.2796630859375 111.01017761230469 431.1941223144531 110.66311645507812 431.5335693359375 C 104.24866485595703 432.96142578125 103.81731414794922 433.8495788574219 91.90432739257812 432.9667053222656 C 89.76526641845703 435.9666748046875 95.67757415771484 446.421630859375 91.61712646484375 452.1399841308594 C 78.66380310058594 444.9972229003906 46.938175201416016 447.9271240234375 25.081233978271484 449.6346435546875 C 14.021013259887695 446.2401123046875 13.885703086853027 439.7681579589844 17.951017379760742 436.37091064453125 C 34.587615966796875 427.6580505371094 50.241981506347656 426.78277587890625 71.63777923583984 427.2049560546875 C 73.68008422851562 423.90478515625 109.9952621459961 420.5570983886719 111.59878540039062 426.3252868652344" stroke-width="0.0" fill="url(#shape_23_fill)"/>
    <path d="M 194.16607666015625 123.9034423828125 C 200.47315979003906 124.53701782226562 210.67616271972656 144.89537048339844 214.50213623046875 145.2417755126953 C 215.63462829589844 148.1968536376953 218.5586700439453 149.71432495117188 220.4203643798828 153.79684448242188 C 227.23548889160156 158.47930908203125 247.9774169921875 177.917724609375 244.7373504638672 199.2298583984375 C 239.24209594726562 199.52401733398438 235.67909240722656 186.849853515625 232.2841033935547 179.96621704101562 C 234.8893585205078 186.97494506835938 233.30931091308594 195.94827270507812 230.61273193359375 197.0795440673828 C 227.35316467285156 197.79000854492188 225.86036682128906 203.02334594726562 220.29379272460938 208.55645751953125 C 215.25311279296875 207.64492797851562 213.65675354003906 198.6708221435547 213.63063049316406 196.24937438964844 C 212.4759063720703 189.9031219482422 212.33908081054688 183.5006103515625 206.46983337402344 178.04124450683594 C 203.93418884277344 174.030029296875 205.00302124023438 173.02012634277344 205.60060119628906 167.56764221191406 C 202.7891387939453 147.55677795410156 199.39297485351562 146.99942016601562 192.503662109375 143.9654541015625 C 189.2902069091797 142.33547973632812 191.29515075683594 128.44039916992188 194.16607666015625 123.9034423828125" stroke-width="0.0" fill="url(#shape_24_fill)"/>
    <path d="M 595.4137573242188 408.7933349609375 C 598.6185302734375 410.4134826660156 627.2377319335938 408.05126953125 629.8233642578125 414.2784118652344 C 629.4713745117188 421.2893981933594 627.3589477539062 425.45318603515625 628.8766479492188 426.62774658203125 C 630.5258178710938 427.8339538574219 635.9620971679688 428.0618591308594 639.6689453125 436.9035339355469 C 618.1301879882812 447.3622741699219 578.0714721679688 439.30780029296875 572.612060546875 434.9114074707031 C 567.7531127929688 427.1552429199219 573.8692626953125 419.54644775390625 576.6980590820312 413.7257385253906 C 579.4771728515625 409.35162353515625 587.24609375 414.0199279785156 595.4137573242188 408.7933349609375" stroke-width="0.0" fill="url(#shape_25_fill)"/>
    <path d="M 142.91253662109375 66.73015594482422 C 144.07427978515625 68.94082641601562 149.1696319580078 68.25282287597656 149.6305694580078 69.13102722167969 C 148.9014129638672 70.8987045288086 150.46661376953125 71.8226318359375 149.75709533691406 73.87470245361328 C 151.0865020751953 74.44954681396484 150.12452697753906 78.45075988769531 150.5505828857422 80.49971008300781 C 152.29190063476562 89.35881042480469 152.99371337890625 97.56189727783203 153.93601989746094 104.10321807861328 C 153.51170349121094 107.62073516845703 155.12025451660156 108.51747131347656 155.1909942626953 111.4414291381836 C 158.1172637939453 123.43341064453125 155.34603881835938 133.51597595214844 150.40618896484375 133.5819549560547 C 143.07196044921875 126.80598449707031 137.3524169921875 120.00686645507812 126.0277328491211 117.06205749511719 C 122.53584289550781 114.21186828613281 124.54700469970703 109.63522338867188 126.6964111328125 106.82382202148438 C 128.8131866455078 106.8428955078125 128.87184143066406 105.2785415649414 132.65866088867188 104.7168197631836 C 138.3330078125 96.86331939697266 134.87704467773438 92.81673431396484 133.0766143798828 89.41060638427734 C 134.11085510253906 88.53146362304688 139.32467651367188 87.31568908691406 140.1562042236328 85.35737609863281 C 138.19847106933594 84.74716186523438 138.78915405273438 77.64370727539062 139.50482177734375 77.47804260253906 C 143.5872039794922 76.59754943847656 142.67503356933594 70.3451919555664 142.91253662109375 66.73015594482422" stroke-width="0.0" fill="url(#shape_26_fill)"/>
    <path d="M 139.7728271484375 67.89263153076172 C 148.917724609375 66.9968032836914 149.80572509765625 68.21986389160156 148.7711639404297 76.94701385498047 C 150.4947967529297 78.29922485351562 151.08714294433594 80.69573211669922 154.7249298095703 85.25287628173828 C 150.17910766601562 90.59625244140625 154.93446350097656 94.77639770507812 151.5172882080078 105.09170532226562 C 152.90426635742188 105.8736801147461 153.48411560058594 109.358154296875 155.57028198242188 113.12044525146484 C 152.60543823242188 116.50112915039062 158.1258544921875 122.03116607666016 154.521728515625 126.32037353515625 C 152.5639190673828 132.0277099609375 151.32835388183594 133.17013549804688 147.4887237548828 133.9853057861328 C 141.6034393310547 131.60569763183594 128.32012939453125 121.957763671875 129.2386016845703 117.60136413574219 C 124.497802734375 118.68721008300781 122.58036041259766 113.54442596435547 128.22280883789062 110.44597625732422 C 122.93431091308594 108.23523712158203 124.35150909423828 104.78617095947266 133.5307159423828 107.1707534790039 C 136.33572387695312 105.7314453125 133.4682159423828 92.79422760009766 132.95114135742188 89.09709167480469 C 139.48121643066406 87.25042724609375 138.92544555664062 84.9433822631836 138.76351928710938 81.43195343017578 C 139.07557678222656 77.51065826416016 140.36529541015625 76.8160400390625 142.20774841308594 77.91348266601562 C 145.4307861328125 72.38362121582031 142.6012725830078 70.46005249023438 139.7728271484375 67.89263153076172" stroke-width="0.0" fill="url(#shape_27_fill)"/>
    <path d="M -0.34100496768951416 -0.2727734446525574 C 4.708949089050293 0.3832879066467285 9.661520957946777 -0.5276877880096436 19.196685791015625 -0.9116191267967224 C 25.348365783691406 -1.240179419517517 25.5300350189209 -0.4915834367275238 46.7601432800293 2.918281078338623 C 42.187862396240234 25.744443893432617 28.204771041870117 25.381685256958008 27.344186782836914 23.9156551361084 C 49.307029724121094 16.438148498535156 57.594242095947266 16.517492294311523 59.40906524658203 51.58097457885742 C 38.2132682800293 53.80124282836914 28.366703033447266 54.219261169433594 18.241390228271484 49.51736068725586 C 15.534194946289062 39.36745071411133 11.450491905212402 38.19831848144531 10.0054292678833 33.60687255859375 C 9.99586296081543 35.88170623779297 14.414316177368164 39.335140228271484 14.612241744995117 41.043365478515625 C 15.957086563110352 42.21459197998047 15.631608963012695 44.96855545043945 18.2244815826416 47.84746551513672 C 20.080463409423828 51.06949234008789 18.7648983001709 52.30659866333008 21.070526123046875 57.19441223144531 C 21.293371200561523 64.88410186767578 15.698156356811523 66.77639770507812 8.56124210357666 61.421295166015625 C 5.49447774887085 60.88580322265625 3.5344150066375732 59.14094161987305 0.32275766134262085 59.4354362487793 C -0.318142294883728 39.782325744628906 -0.32488203048706055 19.629165649414062 -0.34100496768951416 -0.2727734446525574" stroke-width="0.0" fill="url(#shape_28_fill)"/>
    <path d="M 299.1622009277344 197.1873016357422 C 297.9572448730469 199.52120971679688 299.94219970703125 202.428466796875 301.5025329589844 207.8811798095703 C 299.27056884765625 212.74356079101562 325.15386962890625 224.6514129638672 316.2678527832031 255.3770294189453 C 311.80999755859375 254.2419891357422 310.57391357421875 255.82684326171875 304.45184326171875 255.00624084472656 C 302.413818359375 258.1515197753906 293.94549560546875 258.4523620605469 280.9987487792969 256.0184326171875 C 278.4684143066406 225.5293731689453 284.77239990234375 219.39308166503906 299.1622009277344 197.1873016357422" stroke-width="0.0" fill="url(#shape_29_fill)"/>
    <path d="M 0.002384894760325551 -0.10288684815168381 C 4.527914047241211 0.44321271777153015 9.688721656799316 -0.4138637185096741 14.640620231628418 0.11430923640727997 C 15.84865951538086 0.48534536361694336 16.515899658203125 4.096836566925049 16.44220542907715 8.023635864257812 C 18.849794387817383 10.902207374572754 21.799373626708984 18.965988159179688 27.27724838256836 20.632625579833984 C 27.156110763549805 22.51117515563965 24.099796295166016 26.708251953125 24.658977508544922 32.07847213745117 C 20.082622528076172 32.31135559082031 12.948012351989746 29.990108489990234 5.937831401824951 33.7170524597168 C 9.018980979919434 35.959228515625 8.761240005493164 38.792083740234375 10.873405456542969 40.46428298950195 C 10.168347358703613 44.05170440673828 7.68991231918335 49.53794479370117 11.700313568115234 53.751007080078125 C 17.715885162353516 51.30092239379883 19.503185272216797 51.82179260253906 18.429601669311523 58.359413146972656 C 11.329115867614746 60.736019134521484 9.416818618774414 62.60615158081055 0.1898196041584015 61.48456954956055 C -0.4231378734111786 39.97108459472656 -0.35455429553985596 19.75537109375 0.002384894760325551 -0.10288684815168381" stroke-width="0.0" fill="url(#shape_30_fill)"/>
    <path d="M 548.5320434570312 70.54459381103516 C 546.1019897460938 77.74623107910156 576.5904541015625 89.61808776855469 581.4060668945312 91.72003936767578 C 580.8998413085938 92.78682708740234 577.347900390625 93.32621765136719 577.102783203125 98.27178192138672 C 573.275634765625 100.72014617919922 572.0692138671875 99.81147003173828 569.2550659179688 100.0198974609375 C 567.8873291015625 95.03350830078125 546.2362060546875 97.54642486572266 538.7651977539062 88.29621124267578 C 538.4058837890625 85.4771957397461 538.2904663085938 83.00894165039062 535.7376708984375 82.27088165283203 C 534.498779296875 79.92926025390625 527.55712890625 79.68376922607422 527.147216796875 78.38756561279297 C 525.2364501953125 75.81877136230469 527.8068237304688 70.88739776611328 531.9742431640625 68.88814544677734 C 538.8475341796875 67.07470703125 542.6452026367188 71.62596130371094 548.5320434570312 70.54459381103516" stroke-width="0.0" fill="url(#shape_31_fill)"/>
    <path d="M 447.10943603515625 264.4279479980469 C 450.66314697265625 265.27685546875 451.2894287109375 266.73284912109375 455.8281555175781 267.7420959472656 C 460.5113830566406 267.6551208496094 465.32232666015625 270.3759765625 469.93841552734375 273.1247863769531 C 470.4315490722656 275.6334533691406 471.828857421875 276.8892517089844 471.6768798828125 280.76226806640625 C 451.60394287109375 287.60125732421875 430.12054443359375 284.1169738769531 415.818603515625 285.1838684082031 C 413.4541320800781 273.90399169921875 415.04132080078125 272.334228515625 415.5768737792969 268.1932373046875 C 418.18994140625 267.2074890136719 417.766845703125 264.802001953125 419.36285400390625 263.129150390625 C 439.9664611816406 253.33294677734375 446.54364013671875 253.40834045410156 447.10943603515625 264.4279479980469" stroke-width="0.0" fill="url(#shape_32_fill)"/>
    <path d="M 272.5299987792969 192.4062957763672 C 275.4823913574219 192.2345428466797 286.9698181152344 243.68783569335938 281.7659606933594 246.02061462402344 C 279.61297607421875 247.86880493164062 273.9419250488281 246.875 269.5599060058594 248.78810119628906 C 266.3287353515625 246.14501953125 266.6769104003906 242.2589111328125 261.1081237792969 240.65576171875 C 254.377685546875 209.48709106445312 262.4925537109375 206.32936096191406 272.5299987792969 192.4062957763672" stroke-width="0.0" fill="url(#shape_33_fill)"/>
    <path d="M 266.5716247558594 412.2282409667969 C 263.09283447265625 425.9325256347656 264.9982604980469 430.5940246582031 268.0901794433594 440.3814697265625 C 262.46368408203125 440.74725341796875 260.7504577636719 446.4756164550781 258.2066650390625 447.8606872558594 C 245.6748809814453 445.8343200683594 216.12379455566406 448.5364074707031 212.52206420898438 444.89306640625 C 213.02371215820312 436.99578857421875 213.95974731445312 436.2222900390625 216.00747680664062 434.5905456542969 C 216.31442260742188 433.5096435546875 225.0543975830078 433.67645263671875 226.684326171875 430.5997314453125 C 228.1224822998047 419.1837463378906 237.4057159423828 419.25732421875 266.5716247558594 412.2282409667969" stroke-width="0.0" fill="url(#shape_34_fill)"/>
    <path d="M 105.59007263183594 69.85028076171875 C 110.14285278320312 69.59436798095703 110.9910659790039 79.27467346191406 112.63519287109375 85.31321716308594 C 117.59919738769531 86.12959289550781 116.87825775146484 110.26930236816406 117.96601104736328 110.73685455322266 C 116.75437927246094 112.5735092163086 110.64301300048828 114.3900146484375 106.8570327758789 124.68495178222656 C 104.6501693725586 117.17108154296875 96.50547790527344 118.82882690429688 89.00532531738281 110.90084838867188 C 87.56790161132812 85.76049041748047 106.17049407958984 84.7078628540039 105.59007263183594 69.85028076171875" stroke-width="0.0" fill="url(#shape_35_fill)"/>
    <path d="M 451.25823974609375 178.4266815185547 C 453.5970153808594 176.1882781982422 456.2869567871094 177.80087280273438 455.4605712890625 180.36859130859375 C 455.97210693359375 180.85301208496094 455.3118896484375 185.37051391601562 456.3520202636719 186.04103088378906 C 455.98773193359375 188.57818603515625 459.1052551269531 194.13253784179688 459.3071594238281 204.4242401123047 C 459.3182678222656 208.51016235351562 451.47564697265625 209.47483825683594 446.0650634765625 204.3871307373047 C 441.66259765625 207.40403747558594 440.9659118652344 208.75779724121094 433.0423889160156 210.93682861328125 C 435.0882873535156 209.92144775390625 436.9618835449219 189.06875610351562 438.1085205078125 178.0352783203125 C 440.60308837890625 179.22280883789062 443.2297058105469 181.82424926757812 446.6164855957031 180.92034912109375 C 447.80804443359375 179.45468139648438 450.11309814453125 179.62184143066406 451.25823974609375 178.4266815185547" stroke-width="0.0" fill="url(#shape_36_fill)"/>
    <path d="M 557.4114379882812 84.36884307861328 C 561.4708251953125 80.78632354736328 578.4888916015625 82.76801300048828 580.0380249023438 85.7755126953125 C 581.3230590820312 83.65888214111328 586.2879028320312 85.60423278808594 587.509521484375 88.71871948242188 C 596.6018676757812 101.91918182373047 588.275390625 109.7174301147461 574.3663330078125 100.49739074707031 C 573.7835083007812 99.52079010009766 552.6841430664062 96.92700958251953 544.9345092773438 85.6214599609375 C 538.46826171875 85.75596618652344 537.9132080078125 82.37480926513672 536.0704345703125 80.20257568359375 C 543.1160278320312 74.68521881103516 547.2489013671875 78.66544342041016 557.4114379882812 84.36884307861328" stroke-width="0.0" fill="url(#shape_37_fill)"/>
    <path d="M 251.6681671142578 207.668701171875 C 265.5863342285156 212.3119659423828 261.47412109375 237.8319091796875 259.9278869628906 247.58670043945312 C 259.7300720214844 254.59664916992188 251.05355834960938 254.6061248779297 249.4597930908203 257.3396301269531 C 234.68624877929688 237.5325927734375 241.33937072753906 215.1354217529297 251.6681671142578 207.668701171875" stroke-width="0.0" fill="url(#shape_38_fill)"/>
    <path d="M 442.8955078125 263.37640380859375 C 446.0889587402344 263.38140869140625 449.2068176269531 266.5605163574219 447.8609313964844 270.0751647949219 C 444.64727783203125 270.4009704589844 442.6704406738281 277.2821960449219 440.70501708984375 278.2532043457031 C 439.2610168457031 286.5326232910156 427.0284423828125 285.2874755859375 418.0257873535156 275.8896789550781 C 414.5116271972656 276.8052978515625 413.34649658203125 274.4084167480469 416.22076416015625 271.6373291015625 C 415.16632080078125 269.9420166015625 419.2438049316406 262.15203857421875 426.02874755859375 258.20849609375 C 426.21820068359375 256.7019348144531 439.1087341308594 257.9844970703125 442.8955078125 263.37640380859375" stroke-width="0.0" fill="url(#shape_39_fill)"/>
    <path d="M 407.7037048339844 409.83734130859375 C 408.6672668457031 409.896484375 416.7754211425781 419.0747985839844 413.80438232421875 424.24456787109375 C 398.88983154296875 435.9277038574219 386.6944580078125 420.3598937988281 376.5927734375 420.861572265625 C 371.08563232421875 417.957275390625 371.2357482910156 416.5549011230469 372.63385009765625 410.3951721191406 C 375.0235290527344 400.9710388183594 393.53778076171875 404.12396240234375 407.7037048339844 409.83734130859375" stroke-width="0.0" fill="url(#shape_40_fill)"/>
    <path d="M 66.43669891357422 427.52490234375 C 67.28638458251953 429.0281066894531 64.37921905517578 433.3506774902344 58.777000427246094 435.34149169921875 C 57.3957405090332 436.5155944824219 39.43760681152344 435.9184265136719 31.953317642211914 442.791748046875 C 29.405176162719727 443.5981750488281 27.603452682495117 444.0629577636719 17.29767417907715 442.8463134765625 C 16.446208953857422 440.65008544921875 17.877166748046875 439.2080993652344 17.34416389465332 437.77001953125 C 35.381656646728516 427.27215576171875 53.891754150390625 428.00152587890625 66.43669891357422 427.52490234375" stroke-width="0.0" fill="url(#shape_41_fill)"/>
    <path d="M 278.3763732910156 381.0350646972656 C 284.6392517089844 381.2174072265625 297.897216796875 381.2250061035156 306.4690246582031 385.4533386230469 C 297.10040283203125 394.7987976074219 299.30682373046875 401.0149841308594 294.4456787109375 405.1687316894531 C 291.74847412109375 399.9671325683594 266.3966064453125 406.0939025878906 259.1643981933594 407.66278076171875 C 248.19821166992188 403.732666015625 243.9427490234375 396.27410888671875 245.40721130371094 383.28155517578125 C 260.85546875 380.6230163574219 267.2900085449219 381.8994140625 278.3763732910156 381.0350646972656" stroke-width="0.0" fill="url(#shape_42_fill)"/>
    <path d="M 222.5272979736328 209.90513610839844 C 223.97332763671875 208.92816162109375 239.02703857421875 208.69859313964844 239.7569580078125 212.50363159179688 C 242.18934631347656 221.23968505859375 245.79176330566406 242.1056671142578 253.59490966796875 269.1434326171875 C 250.97877502441406 273.8514099121094 242.24185180664062 272.95257568359375 208.97793579101562 272.4144287109375 C 207.70648193359375 266.2249755859375 205.26321411132812 252.7277374267578 216.56591796875 247.7696533203125 C 219.32516479492188 246.4654541015625 218.12718200683594 226.42213439941406 222.5272979736328 209.90513610839844" stroke-width="0.0" fill="url(#shape_43_fill)"/>
    <path d="M 483.5771179199219 396.021728515625 C 486.79327392578125 399.8105163574219 485.79541015625 400.97918701171875 483.4811706542969 401.04852294921875 C 471.97686767578125 407.16375732421875 451.1646423339844 406.8191833496094 450.26007080078125 407.6228332519531 C 448.1381530761719 404.4179992675781 451.630126953125 396.1792907714844 453.6369934082031 396.5225830078125 C 464.82470703125 393.1767272949219 471.85394287109375 392.4655456542969 483.5771179199219 396.021728515625" stroke-width="0.0" fill="url(#shape_44_fill)"/>
    <path d="M 45.792396545410156 408.05364990234375 C 45.346588134765625 408.54034423828125 35.77616882324219 411.7101135253906 33.43626403808594 412.9258728027344 C 32.635353088378906 414.472412109375 32.11760711669922 415.8606872558594 28.047119140625 414.8048095703125 C 27.250442504882812 416.8421936035156 24.731914520263672 417.6852111816406 21.384910583496094 420.4373779296875 C 18.67234992980957 420.2084655761719 -0.025771722197532654 417.2812805175781 -0.6110035181045532 420.5752868652344 C 1.7241886854171753 419.4998474121094 -0.876270055770874 411.18157958984375 0.900234043598175 410.2062072753906 C 6.742766857147217 409.5903625488281 45.45803451538086 406.3587341308594 45.792396545410156 408.05364990234375" stroke-width="0.0" fill="url(#shape_45_fill)"/>
    <path d="M 452.1918029785156 174.75521850585938 C 453.88751220703125 175.01327514648438 464.6532897949219 198.76466369628906 466.37567138671875 199.56112670898438 C 462.6420593261719 209.42343139648438 451.5163879394531 209.2705078125 449.46514892578125 206.53732299804688 C 448.31842041015625 203.25686645507812 449.0187683105469 198.31759643554688 448.85150146484375 195.29893493652344 C 447.9580993652344 194.5610809326172 447.5930480957031 192.10418701171875 448.51605224609375 188.00900268554688 C 451.0072937011719 186.6491241455078 450.6239013671875 182.91317749023438 452.1918029785156 174.75521850585938" stroke-width="0.0" fill="url(#shape_46_fill)"/>
    <path d="M 372.8537292480469 184.87091064453125 C 378.9107360839844 197.2109832763672 380.6226806640625 202.9059600830078 371.4271545410156 205.8190460205078 C 365.8646545410156 206.82302856445312 364.772216796875 204.8575897216797 361.82110595703125 206.03196716308594 C 340.0100402832031 211.8614044189453 337.261474609375 203.06607055664062 353.55328369140625 188.8004150390625 C 356.6739501953125 184.97621154785156 358.3729248046875 184.4031524658203 368.1520690917969 185.46202087402344 C 368.96527099609375 183.25108337402344 372.28173828125 183.78433227539062 372.8537292480469 184.87091064453125" stroke-width="0.0" fill="url(#shape_47_fill)"/>
    <path d="M 472.12646484375 263.97344970703125 C 474.67156982421875 267.5798645019531 480.584228515625 270.1324462890625 481.0384826660156 284.2702941894531 C 464.75811767578125 287.3345031738281 448.774658203125 287.2384033203125 444.28948974609375 284.9405822753906 C 439.3494567871094 282.1963195800781 440.0055236816406 276.95806884765625 441.1310119628906 276.4158630371094 C 448.9130859375 266.594970703125 455.11248779296875 262.43560791015625 472.12646484375 263.97344970703125" stroke-width="0.0" fill="url(#shape_48_fill)"/>
    <path d="M 177.08984375 116.95171356201172 C 177.91343688964844 115.47001647949219 181.73077392578125 116.16452026367188 182.72325134277344 117.30594635009766 C 184.67701721191406 120.2635269165039 183.84951782226562 122.35050201416016 184.7729949951172 123.08710479736328 C 179.5369415283203 127.01453399658203 185.72540283203125 136.6455078125 182.791259765625 139.56124877929688 C 181.7194061279297 146.7157745361328 172.82823181152344 146.24546813964844 171.999267578125 146.8656005859375 C 171.8115997314453 127.03287506103516 170.83306884765625 124.56222534179688 177.08984375 116.95171356201172" stroke-width="0.0" fill="url(#shape_49_fill)"/>
    <path d="M 333.5284423828125 427.5845031738281 C 336.8326721191406 429.1252746582031 341.6802673339844 428.802001953125 343.2348937988281 431.80474853515625 C 346.36700439453125 435.5838317871094 345.1590881347656 437.22247314453125 342.4114990234375 437.5777893066406 C 342.77215576171875 446.9163513183594 324.9404296875 449.16058349609375 324.09051513671875 443.7840881347656 C 321.5308837890625 436.1116943359375 321.5588684082031 432.6818542480469 306.86541748046875 429.6301574707031 C 320.06378173828125 426.23358154296875 328.14703369140625 429.5264587402344 333.5284423828125 427.5845031738281" stroke-width="0.0" fill="url(#shape_50_fill)"/>
    <path d="M 307.8968811035156 388.60357666015625 C 304.0804748535156 396.0745849609375 292.5029296875 396.4502868652344 292.0926513671875 399.1846008300781 C 279.10504150390625 397.4134826660156 277.9013977050781 399.25927734375 271.3144836425781 402.4716796875 C 271.1512756347656 401.6077575683594 269.79412841796875 398.9405517578125 271.37139892578125 397.4903869628906 C 270.10870361328125 395.5325927734375 273.1929626464844 388.28070068359375 279.8489685058594 388.22412109375 C 284.5396423339844 386.6650695800781 288.6646728515625 391.0783996582031 307.8968811035156 388.60357666015625" stroke-width="0.0" fill="url(#shape_51_fill)"/>
    <path d="M 268.9693603515625 184.2790985107422 C 276.0808410644531 194.74462890625 277.4630126953125 207.81494140625 280.2206726074219 217.58226013183594 C 271.574951171875 210.33840942382812 269.37115478515625 208.29867553710938 261.0794982910156 215.81088256835938 C 257.40264892578125 208.07286071777344 263.69952392578125 196.69265747070312 266.6330261230469 195.264892578125 C 269.6966247558594 194.27711486816406 268.9130554199219 191.72010803222656 268.9693603515625 184.2790985107422" stroke-width="0.0" fill="url(#shape_52_fill)"/>
    <path d="M 218.34457397460938 409.4789733886719 C 215.90365600585938 410.9299621582031 215.67230224609375 413.29327392578125 214.2755126953125 414.3737487792969 C 214.40365600585938 422.55096435546875 192.83030700683594 424.9233703613281 187.57301330566406 415.5616455078125 C 186.29498291015625 404.9436340332031 207.03033447265625 400.0987243652344 218.34457397460938 409.4789733886719" stroke-width="0.0" fill="url(#shape_53_fill)"/>
    <path d="M 205.92959594726562 424.52325439453125 C 205.49087524414062 425.25701904296875 206.14706420898438 428.2873229980469 204.56495666503906 429.1669006347656 C 194.0274200439453 429.7249755859375 178.81436157226562 430.11871337890625 178.0067901611328 432.6483154296875 C 176.8268585205078 430.94622802734375 178.3635711669922 425.9474182128906 176.97789001464844 423.9042053222656 C 187.3778839111328 418.4084167480469 193.44728088378906 423.00634765625 205.92959594726562 424.52325439453125" stroke-width="0.0" fill="url(#shape_54_fill)"/>
    <path d="M 268.67999267578125 247.295166015625 C 275.4377746582031 245.03466796875 276.6520080566406 247.46453857421875 280.3467102050781 247.1443634033203 C 280.7391052246094 250.99755859375 280.07373046875 252.42062377929688 286.8103332519531 262.7951965332031 C 263.4597473144531 258.0198059082031 262.93560791015625 257.3274230957031 250.88894653320312 264.7049255371094 C 254.85035705566406 248.17433166503906 255.8822479248047 247.23519897460938 258.66790771484375 245.02310180664062 C 260.3181457519531 239.21701049804688 265.3809814453125 239.6564178466797 268.67999267578125 247.295166015625" stroke-width="0.0" fill="url(#shape_55_fill)"/>
    <path d="M 278.5188903808594 347.49713134765625 C 279.97283935546875 362.9072265625 283.9376220703125 363.4043884277344 284.8555908203125 368.041015625 C 285.44256591796875 369.23223876953125 286.0180969238281 371.81219482421875 285.67242431640625 381.1717834472656 C 275.3926086425781 379.3293151855469 261.37713623046875 381.3609619140625 241.18365478515625 383.9154052734375 C 236.67137145996094 382.15606689453125 235.8480682373047 365.0234375 235.7344512939453 349.6434020996094 C 245.04037475585938 347.3458557128906 253.6445770263672 346.4091491699219 278.5188903808594 347.49713134765625" stroke-width="0.0" fill="url(#shape_56_fill)"/>
    <path d="M 408.34014892578125 271.5499572753906 C 415.6671142578125 268.9424743652344 418.1625671386719 273.18597412109375 422.0124816894531 280.5563049316406 C 414.8729553222656 283.6573486328125 408.5968017578125 278.2127685546875 379.0768127441406 275.132568359375 C 378.4255676269531 264.46502685546875 386.775634765625 263.7261657714844 408.34014892578125 271.5499572753906" stroke-width="0.0" fill="url(#shape_57_fill)"/>
    <path d="M 632.069580078125 351.60723876953125 C 632.9821166992188 355.2763366699219 660.849609375 354.53265380859375 668.58203125 354.4930114746094 C 668.4827270507812 358.4261779785156 663.0026245117188 360.4482727050781 660.1004028320312 357.1317138671875 C 648.4744873046875 355.52935791015625 634.8052978515625 359.7237548828125 631.5665283203125 360.38104248046875 C 627.8199462890625 357.12615966796875 629.392822265625 353.6058044433594 632.069580078125 351.60723876953125" stroke-width="0.0" fill="url(#shape_58_fill)"/>
    <path d="M 341.3280029296875 384.90106201171875 C 342.8115539550781 390.2027587890625 358.1387939453125 391.705322265625 359.18267822265625 394.673095703125 C 356.8643798828125 398.5794982910156 339.724609375 401.23370361328125 338.2890625 399.55029296875 C 335.1358642578125 399.619873046875 333.071533203125 398.7821044921875 331.84869384765625 396.5372619628906 C 331.9891357421875 394.93994140625 330.74969482421875 393.4737243652344 332.3089599609375 390.595458984375 C 332.98193359375 384.9794006347656 336.2859191894531 384.02020263671875 341.3280029296875 384.90106201171875" stroke-width="0.0" fill="url(#shape_59_fill)"/>
    <path d="M 459.29638671875 363.8692932128906 C 462.7583923339844 364.2862243652344 472.6455078125 370.4960021972656 473.1479797363281 374.3419494628906 C 471.8041687011719 376.2319641113281 470.3351745605469 376.877197265625 463.0403747558594 375.875 C 458.4521179199219 377.163330078125 457.5775146484375 376.96014404296875 452.7379150390625 371.003662109375 C 453.3352966308594 370.1332092285156 459.786376953125 367.095458984375 459.29638671875 363.8692932128906" stroke-width="0.0" fill="url(#shape_60_fill)"/>
    <path d="M 431.2637023925781 432.553955078125 C 440.0129699707031 434.33135986328125 442.439208984375 436.5741882324219 442.0627136230469 438.64202880859375 C 440.3150939941406 440.9500732421875 428.7421569824219 439.58111572265625 425.7109680175781 442.3135986328125 C 422.4696350097656 438.94915771484375 423.8687744140625 434.66632080078125 411.7679748535156 425.296630859375 C 427.3753662109375 429.18310546875 430.5420837402344 433.15777587890625 431.2637023925781 432.553955078125" stroke-width="0.0" fill="url(#shape_61_fill)"/>
    <path d="M 185.41661071777344 411.4493408203125 C 186.2670135498047 413.93170166015625 185.00555419921875 414.7928771972656 186.92039489746094 417.6494140625 C 184.86961364746094 420.1969909667969 183.39309692382812 419.50909423828125 182.5027313232422 419.73492431640625 C 180.8157501220703 421.6406555175781 174.44625854492188 420.2027587890625 171.43324279785156 420.1285095214844 C 169.56553649902344 417.757568359375 169.7709197998047 415.6287841796875 174.30506896972656 412.70318603515625 C 176.66732788085938 412.67938232421875 181.5244598388672 410.74798583984375 185.41661071777344 411.4493408203125" stroke-width="0.0" fill="url(#shape_62_fill)"/>
    <path d="M 332.0983581542969 418.8155517578125 C 334.7464904785156 426.0387268066406 329.85980224609375 427.85601806640625 327.2591552734375 425.84478759765625 C 324.56298828125 427.7627868652344 322.9862976074219 426.716064453125 321.04754638671875 427.5129699707031 C 318.8328552246094 426.0111083984375 319.8276672363281 419.9739685058594 317.5469665527344 418.4834899902344 C 319.0160217285156 420.07952880859375 325.9910888671875 418.72479248046875 332.0983581542969 418.8155517578125" stroke-width="0.0" fill="url(#shape_63_fill)"/>
    <path d="M 55.46537780761719 273.6277770996094 C 56.57204818725586 269.28289794921875 65.7235336303711 269.8705139160156 65.2805404663086 278.2485046386719 C 59.13070297241211 279.36273193359375 53.87175750732422 272.6660461425781 48.3489990234375 276.0767822265625 C 50.3687744140625 273.2212219238281 52.44883346557617 272.7737121582031 55.46537780761719 273.6277770996094" stroke-width="0.0" fill="url(#shape_64_fill)"/>
    <path d="M 304.62603759765625 439.5860900878906 C 304.565185546875 437.61077880859375 306.3875427246094 436.4697265625 313.0455017089844 437.6573181152344 C 314.7261657714844 438.8351745605469 312.9754333496094 441.3612365722656 311.35699462890625 441.602294921875 C 307.9557189941406 445.2843933105469 306.5517272949219 444.2444152832031 305.34130859375 444.2214050292969 C 302.9261779785156 441.66943359375 302.8419494628906 439.7813415527344 304.62603759765625 439.5860900878906" stroke-width="0.0" fill="url(#shape_65_fill)"/>
    <path d="M -0.4752563536167145 -0.4271756410598755 C 224.7915496826172 -0.1540229469537735 444.16497802734375 0.34588271379470825 672.7401123046875 0.5349286198616028 C 673.4823608398438 154.85691833496094 674.7031860351562 296.180419921875 673.6874389648438 445.4893493652344 C 450.359619140625 446.33184814453125 230.48570251464844 446.27490234375 0.5052270293235779 445.3768005371094 C 0.21670296788215637 297.12164306640625 -0.14378704130649567 149.13372802734375 -0.4752563536167145 -0.4271756410598755" stroke-width="0.0" fill="url(#shape_66_fill)"/>
    <path d="M -1.0456584692001343 -0.1776086837053299 C 222.55291748046875 -0.10543044656515121 443.04327392578125 0.3593486547470093 672.7402954101562 -0.2025943100452423 C 673.589599609375 155.29660034179688 674.7828979492188 295.6119689941406 673.3688354492188 445.3959655761719 C 450.63726806640625 446.40802001953125 230.58729553222656 446.321044921875 0.6122693419456482 445.2862243652344 C 0.12728528678417206 297.24786376953125 -0.25653257966041565 148.9330596923828 -1.0456584692001343 -0.1776086837053299" stroke-width="0.0" fill="url(#shape_67_fill)"/>
    <path d="M -0.6784131526947021 -0.23486274480819702 C 223.10604858398438 -0.15191160142421722 442.0024719238281 0.4983660876750946 672.7730102539062 -0.26429492235183716 C 673.5953369140625 155.156005859375 674.7744750976562 295.56500244140625 673.3665771484375 445.3968200683594 C 450.63800048828125 446.40869140625 230.60643005371094 446.3220520019531 1.1787543296813965 445.2669372558594 C 0.5156771540641785 295.5635070800781 0.07455335557460785 148.45980834960938 -0.6784131526947021 -0.23486274480819702" stroke-width="0.0" fill="url(#shape_68_fill)"/>
  </g>
</svg>
