<?xml version="1.0" ?>
<svg xmlns="http://www.w3.org/2000/svg" version="1.1" width="674" height="446">
  <defs>
    <radialGradient id="shape_0_fill" cx="0.5352224468831138" cy="0.7413460769995446" r="0.278032568866492">
      <stop offset="0.78091633" stop-color="rgb(171, 186, 0)" stop-opacity="0.8630487322807312"/>
      <stop offset="1.0" stop-color="rgb(53, 44, 0)" stop-opacity="1.0"/>
    </radialGradient>
    <radialGradient id="shape_1_fill" cx="0.5366761521698813" cy="0.7446024941756586" r="0.20612860433425678">
      <stop offset="0.57198775" stop-color="rgb(83, 84, 65)" stop-opacity="0.8308879733085632"/>
      <stop offset="1.0" stop-color="rgb(26, 8, 0)" stop-opacity="0.62591552734375"/>
    </radialGradient>
    <radialGradient id="shape_2_fill" cx="0.09792284866468842" cy="0.7376672719091578" r="0.22062588021026522">
      <stop offset="0.0019336628" stop-color="rgb(32, 92, 181)" stop-opacity="0.9777898192405701"/>
      <stop offset="1.0" stop-color="rgb(10, 109, 255)" stop-opacity="0.9363629221916199"/>
    </radialGradient>
    <radialGradient id="shape_3_fill" cx="0.27637828068492676" cy="0.2158413703131569" r="0.1282729762951769">
      <stop offset="0.39118698" stop-color="rgb(147, 205, 10)" stop-opacity="0.8196229338645935"/>
      <stop offset="1.0" stop-color="rgb(39, 42, 0)" stop-opacity="0.9566630125045776"/>
    </radialGradient>
    <radialGradient id="shape_4_fill" cx="0.1543026706231454" cy="0.9977578475336323" r="0.10288926755639141">
      <stop offset="0.0" stop-color="rgb(81, 79, 86)" stop-opacity="1.0"/>
      <stop offset="1.0" stop-color="rgb(87, 76, 91)" stop-opacity="0.8835085034370422"/>
    </radialGradient>
    <radialGradient id="shape_5_fill" cx="0.14807964290992442" cy="0.23997249517740155" r="0.11810664960821587">
      <stop offset="0.0" stop-color="rgb(255, 255, 255)" stop-opacity="0.6465655565261841"/>
      <stop offset="0.5626593" stop-color="rgb(255, 255, 255)" stop-opacity="0.605312168598175"/>
    </radialGradient>
    <radialGradient id="shape_6_fill" cx="0.18397626112759644" cy="0.9977578475336323" r="0.0754974885934892">
      <stop offset="0.0" stop-color="rgb(93, 90, 94)" stop-opacity="1.0"/>
      <stop offset="1.0" stop-color="rgb(145, 131, 134)" stop-opacity="0.9229863882064819"/>
    </radialGradient>
    <radialGradient id="shape_7_fill" cx="0.2893175074183976" cy="0.05829596412556054" r="0.08666390552011372">
      <stop offset="0.0" stop-color="rgb(55, 66, 29)" stop-opacity="1.0"/>
      <stop offset="1.0" stop-color="rgb(103, 118, 38)" stop-opacity="0.5891457796096802"/>
    </radialGradient>
    <radialGradient id="shape_8_fill" cx="0.3382789091115889" cy="0.9439461883408071" r="0.06756690277190167">
      <stop offset="0.0" stop-color="rgb(91, 124, 45)" stop-opacity="1.0"/>
      <stop offset="1.0" stop-color="rgb(127, 184, 72)" stop-opacity="0.7329509854316711"/>
    </radialGradient>
    <radialGradient id="shape_9_fill" cx="0.30712166172106825" cy="0.9977578475336323" r="0.0730758406641929">
      <stop offset="0.0" stop-color="rgb(38, 48, 20)" stop-opacity="1.0"/>
      <stop offset="1.0" stop-color="rgb(29, 31, 43)" stop-opacity="1.0"/>
    </radialGradient>
    <radialGradient id="shape_10_fill" cx="0.3056379821958457" cy="0.9977578475336323" r="0.06792919147615971">
      <stop offset="0.0" stop-color="rgb(39, 49, 21)" stop-opacity="1.0"/>
      <stop offset="1.0" stop-color="rgb(43, 33, 0)" stop-opacity="0.7247743606567383"/>
    </radialGradient>
    <radialGradient id="shape_11_fill" cx="0.21810089020771514" cy="0.968609865470852" r="0.06792919147615971">
      <stop offset="0.0" stop-color="rgb(138, 135, 129)" stop-opacity="1.0"/>
      <stop offset="1.0" stop-color="rgb(182, 151, 128)" stop-opacity="0.5171211361885071"/>
    </radialGradient>
    <radialGradient id="shape_12_fill" cx="0.29080118694362017" cy="0.9977578475336323" r="0.07480746985189285">
      <stop offset="0.0" stop-color="rgb(22, 25, 13)" stop-opacity="1.0"/>
      <stop offset="1.0" stop-color="rgb(34, 36, 0)" stop-opacity="1.0"/>
    </radialGradient>
    <radialGradient id="shape_13_fill" cx="0.327893175074184" cy="0.8923766816143498" r="0.06900465877544279">
      <stop offset="0.0" stop-color="rgb(89, 117, 50)" stop-opacity="1.0"/>
      <stop offset="1.0" stop-color="rgb(119, 157, 31)" stop-opacity="0.7999971508979797"/>
    </radialGradient>
    <radialGradient id="shape_14_fill" cx="0.142433234421365" cy="0.9977578475336323" r="0.06617211022079875">
      <stop offset="0.0" stop-color="rgb(155, 150, 153)" stop-opacity="1.0"/>
      <stop offset="1.0" stop-color="rgb(255, 247, 245)" stop-opacity="0.13368408381938934"/>
    </radialGradient>
    <radialGradient id="shape_15_fill" cx="0.31008902077151335" cy="0.9977578475336323" r="0.06683642786405207">
      <stop offset="0.0" stop-color="rgb(43, 55, 23)" stop-opacity="1.0"/>
      <stop offset="1.0" stop-color="rgb(56, 66, 15)" stop-opacity="0.9452933669090271"/>
    </radialGradient>
    <radialGradient id="shape_16_fill" cx="0.27299703264094954" cy="0.9977578475336323" r="0.08110449363640579">
      <stop offset="0.0" stop-color="rgb(31, 35, 19)" stop-opacity="1.0"/>
      <stop offset="1.0" stop-color="rgb(32, 31, 0)" stop-opacity="0.9832568168640137"/>
    </radialGradient>
    <radialGradient id="shape_17_fill" cx="0.2893175074183976" cy="0.9977578475336323" r="0.07513486030193747">
      <stop offset="0.0" stop-color="rgb(22, 23, 13)" stop-opacity="1.0"/>
      <stop offset="1.0" stop-color="rgb(15, 9, 0)" stop-opacity="0.8095756769180298"/>
    </radialGradient>
    <radialGradient id="shape_18_fill" cx="0.3293768545994065" cy="0.7556053811659192" r="0.06617211022079875">
      <stop offset="0.0" stop-color="rgb(83, 108, 65)" stop-opacity="1.0"/>
      <stop offset="1.0" stop-color="rgb(112, 139, 59)" stop-opacity="0.9674345254898071"/>
    </radialGradient>
    <radialGradient id="shape_19_fill" cx="0.3516320474777448" cy="0.9977578475336323" r="0.06617211022079875">
      <stop offset="0.0" stop-color="rgb(95, 135, 39)" stop-opacity="1.0"/>
      <stop offset="1.0" stop-color="rgb(148, 217, 4)" stop-opacity="0.7694486975669861"/>
    </radialGradient>
    <radialGradient id="shape_20_fill" cx="0.0830860534124629" cy="0.9977578475336323" r="0.06792919147615971">
      <stop offset="0.0" stop-color="rgb(49, 52, 66)" stop-opacity="1.0"/>
      <stop offset="1.0" stop-color="rgb(8, 6, 46)" stop-opacity="0.44059517979621887"/>
    </radialGradient>
    <radialGradient id="shape_21_fill" cx="0.29821958456973297" cy="0.9977578475336323" r="0.06792919147615971">
      <stop offset="0.0" stop-color="rgb(33, 40, 17)" stop-opacity="1.0"/>
      <stop offset="1.0" stop-color="rgb(34, 47, 0)" stop-opacity="0.6535511612892151"/>
    </radialGradient>
    <radialGradient id="shape_22_fill" cx="0.356411195296562" cy="0.44369298139495167" r="0.06591868754310495">
      <stop offset="0.1130165" stop-color="rgb(226, 254, 1)" stop-opacity="0.6104217171669006"/>
      <stop offset="0.4689423" stop-color="rgb(155, 193, 36)" stop-opacity="0.913520336151123"/>
    </radialGradient>
    <radialGradient id="shape_23_fill" cx="0.6454005934718101" cy="0.1412556053811659" r="0.06617211022079875">
      <stop offset="0.0" stop-color="rgb(46, 38, 13)" stop-opacity="1.0"/>
      <stop offset="1.0" stop-color="rgb(50, 28, 0)" stop-opacity="0.8519273400306702"/>
    </radialGradient>
    <radialGradient id="shape_24_fill" cx="0.24925732258873098" cy="0.48430544592339897" r="0.06617138010811735">
      <stop offset="0.0" stop-color="rgb(201, 209, 206)" stop-opacity="1.0"/>
      <stop offset="0.9766002" stop-color="rgb(255, 255, 255)" stop-opacity="0.6358099579811096"/>
    </radialGradient>
    <radialGradient id="shape_25_fill" cx="0.6320474777448071" cy="0.9977578475336323" r="0.06617211022079875">
      <stop offset="0.0" stop-color="rgb(35, 28, 8)" stop-opacity="1.0"/>
      <stop offset="1.0" stop-color="rgb(37, 12, 0)" stop-opacity="0.5940138101577759"/>
    </radialGradient>
    <radialGradient id="shape_26_fill" cx="0.15414520399506793" cy="0.3207086811151205" r="0.06604698362265567">
      <stop offset="0.11989554" stop-color="rgb(198, 211, 155)" stop-opacity="1.0"/>
      <stop offset="0.58338004" stop-color="rgb(115, 114, 253)" stop-opacity="0.0"/>
    </radialGradient>
    <radialGradient id="shape_27_fill" cx="0.15410647972401242" cy="0.3208032787648017" r="0.06604505929465818">
      <stop offset="0.0" stop-color="rgb(192, 205, 0)" stop-opacity="1.0"/>
      <stop offset="0.49375948" stop-color="rgb(78, 72, 47)" stop-opacity="0.6005735993385315"/>
    </radialGradient>
    <radialGradient id="shape_28_fill" cx="0.03809439888340076" cy="0.018261137564620628" r="0.06798760615046018">
      <stop offset="0.15032633" stop-color="rgb(0, 27, 130)" stop-opacity="0.9970802068710327"/>
      <stop offset="0.6390973" stop-color="rgb(3, 27, 155)" stop-opacity="0.7888259291648865"/>
    </radialGradient>
    <radialGradient id="shape_29_fill" cx="0.33976258863681147" cy="0.6659192825112108" r="0.06617211022079875">
      <stop offset="0.0" stop-color="rgb(90, 117, 55)" stop-opacity="1.0"/>
      <stop offset="1.0" stop-color="rgb(116, 149, 31)" stop-opacity="0.9037118554115295"/>
    </radialGradient>
    <radialGradient id="shape_30_fill" cx="0.04011011831130755" cy="0.017720390328377352" r="0.06797931456070626">
      <stop offset="0.2900348" stop-color="rgb(49, 76, 63)" stop-opacity="0.9443022608757019"/>
      <stop offset="0.95829153" stop-color="rgb(45, 54, 34)" stop-opacity="0.6580420732498169"/>
    </radialGradient>
    <radialGradient id="shape_31_fill" cx="0.12314540059347182" cy="0.9977578475336323" r="0.06617211022079875">
      <stop offset="0.0" stop-color="rgb(95, 103, 98)" stop-opacity="1.0"/>
      <stop offset="1.0" stop-color="rgb(145, 136, 125)" stop-opacity="0.7689239978790283"/>
    </radialGradient>
    <radialGradient id="shape_32_fill" cx="0.4035608308605341" cy="0.984304932735426" r="0.06617211022079875">
      <stop offset="0.0" stop-color="rgb(126, 155, 63)" stop-opacity="1.0"/>
      <stop offset="1.0" stop-color="rgb(154, 139, 28)" stop-opacity="0.9665396213531494"/>
    </radialGradient>
    <radialGradient id="shape_33_fill" cx="0.3249258160237389" cy="0.6053811659192825" r="0.06617211022079875">
      <stop offset="0.0" stop-color="rgb(93, 124, 71)" stop-opacity="1.0"/>
      <stop offset="1.0" stop-color="rgb(123, 154, 46)" stop-opacity="0.9533901214599609"/>
    </radialGradient>
    <radialGradient id="shape_34_fill" cx="0.6468842729970327" cy="0.531390134529148" r="0.06617211022079875">
      <stop offset="0.0" stop-color="rgb(54, 47, 24)" stop-opacity="1.0"/>
      <stop offset="1.0" stop-color="rgb(59, 26, 15)" stop-opacity="0.5055699944496155"/>
    </radialGradient>
    <radialGradient id="shape_35_fill" cx="0.1451124649727026" cy="0.23796343268834957" r="0.06800657776060019">
      <stop offset="0.038238063" stop-color="rgb(182, 255, 60)" stop-opacity="0.18328037858009338"/>
      <stop offset="0.5683393" stop-color="rgb(133, 109, 73)" stop-opacity="0.6805910468101501"/>
    </radialGradient>
    <radialGradient id="shape_36_fill" cx="0.2878338278931751" cy="0.9977578475336323" r="0.06617211022079875">
      <stop offset="0.0" stop-color="rgb(80, 96, 53)" stop-opacity="1.0"/>
      <stop offset="1.0" stop-color="rgb(50, 50, 12)" stop-opacity="0.849485456943512"/>
    </radialGradient>
    <radialGradient id="shape_37_fill" cx="0.129080118694362" cy="0.9977578475336323" r="0.06617211022079875">
      <stop offset="0.0" stop-color="rgb(87, 97, 81)" stop-opacity="1.0"/>
      <stop offset="1.0" stop-color="rgb(75, 85, 61)" stop-opacity="0.6306495070457458"/>
    </radialGradient>
    <radialGradient id="shape_38_fill" cx="0.33892324204260943" cy="0.5607740119968294" r="0.0666785763703751">
      <stop offset="0.7501433" stop-color="rgb(84, 118, 15)" stop-opacity="0.8961435556411743"/>
      <stop offset="0.6022492" stop-color="rgb(175, 255, 76)" stop-opacity="0.850350022315979"/>
    </radialGradient>
    <radialGradient id="shape_39_fill" cx="0.40059347181008903" cy="0.9641255605381166" r="0.06617211022079875">
      <stop offset="0.0" stop-color="rgb(138, 168, 60)" stop-opacity="1.0"/>
      <stop offset="1.0" stop-color="rgb(225, 255, 82)" stop-opacity="1.0"/>
    </radialGradient>
    <radialGradient id="shape_40_fill" cx="0.6146302265653978" cy="0.8800356740908772" r="0.06854385579728939">
      <stop offset="0.33032048" stop-color="rgb(161, 151, 126)" stop-opacity="0.5887320041656494"/>
      <stop offset="0.50441563" stop-color="rgb(0, 7, 70)" stop-opacity="1.0"/>
    </radialGradient>
    <radialGradient id="shape_41_fill" cx="0.6454005934718101" cy="0.08744394618834081" r="0.06617211022079875">
      <stop offset="0.0" stop-color="rgb(58, 48, 21)" stop-opacity="1.0"/>
      <stop offset="1.0" stop-color="rgb(91, 62, 14)" stop-opacity="0.9819768667221069"/>
    </radialGradient>
    <radialGradient id="shape_42_fill" cx="0.5845697329376854" cy="0.6188340807174888" r="0.06617211022079875">
      <stop offset="0.0" stop-color="rgb(62, 59, 56)" stop-opacity="1.0"/>
      <stop offset="1.0" stop-color="rgb(31, 27, 76)" stop-opacity="0.6145266890525818"/>
    </radialGradient>
    <radialGradient id="shape_43_fill" cx="0.355758802827105" cy="0.5032201176801605" r="0.06845891935535284">
      <stop offset="0.277124" stop-color="rgb(129, 173, 53)" stop-opacity="0.9587127566337585"/>
      <stop offset="0.5381591" stop-color="rgb(206, 255, 30)" stop-opacity="0.8836877942085266"/>
    </radialGradient>
    <radialGradient id="shape_44_fill" cx="0.5934718100890207" cy="0.9977578475336323" r="0.06617211022079875">
      <stop offset="0.0" stop-color="rgb(89, 61, 18)" stop-opacity="1.0"/>
      <stop offset="1.0" stop-color="rgb(166, 82, 0)" stop-opacity="0.7640157341957092"/>
    </radialGradient>
    <radialGradient id="shape_45_fill" cx="0.612759643916914" cy="0.04035874439461883" r="0.06617211022079875">
      <stop offset="0.0" stop-color="rgb(157, 136, 123)" stop-opacity="1.0"/>
      <stop offset="1.0" stop-color="rgb(255, 229, 208)" stop-opacity="1.0"/>
    </radialGradient>
    <radialGradient id="shape_46_fill" cx="0.28635014836795253" cy="0.9977578475336323" r="0.06617211022079875">
      <stop offset="0.0" stop-color="rgb(82, 99, 55)" stop-opacity="1.0"/>
      <stop offset="1.0" stop-color="rgb(95, 113, 23)" stop-opacity="0.5440468192100525"/>
    </radialGradient>
    <radialGradient id="shape_47_fill" cx="0.28635014836795253" cy="0.8183856502242153" r="0.06617211022079875">
      <stop offset="0.0" stop-color="rgb(166, 189, 197)" stop-opacity="1.0"/>
      <stop offset="1.0" stop-color="rgb(255, 255, 255)" stop-opacity="0.4719162881374359"/>
    </radialGradient>
    <radialGradient id="shape_48_fill" cx="0.40801186943620177" cy="0.9977578475336323" r="0.06617211022079875">
      <stop offset="0.0" stop-color="rgb(107, 135, 68)" stop-opacity="1.0"/>
      <stop offset="1.0" stop-color="rgb(132, 150, 54)" stop-opacity="1.0"/>
    </radialGradient>
    <radialGradient id="shape_49_fill" cx="0.19287833827893175" cy="0.3991031390134529" r="0.06617211022079875">
      <stop offset="0.0" stop-color="rgb(92, 100, 54)" stop-opacity="1.0"/>
      <stop offset="1.0" stop-color="rgb(70, 48, 7)" stop-opacity="0.534949004650116"/>
    </radialGradient>
    <radialGradient id="shape_50_fill" cx="0.6439169139465876" cy="0.7376681614349776" r="0.06617211022079875">
      <stop offset="0.0" stop-color="rgb(65, 56, 25)" stop-opacity="1.0"/>
      <stop offset="1.0" stop-color="rgb(153, 195, 85)" stop-opacity="0.42628470063209534"/>
    </radialGradient>
    <radialGradient id="shape_51_fill" cx="0.5845697329376854" cy="0.6322869955156951" r="0.06617211022079875">
      <stop offset="0.0" stop-color="rgb(75, 68, 60)" stop-opacity="1.0"/>
      <stop offset="1.0" stop-color="rgb(139, 109, 88)" stop-opacity="0.7604283690452576"/>
    </radialGradient>
    <radialGradient id="shape_52_fill" cx="0.2997032640949555" cy="0.6031390134529148" r="0.06617211022079875">
      <stop offset="0.0" stop-color="rgb(107, 158, 118)" stop-opacity="1.0"/>
      <stop offset="1.0" stop-color="rgb(191, 255, 248)" stop-opacity="0.5467519164085388"/>
    </radialGradient>
    <radialGradient id="shape_53_fill" cx="0.6097922848664689" cy="0.45067264573991034" r="0.06617211022079875">
      <stop offset="0.0" stop-color="rgb(38, 39, 27)" stop-opacity="1.0"/>
      <stop offset="1.0" stop-color="rgb(18, 13, 37)" stop-opacity="0.3973304331302643"/>
    </radialGradient>
    <radialGradient id="shape_54_fill" cx="0.6335311572700296" cy="0.426009002822397" r="0.06617211022079875">
      <stop offset="0.0" stop-color="rgb(67, 49, 20)" stop-opacity="1.0"/>
      <stop offset="1.0" stop-color="rgb(125, 70, 12)" stop-opacity="0.7552497386932373"/>
    </radialGradient>
    <radialGradient id="shape_55_fill" cx="0.3707168533823257" cy="0.5988430827187851" r="0.066001377049115">
      <stop offset="0.4360497" stop-color="rgb(239, 255, 57)" stop-opacity="0.939990758895874"/>
      <stop offset="0.16089658" stop-color="rgb(199, 255, 0)" stop-opacity="0.7464384436607361"/>
    </radialGradient>
    <radialGradient id="shape_56_fill" cx="0.5489614243323442" cy="0.600896860986547" r="0.06617211022079875">
      <stop offset="0.0" stop-color="rgb(50, 62, 80)" stop-opacity="1.0"/>
      <stop offset="1.0" stop-color="rgb(23, 67, 206)" stop-opacity="0.48356887698173523"/>
    </radialGradient>
    <radialGradient id="shape_57_fill" cx="0.4094955489614243" cy="0.9035874439461884" r="0.06617211022079875">
      <stop offset="0.0" stop-color="rgb(111, 144, 47)" stop-opacity="1.0"/>
      <stop offset="1.0" stop-color="rgb(160, 211, 2)" stop-opacity="0.6527742147445679"/>
    </radialGradient>
    <radialGradient id="shape_58_fill" cx="0.5281899109792285" cy="0.9977578475336323" r="0.06617211022079875">
      <stop offset="0.0" stop-color="rgb(50, 43, 14)" stop-opacity="1.0"/>
      <stop offset="1.0" stop-color="rgb(72, 50, 0)" stop-opacity="1.0"/>
    </radialGradient>
    <radialGradient id="shape_59_fill" cx="0.5845697329376854" cy="0.7690582959641256" r="0.06617211022079875">
      <stop offset="0.0" stop-color="rgb(61, 63, 58)" stop-opacity="1.0"/>
      <stop offset="1.0" stop-color="rgb(76, 74, 97)" stop-opacity="0.7111305594444275"/>
    </radialGradient>
    <radialGradient id="shape_60_fill" cx="0.5489614243323442" cy="0.9977578475336323" r="0.06617211022079875">
      <stop offset="0.0" stop-color="rgb(140, 131, 64)" stop-opacity="1.0"/>
      <stop offset="1.0" stop-color="rgb(240, 211, 88)" stop-opacity="0.9262846112251282"/>
    </radialGradient>
    <radialGradient id="shape_61_fill" cx="0.6468563362823396" cy="0.9686204713556265" r="0.06617834730742593">
      <stop offset="0.43417886" stop-color="rgb(255, 240, 53)" stop-opacity="1.0"/>
      <stop offset="0.93934727" stop-color="rgb(254, 218, 1)" stop-opacity="0.9927690625190735"/>
    </radialGradient>
    <radialGradient id="shape_62_fill" cx="0.615727002967359" cy="0.3991031390134529" r="0.06617211022079875">
      <stop offset="0.0" stop-color="rgb(55, 47, 13)" stop-opacity="1.0"/>
      <stop offset="1.0" stop-color="rgb(75, 51, 0)" stop-opacity="1.0"/>
    </radialGradient>
    <radialGradient id="shape_63_fill" cx="0.6261127596439169" cy="0.7286995515695067" r="0.06617211022079875">
      <stop offset="0.0" stop-color="rgb(79, 66, 32)" stop-opacity="1.0"/>
      <stop offset="1.0" stop-color="rgb(205, 211, 101)" stop-opacity="0.6561107039451599"/>
    </radialGradient>
    <radialGradient id="shape_64_fill" cx="0.40801186943620177" cy="0.12556053811659193" r="0.06617211022079875">
      <stop offset="0.0" stop-color="rgb(76, 66, 59)" stop-opacity="1.0"/>
      <stop offset="1.0" stop-color="rgb(103, 74, 68)" stop-opacity="1.0"/>
    </radialGradient>
    <radialGradient id="shape_65_fill" cx="0.6528189910979229" cy="0.6883408071748879" r="0.06617211022079875">
      <stop offset="0.0" stop-color="rgb(121, 97, 39)" stop-opacity="1.0"/>
      <stop offset="1.0" stop-color="rgb(255, 255, 89)" stop-opacity="1.0"/>
    </radialGradient>
    <radialGradient id="shape_66_fill" cx="0.6519406825215597" cy="0.46077208241005113" r="0.06927919246322677">
      <stop offset="0.2749249" stop-color="rgb(154, 188, 101)" stop-opacity="0.36238735914230347"/>
      <stop offset="0.96066904" stop-color="rgb(0, 0, 0)" stop-opacity="0.05859988555312157"/>
    </radialGradient>
    <radialGradient id="shape_67_fill" cx="0.5952872437610117" cy="0.9951879390152046" r="0.06915521480209395">
      <stop offset="0.86465377" stop-color="rgb(53, 29, 0)" stop-opacity="0.7430605888366699"/>
      <stop offset="1.0" stop-color="rgb(0, 0, 0)" stop-opacity="0.15970802307128906"/>
    </radialGradient>
    <radialGradient id="shape_68_fill" cx="0.48942194635860997" cy="0.9964078210394479" r="0.06779159070476226">
      <stop offset="0.38483897" stop-color="rgb(50, 27, 9)" stop-opacity="0.6280568242073059"/>
      <stop offset="1.0" stop-color="rgb(42, 64, 58)" stop-opacity="0.26251542568206787"/>
    </radialGradient>
  </defs>
  <g>
    <path d="M -0.1338830441236496 271.219482421875 C 26.211570739746094 268.3832092285156 35.64453125 269.7287292480469 45.15766143798828 272.909423828125 C 48.09591293334961 274.47900390625 49.3638801574707 276.38330078125 57.094451904296875 274.4942321777344 C 59.701045989990234 273.9068603515625 63.34010696411133 274.2538146972656 64.69316864013672 272.4506530761719 C 70.541748046875 270.201416015625 100.62406921386719 271.09283447265625 116.71796417236328 271.12750244140625 C 121.2815933227539 270.9687805175781 125.93206787109375 277.07965087890625 124.3382568359375 282.4029541015625 C 133.16136169433594 282.5893859863281 140.23033142089844 281.58807373046875 153.57899475097656 287.2415466308594 C 185.2802734375 282.3297119140625 185.77088928222656 282.45294189453125 206.645263671875 287.243408203125 C 199.9160614013672 287.8992004394531 198.12759399414062 281.9841003417969 210.94195556640625 270.4622497558594 C 245.01699829101562 271.67828369140625 288.2315368652344 270.7032470703125 312.6010437011719 275.8837585449219 C 346.4872131347656 278.1283264160156 422.9200134277344 278.3990478515625 466.6273498535156 274.3464050292969 C 494.17230224609375 272.4512634277344 543.8623657226562 273.75787353515625 544.5059204101562 279.3826599121094 C 548.4556884765625 280.3390808105469 549.781005859375 275.45947265625 566.0274658203125 272.6721496582031 C 582.30126953125 276.3566589355469 612.1328125 283.44873046875 612.6753540039062 283.6833190917969 C 627.781494140625 273.5431213378906 637.7385864257812 273.64141845703125 668.1599731445312 273.1977844238281 C 673.5537719726562 274.744140625 678.260986328125 279.88671875 678.2359619140625 285.2361145019531 C 676.6062622070312 339.51080322265625 674.7259521484375 391.5039367675781 675.1177368164062 446.4668273925781 C 451.9151306152344 446.6697692871094 228.9889373779297 446.8115539550781 -0.4704829156398773 446.4240417480469 C -0.43316027522087097 389.1451110839844 0.15867333114147186 332.3594665527344 -0.1338830441236496 271.219482421875" stroke-width="0.0" fill="url(#shape_0_fill)"/>
    <path d="M -0.0026749451644718647 271.2250671386719 C 35.93324661254883 275.3986511230469 36.5576057434082 274.58978271484375 44.32670593261719 274.4854736328125 C 47.92192840576172 267.2892761230469 59.78181457519531 266.68280029296875 77.20598602294922 268.5439758300781 C 113.50533294677734 278.68035888671875 114.02831268310547 279.3109130859375 126.81364440917969 279.4608154296875 C 127.81900024414062 273.059814453125 143.59617614746094 271.6495666503906 147.27528381347656 270.617431640625 C 185.142822265625 270.03997802734375 185.8053436279297 271.90704345703125 202.4214630126953 275.2118835449219 C 202.7967529296875 291.91156005859375 204.814697265625 292.069091796875 215.87380981445312 295.96240234375 C 217.58157348632812 294.902099609375 269.4014892578125 297.0419006347656 290.1334228515625 298.6309814453125 C 321.11761474609375 300.5491638183594 449.9067077636719 298.5752258300781 461.3537292480469 299.6827087402344 C 476.7808532714844 291.7051696777344 487.1064147949219 290.8612365722656 503.6884460449219 287.22967529296875 C 510.0519104003906 287.6202392578125 519.6594848632812 286.3255615234375 522.8623657226562 286.4555358886719 C 527.4989624023438 285.68792724609375 531.8427124023438 285.8998718261719 535.0035400390625 287.07421875 C 542.7385864257812 286.93450927734375 548.11767578125 288.14971923828125 556.1001586914062 298.151611328125 C 578.1424560546875 288.5213317871094 580.1928100585938 290.4859619140625 592.2606201171875 293.30224609375 C 610.2988891601562 288.95758056640625 621.8161010742188 287.98626708984375 634.1758422851562 288.4444274902344 C 645.8544921875 280.0194091796875 656.2279663085938 285.2664794921875 673.7994384765625 290.59613037109375 C 673.984130859375 340.5399475097656 674.4570922851562 392.1949462890625 674.155517578125 446.2807922363281 C 451.4774169921875 446.3905334472656 229.19664001464844 446.25439453125 -0.3076566159725189 446.2476501464844 C -0.2135799378156662 389.4035949707031 -0.2940194308757782 333.0278625488281 -0.0026749451644718647 271.2250671386719" stroke-width="0.0" fill="url(#shape_1_fill)"/>
    <path d="M -0.019930338487029076 -0.25989267230033875 C 219.69313049316406 0.1040392518043518 439.478759765625 -0.45242562890052795 672.0037231445312 -0.20317435264587402 C 665.4248046875 10.573321342468262 645.3179321289062 36.133888244628906 637.7403564453125 47.89863586425781 C 634.0833129882812 53.00054168701172 610.7936401367188 93.46307373046875 584.8626708984375 84.088623046875 C 577.69482421875 81.6782455444336 560.5391235351562 70.31627655029297 532.1996459960938 74.04420471191406 C 531.9091186523438 76.70455932617188 524.5678100585938 78.18077087402344 522.3622436523438 72.14013671875 C 522.6195068359375 68.82682037353516 499.49945068359375 63.770179748535156 499.53302001953125 62.67438507080078 C 492.74224853515625 62.098976135253906 486.6128845214844 60.990196228027344 484.31793212890625 68.37283325195312 C 475.2049560546875 72.01679992675781 476.0888977050781 75.1585693359375 477.32855224609375 83.82437133789062 C 484.0958557128906 97.67784118652344 475.5423583984375 115.00914001464844 471.6383361816406 119.43286895751953 C 460.4031982421875 118.05250549316406 459.17620849609375 113.8554458618164 451.0287170410156 108.449462890625 C 435.31414794921875 107.79740142822266 411.6880798339844 102.40141296386719 410.32745361328125 104.91279602050781 C 411.59912109375 120.02629089355469 412.78125 126.17174530029297 410.3006896972656 135.08750915527344 C 407.6311340332031 144.04702758789062 397.9205627441406 143.17501831054688 391.7907409667969 136.83253479003906 C 381.7890930175781 143.85057067871094 375.5976867675781 158.09156799316406 369.44976806640625 157.307861328125 C 367.8990173339844 159.36703491210938 365.8963928222656 162.84393310546875 361.3983459472656 167.13961791992188 C 358.5387268066406 170.0421600341797 355.218505859375 169.5613250732422 351.5433044433594 175.0312042236328 C 345.4461975097656 182.49534606933594 336.72161865234375 175.36585998535156 335.4141845703125 169.84886169433594 C 303.96502685546875 169.00985717773438 303.0652160644531 175.5858154296875 301.00689697265625 180.2541046142578 C 303.5647277832031 188.44918823242188 304.0899658203125 191.65814208984375 307.51031494140625 201.43482971191406 C 307.4207458496094 200.73150634765625 306.04376220703125 198.21205139160156 304.1530456542969 190.84767150878906 C 305.477783203125 187.04615783691406 303.1580505371094 186.2304229736328 287.0811767578125 179.39344787597656 C 289.6988220214844 194.5657958984375 289.29766845703125 195.970947265625 289.5746765136719 196.28118896484375 C 288.46209716796875 190.0953826904297 288.78564453125 183.00868225097656 285.66754150390625 179.28530883789062 C 272.71820068359375 181.82855224609375 270.1650695800781 186.0427703857422 262.4029541015625 181.77259826660156 C 254.7349395751953 183.89309692382812 255.30975341796875 187.30325317382812 255.94210815429688 197.49795532226562 C 260.7945861816406 199.4212188720703 260.56182861328125 199.97238159179688 257.73248291015625 199.22293090820312 C 257.0963134765625 198.66917419433594 253.0859832763672 195.74215698242188 253.94895935058594 194.16439819335938 C 256.7454528808594 189.07937622070312 258.9396057128906 186.52406311035156 254.63426208496094 170.47149658203125 C 257.1497802734375 165.61172485351562 216.44691467285156 141.7744903564453 213.910888671875 140.2011260986328 C 185.59481811523438 129.2886505126953 195.6255645751953 103.19432830810547 191.62313842773438 87.42469024658203 C 192.583984375 84.27930450439453 159.7403564453125 73.33294677734375 136.43397521972656 61.418209075927734 C 111.77816772460938 39.464908599853516 70.30062103271484 55.241172790527344 38.60820770263672 61.326534271240234 C 21.52610206604004 70.40135192871094 7.576076507568359 69.3011245727539 -0.769254744052887 69.59162902832031 C 0.34183040261268616 43.958133697509766 -0.3314551115036011 22.56187629699707 -0.019930338487029076 -0.25989267230033875" stroke-width="0.0" fill="url(#shape_2_fill)"/>
    <path d="M 86.6822280883789 62.63761520385742 C 89.01322174072266 68.76765441894531 92.28717041015625 68.82676696777344 93.38897705078125 70.33099365234375 C 90.85172271728516 80.52555084228516 91.31057739257812 80.9122543334961 91.10147094726562 90.65563201904297 C 96.60338592529297 85.54290008544922 97.937255859375 86.85940551757812 103.00540161132812 87.69784545898438 C 104.3995361328125 75.16291046142578 105.86292266845703 73.43636322021484 108.45154571533203 73.18277740478516 C 112.15674591064453 87.66461944580078 111.0299072265625 93.50392150878906 116.40177154541016 99.37316131591797 C 116.56049346923828 100.05948638916016 116.24248504638672 108.76428985595703 115.50592803955078 115.40277862548828 C 124.4248275756836 115.2750244140625 128.69674682617188 115.60945129394531 129.4700469970703 113.01292419433594 C 130.41880798339844 109.56805419921875 136.55665588378906 108.17306518554688 136.50965881347656 104.61959838867188 C 136.6203155517578 103.68189239501953 135.54364013671875 101.80459594726562 137.1497039794922 98.20156860351562 C 136.4705810546875 93.26229095458984 137.4923553466797 92.8849105834961 137.4532928466797 89.19294738769531 C 137.30580139160156 84.947998046875 138.62130737304688 84.85128784179688 139.37782287597656 86.5399169921875 C 139.98385620117188 82.6346664428711 146.6858673095703 80.71913146972656 147.98297119140625 83.36861419677734 C 148.67440795898438 93.64776611328125 149.94219970703125 94.13233947753906 152.00506591796875 99.0575180053711 C 153.4779815673828 103.00074005126953 149.9263916015625 106.90809631347656 148.8248748779297 106.70846557617188 C 152.68988037109375 109.90778350830078 150.58929443359375 114.15727996826172 148.52857971191406 113.46173095703125 C 154.44375610351562 112.8281021118164 157.86532592773438 122.59368896484375 157.3411865234375 123.22926330566406 C 161.3899688720703 124.98011016845703 164.99432373046875 123.44998168945312 169.61300659179688 122.65550231933594 C 174.38925170898438 119.72870635986328 175.7831573486328 121.51551055908203 177.72402954101562 122.50606536865234 C 179.32838439941406 122.6822280883789 179.94908142089844 125.41265106201172 182.77040100097656 127.75166320800781 C 183.82228088378906 130.21238708496094 182.40032958984375 133.13172912597656 183.66610717773438 135.4230194091797 C 186.267578125 135.44876098632812 187.63209533691406 142.92742919921875 188.78965759277344 145.26358032226562 C 194.80274963378906 145.91395568847656 206.8594512939453 154.9800262451172 201.47921752929688 173.32432556152344 C 205.473876953125 175.5395050048828 205.75054931640625 178.41929626464844 205.48179626464844 182.2201385498047 C 212.99771118164062 181.72268676757812 214.60452270507812 197.65985107421875 212.29730224609375 204.1114959716797 C 206.35084533691406 206.90777587890625 203.3819580078125 207.67613220214844 203.1267852783203 210.2625274658203 C 200.7793426513672 210.52976989746094 199.93028259277344 211.6942901611328 200.22166442871094 213.5659637451172 C 196.42733764648438 215.28146362304688 193.54934692382812 215.38331604003906 191.89236450195312 219.60398864746094 C 184.2960662841797 221.00840759277344 183.60484313964844 224.77597045898438 178.69146728515625 230.2386932373047 C 176.37001037597656 233.55560302734375 180.1249542236328 239.45343017578125 180.6953125 242.6123809814453 C 182.31565856933594 252.07012939453125 186.2144012451172 260.8378601074219 178.748046875 264.7464599609375 C 173.84812927246094 268.1235656738281 148.29421997070312 268.1773986816406 136.91015625 269.6833801269531 C 131.1742401123047 269.2273864746094 127.65914154052734 271.5969543457031 120.45390319824219 274.4502258300781 C 109.08077239990234 276.94769287109375 73.27572631835938 276.090087890625 73.07581329345703 269.9985656738281 C 47.68558120727539 266.7635498046875 56.546260833740234 268.56512451171875 57.47319793701172 273.5922546386719 C 47.99763107299805 276.370361328125 0.5666643381118774 272.9466552734375 0.7197930812835693 270.0503845214844 C -5.0700364112854 223.2491455078125 -3.6969985961914062 167.9842529296875 -0.009185358881950378 119.86801147460938 C 11.947786331176758 119.0976333618164 22.108789443969727 113.99691772460938 26.442642211914062 121.73756408691406 C 27.778289794921875 128.87599182128906 35.97002410888672 128.67648315429688 41.50740051269531 131.8654327392578 C 46.965576171875 130.74075317382812 47.78929901123047 132.3666229248047 49.27878189086914 142.3075408935547 C 50.31211853027344 147.72303771972656 61.608150482177734 148.4188232421875 62.79645919799805 146.6171112060547 C 62.1593017578125 136.79371643066406 63.0357666015625 133.91259765625 62.327388763427734 128.3594207763672 C 68.38265228271484 126.72774505615234 67.63990783691406 122.93450927734375 66.32823944091797 112.51007080078125 C 68.08158874511719 111.18336486816406 68.38887023925781 106.00249481201172 75.69729614257812 102.90157318115234 C 74.27501678466797 100.44194793701172 78.38427734375 91.15213012695312 77.20909881591797 85.52657318115234 C 77.07785034179688 83.94306945800781 78.25769805908203 74.75273895263672 85.46644592285156 75.42315673828125 C 82.86750030517578 70.17139434814453 84.04608154296875 67.61494445800781 86.6822280883789 62.63761520385742" stroke-width="0.0" fill="url(#shape_3_fill)"/>
    <path d="M 674.0155029296875 -0.6634594202041626 C 676.0997924804688 47.841121673583984 675.0172119140625 95.90838623046875 679.5531005859375 140.09373474121094 C 675.4794921875 129.21453857421875 667.8757934570312 124.64259338378906 661.596435546875 120.35466766357422 C 660.9075317382812 120.00437927246094 655.128662109375 109.36595153808594 649.66357421875 110.9107894897461 C 648.6325073242188 112.52063751220703 644.9508056640625 149.1938018798828 642.806640625 155.18177795410156 C 630.2793579101562 154.51136779785156 626.9522094726562 142.6477508544922 627.1688842773438 138.21177673339844 C 623.0052490234375 137.36669921875 618.8456420898438 145.315185546875 615.4212646484375 144.01829528808594 C 611.6814575195312 142.31700134277344 610.1546630859375 143.3465118408203 607.7572021484375 141.1055145263672 C 608.8098754882812 138.11013793945312 611.9336547851562 132.7118377685547 606.8795166015625 120.42166900634766 C 598.10302734375 133.57562255859375 597.4859619140625 139.2664337158203 594.4774780273438 142.79505920410156 C 599.034912109375 147.687255859375 597.6319580078125 151.7035675048828 597.5646362304688 152.53103637695312 C 588.50634765625 157.27586364746094 587.0264892578125 163.97666931152344 579.5117797851562 172.19381713867188 C 571.7459716796875 170.3202667236328 569.943603515625 158.7130889892578 568.8677978515625 157.333740234375 C 565.9903564453125 157.46963500976562 563.7345581054688 153.34136962890625 561.6290893554688 152.0705108642578 C 560.0999755859375 150.66293334960938 556.2044067382812 150.97634887695312 555.5999145507812 156.2220916748047 C 551.9368896484375 156.21421813964844 550.3670654296875 158.9254913330078 548.8837890625 158.95436096191406 C 547.3228149414062 157.0376434326172 543.9391479492188 157.01083374023438 536.1424560546875 153.8852996826172 C 531.7935180664062 154.89712524414062 529.9655151367188 158.6177520751953 523.6546630859375 157.26995849609375 C 518.4754028320312 160.81625366210938 520.7073974609375 161.8168487548828 522.795166015625 169.85018920898438 C 517.5924072265625 168.27450561523438 516.5794677734375 171.11846923828125 516.3870849609375 171.4043731689453 C 511.2713623046875 173.32232666015625 509.8157043457031 175.26531982421875 505.6353454589844 174.399169921875 C 502.7895812988281 171.39083862304688 502.9693908691406 169.52879333496094 502.16168212890625 159.4868621826172 C 493.2926940917969 145.63600158691406 507.6324768066406 121.94989776611328 518.5387573242188 126.39458465576172 C 523.8106079101562 125.36470031738281 539.4114379882812 110.52228546142578 548.7879638671875 113.00370025634766 C 557.1915893554688 110.70856475830078 556.9412231445312 109.38372039794922 557.4681396484375 106.71353912353516 C 560.1689453125 108.44728088378906 564.9830932617188 103.16767120361328 570.7085571289062 104.99945831298828 C 574.5989379882812 102.47734832763672 573.4160766601562 97.45291137695312 578.924560546875 94.14653015136719 C 583.5934448242188 88.5976791381836 598.4086303710938 76.89988708496094 613.7825317382812 78.31475830078125 C 617.1101684570312 73.7457504272461 645.2968139648438 51.86978530883789 644.8064575195312 35.44724655151367 C 644.9751586914062 32.44757080078125 647.9967041015625 30.390056610107422 647.67138671875 29.55021095275879 C 646.9826049804688 28.300790786743164 664.6547241210938 -3.8611702919006348 674.0155029296875 -0.6634594202041626" stroke-width="0.0" fill="url(#shape_4_fill)"/>
    <path d="M 151.5972442626953 68.51984405517578 C 152.3118133544922 69.04835510253906 186.05027770996094 84.50074005126953 192.79229736328125 92.94918823242188 C 179.08799743652344 117.38710021972656 217.71836853027344 150.05743408203125 220.83819580078125 154.93923950195312 C 238.87258911132812 170.0221710205078 241.96910095214844 184.19322204589844 240.820068359375 193.86131286621094 C 238.14356994628906 193.19607543945312 236.1810302734375 186.45965576171875 236.76910400390625 184.05859375 C 235.67967224121094 183.57606506347656 234.1576385498047 184.29354858398438 231.08279418945312 182.71844482421875 C 231.01841735839844 184.014892578125 232.2591552734375 193.74606323242188 228.62242126464844 195.6674346923828 C 227.56753540039062 196.63475036621094 226.96304321289062 205.1849822998047 221.40240478515625 207.71173095703125 C 215.0819549560547 206.59225463867188 214.32737731933594 197.85629272460938 214.66464233398438 194.8691864013672 C 212.9606170654297 185.4362335205078 211.8976593017578 184.94273376464844 206.46974182128906 177.42138671875 C 205.80918884277344 173.19155883789062 205.8474884033203 165.24520874023438 204.040283203125 158.86094665527344 C 206.46405029296875 153.19581604003906 194.8632354736328 144.68212890625 193.3797149658203 141.19461059570312 C 189.0748291015625 140.2308349609375 188.81809997558594 137.47048950195312 186.83238220214844 135.96490478515625 C 178.53396606445312 133.0369873046875 179.1201171875 126.64337921142578 183.15310668945312 117.32390594482422 C 179.39036560058594 116.48522186279297 177.39784240722656 117.63859558105469 173.00413513183594 117.76854705810547 C 178.98141479492188 127.91148376464844 175.39004516601562 131.3400115966797 151.73394775390625 130.29368591308594 C 149.7690887451172 126.313232421875 151.69900512695312 103.0030288696289 153.77325439453125 95.32635498046875 C 152.88925170898438 88.84922790527344 153.4484100341797 86.3464584350586 149.87881469726562 76.32561492919922 C 148.24050903320312 75.92662048339844 148.83584594726562 69.32621002197266 151.5972442626953 68.51984405517578" stroke-width="0.0" fill="url(#shape_5_fill)"/>
    <path d="M 612.8340454101562 82.60086059570312 C 618.619384765625 84.15901184082031 619.6342163085938 85.91468048095703 630.8074951171875 85.81368255615234 C 636.1346435546875 86.01766967773438 637.22412109375 87.49594116210938 641.237060546875 88.64443969726562 C 642.1506958007812 87.50847625732422 668.1261596679688 92.25199127197266 673.4349975585938 98.12339782714844 C 673.5553588867188 113.08788299560547 673.2685546875 128.11871337890625 674.6497192382812 150.2725830078125 C 666.5874633789062 141.84315490722656 663.3140258789062 136.17822265625 660.139892578125 129.63832092285156 C 659.69580078125 122.06018829345703 660.0570068359375 116.31208801269531 651.3211059570312 111.22032928466797 C 647.2783813476562 115.54987335205078 644.9421997070312 142.33792114257812 642.2928466796875 143.1383056640625 C 643.5732421875 144.95188903808594 642.5714111328125 148.34657287597656 643.5548706054688 150.49598693847656 C 639.9419555664062 151.0428924560547 637.9317016601562 152.87814331054688 635.3599853515625 152.17881774902344 C 631.43212890625 146.4949493408203 629.1932373046875 141.39401245117188 630.103271484375 140.52842712402344 C 628.88671875 138.11654663085938 622.0943603515625 136.90414428710938 620.9193115234375 138.64500427246094 C 618.235107421875 140.5592803955078 619.3231811523438 142.35984802246094 618.6719970703125 146.28750610351562 C 614.706298828125 144.5606689453125 613.6019287109375 143.1810302734375 610.2919311523438 143.6058807373047 C 608.5457763671875 140.40530395507812 609.5975341796875 139.24368286132812 609.2119750976562 137.48123168945312 C 606.5186157226562 132.37794494628906 604.7806396484375 126.60348510742188 597.7117919921875 128.11915588378906 C 604.8820190429688 134.1852569580078 595.2262573242188 148.5081329345703 591.6078491210938 156.37770080566406 C 590.5925903320312 163.8721466064453 589.2865600585938 164.11508178710938 585.8836059570312 168.5503692626953 C 584.3299560546875 167.64492797851562 583.8900756835938 165.6039581298828 585.8807983398438 158.7363739013672 C 580.2520751953125 156.20877075195312 576.0745849609375 154.80918884277344 575.1461791992188 150.82272338867188 C 564.8421630859375 155.39891052246094 556.314208984375 155.36114501953125 556.1731567382812 151.35482788085938 C 555.8510131835938 152.9231414794922 553.07861328125 154.71002197265625 552.8912353515625 157.76043701171875 C 550.7586669921875 161.59922790527344 547.9979858398438 160.7035369873047 547.3612060546875 159.0849151611328 C 544.3761596679688 156.8739471435547 543.0535278320312 154.63807678222656 537.3214111328125 157.76292419433594 C 534.9569702148438 158.5072021484375 531.1983642578125 157.21205139160156 528.4698486328125 158.2713623046875 C 526.0244750976562 159.2301025390625 526.3800659179688 162.56167602539062 525.1488647460938 165.74371337890625 C 524.4998168945312 169.4291229248047 523.543212890625 171.56732177734375 519.0355224609375 173.08526611328125 C 511.8388977050781 177.30035400390625 505.50347900390625 170.81240844726562 489.8770751953125 163.74229431152344 C 486.0428161621094 139.86082458496094 502.6841735839844 119.48768615722656 512.9425048828125 118.46971130371094 C 529.7516479492188 127.0785140991211 539.7559204101562 108.28611755371094 550.5718383789062 111.78028106689453 C 555.4891967773438 109.97269439697266 560.2359619140625 109.82217407226562 563.8168334960938 106.70834350585938 C 564.6303100585938 104.52967071533203 566.7361450195312 103.63423919677734 569.8670043945312 104.33260345458984 C 574.6312866210938 101.24539184570312 578.394775390625 97.23579406738281 585.8451538085938 97.70889282226562 C 600.538330078125 93.14478302001953 604.9397583007812 80.35437774658203 612.8340454101562 82.60086059570312" stroke-width="0.0" fill="url(#shape_6_fill)"/>
    <path d="M 0.056641072034835815 111.5992660522461 C 28.87924575805664 120.5806655883789 39.01243209838867 127.00598907470703 49.9597053527832 139.9174346923828 C 78.3373031616211 157.78025817871094 51.39591598510742 217.118896484375 47.27558517456055 239.6034393310547 C 51.66067886352539 260.1675109863281 48.5632438659668 264.6331787109375 48.39291763305664 265.76055908203125 C 41.483787536621094 265.4618835449219 14.835359573364258 261.4223327636719 7.89646053314209 258.62152099609375 C 4.524494171142578 210.98580932617188 -3.3350939750671387 165.61753845214844 0.056641072034835815 111.5992660522461" stroke-width="0.0" fill="url(#shape_7_fill)"/>
    <path d="M 385.2563781738281 191.28872680664062 C 417.2688293457031 178.9258575439453 426.9676513671875 191.58038330078125 430.1781921386719 204.26930236816406 C 474.2597351074219 190.54869079589844 496.12811279296875 205.232666015625 491.7095947265625 232.0713348388672 C 490.9918212890625 250.48602294921875 486.2071533203125 251.48915100097656 484.85247802734375 252.37655639648438 C 485.2744445800781 258.1002502441406 483.0795593261719 269.5028991699219 477.54315185546875 268.4678039550781 C 469.04302978515625 272.9302978515625 453.2210388183594 266.7112731933594 451.62353515625 269.7117919921875 C 447.02362060546875 266.280029296875 448.22503662109375 261.2046813964844 449.016845703125 260.1749572753906 C 439.2510986328125 264.76434326171875 436.5123596191406 261.4021301269531 437.43255615234375 256.90643310546875 C 426.2078552246094 256.5989685058594 426.0582580566406 258.1165771484375 421.1863098144531 262.1666259765625 C 418.5271301269531 264.2469177246094 417.5561828613281 267.63482666015625 414.91241455078125 272.639404296875 C 414.10601806640625 273.0470886230469 394.23773193359375 268.3022155761719 392.5887451171875 264.167724609375 C 391.8245849609375 265.100341796875 389.0081787109375 263.3279113769531 386.00823974609375 263.5809020996094 C 382.1150207519531 261.94549560546875 380.8211669921875 263.17919921875 376.538330078125 261.0447998046875 C 374.9407958984375 256.32098388671875 376.15081787109375 252.4581756591797 372.674072265625 249.25796508789062 C 359.49053955078125 243.8391876220703 374.2777404785156 196.07115173339844 378.22021484375 178.8700714111328 C 383.65557861328125 170.61312866210938 393.6170349121094 176.90489196777344 385.2563781738281 191.28872680664062" stroke-width="0.0" fill="url(#shape_8_fill)"/>
    <path d="M 566.0341186523438 157.33836364746094 C 567.9800415039062 159.01280212402344 568.58349609375 167.032958984375 569.065673828125 167.59144592285156 C 573.5198974609375 169.45651245117188 573.6815185546875 170.93260192871094 577.6461791992188 174.3059844970703 C 581.931884765625 172.94320678710938 583.9734497070312 174.5652313232422 583.70703125 179.4731903076172 C 575.3404541015625 180.47747802734375 572.05419921875 225.61634826660156 577.2786865234375 226.9659423828125 C 577.8547973632812 229.99871826171875 581.2846069335938 235.656005859375 576.8916625976562 242.056640625 C 568.6571044921875 238.7489013671875 566.3563842773438 237.22378540039062 558.536865234375 247.06582641601562 C 554.1134643554688 250.489013671875 493.74578857421875 254.24508666992188 488.5599670410156 251.5751495361328 C 485.66253662109375 250.0814971923828 487.0747375488281 239.17031860351562 491.4084777832031 229.30697631835938 C 486.4313659667969 226.259033203125 483.1846618652344 222.28793334960938 481.5800476074219 215.75624084472656 C 476.628173828125 209.80735778808594 479.2401123046875 205.81607055664062 482.7256164550781 205.96527099609375 C 480.00006103515625 205.3242950439453 481.3289489746094 198.80120849609375 487.99420166015625 198.78709411621094 C 491.91070556640625 196.1676025390625 491.8270568847656 192.4982452392578 492.908935546875 187.86508178710938 C 490.4673156738281 174.08267211914062 490.8665771484375 173.06869506835938 488.1081237792969 164.17047119140625 C 504.17474365234375 163.5511932373047 505.56805419921875 167.48255920410156 517.3798828125 166.42994689941406 C 523.2525024414062 169.5503387451172 524.6771850585938 167.4170684814453 526.00634765625 167.30450439453125 C 524.1677856445312 160.75927734375 530.3523559570312 155.7853240966797 533.342529296875 158.6077423095703 C 537.6347045898438 161.84140014648438 541.3916015625 162.45941162109375 542.1900024414062 163.953369140625 C 545.2413330078125 164.056640625 545.9191284179688 165.74951171875 549.6109008789062 166.4809112548828 C 548.8884887695312 165.62747192382812 551.2556762695312 157.32736206054688 554.6194458007812 158.01136779785156 C 557.9756469726562 160.91677856445312 563.04296875 157.82054138183594 566.0341186523438 157.33836364746094" stroke-width="0.0" fill="url(#shape_9_fill)"/>
    <path d="M 561.40380859375 156.36732482910156 C 566.486083984375 153.2729034423828 571.2214965820312 158.58714294433594 570.5842895507812 170.0885009765625 C 572.251953125 169.25262451171875 576.1814575195312 169.20472717285156 579.4851684570312 174.71563720703125 C 579.8497314453125 178.00645446777344 578.724853515625 187.36294555664062 576.928955078125 191.53598022460938 C 571.2700805664062 196.7980499267578 571.9849243164062 229.9724884033203 578.0745849609375 230.9768524169922 C 576.070068359375 231.159423828125 575.6058349609375 236.83473205566406 572.0352172851562 238.0401611328125 C 559.9758911132812 235.94015502929688 567.426025390625 238.62594604492188 563.9039916992188 248.40679931640625 C 550.6119995117188 253.32168579101562 501.2853698730469 249.1771240234375 500.17999267578125 251.5809783935547 C 491.0871276855469 251.80963134765625 487.9115905761719 236.960693359375 491.0256042480469 230.061767578125 C 486.6238098144531 224.92880249023438 481.9851379394531 219.27183532714844 481.5665283203125 215.8067626953125 C 475.638427734375 214.2926788330078 474.76495361328125 213.03822326660156 466.5306091308594 198.30210876464844 C 466.25982666015625 191.38621520996094 474.9023742675781 187.47113037109375 482.21392822265625 195.81304931640625 C 489.9802551269531 196.82054138183594 494.3798522949219 184.15150451660156 496.63031005859375 182.95408630371094 C 495.3555603027344 178.9082489013672 497.5347900390625 177.6293182373047 500.1344299316406 177.46182250976562 C 507.8577880859375 179.16134643554688 516.5542602539062 181.61985778808594 520.3554077148438 174.01625061035156 C 523.1813354492188 173.30206298828125 526.4546508789062 159.1301727294922 531.092041015625 156.23849487304688 C 537.98388671875 156.28115844726562 538.353759765625 160.3201904296875 541.256591796875 165.92105102539062 C 545.7403564453125 165.86502075195312 549.03515625 167.25733947753906 551.2828369140625 165.8171844482422 C 551.13037109375 156.072021484375 553.15771484375 153.0410614013672 561.40380859375 156.36732482910156" stroke-width="0.0" fill="url(#shape_10_fill)"/>
    <path d="M 448.5711975097656 107.74564361572266 C 452.8513488769531 109.9688720703125 454.0755310058594 111.83021545410156 461.7666931152344 112.51531982421875 C 463.87030029296875 117.05950164794922 469.56036376953125 115.8329849243164 477.0581970214844 114.7547607421875 C 488.426513671875 124.5205307006836 488.79827880859375 125.25028991699219 493.7642517089844 129.6399383544922 C 494.005615234375 131.64686584472656 493.07916259765625 135.07652282714844 496.8197937011719 136.34974670410156 C 494.6059875488281 135.16322326660156 492.3733825683594 137.49134826660156 487.29962158203125 140.35704040527344 C 483.08526611328125 136.3939971923828 481.35382080078125 138.1488800048828 476.2408752441406 141.70245361328125 C 467.1752624511719 141.27308654785156 466.9473876953125 139.69386291503906 466.0371398925781 134.39437866210938 C 465.2334289550781 133.49990844726562 460.6820373535156 133.5365753173828 460.0088195800781 134.34133911132812 C 459.6432189941406 136.20826721191406 475.85089111328125 146.70945739746094 489.64825439453125 155.8662109375 C 476.2492980957031 176.6550750732422 475.39215087890625 177.19760131835938 472.6257629394531 181.5891571044922 C 466.8616027832031 182.4096221923828 466.4418640136719 187.0484161376953 464.98089599609375 189.1101531982422 C 463.1346130371094 184.8397674560547 459.9308166503906 175.5431671142578 456.9518737792969 174.8276824951172 C 448.2688903808594 179.3585205078125 447.50213623046875 182.51083374023438 439.9027099609375 183.08450317382812 C 439.4770812988281 183.86338806152344 435.8662414550781 195.69076538085938 434.9192810058594 197.30245971679688 C 429.7089538574219 200.19081115722656 417.4944152832031 180.5846710205078 417.70751953125 179.73541259765625 C 416.9476623535156 179.6265869140625 398.4219055175781 178.17349243164062 398.0029296875 172.58033752441406 C 393.67431640625 170.68418884277344 390.0106506347656 176.4447784423828 380.0026550292969 174.61598205566406 C 380.5484313964844 162.81980895996094 382.9610900878906 146.5272979736328 392.55743408203125 139.1079864501953 C 397.8737487792969 137.2836151123047 399.4104309082031 129.69540405273438 401.9267272949219 121.58747100830078 C 408.116943359375 99.22581481933594 426.3563232421875 103.79153442382812 448.5711975097656 107.74564361572266" stroke-width="0.0" fill="url(#shape_11_fill)"/>
    <path d="M 602.92724609375 127.5962905883789 C 605.4261474609375 131.82420349121094 605.556640625 144.03138732910156 608.0535278320312 144.2200469970703 C 611.3458862304688 145.3328094482422 612.0488891601562 148.4962921142578 615.5642700195312 152.3767547607422 C 618.2246704101562 149.85626220703125 618.4164428710938 141.87347412109375 621.3079223632812 140.9488983154297 C 623.259521484375 137.5016326904297 625.5468139648438 137.4266357421875 627.942626953125 140.27125549316406 C 627.6452026367188 142.1359405517578 629.1522827148438 144.69989013671875 629.0758056640625 147.32537841796875 C 632.120361328125 149.75392150878906 631.7799682617188 151.13389587402344 636.8414306640625 153.2239990234375 C 642.2486572265625 154.65382385253906 641.6424560546875 160.5363006591797 645.493408203125 169.5843505859375 C 638.5892333984375 184.5009002685547 639.6767578125 194.64349365234375 640.0396728515625 206.56256103515625 C 643.9326171875 218.20835876464844 647.0625610351562 231.99337768554688 642.9017944335938 245.6880340576172 C 623.2645874023438 248.47750854492188 611.164794921875 249.04400634765625 579.2779541015625 259.2001647949219 C 570.8361206054688 247.52398681640625 573.1315307617188 232.50489807128906 573.72412109375 219.0422821044922 C 568.1430053710938 209.65548706054688 572.284423828125 168.96995544433594 583.2025756835938 169.8302001953125 C 597.4104614257812 163.2226104736328 599.2922973632812 144.03948974609375 599.7282104492188 142.1640625 C 595.9402465820312 139.4423370361328 596.7137451171875 136.62184143066406 602.92724609375 127.5962905883789" stroke-width="0.0" fill="url(#shape_12_fill)"/>
    <path d="M 410.2383728027344 176.60928344726562 C 420.6740417480469 173.7299041748047 432.53045654296875 212.89039611816406 428.3326721191406 220.42027282714844 C 419.9761962890625 228.40380859375 426.4107666015625 238.3910369873047 428.6810607910156 243.35104370117188 C 430.3858642578125 262.9468688964844 420.9485168457031 265.9422302246094 416.6679382324219 268.2864685058594 C 401.6158142089844 267.84783935546875 398.2866516113281 270.7188720703125 390.38580322265625 267.5539245605469 C 385.4978332519531 264.6531066894531 382.5096435546875 265.8722839355469 380.1541442871094 265.5165710449219 C 375.77838134765625 262.98065185546875 375.5515441894531 260.3583679199219 375.1910400390625 258.39642333984375 C 376.38360595703125 255.02984619140625 375.0699768066406 254.41952514648438 374.6620788574219 253.31527709960938 C 372.67755126953125 254.48101806640625 370.38531494140625 250.85122680664062 368.76727294921875 251.7221221923828 C 359.9039306640625 247.92457580566406 366.4100036621094 229.0003662109375 367.597412109375 220.93186950683594 C 368.98193359375 218.7633819580078 372.4252624511719 202.866943359375 381.3038330078125 203.22299194335938 C 379.1637268066406 198.97637939453125 380.1416320800781 188.24205017089844 390.7468566894531 185.58242797851562 C 391.70660400390625 176.8030548095703 392.8736877441406 176.85723876953125 410.2383728027344 176.60928344726562" stroke-width="0.0" fill="url(#shape_13_fill)"/>
    <path d="M 509.02825927734375 66.87200164794922 C 512.6210327148438 66.08695983886719 521.422607421875 70.07978820800781 523.3298950195312 74.7135009765625 C 530.7219848632812 79.40109252929688 533.7305908203125 80.01891326904297 536.703125 90.33843231201172 C 539.3016357421875 90.88439178466797 544.5418701171875 90.3031234741211 545.0235595703125 91.1702651977539 C 545.5333862304688 92.75695037841797 556.017578125 97.10060119628906 561.3685913085938 95.30097961425781 C 563.6734008789062 97.47843170166016 567.3461303710938 97.50867462158203 568.7407836914062 99.18323516845703 C 564.65869140625 105.12149047851562 555.7050170898438 115.55940246582031 543.037841796875 110.8990249633789 C 541.413330078125 111.85249328613281 539.30078125 114.91007995605469 534.7925415039062 118.37873840332031 C 527.76953125 120.62200927734375 519.6520385742188 124.70911407470703 515.5848388671875 118.95417022705078 C 510.8244323730469 119.77643585205078 501.4368591308594 125.44513702392578 499.047607421875 125.03776550292969 C 497.09539794921875 128.40980529785156 493.6783752441406 128.37850952148438 489.4710388183594 127.53459930419922 C 489.5228576660156 122.02894592285156 468.80535888671875 118.9162368774414 468.08282470703125 117.92806243896484 C 463.53021240234375 117.73299407958984 462.9595947265625 116.72956848144531 462.1003112792969 115.96746063232422 C 468.9919738769531 116.383056640625 471.71063232421875 110.19573211669922 478.2019958496094 105.55249786376953 C 475.2861633300781 92.1960678100586 473.1894226074219 87.7327651977539 475.2801818847656 82.13058471679688 C 474.5901184082031 70.93414306640625 475.34326171875 70.38678741455078 478.5072326660156 66.51121520996094 C 478.97344970703125 64.19029235839844 482.7041931152344 64.2651596069336 484.6405029296875 63.34765625 C 494.9772033691406 63.792659759521484 501.7525329589844 61.552513122558594 509.02825927734375 66.87200164794922" stroke-width="0.0" fill="url(#shape_14_fill)"/>
    <path d="M 532.279296875 159.99546813964844 C 543.8358154296875 162.80303955078125 544.10693359375 163.73431396484375 547.1351318359375 165.17730712890625 C 549.6590576171875 167.6439666748047 549.5879516601562 170.2908477783203 543.9193115234375 180.10995483398438 C 541.8950805664062 189.73748779296875 536.8323364257812 231.14828491210938 536.4261474609375 233.4612579345703 C 540.599853515625 237.1974334716797 540.92041015625 250.47671508789062 515.4884643554688 252.19647216796875 C 501.9615783691406 251.30633544921875 483.20489501953125 244.9918975830078 487.9136657714844 230.64955139160156 C 476.9757080078125 218.22207641601562 478.66351318359375 208.00340270996094 482.82470703125 200.80548095703125 C 486.812744140625 197.44512939453125 488.54345703125 197.56800842285156 488.75189208984375 197.84536743164062 C 483.6172790527344 194.6199188232422 488.29034423828125 180.59605407714844 487.92083740234375 172.7113800048828 C 486.83697509765625 168.40150451660156 488.6145935058594 165.92330932617188 492.0602722167969 167.22096252441406 C 505.6640319824219 178.77224731445312 511.1228942871094 184.16407775878906 522.7301635742188 172.7200164794922 C 525.55126953125 170.9595184326172 525.540771484375 167.30914306640625 526.9537963867188 165.0872802734375 C 526.3817749023438 159.37159729003906 528.0792236328125 157.35252380371094 532.279296875 159.99546813964844" stroke-width="0.0" fill="url(#shape_15_fill)"/>
    <path d="M 651.8932495117188 110.1139907836914 C 654.0087890625 110.43728637695312 663.2454833984375 121.78823852539062 660.1632080078125 130.18971252441406 C 664.708740234375 134.80386352539062 665.0148315429688 141.85800170898438 673.3792724609375 148.4571075439453 C 676.7448120117188 179.011962890625 673.4822387695312 211.6171875 674.4542846679688 259.7978820800781 C 673.3202514648438 257.8809509277344 643.5579223632812 265.3138732910156 637.0670776367188 255.89486694335938 C 637.0797729492188 245.6019744873047 641.2459106445312 123.56832122802734 651.8932495117188 110.1139907836914" stroke-width="0.0" fill="url(#shape_16_fill)"/>
    <path d="M 600.9131469726562 129.8069610595703 C 603.1524047851562 128.3551483154297 607.1058349609375 132.0457763671875 606.3235473632812 134.00161743164062 C 608.1799926757812 135.060302734375 607.5336303710938 140.3050994873047 609.5831298828125 143.14138793945312 C 626.6788940429688 143.03073120117188 628.520263671875 222.21856689453125 628.8799438476562 257.7375183105469 C 592.505615234375 262.34466552734375 577.7944946289062 254.56175231933594 579.8622436523438 236.55630493164062 C 564.0800170898438 227.07530212402344 597.7225952148438 154.46145629882812 600.9131469726562 129.8069610595703" stroke-width="0.0" fill="url(#shape_17_fill)"/>
    <path d="M 320.65240478515625 186.33961486816406 C 320.5953674316406 186.5262908935547 322.4248962402344 189.51646423339844 320.4043273925781 197.2380828857422 C 333.1205139160156 193.4596405029297 335.6895446777344 192.36898803710938 337.8880920410156 195.30458068847656 C 341.34576416015625 199.87522888183594 346.4393005371094 197.89651489257812 353.7304992675781 195.6683349609375 C 357.99591064453125 194.4634552001953 358.7440185546875 195.994140625 357.2336120605469 201.5181121826172 C 359.4200134277344 204.0603790283203 361.4781799316406 204.27023315429688 362.7888488769531 208.15028381347656 C 367.25396728515625 207.08151245117188 368.48504638671875 208.2345428466797 368.2579040527344 211.83799743652344 C 370.1081237792969 220.53831481933594 371.1698913574219 222.787841796875 365.8817138671875 225.75469970703125 C 366.6335754394531 231.55926513671875 364.9763488769531 235.84425354003906 366.9789733886719 249.02857971191406 C 368.9363098144531 251.86770629882812 366.3575439453125 256.21832275390625 358.0196228027344 254.7720947265625 C 354.335205078125 255.51272583007812 330.0246887207031 254.9146728515625 322.2959289550781 255.3385467529297 C 313.402099609375 255.97894287109375 312.17974853515625 253.5457305908203 307.6825866699219 242.388916015625 C 304.4638366699219 230.0954132080078 321.0729064941406 194.5247039794922 320.65240478515625 186.33961486816406" stroke-width="0.0" fill="url(#shape_18_fill)"/>
    <path d="M 478.70159912109375 216.9025421142578 C 495.15765380859375 248.27410888671875 506.3001403808594 259.2676696777344 488.6749267578125 277.2651062011719 C 470.7693176269531 279.16461181640625 444.0061340332031 261.4178771972656 442.1337585449219 261.7259521484375 C 438.63299560546875 260.647705078125 437.1232604980469 258.25946044921875 432.52294921875 258.1173400878906 C 429.54071044921875 258.3520812988281 427.81634521484375 257.2500305175781 428.5193176269531 253.9751434326172 C 429.5203857421875 238.45138549804688 422.053466796875 232.0254364013672 422.95513916015625 229.65234375 C 422.9477844238281 227.24014282226562 421.2078552246094 226.5496063232422 420.134521484375 225.29652404785156 C 427.7295837402344 219.52532958984375 429.6858825683594 218.81207275390625 428.9786376953125 215.3431396484375 C 438.6829833984375 196.0844268798828 472.45367431640625 198.58229064941406 478.70159912109375 216.9025421142578" stroke-width="0.0" fill="url(#shape_19_fill)"/>
    <path d="M 673.9053344726562 -2.953809976577759 C 675.0552978515625 32.860198974609375 674.582763671875 64.76436614990234 674.3557739257812 97.2153091430664 C 669.6475830078125 96.1300048828125 652.4654541015625 87.3705825805664 643.9512329101562 90.05258178710938 C 638.6329956054688 89.54983520507812 638.1642456054688 85.9206771850586 637.56787109375 84.46870422363281 C 625.7093505859375 84.1694564819336 619.687744140625 93.13676452636719 608.4837036132812 86.5809097290039 C 609.5718383789062 74.53976440429688 612.9338989257812 74.15298461914062 614.961669921875 71.87692260742188 C 622.5147705078125 68.82923889160156 649.0336303710938 25.313976287841797 648.3658447265625 22.232919692993164 C 655.85107421875 11.396902084350586 656.2033081054688 3.4568190574645996 668.234375 3.967210292816162 C 669.8034057617188 2.673861503601074 670.1549682617188 1.118299961090088 673.9053344726562 -2.953809976577759" stroke-width="0.0" fill="url(#shape_20_fill)"/>
    <path d="M 562.2146606445312 155.95526123046875 C 569.8348999023438 156.54873657226562 569.8663330078125 162.15213012695312 574.432861328125 165.1834259033203 C 585.3369750976562 168.2903594970703 575.6484375 231.2344512939453 577.5645141601562 240.8468475341797 C 575.9028930664062 244.71258544921875 573.7975463867188 246.97567749023438 573.8173217773438 255.67442321777344 C 558.204345703125 252.08433532714844 543.0431518554688 251.51136779785156 540.0484619140625 246.2369384765625 C 544.3392333984375 244.7134246826172 540.9991455078125 165.4154815673828 555.0172729492188 157.93638610839844 C 555.6493530273438 153.4634246826172 558.690673828125 152.75967407226562 562.2146606445312 155.95526123046875" stroke-width="0.0" fill="url(#shape_21_fill)"/>
    <path d="M 215.0016326904297 209.57186889648438 C 232.62525939941406 209.61500549316406 232.9344940185547 242.17080688476562 219.8392333984375 255.68150329589844 C 211.8618927001953 263.3309326171875 210.0506134033203 264.5849609375 209.03057861328125 273.3570251464844 C 205.9446563720703 275.3778991699219 206.76951599121094 277.1087646484375 207.032470703125 280.1352844238281 C 206.96157836914062 283.1256408691406 203.9093017578125 285.43560791015625 200.5067138671875 284.92132568359375 C 200.24278259277344 283.4546203613281 190.6180877685547 272.84417724609375 187.85289001464844 265.22442626953125 C 186.64382934570312 261.4919128417969 183.7495880126953 262.28143310546875 181.5180206298828 261.8747863769531 C 180.7400360107422 260.6815185546875 179.96751403808594 260.531494140625 178.81410217285156 253.8526153564453 C 179.80380249023438 248.54551696777344 169.1174774169922 242.97445678710938 170.8157196044922 238.1390380859375 C 175.70545959472656 213.2324676513672 177.64044189453125 213.33665466308594 185.70858764648438 220.623779296875 C 193.93722534179688 219.20803833007812 194.2852020263672 215.47137451171875 198.1830596923828 213.32196044921875 C 187.66525268554688 207.88162231445312 187.3275909423828 202.09852600097656 197.03285217285156 197.36013793945312 C 213.7275848388672 197.4757843017578 214.78680419921875 200.34228515625 215.0016326904297 209.57186889648438" stroke-width="0.0" fill="url(#shape_22_fill)"/>
    <path d="M 111.55550384521484 426.3780212402344 C 112.72464752197266 429.2774963378906 110.99932098388672 431.1878356933594 110.66667175292969 431.6092834472656 C 104.69734954833984 432.9358825683594 102.96406555175781 433.7777404785156 91.87016296386719 432.9717102050781 C 89.76065063476562 435.9654846191406 95.68301391601562 446.421630859375 91.63066101074219 452.1399841308594 C 78.66380310058594 444.9972229003906 46.938175201416016 447.9271240234375 24.994924545288086 449.64404296875 C 14.00949478149414 446.2659606933594 13.877619743347168 439.777099609375 17.845888137817383 436.403564453125 C 34.227046966552734 427.65692138671875 50.538211822509766 427.005859375 70.75370788574219 427.11273193359375 C 74.6629867553711 424.99786376953125 109.76765441894531 419.4660339355469 111.55550384521484 426.3780212402344" stroke-width="0.0" fill="url(#shape_23_fill)"/>
    <path d="M 194.2179412841797 123.49397277832031 C 199.88763427734375 124.75666809082031 210.6303253173828 144.27853393554688 214.44503784179688 145.1033477783203 C 215.58880615234375 148.10694885253906 218.52239990234375 149.71731567382812 220.19129943847656 153.57937622070312 C 227.10299682617188 158.40716552734375 248.42593383789062 178.4155731201172 244.63262939453125 199.51992797851562 C 239.20489501953125 199.53868103027344 235.5660858154297 187.03958129882812 232.70193481445312 180.64915466308594 C 234.3903045654297 185.736083984375 233.5248260498047 196.4956817626953 231.3204345703125 196.5878143310547 C 225.75228881835938 199.3149871826172 225.21466064453125 202.28997802734375 220.37132263183594 208.56968688964844 C 215.19082641601562 207.65403747558594 213.63055419921875 199.42535400390625 213.94940185546875 196.06033325195312 C 212.68243408203125 189.6053924560547 212.59242248535156 183.05892944335938 206.74118041992188 178.27642822265625 C 203.9766082763672 174.0269317626953 205.05953979492188 173.02896118164062 205.58189392089844 166.88180541992188 C 201.9202880859375 147.72531127929688 200.51490783691406 147.6862030029297 192.62261962890625 144.2356414794922 C 189.1966552734375 142.28781127929688 191.08766174316406 128.33917236328125 194.2179412841797 123.49397277832031" stroke-width="0.0" fill="url(#shape_24_fill)"/>
    <path d="M 595.8934326171875 410.715087890625 C 598.3268432617188 411.5418395996094 626.5599365234375 408.88665771484375 628.5084838867188 415.48992919921875 C 628.2184448242188 421.04913330078125 626.791748046875 425.1565246582031 628.9025268554688 426.6610412597656 C 631.10205078125 428.6042785644531 636.2141723632812 427.5951232910156 638.5059204101562 437.61883544921875 C 617.3937377929688 446.7569885253906 577.4898071289062 439.7919921875 573.8406982421875 434.0360412597656 C 567.6591796875 426.0458679199219 574.4475708007812 419.7662048339844 576.3333740234375 413.95318603515625 C 579.6672973632812 409.3943786621094 587.13427734375 412.9954528808594 595.8934326171875 410.715087890625" stroke-width="0.0" fill="url(#shape_25_fill)"/>
    <path d="M 142.90765380859375 66.70710754394531 C 144.08004760742188 68.93091583251953 149.16944885253906 68.33132934570312 149.62950134277344 69.14117431640625 C 148.90478515625 70.9006576538086 150.46170043945312 71.8251724243164 149.76336669921875 73.8670654296875 C 151.0552978515625 74.450927734375 150.20425415039062 78.37480163574219 150.60330200195312 80.99201202392578 C 152.3490753173828 89.29901885986328 152.80099487304688 97.68093872070312 153.93923950195312 104.1021499633789 C 153.5184326171875 107.62057495117188 155.10694885253906 108.52133178710938 155.21133422851562 111.42800903320312 C 158.1832733154297 123.41313171386719 155.3710479736328 133.5126953125 150.37417602539062 133.58477783203125 C 142.9820556640625 126.9139633178711 137.17446899414062 120.2894515991211 125.7583999633789 117.22359466552734 C 122.51306915283203 114.27593231201172 124.57727813720703 109.67589569091797 126.81205749511719 107.00470733642578 C 128.8251495361328 106.84992980957031 128.8755645751953 105.28146362304688 132.63482666015625 104.67451477050781 C 138.94287109375 96.44354248046875 134.82980346679688 93.1361312866211 133.3029327392578 90.04452514648438 C 134.2102508544922 88.90167999267578 139.2942657470703 87.22671508789062 140.056396484375 85.31829071044922 C 138.09970092773438 84.7485580444336 138.70957946777344 77.6451644897461 139.49684143066406 77.47844696044922 C 143.55027770996094 76.59681701660156 142.64552307128906 70.3174819946289 142.90765380859375 66.70710754394531" stroke-width="0.0" fill="url(#shape_26_fill)"/>
    <path d="M 140.78024291992188 67.97257995605469 C 148.89857482910156 67.12030029296875 149.8996124267578 68.32920837402344 148.56158447265625 76.45774841308594 C 150.90220642089844 77.80116271972656 151.23495483398438 80.4386978149414 154.4102020263672 85.05203247070312 C 150.37281799316406 91.05101013183594 154.5199737548828 93.90343475341797 151.8329315185547 104.71735382080078 C 153.2050323486328 105.67732238769531 153.3072967529297 109.34253692626953 155.4903106689453 112.9849853515625 C 152.9390869140625 116.77012634277344 157.5825958251953 122.0382308959961 154.70083618164062 126.25904083251953 C 152.62049865722656 132.03909301757812 151.34446716308594 133.1731414794922 147.46380615234375 133.7590789794922 C 141.53204345703125 131.88645935058594 128.10430908203125 120.94654083251953 129.53125 118.28693389892578 C 124.84956359863281 118.70575714111328 122.2342529296875 114.08586883544922 128.26622009277344 110.43688201904297 C 123.42097473144531 108.51631927490234 124.21009826660156 105.5612564086914 133.4863739013672 107.12831115722656 C 136.44549560546875 105.6662368774414 134.02049255371094 92.86247253417969 133.59808349609375 89.42091369628906 C 139.5875701904297 87.55345916748047 138.7310791015625 84.82987976074219 138.53475952148438 81.62179565429688 C 139.0783233642578 77.50914764404297 140.365478515625 76.80049133300781 141.9460906982422 77.2838134765625 C 145.5168914794922 73.11898803710938 142.62535095214844 70.28890991210938 140.78024291992188 67.97257995605469" stroke-width="0.0" fill="url(#shape_27_fill)"/>
    <path d="M -0.3175913691520691 -0.27063068747520447 C 4.69984769821167 0.38097772002220154 9.646782875061035 -0.5254880785942078 19.84716796875 -0.8223341107368469 C 23.744436264038086 -0.1649407297372818 24.133872985839844 1.7015587091445923 41.244300842285156 9.15513801574707 C 37.26408767700195 25.528339385986328 28.096580505371094 26.037841796875 27.130250930786133 23.594318389892578 C 43.218223571777344 22.00162696838379 50.78057861328125 22.286678314208984 52.25487518310547 45.35669708251953 C 37.03443908691406 47.695899963378906 30.6539249420166 48.01344680786133 22.593935012817383 44.78950881958008 C 16.582801818847656 38.948978424072266 11.301641464233398 38.26314926147461 10.112748146057129 33.76477813720703 C 9.895840644836426 35.63296127319336 13.976926803588867 39.64352798461914 15.10373306274414 41.233253479003906 C 15.689541816711426 42.07764434814453 15.219432830810547 44.57387161254883 18.154258728027344 47.88590621948242 C 20.068994522094727 51.071983337402344 18.755523681640625 52.3087043762207 20.579204559326172 57.14664077758789 C 20.739913940429688 63.582862854003906 14.531601905822754 65.55140686035156 8.749693870544434 61.310298919677734 C 5.496650218963623 60.88460922241211 3.534226655960083 59.14116668701172 0.3247112035751343 59.43366622924805 C -0.3176466226577759 39.77886962890625 -0.3248618245124817 19.628297805786133 -0.3175913691520691 -0.27063068747520447" stroke-width="0.0" fill="url(#shape_28_fill)"/>
    <path d="M 299.4762268066406 197.42056274414062 C 297.53802490234375 199.25001525878906 300.0027160644531 202.14324951171875 301.56512451171875 208.0750732421875 C 299.1510314941406 212.5555877685547 322.9627990722656 228.21998596191406 315.52960205078125 255.22764587402344 C 311.79571533203125 254.28646850585938 310.4777526855469 255.82542419433594 304.5732727050781 255.01417541503906 C 300.8310852050781 258.23211669921875 295.1122741699219 258.3466491699219 281.09942626953125 256.1018371582031 C 280.1248474121094 228.90956115722656 285.3036804199219 217.08609008789062 299.4762268066406 197.42056274414062" stroke-width="0.0" fill="url(#shape_29_fill)"/>
    <path d="M -0.0008447511354461312 -0.00520737748593092 C 4.47749662399292 0.4461539387702942 9.6174955368042 -0.41460469365119934 14.577698707580566 0.12746867537498474 C 15.760986328125 0.49206438660621643 16.26687240600586 5.030326843261719 16.263961791992188 8.049039840698242 C 18.910001754760742 10.836152076721191 21.97615623474121 18.903440475463867 27.013216018676758 20.74958038330078 C 27.122467041015625 22.492929458618164 24.43587875366211 26.79811668395996 24.598480224609375 32.024139404296875 C 20.259321212768555 32.08589172363281 14.12761116027832 30.37264060974121 7.019083023071289 33.924720764160156 C 9.088614463806152 35.887760162353516 8.790898323059082 38.72516632080078 10.855045318603516 40.463836669921875 C 10.030660629272461 44.61874008178711 7.787006378173828 50.232704162597656 11.556950569152832 53.84962463378906 C 17.708152770996094 51.46295166015625 19.525245666503906 51.980560302734375 18.277246475219727 58.500675201416016 C 11.299538612365723 60.39262008666992 9.418567657470703 62.55307388305664 0.20992912352085114 61.44357681274414 C -0.41832759976387024 39.962284088134766 -0.3544520437717438 19.754499435424805 -0.0008447511354461312 -0.00520737748593092" stroke-width="0.0" fill="url(#shape_30_fill)"/>
    <path d="M 547.3505859375 70.31745910644531 C 545.880615234375 77.12083435058594 576.7617797851562 89.47745513916016 581.4983520507812 91.49227142333984 C 580.8017578125 92.54236602783203 577.2489013671875 93.27839660644531 576.8734130859375 98.16519927978516 C 573.2606201171875 100.71563720703125 572.075439453125 99.83432006835938 569.2828979492188 100.01630401611328 C 567.344482421875 95.69810485839844 545.1945190429688 96.42713928222656 538.58740234375 88.42599487304688 C 538.5923461914062 85.44910430908203 537.646484375 83.2184829711914 535.662353515625 82.43667602539062 C 534.7169189453125 79.66580963134766 528.3267211914062 79.66595458984375 527.05078125 78.3840103149414 C 525.2885131835938 75.78842163085938 527.7608032226562 70.856201171875 532.6480712890625 69.27864074707031 C 538.1148681640625 66.82219696044922 541.063232421875 71.07693481445312 547.3505859375 70.31745910644531" stroke-width="0.0" fill="url(#shape_31_fill)"/>
    <path d="M 447.6611633300781 264.2792663574219 C 450.6827087402344 265.2591857910156 451.3061218261719 266.71722412109375 455.93096923828125 267.69732666015625 C 460.5113830566406 267.6551208496094 465.32232666015625 270.3759765625 469.92340087890625 273.1998596191406 C 470.4340515136719 275.63104248046875 471.826416015625 276.8917541503906 471.6768798828125 280.767822265625 C 450.88934326171875 288.8045654296875 429.424560546875 285.0004577636719 415.8996887207031 284.66937255859375 C 413.41717529296875 273.9114990234375 415.1785888671875 272.3447265625 415.6541442871094 268.22784423828125 C 418.1906433105469 267.2078552246094 417.77655029296875 264.80621337890625 419.35205078125 263.08770751953125 C 433.5057678222656 254.10565185546875 445.51226806640625 254.97889709472656 447.6611633300781 264.2792663574219" stroke-width="0.0" fill="url(#shape_32_fill)"/>
    <path d="M 271.9705810546875 192.58047485351562 C 276.83099365234375 191.79197692871094 285.52825927734375 243.67453002929688 280.8133850097656 244.6632080078125 C 279.2695007324219 247.29151916503906 273.8438415527344 246.88290405273438 269.7912292480469 248.5371551513672 C 266.4140319824219 245.951171875 266.7659606933594 242.05569458007812 261.166259765625 240.7462921142578 C 254.19845581054688 210.500732421875 262.3342590332031 207.140869140625 271.9705810546875 192.58047485351562" stroke-width="0.0" fill="url(#shape_33_fill)"/>
    <path d="M 261.49285888671875 417.6504211425781 C 260.5595703125 423.61431884765625 265.2925720214844 430.1458435058594 267.73028564453125 440.224853515625 C 262.1864929199219 441.5736083984375 261.0736999511719 446.5883483886719 255.26437377929688 447.8132629394531 C 246.0828857421875 445.752685546875 218.5325469970703 448.112548828125 212.57838439941406 444.71630859375 C 213.02471923828125 436.99578857421875 213.95974731445312 436.2222900390625 215.93690490722656 434.48565673828125 C 216.19119262695312 433.423095703125 225.01832580566406 433.4541320800781 226.6062469482422 430.33587646484375 C 228.66397094726562 420.00634765625 239.69984436035156 420.49200439453125 261.49285888671875 417.6504211425781" stroke-width="0.0" fill="url(#shape_34_fill)"/>
    <path d="M 106.11961364746094 69.81324768066406 C 109.56598663330078 69.85621643066406 111.64420318603516 79.00092315673828 112.19886779785156 84.52405548095703 C 117.25874328613281 85.3347396850586 117.36469268798828 110.27596282958984 117.80220794677734 110.83343505859375 C 116.82623291015625 112.70508575439453 111.67011260986328 114.48554992675781 107.09244537353516 123.63356018066406 C 104.75723266601562 117.19950103759766 96.52881622314453 118.80644989013672 90.85334014892578 112.33995056152344 C 89.0711898803711 85.48794555664062 104.6937255859375 84.43648529052734 106.11961364746094 69.81324768066406" stroke-width="0.0" fill="url(#shape_35_fill)"/>
    <path d="M 451.48028564453125 178.59793090820312 C 453.3182678222656 176.40394592285156 456.44573974609375 177.68475341796875 455.7266540527344 180.23779296875 C 456.4449462890625 180.621337890625 456.0496826171875 185.0625 456.7773132324219 185.81517028808594 C 455.74560546875 188.62234497070312 458.62908935546875 194.3463134765625 459.8914794921875 204.8116455078125 C 459.3704833984375 208.4675750732422 452.085693359375 209.29519653320312 445.7070007324219 204.5124053955078 C 441.9495849609375 207.35557556152344 440.6208190917969 208.85362243652344 433.2619323730469 210.96881103515625 C 434.2988586425781 209.91390991210938 437.3133239746094 189.3278350830078 438.86334228515625 179.87757873535156 C 440.3984069824219 179.66224670410156 444.234619140625 181.0130157470703 446.5218811035156 180.6365966796875 C 447.7404479980469 179.2892608642578 450.0897216796875 179.54124450683594 451.48028564453125 178.59793090820312" stroke-width="0.0" fill="url(#shape_36_fill)"/>
    <path d="M 557.7687377929688 84.70318603515625 C 562.5960693359375 80.9516830444336 578.558349609375 82.47290802001953 580.1282958984375 85.82801818847656 C 581.4681396484375 83.86817169189453 586.3832397460938 85.46540069580078 587.1803588867188 88.69602966308594 C 595.5119018554688 98.96858978271484 587.7655639648438 107.39904022216797 574.385009765625 100.2569580078125 C 573.7901000976562 99.41244506835938 552.4711303710938 95.26133728027344 543.22021484375 85.42747497558594 C 538.5653076171875 85.4100341796875 537.7987670898438 81.81968688964844 535.7169189453125 80.13993072509766 C 542.85595703125 74.99959564208984 547.6552124023438 78.47574615478516 557.7687377929688 84.70318603515625" stroke-width="0.0" fill="url(#shape_37_fill)"/>
    <path d="M 252.14390563964844 208.32362365722656 C 265.1140441894531 211.27609252929688 261.6075439453125 240.90074157714844 260.4453430175781 247.8755340576172 C 259.3388366699219 254.58743286132812 250.91343688964844 254.4358367919922 249.05165100097656 257.7626037597656 C 234.31072998046875 237.46292114257812 240.62197875976562 213.4151153564453 252.14390563964844 208.32362365722656" stroke-width="0.0" fill="url(#shape_38_fill)"/>
    <path d="M 443.337646484375 263.5667724609375 C 445.9782409667969 263.4734191894531 449.13873291015625 266.5994567871094 447.724853515625 270.0533142089844 C 444.2144775390625 270.34674072265625 442.6077880859375 277.04913330078125 440.9645080566406 279.1542663574219 C 439.84954833984375 286.0065612792969 423.82916259765625 284.78228759765625 418.4729919433594 276.1825866699219 C 414.6182556152344 276.74468994140625 413.26129150390625 274.2518310546875 415.8636474609375 271.65411376953125 C 415.1629333496094 269.945068359375 419.23114013671875 262.213623046875 425.9051818847656 258.2525939941406 C 427.2436218261719 256.3218688964844 437.9714660644531 258.0138244628906 443.337646484375 263.5667724609375" stroke-width="0.0" fill="url(#shape_39_fill)"/>
    <path d="M 407.7331237792969 409.7860412597656 C 408.6838684082031 409.8839111328125 416.7835693359375 419.0364990234375 413.6640625 424.1996154785156 C 400.4649353027344 436.1766662597656 385.4422302246094 420.236083984375 376.62158203125 420.84283447265625 C 371.07635498046875 417.9530944824219 371.2513122558594 416.5574951171875 372.5895080566406 410.478759765625 C 375.1103515625 401.20379638671875 395.12567138671875 403.5872802734375 407.7331237792969 409.7860412597656" stroke-width="0.0" fill="url(#shape_40_fill)"/>
    <path d="M 66.44597625732422 427.5809326171875 C 67.39986419677734 429.1175842285156 64.82770538330078 434.5953063964844 58.24078369140625 435.8348083496094 C 58.13809585571289 436.9560546875 40.13303756713867 436.344482421875 31.819198608398438 442.77349853515625 C 29.193981170654297 443.0423583984375 26.969371795654297 444.0218811035156 17.203489303588867 443.2135314941406 C 16.44582748413086 440.648681640625 17.775503158569336 439.2055969238281 17.265514373779297 437.87213134765625 C 34.539955139160156 427.4231872558594 54.874290466308594 427.7820129394531 66.44597625732422 427.5809326171875" stroke-width="0.0" fill="url(#shape_41_fill)"/>
    <path d="M 278.25836181640625 380.96539306640625 C 284.66937255859375 381.2835388183594 297.9503173828125 381.2059326171875 304.247314453125 385.1427307128906 C 297.33984375 394.9646911621094 299.3284606933594 400.9118957519531 294.3851013183594 404.97027587890625 C 291.7362365722656 399.6950378417969 265.4715881347656 405.1322937011719 258.5467834472656 406.3995056152344 C 249.53628540039062 404.1590270996094 247.13357543945312 393.8299560546875 249.74620056152344 382.44378662109375 C 260.86962890625 381.0848693847656 267.4289855957031 382.15240478515625 278.25836181640625 380.96539306640625" stroke-width="0.0" fill="url(#shape_42_fill)"/>
    <path d="M 222.69970703125 215.081787109375 C 223.8926544189453 213.83065795898438 234.94747924804688 213.29222106933594 239.90357971191406 215.50450134277344 C 242.0254669189453 221.43081665039062 247.83963012695312 240.22799682617188 249.33030700683594 266.3676452636719 C 248.1867218017578 272.0962219238281 240.5236053466797 272.38629150390625 209.8331298828125 272.1763000488281 C 206.72216796875 266.5141296386719 206.0068817138672 257.5624694824219 217.01663208007812 247.92977905273438 C 219.42422485351562 246.4724578857422 218.10409545898438 226.42373657226562 222.69970703125 215.081787109375" stroke-width="0.0" fill="url(#shape_43_fill)"/>
    <path d="M 483.81964111328125 395.7214660644531 C 486.8101806640625 399.8025817871094 485.8240051269531 400.9862365722656 483.5218505859375 401.167724609375 C 473.50152587890625 407.1341857910156 451.1646423339844 406.7511901855469 450.2481689453125 407.65594482421875 C 448.0645751953125 404.4149169921875 451.59136962890625 396.1722717285156 453.6086120605469 396.484619140625 C 463.4413757324219 393.0856018066406 472.3852844238281 392.7353210449219 483.81964111328125 395.7214660644531" stroke-width="0.0" fill="url(#shape_44_fill)"/>
    <path d="M 45.81650924682617 407.9117431640625 C 45.33488845825195 408.66107177734375 35.749046325683594 411.49981689453125 34.04497528076172 413.3742370605469 C 32.687808990478516 414.5819396972656 32.38032913208008 416.04833984375 28.796791076660156 415.6698913574219 C 27.69142723083496 417.3650207519531 25.07902717590332 417.9444274902344 21.576370239257812 420.5336608886719 C 18.082603454589844 420.148681640625 0.28260061144828796 417.28375244140625 -0.7617171406745911 420.5223388671875 C 1.817434549331665 419.6689453125 -0.7476933002471924 411.15716552734375 0.6828345656394958 410.4233093261719 C 8.298250198364258 408.856201171875 45.45552062988281 406.7997131347656 45.81650924682617 407.9117431640625" stroke-width="0.0" fill="url(#shape_45_fill)"/>
    <path d="M 451.9502258300781 175.1622772216797 C 454.6859130859375 174.92955017089844 464.5429382324219 198.86807250976562 465.6529235839844 200.54446411132812 C 462.59423828125 209.6046142578125 451.683837890625 209.54080200195312 449.4719543457031 206.71348571777344 C 448.3247985839844 203.2513885498047 449.0391540527344 198.3140869140625 448.8489990234375 195.30018615722656 C 447.95111083984375 194.55357360839844 447.6005554199219 192.14344787597656 448.51104736328125 188.0198974609375 C 451.01800537109375 186.64991760253906 450.7327880859375 182.98744201660156 451.9502258300781 175.1622772216797" stroke-width="0.0" fill="url(#shape_46_fill)"/>
    <path d="M 372.9917297363281 185.32913208007812 C 378.8391418457031 195.83572387695312 380.3271484375 202.52374267578125 371.35369873046875 206.10842895507812 C 365.8646545410156 206.8234405517578 364.772216796875 204.85569763183594 362.0355224609375 204.72695922851562 C 346.37274169921875 208.48324584960938 342.924560546875 201.32794189453125 354.0434875488281 188.39437866210938 C 356.6547546386719 184.9619598388672 358.369140625 184.41102600097656 368.10162353515625 185.45152282714844 C 368.962158203125 183.6312255859375 372.7923889160156 183.4159698486328 372.9917297363281 185.32913208007812" stroke-width="0.0" fill="url(#shape_47_fill)"/>
    <path d="M 470.9222106933594 263.71942138671875 C 475.2195129394531 267.7538757324219 480.63568115234375 268.5675048828125 480.0592956542969 284.71923828125 C 465.2507629394531 287.5023193359375 452.6984558105469 286.23126220703125 443.7887268066406 284.931884765625 C 439.303955078125 282.2337951660156 440.0000305175781 276.95806884765625 441.18231201171875 276.4602355957031 C 447.9502258300781 266.7565002441406 455.53997802734375 263.6690979003906 470.9222106933594 263.71942138671875" stroke-width="0.0" fill="url(#shape_48_fill)"/>
    <path d="M 177.17799377441406 117.43270111083984 C 178.1678924560547 115.64578247070312 181.86318969726562 116.23020935058594 182.6847381591797 117.29131317138672 C 184.6817169189453 120.2518310546875 183.85153198242188 122.35150146484375 184.74713134765625 122.86256408691406 C 179.59234619140625 126.68023681640625 185.80369567871094 136.53521728515625 183.0861053466797 139.93922424316406 C 181.4551239013672 146.52981567382812 172.80563354492188 146.17715454101562 171.90509033203125 146.67095947265625 C 171.45884704589844 126.97940826416016 170.6135711669922 124.62610626220703 177.17799377441406 117.43270111083984" stroke-width="0.0" fill="url(#shape_49_fill)"/>
    <path d="M 333.8666076660156 428.0982360839844 C 337.2655334472656 428.6103820800781 341.25848388671875 429.02130126953125 343.0031433105469 431.9573669433594 C 346.3623352050781 435.5944519042969 345.1615905761719 437.22747802734375 342.45867919921875 437.6019592285156 C 342.8424987792969 446.31158447265625 325.0114440917969 448.3491516113281 323.1697692871094 442.54010009765625 C 319.3722839355469 436.4413757324219 317.88006591796875 432.8679504394531 309.68634033203125 429.18145751953125 C 321.8234558105469 427.0555114746094 328.7807922363281 428.5240783691406 333.8666076660156 428.0982360839844" stroke-width="0.0" fill="url(#shape_50_fill)"/>
    <path d="M 302.3935241699219 388.9085998535156 C 300.114013671875 393.3493347167969 294.2978515625 398.4393615722656 290.7992858886719 399.06500244140625 C 278.9972229003906 397.8726806640625 278.8289794921875 398.4834899902344 271.3599548339844 402.57989501953125 C 271.08807373046875 401.6151428222656 269.6402282714844 398.9685363769531 271.1120910644531 397.483642578125 C 269.97015380859375 395.5093994140625 273.0203552246094 388.0809631347656 280.3372497558594 388.4404296875 C 283.70208740234375 385.9634094238281 287.91888427734375 391.4328918457031 302.3935241699219 388.9085998535156" stroke-width="0.0" fill="url(#shape_51_fill)"/>
    <path d="M 268.9554443359375 183.7576904296875 C 275.9059753417969 195.10606384277344 277.8902282714844 207.683349609375 279.9000244140625 217.28952026367188 C 271.4543151855469 210.4040985107422 269.20794677734375 208.02383422851562 261.0099182128906 215.575439453125 C 257.5757141113281 207.5286865234375 263.866455078125 196.90283203125 266.48443603515625 195.2738800048828 C 269.6760559082031 194.25607299804688 268.97467041015625 191.7005157470703 268.9554443359375 183.7576904296875" stroke-width="0.0" fill="url(#shape_52_fill)"/>
    <path d="M 218.27426147460938 409.53326416015625 C 215.91481018066406 410.96142578125 215.61109924316406 413.2590637207031 214.23904418945312 414.0196838378906 C 214.67381286621094 421.70513916015625 191.1708526611328 424.2657775878906 187.50567626953125 415.5676574707031 C 186.26710510253906 405.6981506347656 206.1885223388672 400.7558288574219 218.27426147460938 409.53326416015625" stroke-width="0.0" fill="url(#shape_53_fill)"/>
    <path d="M 205.84194946289062 424.6294250488281 C 205.5218048095703 425.28564453125 206.1372833251953 428.2758483886719 204.57630920410156 429.43585205078125 C 194.65478515625 430.3724670410156 178.8209686279297 430.83685302734375 177.950927734375 432.68023681640625 C 176.7447052001953 430.95123291015625 178.23916625976562 425.9524230957031 176.81536865234375 423.9005432128906 C 186.21331787109375 418.51824951171875 194.49578857421875 422.53369140625 205.84194946289062 424.6294250488281" stroke-width="0.0" fill="url(#shape_54_fill)"/>
    <path d="M 269.297119140625 246.41073608398438 C 275.43115234375 244.89309692382812 276.6690673828125 246.60340881347656 280.63116455078125 245.51904296875 C 280.9237976074219 250.96707153320312 280.28790283203125 252.42074584960938 285.5337829589844 260.9914245605469 C 263.45819091796875 257.94415283203125 262.922607421875 257.2386779785156 253.1061248779297 261.4609680175781 C 254.87692260742188 248.1768341064453 255.86705017089844 247.22897338867188 258.63238525390625 245.20579528808594 C 260.3825988769531 239.44581604003906 266.4029235839844 239.77435302734375 269.297119140625 246.41073608398438" stroke-width="0.0" fill="url(#shape_55_fill)"/>
    <path d="M 275.6844787597656 354.08099365234375 C 278.20062255859375 363.7518310546875 283.1568908691406 363.321044921875 284.56195068359375 368.07415771484375 C 285.38287353515625 369.23541259765625 285.950927734375 371.8407897949219 285.7475891113281 380.97015380859375 C 275.9737854003906 379.203857421875 263.1681823730469 382.1260986328125 245.3521270751953 383.1177062988281 C 240.961181640625 382.268798828125 241.37681579589844 360.38848876953125 242.32115173339844 355.9541320800781 C 250.79656982421875 354.4963073730469 257.86962890625 353.46533203125 275.6844787597656 354.08099365234375" stroke-width="0.0" fill="url(#shape_56_fill)"/>
    <path d="M 409.02618408203125 270.8251647949219 C 415.47149658203125 269.16595458984375 418.0301818847656 273.4508972167969 420.0924377441406 279.96917724609375 C 412.7756652832031 287.36090087890625 403.1861572265625 283.5620422363281 382.5055847167969 280.0221252441406 C 380.7975769042969 265.533447265625 389.5513000488281 263.51483154296875 409.02618408203125 270.8251647949219" stroke-width="0.0" fill="url(#shape_57_fill)"/>
    <path d="M 632.04931640625 351.7419738769531 C 632.9799194335938 354.8877258300781 659.707763671875 353.726806640625 668.6373901367188 353.91265869140625 C 668.4835815429688 358.4528503417969 662.7939453125 360.6412048339844 660.2568969726562 357.31341552734375 C 650.8773803710938 355.6346435546875 634.3580932617188 360.2248840332031 631.5010375976562 360.7422180175781 C 627.7802734375 357.0958557128906 629.3289794921875 353.5780334472656 632.04931640625 351.7419738769531" stroke-width="0.0" fill="url(#shape_58_fill)"/>
    <path d="M 341.29248046875 385.0503234863281 C 342.79473876953125 390.2685852050781 358.12841796875 391.7757263183594 359.1856384277344 394.73388671875 C 356.5200500488281 398.3184509277344 339.3316955566406 401.9435729980469 338.4504699707031 399.5252990722656 C 335.1381530761719 399.612060546875 333.07904052734375 398.777099609375 331.8613586425781 396.5368957519531 C 331.98663330078125 394.93994140625 330.75469970703125 393.4737243652344 332.3440246582031 390.60888671875 C 333.11407470703125 385.0594482421875 336.7435607910156 384.16229248046875 341.29248046875 385.0503234863281" stroke-width="0.0" fill="url(#shape_59_fill)"/>
    <path d="M 459.9350891113281 363.4486389160156 C 462.6065979003906 364.9586486816406 472.2737121582031 370.0030212402344 473.1125793457031 374.0904541015625 C 471.795166015625 376.18603515625 470.3326721191406 376.8638610839844 463.0943908691406 375.9171142578125 C 458.4881896972656 377.1077575683594 457.63751220703125 377.0208435058594 452.7262268066406 371.0007629394531 C 453.1841125488281 369.64581298828125 459.7471923828125 365.5204162597656 459.9350891113281 363.4486389160156" stroke-width="0.0" fill="url(#shape_60_fill)"/>
    <path d="M 435.0557861328125 432.8421630859375 C 440.1326904296875 434.30133056640625 442.4695129394531 436.4407043457031 442.0173645019531 438.874267578125 C 440.4064025878906 441.73797607421875 429.5848693847656 440.45025634765625 425.7634582519531 442.4547424316406 C 422.481689453125 438.7139587402344 423.9604187011719 434.570556640625 413.24884033203125 425.8360290527344 C 428.0835876464844 429.4055480957031 431.6216125488281 434.25518798828125 435.0557861328125 432.8421630859375" stroke-width="0.0" fill="url(#shape_61_fill)"/>
    <path d="M 185.42469787597656 411.4510192871094 C 186.2643585205078 413.93170166015625 185.008056640625 414.7928771972656 186.9242706298828 417.72906494140625 C 184.86416625976562 420.17498779296875 183.40081787109375 419.5223083496094 182.4859619140625 419.71160888671875 C 180.80625915527344 421.64599609375 174.41978454589844 420.3025817871094 171.2946014404297 420.2074890136719 C 169.5429229736328 417.8409118652344 169.76132202148438 415.6335754394531 173.7324981689453 413.3309326171875 C 176.42286682128906 412.4601745605469 181.2508544921875 410.7090148925781 185.42469787597656 411.4510192871094" stroke-width="0.0" fill="url(#shape_62_fill)"/>
    <path d="M 332.36785888671875 418.5845642089844 C 334.8635559082031 426.1339111328125 329.89068603515625 427.96917724609375 327.2753601074219 426.0059509277344 C 324.5904541015625 427.7757568359375 322.9984436035156 426.732177734375 320.71917724609375 427.601806640625 C 318.75897216796875 426.0334167480469 319.7070007324219 419.98651123046875 317.6664733886719 418.4474792480469 C 318.69537353515625 420.1365051269531 326.0104064941406 418.9993896484375 332.36785888671875 418.5845642089844" stroke-width="0.0" fill="url(#shape_63_fill)"/>
    <path d="M 55.39324188232422 273.2911071777344 C 56.55433654785156 269.4925842285156 66.10147857666016 269.8769836425781 65.99723052978516 278.314453125 C 58.85375213623047 279.1665344238281 53.8390998840332 272.8260498046875 48.063262939453125 276.2039489746094 C 49.727386474609375 272.9740905761719 52.33591842651367 272.4625549316406 55.39324188232422 273.2911071777344" stroke-width="0.0" fill="url(#shape_64_fill)"/>
    <path d="M 304.4829406738281 438.98052978515625 C 304.51568603515625 437.22125244140625 306.0335693359375 436.1591491699219 313.067138671875 437.2318420410156 C 314.7664489746094 438.8906555175781 313.0990905761719 441.5241394042969 311.4739990234375 442.533447265625 C 307.9145812988281 445.373291015625 306.67437744140625 444.238525390625 305.2491455078125 444.6676940917969 C 302.80767822265625 441.6575927734375 302.7137756347656 439.75091552734375 304.4829406738281 438.98052978515625" stroke-width="0.0" fill="url(#shape_65_fill)"/>
    <path d="M -0.4137956202030182 -0.3905617594718933 C 224.44937133789062 -0.08746512979269028 443.9376525878906 0.4134330451488495 673.01220703125 0.7060620188713074 C 673.7020874023438 152.99766540527344 674.585205078125 295.859375 673.5631103515625 445.4922790527344 C 450.4992980957031 446.32177734375 230.67181396484375 446.2464294433594 0.5761560201644897 445.3298034667969 C 0.2533111274242401 296.98028564453125 -0.09879575669765472 148.8866729736328 -0.4137956202030182 -0.3905617594718933" stroke-width="0.0" fill="url(#shape_66_fill)"/>
    <path d="M -0.9847907423973083 -0.14434263110160828 C 222.48126220703125 -0.113013856112957 443.3919982910156 0.3533918857574463 673.0039672851562 0.07318459451198578 C 673.806884765625 153.21852111816406 674.6411743164062 295.2008361816406 673.2822875976562 445.3931579589844 C 450.7228698730469 446.4048156738281 230.8126678466797 446.2981872558594 0.7073397636413574 445.2327880859375 C 0.18342271447181702 297.00811767578125 -0.23081925511360168 148.7602996826172 -0.9847907423973083 -0.14434263110160828" stroke-width="0.0" fill="url(#shape_67_fill)"/>
    <path d="M -0.6400810480117798 -0.18241916596889496 C 222.7631378173828 -0.1066979318857193 442.478515625 0.48700013756752014 673.01025390625 -0.16713926196098328 C 673.8013916015625 153.2001953125 674.6405029296875 295.204833984375 673.2874755859375 445.3965759277344 C 450.7494812011719 446.4063415527344 230.85687255859375 446.2973327636719 1.2630813121795654 445.2098083496094 C 0.5131022930145264 295.5570983886719 0.06875047832727432 148.49603271484375 -0.6400810480117798 -0.18241916596889496" stroke-width="0.0" fill="url(#shape_68_fill)"/>
  </g>
</svg>
