<?xml version="1.0" ?>
<svg xmlns="http://www.w3.org/2000/svg" version="1.1" width="512" height="512">
  <defs>
    <radialGradient id="shape_0_fill" cx="0.4982626736164093" cy="0.49838706851005554" r="0.49874892830848694">
      <stop offset="0.020950884" stop-color="rgb(0, 0, 0)" stop-opacity="0.9837241172790527"/>
      <stop offset="0.9777241" stop-color="rgb(0, 0, 0)" stop-opacity="1.0"/>
    </radialGradient>
    <radialGradient id="shape_1_fill" cx="0.5410008430480957" cy="0.5058923363685608" r="0.4318481683731079">
      <stop offset="0.028495666" stop-color="rgb(168, 96, 63)" stop-opacity="0.9831300973892212"/>
      <stop offset="1.0" stop-color="rgb(168, 96, 63)" stop-opacity="0.982762336730957"/>
    </radialGradient>
    <radialGradient id="shape_2_fill" cx="0.5452799201011658" cy="0.4921424090862274" r="0.12122765928506851">
      <stop offset="0.0" stop-color="rgb(254, 201, 40)" stop-opacity="0.9967780709266663"/>
      <stop offset="0.7531986" stop-color="rgb(255, 202, 39)" stop-opacity="1.0"/>
    </radialGradient>
    <radialGradient id="shape_3_fill" cx="0.349609375" cy="0.5078125" r="0.10077822208404541">
      <stop offset="0.0" stop-color="rgb(182, 110, 65)" stop-opacity="1.0"/>
      <stop offset="1.0" stop-color="rgb(221, 134, 79)" stop-opacity="0.941945493221283"/>
    </radialGradient>
    <radialGradient id="shape_4_fill" cx="0.5587303638458252" cy="0.5509719848632812" r="0.10003090649843216">
      <stop offset="0.08485797" stop-color="rgb(255, 202, 39)" stop-opacity="0.6874658465385437"/>
      <stop offset="1.0" stop-color="rgb(255, 202, 39)" stop-opacity="0.8674750328063965"/>
    </radialGradient>
    <radialGradient id="shape_5_fill" cx="0.859375" cy="0.189453125" r="0.10000000149011612">
      <stop offset="0.0" stop-color="rgb(218, 132, 78)" stop-opacity="1.0"/>
      <stop offset="1.0" stop-color="rgb(220, 133, 79)" stop-opacity="0.9789690971374512"/>
    </radialGradient>
    <radialGradient id="shape_6_fill" cx="0.8593193292617798" cy="0.8086591362953186" r="0.10004106163978577">
      <stop offset="0.0" stop-color="rgb(219, 133, 79)" stop-opacity="0.9907687902450562"/>
      <stop offset="0.9983374" stop-color="rgb(219, 133, 79)" stop-opacity="0.9916554689407349"/>
    </radialGradient>
    <radialGradient id="shape_7_fill" cx="0.7168661952018738" cy="0.6641160845756531" r="0.13019950687885284">
      <stop offset="0.0001985381" stop-color="rgb(110, 58, 37)" stop-opacity="0.980451762676239"/>
      <stop offset="0.9623849" stop-color="rgb(111, 58, 37)" stop-opacity="0.9854927659034729"/>
    </radialGradient>
    <radialGradient id="shape_8_fill" cx="0.71484375" cy="0.30859375" r="0.12553292512893677">
      <stop offset="0.0" stop-color="rgb(113, 60, 38)" stop-opacity="1.0"/>
      <stop offset="1.0" stop-color="rgb(111, 58, 37)" stop-opacity="0.9853348731994629"/>
    </radialGradient>
    <radialGradient id="shape_9_fill" cx="0.333984375" cy="0.51171875" r="0.10000000149011612">
      <stop offset="0.0" stop-color="rgb(99, 60, 36)" stop-opacity="1.0"/>
      <stop offset="1.0" stop-color="rgb(98, 59, 35)" stop-opacity="0.9902092814445496"/>
    </radialGradient>
    <radialGradient id="shape_10_fill" cx="0.16015625" cy="0.7109375" r="0.10000000149011612">
      <stop offset="0.0" stop-color="rgb(135, 77, 54)" stop-opacity="1.0"/>
      <stop offset="1.0" stop-color="rgb(134, 76, 53)" stop-opacity="0.9847302436828613"/>
    </radialGradient>
    <radialGradient id="shape_11_fill" cx="0.115234375" cy="0.353515625" r="0.10000000149011612">
      <stop offset="0.0" stop-color="rgb(135, 77, 54)" stop-opacity="1.0"/>
      <stop offset="1.0" stop-color="rgb(134, 76, 53)" stop-opacity="0.9842869639396667"/>
    </radialGradient>
    <radialGradient id="shape_12_fill" cx="0.271484375" cy="0.626953125" r="0.10000000149011612">
      <stop offset="0.0" stop-color="rgb(76, 43, 28)" stop-opacity="1.0"/>
      <stop offset="1.0" stop-color="rgb(74, 42, 27)" stop-opacity="0.9930631518363953"/>
    </radialGradient>
    <radialGradient id="shape_13_fill" cx="0.244140625" cy="0.412109375" r="0.10000000149011612">
      <stop offset="0.0" stop-color="rgb(75, 43, 28)" stop-opacity="1.0"/>
      <stop offset="1.0" stop-color="rgb(74, 42, 27)" stop-opacity="0.9950084090232849"/>
    </radialGradient>
    <radialGradient id="shape_14_fill" cx="0.7734375" cy="0.25390625" r="0.10000000149011612">
      <stop offset="0.0" stop-color="rgb(113, 59, 38)" stop-opacity="1.0"/>
      <stop offset="1.0" stop-color="rgb(111, 58, 37)" stop-opacity="0.9653225541114807"/>
    </radialGradient>
    <radialGradient id="shape_15_fill" cx="0.7854005098342896" cy="0.7256340384483337" r="0.09954071044921875">
      <stop offset="0.019231465" stop-color="rgb(98, 50, 32)" stop-opacity="0.862338125705719"/>
      <stop offset="0.12950557" stop-color="rgb(111, 58, 37)" stop-opacity="0.9633352160453796"/>
    </radialGradient>
    <radialGradient id="shape_16_fill" cx="0.392578125" cy="0.501953125" r="0.10000000149011612">
      <stop offset="0.0" stop-color="rgb(104, 63, 37)" stop-opacity="1.0"/>
      <stop offset="1.0" stop-color="rgb(100, 61, 36)" stop-opacity="0.9980930089950562"/>
    </radialGradient>
    <radialGradient id="shape_17_fill" cx="0.58984375" cy="0.451171875" r="0.10000000149011612">
      <stop offset="0.0" stop-color="rgb(117, 63, 38)" stop-opacity="1.0"/>
      <stop offset="1.0" stop-color="rgb(100, 51, 32)" stop-opacity="0.8174643516540527"/>
    </radialGradient>
    <radialGradient id="shape_18_fill" cx="0.7178987264633179" cy="0.7778446078300476" r="0.10103123635053635">
      <stop offset="0.7582139" stop-color="rgb(164, 94, 61)" stop-opacity="0.18914619088172913"/>
      <stop offset="1.0" stop-color="rgb(166, 95, 62)" stop-opacity="0.4306545853614807"/>
    </radialGradient>
    <radialGradient id="shape_19_fill" cx="0.71875" cy="0.150390625" r="0.10000000149011612">
      <stop offset="0.0" stop-color="rgb(28, 14, 9)" stop-opacity="1.0"/>
      <stop offset="1.0" stop-color="rgb(0, 0, 0)" stop-opacity="0.4230692982673645"/>
    </radialGradient>
  </defs>
  <g>
    <path d="M 0.0707521066069603 0.6008555889129639 C 168.9617919921875 -0.6003767251968384 337.9182434082031 -0.6003846526145935 511.39923095703125 0.6008761525154114 C 512.60009765625 168.96168518066406 512.60009765625 337.9182434082031 511.39923095703125 511.39923095703125 C 343.0382385253906 512.60009765625 174.081787109375 512.60009765625 0.600866436958313 511.39923095703125 C -0.6003994941711426 343.03790283203125 -0.600502610206604 174.07972717285156 0.0707521066069603 0.6008555889129639" stroke-width="0.0" fill="url(#shape_0_fill)"/>
    <path d="M 195.49810791015625 16.1181640625 C 204.14877319335938 16.242284774780273 214.41456604003906 21.681100845336914 222.17291259765625 27.996700286865234 C 225.6479949951172 34.77174377441406 237.73060607910156 34.76042938232422 242.00779724121094 32.535770416259766 C 268.08526611328125 27.862001419067383 296.51123046875 32.413185119628906 317.8853454589844 42.07667922973633 C 323.55487060546875 45.48103713989258 330.475341796875 46.18629837036133 337.586669921875 41.35143280029297 C 345.9753723144531 37.685916900634766 352.3331298828125 36.33902359008789 360.7514953613281 37.189369201660156 C 381.3772277832031 38.12310028076172 402.510498046875 57.06239700317383 400.9285888671875 83.66765594482422 C 399.78851318359375 95.086181640625 396.30889892578125 103.41650390625 389.01800537109375 111.26380920410156 C 380.95074462890625 118.41992950439453 378.23663330078125 132.32901000976562 381.2055358886719 141.2069091796875 C 383.2159729003906 161.2811737060547 383.3563232421875 179.2230987548828 373.50372314453125 197.85540771484375 C 366.0516052246094 212.99156188964844 351.0299072265625 223.93624877929688 348.57757568359375 224.67092895507812 C 380.0211181640625 236.77365112304688 400.97418212890625 263.8700866699219 408.80072021484375 289.1017761230469 C 412.1624450683594 298.5796813964844 412.8394775390625 309.3927917480469 412.8338623046875 311.3270263671875 C 414.2227478027344 318.3949279785156 414.2252502441406 323.8215637207031 413.69769287109375 332.7621154785156 C 413.29290771484375 340.7440185546875 412.8807678222656 356.1473388671875 402.4344482421875 373.93988037109375 C 425.79400634765625 370.7685241699219 441.95733642578125 373.7113037109375 453.770751953125 390.96343994140625 C 480.7222900390625 430.3349914550781 435.118408203125 495.2029113769531 389.7051086425781 495.7480773925781 C 362.343017578125 498.3682556152344 337.0686950683594 482.6886901855469 311.70880126953125 460.8940124511719 C 306.2598571777344 456.6073303222656 305.40057373046875 455.1728515625 302.6024475097656 452.96038818359375 C 301.0611572265625 452.04119873046875 297.0176696777344 447.37408447265625 292.39422607421875 443.25592041015625 C 286.3644104003906 436.4649963378906 278.4662780761719 441.5547180175781 261.9660949707031 440.64642333984375 C 261.12774658203125 439.31597900390625 255.3954620361328 439.43951416015625 254.4318389892578 441.1531677246094 C 248.26614379882812 440.6720886230469 246.00697326660156 439.4662780761719 243.84075927734375 439.87469482421875 C 241.33753967285156 440.5612487792969 232.28457641601562 440.216064453125 226.448486328125 439.0841369628906 C 219.9234161376953 438.87445068359375 213.9132537841797 445.4018249511719 203.21810913085938 452.01422119140625 C 198.03504943847656 456.906982421875 197.06199645996094 456.5862121582031 193.7052459716797 459.5343017578125 C 192.15060424804688 461.84417724609375 186.91563415527344 464.1521911621094 186.49740600585938 465.4755859375 C 173.42462158203125 475.4401550292969 160.5488739013672 485.5335693359375 143.15354919433594 492.4790954589844 C 87.6968002319336 512.295654296875 40.33115768432617 442.880126953125 51.45408248901367 408.9849853515625 C 56.67475128173828 385.25604248046875 76.31097412109375 376.26470947265625 85.65968322753906 372.4867248535156 C 91.14727783203125 372.87994384765625 98.52413940429688 374.93145751953125 101.95822143554688 370.48089599609375 C 98.19181823730469 364.9451599121094 97.72087097167969 356.7621154785156 96.19586944580078 353.3366394042969 C 92.82655334472656 330.07000732421875 95.6650619506836 309.308349609375 105.46691131591797 287.32257080078125 C 111.75662994384766 275.0536193847656 114.47045135498047 269.981689453125 122.8094253540039 258.89501953125 C 140.2466278076172 237.74380493164062 153.32455444335938 225.0049591064453 181.10411071777344 216.16275024414062 C 176.52638244628906 212.61492919921875 172.0599822998047 209.45933532714844 168.22119140625 205.44383239746094 C 161.68531799316406 198.6498260498047 161.45059204101562 197.48301696777344 157.53073120117188 192.42221069335938 C 144.53855895996094 168.3614501953125 145.17921447753906 150.5088653564453 154.5346221923828 124.47750854492188 C 158.92408752441406 111.43649291992188 164.25717163085938 103.35857391357422 157.46969604492188 89.61465454101562 C 156.5829315185547 86.137451171875 151.35084533691406 82.0170669555664 148.2399444580078 69.95355224609375 C 141.52462768554688 38.744102478027344 166.9077606201172 13.230710983276367 195.49810791015625 16.1181640625" stroke-width="0.0" fill="url(#shape_1_fill)"/>
    <path d="M 197.9339599609375 225.46304321289062 C 202.07745361328125 226.90525817871094 206.76602172851562 229.4493865966797 211.8570098876953 230.90304565429688 C 243.9525146484375 241.2610321044922 280.24578857421875 245.4741973876953 313.273193359375 239.12741088867188 C 317.3831481933594 237.0220489501953 321.3994140625 237.9492645263672 324.51373291015625 235.9079132080078 C 319.73553466796875 244.31153869628906 311.9716491699219 249.23782348632812 305.0735778808594 253.46087646484375 C 299.94537353515625 257.0931091308594 293.8997497558594 258.4496154785156 285.4979553222656 260.31689453125 C 292.2641906738281 267.1874084472656 298.3301696777344 271.400634765625 301.5088806152344 275.6101379394531 C 318.2742614746094 293.38671875 320.91973876953125 297.2944030761719 321.57135009765625 304.8481140136719 C 325.2733154296875 312.6824035644531 288.69091796875 336.68353271484375 268.7134704589844 335.4320373535156 C 252.0076141357422 332.29669189453125 256.8390197753906 288.0617980957031 253.2958984375 274.0274658203125 C 248.70660400390625 274.8758239746094 242.91453552246094 288.27362060546875 235.98013305664062 293.2873840332031 C 230.50901794433594 298.4717102050781 221.15797424316406 312.0245666503906 209.39068603515625 315.5354919433594 C 198.61373901367188 319.6599426269531 177.80963134765625 284.754638671875 178.73899841308594 265.64202880859375 C 180.3178253173828 259.041748046875 191.86941528320312 257.6948547363281 192.8506622314453 256.6230773925781 C 199.77984619140625 254.51119995117188 215.0886993408203 250.25820922851562 219.50936889648438 250.67950439453125 C 204.71792602539062 240.2202606201172 201.52354431152344 233.58045959472656 197.9339599609375 225.46304321289062" stroke-width="0.0" fill="url(#shape_2_fill)"/>
    <path d="M 280.9476013183594 128.52735900878906 C 281.7015075683594 131.34291076660156 287.5918884277344 138.83029174804688 288.7507629394531 142.99569702148438 C 292.26080322265625 149.7750244140625 294.6930847167969 150.88363647460938 300.92108154296875 166.04751586914062 C 316.1407775878906 196.11390686035156 301.95941162109375 216.714111328125 285.1404113769531 223.37255859375 C 278.9708557128906 226.6929473876953 267.5785827636719 227.71376037597656 261.06158447265625 227.47097778320312 C 245.62002563476562 226.40956115722656 237.7826690673828 223.71971130371094 226.94912719726562 216.05223083496094 C 226.33505249023438 214.4271240234375 218.10739135742188 208.42198181152344 218.4791259765625 205.7813262939453 C 211.28871154785156 196.30165100097656 211.6254425048828 182.51907348632812 213.85047912597656 176.0098114013672 C 217.72422790527344 161.9346466064453 230.79412841796875 152.81295776367188 233.7814178466797 146.39187622070312 C 237.50692749023438 144.7490234375 240.0204620361328 141.95489501953125 241.7964324951172 138.4042205810547 C 260.6650390625 118.12059783935547 261.82794189453125 116.83844757080078 280.9476013183594 128.52735900878906" stroke-width="0.0" fill="url(#shape_3_fill)"/>
    <path d="M 321.4542541503906 239.9910888671875 C 315.1496887207031 248.97654724121094 303.8612976074219 256.1561279296875 286.54620361328125 260.6034851074219 C 289.37005615234375 264.2825622558594 295.62164306640625 269.39007568359375 298.8111572265625 272.9683532714844 C 304.69219970703125 277.7508850097656 308.9263610839844 282.8232727050781 313.88385009765625 289.01617431640625 C 317.6183776855469 293.5038146972656 323.2483215332031 302.20196533203125 321.86285400390625 306.2335205078125 C 319.93719482421875 312.3690490722656 309.40826416015625 318.6061706542969 307.1457824707031 320.4273681640625 C 301.85028076171875 324.347412109375 293.2736511230469 328.4043884277344 289.5027160644531 330.52783203125 C 282.09136962890625 334.58843994140625 268.6473388671875 337.9797058105469 263.1395263671875 334.7213134765625 C 260.89508056640625 333.78143310546875 260.33636474609375 328.3581848144531 258.708251953125 326.41436767578125 C 259.02484130859375 316.5215759277344 254.7991943359375 307.2594909667969 255.0000762939453 298.92608642578125 C 254.2618408203125 298.253173828125 254.33425903320312 287.9985046386719 253.54534912109375 281.1051025390625 C 254.31085205078125 267.59967041015625 249.3155975341797 253.9786376953125 253.14761352539062 246.22801208496094 C 286.70428466796875 247.97421264648438 290.26983642578125 239.32920837402344 321.4542541503906 239.9910888671875" stroke-width="0.0" fill="url(#shape_4_fill)"/>
    <path d="M 104.63629150390625 408.71197509765625 C 122.13780975341797 416.035400390625 134.90904235839844 461.21075439453125 126.18077087402344 473.873046875 C 118.54084777832031 484.6148376464844 96.7460708618164 477.5223693847656 81.66837310791016 462.9150085449219 C 63.9710578918457 447.0906982421875 59.441001892089844 423.01470947265625 71.18739318847656 410.08319091796875 C 77.3072280883789 401.53082275390625 97.35482788085938 401.5338439941406 104.63629150390625 408.71197509765625" stroke-width="0.0" fill="url(#shape_5_fill)"/>
    <path d="M 437.9622497558594 406.9761047363281 C 464.71441650390625 435.25958251953125 427.94866943359375 474.1260986328125 403.449462890625 478.6451110839844 C 393.41180419921875 481.04498291015625 390.8247375488281 477.1647644042969 388.2845764160156 475.9228820800781 C 383.74224853515625 472.4548034667969 382.95965576171875 462.6405944824219 384.0442199707031 461.12158203125 C 383.2156677246094 432.50067138671875 402.97021484375 391.0959777832031 437.9622497558594 406.9761047363281" stroke-width="0.0" fill="url(#shape_6_fill)"/>
    <path d="M 332.1187438964844 260.8155212402344 C 342.3896789550781 262.76470947265625 344.9480895996094 292.2966003417969 344.4480285644531 296.10198974609375 C 345.6174011230469 318.7994079589844 337.4307861328125 332.052001953125 328.31597900390625 351.5866394042969 C 315.62164306640625 375.35565185546875 315.2038879394531 396.5065612792969 331.6142272949219 406.733154296875 C 345.0637512207031 412.7642822265625 360.0047607421875 405.181884765625 365.95166015625 395.6884460449219 C 374.6934814453125 385.3468017578125 388.26629638671875 374.34649658203125 409.9281311035156 372.6084289550781 C 379.6605529785156 389.9234313964844 376.9867858886719 401.02203369140625 368.4098815917969 420.0443115234375 C 366.2746887207031 426.87994384765625 361.1728210449219 431.7520446777344 361.4068298339844 434.4809265136719 C 354.6420593261719 433.3143310546875 353.2005310058594 417.0232238769531 356.525634765625 416.25848388671875 C 332.0633239746094 429.16705322265625 311.04461669921875 413.02423095703125 307.1792297363281 389.2815246582031 C 305.20794677734375 374.1540832519531 311.40435791015625 355.4639892578125 320.9460144042969 339.4045715332031 C 324.3908996582031 329.6107482910156 328.082275390625 325.16241455078125 330.9084167480469 313.7060852050781 C 334.6545715332031 295.60552978515625 333.0794982910156 287.3448486328125 331.6917724609375 272.08447265625 C 329.3193359375 269.0832824707031 330.657470703125 263.00213623046875 332.1187438964844 260.8155212402344" stroke-width="0.0" fill="url(#shape_7_fill)"/>
    <path d="M 179.54676818847656 275.6005859375 C 182.31637573242188 286.6766662597656 186.03627014160156 289.5759582519531 183.5847625732422 294.7789306640625 C 179.81295776367188 308.4783935546875 183.46080017089844 321.5085754394531 185.77923583984375 334.85064697265625 C 197.56234741210938 375.85577392578125 175.13829040527344 401.7208557128906 157.8012237548828 408.8617248535156 C 152.80165100097656 411.3227844238281 154.40618896484375 416.07733154296875 155.09486389160156 423.52764892578125 C 157.6890869140625 428.7930908203125 152.40707397460938 432.25732421875 147.31309509277344 431.3427734375 C 144.7039031982422 429.3161315917969 140.72891235351562 419.1930236816406 140.9988250732422 417.9530029296875 C 136.16160583496094 409.06201171875 133.82839965820312 399.8240661621094 125.97607421875 392.77276611328125 C 122.95294952392578 388.8262634277344 120.35993194580078 388.2768859863281 116.56077575683594 384.2728271484375 C 103.59778594970703 376.8772888183594 93.34085083007812 374.1240539550781 77.18133544921875 377.21832275390625 C 100.97991943359375 360.3155212402344 138.44638061523438 379.56109619140625 138.63043212890625 399.0585021972656 C 167.41444396972656 399.3418273925781 183.13011169433594 372.151611328125 173.35121154785156 340.1846923828125 C 173.83432006835938 332.61737060546875 171.6358184814453 329.49993896484375 171.5494384765625 324.8139343261719 C 168.59524536132812 310.2054748535156 168.40447998046875 288.8811340332031 179.54676818847656 275.6005859375" stroke-width="0.0" fill="url(#shape_8_fill)"/>
    <path d="M 284.10540771484375 161.96336364746094 C 290.04522705078125 167.98635864257812 283.76702880859375 182.06338500976562 279.0828552246094 186.60984802246094 C 260.8970947265625 202.8170623779297 233.20335388183594 182.59107971191406 239.9210968017578 162.68275451660156 C 249.6678466796875 149.39752197265625 274.6050720214844 153.13330078125 284.10540771484375 161.96336364746094" stroke-width="0.0" fill="url(#shape_9_fill)"/>
    <path d="M 372.3115539550781 68.00468444824219 C 385.660400390625 81.1052017211914 382.5958251953125 88.04638671875 375.45458984375 106.73944091796875 C 367.9479064941406 111.32746887207031 360.97906494140625 104.68939208984375 362.1885986328125 98.94511413574219 C 357.28466796875 89.97241973876953 353.2440185546875 85.09892272949219 349.74810791015625 79.43122100830078 C 346.5970153808594 77.34662628173828 345.2481994628906 73.924072265625 345.0619812011719 69.92791748046875 C 351.04766845703125 61.797794342041016 366.12896728515625 63.059295654296875 372.3115539550781 68.00468444824219" stroke-width="0.0" fill="url(#shape_10_fill)"/>
    <path d="M 200.63702392578125 46.348751068115234 C 206.18655395507812 50.28470230102539 206.00515747070312 54.21050262451172 201.88047790527344 58.73233413696289 C 198.7916259765625 61.757354736328125 193.28305053710938 64.02558135986328 192.4817352294922 67.00919342041016 C 185.4127960205078 69.27577209472656 179.16053771972656 81.60684967041016 174.3484344482422 84.44474792480469 C 167.84619140625 83.66239929199219 164.83059692382812 70.6456527709961 165.23683166503906 64.50154113769531 C 164.93524169921875 58.54490280151367 168.29551696777344 52.54624557495117 172.85667419433594 47.58079528808594 C 183.1366424560547 40.12537384033203 189.9927215576172 40.538230895996094 200.63702392578125 46.348751068115234" stroke-width="0.0" fill="url(#shape_11_fill)"/>
    <path d="M 330.65765380859375 123.2159423828125 C 337.726318359375 127.3415756225586 342.1237487792969 139.15589904785156 335.4732360839844 150.74642944335938 C 330.2763671875 159.54953002929688 319.92291259765625 162.24179077148438 311.4237976074219 155.25375366210938 C 306.1015319824219 148.8740692138672 305.12933349609375 143.7718963623047 306.4583435058594 135.97915649414062 C 307.3385314941406 130.35513305664062 311.21759033203125 124.808837890625 316.51007080078125 122.22300720214844 C 320.2610778808594 120.5133285522461 326.339599609375 119.88050079345703 330.65765380859375 123.2159423828125" stroke-width="0.0" fill="url(#shape_12_fill)"/>
    <path d="M 215.4258270263672 106.99542236328125 C 216.6194305419922 106.25466918945312 229.693603515625 111.73452758789062 228.16311645507812 126.55799102783203 C 229.0269012451172 135.96701049804688 216.9443817138672 151.9888153076172 202.17507934570312 142.0338134765625 C 187.60691833496094 128.54244995117188 198.8771514892578 104.1039047241211 215.4258270263672 106.99542236328125" stroke-width="0.0" fill="url(#shape_13_fill)"/>
    <path d="M 136.61679077148438 387.91851806640625 C 143.6308135986328 395.2919006347656 146.8434295654297 397.945068359375 146.77183532714844 408.0845947265625 C 151.32398986816406 408.249267578125 153.08740234375 412.039794921875 155.26107788085938 417.2257080078125 C 157.57281494140625 422.5832824707031 157.73414611816406 429.6005554199219 151.37472534179688 431.34893798828125 C 144.87057495117188 432.4469299316406 141.37754821777344 423.1374816894531 142.6929931640625 417.0224914550781 C 134.4615020751953 400.26580810546875 125.77364349365234 386.5551452636719 108.15061950683594 378.0091247558594 C 103.24251556396484 374.82647705078125 92.66590118408203 372.40704345703125 82.75279998779297 373.9019470214844 C 100.43455505371094 365.1540832519531 126.47239685058594 376.98162841796875 136.61679077148438 387.91851806640625" stroke-width="0.0" fill="url(#shape_14_fill)"/>
    <path d="M 414.9255676269531 373.0557861328125 C 407.6282043457031 375.41851806640625 406.73516845703125 375.0204772949219 396.64007568359375 380.89776611328125 C 380.08563232421875 392.9432373046875 372.06451416015625 409.5255126953125 366.8406066894531 428.6429138183594 C 363.71173095703125 437.397705078125 353.8893127441406 435.0423889160156 354.54901123046875 425.47039794921875 C 352.7215576171875 410.30120849609375 391.26300048828125 367.66302490234375 414.9255676269531 373.0557861328125" stroke-width="0.0" fill="url(#shape_15_fill)"/>
    <path d="M 226.86282348632812 182.0823516845703 C 245.9129180908203 200.1951141357422 250.25840759277344 208.8827362060547 277.5348815917969 201.01681518554688 C 283.2008361816406 194.9977569580078 287.17425537109375 188.80723571777344 294.6367492675781 193.38108825683594 C 284.32781982421875 228.49923706054688 219.71786499023438 213.97482299804688 226.86282348632812 182.0823516845703" stroke-width="0.0" fill="url(#shape_16_fill)"/>
    <path d="M 253.68983459472656 270.35870361328125 C 254.8221435546875 275.4075927734375 248.85430908203125 284.3689880371094 246.57028198242188 289.08648681640625 C 239.41432189941406 302.0116271972656 230.37353515625 312.6207275390625 221.70140075683594 321.92498779296875 C 214.74334716796875 324.5965270996094 210.01478576660156 316.81475830078125 214.15708923339844 313.7770690917969 C 229.91111755371094 303.13800048828125 234.0873260498047 295.53887939453125 253.68983459472656 270.35870361328125" stroke-width="0.0" fill="url(#shape_17_fill)"/>
    <path d="M 392.38916015625 357.1973571777344 C 396.8868408203125 356.2087707519531 403.35833740234375 358.0964050292969 408.6897277832031 358.4896545410156 C 405.3641357421875 366.3915100097656 402.4017028808594 371.5510559082031 402.91424560546875 375.37579345703125 C 406.921630859375 373.91943359375 413.01031494140625 373.51708984375 414.59228515625 373.6081848144531 C 406.7841796875 373.588134765625 400.0948791503906 375.3717346191406 395.99041748046875 375.6710510253906 C 394.3981018066406 377.2663879394531 387.120361328125 374.38934326171875 386.7906494140625 367.0555419921875 C 387.63623046875 362.06982421875 390.2657775878906 358.67510986328125 392.38916015625 357.1973571777344" stroke-width="0.0" fill="url(#shape_18_fill)"/>
    <path d="M 79.76634979248047 360.145751953125 C 82.05998229980469 362.2961730957031 82.89840698242188 369.41070556640625 84.44112396240234 370.2262268066406 C 84.69490814208984 369.9853515625 97.52254486083984 368.20501708984375 102.260009765625 370.4243469238281 C 91.36504364013672 371.4842224121094 72.78137969970703 372.853759765625 70.2442855834961 376.2436828613281 C 66.51832580566406 371.38812255859375 66.02957153320312 368.4657287597656 66.51677703857422 366.04962158203125 C 65.02442932128906 363.85205078125 65.39688873291016 359.7823486328125 68.28347778320312 358.1091613769531 C 71.14820098876953 361.1835021972656 75.20635986328125 359.6606750488281 79.76634979248047 360.145751953125" stroke-width="0.0" fill="url(#shape_19_fill)"/>
  </g>
</svg>
