<?xml version="1.0" encoding="UTF-8"?>
<!-- Generator: visioncortex VTracer 0.6.4 -->
<svg version="1.1" xmlns="http://www.w3.org/2000/svg" width="512" height="512">
<path d="M0 0 C168.96 0 337.92 0 512 0 C512 168.96 512 337.92 512 512 C343.04 512 174.08 512 0 512 C0 343.04 0 174.08 0 0 Z " fill="#000000" transform="translate(0,0)"/>
<path d="M0 0 C4.822 0.561 9.011 1.583 13.562 3.25 C45.144 14.221 79.974 17.518 112.85 11.364 C116.549 10.738 120.269 10.38 124 10 C121.316 18.138 114.069 23.114 106.748 27.026 C100.916 29.964 95.446 32 89 33 C89.495 33.619 89.99 34.238 90.5 34.875 C92 37 92 37 92 39 C92.814 39.327 92.814 39.327 93.645 39.66 C96.797 41.453 99.167 43.871 101.688 46.438 C102.214 46.97 102.74 47.502 103.281 48.05 C121.165 66.381 121.165 66.381 123.062 76.125 C122.972 81.712 120.985 83.92 117.219 87.867 C106.196 98.438 87.238 109.053 71.5 109.188 C70.747 109.202 69.994 109.216 69.219 109.23 C66.651 108.964 65.146 108.438 63 107 C54.059 93.512 55.216 71.094 54.25 55.669 C54.005 53.055 53.563 50.562 53 48 C49.967 48.642 49.967 48.642 49.062 50.625 C48.712 51.409 48.361 52.192 48 53 C45.427 57.88 42.969 61.106 39 65 C37.698 66.43 36.397 67.86 35.106 69.301 C30.058 74.928 24.87 80.212 19 85 C18.446 85.454 17.891 85.908 17.32 86.375 C14.959 88.137 13.019 88.996 10.125 89.562 C2.331 88.16 -2.429 82.992 -7.051 76.863 C-14.828 65.439 -20.363 53.32 -20.531 39.34 C-19.79 36.075 -18.659 35.033 -16 33 C-13.383 31.858 -10.886 30.89 -8.188 30 C-7.446 29.747 -6.704 29.493 -5.94 29.232 C1.283 26.81 8.606 24.83 16 23 C16 22.34 16 21.68 16 21 C14.41 19.47 14.41 19.47 12.375 17.875 C6.51 12.873 1.906 7.624 0 0 Z " fill="#FFFFFF" transform="translate(199,227)"/>
</svg>
