<?xml version="1.0" encoding="UTF-8"?>
<!-- Generator: visioncortex VTracer 0.6.4 -->
<svg version="1.1" xmlns="http://www.w3.org/2000/svg" width="512" height="512">
<path d="M0 0 C168.96 0 337.92 0 512 0 C512 168.96 512 337.92 512 512 C343.04 512 174.08 512 0 512 C0 343.04 0 174.08 0 0 Z " fill="#000000" transform="translate(0,0)"/>
<path d="M0 0 C3.713 1.889 6.344 4.496 8.199 8.23 C9.921 13.763 9.932 19.967 7.359 25.227 C4.694 29.108 1.216 31.623 -3.141 33.352 C-8.773 34.352 -13.361 33.61 -18.141 30.352 C-22.724 25.976 -24.876 21.756 -25.141 15.352 C-24.316 9.028 -21.741 5.3 -16.762 1.445 C-11.94 -1.808 -5.479 -1.66 0 0 Z " fill="#FFFFFF" transform="translate(324.140625,181.6484375)"/>
</svg>
