<?xml version="1.0" encoding="UTF-8"?>
<!-- Generator: visioncortex VTracer 0.6.4 -->
<svg version="1.1" xmlns="http://www.w3.org/2000/svg" width="512" height="512">
<path d="M0 0 C168.96 0 337.92 0 512 0 C512 168.96 512 337.92 512 512 C343.04 512 174.08 512 0 512 C0 343.04 0 174.08 0 0 Z " fill="#000000" transform="translate(0,0)"/>
<path d="M0 0 C0.879 0.401 1.758 0.802 2.664 1.215 C9.672 4.699 15.326 9.371 21.152 14.512 C22.562 15.743 22.562 15.743 24 17 C24.643 17.657 25.286 18.315 25.949 18.992 C28.126 20.344 28.126 20.344 31.18 19.121 C32.419 18.577 33.65 18.014 34.875 17.438 C36.214 16.854 37.555 16.276 38.898 15.703 C39.579 15.412 40.259 15.122 40.96 14.822 C56.725 8.468 78.19 5.148 94.375 11.746 C95.241 12.16 96.107 12.574 97 13 C98.392 13.636 98.392 13.636 99.812 14.285 C105.962 17.352 110.784 21.178 115.711 25.949 C119.064 28.953 121.648 30.894 126.188 31.25 C131.931 30.129 135.938 24.874 140 21 C152.396 9.957 165.598 7.309 181.766 7.859 C190.781 8.427 199.396 10.769 207.633 14.426 C210.812 15.197 212.139 14.529 215 13 C216.697 11.792 218.363 10.538 220 9.25 C225.964 4.827 232.128 1.768 239 -1 C239.831 -1.342 240.663 -1.683 241.52 -2.035 C251.112 -5.455 262.488 -5.699 271.785 -1.336 C281.73 4.662 287.441 13.084 291 24 C292.949 33.203 288.158 42.902 283.375 50.562 C278.437 57.483 272.448 64.437 265.652 69.551 C262.791 71.689 262.791 71.689 262.598 74.465 C262.751 75.281 262.904 76.097 263.062 76.938 C263.198 77.751 263.333 78.564 263.473 79.402 C263.647 80.26 263.821 81.117 264 82 C268.702 105.946 265.078 135.416 252 156 C238.825 175.594 220.504 190.352 201.125 203.438 C200.567 203.814 200.01 204.191 199.436 204.579 C194.148 208.059 188.579 211.018 183 214 C182.93 213.08 182.86 212.16 182.788 211.212 C181.211 189.443 181.211 189.443 178 167.875 C177.846 167.074 177.693 166.272 177.534 165.447 C176.622 161.061 175.339 156.983 173.696 152.818 C172.763 150.381 172.091 147.883 171.375 145.375 C168.861 137.745 164.607 131.505 160 125 C159.495 124.276 158.989 123.551 158.469 122.805 C152.143 114.603 142.057 109.725 132.188 107.312 C118.353 105.956 105.811 108.501 94.469 116.867 C74.068 134.057 64.236 163.087 62 189 C61.422 198.991 61.18 208.995 61 219 C56.685 217.354 53 215.206 49.188 212.625 C48.536 212.185 47.884 211.745 47.213 211.292 C34.509 202.635 22.754 193.418 11.734 182.683 C10.099 181.096 8.443 179.532 6.781 177.973 C-13.488 158.697 -24.418 135.971 -26.262 108.035 C-26.399 98.663 -25.223 89.51 -22.875 80.438 C-21.836 76.945 -21.836 76.945 -22 73 C-23.602 71.602 -25.214 70.215 -26.871 68.883 C-37.153 59.789 -49.031 43.994 -50.273 29.898 C-50.547 20.402 -49.241 14.111 -43.133 6.75 C-31.294 -5.78 -15.392 -7.372 0 0 Z " fill="#FFFFFF" transform="translate(133,122)"/>
</svg>
