<?xml version="1.0" encoding="UTF-8"?>
<!-- Generator: visioncortex VTracer 0.6.4 -->
<svg version="1.1" xmlns="http://www.w3.org/2000/svg" width="512" height="512">
<path d="M0 0 C168.96 0 337.92 0 512 0 C512 168.96 512 337.92 512 512 C343.04 512 174.08 512 0 512 C0 343.04 0 174.08 0 0 Z " fill="#000000" transform="translate(0,0)"/>
<path d="M0 0 C3.519 3.103 6.934 6.307 10.311 9.563 C9.311 12.563 9.311 12.563 6.721 14.071 C5.616 14.605 4.512 15.139 3.374 15.688 C-3.264 19.049 -8.4 23.315 -13.689 28.563 C-14.576 29.409 -15.463 30.255 -16.376 31.126 C-24.37 39.552 -30.175 47.054 -33.697 58.243 C-34.689 60.563 -34.689 60.563 -37.689 62.563 C-47.395 54.915 -55.404 45.624 -61.251 34.751 C-61.574 34.153 -61.896 33.556 -62.228 32.94 C-66.337 24.873 -68.48 15.705 -65.896 6.845 C-64.295 2.672 -62.647 -1.036 -59.689 -4.437 C-59.029 -4.437 -58.369 -4.437 -57.689 -4.437 C-57.689 -5.097 -57.689 -5.757 -57.689 -6.437 C-38.681 -21.5 -17.349 -14.756 0 0 Z " fill="#FFFFFF" transform="translate(149.68896484375,132.4365234375)"/>
</svg>
