<?xml version="1.0" ?>
<svg xmlns="http://www.w3.org/2000/svg" version="1.1" width="512" height="512">
  <defs>
    <radialGradient id="shape_0_fill" cx="0.49823299050331116" cy="0.4978262484073639" r="0.49898865818977356">
      <stop offset="0.0" stop-color="rgb(0, 0, 0)" stop-opacity="0.8864856958389282"/>
      <stop offset="1.0" stop-color="rgb(0, 0, 0)" stop-opacity="0.888545036315918"/>
    </radialGradient>
    <radialGradient id="shape_1_fill" cx="0.3554454445838928" cy="0.5099531412124634" r="0.44453948736190796">
      <stop offset="0.0" stop-color="rgb(54, 179, 224)" stop-opacity="0.9977722764015198"/>
      <stop offset="0.99366724" stop-color="rgb(53, 180, 225)" stop-opacity="0.9973682761192322"/>
    </radialGradient>
    <radialGradient id="shape_2_fill" cx="0.44305598735809326" cy="0.5646198391914368" r="0.16486990451812744">
      <stop offset="0.041472245" stop-color="rgb(253, 242, 238)" stop-opacity="1.0"/>
      <stop offset="0.90608543" stop-color="rgb(220, 235, 244)" stop-opacity="1.0"/>
    </radialGradient>
    <radialGradient id="shape_3_fill" cx="0.220703125" cy="0.6484375" r="0.12770509719848633">
      <stop offset="0.0" stop-color="rgb(1, 110, 167)" stop-opacity="1.0"/>
      <stop offset="1.0" stop-color="rgb(0, 109, 166)" stop-opacity="0.9956608414649963"/>
    </radialGradient>
    <radialGradient id="shape_4_fill" cx="0.49351003766059875" cy="0.47603824734687805" r="0.10028839856386185">
      <stop offset="0.11221083" stop-color="rgb(0, 137, 209)" stop-opacity="0.7956286072731018"/>
      <stop offset="1.0" stop-color="rgb(0, 131, 200)" stop-opacity="0.8161517381668091"/>
    </radialGradient>
    <radialGradient id="shape_5_fill" cx="0.435546875" cy="0.1953125" r="0.10551214218139648">
      <stop offset="0.0" stop-color="rgb(0, 110, 167)" stop-opacity="1.0"/>
      <stop offset="1.0" stop-color="rgb(1, 121, 183)" stop-opacity="0.8984116315841675"/>
    </radialGradient>
    <radialGradient id="shape_6_fill" cx="0.2601473331451416" cy="0.286743700504303" r="0.1002335250377655">
      <stop offset="0.36342078" stop-color="rgb(45, 45, 42)" stop-opacity="0.9989297986030579"/>
      <stop offset="0.9975632" stop-color="rgb(44, 41, 46)" stop-opacity="1.0"/>
    </radialGradient>
  </defs>
  <g>
    <path d="M 0.0029006488621234894 0.5968755483627319 C 168.96044921875 -0.5968530774116516 337.9196472167969 -0.596855103969574 511.40301513671875 0.5968743562698364 C 512.5968627929688 168.96041870117188 512.5968627929688 337.9196472167969 511.40301513671875 511.40301513671875 C 343.0395812988281 512.5968627929688 174.08035278320312 512.5968627929688 0.5968738794326782 511.40301513671875 C -0.5968550443649292 343.03955078125 -0.5968603491783142 174.0800018310547 0.0029006488621234894 0.5968755483627319" stroke-width="0.0" fill="url(#shape_0_fill)"/>
    <path d="M 365.1951904296875 57.961849212646484 C 372.6848449707031 59.99153137207031 374.790771484375 57.988521575927734 379.01220703125 58.47445297241211 C 424.0794372558594 46.63725280761719 475.1387939453125 75.89937591552734 472.88800048828125 88.94467163085938 C 478.7134704589844 98.95642852783203 470.0929870605469 104.3174819946289 461.3156433105469 105.15255737304688 C 447.82012939453125 109.54010009765625 437.94818115234375 116.56822204589844 431.2232666015625 129.68130493164062 C 426.3929138183594 140.95327758789062 429.5414123535156 154.47731018066406 431.6431884765625 165.8791961669922 C 437.3440246582031 193.93765258789062 437.6940002441406 222.1150665283203 431.8600769042969 257.0635681152344 C 426.8977355957031 282.5751037597656 421.5343017578125 298.038330078125 410.1180419921875 320.5982971191406 C 401.1512145996094 334.8927001953125 399.3304748535156 339.8738708496094 381.5414123535156 358.89794921875 C 355.4766540527344 385.9827880859375 321.0801086425781 401.4256591796875 287.7006530761719 411.9280090332031 C 282.93701171875 412.955078125 280.93121337890625 422.7976379394531 279.92041015625 426.61834716796875 C 278.0927429199219 427.265869140625 274.9253845214844 433.8538513183594 273.6309814453125 437.86688232421875 C 266.5445861816406 460.3871765136719 224.96112060546875 496.5325012207031 212.77296447753906 489.96197509765625 C 208.24684143066406 484.810791015625 218.76882934570312 471.9846496582031 221.5448455810547 467.1827392578125 C 224.93528747558594 463.0938415527344 223.16171264648438 456.2878112792969 222.72007751464844 452.6482238769531 C 223.1916046142578 446.4001159667969 221.92251586914062 444.3546447753906 222.6582794189453 443.029541015625 C 223.41636657714844 427.9053039550781 223.67547607421875 418.424072265625 234.8224639892578 404.50286865234375 C 239.08255004882812 396.17449951171875 229.60531616210938 391.2923278808594 221.67886352539062 385.3268127441406 C 215.66632080078125 382.59063720703125 209.2373504638672 368.32440185546875 206.77940368652344 362.0337219238281 C 202.69061279296875 352.3885192871094 200.77728271484375 346.7665100097656 190.57858276367188 343.5815124511719 C 182.31201171875 339.6349792480469 177.27272033691406 334.61260986328125 178.54412841796875 329.80072021484375 C 191.54673767089844 315.53912353515625 252.3567352294922 328.8653564453125 261.3125305175781 357.0249938964844 C 270.2557678222656 365.44256591796875 274.83428955078125 369.37884521484375 278.97900390625 369.6755676269531 C 291.28228759765625 369.2215576171875 300.054931640625 359.6678771972656 307.8052673339844 353.6989440917969 C 312.9732666015625 348.4095764160156 312.531494140625 345.8512878417969 319.0310363769531 340.7974853515625 C 321.15325927734375 337.4088439941406 328.1098937988281 326.441650390625 331.8100280761719 322.1645812988281 C 343.9424743652344 303.0704345703125 349.4024353027344 285.6528625488281 350.9487609863281 263.2865295410156 C 349.65399169921875 249.7212677001953 350.9784240722656 237.17874145507812 341.26751708984375 220.99710083007812 C 338.285400390625 175.0584716796875 221.72755432128906 168.42933654785156 192.8936309814453 209.60614013671875 C 182.52603149414062 216.22325134277344 178.32020568847656 217.8225555419922 173.83822631835938 224.91650390625 C 166.79302978515625 228.6138153076172 163.8015594482422 229.40133666992188 159.53421020507812 231.35922241210938 C 154.61256408691406 236.154541015625 153.33123779296875 235.03221130371094 151.23204040527344 235.56275939941406 C 146.84780883789062 238.96034240722656 144.03414916992188 241.11326599121094 134.06405639648438 243.85244750976562 C 127.78357696533203 246.70709228515625 123.39569854736328 251.9420166015625 116.19393157958984 252.88534545898438 C 68.07872009277344 284.6240539550781 44.83854675292969 271.5690612792969 42.24387741088867 260.31982421875 C 58.78202438354492 264.8615417480469 70.43897247314453 259.28466796875 82.85672760009766 250.93345642089844 C 97.21796417236328 241.67005920410156 108.60813903808594 229.32171630859375 122.07762908935547 218.86302185058594 C 124.92393493652344 213.8423614501953 130.86782836914062 208.53880310058594 134.28028869628906 207.76568603515625 C 134.29501342773438 205.39163208007812 140.0366668701172 200.25872802734375 144.90078735351562 198.1475830078125 C 149.2198028564453 193.87454223632812 149.3788299560547 191.80831909179688 151.17588806152344 190.22084045410156 C 149.6354522705078 185.86448669433594 151.03150939941406 180.95460510253906 146.50379943847656 176.6815185546875 C 138.7067413330078 178.9261932373047 133.38380432128906 186.3665313720703 127.39387512207031 192.6732940673828 C 123.78546905517578 195.49415588378906 118.55917358398438 203.25538635253906 117.56185913085938 202.82334899902344 C 108.67845916748047 215.63743591308594 94.58464050292969 221.86036682128906 86.51970672607422 236.77000427246094 C 62.810359954833984 253.89820861816406 59.162654876708984 251.1482391357422 48.4307861328125 252.53448486328125 C 43.59764862060547 251.21017456054688 40.649192810058594 252.85214233398438 36.74941635131836 252.33831787109375 C 35.083518981933594 244.8682861328125 35.54147720336914 237.87051391601562 38.710933685302734 231.8622589111328 C 41.26411056518555 227.145263671875 44.7403564453125 223.20741271972656 47.73527145385742 218.9784393310547 C 58.32727813720703 207.02760314941406 57.20463943481445 205.75221252441406 63.33233642578125 194.7339630126953 C 61.287376403808594 185.80418395996094 59.43994903564453 183.2028045654297 54.04341125488281 172.83413696289062 C 40.973304748535156 146.1798858642578 55.333255767822266 108.01105499267578 81.2869644165039 79.50218200683594 C 97.57392883300781 62.934635162353516 109.92208862304688 53.75852966308594 131.03167724609375 43.370338439941406 C 202.42701721191406 4.37328577041626 295.7666931152344 14.422706604003906 365.1951904296875 57.961849212646484" stroke-width="0.0" fill="url(#shape_1_fill)"/>
    <path d="M 326.690185546875 197.44422912597656 C 351.6263122558594 211.91807556152344 356.3511657714844 271.675048828125 346.8130187988281 292.2356262207031 C 340.8824157714844 308.44476318359375 332.8196716308594 326.9331970214844 318.26373291015625 341.78582763671875 C 318.390380859375 329.3427429199219 321.9942626953125 314.9060974121094 320.2142333984375 294.1477355957031 C 322.4683532714844 251.90130615234375 287.3330078125 220.15771484375 216.66015625 221.75283813476562 C 207.73812866210938 221.72801208496094 201.0042724609375 223.35504150390625 192.7622528076172 223.1514129638672 C 187.28660583496094 224.75753784179688 181.89529418945312 223.8922882080078 172.9669647216797 225.7833709716797 C 192.45953369140625 196.2715606689453 275.74359130859375 149.35191345214844 326.690185546875 197.44422912597656" stroke-width="0.0" fill="url(#shape_2_fill)"/>
    <path d="M 411.52783203125 108.00314331054688 C 407.18377685546875 119.84354400634766 393.4120788574219 122.2708969116211 386.87030029296875 128.08872985839844 C 380.9666442871094 131.0313720703125 380.3892822265625 132.9271697998047 377.8547058105469 132.4070281982422 C 376.7212219238281 135.62490844726562 368.0079345703125 138.64820861816406 366.4137268066406 141.0611572265625 C 344.7410583496094 150.9507293701172 325.3840026855469 164.41592407226562 302.5146789550781 164.02476501464844 C 288.02020263671875 163.85589599609375 286.5233154296875 162.7362823486328 283.33843994140625 158.70217895507812 C 284.6944274902344 152.36428833007812 293.5392150878906 150.18771362304688 295.7710266113281 151.94216918945312 C 307.4010009765625 150.93994140625 312.3857727050781 151.7560272216797 325.6623229980469 146.22178649902344 C 339.150390625 141.41761779785156 345.849853515625 135.37037658691406 357.5020751953125 129.71095275878906 C 362.4229431152344 124.99224090576172 368.9240417480469 121.45323181152344 376.3614807128906 119.23637390136719 C 377.1473388671875 118.2037353515625 386.2431640625 113.81021881103516 387.5951843261719 111.95793914794922 C 387.99639892578125 104.80787658691406 333.8609924316406 82.36528778076172 298.13055419921875 99.2449951171875 C 283.8202209472656 102.18769836425781 273.84637451171875 109.59996032714844 261.336669921875 115.26825714111328 C 251.70870971679688 121.62200164794922 248.2501678466797 123.06153869628906 242.72122192382812 121.23023223876953 C 239.19583129882812 114.29450225830078 251.17758178710938 105.92694854736328 256.2984619140625 102.61536407470703 C 296.3098449707031 71.02030181884766 366.31024169921875 71.69247436523438 411.52783203125 108.00314331054688" stroke-width="0.0" fill="url(#shape_3_fill)"/>
    <path d="M 224.33045959472656 221.6299285888672 C 256.0856018066406 221.2278289794922 258.0814514160156 222.5043182373047 264.19915771484375 228.6331329345703 C 264.6736755371094 234.1785888671875 263.60992431640625 238.33804321289062 265.0662536621094 244.4165496826172 C 265.55706787109375 252.21902465820312 266.8863220214844 267.80853271484375 274.4433288574219 271.948486328125 C 275.553466796875 274.3700256347656 276.6650695800781 278.6116638183594 280.3782653808594 281.6925048828125 C 282.67755126953125 287.96710205078125 280.8881530761719 291.6098327636719 278.9964294433594 291.3077392578125 C 266.7472229003906 292.7210998535156 252.33009338378906 289.9095764160156 242.87054443359375 282.9611511230469 C 239.89244079589844 282.5362243652344 231.2311248779297 272.5662536621094 229.576416015625 271.5356140136719 C 217.89700317382812 259.0674743652344 211.13832092285156 238.37313842773438 209.33837890625 222.1912078857422 C 212.73953247070312 221.5422821044922 220.6097869873047 221.94552612304688 224.33045959472656 221.6299285888672" stroke-width="0.0" fill="url(#shape_4_fill)"/>
    <path d="M 147.25714111328125 177.02761840820312 C 154.1553192138672 185.88954162597656 152.74087524414062 189.71810913085938 148.17788696289062 194.20069885253906 C 146.90167236328125 196.77540588378906 137.59429931640625 205.10121154785156 132.69647216796875 208.2857208251953 C 129.5939178466797 213.37388610839844 125.44949340820312 217.28909301757812 121.44181060791016 221.6432647705078 C 122.9203872680664 218.9375762939453 117.29180145263672 222.17559814453125 114.84444427490234 226.89097595214844 C 108.6232681274414 229.15663146972656 106.2249755859375 235.0331573486328 98.36311340332031 238.3246612548828 C 92.16976928710938 257.493408203125 36.75014114379883 273.22119140625 36.02961730957031 252.0755157470703 C 62.805747985839844 253.27732849121094 70.27433776855469 243.80445861816406 88.22856903076172 230.65084838867188 C 102.22853088378906 220.32676696777344 110.40739440917969 208.9403839111328 121.92430877685547 198.55360412597656 C 124.87513732910156 192.80450439453125 129.28733825683594 190.7676239013672 134.050048828125 185.33468627929688 C 141.4508819580078 178.01390075683594 143.88308715820312 175.51290893554688 147.25714111328125 177.02761840820312" stroke-width="0.0" fill="url(#shape_5_fill)"/>
    <path d="M 153.2437744140625 116.3682861328125 C 159.07052612304688 117.86039733886719 163.44810485839844 123.93897247314453 165.94406127929688 130.21337890625 C 166.80348205566406 133.5265655517578 167.91241455078125 144.46701049804688 157.74032592773438 149.67868041992188 C 144.82171630859375 155.0980224609375 131.2491912841797 145.84681701660156 130.6829071044922 133.76080322265625 C 129.94168090820312 120.48085021972656 138.80459594726562 117.49994659423828 139.91725158691406 117.24712371826172 C 145.93258666992188 115.52689361572266 148.00421142578125 114.6293716430664 153.2437744140625 116.3682861328125" stroke-width="0.0" fill="url(#shape_6_fill)"/>
  </g>
</svg>
