<?xml version="1.0" encoding="UTF-8"?>
<!-- Generator: visioncortex VTracer 0.6.4 -->
<svg version="1.1" xmlns="http://www.w3.org/2000/svg" width="512" height="512">
<path d="M0 0 C168.96 0 337.92 0 512 0 C512 168.96 512 337.92 512 512 C343.04 512 174.08 512 0 512 C0 343.04 0 174.08 0 0 Z " fill="#000000" transform="translate(0,0)"/>
<path d="M0 0 C2.753 2.294 3.858 3.574 5 7 C5.99 7.66 6.98 8.32 8 9 C8.625 11.68 8.625 11.68 9 14.875 C9.505 19.153 10.026 21.802 13 25 C13.66 25.33 14.32 25.66 15 26 C14.01 27.485 14.01 27.485 13 29 C12.899 31.227 12.899 31.227 13.25 33.562 C13.338 34.348 13.425 35.133 13.516 35.941 C13.859 38.21 13.859 38.21 16 40 C16 41.32 16 42.64 16 44 C15.34 44 14.68 44 14 44 C14.703 44.613 14.703 44.613 15.42 45.238 C17.227 47.253 17.661 48.574 18.283 51.188 C18.492 52.038 18.7 52.888 18.914 53.764 C19.237 55.153 19.237 55.153 19.566 56.57 C19.801 57.542 20.036 58.514 20.278 59.515 C21.05 62.716 21.806 65.92 22.562 69.125 C23.098 71.357 23.634 73.588 24.171 75.819 C25.265 80.365 26.353 84.912 27.437 89.46 C29.45 97.897 31.511 106.323 33.575 114.747 C34.594 118.91 35.607 123.074 36.621 127.238 C38.015 132.961 39.411 138.683 40.81 144.403 C41.791 148.415 42.771 152.426 43.75 156.438 C43.937 157.205 44.125 157.972 44.318 158.762 C46.456 167.53 48.555 176.303 50.55 185.105 C51.047 187.277 51.556 189.446 52.079 191.612 C53.115 195.911 54.074 200.081 54.48 204.488 C55.048 208.594 55.375 210.774 58 214 C63.171 216.53 68.734 217.612 74.352 218.691 C83.596 220.557 90.99 224.704 97 232 C98.123 234.245 98.134 235.515 98.125 238 C98.128 238.701 98.13 239.403 98.133 240.125 C98 242 98 242 97 244 C90.267 244.397 84.349 244.373 77.938 242.125 C71.357 239.835 64.975 239.219 58.066 238.772 C51.722 238.303 46.72 237.442 41.82 233.043 C39.041 228.396 37.522 223.453 35.875 218.312 C35.49 217.136 35.106 215.96 34.709 214.749 C31.143 203.718 27.892 192.597 24.655 181.467 C20.998 168.901 17.065 156.44 13 144 C11.988 140.897 10.976 137.794 9.965 134.691 C9.695 133.863 9.425 133.035 9.147 132.182 C6.624 124.439 4.111 116.694 1.603 108.946 C0.574 105.767 -0.46 102.589 -1.498 99.413 C-14 61.105 -14 61.105 -14 49 C-18.218 51.202 -20.592 53.646 -23.438 57.438 C-23.856 57.992 -24.274 58.547 -24.705 59.119 C-29.219 65.17 -33.5 71.39 -37.797 77.595 C-42.074 83.75 -46.536 89.706 -51.207 95.566 C-53.153 97.946 -53.153 97.946 -54 101 C-54.66 101 -55.32 101 -56 101 C-56.99 102.98 -56.99 102.98 -58 105 C-58.66 105 -59.32 105 -60 105 C-60.115 105.595 -60.23 106.191 -60.348 106.804 C-61.406 110.366 -64.019 112.83 -66.438 115.562 C-70.425 120.117 -70.425 120.117 -74 125 C-74.66 125 -75.32 125 -76 125 C-76.227 125.544 -76.454 126.088 -76.688 126.648 C-78.388 129.695 -80.628 132.098 -83 134.625 C-83.49 135.151 -83.98 135.678 -84.484 136.22 C-101.719 154.64 -101.719 154.64 -110 160 C-113 159 -113 159 -114.223 157.133 C-114.618 156.329 -115.012 155.524 -115.418 154.695 C-115.864 153.806 -116.31 152.917 -116.769 152.001 C-117.237 151.052 -117.705 150.103 -118.188 149.125 C-125.314 133.988 -125.314 133.988 -138 124 C-137.67 122.68 -137.34 121.36 -137 120 C-136.361 119.897 -135.721 119.794 -135.062 119.688 C-134.382 119.461 -133.701 119.234 -133 119 C-132.67 118.01 -132.34 117.02 -132 116 C-130.066 114.273 -130.066 114.273 -127.562 112.375 C-122.82 108.704 -118.407 104.786 -114.031 100.688 C-112 99 -112 99 -110 99 C-109.752 98.423 -109.505 97.845 -109.25 97.25 C-107.817 94.671 -106.216 92.939 -104 91 C-103.34 91 -102.68 91 -102 91 C-101.752 90.423 -101.505 89.845 -101.25 89.25 C-99.817 86.671 -98.216 84.939 -96 83 C-95.34 83 -94.68 83 -94 83 C-93.732 82.361 -93.464 81.721 -93.188 81.062 C-92 79 -92 79 -89 78 C-88.582 77.157 -88.582 77.157 -88.156 76.297 C-86.527 73.06 -84.053 70.764 -81.5 68.25 C-81.001 67.743 -80.502 67.237 -79.988 66.715 C-76.253 63 -76.253 63 -74 63 C-73.756 62.428 -73.513 61.855 -73.262 61.266 C-71.775 58.596 -70.019 56.862 -67.812 54.75 C-65.067 52.115 -62.484 49.427 -60.016 46.535 C-55.161 40.938 -49.933 35.71 -44.705 30.465 C-42.958 28.708 -41.222 26.941 -39.486 25.174 C-11.152 -3.428 -11.152 -3.428 0 0 Z " fill="#FFFFFF" transform="translate(397,200)"/>
</svg>
