<?xml version="1.0" encoding="UTF-8"?>
<!-- Generator: visioncortex VTracer 0.6.4 -->
<svg version="1.1" xmlns="http://www.w3.org/2000/svg" width="512" height="512">
<path d="M0 0 C168.96 0 337.92 0 512 0 C512 168.96 512 337.92 512 512 C343.04 512 174.08 512 0 512 C0 343.04 0 174.08 0 0 Z " fill="#000000" transform="translate(0,0)"/>
<path d="M0 0 C2.242 -0.328 2.242 -0.328 4.875 -0.25 C5.739 -0.235 6.602 -0.219 7.492 -0.203 C9.778 -0.018 11.802 0.366 14 1 C14 1.66 14 2.32 14 3 C15.702 3.217 15.702 3.217 17.438 3.438 C21 4 21 4 22 5 C22.041 7.333 22.042 9.667 22 12 C23.32 12 24.64 12 26 12 C26.25 15.312 26.25 15.312 26 19 C20.074 24.565 10.706 25.624 2.91 26.137 C-1.571 25.926 -5.313 24.546 -9 22 C-11.254 18.619 -11.245 17.394 -11.188 13.438 C-11.181 12.467 -11.175 11.496 -11.168 10.496 C-11 8 -11 8 -10 6 C-12.31 6.66 -14.62 7.32 -17 8 C-17.33 7.01 -17.66 6.02 -18 5 C-16.302 4.836 -16.302 4.836 -14.57 4.668 C-13.088 4.509 -11.607 4.348 -10.125 4.188 C-9.005 4.082 -9.005 4.082 -7.863 3.975 C-5.894 3.753 -3.944 3.384 -2 3 C-1.34 2.01 -0.68 1.02 0 0 Z " fill="#FFFFFF" transform="translate(234,356)"/>
</svg>
