<?xml version="1.0" ?>
<svg xmlns="http://www.w3.org/2000/svg" version="1.1" width="512" height="512">
  <defs>
    <radialGradient id="shape_0_fill" cx="0.49812623858451843" cy="0.49804380536079407" r="0.49898794293403625">
      <stop offset="0.0" stop-color="rgb(0, 0, 0)" stop-opacity="0.9767164587974548"/>
      <stop offset="0.9420825" stop-color="rgb(0, 0, 0)" stop-opacity="0.9779916405677795"/>
    </radialGradient>
    <radialGradient id="shape_1_fill" cx="0.5038045048713684" cy="0.5370652079582214" r="0.4223538637161255">
      <stop offset="0.0" stop-color="rgb(113, 134, 60)" stop-opacity="0.9884501695632935"/>
      <stop offset="1.0" stop-color="rgb(112, 133, 60)" stop-opacity="0.9944708943367004"/>
    </radialGradient>
    <radialGradient id="shape_2_fill" cx="0.642578125" cy="0.30078125" r="0.11583694070577621">
      <stop offset="0.0" stop-color="rgb(91, 101, 23)" stop-opacity="1.0"/>
      <stop offset="1.0" stop-color="rgb(90, 101, 21)" stop-opacity="0.9889349341392517"/>
    </radialGradient>
    <radialGradient id="shape_3_fill" cx="0.824134886264801" cy="0.7597277164459229" r="0.10403072088956833">
      <stop offset="0.0" stop-color="rgb(91, 101, 21)" stop-opacity="0.9824433326721191"/>
      <stop offset="0.9734841" stop-color="rgb(91, 101, 21)" stop-opacity="0.9811883568763733"/>
    </radialGradient>
    <radialGradient id="shape_4_fill" cx="0.578125" cy="0.810546875" r="0.1152443066239357">
      <stop offset="0.0" stop-color="rgb(90, 101, 22)" stop-opacity="1.0"/>
      <stop offset="1.0" stop-color="rgb(90, 101, 21)" stop-opacity="0.9882754683494568"/>
    </radialGradient>
    <radialGradient id="shape_5_fill" cx="0.447265625" cy="0.810546875" r="0.10000000149011612">
      <stop offset="0.0" stop-color="rgb(111, 132, 59)" stop-opacity="1.0"/>
      <stop offset="1.0" stop-color="rgb(112, 132, 59)" stop-opacity="0.8246960043907166"/>
    </radialGradient>
    <radialGradient id="shape_6_fill" cx="0.7324443459510803" cy="0.7344108819961548" r="0.10006784647703171">
      <stop offset="0.0057126754" stop-color="rgb(111, 132, 59)" stop-opacity="0.7777815461158752"/>
      <stop offset="1.0" stop-color="rgb(112, 133, 60)" stop-opacity="0.773773729801178"/>
    </radialGradient>
    <radialGradient id="shape_7_fill" cx="0.2048679143190384" cy="0.3883451223373413" r="0.13952182233333588">
      <stop offset="0.21328703" stop-color="rgb(133, 149, 34)" stop-opacity="0.6229641437530518"/>
      <stop offset="0.9681849" stop-color="rgb(103, 115, 24)" stop-opacity="0.8622626662254333"/>
    </radialGradient>
    <radialGradient id="shape_8_fill" cx="0.87890625" cy="0.2734375" r="0.1122392788529396">
      <stop offset="0.0" stop-color="rgb(240, 108, 55)" stop-opacity="1.0"/>
      <stop offset="1.0" stop-color="rgb(241, 106, 53)" stop-opacity="1.0"/>
    </radialGradient>
    <radialGradient id="shape_9_fill" cx="0.46117064356803894" cy="0.42251384258270264" r="0.0997977927327156">
      <stop offset="0.0002446872" stop-color="rgb(100, 112, 24)" stop-opacity="0.8906496167182922"/>
      <stop offset="0.97909987" stop-color="rgb(90, 100, 20)" stop-opacity="0.9884908199310303"/>
    </radialGradient>
    <radialGradient id="shape_10_fill" cx="0.646484375" cy="0.775390625" r="0.10000000149011612">
      <stop offset="0.0" stop-color="rgb(0, 0, 0)" stop-opacity="1.0"/>
      <stop offset="1.0" stop-color="rgb(0, 0, 0)" stop-opacity="0.8823164105415344"/>
    </radialGradient>
    <radialGradient id="shape_11_fill" cx="0.828125" cy="0.142578125" r="0.10000000149011612">
      <stop offset="0.0" stop-color="rgb(94, 108, 57)" stop-opacity="1.0"/>
      <stop offset="1.0" stop-color="rgb(112, 133, 60)" stop-opacity="0.9975387454032898"/>
    </radialGradient>
    <radialGradient id="shape_12_fill" cx="0.744140625" cy="0.453125" r="0.10000000149011612">
      <stop offset="0.0" stop-color="rgb(47, 45, 51)" stop-opacity="1.0"/>
      <stop offset="1.0" stop-color="rgb(45, 43, 50)" stop-opacity="0.9905794858932495"/>
    </radialGradient>
    <radialGradient id="shape_13_fill" cx="0.607421875" cy="0.48046875" r="0.10000000149011612">
      <stop offset="0.0" stop-color="rgb(149, 167, 39)" stop-opacity="1.0"/>
      <stop offset="1.0" stop-color="rgb(151, 169, 39)" stop-opacity="0.9954795837402344"/>
    </radialGradient>
    <radialGradient id="shape_14_fill" cx="0.49999698996543884" cy="0.5155978798866272" r="0.09999818354845047">
      <stop offset="0.006129766" stop-color="rgb(151, 169, 38)" stop-opacity="0.9924342632293701"/>
      <stop offset="0.9986267" stop-color="rgb(150, 168, 39)" stop-opacity="0.9918623566627502"/>
    </radialGradient>
    <radialGradient id="shape_15_fill" cx="0.380859375" cy="0.546875" r="0.10000000149011612">
      <stop offset="0.0" stop-color="rgb(149, 167, 39)" stop-opacity="1.0"/>
      <stop offset="1.0" stop-color="rgb(151, 169, 39)" stop-opacity="0.9918811917304993"/>
    </radialGradient>
    <radialGradient id="shape_16_fill" cx="0.6465196013450623" cy="0.6015836596488953" r="0.09997650980949402">
      <stop offset="0.0" stop-color="rgb(150, 168, 39)" stop-opacity="0.9958311319351196"/>
      <stop offset="0.9861441" stop-color="rgb(150, 168, 38)" stop-opacity="0.9938886165618896"/>
    </radialGradient>
    <radialGradient id="shape_17_fill" cx="0.740234375" cy="0.22265625" r="0.10000000149011612">
      <stop offset="0.0" stop-color="rgb(97, 111, 34)" stop-opacity="1.0"/>
      <stop offset="1.0" stop-color="rgb(106, 124, 49)" stop-opacity="0.8278332948684692"/>
    </radialGradient>
    <radialGradient id="shape_18_fill" cx="0.537109375" cy="0.650390625" r="0.10000000149011612">
      <stop offset="0.0" stop-color="rgb(149, 167, 39)" stop-opacity="1.0"/>
      <stop offset="1.0" stop-color="rgb(151, 169, 38)" stop-opacity="0.9978209733963013"/>
    </radialGradient>
    <radialGradient id="shape_19_fill" cx="0.29296875" cy="0.69921875" r="0.10000000149011612">
      <stop offset="0.0" stop-color="rgb(149, 167, 40)" stop-opacity="1.0"/>
      <stop offset="1.0" stop-color="rgb(151, 169, 38)" stop-opacity="0.9964863061904907"/>
    </radialGradient>
    <radialGradient id="shape_20_fill" cx="0.4140625" cy="0.6796875" r="0.10000000149011612">
      <stop offset="0.0" stop-color="rgb(149, 167, 39)" stop-opacity="1.0"/>
      <stop offset="1.0" stop-color="rgb(151, 169, 38)" stop-opacity="0.9907835125923157"/>
    </radialGradient>
    <radialGradient id="shape_21_fill" cx="0.36603936553001404" cy="0.37746819853782654" r="0.0989600419998169">
      <stop offset="0.23394223" stop-color="rgb(0, 0, 0)" stop-opacity="0.3071763813495636"/>
      <stop offset="0.6368777" stop-color="rgb(74, 68, 0)" stop-opacity="0.32299619913101196"/>
    </radialGradient>
    <radialGradient id="shape_22_fill" cx="0.169921875" cy="0.677734375" r="0.10000000149011612">
      <stop offset="0.0" stop-color="rgb(149, 167, 39)" stop-opacity="1.0"/>
      <stop offset="1.0" stop-color="rgb(151, 169, 38)" stop-opacity="0.9943106770515442"/>
    </radialGradient>
    <radialGradient id="shape_23_fill" cx="0.828125" cy="0.443359375" r="0.10000000149011612">
      <stop offset="0.0" stop-color="rgb(130, 129, 59)" stop-opacity="1.0"/>
      <stop offset="1.0" stop-color="rgb(166, 156, 71)" stop-opacity="0.8042371869087219"/>
    </radialGradient>
    <radialGradient id="shape_24_fill" cx="0.19140625" cy="0.59765625" r="0.10000000149011612">
      <stop offset="0.0" stop-color="rgb(149, 167, 39)" stop-opacity="1.0"/>
      <stop offset="1.0" stop-color="rgb(151, 169, 38)" stop-opacity="0.9908187985420227"/>
    </radialGradient>
    <radialGradient id="shape_25_fill" cx="0.119140625" cy="0.53515625" r="0.10000000149011612">
      <stop offset="0.0" stop-color="rgb(149, 167, 40)" stop-opacity="1.0"/>
      <stop offset="1.0" stop-color="rgb(151, 169, 38)" stop-opacity="0.9956731200218201"/>
    </radialGradient>
    <radialGradient id="shape_26_fill" cx="0.283203125" cy="0.58984375" r="0.10000000149011612">
      <stop offset="0.0" stop-color="rgb(149, 167, 39)" stop-opacity="1.0"/>
      <stop offset="1.0" stop-color="rgb(150, 168, 39)" stop-opacity="0.9960672855377197"/>
    </radialGradient>
    <radialGradient id="shape_27_fill" cx="0.5201498866081238" cy="0.43494895100593567" r="0.10111531615257263">
      <stop offset="0.6391829" stop-color="rgb(25, 2, 0)" stop-opacity="0.31731873750686646"/>
      <stop offset="1.0" stop-color="rgb(110, 126, 40)" stop-opacity="0.899201512336731"/>
    </radialGradient>
    <radialGradient id="shape_28_fill" cx="0.08203125" cy="0.58984375" r="0.10000000149011612">
      <stop offset="0.0" stop-color="rgb(148, 166, 40)" stop-opacity="1.0"/>
      <stop offset="1.0" stop-color="rgb(151, 169, 38)" stop-opacity="0.9944151639938354"/>
    </radialGradient>
    <radialGradient id="shape_29_fill" cx="0.6640625" cy="0.822265625" r="0.10000000149011612">
      <stop offset="0.0" stop-color="rgb(104, 121, 44)" stop-opacity="1.0"/>
      <stop offset="1.0" stop-color="rgb(90, 99, 20)" stop-opacity="0.8401557803153992"/>
    </radialGradient>
    <radialGradient id="shape_30_fill" cx="0.88671875" cy="0.111328125" r="0.10000000149011612">
      <stop offset="0.0" stop-color="rgb(6, 7, 3)" stop-opacity="1.0"/>
      <stop offset="1.0" stop-color="rgb(0, 0, 0)" stop-opacity="0.3727186918258667"/>
    </radialGradient>
    <radialGradient id="shape_31_fill" cx="0.126953125" cy="0.3671875" r="0.10000000149011612">
      <stop offset="0.0" stop-color="rgb(148, 166, 40)" stop-opacity="1.0"/>
      <stop offset="1.0" stop-color="rgb(150, 168, 39)" stop-opacity="0.997887909412384"/>
    </radialGradient>
    <radialGradient id="shape_32_fill" cx="0.830078125" cy="0.404296875" r="0.10000000149011612">
      <stop offset="0.0" stop-color="rgb(251, 244, 240)" stop-opacity="1.0"/>
      <stop offset="1.0" stop-color="rgb(255, 252, 251)" stop-opacity="1.0"/>
    </radialGradient>
    <radialGradient id="shape_33_fill" cx="0.90625" cy="0.244140625" r="0.10000000149011612">
      <stop offset="0.0" stop-color="rgb(252, 248, 246)" stop-opacity="1.0"/>
      <stop offset="1.0" stop-color="rgb(254, 248, 246)" stop-opacity="1.0"/>
    </radialGradient>
    <radialGradient id="shape_34_fill" cx="0.845703125" cy="0.3359375" r="0.10000000149011612">
      <stop offset="0.0" stop-color="rgb(252, 248, 246)" stop-opacity="1.0"/>
      <stop offset="1.0" stop-color="rgb(254, 251, 251)" stop-opacity="1.0"/>
    </radialGradient>
    <radialGradient id="shape_35_fill" cx="0.904296875" cy="0.75390625" r="0.10000000149011612">
      <stop offset="0.0" stop-color="rgb(112, 132, 59)" stop-opacity="1.0"/>
      <stop offset="1.0" stop-color="rgb(113, 136, 63)" stop-opacity="0.913726806640625"/>
    </radialGradient>
    <radialGradient id="shape_36_fill" cx="0.1015625" cy="0.447265625" r="0.10000000149011612">
      <stop offset="0.0" stop-color="rgb(149, 167, 39)" stop-opacity="1.0"/>
      <stop offset="1.0" stop-color="rgb(150, 168, 38)" stop-opacity="0.9929691553115845"/>
    </radialGradient>
    <radialGradient id="shape_37_fill" cx="0.1796875" cy="0.3046875" r="0.10000000149011612">
      <stop offset="0.0" stop-color="rgb(148, 166, 40)" stop-opacity="1.0"/>
      <stop offset="1.0" stop-color="rgb(151, 169, 38)" stop-opacity="0.9951368570327759"/>
    </radialGradient>
    <radialGradient id="shape_38_fill" cx="0.056640625" cy="0.48046875" r="0.10000000149011612">
      <stop offset="0.0" stop-color="rgb(149, 167, 39)" stop-opacity="1.0"/>
      <stop offset="1.0" stop-color="rgb(150, 168, 39)" stop-opacity="0.998550534248352"/>
    </radialGradient>
    <radialGradient id="shape_39_fill" cx="0.72265625" cy="0.1875" r="0.10000000149011612">
      <stop offset="0.0" stop-color="rgb(112, 132, 59)" stop-opacity="1.0"/>
      <stop offset="1.0" stop-color="rgb(114, 137, 65)" stop-opacity="0.869884729385376"/>
    </radialGradient>
    <radialGradient id="shape_40_fill" cx="0.6640625" cy="0.822265625" r="0.10000000149011612">
      <stop offset="0.0" stop-color="rgb(111, 132, 56)" stop-opacity="1.0"/>
      <stop offset="1.0" stop-color="rgb(115, 137, 61)" stop-opacity="0.9451866149902344"/>
    </radialGradient>
    <radialGradient id="shape_41_fill" cx="0.90625" cy="0.16796875" r="0.10000000149011612">
      <stop offset="0.0" stop-color="rgb(252, 248, 246)" stop-opacity="1.0"/>
      <stop offset="1.0" stop-color="rgb(255, 251, 251)" stop-opacity="1.0"/>
    </radialGradient>
    <radialGradient id="shape_42_fill" cx="0.078125" cy="0.37890625" r="0.10000000149011612">
      <stop offset="0.0" stop-color="rgb(149, 167, 39)" stop-opacity="1.0"/>
      <stop offset="1.0" stop-color="rgb(150, 168, 39)" stop-opacity="0.9849363565444946"/>
    </radialGradient>
    <radialGradient id="shape_43_fill" cx="0.8984375" cy="0.7890625" r="0.10000000149011612">
      <stop offset="0.0" stop-color="rgb(111, 131, 58)" stop-opacity="1.0"/>
      <stop offset="1.0" stop-color="rgb(114, 136, 64)" stop-opacity="0.8973483443260193"/>
    </radialGradient>
    <radialGradient id="shape_44_fill" cx="0.654296875" cy="0.853515625" r="0.10000000149011612">
      <stop offset="0.0" stop-color="rgb(111, 132, 56)" stop-opacity="1.0"/>
      <stop offset="1.0" stop-color="rgb(112, 134, 58)" stop-opacity="1.0"/>
    </radialGradient>
    <radialGradient id="shape_45_fill" cx="0.521484375" cy="0.400390625" r="0.10000000149011612">
      <stop offset="0.0" stop-color="rgb(110, 130, 57)" stop-opacity="1.0"/>
      <stop offset="1.0" stop-color="rgb(111, 132, 59)" stop-opacity="1.0"/>
    </radialGradient>
    <radialGradient id="shape_46_fill" cx="0.826171875" cy="0.1328125" r="0.10000000149011612">
      <stop offset="0.0" stop-color="rgb(51, 51, 51)" stop-opacity="1.0"/>
      <stop offset="1.0" stop-color="rgb(46, 44, 50)" stop-opacity="0.9955433011054993"/>
    </radialGradient>
    <radialGradient id="shape_47_fill" cx="0.837890625" cy="0.1953125" r="0.10000000149011612">
      <stop offset="0.0" stop-color="rgb(47, 46, 51)" stop-opacity="1.0"/>
      <stop offset="1.0" stop-color="rgb(46, 44, 50)" stop-opacity="1.0"/>
    </radialGradient>
  </defs>
  <g>
    <path d="M 0.0011933277128264308 0.6004411578178406 C 168.9601593017578 -0.6003219485282898 337.9200134277344 -0.6003369688987732 511.3996276855469 0.6004388928413391 C 512.60009765625 168.96009826660156 512.60009765625 337.9200134277344 511.3996276855469 511.399658203125 C 343.0400085449219 512.60009765625 174.08009338378906 512.60009765625 0.6004343628883362 511.3996276855469 C -0.6003323197364807 343.0400085449219 -0.600364625453949 174.0800018310547 0.0011933277128264308 0.6004411578178406" stroke-width="0.0" fill="url(#shape_0_fill)"/>
    <path d="M 341.651123046875 44.388145446777344 C 343.8689270019531 45.500797271728516 347.471435546875 49.155731201171875 353.0859680175781 53.704803466796875 C 366.05279541015625 66.11111450195312 375.0350646972656 76.5094223022461 384.8183288574219 92.5315933227539 C 401.9454345703125 119.15580749511719 404.5708923339844 148.57659912109375 407.0115051269531 178.0404815673828 C 419.7803039550781 181.2439727783203 425.5251159667969 189.2900390625 430.9525451660156 197.11917114257812 C 435.543212890625 206.036865234375 437.5298767089844 211.62359619140625 439.5208435058594 224.59085083007812 C 441.9775695800781 241.32659912109375 443.9972229003906 258.0050964355469 438.8919677734375 271.5621643066406 C 432.557373046875 269.6745910644531 429.98028564453125 276.0001220703125 424.79412841796875 276.349853515625 C 413.76385498046875 276.81060791015625 410.8187561035156 279.0515441894531 403.43603515625 277.107177734375 C 397.6463623046875 267.0254821777344 390.3791809082031 248.64024353027344 392.5920104980469 239.37612915039062 C 391.0387878417969 238.3963623046875 390.7220153808594 234.3345489501953 392.6300048828125 227.83155822753906 C 392.1900634765625 227.3677215576172 390.14862060546875 212.68319702148438 386.5360107421875 211.60801696777344 C 382.2799072265625 221.88250732421875 383.3345031738281 226.3005828857422 381.7249755859375 234.25289916992188 C 383.4018249511719 240.13980102539062 382.215576171875 254.42759704589844 385.1708984375 261.5560302734375 C 392.0345153808594 293.8871765136719 382.82568359375 319.6498107910156 372.4841613769531 350.96832275390625 C 376.4237060546875 349.6729736328125 387.3966064453125 351.6927490234375 392.4084777832031 352.2434997558594 C 402.5972900390625 354.49176025390625 412.03302001953125 356.4693603515625 420.3438720703125 362.9618835449219 C 429.17889404296875 373.4358825683594 407.7999267578125 396.0382995605469 399.6903381347656 400.5206298828125 C 384.9555969238281 411.17169189453125 348.32427978515625 399.5906677246094 336.0696716308594 390.0850524902344 C 334.5362854003906 385.1620788574219 333.3711853027344 379.6449890136719 335.3140869140625 376.29150390625 C 334.0078125 375.00823974609375 334.2337341308594 366.204345703125 335.53472900390625 365.7762756347656 C 330.6776428222656 365.4139099121094 326.7181396484375 368.85150146484375 324.6820983886719 368.84967041015625 C 324.09906005859375 377.7610168457031 322.059326171875 385.1145324707031 323.2810974121094 393.4198913574219 C 324.6463317871094 399.56402587890625 329.696533203125 402.2053527832031 333.3282775878906 406.6347961425781 C 328.6515808105469 410.2606201171875 321.912841796875 414.6601257324219 315.04638671875 419.579345703125 C 305.3912353515625 426.28741455078125 296.00140380859375 431.2226867675781 286.3801574707031 436.3902893066406 C 285.2010192871094 437.1904602050781 279.2199401855469 439.05145263671875 277.6067199707031 443.2710876464844 C 263.44000244140625 459.1551818847656 245.26559448242188 468.5304870605469 224.43638610839844 470.02593994140625 C 218.84335327148438 471.1973571777344 216.71963500976562 469.9345703125 207.16787719726562 470.6585998535156 C 196.5732879638672 469.289794921875 191.02708435058594 469.7843322753906 179.25291442871094 477.30413818359375 C 178.34054565429688 476.9837951660156 169.2488555908203 482.0675964355469 163.69131469726562 484.0316162109375 C 141.48291015625 493.6123352050781 112.61685943603516 497.98223876953125 89.1149673461914 490.07879638671875 C 73.38470458984375 486.78961181640625 57.887298583984375 464.9363708496094 65.72132110595703 456.62744140625 C 65.9866943359375 455.0813293457031 72.71895599365234 453.3037109375 73.26160430908203 455.0647888183594 C 74.9365463256836 464.79815673828125 80.59822845458984 465.7264099121094 83.934814453125 468.12689208984375 C 87.38935089111328 473.9258728027344 116.48237609863281 473.4565124511719 131.33412170410156 466.2403869628906 C 146.59083557128906 464.45819091796875 153.37660217285156 459.23480224609375 165.4586181640625 453.3180847167969 C 170.77845764160156 452.5826416015625 179.27174377441406 446.11077880859375 180.2252197265625 446.5552062988281 C 187.75289916992188 441.6019287109375 196.26295471191406 437.7600402832031 205.5740509033203 435.2668762207031 C 210.48399353027344 434.255615234375 212.47879028320312 430.6428527832031 217.6419677734375 428.0345153808594 C 223.312255859375 439.18133544921875 234.62306213378906 433.6274108886719 237.24636840820312 434.1415100097656 C 235.87936401367188 433.947021484375 235.8581085205078 424.8536071777344 235.7656707763672 421.9960021972656 C 235.14236450195312 418.3801574707031 224.92098999023438 418.9252624511719 224.4029998779297 418.6529541015625 C 223.5236053466797 421.12689208984375 214.2968292236328 420.7002258300781 212.1217041015625 416.81134033203125 C 209.0968780517578 413.8666687011719 201.9598388671875 418.270751953125 202.76734924316406 422.4617614746094 C 197.1785430908203 419.8597717285156 194.2357940673828 423.3763732910156 192.46173095703125 422.7581481933594 C 184.66427612304688 424.15386962890625 182.65768432617188 428.1021423339844 180.25784301757812 430.6668701171875 C 174.19277954101562 429.69915771484375 169.29957580566406 427.70660400390625 166.14369201660156 429.7722473144531 C 160.866943359375 431.4832458496094 159.80845642089844 434.98321533203125 154.03012084960938 436.60400390625 C 145.7073211669922 436.9698486328125 140.9126739501953 440.8342590332031 133.15060424804688 443.45477294921875 C 113.14826965332031 460.477294921875 53.9251708984375 457.5961608886719 49.810211181640625 436.9606628417969 C 54.8867073059082 433.03302001953125 62.198814392089844 429.6253356933594 70.49602508544922 430.5169372558594 C 75.72188568115234 435.51513671875 77.65631103515625 434.1877136230469 81.46739959716797 433.3641357421875 C 87.18235778808594 434.8364562988281 91.51836395263672 433.2967834472656 96.07837677001953 434.0151062011719 C 96.8472671508789 437.2343444824219 106.96569061279297 435.5359802246094 107.58192443847656 430.86968994140625 C 107.95014953613281 425.47406005859375 106.2430191040039 423.35211181640625 102.10271453857422 423.6315612792969 C 95.6639633178711 425.4521789550781 91.85919189453125 418.80816650390625 86.31864929199219 414.76214599609375 C 83.43663024902344 417.3232421875 76.7113037109375 421.93267822265625 74.91510009765625 421.52032470703125 C 71.93597412109375 417.921142578125 66.39723205566406 418.84326171875 62.751216888427734 418.4997253417969 C 62.964439392089844 411.5882873535156 61.137474060058594 409.7928161621094 60.92923355102539 406.3360290527344 C 65.89790344238281 406.3463439941406 67.26707458496094 404.90740966796875 69.42289733886719 405.49749755859375 C 73.67524719238281 405.34844970703125 80.35964965820312 404.4656066894531 85.98052978515625 404.16717529296875 C 98.47012329101562 404.8299560546875 102.88417053222656 399.838623046875 114.74591064453125 392.2897644042969 C 127.14986419677734 383.6164245605469 132.89022827148438 382.61883544921875 139.84295654296875 367.74041748046875 C 137.8203887939453 339.072998046875 166.3452606201172 320.22235107421875 183.3950653076172 324.7345886230469 C 194.42868041992188 327.3990173339844 195.6082000732422 331.3923034667969 207.3294677734375 334.6305236816406 C 215.07188415527344 334.9280090332031 218.3352813720703 320.0069274902344 220.09544372558594 315.8746643066406 C 222.27447509765625 308.3624572753906 223.42007446289062 301.65380859375 225.5299072265625 295.931396484375 C 228.16864013671875 285.3453369140625 227.37022399902344 283.7515563964844 228.4745330810547 282.8624572753906 C 229.6588897705078 272.1115417480469 232.2747039794922 265.8162841796875 234.45071411132812 252.82095336914062 C 237.6338348388672 239.32394409179688 240.14231872558594 230.31918334960938 243.52178955078125 218.32923889160156 C 242.85423278808594 219.75338745117188 233.4744110107422 218.58282470703125 232.60040283203125 219.82418823242188 C 219.3216552734375 219.52859497070312 214.34815979003906 214.0531768798828 200.0747528076172 208.179931640625 C 196.21299743652344 207.3975372314453 196.15110778808594 204.04708862304688 200.16253662109375 192.69688415527344 C 200.4730987548828 190.89730834960938 203.2371826171875 185.76107788085938 207.3082275390625 179.88525390625 C 215.8940887451172 166.30638122558594 231.1712188720703 159.2257080078125 245.6165008544922 153.27894592285156 C 259.34283447265625 147.78196716308594 267.84808349609375 151.0738983154297 278.5984191894531 123.19248962402344 C 289.4674377441406 92.27560424804688 262.0141296386719 62.152957916259766 221.90635681152344 72.3370361328125 C 202.11790466308594 76.42253112792969 194.52490234375 85.16830444335938 180.83287048339844 96.42647552490234 C 172.0775146484375 105.80947875976562 166.87612915039062 108.34990692138672 160.84573364257812 115.74968719482422 C 159.4745635986328 115.82440185546875 146.6412353515625 129.26805114746094 140.36865234375 132.54736328125 C 122.2283706665039 146.9542694091797 106.77464294433594 149.61087036132812 82.74481964111328 150.4705352783203 C 74.91912841796875 147.8662872314453 75.9293441772461 143.22291564941406 76.68943786621094 139.89060974121094 C 78.87255859375 138.3025360107422 84.19733428955078 136.2089080810547 88.17240905761719 135.78150939941406 C 89.51318359375 133.81805419921875 97.2752456665039 134.1291046142578 98.06651306152344 132.27090454101562 C 124.04949188232422 126.88166809082031 130.66403198242188 110.93351745605469 144.04296875 88.50764465332031 C 149.64683532714844 79.18402099609375 153.66168212890625 72.16817474365234 161.57879638671875 61.20266342163086 C 172.63455200195312 47.15964126586914 178.4789276123047 41.078372955322266 193.88804626464844 32.952598571777344 C 240.28790283203125 6.516721725463867 299.0855712890625 12.438669204711914 341.651123046875 44.388145446777344" stroke-width="0.0" fill="url(#shape_1_fill)"/>
    <path d="M 223.5666046142578 297.5493469238281 C 226.68084716796875 298.5159606933594 218.9630889892578 325.0174865722656 213.03768920898438 333.0450134277344 C 206.25680541992188 337.15594482421875 200.71878051757812 331.6466369628906 193.59881591796875 329.1335754394531 C 168.51673889160156 319.999755859375 148.1325225830078 335.2567443847656 145.16012573242188 348.34820556640625 C 141.650390625 354.83673095703125 143.18438720703125 357.8999938964844 140.9261474609375 364.6113586425781 C 143.6298065185547 377.2376708984375 116.2079086303711 389.46405029296875 113.22759246826172 391.5198059082031 C 111.34892272949219 392.1769714355469 102.37370300292969 387.04302978515625 101.17872619628906 385.6767272949219 C 97.17710876464844 382.4676513671875 90.16336059570312 374.25506591796875 89.61453247070312 370.2374267578125 C 89.05534362792969 369.27032470703125 87.88201141357422 362.3800048828125 90.85346221923828 358.5500183105469 C 93.32757568359375 355.45245361328125 97.69752502441406 354.2005920410156 102.31214904785156 352.9444885253906 C 111.8640365600586 350.06414794921875 117.91474151611328 344.8248291015625 122.18360900878906 335.2879333496094 C 127.1117935180664 326.53619384765625 127.17967224121094 322.34228515625 134.64694213867188 303.90093994140625 C 141.52410888671875 290.2961120605469 171.8957977294922 274.4095764160156 223.5666046142578 297.5493469238281" stroke-width="0.0" fill="url(#shape_2_fill)"/>
    <path d="M 332.86474609375 364.3865661621094 C 336.8445129394531 366.5035705566406 336.0279235839844 371.7133483886719 334.4570617675781 377.6630554199219 C 336.1396179199219 382.5279541015625 334.7286682128906 387.2494812011719 338.4146423339844 391.5152587890625 C 345.8150939941406 396.78265380859375 353.80743408203125 397.86663818359375 363.42010498046875 401.81689453125 C 379.9479675292969 405.7159118652344 391.2257080078125 405.918701171875 400.4969177246094 399.3493347167969 C 410.9779968261719 391.8274841308594 418.3774719238281 381.9661865234375 423.0937805175781 368.0081787109375 C 425.872314453125 371.3671569824219 428.5596923828125 380.6712341308594 428.4375 381.5485534667969 C 432.57501220703125 399.0780334472656 431.19989013671875 435.3579406738281 422.5964050292969 458.0622253417969 C 420.2193298339844 461.02593994140625 414.6382751464844 464.3907165527344 410.3569641113281 466.3102722167969 C 402.9878845214844 468.6420593261719 388.111328125 472.39520263671875 381.59918212890625 471.3140869140625 C 375.1539611816406 471.2500915527344 369.4681091308594 468.6751403808594 367.4422912597656 465.7527160644531 C 365.3172912597656 461.0144348144531 367.10516357421875 459.0177307128906 367.9693908691406 455.1285400390625 C 371.1890869140625 452.1757507324219 372.11175537109375 449.4114074707031 373.5625305175781 446.57635498046875 C 375.5553894042969 444.8531494140625 376.1364440917969 436.6051940917969 376.8067932128906 434.3852233886719 C 377.2606506347656 424.1649169921875 374.59979248046875 422.268798828125 373.2544250488281 419.53704833984375 C 369.66070556640625 415.84423828125 362.50714111328125 414.2435607910156 358.43133544921875 412.9874267578125 C 350.10479736328125 410.7742004394531 348.3480224609375 411.09893798828125 344.2821044921875 409.72216796875 C 339.6241455078125 408.97930908203125 328.1121826171875 407.4215087890625 325.02166748046875 397.5231628417969 C 317.3217468261719 385.04449462890625 323.5730285644531 362.1427001953125 332.86474609375 364.3865661621094" stroke-width="0.0" fill="url(#shape_3_fill)"/>
    <path d="M 387.04656982421875 211.3061981201172 C 392.176025390625 212.1192169189453 393.7013854980469 224.39479064941406 392.0259704589844 230.09327697753906 C 391.6607971191406 263.50091552734375 402.1639709472656 275.5831604003906 413.4871826171875 276.8281555175781 C 425.3563232421875 277.5481262207031 427.679443359375 274.1874694824219 433.5935363769531 270.4607238769531 C 438.7726135253906 268.8855895996094 437.9276123046875 261.84637451171875 442.5412902832031 260.8527526855469 C 438.7303161621094 282.5511474609375 442.24871826171875 283.2695617675781 452.5257568359375 297.9471130371094 C 461.71728515625 317.4148254394531 454.6591491699219 328.60980224609375 442.9885559082031 339.4731140136719 C 441.5223693847656 338.1015625 438.7010498046875 329.90240478515625 439.02435302734375 327.54229736328125 C 432.29388427734375 329.2450866699219 431.24029541015625 337.7000732421875 437.2070007324219 341.8626708984375 C 435.87109375 346.7546691894531 426.4290771484375 348.3106384277344 423.9451599121094 347.363525390625 C 422.9343566894531 342.39996337890625 421.13946533203125 335.6251220703125 423.0487365722656 331.2367248535156 C 416.15093994140625 333.884765625 415.8857116699219 345.75091552734375 414.9403991699219 346.5517883300781 C 409.93853759765625 344.390380859375 409.51434326171875 339.37493896484375 408.7467956542969 337.3225402832031 C 409.38458251953125 334.066650390625 407.867431640625 327.019287109375 408.17620849609375 325.6489562988281 C 406.8954772949219 324.7808532714844 407.5713806152344 316.03985595703125 406.3102722167969 315.128662109375 C 408.8955993652344 308.5830078125 405.4287109375 296.814697265625 397.1486511230469 296.44329833984375 C 392.22235107421875 312.84271240234375 388.71331787109375 322.627685546875 382.6981506347656 336.3916320800781 C 382.5187072753906 342.8692321777344 380.95745849609375 351.5540466308594 371.56488037109375 351.2693786621094 C 370.92138671875 349.83599853515625 377.3863220214844 334.3290710449219 379.164794921875 327.17279052734375 C 388.1328125 302.3475036621094 389.71197509765625 282.8112487792969 383.6980895996094 256.3089599609375 C 383.01470947265625 247.42283630371094 380.9591064453125 240.62857055664062 381.80401611328125 231.9413604736328 C 381.9874267578125 227.43898010253906 382.01092529296875 214.30580139160156 387.04656982421875 211.3061981201172" stroke-width="0.0" fill="url(#shape_4_fill)"/>
    <path d="M 407.13629150390625 177.0045166015625 C 411.8132629394531 179.45230102539062 416.5875244140625 179.77784729003906 420.6230773925781 186.13693237304688 C 425.0470886230469 188.33660888671875 430.67486572265625 195.49264526367188 431.3229675292969 200.9347686767578 C 447.23248291015625 226.17877197265625 440.6416931152344 273.9180908203125 430.190673828125 273.6517028808594 C 421.94415283203125 279.57275390625 410.4418029785156 277.59356689453125 407.4725341796875 275.4712829589844 C 398.2497253417969 269.4989318847656 394.8710021972656 259.10498046875 392.8348388671875 249.1345672607422 C 391.3778991699219 240.6230926513672 391.3251953125 234.11024475097656 391.39312744140625 223.236083984375 C 392.21160888671875 220.28256225585938 389.74639892578125 214.27857971191406 389.9314880371094 208.7311248779297 C 392.6175231933594 201.7540283203125 391.5343017578125 199.68527221679688 396.0888977050781 195.53042602539062 C 400.1136474609375 182.75491333007812 401.8275451660156 178.59803771972656 407.13629150390625 177.0045166015625" stroke-width="0.0" fill="url(#shape_5_fill)"/>
    <path d="M 410.6917419433594 356.6926574707031 C 416.63232421875 359.8956298828125 421.8943176269531 361.7021789550781 422.8553466796875 368.3671875 C 422.1521301269531 372.25225830078125 419.95635986328125 380.52423095703125 410.2821960449219 390.5254821777344 C 398.3664855957031 404.1494140625 377.37567138671875 411.67572021484375 339.49737548828125 392.3797912597656 C 331.1617736816406 385.8746643066406 335.4410095214844 373.0347595214844 335.4516906738281 370.60784912109375 C 334.87213134765625 365.582275390625 335.08428955078125 362.8973388671875 338.3214416503906 359.9207763671875 C 341.29058837890625 356.9021301269531 343.75323486328125 355.423583984375 351.01312255859375 355.200439453125 C 356.5940246582031 353.23980712890625 361.7919616699219 353.0523986816406 364.8997802734375 351.480712890625 C 374.80780029296875 347.0632629394531 400.7611389160156 353.52496337890625 410.6917419433594 356.6926574707031" stroke-width="0.0" fill="url(#shape_6_fill)"/>
    <path d="M 269.01934814453125 82.03046417236328 C 282.52142333984375 94.42853546142578 286.1471862792969 118.5008316040039 275.3658447265625 130.34214782714844 C 275.92999267578125 115.62954711914062 272.8077087402344 107.0242919921875 268.46270751953125 101.30167388916016 C 252.2811737060547 79.65695190429688 214.6929931640625 83.08038330078125 194.2467803955078 104.57498168945312 C 189.1361846923828 107.32221221923828 185.48997497558594 111.69972229003906 181.18862915039062 115.2048110961914 C 156.37904357910156 138.85101318359375 137.3026123046875 155.58895874023438 98.02137756347656 154.9668731689453 C 84.53650665283203 153.07196044921875 81.79652404785156 150.92282104492188 81.03433227539062 147.927001953125 C 114.5815658569336 153.23373413085938 132.53062438964844 140.18954467773438 153.4999237060547 121.46212005615234 C 159.63722229003906 116.69306945800781 166.91619873046875 107.89459991455078 170.44691467285156 106.57437896728516 C 171.52932739257812 103.14453887939453 175.1085662841797 100.1113510131836 177.2595977783203 99.88774108886719 C 191.8374481201172 85.99483489990234 204.99798583984375 74.45683288574219 227.29052734375 70.9113998413086 C 243.33779907226562 69.01760864257812 260.953369140625 71.55711364746094 269.01934814453125 82.03046417236328" stroke-width="0.0" fill="url(#shape_7_fill)"/>
    <path d="M 203.09475708007812 419.6213684082031 C 202.5508575439453 423.4095458984375 201.2748565673828 438.66229248046875 197.42112731933594 439.1901550292969 C 185.7190704345703 442.9585876464844 177.30613708496094 449.010986328125 165.91668701171875 453.9816589355469 C 157.07119750976562 458.0892333984375 156.9328155517578 459.9493408203125 152.20347595214844 460.67486572265625 C 140.5930633544922 466.83868408203125 139.43878173828125 468.63629150390625 134.7218780517578 467.2450256347656 C 133.53048706054688 464.0104064941406 131.1892852783203 454.86187744140625 124.50971221923828 455.6000061035156 C 119.47412872314453 457.46661376953125 117.05501556396484 469.45635986328125 115.71202850341797 474.833740234375 C 110.3585433959961 475.2239074707031 101.7970962524414 475.1986389160156 94.43148040771484 474.0771484375 C 92.43514251708984 469.212158203125 90.28280639648438 455.52410888671875 84.91645050048828 455.6104431152344 C 80.71703338623047 456.164794921875 79.34935760498047 465.16265869140625 78.38035583496094 467.422119140625 C 73.91627502441406 463.5752868652344 73.37757110595703 453.6615295410156 72.69442749023438 452.6524658203125 C 92.5060806274414 455.7737731933594 110.52702331542969 451.66546630859375 127.9259033203125 444.714111328125 C 128.53794860839844 443.3847351074219 133.92063903808594 442.5302429199219 137.65773010253906 440.2669677734375 C 144.20628356933594 437.64208984375 152.3348846435547 434.90936279296875 160.09939575195312 431.67413330078125 C 166.43777465820312 436.5806579589844 167.4542694091797 441.12274169921875 174.81394958496094 441.37884521484375 C 182.298828125 437.9862365722656 180.29640197753906 429.7937927246094 182.8817901611328 425.0564880371094 C 185.7408905029297 423.7351989746094 198.6061553955078 420.6298828125 203.09475708007812 419.6213684082031" stroke-width="0.0" fill="url(#shape_8_fill)"/>
    <path d="M 207.04273986816406 209.4613494873047 C 210.14833068847656 214.10830688476562 225.65965270996094 220.66969299316406 229.72415161132812 218.8426513671875 C 233.98680114746094 219.1927490234375 235.84686279296875 217.55499267578125 243.32298278808594 219.29856872558594 C 243.34771728515625 224.1258087158203 241.25465393066406 226.17132568359375 239.23643493652344 235.3967742919922 C 238.26478576660156 244.19297790527344 236.7475128173828 244.4136505126953 236.0081787109375 246.86329650878906 C 236.6537322998047 249.80165100097656 234.64231872558594 257.4237365722656 233.35194396972656 257.727294921875 C 229.57852172851562 256.3809814453125 223.07362365722656 257.6529541015625 219.1320037841797 256.76019287109375 C 217.4959716796875 264.189208984375 214.23275756835938 269.7584228515625 212.74435424804688 277.42584228515625 C 207.031982421875 275.00689697265625 207.6751251220703 267.728759765625 210.70994567871094 259.86676025390625 C 202.3037109375 260.91436767578125 199.48419189453125 269.8680725097656 197.61392211914062 270.2388610839844 C 193.43838500976562 262.1305236816406 202.16639709472656 257.311767578125 205.72035217285156 250.71707153320312 C 204.44708251953125 245.72157287597656 201.53062438964844 239.41217041015625 201.1240692138672 237.62843322753906 C 197.48587036132812 227.88491821289062 195.66229248046875 218.1405792236328 197.0135955810547 204.9591522216797 C 203.1944122314453 203.39263916015625 204.27291870117188 206.43539428710938 207.04273986816406 209.4613494873047" stroke-width="0.0" fill="url(#shape_9_fill)"/>
    <path d="M 398.70550537109375 295.3100891113281 C 409.7127380371094 301.41729736328125 407.03466796875 313.844970703125 407.9380798339844 319.3623046875 C 408.88177490234375 332.16253662109375 407.7335510253906 333.81610107421875 411.9130859375 345.8621520996094 C 413.7161865234375 354.17730712890625 416.6170959472656 355.39862060546875 417.0252990722656 356.6773986816406 C 411.2322692871094 356.9300231933594 399.6385498046875 353.696044921875 394.64892578125 352.84454345703125 C 387.2436218261719 351.1598205566406 384.2293395996094 351.2569580078125 377.20172119140625 350.48468017578125 C 380.82220458984375 340.3004150390625 382.6378479003906 337.7927551269531 384.0490417480469 334.0453796386719 C 387.51971435546875 330.3102111816406 392.27581787109375 307.4592590332031 398.70550537109375 295.3100891113281" stroke-width="0.0" fill="url(#shape_10_fill)"/>
    <path d="M 60.85554504394531 406.70074462890625 C 63.38801574707031 412.78759765625 63.56272506713867 415.6099853515625 65.53350830078125 422.74310302734375 C 73.54080963134766 420.1701354980469 73.58922576904297 415.6566162109375 77.18830108642578 419.69476318359375 C 81.09028625488281 420.1396179199219 83.24880981445312 416.3318786621094 85.94551849365234 414.4334716796875 C 94.10183715820312 419.45416259765625 95.06835174560547 422.17950439453125 104.12789154052734 424.28271484375 C 108.30828857421875 425.131103515625 109.0697021484375 433.86358642578125 105.08583068847656 434.48260498046875 C 98.95356750488281 437.7315368652344 97.31259155273438 435.8712463378906 93.04237365722656 434.3421325683594 C 88.46394348144531 435.79498291015625 85.707763671875 434.5109558105469 80.86888885498047 436.6904602050781 C 75.81681823730469 436.3894958496094 73.85855102539062 433.4180908203125 72.07008361816406 432.1734313964844 C 62.7431755065918 428.5566711425781 61.04892349243164 430.7337646484375 50.62052536010742 439.9375 C 43.449405670166016 424.00701904296875 50.63799285888672 408.3410949707031 60.85554504394531 406.70074462890625" stroke-width="0.0" fill="url(#shape_11_fill)"/>
    <path d="M 241.01324462890625 369.1392517089844 C 245.0263214111328 371.46533203125 246.90560913085938 374.8317565917969 247.66139221191406 380.73822021484375 C 247.21278381347656 385.0016784667969 247.4368133544922 387.7522277832031 244.04090881347656 392.7076721191406 C 236.8441619873047 400.32525634765625 221.7579345703125 397.9663391113281 219.1583709716797 389.53759765625 C 216.77886962890625 385.523193359375 217.348876953125 380.59674072265625 218.90554809570312 376.3282165527344 C 219.9152374267578 375.0950012207031 220.45126342773438 372.1308288574219 226.3117218017578 368.5400085449219 C 230.7895050048828 366.87786865234375 236.45115661621094 366.30023193359375 241.01324462890625 369.1392517089844" stroke-width="0.0" fill="url(#shape_12_fill)"/>
    <path d="M 257.97314453125 294.7136535644531 C 263.6839599609375 301.03179931640625 259.86492919921875 305.1481628417969 253.7042694091797 309.2956237792969 C 248.23330688476562 313.4771728515625 250.45065307617188 316.732177734375 250.08958435058594 319.38409423828125 C 251.27969360351562 320.8462219238281 252.8102264404297 329.97760009765625 247.71974182128906 331.3196105957031 C 241.6736297607422 333.1925354003906 239.57643127441406 327.72637939453125 237.2258758544922 319.7508239746094 C 234.86354064941406 310.7201843261719 243.1544647216797 292.0425720214844 257.97314453125 294.7136535644531" stroke-width="0.0" fill="url(#shape_13_fill)"/>
    <path d="M 278.0751953125 241.6400604248047 C 282.0649108886719 247.39605712890625 278.602783203125 251.7811737060547 273.9405822753906 252.37908935546875 C 269.89227294921875 253.8671112060547 270.5742492675781 255.906982421875 267.5654296875 257.1215515136719 C 265.7177734375 263.8549499511719 267.0091247558594 264.3113098144531 267.3720397949219 271.7696228027344 C 265.3735046386719 279.2398376464844 260.1664733886719 278.1181335449219 256.80450439453125 275.7080078125 C 250.11474609375 263.8426513671875 255.76499938964844 247.95819091796875 265.1827392578125 242.12335205078125 C 271.5212707519531 239.72027587890625 273.4017028808594 240.0178680419922 278.0751953125 241.6400604248047" stroke-width="0.0" fill="url(#shape_14_fill)"/>
    <path d="M 292.8454895019531 179.07029724121094 C 298.8844299316406 183.4493865966797 295.7489318847656 189.19967651367188 291.275634765625 190.80535888671875 C 284.43609619140625 193.4253692626953 284.7187194824219 198.56239318847656 282.69976806640625 199.08851623535156 C 282.78271484375 200.06497192382812 283.94256591796875 211.56158447265625 282.1785583496094 214.0878448486328 C 275.0058288574219 219.50387573242188 268.68048095703125 211.82447814941406 271.29571533203125 199.48236083984375 C 270.77410888671875 189.83741760253906 281.5000305175781 176.87425231933594 292.8454895019531 179.07029724121094" stroke-width="0.0" fill="url(#shape_15_fill)"/>
    <path d="M 323.4140930175781 319.1598205566406 C 326.2140197753906 325.7047424316406 319.6529846191406 329.1021728515625 313.1732177734375 330.8133239746094 C 308.0028076171875 335.1366882324219 310.6964111328125 346.649658203125 309.2641906738281 348.6933898925781 C 308.0570983886719 353.29400634765625 304.53924560546875 353.45745849609375 301.03082275390625 351.155517578125 C 296.60546875 347.474853515625 297.7389221191406 339.08294677734375 298.5516357421875 332.1129150390625 C 300.40240478515625 326.63623046875 304.0181579589844 321.5583190917969 309.56329345703125 318.7609558105469 C 314.71722412109375 316.64678955078125 319.35791015625 314.61566162109375 323.4140930175781 319.1598205566406" stroke-width="0.0" fill="url(#shape_16_fill)"/>
    <path d="M 111.9183349609375 377.9234313964844 C 116.6666030883789 381.1367492675781 121.05128479003906 386.7105712890625 132.38323974609375 379.8277587890625 C 131.60389709472656 380.96923828125 123.37644958496094 387.6343078613281 119.14384460449219 389.5558776855469 C 116.07953643798828 392.63690185546875 113.177734375 393.8701477050781 111.27059173583984 391.9779968261719 C 102.71859741210938 387.33221435546875 100.66389465332031 385.19415283203125 99.25605010986328 384.0102844238281 C 102.98898315429688 375.4516906738281 111.2813949584961 375.8834533691406 111.9183349609375 377.9234313964844" stroke-width="0.0" fill="url(#shape_17_fill)"/>
    <path d="M 342.7727966308594 259.34033203125 C 347.6988220214844 262.1943664550781 347.09625244140625 266.7370910644531 342.38934326171875 270.8240661621094 C 337.8851623535156 274.6965637207031 338.9211730957031 277.51910400390625 337.58447265625 283.4653015136719 C 340.6224060058594 291.7305908203125 335.8056945800781 297.819580078125 328.2961730957031 293.8948669433594 C 320.3135070800781 280.5857238769531 328.6629638671875 255.21229553222656 342.7727966308594 259.34033203125" stroke-width="0.0" fill="url(#shape_18_fill)"/>
    <path d="M 359.3839416503906 134.64463806152344 C 364.648193359375 134.55148315429688 367.2763366699219 137.85508728027344 364.88958740234375 143.9385528564453 C 362.9869384765625 154.7590789794922 365.12652587890625 155.9200897216797 365.5885009765625 161.5657196044922 C 365.4927062988281 167.6530303955078 360.29803466796875 169.33120727539062 356.0854187011719 167.09031677246094 C 351.14349365234375 162.8833770751953 350.7314147949219 151.95773315429688 350.82659912109375 149.98355102539062 C 351.3227233886719 142.4875030517578 353.0032958984375 135.89312744140625 359.3839416503906 134.64463806152344" stroke-width="0.0" fill="url(#shape_19_fill)"/>
    <path d="M 357.5891418457031 196.95216369628906 C 362.7475280761719 200.67901611328125 359.2388916015625 206.7006378173828 356.9674987792969 207.45115661621094 C 352.1949462890625 213.94161987304688 353.0008239746094 217.01632690429688 351.68829345703125 226.385009765625 C 350.41021728515625 231.84690856933594 344.4827880859375 231.67799377441406 341.3569641113281 227.14007568359375 C 336.96685791015625 215.62120056152344 346.3964538574219 192.74249267578125 357.5891418457031 196.95216369628906" stroke-width="0.0" fill="url(#shape_20_fill)"/>
    <path d="M 194.4840850830078 180.03591918945312 C 203.39617919921875 180.49072265625 205.2695770263672 182.02162170410156 203.86807250976562 187.9419403076172 C 199.54660034179688 192.46514892578125 200.7441864013672 204.41070556640625 203.4340057373047 204.7283935546875 C 196.3030548095703 206.16615295410156 192.39706420898438 203.544921875 196.70399475097656 196.59239196777344 C 192.98477172851562 193.9355926513672 188.36402893066406 194.24830627441406 184.78085327148438 191.42881774902344 C 184.1708526611328 189.9972686767578 186.16146850585938 183.09910583496094 185.78382873535156 180.16305541992188 C 190.51739501953125 175.29017639160156 192.33599853515625 174.60838317871094 194.4840850830078 180.03591918945312" stroke-width="0.0" fill="url(#shape_21_fill)"/>
    <path d="M 347.5271301269531 75.49312591552734 C 353.4488220214844 78.35499572753906 361.02984619140625 94.8403549194336 353.90386962890625 101.39810180664062 C 347.0032043457031 104.63150787353516 344.3607482910156 99.09394836425781 342.6080322265625 91.10427856445312 C 337.1739807128906 83.88139343261719 335.6129150390625 80.1436767578125 337.5359802246094 77.31588745117188 C 339.7015686035156 73.4684829711914 344.6150207519531 73.56120300292969 347.5271301269531 75.49312591552734" stroke-width="0.0" fill="url(#shape_22_fill)"/>
    <path d="M 223.5517120361328 418.504638671875 C 226.4442138671875 418.9300537109375 233.20602416992188 418.4894104003906 235.5018310546875 421.0299072265625 C 235.97244262695312 424.7207336425781 235.75637817382812 433.31451416015625 237.7280731201172 434.7047119140625 C 232.1702117919922 434.044677734375 230.3695068359375 435.6488952636719 226.8536834716797 434.9072570800781 C 218.92364501953125 434.5530700683594 214.96743774414062 424.11981201171875 214.20896911621094 417.0342712402344 C 215.70211791992188 416.2823791503906 222.57591247558594 417.1598815917969 223.5517120361328 418.504638671875" stroke-width="0.0" fill="url(#shape_23_fill)"/>
    <path d="M 304.0117492675781 86.22718048095703 C 313.4548645019531 88.5765380859375 317.6248779296875 104.12379455566406 314.6697692871094 109.07192993164062 C 311.6920166015625 116.55450439453125 304.82171630859375 114.74447631835938 303.8437805175781 111.41844940185547 C 302.6483154296875 106.78463745117188 304.34954833984375 104.311767578125 299.2395324707031 98.21142578125 C 294.132080078125 92.1160659790039 297.31365966796875 85.57907104492188 304.0117492675781 86.22718048095703" stroke-width="0.0" fill="url(#shape_24_fill)"/>
    <path d="M 274.5168151855469 53.350242614746094 C 278.0129699707031 53.18733215332031 287.4427490234375 59.403568267822266 287.9882507324219 65.96206665039062 C 288.28887939453125 71.01689910888672 286.5126953125 75.02548217773438 279.52410888671875 72.14913940429688 C 277.26806640625 66.34945678710938 269.0639953613281 63.912330627441406 263.76739501953125 64.64356994628906 C 258.935791015625 62.58072280883789 259.3914489746094 56.25103759765625 263.5530090332031 54.11492156982422 C 267.4624938964844 52.45584487915039 272.8981628417969 52.421112060546875 274.5168151855469 53.350242614746094" stroke-width="0.0" fill="url(#shape_25_fill)"/>
    <path d="M 312.7445373535156 133.3480987548828 C 315.0316162109375 136.24798583984375 310.6845703125 141.855712890625 308.628173828125 145.87911987304688 C 307.0435791015625 153.9908905029297 306.7856750488281 159.70680236816406 301.29833984375 160.57034301757812 C 292.1788635253906 159.21844482421875 293.78338623046875 142.00448608398438 301.3211364746094 135.0033416748047 C 305.00238037109375 131.58897399902344 308.6720275878906 130.21876525878906 312.7445373535156 133.3480987548828" stroke-width="0.0" fill="url(#shape_26_fill)"/>
    <path d="M 218.86781311035156 257.5169982910156 C 224.34605407714844 256.3155517578125 229.49755859375 257.7995300292969 233.8931884765625 257.5969543457031 C 231.4433135986328 264.8103332519531 231.9627685546875 266.5340270996094 231.46922302246094 272.3621826171875 C 228.58680725097656 280.0089416503906 216.100341796875 276.4990539550781 213.4772186279297 277.34454345703125 C 211.66748046875 275.5562744140625 218.01754760742188 263.2740478515625 218.86781311035156 257.5169982910156" stroke-width="0.0" fill="url(#shape_27_fill)"/>
    <path d="M 297.8035583496094 33.95197296142578 C 301.8492736816406 34.375892639160156 308.088623046875 38.017581939697266 312.8624267578125 43.21331024169922 C 319.352294921875 52.39617919921875 312.9898681640625 57.968467712402344 306.86236572265625 53.67649841308594 C 305.7911071777344 48.658260345458984 299.6019287109375 44.48780822753906 290.21978759765625 43.02847671508789 C 285.2008361816406 38.73569107055664 289.2953796386719 32.432464599609375 297.8035583496094 33.95197296142578" stroke-width="0.0" fill="url(#shape_28_fill)"/>
    <path d="M 416.93072509765625 331.60565185546875 C 420.7872314453125 330.3337707519531 428.1322021484375 337.18792724609375 433.93817138671875 335.6571350097656 C 434.57440185546875 336.6962585449219 432.1779479980469 342.5507507324219 433.0355529785156 344.9463806152344 C 426.668701171875 350.063232421875 412.36077880859375 348.3009338378906 409.9684753417969 340.0011901855469 C 410.546875 336.52569580078125 414.6401062011719 334.16619873046875 416.93072509765625 331.60565185546875" stroke-width="0.0" fill="url(#shape_29_fill)"/>
    <path d="M 51.04407501220703 442.4627990722656 C 53.266849517822266 442.6514587402344 56.156436920166016 446.1954345703125 62.33140182495117 448.9466857910156 C 68.10562133789062 451.5042419433594 71.24980163574219 452.018798828125 72.9976806640625 453.997314453125 C 64.66431427001953 457.5195617675781 62.65540313720703 455.5580139160156 61.990631103515625 463.2112121582031 C 60.12766647338867 465.0216064453125 53.68544387817383 465.4751281738281 52.17757034301758 464.9265441894531 C 49.30994415283203 463.80596923828125 47.006004333496094 455.8462219238281 50.37482833862305 454.2275390625 C 50.1861457824707 449.55218505859375 48.53334426879883 447.3701477050781 51.04407501220703 442.4627990722656" stroke-width="0.0" fill="url(#shape_30_fill)"/>
    <path d="M 200.5283966064453 57.65459060668945 C 205.6412811279297 62.379215240478516 202.2149200439453 67.49706268310547 190.755859375 67.55049133300781 C 186.25750732421875 71.6893081665039 185.29360961914062 76.87225341796875 180.87356567382812 78.57084655761719 C 174.7581787109375 75.50118255615234 176.81752014160156 69.40857696533203 179.38375854492188 65.87215423583984 C 184.42373657226562 58.683372497558594 190.64305114746094 56.46186828613281 200.5283966064453 57.65459060668945" stroke-width="0.0" fill="url(#shape_31_fill)"/>
    <path d="M 207.2301483154297 415.0186767578125 C 211.28994750976562 412.4676818847656 215.73748779296875 419.29473876953125 218.24163818359375 426.466796875 C 219.17845153808594 428.90435791015625 207.15432739257812 435.2255859375 199.02928161621094 438.7216796875 C 200.9414825439453 424.3046875 201.4591827392578 419.3670349121094 207.2301483154297 415.0186767578125" stroke-width="0.0" fill="url(#shape_32_fill)"/>
    <path d="M 129.71058654785156 455.53472900390625 C 130.6253662109375 455.2021789550781 135.72164916992188 462.9634704589844 136.5030059814453 468.3216247558594 C 127.3719482421875 472.7309875488281 121.22521209716797 474.2074279785156 115.81224822998047 475.00494384765625 C 120.1308364868164 455.9075012207031 120.87138366699219 454.7178955078125 129.71058654785156 455.53472900390625" stroke-width="0.0" fill="url(#shape_33_fill)"/>
    <path d="M 184.2298583984375 424.3357238769531 C 181.83984375 429.85223388671875 182.8431396484375 435.0177001953125 176.1493377685547 440.897216796875 C 167.97216796875 444.6155700683594 162.16925048828125 434.9001770019531 159.87696838378906 432.0274658203125 C 161.02853393554688 430.92791748046875 170.16229248046875 428.55682373046875 171.89132690429688 427.7997131347656 C 176.12799072265625 426.82379150390625 178.9171142578125 425.565673828125 184.2298583984375 424.3357238769531" stroke-width="0.0" fill="url(#shape_34_fill)"/>
    <path d="M 390.7935791015625 453.73309326171875 C 394.72479248046875 454.0389709472656 394.1230163574219 465.8663330078125 394.4017028808594 467.2491149902344 C 393.9049377441406 472.29913330078125 381.9728698730469 471.408203125 378.48577880859375 471.1903381347656 C 377.46990966796875 469.96319580078125 379.34686279296875 463.322509765625 380.7662658691406 459.5225524902344 C 383.37548828125 453.56927490234375 386.9883728027344 453.27935791015625 390.7935791015625 453.73309326171875" stroke-width="0.0" fill="url(#shape_35_fill)"/>
    <path d="M 240.77308654785156 49.02268981933594 C 243.9397430419922 51.87397384643555 243.9313507080078 57.62815475463867 238.898681640625 58.304080963134766 C 229.15525817871094 53.264530181884766 222.0929412841797 59.66963195800781 218.06246948242188 58.35916519165039 C 215.1372833251953 47.15492248535156 228.8814239501953 43.47956466674805 240.77308654785156 49.02268981933594" stroke-width="0.0" fill="url(#shape_36_fill)"/>
    <path d="M 165.37020874023438 85.41454315185547 C 171.82504272460938 88.01576232910156 170.70840454101562 94.21855926513672 162.03720092773438 93.8029556274414 C 156.01173400878906 95.3276596069336 156.17796325683594 101.1368179321289 151.9036407470703 103.58757781982422 C 146.40660095214844 102.65940856933594 145.5277862548828 98.8663558959961 149.09219360351562 91.84669494628906 C 154.37112426757812 86.7048110961914 159.9974822998047 83.11238861083984 165.37020874023438 85.41454315185547" stroke-width="0.0" fill="url(#shape_37_fill)"/>
    <path d="M 258.5989685058594 29.624610900878906 C 260.6527099609375 34.90794372558594 252.3649444580078 38.281166076660156 248.406494140625 33.54201126098633 C 235.2672576904297 36.21812057495117 233.78018188476562 33.569305419921875 234.6247100830078 28.364351272583008 C 239.4966278076172 23.420312881469727 249.79107666015625 21.903886795043945 258.5989685058594 29.624610900878906" stroke-width="0.0" fill="url(#shape_38_fill)"/>
    <path d="M 104.33709716796875 365.3310852050781 C 108.95698547363281 368.6692810058594 106.68085479736328 372.9722900390625 104.01947021484375 374.41632080078125 C 100.3711929321289 377.31103515625 95.48307800292969 379.0437316894531 93.8187484741211 378.4473571777344 C 90.77001953125 373.9560241699219 89.04005432128906 370.3038330078125 88.6611557006836 365.07586669921875 C 93.33262634277344 364.2940673828125 100.3266830444336 363.3301696777344 104.33709716796875 365.3310852050781" stroke-width="0.0" fill="url(#shape_39_fill)"/>
    <path d="M 422.157958984375 331.3506164550781 C 428.69512939453125 332.2440490722656 428.82745361328125 343.2403259277344 428.4825744628906 347.55035400390625 C 423.5287170410156 347.9403381347656 418.4069519042969 349.3003234863281 414.65435791015625 345.97552490234375 C 414.296142578125 339.81488037109375 416.8470153808594 331.3355712890625 422.157958984375 331.3506164550781" stroke-width="0.0" fill="url(#shape_40_fill)"/>
    <path d="M 85.42317962646484 454.9095153808594 C 90.21199035644531 455.2467346191406 92.94064331054688 462.7393493652344 94.94429016113281 473.7950439453125 C 92.4512710571289 474.4858093261719 81.92057037353516 471.7825927734375 79.19534301757812 468.1996765136719 C 77.31805419921875 467.7208251953125 79.60506439208984 455.8956298828125 85.42317962646484 454.9095153808594" stroke-width="0.0" fill="url(#shape_41_fill)"/>
    <path d="M 207.03018188476562 36.15031433105469 C 207.69288635253906 41.6451416015625 194.20175170898438 43.74137878417969 190.48365783691406 48.10695266723633 C 186.3671417236328 50.5030403137207 184.0023651123047 48.122833251953125 184.4178466796875 42.50910568237305 C 190.9880828857422 34.92040252685547 197.16720581054688 31.389108657836914 207.03018188476562 36.15031433105469" stroke-width="0.0" fill="url(#shape_42_fill)"/>
    <path d="M 407.6893310546875 452.70123291015625 C 412.8544616699219 453.77020263671875 412.5478210449219 461.6158752441406 412.3771667480469 462.43927001953125 C 412.57452392578125 467.2019348144531 401.6100769042969 469.3091735839844 398.31915283203125 468.9220886230469 C 397.6414794921875 463.2935485839844 399.0191345214844 452.476318359375 407.6893310546875 452.70123291015625" stroke-width="0.0" fill="url(#shape_43_fill)"/>
    <path d="M 439.6387023925781 327.87322998046875 C 443.72796630859375 331.5589599609375 443.83209228515625 337.0200500488281 444.19384765625 337.7076721191406 C 443.1630554199219 340.2623596191406 438.1407775878906 343.8882751464844 434.1947326660156 345.5496826171875 C 433.5316162109375 344.66168212890625 430.5489501953125 334.7925720214844 432.48773193359375 330.5332946777344 C 432.6150817871094 329.2435607910156 435.28521728515625 325.46075439453125 439.6387023925781 327.87322998046875" stroke-width="0.0" fill="url(#shape_44_fill)"/>
    <path d="M 209.2820587158203 259.832275390625 C 213.93533325195312 261.93524169921875 210.99839782714844 270.234375 209.1735382080078 276.268310546875 C 203.8688507080078 274.95404052734375 199.8367462158203 272.6319580078125 198.31118774414062 270.0419006347656 C 200.5123748779297 267.0636291503906 203.51878356933594 259.3775939941406 209.2820587158203 259.832275390625" stroke-width="0.0" fill="url(#shape_45_fill)"/>
    <path d="M 72.25763702392578 417.675048828125 C 77.37276458740234 420.8509521484375 76.71589660644531 425.5899353027344 73.6790542602539 428.2340393066406 C 71.52808380126953 432.2398681640625 62.78066635131836 430.4088439941406 62.72934341430664 425.4318542480469 C 61.255741119384766 418.3937683105469 67.6710205078125 416.41278076171875 72.25763702392578 417.675048828125" stroke-width="0.0" fill="url(#shape_46_fill)"/>
    <path d="M 100.48419189453125 422.8641052246094 C 105.57120513916016 422.6007385253906 109.31117248535156 426.7305908203125 107.80329132080078 431.5843505859375 C 107.49961853027344 436.3318786621094 101.01947021484375 437.512939453125 97.7767333984375 435.1972961425781 C 92.01681518554688 431.6082763671875 94.32868194580078 423.722900390625 100.48419189453125 422.8641052246094" stroke-width="0.0" fill="url(#shape_47_fill)"/>
  </g>
</svg>
