<?xml version="1.0" encoding="UTF-8"?>
<!-- Generator: visioncortex VTracer 0.6.4 -->
<svg version="1.1" xmlns="http://www.w3.org/2000/svg" width="512" height="512">
<path d="M0 0 C168.96 0 337.92 0 512 0 C512 168.96 512 337.92 512 512 C343.04 512 174.08 512 0 512 C0 343.04 0 174.08 0 0 Z " fill="#000000" transform="translate(0,0)"/>
<path d="M0 0 C2 2 2 2 2.5 4.625 C1.959 8.274 1.464 8.819 -0.875 11.438 C-4.938 16.316 -4.98 21.624 -5.383 27.707 C-6 31 -6 31 -7.855 32.996 C-10 34 -10 34 -13.188 33.25 C-16 32 -16 32 -17 31 C-18.536 21.315 -18.093 15.188 -13.062 6.75 C-8.946 1.261 -7.23 -0.803 0 0 Z " fill="#FFFFFF" transform="translate(358,197)"/>
</svg>
