<?xml version="1.0" encoding="UTF-8"?>
<!-- Generator: visioncortex VTracer 0.6.4 -->
<svg version="1.1" xmlns="http://www.w3.org/2000/svg" width="512" height="512">
<path d="M0 0 C168.96 0 337.92 0 512 0 C512 168.96 512 337.92 512 512 C343.04 512 174.08 512 0 512 C0 343.04 0 174.08 0 0 Z " fill="#000000" transform="translate(0,0)"/>
<path d="M0 0 C8.436 9.839 11.687 19.631 11.332 32.523 C10.829 37.786 9.845 42.155 6 46 C4.145 44.145 4.473 40.999 4.188 38.5 C3.344 32.352 2.011 27.407 -1 22 C-1.557 20.948 -2.114 19.896 -2.688 18.812 C-9.091 11.025 -18.296 7.636 -28 6 C-46.227 4.596 -61.743 11.28 -75.605 22.902 C-79.778 26.558 -83.908 30.254 -88 34 C-113.176 56.991 -136.799 73.94 -172 73 C-173.924 72.79 -175.844 72.526 -177.75 72.188 C-179.104 71.961 -179.104 71.961 -180.484 71.73 C-183.21 70.939 -184.855 69.829 -187 68 C-185.935 67.963 -184.87 67.925 -183.773 67.887 C-156.478 66.741 -136.828 57.554 -117 39 C-115.734 37.89 -114.464 36.786 -113.188 35.688 C-109.626 32.586 -106.153 29.395 -102.688 26.188 C-102.127 25.67 -101.566 25.152 -100.989 24.618 C-98.378 22.205 -95.772 19.786 -93.176 17.355 C-78.782 4.012 -63.884 -7.909 -44 -11 C-43.197 -11.152 -42.394 -11.304 -41.566 -11.461 C-26.518 -13.745 -11.494 -10.031 0 0 Z " fill="#FFFFFF" transform="translate(270,82)"/>
</svg>
