<?xml version="1.0" encoding="UTF-8"?>
<!-- Generator: visioncortex VTracer 0.6.4 -->
<svg version="1.1" xmlns="http://www.w3.org/2000/svg" width="512" height="512">
<path d="M0 0 C168.96 0 337.92 0 512 0 C512 168.96 512 337.92 512 512 C343.04 512 174.08 512 0 512 C0 343.04 0 174.08 0 0 Z " fill="#000000" transform="translate(0,0)"/>
<path d="M0 0 C1.938 0.812 1.938 0.812 4 2 C4.33 2.99 4.66 3.98 5 5 C9.455 4.505 9.455 4.505 14 4 C14.99 6.64 15.98 9.28 17 12 C9.57 19.126 9.57 19.126 3 19 C1.312 18 1.312 18 0 16 C-0.374 15.488 -0.748 14.976 -1.133 14.449 C-3.341 11.151 -4.149 9.773 -3.375 5.75 C-2 3 -2 3 0 0 Z " fill="#FFFFFF" transform="translate(316,444)"/>
</svg>
