<?xml version="1.0" encoding="UTF-8"?>
<!-- Generator: visioncortex VTracer 0.6.4 -->
<svg version="1.1" xmlns="http://www.w3.org/2000/svg" width="512" height="512">
<path d="M0 0 C168.96 0 337.92 0 512 0 C512 168.96 512 337.92 512 512 C343.04 512 174.08 512 0 512 C0 343.04 0 174.08 0 0 Z " fill="#000000" transform="translate(0,0)"/>
<path d="M0 0 C1.762 1.402 1.762 1.402 3 3 C3.188 5.375 3.188 5.375 2 8 C-0.514 9.954 -3.22 11.459 -6 13 C-6.99 13.66 -7.98 14.32 -9 15 C-13.075 15.34 -14.53 15.313 -18 13 C-19 10.25 -19 10.25 -19 7 C-16.898 3.785 -14.989 1.632 -11.75 -0.438 C-7.777 -1.25 -3.916 -1.093 0 0 Z " fill="#FFFFFF" transform="translate(182,397)"/>
</svg>
