<?xml version="1.0" encoding="UTF-8"?>
<!-- Generator: visioncortex VTracer 0.6.4 -->
<svg version="1.1" xmlns="http://www.w3.org/2000/svg" width="512" height="512">
<path d="M0 0 C168.96 0 337.92 0 512 0 C512 168.96 512 337.92 512 512 C343.04 512 174.08 512 0 512 C0 343.04 0 174.08 0 0 Z " fill="#000000" transform="translate(0,0)"/>
<path d="M0 0 C3.837 2.043 6.283 4.877 9.148 8.102 C9.727 8.739 10.306 9.376 10.902 10.033 C14.287 13.772 17.617 17.558 20.922 21.367 C35.015 37.423 50.455 50.739 67.461 63.664 C68.359 64.349 69.257 65.034 70.182 65.74 C74.991 69.401 79.832 72.995 84.773 76.477 C84.443 77.137 84.113 77.797 83.773 78.477 C63.643 78.477 43.513 78.477 22.773 78.477 C22.773 78.147 22.773 77.817 22.773 77.477 C29.703 77.477 36.633 77.477 43.773 77.477 C44.103 74.837 44.433 72.197 44.773 69.477 C45.087 67.806 45.41 66.137 45.773 64.477 C45.246 64.257 44.719 64.038 44.176 63.812 C40.882 61.981 38.164 59.566 35.336 57.102 C34.421 56.314 34.421 56.314 33.489 55.51 C30.316 52.76 27.199 49.963 24.141 47.086 C23.564 46.544 22.987 46.002 22.392 45.443 C21.297 44.406 20.207 43.362 19.125 42.311 C16.219 39.551 13.721 37.422 9.773 36.477 C7.766 37.799 5.768 39.134 3.773 40.477 C-0.198 41.746 -3.625 42.27 -7.441 40.379 C-9.539 38.977 -9.539 38.977 -11.402 37.508 C-13.155 36.279 -13.155 36.279 -15.106 36.707 C-17.674 37.639 -19.024 38.859 -20.984 40.758 C-21.687 41.43 -22.39 42.103 -23.114 42.796 C-23.852 43.515 -24.591 44.235 -25.352 44.977 C-26.894 46.452 -28.437 47.928 -29.98 49.402 C-30.719 50.112 -31.458 50.822 -32.219 51.553 C-36.132 55.302 -40.125 58.936 -44.227 62.477 C-44.834 63.004 -45.441 63.532 -46.067 64.076 C-48.148 65.873 -50.247 67.645 -52.352 69.414 C-53.009 69.983 -53.667 70.551 -54.344 71.137 C-61.17 76.788 -67.176 77.762 -75.977 77.727 C-77.25 77.732 -78.524 77.737 -79.836 77.742 C-83.037 77.491 -84.499 76.976 -87.227 75.477 C-86.162 74.738 -85.097 73.999 -84 73.238 C-74.493 66.609 -65.212 59.798 -56.227 52.477 C-55.696 52.05 -55.165 51.624 -54.619 51.185 C-46.181 44.376 -38.451 36.884 -30.789 29.227 C-30.08 28.519 -30.08 28.519 -29.356 27.797 C-23.759 22.199 -18.365 16.498 -13.227 10.477 C-11.627 8.66 -10.024 6.846 -8.414 5.039 C-7.665 4.195 -6.916 3.35 -6.145 2.48 C-3.078 -0.724 -3.078 -0.724 0 0 Z " fill="#FFFFFF" transform="translate(256.2265625,188.5234375)"/>
</svg>
