<?xml version="1.0" encoding="UTF-8"?>
<!-- Generator: visioncortex VTracer 0.6.4 -->
<svg version="1.1" xmlns="http://www.w3.org/2000/svg" width="512" height="512">
<path d="M0 0 C168.96 0 337.92 0 512 0 C512 168.96 512 337.92 512 512 C343.04 512 174.08 512 0 512 C0 343.04 0 174.08 0 0 Z " fill="#000000" transform="translate(0,0)"/>
<path d="M0 0 C2.062 1.938 2.062 1.938 2.625 5.438 C2.062 8.938 2.062 8.938 0.375 10.812 C-3.717 12.803 -6.09 13.096 -10.625 12.25 C-13.938 10.938 -13.938 10.938 -15.438 9.125 C-16.091 6.266 -15.995 4.687 -14.938 1.938 C-10.333 -1.99 -5.549 -2.007 0 0 Z " fill="#FFFFFF" transform="translate(294.9375,446.0625)"/>
</svg>
