<?xml version="1.0" encoding="UTF-8"?>
<!-- Generator: visioncortex VTracer 0.6.4 -->
<svg version="1.1" xmlns="http://www.w3.org/2000/svg" width="512" height="512">
<path d="M0 0 C168.96 0 337.92 0 512 0 C512 168.96 512 337.92 512 512 C343.04 512 174.08 512 0 512 C0 343.04 0 174.08 0 0 Z " fill="#000000" transform="translate(0,0)"/>
<path d="M0 0 C3.768 1.256 4.212 2.51 6.188 5.875 C6.982 7.201 6.982 7.201 7.793 8.555 C9 11 9 11 9 14 C3.845 13.517 0.184 10.814 -4 8 C-3.688 5.125 -3.688 5.125 -3 2 C-2.01 1.34 -1.02 0.68 0 0 Z " fill="#FFFFFF" transform="translate(466,447)"/>
</svg>
