<?xml version="1.0" encoding="UTF-8"?>
<!-- Generator: visioncortex VTracer 0.6.4 -->
<svg version="1.1" xmlns="http://www.w3.org/2000/svg" width="512" height="512">
<path d="M0 0 C168.96 0 337.92 0 512 0 C512 168.96 512 337.92 512 512 C343.04 512 174.08 512 0 512 C0 343.04 0 174.08 0 0 Z " fill="#000000" transform="translate(0,0)"/>
<path d="M0 0 C5.016 2.608 9.774 5.205 13 10 C13.78 13.182 13.708 16.179 13.562 19.438 C13.561 20.258 13.559 21.078 13.557 21.924 C13.442 27.261 12.867 31.438 10 36 C5.188 38.135 0.333 38.356 -4.875 38.312 C-5.575 38.308 -6.274 38.303 -6.995 38.298 C-13.848 38.143 -19.329 37.404 -24.5 32.75 C-26.378 29.307 -26.75 26.934 -27 23 C-27.063 22.029 -27.126 21.059 -27.191 20.059 C-27.368 15.415 -27.435 11.96 -25.5 7.688 C-22.679 5.783 -22.001 5.819 -18.75 6.188 C-17.513 6.456 -16.275 6.724 -15 7 C-15.784 7.577 -16.568 8.155 -17.375 8.75 C-19.8 10.829 -20.857 12.09 -22 15 C-19.207 18.291 -15.546 20.154 -11.812 22.188 C-10.86 22.74 -10.86 22.74 -9.889 23.303 C-5.028 25.952 -1.519 26.374 4 26 C6.504 22.245 6.511 18.348 6 14 C4.648 9.419 3.93 7.565 -0.188 5.062 C-1.116 4.712 -2.044 4.361 -3 4 C-2.01 2.68 -1.02 1.36 0 0 Z " fill="#FFFFFF" transform="translate(77,420)"/>
</svg>
