<?xml version="1.0" encoding="UTF-8"?>
<!-- Generator: visioncortex VTracer 0.6.4 -->
<svg version="1.1" xmlns="http://www.w3.org/2000/svg" width="512" height="512">
<path d="M0 0 C168.96 0 337.92 0 512 0 C512 168.96 512 337.92 512 512 C343.04 512 174.08 512 0 512 C0 343.04 0 174.08 0 0 Z " fill="#000000" transform="translate(0,0)"/>
<path d="M0 0 C0.33 0 0.66 0 1 0 C1 1.65 1 3.3 1 5 C28.06 5 55.12 5 83 5 C82.67 7.31 82.34 9.62 82 12 C48.34 12 14.68 12 -20 12 C-20 7 -20 7 -18 5 C-16.121 4.773 -16.121 4.773 -13.867 4.805 C-13.062 4.811 -12.256 4.818 -11.426 4.824 C-10.163 4.849 -10.163 4.849 -8.875 4.875 C-7.601 4.889 -7.601 4.889 -6.301 4.902 C-4.2 4.926 -2.1 4.962 0 5 C0 3.35 0 1.7 0 0 Z " fill="#FFFFFF" transform="translate(81,380)"/>
</svg>
