<?xml version="1.0" encoding="UTF-8"?>
<!-- Generator: visioncortex VTracer 0.6.4 -->
<svg version="1.1" xmlns="http://www.w3.org/2000/svg" width="512" height="512">
<path d="M0 0 C168.96 0 337.92 0 512 0 C512 168.96 512 337.92 512 512 C343.04 512 174.08 512 0 512 C0 343.04 0 174.08 0 0 Z " fill="#000000" transform="translate(0,0)"/>
<path d="M0 0 C16.359 6.224 16.359 6.224 20.516 12.27 C20.578 14.832 20.578 14.832 19.516 17.27 C15.312 20.622 11.352 20.682 6.188 20.598 C5.398 20.596 4.608 20.594 3.795 20.592 C2.134 20.585 0.473 20.571 -1.188 20.551 C-3.74 20.519 -6.291 20.51 -8.844 20.504 C-10.458 20.495 -12.073 20.484 -13.688 20.473 C-14.454 20.468 -15.221 20.464 -16.011 20.46 C-21.367 20.387 -21.367 20.387 -22.484 19.27 C-22.093 11.827 -20.356 5.941 -14.797 0.77 C-9.65 -1.561 -5.413 -1.592 0 0 Z " fill="#FFFFFF" transform="translate(137.484375,476.73046875)"/>
</svg>
