<?xml version="1.0" encoding="UTF-8"?>
<!-- Generator: visioncortex VTracer 0.6.4 -->
<svg version="1.1" xmlns="http://www.w3.org/2000/svg" width="512" height="512">
<path d="M0 0 C168.96 0 337.92 0 512 0 C512 168.96 512 337.92 512 512 C343.04 512 174.08 512 0 512 C0 343.04 0 174.08 0 0 Z " fill="#000000" transform="translate(0,0)"/>
<path d="M0 0 C7.75 -0.125 7.75 -0.125 10 1 C10.875 3 10.875 3 11 6 C10.395 7.311 9.743 8.601 9.062 9.875 C6.324 15.408 6.776 20.743 7.055 26.742 C7 30 7 30 5 33 C-3.765 32.814 -9.25 27.004 -15.125 21 C-17.506 18.119 -17.976 17.234 -18.375 13.375 C-16.095 7.779 -12.282 4.984 -6.812 2.625 C-4 2 -4 2 0 2 C0 1.34 0 0.68 0 0 Z " fill="#FFFFFF" transform="translate(180,392)"/>
</svg>
