<?xml version="1.0" encoding="UTF-8"?>
<!-- Generator: visioncortex VTracer 0.6.4 -->
<svg version="1.1" xmlns="http://www.w3.org/2000/svg" width="512" height="512">
<path d="M0 0 C168.96 0 337.92 0 512 0 C512 168.96 512 337.92 512 512 C343.04 512 174.08 512 0 512 C0 343.04 0 174.08 0 0 Z " fill="#000000" transform="translate(0,0)"/>
<path d="M0 0 C2.949 -0.021 5.899 -0.041 8.938 -0.062 C9.868 -0.072 10.799 -0.081 11.758 -0.09 C12.486 -0.093 13.214 -0.095 13.965 -0.098 C14.714 -0.103 15.463 -0.108 16.234 -0.114 C18 0 18 0 19 1 C19.088 3.219 19.107 5.44 19.098 7.66 C19.096 8.325 19.095 8.989 19.093 9.674 C19.088 11.803 19.075 13.933 19.062 16.062 C19.057 17.503 19.053 18.944 19.049 20.385 C19.039 23.923 19.019 27.462 19 31 C12.73 31 6.46 31 0 31 C0 20.77 0 10.54 0 0 Z " fill="#FFFFFF" transform="translate(354,344)"/>
</svg>
