<?xml version="1.0" encoding="UTF-8"?>
<!-- Generator: visioncortex VTracer 0.6.4 -->
<svg version="1.1" xmlns="http://www.w3.org/2000/svg" width="512" height="512">
<path d="M0 0 C168.96 0 337.92 0 512 0 C512 168.96 512 337.92 512 512 C343.04 512 174.08 512 0 512 C0 343.04 0 174.08 0 0 Z " fill="#000000" transform="translate(0,0)"/>
<path d="M0 0 C4.225 -0.486 8.023 -0.3 11.667 2.096 C13.434 3.507 15.063 4.99 16.688 6.562 C17.229 7.063 17.77 7.563 18.327 8.079 C20.469 10.297 21.884 11.906 22.216 15.033 C21.662 21.316 18.664 24.935 14 29 C10.923 30.806 9.291 31.271 5.801 30.539 C3.444 29.815 1.245 29.019 -1 28 C-1.897 27.603 -2.794 27.206 -3.719 26.797 C-6 25 -6 25 -6.777 21.934 C-6.83 20.78 -6.883 19.626 -6.938 18.438 C-7.008 17.281 -7.079 16.125 -7.152 14.934 C-7 12 -7 12 -5 10 C-4.546 10.619 -4.092 11.238 -3.625 11.875 C0.188 14.962 4.157 15.656 9 16 C12.012 15.305 12.012 15.305 14 14 C14.502 11.67 14.502 11.67 14 9 C9.538 4.996 4.739 3.969 -1 3 C-0.67 2.01 -0.34 1.02 0 0 Z " fill="#FFFFFF" transform="translate(343,396)"/>
</svg>
