<?xml version="1.0" encoding="UTF-8"?>
<!-- Generator: visioncortex VTracer 0.6.4 -->
<svg version="1.1" xmlns="http://www.w3.org/2000/svg" width="512" height="512">
<path d="M0 0 C168.96 0 337.92 0 512 0 C512 168.96 512 337.92 512 512 C343.04 512 174.08 512 0 512 C0 343.04 0 174.08 0 0 Z " fill="#000000" transform="translate(0,0)"/>
<path d="M0 0 C10.89 0 21.78 0 33 0 C31.874 7.884 31.874 7.884 27 12 C26.474 12.456 25.948 12.913 25.406 13.383 C22.038 16.273 20.141 17.892 15.688 18.312 C11.284 17.939 10.189 16.961 7 14 C4.98 11.309 4.98 11.309 3.188 8.438 C2.583 7.487 1.978 6.537 1.355 5.559 C0 3 0 3 0 0 Z " fill="#FFFFFF" transform="translate(227,393)"/>
</svg>
