<?xml version="1.0" encoding="UTF-8"?>
<!-- Generator: visioncortex VTracer 0.6.4 -->
<svg version="1.1" xmlns="http://www.w3.org/2000/svg" width="512" height="512">
<path d="M0 0 C168.96 0 337.92 0 512 0 C512 168.96 512 337.92 512 512 C343.04 512 174.08 512 0 512 C0 343.04 0 174.08 0 0 Z " fill="#000000" transform="translate(0,0)"/>
<path d="M0 0 C3.957 2.022 7.332 4.691 10.812 7.438 C10.132 8.098 9.451 8.757 8.75 9.438 C6.483 11.685 4.429 14.057 2.375 16.5 C-0.525 19.815 -3.175 22.474 -7.188 24.438 C-10.438 24.438 -10.438 24.438 -13.188 23.438 C-14.943 21.283 -15.17 19.531 -15.688 16.812 C-14.833 11.043 -11.603 5.521 -7.172 1.699 C-4.613 0.072 -3.005 -0.773 0 0 Z " fill="#FFFFFF" transform="translate(269.1875,431.5625)"/>
</svg>
