<?xml version="1.0" encoding="UTF-8"?>
<!-- Generator: visioncortex VTracer 0.6.4 -->
<svg version="1.1" xmlns="http://www.w3.org/2000/svg" width="512" height="512">
<path d="M0 0 C168.96 0 337.92 0 512 0 C512 168.96 512 337.92 512 512 C343.04 512 174.08 512 0 512 C0 343.04 0 174.08 0 0 Z " fill="#000000" transform="translate(0,0)"/>
<path d="M0 0 C1.434 0 2.867 0.006 4.301 0.016 C5.43 0.018 5.43 0.018 6.583 0.02 C8.998 0.026 11.413 0.038 13.828 0.051 C15.461 0.056 17.095 0.061 18.728 0.065 C22.741 0.076 26.753 0.093 30.765 0.114 C31.26 1.599 31.26 1.599 31.765 3.114 C28.999 7.856 25.078 13.299 19.765 15.114 C12.6 15.235 7.423 12.375 1.765 8.114 C-0.481 5.885 -2.313 3.642 -4.235 1.114 C-3.235 0.114 -3.235 0.114 0 0 Z " fill="#FFFFFF" transform="translate(299.234619140625,392.886474609375)"/>
</svg>
