<?xml version="1.0" ?>
<svg xmlns="http://www.w3.org/2000/svg" version="1.1" width="512" height="512">
  <defs>
    <radialGradient id="shape_0_fill" cx="0.498046875" cy="0.498046875" r="0.4990234375">
      <stop offset="0.0" stop-color="rgb(0, 0, 0)" stop-opacity="1.0"/>
      <stop offset="1.0" stop-color="rgb(0, 0, 0)" stop-opacity="1.0"/>
    </radialGradient>
    <radialGradient id="shape_1_fill" cx="0.50390625" cy="0.537109375" r="0.4222817122936249">
      <stop offset="0.0" stop-color="rgb(112, 132, 59)" stop-opacity="1.0"/>
      <stop offset="1.0" stop-color="rgb(112, 132, 59)" stop-opacity="1.0"/>
    </radialGradient>
    <radialGradient id="shape_2_fill" cx="0.642578125" cy="0.30078125" r="0.11583694070577621">
      <stop offset="0.0" stop-color="rgb(91, 101, 23)" stop-opacity="1.0"/>
      <stop offset="1.0" stop-color="rgb(91, 101, 23)" stop-opacity="1.0"/>
    </radialGradient>
    <radialGradient id="shape_3_fill" cx="0.82421875" cy="0.759765625" r="0.10399358719587326">
      <stop offset="0.0" stop-color="rgb(91, 102, 24)" stop-opacity="1.0"/>
      <stop offset="1.0" stop-color="rgb(91, 102, 24)" stop-opacity="1.0"/>
    </radialGradient>
    <radialGradient id="shape_4_fill" cx="0.578125" cy="0.810546875" r="0.1152443066239357">
      <stop offset="0.0" stop-color="rgb(90, 101, 22)" stop-opacity="1.0"/>
      <stop offset="1.0" stop-color="rgb(90, 101, 22)" stop-opacity="1.0"/>
    </radialGradient>
    <radialGradient id="shape_5_fill" cx="0.447265625" cy="0.810546875" r="0.10000000149011612">
      <stop offset="0.0" stop-color="rgb(111, 132, 59)" stop-opacity="1.0"/>
      <stop offset="1.0" stop-color="rgb(111, 132, 59)" stop-opacity="1.0"/>
    </radialGradient>
    <radialGradient id="shape_6_fill" cx="0.732421875" cy="0.734375" r="0.10000000149011612">
      <stop offset="0.0" stop-color="rgb(111, 132, 59)" stop-opacity="1.0"/>
      <stop offset="1.0" stop-color="rgb(111, 132, 59)" stop-opacity="1.0"/>
    </radialGradient>
    <radialGradient id="shape_7_fill" cx="0.205078125" cy="0.388671875" r="0.13940443098545074">
      <stop offset="0.0" stop-color="rgb(90, 100, 21)" stop-opacity="1.0"/>
      <stop offset="1.0" stop-color="rgb(90, 100, 21)" stop-opacity="1.0"/>
    </radialGradient>
    <radialGradient id="shape_8_fill" cx="0.87890625" cy="0.2734375" r="0.1122392788529396">
      <stop offset="0.0" stop-color="rgb(240, 108, 55)" stop-opacity="1.0"/>
      <stop offset="1.0" stop-color="rgb(240, 108, 55)" stop-opacity="1.0"/>
    </radialGradient>
    <radialGradient id="shape_9_fill" cx="0.4609375" cy="0.421875" r="0.10000000149011612">
      <stop offset="0.0" stop-color="rgb(90, 100, 21)" stop-opacity="1.0"/>
      <stop offset="1.0" stop-color="rgb(90, 100, 21)" stop-opacity="1.0"/>
    </radialGradient>
    <radialGradient id="shape_10_fill" cx="0.646484375" cy="0.775390625" r="0.10000000149011612">
      <stop offset="0.0" stop-color="rgb(0, 0, 0)" stop-opacity="1.0"/>
      <stop offset="1.0" stop-color="rgb(0, 0, 0)" stop-opacity="1.0"/>
    </radialGradient>
    <radialGradient id="shape_11_fill" cx="0.828125" cy="0.142578125" r="0.10000000149011612">
      <stop offset="0.0" stop-color="rgb(94, 108, 57)" stop-opacity="1.0"/>
      <stop offset="1.0" stop-color="rgb(94, 108, 57)" stop-opacity="1.0"/>
    </radialGradient>
    <radialGradient id="shape_12_fill" cx="0.744140625" cy="0.453125" r="0.10000000149011612">
      <stop offset="0.0" stop-color="rgb(47, 45, 51)" stop-opacity="1.0"/>
      <stop offset="1.0" stop-color="rgb(47, 45, 51)" stop-opacity="1.0"/>
    </radialGradient>
    <radialGradient id="shape_13_fill" cx="0.607421875" cy="0.48046875" r="0.10000000149011612">
      <stop offset="0.0" stop-color="rgb(149, 167, 39)" stop-opacity="1.0"/>
      <stop offset="1.0" stop-color="rgb(149, 167, 39)" stop-opacity="1.0"/>
    </radialGradient>
    <radialGradient id="shape_14_fill" cx="0.5" cy="0.515625" r="0.10000000149011612">
      <stop offset="0.0" stop-color="rgb(149, 167, 39)" stop-opacity="1.0"/>
      <stop offset="1.0" stop-color="rgb(149, 167, 39)" stop-opacity="1.0"/>
    </radialGradient>
    <radialGradient id="shape_15_fill" cx="0.380859375" cy="0.546875" r="0.10000000149011612">
      <stop offset="0.0" stop-color="rgb(149, 167, 39)" stop-opacity="1.0"/>
      <stop offset="1.0" stop-color="rgb(149, 167, 39)" stop-opacity="1.0"/>
    </radialGradient>
    <radialGradient id="shape_16_fill" cx="0.646484375" cy="0.6015625" r="0.10000000149011612">
      <stop offset="0.0" stop-color="rgb(149, 167, 39)" stop-opacity="1.0"/>
      <stop offset="1.0" stop-color="rgb(149, 167, 39)" stop-opacity="1.0"/>
    </radialGradient>
    <radialGradient id="shape_17_fill" cx="0.740234375" cy="0.22265625" r="0.10000000149011612">
      <stop offset="0.0" stop-color="rgb(97, 111, 34)" stop-opacity="1.0"/>
      <stop offset="1.0" stop-color="rgb(97, 111, 34)" stop-opacity="1.0"/>
    </radialGradient>
    <radialGradient id="shape_18_fill" cx="0.537109375" cy="0.650390625" r="0.10000000149011612">
      <stop offset="0.0" stop-color="rgb(149, 167, 39)" stop-opacity="1.0"/>
      <stop offset="1.0" stop-color="rgb(149, 167, 39)" stop-opacity="1.0"/>
    </radialGradient>
    <radialGradient id="shape_19_fill" cx="0.29296875" cy="0.69921875" r="0.10000000149011612">
      <stop offset="0.0" stop-color="rgb(149, 167, 40)" stop-opacity="1.0"/>
      <stop offset="1.0" stop-color="rgb(149, 167, 40)" stop-opacity="1.0"/>
    </radialGradient>
    <radialGradient id="shape_20_fill" cx="0.4140625" cy="0.6796875" r="0.10000000149011612">
      <stop offset="0.0" stop-color="rgb(149, 167, 39)" stop-opacity="1.0"/>
      <stop offset="1.0" stop-color="rgb(149, 167, 39)" stop-opacity="1.0"/>
    </radialGradient>
    <radialGradient id="shape_21_fill" cx="0.3671875" cy="0.37890625" r="0.10000000149011612">
      <stop offset="0.0" stop-color="rgb(22, 24, 5)" stop-opacity="1.0"/>
      <stop offset="1.0" stop-color="rgb(22, 24, 5)" stop-opacity="1.0"/>
    </radialGradient>
    <radialGradient id="shape_22_fill" cx="0.169921875" cy="0.677734375" r="0.10000000149011612">
      <stop offset="0.0" stop-color="rgb(149, 167, 39)" stop-opacity="1.0"/>
      <stop offset="1.0" stop-color="rgb(149, 167, 39)" stop-opacity="1.0"/>
    </radialGradient>
    <radialGradient id="shape_23_fill" cx="0.828125" cy="0.443359375" r="0.10000000149011612">
      <stop offset="0.0" stop-color="rgb(130, 129, 59)" stop-opacity="1.0"/>
      <stop offset="1.0" stop-color="rgb(130, 129, 59)" stop-opacity="1.0"/>
    </radialGradient>
    <radialGradient id="shape_24_fill" cx="0.19140625" cy="0.59765625" r="0.10000000149011612">
      <stop offset="0.0" stop-color="rgb(149, 167, 39)" stop-opacity="1.0"/>
      <stop offset="1.0" stop-color="rgb(149, 167, 39)" stop-opacity="1.0"/>
    </radialGradient>
    <radialGradient id="shape_25_fill" cx="0.119140625" cy="0.53515625" r="0.10000000149011612">
      <stop offset="0.0" stop-color="rgb(149, 167, 40)" stop-opacity="1.0"/>
      <stop offset="1.0" stop-color="rgb(149, 167, 40)" stop-opacity="1.0"/>
    </radialGradient>
    <radialGradient id="shape_26_fill" cx="0.283203125" cy="0.58984375" r="0.10000000149011612">
      <stop offset="0.0" stop-color="rgb(149, 167, 39)" stop-opacity="1.0"/>
      <stop offset="1.0" stop-color="rgb(149, 167, 39)" stop-opacity="1.0"/>
    </radialGradient>
    <radialGradient id="shape_27_fill" cx="0.521484375" cy="0.43359375" r="0.10000000149011612">
      <stop offset="0.0" stop-color="rgb(97, 111, 34)" stop-opacity="1.0"/>
      <stop offset="1.0" stop-color="rgb(97, 111, 34)" stop-opacity="1.0"/>
    </radialGradient>
    <radialGradient id="shape_28_fill" cx="0.08203125" cy="0.58984375" r="0.10000000149011612">
      <stop offset="0.0" stop-color="rgb(148, 166, 40)" stop-opacity="1.0"/>
      <stop offset="1.0" stop-color="rgb(148, 166, 40)" stop-opacity="1.0"/>
    </radialGradient>
    <radialGradient id="shape_29_fill" cx="0.6640625" cy="0.822265625" r="0.10000000149011612">
      <stop offset="0.0" stop-color="rgb(104, 121, 44)" stop-opacity="1.0"/>
      <stop offset="1.0" stop-color="rgb(104, 121, 44)" stop-opacity="1.0"/>
    </radialGradient>
    <radialGradient id="shape_30_fill" cx="0.88671875" cy="0.111328125" r="0.10000000149011612">
      <stop offset="0.0" stop-color="rgb(6, 7, 3)" stop-opacity="1.0"/>
      <stop offset="1.0" stop-color="rgb(6, 7, 3)" stop-opacity="1.0"/>
    </radialGradient>
    <radialGradient id="shape_31_fill" cx="0.126953125" cy="0.3671875" r="0.10000000149011612">
      <stop offset="0.0" stop-color="rgb(148, 166, 40)" stop-opacity="1.0"/>
      <stop offset="1.0" stop-color="rgb(148, 166, 40)" stop-opacity="1.0"/>
    </radialGradient>
    <radialGradient id="shape_32_fill" cx="0.830078125" cy="0.404296875" r="0.10000000149011612">
      <stop offset="0.0" stop-color="rgb(251, 244, 240)" stop-opacity="1.0"/>
      <stop offset="1.0" stop-color="rgb(251, 244, 240)" stop-opacity="1.0"/>
    </radialGradient>
    <radialGradient id="shape_33_fill" cx="0.90625" cy="0.244140625" r="0.10000000149011612">
      <stop offset="0.0" stop-color="rgb(252, 248, 246)" stop-opacity="1.0"/>
      <stop offset="1.0" stop-color="rgb(252, 248, 246)" stop-opacity="1.0"/>
    </radialGradient>
    <radialGradient id="shape_34_fill" cx="0.845703125" cy="0.3359375" r="0.10000000149011612">
      <stop offset="0.0" stop-color="rgb(252, 248, 246)" stop-opacity="1.0"/>
      <stop offset="1.0" stop-color="rgb(252, 248, 246)" stop-opacity="1.0"/>
    </radialGradient>
    <radialGradient id="shape_35_fill" cx="0.904296875" cy="0.75390625" r="0.10000000149011612">
      <stop offset="0.0" stop-color="rgb(112, 132, 59)" stop-opacity="1.0"/>
      <stop offset="1.0" stop-color="rgb(112, 132, 59)" stop-opacity="1.0"/>
    </radialGradient>
    <radialGradient id="shape_36_fill" cx="0.1015625" cy="0.447265625" r="0.10000000149011612">
      <stop offset="0.0" stop-color="rgb(149, 167, 39)" stop-opacity="1.0"/>
      <stop offset="1.0" stop-color="rgb(149, 167, 39)" stop-opacity="1.0"/>
    </radialGradient>
    <radialGradient id="shape_37_fill" cx="0.1796875" cy="0.3046875" r="0.10000000149011612">
      <stop offset="0.0" stop-color="rgb(148, 166, 40)" stop-opacity="1.0"/>
      <stop offset="1.0" stop-color="rgb(148, 166, 40)" stop-opacity="1.0"/>
    </radialGradient>
    <radialGradient id="shape_38_fill" cx="0.056640625" cy="0.48046875" r="0.10000000149011612">
      <stop offset="0.0" stop-color="rgb(149, 167, 39)" stop-opacity="1.0"/>
      <stop offset="1.0" stop-color="rgb(149, 167, 39)" stop-opacity="1.0"/>
    </radialGradient>
    <radialGradient id="shape_39_fill" cx="0.72265625" cy="0.1875" r="0.10000000149011612">
      <stop offset="0.0" stop-color="rgb(112, 132, 59)" stop-opacity="1.0"/>
      <stop offset="1.0" stop-color="rgb(112, 132, 59)" stop-opacity="1.0"/>
    </radialGradient>
    <radialGradient id="shape_40_fill" cx="0.6640625" cy="0.822265625" r="0.10000000149011612">
      <stop offset="0.0" stop-color="rgb(111, 132, 56)" stop-opacity="1.0"/>
      <stop offset="1.0" stop-color="rgb(111, 132, 56)" stop-opacity="1.0"/>
    </radialGradient>
    <radialGradient id="shape_41_fill" cx="0.90625" cy="0.16796875" r="0.10000000149011612">
      <stop offset="0.0" stop-color="rgb(252, 248, 246)" stop-opacity="1.0"/>
      <stop offset="1.0" stop-color="rgb(252, 248, 246)" stop-opacity="1.0"/>
    </radialGradient>
    <radialGradient id="shape_42_fill" cx="0.078125" cy="0.37890625" r="0.10000000149011612">
      <stop offset="0.0" stop-color="rgb(149, 167, 39)" stop-opacity="1.0"/>
      <stop offset="1.0" stop-color="rgb(149, 167, 39)" stop-opacity="1.0"/>
    </radialGradient>
    <radialGradient id="shape_43_fill" cx="0.8984375" cy="0.7890625" r="0.10000000149011612">
      <stop offset="0.0" stop-color="rgb(111, 131, 58)" stop-opacity="1.0"/>
      <stop offset="1.0" stop-color="rgb(111, 131, 58)" stop-opacity="1.0"/>
    </radialGradient>
    <radialGradient id="shape_44_fill" cx="0.654296875" cy="0.853515625" r="0.10000000149011612">
      <stop offset="0.0" stop-color="rgb(111, 132, 56)" stop-opacity="1.0"/>
      <stop offset="1.0" stop-color="rgb(111, 132, 56)" stop-opacity="1.0"/>
    </radialGradient>
    <radialGradient id="shape_45_fill" cx="0.521484375" cy="0.400390625" r="0.10000000149011612">
      <stop offset="0.0" stop-color="rgb(110, 130, 57)" stop-opacity="1.0"/>
      <stop offset="1.0" stop-color="rgb(110, 130, 57)" stop-opacity="1.0"/>
    </radialGradient>
    <radialGradient id="shape_46_fill" cx="0.826171875" cy="0.1328125" r="0.10000000149011612">
      <stop offset="0.0" stop-color="rgb(51, 51, 51)" stop-opacity="1.0"/>
      <stop offset="1.0" stop-color="rgb(51, 51, 51)" stop-opacity="1.0"/>
    </radialGradient>
    <radialGradient id="shape_47_fill" cx="0.837890625" cy="0.1953125" r="0.10000000149011612">
      <stop offset="0.0" stop-color="rgb(47, 46, 51)" stop-opacity="1.0"/>
      <stop offset="1.0" stop-color="rgb(47, 46, 51)" stop-opacity="1.0"/>
    </radialGradient>
  </defs>
  <g>
    <path d="M 0.0 0.0 C 168.9600067138672 0.0 337.9200134277344 0.0 512.0 0.0 C 512.0 168.9600067138672 512.0 337.9200134277344 512.0 512.0 C 343.0400085449219 512.0 174.0800018310547 512.0 0.0 512.0 C 0.0 343.0400085449219 0.0 174.0800018310547 0.0 0.0" stroke-width="0.0" fill="url(#shape_0_fill)"/>
    <path d="M 342.75 44.11328125 C 345.552001953125 46.35428237915039 348.2850036621094 48.65528106689453 351.0 51.000282287597656 C 366.3559875488281 64.43228149414062 376.3059997558594 76.98028564453125 385.0 91.00028228759766 C 401.35101318359375 117.23528289794922 407.6669921875 148.37828063964844 407.0 177.00027465820312 C 419.1499938964844 180.22427368164062 426.7099914550781 188.7092742919922 431.625 196.61328125 C 436.00799560546875 204.71128845214844 438.20001220703125 213.04428100585938 440.0 222.00027465820312 C 442.989990234375 238.72927856445312 445.2550048828125 255.60728454589844 437.9219970703125 267.707275390625 C 434.09100341796875 272.27825927734375 429.6239929199219 275.1252746582031 424.0 277.0002746582031 C 412.031982421875 277.90728759765625 412.031982421875 277.90728759765625 406.5 275.4372863769531 C 394.4649963378906 263.71728515625 392.0119934082031 250.88427734375 391.7539978027344 239.97227478027344 C 391.5929870605469 234.2362823486328 391.5360107421875 231.90028381347656 391.48199462890625 229.5642852783203 C 391.30401611328125 223.70327758789062 390.989990234375 218.53628540039062 389.0 213.00027465820312 C 382.77899169921875 220.28128051757812 382.61700439453125 226.1842803955078 382.625 232.81228637695312 C 382.718994140625 244.3662872314453 383.6059875488281 252.09527587890625 385.0 260.0622863769531 C 390.6719970703125 292.91326904296875 382.635009765625 319.3442687988281 372.0 350.0002746582031 C 379.6600036621094 349.8792724609375 385.1210021972656 350.2452697753906 390.81201171875 351.2502746582031 C 402.89300537109375 353.4292907714844 413.2139892578125 355.4812927246094 421.0 362.0002746582031 C 423.2349853515625 365.352294921875 410.1210021972656 393.44427490234375 399.80499267578125 400.40228271484375 C 387.82000732421875 407.2292785644531 343.77398681640625 396.0572814941406 336.63299560546875 389.98828125 C 334.09698486328125 385.3482666015625 334.5769958496094 380.8772888183594 334.75 375.6872863769531 C 334.85198974609375 370.05029296875 334.9169921875 367.5252685546875 335.0 365.0002746582031 C 329.5610046386719 365.33526611328125 329.5610046386719 365.33526611328125 325.625 368.8122863769531 C 321.8380126953125 376.24127197265625 322.031005859375 385.3572692871094 323.4259948730469 393.48028564453125 C 325.208984375 398.9622802734375 329.0459899902344 402.92626953125 333.0 407.0002746582031 C 328.6650085449219 411.7642822265625 323.6730041503906 415.15228271484375 318.31201171875 418.6872863769531 C 306.29998779296875 426.57928466796875 296.79400634765625 432.29827880859375 286.8320007324219 437.0292663574219 C 283.0459899902344 438.8282775878906 280.2120056152344 440.2792663574219 277.625 443.6872863769531 C 264.1969909667969 459.9952697753906 245.85800170898438 468.85028076171875 225.0 471.0002746582031 C 221.38800048828125 471.0282897949219 217.802001953125 470.9102783203125 214.1929931640625 470.76727294921875 C 200.88400268554688 470.2712707519531 190.86399841308594 471.2452697753906 179.19900512695312 477.8102722167969 C 175.08799743652344 480.0342712402344 170.79299926757812 481.8462829589844 166.5 483.6872863769531 C 141.6269989013672 494.23529052734375 112.41099548339844 499.2222900390625 88.94900512695312 491.2542724609375 C 73.55300903320312 484.1582946777344 63.105010986328125 461.4322814941406 64.0 458.0002746582031 C 67.78201293945312 456.16326904296875 69.94601440429688 455.8412780761719 74.0 457.0002746582031 C 79.38699340820312 465.77728271484375 79.77301025390625 466.5542907714844 80.1719970703125 467.35528564453125 C 83.25299072265625 471.8122863769531 119.77699279785156 475.14227294921875 132.0 470.0002746582031 C 144.88999938964844 464.5242919921875 155.19400024414062 459.4272766113281 165.47300720214844 454.2652893066406 C 172.125 450.92327880859375 176.25999450683594 448.8332824707031 180.38699340820312 446.7262878417969 C 188.75399780273438 442.4762878417969 197.10000610351562 438.582275390625 205.88499450683594 435.2702941894531 C 209.96299743652344 433.6072692871094 213.38900756835938 431.5052795410156 217.0 429.0002746582031 C 226.94000244140625 434.6702880859375 232.8800048828125 434.34027099609375 239.0 434.0002746582031 C 237.88800048828125 425.8492736816406 237.7139892578125 424.5722961425781 237.53500366210938 423.2582702636719 C 229.05499267578125 416.5592956542969 227.98500061035156 416.3682861328125 226.88299560546875 416.1722717285156 C 218.67599487304688 418.394287109375 216.34201049804688 418.73529052734375 214.0 419.0002746582031 C 204.7310028076172 417.7652893066406 203.6199951171875 419.5702819824219 202.0 422.0002746582031 C 193.9969940185547 422.37127685546875 192.74400329589844 422.7422790527344 191.4530029296875 423.1252746582031 C 181.031005859375 426.52728271484375 181.031005859375 426.52728271484375 178.5 426.9372863769531 C 174.11900329589844 427.7232666015625 170.08399963378906 428.8832702636719 165.91000366210938 430.4142761230469 C 157.6540069580078 433.91229248046875 155.3280029296875 434.7232666015625 152.93800354003906 435.5002746582031 C 146.51800537109375 437.6552734375 140.29800415039062 440.1072692871094 134.08200073242188 442.79327392578125 C 112.86900329589844 451.95928955078125 53.175994873046875 444.6822814941406 49.0 439.0002746582031 C 55.683990478515625 433.811279296875 62.44500732421875 429.3022766113281 71.125 429.3982849121094 C 79.1099853515625 434.4112854003906 79.96798706054688 434.3832702636719 80.85198974609375 434.35528564453125 C 88.55499267578125 434.1352844238281 90.48399353027344 434.0872802734375 92.41400146484375 434.04327392578125 C 101.00300598144531 435.14227294921875 103.99200439453125 435.0422668457031 107.0 435.0002746582031 C 105.11300659179688 425.0622863769531 105.11300659179688 425.0622863769531 103.18800354003906 425.1252746582031 C 96.14300537109375 424.4412841796875 91.68499755859375 418.8252868652344 87.0 414.0002746582031 C 81.75799560546875 417.4952697753906 78.37899780273438 419.7472839355469 75.0 422.0002746582031 C 66.95700073242188 418.9052734375 66.95700073242188 418.9052734375 65.0 419.0002746582031 C 59.0 408.0002746582031 59.0 408.0002746582031 59.0 406.0002746582031 C 67.81100463867188 404.9682922363281 68.62298583984375 404.874267578125 69.45901489257812 404.77728271484375 C 74.13699340820312 404.2532958984375 78.77899169921875 403.8852844238281 83.48199462890625 403.7062683105469 C 95.93099975585938 403.2052917480469 103.83299255371094 398.8212890625 114.0 392.0002746582031 C 131.14100646972656 381.41827392578125 131.14100646972656 381.41827392578125 140.0 369.0002746582031 C 142.9040069580078 350.55828857421875 174.51300048828125 324.3212890625 185.5469970703125 326.5042724609375 C 191.95700073242188 328.1252746582031 197.9810028076172 330.5132751464844 204.05499267578125 333.1092834472656 C 215.8389892578125 328.2962951660156 217.68099975585938 323.3752746582031 219.45700073242188 317.62127685546875 C 222.24600219726562 308.4532775878906 223.75799560546875 301.3312683105469 225.18800354003906 294.1252746582031 C 227.12600708007812 284.7642822265625 227.28298950195312 284.0132751464844 227.44400024414062 283.24029541015625 C 229.5189971923828 273.4112854003906 231.85400390625 263.644287109375 234.18800354003906 253.87527465820312 C 237.3909912109375 240.4202880859375 240.07901000976562 229.68728637695312 243.0 219.00027465820312 C 233.23199462890625 219.2122802734375 232.4010009765625 219.23727416992188 231.5449981689453 219.26327514648438 C 220.28199768066406 219.39527893066406 212.58399963378906 215.436279296875 204.625 207.68728637695312 C 201.38800048828125 202.3342742919922 200.5449981689453 198.3042755126953 201.7729949951172 192.082275390625 C 202.7220001220703 188.34727478027344 203.82899475097656 184.67127990722656 205.0 181.00027465820312 C 213.88900756835938 165.55528259277344 230.85501098632812 158.19229125976562 244.0 153.00027465820312 C 261.9169921875 147.00128173828125 261.9169921875 147.00128173828125 271.0 137.00027465820312 C 278.7120056152344 124.936279296875 235.8070068359375 69.51828002929688 222.18800354003906 72.62528228759766 C 204.67100524902344 76.84928131103516 193.01800537109375 85.92527770996094 181.80099487304688 96.4102783203125 C 170.9029998779297 106.04827880859375 166.7969970703125 109.95227813720703 162.68800354003906 113.87528228759766 C 156.33399963378906 119.8902816772461 149.9340057373047 125.65428161621094 143.0 131.00027465820312 C 123.72500610351562 145.94229125976562 103.96600341796875 151.26727294921875 83.0 150.00027465820312 C 75.68798828125 143.62527465820312 75.68798828125 143.62527465820312 76.0 140.00027465820312 C 78.8699951171875 137.22328186035156 81.864013671875 136.2432861328125 85.656005859375 135.16827392578125 C 91.30400085449219 133.52928161621094 93.60099792480469 132.87527465820312 95.89799499511719 132.22427368164062 C 121.42599487304688 124.72228240966797 130.78700256347656 109.87628173828125 143.38499450683594 87.69628143310547 C 148.4759979248047 78.78028106689453 153.88800048828125 70.24728393554688 160.0 62.000282287597656 C 170.5330047607422 48.2012825012207 179.7790069580078 39.634281158447266 192.0 33.000282287597656 C 241.114990234375 6.455280303955078 300.2149963378906 11.426280975341797 342.75 44.11328125" stroke-width="0.0" fill="url(#shape_1_fill)"/>
    <path d="M 223.0 297.0 C 224.0 298.0 219.4499969482422 324.5769958496094 212.25 333.06201171875 C 206.5050048828125 335.45599365234375 200.7429962158203 332.6130065917969 195.31199645996094 330.5 C 181.38499450683594 325.114013671875 147.6610107421875 342.08599853515625 144.31199645996094 351.18798828125 C 143.25299072265625 354.6080017089844 142.63400268554688 358.0429992675781 142.03700256347656 361.57098388671875 C 140.03399658203125 372.99700927734375 115.92900085449219 392.0199890136719 112.06199645996094 391.93798828125 C 108.48400115966797 390.8420104980469 105.96099853515625 389.2720031738281 103.0 387.0 C 95.18599700927734 380.83099365234375 91.95799255371094 377.0459899902344 89.625 372.06201171875 C 88.63800048828125 367.22601318359375 87.85699462890625 362.927001953125 90.49600219726562 358.47698974609375 C 93.79100036621094 355.2179870605469 97.13500213623047 353.9989929199219 101.43800354003906 352.43798828125 C 111.16799926757812 348.8380126953125 116.91999816894531 344.2070007324219 122.0 335.0 C 125.51799774169922 326.94000244140625 128.39300537109375 318.5849914550781 131.30099487304688 310.28900146484375 C 134.44699096679688 301.87701416015625 199.9459991455078 285.25 223.0 297.0" stroke-width="0.0" fill="url(#shape_2_fill)"/>
    <path d="M 334.0 365.0 C 335.3489990234375 374.802001953125 335.39300537109375 376.6510009765625 335.42999267578125 378.5 C 335.65399169921875 385.24700927734375 335.65399169921875 385.24700927734375 339.0 391.0 C 345.6780090332031 396.4150085449219 354.9010009765625 398.5320129394531 363.0 401.0 C 377.3110046386719 405.23199462890625 389.85400390625 404.885986328125 401.1130065917969 399.2929992675781 C 410.8659973144531 392.6099853515625 417.87200927734375 381.3970031738281 423.0 371.0 C 428.37799072265625 380.02801513671875 428.37799072265625 380.02801513671875 428.6369934082031 381.0140075683594 C 434.281982421875 403.3070068359375 433.73699951171875 437.5429992675781 422.8789978027344 458.125 C 420.0249938964844 462.01800537109375 416.4389953613281 463.5469970703125 412.0 465.0 C 398.4779968261719 469.95001220703125 390.07098388671875 471.66998291015625 380.0 471.0 C 372.94000244140625 470.56298828125 370.07598876953125 469.5419921875 367.0 466.0 C 365.5979919433594 461.71099853515625 365.72698974609375 459.0220031738281 367.68798828125 455.06201171875 C 372.510986328125 446.1260070800781 372.8349914550781 445.50201416015625 373.1679992675781 444.8590087890625 C 375.06298828125 440.6239929199219 375.1910095214844 436.68499755859375 375.25 432.06201171875 C 374.9639892578125 424.625 374.37298583984375 422.94598388671875 372.0 420.0 C 367.9179992675781 416.7669982910156 364.2139892578125 415.2409973144531 359.18798828125 414.0 C 353.6700134277344 412.60101318359375 350.07098388671875 411.79498291015625 346.4530029296875 411.0350036621094 C 333.6520080566406 408.3389892578125 330.0069885253906 405.8280029296875 326.3550109863281 400.6839904785156 C 320.7929992675781 389.083984375 327.7950134277344 364.1619873046875 334.0 365.0" stroke-width="0.0" fill="url(#shape_3_fill)"/>
    <path d="M 386.0 212.0 C 392.72198486328125 218.70399475097656 392.32598876953125 224.8179931640625 392.43798828125 231.0 C 392.8699951171875 245.60800170898438 411.5559997558594 276.94000244140625 416.2300109863281 277.05499267578125 C 422.7489929199219 276.53900146484375 428.656005859375 274.9179992675781 433.75 270.75 C 436.29998779296875 267.63299560546875 438.1180114746094 264.55499267578125 440.0 261.0 C 441.8030090332031 280.90899658203125 445.510986328125 287.36700439453125 451.33599853515625 295.781005859375 C 455.8529968261719 302.47601318359375 451.3330078125 332.4079895019531 445.0 338.0 C 440.8070068359375 335.12298583984375 440.0 332.083984375 440.0 328.0 C 432.8370056152344 335.0369873046875 432.8370056152344 335.0369873046875 434.5 339.75 C 429.7460021972656 347.072998046875 427.1759948730469 347.14801025390625 424.0 347.0 C 423.9169921875 342.1669921875 424.0469970703125 337.76300048828125 425.0 333.0 C 417.3399963378906 337.2900085449219 416.67999267578125 341.58001708984375 416.0 346.0 C 409.4110107421875 338.4110107421875 409.208984375 337.71600341796875 409.0 337.0 C 407.885009765625 332.468994140625 407.74700927734375 329.7879943847656 407.6050109863281 326.9490051269531 C 407.25799560546875 320.93499755859375 407.1300048828125 318.47601318359375 407.0140075683594 316.01800537109375 C 406.5989990234375 309.3089904785156 406.21600341796875 304.36700439453125 402.0 299.0 C 393.1000061035156 311.65399169921875 388.68798828125 324.1829833984375 383.56201171875 336.5 C 379.2619934082031 346.7380065917969 379.2619934082031 346.7380065917969 377.0 349.0 C 374.5 341.614990234375 376.6520080566406 334.54998779296875 378.93798828125 327.375 C 386.6099853515625 302.5530090332031 387.72601318359375 280.5920104980469 383.4389953613281 254.81399536132812 C 382.2590026855469 247.49099731445312 381.5880126953125 240.35699462890625 381.56201171875 232.93800354003906 C 381.6059875488281 224.85299682617188 381.90301513671875 216.0970001220703 386.0 212.0" stroke-width="0.0" fill="url(#shape_4_fill)"/>
    <path d="M 407.6875 177.3125 C 412.70849609375 178.35450744628906 416.93548583984375 180.89950561523438 420.99951171875 184.00050354003906 C 427.0945129394531 189.21749877929688 429.3735046386719 193.87249755859375 431.99951171875 198.00050354003906 C 441.96051025390625 215.1114959716797 433.4175109863281 272.7405090332031 426.3125 276.37451171875 C 420.0895080566406 277.54949951171875 412.968505859375 278.4414978027344 407.12548828125 275.50048828125 C 398.2984924316406 269.33648681640625 394.9754943847656 259.1105041503906 392.9215087890625 249.00750732421875 C 391.5614929199219 241.2445068359375 391.5784912109375 233.44850158691406 391.4335021972656 225.58749389648438 C 390.97650146484375 215.75250244140625 390.03448486328125 213.06549072265625 388.99951171875 210.00050354003906 C 392.99951171875 199.00050354003906 392.99951171875 199.00050354003906 394.5274963378906 196.5034942626953 C 399.8185119628906 183.04449462890625 401.6864929199219 178.84750366210938 407.6875 177.3125" stroke-width="0.0" fill="url(#shape_5_fill)"/>
    <path d="M 412.0 357.0 C 416.7560119628906 359.4639892578125 421.12298583984375 361.74700927734375 423.0 367.0 C 423.0150146484375 374.69000244140625 418.302001953125 381.0119934082031 414.0 387.0 C 407.239990234375 395.80499267578125 355.62799072265625 402.01300048828125 340.43798828125 393.06201171875 C 334.6860046386719 380.97601318359375 334.802001953125 377.0270080566406 335.0 373.0 C 335.2619934082031 366.12298583984375 335.63201904296875 362.87701416015625 338.06201171875 359.5 C 341.6210021972656 356.47100830078125 344.52801513671875 355.73699951171875 349.0 355.0 C 356.61700439453125 353.5140075683594 358.5639953613281 353.1470031738281 360.5119934082031 352.781005859375 C 378.9679870605469 346.1080017089844 400.25299072265625 352.5870056152344 412.0 357.0" stroke-width="0.0" fill="url(#shape_6_fill)"/>
    <path d="M 270.0 82.0 C 278.4360046386719 91.83899688720703 279.8450012207031 124.15499877929688 276.0 128.0 C 273.343994140625 114.35200500488281 272.010986328125 109.40699768066406 269.0 104.0 C 260.90899658203125 93.0250015258789 208.2570037841797 93.27999877929688 194.39498901367188 104.9020004272461 C 190.2220001220703 108.55799865722656 186.09201049804688 112.25399780273438 182.0 116.0 C 156.82400512695312 138.99099731445312 133.2010040283203 155.94000244140625 98.0 155.0 C 86.78999328613281 152.93899536132812 85.14500427246094 151.82901000976562 83.0 150.0 C 113.52200317382812 148.74099731445312 133.1719970703125 139.5540008544922 153.0 121.0 C 160.37399291992188 114.58599853515625 163.8470001220703 111.39500427246094 167.31199645996094 108.18800354003906 C 171.62200927734375 104.20500183105469 174.22799682617188 101.78599548339844 176.82400512695312 99.35499572753906 C 191.21800231933594 86.01200103759766 206.11599731445312 74.09100341796875 226.0 71.0 C 243.48199462890625 68.25499725341797 258.5060119628906 71.96900177001953 270.0 82.0" stroke-width="0.0" fill="url(#shape_7_fill)"/>
    <path d="M 202.0 420.0 C 201.0019989013672 428.9129943847656 200.4969940185547 433.95599365234375 200.0 439.0 C 187.32899475097656 444.03399658203125 177.052001953125 449.3819885253906 166.68800354003906 454.625 C 156.39999389648438 459.80999755859375 154.6439971923828 460.6969909667969 152.88900756835938 461.5870056152344 C 140.16600036621094 468.0 140.16600036621094 468.0 136.0 468.0 C 133.30599975585938 461.4129943847656 131.447998046875 458.7860107421875 129.0 456.0 C 119.447998046875 462.10400390625 118.00199890136719 468.5660095214844 116.0 475.0 C 109.06999969482422 475.0 102.13999938964844 475.0 95.0 475.0 C 92.44499969482422 463.88299560546875 90.66000366210938 460.35198974609375 87.0 456.0 C 80.3499984741211 460.88299560546875 79.14700317382812 463.885986328125 78.0 467.0 C 73.06100463867188 457.3190002441406 72.80999755859375 456.32501220703125 72.55099487304688 455.3009948730469 C 93.25299835205078 453.656005859375 110.375 451.4549865722656 128.42599487304688 444.0450134277344 C 131.6790008544922 442.7239990234375 134.947998046875 441.44500732421875 138.218994140625 440.1679992675781 C 145.1510009765625 437.458984375 152.07699584960938 434.7330017089844 159.0 432.0 C 165.95399475097656 439.2040100097656 165.95399475097656 439.2040100097656 172.0 441.56201171875 C 180.3780059814453 435.35198974609375 180.7050018310547 432.81201171875 181.31199645996094 429.93798828125 C 189.18299865722656 421.1470031738281 196.1439971923828 420.0 202.0 420.0" stroke-width="0.0" fill="url(#shape_8_fill)"/>
    <path d="M 207.0 209.0 C 215.10699462890625 215.4709930419922 221.25100708007812 218.14599609375 228.76600646972656 218.09799194335938 C 239.3909912109375 218.03700256347656 241.69500732421875 218.02099609375 244.0 218.0 C 242.73800659179688 223.07200622558594 241.47500610351562 228.1439971923828 240.20999145507812 233.21600341796875 C 238.3040008544922 240.8730010986328 237.68499755859375 243.3520050048828 237.0659942626953 245.83200073242188 C 235.74000549316406 251.15200805664062 234.9720001220703 254.08399963378906 234.0 257.0 C 229.0500030517578 257.0 224.10000610351562 257.0 219.0 257.0 C 216.7259979248047 263.6050109863281 214.77999877929688 270.2460021972656 213.0 277.0 C 210.28399658203125 270.67401123046875 211.37899780273438 266.9219970703125 211.0 262.0 C 201.8939971923828 264.3909912109375 201.8939971923828 264.3909912109375 201.0 267.0 C 199.30299377441406 258.4599914550781 200.82400512695312 256.6679992675781 202.34800720214844 254.87899780273438 C 202.2429962158203 242.7310028076172 201.42799377441406 240.47999572753906 200.56199645996094 238.25 C 196.947998046875 228.3780059814453 195.63499450683594 219.49000549316406 196.0 209.0 C 203.86000061035156 207.63999938964844 203.86000061035156 207.63999938964844 207.0 209.0" stroke-width="0.0" fill="url(#shape_9_fill)"/>
    <path d="M 399.0 297.0 C 408.0369873046875 308.7900085449219 407.8919982910156 314.4230041503906 408.125 319.875 C 408.635009765625 333.01300048828125 408.635009765625 333.01300048828125 412.06201171875 345.625 C 414.989990234375 355.4949951171875 414.989990234375 355.4949951171875 416.0 356.0 C 407.59100341796875 355.31500244140625 400.9960021972656 354.0190124511719 394.125 352.93798828125 C 383.0090026855469 351.00201416015625 381.1400146484375 350.19500732421875 379.0 349.0 C 379.6400146484375 345.2760009765625 380.6839904785156 341.9679870605469 382.0740051269531 338.4570007324219 C 388.1099853515625 323.07000732421875 391.3840026855469 314.3320007324219 399.0 297.0" stroke-width="0.0" fill="url(#shape_10_fill)"/>
    <path d="M 57.0 407.0 C 64.22000122070312 415.8009948730469 64.22000122070312 415.8009948730469 66.0 418.0 C 73.98999786376953 418.989990234375 74.97999572753906 419.9800109863281 76.0 421.0 C 79.30000305175781 418.3599853515625 82.5999984741211 415.7200012207031 86.0 413.0 C 94.30400085449219 420.1579895019531 98.20100402832031 422.9419860839844 105.0 424.0 C 108.38999938964844 430.1180114746094 108.50399780273438 432.1099853515625 106.93800354003906 434.875 C 97.00999450683594 435.6700134277344 96.02000427246094 435.3399963378906 95.0 435.0 C 86.3759994506836 435.1610107421875 84.62300109863281 435.22601318359375 82.87100219726562 435.3030090332031 C 74.14800262451172 433.031005859375 74.14800262451172 433.031005859375 73.0 431.0 C 65.23999786376953 429.62298583984375 60.236000061035156 432.6289978027344 53.722999572753906 436.468994140625 C 46.904998779296875 430.4840087890625 53.29199981689453 408.85400390625 57.0 407.0" stroke-width="0.0" fill="url(#shape_11_fill)"/>
    <path d="M 240.25 368.1875 C 244.46800231933594 370.9674987792969 246.55099487304688 373.3324890136719 247.875 378.24951171875 C 248.0449981689453 383.33648681640625 248.0229949951172 388.56048583984375 244.63299560546875 392.64849853515625 C 239.81900024414062 396.79150390625 222.33499145507812 394.4565124511719 219.37100219726562 391.2225036621094 C 216.7050018310547 386.9005126953125 217.322998046875 381.88250732421875 218.0 376.99951171875 C 219.70599365234375 372.83050537109375 222.1439971923828 370.5895080566406 225.81199645996094 368.0625 C 231.03399658203125 366.3215026855469 235.0709991455078 366.2955017089844 240.25 368.1875" stroke-width="0.0" fill="url(#shape_12_fill)"/>
    <path d="M 259.0 295.0 C 259.90301513671875 305.3240051269531 259.18701171875 305.9639892578125 256.0 308.5 C 251.0 316.4880065917969 251.0 317.7250061035156 251.0 319.0 C 250.9409942626953 324.5929870605469 250.95599365234375 327.29400634765625 251.0 330.0 C 240.906005859375 330.56201171875 239.85499572753906 328.31298828125 238.0 325.0 C 235.98399353027344 318.9530029296875 249.6669921875 292.9639892578125 259.0 295.0" stroke-width="0.0" fill="url(#shape_13_fill)"/>
    <path d="M 278.0 241.0 C 279.0 250.0 279.0 250.0 276.75 251.68800354003906 C 270.35101318359375 254.8699951171875 270.35101318359375 254.8699951171875 268.0 258.0 C 267.76800537109375 261.38299560546875 267.6050109863281 264.7590026855469 267.48199462890625 268.14599609375 C 263.18798828125 277.875 263.18798828125 277.875 261.0 278.0 C 252.83499145507812 266.3500061035156 261.1090087890625 244.1060028076172 266.31201171875 241.06199645996094 C 270.8949890136719 239.74200439453125 273.37799072265625 239.9029998779297 278.0 241.0" stroke-width="0.0" fill="url(#shape_14_fill)"/>
    <path d="M 293.0 179.0 C 295.83099365234375 188.7169952392578 294.99200439453125 188.9530029296875 291.68798828125 191.0 C 286.2659912109375 194.54800415039062 285.3210144042969 196.51499938964844 284.0 200.0 C 283.583984375 203.6669921875 283.5 207.26600646972656 283.406005859375 210.9530029296875 C 272.0010070800781 213.1269989013672 271.06298828125 211.44100952148438 270.468994140625 207.29299926757812 C 270.8139953613281 194.08200073242188 285.67999267578125 178.4770050048828 293.0 179.0" stroke-width="0.0" fill="url(#shape_15_fill)"/>
    <path d="M 322.0 317.0 C 321.4490051269531 327.5509948730469 319.10101318359375 328.9540100097656 315.81201171875 330.43798828125 C 310.718994140625 340.0589904785156 310.6239929199219 343.0899963378906 310.53900146484375 346.1600036621094 C 303.43798828125 353.06201171875 303.43798828125 353.06201171875 301.0 352.0 C 296.4570007324219 346.1029968261719 297.34100341796875 339.03900146484375 298.0 332.0 C 299.6029968261719 325.7770080566406 303.656005859375 321.42401123046875 309.0 318.0 C 313.66900634765625 316.1159973144531 317.1369934082031 315.5299987792969 322.0 317.0" stroke-width="0.0" fill="url(#shape_16_fill)"/>
    <path d="M 120.1171875 367.8828125 C 125.77118682861328 370.0738220214844 128.8181915283203 375.0498046875 132.00018310546875 379.99981689453125 C 128.70819091796875 383.57080078125 125.09819030761719 386.17181396484375 121.06218719482422 388.81280517578125 C 116.57318878173828 391.81781005859375 114.63018798828125 392.9958190917969 111.42218780517578 393.01580810546875 C 102.21118927001953 387.20379638671875 101.23619079589844 386.4708251953125 100.23018646240234 385.7148132324219 C 101.80618286132812 375.017822265625 110.01419067382812 367.0128173828125 120.1171875 367.8828125" stroke-width="0.0" fill="url(#shape_17_fill)"/>
    <path d="M 343.0 259.0 C 344.68798828125 269.593994140625 344.68798828125 269.593994140625 343.06201171875 271.25 C 339.1300048828125 275.4230041503906 339.0 279.4419860839844 339.0 285.0 C 336.0 295.0 336.0 295.0 333.06201171875 295.5 C 323.6719970703125 284.0150146484375 334.6260070800781 258.4119873046875 343.0 259.0" stroke-width="0.0" fill="url(#shape_18_fill)"/>
    <path d="M 360.0 134.6875 C 366.5050048828125 138.7584991455078 365.98199462890625 141.28550720214844 365.56201171875 145.5625 C 365.1440124511719 150.43350219726562 364.9460144042969 154.88650512695312 365.68798828125 159.74949645996094 C 362.0 167.99949645996094 362.0 167.99949645996094 358.5 168.24949645996094 C 350.77801513671875 159.69850158691406 350.6159973144531 155.4185028076172 350.56201171875 150.87550354003906 C 350.6449890136719 142.2935028076172 352.4779968261719 134.72850036621094 360.0 134.6875" stroke-width="0.0" fill="url(#shape_19_fill)"/>
    <path d="M 358.0 197.0 C 359.9590148925781 205.2740020751953 359.4639892578125 205.81900024414062 357.125 208.43800354003906 C 353.06201171875 213.3159942626953 353.0199890136719 218.62399291992188 352.61700439453125 224.70700073242188 C 342.0 229.0 342.0 229.0 341.0 228.0 C 339.4639892578125 218.31500244140625 350.7699890136719 196.19700622558594 358.0 197.0" stroke-width="0.0" fill="url(#shape_20_fill)"/>
    <path d="M 197.0 177.0 C 203.8560028076172 183.35400390625 203.70899963378906 184.7080078125 203.56199645996094 186.06199645996094 C 201.9040069580078 199.3719940185547 203.35699462890625 203.38800048828125 205.0 208.0 C 196.3300018310547 204.70999145507812 196.66000366210938 200.4199981689453 197.0 196.0 C 189.3679962158203 193.7030029296875 188.17300415039062 193.34300231933594 186.9409942626953 192.97299194335938 C 182.94700622558594 184.42599487304688 182.95599365234375 183.41400146484375 182.96499633789062 182.37100219726562 C 191.46099853515625 174.99600219726562 191.46099853515625 174.99600219726562 197.0 177.0" stroke-width="0.0" fill="url(#shape_21_fill)"/>
    <path d="M 348.0 75.0 C 353.3970031738281 79.3550033569336 357.2380065917969 97.63400268554688 355.375 100.5 C 344.5369873046875 99.2770004272461 343.2640075683594 96.48100280761719 342.0 93.06199645996094 C 336.59600830078125 82.27200317382812 336.489990234375 80.35099792480469 337.0 77.0 C 340.1780090332031 73.05899810791016 343.4429931640625 73.58599853515625 348.0 75.0" stroke-width="0.0" fill="url(#shape_22_fill)"/>
    <path d="M 224.0 415.0 C 236.0 417.0 236.0 417.0 238.0 420.0 C 238.6999969482422 428.4599914550781 238.77499389648438 429.73199462890625 238.8520050048828 431.0429992675781 C 230.13600158691406 435.0920104980469 229.2729949951172 435.1830139160156 228.38299560546875 435.2770080566406 C 217.427001953125 431.3399963378906 216.531005859375 427.9930114746094 216.0 423.0 C 223.0 416.1610107421875 223.0 416.1610107421875 224.0 415.0" stroke-width="0.0" fill="url(#shape_23_fill)"/>
    <path d="M 306.0 86.0 C 310.88800048828125 88.79299926757812 316.2950134277344 105.96600341796875 315.0 110.5 C 306.0 114.0 306.0 114.0 304.3399963378906 112.76599884033203 C 301.4200134277344 103.28599548339844 300.8940124511719 101.84400177001953 298.875 98.875 C 296.5369873046875 95.29000091552734 296.44500732421875 93.2040023803711 306.0 86.0" stroke-width="0.0" fill="url(#shape_24_fill)"/>
    <path d="M 276.0 53.0 C 281.35101318359375 54.763999938964844 285.0459899902344 58.34600067138672 288.0 63.0 C 286.0 73.0 286.0 73.0 283.31201171875 73.5 C 273.07000732421875 66.62200164794922 269.3320007324219 65.71099853515625 264.3550109863281 64.64099884033203 C 260.1419982910156 58.663002014160156 260.2720031738281 56.70399856567383 262.7229919433594 54.33599853515625 C 266.885009765625 51.89400100708008 271.3320007324219 52.4109992980957 276.0 53.0" stroke-width="0.0" fill="url(#shape_25_fill)"/>
    <path d="M 312.0 132.0 C 312.9580078125 139.4709930419922 311.7239990234375 142.0709991455078 310.0119934082031 145.62100219726562 C 306.864013671875 157.44900512695312 305.96099853515625 158.4669952392578 304.0 160.0 C 295.2510070800781 157.16000366210938 296.4419860839844 139.78599548339844 300.56201171875 135.06199645996094 C 304.4939880371094 131.73599243164062 306.8840026855469 131.81399536132812 312.0 132.0" stroke-width="0.0" fill="url(#shape_26_fill)"/>
    <path d="M 219.0 257.0 C 223.9499969482422 257.0 228.89999389648438 257.0 234.0 257.0 C 232.16400146484375 267.2640075683594 232.01499938964844 268.15399169921875 231.86099243164062 269.07000732421875 C 224.82000732421875 278.0270080566406 222.11900329589844 278.19598388671875 219.18800354003906 278.125 C 211.6479949951172 270.9440002441406 215.98500061035156 263.33099365234375 219.0 257.0" stroke-width="0.0" fill="url(#shape_27_fill)"/>
    <path d="M 295.5 33.5 C 302.92999267578125 33.63999938964844 308.31500244140625 37.44599914550781 313.56201171875 42.4379997253418 C 314.0 55.0 314.0 55.0 311.25 55.625 C 301.97698974609375 47.32400131225586 297.7879943847656 45.93000030517578 292.6090087890625 44.042999267578125 C 288.5369873046875 35.62699890136719 290.0929870605469 33.70500183105469 295.5 33.5" stroke-width="0.0" fill="url(#shape_28_fill)"/>
    <path d="M 418.0 332.0 C 427.6499938964844 335.0 429.29998779296875 335.0 431.0 335.0 C 432.6600036621094 337.2900085449219 433.32000732421875 341.5799865722656 434.0 346.0 C 427.9949951171875 349.00201416015625 412.0780029296875 346.11199951171875 409.93798828125 343.06201171875 C 411.6400146484375 335.6700134277344 414.2799987792969 335.3399963378906 418.0 332.0" stroke-width="0.0" fill="url(#shape_29_fill)"/>
    <path d="M 51.0 444.0 C 54.63399887084961 444.3970031738281 57.729000091552734 446.2829895019531 60.9379997253418 447.93798828125 C 70.53700256347656 452.3330078125 71.25799560546875 452.6610107421875 72.0 453.0 C 63.66999816894531 459.9800109863281 63.34000015258789 461.9599914550781 63.0 464.0 C 55.36800003051758 464.6669921875 54.17300033569336 464.77099609375 52.941001892089844 464.8789978027344 C 47.84299850463867 462.8429870605469 48.814998626708984 458.052001953125 48.8120002746582 455.06201171875 C 49.0 446.0 49.0 446.0 51.0 444.0" stroke-width="0.0" fill="url(#shape_30_fill)"/>
    <path d="M 199.0 57.0 C 199.07899475097656 66.9469985961914 197.40199279785156 67.43900299072266 194.06199645996094 68.18800354003906 C 185.0 77.0 185.0 77.0 181.875 78.06199645996094 C 176.5189971923828 71.83499908447266 176.71200561523438 69.54299926757812 178.68800354003906 65.81199645996094 C 184.27000427246094 59.02299880981445 190.12100219726562 56.178001403808594 199.0 57.0" stroke-width="0.0" fill="url(#shape_31_fill)"/>
    <path d="M 208.0 414.0 C 212.43899536132812 415.3559875488281 214.41600036621094 417.1679992675781 217.0 421.0 C 216.00100708007812 430.2659912109375 213.04100036621094 432.4079895019531 208.43800354003906 434.81201171875 C 199.85800170898438 421.9119873046875 199.85800170898438 421.9119873046875 208.0 414.0" stroke-width="0.0" fill="url(#shape_32_fill)"/>
    <path d="M 127.4375 455.0 C 131.75149536132812 456.6839904785156 133.50750732421875 460.2619934082031 135.99949645996094 464.0 C 122.36650085449219 474.5559997558594 122.36650085449219 474.5559997558594 115.99949645996094 475.0 C 119.51850128173828 455.0 119.51850128173828 455.0 127.4375 455.0" stroke-width="0.0" fill="url(#shape_33_fill)"/>
    <path d="M 183.0 425.0 C 182.72999572753906 431.0780029296875 182.01699829101562 435.156005859375 178.0 440.0 C 165.97000122070312 440.0069885253906 163.27099609375 437.83599853515625 161.0 435.0 C 164.1020050048828 429.9930114746094 167.20700073242188 428.9960021972656 170.31199645996094 428.0 C 180.0 425.0 180.0 425.0 183.0 425.0" stroke-width="0.0" fill="url(#shape_34_fill)"/>
    <path d="M 392.0 454.0 C 394.4909973144531 457.73699951171875 394.2070007324219 459.7449951171875 394.125 464.18798828125 C 390.49200439453125 471.8030090332031 387.2829895019531 472.1099853515625 383.68798828125 472.06201171875 C 377.2919921875 466.97900390625 379.0979919433594 462.75 381.0 458.0 C 383.9909973144531 453.51300048828125 386.77099609375 453.3219909667969 392.0 454.0" stroke-width="0.0" fill="url(#shape_35_fill)"/>
    <path d="M 238.98828125 47.78515625 C 242.3402862548828 56.66015625 241.68028259277344 57.32015609741211 241.00027465820312 58.00015640258789 C 229.27427673339844 56.95415496826172 225.33627319335938 57.389156341552734 220.00027465820312 59.00015640258789 C 224.34727478027344 45.64015579223633 231.2622833251953 44.73415756225586 238.98828125 47.78515625" stroke-width="0.0" fill="url(#shape_36_fill)"/>
    <path d="M 166.0 85.0 C 167.0 94.0 167.0 94.0 163.18800354003906 94.68800354003906 C 156.73699951171875 98.95199584960938 155.9429931640625 100.22599792480469 155.156005859375 101.50399780273438 C 146.48199462890625 97.20199584960938 146.84500122070312 95.2969970703125 148.625 91.875 C 153.5919952392578 85.86299896240234 158.32200622558594 83.74199676513672 166.0 85.0" stroke-width="0.0" fill="url(#shape_37_fill)"/>
    <path d="M 256.0625 26.875 C 252.4945068359375 36.33399963378906 247.5644989013672 35.64500045776367 242.00050354003906 35.0 C 234.4185028076172 31.29800033569336 234.21249389648438 30.659000396728516 234.00050354003906 30.0 C 240.2205047607422 23.262001037597656 247.91949462890625 21.889999389648438 256.0625 26.875" stroke-width="0.0" fill="url(#shape_38_fill)"/>
    <path d="M 104.0 364.625 C 107.0 372.0 107.0 372.0 104.31199645996094 374.75 C 100.36499786376953 377.5849914550781 97.98799896240234 379.0 93.0 379.0 C 90.46700286865234 374.3580017089844 88.53500366210938 370.3479919433594 88.0 365.0 C 93.32600402832031 363.489990234375 98.59400177001953 363.4989929199219 104.0 364.625" stroke-width="0.0" fill="url(#shape_39_fill)"/>
    <path d="M 421.0 331.0 C 429.00201416015625 338.1759948730469 429.3110046386719 342.083984375 429.0 348.0 C 423.5830078125 348.9339904785156 420.19500732421875 349.2080078125 415.0 347.0 C 413.6260070800781 342.4649963378906 414.25201416015625 339.3699951171875 421.0 331.0" stroke-width="0.0" fill="url(#shape_40_fill)"/>
    <path d="M 86.875 455.5625 C 90.8550033569336 458.2544860839844 92.5780029296875 461.2745056152344 93.69499969482422 465.8395080566406 C 88.74299621582031 473.46051025390625 83.63700103759766 472.6365051269531 79.0 468.00048828125 C 78.5250015258789 463.8074951171875 78.54399871826172 461.6994934082031 86.875 455.5625" stroke-width="0.0" fill="url(#shape_41_fill)"/>
    <path d="M 203.0 34.0 C 200.0800018310547 42.749000549316406 196.7080078125 44.01000213623047 193.25 46.75 C 184.18800354003906 45.875 184.18800354003906 45.875 184.0 43.0 C 188.843994140625 35.65999984741211 194.32400512695312 33.28900146484375 203.0 34.0" stroke-width="0.0" fill="url(#shape_42_fill)"/>
    <path d="M 406.5 452.75 C 412.10699462890625 461.62799072265625 412.0889892578125 462.6310119628906 412.07000732421875 463.66400146484375 C 407.2560119628906 468.22698974609375 403.2770080566406 469.46099853515625 398.0 470.0 C 397.68499755859375 464.0159912109375 398.22900390625 460.3290100097656 406.5 452.75" stroke-width="0.0" fill="url(#shape_43_fill)"/>
    <path d="M 437.4375 326.4375 C 444.99951171875 334.8924865722656 444.99951171875 334.8924865722656 444.99951171875 337.99951171875 C 442.86749267578125 341.396484375 440.8294982910156 343.6835021972656 436.99951171875 344.99951171875 C 432.0555114746094 341.7764892578125 431.80450439453125 338.79150390625 431.74951171875 335.4375 C 434.99951171875 326.99951171875 434.99951171875 326.99951171875 437.4375 326.4375" stroke-width="0.0" fill="url(#shape_44_fill)"/>
    <path d="M 207.6875 259.5 C 212.54849243164062 267.59600830078125 211.40550231933594 271.0899963378906 208.99949645996094 276.0 C 204.12649536132812 275.5469970703125 201.6094970703125 274.291015625 197.99949645996094 271.0 C 199.59950256347656 266.0559997558594 202.19349670410156 260.5220031738281 207.6875 259.5" stroke-width="0.0" fill="url(#shape_45_fill)"/>
    <path d="M 72.0 417.0 C 76.5009994506836 423.36199951171875 76.36900329589844 425.281005859375 74.81199645996094 428.31201171875 C 65.25 430.0 65.25 430.0 63.0 428.0 C 64.6729965209961 416.83099365234375 67.21700286865234 416.302001953125 72.0 417.0" stroke-width="0.0" fill="url(#shape_46_fill)"/>
    <path d="M 100.8125 422.75 C 108.00050354003906 426.0 108.00050354003906 426.0 108.4375 429.5 C 103.88050079345703 436.614013671875 101.40950012207031 436.364990234375 98.00050354003906 436.0 C 93.94450378417969 428.0539855957031 95.26950073242188 426.4630126953125 100.8125 422.75" stroke-width="0.0" fill="url(#shape_47_fill)"/>
  </g>
</svg>
