<?xml version="1.0" ?>
<svg xmlns="http://www.w3.org/2000/svg" version="1.1" width="512" height="512">
  <defs>
    <radialGradient id="shape_0_fill" cx="0.4987119436264038" cy="0.497371107339859" r="0.4983965754508972">
      <stop offset="0.0011770267" stop-color="rgb(3, 12, 1)" stop-opacity="0.9783850908279419"/>
      <stop offset="0.83849454" stop-color="rgb(0, 0, 0)" stop-opacity="0.9688087105751038"/>
    </radialGradient>
    <radialGradient id="shape_1_fill" cx="0.4326566457748413" cy="0.49118664860725403" r="0.4235232472419739">
      <stop offset="0.044485517" stop-color="rgb(255, 236, 50)" stop-opacity="1.0"/>
      <stop offset="1.0" stop-color="rgb(251, 194, 43)" stop-opacity="0.9810182452201843"/>
    </radialGradient>
    <radialGradient id="shape_2_fill" cx="0.5215558409690857" cy="0.49396461248397827" r="0.1303267627954483">
      <stop offset="0.0" stop-color="rgb(64, 41, 12)" stop-opacity="0.9916348457336426"/>
      <stop offset="0.9630492" stop-color="rgb(63, 40, 12)" stop-opacity="0.9869096279144287"/>
    </radialGradient>
    <radialGradient id="shape_3_fill" cx="0.568359375" cy="0.859375" r="0.1671217679977417">
      <stop offset="0.0" stop-color="rgb(235, 143, 0)" stop-opacity="1.0"/>
      <stop offset="1.0" stop-color="rgb(241, 146, 1)" stop-opacity="0.9713694453239441"/>
    </radialGradient>
    <radialGradient id="shape_4_fill" cx="0.330078125" cy="0.603515625" r="0.10000000149011612">
      <stop offset="0.0" stop-color="rgb(72, 48, 15)" stop-opacity="1.0"/>
      <stop offset="1.0" stop-color="rgb(64, 41, 12)" stop-opacity="0.991832435131073"/>
    </radialGradient>
    <radialGradient id="shape_5_fill" cx="0.25583285093307495" cy="0.3652067482471466" r="0.09995120763778687">
      <stop offset="0.10843984" stop-color="rgb(93, 74, 19)" stop-opacity="0.8837594389915466"/>
      <stop offset="0.9649202" stop-color="rgb(64, 41, 12)" stop-opacity="0.992738664150238"/>
    </radialGradient>
    <radialGradient id="shape_6_fill" cx="0.7774394750595093" cy="0.681912899017334" r="0.11312317848205566">
      <stop offset="0.0" stop-color="rgb(239, 146, 0)" stop-opacity="0.9833728671073914"/>
      <stop offset="1.0" stop-color="rgb(242, 148, 2)" stop-opacity="0.9608138203620911"/>
    </radialGradient>
    <radialGradient id="shape_7_fill" cx="0.759765625" cy="0.32421875" r="0.10000000149011612">
      <stop offset="0.0" stop-color="rgb(235, 143, 0)" stop-opacity="1.0"/>
      <stop offset="1.0" stop-color="rgb(240, 146, 0)" stop-opacity="0.9763317704200745"/>
    </radialGradient>
    <radialGradient id="shape_8_fill" cx="0.841796875" cy="0.537109375" r="0.10000000149011612">
      <stop offset="0.0" stop-color="rgb(0, 0, 0)" stop-opacity="1.0"/>
      <stop offset="1.0" stop-color="rgb(0, 0, 0)" stop-opacity="0.7813690304756165"/>
    </radialGradient>
    <radialGradient id="shape_9_fill" cx="0.876953125" cy="0.49609375" r="0.10364452749490738">
      <stop offset="0.0" stop-color="rgb(235, 143, 0)" stop-opacity="1.0"/>
      <stop offset="1.0" stop-color="rgb(242, 148, 1)" stop-opacity="0.9492294192314148"/>
    </radialGradient>
    <radialGradient id="shape_10_fill" cx="0.78125" cy="0.30078125" r="0.10000000149011612">
      <stop offset="0.0" stop-color="rgb(0, 0, 0)" stop-opacity="1.0"/>
      <stop offset="1.0" stop-color="rgb(0, 0, 0)" stop-opacity="0.904305100440979"/>
    </radialGradient>
    <radialGradient id="shape_11_fill" cx="0.7579761147499084" cy="0.7546598315238953" r="0.10006705671548843">
      <stop offset="0.017245455" stop-color="rgb(0, 0, 0)" stop-opacity="0.7803677320480347"/>
      <stop offset="0.47393605" stop-color="rgb(0, 0, 0)" stop-opacity="0.9537680745124817"/>
    </radialGradient>
    <radialGradient id="shape_12_fill" cx="0.818359375" cy="0.537109375" r="0.10000000149011612">
      <stop offset="0.0" stop-color="rgb(0, 0, 0)" stop-opacity="1.0"/>
      <stop offset="1.0" stop-color="rgb(0, 0, 0)" stop-opacity="0.7067464590072632"/>
    </radialGradient>
    <radialGradient id="shape_13_fill" cx="0.66796875" cy="0.18359375" r="0.10000000149011612">
      <stop offset="0.0" stop-color="rgb(235, 144, 1)" stop-opacity="1.0"/>
      <stop offset="1.0" stop-color="rgb(245, 149, 3)" stop-opacity="0.9537389874458313"/>
    </radialGradient>
    <radialGradient id="shape_14_fill" cx="0.30859375" cy="0.58984375" r="0.10000000149011612">
      <stop offset="0.0" stop-color="rgb(131, 92, 34)" stop-opacity="1.0"/>
      <stop offset="1.0" stop-color="rgb(137, 96, 36)" stop-opacity="0.9845703840255737"/>
    </radialGradient>
    <radialGradient id="shape_15_fill" cx="0.232421875" cy="0.35546875" r="0.10000000149011612">
      <stop offset="0.0" stop-color="rgb(135, 94, 35)" stop-opacity="1.0"/>
      <stop offset="1.0" stop-color="rgb(137, 96, 36)" stop-opacity="0.9855790734291077"/>
    </radialGradient>
  </defs>
  <g>
    <path d="M 0.585972011089325 0.5974502563476562 C 168.96377563476562 -0.596571683883667 337.9166259765625 -0.5965896248817444 511.4026184082031 0.5974808931350708 C 512.5965576171875 168.9635772705078 512.5965576171875 337.91656494140625 511.402587890625 511.402587890625 C 343.03656005859375 512.5965576171875 174.08363342285156 512.5965576171875 0.5974708199501038 511.402587890625 C -0.5966148376464844 343.0358581542969 -0.5967934727668762 174.07962036132812 0.585972011089325 0.5974502563476562" stroke-width="0.0" fill="url(#shape_0_fill)"/>
    <path d="M 391.13848876953125 68.54431915283203 C 405.97222900390625 83.94855499267578 427.25567626953125 106.091064453125 433.9913635253906 122.83980560302734 C 435.9738464355469 126.48944854736328 442.045166015625 134.25331115722656 441.41064453125 139.03524780273438 C 442.3733825683594 141.47398376464844 442.08880615234375 150.78012084960938 445.0612487792969 157.71426391601562 C 448.2249755859375 168.30526733398438 450.7249755859375 191.5231170654297 450.2557678222656 209.6474151611328 C 450.2703857421875 235.2393341064453 447.0384826660156 254.8797149658203 439.4383544921875 277.1257629394531 C 433.82666015625 288.8215637207031 432.9693298339844 301.7637634277344 429.2034912109375 315.12017822265625 C 425.5227966308594 336.46185302734375 426.0729064941406 342.5518798828125 426.25677490234375 354.5645446777344 C 426.4985656738281 363.5495910644531 424.2669677734375 368.98663330078125 422.2236328125 379.76824951171875 C 428.9853515625 386.48089599609375 421.40863037109375 410.3606262207031 416.66143798828125 417.4814147949219 C 410.32025146484375 422.3761901855469 401.8575439453125 416.1591491699219 399.72930908203125 410.4963073730469 C 396.5604553222656 404.4040832519531 395.5879211425781 395.6641540527344 396.1828918457031 391.1107482910156 C 395.3259582519531 381.5897521972656 396.6487121582031 379.6864929199219 395.477294921875 371.4883728027344 C 396.9679870605469 366.3539733886719 395.53338623046875 362.9071350097656 396.6923522949219 360.1645812988281 C 395.7192687988281 355.0673522949219 397.19219970703125 352.79962158203125 393.58282470703125 349.3857727050781 C 389.662109375 344.8647155761719 389.6903381347656 340.6195068359375 388.7581787109375 336.3601989746094 C 384.7540588378906 333.2811279296875 381.02581787109375 336.14141845703125 377.6225891113281 338.2894592285156 C 372.50103759765625 342.052001953125 373.7055358886719 346.09918212890625 372.6141052246094 347.2368469238281 C 372.79296875 351.5189208984375 371.83349609375 355.3739929199219 368.66851806640625 355.7596130371094 C 369.8862609863281 356.75213623046875 370.31951904296875 364.7906799316406 368.738525390625 366.7309875488281 C 367.7853088378906 389.95672607421875 367.2936706542969 391.4062194824219 359.42913818359375 398.7872619628906 C 358.8509216308594 398.6676330566406 349.74969482421875 402.5981750488281 345.4999694824219 399.1886291503906 C 335.7575988769531 393.5760498046875 331.96844482421875 389.7457275390625 325.18243408203125 392.663330078125 C 315.2239074707031 400.88348388671875 317.4041442871094 421.7394714355469 317.4722595214844 432.2666931152344 C 318.4478454589844 438.00714111328125 319.99664306640625 447.8268737792969 317.1998291015625 451.1417236328125 C 314.4918212890625 450.60137939453125 311.65521240234375 462.2705993652344 308.6378479003906 466.39111328125 C 304.19146728515625 466.8148498535156 296.74822998046875 460.4772644042969 293.70166015625 457.0625915527344 C 287.1186218261719 446.4342346191406 288.5765686035156 435.22100830078125 288.94720458984375 422.65582275390625 C 288.2967224121094 419.5244445800781 292.0702209472656 407.06512451171875 287.3440856933594 400.4610595703125 C 279.7710266113281 394.6982727050781 279.38311767578125 390.0273132324219 271.1455993652344 386.0810852050781 C 268.82440185546875 387.3721618652344 266.0130615234375 385.37921142578125 261.7119445800781 388.46295166015625 C 254.94114685058594 395.0616455078125 252.7768096923828 403.8653869628906 252.6108856201172 413.3984069824219 C 251.1112823486328 418.6398010253906 253.1668243408203 427.309326171875 252.18399047851562 432.49090576171875 C 253.6880340576172 432.8536376953125 253.80264282226562 441.9796447753906 252.75401306152344 448.2304382324219 C 254.82376098632812 457.83306884765625 252.018310546875 466.9991455078125 245.52735900878906 474.5816955566406 C 236.80960083007812 478.7551574707031 228.0139923095703 480.334716796875 227.27188110351562 489.64056396484375 C 222.39617919921875 483.7523498535156 223.6949462890625 473.4457702636719 222.25588989257812 466.0142822265625 C 222.76446533203125 465.4254455566406 221.44747924804688 458.9656982421875 222.9061737060547 456.2395935058594 C 221.37062072753906 443.3497009277344 225.0038299560547 430.2131042480469 223.06935119628906 419.0527648925781 C 223.44119262695312 418.2049560546875 224.0011444091797 410.48150634765625 221.34129333496094 409.2719421386719 C 214.8095245361328 407.1492004394531 211.05313110351562 410.27398681640625 204.3186492919922 412.5753173828125 C 187.1875 418.80169677734375 178.6643829345703 405.888916015625 176.49900817871094 392.71728515625 C 174.28890991210938 388.085693359375 174.62051391601562 381.0909118652344 172.3809814453125 376.74737548828125 C 173.2852783203125 360.3662414550781 161.38189697265625 343.9781188964844 150.27011108398438 347.94122314453125 C 143.9380645751953 347.4445495605469 137.4783935546875 353.9584655761719 135.10926818847656 357.28643798828125 C 132.6275634765625 361.04278564453125 133.51905822753906 369.4405212402344 132.09027099609375 375.857666015625 C 136.06124877929688 389.539794921875 135.00880432128906 393.7701721191406 130.8188934326172 397.2791442871094 C 136.87393188476562 405.66253662109375 134.61044311523438 415.43426513671875 131.27557373046875 419.5119934082031 C 126.10551452636719 422.7337341308594 120.4172134399414 422.5440368652344 119.43473052978516 421.3507080078125 C 115.07913208007812 422.4530334472656 107.45848846435547 411.56951904296875 107.6485595703125 405.95086669921875 C 104.29893493652344 397.95941162109375 104.2245864868164 376.2290344238281 102.03813171386719 368.3396911621094 C 103.97747039794922 364.3797607421875 102.07670593261719 361.49383544921875 101.05521392822266 356.99090576171875 C 102.75003051757812 351.9504089355469 103.85808563232422 349.8551940917969 103.49159240722656 344.50262451171875 C 107.73112487792969 342.31756591796875 106.57290649414062 336.5103454589844 108.35415649414062 333.3656311035156 C 108.37430572509766 326.1023254394531 105.82371520996094 323.5144348144531 105.98434448242188 319.8268737792969 C 98.48234558105469 341.52325439453125 94.1484603881836 342.398681640625 86.97103881835938 344.28240966796875 C 84.65646362304688 345.2036437988281 75.5391845703125 346.0438232421875 71.81257629394531 344.4841003417969 C 66.28741455078125 334.6565246582031 66.8474349975586 327.1321716308594 68.76946258544922 314.9481506347656 C 70.99671173095703 296.01800537109375 66.00460052490234 279.6671447753906 60.2333984375 263.2790222167969 C 57.175048828125 252.29345703125 55.26824951171875 244.00791931152344 53.904884338378906 233.480712890625 C 47.28767013549805 182.43865966796875 61.69403839111328 134.4463348388672 90.76025390625 96.1749038696289 C 97.10118865966797 89.04898071289062 100.72667694091797 81.83104705810547 109.61934661865234 75.5746841430664 C 182.2216339111328 1.6584450006484985 299.4270324707031 -4.501589298248291 391.13848876953125 68.54431915283203" stroke-width="0.0" fill="url(#shape_1_fill)"/>
    <path d="M 187.15283203125 230.55271911621094 C 215.07615661621094 251.23805236816406 241.18045043945312 264.1343994140625 271.5620422363281 264.5647888183594 C 293.9930725097656 264.5902099609375 305.9266052246094 260.18048095703125 323.2705078125 253.10487365722656 C 328.5531921386719 249.19122314453125 340.6055603027344 244.74278259277344 344.3604736328125 254.54644775390625 C 345.2708740234375 271.8785400390625 296.1358947753906 304.30902099609375 252.7635955810547 294.6636047363281 C 215.37518310546875 294.8376159667969 162.99734497070312 245.75552368164062 169.07699584960938 230.55624389648438 C 170.77845764160156 223.72869873046875 181.73216247558594 222.56883239746094 187.15283203125 230.55271911621094" stroke-width="0.0" fill="url(#shape_2_fill)"/>
    <path d="M 437.0981140136719 128.3151397705078 C 436.9994812011719 138.18682861328125 444.218017578125 139.9788055419922 444.5418395996094 143.027099609375 C 449.9851989746094 157.56903076171875 453.4975891113281 167.27252197265625 456.4725341796875 182.70848083496094 C 461.4773254394531 208.69224548339844 460.92559814453125 231.48719787597656 456.3319396972656 256.0570068359375 C 455.6781311035156 258.2196350097656 451.73651123046875 276.5650329589844 450.590576171875 277.7489929199219 C 447.03240966796875 288.1333312988281 445.4460144042969 297.4609375 442.4692687988281 311.42236328125 C 437.0475158691406 333.8547668457031 436.3561096191406 351.2203063964844 436.3771057128906 371.89263916015625 C 435.0940856933594 404.9555969238281 435.220458984375 406.36163330078125 425.5331115722656 415.91595458984375 C 422.2016906738281 418.93865966796875 414.04949951171875 419.9827575683594 412.243408203125 418.9588928222656 C 421.3727722167969 398.9056091308594 421.181640625 382.6165771484375 422.01190185546875 364.3406982421875 C 425.56744384765625 345.21661376953125 424.9814453125 327.4950866699219 431.1324768066406 306.3980712890625 C 434.14324951171875 288.7126770019531 437.55120849609375 278.0341491699219 441.8133239746094 263.9381103515625 C 454.0617370605469 218.51422119140625 451.5971374511719 186.7635040283203 437.0981140136719 128.3151397705078" stroke-width="0.0" fill="url(#shape_3_fill)"/>
    <path d="M 322.38818359375 139.5814971923828 C 330.22607421875 142.47312927246094 338.5550842285156 154.90257263183594 338.8128967285156 166.74473571777344 C 340.8177490234375 194.52650451660156 319.8763427734375 210.07281494140625 299.8898010253906 202.19232177734375 C 283.86370849609375 194.70455932617188 281.4770812988281 179.2817840576172 281.4347229003906 170.71279907226562 C 281.8236999511719 157.3628387451172 285.0572509765625 150.9688262939453 292.324462890625 143.15179443359375 C 300.7886962890625 136.19635009765625 313.4271240234375 134.14073181152344 322.38818359375 139.5814971923828" stroke-width="0.0" fill="url(#shape_4_fill)"/>
    <path d="M 205.63929748535156 103.93578338623047 C 219.57992553710938 116.24990844726562 218.01589965820312 130.57101440429688 214.99288940429688 143.07534790039062 C 213.42080688476562 146.8284454345703 212.75991821289062 149.44126892089844 208.47657775878906 155.05641174316406 C 201.8526611328125 164.4384002685547 183.28594970703125 172.57455444335938 168.1804656982422 158.64739990234375 C 155.094970703125 146.6452178955078 156.01821899414062 121.63848876953125 169.2982177734375 107.44381713867188 C 171.39663696289062 104.76970672607422 173.48031616210938 104.2777099609375 176.655517578125 101.6932601928711 C 185.2880096435547 97.15290832519531 196.49363708496094 97.43856811523438 205.63929748535156 103.93578338623047" stroke-width="0.0" fill="url(#shape_5_fill)"/>
    <path d="M 385.24639892578125 335.0232849121094 C 388.90264892578125 333.5335388183594 391.9972229003906 339.63543701171875 390.8853759765625 346.7679748535156 C 384.3243408203125 351.1025695800781 381.86175537109375 364.8966979980469 381.9853820800781 370.23931884765625 C 380.5267028808594 382.57403564453125 378.9086608886719 395.3248596191406 369.2762145996094 404.5032043457031 C 363.70513916015625 409.3644104003906 355.5459899902344 412.15655517578125 348.6019592285156 411.06561279296875 C 345.4322509765625 412.6715087890625 337.3382568359375 405.6396789550781 332.70965576171875 400.6937255859375 C 327.8990173339844 410.9186706542969 329.2514953613281 420.5403747558594 328.70172119140625 428.3105773925781 C 330.67059326171875 455.8705749511719 329.62396240234375 457.0675048828125 321.1524963378906 465.5971984863281 C 319.8497314453125 467.6043701171875 307.44146728515625 470.3811340332031 305.8409423828125 463.3817443847656 C 312.6434020996094 458.43621826171875 314.86041259765625 446.44586181640625 314.99151611328125 442.860595703125 C 317.913330078125 440.6144714355469 316.4730529785156 438.0180358886719 317.38330078125 429.76190185546875 C 315.81207275390625 402.76385498046875 317.1573181152344 401.63800048828125 324.5868225097656 392.27655029296875 C 326.3477478027344 391.8951416015625 330.82110595703125 388.2802429199219 335.87274169921875 392.4646911621094 C 343.578369140625 396.917724609375 346.92340087890625 401.2980041503906 353.6621398925781 400.38555908203125 C 354.3596496582031 398.3741149902344 360.6899719238281 398.4239807128906 362.62152099609375 393.6202392578125 C 368.2225341796875 385.5895080566406 367.9419860839844 375.885986328125 368.72796630859375 365.864501953125 C 368.9414367675781 345.32513427734375 374.3499755859375 335.78155517578125 385.24639892578125 335.0232849121094" stroke-width="0.0" fill="url(#shape_6_fill)"/>
    <path d="M 161.37481689453125 349.599365234375 C 170.8688201904297 358.3485107421875 173.6722869873047 371.1996765136719 174.8273468017578 384.0463562011719 C 176.1370086669922 393.2340393066406 177.90550231933594 401.34368896484375 184.09544372558594 408.3601989746094 C 189.23556518554688 413.2865905761719 193.447021484375 414.3891906738281 201.83135986328125 413.3657531738281 C 208.98846435546875 410.17401123046875 218.5629425048828 405.1444396972656 223.1961669921875 410.46832275390625 C 225.76609802246094 419.7016296386719 224.8600616455078 422.50823974609375 218.15960693359375 421.1715087890625 C 207.52035522460938 425.27520751953125 196.739501953125 427.9094543457031 186.88787841796875 424.4656066894531 C 176.47708129882812 419.9019470214844 171.39576721191406 412.5711975097656 168.0894012451172 402.55682373046875 C 165.4743194580078 395.8419189453125 165.10336303710938 388.12176513671875 163.6649627685547 381.38311767578125 C 161.0821533203125 373.4031982421875 162.38388061523438 372.1822204589844 157.92489624023438 364.4891052246094 C 153.2110137939453 361.6754150390625 152.01223754882812 363.298583984375 145.82781982421875 362.3849792480469 C 142.2264404296875 367.6385498046875 143.21470642089844 374.3818054199219 142.99267578125 380.3858642578125 C 143.06500244140625 407.8694152832031 141.7997589111328 409.0047912597656 132.4030303955078 419.2768859863281 C 130.93011474609375 412.38580322265625 131.1251983642578 399.7684326171875 132.18199157714844 395.1022033691406 C 131.03390502929688 390.59613037109375 131.0677032470703 382.8053283691406 132.30422973632812 375.9543151855469 C 130.78253173828125 369.130859375 132.76522827148438 359.50177001953125 137.24337768554688 353.9724426269531 C 144.2406005859375 347.1180114746094 152.17404174804688 344.926513671875 161.37481689453125 349.599365234375" stroke-width="0.0" fill="url(#shape_7_fill)"/>
    <path d="M 282.6575622558594 396.3573913574219 C 286.9231262207031 397.69586181640625 288.4305114746094 401.88433837890625 289.5976257324219 404.9339904785156 C 290.6090087890625 409.3117370605469 289.7202453613281 414.3557434082031 288.5101318359375 416.2395935058594 C 286.15435791015625 437.4454040527344 287.98907470703125 439.0514221191406 292.2322692871094 456.310546875 C 287.8346862792969 459.9881286621094 288.406982421875 467.0707092285156 285.0245361328125 470.9130554199219 C 273.3418884277344 466.73480224609375 266.9346923828125 467.14105224609375 263.8731384277344 474.4246520996094 C 263.95831298828125 460.010498046875 265.3293762207031 458.5637512207031 265.2189636230469 455.94403076171875 C 264.829345703125 446.4311828613281 263.1098937988281 438.81915283203125 264.7112731933594 427.7880859375 C 260.4085998535156 407.10693359375 261.44451904296875 405.646484375 268.22882080078125 398.09722900390625 C 271.3863220214844 391.9962463378906 275.51751708984375 393.0189514160156 282.6575622558594 396.3573913574219" stroke-width="0.0" fill="url(#shape_8_fill)"/>
    <path d="M 276.1644287109375 388.2385559082031 C 281.5892639160156 390.8935546875 282.61767578125 394.45263671875 281.36865234375 395.58160400390625 C 276.2273254394531 392.6083679199219 270.1302795410156 394.68963623046875 267.3378601074219 397.70489501953125 C 257.6521911621094 407.6385498046875 264.2367248535156 428.67938232421875 263.6419372558594 440.89703369140625 C 267.785400390625 473.6553649902344 269.0172424316406 474.8767395019531 256.8407287597656 487.8653564453125 C 253.74810791015625 493.4127197265625 245.65423583984375 496.0639953613281 238.3794708251953 497.2281188964844 C 235.2667236328125 496.6030578613281 229.5581512451172 497.388916015625 225.60548400878906 487.0408935546875 C 223.3909454345703 482.1728820800781 233.07431030273438 476.9775695800781 239.77850341796875 476.2354736328125 C 247.3624267578125 473.9786682128906 252.41160583496094 461.9665832519531 252.74935913085938 451.7040100097656 C 251.32823181152344 448.2354431152344 252.6293182373047 444.6627502441406 251.42401123046875 441.3865661621094 C 252.65748596191406 436.5683288574219 250.96063232421875 435.4889221191406 251.88735961914062 428.58349609375 C 250.6832275390625 400.5141296386719 251.9912109375 399.19921875 259.6713562011719 389.9781799316406 C 262.6999816894531 385.841064453125 269.3731689453125 383.6518249511719 276.1644287109375 388.2385559082031" stroke-width="0.0" fill="url(#shape_9_fill)"/>
    <path d="M 150.75328063964844 360.916748046875 C 158.5324249267578 360.8240661621094 163.78561401367188 372.8018493652344 162.87423706054688 376.61383056640625 C 163.51803588867188 376.7334289550781 164.20462036132812 382.4923400878906 164.0691680908203 385.0461730957031 C 166.62847900390625 399.8501892089844 169.73037719726562 413.3648986816406 182.3695831298828 422.6394958496094 C 179.731201171875 428.8320007324219 173.90855407714844 426.62445068359375 168.57125854492188 428.1133728027344 C 158.66390991210938 426.2605285644531 155.5592041015625 427.7225341796875 143.2345428466797 426.237548828125 C 137.94898986816406 429.3447570800781 131.6374969482422 424.1056823730469 132.8970947265625 419.2590026855469 C 142.6373291015625 408.4804382324219 141.62937927246094 395.2127685546875 143.1538848876953 378.9984436035156 C 142.36131286621094 368.0553283691406 143.950439453125 360.46820068359375 150.75328063964844 360.916748046875" stroke-width="0.0" fill="url(#shape_10_fill)"/>
    <path d="M 391.3430480957031 346.10498046875 C 395.74810791015625 346.2150573730469 397.4139709472656 355.05096435546875 398.05517578125 357.7525634765625 C 396.6610107421875 358.4507751464844 397.9122009277344 361.2899475097656 398.3105773925781 367.986328125 C 396.2904968261719 373.2659606933594 397.6536865234375 377.6791076660156 396.89398193359375 379.2308044433594 C 395.93389892578125 385.7447509765625 396.7990417480469 390.7809143066406 395.77264404296875 391.6817626953125 C 395.1024475097656 403.6355285644531 399.357177734375 408.3551025390625 401.82196044921875 416.9368591308594 C 393.63861083984375 419.64697265625 386.178466796875 420.0539245605469 374.770751953125 419.9334411621094 C 371.1486511230469 415.7854309082031 371.49072265625 409.8558349609375 368.7416076660156 407.3205871582031 C 368.24835205078125 406.1315002441406 372.9859313964844 400.33526611328125 374.1850891113281 398.8436279296875 C 379.63983154296875 387.8515625 381.8751220703125 378.33428955078125 382.2333679199219 365.7633361816406 C 382.67645263671875 361.3675537109375 385.37396240234375 348.708740234375 391.3430480957031 346.10498046875" stroke-width="0.0" fill="url(#shape_11_fill)"/>
    <path d="M 284.1029052734375 396.5343322753906 C 288.1246032714844 398.7685546875 288.9823303222656 404.2362060546875 289.17938232421875 405.348876953125 C 290.7476501464844 409.8418273925781 289.303955078125 412.86358642578125 289.9186096191406 417.0464782714844 C 288.8752746582031 420.71185302734375 290.1376037597656 423.82391357421875 288.4764709472656 428.8094787597656 C 288.0382995605469 435.1046447753906 289.3095397949219 436.918701171875 288.96630859375 443.1971130371094 C 287.4497985839844 444.33612060546875 273.3605041503906 444.6685791015625 273.3296813964844 444.0486145019531 C 272.18011474609375 444.36346435546875 266.7340087890625 444.1274719238281 264.17218017578125 438.5867614746094 C 262.39215087890625 433.6803283691406 263.48760986328125 430.35919189453125 263.6224365234375 427.5743103027344 C 260.322021484375 406.67291259765625 261.5342102050781 405.4981994628906 269.16204833984375 397.88616943359375 C 271.3475036621094 392.79339599609375 276.34368896484375 392.7829895019531 284.1029052734375 396.5343322753906" stroke-width="0.0" fill="url(#shape_12_fill)"/>
    <path d="M 108.68748474121094 316.72772216796875 C 108.82720947265625 331.25347900390625 108.73858642578125 343.2615966796875 103.31944274902344 351.5710144042969 C 94.62020874023438 353.43951416015625 87.85734558105469 355.0707092285156 81.8372573852539 352.9952697753906 C 72.6712417602539 349.591796875 71.49187469482422 344.9136657714844 73.27076721191406 341.3726806640625 C 84.2491226196289 345.5429992675781 95.41922760009766 342.8816833496094 97.49714660644531 335.6293029785156 C 100.19568634033203 335.5322570800781 100.28917694091797 330.4938049316406 103.14083862304688 328.14288330078125 C 104.14743041992188 322.79095458984375 106.20348358154297 319.26611328125 108.68748474121094 316.72772216796875" stroke-width="0.0" fill="url(#shape_13_fill)"/>
    <path d="M 309.9508361816406 151.29115295410156 C 314.53173828125 158.4917449951172 311.59466552734375 162.46701049804688 309.080810546875 165.51451110839844 C 305.7169189453125 168.63720703125 303.2137756347656 168.730224609375 299.1190490722656 168.2977752685547 C 294.1952819824219 165.7966766357422 293.1590576171875 161.1105499267578 295.509521484375 154.4381103515625 C 299.6580505371094 149.37034606933594 304.2293701171875 148.08421325683594 309.9508361816406 151.29115295410156" stroke-width="0.0" fill="url(#shape_14_fill)"/>
    <path d="M 188.7058868408203 111.23999786376953 C 192.54283142089844 113.5708999633789 193.46426391601562 117.75761413574219 191.6298370361328 123.16294860839844 C 189.10337829589844 127.76405334472656 186.2579345703125 127.9826889038086 182.72225952148438 129.4569549560547 C 181.6591339111328 129.27127075195312 173.04286193847656 128.26736450195312 173.96546936035156 120.33214569091797 C 175.76361083984375 109.80995178222656 183.65365600585938 110.1437759399414 188.7058868408203 111.23999786376953" stroke-width="0.0" fill="url(#shape_15_fill)"/>
  </g>
</svg>
