<?xml version="1.0" ?>
<svg xmlns="http://www.w3.org/2000/svg" version="1.1" width="512" height="512">
  <defs>
    <radialGradient id="shape_0_fill" cx="0.49810799956321716" cy="0.4982861280441284" r="0.4991365969181061">
      <stop offset="0.019468104" stop-color="rgb(0, 0, 0)" stop-opacity="0.8872030973434448"/>
      <stop offset="1.0" stop-color="rgb(0, 0, 0)" stop-opacity="0.873788595199585"/>
    </radialGradient>
    <radialGradient id="shape_1_fill" cx="0.5999698638916016" cy="0.7323452234268188" r="0.23412810266017914">
      <stop offset="6.5965294e-05" stop-color="rgb(189, 153, 131)" stop-opacity="0.9782680869102478"/>
      <stop offset="1.0" stop-color="rgb(184, 149, 127)" stop-opacity="1.0"/>
    </radialGradient>
    <radialGradient id="shape_2_fill" cx="0.580078125" cy="0.216796875" r="0.11496923863887787">
      <stop offset="0.0" stop-color="rgb(182, 148, 126)" stop-opacity="1.0"/>
      <stop offset="1.0" stop-color="rgb(186, 150, 128)" stop-opacity="0.9930337071418762"/>
    </radialGradient>
    <radialGradient id="shape_3_fill" cx="0.6967135667800903" cy="0.6872846484184265" r="0.11304248869419098">
      <stop offset="0.016075013" stop-color="rgb(108, 77, 66)" stop-opacity="0.991662859916687"/>
      <stop offset="0.9527785" stop-color="rgb(117, 83, 71)" stop-opacity="0.9155007600784302"/>
    </radialGradient>
    <radialGradient id="shape_4_fill" cx="0.4388760030269623" cy="0.5662226676940918" r="0.11614775657653809">
      <stop offset="0.0" stop-color="rgb(155, 119, 101)" stop-opacity="0.999661922454834"/>
      <stop offset="0.78684" stop-color="rgb(157, 120, 102)" stop-opacity="0.9890154600143433"/>
    </radialGradient>
    <radialGradient id="shape_5_fill" cx="0.7578125" cy="0.53515625" r="0.1630420684814453">
      <stop offset="0.0" stop-color="rgb(155, 119, 101)" stop-opacity="1.0"/>
      <stop offset="1.0" stop-color="rgb(159, 122, 103)" stop-opacity="0.979548454284668"/>
    </radialGradient>
    <radialGradient id="shape_6_fill" cx="0.60546875" cy="0.375" r="0.10551214218139648">
      <stop offset="0.0" stop-color="rgb(83, 54, 42)" stop-opacity="1.0"/>
      <stop offset="1.0" stop-color="rgb(83, 54, 43)" stop-opacity="0.9773706197738647"/>
    </radialGradient>
    <radialGradient id="shape_7_fill" cx="0.77734375" cy="0.28125" r="0.11048543453216553">
      <stop offset="0.0" stop-color="rgb(184, 149, 127)" stop-opacity="1.0"/>
      <stop offset="1.0" stop-color="rgb(184, 149, 127)" stop-opacity="1.0"/>
    </radialGradient>
    <radialGradient id="shape_8_fill" cx="0.5797762274742126" cy="0.49003493785858154" r="0.10039694607257843">
      <stop offset="0.0" stop-color="rgb(117, 84, 72)" stop-opacity="0.9415345788002014"/>
      <stop offset="0.9693957" stop-color="rgb(106, 75, 64)" stop-opacity="1.0"/>
    </radialGradient>
    <radialGradient id="shape_9_fill" cx="0.77734375" cy="0.154296875" r="0.10000000149011612">
      <stop offset="0.0" stop-color="rgb(184, 149, 127)" stop-opacity="1.0"/>
      <stop offset="1.0" stop-color="rgb(186, 150, 128)" stop-opacity="0.9920592904090881"/>
    </radialGradient>
    <radialGradient id="shape_10_fill" cx="0.30859375" cy="0.109375" r="0.11981430649757385">
      <stop offset="0.0" stop-color="rgb(185, 149, 124)" stop-opacity="1.0"/>
      <stop offset="1.0" stop-color="rgb(188, 151, 126)" stop-opacity="0.98470538854599"/>
    </radialGradient>
    <radialGradient id="shape_11_fill" cx="0.560546875" cy="0.734375" r="0.10000000149011612">
      <stop offset="0.0" stop-color="rgb(0, 0, 0)" stop-opacity="1.0"/>
      <stop offset="1.0" stop-color="rgb(0, 0, 0)" stop-opacity="0.958073616027832"/>
    </radialGradient>
    <radialGradient id="shape_12_fill" cx="0.4902658462524414" cy="0.5917613506317139" r="0.10001756250858307">
      <stop offset="0.12347302" stop-color="rgb(0, 0, 0)" stop-opacity="0.993595540523529"/>
      <stop offset="0.9938051" stop-color="rgb(0, 0, 0)" stop-opacity="0.9411793947219849"/>
    </radialGradient>
    <radialGradient id="shape_13_fill" cx="0.58203125" cy="0.228515625" r="0.10000000149011612">
      <stop offset="0.0" stop-color="rgb(3, 3, 1)" stop-opacity="1.0"/>
      <stop offset="1.0" stop-color="rgb(2, 2, 0)" stop-opacity="0.9986570477485657"/>
    </radialGradient>
    <radialGradient id="shape_14_fill" cx="0.322265625" cy="0.2109375" r="0.11481983214616776">
      <stop offset="0.0" stop-color="rgb(185, 149, 124)" stop-opacity="1.0"/>
      <stop offset="1.0" stop-color="rgb(186, 150, 125)" stop-opacity="0.9897133111953735"/>
    </radialGradient>
    <radialGradient id="shape_15_fill" cx="0.74609375" cy="0.453125" r="0.10000000149011612">
      <stop offset="0.0" stop-color="rgb(108, 77, 66)" stop-opacity="1.0"/>
      <stop offset="1.0" stop-color="rgb(111, 79, 68)" stop-opacity="0.9655758738517761"/>
    </radialGradient>
    <radialGradient id="shape_16_fill" cx="0.634765625" cy="0.892578125" r="0.10000000149011612">
      <stop offset="0.0" stop-color="rgb(107, 76, 65)" stop-opacity="1.0"/>
      <stop offset="1.0" stop-color="rgb(110, 78, 67)" stop-opacity="0.9764562845230103"/>
    </radialGradient>
    <radialGradient id="shape_17_fill" cx="0.888671875" cy="0.1640625" r="0.10000000149011612">
      <stop offset="0.0" stop-color="rgb(185, 150, 128)" stop-opacity="1.0"/>
      <stop offset="1.0" stop-color="rgb(185, 150, 128)" stop-opacity="0.9973600506782532"/>
    </radialGradient>
    <radialGradient id="shape_18_fill" cx="0.71875" cy="0.46875" r="0.10000000149011612">
      <stop offset="0.0" stop-color="rgb(183, 148, 126)" stop-opacity="1.0"/>
      <stop offset="1.0" stop-color="rgb(184, 149, 127)" stop-opacity="1.0"/>
    </radialGradient>
    <radialGradient id="shape_19_fill" cx="0.71875" cy="0.466796875" r="0.10000000149011612">
      <stop offset="0.0" stop-color="rgb(184, 149, 127)" stop-opacity="1.0"/>
      <stop offset="1.0" stop-color="rgb(184, 149, 127)" stop-opacity="0.6788174510002136"/>
    </radialGradient>
    <radialGradient id="shape_20_fill" cx="0.552734375" cy="0.35546875" r="0.10000000149011612">
      <stop offset="0.0" stop-color="rgb(131, 92, 81)" stop-opacity="1.0"/>
      <stop offset="1.0" stop-color="rgb(132, 93, 81)" stop-opacity="1.0"/>
    </radialGradient>
    <radialGradient id="shape_21_fill" cx="0.705078125" cy="0.205078125" r="0.10000000149011612">
      <stop offset="0.0" stop-color="rgb(155, 119, 101)" stop-opacity="1.0"/>
      <stop offset="1.0" stop-color="rgb(185, 143, 122)" stop-opacity="0.5596364140510559"/>
    </radialGradient>
    <radialGradient id="shape_22_fill" cx="0.673828125" cy="0.271484375" r="0.10000000149011612">
      <stop offset="0.0" stop-color="rgb(166, 132, 112)" stop-opacity="1.0"/>
      <stop offset="1.0" stop-color="rgb(186, 146, 125)" stop-opacity="0.5355158448219299"/>
    </radialGradient>
    <radialGradient id="shape_23_fill" cx="0.51171875" cy="0.3828125" r="0.10000000149011612">
      <stop offset="0.0" stop-color="rgb(24, 16, 12)" stop-opacity="1.0"/>
      <stop offset="1.0" stop-color="rgb(37, 21, 13)" stop-opacity="0.4514066278934479"/>
    </radialGradient>
    <radialGradient id="shape_24_fill" cx="0.564453125" cy="0.107421875" r="0.10000000149011612">
      <stop offset="0.0" stop-color="rgb(3, 0, 0)" stop-opacity="1.0"/>
      <stop offset="1.0" stop-color="rgb(3, 0, 0)" stop-opacity="0.8915771245956421"/>
    </radialGradient>
    <radialGradient id="shape_25_fill" cx="0.435546875" cy="0.80859375" r="0.10000000149011612">
      <stop offset="0.0" stop-color="rgb(199, 113, 88)" stop-opacity="1.0"/>
      <stop offset="1.0" stop-color="rgb(213, 121, 93)" stop-opacity="0.9857698678970337"/>
    </radialGradient>
    <radialGradient id="shape_26_fill" cx="0.580078125" cy="0.681640625" r="0.10000000149011612">
      <stop offset="0.0" stop-color="rgb(155, 119, 101)" stop-opacity="1.0"/>
      <stop offset="1.0" stop-color="rgb(158, 122, 103)" stop-opacity="0.9766665697097778"/>
    </radialGradient>
    <radialGradient id="shape_27_fill" cx="0.470703125" cy="0.81640625" r="0.10000000149011612">
      <stop offset="0.0" stop-color="rgb(199, 113, 88)" stop-opacity="1.0"/>
      <stop offset="1.0" stop-color="rgb(213, 120, 93)" stop-opacity="0.9849627017974854"/>
    </radialGradient>
    <radialGradient id="shape_28_fill" cx="0.353515625" cy="0.66015625" r="0.10000000149011612">
      <stop offset="0.0" stop-color="rgb(201, 114, 88)" stop-opacity="1.0"/>
      <stop offset="1.0" stop-color="rgb(214, 120, 93)" stop-opacity="0.9754994511604309"/>
    </radialGradient>
    <radialGradient id="shape_29_fill" cx="0.55434650182724" cy="0.5674739480018616" r="0.09987017512321472">
      <stop offset="0.0" stop-color="rgb(72, 43, 32)" stop-opacity="0.636368989944458"/>
      <stop offset="0.6759705" stop-color="rgb(48, 25, 15)" stop-opacity="0.5146895051002502"/>
    </radialGradient>
    <radialGradient id="shape_30_fill" cx="0.705078125" cy="0.265625" r="0.10000000149011612">
      <stop offset="0.0" stop-color="rgb(107, 76, 65)" stop-opacity="1.0"/>
      <stop offset="1.0" stop-color="rgb(110, 79, 67)" stop-opacity="0.966544508934021"/>
    </radialGradient>
    <radialGradient id="shape_31_fill" cx="0.40234375" cy="0.796875" r="0.10000000149011612">
      <stop offset="0.0" stop-color="rgb(211, 120, 93)" stop-opacity="1.0"/>
      <stop offset="1.0" stop-color="rgb(214, 121, 94)" stop-opacity="0.976468563079834"/>
    </radialGradient>
    <radialGradient id="shape_32_fill" cx="0.322265625" cy="0.642578125" r="0.10000000149011612">
      <stop offset="0.0" stop-color="rgb(203, 116, 90)" stop-opacity="1.0"/>
      <stop offset="1.0" stop-color="rgb(208, 118, 92)" stop-opacity="1.0"/>
    </radialGradient>
    <radialGradient id="shape_33_fill" cx="0.38671875" cy="0.669921875" r="0.10000000149011612">
      <stop offset="0.0" stop-color="rgb(206, 117, 90)" stop-opacity="1.0"/>
      <stop offset="1.0" stop-color="rgb(215, 121, 94)" stop-opacity="0.9835339188575745"/>
    </radialGradient>
    <radialGradient id="shape_34_fill" cx="0.70703125" cy="0.365234375" r="0.10000000149011612">
      <stop offset="0.0" stop-color="rgb(184, 149, 127)" stop-opacity="1.0"/>
      <stop offset="1.0" stop-color="rgb(156, 120, 102)" stop-opacity="0.8849843740463257"/>
    </radialGradient>
    <radialGradient id="shape_35_fill" cx="0.587890625" cy="0.685546875" r="0.10000000149011612">
      <stop offset="0.0" stop-color="rgb(156, 119, 101)" stop-opacity="1.0"/>
      <stop offset="1.0" stop-color="rgb(156, 120, 102)" stop-opacity="0.6086317896842957"/>
    </radialGradient>
  </defs>
  <g>
    <path d="M 0.0007979779620654881 0.6004827618598938 C 168.9600372314453 -0.6004495620727539 337.9200134277344 -0.6004547476768494 511.3995361328125 0.6004812717437744 C 512.6002197265625 168.9600067138672 512.6002807617188 337.9200134277344 511.3995361328125 511.3995361328125 C 343.0400085449219 512.6002197265625 174.0800018310547 512.6002807617188 0.6004801988601685 511.3995361328125 C -0.6004525423049927 343.0400085449219 -0.600462794303894 174.0800018310547 0.0007979779620654881 0.6004827618598938" stroke-width="0.0" fill="url(#shape_0_fill)"/>
    <path d="M 401.49383544921875 202.44915771484375 C 400.0908203125 207.1859588623047 405.08441162109375 208.79202270507812 404.7931823730469 210.45101928710938 C 405.38433837890625 213.62966918945312 405.105224609375 224.3030548095703 410.9899597167969 226.11578369140625 C 407.4169006347656 228.4288787841797 411.0666809082031 236.43922424316406 410.9839782714844 239.1623077392578 C 411.9155578613281 243.76983642578125 413.7372131347656 246.73025512695312 414.8341064453125 254.5464630126953 C 416.7491149902344 259.5139465332031 417.9455261230469 267.9994201660156 420.05889892578125 274.9541320800781 C 421.097900390625 279.1962890625 424.0904846191406 289.90374755859375 423.5799865722656 291.3308410644531 C 426.30511474609375 297.8569030761719 427.8237609863281 306.9173278808594 429.57415771484375 315.6782531738281 C 431.5967102050781 317.6659240722656 431.961181640625 327.33599853515625 433.04437255859375 328.1917724609375 C 435.5747375488281 331.942626953125 435.9259948730469 339.65380859375 438.19171142578125 343.3534851074219 C 436.7566223144531 345.5672302246094 439.74041748046875 353.9510498046875 440.2370910644531 359.36187744140625 C 443.46612548828125 368.72027587890625 444.0040283203125 376.8755187988281 446.9008483886719 385.8471374511719 C 449.2211608886719 397.0785217285156 451.4988098144531 403.5841369628906 451.1383972167969 404.6220397949219 C 452.3397216796875 407.20263671875 452.3995361328125 410.171142578125 453.80377197265625 415.0907897949219 C 461.4836730957031 415.4876403808594 466.5611572265625 417.2837219238281 471.25775146484375 418.4732360839844 C 479.8646240234375 420.5230712890625 488.7232666015625 424.81414794921875 493.44439697265625 431.6734313964844 C 496.7022399902344 438.4034423828125 496.0920104980469 442.14111328125 492.73883056640625 444.5950927734375 C 487.07171630859375 445.77978515625 484.4020080566406 444.9012145996094 475.2030029296875 441.61187744140625 C 468.1802062988281 438.8075866699219 463.0523376464844 438.5310974121094 456.5402526855469 437.70001220703125 C 449.40301513671875 437.4411315917969 442.69476318359375 437.1877746582031 440.1892395019531 434.1670837402344 C 437.00457763671875 430.8084716796875 435.59405517578125 422.7926330566406 432.3085632324219 414.7862854003906 C 428.5793762207031 402.7105712890625 425.7254333496094 392.49017333984375 422.08087158203125 380.85986328125 C 418.7931213378906 368.0830383300781 414.1885681152344 356.3953857421875 410.5469055175781 343.3917236328125 C 406.8768615722656 337.2679443359375 407.7391357421875 334.5276184082031 406.6505126953125 331.7169494628906 C 404.80804443359375 323.2026062011719 400.98394775390625 316.6630554199219 399.49029541015625 309.6481628417969 C 397.99609375 308.71527099609375 397.9208679199219 303.9993896484375 394.94873046875 300.03985595703125 C 382.4742126464844 261.6442565917969 383.7033386230469 260.4622802734375 383.1016540527344 246.5828857421875 C 379.7362365722656 246.19334411621094 375.95526123046875 255.56332397460938 372.45452880859375 259.114013671875 C 364.3515930175781 268.2210998535156 362.3038024902344 272.62847900390625 357.3646240234375 279.17242431640625 C 356.5863952636719 282.527099609375 350.41326904296875 290.9595947265625 345.43048095703125 294.935546875 C 340.0467834472656 302.3168640136719 338.60516357421875 306.0081481933594 337.4983215332031 306.25958251953125 C 334.96490478515625 308.1368408203125 334.44171142578125 312.0518493652344 329.16107177734375 316.4532775878906 C 326.7408447265625 318.5240478515625 326.4373779296875 321.88922119140625 324.5190734863281 324.7850646972656 C 320.2868957519531 324.6314697265625 315.8614501953125 333.3085021972656 312.63970947265625 335.7716369628906 C 295.21240234375 352.7391662597656 290.3633728027344 358.9613952636719 284.27960205078125 361.0790100097656 C 280.82513427734375 358.1740417480469 282.3027038574219 354.059326171875 278.5195617675781 349.9042663574219 C 272.89422607421875 334.7325134277344 270.2344665527344 333.4806213378906 254.630126953125 322.5468444824219 C 257.16058349609375 319.6275939941406 263.07647705078125 318.8125915527344 268.3121032714844 313.1887512207031 C 273.9989013671875 309.1156005859375 277.9153747558594 305.3296203613281 282.7776794433594 301.55902099609375 C 287.8839111328125 297.4316711425781 288.3408508300781 293.512939453125 292.1091003417969 292.85723876953125 C 294.8594665527344 290.5972900390625 299.7916564941406 285.1902770996094 301.67266845703125 284.00396728515625 C 304.79779052734375 278.4254455566406 307.759033203125 277.57598876953125 309.2905578613281 275.9295349121094 C 311.5038146972656 274.31005859375 312.93658447265625 271.01556396484375 315.9963684082031 268.26373291015625 C 319.47637939453125 263.5964660644531 323.5967102050781 263.4693908691406 323.7567443847656 260.6729431152344 C 329.0685729980469 250.11187744140625 331.7152404785156 249.12974548339844 337.5436096191406 245.09059143066406 C 340.6278381347656 245.3391876220703 350.45562744140625 231.69883728027344 358.4947814941406 226.5657196044922 C 385.7386169433594 196.94381713867188 386.8680114746094 197.52749633789062 401.49383544921875 202.44915771484375" stroke-width="0.0" fill="url(#shape_1_fill)"/>
    <path d="M 149.37033081054688 247.25418090820312 C 186.7607879638672 285.5705261230469 154.31387329101562 366.9798278808594 114.68602752685547 365.49072265625 C 71.07274627685547 373.6109313964844 41.39498519897461 295.74432373046875 71.29171752929688 251.5963592529297 C 89.71151733398438 229.87648010253906 129.7974853515625 226.89266967773438 149.37033081054688 247.25418090820312" stroke-width="0.0" fill="url(#shape_2_fill)"/>
    <path d="M 339.8052978515625 302.72869873046875 C 358.88507080078125 306.4277038574219 384.7735900878906 310.57000732421875 403.95025634765625 323.3677673339844 C 406.7621154785156 329.8294677734375 406.48876953125 331.2008361816406 406.9865417480469 333.362548828125 C 409.8671569824219 338.0079345703125 410.6901550292969 345.0971374511719 411.8523254394531 348.7795104980469 C 414.5817565917969 356.94097900390625 420.30535888671875 365.5099182128906 413.9264831542969 369.8719787597656 C 405.4745788574219 390.7077941894531 349.6794738769531 406.607177734375 331.4466857910156 404.2317810058594 C 331.0560607910156 405.7030944824219 321.68621826171875 404.4224548339844 317.399169921875 405.3874816894531 C 315.5211486816406 404.2298583984375 310.4682312011719 404.4974060058594 304.15045166015625 403.7264404296875 C 301.34588623046875 399.557861328125 302.5229187011719 397.2175598144531 299.1390380859375 393.99017333984375 C 296.0958251953125 383.5789489746094 293.4345397949219 382.00732421875 292.7557678222656 380.3558044433594 C 287.7803039550781 366.3183288574219 286.08819580078125 365.664306640625 285.17132568359375 361.4269104003906 C 289.7834777832031 355.3486328125 292.3755187988281 355.41583251953125 294.3605041503906 353.05169677734375 C 298.14263916015625 350.34283447265625 299.91619873046875 346.2309875488281 304.3793029785156 344.33209228515625 C 312.719482421875 335.1043701171875 317.65936279296875 328.7651672363281 318.3138732910156 328.7294006347656 C 325.92071533203125 320.6789245605469 332.37335205078125 311.678955078125 339.8052978515625 302.72869873046875" stroke-width="0.0" fill="url(#shape_3_fill)"/>
    <path d="M 322.5429382324219 166.49827575683594 C 324.0981750488281 170.95016479492188 330.61224365234375 173.51304626464844 330.6015930175781 176.195068359375 C 331.942138671875 180.21817016601562 329.7342529296875 183.18673706054688 331.9292907714844 185.39089965820312 C 336.182373046875 188.71937561035156 334.693115234375 199.94215393066406 336.3230895996094 201.5374298095703 C 338.4396667480469 202.44216918945312 339.9786682128906 218.4547576904297 342.1075439453125 221.9864044189453 C 342.543212890625 228.23699951171875 344.4354553222656 230.6651153564453 344.74346923828125 237.84678649902344 C 345.4244079589844 240.00460815429688 341.56719970703125 243.71080017089844 338.3719787597656 244.7904510498047 C 336.8890380859375 248.86277770996094 335.3532409667969 250.6841278076172 330.3061828613281 252.5960235595703 C 325.46478271484375 263.35113525390625 320.97381591796875 263.15869140625 319.6546325683594 252.63485717773438 C 320.3806457519531 247.72117614746094 319.76165771484375 245.0543975830078 317.4572448730469 242.99600219726562 C 315.780029296875 232.43585205078125 316.24566650390625 220.46493530273438 313.98028564453125 209.95880126953125 C 309.53955078125 211.12962341308594 309.8493957519531 215.82693481445312 306.53948974609375 222.02886962890625 C 301.1319274902344 228.6185302734375 297.4269104003906 235.61521911621094 294.5318908691406 244.1396484375 C 289.2655334472656 251.7566375732422 284.6149597167969 257.7370300292969 279.7308654785156 268.484375 C 275.1293029785156 277.75244140625 267.1505432128906 276.8099365234375 263.6566162109375 276.4441223144531 C 258.6601867675781 275.3406066894531 256.9223937988281 277.22509765625 252.5019073486328 277.75994873046875 C 248.72396850585938 276.6993103027344 247.04969787597656 278.4331970214844 243.14190673828125 277.41204833984375 C 240.89266967773438 278.7506103515625 230.87071228027344 279.21893310546875 230.0835418701172 280.87713623046875 C 227.77989196777344 282.306396484375 222.41590881347656 282.5890197753906 217.19105529785156 284.1790771484375 C 220.48602294921875 277.88714599609375 223.6571044921875 274.87628173828125 224.6761474609375 272.21368408203125 C 229.0830535888672 267.2320251464844 231.28610229492188 262.4301452636719 234.31358337402344 258.53173828125 C 235.22976684570312 258.3896789550781 237.73179626464844 252.29527282714844 241.41372680664062 248.2141571044922 C 248.70677185058594 236.79739379882812 264.1265869140625 217.11630249023438 272.1665954589844 206.6297149658203 C 276.78656005859375 202.04443359375 279.6455383300781 195.72750854492188 283.93194580078125 193.32530212402344 C 303.5770263671875 164.02081298828125 304.9129333496094 164.74913024902344 322.5429382324219 166.49827575683594" stroke-width="0.0" fill="url(#shape_4_fill)"/>
    <path d="M 264.88409423828125 326.66162109375 C 270.5057678222656 331.18365478515625 276.09124755859375 343.29534912109375 279.4752502441406 349.754638671875 C 288.9482727050781 368.5050964355469 297.3731384277344 386.2462463378906 305.797607421875 405.2779235839844 C 313.58526611328125 419.3410339355469 313.67535400390625 423.287109375 316.38848876953125 426.4926452636719 C 318.9014892578125 429.2960510253906 317.9547424316406 432.1547546386719 320.7964782714844 435.97369384765625 C 322.72991943359375 440.2008972167969 322.7032775878906 442.8880920410156 330.3049011230469 445.3750305175781 C 343.6184387207031 448.09576416015625 359.5608215332031 457.387451171875 363.4643859863281 468.8548583984375 C 365.57855224609375 474.8990783691406 360.732177734375 479.96600341796875 354.8701171875 479.56207275390625 C 352.1995544433594 480.2377624511719 342.53424072265625 474.1252746582031 342.3988037109375 473.7538757324219 C 336.5960998535156 469.2179870605469 328.844970703125 466.98114013671875 319.50341796875 463.32904052734375 C 305.20123291015625 460.2685241699219 299.20556640625 434.9600830078125 288.8054504394531 420.564453125 C 286.7574462890625 414.9073486328125 283.001220703125 411.1728820800781 281.5868225097656 404.85198974609375 C 277.2112121582031 400.57806396484375 276.6792297363281 395.5318908691406 275.1827087402344 393.62750244140625 C 269.1865234375 386.56707763671875 265.31500244140625 378.2935791015625 259.1436767578125 370.4764709472656 C 256.21685791015625 363.92169189453125 252.78665161132812 354.1241760253906 247.6985321044922 354.2745666503906 C 245.71495056152344 353.18145751953125 236.344970703125 356.3730773925781 229.85598754882812 360.8433532714844 C 215.293701171875 367.3800354003906 205.49595642089844 369.28338623046875 193.0840606689453 369.4618225097656 C 188.86105346679688 370.3710021972656 181.2174835205078 368.4166259765625 180.4867401123047 362.21600341796875 C 183.13729858398438 354.20587158203125 192.8681640625 350.3872985839844 203.9255828857422 339.0697937011719 C 213.7786865234375 326.9681701660156 252.71920776367188 318.9786376953125 264.88409423828125 326.66162109375" stroke-width="0.0" fill="url(#shape_5_fill)"/>
    <path d="M 158.82424926757812 259.9830322265625 C 167.318359375 259.2924499511719 170.71844482421875 260.13934326171875 179.67739868164062 261.2840576171875 C 178.1173095703125 268.08367919921875 174.84762573242188 271.0523986816406 174.0906219482422 277.2929382324219 C 177.10037231445312 278.5810546875 176.7061004638672 288.36981201171875 173.0271453857422 294.5022277832031 C 175.25863647460938 300.4745788574219 181.20419311523438 301.0387878417969 182.5690460205078 302.0301513671875 C 188.5924530029297 300.0467224121094 189.21835327148438 296.1812438964844 193.28756713867188 293.9391174316406 C 196.21066284179688 285.9432678222656 193.15158081054688 281.1468200683594 191.8168487548828 270.9132385253906 C 192.6041259765625 265.0644226074219 196.1501922607422 264.7426452636719 207.546142578125 273.38055419921875 C 216.6557159423828 279.159912109375 221.96533203125 288.6230163574219 222.4989776611328 292.82257080078125 C 220.97720336914062 305.2302551269531 218.8936309814453 315.72381591796875 216.09579467773438 323.2803955078125 C 233.80662536621094 325.51434326171875 247.12294006347656 318.3996276855469 266.31866455078125 311.2489013671875 C 267.0461730957031 315.6700744628906 260.3731384277344 320.3735046386719 258.6853332519531 321.1982727050781 C 254.62274169921875 325.4675598144531 253.24441528320312 325.93218994140625 243.45297241210938 326.60565185546875 C 242.19161987304688 327.1509704589844 225.79237365722656 329.0599060058594 221.23345947265625 331.3089904785156 C 209.81689453125 331.38507080078125 203.90380859375 339.1817626953125 200.6280517578125 341.9930419921875 C 199.4202880859375 345.38299560546875 186.4807586669922 353.7208557128906 184.20555114746094 356.4576110839844 C 182.31979370117188 355.2042236328125 181.9993133544922 348.6694641113281 180.0819854736328 343.9924621582031 C 168.17691040039062 338.41845703125 161.09547424316406 342.64697265625 154.20814514160156 348.6455383300781 C 148.99073791503906 344.7661437988281 150.0933837890625 341.91363525390625 155.1048583984375 334.834228515625 C 159.68389892578125 324.4152526855469 162.294189453125 319.25030517578125 164.40914916992188 307.5895080566406 C 167.93016052246094 289.1780090332031 165.22291564941406 275.3160705566406 158.82424926757812 259.9830322265625" stroke-width="0.0" fill="url(#shape_6_fill)"/>
    <path d="M 178.0436248779297 341.4214172363281 C 189.07272338867188 346.9238586425781 181.66033935546875 362.9417419433594 178.92593383789062 368.52532958984375 C 176.48985290527344 372.81982421875 174.70669555664062 376.9556884765625 170.12452697753906 384.6314392089844 C 163.15692138671875 398.2776184082031 156.69561767578125 406.7283630371094 148.92010498046875 421.7442932128906 C 124.52479553222656 458.8248596191406 119.83197021484375 463.59967041015625 111.24532318115234 465.44598388671875 C 104.57482147216797 466.1021423339844 102.224609375 460.9230651855469 102.615234375 451.12237548828125 C 106.82815551757812 444.911376953125 110.70115661621094 440.1019287109375 110.97457122802734 438.0821228027344 C 119.23554229736328 425.6451721191406 124.36804962158203 411.0810852050781 130.8609619140625 398.3258972167969 C 138.1189422607422 377.2683410644531 139.4231414794922 379.1095886230469 144.46231079101562 367.4594421386719 C 150.1936798095703 355.2064514160156 153.76968383789062 344.4369812011719 164.36410522460938 340.2889709472656 C 168.4127197265625 338.8519287109375 173.82720947265625 339.12396240234375 178.0436248779297 341.4214172363281" stroke-width="0.0" fill="url(#shape_7_fill)"/>
    <path d="M 299.8505859375 274.1490173339844 C 298.7738037109375 278.8389892578125 296.5284729003906 281.4891662597656 294.47808837890625 287.6659851074219 C 290.5740051269531 295.488525390625 283.97503662109375 301.313720703125 276.46240234375 305.8158874511719 C 274.6141662597656 308.71148681640625 270.4594421386719 309.74432373046875 269.1701965332031 313.4752502441406 C 264.2778015136719 314.81988525390625 262.9793701171875 318.13153076171875 257.6180114746094 319.7902526855469 C 250.6453857421875 316.2501525878906 245.2352294921875 321.35552978515625 238.51873779296875 323.0700378417969 C 225.34503173828125 325.5796813964844 219.69134521484375 325.9491271972656 214.24671936035156 326.523193359375 C 215.48866271972656 319.35247802734375 217.20433044433594 317.30145263671875 217.38877868652344 312.3532409667969 C 220.05381774902344 303.1096496582031 218.4164276123047 293.7611083984375 218.76837158203125 282.6950988769531 C 245.32579040527344 275.8814697265625 276.3160095214844 273.2682800292969 299.8505859375 274.1490173339844" stroke-width="0.0" fill="url(#shape_8_fill)"/>
    <path d="M 97.85009002685547 366.62274169921875 C 110.1189956665039 373.02801513671875 116.0701904296875 371.4235534667969 120.0157699584961 371.1897888183594 C 118.0381088256836 375.64410400390625 115.3156967163086 378.0025939941406 112.67364501953125 382.82525634765625 C 106.97480010986328 390.2293701171875 107.54367065429688 391.8024597167969 103.57504272460938 396.1643981933594 C 97.87154388427734 405.96221923828125 90.32770538330078 414.90423583984375 80.78733825683594 419.13641357421875 C 79.78782653808594 419.708740234375 71.51531982421875 420.17962646484375 64.0671157836914 420.0574645996094 C 51.35209274291992 419.3435974121094 39.80208969116211 419.39068603515625 36.5886116027832 414.1888732910156 C 34.29481887817383 406.66302490234375 41.94327926635742 400.3998718261719 47.05980682373047 399.8027038574219 C 55.4659538269043 397.76171875 63.170860290527344 400.4087219238281 71.16604614257812 404.5880126953125 C 74.16156005859375 400.6456604003906 78.1998519897461 396.4816589355469 79.22601318359375 393.65863037109375 C 81.23847961425781 392.3697204589844 80.49462890625 390.4718933105469 84.02996826171875 387.4927978515625 C 86.29389953613281 384.7292175292969 87.22058868408203 380.5443420410156 89.98497009277344 378.7926330566406 C 92.75952911376953 373.0503845214844 97.8421630859375 367.2250061035156 97.85009002685547 366.62274169921875" stroke-width="0.0" fill="url(#shape_9_fill)"/>
    <path d="M 4.278834342956543 88.54971313476562 C 9.602391242980957 85.46842956542969 14.271172523498535 93.18705749511719 18.377771377563477 97.35433197021484 C 23.948822021484375 103.3724136352539 30.74125862121582 111.61602020263672 35.794734954833984 117.5527572631836 C 63.54838562011719 151.66990661621094 83.62017822265625 187.2275848388672 100.74395751953125 227.57012939453125 C 104.92446899414062 238.55780029296875 96.7531509399414 241.77716064453125 93.29827880859375 233.20480346679688 C 76.78257751464844 192.6141815185547 54.29323196411133 153.47979736328125 26.25735092163086 119.98676300048828 C 25.05318832397461 118.17111206054688 22.158477783203125 116.13055419921875 19.14960479736328 111.2747573852539 C 16.19985008239746 108.60409545898438 13.821928977966309 105.27718353271484 10.812688827514648 102.32372283935547 C 4.936596393585205 96.3916015625 0.7757081985473633 93.16205596923828 4.278834342956543 88.54971313476562" stroke-width="0.0" fill="url(#shape_10_fill)"/>
    <path d="M 381.4264221191406 247.7416534423828 C 385.40240478515625 249.53529357910156 385.20172119140625 265.0494384765625 386.7100830078125 266.5894470214844 C 387.6524353027344 273.6578369140625 391.3173522949219 281.1285705566406 393.2522277832031 290.1468200683594 C 395.7048645019531 294.4721374511719 394.3837585449219 296.3843688964844 397.9785461425781 302.9522399902344 C 398.812744140625 309.69384765625 401.3042297363281 311.7304382324219 402.847900390625 320.0032958984375 C 400.08404541015625 319.9254455566406 396.0793151855469 320.1248779296875 390.0382080078125 314.6163330078125 C 381.1796875 311.3245849609375 373.68505859375 310.5582275390625 366.8804016113281 307.6972961425781 C 357.19512939453125 306.7150573730469 355.6971435546875 303.2884826660156 352.434814453125 301.67547607421875 C 351.86370849609375 293.17913818359375 351.84930419921875 285.1684265136719 355.9658203125 281.1422424316406 C 358.3282165527344 277.4537353515625 361.7964782714844 274.75128173828125 363.2754821777344 270.8758239746094 C 366.5394287109375 268.4959411621094 367.45501708984375 263.932861328125 370.1089782714844 260.99359130859375 C 373.3313903808594 257.037109375 375.6317443847656 252.4600372314453 381.4264221191406 247.7416534423828" stroke-width="0.0" fill="url(#shape_11_fill)"/>
    <path d="M 310.5328674316406 212.3568572998047 C 314.8011474609375 214.06161499023438 315.64288330078125 224.3867950439453 316.1482238769531 225.6761474609375 C 317.16461181640625 232.20655822753906 317.3365478515625 236.16152954101562 320.2933349609375 247.6739959716797 C 322.8411560058594 259.0926208496094 324.0167541503906 261.83038330078125 321.4577941894531 262.91131591796875 C 318.3670654296875 268.8249206542969 313.84979248046875 270.1009216308594 312.1454162597656 273.5751037597656 C 309.3117980957031 275.5384216308594 306.507080078125 280.3319396972656 298.6103210449219 285.654052734375 C 297.2372131347656 275.5625915527344 297.6829528808594 274.0140380859375 299.18182373046875 272.09674072265625 C 291.9283142089844 272.674072265625 284.1907653808594 273.9632873535156 277.1026916503906 272.0829162597656 C 279.2252197265625 266.5699462890625 282.1522521972656 265.287353515625 282.524169921875 262.0480651855469 C 285.91241455078125 260.45172119140625 288.53607177734375 251.4727020263672 291.0722961425781 247.8828125 C 292.73126220703125 244.16668701171875 296.94091796875 237.2761688232422 297.33453369140625 235.49363708496094 C 299.63885498046875 232.82278442382812 302.2718811035156 224.37120056152344 310.5328674316406 212.3568572998047" stroke-width="0.0" fill="url(#shape_12_fill)"/>
    <path d="M 126.12518310546875 277.6816711425781 C 131.36325073242188 279.8935546875 136.671630859375 286.1100769042969 137.05027770996094 295.4147033691406 C 138.0219268798828 313.68963623046875 117.51692199707031 331.41876220703125 103.73136901855469 315.6795349121094 C 90.89195251464844 297.75164794921875 102.73796081542969 270.7590637207031 126.12518310546875 277.6816711425781" stroke-width="0.0" fill="url(#shape_13_fill)"/>
    <path d="M 90.8100814819336 99.75599670410156 C 96.30326080322266 99.22309112548828 96.95814514160156 104.2730941772461 98.98320007324219 110.4946060180664 C 112.65878295898438 147.4502410888672 122.92342376708984 196.5867919921875 125.55342864990234 237.7796173095703 C 120.56001281738281 236.67373657226562 115.85548400878906 235.2294158935547 116.43894958496094 229.07077026367188 C 111.55232238769531 194.25445556640625 106.88679504394531 160.049072265625 95.0624771118164 127.06729125976562 C 95.33163452148438 125.55374908447266 90.17975616455078 115.31627655029297 90.37211608886719 111.23289489746094 C 88.41194152832031 108.54761505126953 85.51425170898438 102.42272186279297 90.8100814819336 99.75599670410156" stroke-width="0.0" fill="url(#shape_14_fill)"/>
    <path d="M 220.48733520507812 363.15216064453125 C 219.21295166015625 368.787841796875 225.0870819091797 378.6745910644531 227.97215270996094 378.6612243652344 C 236.04237365722656 380.04974365234375 243.19674682617188 379.1158752441406 251.14523315429688 376.5640869140625 C 253.68939208984375 376.7586975097656 257.03045654296875 374.6529235839844 263.93426513671875 373.9665222167969 C 276.1770324707031 395.03369140625 277.8476257324219 396.751953125 277.8931579589844 400.9342346191406 C 269.9450988769531 399.06768798828125 256.17791748046875 396.8829040527344 247.41995239257812 395.26361083984375 C 197.2798614501953 380.39910888671875 194.34585571289062 379.5406188964844 177.31492614746094 364.6878356933594 C 182.0707550048828 364.5709533691406 196.17274475097656 369.525390625 197.98724365234375 367.85174560546875 C 204.59588623046875 368.170166015625 213.77651977539062 365.0333251953125 220.48733520507812 363.15216064453125" stroke-width="0.0" fill="url(#shape_15_fill)"/>
    <path d="M 481.2410583496094 298.9062805175781 C 482.4195861816406 302.3293151855469 479.80426025390625 310.3065490722656 473.733154296875 310.5889892578125 C 474.2274169921875 313.3059387207031 467.1053466796875 318.5210266113281 460.21417236328125 325.76373291015625 C 471.5063171386719 324.74298095703125 477.64532470703125 319.3892822265625 486.813720703125 316.9063720703125 C 488.3497619628906 316.3861999511719 489.6986389160156 319.955078125 476.2616271972656 331.19598388671875 C 467.33905029296875 337.6692810058594 459.8966979980469 341.5766906738281 449.37677001953125 344.3665466308594 C 444.1844787597656 345.12646484375 442.43701171875 346.2392272949219 437.3036804199219 347.24249267578125 C 434.3210144042969 332.3930358886719 433.2455139160156 330.40533447265625 432.1320495605469 324.8973693847656 C 453.84814453125 317.07672119140625 458.90191650390625 312.5627746582031 481.2410583496094 298.9062805175781" stroke-width="0.0" fill="url(#shape_16_fill)"/>
    <path d="M 102.06212615966797 449.24676513671875 C 109.21855926513672 449.9109802246094 109.72848510742188 456.7730712890625 113.08111572265625 457.6416931152344 C 113.3670654296875 464.2156982421875 111.23578643798828 466.6976013183594 95.00920867919922 466.6903381347656 C 90.61957550048828 467.2020568847656 80.215576171875 467.38006591796875 73.82867431640625 466.58770751953125 C 73.74903106689453 466.8420104980469 62.95887756347656 466.7922058105469 60.65066909790039 463.31378173828125 C 60.51698684692383 456.5084228515625 64.65010833740234 451.8918151855469 70.9146957397461 446.9384765625 C 79.83422088623047 440.6763000488281 94.27569580078125 442.2218017578125 102.06212615966797 449.24676513671875" stroke-width="0.0" fill="url(#shape_17_fill)"/>
    <path d="M 249.16856384277344 353.6159362792969 C 255.35861206054688 358.83026123046875 259.0767517089844 366.9624938964844 263.1944274902344 372.3924560546875 C 261.967041015625 377.6185302734375 228.45755004882812 388.1991271972656 221.25450134277344 373.1938171386719 C 216.6717071533203 364.44427490234375 222.64283752441406 358.6883850097656 228.48721313476562 360.3053283691406 C 238.95411682128906 354.5113220214844 248.26913452148438 352.8801574707031 249.16856384277344 353.6159362792969" stroke-width="0.0" fill="url(#shape_18_fill)"/>
    <path d="M 235.99462890625 359.6264953613281 C 243.0137481689453 354.5735778808594 247.66586303710938 356.2994384765625 249.4296417236328 355.02392578125 C 256.6146240234375 359.00079345703125 256.6831970214844 367.70050048828125 261.4493103027344 371.7242431640625 C 261.87030029296875 378.5104064941406 230.2485809326172 386.89581298828125 226.09864807128906 377.3085021972656 C 224.40562438964844 372.33160400390625 223.37855529785156 363.2446594238281 213.0958251953125 360.94378662109375 C 215.99485778808594 360.6989440917969 234.631591796875 360.6619567871094 235.99462890625 359.6264953613281" stroke-width="0.0" fill="url(#shape_19_fill)"/>
    <path d="M 181.0123748779297 260.9974365234375 C 186.6964569091797 265.34912109375 188.4006805419922 264.910888671875 193.5426788330078 266.7317810058594 C 194.70184326171875 281.6784973144531 197.170166015625 292.2697448730469 189.36236572265625 298.2369384765625 C 186.25030517578125 301.1848449707031 181.97174072265625 303.2508239746094 176.40179443359375 300.26458740234375 C 170.47865295410156 298.2339172363281 173.84848022460938 284.8017272949219 175.6632843017578 283.6120910644531 C 173.30010986328125 280.1495056152344 171.82815551757812 278.7507629394531 173.42872619628906 275.5350341796875 C 172.01190185546875 271.02691650390625 176.5859832763672 266.95556640625 181.0123748779297 260.9974365234375" stroke-width="0.0" fill="url(#shape_20_fill)"/>
    <path d="M 101.88481140136719 353.4743957519531 C 107.91395568847656 351.0388488769531 110.50334930419922 350.361083984375 112.1910400390625 352.18377685546875 C 112.54164123535156 356.4162902832031 111.09458923339844 361.9704895019531 112.24798583984375 365.40728759765625 C 120.25994110107422 362.13592529296875 127.27017211914062 361.3544006347656 132.8070526123047 368.0841979980469 C 118.4109115600586 374.5251770019531 108.03913116455078 371.5145568847656 97.86409759521484 367.5899353027344 C 95.3979263305664 365.2178649902344 87.74100494384766 360.4439697265625 86.40653228759766 356.6271667480469 C 92.53413391113281 360.029052734375 98.05575561523438 353.64276123046875 101.88481140136719 353.4743957519531" stroke-width="0.0" fill="url(#shape_21_fill)"/>
    <path d="M 136.28387451171875 333.29522705078125 C 137.88938903808594 334.0117492675781 141.43783569335938 338.3153991699219 146.61058044433594 339.6513671875 C 151.20684814453125 341.995361328125 153.00894165039062 347.4526672363281 154.81588745117188 348.86328125 C 152.3762664794922 351.28021240234375 151.9040985107422 355.8966369628906 150.1251220703125 357.199462890625 C 142.21527099609375 352.4587707519531 139.56295776367188 356.60369873046875 135.14639282226562 358.8046875 C 135.34646606445312 351.7753601074219 132.90951538085938 349.48236083984375 131.7082977294922 346.0235290527344 C 129.5504608154297 344.91571044921875 128.03900146484375 336.0069885253906 136.28387451171875 333.29522705078125" stroke-width="0.0" fill="url(#shape_22_fill)"/>
    <path d="M 198.5757598876953 260.00604248046875 C 203.3857879638672 266.0951843261719 203.26101684570312 269.6604309082031 211.73492431640625 272.490966796875 C 208.3023223876953 272.1947937011719 200.12423706054688 267.2435302734375 192.66986083984375 272.65740966796875 C 191.23997497558594 271.5382995605469 188.34738159179688 266.6505126953125 183.644287109375 266.01544189453125 C 177.18508911132812 266.8631591796875 174.86036682128906 264.0511474609375 177.62950134277344 260.18182373046875 C 180.7695770263672 260.3342590332031 181.7931671142578 262.01666259765625 194.38978576660156 264.4615173339844 C 195.71844482421875 262.5840148925781 199.3558807373047 260.0158386230469 199.45425415039062 255.98944091796875 C 204.72549438476562 254.73472595214844 205.13864135742188 256.2468566894531 198.5757598876953 260.00604248046875" stroke-width="0.0" fill="url(#shape_23_fill)"/>
    <path d="M 61.151248931884766 277.93487548828125 C 59.09400939941406 284.612548828125 60.260189056396484 297.2216796875 60.869850158691406 310.0787048339844 C 52.3714485168457 306.08721923828125 52.17715072631836 301.14788818359375 50.06540298461914 298.6495056152344 C 49.60348129272461 296.5390319824219 49.60698318481445 288.6794128417969 50.674354553222656 285.15606689453125 C 48.25916290283203 278.3666687011719 54.91728210449219 272.2710876464844 61.151248931884766 277.93487548828125" stroke-width="0.0" fill="url(#shape_24_fill)"/>
    <path d="M 426.1623229980469 219.79885864257812 C 426.8854675292969 224.0205841064453 420.81134033203125 225.48289489746094 417.0126953125 226.8644561767578 C 414.8721008300781 228.08251953125 404.919921875 231.85923767089844 401.0176696777344 228.08985900878906 C 404.204833984375 224.73133850097656 411.31500244140625 221.3927459716797 414.5058288574219 220.82855224609375 C 417.77197265625 218.75914001464844 424.07867431640625 215.73597717285156 426.1623229980469 219.79885864257812" stroke-width="0.0" fill="url(#shape_25_fill)"/>
    <path d="M 353.092041015625 285.23040771484375 C 353.3879089355469 285.2469482421875 355.4498291015625 293.4727783203125 355.308837890625 297.0219421386719 C 355.5462951660156 298.2734069824219 357.40594482421875 305.7091064453125 356.538330078125 306.6748046875 C 353.3017578125 304.0914306640625 346.3376770019531 305.0573425292969 340.4510498046875 302.41119384765625 C 345.79473876953125 293.7190856933594 347.20892333984375 293.29071044921875 353.092041015625 285.23040771484375" stroke-width="0.0" fill="url(#shape_26_fill)"/>
    <path d="M 430.04986572265625 237.81675720214844 C 431.1172790527344 242.1331787109375 426.9029541015625 243.47064208984375 420.5712585449219 244.0616455078125 C 417.95574951171875 245.3218994140625 408.7068786621094 247.9033660888672 407.7591552734375 246.2213592529297 C 406.2662658691406 242.00341796875 409.225341796875 239.57960510253906 415.3250732421875 238.86302185058594 C 419.6664733886719 238.0164794921875 428.1777038574219 234.00390625 430.04986572265625 237.81675720214844" stroke-width="0.0" fill="url(#shape_27_fill)"/>
    <path d="M 350.40789794921875 180.46817016601562 C 334.2586669921875 188.7215118408203 327.502197265625 188.02439880371094 327.74420166015625 182.6259765625 C 331.662841796875 179.15176391601562 334.6309509277344 179.69371032714844 336.927490234375 179.0514373779297 C 343.88580322265625 175.5401611328125 348.9493713378906 174.3557586669922 350.40789794921875 180.46817016601562" stroke-width="0.0" fill="url(#shape_28_fill)"/>
    <path d="M 297.7397155761719 272.2295227050781 C 301.5533447265625 275.77362060546875 294.6929016113281 293.6814270019531 284.48846435546875 299.1146545410156 C 281.6744384765625 293.6011657714844 286.0540771484375 285.3137512207031 290.1007385253906 284.3247375488281 C 290.794677734375 278.657470703125 295.0873107910156 273.31011962890625 297.7397155761719 272.2295227050781" stroke-width="0.0" fill="url(#shape_29_fill)"/>
    <path d="M 149.42529296875 354.9876708984375 C 148.27967834472656 362.30828857421875 131.5957489013672 368.2579345703125 127.89323425292969 370.73040771484375 C 124.99664306640625 363.25811767578125 127.1591567993164 361.9969787597656 132.59384155273438 360.7313537597656 C 137.3766326904297 357.28582763671875 140.22564697265625 351.4091491699219 149.42529296875 354.9876708984375" stroke-width="0.0" fill="url(#shape_30_fill)"/>
    <path d="M 418.40264892578125 203.34446716308594 C 419.5516052246094 206.0944061279297 406.69696044921875 213.04762268066406 400.6615295410156 216.25225830078125 C 398.56085205078125 210.34226989746094 404.236083984375 206.76637268066406 407.6969299316406 204.50955200195312 C 415.2620849609375 198.50619506835938 417.2099304199219 199.99598693847656 418.40264892578125 203.34446716308594" stroke-width="0.0" fill="url(#shape_31_fill)"/>
    <path d="M 336.7356262207031 158.82525634765625 C 340.30419921875 162.72482299804688 335.9748840332031 166.67543029785156 332.6842041015625 167.637451171875 C 328.7323913574219 173.01681518554688 323.49102783203125 175.96139526367188 318.7519226074219 170.83285522460938 C 322.5602722167969 168.7921600341797 332.4972839355469 157.04563903808594 336.7356262207031 158.82525634765625" stroke-width="0.0" fill="url(#shape_32_fill)"/>
    <path d="M 354.56573486328125 197.92453002929688 C 354.55316162109375 202.95016479492188 337.4665832519531 203.18264770507812 332.2201843261719 202.28775024414062 C 333.9175720214844 201.0698699951172 333.16485595703125 197.5667724609375 334.639892578125 196.33511352539062 C 343.4881286621094 196.1570587158203 352.0609130859375 192.50881958007812 354.56573486328125 197.92453002929688" stroke-width="0.0" fill="url(#shape_33_fill)"/>
    <path d="M 184.83529663085938 359.2816162109375 C 189.72726440429688 361.0047607421875 193.34359741210938 362.3609619140625 195.40721130371094 366.5021667480469 C 191.5884246826172 369.3566589355469 187.39280700683594 367.5729675292969 184.4192352294922 366.4892272949219 C 181.8946990966797 359.0713806152344 182.81097412109375 357.8148498535156 184.83529663085938 359.2816162109375" stroke-width="0.0" fill="url(#shape_34_fill)"/>
    <path d="M 356.13525390625 299.2408752441406 C 355.1196594238281 303.5496520996094 353.6160583496094 305.39959716796875 350.5001220703125 304.81829833984375 C 348.462890625 302.58929443359375 348.6583557128906 300.19793701171875 345.6647644042969 298.3844909667969 C 350.3758544921875 299.3739318847656 353.30389404296875 300.943359375 356.13525390625 299.2408752441406" stroke-width="0.0" fill="url(#shape_35_fill)"/>
  </g>
</svg>
