<?xml version="1.0" encoding="UTF-8"?>
<!-- Generator: visioncortex VTracer 0.6.4 -->
<svg version="1.1" xmlns="http://www.w3.org/2000/svg" width="512" height="512">
<path d="M0 0 C168.96 0 337.92 0 512 0 C512 168.96 512 337.92 512 512 C343.04 512 174.08 512 0 512 C0 343.04 0 174.08 0 0 Z " fill="#000000" transform="translate(0,0)"/>
<path d="M0 0 C0.99 0.33 1.98 0.66 3 1 C3.371 11.754 3.172 23.622 -3.875 32.312 C-8.962 36.352 -16.831 35.45 -23 35 C-28.067 33.855 -31.191 31.383 -34 27 C-34 26.34 -34 25.68 -34 25 C-33.227 25.035 -32.453 25.07 -31.656 25.105 C-22.579 25.341 -16.476 24.505 -9.449 18.496 C-7.001 15.969 -5.634 13.05 -4.188 9.875 C-3.889 9.255 -3.591 8.635 -3.283 7.996 C-2.028 5.362 -0.923 2.77 0 0 Z " fill="#FFFFFF" transform="translate(106,319)"/>
</svg>
