<?xml version="1.0" encoding="UTF-8"?>
<!-- Generator: visioncortex VTracer 0.6.4 -->
<svg version="1.1" xmlns="http://www.w3.org/2000/svg" width="512" height="512">
<path d="M0 0 C168.96 0 337.92 0 512 0 C512 168.96 512 337.92 512 512 C343.04 512 174.08 512 0 512 C0 343.04 0 174.08 0 0 Z " fill="#000000" transform="translate(0,0)"/>
<path d="M0 0 C5.47 3.958 5.47 3.958 6.738 7.762 C4.944 7.669 4.944 7.669 3.113 7.574 C-1.043 7.589 -3.756 8.398 -7.262 10.762 C-16.292 22.049 -11.756 39.864 -10.328 52.912 C-6.787 87.055 -6.787 87.055 -16.262 100.762 C-21.946 106.644 -28.985 109.334 -37.012 110.137 C-41.894 109.573 -44.213 107.811 -47.637 104.387 C-49.262 101.762 -49.262 101.762 -49.387 99.262 C-46.766 93.437 -41.829 91.564 -36.262 89.199 C-30.098 86.259 -27.934 82.817 -25.25 76.664 C-23.782 72.353 -23.132 68.452 -23.212 63.902 C-23.225 62.964 -23.238 62.025 -23.251 61.058 C-23.269 60.053 -23.286 59.047 -23.305 58.012 C-23.327 55.854 -23.349 53.697 -23.369 51.539 C-23.406 48.16 -23.449 44.782 -23.509 41.403 C-23.994 12.541 -23.994 12.541 -16.762 3.074 C-11.865 -1.455 -6.217 -3.404 0 0 Z " fill="#FFFFFF" transform="translate(275.26171875,387.23828125)"/>
</svg>
