<?xml version="1.0" encoding="UTF-8"?>
<!-- Generator: visioncortex VTracer 0.6.4 -->
<svg version="1.1" xmlns="http://www.w3.org/2000/svg" width="512" height="512">
<path d="M0 0 C168.96 0 337.92 0 512 0 C512 168.96 512 337.92 512 512 C343.04 512 174.08 512 0 512 C0 343.04 0 174.08 0 0 Z " fill="#000000" transform="translate(0,0)"/>
<path d="M0 0 C2.993 2.443 3.715 4.585 4.637 8.336 C3.841 11.592 3.001 12.971 0.637 15.336 C-2.503 15.799 -5.615 16.123 -8.777 16.371 C-12.068 16.714 -14.112 17.147 -16.777 19.156 C-18.335 21.297 -18.992 22.737 -19.363 25.336 C-18.855 25.725 -18.347 26.115 -17.824 26.516 C-10.952 32.101 -5.138 39.464 -3.363 48.336 C-2.662 55.951 -2.793 62.93 -7.363 69.336 C-13.502 75.19 -18.75 76.774 -27.156 76.672 C-33.175 76.041 -37.949 73.731 -42.246 69.469 C-47.424 63.04 -48.698 56.439 -48.551 48.273 C-48.55 47.592 -48.549 46.911 -48.549 46.209 C-48.514 42.156 -48.139 38.312 -47.363 34.336 C-51.788 36.303 -53.5 38.623 -55.449 42.863 C-57.189 47.57 -58.287 52.441 -59.363 57.336 C-66.884 55.723 -73.419 51.467 -78.234 45.5 C-79.568 42.944 -79.635 41.774 -79.113 38.961 C-78.359 36.691 -78.359 36.691 -77.363 34.336 C-77.024 33.507 -76.685 32.678 -76.336 31.824 C-72.559 23.52 -67.695 16.859 -59.258 13.027 C-55.167 11.534 -52.077 11.362 -47.678 11.656 C-41.047 12.16 -41.047 12.16 -35.074 9.734 C-33.399 7.668 -33.399 7.668 -31.938 5.445 C-25.095 -3.723 -9.54 -5.457 0 0 Z " fill="#FFFFFF" transform="translate(492.36328125,62.6640625)"/>
</svg>
